<svg id="Capa_1" enable-background="new 0 0 512 512" height="512" viewBox="0 0 512 512" width="512" xmlns="http://www.w3.org/2000/svg" xmlns:xlink="http://www.w3.org/1999/xlink"><radialGradient id="SVGID_1_" cx="455.775" cy="616.885" gradientTransform="matrix(.931 0 0 .112 -161.706 415.087)" gradientUnits="userSpaceOnUse" r="237.602"><stop offset="0" stop-color="#f4d8bc"/><stop offset=".0882" stop-color="#f6dcc2"/><stop offset=".4962" stop-color="#ffead8"/><stop offset=".8982" stop-color="#fff"/></radialGradient><radialGradient id="SVGID_2_" cx="188.477" cy="341.08" gradientTransform="matrix(.908 .419 -.323 .7 127.354 23.35)" gradientUnits="userSpaceOnUse" r="140.548"><stop offset="0" stop-color="#d56617"/><stop offset=".2439" stop-color="#da721c"/><stop offset=".6425" stop-color="#e07f22"/><stop offset="1" stop-color="#e28424"/></radialGradient><linearGradient id="SVGID_3_" gradientUnits="userSpaceOnUse" x1="351.886" x2="356.141" y1="436.766" y2="335.717"><stop offset=".029" stop-color="#e28424"/><stop offset=".3968" stop-color="#e18223"/><stop offset=".5672" stop-color="#de7a20"/><stop offset=".6965" stop-color="#d86e1a"/><stop offset=".7485" stop-color="#d56617"/></linearGradient><linearGradient id="lg1"><stop offset="0" stop-color="#a7a2d3"/><stop offset=".3182" stop-color="#857f9a"/><stop offset=".5922" stop-color="#665e66"/><stop offset="1" stop-color="#544f57"/></linearGradient><radialGradient id="SVGID_4_" cx="314.45" cy="470.116" gradientTransform="matrix(.762 -.648 .647 .76 -229.198 316.582)" gradientUnits="userSpaceOnUse" r="19.72" xlink:href="#lg1"/><radialGradient id="SVGID_5_" cx="165.331" cy="470.116" gradientTransform="matrix(.762 -.648 .647 .76 -264.767 219.923)" gradientUnits="userSpaceOnUse" r="19.72" xlink:href="#lg1"/><radialGradient id="SVGID_6_" cx="282.624" cy="274.629" gradientTransform="matrix(.703 -.712 .549 .542 -66.634 326.925)" gradientUnits="userSpaceOnUse" r="136.895"><stop offset=".3927" stop-color="#d56617"/><stop offset=".583" stop-color="#d96f1b"/><stop offset=".8597" stop-color="#e28424"/></radialGradient><linearGradient id="SVGID_7_" gradientUnits="userSpaceOnUse" x1="411.389" x2="415.644" y1="436.766" y2="335.717"><stop offset=".029" stop-color="#e7a561"/><stop offset=".3267" stop-color="#e7a45f"/><stop offset=".4646" stop-color="#e69e57"/><stop offset=".5696" stop-color="#e4954b"/><stop offset=".6579" stop-color="#e28938"/><stop offset=".735" stop-color="#e07821"/><stop offset=".7485" stop-color="#df751c"/></linearGradient><linearGradient id="SVGID_8_" gradientUnits="userSpaceOnUse" x1="396.134" x2="400.69" y1="481.859" y2="373.665"><stop offset="0" stop-color="#efc89d"/><stop offset=".0433" stop-color="#eec293"/><stop offset=".164" stop-color="#ebb57d"/><stop offset=".2958" stop-color="#e9ac6d"/><stop offset=".446" stop-color="#e7a764"/><stop offset=".6547" stop-color="#e7a561"/><stop offset=".735" stop-color="#e7a35e"/><stop offset=".803" stop-color="#e59b53"/><stop offset=".8664" stop-color="#e38f42"/><stop offset=".9268" stop-color="#e17e29"/><stop offset=".9532" stop-color="#df751c"/></linearGradient><linearGradient id="lg2"><stop offset="0" stop-color="#d0cee7"/><stop offset=".3128" stop-color="#a19dae"/><stop offset=".5922" stop-color="#756e78"/><stop offset="1" stop-color="#665e66"/></linearGradient><radialGradient id="SVGID_9_" cx="373.952" cy="470.116" gradientTransform="matrix(.762 -.648 .647 .76 -215.004 355.151)" gradientUnits="userSpaceOnUse" r="19.72" xlink:href="#lg2"/><radialGradient id="SVGID_10_" cx="-58.059" cy="-16.858" gradientTransform="matrix(-.999 .043 -.027 -.63 18.355 -4.4)" gradientUnits="userSpaceOnUse" r="68.508"><stop offset="0" stop-color="#fff9c1"/><stop offset=".4629" stop-color="#e7a561"/><stop offset=".5729" stop-color="#e2944c"/><stop offset=".7984" stop-color="#d56718"/><stop offset=".801" stop-color="#d56617"/></radialGradient><linearGradient id="lg3"><stop offset=".1101" stop-color="#8b818e"/><stop offset=".5596" stop-color="#544f57"/><stop offset=".8106" stop-color="#4b464d"/><stop offset=".9429" stop-color="#454045"/></linearGradient><radialGradient id="SVGID_11_" cx="60.898" cy="14.621" gradientTransform="matrix(.967 .256 -.2 .755 4.957 -12.014)" gradientUnits="userSpaceOnUse" r="53.15" xlink:href="#lg3"/><radialGradient id="SVGID_12_" cx="22.015" cy="62.691" gradientTransform="matrix(1 0 0 .346 0 41.017)" gradientUnits="userSpaceOnUse" r="77.921"><stop offset="0" stop-color="#fffbe4"/><stop offset=".2538" stop-color="#fff1dd"/><stop offset=".3769" stop-color="#ffead8"/><stop offset=".5229" stop-color="#fee7d3"/><stop offset=".7042" stop-color="#f9dec3"/><stop offset=".9034" stop-color="#f3d0aa"/><stop offset=".9899" stop-color="#efc89d"/></radialGradient><radialGradient id="SVGID_13_" cx="22.58" cy="78.924" gradientTransform="matrix(1 0 0 .627 0 29.43)" gradientUnits="userSpaceOnUse" r="33.265"><stop offset="0" stop-color="#fffbe4"/><stop offset=".2484" stop-color="#fff1da"/><stop offset=".4954" stop-color="#ffe2cb"/><stop offset=".632" stop-color="#fddfc6"/><stop offset=".8016" stop-color="#f8d6b6"/><stop offset=".9881" stop-color="#efc89d"/><stop offset=".9899" stop-color="#efc89d"/></radialGradient><radialGradient id="SVGID_14_" cx="462.194" cy="174.316" gradientTransform="matrix(-.789 .615 -.846 -1.086 974.267 79.568)" gradientUnits="userSpaceOnUse" r="71.129"><stop offset="0" stop-color="#f4d8bc"/><stop offset=".2384" stop-color="#f1cba5"/><stop offset=".5549" stop-color="#ecb780"/><stop offset=".6806" stop-color="#eaab6a"/><stop offset=".9411" stop-color="#e38c32"/><stop offset="1" stop-color="#e28424"/></radialGradient><radialGradient id="SVGID_15_" cx="241.141" cy="129.898" gradientTransform="matrix(-.371 .929 -1.279 -.51 496.555 -27.844)" gradientUnits="userSpaceOnUse" r="235.663"><stop offset="0" stop-color="#ffe2cb"/><stop offset=".1984" stop-color="#f9d5b4"/><stop offset=".563" stop-color="#ecb780"/><stop offset=".9122" stop-color="#e28424"/></radialGradient><radialGradient id="SVGID_16_" cx="86.036" cy="144.66" gradientTransform="matrix(-.371 .929 -1.279 -.51 302.861 138.515)" gradientUnits="userSpaceOnUse" r="244.002"><stop offset="0" stop-color="#fffbe4"/><stop offset=".0961" stop-color="#fbedd1"/><stop offset=".3054" stop-color="#f2d2ab"/><stop offset=".4161" stop-color="#efc89d"/><stop offset=".4902" stop-color="#eab078"/><stop offset=".5821" stop-color="#e59750"/><stop offset=".6665" stop-color="#e28434"/><stop offset=".7397" stop-color="#e07922"/><stop offset=".7934" stop-color="#df751c"/></radialGradient><radialGradient id="SVGID_17_" cx="133.114" cy="51.294" gradientTransform="matrix(-.371 .929 -1.279 -.51 248.01 -46.191)" gradientUnits="userSpaceOnUse" r="72.944"><stop offset=".001" stop-color="#efc89d"/><stop offset=".2446" stop-color="#efc79b"/><stop offset=".3323" stop-color="#eec394"/><stop offset=".3946" stop-color="#edbc89"/><stop offset=".4233" stop-color="#ecb780"/><stop offset=".8117" stop-color="#ecb780"/></radialGradient><radialGradient id="SVGID_18_" cx="342.127" cy="274.629" gradientTransform="matrix(.703 -.712 .549 .542 -48.942 369.262)" gradientUnits="userSpaceOnUse" r="136.895"><stop offset="0" stop-color="#efc89d"/><stop offset=".2182" stop-color="#edbd8a"/><stop offset=".3927" stop-color="#ecb780"/><stop offset=".5045" stop-color="#ebb277"/><stop offset=".685" stop-color="#e8a55f"/><stop offset=".8597" stop-color="#e49542"/></radialGradient><radialGradient id="SVGID_19_" cx="206.476" cy="306.584" gradientTransform="matrix(.703 -.712 .549 .542 -106.806 287.386)" gradientUnits="userSpaceOnUse" r="140.548"><stop offset="0" stop-color="#ecb780"/><stop offset=".3156" stop-color="#e9ab6b"/><stop offset=".5464" stop-color="#e7a561"/><stop offset=".7269" stop-color="#e6a058"/><stop offset="1" stop-color="#e49542"/></radialGradient><radialGradient id="SVGID_21_" cx="325.428" cy="298.126" gradientTransform="matrix(.649 -.761 .616 .526 -69.375 388.968)" gradientUnits="userSpaceOnUse" r="118.842"><stop offset=".1103" stop-color="#fff9e2"/><stop offset=".2442" stop-color="#faeacd"/><stop offset=".4919" stop-color="#f2d1aa"/><stop offset=".6259" stop-color="#efc89d"/><stop offset="1" stop-color="#e7a561"/></radialGradient><radialGradient id="SVGID_22_" cx="170.547" cy="341.206" gradientTransform="matrix(1 0 0 .809 0 65.055)" gradientUnits="userSpaceOnUse" r="170.264"><stop offset=".2745" stop-color="#fbf4c6"/><stop offset=".4778" stop-color="#ecb780"/><stop offset=".8132" stop-color="#e49542"/><stop offset="1" stop-color="#ecb780"/></radialGradient><radialGradient id="SVGID_23_" cx="39.784" cy="73.518" gradientTransform="matrix(1 0 0 .837 0 11.99)" gradientUnits="userSpaceOnUse" r="36.995"><stop offset=".4502" stop-color="#efc89d"/><stop offset=".8043" stop-color="#fbdbbe"/><stop offset="1" stop-color="#ffe2cb"/></radialGradient><radialGradient id="SVGID_24_" cx="38.59" cy="41.354" gradientTransform="matrix(1 0 0 .781 0 9.068)" gradientUnits="userSpaceOnUse" r="57.98"><stop offset="0" stop-color="#fffbe4"/><stop offset=".2538" stop-color="#fff1dd"/><stop offset=".3769" stop-color="#ffead8"/><stop offset=".5526" stop-color="#fee8d5"/><stop offset=".7023" stop-color="#fbe2ca"/><stop offset=".8426" stop-color="#f6d8b9"/><stop offset=".9764" stop-color="#f0caa0"/><stop offset=".9899" stop-color="#efc89d"/></radialGradient><radialGradient id="SVGID_25_" cx="104.954" cy="74.297" gradientTransform="matrix(1 0 0 .562 0 32.534)" gradientUnits="userSpaceOnUse" r="84.902"><stop offset="0" stop-color="#ffead8"/><stop offset=".4928" stop-color="#ffe2cb"/><stop offset=".5832" stop-color="#fcdcc1"/><stop offset=".7395" stop-color="#f5cca5"/><stop offset=".9051" stop-color="#ecb780"/></radialGradient><radialGradient id="SVGID_26_" cx="163.057" cy="40.663" gradientTransform="matrix(-.96 .279 -.385 -1.322 335.258 48.849)" gradientUnits="userSpaceOnUse" r="140.612"><stop offset=".143" stop-color="#f4d8bc"/><stop offset=".6161" stop-color="#ecb780"/><stop offset=".754" stop-color="#f1ca96"/><stop offset="1" stop-color="#fbf4c6"/></radialGradient><radialGradient id="SVGID_27_" cx="43.211" cy="25.211" gradientTransform="matrix(-.96 .279 -.299 -1.029 92.247 39.069)" gradientUnits="userSpaceOnUse" r="97.766"><stop offset=".0005790931" stop-color="#fff9e2"/><stop offset=".2293" stop-color="#f4d8b3"/><stop offset=".36" stop-color="#efc89d"/><stop offset=".9388" stop-color="#efc89d"/></radialGradient><radialGradient id="SVGID_28_" cx="-30.728" cy="-43.845" gradientTransform="matrix(-.999 .043 -.093 -2.16 76.034 -107.589)" gradientUnits="userSpaceOnUse" r="68.508"><stop offset="0" stop-color="#fffbe4"/><stop offset=".5131" stop-color="#ecb780"/><stop offset=".8718" stop-color="#eec394"/><stop offset="1" stop-color="#efc89d"/></radialGradient><radialGradient id="SVGID_29_" cx="95.004" cy="14.621" gradientTransform="matrix(.967 .256 -.2 .755 6.095 -20.752)" gradientUnits="userSpaceOnUse" r="53.15" xlink:href="#lg3"/><radialGradient id="SVGID_30_" cx="24.95" cy="12.497" gradientTransform="matrix(.762 -.571 .647 .669 -2.135 74.44)" gradientUnits="userSpaceOnUse" r="15.42" xlink:href="#lg2"/><radialGradient id="SVGID_31_" cx="224.833" cy="470.116" gradientTransform="matrix(.762 -.648 .647 .76 -250.574 258.492)" gradientUnits="userSpaceOnUse" r="19.72" xlink:href="#lg2"/><g><path d="m265.704 512c127.316 0 230.526-12.645 230.526-28.243h-461.052c0 15.598 103.21 28.243 230.526 28.243z" fill="url(#SVGID_1_)"/><path d="m194.414 483.757 5.907-184.957c.011-.043.024-.532.024-1.025 0-15.824-13.318-28.537-29.357-27.542-13.743.853-24.928 12.038-25.781 25.781-.711 11.456 5.572 21.524 14.987 26.343 7.909 4.047 12.758 12.323 12.953 21.205l3.069 140.195z" fill="url(#SVGID_2_)"/><path d="m319.696 386.856 26.745 26.745-18.798 70.156h11.589l48.505-84.013-29.298-50.746z" fill="url(#SVGID_3_)"/><path d="m323.238 472.693h8.155c1.287 0 2.33 1.043 2.33 2.33v8.734h-21.163v-.385c-.001-5.898 4.78-10.679 10.678-10.679z" fill="url(#SVGID_4_)"/><path d="m174.119 472.693h8.155c1.287 0 2.33 1.043 2.33 2.33v8.734h-21.164v-.385c0-5.898 4.781-10.679 10.679-10.679z" fill="url(#SVGID_5_)"/><path d="m389.815 278.074c0-30.271-24.76-54.758-55.132-54.316-28.921.422-52.704 23.889-53.49 52.802-.477 17.545 7.367 33.276 19.873 43.534 11.831 9.705 18.63 24.246 18.63 39.549v27.212c17.15 0 32.651-10.219 39.41-25.982l26.078-60.819c2.977-6.719 4.631-14.156 4.631-21.98z" fill="url(#SVGID_6_)"/><path d="m379.199 386.856 26.745 26.745-18.798 70.156h11.588l48.506-84.013-29.299-50.746z" fill="url(#SVGID_7_)"/><path d="m419.943 413.601-32.215-35.079-8.529 8.334 26.745 26.745c0 .001-18.798 70.156-18.798 70.156h11.589l4.498-7.792c4.896-18.272 16.71-62.364 16.71-62.364z" fill="url(#SVGID_8_)"/><path d="m382.741 472.693h8.155c1.287 0 2.33 1.043 2.33 2.33v8.734h-21.163v-.385c-.001-5.898 4.78-10.679 10.678-10.679z" fill="url(#SVGID_9_)"/><path d="m66.952 0v43.598l15.096 4.564.959-3.171c2.728-9.025 1.295-18.796-3.912-26.656z" fill="url(#SVGID_10_)"/><path d="m66.952 8.131v23.062c0 6.688 5.421 12.109 12.109 12.109v-6.39c0-7.761-2.437-15.327-6.967-21.628z" fill="url(#SVGID_11_)"/><path d="m98.53 65.952h-77.253c-2.359 2.691-3.722 6.189-3.722 9.891v1.853c0 1.7 1.378 3.077 3.078 3.077l78.528 6.817z" fill="url(#SVGID_12_)"/><path d="m20.632 80.774c-2.685 0-4.861 2.176-4.861 4.861 0 2.278 1.567 4.189 3.681 4.716h69.094c5.94-3.097 10.766-5.988 10.766-5.988l-.153-3.59h-78.527z" fill="url(#SVGID_13_)"/><path d="m428.993 164.557c-28.362 0-51.354 22.992-51.354 51.354s22.992 51.354 51.354 51.354 51.354-22.992 51.354-51.354-22.992-51.354-51.354-51.354zm-12.161 79.969c-15.536 0-28.13-12.594-28.13-28.13s12.594-28.13 28.13-28.13 28.13 12.594 28.13 28.13-12.594 28.13-28.13 28.13z" fill="url(#SVGID_14_)"/><path d="m350.017 169.893h-155.257c-11.152 0-20.625-8.163-22.272-19.193l-5.292-35.428c-3.219-21.549-9.644-42.469-19.041-62.071-7.39-15.415-22.936-25.256-40.031-25.256h-14.402l11.3 170.421c0 82.311 64.928 149.25 137.737 149.25 37.04 0 72.362-15.623 97.28-43.028h93.538c14.12 0 25.567-11.447 25.567-25.567.001-60.269-48.857-109.128-109.127-109.128z" fill="url(#SVGID_15_)"/><path d="m119.175 198.579v-169.205c-3.563-.919-7.265-1.428-11.052-1.428h-14.401v170.633c0 82.311 66.726 149.037 149.037 149.037 4.121 0 8.218-.204 12.284-.586-76.141-6.667-135.868-70.579-135.868-148.451z" fill="url(#SVGID_16_)"/><path d="m116.322 38.819-22.6 11.712v53.599h5.703c9.332 0 16.898-7.565 16.898-16.897v-48.414z" fill="url(#SVGID_17_)"/><path d="m449.318 278.074c0-30.271-24.76-54.758-55.132-54.316-28.921.422-52.704 23.889-53.49 52.802-.477 17.545 7.367 33.276 19.873 43.534 11.831 9.705 18.63 24.246 18.63 39.549v27.212c17.15 0 32.651-10.219 39.41-25.982l26.078-60.819c2.977-6.719 4.631-14.156 4.631-21.98z" fill="url(#SVGID_18_)"/><path d="m253.917 483.757 5.907-184.957c.011-.043.024-.532.024-1.025 0-15.824-13.318-28.537-29.357-27.542-13.743.853-24.928 12.038-25.781 25.781-.711 11.456 5.572 21.524 14.987 26.343 7.909 4.047 12.758 12.323 12.953 21.205l3.069 140.195z" fill="url(#SVGID_19_)"/><path d="m253.917 483.757 5.907-184.957c.011-.043.024-.532.024-1.025 0-15.824-13.318-28.537-29.357-27.542-13.743.853-24.928 12.038-25.781 25.781-.711 11.456 5.572 21.524 14.987 26.343 7.909 4.047 12.758 12.323 12.953 21.205l3.069 140.195z" fill="url(#SVGID_19_)"/><path d="m393.198 359.644c0-15.302-6.799-29.844-18.63-39.549-12.506-10.258-20.35-25.989-19.873-43.534.73-26.831 21.268-48.959 47.334-52.346-2.564-.332-5.181-.495-7.844-.456-28.921.422-52.704 23.889-53.49 52.802-.477 17.545 7.367 33.276 19.873 43.534 11.832 9.705 18.63 24.246 18.63 39.549v27.212c4.856 0 9.569-.845 13.999-2.378v-24.834z" fill="url(#SVGID_21_)"/><path d="m233.697 322.357c-9.415-4.818-15.698-14.886-14.987-26.343.742-11.954 9.304-21.964 20.564-24.931-2.781-.73-5.732-1.039-8.783-.849-13.743.853-24.928 12.038-25.781 25.781-.711 11.456 5.572 21.524 14.987 26.343 7.909 4.047 12.758 12.323 12.953 21.205l3.069 140.195h13.999l-3.069-140.195c-.194-8.883-5.043-17.159-12.952-21.206z" fill="url(#SVGID_22_)"/><path d="m32.178 97.767h37.063c4.122 0 12.454-3.845 19.304-7.416h-69.093c2.513 4.428 7.271 7.416 12.726 7.416z" fill="url(#SVGID_23_)"/><path d="m97.655 45.36h-32.242c-3.967-.12-8.091.746-12.087 2.817l-27.674 14.347c-1.688.875-3.163 2.045-4.375 3.428h77.253z" fill="url(#SVGID_24_)"/><path d="m51.936 62.524c-4.975 2.579-8.098 7.715-8.098 13.319v1.853c0 1.7 1.378 3.078 3.078 3.078-2.685 0-4.861 2.176-4.861 4.861 0 2.278 1.567 4.189 3.681 4.716 2.513 4.428 7.271 7.416 12.727 7.416h34.599c9.332 0 16.898-7.565 16.898-16.898v-48.413z" fill="url(#SVGID_25_)"/><path d="m116.581 47.694-3.112-15.238-5.346-4.51h-45.739c-9.281 0-16.804 7.524-16.804 16.804 0 1.626 1.318 2.944 2.944 2.944z" fill="url(#SVGID_26_)"/><path d="m65.943 44.75c0-9.281 7.524-16.804 16.804-16.804h-25.453c-9.281 0-16.804 7.524-16.804 16.804 0 1.626 1.318 2.944 2.944 2.944h25.453c-1.627 0-2.944-1.318-2.944-2.944z" fill="url(#SVGID_27_)"/><path d="m101.058 0v43.598l15.096 4.564.959-3.171c2.728-9.025 1.295-18.796-3.912-26.656z" fill="url(#SVGID_28_)"/><path d="m101.058 8.131v23.062c0 6.688 5.421 12.109 12.109 12.109v-6.39c0-7.761-2.437-15.327-6.967-21.628z" fill="url(#SVGID_29_)"/><path d="m37.139 74.632c0 2.077-4.091 6.142-6.692 6.142s-6.692-4.065-6.692-6.142 2.996-3.76 6.692-3.76 6.692 1.684 6.692 3.76z" fill="url(#SVGID_30_)"/><path d="m233.622 472.693h8.155c1.287 0 2.33 1.043 2.33 2.33v8.734h-21.163v-.385c-.001-5.898 4.78-10.679 10.678-10.679z" fill="url(#SVGID_31_)"/></g></svg>