<svg id="Capa_1" enable-background="new 0 0 512 512" height="512" viewBox="0 0 512 512" width="512" xmlns="http://www.w3.org/2000/svg" xmlns:xlink="http://www.w3.org/1999/xlink"><radialGradient id="SVGID_1_" cx="313.869" cy="1379.98" gradientTransform="matrix(.931 0 0 .112 -31.713 318.098)" gradientUnits="userSpaceOnUse" r="263.961"><stop offset="0" stop-color="#c6c1c8"/><stop offset=".2432" stop-color="#dddbdf"/><stop offset=".4962" stop-color="#f1f1f4"/><stop offset=".6787" stop-color="#fafafb"/><stop offset=".8982" stop-color="#fff"/></radialGradient><radialGradient id="SVGID_2_" cx="64.156" cy="12.576" gradientTransform="matrix(1 0 0 .685 0 3.961)" gradientUnits="userSpaceOnUse" r="80.38"><stop offset="0" stop-color="#f1f1f4"/><stop offset=".0542" stop-color="#f0f0f3"/><stop offset="1" stop-color="#dfdde2"/></radialGradient><radialGradient id="SVGID_3_" cx="23.429" cy="32.513" gradientTransform="matrix(1 0 0 .809 0 6.208)" gradientUnits="userSpaceOnUse" r="36.743"><stop offset=".0154" stop-color="#fff9e2"/><stop offset=".1821" stop-color="#fef5db"/><stop offset=".4331" stop-color="#fbebc6"/><stop offset=".7357" stop-color="#f6daa4"/><stop offset=".9654" stop-color="#f1cb86"/></radialGradient><radialGradient id="SVGID_4_" cx="15.776" cy="56.844" gradientTransform="matrix(1 0 0 .809 0 10.853)" gradientUnits="userSpaceOnUse" r="34.041"><stop offset="0" stop-color="#f1cb86"/><stop offset=".0055" stop-color="#f1cb86"/><stop offset="1" stop-color="#eab14d"/></radialGradient><radialGradient id="SVGID_5_" cx="263.184" cy="141.878" gradientTransform="matrix(-.705 -.71 .708 -.703 348.104 428.434)" gradientUnits="userSpaceOnUse" r="224.207"><stop offset="0" stop-color="#756e78"/><stop offset=".2324" stop-color="#69636c"/><stop offset=".6626" stop-color="#5a545d"/><stop offset="1" stop-color="#544f57"/></radialGradient><radialGradient id="SVGID_6_" cx="195.113" cy="420.256" gradientTransform="matrix(1 0 0 .809 0 80.24)" gradientUnits="userSpaceOnUse" r="65.78"><stop offset=".303" stop-color="#eab14d"/><stop offset=".5509" stop-color="#eaaf4a"/><stop offset=".7406" stop-color="#e8a940"/><stop offset=".9105" stop-color="#e69f30"/><stop offset="1" stop-color="#e49824"/></radialGradient><radialGradient id="SVGID_7_" cx="225.587" cy="333.985" gradientTransform="matrix(-.762 -.648 .647 -.76 181.248 734.091)" gradientUnits="userSpaceOnUse" r="72.947"><stop offset="0" stop-color="#454045"/><stop offset=".5118" stop-color="#4f4a51"/><stop offset="1" stop-color="#544f57"/></radialGradient><linearGradient id="lg1"><stop offset="0" stop-color="#a298a5"/><stop offset=".2612" stop-color="#837b86"/><stop offset=".5451" stop-color="#69636c"/><stop offset=".8003" stop-color="#5a545d"/><stop offset="1" stop-color="#544f57"/></linearGradient><radialGradient id="SVGID_8_" cx="257.634" cy="96.337" gradientTransform="matrix(-.762 -.648 .647 -.76 391.476 336.567)" gradientUnits="userSpaceOnUse" r="179.648" xlink:href="#lg1"/><radialGradient id="SVGID_9_" cx="24.507" cy="249.065" gradientTransform="matrix(.356 -.935 .598 .228 -133.249 215.202)" gradientUnits="userSpaceOnUse" r="305.11"><stop offset=".0166" stop-color="#dddaec"/><stop offset=".1752" stop-color="#bdb9c6"/><stop offset=".2688" stop-color="#afaab4"/><stop offset=".6376" stop-color="#6f6a72"/><stop offset=".8194" stop-color="#544f57"/></radialGradient><radialGradient id="SVGID_10_" cx="255.584" cy="441.067" gradientTransform="matrix(1 0 0 .809 0 84.214)" gradientUnits="userSpaceOnUse" r="79.66"><stop offset="0" stop-color="#fff9e2"/><stop offset=".4401" stop-color="#ecbe6b"/><stop offset=".5671" stop-color="#ebb961"/><stop offset=".7839" stop-color="#e8aa45"/><stop offset="1" stop-color="#e49824"/></radialGradient><radialGradient id="SVGID_11_" cx="271.75" cy="451.572" gradientUnits="userSpaceOnUse" r="54.736"><stop offset=".0161" stop-color="#fbf4c6"/><stop offset=".1338" stop-color="#f5dd9f"/><stop offset=".2418" stop-color="#f0cc82"/><stop offset=".3358" stop-color="#edc271"/><stop offset=".4052" stop-color="#ecbe6b"/><stop offset=".5293" stop-color="#ebbb65"/><stop offset=".7007" stop-color="#e9b153"/><stop offset=".8988" stop-color="#e6a136"/><stop offset="1" stop-color="#e49824"/></radialGradient><radialGradient id="SVGID_12_" cx="215.426" cy="451.849" gradientUnits="userSpaceOnUse" r="50.333"><stop offset=".0161" stop-color="#fbf4c6"/><stop offset=".1922" stop-color="#f5dd9f"/><stop offset=".3538" stop-color="#f0cc82"/><stop offset=".4944" stop-color="#edc271"/><stop offset=".5983" stop-color="#ecbe6b"/></radialGradient><radialGradient id="SVGID_13_" cx="217.178" cy="330.721" gradientTransform="matrix(-.762 -.648 .647 -.76 168.549 722.895)" gradientUnits="userSpaceOnUse" r="72.947" xlink:href="#lg1"/><radialGradient id="SVGID_14_" cx="231.684" cy="356.47" gradientTransform="matrix(-.762 -.648 .647 -.76 177.44 777.621)" gradientUnits="userSpaceOnUse" r="63.281"><stop offset="0" stop-color="#a298a5"/><stop offset=".2337" stop-color="#877f8a"/><stop offset=".5373" stop-color="#6b656e"/><stop offset=".803" stop-color="#5a555d"/><stop offset="1" stop-color="#544f57"/></radialGradient><radialGradient id="SVGID_15_" cx="331.835" cy="150.186" gradientTransform="matrix(-.705 -.71 .708 -.703 459.24 491.303)" gradientUnits="userSpaceOnUse" r="224.207" xlink:href="#lg1"/><radialGradient id="SVGID_16_" cx="106.042" cy="205.115" gradientTransform="matrix(.356 -.935 .598 .228 -54.437 257.464)" gradientUnits="userSpaceOnUse" r="204.016"><stop offset=".0166" stop-color="#d0cee7"/><stop offset=".1088" stop-color="#c7c4d9"/><stop offset=".281" stop-color="#b0abb6"/><stop offset=".2886" stop-color="#afaab4"/><stop offset=".3427" stop-color="#a09aa3"/><stop offset=".5538" stop-color="#665e66"/><stop offset=".7836" stop-color="#5f5961"/><stop offset="1" stop-color="#544f57"/></radialGradient><radialGradient id="SVGID_17_" cx="103.758" cy="118.925" gradientTransform="matrix(.82 -.573 .604 .864 -53.104 75.642)" gradientUnits="userSpaceOnUse" r="162.068"><stop offset="0" stop-color="#f1f1f4"/><stop offset=".0104" stop-color="#f0f0f3"/><stop offset=".7229" stop-color="#c6c1c8"/><stop offset=".8189" stop-color="#c3bec5"/><stop offset=".896" stop-color="#bab4bd"/><stop offset=".9664" stop-color="#aca3ae"/><stop offset="1" stop-color="#a298a5"/></radialGradient><radialGradient id="SVGID_18_" cx="99.416" cy="97.981" gradientTransform="matrix(.82 -.573 .604 .864 -41.238 70.304)" gradientUnits="userSpaceOnUse" r="129.851"><stop offset="0" stop-color="#fff"/><stop offset=".1636" stop-color="#f1f0f2"/><stop offset=".7229" stop-color="#c6c1c8"/><stop offset=".8189" stop-color="#c3bec5"/><stop offset=".896" stop-color="#bab4bd"/><stop offset=".9664" stop-color="#aca3ae"/><stop offset="1" stop-color="#a298a5"/></radialGradient><radialGradient id="SVGID_19_" cx="94.275" cy="87.002" gradientTransform="matrix(.82 -.573 .604 .864 -35.535 65.863)" gradientUnits="userSpaceOnUse" r="129.818"><stop offset="0" stop-color="#a298a5"/><stop offset=".2025" stop-color="#c6c1c8"/><stop offset=".4343" stop-color="#cac5cc"/><stop offset=".663" stop-color="#d4d1d6"/><stop offset=".8897" stop-color="#e6e5e9"/><stop offset="1" stop-color="#f1f1f4"/></radialGradient><radialGradient id="SVGID_20_" cx="119.387" cy="45.497" gradientTransform="matrix(1 0 0 .685 0 14.329)" gradientUnits="userSpaceOnUse" r="58.647"><stop offset="0" stop-color="#dfdde2"/><stop offset=".4906" stop-color="#dddbe0"/><stop offset=".7484" stop-color="#d6d3d9"/><stop offset=".9519" stop-color="#cac5cc"/><stop offset="1" stop-color="#c6c1c8"/></radialGradient><radialGradient id="SVGID_21_" cx="79.868" cy="67.246" gradientTransform="matrix(1 0 0 .809 0 12.839)" gradientUnits="userSpaceOnUse" r="43.678"><stop offset=".0191" stop-color="#ecbe6b"/><stop offset=".3925" stop-color="#ecbd69"/><stop offset=".5857" stop-color="#ebb961"/><stop offset=".7376" stop-color="#e9b154"/><stop offset=".8679" stop-color="#e7a741"/><stop offset=".9834" stop-color="#e49a28"/><stop offset="1" stop-color="#e49824"/></radialGradient><g><path d="m256 503.716c141.385 0 256-14.042 256-31.727h-512c0 17.685 114.615 31.727 256 31.727z" fill="url(#SVGID_1_)"/><path d="m37.838 37.255 14.896-13.64c10.771-9.862 24.844-15.331 39.446-15.331h23.973l32.67 41.054-45.457 13.472c-17.173 5.09-35.35 5.78-52.86 2.007l-4.555-.981z" fill="url(#SVGID_2_)"/><path d="m60.593 37.255h-22.822l-9.891 5.578c-5.638 3.179-9.773 8.308-11.755 14.27h31.967z" fill="url(#SVGID_3_)"/><path d="m16.125 57.103c-.856 2.574-1.31 5.303-1.31 8.097 0 8.108 4.393 15.58 11.478 19.522h22.822l-5.264-20.885 4.241-6.734z" fill="url(#SVGID_4_)"/><path d="m86.52 167.498c-4.897 58.318 27.935 113.266 81.611 136.587l182.982 79.501-.503-21.49c-.792-33.811-10.578-66.801-28.352-95.574-40.08-64.885-101.137-114.117-173.043-139.532-9.124-3.225-19.019-3.564-28.342-.971-18.999 5.282-32.703 21.83-34.353 41.479z" fill="url(#SVGID_5_)"/><path d="m267.265 456.119h-16.385v-45.114l-14.726-11.185-6.659 36.292c-2.126 11.59-12.228 20.006-24.011 20.006h-31.894c-8.765 0-15.871 7.105-15.871 15.871h125.416c.001-8.765-7.105-15.87-15.87-15.87z" fill="url(#SVGID_6_)"/><path d="m214.868 293.451c-14.705 1.637-26.619 13.455-28.361 28.147-.972 8.196 1.128 15.875 5.3 22.037 4.615 6.817 7.99 14.394 9.976 22.383l2.037 8.194c5.375 21.617 24.785 36.793 47.06 36.793v-85.457c0-19.062-16.511-34.268-36.012-32.097z" fill="url(#SVGID_7_)"/><path d="m110.548 119.364c0 7.122 7.851 20.283 5.605 27.042-9.086 27.34-10.216 44.967 0 71.906 15.619 41.186 37.603 81.716 75.598 104.001l255.2 149.677c-17.934-68.633-51.624-132.139-98.395-185.474l-66.616-75.966-58.369-62.003c-9.858-10.471-18.765-21.798-26.618-33.847l-16.045-18.07z" fill="url(#SVGID_8_)"/><path d="m212.302 322.313c-37.995-22.284-67.228-56.891-82.847-98.077-10.216-26.938-10.833-56.575-1.747-83.915 2.246-6.758 3.391-13.834 3.391-20.956l54.391-17.573-4.581-5.16-70.36 22.733c0 7.122-1.145 14.198-3.391 20.956-9.086 27.34-8.469 56.977 1.747 83.915 15.619 41.186 44.852 75.793 82.847 98.077l255.199 149.677c-1.262-4.829-2.602-9.633-4.019-14.41z" fill="url(#SVGID_9_)"/><path d="m321.688 456.119h-16.385v-45.114l-14.726-11.185-6.659 36.292c-2.126 11.59-12.228 20.006-24.011 20.006h-31.894c-8.765 0-15.871 7.105-15.871 15.871h125.416c.001-8.765-7.105-15.87-15.87-15.87z" fill="url(#SVGID_10_)"/><path d="m292.909 436.113 5.559-30.299-7.891-5.994-6.659 36.293c-2.126 11.59-12.228 20.006-24.011 20.006h8.991c11.784 0 21.885-8.417 24.011-20.006z" fill="url(#SVGID_11_)"/><path d="m237.005 456.119h-8.991c-8.765 0-15.871 7.105-15.871 15.871h8.991c0-8.766 7.106-15.871 15.871-15.871z" fill="url(#SVGID_12_)"/><path d="m269.29 293.451c-14.705 1.637-26.619 13.455-28.361 28.147-.972 8.196 1.128 15.875 5.3 22.037 4.615 6.817 7.99 14.394 9.976 22.383l2.037 8.194c5.375 21.617 24.785 36.793 47.06 36.793v-85.457c.001-19.062-16.51-34.268-36.012-32.097z" fill="url(#SVGID_13_)"/><path d="m273.656 374.212-2.037-8.194c-1.986-7.989-5.36-15.566-9.976-22.383-4.172-6.162-6.272-13.841-5.3-22.037 1.58-13.329 11.532-24.291 24.344-27.434-3.6-.879-7.436-1.154-11.396-.713-14.705 1.637-26.619 13.455-28.361 28.147-.972 8.196 1.128 15.875 5.3 22.037 4.615 6.817 7.989 14.394 9.976 22.383l2.037 8.194c5.374 21.617 24.785 36.793 47.06 36.793v-2.51c-15.384-5.159-27.565-17.862-31.647-34.283z" fill="url(#SVGID_14_)"/><path d="m148.051 167.498c-4.897 58.318 27.935 113.266 81.611 136.587l182.982 79.501-.503-21.49c-.792-33.811-10.578-66.801-28.352-95.574-40.08-64.885-101.137-114.117-173.043-139.532-9.124-3.225-19.019-3.564-28.342-.971-18.999 5.282-32.703 21.83-34.353 41.479z" fill="url(#SVGID_15_)"/><path d="m248.928 304.086c-53.676-23.321-86.507-78.269-81.611-136.587 1.65-19.65 15.354-36.197 34.352-41.48.993-.276 1.994-.519 2.998-.729-7.343-1.533-14.979-1.297-22.265.729-18.998 5.283-32.702 21.83-34.352 41.48-4.897 58.318 27.935 113.266 81.611 136.587l182.982 79.501-.198-8.457z" fill="url(#SVGID_16_)"/><path d="m110.548 119.364-1.112-18.551c-1.014-16.919-13.111-31.121-29.654-34.812l91.863-16.664s25.308 65.363 25.308 65.363l-10.727-8.018-4.095 11.258-10.068-7.537-4.082 11.254-10.065-7.537-4.083 11.255-10.067-7.537-4.083 11.255-10.064-7.538-4.076 11.253c.002.001-14.995-13.443-14.995-13.444z" fill="url(#SVGID_17_)"/><path d="m131.272 100.813c-1.014-16.919-13.111-31.121-29.654-34.812l71.46-12.963c-.904-2.336-1.433-3.701-1.433-3.701l-91.862 16.664c16.543 3.691 28.64 17.893 29.654 34.812l1.112 18.551c0 .001 14.997 13.445 14.997 13.445l4.076-11.253 4.301 3.221z" fill="url(#SVGID_18_)"/><path d="m132.61 69.233 41.927-12.427c-1.77-4.573-2.892-7.469-2.892-7.469l-91.862 16.664c5.79 1.292 11.034 3.871 15.45 7.404 12.567.828 25.224-.57 37.377-4.172z" fill="url(#SVGID_19_)"/><path d="m60.661 37.255 14.896-13.64c10.77-9.862 24.843-15.331 39.446-15.331 22.093 0 42.295 12.465 52.204 32.21l4.438 8.844-45.457 13.472c-17.173 5.09-35.35 5.78-52.86 2.007l-4.555-.981z" fill="url(#SVGID_20_)"/><path d="m60.661 37.255-9.891 5.578c-8.072 4.552-13.065 13.1-13.065 22.367 0 8.108 4.393 15.58 11.478 19.522l-2.158-12.082c3.811.673 7.737.1 11.197-1.632l21.561-10.795c1.025-3.671 3.351-6.844 6.545-8.925l5.936-3.868c1.008-.657.396-2.225-.791-2.024l-9.028 1.527c-5.806.982-11.743-.725-16.141-4.641z" fill="url(#SVGID_21_)"/></g></svg>