<svg id="Capa_1" enable-background="new 0 0 512 512" height="512" viewBox="0 0 512 512" width="512" xmlns="http://www.w3.org/2000/svg" xmlns:xlink="http://www.w3.org/1999/xlink"><linearGradient id="lg1"><stop offset="0" stop-color="#664545"/><stop offset=".5881" stop-color="#7f5656"/><stop offset="1" stop-color="#8b5e5e"/></linearGradient><radialGradient id="SVGID_1_" cx="1609.558" cy="457.687" gradientTransform="matrix(-.872 -.403 -.323 .771 1687.743 753.728)" gradientUnits="userSpaceOnUse" r="26.967" xlink:href="#lg1"/><radialGradient id="SVGID_2_" cx="1360.667" cy="457.899" gradientTransform="matrix(-.872 -.403 -.323 .771 1707.92 653.458)" gradientUnits="userSpaceOnUse" r="26.532" xlink:href="#lg1"/><linearGradient id="SVGID_3_" gradientUnits="userSpaceOnUse" x1="127.932" x2="162.274" y1="407.97" y2="347.943"><stop offset=".6245" stop-color="#afaab4"/><stop offset=".7359" stop-color="#aaa5af"/><stop offset=".8708" stop-color="#9d96a1"/><stop offset="1" stop-color="#8b818e"/></linearGradient><radialGradient id="SVGID_4_" cx="145.004" cy="269.795" gradientTransform="matrix(.575 -.818 .645 .453 -112.459 266.143)" gradientUnits="userSpaceOnUse" r="89.306"><stop offset="0" stop-color="#8b818e"/><stop offset=".029" stop-color="#8d8390"/><stop offset=".3675" stop-color="#a099a4"/><stop offset=".6957" stop-color="#aba6b0"/><stop offset="1" stop-color="#afaab4"/></radialGradient><linearGradient id="SVGID_5_" gradientTransform="matrix(.889 0 0 .866 111.417 -218.286)" gradientUnits="userSpaceOnUse" x1="312.692" x2="239.597" y1="706.178" y2="677.777"><stop offset=".3708" stop-color="#afaab4"/><stop offset=".45" stop-color="#aba6b0"/><stop offset=".5298" stop-color="#a19aa5"/><stop offset=".6097" stop-color="#8f8692"/><stop offset=".625" stop-color="#8b818e"/></linearGradient><radialGradient id="SVGID_6_" cx="331.923" cy="249.634" gradientTransform="matrix(.963 .271 -.214 .759 51.163 2.755)" gradientUnits="userSpaceOnUse" r="77.773"><stop offset=".3347" stop-color="#8b818e"/><stop offset=".5515" stop-color="#9e97a2"/><stop offset=".7707" stop-color="#aba5af"/><stop offset=".9552" stop-color="#afaab4"/></radialGradient><radialGradient id="SVGID_7_" cx="60.16" cy="70.224" gradientTransform="matrix(.707 -.707 .484 .484 -16.397 78.746)" gradientUnits="userSpaceOnUse" r="41.423"><stop offset="0" stop-color="#c6c1c8"/><stop offset=".4906" stop-color="#c8c3ca"/><stop offset=".7484" stop-color="#cfcbd1"/><stop offset=".9519" stop-color="#dbd9de"/><stop offset="1" stop-color="#dfdde2"/></radialGradient><radialGradient id="SVGID_8_" cx="448.048" cy="199.576" gradientTransform="matrix(.707 -.707 .594 .594 -34.569 447.861)" gradientUnits="userSpaceOnUse" r="84.207"><stop offset=".2344" stop-color="#a298a5"/><stop offset=".4932" stop-color="#b4acb7"/><stop offset="1" stop-color="#dfdde2"/></radialGradient><radialGradient id="SVGID_9_" cx="71.381" cy="19.673" gradientTransform="matrix(1 0 0 .757 0 4.779)" gradientUnits="userSpaceOnUse" r="57.059"><stop offset=".0124" stop-color="#aa8080"/><stop offset=".272" stop-color="#a57b7b"/><stop offset=".5944" stop-color="#956d6d"/><stop offset=".9486" stop-color="#7c5656"/><stop offset="1" stop-color="#785252"/></radialGradient><radialGradient id="SVGID_10_" cx="212.903" cy="50.629" gradientTransform="matrix(1 0 0 .84 0 8.121)" gradientUnits="userSpaceOnUse" r="354.644"><stop offset="0" stop-color="#f1f1f4"/><stop offset=".346" stop-color="#dedce1"/><stop offset=".8605" stop-color="#c6c1c8"/><stop offset=".9329" stop-color="#b5aeb8"/><stop offset="1" stop-color="#a298a5"/></radialGradient><radialGradient id="SVGID_11_" cx="79.462" cy="183.552" gradientTransform="matrix(1 0 0 .84 0 29.442)" gradientUnits="userSpaceOnUse" r="242.529"><stop offset="0" stop-color="#fff"/><stop offset=".3264" stop-color="#dfdce0"/><stop offset=".6229" stop-color="#c6c1c8"/><stop offset=".7546" stop-color="#c3bec5"/><stop offset=".8588" stop-color="#bbb4bd"/><stop offset=".9534" stop-color="#aca3af"/><stop offset="1" stop-color="#a298a5"/></radialGradient><radialGradient id="SVGID_12_" cx="105.495" cy="135.782" gradientTransform="matrix(.707 -.707 .484 .484 -34.876 144.603)" gradientUnits="userSpaceOnUse" r="56.704"><stop offset="0" stop-color="#c6c1c8"/><stop offset=".289" stop-color="#cecad0"/><stop offset="1" stop-color="#dfdde2"/></radialGradient><radialGradient id="SVGID_13_" cx="1560.514" cy="457.687" gradientTransform="matrix(-.872 -.403 -.323 .771 1691.705 733.961)" gradientUnits="userSpaceOnUse" r="26.967" xlink:href="#lg1"/><linearGradient id="lg2"><stop offset="0" stop-color="#cbafaf"/><stop offset=".314" stop-color="#bf9d9d"/><stop offset=".9384" stop-color="#a07070"/><stop offset="1" stop-color="#9d6b6b"/></linearGradient><radialGradient id="SVGID_14_" cx="152.15" cy="442.471" gradientTransform="matrix(-.862 -.506 .312 -.532 145.121 754.917)" gradientUnits="userSpaceOnUse" r="25.309" xlink:href="#lg2"/><radialGradient id="SVGID_15_" cx="1311.623" cy="457.899" gradientTransform="matrix(-.872 -.403 -.323 .771 1711.883 633.691)" gradientUnits="userSpaceOnUse" r="26.532" xlink:href="#lg1"/><radialGradient id="SVGID_16_" cx="389.995" cy="444.166" gradientTransform="matrix(-.862 -.506 .312 -.532 587.536 877.95)" gradientUnits="userSpaceOnUse" r="22.841" xlink:href="#lg2"/><linearGradient id="SVGID_17_" gradientUnits="userSpaceOnUse" x1="174.644" x2="208.986" y1="407.97" y2="347.943"><stop offset=".6245" stop-color="#c6c1c8"/><stop offset=".7807" stop-color="#c1bcc4"/><stop offset=".9702" stop-color="#b2adb7"/><stop offset="1" stop-color="#afaab4"/></linearGradient><linearGradient id="SVGID_18_" gradientUnits="userSpaceOnUse" x1="174.873" x2="174.873" y1="450.064" y2="350.192"><stop offset=".2231" stop-color="#dfdde2"/><stop offset=".5595" stop-color="#d5d2d8"/><stop offset=".9331" stop-color="#c6c1c8"/></linearGradient><radialGradient id="SVGID_19_" cx="164.841" cy="214.732" gradientTransform="matrix(.575 -.818 .645 .453 -68.49 252.273)" gradientUnits="userSpaceOnUse" r="220.449"><stop offset="0" stop-color="#f1f1f4"/><stop offset=".505" stop-color="#c6c1c8"/><stop offset=".8265" stop-color="#b8b3bc"/><stop offset="1" stop-color="#afaab4"/></radialGradient><radialGradient id="SVGID_20_" cx="169.985" cy="262.473" gradientTransform="matrix(.962 .273 -.28 .987 80.061 -42.918)" gradientUnits="userSpaceOnUse" r="99.658"><stop offset="0" stop-color="#fff"/><stop offset=".1107" stop-color="#f5f5f6"/><stop offset=".4101" stop-color="#dfdde2"/><stop offset=".6554" stop-color="#cecbd1"/><stop offset="1" stop-color="#afaab4"/></radialGradient><linearGradient id="SVGID_21_" gradientTransform="matrix(.889 0 0 .866 111.417 -218.286)" gradientUnits="userSpaceOnUse" x1="372.719" x2="276.354" y1="727.45" y2="623.341"><stop offset=".2188" stop-color="#afaab4"/><stop offset="1" stop-color="#afaab4"/></linearGradient><linearGradient id="SVGID_22_" gradientUnits="userSpaceOnUse" x1="410.127" x2="410.127" y1="342.523" y2="443.75"><stop offset="0" stop-color="#8b818e"/><stop offset=".1486" stop-color="#9e96a2"/><stop offset=".3028" stop-color="#aba5af"/><stop offset=".4304" stop-color="#afaab4"/><stop offset=".9777" stop-color="#c6c1c8"/></linearGradient><radialGradient id="SVGID_23_" cx="360.868" cy="202.42" gradientTransform="matrix(.774 -.633 .499 .611 -47.404 334.001)" gradientUnits="userSpaceOnUse" r="182.566"><stop offset="0" stop-color="#dfdde2"/><stop offset=".505" stop-color="#c6c1c8"/><stop offset=".8265" stop-color="#b8b3bc"/><stop offset="1" stop-color="#afaab4"/></radialGradient><radialGradient id="SVGID_24_" cx="319.805" cy="242.1" gradientTransform="matrix(.962 .273 -.28 .987 80.056 -84.151)" gradientUnits="userSpaceOnUse" r="150.393"><stop offset="0" stop-color="#f1f1f4"/><stop offset=".3656" stop-color="#c5c2ca"/><stop offset=".5893" stop-color="#afaab4"/><stop offset="1" stop-color="#a298a5"/></radialGradient><radialGradient id="SVGID_25_" cx="101.019" cy="29.506" gradientTransform="matrix(.947 -.32 .242 .717 -1.837 40.663)" gradientUnits="userSpaceOnUse" r="63.631"><stop offset="0" stop-color="#ffd0be"/><stop offset=".0199" stop-color="#f9cbba"/><stop offset=".181" stop-color="#cea29b"/><stop offset=".3069" stop-color="#b48987"/><stop offset=".3814" stop-color="#aa8080"/><stop offset=".6541" stop-color="#a77b7b"/><stop offset=".9922" stop-color="#9d6b6b"/><stop offset="1" stop-color="#9d6b6b"/></radialGradient><radialGradient id="SVGID_26_" cx="5.022" cy="118.596" gradientTransform="matrix(1 0 0 .685 0 37.35)" gradientUnits="userSpaceOnUse" r="73.157"><stop offset="0" stop-color="#f1f1f4"/><stop offset=".3503" stop-color="#e5e4e8"/><stop offset="1" stop-color="#c6c1c8"/></radialGradient><linearGradient id="lg3"><stop offset="0" stop-color="#fff"/><stop offset=".9902" stop-color="#dfdde2"/></linearGradient><radialGradient id="SVGID_27_" cx="33.066" cy="37.7" gradientTransform="matrix(1 0 0 .685 0 11.873)" gradientUnits="userSpaceOnUse" r="68.716" xlink:href="#lg3"/><radialGradient id="SVGID_28_" cx="19.792" cy="68.1" gradientTransform="matrix(1 0 0 .685 0 21.447)" gradientUnits="userSpaceOnUse" r="68.716" xlink:href="#lg3"/><radialGradient id="SVGID_29_" cx="99.537" cy="95.886" gradientTransform="matrix(.707 -.707 .484 .484 -17.295 119.82)" gradientUnits="userSpaceOnUse" r="71.045"><stop offset="0" stop-color="#dfdde2"/><stop offset=".4906" stop-color="#dddbe0"/><stop offset=".7484" stop-color="#d6d3d9"/><stop offset=".9519" stop-color="#cac5cc"/><stop offset="1" stop-color="#c6c1c8"/></radialGradient><radialGradient id="SVGID_30_" cx="87.695" cy="71.863" gradientTransform="matrix(-.538 -.843 .578 -.369 93.358 172.272)" gradientUnits="userSpaceOnUse" r="41.423"><stop offset="0" stop-color="#dfdde2"/><stop offset=".54" stop-color="#e1dfe4"/><stop offset=".8238" stop-color="#e8e7eb"/><stop offset="1" stop-color="#f1f1f4"/></radialGradient><radialGradient id="SVGID_31_" cx="86.017" cy="69.397" gradientTransform="matrix(.947 -.32 .242 .717 -12.288 47.141)" gradientUnits="userSpaceOnUse" r="30.285"><stop offset=".0535" stop-color="#f6d3d5"/><stop offset=".279" stop-color="#f4ced0"/><stop offset=".5589" stop-color="#f0bec1"/><stop offset=".8664" stop-color="#e8a5aa"/><stop offset="1" stop-color="#e4989d"/></radialGradient><radialGradient id="SVGID_32_" cx="314.707" cy="1751.592" gradientTransform="matrix(.931 0 0 .112 -31.713 264.577)" gradientUnits="userSpaceOnUse" r="263.04"><stop offset="0" stop-color="#c6c1c8"/><stop offset=".2432" stop-color="#dddbdf"/><stop offset=".4962" stop-color="#f1f1f4"/><stop offset=".6787" stop-color="#fafafb"/><stop offset=".8982" stop-color="#fff"/></radialGradient><g><path d="m109.03 459.855h30.374v-17.298h-17.195c-2.628 0-5.036 1.469-6.238 3.806z" fill="url(#SVGID_1_)"/><path d="m346.525 459.855h29.897v-15.611h-18.003c-2.372 0-4.544 1.326-5.629 3.435z" fill="url(#SVGID_2_)"/><path d="m122.209 442.557h16.632c6.64 0 12.022-5.383 12.022-12.022v-97.055l-28.655 18.646v90.431z" fill="url(#SVGID_3_)"/><path d="m189.203 237.862c0-18.813-15.509-34.003-34.438-33.484-18.245.5-32.555 15.929-32.555 34.181v113.567c11.328 0 21.761-6.157 27.235-16.075l1.42-2.572 22.536-64.238c.777-2.213 2.071-4.233 3.866-5.744 7.298-6.144 11.936-15.348 11.936-25.635z" fill="url(#SVGID_4_)"/><path d="m358.418 444.244h17.144c5.992 0 10.85-4.858 10.85-10.85v-104.467l-20.558-6.791-7.436 22.953z" fill="url(#SVGID_5_)"/><path d="m386.412 328.927-24.535-51.735c-2.462-5.191-3.532-10.99-2.722-16.678.891-6.261.416-12.834-1.66-19.313-6.625-20.674-28.034-33.357-49.34-29.193-24.845 4.855-39.988 29.588-33.548 53.623 2.268 8.466 6.899 15.668 12.993 21.087l70.818 66.432c9.237-2.475 17.263-8.216 22.588-16.159z" fill="url(#SVGID_6_)"/><path d="m72.5 77.452c-13.028 0-23.59-10.562-23.59-23.59v-16.686c13.028 0 23.59 10.562 23.59 23.59z" fill="url(#SVGID_7_)"/><path d="m488.832 255.321-67.746-67.746-24.177 24.177 43.569 43.569c13.352 13.352 35.001 13.352 48.354 0z" fill="url(#SVGID_8_)"/><path d="m51.623 60.777 40.608-23.445c6.041-3.488 12.894-5.324 19.87-5.324h15.056c0-6.22-5.042-11.262-11.262-11.262h-6.703c-6.976 0-13.828 1.836-19.87 5.324l-39.169 22.614z" fill="url(#SVGID_9_)"/><path d="m77.758 118.395c17.034 4.564 34.687 15.524 34.687 33.159l.594 55.723c0 36.371 18.844 69.355 54.343 77.271 61.377 13.687 124.95 14.288 186.575 1.765l37.164-7.552c19.625-3.988 35.617-18.171 41.922-37.179 11.593-34.953-14.431-71.002-51.257-71.002h-102.93c-34.044 0-67.489-8.961-96.972-25.983-18.525-10.695-33.908-26.079-44.604-44.603l-17.627-30.53c-4.756-8.237-13.545-13.312-23.057-13.312h-17.598z" fill="url(#SVGID_10_)"/><path d="m193.48 284.548c-35.499-7.916-60.746-39.413-60.746-75.784v-52.734c0-17.635-11.844-33.071-28.878-37.635l-25.959-6.956-.139 6.956c17.034 4.564 28.878 20 28.878 37.635v52.734c0 36.371 25.247 67.868 60.746 75.784 36.341 8.104 73.452 11.62 110.473 10.541-28.318-.826-56.572-4.341-84.375-10.541z" fill="url(#SVGID_11_)"/><path d="m87.749 56.15h-3.422l-5.39 3.112-1.178 59.133c7.045 1.888 13.202 5.635 18.001 10.629h.773c10.92 0 20.952-6.015 26.096-15.647 4.621-8.652 3.039-19.309-3.897-26.244z" fill="url(#SVGID_12_)"/><path d="m155.742 459.855h30.374v-17.298h-17.195c-2.628 0-5.036 1.469-6.238 3.806z" fill="url(#SVGID_13_)"/><path d="m178.863 442.557h-9.942c-2.628 0-5.036 1.469-6.238 3.806l-6.941 13.492h9.942l6.941-13.492c1.203-2.337 3.61-3.806 6.238-3.806z" fill="url(#SVGID_14_)"/><path d="m393.237 459.855h29.897v-15.611h-18.003c-2.372 0-4.544 1.326-5.629 3.435z" fill="url(#SVGID_15_)"/><path d="m414.103 444.244h-8.972c-2.372 0-4.544 1.326-5.629 3.435l-6.264 12.176h8.972l6.264-12.176c1.085-2.11 3.257-3.435 5.629-3.435z" fill="url(#SVGID_16_)"/><path d="m168.921 442.557h16.632c6.64 0 12.022-5.383 12.022-12.022v-97.055l-28.655 18.646v90.431z" fill="url(#SVGID_17_)"/><path d="m180.824 344.38-11.903 7.745v90.432h11.903z" fill="url(#SVGID_18_)"/><path d="m235.915 237.862c0-18.813-15.509-34.003-34.438-33.484-18.245.5-32.555 15.929-32.555 34.181v113.567c11.328 0 21.761-6.157 27.235-16.075l1.42-2.572 22.536-64.238c.777-2.213 2.071-4.233 3.866-5.744 7.298-6.144 11.936-15.348 11.936-25.635z" fill="url(#SVGID_19_)"/><path d="m180.716 238.523c0-16.576 11.815-30.781 27.625-33.636-2.164-.386-4.399-.565-6.686-.514-18.31.408-32.734 15.835-32.734 34.149v113.603h.123c6.488-.026 11.671-5.444 11.671-11.932v-101.67z" fill="url(#SVGID_20_)"/><path d="m405.131 444.244h17.144c5.992 0 10.85-4.858 10.85-10.85v-104.467l-20.558-6.791-7.436 22.953z" fill="url(#SVGID_21_)"/><path d="m415.123 322.981-2.556-.845-7.436 22.954v99.154h9.765v-120.412z" fill="url(#SVGID_22_)"/><path d="m433.125 328.927-24.535-51.735c-2.462-5.191-3.532-10.99-2.722-16.678.891-6.261.416-12.834-1.66-19.313-6.625-20.674-28.034-33.357-49.34-29.193-24.845 4.855-39.988 29.588-33.548 53.623 2.268 8.466 6.899 15.668 12.993 21.087l70.818 66.432c9.237-2.475 17.263-8.216 22.588-16.159z" fill="url(#SVGID_23_)"/><path d="m348.44 286.718c-6.094-5.419-10.725-12.621-12.993-21.087-6.283-23.449 7.977-47.562 31.747-53.233 1.048-.25 2.096-.46 3.143-.632-5.566-.923-11.415-.765-17.271.632-23.771 5.671-38.03 29.784-31.747 53.233 2.268 8.466 6.899 15.668 12.993 21.087l70.818 66.432c3.452-.925 6.735-2.306 9.771-4.088z" fill="url(#SVGID_24_)"/><path d="m81.752 60.777 40.608-23.445c6.041-3.488 12.894-5.324 19.87-5.324h15.056c0-6.22-5.042-11.262-11.262-11.262h-6.703c-6.976 0-13.829 1.836-19.87 5.324l-39.169 22.614z" fill="url(#SVGID_25_)"/><path d="m0 113.95v3.893c0 5.223 2.43 10.144 6.566 13.319 2.057 1.579 5.008 2.523 8.005 2.794l-.034.081h29.92l13.039-31.065-57.451 9.723c-.03.416-.045.835-.045 1.255z" fill="url(#SVGID_26_)"/><path d="m80.282 48.684h-30.129l-9.378 5.414c-4.789 2.765-7.739 7.875-7.739 13.405v5.969h36.842z" fill="url(#SVGID_27_)"/><path d="m33.036 73.473-27.774 27.774c-3.072 3.072-4.916 7.142-5.218 11.449h53.37l16.463-39.223z" fill="url(#SVGID_28_)"/><path d="m116.415 107.164c4.621-8.652 3.039-19.309-3.897-26.244l-32.236-32.236-9.378 5.414c-4.789 2.765-7.739 7.875-7.739 13.405v5.969l-27.774 27.774c-3.369 3.369-5.262 7.938-5.262 12.703v3.893c0 5.223 2.43 10.144 6.566 13.319 3.888 2.985 10.97 3.703 15.522 1.887l25.668-10.238h12.434c10.919 0 20.951-6.015 26.096-15.646z" fill="url(#SVGID_29_)"/><path d="m107.573 77.452c-13.028 0-23.59-10.562-23.59-23.59v-16.686c13.028 0 23.59 10.562 23.59 23.59z" fill="url(#SVGID_30_)"/><path d="m101.507 71.09c-8.912 0-16.137-7.225-16.137-16.137v-11.414c8.912 0 16.137 7.225 16.137 16.137z" fill="url(#SVGID_31_)"/><path d="m256.794 491.255c140.946 0 255.206-13.999 255.206-31.267h-510.412c0 17.268 114.26 31.267 255.206 31.267z" fill="url(#SVGID_32_)"/></g></svg>