<svg id="Capa_1" enable-background="new 0 0 512 512" height="512" viewBox="0 0 512 512" width="512" xmlns="http://www.w3.org/2000/svg" xmlns:xlink="http://www.w3.org/1999/xlink"><radialGradient id="SVGID_1_" cx="16.477" cy="123.86" gradientTransform="matrix(-.561 -.828 1.667 -1.129 -180.733 277.34)" gradientUnits="userSpaceOnUse" r="21.206"><stop offset="0" stop-color="#fff9e2"/><stop offset=".4743" stop-color="#ffefdb"/><stop offset="1" stop-color="#ffead8"/></radialGradient><radialGradient id="SVGID_2_" cx="10.02" cy="151.972" gradientTransform="matrix(-.561 -.828 1.667 -1.129 -237.667 331.844)" gradientUnits="userSpaceOnUse" r="22.385"><stop offset=".0105" stop-color="#ffe2cb"/><stop offset="1" stop-color="#f4d8bc"/></radialGradient><radialGradient id="SVGID_3_" cx="64.909" cy="87.734" gradientTransform="matrix(1 0 0 .988 0 1.086)" gradientUnits="userSpaceOnUse" r="40.191"><stop offset="0" stop-color="#e49542"/><stop offset=".2315" stop-color="#e38f38"/><stop offset=".5301" stop-color="#e28424"/></radialGradient><radialGradient id="SVGID_4_" cx="31.727" cy="21.148" gradientTransform="matrix(.947 -.32 .242 .717 -3.455 16.13)" gradientUnits="userSpaceOnUse" r="95.445"><stop offset="0" stop-color="#aa8080"/><stop offset="1" stop-color="#8b5e5e"/></radialGradient><radialGradient id="SVGID_5_" cx="34.455" cy="94.5" gradientTransform="matrix(.852 -.524 .409 .665 -33.559 49.727)" gradientUnits="userSpaceOnUse" r="75.655"><stop offset="0" stop-color="#f9efaf"/><stop offset=".0821" stop-color="#f7e8aa"/><stop offset=".5853" stop-color="#efc58b"/><stop offset=".8541" stop-color="#ecb780"/></radialGradient><linearGradient id="SVGID_6_" gradientUnits="userSpaceOnUse" x1="468.697" x2="391.178" y1="265.399" y2="265.399"><stop offset="0" stop-color="#e49542"/><stop offset=".0413" stop-color="#e38d39"/><stop offset=".1573" stop-color="#e07b24"/><stop offset=".2335" stop-color="#df751c"/><stop offset=".5301" stop-color="#d56617"/><stop offset=".5321" stop-color="#d56617"/></linearGradient><linearGradient id="lg1"><stop offset="0" stop-color="#664545"/><stop offset=".5881" stop-color="#7f5656"/><stop offset="1" stop-color="#8b5e5e"/></linearGradient><radialGradient id="SVGID_7_" cx="277.903" cy="481.901" gradientTransform="matrix(-.872 -.403 -.323 .771 569.205 222.543)" gradientUnits="userSpaceOnUse" r="25.037" xlink:href="#lg1"/><radialGradient id="SVGID_8_" cx="46.825" cy="482.097" gradientTransform="matrix(-.872 -.403 -.323 .771 587.939 129.449)" gradientUnits="userSpaceOnUse" r="24.633" xlink:href="#lg1"/><linearGradient id="SVGID_9_" gradientUnits="userSpaceOnUse" x1="162.093" x2="193.416" y1="441.061" y2="371.872"><stop offset=".0105" stop-color="#f4d8bc"/><stop offset=".3146" stop-color="#f4d7ba"/><stop offset=".4865" stop-color="#f2d2b1"/><stop offset=".6254" stop-color="#f1caa4"/><stop offset=".7467" stop-color="#eebf90"/><stop offset=".8554" stop-color="#eab177"/><stop offset=".9279" stop-color="#e7a561"/></linearGradient><linearGradient id="SVGID_10_" gradientUnits="userSpaceOnUse" x1="198.328" x2="174.83" y1="366.618" y2="274.107"><stop offset=".1424" stop-color="#e28424"/><stop offset=".1953" stop-color="#e18123"/><stop offset=".7579" stop-color="#d56617"/></linearGradient><linearGradient id="SVGID_11_" gradientTransform="matrix(.889 0 0 .866 41.202 -218.286)" gradientUnits="userSpaceOnUse" x1="408.966" x2="350.512" y1="746.254" y2="698.34"><stop offset=".5784" stop-color="#d56617"/><stop offset=".6556" stop-color="#cb601a"/><stop offset=".7849" stop-color="#b15022"/><stop offset=".8078" stop-color="#ac4d24"/></linearGradient><radialGradient id="SVGID_12_" cx="300.933" cy="457.645" gradientTransform="matrix(.887 -.461 .24 .462 -57.353 254.961)" gradientUnits="userSpaceOnUse" r="111.446"><stop offset=".3927" stop-color="#ac4d24"/><stop offset=".544" stop-color="#b55221"/><stop offset=".7887" stop-color="#cd611a"/><stop offset=".8597" stop-color="#d56617"/></radialGradient><radialGradient id="SVGID_13_" cx="243.491" cy="131.737" gradientTransform="matrix(1 0 0 .781 0 28.886)" gradientUnits="userSpaceOnUse" r="238.927"><stop offset="0" stop-color="#ecb780"/><stop offset=".3994" stop-color="#e7a561"/><stop offset=".5298" stop-color="#e6a15c"/><stop offset=".6916" stop-color="#e5974c"/><stop offset=".8693" stop-color="#e28533"/><stop offset="1" stop-color="#df751c"/></radialGradient><radialGradient id="SVGID_14_" cx="92.39" cy="245.737" gradientTransform="matrix(.649 -.761 .616 .526 -118.858 186.872)" gradientUnits="userSpaceOnUse" r="136.728"><stop offset=".1103" stop-color="#fbf4c6"/><stop offset=".2593" stop-color="#f6e0ac"/><stop offset=".5764" stop-color="#e9ac6a"/><stop offset=".6167" stop-color="#e7a561"/><stop offset=".7108" stop-color="#e7a35d"/><stop offset=".8058" stop-color="#e69c51"/><stop offset=".9008" stop-color="#e4913d"/><stop offset=".9858" stop-color="#e28424"/></radialGradient><radialGradient id="SVGID_15_" cx="98.716" cy="150.248" gradientTransform="matrix(1 0 0 .781 0 32.945)" gradientUnits="userSpaceOnUse" r="68.275"><stop offset=".0948" stop-color="#df751c"/><stop offset=".2194" stop-color="#e28533"/><stop offset=".3887" stop-color="#e5974c"/><stop offset=".5428" stop-color="#e6a15c"/><stop offset=".667" stop-color="#e7a561"/><stop offset="1" stop-color="#ecb780"/></radialGradient><linearGradient id="lg2"><stop offset="0" stop-color="#efc89d"/><stop offset=".1456" stop-color="#f3d0ab"/><stop offset=".4673" stop-color="#f9dec4"/><stop offset=".7613" stop-color="#fee7d3"/><stop offset="1" stop-color="#ffead8"/></linearGradient><radialGradient id="SVGID_16_" cx="94.218" cy="154.981" gradientTransform="matrix(-.353 -.936 1.884 -.711 -164.442 353.27)" gradientUnits="userSpaceOnUse" r="15.993" xlink:href="#lg2"/><radialGradient id="SVGID_17_" cx="92.51" cy="157.726" gradientTransform="matrix(-.353 -.936 1.884 -.711 -171.923 356.367)" gradientUnits="userSpaceOnUse" r="22.226" xlink:href="#lg2"/><radialGradient id="SVGID_18_" cx="232.37" cy="481.901" gradientTransform="matrix(-.872 -.403 -.323 .771 572.884 204.19)" gradientUnits="userSpaceOnUse" r="25.037" xlink:href="#lg1"/><linearGradient id="lg3"><stop offset="0" stop-color="#cbafaf"/><stop offset=".314" stop-color="#bf9d9d"/><stop offset=".9384" stop-color="#a07070"/><stop offset="1" stop-color="#9d6b6b"/></linearGradient><radialGradient id="SVGID_19_" cx="185.444" cy="467.774" gradientTransform="matrix(-.862 -.506 .312 -.532 199.222 810.54)" gradientUnits="userSpaceOnUse" r="23.498" xlink:href="#lg3"/><radialGradient id="SVGID_20_" cx="1.291" cy="482.097" gradientTransform="matrix(-.872 -.403 -.323 .771 591.618 111.096)" gradientUnits="userSpaceOnUse" r="24.633" xlink:href="#lg1"/><radialGradient id="SVGID_21_" cx="406.267" cy="469.348" gradientTransform="matrix(-.862 -.506 .312 -.532 609.974 924.768)" gradientUnits="userSpaceOnUse" r="21.206" xlink:href="#lg3"/><linearGradient id="SVGID_22_" gradientUnits="userSpaceOnUse" x1="205.462" x2="236.785" y1="441.061" y2="371.872"><stop offset=".0105" stop-color="#ffe2cb"/><stop offset=".4477" stop-color="#ffe1c9"/><stop offset=".6051" stop-color="#fdddc2"/><stop offset=".7174" stop-color="#fad6b7"/><stop offset=".8081" stop-color="#f6cda6"/><stop offset=".8849" stop-color="#f0c090"/><stop offset=".9279" stop-color="#ecb780"/></linearGradient><linearGradient id="SVGID_23_" gradientUnits="userSpaceOnUse" x1="206.541" x2="206.541" y1="391.528" y2="464.519"><stop offset=".3136" stop-color="#ffe2cb"/><stop offset=".9252" stop-color="#fff6df"/><stop offset="1" stop-color="#fff9e2"/></linearGradient><radialGradient id="SVGID_24_" cx="215.215" cy="277.247" gradientTransform="matrix(.703 -.712 .549 .542 -88.113 280.162)" gradientUnits="userSpaceOnUse" r="95.894"><stop offset="0" stop-color="#ecb780"/><stop offset=".2269" stop-color="#e9ab6b"/><stop offset=".3927" stop-color="#e7a561"/><stop offset=".5058" stop-color="#e6a058"/><stop offset=".6886" stop-color="#e49340"/><stop offset=".8597" stop-color="#e28424"/></radialGradient><radialGradient id="SVGID_25_" cx="184.404" cy="294.523" gradientTransform="matrix(.649 -.761 .616 .526 -116.617 280.003)" gradientUnits="userSpaceOnUse" r="92.421"><stop offset=".1103" stop-color="#fbf4c6"/><stop offset=".2458" stop-color="#f6e0ac"/><stop offset=".534" stop-color="#e9ac6a"/><stop offset=".5706" stop-color="#e7a561"/><stop offset=".6765" stop-color="#e7a35d"/><stop offset=".7833" stop-color="#e69c51"/><stop offset=".8901" stop-color="#e4913d"/><stop offset=".9858" stop-color="#e28424"/></radialGradient><linearGradient id="SVGID_26_" gradientTransform="matrix(.889 0 0 .866 41.202 -218.286)" gradientUnits="userSpaceOnUse" x1="465.82" x2="400.303" y1="746.826" y2="709.14"><stop offset=".3301" stop-color="#e28424"/><stop offset=".5077" stop-color="#e07f22"/><stop offset=".7062" stop-color="#da721c"/><stop offset=".827" stop-color="#d56617"/></linearGradient><linearGradient id="SVGID_27_" gradientUnits="userSpaceOnUse" x1="424.959" x2="424.959" y1="466.49" y2="377.614"><stop offset=".1585" stop-color="#e49542"/><stop offset=".1719" stop-color="#e49441"/><stop offset=".4437" stop-color="#e3882c"/><stop offset=".6223" stop-color="#e28424"/><stop offset=".7743" stop-color="#dd771f"/><stop offset=".9285" stop-color="#d56617"/></linearGradient><radialGradient id="SVGID_28_" cx="318.85" cy="468.716" gradientTransform="matrix(.495 -.869 .67 .381 -131.991 432.056)" gradientUnits="userSpaceOnUse" r="132.55"><stop offset="0" stop-color="#ecb780"/><stop offset=".2346" stop-color="#eaaf72"/><stop offset=".449" stop-color="#e7a561"/><stop offset=".6251" stop-color="#e39043"/><stop offset=".823" stop-color="#e07c27"/><stop offset=".9376" stop-color="#df751c"/></radialGradient><radialGradient id="SVGID_29_" cx="303.629" cy="318.77" gradientTransform="matrix(.649 -.761 .616 .526 -89.727 382.185)" gradientUnits="userSpaceOnUse" r="138.691"><stop offset=".2068" stop-color="#fbf4c6"/><stop offset=".367" stop-color="#f0ca91"/><stop offset=".4917" stop-color="#eaaf6e"/><stop offset=".5589" stop-color="#e7a561"/><stop offset=".9087" stop-color="#df751c"/></radialGradient><radialGradient id="SVGID_30_" cx="73.65" cy="21.148" gradientTransform="matrix(.947 -.32 .242 .717 -1.251 29.543)" gradientUnits="userSpaceOnUse" r="123.715"><stop offset="0" stop-color="#ffd0be"/><stop offset=".0318" stop-color="#f9cbba"/><stop offset=".2895" stop-color="#cea29b"/><stop offset=".4909" stop-color="#b48987"/><stop offset=".61" stop-color="#aa8080"/><stop offset=".7819" stop-color="#a77b7b"/><stop offset=".9951" stop-color="#9d6b6b"/><stop offset="1" stop-color="#9d6b6b"/></radialGradient><radialGradient id="SVGID_31_" cx="105.082" cy="150.975" gradientTransform="matrix(.852 -.524 .409 .665 -46.19 105.67)" gradientUnits="userSpaceOnUse" r="75.655"><stop offset=".3814" stop-color="#e7a561"/><stop offset=".636" stop-color="#e7a45f"/><stop offset=".7549" stop-color="#e69e57"/><stop offset=".8456" stop-color="#e4954b"/><stop offset=".922" stop-color="#e28938"/><stop offset=".9887" stop-color="#e07821"/><stop offset="1" stop-color="#df751c"/></radialGradient><radialGradient id="SVGID_32_" cx="104.185" cy="87.734" gradientTransform="matrix(1 0 0 .988 0 1.086)" gradientUnits="userSpaceOnUse" r="40.191"><stop offset="0" stop-color="#ecb780"/><stop offset=".2258" stop-color="#eab176"/><stop offset=".5301" stop-color="#e7a561"/></radialGradient><radialGradient id="SVGID_33_" cx="119.498" cy="104.984" gradientTransform="matrix(0 -1 .588 0 57.801 224.482)" gradientUnits="userSpaceOnUse" r="18.791"><stop offset="0" stop-color="#ffead8"/><stop offset=".3777" stop-color="#fadfc5"/><stop offset="1" stop-color="#efc89d"/></radialGradient><radialGradient id="SVGID_34_" cx="71.528" cy="136.924" gradientTransform="matrix(-.561 -.828 1.667 -1.129 -116.583 350.732)" gradientUnits="userSpaceOnUse" r="33.267"><stop offset="0" stop-color="#ffe2cb"/><stop offset=".2553" stop-color="#fee0c8"/><stop offset=".4762" stop-color="#fbdabd"/><stop offset=".6844" stop-color="#f7d0ab"/><stop offset=".8836" stop-color="#f1c192"/><stop offset="1" stop-color="#ecb780"/></radialGradient><radialGradient id="SVGID_35_" cx="9.545" cy="341.857" gradientTransform="matrix(.762 -.571 .647 .669 -218.932 -91.865)" gradientUnits="userSpaceOnUse" r="18.423"><stop offset="0" stop-color="#d0cee7"/><stop offset=".3128" stop-color="#a19dae"/><stop offset=".5922" stop-color="#756e78"/><stop offset="1" stop-color="#665e66"/></radialGradient><radialGradient id="SVGID_36_" cx="379.109" cy="1790.276" gradientTransform="matrix(.931 0 0 .112 -75.044 284.153)" gradientUnits="userSpaceOnUse" r="236.287"><stop offset="0" stop-color="#f4d8bc"/><stop offset=".0882" stop-color="#f6dcc2"/><stop offset=".4962" stop-color="#ffead8"/><stop offset=".8982" stop-color="#fff"/></radialGradient><g><path d="m45.204 123.817h-24.201l-14.507 12.38c-3.189 2.722-4.641 6.292-4.685 9.821h71.917c-11.258-8.266-28.524-22.201-28.524-22.201z" fill="url(#SVGID_1_)"/><path d="m1.811 146.018c-.086 6.862 5.155 13.566 13.308 13.566h41.501c9.353 0 17.997-3.039 24.997-8.184-1.667-.929-4.507-2.9-7.888-5.382z" fill="url(#SVGID_2_)"/><path d="m83.801 114.866h-5.15c-7.034 0-12.737-5.703-12.737-12.737v-25.851c9.879 0 17.887 8.008 17.887 17.887z" fill="url(#SVGID_3_)"/><path d="m112.908 5.482c-4.557-1.221-9.241 1.484-10.462 6.04l-6.286 23.465c-2.618 9.772-6.506 19.158-11.565 27.919-2.451-2.097-5.109-3.882-7.931-5.337v-4.381c0-10.495-1.376-20.944-4.092-31.081l-5.923-22.107c-4.557 1.221-7.261 5.905-6.04 10.461l3.422 12.771c2.716 10.137 4.092 20.587 4.092 31.082-1.755-.453-3.549-.794-5.374-1.018l-7.544-.926c-15.482-1.9-30.187-7.859-42.625-17.273l-9.039-6.841c-2.847 3.761-2.106 9.119 1.656 11.966l2.224 1.684c13.64 10.324 29.767 16.859 46.746 18.943l7.541.925c6.826.838 13.107 3.73 18.176 8.368 1.116 1.021 1.777 2.505 1.672 4.014-.096 1.388-.752 2.618-1.857 3.476l-15.785 12.256 5.238 6.747 15.489-12.025c2.121-1.646 3.835-3.812 4.715-6.349.848-2.444.958-4.952.449-7.294l2.75-4.763c5.058-8.76 8.946-18.146 11.564-27.917z" fill="url(#SVGID_4_)"/><path d="m98.876 117.328v-33.211h-25.926c-3.503 0-6.891 1.249-9.555 3.523l-42.392 36.177h24.201l36.413 27.583c10.465-7.691 17.259-20.088 17.259-34.072z" fill="url(#SVGID_5_)"/><path d="m457.103 314.84c-16.65 0-30.147-13.497-30.147-30.147v-68.735c16.65 0 30.147 13.497 30.147 30.147z" fill="url(#SVGID_6_)"/><path d="m145.41 483.913h28.2v-16.06h-15.964c-2.44 0-4.675 1.364-5.791 3.533z" fill="url(#SVGID_7_)"/><path d="m365.908 483.913h27.757v-14.493h-16.715c-2.202 0-4.219 1.231-5.227 3.189z" fill="url(#SVGID_8_)"/><path d="m157.646 467.853h15.442c6.165 0 11.162-4.997 11.162-11.162v-90.109l-26.604 17.312z" fill="url(#SVGID_9_)"/><path d="m219.845 277.808c0-17.466-14.399-31.57-31.974-31.088-16.939.465-30.226 14.789-30.226 31.735v105.439c10.517 0 20.203-5.717 25.286-14.924l1.318-2.387 20.923-59.641c.721-2.055 1.923-3.93 3.589-5.333 6.778-5.705 11.084-14.25 11.084-23.801z" fill="url(#SVGID_10_)"/><path d="m376.951 469.42h15.917c5.563 0 10.073-4.51 10.073-10.073v-96.99l-19.086-6.305-6.904 21.311z" fill="url(#SVGID_11_)"/><path d="m402.941 362.356-22.779-48.033c-2.286-4.82-3.279-10.203-2.527-15.484.827-5.813.386-11.916-1.541-17.931-6.15-19.194-26.028-30.969-45.809-27.104-23.067 4.507-37.126 27.471-31.147 49.786 2.106 7.86 6.406 14.547 12.063 19.578l65.749 61.677c8.576-2.298 16.027-7.628 20.972-15.002z" fill="url(#SVGID_12_)"/><path d="m441.427 246.407c0-27.472-22.27-49.742-49.742-49.742h-79.728c-41.471 0-82.764-5.436-122.822-16.17-26.542-7.112-48.109-26.443-58.071-52.052l-11.117-28.577-35.642 39.922c0 33.329 19.346 60.199 42.913 83.767l18.178 24.95c9.257 46.226 59.168 78.394 91.937 78.394h123.602c44.454 0 80.492-36.038 80.492-80.492z" fill="url(#SVGID_13_)"/><path d="m159.664 245.846-17.198-17.198c-29.952-29.952-43.223-73.466-33.834-116.109l-16.083 72.014c6.249 16.391 15.92 31.451 28.564 44.095l17.198 17.198c9.257 46.226 50.073 81.052 99.023 81.052h21.354c-48.951.001-89.767-34.825-99.024-81.052z" fill="url(#SVGID_14_)"/><path d="m119.947 99.866-35.642 39.922 3.634 26.914c9.353 0 17.997-3.039 24.997-8.184 10.046-7.383 16.707-19.101 17.225-32.396z" fill="url(#SVGID_15_)"/><path d="m92.549 184.553c8.508-9.673 13.269-33.153 13.269-33.153h-20.976c1.059 11.412 3.668 22.561 7.707 33.153z" fill="url(#SVGID_16_)"/><path d="m105.818 151.4h-20.976c.479 5.164 1.277 10.273 2.379 15.302h.717c5.094 0 9.977-.902 14.498-2.554 2.214-6.988 3.382-12.748 3.382-12.748z" fill="url(#SVGID_17_)"/><path d="m188.78 483.913h28.2v-16.06h-15.964c-2.44 0-4.675 1.364-5.791 3.533z" fill="url(#SVGID_18_)"/><path d="m210.246 467.853h-9.23c-2.44 0-4.675 1.364-5.791 3.533l-6.444 12.526h9.23l6.444-12.526c1.116-2.169 3.351-3.533 5.791-3.533z" fill="url(#SVGID_19_)"/><path d="m409.277 483.913h27.757v-14.493h-16.714c-2.202 0-4.219 1.231-5.227 3.189z" fill="url(#SVGID_20_)"/><path d="m428.65 469.42h-8.33c-2.202 0-4.219 1.231-5.227 3.189l-5.816 11.305h8.33l5.816-11.305c1.008-1.959 3.025-3.189 5.227-3.189z" fill="url(#SVGID_21_)"/><path d="m201.015 467.853h15.442c6.165 0 11.162-4.997 11.162-11.162v-90.109l-26.604 17.312z" fill="url(#SVGID_22_)"/><path d="m212.066 376.703-11.051 7.191v83.959h11.051z" fill="url(#SVGID_23_)"/><path d="m263.215 277.808c0-17.466-14.399-31.57-31.974-31.088-16.939.465-30.226 14.789-30.226 31.735v105.439c10.517 0 20.203-5.717 25.286-14.924l1.318-2.387 20.923-59.641c.721-2.055 1.923-3.93 3.589-5.333 6.778-5.705 11.084-14.25 11.084-23.801z" fill="url(#SVGID_24_)"/><path d="m211.966 278.422c0-15.39 10.97-28.578 25.648-31.229-2.009-.358-4.084-.525-6.207-.477-17 .379-30.391 14.701-30.391 31.705v105.472h.115c6.024-.024 10.836-5.054 10.836-11.078v-94.393z" fill="url(#SVGID_25_)"/><path d="m420.32 469.42h15.917c5.563 0 10.073-4.51 10.073-10.073v-96.99l-19.086-6.305-6.904 21.311z" fill="url(#SVGID_26_)"/><path d="m429.597 356.835-2.373-.784-6.904 21.311v92.058h9.066v-111.794z" fill="url(#SVGID_27_)"/><path d="m446.31 362.356-22.779-48.033c-2.286-4.82-3.279-10.203-2.527-15.484.827-5.813.386-11.916-1.541-17.931-6.15-19.194-26.028-30.969-45.809-27.104-23.067 4.507-37.126 27.471-31.147 49.786 2.106 7.86 6.406 14.547 12.063 19.578l65.749 61.677c8.576-2.298 16.027-7.628 20.972-15.002z" fill="url(#SVGID_28_)"/><path d="m367.686 323.168c-5.658-5.031-9.957-11.718-12.063-19.578-5.833-21.771 7.406-44.159 29.475-49.423.973-.232 1.946-.427 2.918-.587-5.167-.857-10.598-.71-16.035.587-22.069 5.265-35.309 27.653-29.475 49.423 2.106 7.86 6.406 14.547 12.063 19.578l65.749 61.677c3.205-.859 6.253-2.141 9.071-3.795z" fill="url(#SVGID_29_)"/><path d="m154.831 5.482c-4.557-1.221-9.241 1.484-10.462 6.04l-6.287 23.465c-2.618 9.772-6.506 19.158-11.565 27.919-2.451-2.097-5.109-3.882-7.931-5.337v-4.381c0-10.495-1.376-20.944-4.092-31.081l-5.922-22.107c-4.557 1.221-7.261 5.905-6.04 10.461l3.422 12.771c2.716 10.137 4.092 20.587 4.092 31.082-1.755-.453-3.549-.794-5.374-1.018l-7.544-.926c-15.482-1.9-30.187-7.859-42.625-17.273l-9.039-6.841c-2.847 3.761-2.106 9.119 1.656 11.966l2.224 1.684c13.64 10.324 29.767 16.859 46.746 18.943l7.541.925c6.826.838 13.107 3.73 18.176 8.368 1.116 1.021 1.777 2.505 1.672 4.014-.096 1.388-.752 2.618-1.857 3.476l-15.785 12.256 5.238 6.747 15.489-12.025c2.121-1.646 3.835-3.812 4.715-6.349.848-2.444.958-4.952.449-7.294l2.75-4.763c5.058-8.76 8.946-18.146 11.564-27.917z" fill="url(#SVGID_30_)"/><path d="m123.077 117.328v-10.853c0-12.348-10.01-22.359-22.359-22.359h-3.567c-3.503 0-6.891 1.249-9.555 3.523l-42.392 36.177 16.674 26.12 43.939 1.463c10.467-7.69 17.26-20.087 17.26-34.071z" fill="url(#SVGID_31_)"/><path d="m123.077 114.866h-5.15c-7.034 0-12.737-5.703-12.737-12.737v-25.851c9.879 0 17.887 8.008 17.887 17.887z" fill="url(#SVGID_32_)"/><path d="m116.198 109.138c-4.946 0-8.956-4.01-8.956-8.956v-18.176c6.946 0 12.577 5.631 12.577 12.577v10.934c0 2-1.622 3.621-3.621 3.621z" fill="url(#SVGID_33_)"/><path d="m82.001 145.214c-9.86 0-19.316-3.917-26.288-10.889l-10.508-10.508-14.507 12.38c-9.391 8.015-3.724 23.387 8.623 23.387h41.501c9.353 0 17.997-3.039 24.997-8.184-7.221-4.02-15.407-6.186-23.818-6.186z" fill="url(#SVGID_34_)"/><path d="m24.108 138.681c0 2.481-4.887 7.337-7.995 7.337s-7.995-4.856-7.995-7.337 3.58-4.492 7.995-4.492 7.995 2.011 7.995 4.492z" fill="url(#SVGID_35_)"/><path d="m280.94 512c126.611 0 229.25-12.575 229.25-28.087h-458.5c0 15.512 102.639 28.087 229.25 28.087z" fill="url(#SVGID_36_)"/></g></svg>