<svg id="Capa_1" enable-background="new 0 0 512 512" height="512" viewBox="0 0 512 512" width="512" xmlns="http://www.w3.org/2000/svg" xmlns:xlink="http://www.w3.org/1999/xlink"><radialGradient id="SVGID_1_" cx="127.449" cy="1.173" gradientTransform="matrix(.96 -.281 .249 .852 4.829 35.939)" gradientUnits="userSpaceOnUse" r="33.593"><stop offset="0" stop-color="#fbe2dd"/><stop offset=".686" stop-color="#e67fa6"/><stop offset="1" stop-color="#dd5790"/></radialGradient><radialGradient id="SVGID_2_" cx="116.295" cy="22.806" gradientTransform="matrix(.646 -.764 .713 .603 24.944 97.858)" gradientUnits="userSpaceOnUse" r="26.685"><stop offset="0" stop-color="#fbe2dd"/><stop offset=".4032" stop-color="#f2c4cf"/><stop offset="1" stop-color="#e490b7"/></radialGradient><radialGradient id="SVGID_3_" cx="104.994" cy="44.879" gradientTransform="matrix(-.705 -.71 .708 -.703 147.177 150.953)" gradientUnits="userSpaceOnUse" r="28.237"><stop offset="0" stop-color="#e7ecf1"/><stop offset=".5673" stop-color="#b1adb7"/><stop offset="1" stop-color="#8b818e"/></radialGradient><linearGradient id="SVGID_4_" gradientUnits="userSpaceOnUse" x1="275.096" x2="233.626" y1="344.582" y2="416.651"><stop offset=".1337" stop-color="#c10a54"/><stop offset=".1786" stop-color="#c81c62"/><stop offset=".2507" stop-color="#cf3273"/><stop offset=".336" stop-color="#d64380"/><stop offset=".4414" stop-color="#da4e89"/><stop offset=".5894" stop-color="#dc558f"/><stop offset="1" stop-color="#dd5790"/></linearGradient><linearGradient id="SVGID_5_" gradientUnits="userSpaceOnUse" x1="234.715" x2="234.715" y1="234.821" y2="307.608"><stop offset=".0898" stop-color="#c10a54"/><stop offset=".1351" stop-color="#c71960"/><stop offset=".221" stop-color="#cf3072"/><stop offset=".3209" stop-color="#d5427f"/><stop offset=".4418" stop-color="#da4e89"/><stop offset=".6055" stop-color="#dc558e"/><stop offset="1" stop-color="#dd5790"/></linearGradient><linearGradient id="SVGID_6_" gradientUnits="userSpaceOnUse" x1="231.774" x2="227.139" y1="230.349" y2="247.053"><stop offset="0" stop-color="#c10a54"/><stop offset=".0164" stop-color="#c20c56"/><stop offset=".1753" stop-color="#cd2067"/><stop offset=".3584" stop-color="#d42e74"/><stop offset=".5871" stop-color="#d9367b"/><stop offset="1" stop-color="#da387d"/></linearGradient><radialGradient id="SVGID_7_" cx="235.81" cy="59.415" gradientTransform="matrix(.984 .18 -.141 .768 12.21 -28.683)" gradientUnits="userSpaceOnUse" r="294.297"><stop offset="0" stop-color="#df75a5"/><stop offset=".2137" stop-color="#de6b9e"/><stop offset=".4892" stop-color="#dd5790"/><stop offset=".5943" stop-color="#dc4887"/><stop offset=".7938" stop-color="#da2370"/><stop offset=".9082" stop-color="#d80a61"/></radialGradient><radialGradient id="SVGID_8_" cx="147.232" cy="93.597" gradientTransform="matrix(.984 .18 -.141 .768 15.568 -4.798)" gradientUnits="userSpaceOnUse" r="205.413"><stop offset=".0302" stop-color="#fbe2dd"/><stop offset=".3417" stop-color="#df75a5"/><stop offset=".666" stop-color="#dd5790"/><stop offset="1" stop-color="#d80a61"/></radialGradient><radialGradient id="SVGID_9_" cx="172.829" cy="38.217" gradientTransform="matrix(.984 .18 -.141 .768 8.2 -22.259)" gradientUnits="userSpaceOnUse" r="34.654"><stop offset="0" stop-color="#c10a54"/><stop offset=".1479" stop-color="#ca2368"/><stop offset=".4717" stop-color="#dd5790"/><stop offset=".7692" stop-color="#de6b9e"/><stop offset="1" stop-color="#df75a5"/></radialGradient><linearGradient id="SVGID_10_" gradientUnits="userSpaceOnUse" x1="306.927" x2="265.457" y1="344.582" y2="416.651"><stop offset=".1337" stop-color="#d80a61"/><stop offset=".1555" stop-color="#d91a6b"/><stop offset=".2065" stop-color="#dc397f"/><stop offset=".2643" stop-color="#df5591"/><stop offset=".3296" stop-color="#e16b9f"/><stop offset=".4059" stop-color="#e27caa"/><stop offset=".5003" stop-color="#e387b1"/><stop offset=".6326" stop-color="#e48eb6"/><stop offset="1" stop-color="#e490b7"/></linearGradient><linearGradient id="SVGID_11_" gradientUnits="userSpaceOnUse" x1="266.546" x2="266.546" y1="234.821" y2="307.608"><stop offset="0" stop-color="#da387d"/><stop offset=".0784" stop-color="#dd528e"/><stop offset=".1699" stop-color="#e0699d"/><stop offset=".2764" stop-color="#e27ba9"/><stop offset=".4053" stop-color="#e387b1"/><stop offset=".5797" stop-color="#e48eb6"/><stop offset="1" stop-color="#e490b7"/></linearGradient><radialGradient id="SVGID_12_" cx="252.195" cy="205.283" gradientTransform="matrix(.703 -.712 .549 .542 -37.638 273.5)" gradientUnits="userSpaceOnUse" r="46.665"><stop offset=".4381" stop-color="#dd5790"/><stop offset=".6616" stop-color="#dc4e8b"/><stop offset="1" stop-color="#da387d"/></radialGradient><radialGradient id="SVGID_13_" cx="251.621" cy="211.4" gradientTransform="matrix(1 0 0 1.007 0 -1.365)" gradientUnits="userSpaceOnUse" r="40.611"><stop offset=".0055" stop-color="#fbe2dd"/><stop offset=".0874" stop-color="#f5c4cd"/><stop offset=".3167" stop-color="#e476a1"/><stop offset=".4221" stop-color="#dd5790"/><stop offset=".8413" stop-color="#da3d80"/><stop offset=".914" stop-color="#da387d"/></radialGradient><radialGradient id="SVGID_14_" cx="232.885" cy="128.414" gradientTransform="matrix(1 0 0 .836 0 21.078)" gradientUnits="userSpaceOnUse" r="125.489"><stop offset="0" stop-color="#df75a5"/><stop offset=".2605" stop-color="#de6197"/><stop offset=".4595" stop-color="#dd5790"/><stop offset=".6745" stop-color="#dc4e8b"/><stop offset="1" stop-color="#da387d"/></radialGradient><radialGradient id="SVGID_15_" cx="201.324" cy="141.868" gradientTransform="matrix(1 0 0 1.007 0 -.916)" gradientUnits="userSpaceOnUse" r="107.712"><stop offset=".0055" stop-color="#fbe2dd"/><stop offset=".1554" stop-color="#f1bdca"/><stop offset=".4122" stop-color="#df75a5"/><stop offset=".6453" stop-color="#dd5b94"/><stop offset=".914" stop-color="#da387d"/></radialGradient><radialGradient id="SVGID_16_" cx="173.424" cy="19.262" gradientTransform="matrix(.96 -.281 .176 .602 3.577 56.329)" gradientUnits="userSpaceOnUse" r="34.619"><stop offset=".4077" stop-color="#df75a5"/><stop offset=".7025" stop-color="#df73a3"/><stop offset=".847" stop-color="#de6b9e"/><stop offset=".9584" stop-color="#dd5e95"/><stop offset="1" stop-color="#dd5790"/></radialGradient><radialGradient id="SVGID_17_" cx="148.211" cy="54.904" gradientTransform="matrix(-.705 -.71 .708 -.703 213.739 198.697)" gradientUnits="userSpaceOnUse" r="29.733"><stop offset="0" stop-color="#a298a5"/><stop offset=".4261" stop-color="#a096a3"/><stop offset=".6067" stop-color="#998f9c"/><stop offset=".7408" stop-color="#8c848f"/><stop offset=".852" stop-color="#7b737e"/><stop offset=".9479" stop-color="#645e67"/><stop offset="1" stop-color="#544f57"/></radialGradient><radialGradient id="SVGID_18_" cx="148.765" cy="42.167" gradientTransform="matrix(.646 -.764 .713 .603 22.649 130.342)" gradientUnits="userSpaceOnUse" r="29.708"><stop offset="0" stop-color="#efa5c3"/><stop offset=".4321" stop-color="#efa3c2"/><stop offset=".6114" stop-color="#ed9cbd"/><stop offset=".7439" stop-color="#ea90b5"/><stop offset=".8533" stop-color="#e67ea9"/><stop offset=".9475" stop-color="#e1679b"/><stop offset="1" stop-color="#dd5790"/></radialGradient><radialGradient id="SVGID_19_" cx="256.732" cy="2195.454" gradientTransform="matrix(.931 0 0 .112 11.619 247.616)" gradientUnits="userSpaceOnUse" r="162.2"><stop offset="0" stop-color="#efa5c3"/><stop offset=".3199" stop-color="#f5b9d1"/><stop offset=".5032" stop-color="#f9c6da"/><stop offset=".8982" stop-color="#fff"/></radialGradient><g><path d="m171.645 0h-14.408c-9.573 0-18.756 3.791-25.541 10.544l-1.149 1.144c-1.963 1.953-3.142 4.558-3.314 7.322l-1.652 20.11h17.374z" fill="url(#SVGID_1_)"/><path d="m127.358 17.913-15.155 15.155c-2.88 2.88-4.87 6.429-5.861 10.24l12.651 12.651c.949-1.718 2.141-3.309 3.553-4.722l13.606-13.606c0-5.739 2.772-14.731 5.614-19.717h-14.408z" fill="url(#SVGID_2_)"/><path d="m106.382 54.79.414 1.543c2.164 8.078 5.378 15.837 9.56 23.079h14.408l-10.014-36.105h-14.408c-.965 3.705-.985 7.657.04 11.483z" fill="url(#SVGID_3_)"/><path d="m229.204 342.34v143.067h-29.561c-4.82 0-9.283 2.538-11.747 6.68l-.376.633h45.124c4.194 0 7.594-3.4 7.594-7.594v-142.786z" fill="url(#SVGID_4_)"/><path d="m229.194 353.382v-131.64h11.042v120.598c0 6.099-4.943 11.042-11.042 11.042z" fill="url(#SVGID_5_)"/><circle cx="234.715" cy="219.747" fill="url(#SVGID_6_)" r="20.592"/><path d="m367.992 177.723c-32.287-40.965-81.569-64.871-133.728-64.871-32.042 0-58.573 23.601-63.156 54.368-.648 4.353-5.512 6.704-9.326 4.508-7.69-4.43-10.327-14.256-5.891-21.94l35.995-62.345c9.438-16.347 11.16-36.033 4.704-53.77l-8.158-22.413-9.992 9.992-9.695 14.803 1.493-.49c3.16-1.037 8.356-1.159 9.237 2.048 1.656 6.027 2.231 14.366 1.248 20.539-1.495 9.383-4.215 17.42-9.078 25.842l-32.447 59.168c-1.918 3.323-.145 8.113-1.329 11.762-7.684 23.673-.43 46.237 23.432 53.311l83.721 24.818c26.915 7.981 55.945 4.292 80.008-10.168 22.915-13.77 51.944-12.008 73.026 4.433l23.416 18.261z" fill="url(#SVGID_7_)"/><path d="m256.343 233.049-83.721-24.818c-23.862-7.074-37.202-32.425-29.518-56.098 1.184-3.649 2.749-7.164 4.667-10.486l32.701-56.64c4.862-8.422 8.055-17.562 9.55-26.945.984-6.173.619-12.486-1.038-18.514l-6.217-22.626-4.327 4.327-9.695 14.803 1.493-.49c3.16-1.037 6.544.78 7.426 3.986 1.656 6.027 2.021 12.341 1.038 18.514-1.495 9.383-4.687 18.523-9.55 26.945l-32.701 56.64c-1.918 3.323-3.483 6.837-4.667 10.486-7.684 23.673 5.656 49.024 29.518 56.098l83.721 24.818c11.166 3.311 22.695 4.607 34.083 3.965-7.65-.435-15.288-1.748-22.763-3.965z" fill="url(#SVGID_8_)"/><path d="m188.432 11.258-9.992 9.992-9.695 14.803 1.493-.49c2.446-.803 5.022.109 6.472 2.048l6.107-2.157c5.428-1.917 9.226-6.732 9.931-12.338z" fill="url(#SVGID_9_)"/><path d="m261.035 342.34v143.067h-29.561c-4.82 0-9.283 2.538-11.747 6.68l-.376.633h45.124c4.194 0 7.594-3.4 7.594-7.594v-142.786z" fill="url(#SVGID_10_)"/><path d="m261.025 353.382v-131.64h11.042v120.598c.001 6.099-4.943 11.042-11.042 11.042z" fill="url(#SVGID_11_)"/><circle cx="266.546" cy="219.747" fill="url(#SVGID_12_)" r="20.592"/><path d="m254.187 219.747c0-9.963 7.076-18.272 16.476-20.179-1.33-.27-2.707-.413-4.117-.413-11.373 0-20.592 9.219-20.592 20.592s9.219 20.592 20.592 20.592c1.41 0 2.786-.143 4.117-.413-9.4-1.907-16.476-10.216-16.476-20.179z" fill="url(#SVGID_13_)"/><path d="m355.867 187.279c-29.547-37.489-73.87-58.989-121.604-58.989-.603 0-1.205.011-1.804.034-46.987 1.771-54.635 68.705-9.554 82.069l26.504 7.857c7.817 2.318 15.913 3.492 24.062 3.492 15.361 0 30.44-4.181 43.606-12.093 12.452-7.481 26.708-11.436 41.229-11.436 2.133 0 4.263.086 6.382.258z" fill="url(#SVGID_14_)"/><path d="m261.76 218.25-26.504-7.857c-44.233-13.113-37.698-77.792 6.948-81.893-2.636-.132-5.282-.21-7.941-.21-.603 0-1.205.011-1.804.034-46.987 1.771-54.635 68.705-9.554 82.069l26.504 7.857c7.817 2.318 15.913 3.492 24.062 3.492 2.055 0 4.105-.081 6.146-.229-6.044-.444-12.028-1.535-17.857-3.263z" fill="url(#SVGID_15_)"/><path d="m146.104 10.544-1.149 1.144c-1.963 1.953-3.142 4.558-3.314 7.322l-1.652 20.11h17.374c2.146 0 4.277-.365 6.3-1.08l16.066-5.675c6.028-2.129 10.059-7.828 10.059-14.222.001-10.02-8.122-18.143-18.143-18.143-9.573 0-18.756 3.791-25.541 10.544z" fill="url(#SVGID_16_)"/><path d="m120.79 54.79.414 1.543c2.164 8.078 5.378 15.837 9.56 23.079v-13.232c0-3.607.923-7.12 2.637-10.221v-12.651h-12.651c-.964 3.704-.985 7.656.04 11.482z" fill="url(#SVGID_17_)"/><path d="m141.766 17.913-15.155 15.155c-2.88 2.88-4.87 6.429-5.861 10.24l12.65 12.651c.949-1.718 2.141-3.309 3.553-4.722l13.606-13.606c0-5.739 1.495-11.38 4.337-16.366l.091-.159z" fill="url(#SVGID_18_)"/><path d="m247.898 512c86.913 0 157.37-8.632 157.37-19.28h-314.74c0 10.648 70.457 19.28 157.37 19.28z" fill="url(#SVGID_19_)"/></g></svg>