<svg id="Capa_1" enable-background="new 0 0 512 512" height="512" viewBox="0 0 512 512" width="512" xmlns="http://www.w3.org/2000/svg" xmlns:xlink="http://www.w3.org/1999/xlink"><radialGradient id="SVGID_1_" cx="430.67" cy="207.942" gradientTransform="matrix(1 0 0 1.628 0 -130.507)" gradientUnits="userSpaceOnUse" r="85.649"><stop offset=".085" stop-color="#c8a729"/><stop offset=".2281" stop-color="#d4b42c"/><stop offset=".5365" stop-color="#e9cb31"/><stop offset=".7317" stop-color="#f1d333"/></radialGradient><linearGradient id="SVGID_2_" gradientUnits="userSpaceOnUse" x1="362.98" x2="325.065" y1="364.849" y2="279.983"><stop offset=".2683" stop-color="#ecc32e"/><stop offset=".4764" stop-color="#eac22e"/><stop offset=".5513" stop-color="#e3bd2d"/><stop offset=".5962" stop-color="#dab72b"/></linearGradient><radialGradient id="SVGID_3_" cx="313.948" cy="243.239" gradientTransform="matrix(.703 -.712 .549 .542 -40.1 334.829)" gradientUnits="userSpaceOnUse" r="111.262"><stop offset="0" stop-color="#dab72b"/><stop offset=".9421" stop-color="#ecc32e"/></radialGradient><linearGradient id="lg1"><stop offset=".0485" stop-color="#f9efaf"/><stop offset=".16" stop-color="#f5e289"/><stop offset=".2771" stop-color="#f2d768"/><stop offset=".3982" stop-color="#efce4e"/><stop offset=".5232" stop-color="#edc83c"/><stop offset=".6545" stop-color="#ecc432"/><stop offset=".8026" stop-color="#ecc32e"/></linearGradient><radialGradient id="SVGID_4_" cx="323.288" cy="384.123" gradientTransform="matrix(.996 -.085 .066 .768 -24.022 116.516)" gradientUnits="userSpaceOnUse" r="42.956" xlink:href="#lg1"/><linearGradient id="SVGID_5_" gradientUnits="userSpaceOnUse" x1="110.706" x2="177.931" y1="366.73" y2="264.731"><stop offset=".4043" stop-color="#ecc32e"/><stop offset=".8009" stop-color="#dab72b"/></linearGradient><radialGradient id="SVGID_6_" cx="75.331" cy="384.771" gradientTransform="matrix(.996 -.085 .066 .768 -24.963 95.574)" gradientUnits="userSpaceOnUse" r="41.825" xlink:href="#lg1"/><radialGradient id="SVGID_7_" cx="118.712" cy="265.97" gradientTransform="matrix(.944 .329 -.196 .561 58.724 77.546)" gradientUnits="userSpaceOnUse" r="111.603"><stop offset=".0049" stop-color="#dab72b"/><stop offset=".2311" stop-color="#dfba2c"/><stop offset=".4749" stop-color="#ecc32e"/></radialGradient><radialGradient id="SVGID_8_" cx="201.241" cy="132.887" gradientTransform="matrix(1 0 0 .611 0 51.666)" gradientUnits="userSpaceOnUse" r="285.013"><stop offset="0" stop-color="#f6e781"/><stop offset=".1653" stop-color="#f6e577"/><stop offset=".4472" stop-color="#f5e15c"/><stop offset=".6426" stop-color="#f4dd45"/><stop offset=".7484" stop-color="#f0d841"/><stop offset=".8796" stop-color="#e6c837"/><stop offset=".9844" stop-color="#dab72b"/></radialGradient><radialGradient id="SVGID_9_" cx="76.28" cy="199.811" gradientTransform="matrix(.707 .707 -.889 .889 199.903 -31.688)" gradientUnits="userSpaceOnUse" r="116.762"><stop offset="0" stop-color="#fff9d0"/><stop offset=".1241" stop-color="#fdf4b7"/><stop offset=".5415" stop-color="#f6e266"/><stop offset=".6924" stop-color="#f5de59"/><stop offset=".9724" stop-color="#f1d436"/><stop offset=".9945" stop-color="#f1d333"/></radialGradient><radialGradient id="SVGID_10_" cx="64.344" cy="144.257" gradientTransform="matrix(.981 -.193 .204 1.035 -28.195 7.358)" gradientUnits="userSpaceOnUse" r="63.783"><stop offset=".0121" stop-color="#f1d333"/><stop offset=".2952" stop-color="#f2d741"/><stop offset=".824" stop-color="#f6e164"/><stop offset=".8494" stop-color="#f6e266"/></radialGradient><radialGradient id="SVGID_11_" cx="178.278" cy="134.168" gradientTransform="matrix(1 0 0 .866 0 18.006)" gradientUnits="userSpaceOnUse" r="236.368"><stop offset=".0376" stop-color="#9d6b6b"/><stop offset=".0949" stop-color="#996868"/><stop offset=".6866" stop-color="#744f4f"/><stop offset="1" stop-color="#664545"/></radialGradient><radialGradient id="SVGID_12_" cx="86.963" cy="205.48" gradientTransform="matrix(1 0 0 .982 0 3.736)" gradientUnits="userSpaceOnUse" r="93.903"><stop offset=".0191" stop-color="#b78e8e"/><stop offset=".3686" stop-color="#a47c7c"/><stop offset="1" stop-color="#785252"/></radialGradient><linearGradient id="SVGID_13_" gradientUnits="userSpaceOnUse" x1="420.696" x2="397.495" y1="364.422" y2="274.413"><stop offset=".4157" stop-color="#f4dd45"/><stop offset=".4955" stop-color="#f2da43"/><stop offset=".5618" stop-color="#ebcf3c"/><stop offset=".623" stop-color="#dfbe30"/><stop offset=".6425" stop-color="#dab72b"/></linearGradient><linearGradient id="SVGID_14_" gradientUnits="userSpaceOnUse" x1="407.082" x2="412.494" y1="406.434" y2="277.905"><stop offset="0" stop-color="#f9efaf"/><stop offset=".0967" stop-color="#f7e98d"/><stop offset=".2069" stop-color="#f6e46e"/><stop offset=".3139" stop-color="#f5e057"/><stop offset=".4153" stop-color="#f4de4a"/><stop offset=".5053" stop-color="#f4dd45"/><stop offset=".5845" stop-color="#f0d841"/><stop offset=".6832" stop-color="#e6c837"/><stop offset=".7611" stop-color="#dab72b"/></linearGradient><radialGradient id="SVGID_15_" cx="348.843" cy="229.804" gradientTransform="matrix(.703 -.712 .549 .542 -22.354 353.501)" gradientUnits="userSpaceOnUse" r="111.262"><stop offset="0" stop-color="#f6e781"/><stop offset=".2085" stop-color="#f6e470"/><stop offset=".3927" stop-color="#f6e266"/><stop offset=".9491" stop-color="#f4dd45"/></radialGradient><radialGradient id="SVGID_16_" cx="316.733" cy="235.337" gradientTransform="matrix(.649 -.761 .616 .526 -33.775 352.561)" gradientUnits="userSpaceOnUse" r="133.898"><stop offset=".1103" stop-color="#fffbe4"/><stop offset=".3302" stop-color="#faf1b1"/><stop offset=".5078" stop-color="#f7ea8e"/><stop offset=".6033" stop-color="#f6e781"/><stop offset=".9121" stop-color="#f4dd45"/></radialGradient><linearGradient id="lg2"><stop offset=".0485" stop-color="#fffbe4"/><stop offset=".113" stop-color="#fdf6c8"/><stop offset=".2184" stop-color="#faeea0"/><stop offset=".3272" stop-color="#f8e87f"/><stop offset=".4386" stop-color="#f6e365"/><stop offset=".5535" stop-color="#f5e053"/><stop offset=".6743" stop-color="#f4de49"/><stop offset=".8105" stop-color="#f4dd45"/></linearGradient><radialGradient id="SVGID_17_" cx="379.935" cy="384.123" gradientTransform="matrix(.996 -.085 .066 .768 -23.817 121.334)" gradientUnits="userSpaceOnUse" r="42.956" xlink:href="#lg2"/><radialGradient id="SVGID_18_" cx="35.914" cy="73.49" gradientTransform="matrix(.981 -.193 .204 1.035 -14.305 4.354)" gradientUnits="userSpaceOnUse" r="27.085"><stop offset="0" stop-color="#f6e781"/><stop offset=".6643" stop-color="#f1d333"/></radialGradient><linearGradient id="lg3"><stop offset=".0949" stop-color="#fffbe4"/><stop offset=".2453" stop-color="#fdf6d0"/><stop offset=".4687" stop-color="#faf1b8"/><stop offset=".6064" stop-color="#f9efaf"/><stop offset=".7529" stop-color="#f8eda1"/><stop offset="1" stop-color="#f6e781"/></linearGradient><radialGradient id="SVGID_19_" cx="22.772" cy="86.223" gradientTransform="matrix(1 0 0 .759 0 20.827)" gradientUnits="userSpaceOnUse" r="36.999" xlink:href="#lg3"/><radialGradient id="SVGID_20_" cx="3.246" cy="137.447" gradientTransform="matrix(.858 .514 -.375 .627 52.044 49.573)" gradientUnits="userSpaceOnUse" r="32.69"><stop offset="0" stop-color="#f6e266"/><stop offset=".8168" stop-color="#f4dd45"/></radialGradient><radialGradient id="SVGID_21_" cx="6.217" cy="108.776" gradientTransform="matrix(1 0 0 .759 0 26.274)" gradientUnits="userSpaceOnUse" r="36.999" xlink:href="#lg3"/><radialGradient id="SVGID_22_" cx="3.816" cy="423.313" gradientTransform="matrix(.762 -.571 .647 .669 -273.008 -153.621)" gradientUnits="userSpaceOnUse" r="12.187"><stop offset="0" stop-color="#d0cee7"/><stop offset=".3128" stop-color="#a19dae"/><stop offset=".5922" stop-color="#756e78"/><stop offset="1" stop-color="#665e66"/></radialGradient><radialGradient id="SVGID_23_" cx="70.024" cy="125.628" gradientTransform="matrix(.981 -.193 .204 1.035 -24.291 9.111)" gradientUnits="userSpaceOnUse" r="51.532"><stop offset=".5787" stop-color="#f6e266"/><stop offset=".6854" stop-color="#f5e061"/><stop offset=".8152" stop-color="#f4dc52"/><stop offset=".9563" stop-color="#f2d53a"/><stop offset=".9879" stop-color="#f1d333"/></radialGradient><radialGradient id="SVGID_25_" cx="86.02" cy="76.549" gradientTransform="matrix(.981 -.193 .204 1.035 -13.984 13.928)" gradientUnits="userSpaceOnUse" r="27.085"><stop offset="0" stop-color="#f9efaf"/><stop offset=".6643" stop-color="#f6e266"/><stop offset=".7829" stop-color="#f4dd57"/><stop offset=".9879" stop-color="#f1d333"/></radialGradient><radialGradient id="SVGID_26_" cx="90.735" cy="85.081" gradientTransform="matrix(1 0 0 1.008 0 -.702)" gradientUnits="userSpaceOnUse" r="10.923"><stop offset="0" stop-color="#ffead8"/><stop offset=".2361" stop-color="#fde7d2"/><stop offset=".5425" stop-color="#f9ddc2"/><stop offset=".8862" stop-color="#f2cea7"/><stop offset="1" stop-color="#efc89d"/></radialGradient><linearGradient id="SVGID_27_" gradientUnits="userSpaceOnUse" x1="167.354" x2="234.578" y1="366.73" y2="264.731"><stop offset=".4043" stop-color="#f4dd45"/><stop offset=".8009" stop-color="#ecc32e"/></linearGradient><linearGradient id="SVGID_28_" gradientUnits="userSpaceOnUse" x1="158.435" x2="158.435" y1="412.616" y2="327.869"><stop offset=".408" stop-color="#f6e781"/><stop offset=".5986" stop-color="#f5e261"/><stop offset=".7656" stop-color="#f4de4d"/><stop offset=".8761" stop-color="#f4dd45"/></linearGradient><radialGradient id="SVGID_29_" cx="131.979" cy="384.771" gradientTransform="matrix(.996 -.085 .066 .768 -24.758 100.393)" gradientUnits="userSpaceOnUse" r="41.825" xlink:href="#lg2"/><radialGradient id="SVGID_30_" cx="184.636" cy="207.11" gradientTransform="matrix(.703 -.712 .549 .542 -58.726 226.268)" gradientUnits="userSpaceOnUse" r="111.603"><stop offset="0" stop-color="#f6e266"/><stop offset=".4749" stop-color="#f6e266"/><stop offset=".6211" stop-color="#f5e15d"/><stop offset=".8576" stop-color="#f4dd45"/><stop offset=".8597" stop-color="#f4dd45"/></radialGradient><radialGradient id="SVGID_31_" cx="134.754" cy="227.223" gradientTransform="matrix(.649 -.761 .616 .526 -92.604 210.307)" gradientUnits="userSpaceOnUse" r="106.259"><stop offset=".1034" stop-color="#fff9d0"/><stop offset=".2351" stop-color="#fdf3b6"/><stop offset=".5152" stop-color="#f7e574"/><stop offset=".5706" stop-color="#f6e266"/><stop offset=".7148" stop-color="#f6e162"/><stop offset=".8601" stop-color="#f5e056"/><stop offset=".9858" stop-color="#f4dd45"/></radialGradient><radialGradient id="SVGID_32_" cx="52.808" cy="122.565" gradientTransform="matrix(.762 -.648 .561 .659 -56.188 75.991)" gradientUnits="userSpaceOnUse" r="71.143"><stop offset="0" stop-color="#9d6b6b"/><stop offset=".3063" stop-color="#8a5e5e"/><stop offset=".9261" stop-color="#583c3c"/><stop offset="1" stop-color="#523838"/></radialGradient><radialGradient id="SVGID_33_" cx="402.03" cy="2059.682" gradientTransform="matrix(.931 0 0 .112 -118.375 178.91)" gradientUnits="userSpaceOnUse" r="258.779"><stop offset="0" stop-color="#f9efaf"/><stop offset=".2558" stop-color="#fcf5cb"/><stop offset=".4962" stop-color="#fff9e2"/><stop offset=".8982" stop-color="#fff"/></radialGradient><g><path d="m469.004 340.324c-9.58-9.58-14.962-22.573-14.962-36.121v-113.357c0-12.823-7.042-24.611-18.333-30.688v151.64c0 13.548 5.382 26.541 14.962 36.121l37.778 37.778c5.847 5.847 15.327 5.847 21.174 0l2.377-2.377z" fill="url(#SVGID_1_)"/><path d="m359.85 284.492-25.872 16.026 26.609 42.045-19.491 66.181h29.706l19.636-75.313z" fill="url(#SVGID_2_)"/><path d="m329.442 166.22c-25.282.937-45.811 21.672-46.517 46.962-.306 10.961 3.047 21.118 8.91 29.367l-.014.004 42.158 57.965c10.412 14.316 28.674 20.578 45.679 15.665v-101.621c0-27.328-22.66-49.364-50.216-48.342z" fill="url(#SVGID_3_)"/><path d="m336.014 385.847h9.869c7.168 0 12.978 5.81 12.978 12.978v9.919h-35.825v-9.919c0-7.168 5.81-12.978 12.978-12.978z" fill="url(#SVGID_4_)"/><path d="m94.567 333.309.064 75.435h26.55l5.352-47.348 12.629-78.851z" fill="url(#SVGID_5_)"/><path d="m87.722 386.45h9.609c6.979 0 12.636 5.657 12.636 12.636v9.658h-34.881v-9.658c0-6.979 5.658-12.636 12.636-12.636z" fill="url(#SVGID_6_)"/><path d="m123.506 169.797c-16.226.445-28.952 14.166-28.952 30.398l.069 134.383 39.741-39.735c12.658-12.655 19.769-29.821 19.769-47.72v-47.548c0-16.73-13.792-30.24-30.627-29.778z" fill="url(#SVGID_7_)"/><path d="m398.197 141.235h-226.394c-2.213-14.402-14.658-25.431-29.68-25.431h-18.993l-23.992-23.992-49.388 50.348 19.527 8.525c17.867 17.867 25.401 45.473 25.401 70.741 0 29.803 18.855 53.783 48.657 53.783h93.041c31.272 0 61.263-12.423 83.376-34.535l9.468-9.468h76.174c22.857 0 41.386-18.529 41.386-41.386 0-26.833-21.751-48.585-48.583-48.585z" fill="url(#SVGID_8_)"/><path d="m112.031 221.245c0-25.268-10.038-49.501-27.905-67.368l-23.155-23.156-11.221 11.439 11.717 11.717c17.867 17.867 27.905 42.1 27.905 67.368 0 29.803 24.16 53.963 53.963 53.963h22.659c-29.803 0-53.963-24.16-53.963-53.963z" fill="url(#SVGID_9_)"/><path d="m99.138 91.812-49.388 50.347 8.389 8.389 19.988-11.54c6.584-3.802 11.837-9.541 15.041-16.436l11.653-25.077z" fill="url(#SVGID_10_)"/><path d="m432.345 191.103c3.221 0 5.832 2.611 5.832 5.832s-2.611 5.832-5.832 5.832-5.832-2.611-5.832-5.832 2.611-5.832 5.832-5.832zm0-32.271c.978 0 1.899-.241 2.709-.666-2.395-2.786-5.1-5.298-8.063-7.481-.307.71-.478 1.492-.478 2.315 0 3.221 2.611 5.832 5.832 5.832zm-16.325 10.103c-3.221 0-5.832 2.611-5.832 5.832s2.611 5.832 5.832 5.832 5.832-2.611 5.832-5.832-2.611-5.832-5.832-5.832zm-310.172 22.168c-3.221 0-5.832 2.611-5.832 5.832s2.611 5.832 5.832 5.832 5.832-2.611 5.832-5.832-2.611-5.832-5.832-5.832zm0-43.935c-3.221 0-5.832 2.611-5.832 5.832s2.611 5.832 5.832 5.832 5.832-2.611 5.832-5.832-2.611-5.832-5.832-5.832zm32.649 87.87c-3.221 0-5.832 2.611-5.832 5.832s2.611 5.832 5.832 5.832 5.832-2.611 5.832-5.832-2.611-5.832-5.832-5.832zm228.549-87.87c-3.221 0-5.832 2.611-5.832 5.832s2.611 5.832 5.832 5.832 5.832-2.611 5.832-5.832-2.611-5.832-5.832-5.832zm0 43.935c-3.221 0-5.832 2.611-5.832 5.832s2.611 5.832 5.832 5.832 5.832-2.611 5.832-5.832-2.611-5.832-5.832-5.832zm16.325 21.767c-3.221 0-5.832 2.611-5.832 5.832s2.611 5.832 5.832 5.832 5.832-2.611 5.832-5.832-2.611-5.832-5.832-5.832zm32.649 0c-3.221 0-5.832 2.611-5.832 5.832s2.611 5.832 5.832 5.832 5.832-2.611 5.832-5.832-2.611-5.832-5.832-5.832zm-32.649-43.935c-3.221 0-5.832 2.611-5.832 5.832s2.611 5.832 5.832 5.832 5.832-2.611 5.832-5.832-2.611-5.832-5.832-5.832zm16.325-21.767c-3.221 0-5.832 2.611-5.832 5.832s2.611 5.832 5.832 5.832 5.832-2.611 5.832-5.832-2.611-5.832-5.832-5.832zm0 43.935c-3.221 0-5.832 2.611-5.832 5.832s2.611 5.832 5.832 5.832 5.832-2.611 5.832-5.832-2.611-5.832-5.832-5.832zm-244.874 21.767c-3.221 0-5.832 2.611-5.832 5.832s2.611 5.832 5.832 5.832 5.832-2.611 5.832-5.832-2.611-5.832-5.832-5.832zm-59.467 5.832c0-3.221-2.611-5.832-5.832-5.832-.174 0-.347.008-.517.023.243 2.767.367 5.553.367 8.352 0 1.104.033 2.201.099 3.288.017 0 .034.001.052.001 3.22 0 5.831-2.611 5.831-5.832zm16.325 22.168c0-3.221-2.611-5.832-5.832-5.832s-5.832 2.611-5.832 5.832 2.611 5.832 5.832 5.832 5.832-2.611 5.832-5.832zm239.041-71.935c-3.221 0-5.832 2.611-5.832 5.832s2.611 5.832 5.832 5.832 5.832-2.611 5.832-5.832-2.611-5.832-5.832-5.832zm-261.198 0c-3.221 0-5.832 2.611-5.832 5.832s2.611 5.832 5.832 5.832 5.832-2.611 5.832-5.832-2.611-5.832-5.832-5.832zm0-43.936c-3.221 0-5.832 2.611-5.832 5.832s2.611 5.832 5.832 5.832 5.832-2.611 5.832-5.832-2.611-5.832-5.832-5.832zm32.649 43.936c-3.221 0-5.832 2.611-5.832 5.832s2.611 5.832 5.832 5.832 5.832-2.611 5.832-5.832-2.611-5.832-5.832-5.832zm32.65 87.87c-3.221 0-5.832 2.611-5.832 5.832s2.611 5.832 5.832 5.832 5.832-2.611 5.832-5.832-2.611-5.832-5.832-5.832zm-32.65-43.935c-3.221 0-5.832 2.611-5.832 5.832s2.611 5.832 5.832 5.832 5.832-2.611 5.832-5.832-2.611-5.832-5.832-5.832zm0 43.935c-3.221 0-5.832 2.611-5.832 5.832s2.611 5.832 5.832 5.832 5.832-2.611 5.832-5.832c.001-3.221-2.611-5.832-5.832-5.832zm32.65-87.87c-3.221 0-5.832 2.611-5.832 5.832s2.611 5.832 5.832 5.832 5.832-2.611 5.832-5.832-2.611-5.832-5.832-5.832zm-38.482-38.104c0 3.221 2.611 5.832 5.832 5.832s5.832-2.611 5.832-5.832-2.611-5.832-5.832-5.832-5.832 2.611-5.832 5.832zm38.482-5.832c-3.221 0-5.832 2.611-5.832 5.832s2.611 5.832 5.832 5.832 5.832-2.611 5.832-5.832-2.611-5.832-5.832-5.832zm-16.325 22.169c-3.221 0-5.832 2.611-5.832 5.832s2.611 5.832 5.832 5.832 5.832-2.611 5.832-5.832-2.611-5.832-5.832-5.832zm0 43.935c-3.221 0-5.832 2.611-5.832 5.832s2.611 5.832 5.832 5.832 5.832-2.611 5.832-5.832-2.611-5.832-5.832-5.832zm65.3 43.935c-3.221 0-5.832 2.611-5.832 5.832s2.611 5.832 5.832 5.832 5.832-2.611 5.832-5.832-2.611-5.832-5.832-5.832zm32.65-87.87c-3.221 0-5.832 2.611-5.832 5.832s2.611 5.832 5.832 5.832 5.832-2.611 5.832-5.832-2.611-5.832-5.832-5.832zm-32.65 0c-3.221 0-5.832 2.611-5.832 5.832s2.611 5.832 5.832 5.832 5.832-2.611 5.832-5.832-2.611-5.832-5.832-5.832zm146.924 65.702c-3.221 0-5.832 2.611-5.832 5.832s2.611 5.832 5.832 5.832 5.832-2.611 5.832-5.832-2.611-5.832-5.832-5.832zm-163.249 0c-3.221 0-5.832 2.611-5.832 5.832s2.611 5.832 5.832 5.832 5.832-2.611 5.832-5.832-2.611-5.832-5.832-5.832zm32.65 43.935c-3.221 0-5.832 2.611-5.832 5.832s2.611 5.832 5.832 5.832 5.832-2.611 5.832-5.832-2.611-5.832-5.832-5.832zm16.325-65.702c-3.221 0-5.832 2.611-5.832 5.832s2.611 5.832 5.832 5.832 5.832-2.611 5.832-5.832-2.611-5.832-5.832-5.832zm-16.325 21.767c-3.221 0-5.832 2.611-5.832 5.832s2.611 5.832 5.832 5.832 5.832-2.611 5.832-5.832-2.611-5.832-5.832-5.832zm-16.325-21.767c-3.221 0-5.832 2.611-5.832 5.832s2.611 5.832 5.832 5.832 5.832-2.611 5.832-5.832-2.611-5.832-5.832-5.832zm38.482 49.767c0-3.221-2.611-5.832-5.832-5.832s-5.832 2.611-5.832 5.832 2.611 5.832 5.832 5.832 5.832-2.611 5.832-5.832zm43.142 15.935c-3.221 0-5.832 2.611-5.832 5.832 0 1.452.531 2.78 1.409 3.801 3.465-1.417 6.862-2.998 10.18-4.739-.449-2.775-2.855-4.894-5.757-4.894zm-97.949 0c-3.221 0-5.832 2.611-5.832 5.832s2.611 5.832 5.832 5.832 5.832-2.611 5.832-5.832-2.611-5.832-5.832-5.832zm-16.325-10.102c3.221 0 5.832-2.611 5.832-5.832s-2.611-5.832-5.832-5.832-5.832 2.611-5.832 5.832 2.611 5.832 5.832 5.832zm0-55.6c-3.221 0-5.832 2.611-5.832 5.832s2.611 5.832 5.832 5.832 5.832-2.611 5.832-5.832-2.611-5.832-5.832-5.832zm0-43.935c-3.221 0-5.832 2.611-5.832 5.832s2.611 5.832 5.832 5.832 5.832-2.611 5.832-5.832-2.611-5.832-5.832-5.832zm48.975 21.767c-3.221 0-5.832 2.611-5.832 5.832s2.611 5.832 5.832 5.832 5.832-2.611 5.832-5.832-2.611-5.832-5.832-5.832zm81.624 22.168c-3.221 0-5.832 2.611-5.832 5.832s2.611 5.832 5.832 5.832 5.832-2.611 5.832-5.832-2.611-5.832-5.832-5.832zm0-43.935c-3.221 0-5.832 2.611-5.832 5.832s2.611 5.832 5.832 5.832 5.832-2.611 5.832-5.832-2.611-5.832-5.832-5.832zm0 87.87c-3.221 0-5.832 2.611-5.832 5.832s2.611 5.832 5.832 5.832 5.832-2.611 5.832-5.832-2.611-5.832-5.832-5.832zm16.325-22.168c-3.221 0-5.832 2.611-5.832 5.832s2.611 5.832 5.832 5.832 5.832-2.611 5.832-5.832-2.611-5.832-5.832-5.832zm16.325-65.702c-3.221 0-5.832 2.611-5.832 5.832s2.611 5.832 5.832 5.832 5.832-2.611 5.832-5.832-2.611-5.832-5.832-5.832zm0 43.935c-3.221 0-5.832 2.611-5.832 5.832s2.611 5.832 5.832 5.832 5.832-2.611 5.832-5.832-2.611-5.832-5.832-5.832zm-16.325-22.168c-3.221 0-5.832 2.611-5.832 5.832s2.611 5.832 5.832 5.832 5.832-2.611 5.832-5.832-2.611-5.832-5.832-5.832zm-65.3 87.87c-3.221 0-5.832 2.611-5.832 5.832s2.611 5.832 5.832 5.832 5.832-2.611 5.832-5.832c.001-3.221-2.611-5.832-5.832-5.832zm16.325-109.637c-3.221 0-5.832 2.611-5.832 5.832s2.611 5.832 5.832 5.832 5.832-2.611 5.832-5.832-2.611-5.832-5.832-5.832zm-16.325 65.702c-3.221 0-5.832 2.611-5.832 5.832s2.611 5.832 5.832 5.832 5.832-2.611 5.832-5.832-2.611-5.832-5.832-5.832zm0-43.935c-3.221 0-5.832 2.611-5.832 5.832s2.611 5.832 5.832 5.832 5.832-2.611 5.832-5.832-2.611-5.832-5.832-5.832zm16.325 22.168c-3.221 0-5.832 2.611-5.832 5.832s2.611 5.832 5.832 5.832 5.832-2.611 5.832-5.832-2.611-5.832-5.832-5.832zm16.325 21.767c-3.221 0-5.832 2.611-5.832 5.832s2.611 5.832 5.832 5.832 5.832-2.611 5.832-5.832-2.611-5.832-5.832-5.832zm0-43.935c-3.221 0-5.832 2.611-5.832 5.832s2.611 5.832 5.832 5.832 5.832-2.611 5.832-5.832-2.611-5.832-5.832-5.832zm-16.325 66.103c-3.221 0-5.832 2.611-5.832 5.832s2.611 5.832 5.832 5.832 5.832-2.611 5.832-5.832-2.611-5.832-5.832-5.832z" fill="url(#SVGID_11_)"/><path d="m105.848 235.038c3.221 0 5.832 2.611 5.832 5.832s-2.611 5.832-5.832 5.832-5.832-2.611-5.832-5.832 2.611-5.832 5.832-5.832zm16.324 21.767c-3.221 0-5.832 2.611-5.832 5.832s2.611 5.832 5.832 5.832 5.832-2.611 5.832-5.832c.001-3.221-2.611-5.832-5.832-5.832zm-32.701-32.272c.017 0 .034.001.052.001 3.221 0 5.832-2.611 5.832-5.832s-2.611-5.832-5.832-5.832c-.174 0-.347.008-.517.023.243 2.767.367 5.553.367 8.352-.001 1.104.033 2.2.098 3.288zm.052-55.598c-3.221 0-5.832 2.611-5.832 5.832s2.611 5.832 5.832 5.832 5.832-2.611 5.832-5.832-2.611-5.832-5.832-5.832zm10.493 28c0 3.221 2.611 5.832 5.832 5.832 1.568 0 2.991-.619 4.039-1.625-.722-3.346-1.623-6.645-2.697-9.884-.431-.101-.88-.155-1.342-.155-3.221 0-5.832 2.611-5.832 5.832z" fill="url(#SVGID_12_)"/><path d="m91.693 125.417c-.671-.269-1.403-.417-2.17-.417-3.221 0-5.832 2.611-5.832 5.832 0 1.233.383 2.376 1.035 3.318 2.744-2.536 5.096-5.478 6.967-8.733z" fill="#785252"/><path d="m416.498 284.492-25.872 16.026 26.608 42.045-19.491 66.181h29.707l19.636-75.313z" fill="url(#SVGID_13_)"/><path d="m404.08 300.518 16.172-10.018-3.755-6.008-25.871 16.026 26.608 42.045-19.491 66.181h13.454l19.491-66.181z" fill="url(#SVGID_14_)"/><path d="m386.089 166.22c-25.282.937-45.811 21.672-46.517 46.962-.306 10.961 3.047 21.118 8.91 29.367l-.014.004 42.158 57.965c10.412 14.316 28.673 20.578 45.679 15.665v-101.621c0-27.328-22.66-49.364-50.216-48.342z" fill="url(#SVGID_15_)"/><path d="m404.08 300.518-42.158-57.965.014-.004c-5.863-8.249-9.216-18.406-8.91-29.367.66-23.629 18.626-43.277 41.604-46.521-2.78-.385-5.63-.549-8.54-.441-25.282.937-45.811 21.672-46.517 46.962-.306 10.961 3.047 21.118 8.91 29.367l-.014.004 42.157 57.965c9.412 12.94 25.237 19.298 40.752 16.772-10.726-1.737-20.625-7.597-27.298-16.772z" fill="url(#SVGID_16_)"/><path d="m392.661 385.847h9.869c7.168 0 12.978 5.81 12.978 12.978v9.919h-35.825v-9.919c.001-7.168 5.811-12.978 12.978-12.978z" fill="url(#SVGID_17_)"/><path d="m42.812 98.144c2.939-4.571 4.501-9.891 4.501-15.325v-.009c0-5.45-4.236-9.961-9.676-10.303-2.208-.139-4.319.929-5.515 2.79l-2.563 3.987z" fill="url(#SVGID_18_)"/><path d="m65.79 75.737h-18.107c-9.326 0-18.484 2.486-26.531 7.202-6.926 4.059-11.181 11.486-11.181 19.513v11.672h55.71l17.145-22.312z" fill="url(#SVGID_19_)"/><path d="m1.884 136.746 6.772 6.772c3.845 3.845 8.911 5.913 14.072 6.056l-.004.008h15.712l13.623-17.729h-52.05c-.094 1.777.549 3.567 1.875 4.893z" fill="url(#SVGID_20_)"/><path d="m9.972 114.124-9.023 14.708c-.575.938-.885 1.977-.94 3.02h52.05l13.623-17.729h-55.71z" fill="url(#SVGID_21_)"/><path d="m13.449 132.245c0 1.641-3.233 4.854-5.289 4.854s-5.289-3.212-5.289-4.854 2.368-2.972 5.289-2.972 5.289 1.331 5.289 2.972z" fill="url(#SVGID_22_)"/><path d="m96.549 89.223 2.589 2.589-11.97 25.76c-3.204 6.895-8.456 12.634-15.041 16.436l-22.171 12.8c-8.115 4.685-18.364 3.336-24.99-3.29l-6.772-6.772c-2.104-2.104-2.491-5.377-.935-7.913l9.023-14.708v-11.672c0-8.028 4.255-15.454 11.181-19.513 8.046-4.716 17.204-7.202 26.53-7.202 12.212 0 23.922 4.851 32.556 13.485z" fill="url(#SVGID_23_)"/><path d="m96.549 89.223 2.589 2.589-11.97 25.76c-3.204 6.895-8.456 12.634-15.041 16.436l-22.171 12.8c-8.115 4.685-18.364 3.336-24.99-3.29l-6.772-6.772c-2.104-2.104-2.491-5.377-.935-7.913l9.023-14.708v-11.672c0-8.028 4.255-15.454 11.181-19.513 8.046-4.716 17.204-7.202 26.53-7.202 12.212 0 23.922 4.851 32.556 13.485z" fill="url(#SVGID_23_)"/><path d="m92.318 98.144c2.939-4.571 4.501-9.891 4.501-15.325v-.009c0-5.45-4.236-9.961-9.676-10.303-2.208-.139-4.319.929-5.515 2.79l-2.563 3.987z" fill="url(#SVGID_25_)"/><path d="m89.035 91.748c.967 1.376 3.095 1.197 3.765-.346 1.234-2.843 1.879-5.921 1.879-9.047v-.007c0-4.37-3.397-7.987-7.758-8.261-1.771-.111-3.463.745-4.422 2.237l-.7 1.088c-.819 1.275-.786 2.919.086 4.159z" fill="url(#SVGID_26_)"/><path d="m151.214 333.309.064 75.435h26.551l5.351-47.348 12.629-78.851z" fill="url(#SVGID_27_)"/><path d="m151.278 408.744h14.378l-.099-92.513-14.343 17.078z" fill="url(#SVGID_28_)"/><path d="m144.37 386.45h9.609c6.979 0 12.636 5.657 12.636 12.636v9.658h-34.882v-9.658c.001-6.979 5.658-12.636 12.637-12.636z" fill="url(#SVGID_29_)"/><path d="m180.153 169.797c-16.226.445-28.952 14.166-28.952 30.398l.069 134.383 39.741-39.735c12.658-12.655 19.769-29.821 19.769-47.72v-47.548c0-16.73-13.792-30.24-30.627-29.778z" fill="url(#SVGID_30_)"/><path d="m164.035 200.195c0-14.327 9.916-26.691 23.4-29.703-2.337-.516-4.775-.763-7.282-.695-16.226.445-28.952 14.166-28.952 30.398l.069 134.383 12.828-12.826z" fill="url(#SVGID_31_)"/><path d="m63.27 105.071h-23.477c-1.412 0-2.709.778-3.375 2.023l-7.272 13.611c-1.131 2.117-1.012 4.682.309 6.686l6.056 9.18 3.483 13.001c3.228.096 6.495-.562 9.525-2.01l-15.022-22.77c-.905-1.372-1.006-3.123-.264-4.589l5.92-11.708c.288-.57.872-.929 1.511-.929h21.571l9.409 9.409c.974.974 2.554.974 3.529 0z" fill="url(#SVGID_32_)"/><path d="m259.231 439.505c138.663 0 251.072-13.772 251.072-30.76h-502.143c0 16.988 112.408 30.76 251.071 30.76z" fill="url(#SVGID_33_)"/></g></svg>