<svg id="Capa_1" enable-background="new 0 0 512 512" height="512" viewBox="0 0 512 512" width="512" xmlns="http://www.w3.org/2000/svg" xmlns:xlink="http://www.w3.org/1999/xlink"><radialGradient id="SVGID_1_" cx="456.51" cy="2357.774" gradientTransform="matrix(.931 0 0 .112 -161.706 88.183)" gradientUnits="userSpaceOnUse" r="260.849"><stop offset="0" stop-color="#c6d0da"/><stop offset=".5668" stop-color="#f6f9f9"/><stop offset=".93" stop-color="#fff"/></radialGradient><linearGradient id="lg1"><stop offset="0"/><stop offset=".2546" stop-color="#2d3134"/><stop offset=".5405" stop-color="#5a6168"/><stop offset=".7561" stop-color="#758089"/><stop offset=".8745" stop-color="#808b95"/></linearGradient><radialGradient id="SVGID_2_" cx="363.518" cy="290.476" fx="358.244" fy="304.456" gradientTransform="matrix(.762 -.648 .647 .76 -101.252 305.302)" gradientUnits="userSpaceOnUse" r="49.253" xlink:href="#lg1"/><radialGradient id="SVGID_3_" cx="433.396" cy="300.256" fx="423.773" fy="301.637" gradientTransform="matrix(.762 -.648 .647 .76 -90.912 352.943)" gradientUnits="userSpaceOnUse" r="40.108"><stop offset="0" stop-color="#4d5961"/><stop offset=".0393" stop-color="#525e66"/><stop offset=".3515" stop-color="#737f88"/><stop offset=".5206" stop-color="#808b95"/></radialGradient><radialGradient id="SVGID_4_" cx="416.204" cy="348.016" fx="400.631" fy="350.25" gradientTransform="matrix(.762 -.648 .647 .76 -125.917 353.253)" gradientUnits="userSpaceOnUse" r="64.906"><stop offset="0" stop-color="#b9c1cb"/><stop offset=".098" stop-color="#acb5bf"/><stop offset=".4557" stop-color="#808b95"/><stop offset=".95" stop-color="#5e6b75"/></radialGradient><linearGradient id="lg2"><stop offset=".223" stop-color="#4d5961"/><stop offset=".675" stop-color="#69757e"/><stop offset=".992" stop-color="#808b95"/></linearGradient><radialGradient id="SVGID_5_" cx="375.509" cy="217.938" fx="357.388" fy="220.388" gradientTransform="matrix(.991 .134 -.088 .648 22.451 26.403)" gradientUnits="userSpaceOnUse" r="98.429" xlink:href="#lg2"/><radialGradient id="SVGID_6_" cx="151.379" cy="290.726" fx="145.036" fy="307.543" gradientTransform="matrix(.762 -.648 .647 .76 -152.015 167.853)" gradientUnits="userSpaceOnUse" r="59.248" xlink:href="#lg1"/><radialGradient id="SVGID_7_" cx="185.85" cy="256.239" fx="177.163" fy="257.414" gradientTransform="matrix(.991 .134 -.088 .648 24.099 65.247)" gradientUnits="userSpaceOnUse" r="47.187" xlink:href="#lg2"/><radialGradient id="SVGID_8_" cx="467.019" cy="225.18" fx="457.746" fy="225.569" gradientTransform="matrix(.918 -.396 .639 1.483 -105.785 76.241)" gradientUnits="userSpaceOnUse" r="28.715"><stop offset=".22" stop-color="#4d5961"/><stop offset=".4198" stop-color="#525e66"/><stop offset=".6722" stop-color="#626d76"/><stop offset=".9519" stop-color="#7b8690"/><stop offset="1" stop-color="#808b95"/></radialGradient><linearGradient id="lg3"><stop offset="0" stop-color="#b9c1cb"/><stop offset=".5155" stop-color="#a0aab7"/><stop offset=".6215" stop-color="#99a4b0"/><stop offset=".7713" stop-color="#87929e"/><stop offset=".9464" stop-color="#697580"/><stop offset="1" stop-color="#5e6b75"/></linearGradient><radialGradient id="SVGID_9_" cx="271.246" cy="130.512" fx="208.355" fy="169.504" gradientTransform="matrix(.995 .096 -.064 .668 9.661 17.317)" gradientUnits="userSpaceOnUse" r="228.937" xlink:href="#lg3"/><radialGradient id="SVGID_10_" cx="177.888" cy="225.764" fx="181.917" fy="288.031" gradientTransform="matrix(.995 .096 -.064 .668 15.365 57.929)" gradientUnits="userSpaceOnUse" r="193.051"><stop offset=".0089" stop-color="#5e6b75"/><stop offset=".0601" stop-color="#68757f"/><stop offset=".2733" stop-color="#909ba5"/><stop offset=".4008" stop-color="#acb2bf"/><stop offset=".6405" stop-color="#dddaec"/><stop offset=".8652" stop-color="#a0aab7"/></radialGradient><radialGradient id="SVGID_11_" cx="146.976" cy="157.932" fx="120.802" fy="174.16" gradientTransform="matrix(.995 .096 -.064 .668 10.853 38.36)" gradientUnits="userSpaceOnUse" r="95.283" xlink:href="#lg3"/><radialGradient id="SVGID_12_" cx="202.007" cy="286.938" fx="195.76" fy="303.5" gradientTransform="matrix(.762 -.648 .647 .76 -137.488 199.762)" gradientUnits="userSpaceOnUse" r="58.35"><stop offset="0" stop-color="#4d5961"/><stop offset=".3569" stop-color="#75808a"/><stop offset=".6909" stop-color="#949eab"/><stop offset=".8745" stop-color="#a0aab7"/></radialGradient><radialGradient id="SVGID_13_" cx="229.311" cy="342.683" fx="221.648" fy="348.012" gradientTransform="matrix(.762 -.648 .647 .76 -167.046 230.831)" gradientUnits="userSpaceOnUse" r="38.51"><stop offset=".0498" stop-color="#c6d0da"/><stop offset=".2153" stop-color="#bcc6d0"/><stop offset="1" stop-color="#909ba5"/><stop offset="1" stop-color="#a0aab7"/></radialGradient><radialGradient id="SVGID_14_" cx="236.745" cy="238.279" fx="227.434" fy="239.408" gradientTransform="matrix(.997 .082 -.066 .8 16.479 28.348)" gradientUnits="userSpaceOnUse" r="50.484"><stop offset=".0436" stop-color="#909ba5"/><stop offset=".5331" stop-color="#9ba5b1"/><stop offset="1" stop-color="#a0aab7"/></radialGradient><radialGradient id="SVGID_15_" cx="206.642" cy="285.312" fx="204.931" fy="285.104" gradientTransform="matrix(.787 -.617 .499 .636 -98.246 231.377)" gradientUnits="userSpaceOnUse" r="32.708"><stop offset=".0394" stop-color="#dddaec"/><stop offset=".4421" stop-color="#c6d0da"/><stop offset=".6003" stop-color="#bec8d2"/><stop offset=".849" stop-color="#a7b1be"/><stop offset=".916" stop-color="#a0aab7"/></radialGradient><radialGradient id="SVGID_16_" cx="224.28" cy="211.758" fx="216.799" fy="212.634" gradientTransform="matrix(.787 -.617 .616 .786 -82.651 183.802)" gradientUnits="userSpaceOnUse" r="40.545"><stop offset=".0436" stop-color="#c6d0da"/><stop offset=".3264" stop-color="#b5bfcb"/><stop offset=".7039" stop-color="#a6b0bc"/><stop offset="1" stop-color="#a0aab7"/></radialGradient><radialGradient id="SVGID_17_" cx="206.67" cy="213.601" fx="204.444" fy="213.331" gradientTransform="matrix(.787 -.617 .499 .636 -62.48 205.288)" gradientUnits="userSpaceOnUse" r="42.548"><stop offset="0" stop-color="#dddaec"/><stop offset=".4104" stop-color="#dae4ea"/><stop offset=".7323" stop-color="#b7c1cb"/><stop offset=".9791" stop-color="#a0aab7"/></radialGradient><radialGradient id="SVGID_18_" cx="375.275" cy="244.849" fx="368.351" fy="253.879" gradientTransform="matrix(.972 .236 -.29 1.194 81.564 -135.975)" gradientUnits="userSpaceOnUse" r="65.851"><stop offset="0" stop-color="#b9c1cb"/><stop offset=".2274" stop-color="#aab3bf"/><stop offset=".4517" stop-color="#a0aab7"/><stop offset=".9117" stop-color="#86909b"/><stop offset="1" stop-color="#808b95"/></radialGradient><radialGradient id="SVGID_19_" cx="378.819" cy="243.543" fx="354.288" fy="282.876" gradientTransform="matrix(.787 -.617 .508 .648 -42.97 319.556)" gradientUnits="userSpaceOnUse" r="83.535"><stop offset=".0195" stop-color="#dae7ef"/><stop offset=".052" stop-color="#d7e4ec"/><stop offset=".2518" stop-color="#cad5df"/><stop offset=".4171" stop-color="#c6d0da"/><stop offset=".5569" stop-color="#aeb9c3"/><stop offset=".7836" stop-color="#8d98a2"/><stop offset=".9073" stop-color="#808b95"/></radialGradient><radialGradient id="SVGID_20_" cx="70.78" cy="200.206" gradientTransform="matrix(1 0 0 .911 0 17.92)" gradientUnits="userSpaceOnUse" r="44.114"><stop offset="0" stop-color="#dddaec"/><stop offset=".5084" stop-color="#c8ccd9"/><stop offset=".829" stop-color="#b9c1cb"/></radialGradient><radialGradient id="SVGID_21_" cx="32.726" cy="235.091" gradientTransform="matrix(.707 .707 -.644 .644 160.941 60.595)" gradientUnits="userSpaceOnUse" r="53.278"><stop offset="0" stop-color="#b9c1cb"/><stop offset=".4843" stop-color="#a4aeb8"/><stop offset=".8852" stop-color="#909ba5"/></radialGradient><radialGradient id="SVGID_22_" cx="111.129" cy="164.313" gradientTransform="matrix(.719 -.695 .491 .508 -49.403 158.051)" gradientUnits="userSpaceOnUse" r="30.775"><stop offset=".2689" stop-color="#808b95"/><stop offset="1" stop-color="#b9c1cb"/></radialGradient><radialGradient id="SVGID_23_" cx="80.162" cy="160.455" gradientTransform="matrix(1 0 0 .911 0 14.362)" gradientUnits="userSpaceOnUse" r="114.32"><stop offset="0" stop-color="#d0cee7"/><stop offset=".1309" stop-color="#c0c2d7"/><stop offset=".3285" stop-color="#aeb5c5"/><stop offset=".539" stop-color="#a3adba"/><stop offset=".7826" stop-color="#a0aab7"/></radialGradient><radialGradient id="SVGID_24_" cx="157.565" cy="234.626" gradientTransform="matrix(.719 -.695 .491 .508 -70.858 224.907)" gradientUnits="userSpaceOnUse" r="102.511"><stop offset="0" stop-color="#a0aab7"/><stop offset=".4281" stop-color="#9ea8b4"/><stop offset=".6822" stop-color="#96a0ac"/><stop offset=".8904" stop-color="#88939e"/><stop offset=".982" stop-color="#808b95"/></radialGradient><radialGradient id="SVGID_25_" cx="60.241" cy="219.503" gradientTransform="matrix(1 0 0 .911 0 19.647)" gradientUnits="userSpaceOnUse" r="35.499"><stop offset=".1026" stop-color="#a0aab7"/><stop offset=".7141" stop-color="#8b96a1"/><stop offset="1" stop-color="#808b95"/></radialGradient><radialGradient id="SVGID_26_" cx="143.359" cy="164.313" gradientTransform="matrix(.719 -.695 .491 .508 -40.358 180.439)" gradientUnits="userSpaceOnUse" r="30.775"><stop offset=".018" stop-color="#808b95"/><stop offset=".6647" stop-color="#a0aab7"/><stop offset="1" stop-color="#d0cee7"/></radialGradient><g><path d="m258.92 382.325c139.772 0 253.08-13.882 253.08-31.006h-506.16c0 17.124 113.308 31.006 253.08 31.006z" fill="url(#SVGID_1_)"/><path d="m392.38 300.735-9.707 36.228h-7.582c-6.607 0-11.963 5.356-11.963 11.963v2.393h38.162l12.049-44.967z" fill="url(#SVGID_2_)"/><path d="m439.635 300.735-9.707 36.228h-7.582c-6.607 0-11.963 5.356-11.963 11.963v2.393h38.162l12.049-44.967z" fill="url(#SVGID_3_)"/><path d="m433.085 336.963h7.582l8.988-33.543-10.02-2.685-9.707 36.228h-7.582c-6.607 0-11.963 5.356-11.963 11.963v2.393h10.74v-2.393c0-6.607 5.355-11.963 11.962-11.963z" fill="url(#SVGID_4_)"/><path d="m413.339 306.351-7.656-28.572c-3.297-12.304-2.834-25.264 1.019-37.405 1.307-4.119 1.913-8.551 1.676-13.155-.981-19.083-16.733-34.463-35.833-35.021-20.934-.611-38.097 16.177-38.097 36.974 0 15.956 10.103 29.552 24.261 34.741 5.729 2.1 10.178 6.703 11.757 12.597l2.25 8.398c4.463 16.658 21.585 26.543 38.243 22.08z" fill="url(#SVGID_5_)"/><path d="m187.496 291.984v44.979h-1.18c-6.607 0-11.963 5.356-11.963 11.963v2.393h38.153v-49.796z" fill="url(#SVGID_6_)"/><path d="m212.505 301.522h-15.87c-18.86 0-34.149-15.289-34.149-34.149v-14.435l50.019-3.254z" fill="url(#SVGID_7_)"/><path d="m460.594 266.464v-53.677l-6.252-6.678v54.103c-.001 3.452 2.798 6.252 6.252 6.252z" fill="url(#SVGID_8_)"/><path d="m134.383 157.62 8.317-7.353c7.874-12.99 17.898-20.592 33.088-20.592h1.411c7.324 0 14.384 2.73 19.803 7.656h25.971c11.107 0 21.883 3.78 30.556 10.718h33.655l29.976-10.083c7.928-2.667 16.446-3.049 24.581-1.103l15.113 3.615h31.433c39.934 0 72.307 32.373 72.307 72.307 0 16.467-13.349 29.816-29.816 29.816h-52.87l-15.072 12.238c-19.223 15.609-43.231 24.128-67.994 24.128-19.565 0-39.063-2.273-58.103-6.772l-33.74-7.973h-28.172c-3.469 0-6.281-2.812-6.281-6.281 0-2.077-1.684-3.761-3.761-3.761-1.032 0-2.031.365-2.821 1.031-.777.655-1.668 1.092-2.598 1.314-2.119.505-2.657-1.169-4.255-2.848l-12.693-10.406z" fill="url(#SVGID_9_)"/><path d="m191.103 258.104c-.052-2.071-1.638-3.896-3.709-3.921-1.041-.013-2.052.346-2.851 1.011-2.518 2.095-6.222 2.102-8.481-.271-11.878-7.235-19.126-20.137-19.126-34.044v-55.049c0-5.37 1.472-10.638 4.255-15.23 5.811-9.586 15.005-16.419 25.529-19.341-3.04-1.039-6.255-1.583-9.522-1.583h-1.411c-15.19 0-29.277 7.934-37.151 20.925l-4.255 7.02 8.038 85.652 10.665 11.206c2.26 2.374 6.373 2.858 8.875.74.79-.669 1.791-1.036 2.826-1.036 2.113 0 3.819 1.743 3.759 3.869-.097 3.45 2.975 6.172 6.426 6.172h22.41c-3.413-.001-6.192-2.726-6.277-6.12z" fill="url(#SVGID_10_)"/><path d="m158.286 160.643c-3.571-3.571-9.095-4.298-13.468-1.773l-9.787 5.651 7.39 78.751 10.916 11.469c1.598 1.679 3.913 2.29 6.032 1.785 2.718-6.085 4.135-12.691 4.135-19.392v-63.897c-.001-4.724-1.877-9.254-5.218-12.594z" fill="url(#SVGID_11_)"/><path d="m234.751 291.984v44.979h-1.18c-6.607 0-11.963 5.356-11.963 11.963v2.393h38.153v-49.796z" fill="url(#SVGID_12_)"/><path d="m243.236 336.963h1.18v-41.293l-9.666-3.686v44.979h-1.18c-6.607 0-11.963 5.356-11.963 11.963v2.393h9.666v-2.393c.001-6.607 5.356-11.963 11.963-11.963z" fill="url(#SVGID_13_)"/><path d="m259.76 301.522h-15.87c-18.86 0-34.149-15.289-34.149-34.149v-15.583l50.019-8.549z" fill="url(#SVGID_14_)"/><path d="m220.481 267.373v-17.419l-10.74 1.836v15.583c0 18.86 15.289 34.149 34.149 34.149h10.74c-18.86 0-34.149-15.289-34.149-34.149z" fill="url(#SVGID_15_)"/><path d="m261.738 243.24h-.799v-16.941c0-14.463-11.725-26.188-26.188-26.188-14.464 0-26.188 11.725-26.188 26.188v16.941h-.799c-2.361 0-4.275 1.914-4.275 4.275s1.914 4.275 4.275 4.275h53.975c2.361 0 4.275-1.914 4.275-4.275s-1.915-4.275-4.276-4.275z" fill="url(#SVGID_16_)"/><path d="m214.228 247.515c0-2.361 1.914-4.275 4.275-4.275h.799v-16.941c0-12.623 8.931-23.16 20.818-25.637-1.733-.361-3.529-.552-5.37-.552-14.464 0-26.188 11.725-26.188 26.188v16.941h-.799c-2.361 0-4.275 1.914-4.275 4.275s1.914 4.275 4.275 4.275h10.74c-2.361 0-4.275-1.913-4.275-4.274z" fill="url(#SVGID_17_)"/><path d="m460.594 306.351-7.656-28.572c-3.297-12.304-2.834-25.264 1.019-37.405 1.307-4.119 1.913-8.551 1.676-13.155-.981-19.083-16.733-34.463-35.833-35.021-20.934-.611-38.097 16.177-38.097 36.974 0 15.956 10.103 29.552 24.261 34.741 5.729 2.1 10.178 6.703 11.757 12.597l2.25 8.398c4.463 16.658 21.585 26.543 38.243 22.08z" fill="url(#SVGID_18_)"/><path d="m431.787 284.908-2.25-8.398c-1.579-5.894-6.029-10.497-11.758-12.597-14.158-5.189-24.261-18.785-24.261-34.741 0-18.413 13.454-33.683 31.068-36.518-1.566-.254-3.164-.409-4.785-.456-20.934-.611-38.096 16.177-38.096 36.974 0 15.956 10.103 29.552 24.261 34.741 5.729 2.1 10.178 6.703 11.758 12.597l2.25 8.398c4.268 15.928 20.11 25.664 36.053 22.584-11.359-2.202-21.044-10.657-24.24-22.584z" fill="url(#SVGID_19_)"/><path d="m136.267 188.882-54.113 9.315-37.318 37.318 70.493 17.423z" fill="url(#SVGID_20_)"/><path d="m44.836 235.515-12.606-13.107h-32.23c0 4.515 1.793 8.845 4.986 12.037l36.702 36.702 2.598 9.696c2.245 8.38 9.887 13.515 17.837 13.3l-.003.007h31.783l21.426-58.635z" fill="url(#SVGID_21_)"/><path d="m117.207 156.484-6.736 16.896-6.736-16.896c-3.275-8.214-1.345-17.589 4.908-23.842l1.829-1.829 1.829 1.829c6.251 6.253 8.18 15.628 4.906 23.842z" fill="url(#SVGID_22_)"/><path d="m112.937 152.375-.001.003c-1.835.037-3.676.527-5.348 1.492l-13.715 7.918c-7.252 4.187-11.72 11.925-11.72 20.299v16.109h46.812l16.744-45.822h-32.772z" fill="url(#SVGID_23_)"/><path d="m139.818 153.87-13.715 7.918c-7.252 4.187-11.72 11.925-11.72 20.3v16.109l-36.839 36.839c-15.357 0-30.443-4.042-43.742-11.721l-1.572-.908c0 4.515 1.793 8.845 4.986 12.037l36.702 36.702 2.598 9.695c3.053 11.394 16.083 16.791 26.298 10.893l31.916-18.426c7.228-4.173 13.23-10.175 17.403-17.403 4.173-7.228 6.37-15.427 6.37-23.773v-63.897c0-4.724-1.876-9.254-5.217-12.594-3.57-3.569-9.095-4.296-13.468-1.771z" fill="url(#SVGID_24_)"/><path d="m70.12 230.044c-4.054-4.054-6.969-9.104-8.453-14.641l-1.726-6.442 25.611 5.652c-.001 8.523-6.909 15.431-15.432 15.431z" fill="url(#SVGID_25_)"/><path d="m149.436 156.484-6.736 16.896-6.736-16.896c-3.275-8.214-1.345-17.589 4.908-23.842l1.829-1.829 1.829 1.829c6.251 6.253 8.181 15.628 4.906 23.842z" fill="url(#SVGID_26_)"/></g></svg>