<svg id="Capa_1" enable-background="new 0 0 512 512" height="512" viewBox="0 0 512 512" width="512" xmlns="http://www.w3.org/2000/svg" xmlns:xlink="http://www.w3.org/1999/xlink"><radialGradient id="SVGID_1_" cx="444.658" cy="224.346" gradientTransform="matrix(.125 .992 -.65 .082 534.806 -235.181)" gradientUnits="userSpaceOnUse" r="30.749"><stop offset=".5031" stop-color="#efc89d"/><stop offset=".8565" stop-color="#f4d8bc"/></radialGradient><linearGradient id="lg1"><stop offset="0" stop-color="#868086"/><stop offset=".4839" stop-color="#999299"/><stop offset=".9207" stop-color="#a59da5"/></linearGradient><radialGradient id="SVGID_2_" cx="270.833" cy="452.726" gradientTransform="matrix(-.872 -.403 -.323 .771 560.345 213.001)" gradientUnits="userSpaceOnUse" r="22.19" xlink:href="#lg1"/><radialGradient id="SVGID_3_" cx="34.777" cy="452.721" gradientTransform="matrix(-.872 -.403 -.323 .771 579.416 117.855)" gradientUnits="userSpaceOnUse" r="24.257" xlink:href="#lg1"/><linearGradient id="SVGID_4_" gradientUnits="userSpaceOnUse" x1="176.696" x2="204.457" y1="401.432" y2="340.109"><stop offset=".0105" stop-color="#f4d8bc"/><stop offset=".4018" stop-color="#f4d7ba"/><stop offset=".5427" stop-color="#f3d3b3"/><stop offset=".6431" stop-color="#f1cda8"/><stop offset=".7238" stop-color="#efc497"/><stop offset=".7926" stop-color="#ecb881"/><stop offset=".7957" stop-color="#ecb780"/></linearGradient><linearGradient id="lg2"><stop offset=".1652" stop-color="#ecb780"/><stop offset=".268" stop-color="#edbc89"/><stop offset=".4341" stop-color="#f0c9a1"/><stop offset=".5846" stop-color="#f4d8bc"/></linearGradient><radialGradient id="SVGID_5_" cx="171.788" cy="294.853" gradientTransform="matrix(1 0 0 .614 0 113.898)" gradientUnits="userSpaceOnUse" r="84.991" xlink:href="#lg2"/><linearGradient id="SVGID_6_" gradientTransform="matrix(.889 0 0 .866 41.202 -473.059)" gradientUnits="userSpaceOnUse" x1="425.502" x2="344.952" y1="1004.465" y2="963.492"><stop offset=".0105" stop-color="#f4d8bc"/><stop offset=".3077" stop-color="#f4d6b9"/><stop offset=".5411" stop-color="#f2d1af"/><stop offset=".7528" stop-color="#f0c89e"/><stop offset=".9506" stop-color="#edbb87"/><stop offset="1" stop-color="#ecb780"/></linearGradient><radialGradient id="SVGID_7_" cx="-151.272" cy="378.569" gradientTransform="matrix(.966 -.259 .159 .593 439.087 40.106)" gradientUnits="userSpaceOnUse" r="107.594" xlink:href="#lg2"/><radialGradient id="SVGID_8_" cx="229.435" cy="162.703" gradientTransform="matrix(.989 .15 -.098 .647 18.532 23.039)" gradientUnits="userSpaceOnUse" r="297.172"><stop offset="0" stop-color="#ffead8"/><stop offset=".4222" stop-color="#ffe4ce"/><stop offset=".5107" stop-color="#ffe2cb"/><stop offset=".8565" stop-color="#f4d8bc"/></radialGradient><radialGradient id="SVGID_9_" cx="263.774" cy="187.707" gradientTransform="matrix(.989 .15 -.098 .647 21.369 26.717)" gradientUnits="userSpaceOnUse" r="281.999"><stop offset="0" stop-color="#b48e84"/><stop offset=".3439" stop-color="#ac847a"/><stop offset=".5107" stop-color="#a77d73"/><stop offset=".7349" stop-color="#8e665d"/><stop offset=".9433" stop-color="#734d45"/></radialGradient><radialGradient id="SVGID_10_" cx="110.392" cy="272.137" gradientTransform="matrix(.849 .528 -.346 .556 110.821 62.548)" gradientUnits="userSpaceOnUse" r="89.276"><stop offset="0" stop-color="#ffe2cb"/><stop offset=".1154" stop-color="#e9c8b5"/><stop offset=".322" stop-color="#c59f91"/><stop offset=".4855" stop-color="#af867b"/><stop offset=".5843" stop-color="#a77d73"/><stop offset=".7208" stop-color="#a1776d"/><stop offset=".9057" stop-color="#90675d"/><stop offset="1" stop-color="#845c52"/></radialGradient><radialGradient id="SVGID_11_" cx="98.247" cy="231.142" gradientTransform="matrix(.813 -.582 .445 .621 -84.398 144.919)" gradientUnits="userSpaceOnUse" r="47.192"><stop offset="0" stop-color="#845c52"/><stop offset=".4541" stop-color="#9d7369"/><stop offset=".7438" stop-color="#a77d73"/></radialGradient><radialGradient id="SVGID_12_" cx="214.209" cy="184.101" gradientTransform="matrix(-.813 -.582 -.459 .641 327.752 190.924)" gradientUnits="userSpaceOnUse" r="21.318"><stop offset=".4324" stop-color="#845c52"/><stop offset=".6221" stop-color="#886056"/><stop offset=".8189" stop-color="#956c62"/><stop offset="1" stop-color="#a77d73"/></radialGradient><radialGradient id="SVGID_13_" cx="48.223" cy="54.514" gradientTransform="matrix(.947 -.32 .242 .717 -10.67 30.842)" gradientUnits="userSpaceOnUse" r="190.652"><stop offset="0" stop-color="#e2dfe2"/><stop offset=".2227" stop-color="#c6c1c6"/><stop offset=".4657" stop-color="#aea7ae"/><stop offset=".61" stop-color="#a59da5"/><stop offset=".8261" stop-color="#8f888f"/><stop offset=".8986" stop-color="#868086"/></radialGradient><radialGradient id="SVGID_14_" cx="52.764" cy="174.486" gradientUnits="userSpaceOnUse" r="26.645"><stop offset="0" stop-color="#ffdace"/><stop offset=".2096" stop-color="#f3cdc2"/><stop offset=".5931" stop-color="#d2aca1"/><stop offset=".8903" stop-color="#b48e84"/></radialGradient><radialGradient id="SVGID_15_" cx="27.499" cy="184.531" gradientUnits="userSpaceOnUse" r="48.586"><stop offset="0" stop-color="#ffdace"/><stop offset=".1547" stop-color="#f9d4c8"/><stop offset=".3641" stop-color="#eac3b7"/><stop offset=".6049" stop-color="#d0a69b"/><stop offset=".867" stop-color="#ac7f74"/><stop offset=".9955" stop-color="#98695e"/></radialGradient><radialGradient id="SVGID_16_" cx="67.779" cy="163.315" gradientUnits="userSpaceOnUse" r="26.663"><stop offset="0" stop-color="#ffdace"/><stop offset=".3979" stop-color="#e9c5bb"/><stop offset=".9955" stop-color="#c1a098"/></radialGradient><linearGradient id="lg3"><stop offset="0" stop-color="#868086"/><stop offset=".5255" stop-color="#999299"/><stop offset="1" stop-color="#a59da5"/></linearGradient><radialGradient id="SVGID_17_" cx="226.312" cy="452.726" gradientTransform="matrix(-.872 -.403 -.323 .771 563.942 195.057)" gradientUnits="userSpaceOnUse" r="22.19" xlink:href="#lg3"/><linearGradient id="lg4"><stop offset="0" stop-color="#efecef"/><stop offset=".3307" stop-color="#dfdae0"/><stop offset=".9884" stop-color="#b5adb8"/><stop offset="1" stop-color="#b4acb7"/></linearGradient><radialGradient id="SVGID_18_" cx="194.523" cy="440.205" gradientTransform="matrix(-.862 -.506 .312 -.532 224.742 772.901)" gradientUnits="userSpaceOnUse" r="20.826" xlink:href="#lg4"/><radialGradient id="SVGID_19_" cx="-9.744" cy="452.721" gradientTransform="matrix(-.872 -.403 -.323 .771 583.013 99.91)" gradientUnits="userSpaceOnUse" r="24.257" xlink:href="#lg3"/><radialGradient id="SVGID_20_" cx="417.21" cy="440.166" gradientTransform="matrix(-.862 -.506 .312 -.532 639.469 885.601)" gradientUnits="userSpaceOnUse" r="20.883" xlink:href="#lg4"/><linearGradient id="SVGID_21_" gradientUnits="userSpaceOnUse" x1="219.1" x2="246.861" y1="401.432" y2="340.109"><stop offset=".0105" stop-color="#ffe2cb"/><stop offset=".3846" stop-color="#ffe1c9"/><stop offset=".5194" stop-color="#fdddc2"/><stop offset=".6155" stop-color="#fad6b7"/><stop offset=".6931" stop-color="#f6cda6"/><stop offset=".7588" stop-color="#f0c090"/><stop offset=".7957" stop-color="#ecb780"/></linearGradient><linearGradient id="SVGID_22_" gradientUnits="userSpaceOnUse" x1="213.221" x2="213.221" y1="372.629" y2="437.32"><stop offset=".3136" stop-color="#ffe2cb"/><stop offset=".9252" stop-color="#fff6df"/><stop offset="1" stop-color="#fff9e2"/></linearGradient><radialGradient id="SVGID_23_" cx="220.909" cy="271.342" gradientTransform="matrix(.703 -.712 .549 .542 -83.18 281.508)" gradientUnits="userSpaceOnUse" r="84.991"><stop offset=".3067" stop-color="#ffead8"/><stop offset=".5235" stop-color="#ffe5cf"/><stop offset=".595" stop-color="#ffe2cb"/></radialGradient><radialGradient id="SVGID_24_" cx="193.601" cy="286.653" gradientTransform="matrix(.649 -.761 .616 .526 -108.547 283.263)" gradientUnits="userSpaceOnUse" r="81.913"><stop offset=".1103" stop-color="#fff9e2"/><stop offset=".5706" stop-color="#ffead8"/><stop offset=".801" stop-color="#ffe8d4"/><stop offset=".9858" stop-color="#ffe2cb"/></radialGradient><linearGradient id="SVGID_25_" gradientTransform="matrix(.889 0 0 .866 41.202 -473.059)" gradientUnits="userSpaceOnUse" x1="458.744" x2="390.376" y1="996.656" y2="967.232"><stop offset=".0654" stop-color="#f4d8bc"/><stop offset=".2866" stop-color="#f3d4b4"/><stop offset=".627" stop-color="#efc99f"/><stop offset=".6483" stop-color="#efc89d"/></linearGradient><linearGradient id="SVGID_26_" gradientUnits="userSpaceOnUse" x1="435.616" x2="435.616" y1="437.351" y2="349.83"><stop offset=".1585" stop-color="#ffead8"/><stop offset=".4349" stop-color="#f7ddc4"/><stop offset=".6223" stop-color="#f4d8bc"/><stop offset=".7297" stop-color="#f2d1af"/><stop offset=".9259" stop-color="#eebf8e"/><stop offset="1" stop-color="#ecb780"/></linearGradient><radialGradient id="SVGID_27_" cx="-141.398" cy="374.064" gradientTransform="matrix(.471 -.882 .68 .363 173.611 36.211)" gradientUnits="userSpaceOnUse" r="130.53"><stop offset="0" stop-color="#ffead8"/><stop offset=".4239" stop-color="#ffe2cb"/><stop offset=".6605" stop-color="#f9dcc3"/><stop offset=".7837" stop-color="#f4d8bc"/></radialGradient><radialGradient id="SVGID_28_" cx="316.136" cy="291.882" gradientTransform="matrix(.649 -.761 .616 .526 -68.791 378.939)" gradientUnits="userSpaceOnUse" r="136.577"><stop offset=".2068" stop-color="#fff9e2"/><stop offset=".2435" stop-color="#fff7e1"/><stop offset=".5589" stop-color="#ffead8"/><stop offset=".9087" stop-color="#ffe2cb"/></radialGradient><radialGradient id="SVGID_29_" cx="90.534" cy="217.584" gradientTransform="matrix(.813 -.582 .318 .444 -52.297 173.684)" gradientUnits="userSpaceOnUse" r="80.027"><stop offset=".4036" stop-color="#a77d73"/><stop offset=".603" stop-color="#a3796f"/><stop offset=".8098" stop-color="#966d63"/><stop offset="1" stop-color="#845c52"/></radialGradient><radialGradient id="SVGID_30_" cx="76.738" cy="54.514" gradientTransform="matrix(.947 -.32 .242 .717 -9.171 39.965)" gradientUnits="userSpaceOnUse" r="190.652"><stop offset="0" stop-color="#f9f6f9"/><stop offset=".1714" stop-color="#e6e2e7"/><stop offset=".4467" stop-color="#ccc8cf"/><stop offset=".61" stop-color="#c3bec6"/><stop offset=".8144" stop-color="#afa8b0"/><stop offset=".8986" stop-color="#a59da5"/></radialGradient><radialGradient id="SVGID_31_" cx="118.485" cy="181.666" gradientTransform="matrix(.813 -.582 .459 .641 -61.218 134.295)" gradientUnits="userSpaceOnUse" r="21.318"><stop offset=".4324" stop-color="#a77d73"/><stop offset=".6168" stop-color="#aa8177"/><stop offset=".8083" stop-color="#b38d84"/><stop offset="1" stop-color="#c1a098"/></radialGradient><radialGradient id="SVGID_32_" cx="6.497" cy="687.091" gradientTransform="matrix(.762 -.571 .647 .669 -443.054 -247.768)" gradientUnits="userSpaceOnUse" r="19.906"><stop offset="0" stop-color="#d0cee7"/><stop offset=".3128" stop-color="#a19dae"/><stop offset=".5922" stop-color="#756e78"/><stop offset="1" stop-color="#665e66"/></radialGradient><radialGradient id="SVGID_33_" cx="374.678" cy="2915.829" gradientTransform="matrix(.931 0 0 .112 -75.044 129.01)" gradientUnits="userSpaceOnUse" r="242.33"><stop offset="0" stop-color="#f4d8bc"/><stop offset=".0882" stop-color="#f6dcc2"/><stop offset=".4962" stop-color="#ffead8"/><stop offset=".8982" stop-color="#fff"/></radialGradient><g><ellipse cx="444.919" cy="228.377" fill="url(#SVGID_1_)" rx="19.499" ry="22.07"/><path d="m155.075 454.509h24.993v-14.234h-14.148c-2.162 0-4.144 1.209-5.133 3.132z" fill="url(#SVGID_2_)"/><path d="m377.771 454.509h27.334v-14.273h-16.46c-2.168 0-4.155 1.212-5.147 3.14z" fill="url(#SVGID_3_)"/><path d="m165.92 440.275h13.686c5.464 0 9.893-4.429 9.893-9.893v-79.863l-23.579 15.343z" fill="url(#SVGID_4_)"/><path d="m221.047 271.839c0-15.48-12.762-27.98-28.338-27.553-15.013.412-26.789 13.107-26.789 28.126v93.45c9.321 0 17.906-5.067 22.411-13.227l1.168-2.116 18.544-52.859c.639-1.821 1.704-3.483 3.181-4.726 6.007-5.056 9.823-12.63 9.823-21.095z" fill="url(#SVGID_5_)"/><path d="m388.645 440.237h15.675c5.479 0 9.92-4.441 9.92-9.92v-95.512l-18.795-6.209-6.799 20.986v90.655z" fill="url(#SVGID_6_)"/><path d="m414.239 334.805-22.432-47.301c-2.251-4.746-3.229-10.048-2.489-15.248.815-5.724.38-11.734-1.518-17.658-6.057-18.902-25.631-30.497-45.111-26.691-22.716 4.439-36.56 27.052-30.672 49.027 2.074 7.74 6.308 14.325 11.879 19.28l64.747 60.737c8.445-2.263 15.783-7.512 20.652-14.774z" fill="url(#SVGID_7_)"/><path d="m441.581 202.622c-13.286-13.286-31.306-20.75-50.096-20.75h-93.468l-3.863-1.035c-15.356-4.115-31.184-6.198-47.082-6.198-13.259 0-25.975 5.267-35.351 14.643l-13.228 3.731c-4.55 1.283-9.181 2.093-13.824 2.438l-20.609 69.509 52.955 47.772c7.137.558 14.298.838 21.469.838h120.196c34.396 0 66.18-18.35 83.378-48.138l6.344-10.989c9.716-16.829 6.918-38.083-6.821-51.821z" fill="url(#SVGID_8_)"/><path d="m184.67 244.349v-48.899c-13.924 1.035-27.957-2.107-40.233-9.195l-20.043-11.572-34.804 55.923 20.162 28.829c11.909 20.628 29.745 35.182 52.752 41.347l5.465.951c16.335 4.377 32.215 9.682 49.045 10.997l-6.864-6.864c-16.314-16.315-25.48-38.444-25.48-61.517z" fill="url(#SVGID_9_)"/><path d="m189.15 304.178-5.586-1.497c-23.007-6.165-42.623-21.216-54.533-41.844l-28.035-48.558-11.406 18.327 17.454 30.23c11.909 20.628 31.525 35.68 54.533 41.844l5.586 1.497c16.335 4.377 33.023 7.237 49.853 8.552l-3.129-3.129c-8.317-1.425-16.571-3.234-24.737-5.422z" fill="url(#SVGID_10_)"/><path d="m122.132 178.473c-.031-.003-.061-.006-.092-.009l-32.45 52.142 8.064 13.968c9.711-2.47 17.907-9.368 21.883-18.894l12.536-30.037c3.173-7.602-1.743-16.367-9.941-17.17z" fill="url(#SVGID_11_)"/><path d="m69.409 189.163c-5.745-3.317-9.284-9.446-9.284-16.08v-9.832c0-3.126 3.779-4.691 5.989-2.481l10.239 10.239c2.624 2.624 3.669 6.438 2.748 10.034l-1.161 4.531c-.955 3.725-5.201 5.511-8.531 3.589z" fill="url(#SVGID_12_)"/><path d="m181.857 86.289c-2.671-2.176-5.478-4.183-8.403-6.007 5.168-6.544 7.973-14.578 7.973-23.042v-28.554c-4.337 0-7.853 3.516-7.853 7.853v20.701c0 7.514-2.8 14.597-7.899 20.056h-18.444c-2.397 0-4.737.445-6.918 1.274l-7.068-7.068c-6.899-6.899-10.774-16.255-10.774-26.011v-6.433c0-4.337-3.516-7.853-7.853-7.853v14.283c0 11.839 4.703 23.194 13.075 31.565l5.85 5.85c-1.244 1.22-2.334 2.615-3.225 4.159l-22.306 38.634-5.043-5.043c-6.665-6.665-10.409-15.704-10.409-25.13v-20.173c0-4.337-3.516-7.853-7.853-7.853v28.024c0 11.509 4.572 22.546 12.71 30.684l6.297 6.297c-4.525 6.193-10.312 11.405-16.982 15.256l-13.475 7.782c-1.035.597-1.973 1.322-2.799 2.148-2.538-2.657-6.114-4.315-10.07-4.315h-25.487c-3.376 0-6.728-1.077-9.26-3.311-2.912-2.569-4.528-6.164-4.528-10.007v-8.728c0-4.337-3.516-7.853-7.853-7.853v16.054c0 5.048 1.573 10.041 4.784 13.936 4.107 4.982 10.033 7.76 16.386 7.76h25.958c3.356 0 6.077 2.721 6.077 6.077v6.173c0 2.168 1.758 3.926 3.926 3.926 2.168 0 3.926-1.758 3.926-3.926v-6.173c0-2.047 1.092-3.938 2.864-4.961l13.478-7.783c9.573-5.526 17.556-13.509 23.085-23.084l23.375-40.487c2.087-3.614 5.943-5.84 10.116-5.84h19.04l.871.503c5.609 3.239 10.77 7.199 15.35 11.779 3.153-3.156 2.822-8.319-.639-11.139z" fill="url(#SVGID_13_)"/><path d="m57.716 177.292c-6.507 2.049-12.441 5.62-17.278 10.456l-4.372 4.372 53.524 12.279 9.374-33.673z" fill="url(#SVGID_14_)"/><path d="m92.451 192.12h-56.385l-28.916 16.695c-4.381 2.529-7.096 7.182-7.149 12.232v.001c-.059 5.653 4.674 10.28 10.327 10.28h21.33c4.092 4.092 9.642 6.391 15.429 6.391h34.741l10.623-26.188-4.633.477z" fill="url(#SVGID_15_)"/><path d="m98.965 164.161h-26.15c-6.893.024-12.869 4.81-14.653 11.468l-.445 1.663h38.189z" fill="url(#SVGID_16_)"/><path d="m197.479 454.509h24.993v-14.234h-14.149c-2.162 0-4.144 1.209-5.133 3.132z" fill="url(#SVGID_17_)"/><path d="m216.505 440.275h-8.181c-2.163 0-4.144 1.209-5.133 3.132l-5.712 11.102h8.181l5.712-11.102c.989-1.923 2.97-3.132 5.133-3.132z" fill="url(#SVGID_18_)"/><path d="m420.174 454.509h27.334v-14.273h-16.46c-2.168 0-4.155 1.212-5.147 3.14z" fill="url(#SVGID_19_)"/><path d="m439.252 440.237h-8.203c-2.168 0-4.155 1.212-5.147 3.14l-5.727 11.132h8.203l5.727-11.132c.992-1.929 2.978-3.14 5.147-3.14z" fill="url(#SVGID_20_)"/><path d="m208.324 440.275h13.686c5.464 0 9.893-4.429 9.893-9.893v-79.863l-23.579 15.343z" fill="url(#SVGID_21_)"/><path d="m218.118 359.489-9.794 6.373v74.413h9.794z" fill="url(#SVGID_22_)"/><path d="m263.451 271.839c0-15.48-12.762-27.98-28.338-27.553-15.013.412-26.789 13.107-26.789 28.126v93.45c9.321 0 17.906-5.067 22.411-13.227l1.168-2.116 18.544-52.859c.639-1.821 1.704-3.483 3.181-4.726 6.006-5.056 9.823-12.63 9.823-21.095z" fill="url(#SVGID_23_)"/><path d="m218.029 272.383c0-13.64 9.723-25.329 22.732-27.678-1.781-.318-3.62-.465-5.501-.423-15.067.336-26.936 13.03-26.936 28.1v93.48h.102c5.339-.021 9.604-4.479 9.604-9.819v-83.66z" fill="url(#SVGID_24_)"/><path d="m431.048 440.237h15.675c5.479 0 9.92-4.441 9.92-9.92v-95.512l-18.795-6.209-6.799 20.986v90.655z" fill="url(#SVGID_25_)"/><path d="m440.184 329.368-2.337-.772-6.799 20.986v90.655h8.929v-110.091z" fill="url(#SVGID_26_)"/><path d="m456.643 334.805-22.432-47.301c-2.251-4.746-3.229-10.048-2.489-15.248.815-5.724.38-11.734-1.518-17.658-6.057-18.902-25.631-30.497-45.111-26.691-22.716 4.439-36.56 27.052-30.672 49.027 2.074 7.74 6.308 14.325 11.879 19.28l64.747 60.737c8.445-2.263 15.783-7.512 20.652-14.774z" fill="url(#SVGID_27_)"/><path d="m379.217 296.213c-5.571-4.955-9.805-11.539-11.879-19.28-5.745-21.439 7.293-43.486 29.026-48.67.958-.229 1.917-.421 2.873-.578-5.089-.844-10.437-.699-15.791.578-21.733 5.185-34.77 27.231-29.026 48.67 2.074 7.74 6.308 14.325 11.879 19.28l64.747 60.737c3.156-.846 6.157-2.109 8.933-3.737z" fill="url(#SVGID_28_)"/><path d="m114.28 170.62c-.054-.005-.107-.01-.161-.015l-.336-.336c-3.928-3.928-9.261-6.127-14.818-6.108-6.893.024-12.869 4.81-14.653 11.468l-.445 1.663c-6.507 2.049-12.441 5.62-17.278 10.456l-4.372 4.372-28.917 16.695c-4.381 2.529-7.096 7.183-7.149 12.234-.059 5.653 4.674 10.28 10.327 10.28h21.33c4.092 4.092 9.642 6.391 15.429 6.391h8.592c13.054 0 24.83-7.845 29.858-19.892l12.536-30.037c3.171-7.602-1.746-16.368-9.943-17.171z" fill="url(#SVGID_29_)"/><path d="m210.372 86.289c-2.671-2.176-5.478-4.183-8.403-6.007 5.168-6.544 7.973-14.578 7.973-23.042v-28.554c-4.337 0-7.853 3.516-7.853 7.853v20.701c0 7.514-2.8 14.597-7.899 20.056h-18.444c-2.397 0-4.737.445-6.918 1.274l-7.068-7.068c-6.899-6.899-10.774-16.255-10.774-26.011v-6.433c0-4.337-3.516-7.853-7.853-7.853v14.283c0 11.839 4.703 23.194 13.075 31.565l5.85 5.85c-1.244 1.22-2.334 2.615-3.225 4.159l-22.306 38.634-5.043-5.043c-6.665-6.665-10.409-15.704-10.409-25.13v-20.173c0-4.337-3.516-7.853-7.853-7.853v28.024c0 11.509 4.572 22.546 12.71 30.684l6.297 6.297c-4.525 6.193-10.312 11.405-16.982 15.256l-13.475 7.782c-1.035.597-1.973 1.322-2.799 2.148-2.538-2.657-6.114-4.315-10.07-4.315h-25.487c-3.376 0-6.728-1.077-9.26-3.311-2.912-2.569-4.528-6.164-4.528-10.007v-8.728c0-4.337-3.516-7.853-7.853-7.853v16.054c0 5.048 1.573 10.041 4.784 13.936 4.107 4.982 10.033 7.76 16.386 7.76h25.958c3.356 0 6.077 2.721 6.077 6.077v6.173c0 2.168 1.758 3.926 3.926 3.926 2.168 0 3.926-1.758 3.926-3.926v-6.173c0-2.047 1.092-3.938 2.864-4.961l13.478-7.783c9.573-5.526 17.556-13.509 23.085-23.084l23.375-40.487c2.087-3.614 5.943-5.84 10.116-5.84h19.04l.871.503c5.609 3.239 10.77 7.199 15.35 11.779 3.152-3.156 2.822-8.319-.639-11.139z" fill="url(#SVGID_30_)"/><path d="m118.195 186.728c5.745-3.317 9.284-9.446 9.284-16.08v-9.832c0-3.126-3.779-4.691-5.989-2.481l-10.239 10.239c-2.624 2.624-3.669 6.438-2.748 10.034l1.161 4.531c.955 3.725 5.201 5.511 8.531 3.589z" fill="url(#SVGID_31_)"/><path d="m22.232 216.105c0 2.681-5.281 7.928-8.639 7.928s-8.639-5.247-8.639-7.928 3.868-4.854 8.639-4.854 8.639 2.173 8.639 4.854z" fill="url(#SVGID_32_)"/><path d="m276.887 483.314c129.849 0 235.113-12.896 235.113-28.805h-470.226c0 15.909 105.264 28.805 235.113 28.805z" fill="url(#SVGID_33_)"/></g></svg>