<svg id="Capa_1" enable-background="new 0 0 512 512" height="512" viewBox="0 0 512 512" width="512" xmlns="http://www.w3.org/2000/svg" xmlns:xlink="http://www.w3.org/1999/xlink"><radialGradient id="SVGID_1_" cx="351.974" cy="3337.323" gradientTransform="matrix(.931 0 0 .112 -75.044 100.73)" gradientUnits="userSpaceOnUse" r="263.858"><stop offset="0" stop-color="#ceb4af"/><stop offset=".1849" stop-color="#d8c3bf"/><stop offset=".4962" stop-color="#e7d8d5"/><stop offset=".8982" stop-color="#fff"/></radialGradient><radialGradient id="SVGID_2_" cx="183.041" cy="135.944" gradientTransform="matrix(.777 -.629 .587 .725 -39.001 152.62)" gradientUnits="userSpaceOnUse" r="120.518"><stop offset="0" stop-color="#a77d73"/><stop offset=".1797" stop-color="#9b7167"/><stop offset=".5581" stop-color="#845c52"/><stop offset=".8265" stop-color="#675a57"/><stop offset="1" stop-color="#595959"/></radialGradient><radialGradient id="SVGID_3_" cx="246.967" cy="90.524" gradientTransform="matrix(-.705 -.71 .708 -.703 356.842 329.451)" gradientUnits="userSpaceOnUse" r="97.006"><stop offset="0" stop-color="#f1d0d5"/><stop offset=".2984" stop-color="#f0cdd2"/><stop offset=".5139" stop-color="#edc4ca"/><stop offset=".7032" stop-color="#e8b4bb"/><stop offset=".8765" stop-color="#e19ea6"/><stop offset="1" stop-color="#da8993"/></radialGradient><radialGradient id="SVGID_4_" cx="130.362" cy="135.944" gradientTransform="matrix(.777 -.629 .587 .725 -50.744 119.464)" gradientUnits="userSpaceOnUse" r="120.518"><stop offset="0" stop-color="#98695e"/><stop offset=".1978" stop-color="#8a5e54"/><stop offset=".5581" stop-color="#734d45"/><stop offset=".6832" stop-color="#6e4c45"/><stop offset=".8226" stop-color="#614a45"/><stop offset=".9683" stop-color="#4b4645"/><stop offset="1" stop-color="#454545"/></radialGradient><radialGradient id="SVGID_5_" cx="161.449" cy="467.854" gradientTransform="matrix(0 -1 .771 0 -199.292 629.303)" gradientUnits="userSpaceOnUse" r="129.119"><stop offset=".2878" stop-color="#845c52"/><stop offset=".8986" stop-color="#734d45"/></radialGradient><radialGradient id="SVGID_6_" cx="326.085" cy="402.448" gradientTransform="matrix(.5 .866 -1.111 .64 610.2 -137.746)" gradientUnits="userSpaceOnUse" r="88.93"><stop offset=".1364" stop-color="#66453d"/><stop offset=".5152" stop-color="#6f4a42"/><stop offset="1" stop-color="#734d45"/></radialGradient><radialGradient id="SVGID_7_" cx="420.028" cy="388.813" gradientTransform="matrix(.989 .15 -.098 .647 42.84 74.255)" gradientUnits="userSpaceOnUse" r="79.023"><stop offset="0" stop-color="#b4aaaa"/><stop offset=".1957" stop-color="#c1b7b6"/><stop offset=".5573" stop-color="#e3d8d4"/><stop offset=".62" stop-color="#eadfda"/><stop offset=".7678" stop-color="#ece2de"/><stop offset=".9013" stop-color="#f2ebe9"/><stop offset="1" stop-color="#f9f6f6"/></radialGradient><radialGradient id="SVGID_8_" cx="288.2" cy="173.236" gradientTransform="matrix(.989 .15 -.098 .647 20.226 17.956)" gradientUnits="userSpaceOnUse" r="339.159"><stop offset="0" stop-color="#b48e84"/><stop offset=".446" stop-color="#a77d73"/><stop offset=".6243" stop-color="#a47a70"/><stop offset=".7619" stop-color="#9a7168"/><stop offset=".8855" stop-color="#8a6259"/><stop offset="1" stop-color="#734d45"/></radialGradient><radialGradient id="SVGID_9_" cx="80.178" cy="270.455" gradientTransform="matrix(.989 .15 -.098 .647 27.41 83.387)" gradientUnits="userSpaceOnUse" r="357.668"><stop offset=".04" stop-color="#ffdace"/><stop offset=".4067" stop-color="#a77d73"/><stop offset=".4515" stop-color="#a0766c"/><stop offset=".6029" stop-color="#8b6359"/><stop offset=".7045" stop-color="#845c52"/><stop offset=".8509" stop-color="#7f584e"/><stop offset="1" stop-color="#734d45"/></radialGradient><radialGradient id="SVGID_10_" cx="183.421" cy="177.983" gradientTransform="matrix(.777 -.629 .494 .61 -47.059 184.844)" gradientUnits="userSpaceOnUse" r="75.528"><stop offset=".0249" stop-color="#a77d73"/><stop offset=".2777" stop-color="#a3796f"/><stop offset=".5403" stop-color="#966e64"/><stop offset=".8067" stop-color="#825b52"/><stop offset=".9525" stop-color="#734d45"/></radialGradient><radialGradient id="SVGID_11_" cx="61.58" cy="90.017" gradientUnits="userSpaceOnUse" r="83.869"><stop offset="0" stop-color="#ffd0be"/><stop offset=".2922" stop-color="#e9bbab"/><stop offset=".898" stop-color="#b1867b"/><stop offset=".9955" stop-color="#a77d73"/></radialGradient><radialGradient id="SVGID_12_" cx="55.078" cy="145.767" gradientUnits="userSpaceOnUse" r="40.928"><stop offset="0" stop-color="#ffd0be"/><stop offset=".2316" stop-color="#f0c1b1"/><stop offset=".6783" stop-color="#c79b8f"/><stop offset=".9955" stop-color="#a77d73"/></radialGradient><radialGradient id="SVGID_13_" cx="153.809" cy="175.625" gradientTransform="matrix(.777 -.629 .494 .61 -52.495 165.288)" gradientUnits="userSpaceOnUse" r="99.091"><stop offset="0" stop-color="#a77d73"/><stop offset=".3343" stop-color="#a3796f"/><stop offset=".681" stop-color="#966d63"/><stop offset="1" stop-color="#845c52"/></radialGradient><radialGradient id="SVGID_14_" cx="170.818" cy="280.842" gradientTransform="matrix(0 -1 .771 0 -45.728 451.66)" gradientUnits="userSpaceOnUse" r="204.849"><stop offset="0" stop-color="#b48e84"/><stop offset=".131" stop-color="#af877d"/><stop offset=".3927" stop-color="#a77d73"/><stop offset=".5627" stop-color="#9e756b"/><stop offset=".8374" stop-color="#865e54"/><stop offset=".8597" stop-color="#845c52"/></radialGradient><radialGradient id="SVGID_15_" cx="312.927" cy="351.763" gradientTransform="matrix(.068 -.998 1.279 .087 -158.28 633.29)" gradientUnits="userSpaceOnUse" r="130.244"><stop offset="0" stop-color="#b48e84"/><stop offset=".0723" stop-color="#b18a80"/><stop offset=".363" stop-color="#a77d73"/><stop offset=".5819" stop-color="#a3796f"/><stop offset=".7909" stop-color="#986f65"/><stop offset=".9954" stop-color="#855c52"/><stop offset="1" stop-color="#845c52"/></radialGradient><radialGradient id="SVGID_16_" cx="117.473" cy="325.199" gradientTransform="matrix(.649 -.761 .616 .526 -158.973 243.655)" gradientUnits="userSpaceOnUse" r="204.703"><stop offset=".1103" stop-color="#ffd0be"/><stop offset=".2594" stop-color="#e5b8a8"/><stop offset=".558" stop-color="#a77d73"/><stop offset=".7975" stop-color="#a98076"/><stop offset=".9399" stop-color="#af887e"/><stop offset=".999" stop-color="#b48e84"/></radialGradient><radialGradient id="SVGID_17_" cx="314.677" cy="445.505" gradientTransform="matrix(.649 -.761 .616 .526 -163.863 450.725)" gradientUnits="userSpaceOnUse" r="49.723"><stop offset=".1103" stop-color="#ffd0be"/><stop offset=".3163" stop-color="#d7aa9c"/><stop offset=".5234" stop-color="#b4897e"/><stop offset=".6353" stop-color="#a77d73"/></radialGradient><radialGradient id="SVGID_18_" cx="324.91" cy="371.216" gradientTransform="matrix(.649 -.761 .616 .526 -114.546 423.257)" gradientUnits="userSpaceOnUse" r="118.926"><stop offset=".1103" stop-color="#ffd0be"/><stop offset=".3163" stop-color="#d7aa9c"/><stop offset=".5234" stop-color="#b4897e"/><stop offset=".6353" stop-color="#a77d73"/><stop offset=".7874" stop-color="#a4796f"/><stop offset=".9494" stop-color="#9b6d62"/><stop offset=".9854" stop-color="#98695e"/></radialGradient><radialGradient id="SVGID_19_" cx="52.943" cy="702.829" gradientTransform="matrix(.762 -.571 .647 .669 -442.159 -293.629)" gradientUnits="userSpaceOnUse" r="28.682"><stop offset="0" stop-color="#d0cee7"/><stop offset=".2732" stop-color="#a19cae"/><stop offset=".5922" stop-color="#665e66"/><stop offset="1" stop-color="#665e66"/></radialGradient><g><path d="m256 504.659c141.385 0 256-14.042 256-31.364h-512c0 17.322 114.615 31.364 256 31.364z" fill="url(#SVGID_1_)"/><path d="m186.691 13.315c-4.264-7.966-15.685-7.966-19.949 0-1.628 3.041-2.877 6.234-3.82 9.502l-.027-.054-8.332 31.095c-3.572 13.331-5.381 27.073-5.381 40.874v28.414h34.42v-45.877l7.357-28.969c2.993-11.785 1.471-24.265-4.268-34.985z" fill="url(#SVGID_2_)"/><path d="m165.069 47.641c-2.832-11.167-1.4-22.91 4.036-33.062 1.528-2.855 4.373-4.559 7.613-4.559 3.237 0 6.082 1.704 7.611 4.559 5.436 10.152 6.867 21.895 4.033 33.062l-11.644 45.852z" fill="url(#SVGID_3_)"/><path d="m134.397 53.858-8.332-31.095-.027.054c-.942-3.268-2.192-6.461-3.82-9.502-4.264-7.966-15.685-7.966-19.949 0-5.739 10.72-7.261 23.199-4.268 34.985l7.357 28.969v45.877h34.42v-28.414c0-13.801-1.809-27.543-5.381-40.874z" fill="url(#SVGID_4_)"/><path d="m162.163 335.059v111.576c0 5.36-4.345 9.704-9.704 9.704h-3.655c-9.364 0-16.956 7.591-16.956 16.956h58.478v-180.73z" fill="url(#SVGID_5_)"/><path d="m402.3 347.768c.476-25.433-21.127-46.249-46.565-46.249h-25.807c-24.086 0-44.951 18.217-46.596 42.247-.666 9.729 1.798 18.812 6.4 26.465l41.25 71.552c3.735 6.47-.934 14.557-8.404 14.557h-45.19c-9.364 0-16.956 7.592-16.956 16.956h95.483c9.43 0 15.324-10.209 10.609-18.375l-26.412-45.746c-4.333-7.505 1.083-16.887 9.75-16.887h7.064c24.775-.002 44.913-19.855 45.374-44.52z" fill="url(#SVGID_6_)"/><path d="m445.373 418.37h-6.553c-15.094 0-27.329-12.236-27.329-27.329v-11.732h70.897v2.046c0 20.443-16.572 37.015-37.015 37.015z" fill="url(#SVGID_7_)"/><path d="m183.602 123.146v15.672c0 31.075 20.872 58.276 50.888 66.318l149.818 40.144c47.595 12.753 80.689 55.884 80.689 105.157 0 35.957-34.107 62.129-68.839 52.822l-242.98-69.277c-10.199-2.733-15.599-14.051-23.066-21.517-11.281-11.281-16.32-20.166-16.32-36.119l-4.419-99.171z" fill="url(#SVGID_8_)"/><path d="m186.116 338.362c-10.199-2.733-19.499-8.103-26.966-15.569-11.28-11.281-17.618-26.581-17.618-42.533v-126.492l-32.159 23.408v103.084c0 15.953 6.337 31.252 17.618 42.533 7.466 7.466 16.767 12.836 26.966 15.569l242.202 64.897c10.42 2.792 20.777 2.371 30.181-.53z" fill="url(#SVGID_9_)"/><path d="m109.373 177.176v16.557h39.532c11.334 0 22.205-4.503 30.219-12.518 4.448-4.448 7.814-9.776 9.929-15.574-3.525-8.298-5.451-17.382-5.451-26.823v-15.672z" fill="url(#SVGID_10_)"/><path d="m141.364 107.285h-34.839c-13.475 0-26.398 5.353-35.927 14.881l-21.507 21.507 84.293 11.127z" fill="url(#SVGID_11_)"/><path d="m49.091 143.673c-9.743 9.743-9.743 25.54 0 35.283 4.313 4.313 10.163 6.736 16.263 6.736h34.839l22.064-42.02h-73.166z" fill="url(#SVGID_12_)"/><path d="m167.741 107.285h-26.378c-13.475 0-26.398 5.353-35.927 14.881l-21.506 21.507c-9.743 9.743-9.743 25.54 0 35.284 4.313 4.313 10.163 6.736 16.263 6.736h40.672c11.335 0 22.205-4.503 30.22-12.517 8.015-8.015 12.517-18.885 12.517-30.22v-19.81c0-8.76-7.101-15.861-15.861-15.861z" fill="url(#SVGID_13_)"/><path d="m199.45 245.973c-26.086-.504-47.274 21.011-46.235 47.212.891 22.471 18.727 41.276 41.122 43.333.171.016.342.03.513.044 11.729.947 20.912 10.418 20.912 22.185v87.888c0 5.36-4.345 9.704-9.704 9.704h-3.655c-9.364 0-16.956 7.591-16.956 16.956h58.478v-180.73c-.001-24.488-19.992-46.118-44.475-46.592z" fill="url(#SVGID_14_)"/><path d="m455.899 347.768c.476-25.433-21.127-46.249-46.565-46.249h-25.807c-24.086 0-44.951 18.217-46.596 42.247-.666 9.729 1.798 18.812 6.4 26.465l41.25 71.552c3.735 6.47-.934 14.557-8.404 14.557h-45.19c-9.364 0-16.956 7.592-16.956 16.956h95.483c9.43 0 15.324-10.209 10.609-18.375l-26.412-45.746c-4.333-7.505 1.083-16.887 9.75-16.887h7.064c24.774-.002 44.913-19.855 45.374-44.52z" fill="url(#SVGID_15_)"/><path d="m218.481 456.34h3.655c5.36 0 9.704-4.345 9.704-9.704v-87.888c0-11.767-9.183-21.239-20.912-22.185-.171-.014-.342-.028-.513-.044-22.395-2.057-40.23-20.862-41.122-43.333-.916-23.087 15.427-42.534 37.17-46.487-2.286-.431-4.629-.679-7.015-.725-26.086-.504-47.274 21.01-46.235 47.212.891 22.471 18.727 41.276 41.122 43.333.171.016.342.03.513.044 11.729.947 20.912 10.418 20.912 22.185v87.888c0 5.359-4.345 9.704-9.704 9.704h-3.655c-9.364 0-16.956 7.592-16.956 16.956h16.08c.001-9.365 7.592-16.956 16.956-16.956z" fill="url(#SVGID_16_)"/><path d="m347.066 456.34h-16.08c-9.364 0-16.956 7.592-16.956 16.956h16.08c0-9.365 7.591-16.956 16.956-16.956z" fill="url(#SVGID_17_)"/><path d="m384.581 441.783c3.735 6.47-.934 14.557-8.404 14.557h16.08c7.47 0 12.14-8.087 8.404-14.557l-41.25-71.552c-4.602-7.652-7.066-16.736-6.4-26.464 1.646-24.03 22.51-42.247 46.596-42.247h-16.08c-24.086 0-44.95 18.217-46.596 42.247-.666 9.728 1.798 18.812 6.4 26.464z" fill="url(#SVGID_18_)"/><path d="m69.422 157.449c0 3.6-7.092 9.42-11.602 9.42s-11.602-5.82-11.602-9.42 5.194-6.519 11.602-6.519 11.602 2.919 11.602 6.519z" fill="url(#SVGID_19_)"/></g></svg>