<svg height="391pt" viewBox="-13 0 391 391.88497" width="391pt" xmlns="http://www.w3.org/2000/svg"><path d="m330.121094 131.347656c-35.425782-9.042968-61.660156-41.066406-61.660156-79.296875 0-.613281.085937-1.214843.101562-1.828125-3.207031-.804687-6.40625-1.613281-9.738281-2.210937-26.054688-4.671875-52.195313-2.011719-75.691407 8.011719-23.492187-10.023438-49.632812-12.683594-75.695312-8.011719-70.511719 12.636719-113.652344 73.796875-96.347656 170.289062 17.304687 96.492188 88.484375 178.117188 158.996094 165.46875 4.460937-.800781 8.8125-1.960937 13.046874-3.449219 4.238282 1.488282 8.582032 2.652344 13.050782 3.449219 70.511718 12.648438 141.695312-68.976562 158.988281-165.46875 3.375-18.800781 4.382813-36.214843 3.40625-52.238281-15.296875-4.839844-26.78125-18.261719-28.457031-34.714844" fill="#ff927d"/><path d="m330.121094 131.347656 1.691406-6.625c-32.472656-8.285156-56.535156-37.636718-56.515625-72.671875-.019531-.019531.050781-.558593.082031-1.675781.074219-3.179688-2.070312-5.992188-5.140625-6.769531-3.207031-.804688-6.574219-1.664063-10.203125-2.3125-8.691406-1.554688-17.402344-2.34375-26.035156-2.339844-18.492188-.003906-36.664062 3.578125-53.546875 10.792969l2.679687 6.277344 2.675782-6.277344c-16.882813-7.207032-35.046875-10.796875-53.535156-10.796875-8.644532 0-17.355469.78125-26.046876 2.34375h.007813c-31.382813 5.597656-58.082031 20.605469-76.707031 43.910156-18.648438 23.292969-29.101563 54.636719-29.085938 92.308594 0 13.21875 1.28125 27.234375 3.929688 41.992187 8.28125 46.097656 28.429687 88.773438 55.195312 120.285156 13.390625 15.746094 28.457032 28.710938 44.648438 37.804688 16.183594 9.082031 33.546875 14.300781 51.273437 14.292969 5.25.007812 10.527344-.457031 15.785157-1.386719l.019531-.011719c4.832031-.867187 9.542969-2.121093 14.113281-3.734375l-2.273438-6.433594-2.269531 6.433594c4.570313 1.613282 9.28125 2.871094 14.121094 3.734375v.011719c5.277344.933594 10.554687 1.394531 15.804687 1.386719 17.71875.007812 35.089844-5.210938 51.265626-14.300781 24.28125-13.652344 46.050781-35.960938 63.398437-63.40625 17.339844-27.460938 30.246094-60.109376 36.449219-94.675782 2.628906-14.660156 3.871094-28.550781 3.871094-41.671875 0-4.152343-.125-8.214843-.367188-12.1875-.171875-2.820312-2.0625-5.242187-4.757812-6.09375-12.792969-4.050781-22.351563-15.242187-23.730469-28.902343-.296875-2.855469-2.332031-5.21875-5.101563-5.925782l-1.695312 6.625-6.792969.6875c1.96875 19.265625 15.382813 34.910156 33.199219 40.53125l2.054687-6.503906-6.808593.414062c.226562 3.691407.335937 7.480469.335937 11.351563 0 12.253906-1.152344 25.339844-3.652344 39.265625-7.828125 43.722656-27.125 84.425781-52.164062 113.847656-12.503907 14.710938-26.425781 26.605469-40.925781 34.738282-14.519532 8.148437-29.558594 12.550781-44.578126 12.550781-4.472656 0-8.9375-.378907-13.410156-1.183594l.007813.003906c-4.089844-.730469-8.078125-1.800781-11.984375-3.179687-1.460938-.511719-3.078125-.511719-4.542969 0-3.894531 1.382812-7.894531 2.453125-11.984375 3.179687l.015625-.003906c-4.476563.800781-8.953125 1.183594-13.40625 1.183594-15.023437 0-30.070313-4.402344-44.589844-12.550781-21.753906-12.191407-42.179687-32.871094-58.53125-58.792969-16.371093-25.90625-28.675781-56.992188-34.558593-89.792969-2.515626-14.035156-3.703126-27.25-3.703126-39.585938.007813-35.207031 9.652344-63.234374 26.089844-83.78125 16.453125-20.527343 39.84375-33.839843 68.449219-39.003906h.007813c7.902343-1.421875 15.804687-2.128906 23.625-2.128906 16.722656 0 33.039062 3.238281 48.179687 9.703125 1.726563.734375 3.636719.734375 5.363281 0 15.132813-6.460937 31.449219-9.691406 48.183594-9.703125 7.808594.011719 15.710938.71875 23.621094 2.128906 3.023437.546875 6.066406 1.304688 9.257812 2.121094l1.683594-6.625-6.824219-.140625c.007813.109375-.085937.753906-.101562 1.96875.015625 41.433594 28.421875 76.125 66.796875 85.902344l1.6875-6.601563-6.792969.6875z" fill="#54596e"/><path d="m357.832031 158.050781c-.011719.152344-.027343.304688-.042969.453125.03125.015625.0625.027344.097657.039063-.019531-.164063-.035157-.328125-.054688-.492188" fill="#dddee2"/><path d="m14.847656 194.828125c.605469 7.171875 1.582032 14.597656 2.957032 22.269531 5.882812 32.800782 18.1875 63.886719 34.558593 89.792969 16.351563 25.921875 36.777344 46.601563 58.53125 58.792969 14.519531 8.144531 29.566407 12.550781 44.589844 12.550781 4.453125 0 8.929687-.386719 13.40625-1.1875l-.015625.007813c4.089844-.730469 8.089844-1.800782 11.984375-3.179688.730469-.253906 1.5-.386719 2.273437-.386719.769532 0 1.539063.128907 2.269532.386719 3.90625 1.382812 7.894531 2.453125 11.984375 3.179688l-.007813-.007813c4.46875.808594 8.9375 1.1875 13.40625 1.1875 15.023438 0 30.0625-4.402344 44.582032-12.550781 14.5-8.136719 28.417968-20.027344 40.925781-34.738282 25.039062-29.421874 44.335937-70.125 52.164062-113.847656 1.371094-7.632812 2.332031-15.015625 2.925781-22.148437-20.617187 82.039062-79.4375 149.15625-140.59375 149.15625-4.863281 0-9.730468-.421875-14.605468-1.296875-4.472656-.800782-8.8125-1.957032-13.054688-3.449219-4.230468 1.492187-8.585937 2.652344-13.046875 3.449219-4.871093.875-9.746093 1.296875-14.605469 1.296875-61.1875 0-120.03125-67.179688-140.628906-149.277344" fill="#dd877a"/><path d="m8.429688 158.050781c-1.941407 18.179688-1.285157 38.242188 2.660156 60.25 16.109375 89.820313 78.910156 166.769531 144.390625 166.769531 4.863281 0 9.730469-.421874 14.605469-1.300781 4.460937-.796875 8.8125-1.957031 13.046874-3.449219 4.242188 1.492188 8.585938 2.652344 13.050782 3.449219 4.871094.875 9.75 1.300781 14.609375 1.300781 65.484375 0 128.28125-76.941406 144.378906-166.769531 3.914063-21.804687 4.601563-41.707031 2.714844-59.757812-.035157-.011719-.066407-.027344-.101563-.039063-.625 6.136719-1.453125 12.390625-2.613281 18.835938-1.0625 5.933594-2.328125 11.8125-3.789063 17.609375-.589843 7.132812-1.554687 14.515625-2.925781 22.148437-7.828125 43.722656-27.125 84.425782-52.164062 113.847656-12.503907 14.710938-26.425781 26.601563-40.925781 34.738282-14.519532 8.144531-29.558594 12.550781-44.578126 12.550781-4.472656 0-8.9375-.378906-13.410156-1.1875l.007813.007813c-4.089844-.730469-8.078125-1.800782-11.984375-3.179688-.730469-.253906-1.5-.386719-2.269532-.386719-.769531 0-1.539062.128907-2.273437.386719-3.894531 1.382812-7.894531 2.453125-11.984375 3.179688l.019531-.007813c-4.476562.800781-8.957031 1.1875-13.40625 1.1875-15.023437 0-30.074219-4.402344-44.589843-12.550781-21.753907-12.195313-42.183594-32.875-58.535157-58.792969-16.367187-25.90625-28.671875-56.992187-34.554687-89.792969-1.375-7.671875-2.355469-15.097656-2.957032-22.269531-1.445312-5.761719-2.703124-11.597656-3.761718-17.488281-1.1875-6.605469-2.027344-13.011719-2.660156-19.289063" fill="#54596e"/><path d="m161.144531 93.039062c6.25 4.175782 15.3125 6.800782 25.402344 6.800782 11.128906 0 21.011719-3.191406 27.246094-8.140625" fill="#84ff61"/><g fill="#54596e"><path d="m157.351562 98.71875c7.691407 5.09375 17.917969 7.921875 29.195313 7.945312 12.4375-.039062 23.605469-3.433593 31.488281-9.617187 2.953125-2.347656 3.449219-6.640625 1.101563-9.59375-2.339844-2.949219-6.636719-3.449219-9.589844-1.101563-4.585937 3.707032-13.175781 6.699219-23 6.660157-8.902344.023437-16.804687-2.402344-21.613281-5.652344-3.136719-2.097656-7.378906-1.25-9.472656 1.886719-2.09375 3.136718-1.246094 7.375 1.890624 9.472656zm0 0"/><path d="m194.871094 0c-.613282.753906-18.964844 24.0625-18.976563 66.304688 0 10.539062 1.148438 22.238281 3.988281 35.011718l13.328126-2.949218c-2.625-11.824219-3.660157-22.511719-3.660157-32.0625 0-19.101563 4.140625-33.6875 8.210938-43.464844 2.035156-4.886719 4.054687-8.5625 5.527343-10.96875.738282-1.203125 1.335938-2.085938 1.734376-2.648438l.429687-.59375.085937-.109375.007813-.011719-3.253906-2.566406 3.234375 2.589844.019531-.023438-3.253906-2.566406 3.234375 2.589844-10.660156-8.52734375v-.00390625zm0 0"/><path d="m131.933594 195.414062c0 7.539063-6.113282 13.652344-13.652344 13.652344-7.542969 0-13.65625-6.113281-13.65625-13.652344 0-7.542968 6.113281-13.652343 13.65625-13.652343 7.539062 0 13.652344 6.109375 13.652344 13.652343zm0 0"/><path d="m254.8125 195.414062c0 7.539063-6.109375 13.652344-13.652344 13.652344-7.539062 0-13.652344-6.113281-13.652344-13.652344 0-7.542968 6.113282-13.652343 13.652344-13.652343 7.542969 0 13.652344 6.109375 13.652344 13.652343zm0 0"/><path d="m118.28125 154.453125c-22.625.003906-40.957031 18.332031-40.960938 40.960937 0 3.769532 3.054688 6.824219 6.824219 6.824219s6.828125-3.054687 6.828125-6.824219c.003906-7.566406 3.046875-14.347656 7.996094-19.308593 4.964844-4.953125 11.75-7.996094 19.3125-8.003907 3.765625 0 6.820312-3.054687 6.820312-6.820312 0-3.769531-3.054687-6.824219-6.820312-6.824219zm0 0"/><path d="m179.722656 290.988281c-11.3125 0-20.480468-9.171875-20.480468-20.480469v-20.480468c0-11.3125 9.167968-20.480469 20.480468-20.480469 11.308594 0 20.476563 9.167969 20.476563 20.480469v20.480468c0 11.308594-9.167969 20.480469-20.476563 20.480469zm0 0"/></g></svg>