<svg height="436pt" viewBox="-37 0 436 436.90667" width="436pt" xmlns="http://www.w3.org/2000/svg"><path d="m314.480469 122.878906c0-45.242187-30.5625-116.050781-68.265625-116.050781-37.707032 0-68.269532 70.808594-68.269532 116.050781 0 33.585938 16.863282 62.414063 40.960938 75.058594v232.140625h61.441406v-236.328125c20.386719-14.167969 34.132813-40.566406 34.132813-70.871094zm0 0" fill="#9af43b"/><path d="m314.480469 122.878906h6.828125c-.050782-24.113281-7.925782-53.765625-20.789063-78.183594-6.460937-12.195312-14.175781-23.070312-23.167969-31.175781-8.949218-8.0625-19.492187-13.5078122-31.136718-13.519531-11.648438.0117188-22.191406 5.457031-31.140625 13.519531-13.460938 12.167969-24.175781 30.527344-31.839844 50.296875-7.617187 19.792969-12.09375 40.964844-12.113281 59.0625.03125 35.839844 17.898437 67.007813 44.613281 81.101563l3.171875-6.042969h-6.828125v232.140625c0 1.824219.710937 3.539063 2.003906 4.828125 1.289063 1.289062 3 1.996094 4.824219 1.996094h61.441406c1.820313 0 3.535156-.707032 4.824219-1.996094 1.292969-1.289062 2-3.003906 2-4.828125v-236.328125h-6.824219l3.894532 5.601562c22.453124-15.652343 37.042968-44.113281 37.066406-76.472656h-13.65625c.023437 28.25-12.882813 52.578125-31.203125 65.265625-1.835938 1.273438-2.929688 3.367188-2.929688 5.605469v229.5h-47.785156v-225.3125c0-2.550781-1.398437-4.867188-3.65625-6.046875-21.484375-11.195313-37.335937-37.6875-37.304687-69.011719-.050782-21.132812 7.355468-49.507812 19.203124-71.800781 5.894532-11.164063 12.886719-20.820313 20.230469-27.40625 7.382813-6.628906 14.800781-10.03125 22.007813-10.023437 7.203125-.007813 14.621094 3.394531 22.007812 10.023437 11.039063 9.871094 21.171875 26.683594 28.230469 45.0625 7.101563 18.355469 11.21875 38.308594 11.199219 54.144531zm0 0" fill="#54596e"/><path d="m184.773438 150.1875s61.441406-13.652344 95.574218 40.960938" fill="#9af43b"/><path d="m186.257812 156.847656h.007813c.441406-.097656 6.605469-1.359375 15.699219-1.359375 9.707031-.003906 22.703125 1.441407 35.742187 7.035157 13.050781 5.617187 26.199219 15.238281 36.847657 32.238281 2 3.199219 6.210937 4.171875 9.40625 2.171875 3.195312-2 4.167968-6.207032 2.171874-9.40625-12.105468-19.417969-27.78125-31.039063-43.046874-37.554688-15.28125-6.539062-30.097657-8.132812-41.121094-8.136718-11.035156 0-18.316406 1.605468-18.675782 1.679687-3.683593.820313-6.003906 4.46875-5.183593 8.152344.820312 3.679687 4.46875 6 8.152343 5.179687zm0 0" fill="#54596e"/><path d="m246.214844 157.011719s20.167968-50.023438 61.4375-54.613281" fill="#9af43b"/><path d="m252.546875 159.5625.027344-.074219c.449219-1.105469 5.605469-13.121093 15.175781-25.015625 4.777344-5.953125 10.640625-11.859375 17.4375-16.441406 6.8125-4.59375 14.492188-7.875 23.21875-8.847656 3.746094-.417969 6.449219-3.796875 6.03125-7.542969s-3.789062-6.441406-7.535156-6.023437c-11.628906 1.285156-21.730469 5.792968-30.148438 11.636718-12.644531 8.789063-21.707031 20.515625-27.75 30.035156-6.027344 9.527344-9.007812 16.898438-9.121094 17.171876-1.410156 3.496093.28125 7.472656 3.777344 8.882812 3.5 1.410156 7.476563-.28125 8.886719-3.777344zm0 0" fill="#54596e"/><path d="m198.425781 61.441406s47.789063 13.652344 68.265625 61.4375" fill="#9af43b"/><path d="m196.550781 68.003906.054688.011719c.964843.289063 12.449219 3.867187 25.859375 12.800781 13.433594 8.953125 28.695312 23.140625 37.953125 44.75 1.484375 3.464844 5.496093 5.070313 8.964843 3.589844 3.464844-1.484375 5.070313-5.496094 3.585938-8.960938-10.921875-25.484374-29.09375-41.804687-44.378906-51.6875-15.3125-9.894531-27.84375-13.5-28.289063-13.632812-3.625-1.035156-7.40625 1.0625-8.441406 4.691406-1.035156 3.625 1.066406 7.40625 4.691406 8.441406zm0 0" fill="#54596e"/><path d="m287.171875 40.960938s-46.984375 15.171874-50.800781 41.71875" fill="#9af43b"/><path d="m285.074219 34.460938c-.269531.097656-12.359375 3.980468-25.304688 11.5-6.472656 3.773437-13.1875 8.453124-18.777343 14.273437-5.554688 5.800781-10.128907 12.921875-11.375 21.46875-.535157 3.734375 2.050781 7.191406 5.785156 7.730469 3.730468.535156 7.191406-2.050782 7.730468-5.78125.664063-4.730469 3.390626-9.460938 7.71875-13.972656 6.429688-6.757813 16.164063-12.527344 24.214844-16.371094 4.023438-1.9375 7.625-3.417969 10.195313-4.40625 1.285156-.496094 2.3125-.867188 3.007812-1.109375l.78125-.265625.222657-.078125c3.585937-1.160157 5.550781-5.007813 4.394531-8.59375-1.15625-3.585938-5.003907-5.550781-8.589844-4.390625zm0 0" fill="#54596e"/><path d="m143.8125 436.90625h27.308594c2.140625 0 4.15625-1.007812 5.449218-2.714844 1.292969-1.714844 1.703126-3.929687 1.117188-5.988281l-12.0625-42.210937 56.191406-26.480469c3.410156-1.609375 4.871094-5.675781 3.265625-9.082031-1.609375-3.410157-5.675781-4.871094-9.082031-3.261719l-61.441406 28.949219c-3.019532 1.417968-4.570313 4.839843-3.652344 8.050781l11.167969 39.082031-18.261719.003906c-3.769531 0-6.824219 3.050782-6.824219 6.824219s3.054688 6.828125 6.824219 6.828125zm0 0" fill="#54596e"/><path d="m355.441406 423.253906h-18.257812l11.167968-39.085937c.914063-3.210938-.632812-6.632813-3.65625-8.050781l-61.4375-28.953126c-3.414062-1.609374-7.480468-.148437-9.085937 3.265626-1.609375 3.410156-.148437 7.476562 3.265625 9.085937l56.191406 26.476563-12.058594 42.210937c-.589843 2.058594-.179687 4.273437 1.113282 5.988281 1.289062 1.707032 3.304687 2.714844 5.449218 2.714844h27.308594c3.769532 0 6.824219-3.054688 6.824219-6.828125s-3.054687-6.824219-6.824219-6.824219zm0 0" fill="#54596e"/><path d="m75.546875 6.828125c-37.703125 0-68.265625 30.5625-68.265625 68.265625s30.5625 68.265625 68.265625 68.265625h68.265625v-68.265625c0-37.703125-30.5625-68.265625-68.265625-68.265625zm0 0" fill="#fff"/><g fill="#54596e"><path d="m75.546875 6.828125v-6.828125c-41.476563.00390625-75.089844 33.617188-75.09375 75.09375.003906 41.472656 33.617187 75.085938 75.09375 75.089844h68.265625c1.824219 0 3.535156-.707032 4.828125-1.996094 1.289063-1.292969 2-3.003906 2-4.828125v-68.265625c-.003906-41.476562-33.617187-75.08984375-75.09375-75.09375v13.648438c16.988281.007812 32.304687 6.867187 43.445313 18 11.128906 11.136718 17.992187 26.453124 17.996093 43.445312v61.4375l-61.441406.003906c-16.988281-.007812-32.304687-6.867187-43.445313-18-11.128906-11.136718-17.992187-26.457031-17.996093-43.441406.003906-16.992188 6.867187-32.308594 17.996093-43.445312 11.140626-11.132813 26.457032-17.992188 43.445313-18zm0 0"/><path d="m212.078125 112.640625c0 5.65625-4.582031 10.238281-10.238281 10.238281s-10.238282-4.582031-10.238282-10.238281 4.582032-10.242187 10.238282-10.242187 10.238281 4.585937 10.238281 10.242187zm0 0"/><path d="m48.238281 78.507812c0 5.652344-4.582031 10.238282-10.238281 10.238282s-10.238281-4.585938-10.238281-10.238282c0-5.65625 4.582031-10.242187 10.238281-10.242187s10.238281 4.585937 10.238281 10.242187zm0 0"/><path d="m82.375 78.507812c0 5.652344-4.585938 10.238282-10.242188 10.238282s-10.238281-4.585938-10.238281-10.238282c0-5.65625 4.582031-10.242187 10.238281-10.242187s10.242188 4.585937 10.242188 10.242187zm0 0"/><path d="m116.507812 78.507812c0 5.652344-4.585937 10.238282-10.242187 10.238282s-10.238281-4.585938-10.238281-10.238282c0-5.65625 4.582031-10.242187 10.238281-10.242187s10.242187 4.585937 10.242187 10.242187zm0 0"/><path d="m246.214844 112.640625c0 5.65625-4.585938 10.238281-10.242188 10.238281s-10.238281-4.582031-10.238281-10.238281 4.582031-10.242187 10.238281-10.242187 10.242188 4.585937 10.242188 10.242187zm0 0"/></g></svg>