<svg height="411pt" viewBox="-28 0 411 411.10699" width="411pt" xmlns="http://www.w3.org/2000/svg"><path d="m95.625 389.121094s27.308594-68.269532 20.480469-109.226563c-6.824219-40.960937-40.957031-109.226562-40.957031-109.226562l40.957031-6.828125 34.132812 75.09375 20.480469-20.480469v-68.265625h27.308594v75.09375l75.09375-61.441406 13.652344 47.785156s-40.960938 27.308594-47.785157 61.441406c-6.828125 34.132813 6.824219 116.054688 6.824219 116.054688-13.652344 34.132812-150.1875 0-150.1875 0zm0 0" fill="#61c5a8"/><path d="m95.625 389.121094 6.339844 2.53125c.054687-.140625 5.519531-13.800782 11.003906-32.695313 5.472656-18.925781 11.035156-42.988281 11.058594-64.53125 0-5.402343-.351563-10.65625-1.1875-15.660156-3.628906-21.601563-14.011719-49.0625-23.484375-71.503906-9.476563-22.398438-18.0625-39.566407-18.101563-39.648438l-6.105468 3.054688 1.121093 6.730469 35.792969-5.964844 31.964844 70.324218c.925781 2.03125 2.792968 3.492188 4.996094 3.890626 2.199218.398437 4.460937-.308594 6.042968-1.886719l20.480469-20.480469c1.269531-1.273438 2-3.03125 2-4.828125v-61.441406h13.652344v68.269531c0 2.632812 1.523437 5.039062 3.902343 6.164062 2.382813 1.128907 5.207032.785157 7.25-.882812l67.054688-54.867188 10.804688 37.804688 6.5625-1.875-3.785157-5.683594c-.242187.167969-10.789062 7.199219-22.375 18.773438-11.535156 11.609375-24.375 27.699218-28.320312 47.011718-1.507813 7.5625-2.039063 16.628907-2.046875 26.507813.023437 39.363281 8.816406 91.816406 8.832031 92.003906l6.734375-1.121093-6.339844-2.535157c-.605468 1.484375-1.621094 2.804688-3.492187 4.175781-2.777344 2.050782-7.515625 3.878907-13.625 5.015626-6.097657 1.15625-13.5 1.679687-21.546875 1.679687-21.503906.011719-47.546875-3.714844-68.050782-7.472656-10.261718-1.875-19.15625-3.753907-25.472656-5.160157-3.15625-.703124-5.667968-1.285156-7.386718-1.695312-1.71875-.40625-2.613282-.628906-2.617188-.628906l-1.65625 6.625 6.339844 2.53125-6.339844-2.53125-1.652344 6.617187c.097656.027344 15.386719 3.847657 36.328125 7.679688 20.960938 3.820312 47.507813 7.679687 70.507813 7.6875 11.519531-.011719 22.148437-.933594 31.097656-3.597657 4.472656-1.347656 8.5625-3.140624 12.09375-5.695312 3.515625-2.535156 6.480469-5.949219 8.152344-10.15625.46875-1.179688.605468-2.414062.394531-3.660156 0-.003906-.128906-.785156-.367187-2.273438-1.652344-10.382812-8.292969-54.667968-8.277344-87.484375-.007813-9.34375.550781-17.75 1.777344-23.835937 2.882812-14.824219 13.9375-29.453125 24.585937-40.027344 5.300781-5.300781 10.433594-9.617188 14.210937-12.578125 1.890626-1.480469 3.441407-2.625 4.503907-3.386719l1.210937-.851562.296875-.203125.070313-.046875c2.46875-1.652344 3.59375-4.703125 2.777344-7.558594l-13.652344-47.785156c-.632813-2.21875-2.324219-3.949219-4.527344-4.640625-2.199219-.691407-4.578125-.230469-6.363281 1.230469l-63.941407 52.3125v-60.683594c0-1.800782-.726562-3.554688-2-4.828125-1.269531-1.269531-3.027343-1.996094-4.824218-1.996094h-27.308594c-1.796875 0-3.554688.726563-4.824219 1.996094-1.273437 1.273437-2 3.027343-2 4.828125v65.4375l-11.515625 11.515625-30.058594-66.125c-1.28125-2.816407-4.285156-4.421875-7.335937-3.910157l-40.960937 6.828126c-2.136719.351562-3.976563 1.707031-4.960938 3.636718-.984375 1.933594-.992188 4.210938-.023438 6.148438.003907.003906.511719 1.027344 1.449219 2.949218 3.269531 6.722657 11.59375 24.210938 19.800781 44.367188 8.210938 20.117188 16.289063 43.066406 19.085938 59.980469.683594 4.089843 1.003906 8.613281 1.003906 13.410156.023438 19.207031-5.203125 42.492187-10.519531 60.726563-2.648437 9.132812-5.304687 17.027343-7.289063 22.617187-.996093 2.796875-1.820312 5.019531-2.394531 6.53125-.289062.757813-.515625 1.339844-.664062 1.722656l-.21875.5625c-.734375 1.832031-.640625 3.882813.261719 5.644531.898437 1.757813 2.503906 3.03125 4.421874 3.511719zm0 0" fill="#54596e"/><path d="m147.882812 307.199219c-2.945312-.015625-4.777343 7.753906-3.398437 14.195312 6.332031 29.652344 18.914063 49.851563 33.398437 49.851563 14.425782 0 26.964844-20.03125 33.324219-49.488282 1.382813-6.421874-.433593-14.207031-3.378906-14.226562l-11.167969 2.835938c-12.316406 3.117187-25.226562 3.050781-37.511718-.195313zm0 0" fill="#54596e"/><path d="m341.386719 211.625c0 26.394531-21.394531 47.789062-47.785157 47.789062-26.394531 0-47.789062-21.394531-47.789062-47.789062 0-26.390625 21.394531-47.785156 47.789062-47.785156 26.390626 0 47.785157 21.394531 47.785157 47.785156zm0 0" fill="#9af43b"/><path d="m341.386719 211.625h6.828125c-.003906-30.164062-24.449219-54.609375-54.613282-54.613281-30.167968.003906-54.609374 24.449219-54.613281 54.613281.003907 30.164062 24.445313 54.609375 54.613281 54.613281 30.164063-.003906 54.605469-24.449219 54.613282-54.613281h-13.65625c0 11.335938-4.574219 21.53125-11.996094 28.964844-7.433594 7.421875-17.628906 11.988281-28.960938 11.996094-11.335937-.007813-21.53125-4.578126-28.964843-11.996094-7.421875-7.433594-11.992188-17.628906-11.996094-28.964844.003906-11.335938 4.574219-21.53125 11.996094-28.964844 7.433593-7.421875 17.628906-11.988281 28.964843-11.996094 11.332032.007813 21.527344 4.578126 28.960938 11.996094 7.421875 7.433594 11.996094 17.628906 11.996094 28.964844zm0 0" fill="#54596e"/><path d="m201.441406 6.828125c-34.894531 0-63.929687 16.625-70.335937 38.640625-10.027344-7.113281-22.25-11.335938-35.480469-11.335938-33.933594 0-61.4375 27.507813-61.4375 61.441407 0 33.933593 27.503906 61.4375 61.4375 61.4375s61.441406-27.503907 61.441406-61.4375c0-1.203125-.113281-2.382813-.179687-3.566407 12.242187 6.488282 27.699219 10.390626 44.554687 10.390626 39.585938 0 71.679688-21.390626 71.679688-47.785157s-32.09375-47.785156-71.679688-47.785156zm0 0" fill="#9af43b"/><path d="m201.441406 6.828125v-6.828125c-18.535156.0078125-35.589844 4.382812-49.171875 11.921875-13.527343 7.539063-23.820312 18.363281-27.71875 31.632813l6.554688 1.910156 3.949219-5.570313c-11.113282-7.890625-24.738282-12.597656-39.429688-12.589843-37.703125.003906-68.257812 30.558593-68.265625 68.265624.007813 37.703126 30.5625 68.261719 68.265625 68.265626 37.707031-.003907 68.261719-30.5625 68.269531-68.265626-.007812-1.636718-.140625-2.945312-.191406-3.949218l-6.816406.386718-3.199219 6.027344c13.339844 7.066406 29.84375 11.179688 47.75 11.1875 21.023438-.011718 40.164062-5.621094 54.472656-15.140625 7.148438-4.769531 13.105469-10.542969 17.339844-17.210937 4.230469-6.652344 6.703125-14.265625 6.695312-22.257813.007813-7.996093-2.464843-15.605469-6.695312-22.261719-6.367188-10-16.542969-18-28.929688-23.589843-12.40625-5.582031-27.113281-8.75781275-42.882812-8.761719v13.648438c18.5625-.011719 35.265625 5.074218 46.898438 12.851562 5.824218 3.878906 10.363281 8.402344 13.382812 13.167969 3.023438 4.78125 4.566406 9.742187 4.570312 14.945312-.007812 5.199219-1.546874 10.160157-4.570312 14.945313-4.511719 7.148437-12.515625 13.742187-23.007812 18.453125-10.476563 4.726562-23.351563 7.566406-37.273438 7.5625-15.796875.007812-30.21875-3.683594-41.355469-9.601563-2.175781-1.152344-4.808593-1.042968-6.878906.285156-2.074219 1.324219-3.273437 3.667969-3.136719 6.128907.082032 1.371093.175782 2.414062.171875 3.1875-.003906 15.101562-6.101562 28.710937-15.996093 38.617187-9.902344 9.890625-23.515626 15.988282-38.617188 15.996094-15.105469-.007812-28.714844-6.105469-38.621094-15.996094-9.890625-9.90625-15.992187-23.515625-15.992187-38.617187 0-15.105469 6.101562-28.71875 15.992187-38.621094 9.90625-9.894531 23.515625-15.988281 38.621094-15.996094 11.769531.007813 22.585938 3.738281 31.527344 10.074219 1.808594 1.28125 4.105468 1.609375 6.195312.878906 2.09375-.726562 3.691406-2.414062 4.3125-4.535156 2.503906-8.746094 9.933594-17.238281 21.246094-23.515625 11.261719-6.277344 26.171875-10.214844 42.53125-10.207031v-6.824219zm0 0" fill="#54596e"/><path d="m163.894531 61.441406c-48.472656 0-87.773437 27.503906-87.773437 61.4375s39.296875 61.441406 87.773437 61.441406c27.441407 0 51.929688-8.828124 68.023438-22.632812 11.832031 5.65625 25.976562 8.980469 41.203125 8.980469 41.472656 0 75.09375-24.453125 75.09375-54.613281 0-30.160157-33.621094-54.613282-75.09375-54.613282-20.070313 0-38.257813 5.757813-51.730469 15.089844" fill="#9af43b"/><path d="m163.894531 54.613281c-25.53125.015625-48.753906 7.195313-65.980469 19.226563-8.605468 6.027344-15.71875 13.296875-20.734374 21.59375-5.015626 8.28125-7.890626 17.632812-7.882813 27.445312-.007813 9.8125 2.867187 19.164063 7.882813 27.445313 7.535156 12.441406 19.742187 22.578125 34.722656 29.671875 14.996094 7.085937 32.84375 11.144531 51.992187 11.148437 28.902344-.023437 54.851563-9.210937 72.46875-24.277343l-4.445312-5.179688-2.945313 6.15625c12.804688 6.117188 27.925782 9.644531 44.148438 9.644531 22.078125-.015625 42.183594-6.464843 57.117187-17.300781 7.457031-5.425781 13.628907-11.980469 17.976563-19.449219 4.347656-7.457031 6.832031-15.871093 6.828125-24.6875.003906-8.820312-2.480469-17.234375-6.828125-24.691406-6.53125-11.203125-17.121094-20.339844-30.097656-26.722656-12.988282-6.378907-28.433594-10.023438-44.996094-10.023438-21.375.007813-40.855469 6.09375-55.617188 16.300781-3.101562 2.144532-3.871094 6.398438-1.726562 9.496094 2.148437 3.101563 6.402344 3.875 9.5 1.730469 12.1875-8.457031 29.078125-13.890625 47.84375-13.878906 19.394531-.015625 36.835937 5.761719 49.082031 14.691406 6.132813 4.457031 10.957031 9.675781 14.207031 15.269531 3.253906 5.609375 4.972656 11.5625 4.976563 17.828125-.003907 6.257813-1.722657 12.210938-4.976563 17.820313-4.867187 8.394531-13.320312 15.941406-24.316406 21.335937-10.980469 5.398438-24.425781 8.632813-38.972656 8.628907-14.234375 0-27.398438-3.113282-38.257813-8.3125-2.433593-1.167969-5.34375-.78125-7.394531.976562-14.566406 12.546875-37.59375 21.011719-63.578125 20.988281-22.945313.015625-43.605469-6.558593-58.148437-16.761719-7.277344-5.089843-13.011719-11.058593-16.878907-17.464843-3.871093-6.421875-5.910156-13.230469-5.914062-20.382813.003906-7.15625 2.042969-13.96875 5.914062-20.386718 5.789063-9.609376 15.839844-18.238282 28.875-24.390626 13.019531-6.164062 28.945313-9.84375 46.152344-9.839843 3.769531 0 6.824219-3.058594 6.824219-6.824219 0-3.769531-3.054688-6.824219-6.824219-6.824219zm0 0" fill="#54596e"/><path d="m86.355469 142.507812c-7.457031-3.820312-15.910157-5.972656-24.863281-5.972656-30.164063 0-54.613282 24.453125-54.613282 54.613282 0 30.160156 24.449219 54.613281 54.613282 54.613281 30.164062 0 54.613281-24.453125 54.613281-54.613281 0-9.488282-2.414063-18.40625-6.671875-26.183594" fill="#9af43b"/><path d="m89.46875 136.429688c-8.390625-4.300782-17.925781-6.726563-27.976562-6.722657-33.9375.003907-61.4335942 27.507813-61.4375005 61.441407.0039063 33.929687 27.5000005 61.429687 61.4375005 61.433593 33.9375-.003906 61.4375-27.503906 61.441406-61.433593 0-10.652344-2.71875-20.71875-7.511719-29.460938-1.8125-3.308594-5.960937-4.519531-9.269531-2.710938-3.304688 1.8125-4.519532 5.960938-2.707032 9.269532 3.722657 6.800781 5.832032 14.574218 5.835938 22.902344-.003906 13.210937-5.335938 25.117187-13.996094 33.785156-8.667968 8.660156-20.570312 13.992187-33.789062 14-13.21875-.007813-25.121094-5.339844-33.792969-14-8.65625-8.667969-13.992187-20.574219-13.996094-33.785156.003907-13.21875 5.339844-25.125 13.996094-33.792969 8.671875-8.660157 20.574219-13.992188 33.792969-14 7.855468.003906 15.226562 1.886719 21.75 5.226562 3.355468 1.714844 7.46875.390625 9.1875-2.964843 1.71875-3.351563.394531-7.464844-2.960938-9.183594zm0 0" fill="#54596e"/><g fill="#61c5a8"><path d="m314.082031 331.09375c0 5.65625-4.585937 10.238281-10.242187 10.238281s-10.238282-4.582031-10.238282-10.238281 4.582032-10.242188 10.238282-10.242188 10.242187 4.585938 10.242187 10.242188zm0 0"/><path d="m41.011719 372.054688c0 5.652343-4.582031 10.238281-10.238281 10.238281s-10.238282-4.585938-10.238282-10.238281c0-5.65625 4.582032-10.242188 10.238282-10.242188s10.238281 4.585938 10.238281 10.242188zm0 0"/><path d="m286.773438 378.878906c0 5.65625-4.585938 10.242188-10.238282 10.242188-5.65625 0-10.242187-4.585938-10.242187-10.242188s4.585937-10.238281 10.242187-10.238281c5.652344 0 10.238282 4.582031 10.238282 10.238281zm0 0"/><path d="m355.039062 372.054688c0 5.652343-4.582031 10.238281-10.238281 10.238281s-10.242187-4.585938-10.242187-10.238281c0-5.65625 4.585937-10.242188 10.242187-10.242188s10.238281 4.585938 10.238281 10.242188zm0 0"/><path d="m293.601562 119.464844c0 5.65625-4.585937 10.242187-10.242187 10.242187s-10.238281-4.585937-10.238281-10.242187c0-5.652344 4.582031-10.238282 10.238281-10.238282s10.242187 4.585938 10.242187 10.238282zm0 0"/><path d="m334.558594 300.375c0 3.769531-3.054688 6.824219-6.824219 6.824219s-6.828125-3.054688-6.828125-6.824219c0-3.773438 3.058594-6.828125 6.828125-6.828125s6.824219 3.054687 6.824219 6.828125zm0 0"/><path d="m81.972656 75.09375c0 3.769531-3.054687 6.828125-6.824218 6.828125-3.773438 0-6.828126-3.058594-6.828126-6.828125s3.054688-6.828125 6.828126-6.828125c3.769531 0 6.824218 3.058594 6.824218 6.828125zm0 0"/><path d="m218.507812 34.132812c0 3.769532-3.058593 6.828126-6.828124 6.828126-3.769532 0-6.828126-3.058594-6.828126-6.828126 0-3.769531 3.058594-6.824218 6.828126-6.824218 3.769531 0 6.828124 3.054687 6.828124 6.824218zm0 0"/><path d="m320.90625 218.453125c0 3.769531-3.054688 6.828125-6.824219 6.828125-3.773437 0-6.828125-3.058594-6.828125-6.828125s3.054688-6.828125 6.828125-6.828125c3.769531 0 6.824219 3.058594 6.824219 6.828125zm0 0"/><path d="m13.707031 314.027344c0 3.769531-3.054687 6.824218-6.828125 6.824218-3.769531 0-6.8242185-3.054687-6.8242185-6.824218 0-3.769532 3.0546875-6.828125 6.8242185-6.828125 3.773438 0 6.828125 3.058593 6.828125 6.828125zm0 0"/><path d="m47.839844 163.839844c0 3.769531-3.054688 6.828125-6.828125 6.828125-3.769531 0-6.824219-3.058594-6.824219-6.828125 0-3.769532 3.054688-6.828125 6.824219-6.828125 3.773437 0 6.828125 3.058593 6.828125 6.828125zm0 0"/><path d="m150.238281 136.535156c0 3.769532-3.054687 6.824219-6.824219 6.824219-3.769531 0-6.828124-3.054687-6.828124-6.824219 0-3.773437 3.058593-6.828125 6.828124-6.828125 3.769532 0 6.824219 3.054688 6.824219 6.828125zm0 0"/><path d="m81.972656 395.945312c0 3.773438-3.054687 6.828126-6.824218 6.828126-3.773438 0-6.828126-3.054688-6.828126-6.828126 0-3.769531 3.054688-6.824218 6.828126-6.824218 3.769531 0 6.824218 3.054687 6.824218 6.824218zm0 0"/><path d="m170.71875 95.574219c0 3.769531-3.054688 6.824219-6.824219 6.824219s-6.828125-3.054688-6.828125-6.824219 3.058594-6.828125 6.828125-6.828125 6.824219 3.058594 6.824219 6.828125zm0 0"/><path d="m47.839844 341.332031c0 3.773438-3.054688 6.828125-6.828125 6.828125-3.769531 0-6.824219-3.054687-6.824219-6.828125 0-3.769531 3.054688-6.824219 6.824219-6.824219 3.773437 0 6.828125 3.054688 6.828125 6.824219zm0 0"/><path d="m47.839844 218.453125c0 3.769531-3.054688 6.828125-6.828125 6.828125-3.769531 0-6.824219-3.058594-6.824219-6.828125s3.054688-6.828125 6.824219-6.828125c3.773437 0 6.828125 3.058594 6.828125 6.828125zm0 0"/></g><path d="m163.894531 269.652344c0 5.65625-4.585937 10.242187-10.242187 10.242187-5.652344 0-10.238282-4.585937-10.238282-10.242187s4.585938-10.238282 10.238282-10.238282c5.65625 0 10.242187 4.582032 10.242187 10.238282zm0 0" fill="#54596e"/><path d="m211.679688 269.652344c0 5.65625-4.585938 10.242187-10.238282 10.242187-5.65625 0-10.242187-4.585937-10.242187-10.242187s4.585937-10.238282 10.242187-10.238282c5.652344 0 10.238282 4.582032 10.238282 10.238282zm0 0" fill="#54596e"/></svg>