<svg height="420pt" viewBox="0 0 420 420.87773" width="420pt" xmlns="http://www.w3.org/2000/svg"><path d="m414.09375 115.917969c2.367188-10.527344-14.496094-23.679688-39.890625-32.648438 17.425781-22.90625 24.765625-44.339843 16.476563-52.625-8.296876-8.300781-29.777344-.929687-52.714844 16.542969-8.972656-25.535156-22.179688-42.511719-32.738282-40.136719-12.957031 2.914063-17.039062 33.847657-9.296874 69.367188-6.820313 2.238281-11.289063 5.648437-12.304688 10.15625-.988281 4.402343 1.445312 9.265625 6.398438 14.089843-9.132813 16.191407-11.789063 29.925782-5.539063 36.179688 6.246094 6.246094 19.980469 3.585938 36.167969-5.539062 4.765625 4.828124 9.566406 7.191406 13.914062 6.214843 4.511719-1.015625 7.917969-5.488281 10.160156-12.304687 35.523438 7.746094 66.453126 3.65625 69.367188-9.296875zm0 0" fill="#9af43b"/><path d="m414.09375 115.917969 6.660156 1.492187c.261719-1.15625.386719-2.339844.386719-3.503906-.011719-4.410156-1.730469-8.375-4.167969-11.832031-3.703125-5.195313-9.191406-9.699219-16.050781-13.921875-6.863281-4.203125-15.136719-8.039063-24.445313-11.324219l-2.269531 6.4375 5.433594 4.132813c6.527344-8.585938 11.746094-17.023438 15.410156-24.914063 3.644531-7.910156 5.832031-15.230469 5.867188-22.09375-.003907-2.660156-.351563-5.269531-1.210938-7.773437-.851562-2.496094-2.257812-4.875-4.207031-6.8125l.011719.011718c-1.933594-1.945312-4.308594-3.347656-6.804688-4.203125-2.5-.863281-5.117187-1.214843-7.777343-1.214843-6.875.035156-14.210938 2.230468-22.136719 5.882812-7.910157 3.679688-16.363281 8.921875-24.964844 15.472656l4.140625 5.433594 6.441406-2.265625c-4.398437-12.484375-9.746094-23.109375-15.695312-31.007813-2.988282-3.949218-6.128906-7.242187-9.617188-9.722656-3.464844-2.449218-7.433594-4.175781-11.859375-4.191406-1.125-.00390625-2.339843.109375-3.585937.40625l1.578125 6.644531-1.5-6.664062c-3.777344.839843-6.976563 3.066406-9.320313 5.800781-3.539062 4.140625-5.652344 9.386719-7.105468 15.480469-1.425782 6.101562-2.105469 13.121093-2.109376 20.847656 0 10.703125 1.324219 22.753906 4.066407 35.355469l6.671875-1.453125-2.128906-6.488281c-3.960938 1.308593-7.5 2.996093-10.492188 5.402343-2.96875 2.378907-5.445312 5.703125-6.34375 9.742188-.257812 1.140625-.382812 2.3125-.382812 3.46875 0 3.355469 1.039062 6.484375 2.578124 9.265625 1.554688 2.792968 3.628907 5.324218 6.09375 7.734375l4.769532-4.878907-5.945313-3.355468c-6.054687 10.839844-9.75 20.757812-9.820312 29.789062 0 2.652344.347656 5.261719 1.203125 7.757813.851562 2.492187 2.25 4.867187 4.1875 6.804687l.007812.007813c1.9375 1.945312 4.316406 3.34375 6.808594 4.191406 2.5.855469 5.105469 1.199219 7.753906 1.199219 9.035156-.074219 18.949219-3.773438 29.785156-9.808594l-3.347656-5.949219-4.855468 4.796875c2.382812 2.410156 4.886718 4.4375 7.648437 5.949219 2.75 1.503906 5.839844 2.507813 9.148437 2.507813 1.167969 0 2.316407-.128907 3.414063-.363282l.058594-.015625c4.039062-.894531 7.367187-3.378906 9.742187-6.347656 2.40625-2.992187 4.09375-6.527344 5.402344-10.488281l-6.484375-2.128906-1.457031 6.671874c12.59375 2.738282 24.648437 4.058594 35.347656 4.058594 10.308594-.015625 19.335938-1.191406 26.652344-3.8125 3.660156-1.328125 6.929687-3.03125 9.683594-5.398437 2.730468-2.339844 4.960937-5.539063 5.800781-9.320313l-6.667969-1.492187-6.660156-1.5c-.117188.476562-.363282 1.058593-1.414063 1.992187-1.535156 1.371094-4.90625 3.039063-9.667969 4.132813-4.753906 1.113281-10.832031 1.753906-17.734374 1.75-9.570313 0-20.734376-1.199219-32.433594-3.75-3.425782-.75-6.847656 1.207031-7.941406 4.539062-.929688 2.859375-2.066407 4.964844-3.050782 6.164063-1.015625 1.230468-1.648437 1.492187-2.117187 1.609375l.058593-.015625-.539062.0625c-.496094 0-1.351562-.15625-2.605469-.839844-1.238281-.671875-2.804687-1.859375-4.476562-3.554688-2.160157-2.1875-5.527344-2.660156-8.207031-1.15625-9.578126 5.449219-18.132813 8.132813-23.089844 8.058594-1.449219 0-2.554688-.199218-3.320313-.460937-.777343-.273438-1.214843-.570313-1.585937-.933594l.007812.007813c-.371094-.378907-.671875-.824219-.945312-1.605469-.265625-.769531-.464844-1.875-.464844-3.316407-.074219-4.960937 2.601562-13.503906 8.0625-23.085937 1.519531-2.695313 1.039062-6.074219-1.175781-8.230469-1.757813-1.71875-2.992188-3.316406-3.6875-4.589844-.710938-1.28125-.871094-2.152343-.871094-2.648437l.050781-.46875c.117188-.476563.382813-1.109375 1.609375-2.125 1.199219-.984375 3.304688-2.117187 6.164063-3.050781 3.328125-1.09375 5.289062-4.519532 4.539062-7.9375-2.550781-11.707032-3.757812-22.875-3.753906-32.445313-.015625-9.195312 1.152344-16.949219 3-22.007812.910156-2.53125 1.976562-4.351563 2.882812-5.378907.929688-1.050781 1.511719-1.296874 1.996094-1.417968l.082032-.019532.429687-.039062c.667969-.015625 2.035156.308594 3.972656 1.683594 2.890625 2.015625 6.628907 6.226562 10.199219 12.117187 3.59375 5.882813 7.101562 13.398438 10.117188 21.996094.726562 2.066406 2.386718 3.648437 4.484374 4.277344 2.101563.628906 4.355469.214843 6.097657-1.109375 7.945312-6.0625 15.660156-10.800782 22.4375-13.949219 6.761719-3.167969 12.632812-4.648437 16.386719-4.617187 1.441406 0 2.546874.203124 3.316406.472656.78125.273437 1.226562.574218 1.605468.945312l.007813.011719c.363281.371094.660156.804687.933594 1.582031.265625.769532.46875 1.882813.46875 3.332032.03125 3.742187-1.441407 9.601562-4.597657 16.34375-3.136718 6.769531-7.859374 14.464843-13.894531 22.398437-1.324219 1.742187-1.734375 3.988281-1.105469 6.085937.625 2.097657 2.203126 3.753907 4.265626 4.484376 11.390624 4.003906 20.882812 8.914062 27.132812 13.660156 3.125 2.363281 5.417969 4.679687 6.753906 6.585937 1.363282 1.925781 1.679688 3.28125 1.667969 3.949219l-.054687.519531zm0 0" fill="#54596e"/><path d="m260.34375 286.484375c50.660156-50.652344 63.621094-119.8125 28.964844-154.46875-34.660156-34.652344-103.8125-21.691406-154.464844 28.960937-50.660156 50.660157-155.34375 211.53125-120.6875 246.1875 34.664062 34.660157 195.535156-70.023437 246.1875-120.679687" fill="#ff927d"/><path d="m260.34375 286.484375 4.828125 4.828125c32.535156-32.605469 50.328125-72.574219 50.386719-107.941406.023437-21.535156-6.796875-41.582032-21.417969-56.183594-14.609375-14.621094-34.664063-21.457031-56.191406-21.429688-35.363281.0625-75.339844 17.84375-107.933594 50.394532-22.523437 22.546875-54.472656 65.046875-81.195313 109.363281-13.339843 22.160156-25.328124 44.710937-34.0625 65.476563-8.695312 20.800781-14.265624 39.664062-14.320312 55.328124 0 5.003907.589844 9.710938 1.992188 14.074219 1.398437 4.347657 3.660156 8.355469 6.898437 11.589844l.007813.007813c3.234374 3.234374 7.242187 5.507812 11.589843 6.902343 4.359375 1.394531 9.066407 1.984375 14.070313 1.984375 15.65625-.050781 34.519531-5.621094 55.320312-14.320312 31.140625-13.101563 66.371094-33.527344 98.097656-54.855469 31.726563-21.347656 59.824219-43.484375 76.757813-60.394531l-4.828125-4.824219-4.820312-4.828125c-21.144532 21.164062-63.328126 52.996094-106.765626 79.140625-21.730468 13.101563-43.816406 24.808594-63.726562 33.171875-19.867188 8.398438-37.707031 13.308594-50.035156 13.265625-3.921875 0-7.242188-.476563-9.882813-1.332031-2.648437-.867188-4.59375-2.042969-6.128906-3.570313l.007813.011719c-1.523438-1.539062-2.707032-3.488281-3.570313-6.144531-.851563-2.640625-1.335937-5.960938-1.335937-9.875-.050782-12.332031 4.867187-30.167969 13.257812-50.039063 12.546875-29.871094 32.632812-64.597656 53.59375-95.757812 20.9375-31.152344 42.871094-58.882813 58.726562-74.71875 30.332032-30.398438 67.566407-46.457032 98.285157-46.398438 18.765625.03125 34.882812 5.792969 46.53125 17.4375 11.636719 11.632813 17.398437 27.75 17.421875 46.523438.070312 30.714844-15.988282 67.953125-46.378906 98.285156z" fill="#54596e"/><path d="m301.8125 187.652344c-7.671875 22.28125-21.664062 44.894531-41.46875 64.695312-43.6875 43.695313-169.371094 127.582032-225.351562 127.582032-8.238282 0-14.960938-1.8125-19.695313-5.84375-.808594 4.496093-1.222656 8.605468-1.207031 12.234374 0 3.917969.480468 7.238282 1.335937 9.878907.859375 2.652343 2.042969 4.597656 3.566407 6.140625 1.527343 1.519531 3.476562 2.695312 6.121093 3.5625 2.640625.851562 5.960938 1.328125 9.882813 1.328125h.171875c12.320312 0 30.085937-4.90625 49.863281-13.265625 19.910156-8.359375 41.996094-20.070313 63.726562-33.171875 43.4375-26.140625 85.621094-57.976563 106.765626-79.136719 28.992187-28.9375 44.9375-64.15625 46.289062-94.003906" fill="#dd877a"/><g fill="#54596e"><path d="m307.117188 167.027344c-1.144532 6.78125-2.917969 13.6875-5.304688 20.625-1.347656 29.847656-17.296875 65.066406-46.289062 94.003906-21.144532 21.164062-63.328126 52.996094-106.765626 79.140625-21.730468 13.101563-43.816406 24.808594-63.726562 33.171875-19.777344 8.359375-37.542969 13.265625-49.863281 13.265625-.058594 0-.113281 0-.171875 0-3.921875 0-7.242188-.476563-9.882813-1.332031-2.644531-.867188-4.59375-2.042969-6.121093-3.5625-1.523438-1.539063-2.707032-3.488282-3.566407-6.140625-.855469-2.640625-1.335937-5.960938-1.335937-9.875-.015625-3.632813.398437-7.742188 1.207031-12.234375-.394531-.335938-.773437-.6875-1.140625-1.054688-1.792969-1.800781-3.136719-4.019531-4.210938-6.472656-4.285156 18.214844-3.679687 32.699219 4.210938 40.601562 4.765625 4.761719 11.921875 6.894532 20.84375 6.894532 55.972656 0 181.65625-83.878906 225.34375-127.574219 36.851562-36.84375 53.632812-83.429687 46.773438-119.457031"/><path d="m221.3125 235.210938c2.683594-2.675782 6.136719-3.988282 9.65625-4 3.519531.011718 6.972656 1.320312 9.65625 4 2.679688 2.683593 3.992188 6.140624 4 9.65625-.007812 3.511718-1.320312 6.964843-4.003906 9.660156-2.664063 2.667968-2.660156 6.992187.007812 9.65625 2.667969 2.664062 6.992188 2.660156 9.65625-.007813 5.3125-5.320312 8.003906-12.347656 7.996094-19.308593.007812-6.96875-2.683594-13.996094-8-19.3125-5.316406-5.316407-12.34375-8-19.308594-7.992188-6.960937-.011719-13.992187 2.671875-19.308594 7.992188-2.667968 2.664062-2.671874 6.988281-.003906 9.65625 2.664063 2.667968 6.988282 2.667968 9.65625.003906zm0 0"/><path d="m163.386719 177.289062c2.6875-2.679687 6.140625-3.992187 9.65625-4.003906 3.519531.011719 6.96875 1.320313 9.652343 4l.003907.003906c2.675781 2.683594 3.988281 6.132813 4 9.648438-.011719 3.515625-1.320313 6.96875-4.003907 9.664062-2.664062 2.664063-2.664062 6.988282.007813 9.652344 2.667969 2.664063 6.988281 2.660156 9.652344-.007812 5.316406-5.320313 8.003906-12.34375 7.996093-19.308594.007813-6.964844-2.679687-13.996094-8-19.304688l.003907.003907c-5.3125-5.328125-12.347657-8.011719-19.308594-8-6.96875-.011719-13.996094 2.675781-19.3125 7.996093-2.667969 2.664063-2.667969 6.988282-.003906 9.65625 2.667969 2.664063 6.988281 2.664063 9.660156.003907zm0 0"/><path d="m108.433594 254.382812c-13.332032 13.332032-13.332032 34.941407 0 48.269532 13.332031 13.332031 34.941406 13.332031 48.269531 0zm0 0"/></g></svg>