<svg height="415pt" viewBox="-18 0 415 415.63245" width="415pt" xmlns="http://www.w3.org/2000/svg"><path d="m177.808594 231.316406c-74.097656 0-138.300782-13.558594-170.023438-33.375-.390625 5.382813-.640625 10.808594-.640625 16.308594 0 107.453125 76.40625 194.5625 170.664063 194.5625 94.257812 0 170.667968-87.109375 170.667968-194.5625 0-5.5-.25-10.925781-.644531-16.308594-31.71875 19.816406-95.921875 33.375-170.023437 33.375zm0 0" fill="#ffb8f2"/><g fill="#54596e"><path d="m177.808594 231.316406v-6.824218c-36.632813 0-70.800782-3.363282-99.5625-9.128907-28.75-5.734375-52.132813-13.988281-66.84375-23.214843-2.03125-1.269532-4.570313-1.382813-6.707032-.300782-2.132812 1.085938-3.542968 3.203125-3.71875 5.589844-.402343 5.507812-.660156 11.101562-.660156 16.8125.003906 55.347656 19.667969 105.570312 51.679688 142.074219 31.984375 36.496093 76.535156 59.320312 125.8125 59.308593 49.277344.011719 93.828125-22.8125 125.8125-59.308593 32.015625-36.503907 51.679687-86.722657 51.683594-142.074219 0-5.710938-.261719-11.304688-.664063-16.8125-.175781-2.386719-1.582031-4.507812-3.71875-5.589844-2.136719-1.082031-4.675781-.96875-6.707031.300782-14.707032 9.222656-38.09375 17.476562-66.839844 23.214843-28.765625 5.765625-62.933594 9.128907-99.566406 9.128907v13.648437c37.46875 0 72.453125-3.421875 102.246094-9.390625 29.808593-5.992188 54.382812-14.429688 71.394531-25.023438l-3.617188-5.785156-6.808593.496094c.386718 5.257812.625 10.519531.625 15.8125.003906 52.105469-18.535157 99.160156-48.289063 133.070312-29.789063 33.925782-70.570313 54.652344-115.550781 54.664063-44.976563-.011719-85.761719-20.738281-115.546875-54.664063-29.757813-33.910156-48.296875-80.964843-48.292969-133.070312 0-5.292969.242188-10.554688.625-15.8125l-6.808594-.496094-3.617187 5.785156c17.011719 10.59375 41.589843 19.03125 71.398437 25.023438 29.792969 5.96875 64.773438 9.390625 102.246094 9.390625v-6.824219zm0 0"/><path d="m157.328125 306.410156c-.003906-11.316406-9.164063-20.476562-20.480469-20.480468-11.3125.003906-20.472656 9.164062-20.476562 20.480468 0 3.769532 3.054687 6.828125 6.824218 6.828125 3.769532 0 6.828126-3.058593 6.828126-6.828125.007812-3.765625 3.058593-6.820312 6.824218-6.828125 3.769532.007813 6.820313 3.0625 6.828125 6.828125 0 3.769532 3.058594 6.828125 6.828125 6.828125 3.769532 0 6.824219-3.058593 6.824219-6.828125zm0 0"/><path d="m252.902344 306.410156c-.003906-11.316406-9.164063-20.476562-20.480469-20.480468-11.3125.003906-20.472656 9.164062-20.480469 20.480468 0 3.769532 3.058594 6.828125 6.828125 6.828125s6.828125-3.058593 6.828125-6.828125c.003906-3.765625 3.058594-6.820312 6.824219-6.828125 3.769531.007813 6.820313 3.0625 6.828125 6.828125 0 3.769532 3.054688 6.828125 6.828125 6.828125 3.769531 0 6.824219-3.058593 6.824219-6.828125zm0 0"/><path d="m151.34375 333.71875c-4.390625 0-7.652344 4.625-6.082031 8.953125 4.90625 13.550781 20.679687 23.472656 39.375 23.472656 18.695312 0 34.46875-9.917969 39.375-23.472656 1.570312-4.328125-1.691407-8.953125-6.082031-8.953125zm0 0"/></g><path d="m348.476562 197.183594c0-33.933594-76.410156-61.4375-170.667968-61.4375-94.253906 0-170.664063 27.503906-170.664063 61.4375s76.410157 61.441406 170.664063 61.441406c94.257812 0 170.667968-27.507812 170.667968-61.441406zm0 0" fill="#d8d8d8"/><path d="m348.476562 197.183594h6.828126c.007812-5.535156-1.59375-10.902344-4.359376-15.753906-4.878906-8.519532-13.089843-15.667969-23.695312-21.976563-15.941406-9.425781-37.5625-16.957031-63.105469-22.253906-25.535156-5.285157-54.96875-8.28125-86.332031-8.28125-47.808594.011719-91.085938 6.925781-122.992188 18.394531-15.964843 5.761719-29.113281 12.628906-38.6875 20.753906-4.78125 4.074219-8.683593 8.492188-11.457031 13.359375-2.769531 4.855469-4.367187 10.21875-4.359375 15.757813-.007812 5.53125 1.589844 10.898437 4.359375 15.75 4.878907 8.519531 13.089844 15.667968 23.695313 21.976562 15.941406 9.425782 37.5625 16.957032 63.105468 22.253906 25.53125 5.285157 54.96875 8.28125 86.335938 8.28125 47.800781-.011718 91.082031-6.925781 122.992188-18.394531 15.960937-5.761719 29.109374-12.628906 38.6875-20.753906 4.777343-4.074219 8.683593-8.492187 11.453124-13.359375 2.769532-4.855469 4.367188-10.21875 4.359376-15.753906h-13.65625c-.007813 2.949218-.796876 5.863281-2.574219 9.007812-3.078125 5.484375-9.4375 11.460938-18.785157 16.976563-13.992187 8.308593-34.421874 15.570312-58.914062 20.628906-24.496094 5.074219-53.074219 8-83.566406 8-46.449219.015625-88.503906-6.824219-118.367188-17.59375-14.921875-5.355469-26.765625-11.730469-34.460937-18.304687-3.855469-3.277344-6.660157-6.578126-8.4375-9.707032-1.777344-3.148437-2.566407-6.0625-2.574219-9.007812.007812-2.949219.800781-5.863282 2.574219-9.007813 3.082031-5.484375 9.441406-11.464843 18.789062-16.976562 13.988281-8.308594 34.421875-15.574219 58.910157-20.632813 24.496093-5.070312 53.074218-8 83.566406-8 46.453125-.011718 88.507812 6.828125 118.367187 17.59375 14.925781 5.359375 26.769531 11.730469 34.464844 18.304688 3.855469 3.28125 6.660156 6.578125 8.433594 9.710937 1.777343 3.144531 2.570312 6.058594 2.574219 9.007813zm0 0" fill="#54596e"/><path d="m314.34375 190.359375c0-21.597656-61.128906-39.101563-136.535156-39.101563s-136.53125 17.503907-136.53125 39.101563c0 21.59375 61.125 39.097656 136.53125 39.097656s136.535156-17.503906 136.535156-39.097656zm0 0" fill="#fff"/><path d="m232.421875 190.359375h-34.132813l65.191407-147.496094 100.882812-36.03125 9.1875 25.71875-90.265625 32.234375zm0 0" fill="#f4a14e"/><path d="m232.421875 190.359375v-6.828125h-23.65625l59.769531-135.222656 91.695313-32.757813 4.59375 12.863281-83.832031 29.941407c-1.839844.652343-3.300782 2.054687-4.03125 3.867187l-50.863282 125.574219 6.324219 2.5625v-6.828125 6.828125l6.328125 2.558594 49.714844-122.742188 87.382812-31.199219c1.714844-.609374 3.089844-1.855468 3.871094-3.503906.78125-1.648437.875-3.503906.261719-5.21875l-9.1875-25.71875c-1.269531-3.554687-5.175781-5.40625-8.726563-4.132812l-100.882812 36.03125c-1.765625.628906-3.191406 1.953125-3.949219 3.667968l-65.1875 147.496094c-.933594 2.105469-.734375 4.550782.523437 6.484375 1.257813 1.929688 3.414063 3.097657 5.71875 3.097657h34.132813c2.78125 0 5.285156-1.6875 6.328125-4.265626zm0 0" fill="#54596e"/><path d="m157.328125 197.183594h40.960937c3.769532 0 6.828126-3.054688 6.828126-6.824219 0-3.773437-3.058594-6.828125-6.828126-6.828125h-40.960937c-3.769531 0-6.824219 3.054688-6.824219 6.828125 0 3.769531 3.054688 6.824219 6.824219 6.824219" fill="#54596e"/><path d="m130.023438 333.71875c0 7.539062-6.113282 13.652344-13.652344 13.652344-7.542969 0-13.65625-6.113282-13.65625-13.652344 0-7.542969 6.113281-13.65625 13.65625-13.65625 7.539062 0 13.652344 6.113281 13.652344 13.65625zm0 0" fill="#ff927d"/><path d="m266.554688 333.71875c0 7.539062-6.109376 13.652344-13.652344 13.652344-7.539063 0-13.652344-6.113282-13.652344-13.652344 0-7.542969 6.113281-13.65625 13.652344-13.65625 7.542968 0 13.652344 6.113281 13.652344 13.65625zm0 0" fill="#ff927d"/></svg>