<svg height="429pt" viewBox="-105 0 429 429.56971" width="429pt" xmlns="http://www.w3.org/2000/svg"><path d="m7.113281 176.988281v211.625c0 18.851563 45.84375 34.132813 102.398438 34.132813 56.554687 0 102.398437-15.28125 102.398437-34.132813v-211.625zm0 0" fill="#aca3d3"/><path d="m7.113281 176.988281h-6.828125v211.625c-.007812 3.757813 1.179688 7.363281 3.089844 10.449219 3.375 5.425781 8.675781 9.578125 15.277344 13.234375 9.933594 5.429687 23.101562 9.644531 38.605468 12.628906 15.492188 2.96875 33.292969 4.644531 52.253907 4.644531 28.902343-.011718 55.066406-3.859374 74.566406-10.347656 9.761719-3.265625 17.875-7.152344 24.011719-11.960937 3.0625-2.417969 5.648437-5.09375 7.558594-8.199219 1.910156-3.085938 3.097656-6.691406 3.089843-10.449219v-211.625c0-1.800781-.730469-3.558593-2-4.832031-1.273437-1.269531-3.03125-1.996094-4.828125-1.996094h-204.796875c-1.800781 0-3.558593.726563-4.828125 1.996094-1.273437 1.273438-2 3.03125-2 4.832031h6.828125v6.820313h197.972657v204.804687c-.007813.953125-.25 1.949219-1.074219 3.308594-1.394531 2.351563-4.839844 5.488281-10.207031 8.40625-8.027344 4.421875-20.089844 8.421875-34.605469 11.195313-14.527344 2.78125-31.535157 4.398437-49.6875 4.398437-27.648438.011719-52.6875-3.78125-70.246094-9.644531-8.769531-2.910156-15.648437-6.382813-19.878906-9.738282-2.121094-1.667968-3.558594-3.277343-4.375-4.617187-.820313-1.355469-1.0625-2.351563-1.070313-3.308594v-211.625h-6.828125v6.824219zm0 0" fill="#54596e"/><path d="m7.113281 142.851562v211.628907c0 18.851562 45.84375 34.132812 102.398438 34.132812 56.554687 0 102.398437-15.28125 102.398437-34.132812v-211.628907zm0 0" fill="#f4a14e"/><g fill="#54596e"><path d="m7.113281 142.851562h-6.828125v211.628907c-.007812 3.753906 1.179688 7.363281 3.089844 10.449219 3.375 5.421874 8.675781 9.578124 15.277344 13.234374 9.933594 5.429688 23.101562 9.644532 38.605468 12.628907 15.492188 2.96875 33.292969 4.644531 52.253907 4.644531 28.902343-.011719 55.066406-3.863281 74.566406-10.347656 9.761719-3.265625 17.875-7.152344 24.011719-11.964844 3.0625-2.414062 5.648437-5.089844 7.558594-8.195312 1.910156-3.085938 3.097656-6.695313 3.089843-10.449219v-211.628907c0-1.800781-.730469-3.554687-2-4.828124-1.273437-1.269532-3.03125-1.996094-4.828125-1.996094h-204.796875c-1.800781 0-3.558593.726562-4.828125 1.996094-1.273437 1.273437-2 3.027343-2 4.828124h6.828125v6.824219h197.972657v204.804688c-.007813.953125-.25 1.949219-1.074219 3.308593-1.394531 2.351563-4.839844 5.488282-10.207031 8.40625-8.027344 4.421876-20.089844 8.421876-34.605469 11.191407-14.527344 2.785156-31.535157 4.402343-49.6875 4.402343-27.648438.007813-52.6875-3.78125-70.246094-9.648437-8.769531-2.910156-15.648437-6.378906-19.878906-9.734375-2.121094-1.667969-3.558594-3.277344-4.375-4.617188-.820313-1.355468-1.0625-2.355468-1.070313-3.308593v-211.625h-6.828125v6.824219zm0 0"/><path d="m69.394531 298.101562c8.980469 9.75 23.652344 15.355469 40.117188 15.414063 16.304687-.054687 30.839843-5.554687 39.84375-15.128906 2.566406-2.761719 2.40625-7.082031-.355469-9.644531-2.765625-2.5625-7.082031-2.402344-9.644531.359374-5.4375 5.972657-16.707031 10.816407-29.84375 10.765626-13.265625.054687-24.628907-4.898438-30.011719-10.949219-2.535156-2.792969-6.855469-2.996094-9.644531-.457031-2.789063 2.535156-2.992188 6.851562-.457031 9.644531zm0 0"/><path d="m61.726562 245.253906c0 7.539063-6.113281 13.652344-13.65625 13.652344-7.539062 0-13.652343-6.113281-13.652343-13.652344 0-7.542968 6.113281-13.652344 13.652343-13.652344 7.542969 0 13.65625 6.109376 13.65625 13.652344zm0 0"/><path d="m184.605469 245.253906c0 7.539063-6.113281 13.652344-13.652344 13.652344-7.542969 0-13.65625-6.113281-13.65625-13.652344 0-7.542968 6.113281-13.652344 13.65625-13.652344 7.539063 0 13.652344 6.109376 13.652344 13.652344zm0 0"/><path d="m211.910156 142.851562c0-18.851562-45.84375-34.132812-102.398437-34.132812-56.554688 0-102.398438 15.28125-102.398438 34.132812 0 18.851563 45.84375 34.136719 102.398438 34.136719 56.554687 0 102.398437-15.285156 102.398437-34.136719zm0 0"/><path d="m211.910156 142.851562h6.828125c.007813-3.757812-1.179687-7.363281-3.089843-10.453124-3.375-5.421876-8.675782-9.578126-15.277344-13.230469-9.933594-5.433594-23.101563-9.648438-38.605469-12.632813-15.492187-2.96875-33.292969-4.640625-52.253906-4.640625-28.902344.007813-55.066407 3.859375-74.566407 10.34375-9.761718 3.265625-17.878906 7.152344-24.011718 11.964844-3.0625 2.417969-5.648438 5.09375-7.558594 8.195313-1.910156 3.089843-3.097656 6.695312-3.089844 10.453124-.007812 3.757813 1.179688 7.363282 3.089844 10.453126 3.375 5.421874 8.675781 9.578124 15.277344 13.230468 9.933594 5.433594 23.101562 9.648438 38.605468 12.628906 15.492188 2.972657 33.292969 4.644532 52.253907 4.644532 28.902343-.007813 55.066406-3.859375 74.566406-10.34375 9.761719-3.265625 17.875-7.152344 24.011719-11.964844 3.0625-2.417969 5.648437-5.09375 7.558594-8.195312 1.910156-3.089844 3.097656-6.695313 3.089843-10.453126h-13.652343c-.007813.957032-.25 1.953126-1.074219 3.308594-1.394531 2.355469-4.839844 5.492188-10.207031 8.40625-8.027344 4.425782-20.089844 8.425782-34.605469 11.195313-14.527344 2.785156-31.535157 4.398437-49.6875 4.398437-27.648438.011719-52.6875-3.777344-70.246094-9.644531-8.769531-2.910156-15.648437-6.378906-19.878906-9.738281-2.121094-1.664063-3.558594-3.273438-4.375-4.613282-.820313-1.359374-1.0625-2.355468-1.070313-3.308593.007813-.957031.25-1.953125 1.070313-3.308594 1.398437-2.355469 4.839843-5.492187 10.210937-8.410156 8.023438-4.421875 20.085938-8.421875 34.605469-11.191407 14.523437-2.785156 31.53125-4.402343 49.683594-4.402343 27.648437-.007813 52.6875 3.78125 70.246093 9.648437 8.773438 2.910156 15.648438 6.378906 19.882813 9.734375 2.121094 1.667969 3.558594 3.277344 4.371094 4.617188.824219 1.359375 1.066406 2.355469 1.074219 3.308593zm0 0"/></g><path d="m154.273438 63.882812c-37.621094-37.621093-73.5625-62.675781-80.277344-55.964843-6.714844 6.714843 18.339844 42.65625 55.960937 80.277343 37.621094 37.621094 73.5625 62.675782 80.277344 55.964844 6.714844-6.714844-18.339844-42.65625-55.960937-80.277344zm0 0" fill="#aca3d3"/><path d="m129.960938 88.191406 4.828124-4.828125c-16.546874-16.539062-30.625-32.765625-40.425781-46.058593-4.898437-6.636719-8.730469-12.550782-11.226562-17.25-1.246094-2.347657-2.15625-4.386719-2.703125-5.972657-.5625-1.570312-.714844-2.707031-.699219-2.953125l-.003906-.015625-3.003907-.4375 2.074219 2.09375c.710938-.6875.929688-1.527343.929688-1.65625l-3.003907-.4375 2.074219 2.09375.03125-.03125-2.371093-2.363281 1.078124 3.1875 1.296876-.824219-2.371094-2.363281 1.074218 3.1875-.609374-1.808594.277343 1.890625.332031-.082031-.609374-1.808594.277343 1.890625.003907.003907c.25-.015626 1.382812.132812 2.957031.695312 5.671875 1.914062 16.175781 8.316406 28.339843 17.804688 12.242188 9.484374 26.464844 22.074218 40.941407 36.550781 16.546875 16.542969 30.625 32.769531 40.425781 46.058593 4.898438 6.636719 8.726562 12.550782 11.222656 17.253907 1.246094 2.34375 2.15625 4.386719 2.707032 5.96875.5625 1.574219.714843 2.707031.695312 2.957031l.003906.007812 2.910156.417969-2.035156-2.003906c-.648437.636719-.875 1.449219-.875 1.585937l2.910156.417969-2.035156-2.003906.035156-.035156 2.378907 2.378906-1.074219-3.207031-1.304688.828125 2.378907 2.378906-1.074219-3.207031.59375 1.777344-.265625-1.863282-.328125.085938.59375 1.777344-.265625-1.863282.0625.441406-.027344-.445312-.035156.003906.0625.441406-.027344-.445312-.054687.003906c-.246094.015625-1.382813-.136718-2.953125-.695312-5.671875-1.917969-16.175781-8.320313-28.339844-17.808594-12.242187-9.488281-26.46875-22.074219-40.945313-36.550781l-4.828124 4.835937-4.828126 4.828125c16.972657 16.960938 33.589844 31.40625 47.609376 41.753907 7.019531 5.175781 13.375 9.324218 18.953124 12.292968 2.792969 1.480469 5.394532 2.671875 7.878907 3.542969 2.496093.855469 4.855469 1.441406 7.449219 1.457031 1.265624 0 2.613281-.152344 4.019531-.617187 1.394531-.457031 2.847656-1.28125 4.019531-2.460938l.035156-.035156c1.148438-1.160156 1.96875-2.597656 2.429688-3.988281.464844-1.398438.621094-2.75.621094-4.019532-.015626-2.597656-.601563-4.957031-1.457032-7.453124-3.046875-8.570313-9.972656-19.335938-19.902344-32.210938-9.925781-12.800781-22.847656-27.382812-37.691406-42.230469-16.964844-16.964843-33.585937-31.414062-47.605468-41.761719-7.019532-5.175781-13.375-9.324218-18.953126-12.292968-2.796874-1.480469-5.394531-2.671875-7.882812-3.539063-2.492188-.855469-4.855469-1.4453122-7.449219-1.457031-1.277343 0-2.632812.15625-4.039062.625-1.398438.46875-2.847657 1.296875-4.011719 2.472656l.035156-.03125c-1.195312 1.171875-2.027344 2.628906-2.488281 4.027344-.472656 1.40625-.621094 2.757812-.625 4.03125.015625 2.59375.601563 4.953125 1.457031 7.449219 3.050782 8.566406 9.976563 19.332031 19.90625 32.210937 9.925782 12.800782 22.84375 27.386719 37.6875 42.230469zm0 0" fill="#54596e"/><path d="m77.941406 117.039062-34.136718 27.308594c-2.941407 2.355469-3.421876 6.652344-1.066407 9.59375 2.355469 2.945313 6.652344 3.421875 9.597657 1.066406l34.132812-27.304687c2.945312-2.355469 3.421875-6.652344 1.066406-9.597656-2.355468-2.941407-6.652344-3.417969-9.59375-1.066407" fill="#fff"/><path d="m118.898438 123.867188-34.132813 27.304687c-2.941406 2.359375-3.421875 6.652344-1.066406 9.597656 2.355469 2.945313 6.652343 3.421875 9.59375 1.066407l34.136719-27.304688c2.941406-2.359375 3.421874-6.652344 1.066406-9.597656-2.355469-2.945313-6.652344-3.421875-9.597656-1.066406" fill="#fff"/><path d="m159.859375 130.691406-34.132813 27.308594c-2.945312 2.355469-3.421874 6.652344-1.066406 9.597656 2.355469 2.941406 6.652344 3.417969 9.59375 1.066406l34.132813-27.308593c2.945312-2.355469 3.421875-6.652344 1.066406-9.59375-2.351563-2.945313-6.648437-3.421875-9.59375-1.070313" fill="#fff"/></svg>