<svg height="427pt" viewBox="0 -63 427.17867 427" width="427pt" xmlns="http://www.w3.org/2000/svg"><path d="m415.238281 100.179688-29.492187 58.652343-110.265625-55.449219 44.496093-88.472656c3.597657-7.152344 12.308594-10.035156 19.460938-6.445312l54.53125 27.433594c23.628906 11.871093 33.152344 40.65625 21.269531 64.28125" fill="#f4a14e"/><path d="m415.238281 100.179688-6.101562-3.066407-26.421875 52.546875-98.0625-49.3125 41.421875-82.378906c1.351562-2.6875 4.046875-4.222656 6.867187-4.230469 1.164063 0 2.308594.253907 3.421875.820313l.015625.003906 54.527344 27.421875c14.34375 7.210937 22.609375 21.679687 22.625 36.714844-.007812 6.191406-1.402344 12.46875-4.390625 18.417969l6.097656 3.0625 6.09375 3.0625c3.960938-7.867188 5.847657-16.273438 5.847657-24.539063.003906-20.015625-11.042969-39.304687-30.144532-48.910156l-54.53125-27.421875.015625.007812c-3.066406-1.558594-6.371093-2.2890622-9.578125-2.2890622-7.796875-.0039063-15.316406 4.3046872-19.066406 11.7500002l-44.488281 88.476562c-.824219 1.621094-.957031 3.476563-.386719 5.210938.578125 1.730468 1.789062 3.132812 3.417969 3.949218l110.257812 55.453126c1.632813.816406 3.480469.957031 5.210938.378906 1.734375-.570313 3.144531-1.785156 3.960937-3.414063l29.488282-58.640625z" fill="#54596e"/><path d="m11.941406 100.179688 29.492188 58.652343 110.261718-55.449219-44.488281-88.472656c-3.601562-7.152344-12.3125-10.035156-19.46875-6.445312l-54.523437 27.433594c-23.636719 11.871093-33.1484378 40.65625-21.273438 64.28125" fill="#f4a14e"/><path d="m11.941406 100.179688-6.097656 3.070312 29.496094 58.644531c.816406 1.628907 2.21875 2.84375 3.949218 3.410157 1.734376.578124 3.582032.4375 5.210938-.378907l110.257812-55.449219c1.632813-.820312 2.84375-2.21875 3.421876-3.953124.570312-1.734376.4375-3.585938-.386719-5.210938l-44.492188-88.472656c-3.738281-7.445313-11.269531-11.7578128-19.0625-11.7500002-3.210937 0-6.511719.7304682-9.582031 2.2851562l.015625-.003906-54.527344 27.421875c-19.101562 9.605469-30.1523435 28.898437-30.144531 48.910156 0 8.261719 1.886719 16.671875 5.839844 24.539063l6.101562-3.0625 6.101563-3.058594c-2.984375-5.949219-4.386719-12.21875-4.386719-18.417969.007812-15.035156 8.273438-29.507813 22.617188-36.714844l54.53125-27.421875.015624-.007812c1.109376-.5625 2.257813-.816406 3.417969-.816406 2.820313.003906 5.523438 1.542968 6.871094 4.230468l41.417969 82.378906-98.058594 49.3125-26.425781-52.550781z" fill="#54596e"/><path d="m395.984375 197.453125-31.59375 31.597656c-22.382813 22.382813-58.664063 22.382813-81.046875 0l-40.25-40.25c-22.375-22.382812-22.375-58.664062 0-81.039062l31.597656-31.601563c22.382813-22.382812 58.664063-22.382812 81.042969 0l40.25 40.25c22.382813 22.382813 22.382813 58.667969 0 81.042969" fill="#f4a14e"/><path d="m395.984375 197.453125-4.824219-4.828125-31.597656 31.597656c-9.875 9.871094-22.75 14.78125-35.691406 14.789063-12.941406-.007813-25.824219-4.917969-35.695313-14.789063l-40.25-40.25c-9.875-9.882812-14.777343-22.757812-14.785156-35.699218.007813-12.941407 4.910156-25.828126 14.785156-35.683594l31.59375-31.605469c9.875-9.871094 22.75-14.773437 35.691407-14.789063 12.941406.015626 25.824218 4.917969 35.699218 14.789063l40.25 40.257813c9.871094 9.871093 14.777344 22.75 14.78125 35.691406-.003906 12.933594-4.910156 25.808594-14.78125 35.695312l4.824219 4.824219 4.828125 4.824219c12.507812-12.515625 18.796875-28.960938 18.785156-45.34375.007813-16.390625-6.277344-32.839844-18.785156-45.351563l-40.25-40.25c-12.503906-12.519531-28.960938-18.796875-45.351562-18.789062-16.390626-.007813-32.839844 6.269531-45.351563 18.789062l-31.589844 31.597657c-12.511719 12.496093-18.796875 28.953124-18.785156 45.34375-.007813 16.390624 6.273437 32.847656 18.785156 45.351562l40.25 40.253906c12.503907 12.503906 28.960938 18.792969 45.351563 18.78125 16.390625.011719 32.839844-6.269531 45.351562-18.78125l31.589844-31.59375z" fill="#54596e"/><path d="m31.464844 197.453125 31.597656 31.597656c22.382812 22.382813 58.664062 22.382813 81.046875 0l40.25-40.25c22.378906-22.382812 22.378906-58.664062 0-81.039062l-31.59375-31.601563c-22.378906-22.382812-58.667969-22.382812-81.050781 0l-40.25 40.25c-22.375 22.382813-22.375 58.667969 0 81.042969" fill="#f4a14e"/><path d="m31.464844 197.453125-4.820313 4.832031 31.59375 31.59375c12.503907 12.511719 28.960938 18.792969 45.34375 18.78125 16.390625.011719 32.847657-6.277344 45.351563-18.78125l40.25-40.253906c12.511718-12.503906 18.796875-28.960938 18.789062-45.351562.003906-16.390626-6.277344-32.847657-18.789062-45.34375l-31.589844-31.597657c-12.511719-12.519531-28.960938-18.796875-45.351562-18.789062-16.390626-.007813-32.847657 6.269531-45.351563 18.789062l-40.25 40.25c-12.507813 12.511719-18.796875 28.960938-18.785156 45.351563-.007813 16.382812 6.277343 32.828125 18.785156 45.34375l4.824219-4.824219 4.832031-4.824219c-9.875-9.886718-14.777344-22.761718-14.785156-35.695312.007812-12.941406 4.910156-25.820313 14.785156-35.691406l40.25-40.257813c9.871094-9.871094 22.753906-14.773437 35.695313-14.789063 12.945312.015626 25.820312 4.917969 35.699218 14.789063l31.589844 31.605469c9.875 9.855468 14.777344 22.742187 14.785156 35.683594-.007812 12.941406-4.910156 25.816406-14.785156 35.699218l-40.25 40.25c-9.871094 9.871094-22.753906 14.78125-35.695312 14.789063-12.941407-.007813-25.820313-4.917969-35.691407-14.789063l-31.597656-31.597656z" fill="#54596e"/><path d="m320.457031 170.585938c0 60.324218-48.902343 109.226562-109.226562 109.226562s-109.226563-48.902344-109.226563-109.226562c0-60.324219 48.902344-109.226563 109.226563-109.226563s109.226562 48.902344 109.226562 109.226563zm0 0" fill="#f4a14e"/><path d="m102.003906 141.175781c0-44.082031 35.734375-79.816406 79.8125-79.816406h65.652344c22.042969 0 41.992188 8.933594 56.4375 23.378906" fill="#f4a14e"/><path d="m108.828125 141.175781c.003906-20.175781 8.160156-38.382812 21.378906-51.609375 13.230469-13.222656 31.433594-21.375 51.609375-21.382812h65.652344c20.175781.007812 38.378906 8.160156 51.609375 21.382812 2.667969 2.664063 6.988281 2.664063 9.65625 0 2.664063-2.667968 2.664063-6.992187 0-9.65625-15.65625-15.667968-37.359375-25.382812-61.265625-25.375h-65.652344c-47.851562.003906-86.636718 38.789063-86.640625 86.640625 0 3.769531 3.054688 6.828125 6.828125 6.828125 3.769532-.003906 6.824219-3.058594 6.824219-6.828125zm0 0" fill="#54596e"/><path d="m102.003906 213.65625c0 44.078125 35.734375 79.8125 79.8125 79.8125h65.652344c44.082031 0 79.816406-35.734375 79.816406-79.8125v-56.722656" fill="#f4a14e"/><path d="m95.175781 213.65625c.003907 47.847656 38.789063 86.632812 86.640625 86.636719h65.652344c47.855469-.003907 86.636719-38.789063 86.640625-86.636719v-56.722656c0-3.773438-3.054687-6.824219-6.824219-6.824219-3.769531 0-6.828125 3.050781-6.828125 6.824219v56.722656c-.003906 20.171875-8.15625 38.375-21.378906 51.605469-13.230469 13.21875-31.433594 21.371093-51.609375 21.378906h-65.652344c-20.175781-.007813-38.378906-8.160156-51.609375-21.378906-13.21875-13.230469-21.375-31.433594-21.378906-51.605469 0-3.773438-3.054687-6.828125-6.824219-6.828125-3.773437 0-6.828125 3.054687-6.828125 6.828125zm0 0" fill="#54596e"/><g fill="#a47d5e"><path d="m354.59375 109.148438c-3.769531 0-6.832031 3.054687-6.832031 6.824218 0 3.769532 3.0625 6.824219 6.832031 6.824219 3.761719 0 6.824219-3.054687 6.824219-6.824219 0-3.769531-3.0625-6.824218-6.824219-6.824218"/><path d="m74.699219 122.796875c-3.773438 0-6.828125 3.0625-6.828125 6.828125 0 3.769531 3.054687 6.832031 6.828125 6.832031 3.769531 0 6.824219-3.0625 6.824219-6.832031 0-3.765625-3.054688-6.828125-6.824219-6.828125"/><path d="m74.699219 156.933594c-3.773438 0-6.828125 3.054687-6.828125 6.824218 0 3.769532 3.054687 6.832032 6.828125 6.832032 3.769531 0 6.824219-3.0625 6.824219-6.832032 0-3.769531-3.054688-6.824218-6.824219-6.824218"/><path d="m61.039062 54.53125c-3.769531 0-6.824218 3.0625-6.824218 6.832031 0 3.765625 3.054687 6.828125 6.824218 6.828125 3.773438 0 6.832032-3.0625 6.832032-6.828125 0-3.769531-3.058594-6.832031-6.832032-6.832031"/><path d="m88.347656 27.230469c-3.769531 0-6.824218 3.054687-6.824218 6.828125 0 3.769531 3.054687 6.820312 6.824218 6.820312 3.769532 0 6.828125-3.050781 6.828125-6.820312 0-3.773438-3.058593-6.828125-6.828125-6.828125"/><path d="m368.242188 136.457031c-3.769532 0-6.824219 3.054688-6.824219 6.824219 0 3.773438 3.054687 6.824219 6.824219 6.824219 3.773437 0 6.828124-3.050781 6.828124-6.824219 0-3.769531-3.054687-6.824219-6.828124-6.824219"/><path d="m388.71875 156.933594c-3.761719 0-6.824219 3.054687-6.824219 6.824218 0 3.769532 3.0625 6.832032 6.824219 6.832032 3.769531 0 6.832031-3.0625 6.832031-6.832032 0-3.769531-3.058593-6.824218-6.832031-6.824218"/><path d="m361.417969 177.417969c-3.769531 0-6.824219 3.050781-6.824219 6.824219 0 3.769531 3.054688 6.824218 6.824219 6.824218s6.824219-3.054687 6.824219-6.824218c0-3.773438-3.054688-6.824219-6.824219-6.824219"/><path d="m81.523438 197.890625c-3.769532 0-6.824219 3.0625-6.824219 6.832031 0 3.765625 3.054687 6.828125 6.824219 6.828125 3.769531 0 6.824218-3.0625 6.824218-6.828125 0-3.769531-3.054687-6.832031-6.824218-6.832031"/><path d="m47.390625 163.757812c-3.773437 0-6.828125 3.0625-6.828125 6.832032 0 3.765625 3.054688 6.828125 6.828125 6.828125 3.769531 0 6.824219-3.0625 6.824219-6.828125 0-3.769532-3.054688-6.832032-6.824219-6.832032"/><path d="m340.9375 34.058594c-3.773438 0-6.828125 3.050781-6.828125 6.820312 0 3.773438 3.054687 6.828125 6.828125 6.828125 3.769531 0 6.824219-3.054687 6.824219-6.828125 0-3.769531-3.054688-6.820312-6.824219-6.820312"/><path d="m375.070312 47.707031c-3.769531 0-6.828124 3.054688-6.828124 6.824219s3.058593 6.832031 6.828124 6.832031c3.769532 0 6.824219-3.0625 6.824219-6.832031s-3.054687-6.824219-6.824219-6.824219"/></g><path d="m183.921875 143.28125c-.003906-11.316406-9.167969-20.476562-20.480469-20.480469-11.3125.003907-20.472656 9.164063-20.480468 20.480469 0 3.769531 3.058593 6.824219 6.828124 6.824219 3.769532 0 6.828126-3.054688 6.828126-6.824219.003906-3.765625 3.058593-6.820312 6.824218-6.832031 3.765625.011719 6.820313 3.066406 6.828125 6.832031 0 3.769531 3.054688 6.824219 6.824219 6.824219 3.773438 0 6.828125-3.054688 6.828125-6.824219zm0 0" fill="#54596e"/><path d="m286.324219 143.28125c-.007813-11.316406-9.167969-20.476562-20.480469-20.480469-11.316406.003907-20.476562 9.164063-20.480469 20.480469 0 3.769531 3.054688 6.824219 6.824219 6.824219 3.773438 0 6.828125-3.054688 6.828125-6.824219.007813-3.765625 3.058594-6.820312 6.828125-6.832031 3.765625.011719 6.820312 3.066406 6.824219 6.832031 0 3.769531 3.058593 6.824219 6.828125 6.824219 3.769531 0 6.828125-3.054688 6.828125-6.824219zm0 0" fill="#54596e"/><path d="m178.589844 177.414062c-4.835938 0-8.425782 4.625-6.699219 8.953126 5.402344 13.550781 22.761719 23.472656 43.34375 23.472656 20.578125 0 37.9375-9.917969 43.339844-23.472656 1.726562-4.328126-1.867188-8.953126-6.695313-8.953126zm0 0" fill="#54596e"/><path d="m156.617188 177.414062c0 7.539063-6.113282 13.652344-13.65625 13.652344-7.539063 0-13.652344-6.113281-13.652344-13.652344 0-7.539062 6.113281-13.652343 13.652344-13.652343 7.542968 0 13.65625 6.113281 13.65625 13.652343zm0 0" fill="#fff35f"/><path d="m299.976562 177.414062c0 7.539063-6.113281 13.652344-13.652343 13.652344-7.542969 0-13.65625-6.113281-13.65625-13.652344 0-7.539062 6.113281-13.652343 13.65625-13.652343 7.539062 0 13.652343 6.113281 13.652343 13.652343zm0 0" fill="#fff35f"/></svg>