<svg height="401pt" viewBox="0 -6 401.85686 401" width="401pt" xmlns="http://www.w3.org/2000/svg"><path d="m228.9375 337.472656c129.296875-129.296875 197.375-270.855468 152.054688-316.179687-45.320313-45.320313-186.875 22.757812-316.179688 152.054687z" fill="#61c5a8"/><path d="m228.9375 337.472656 4.824219 4.832032c51.4375-51.449219 93.285156-104.820313 122.390625-153.617188 14.554687-24.40625 25.925781-47.671875 33.703125-69.074219 7.769531-21.394531 11.984375-40.925781 12-58.054687-.007813-9.101563-1.203125-17.539063-3.816407-25.160156-2.609374-7.605469-6.667968-14.402344-12.214843-19.9375-5.542969-5.550782-12.328125-9.613282-19.945313-12.214844-7.617187-2.621094-16.058594-3.816406-25.160156-3.816406-17.121094.003906-36.648438 4.222656-58.058594 11.992187-64.117187 23.355469-145.472656 78.941406-222.667968 156.09375-1.28125 1.277344-2.003907 3.03125-2.003907 4.828125s.726563 3.554688 2.003907 4.832031l164.117187 164.125c1.292969 1.289063 3 1.996094 4.832031 1.996094 1.820313 0 3.539063-.707031 4.824219-1.996094l-4.828125-4.828125 4.824219-4.828125-164.117188-164.128906-4.832031 4.832031 4.832031 4.828125c50.703125-50.714843 103.3125-91.925781 150.941407-120.320312 23.808593-14.207031 46.367187-25.199219 66.738281-32.605469 20.359375-7.410156 38.539062-11.183594 53.390625-11.175781 7.898437 0 14.835937 1.054687 20.730468 3.082031 5.890626 2.027344 10.746094 4.992188 14.722657 8.960938 3.96875 3.976562 6.921875 8.820312 8.953125 14.714843 2.027344 5.894531 3.082031 12.832031 3.082031 20.726563.007813 14.855468-3.769531 33.035156-11.179687 53.394531-22.191407 61.191406-76.835938 141.667969-152.914063 217.691406l4.828125 4.828125 4.824219-4.828125z" fill="#54596e"/><path d="m325.9375 210.710938c-6.726562 3.980468-12.765625 6.96875-17.351562 8.5-14.484376 4.820312-43.445313 33.78125-48.273438 48.269531-4.824219 14.480469-28.960938 28.960937-28.960938 28.960937l7.160157 21.488282c34.402343-35.914063 63.925781-72.472657 87.425781-107.21875" fill="#5eaf9c"/><path d="m340.148438 201.515625c-4.890626 3.417969-9.707032 6.527344-14.210938 9.195313-23.503906 34.746093-53.023438 71.304687-87.425781 107.21875l2.433593 7.308593c40.070313-41.519531 73.675782-83.925781 99.203126-123.722656" fill="#54596e"/><path d="m194.5625 74.320312c-35.820312 23.941407-73.636719 54.371094-110.777344 90.003907l23.15625 7.714843s14.484375-24.140624 28.957032-28.96875c14.484374-4.824218 43.457031-33.785156 48.277343-48.269531 1.765625-5.292969 5.464844-12.507812 10.386719-20.480469" fill="#5eaf9c"/><path d="m201.871094 63.234375c-39.796875 25.53125-82.203125 59.136719-123.734375 99.203125l5.648437 1.886719c37.136719-35.632813 74.953125-66.0625 110.777344-90.003907 2.210938-3.578124 4.667969-7.308593 7.308594-11.085937" fill="#54596e"/><path d="m385.484375 41.933594c-5.789063 7.054687-10.71875 14.464844-15.175781 21.273437-7.179688 10.964844-13.957032 21.324219-21.082032 24.878907-19.671874 9.84375-54.460937 31.722656-66.488281 67.796874-3.773437 11.332032-4.566406 11.660157-14.273437 15.644532-6.605469 2.707031-15.644532 6.421875-27.277344 14.171875-34.054688 22.707031-45.242188 66.144531-45.695312 67.992187-2.285157 9.140625 3.257812 18.417969 12.414062 20.695313 1.390625.347656 2.777344.511719 4.148438.511719 7.644531 0 14.605468-5.179688 16.542968-12.9375.085938-.316407 8.695313-32.640626 31.53125-47.859376 8.800782-5.867187 15.441406-8.589843 21.296875-10.992187 15.082031-6.199219 25.582031-12.074219 33.691407-36.425781 8.441406-25.320313 37.339843-42.042969 49.371093-48.0625 5.765625-2.882813 10.71875-6.765625 15.160157-11.246094 5.675781-17.304688 8.558593-32.828125 8.554687-45.8125 0-7.414062-.929687-13.980469-2.71875-19.628906" fill="#5eaf9c"/><path d="m390.597656 36.066406c-1.78125 1.914063-3.480468 3.875-5.117187 5.867188 1.792969 5.652344 2.71875 12.21875 2.71875 19.628906.007812 12.980469-2.878907 28.507812-8.554688 45.8125 3.960938-3.996094 7.507813-8.464844 10.847657-13.121094 5.816406-23.367187 6.117187-43.28125.105468-58.1875" fill="#54596e"/><path d="m340.71875 14.078125c-5.925781-.003906-12.378906.597656-19.289062 1.789063-6.953126 10.621093-13.546876 20.492187-20.46875 23.953124-19.671876 9.835938-54.460938 31.714844-66.488282 67.796876-3.777344 11.332031-4.574218 11.648437-14.285156 15.632812-6.601562 2.71875-15.640625 6.429688-27.265625 14.175781-34.0625 22.710938-45.25 66.152344-45.703125 67.988281-2.285156 9.144532 3.265625 18.429688 12.414062 20.695313 1.386719.347656 2.78125.515625 4.148438.515625 7.648438 0 14.609375-5.175781 16.546875-12.929688.082031-.324218 8.6875-32.640624 31.53125-47.859374 8.800781-5.875 15.4375-8.601563 21.296875-11.003907 15.082031-6.195312 25.582031-12.074219 33.695312-36.425781 8.4375-25.3125 37.335938-42.042969 49.363282-48.050781 15.375-7.691407 25.039062-22.453125 34.378906-36.730469 3.636719-5.542969 7.367188-11.160156 11.367188-16.28125-.171876-.0625-.34375-.125-.515626-.183594-5.894531-2.03125-12.832031-3.082031-20.726562-3.082031" fill="#5eaf9c"/><path d="m340.796875 7.328125c-4.558594 0-9.351563.320313-14.359375.957031-1.515625 2.253906-2.984375 4.488282-4.398438 6.644532-.203124.3125-.410156.625-.613281.9375 6.914063-1.191407 13.367188-1.792969 19.289063-1.789063 7.898437 0 14.835937 1.050781 20.730468 3.078125.171876.0625.34375.121094.511719.183594 1.492188-1.910156 3.019531-3.75 4.597657-5.492188-7.398438-3.050781-16.050782-4.519531-25.757813-4.519531" fill="#54596e"/><path d="m197.558594 204.726562c-45.324219-45.320312-103.675782-60.449218-130.335938-33.789062-26.65625 26.65625-11.53125 85.011719 33.792969 130.332031 45.320313 45.320313 103.671875 60.449219 130.332031 33.789063s11.53125-85.011719-33.789062-130.332032zm0 0" fill="#9af43b"/><path d="m67.226562 170.9375-4.824218-4.832031c-10.460938 10.445312-15.1875 24.914062-15.160156 40.542969.011718 15.601562 4.535156 32.621093 12.855468 49.683593 8.332032 17.0625 20.5 34.164063 36.089844 49.761719 15.597656 15.59375 32.699219 27.761719 49.757812 36.089844 17.0625 8.320312 34.085938 12.839844 49.6875 12.855468 15.628907.03125 30.097657-4.703124 40.542969-15.15625 10.464844-10.449218 15.1875-24.921874 15.160157-40.546874-.011719-15.605469-4.535157-32.628907-12.855469-49.691407-8.332031-17.058593-20.5-34.160156-36.09375-49.75-15.589844-15.589843-32.691407-27.761719-49.75-36.09375-17.0625-8.320312-34.085938-12.84375-49.6875-12.859375-15.628907-.03125-30.105469 4.695313-40.550781 15.167969l4.828124 4.828125 4.832032 4.820312c7.386718-7.386718 17.839844-11.132812 30.890625-11.164062 12.917969-.015625 28.121093 3.859375 43.695312 11.476562 15.578125 7.601563 31.523438 18.910157 46.089844 33.484376 14.570313 14.5625 25.875 30.503906 33.476563 46.082031 7.617187 15.574219 11.488281 30.777343 11.472656 43.699219-.027344 13.042968-3.785156 23.503906-11.160156 30.898437-7.390626 7.367187-17.847657 11.125-30.890626 11.15625-12.921874.011719-28.125-3.863281-43.699218-11.476563-15.578125-7.601562-31.519532-18.90625-46.085938-33.472656-14.574218-14.570312-25.875-30.519531-33.480468-46.097656-7.613282-15.574219-11.484376-30.777344-11.472657-43.695312.027344-13.039063 3.785157-23.496094 11.164063-30.886719zm0 0" fill="#54596e"/><path d="m137.980469 244.984375c-61.910157-16.589844-120.007813-.511719-129.765625 35.902344-9.757813 36.417969 32.519531 79.386719 94.429687 95.972656 61.910157 16.589844 120.007813.515625 129.761719-35.902344 9.757812-36.417969-32.519531-79.386719-94.425781-95.972656zm0 0" fill="#adf2a2"/><g fill="#54596e"><path d="m8.226562 280.890625-6.59375-1.769531c-1.101562 4.105468-1.632812 8.292968-1.632812 12.480468 0 9.796876 2.894531 19.535157 7.953125 28.742188 7.605469 13.824219 20.058594 26.613281 35.953125 37.492188 15.90625 10.867187 35.300781 19.808593 56.984375 25.621093 17.117187 4.585938 33.980469 6.765625 49.769531 6.765625 21.625-.011718 41.257813-4.066406 56.859375-11.957031 7.792969-3.949219 14.589844-8.882813 20-14.828125 5.410157-5.9375 9.414063-12.921875 11.496094-20.707031 1.101563-4.109375 1.636719-8.300781 1.632813-12.492188 0-9.800781-2.890626-19.535156-7.949219-28.746093-7.609375-13.828126-20.058594-26.617188-35.957031-37.496094-15.90625-10.863282-35.300782-19.800782-56.984376-25.609375-17.113281-4.582031-33.972656-6.769531-49.761718-6.769531-21.628906.011718-41.257813 4.0625-56.863282 11.949218-7.796874 3.953125-14.59375 8.886719-20.003906 14.835938-5.410156 5.941406-9.414062 12.929687-11.496094 20.722656l6.59375 1.765625 6.597657 1.761719c1.492187-5.554688 4.304687-10.542969 8.40625-15.0625 6.140625-6.765625 15.28125-12.402344 26.730469-16.292969 11.433593-3.894531 25.113281-6.03125 40.035156-6.03125 14.53125 0 30.238281 2.023437 46.230468 6.3125 27.019532 7.21875 50.085938 19.683594 66.097657 34.066406 8.007812 7.179688 14.246093 14.824219 18.410156 22.414063 4.171875 7.601562 6.269531 15.09375 6.265625 22.179687 0 3.042969-.382812 6.019531-1.167969 8.957031-1.492187 5.546876-4.304687 10.535157-8.40625 15.050782-6.140625 6.761718-15.28125 12.402344-26.730469 16.289062-11.433593 3.898438-25.109374 6.035156-40.035156 6.035156-14.53125 0-30.238281-2.019531-46.234375-6.304687-27.015625-7.226563-50.082031-19.695313-66.097656-34.074219-8.007813-7.183594-14.242187-14.828125-18.40625-22.417968-4.171875-7.601563-6.269531-15.089844-6.269531-22.171876 0-3.039062.382812-6.011718 1.171875-8.945312zm0 0"/><path d="m143.167969 342.964844c-4.535157-12.457032-15.910157-23.28125-31.089844-29.675782-8.152344-3.390624-16.449219-5.054687-24.242187-5.058593-6.601563.003906-12.859376 1.179687-18.363282 3.6875-3.429687 1.566406-4.9375 5.617187-3.371094 9.046875 1.566407 3.429687 5.617188 4.941406 9.046876 3.375 3.351562-1.542969 7.734374-2.460938 12.6875-2.460938 5.835937 0 12.433593 1.273438 18.988281 4.015625 12.269531 5.054688 20.851562 14.003907 23.484375 21.65625 1.261718 3.546875 5.167968 5.402344 8.71875 4.136719 3.550781-1.265625 5.40625-5.167969 4.140625-8.71875zm0 0"/><path d="m175.390625 226.496094c0 5.65625-4.585937 10.242187-10.238281 10.242187-5.65625 0-10.242188-4.585937-10.242188-10.242187s4.585938-10.238282 10.242188-10.238282c5.652344 0 10.238281 4.582032 10.238281 10.238282zm0 0"/><path d="m161.738281 294.761719c0 5.65625-4.585937 10.242187-10.242187 10.242187-5.652344 0-10.238282-4.585937-10.238282-10.242187 0-5.652344 4.585938-10.238281 10.238282-10.238281 5.65625 0 10.242187 4.585937 10.242187 10.238281zm0 0"/><path d="m113.949219 212.84375c0 5.65625-4.582031 10.238281-10.238281 10.238281s-10.238282-4.582031-10.238282-10.238281 4.582032-10.238281 10.238282-10.238281 10.238281 4.582031 10.238281 10.238281zm0 0"/><path d="m107.125 274.285156c0 5.652344-4.585938 10.238282-10.242188 10.238282-5.652343 0-10.238281-4.585938-10.238281-10.238282 0-5.65625 4.585938-10.242187 10.238281-10.242187 5.65625 0 10.242188 4.585937 10.242188 10.242187zm0 0"/></g></svg>