<svg height="395pt" viewBox="0 0 395.94667 395" width="395pt" xmlns="http://www.w3.org/2000/svg"><path d="m286.714844 362.285156c0-30.160156 24.453125-54.613281 54.613281-54.613281.621094 0 1.230469.074219 1.839844.09375 4.273437-16.644531 16.066406-30.273437 31.675781-36.816406 9.179688-22.367188 14.273438-46.835938 14.273438-72.5 0-105.566407-85.582032-191.148438-191.148438-191.148438s-191.144531 85.582031-191.144531 191.148438c0 105.566406 85.578125 191.144531 191.144531 191.144531 32.15625 0 62.433594-7.949219 89.015625-21.980469-.167969-1.753906-.269531-3.527343-.269531-5.328125zm-88.746094-109.226562c-30.160156 0-54.613281-24.453125-54.613281-54.613282 0-30.160156 24.453125-54.613281 54.613281-54.613281s54.613281 24.453125 54.613281 54.613281c0 30.160157-24.453125 54.613282-54.613281 54.613282zm0 0" fill="#ffd578"/><path d="m286.714844 362.285156h6.828125c.003906-13.214844 5.339843-25.117187 14-33.789062 8.667969-8.660156 20.570312-13.992188 33.789062-14 .078125-.007813.605469.046875 1.617188.089844 3.191406.105468 6.039062-2.027344 6.835937-5.121094 3.738282-14.585938 14.082032-26.519532 27.699219-32.226563 1.660156-.695312 2.996094-2.042969 3.675781-3.703125 9.507813-23.15625 14.789063-48.519531 14.785156-75.089844-.003906-109.339843-88.632812-197.96875-197.972656-197.972656-109.339844.003906-197.96874975 88.632813-197.972656 197.972656.00390625 109.335938 88.632812 197.96875 197.972656 197.972657 33.28125.003906 64.671875-8.234375 92.199219-22.769531 2.441406-1.289063 3.871094-3.9375 3.609375-6.683594-.148438-1.578125-.234375-3.132813-.234375-4.679688h-13.65625c0 2.050782.113281 4.042969.296875 5.972656l6.796875-.644531-3.1875-6.039062c-25.632813 13.527343-54.800781 21.1875-85.828125 21.191406-50.917969-.003906-96.957031-20.621094-130.332031-53.984375-33.367188-33.378906-53.984375-79.417969-53.988281-130.335938.003906-50.917968 20.621093-96.957031 53.988281-130.335937 33.378906-33.363281 79.414062-53.980469 130.332031-53.984375 50.921875.003906 96.957031 20.621094 130.335938 53.984375 33.367187 33.382813 53.980468 79.417969 53.984374 130.335937 0 24.761719-4.910156 48.339844-13.761718 69.90625l6.316406 2.597657-2.640625-6.296875c-17.597656 7.378906-30.839844 22.707031-35.648437 41.417968l6.613281 1.699219.222656-6.824219c-.210937.003907-.898437-.085937-2.0625-.097656-33.933594.003906-61.433594 27.503906-61.4375 61.441406h6.824219zm-88.746094-109.226562v-6.824219c-13.214844-.007813-25.121094-5.339844-33.789062-14-8.65625-8.671875-13.992188-20.574219-14-33.789063.003906-13.214843 5.339843-25.117187 14-33.789062 8.667968-8.660156 20.574218-13.992188 33.789062-14 13.21875.007812 25.121094 5.339844 33.789062 14 8.660157 8.671875 13.992188 20.574219 14 33.789062-.003906 13.214844-5.339843 25.117188-14 33.789063-8.667968 8.660156-20.574218 13.992187-33.789062 14v13.648437c33.933594-.003906 61.4375-27.503906 61.441406-61.4375-.003906-33.9375-27.507812-61.433593-61.441406-61.4375-33.933594.003907-61.433594 27.5-61.4375 61.4375.003906 33.933594 27.503906 61.433594 61.4375 61.4375zm0 0" fill="#54596e"/><path d="m197.96875 355.460938c-86.578125 0-157.011719-70.433594-157.011719-157.015626 0-86.578124 70.433594-157.011718 157.011719-157.011718 86.582031 0 157.015625 70.433594 157.015625 157.011718 0 86.582032-70.433594 157.015626-157.015625 157.015626zm0-245.761719c-48.933594 0-88.746094 39.8125-88.746094 88.746093 0 48.933594 39.8125 88.746094 88.746094 88.746094s88.746094-39.8125 88.746094-88.746094c0-48.933593-39.8125-88.746093-88.746094-88.746093zm0 0" fill="#ffb8f2"/><path d="m256.285156 184.792969c0-23.445313-25.347656-42.453125-56.609375-42.453125-31.257812 0-56.605469 19.007812-56.605469 42.453125zm0 0" fill="#54596e"/><path d="m211.625 41.433594v13.652344c0 3.769531 3.054688 6.828124 6.824219 6.828124s6.828125-3.058593 6.828125-6.828124v-13.652344c0-3.773438-3.058594-6.828125-6.828125-6.828125s-6.824219 3.054687-6.824219 6.828125" fill="#fff35f"/><path d="m327.675781 143.832031h13.652344c3.773437 0 6.828125-3.054687 6.828125-6.824219 0-3.773437-3.054688-6.828124-6.828125-6.828124h-13.652344c-3.769531 0-6.824219 3.054687-6.824219 6.828124 0 3.769532 3.054688 6.824219 6.824219 6.824219" fill="#ff927d"/><path d="m316.023438 237.40625 6.828124 6.828125c2.664063 2.664063 6.988282 2.664063 9.652344 0 2.667969-2.667969 2.667969-6.992187 0-9.65625l-6.824218-6.828125c-2.667969-2.664062-6.992188-2.664062-9.65625 0-2.667969 2.664062-2.667969 6.992188 0 9.65625" fill="#fff"/><path d="m348.15625 212.101562h6.828125c3.769531 0 6.824219-3.058593 6.824219-6.828124 0-3.773438-3.054688-6.828126-6.824219-6.828126h-6.828125c-3.769531 0-6.828125 3.054688-6.828125 6.828126 0 3.769531 3.058594 6.828124 6.828125 6.828124" fill="#fff35f"/><path d="m286.714844 287.191406h-13.652344c-3.769531 0-6.824219 3.054688-6.824219 6.828125 0 3.769531 3.054688 6.828125 6.824219 6.828125h13.652344c3.773437 0 6.828125-3.058594 6.828125-6.828125 0-3.773437-3.054688-6.828125-6.828125-6.828125" fill="#fff"/><path d="m254.582031 326.152344 13.65625 13.652344c2.664063 2.664062 6.988281 2.664062 9.652344 0 2.667969-2.664063 2.667969-6.988282 0-9.65625l-13.652344-13.652344c-2.664062-2.664063-6.988281-2.664063-9.65625 0-2.667969 2.667968-2.667969 6.992187 0 9.65625" fill="#9af43b"/><path d="m218.449219 334.980469h-6.824219c-3.773438 0-6.828125 3.054687-6.828125 6.828125 0 3.769531 3.054687 6.824218 6.828125 6.824218h6.824219c3.769531 0 6.828125-3.054687 6.828125-6.824218 0-3.773438-3.058594-6.828125-6.828125-6.828125" fill="#fff35f"/><path d="m191.144531 307.671875v-6.824219c0-3.773437-3.058593-6.828125-6.828125-6.828125-3.769531 0-6.828125 3.054688-6.828125 6.828125v6.824219c0 3.773437 3.058594 6.828125 6.828125 6.828125 3.769532 0 6.828125-3.054688 6.828125-6.828125" fill="#fff"/><path d="m120.71875 314.851562-20.480469 6.824219c-3.578125 1.191407-5.507812 5.058594-4.320312 8.636719 1.195312 3.574219 5.058593 5.507812 8.636719 4.3125l20.480468-6.824219c3.578125-1.191406 5.507813-5.058593 4.316406-8.632812-1.191406-3.578125-5.058593-5.511719-8.632812-4.316407" fill="#ff927d"/><path d="m88.023438 277.3125-6.828126-13.652344c-1.683593-3.375-5.785156-4.738281-9.160156-3.054687-3.371094 1.6875-4.738281 5.789062-3.050781 9.15625l6.824219 13.65625c1.6875 3.371093 5.789062 4.738281 9.160156 3.050781 3.375-1.683594 4.742188-5.785156 3.054688-9.15625" fill="#fff35f"/><path d="m100.394531 251.058594 6.828125-6.824219c2.667969-2.667969 2.667969-6.992187 0-9.65625-2.664062-2.664063-6.988281-2.664063-9.652344 0l-6.828124 6.824219c-2.667969 2.667968-2.667969 6.992187 0 9.65625 2.667968 2.664062 6.988281 2.664062 9.652343 0" fill="#fff35f"/><path d="m54.609375 205.273438h-20.480469c-3.769531 0-6.824218 3.054687-6.824218 6.828124 0 3.769532 3.054687 6.824219 6.824218 6.824219h20.480469c3.769531 0 6.828125-3.054687 6.828125-6.824219 0-3.773437-3.058594-6.828124-6.828125-6.828124" fill="#9af43b"/><path d="m61.4375 164.3125v-6.824219c0-3.773437-3.058594-6.828125-6.828125-6.828125s-6.824219 3.054688-6.824219 6.828125v6.824219c0 3.769531 3.054688 6.828125 6.824219 6.828125s6.828125-3.058594 6.828125-6.828125" fill="#fff35f"/><path d="m98.625 163.589844 13.652344-6.828125c3.371094-1.683594 4.738281-5.785157 3.050781-9.15625-1.683594-3.371094-5.785156-4.738281-9.15625-3.050781l-13.65625 6.824218c-3.371094 1.6875-4.738281 5.789063-3.050781 9.15625 1.683594 3.375 5.785156 4.742188 9.160156 3.054688" fill="#9af43b"/><path d="m116.050781 109.699219v-13.652344c0-3.773437-3.058593-6.828125-6.828125-6.828125-3.769531 0-6.824218 3.054688-6.824218 6.828125v13.652344c0 3.769531 3.054687 6.828125 6.824218 6.828125 3.769532 0 6.828125-3.058594 6.828125-6.828125" fill="#ff927d"/><path d="m161.835938 94.046875 13.652343-13.652344c2.667969-2.667969 2.667969-6.992187 0-9.65625-2.664062-2.664062-6.988281-2.664062-9.652343 0l-13.652344 13.652344c-2.667969 2.664063-2.667969 6.988281 0 9.65625 2.664062 2.664063 6.988281 2.664063 9.652344 0" fill="#fff"/><path d="m284.714844 94.046875 6.828125-6.828125c2.664062-2.664062 2.664062-6.988281 0-9.65625-2.664063-2.664062-6.988281-2.664062-9.65625 0l-6.824219 6.828125c-2.667969 2.664063-2.667969 6.988281 0 9.65625 2.667969 2.664063 6.988281 2.664063 9.652344 0" fill="#ff927d"/><path d="m279.890625 177.964844v20.480468c0 3.769532 3.054687 6.828126 6.824219 6.828126 3.773437 0 6.828125-3.058594 6.828125-6.828126v-20.480468c0-3.773438-3.054688-6.824219-6.828125-6.824219-3.769532 0-6.824219 3.050781-6.824219 6.824219" fill="#9af43b"/><path d="m163.835938 123.351562c-.003907-11.316406-9.164063-20.476562-20.480469-20.476562-11.3125 0-20.472657 9.160156-20.480469 20.476562 0 3.773438 3.058594 6.828126 6.828125 6.828126s6.828125-3.054688 6.828125-6.828126c.003906-3.765624 3.058594-6.816406 6.824219-6.828124 3.769531.011718 6.820312 3.0625 6.828125 6.828124 0 3.773438 3.054687 6.828126 6.828125 6.828126 3.769531 0 6.824219-3.054688 6.824219-6.828126zm0 0" fill="#54596e"/><path d="m279.890625 123.351562c-.003906-11.316406-9.167969-20.476562-20.480469-20.476562s-20.476562 9.160156-20.480468 20.476562c0 3.773438 3.058593 6.828126 6.828124 6.828126 3.769532 0 6.824219-3.054688 6.824219-6.828126.007813-3.765624 3.0625-6.816406 6.828125-6.828124 3.765625.011718 6.820313 3.0625 6.828125 6.828124 0 3.773438 3.054688 6.828126 6.824219 6.828126s6.828125-3.054688 6.828125-6.828126zm0 0" fill="#54596e"/><g fill="#fff"><path d="m184.316406 171.140625h-6.828125c-3.773437 0-6.824219-3.058594-6.824219-6.828125v-13.652344h20.480469v13.652344c0 3.769531-3.054687 6.828125-6.828125 6.828125zm0 0"/><path d="m218.449219 171.140625h-6.824219c-3.773438 0-6.828125-3.058594-6.828125-6.828125v-13.652344h20.480469v13.652344c0 3.769531-3.054688 6.828125-6.828125 6.828125zm0 0"/></g></svg>