<svg height="406pt" viewBox="-5 0 406 406.75499" width="406pt" xmlns="http://www.w3.org/2000/svg"><path d="m205.324219 365.945312c45.3125-45.324218 194.960937-268.449218 149.640625-313.773437-45.320313-45.320313-268.445313 104.320313-313.765625 149.644531-45.324219 45.324219-45.324219 118.804688 0 164.128906 45.320312 45.320313 118.804687 45.320313 164.125 0" fill="#aca3d3"/><path d="m205.324219 365.945312 4.828125 4.824219c10.371094-10.398437 25.238281-28.8125 42.058594-52.054687 25.179687-34.839844 54.496093-80.320313 77.628906-124.320313 11.570312-22 21.589844-43.621093 28.78125-63.460937 7.171875-19.851563 11.585937-37.835938 11.617187-53.109375 0-6.039063-.703125-11.679688-2.355469-16.839844-1.652343-5.164063-4.308593-9.863281-8.097656-13.636719h.007813c-3.78125-3.792968-8.480469-6.441406-13.632813-8.089844-5.171875-1.65625-10.8125-2.363281-16.847656-2.363281-20.335938.0625-45.625 7.820313-73.496094 19.699219-41.714844 17.875-88.859375 45.363281-129.457031 72.15625-20.296875 13.390625-38.9375 26.609375-54.410156 38.378906-15.496094 11.785156-27.765625 22.058594-35.578125 29.859375-23.976563 23.976563-36.003906 55.464844-35.992188 86.886719-.011718 31.417969 12.015625 62.90625 35.992188 86.894531 23.976562 23.976563 55.464844 35.992188 86.886718 35.984375 31.429688.007813 62.914063-12.007812 86.894532-35.984375l-4.828125-4.824219-4.828125-4.832031c-21.347656 21.335938-49.265625 31.984375-77.242188 31.988281-27.972656-.003906-55.882812-10.652343-77.230468-31.988281-21.34375-21.351562-31.988282-49.261719-31.996094-77.238281.007812-27.976562 10.652344-55.886719 31.996094-77.230469 9.34375-9.367187 27.527343-24.132812 50.398437-40.652343 34.332031-24.832032 79.441406-53.882813 122.671875-76.621094 21.609375-11.359375 42.75-21.144532 61.75-28.023438 18.984375-6.910156 35.875-10.824218 48.464844-10.800781 4.964844 0 9.226562.597656 12.671875 1.707031 3.460937 1.117188 6.085937 2.6875 8.15625 4.746094 2.054687 2.066406 3.621093 4.691406 4.738281 8.144531 1.109375 3.449219 1.707031 7.714844 1.707031 12.679688.0625 16.804687-7.003906 41.167969-18.597656 68.109375-17.339844 40.515625-44.519531 87.222656-70.992187 127.320312-13.238282 20.050782-26.308594 38.476563-37.863282 53.667969-11.539062 15.183594-21.632812 27.195313-28.636718 34.191406z" fill="#54596e"/><path d="m355.035156 65.648438c-27.625 84.246093-116.550781 212.523437-149.710937 245.683593-22.660157 22.65625-52.363281 33.984375-82.0625 33.984375-29.703125 0-59.402344-11.328125-82.0625-33.984375-11.992188-12-20.734375-25.976562-26.347657-40.875-.546874 4.453125-.824218 8.933594-.824218 13.417969.007812 27.976562 10.652344 55.886719 31.996094 77.238281 21.347656 21.335938 49.257812 31.984375 77.230468 31.988281 27.976563-.003906 55.898438-10.652343 77.242188-31.988281 7.003906-6.996093 17.097656-19.007812 28.636718-34.1875 11.554688-15.195312 24.625-33.617187 37.863282-53.671875 26.472656-40.09375 53.652344-86.800781 70.992187-127.316406 11.59375-26.945312 18.664063-51.304688 18.597657-68.109375 0-4.726563-.542969-8.820313-1.550782-12.179687" fill="#9a94bf"/><path d="m357.96875 56.050781c-.882812 3.128907-1.863281 6.332031-2.933594 9.597657 1.007813 3.359374 1.550782 7.453124 1.550782 12.179687.0625 16.804687-7.003907 41.164063-18.597657 68.109375-17.339843 40.511719-44.519531 87.222656-70.992187 127.316406-13.238282 20.054688-26.308594 38.476563-37.863282 53.671875-11.539062 15.179688-21.632812 27.191407-28.636718 34.1875-21.347656 21.335938-49.265625 31.984375-77.242188 31.988281-27.972656-.003906-55.882812-10.652343-77.230468-31.988281-21.34375-21.351562-31.988282-49.261719-31.996094-77.238281 0-4.484375.277344-8.964844.824218-13.417969-1.714843-4.554687-3.136718-9.191406-4.273437-13.886719-9.167969 38.007813.949219 79.707032 30.617187 109.375 22.660157 22.65625 52.363282 33.988282 82.0625 33.988282 29.703126 0 59.402344-11.332032 82.066407-33.988282 44.164062-44.167968 187.328125-257.125 152.644531-309.894531" fill="#54596e"/><path d="m388.613281 121.648438c0-23.28125-9.996093-43.804688-25.289062-56.5625.21875-5.199219-.105469-10.351563-1.117188-15.324219-5.34375-1.089844-10.878906-1.453125-16.46875-1.121094-12.234375-18.003906-34.589843-30.117187-60.25-30.117187-25.960937 0-48.570312 12.371093-60.710937 30.71875 12.140625 18.347656 34.75 30.71875 60.710937 30.71875 1.566407 0 3.078125-.179688 4.621094-.273438-12.742187 17.042969-17.488281 37.613281-13.757813 55.929688 16.589844 3.378906 35.039063-.199219 51.035157-10.367188 1.101562 24.425781 13.023437 45.546875 30.507812 57.113281 18.34375-12.140625 30.71875-34.753906 30.71875-60.714843zm0 0" fill="#9af43b"/><path d="m388.613281 121.648438h6.828125c-.007812-25.246094-10.820312-47.675782-27.746094-61.804688l-4.371093 5.242188 6.816406.285156c.050781-1.117188.074219-2.238282.074219-3.359375 0-4.5625-.40625-9.128907-1.320313-13.617188-.550781-2.6875-2.636719-4.777343-5.320312-5.324219-4.542969-.929687-9.183594-1.378906-13.859375-1.378906-1.449219 0-2.925782.039063-4.421875.136719l.441406 6.8125 5.644531-3.839844c-13.621094-20.011719-38.078125-33.09375-65.894531-33.105469-28.128906.011719-52.867187 13.367188-66.402344 33.777344-1.515625 2.28125-1.511719 5.246094 0 7.535156 13.535157 20.410157 38.273438 33.761719 66.402344 33.777344 2.105469-.007812 3.761719-.21875 5.019531-.285156l-.394531-6.8125-5.46875-4.089844c-10.769531 14.402344-16.351563 31.203125-16.355469 47.582032 0 4.652343.453125 9.273437 1.375 13.792968.542969 2.683594 2.644532 4.785156 5.332032 5.332032 4.515624.917968 9.140624 1.363281 13.792968 1.363281 14.398438-.003907 29.121094-4.320313 42.257813-12.65625l-3.65625-5.761719-6.820313.304688c1.203125 26.457031 14.082032 49.585937 33.558594 62.5 2.285156 1.511718 5.25 1.507812 7.535156-.003907 20.410156-13.53125 33.765625-38.273437 33.78125-66.402343h-13.652344c.015626 23.789062-11.382812 44.273437-27.664062 55.019531l3.765625 5.695312 3.769531-5.699219c-15.492187-10.214843-26.457031-29.328124-27.457031-51.726562-.109375-2.4375-1.5-4.621094-3.664063-5.746094-2.164062-1.125-4.75-1.019531-6.8125.289063-11.035156 7.007812-23.289062 10.542969-34.941406 10.539062-3.777344 0-7.488281-.367187-11.078125-1.097656l-1.359375 6.691406 6.691406-1.359375c-.730468-3.605468-1.097656-7.3125-1.097656-11.074218-.007812-13.261719 4.558594-27.273438 13.636719-39.40625 1.585937-2.125 1.800781-4.980469.542969-7.320313-1.257813-2.335937-3.757813-3.738281-6.410156-3.582031-1.828126.113281-3.191407.269531-4.222657.261718-23.792969.015626-44.273437-11.378906-55.019531-27.660156l-5.691406 3.769532 5.691406 3.765624c10.746094-16.285156 31.230469-27.675781 55.019531-27.664062 23.507813-.011719 43.761719 11.136719 54.601563 27.132812 1.359375 1.996094 3.679687 3.128907 6.089844 2.972657 1.160156-.078125 2.339843-.109375 3.535156-.109375 3.792968 0 7.519531.371094 11.121094 1.105468l1.367187-6.6875-6.6875 1.367188c.710937 3.476562 1.042969 7.132812 1.042969 10.886719 0 .921875-.019532 1.847656-.058594 2.78125-.089844 2.117187.820312 4.171875 2.449219 5.53125 13.660156 11.382812 22.847656 30 22.839843 51.320312h6.824219zm0 0" fill="#54596e"/><path d="m383.230469.015625s0 27.308594-23.4375 47.335937" fill="#9af43b"/><g fill="#54596e"><path d="m376.402344.015625h.972656l-.972656-.015625v.015625h.972656l-.972656-.015625c0 .320312-.144532 6.632812-2.875 14.921875-2.738282 8.3125-7.96875 18.515625-18.171875 27.238281l8.871093 10.378906c12.90625-11.027343 19.382813-24.105468 22.585938-34.320312 3.207031-10.242188 3.234375-17.714844 3.242188-18.203125zm0 0"/><path d="m51.824219 247.382812c-7.097657-.019531-11.523438 7.359376-8.203125 13.480469 15.28125 28.164063 45.632812 47.351563 80.582031 47.351563 34.800781 0 65.046875-19.027344 80.390625-47.003906 3.347656-6.101563-1.046875-13.496094-8.148438-13.515626l-58.75 5.867188c-8.976562.894531-18.019531.875-26.988281-.058594zm0 0"/><path d="m51.824219 247.382812 2.234375-6.453124c-.011719.03125-.648438-.34375-2.261719-.378907-4.558594-.019531-8.726563 1.882813-11.570313 4.820313-2.863281 2.933594-4.550781 6.886718-4.558593 11.128906-.003907 2.554688.640625 5.207031 1.949219 7.609375l.003906.003906c16.457031 30.347657 49.097656 50.921875 86.582031 50.925781 37.328125-.003906 69.851563-20.410156 86.375-50.546874 1.332031-2.421876 1.988281-5.09375 1.984375-7.667969-.003906-4.234375-1.691406-8.191407-4.546875-11.121094-2.839844-2.941406-7.003906-4.847656-11.5625-4.835937l-.6875.035156-58.75 5.867187h.003906c-4.164062.414063-8.34375.617188-12.523437.621094-4.367188-.003906-8.734375-.230469-13.089844-.679687h.007812l-58.878906-6.121094-.710937 6.792968 2.234375-6.453124-2.234375 6.453124-.707031 6.792969 58.882812 6.117188h.003906c4.8125.496093 9.648438.75 14.488282.75 4.632812 0 9.261718-.226563 13.878906-.6875h.003906l58.75-5.867188-.679688-6.792969-.007812 6.824219c.882812.019531 1.359375.289063 1.808594.71875l.664062 1.585938-.304687 1.105469c-14.15625 25.808593-42.125 43.464843-74.402344 43.460937-32.410156.003906-60.480469-17.796875-74.578125-43.78125v.003906l-.296875-1.113281.664063-1.585938c.445312-.425781.925781-.695312 1.804687-.710937v-6.734375l-2.203125 6.367188c.015625-.035157.609375.328124 2.203125.367187v-6.734375l-2.203125 6.367188 1.527344.339843zm0 0"/><path d="m205.734375 191.164062c0 7.539063-6.113281 13.652344-13.652344 13.652344-7.542969 0-13.65625-6.113281-13.65625-13.652344 0-7.539062 6.113281-13.652343 13.65625-13.652343 7.539063 0 13.652344 6.113281 13.652344 13.652343zm0 0"/><path d="m116.988281 191.164062c0 7.539063-6.113281 13.652344-13.65625 13.652344-7.539062 0-13.652343-6.113281-13.652343-13.652344 0-7.539062 6.113281-13.652343 13.652343-13.652343 7.542969 0 13.65625 6.113281 13.65625 13.652343zm0 0"/></g></svg>