<svg height="375pt" viewBox="-27 0 375 375.45984" width="375pt" xmlns="http://www.w3.org/2000/svg"><path d="m75.320312 75.09375v-20.480469h211.632813v20.480469c17.808594 26.707031 27.300781 58.089844 27.300781 90.1875v159.609375c0 24.160156-19.589844 43.746094-43.75 43.746094h-178.738281c-24.160156 0-43.746094-19.585938-43.746094-43.746094v-159.609375c0-32.097656 9.5-63.480469 27.300781-90.1875" fill="#ffd578"/><path d="m75.320312 75.09375 6.828126-.007812v-13.648438h197.976562v13.65625c0 1.332031.40625 2.679688 1.148438 3.785156 17.054687 25.582032 26.15625 55.652344 26.15625 86.402344v159.609375c-.003907 10.207031-4.125 19.402344-10.816407 26.105469-6.703125 6.691406-15.890625 10.8125-26.109375 10.820312h-178.738281c-10.214844-.007812-19.402344-4.128906-26.105469-10.820312-6.691406-6.703125-10.8125-15.894532-10.820312-26.105469v-159.609375c0-30.75 9.105468-60.820312 26.160156-86.402344.761719-1.136718 1.148438-2.421875 1.148438-3.792968l-6.828126.007812-5.679687-3.789062c-18.554687 27.824218-28.449219 60.523437-28.449219 93.976562v159.609375c.003906 27.929687 22.644532 50.570313 50.578125 50.570313h178.738281c27.929688 0 50.570313-22.640626 50.578126-50.570313v-159.609375c0-33.453125-9.894532-66.152344-28.453126-93.976562l-5.679687 3.789062h6.820313v-20.480469c0-1.796875-.722657-3.554687-1.996094-4.828125-1.269532-1.269531-3.03125-2-4.824219-2h-211.632813c-1.800781 0-3.558593.730469-4.832031 2-1.265625 1.269532-2 3.027344-2 4.828125l.007813 20.480469h6.824218l-5.679687-3.789062z" fill="#54596e"/><path d="m75.320312 75.09375v-20.480469h211.632813v20.480469c17.808594 26.707031 27.300781 58.089844 27.300781 90.1875v159.609375c0 24.160156-19.589844 43.746094-43.75 43.746094h-178.738281c-24.160156 0-43.746094-19.585938-43.746094-43.746094v-159.609375c0-32.097656 9.5-63.480469 27.300781-90.1875" fill="#ffd578"/><path d="m75.320312 75.09375 6.828126-.007812v-13.648438h197.976562v13.65625c0 1.332031.40625 2.679688 1.148438 3.785156 17.054687 25.582032 26.15625 55.652344 26.15625 86.402344v159.609375c-.003907 10.207031-4.125 19.402344-10.816407 26.105469-6.703125 6.691406-15.890625 10.8125-26.109375 10.820312h-178.738281c-10.214844-.007812-19.402344-4.128906-26.105469-10.820312-6.691406-6.703125-10.8125-15.894532-10.820312-26.105469v-159.609375c0-30.75 9.105468-60.820312 26.160156-86.402344.761719-1.136718 1.148438-2.421875 1.148438-3.792968l-6.828126.007812-5.679687-3.789062c-18.554687 27.824218-28.449219 60.523437-28.449219 93.976562v159.609375c.003906 27.929687 22.644532 50.570313 50.578125 50.570313h178.738281c27.929688 0 50.570313-22.640626 50.578126-50.570313v-159.609375c0-33.453125-9.894532-66.152344-28.453126-93.976562l-5.679687 3.789062h6.820313v-20.480469c0-1.796875-.722657-3.554687-1.996094-4.828125-1.269532-1.269531-3.03125-2-4.824219-2h-211.632813c-1.800781 0-3.558593.730469-4.832031 2-1.265625 1.269532-2 3.027344-2 4.828125l.007813 20.480469h6.824218l-5.679687-3.789062z" fill="#54596e"/><path d="m283.535156 54.613281h-211.625c-13.195312 0-23.894531-10.699219-23.894531-23.894531s10.699219-23.890625 23.894531-23.890625h211.625c13.199219 0 23.894532 10.695313 23.894532 23.890625s-10.695313 23.894531-23.894532 23.894531zm0 0" fill="#a1b7ff"/><path d="m283.535156 54.613281v-6.828125h-211.625c-9.425781-.019531-17.050781-7.644531-17.066406-17.066406.015625-9.425781 7.640625-17.046875 17.066406-17.070312h211.625c9.425782.023437 17.050782 7.644531 17.066406 17.070312-.015624 9.421875-7.640624 17.046875-17.066406 17.066406v13.652344c16.972656-.003906 30.71875-13.75 30.722656-30.71875-.003906-16.96875-13.75-30.71484375-30.722656-30.71875h-211.625c-16.96875.00390625-30.71875 13.75-30.71875 30.71875s13.75 30.714844 30.71875 30.71875h211.625zm0 0" fill="#54596e"/><path d="m307.429688 314.222656c-7.761719 12.195313-21.398438 20.285156-36.925782 20.285156h-178.738281c-15.523437 0-29.160156-8.085937-36.925781-20.28125v10.664063c.007812 10.207031 4.128906 19.402344 10.820312 26.105469 6.703125 6.691406 15.890625 10.8125 26.105469 10.820312h178.738281c10.21875-.007812 19.40625-4.128906 26.109375-10.820312 6.691407-6.703125 10.8125-15.894532 10.816407-26.105469z" fill="#ddbc76"/><path d="m314.253906 290.75c0 8.636719-2.503906 16.691406-6.824218 23.472656v10.667969c-.003907 10.207031-4.125 19.402344-10.816407 26.105469-6.703125 6.691406-15.890625 10.8125-26.109375 10.820312h-178.738281c-10.214844-.007812-19.402344-4.128906-26.105469-10.820312-6.691406-6.703125-10.8125-15.894532-10.820312-26.105469v-10.664063c-4.320313-6.785156-6.820313-14.835937-6.820313-23.476562v34.140625c0 24.160156 19.585938 43.746094 43.746094 43.746094h178.738281c24.160156 0 43.75-19.585938 43.75-43.746094z" fill="#54596e"/><path d="m48.015625 40.960938h88.746094c3.773437 0 6.828125-3.058594 6.828125-6.828126 0-3.773437-3.054688-6.824218-6.828125-6.824218h-88.746094c-3.769531 0-6.824219 3.050781-6.824219 6.824218 0 3.769532 3.054688 6.828126 6.824219 6.828126" fill="#54596e"/><path d="m164.070312 40.960938h47.785157c3.769531 0 6.828125-3.058594 6.828125-6.828126 0-3.773437-3.058594-6.824218-6.828125-6.824218h-47.785157c-3.769531 0-6.828124 3.050781-6.828124 6.824218 0 3.769532 3.058593 6.828126 6.828124 6.828126" fill="#54596e"/><path d="m48.015625 197.972656h266.242187v-32.691406c0-32.101562-9.5-63.480469-27.308593-90.1875v-20.480469h-211.628907l.003907 20.480469c-17.808594 26.707031-27.308594 58.085938-27.308594 90.1875zm0 0" fill="#a1b7ff"/><path d="m48.015625 197.972656v6.824219h266.242187c1.820313 0 3.535157-.707031 4.824219-1.996094 1.292969-1.292969 2-3.003906 2-4.828125v-32.691406c0-33.453125-9.898437-66.148438-28.453125-93.976562l-5.679687 3.789062h6.828125v-20.480469c0-1.800781-.730469-3.558593-2-4.828125-1.273438-1.269531-3.03125-2-4.828125-2h-211.628907c-1.796874 0-3.558593.730469-4.828124 2-1.269532 1.269532-2 3.027344-2 4.828125l.003906 20.480469h6.828125l-5.679688-3.789062c-18.554687 27.828124-28.453125 60.523437-28.453125 93.976562v32.691406c0 1.824219.707032 3.535156 2 4.828125 1.289063 1.289063 3.003906 1.996094 4.824219 1.996094v-6.824219h6.828125v-32.691406c0-30.753906 9.101562-60.816406 26.160156-86.402344.753906-1.136718 1.144532-2.425781 1.144532-3.789062v-13.652344h197.976562v13.65625c0 1.328125.40625 2.675781 1.144531 3.785156 17.058594 25.585938 26.160157 55.648438 26.160157 86.402344v25.863281l-259.414063.003907v6.824218h6.828125zm0 0" fill="#54596e"/><path d="m102.628906 157.011719c0-37.703125-21.390625-81.917969-47.785156-81.917969s-47.789062 44.214844-47.789062 81.917969c0 30.519531 14.023437 47.402343 33.363281 52.734375l-5.203125 124.777344c-.464844 11.164062 8.457031 20.464843 19.628906 20.464843 11.167969 0 20.09375-9.300781 19.625-20.464843l-5.199219-124.777344c19.339844-5.332032 33.359375-22.214844 33.359375-52.734375zm0 0" fill="#bfad88"/><path d="m102.628906 157.011719h6.828125c-.03125-20.140625-5.59375-41.46875-14.835937-58.382813-4.644532-8.449218-10.222656-15.820312-16.820313-21.296875-6.566406-5.453125-14.398437-9.070312-22.957031-9.066406-8.5625-.003906-16.394531 3.613281-22.957031 9.066406-9.875 8.230469-17.554688 20.65625-23.035157 34.722657-5.445312 14.082031-8.613281 29.851562-8.621093 44.957031-.007813 16.28125 3.753906 29.578125 10.609375 39.652343 6.832031 10.078126 16.722656 16.648438 27.761718 19.660157l1.8125-6.578125-6.820312-.285156-5.199219 124.773437-.023437 1.117187c.007812 14.550782 11.792968 26.449219 26.472656 26.457032 14.675781-.003906 26.464844-11.898438 26.46875-26.453125l-.019531-1.113281-5.203125-124.78125-6.820313.285156 1.816407 6.582031c11.035156-3.015625 20.929687-9.585937 27.761718-19.664063 6.855469-10.074218 10.617188-23.367187 10.609375-39.648437h-13.652343c-.007813 14.234375-3.257813 24.636719-8.246094 31.964844-5.015625 7.324219-11.800782 11.863281-20.105469 14.183593-3.0625.84375-5.136719 3.695313-5.003906 6.867188l5.199219 124.777344.011718.546875c-.011718 7.023437-5.714844 12.789062-12.816406 12.804687-7.101562-.015625-12.804688-5.789062-12.816406-12.808594l.011718-.542968 5.199219-124.777344c.132813-3.171875-1.945312-6.023438-5.003906-6.867188-8.304687-2.320312-15.089844-6.859374-20.105469-14.183593-4.992187-7.328125-8.238281-17.734375-8.246094-31.964844-.03125-17.566406 5.101563-37.199219 13.15625-51.816406 4.003907-7.316407 8.722657-13.359375 13.558594-17.351563 4.871094-4.015625 9.609375-5.925781 14.246094-5.929687 4.636719.003906 9.375 1.914062 14.246094 5.929687 7.277344 5.972656 14.191406 16.617188 19.015625 29.144532 4.855469 12.507812 7.707031 26.847656 7.699219 40.019531zm0 0" fill="#54596e"/><path d="m228.921875 6.828125h-40.957031c-1.886719 0-3.414063 1.527344-3.414063 3.410156v68.269531c0 13.195313 10.695313 23.890626 23.890625 23.890626 3.679688 0 7.128906-.898438 10.242188-2.382813v9.210937c0 11.308594 9.167968 20.480469 20.480468 20.480469 11.308594 0 20.480469-9.171875 20.480469-20.480469v-102.398437zm0 0" fill="#fff35f"/><path d="m228.921875 6.828125v-6.828125h-40.957031c-5.65625 0-10.242188 4.585938-10.242188 10.238281v68.269531c.003906 16.964844 13.75 30.710938 30.71875 30.714844 4.800782.003906 9.277344-1.183594 13.183594-3.050781l-2.941406-6.15625h-6.828125v9.210937c.007812 15.082032 12.222656 27.300782 27.308593 27.304688 15.082032-.003906 27.300782-12.222656 27.304688-27.304688v-102.398437c0-1.800781-.726562-3.558594-2-4.832031-1.269531-1.269532-3.027344-1.996094-4.824219-1.996094h-30.722656v13.648438h23.894531v95.578124c-.011718 7.535157-6.117187 13.636719-13.652344 13.652344-7.539062-.015625-13.640624-6.117187-13.652343-13.652344v-9.210937c0-2.355469-1.199219-4.519531-3.183594-5.777344-1.988281-1.253906-4.464844-1.402343-6.585937-.390625-2.320313 1.109375-4.738282 1.722656-7.300782 1.726563-9.421875-.019531-17.046875-7.644531-17.066406-17.066407v-68.269531h-3.410156v3.410157c1.878906 0 3.410156-1.527344 3.410156-3.410157h-3.410156v3.410157h40.957031zm0 0" fill="#54596e"/><path d="m211.855469 6.828125v54.613281c0 3.769532 3.058593 6.824219 6.828125 6.824219 3.769531 0 6.828125-3.054687 6.828125-6.824219v-54.613281c0-3.773437-3.058594-6.828125-6.828125-6.828125-3.769532 0-6.828125 3.054688-6.828125 6.828125" fill="#54596e"/><path d="m225.511719 211.625c0-18.851562-15.285157-34.132812-34.136719-34.132812-18.847656 0-34.132812 15.28125-34.132812 34.132812" fill="#ffd578"/><path d="m232.335938 211.625c-.003907-22.625-18.335938-40.953125-40.960938-40.957031-22.621094.003906-40.953125 18.332031-40.957031 40.957031 0 3.773438 3.054687 6.828125 6.824219 6.828125 3.769531 0 6.828124-3.054687 6.828124-6.828125.003907-7.5625 3.046876-14.34375 7.996094-19.308594 4.964844-4.953125 11.746094-7.992187 19.308594-8 7.5625.007813 14.347656 3.046875 19.308594 8 4.953125 4.964844 7.996094 11.746094 8 19.308594 0 3.773438 3.054687 6.828125 6.828125 6.828125 3.769531 0 6.824219-3.054687 6.824219-6.828125zm0 0" fill="#54596e"/><path d="m266.46875 211.625c0-11.308594-9.167969-20.476562-20.480469-20.476562-11.308593 0-20.476562 9.167968-20.476562 20.476562" fill="#ffd578"/><g fill="#54596e"><path d="m273.296875 211.625c-.003906-15.085938-12.222656-27.300781-27.308594-27.304688-15.082031.003907-27.300781 12.21875-27.304687 27.304688 0 3.773438 3.054687 6.828125 6.828125 6.828125 3.769531 0 6.824219-3.054687 6.824219-6.828125.015624-7.535156 6.117187-13.636719 13.652343-13.65625 7.539063.019531 13.640625 6.121094 13.65625 13.65625 0 3.773438 3.054688 6.828125 6.824219 6.828125s6.828125-3.054687 6.828125-6.828125zm0 0"/><path d="m144.433594 305.4375c8.980468 9.75 23.652344 15.355469 40.117187 15.414062 16.304688-.054687 30.839844-5.554687 39.84375-15.128906 2.566407-2.761718 2.402344-7.082031-.359375-9.644531-2.761718-2.5625-7.078125-2.402344-9.640625.359375-5.4375 5.96875-16.707031 10.816406-29.84375 10.765625-13.265625.054687-24.632812-4.898437-30.011719-10.949219-2.535156-2.792968-6.855468-2.996094-9.644531-.460937-2.789062 2.539062-2.996093 6.855469-.457031 9.648437zm0 0"/><path d="m136.761719 259.414062c0 7.539063-6.109375 13.652344-13.652344 13.652344-7.539063 0-13.652344-6.113281-13.652344-13.652344 0-7.542968 6.113281-13.652343 13.652344-13.652343 7.542969 0 13.652344 6.109375 13.652344 13.652343zm0 0"/><path d="m259.644531 259.414062c0 7.539063-6.113281 13.652344-13.65625 13.652344-7.539062 0-13.652343-6.113281-13.652343-13.652344 0-7.542968 6.113281-13.652343 13.652343-13.652343 7.542969 0 13.65625 6.109375 13.65625 13.652343zm0 0"/></g></svg>