<svg height="386pt" viewBox="-1 0 386 386.50693" width="386pt" xmlns="http://www.w3.org/2000/svg"><path d="m16.222656 375.65625 257.453125-169.054688-96.53125-96.535156-169.054687 257.457032c-3.5 5.324218 2.804687 11.636718 8.132812 8.132812zm0 0" fill="#ffd578"/><path d="m16.222656 375.65625 3.746094 5.703125 257.453125-169.054687c1.714844-1.125 2.835937-2.96875 3.046875-5.007813.207031-2.039063-.515625-4.078125-1.964844-5.523437l-96.53125-96.535157c-1.453125-1.453125-3.488281-2.175781-5.527344-1.964843-2.035156.210937-3.882812 1.328124-5.007812 3.042968l-169.054688 257.457032c-1.394531 2.101562-2.140624 4.59375-2.128906 6.980468.011719 3.578125 1.523438 6.722656 3.765625 8.960938 2.242188 2.242187 5.382813 3.757812 8.964844 3.765625 2.363281.011719 4.851563-.71875 6.964844-2.105469l.023437-.015625-3.75-5.703125-3.726562-5.722656.488281.746094v-.851563l-.488281.105469.488281.746094v-.847657.914063l.6875-.679688-.6875-.234375v.914063l.6875-.679688-.691406.6875h.925781l-.234375-.6875-.691406.6875h.925781-.902344l.789063.519532.113281-.519532h-.902344l.789063.519532 164.453125-250.453126 84.671875 84.675782-250.441407 164.453125.019532-.015625zm0 0" fill="#54596e"/><path d="m356.457031 120.269531v136.53125c0 7.542969-6.113281 13.65625-13.65625 13.65625-7.539062 0-13.652343-6.113281-13.652343-13.65625v-102.398437" fill="#ffb8f2"/><path d="m349.628906 120.269531v136.53125c-.007812 3.765625-3.058594 6.816407-6.828125 6.828125-3.765625-.011718-6.820312-3.0625-6.824219-6.828125v-102.398437c0-3.773438-3.058593-6.828125-6.828124-6.828125-3.769532 0-6.828126 3.054687-6.828126 6.828125v102.398437c.007813 11.316407 9.167969 20.472657 20.480469 20.476563 11.316407-.003906 20.476563-9.160156 20.480469-20.476563v-136.53125c0-3.773437-3.054688-6.828125-6.824219-6.828125-3.773437 0-6.828125 3.054688-6.828125 6.828125zm0 0" fill="#54596e"/><path d="m297.476562 183.804688c19.515626-2.050782 38.480469-10.519532 53.4375-25.476563 34.65625-34.65625 34.65625-90.84375 0-125.503906-34.660156-34.660157-90.851562-34.660157-125.503906 0-14.960937 14.957031-23.429687 33.925781-25.476562 53.4375-10.378906-5.734375-23.652344-4.316407-32.453125 4.488281-10.664063 10.660156-10.664063 27.953125 0 38.617188 5.800781 5.800781 13.554687 8.332031 21.140625 7.820312-.511719 7.585938 2.019531 15.339844 7.820312 21.140625 5.800782 5.800781 13.554688 8.335937 21.140625 7.828125-.507812 7.585938 2.027344 15.335938 7.828125 21.140625 5.796875 5.796875 13.546875 8.328125 21.140625 7.820313-.515625 7.585937 2.019531 15.339843 7.820313 21.140624 10.664062 10.664063 27.953125 10.664063 38.617187 0 8.800781-8.804687 10.222657-22.074218 4.488281-32.453124zm0 0" fill="#ffb8f2"/><g fill="#54596e"><path d="m297.476562 183.804688.714844 6.785156c20.992188-2.195313 41.457032-11.335938 57.550782-27.433594 18.648437-18.644531 28-43.144531 27.992187-67.582031.007813-24.441407-9.34375-48.941407-27.992187-67.582031-18.644532-18.648438-43.144532-28.0039068-67.582032-27.992188-24.4375-.0117188-48.9375 9.339844-67.578125 27.996094-16.101562 16.089844-25.238281 36.558594-27.433593 57.554687l6.789062.710938 3.304688-5.976563c-5.160157-2.851562-10.890626-4.289062-16.621094-4.289062-8.636719-.011719-17.363282 3.292968-23.972656 9.933594-6.644532 6.632812-10 15.410156-9.992188 24.125-.007812 8.710937 3.347656 17.484374 9.996094 24.140624 6.660156 6.664063 15.441406 9.890626 24.0625 9.878907.828125 0 1.582031-.035157 2.261718-.066407l-.355468-6.816406-6.8125-.46875c-.050782.792969-.078125 1.582032-.078125 2.378906-.015625 8.625 3.222656 17.394532 9.882812 24.054688 6.664063 6.667969 15.449219 9.898438 24.074219 9.886719.824219 0 1.574219-.035157 2.253906-.066407l-.359375-6.816406-6.8125-.460937c-.054687.777343-.082031 1.5625-.078125 2.347656-.015625 8.628906 3.222656 17.40625 9.886719 24.074219 6.660156 6.667968 15.4375 9.894531 24.0625 9.878906.828125 0 1.582031-.03125 2.265625-.066406l-.355469-6.816406-6.8125-.464844c-.054687.789062-.082031 1.582031-.082031 2.378906-.011719 8.621094 3.222656 17.390625 9.882812 24.050781 6.652344 6.65625 15.429688 10.007813 24.140626 9.996094 8.71875.011719 17.488281-3.351563 24.132812-9.988281 6.621094-6.621094 9.933594-15.335938 9.921875-23.976563 0-5.726562-1.433594-11.457031-4.28125-16.613281l-5.976563 3.304688.714844 6.785156-.714844-6.785156-5.972656 3.300781c1.710938 3.097656 2.578125 6.554687 2.578125 10.003906-.011719 5.21875-1.945312 10.335937-5.921875 14.320313-4.011718 4.003906-9.222656 5.988281-14.480468 5.996093-5.265626-.007812-10.464844-1.984375-14.480469-6-3.96875-3.976562-5.875-9.105469-5.886719-14.398437l.046875-1.449219c.132813-1.945313-.574219-3.863281-1.945313-5.253906-1.367187-1.386719-3.273437-2.132813-5.222656-2.027344l-1.546875.050781c-5.3125-.011718-10.433593-1.917968-14.40625-5.882812-3.972656-3.980469-5.878906-9.117188-5.890625-14.417969l.046875-1.433594c.128907-1.945312-.578125-3.859375-1.949219-5.25-1.367187-1.390625-3.273437-2.128906-5.222656-2.027343l-1.53125.054687c-5.308594-.015625-10.445312-1.925781-14.421875-5.890625-3.964843-3.976562-5.871093-9.109375-5.882812-14.402344l.046875-1.445312c.132812-1.949219-.574219-3.863282-1.945313-5.253906-1.367187-1.390626-3.273437-2.132813-5.222656-2.03125l-1.546875.054687c-5.304688-.015625-10.4375-1.921875-14.40625-5.882813-4.015625-4.023437-5.992188-9.222656-6-14.484374.007812-5.265626 1.984375-10.460938 5.996094-14.476563 3.984375-3.992187 9.089844-5.917969 14.3125-5.933594 3.445312 0 6.902344.871094 10.011718 2.59375 1.996094 1.101563 4.4375 1.132813 6.460938.074219 2.023438-1.050781 3.394531-3.070312 3.632812-5.339844 1.898438-18.03125 9.691407-35.503906 23.511719-49.320312 16.011719-16.015625 36.933594-23.992188 57.921875-24 20.988282.007812 41.914063 7.988281 57.929688 24 16.003906 16.003906 23.980468 36.933594 23.988281 57.921875-.007813 20.984375-7.980469 41.914062-23.988281 57.925781-13.824219 13.816406-31.289063 21.609375-49.328125 23.511719-2.269531.238281-4.285157 1.609375-5.339844 3.632812-1.054687 2.023438-1.023437 4.460938.082031 6.460938zm0 0"/><path d="m249.390625 85.769531c-8.027344 17.96875-7.703125 35.671875 2.597656 45.976563 10.199219 10.195312 27.652344 10.617187 45.433594 2.839844zm0 0"/><path d="m282.914062 51.722656c-4-4-10.480468-4-14.480468 0-4 3.996094-4 10.480469 0 14.480469 4 3.996094 10.480468 3.996094 14.480468 0 3.996094-4 3.996094-10.484375 0-14.480469zm0 0"/><path d="m332.011719 100.820312c-4-3.996093-10.480469-3.996093-14.480469 0-3.996094 4-3.996094 10.480469 0 14.480469 4 3.996094 10.480469 3.996094 14.480469 0 4-4 4-10.480469 0-14.480469zm0 0"/></g><path d="m208.089844 309.589844c-6.664063-6.664063-17.46875-6.664063-24.132813 0-6.664062 6.664062-6.664062 17.46875 0 24.132812 6.664063 6.664063 17.46875 6.664063 24.132813 0 6.664062-6.664062 6.664062-17.46875 0-24.132812zm0 0" fill="#ffb8f2"/><path d="m364.101562 337.894531c-7.996093-7.996093-20.960937-7.996093-28.957031 0-8 8-8 20.964844 0 28.960938 7.996094 7.996093 20.960938 7.996093 28.957031 0 8-7.996094 8-20.960938 0-28.960938zm0 0" fill="#ffb8f2"/><path d="m277.355469 363.203125c-5.332031-5.332031-13.972657-5.332031-19.304688 0s-5.332031 13.972656 0 19.304687c5.332031 5.332032 13.972657 5.332032 19.304688 0 5.332031-5.332031 5.332031-13.972656 0-19.304687zm0 0" fill="#ffb8f2"/><path d="m330.179688 37.527344c-11.976563-8.097656-26.460938-12.835938-41.992188-12.832032-3.769531 0-6.824219 3.054688-6.824219 6.828126 0 3.769531 3.054688 6.824218 6.824219 6.824218 12.75 0 24.53125 3.863282 34.347656 10.488282 3.121094 2.109374 7.363282 1.289062 9.472656-1.832032 2.113282-3.125 1.292969-7.363281-1.828124-9.472656zm0 0" fill="#fff"/><path d="m288.1875 168.054688v136.535156c0 7.539062-6.113281 13.652344-13.652344 13.652344-7.539062 0-13.652344-6.113282-13.652344-13.652344v-88.746094" fill="#ffb8f2"/><path d="m281.363281 168.054688v136.535156c-.007812 3.761718-3.0625 6.816406-6.828125 6.824218-3.765625-.007812-6.820312-3.0625-6.828125-6.824218v-88.746094c0-3.773438-3.054687-6.828125-6.824219-6.828125-3.769531 0-6.828124 3.054687-6.828124 6.828125v88.746094c.003906 11.3125 9.167968 20.472656 20.480468 20.476562 11.3125-.003906 20.476563-9.164062 20.480469-20.476562v-136.535156c0-3.773438-3.058594-6.824219-6.828125-6.824219s-6.824219 3.050781-6.824219 6.824219zm0 0" fill="#54596e"/></svg>