<svg height="402pt" viewBox="-37 0 402 402.76992" width="402pt" xmlns="http://www.w3.org/2000/svg"><path d="m59.40625 81.921875c-32.035156 39.113281-52.195312 95.859375-52.195312 159.027344 0 52.609375 14 100.75 37.179687 137.972656 6.613281 10.617187 16.765625 17.027344 27.652344 17.027344h184.359375c10.886718 0 21.042968-6.410157 27.65625-17.027344 23.179687-37.222656 37.179687-85.363281 37.179687-137.972656 0-63.167969-20.160156-119.914063-52.191406-159.027344zm0 0" fill="#ffd578"/><path d="m59.40625 81.921875-5.285156-4.328125c-33.171875 40.542969-53.71875 98.730469-53.734375 163.355469.003906 53.820312 14.296875 103.160156 38.210937 141.578125 7.558594 12.195312 19.78125 20.234375 33.449219 20.242187h184.359375c13.667969-.007812 25.890625-8.050781 33.445312-20.242187 23.917969-38.417969 38.203126-87.757813 38.214844-141.578125-.019531-64.621094-20.566406-122.8125-53.738281-163.355469-1.300781-1.585938-3.234375-2.5-5.28125-2.5h-209.640625c-2.050781 0-3.984375.914062-5.285156 2.5l5.285156 4.328125v6.820313h209.640625v-6.820313l-5.285156 4.320313c30.894531 37.683593 50.667969 92.988281 50.648437 154.707031.007813 51.394531-13.703125 98.335937-36.148437 134.359375-5.667969 9.042968-13.75 13.816406-21.859375 13.8125h-184.359375c-8.105469.003906-16.1875-4.769532-21.859375-13.8125-22.441406-36.023438-36.152344-82.960938-36.144532-134.359375-.019531-61.71875 19.753907-117.019531 50.648438-154.703125l-5.28125-4.324219v6.820313zm0 0" fill="#54596e"/><path d="m124.113281 243.992188c8.976563 9.757812 23.644531 15.363281 40.113281 15.417968 16.300782-.054687 30.839844-5.554687 39.847657-15.125 2.5625-2.765625 2.402343-7.085937-.359375-9.648437-2.761719-2.5625-7.082032-2.402344-9.644532.359375-5.433593 5.972656-16.710937 10.820312-29.84375 10.765625-13.265624.054687-24.636718-4.898438-30.007812-10.941407-2.53125-2.796874-6.851562-3.003906-9.644531-.46875-2.789063 2.539063-2.996094 6.855469-.460938 9.648438zm0 0" fill="#54596e"/><path d="m116.4375 197.972656c0 7.542969-6.113281 13.652344-13.652344 13.652344-7.539062 0-13.652344-6.109375-13.652344-13.652344 0-7.539062 6.113282-13.652344 13.652344-13.652344 7.539063 0 13.652344 6.113282 13.652344 13.652344zm0 0" fill="#54596e"/><path d="m239.316406 197.972656c0 7.542969-6.109375 13.652344-13.652344 13.652344-7.539062 0-13.652343-6.109375-13.652343-13.652344 0-7.539062 6.113281-13.652344 13.652343-13.652344 7.542969 0 13.652344 6.113282 13.652344 13.652344zm0 0" fill="#54596e"/><path d="m314.410156 116.054688-17.3125 8.65625c-6.28125 3.140624-13.679687 3.09375-19.925781-.113282l-19.953125-10.261718c-6.246094-3.210938-13.648438-3.253907-19.929688-.113282l-21.246093 10.625c-6.132813 3.0625-13.332031 3.101563-19.492188.105469l-22.554687-10.972656c-6.15625-2.996094-13.367188-2.957031-19.492188.105469l-21.320312 10.660156c-6.238282 3.117187-13.585938 3.097656-19.8125-.058594l-20.738282-10.515625c-6.148437-3.113281-13.402343-3.171875-19.601562-.160156l-22.378906 10.886719c-6.21875 3.027343-13.5 2.957031-19.660156-.183594l-16.953126-8.660156 54.613282-34.132813h191.144531zm0 0" fill="#ffb8f2"/><path d="m314.410156 116.054688-3.050781-6.109376-17.316406 8.65625c-2.136719 1.066407-4.460938 1.597657-6.792969 1.601563-2.378906 0-4.777344-.566406-6.976562-1.6875l.019531.007813-19.953125-10.257813c-4.132813-2.128906-8.667969-3.203125-13.199219-3.199219-4.410156-.003906-8.84375 1.007813-12.917969 3.058594l.015625-.007812-21.246093 10.625c-2.140626 1.066406-4.46875 1.601562-6.804688 1.601562-2.273438-.003906-4.550781-.511719-6.652344-1.53125l-22.546875-10.972656c-3.980469-1.941406-8.304687-2.914063-12.625-2.914063-4.421875 0-8.855469 1.011719-12.925781 3.0625l.015625-.007812-21.320313 10.660156c-2.136718 1.066406-4.460937 1.597656-6.796874 1.601563-2.351563 0-4.714844-.554688-6.890626-1.652344l.015626.011718-20.738282-10.515624c-4.09375-2.078126-8.570312-3.128907-13.050781-3.125-4.308594-.003907-8.640625.960937-12.644531 2.925781l.019531-.011719-22.378906 10.886719c-2.097657 1.015625-4.371094 1.523437-6.65625 1.527343-2.367188 0-4.75-.558593-6.9375-1.667968l.023437.015625-6.222656-3.179688 42.738281-26.714843h187.230469l52.953125 33.101562 3.613281-5.789062-3.050781-6.109376 3.050781 6.109376 3.621094-5.792969-54.613281-34.132813c-1.074219-.671875-2.355469-1.035156-3.621094-1.035156h-191.144531c-1.265625 0-2.546875.367188-3.617188 1.035156l-54.613281 34.132813c-2.089844 1.304687-3.308594 3.625-3.203125 6.082031s1.523438 4.664062 3.714844 5.785156l16.953125 8.660156.023437.011719c4.101563 2.074219 8.589844 3.136719 13.101563 3.136719 4.304687 0 8.632812-.960938 12.625-2.898438l22.382812-10.890624.019531-.007813c2.085938-1.027344 4.347657-1.527344 6.632813-1.53125 2.351563.003906 4.707031.554687 6.871094 1.652344l20.742187 10.515625.019532.007812c4.082031 2.058594 8.550781 3.105469 13.03125 3.105469 4.414062.003906 8.835937-1.007813 12.902343-3.039063l21.335938-10.667968c2.128906-1.070313 4.449219-1.601563 6.789062-1.605469 2.269531.003906 4.542969.511719 6.644531 1.535156l22.558594 10.976563c3.988282 1.9375 8.304688 2.90625 12.625 2.902344 4.417969.003906 8.84375-1.007813 12.90625-3.039063l21.265625-10.632813c2.128907-1.070312 4.445313-1.601562 6.78125-1.601562 2.382813.003906 4.765625.5625 6.953125 1.6875l19.953125 10.261719.019531.011719c4.125 2.101562 8.644532 3.175781 13.179688 3.175781 4.410156 0 8.835938-1.007813 12.902344-3.042969l17.316406-8.65625c2.199219-1.101562 3.648438-3.320312 3.765625-5.777344.117187-2.460937-1.113281-4.8125-3.199219-6.113281zm0 0" fill="#54596e"/><path d="m273.453125 81.921875h-225.28125c-7.539063 0-13.652344-6.113281-13.652344-13.65625 0-7.539063 6.113281-13.652344 13.652344-13.652344h225.28125c7.539063 0 13.652344 6.113281 13.652344 13.652344 0 7.542969-6.113281 13.65625-13.652344 13.65625zm0 0" fill="#d8d8d8"/><path d="m273.453125 81.921875v-6.828125h-225.28125c-3.765625-.011719-6.820313-3.0625-6.828125-6.828125.007812-3.765625 3.0625-6.820313 6.828125-6.828125h225.28125c3.765625.007812 6.816406 3.0625 6.824219 6.828125-.007813 3.765625-3.058594 6.816406-6.824219 6.828125v13.648438c11.3125-.003907 20.472656-9.160157 20.476563-20.476563-.003907-11.316406-9.164063-20.476563-20.476563-20.480469h-225.28125c-11.3125.003906-20.476563 9.164063-20.480469 20.480469.003906 11.316406 9.167969 20.472656 20.480469 20.476563h225.28125zm0 0" fill="#54596e"/><path d="m244.1875 6.828125h-166.75c-12.390625 0-22.4375 10.046875-22.4375 22.433594v25.351562h211.625v-25.351562c0-12.386719-10.046875-22.433594-22.4375-22.433594zm0 0" fill="#ffb8f2"/><path d="m244.1875 6.828125v-6.828125h-166.75c-16.164062.00390625-29.261719 13.097656-29.265625 29.261719v25.351562c0 1.824219.710937 3.535157 2 4.828125 1.289063 1.289063 3.003906 1.996094 4.828125 1.996094h211.625c1.824219 0 3.535156-.707031 4.828125-1.996094 1.289063-1.292968 2-3.003906 2-4.828125v-25.351562c-.007813-16.167969-13.101563-29.261719-29.265625-29.261719v13.648438c8.617188.019531 15.59375 7 15.609375 15.613281v18.523437h-197.972656v-18.523437c.015625-8.617188 6.992187-15.597657 15.613281-15.613281h166.75zm0 0" fill="#54596e"/><g fill="#fff35f"><path d="m75.476562 163.839844c0 7.539062-6.109374 13.652344-13.652343 13.652344-7.539063 0-13.652344-6.113282-13.652344-13.652344 0-7.539063 6.113281-13.652344 13.652344-13.652344 7.542969 0 13.652343 6.113281 13.652343 13.652344zm0 0"/><path d="m109.613281 320.851562c0 7.542969-6.113281 13.65625-13.65625 13.65625-7.539062 0-13.652343-6.113281-13.652343-13.65625 0-7.539062 6.113281-13.652343 13.652343-13.652343 7.542969 0 13.65625 6.113281 13.65625 13.652343zm0 0"/><path d="m123.265625 266.238281c0 7.542969-6.113281 13.65625-13.652344 13.65625-7.542969 0-13.65625-6.113281-13.65625-13.65625 0-7.539062 6.113281-13.652343 13.65625-13.652343 7.539063 0 13.652344 6.113281 13.652344 13.652343zm0 0"/><path d="m252.972656 314.027344c0 7.539062-6.113281 13.652344-13.65625 13.652344-7.539062 0-13.652344-6.113282-13.652344-13.652344 0-7.542969 6.113282-13.652344 13.652344-13.652344 7.542969 0 13.65625 6.109375 13.65625 13.652344zm0 0"/><path d="m68.652344 273.066406c0 7.539063-6.113282 13.652344-13.652344 13.652344-7.542969 0-13.65625-6.113281-13.65625-13.652344 0-7.539062 6.113281-13.652344 13.65625-13.652344 7.539062 0 13.652344 6.113282 13.652344 13.652344zm0 0"/><path d="m239.316406 368.640625c0-3.769531-33.617187-27.308594-75.089844-27.308594-41.476562 0-75.09375 23.539063-75.09375 27.308594s33.617188 6.824219 75.09375 6.824219c41.472657 0 75.089844-3.054688 75.089844-6.824219zm0 0"/></g></svg>