<svg height="420pt" viewBox="0 -8 420.33329 420" width="420pt" xmlns="http://www.w3.org/2000/svg"><path d="m407.507812 75.746094c-8.003906-7.996094-20.96875-7.996094-28.960937 0l14.476563-14.480469c7.996093-8 8.003906-20.964844 0-28.960937-8-8-20.964844-8-28.964844 0l-82.0625 82.0625 28.960937 28.960937 28.96875 28.964844 67.582031-67.578125c7.996094-8.003906 7.996094-20.96875 0-28.96875zm0 0" fill="#9af43b"/><path d="m407.507812 75.746094 4.824219-4.828125c-5.316406-5.320313-12.34375-8.007813-19.308593-8-6.964844-.007813-13.996094 2.671875-19.308594 8.003906-2.664063 2.664063-2.660156 6.988281.007812 9.648437 2.664063 2.667969 6.984375 2.664063 9.652344 0l14.476562-14.480468c5.320313-5.320313 8.003907-12.347656 7.996094-19.3125.007813-6.96875-2.675781-13.996094-8-19.308594-5.3125-5.316406-12.339844-8-19.304687-7.992188-6.964844-.011718-13.996094 2.671876-19.3125 8l-82.058594 82.058594c-1.273437 1.269532-2 3.03125-2 4.832032 0 1.796874.730469 3.550781 2 4.824218l28.960937 28.960938 28.964844 28.96875c1.289063 1.285156 3.003906 1.996094 4.828125 1.996094s3.539063-.710938 4.828125-1.996094l67.582032-67.582032c5.316406-5.320312 8.007812-12.347656 7.996093-19.3125.011719-6.96875-2.679687-14-8-19.3125l-9.648437 9.664063c2.671875 2.671875 3.988281 6.128906 3.996094 9.648437-.007813 3.511719-1.320313 6.96875-4 9.660157l-62.757813 62.75-24.136719-24.140625-24.132812-24.132813 77.234375-77.234375c2.683593-2.683594 6.132812-3.992187 9.65625-4.003906 3.515625.011719 6.96875 1.324219 9.65625 4.003906 2.675781 2.671875 3.988281 6.125 3.996093 9.648438-.007812 3.515625-1.320312 6.976562-4 9.660156l-14.476562 14.476562c-1.289062 1.289063-2 3.007813-2 4.832032 0 1.820312.710938 3.539062 2.003906 4.824218 1.289063 1.292969 3.003906 2 4.828125 1.996094 1.824219 0 3.539063-.710937 4.828125-2.003906 2.675782-2.675781 6.125-3.984375 9.644532-3.996094 3.515624.011719 6.96875 1.324219 9.65625 4.003906zm0 0" fill="#54596e"/><path d="m345.375 84.914062c-21.597656-21.597656-56.617188-21.597656-78.214844 0-21.597656 21.597657-21.597656 56.613282 0 78.210938s56.617188 21.597656 78.214844 0 21.597656-56.613281 0-78.210938zm0 0" fill="#ff927d"/><path d="m345.378906 163.125 4.828125 4.824219c12.117188-12.117188 18.207031-28.058594 18.199219-43.929688.007812-15.882812-6.082031-31.824219-18.203125-43.9375-12.113281-12.125-28.054687-18.207031-43.929687-18.195312-15.878907-.011719-31.824219 6.078125-43.9375 18.195312-12.121094 12.117188-18.207032 28.058594-18.199219 43.9375-.007813 15.878907 6.078125 31.816407 18.199219 43.933594 12.117187 12.121094 28.058593 18.207031 43.9375 18.195313 15.878906.011718 31.816406-6.082032 43.929687-18.195313l-4.824219-4.828125-4.828125-4.828125c-9.484375 9.480469-21.851562 14.191406-34.277343 14.203125-12.429688-.011719-24.796876-4.726562-34.28125-14.203125-9.480469-9.484375-14.191407-21.851563-14.203126-34.277344.011719-12.429687 4.722657-24.796875 14.203126-34.28125 9.484374-9.480469 21.851562-14.191406 34.28125-14.203125 12.425781.011719 24.792968 4.722656 34.277343 14.199219 9.476563 9.480469 14.191407 21.851563 14.199219 34.285156-.007812 12.417969-4.71875 24.789063-14.199219 34.28125zm0 0" fill="#54596e"/><path d="m354.40625 22.648438c-5.335938-5.332032-13.976562-5.332032-19.308594 0l-19.304687 19.3125c7.992187-8.003907 7.992187-20.96875 0-28.96875-8.003907-7.996094-20.96875-7.996094-28.96875 0l-67.578125 67.582031 28.960937 28.964843 14.484375-14.480468 19.304688 19.308594 72.410156-72.40625c5.332031-5.335938 5.332031-13.980469 0-19.3125zm0 0" fill="#9af43b"/><path d="m354.40625 22.648438 4.824219-4.832032c-3.980469-3.984375-9.261719-6.007812-14.480469-5.996094-5.210938-.011718-10.5 2.007813-14.484375 6l-19.300781 19.3125c-1.292969 1.285157-2 3.003907-2 4.828126 0 1.824218.710937 3.539062 2 4.828124 1.292968 1.289063 3.007812 1.996094 4.832031 1.992188 1.824219 0 3.539063-.710938 4.824219-2.003906 5.316406-5.316406 7.996094-12.339844 7.992187-19.304688.003907-6.964844-2.675781-14-7.996093-19.308594-5.316407-5.320312-12.34375-8.007812-19.308594-7.996093-6.964844-.011719-13.996094 2.671875-19.3125 8l-67.578125 67.578125c-2.667969 2.664062-2.664063 6.984375 0 9.652344l28.960937 28.964843c1.289063 1.289063 3 2 4.824219 2 1.824219.003907 3.539063-.707031 4.828125-1.996093l9.65625-9.660157 14.480469 14.488281c1.289062 1.285157 3.003906 1.996094 4.828125 1.996094 1.824218 0 3.539062-.710937 4.828125-1.996094l72.40625-72.40625c3.988281-3.992187 6.007812-9.273437 6-14.488281.007812-5.222656-2.011719-10.503906-6.007813-14.484375l-4.816406 4.832032-4.824219 4.828124c1.339844 1.339844 1.988281 3.050782 1.996094 4.824219-.007813 1.765625-.65625 3.480469-2.003906 4.832031l-67.574219 67.574219-14.480469-14.480469c-2.667969-2.664062-6.988281-2.664062-9.652343 0l-9.660157 9.65625-19.308593-19.308593 62.753906-62.753907c2.683594-2.683593 6.136718-3.992187 9.65625-4.003906 3.515625.011719 6.96875 1.324219 9.65625 4.003906 2.675781 2.675782 3.988281 6.128907 3.996094 9.652344-.007813 3.515625-1.320313 6.972656-4 9.664063-2.664063 2.664062-2.660157 6.988281.003906 9.652343 2.667968 2.664063 6.988281 2.65625 9.65625-.007812l19.304687-19.3125c1.351563-1.34375 3.050781-1.988281 4.824219-2 1.765625.011719 3.472656.65625 4.828125 2.003906zm0 0" fill="#54596e"/><path d="m291.644531 85.394531c-18.660156-18.664062-48.917969-18.664062-67.578125 0-18.660156 18.660157-18.660156 48.917969 0 67.578125 18.660156 18.664063 48.917969 18.664063 67.578125 0 18.664063-18.660156 18.664063-48.917968 0-67.578125zm0 0" fill="#ff927d"/><path d="m291.652344 152.984375 4.828125 4.820313c10.648437-10.644532 16-24.660157 15.992187-38.613282.007813-13.957031-5.34375-27.980468-15.992187-38.621094-10.644531-10.652343-24.664063-16.003906-38.617188-15.992187-13.953125-.011719-27.972656 5.339844-38.621093 15.996094-10.648438 10.644531-16 24.660156-15.992188 38.617187-.007812 13.949219 5.34375 27.960938 15.992188 38.613282 10.648437 10.65625 24.667968 16.003906 38.621093 15.996093 13.953125.007813 27.96875-5.34375 38.617188-15.992187l-4.828125-4.824219-4.828125-4.832031c-8.011719 8.007812-18.457031 11.988281-28.960938 11.996094-10.507812-.007813-20.949219-3.984376-28.964843-11.996094-8.007813-8.023438-11.984376-18.460938-11.996094-28.960938.011718-10.503906 3.988281-20.949218 11.996094-28.96875 8.015624-8.007812 18.457031-11.984375 28.964843-11.996094 10.503907.011719 20.945313 3.988282 28.960938 11.996094 8.007812 8.011719 11.988281 18.460938 11.996093 28.96875-.007812 10.5-3.984374 20.945313-11.996093 28.964844zm0 0" fill="#54596e"/><path d="m193.9375 117.191406h83.234375v84.40625h-83.234375zm0 0" fill="#fff35f"/><path d="m193.9375 201.597656h6.828125v-77.582031h69.582031v70.757813h-76.40625v6.824218h6.824219-6.828125v6.824219h83.234375c1.824219 0 3.539063-.707031 4.828125-1.996094 1.289062-1.289062 2-3.003906 2-4.828125v-84.40625c0-1.800781-.730469-3.554687-2-4.828125-1.269531-1.269531-3.027344-1.996093-4.824219-1.996093h-83.234375c-1.796875 0-3.558594.726562-4.828125 1.996093-1.273437 1.273438-2 3.027344-2 4.828125v84.40625c0 1.824219.710938 3.539063 2 4.828125 1.292969 1.289063 3.003907 1.996094 4.828125 1.996094v-6.824219zm0 0" fill="#54596e"/><path d="m248.207031 51.613281-229.914062 229.914063c-11.652344 11.648437-11.652344 30.542968 0 42.195312l35.230469 35.230469c28.582031 28.589844 76.460937 23.753906 98.339843-10.230469 20.644531-32.050781 36.1875-67.300781 45.921875-104.496094z" fill="#ffd578"/><path d="m248.207031 51.613281-4.828125-4.828125-229.914062 229.914063c-7.148438 7.140625-10.75 16.566406-10.742188 25.925781-.007812 9.359375 3.59375 18.785156 10.742188 25.921875l35.226562 35.230469c13.902344 13.902344 32.023438 20.695312 49.914063 20.683594 22.757812.019531 45.433593-10.980469 59-32.050782 21.027343-32.65625 36.867187-68.5625 46.785156-106.457031l50.417969-192.609375c.78125-2.976562-.542969-6.121094-3.207032-7.652344-2.667968-1.53125-6.050781-1.078125-8.21875 1.09375l4.824219 4.828125-6.605469-1.734375-50.425781 192.621094c-9.542969 36.488281-24.796875 71.074219-45.050781 102.519531-10.941406 16.980469-29.070312 25.765625-47.519531 25.789063-14.492188-.015625-28.996094-5.433594-40.257813-16.683594l-35.226562-35.230469c-4.511719-4.511719-6.734375-10.359375-6.742188-16.269531.007813-5.914062 2.230469-11.761719 6.742188-16.273438l229.914062-229.910156-4.828125-4.828125-6.605469-1.734375z" fill="#54596e"/><path d="m161.789062 208.226562 192.617188-50.414062-230.34375 230.335938c-11.421875 11.421874-29.925781 11.421874-41.335938 0l-69.398437-69.394532c-8.960937-8.953125-8.640625-23.714844.871094-32.070312 20.1875-17.746094 42.242187-33.148438 65.710937-45.964844z" fill="#ffd578"/><g fill="#54596e"><path d="m163.519531 214.832031 168.246094-44.042969-212.535156 212.535157c-4.390625 4.386719-10.082031 6.554687-15.839844 6.5625-5.753906-.007813-11.449219-2.179688-15.839844-6.5625l-69.398437-69.402344c-3.011719-3.007813-4.492188-6.917969-4.5-10.863281.011718-4.21875 1.683594-8.289063 5.050781-11.25 19.808594-17.414063 41.445313-32.527344 64.480469-45.097656 3.308594-1.808594 4.527344-5.953126 2.71875-9.265626-1.808594-3.304687-5.953125-4.523437-9.261719-2.714843-23.914063 13.046875-46.382813 28.738281-66.949219 46.820312-6.453125 5.65625-9.7031248 13.625-9.691406 21.507813-.0078125 7.386718 2.835938 14.867187 8.5 20.519531l69.398438 69.402344c7.019531 7.023437 16.285156 10.566406 25.492187 10.558593 9.203125.007813 18.472656-3.53125 25.496094-10.558593l230.347656-230.34375c2.183594-2.1875 2.632813-5.539063 1.09375-8.222657-1.539063-2.683593-4.660156-3.996093-7.652344-3.210937l-192.609375 50.421875c-3.648437.953125-5.832031 4.683594-4.878906 8.332031.953125 3.652344 4.6875 5.832031 8.335938 4.878907zm0 0"/><path d="m145.5625 209.253906c-4-4-10.480469-4-14.480469 0-3.996093 3.996094-3.996093 10.480469 0 14.476563 4 4 10.480469 4 14.480469 0 3.996094-3.996094 3.996094-10.480469 0-14.476563zm0 0"/><path d="m193.347656 257.039062c-4-3.996093-10.480468-3.996093-14.480468 0-3.996094 4-3.996094 10.480469 0 14.480469 4 3.996094 10.480468 3.996094 14.480468 0 4-4 4-10.480469 0-14.480469zm0 0"/></g><path d="m107.949219 213.417969c-3.496094 0-6.988281 1.335937-9.652344 4.003906-4.554687 4.550781-5.21875 11.53125-1.988281 16.792969l25.003906-9.921875c-.519531-2.519531-1.757812-4.917969-3.707031-6.871094-2.664063-2.667969-6.160157-4.003906-9.65625-4.003906" fill="#ffb37b"/><path d="m121.3125 224.289062-25.003906 9.921876c.546875.894531 1.210937 1.742187 1.988281 2.519531 2.664063 2.664062 6.15625 3.996093 9.652344 3.996093 3.496093 0 6.992187-1.328124 9.65625-3.996093 3.371093-3.375 4.605469-8.085938 3.707031-12.441407" fill="#ffb37b"/><path d="m175.527344 281.003906c-3.492188 0-6.988282 1.332032-9.652344 4.003906-5.332031 5.328126-5.332031 13.972657 0 19.308594 2.664062 2.667969 6.160156 3.996094 9.652344 3.996094 3.496094 0 6.992187-1.328125 9.65625-3.996094 5.328125-5.335937 5.328125-13.980468 0-19.308594-2.664063-2.671874-6.160156-4.003906-9.65625-4.003906" fill="#ffb37b"/><path d="m103.117188 251.214844c-13.324219 13.328125-13.324219 34.941406 0 48.269531 13.332031 13.328125 34.949218 13.328125 48.273437 0zm0 0" fill="#54596e"/><path d="m107.605469 404.226562h150.1875c3.769531 0 6.824219-3.054687 6.824219-6.828124 0-3.773438-3.054688-6.824219-6.824219-6.824219h-150.1875c-3.769531 0-6.828125 3.050781-6.828125 6.824219 0 3.773437 3.058594 6.828124 6.828125 6.828124" fill="#54596e"/><path d="m291.925781 404.226562h40.960938c3.769531 0 6.824219-3.054687 6.824219-6.828124 0-3.773438-3.054688-6.824219-6.824219-6.824219h-40.960938c-3.769531 0-6.828125 3.050781-6.828125 6.824219 0 3.773437 3.058594 6.828124 6.828125 6.828124" fill="#54596e"/></svg>