<svg height="423pt" viewBox="0 -17 423.25163 423" width="423pt" xmlns="http://www.w3.org/2000/svg"><path d="m368.640625 129.832031c0 60.324219-48.902344 109.226563-109.226563 109.226563-60.324218 0-109.226562-48.902344-109.226562-109.226563s48.902344-109.226562 109.226562-109.226562c60.324219 0 109.226563 48.902343 109.226563 109.226562zm0 0" fill="#ffd578"/><path d="m368.640625 129.832031h6.824219c0-64.097656-51.953125-116.046875-116.050782-116.050781-64.101562.003906-116.050781 51.953125-116.054687 116.050781.003906 64.097657 51.953125 116.046875 116.054687 116.050781 64.097657-.003906 116.046876-51.953124 116.050782-116.050781h-13.652344c-.003906 28.296875-11.449219 53.859375-29.992188 72.410157-18.550781 18.539062-44.105468 29.984374-72.40625 29.992187-28.300781-.007813-53.859374-11.453125-72.410156-29.992187-18.539062-18.550782-29.988281-44.109376-29.992187-72.410157.003906-28.300781 11.453125-53.859375 29.992187-72.410156 18.550782-18.539063 44.109375-29.984375 72.410156-29.992187 28.300782.007812 53.855469 11.453124 72.40625 29.992187 18.542969 18.550781 29.988282 44.109375 29.992188 72.410156zm0 0" fill="#54596e"/><path d="m192.082031 127.800781c-11.695312-11.414062-27.683593-18.449219-45.308593-18.449219-35.820313 0-64.851563 29.035157-64.851563 64.851563 0 35.820313 29.03125 64.855469 64.851563 64.855469 35.820312 0 64.851562-29.035156 64.851562-64.855469 0-.636719-.003906-1.273437-.027344-1.910156" fill="#ffd578"/><path d="m196.847656 122.914062c-12.902344-12.605468-30.613281-20.394531-50.074218-20.386718-39.59375.003906-71.675782 32.085937-71.679688 71.679687.003906 39.589844 32.085938 71.671875 71.679688 71.675781 39.589843-.003906 71.675781-32.085937 71.679687-71.675781 0-.691406-.007813-1.394531-.03125-2.128906-.117187-3.769531-3.269531-6.726563-7.039063-6.609375-3.769531.121094-6.726562 3.273438-6.605468 7.042969l.019531 1.695312c-.003906 16.046875-6.480469 30.511719-16.992187 41.03125-10.523438 10.507813-24.988282 16.988281-41.03125 16.996094-16.050782-.007813-30.511719-6.488281-41.035157-16.996094-10.507812-10.519531-16.988281-24.984375-16.992187-41.03125.003906-16.050781 6.484375-30.515625 16.992187-41.035156 10.523438-10.507813 24.988281-16.988281 41.035157-16.996094 15.789062.007813 30.050781 6.285157 40.535156 16.507813 2.699218 2.632812 7.019531 2.582031 9.65625-.117188 2.632812-2.695312 2.582031-7.015625-.117188-9.648437zm0 0" fill="#54596e"/><path d="m395.105469 134.984375c-3.140625-10.320313-24.296875-13.425781-50.8125-8.683594 3.839843-28.523437-.367188-50.78125-11.660157-53.894531-11.320312-3.121094-26.351562 13.898438-37.664062 40.421875-20.414062-17.773437-40.285156-26.011719-48.292969-18.730469-9.828125 8.929688 1.898438 37.84375 26.179688 64.90625-4.828125 5.3125-7.027344 10.484375-5.679688 14.90625 1.3125 4.316406 5.832031 7.34375 12.519531 9.09375.058594 18.589844 4.53125 31.847656 13.050782 34.195313 8.523437 2.34375 19.148437-6.75 28.714844-22.679688 6.53125 1.839844 11.867187 1.527344 15.167968-1.476562 3.417969-3.109375 4.179688-8.679688 2.757813-15.710938 34.707031-10.8125 59.585937-29.640625 55.71875-42.347656zm0 0" fill="#9af43b"/><path d="m395.105469 134.984375 6.53125-1.988281c-.953125-3.167969-2.902344-5.871094-5.261719-7.894532-3.5625-3.050781-7.949219-4.855468-12.902344-6.066406-4.960937-1.1875-10.5625-1.730468-16.71875-1.734375-7.222656 0-15.207031.753907-23.667968 2.277344l1.207031 6.722656 6.765625.90625c.96875-7.179687 1.449218-14.007812 1.449218-20.34375-.015624-9.925781-1.140624-18.609375-3.734374-25.730469-1.308594-3.558593-3-6.757812-5.332032-9.457031-2.308594-2.691406-5.390625-4.871093-9-5.855469l.027344.007813c-1.5-.417969-3.054688-.625-4.589844-.621094-4.46875.007813-8.578125 1.632813-12.300781 4.023438-5.585937 3.632812-10.636719 9.125-15.472656 16.050781-4.820313 6.933594-9.359375 15.34375-13.421875 24.863281l6.28125 2.679688 4.484375-5.152344c-8.023438-6.984375-16.007813-12.613281-23.53125-16.597656-7.550781-3.953125-14.5625-6.40625-21.339844-6.457031-4.371094-.027344-8.992187 1.203124-12.515625 4.4375l.019531-.015626c-2.082031 1.882813-3.574219 4.285157-4.460937 6.796876-.898438 2.519531-1.25 5.148437-1.253906 7.832031.0625 8.464843 3.320312 17.824219 8.703124 28.070312 5.425782 10.207031 13.136719 21.152344 22.695313 31.820313l5.085937-4.554688-5.054687-4.59375c-2.257813 2.488282-4.140625 5.058594-5.539063 7.828125-1.386718 2.765625-2.300781 5.78125-2.304687 9-.003906 1.542969.222656 3.128907.683594 4.652344 1.164062 3.871094 3.785156 6.953125 6.820312 9.089844 3.0625 2.167969 6.597657 3.59375 10.503907 4.625l1.730468-6.601563-6.828125.019532c.046875 9.84375 1.1875 18.460937 3.777344 25.53125 1.308594 3.53125 3 6.710937 5.324219 9.398437 2.300781 2.671875 5.371094 4.84375 8.964844 5.824219l.019531.003906c1.484375.40625 3.019531.605469 4.539062.601562 3.261719 0 6.367188-.886718 9.222657-2.289062 4.292968-2.113281 8.167968-5.351562 11.90625-9.410156 3.722656-4.066406 7.292968-8.996094 10.691406-14.652344l-5.847656-3.515625-1.851563 6.570313c3.117187.875 6.15625 1.386718 9.167969 1.390624 4.34375.027344 8.921875-1.1875 12.429687-4.375l.011719-.011718c2.085938-1.886719 3.5625-4.296875 4.441406-6.800782.882813-2.511718 1.226563-5.125 1.226563-7.785156 0-2.453125-.292969-4.953125-.808594-7.523437l-6.691406 1.351562 2.03125 6.515625c16.75-5.230468 31.328125-12.21875 42.09375-19.84375 5.386719-3.824218 9.835937-7.800781 13.15625-12.054687 3.269531-4.238281 5.617187-8.914063 5.660156-14.265625 0-1.566406-.222656-3.160156-.695313-4.703125l.003907.015625-6.53125 1.988281-6.523438 2.003906.09375.695313c.042969.921875-.585937 3.085937-2.785156 5.882812-3.230469 4.199219-9.539063 9.375-17.949219 14.183594-8.410156 4.84375-18.910156 9.421875-30.585937 13.058594-3.34375 1.042968-5.351563 4.4375-4.660157 7.867187.375 1.851563.546876 3.492188.542969 4.828125.003907 1.457032-.199219 2.546875-.449219 3.238282-.257812.703124-.496093 1.003906-.757812 1.25l.015625-.015626c-.410156.363282-1.179687.820313-3.269531.847657-1.394532.003906-3.273438-.261719-5.46875-.882813-2.957032-.832031-6.117188.421875-7.699219 3.054688-4.023437 6.710937-8.207031 11.984375-11.914063 15.308594-1.847656 1.667968-3.566406 2.832031-4.980468 3.523437-1.421875.695313-2.492188.902344-3.222656.902344l-.945313-.125.015625.003906c-.664062-.191406-1.351562-.558594-2.285156-1.613281-1.382813-1.546875-2.972656-4.722656-4.035156-9.226563-1.082032-4.488281-1.703126-10.230469-1.71875-16.792969-.011719-3.089843-2.109376-5.800781-5.097657-6.582031-2.78125-.71875-4.851562-1.675781-6.046875-2.542969-1.226562-.890624-1.523437-1.480468-1.671875-1.933593l-.097656-.679688c0-.558593.175781-1.523437.851563-2.867187.667968-1.332032 1.816406-2.992188 3.449218-4.78125 2.351563-2.59375 2.367188-6.542969.027344-9.148438-8.890625-9.910156-16.007812-20.070312-20.800781-29.105468-4.828125-8.996094-7.171875-17.015626-7.109375-21.667969-.003906-1.457031.203125-2.546875.453125-3.242188.261719-.707031.507812-1.019531.78125-1.277343l.019531-.015626c.425781-.375 1.1875-.835937 3.300781-.863281 3.148438-.050781 8.632813 1.484375 14.953125 4.871094 6.34375 3.355469 13.589844 8.414063 20.949219 14.828125 1.652344 1.4375 3.875 1.996094 6.007813 1.507812 2.136718-.492187 3.894531-1.964843 4.753906-3.976562 4.996094-11.738281 10.75-21.425781 16.195312-27.820312 2.707032-3.199219 5.332032-5.5625 7.539063-6.976563 2.222656-1.4375 3.90625-1.863281 4.898437-1.851563l.917969.125.027344.003907c.667969.199219 1.359375.5625 2.296875 1.628906 1.390625 1.558594 2.988281 4.761719 4.046875 9.304687 1.078125 4.53125 1.6875 10.324219 1.6875 16.945313 0 5.640625-.433594 11.890625-1.328125 18.523437-.292969 2.167969.460937 4.328126 2.046875 5.84375 1.582031 1.515626 3.773437 2.171876 5.929687 1.785157 7.753906-1.394531 14.980469-2.0625 21.25-2.0625 7.097656-.011719 12.96875.902343 16.726563 2.316406 1.878906.691406 3.199219 1.488281 3.960937 2.15625.773438.683594.996094 1.128906 1.132813 1.546875l.007812.015625zm0 0" fill="#54596e"/><path d="m114.546875 99.164062c-10.6875-24.132812-38.914063-35.023437-63.046875-24.335937-24.125 10.691406-35.019531 38.917969-24.332031 63.050781 10.691406 24.125 61.039062 84.953125 85.171875 74.261719 24.125-10.6875 12.902344-88.847656 2.207031-112.976563zm0 0" fill="#ff927d"/><path d="m114.546875 99.164062 6.242187-2.769531c-9.035156-20.378906-29.011718-32.515625-49.957031-32.503906-7.390625-.003906-14.925781 1.503906-22.109375 4.699219-20.367187 9.03125-32.5 29.007812-32.492187 49.957031 0 7.386719 1.515625 14.914063 4.691406 22.089844 2.800781 6.292969 7.542969 14.003906 13.585937 22.402343 9.066407 12.550782 20.996094 26.421876 33.417969 37.421876 6.222657 5.5 12.5625 10.285156 18.890625 13.820312 6.335938 3.503906 12.695313 5.890625 19.300782 5.929688 3.03125.003906 6.101562-.558594 8.964843-1.816407l.023438-.011719c3.984375-1.761718 7.164062-4.710937 9.542969-8.132812 3.578124-5.164062 5.65625-11.417969 7.007812-18.355469 1.335938-6.9375 1.875-14.601562 1.878906-22.574219-.003906-13.585937-1.589844-28.070312-3.945312-41.019531-2.375-12.96875-5.433594-24.25-8.804688-31.90625l-6.238281 2.769531-6.242187 2.765626c2.625 5.867187 5.652343 16.621093 7.855468 28.820312 2.230469 12.230469 3.726563 26.058594 3.722656 38.570312.011719 9.78125-.941406 18.785157-2.925781 25.347657-.976562 3.28125-2.207031 5.925781-3.5 7.761719-1.308593 1.863281-2.574219 2.882812-3.882812 3.472656l.019531-.011719c-.976562.425781-2.074219.664063-3.476562.671875-4.03125.09375-10.703126-2.488281-17.933594-7.492188-10.902344-7.410156-23.089844-19.613281-33.21875-31.890624-10.132813-12.226563-18.363282-24.78125-21.558594-32.066407-2.394531-5.417969-3.515625-11.03125-3.519531-16.566406.007812-15.722656 9.085937-30.710937 24.378906-37.476563 5.414063-2.40625 11.023437-3.527343 16.566406-3.527343 15.714844.007812 30.707031 9.085937 37.472657 24.382812zm0 0" fill="#54596e"/><path d="m109.226562 348.285156h204.800782v34.136719h-204.800782zm0 0" fill="#d8d8d8"/><path d="m314.027344 348.285156v-6.824218h-204.800782c-1.796874 0-3.554687.726562-4.828124 1.996093-1.269532 1.273438-2 3.027344-2 4.828125v34.136719c0 1.820313.710937 3.535156 2 4.824219 1.292968 1.289062 3.003906 1.996094 4.828124 1.996094h204.800782c1.820312 0 3.535156-.707032 4.824218-1.996094 1.292969-1.289063 2-3.003906 2-4.824219v-34.136719c0-1.800781-.726562-3.554687-1.996093-4.828125-1.273438-1.269531-3.03125-1.996093-4.828125-1.996093v6.824218h-6.824219v27.304688h-191.148437v-20.484375l197.972656.003906v-6.824219h-6.828125zm0 0" fill="#54596e"/><path d="m6.988281 163.964844c-.066406 2.117187-.160156 4.226562-.160156 6.359375 0 76.597656 42.652344 143.277343 105.644531 177.960937h198.304688c62.996094-34.6875 105.648437-101.367187 105.648437-177.960937 0-2.136719-.09375-4.242188-.160156-6.359375zm0 0" fill="#fff"/><g fill="#54596e"><path d="m6.988281 163.964844-6.824219-.214844c-.0664058 2.058594-.164062 4.238281-.164062 6.574219.00390625 79.179687 44.105469 148.125 109.179688 183.941406 1.011718.558594 2.136718.84375 3.292968.84375h198.304688c1.15625 0 2.28125-.285156 3.292968-.84375 65.078126-35.816406 109.179688-104.761719 109.179688-183.941406 0-2.332031-.097656-4.515625-.164062-6.574219-.117188-3.6875-3.132813-6.609375-6.820313-6.609375h-409.277344c-3.6875 0-6.707031 2.921875-6.824219 6.609375l6.824219.214844v6.824218h409.277344v-6.824218l-6.824219.214844c.070313 2.171874.160156 4.207031.160156 6.144531 0 74.007812-41.203124 138.425781-102.113281 171.980469l3.289063 5.984374v-6.828124h-198.304688v6.828124l3.292969-5.984374c-60.910156-33.554688-102.117187-97.96875-102.113281-171.980469 0-1.9375.085937-3.96875.15625-6.144531l-6.820313-.214844v6.824218zm0 0"/><path d="m13.652344 204.925781h395.949218c3.769532 0 6.824219-3.054687 6.824219-6.824219 0-3.773437-3.054687-6.828124-6.824219-6.828124h-395.949218c-3.769532 0-6.824219 3.054687-6.824219 6.828124 0 3.769532 3.054687 6.824219 6.824219 6.824219"/><path d="m57.652344 1.269531c-.351563.25-6.585938 4.40625-12.992188 12.128907-6.359375 7.683593-13.066406 19.210937-13.085937 33.875-.019531 9.738281 3.0625 20.566406 10.53125 31.734374 2.09375 3.136719 6.332031 3.984376 9.46875 1.890626s3.984375-6.328126 1.894531-9.464844c-6.1875-9.316406-8.226562-17.261719-8.242188-24.160156-.019531-10.300782 4.792969-18.933594 9.953126-25.171876 2.558593-3.089843 5.15625-5.527343 7.074218-7.152343.960938-.808594 1.746094-1.417969 2.273438-1.8125l.582031-.417969.121094-.085938-.230469-.339843.230469.34375v-.003907l-.230469-.339843.230469.34375c3.136719-2.097657 3.984375-6.332031 1.894531-9.46875-2.09375-3.1406252-6.332031-3.988281-9.46875-1.894531zm0 0"/><path d="m171.511719 291.90625c8.980469 9.757812 23.648437 15.359375 40.113281 15.414062 16.304688-.050781 30.84375-5.550781 39.851562-15.125 2.5625-2.761718 2.402344-7.082031-.359374-9.644531-2.761719-2.566406-7.082032-2.40625-9.644532.359375-5.433594 5.96875-16.710937 10.816406-29.84375 10.761719-13.269531.058594-24.636718-4.898437-30.007812-10.941406-2.535156-2.792969-6.851563-3-9.644532-.464844-2.789062 2.535156-2.996093 6.851563-.464843 9.644531zm0 0"/><path d="m163.839844 245.886719c0 7.539062-6.113282 13.652343-13.652344 13.652343-7.542969 0-13.652344-6.113281-13.652344-13.652343 0-7.539063 6.109375-13.652344 13.652344-13.652344 7.539062 0 13.652344 6.113281 13.652344 13.652344zm0 0"/><path d="m286.71875 245.886719c0 7.539062-6.113281 13.652343-13.652344 13.652343-7.539062 0-13.652344-6.113281-13.652344-13.652343 0-7.539063 6.113282-13.652344 13.652344-13.652344 7.539063 0 13.652344 6.113281 13.652344 13.652344zm0 0"/></g><path d="m307.199219 286.847656c0 7.539063-6.113281 13.652344-13.652344 13.652344s-13.652344-6.113281-13.652344-13.652344c0-7.542968 6.113281-13.652344 13.652344-13.652344s13.652344 6.109376 13.652344 13.652344zm0 0" fill="#ffd578"/><path d="m143.359375 286.847656c0 7.539063-6.113281 13.652344-13.652344 13.652344-7.539062 0-13.652343-6.113281-13.652343-13.652344 0-7.542968 6.113281-13.652344 13.652343-13.652344 7.539063 0 13.652344 6.109376 13.652344 13.652344zm0 0" fill="#ffd578"/><path d="m88.746094 245.886719c-7.539063 0-13.652344-6.113281-13.652344-13.652344v-68.269531h27.304688v68.269531c0 7.539063-6.113282 13.652344-13.652344 13.652344zm0 0" fill="#f4a14e"/><path d="m88.746094 245.886719v-6.828125c-3.765625-.007813-6.820313-3.0625-6.824219-6.824219v-61.441406h13.652344v61.441406c-.007813 3.761719-3.0625 6.816406-6.828125 6.824219v13.652344c11.3125-.003907 20.476562-9.164063 20.480468-20.476563v-68.269531c0-1.796875-.730468-3.554688-2-4.828125-1.269531-1.269531-3.027343-1.996094-4.824218-1.996094h-27.308594c-1.796875 0-3.558594.726563-4.828125 1.996094-1.273437 1.273437-2 3.03125-2 4.828125v68.269531c.007813 11.3125 9.167969 20.472656 20.480469 20.476563zm0 0" fill="#54596e"/><path d="m150.1875 204.925781c-7.539062 0-13.652344-6.113281-13.652344-13.652343v-27.308594h27.304688v27.308594c0 7.539062-6.113282 13.652343-13.652344 13.652343zm0 0" fill="#f4a14e"/><path d="m150.1875 204.925781v-6.824219c-3.765625-.011718-6.820312-3.066406-6.828125-6.828124v-20.480469h13.652344v20.480469c-.003907 3.761718-3.058594 6.816406-6.824219 6.828124v13.648438c11.3125-.003906 20.472656-9.164062 20.480469-20.476562v-27.308594c0-1.796875-.730469-3.554688-2-4.828125-1.273438-1.269531-3.03125-1.996094-4.828125-1.996094h-27.304688c-1.800781 0-3.558594.726563-4.828125 1.996094-1.273437 1.273437-2 3.03125-2 4.828125v27.308594c.003907 11.3125 9.167969 20.472656 20.480469 20.476562zm0 0" fill="#54596e"/></svg>