<svg height="430pt" viewBox="-51 0 430 430.08204" width="430pt" xmlns="http://www.w3.org/2000/svg"><path d="m102.441406 423.257812h-40.957031l-20.480469-153.601562c0-13.195312 10.699219-23.890625 23.890625-23.890625 13.195313 0 23.894531 10.695313 23.894531 23.890625zm0 0" fill="#ffb8f2"/><path d="m102.441406 423.257812v-6.828124h-34.984375l-19.6875-147.675782-6.765625.902344h6.824219c.019531-9.421875 7.648437-17.046875 17.066406-17.070312 9.421875.023437 17.050781 7.648437 17.066407 17.070312l.027343.605469 13.65625 153.597656 6.796875-.601563v-6.828124 6.828124l6.800782-.605468-13.652344-153.601563-6.800782.605469h6.828126c-.007813-16.972656-13.753907-30.714844-30.722657-30.71875-16.964843.003906-30.714843 13.746094-30.71875 30.71875l.058594.898438 20.480469 153.601562c.453125 3.386719 3.347656 5.925781 6.769531 5.925781h40.957031c1.925782 0 3.738282-.796875 5.039063-2.21875 1.300781-1.417969 1.933593-3.296875 1.761719-5.214843zm0 0" fill="#54596e"/><path d="m177.535156 423.257812h-34.132812l-6.828125-153.601562c0-13.195312 10.703125-23.890625 23.894531-23.890625s23.894531 10.695313 23.894531 23.890625zm0 0" fill="#ffb8f2"/><path d="m177.535156 423.257812v-6.828124h-27.601562l-6.539063-147.078126-6.820312.304688h6.828125c.015625-9.421875 7.644531-17.046875 17.066406-17.070312 9.421875.023437 17.050781 7.648437 17.066406 17.070312h6.828125l-6.820312-.304688-6.828125 153.601563 6.820312.304687v-6.828124 6.828124l6.820313.300782 6.828125-153.601563.003906-.300781c-.003906-16.972656-13.753906-30.714844-30.71875-30.71875-16.964844.003906-30.714844 13.746094-30.71875 30.71875l.007812.300781 6.824219 153.601563c.160157 3.636718 3.175781 6.523437 6.820313 6.523437h34.132812c3.644532 0 6.660156-2.882812 6.820313-6.523437zm0 0" fill="#54596e"/><path d="m143.402344 423.257812h-40.960938l-13.652344-153.601562c0-13.195312 10.699219-23.890625 23.894532-23.890625 13.191406 0 23.890625 10.695313 23.890625 23.890625zm0 0" fill="#ffb8f2"/><path d="m143.402344 423.257812v-6.828124h-34.714844l-13.097656-147.378907-6.800782.605469h6.828126c.015624-9.421875 7.644531-17.046875 17.066406-17.070312 9.421875.023437 17.046875 7.648437 17.066406 17.070312l.007812.300781 6.824219 153.601563 6.820313-.300782v-6.828124 6.828124l6.820312-.304687-6.828125-153.601563-6.820312.304688h6.828125c-.003906-16.972656-13.753906-30.714844-30.71875-30.71875-16.96875.003906-30.714844 13.746094-30.722656 30.71875l.027343.605469 13.65625 153.597656c.3125 3.527344 3.257813 6.222656 6.796875 6.222656h40.960938c1.875 0 3.636718-.75 4.933594-2.105469 1.296874-1.355468 1.96875-3.148437 1.886718-5.019531zm0 0" fill="#54596e"/><path d="m259.457031 423.257812h-40.960937l13.652344-153.601562c0-13.195312 10.703124-23.890625 23.894531-23.890625 13.191406 0 23.894531 10.695313 23.894531 23.890625zm0 0" fill="#ffb8f2"/><path d="m259.457031 423.257812v-6.828124h-33.5l12.992188-146.167969.027343-.605469c.015626-9.421875 7.644532-17.046875 17.066407-17.070312 9.421875.023437 17.050781 7.648437 17.066406 17.070312h6.828125l-6.769531-.902344-20.480469 153.601563 6.769531.902343v-6.828124 6.828124l6.765625.898438 20.480469-153.601562.058594-.898438c-.003907-16.972656-13.753907-30.714844-30.71875-30.71875-16.964844.003906-30.714844 13.746094-30.71875 30.71875h6.824219l-6.796876-.605469-13.65625 153.601563c-.167968 1.914062.464844 3.792968 1.765626 5.210937 1.300781 1.421875 3.109374 2.21875 5.035156 2.21875h40.960937c3.417969 0 6.3125-2.535156 6.765625-5.925781zm0 0" fill="#54596e"/><path d="m218.496094 423.257812h-40.960938l6.828125-153.601562c0-13.195312 10.699219-23.890625 23.894531-23.890625 13.191407 0 23.890626 10.695313 23.890626 23.890625zm0 0" fill="#ffb8f2"/><path d="m218.496094 423.257812v-6.828124h-33.824219l6.507813-146.472657.007812-.300781c.015625-9.421875 7.644531-17.046875 17.066406-17.070312 9.421875.023437 17.050782 7.648437 17.066406 17.070312h6.828126l-6.800782-.605469-13.652344 153.601563 6.800782.605468v-6.828124 6.828124l6.800781.601563 13.652344-153.597656.027343-.605469c-.003906-16.972656-13.753906-30.714844-30.71875-30.71875-16.96875.003906-30.714843 13.746094-30.722656 30.71875h6.828125l-6.820312-.304688-6.828125 153.601563c-.082032 1.875.59375 3.667969 1.890625 5.019531 1.296875 1.355469 3.058593 2.105469 4.929687 2.105469h40.960938c3.542968 0 6.488281-2.691406 6.800781-6.21875zm0 0" fill="#54596e"/><path d="m269.695312 163.84375h-37.71875c-1.761718-26.679688-23.902343-47.785156-51.027343-47.785156h-102.398438c-28.28125 0-51.203125 22.921875-51.203125 51.199218 0 2.222657.1875 4.398438.46875 6.550782-12.679687 9.316406-20.945312 24.292968-20.945312 41.234375 0 28.277343 22.917968 51.199219 51.199218 51.199219h5.792969c5.628907 15.902343 20.753907 27.308593 38.578125 27.308593h20.480469c17.828125 0 32.953125-11.40625 38.578125-27.308593h108.195312c28.28125 0 51.199219-22.921876 51.199219-51.199219 0-28.273438-22.917969-51.199219-51.199219-51.199219zm0 0" fill="#ffd578"/><path d="m269.695312 163.84375v-6.828125h-37.71875v6.828125l6.808594-.449219c-1.992187-30.25-27.085937-54.15625-57.835937-54.164062h-102.402344c-32.050781.003906-58.023437 25.976562-58.027344 58.027343 0 2.601563.21875 5.078126.527344 7.429688l6.769531-.878906-4.042968-5.503906c-14.34375 10.523437-23.7343755 27.539062-23.7304692 46.738281 0 32.046875 25.9726562 58.019531 58.0234372 58.023437h5.796875v-6.824218l-6.4375 2.277343c6.554688 18.546875 24.210938 31.847657 45.015625 31.855469h20.480469c20.804687-.007812 38.460937-13.308594 45.015625-31.855469l-6.4375-2.277343v6.824218h108.195312c32.054688-.003906 58.023438-25.976562 58.027344-58.023437-.003906-32.046875-25.972656-58.023438-58.027344-58.027344v13.652344c12.277344.003906 23.328126 4.957031 31.378907 12.996093 8.039062 8.054688 12.992187 19.101563 12.996093 31.378907-.003906 12.273437-4.957031 23.324219-12.996093 31.378906-8.054688 8.039063-19.101563 12.988281-31.378907 12.996094h-108.195312c-2.882812 0-5.46875 1.820312-6.433594 4.546875-4.699218 13.253906-17.296875 22.765625-32.144531 22.757812h-20.480469c-14.847656.007813-27.445312-9.503906-32.144531-22.757812-.964844-2.726563-3.550781-4.546875-6.433594-4.546875h-5.792969c-12.277343-.007813-23.328124-4.957031-31.378906-12.996094-8.039062-8.054687-12.992187-19.105469-12.996094-31.378906.003907-14.6875 7.144532-27.625 18.164063-35.734375 2-1.472656 3.046875-3.925782 2.726563-6.382813-.253907-1.953125-.410157-3.828125-.410157-5.667969.003907-12.273437 4.957031-23.324218 12.996094-31.378906 8.050781-8.042968 19.101563-12.992187 31.378906-13h102.398438c23.5-.003906 42.6875 18.296875 44.214843 41.410156.234376 3.597657 3.207032 6.378907 6.8125 6.378907h37.71875zm0 0" fill="#54596e"/><path d="m225.324219 95.578125c0 26.390625-21.394531 47.785156-47.789063 47.785156-26.390625 0-47.785156-21.394531-47.785156-47.785156 0-26.394531 21.394531-47.789063 47.785156-47.789063 26.394532 0 47.789063 21.394532 47.789063 47.789063zm0 0" fill="#ff927d"/><path d="m225.324219 95.578125h6.824219c-.003907-30.167969-24.445313-54.609375-54.613282-54.613281-30.167968.003906-54.609375 24.445312-54.613281 54.613281.003906 30.164063 24.445313 54.605469 54.613281 54.609375 30.167969-.003906 54.609375-24.445312 54.613282-54.609375h-13.652344c-.003906 11.332031-4.574219 21.527344-11.996094 28.960937-7.433594 7.421876-17.628906 11.992188-28.964844 11.996094-11.332031-.003906-21.527344-4.574218-28.964844-11.996094-7.421874-7.429687-11.992187-17.628906-11.996093-28.960937.003906-11.339844 4.574219-21.535156 11.996093-28.96875 7.433594-7.421875 17.632813-11.988281 28.964844-11.996094 11.335938.007813 21.53125 4.578125 28.964844 11.996094 7.421875 7.433594 11.992188 17.628906 11.996094 28.96875zm0 0" fill="#54596e"/><path d="m177.535156 68.269531c-15.085937.003907-27.300781 12.222657-27.304687 27.308594 0 3.769531 3.054687 6.824219 6.824219 6.824219 3.769531 0 6.828124-3.054688 6.828124-6.824219.011719-7.542969 6.113282-13.640625 13.652344-13.65625 3.769532 0 6.824219-3.058594 6.824219-6.824219 0-3.769531-3.054687-6.824218-6.824219-6.824218zm0 0" fill="#fff"/><g fill="#54596e"><path d="m198.367188 8.988281 5.832031 17.5-18.863281 31.441407c-1.941407 3.230468-.894532 7.425781 2.339843 9.367187s7.429688.886719 9.371094-2.339844l20.476563-34.136719c1.03125-1.71875 1.257812-3.773437.625-5.671874l-6.828126-20.480469c-1.191406-3.578125-5.058593-5.507813-8.636718-4.3125-3.574219 1.191406-5.507813 5.054687-4.3125 8.636719zm0 0"/><path d="m123.769531 223.515625c8.976563 9.757813 23.648438 15.363281 40.113281 15.417969 16.304688-.054688 30.84375-5.554688 39.847657-15.125 2.566406-2.765625 2.402343-7.082032-.355469-9.648438-2.765625-2.5625-7.082031-2.402344-9.644531.363282-5.4375 5.96875-16.710938 10.816406-29.847657 10.761718-13.265624.054688-24.632812-4.898437-30.003906-10.941406-2.535156-2.796875-6.851562-3-9.644531-.46875-2.792969 2.539062-3 6.855469-.464844 9.648438zm0 0"/><path d="m150.230469 180.910156c0 5.65625-4.585938 10.242188-10.242188 10.242188-5.652343 0-10.238281-4.585938-10.238281-10.242188s4.585938-10.238281 10.238281-10.238281c5.65625 0 10.242188 4.582031 10.242188 10.238281zm0 0"/><path d="m198.015625 180.910156c0 5.65625-4.585937 10.242188-10.238281 10.242188-5.65625 0-10.242188-4.585938-10.242188-10.242188s4.585938-10.238281 10.242188-10.238281c5.652344 0 10.238281 4.582031 10.238281 10.238281zm0 0"/><path d="m34.175781 163.84375h27.308594c3.769531 0 6.824219-3.058594 6.824219-6.828125 0-3.773437-3.054688-6.824219-6.824219-6.824219h-27.308594c-3.769531 0-6.828125 3.050782-6.828125 6.824219 0 3.769531 3.058594 6.828125 6.828125 6.828125"/></g><path d="m99.03125 191.152344c-9.429688 0-17.070312-7.644532-17.070312-17.070313v-64.851562h34.136718v64.851562c0 9.425781-7.640625 17.070313-17.066406 17.070313zm0 0" fill="#fff"/><path d="m99.03125 191.152344v-6.828125c-5.65625-.015625-10.230469-4.589844-10.242188-10.242188v-58.03125h20.480469v58.03125c-.011719 5.652344-4.585937 10.226563-10.238281 10.242188v13.648437c13.199219-.003906 23.886719-10.691406 23.890625-23.890625v-64.851562c0-1.800781-.726563-3.558594-1.996094-4.828125-1.273437-1.273438-3.03125-2-4.828125-2h-34.132812c-1.796875 0-3.558594.726562-4.828125 2-1.273438 1.269531-2 3.027344-2 4.828125v64.851562c.003906 13.199219 10.691406 23.886719 23.894531 23.890625zm0 0" fill="#54596e"/><path d="m269.695312 204.804688c-9.425781 0-17.066406-7.640626-17.066406-17.066407v-30.722656h34.132813v30.722656c0 9.425781-7.636719 17.066407-17.066407 17.066407zm0 0" fill="#fff"/><path d="m269.695312 204.804688v-6.828126c-5.652343-.011718-10.230468-4.585937-10.238281-10.238281v-23.902343h20.480469v23.902343c-.011719 5.652344-4.585938 10.226563-10.242188 10.238281v13.652344c13.199219-.003906 23.890626-10.695312 23.894532-23.890625v-30.722656c0-1.800781-.730469-3.554687-2-4.828125-1.269532-1.269531-3.027344-1.996094-4.824219-1.996094h-34.132813c-1.800781 0-3.558593.726563-4.828124 1.996094-1.273438 1.273438-2 3.027344-2 4.828125v30.722656c.003906 13.195313 10.695312 23.886719 23.894531 23.890625v-6.824218zm0 0" fill="#54596e"/></svg>