<svg height="389pt" viewBox="-51 0 389 389.12" width="389pt" xmlns="http://www.w3.org/2000/svg"><path d="m27.367188 6.828125h232.105468v27.304687h-232.105468zm0 0" fill="#fff"/><path d="m259.472656 34.132812v-6.824218h-225.28125v-13.660156h218.457032v20.484374h6.824218v-6.824218 6.824218h6.828125v-27.304687c0-1.800781-.730469-3.558594-2-4.832031-1.269531-1.269532-3.03125-1.996094-4.828125-1.996094h-232.105468c-1.796876 0-3.558594.726562-4.828126 1.996094-1.269531 1.273437-2 3.03125-2 4.832031v27.304687c0 1.824219.710938 3.535157 2 4.828126 1.292969 1.289062 3.003907 1.996093 4.828126 1.996093h232.105468c1.824219 0 3.535156-.707031 4.828125-1.996093 1.289063-1.292969 2-3.003907 2-4.828126zm0 0" fill="#54596e"/><path d="m6.886719 34.132812h273.066406v27.308594h-273.066406zm0 0" fill="#d8d8d8"/><path d="m279.953125 61.441406v-6.828125h-266.238281v-13.660156h259.410156v20.488281h6.828125v-6.828125 6.828125h6.828125v-27.308594c0-1.800781-.730469-3.554687-2-4.828124-1.269531-1.269532-3.03125-1.996094-4.828125-1.996094h-273.066406c-1.796875 0-3.558594.726562-4.828125 1.996094-1.269532 1.273437-2.0000002 3.027343-2.0000002 4.828124v27.308594c0 1.820313.7109372 3.535156 2.0000002 4.824219 1.292968 1.292969 3.003906 1.996094 4.828125 1.996094h273.066406c1.824219 0 3.535156-.703125 4.828125-1.996094 1.289062-1.289063 2-3.003906 2-4.824219zm0 0" fill="#54596e"/><path d="m245.816406 382.296875h-204.792968l-13.65625-320.859375h232.105468z" fill="#fff"/><path d="m245.816406 382.296875v-6.832031h-198.257812l-13.066406-307.203125h217.855468l-13.351562 313.738281 6.820312.296875v-6.832031 6.832031l6.824219.285156 13.65625-320.851562c.074219-1.851563-.613281-3.683594-1.894531-5.015625-1.277344-1.335938-3.078125-2.101563-4.929688-2.101563h-232.105468c-1.851563 0-3.652344.765625-4.929688 2.101563-1.28125 1.332031-1.972656 3.164062-1.894531 5.015625l13.65625 320.851562c.160156 3.664063 3.15625 6.539063 6.824219 6.539063h204.792968c3.667969 0 6.664063-2.878906 6.824219-6.539063z" fill="#54596e"/><path d="m250.46875 273.066406 4.648438-109.226562h-223.394532l4.648438 109.226562zm0 0" fill="#bfad88"/><path d="m250.46875 273.066406 6.816406.289063 4.652344-109.226563c.078125-1.847656-.613281-3.679687-1.890625-5.015625-1.28125-1.332031-3.078125-2.097656-4.929687-2.097656h-223.394532c-1.847656 0-3.648437.765625-4.925781 2.097656-1.28125 1.335938-1.972656 3.167969-1.894531 5.015625l4.652344 109.226563c.152343 3.664062 3.152343 6.535156 6.816406 6.535156h214.09375c3.664062 0 6.664062-2.875 6.820312-6.535156l-6.816406-.289063v-6.828125h-207.550781l-4.070313-95.578125h209.148438l-4.347656 102.113282 6.820312.292968v-6.828125zm0 0" fill="#54596e"/><path d="m218.511719 218.453125c0 41.472656-33.617188 75.09375-75.089844 75.09375-41.476563 0-75.09375-33.621094-75.09375-75.09375s33.617187-75.09375 75.09375-75.09375c41.472656 0 75.089844 33.621094 75.089844 75.09375zm0 0" fill="#9af43b"/><path d="m218.511719 218.453125h6.828125c-.003906-45.246094-36.675782-81.917969-81.917969-81.917969-45.246094 0-81.917969 36.671875-81.921875 81.917969.003906 45.242187 36.675781 81.914063 81.921875 81.917969 45.242187-.003906 81.914063-36.675782 81.917969-81.917969h-13.652344c-.003906 18.871094-7.632812 35.894531-19.996094 48.269531-12.375 12.363282-29.398437 19.992188-48.269531 19.996094-18.875-.003906-35.898437-7.632812-48.273437-19.996094-12.363282-12.375-19.992188-29.398437-19.996094-48.269531.003906-18.875 7.632812-35.894531 19.996094-48.273437 12.375-12.363282 29.398437-19.988282 48.273437-19.996094 18.871094.007812 35.894531 7.632812 48.269531 19.996094 12.363282 12.378906 19.992188 29.402343 19.996094 48.273437zm0 0" fill="#54596e"/><path d="m108.355469 239.40625c7.179687 7.898438 20.199219 13.179688 35.066406 13.179688 14.71875 0 27.621094-5.171876 34.839844-12.945313" fill="#9af43b"/><g fill="#54596e"><path d="m103.304688 243.996094c8.980468 9.75 23.648437 15.359375 40.117187 15.414062 16.300781-.054687 30.835937-5.554687 39.84375-15.125 2.566406-2.765625 2.40625-7.085937-.359375-9.648437-2.761719-2.5625-7.078125-2.402344-9.644531.359375-5.433594 5.972656-16.707031 10.820312-29.839844 10.765625-13.269531.054687-24.632813-4.894531-30.011719-10.945313-2.535156-2.796875-6.855468-3-9.644531-.460937-2.789063 2.535156-2.996094 6.851562-.460937 9.644531zm0 0"/><path d="m129.765625 201.386719c0 5.65625-4.582031 10.238281-10.238281 10.238281s-10.242188-4.582031-10.242188-10.238281 4.585938-10.238281 10.242188-10.238281 10.238281 4.582031 10.238281 10.238281zm0 0"/><path d="m177.554688 201.386719c0 5.65625-4.585938 10.238281-10.242188 10.238281s-10.238281-4.582031-10.238281-10.238281 4.582031-10.238281 10.238281-10.238281 10.242188 4.582031 10.242188 10.238281zm0 0"/></g><path d="m240.726562 341.328125h-194.617187l1.449219 34.136719h191.714844z" fill="#eeeef0"/><path d="m247.5625 341.328125h-6.835938l-1.453124 34.136719h-191.714844l-1.449219-34.136719h-6.832031l1.746094 40.96875h204.792968z" fill="#54596e"/></svg>