<svg height="404pt" viewBox="-15 0 404 404.15061" width="404pt" xmlns="http://www.w3.org/2000/svg"><path d="m227.421875 383.207031 138.507813-289.902343c2.984374-6.246094.105468-13.71875-6.300782-16.339844-99.074218-40.570313-210.121094-40.570313-309.191406 0-6.410156 2.621094-9.289062 10.09375-6.300781 16.339844l138.5 289.902343c9 18.824219 35.792969 18.824219 44.785156 0zm0 0" fill="#fff35f"/><path d="m227.421875 383.207031 6.160156 2.941407 138.503907-289.90625c1.25-2.609376 1.851562-5.40625 1.851562-8.132813.007812-7.398437-4.394531-14.464844-11.730469-17.46875-50.359375-20.625-103.769531-30.9375-157.175781-30.933594-53.410156-.003906-106.820312 10.308594-157.183594 30.9375-7.328125 3.007813-11.734375 10.066407-11.722656 17.464844 0 2.726563.601562 5.515625 1.84375 8.128906l138.507812 289.910157c2.8125 5.90625 7.148438 10.492187 12.171876 13.5 5.03125 3.019531 10.714843 4.503906 16.382812 4.503906s11.351562-1.488282 16.378906-4.503906c5.027344-3.011719 9.359375-7.597657 12.171875-13.496094l-6.160156-2.945313-6.160156-2.949219c-1.683594 3.511719-4.070313 5.984376-6.882813 7.683594-2.808594 1.6875-6.066406 2.558594-9.347656 2.558594s-6.542969-.871094-9.351562-2.558594c-2.8125-1.699218-5.199219-4.171875-6.886719-7.683594l-138.496094-289.898437c-.363281-.761719-.515625-1.507813-.515625-2.25.007812-2.050781 1.203125-4.003906 3.242188-4.828125 48.710937-19.949219 100.359374-29.921875 152.011718-29.925781 51.648438.003906 103.300782 9.980469 152.007813 29.925781 2.035156.816406 3.234375 2.773438 3.242187 4.828125 0 .75-.15625 1.496094-.515625 2.25l-138.507812 289.902344zm0 0" fill="#54596e"/><path d="m178.15625 208.492188c5.191406 9.773437 15.070312 16.777343 26.671875 16.785156 11.492187-.003906 21.292969-6.875 26.515625-16.492188 1.808594-3.3125.597656-7.457031-2.710938-9.269531-3.308593-1.808594-7.457031-.597656-9.265624 2.714844-3.285157 5.921875-8.683594 9.398437-14.539063 9.394531-5.902344.007812-11.371094-3.546875-14.632813-9.574219-1.78125-3.328125-5.917968-4.578125-9.242187-2.796875-3.328125 1.78125-4.578125 5.917969-2.796875 9.242188zm0 0" fill="#54596e"/><path d="m170.742188 177.492188c0 7.542968-6.113282 13.65625-13.652344 13.65625-7.542969 0-13.65625-6.113282-13.65625-13.65625 0-7.539063 6.113281-13.652344 13.65625-13.652344 7.539062 0 13.652344 6.113281 13.652344 13.652344zm0 0" fill="#54596e"/><path d="m266.316406 177.492188c0 7.542968-6.113281 13.65625-13.65625 13.65625-7.539062 0-13.652344-6.113282-13.652344-13.65625 0-7.539063 6.113282-13.652344 13.652344-13.652344 7.542969 0 13.65625 6.113281 13.65625 13.652344zm0 0" fill="#54596e"/><path d="m150.261719 201.386719c0 5.65625-4.585938 10.238281-10.238281 10.238281-5.65625 0-10.242188-4.582031-10.242188-10.238281s4.585938-10.238281 10.242188-10.238281c5.652343 0 10.238281 4.582031 10.238281 10.238281zm0 0" fill="#ffd578"/><path d="m279.96875 201.386719c0 5.65625-4.585938 10.238281-10.238281 10.238281-5.65625 0-10.242188-4.582031-10.242188-10.238281s4.585938-10.238281 10.242188-10.238281c5.652343 0 10.238281 4.582031 10.238281 10.238281zm0 0" fill="#ffd578"/><path d="m75.167969 81.921875c0 33.933594 27.507812 61.4375 61.441406 61.4375s61.4375-27.503906 61.4375-61.4375c0-12.996094-4.058594-25.027344-10.9375-34.953125-37.238281 1.640625-74.28125 8.457031-110.109375 20.300781-1.152344 4.703125-1.832031 9.589844-1.832031 14.652344zm0 0" fill="#ff927d"/><path d="m75.167969 81.921875h-6.824219c0 37.703125 30.558594 68.257813 68.265625 68.261719 37.703125-.003906 68.261719-30.558594 68.265625-68.261719.003906-14.429687-4.519531-27.839844-12.15625-38.84375-1.339844-1.933594-3.5625-3.042969-5.910156-2.9375-37.871094 1.671875-75.53125 8.601563-111.949219 20.644531-2.230469.738282-3.925781 2.574219-4.488281 4.859375-1.265625 5.160157-2.027344 10.601563-2.027344 16.277344h13.652344c0-4.449219.597656-8.78125 1.636718-13.027344l-6.632812-1.625 2.144531 6.480469c35.238281-11.648438 71.65625-18.351562 108.265625-19.960938l-.300781-6.820312-5.613281 3.886719c6.125 8.84375 9.722656 19.5 9.726562 31.066406-.003906 15.097656-6.101562 28.710937-15.996094 38.613281-9.90625 9.894532-23.515624 15.992188-38.617187 16-15.105469-.007812-28.714844-6.105468-38.621094-16-9.890625-9.902344-15.988281-23.515625-15.996093-38.613281zm0 0" fill="#54596e"/><path d="m359.628906 76.960938c-12.984375-5.320313-26.195312-9.898438-39.539062-13.824219-3.789063 6.535156-5.988282 14.101562-5.988282 22.195312 0 21.261719 14.960938 39.011719 34.925782 43.34375l16.902344-35.375c2.984374-6.246093.105468-13.714843-6.300782-16.339843zm0 0" fill="#ff927d"/><path d="m359.628906 76.960938 2.585938-6.320313c-13.214844-5.410156-26.644532-10.066406-40.199219-14.050781-3.027344-.890625-6.25.394531-7.832031 3.125-4.359375 7.515625-6.910156 16.28125-6.910156 25.617187.015624 24.539063 17.25 45.019531 40.308593 50.015625 3.101563.671875 6.238281-.867187 7.605469-3.730468l16.898438-35.375c1.25-2.613282 1.851562-5.40625 1.851562-8.132813.007812-7.402344-4.394531-14.46875-11.730469-17.46875l-5.15625 12.640625c2.023438.816406 3.222657 2.769531 3.234375 4.828125-.003906.75-.15625 1.496094-.519531 2.25l-16.898437 35.371094 6.160156 2.945312 1.445312-6.671875c-16.875-3.664062-29.558594-18.683594-29.546875-36.671875.003907-6.851562 1.851563-13.21875 5.066407-18.773437l-5.90625-3.417969-1.921876 6.546875c13.132813 3.863281 26.117188 8.363281 38.875 13.59375zm0 0" fill="#54596e"/><path d="m238.554688 359.90625 46.25-96.792969c-9.027344-6.589843-20.105469-10.527343-32.140626-10.527343-30.160156 0-54.613281 24.453124-54.613281 54.613281-.003906 25.277343 17.191407 46.480469 40.503907 52.707031zm0 0" fill="#ff927d"/><path d="m238.554688 359.90625 6.160156 2.941406 46.25-96.796875c1.410156-2.953125.511718-6.523437-2.136719-8.453125-10.117187-7.394531-22.632813-11.84375-36.164063-11.839844-33.933593.003907-61.433593 27.503907-61.441406 61.441407.011719 28.441406 19.339844 52.300781 45.574219 59.300781 3.183594.847656 6.5-.679688 7.917969-3.65625l-6.160156-2.9375 1.761718-6.597656c-20.390625-5.453125-35.453125-24.003906-35.441406-46.109375.003906-13.21875 5.339844-25.121094 14-33.792969 8.667969-8.65625 20.570312-13.992188 33.789062-13.996094 10.53125.003906 20.179688 3.429688 28.113282 9.214844l4.027344-5.511719-6.160157-2.945312-46.246093 96.792969 6.15625 2.945312 1.761718-6.597656zm0 0" fill="#54596e"/><path d="m100.949219 109.785156c-14.097657 3.964844-28.023438 8.746094-41.707031 14.347656-3.488282 1.425782-5.160157 5.414063-3.734376 8.902344 1.429688 3.492188 5.417969 5.164063 8.90625 3.738282 13.199219-5.40625 26.632813-10.019532 40.230469-13.84375 3.625-1.023438 5.742188-4.789063 4.71875-8.421876-1.019531-3.625-4.785156-5.742187-8.414062-4.71875zm0 0" fill="#54596e"/><path d="m350.824219 124.132812c-46.726563-19.136718-96.277344-28.699218-145.828125-28.695312-26.003906-.003906-52.011719 2.636719-77.609375 7.921875-3.691407.757813-6.066407 4.371094-5.304688 8.066406.761719 3.691407 4.375 6.066407 8.066407 5.304688 24.683593-5.097657 49.765624-7.644531 74.847656-7.644531 47.792968.003906 95.585937 9.226562 140.652344 27.683593 3.488281 1.429688 7.476562-.242187 8.902343-3.730469 1.429688-3.488281-.238281-7.476562-3.726562-8.902343zm0 0" fill="#54596e"/><g fill="#ffd578"><path d="m34.207031 146.773438c0 9.425781-7.640625 17.066406-17.066406 17.066406s-17.0664062-7.640625-17.0664062-17.066406c0-9.425782 7.6406252-17.066407 17.0664062-17.066407s17.066406 7.640625 17.066406 17.066407zm0 0"/><path d="m368.714844 314.027344c0 7.539062-6.113282 13.652344-13.652344 13.652344-7.542969 0-13.652344-6.113282-13.652344-13.652344 0-7.542969 6.109375-13.652344 13.652344-13.652344 7.539062 0 13.652344 6.109375 13.652344 13.652344zm0 0"/><path d="m320.929688 296.960938c0 5.65625-4.585938 10.238281-10.242188 10.238281-5.652344 0-10.238281-4.582031-10.238281-10.238281s4.585937-10.242188 10.238281-10.242188c5.65625 0 10.242188 4.585938 10.242188 10.242188zm0 0"/><path d="m341.410156 348.160156c0 7.539063-6.113281 13.652344-13.65625 13.652344-7.539062 0-13.652344-6.113281-13.652344-13.652344 0-7.539062 6.113282-13.652344 13.652344-13.652344 7.542969 0 13.65625 6.113282 13.65625 13.652344zm0 0"/><path d="m368.714844 17.066406c0 9.425782-7.640625 17.066406-17.066406 17.066406-9.425782 0-17.066407-7.640624-17.066407-17.066406 0-9.425781 7.640625-17.066406 17.066407-17.066406 9.425781 0 17.066406 7.640625 17.066406 17.066406zm0 0"/><path d="m81.996094 314.027344c0 11.308594-9.171875 20.480468-20.480469 20.480468-11.3125 0-20.480469-9.171874-20.480469-20.480468 0-11.3125 9.167969-20.480469 20.480469-20.480469 11.308594 0 20.480469 9.167969 20.480469 20.480469zm0 0"/></g></svg>