<svg height="392pt" viewBox="0 0 392.8064 392" width="392pt" xmlns="http://www.w3.org/2000/svg"><path d="m6.828125 321.335938c86.734375 86.734374 227.363281 86.734374 314.097656 0 86.738281-86.738282 86.738281-227.367188 0-314.101563zm0 0" fill="#61c5a8"/><path d="m6.828125 321.335938-4.828125 4.824218c44.683594 44.6875 103.3125 67.058594 161.878906 67.046875 58.566406.011719 117.191406-22.363281 161.875-67.046875 44.691406-44.6875 67.0625-103.316406 67.050782-161.882812.011718-58.570313-22.363282-117.199219-67.050782-161.875-2.667968-2.664063-6.988281-2.664063-9.652344 0l-314.101562 314.101562c-1.269531 1.269532-2 3.03125-2 4.832032 0 1.796874.730469 3.550781 2 4.824218l4.828125-4.824218 4.824219 4.824218 314.101562-314.097656-4.824218-4.828125-4.828126 4.828125c42.046876 42.039062 63.042969 97.09375 63.054688 152.214844-.011719 55.117187-21.007812 110.171875-63.054688 152.226562-42.050781 42.042969-97.105468 63.042969-152.222656 63.050782-55.117187-.007813-110.171875-21.007813-152.222656-63.050782l-4.828125 4.832032 4.824219 4.824218zm0 0" fill="#54596e"/><path d="m303.195312 24.964844-167.105468 167.109375c11.796875 24.8125 39.0625 58.9375 99.148437 54.316406 0 0-42.246093 48.140625-143.230469-10.238281l-67.449218 67.449218c76.945312 76.945313 201.695312 76.945313 278.636718 0 76.941407-76.941406 76.941407-201.695312 0-278.636718zm0 0" fill="#ff927d"/><g fill="#54596e"><path d="m303.195312 24.964844-4.828124-4.828125-167.105469 167.105469c-2.042969 2.039062-2.578125 5.15625-1.339844 7.761718 5.863281 12.320313 15.371094 26.949219 30.621094 38.59375 15.226562 11.648438 36.226562 20.070313 63.886719 20.035156 3.667968 0 7.4375-.152343 11.316406-.4375l-.507813-6.804687-5.128906-4.507813 1.90625 1.671876-1.875-1.707032-.03125.035156 1.90625 1.671876-1.875-1.707032c-.070313.082032-3.835937 4.1875-11.652344 8.242188-7.824219 4.054687-19.683593 8.113281-36.347656 8.125-20.84375-.003906-49.378906-6.40625-86.714844-27.976563-2.679687-1.550781-6.054687-1.101562-8.242187 1.082031l-67.449219 67.449219c-1.273437 1.269531-2 3.027344-2 4.824219 0 1.800781.726563 3.558594 2 4.832031 39.789063 39.792969 91.996094 59.714844 144.144531 59.707031 52.148438.007813 104.359375-19.917968 144.144532-59.707031 39.792968-39.789062 59.714843-92.003906 59.707031-144.144531.011719-52.152344-19.914063-104.367188-59.707031-144.144531-2.667969-2.667969-6.984376-2.667969-9.652344 0l4.824218 4.828125-4.828124 4.828125c37.152343 37.148437 55.703124 85.789062 55.707031 134.492187-.007813 48.6875-18.554688 97.328125-55.707031 134.484375-37.15625 37.152344-85.792969 55.703125-134.488282 55.714844-48.699218-.011719-97.335937-18.558594-134.492187-55.714844l-4.824219 4.832031 4.824219 4.824219 67.449219-67.445312-4.824219-4.828125-3.417969 5.910156c38.898438 22.484375 69.859375 29.808594 93.546875 29.804688 19.527344.007812 33.996094-4.996094 43.550781-10.136719 9.574219-5.144531 14.265625-10.367188 14.679688-10.835938 1.832031-2.09375 2.21875-5.0625.980468-7.550781-1.242187-2.492188-3.839843-3.96875-6.617187-3.765625-3.578125.269531-7.011719.40625-10.304687.40625-24.9375-.035156-42.574219-7.347656-55.605469-17.246094-13.003907-9.910156-21.363281-22.648437-26.570313-33.601562l-6.164062 2.933593 4.828125 4.828126 167.105469-167.105469-4.828126-4.828125-4.828124 4.828125zm0 0"/><path d="m180.601562 295.441406c-2.667968-2.667968-6.988281-2.667968-9.65625 0-2.664062 2.664063-2.664062 6.988282 0 9.652344 2.667969 2.667969 6.988282 2.667969 9.65625 0 2.664063-2.664062 2.664063-6.988281 0-9.652344zm0 0"/><path d="m304.378906 200.378906c-2.664062-2.664062-6.988281-2.664062-9.652344 0-2.667968 2.667969-2.667968 6.988282 0 9.65625 2.664063 2.664063 6.988282 2.664063 9.652344 0 2.667969-2.667968 2.667969-6.988281 0-9.65625zm0 0"/><path d="m229.285156 302.78125c-2.664062-2.667969-6.988281-2.667969-9.652344 0-2.667968 2.664062-2.667968 6.988281 0 9.652344 2.664063 2.664062 6.988282 2.664062 9.652344 0 2.667969-2.664063 2.667969-6.988282 0-9.652344zm0 0"/><path d="m281.972656 271.300781c-2.664062-2.667969-6.988281-2.667969-9.65625 0-2.667968 2.667969-2.667968 6.988281 0 9.65625 2.667969 2.667969 6.992188 2.667969 9.65625 0 2.667969-2.667969 2.667969-6.988281 0-9.65625zm0 0"/><path d="m147.367188 330.085938c-2.664063-2.667969-6.988282-2.667969-9.652344 0-2.667969 2.664062-2.667969 6.988281 0 9.652343 2.664062 2.667969 6.988281 2.667969 9.652344 0 2.667968-2.664062 2.667968-6.988281 0-9.652343zm0 0"/><path d="m224.464844 184.726562c0 7.542969-6.113282 13.652344-13.652344 13.652344-7.542969 0-13.65625-6.109375-13.65625-13.652344 0-7.539062 6.113281-13.652343 13.65625-13.652343 7.539062 0 13.652344 6.113281 13.652344 13.652343zm0 0"/><path d="m297.554688 152.59375c-2.667969-2.664062-6.988282-2.664062-9.65625 0-2.664063 2.667969-2.664063 6.988281 0 9.65625 2.667968 2.664062 6.988281 2.664062 9.65625 0 2.664062-2.667969 2.664062-6.988281 0-9.65625zm0 0"/><path d="m311.207031 84.328125c-2.664062-2.667969-6.988281-2.667969-9.652343 0-2.667969 2.664063-2.667969 6.988281 0 9.652344 2.664062 2.667969 6.988281 2.667969 9.652343 0 2.667969-2.664063 2.667969-6.988281 0-9.652344zm0 0"/><path d="m272.316406 116.835938c-2.664062-2.667969-6.988281-2.667969-9.652344 0-2.667968 2.664062-2.667968 6.988281 0 9.652343 2.664063 2.667969 6.988282 2.667969 9.652344 0 2.667969-2.664062 2.667969-6.988281 0-9.652343zm0 0"/><path d="m263.421875 220.859375c-2.667969-2.664063-6.988281-2.664063-9.65625 0-2.664063 2.667969-2.664063 6.988281 0 9.65625 2.667969 2.664063 6.988281 2.664063 9.65625 0 2.664063-2.667969 2.664063-6.988281 0-9.65625zm0 0"/><path d="m113.019531 295.4375c-2.664062-2.664062-6.988281-2.664062-9.652343 0-2.667969 2.667969-2.667969 6.988281 0 9.65625 2.664062 2.664062 6.988281 2.664062 9.652343 0 2.667969-2.667969 2.667969-6.988281 0-9.65625zm0 0"/><path d="m244.945312 184.726562c-.007812-18.855468-15.28125-34.128906-34.132812-34.132812-3.773438 0-6.828125 3.054688-6.828125 6.828125 0 3.769531 3.054687 6.824219 6.828125 6.824219 11.304688.023437 20.457031 9.175781 20.476562 20.480468 0 3.769532 3.058594 6.828126 6.828126 6.828126 3.769531 0 6.828124-3.058594 6.828124-6.828126zm0 0"/><path d="m92.757812 193.550781-27.308593-27.304687c-2.664063-2.664063-6.988281-2.664063-9.652344 0-2.667969 2.664062-2.667969 6.988281 0 9.65625l27.304687 27.304687c2.667969 2.664063 6.988282 2.664063 9.65625 0 2.664063-2.667969 2.664063-6.992187 0-9.65625"/><path d="m108.410156 177.902344v-20.480469c0-3.773437-3.054687-6.828125-6.824218-6.828125-3.773438 0-6.828126 3.054688-6.828126 6.828125v20.480469c0 3.769531 3.054688 6.824218 6.828126 6.824218 3.769531 0 6.824218-3.054687 6.824218-6.824218"/><path d="m67.449219 205.207031h-20.476563c-3.773437 0-6.828125 3.054688-6.828125 6.828125 0 3.769532 3.054688 6.824219 6.828125 6.824219h20.476563c3.773437 0 6.828125-3.054687 6.828125-6.824219 0-3.773437-3.054688-6.828125-6.828125-6.828125"/></g></svg>