<svg height="437pt" viewBox="-14 0 437 437.53817" width="437pt" xmlns="http://www.w3.org/2000/svg"><path d="m233.476562 171.300781v92.15625c0 5.652344-4.585937 10.242188-10.238281 10.242188-5.652343 0-10.242187-4.589844-10.242187-10.242188v-92.15625h-20.480469v92.15625c0 5.652344-4.585937 10.242188-10.238281 10.242188s-10.242188-4.589844-10.242188-10.242188v-92.15625h-20.480468v109.226563l34.132812 39.011718v111.175782h34.132812v-111.175782l34.132813-39.011718v-109.226563z" fill="#d8d8d8"/><path d="m233.476562 171.300781h-6.828124v92.15625c0 1.875-1.53125 3.410157-3.410157 3.417969-1.878906-.007812-3.410156-1.542969-3.417969-3.417969v-92.15625c0-1.796875-.726562-3.554687-1.996093-4.832031-1.269531-1.269531-3.035157-1.996094-4.828125-1.996094h-20.480469c-1.796875 0-3.554687.726563-4.824219 1.996094-1.269531 1.277344-2.003906 3.035156-2.003906 4.832031v92.15625c0 1.875-1.53125 3.410157-3.410156 3.417969-1.875-.007812-3.410156-1.542969-3.414063-3.417969v-92.15625c0-1.796875-.730469-3.554687-1.996093-4.832031-1.269532-1.269531-3.027344-1.996094-4.832032-1.996094h-20.480468c-1.796876 0-3.554688.726563-4.824219 1.996094-1.269531 1.277344-2.003907 3.035156-2.003907 4.832031v109.226563c0 1.664062.601563 3.242187 1.695313 4.496094l32.441406 37.082031v108.613281c0 1.820312.710938 3.527344 2 4.824219 1.285157 1.292969 3.003907 1.996093 4.824219 1.996093h34.132812c1.828126 0 3.539063-.703124 4.832032-1.996093 1.285156-1.296875 1.996094-3.003907 1.996094-4.824219v-108.613281l32.449218-37.082031c1.09375-1.253907 1.683594-2.832032 1.683594-4.496094v-109.226563c0-1.796875-.726562-3.554687-1.996094-4.832031-1.269531-1.269531-3.035156-1.996094-4.832031-1.996094h-20.480469c-1.796875 0-3.554687.726563-4.824218 1.996094-1.277344 1.277344-2.003907 3.035156-2.003907 4.832031h6.832031v6.824219h13.652344v99.832031l-32.441406 37.078125c-1.09375 1.253906-1.695312 2.835938-1.695312 4.503906v104.347657h-20.480469v-104.347657c0-1.667968-.589844-3.246093-1.683594-4.503906l-32.449219-37.078125v-99.839843h6.828125v85.339843c.007813 9.429688 7.640625 17.0625 17.070313 17.0625 9.429687 0 17.0625-7.632812 17.0625-17.0625v-85.339843h6.828125v85.339843c.007812 9.429688 7.640625 17.0625 17.070312 17.0625 9.429688 0 17.054688-7.632812 17.0625-17.0625v-92.15625h-6.824219v6.824219z" fill="#54596e"/><path d="m385.476562 22.929688c21.621094 21.613281 21.453126 56.832031-.375 78.664062l-7.90625 7.90625c-98.058593 98.054688-256.863281 98.824219-353.996093 1.683594-21.621094-21.613282-21.453125-56.839844.375-78.664063 21.832031-21.832031 57.050781-21.992187 78.664062-.378906 53.960938 53.960937 142.191407 53.546875 196.667969-.933594l7.90625-7.902343c21.820312-21.828126 57.042969-21.996094 78.664062-.375" fill="#f4a14e"/><path d="m385.476562 22.929688-4.824218 4.824218c9.414062 9.421875 14.09375 21.722656 14.101562 34.15625-.007812 12.582032-4.816406 25.175782-14.484375 34.851563l-7.90625 7.90625c-48.019531 48.019531-110.945312 72.035156-173.710937 72.046875-61.992188-.011719-123.6875-23.429688-170.621094-70.363282-9.425781-9.421874-14.101562-21.726562-14.109375-34.167968.007813-12.589844 4.8125-25.183594 14.476563-34.839844 9.675781-9.671875 22.265624-14.476562 34.851562-14.484375 12.4375.007813 24.734375 4.675781 34.15625 14.105469 28.144531 28.148437 65.210938 42.207031 102.304688 42.191406 37.566406.011719 75.296874-14.402344 104.023437-43.125l7.898437-7.902344c9.667969-9.664062 22.257813-14.46875 34.851563-14.484375 12.429687.015625 24.734375 4.683594 34.15625 14.109375l4.835937-4.824218 4.828126-4.832032c-12.0625-12.078125-27.960938-18.113281-43.816407-18.097656-16.066406-.015625-32.210937 6.179688-44.507812 18.476562l-7.898438 7.902344c-26.089843 26.078125-60.265625 39.125-94.367187 39.136719-33.679688-.019531-67.15625-12.722656-92.644532-38.203125-12.0625-12.078125-27.960937-18.117188-43.820312-18.105469-16.054688-.011719-32.207031 6.1875-44.503906 18.484375-12.296875 12.277344-18.484375 28.4375-18.476563 44.496094-.007812 15.867188 6.035157 31.761719 18.109375 43.828125 49.582032 49.585937 114.863282 74.359375 180.273438 74.351563 66.226562 0 132.71875-25.390626 183.375-76.039063l7.90625-7.914063c12.292968-12.300781 18.484375-28.449218 18.472656-44.503906.011719-15.859375-6.035156-31.753906-18.097656-43.8125z" fill="#54596e"/><path d="m394.75 61.347656c-2.507812 4.640625-5.71875 9.011719-9.648438 12.9375l-7.90625 7.90625c-49.335937 49.335938-114.054687 74.046875-178.550781 74.046875-63.699219 0-127.179687-24.09375-175.441406-72.359375-3.761719-3.761718-6.84375-7.9375-9.273437-12.382812-.003907.230468-.003907.460937-.003907.691406.007813 12.4375 4.683594 24.742188 14.105469 34.167969 46.933594 46.933593 108.632812 70.347656 170.625 70.359375 62.765625-.011719 125.691406-24.027344 173.710938-72.042969l7.90625-7.90625c9.667968-9.679687 14.472656-22.269531 14.484374-34.855469-.003906-.1875-.003906-.378906-.007812-.5625" fill="#d49354"/><g fill="#54596e"><path d="m399.824219 48.273438c-1.132813 4.5-2.820313 8.898437-5.074219 13.074218 0 .183594.003906.375.003906.5625-.007812 12.582032-4.816406 25.175782-14.484375 34.851563l-7.90625 7.90625c-48.019531 48.019531-110.945312 72.035156-173.710937 72.046875-61.992188-.011719-123.6875-23.429688-170.621094-70.363282-9.425781-9.421874-14.101562-21.726562-14.109375-34.167968 0-.230469 0-.460938.003906-.6875-2.253906-4.128906-3.941406-8.492188-5.074219-12.964844-4.609374 18.316406.117188 38.425781 14.347657 52.652344 48.257812 48.261718 111.75 72.359375 175.441406 72.359375 64.503906 0 129.210937-24.707031 178.550781-74.042969l7.90625-7.910156c14.503906-14.503906 19.386719-34.902344 14.726563-53.316406"/><path d="m232.667969 154.421875c-5.1875-9.769531-15.0625-16.777344-26.671875-16.78125-11.484375.003906-21.289063 6.867187-26.511719 16.488281-1.8125 3.308594-.601563 7.457032 2.707031 9.265625 3.308594 1.8125 7.457032.601563 9.269532-2.703125 3.28125-5.925781 8.691406-9.40625 14.539062-9.402344 5.910156-.007812 11.367188 3.546876 14.632812 9.578126 1.777344 3.320312 5.914063 4.574218 9.238282 2.796874 3.324218-1.777343 4.578125-5.914062 2.800781-9.238281zm0 0"/><path d="m158.382812 120.101562c0 5.652344-4.585937 10.238282-10.238281 10.238282-5.65625 0-10.242187-4.585938-10.242187-10.238282 0-5.65625 4.585937-10.242187 10.242187-10.242187 5.652344 0 10.238281 4.585937 10.238281 10.242187zm0 0"/><path d="m274.4375 120.101562c0 5.652344-4.585938 10.238282-10.242188 10.238282-5.652343 0-10.238281-4.585938-10.238281-10.238282 0-5.65625 4.585938-10.242187 10.238281-10.242187 5.65625 0 10.242188 4.585937 10.242188 10.242187zm0 0"/><path d="m94.941406 73.726562 20.480469-20.480468c2.667969-2.664063 2.667969-6.992188 0-9.65625-2.664063-2.664063-6.988281-2.664063-9.652344 0l-20.480469 20.480468c-2.667968 2.664063-2.667968 6.988282 0 9.65625 2.667969 2.664063 6.988282 2.664063 9.652344 0"/><path d="m178.511719 98.363281 6.828125-20.480469c1.191406-3.578124-.742188-7.445312-4.316406-8.636718-3.578126-1.191406-7.445313.742187-8.636719 4.316406l-6.828125 20.480469c-1.191406 3.578125.742187 7.445312 4.320312 8.636719 3.574219 1.191406 7.441406-.742188 8.632813-4.316407"/><path d="m239.953125 94.046875-6.828125-20.480469c-1.191406-3.578125-5.058594-5.511718-8.632812-4.316406-3.578126 1.1875-5.511719 5.054688-4.320313 8.632812l6.828125 20.480469c1.191406 3.578125 5.058594 5.511719 8.636719 4.316407 3.574219-1.191407 5.507812-5.054688 4.316406-8.632813"/><path d="m313.394531 64.066406-20.476562-20.476562c-2.667969-2.664063-6.992188-2.664063-9.65625 0-2.664063 2.664062-2.664063 6.988281 0 9.65625l20.480469 20.480468c2.664062 2.664063 6.988281 2.664063 9.652343 0 2.667969-2.667968 2.667969-6.992187 0-9.660156"/></g></svg>