<svg height="436pt" viewBox="-31 0 436 436.90325" width="436pt" xmlns="http://www.w3.org/2000/svg"><path d="m115.242188 232.105469h102.398437c64.09375 0 116.054687-51.957031 116.054687-116.050781h-218.453124zm0 0" fill="#ffb8f2"/><path d="m115.242188 232.105469v6.824219h102.398437c67.867187-.003907 122.875-55.011719 122.882813-122.875 0-1.800782-.730469-3.558594-2-4.832032-1.269532-1.269531-3.027344-1.996094-4.828126-1.996094h-218.453124c-1.796876 0-3.554688.726563-4.828126 1.996094-1.269531 1.273438-1.996093 3.03125-1.996093 4.832032v116.050781c0 1.824219.710937 3.539062 2 4.828125 1.289062 1.289062 3.003906 1.996094 4.824219 1.996094v-6.824219h6.828124v-109.226563h211.625v-6.824218h-6.824218c-.003906 30.179687-12.214844 57.441406-31.992188 77.230468-19.789062 19.777344-47.054687 31.988282-77.234375 31.996094h-102.402343v6.824219h6.828124zm0 0" fill="#54596e"/><path d="m214.230469 322.953125c-44.648438 0-82.515625-28.074219-96.527344-67.167969-20.347656 18.359375-33.179687 44.609375-33.179687 73.859375 0 55.46875 45.84375 100.433594 102.398437 100.433594s102.398437-44.964844 102.398437-100.433594c0-11.679687-2.132812-22.839843-5.871093-33.269531-18.234375 16.453125-42.492188 26.578125-69.21875 26.578125zm0 0" fill="#ffb8f2"/><path d="m214.230469 322.953125v-6.828125c-41.734375.007812-77.054688-26.246094-90.101563-62.644531-.773437-2.152344-2.550781-3.761719-4.761718-4.316407-2.214844-.558593-4.542969.023438-6.238282 1.550782-21.683594 19.546875-35.4375 47.652344-35.433594 78.929687-.003906 29.632813 12.269532 56.515625 32.039063 75.890625 19.757813 19.386719 47.085937 31.371094 77.1875 31.367188 30.101563.003906 57.429687-11.980469 77.1875-31.367188 19.765625-19.375 32.042969-46.257812 32.039063-75.890625.003906-12.515625-2.289063-24.464843-6.273438-35.574219-.769531-2.152343-2.546875-3.761718-4.761719-4.316406-2.21875-.558594-4.542969.023438-6.238281 1.550782-17.042969 15.367187-39.660156 24.816406-64.644531 24.820312v13.652344c28.464843 0 54.371093-10.800782 73.792969-28.335938l-4.574219-5.066406-6.425781 2.304688c3.496093 9.75 5.472656 20.117187 5.472656 30.964843-.003906 25.832031-10.648438 49.167969-27.945313 66.140625-17.300781 16.964844-41.175781 27.464844-67.628906 27.46875-26.449219-.003906-50.324219-10.503906-67.625-27.46875-17.296875-16.972656-27.941406-40.308594-27.945313-66.140625.003907-27.226562 11.917969-51.625 30.925782-68.792969l-4.574219-5.066406-6.425781 2.304688c14.976562 41.785156 55.394531 71.679687 102.953125 71.6875zm0 0" fill="#54596e"/><path d="m171.757812 267.65625c-36.535156-48.886719-92.847656-68.566406-125.78125-43.953125-32.933593 24.609375-30.015624 84.191406 6.515626 133.078125 36.535156 48.886719 92.851562 68.566406 125.785156 43.957031 32.933594-24.613281 30.011718-84.195312-6.519532-133.082031zm0 0" fill="#ffb8f2"/><path d="m171.773438 267.652344 5.46875-4.085938c-13.457032-18.003906-29.503907-32.25-46.324219-42.066406-16.816407-9.808594-34.433594-15.230469-51.121094-15.242188-13.765625-.015624-26.972656 3.785157-37.898437 11.976563-8.707032 6.496094-15.191407 15.179687-19.40625 25.117187-4.226563 9.941407-6.246094 21.125-6.246094 32.925782.027344 27.03125 10.507812 57.410156 30.792968 84.59375 13.457032 18 29.507813 32.242187 46.324219 42.058594 16.820313 9.800781 34.433594 15.222656 51.121094 15.234374 13.769531.015626 26.96875-3.785156 37.894531-11.953124 8.710938-6.507813 15.191406-15.191407 19.40625-25.132813 4.226563-9.941406 6.242188-21.128906 6.246094-32.925781-.027344-27.03125-10.507812-57.421875-30.789062-84.589844l-5.46875 4.089844-5.464844 4.089844c18.726562 25.015624 28.097656 52.9375 28.070312 76.410156 0 10.246094-1.761718 19.613281-5.15625 27.582031-3.402344 7.980469-8.375 14.566406-15.015625 19.535156-8.332031 6.210938-18.390625 9.226563-29.722656 9.242188-13.679687.011719-29.128906-4.550781-44.242187-13.375-15.117188-8.8125-29.871094-21.847657-42.265626-38.441407-18.734374-25.03125-28.105468-52.953124-28.078124-76.417968 0-10.242188 1.761718-19.613282 5.15625-27.582032 3.402343-7.976562 8.375-14.558593 15.019531-19.527343 8.335937-6.226563 18.386719-9.238281 29.722656-9.257813 13.679687-.007812 29.125 4.550782 44.238281 13.382813 15.117188 8.816406 29.871094 21.851562 42.269532 38.445312zm0 0" fill="#54596e"/><path d="m111.574219 115.390625c-44.453125-7.90625-89.921875 38.707031-101.554688 104.109375-11.628906 65.402344 14.980469 124.828125 59.433594 132.734375 44.457031 7.90625 89.925781-38.703125 101.554687-104.105469 11.632813-65.402344-14.976562-124.832031-59.433593-132.738281zm0 0" fill="#ffb8f2"/><g fill="#54596e"><path d="m170.988281 248.128906 6.722657 1.191406c1.917968-10.78125 2.832031-21.414062 2.832031-31.722656-.011719-27.300781-6.40625-52.335937-18.027344-71.785156-11.574219-19.410156-28.734375-33.40625-49.765625-37.136719-3.699219-.660156-7.414062-.980469-11.109375-.976562-23.105469.027343-45 12.394531-62.324219 32.097656-17.355468 19.761719-30.433594 47.09375-36.027344 78.507813-1.917968 10.777343-2.835937 21.410156-2.835937 31.71875.011719 27.296874 6.40625 52.328124 18.027344 71.78125 11.574219 19.410156 28.734375 33.414062 49.765625 37.152343 3.710937.660157 7.421875.972657 11.109375.96875 23.105469-.03125 45-12.402343 62.324219-32.105469 17.355468-19.761718 30.433593-47.089843 36.03125-78.496093l-6.722657-1.195313-6.71875-1.199218c-5.167969 29.121093-17.355469 54.277343-32.84375 71.871093-15.523437 17.648438-34.0625 27.503907-52.070312 27.472657-2.914063-.003907-5.820313-.25-8.71875-.761719-16.359375-2.921875-30.28125-13.796875-40.441407-30.71875-10.113281-16.871094-16.101562-39.613281-16.089843-64.769531 0-9.496094.847656-19.332032 2.625-29.328126 5.167969-29.128906 17.351562-54.289062 32.839843-71.878906 15.523438-17.648437 34.0625-27.496094 52.070313-27.46875 2.90625.003906 5.8125.253906 8.71875.773438 16.363281 2.910156 30.285156 13.78125 40.441406 30.699218 10.113281 16.875 16.105469 39.621094 16.09375 64.777344 0 9.5-.847656 19.339844-2.625 29.332032zm0 0"/><path d="m19.683594 177.941406c1.335937 20.136719 5.398437 38.253906 13.542968 53.136719 8.101563 14.871094 20.628907 26.386719 37.625 32.234375 7.816407 2.710938 15.878907 4.003906 23.953126 4 29.65625-.058594 58.988281-17.144531 80.894531-44.605469 2.351562-2.949219 1.863281-7.246093-1.082031-9.59375-2.949219-2.347656-7.246094-1.863281-9.59375 1.089844-19.949219 25.066406-46.039063 39.519531-70.222657 39.457031-6.625 0-13.136719-1.050781-19.476562-3.246094-13.78125-4.832031-23.269531-13.507812-30.128907-25.90625-6.8125-12.382812-10.660156-28.613281-11.890624-47.464843-.25-3.761719-3.5-6.613281-7.261719-6.363281s-6.609375 3.5-6.363281 7.265624zm0 0"/><path d="m313.214844 122.875c33.933594 0 61.433594-27.5 61.441406-61.433594-.007812-33.9375-27.507812-61.43749975-61.441406-61.441406-3.769532 0-6.824219 3.054688-6.824219 6.828125 0 3.769531 3.054687 6.824219 6.824219 6.824219 13.21875.003906 25.121094 5.335937 33.789062 13.996094 8.65625 8.671874 13.992188 20.574218 14 33.792968-.003906 13.210938-5.339844 25.117188-14 33.785156-8.667968 8.660157-20.574218 13.992188-33.789062 14-3.769532 0-6.824219 3.054688-6.824219 6.828126 0 3.769531 3.054687 6.824218 6.824219 6.824218zm0 0"/><path d="m299.5625 122.875c22.625 0 40.957031-18.332031 40.960938-40.953125-.003907-22.628906-18.335938-40.957031-40.960938-40.960937-3.769531 0-6.828125 3.050781-6.828125 6.824218 0 3.773438 3.058594 6.828125 6.828125 6.828125 7.5625.003907 14.347656 3.042969 19.308594 7.996094 4.953125 4.960937 7.996094 11.746094 7.996094 19.3125 0 7.5625-3.042969 14.34375-7.996094 19.304687-4.960938 4.953126-11.746094 7.992188-19.308594 8-3.769531 0-6.828125 3.054688-6.828125 6.828126 0 3.769531 3.058594 6.824218 6.828125 6.824218zm0 0"/><path d="m265.429688 150.1875h6.824218c-.003906-11.316406-9.164062-20.476562-20.480468-20.480469-11.3125.003907-20.472657 9.164063-20.476563 20.480469.003906 11.3125 9.164063 20.472656 20.476563 20.476562 11.316406-.003906 20.476562-9.164062 20.480468-20.476562h-13.652344c-.007812 3.761719-3.058593 6.816406-6.828124 6.824219-3.765626-.007813-6.816407-3.0625-6.824219-6.824219.007812-3.765625 3.058593-6.820312 6.824219-6.832031 3.769531.011719 6.820312 3.066406 6.828124 6.832031zm0 0"/></g></svg>