<svg height="422pt" viewBox="0 -16 422.75675 422" width="422pt" xmlns="http://www.w3.org/2000/svg"><path d="m231.210938 270.820312c-7.5 3.535157-13.726563 9.34375-17.769532 16.582032-8.160156 14.605468-25.375 43.3125-49.304687 72.027344-34.132813 40.957031-95.574219 27.304687-122.878907-13.65625-27.308593-40.957032-61.441406-129.703126 0-225.277344 61.4375-95.574219 177.492188-157.015625 307.199219-75.09375 129.707031 81.917968 40.960938 197.972656-6.828125 211.625-43.734375 12.496094-67.453125-6.457032-110.417968 13.792968zm0 0" fill="#ffd578"/><path d="m231.210938 270.820312-2.910157-6.179687c-8.789062 4.148437-16.078125 10.941406-20.820312 19.433594-8.015625 14.355469-25.054688 42.753906-48.585938 70.980469-13.019531 15.554687-29.894531 22.222656-47.503906 22.273437-24.402344.054687-49.921875-13.460937-64.453125-35.339844-15.453125-23.15625-33.316406-62.574219-33.285156-109.550781.015625-33.03125 8.695312-69.882812 33.347656-108.253906 20.226562-31.46875 46.488281-59.082032 77.066406-78.742188 30.59375-19.660156 65.425782-31.40625 103.21875-31.410156 36.601563.011719 76.125 11 117.527344 37.144531 24.257812 15.324219 40.296875 31.632813 50.28125 47.894531 9.976562 16.277344 13.996094 32.53125 14.011719 48.277344.023437 25.132813-10.515625 49.164063-24.734375 67.851563-7.09375 9.332031-15.070313 17.304687-22.902344 23.355469-7.816406 6.054687-15.53125 10.160156-21.714844 11.910156-12.371094 3.527344-22.898437 4.390625-33.058594 4.394531-9.894531.007813-19.464843-.878906-29.746093-.886719-14.375-.03125-30.128907 1.886719-48.652344 10.671875l2.914063 6.175781 2.914062 6.171876c16.617188-7.808594 29.566406-9.335938 42.824219-9.371094 9.441406-.007813 19.050781.882812 29.742187.886718 10.949219.007813 23.011719-.96875 36.8125-4.914062 8.519532-2.457031 17.441406-7.402344 26.3125-14.238281 13.273438-10.273438 26.367188-24.878907 36.296875-42.375 9.90625-17.480469 16.636719-37.910157 16.644531-59.632813.011719-18.105468-4.746093-37.066406-16.03125-55.421875-11.273437-18.367187-28.976562-36.097656-54.625-52.296875-43.234374-27.328125-85.445312-39.265625-124.816406-39.25-40.660156-.007812-78.144531 12.695313-110.601562 33.578125-32.476563 20.890625-60 49.921875-81.167969 82.84375-26.058594 40.492188-35.5351562 80.195313-35.515625 115.636719.0273438 50.492188 18.957031 92.15625 35.578125 117.121094 17.210937 25.710937 46.480469 41.367187 75.8125 41.421875 21.117187.050781 42.417969-8.429688 57.992187-27.179688 24.320313-29.199219 41.71875-58.222656 50.019532-73.070312 3.34375-5.992188 8.511718-10.808594 14.722656-13.738281zm0 0" fill="#54596e"/><path d="m51.308594 173.5625c-7.3125-1.273438-14.4375 3.320312-16.496094 10.453125-17.539062 60.695313 5.589844 118.9375 23.511719 144.691406 22.324219 32.085938 69.996093 29.78125 97.90625-2.304687 19.5625-22.488282 33.640625-44.980469 40.3125-56.421875l.066406-.113281c3.816406-6.472657 2.9375-14.671876-2.898437-19.40625-36.804688-29.851563-92.078126-68.128907-142.402344-76.898438zm0 0" fill="#ff927d"/><path d="m51.308594 173.5625 1.175781-6.726562c-1.191406-.207032-2.402344-.316407-3.621094-.316407-9.5.023438-17.914062 6.328125-20.613281 15.601563-4.597656 15.914062-6.511719 31.652344-6.511719 46.691406 0 22.417969 4.238281 43.273438 10.199219 61.050781 5.976562 17.78125 13.644531 32.472657 20.78125 42.742188 12.066406 17.40625 31.109375 25.921875 50.507812 25.863281 20.875-.011719 42.429688-9.539062 58.152344-27.585938 19.972656-22.964843 34.238282-45.777343 41.058594-57.464843l-.011719.023437.066407-.113281c2.140624-3.632813 3.25-7.695313 3.25-11.765625.03125-6.039062-2.558594-12.246094-7.738282-16.410156-18.589844-15.074219-41.851562-32.296875-66.988281-46.949219-25.148437-14.632813-52.140625-26.75-78.539063-31.367187l-1.167968 6.726562-1.171875 6.722656c23.929687 4.152344 49.734375 15.558594 74.007812 29.714844 24.28125 14.148438 47.054688 30.988281 65.265625 45.761719 1.804688 1.484375 2.652344 3.429687 2.683594 5.796875 0 1.566406-.441406 3.269531-1.363281 4.839844l-.070313.117187-.011718.023437c-6.527344 11.195313-20.414063 33.367188-39.566407 55.378907-13.191406 15.167969-31.148437 22.910156-47.851562 22.898437-15.582031-.054687-29.84375-6.492187-39.300781-20.011718-6.28125-9.019532-13.492188-22.726563-19.042969-39.289063-5.5625-16.574219-9.492188-36.019531-9.492188-56.707031 0-13.882813 1.765625-28.328125 5.976563-42.902344.960937-3.410156 4.191406-5.765625 7.492187-5.742188l1.269531.117188zm0 0" fill="#54596e"/><path d="m188.03125 178.523438c44.925781 3.449218 114.304688-3.582032 171.894531-11.382813 23.179688-3.132813 37.304688-27.703125 27.761719-49.058594-9.027344-20.1875-28.328125-41.386719-63.121094-62.441406-95.710937-57.90625-196.679687-4.179687-252.390625 61.878906-6.496093 7.699219-4.300781 19.496094 4.433594 24.511719 28.128906 16.152344 67.226563 33.089844 111.421875 36.492188zm0 0" fill="#ff927d"/><g fill="#54596e"><path d="m188.03125 178.523438-.523438 6.800781c8.292969.640625 17.3125.917969 26.886719.917969 43.695313-.007813 99.035157-5.933594 146.445313-12.339844 10.800781-1.453125 20.035156-6.875 26.472656-14.40625 6.449219-7.53125 10.214844-17.210938 10.21875-27.378906.003906-5.597657-1.15625-11.335938-3.613281-16.824219-9.8125-21.90625-30.277344-43.984375-65.820313-65.496094-29.652344-17.953125-60.089844-25.660156-89.492187-25.640625-34.460938.003906-67.417969 10.46875-96.6875 26.765625-29.28125 16.308594-54.933594 38.449219-74.964844 62.195313-3.625 4.289062-5.375 9.570312-5.367187 14.707031-.011719 7.925781 4.101562 15.792969 11.613281 20.121093 28.714843 16.472657 68.679687 33.851563 114.308593 37.378907l.523438-6.800781.523438-6.808594c-42.757813-3.273438-80.996094-19.773438-108.546876-35.605469-3.085937-1.769531-4.757812-4.988281-4.769531-8.285156.011719-2.117188.679688-4.148438 2.152344-5.90625 19.015625-22.554688 43.523437-43.683594 71.167969-59.066407 27.65625-15.398437 58.386718-25.050781 90.046875-25.046874 27.039062.019531 54.808593 6.980468 82.425781 23.675781 34.050781 20.597656 52.1875 40.921875 60.425781 59.386719 1.664063 3.726562 2.421875 7.515624 2.421875 11.253906.007813 6.757812-2.53125 13.363281-6.933594 18.496094-4.40625 5.132812-10.5625 8.757812-17.933593 9.757812-47.082031 6.375-102.105469 12.226562-144.617188 12.21875-9.300781 0-17.996093-.277344-25.839843-.878906zm0 0"/><path d="m239.230469 205.828125 88.746093-13.652344c16.171876-1.699219 30.445313 11.207031 23.308594 25.816407-5.6875 11.664062-15.75 15.144531-33.546875 15.144531l-66.226562 6.824219c-19.136719 0-37.84375-5.664063-53.769531-16.277344-6.519532-4.347656-4.957032-14.335938 2.574218-16.488282zm0 0"/><path d="m239.230469 205.828125 1.039062 6.746094 88.746094-13.652344-1.039063-6.746094.726563 6.785157c.738281-.078126 1.453125-.117188 2.148437-.117188 4.515626-.011719 8.648438 1.53125 11.398438 3.757812 2.769531 2.277344 4.082031 4.871094 4.09375 7.667969-.003906 1.367188-.3125 2.902344-1.199219 4.734375-2.339843 4.625-4.738281 6.851563-8.777343 8.652344-4.046876 1.757812-10.160157 2.667969-18.632813 2.652344l-.699219.035156-66.222656 6.824219.699219 6.792969v-6.824219c-17.789063 0-35.179688-5.273438-49.984375-15.136719-.816406-.582031-1.007813-1.117188-1.054688-1.929688l.453125-1.460937c.289063-.382813.585938-.644531 1.257813-.851563l-1.867188-6.5625.238282 6.820313 38.914062-1.367187.796875-.074219-1.035156-6.746094-.242188-6.824219-38.914062 1.367188-1.625.257812c-3.644531 1.019532-6.679688 3.273438-8.648438 6.058594-1.980469 2.792969-2.976562 6.070312-2.980469 9.382812-.046874 4.910157 2.382813 10.152344 7.132813 13.289063 17.050781 11.363281 37.074219 17.425781 57.558594 17.425781l.703125-.035156 66.222656-6.824219-.699219-6.792969v6.824219c9.324219-.015625 17.140625-.847656 23.996094-3.742187 6.863281-2.855469 12.339844-8.203125 15.6875-15.234375 1.707031-3.5 2.582031-7.15625 2.574219-10.710938.011718-7.5-3.816406-14.027343-9.191406-18.308593-5.402344-4.324219-12.429688-6.761719-19.953126-6.769532-1.207031 0-2.40625.066406-3.601562.191406l-.3125.039063-88.746094 13.652344 1.039063 6.753906-.242188-6.824219zm0 0"/><path d="m307.496094 123.910156c0 7.539063-6.113282 13.652344-13.652344 13.652344s-13.652344-6.113281-13.652344-13.652344c0-7.542968 6.113282-13.65625 13.652344-13.65625s13.652344 6.113282 13.652344 13.65625zm0 0"/><path d="m184.617188 123.910156c0 7.539063-6.113282 13.652344-13.652344 13.652344-7.542969 0-13.65625-6.113281-13.65625-13.652344 0-7.542968 6.113281-13.65625 13.65625-13.65625 7.539062 0 13.652344 6.113282 13.652344 13.65625zm0 0"/><path d="m266.863281 117.078125h54.285157c11.316406-.003906 20.476562-9.164063 20.480468-20.476563 0-3.773437-3.054687-6.828124-6.824218-6.828124-3.769532 0-6.828126 3.054687-6.828126 6.828124-.007812 3.761719-3.058593 6.816407-6.828124 6.828126h-54.285157c-3.769531 0-6.828125 3.050781-6.828125 6.824218 0 3.769532 3.058594 6.828125 6.828125 6.828125zm0 0"/><path d="m116.351562 96.601562c.003907 11.3125 9.164063 20.472657 20.480469 20.476563h62.089844c3.765625 0 6.820313-3.054687 6.820313-6.824219 0-3.769531-3.054688-6.820312-6.820313-6.820312l-62.089844-.003906c-3.769531-.011719-6.820312-3.066407-6.828125-6.828126 0-3.773437-3.058594-6.828124-6.828125-6.828124s-6.824219 3.054687-6.824219 6.828124zm0 0"/></g><path d="m218.75 211.648438v7.832031h122.878906v-20.152344zm0 0" fill="#fff"/></svg>