<?xml version="1.0" encoding="iso-8859-1"?>
<!-- Generator: Adobe Illustrator 19.0.0, SVG Export Plug-In . SVG Version: 6.00 Build 0)  -->
<svg xmlns="http://www.w3.org/2000/svg" xmlns:xlink="http://www.w3.org/1999/xlink" version="1.1" id="Layer_1" x="0px" y="0px" viewBox="0 0 512 512" style="enable-background:new 0 0 512 512;" xml:space="preserve">
<path style="fill:#9A4D01;" d="M256,27.598c-33.107-0.002-191.974,8.251-187.074,159.6c3.313,102.338,47.146,179.541,89.487,222.116  c1.111,2.01,2.539,3.848,4.23,5.445c0,0-0.001-0.001-0.002-0.002c8.948,44.161,50.322,67.427,93.359,69.645  c43.037-2.217,84.411-25.484,93.359-69.645c-0.001,0.001-0.001,0.001-0.001,0.001c1.69-1.596,3.118-3.434,4.229-5.444  c42.341-42.575,86.174-119.779,89.487-222.116C447.974,35.849,289.107,27.596,256,27.598z"/>
<path style="fill:#894304;" d="M256,27.598c-3.828,0-9.34,0.111-16.083,0.54c51.575,3.281,175.324,25.212,170.99,159.061  c-3.313,102.338-47.146,179.541-89.487,222.116c-1.111,2.01-2.54,3.848-4.23,5.445c0.001-0.001,0.001-0.001,0.002-0.002  c-7.824,38.612-40.437,61.249-77.275,67.811c5.294,0.943,10.675,1.555,16.083,1.834c43.037-2.217,84.411-25.484,93.359-69.645  c-0.001,0.001-0.001,0.001-0.001,0.001c1.69-1.596,3.118-3.434,4.229-5.444c42.341-42.575,86.174-119.779,89.487-222.116  C447.974,35.849,289.107,27.596,256,27.598z"/>
<path style="fill:#FFD29C;" d="M331.625,123.121l-62.143,7.526c-4.481,0.543-8.979,0.876-13.482,1.002  c-4.503-0.126-9.001-0.459-13.482-1.002l-62.143-7.526c-44.62-5.404-79.857,31.709-71.898,74.045c0,0,17.019,126.692,83.695,142.974  c44.16,10.783,83.497,10.783,127.657,0c66.676-16.281,83.695-142.974,83.695-142.974  C411.482,154.83,376.245,117.718,331.625,123.121z"/>
<path style="fill:#F9C38A;" d="M331.625,123.121l-8.026,0.972c33,7.068,55.598,38.306,49.062,73.073  c0,0-17.019,126.692-83.695,142.974c-5.746,1.403-10.241,3.959-13.835,7.332c14.586-1.143,29.348-3.584,44.694-7.331  c0.001,0,0.002-0.001,0.003-0.001c66.676-16.281,83.695-142.974,83.695-142.974c0.746-3.969,1.113-7.892,1.127-11.739  c0.013-3.417-0.257-6.771-0.78-10.045c-0.125-0.785-0.266-1.565-0.421-2.341c-3.316-16.62-13.319-30.939-27.369-40.029  c-0.513-0.332-1.031-0.657-1.555-0.975c-1.571-0.953-3.189-1.843-4.851-2.664c-3.324-1.643-6.823-3.015-10.469-4.085  c-0.728-0.214-1.464-0.411-2.203-0.6c-1.73-0.443-3.489-0.823-5.278-1.128c-0.638-0.109-1.281-0.209-1.926-0.3  C343.989,122.442,337.9,122.362,331.625,123.121z"/>
<path style="fill:#9A4D01;" d="M483.047,88.095c-35.514-17.775-65.027,7.92-78.887,23.886c-2.872,3.308-2.733,8.25,0.347,11.365  c1.807,1.827,3.541,3.739,5.196,5.734c16.637,20.055,23.467,46.359,18.791,72.26c-0.562,3.924-3.471,22.862-10.277,46.393  c2.45,4.933,11.928,15.498,48.011,13.409C512.978,258.433,532.576,112.883,483.047,88.095z"/>
<path style="fill:#894304;" d="M483.047,88.095c-14.357-7.185-27.732-7.265-39.489-3.758c3.073,0.932,6.199,2.168,9.375,3.758  c47.682,23.864,31.293,159.625-11.708,172.137c6.445,1.06,14.616,1.51,25.003,0.909C512.978,258.433,532.576,112.884,483.047,88.095  z"/>
<path style="fill:#FEC373;" d="M465.402,117.276c-4.884-2.244-9.543-3.335-14.245-3.335c-9.143,0-30.595,8.253-41.906,14.618  c0.149,0.176,0.305,0.344,0.452,0.521c16.637,20.055,23.467,46.359,18.791,72.26c-0.411,2.871-2.088,13.801-5.62,28.667  c6.367,3.434,15.437,7.166,26.88,7.166h0.002c2.402,0,4.97-0.072,7.635-0.213c2.587-0.137,14.411-10.448,21.001-39.832  C486.983,158.794,478.621,123.354,465.402,117.276z"/>
<path style="fill:#9A4D01;" d="M28.953,88.095c35.514-17.775,65.027,7.92,78.887,23.886c2.872,3.308,2.733,8.25-0.347,11.365  c-1.807,1.827-3.541,3.739-5.196,5.734c-16.637,20.055-23.467,46.359-18.791,72.26c0.562,3.924,3.471,22.862,10.277,46.393  c-2.45,4.933-11.928,15.498-48.011,13.409C-0.978,258.433-20.576,112.883,28.953,88.095z"/>
<path style="fill:#FEC373;" d="M46.598,117.276c4.884-2.244,9.543-3.335,14.245-3.335c9.143,0,30.595,8.253,41.906,14.618  c-0.149,0.176-0.305,0.344-0.452,0.521c-16.637,20.055-23.467,46.359-18.791,72.26c0.411,2.871,2.088,13.801,5.62,28.667  c-6.367,3.434-15.437,7.166-26.88,7.166h-0.002c-2.402,0-4.97-0.072-7.635-0.213c-2.587-0.137-14.411-10.448-21.001-39.832  C25.017,158.794,33.379,123.354,46.598,117.276z"/>
<path style="fill:#BF6101;" d="M347.712,417.467c6.513-4.101,10.571-11.268,10.418-18.963c-0.067-3.362-0.291-6.851-0.679-10.473  c-6.337-59.03-57.508-157.87-101.45-157.87s-95.113,98.84-101.45,157.87c-0.561,5.228-0.771,10.174-0.663,14.859  c0.146,6.319,3.421,12.188,8.794,15.516C223.876,456.307,286.541,455.984,347.712,417.467z"/>
<path style="fill:#B25602;" d="M357.45,388.031c-6.337-59.03-57.508-157.87-101.45-157.87c-5.074,0-10.244,1.332-15.431,3.754  c39.731,18.555,80.414,101.901,86.019,154.115c0.389,3.622,0.612,7.111,0.679,10.473c0.153,7.695-3.905,14.863-10.418,18.964  c-25.772,16.228-51.809,25.648-77.89,28.314c36.365,3.741,72.816-5.687,108.752-28.314c6.513-4.101,10.571-11.269,10.417-18.964  C358.063,395.143,357.839,391.653,357.45,388.031z"/>
<path style="fill:#683103;" d="M320.92,286.182c0,20.159-29.066,36.502-64.92,36.502s-64.92-16.342-64.92-36.502  s29.066-56.78,64.92-56.78S320.92,266.023,320.92,286.182z"/>
<path style="fill:#5B2801;" d="M258.256,229.473c19.269,16.387,32.217,43.255,32.217,56.709c0,17.21-21.19,31.629-49.696,35.482  c4.885,0.66,9.978,1.019,15.224,1.019c35.854,0,64.92-16.342,64.92-36.502C320.92,266.448,293.063,230.963,258.256,229.473z"/>
<g>
	<path style="fill:#3F1B02;" d="M220.967,265.57l-3.262,3.168c-6.448,6.261-4.515,17.057,3.704,20.692l19.158,8.472   c4.042,1.787,8.586-1.172,8.586-5.591l0,0c0-9.589-3.503-18.849-9.851-26.036l0,0C234.511,260.849,226.159,260.529,220.967,265.57z   "/>
	<path style="fill:#3F1B02;" d="M291.033,265.57l3.262,3.168c6.448,6.261,4.515,17.057-3.704,20.692l-19.158,8.472   c-4.042,1.787-8.586-1.172-8.586-5.591l0,0c0-9.589,3.503-18.849,9.851-26.036l0,0C277.489,260.849,285.841,260.529,291.033,265.57   z"/>
</g>
<g>
	<path style="fill:#FFD29C;" d="M68.09,223.173c-0.926,0-1.882-0.012-2.865-0.036c-2.593-3.105-8.154-11.426-12.111-29.073   c-3.405-15.189-4.085-30.985-1.914-44.477c2.137-13.277,6.168-18.77,7.285-19.68c2.969-1.341,5.582-1.967,8.201-1.967   c1.792,0,5.229,0.788,9.425,2.085c5.909,1.826,8.956,8.374,6.462,14.033c-8.118,18.426-10.682,39.089-7.045,59.514   c0.231,1.597,0.733,4.87,1.564,9.432c0.95,5.215-2.995,10.063-8.294,10.161C68.561,223.17,68.326,223.173,68.09,223.173z"/>
	<path style="fill:#FFD29C;" d="M443.91,223.173c0.926,0,1.882-0.012,2.865-0.036c2.593-3.105,8.154-11.426,12.111-29.073   c3.405-15.189,4.085-30.985,1.914-44.477c-2.137-13.277-6.168-18.77-7.285-19.68c-2.969-1.341-5.582-1.967-8.201-1.967   c-1.792,0-5.229,0.788-9.425,2.085c-5.909,1.826-8.956,8.374-6.462,14.033c8.118,18.426,10.682,39.089,7.045,59.514   c-0.231,1.597-0.733,4.87-1.564,9.432c-0.95,5.215,2.995,10.063,8.294,10.161C443.439,223.17,443.674,223.173,443.91,223.173z"/>
</g>
<g>
	<path style="fill:#513622;" d="M161.432,210.13c-14.303,0-25.939,11.637-25.939,25.939c0,4.143,3.357,7.5,7.5,7.5   s7.5-3.357,7.5-7.5c0-6.032,4.907-10.939,10.939-10.939s10.94,4.907,10.94,10.939c0,4.143,3.357,7.5,7.5,7.5s7.5-3.357,7.5-7.5   C187.372,221.766,175.735,210.13,161.432,210.13z"/>
	<path style="fill:#513622;" d="M332.128,243.569c4.143,0,7.5-3.357,7.5-7.5c0-6.032,4.908-10.939,10.94-10.939   s10.939,4.907,10.939,10.939c0,4.143,3.357,7.5,7.5,7.5s7.5-3.357,7.5-7.5c0-14.303-11.637-25.939-25.939-25.939   c-14.304,0-25.94,11.637-25.94,25.939C324.628,240.212,327.985,243.569,332.128,243.569z"/>
</g>
<g>
</g>
<g>
</g>
<g>
</g>
<g>
</g>
<g>
</g>
<g>
</g>
<g>
</g>
<g>
</g>
<g>
</g>
<g>
</g>
<g>
</g>
<g>
</g>
<g>
</g>
<g>
</g>
<g>
</g>
</svg>
