<?xml version="1.0" encoding="iso-8859-1"?>
<!-- Generator: Adobe Illustrator 19.0.0, SVG Export Plug-In . SVG Version: 6.00 Build 0)  -->
<svg xmlns="http://www.w3.org/2000/svg" xmlns:xlink="http://www.w3.org/1999/xlink" version="1.1" id="Layer_1" x="0px" y="0px" viewBox="0 0 512.001 512.001" style="enable-background:new 0 0 512.001 512.001;" xml:space="preserve">
<path style="fill:#72563A;" d="M77.681,141.981c3.503,2.85,6.888,5.287,10.173,7.385c28.281-38.7,61.281-60.029,89.743-71.758  c3.066-1.263,6.163-2.428,9.286-3.507c-2.479-6.036-4.455-10.496-4.455-10.496c-15.134-32.513-45.489-77.304-93.165-59.596  C14.893,31.633,18.427,100.929,77.681,141.981z"/>
<path style="fill:#AB825B;" d="M96.54,118.926c3.763,2.75,7.354,5.104,10.782,7.11c16.934-17.744,34.718-30.479,51.677-39.611  c-1.001-3.884-2.349-7.775-4.05-11.577c-11.312-23.872-27.422-45.193-44.596-45.193c-3.298,0-6.92,0.724-10.765,2.153  c-13.101,4.866-35.272,16.09-36.557,36.583C61.957,85.526,74.823,104.532,96.54,118.926z"/>
<path style="fill:#B78F6E;" d="M70.114,75.474c1.285-20.493,23.456-31.717,36.557-36.583c3.845-1.429,7.468-2.153,10.765-2.153  c6.467,0,12.782,3.029,18.748,8.073c-7.943-9.17-16.738-15.156-25.832-15.156c-3.298,0-6.92,0.724-10.766,2.153  c-13.099,4.866-35.27,16.09-36.555,36.583c-0.855,13.635,7.121,28.454,21.353,41.193C74.644,98.616,69.414,86.648,70.114,75.474z"/>
<path style="fill:#72563A;" d="M434.321,141.981c-3.503,2.85-6.888,5.287-10.173,7.385c-28.281-38.7-61.281-60.029-89.743-71.758  c-3.066-1.263-6.163-2.428-9.286-3.507c2.479-6.036,4.455-10.496,4.455-10.496c15.134-32.514,45.489-77.305,93.165-59.597  C497.109,31.633,493.575,100.929,434.321,141.981z"/>
<path style="fill:#AB825B;" d="M415.462,118.926c-3.763,2.75-7.354,5.104-10.782,7.11c-16.934-17.744-34.718-30.479-51.677-39.611  c1.001-3.884,2.349-7.775,4.05-11.577c11.312-23.872,27.422-45.193,44.596-45.193c3.298,0,6.92,0.724,10.765,2.153  c13.102,4.866,35.272,16.09,36.557,36.583C450.045,85.526,437.179,104.532,415.462,118.926z"/>
<path style="fill:#B78F6E;" d="M441.888,75.474c-1.285-20.493-23.455-31.717-36.557-36.583c-3.845-1.429-7.468-2.153-10.765-2.153  c-6.467,0-12.782,3.029-18.748,8.073c7.943-9.17,16.738-15.156,25.832-15.156c3.298,0,6.92,0.724,10.766,2.153  c13.101,4.866,35.272,16.09,36.557,36.583c0.855,13.635-7.121,28.454-21.353,41.193C437.358,98.616,442.588,86.648,441.888,75.474z"/>
<path style="fill:#6B4D32;" d="M492.336,284.848C467.747,145.715,398.872,90.482,345.79,68.608  c-25.587-10.544-53.297-14.602-80.934-13.166c-2.95,0.153-5.902,0.252-8.855,0.299c-2.953-0.047-5.905-0.146-8.855-0.299  c-27.637-1.436-55.347,2.622-80.934,13.166C113.13,90.482,44.255,145.715,19.666,284.848  c-21.388,121.025-3.839,208.563,207.513,208.563c7.809,0,18.181,0,28.822,0c10.641,0,21.013,0,28.822,0  C496.175,493.411,513.724,405.873,492.336,284.848z"/>
<path style="fill:#5E422B;" d="M492.336,284.848C467.747,145.715,398.872,90.482,345.79,68.608  c-25.587-10.544-53.297-14.602-80.934-13.166c-2.807,0.146-5.616,0.239-8.426,0.288c18.913,1.434,37.537,5.618,55.153,12.878  c53.082,21.874,121.957,77.107,146.546,216.24c21.388,121.025,3.839,208.562-207.513,208.562c1.78,0,3.578,0,5.385,0  c10.641,0,21.013,0,28.822,0C496.175,493.411,513.724,405.873,492.336,284.848z"/>
<path style="fill:#654D34;" d="M221.794,55.741c2.953-0.047,5.905-0.146,8.855-0.299c2.75-0.143,5.499-0.215,8.248-0.249  c-5.857-0.071-11.709,0.095-17.532,0.537C221.508,55.733,221.651,55.739,221.794,55.741z"/>
<g>
	<path style="fill:#77583E;" d="M134.695,390.87c0.345-18.961,4.394-40.876,10.757-63.1c2.919-10.197-1.716-21.048-11.048-26.088   l-41.102-22.201c-13.424-7.251-30.082,0.703-32.748,15.725c-0.018,0.104-0.037,0.208-0.055,0.313   c-10.709,60.598-7.657,97.051,11.983,120.43c7.739,9.212,19.395,16.159,31.547,21.334c15.871,6.759,33.26-5.811,31.556-22.977   C134.844,406.856,134.547,399.038,134.695,390.87z"/>
	<path style="fill:#77583E;" d="M451.504,295.518c-0.018-0.104-0.037-0.208-0.055-0.313c-2.666-15.022-19.325-22.976-32.748-15.725   l-41.102,22.201c-9.332,5.041-13.968,15.892-11.048,26.088c6.362,22.224,10.412,44.139,10.757,63.1   c0.148,8.168-0.149,15.986-0.889,23.435c-1.705,17.166,15.685,29.736,31.556,22.977c12.152-5.175,23.809-12.122,31.547-21.334   C459.161,392.57,462.213,356.116,451.504,295.518z"/>
</g>
<g>
	<path style="fill:#4C3F21;" d="M151.389,200.49c-18.144,0-32.904,14.762-32.904,32.905c0,4.143,3.357,7.5,7.5,7.5   s7.5-3.357,7.5-7.5c0-9.873,8.032-17.905,17.904-17.905c9.873,0,17.905,8.032,17.905,17.905c0,4.143,3.357,7.5,7.5,7.5   s7.5-3.357,7.5-7.5C184.294,215.252,169.532,200.49,151.389,200.49z"/>
	<path style="fill:#4C3F21;" d="M327.708,233.396c0,4.143,3.357,7.5,7.5,7.5s7.5-3.357,7.5-7.5c0-9.873,8.032-17.905,17.905-17.905   c9.872,0,17.904,8.032,17.904,17.905c0,4.143,3.357,7.5,7.5,7.5s7.5-3.357,7.5-7.5c0-18.144-14.761-32.905-32.904-32.905   C342.47,200.49,327.708,215.252,327.708,233.396z"/>
</g>
<path style="fill:#72563A;" d="M274.817,461.056c-7.929-6.151-13.661-14.521-16.593-23.878c-0.694-2.214-3.752-2.214-4.446,0  c-2.932,9.357-8.664,17.727-16.593,23.878c-14.706,11.408-33.649,12.979-49.259,6.273l2.758,8.588  c6.888,20.672,33.506,36.084,65.317,36.084s58.429-15.412,65.317-36.084l2.905-8.621c-0.002-0.001-0.037-0.002-0.061-0.004  C308.536,474.042,289.55,472.485,274.817,461.056z"/>
<path style="fill:#513622;" d="M274.817,468.556c-7.929-6.151-13.661-14.521-16.593-23.878c-0.694-2.214-3.752-2.214-4.446,0  c-2.932,9.357-8.664,17.727-16.593,23.878c-2.126,1.649-4.344,3.082-6.624,4.325c5.395,5.801,14.77,9.643,25.441,9.643  c10.671,0,20.045-3.842,25.441-9.643C279.161,471.638,276.943,470.205,274.817,468.556z"/>
<path style="fill:#AB825B;" d="M292.673,217.191c-19.677-21.731-53.667-21.731-73.344,0  c-29.301,32.36-65.645,119.508-66.636,174.006c-0.492,27.075,4.324,46.733,11.355,60.993c13.496,27.373,49.023,35.074,73.137,16.366  l0,0c7.929-6.151,13.661-14.521,16.593-23.878c0.694-2.214,3.752-2.214,4.446,0c2.932,9.357,8.664,17.727,16.593,23.878l0,0  c24.114,18.707,59.641,11.007,73.137-16.366c7.031-14.26,11.847-33.918,11.355-60.993  C358.318,336.699,321.974,249.551,292.673,217.191z"/>
<path style="fill:#966F4E;" d="M292.665,217.182c-0.574-0.633-1.162-1.245-1.759-1.841c-0.201-0.201-0.408-0.391-0.611-0.587  c-0.405-0.391-0.811-0.778-1.226-1.152c-0.25-0.225-0.503-0.442-0.756-0.661c-0.378-0.328-0.759-0.651-1.145-0.966  c-0.275-0.224-0.553-0.445-0.832-0.662c-0.374-0.292-0.753-0.577-1.133-0.857c-0.291-0.214-0.583-0.428-0.878-0.635  c-0.379-0.266-0.762-0.521-1.147-0.774c-0.303-0.2-0.604-0.404-0.911-0.597c-0.393-0.247-0.792-0.48-1.19-0.714  c-0.402-0.237-0.804-0.474-1.211-0.698c-0.558-0.308-1.12-0.61-1.687-0.895c-0.403-0.203-0.813-0.389-1.22-0.579  c-0.307-0.144-0.611-0.291-0.92-0.428c-0.429-0.19-0.862-0.368-1.296-0.545c-0.29-0.119-0.579-0.238-0.871-0.351  c-0.451-0.175-0.904-0.34-1.358-0.501c-0.272-0.096-0.545-0.19-0.818-0.282c-0.477-0.159-0.955-0.313-1.435-0.457  c-0.241-0.072-0.482-0.139-0.724-0.208c-0.515-0.146-1.031-0.29-1.549-0.419c-0.161-0.04-0.324-0.074-0.486-0.113  c-1.993-0.475-4.009-0.831-6.037-1.056c-0.003,0-0.006-0.001-0.009-0.001c28.837,35.34,63.22,137.008,64.183,189.995  c0.492,27.075-4.323,46.733-11.354,60.993c-5.674,11.508-15.36,19.58-26.337,23.634c22.433,8.234,48.805-0.915,60.007-23.634  c7.031-14.26,11.847-33.918,11.355-60.993c-0.048-2.63-0.18-5.339-0.388-8.111c-0.115-1.539-0.256-3.1-0.419-4.678  c-0.605-5.882-1.53-12.023-2.735-18.338c-0.301-1.58-0.62-3.172-0.956-4.772c-0.926-4.417-1.98-8.905-3.147-13.438  c-0.927-3.598-1.926-7.223-2.99-10.861c-0.695-2.379-1.415-4.763-2.164-7.148c-6.212-19.793-14.198-39.695-22.847-57.417  c-0.91-1.865-1.828-3.707-2.752-5.521c-9.238-18.145-19.083-33.608-28.239-43.72C292.67,217.188,292.667,217.185,292.665,217.182z"/>
<path style="fill:#513622;" d="M292.287,360.75c-13.404,0-59.168,0-72.571,0c-30.813,0-35.127,45.939-15.687,57.144  c9.716,5.6,18.676,12.648,25.209,18.298c7.426,6.422,16.945,9.908,26.763,9.908l0,0c9.818,0,19.337-3.486,26.763-9.908  c6.533-5.65,15.493-12.698,25.209-18.297C327.413,406.689,323.099,360.75,292.287,360.75z"/>
<g>
	<path style="fill:#331D0E;" d="M219.822,409.583c-6.469,0-12.096,3.553-14.993,8.79c9.404,5.521,18.058,12.325,24.409,17.818   c0.87,0.752,1.77,1.46,2.695,2.13c3.066-3.048,4.963-7.244,4.963-11.879C236.895,417.131,229.251,409.583,219.822,409.583z"/>
	<path style="fill:#331D0E;" d="M307.173,418.373c-2.897-5.237-8.524-8.79-14.993-8.79c-9.429,0-17.074,7.548-17.074,16.859   c0,4.635,1.896,8.832,4.963,11.879c0.924-0.671,1.825-1.378,2.695-2.131C289.116,430.698,297.769,423.894,307.173,418.373z"/>
</g>
<g>
</g>
<g>
</g>
<g>
</g>
<g>
</g>
<g>
</g>
<g>
</g>
<g>
</g>
<g>
</g>
<g>
</g>
<g>
</g>
<g>
</g>
<g>
</g>
<g>
</g>
<g>
</g>
<g>
</g>
</svg>
