<?xml version="1.0" encoding="iso-8859-1"?>
<!-- Generator: Adobe Illustrator 19.0.0, SVG Export Plug-In . SVG Version: 6.00 Build 0)  -->
<svg xmlns="http://www.w3.org/2000/svg" xmlns:xlink="http://www.w3.org/1999/xlink" version="1.1" id="Layer_1" x="0px" y="0px" viewBox="0 0 512 512" style="enable-background:new 0 0 512 512;" xml:space="preserve">
<path style="fill:#72563A;" d="M444.081,7.889l-27.612,11.697c-32.943,13.956-59.197,40.133-73.25,73.035l-9.459,22.046  l49.875,40.958l65.885-29.541c11.794-5.243,19.461-16.868,19.636-29.774l0.962-70.92C470.301,11.868,456.533,2.614,444.081,7.889z"/>
<path style="fill:#8A6747;" d="M381.656,120.524c-3.491-3.304-4.72-19.883-5.509-23.422c-6.105-27.404,27.548-50.968,53.83-60.844  l15.054-5.68c4.667-1.761,9.603,1.857,9.329,6.837l-2.918,53.116c-0.27,4.918-3.404,9.268-7.984,11.082l-42.471,22.457  c-5.99,3.167-13.366,2.191-18.246-2.51C382.383,121.215,382.021,120.869,381.656,120.524z"/>
<path style="fill:#72563A;" d="M67.919,7.889l27.612,11.697c32.943,13.956,59.197,40.133,73.25,73.035l9.459,22.046l-49.875,40.958  L62.48,126.084c-11.794-5.243-19.461-16.868-19.636-29.774l-0.962-70.92C41.699,11.868,55.467,2.614,67.919,7.889z"/>
<path style="fill:#8A6747;" d="M130.344,120.524c3.491-3.304,4.72-19.883,5.509-23.422c6.105-27.404-27.548-50.968-53.83-60.844  l-15.054-5.68c-4.667-1.761-9.603,1.857-9.329,6.837l2.918,53.116c0.27,4.918,3.404,9.268,7.984,11.082l42.471,22.457  c5.99,3.167,13.366,2.191,18.246-2.51C129.617,121.215,129.979,120.869,130.344,120.524z"/>
<path style="fill:#72563A;" d="M405.713,226.057c-6.127-22.219-8.405-45.21-8.272-68.258c0-0.072,0.001-0.145,0.001-0.217  c0-18.22-59.495-59.421-75.17-61.225l-50.593-5.82c-5.222-0.601-10.488-0.527-15.679,0.185c-5.19-0.712-10.457-0.786-15.679-0.185  l-50.592,5.82c-15.675,1.804-75.171,43.005-75.171,61.225c0,0.072,0,0.144,0.001,0.217c0.132,23.048-2.145,46.039-8.272,68.258  c-14.479,52.502-25.523,107.181-17.753,132.275c10.169,32.839,40.02,71.909,65.105,100.689  c22.733,26.082,55.706,40.954,90.304,40.954h24.113c34.616,0,67.593-14.894,90.336-40.99  c25.079-28.777,54.909-67.828,65.074-100.653C431.236,333.238,420.192,278.558,405.713,226.057z"/>
<path style="fill:#684D34;" d="M405.713,226.057c-6.127-22.219-8.405-45.21-8.272-68.257c0-0.072,0.001-0.145,0.001-0.217  c0-18.22-59.495-59.421-75.17-61.225l-50.593-5.82c-5.222-0.601-10.488-0.527-15.679,0.185c-5.19-0.712-10.457-0.786-15.679-0.185  l-1.156,0.133l49.437,5.688c15.675,1.803,75.17,43.005,75.17,61.225c0,0.073,0,0.145-0.001,0.217  c-0.132,23.048,2.145,46.039,8.272,68.257c14.479,52.502,25.523,107.181,17.753,132.275  c-10.164,32.825-39.995,71.876-65.074,100.653c-21.694,24.893-52.701,39.582-85.558,40.885c1.589,0.063,3.182,0.105,4.779,0.105  h24.113c34.616,0,67.593-14.894,90.336-40.99c25.079-28.777,54.909-67.828,65.074-100.653  C431.236,333.238,420.192,278.558,405.713,226.057z"/>
<g>
	<path style="fill:#654D34;" d="M178.382,320.59c40.469-20.932,114.766-20.932,155.236,0c29.365,15.189,50.597,33.151,55.689,50.98   c6.947-22.741-17.498-47.187-55.689-66.941c-40.469-20.932-114.766-20.932-155.236,0c-38.191,19.754-62.636,44.2-55.689,66.941   C127.785,353.742,149.017,335.779,178.382,320.59z"/>
	<path style="fill:#654D34;" d="M186.402,259.875c36.288-15.73,102.907-15.73,139.195,0c26.331,11.414,45.369,24.913,49.935,38.311   c6.229-17.089-15.69-35.46-49.935-50.305c-36.288-15.73-102.908-15.73-139.195,0c-34.245,14.845-56.164,33.215-49.935,50.305   C141.033,284.788,160.072,271.289,186.402,259.875z"/>
</g>
<g>
	<path style="fill:#DECCBC;" d="M168.324,439.3c-2.791-11.368-7.9-24.135-17.11-35.293c-2.612-3.165-7.192-3.811-10.613-1.545   c-8.284,5.487-19.774,9.921-35.289,9.921c-11.479,0-24.119-2.507-37.57-7.453c-14.727-5.413-25.198-15.324-31.122-29.457   c-15.568-37.144,4.941-92.588,11.423-108.339c-4.697,0.484-13.624,6.496-22.979,19.059C6.623,310.96-8.28,353.48,5.201,398.545   c11.989,40.076,52.142,65.974,102.295,65.977c0.005,0,0.005,0,0.01,0c20.717,0,40.521-4.484,57.553-12.649   c3.557-1.705,5.353-5.808,4.127-9.556C168.863,441.329,168.575,440.323,168.324,439.3z"/>
	<path style="fill:#DECCBC;" d="M486.935,286.194c-9.355-12.563-18.282-18.575-22.979-19.059   c6.482,15.751,26.991,71.195,11.423,108.339c-5.924,14.133-16.395,24.044-31.122,29.457c-13.451,4.946-26.091,7.453-37.57,7.453   c-15.516,0-27.006-4.434-35.289-9.921c-3.421-2.266-8.001-1.62-10.613,1.545c-9.21,11.158-14.319,23.925-17.11,35.293   c-0.251,1.023-0.539,2.029-0.862,3.017c-1.226,3.749,0.571,7.851,4.127,9.556c17.032,8.165,36.836,12.649,57.553,12.649   c0.005,0,0.005,0,0.01,0c50.154-0.003,90.307-25.901,102.295-65.977C520.28,353.48,505.377,310.96,486.935,286.194z"/>
</g>
<g>
	<path style="fill:#CEB39F;" d="M346.941,451.873c17.032,8.165,36.836,12.649,57.553,12.649c0.005,0,0.005,0,0.01,0   c50.154-0.003,90.307-25.901,102.295-65.977c13.481-45.065-1.422-87.585-19.864-112.351c-9.355-12.563-18.282-18.575-22.979-19.059   c0,0,34.377,37.711,33.044,88.378c-1.331,50.588-53.362,100.809-145.332,62.328c-3.768,7.222-6.307,14.595-7.992,21.459   c-0.251,1.023-0.539,2.029-0.862,3.017C341.588,446.066,343.384,450.168,346.941,451.873z"/>
	<path style="fill:#CEB39F;" d="M165.059,451.873c-17.032,8.165-36.836,12.649-57.553,12.649c-0.005,0-0.005,0-0.01,0   c-50.154-0.003-90.307-25.901-102.295-65.977C-8.28,353.48,6.623,310.96,25.065,286.194c9.355-12.563,18.282-18.575,22.979-19.059   c0,0-34.377,37.711-33.044,88.378c1.331,50.588,53.362,100.809,145.332,62.328c3.768,7.222,6.307,14.595,7.992,21.459   c0.251,1.023,0.539,2.029,0.862,3.017C170.412,446.066,168.616,450.168,165.059,451.873z"/>
</g>
<path style="fill:#4C3524;" d="M211.299,480.01c2.069,11.551,21.286,25.606,44.698,25.606s42.629-14.055,44.698-25.606H211.299z"/>
<g>
	<path style="fill:#4C3F21;" d="M167.522,182.163c-15.153,0-27.481,12.328-27.481,27.481c0,4.143,3.358,7.5,7.5,7.5   s7.5-3.357,7.5-7.5c0-6.882,5.599-12.481,12.481-12.481s12.481,5.6,12.481,12.481c0,4.143,3.358,7.5,7.5,7.5s7.5-3.357,7.5-7.5   C195.004,194.491,182.676,182.163,167.522,182.163z"/>
	<path style="fill:#4C3F21;" d="M316.996,209.644c0,4.143,3.358,7.5,7.5,7.5s7.5-3.357,7.5-7.5c0-6.882,5.599-12.481,12.481-12.481   s12.481,5.6,12.481,12.481c0,4.143,3.358,7.5,7.5,7.5s7.5-3.357,7.5-7.5c0-15.153-12.328-27.481-27.481-27.481   S316.996,194.491,316.996,209.644z"/>
</g>
<path style="fill:#422613;" d="M329.491,411.372c-4.913-7.932-12.924-12.653-21.471-12.653h-6.422  c-9.044,6.05-19.352,9.241-29.852,9.241h-15.75h-15.75c-10.5,0-20.808-3.191-29.852-9.241h-6.422  c-8.547,0-16.558,4.721-21.471,12.653l0,0c-5.784,9.339-6.258,21.637-1.217,31.513l1.989,3.897  c2.781,5.447,15.67,35.524,24.818,37.659c14.115,3.294,81.694,3.294,95.809,0c9.147-2.135,22.037-32.212,24.818-37.659l1.989-3.897  C335.75,433.009,335.275,420.711,329.491,411.372L329.491,411.372z"/>
<path style="fill:#382010;" d="M329.491,411.372c-4.913-7.932-12.924-12.653-21.471-12.653h-6.422  c-2.845,1.903-5.816,3.523-8.878,4.85c2.755,2.04,5.189,4.665,7.133,7.804l0,0c5.784,9.339,6.258,21.637,1.217,31.513l-1.989,3.897  c-2.344,4.592-13.721,30.536-22.715,39.841c12.432-0.37,22.885-1.098,27.535-2.183c9.147-2.135,22.037-32.212,24.818-37.658  l1.989-3.897C335.75,433.009,335.275,420.711,329.491,411.372z"/>
<g>
	<path style="fill:#261B19;" d="M208.788,444.871c1.453,2.123,3.804,3.266,6.197,3.266c1.458,0,2.934-0.425,4.229-1.312   c3.418-2.339,4.293-7.006,1.955-10.425l-9.75-14.25c-2.339-3.418-7.006-4.296-10.425-1.954c-3.418,2.339-4.293,7.006-1.955,10.425   L208.788,444.871z"/>
	<path style="fill:#261B19;" d="M292.787,446.825c1.295,0.887,2.77,1.312,4.229,1.312c2.393,0,4.744-1.143,6.197-3.266l9.75-14.25   c2.339-3.419,1.464-8.086-1.955-10.425c-3.419-2.341-8.086-1.463-10.425,1.954l-9.75,14.25   C288.494,439.819,289.369,444.486,292.787,446.825z"/>
</g>
<g>
</g>
<g>
</g>
<g>
</g>
<g>
</g>
<g>
</g>
<g>
</g>
<g>
</g>
<g>
</g>
<g>
</g>
<g>
</g>
<g>
</g>
<g>
</g>
<g>
</g>
<g>
</g>
<g>
</g>
</svg>
