<?xml version="1.0" encoding="iso-8859-1"?>
<!-- Generator: Adobe Illustrator 19.0.0, SVG Export Plug-In . SVG Version: 6.00 Build 0)  -->
<svg xmlns="http://www.w3.org/2000/svg" xmlns:xlink="http://www.w3.org/1999/xlink" version="1.1" id="Layer_1" x="0px" y="0px" viewBox="0 0 512.001 512.001" style="enable-background:new 0 0 512.001 512.001;" xml:space="preserve">
<path style="fill:#58565D;" d="M162.875,51.895L134.728,6.712c-2.859-4.589-8.069-7.136-13.454-6.653  c-40.755,3.65-72.453,31.653-72.453,65.655c0,28.965,22.572,53.84,54.579,62.753C145.584,139.425,173.136,67.923,162.875,51.895z"/>
<path style="fill:#49474F;" d="M117.057,0.534c-1.088,0.144-2.171,0.301-3.243,0.479c-0.029,0.005-0.058,0.009-0.087,0.014  c-1.084,0.182-2.158,0.388-3.226,0.604c-0.292,0.059-0.584,0.12-0.874,0.182c-0.994,0.211-1.983,0.433-2.962,0.674  c-0.109,0.027-0.218,0.052-0.327,0.079c-0.992,0.247-1.974,0.515-2.95,0.792c-0.32,0.091-0.638,0.183-0.956,0.277  c-0.866,0.256-1.725,0.522-2.576,0.8c-0.242,0.079-0.484,0.158-0.725,0.239c-0.856,0.288-1.702,0.589-2.542,0.899  c-0.36,0.133-0.719,0.268-1.076,0.405C94.803,6.25,94.1,6.531,93.402,6.82c-0.419,0.173-0.835,0.348-1.25,0.526  c-0.681,0.293-1.357,0.594-2.026,0.902c-0.407,0.188-0.812,0.378-1.215,0.571c-0.544,0.261-1.083,0.529-1.619,0.8  c-0.608,0.307-1.21,0.621-1.807,0.94c-0.49,0.262-0.979,0.526-1.461,0.797c-0.455,0.255-0.905,0.514-1.353,0.776  c-0.382,0.224-0.759,0.452-1.136,0.681c-0.788,0.479-1.566,0.969-2.332,1.47c-0.3,0.197-0.602,0.392-0.899,0.591  c-0.492,0.331-0.979,0.668-1.461,1.008c-0.238,0.168-0.472,0.339-0.708,0.509c-0.933,0.674-1.847,1.364-2.741,2.072  c-0.136,0.107-0.274,0.213-0.408,0.321c-0.512,0.412-1.017,0.829-1.516,1.251c-0.12,0.102-0.238,0.205-0.357,0.307  c-1.024,0.878-2.021,1.776-2.985,2.699c-0.009,0.009-0.019,0.018-0.029,0.027c-0.509,0.488-1.009,0.982-1.501,1.482  c-0.042,0.043-0.083,0.086-0.125,0.129c-1.486,1.518-2.893,3.088-4.212,4.71c-0.001,0.001-0.002,0.002-0.003,0.004  c-1.345,1.653-2.601,3.358-3.762,5.11c12.021-8.225,27.016-13.686,43.495-15.162c5.385-0.483,10.595,2.065,13.454,6.653  c0,0,24.863,40.042,41.343,66.78c7.875-16.561,10.537-33.933,6.088-40.881L134.728,6.712c-2.859-4.589-8.069-7.136-13.454-6.654  c-1.132,0.101-2.255,0.229-3.372,0.367C117.62,0.461,117.338,0.497,117.057,0.534z"/>
<path style="fill:#999999;" d="M118.243,113.597c1.135,0.173,2.295,0.261,3.447,0.261c19.488-3.816-2.998-35.656,2.938-40.693  c10.072-8.546,12.779-20.126,9.26-25.777l-10.904-17.503c-2.226-3.573-6.469-5.422-10.57-4.473  c-10.112,2.341-19.301,6.679-26.808,12.763c-10.497,8.508-16.278,19.438-16.278,30.779C69.328,90.494,89.9,109.269,118.243,113.597z  "/>
<path style="fill:#B3B3B3;" d="M118.243,113.597c1.135,0.173,2.295,0.261,3.447,0.261c5.932-1.162,7.971-4.922,8.11-9.73  c-0.632-0.043-1.263-0.107-1.886-0.202c-28.343-4.328-48.915-23.103-48.915-44.643c0-7.713,2.68-15.233,7.693-21.934  c-0.359,0.278-0.733,0.54-1.085,0.825C75.11,46.682,69.329,57.612,69.329,68.953C69.328,90.494,89.9,109.269,118.243,113.597z"/>
<path style="fill:#58565D;" d="M349.127,51.895l28.147-45.184c2.859-4.589,8.069-7.136,13.454-6.653  c40.755,3.651,72.453,31.653,72.453,65.656c0,28.965-22.572,53.84-54.579,62.753C366.418,139.425,338.866,67.923,349.127,51.895z"/>
<path style="fill:#49474F;" d="M390.728,0.058c-4.225-0.379-8.337,1.114-11.295,3.988c30.575,9.524,52.284,33.534,52.284,61.667  c0,26.625-19.079,49.783-47.021,60.276c7.22,3.499,15.255,4.724,23.906,2.477c32.008-8.913,54.579-33.788,54.579-62.753  C463.181,31.712,431.483,3.71,390.728,0.058z"/>
<path style="fill:#999999;" d="M393.759,113.597c-1.135,0.173-2.295,0.261-3.447,0.261c-19.488-3.816,2.998-35.656-2.938-40.693  c-10.072-8.546-12.779-20.126-9.26-25.777l10.904-17.503c2.226-3.573,6.469-5.422,10.57-4.473  c10.112,2.341,19.301,6.679,26.808,12.763c10.497,8.508,16.278,19.438,16.278,30.779  C442.674,90.494,422.102,109.269,393.759,113.597z"/>
<path style="fill:#B3B3B3;" d="M393.759,113.597c-1.135,0.173-2.295,0.261-3.447,0.261c-5.932-1.162-7.971-4.922-8.11-9.73  c0.632-0.043,1.263-0.107,1.886-0.202c28.343-4.328,48.915-23.103,48.915-44.643c0-7.713-2.68-15.233-7.693-21.934  c0.359,0.278,0.733,0.54,1.085,0.825c10.497,8.508,16.278,19.438,16.278,30.779C442.674,90.494,422.102,109.269,393.759,113.597z"/>
<path style="fill:#58565D;" d="M408.513,128.467c0,0-12.908-0.927-37.14-25.159c-13.618-13.618-22.32-51.447-22.32-51.447  c-13.968-9.201-29.78-14.765-47.544-14.765h-45.551l-0.004,0.021v-0.021h-45.551c-17.763,0-33.575,5.564-47.544,14.765  c0,0-8.702,37.829-22.32,51.447c-24.232,24.232-37.14,25.159-37.14,25.159c-18.524,39.75-26.974,79.835-26.974,91.04  c0,20.323,21.418,129.285,21.418,129.285c0,34.973,15.491,68.149,42.304,90.602l11.686,17.296  C175.201,491.275,214.216,512,255.955,512v-0.029l0.004,0.029c41.739,0,80.754-20.725,104.121-55.311l11.686-17.296  c26.814-22.453,42.304-55.629,42.304-90.602c0,0,21.418-108.961,21.418-129.285C435.488,208.302,427.038,168.217,408.513,128.467z"/>
<g>
	<polygon style="fill:#4E4D54;" points="225.132,37.097 225.128,37.097 225.128,37.118  "/>
	<path style="fill:#4E4D54;" d="M408.513,128.467c0,0-12.908-0.927-37.14-25.159c-13.618-13.618-22.32-51.447-22.32-51.447   c-13.968-9.201-29.781-14.765-47.544-14.765h-30.827c17.763,0,33.575,5.564,47.544,14.765c0,0,8.702,37.829,22.32,51.447   c3.029,3.029,5.881,5.694,8.553,8.038c27.242,23.902,46.21,55.877,53.306,91.418c1.517,7.6,2.255,13.432,2.255,16.743   c0,20.323-21.418,129.285-21.418,129.285c0,34.973-15.491,68.149-42.304,90.602l-11.686,17.296   c-20.463,30.287-52.926,49.943-88.709,54.362c5.079,0.627,10.224,0.949,15.412,0.949v-0.029l0.004,0.029   c41.739,0,80.754-20.725,104.121-55.311l11.686-17.296c26.814-22.453,42.304-55.629,42.304-90.602   c0,0,21.418-108.961,21.418-129.285C435.488,208.302,427.038,168.217,408.513,128.467z"/>
	<path style="fill:#4E4D54;" d="M115.884,379.584c0.367-7.585,1.189-15.149,2.333-22.665c4.451-29.248,1.633-104.647,62.132-128.653   c0,0,18.08-16.163,75.607-12.368c57.527-3.795,75.607,12.368,75.607,12.368c60.498,24.006,57.681,99.404,62.132,128.653   c1.144,7.516,1.966,15.08,2.333,22.666c0.074-1.694,0.131-3.399,0.172-5.116c0.278-11.726-0.74-23.434-2.505-35.03   c-4.451-29.249-1.634-104.647-62.132-128.652c0,0-18.08-16.163-75.607-12.368c-57.527-3.795-75.607,12.368-75.607,12.368   c-60.498,24.006-57.681,99.405-62.132,128.653c-1.765,11.595-2.783,23.304-2.504,35.029   C115.753,376.184,115.81,377.889,115.884,379.584z"/>
	<path style="fill:#4E4D54;" d="M99.188,332.449c0.41-8.489,1.331-16.954,2.611-25.366c4.982-32.734,1.828-117.12,69.537-143.987   c0,0,20.235-18.089,84.618-13.843c64.384-4.247,84.618,13.843,84.618,13.843c67.709,26.867,64.556,111.252,69.537,143.987   c1.28,8.412,2.201,16.878,2.611,25.367c0.083-1.896,0.146-3.805,0.192-5.726c0.311-13.123-0.828-26.228-2.803-39.205   c-4.982-32.735-1.829-117.119-69.537-143.987c0,0-20.235-18.089-84.618-13.843c-64.384-4.247-84.618,13.843-84.618,13.843   c-67.709,26.868-64.555,111.253-69.537,143.988c-1.975,12.977-3.114,26.081-2.803,39.204   C99.042,328.645,99.106,330.553,99.188,332.449z"/>
</g>
<path style="fill:#B3B3B3;" d="M305.177,348.776l-40.434-179.544c-2.65-11.766-14.929-11.766-17.578,0l-40.432,179.544h0.244  c-0.159,1.422-0.244,2.864-0.244,4.323c0,23.971,22.037,43.403,49.222,43.403s49.222-19.432,49.222-43.403  c0-1.459-0.085-2.901-0.244-4.323H305.177z"/>
<path style="fill:#999999;" d="M305.177,348.776l-40.434-179.544c-1.42-6.305-5.604-9.227-9.59-8.775l19.198,151.325h-0.244  c0.159,2.525,0.244,5.084,0.244,7.674c0,35.353-15.218,65.124-35.955,74.191c5.456,1.838,11.372,2.855,17.56,2.855  c27.185,0,49.222-19.432,49.222-43.403c0-1.459-0.085-2.901-0.244-4.323H305.177z"/>
<path style="fill:#3D3D42;" d="M328.779,420.629c-4.868-6.93-12.806-11.055-21.275-11.055h-6.363  c-8.961,5.286-19.175,8.074-29.579,8.074h-15.607h-15.607c-10.404,0-20.618-2.788-29.579-8.074h-6.363  c-8.469,0-16.407,4.125-21.275,11.055l0,0c-5.731,8.159-6.201,18.904-1.206,27.533l1.971,3.405c2.755,4.759,4.81,9.863,6.123,15.155  c2.228,8.982,9.405,15.883,18.468,17.748c13.986,2.878,33.777,6.37,47.467,6.37s33.481-3.492,47.467-6.37  c9.064-1.865,16.241-8.766,18.468-17.748c1.313-5.292,3.368-10.396,6.123-15.155l1.971-3.405  C334.98,439.533,334.509,428.788,328.779,420.629L328.779,420.629z"/>
<path style="fill:#303035;" d="M328.779,420.629L328.779,420.629c-4.868-6.93-12.806-11.055-21.275-11.055h-6.363  c-2.485,1.466-5.069,2.732-7.724,3.808c3.009,1.835,5.657,4.282,7.74,7.248l0,0c5.731,8.159,6.201,18.904,1.206,27.533l-1.971,3.405  c-2.755,4.759-4.81,9.863-6.123,15.155c-2.228,8.982-9.405,15.883-18.468,17.748c-9.745,2.005-22.303,4.305-33.656,5.518  c4.942,0.528,9.659,0.852,13.811,0.852c13.69,0,33.481-3.492,47.467-6.37c9.064-1.865,16.241-8.766,18.468-17.748  c1.313-5.292,3.367-10.396,6.123-15.155l1.971-3.405C334.98,439.533,334.509,428.788,328.779,420.629z"/>
<g>
	<path style="fill:#333333;" d="M187.54,349.92c4.137,0,7.491-3.354,7.491-7.491c0-15.135-12.314-27.449-27.45-27.449   s-27.45,12.314-27.45,27.449c0,4.138,3.354,7.491,7.491,7.491s7.491-3.354,7.491-7.491c0-6.874,5.593-12.466,12.467-12.466   s12.467,5.592,12.467,12.466C180.049,346.566,183.403,349.92,187.54,349.92z"/>
	<path style="fill:#333333;" d="M331.868,342.429c0-6.874,5.593-12.466,12.467-12.466c6.874,0,12.467,5.592,12.467,12.466   c0,4.138,3.354,7.491,7.491,7.491s7.491-3.354,7.491-7.491c0-15.135-12.314-27.449-27.45-27.449   c-15.136,0-27.45,12.314-27.45,27.449c0,4.138,3.354,7.491,7.491,7.491S331.868,346.566,331.868,342.429z"/>
</g>
<g>
	<path style="fill:#1A1A1A;" d="M215.737,429.666c-2.26-3.467-6.901-4.446-10.367-2.186c-3.466,2.259-4.445,6.9-2.186,10.366   l11.935,18.312c1.436,2.204,3.835,3.402,6.283,3.402c1.402,0,2.821-0.393,4.084-1.216c3.466-2.259,4.445-6.9,2.186-10.366   L215.737,429.666z"/>
	<path style="fill:#1A1A1A;" d="M296.173,429.666l-11.935,18.312c-2.259,3.466-1.281,8.107,2.185,10.366   c1.263,0.823,2.681,1.216,4.084,1.216c2.447,0,4.847-1.199,6.283-3.402l11.935-18.312c2.259-3.466,1.281-8.107-2.185-10.366   C303.073,425.219,298.431,426.199,296.173,429.666z"/>
</g>
<g>
</g>
<g>
</g>
<g>
</g>
<g>
</g>
<g>
</g>
<g>
</g>
<g>
</g>
<g>
</g>
<g>
</g>
<g>
</g>
<g>
</g>
<g>
</g>
<g>
</g>
<g>
</g>
<g>
</g>
</svg>
