<?xml version="1.0" encoding="iso-8859-1"?>
<!-- Generator: Adobe Illustrator 19.0.0, SVG Export Plug-In . SVG Version: 6.00 Build 0)  -->
<svg xmlns="http://www.w3.org/2000/svg" xmlns:xlink="http://www.w3.org/1999/xlink" version="1.1" id="Layer_1" x="0px" y="0px" viewBox="0 0 512 512" style="enable-background:new 0 0 512 512;" xml:space="preserve">
<path style="fill:#B3B3B3;" d="M95.729,340.798l12.535-8.494l-12.819-18.917c-5.534-12.088-17.717-13.878-27.545-15.322  c-9.446-1.388-14.093-2.51-15.888-6.786c-1.792-4.271,0.662-8.366,6.288-16.064c5.666-7.752,13.425-18.369,8.059-31.15  c-5.363-12.777-17.847-14.61-27.878-16.083c-9.445-1.387-14.091-2.508-15.885-6.783c-1.792-4.269,0.662-8.363,6.288-16.061  c5.666-7.751,13.426-18.367,8.06-31.148c-1.65-3.932-6.175-5.779-10.106-4.13c-3.931,1.65-5.78,6.175-4.129,10.106  c1.792,4.27-0.662,8.364-6.289,16.061c-5.666,7.751-13.425,18.367-8.06,31.148c5.363,12.777,17.847,14.61,27.878,16.083  c9.445,1.387,14.091,2.508,15.886,6.783c1.792,4.271-0.662,8.366-6.288,16.064c-5.666,7.752-13.425,18.369-8.059,31.15  c5.363,12.778,17.848,14.612,27.878,16.085c9.446,1.388,14.093,2.509,15.888,6.785c0.197,0.47,0.44,0.92,0.727,1.343l13.22,19.509  C95.571,340.919,95.645,340.854,95.729,340.798z"/>
<path style="fill:#CCCCCC;" d="M255.026,24.045L255.026,24.045c20.163-13.408,46.632-9.497,59.863,8.844l161.37,223.715  c14.39,19.738,22.874,43.184,24.582,67.933l4.583,66.392c0.484,7.004-7.629,11.948-13.578,8.276l-41.997-25.924  c-29.668-18.314-54.468-42.96-72.678-72.224L240.29,82.982C228.184,63.695,234.722,37.547,255.026,24.045z"/>
<path style="fill:#E6E6E6;" d="M296.931,146.421l95.662,152.408c12.726,20.452,30.058,37.676,50.793,50.476l11.188,6.906  c2.591,1.599,5.537-1.453,3.847-3.986L314.051,135.85c-6.678-10.009-22.514-1.879-17.828,9.203  C296.428,145.537,296.663,145.994,296.931,146.421z"/>
<path style="fill:#999999;" d="M500.841,324.538c-1.708-24.749-10.192-48.195-24.582-67.933L314.888,32.89  c-13.23-18.342-39.699-22.253-59.863-8.845l0,0c-7.459,4.96-13.052,11.631-16.553,19.038c19.197-9.258,42.084-4.494,54.083,12.14  l161.37,223.715c14.39,19.738,22.874,43.184,24.582,67.933l3.179,46.064l10.158,6.27c5.95,3.673,14.062-1.272,13.578-8.276  L500.841,324.538z"/>
<path style="fill:#FB0125;" d="M247.64,0h-21.462c-48.893,0-88.529,39.605-88.529,88.461v335.078  c0,48.856,39.636,88.461,88.529,88.461h21.462c48.893,0,88.529-39.605,88.529-88.461V88.461C336.17,39.605,296.534,0,247.64,0z   M236.909,466.246c-19.059,0-34.509-15.45-34.509-34.509s15.45-34.509,34.509-34.509s34.509,15.45,34.509,34.509  S255.968,466.246,236.909,466.246z"/>
<path style="fill:#CCCCCC;" d="M137.649,357.188l-15.572-23.159c-2.843-4.196-8.55-5.292-12.745-2.449l-13.603,9.218  c-4.196,2.843-5.292,8.55-2.449,12.746l44.37,65.725v-62.081H137.649z"/>
<path style="fill:#A9A3A1;" d="M236.909,386.64c-24.866,0-45.096,20.23-45.096,45.097c0,24.867,20.23,45.097,45.096,45.097  c24.867,0,45.098-20.23,45.098-45.097C282.007,406.871,261.776,386.64,236.909,386.64z M236.909,466.246  c-19.059,0-34.509-15.45-34.509-34.509s15.45-34.509,34.509-34.509s34.509,15.45,34.509,34.509S255.968,466.246,236.909,466.246z"/>
<path style="fill:#D60024;" d="M247.659,0h-21.462c-1.544,0-3.078,0.04-4.602,0.118c46.754,2.393,83.927,41.03,83.927,88.343  v335.078c0,47.313-37.173,85.95-83.927,88.343c1.524,0.078,3.059,0.118,4.602,0.118h21.462c48.893,0,88.529-39.605,88.529-88.461  V88.461C336.188,39.605,296.552,0,247.659,0z"/>
<path style="fill:#999999;" d="M317.947,34.681l-1.292-1.791c-1.796-2.49-3.843-4.705-6.079-6.656  C313.206,28.89,315.668,31.711,317.947,34.681z"/>
<path style="fill:#E6E6E6;" d="M236.91,359.797L236.91,359.797c-19.156,0-34.685-15.529-34.685-34.685V134.536  c0-19.156,15.529-34.685,34.685-34.685l0,0c19.156,0,34.685,15.529,34.685,34.685v190.576  C271.594,344.268,256.065,359.797,236.91,359.797z"/>
<path style="fill:#CCCCCC;" d="M236.91,99.851L236.91,99.851c-5.551,0-10.793,1.311-15.446,3.629  c11.402,5.682,19.239,17.451,19.239,31.056v190.576c0,13.605-7.837,25.373-19.239,31.056c4.652,2.318,9.895,3.629,15.446,3.629l0,0  c19.156,0,34.685-15.529,34.685-34.685V134.536C271.594,115.38,256.065,99.851,236.91,99.851z"/>
<g>
</g>
<g>
</g>
<g>
</g>
<g>
</g>
<g>
</g>
<g>
</g>
<g>
</g>
<g>
</g>
<g>
</g>
<g>
</g>
<g>
</g>
<g>
</g>
<g>
</g>
<g>
</g>
<g>
</g>
</svg>
