<?xml version="1.0" encoding="iso-8859-1"?>
<!-- Generator: Adobe Illustrator 19.0.0, SVG Export Plug-In . SVG Version: 6.00 Build 0)  -->
<svg xmlns="http://www.w3.org/2000/svg" xmlns:xlink="http://www.w3.org/1999/xlink" version="1.1" id="Layer_1" x="0px" y="0px" viewBox="0 0 512 512" style="enable-background:new 0 0 512 512;" xml:space="preserve">
<path style="fill:#FED9A8;" d="M300.354,258.843L300.354,258.843c-0.453,0.278-0.909,0.546-1.369,0.808  c-21.967,12.531-58.587,12.385-81.254,2.165c-2.086-0.94-4.111-2.026-6.064-3.252l0,0l-2.718,30.638l-16.424,9.856l63.412,44.706  l0.016,0.012l0.048,0.033l0,0l0,0l0.268-0.185l63.211-44.564l-16.427-9.857L300.354,258.843z"/>
<path style="fill:#F2C18B;" d="M221.051,263.155c-1.128-0.414-2.22-0.843-3.321-1.339c-2.086-0.94-4.111-2.026-6.064-3.252l0,0  l-0.286,6.803c14.228,12.47,41.593,27.977,90.799,15.313l-1.304-16.743l-0.425-4.152l0,0l-0.096-0.942l0,0  c-0.452,0.277-0.909,0.546-1.369,0.808C277.302,272.118,243.327,271.351,221.051,263.155  C220.655,263.01,221.33,263.257,221.051,263.155z"/>
<path style="fill:#FED9A8;" d="M348.604,122.607c0,0-7.626-0.44-7.626-8.456c0-41.906-18.416-51.713-23.17-53.548  c-6.975,20.956-23.976,42.137-64.006,43.676c-53.21,2.045-78.772-6.417-89.926,7.8v10.527c-12.084,0.796-21.623,9.75-21.623,20.726  v12.152c0,10.976,9.539,19.923,21.623,20.72v12.831c0,18.093,7.163,35.379,19.788,47.752l19.356,18.97  c9.459,9.27,21.938,14.429,34.902,14.429h36.621c12.964,0,25.443-5.159,34.902-14.429l19.356-18.97  c12.625-12.373,19.788-29.659,19.788-47.752v-12.846l0.015,0.015c12.083-0.797,21.623-9.744,21.623-20.72v-12.152  C370.227,132.357,360.688,123.403,348.604,122.607z"/>
<g>
	<path style="fill:#FFC07B;" d="M328.801,236.787c12.625-12.373,19.788-29.659,19.788-47.752v-12.846l0.015,0.015   c12.083-0.797,21.623-9.744,21.623-20.72v-12.152c0-10.679-9.038-19.421-20.656-20.62l-0.957-0.034   c-0.14-0.037-0.277-0.079-0.415-0.118c-1.562-0.221-7.222-1.498-7.222-8.409c0-40.367-17.083-50.946-22.587-53.308v128.192   c0,18.093-7.163,35.379-19.788,47.752l-19.356,18.97c-9.459,9.27-21.937,14.429-34.902,14.429h30.199   c12.964,0,25.443-5.159,34.902-14.429L328.801,236.787z"/>
	<path style="fill:#FFC07B;" d="M253.801,117.64c44.216,0,65.727-28.692,74.279-49.386c-4.243-4.881-8.362-6.913-10.273-7.651   c-6.975,20.956-23.976,42.137-64.006,43.676c-53.21,2.046-78.772-6.417-89.926,7.8v10.538c0,0.962,1.149,1.449,1.843,0.783   C177.737,111.869,203.3,117.64,253.801,117.64z"/>
</g>
<path style="fill:#FFF4E9;" d="M256,236.073c14.796,0,27.23-8.418,30.772-19.816c1.026-3.302-1.485-6.649-4.943-6.649h-51.657  c-3.458,0-5.97,3.347-4.943,6.649C228.77,227.655,241.204,236.073,256,236.073z"/>
<path style="fill:#D6B79D;" d="M497.187,389.63c-1.771-32.968-23.087-60.716-53.225-69.027l-112.989-26.167  c-2.366-0.548-4.854-0.061-6.84,1.338L256,343.808l-68.133-48.034c-1.985-1.4-4.473-1.887-6.84-1.338L68.038,320.603  c-30.138,8.311-51.454,36.059-53.225,69.027L9.828,499.54C9.484,506.314,14.765,512,21.402,512h233.549H256h1.049h233.549  c6.637,0,11.919-5.686,11.574-12.461L497.187,389.63z"/>
<path style="fill:#BC9A7B;" d="M497.187,389.63c-1.771-32.968-23.087-60.716-53.225-69.027l-112.989-26.167  c-2.367-0.548-4.854-0.061-6.84,1.338l-4.508,3.178l93.486,21.65c30.138,8.311,51.454,36.059,53.225,69.027l4.985,109.91  c0.345,6.774-4.937,12.461-11.574,12.461h30.85c6.637,0,11.918-5.686,11.574-12.461L497.187,389.63z"/>
<g>
	<path style="fill:#B79274;" d="M9.917,499.539C9.572,506.314,14.854,512,21.491,512h68.145l3.216-81.353   c1.305-28.148-7.319-55.839-24.303-78.038l-18.46-24.128l-0.05-0.023c-20.35,12.556-33.833,35.246-35.226,61.171l-4.975,109.7   L9.917,499.539z"/>
	<polygon style="fill:#B79274;" points="256,343.808 241.91,333.875 241.91,512 254.951,512 256,512 257.049,512 270.09,512    270.09,333.875  "/>
</g>
<g>
	<path style="fill:#AB825B;" d="M255.998,343.807l-0.002,0.001l-0.06-0.045l-68.069-47.989c-1.985-1.4-4.473-1.887-6.84-1.338   l-30.596,7.086l-0.177,0.054l48.408,63.021c1.746,2.274,4.78,3.045,7.365,1.873L256,343.808L255.998,343.807z"/>
	<path style="fill:#AB825B;" d="M256.007,343.807l0.002,0.001l0.06-0.045l68.069-47.989c1.985-1.4,4.473-1.887,6.84-1.338   l30.596,7.086l0.177,0.054l-48.408,63.021c-1.746,2.274-4.78,3.045-7.365,1.873l-49.972-22.661L256.007,343.807z"/>
</g>
<path style="fill:#A07552;" d="M329.188,294.217c-1.79-0.028-3.561,0.508-5.049,1.557l-4.509,3.179l37.47,8.678l4.652-6.056  l-0.159-0.048l-30.619-7.091C330.382,294.299,329.784,294.227,329.188,294.217z"/>
<path style="fill:#F7C68B;" d="M165.312,162.947h4.826v-25.992h-4.826c-4.252,0-7.699,3.447-7.699,7.699v10.594  C157.613,159.5,161.06,162.947,165.312,162.947z"/>
<path style="fill:#F9AB5D;" d="M348.091,163.015h-4.826v-25.992h4.826c4.252,0,7.699,3.447,7.699,7.699v10.594  C355.79,159.568,352.343,163.015,348.091,163.015z"/>
<path style="fill:#FE9901;" d="M147.203,130.54c0.362-0.411,0.746-0.806,1.141-1.191c0.105-0.103,0.209-0.207,0.316-0.308  c0.394-0.37,0.804-0.724,1.228-1.067c0.12-0.097,0.24-0.193,0.363-0.288c0.436-0.339,0.884-0.665,1.348-0.975  c0.112-0.075,0.227-0.146,0.341-0.219c0.492-0.317,0.995-0.622,1.515-0.905c0.066-0.036,0.135-0.068,0.203-0.104  c0.511-0.271,1.035-0.525,1.57-0.762c0.083-0.037,0.164-0.076,0.247-0.112c0.562-0.241,1.138-0.458,1.724-0.66  c0.113-0.039,0.224-0.078,0.338-0.115c0.584-0.192,1.18-0.362,1.785-0.513c0.114-0.028,0.227-0.055,0.342-0.081  c0.621-0.145,1.251-0.272,1.891-0.372c0.086-0.013,0.173-0.023,0.259-0.036c0.679-0.099,1.365-0.179,2.063-0.225V112.08  c2.091-2.666,4.689-4.534,7.881-5.824c5.319-2.15,12.288-2.692,21.311-2.641c10.827,0.062,24.611,0.98,42.05,1.003  c5.813,0.008,12.032-0.084,18.683-0.339c40.03-1.539,57.031-22.72,64.006-43.676l0,0l0,0c4.755,1.834,23.17,11.642,23.17,53.548  c0,0.001,0,0.002,0,0.003c0,0.392,0.032,0.752,0.067,1.109c0.45,4.045,3.363,6.215,7.116,7.29c0.271,0.04,0.443,0.053,0.443,0.053  c6.758,0.445,12.715,3.444,16.658,7.918v-45.72c0-39.819-32.28-72.099-72.099-72.099h-73.862c-39.819,0-72.099,32.28-72.099,72.099  v45.738C147.202,130.541,147.203,130.541,147.203,130.54z"/>
<path style="fill:#F28F0C;" d="M334.787,79.032c3.544,7.974,6.19,19.238,6.19,35.119c0,0.001,0,0.002,0,0.003  c0,0.392,0.032,0.752,0.067,1.109c0.45,4.045,3.363,6.215,7.116,7.29c0.271,0.04,0.443,0.053,0.443,0.053  c6.758,0.445,12.715,3.444,16.658,7.918v-45.72c0-26.131-13.902-49.016-34.713-61.661c-1.982-1.204-4.027-2.316-6.128-3.328  c-6.304-3.038-13.118-5.185-20.278-6.279c-3.58-0.547-7.247-0.831-10.98-0.831h-30.224  C300.813,12.705,331.844,41.915,334.787,79.032z"/>
<path style="fill:#B79274;" d="M205.061,489.65h-54.173c-8.266,0-14.966-6.701-14.966-14.966V402.96  c0-2.926,2.372-5.298,5.298-5.298h73.51c2.926,0,5.298,2.372,5.298,5.298v71.724C220.027,482.949,213.326,489.65,205.061,489.65z"/>
<path style="fill:#AB825B;" d="M200.293,432.342h-44.637c-10.899,0-19.734-8.835-19.734-19.734v-9.648  c0-2.926,2.372-5.298,5.298-5.298h73.51c2.926,0,5.298,2.372,5.298,5.298v9.648C220.027,423.506,211.192,432.342,200.293,432.342z"/>
<rect x="171.81" y="432.34" style="fill:#D6B79D;" width="12.318" height="57.31"/>
<path style="fill:#B79274;" d="M361.112,489.65h-54.173c-8.266,0-14.966-6.701-14.966-14.966V402.96  c0-2.926,2.372-5.298,5.298-5.298h73.51c2.926,0,5.298,2.372,5.298,5.298v71.724C376.079,482.949,369.378,489.65,361.112,489.65z"/>
<path style="fill:#AB825B;" d="M356.345,432.342h-44.637c-10.899,0-19.734-8.835-19.734-19.734v-9.648  c0-2.926,2.372-5.298,5.298-5.298h73.51c2.926,0,5.298,2.372,5.298,5.298v9.648C376.079,423.506,367.243,432.342,356.345,432.342z"/>
<g>
	<rect x="327.87" y="432.34" style="fill:#D6B79D;" width="12.318" height="57.31"/>
	<path style="fill:#D6B79D;" d="M420.277,117.721c0,9.865-66.069,17.862-164.277,17.862s-164.277-7.997-164.277-17.862   S157.791,85.23,256,85.23S420.277,107.856,420.277,117.721z"/>
</g>
<path style="fill:#BC9A7B;" d="M420.233,117.286c-0.019-0.101-0.052-0.205-0.084-0.308c-0.013-0.042-0.022-0.082-0.036-0.124  c-0.047-0.134-0.108-0.271-0.176-0.409c-0.004-0.009-0.008-0.017-0.012-0.026C414.695,106.005,350.109,85.23,256,85.23  c-5.454,0-10.803,0.074-16.052,0.207c89.284,2.27,148.225,22.967,148.225,32.284c0,4.245-12.237,8.143-33.998,11.207  c-26.503,2.067-59.892,3.283-98.175,3.283c-92.771,0-156.851-7.137-163.664-16.242c-0.399,0.618-0.613,1.206-0.613,1.752  c0,9.587,62.406,17.409,156.066,17.842c0.111,0,0.224,0.001,0.336,0.001c2.603,0.012,5.225,0.018,7.876,0.018  c98.209,0,164.277-7.997,164.277-17.862C420.277,117.579,420.261,117.434,420.233,117.286z"/>
<path style="fill:#808080;" d="M331.302,13.386C317.82,3.77,296.552,0.801,273.515,0h-35.03  c-23.037,0.801-44.305,3.77-57.787,13.386c-50.376,35.931-39.416,89.025-39.357,89.361c1.414,8.088,227.904,8.088,229.317,0  C370.717,102.411,381.677,49.317,331.302,13.386z"/>
<path style="fill:#D6B79D;" d="M331.302,13.386C317.82,3.77,296.552,0.801,273.515,0h-35.03  c-23.037,0.801-44.305,3.77-57.787,13.386c-50.376,35.931-39.416,89.025-39.357,89.361c1.414,8.088,227.904,8.088,229.317,0  C370.717,102.411,381.677,49.317,331.302,13.386z"/>
<path style="fill:#BC9A7B;" d="M331.302,13.386C317.82,3.77,296.552,0.801,273.515,0H241.41c23.037,0.801,44.305,3.77,57.787,13.386  c50.376,35.931,39.416,89.025,39.357,89.362c-0.64,3.663-47.449,5.667-98.606,6.012c61.796,0.417,129.938-1.587,130.711-6.012  C370.717,102.411,381.678,49.317,331.302,13.386z"/>
<path style="fill:#01544B;" d="M140.718,80.88c-1.226,12.876,0.599,21.731,0.623,21.867c1.414,8.088,227.904,8.088,229.317,0  c0.024-0.137,1.849-8.991,0.623-21.867C338.813,86.68,173.187,86.68,140.718,80.88z"/>
<path style="fill:#00493E;" d="M371.672,87.37c-0.052-2.019-0.17-4.187-0.389-6.49c-6.243,1.115-17.423,2.015-31.62,2.702  l-0.065,23.454c18.57-1.004,30.737-2.433,31.061-4.288c0.015-0.09,0.802-3.947,0.998-10.212L371.672,87.37z"/>
<path style="fill:#B79274;" d="M443.539,352.61l18.46-24.128c20.329,12.561,33.796,35.239,35.188,61.148l4.984,109.91  c0.345,6.774-4.937,12.46-11.574,12.46h-68.145l-3.216-81.353C417.932,402.499,426.556,374.808,443.539,352.61z"/>
<path style="fill:#AB825B;" d="M497.187,389.63c-0.051-0.94-0.121-1.874-0.203-2.804c-0.025-0.282-0.055-0.562-0.083-0.843  c-0.065-0.66-0.137-1.319-0.218-1.974c-0.038-0.309-0.077-0.617-0.118-0.925c-0.091-0.678-0.193-1.353-0.301-2.026  c-0.04-0.245-0.075-0.491-0.116-0.734c-0.153-0.901-0.32-1.797-0.502-2.686c-0.038-0.185-0.082-0.367-0.121-0.551  c-0.151-0.709-0.309-1.414-0.478-2.115c-0.074-0.306-0.152-0.61-0.229-0.915c-0.15-0.59-0.306-1.177-0.468-1.761  c-0.086-0.311-0.172-0.623-0.263-0.933c-0.188-0.648-0.387-1.291-0.591-1.931c-0.07-0.218-0.135-0.439-0.206-0.657  c-0.271-0.826-0.558-1.645-0.855-2.458c-0.105-0.286-0.216-0.568-0.324-0.853c-0.207-0.547-0.418-1.092-0.637-1.632  c-0.135-0.335-0.274-0.668-0.414-1c-0.209-0.497-0.425-0.991-0.644-1.483c-0.146-0.327-0.29-0.655-0.44-0.979  c-0.274-0.592-0.557-1.177-0.845-1.761c-0.184-0.373-0.371-0.745-0.562-1.114c-0.288-0.561-0.58-1.119-0.881-1.671  c-0.189-0.347-0.385-0.69-0.579-1.033c-0.233-0.411-0.468-0.821-0.707-1.227c-0.212-0.36-0.427-0.718-0.645-1.074  c-0.239-0.39-0.483-0.775-0.729-1.16c-0.223-0.349-0.443-0.7-0.67-1.044c-0.34-0.514-0.69-1.021-1.042-1.526  c-0.341-0.489-0.689-0.972-1.041-1.451c-0.246-0.336-0.492-0.673-0.743-1.005c-0.281-0.37-0.566-0.734-0.854-1.098  c-0.238-0.301-0.478-0.601-0.72-0.898c-0.3-0.368-0.601-0.736-0.908-1.098c-0.233-0.275-0.471-0.545-0.708-0.816  c-0.685-0.785-1.385-1.557-2.102-2.311c-0.127-0.134-0.25-0.271-0.378-0.404c-0.358-0.371-0.725-0.734-1.091-1.098  c-0.229-0.228-0.457-0.456-0.689-0.68c-0.37-0.357-0.743-0.71-1.12-1.06c-0.231-0.214-0.464-0.426-0.698-0.637  c-0.391-0.353-0.783-0.706-1.181-1.05c-0.18-0.156-0.365-0.307-0.547-0.461c-0.841-0.712-1.698-1.405-2.571-2.077  c-0.167-0.129-0.332-0.261-0.5-0.388c-0.433-0.327-0.873-0.646-1.313-0.963c-0.237-0.171-0.474-0.342-0.713-0.509  c-0.439-0.308-0.882-0.612-1.328-0.911c-0.233-0.156-0.469-0.308-0.705-0.462c-0.467-0.304-0.933-0.608-1.407-0.901l-12.49,16.324  c9.812,12.266,15.916,27.848,16.827,44.823l4.985,109.91c0.345,6.774-4.936,12.46-11.573,12.46h30.849  c3.319,0,6.298-1.421,8.405-3.69c0.645-0.695,1.196-1.476,1.663-2.313c0.355-0.637,0.654-1.308,0.889-2.011  c0.187-0.557,0.336-1.131,0.44-1.721c0.155-0.881,0.224-1.791,0.177-2.726L497.187,389.63z"/>
<g>
	<path style="fill:#4C3F21;" d="M210.792,163.015L210.792,163.015c-4.073,0-7.375-3.302-7.375-7.375v-6.5   c0-4.073,3.302-7.375,7.375-7.375l0,0c4.073,0,7.375,3.302,7.375,7.375v6.5C218.167,159.713,214.865,163.015,210.792,163.015z"/>
	<path style="fill:#4C3F21;" d="M301.208,163.015L301.208,163.015c-4.073,0-7.375-3.302-7.375-7.375v-6.5   c0-4.073,3.302-7.375,7.375-7.375l0,0c4.073,0,7.375,3.302,7.375,7.375v6.5C308.583,159.713,305.281,163.015,301.208,163.015z"/>
</g>
<g>
</g>
<g>
</g>
<g>
</g>
<g>
</g>
<g>
</g>
<g>
</g>
<g>
</g>
<g>
</g>
<g>
</g>
<g>
</g>
<g>
</g>
<g>
</g>
<g>
</g>
<g>
</g>
<g>
</g>
</svg>
