<?xml version="1.0" encoding="iso-8859-1"?>
<!-- Generator: Adobe Illustrator 19.0.0, SVG Export Plug-In . SVG Version: 6.00 Build 0)  -->
<svg xmlns="http://www.w3.org/2000/svg" xmlns:xlink="http://www.w3.org/1999/xlink" version="1.1" id="Layer_1" x="0px" y="0px" viewBox="0 0 512 512" style="enable-background:new 0 0 512 512;" xml:space="preserve">
<path style="fill:#AB825B;" d="M358.542,79.669l-31.71-30.379H185.167l-31.71,30.379c-2.851,2.732-4.935,6.11-6.113,9.8h217.311  C363.477,85.78,361.394,82.401,358.542,79.669z"/>
<path style="fill:#D6B79D;" d="M494.891,462.708H17.109C7.66,462.708,0,455.048,0,445.599v-248.2c0-9.449,7.66-17.109,17.109-17.109  h385.402H431.5h2.167h61.224c9.449,0,17.109,7.66,17.109,17.109v248.2C512,455.048,504.34,462.708,494.891,462.708z"/>
<path style="fill:#BC9479;" d="M494.891,180.29H481v240.309c0,9.449-7.66,17.109-17.109,17.109H0v7.891  c0,9.449,7.66,17.109,17.109,17.109h477.782c9.449,0,17.109-7.66,17.109-17.109v-248.2C512,187.951,504.34,180.29,494.891,180.29z"/>
<path style="fill:#997359;" d="M494.891,180.29H461V462.71h33.891c9.449,0,17.109-7.66,17.109-17.109V197.399  C512,187.951,504.34,180.29,494.891,180.29z"/>
<path style="fill:#89654D;" d="M494.891,180.29H481v240.309c0,9.449-7.66,17.109-17.109,17.109H461v25h33.891  c9.449,0,17.109-7.66,17.109-17.109v-248.2C512,187.951,504.34,180.29,494.891,180.29z"/>
<path style="fill:#997359;" d="M17.109,180.29H51V462.71H17.109C7.66,462.708,0,455.048,0,445.599v-248.2  C0,187.951,7.66,180.29,17.109,180.29z"/>
<path style="fill:#89654D;" d="M0,437.708v7.891c0,5.315,2.424,10.064,6.226,13.202c1.268,1.046,2.688,1.913,4.223,2.562  c1.023,0.433,2.098,0.769,3.212,0.997s2.267,0.348,3.448,0.348H51v-25H0z"/>
<g>
	<path style="fill:#B79274;" d="M185.167,49.29l-31.71,30.379c-4.617,4.423-7.228,10.54-7.228,16.933v366.106h38.937V49.29H185.167z   "/>
	<path style="fill:#B79274;" d="M358.542,79.669l-31.71-30.379V462.71h38.937V96.603C365.77,90.209,363.159,84.092,358.542,79.669z"/>
</g>
<g>
	<circle style="fill:#A07853;" cx="165.7" cy="239.219" r="8.388"/>
	<circle style="fill:#A07853;" cx="346.3" cy="239.219" r="8.388"/>
	<circle style="fill:#A07853;" cx="165.7" cy="403.779" r="8.388"/>
	<circle style="fill:#A07853;" cx="346.3" cy="403.779" r="8.388"/>
</g>
<path style="fill:#B3B3B3;" d="M195.273,282.538h-59.147c-8.193,0-14.858,6.665-14.858,14.858v48.206  c0,8.193,6.665,14.858,14.858,14.858h59.147c8.192,0,14.858-6.665,14.858-14.858v-48.206  C210.13,289.203,203.465,282.538,195.273,282.538z M197.509,315.188h-31.81c-3.485,0-6.311,2.825-6.311,6.311  c0,3.485,2.826,6.311,6.311,6.311h31.81v17.793c0,1.233-1.003,2.237-2.236,2.237h-59.147c-1.233,0-2.237-1.003-2.237-2.237v-48.206  c0-1.233,1.003-2.237,2.237-2.237h59.147c1.233,0,2.236,1.003,2.236,2.237V315.188z"/>
<path style="fill:#999999;" d="M195.273,282.538h-11.227v12.621h11.227c1.233,0,2.236,1.003,2.236,2.237v17.792h-13.463v12.621  h13.463v17.793c0,1.233-1.003,2.237-2.236,2.237h-11.227v12.621h11.227c8.192,0,14.858-6.665,14.858-14.858v-48.206  C210.13,289.203,203.465,282.538,195.273,282.538z"/>
<path style="fill:#B3B3B3;" d="M375.875,282.538h-59.147c-8.193,0-14.858,6.665-14.858,14.858v48.206  c0,8.193,6.665,14.858,14.858,14.858h59.147c8.192,0,14.858-6.665,14.858-14.858v-48.206  C390.733,289.203,384.067,282.538,375.875,282.538z M378.111,315.188h-31.81c-3.485,0-6.311,2.825-6.311,6.311  c0,3.485,2.826,6.311,6.311,6.311h31.81v17.793c0,1.233-1.003,2.237-2.236,2.237h-59.147c-1.233,0-2.237-1.003-2.237-2.237v-48.206  c0-1.233,1.003-2.237,2.237-2.237h59.147c1.233,0,2.236,1.003,2.236,2.237V315.188z"/>
<path style="fill:#999999;" d="M375.875,282.538h-11.227v12.621h11.227c1.233,0,2.236,1.003,2.236,2.237v17.792h-13.463v12.621  h13.463v17.793c0,1.233-1.003,2.237-2.236,2.237h-11.227v12.621h11.227c8.192,0,14.858-6.665,14.858-14.858v-48.206  C390.733,289.203,384.067,282.538,375.875,282.538z"/>
<g>
</g>
<g>
</g>
<g>
</g>
<g>
</g>
<g>
</g>
<g>
</g>
<g>
</g>
<g>
</g>
<g>
</g>
<g>
</g>
<g>
</g>
<g>
</g>
<g>
</g>
<g>
</g>
<g>
</g>
</svg>
