<?xml version="1.0" encoding="iso-8859-1"?>
<!-- Generator: Adobe Illustrator 19.0.0, SVG Export Plug-In . SVG Version: 6.00 Build 0)  -->
<svg xmlns="http://www.w3.org/2000/svg" xmlns:xlink="http://www.w3.org/1999/xlink" version="1.1" id="Layer_1" x="0px" y="0px" viewBox="0 0 512 512" style="enable-background:new 0 0 512 512;" xml:space="preserve">
<path style="fill:#C9A283;" d="M109.87,104.88L109.87,104.88l8.792-2.977l0,0c4.245,6.628,17.005,33.172,17.005,75.431  c0,39.167-16.333,83.334-16.333,83.334L43.41,273.664L2.54,202.352L109.87,104.88z"/>
<path style="fill:#AB825B;" d="M13.223,182.516L1.578,193.091c-1.673,1.519-2.064,3.997-0.94,5.957l43.44,75.797  c1.004,1.752,2.994,2.691,4.985,2.352l16.18-2.756c3.3-0.562,5.033-4.237,3.367-7.141l-47.975-83.616  C19.104,181.017,15.499,180.449,13.223,182.516z"/>
<path style="fill:#D6B79D;" d="M402.13,104.88l-76.14-25.783l-14.948-38.551c-0.494-1.275-1.23-2.403-2.13-3.36l0.04-0.135l0,0  c-1.927-1.983-4.604-3.169-7.483-3.169h-90.9c-2.882,0-5.55,1.201-7.477,3.189l0.004,0.015c-0.942,0.978-1.708,2.143-2.219,3.461  l-14.947,38.55l-76.14,25.783c0,0,16.607,19.353,16.607,72.139c0,40.328-16.607,79.678-16.607,85.946v200.779  c0,7.939,6.436,14.374,14.374,14.374h263.591c7.939,0,14.374-6.436,14.374-14.374V262.965c0-6.268-16.606-45.618-16.606-85.946  C385.524,124.233,402.13,104.88,402.13,104.88z"/>
<path style="fill:#C9A283;" d="M402.13,104.88L402.13,104.88l-8.792-2.977l0,0c-4.245,6.628-17.005,33.172-17.005,75.431  c0,39.167,16.333,83.334,16.333,83.334l75.924,12.996l40.87-71.312L402.13,104.88z"/>
<path style="fill:#BC9A7B;" d="M466.549,163.381l-59.489-54.024l0,0l-4.93-4.477l0,0l0,0l-8.792-2.977  c-2.264,3.535-6.949,12.738-10.83,26.965l111.975,99.616l5.283-9.217l9.695-16.916L466.549,163.381z"/>
<path style="fill:#AB825B;" d="M498.777,182.516l11.645,10.575c1.673,1.519,2.064,3.997,0.94,5.957l-43.44,75.797  c-1.004,1.752-2.994,2.691-4.985,2.352l-16.18-2.756c-3.3-0.562-5.033-4.237-3.367-7.141l47.975-83.616  C492.896,181.017,496.501,180.449,498.777,182.516z"/>
<g>
	<path style="fill:#B79274;" d="M301.469,33.881h-90.9c-2.882,0-5.55,1.201-7.477,3.189l8.745,29.509   c5.08,17.144,15.422,32.257,29.563,43.2l14.619,11.314l14.619-11.314c14.141-10.944,24.482-26.057,29.563-43.2l8.751-29.529l0,0   C307.025,35.068,304.348,33.881,301.469,33.881z"/>
	<polygon style="fill:#B79274;" points="255.96,121.016 243.623,111.468 243.623,478.119 255.86,478.119 256.061,478.119    267.615,478.119 270.098,478.119 270.098,110.074  "/>
</g>
<g>
	<path style="fill:#AB825B;" d="M241.4,109.78c-14.141-10.944-24.483-26.057-29.563-43.201l-8.751-29.529l0,0   c-0.957,0.985-1.733,2.163-2.25,3.496l-14.948,38.551l1.202,2.453c9.269,18.912,22.392,35.677,38.525,49.217l5.746,4.823   c2.479,2.081,6.11,2.027,8.527-0.126l16.131-14.37l0,0L241.4,109.78z"/>
	<path style="fill:#AB825B;" d="M270.52,109.78c14.141-10.944,24.483-26.057,29.563-43.201l8.751-29.529l0,0   c0.957,0.985,1.733,2.163,2.25,3.496l14.948,38.551l-1.202,2.453c-9.269,18.912-22.392,35.677-38.525,49.217l-5.746,4.823   c-2.479,2.081-6.11,2.027-8.527-0.126l-16.131-14.37l0,0L270.52,109.78z"/>
</g>
<path style="fill:#BC9A7B;" d="M390.778,220.282c-0.487-2.192-0.957-4.436-1.403-6.722c-1.784-9.145-3.178-18.979-3.665-28.999  c-0.122-2.505-0.187-5.022-0.187-7.542c0-13.197,1.038-24.303,2.595-33.541c4.671-27.712,14.012-38.599,14.012-38.599  l-76.104-25.771l-1.196,2.441c-1.07,2.183-2.197,4.333-3.368,6.457l0.002,0.004l49.816,16.869c0,0-16.606,19.354-16.606,72.139  c0,40.328,16.606,79.678,16.606,85.946v215.154h16.476c1.719,0,3.36-0.317,4.887-0.871c1.448-0.524,2.788-1.269,3.977-2.203  c0.124-0.098,0.251-0.192,0.372-0.293c1.73-1.453,3.116-3.302,4.008-5.412c0.546-1.29,0.908-2.676,1.055-4.125  c0.049-0.483,0.074-0.974,0.074-1.47V262.965c0-1.567-1.038-5.202-2.595-10.402C397.2,244.762,393.697,233.438,390.778,220.282z"/>
<path style="fill:#B79274;" d="M224.798,259.446h-71.597c-2.237,0-4.051-1.814-4.051-4.051V171.11c0-1.212,0.983-2.195,2.195-2.195  h75.309c1.212,0,2.195,0.983,2.195,2.195v84.285C228.849,257.633,227.036,259.446,224.798,259.446z"/>
<path style="fill:#AB825B;" d="M149.151,171.11v19.143l31.28,7.903c5.624,1.421,11.514,1.421,17.138,0l31.28-7.903V171.11  c0-1.212-0.983-2.195-2.195-2.195h-75.309C150.133,168.915,149.151,169.897,149.151,171.11z"/>
<path style="fill:#D6B79D;" d="M197.569,198.156c-5.624,1.421-11.514,1.421-17.138,0l-0.342-0.086v61.377h17.823V198.07  L197.569,198.156z"/>
<path style="fill:#B79274;" d="M358.798,259.446h-71.596c-2.237,0-4.051-1.814-4.051-4.051V171.11c0-1.212,0.983-2.195,2.195-2.195  h75.309c1.212,0,2.195,0.983,2.195,2.195v84.285C362.849,257.633,361.036,259.446,358.798,259.446z"/>
<path style="fill:#AB825B;" d="M283.151,171.11v19.143l31.28,7.903c5.624,1.421,11.514,1.421,17.138,0l31.28-7.903V171.11  c0-1.212-0.983-2.195-2.195-2.195h-75.309C284.133,168.915,283.151,169.897,283.151,171.11z"/>
<path style="fill:#D6B79D;" d="M331.569,198.156c-5.624,1.421-11.514,1.421-17.138,0l-0.342-0.086v61.377h17.823V198.07  L331.569,198.156z"/>
<g>
</g>
<g>
</g>
<g>
</g>
<g>
</g>
<g>
</g>
<g>
</g>
<g>
</g>
<g>
</g>
<g>
</g>
<g>
</g>
<g>
</g>
<g>
</g>
<g>
</g>
<g>
</g>
<g>
</g>
</svg>
