<?xml version="1.0" encoding="iso-8859-1"?>
<!-- Generator: Adobe Illustrator 19.0.0, SVG Export Plug-In . SVG Version: 6.00 Build 0)  -->
<svg xmlns="http://www.w3.org/2000/svg" xmlns:xlink="http://www.w3.org/1999/xlink" version="1.1" id="Layer_1" x="0px" y="0px" viewBox="0 0 512 512" style="enable-background:new 0 0 512 512;" xml:space="preserve">
<path style="fill:#008777;" d="M306.645,108.787V79.349H205.357v29.438c0,5.641-3.578,10.771-9.198,13.242  c-33.474,14.72-111.61,57.948-104.418,138.38c5.512,61.656,16.958,143.016,29.307,191.881c6.89,27.265,37.978,48.718,68.112,55.328  l66.778,1.623v0.003l0.063-0.001l0.063,0.001v-0.003l66.778-1.623c30.135-6.611,61.222-28.064,68.112-55.328  c12.349-48.865,23.795-130.225,29.307-191.881c7.191-80.432-70.945-123.66-104.418-138.38  C310.222,119.558,306.645,114.428,306.645,108.787z"/>
<path style="fill:#006659;" d="M315.842,122.03c-5.62-2.472-9.198-7.602-9.198-13.242V79.349h-31v29.438  c0,5.641,3.578,10.771,9.198,13.242c33.474,14.721,111.61,57.948,104.418,138.38c-5.513,61.656-16.958,143.016-29.307,191.881  c-6.89,27.264-37.978,48.718-68.112,55.328l-51.341,1.248l15.437,0.375v0.003l0.063-0.001l0.063,0.001v-0.003l66.778-1.623  c30.135-6.611,61.222-28.064,68.112-55.328c12.349-48.865,23.795-130.225,29.307-191.881  C427.452,179.978,349.316,136.75,315.842,122.03z"/>
<path style="fill:#D6B79D;" d="M88.139,247.108c0.063,0.966,0.116,9.933,0.203,10.909c5.627,62.931,17.309,145.974,29.914,195.85  c3.712,14.687,14.303,27.722,28,37.75c16.626,12.172,36.761,18.607,57.36,19.108l52.321,1.271V512l0.064-0.001l0.065,0.001v-0.003  l52.321-1.271c20.599-0.5,40.734-6.936,57.36-19.108c13.697-10.028,24.288-23.063,28-37.75  c12.604-49.876,24.287-132.919,29.914-195.85c0.087-0.977,0.141-9.943,0.203-10.909H88.139V247.108z"/>
<path style="fill:#BC9A7B;" d="M393.449,247.108c-0.036,4.837-0.074,10.354-0.124,10.909  c-5.627,62.931-17.309,145.974-29.914,195.85c-3.712,14.687-14.303,27.722-28,37.75c-16.626,12.172-36.761,18.607-57.36,19.108  l-37.219,0.904l6.752,0.164l8.351,0.203V512l0.064-0.001l0.064,0.001v-0.003l52.321-1.271c9.012-0.219,17.935-1.574,26.515-4.048  c11.031-3.181,21.493-8.213,30.845-15.06c9.417-6.894,17.365-15.209,22.62-24.506c2.388-4.226,4.22-8.654,5.38-13.244  c3.151-12.469,6.245-27.011,9.2-42.793c0.739-3.946,1.469-7.969,2.19-12.056c0.72-4.088,1.431-8.24,2.13-12.443  c0.35-2.102,0.697-4.217,1.041-6.343c0.688-4.252,1.364-8.549,2.028-12.878c1.99-12.987,3.863-26.262,5.584-39.474  c0.574-4.404,1.131-8.801,1.67-13.177c2.426-19.696,4.488-38.986,6.07-56.686c0.087-0.977,0.141-9.943,0.203-10.909h-30.411V247.108  z"/>
<path style="fill:#B79274;" d="M414.382,338.622H97.618c2.085,15.303,4.36,30.554,6.772,45.225h303.22  C410.022,369.176,412.297,353.925,414.382,338.622z"/>
<path style="fill:#AB825B;" d="M414.382,338.622H190.687c-12.489,0-22.613,10.124-22.613,22.613l0,0  c0,12.489,10.124,22.612,22.613,22.612H407.61c0.035,0.001,0.068,0,0.103,0.001c2.414-14.682,4.689-29.945,6.775-45.258  C414.452,338.602,414.418,338.61,414.382,338.622z"/>
<path style="fill:#A07853;" d="M414.382,338.622H384.15c-2.085,15.302-4.359,30.553-6.771,45.225h30.23  c0.034,0.003,0.068,0.003,0.102,0.006c2.413-14.677,4.688-29.933,6.773-45.24C414.451,338.616,414.417,338.618,414.382,338.622z"/>
<path style="fill:#3D3D42;" d="M308.203,87.069c2.221,0,4.022-1.801,4.022-4.022V14.241C312.225,9.993,287.052,0,256,0  s-56.225,9.993-56.225,14.241v68.806c0,2.221,1.801,4.022,4.022,4.022H308.203z"/>
<path style="fill:#AB825B;" d="M426.988,224.356H85.012c-8.493,0-15.379,6.885-15.379,15.379l0,0  c0,8.493,6.885,15.379,15.379,15.379h341.975c8.493,0,15.379-6.885,15.379-15.379l0,0  C442.366,231.241,435.481,224.356,426.988,224.356z"/>
<path style="fill:#B3B3B3;" d="M301.219,403.306c8.189,0,14.852-6.662,14.852-14.852v-54.439c0-8.189-6.663-14.852-14.852-14.852  h-50.93c-8.189,0-14.852,6.662-14.852,14.852v54.439c0,8.189,6.663,14.852,14.852,14.852H301.219z M248.303,388.454v-19.701h27.452  c3.553,0,6.433-2.88,6.433-6.433s-2.88-6.433-6.433-6.433h-27.452v-21.872c0-1.096,0.891-1.987,1.987-1.987h50.93  c1.096,0,1.987,0.891,1.987,1.987v54.439c0,1.096-0.891,1.987-1.987,1.987h-50.93C249.193,390.44,248.303,389.549,248.303,388.454z"/>
<g>
	<path style="fill:#4D4D4D;" d="M256,14.639c-4.143,0-7.5,3.358-7.5,7.5v38.343c0,4.142,3.357,7.5,7.5,7.5   c4.143,0,7.5-3.358,7.5-7.5V22.139C263.5,17.997,260.143,14.639,256,14.639z"/>
	<path style="fill:#4D4D4D;" d="M224.251,14.639c-4.143,0-7.5,3.358-7.5,7.5v38.343c0,4.142,3.357,7.5,7.5,7.5s7.5-3.358,7.5-7.5   V22.139C231.751,17.997,228.394,14.639,224.251,14.639z"/>
	<path style="fill:#4D4D4D;" d="M287.75,14.639c-4.143,0-7.5,3.358-7.5,7.5v38.343c0,4.142,3.357,7.5,7.5,7.5s7.5-3.358,7.5-7.5   V22.139C295.25,17.997,291.893,14.639,287.75,14.639z"/>
	<path style="fill:#4D4D4D;" d="M142.01,138.101c-14.629,0-30.664-5.373-39.124-16.849c-4.436-6.017-10.243-18.788,0.71-36.709   c6.627-10.845,22.44-22.409,60.093-15.911c17.684,3.051,33.42,8.855,38.207,10.718h110.329c4.264,0,7.72,3.456,7.72,7.72   c0,4.263-3.456,7.72-7.72,7.72H200.419c-1.008,0-2.006-0.198-2.939-0.581c-16.94-6.956-68.135-22.187-80.709-1.613   c-7.175,11.74-2.871,17.578-1.456,19.497c6.155,8.349,22.915,12.792,35.861,9.511c23.265-5.898,50.426-19.566,50.698-19.703   c1.081-0.546,2.274-0.831,3.484-0.831h106.869c4.264,0,7.72,3.456,7.72,7.72c0,4.263-3.456,7.72-7.72,7.72h-105.06   c-6.513,3.191-30.46,14.55-52.198,20.061C150.964,137.583,146.555,138.101,142.01,138.101z"/>
</g>
<path style="fill:#999999;" d="M301.219,319.163h-11.077v12.865h11.077c1.096,0,1.987,0.891,1.987,1.987v54.439  c0,1.096-0.891,1.987-1.987,1.987h-11.077v12.865h11.077c8.189,0,14.852-6.663,14.852-14.852v-54.439  C316.07,325.826,309.408,319.163,301.219,319.163z"/>
<g>
</g>
<g>
</g>
<g>
</g>
<g>
</g>
<g>
</g>
<g>
</g>
<g>
</g>
<g>
</g>
<g>
</g>
<g>
</g>
<g>
</g>
<g>
</g>
<g>
</g>
<g>
</g>
<g>
</g>
</svg>
