<?xml version="1.0" encoding="iso-8859-1"?>
<!-- Generator: Adobe Illustrator 19.0.0, SVG Export Plug-In . SVG Version: 6.00 Build 0)  -->
<svg xmlns="http://www.w3.org/2000/svg" xmlns:xlink="http://www.w3.org/1999/xlink" version="1.1" id="Layer_1" x="0px" y="0px" viewBox="0 0 512 512" style="enable-background:new 0 0 512 512;" xml:space="preserve">
<path style="fill:#008777;" d="M35.768,349.796l193.443-193.443c0.385,0.552,0.821,1.077,1.31,1.566l98.189,98.189  c0.484,0.484,1.003,0.917,1.549,1.299L136.833,450.862c-13.864,13.864-36.341,13.864-50.205,0l-50.861-50.861  C21.904,386.137,21.904,363.66,35.768,349.796z"/>
<g>
	<path style="fill:#006659;" d="M35.768,400.001c-12.957-12.957-13.801-33.435-2.54-47.376c0.827-1.017,1.675-1.964,2.54-2.829   l193.443-193.443c0.385,0.552,0.821,1.077,1.31,1.566l20.891,20.891L58.097,372.125c-13.862,13.863-9.505,40.7-9.505,40.7   L35.768,400.001z"/>
	<path style="fill:#006659;" d="M223.875,148.612l78.263-127.904L319.776,3.07c4.093-4.093,10.73-4.093,14.824,0l148.96,148.96   c4.093,4.094,4.093,10.73,0,14.824l-17.638,17.638l-127.904,78.262c-4.574,2.799-10.469,2.099-14.261-1.693l-98.189-98.189   C221.777,159.081,221.077,153.186,223.875,148.612z"/>
</g>
<path style="fill:#008777;" d="M483.56,152.031L334.599,3.07c-4.093-4.093-10.73-4.093-14.824,0l-17.638,17.638l163.784,163.784  l17.638-17.638C487.653,162.761,487.653,156.124,483.56,152.031z"/>
<path style="fill:#01544B;" d="M223.875,148.612l78.263-127.904l22.501,22.501l-78.584,127.582  c-2.799,4.574-2.099,10.469,1.693,14.261l-22.18-22.18C221.777,159.081,221.077,153.186,223.875,148.612z"/>
<path style="fill:#006659;" d="M342.265,25.56l-17.626,17.649l-11.255-11.255l-0.001-0.001l-11.245-11.245l0,0l0,0L319.776,3.07  c4.093-4.093,10.73-4.093,14.824,0l22.49,22.49C352.995,21.466,346.359,21.466,342.265,25.56z"/>
<path style="fill:#01544B;" d="M172.044,314.586L172.044,314.586c-12.211-12.211-12.211-32.008,0-44.219l41.421-41.421  c12.211-12.211,32.008-12.211,44.219,0l0,0c12.211,12.211,12.211,32.008,0,44.219l-41.421,41.421  C204.052,326.797,184.254,326.797,172.044,314.586z"/>
<circle style="fill:#FC8829;" cx="226.16" cy="260.47" r="14.856"/>
<path style="fill:#3D3D42;" d="M55.444,419.677c-11.224,16.854-10.865,38.759,1.133,55.271  c17.612,24.238,39.282,37.05,62.668,37.052c2.209,0,4.464-0.116,6.702-0.344l0.104-0.008c9.118-0.524,19.198-1.593,30.008-3.179  c0.176-0.021,0.291-0.039,0.406-0.059c30.656-4.533,64.622-12.732,95.698-23.096c28.93-9.648,80.463-29.816,100.553-56.48  c7.928-10.52,10.721-21.295,8.299-32.024c-3.971-17.607-13.8-24.585-21.347-27.338c-1.501-0.548-3.227-0.826-5.129-0.826  c-22.03,0-67.789,34.891-144.523,99.277c-16.298,13.675-30.353,25.468-36.12,29.331l-0.392,0.263l-0.467,0.067  c-9.926,1.42-19.203,2.384-27.575,2.864c-0.205,0.007-0.303,0.015-0.447,0.03c-1.933,0.204-3.873,0.307-5.769,0.307  c-19.929-0.001-37.962-10.912-53.596-32.429c-8.747-12.036-9.492-27.76-2.064-40.537L55.444,419.677z M184.7,487.002  c3.774-3.148,7.942-6.641,12.525-10.488c24.456-20.521,54.891-46.06,82.287-66.154c36.303-26.628,49.767-30.604,54.562-30.604  c0.672,0,1.247,0.079,1.709,0.236c7.306,2.665,11.967,8.968,14.294,19.285c1.686,7.47-0.381,14.931-6.316,22.807  c-13.341,17.705-48.02,36.873-95.145,52.59c-19.645,6.551-40.946,12.349-61.734,16.807c-1.156,0.248-2.33-0.331-2.845-1.395  C183.522,489.028,183.796,487.756,184.7,487.002z"/>
<g>
</g>
<g>
</g>
<g>
</g>
<g>
</g>
<g>
</g>
<g>
</g>
<g>
</g>
<g>
</g>
<g>
</g>
<g>
</g>
<g>
</g>
<g>
</g>
<g>
</g>
<g>
</g>
<g>
</g>
</svg>
