<?xml version="1.0" encoding="iso-8859-1"?>
<!-- Generator: Adobe Illustrator 19.0.0, SVG Export Plug-In . SVG Version: 6.00 Build 0)  -->
<svg xmlns="http://www.w3.org/2000/svg" xmlns:xlink="http://www.w3.org/1999/xlink" version="1.1" id="Layer_1" x="0px" y="0px" viewBox="0 0 512.001 512.001" style="enable-background:new 0 0 512.001 512.001;" xml:space="preserve">
<path style="fill:#C9E7F8;" d="M152.35,373.237c46.517-45.283,120.334-119.535,180.145-190.014  C404.347,98.556,455.645,15.371,464.538,0.675c0.584-0.965,2.02-0.88,2.472,0.153C525.845,135.7,311.352,303.02,182.273,403.16  L152.35,373.237z"/>
<path style="fill:#A2D8F4;" d="M336.864,178.043c0.13-0.155,0.26-0.31,0.39-0.465c0.994-1.186,1.985-2.37,2.971-3.555  c0.007-0.009,0.015-0.018,0.022-0.027c0.046-0.055,0.092-0.111,0.138-0.167c2.803-3.369,5.576-6.73,8.309-10.082  c0.046-0.056,0.092-0.113,0.138-0.17c0,0,0,0,0.001-0.001c0.622-0.763,1.239-1.525,1.858-2.286c0.44-0.542,0.882-1.083,1.319-1.624  c0.004-0.005,0.008-0.01,0.012-0.015c0.817-1.009,1.627-2.016,2.438-3.022c0.231-0.286,0.461-0.572,0.691-0.857  c0.003-0.004,0.006-0.008,0.009-0.012c1.77-2.203,3.52-4.399,5.259-6.588c0.308-0.387,0.617-0.775,0.923-1.163  c0.002-0.002,0.003-0.004,0.005-0.006c0.455-0.575,0.906-1.148,1.359-1.721c0.012-0.015,0.023-0.03,0.035-0.045  c0.547-0.693,1.095-1.386,1.639-2.078c0.001-0.002,0.003-0.004,0.004-0.005c1.479-1.881,2.942-3.753,4.396-5.621  c0.008-0.01,0.016-0.021,0.025-0.032c0.517-0.664,1.034-1.328,1.548-1.99c0.003-0.003,0.005-0.007,0.008-0.01  c0.456-0.589,0.909-1.175,1.363-1.763c0.011-0.014,0.022-0.028,0.033-0.043c0.513-0.662,1.025-1.325,1.535-1.986  c0.003-0.004,0.007-0.009,0.01-0.013c0.946-1.228,1.885-2.451,2.819-3.672c0.023-0.029,0.045-0.059,0.068-0.089l0.001-0.001  c2.377-3.107,4.715-6.187,7.017-9.243c0.002-0.003,0.005-0.006,0.007-0.009c0.058-0.077,0.116-0.154,0.174-0.231  c1.801-2.392,3.577-4.765,5.33-7.12c0.006-0.008,0.011-0.015,0.017-0.023c0.466-0.627,0.934-1.255,1.397-1.88  c0.004-0.005,0.008-0.01,0.012-0.016c0.41-0.553,0.817-1.102,1.223-1.653c0.015-0.02,0.03-0.041,0.045-0.061  c0.464-0.628,0.929-1.256,1.39-1.882c0.003-0.004,0.006-0.008,0.009-0.012c0.42-0.571,0.838-1.138,1.255-1.705  c0.006-0.009,0.013-0.017,0.019-0.026c0.448-0.61,0.897-1.22,1.342-1.828c0.005-0.007,0.01-0.014,0.016-0.021  c0.415-0.567,0.828-1.131,1.24-1.695c0.002-0.003,0.004-0.005,0.006-0.008c0.449-0.615,0.9-1.231,1.345-1.843  c0.001-0.002,0.003-0.004,0.004-0.005c0.395-0.543,0.787-1.081,1.18-1.621c0.011-0.016,0.023-0.031,0.034-0.047  c0.444-0.612,0.889-1.223,1.33-1.832c0.001-0.001,0.002-0.003,0.003-0.004c0.407-0.562,0.811-1.12,1.214-1.679  c0.007-0.01,0.014-0.019,0.021-0.029c0.419-0.581,0.839-1.162,1.255-1.738c0.007-0.009,0.013-0.019,0.02-0.028  c0.606-0.841,1.206-1.676,1.805-2.511c0.222-0.308,0.443-0.617,0.663-0.924c0.003-0.004,0.006-0.008,0.009-0.013  c0.388-0.543,0.774-1.081,1.16-1.621l0.001-0.001c0.022-0.031,0.045-0.063,0.067-0.094c0.789-1.104,1.572-2.203,2.347-3.294  c0.007-0.01,0.014-0.02,0.021-0.029c0.28-0.393,0.557-0.784,0.836-1.177c3.154-4.446,6.192-8.778,9.114-12.982  c0.13-0.188,0.263-0.377,0.392-0.565c0.003-0.004,0.005-0.008,0.008-0.012c0.681-0.982,1.355-1.955,2.023-2.922  c0.035-0.05,0.07-0.101,0.104-0.151l0.001-0.002c0.373-0.54,0.742-1.076,1.112-1.612c0.338-0.491,0.674-0.979,1.008-1.465  c0.008-0.011,0.015-0.022,0.022-0.033c0.326-0.473,0.649-0.946,0.972-1.415c0.009-0.013,0.017-0.025,0.026-0.038  c0.236-0.343,0.469-0.684,0.702-1.025c0.492-0.718,0.98-1.434,1.465-2.143c0.312-0.456,0.623-0.913,0.931-1.365  c0.01-0.015,0.02-0.03,0.03-0.044c1.791-2.631,3.523-5.193,5.199-7.688c0.189-0.281,0.378-0.563,0.566-0.843  c0.006-0.009,0.012-0.017,0.018-0.026c0.558-0.831,1.107-1.652,1.652-2.467c0.056-0.084,0.113-0.169,0.17-0.253  c0.002-0.003,0.004-0.007,0.007-0.01c0.286-0.428,0.571-0.855,0.853-1.278c0.008-0.013,0.017-0.026,0.026-0.038  c0.303-0.455,0.604-0.907,0.903-1.356c0.006-0.009,0.012-0.018,0.018-0.027c0.969-1.457,1.914-2.884,2.838-4.283  c0.197-0.298,0.394-0.597,0.59-0.894c0.008-0.012,0.016-0.025,0.024-0.037c0.254-0.385,0.507-0.768,0.756-1.149  c0.003-0.004,0.005-0.008,0.008-0.011c0.206-0.313,0.409-0.622,0.612-0.932c0.575-0.876,1.141-1.738,1.696-2.589  c0.042-0.064,0.085-0.129,0.127-0.194c0.002-0.003,0.004-0.006,0.006-0.009c0.244-0.372,0.487-0.745,0.726-1.112  c0.002-0.003,0.004-0.006,0.006-0.009c0.275-0.422,0.547-0.839,0.817-1.254c0.015-0.022,0.029-0.044,0.043-0.067  c0.215-0.33,0.429-0.659,0.64-0.985c0.004-0.006,0.008-0.012,0.012-0.019c0.072-0.111,0.142-0.22,0.214-0.329  c0.92-1.416,1.811-2.795,2.669-4.128c0.001-0.001,0.002-0.003,0.003-0.004c0.239-0.371,0.473-0.735,0.707-1.099  c0.006-0.009,0.011-0.017,0.017-0.026c0.26-0.404,0.518-0.806,0.771-1.202c0.194-0.303,0.387-0.604,0.578-0.903  c0.011-0.017,0.022-0.034,0.033-0.051c0.171-0.266,0.342-0.534,0.51-0.797c0.005-0.007,0.01-0.015,0.014-0.022  c0.23-0.36,0.454-0.712,0.679-1.065c0.355-0.557,0.703-1.103,1.045-1.641c0.051-0.081,0.104-0.164,0.155-0.245  c0.006-0.009,0.011-0.018,0.017-0.026c0.582-0.915,1.147-1.807,1.688-2.665c0.001-0.002,0.003-0.004,0.004-0.006  c0.049-0.078,0.097-0.153,0.145-0.231c0.789-1.25,1.534-2.436,2.238-3.558c0.088-0.14,0.178-0.283,0.265-0.423  c0.019-0.031,0.038-0.061,0.057-0.091c0.126-0.203,0.255-0.407,0.379-0.606c0.001-0.002,0.002-0.004,0.003-0.006  c0.048-0.077,0.093-0.149,0.14-0.225c0.254-0.407,0.506-0.811,0.747-1.198c0.005-0.007,0.009-0.015,0.014-0.023  c0.188-0.302,0.368-0.592,0.548-0.882c0.005-0.009,0.011-0.017,0.016-0.026c0.66-1.064,1.273-2.055,1.828-2.956  c0.004-0.006,0.008-0.013,0.012-0.019c0.107-0.175,0.209-0.339,0.311-0.506c0.351-0.572,0.686-1.118,0.99-1.615l0,0  c0.045-0.074,0.085-0.14,0.129-0.212c0.146-0.241,0.294-0.481,0.428-0.702c0.001-0.002,0.002-0.003,0.003-0.005  c0.04-0.066,0.075-0.123,0.114-0.188c0.135-0.222,0.27-0.442,0.392-0.645c0.013-0.021,0.028-0.045,0.04-0.066  c0.001-0.002,0.003-0.005,0.004-0.007c0.139-0.229,0.273-0.45,0.396-0.653c0.42-0.694,1.278-0.837,1.896-0.482  c2.277,11.482,6.944,44.016-5.795,65.092c-21.983,36.367-60.409,87.772-105.351,140.73  c-57.646,67.928-135.045,145.99-180.029,190.128l-22.908-22.908c1.438-1.399,2.901-2.827,4.39-4.28  c0.747-0.73,1.519-1.486,2.278-2.229c0.744-0.729,1.479-1.446,2.235-2.187c0.929-0.91,1.882-1.847,2.828-2.776  c0.617-0.606,1.223-1.2,1.848-1.814c1.04-1.023,2.103-2.07,3.162-3.115c0.544-0.536,1.076-1.059,1.625-1.601  c1.176-1.16,2.373-2.344,3.57-3.529c0.446-0.441,0.884-0.873,1.332-1.318c1.255-1.243,2.529-2.508,3.806-3.777  c0.411-0.408,0.816-0.809,1.229-1.22c1.384-1.375,2.787-2.774,4.194-4.178c0.306-0.305,0.606-0.603,0.912-0.909  c1.462-1.459,2.94-2.937,4.426-4.425c0.273-0.273,0.542-0.542,0.816-0.816c1.558-1.561,3.132-3.141,4.714-4.732  c0.198-0.199,0.393-0.394,0.592-0.594c1.654-1.664,3.323-3.347,5.003-5.042c0.131-0.133,0.262-0.264,0.393-0.397  c1.722-1.739,3.458-3.497,5.204-5.268c0.095-0.096,0.189-0.191,0.284-0.287c1.8-1.826,3.612-3.669,5.434-5.525  c0.037-0.037,0.073-0.074,0.11-0.112c37.403-38.112,79.34-82.571,116.323-125.857c0.002-0.002,0.003-0.004,0.005-0.006  c1.152-1.343,2.297-2.684,3.432-4.022c1.458-1.717,2.904-3.435,4.345-5.151C336.848,178.063,336.856,178.053,336.864,178.043z"/>
<path style="fill:#9A4D01;" d="M146.478,384.921l20.588,20.587l11.164,11.164l-10.609,10.609c-2.427,2.427-5.69,3.831-9.12,3.925  l0,0c-7.706,0.212-15.039,3.368-20.49,8.819l-70.203,70.203c-2.332,2.332-6.102,2.366-8.476,0.078l-22.49-21.679  c-2.437-2.348-2.473-6.24-0.079-8.633l102.394-102.394L146.478,384.921z"/>
<path style="fill:#713802;" d="M36.763,479.995L139.157,377.6l7.321,7.321l15.677,15.677L59.761,502.993  c-1.737,1.737-2.177,4.259-1.365,6.412l-21.554-20.777C34.406,486.278,34.37,482.388,36.763,479.995z"/>
<path style="fill:#BF6101;" d="M137.025,353.269l65.536,65.536c2.301,2.301,2.301,6.032,0,8.332l-5.607,5.607  c-2.301,2.301-6.032,2.301-8.332,0l-65.536-65.536c-2.301-2.301-2.301-6.032,0-8.332l5.607-5.607  C130.993,350.967,134.724,350.967,137.025,353.269z"/>
<g>
</g>
<g>
</g>
<g>
</g>
<g>
</g>
<g>
</g>
<g>
</g>
<g>
</g>
<g>
</g>
<g>
</g>
<g>
</g>
<g>
</g>
<g>
</g>
<g>
</g>
<g>
</g>
<g>
</g>
</svg>
