<?xml version="1.0" encoding="iso-8859-1"?>
<!-- Generator: Adobe Illustrator 19.0.0, SVG Export Plug-In . SVG Version: 6.00 Build 0)  -->
<svg xmlns="http://www.w3.org/2000/svg" xmlns:xlink="http://www.w3.org/1999/xlink" version="1.1" id="Layer_1" x="0px" y="0px" viewBox="0 0 512 512" style="enable-background:new 0 0 512 512;" xml:space="preserve">
<path style="fill:#D6B79D;" d="M512,338.235c0,36.523-114.615,66.13-256,66.13S0,374.758,0,338.235  c0-36.523,114.615-85.784,256-85.784S512,301.713,512,338.235z"/>
<path style="fill:#BC9A7B;" d="M248.373,252.504c-0.147,0.002-0.294,0.005-0.441,0.007c-2.461,0.034-4.913,0.082-7.357,0.144  c134.201,3.398,240.575,50.396,240.575,85.581c0,19.154-31.532,36.404-81.911,48.479c-40.879,7.143-90.168,11.318-143.239,11.318  c-137.307,0-249.355-27.925-255.705-62.989v0.001c-0.094,0.534-0.167,1.066-0.217,1.595C0.03,337.175,0,337.707,0,338.235l0,0  c0,36.523,114.615,66.13,256,66.13s256-29.608,256-66.13c0-36.521-114.607-85.78-255.985-85.784c-0.005,0-0.01,0-0.015,0  C253.448,252.452,250.906,252.47,248.373,252.504z"/>
<path style="fill:#D6B79D;" d="M354.346,139.206c-18.613-13.266-46.244-17.294-75.866-18.377  c-2.36-7.555-11.519-13.194-22.481-13.194c-10.962,0-20.12,5.639-22.481,13.194c-29.622,1.082-57.253,5.111-75.866,18.377  c-73.905,52.675-75.769,172.775-75.769,173.41c0,15.465,77.955,28.002,174.117,28.002s174.117-12.537,174.117-28.002  C430.117,311.981,428.253,191.881,354.346,139.206z"/>
<g>
	<circle style="fill:#AB825B;" cx="256" cy="274.151" r="10.1"/>
	<circle style="fill:#AB825B;" cx="224.01" cy="229.211" r="10.1"/>
	<circle style="fill:#AB825B;" cx="287.99" cy="229.211" r="10.1"/>
</g>
<path style="fill:#BC9A7B;" d="M354.346,139.206c-18.608-13.263-46.232-17.292-75.846-18.376l0,0c0,1.353,0.997,2.492,2.335,2.692  c17.266,2.586,32.708,7.271,44.511,15.684c73.906,52.674,75.771,172.775,75.771,173.409c0,14.68-70.241,26.72-159.617,27.905  c4.782,0.063,9.616,0.097,14.5,0.097c96.162,0,174.117-12.537,174.117-28.002C430.117,311.981,428.252,191.881,354.346,139.206z"/>
<path style="fill:#008777;" d="M256,302.407c-84.895,0-155.586-9.772-170.989-22.703c-2.923,19.494-3.128,32.702-3.128,32.911  c0,9.286,28.105,17.516,71.38,22.611c28.798,3.39,64.314,5.392,102.737,5.392c96.162,0,174.117-12.537,174.117-28.002  c0-0.209-0.205-13.417-3.128-32.911C411.586,292.635,340.895,302.407,256,302.407z"/>
<path style="fill:#006659;" d="M426.99,279.712c0-0.002-0.001-0.005-0.001-0.008c-4.529,3.802-14.513,7.482-27.587,10.577  c0.873,7.468,1.303,13.426,1.515,17.308c0.617,8.007,1.134,16.559,0.885,20.333c17.896-4.4,28.315-9.657,28.315-15.307  C430.117,312.407,429.913,299.202,426.99,279.712z"/>
<g>
</g>
<g>
</g>
<g>
</g>
<g>
</g>
<g>
</g>
<g>
</g>
<g>
</g>
<g>
</g>
<g>
</g>
<g>
</g>
<g>
</g>
<g>
</g>
<g>
</g>
<g>
</g>
<g>
</g>
</svg>
