<?xml version="1.0" encoding="iso-8859-1"?>
<!-- Generator: Adobe Illustrator 19.0.0, SVG Export Plug-In . SVG Version: 6.00 Build 0)  -->
<svg xmlns="http://www.w3.org/2000/svg" xmlns:xlink="http://www.w3.org/1999/xlink" version="1.1" id="Layer_1" x="0px" y="0px" viewBox="0 0 511.999 511.999" style="enable-background:new 0 0 511.999 511.999;" xml:space="preserve">
<path style="fill:#D6B79D;" d="M483.981,445.996l-42.764-55.1c-20.503-26.418-33.375-57.95-37.216-91.169l-26.099-135.678  c-2.105-18.208,4.224-36.381,17.185-49.342l12.992-12.992c4.098-4.098,3.525-10.896-1.201-14.25L374.17,64.247  c-2.801-1.988-6.466-2.282-9.548-0.766l-0.873,0.503c-17.546,10.11-39.481,8.51-55.375-4.039l-71.67-56.587  c-8.456-5.02-19.192-4.396-26.854,1.767c-27.921,22.459-57.411,29.504-89.81,52.31c-3.931,2.767-7.665,5.47-11.206,8.097  c-1.16,0.861-2.3,1.714-3.419,2.558c-4.5,3.396-8.667,6.654-12.508,9.752c-3.147,2.537-6.075,4.966-8.79,7.273  c-2.091,1.777-4.056,3.482-5.897,5.109c-1.888,1.669-3.635,3.671-5.196,5.904c0,0,0-0.001,0.001-0.001l-16.158,14.97l-19.773,14.289  c-17.054,12.323-19.026,36.983-4.149,51.861l108.889,108.889c5.408,5.408,14.175,5.408,19.583,0c2.241-2.241,5.874-2.241,8.115,0  l34.341,34.341c0.466,0.466,0.849,1.009,1.13,1.605l15.527,32.85c6.208,13.134,15.03,24.863,25.925,34.472l110.02,97.022  c16.306,14.38,36.748,23.225,58.393,25.267l0,0c22.875,2.158,45.327-7.197,59.901-24.96l7.204-8.78l0,0l0,0  C490.601,469.329,491.46,455.632,483.981,445.996z"/>
<path style="fill:#BC9A7B;" d="M483.981,445.996l-42.764-55.1l0,0c-1.281-1.651-2.533-3.322-3.755-5.012  c-1.702-2.354-3.323-4.759-4.906-7.185c-7.511-11.509-13.707-23.79-18.445-36.627c-2.869-7.772-5.211-15.743-7.006-23.859  c-1.346-6.087-2.384-12.257-3.104-18.485l-17.399-90.452l-8.7-45.226c-0.263-2.276-0.394-4.552-0.398-6.816  c-0.02-14.721,5.379-28.992,15.231-40.036c0.758-0.849,1.542-1.68,2.352-2.49l12.992-12.992c0.406-0.406,0.753-0.844,1.068-1.297  c0.192-0.277,0.368-0.56,0.526-0.851c0.237-0.434,0.45-0.878,0.612-1.335c0.112-0.316,0.207-0.638,0.283-0.962  c0.148-0.624,0.227-1.26,0.245-1.896c0.001-0.024,0.005-0.049,0.005-0.073c0.007-0.33-0.004-0.661-0.031-0.99  s-0.073-0.656-0.135-0.981c-0.372-1.947-1.36-3.787-2.937-5.198c-0.263-0.235-0.542-0.458-0.837-0.668L391.49,76.543  c-2.801-1.988-21.262,21.074-25.36,25.172l-12.992,12.992c-12.961,12.961-19.29,31.134-17.185,49.342l26.099,135.678  c3.841,33.22,16.712,64.751,37.215,91.169l42.765,55.1c7.479,9.637,6.619,23.333-2.006,31.959l0,0  c-2.777,3.128-11.99,3.068-11.992,3.068c17.653,3.479,36.193,2.589,53.94-3.068l0,0l0,0l0,0l0,0l0,0  C490.601,469.329,491.46,455.632,483.981,445.996z"/>
<path style="fill:#8A6747;" d="M287.478,43.447L236.704,3.358c-8.456-5.02-19.192-4.396-26.854,1.767  c-22.919,18.436-46.898,26.491-72.673,41.398C213.801,123.147,271.802,63.163,287.478,43.447z"/>
<path style="fill:#A07853;" d="M252.248,37.759l-23.664-18.684c-0.417-0.329-0.854-0.638-1.325-0.885  c-5.268-2.766-11.733-2.242-16.404,1.516c-10.879,8.751-22.133,13.829-33.956,19.779c-6.251,3.146-7.187,11.762-1.663,16.057  c35.467,27.574,63.527,10.281,77.677-3.334C257.112,48.168,256.821,41.37,252.248,37.759z"/>
<g>
	<circle style="fill:#72563A;" cx="346.23" cy="161.37" r="18.428"/>
	<circle style="fill:#72563A;" cx="353.68" cy="201.56" r="18.428"/>
	<circle style="fill:#72563A;" cx="363.68" cy="243.69" r="18.428"/>
	<circle style="fill:#72563A;" cx="373.24" cy="286.24" r="18.428"/>
	<circle style="fill:#72563A;" cx="385.92" cy="329.36" r="18.428"/>
</g>
<g>
	<path style="fill:#3D3D42;" d="M348.962,170.63c-4.346,0-7.98-3.403-8.216-7.794c-0.243-4.541,3.241-8.42,7.782-8.664l35.191-1.886   c4.539-0.235,8.42,3.241,8.664,7.782c0.243,4.541-3.241,8.42-7.782,8.664l-35.191,1.886   C349.26,170.626,349.111,170.63,348.962,170.63z"/>
	<path style="fill:#3D3D42;" d="M355.641,209.798c-4.346,0-7.98-3.402-8.215-7.794c-0.244-4.541,3.24-8.42,7.782-8.664l35.191-1.887   c4.549-0.234,8.42,3.241,8.663,7.782c0.244,4.541-3.24,8.42-7.782,8.663l-35.191,1.887   C355.939,209.794,355.789,209.798,355.641,209.798z"/>
	<path style="fill:#3D3D42;" d="M363.076,250.719c-4.346,0-7.98-3.402-8.215-7.794c-0.244-4.541,3.24-8.42,7.782-8.664l35.191-1.887   c4.548-0.236,8.42,3.241,8.663,7.782c0.244,4.541-3.24,8.42-7.782,8.663l-35.191,1.887   C363.374,250.715,363.224,250.719,363.076,250.719z"/>
	<path style="fill:#3D3D42;" d="M375.411,294.478c-4.346,0-7.98-3.402-8.215-7.794c-0.244-4.541,3.24-8.42,7.782-8.664l35.191-1.887   c4.537-0.243,8.42,3.241,8.663,7.782c0.244,4.541-3.24,8.42-7.782,8.663l-35.191,1.887   C375.709,294.474,375.56,294.478,375.411,294.478z"/>
	<path style="fill:#3D3D42;" d="M385.034,336.647c-4.346,0-7.98-3.402-8.215-7.794c-0.244-4.541,3.24-8.42,7.782-8.664l35.191-1.887   c4.542-0.243,8.42,3.241,8.663,7.782c0.244,4.541-3.24,8.42-7.782,8.663l-35.191,1.887   C385.332,336.643,385.183,336.647,385.034,336.647z"/>
</g>
<path style="fill:#8A6747;" d="M474.728,486.785c0.014-0.017,0.029-0.034,0.043-0.051l7.204-8.78l0,0l0,0  c0.508-0.508,0.985-1.037,1.439-1.579c0.149-0.178,0.284-0.364,0.427-0.546c0.294-0.371,0.583-0.745,0.852-1.129  c0.155-0.221,0.298-0.448,0.444-0.673c0.234-0.359,0.462-0.721,0.675-1.089c0.14-0.242,0.272-0.486,0.403-0.732  c0.196-0.367,0.381-0.739,0.557-1.114c0.117-0.25,0.232-0.5,0.34-0.753c0.166-0.388,0.316-0.782,0.461-1.177  c0.09-0.245,0.184-0.49,0.265-0.738c0.143-0.435,0.266-0.875,0.384-1.317c0.057-0.213,0.123-0.423,0.174-0.637  c0.157-0.656,0.29-1.317,0.392-1.982c0-0.001,0-0.002,0.001-0.003v-0.001c0.096-0.631,0.158-1.266,0.204-1.903  c0.01-0.136,0.02-0.271,0.028-0.407c0.034-0.622,0.048-1.245,0.035-1.868c-0.002-0.103-0.009-0.207-0.013-0.31  c-0.02-0.573-0.06-1.145-0.12-1.715c-0.011-0.103-0.018-0.207-0.03-0.31c-0.074-0.621-0.174-1.239-0.296-1.854  c-0.026-0.133-0.056-0.266-0.085-0.399c-0.424-1.966-1.097-3.893-2.022-5.734c-0.088-0.176-0.184-0.349-0.276-0.523  c-0.232-0.435-0.479-0.865-0.74-1.289c-0.104-0.17-0.206-0.34-0.315-0.508c-0.369-0.567-0.755-1.127-1.176-1.67l-20.782-26.777  c-20.653,6.502-43.061,4.75-62.423-5.068c-27.219-13.803-66.607-28.799-86.36-12.761l-4.643,4.913l63.462,55.041  C400.562,486.739,438.9,496.218,474.728,486.785z"/>
<path style="fill:#654D34;" d="M456.692,489.926c3.018-0.268,6.034-0.66,9.04-1.181c0.007-0.001,0.013-0.002,0.019-0.004  c1.41-0.245,2.818-0.523,4.223-0.825c0.193-0.042,0.385-0.084,0.578-0.127c1.395-0.308,2.787-0.638,4.175-1.003  c0.014-0.017,0.029-0.034,0.043-0.051l7.204-8.78l0,0l0,0c0.508-0.508,0.985-1.037,1.439-1.579l0,0  c0.15-0.179,0.284-0.366,0.428-0.548c0.293-0.371,0.582-0.744,0.851-1.128c0.155-0.221,0.298-0.449,0.445-0.674  c0.234-0.359,0.461-0.72,0.674-1.088c0.059-0.103,0.114-0.207,0.171-0.311c0.077-0.14,0.157-0.28,0.232-0.421  c0.196-0.367,0.381-0.739,0.557-1.114c0.117-0.25,0.232-0.501,0.34-0.754c0.166-0.388,0.316-0.782,0.461-1.177  c0.042-0.116,0.083-0.233,0.125-0.349c0.047-0.129,0.097-0.258,0.14-0.389c0.039-0.117,0.067-0.236,0.103-0.354  c0.098-0.32,0.194-0.64,0.281-0.963c0.057-0.213,0.123-0.423,0.174-0.637c0.306-1.28,0.502-2.581,0.597-3.89  c0.005-0.069,0.009-0.139,0.014-0.208l0,0c0.005-0.065,0.01-0.131,0.013-0.196c0.035-0.622,0.048-1.246,0.035-1.87  c-0.002-0.103-0.01-0.206-0.013-0.309c-0.02-0.573-0.06-1.146-0.12-1.717c-0.011-0.103-0.018-0.206-0.03-0.309  c-0.074-0.621-0.175-1.239-0.297-1.855c-0.026-0.133-0.056-0.266-0.085-0.399c-0.424-1.967-1.097-3.893-2.022-5.734  c-0.088-0.175-0.183-0.348-0.276-0.522c-0.232-0.435-0.479-0.865-0.74-1.29c-0.104-0.169-0.206-0.34-0.315-0.508  c-0.369-0.567-0.755-1.127-1.176-1.67l-14.618-18.835l-6.164-7.942c-13.044,4.107-26.788,4.912-40.023,2.48l18.857,24.297  c7.479,9.637,6.619,23.333-2.006,31.959c-2.777,3.128-11.99,3.068-11.992,3.068l0,0c-7.452,0.614-13.467,1.546-18.247,2.73  c14.922,5.464,30.947,7.609,46.92,6.19L456.692,489.926z"/>
<path style="fill:#3D3D42;" d="M474.771,486.734l7.204-8.78l0,0l0,0c-37.318,11.895-78.15,2.759-106.84-23.905l-105.858-91.811  c-7.423-6.438-14.181-13.603-20.174-21.389L168.74,236.447c-4.56-5.924-9.498-11.546-14.784-16.832L71.239,136.9  c-9.69-9.677-6.698-28.642,1.785-40.773l-16.158,14.97l-19.773,14.289c-17.054,12.323-19.026,36.983-4.149,51.861l108.889,108.889  c5.408,5.408,14.175,5.408,19.583,0c2.241-2.241,5.874-2.241,8.115,0l34.341,34.341c0.466,0.466,0.849,1.009,1.13,1.605  l15.527,32.85c6.208,13.134,15.03,24.863,25.925,34.472l110.02,97.022c16.306,14.38,36.748,23.225,58.393,25.267l0,0  C437.745,513.852,460.197,504.497,474.771,486.734z"/>
<g>
</g>
<g>
</g>
<g>
</g>
<g>
</g>
<g>
</g>
<g>
</g>
<g>
</g>
<g>
</g>
<g>
</g>
<g>
</g>
<g>
</g>
<g>
</g>
<g>
</g>
<g>
</g>
<g>
</g>
</svg>
