<svg height="394pt" viewBox="-3 0 394 394.83571" width="394pt" xmlns="http://www.w3.org/2000/svg"><path d="m360.34375 62.414062c-32.863281-52.917968-73.980469-67.308593-113.65625-46.324218-12.203125 6.445312-21.054688 16.371094-21.917969 31.496094-.167969 2.925781-.402343 5.871093-.710937 8.828124-2.0625 19.960938-7.488282 38.984376-15.53125 56.605469 4.816406 2.226563 9.261718 5.234375 13.140625 9.117188 21.25 21.25 17.414062 59.527343-8.558594 85.5-25.972656 25.976562-64.253906 29.808593-85.511719 8.558593-3.691406-3.691406-6.578125-7.925781-8.765625-12.496093-16.921875 7.957031-35.160156 13.511719-54.371093 15.925781-1.402344.179688-2.808594.34375-4.203126.488281-45.9375 4.746094-69.210937 58.441407-40.273437 94.421875l.839844 1.027344c95.019531 117.183594 221.214843 76.074219 306.515625-9.242188 57.457031-57.449218 71.222656-182.371093 33.003906-243.90625" fill="#ffb8f2"/><path d="m360.34375 62.414062 5.796875-3.601562c-11.992187-19.308594-25.207031-33.933594-39.425781-43.832031-14.207032-9.902344-29.527344-14.996094-45.050782-14.980469-12.847656-.0078125-25.726562 3.460938-38.171874 10.054688-6.765626 3.578124-12.886719 8.261718-17.492188 14.464843-4.617188 6.171875-7.566406 13.867188-8.046875 22.683594-.15625 2.8125-.386719 5.652344-.683594 8.507813-1.984375 19.1875-7.199219 37.488281-14.957031 54.46875-1.558594 3.414062-.054688 7.464843 3.351562 9.042968 4.144532 1.90625 7.898438 4.457032 11.171876 7.738282 7.820312 7.828124 11.714843 18.378906 11.738281 30.125.023437 15.238281-6.804688 32.25-20.292969 45.726562-13.460938 13.484375-30.46875 20.304688-45.714844 20.289062-11.75-.023437-22.300781-3.929687-30.136718-11.738281-3.097657-3.101562-5.546876-6.671875-7.441407-10.625-1.628906-3.378906-5.660156-4.816406-9.058593-3.226562-16.324219 7.675781-33.863282 13.019531-52.3125 15.335937-1.367188.175782-2.714844.328125-4.050782.46875-17.773437 1.820313-32.683594 10.347656-42.980468 22.292969-10.3125 11.964844-16.160157 27.335937-16.167969 43.167969-.015625 13.769531 4.5 27.914062 14.253906 40.03125l.027344.039062.832031 1.023438-.007812-.015625c21.410156 26.410156 44.578124 45.195312 68.679687 57.355469 24.105469 12.160156 49.117187 17.640624 73.976563 17.625 31.667968 0 63.042968-8.820313 92.523437-23.652344 29.488281-14.851563 57.128906-35.703125 81.46875-60.042969 18.804687-18.8125 32.832031-44.050781 42.273437-71.726563 9.417969-27.699218 14.226563-57.882812 14.234376-86.832031-.027344-35.347656-7.105469-68.871093-22.535157-93.773437l-5.800781 3.605468-5.792969 3.597657c13.542969 21.726562 20.503907 53.074219 20.472657 86.574219.007812 27.421874-4.601563 56.269531-13.507813 82.429687-8.90625 26.167969-22.125 49.621094-39 66.480469-23.4375 23.4375-49.992187 43.429687-77.953125 57.488281-27.960938 14.074219-57.277344 22.210937-86.386719 22.210937-22.863281-.007812-45.632812-4.988281-67.820312-16.167968-22.191407-11.195313-43.84375-28.625-64.230469-53.765625l-.011719-.015625-.828125-1.023438.023438.039063c-7.789063-9.710938-11.226563-20.636719-11.242188-31.484375-.003906-12.441406 4.648438-24.753906 12.847656-34.234375 8.210938-9.488281 19.808594-16.160157 34.042969-17.644531 1.457031-.152344 2.910157-.316407 4.351563-.503907 19.972656-2.507812 38.910156-8.285156 56.425781-16.523437l-2.898437-6.175782-6.160157 2.953126c2.488281 5.191406 5.816407 10.085937 10.101563 14.367187 10.652344 10.652344 25.003906 15.753906 39.789062 15.726563 19.25-.015626 39.476563-8.402344 55.371094-24.28125 15.878906-15.902344 24.265625-36.132813 24.292969-55.378907.023437-14.777343-5.074219-29.136719-15.734375-39.78125-4.46875-4.472656-9.613282-7.949219-15.105469-10.484375l-2.863281 6.199219 6.207031 2.828125c8.339844-18.25 13.96875-37.996094 16.113281-58.734375.316406-3.046875.566406-6.105469.738282-9.136719.378906-6.324218 2.292968-11.152344 5.367187-15.324218 3.085937-4.160157 7.484375-7.65625 12.925781-10.539063 10.785156-5.699219 21.390625-8.460937 31.785156-8.46875 12.542969.023437 24.941407 4.003906 37.253907 12.542969 12.28125 8.535156 24.375 21.699218 35.625 39.824218z" fill="#54596e"/><path d="m372.542969 188.09375c-8.898438 32.8125-24.101563 63-45.199219 84.097656-47.78125 47.78125-108.390625 81.699219-169.164062 81.699219-47.726563 0-95.554688-20.917969-137.351563-72.460937l-.839844-1.023438c-2.125-2.648438-3.945312-5.398438-5.492187-8.214844-.285156 2.183594-.429688 4.378906-.429688 6.585938.015625 10.847656 3.453125 21.769531 11.242188 31.484375l-.023438-.039063.828125 1.023438.011719.015625c20.386719 25.136719 42.039062 42.570312 64.230469 53.761719 22.1875 11.183593 44.957031 16.164062 67.820312 16.167968 29.109375 0 58.425781-8.136718 86.386719-22.210937 27.960938-14.054688 54.515625-34.046875 77.953125-57.484375 16.875-16.863282 30.09375-40.316406 39-66.480469 5.113281-15.015625 8.808594-30.914063 11.027344-46.921875" fill="#dda5d8"/><g fill="#54596e"><path d="m381.261719 135.703125c-1.167969 17.570313-4.089844 35.332031-8.71875 52.390625-2.21875 16.007812-5.914063 31.90625-11.027344 46.921875-8.90625 26.164063-22.125 49.617187-39 66.480469-23.4375 23.433594-49.992187 43.429687-77.953125 57.484375-27.960938 14.074219-57.277344 22.210937-86.386719 22.210937-22.863281-.003906-45.632812-4.984375-67.820312-16.167968-22.191407-11.191407-43.84375-28.625-64.230469-53.761719l-.011719-.015625-.828125-1.023438.023438.039063c-7.789063-9.714844-11.226563-20.636719-11.242188-31.484375 0-2.207032.144532-4.402344.429688-6.585938-1.90625-3.480468-3.402344-7.0625-4.546875-10.699218-5.347657 17.242187-2.925781 36.910156 10.039062 53.042968l.835938 1.023438c41.792969 51.542968 89.632812 72.464844 137.355469 72.464844 60.78125 0 121.378906-33.914063 169.160156-81.707032 39.28125-39.265625 58.125-110.078125 53.921875-170.613281"/><path d="m213.109375 207.636719c25.976563-25.972657 29.808594-64.25 8.554687-85.507813-3.875-3.871094-8.320312-6.882812-13.136718-9.113281-18.164063 39.761719-50.121094 72.074219-89.695313 90.679687 2.191407 4.570313 5.082031 8.800782 8.773438 12.496094 21.253906 21.25 59.53125 17.421875 85.503906-8.554687zm0 0"/><path d="m213.109375 207.636719 4.828125 4.828125c15.878906-15.898438 24.269531-36.125 24.289062-55.378906.019532-14.785157-5.074218-29.148438-15.738281-39.785157-4.464843-4.46875-9.605469-7.941406-15.101562-10.484375l-6.222657-2.875-2.847656 6.238282c-17.480468 38.277343-48.289062 69.421874-86.390625 87.332031l-6.226562 2.925781 2.976562 6.210938c2.492188 5.1875 5.820313 10.085937 10.101563 14.367187 10.648437 10.660156 25.007812 15.753906 39.785156 15.726563 19.253906-.015626 39.472656-8.414063 55.375-24.277344l-4.828125-4.828125-4.824219-4.828125c-13.46875 13.480468-30.480468 20.300781-45.722656 20.285156-11.75-.023438-22.300781-3.917969-30.132812-11.730469-3.101563-3.105469-5.546876-6.675781-7.445313-10.625l-6.15625 2.957031 2.90625 6.175782c41.046875-19.304688 74.15625-52.777344 93-94.019532l-6.210937-2.835937-2.863282 6.199219c4.144532 1.914062 7.898438 4.464844 11.175782 7.742187 7.8125 7.824219 11.714843 18.375 11.734374 30.125.019532 15.25-6.804687 32.257813-20.289062 45.726563zm0 0"/><path d="m276.277344 81.171875c0 7.542969-6.113282 13.652344-13.652344 13.652344s-13.652344-6.109375-13.652344-13.652344c0-7.539063 6.113282-13.652344 13.652344-13.652344s13.652344 6.113281 13.652344 13.652344zm0 0"/><path d="m296.757812 74.347656v-6.828125c0-.003906-7.640624-.003906-17.066406 0-9.425781-.003906-17.050781-.003906-17.066406 0-1.796875 0-3.558594.726563-4.828125 1.996094-1.269531 1.273437-2 3.03125-2 4.832031 0 1.820313.710937 3.535156 2 4.824219 1.292969 1.289063 3.003906 1.996094 4.828125 1.996094h17.066406 17.066406c1.824219 0 3.535157-.707031 4.828126-1.996094 1.289062-1.289063 2-3.003906 2-4.824219 0-1.800781-.730469-3.558594-2-4.832031-1.269532-1.269531-3.027344-1.996094-4.824219-1.996094v6.828125-6.828125c0-.003906-7.640625-.003906-17.066407 0-9.429687-.003906-17.050781-.003906-17.070312 0-1.796875 0-3.554688.726563-4.828125 1.996094-1.269531 1.273437-1.996094 3.03125-1.996094 4.832031 0 1.820313.710938 3.535156 2 4.824219 1.289063 1.289063 3.003907 1.996094 4.824219 1.996094h17.070312 17.066407c1.820312 0 3.535156-.707031 4.824219-1.996094 1.289062-1.289063 2-3.003906 2-4.824219 0-1.800781-.726563-3.558594-1.996094-4.832031-1.273438-1.269531-3.03125-1.996094-4.828125-1.996094v6.828125zm0 0"/></g><path d="m139.746094 135.785156-37.546875-37.546875" fill="#ffb8f2"/><path d="m144.570312 130.957031-37.546874-37.546875c-2.664063-2.664062-6.988282-2.664062-9.652344 0-2.667969 2.664063-2.667969 6.988282 0 9.65625l37.546875 37.546875c2.664062 2.664063 6.988281 2.664063 9.652343 0 2.667969-2.667969 2.667969-6.992187 0-9.65625" fill="#54596e"/><path d="m167.050781 115.304688v-27.304688c0-3.773438-3.054687-6.828125-6.824219-6.828125-3.773437 0-6.828124 3.054687-6.828124 6.828125v27.304688c0 3.769531 3.054687 6.828124 6.828124 6.828124 3.769532 0 6.824219-3.058593 6.824219-6.828124" fill="#54596e"/><path d="m91.957031 163.09375h27.308594c3.769531 0 6.824219-3.058594 6.824219-6.828125 0-3.773437-3.054688-6.828125-6.824219-6.828125h-27.308594c-3.769531 0-6.824219 3.054688-6.824219 6.828125 0 3.769531 3.054688 6.828125 6.824219 6.828125" fill="#54596e"/></svg>