<svg height="395pt" viewBox="-23 0 395 395.94327" width="395pt" xmlns="http://www.w3.org/2000/svg"><path d="m246.230469 81.921875c0 22.621094-18.335938 40.957031-40.957031 40.957031-22.625 0-40.960938-18.335937-40.960938-40.957031 0-22.625 18.335938-40.960937 40.960938-40.960937 22.621093 0 40.957031 18.335937 40.957031 40.960937zm0 0" fill="#ffd578"/><path d="m246.230469 81.921875h6.828125c-.003906-26.398437-21.394532-47.785156-47.785156-47.789063-26.394532.003907-47.785157 21.390626-47.789063 47.789063.003906 26.390625 21.394531 47.777344 47.789063 47.78125 26.390624-.003906 47.78125-21.390625 47.785156-47.78125h-13.652344c-.003906 9.441406-3.8125 17.933594-10 24.132813-6.199219 6.1875-14.6875 9.992187-24.132812 10-9.449219-.007813-17.9375-3.8125-24.136719-10-6.1875-6.199219-9.996094-14.691407-10-24.132813.003906-9.449219 3.8125-17.9375 10-24.140625 6.199219-6.183594 14.6875-9.992188 24.136719-9.996094 9.445312.003906 17.933593 3.8125 24.132812 9.996094 6.1875 6.203125 9.996094 14.691406 10 24.140625zm0 0" fill="#54596e"/><path d="m147.246094 6.828125c-17.554688 0-33.035156 8.839844-42.253906 22.304687-8.5-5.453124-18.582032-8.652343-29.425782-8.652343-30.160156 0-54.613281 24.453125-54.613281 54.613281s24.453125 54.613281 54.613281 54.613281c20.011719 0 37.453125-10.792969 46.964844-26.847656 7.328125 4.046875 15.75 6.367187 24.714844 6.367187 28.277344 0 51.199218-22.925781 51.199218-51.199218 0-28.277344-22.921874-51.199219-51.199218-51.199219zm0 0" fill="#ffd578"/><path d="m147.246094 6.828125v-6.828125c-19.882813-.00390625-37.460938 10.03125-47.886719 25.277344l5.632813 3.855468 3.683593-5.746093c-9.535156-6.121094-20.914062-9.734375-33.109375-9.730469-33.933594.003906-61.4375 27.5-61.441406 61.4375.003906 33.933594 27.507812 61.433594 61.441406 61.4375 22.511719 0 42.167969-12.15625 52.835938-30.1875l-5.871094-3.480469-3.300781 5.972657c8.292969 4.585937 17.863281 7.21875 28.015625 7.21875 32.050781-.003907 58.019531-25.980469 58.027344-58.023438-.003907-32.050781-25.976563-58.0234375-58.027344-58.02734375v13.64453175c12.273437.007812 23.324218 4.957031 31.375 12.996093 8.042968 8.054688 12.992187 19.105469 12.996094 31.382813-.003907 12.273437-4.953126 23.324218-12.996094 31.375-8.050782 8.042968-19.101563 12.992187-31.375 12.996094-7.785156 0-15.054688-2.003907-21.414063-5.515626-3.230469-1.78125-7.292969-.679687-9.175781 2.496094-8.355469 14.070313-23.582031 23.5-41.089844 23.5-13.21875-.003906-25.121094-5.339844-33.792968-14-8.65625-8.667968-13.992188-20.574218-13.996094-33.785156.003906-13.21875 5.335937-25.121094 13.996094-33.789062 8.671874-8.660157 20.574218-13.996094 33.792968-14 9.496094.003906 18.273438 2.789062 25.738282 7.574218 3.101562 1.988282 7.238281 1.148438 9.320312-1.890625 8.015625-11.6875 21.398438-19.332031 36.621094-19.335937zm0 0" fill="#54596e"/><path d="m224.839844 389.121094h-196.148438c-11.8125 0-21.394531-11.652344-21.394531-26.019532v-281.179687h238.933594v281.179687c0 14.367188-9.578125 26.019532-21.390625 26.019532zm0 0" fill="#fff35f"/><path d="m224.839844 389.121094v-6.828125h-196.148438c-3.597656-.011719-7.015625-1.722657-9.855468-5.132813-2.796876-3.386718-4.71875-8.398437-4.710938-14.058594v-274.363281h225.277344v274.363281c.007812 5.660157-1.914063 10.671876-4.714844 14.058594-2.839844 3.410156-6.253906 5.121094-9.851562 5.132813v13.648437c8.21875.011719 15.496093-4.101562 20.402343-10.109375 4.941407-6.027343 7.808594-14.03125 7.816407-22.730469v-281.179687c0-1.800781-.726563-3.558594-1.996094-4.832031-1.273438-1.269532-3.03125-1.996094-4.828125-1.996094h-238.933594c-1.796875 0-3.554687.726562-4.828125 1.996094-1.269531 1.273437-1.996094 3.03125-1.996094 4.832031v281.179687c.007813 8.703126 2.875 16.703126 7.820313 22.730469 4.902343 6.007813 12.183593 10.121094 20.398437 10.109375h196.148438zm0 0" fill="#54596e"/><path d="m89.21875 163.839844c0 11.3125-9.167969 20.480468-20.480469 20.480468s-20.480469-9.167968-20.480469-20.480468 9.167969-20.480469 20.480469-20.480469 20.480469 9.167969 20.480469 20.480469zm0 0" fill="#ffd578"/><path d="m89.21875 163.839844h6.828125c-.003906-15.082032-12.222656-27.304688-27.308594-27.304688-15.085937 0-27.304687 12.222656-27.308593 27.304688.003906 15.082031 12.222656 27.300781 27.308593 27.304687 15.085938-.003906 27.304688-12.222656 27.308594-27.304687h-13.65625c-.011719 7.535156-6.113281 13.636718-13.652344 13.652344-7.539062-.015626-13.640625-6.117188-13.652343-13.652344.011718-7.539063 6.113281-13.640625 13.652343-13.65625 7.539063.015625 13.640625 6.117187 13.652344 13.65625zm0 0" fill="#54596e"/><path d="m102.871094 279.894531c0 26.390625 21.394531 40.957031 47.789062 40.957031 40.957032 0 54.613282-35.042968 54.613282-61.4375zm0 0" fill="#54596e"/><path d="m89.21875 341.332031c0-15.078125-12.226562-27.304687-27.308594-27.304687-15.078125 0-27.304687 12.226562-27.304687 27.304687 0 15.082031 12.226562 27.308594 27.304687 27.308594" fill="#ffd578"/><path d="m96.046875 341.332031c-.007813-18.855469-15.28125-34.128906-34.136719-34.132812-18.851562.003906-34.125 15.277343-34.132812 34.132812.007812 18.855469 15.28125 34.128907 34.132812 34.132813 3.769532 0 6.824219-3.058594 6.824219-6.824219 0-3.769531-3.054687-6.824219-6.824219-6.824219-11.304687-.027344-20.457031-9.179687-20.480468-20.484375.023437-11.304687 9.175781-20.457031 20.480468-20.480469 11.308594.023438 20.460938 9.175782 20.480469 20.480469 0 3.769531 3.058594 6.828125 6.828125 6.828125s6.828125-3.058594 6.828125-6.828125zm0 0" fill="#54596e"/><path d="m82.390625 88.746094c0-11.308594-9.164063-20.480469-20.480469-20.480469-11.3125 0-20.480468 9.171875-20.480468 20.480469" fill="#fff35f"/><path d="m89.21875 88.746094c-.003906-15.082032-12.21875-27.300782-27.308594-27.304688-15.085937.003906-27.300781 12.222656-27.304687 27.304688 0 3.769531 3.054687 6.828125 6.824219 6.828125 3.773437 0 6.828124-3.058594 6.828124-6.828125.015626-7.539063 6.113282-13.640625 13.652344-13.65625 7.542969.015625 13.640625 6.117187 13.65625 13.65625 0 3.769531 3.054688 6.828125 6.824219 6.828125s6.828125-3.058594 6.828125-6.828125zm0 0" fill="#54596e"/><path d="m164.3125 95.574219c0-22.621094-18.339844-40.960938-40.960938-40.960938-22.621093 0-40.960937 18.339844-40.960937 40.960938" fill="#fff35f"/><path d="m171.136719 95.574219c-.003907-26.398438-21.390625-47.785157-47.785157-47.789063-26.394531.003906-47.78125 21.390625-47.785156 47.789063 0 3.769531 3.054688 6.824219 6.824219 6.824219s6.828125-3.054688 6.828125-6.824219c.003906-9.449219 3.808594-17.9375 9.996094-24.136719 6.199218-6.1875 14.691406-9.992188 24.136718-10 9.445313.007812 17.9375 3.8125 24.136719 10 6.1875 6.199219 9.992188 14.6875 9.996094 24.136719 0 3.769531 3.058594 6.824219 6.828125 6.824219s6.824219-3.054688 6.824219-6.824219zm0 0" fill="#54596e"/><path d="m198.445312 61.441406v112.636719c0 9.429687-7.640624 17.070313-17.066406 17.070313-9.425781 0-17.066406-7.640626-17.066406-17.070313v-112.636719" fill="#ffd578"/><path d="m191.617188 61.441406v112.636719c-.007813 5.65625-4.585938 10.226563-10.238282 10.242187-5.65625-.015624-10.230468-4.585937-10.242187-10.242187v-112.636719c0-3.773437-3.054688-6.828125-6.824219-6.828125s-6.828125 3.054688-6.828125 6.828125v112.636719c.003906 13.199219 10.695313 23.886719 23.894531 23.890625 13.199219-.003906 23.890625-10.691406 23.894532-23.890625v-112.636719c0-3.773437-3.058594-6.828125-6.828126-6.828125-3.769531 0-6.828124 3.054688-6.828124 6.828125zm0 0" fill="#54596e"/><path d="m328.152344 286.71875h-81.921875v-27.304688h68.269531v-109.226562h-68.269531v-27.308594h81.921875c7.539062 0 13.652344 6.113282 13.652344 13.65625v136.53125c0 7.539063-6.113282 13.652344-13.652344 13.652344zm0 0" fill="#fff35f"/><g fill="#54596e"><path d="m328.152344 286.71875v-6.824219h-75.09375v-13.660156l61.441406.003906c1.820312 0 3.535156-.707031 4.824219-2 1.289062-1.289062 2-3.003906 2-4.824219v-109.226562c0-1.800781-.726563-3.558594-2-4.832031-1.269531-1.269531-3.027344-1.996094-4.824219-1.996094h-61.441406v-13.660156l75.09375.003906c3.765625.011719 6.820312 3.0625 6.824218 6.832031v136.53125c-.003906 3.761719-3.058593 6.816406-6.824218 6.828125v13.648438c11.3125-.003907 20.472656-9.164063 20.480468-20.476563v-136.53125c-.007812-11.320312-9.167968-20.476562-20.480468-20.480468h-81.921875c-1.796875 0-3.554688.726562-4.828125 1.996093-1.269532 1.273438-1.996094 3.027344-1.996094 4.828125v27.308594c0 1.820312.707031 3.535156 2 4.824219 1.289062 1.292969 3.003906 2 4.824219 2h61.441406v95.570312l-61.441406.003907c-1.796875 0-3.554688.726562-4.828125 1.996093-1.269532 1.273438-1.996094 3.03125-1.996094 4.832031v27.304688c0 1.824219.707031 3.539062 2 4.828125 1.289062 1.289063 3.003906 1.996094 4.824219 1.996094h81.921875zm0 0"/><path d="m75.566406 218.453125c0 7.539063-6.113281 13.652344-13.65625 13.652344-7.539062 0-13.652344-6.113281-13.652344-13.652344s6.113282-13.652344 13.652344-13.652344c7.542969 0 13.65625 6.113281 13.65625 13.652344zm0 0"/><path d="m205.273438 218.453125c0 7.539063-6.113282 13.652344-13.65625 13.652344-7.539063 0-13.652344-6.113281-13.652344-13.652344s6.113281-13.652344 13.652344-13.652344c7.542968 0 13.65625 6.113281 13.65625 13.652344zm0 0"/></g><path d="m171.136719 279.894531c-4.097657 0-7.738281 1.84375-10.238281 4.707031-2.5-2.863281-6.140626-4.707031-10.238282-4.707031-7.542968 0-13.65625 6.113281-13.65625 13.652344s6.113282 13.652344 13.65625 13.652344c4.097656 0 7.738282-1.847657 10.238282-4.710938 2.5 2.863281 6.140624 4.710938 10.238281 4.710938 7.542969 0 13.65625-6.113281 13.65625-13.652344s-6.113281-13.652344-13.65625-13.652344zm0 0" fill="#ff927d"/></svg>