<svg height="361pt" viewBox="-6 0 361 361.80992" width="361pt" xmlns="http://www.w3.org/2000/svg"><path d="m311.019531 6.828125c-11.980469 0-22.242187 6.917969-27.308593 16.917969-5.066407-10-15.328126-16.917969-27.304688-16.917969-11.980469 0-22.242188 6.917969-27.308594 16.917969-5.066406-10-15.328125-16.917969-27.304687-16.917969-11.980469 0-22.242188 6.917969-27.308594 16.917969-5.066406-10-15.328125-16.917969-27.304687-16.917969-11.980469 0-22.242188 6.917969-27.308594 16.917969-5.066406-10-15.328125-16.917969-27.304688-16.917969-11.980468 0-22.242187 6.917969-27.308594 16.917969-5.066406-10-15.328124-16.917969-27.304687-16.917969-16.96875 0-30.722656 13.753906-30.722656 30.71875v286.71875c0 16.96875 13.753906 30.722656 30.722656 30.722656 11.976563 0 22.238281-6.921875 27.304687-16.921875 5.066407 10 15.328126 16.921875 27.308594 16.921875 11.976563 0 22.238282-6.921875 27.304688-16.921875 5.066406 10 15.328125 16.921875 27.308594 16.921875 11.976562 0 22.238281-6.921875 27.304687-16.921875 5.066406 10 15.328125 16.921875 27.308594 16.921875 11.976562 0 22.238281-6.921875 27.304687-16.921875 5.066406 10 15.328125 16.921875 27.308594 16.921875 11.976562 0 22.238281-6.921875 27.304688-16.921875 5.066406 10 15.328124 16.921875 27.308593 16.921875 16.964844 0 30.71875-13.753906 30.71875-30.722656v-286.71875c0-16.964844-13.753906-30.71875-30.71875-30.71875zm0 0" fill="#fff35f"/><path d="m311.019531 6.828125v-6.828125c-14.671875 0-27.253906 8.496094-33.398437 20.660156l6.089844 3.085938 6.089843-3.085938c-6.140625-12.164062-18.726562-20.660156-33.394531-20.660156-14.671875 0-27.253906 8.496094-33.398438 20.660156l6.089844 3.085938 6.089844-3.085938c-6.140625-12.164062-18.726562-20.660156-33.394531-20.660156-14.671875 0-27.253907 8.496094-33.398438 20.660156l6.089844 3.085938 6.089844-3.085938c-6.140625-12.164062-18.726563-20.660156-33.394531-20.660156-14.671876 0-27.253907 8.496094-33.398438 20.660156l6.089844 3.085938 6.089844-3.085938c-6.140626-12.164062-18.726563-20.660156-33.394532-20.660156-14.671875 0-27.253906 8.496094-33.398437 20.660156l6.089843 3.085938 6.089844-3.085938c-6.140625-12.164062-18.726562-20.660156-33.394531-20.660156-20.742187.00390625-37.542969 16.808594-37.546875 37.546875v286.71875c.003906 20.738281 16.804688 37.539063 37.546875 37.542969 14.667969 0 27.253906-8.496094 33.394531-20.65625l-6.089844-3.085938-6.089843 3.085938c6.144531 12.160156 18.726562 20.65625 33.398437 20.65625 14.667969 0 27.253906-8.496094 33.394532-20.65625l-6.089844-3.085938-6.089844 3.085938c6.144531 12.160156 18.726562 20.65625 33.398438 20.65625 14.667968 0 27.253906-8.496094 33.394531-20.65625l-6.089844-3.085938-6.089844 3.085938c6.144531 12.160156 18.726563 20.65625 33.398438 20.65625 14.667969 0 27.253906-8.496094 33.394531-20.65625l-6.089844-3.085938-6.089844 3.085938c6.144532 12.160156 18.726563 20.65625 33.398438 20.65625 14.667969 0 27.253906-8.496094 33.394531-20.65625l-6.089843-3.085938-6.089844 3.085938c6.144531 12.160156 18.726562 20.65625 33.398437 20.65625 20.738281-.003906 37.539063-16.804688 37.546875-37.542969v-286.71875c-.003906-20.738281-16.808594-37.54296875-37.546875-37.546875v13.648438c13.191407.027343 23.867188 10.703124 23.890625 23.898437v286.71875c-.023437 13.195313-10.699218 23.867187-23.890625 23.894531-9.285156 0-17.226562-5.34375-21.21875-13.179687-1.160156-2.292969-3.519531-3.742188-6.089843-3.742188-2.570313 0-4.929688 1.449219-6.089844 3.742188-3.992188 7.835937-11.933594 13.179687-21.214844 13.179687-9.285156 0-17.226562-5.34375-21.21875-13.179687-1.160156-2.292969-3.519531-3.742188-6.089844-3.742188-2.570312 0-4.929687 1.449219-6.089844 3.742188-3.992187 7.835937-11.933593 13.179687-21.214843 13.179687-9.285157 0-17.226563-5.34375-21.21875-13.179687-1.164063-2.292969-3.519531-3.742188-6.089844-3.742188s-4.929687 1.449219-6.089844 3.742188c-3.992187 7.835937-11.933593 13.179687-21.214843 13.179687-9.285157 0-17.226563-5.34375-21.21875-13.179687-1.164063-2.292969-3.519532-3.742188-6.089844-3.742188-2.570313 0-4.929688 1.449219-6.089844 3.742188-3.992188 7.835937-11.933594 13.179687-21.214844 13.179687-9.285156 0-17.230468-5.34375-21.21875-13.179687-1.164062-2.292969-3.519531-3.742188-6.089844-3.742188-2.570312 0-4.929687 1.449219-6.089843 3.742188-3.992188 7.835937-11.933594 13.179687-21.214844 13.179687-13.195313-.027344-23.871094-10.699218-23.894531-23.894531v-286.71875c.023437-13.195313 10.699218-23.871094 23.894531-23.898437 9.28125 0 17.222656 5.34375 21.214844 13.183593 1.160156 2.289063 3.523437 3.738281 6.089843 3.738281 2.570313 0 4.929688-1.449218 6.089844-3.738281 3.992188-7.839843 11.933594-13.183593 21.21875-13.183593 9.28125 0 17.222656 5.34375 21.214844 13.183593 1.160156 2.289063 3.523438 3.738281 6.089844 3.738281 2.570312 0 4.929687-1.449218 6.089844-3.738281 3.992187-7.839843 11.933593-13.183593 21.21875-13.183593 9.28125 0 17.222656 5.34375 21.214843 13.183593 1.160157 2.289063 3.523438 3.738281 6.089844 3.738281 2.570313 0 4.929687-1.449218 6.089844-3.738281 3.992187-7.839843 11.933593-13.183593 21.21875-13.183593 9.28125 0 17.222656 5.34375 21.214843 13.183593 1.160157 2.289063 3.523438 3.738281 6.089844 3.738281 2.570313 0 4.929688-1.449218 6.089844-3.738281 3.992188-7.839843 11.933594-13.183593 21.21875-13.183593 9.28125 0 17.222656 5.34375 21.214844 13.183593 1.160156 2.289063 3.523437 3.738281 6.089844 3.738281 2.570312 0 4.929687-1.449218 6.089843-3.738281 3.992188-7.839843 11.933594-13.183593 21.21875-13.183593zm0 0" fill="#54596e"/><path d="m48.191406 71.679688c0 5.65625-4.585937 10.242187-10.238281 10.242187-5.65625 0-10.242187-4.585937-10.242187-10.242187s4.585937-10.238282 10.242187-10.238282c5.652344 0 10.238281 4.582032 10.238281 10.238282zm0 0" fill="#f4a14e"/><path d="m48.191406 126.292969c0 5.65625-4.585937 10.242187-10.238281 10.242187-5.65625 0-10.242187-4.585937-10.242187-10.242187s4.585937-10.238281 10.242187-10.238281c5.652344 0 10.238281 4.582031 10.238281 10.238281zm0 0" fill="#f4a14e"/><path d="m48.191406 180.90625c0 5.65625-4.585937 10.242188-10.238281 10.242188-5.65625 0-10.242187-4.585938-10.242187-10.242188s4.585937-10.238281 10.242187-10.238281c5.652344 0 10.238281 4.582031 10.238281 10.238281zm0 0" fill="#f4a14e"/><path d="m48.191406 235.519531c0 5.65625-4.585937 10.242188-10.238281 10.242188-5.65625 0-10.242187-4.585938-10.242187-10.242188s4.585937-10.238281 10.242187-10.238281c5.652344 0 10.238281 4.582031 10.238281 10.238281zm0 0" fill="#f4a14e"/><path d="m48.191406 290.132812c0 5.65625-4.585937 10.242188-10.238281 10.242188-5.65625 0-10.242187-4.585938-10.242187-10.242188s4.585937-10.238281 10.242187-10.238281c5.652344 0 10.238281 4.582031 10.238281 10.238281zm0 0" fill="#f4a14e"/><path d="m102.804688 71.679688c0 5.65625-4.585938 10.242187-10.238282 10.242187-5.65625 0-10.242187-4.585937-10.242187-10.242187s4.585937-10.238282 10.242187-10.238282c5.652344 0 10.238282 4.582032 10.238282 10.238282zm0 0" fill="#f4a14e"/><path d="m109.632812 126.292969h6.824219c-.003906-13.199219-10.691406-23.890625-23.890625-23.894531-13.199218.003906-23.890625 10.695312-23.894531 23.894531.003906 13.195312 10.695313 23.886719 23.894531 23.890625 13.199219-.003906 23.886719-10.695313 23.890625-23.890625h-13.652343c-.011719 5.652343-4.585938 10.226562-10.238282 10.242187-5.65625-.015625-10.230468-4.589844-10.242187-10.242187.011719-5.65625 4.585937-10.230469 10.242187-10.242188 5.652344.011719 10.226563 4.585938 10.238282 10.242188zm0 0" fill="#54596e"/><g fill="#f4a14e"><path d="m102.804688 180.90625c0 5.65625-4.585938 10.242188-10.238282 10.242188-5.65625 0-10.242187-4.585938-10.242187-10.242188s4.585937-10.238281 10.242187-10.238281c5.652344 0 10.238282 4.582031 10.238282 10.238281zm0 0"/><path d="m102.804688 235.519531c0 5.65625-4.585938 10.242188-10.238282 10.242188-5.65625 0-10.242187-4.585938-10.242187-10.242188s4.585937-10.238281 10.242187-10.238281c5.652344 0 10.238282 4.582031 10.238282 10.238281zm0 0"/><path d="m102.804688 290.132812c0 5.65625-4.585938 10.242188-10.238282 10.242188-5.65625 0-10.242187-4.585938-10.242187-10.242188s4.585937-10.238281 10.242187-10.238281c5.652344 0 10.238282 4.582031 10.238282 10.238281zm0 0"/><path d="m157.417969 71.679688c0 5.65625-4.585938 10.242187-10.238281 10.242187-5.65625 0-10.242188-4.585937-10.242188-10.242187s4.585938-10.238282 10.242188-10.238282c5.652343 0 10.238281 4.582032 10.238281 10.238282zm0 0"/><path d="m157.417969 126.292969c0 5.65625-4.585938 10.242187-10.238281 10.242187-5.65625 0-10.242188-4.585937-10.242188-10.242187s4.585938-10.238281 10.242188-10.238281c5.652343 0 10.238281 4.582031 10.238281 10.238281zm0 0"/><path d="m157.417969 180.90625c0 5.65625-4.585938 10.242188-10.238281 10.242188-5.65625 0-10.242188-4.585938-10.242188-10.242188s4.585938-10.238281 10.242188-10.238281c5.652343 0 10.238281 4.582031 10.238281 10.238281zm0 0"/><path d="m157.417969 290.132812c0 5.65625-4.585938 10.242188-10.238281 10.242188-5.65625 0-10.242188-4.585938-10.242188-10.242188s4.585938-10.238281 10.242188-10.238281c5.652343 0 10.238281 4.582031 10.238281 10.238281zm0 0"/><path d="m212.03125 71.679688c0 5.65625-4.585938 10.242187-10.238281 10.242187-5.65625 0-10.242188-4.585937-10.242188-10.242187s4.585938-10.238282 10.242188-10.238282c5.652343 0 10.238281 4.582032 10.238281 10.238282zm0 0"/><path d="m212.03125 126.292969c0 5.65625-4.585938 10.242187-10.238281 10.242187-5.65625 0-10.242188-4.585937-10.242188-10.242187s4.585938-10.238281 10.242188-10.238281c5.652343 0 10.238281 4.582031 10.238281 10.238281zm0 0"/><path d="m212.03125 180.90625c0 5.65625-4.585938 10.242188-10.238281 10.242188-5.65625 0-10.242188-4.585938-10.242188-10.242188s4.585938-10.238281 10.242188-10.238281c5.652343 0 10.238281 4.582031 10.238281 10.238281zm0 0"/><path d="m212.03125 290.132812c0 5.65625-4.585938 10.242188-10.238281 10.242188-5.65625 0-10.242188-4.585938-10.242188-10.242188s4.585938-10.238281 10.242188-10.238281c5.652343 0 10.238281 4.582031 10.238281 10.238281zm0 0"/><path d="m266.644531 71.679688c0 5.65625-4.585937 10.242187-10.238281 10.242187-5.65625 0-10.242188-4.585937-10.242188-10.242187s4.585938-10.238282 10.242188-10.238282c5.652344 0 10.238281 4.582032 10.238281 10.238282zm0 0"/></g><path d="m273.472656 126.292969h6.824219c-.003906-13.199219-10.691406-23.890625-23.890625-23.894531-13.199219.003906-23.890625 10.695312-23.894531 23.894531.003906 13.195312 10.695312 23.886719 23.894531 23.890625 13.199219-.003906 23.886719-10.695313 23.890625-23.890625h-13.652344c-.011719 5.652343-4.585937 10.226562-10.238281 10.242187-5.65625-.015625-10.230469-4.589844-10.242188-10.242187.011719-5.65625 4.585938-10.230469 10.242188-10.242188 5.652344.011719 10.226562 4.585938 10.238281 10.242188zm0 0" fill="#54596e"/><path d="m266.644531 180.90625c0 5.65625-4.585937 10.242188-10.238281 10.242188-5.65625 0-10.242188-4.585938-10.242188-10.242188s4.585938-10.238281 10.242188-10.238281c5.652344 0 10.238281 4.582031 10.238281 10.238281zm0 0" fill="#f4a14e"/><path d="m266.644531 235.519531c0 5.65625-4.585937 10.242188-10.238281 10.242188-5.65625 0-10.242188-4.585938-10.242188-10.242188s4.585938-10.238281 10.242188-10.238281c5.652344 0 10.238281 4.582031 10.238281 10.238281zm0 0" fill="#f4a14e"/><path d="m266.644531 290.132812c0 5.65625-4.585937 10.242188-10.238281 10.242188-5.65625 0-10.242188-4.585938-10.242188-10.242188s4.585938-10.238281 10.242188-10.238281c5.652344 0 10.238281 4.582031 10.238281 10.238281zm0 0" fill="#f4a14e"/><path d="m321.257812 71.679688c0 5.65625-4.585937 10.242187-10.238281 10.242187-5.65625 0-10.242187-4.585937-10.242187-10.242187s4.585937-10.238282 10.242187-10.238282c5.652344 0 10.238281 4.582032 10.238281 10.238282zm0 0" fill="#f4a14e"/><path d="m321.257812 126.292969c0 5.65625-4.585937 10.242187-10.238281 10.242187-5.65625 0-10.242187-4.585937-10.242187-10.242187s4.585937-10.238281 10.242187-10.238281c5.652344 0 10.238281 4.582031 10.238281 10.238281zm0 0" fill="#f4a14e"/><path d="m321.257812 180.90625c0 5.65625-4.585937 10.242188-10.238281 10.242188-5.65625 0-10.242187-4.585938-10.242187-10.242188s4.585937-10.238281 10.242187-10.238281c5.652344 0 10.238281 4.582031 10.238281 10.238281zm0 0" fill="#f4a14e"/><path d="m321.257812 235.519531c0 5.65625-4.585937 10.242188-10.238281 10.242188-5.65625 0-10.242187-4.585938-10.242187-10.242188s4.585937-10.238281 10.242187-10.238281c5.652344 0 10.238281 4.582031 10.238281 10.238281zm0 0" fill="#f4a14e"/><path d="m321.257812 290.132812c0 5.65625-4.585937 10.242188-10.238281 10.242188-5.65625 0-10.242187-4.585938-10.242187-10.242188s4.585937-10.238281 10.242187-10.238281c5.652344 0 10.238281 4.582031 10.238281 10.238281zm0 0" fill="#f4a14e"/><path d="m115.171875 239.578125c18.171875 3.476563 38.230469 5.398437 59.324219 5.398437 21.078125 0 41.121094-1.921874 59.285156-5.394531 3.703125-.707031 6.128906-4.285156 5.421875-7.984375-.710937-3.703125-4.285156-6.132812-7.988281-5.421875-17.25 3.296875-36.472656 5.152344-56.71875 5.152344-20.261719 0-39.496094-1.855469-56.753906-5.160156-3.703126-.710938-7.28125 1.714843-7.988282 5.417969-.710937 3.707031 1.71875 7.285156 5.421875 7.996093zm0 0" fill="#54596e"/><path d="m89.152344 266.238281c9.160156-.003906 17.566406-3.234375 23.800781-8.6875 6.230469-5.421875 10.339844-13.28125 10.332031-22.03125.007813-8.753906-4.101562-16.613281-10.332031-22.03125-6.238281-5.453125-14.644531-8.683593-23.800781-8.6875-3.769532 0-6.828125 3.050781-6.828125 6.824219s3.058593 6.828125 6.828125 6.828125c5.917968-.007813 11.164062 2.109375 14.8125 5.304687 3.65625 3.230469 5.660156 7.316407 5.667968 11.761719-.007812 4.445313-2.011718 8.53125-5.667968 11.757813-3.648438 3.195312-8.894532 5.3125-14.8125 5.308594-3.769532 0-6.828125 3.054687-6.828125 6.828124 0 3.769532 3.058593 6.824219 6.828125 6.824219zm0 0" fill="#54596e"/><path d="m259.816406 252.585938c-5.917968.003906-11.164062-2.113282-14.8125-5.308594-3.65625-3.226563-5.660156-7.3125-5.667968-11.757813.007812-4.445312 2.011718-8.53125 5.667968-11.761719 3.644532-3.195312 8.890625-5.3125 14.8125-5.308593 3.769532 0 6.824219-3.054688 6.824219-6.824219s-3.054687-6.820312-6.824219-6.820312c-9.15625 0-17.566406 3.230468-23.800781 8.683593-6.230469 5.417969-10.339844 13.277344-10.332031 22.03125-.007813 8.75 4.101562 16.609375 10.332031 22.03125 6.234375 5.453125 14.644531 8.683594 23.800781 8.6875 3.769532 0 6.824219-3.058593 6.824219-6.824219 0-3.769531-3.054687-6.824218-6.824219-6.824218zm0 0" fill="#54596e"/></svg>