<svg height="409pt" viewBox="0 -30 409.6 409" width="409pt" xmlns="http://www.w3.org/2000/svg"><path d="m402.769531 71.980469c0-35.820313-29.035156-64.855469-64.851562-64.855469h-266.238281c-35.820313 0-64.851563 29.035156-64.851563 64.855469 0 27.367187 16.976563 50.734375 40.957031 60.242187v209.40625h314.027344v-209.40625c23.980469-9.507812 40.957031-32.875 40.957031-60.242187" fill="#ffd578"/><path d="m402.769531 71.980469h6.828125c0-39.597657-32.085937-71.679688-71.679687-71.679688h-266.238281c-39.59375 0-71.679688 32.082031-71.679688 71.679688.0078125 30.25 18.765625 56.078125 45.269531 66.589843l2.515625-6.347656h-6.828125v209.40625c0 1.824219.714844 3.539063 2 4.828125 1.296875 1.285157 3.003907 2 4.828125 2h314.03125c1.824219 0 3.53125-.714843 4.824219-2 1.289063-1.289062 2.003906-3.003906 2.003906-4.828125v-209.40625h-6.828125l2.515625 6.347656c26.5-10.507812 45.257813-36.339843 45.269531-66.589843h-13.660156c.011719 24.484375-15.183594 45.371093-36.648437 53.902343-2.605469 1.027344-4.304688 3.539063-4.304688 6.339844v202.582032h-300.375v-202.582032c0-2.800781-1.707031-5.3125-4.304687-6.339844-21.46875-8.53125-36.660156-29.417968-36.652344-53.902343 0-16.054688 6.480469-30.515625 16.992188-41.035157 10.519531-10.507812 24.992187-16.992187 41.035156-17h266.234375c16.042969.007813 30.503906 6.492188 41.03125 17 10.511719 10.519532 16.992187 24.980469 16.992187 41.035157z" fill="#54596e"/><path d="m327.679688 41.257812h-245.761719c-18.851563 0-34.132813 13.859376-34.132813 30.960938 0 17.097656 15.28125 30.957031 34.132813 30.957031v204.324219h245.761719v-204.328125c18.847656 0 34.132812-13.859375 34.132812-30.957031s-15.285156-30.957032-34.132812-30.957032zm0 0" fill="#fff35f"/><path d="m164.683594 223.8125c8.980468 9.75 23.648437 15.359375 40.113281 15.414062 16.304687-.054687 30.839844-5.554687 39.847656-15.125 2.5625-2.765624 2.402344-7.082031-.359375-9.648437-2.761718-2.5625-7.082031-2.402344-9.644531.359375-5.433594 5.972656-16.703125 10.820312-29.839844 10.765625-13.269531.054687-24.632812-4.894531-30.011719-10.945313-2.535156-2.792968-6.855468-2.996093-9.644531-.460937-2.792969 2.535156-2.996093 6.851563-.460937 9.644531zm0 0" fill="#54596e"/><path d="m320.851562 205.097656c0 11.308594-9.167968 20.480469-20.480468 20.480469-11.308594 0-20.480469-9.171875-20.480469-20.480469 0-11.3125 9.171875-20.480468 20.480469-20.480468 11.3125 0 20.480468 9.167968 20.480468 20.480468zm0 0" fill="#ff927d"/><path d="m129.703125 205.097656c0 11.308594-9.167969 20.480469-20.476563 20.480469-11.3125 0-20.480468-9.171875-20.480468-20.480469 0-11.3125 9.167968-20.480468 20.480468-20.480468 11.308594 0 20.476563 9.167968 20.476563 20.480468zm0 0" fill="#ff927d"/><g fill="#54596e"><path d="m157.011719 150.484375c0 7.539063-6.113281 13.652344-13.652344 13.652344-7.542969 0-13.65625-6.113281-13.65625-13.652344 0-7.542969 6.113281-13.65625 13.65625-13.65625 7.539063 0 13.652344 6.113281 13.652344 13.65625zm0 0"/><path d="m279.890625 150.484375c0 7.539063-6.113281 13.652344-13.652344 13.652344-7.539062 0-13.652343-6.113281-13.652343-13.652344 0-7.542969 6.113281-13.65625 13.652343-13.65625 7.539063 0 13.652344 6.113281 13.652344 13.65625zm0 0"/><path d="m61.4375 123.175781h-13.652344c-3.769531 0-6.828125 3.054688-6.828125 6.828125 0 3.769532 3.058594 6.824219 6.828125 6.824219h13.652344c3.769531 0 6.828125-3.054687 6.828125-6.824219 0-3.773437-3.058594-6.828125-6.828125-6.828125"/></g><path d="m354.984375 307.492188h-300.371094v27.3125h300.371094z" fill="#eec877"/></svg>