<svg height="409pt" viewBox="0 0 409 409.28088" width="409pt" xmlns="http://www.w3.org/2000/svg"><path d="m315.648438 129.632812c-6.03125-6.019531-12.585938-11.714843-19.667969-17.027343-65.699219-49.289063-158.171875-47.488281-221.855469 4.371093-84.542969 68.855469-89.269531 193.539063-14.175781 268.632813l.433593.433594c22.660157 22.507812 59.601563 21.59375 82.1875-.992188l172.636719-172.632812c22.8125-22.8125 23.273438-60.003907.441407-82.785157zm0 0" fill="#ffd578"/><path d="m315.648438 129.632812 4.820312-4.835937c-6.257812-6.246094-13.054688-12.148437-20.394531-17.65625-33.078125-24.8125-72.667969-37.152344-112.183594-37.148437-41.996094-.003907-83.992187 13.925781-118.074219 41.691406-46.082031 37.511718-69.691406 91.195312-69.675781 144.953125-.011719 48.324219 18.042969 96.863281 54.980469 133.800781l.433594.433594.019531.015625c12.421875 12.34375 28.742187 18.40625 44.988281 18.394531 16.957031.003906 33.980469-6.5625 46.835938-19.402344l172.636718-172.632812c12.839844-12.84375 19.34375-29.796875 19.335938-46.683594.011718-16.546875-6.261719-33.167969-18.902344-45.769531v.003906l-4.820312 4.835937-4.820313 4.832032c9.964844 9.941406 14.882813 22.945312 14.890625 36.097656-.003906 13.40625-5.140625 26.828125-15.339844 37.023438l-172.636718 172.636718h.003906c-10.210938 10.199219-23.734375 15.40625-37.1875 15.410156-12.90625-.015624-25.613282-4.75-35.367188-14.433593l.015625.015625-.433593-.433594c-34.242188-34.253906-50.972657-79.175781-50.984376-124.144531.015626-49.796875 21.777344-99.449219 64.644532-134.363281 31.542968-25.699219 70.460937-38.628907 109.457031-38.632813 36.6875.003906 73.375 11.453125 103.992187 34.425781 6.828126 5.117188 13.136719 10.601563 18.945313 16.394532v.003906zm0 0" fill="#54596e"/><path d="m149.25 291.484375c-10.878906-10.882813-27.21875-12.726563-40.128906-5.84375-1.617188-4.910156-4.234375-9.5625-8.140625-13.464844 11.691406-11.695312 13.121093-29.753906 4.296875-43.011719l.53125-.433593c13.332031-13.332031 13.332031-34.945313 0-48.273438-13.332032-13.328125-34.945313-13.328125-48.273438 0-11.695312 11.695313-13.117187 29.753907-4.296875 43.015625l-.53125.433594c-13.332031 13.324219-13.332031 34.9375 0 48.269531-13.332031 13.328125-13.332031 34.941407 0 48.269531 10.878907 10.882813 27.21875 12.726563 40.132813 5.84375 1.613281 4.910157 4.234375 9.5625 8.140625 13.464844 13.328125 13.332032 34.941406 13.332032 48.269531 0 13.332031-13.328125 13.332031-34.941406 0-48.269531zm0 0" fill="#9af43b"/><path d="m149.25 291.484375 4.828125-4.824219c-7.929687-7.949218-18.375-11.914062-28.746094-11.902344-6.679687 0-13.367187 1.625-19.429687 4.859376l3.21875 6.023437 6.480468-2.136719c-1.894531-5.765625-5.046874-11.414062-9.800781-16.160156l-4.824219 4.832031 4.828126 4.824219c7.980468-7.980469 12-18.5 11.988281-28.957031 0-7.902344-2.273438-15.820313-6.839844-22.667969l-5.679687 3.789062 4.304687 5.296876.53125-.433594.523437-.472656c7.984376-7.984376 12.003907-18.507813 11.996094-28.964844.003906-10.464844-4.011718-20.988282-12-28.964844l.003906.007812c-7.980468-7.992187-18.503906-12.011718-28.964843-12-10.457031-.011718-20.984375 4.007813-28.964844 12l.007813-.003906c-7.984376 7.976563-12 18.488282-11.992188 28.941406-.003906 7.898438 2.277344 15.816407 6.832031 22.675782l5.6875-3.773438-4.320312-5.289062-.53125.433594-.503907.457031c-7.984374 7.980469-12.003906 18.5-11.996093 28.960937-.011719 10.457032 4.011719 20.976563 11.992187 28.964844l4.832032-4.824219-4.828126-4.828125c-7.984374 7.980469-12.003906 18.5-11.996093 28.957032-.011719 10.457031 4.011719 20.976562 11.992187 28.964843l.003906.003907c7.933594 7.941406 18.378907 11.902343 28.746094 11.886718 6.6875 0 13.363282-1.632812 19.410156-4.839844l-3.199218-6.03125-6.484375 2.136719c1.894531 5.765625 5.046875 11.414063 9.796875 16.160157 7.980468 7.980468 18.503906 12 28.964844 11.988281 10.460937.011719 20.980468-4.011719 28.960937-11.988281v-.003907c7.988281-7.980469 12.007813-18.503906 12-28.964843.003906-10.464844-4.011719-20.988282-12-28.964844l.003906.007812-4.832031 4.824219-4.824219 4.832031c5.34375 5.335938 7.988281 12.285156 7.996094 19.300782-.007813 7.007812-2.652344 13.957031-8 19.3125l.003906-.003907c-5.351562 5.339844-12.300781 7.984375-19.3125 7.996094-7.011719-.011719-13.960937-2.652344-19.308593-7.996094-3.058594-3.0625-5.144532-6.722656-6.484376-10.773437-.625-1.898438-2.078124-3.449219-3.933593-4.195313-1.855469-.75-3.980469-.640625-5.75.300781-4.058594 2.160157-8.550781 3.25-13.011719 3.25-6.953125-.011718-13.785156-2.59375-19.089844-7.890624h.003906c-5.347656-5.359376-7.992187-12.304688-8-19.3125.007813-7.007813 2.652344-13.957032 7.996094-19.300782 2.667969-2.667968 2.667969-6.988281.003906-9.65625-5.347656-5.359375-7.992187-12.304687-8-19.3125.007813-7.007812 2.652344-13.957031 7.996094-19.300781l-4.824218-4.828125 4.320312 5.285156.53125-.433594c2.707031-2.21875 3.304688-6.144531 1.367188-9.0625-3.035157-4.574218-4.554688-9.84375-4.554688-15.121093.007812-7.003907 2.648438-13.945313 7.988281-19.289063l.003907-.003906c5.347656-5.34375 12.292968-7.988281 19.308593-8 7.011719.011719 13.957031 2.65625 19.308594 8l.003906.007812c5.339844 5.335938 7.984375 12.285157 7.996094 19.300782-.011719 7.007812-2.65625 13.960937-8 19.316406l4.828125 4.828125-4.304688-5.300781-.53125.433594c-2.734374 2.21875-3.332031 6.152343-1.375 9.085937 3.027344 4.535156 4.546876 9.804687 4.546876 15.09375-.007813 7.011719-2.652344 13.953125-7.992188 19.300781-1.289062 1.285156-2 3.007813-2 4.828125 0 1.824219.710938 3.539063 2.003906 4.828125 3.058594 3.058594 5.144532 6.722656 6.484375 10.773438.632813 1.917968 2.0625 3.449218 3.945313 4.203125 1.878906.75 3.96875.636719 5.753906-.316407 4.050781-2.164062 8.527344-3.253906 12.996094-3.253906 6.949218.011719 13.785156 2.597656 19.089844 7.898438l.003906.007812zm0 0" fill="#54596e"/><path d="m385.640625 59.636719c-6.027344-6.019531-12.585937-11.710938-19.667969-17.027344-65.699218-49.285156-158.171875-47.488281-221.851562 4.375-84.542969 68.851563-89.273438 193.539063-14.179688 268.632813l.433594.433593c22.660156 22.503907 59.609375 21.589844 82.191406-.996093l172.636719-172.632813c22.808594-22.808594 23.269531-60.003906.4375-82.785156zm0 0" fill="#ffd578"/><path d="m385.640625 59.636719 4.824219-4.832031c-6.257813-6.246094-13.058594-12.148438-20.394532-17.65625-33.078124-24.8125-72.671874-37.15234425-112.1875-37.148438-42-.00390625-83.992187 13.925781-118.074218 41.691406-46.082032 37.511719-69.691406 91.191406-69.675782 144.953125-.011718 48.324219 18.042969 96.859375 54.980469 133.800781l.433594.433594.019531.015625c12.421875 12.34375 28.742188 18.40625 44.988282 18.390625 16.957031.003906 33.980468-6.5625 46.835937-19.402344l172.636719-172.632812c12.839844-12.839844 19.34375-29.796875 19.335937-46.683594.011719-16.550781-6.261719-33.164062-18.902343-45.765625v.003907l-4.820313 4.832031-4.820313 4.835937c9.964844 9.941406 14.882813 22.949219 14.894532 36.097656-.007813 13.40625-5.144532 26.828126-15.339844 37.023438l-172.636719 172.632812c-10.207031 10.203126-23.730469 15.40625-37.183593 15.410157-12.90625-.011719-25.613282-4.75-35.367188-14.433594l.015625.019531-.433594-.433594c-34.246093-34.253906-50.972656-79.179687-50.984375-124.144531.015625-49.796875 21.777344-99.449219 64.644532-134.367187 31.539062-25.691406 70.457031-38.621094 109.453124-38.625 36.6875.003906 73.375 11.445312 103.992188 34.417968 6.828125 5.121094 13.140625 10.605469 18.945312 16.398438v.003906zm0 0" fill="#54596e"/><path d="m169.183594 136.585938c0 7.539062-6.113282 13.652343-13.65625 13.652343-7.539063 0-13.652344-6.113281-13.652344-13.652343 0-7.542969 6.113281-13.65625 13.652344-13.65625 7.542968 0 13.65625 6.113281 13.65625 13.65625zm0 0" fill="#ff927d"/><path d="m292.0625 136.585938c0 7.539062-6.113281 13.652343-13.652344 13.652343-7.542968 0-13.65625-6.113281-13.65625-13.652343 0-7.542969 6.113282-13.65625 13.65625-13.65625 7.539063 0 13.652344 6.113281 13.652344 13.65625zm0 0" fill="#ff927d"/><path d="m132.183594 318.203125c21.417968 21.371094 27.164062 50.074219 7.414062 69.820313l48.269532-48.269532-33.789063-4.824218zm0 0" fill="#54596e"/><path d="m132.183594 318.203125-4.820313 4.832031c11.425781 11.375 17.570313 24.691406 17.53125 36.457032-.046875 8.605468-3.015625 16.53125-10.125 23.707031-2.664062 2.664062-2.664062 6.984375.003907 9.652343 2.664062 2.664063 6.988281 2.664063 9.652343 0l48.269531-48.269531c1.832032-1.832031 2.46875-4.53125 1.648438-6.988281-.816406-2.457031-2.945312-4.234375-5.507812-4.597656l-32.027344-4.578125-20.476563-15.640625c-2.867187-2.191406-6.914062-1.785156-9.285156.933594-2.371094 2.714843-2.234375 6.777343.316406 9.324218l4.820313-4.832031-4.140625 5.425781 21.890625 16.722656c.917968.699219 2.035156 1.167969 3.179687 1.332032l20.273438 2.894531-38.617188 38.617187c-1.269531 1.269532-2 3.027344-2 4.828126 0 1.796874.730469 3.558593 2 4.828124 1.292969 1.289063 3.007813 2 4.832031 1.996094 1.824219 0 3.535157-.714844 4.824219-2 9.546875-9.488281 14.164063-21.386718 14.117188-33.355468-.039063-16.464844-8.183594-32.777344-21.535157-46.121094l-4.824218 4.832031-4.140625 5.425781zm0 0" fill="#54596e"/><g fill="#fff35f"><path d="m262.683594 57.355469c-4-3.996094-10.484375-3.996094-14.484375.003906-3.996094 4-3.996094 10.480469.003906 14.480469s10.484375 3.996094 14.480469-.003906c4-3.996094 4-10.480469 0-14.480469zm0 0"/><path d="m344.753906 81.515625c-4-4-10.480468-4-14.480468-.003906-4 4-4 10.484375-.003907 14.484375 4 4 10.484375 4 14.484375 0 3.996094-3.996094 4-10.480469 0-14.480469zm0 0"/><path d="m310.957031 163.566406c-3.996093-4-10.480469-4-14.476562 0-4 3.996094-4 10.480469 0 14.476563 3.996093 4 10.480469 4 14.476562 0 4-3.996094 4-10.480469 0-14.476563zm0 0"/><path d="m200.3125 255.636719c-4-3.996094-10.480469-3.996094-14.480469 0-4 4-4 10.480469 0 14.480469 4 3.996093 10.480469 3.996093 14.480469 0 3.996094-4 3.996094-10.480469 0-14.480469zm0 0"/></g><path d="m275.40625 98.625c-4-3.996094-10.480469-3.996094-14.480469 0-4 4-4 10.480469 0 14.480469 4 3.996093 10.480469 3.996093 14.480469 0 3.996094-4 3.996094-10.480469 0-14.480469zm0 0" fill="#54596e"/><path d="m173.003906 98.625c-3.996094-4-10.480468-4-14.476562 0-4 4-4 10.480469 0 14.480469 3.996094 3.996093 10.480468 3.996093 14.476562 0 4-4 4-10.480469 0-14.480469zm0 0" fill="#54596e"/><path d="m248.203125 178.046875c-3.996094-4-10.480469-4-14.476563 0-4 3.996094-4 10.480469 0 14.476563 3.996094 4 10.480469 4 14.476563 0 4-3.996094 4-10.480469 0-14.476563zm0 0" fill="#fff35f"/><path d="m132.046875 221.503906c-4-4-10.484375-4-14.480469 0-4 4-4 10.480469 0 14.480469 3.996094 3.996094 10.480469 3.996094 14.480469 0 3.996094-4 3.996094-10.480469 0-14.480469zm0 0" fill="#fff35f"/><path d="m132.355469 129.769531c-4-3.996093-10.484375-3.996093-14.484375 0-4 4-4 10.484375 0 14.484375s10.484375 4 14.484375 0 4-10.484375 0-14.484375zm0 0" fill="#fff35f"/><path d="m249.285156 150.953125c-7.289062-1.5625-14.253906-.484375-20.121094 2.457031-7.371093 3.695313-15.882812 3.695313-23.257812 0-5.867188-2.945312-12.828125-4.019531-20.113281-2.457031-11.289063 2.425781-20.382813 11.570313-22.753907 22.867187-4.082031 19.46875 10.664063 36.617188 29.414063 36.617188 5.175781 0 10.042969-1.308594 14.292969-3.605469 6.664062-3.609375 14.914062-3.609375 21.582031 0 4.25 2.300781 9.117187 3.605469 14.292969 3.605469 18.75 0 33.496094-17.148438 29.410156-36.617188-2.363281-11.296874-11.460938-20.441406-22.746094-22.867187zm0 0" fill="#54596e"/></svg>