<svg height="416pt" viewBox="0 -3 416.42667 416" width="416pt" xmlns="http://www.w3.org/2000/svg"><path d="m375.464844 402.988281h-334.503906l-13.652344-27.308593h361.8125zm0 0" fill="#fff"/><path d="m375.464844 402.988281v-6.828125h-330.285156l-6.828126-13.65625h339.722657l-8.714844 17.429688 6.105469 3.054687v-6.828125 6.828125l6.109375 3.046875 13.652343-27.304687c1.058594-2.125.949219-4.625-.296874-6.640625-1.25-2.019532-3.4375-3.238282-5.808594-3.238282h-361.8125c-2.375 0-4.558594 1.21875-5.808594 3.238282-1.246094 2.015625-1.359375 4.515625-.296875 6.640625l13.652344 27.304687c1.15625 2.316406 3.515625 3.773438 6.105469 3.773438h334.507812c2.589844 0 4.945312-1.457032 6.105469-3.773438zm0 0" fill="#54596e"/><path d="m6.828125 382.507812h402.773437c3.769532 0 6.824219-3.058593 6.824219-6.828124 0-3.773438-3.054687-6.828126-6.824219-6.828126h-402.773437c-3.773437 0-6.828125 3.054688-6.828125 6.828126 0 3.769531 3.054688 6.828124 6.828125 6.828124" fill="#54596e"/><path d="m345.4375 252.800781h-274.445312c-16.589844 0-30.03125 13.445313-30.03125 30.027344v92.851563h334.503906v-92.851563c0-16.582031-13.441406-30.027344-30.027344-30.027344zm0 0" fill="#ffd578"/><path d="m345.4375 252.800781v-6.828125h-274.445312c-20.363282.003906-36.855469 16.496094-36.859376 36.855469v92.851563c0 1.824218.710938 3.535156 2 4.828124 1.289063 1.289063 3.003907 1.996094 4.828126 1.996094h334.503906c1.824218 0 3.539062-.707031 4.828125-1.996094 1.289062-1.292968 2-3.003906 2-4.828124v-92.851563c-.003907-20.359375-16.496094-36.851563-36.855469-36.855469v13.652344c12.8125.023438 23.179688 10.390625 23.203125 23.203125v86.023437h-320.855469v-86.023437c.027344-12.808594 10.390625-23.179687 23.207032-23.203125h274.445312zm0 0" fill="#54596e"/><path d="m304.476562 95.785156h-192.527343c-16.585938 0-30.027344 13.449219-30.027344 30.027344v126.988281h252.585937v-126.988281c0-16.578125-13.445312-30.027344-30.03125-30.027344zm0 0" fill="#ffb8f2"/><path d="m304.476562 95.785156v-6.824218h-192.527343c-20.359375.003906-36.851563 16.496093-36.855469 36.851562v126.988281c0 1.820313.710938 3.535157 2 4.824219 1.289062 1.292969 3.003906 2 4.828125 2h252.585937c1.820313 0 3.535157-.707031 4.824219-2 1.292969-1.289062 2-3.003906 2-4.824219v-126.988281c-.003906-20.355469-16.496093-36.847656-36.855469-36.851562v13.648437c12.8125.023437 23.179688 10.394531 23.203126 23.203125v120.15625h-238.933594v-120.15625c.023437-12.804688 10.390625-23.179688 23.203125-23.203125h192.527343zm0 0" fill="#54596e"/><path d="m102.398438 232.320312c0 11.308594-9.167969 20.480469-20.476563 20.480469-11.3125 0-20.480469-9.171875-20.480469-20.480469 0-11.3125 9.167969-20.480468 20.480469-20.480468 11.308594 0 20.476563 9.167968 20.476563 20.480468zm0 0" fill="#ff927d"/><path d="m102.398438 232.320312h6.828124c-.003906-15.085937-12.222656-27.304687-27.304687-27.308593-15.085937.003906-27.304687 12.222656-27.308594 27.308593.003907 15.082032 12.222657 27.300782 27.308594 27.304688 15.082031-.003906 27.300781-12.222656 27.304687-27.304688h-13.652343c-.015625 7.53125-6.117188 13.636719-13.652344 13.652344-7.539063-.015625-13.640625-6.121094-13.65625-13.652344.015625-7.535156 6.117187-13.640624 13.65625-13.65625 7.535156.015626 13.636719 6.121094 13.652344 13.65625zm0 0" fill="#54596e"/><path d="m354.988281 232.320312c0 11.308594-9.171875 20.480469-20.480469 20.480469-11.3125 0-20.480468-9.171875-20.480468-20.480469 0-11.3125 9.167968-20.480468 20.480468-20.480468 11.308594 0 20.480469 9.167968 20.480469 20.480468zm0 0" fill="#ff927d"/><path d="m354.988281 232.320312h6.824219c-.003906-15.085937-12.222656-27.304687-27.304688-27.308593-15.085937.003906-27.300781 12.222656-27.308593 27.308593.007812 15.082032 12.222656 27.300782 27.308593 27.304688 15.082032-.003906 27.300782-12.222656 27.304688-27.304688h-13.652344c-.015625 7.53125-6.117187 13.636719-13.652344 13.652344-7.539062-.015625-13.640624-6.121094-13.65625-13.652344.015626-7.535156 6.117188-13.640624 13.65625-13.65625 7.535157.015626 13.636719 6.121094 13.652344 13.65625zm0 0" fill="#54596e"/><path d="m147.058594 204.765625c6.738281 2.285156 15.523437 4.019531 25.90625 5.261719 10.367187 1.230468 22.277344 1.921875 34.964844 1.921875 12.5625 0 24.363281-.679688 34.65625-1.886719 10.304687-1.210938 19.058593-2.917969 25.808593-5.152344 3.578125-1.191406 5.511719-5.054687 4.324219-8.636718-1.191406-3.574219-5.054688-5.507813-8.632812-4.316407-5.332032 1.777344-13.421876 3.417969-23.089844 4.546875-9.683594 1.136719-21 1.796875-33.066406 1.796875-12.1875 0-23.609376-.675781-33.355469-1.832031-9.734375-1.148438-17.847657-2.820312-23.117188-4.625-3.570312-1.21875-7.449219.691406-8.664062 4.261719-1.214844 3.570312.695312 7.445312 4.265625 8.664062zm0 0" fill="#54596e"/><g fill="#fff"><path d="m122.878906 319.359375c-.003906-20.738281-16.804687-37.542969-37.546875-37.546875-20.738281.003906-37.539062 16.808594-37.546875 37.546875 0 3.769531 3.058594 6.828125 6.828125 6.828125s6.828125-3.058594 6.828125-6.828125c.023438-13.195313 10.699219-23.867187 23.890625-23.894531 13.195313.027344 23.871094 10.699218 23.894531 23.894531 0 3.769531 3.058594 6.828125 6.828126 6.828125 3.769531 0 6.824218-3.058594 6.824218-6.828125zm0 0"/><path d="m184.320312 319.359375c-.003906-20.738281-16.808593-37.542969-37.546874-37.546875-20.738282.003906-37.542969 16.808594-37.546876 37.546875 0 3.769531 3.058594 6.828125 6.828126 6.828125 3.769531 0 6.824218-3.058594 6.824218-6.828125.023438-13.195313 10.699219-23.867187 23.894532-23.894531 13.195312.027344 23.871093 10.699218 23.894531 23.894531 0 3.769531 3.054687 6.828125 6.824219 6.828125 3.769531 0 6.828124-3.058594 6.828124-6.828125zm0 0"/><path d="m245.761719 319.359375c-.007813-20.738281-16.808594-37.542969-37.546875-37.546875-20.742188.003906-37.542969 16.808594-37.546875 37.546875 0 3.769531 3.054687 6.828125 6.824219 6.828125 3.769531 0 6.828124-3.058594 6.828124-6.828125.023438-13.195313 10.699219-23.867187 23.894532-23.894531 13.191406.027344 23.867187 10.699218 23.890625 23.894531 0 3.769531 3.058593 6.828125 6.828125 6.828125 3.769531 0 6.828125-3.058594 6.828125-6.828125zm0 0"/><path d="m307.199219 319.359375c-.003907-20.738281-16.804688-37.542969-37.546875-37.546875-20.738282.003906-37.539063 16.808594-37.546875 37.546875 0 3.769531 3.058593 6.828125 6.828125 6.828125 3.769531 0 6.828125-3.058594 6.828125-6.828125.023437-13.195313 10.699219-23.867187 23.890625-23.894531 13.195312.027344 23.871094 10.699218 23.894531 23.894531 0 3.769531 3.054687 6.828125 6.828125 6.828125 3.769531 0 6.824219-3.058594 6.824219-6.828125zm0 0"/><path d="m368.640625 319.359375c-.003906-20.738281-16.808594-37.542969-37.546875-37.546875-20.738281.003906-37.542969 16.808594-37.546875 37.546875 0 3.769531 3.054687 6.828125 6.828125 6.828125 3.769531 0 6.824219-3.058594 6.824219-6.828125.023437-13.195313 10.699219-23.867187 23.894531-23.894531 13.195312.027344 23.867188 10.699218 23.894531 23.894531 0 3.769531 3.054688 6.828125 6.824219 6.828125s6.828125-3.058594 6.828125-6.828125zm0 0"/><path d="m279.894531 79.078125c0-12.113281-8.902343-22.058594-20.5-23.871094l.019531-.378906c0-26.394531-21.394531-47.789063-47.789062-47.789063-2.945312 0-5.816406.308594-8.617188.820313 1.136719 4.085937 1.792969 8.382813 1.792969 12.835937 0 13.386719-5.527343 25.464844-14.402343 34.132813h-6.078126c-22.621093 0-40.960937 18.339844-40.960937 40.957031h43.898437c7.144532 4.273438 15.433594 6.828125 24.367188 6.828125 8.980469 0 17.347656-2.519531 24.519531-6.828125h43.75zm0 0"/></g><path d="m279.894531 79.078125h6.824219c-.007812-15.546875-11.421875-28.308594-26.269531-30.617187l-1.054688 6.746093 6.816407.355469.019531-.378906.007812-.355469c0-30.167969-24.445312-54.613281-54.613281-54.613281-3.417969-.003906-6.707031.351562-9.84375.925781-1.894531.34375-3.535156 1.457031-4.5625 3.089844-1.019531 1.632812-1.304688 3.597656-.792969 5.453125.988281 3.558594 1.542969 7.226562 1.546875 11.011718-.003906 11.488282-4.722656 21.789063-12.347656 29.246094l4.769531 4.886719v-6.828125h-6.074219c-26.394531.003906-47.78125 21.390625-47.785156 47.785156 0 1.824219.707032 3.539063 2 4.828125 1.289063 1.289063 3.003906 1.996094 4.824219 1.996094h43.898437v-6.824219l-3.507812 5.859375c8.105469 4.851563 17.628906 7.796875 27.875 7.792969 10.261719.003906 19.867188-2.890625 28.035156-7.800781l-3.515625-5.851563v6.824219h43.75c1.820313 0 3.535157-.707031 4.824219-1.996094 1.292969-1.289062 2-3.003906 2-4.828125v-16.707031h-13.652344v9.878906l-36.921875.003907c-1.226562 0-2.460937.339843-3.511719.972656-6.179687 3.703125-13.3125 5.851562-21.007812 5.851562-7.625 0-14.679688-2.164062-20.863281-5.859375-1.054688-.632812-2.277344-.964843-3.503907-.964843h-43.898437v6.824218h6.828125c.003906-9.445312 3.808594-17.933594 9.996094-24.136718 6.199218-6.1875 14.691406-9.992188 24.136718-10h6.078126c1.769531 0 3.5-.703126 4.765624-1.9375 10.128907-9.878907 16.464844-23.730469 16.460938-39.015626 0-5.128906-.757812-10.046874-2.042969-14.667968l-6.574219 1.828125 1.222657 6.714843c2.464843-.449218 4.921875-.703124 7.394531-.707031 11.335938.007813 21.53125 4.578125 28.964844 11.996094 7.421875 7.433594 11.992187 17.628906 11.996094 28.96875h6.828124l-6.816406-.363281-.019531.382812c-.1875 3.496094 2.300781 6.558594 5.761719 7.101563 8.351562 1.316406 14.738281 8.449219 14.730468 17.128906zm0 0" fill="#54596e"/><path d="m225.28125 61.652344h34.132812c3.769532 0 6.824219-3.054688 6.824219-6.824219 0-3.773437-3.054687-6.828125-6.824219-6.828125h-34.132812c-3.769531 0-6.828125 3.054688-6.828125 6.828125 0 3.769531 3.058594 6.824219 6.828125 6.824219" fill="#54596e"/><path d="m259.414062 150.398438c.007813-3.765626 3.058594-6.816407 6.824219-6.828126 3.769531.011719 6.820313 3.0625 6.828125 6.828126 0 3.773437 3.058594 6.828124 6.828125 6.828124s6.824219-3.054687 6.824219-6.828124c-.003906-11.316407-9.164062-20.476563-20.480469-20.476563-11.3125 0-20.472656 9.160156-20.476562 20.476563 0 3.773437 3.054687 6.828124 6.824219 6.828124 3.769531 0 6.828124-3.054687 6.828124-6.828124zm0 0" fill="#54596e"/><path d="m143.359375 150.398438c.007813-3.765626 3.0625-6.816407 6.828125-6.828126 3.765625.011719 6.820312 3.0625 6.824219 6.828126 0 3.773437 3.058593 6.828124 6.828125 6.828124 3.769531 0 6.828125-3.054687 6.828125-6.828124-.007813-11.316407-9.167969-20.476563-20.480469-20.476563s-20.476562 9.160156-20.480469 20.476563c0 3.773437 3.054688 6.828124 6.828125 6.828124 3.769532 0 6.824219-3.054687 6.824219-6.828124zm0 0" fill="#54596e"/><path d="m150.1875 252.800781h-34.132812v71.679688c0 9.425781 7.640624 17.066406 17.066406 17.066406 9.425781 0 17.066406-7.640625 17.066406-17.066406v-10.582031c1.101562.222656 2.242188.339843 3.414062.339843h6.824219c9.425781 0 17.066407-7.640625 17.066407-17.066406v-44.371094zm0 0" fill="#ffb8f2"/><path d="m150.1875 252.800781v-6.828125h-34.132812c-1.796876 0-3.558594.726563-4.828126 1.996094-1.269531 1.273438-2 3.03125-2 4.832031v71.679688c.003907 13.195312 10.695313 23.886719 23.894532 23.890625 13.199218-.003906 23.890625-10.695313 23.890625-23.890625v-10.582031h-6.824219l-1.355469 6.6875c1.53125.3125 3.128907.480468 4.769531.476562l6.824219.003906c13.199219-.007812 23.890625-10.695312 23.894531-23.894531v-44.371094c0-1.800781-.730468-3.558593-2-4.832031-1.273437-1.269531-3.03125-1.996094-4.828124-1.996094h-27.304688v13.652344h20.480469v37.546875c-.011719 5.652344-4.585938 10.226563-10.242188 10.242187h-6.824219c-.703124-.003906-1.386718-.074218-2.058593-.210937-2.011719-.40625-4.09375.109375-5.675781 1.40625-1.585938 1.300781-2.503907 3.234375-2.503907 5.289063v10.582031c-.011719 5.652343-4.585937 10.226562-10.242187 10.238281-5.652344-.011719-10.230469-4.585938-10.238282-10.238281v-64.859375l13.652344.003906h13.652344zm0 0" fill="#54596e"/><path d="m143.359375 280.105469v40.960937c0 3.769532 3.058594 6.828125 6.828125 6.828125s6.824219-3.058593 6.824219-6.828125v-40.960937c0-3.773438-3.054688-6.824219-6.824219-6.824219s-6.828125 3.050781-6.828125 6.824219" fill="#54596e"/></svg>