<svg height="414pt" viewBox="0 0 414.65007 414" width="414pt" xmlns="http://www.w3.org/2000/svg"><path d="m184.230469 300.40625-69.664063-69.664062c-12.757812-12.753907-12.757812-33.433594 0-46.1875l69.664063-69.667969c12.753906-12.753907 33.433593-12.753907 46.183593 0l69.664063 69.667969c12.757813 12.753906 12.757813 33.433593 0 46.1875l-69.664063 69.664062c-12.75 12.753906-33.429687 12.753906-46.183593 0zm0 0" fill="#fff35f"/><path d="m184.230469 300.40625 4.824219-4.828125-69.660157-69.667969c-5.058593-5.0625-7.5625-11.636718-7.570312-18.265625.007812-6.636719 2.511719-13.210937 7.566406-18.261719l69.664063-69.667968c5.0625-5.058594 11.632812-7.558594 18.269531-7.570313 6.632812.011719 13.203125 2.511719 18.261719 7.566407l69.664062 69.671874c5.058594 5.058594 7.5625 11.628907 7.570312 18.261719-.007812 6.628907-2.507812 13.199219-7.570312 18.269531l-69.660156 69.664063c-5.0625 5.054687-11.632813 7.554687-18.265625 7.566406-6.636719-.011719-13.207031-2.515625-18.269531-7.566406l-4.824219 4.828125-4.828125 4.828125c7.691406 7.691406 17.835937 11.566406 27.921875 11.558594 10.078125.007812 20.226562-3.863281 27.917969-11.558594l69.664062-69.667969c7.695312-7.699218 11.574219-17.84375 11.566406-27.921875.007813-10.082031-3.871094-20.226562-11.566406-27.917969l-69.664062-69.667968c-7.691407-7.699219-17.839844-11.574219-27.921876-11.5625-10.082031-.011719-20.230468 3.863281-27.921874 11.566406l-69.660157 69.660156c-7.699219 7.6875-11.574219 17.832032-11.566406 27.917969-.007813 10.082031 3.871094 20.230469 11.566406 27.921875l69.664063 69.667969zm0 0" fill="#54596e"/><path d="m133.113281 388.050781c16.972657-16.972656 28.5-38.75 33.351563-63.003906l7.070312-35.339844-48.277344-48.269531-35.339843 7.070312c-24.253907 4.847657-46.03125 16.375-63.003907 33.34375l-12.679687 22.339844-2.414063 2.410156c-6.664062 6.664063-6.664062 17.472657 0 24.140626 6.664063 6.664062 17.472657 6.664062 24.140626 0-6.667969 6.664062-6.667969 17.46875 0 24.132812 6.660156 6.667969 17.46875 6.667969 24.132812 0-6.664062 6.667969-6.664062 17.472656 0 24.140625 6.664062 6.664063 17.472656 6.664063 24.136719 0-6.664063 6.664063-6.664063 17.464844 0 24.132813 6.667969 6.667968 17.46875 6.667968 24.136719 0l2.414062-2.410157zm0 0" fill="#ffd578"/><path d="m133.113281 388.050781 4.828125 4.828125c17.945313-17.949218 30.117188-40.96875 35.21875-66.496094l7.066406-35.339843c.449219-2.238281-.25-4.554688-1.867187-6.167969l-48.273437-48.269531c-1.613282-1.617188-3.925782-2.316407-6.164063-1.867188l-35.339844 7.070313c-25.523437 5.101562-48.546875 17.269531-66.492187 35.214844l-1.109375 1.457031-12.222657 21.535156-1.757812 1.757813c-4.652344 4.644531-7.0078125 10.800781-7 16.894531-.0078125 6.085937 2.347656 12.242187 6.992188 16.890625 4.652343 4.660156 10.808593 7.011718 16.902343 7.003906 6.09375.011719 12.246094-2.351562 16.894531-6.996094 2.664063-2.667968 2.667969-6.988281.003907-9.652344-2.667969-2.667968-6.988281-2.671874-9.65625-.003906-4.652344 4.648438-7.007813 10.800782-7 16.890625-.007813 6.089844 2.347656 12.246094 6.996093 16.894531 4.652344 4.65625 10.804688 7.007813 16.898438 7 6.097656.011719 12.246094-2.351562 16.890625-6.996093 1.289063-1.292969 2-3.003907 2-4.828125 0-1.824219-.707031-3.539063-2-4.828125-1.269531-1.269531-3.027344-2-4.828125-2-1.796875 0-3.554688.730469-4.828125 2.003906-4.648437 4.644531-7.003906 10.796875-6.996094 16.890625-.007812 6.089844 2.347657 12.242188 6.992188 16.894531 4.660156 4.65625 10.8125 7.003907 16.902343 6.996094 6.09375.007813 12.246094-2.34375 16.890626-6.988281 1.273437-1.273438 2.003906-3.027344 2.003906-4.824219.003906-1.796875-.726563-3.558594-1.996094-4.832031-1.273438-1.269532-3.027344-2-4.828125-2-1.796875-.003906-3.558594.722656-4.828125 1.996094-4.652344 4.648437-7.007812 10.800781-7 16.890624-.007812 6.089844 2.347656 12.242188 6.992188 16.890626 4.652343 4.660156 10.808593 7.015624 16.898437 7.003906 6.097656.011718 12.25-2.347656 16.894531-6.996094l1.769532-1.765625 21.523437-12.21875 1.457031-1.105469-4.828125-4.828125-3.371093-5.9375-22.332032 12.683594-1.457031 1.105469-2.414063 2.414062c-2.019531 2.011719-4.605468 2.992188-7.242187 3-2.640625-.007812-5.222656-.984375-7.242187-3-2.011719-2.027344-2.988282-4.605468-2.996094-7.246094.003906-2.640624.984375-5.21875 2.996094-7.230468 2.664062-2.667969 2.667968-6.988282.003906-9.652344-2.664063-2.667969-6.984375-2.675781-9.652344-.007812-2.019531 2.007812-4.601562 2.988281-7.246094 3-2.644531-.011719-5.226562-.988282-7.242187-2.996094-2.011719-2.023438-2.988281-4.605469-2.996094-7.246094.007813-2.640625.984375-5.222656 2.996094-7.242188 2.667969-2.664062 2.667969-6.984374 0-9.652343-2.664063-2.664063-6.984375-2.664063-9.652344 0-2.019531 2.015625-4.601563 2.992187-7.242187 3.003906-2.640626-.011719-5.222657-.988281-7.238282-3-2.015625-2.023437-2.992187-4.601563-3-7.242187.007813-2.640626.984375-5.222657 3-7.238282 2.664063-2.664062 2.664063-6.984375 0-9.652344-2.664062-2.664062-6.984375-2.667968-9.652344-.003906-2.019531 2.015625-4.605468 2.996094-7.246093 3.003906-2.640625-.007812-5.222657-.988281-7.238281-3-2.015626-2.027343-2.992188-4.605468-3-7.246093.007812-2.644531.984374-5.222657 3-7.238281l2.414062-2.410157 1.109375-1.457031 12.679687-22.339844-5.9375-3.371094 4.828126 4.828126c16-15.992188 36.53125-26.878907 59.515624-31.480469l31.757813-6.351563 43.105469 43.097656-6.351563 31.761719c-4.601562 22.984375-15.488281 43.515625-31.484375 59.515625l4.828125 4.828125-3.371093-5.9375zm0 0" fill="#54596e"/><path d="m387.730469 133.441406c-16.972657 16.96875-38.75 28.496094-63.003907 33.34375l-35.339843 7.070313-48.273438-48.269531 7.066407-35.339844c4.855468-24.253906 16.382812-46.03125 33.355468-63.003906l22.332032-12.683594 2.414062-2.410156c6.664062-6.667969 17.46875-6.667969 24.136719 0 6.664062 6.664062 6.664062 17.46875 0 24.132812 6.664062-6.664062 17.46875-6.664062 24.136719 0 6.664062 6.667969 6.664062 17.472656 0 24.140625 6.664062-6.667969 17.46875-6.667969 24.132812 0 6.667969 6.664063 6.667969 17.464844 0 24.132813 6.667969-6.664063 17.472656-6.664063 24.140625 0 6.664063 6.667968 6.664063 17.472656 0 24.136718l-2.414063 2.414063zm0 0" fill="#ffd578"/><g fill="#54596e"><path d="m387.730469 133.441406-4.828125-4.832031c-16 15.992187-36.527344 26.878906-59.515625 31.480469l-31.757813 6.351562-43.105468-43.105468 6.351562-31.753907c4.601562-22.984375 15.488281-43.515625 31.488281-59.515625l-4.828125-4.824218 3.371094 5.933593 22.332031-12.679687 1.457031-1.109375 2.414063-2.410157c2.019531-2.019531 4.59375-2.996093 7.242187-3.003906 2.640626.007813 5.222657.984375 7.242188 3.003906 2.011719 2.015626 2.988281 4.59375 2.996094 7.234376-.007813 2.640624-.984375 5.222656-3 7.242187-1.273438 1.269531-1.996094 3.035156-1.996094 4.832031.003906 1.796875.730469 3.550782 2.003906 4.824219 1.289063 1.289063 3.003906 2 4.828125 1.996094 1.824219 0 3.535157-.714844 4.824219-2 2.015625-2.011719 4.597656-2.992188 7.238281-3 2.648438.007812 5.222657.984375 7.238281 3 2.015626 2.019531 2.996094 4.597656 3.003907 7.242187-.011719 2.640625-.988281 5.21875-3.003907 7.25-2.664062 2.664063-2.660156 6.988282.007813 9.652344s6.988281 2.660156 9.652344-.007812c2.015625-2.011719 4.589843-2.988282 7.238281-3 2.640625.011718 5.222656.992187 7.238281 3 2.015625 2.023437 2.992188 4.597656 3 7.238281-.007812 2.640625-.984375 5.21875-3.003906 7.25-2.664063 2.664062-2.660156 6.988281.007813 9.652343 2.667968 2.664063 6.988281 2.660157 9.652343-.007812 2.015625-2.011719 4.59375-2.988281 7.242188-3 2.640625.011719 5.222656.988281 7.238281 3 2.015625 2.019531 2.992188 4.601562 3 7.242188-.007812 2.640624-.984375 5.222656-3.003906 7.246093l-2.410156 2.410157-1.109376 1.457031-12.679687 22.335937 5.933594 3.375-4.828125-4.832031 4.828125 4.832031 5.9375 3.371094 12.222656-21.539062 1.761719-1.753907c4.652344-4.65625 7.007812-10.808593 6.996094-16.898437.011718-6.09375-2.34375-12.246094-6.996094-16.894532-4.648438-4.65625-10.804688-7.007812-16.894532-6.996093-6.089843-.011719-12.25 2.339843-16.902343 7-1.289063 1.289062-1.996094 3.007812-1.996094 4.828125.003906 1.824218.710937 3.535156 2.003906 4.828125 1.292969 1.285156 3.007813 1.996093 4.832031 1.992187 1.824219 0 3.535157-.714844 4.824219-2.003906 4.644531-4.648438 7.003907-10.800781 6.996094-16.890625.007813-6.089844-2.347656-12.25-7.003906-16.890625-4.644531-4.652344-10.800781-7.003906-16.890625-6.996094-6.089844-.011718-12.25 2.339844-16.898438 7-1.269531 1.269532-1.996094 3.03125-1.996094 4.828125.003907 1.800781.734376 3.558594 2.003907 4.828125 1.292969 1.289063 3.007812 1.996094 4.832031 1.992188 1.824219 0 3.539062-.710938 4.824219-2.003906 4.644531-4.648438 7-10.800782 6.992187-16.890626.007813-6.09375-2.34375-12.246093-6.996094-16.894531-4.648437-4.65625-10.808593-7.007812-16.898437-7-6.09375-.011719-12.246094 2.34375-16.894531 7-1.273438 1.269531-2 3.03125-2 4.828125 0 1.800782.730468 3.554688 2.003906 4.824219 1.289062 1.292969 3.003906 2 4.828125 2s3.539063-.710937 4.828125-2c4.644531-4.652344 7-10.804687 6.992188-16.894531.007812-6.089844-2.34375-12.242188-6.996094-16.890625-4.648438-4.652344-10.804688-7.007813-16.894532-7-6.089843-.007813-12.25 2.339843-16.898437 7l-1.765625 1.765625-21.519531 12.21875-1.460938 1.105468c-17.949219 17.949219-30.117187 40.96875-35.21875 66.496094l-7.066406 35.339844c-.449219 2.238281.25 4.550781 1.867187 6.167969l48.273438 48.269531c1.613281 1.613281 3.925781 2.3125 6.164062 1.867188l35.339844-7.070313c25.523438-5.101563 48.546875-17.265625 66.492188-35.214844l1.109375-1.457031zm0 0"/><path d="m211.144531 156.035156c-3.996093-4-10.480469-4-14.476562 0-4 3.996094-4 10.480469 0 14.476563 3.996093 4 10.480469 4 14.476562 0 4-3.996094 4-10.480469 0-14.476563zm0 0"/><path d="m258.929688 203.820312c-3.996094-4-10.480469-4-14.476563 0-4 3.996094-4 10.480469 0 14.480469 3.996094 3.996094 10.480469 3.996094 14.476563 0 4-4 4-10.484375 0-14.480469zm0 0"/></g><path d="m183.183594 164.21875c-5.328125-5.332031-13.976563-5.332031-19.308594-.003906-5.332031 5.332031-5.332031 13.976562 0 19.308594 5.328125 5.332031 13.972656 5.335937 19.308594.003906 5.332031-5.332032 5.332031-13.976563 0-19.308594zm0 0" fill="#ffd578"/><path d="m250.765625 231.808594c-5.332031-5.332032-13.976563-5.335938-19.308594-.003906-5.332031 5.332031-5.335937 13.976562-.003906 19.308593s13.976563 5.332031 19.308594.003907c5.332031-5.332032 5.335937-13.976563.003906-19.308594zm0 0" fill="#ffd578"/><path d="m255.964844 140.4375s23.765625-14.851562 28.589844-38.992188c4.832031-24.132812 28.964843-28.960937 28.964843-28.960937" fill="#fff35f"/><path d="m259.585938 146.222656c.304687-.195312 6.648437-4.167968 13.757812-11.472656 7.074219-7.300781 15.085938-18.015625 17.90625-31.96875 2.015625-9.902344 7.675781-15.488281 13.265625-19.109375 2.773437-1.765625 5.480469-2.929687 7.441406-3.621094.976563-.347656 1.765625-.582031 2.28125-.71875l.550781-.136719.097657-.023437-.425781-1.984375.398437 1.992188.027344-.007813-.425781-1.984375.398437 1.992188c3.695313-.742188 6.09375-4.335938 5.355469-8.03125-.742188-3.699219-4.335938-6.09375-8.03125-5.355469-.515625.113281-7.265625 1.464843-15 6.363281-7.6875 4.828125-16.507813 13.71875-19.320313 27.949219-2.003906 10.1875-8.289062 18.96875-14.304687 25.128906-2.988282 3.078125-5.867188 5.484375-7.960938 7.089844-1.046875.804687-1.898437 1.410156-2.464844 1.800781l-.636718.425781-.136719.089844-.007813.007813c-3.199218 1.996093-4.167968 6.210937-2.171874 9.40625 1.996093 3.199218 6.210937 4.171874 9.40625 2.171874zm0 0" fill="#54596e"/><path d="m152.367188 268.542969s-17.453126 30.820312-36.761719 30.820312c-19.308594 0-24.136719 24.136719-24.136719 24.136719" fill="#fff35f"/><path d="m146.425781 265.175781-.027343.042969c-.371094.660156-4.707032 8.03125-10.890626 14.886719-3.074218 3.429687-6.613281 6.710937-10.128906 8.972656-3.53125 2.296875-6.894531 3.472656-9.773437 3.457031-6.261719-.027344-11.738281 2.050782-15.886719 5.039063-6.253906 4.515625-9.777344 10.652343-11.953125 15.539062-2.152344 4.910157-2.921875 8.722657-2.992187 9.046875-.738282 3.695313 1.660156 7.292969 5.355468 8.03125 3.695313.742188 7.292969-1.65625 8.035156-5.351562l-1.289062-.261719 1.285156.269531.003906-.011718-1.289062-.257813 1.285156.269531c.035156-.261718 1.300782-5.667968 4.269532-10.359375 1.46875-2.359375 3.316406-4.496093 5.429687-5.945312 2.140625-1.441407 4.460937-2.332031 7.746094-2.355469 6.6875-.015625 12.613281-2.605469 17.667969-5.953125 7.589843-5.070313 13.632812-12.066406 18.003906-17.828125 4.34375-5.765625 6.925781-10.320312 7.03125-10.496094 1.855468-3.285156.703125-7.449218-2.578125-9.308594-3.28125-1.855468-7.445313-.703124-9.304688 2.582032zm0 0" fill="#54596e"/><path d="m168.707031 197.992188c-13.332031 13.328124-13.332031 34.941406 0 48.269531 13.328125 13.328125 34.9375 13.332031 48.269531 0zm0 0" fill="#54596e"/></svg>