<svg height="436pt" viewBox="-151 0 436 436.90155" width="436pt" xmlns="http://www.w3.org/2000/svg"><path d="m94.878906 75.09375h-54.613281l-.796875 8.933594c-.109375 8.515625-1.636719 16.953125-4.519531 24.964844l-20.570313 57.140624c-6.90625 19.183594-8.816406 39.804688-5.546875 59.925782l10.957031 67.507812-10 61.804688c-2.421874 13.308594-2.675781 26.921875-.765624 40.3125l1.910156 16.707031c1.160156 10.082031 9.6875 17.6875 19.832031 17.6875h73.628906c10.140625 0 18.667969-7.601563 19.828125-17.679687l1.886719-16.441407c1.925781-13.390625 1.675781-27.007812-.738281-40.324219l-10.011719-62.074218 11-67.804688c3.238281-19.960937 1.386719-40.421875-5.390625-59.476562l-20.886719-58.753906c-2.816406-7.925782-4.308593-16.265626-4.417969-24.679688zm0 0" fill="#999"/><path d="m94.878906 75.09375v-6.828125h-54.613281c-3.542969 0-6.480469 2.6875-6.796875 6.21875l-.800781 8.933594-.027344.523437c-.097656 7.757813-1.488281 15.441406-4.113281 22.738282l-20.574219 57.140624c-4.980469 13.835938-7.503906 28.386719-7.503906 42.992188 0 6.785156.546875 13.585938 1.640625 20.335938l10.78125 66.414062-9.824219 60.714844 6.738281 1.09375-6.714844-1.222656c-1.425781 7.839843-2.140624 15.785156-2.140624 23.734374 0 6.261719.445312 12.53125 1.332031 18.757813l6.757812-.957031-6.78125.773437 1.914063 16.707031c1.554687 13.53125 12.996094 23.738282 26.609375 23.738282h73.632812c13.609375 0 25.050781-10.203125 26.609375-23.722656l1.886719-16.445313-6.78125-.777344 6.753906.972657c.898438-6.261719 1.351563-12.566407 1.351563-18.871094 0-7.925782-.710938-15.839844-2.128906-23.648438l-6.714844 1.222656 6.738281-1.089843-9.832031-60.984375 10.824218-66.71875c1.09375-6.742188 1.636719-13.546875 1.636719-20.335938 0-14.4375-2.460937-28.828125-7.335937-42.515625l-20.890625-58.753906c-2.5625-7.21875-3.921875-14.816406-4.019531-22.476563l-.035157-.601562-.785156-7.753906c-.351563-3.484375-3.289063-6.140625-6.792969-6.140625v6.832031l-6.789062.683594.78125 7.753906 6.792968-.683594-6.828124.082032c.117187 9.167968 1.742187 18.246093 4.8125 26.878906l20.886718 58.757812c4.347656 12.214844 6.546875 25.050782 6.546875 37.941406 0 6.058594-.484375 12.128907-1.460937 18.148438l-11 67.808594c-.121094.75-.121094 1.433594 0 2.179687l10.007812 62.074219.023438.128906c1.269531 7 1.90625 14.105469 1.90625 21.210938 0 5.65625-.402344 11.3125-1.210938 16.925781l-.027344.195313-1.882812 16.4375c-.761719 6.632812-6.375 11.632812-13.046875 11.632812h-73.628906c-6.671875 0-12.289063-5.003906-13.046875-11.636719l-1.914063-16.707031-.023437-.1875c-.796875-5.59375-1.195313-11.214844-1.195313-16.835938 0-7.132812.640625-14.257812 1.921875-21.289062l.019532-.128906 10-61.808594c.121093-.75.121093-1.441406 0-2.1875l-10.957032-67.507812c-.976562-6.023438-1.464844-12.09375-1.464844-18.148438 0-13.039062 2.25-26.019531 6.695313-38.371094l20.574219-57.136718c3.140625-8.726563 4.804687-17.917969 4.921875-27.195313l-6.828125-.082031 6.800781.605468.242187-2.714843h48.371094v-6.824219l-6.792968.683594zm0 0" fill="#54596e"/><path d="m33.441406 40.960938h68.265625c3.769531 0 6.828125-3.058594 6.828125-6.828126 0-3.773437-3.058594-6.824218-6.828125-6.824218h-68.265625c-3.769531 0-6.828125 3.050781-6.828125 6.824218 0 3.769532 3.054688 6.828126 6.828125 6.828126" fill="#54596e"/><path d="m40.265625 6.828125h54.613281v27.304687h-54.613281zm0 0" fill="#ff927d"/><path d="m94.878906 34.132812v-6.824218h-47.785156v-13.65625h40.960938v20.480468h6.824218v-6.824218 6.824218h6.828125v-27.304687c0-1.800781-.726562-3.558594-2-4.832031-1.269531-1.269532-3.027343-1.996094-4.828125-1.996094h-54.613281c-1.796875 0-3.554687.726562-4.824219 1.996094-1.273437 1.273437-2 3.03125-2 4.832031v27.304687c0 1.796876.726563 3.554688 2 4.828126 1.269532 1.269531 3.027344 2 4.824219 2h54.613281c1.800782 0 3.558594-.730469 4.828125-2 1.273438-1.273438 2-3.03125 2-4.828126zm0 0" fill="#54596e"/><path d="m112.820312 143.355469c-13.269531 4.273437-28.65625 6.832031-45.246093 6.832031-16.496094 0-31.804688-2.523438-45.027344-6.75l-8.171875 22.695312c-5.367188 14.914063-7.675781 30.699219-6.921875 46.441407 15.820313 7.863281 36.894531 12.707031 60.121094 12.707031 23.234375 0 44.320312-4.847656 60.140625-12.722656.789062-15.679688-1.457032-31.40625-6.742188-46.277344zm0 0" fill="#ff927d"/><path d="m112.820312 143.355469-2.09375-6.5c-12.5625 4.046875-27.265624 6.503906-43.152343 6.503906-15.800781 0-30.433594-2.417969-42.945313-6.425781-3.492187-1.121094-7.261718.738281-8.503906 4.1875l-8.171875 22.699218c-4.976563 13.820313-7.464844 28.34375-7.464844 42.917969 0 2.046875.050781 4.097657.148438 6.15625.121093 2.476563 1.558593 4.679688 3.78125 5.789063 16.980469 8.421875 38.980469 13.40625 63.15625 13.417968 24.191406-.011718 46.203125-5 63.183593-13.433593 2.203126-1.097657 3.65625-3.3125 3.777344-5.769531.109375-2.152344.160156-4.304688.160156-6.464844 0-14.40625-2.425781-28.769532-7.289062-42.445313l-8.15625-22.921875c-1.234375-3.476562-5.011719-5.34375-8.523438-4.210937l2.09375 6.5-6.433593 2.289062 8.152343 22.921875c4.332032 12.183594 6.503907 24.996094 6.503907 37.871094 0 1.925781-.046875 3.851562-.144531 5.78125l6.816406.339844-3.039063-6.113282c-14.660156 7.316407-34.820312 12.023438-57.101562 12.007813-22.273438.015625-42.425781-4.691406-57.078125-11.992187l-3.042969 6.113281 6.820313-.328125c-.089844-1.84375-.132813-3.675782-.132813-5.503906 0-13.019532 2.222656-25.980469 6.65625-38.296876l8.171875-22.699218-6.421875-2.308594-2.082031 6.5c13.929687 4.453125 29.917968 7.074219 47.105468 7.074219 17.292969 0 33.363282-2.65625 47.339844-7.15625l-2.089844-6.5-6.433593 2.289062zm0 0" fill="#54596e"/><path d="m40.265625 34.132812h54.613281v40.960938h-54.613281zm0 0" fill="#fff"/><g fill="#54596e"><path d="m94.878906 75.09375v-6.828125h-47.785156v-27.304687h40.960938v34.132812h6.824218v-6.828125 6.828125h6.828125v-40.960938c0-1.800781-.726562-3.554687-2-4.828124-1.269531-1.269532-3.027343-1.996094-4.828125-1.996094h-54.613281c-1.796875 0-3.554687.726562-4.824219 1.996094-1.273437 1.273437-2 3.027343-2 4.828124v40.960938c0 1.796875.726563 3.554688 2 4.824219 1.269532 1.273437 3.027344 2.003906 4.824219 2.003906h54.613281c1.800782 0 3.558594-.730469 4.828125-2.003906 1.273438-1.269531 2-3.027344 2-4.824219zm0 0"/><path d="m34.492188 250.195312c7.085937 9.890626 19.339843 16.027344 33.058593 16.042969 13.578125-.019531 25.722657-6.027343 32.847657-15.753906 2.21875-3.050781 1.546874-7.316406-1.5-9.539063-3.046876-2.214843-7.316407-1.542968-9.535157 1.503907-4.203125 5.816406-12.304687 10.15625-21.8125 10.136719-9.601562.019531-17.769531-4.410157-21.941406-10.316407-2.1875-3.074219-6.453125-3.785156-9.523437-1.597656-3.070313 2.1875-3.785157 6.449219-1.59375 9.523437zm0 0"/><path d="m53.921875 187.734375c0 5.65625-4.585937 10.238281-10.242187 10.238281s-10.238282-4.582031-10.238282-10.238281 4.582032-10.242187 10.238282-10.242187 10.242187 4.585937 10.242187 10.242187zm0 0"/><path d="m101.707031 187.734375c0 5.65625-4.585937 10.238281-10.238281 10.238281-5.65625 0-10.242188-4.582031-10.242188-10.238281s4.585938-10.242187 10.242188-10.242187c5.652344 0 10.238281 4.585937 10.238281 10.242187zm0 0"/></g></svg>