<svg height="395.93984pt" viewBox="0 0 395.93984 395.93984" width="395.93984pt" xmlns="http://www.w3.org/2000/svg"><path d="m389.117188 197.96875c0-105.566406-85.582032-191.144531-191.148438-191.144531s-191.148438 85.578125-191.148438 191.144531 85.582032 191.152344 191.148438 191.152344 191.148438-85.585938 191.148438-191.152344" fill="#ffd578"/><path d="m389.117188 197.96875h6.824218c0-109.335938-88.632812-197.96875-197.972656-197.96875-109.335938 0-197.96875 88.632812-197.96875 197.96875s88.632812 197.964844 197.96875 197.972656c109.339844-.007812 197.972656-88.636718 197.972656-197.972656h-13.652344c0 50.917969-20.617187 96.957031-53.980468 130.332031-33.378906 33.363281-79.421875 53.980469-130.339844 53.988281-50.914062-.007812-96.957031-20.625-130.328125-53.988281-33.371094-33.375-53.992187-79.414062-53.992187-130.332031 0-50.921875 20.621093-96.957031 53.992187-130.335938 33.371094-33.363281 79.414063-53.984374 130.328125-53.988281 50.917969.003907 96.960938 20.625 130.339844 53.988281 33.363281 33.378907 53.980468 79.414063 53.980468 130.335938z" fill="#54596e"/><g fill="#fff35f"><path d="m25.304688 202.796875 177.492187-177.496094c2.667969-2.664062 2.667969-6.984375 0-9.652343-2.664063-2.664063-6.984375-2.664063-9.65625 0l-177.488281 177.496093c-2.667969 2.664063-2.667969 6.984375 0 9.652344 2.660156 2.664063 6.984375 2.664063 9.652344 0"/><path d="m202.796875 380.285156 177.488281-177.488281c2.671875-2.667969 2.671875-6.992187 0-9.652344-2.660156-2.671875-6.984375-2.671875-9.652344 0l-177.488281 177.488281c-2.664062 2.667969-2.664062 6.996094 0 9.652344 2.667969 2.664063 6.992188 2.664063 9.652344 0"/><path d="m52.609375 291.546875 238.9375-238.9375c2.660156-2.664063 2.660156-6.992187 0-9.65625-2.667969-2.660156-6.992187-2.660156-9.65625 0l-238.9375 238.929687c-2.664063 2.667969-2.664063 6.996094 0 9.664063 2.671875 2.664063 6.992187 2.664063 9.65625 0"/><path d="m114.046875 352.988281 238.941406-238.9375c2.660157-2.664062 2.660157-6.996093 0-9.65625-2.671875-2.660156-6.992187-2.660156-9.65625 0l-238.9375 238.929688c-2.664062 2.667969-2.664062 6.992187 0 9.664062 2.667969 2.664063 6.992188 2.664063 9.652344 0"/><path d="m193.144531 25.300781 177.488281 177.496094c2.667969 2.664063 6.992188 2.664063 9.65625 0 2.667969-2.667969 2.667969-6.992187 0-9.652344l-177.492187-177.496093c-2.664063-2.664063-6.984375-2.664063-9.65625 0-2.660156 2.667968-2.660156 6.988281.003906 9.652343"/><path d="m15.652344 202.796875 177.488281 177.488281c2.671875 2.664063 6.992187 2.664063 9.65625 0 2.667969-2.660156 2.667969-6.984375 0-9.652344l-177.492187-177.488281c-2.667969-2.671875-6.992188-2.671875-9.652344 0-2.667969 2.660157-2.667969 6.984375 0 9.652344"/><path d="m104.394531 52.609375 238.9375 238.9375c2.664063 2.664063 6.984375 2.664063 9.652344 0 2.664063-2.667969 2.664063-6.996094 0-9.664063l-238.9375-238.929687c-2.660156-2.660156-6.984375-2.660156-9.652344 0-2.660156 2.664063-2.660156 6.996094 0 9.65625"/><path d="m42.953125 114.050781 238.9375 238.9375c2.664063 2.664063 6.988281 2.664063 9.65625 0 2.660156-2.671875 2.660156-6.996093 0-9.664062l-238.9375-238.929688c-2.664063-2.660156-6.984375-2.660156-9.652344 0-2.664062 2.660157-2.664062 6.992188-.003906 9.65625"/></g><path d="m115.785156 191.144531c-8.085937-.023437-13.121094 8.382813-9.34375 15.351563 17.402344 32.066406 51.953125 53.914062 91.75 53.914062 39.625 0 74.058594-21.667968 91.53125-53.515625 3.808594-6.949219-1.191406-15.371093-9.28125-15.390625l-66.890625 6.675782c-10.21875 1.019531-20.515625.996093-30.726562-.0625zm0 0" fill="#54596e"/><path d="m250.585938 148.183594 12.238281-12.242188 12.238281 12.242188c2.667969 2.664062 6.988281 2.664062 9.65625 0 2.664062-2.667969 2.664062-6.992188 0-9.652344l-17.066406-17.070312c-2.667969-2.667969-6.988282-2.667969-9.65625 0l-17.066406 17.066406c-2.667969 2.664062-2.667969 6.988281 0 9.65625 2.664062 2.664062 6.988281 2.664062 9.65625.003906zm0 0" fill="#54596e"/><path d="m209.191406 354.585938c-3.707031.261718-7.449218.394531-11.222656.394531s-7.511719-.132813-11.21875-.394531l11.21875 11.222656zm-195.542968-156.617188c0 50.917969 20.621093 96.957031 53.992187 130.332031 33.371094 33.363281 79.414063 53.980469 130.328125 53.988281 50.917969-.007812 96.960938-20.625 130.339844-53.988281 33.363281-33.375 53.980468-79.414062 53.980468-130.332031h6.828126-6.828126c0 1.746094-.667968 3.496094-2 4.828125l-28.953124 28.949219c-2.757813 12.589844-7.03125 24.621094-12.613282 35.875l14.261719 14.261718c2.664063 2.667969 2.664063 6.992188 0 9.660157-1.335937 1.332031-3.082031 2-4.828125 2-1.75 0-3.496094-.667969-4.824219-2l-11.492187-11.488281c-12.941406 21.066406-30.714844 38.835937-51.78125 51.785156l11.484375 11.484375c2.664062 2.667969 2.664062 6.992187 0 9.664062-1.332031 1.328125-3.082031 1.996094-4.828125 1.996094s-3.492188-.667969-4.824219-1.996094l-14.265625-14.265625c-11.261719 5.582032-23.289062 9.855469-35.878906 12.617188l-28.949219 28.949218c-1.332031 1.332032-3.078125 1.996094-4.824219 1.996094-1.75 0-3.496094-.664062-4.832031-1.996094l-28.949219-28.949218c-12.589844-2.761719-24.617187-7.03125-35.878906-12.617188l-14.265625 14.265625c-1.328125 1.328125-3.074219 1.996094-4.824219 1.996094-1.746094 0-3.496094-.667969-4.828125-1.996094-2.664062-2.671875-2.664062-6.996093 0-9.664062l11.484375-11.484375c-21.066406-12.949219-38.835937-30.71875-51.78125-51.785156l-11.492187 11.488281c-1.328125 1.332031-3.074219 2-4.820313 2-1.75 0-3.496094-.667969-4.832031-1.996094-2.664063-2.667969-2.664063-6.996094 0-9.664063l14.261719-14.257812c-5.582032-11.257812-9.855469-23.289062-12.613282-35.875l-28.949218-28.953125c-1.335938-1.332031-2.003906-3.078125-2.003906-4.828125m27.707031-11.21875-11.222657 11.21875 11.222657 11.222656c-.261719-3.707031-.394531-7.449218-.394531-11.222656s.132812-7.511719.394531-11.21875m313.230469 0c.261718 3.707031.394531 7.445312.394531 11.21875s-.132813 7.515625-.394531 11.222656l11.222656-11.222656zm-156.617188-156.625-11.226562 11.230469c3.707031-.261719 7.453124-.394531 11.226562-.394531s7.523438.132812 11.230469.394531zm0-16.480469c-50.914062.003907-96.957031 20.625-130.328125 53.988281-33.371094 33.378907-53.992187 79.414063-53.992187 130.335938 0-1.75.667968-3.496094 2.003906-4.824219l28.949218-28.953125c2.761719-12.589844 7.03125-24.617187 12.617188-35.878906l-14.265625-14.261719c-2.664063-2.664062-2.664063-6.992187 0-9.65625 1.335937-1.332031 3.085937-1.996093 4.832031-1.996093 1.742188 0 3.492188.664062 4.824219 1.996093l11.488281 11.492188c12.945313-21.066407 30.722656-38.84375 51.785156-51.789063l-11.488281-11.488281c-2.664062-2.664063-2.664062-6.992187 0-9.65625 1.332031-1.328125 3.082031-1.996094 4.828125-1.996094s3.496094.667969 4.824219 1.996094l14.265625 14.265625c11.261719-5.585938 23.277344-9.851562 35.871094-12.617188l28.960937-28.957031c1.332031-1.332031 3.082031-1.996093 4.828125-1.996093 1.75 0 3.496094.664062 4.824219 1.996093l28.960937 28.957031c12.59375 2.761719 24.609376 7.03125 35.871094 12.617188l14.265625-14.265625c1.332031-1.328125 3.074219-1.996094 4.824219-1.996094 1.746094 0 3.496094.667969 4.828125 1.996094 2.664063 2.664063 2.664063 6.996094 0 9.65625l-11.488281 11.488281c21.0625 12.945313 38.839844 30.722656 51.785156 51.789063l11.488281-11.492188c1.332031-1.332031 3.078125-1.996093 4.824219-1.996093s3.496094.664062 4.832031 1.996093c2.660157 2.664063 2.660157 6.992188 0 9.65625l-14.265625 14.261719c5.582032 11.261719 9.855469 23.289062 12.613282 35.878906l28.953124 28.949219c1.332032 1.332031 2 3.078125 2 4.824219 0-50.921875-20.617187-96.957032-53.980468-130.332032-33.378906-33.363281-79.421875-53.984374-130.339844-53.988281" fill="#e6c377"/><path d="m197.96875 6.824219c-105.566406 0-191.148438 85.578125-191.148438 191.144531s85.582032 191.152344 191.148438 191.152344 191.148438-85.585938 191.148438-191.152344h-6.828126c0 50.917969-20.617187 96.957031-53.980468 130.332031-33.378906 33.363281-79.421875 53.980469-130.339844 53.988281-50.914062-.007812-96.957031-20.625-130.328125-53.988281-33.371094-33.375-53.992187-79.414062-53.992187-130.332031 0-.003906 0-.003906 0-.003906 0-50.917969 20.621093-96.957032 53.992187-130.332032 33.371094-33.363281 79.414063-53.984374 130.328125-53.988281 50.917969.003907 96.960938 20.625 130.339844 53.988281 33.363281 33.378907 53.980468 79.414063 53.980468 130.335938 0-.003906 0-.003906 0-.003906v.003906h6.828126c0-105.566406-85.582032-191.144531-191.148438-191.144531" fill="#54596e"/><path d="m44.601562 164.191406-28.949218 28.953125c1.332031-1.332031 3.078125-2.003906 4.824218-2.003906 1.746094 0 3.496094.671875 4.828126 2.003906l4.828124 4.824219 11.222657-11.21875c.542969-7.6875 1.636719-15.214844 3.246093-22.558594m148.542969-148.542968-28.960937 28.957031c7.339844-1.609375 14.871094-2.707031 22.558594-3.246094l11.226562-11.230469-4.824219-4.828125c-2.664062-2.664062-2.664062-6.984375 0-9.652343" fill="#e6dc61"/><path d="m231.746094 351.339844c-7.339844 1.605468-14.871094 2.703125-22.554688 3.246094l-11.222656 11.222656 4.828125 4.824218c2.667969 2.667969 2.667969 6.996094 0 9.652344-1.332031 1.335938-3.078125 1.996094-4.824219 1.996094-1.75 0-3.496094-.660156-4.832031-1.996094 1.335937 1.335938 3.082031 1.996094 4.832031 1.996094 1.746094 0 3.492188-.660156 4.824219-1.996094zm150.542968-153.375c0 1.746094-.667968 3.5-2 4.832031-1.332031 1.332031-3.078124 1.996094-4.824218 1.996094-1.75 0-3.496094-.664063-4.832032-1.996094l-4.824218-4.828125-11.222656 11.222656c-.542969 7.683594-1.640626 15.214844-3.25 22.554688l28.953124-28.949219c1.332032-1.332031 2-3.082031 2-4.832031" fill="#e6dc61"/><path d="m57.214844 267.621094-14.257813 14.261718c-2.664062 2.667969-2.664062 6.992188 0 9.660157 1.332031 1.332031 3.082031 2 4.828125 2s3.492188-.667969 4.824219-2l11.492187-11.488281c-2.480468-4.027344-4.773437-8.171876-6.886718-12.433594m229.5-226.664063c-1.746094 0-3.492188.667969-4.824219 1.996094l-14.261719 14.265625c4.253906 2.105469 8.402344 4.40625 12.425782 6.878906l11.492187-11.488281c2.660156-2.664063 2.660156-6.992187 0-9.65625-1.335937-1.328125-3.085937-1.996094-4.832031-1.996094" fill="#e6dc61"/><path d="m115.882812 331.839844-11.488281 11.484375c-2.660156 2.667969-2.660156 6.992187 0 9.664062 1.335938 1.328125 3.082031 1.996094 4.832031 1.996094 1.746094 0 3.492188-.667969 4.824219-1.996094l14.261719-14.265625c-4.253906-2.109375-8.40625-4.410156-12.429688-6.882812m232.273438-229.441406c-1.746094 0-3.492188.664062-4.824219 1.996093l-11.488281 11.492188c2.472656 4.023437 4.769531 8.171875 6.878906 12.425781l14.265625-14.261719c2.664063-2.664062 2.664063-6.996093 0-9.65625-1.335937-1.332031-3.085937-1.996093-4.832031-1.996093" fill="#e6dc61"/><path d="m351.335938 164.191406c1.609374 7.34375 2.707031 14.871094 3.25 22.558594l11.222656 11.21875 4.824218 4.828125c1.335938 1.332031 3.082032 1.996094 4.832032 1.996094 1.746094 0 3.492187-.664063 4.824218-1.996094 1.332032-1.332031 2-3.085937 2-4.832031s-.667968-3.492188-2-4.820313zm-153.363282-150.542968c-1.746094 0-3.496094.664062-4.828125 2-2.664062 2.667968-2.664062 6.988281 0 9.652343l16.054688 16.054688c7.683593.542969 15.214843 1.640625 22.554687 3.246093l-28.957031-28.953124c-1.328125-1.335938-3.078125-2-4.824219-2" fill="#e6dc61"/><path d="m164.191406 351.339844 28.949219 28.945312c1.335937 1.335938 3.082031 1.996094 4.832031 1.996094 1.746094 0 3.492188-.660156 4.824219-1.996094 2.667969-2.660156 2.667969-6.984375 0-9.652344l-4.828125-4.824218-11.21875-11.222656c-7.683594-.542969-15.214844-1.640626-22.558594-3.246094m-143.714844-160.199219c-1.746093 0-3.492187.671875-4.824218 2.003906-1.335938 1.328125-2.003906 3.074219-2.003906 4.820313s.667968 3.5 2.003906 4.832031l28.949218 28.949219c-1.609374-7.339844-2.703124-14.871094-3.25-22.554688l-11.21875-11.222656-4.828124-4.824219c-1.332032-1.332031-3.082032-2.003906-4.828126-2.003906" fill="#e6dc61"/><path d="m338.722656 267.621094c-2.109375 4.261718-4.40625 8.40625-6.882812 12.433594l11.492187 11.488281c1.332031 1.332031 3.078125 2 4.824219 2s3.492188-.667969 4.828125-2c2.664063-2.667969 2.664063-6.992188 0-9.660157zm-229.5-226.664063c-1.746094 0-3.496094.667969-4.828125 1.996094-2.664062 2.664063-2.664062 6.996094 0 9.65625l11.488281 11.488281c4.027344-2.472656 8.175782-4.773437 12.429688-6.878906l-14.265625-14.265625c-1.328125-1.328125-3.074219-1.996094-4.824219-1.996094" fill="#e6dc61"/><path d="m280.058594 331.839844c-4.023438 2.472656-8.179688 4.773437-12.429688 6.882812l14.261719 14.261719c1.332031 1.328125 3.078125 1.996094 4.824219 1.996094 1.75 0 3.496094-.667969 4.832031-1.996094 2.660156-2.667969 2.660156-6.992187 0-9.664063zm-232.273438-229.441406c-1.75 0-3.496094.664062-4.832031 1.996093-2.664063 2.664063-2.664063 6.992188 0 9.65625l14.265625 14.261719c2.109375-4.253906 4.40625-8.402344 6.878906-12.425781l-11.488281-11.492188c-1.332031-1.332031-3.078125-1.996093-4.824219-1.996093" fill="#e6dc61"/><path d="m120.878906 148.183594 12.238282-12.242188 12.238281 12.242188c2.667969 2.664062 6.988281 2.664062 9.65625 0 2.664062-2.667969 2.664062-6.992188 0-9.652344l-17.066407-17.070312c-2.667968-2.667969-6.988281-2.667969-9.65625 0l-17.066406 17.066406c-2.667968 2.664062-2.667968 6.988281 0 9.65625 2.664063 2.664062 6.988282 2.664062 9.65625.003906zm0 0" fill="#54596e"/></svg>