<svg height="423pt" viewBox="0 -79 423.25025 423" width="423pt" xmlns="http://www.w3.org/2000/svg"><path d="m129.699219 175.441406-34.132813 40.953125s61.445313 61.441407 163.839844 34.132813z" fill="#9af43b"/><path d="m124.460938 171.066406-34.132813 40.960938c-2.261719 2.703125-2.070313 6.703125.414063 9.195312.355468.347656 11.105468 11.054688 31.042968 21.753906 19.925782 10.691407 49.105469 21.375 85.953125 21.367188 16.378907.007812 34.246094-2.105469 53.433594-7.21875 3.636719-.972656 5.804687-4.707031 4.832031-8.351562-.96875-3.644532-4.710937-5.804688-8.347656-4.835938-18.058594 4.804688-34.714844 6.757812-49.917969 6.765625-34.183593-.007813-61.09375-9.886719-79.5-19.757813-9.191406-4.933593-16.242187-9.855468-20.945312-13.511718-2.351563-1.828125-4.121094-3.34375-5.28125-4.367188l-1.269531-1.167968-.296876-.277344-.050781-.058594-.707031.722656.707031-.71875v-.003906l-.707031.722656.707031-.71875-4.828125 4.828125 5.25 4.375 34.132813-40.964843c2.410156-2.898438 2.015625-7.207032-.875-9.617188-2.898438-2.414062-7.203125-2.011719-9.613281.878906" fill="#54596e"/><path d="m136.53125 86.691406-34.132812-27.308594s81.917968-81.917968 177.492187-40.957031" fill="#9af43b"/><path d="m140.796875 81.355469-34.132813-27.304688-4.265624 5.332031 4.824218 4.828126.101563-.101563c1.292969-1.273437 14.542969-14 35.546875-26.277344 21.011718-12.300781 49.679687-24.074219 81.859375-24.054687 16.625.007812 34.222656 3.097656 52.46875 10.917968 3.464843 1.484376 7.476562-.117187 8.964843-3.582031 1.484376-3.46875-.117187-7.480469-3.582031-8.964843-19.984375-8.574219-39.527343-12.03125-57.851562-12.023438-36.691407.019531-68.375 13.6875-90.894531 27.1875-22.527344 13.523438-35.996094 26.976562-36.265626 27.238281-1.382812 1.378907-2.097656 3.257813-1.988281 5.207031.105469 1.949219 1.027344 3.734376 2.550781 4.953126l34.132813 27.308593c2.945313 2.351563 7.238281 1.875 9.59375-1.066406 2.355469-2.945313 1.878906-7.242187-1.0625-9.59375zm0 0" fill="#54596e"/><path d="m266.238281 11.601562c-61.511719 0-145.292969 54.5-174.085937 96.816407-6.410156 9.414062-18.933594 12.304687-28.628906 6.332031l-56.699219-34.882812 14.074219 28.988281c4.207031 16.824219 4.207031 34.425781 0 51.238281l-14.074219 28.996094 55.570312-34.1875c9.726563-5.988282 22.679688-3.300782 28.6875 6.40625 27.6875 44.777344 112.839844 96.046875 175.160157 96.046875 75.402343 0 136.527343-55.011719 136.527343-122.878907 0-67.867187-61.128906-122.875-136.53125-122.875" fill="#9af43b"/><path d="m266.238281 11.601562v-6.832031c-32.746093.066407-69.808593 14.195313-102.765625 33.476563-32.9375 19.382812-61.601562 43.847656-76.96875 66.332031-2.855468 4.191406-7.425781 6.453125-12.042968 6.453125-2.515626 0-5.027344-.664062-7.363282-2.097656l-56.699218-34.890625c-2.582032-1.589844-5.910157-1.28125-8.152344.753906-2.2539065 2.03125-2.886719 5.316406-1.558594 8.046875l14.074219 28.992188 6.136719-2.984376-6.621094 1.65625c1.96875 7.871094 2.953125 15.910157 2.953125 23.960938s-.988281 16.101562-2.953125 23.964844l6.621094 1.660156-6.136719-2.980469-14.074219 28.996094c-1.324219 2.726563-.6953125 6.007813 1.558594 8.039063 2.242187 2.035156 5.578125 2.34375 8.152344.753906l55.570312-34.195313c2.371094-1.464843 5.007812-2.160156 7.621094-2.160156 4.726562.019531 9.148437 2.242187 11.691406 6.347656 14.894531 23.960938 43.757812 48.265625 77.03125 67.167969 33.304688 18.800781 70.921875 32.0625 103.925781 32.109375 39.367188 0 75.117188-14.347656 101.109375-37.734375 25.988282-23.359375 42.257813-55.9375 42.25-91.964844.007813-36.019531-16.261718-68.601562-42.25-91.964844-25.992187-23.390624-61.742187-37.742187-101.109375-37.742187v13.65625c36.039063 0 68.550781 13.15625 91.976563 34.238281 23.433594 21.113282 37.722656 49.964844 37.730468 81.816406-.007812 31.84375-14.296874 60.699219-37.730468 81.8125-23.425782 21.089844-55.9375 34.238282-91.976563 34.238282-29.3125.058594-65.425781-12.320313-97.199219-30.347656-31.800781-17.933594-59.359374-41.644532-72.144531-62.464844-5.195312-8.386719-14.238281-12.835938-23.304687-12.816406-5.058594-.007813-10.203125 1.363281-14.78125 4.1875l-35.617188 21.914062 3.847656-7.921875.480469-1.328125c2.238281-8.957031 3.359375-18.121094 3.359375-27.277344s-1.121094-18.320312-3.359375-27.273437l-.480469-1.320313-3.847656-7.929687 36.753906 22.625c4.515626 2.769531 9.5625 4.121093 14.515626 4.109375 9.066406.011718 17.90625-4.449219 23.335937-12.421875 13.425781-19.839844 41.050781-43.785157 72.585937-62.234375 31.507813-18.546875 67.09375-31.667969 95.855469-31.601563z" fill="#54596e"/><path d="m6.824219 79.863281 1.664062 3.414063.886719-1.847656z" fill="#54596e"/><path d="m117.585938 89.445312c-8.144532 7.839844-14.90625 15.601563-19.789063 22.8125-5.429687 7.972657-14.269531 12.433594-23.335937 12.421876-.011719 0-.027344 0-.039063 0-4.941406 0-9.972656-1.34375-14.476563-4.109376l-36.753906-22.625 3.847656 7.929688.480469 1.320312c2.238281 8.953126 3.359375 18.117188 3.359375 27.273438s-1.121094 18.320312-3.359375 27.28125l-.480469 1.324219-3.847656 7.921875 35.617188-21.910156c4.5625-2.816407 9.691406-4.1875 14.738281-4.1875h.039063.070312c9.042969 0 18.050781 4.445312 23.234375 12.8125 12.785156 20.820312 40.34375 44.535156 72.144531 62.46875 31.699219 17.984374 67.710938 30.347656 96.988282 30.347656h.210937c36.039063 0 68.554687-13.148438 91.976563-34.238282.988281-.890624 1.960937-1.796874 2.914062-2.710937l-47.105469-17.667969-47.785156-40.953125c-48.300781.003907-110.296875-30.800781-148.648437-65.511719" fill="#8cd545"/><path d="m12.371094 83.277344-2.996094 1.84375 11.519531 23.730468c4.207031 16.824219 4.207031 34.429688 0 51.242188l-14.074219 28.996094 55.570313-34.191406c3.472656-2.140626 7.363281-3.167969 11.195313-3.167969 6.898437 0 13.628906 3.335937 17.492187 9.574219 27.6875 44.78125 112.84375 96.050781 175.160156 96.050781 47.78125 0 48.105469-.242188 102.398438-40.964844l-7.507813-2.8125c-.953125.914063-1.925781 1.820313-2.914062 2.710937-23.425782 21.089844-55.9375 34.238282-91.976563 34.238282-.070312 0-.140625 0-.210937 0-29.277344 0-65.289063-12.359375-96.988282-30.347656-31.800781-17.933594-59.359374-41.644532-72.144531-62.464844-5.183593-8.367188-14.195312-12.816406-23.234375-12.816406-.023437 0-.046875 0-.070312 0-.011719 0-.027344 0-.039063 0-5.046875 0-10.175781 1.371093-14.738281 4.1875l-35.621094 21.914062 3.847656-7.921875.480469-1.328125c2.238281-8.957031 3.359375-18.121094 3.359375-27.277344s-1.121094-18.320312-3.359375-27.273437l-.480469-1.320313-3.847656-7.929687 36.753906 22.625c4.503907 2.765625 9.535157 4.109375 14.476563 4.109375h.039063c9.066406.011718 17.90625-4.449219 23.335937-12.421875 4.882813-7.214844 11.644531-14.972657 19.785156-22.8125-1.703125-1.542969-3.359375-3.09375-4.96875-4.648438-8.273437 8.003907-15.285156 16.007813-20.464843 23.621094-4.144532 6.085937-10.84375 9.445313-17.6875 9.445313-3.734376 0-7.515626-1.003907-10.941407-3.113282z" fill="#54596e"/><path d="m259.410156 120.824219c9.253906 43.191406 33.832032 65.199219 58 76.351562 29.308594 13.527344 58.007813 11.085938 58.007813 11.085938s34.179687-5.519531 41.007812-60.132813h-40.960937" fill="#9af43b"/><path d="m252.734375 122.253906c4.828125 22.570313 13.792969 39.988282 24.855469 53.148438 11.054687 13.175781 24.128906 22.054687 36.957031 27.972656 22.894531 10.539062 45 11.867188 55.339844 11.878906 3.726562 0 5.929687-.171875 6.089843-.183594l.527344-.066406c.832032-.136718 10.65625-1.863281 21.347656-11.183594 10.707032-9.292968 21.8125-26.1875 25.347657-54.839843.242187-1.9375-.367188-3.90625-1.65625-5.367188-1.289063-1.464843-3.167969-2.308593-5.117188-2.308593h-40.960937c-3.769532 0-6.828125 3.050781-6.828125 6.824218 0 3.773438 3.058593 6.828125 6.828125 6.828125l40.960937-.003906v-6.824219l-6.773437-.847656c-3.296875 25.960938-12.695313 39.132812-20.78125 46.253906-4.066406 3.550782-7.890625 5.574219-10.617188 6.707032-1.363281.5625-2.453125.898437-3.144531 1.089843l-.730469.179688-.117187.023437.5 2.683594-.433594-2.691406-.066406.007812.5 2.683594-.4375-2.691406 1.089843 6.738281-.5625-6.808594-.03125.003907c-.289062.023437-2.050781.144531-4.933593.144531-9.128907.015625-29.441407-1.285157-49.621094-10.628907-11.335937-5.234374-22.632813-12.933593-32.222656-24.351562-9.585938-11.429688-17.535157-26.613281-21.960938-47.234375-.792969-3.6875-4.421875-6.035156-8.109375-5.242187-3.6875.789062-6.035156 4.421874-5.242187 8.109374zm0 0" fill="#54596e"/><path d="m341.332031 93.515625c-.007812-11.316406-9.167969-20.476563-20.480469-20.476563s-20.476562 9.160157-20.480468 20.476563c0 3.773437 3.054687 6.828125 6.828125 6.828125 3.769531 0 6.824219-3.054688 6.824219-6.828125.007812-3.765625 3.0625-6.816406 6.828124-6.828125 3.765626.011719 6.820313 3.0625 6.824219 6.828125 0 3.773437 3.058594 6.828125 6.828125 6.828125 3.769532 0 6.828125-3.054688 6.828125-6.828125zm0 0" fill="#54596e"/><path d="m194.457031 65.351562.410157-.222656c2.203124-1.191406 13.132812-6.910156 28.179687-12.28125 15.039063-5.382812 34.210937-10.363281 52.640625-10.34375 7.863281 0 15.574219.886719 22.800781 2.960938 3.625 1.039062 7.402344-1.054688 8.441407-4.679688 1.039062-3.621094-1.054688-7.402344-4.679688-8.4375-8.703125-2.496094-17.679688-3.496094-26.5625-3.496094-22.222656.023438-43.992188 6.199219-60.363281 12.28125-16.355469 6.101563-27.289063 12.171876-27.496094 12.28125-3.300781 1.832032-4.488281 5.988282-2.65625 9.285157s5.988281 4.484375 9.285156 2.65625zm0 0" fill="#fff"/></svg>