<svg height="395pt" viewBox="-78 0 395 395.9479" width="395pt" xmlns="http://www.w3.org/2000/svg"><path d="m191.625 389.121094 40.957031-27.308594v-266.238281l-27.304687-20.480469-13.652344 34.132812zm0 0" fill="#d8d8d8"/><path d="m191.625 389.121094 3.785156 5.679687 40.960938-27.308593c1.898437-1.265626 3.039062-3.398438 3.039062-5.679688v-266.238281c0-2.148438-1.015625-4.179688-2.730468-5.464844l-27.304688-20.480469c-1.699219-1.273437-3.898438-1.679687-5.941406-1.109375-2.039063.570313-3.707032 2.066407-4.496094 4.039063l-13.652344 34.132812c-.320312.796875-.488281 1.671875-.488281 2.535156v279.894532c0 2.523437 1.378906 4.824218 3.605469 6.015625 2.226562 1.191406 4.90625 1.0625 7.007812-.335938l-3.785156-5.679687h6.824219v-278.582032l9.859375-24.640624 17.445312 13.085937v259.171875l-37.917968 25.28125 3.789062 5.683594h6.824219zm0 0" fill="#54596e"/><path d="m7.304688 109.226562h184.320312v279.894532h-184.320312zm0 0" fill="#fff"/><path d="m191.625 389.121094v-6.828125h-177.496094v-266.246094h170.667969v273.074219h6.828125v-6.828125 6.828125h6.824219v-279.894532c0-1.800781-.726563-3.554687-2-4.828124-1.269531-1.269532-3.027344-2-4.824219-2h-184.320312c-1.796876 0-3.558594.730468-4.828126 2-1.269531 1.273437-2 3.027343-2 4.828124v279.894532c0 1.820312.710938 3.535156 2 4.824218 1.292969 1.292969 3.003907 1.996094 4.828126 1.996094h184.320312c1.820312 0 3.535156-.703125 4.824219-1.996094 1.292969-1.289062 2-3.003906 2-4.824218zm0 0" fill="#54596e"/><path d="m191.625 109.226562h-184.320312l40.960937-61.441406h136.53125l20.480469 30.722656zm0 0" fill="#d8d8d8"/><path d="m191.625 109.226562v-6.828124h-171.566406l31.863281-47.792969h129.21875l16.375 24.5625-12.128906 27.285156 6.238281 2.773437v-6.828124 6.828124l6.238281 2.769532 13.652344-30.71875c.953125-2.152344.746094-4.605469-.558594-6.5625l-20.480469-30.71875c-1.265624-1.898438-3.398437-3.035156-5.679687-3.035156h-136.53125c-2.285156 0-4.414063 1.136718-5.679687 3.035156l-40.960938 61.441406c-1.402344 2.097656-1.53125 4.78125-.339844 7.007812 1.195313 2.226563 3.496094 3.601563 6.019532 3.601563h184.320312c2.695312 0 5.144531-1.589844 6.238281-4.050781zm0 0" fill="#54596e"/><path d="m205.277344 75.09375h-177.492188l13.144532-68.265625h151.199218zm0 0" fill="#fff"/><path d="m205.277344 75.09375v-6.828125h-169.226563l10.515625-54.617187h139.925782l12.078124 62.734374 6.707032-1.289062v-6.828125 6.828125l6.703125-1.292969-13.144531-68.269531c-.621094-3.21875-3.429688-5.53125-6.707032-5.53125h-151.199218c-3.277344 0-6.082032 2.3125-6.703126 5.53125l-13.144531 68.269531c-.390625 2.007813.132813 4.058594 1.4375 5.640625 1.308594 1.578125 3.214844 2.476563 5.265625 2.476563h177.492188c2.046875 0 3.960937-.898438 5.261718-2.476563 1.304688-1.582031 1.828126-3.632812 1.441407-5.640625zm0 0" fill="#54596e"/><path d="m7.304688 157.011719h184.320312v150.1875h-184.320312zm0 0" fill="#a1b7ff"/><g fill="#54596e"><path d="m191.625 307.199219v-6.824219h-177.496094v-136.542969h170.667969v143.367188h6.828125v-6.824219 6.824219h6.824219v-150.1875c0-1.800781-.726563-3.554688-2-4.828125-1.269531-1.269532-3.027344-1.996094-4.824219-1.996094h-184.320312c-1.796876 0-3.558594.726562-4.828126 1.996094-1.269531 1.273437-2 3.027344-2 4.828125v150.1875c0 1.824219.710938 3.535156 2 4.828125 1.292969 1.289062 3.003907 1.996094 4.828126 1.996094h184.320312c1.820312 0 3.535156-.707032 4.824219-1.996094 1.292969-1.292969 2-3.003906 2-4.828125zm0 0"/><path d="m147.660156 187.320312c-4-3.996093-10.480468-3.996093-14.480468 0-3.996094 4-3.996094 10.480469 0 14.480469 4 3.996094 10.480468 3.996094 14.480468 0 3.996094-4 3.996094-10.480469 0-14.480469zm0 0"/><path d="m58.914062 187.320312c-4-4-10.480468-4-14.480468 0-3.996094 4-3.996094 10.480469 0 14.480469 4 3.996094 10.480468 3.996094 14.480468 0 3.996094-4 3.996094-10.480469 0-14.480469zm0 0"/><path d="m123.546875 239.328125c-6.316406-.855469-12.34375-.265625-17.425781 1.339844-6.382813 2.019531-13.757813 2.019531-20.140625 0-5.078125-1.605469-11.109375-2.195313-17.421875-1.339844-9.773438 1.320313-17.652344 6.320313-19.699219 12.492187-3.539063 10.636719 9.230469 20.007813 25.472656 20.007813 4.480469 0 8.691407-.714844 12.371094-1.972656 5.777344-1.96875 12.921875-1.96875 18.695313 0 3.679687 1.257812 7.894531 1.972656 12.371093 1.972656 16.242188 0 29.011719-9.371094 25.476563-20.007813-2.050782-6.171874-9.929688-11.171874-19.699219-12.492187zm0 0"/></g></svg>