<svg height="395pt" viewBox="0 -20 395.94667 395" width="395pt" xmlns="http://www.w3.org/2000/svg"><path d="m240.164062 349.582031h-84.382812c-48.328125 0-87.515625-39.183593-87.515625-87.519531v-55.84375h259.414063v55.84375c0 48.335938-39.1875 87.519531-87.515626 87.519531" fill="#fff35f"/><path d="m240.164062 349.582031v-6.828125h-84.382812c-22.296875-.007812-42.433594-9.023437-57.050781-23.632812-14.617188-14.628906-23.636719-34.757813-23.636719-57.0625v-49.019532h245.753906v49.019532c0 22.304687-9.015625 42.433594-23.636718 57.0625-14.617188 14.609375-34.753907 23.625-57.050782 23.632812v13.652344c52.105469-.007812 94.339844-42.238281 94.347656-94.34375v-55.84375c0-1.800781-.734374-3.558594-2.003906-4.828125-1.269531-1.269531-3.027344-1.992187-4.828125-1.992187h-259.410156c-1.800781 0-3.558594.722656-4.828125 1.992187s-2 3.027344-2 4.828125v55.84375c.007812 52.105469 42.238281 94.335938 94.34375 94.34375h84.382812z" fill="#54596e"/><path d="m320.851562 213.039062h-245.753906v34.140626h245.753906z" fill="#eee361"/><path d="m327.679688 206.21875h-259.414063v40.960938h6.832031v-34.140626h245.753906v34.140626h6.828126z" fill="#54596e"/><path d="m171.253906 285.007812c5.191406 9.773438 15.070313 16.777344 26.671875 16.78125 11.492188-.003906 21.292969-6.871093 26.515625-16.492187 1.808594-3.308594.597656-7.457031-2.710937-9.265625-3.308594-1.8125-7.457031-.597656-9.265625 2.710938-3.285156 5.925781-8.683594 9.402343-14.539063 9.398437-5.902343.007813-11.371093-3.550781-14.632812-9.574219-1.78125-3.328125-5.917969-4.578125-9.242188-2.800781-3.324219 1.78125-4.578125 5.917969-2.796875 9.246094zm0 0" fill="#54596e"/><path d="m389.121094 197.746094c-.035156-8.246094-.589844-16.613282-1.714844-25.078125-11.535156-86.914063-82.753906-155.792969-170.007812-164.398438-114.292969-11.277343-210.570313 78.210938-210.570313 190.1875v.296875c.027344 15.730469 14.230469 27.707032 29.851563 25.886719l76.035156-8.878906c56.644531-6.613281 113.871094-6.613281 170.519531 0l75.980469 8.871093c16.023437 1.867188 29.964844-10.75 29.90625-26.886718zm0 0" fill="#ffd578"/><g fill="#54596e"><path d="m389.121094 197.746094 6.824218-.03125c-.03125-8.53125-.605468-17.191406-1.773437-25.953125-11.988281-90.097657-85.644531-161.332031-176.101563-170.292969-6.761718-.664062-13.464843-1-20.101562-.996094-109.339844.003906-197.96484375 88.632813-197.96875 197.984375v.296875c.0078125 9.285156 3.964844 17.605469 10.089844 23.457032 6.117187 5.867187 14.449218 9.425781 23.4375 9.429687 1.320312 0 2.621094-.078125 3.898437-.21875l.046875-.003906 76.03125-8.875c28.0625-3.28125 56.265625-4.917969 84.46875-4.917969s56.410156 1.640625 84.46875 4.917969l75.980469 8.867187c1.355469.15625 2.667969.222656 3.941406.222656 18.417969-.003906 33.582031-15.03125 33.582031-33.886718v-.03125l-6.824218.03125h-6.828125c-.019531 11.355468-9.097657 20.210937-19.929688 20.234375-.804687-.003907-1.589843-.042969-2.359375-.132813l-75.980468-8.871094c-28.585938-3.335937-57.316407-5.007812-86.050782-5.003906-28.730468-.003906-57.464844 1.664063-86.050781 5.003906l-76.03125 8.875h.042969c-.835938.09375-1.640625.136719-2.40625.136719-5.339844.003907-10.34375-2.136719-13.988282-5.632812-3.640624-3.511719-5.867187-8.226563-5.886718-13.617188v-.285156c.003906-50.929687 20.621094-96.964844 53.984375-130.339844 33.375-33.367187 79.410156-53.984375 130.332031-53.992187 6.179688.003906 12.4375.3125 18.757812.9375 84.050782 8.253906 152.835938 74.777344 163.914063 158.503906 1.085937 8.175781 1.621094 16.25 1.652344 24.210938v-.027344zm0 0"/><path d="m150.1875 254.007812c0 7.539063-6.113281 13.652344-13.652344 13.652344-7.542968 0-13.65625-6.113281-13.65625-13.652344 0-7.542968 6.113282-13.652343 13.65625-13.652343 7.539063 0 13.652344 6.109375 13.652344 13.652343zm0 0"/><path d="m273.066406 254.007812c0 7.539063-6.113281 13.652344-13.652344 13.652344-7.542968 0-13.652343-6.113281-13.652343-13.652344 0-7.542968 6.109375-13.652343 13.652343-13.652343 7.539063 0 13.652344 6.109375 13.652344 13.652343zm0 0"/></g><path d="m129.707031 291.554688c0 5.65625-4.585937 10.238281-10.242187 10.238281-5.652344 0-10.238282-4.582031-10.238282-10.238281s4.585938-10.242188 10.238282-10.242188c5.65625 0 10.242187 4.585938 10.242187 10.242188zm0 0" fill="#ffd578"/><path d="m286.71875 291.554688c0 5.65625-4.582031 10.238281-10.238281 10.238281s-10.242188-4.582031-10.242188-10.238281 4.585938-10.242188 10.242188-10.242188 10.238281 4.585938 10.238281 10.242188zm0 0" fill="#ffd578"/><path d="m33.332031 101.335938c6.605469 5.78125 15.226563 9.3125 24.695313 9.3125 20.730468 0 37.546875-16.8125 37.546875-37.546876 0-10.949218-4.714844-20.769531-12.1875-27.628906-20.132813 15.109375-37.1875 34.101563-50.054688 55.863282zm0 0" fill="#ffb8f2"/><path d="m33.332031 101.335938-4.496093 5.136718c7.773437 6.8125 18.011718 11.003906 29.191406 10.996094 24.503906 0 44.367187-19.859375 44.371094-44.367188.003906-12.933593-5.589844-24.585937-14.394532-32.65625-2.417968-2.21875-6.09375-2.40625-8.714844-.433593-20.851562 15.644531-38.507812 35.308593-51.832031 57.847656-1.671875 2.820313-1.085937 6.453125 1.378907 8.613281l4.496093-5.136718 5.875 3.472656c12.410157-20.984375 28.859375-39.308594 48.277344-53.875l-4.097656-5.457032-4.617188 5.023438c6.140625 5.652344 9.972657 13.636719 9.976563 22.601562-.003906 8.5-3.429688 16.140626-9 21.71875-5.578125 5.570313-13.21875 8.996094-21.71875 9-7.753906-.007812-14.757813-2.875-20.199219-7.625l-4.496094 5.140626 5.875 3.472656zm0 0" fill="#54596e"/><path d="m177.492188 144.78125c0 18.851562-15.28125 34.132812-34.132813 34.132812s-34.132813-15.28125-34.132813-34.132812 15.28125-34.132812 34.132813-34.132812 34.132813 15.28125 34.132813 34.132812zm0 0" fill="#ffb8f2"/><path d="m177.492188 144.78125h6.828124c-.003906-22.628906-18.335937-40.957031-40.960937-40.960938-22.625.003907-40.957031 18.332032-40.960937 40.960938.003906 22.621094 18.335937 40.953125 40.960937 40.957031 22.625-.003906 40.957031-18.335937 40.960937-40.957031h-13.652343c-.003907 7.5625-3.046875 14.34375-8 19.304688-4.960938 4.953124-11.742188 7.996093-19.308594 8-7.5625-.003907-14.34375-3.046876-19.308594-8-4.949219-4.960938-7.992187-11.742188-7.996093-19.304688.003906-7.566406 3.046874-14.351562 7.996093-19.308594 4.964844-4.953125 11.746094-7.996094 19.308594-8.003906 7.566406.007812 14.347656 3.046875 19.308594 8.003906 4.953125 4.957032 7.996093 11.742188 8 19.308594zm0 0" fill="#54596e"/><path d="m265.355469 19.542969c-7.847657 7.464843-12.769531 17.980469-12.769531 29.664062 0 22.621094 18.339843 40.960938 40.960937 40.960938 17.925781 0 33.125-11.535157 38.679687-27.574219-18.925781-18.691406-41.652343-33.507812-66.871093-43.050781zm0 0" fill="#ffb8f2"/><path d="m265.355469 19.542969-4.707031-4.945313c-9.128907 8.671875-14.890626 20.984375-14.886719 34.609375.003906 26.394531 21.390625 47.78125 47.785156 47.785157 20.921875-.011719 38.660156-13.457032 45.132813-32.164063.859374-2.492187.21875-5.246094-1.65625-7.09375-19.585938-19.34375-43.113282-34.6875-69.253907-44.578125-2.445312-.925781-5.226562-.363281-7.121093 1.441406l4.707031 4.945313-2.417969 6.382812c24.300781 9.199219 46.226562 23.480469 64.492188 41.523438l4.796874-4.855469-6.453124-2.238281c-4.636719 13.371093-17.296876 22.992187-32.226563 22.984375-9.445313-.007813-17.9375-3.8125-24.136719-10-6.1875-6.199219-9.992187-14.691406-9.996094-24.132813.003907-9.75 4.078126-18.464843 10.644532-24.722656l-4.703125-4.941406-2.417969 6.382812zm0 0" fill="#54596e"/><path d="m327.679688 158.433594c0 11.3125-9.167969 20.480468-20.480469 20.480468-11.308594 0-20.480469-9.167968-20.480469-20.480468 0-11.308594 9.171875-20.480469 20.480469-20.480469 11.3125 0 20.480469 9.171875 20.480469 20.480469zm0 0" fill="#ffb8f2"/><path d="m327.679688 158.433594h6.828124c-.003906-15.082032-12.222656-27.304688-27.308593-27.304688-15.085938 0-27.300781 12.222656-27.304688 27.304688.003907 15.082031 12.21875 27.300781 27.304688 27.304687 15.085937-.003906 27.304687-12.222656 27.308593-27.304687h-13.65625c-.011718 7.535156-6.113281 13.636718-13.652343 13.652344-7.539063-.015626-13.640625-6.117188-13.652344-13.652344.011719-7.539063 6.113281-13.640625 13.652344-13.65625 7.539062.015625 13.640625 6.117187 13.652343 13.65625zm0 0" fill="#54596e"/></svg>