<svg height="430pt" viewBox="-31 0 430 430.07659" width="430pt" xmlns="http://www.w3.org/2000/svg"><path d="m347.726562 423.253906h-231.160156c-7.800781 0-14.125-6.324218-14.125-14.125v-108.753906h259.410156v108.753906c0 7.800782-6.328124 14.125-14.125 14.125zm0 0" fill="#ffd578"/><path d="m347.726562 423.253906v-6.828125h-231.160156c-4.027344-.007812-7.292968-3.273437-7.300781-7.296875v-101.9375h245.757813v101.9375c-.003907 4.023438-3.269532 7.289063-7.296876 7.296875v13.652344c11.570313-.003906 20.945313-9.375 20.953126-20.949219v-108.753906c0-1.800781-.730469-3.558594-2-4.832031-1.269532-1.269531-3.027344-1.996094-4.828126-1.996094h-259.410156c-1.796875 0-3.558594.726563-4.828125 1.996094-1.273437 1.273437-2 3.03125-2 4.832031v108.753906c.003907 11.574219 9.382813 20.945313 20.953125 20.949219h231.160156zm0 0" fill="#54596e"/><path d="m102.4375 300.375h259.414062l-34.132812-40.960938v-40.960937h-191.148438v40.960937zm0 0" fill="#fff"/><path d="m102.4375 300.375v6.820312h259.414062c2.652344 0 5.054688-1.527343 6.179688-3.929687 1.128906-2.402344.765625-5.230469-.9375-7.265625l-32.550781-39.066406v-38.480469c0-1.800781-.726563-3.558594-2-4.832031-1.269531-1.269532-3.027344-1.996094-4.824219-1.996094h-191.148438c-1.796874 0-3.554687.726562-4.828124 1.996094-1.269532 1.273437-1.996094 3.03125-1.996094 4.832031v38.480469l-32.550782 39.066406c-1.703124 2.035156-2.066406 4.863281-.941406 7.265625 1.128906 2.40625 3.527344 3.929687 6.183594 3.929687v-6.820312l5.246094 4.367188 34.132812-40.957032c1.027344-1.238281 1.582032-2.765625 1.582032-4.371094v-34.140624h177.492187v34.140624c0 1.601563.554687 3.132813 1.582031 4.371094l24.800782 29.761719h-244.835938v6.828125l5.246094 4.367188zm0 0" fill="#54596e"/><path d="m252.625 136.535156c7.539062 0 13.652344-6.113281 13.652344-13.65625v-81.917968c0-7.539063-6.113282-13.652344-13.652344-13.652344s-13.652344 6.113281-13.652344 13.652344v81.917968c0 7.542969 6.113282 13.65625 13.652344 13.65625zm0 0" fill="#ffd578"/><path d="m252.625 136.535156v6.820313c11.3125-.003907 20.476562-9.160157 20.480469-20.476563v-81.917968c-.003907-11.316407-9.167969-20.476563-20.480469-20.480469-11.3125.003906-20.476562 9.164062-20.480469 20.480469v81.917968c.003907 11.316406 9.167969 20.472656 20.480469 20.476563v-13.648438c-3.765625-.011719-6.820312-3.0625-6.828125-6.828125v-81.917968c.007813-3.765626 3.0625-6.820313 6.828125-6.832032 3.765625.011719 6.820312 3.066406 6.828125 6.832032v81.917968c-.007813 3.765625-3.0625 6.816406-6.828125 6.828125zm0 0" fill="#54596e"/><path d="m198.011719 136.535156c7.539062 0 13.652343-6.113281 13.652343-13.65625v-81.917968c0-7.539063-6.113281-13.652344-13.652343-13.652344-7.539063 0-13.652344 6.113281-13.652344 13.652344v81.917968c0 7.542969 6.113281 13.65625 13.652344 13.65625zm0 0" fill="#ffd578"/><path d="m198.011719 136.535156v6.820313c11.3125-.003907 20.476562-9.160157 20.480469-20.476563v-81.917968c-.003907-11.316407-9.167969-20.476563-20.480469-20.480469-11.3125.003906-20.476563 9.164062-20.480469 20.480469v81.917968c.003906 11.316406 9.167969 20.472656 20.480469 20.476563v-13.648438c-3.765625-.011719-6.820313-3.0625-6.828125-6.828125v-81.917968c.007812-3.765626 3.0625-6.820313 6.828125-6.832032 3.765625.011719 6.820312 3.066406 6.828125 6.832032v81.917968c-.007813 3.765625-3.0625 6.816406-6.828125 6.828125zm0 0" fill="#54596e"/><path d="m225.316406 157.011719c7.542969 0 13.65625-6.113281 13.65625-13.652344v-122.878906c0-7.539063-6.113281-13.652344-13.65625-13.652344-7.539062 0-13.652344 6.113281-13.652344 13.652344v122.878906c0 7.539063 6.113282 13.652344 13.652344 13.652344zm0 0" fill="#ffd578"/><path d="m225.316406 157.011719v6.824219c11.316406-.003907 20.476563-9.164063 20.480469-20.476563v-122.878906c-.003906-11.316407-9.164063-20.47656275-20.480469-20.480469-11.3125.00390625-20.472656 9.164062-20.476562 20.480469v122.878906c.003906 11.3125 9.164062 20.472656 20.476562 20.476563v-13.648438c-3.765625-.011719-6.816406-3.0625-6.824218-6.828125v-122.878906c.007812-3.765625 3.058593-6.820313 6.824218-6.832031 3.769532.011718 6.820313 3.066406 6.828125 6.832031v122.878906c-.007812 3.765625-3.058593 6.816406-6.828125 6.828125zm0 0" fill="#54596e"/><path d="m279.929688 116.054688c7.542968 0 13.65625-6.113282 13.65625-13.65625v-40.957032c0-7.542968-6.113282-13.65625-13.65625-13.65625-7.539063 0-13.652344 6.113282-13.652344 13.65625v40.957032c0 7.542968 6.113281 13.65625 13.652344 13.65625zm0 0" fill="#ffd578"/><path d="m279.929688 116.054688v6.820312c11.316406 0 20.476562-9.160156 20.480468-20.476562v-40.957032c-.003906-11.316406-9.164062-20.476562-20.480468-20.480468-11.3125.003906-20.472657 9.164062-20.476563 20.480468v40.957032c.003906 11.316406 9.164063 20.476562 20.476563 20.476562v-13.648438c-3.765626-.011718-6.816407-3.0625-6.824219-6.828124v-40.957032c.007812-3.769531 3.058593-6.820312 6.824219-6.832031 3.769531.011719 6.820312 3.0625 6.828124 6.832031v40.957032c-.007812 3.765624-3.058593 6.816406-6.828124 6.828124zm0 0" fill="#54596e"/><path d="m170.703125 116.054688c7.542969 0 13.65625-6.113282 13.65625-13.65625v-40.957032c0-7.542968-6.113281-13.65625-13.65625-13.65625-7.539063 0-13.652344 6.113282-13.652344 13.65625v40.957032c0 7.542968 6.113281 13.65625 13.652344 13.65625zm0 0" fill="#ffd578"/><path d="m170.703125 116.054688v6.820312c11.316406 0 20.476563-9.160156 20.480469-20.476562v-40.957032c-.003906-11.316406-9.164063-20.476562-20.480469-20.480468-11.3125.003906-20.472656 9.164062-20.476563 20.480468v40.957032c.003907 11.316406 9.164063 20.476562 20.476563 20.476562v-13.648438c-3.765625-.011718-6.816406-3.0625-6.824219-6.828124v-40.957032c.007813-3.769531 3.058594-6.820312 6.824219-6.832031 3.769531.011719 6.820313 3.0625 6.828125 6.832031v40.957032c-.007812 3.765624-3.058594 6.816406-6.828125 6.828124zm0 0" fill="#54596e"/><path d="m157.050781 75.09375h-20.480469c-3.769531 0-6.824218 3.054688-6.824218 6.828125 0 3.769531 3.054687 6.824219 6.824218 6.824219h20.480469c3.769531 0 6.828125-3.054688 6.828125-6.824219 0-3.773437-3.058594-6.828125-6.828125-6.828125" fill="#54596e"/><path d="m20.519531 95.574219h95.570313c7.542968 0 13.65625-6.113281 13.65625-13.652344 0-7.542969-6.113282-13.65625-13.65625-13.65625h-95.570313c-7.542969 0-13.65625 6.113281-13.65625 13.65625 0 7.539063 6.113281 13.652344 13.65625 13.652344zm0 0" fill="#ff927d"/><g fill="#54596e"><path d="m20.519531 95.574219v6.824219h95.570313c11.316406-.003907 20.476562-9.164063 20.480468-20.476563-.003906-11.320313-9.164062-20.476563-20.480468-20.480469h-95.570313c-11.316406.003906-20.4765622 9.160156-20.4804685 20.480469.0039063 11.3125 9.1640625 20.472656 20.4804685 20.476563v-13.652344c-3.769531-.007813-6.820312-3.0625-6.828125-6.824219.007813-3.769531 3.058594-6.820313 6.828125-6.832031h95.570313c3.769531.011718 6.820312 3.0625 6.828125 6.832031-.007813 3.761719-3.058594 6.816406-6.828125 6.824219h-95.570313zm0 0"/><path d="m259.453125 170.667969v20.480469c0 3.769531 3.054687 6.824218 6.824219 6.824218 3.769531 0 6.828125-3.054687 6.828125-6.824218v-20.480469c0-3.773438-3.058594-6.828125-6.828125-6.828125-3.769532 0-6.824219 3.054687-6.824219 6.828125"/><path d="m211.664062 238.933594v20.480468c0 3.769532 3.058594 6.824219 6.828126 6.824219 3.769531 0 6.824218-3.054687 6.824218-6.824219v-20.480468c0-3.773438-3.054687-6.828125-6.824218-6.828125-3.769532 0-6.828126 3.054687-6.828126 6.828125"/><path d="m177.53125 191.148438v40.957031c0 3.769531 3.058594 6.828125 6.828125 6.828125s6.824219-3.058594 6.824219-6.828125v-40.957031c0-3.773438-3.054688-6.828126-6.824219-6.828126s-6.828125 3.054688-6.828125 6.828126"/><path d="m177.53125 157.011719v6.828125c0 3.769531 3.058594 6.828125 6.828125 6.828125s6.824219-3.058594 6.824219-6.828125v-6.828125c0-3.773438-3.054688-6.824219-6.824219-6.824219s-6.828125 3.050781-6.828125 6.824219"/><path d="m150.226562 136.535156v13.652344c0 3.769531 3.054688 6.824219 6.824219 6.824219s6.828125-3.054688 6.828125-6.824219v-13.652344c0-3.773437-3.058594-6.828125-6.828125-6.828125s-6.824219 3.054688-6.824219 6.828125"/><path d="m122.917969 225.28125h218.453125c3.769531 0 6.828125-3.058594 6.828125-6.828125 0-3.773437-3.058594-6.828125-6.828125-6.828125h-218.453125c-3.769531 0-6.828125 3.054688-6.828125 6.828125 0 3.769531 3.058594 6.828125 6.828125 6.828125"/><path d="m192.03125 387.355469c8.976562 9.753906 23.648438 15.359375 40.113281 15.414062 16.304688-.050781 30.84375-5.554687 39.847657-15.125 2.566406-2.765625 2.40625-7.082031-.355469-9.648437-2.765625-2.5625-7.082031-2.402344-9.644531.363281-5.433594 5.96875-16.710938 10.816406-29.84375 10.761719-13.269532.058594-24.636719-4.898438-30.007813-10.941406-2.535156-2.796876-6.851563-3-9.644531-.46875-2.789063 2.539062-3 6.855468-.464844 9.648437zm0 0"/><path d="m184.359375 327.679688c0 7.539062-6.113281 13.652343-13.65625 13.652343-7.539063 0-13.652344-6.113281-13.652344-13.652343 0-7.539063 6.113281-13.652344 13.652344-13.652344 7.542969 0 13.65625 6.113281 13.65625 13.652344zm0 0"/><path d="m307.238281 327.679688c0 7.539062-6.113281 13.652343-13.652343 13.652343-7.542969 0-13.65625-6.113281-13.65625-13.652343 0-7.539063 6.113281-13.652344 13.65625-13.652344 7.539062 0 13.652343 6.113281 13.652343 13.652344zm0 0"/></g><path d="m320.890625 389.121094c0 7.539062-6.113281 13.652344-13.652344 13.652344-7.539062 0-13.652343-6.113282-13.652343-13.652344 0-7.542969 6.113281-13.65625 13.652343-13.65625 7.539063 0 13.652344 6.113281 13.652344 13.65625zm0 0" fill="#ff927d"/><path d="m170.703125 389.121094c0 7.539062-6.109375 13.652344-13.652344 13.652344-7.539062 0-13.652343-6.113282-13.652343-13.652344 0-7.542969 6.113281-13.65625 13.652343-13.65625 7.542969 0 13.652344 6.113281 13.652344 13.65625zm0 0" fill="#ff927d"/></svg>