<svg height="430pt" viewBox="-80 0 430 430.18996" width="430pt" xmlns="http://www.w3.org/2000/svg"><path d="m143.460938 40.328125s-21.445313-23.148437-47.332032-23.148437c-25.882812 0-41.414062-10.351563-41.414062-10.351563s-1.296875 88.582031 82.824218 45.332031" fill="#9af43b"/><path d="m148.46875 35.6875c-.238281-.25-5.910156-6.367188-15.15625-12.601562-9.242188-6.1875-22.164062-12.691407-37.1875-12.734376-12.023438 0-21.582031-2.40625-28.078125-4.765624-3.246094-1.179688-5.726563-2.351563-7.347656-3.195313-.808594-.425781-1.40625-.765625-1.777344-.988281l-.386719-.234375-.0625-.039063-1.34375 2.070313 1.367188-2.054688-.023438-.015625-1.34375 2.070313 1.367188-2.054688c-2.066406-1.382812-4.738282-1.519531-6.941406-.371093-2.203126 1.148437-3.613282 3.421874-3.667969 5.902343l-.003907.378907c.027344 2.429687.148438 17.28125 6.078126 32.46875 2.988281 7.578124 7.503906 15.351562 14.597656 21.378906 7.0625 6.039062 16.789062 10.011718 28.667968 9.96875 12.070313-.011719 26.277344-3.839844 43.429688-12.640625 3.351562-1.722657 4.671875-5.835938 2.949219-9.191407-1.722657-3.351562-5.835938-4.671874-9.1875-2.949218-15.863281 8.148437-28.089844 11.136718-37.191407 11.128906-8.992187-.046875-15.019531-2.703125-19.839843-6.738281-7.199219-6.011719-11.460938-16.070313-13.589844-25.234375-2.160156-9.117188-2.269531-17.058594-2.261719-18.195313v-.09375l-1.78125-.023437 1.78125.035156v-.015625l-1.78125-.019531 1.78125.035156-6.828125-.148438-3.785156 5.679688c.703125.460938 17.453125 11.484375 45.199219 11.496094 10.863281-.039063 21.609375 5.027344 29.5625 10.414062 3.96875 2.671875 7.226562 5.371094 9.453125 7.371094 1.113281 1 1.972656 1.828125 2.535156 2.386719l.621094.628906.136719.144531.015624.015625c2.5625 2.761719 6.878907 2.929688 9.644532.371094s2.933594-6.878906.371094-9.644531zm0 0" fill="#54596e"/><path d="m212.980469 153.898438c.03125-4.792969-.375-9.683594-1.269531-14.65625-6.070313-33.738282-34.457032-60.0625-68.558594-63.59375-46.898438-4.855469-86.484375 31.8125-86.484375 77.726562v.378906c.09375 21.425782-5.554688 42.792969-19.421875 59.128906-21.417969 25.242188-33.226563 58.878907-29.703125 95.324219 5.746093 59.359375 53.292969 107.726563 112.5625 114.34375 77.21875 8.621094 142.613281-51.585937 142.613281-127.066406 0-30.847656-10.9375-59.109375-29.128906-81.171875-13.914063-16.886719-20.753906-38.542969-20.609375-60.414062" fill="#fff35f"/><path d="m212.980469 153.898438 6.824219.023437v-.566406c0-5.03125-.449219-10.152344-1.382813-15.320313-6.648437-36.800781-37.382813-65.292968-74.566406-69.179687-3.023438-.320313-6.042969-.476563-9.035157-.46875-46.941406 0-84.976562 38.039062-84.976562 84.992187v.929688c0 20.058594-5.375 39.527344-17.800781 54.160156-19.910157 23.4375-31.949219 53.84375-31.949219 87.019531 0 4.40625.214844 8.859375.65625 13.371094 6.101562 62.632813 56.054688 113.453125 118.601562 120.476563 5.210938.578124 10.367188.863281 15.46875.855468 74.40625 0 134.726563-60.3125 134.726563-134.707031.007813-32.46875-11.535156-62.285156-30.695313-85.515625-12.644531-15.332031-19.046874-35.171875-19.046874-55.390625v-.652344l-6.824219-.027343-6.824219-.082032v.757813c0 23.0625 7.277344 45.996093 22.167969 64.070312 17.226562 20.914063 27.5625 47.613281 27.570312 76.835938-.007812 33.445312-13.546875 63.667969-35.46875 85.59375-21.925781 21.925781-52.152343 35.453125-85.605469 35.460937-4.597656 0-9.253906-.246094-13.964843-.773437-55.988281-6.203125-101.132813-52.121094-106.519531-108.222657-.390626-4.0625-.585938-8.085937-.585938-12.054687 0-29.855469 10.792969-57.085937 28.699219-78.183594 15.0625-17.785156 21.042969-40.59375 21.042969-63v-.582031.035156-.378906c0-19.730469 7.976562-37.527344 20.890624-50.449219 12.933594-12.925781 30.71875-20.894531 50.4375-20.902343 2.507813.007812 5.042969.144531 7.621094.40625 31.023438 3.171874 57.078125 27.328124 62.546875 58.011718.789063 4.382813 1.167969 8.703125 1.167969 12.90625v.511719-.046875z" fill="#54596e"/><path d="m163.957031 88.257812c6.007813 8.78125 10.277344 18.832032 12.222657 29.667969.894531 4.964844 1.308593 9.867188 1.277343 14.65625-.152343 21.871094 6.6875 43.53125 20.601563 60.40625 18.195312 22.074219 29.140625 50.332031 29.140625 81.171875 0 70.632813-57.269531 127.898438-127.894531 127.898438-4.851563 0-9.757813-.265625-14.71875-.824219-4.070313-.453125-8.082032-1.101563-12.027344-1.9375 14.464844 8.75 30.855468 14.535156 48.300781 16.46875 4.710937.527344 9.367187.773437 13.964844.773437 33.453125-.007812 63.675781-13.539062 85.605469-35.460937 21.921874-21.925781 35.460937-52.148437 35.46875-85.59375-.007813-29.222656-10.34375-55.921875-27.574219-76.835937-14.886719-18.074219-22.167969-41.007813-22.167969-64.070313v-1.21875c0-4.207031-.375-8.527344-1.164062-12.910156-4.144532-23.234375-20.078126-42.714844-41.035157-52.191407" fill="#ddd462"/><g fill="#54596e"><path d="m155.613281 78.003906c3.054688 3.175782 5.851563 6.605469 8.34375 10.253906 20.957031 9.476563 36.890625 28.960938 41.03125 52.1875.789063 4.382813 1.167969 8.703126 1.167969 12.90625v1.21875c0 23.066407 7.277344 45.996094 22.167969 64.070313 17.226562 20.917969 27.5625 47.617187 27.570312 76.835937-.007812 33.449219-13.546875 63.671876-35.46875 85.597657-21.925781 21.921875-52.152343 35.453125-85.605469 35.457031-4.597656 0-9.253906-.246094-13.964843-.769531-17.445313-1.933594-33.835938-7.722657-48.300781-16.472657-6.878907-1.457031-13.554688-3.480468-19.992188-6.023437 18.761719 15.839844 42.054688 26.4375 67.542969 29.289063 4.953125.550781 9.863281.820312 14.707031.820312 70.640625 0 127.90625-57.257812 127.90625-127.898438 0-30.84375-10.9375-59.105468-29.132812-81.171874-13.914063-16.882813-20.753907-38.539063-20.609376-60.410157.03125-4.792969-.375-9.683593-1.269531-14.65625-5.304687-29.535156-27.722656-53.390625-56.09375-61.234375"/><path d="m167.148438 14.808594c-.324219.214844-10.441407 6.527344-20.78125 17.800781-5.167969 5.648437-10.398438 12.546875-14.402344 20.652344-3.996094 8.089843-6.757813 17.441406-6.753906 27.71875-.007813 7.695312 1.558593 15.867187 5.144531 24.226562l12.550781-5.375c-2.886719-6.75-4.039062-12.984375-4.046875-18.851562.003906-7.816407 2.082031-15.054688 5.347656-21.675781 4.878907-9.917969 12.480469-18.296876 18.882813-24.078126 3.195312-2.890624 6.078125-5.144531 8.132812-6.648437 1.027344-.753906 1.847656-1.320313 2.394532-1.6875l.609374-.402344.136719-.089843.019531-.007813-7.234374-11.574219zm0 0"/><path d="m102.5 235.640625c-.003906-13.199219-10.695312-23.890625-23.894531-23.894531-13.199219.003906-23.886719 10.695312-23.890625 23.894531 0 3.769531 3.054687 6.824219 6.824218 6.824219 3.769532 0 6.828126-3.054688 6.828126-6.824219.011718-5.65625 4.585937-10.230469 10.238281-10.242187 5.65625.011718 10.230469 4.585937 10.242187 10.242187 0 3.769531 3.054688 6.824219 6.824219 6.824219 3.773437 0 6.828125-3.054688 6.828125-6.824219zm0 0"/></g><path d="m75.195312 266.359375c0-4.523437-9.171874-8.191406-20.480468-8.191406-11.3125 0-20.480469 3.667969-20.480469 8.191406 0 4.527344 9.167969 8.195313 20.480469 8.195313 11.308594 0 20.480468-3.667969 20.480468-8.195313zm0 0" fill="#ff9c9c"/><path d="m143.460938 235.640625c.007812-5.65625 4.585937-10.230469 10.238281-10.242187 5.65625.011718 10.230469 4.585937 10.242187 10.242187 0 3.769531 3.054688 6.824219 6.824219 6.824219s6.828125-3.054688 6.828125-6.824219c-.003906-13.199219-10.695312-23.890625-23.894531-23.894531-13.199219.003906-23.890625 10.695312-23.890625 23.894531 0 3.769531 3.054687 6.824219 6.824218 6.824219 3.769532 0 6.828126-3.054688 6.828126-6.824219zm0 0" fill="#54596e"/><path d="m198.074219 266.359375c0-4.523437-9.171875-8.191406-20.480469-8.191406-11.3125 0-20.480469 3.667969-20.480469 8.191406 0 4.527344 9.167969 8.195313 20.480469 8.195313 11.308594 0 20.480469-3.667969 20.480469-8.195313zm0 0" fill="#ff9c9c"/><path d="m110.148438 282.507812c-9.65625 2.714844-16.691407 11.570313-16.703126 22.078126.015626 10.886718 7.570313 20.003906 17.777344 22.347656 3.675782.84375 7.339844-1.453125 8.183594-5.125s-1.449219-7.335938-5.125-8.179688c-4.097656-.949218-7.195312-4.636718-7.183594-9.042968-.011718-4.25 2.875-7.839844 6.753906-8.933594 3.628907-1.023438 5.742188-4.792969 4.71875-8.425782-1.023437-3.625-4.792968-5.738281-8.421874-4.714843zm0 0" fill="#54596e"/><path d="m109.25 314.398438c-10.292969 2.898437-17.796875 12.335937-17.8125 23.535156.015625 11.613281 8.078125 21.320312 18.949219 23.820312 3.675781.84375 7.335937-1.445312 8.183593-5.117187.847657-3.671875-1.445312-7.339844-5.117187-8.179688-4.769531-1.105469-8.375-5.402343-8.359375-10.523437-.011719-4.945313 3.335938-9.113282 7.855469-10.390625 3.628906-1.023438 5.742187-4.792969 4.71875-8.425781-1.019531-3.625-4.792969-5.738282-8.417969-4.714844zm0 0" fill="#54596e"/></svg>