<svg height="389pt" viewBox="0 -14 389.12 389" width="389pt" xmlns="http://www.w3.org/2000/svg"><path d="m177.492188 116.121094s-6.824219-68.269532-27.304688-88.75l27.304688-20.476563s48.886718 62.886719 38.09375 106.535157" fill="#bfad88"/><path d="m184.285156 115.4375c-.019531-.160156-1.738281-17.410156-6.09375-37.464844-2.183594-10.03125-5.019531-20.765625-8.714844-30.515625-3.734374-9.753906-8.179687-18.566406-14.460937-24.914062l-4.828125 4.828125 4.09375 5.460937 27.308594-20.480469-4.097656-5.457031-5.386719 4.183594.390625.515625c2.035156 2.6875 11.652344 15.710938 20.644531 32.683594 9.035156 16.945312 17.246094 37.941406 17.175781 55.644531 0 4.164063-.4375 8.136719-1.355468 11.871094-.90625 3.660156 1.328124 7.359375 4.988281 8.265625 3.664062.902344 7.363281-1.332032 8.265625-4.992188 1.222656-4.953125 1.757812-10.035156 1.757812-15.144531-.085937-23.140625-10.535156-47.035156-20.671875-65.566406-10.183593-18.488281-20.277343-31.46875-20.417969-31.652344-2.285156-2.949219-6.5-3.515625-9.484374-1.273437l-27.304688 20.480468c-1.582031 1.183594-2.574219 3.007813-2.714844 4.976563-.140625 1.972656.585938 3.914062 1.980469 5.3125 3.960937 3.890625 8.046875 11.292969 11.351563 20.097656 5.023437 13.21875 8.589843 29.476563 10.816406 42.3125 1.121094 6.421875 1.917968 12 2.429687 15.953125.257813 1.980469.445313 3.550781.566407 4.625.121093 1.070312.175781 1.609375.175781 1.609375.375 3.75 3.71875 6.484375 7.472656 6.113281 3.75-.375 6.488281-3.71875 6.117187-7.46875zm0 0" fill="#54596e"/><path d="m382.292969 218.519531c0-61.628906-38.203125-111.589843-85.332031-111.589843-47.128907 0-85.335938 49.960937-85.335938 111.589843 0 61.628907 38.207031 111.589844 85.335938 111.589844 47.128906 0 85.332031-49.960937 85.332031-111.589844zm0 0" fill="#f4a14e"/><path d="m382.292969 218.519531h6.828125c-.011719-32.226562-9.953125-61.523437-26.398438-83.054687-16.394531-21.496094-39.695312-35.371094-65.761718-35.363282-26.070313-.007812-49.371094 13.867188-65.761719 35.363282-16.449219 21.53125-26.386719 50.828125-26.398438 83.054687.011719 32.222657 9.949219 61.519531 26.398438 83.050781 16.394531 21.496094 39.691406 35.371094 65.761719 35.363282 26.066406.007812 49.367187-13.867188 65.761718-35.363282 16.445313-21.53125 26.386719-50.828124 26.398438-83.050781h-13.65625c.015625 29.402344-9.152344 55.898438-23.589844 74.757813-14.492188 18.890625-33.859375 30-54.914062 30.007812-21.058594-.007812-40.425782-11.117187-54.917969-30.007812-14.4375-18.859375-23.601563-45.355469-23.589844-74.757813-.011719-29.40625 9.152344-55.902343 23.589844-74.761719 14.492187-18.890624 33.859375-30 54.917969-30.003906 21.058593.003906 40.425781 11.113282 54.914062 30.003906 14.4375 18.859376 23.601562 45.355469 23.589844 74.761719zm0 0" fill="#54596e"/><path d="m256 341.398438c-32.046875 0-58.027344-25.980469-58.027344-58.027344v-129.703125c0-32.046875 25.980469-58.027344 58.027344-58.027344s58.027344 25.980469 58.027344 58.027344v129.703125c0 32.046875-25.980469 58.027344-58.027344 58.027344zm0 0" fill="#f4a14e"/><path d="m256 341.398438v-6.824219c-14.160156-.007813-26.914062-5.726563-36.203125-14.996094-9.277344-9.292969-14.992187-22.046875-14.996094-36.207031v-129.703125c.003907-14.160157 5.71875-26.917969 14.996094-36.207031 9.289063-9.277344 22.042969-14.992188 36.203125-15 14.160156.007812 26.914062 5.726562 36.203125 15 9.277344 9.289062 14.992187 22.046874 14.996094 36.207031v129.703125c-.003907 14.160156-5.71875 26.914062-14.996094 36.207031-9.289063 9.273437-22.042969 14.988281-36.203125 14.996094v13.648437c35.820312-.003906 64.847656-29.035156 64.851562-64.851562v-129.703125c-.003906-35.820313-29.03125-64.851563-64.851562-64.855469-35.820312.003906-64.847656 29.035156-64.851562 64.855469v129.703125c.003906 35.816406 29.03125 64.847656 64.851562 64.851562zm0 0" fill="#54596e"/><path d="m177.492188 218.519531c0-61.628906-38.203126-111.589843-85.332032-111.589843s-85.332031 49.960937-85.332031 111.589843c0 61.628907 38.203125 111.589844 85.332031 111.589844s85.332032-49.960937 85.332032-111.589844zm0 0" fill="#f4a14e"/><path d="m6.828125 218.519531h6.824219c-.011719-29.40625 9.152344-55.902343 23.59375-74.761719 14.488281-18.890624 33.855468-30 54.914062-30.003906 21.058594.003906 40.425782 11.113282 54.917969 30.003906 14.4375 18.859376 23.601563 45.355469 23.589844 74.761719.011719 29.402344-9.152344 55.898438-23.589844 74.757813-14.492187 18.890625-33.859375 30-54.917969 30.007812-21.058594-.007812-40.425781-11.117187-54.914062-30.007812-14.441406-18.859375-23.601563-45.355469-23.59375-74.757813h-13.652344c.0117188 32.222657 9.953125 61.519531 26.398438 83.050781 16.394531 21.496094 39.695312 35.371094 65.761718 35.363282 26.066406.007812 49.367188-13.867188 65.761719-35.363282 16.445313-21.53125 26.386719-50.828124 26.398437-83.050781-.011718-32.226562-9.953124-61.523437-26.398437-83.054687-16.394531-21.496094-39.695313-35.371094-65.761719-35.363282-26.066406-.007812-49.367187 13.867188-65.761718 35.363282-16.445313 21.53125-26.3867192 50.828125-26.398438 83.054687zm0 0" fill="#54596e"/><path d="m133.121094 341.398438c32.046875 0 58.027344-25.980469 58.027344-58.027344v-129.703125c0-32.046875-25.980469-58.027344-58.027344-58.027344s-58.027344 25.980469-58.027344 58.027344v129.703125c0 32.046875 25.980469 58.027344 58.027344 58.027344zm0 0" fill="#f4a14e"/><path d="m133.121094 341.398438v6.824218c35.820312-.003906 64.847656-29.035156 64.851562-64.851562v-129.703125c-.003906-35.820313-29.03125-64.851563-64.851562-64.855469-35.820313.003906-64.847656 29.035156-64.855469 64.855469v129.703125c.007813 35.816406 29.035156 64.847656 64.855469 64.851562v-13.648437c-14.160156-.007813-26.917969-5.726563-36.203125-14.996094-9.277344-9.292969-14.996094-22.046875-14.996094-36.207031v-129.703125c0-14.160157 5.71875-26.917969 14.996094-36.207031 9.285156-9.277344 22.042969-14.992188 36.203125-15 14.160156.007812 26.914062 5.726562 36.203125 15 9.273437 9.289062 14.992187 22.046874 14.996093 36.207031v129.703125c-.003906 14.160156-5.722656 26.914062-14.996093 36.207031-9.289063 9.273437-22.042969 14.988281-36.203125 14.996094zm0 0" fill="#54596e"/><path d="m194.558594 355.054688c-32.042969 0-58.023438-25.980469-58.023438-58.027344v-157.015625c0-32.042969 25.980469-58.027344 58.023438-58.027344 32.046875 0 58.027344 25.984375 58.027344 58.027344v157.015625c0 32.046875-25.980469 58.027344-58.027344 58.027344zm0 0" fill="#f4a14e"/><g fill="#54596e"><path d="m194.558594 355.054688v-6.828126c-14.160156-.007812-26.914063-5.722656-36.203125-14.996093-9.273438-9.289063-14.992188-22.046875-14.996094-36.203125v-157.015625c.003906-14.160157 5.722656-26.914063 14.996094-36.207031 9.289062-9.273438 22.042969-14.988282 36.203125-14.996094 14.160156.007812 26.917968 5.726562 36.203125 14.996094 9.277343 9.289062 14.996093 22.046874 15 36.207031v157.015625c-.003907 14.15625-5.722657 26.914062-15 36.203125-9.285157 9.273437-22.042969 14.988281-36.203125 14.996093v13.648438c35.820312-.003906 64.851562-29.03125 64.855468-64.847656v-157.015625c-.003906-35.816407-29.035156-64.847657-64.855468-64.851563-35.816406.003906-64.847656 29.035156-64.851563 64.851563v157.015625c.003907 35.816406 29.035157 64.84375 64.851563 64.847656zm0 0"/><path d="m122.878906 177.558594c0 7.542968-6.113281 13.65625-13.652344 13.65625-7.539062 0-13.652343-6.113282-13.652343-13.65625 0-7.539063 6.113281-13.652344 13.652343-13.652344 7.539063 0 13.652344 6.113281 13.652344 13.652344zm0 0"/><path d="m293.546875 177.558594c0 7.542968-6.113281 13.65625-13.652344 13.65625-7.542969 0-13.65625-6.113282-13.65625-13.65625 0-7.539063 6.113281-13.652344 13.65625-13.652344 7.539063 0 13.652344 6.113281 13.652344 13.652344zm0 0"/><path d="m204.800781 314.09375h-20.480469c-11.308593 0-20.480468-9.171875-20.480468-20.480469v-47.785156c0-11.3125 9.171875-20.480469 20.480468-20.480469h20.480469c11.308594 0 20.480469 9.167969 20.480469 20.480469v47.785156c0 11.308594-9.171875 20.480469-20.480469 20.480469zm0 0"/></g><path d="m191.148438 252.652344c0-13.195313-1.691407-13.652344-5.460938-13.652344s-8.195312.457031-8.195312 13.652344zm0 0" fill="#fff"/><path d="m197.976562 252.652344c0-13.191406 1.691407-13.652344 5.460938-13.652344s8.191406.460938 8.191406 13.652344zm0 0" fill="#fff"/></svg>