<svg height="430pt" viewBox="0 -10 430.4855 430" width="430pt" xmlns="http://www.w3.org/2000/svg"><path d="m108.722656 225.402344h169.152344c3.75 4.160156 9.125 6.828125 15.164062 6.828125 3.746094 0 7.222657-1.082031 10.242188-2.839844 3.019531 1.757813 6.492188 2.839844 10.238281 2.839844 11.316407 0 20.480469-9.171875 20.480469-20.480469s-9.164062-20.480469-20.480469-20.480469c-3.746093 0-7.21875 1.082031-10.238281 2.839844-3.019531-1.757813-6.496094-2.839844-10.242188-2.839844l-1.292968.128907c.792968-2.179688 1.292968-4.503907 1.292968-6.957032 0-11.308594-9.164062-20.476562-20.476562-20.476562-2.457031 0-4.773438.5-6.960938 1.292968l.132813-1.292968c0-11.3125-9.167969-20.480469-20.480469-20.480469-3.664062 0-7.058594 1.042969-10.039062 2.730469-3.628906-5.726563-9.980469-9.558594-17.265625-9.558594-1.664063 0-3.253907.253906-4.800781.625-3.753907-4.515625-9.347657-7.453125-15.679688-7.453125-8.820312 0-16.273438 5.609375-19.15625 13.429687-3.738281-4.035156-9.046875-6.601562-14.976562-6.601562-7.289063 0-13.640626 3.832031-17.269532 9.558594-2.976562-1.6875-6.371094-2.730469-10.039062-2.730469-11.3125 0-20.480469 9.167969-20.480469 20.480469 0 2.453125.5 4.777344 1.292969 6.953125l-1.292969-.128907c-8.945313 0-16.480469 5.777344-19.265625 13.777344l-1.214844-.125c-11.3125 0-20.480468 9.171875-20.480468 20.480469 0 11.3125 9.167968 20.480469 20.480468 20.480469zm0 0" fill="#fff"/><path d="m108.722656 225.402344v6.824218h169.152344v-6.824218l-5.070312 4.570312c4.925781 5.484375 12.152343 9.085938 20.234374 9.082032 5.070313 0 9.75-1.472657 13.679688-3.769532l-3.4375-5.894531-3.4375 5.894531c3.925781 2.296875 8.605469 3.769532 13.675781 3.769532 15.085938-.003907 27.304688-12.226563 27.308594-27.304688-.003906-15.082031-12.21875-27.304688-27.308594-27.308594-5.070312 0-9.75 1.476563-13.675781 3.769532l3.4375 5.898437 3.4375-5.898437c-3.929688-2.292969-8.609375-3.769532-13.679688-3.769532l-.679687.035156-1.292969.128907.679688 6.792969 6.417968 2.335937c1.007813-2.773437 1.703126-5.910156 1.703126-9.292969-.003907-15.082031-12.21875-27.300781-27.304688-27.304687-3.394531-.003907-6.519531.699219-9.28125 1.695312l2.316406 6.425781 6.792969.699219.132813-1.292969.035156-.699218c-.003906-15.085938-12.21875-27.304688-27.304688-27.308594-4.976562-.003906-9.550781 1.425781-13.402344 3.613281l3.359376 5.941407 5.769531-3.652344c-4.792969-7.597656-13.308594-12.734375-23.035157-12.730469-2.359374 0-4.503906.355469-6.402343.816406l1.605469 6.636719 5.246093-4.363281c-4.921875-5.953125-12.445312-9.921875-20.929687-9.917969-11.785156.007812-21.746094 7.5-25.558594 17.894531l6.40625 2.359375 5.007812-4.644531c-4.925781-5.328125-12.054687-8.789063-19.984374-8.78125-9.726563-.003906-18.242188 5.132813-23.035157 12.730469l5.765625 3.652344 3.363282-5.941407c-3.851563-2.1875-8.429688-3.617187-13.402344-3.613281-15.089844.003906-27.304688 12.222656-27.308594 27.308594 0 3.382812.695312 6.515625 1.707031 9.289062l6.414063-2.335937.683594-6.789063-1.296876-.132812-.679687-.03125c-11.964844.003906-22.027344 7.726562-25.714844 18.355468l6.445313 2.246094.691406-6.792968-1.214844-.121094-.6875-.035156c-15.085937.003906-27.304687 12.222656-27.308594 27.304687.003907 15.082031 12.222657 27.300781 27.308594 27.304687l13.652344.003907v-13.652344h-13.652344c-7.539062-.019531-13.640625-6.117187-13.652344-13.65625.011719-7.539063 6.113282-13.636719 13.652344-13.65625v-6.824219l-.691406 6.792969 1.214844.121094c3.136718.320312 6.097656-1.570313 7.136718-4.546875 1.886719-5.371094 6.886719-9.203125 12.820313-9.195313v-6.824219l-.683594 6.792969 1.292969.128907c2.339844.234374 4.628906-.746094 6.074219-2.601563 1.441406-1.855469 1.828125-4.316406 1.023437-6.523437-.574218-1.589844-.878906-3.101563-.882812-4.621094.015625-7.539063 6.113281-13.640625 13.65625-13.65625 2.355468.003906 4.566406.660156 6.675781 1.847656 3.171875 1.792969 7.179687.785156 9.128906-2.292969 2.460938-3.855469 6.652344-6.378906 11.5-6.382812 3.9375.007812 7.417969 1.679687 9.972657 4.417969 1.613281 1.738281 4.019531 2.515624 6.347656 2.054687 2.324218-.46875 4.246094-2.113281 5.066406-4.339844 1.945312-5.242187 6.894531-8.964843 12.746094-8.957031 4.183594.003906 7.851562 1.910156 10.429687 4.988281 1.667969 2.007813 4.316407 2.882813 6.851563 2.273438 1.195312-.285157 2.238281-.4375 3.199218-.4375 4.847657.003906 9.039063 2.527343 11.5 6.382812 1.949219 3.082031 5.957032 4.085938 9.128907 2.292969 2.109375-1.1875 4.320312-1.84375 6.679687-1.847656 7.539063.015625 13.640625 6.117187 13.652344 13.65625h6.828125l-6.792969-.703125-.132812 1.292969c-.242188 2.335937.734375 4.632812 2.585937 6.078124 1.851563 1.449219 4.316407 1.839844 6.527344 1.042969 1.609375-.582031 3.125-.886719 4.640625-.886719 7.539062.015626 13.636719 6.117188 13.652344 13.65625 0 1.519532-.304688 3.03125-.882813 4.621094-.804687 2.207032-.417969 4.667969 1.027344 6.523438 1.441406 1.855468 3.730469 2.835937 6.070313 2.601562l1.292968-.128906-.683594-6.792969v6.824219c2.425782.003906 4.691407.683594 6.804688 1.914062 2.125 1.234376 4.746094 1.234376 6.875 0 2.113281-1.230468 4.378906-1.910156 6.800781-1.914062 7.542969.015625 13.640625 6.117188 13.65625 13.65625-.015625 7.535156-6.113281 13.636719-13.65625 13.652344-2.421875-.003906-4.6875-.683594-6.800781-1.914063-2.128906-1.238281-4.75-1.238281-6.875 0-2.113281 1.230469-4.378906 1.910157-6.804688 1.914063-3.996093-.007813-7.515624-1.738282-10.097656-4.574219-1.289062-1.429687-3.140625-2.25-5.066406-2.25h-169.152344zm0 0" fill="#54596e"/><path d="m252.992188 218.453125 177.492187-204.800781-15.476563-13.410156-177.492187 204.800781" fill="#bfad88"/><path d="m309.480469 215.273438 75.09375-204.800782-19.230469-7.050781-75.089844 204.800781" fill="#bfad88"/><path d="m6.824219 211.75c7.027343 106.730469 95.785156 191.148438 204.296875 191.148438 108.507812 0 197.265625-84.417969 204.292968-191.148438z" fill="#8065c4"/><path d="m6.824219 211.75-6.808594.445312c7.265625 110.308594 98.964844 197.511719 211.105469 197.527344 112.132812-.015625 203.84375-87.21875 211.101562-197.527344.125-1.894531-.527344-3.730468-1.824218-5.109374-1.304688-1.386719-3.082032-2.160157-4.984376-2.160157h-408.589843c-1.894531 0-3.679688.769531-4.976563 2.160157-1.304687 1.382812-1.957031 3.214843-1.832031 5.109374l6.808594-.445312v6.828125h408.589843v-6.828125l-6.816406-.449219c-6.785156 103.15625-92.585937 184.78125-197.476562 184.773438-104.898438.007812-190.695313-81.613281-197.480469-184.773438l-6.816406.449219v6.828125z" fill="#54596e"/><path d="m244.492188 327.804688c0-16.546876-13.410157-29.964844-29.960938-29.964844-16.546875 0-29.960938 13.414062-29.960938 29.964844zm0 0" fill="#fff35f"/><path d="m407.984375 218.578125h-1.539063c-26.09375 83.070313-103.632812 143.359375-195.324218 143.359375-91.695313 0-169.238282-60.289062-195.328125-143.359375h-1.542969c10.238281 99.691406 94.453125 177.496094 196.871094 177.496094 102.414062.007812 186.628906-77.804688 196.863281-177.496094" fill="#7963b7"/><path d="m415.414062 211.75h-6.957031c-.632812 2.292969-1.304687 4.566406-2.011719 6.828125h1.539063c-10.234375 99.691406-94.449219 177.503906-196.863281 177.496094-102.417969 0-186.632813-77.804688-196.867188-177.496094h1.539063c-.707031-2.261719-1.378907-4.535156-2.011719-6.828125h-6.957031c7.027343 106.730469 95.785156 191.148438 204.296875 191.148438 108.507812 0 197.265625-84.417969 204.292968-191.148438" fill="#54596e"/><g fill="#fff35f"><path d="m156.507812 269.777344c0 9.425781-7.640624 17.066406-17.066406 17.066406-9.425781 0-17.066406-7.640625-17.066406-17.066406 0-9.425782 7.640625-17.066406 17.066406-17.066406 9.425782 0 17.066406 7.640624 17.066406 17.066406zm0 0"/><path d="m306.695312 269.777344c0 9.425781-7.640624 17.066406-17.066406 17.066406-9.425781 0-17.066406-7.640625-17.066406-17.066406 0-9.425782 7.640625-17.066406 17.066406-17.066406 9.425782 0 17.066406 7.640624 17.066406 17.066406zm0 0"/></g></svg>