<svg height="395pt" viewBox="-3 0 395 395.94325" width="395pt" xmlns="http://www.w3.org/2000/svg"><path d="m143.832031 102.398438h-74.40625l-62.128906 40.960937v240.671875c0 2.808594 2.28125 5.089844 5.09375 5.089844h194.613281c2.8125 0 5.09375-2.28125 5.09375-5.089844v-240.671875zm-34.132812 61.441406c-11.3125 0-20.480469-9.167969-20.480469-20.480469 0-11.308594 9.167969-20.480469 20.480469-20.480469s20.480469 9.171875 20.480469 20.480469c0 11.3125-9.167969 20.480469-20.480469 20.480469zm0 0" fill="#61c5a8"/><path d="m143.832031 102.398438v-6.824219h-74.40625c-1.332031 0-2.648437.390625-3.757812 1.125l-62.128907 40.960937c-1.925781 1.265625-3.066406 3.390625-3.066406 5.699219v240.671875c.003906 6.582031 5.335938 11.910156 11.917969 11.910156h194.613281c6.585938 0 11.914063-5.328125 11.917969-11.910156v-240.671875c0-2.394531-1.257813-4.625-3.3125-5.855469l-68.265625-40.960937c-1.054688-.632813-2.285156-.96875-3.515625-.96875v6.824219l-3.511719 5.855468 64.957032 38.96875v236.808594h1.730468v-1.738281c-.957031.003906-1.726562.769531-1.730468 1.738281h1.730468v-1.738281h-194.613281v1.738281h1.734375c-.003906-.964844-.773438-1.734375-1.730469-1.738281v1.738281h1.730469v-237l57.351562-37.8125 72.355469.003906v-6.824218l-3.511719 5.855468zm-34.132812 61.441406v-6.828125c-7.539063-.015625-13.640625-6.113281-13.652344-13.652344.011719-7.539063 6.113281-13.640625 13.652344-13.65625 7.539062.015625 13.640625 6.117187 13.652343 13.65625-.011718 7.539063-6.113281 13.636719-13.652343 13.652344v13.652343c15.085937-.003906 27.300781-12.222656 27.304687-27.304687-.003906-15.082031-12.21875-27.300781-27.304687-27.304687-15.085938.003906-27.304688 12.222656-27.308594 27.304687.003906 15.082031 12.222656 27.300781 27.308594 27.304687zm0 0" fill="#54596e"/><path d="m116.523438 143.359375v-85.332031c.003906-12.277344 4.957031-23.328125 12.996093-31.382813 8.054688-8.039062 19.101563-12.988281 31.378907-12.996093h40.960937c12.273437.007812 23.324219 4.957031 31.375 12.996093 8.042969 8.054688 12.992187 19.105469 12.996094 31.382813v157.011718c.003906 32.046876 25.976562 58.019532 58.027343 58.023438 32.054688-.003906 58.023438-25.976562 58.027344-58.023438v-23.890624c0-3.773438-3.058594-6.828126-6.828125-6.828126s-6.824219 3.054688-6.824219 6.828126v23.890624c-.003906 12.273438-4.957031 23.324219-12.996093 31.378907-8.054688 8.039062-19.101563 12.988281-31.378907 12.996093-12.277343-.007812-23.328124-4.957031-31.375-12.996093-8.042968-8.054688-12.996093-19.105469-12.996093-31.378907v-157.011718c-.003907-32.050782-25.976563-58.02343775-58.027344-58.027344h-40.960937c-32.054688.00390625-58.023438 25.976562-58.027344 58.027344v85.332031c0 3.769531 3.058594 6.828125 6.828125 6.828125s6.824219-3.058594 6.824219-6.828125zm0 0" fill="#54596e"/><path d="m328.152344 95.574219h54.613281v61.4375c0 15.082031-12.226563 27.308593-27.308594 27.308593-15.078125 0-27.304687-12.226562-27.304687-27.308593zm0 0" fill="#ffb8f2"/><path d="m328.152344 95.574219v6.824219h47.785156v54.613281c-.019531 11.304687-9.171875 20.457031-20.480469 20.480469-11.304687-.023438-20.457031-9.175782-20.480469-20.480469v-61.4375h-6.824218v6.824219-6.824219h-6.828125v61.4375c.007812 18.855469 15.28125 34.128906 34.132812 34.132812 18.855469-.003906 34.128907-15.277343 34.132813-34.132812v-61.4375c0-1.800781-.726563-3.558594-1.996094-4.832031-1.273438-1.269532-3.03125-1.996094-4.828125-1.996094h-54.613281c-1.796875 0-3.554688.726562-4.828125 1.996094-1.269531 1.273437-1.996094 3.03125-1.996094 4.832031zm0 0" fill="#54596e"/><path d="m177.644531 354.988281h-135.890625c-7.71875 0-13.976562-6.253906-13.976562-13.976562v-108.585938c0-7.71875 6.253906-13.972656 13.976562-13.972656h135.890625c7.71875 0 13.976563 6.25 13.976563 13.972656v108.585938c-.003906 7.722656-6.257813 13.976562-13.976563 13.976562zm0 0" fill="#9af43b"/><g fill="#54596e"><path d="m69.585938 305.433594c8.976562 9.757812 23.644531 15.359375 40.113281 15.417968 16.304687-.054687 30.84375-5.554687 39.847656-15.128906 2.5625-2.761718 2.402344-7.082031-.359375-9.644531s-7.078125-2.402344-9.644531.359375c-5.433594 5.96875-16.707031 10.816406-29.84375 10.765625-13.265625.054687-24.636719-4.902344-30.003907-10.945313-2.535156-2.792968-6.855468-3-9.644531-.464843-2.792969 2.535156-3 6.855469-.464843 9.644531zm0 0"/><path d="m75.566406 262.828125c0 5.652344-4.585937 10.238281-10.242187 10.238281s-10.238281-4.585937-10.238281-10.238281c0-5.65625 4.582031-10.242187 10.238281-10.242187s10.242187 4.585937 10.242187 10.242187zm0 0"/><path d="m164.3125 262.828125c0 5.652344-4.585938 10.238281-10.242188 10.238281-5.652343 0-10.238281-4.585937-10.238281-10.238281 0-5.65625 4.585938-10.242187 10.238281-10.242187 5.65625 0 10.242188 4.585937 10.242188 10.242187zm0 0"/></g></svg>