<?xml version="1.0" encoding="iso-8859-1"?>
<!-- Generator: Adobe Illustrator 19.0.0, SVG Export Plug-In . SVG Version: 6.00 Build 0)  -->
<svg xmlns="http://www.w3.org/2000/svg" xmlns:xlink="http://www.w3.org/1999/xlink" version="1.1" id="Capa_1" x="0px" y="0px" viewBox="0 0 511.999 511.999" style="enable-background:new 0 0 511.999 511.999;" xml:space="preserve">
<path style="fill:#A16B4E;" d="M495.307,279.029H16.677l37.11,85.467c5.298,12.201,17.331,20.095,30.632,20.095h343.146  c13.302,0,25.335-7.894,30.632-20.095L495.307,279.029z"/>
<path style="opacity:0.1;enable-background:new    ;" d="M16.677,279.029l22.666,52.202c3.297-0.542,6.552-1.563,9.652-3.113l0,0  c10.28-5.14,22.38-5.14,32.66,0h0.001c13.725,6.863,29.88,6.863,43.605,0l0,0c10.28-5.14,22.381-5.14,32.661,0h0.001  c13.725,6.863,29.88,6.863,43.605,0h0.001c10.28-5.14,22.38-5.14,32.661,0h0.001c13.725,6.863,29.88,6.863,43.605,0h0.001  c10.28-5.14,22.38-5.14,32.661,0l0,0c13.725,6.862,29.88,6.863,43.605,0h0.001c10.28-5.14,22.38-5.14,32.661,0h0.001  c13.725,6.863,29.88,6.863,43.605,0h0.001c2.259-1.13,4.609-1.996,7.006-2.629l-16.937,39.007  c-5.297,12.2-17.329,20.093-30.629,20.095h37.797c13.302,0,25.335-7.894,30.632-20.095l37.11-85.467L16.677,279.029L16.677,279.029z  "/>
<path style="fill:#FAD97E;" d="M255.992,127.408c-117.205,0-215.173,63.351-239.315,147.995h478.63  C471.165,190.759,373.197,127.408,255.992,127.408z"/>
<path style="opacity:0.05;enable-background:new    ;" d="M448.269,261.764c4.313,3.132,7.259,7.9,8.105,13.639h38.934  c-23.039-80.776-113.313-142.158-223.376-147.599C357.701,144.532,425.431,196.08,448.269,261.764z"/>
<path style="fill:#FC8063;" d="M81.656,308.386L81.656,308.386c13.726,6.863,29.881,6.863,43.606,0h0.001  c10.28-5.14,22.38-5.14,32.661,0h0.001c13.725,6.862,29.88,6.862,43.605,0h0.001c10.28-5.14,22.38-5.14,32.661,0h0.001  c13.725,6.862,29.88,6.862,43.605,0h0.001c10.28-5.14,22.381-5.14,32.661,0l0,0c13.725,6.863,29.88,6.863,43.605,0h0.001  c10.28-5.14,22.38-5.14,32.661,0h0.001c13.725,6.862,29.88,6.862,43.605,0h0.001c10.28-5.14,22.38-5.14,32.661,0l0,0  c13.023,6.512,28.751,3.968,39.059-6.316l0,0c13.259-13.229,13.259-34.71,0-47.939l0,0c-10.307-10.284-26.035-12.827-39.059-6.316  l0,0c-10.28,5.14-22.381,5.14-32.661,0l0,0c-13.725-6.863-29.88-6.863-43.605,0l0,0c-10.28,5.14-22.381,5.14-32.661,0l0,0  c-13.725-6.863-29.88-6.863-43.605,0l0,0c-10.28,5.14-22.381,5.14-32.661,0l0,0c-13.725-6.863-29.88-6.863-43.605,0l0,0  c-10.28,5.14-22.381,5.14-32.661,0l0,0c-13.725-6.863-29.88-6.863-43.605,0l0,0c-10.28,5.14-22.381,5.14-32.661,0l0,0  c-13.725-6.863-29.88-6.863-43.605,0l0,0c-10.28,5.14-22.38,5.14-32.66,0l0,0c-13.023-6.512-28.751-3.968-39.059,6.316l0,0  c-13.259,13.229-13.259,34.71,0,47.939l0,0c10.307,10.284,26.035,12.828,39.059,6.316l0,0  C59.275,303.246,71.375,303.246,81.656,308.386z"/>
<path style="opacity:0.1;enable-background:new    ;" d="M502.048,254.131L502.048,254.131c-10.3-10.277-26.013-12.823-39.031-6.329  c3.198,1.594,6.182,3.706,8.81,6.328l0,0c9.868,9.846,12.386,24.261,7.562,36.443c-2.539,6.411-10.12,9.359-16.298,6.296  c-0.034-0.017-0.068-0.034-0.103-0.051l0,0c-10.28-5.14-22.38-5.14-32.661,0h-0.001c-12.327,6.163-26.701,6.761-39.498,1.643  l-7.184-2.874c-9.585-3.834-20.352-3.386-29.585,1.231l0,0c-13.725,6.863-29.88,6.863-43.605,0l0,0  c-10.28-5.14-22.381-5.14-32.661,0h-0.001c-13.725,6.863-29.88,6.863-43.605,0l0,0c-9.892-4.396-21.141-4.609-31.191-0.588  l-3.434,1.374c-13.418,5.367-28.436,5.084-41.642-0.785l-5.313-2.361c-7.014-3.117-15.021-3.117-22.035,0l0,0  c-15.44,6.862-32.888,7.705-48.918,2.362h-0.001c-10.28-5.14-22.38-5.14-32.66,0l0,0c-13.023,6.512-28.751,3.968-39.059-6.316l0,0  c-5.151-5.139-8.291-11.524-9.44-18.186v0.002c-0.116,0.67-0.252,1.785-0.402,3.278c-0.7,9.492,2.575,19.222,9.842,26.474l0,0  c10.307,10.284,26.035,12.827,39.059,6.316l0,0c10.28-5.14,22.38-5.14,32.66,0l5.516,1.839c12.481,4.16,26.067,3.505,38.09-1.839  l0,0c10.397-4.621,22.264-4.621,32.661,0h0.001c13.206,5.869,28.223,6.153,41.641,0.785l5.398-2.159  c8.795-3.518,18.639-3.332,27.295,0.515l0,0c14.441,6.418,30.864,6.728,45.537,0.859h0.001c10.28-5.14,22.38-5.14,32.661,0l0,0  c13.725,6.863,29.88,6.863,43.605,0h0.001c9.233-4.617,20-5.064,29.584-1.231l7.184,2.874c12.796,5.119,27.171,4.521,39.498-1.643  h0.001c10.28-5.14,22.38-5.14,32.661,0l0,0c13.023,6.512,28.751,3.968,39.059-6.316l0,0  C515.307,288.841,515.307,267.36,502.048,254.131z"/>
<g>
	<path style="fill:#4A5058;" d="M194.446,195.581c-4.142,0-7.5-3.357-7.5-7.5v-10.216c0-4.143,3.358-7.5,7.5-7.5s7.5,3.357,7.5,7.5   v10.216C201.946,192.224,198.588,195.581,194.446,195.581z"/>
	<path style="fill:#4A5058;" d="M317.538,195.581c-4.143,0-7.5-3.357-7.5-7.5v-10.216c0-4.143,3.357-7.5,7.5-7.5s7.5,3.357,7.5,7.5   v10.216C325.038,192.224,321.681,195.581,317.538,195.581z"/>
	<path style="fill:#4A5058;" d="M255.992,203.427c-8.386,0-16.361-3.632-21.88-9.965c-2.722-3.123-2.396-7.86,0.726-10.582   c3.122-2.721,7.86-2.395,10.581,0.727c2.67,3.063,6.523,4.82,10.573,4.82c4.05,0,7.903-1.757,10.572-4.82   c2.723-3.123,7.458-3.448,10.582-0.727c3.122,2.722,3.448,7.459,0.727,10.582C272.354,199.795,264.379,203.427,255.992,203.427z"/>
</g>
<g style="opacity:0.3;">
	<ellipse style="fill:#F15B70;" cx="194.442" cy="213.509" rx="26.345" ry="11.431"/>
	<ellipse style="fill:#F15B70;" cx="317.542" cy="213.509" rx="26.345" ry="11.431"/>
</g>
<g style="opacity:0.1;">
	<path d="M83.404,224.86c-1.919,0-3.839-0.733-5.303-2.196c-2.929-2.93-2.929-7.678,0-10.607l17.137-17.138   c2.929-2.928,7.678-2.928,10.606,0c2.929,2.93,2.929,7.678,0,10.607l-17.137,17.138C87.243,224.127,85.323,224.86,83.404,224.86z"/>
	<path d="M114.474,224.86c-1.919,0-3.839-0.733-5.303-2.196c-2.929-2.93-2.929-7.678,0-10.607l17.138-17.138   c2.929-2.928,7.678-2.928,10.606,0c2.929,2.93,2.929,7.678,0,10.607l-17.138,17.138C118.313,224.127,116.394,224.86,114.474,224.86   z"/>
</g>
<g style="opacity:0.1;">
	<path d="M428.581,224.86c-1.919,0-3.839-0.733-5.304-2.196l-17.138-17.138c-2.929-2.93-2.929-7.678,0-10.607   c2.93-2.928,7.678-2.928,10.607,0l17.138,17.138c2.929,2.93,2.929,7.678,0,10.607C432.42,224.127,430.5,224.86,428.581,224.86z"/>
	<path d="M397.51,224.86c-1.919,0-3.839-0.733-5.304-2.196l-17.138-17.138c-2.929-2.93-2.929-7.678,0-10.607   c2.93-2.928,7.678-2.928,10.607,0l17.138,17.138c2.929,2.93,2.929,7.678,0,10.607C401.348,224.127,399.429,224.86,397.51,224.86z"/>
</g>
<g>
</g>
<g>
</g>
<g>
</g>
<g>
</g>
<g>
</g>
<g>
</g>
<g>
</g>
<g>
</g>
<g>
</g>
<g>
</g>
<g>
</g>
<g>
</g>
<g>
</g>
<g>
</g>
<g>
</g>
</svg>
