<?xml version="1.0" encoding="iso-8859-1"?>
<!-- Generator: Adobe Illustrator 19.0.0, SVG Export Plug-In . SVG Version: 6.00 Build 0)  -->
<svg xmlns="http://www.w3.org/2000/svg" xmlns:xlink="http://www.w3.org/1999/xlink" version="1.1" id="Capa_1" x="0px" y="0px" viewBox="0 0 512 512" style="enable-background:new 0 0 512 512;" xml:space="preserve">
<path style="fill:#A16B4E;" d="M373.111,171.84l-18.677-59.652c-3.65-11.658-11.52-21.382-22.161-27.38l-50.949-28.724  c-3.915-2.207-8.057-3.942-12.329-5.21c-0.905-11.992-5.972-23.244-14.413-31.885L239.749,3.805  c-4.874-4.991-12.871-5.084-17.86-0.209c-4.99,4.874-5.084,12.871-0.209,17.86l14.833,15.185c3.377,3.457,5.686,7.742,6.733,12.383  c-0.417,0.061-0.835,0.113-1.252,0.183l-60.088,10.135c-21.794,3.678-38.142,21.641-39.755,43.684l-4.814,65.829  c-0.509,6.957,4.719,13.009,11.675,13.518c6.969,0.493,13.009-4.719,13.518-11.675l4.814-65.829  c0.762-10.404,8.478-18.883,18.765-20.619l58.447-9.858l3.39,101.646c0.228,6.828,5.835,12.209,12.615,12.209  c0.142,0,0.285-0.002,0.429-0.007c6.971-0.233,12.435-6.072,12.202-13.044l-3.219-96.513l49.896,28.131  c5.022,2.83,8.737,7.419,10.459,12.922l18.677,59.653c1.69,5.4,6.674,8.86,12.049,8.859c1.25,0,2.522-0.186,3.777-0.58  C371.489,185.583,375.195,178.497,373.111,171.84z"/>
<path style="opacity:0.1;enable-background:new    ;" d="M140.89,120.259l-3.554,48.597c-0.509,6.957,4.719,13.009,11.675,13.518  c6.969,0.493,13.009-4.719,13.518-11.675l3.588-49.065c-5.203-1.321-10.62-2.021-16.185-2.021  C146.868,119.612,143.855,119.849,140.89,120.259z M373.111,171.84l-13.387-42.757c-8.456-0.453-17.021,0.679-25.346,3.587  l14.628,46.719c1.69,5.4,6.674,8.86,12.049,8.859c1.25,0,2.522-0.186,3.777-0.58C371.489,185.583,375.195,178.497,373.111,171.84z   M260.569,134.839c-4.772,0-9.435,0.516-13.947,1.496l1.324,39.703c0.228,6.828,5.835,12.209,12.615,12.209  c0.142,0,0.285-0.002,0.429-0.007c6.971-0.233,12.435-6.072,12.202-13.044l-1.313-39.361  C268.192,135.19,264.419,134.839,260.569,134.839z"/>
<ellipse style="fill:#8CC4B1;" cx="260.566" cy="431.6" rx="72.39" ry="80.4"/>
<path style="opacity:0.1;enable-background:new    ;" d="M302.868,366.368c8.586,13.217,13.66,29.435,13.66,46.977  c0,44.405-32.412,80.401-72.395,80.401c-15.796,0-30.398-5.635-42.299-15.171C214.98,498.814,236.382,512,260.569,512  c39.983,0,72.395-35.997,72.395-80.401C332.964,404.737,321.091,380.969,302.868,366.368z"/>
<ellipse style="fill:#8CC4B1;" cx="313.016" cy="340.21" rx="72.39" ry="80.4"/>
<ellipse style="opacity:0.05;enable-background:new    ;" cx="313.006" cy="340.21" rx="72.39" ry="80.4"/>
<path style="opacity:0.1;enable-background:new    ;" d="M355.315,274.976c8.586,13.217,13.66,29.435,13.66,46.977  c0,44.405-32.412,80.402-72.395,80.402c-15.796,0-30.398-5.635-42.299-15.171c13.147,20.238,34.548,33.424,58.735,33.424  c39.983,0,72.395-35.997,72.395-80.401C385.411,313.345,373.538,289.577,355.315,274.976z"/>
<ellipse transform="matrix(-0.342 -0.9397 0.9397 -0.342 274.2984 639.5247)" style="fill:#8CC4B1;" cx="361.054" cy="223.727" rx="80.4" ry="72.39"/>
<path style="opacity:0.1;enable-background:new    ;" d="M378.496,147.956c12.589,9.483,22.904,22.987,28.903,39.472  c15.187,41.727-2.959,86.638-40.53,100.313c-14.843,5.402-30.492,5.101-44.937,0.211c19.276,14.521,43.896,19.592,66.625,11.32  c37.572-13.675,55.717-58.587,40.53-100.313C419.9,173.718,400.614,155.444,378.496,147.956z"/>
<ellipse style="fill:#8CC4B1;" cx="201.836" cy="332.31" rx="72.39" ry="80.4"/>
<path style="opacity:0.1;enable-background:new    ;" d="M244.133,267.076c8.586,13.217,13.66,29.435,13.66,46.977  c0,44.405-32.412,80.401-72.395,80.401c-15.796,0-30.398-5.635-42.299-15.171c13.147,20.238,34.548,33.424,58.735,33.424  c39.983,0,72.395-35.997,72.395-80.401C274.229,305.445,262.356,281.676,244.133,267.076z"/>
<ellipse style="fill:#8CC4B1;" cx="149.936" cy="215.24" rx="72.39" ry="80.4"/>
<path style="opacity:0.1;enable-background:new    ;" d="M192.232,150.009c8.586,13.217,13.66,29.435,13.66,46.977  c0,44.404-32.412,80.401-72.395,80.401c-15.796,0-30.398-5.635-42.299-15.171c13.147,20.238,34.548,33.424,58.735,33.424  c39.983,0,72.395-35.997,72.395-80.401C222.328,188.378,210.455,164.61,192.232,150.009z"/>
<ellipse style="fill:#8CC4B1;" cx="260.566" cy="230.47" rx="72.39" ry="80.4"/>
<ellipse style="opacity:0.05;enable-background:new    ;" cx="260.566" cy="230.47" rx="72.39" ry="80.4"/>
<path style="opacity:0.1;enable-background:new    ;" d="M302.868,165.236c8.586,13.217,13.66,29.435,13.66,46.977  c0,44.404-32.412,80.402-72.395,80.402c-15.796,0-30.398-5.635-42.299-15.171c13.147,20.238,34.548,33.424,58.735,33.424  c39.983,0,72.395-35.997,72.395-80.401C332.964,203.605,321.091,179.837,302.868,165.236z"/>
<g>
</g>
<g>
</g>
<g>
</g>
<g>
</g>
<g>
</g>
<g>
</g>
<g>
</g>
<g>
</g>
<g>
</g>
<g>
</g>
<g>
</g>
<g>
</g>
<g>
</g>
<g>
</g>
<g>
</g>
</svg>
