<?xml version="1.0" encoding="iso-8859-1"?>
<!-- Generator: Adobe Illustrator 19.0.0, SVG Export Plug-In . SVG Version: 6.00 Build 0)  -->
<svg xmlns="http://www.w3.org/2000/svg" xmlns:xlink="http://www.w3.org/1999/xlink" version="1.1" id="Capa_1" x="0px" y="0px" viewBox="0 0 512 512" style="enable-background:new 0 0 512 512;" xml:space="preserve">
<path style="fill:#DBDCDD;" d="M383.441,208.303l57.532,20.94l56.958-133.921c8.61-20.245-1.522-43.57-22.195-51.094l0,0  c-20.673-7.524-43.428,3.831-49.845,24.874L383.441,208.303z"/>
<path style="opacity:0.1;enable-background:new    ;" d="M417.428,213.41c-0.827,0-1.669-0.138-2.493-0.429  c-3.907-1.377-5.957-5.66-4.58-9.566l33.733-95.691c1.376-3.906,5.662-5.96,9.566-4.58c3.907,1.377,5.957,5.66,4.58,9.566  l-33.733,95.691C423.415,211.483,420.52,213.41,417.428,213.41z"/>
<polygon style="opacity:0.1;enable-background:new    ;" points="393.847,174.179 383.44,208.303 418.856,221.193 444.397,221.193   464.392,174.179 "/>
<g>
	<path style="fill:#9BD3E0;" d="M0.072,218.133c7.246,86.257,57.122,160.384,128.487,201.25H383.44   c71.365-40.865,121.242-114.992,128.487-201.25c0.984-11.713-8.21-21.786-19.964-21.786H20.036   C8.282,196.348-0.912,206.421,0.072,218.133z"/>
	<path style="fill:#9BD3E0;" d="M366.635,470.1h-221.27c-9.281,0-16.806-7.524-16.806-16.806v-33.911H383.44v33.911   C383.441,462.576,375.916,470.1,366.635,470.1z"/>
</g>
<path style="opacity:0.1;enable-background:new    ;" d="M366.635,470.1h-221.27c-9.281,0-16.806-7.524-16.806-16.806v-33.911  H383.44v33.911C383.441,462.576,375.916,470.1,366.635,470.1z"/>
<path style="opacity:0.1;enable-background:new    ;" d="M335.801,419.384v33.91c0,9.281-7.524,16.806-16.806,16.806h47.64  c9.281,0,16.806-7.524,16.806-16.806v-33.91H335.801z"/>
<path style="fill:#FAD97E;" d="M491.964,196.346H20.036c-11.754,0-20.948,10.073-19.964,21.786  c0.974,11.596,2.743,22.963,5.207,34.069c14.461-4.503,30.869-1.038,42.323,10.415c16.442,16.442,43.1,16.442,59.542,0l0,0  c16.442-16.442,43.1-16.442,59.542,0l0,0c16.442,16.442,43.1,16.442,59.542,0l0,0c16.442-16.442,43.1-16.442,59.542,0l0,0  c16.442,16.442,43.1,16.442,59.542,0c16.442-16.442,43.1-16.442,59.543,0c16.442,16.442,43.1,16.442,59.542,0  c11.453-11.453,27.862-14.918,42.323-10.415c2.464-11.106,4.232-22.473,5.206-34.069  C512.912,206.421,503.718,196.346,491.964,196.346z"/>
<path style="opacity:0.1;enable-background:new    ;" d="M491.964,196.346h-47.64c11.754,0,20.948,10.073,19.964,21.786  c-7.246,86.257-57.122,160.384-128.487,201.25h47.64c71.365-40.865,121.242-114.992,128.487-201.25  C512.912,206.421,503.718,196.346,491.964,196.346z"/>
<g>
	<path style="fill:#4A5058;" d="M171.585,336.316c-4.142,0-7.5-3.357-7.5-7.5v-14.398c0-4.142,3.358-7.5,7.5-7.5s7.5,3.358,7.5,7.5   v14.398C179.085,332.959,175.727,336.316,171.585,336.316z"/>
	<path style="fill:#4A5058;" d="M256,364.12L256,364.12c-13.422,0-24.303-10.881-24.303-24.302v-17.802   c0-3.581,2.903-6.484,6.485-6.484h35.636c3.581,0,6.484,2.903,6.484,6.484v17.802C280.303,353.239,269.422,364.12,256,364.12z"/>
	<path style="fill:#4A5058;" d="M340.415,336.316c-4.142,0-7.5-3.357-7.5-7.5v-14.398c0-4.142,3.358-7.5,7.5-7.5   c4.143,0,7.5,3.358,7.5,7.5v14.398C347.915,332.959,344.558,336.316,340.415,336.316z"/>
</g>
<g style="opacity:0.3;">
	<ellipse style="fill:#F15B70;" cx="174.5" cy="359.53" rx="34.887" ry="15.14"/>
	<ellipse style="fill:#F15B70;" cx="337.5" cy="359.53" rx="34.887" ry="15.14"/>
</g>
<g>
	<path style="fill:#DBDCDD;" d="M176.815,169.4c-1.125,0-2.267-0.255-3.343-0.791c-3.706-1.85-5.211-6.354-3.361-10.061   c5.477-10.974,3.49-24.33-4.946-33.233c-8.466-8.937-12.753-20.626-12.072-32.917s6.233-23.436,15.634-31.382   c3.164-2.675,7.895-2.277,10.57,0.886c2.674,3.164,2.277,7.895-0.886,10.569c-6.218,5.256-9.891,12.628-10.341,20.757   s2.385,15.86,7.985,21.771c12.753,13.462,15.758,33.655,7.477,50.249C182.219,167.878,179.568,169.4,176.815,169.4z"/>
	<path style="fill:#DBDCDD;" d="M262.205,169.4c-1.126,0-2.268-0.255-3.344-0.791c-3.706-1.851-5.211-6.355-3.361-10.061   c5.477-10.974,3.49-24.33-4.945-33.233c-8.466-8.937-12.753-20.626-12.072-32.917s6.233-23.436,15.634-31.382   c3.165-2.674,7.896-2.276,10.569,0.886c2.674,3.164,2.277,7.895-0.886,10.569c-6.218,5.256-9.891,12.628-10.341,20.757   s2.385,15.86,7.984,21.771c12.754,13.463,15.759,33.656,7.478,50.249C267.608,167.878,264.958,169.4,262.205,169.4z"/>
	<path style="fill:#DBDCDD;" d="M347.596,169.4c-1.126,0-2.268-0.255-3.344-0.791c-3.706-1.851-5.211-6.355-3.361-10.061   c5.478-10.974,3.49-24.33-4.944-33.233c-8.467-8.937-12.754-20.627-12.073-32.917c0.682-12.291,6.233-23.436,15.635-31.382   c3.164-2.674,7.896-2.276,10.569,0.886c2.675,3.164,2.277,7.895-0.886,10.569c-6.218,5.256-9.891,12.627-10.341,20.756   s2.385,15.861,7.984,21.771c12.754,13.463,15.759,33.656,7.477,50.249C352.999,167.878,350.349,169.4,347.596,169.4z"/>
</g>
<g>
</g>
<g>
</g>
<g>
</g>
<g>
</g>
<g>
</g>
<g>
</g>
<g>
</g>
<g>
</g>
<g>
</g>
<g>
</g>
<g>
</g>
<g>
</g>
<g>
</g>
<g>
</g>
<g>
</g>
</svg>
