<?xml version="1.0" encoding="iso-8859-1"?>
<!-- Generator: Adobe Illustrator 19.0.0, SVG Export Plug-In . SVG Version: 6.00 Build 0)  -->
<svg xmlns="http://www.w3.org/2000/svg" xmlns:xlink="http://www.w3.org/1999/xlink" version="1.1" id="Capa_1" x="0px" y="0px" viewBox="0 0 512 512" style="enable-background:new 0 0 512 512;" xml:space="preserve">
<path style="fill:#9BD3E0;" d="M284.378,301.244l-73.623-73.623c-6.326-6.326-16.582-6.326-22.908,0l-19.961,19.961l96.531,96.531  l19.961-19.961C290.704,317.827,290.704,307.57,284.378,301.244z"/>
<path style="fill:#A16B4E;" d="M270.604,287.47l-46.074-46.074L459.213,6.714c8.951-8.951,23.464-8.951,32.416,0l13.658,13.658  c8.951,8.951,8.951,23.464,0,32.416L270.604,287.47z"/>
<g>
	<path style="fill:#DBDCDD;" d="M7.5,308.528c-1.919,0-3.839-0.732-5.303-2.196c-2.929-2.93-2.929-7.678,0-10.607l66.638-66.639   c2.929-2.928,7.678-2.928,10.606,0c2.929,2.93,2.929,7.678,0,10.607l-66.638,66.639C11.339,307.796,9.42,308.528,7.5,308.528z"/>
	<path style="fill:#DBDCDD;" d="M41.412,342.44c-1.919,0-3.839-0.732-5.303-2.196c-2.929-2.93-2.929-7.678,0-10.608l66.638-66.638   c2.929-2.928,7.678-2.928,10.606,0c2.929,2.93,2.929,7.678,0,10.608l-66.638,66.638C45.251,341.707,43.332,342.44,41.412,342.44z"/>
	<path style="fill:#DBDCDD;" d="M75.324,376.352c-1.919,0-3.839-0.733-5.303-2.196c-2.929-2.93-2.929-7.678,0-10.607l66.638-66.638   c2.929-2.928,7.678-2.928,10.606,0c2.929,2.93,2.929,7.678,0,10.607l-66.638,66.638C79.163,375.619,77.244,376.352,75.324,376.352z   "/>
	<path style="fill:#DBDCDD;" d="M109.236,410.264c-1.919,0-3.839-0.732-5.303-2.196c-2.929-2.93-2.929-7.678,0-10.607l66.638-66.638   c2.929-2.928,7.678-2.928,10.606,0c2.929,2.93,2.929,7.678,0,10.607l-66.638,66.638   C113.075,409.531,111.155,410.264,109.236,410.264z"/>
	<path style="fill:#DBDCDD;" d="M143.148,444.176c-1.919,0-3.839-0.732-5.303-2.196c-2.929-2.93-2.929-7.678,0-10.607l66.638-66.638   c2.929-2.928,7.678-2.928,10.606,0c2.929,2.93,2.929,7.678,0,10.607l-66.638,66.638   C146.987,443.443,145.068,444.176,143.148,444.176z"/>
	<path style="fill:#DBDCDD;" d="M177.06,478.088c-1.919,0-3.839-0.732-5.303-2.196c-2.929-2.93-2.929-7.678,0-10.607l66.638-66.638   c2.929-2.928,7.678-2.928,10.607,0c2.929,2.93,2.929,7.678,0,10.607l-66.638,66.638C180.899,477.356,178.98,478.088,177.06,478.088   z"/>
	<path style="fill:#DBDCDD;" d="M210.972,512c-1.92,0-3.839-0.732-5.303-2.196c-2.929-2.93-2.929-7.678,0-10.607l66.638-66.638   c2.929-2.928,7.678-2.928,10.607,0c2.929,2.93,2.929,7.678,0,10.607l-66.638,66.638C214.811,511.268,212.892,512,210.972,512z"/>
</g>
<g style="opacity:0.1;">
	<path d="M7.5,308.528c-1.919,0-3.839-0.732-5.303-2.196c-2.929-2.93-2.929-7.678,0-10.607l66.638-66.639   c2.929-2.928,7.678-2.928,10.606,0c2.929,2.93,2.929,7.678,0,10.607l-66.638,66.639C11.339,307.796,9.42,308.528,7.5,308.528z"/>
	<path d="M41.412,342.44c-1.919,0-3.839-0.732-5.303-2.196c-2.929-2.93-2.929-7.678,0-10.608l66.638-66.638   c2.929-2.928,7.678-2.928,10.606,0c2.929,2.93,2.929,7.678,0,10.608l-66.638,66.638C45.251,341.707,43.332,342.44,41.412,342.44z"/>
	<path d="M75.324,376.352c-1.919,0-3.839-0.733-5.303-2.196c-2.929-2.93-2.929-7.678,0-10.607l66.638-66.638   c2.929-2.928,7.678-2.928,10.606,0c2.929,2.93,2.929,7.678,0,10.607l-66.638,66.638C79.163,375.619,77.244,376.352,75.324,376.352z   "/>
	<path d="M109.236,410.264c-1.919,0-3.839-0.732-5.303-2.196c-2.929-2.93-2.929-7.678,0-10.607l66.638-66.638   c2.929-2.928,7.678-2.928,10.606,0c2.929,2.93,2.929,7.678,0,10.607l-66.638,66.638   C113.075,409.531,111.155,410.264,109.236,410.264z"/>
	<path d="M143.148,444.176c-1.919,0-3.839-0.732-5.303-2.196c-2.929-2.93-2.929-7.678,0-10.607l66.638-66.638   c2.929-2.928,7.678-2.928,10.606,0c2.929,2.93,2.929,7.678,0,10.607l-66.638,66.638   C146.987,443.443,145.068,444.176,143.148,444.176z"/>
	<path d="M177.06,478.088c-1.919,0-3.839-0.732-5.303-2.196c-2.929-2.93-2.929-7.678,0-10.607l66.638-66.638   c2.929-2.928,7.678-2.928,10.607,0c2.929,2.93,2.929,7.678,0,10.607l-66.638,66.638C180.899,477.356,178.98,478.088,177.06,478.088   z"/>
	<path d="M210.972,512c-1.92,0-3.839-0.732-5.303-2.196c-2.929-2.93-2.929-7.678,0-10.607l66.638-66.638   c2.929-2.928,7.678-2.928,10.607,0c2.929,2.93,2.929,7.678,0,10.607l-66.638,66.638C214.811,511.268,212.892,512,210.972,512z"/>
</g>
<path style="fill:#E8E8E8;" d="M270.377,469.235L42.765,241.623c-9.515-9.515-9.515-24.941,0-34.455l25.125-25.125  c9.515-9.515,24.941-9.515,34.455,0l227.612,227.612c9.515,9.514,9.515,24.941,0,34.455l-25.125,25.125  C295.318,478.75,279.892,478.75,270.377,469.235z"/>
<path style="opacity:0.1;enable-background:new    ;" d="M285.49,416.701L95.299,226.51c-7.95-7.95-20.84-7.95-28.791,0  L47.08,245.938L266.062,464.92l19.428-19.428C293.441,437.542,293.441,424.652,285.49,416.701z"/>
<path style="opacity:0.1;enable-background:new    ;" d="M270.377,469.235c9.515,9.515,24.941,9.515,34.455,0l25.125-25.125  c9.515-9.515,9.515-24.941,0-34.455l-21.553-21.553c9.514,9.514,9.514,24.941,0,34.455l-42.353,42.353L270.377,469.235z"/>
<path style="opacity:0.1;enable-background:new    ;" d="M284.378,301.244l-14.331-14.331c6.326,6.326,6.326,16.582,0,22.908  l-8.848,8.849l-82.201-82.2l-11.113,11.113l96.531,96.531l19.961-19.961C290.704,317.827,290.704,307.57,284.378,301.244z"/>
<path style="opacity:0.1;enable-background:new    ;" d="M505.287,20.372L493.902,8.987c8.951,8.951,8.951,23.464,0,32.416  L278.32,256.985l-34.689-34.689l-19.101,19.101l46.074,46.074L505.287,52.787C514.238,43.836,514.238,29.323,505.287,20.372z"/>
<g>
</g>
<g>
</g>
<g>
</g>
<g>
</g>
<g>
</g>
<g>
</g>
<g>
</g>
<g>
</g>
<g>
</g>
<g>
</g>
<g>
</g>
<g>
</g>
<g>
</g>
<g>
</g>
<g>
</g>
</svg>
