<?xml version="1.0" encoding="iso-8859-1"?>
<!-- Generator: Adobe Illustrator 19.0.0, SVG Export Plug-In . SVG Version: 6.00 Build 0)  -->
<svg xmlns="http://www.w3.org/2000/svg" xmlns:xlink="http://www.w3.org/1999/xlink" version="1.1" id="Capa_1" x="0px" y="0px" viewBox="0 0 512 512" style="enable-background:new 0 0 512 512;" xml:space="preserve">
<path style="fill:#FC8063;" d="M133.274,81.716v140.191c0,23.426-9.306,45.893-25.871,62.457l-52.46,52.46  c-40.074,40.074-40.074,105.047,0,145.121l0,0c40.074,40.074,105.047,40.074,145.121,0l84.462-84.462  c34.563-34.563,53.98-81.44,53.98-130.319V81.716c0-8.577-6.953-15.53-15.53-15.53H148.804  C140.227,66.186,133.274,73.139,133.274,81.716z"/>
<g>
	<path style="fill:#A16B4E;" d="M338.507,123.023H133.274V81.716c0-8.577,6.953-15.53,15.53-15.53h174.172   c8.577,0,15.53,6.953,15.53,15.53V123.023z"/>
	<path style="fill:#A16B4E;" d="M54.944,359.95c-6.153,0-12.198,0.46-18.107,1.34c-20.588,38.783-14.559,87.989,18.107,120.655l0,0   c32.666,32.666,81.872,38.695,120.655,18.107c0.879-5.908,1.34-11.954,1.34-18.107C176.938,414.569,122.32,359.95,54.944,359.95z"/>
</g>
<path style="fill:#FAE5AA;" d="M271.493,176.362L271.493,176.362c-19.481,19.481-51.067,19.481-70.548,0l0,0  c-18.551-18.551-48.071-19.423-67.67-2.642v48.187c0,0.58-0.032,1.156-0.043,1.735c19.599-16.819,49.148-15.96,67.713,2.605l0,0  c19.481,19.481,51.067,19.481,70.548,0l0,0c18.344-18.344,47.417-19.408,67.014-3.206v-49.885  C318.909,156.954,289.837,158.018,271.493,176.362z"/>
<g style="opacity:0.1;">
	<rect x="228.39" y="66.19" width="15" height="56.837"/>
	<rect x="174.2" y="66.19" width="15" height="56.837"/>
	<rect x="282.58" y="66.19" width="15" height="56.837"/>
</g>
<path style="opacity:0.1;enable-background:new    ;" d="M322.977,66.186h-45.618c8.577,0,15.53,6.953,15.53,15.53v185.449  c0,48.879-19.417,95.756-53.98,130.319l-84.462,84.462c-14.196,14.196-31.52,23.337-49.751,27.475  c33.234,7.544,69.491-1.597,95.369-27.475l84.462-84.462c34.563-34.563,53.98-81.44,53.98-130.319V81.716  C338.507,73.139,331.553,66.186,322.977,66.186z"/>
<g style="opacity:0.1;">
	<path d="M147.815,339.134H118.41c-4.143,0-7.5-3.358-7.5-7.5s3.357-7.5,7.5-7.5h29.405c4.143,0,7.5,3.358,7.5,7.5   S151.957,339.134,147.815,339.134z"/>
	<path d="M204.029,300.6c-1.919,0-3.839-0.732-5.304-2.197l-13.741-13.741c-2.929-2.929-2.929-7.678,0-10.606   c2.93-2.929,7.678-2.929,10.607,0l13.741,13.741c2.929,2.929,2.929,7.678,0,10.606C207.868,299.867,205.948,300.6,204.029,300.6z"/>
	<path d="M221.601,376.163c-1.92,0-3.839-0.732-5.304-2.197c-2.929-2.929-2.929-7.678,0.001-10.606l13.749-13.749   c2.928-2.929,7.677-2.929,10.606,0s2.929,7.678-0.001,10.607l-13.749,13.748C225.44,375.43,223.52,376.163,221.601,376.163z"/>
	<path d="M255.401,169.254c-1.92,0-3.839-0.732-5.304-2.197c-2.929-2.929-2.929-7.678,0.001-10.606l13.749-13.749   c2.929-2.93,7.678-2.929,10.606,0c2.929,2.929,2.929,7.678-0.001,10.607l-13.749,13.748   C259.24,168.522,257.32,169.254,255.401,169.254z"/>
	<path d="M292.889,269.433h-27.454c-4.143,0-7.5-3.358-7.5-7.5s3.357-7.5,7.5-7.5h27.454c4.143,0,7.5,3.358,7.5,7.5   S297.031,269.433,292.889,269.433z"/>
	<path d="M208.081,153.215h-16.02c-4.143,0-7.5-3.358-7.5-7.5s3.357-7.5,7.5-7.5h16.02c4.143,0,7.5,3.358,7.5,7.5   S212.224,153.215,208.081,153.215z"/>
</g>
<path style="fill:#FC8063;" d="M281.88,15.53v140.191c0,23.426-9.306,45.893-25.871,62.457l-52.46,52.46  c-40.074,40.074-40.074,105.047,0,145.121l0,0c40.074,40.074,105.047,40.074,145.121,0l84.462-84.462  c34.563-34.563,53.98-81.44,53.98-130.319V15.53c0-8.577-6.953-15.53-15.53-15.53H297.409C288.833,0,281.88,6.953,281.88,15.53z"/>
<g>
	<path style="fill:#A16B4E;" d="M487.111,56.837H281.88V15.53c0-8.577,6.953-15.53,15.53-15.53h174.172   c8.577,0,15.53,6.953,15.53,15.53v41.307H487.111z"/>
	<path style="fill:#A16B4E;" d="M203.549,293.764c-6.153,0-12.198,0.46-18.107,1.34c-20.589,38.783-14.559,87.989,18.107,120.655   l0,0c32.666,32.666,81.872,38.695,120.655,18.107c0.879-5.908,1.34-11.954,1.34-18.107   C325.543,348.383,270.925,293.764,203.549,293.764z"/>
</g>
<path style="fill:#FAE5AA;" d="M420.098,110.176L420.098,110.176c-19.481,19.481-51.067,19.481-70.548,0l0,0  c-18.551-18.551-48.071-19.423-67.67-2.642v48.187c0,0.58-0.032,1.156-0.043,1.735c19.599-16.819,49.148-15.96,67.713,2.605l0,0  c19.481,19.481,51.066,19.481,70.548,0l0,0c18.344-18.344,47.417-19.408,67.014-3.206V106.97  C467.516,90.768,438.442,91.832,420.098,110.176z"/>
<g style="opacity:0.1;">
	<rect x="377" width="15" height="56.837"/>
	<rect x="322.8" width="15" height="56.837"/>
	<rect x="431.19" width="15" height="56.837"/>
</g>
<path style="opacity:0.1;enable-background:new    ;" d="M471.582,0h-45.618c8.577,0,15.53,6.953,15.53,15.53v185.449  c0,48.879-19.417,95.756-53.98,130.319l-84.462,84.462c-14.196,14.196-31.521,23.337-49.751,27.475  c33.234,7.544,69.491-1.597,95.369-27.475l84.462-84.462c34.563-34.563,53.98-81.44,53.98-130.319V15.53  C487.111,6.953,480.159,0,471.582,0z"/>
<g style="opacity:0.1;">
	<path d="M296.421,272.948h-29.405c-4.143,0-7.5-3.358-7.5-7.5s3.357-7.5,7.5-7.5h29.405c4.143,0,7.5,3.358,7.5,7.5   S300.563,272.948,296.421,272.948z"/>
	<path d="M352.635,234.414c-1.92,0-3.839-0.732-5.304-2.197l-13.741-13.742c-2.929-2.929-2.929-7.678,0.001-10.606   c2.928-2.93,7.677-2.929,10.607,0l13.741,13.742c2.929,2.929,2.929,7.678-0.001,10.606   C356.474,233.682,354.554,234.414,352.635,234.414z"/>
	<path d="M370.206,309.977c-1.92,0-3.839-0.732-5.304-2.197c-2.929-2.929-2.929-7.678,0.001-10.607l13.749-13.749   c2.929-2.93,7.678-2.929,10.607,0s2.929,7.678-0.001,10.606l-13.749,13.749C374.046,309.244,372.125,309.977,370.206,309.977z"/>
	<path d="M404.007,103.069c-1.919,0-3.839-0.732-5.304-2.197c-2.929-2.929-2.929-7.678,0-10.606l13.749-13.749   c2.93-2.929,7.678-2.929,10.607,0s2.929,7.678,0,10.606l-13.749,13.749C407.846,102.336,405.926,103.069,404.007,103.069z"/>
	<path d="M441.493,203.248H414.04c-4.142,0-7.5-3.358-7.5-7.5s3.358-7.5,7.5-7.5h27.453c4.142,0,7.5,3.358,7.5,7.5   S445.636,203.248,441.493,203.248z"/>
	<path d="M356.688,87.029h-16.02c-4.143,0-7.5-3.358-7.5-7.5s3.357-7.5,7.5-7.5h16.02c4.143,0,7.5,3.358,7.5,7.5   S360.829,87.029,356.688,87.029z"/>
</g>
<g>
</g>
<g>
</g>
<g>
</g>
<g>
</g>
<g>
</g>
<g>
</g>
<g>
</g>
<g>
</g>
<g>
</g>
<g>
</g>
<g>
</g>
<g>
</g>
<g>
</g>
<g>
</g>
<g>
</g>
</svg>
