<?xml version="1.0" encoding="iso-8859-1"?>
<!-- Generator: Adobe Illustrator 19.0.0, SVG Export Plug-In . SVG Version: 6.00 Build 0)  -->
<svg xmlns="http://www.w3.org/2000/svg" xmlns:xlink="http://www.w3.org/1999/xlink" version="1.1" id="Capa_1" x="0px" y="0px" viewBox="0 0 512 512" style="enable-background:new 0 0 512 512;" xml:space="preserve">
<path style="fill:#F2BA5B;" d="M380.681,512H131.319c-18.478,0-33.457-14.979-33.457-33.457V183.277  c0-57.764,46.827-104.59,104.59-104.59h107.095c57.764,0,104.59,46.827,104.59,104.59v295.266  C414.138,497.021,399.159,512,380.681,512z"/>
<path style="fill:#9BD3E0;" d="M97.862,221.523v257.02c0,18.478,14.979,33.457,33.457,33.457h249.362  c18.478,0,33.457-14.979,33.457-33.457v-257.02L97.862,221.523L97.862,221.523z"/>
<path style="fill:#F2BA5B;" d="M97.862,471.955v6.588c0,18.478,14.979,33.457,33.457,33.457h249.362  c18.478,0,33.457-14.979,33.457-33.457v-6.588H97.862z"/>
<path style="opacity:0.1;enable-background:new    ;" d="M306.022,384.168H291.76c14.49-21.119,14.591-47.635-1.207-63.433  c-15.798-15.799-42.314-15.697-63.433-1.207v-14.262c0-15.889-12.88-28.769-28.769-28.769l0,0c-15.889,0-28.769,12.88-28.769,28.769  l0,0c0,15.889,12.88,28.769,28.769,28.769h13.436c-16.615,21.548-17.504,49.867-0.952,66.418  c16.552,16.552,44.87,15.663,66.418-0.952v13.436c0,15.889,12.88,28.769,28.769,28.769s28.769-12.88,28.769-28.769l0,0  C334.791,397.048,321.911,384.168,306.022,384.168z"/>
<path style="fill:#7D4E3E;" d="M358.318,0H153.682c-15.607,0-28.259,12.652-28.259,28.259v50.428h261.153V28.259  C386.576,12.652,373.925,0,358.318,0z"/>
<path style="opacity:0.1;enable-background:new    ;" d="M309.548,78.686H202.452c-42.515,0-79.102,25.368-95.458,61.792  c0.365,14.51,15.105,26.726,30.896,20.858l0,0c7.411-2.754,15.719-1.483,21.967,3.361l15.273,11.839  c12.196,9.454,28.844,10.753,42.359,3.307l19.846-10.934c11.619-6.402,25.709-6.402,37.328,0l19.846,10.934  c13.515,7.447,30.163,6.147,42.359-3.307l15.273-11.839c4.103-3.18,9.094-4.809,14.136-4.781c1.715,7.512,2.631,15.328,2.631,23.36  v295.266c0,18.478-14.979,33.457-33.457,33.457h45.229c18.478,0,33.457-14.979,33.457-33.457V183.277  C414.138,125.513,367.311,78.686,309.548,78.686z"/>
<path style="fill:#A16B4E;" d="M386.576,78.686l15.299,26.534c10.695,18.549-7.695,40.305-27.766,32.847l0,0  c-7.411-2.754-15.719-1.483-21.967,3.361l-15.273,11.839c-12.196,9.454-28.844,10.753-42.359,3.307l-19.846-10.935  c-11.619-6.402-25.709-6.402-37.328,0l-19.846,10.935c-13.515,7.446-30.163,6.147-42.359-3.307l-15.273-11.839  c-6.249-4.844-14.557-6.115-21.967-3.361l0,0c-20.071,7.458-38.461-14.297-27.766-32.847l15.299-26.534L386.576,78.686  L386.576,78.686z"/>
<path style="opacity:0.1;enable-background:new    ;" d="M358.318,0h-23.371c15.607,0,28.259,12.652,28.259,28.259v50.428h23.371  V28.259C386.576,12.652,373.925,0,358.318,0z"/>
<path style="opacity:0.1;enable-background:new    ;" d="M401.876,105.22l-15.299-26.534H125.423L119.477,89h249.675l9.353,16.221  c7.089,12.294,1.395,25.987-9.09,31.66c1.586,0.229,3.16,0.617,4.694,1.187l0,0C394.18,145.525,412.571,123.77,401.876,105.22z"/>
<path style="fill:#FAD97E;" d="M388.252,48.876H123.748c-8.232,0-14.905,6.673-14.905,14.905l0,0  c0,8.232,6.673,14.905,14.905,14.905h264.504c8.232,0,14.905-6.673,14.905-14.905l0,0C403.157,55.549,396.484,48.876,388.252,48.876  z"/>
<g style="opacity:0.1;">
	<rect x="248.5" y="48.876" width="15" height="29.81"/>
	<rect x="195.63" y="48.876" width="15" height="29.81"/>
	<rect x="142.76" y="48.876" width="15" height="29.81"/>
	<rect x="301.37" y="48.876" width="15" height="29.81"/>
	<rect x="354.24" y="48.876" width="15" height="29.81"/>
</g>
<path style="fill:#FFFFFF;" d="M219.44,325.445h-21.089c-15.889,0-28.769-12.88-28.769-28.769l0,0  c0-15.889,12.881-28.769,28.769-28.769l0,0c15.889,0,28.769,12.88,28.769,28.769v21.089  C227.12,322.007,223.682,325.445,219.44,325.445z"/>
<path style="opacity:0.1;enable-background:new    ;" d="M210.493,311.803c-4.236,4.236-7.847,8.831-10.848,13.642h19.795  c4.241,0,7.68-3.438,7.68-7.68v-18.592C221.145,302.535,215.524,306.771,210.493,311.803z"/>
<path style="fill:#FFFFFF;" d="M277.253,383.258v21.089c0,15.889,12.88,28.769,28.769,28.769l0,0  c15.889,0,28.769-12.88,28.769-28.769l0,0c0-15.889-12.88-28.769-28.769-28.769h-21.089  C280.691,375.578,277.253,379.017,277.253,383.258z"/>
<path style="opacity:0.1;enable-background:new    ;" d="M284.933,375.578c-4.242,0-7.68,3.438-7.68,7.68v19.806  c4.864-3.041,9.457-6.674,13.642-10.859c5.104-5.104,9.304-10.727,12.612-16.628h-18.574V375.578z"/>
<ellipse transform="matrix(0.7071 -0.7071 0.7071 0.7071 -175.4695 280.3633)" style="fill:#FAD97E;" cx="250.694" cy="351.992" rx="56.369" ry="46.853"/>
<path style="fill:#4A5058;" d="M217.564,318.874c-1.799,1.799-3.458,3.676-5.002,5.604l65.659,65.659  c1.928-1.544,3.805-3.203,5.604-5.003c1.799-1.799,3.458-3.676,5.003-5.604l-65.659-65.659  C221.24,315.416,219.363,317.075,217.564,318.874z M199.697,352.269l50.731,50.732c5.361-0.951,10.738-2.72,15.929-5.285  l-61.375-61.375C202.417,341.532,200.648,346.908,199.697,352.269z M250.959,301.008c-5.361,0.951-10.737,2.72-15.928,5.285  l61.375,61.375c2.565-5.191,4.335-10.567,5.285-15.929L250.959,301.008z"/>
<path style="opacity:0.1;enable-background:new    ;" d="M302.473,340.45c-2.381,11.129-8.256,22.228-17.481,31.453  c-22.014,22.014-54.692,25.027-72.99,6.729c-7.566-7.566-11.478-17.593-11.919-28.306c-3.301,15.425,0.123,30.907,10.752,41.536  c18.297,18.297,50.976,15.284,72.99-6.729C296.735,372.223,303.1,355.646,302.473,340.45z"/>
<g>
</g>
<g>
</g>
<g>
</g>
<g>
</g>
<g>
</g>
<g>
</g>
<g>
</g>
<g>
</g>
<g>
</g>
<g>
</g>
<g>
</g>
<g>
</g>
<g>
</g>
<g>
</g>
<g>
</g>
</svg>
