<?xml version="1.0" encoding="iso-8859-1"?>
<!-- Generator: Adobe Illustrator 19.0.0, SVG Export Plug-In . SVG Version: 6.00 Build 0)  -->
<svg xmlns="http://www.w3.org/2000/svg" xmlns:xlink="http://www.w3.org/1999/xlink" version="1.1" id="Capa_1" x="0px" y="0px" viewBox="0 0 511.997 511.997" style="enable-background:new 0 0 511.997 511.997;" xml:space="preserve">
<path style="fill:#FC8063;" d="M492.645,136.363c-17.367,17.367-45.283,19.57-60.399,19.338  c-6.145-0.094-11.088-5.038-11.183-11.183c-0.232-15.116,1.972-43.032,19.338-60.399c17.367-17.367,45.283-19.57,60.399-19.338  c6.145,0.094,11.088,5.038,11.182,11.183C512.215,91.081,510.012,118.997,492.645,136.363z"/>
<path style="opacity:0.1;enable-background:new    ;" d="M454.092,130.174c-1.919,0-3.839-0.732-5.303-2.197  c-2.93-2.929-2.93-7.677-0.001-10.606l24.864-24.865c2.93-2.929,7.679-2.93,10.607,0c2.93,2.929,2.93,7.677,0.001,10.606  l-24.864,24.865C457.931,129.442,456.011,130.174,454.092,130.174z"/>
<path style="fill:#A16B4E;" d="M481.019,138.091c-1.498-9.579-10.674-15.862-20.05-13.938l-25.568,5.239  c-2.535,0.519-4.798-1.673-4.361-4.223l11.462-66.785c1.576-9.179-4.589-17.897-13.769-19.473  c-9.178-1.58-17.898,4.589-19.473,13.768l-13.785,80.322c-0.491,2.857-2.683,5.122-5.523,5.704l-33.635,6.892  c-5.039,1.033-9.331,4.309-11.657,8.896l-36.437,59.453c-1.481,2.416-5.21,1.05-4.779-1.751l10.865-70.615  c0.421-2.734,2.297-5.023,4.897-5.971l32.656-11.909c8.532-3.111,13.482-12.345,10.775-21.014  c-2.89-9.253-12.878-14.117-21.88-10.836l-46.693,17.028c-5.781,2.108-9.955,7.197-10.89,13.279l-12.457,80.967  c-0.739,4.802-7.54,5.118-8.72,0.404l-19.381-77.407c-1.022-4.081,0.189-8.398,3.183-11.353l59.62-58.831  c6.629-6.541,6.701-17.219,0.158-23.848c-6.54-6.63-17.218-6.701-23.848-0.159l-32.66,32.229c-2.285,2.255-5.939,2.315-8.297,0.136  l-39.946-36.906c-6.67-6.162-17.145-6.339-23.614,0.034c-6.906,6.804-6.662,17.911,0.377,24.415l39.852,36.82  c1.913,1.767,1.962,4.774,0.109,6.603l-6.909,6.817c-4.129,4.074-5.874,9.985-4.62,15.649l19.711,89.02  c1.061,4.793-4.976,7.834-8.195,4.128l-31.979-36.811c-4.083-4.7-7.535-9.912-10.269-15.505l-34.584-70.754  c-4.09-8.368-14.19-11.836-22.556-7.745c-8.368,4.09-11.835,14.189-7.746,22.556l24.55,50.225  c2.517,5.149-0.615,11.272-6.263,12.245l-50.136,8.641c-8.949,1.542-15.464,9.746-14.345,18.757  c1.195,9.621,10.162,16.19,19.603,14.562l60.654-10.454c8.255-1.423,16.62,1.83,21.745,8.455l12.01,15.524  c6.73,8.7,9.571,19.792,7.852,30.656l-28.215,178.252h203.561l-24.466-154.57c-2.4-15.163,0.044-30.697,6.985-44.391l25.243-49.803  c1.188-2.345,3.382-4.019,5.957-4.546l37.185-7.62c0.001,0,0.003-0.001,0.004-0.001l54.944-11.259  C476.167,155.467,482.422,147.063,481.019,138.091z"/>
<path style="opacity:0.1;enable-background:new    ;" d="M353.113,180.884c-2.527,0.518-4.68,2.161-5.846,4.462l-24.774,48.876  c-6.811,13.439-9.21,28.684-6.855,43.565l20.703,130.794H161.166l-3.308,20.899H361.42l-24.466-154.57  c-2.4-15.163,0.044-30.697,6.985-44.391l25.243-49.803c0.912-1.799,2.417-3.197,4.23-3.991L353.113,180.884z"/>
<path style="fill:#93C8C0;" d="M466.529,492.707H52.749c-7.346,0-13.301-5.955-13.301-13.301V442.78  c0-7.346,5.955-13.301,13.301-13.301h413.78c7.346,0,13.301,5.955,13.301,13.301v36.626  C479.83,486.752,473.875,492.707,466.529,492.707z"/>
<path style="fill:#FC8063;" d="M70.376,90.888C53.01,73.521,50.806,45.605,51.038,30.489c0.094-6.145,5.038-11.088,11.183-11.183  c15.116-0.232,43.032,1.972,60.399,19.338s19.57,45.283,19.338,60.399c-0.094,6.145-5.038,11.088-11.183,11.182  C115.659,110.458,87.743,108.255,70.376,90.888z"/>
<path style="opacity:0.1;enable-background:new    ;" d="M108.931,84.699c-1.919,0-3.839-0.732-5.304-2.197L78.762,57.637  c-2.929-2.929-2.929-7.678,0-10.607c2.93-2.929,7.678-2.929,10.607,0l24.865,24.865c2.929,2.929,2.929,7.678,0,10.606  C112.769,83.967,110.85,84.699,108.931,84.699z"/>
<path style="fill:#FC8063;" d="M44.048,213.789c23.079,8.4,49.31-1.401,62.913-7.999c5.529-2.682,7.92-9.252,5.409-14.861  c-6.178-13.798-19.973-38.167-43.052-46.567c-23.079-8.4-49.311,1.401-62.912,7.999c-5.529,2.682-7.92,9.252-5.409,14.861  C7.174,181.019,20.969,205.389,44.048,213.789z"/>
<path style="opacity:0.1;enable-background:new    ;" d="M73.203,192.591c-0.852,0-1.718-0.146-2.564-0.454L37.595,180.11  c-3.892-1.417-5.899-5.721-4.482-9.613c1.416-3.893,5.719-5.9,9.613-4.483l33.044,12.027c3.892,1.417,5.899,5.721,4.482,9.613  C79.143,190.7,76.268,192.591,73.203,192.591z"/>
<path style="fill:#FC8063;" d="M388.013,464.193c-23.079,8.4-49.31-1.401-62.913-7.999c-5.529-2.682-7.92-9.252-5.409-14.861  c6.178-13.798,19.973-38.167,43.052-46.567s49.31,1.401,62.913,7.999c5.529,2.682,7.92,9.252,5.409,14.861  C424.886,431.424,411.092,455.793,388.013,464.193z"/>
<path style="opacity:0.1;enable-background:new    ;" d="M388.013,464.193c-23.079,8.4-49.31-1.401-62.913-7.999  c-5.529-2.682-7.92-9.252-5.409-14.861c6.178-13.798,19.973-38.167,43.052-46.567s49.31,1.401,62.913,7.999  c5.529,2.682,7.92,9.252,5.409,14.861C424.886,431.424,411.092,455.793,388.013,464.193z"/>
<path style="opacity:0.1;enable-background:new    ;" d="M358.857,442.995c-3.065,0-5.94-1.891-7.049-4.937  c-1.417-3.892,0.591-8.196,4.482-9.613l33.044-12.027c3.896-1.419,8.196,0.591,9.613,4.483s-0.591,8.196-4.482,9.613l-33.044,12.027  C360.575,442.849,359.708,442.995,358.857,442.995z"/>
<path style="fill:#FC8063;" d="M157.585,395.999c22.259,10.38,33.877,35.858,38.83,50.142c2.013,5.806-0.942,12.143-6.684,14.333  c-14.125,5.388-41.111,12.865-63.37,2.486s-33.877-35.858-38.829-50.142c-2.013-5.806,0.942-12.143,6.684-14.333  C108.34,393.097,135.326,385.619,157.585,395.999z"/>
<path style="opacity:0.1;enable-background:new    ;" d="M157.585,395.999c22.259,10.38,33.877,35.858,38.83,50.142  c2.013,5.806-0.942,12.143-6.684,14.333c-14.125,5.388-41.111,12.865-63.37,2.486s-33.877-35.858-38.829-50.142  c-2.013-5.806,0.942-12.143,6.684-14.333C108.34,393.097,135.326,385.619,157.585,395.999z"/>
<path style="opacity:0.1;enable-background:new    ;" d="M157.903,444.412c-1.062,0-2.14-0.227-3.165-0.705l-31.87-14.861  c-3.754-1.75-5.378-6.213-3.627-9.967c1.75-3.755,6.214-5.377,9.967-3.628l31.87,14.861c3.754,1.75,5.378,6.213,3.627,9.967  C163.434,442.808,160.727,444.412,157.903,444.412z"/>
<g style="opacity:0.1;">
	<path d="M204.597,391.906c-0.634,0-1.277-0.081-1.919-0.25c-4.005-1.057-6.395-5.161-5.338-9.166l11.298-42.811   c1.057-4.005,5.16-6.395,9.166-5.338c4.005,1.057,6.395,5.161,5.338,9.165l-11.298,42.811   C210.956,389.682,207.919,391.906,204.597,391.906z"/>
	<path d="M309.233,359.258c-3.566,0-6.729-2.554-7.375-6.188l-7.73-43.461c-0.726-4.078,1.992-7.972,6.07-8.698   c4.076-0.726,7.972,1.993,8.697,6.071l7.73,43.461c0.726,4.078-1.992,7.972-6.07,8.698   C310.111,359.219,309.669,359.258,309.233,359.258z"/>
	<path d="M245.926,302.122c-0.272,0-0.547-0.015-0.824-0.045c-4.117-0.45-7.091-4.153-6.64-8.271l3.727-34.081   c0.449-4.117,4.142-7.093,8.27-6.64c4.117,0.45,7.091,4.153,6.64,8.271l-3.727,34.081   C252.952,299.277,249.702,302.122,245.926,302.122z"/>
</g>
<g>
</g>
<g>
</g>
<g>
</g>
<g>
</g>
<g>
</g>
<g>
</g>
<g>
</g>
<g>
</g>
<g>
</g>
<g>
</g>
<g>
</g>
<g>
</g>
<g>
</g>
<g>
</g>
<g>
</g>
</svg>
