<?xml version="1.0" encoding="iso-8859-1"?>
<!-- Generator: Adobe Illustrator 19.0.0, SVG Export Plug-In . SVG Version: 6.00 Build 0)  -->
<svg xmlns="http://www.w3.org/2000/svg" xmlns:xlink="http://www.w3.org/1999/xlink" version="1.1" id="Capa_1" x="0px" y="0px" viewBox="0 0 512 512" style="enable-background:new 0 0 512 512;" xml:space="preserve">
<path style="fill:#FC8063;" d="M279.371,360.354H232.63v133.542c0,9.999,8.105,18.104,18.104,18.104h10.533  c9.999,0,18.104-8.106,18.104-18.104V360.354z"/>
<path style="fill:#F2BA5B;" d="M279.371,360.354H232.63v133.542c0,9.999,8.105,18.104,18.104,18.104h10.533  c9.999,0,18.104-8.106,18.104-18.104V360.354z"/>
<path style="opacity:0.1;enable-background:new    ;" d="M232.629,360.354v40.152l9.369,6.246c8.479,5.652,19.524,5.652,28.003,0  l9.369-6.246v-40.152H232.629z"/>
<g>
	<path style="fill:#A16B4E;" d="M185.567,115.762c-4.142,0-7.5-3.358-7.5-7.5V7.5c0-4.142,3.358-7.5,7.5-7.5s7.5,3.358,7.5,7.5   v100.762C193.067,112.404,189.709,115.762,185.567,115.762z"/>
	<path style="fill:#A16B4E;" d="M326.434,115.762c-4.143,0-7.5-3.358-7.5-7.5V7.5c0-4.142,3.357-7.5,7.5-7.5s7.5,3.358,7.5,7.5   v100.762C333.934,112.404,330.576,115.762,326.434,115.762z"/>
	<path style="fill:#A16B4E;" d="M256,177.645c-4.142,0-7.5-3.358-7.5-7.5V65.359c0-4.142,3.358-7.5,7.5-7.5   c4.143,0,7.5,3.358,7.5,7.5v104.786C263.5,174.287,260.143,177.645,256,177.645z"/>
</g>
<path style="fill:#FC8063;" d="M335.082,79.102l-47.196,31.464C267.965,123.846,256,146.204,256,170.145  c0-23.941-11.965-46.299-31.886-59.579l-47.196-31.464c-6.639-4.426-15.533,0.333-15.533,8.313v37.624  c0,23.941,11.965,46.299,31.886,59.579L256,226.438l62.729-41.819c19.921-13.28,31.886-35.638,31.886-59.579V87.415  C350.615,79.435,341.721,74.675,335.082,79.102z"/>
<path style="fill:#FAD97E;" d="M335.082,79.102l-47.196,31.464C267.965,123.846,256,146.204,256,170.145  c0-23.941-11.965-46.299-31.886-59.579l-47.196-31.464c-6.639-4.426-15.533,0.333-15.533,8.313v37.624  c0,23.941,11.965,46.299,31.886,59.579L256,226.438l62.729-41.819c19.921-13.28,31.886-35.638,31.886-59.579V87.415  C350.615,79.435,341.721,74.675,335.082,79.102z"/>
<path style="opacity:0.1;enable-background:new    ;" d="M336.29,78.412v36.179c0,23.941-11.965,46.299-31.886,59.579  l-29.849,19.899c0.192,0.144,0.383,0.291,0.575,0.435c4.533,3.384,9.089,6.736,13.65,10.079l29.948-19.965  c19.921-13.28,31.886-35.638,31.886-59.579V87.415C350.615,79.91,342.75,75.258,336.29,78.412z"/>
<path style="fill:#F2BA5B;" d="M335.082,135.395l-47.196,31.464C267.965,180.139,256,202.496,256,226.438  c0-23.941-11.965-46.299-31.886-59.579l-47.196-31.464c-6.639-4.426-15.533,0.333-15.533,8.313v37.624  c0,23.941,11.965,46.299,31.886,59.579L256,282.73l62.729-41.819c19.921-13.28,31.886-35.638,31.886-59.579v-37.624  C350.615,135.728,341.721,130.968,335.082,135.395z"/>
<path style="opacity:0.1;enable-background:new    ;" d="M336.29,134.705v36.179c0,23.941-11.965,46.299-31.886,59.579  l-29.849,19.899c0.192,0.144,0.383,0.291,0.575,0.435c4.533,3.384,9.089,6.736,13.65,10.079l29.948-19.965  c19.921-13.28,31.886-35.638,31.886-59.579v-37.624C350.615,136.202,342.75,131.551,336.29,134.705z"/>
<path style="fill:#FC8063;" d="M335.082,191.687l-47.196,31.464C267.965,236.432,256,258.789,256,282.73  c0-23.941-11.965-46.299-31.886-59.579l-47.196-31.464c-6.639-4.426-15.533,0.333-15.533,8.313v37.624  c0,23.942,11.965,46.299,31.886,59.579L256,339.023l62.729-41.819c19.921-13.28,31.886-35.638,31.886-59.579V200  C350.615,192.021,341.721,187.261,335.082,191.687z"/>
<path style="fill:#FAD97E;" d="M335.082,191.687l-47.196,31.464C267.965,236.432,256,258.789,256,282.73  c0-23.941-11.965-46.299-31.886-59.579l-47.196-31.464c-6.639-4.426-15.533,0.333-15.533,8.313v37.624  c0,23.942,11.965,46.299,31.886,59.579L256,339.023l62.729-41.819c19.921-13.28,31.886-35.638,31.886-59.579V200  C350.615,192.021,341.721,187.261,335.082,191.687z"/>
<path style="opacity:0.1;enable-background:new    ;" d="M336.29,190.998v36.179c0,23.941-11.965,46.299-31.886,59.579  l-29.849,19.899c0.192,0.144,0.383,0.291,0.575,0.435c4.533,3.384,9.089,6.736,13.65,10.079l29.948-19.966  c19.921-13.28,31.886-35.638,31.886-59.579V200C350.615,192.495,342.75,187.844,336.29,190.998z"/>
<path style="fill:#F2BA5B;" d="M335.082,247.98l-47.196,31.464C267.965,292.725,256,315.082,256,339.023  c0-23.941-11.965-46.299-31.886-59.579l-47.196-31.464c-6.64-4.426-15.533,0.333-15.533,8.313v37.625  c0,23.941,11.965,46.299,31.886,59.579l48.727,32.485c8.479,5.652,19.524,5.652,28.003,0l48.728-32.485  c19.921-13.28,31.886-35.638,31.886-59.579v-37.624C350.615,248.313,341.721,243.554,335.082,247.98z"/>
<path style="opacity:0.1;enable-background:new    ;" d="M336.29,247.291v36.179c0,23.941-11.965,46.299-31.886,59.579  l-48.728,32.485c-8.479,5.652-19.524,5.652-28.003,0l-42.531-28.354c2.537,2.279,5.247,4.396,8.129,6.317l48.727,32.485  c8.479,5.652,19.524,5.652,28.003,0l48.728-32.485c19.921-13.28,31.886-35.638,31.886-59.579v-37.624  C350.615,248.788,342.75,244.137,336.29,247.291z"/>
<g>
</g>
<g>
</g>
<g>
</g>
<g>
</g>
<g>
</g>
<g>
</g>
<g>
</g>
<g>
</g>
<g>
</g>
<g>
</g>
<g>
</g>
<g>
</g>
<g>
</g>
<g>
</g>
<g>
</g>
</svg>
