<?xml version="1.0" encoding="iso-8859-1"?>
<!-- Generator: Adobe Illustrator 19.0.0, SVG Export Plug-In . SVG Version: 6.00 Build 0)  -->
<svg xmlns="http://www.w3.org/2000/svg" xmlns:xlink="http://www.w3.org/1999/xlink" version="1.1" id="Capa_1" x="0px" y="0px" viewBox="0 0 512 512" style="enable-background:new 0 0 512 512;" xml:space="preserve">
<rect x="240.99" y="251.89" style="fill:#DBDCDD;" width="30.03" height="124.13"/>
<rect x="240.99" y="251.89" style="opacity:0.1;enable-background:new    ;" width="30.03" height="25.776"/>
<path style="fill:#A16B4E;" d="M307.068,512c-39.748,0-72.086-32.337-72.086-72.085V376.02c0-11.608,9.41-21.018,21.018-21.018  s21.018,9.41,21.018,21.018v63.895c0,16.569,13.481,30.049,30.05,30.049s30.049-13.48,30.049-30.049v-27.65  c0-11.608,9.41-21.018,21.018-21.018s21.018,9.41,21.018,21.018v27.65C379.153,479.663,346.816,512,307.068,512z"/>
<g>
	<path style="fill:#4A5058;" d="M23.761,289.231c-4.142,0-7.5-3.358-7.5-7.5v-29.845c0-4.142,3.358-7.5,7.5-7.5s7.5,3.358,7.5,7.5   v29.845C31.261,285.873,27.903,289.231,23.761,289.231z"/>
	<path style="fill:#4A5058;" d="M488.239,289.231c-4.142,0-7.5-3.358-7.5-7.5v-29.845c0-4.142,3.358-7.5,7.5-7.5s7.5,3.358,7.5,7.5   v29.845C495.739,285.873,492.381,289.231,488.239,289.231z"/>
	<path style="fill:#4A5058;" d="M131.639,289.231c-4.142,0-7.5-3.358-7.5-7.5c0-10.223,0.243-20.364,0.723-30.143   c0.204-4.137,3.711-7.311,7.859-7.124c4.137,0.203,7.326,3.722,7.124,7.859c-0.468,9.534-0.705,19.428-0.705,29.407   C139.139,285.873,135.781,289.231,131.639,289.231z"/>
	<path style="fill:#4A5058;" d="M380.361,289.231c-4.142,0-7.5-3.358-7.5-7.5c0-9.979-0.237-19.873-0.705-29.407   c-0.203-4.137,2.987-7.656,7.123-7.859c4.153-0.199,7.656,2.987,7.859,7.124c0.479,9.778,0.723,19.919,0.723,30.143   C387.861,285.873,384.503,289.231,380.361,289.231z"/>
</g>
<path style="fill:#9BD3E0;" d="M500.935,251.886c3.862,0,6.961-3.196,6.854-7.057C504.053,108.98,392.753,0,256,0  S7.947,108.98,4.211,244.83c-0.106,3.861,2.992,7.057,6.854,7.057h489.87V251.886z"/>
<path style="opacity:0.1;enable-background:new    ;" d="M274.746,0.691c108.901,28.894,189.742,126.702,192.966,243.915  c0.11,3.984-3.087,7.281-7.072,7.281h40.295c3.862,0,6.961-3.196,6.854-7.057C504.225,115.244,402.787,10.111,274.746,0.691z"/>
<g style="opacity:0.3;">
	<path style="fill:#FFFFFF;" d="M379.646,251.921C371.374,83.493,293.485,25.004,256,0   c-37.483,25.003-115.363,83.485-123.644,251.887L379.646,251.921z"/>
</g>
<g>
	<path style="fill:#4A5058;" d="M188.029,179.658c-4.142,0-7.5-3.358-7.5-7.5v-11.283c0-4.142,3.358-7.5,7.5-7.5s7.5,3.358,7.5,7.5   v11.283C195.529,176.3,192.171,179.658,188.029,179.658z"/>
	<path style="fill:#4A5058;" d="M323.971,179.658c-4.142,0-7.5-3.358-7.5-7.5v-11.283c0-4.142,3.358-7.5,7.5-7.5s7.5,3.358,7.5,7.5   v11.283C331.471,176.3,328.113,179.658,323.971,179.658z"/>
	<path style="fill:#4A5058;" d="M256,188.322c-9.036,0-17.628-3.913-23.575-10.736c-2.721-3.123-2.396-7.86,0.727-10.582   c3.123-2.721,7.86-2.396,10.582,0.727c3.097,3.554,7.567,5.592,12.266,5.592c4.699,0,9.169-2.038,12.266-5.592   c2.721-3.123,7.459-3.447,10.582-0.727c3.123,2.722,3.448,7.459,0.727,10.582C273.628,184.409,265.036,188.322,256,188.322z"/>
</g>
<g style="opacity:0.4;">
	<ellipse style="fill:#F15B70;" cx="188.03" cy="200.25" rx="29.09" ry="12.625"/>
	<ellipse style="fill:#F15B70;" cx="323.97" cy="200.25" rx="29.09" ry="12.625"/>
</g>
<g>
</g>
<g>
</g>
<g>
</g>
<g>
</g>
<g>
</g>
<g>
</g>
<g>
</g>
<g>
</g>
<g>
</g>
<g>
</g>
<g>
</g>
<g>
</g>
<g>
</g>
<g>
</g>
<g>
</g>
</svg>
