<?xml version="1.0" encoding="iso-8859-1"?>
<!-- Generator: Adobe Illustrator 19.0.0, SVG Export Plug-In . SVG Version: 6.00 Build 0)  -->
<svg xmlns="http://www.w3.org/2000/svg" xmlns:xlink="http://www.w3.org/1999/xlink" version="1.1" id="Capa_1" x="0px" y="0px" viewBox="0 0 512 512" style="enable-background:new 0 0 512 512;" xml:space="preserve">
<path style="fill:#FC8063;" d="M484.14,251.472c-4.997-5.434-5.495-13.63-1.193-19.629l26.34-36.729  c6.533-9.11,0.588-21.86-10.59-22.711l-45.067-3.431c-7.361-0.56-13.319-6.21-14.27-13.531l-4.308-33.178  c-1.45-11.169-14.598-16.407-23.331-9.296l-66.59,54.218c-4.294,3.496-10.564-0.498-9.21-5.867l23.233-92.135  c2.754-10.92-7.55-20.622-18.285-17.216l-31.89,10.117c-7.037,2.233-14.675-0.779-18.294-7.214l-22.156-39.395  c-5.495-9.771-19.563-9.771-25.058,0l-22.156,39.394c-3.619,6.435-11.257,9.447-18.294,7.214l-31.89-10.117  c-10.735-3.406-21.039,6.296-18.285,17.216l23.233,92.135c1.354,5.369-4.916,9.364-9.21,5.867l-66.59-54.218  c-8.733-7.111-21.881-1.872-23.331,9.296L72.64,155.44c-0.951,7.321-6.908,12.971-14.27,13.531l-45.067,3.431  c-11.178,0.851-17.123,13.601-10.59,22.711l26.34,36.729c4.302,5.999,3.805,14.195-1.193,19.629L5.213,276.098  c-7.623,8.29-3.185,21.729,7.876,23.848l66.546,12.751c3.981,0.763,5.42,5.717,2.467,8.494L63.23,338.936  c-8.481,7.975-4.461,22.195,6.94,24.55L256,401.864l185.829-38.378c11.401-2.354,15.42-16.575,6.94-24.55l-18.872-17.745  c-2.953-2.777-1.514-7.731,2.467-8.494l66.546-12.751c11.061-2.119,15.499-15.558,7.876-23.848L484.14,251.472z"/>
<path style="opacity:0.05;enable-background:new    ;" d="M410.002,161.92l33.852,2.577c-2.395-2.372-4.034-5.515-4.493-9.056  l-4.308-33.178c-1.45-11.169-14.598-16.407-23.331-9.296l-18.123,14.756l2.76,21.26C397.267,155.983,402.964,161.384,410.002,161.92  z M484.14,251.472c-4.997-5.434-5.495-13.63-1.193-19.629l26.34-36.729c6.533-9.11,0.588-21.86-10.59-22.711l-36.501-2.779  c4.102,4.523,5.077,11.639,1.023,17.291l-25.185,35.118c-4.114,5.736-3.638,13.572,1.141,18.768l21.654,23.547  c7.289,7.927,3.046,20.776-7.53,22.803l-63.628,12.192c-3.807,0.729-5.182,5.466-2.359,8.121l18.044,16.967  c8.109,7.625,4.265,21.222-6.635,23.473l-133.195,27.508v24.484l176.305-36.411c11.401-2.354,15.42-16.576,6.94-24.55  l-18.872-17.745c-2.953-2.777-1.514-7.731,2.467-8.493l66.547-12.751c11.061-2.12,15.499-15.558,7.876-23.848L484.14,251.472z"/>
<path style="fill:#A16B4E;" d="M408.415,229.487c-4.614-6.881-13.934-8.717-20.813-4.104l-33.921,22.748v-31.609  c0-4.142-3.358-7.5-7.5-7.5s-7.5,3.358-7.5,7.5v41.668l-63.534,42.607c-1.77,1.187-4.147-0.082-4.147-2.212v-94.923  c0.059-0.063,0.122-0.118,0.179-0.184l29.945-34.364c2.721-3.122,2.396-7.86-0.727-10.581s-7.86-2.396-10.582,0.727L271,180.853  v-5.882c0-8.077-6.207-15.027-14.275-15.407c-8.614-0.406-15.725,6.458-15.725,14.983v4.641l-17.365-19.927  c-2.721-3.124-7.46-3.448-10.582-0.727c-3.123,2.721-3.448,7.459-0.727,10.581L241,202.02v96.566c0,2.131-2.378,3.399-4.147,2.212  l-62.084-41.634v-42.64c0-4.142-3.358-7.5-7.5-7.5s-7.5,3.358-7.5,7.5v32.581l-35.372-23.721c-6.88-4.614-16.199-2.777-20.813,4.104  c-4.614,6.88-2.777,16.198,4.104,20.813l84.363,56.575l-27.003,8.373c-3.956,1.227-6.169,5.428-4.942,9.385  c0.997,3.217,3.961,5.281,7.161,5.281c0.735,0,1.484-0.109,2.224-0.338l38.575-11.961l26.319,17.65  c4.135,2.773,6.615,7.424,6.615,12.402V488.43c0,8.077,6.207,15.027,14.275,15.406c8.614,0.406,15.725-6.458,15.725-14.983V347.666  c0-4.978,2.481-9.629,6.616-12.402l26.778-17.958l39.566,12.268c0.74,0.229,1.488,0.338,2.224,0.338c3.2,0,6.164-2.064,7.161-5.281  c1.227-3.956-0.986-8.158-4.942-9.385l-27.995-8.68l83.904-56.267C411.192,245.686,413.029,236.368,408.415,229.487z"/>
<g>
</g>
<g>
</g>
<g>
</g>
<g>
</g>
<g>
</g>
<g>
</g>
<g>
</g>
<g>
</g>
<g>
</g>
<g>
</g>
<g>
</g>
<g>
</g>
<g>
</g>
<g>
</g>
<g>
</g>
</svg>
