<svg id="Layer_1" enable-background="new 0 0 496.077 496.077" height="512" viewBox="0 0 496.077 496.077" width="512" xmlns="http://www.w3.org/2000/svg"><path d="m463.074 241.697c-16.07 28.22-40.97 50.75-70.94 63.83-1.3 48.42-40.96 87.27-89.7 87.27h-214.86c-38.66 0-69.87-31.88-68.77-70.79 1.02-36.21 30.49-65.72 66.7-66.78 9.067-.454 13.412-7.235 12.68-13.69-5.379-47.745 32.154-94.48 84.33-97.26l-.01-.13c11.923-78.238 83.708-136.216 166.15-127.14 15.49 1.73 23.38 19.26 14.7 32.2-45.817 68.207 3.043 159.521 82.38 161.79 15.43.59 24.98 17.28 17.34 30.7z" fill="#83f8fb"/><path d="m445.73 211c15.431.588 24.988 17.281 17.346 30.7-16.069 28.214-40.97 50.746-70.941 63.827 1.374-56.317-48.043-99.307-102.899-91.216-7.489 1.105-14.747-3.265-17.273-10.4-13.259-37.446-49.76-61.852-89.448-59.634l-.01-.13c11.995-78.713 84.298-136.247 166.153-127.136 15.487 1.724 23.378 19.253 14.694 32.192-45.275 67.461 1.655 158.722 82.378 161.797z" fill="#ffe773"/><path d="m463.034 241.767c-2.47 4.308-7.257 6.775-12.203 6.329-106.449-9.603-171.432-129.398-116.553-224.931 2.512-4.372 7.374-6.851 12.393-6.364 18.852 1.831 24.925 20.12 16.683 32.406-45.882 68.304 3.227 159.526 82.38 161.79 15.431.59 25.02 17.302 17.3 30.77z" fill="#ffec8f"/><path d="m387.652 274.917c2.151 6.513-6.658 10.863-10.621 5.264-22.18-31.34-60.722-49.281-101.377-43.323-8.85 1.32-17.31-3.95-20.31-12.38-12.546-35.187-42.782-60.81-78.771-67.896-6.685-1.316-6.399-11.053.37-11.835 42.14-4.872 81.126 20.164 94.962 59.002 2.56 7.19 9.78 11.68 17.33 10.56 43.864-6.414 84.917 19.718 98.417 60.608z" fill="#bbfbff"/><path d="m311.304 392.367s10.942.43-223.73.43c-47.485 0-79.828-46.833-65.47-89.9 9.944-29.831 37.867-47.68 64.01-47.68 7.27-.16 12.89-6.45 12.07-13.68-1.45-12.865.424-25.951 4.606-37.721 4.403-12.39 22.939-6.31 19.476 6.375-1.608 5.891-1.842 9.542-3.642 20.186-3.194 18.887 7.455 26.305 2.65 34.95-5.847 10.519-23.189 1.875-37.5 12.417-15.338 11.298-21.166 40.192-10 60.083 12.102 21.559 39.53 24.355 53.63 25.7 0 0 182.513.02 182.52.02 18.35 0 19.63 27 1.38 28.82z" fill="#6ff3fa"/><path d="m280.774 355.077c0 23.159-18.841 42-42 42h-31c-8.836 0-16-7.164-16-16s7.164-16 16-16h31c5.514 0 10-4.486 10-10s-4.486-10-10-10h-11c-8.836 0-16-7.164-16-16s7.164-16 16-16h11c23.159 0 42 18.842 42 42zm-72 57h-101c-8.836 0-16 7.164-16 16s7.164 16 16 16h101c5.514 0 10 4.486 10 10s-4.486 10-10 10h-11c-8.836 0-16 7.164-16 16s7.164 16 16 16h11c23.159 0 42-18.841 42-42s-18.841-42-42-42zm283.983-200.44c-11.995 43.426-41.999 82.229-85.308 104.331-6.093 52.545-50.86 93.471-105.012 93.471-8.836 0-16-7.164-16-16s7.164-16 16-16c40.653 0 73.726-33.073 73.726-73.726 0-49.534-48.248-85.257-95.799-70.368-9.152 2.865-18.767-2.922-20.513-12.359-6.455-34.885-36.94-60.205-72.488-60.205-40.653 0-73.726 33.073-73.726 73.726 0 4.05 1.471 13.924 2.516 19.643 2.018 11.042-7.686 20.676-18.705 18.601-32.728-6.178-62.673 19.029-62.673 51.885 0 15.663 6.994 30.448 18.888 40.442h75.112c5.514 0 10-4.486 10-10s-4.486-10-10-10h-11c-8.836 0-16-7.164-16-16s7.164-16 16-16h11c23.159 0 42 18.841 42 42s-18.841 42-42 42c-10.489 0-90.969 0-101 0-13.981 0-21.177-16.7-11.705-26.883-34.593-54.321 1.872-125.923 65.828-130.175-4.017-49.003 32.082-99.87 86.927-109.61 22.228-98.964 127.225-155.313 221.804-119.654 11.598 4.372 14.024 19.755 4.328 27.483-21.088 16.809-33.183 41.9-33.183 68.838 0 57.739 55.157 100.306 111.32 84.872 11.961-3.281 22.965 7.734 19.663 19.688zm-40.047 15.405c-101.233 2.477-159.027-114.04-98.153-193.055-69.59-11.818-134.175 32.157-152.551 95.825 39.06 5.431 71.91 32.261 85.015 69.294 55.671-8.145 106.465 28.45 118.488 81.026 20.078-13.193 36.48-31.653 47.201-53.09z"/></svg>