<svg id="Layer_1" enable-background="new 0 0 496.068 496.068" height="512" viewBox="0 0 496.068 496.068" width="512" xmlns="http://www.w3.org/2000/svg"><path d="m479.344 366.581c-.56 7.32-6.63 12.98-13.97 12.98h-141.2c-9.03 0-15.57-8.39-13.63-17.2 8.612-39.038-20.499-75.912-59.44-77.73-42.269-1.967-74.79 36.726-65.51 78.03 1.95 8.68-4.8 16.9-13.7 16.9h-141.2c-7.32 0-13.4-5.65-13.97-12.95-10.407-134.83 95.775-249.408 230.17-250.05 135.889-.645 242.863 114.003 232.45 250.02z" fill="#ffa4b8"/><path d="m208.664 298.101c-8.92 6.96-15.94 16.24-20.17 26.93l-126.16-115.56c19.47-25.96 44.27-47.7 72.76-63.61z" fill="#ffbfcd"/><path d="m418.604 190.981-114.58 126.68c-10.42-18.73-29.96-31.83-52.56-33.01 6.123-169.651 5.97-167.9 6.07-167.9 63.73 2.54 120.72 30.55 161.07 74.23z" fill="#ffbfcd"/><path d="m421.314 379.561h-57.33c20.364-76.287-37.248-151-115.95-151-78.761 0-136.298 74.773-115.95 151h-57.33c-19.265-108.273 64.062-207 173.28-207 109.329 0 192.526 98.835 173.28 207z" fill="#ffec8f"/><path d="m363.984 379.561h-39.814c-9.027 0-15.564-8.387-13.627-17.203 8.617-39.219-20.647-75.916-59.443-77.725-42.261-1.972-74.794 36.732-65.508 78.029 1.952 8.682-4.794 16.899-13.693 16.899h-39.815c-20.498-76.792 38.04-152.021 117.543-150.99 77.082 1 134.685 74.838 114.357 150.99z" fill="#befa91"/><path d="m208.664 298.101c-8.92 6.96-15.94 16.24-20.17 26.93l-42.78-39.19c9.504-15.682 24.934-30.887 38.29-38.78z" fill="#d0ffad"/><path d="m184.004 247.061c-13.046 7.71-28.576 22.752-38.29 38.78l-41.82-38.3c14.61-20.8 33.6-38.29 55.63-51.13z" fill="#fff2b3"/><path d="m342.644 274.961-38.62 42.7c-10.42-18.73-29.96-31.83-52.56-33.01l2.02-55.96c29.944.576 65.492 15.929 89.16 46.27z" fill="#d0ffad"/><path d="m380.694 232.901-37.96 41.96c-23.532-30.203-59.13-45.59-89.25-46.17l2.02-55.97c49.91 2.08 94.45 24.95 125.19 60.18z" fill="#fff2b3"/><path d="m493.832 381.687c-1.173 8.747-9.213 14.906-17.984 13.731-8.758-1.174-14.906-9.227-13.731-17.984 17.404-129.812-83.861-244.874-214.082-244.874-130.3 0-231.478 115.124-214.082 244.874 1.175 8.758-4.973 16.81-13.731 17.984-8.747 1.174-16.811-4.973-17.984-13.731-10.218-76.164 14.791-152.846 70.434-208.489 96.921-96.922 253.794-96.932 350.725 0 55.468 55.468 80.68 132.113 70.435 208.489zm-245.798-225.126c-118.665 0-210.077 107.507-189.033 225.802 1.548 8.7 9.856 14.504 18.555 12.95 8.7-1.547 14.498-9.854 12.951-18.555-17.539-98.596 58.626-188.198 157.527-188.198 98.922 0 175.064 89.618 157.527 188.198-1.547 8.7 4.251 17.007 12.951 18.555 8.688 1.549 17.006-4.242 18.555-12.95 21.039-118.271-70.346-225.802-189.033-225.802zm0 56c-88.866 0-154.521 84.533-131.409 171.126 2.279 8.538 11.048 13.611 19.585 11.333 8.538-2.279 13.612-11.047 11.333-19.585-17.71-66.357 32.652-130.874 100.491-130.874 67.854 0 118.195 64.54 100.491 130.874-2.279 8.538 2.795 17.306 11.333 19.585 8.547 2.279 17.309-2.804 19.585-11.333 23.111-86.59-42.543-171.126-131.409-171.126zm0 56c-61.069 0-99.361 65.899-69.986 118.771 4.292 7.725 14.032 10.507 21.757 6.216s10.507-14.033 6.216-21.757c-17.631-31.731 5.425-71.229 42.014-71.229 36.597 0 59.639 39.507 42.014 71.229-4.292 7.724-1.509 17.465 6.216 21.757s17.467 1.507 21.757-6.216c29.421-52.959-9.007-118.771-69.988-118.771z"/></svg>