<svg id="Layer_1" enable-background="new 0 0 496.021 496.021" height="512" viewBox="0 0 496.021 496.021" width="512" xmlns="http://www.w3.org/2000/svg"><path d="m380.071 263.12c29.435 59.215-13.609 129.6-80.4 129.6h-214.86c-38.66 0-69.87-31.88-68.77-70.79 1.07-38.002 33.202-66.79 67.31-66.79 7.27-.16 12.89-6.45 12.07-13.68-6.836-60.673 53.495-112.776 115.82-93.36v-.01c25.41-59.237 98.672-82.1 153.59-45.36 55.132 37.18 61.734 114.452 15.24 160.39z" fill="#83f8fb"/><path d="m380.071 263.12c-17.122-34.465-54.489-54.607-93.6-48.89-7.55 1.12-14.77-3.37-17.33-10.56-16.273-45.679-57.9-55.156-57.9-55.58 25.41-59.237 98.672-82.1 153.59-45.36 55.132 37.18 61.734 114.452 15.24 160.39z" fill="#ffe773"/><path d="m384.889 274.84c2.151 6.513-6.658 10.863-10.621 5.264-22.18-31.34-60.722-49.281-101.377-43.323-8.85 1.32-17.31-3.95-20.31-12.38-12.546-35.187-42.782-60.81-78.771-67.896-6.685-1.316-6.399-11.053.37-11.835 42.14-4.872 81.126 20.164 94.962 59.002 2.56 7.19 9.78 11.68 17.33 10.56 43.864-6.414 84.916 19.718 98.417 60.608z" fill="#bbfbff"/><path d="m308.541 392.29s10.942.43-223.73.43c-47.485 0-79.828-46.833-65.47-89.9 9.944-29.831 37.867-47.68 64.01-47.68 7.27-.16 12.89-6.45 12.07-13.68-1.45-12.865.424-25.951 4.606-37.721 4.403-12.39 22.939-6.31 19.476 6.375-1.608 5.891-1.842 9.542-3.642 20.186-3.194 18.887 7.455 26.305 2.65 34.95-5.847 10.519-23.189 1.875-37.5 12.417-15.338 11.298-21.166 40.192-10 60.083 12.102 21.559 39.53 24.355 53.63 25.7 0 0 182.513.02 182.52.02 18.35 0 19.63 27 1.38 28.82z" fill="#6ff3fa"/><path d="m382.683 196.008c-16.897-42.218-56.181-72.906-101.627-78.49-15.947-1.959-17.538-24.404-2.06-28.715 66.559-18.538 133.001 32.312 132 101.94-.232 16.094-22.333 20.208-28.313 5.265z" fill="#ffec8f"/><path d="m306.935 69c-43.531 0-83.154 23.398-104.346 60.613-69.941-12.021-128.602 46.9-123.455 109.691-44.122 2.933-79.123 39.764-79.123 84.615 0 46.761 38.042 84.803 84.803 84.803h214.86c73.657 0 124.628-73.705 99.173-142.372 65.261-77.326 10.294-197.35-91.912-197.35zm0 32c69.487 0 111.288 76.999 74.511 135.057-23.529-28.691-60.146-43.087-97.188-37.667-9.004-25.442-27.334-46.062-50.586-58.248 16.15-24.19 43.458-39.142 73.263-39.142zm-7.261 275.723h-214.86c-29.116 0-52.803-23.688-52.803-52.803 0-32.896 29.983-58.056 62.673-51.885 11.032 2.076 20.721-7.571 18.705-18.601-1.044-5.718-2.516-15.593-2.516-19.643 0-40.652 33.073-73.726 73.726-73.726 35.547 0 66.033 25.32 72.488 60.205.834 4.502 3.556 8.431 7.477 10.794 10.051 6.054 14.244-1.793 35.11-1.793 40.652 0 73.726 33.073 73.726 73.726-.001 40.652-33.074 73.726-73.726 73.726zm196.337-187.723c0 8.836-7.163 16-16 16h-18c-8.837 0-16-7.164-16-16s7.163-16 16-16h18c8.837 0 16 7.164 16 16zm-205.153-155v-18c0-8.836 7.163-16 16-16s16 7.164 16 16v18c0 8.836-7.163 16-16 16s-16-7.164-16-16zm149.719 21.326c6.249 6.248 6.249 16.379 0 22.627l-12.727 12.727c-6.247 6.248-16.379 6.249-22.627 0-6.249-6.248-6.249-16.379 0-22.627l12.728-12.727c6.247-6.249 16.378-6.249 22.626 0zm-267.393 22.735c-6.249-6.249-6.249-16.379 0-22.627 6.248-6.249 16.378-6.249 22.627 0l12.728 12.728c10.112 10.111 2.809 27.313-11.313 27.313-4.095 0-8.189-1.562-11.313-4.687zm-110.043 417.629c-8.432 1.623-16.86-3.467-18.82-12.56-1.616-8.397 3.431-16.852 12.56-18.82 8.307-1.599 16.827 3.353 18.82 12.56 1.629 8.466-3.5 16.867-12.56 18.82zm34-42c-8.433 1.623-16.86-3.468-18.82-12.56-1.594-8.282 3.328-16.83 12.56-18.82 8.307-1.599 16.827 3.353 18.82 12.56 1.601 8.32-3.363 16.838-12.56 18.82zm57.989-2.39c-7.179-4.733-9.413-14.775-4.42-22.18 7.586-11.506 25.88-8.62 28.99 5.75 2.76 14.332-13.079 24.177-24.57 16.43zm82.011 2.39c-8.448 1.626-16.863-3.482-18.82-12.56-1.62-8.415 3.451-16.857 12.56-18.82 8.457-1.628 16.877 3.506 18.82 12.56 1.601 8.279-3.334 16.831-12.56 18.82zm56.719-3.32c-6.643-5.482-7.96-15.395-2.22-22.52 8.339-10.116 25.127-6.647 28.06 7.02 2.862 14.796-14.153 24.905-25.84 15.5zm-160.719 45.32c-8.447 1.626-16.863-3.481-18.82-12.56-1.617-8.401 3.436-16.854 12.56-18.82 8.307-1.599 16.827 3.353 18.82 12.56 1.623 8.432-3.468 16.86-12.56 18.82zm57.989-2.39c-7.188-4.739-9.408-14.782-4.42-22.18 7.454-11.306 25.828-8.858 28.99 5.75 2.752 14.295-13.054 24.194-24.57 16.43zm82.011 2.39c-8.403 1.616-16.844-3.429-18.82-12.56-1.605-8.38 3.414-16.852 12.561-18.82 8.318-1.603 16.849 3.375 18.819 12.56 1.75 9.049-4.26 17.19-12.56 18.82zm63.74 0c-14.217-3.058-17.41-21.312-5.75-28.99 8.918-6.019 21.976-1.683 24.569 10.17 2.174 11.239-7.573 20.987-18.819 18.82z"/></svg>