<svg id="Layer_1" enable-background="new 0 0 496.108 496.108" height="512" viewBox="0 0 496.108 496.108" width="512" xmlns="http://www.w3.org/2000/svg"><path d="m463.066 241.707c-16.07 28.22-40.97 50.75-70.94 63.83-1.3 48.42-40.96 87.27-89.7 87.27h-214.86c-38.66 0-69.87-31.88-68.77-70.79 1.07-38.002 33.202-66.79 67.31-66.79 7.27-.16 12.89-6.45 12.07-13.68-5.379-47.745 32.154-94.48 84.33-97.26l-.01-.13c11.923-78.238 83.708-136.216 166.15-127.14 15.49 1.73 23.38 19.26 14.7 32.2-45.882 68.304 3.227 159.527 82.38 161.79 15.43.59 24.98 17.28 17.34 30.7z" fill="#83f8fb"/><path d="m445.722 211.01c15.431.588 24.988 17.281 17.346 30.7-16.069 28.214-40.97 50.746-70.941 63.827 1.372-56.241-47.971-99.318-102.899-91.216-7.489 1.105-14.747-3.265-17.273-10.4-13.259-37.446-49.76-61.852-89.448-59.634l-.01-.13c11.994-78.713 84.298-136.247 166.153-127.136 15.487 1.724 23.378 19.253 14.694 32.192-45.25 67.424 1.627 158.721 82.378 161.797z" fill="#ffe773"/><path d="m463.026 241.778c-2.47 4.308-7.257 6.775-12.203 6.329-106.449-9.604-171.432-129.399-116.553-224.932 2.512-4.372 7.374-6.851 12.393-6.364 18.852 1.831 24.925 20.12 16.683 32.406-45.882 68.304 3.227 159.527 82.38 161.79 15.431.59 25.02 17.302 17.3 30.771z" fill="#ffec8f"/><path d="m387.644 274.927c2.151 6.513-6.658 10.863-10.621 5.264-22.18-31.34-60.722-49.281-101.377-43.323-8.85 1.32-17.31-3.95-20.31-12.38-12.546-35.187-42.782-60.81-78.771-67.896-6.685-1.316-6.399-11.053.37-11.835 42.437-4.906 81.229 20.453 94.962 59.002 2.56 7.19 9.78 11.68 17.33 10.56 43.875-6.415 84.917 19.719 98.417 60.608z" fill="#bbfbff"/><path d="m311.296 392.377s10.942.43-223.73.43c-47.485 0-79.828-46.833-65.47-89.9 9.944-29.831 37.867-47.68 64.01-47.68 7.27-.16 12.89-6.45 12.07-13.68-1.45-12.865.424-25.951 4.606-37.721 4.403-12.39 22.939-6.31 19.476 6.375-1.608 5.891-1.842 9.542-3.642 20.186-3.194 18.887 7.455 26.305 2.65 34.95-5.847 10.519-23.189 1.875-37.5 12.417-15.338 11.298-21.166 40.192-10 60.083 12.102 21.559 39.53 24.355 53.63 25.7 0 0 182.513.02 182.52.02 18.35 0 19.63 27 1.38 28.82z" fill="#6ff3fa"/><path d="m65.896 495.777c-9.033 1.737-17.174-4.217-18.82-12.56-1.608-8.393 3.426-16.855 12.561-18.82 8.314-1.602 16.845 3.36 18.819 12.56 1.629 8.425-3.47 16.861-12.56 18.82zm34-73.38c-14.892-2.864-24.917 14.421-15.5 25.83 5.707 7.091 16.811 8.03 23.68 1.17 8.712-8.712 4.862-24.189-8.18-27zm53.57 6.81c-7.064 10.477.468 24.88 13.3 24.88 9.327 0 16.833-8.038 15.92-17.57-1.438-15.015-21.081-19.656-29.22-7.31zm70.93-1.27c-5.765 7.155-4.382 17.194 2.229 22.52 10.85 8.945 27.431.364 26.061-13.94-1.347-14.065-19.208-19.596-28.29-8.58zm79.24-5.54c-13.727 2.953-17.101 19.932-7.011 28.06 10.888 8.976 27.423.291 26.061-13.94-.884-9.224-9.563-15.947-19.05-14.12zm-174 42c-9.101 1.958-14.176 10.389-12.561 18.82 1.984 9.164 10.449 14.17 18.82 12.56 8.617-1.857 13.533-9.501 12.79-17.26-.88-9.197-9.518-15.956-19.049-14.12zm60.76 5.54c-5.721 7.101-4.443 17.022 2.22 22.52 11.265 9.066 27.411.055 26.07-13.94-1.343-14.02-19.197-19.609-28.29-8.58zm85.5-5.54c-14.888-2.863-24.921 14.416-15.5 25.83 6.239 7.753 18.443 7.825 24.74 0 7.349-8.904 3.161-23.157-9.24-25.83zm63.74 0c-9.007 1.937-14.194 10.29-12.561 18.82 1.991 9.196 10.485 14.163 18.82 12.56 8.635-1.861 13.532-9.518 12.79-17.26-.884-9.239-9.568-15.946-19.049-14.12zm153.112-252.751c-12.314 44.589-43.066 82.803-85.386 104.372-6.398 52.218-51.015 92.792-104.933 92.792h-214.859c-46.761 0-84.804-38.042-84.804-84.803 0-44.851 35.001-81.682 79.123-84.615-4.025-49.095 32.192-99.972 87.081-109.635 22.54-98.446 127.142-154.623 221.65-118.99 11.599 4.372 14.024 19.755 4.328 27.483-21.088 16.809-33.183 41.899-33.183 68.838 0 57.739 55.158 100.307 111.319 84.872 11.956-3.286 22.966 7.731 19.664 19.686zm-116.593 91.438c0-49.534-48.246-85.256-95.799-70.369-9.151 2.866-18.765-2.921-20.514-12.358-6.455-34.885-36.94-60.205-72.488-60.205-40.652 0-73.726 33.073-73.726 73.726 0 4.05 1.472 13.924 2.517 19.642 2.017 11.04-7.687 20.679-18.705 18.601-32.732-6.176-62.674 19.029-62.674 51.885 0 29.116 23.688 52.803 52.804 52.803h214.859c40.652.001 73.726-33.072 73.726-73.725zm76.547-76.032c-101.168 2.476-159.053-114.009-98.153-193.055-68.957-11.715-133.649 31.484-152.375 95.211 38.982 5.487 71.754 32.292 84.84 69.269 55.453-8.113 106.73 28.301 118.61 81.585 20.021-13.187 36.379-31.616 47.078-53.01z"/></svg>