<svg id="Layer_1" enable-background="new 0 0 496.151 496.151" height="512" viewBox="0 0 496.151 496.151" width="512" xmlns="http://www.w3.org/2000/svg"><path d="m237.668 148.264c-87.961-30.747-184.991 20.152-208.861 111.032-1.482 5.641 3.326 10.838 9.09 9.948 25.516-3.938 51.502 8.725 63.681 32.73 6.173 12.176 21.051 17.389 33.48 11.71 29.758-13.62 64.992-1.329 79.79 27.9 6.229 12.268 21.137 17.354 33.49 11.71 24.488-11.217 52.715-4.886 70.197 14.074 3.946 4.28 10.945 3.23 13.298-2.095 37.623-85.15-4.703-185.675-94.165-217.009z" fill="#befa91"/><path d="m292.564 180.772c8.64 7.816-1.628 21.271-11.439 14.987-83.472-53.463-192.985-18.914-233.136 67.707-2.473 5.336-7.438 5.367-10.091 5.779-5.76.89-10.57-4.31-9.09-9.95 30.711-116.927 175.173-158.661 263.756-78.523z" fill="#d0ffad"/><path d="m237.668 148.264c-61.219 36.872-104.292 96.351-120.49 166.65-6.55-1.94-12.31-6.45-15.6-12.94-12.188-24.023-38.185-36.665-63.681-32.73-5.764.89-10.571-4.307-9.09-9.948 23.87-90.88 120.9-141.779 208.861-111.032z" fill="#ffa4b8"/><path d="m237.668 148.264c-9.23 5.56-20.16 12.91-31.73 22.45-67.67-4.92-133.21 33.85-160.2 97.84-2.64.06-5.26.29-7.84.69-5.76.89-10.57-4.31-9.09-9.95 23.87-90.88 120.9-141.78 208.86-111.03z" fill="#ffbfcd"/><path d="m122.738 294.484c-2.42 7.71-4.22 14.61-5.56 20.43-6.55-1.94-12.31-6.45-15.6-12.94-.22-.43-.44-.86-.67-1.28 9.158.046 11.377-3.289 21.83-6.21z" fill="#fe929f"/><path d="m307.778 358.144c-17.185-11.579-39.665-13.908-59.44-4.85-10.563 4.826-22.957 1.807-30.25-6.81 4.24.13 8.55-.69 12.63-2.55 26.523-12.146 57.303-5.937 77.06 14.21z" fill="#b0fa78"/><path d="m228.418 353.824c0 .101-8.841-2.925-13.57-12.24-14.781-29.197-49.996-41.537-79.79-27.9-5.8 2.65-12.14 2.93-17.88 1.23 16.178-70.212 59.195-129.732 120.49-166.65 24.822 67.052 21.564 140.359-9.25 205.56z" fill="#c1fefa"/><path d="m247.038 179.214c-13.58-4.74-27.39-7.52-41.1-8.5 11.57-9.54 22.5-16.89 31.73-22.45 3.19 8.62 6.53 19 9.37 30.95z" fill="#d9fffd"/><path d="m196.098 319.654c-17.462-12.606-40.74-15.261-61.04-5.97-5.8 2.65-12.14 2.93-17.88 1.23 1.34-5.82 3.14-12.72 5.56-20.43 27.132-7.674 56.48 2.264 73.36 25.17z" fill="#83f8fb"/><path d="m233.328 342.804c-3.511 8.405-4.91 10.84-4.91 11.03-3.95-1.53-7.52-4.03-10.33-7.35 7.484.229 12.1-2.396 15.24-3.68z" fill="#83f8fb"/><path d="m257.812 139.132 2.881-8.239c2.917-8.341-1.481-17.468-9.822-20.385-8.345-2.916-17.469 1.481-20.385 9.822l-2.885 8.25c-98.006-24.583-199.218 38.637-217.418 140.976-2.163 12.165 9.738 22.104 21.33 17.798 21.018-7.819 45.264 1.078 55.788 21.853 10.13 19.995 34.03 28.354 54.414 19.025 5.579-2.553 11.519-3.905 17.5-4.066l-45.898 131.271c-2.365 6.766-9.792 10.348-16.563 7.98-6.781-2.371-10.353-9.78-7.98-16.562l5.611-16.047c2.917-8.341-1.481-17.468-9.822-20.384-8.345-2.92-17.469 1.481-20.385 9.822l-5.611 16.048c-8.209 23.479 4.146 49.121 27.627 57.331 23.427 8.191 49.142-4.209 57.33-27.626l45.898-131.271c4.578 3.853 8.381 8.612 11.154 14.086 10.13 19.995 34.031 28.351 54.413 19.025 21.136-9.673 45.656-1.582 57.251 17.671 6.378 10.592 21.884 10.233 27.772-.629 49.145-90.663 10.942-203.433-82.2-245.749zm-210.216 113.423c22.29-63.891 85.717-102.945 151.128-96.586-42.055 33.703-72.398 77.949-89.421 128.125-14.72-20.188-37.864-31.4-61.707-31.539zm91.756 42.541c16.647-49.58 47.642-91.744 89.613-121.937 14.001 49.724 11.996 102.018-5.892 151.209-18.837-26.425-52.501-38.21-83.721-29.272zm181.982 53.166c-18.716-14.728-43.817-20.4-67.881-13.801 18.118-50.334 21.646-103.916 9.871-155.937 56.056 36.3 80.194 106.276 58.01 169.738zm-235.354-269.285 8-25c2.694-8.416 11.704-13.054 20.115-10.362 8.417 2.693 13.056 11.699 10.363 20.115l-8 25c-2.695 8.418-11.704 13.055-20.115 10.362-8.417-2.693-13.055-11.699-10.363-20.115zm100.022-10.069 13-40c2.73-8.403 11.754-13.004 20.162-10.271 8.404 2.731 13.003 11.758 10.271 20.162l-13 40c-2.73 8.398-11.753 13.004-20.162 10.271-8.403-2.731-13.002-11.758-10.271-20.162zm93.297-4.834 20.858-53.849c3.191-8.24 12.46-12.332 20.699-9.141 8.24 3.192 12.332 12.459 9.141 20.699l-20.858 53.849c-3.189 8.232-12.45 12.335-20.699 9.141-8.24-3.192-12.332-12.459-9.141-20.699zm93.265 53.784-11.407 29.728c-3.165 8.249-12.419 12.372-20.67 9.206-8.25-3.166-12.371-12.42-9.206-20.67l11.407-29.728c3.166-8.25 12.422-12.371 20.671-9.206 8.25 3.165 12.371 12.42 9.205 20.67zm8.091-68.286 3.627-9.451c3.166-8.25 12.421-12.371 20.67-9.206 8.25 3.166 12.371 12.42 9.205 20.67l-3.627 9.451c-3.166 8.249-12.419 12.372-20.67 9.206-8.25-3.166-12.371-12.42-9.205-20.67zm50.626 127.681-19 53c-2.982 8.318-12.143 12.644-20.461 9.662s-12.644-12.143-9.662-20.461l19-53c2.982-8.318 12.142-12.644 20.461-9.662 8.318 2.982 12.643 12.142 9.662 20.461zm53.998-91.994-14 39c-2.345 6.531-8.499 10.599-15.061 10.599-11.034 0-18.807-10.968-15.059-21.41l14-39c2.985-8.317 12.145-12.64 20.466-9.653 8.317 2.984 12.639 12.147 9.654 20.464z"/></svg>