<svg id="Layer_1" enable-background="new 0 0 496.079 496.079" height="512" viewBox="0 0 496.079 496.079" width="512" xmlns="http://www.w3.org/2000/svg"><path d="m439.569 196.54-160.99 170.98c-.817-.752-116.681-106.75-117.5-107.5l-104 114v106h382.5c.539-304.869.752-282.763-.01-283.48z" fill="#d9fffd"/><path d="m68.062 112.978-27.445-15.846c-22.147 5.934-21.779 6.023-24.582 6.023-14.229 0-21.379-17.293-11.248-27.358-11.525-11.522-.332-30.969 15.438-26.741 4.187-15.83 26.69-15.843 30.917-.068l5.474 20.43 27.445 15.846v-31.69l-14.956-14.957c-11.574-11.574-.226-31.014 15.518-26.741 4.216-15.742 26.655-15.77 30.878.001 15.749-4.275 27.094 15.164 15.517 26.74l-14.956 14.957v31.691l27.446-15.846 5.474-20.43c4.225-15.768 26.732-15.755 30.917.068 15.74-4.22 26.984 15.198 15.439 26.741 10.137 10.071 2.974 27.358-11.248 27.358-2.795 0-2.274-.046-24.582-6.023l-27.445 15.846 27.446 15.846 20.431-5.474c15.814-4.235 26.969 15.313 15.399 26.809 11.563 11.561.266 30.97-15.444 26.757-4.184 15.752-26.674 15.867-30.912.051l-5.474-20.431-27.446-15.846v31.691l14.956 14.957c11.575 11.574.228 31.013-15.517 26.74-4.215 15.743-26.654 15.771-30.878 0-15.821 4.297-27.057-15.201-15.517-26.74l14.956-14.957v-31.691l-27.445 15.846-5.474 20.431c-4.21 15.71-26.695 15.824-30.912-.051-15.676 4.203-27.059-15.146-15.446-26.757-11.615-11.54-.375-31.041 15.399-26.809l20.431 5.474zm412.017 351.042h-24.472l.016-8.972c.016-8.837-7.135-16.013-15.972-16.028-8.825-.016-16.013 7.125-16.028 15.972l-.016 9.028h-129.528v-9c0-8.837-7.164-16-16-16s-16 7.163-16 16v9h-85v-9c0-8.837-7.164-16-16-16s-16 7.163-16 16v9h-72v-9c0-8.837-7.164-16-16-16s-16 7.163-16 16v9h-25c-8.836 0-16 7.163-16 16s7.164 16 16 16h464c8.836 0 16-7.163 16-16s-7.164-16-16-16zm-24.126-195.373c.016-8.837-7.135-16.013-15.972-16.028-8.831-.016-16.013 7.129-16.028 15.972l-.083 46.6c-.016 8.837 7.135 16.013 15.972 16.028 8.92 0 16.013-7.2 16.028-15.972zm-16.137 77.172c-8.831-.016-16.013 7.129-16.028 15.972l-.083 46.6c-.016 8.837 7.135 16.013 15.972 16.028 8.92 0 16.013-7.2 16.028-15.972l.083-46.6c.016-8.836-7.135-16.012-15.972-16.028zm-289.181-97.904c-1.567 1.35-106.462 115.763-108.168 119.605-1.87 4.193-1.388 4.984-1.388 31.5 0 8.837 7.164 16 16 16s16-7.163 16-16v-18.798l76.608-83.974c7.085 7.188 19.035 6.141 24.707-2.36l87.685 80.223v17.91c0 8.837 7.164 16 16 16s16-7.163 16-16v-17.622l133.745-142.053c9.584 11.322 28.184 4.577 28.211-10.297l.044-25c.025-13.875-17.642-22.656-28.149-11.496l-150.188 159.514-105.863-96.853c-5.819-5.333-14.97-5.716-21.244-.299zm10.444 77.771c-8.836 0-16 7.163-16 16v56.667c0 8.837 7.164 16 16 16s16-7.163 16-16v-56.667c0-8.837-7.164-16-16-16z"/></svg>