<svg id="Layer_1" enable-background="new 0 0 496 496" height="512" viewBox="0 0 496 496" width="512" xmlns="http://www.w3.org/2000/svg"><path d="m439.49 196.52-160.99 170.98c-.817-.752-116.681-106.75-117.5-107.5l-104 114v106h382.5c.539-304.869.752-282.763-.01-283.48z" fill="#d9fffd"/><path d="m111.71 53.41c-32.146 0-58.3 26.153-58.3 58.3 0 32.142 26.153 58.29 58.3 58.29 32.141 0 58.29-26.148 58.29-58.29 0-32.147-26.149-58.3-58.29-58.3z" fill="#ffe773"/><path d="m55.981 128.848c2.102 6.82 12.299 5.268 12.291-1.869-.033-30.295 24.021-58.649 58.348-58.649 7.984 0 9.133-10.193 2.424-12.287-44.28-13.823-86.891 27.948-73.063 72.805z" fill="#ffec8f"/><path d="m496 480c0 8.837-7.163 16-16 16-10.56 0-454.311 0-464 0-8.836 0-16-7.163-16-16s7.164-16 16-16h25v-9c0-8.837 7.164-16 16-16s16 7.163 16 16v9h72v-9c0-8.837 7.164-16 16-16s16 7.163 16 16v9h85v-9c0-8.837 7.163-16 16-16s16 7.163 16 16v9h129.528l.016-9.028c.016-8.826 7.176-15.972 15.999-15.972 8.849 0 16.017 7.181 16.001 16.028l-.016 8.972h24.472c8.837 0 16 7.163 16 16zm-40.127-211.372c.016-8.837-7.136-16.013-15.972-16.028-8.826-.016-16.013 7.124-16.028 15.972l-.082 46.6c-.016 8.837 7.136 16.013 15.972 16.028 8.92 0 16.013-7.199 16.028-15.972zm-16.137 77.172c-8.826-.016-16.013 7.124-16.028 15.972l-.082 46.6c-.016 8.837 7.136 16.013 15.972 16.028 8.92 0 16.013-7.199 16.028-15.972l.082-46.6c.016-8.837-7.136-16.013-15.972-16.028zm-289.18-97.904c-1.001.863-106.206 115.694-107.83 118.903-2.229 4.421-1.726 5.2-1.726 32.201 0 8.837 7.164 16 16 16s16-7.163 16-16v-18.798l76.608-83.974c7.085 7.188 19.035 6.141 24.707-2.36l87.685 80.222v17.91c0 8.837 7.163 16 16 16s16-7.163 16-16v-17.622l133.745-142.053c9.688 11.445 28.184 4.447 28.211-10.297l.044-25c.025-13.982-17.726-22.566-28.149-11.496l-150.188 159.516-105.863-96.853c-5.848-5.357-14.993-5.697-21.244-.299zm10.444 77.77c-8.836 0-16 7.163-16 16v56.667c0 8.837 7.164 16 16 16s16-7.163 16-16v-56.667c0-8.837-7.164-16-16-16zm20.121-214.166c0 8.837 7.164 16 16 16h9.879c8.836 0 16-7.163 16-16s-7.164-16-16-16h-9.879c-8.837 0-16 7.163-16 16zm-69.621-69.621c8.836 0 16-7.163 16-16v-9.879c0-8.837-7.164-16-16-16s-16 7.163-16 16v9.879c0 8.837 7.164 16 16 16zm71.771 20.399 7.026-7.022c6.25-6.246 6.253-16.377.006-22.627s-16.377-6.254-22.627-.006l-7.026 7.022c-6.25 6.246-6.253 16.377-.006 22.627 6.246 6.25 16.377 6.255 22.627.006zm-132.375 4.743c14.13 0 21.421-17.212 11.311-27.316l-7.026-7.022c-6.25-6.247-16.381-6.245-22.627.006-6.247 6.249-6.245 16.38.005 22.627 6.838 6.834 10.27 11.705 18.337 11.705zm-34.896 60.891h9.879c8.836 0 16-7.163 16-16s-7.164-16-16-16h-9.879c-8.836 0-16 7.163-16 16s7.164 16 16 16zm163.13 67.389c14.13 0 21.421-17.212 11.311-27.316l-7.026-7.022c-6.25-6.248-16.381-6.244-22.627.006-6.247 6.249-6.245 16.38.005 22.627 6.823 6.819 10.262 11.705 18.337 11.705zm-51.63 11.699v-9.879c0-8.837-7.164-16-16-16s-16 7.163-16 16v9.879c0 8.837 7.164 16 16 16s16-7.163 16-16zm-65.349-23.462c6.25-6.247 6.252-16.378.005-22.627-6.247-6.252-16.377-6.252-22.627-.006l-7.026 7.022c-10.117 10.112-2.812 27.316 11.311 27.316 8.144.001 11.651-5.022 18.337-11.705zm-8.739-71.832c0-32.144 26.151-58.294 58.294-58.294s58.294 26.151 58.294 58.294-26.15 58.294-58.294 58.294-58.294-26.15-58.294-58.294zm32 0c0 14.499 11.795 26.294 26.294 26.294s26.294-11.795 26.294-26.294-11.795-26.294-26.294-26.294-26.294 11.795-26.294 26.294z"/></svg>