<svg id="Layer_1" enable-background="new 0 0 496 496" height="512" viewBox="0 0 496 496" width="512" xmlns="http://www.w3.org/2000/svg"><path d="m439.49 196.52-160.99 170.98c-.817-.752-116.681-106.75-117.5-107.5l-104 114v106h382.5c.539-304.869.752-282.763-.01-283.48z" fill="#d9fffd"/><path d="m496 480c0 8.837-7.163 16-16 16-10.56 0-454.311 0-464 0-8.837 0-16-7.163-16-16s7.163-16 16-16h25v-9c0-8.837 7.163-16 16-16s16 7.163 16 16v9h72v-9c0-8.837 7.163-16 16-16s16 7.163 16 16v9h85v-9c0-8.837 7.163-16 16-16s16 7.163 16 16v9h129.528l.016-9.028c.016-8.826 7.176-15.972 15.999-15.972 8.849 0 16.017 7.181 16.001 16.028l-.016 8.972h24.472c8.837 0 16 7.163 16 16zm-56.264-134.2c-8.826-.016-16.013 7.124-16.028 15.972l-.082 46.6c-.016 8.837 7.136 16.013 15.972 16.028 8.92 0 16.013-7.199 16.028-15.972l.082-46.6c.016-8.837-7.136-16.013-15.972-16.028zm16.137-77.172c.016-8.837-7.136-16.013-15.972-16.028-8.826-.016-16.013 7.124-16.028 15.972l-.082 46.6c-.016 8.837 7.136 16.013 15.972 16.028 8.92 0 16.013-7.199 16.028-15.972zm-292.769-24.474c-4.806-.633-9.586.923-13.086 4.23-1.058 1.001-104.94 114.908-105.633 115.797-4.371 5.609-3.385 8.708-3.385 34.819 0 8.837 7.163 16 16 16s16-7.163 16-16v-18.798l76.608-83.974c7.085 7.188 19.035 6.14 24.708-2.36l87.684 80.222v17.91c0 8.837 7.163 16 16 16s16-7.163 16-16v-17.622l133.746-142.053c9.586 11.325 28.184 4.572 28.21-10.297l.044-25c.024-13.913-17.691-22.602-28.149-11.496l-150.188 159.516c-111.531-102.038-107.05-99.901-114.559-100.894zm-2.104 81.512c-8.837 0-16 7.163-16 16v56.667c0 8.837 7.163 16 16 16s16-7.163 16-16v-56.667c0-8.837-7.163-16-16-16zm-145-241.666h101c23.159 0 42-18.841 42-42s-18.841-42-42-42h-11c-8.837 0-16 7.163-16 16s7.163 16 16 16h11c5.514 0 10 4.486 10 10s-4.486 10-10 10h-101c-8.837 0-16 7.163-16 16s7.163 16 16 16zm180 0h31c23.159 0 42-18.841 42-42s-18.841-42-42-42h-11c-8.837 0-16 7.163-16 16s7.163 16 16 16h11c5.514 0 10 4.486 10 10s-4.486 10-10 10h-31c-8.837 0-16 7.163-16 16s7.163 16 16 16zm1 67h-11c-8.837 0-16 7.163-16 16s7.163 16 16 16h11c23.159 0 42-18.841 42-42s-18.841-42-42-42h-101c-8.837 0-16 7.163-16 16s7.163 16 16 16h101c5.514 0 10 4.486 10 10s-4.486 10-10 10z"/></svg>