<svg id="Layer_1" enable-background="new 0 0 495.974 495.974" height="512" viewBox="0 0 495.974 495.974" width="512" xmlns="http://www.w3.org/2000/svg"><path d="m237.527 175.977c-52.832 28.9-73.9 75.846-71.55 71.55-8.859 16.196-32.121 16.197-40.98 0-28.9-52.832-75.846-73.9-71.55-71.55-16.196-8.859-16.197-32.121 0-40.98 52.832-28.9 73.9-75.846 71.55-71.55 8.859-16.196 32.121-16.197 40.98 0 16.52 30.2 41.35 55.03 71.55 71.55 16.196 8.859 16.197 32.12 0 40.98z" fill="#ffe773"/><path d="m156.907 73.997c1.02-1.31-26.58 56.61-92.57 92.71-.442.242-.875.492-1.298.75-9.224 5.626-21.329-.277-21.713-11.075-.292-8.221 3.563-16.706 12.121-21.386 51.12-27.96 72.5-72.83 71.7-71.81 3.838-6.828 10.338-10.769 17.21-11.687 12.058-1.609 20.82 11.336 14.55 22.498z" fill="#ffec8f"/><path d="m104.384 414.312c-21.466 11.742-30.026 30.817-29.071 29.071-3.599 6.581-13.051 6.581-16.651 0-11.742-21.466-30.817-30.026-29.071-29.071-6.581-3.599-6.581-13.051 0-16.651 21.466-11.742 30.026-30.817 29.071-29.071 3.599-6.581 13.051-6.581 16.651 0 6.712 12.271 16.801 22.359 29.071 29.071 6.58 3.6 6.581 13.051 0 16.651z" fill="#ffe773"/><path d="m71.627 372.876c.414-.532-10.8 23.001-37.612 37.669-.18.098-.355.2-.527.305-3.748 2.286-8.666-.113-8.822-4.5-.119-3.34 1.448-6.788 4.925-8.689 20.771-11.36 29.457-29.591 29.132-29.177 1.56-2.774 4.2-4.375 6.993-4.748 4.898-.654 8.459 4.605 5.911 9.14z" fill="#ffec8f"/><path d="m466.384 191.675c-21.466 11.742-30.026 30.817-29.071 29.071-3.599 6.581-13.051 6.581-16.651 0-11.742-21.466-30.817-30.026-29.071-29.071-6.581-3.599-6.581-13.051 0-16.651 21.466-11.742 30.026-30.817 29.071-29.071 3.599-6.581 13.051-6.581 16.651 0 6.712 12.271 16.801 22.359 29.071 29.071 6.58 3.6 6.581 13.052 0 16.651z" fill="#ffe773"/><path d="m433.627 150.24c.414-.532-10.8 23.001-37.612 37.669-.18.098-.355.2-.527.305-3.748 2.286-8.666-.113-8.822-4.5-.119-3.34 1.448-6.788 4.925-8.689 20.77-11.36 29.457-29.591 29.132-29.177 1.56-2.774 4.2-4.375 6.993-4.748 4.898-.655 8.459 4.605 5.911 9.14z" fill="#ffec8f"/><path d="m385.589 398.09c-35.074 19.186-49.06 50.352-47.5 47.5-5.881 10.752-21.324 10.753-27.205 0-19.186-35.074-50.352-49.06-47.5-47.5-10.752-5.881-10.753-21.324 0-27.205 35.074-19.186 49.06-50.352 47.5-47.5 5.881-10.752 21.324-10.753 27.205 0 10.967 20.049 27.451 36.533 47.5 47.5 10.752 5.88 10.753 21.323 0 27.205z" fill="#ffe773"/><path d="m332.068 330.388c.677-.869-17.646 37.582-61.454 61.547-.293.161-.581.327-.862.498-6.124 3.735-14.16-.184-14.415-7.352-.194-5.458 2.366-11.09 8.047-14.197 33.937-18.562 48.13-48.349 47.599-47.672 2.548-4.533 6.863-7.149 11.425-7.758 8.006-1.07 13.823 7.524 9.66 14.934z" fill="#ffec8f"/><path d="m282.664 169.525c11.059-6.049 11.1-22.005 0-28.076l-37.46-20.486c-27.57-15.08-50.113-37.623-65.192-65.193l-20.488-37.46c-6.048-11.059-22.005-11.098-28.075 0l-20.488 37.46c-15.079 27.57-37.622 50.113-65.191 65.192l-37.46 20.487c-11.059 6.049-11.1 22.005 0 28.076l37.46 20.486c27.57 15.08 50.113 37.623 65.192 65.193l20.488 37.46c6.049 11.059 22.005 11.098 28.075 0l20.488-37.46c15.079-27.57 37.622-50.113 65.191-65.192zm-130.727 70.324-6.45 11.794c-9.558-17.477-30.312-60.144-84.362-89.707l-11.793-6.449c17.322-9.474 60.108-30.247 89.705-84.362l6.45-11.794c9.558 17.477 30.312 60.144 84.362 89.707l11.793 6.449c-17.322 9.474-60.108 30.247-89.705 84.362zm265.727 130.6-16.638-9.099c-38.393-21-51.844-50.554-62.501-70.041-6.05-11.059-22.004-11.098-28.075 0-10.484 19.169-23.963 48.962-62.501 70.04l-16.639 9.1c-11.059 6.049-11.1 22.005 0 28.076 19.167 10.481 48.962 23.962 70.04 62.501l9.1 16.639c6.05 11.059 22.004 11.098 28.075 0l9.1-16.639c20.998-38.393 50.553-51.844 70.04-62.501 11.059-6.049 11.099-22.005-.001-28.076zm-93.177 66.788c-13.372-21.38-31.369-39.377-52.75-52.75 21.38-13.373 39.378-31.37 52.75-52.75 13.372 21.38 31.369 39.377 52.75 52.75-21.38 13.373-39.378 31.37-52.75 52.75zm-198.823-45.288c-11.245-6.149-27.592-13.469-39.211-34.714 0-.101.553 1.011-5.428-9.926-6.05-11.059-22.004-11.098-28.075 0l-5.428 9.926c-11.565 21.147-27.746 28.444-39.211 34.714-11.059 6.049-11.1 22.005 0 28.076 11.335 6.198 27.605 13.491 39.211 34.715l5.428 9.925c6.05 11.059 22.004 11.098 28.075 0l5.428-9.926c11.565-21.147 27.746-28.444 39.211-34.714 11.06-6.049 11.1-22.005 0-28.076zm-58.677 34.153c-5.767-7.586-12.529-14.348-20.116-20.115 7.588-5.768 14.348-12.528 20.116-20.115 5.767 7.586 12.529 14.348 20.116 20.115-7.588 5.767-14.349 12.528-20.116 20.115zm420.677-257.153c-11.245-6.149-27.592-13.469-39.211-34.714 0-.101.553 1.011-5.428-9.926-6.05-11.059-22.004-11.098-28.075 0l-5.428 9.926c-11.566 21.147-27.746 28.444-39.211 34.714-11.059 6.049-11.1 22.005 0 28.076 11.335 6.198 27.605 13.491 39.211 34.715l5.428 9.925c6.05 11.059 22.004 11.098 28.075 0l5.428-9.926c11.565-21.147 27.746-28.444 39.211-34.714 11.06-6.049 11.1-22.005 0-28.076zm-58.677 34.153c-5.767-7.586-12.529-14.348-20.116-20.115 7.588-5.768 14.348-12.528 20.116-20.115 5.767 7.586 12.529 14.348 20.116 20.115-7.588 5.767-14.349 12.528-20.116 20.115z"/></svg>