<svg id="Layer_1" enable-background="new 0 0 496 496" height="512" viewBox="0 0 496 496" width="512" xmlns="http://www.w3.org/2000/svg"><g fill="#bafbfe"><path d="m29.54 21.419 16.249-16.259c6.246-6.25 16.386-6.252 22.635 0l16.25 16.26c24.69 24.661 6.838 66.58-27.567 66.58-34.345 0-52.299-41.891-27.567-66.581z"/><path d="m105.789 115.16c6.246-6.25 16.386-6.252 22.635 0l16.25 16.26c24.691 24.661 6.838 66.58-27.567 66.58-34.344 0-52.299-41.891-27.566-66.581z"/><path d="m159.54 51.419 16.249-16.259c6.246-6.25 16.386-6.252 22.635 0l16.25 16.26c24.691 24.661 6.838 66.58-27.567 66.58-34.869 0-51.925-42.265-27.567-66.581z"/></g><path d="m19.949 37.104c-1.963 6.145 6.593 10.006 9.927 4.484 3.671-6.08 5.391-7.268 25.791-27.678 1.266-1.266 2.701-2.338 4.256-3.188 4.872-2.663 2.961-10.185-2.591-10.251-4.415-.053-8.537 1.68-11.546 4.689-16.984 16.995-22.279 20.803-25.837 31.944z" fill="#d9fffd"/><path d="m79.949 147.104c-1.963 6.145 6.593 10.006 9.927 4.484 3.671-6.08 5.391-7.268 25.791-27.678 1.266-1.266 2.701-2.338 4.256-3.188 4.824-2.636 3.088-10.252-2.816-10.252-4.25 0-8.32 1.69-11.32 4.69-16.985 16.995-22.28 20.802-25.838 31.944z" fill="#d9fffd"/><path d="m149.957 67.104c-1.963 6.145 6.593 10.006 9.927 4.484 3.671-6.08 5.391-7.268 25.791-27.678 1.266-1.266 2.701-2.338 4.256-3.188 4.872-2.663 2.961-10.185-2.591-10.251-4.415-.053-8.537 1.68-11.546 4.689-16.984 16.995-22.279 20.802-25.837 31.944z" fill="#d9fffd"/><path d="m461.568 88h-77c-8.837 0-16-7.163-16-16s7.163-16 16-16h77c8.837 0 16 7.163 16 16s-7.164 16-16 16z" fill="#83f8fb"/><path d="m441.568 188h-57c-8.837 0-16-7.163-16-16s7.163-16 16-16h57c8.837 0 16 7.163 16 16s-7.164 16-16 16z" fill="#83f8fb"/><path d="m421.568 288h-37c-8.837 0-16-7.163-16-16s7.163-16 16-16h37c8.837 0 16 7.163 16 16s-7.164 16-16 16z" fill="#83f8fb"/><path d="m387.751 334.13c17.459 15.049 28.575 37.254 28.813 62.057.433 45.122-35.89 82.731-81.001 83.789-46.752 1.097-84.995-36.474-84.995-82.977 0-25.132 11.168-47.659 28.819-62.873 2.002-1.725 3.181-4.215 3.181-6.858v-259.43c0-27.97 22.17-51.369 50.137-51.831 28.565-.472 51.863 22.536 51.863 50.993 0 10.185 0 264.169 0 260.268 0 2.645 1.18 5.135 3.183 6.862z" fill="#c1fefa"/><path d="m349.568 358.948v-195.496c0-8.616-6.621-16.029-15.227-16.433-9.188-.432-16.773 6.889-16.773 15.982v195.957c0 2.756-1.431 5.298-3.759 6.773-30.28 19.2-18.128 65.669 17.065 68.174 21.615 1.539 39.694-15.61 39.694-36.904 0-13.112-6.855-24.651-17.17-31.225-2.351-1.499-3.83-4.04-3.83-6.828z" fill="#ffa4b8"/><path d="m323.771 150.33c6.056-4.564 13.429 3.581 8.543 9.38-2.316 2.749-3.752 6.311-3.752 10.29v195.96c0 2.75-1.43 5.29-3.76 6.77-6.826 4.331-11.678 10.396-14.462 17.173-3.083 7.505-14.491 3.618-12.067-4.125 2.451-7.831 7.583-15.006 15.529-20.047 2.33-1.48 3.76-4.02 3.76-6.77v-195.961c0-5.526 2.538-9.903 6.209-12.67z" fill="#ffbfcd"/><path d="m287.606 44.869c4.127-8.554 16.901-5.484 16.852 4.013-.001.252-.001 298.594-.001 298.342 0 2.615-1.167 5.085-3.16 6.778-17.588 14.942-28.535 35.141-32.121 56.608-1.645 9.85-15.807 10.075-17.46.226-4.65-27.699 4.86-57.111 27.703-76.739 1.98-1.702 3.149-4.161 3.149-6.772v-260.325c0-7.931 1.809-15.438 5.038-22.131z" fill="#d9fffd"/><path d="m370.951 397c0 20.402-16.598 37-37 37s-37-16.598-37-37c0-14.675 8.587-27.38 21-33.358v-200.642c0-8.837 7.164-16 16-16s16 7.163 16 16v200.642c12.413 5.978 21 18.683 21 33.358zm107-325c0 8.837-7.164 16-16 16h-61v68h41c8.836 0 16 7.163 16 16s-7.164 16-16 16h-41v68h21c8.836 0 16 7.163 16 16s-7.164 16-16 16h-21v36.11c20.432 18.722 32 44.863 32 72.89 0 54.589-44.411 99-99 99s-99-44.411-99-99c0-28.026 11.568-54.168 32-72.89v-257.11c0-36.944 30.056-67 67-67 33.197 0 60.817 24.273 66.082 56h61.918c8.837 0 16 7.163 16 16zm-77 325c0-20.799-9.417-40.065-25.835-52.86-3.89-3.031-6.165-7.688-6.165-12.62v-264.52c0-19.299-15.701-35-35-35s-35 15.701-35 35v264.52c0 4.933-2.275 9.589-6.165 12.62-16.418 12.795-25.835 32.062-25.835 52.86 0 36.944 30.056 67 67 67s67-30.056 67-67zm-343.767-309.019c-34.549 0-52.126-42.01-27.577-66.559l16.263-16.263c6.243-6.244 16.38-6.248 22.627 0l16.264 16.264c24.521 24.522 7.002 66.558-27.577 66.558zm4.949-43.931-4.95-4.949-4.949 4.949c-2.729 2.729-2.729 7.171 0 9.9 2.73 2.729 7.171 2.729 9.9-.001 2.729-2.728 2.729-7.17-.001-9.899zm82.628 87.373c15.205 15.206 15.205 39.948 0 55.154-15.206 15.205-39.948 15.206-55.154.001-15.207-15.207-15.207-39.949 0-55.155l16.263-16.264c6.243-6.244 16.38-6.248 22.627 0zm-22.628 22.627-4.95-4.949-4.949 4.949c-2.729 2.729-2.729 7.171 0 9.9 2.73 2.729 7.171 2.73 9.9-.001 2.729-2.728 2.729-7.17-.001-9.899zm92.628-102.627c15.205 15.206 15.205 39.948 0 55.154-15.206 15.205-39.948 15.206-55.154.001-15.207-15.207-15.207-39.949 0-55.155l16.263-16.264c6.243-6.244 16.38-6.248 22.627 0zm-22.628 22.627-4.95-4.949-4.949 4.949c-2.729 2.729-2.729 7.171 0 9.9 2.73 2.729 7.171 2.73 9.9-.001 2.729-2.728 2.729-7.17-.001-9.899z"/></svg>