<svg id="Layer_1" enable-background="new 0 0 496 496" height="512" viewBox="0 0 496 496" width="512" xmlns="http://www.w3.org/2000/svg"><g fill="#ffe773"><path d="m225.12 95.5h-9.88c-8.836 0-16 7.163-16 16s7.164 16 16 16h9.88c8.836 0 16-7.163 16-16s-7.164-16-16-16z"/><path d="m129.62 41.88c8.836 0 16-7.163 16-16v-9.88c0-8.837-7.164-16-16-16s-16 7.163-16 16v9.88c0 8.837 7.164 16 16 16z"/><path d="m190.08 66.96c8.127 0 11.617-4.989 18.335-11.697 6.253-6.243 6.261-16.374.017-22.627-6.244-6.256-16.375-6.261-22.627-.018l-7.03 7.02c-10.108 10.092-2.846 27.322 11.305 27.322z"/><path d="m69.02 67.02c14.16 0 21.411-17.231 11.306-27.322l-7.03-7.02c-6.254-6.244-16.384-6.236-22.627.017-6.244 6.253-6.237 16.384.016 22.628 6.818 6.808 10.26 11.697 18.335 11.697z"/><path d="m60 111.91c0-8.837-7.164-16-16-16h-9.88c-8.836 0-16 7.163-16 16s7.164 16 16 16h9.88c8.836 0 16-7.163 16-16z"/><path d="m201.526 160.958c-6.254-6.243-16.384-6.236-22.627.017-6.244 6.253-6.237 16.384.016 22.628l7.03 7.02c6.25 6.24 16.38 6.239 22.627-.017 6.244-6.253 6.237-16.384-.016-22.628z"/><path d="m129.62 181.12c-8.836 0-16 7.163-16 16v9.88c0 8.837 7.164 16 16 16s16-7.163 16-16v-9.88c0-8.837-7.164-16-16-16z"/><path d="m57.654 160.898-7.03 7.021c-10.108 10.095-2.841 27.321 11.306 27.321 8.127 0 11.618-4.99 18.336-11.699 6.252-6.244 6.259-16.375.015-22.628-6.245-6.252-16.376-6.26-22.627-.015z"/><path d="m129.83 53.41c-32.146 0-58.3 26.153-58.3 58.3 0 32.142 26.153 58.29 58.3 58.29 32.141 0 58.29-26.148 58.29-58.29 0-32.147-26.149-58.3-58.29-58.3z"/></g><path d="m74.101 128.848c2.102 6.82 12.299 5.268 12.291-1.869-.034-30.465 24.264-58.862 58.715-58.648 7.236.045 8.963-10.132 2.056-12.288-44.643-13.937-86.773 28.325-73.062 72.805z" fill="#ffec8f"/><path d="m461.5 88h-77c-8.837 0-16-7.163-16-16s7.163-16 16-16h77c8.837 0 16 7.163 16 16s-7.163 16-16 16z" fill="#83f8fb"/><path d="m441.5 188h-57c-8.837 0-16-7.163-16-16s7.163-16 16-16h57c8.837 0 16 7.163 16 16s-7.163 16-16 16z" fill="#83f8fb"/><path d="m421.5 288h-37c-8.837 0-16-7.163-16-16s7.163-16 16-16h37c8.837 0 16 7.163 16 16s-7.163 16-16 16z" fill="#83f8fb"/><path d="m387.684 334.13c17.459 15.049 28.575 37.254 28.813 62.057.433 45.122-35.89 82.731-81.001 83.789-46.753 1.097-84.996-36.473-84.996-82.976 0-25.132 11.168-47.659 28.819-62.873 2.002-1.725 3.181-4.215 3.181-6.858v-259.431c0-27.97 22.17-51.369 50.137-51.831 28.565-.472 51.863 22.536 51.863 50.993 0 2.826 0 262.073 0 260.268 0 2.645 1.18 5.135 3.184 6.862z" fill="#c1fefa"/><path d="m349.5 358.948v-195.496c0-8.616-6.621-16.029-15.227-16.433-9.188-.432-16.773 6.889-16.773 15.982v195.957c0 2.756-1.431 5.298-3.759 6.773-30.28 19.2-18.128 65.669 17.065 68.174 21.615 1.539 39.694-15.61 39.694-36.904 0-13.112-6.855-24.651-17.17-31.225-2.35-1.499-3.83-4.04-3.83-6.828z" fill="#ffa4b8"/><path d="m323.709 150.33c6.056-4.564 13.429 3.581 8.543 9.38-2.316 2.749-3.752 6.311-3.752 10.29v195.96c0 2.75-1.43 5.29-3.76 6.77-6.826 4.331-11.678 10.396-14.462 17.173-3.083 7.505-14.491 3.618-12.067-4.125 2.451-7.831 7.583-15.006 15.529-20.047 2.33-1.48 3.76-4.02 3.76-6.77v-195.961c0-5.526 2.538-9.903 6.209-12.67z" fill="#ffbfcd"/><path d="m287.539 44.869c4.039-8.373 16.851-5.832 16.851 4.321v298.034c0 2.615-1.167 5.085-3.16 6.778-17.588 14.942-28.535 35.141-32.121 56.608-1.645 9.85-15.807 10.075-17.46.226-4.65-27.699 4.86-57.111 27.703-76.739 1.98-1.702 3.149-4.161 3.149-6.772v-260.325c-.001-7.931 1.809-15.438 5.038-22.131z" fill="#d9fffd"/><path d="m370.884 397c0 20.402-16.598 37-37 37s-37-16.598-37-37c0-14.675 8.587-27.38 21-33.358v-200.642c0-8.837 7.164-16 16-16s16 7.163 16 16v200.642c12.413 5.978 21 18.683 21 33.358zm107-325c0 8.837-7.164 16-16 16h-61v68h41c8.836 0 16 7.163 16 16s-7.164 16-16 16h-41v68h21c8.836 0 16 7.163 16 16s-7.164 16-16 16h-21v36.11c20.432 18.722 32 44.863 32 72.89 0 54.589-44.411 99-99 99s-99-44.411-99-99c0-28.026 11.568-54.168 32-72.89v-257.11c0-36.944 30.056-67 67-67 33.197 0 60.817 24.273 66.082 56h61.918c8.836 0 16 7.163 16 16zm-77 325c0-20.799-9.417-40.065-25.835-52.86-3.89-3.031-6.165-7.688-6.165-12.62v-264.52c0-19.299-15.701-35-35-35s-35 15.701-35 35v264.52c0 4.933-2.275 9.589-6.165 12.62-16.418 12.795-25.835 32.062-25.835 52.86 0 36.944 30.056 67 67 67s67-30.056 67-67zm-159.768-285.5c0-8.837-7.164-16-16-16h-9.879c-8.836 0-16 7.163-16 16s7.164 16 16 16h9.879c8.837 0 16-7.163 16-16zm-111.5-69.621c8.836 0 16-7.163 16-16v-9.879c0-8.837-7.164-16-16-16s-16 7.163-16 16v9.879c0 8.837 7.164 16 16 16zm71.772 20.399 7.026-7.022c6.25-6.247 6.252-16.377.005-22.627-6.247-6.251-16.377-6.253-22.627-.006l-7.026 7.022c-6.25 6.247-6.252 16.378-.005 22.627 6.243 6.248 16.374 6.256 22.627.006zm-132.376 4.743c14.13 0 21.421-17.212 11.311-27.316l-7.026-7.022c-6.25-6.247-16.381-6.245-22.627.006-6.247 6.249-6.245 16.38.005 22.627 6.838 6.834 10.27 11.705 18.337 11.705zm-9.016 44.891c0-8.837-7.164-16-16-16h-9.879c-8.836 0-16 7.163-16 16s7.164 16 16 16h9.879c8.836 0 16-7.163 16-16zm141.535 49.05c-6.25-6.248-16.381-6.244-22.627.006s-6.244 16.381.006 22.627l7.026 7.022c6.248 6.245 16.379 6.246 22.627-.006 6.247-6.25 6.244-16.381-.006-22.627zm-71.915 20.159c-8.836 0-16 7.163-16 16v9.879c0 8.837 7.164 16 16 16s16-7.163 16-16v-9.879c0-8.837-7.163-16-16-16zm-71.971-20.216-7.026 7.022c-10.117 10.112-2.812 27.316 11.311 27.316 8.144 0 11.651-5.023 18.337-11.706 6.25-6.247 6.252-16.378.005-22.627-6.247-6.25-16.377-6.252-22.627-.005zm130.471-49.199c0 32.144-26.15 58.294-58.294 58.294s-58.294-26.15-58.294-58.294 26.151-58.294 58.294-58.294 58.294 26.151 58.294 58.294zm-32 0c0-14.499-11.795-26.294-26.294-26.294s-26.294 11.795-26.294 26.294 11.795 26.294 26.294 26.294 26.294-11.795 26.294-26.294z"/></svg>