<svg id="Layer_1" enable-background="new 0 0 496 496" height="512" viewBox="0 0 496 496" width="512" xmlns="http://www.w3.org/2000/svg"><path d="m375.59 334.13c17.459 15.049 28.575 37.254 28.813 62.057.433 45.122-35.89 82.731-81.001 83.789-46.752 1.097-84.995-36.474-84.995-82.977 0-25.132 11.168-47.659 28.819-62.873 2.002-1.725 3.181-4.215 3.181-6.858v-259.43c0-27.97 22.17-51.369 50.137-51.831 28.565-.472 51.863 22.536 51.863 50.993 0 7.238 0 264.276 0 260.268 0 2.645 1.18 5.135 3.183 6.862z" fill="#c1fefa"/><g fill="#83f8fb"><path d="m449.407 88h-77c-8.837 0-16-7.163-16-16s7.163-16 16-16h77c8.837 0 16 7.163 16 16s-7.163 16-16 16z"/><path d="m429.407 188h-57c-8.837 0-16-7.163-16-16s7.163-16 16-16h57c8.837 0 16 7.163 16 16s-7.163 16-16 16z"/><path d="m409.407 288h-37c-8.837 0-16-7.163-16-16s7.163-16 16-16h37c8.837 0 16 7.163 16 16s-7.163 16-16 16z"/></g><path d="m337.407 358.948v-145.496c0-8.616-6.621-16.029-15.227-16.433-9.188-.432-16.773 6.889-16.773 15.982v145.957c0 2.756-1.431 5.298-3.759 6.773-30.28 19.2-18.128 65.669 17.065 68.174 21.615 1.539 39.694-15.61 39.694-36.904 0-13.112-6.855-24.651-17.17-31.225-2.351-1.499-3.83-4.04-3.83-6.828z" fill="#ffa4b8"/><path d="m311.616 200.33c6.056-4.564 13.429 3.581 8.543 9.38-2.316 2.749-3.752 6.311-3.752 10.29v145.96c0 2.75-1.43 5.29-3.76 6.77-6.826 4.331-11.678 10.396-14.462 17.173-3.083 7.505-14.491 3.618-12.067-4.125 2.451-7.831 7.583-15.006 15.529-20.047 2.33-1.48 3.76-4.02 3.76-6.77v-145.961c0-5.526 2.538-9.903 6.209-12.67z" fill="#ffbfcd"/><path d="m275.445 44.869c4.127-8.554 16.901-5.484 16.852 4.013-.001.252-.001 298.594-.001 298.342 0 2.615-1.167 5.085-3.16 6.778-17.588 14.942-28.535 35.141-32.121 56.608-1.645 9.85-15.807 10.075-17.46.226-4.65-27.699 4.86-57.111 27.703-76.739 1.98-1.702 3.149-4.161 3.149-6.772v-260.325c0-7.931 1.81-15.438 5.038-22.131z" fill="#d9fffd"/><path d="m47.322 209.944c-7.149-5.193-8.734-15.2-3.54-22.349 10.351-14.247 15.062-27.785 14.002-40.239-1.94-22.956-24.69-35.336-27.018-68.227-1.426-20.396 5.944-41.219 21.904-61.903 5.397-6.997 15.446-8.293 22.441-2.894 6.996 5.398 8.292 15.446 2.894 22.442-26.021 33.723-13.153 52.588-4.322 66.68 6.775 10.81 14.454 23.063 15.987 41.198 1.729 20.327-5 41.106-19.999 61.752-5.194 7.149-15.201 8.734-22.349 3.54z" fill="#ffbfcd"/><path d="m136.713 213.001c-12.96 0-20.638-14.798-12.931-25.405 24.667-33.953 11.398-53.406 2.786-67.148-6.804-10.856-14.517-23.162-15.801-41.317-1.426-20.396 5.943-41.22 21.903-61.904 5.398-6.997 15.446-8.293 22.441-2.894 6.996 5.398 8.292 15.446 2.894 22.442-26.021 33.723-13.153 52.588-4.322 66.68 6.775 10.81 14.454 23.063 15.987 41.198 1.729 20.327-5 41.106-19.999 61.752-3.13 4.308-8.01 6.596-12.958 6.596z" fill="#ffbfcd"/><path d="m358.219 397c0 20.402-16.598 37-37 37s-37-16.598-37-37c0-14.675 8.587-27.38 21-33.358v-150.642c0-8.837 7.163-16 16-16s16 7.163 16 16v150.642c12.413 5.978 21 18.683 21 33.358zm107-325c0 8.837-7.163 16-16 16h-61v68h41c8.837 0 16 7.163 16 16s-7.163 16-16 16h-41v68h21c8.837 0 16 7.163 16 16s-7.163 16-16 16h-21v36.11c20.432 18.722 32 44.863 32 72.89 0 54.589-44.411 99-99 99s-99-44.411-99-99c0-28.025 11.569-54.167 32-72.89v-257.11c0-36.944 30.056-67 67-67 33.197 0 60.817 24.273 66.082 56h61.918c8.837 0 16 7.163 16 16zm-77 325c0-20.799-9.416-40.065-25.835-52.86-3.891-3.031-6.165-7.688-6.165-12.62v-264.52c0-19.299-15.701-35-35-35s-35 15.701-35 35v264.52c0 4.932-2.274 9.589-6.165 12.62-16.419 12.795-25.835 32.063-25.835 52.86 0 36.944 30.056 67 67 67s67-30.056 67-67zm-325.527-320.126c-.869-12.313 4.283-25.805 15.312-40.101 5.398-6.996 4.102-17.043-2.895-22.441-6.996-5.399-17.044-4.104-22.441 2.895-15.968 20.696-23.335 41.522-21.897 61.899 2.325 32.948 25.064 45.206 27.018 68.227 1.056 12.447-3.656 25.988-14.006 40.249-7.719 10.636.021 25.399 12.936 25.399 4.95 0 9.832-2.29 12.962-6.603 14.991-20.656 21.718-41.432 19.994-61.751-2.807-33.061-25.401-45.357-26.983-67.773zm80 0c-.869-12.313 4.283-25.805 15.312-40.101 5.398-6.996 4.102-17.043-2.895-22.441-6.996-5.399-17.043-4.104-22.441 2.895-15.968 20.696-23.335 41.522-21.897 61.899 2.325 32.948 25.064 45.206 27.018 68.227 1.056 12.447-3.656 25.988-14.006 40.249-7.719 10.636.021 25.399 12.936 25.399 4.95 0 9.832-2.29 12.962-6.603 14.991-20.656 21.718-41.432 19.994-61.751-2.807-33.061-25.401-45.357-26.983-67.773z"/></svg>