<svg id="Layer_1" enable-background="new 0 0 496 496" height="512" viewBox="0 0 496 496" width="512" xmlns="http://www.w3.org/2000/svg"><circle cx="195.574" cy="248.231" fill="#ffe773" r="120.164"/><path d="m108.136 256.328c19.523-48.78 64.913-84.237 117.422-90.689 18.426-2.264 20.263-28.197 2.38-33.178-76.904-21.419-153.673 37.334-152.516 117.784.268 18.596 25.804 23.349 32.714 6.083z" fill="#ffec8f"/><path d="m480 246.76c0 72.65-58.9 131.55-131.55 131.55-72.658 0-131.54-58.912-131.54-131.55 0-72.648 58.906-131.55 131.54-131.55 72.65 0 131.55 58.9 131.55 131.55z" fill="#aaa"/><circle cx="360" cy="282" fill="#999" r="49"/><g fill="#ffec8f"><path d="m195 103.52c-8.837 0-16-7.163-16-16v-18.52c0-8.837 7.163-16 16-16s16 7.163 16 16v18.52c0 8.836-7.163 16-16 16z"/><path d="m70.101 145.958-13.169-13.159c-6.251-6.246-6.256-16.377-.01-22.628 6.245-6.25 16.377-6.255 22.628-.009l13.169 13.159c6.251 6.246 6.256 16.377.01 22.628-6.242 6.248-16.374 6.257-22.628.009z"/><path d="m34.52 264.77h-18.52c-8.837 0-16-7.163-16-16s7.163-16 16-16h18.52c8.837 0 16 7.163 16 16s-7.164 16-16 16z"/><path d="m195 443c-8.837 0-16-7.163-16-16v-18.52c0-8.837 7.163-16 16-16s16 7.163 16 16v18.52c0 8.837-7.163 16-16 16z"/><path d="m56.816 386.295c-6.248-6.248-6.249-16.379-.001-22.628l13.17-13.171c6.248-6.248 16.38-6.249 22.628-.001s6.249 16.379.001 22.628l-13.17 13.171c-6.247 6.248-16.379 6.249-22.628.001z"/></g><path d="m293.149 344.342c7.278 8.637-3.27 20.78-12.921 14.913-37.942-23.064-63.318-64.803-63.318-112.496 0-76.719 63.49-132.278 132.856-131.699 11.321.094 13.781 15.963 3.026 19.501-89.032 29.287-119.243 139.049-59.643 209.781z" fill="#b2b2b2"/><path d="m309 191c-18.734 12.831-42.231 15.709-63.139 8.6-9.749-3.315-13.837-14.98-8.287-23.654 18.459-28.851 47.665-49.689 81.383-57.417 10.177-2.332 19.917 5.419 19.69 15.858-.49 22.513-6.941 41.062-29.647 56.613z" fill="#999"/><path d="m338.65 134.39c-.04 1.99-.14 3.96-.29 5.89-27.75 12.92-50.26 35.23-63.41 62.86-9.77.83-19.69-.34-29.09-3.54-10.451-3.553-13.379-16.04-8.6-23.15 19.507-30.951 51.383-51.264 79.9-57.49 13.244-3.308 21.692 5.887 21.49 15.43z" fill="#aaa"/><path d="m333.656 313.457c2.053 4.122-3.108 7.977-6.523 4.888-10.376-9.387-16.711-23.157-16.092-38.391 1.346-33.068 33.727-53.393 62.483-45.15 4.303 1.233 3.95 7.62-1.012 8.132-35.47 3.663-53.174 41.776-38.856 70.521z" fill="#8c8c8c"/><path d="m179 87.518v-18.518c0-8.837 7.163-16 16-16s16 7.163 16 16v18.518c0 8.837-7.163 16-16 16s-16-7.164-16-16zm-108.903 58.44c3.124 3.123 7.217 4.684 11.311 4.684 14.128 0 21.423-17.211 11.311-27.316l-13.169-13.162c-6.25-6.247-16.381-6.245-22.627.006-6.247 6.25-6.244 16.381.006 22.627zm-35.579 86.813h-18.518c-8.837 0-16 7.163-16 16s7.163 16 16 16h18.518c8.837 0 16-7.163 16-16s-7.164-16-16-16zm160.482 159.711c-8.837 0-16 7.163-16 16v18.518c0 8.837 7.163 16 16 16s16-7.163 16-16v-18.518c0-8.836-7.163-16-16-16zm-125.01-41.985-13.169 13.163c-10.097 10.094-2.839 27.316 11.312 27.316 4.094 0 8.188-1.562 11.312-4.684l13.169-13.163c6.249-6.247 6.252-16.378.005-22.628-6.25-6.25-16.38-6.251-22.629-.004zm426.01-103.736c0 120.094-136.483 189.592-233.471 119.873-90.023 51.264-203.12-13.961-203.12-118.248 0-102.87 110.428-168.441 200.593-119.645 96.782-72.718 235.998-3.364 235.998 118.02zm-244.752-62.401c35.188 11.81 71.255-13.088 72.521-50.481-30.315 6.623-56.221 25.177-72.521 50.481zm-14.015 159.246c-47.645-54.647-48.548-135.617-2.041-191.295-68.432-28.372-143.784 22.253-143.784 96.075.001 74.954 77.382 125.356 145.825 95.22zm226.767-96.845c0-61.251-47.909-111.515-108.221-115.307.295 62.424-61.122 103.659-117.989 82.062-22.351 74.268 33.679 148.791 110.664 148.791 63.712 0 115.546-51.834 115.546-115.546zm-39 35.239c0 35.841-29.159 65-65 65s-65-29.159-65-65 29.159-65 65-65 65 29.159 65 65zm-32 0c0-18.196-14.804-33-33-33s-33 14.804-33 33 14.804 33 33 33 33-14.804 33-33z"/></svg>