<svg id="Layer_1" enable-background="new 0 0 496.408 496.408" height="512" viewBox="0 0 496.408 496.408" width="512" xmlns="http://www.w3.org/2000/svg"><path d="m123.799 252.951 11.75-30.91c9.403-24.736-3.077-52.514-27.821-61.921l-30.91-11.75c-24.736-9.401-52.515 3.077-61.922 27.82l-11.749 30.91c-9.403 24.737 3.077 52.515 27.821 61.922 32.591 12.389 36.581 14.878 47.897 14.878 19.366 0 37.656-11.805 44.934-30.949z" fill="#c1fefa"/><path d="m109.501 160.827c7.302 3.106 2.744 14.142-4.678 11.332-2.96-1.121-6.277-2.378-10-3.794-24.74-9.4-52.52 3.08-61.93 27.82-12.229 32.168-15.112 36.979-14.874 48.865.127 6.337-8.197 8.833-11.397 3.362-7.085-12.114-8.839-27.207-3.479-41.317l11.75-30.909c9.41-24.74 37.19-37.221 61.93-27.82 33.743 12.827 31.448 11.938 32.678 12.461z" fill="#d9fffd"/><path d="m175.943 354.135h-33.07c-26.467 0-48 21.533-48 48v33.07c0 26.467 21.533 48 48 48h33.07c26.467 0 48-21.533 48-48v-33.07c0-26.466-21.533-48-48-48z" fill="#c1fefa"/><path d="m444.218 329.364-16.536-28.633c-13.256-22.983-42.588-30.845-65.568-17.573l-28.646 16.534c-22.92 13.242-30.797 42.656-17.563 65.562l16.532 28.644c13.232 22.915 42.644 30.8 65.58 17.573l28.626-16.538c22.92-13.234 30.805-42.646 17.575-65.569z" fill="#c1fefa"/><path d="m177.117 378.788c-2.584.01-5.365.018-8.366.018-26.509 0-47.988 21.495-47.988 48.003 0 6.86-.049 12.616-.083 17.533-.098 14.441-20.617 16.944-24.261 2.971-1.009-3.869-1.546-7.926-1.546-12.107v-33.07c0-26.51 21.49-48 48-48 36.147 0 33.609-.014 34.877.034 15.933.591 15.311 24.554-.633 24.618z" fill="#d9fffd"/><path d="m393.57 277.294c7.334 1.16 8.279 11.419 1.213 13.699-6.321 2.04-6.866 2.722-38.011 20.702-22.92 13.24-30.8 42.649-17.56 65.56 2.344 4.061 4.393 7.632 6.2 10.788 4.55 7.945-7.191 15.13-12.06 7.377-.689-1.096.486.91-17.449-30.165-13.23-22.91-5.35-52.319 17.57-65.56l28.64-16.54c10.024-5.783 21.087-7.501 31.457-5.861z" fill="#d9fffd"/><path d="m123.801 252.95 11.747-30.913c9.401-24.74-3.078-52.518-27.819-61.92l-30.914-11.748c-24.739-9.399-52.518 3.079-61.92 27.82l-11.746 30.913c-9.423 24.799 3.017 52.495 27.819 61.919 32.146 12.216 36.646 14.904 47.984 14.904 18.845-.002 37.397-11.364 44.849-30.975zm-50.553-2.094c-.101 0 1.996.759-30.914-11.748-8.266-3.14-12.414-12.371-9.272-20.639l11.747-30.913c2.426-6.384 8.52-10.318 14.975-10.318 3.894 0 3.03.042 36.578 12.791 8.248 3.135 12.408 12.394 9.274 20.641l-11.747 30.913c-3.142 8.265-12.374 12.416-20.641 9.273zm102.697 103.279h-33.07c-26.467 0-48 21.533-48 48v33.07c0 26.467 21.533 48 48 48h33.07c26.467 0 48-21.533 48-48v-33.07c0-26.466-21.533-48-48-48zm16 81.071c0 8.822-7.178 16-16 16h-33.07c-8.822 0-16-7.178-16-16v-33.07c0-8.822 7.178-16 16-16h33.07c8.822 0 16 7.178 16 16zm235.737-134.482c-13.263-22.971-42.594-30.839-65.569-17.569l-28.641 16.534c-22.974 13.265-30.835 42.593-17.568 65.569l16.535 28.64c13.259 22.966 42.586 30.841 65.569 17.569l28.64-16.535c22.976-13.263 30.835-42.592 17.569-65.569zm-17.033 66.495c-.101 0 1.849-1.068-28.641 16.535-7.643 4.412-17.426 1.817-21.856-5.856l-16.535-28.64c-4.421-7.657-1.803-17.434 5.856-21.856l28.641-16.534c7.646-4.416 17.428-1.814 21.856 5.856l16.535 28.639c4.42 7.657 1.803 17.434-5.856 21.856zm-312.65-263.51 32.902-80.553c3.341-8.182 12.681-12.102 20.862-8.763 8.181 3.342 12.104 12.682 8.762 20.862l-32.902 80.553c-3.341 8.181-12.682 12.102-20.862 8.763-8.18-3.342-12.103-12.682-8.762-20.862zm151.02 122.15-32.902 80.553c-3.341 8.181-12.682 12.102-20.862 8.763-8.181-3.342-12.104-12.682-8.762-20.862l32.902-80.553c3.341-8.182 12.682-12.103 20.862-8.763 8.181 3.341 12.104 12.681 8.762 20.862zm84.965.38 32.902-80.552c3.341-8.181 12.679-12.104 20.862-8.763 8.18 3.342 12.103 12.682 8.762 20.862l-32.902 80.552c-3.341 8.18-12.679 12.103-20.862 8.763-8.18-3.342-12.103-12.681-8.762-20.862zm161.166 3.182-18.153 43.113c-2.575 6.116-8.509 9.795-14.753 9.795-11.396 0-19.184-11.657-14.739-22.213l18.153-43.113c3.429-8.145 12.811-11.968 20.955-8.537 8.144 3.429 11.966 12.811 8.537 20.955z"/></svg>