<svg height="512pt" viewBox="0 -1 512 512" width="512pt" xmlns="http://www.w3.org/2000/svg"><path d="m192 366.542969h128v144h-128zm0 0" fill="#66bb6a"/><path d="m192 453.375c7.167969 1.503906 14.398438 2.511719 21.710938 2.511719 14.625 0 28.945312-3.183594 42.289062-9.023438 13.34375 5.839844 27.648438 9.023438 42.289062 9.023438 7.3125 0 14.558594-1.007813 21.710938-2.511719v-86.847656h-128zm0 0" fill="#43a047"/><path d="m335.664062 222.542969h-159.441406l-1.597656-115.488281 2.238281-3.839844c8.496094-14.65625 16.914063-26.992188 25.695313-37.710938l53.441406-65.503906 53.503906 65.566406c9.105469 11.121094 17.742188 23.875 26.382813 38.929688l2.226562 3.855468zm0 0" fill="#9ccc65"/><path d="m194.574219 318.894531-85.566407-1.597656-3.265624-3.425781c-18.460938-11.4375-31.933594-30.175782-38.03125-53.023438-8.304688-31.070312-2.6875-66.800781 15.394531-98l16.191406-27.953125 12.414063 29.808594c.050781.113281 7.472656 17.265625 25.488281 37.410156 10.335937 11.566407 22.273437 21.917969 35.570312 30.832031h11.230469l.144531 14.910157zm0 0" fill="#43a047"/><path d="m327.902344 318.945312-41.023438-59.25 18.769532-7.40625c28.253906-11.152343 52.785156-28.066406 72.910156-50.257812 17.9375-20.0625 25.363281-37.214844 25.425781-37.390625l12.574219-29.519531 16.035156 27.726562c32.191406 55.855469 22.71875 121.726563-21.585938 149.96875l-3.582031 2.289063zm0 0" fill="#43a047"/><g fill="#66bb6a"><path d="m159.679688 274.398438-.113282-10.863282c-5.628906-6.289062-9.871094-11.597656-12.894531-16.128906-18.71875-28.078125-24.71875-59.308594-16.894531-87.933594 7.46875-27.296875 27.085937-49.792968 55.261718-63.34375l22.960938-11.058594v25.457032c0 .417968.558594 46.960937 28.449219 88.144531l2.671875 3.9375 1.136718 66.976563zm0 0"/><path d="m340.496094 274.785156-68.59375-5.472656.433594-67.617188 2.609374-3.96875c27.054688-41.085937 27.613282-86.78125 27.613282-87.230468l.128906-25.34375 22.832031 10.992187c28.144531 13.582031 47.746094 36.113281 55.214844 63.441407 7.808594 28.621093 1.824219 59.804687-16.863281 87.839843-3.917969 5.789063-9.824219 12.863281-18.109375 21.726563zm0 0"/><path d="m194.320312 408.320312-85.535156-8.734374c-63.554687-11.472657-108.785156-65.664063-108.785156-129.042969v-21.664063l158.414062 48.832032zm0 0"/></g><path d="m317.679688 408.320312 35.886718-110.625 158.433594-48.832031v21.664063c0 63.375-45.230469 117.570312-107.550781 128.863281zm0 0" fill="#9ccc65"/><path d="m256 321.167969-72.59375-43.265625.800781-9.933594c.226563-2.640625.769531-5.074219 1.425781-7.664062 11.070313-41.007813 29.824219-77.519532 55.917969-109.34375l14.449219-17.824219 14.496094 17.886719c26.046875 31.761718 44.800781 68.273437 55.664062 108.449218l.0625.269532s1.34375 5.585937 1.570313 8.226562l.800781 9.933594zm0 0" fill="#43a047"/><path d="m308.816406 264.175781.015625.03125 1.886719-.542969zm0 0" fill="#0074ff"/><path d="m213.710938 423.902344c-8.253907 0-16.542969-1.375-24.621094-4.191406-21.90625-7.613282-38.65625-24.574219-45.921875-46.527344-13.425781-40.511719-17.984375-82.558594-13.566407-124.976563l2.335938-22.847656 21.949219 6.863281c40.722656 12.738282 77.539062 33.601563 109.410156 61.984375 17.261719 15.359375 26.191406 37.457031 24.496094 60.59375-1.695313 23.296875-13.855469 44-33.328125 56.800781-12.351563 8.125-26.464844 12.300782-40.753906 12.300782zm0 0" fill="#9ccc65"/><path d="m192.289062 357.136719c1.855469 25.296875 12.382813 48.449219 29.550782 66.160156 11.457031-1.28125 22.625-5.121094 32.625-11.695313 19.472656-12.816406 31.632812-33.523437 33.328125-56.800781 1.679687-23.136719-7.234375-45.234375-24.496094-60.59375-10.65625-9.488281-22.050781-17.808593-33.761719-25.597656-.6875.589844-1.421875 1.085937-2.109375 1.679687-24.753906 22.046876-37.554687 53.695313-35.136719 86.847657zm0 0" fill="#7cb342"/><path d="m298.289062 423.902344c-14.289062 0-28.386718-4.160156-40.753906-12.285156-19.472656-12.816407-31.632812-33.519532-33.328125-56.800782-1.679687-23.136718 7.234375-45.230468 24.496094-60.59375 31.871094-28.382812 68.6875-49.246094 109.394531-61.984375l21.964844-6.863281 2.335938 22.847656c4.417968 42.402344-.140626 84.449219-13.566407 124.976563-7.265625 21.953125-24.015625 38.914062-45.921875 46.527343-8.078125 2.785157-16.382812 4.175782-24.621094 4.175782zm0 0" fill="#66bb6a"/><path d="m320 142.542969h32v32h-32zm0 0" fill="#fff"/><path d="m240 62.542969h32v32h-32zm0 0" fill="#fff"/><path d="m320 302.542969h32v32h-32zm0 0" fill="#fff"/></svg>