<svg height="510.07129pt" viewBox="0 0 510.07129 510.07129" width="510.07129pt" xmlns="http://www.w3.org/2000/svg"><path d="m310.203125 510.070312c-171.050781 0-310.203125-139.152343-310.203125-310.21875 0-67.011718 20.117188-133.621093 32.117188-167.367187 6.902343-19.429687 25.488281-32.484375 46.242187-32.484375 27.113281 0 49.160156 22.0625 49.160156 49.15625v30.542969c0 162.917969 75.378907 250.207031 230.421875 266.878906 24.484375 2.628906 45.957032 15.84375 59.136719 35.976563h92.992187v95.636718h-99.046874c-10.96875 12.960938-25.570313 21.917969-41.875 25.566406-19.03125 4.242188-38.320313 6.3125-58.945313 6.3125zm0 0" fill="#f7eab7"/><path d="m211.773438 332.40625c-3.617188-11.859375-5.339844-26.714844-5.53125-43.402344-32.660157-27.640625-55.023438-64.921875-67.28125-112.042968-13.339844 17.265624-22.441407 38.082031-25.421876 61.019531-2.664062 21.375-3.570312 41.347656-2.933593 60.027343-7.507813-.683593-14.949219-1.449218-22.921875-1.542968-23.476563 0-45.890625 6.707031-65.050782 19.15625 12.164063 30.09375 28.773438 57.925781 49.238282 82.488281 5.421875-4.828125 11.605468-5.992187 15.605468-5.992187 19.65625.238281 36.40625 3.171874 50.097657 8.75l17.488281 9.324218c74.152344 44.617188 161.945312 68 211.550781 68h31.878907v-95.636718h-31.878907c-33.695312 0-100.371093-19.144532-154.839843-50.148438zm0 0" fill="#f4db8e"/><path d="m310.1875 510.070312c-108.167969 0-206.691406-54.910156-263.53125-146.898437-3.15625-5.054687-3.859375-11.269531-1.914062-16.992187 1.929687-5.675782 6.21875-10.152344 11.78125-12.273438 9.832031-3.683594 20.195312-5.546875 30.828124-5.546875 22.296876.253906 42.015626 3.027344 59.597657 8.289063-4.128907-19.382813-5.597657-41.507813-4.351563-65.785157.414063-8.320312 5.816406-15.347656 13.769532-17.851562 8.050781-2.535157 16.609374.128906 21.839843 6.804687 37.9375 48.839844 98.410157 78.042969 179.765625 86.824219 24.390625 2.519531 45.875 15.734375 59.136719 35.929687h92.960937v95.636719h-99.046874c-10.984376 12.992188-25.585938 21.980469-41.90625 25.601563-19.175782 4.207031-38.449219 6.261718-58.929688 6.261718zm0 0" fill="#fdd835"/><path d="m73.753906 346.386719c0 .015625 0 .015625.015625.03125 0-.015625-.015625-.03125-.015625-.03125zm0 0" fill="#0074ff"/><path d="m159.140625 372.574219c-16.019531-32.308594-20.71875-76.269531-13.960937-130.65625 6.121093-47.085938 46.480468-82.519531 93.917968-82.519531h15.9375v15.9375c0 .175781.207032 21.757812 8.972656 46.480468 11.703126 32.5 32.136719 54.800782 60.714844 66.230469 0 0-76-14.585937-90.726562-55.503906-5.355469-15.125-8.066406-29.167969-9.4375-39.542969-24.851563 5.929688-44.34375 26.730469-47.753906 52.933594-5.867188 47.308594-2.105469 86.234375 10.902343 112.488281zm0 0" fill="#fbc02d"/><path d="m84.480469 505.511719-56.921875-55.773438c-20.753906-20.320312-28.148438-51.914062-15.398438-78.007812.765625-1.5625 1.5625-2.996094 2.410156-4.257813 17.085938-25.484375 44.566407-39.320312 73.71875-39.113281 38.082032.476563 70.660157 8.144531 95.542969 24.785156 128.90625 86.136719 185.363281 75.730469 185.363281 75.730469-45.046874 0-81.261718 26.9375-202.257812-48.710938-20.417969-12.769531-46.925781-19.527343-79.046875-19.925781-14.839844 0-28.769531 5.46875-39.355469 15.921875l-.269531.273438c-13.644531 13.5625-13.566406 35.671875.191406 49.140625l35.59375 34.875c12.542969 12.324219 12.75 32.488281.429688 45.0625zm0 0" fill="#fbc02d"/><g fill="#fff"><path d="m63.757812 79.699219h31.878907v31.878906h-31.878907zm0 0"/><path d="m63.757812 143.457031h31.878907v31.878907h-31.878907zm0 0"/></g></svg>