<svg height="511pt" viewBox="0 -1 511.98326 511" width="511pt" xmlns="http://www.w3.org/2000/svg"><path d="m262.496094 411.59375c-65.425782-12.542969-122.320313-42.621094-169.105469-89.40625-45.550781-45.550781-75.921875-100.863281-90.257813-164.398438-8.558593-37.921874.609376-77.25 25.105469-107.90625 25.105469-31.390624 62.511719-49.390624 102.640625-49.390624 54.207032 0 102.175782 33.28125 122.207032 84.765624 8 20.59375 17.808593 36.769532 29.121093 48.097657 11.808594 11.808593 29.503907 22.480469 52.589844 31.746093 51.34375 20.589844 83.90625 71.4375 80.992187 126.542969-1.964843 37.246094-19.917968 71.792969-49.277343 94.78125-22.914063 17.953125-51.007813 27.488281-79.664063 27.488281-8.097656 0-16.257812-.75-24.351562-2.320312zm0 0" fill="#9b7a5a"/><path d="m334.816406 165.101562c-23.089844-9.265624-40.785156-19.9375-52.59375-31.746093-5.742187-5.742188-11.070312-12.75-16-20.929688-15.777344 15.90625-28.574218 35.1875-37.152344 57.25-6.289062 16.191407-13.871093 29.007813-21.917968 37.054688-6 6-18.144532 15.152343-41.890625 24.671875-37.535157 15.058594-66.925781 43.136718-84.175781 77.601562 4.015624 4.449219 8.03125 8.894532 12.304687 13.183594 46.785156 46.785156 103.679687 76.878906 169.105469 89.40625 8.09375 1.554688 16.253906 2.320312 24.351562 2.320312 28.671875 0 56.75-9.535156 79.664063-27.488281 29.359375-22.988281 47.328125-57.550781 49.277343-94.78125 2.914063-55.105469-29.628906-105.953125-80.972656-126.542969zm0 0" fill="#89674c"/><path d="m169.40625 122.699219 29.648438-12.0625c3.917968 9.632812 8.273437 18.734375 12.929687 27.039062l-27.90625 15.664063c-5.328125-9.488282-10.253906-19.792969-14.671875-30.640625zm0 0" fill="#89674c"/><path d="m225.117188 509.914062c-28.671876 0-56.75-9.535156-79.664063-27.488281-29.359375-22.988281-47.328125-57.550781-49.277344-94.78125-2.914062-55.105469 29.648438-105.953125 80.992188-126.542969 23.085937-9.265624 40.78125-19.9375 52.589843-31.746093 11.328126-11.328125 21.121094-27.503907 29.121094-48.097657 20.046875-51.484374 68.015625-84.765624 122.222656-84.765624 40.128907 0 77.535157 18 102.640626 49.390624 24.511718 30.65625 33.664062 69.984376 25.105468 107.90625-14.335937 63.535157-44.707031 118.863282-90.257812 164.398438-46.785156 46.785156-103.679688 76.878906-169.101563 89.40625-8.097656 1.570312-16.257812 2.320312-24.371093 2.320312zm0 0" fill="#fdd835"/><path d="m211.277344 346.109375-11.902344-29.699219c30.609375-12.269531 55.007812-27.375 72.542969-44.910156 4.066406-4.0625 8.03125-8.542969 11.792969-13.296875l25.105468 19.839844c-4.53125 5.710937-9.328125 11.136719-14.273437 16.082031-20.609375 20.605469-48.625 38.078125-83.265625 51.984375zm116.640625-96.769531-27.902344-15.664063c4.65625-8.320312 9.007813-17.40625 12.925781-27.039062l29.648438 12.0625c-4.429688 10.847656-9.359375 21.152343-14.671875 30.640625zm0 0" fill="#fbc02d"/><path d="m508.847656 221.789062c-14.335937 63.535157-44.707031 118.863282-90.257812 164.398438-46.785156 46.785156-103.679688 76.878906-169.101563 89.40625-8.097656 1.554688-16.257812 2.320312-24.355469 2.320312-28.671874 0-56.75-9.535156-79.664062-27.488281-26.910156-21.070312-44.078125-51.902343-48.300781-85.582031-.945313 7.488281-1.394531 15.070312-.976563 22.800781 1.96875 37.246094 19.917969 71.792969 49.277344 94.78125 22.914062 17.953125 51.011719 27.488281 79.664062 27.488281 8.097657 0 16.273438-.765624 24.355469-2.320312 65.421875-12.542969 122.316407-42.621094 169.101563-89.40625 45.550781-45.550781 75.921875-100.863281 90.257812-164.398438 3.3125-14.707031 3.902344-29.601562 2.03125-44.144531-.511718 4.046875-1.121094 8.09375-2.03125 12.144531zm0 0" fill="#fbc02d"/><g fill="#fff"><path d="m416 191.210938h32v32h-32zm0 0"/><path d="m48.015625 105.964844h32v32h-32zm0 0"/></g></svg>