<svg height="512pt" viewBox="0 -32 512 512" width="512pt" xmlns="http://www.w3.org/2000/svg"><path d="m303.007812 224h-94.015624c-85.296876 0-164.558594-46-206.878907-120.0625l-2.113281-3.679688v-36.257812h512v36.257812l-2.113281 3.679688c-42.320313 74.0625-121.582031 120.0625-206.878907 120.0625zm0 0" fill="#43a047"/><g fill="#66bb6a"><path d="m192 64c0 35.347656-28.652344 64-64 64s-64-28.652344-64-64 28.652344-64 64-64 64 28.652344 64 64zm0 0"/><path d="m288 64c0 35.347656-28.652344 64-64 64s-64-28.652344-64-64 28.652344-64 64-64 64 28.652344 64 64zm0 0"/><path d="m384 64c0 35.347656-28.652344 64-64 64s-64-28.652344-64-64 28.652344-64 64-64 64 28.652344 64 64zm0 0"/></g><path d="m182.960938 447.96875c-20.847657 0-41.839844-2.738281-62.449219-8.351562l-4.097657-1.121094-25.628906-25.632813 384.65625-384.671875 25.628906 25.632813 1.121094 4.097656c22.433594 82.285156-1.085937 170.878906-61.390625 231.183594l-89.105469 89.101562c-45.214843 45.21875-106.320312 69.761719-168.734374 69.761719zm0 0" fill="#9ccc65"/><path d="m181.296875 386.320312c-16.386719 0-32.785156-6.242187-45.265625-18.703124-24.960938-24.960938-24.960938-65.570313 0-90.511719 24.960938-24.960938 65.554688-24.960938 90.511719 0 12.097656 12.078125 18.753906 28.160156 18.753906 45.246093 0 17.089844-6.65625 33.167969-18.753906 45.265626-12.480469 12.460937-28.863281 18.703124-45.246094 18.703124zm0 0" fill="#d6efb6"/><path d="m154.191406 264.640625c2.242188 21.070313 10.976563 41.582031 27.105469 57.710937 15.648437 15.648438 35.808594 25.199219 57.550781 27.503907 4.082032-8.511719 6.449219-17.792969 6.449219-27.503907 0-17.085937-6.65625-33.167968-18.753906-45.246093-19.566407-19.570313-48.640625-23.570313-72.351563-12.464844zm0 0" fill="#b9e57a"/><path d="m249.167969 318.433594c-16.382813 0-32.785157-6.242188-45.265625-18.707032-24.957032-24.957031-24.957032-65.550781 0-90.511718 24.960937-24.957032 65.554687-24.957032 90.511718 0 12.097657 12.082031 18.753907 28.160156 18.753907 45.25 0 17.101562-6.65625 33.167968-18.753907 45.261718-12.460937 12.464844-28.847656 18.707032-45.246093 18.707032zm0 0" fill="#d6efb6"/><path d="m221.679688 196.960938c2.320312 21.726562 11.855468 41.855468 27.503906 57.503906 15.648437 15.648437 35.808594 25.199218 57.550781 27.503906 4.082031-8.511719 6.449219-17.792969 6.449219-27.503906 0-17.089844-6.65625-33.167969-18.75-45.25-19.679688-19.679688-48.976563-23.582032-72.753906-12.253906zm0 0" fill="#b9e57a"/><path d="m317.054688 250.542969c-16.382813 0-32.78125-6.238281-45.261719-18.703125-24.960938-24.960938-24.960938-65.550782 0-90.511719 24.960937-24.960937 65.550781-24.960937 90.511719 0 24.960937 24.960937 24.960937 65.550781 0 90.511719-12.480469 12.480468-28.863282 18.703125-45.25 18.703125zm0 0" fill="#d6efb6"/><path d="m289.550781 129.070312c2.320313 21.730469 11.855469 41.859376 27.503907 57.503907 15.648437 15.648437 35.777343 25.1875 57.488281 27.503906 11.34375-23.789063 7.425781-53.085937-12.238281-72.75-19.664063-19.664063-48.960938-23.585937-72.753907-12.257813zm0 0" fill="#b9e57a"/><path d="m384.929688 182.671875c-16.386719 0-32.769532-6.238281-45.25-18.71875-24.960938-24.945313-24.960938-65.554687 0-90.511719 24.945312-24.945312 65.550781-24.960937 90.511718 0 24.960938 24.957032 24.960938 65.566406 0 90.511719-12.480468 12.480469-28.863281 18.71875-45.261718 18.71875zm0 0" fill="#d6efb6"/><path d="m384 96h32v32h-32zm0 0" fill="#fff"/><path d="m96 48h32v32h-32zm0 0" fill="#fff"/></svg>