<svg height="512pt" viewBox="-32 0 512 512" width="512pt" xmlns="http://www.w3.org/2000/svg"><path d="m177.375 150.496094-50.398438-113.375c-3.585937-8.082032.046876-17.535156 8.128907-21.121094h.015625c8.078125-3.585938 17.535156.046875 21.117187 8.128906l50.402344 113.375zm0 0" fill="#9ccc65"/><path d="m240 144h-32v-128c0-8.832031 7.167969-16 16-16s16 7.167969 16 16zm0 0" fill="#9ccc65"/><path d="m270.625 150.496094-29.25-13.007813 50.402344-113.375c3.582031-8.066406 13.039062-11.699219 21.101562-8.113281h.015625c8.082031 3.585938 11.714844 13.039062 8.128907 21.121094zm0 0" fill="#9ccc65"/><path d="m259.824219 96-18.449219 41.503906 29.25 13.007813 24.078125-54.160157c-2.253906-.09375-34.878906-.351562-34.878906-.351562zm0 0" fill="#7cb342"/><path d="m208 96h32v48h-32zm0 0" fill="#7cb342"/><path d="m177.375 150.496094 29.25-13.007813-18.449219-41.488281s-32.640625.257812-34.878906.335938zm0 0" fill="#7cb342"/><path d="m224.894531 512h-1.789062c-26.015625 0-47.105469-21.089844-47.105469-47.105469v-.894531c0-8.800781-7.089844-16-15.886719-16-91.554687.0625-165.425781-77.183594-159.808593-169.921875 5.167968-85.292969 79.488281-150.078125 164.941406-150.078125h103.152344c99.808593 0 174.128906 64.785156 179.296874 150.078125 5.632813 92.738281-68.253906 169.984375-159.808593 169.921875-8.796875 0-15.886719 7.199219-15.886719 16v.800781c0 26.078125-21.089844 47.199219-47.105469 47.199219zm0 0" fill="#9b7a5a"/><path d="m176 432c0-8.816406-7.167969-16-16-16-82.816406 0-151.136719-63.265625-159.183594-144-.527344 5.265625-.816406 10.59375-.816406 16 0 88.222656 71.777344 160 160 160 8.832031 0 16 7.183594 16 16zm0 0" fill="#89674c"/><path d="m288 416c-8.832031 0-16 7.183594-16 16v32c0-8.816406 7.167969-16 16-16 88.222656 0 160-71.777344 160-160 0-5.40625-.289062-10.734375-.816406-16-8.046875 80.734375-76.367188 144-159.183594 144zm0 0" fill="#89674c"/><path d="m444.71875 288h3.28125c0-5.40625-.289062-10.734375-.816406-16-.542969 5.425781-1.390625 10.753906-2.464844 16zm0 0" fill="#2d2d30"/><path d="m256 192h32v32h-32zm0 0" fill="#fff"/><path d="m160 352h32v32h-32zm0 0" fill="#fff"/><path d="m171.585938 256h32v32h-32zm0 0" fill="#fff"/><g fill="#89674c"><path d="m224 192v32h-210.558594c4.957032-11.519531 11.199219-22.238281 18.71875-32zm0 0"/><path d="m128 288v32h-124.800781c-2.078125-10.238281-3.199219-20.960938-3.199219-32zm0 0"/><path d="m418.558594 352c-4.957032 11.519531-11.199219 22.238281-18.71875 32h-175.839844v-32zm0 0"/><path d="m448 288h-160v-32h156.800781c2.078125 10.238281 3.199219 20.960938 3.199219 32zm0 0"/></g></svg>