<svg height="512pt" viewBox="-27 0 512 512" width="512pt" xmlns="http://www.w3.org/2000/svg"><path d="m259.246094 162.875-28.183594-16.105469 71.257812-124.707031 125.890626 35.960938-8.929688 31.238281-101.40625-28.980469zm0 0" fill="#dbc9a5"/><path d="m108.179688 95.582031 30.417968-11.40625 24.351563 64.9375-30.417969 11.40625zm0 0" fill="#9b7a5a"/><path d="m245.15625 512h-32.472656c-116.375 0-211.058594-94.683594-211.058594-211.058594v-56.824218l140.710938-105.53125h173.183593l140.710938 105.53125v56.824218c-.015625 116.375-94.683594 211.058594-211.074219 211.058594zm0 0" fill="#9ccc65"/><path d="m316.070312 137.1875h-174.300781l-141.769531 106.277344v9.15625l32.699219 11.789062 196.21875 69.972656 196.222656-69.972656 32.699219-11.789062v-9.15625zm0 0" fill="#f7eab7"/><path d="m17.972656 151.574219-6.445312-14.886719c-12.582032-29.113281 31.691406-93.648438 59.210937-129.511719l5.503907-7.175781 9.011718.910156c44.988282 4.527344 122.332032 16.460938 134.914063 45.570313l6.429687 14.90625zm0 0" fill="#f48fb1"/><path d="m245.15625 479.527344h-32.472656c-116.375 0-211.058594-94.683594-211.058594-211.058594v32.472656c0 116.375 94.683594 211.058594 211.058594 211.058594h32.472656c116.375 0 211.058594-94.683594 211.058594-211.058594v-32.472656c0 116.375-94.667969 211.058594-211.058594 211.058594zm0 0" fill="#7cb342"/><g fill="#fff"><path d="m277.625 171.054688h32.472656v32.472656h-32.472656zm0 0"/><path d="m115.269531 41.171875h32.472657v32.472656h-32.472657zm0 0"/><path d="m342.566406 219.761719h32.472656v32.472656h-32.472656zm0 0"/></g></svg>