<svg height="512pt" viewBox="-32 0 512 512" width="512pt" xmlns="http://www.w3.org/2000/svg"><path d="m224 464c-29.902344 0-57.984375-11.664062-79.054688-32.863281-21.074218-21.199219-31.265624-49.328125-31.105468-79.214844v-165.011719l34.398437-128.636718c9.007813-34.289063 40.175781-58.273438 75.761719-58.273438s66.753906 23.984375 75.792969 58.335938l34.925781 132.640624v160.960938c.144531 29.886719-10.574219 58.015625-31.664062 79.214844-21.070313 21.183594-49.152344 32.847656-79.054688 32.847656zm0 0" fill="#fdd835"/><g fill="#fbc02d"><path d="m208 224h32v32h-32zm0 0"/><path d="m208 32h32v32h-32zm0 0"/><path d="m176 96h32v32h-32zm0 0"/><path d="m240 96h32v32h-32zm0 0"/><path d="m208 160h32v32h-32zm0 0"/><path d="m208 288h32v32h-32zm0 0"/></g><path d="m186.960938 507.808594-10.160157-3.3125c-61.328125-20.03125-104.160156-79.054688-104.160156-143.535156 0-13.28125 1.742187-26.480469 5.199219-39.21875 1.566406-5.726563 2.320312-11.359376 2.320312-17.261719 0-3.984375-.398437-8.128907-1.152344-12l-.527343-2.992188c-4.242188-23.089843-12.640625-45.039062-24.929688-65.136719-12.6875-20.238281-28.574219-37.632812-47.152343-51.550781l-6.398438-4.800781v-40h16c46.992188 0 91.183594 18.320312 124.433594 51.566406 33.328125 33.503906 51.566406 77.632813 51.566406 124.433594 0 45.648438 15.777344 90.320312 44.449219 125.792969l7.390625 9.152343zm0 0" fill="#9ccc65"/><path d="m236.449219 429.792969c-12.625-15.617188-22.578125-33.089844-29.953125-51.570313-.273438.5625-.6875 1.28125-1.199219 2.113282-33.058594 53.664062-117.359375 39.152343-129.695313-22.65625-.816406-4.078126-1.457031-8.207032-1.921874-12.367188-.542969 5.199219-1.023438 10.398438-1.023438 15.648438 0 45.648437 21.550781 88.445312 55.839844 116.71875l-.03125.03125c.144531.113281.289062.210937.429687.320312.671875.542969 1.25 1.183594 1.9375 1.710938.320313.257812.640625.257812.960938.464843 13.375 10.449219 28.445312 18.863281 45.007812 24.273438l10.160157 3.3125 56.894531-68.863281zm0 0" fill="#7cb342"/><path d="m224 512c-16 0-31.886719-2.527344-47.199219-7.503906l-22.800781-7.425782 25.953125-30.253906c12.863281-14.976562 29.230469-34.015625 31.292969-36.625 28.976562-35.871094 44.753906-80.542968 44.753906-126.191406 0-46.800781 18.238281-90.929688 51.375-124.238281l.191406-.195313c33.25-33.246094 77.441406-51.566406 124.433594-51.566406h16v40l-6.398438 4.800781c-18.578124 13.933594-34.464843 31.328125-47.25 51.695313-12.207031 19.953125-20.589843 41.902344-24.863281 65.105468l-.449219 2.589844c-1.824218 9.921875-1.421874 20.082032 1.121094 29.550782 3.441406 12.722656 5.199219 25.921874 5.199219 39.203124 0 64.480469-42.832031 123.503907-104.144531 143.535157-15.328125 4.992187-31.214844 7.519531-47.214844 7.519531zm0 0" fill="#9ccc65"/><path d="m320 224h32v32h-32zm0 0" fill="#fff"/><path d="m304 304h32v32h-32zm0 0" fill="#fff"/><path d="m96 208h32v32h-32zm0 0" fill="#fff"/></svg>