<svg height="511pt" viewBox="-62 0 511 511.968" width="511pt" xmlns="http://www.w3.org/2000/svg"><path d="m346.074219 179.199219-13.535157-10.160157-7.96875 11.96875c-.785156-.734374-1.457031-1.566406-2.257812-2.304687-32.125-29.472656-49.820312-67.597656-49.820312-107.34375v-71.359375h-160v67.550781c0 31.730469-10.816407 62.59375-30.753907 89.394531-1.503906-2.242187-2.894531-4.320312-4.097656-6.035156l-10.910156-15.804687-13.566407 13.582031c-1.328124 1.328125-28.433593 29.214844-28.640624 78.753906-19.792969 35.648438-27.96875 76.878906-22.257813 119.199219 11.535156 85.3125 82.066406 154.320313 167.695313 164.0625 7.359374.847656 14.722656 1.265625 22.050781 1.265625 47.167969 0 92.972656-17.183594 128.253906-48.6875 40.800781-36.402344 64.207031-88.625 64.207031-143.28125 0-7.777344-.621094-15.488281-1.550781-23.136719 18.398437-56.464843-14.078125-100.589843-36.847656-117.664062zm0 0" fill="#e4def9"/><g fill="#cdc7ef"><path d="m128.472656 336c0-13.214844-9.132812-38.976562-16-46.640625-6.863281 7.664063-16 33.425781-16 46.640625-18.207031 0-30.78125-17.902344-24.972656-35.167969 7.421875-22.03125 20.847656-44.832031 40.972656-44.832031 20.128906 0 33.554688 22.800781 40.976563 44.832031 5.808593 17.265625-6.765625 35.167969-24.976563 35.167969zm0 0"/><path d="m192.472656 448c0-13.214844-9.132812-38.976562-16-46.640625-6.863281 7.664063-16 33.425781-16 46.640625-18.207031 0-30.78125-17.902344-24.972656-35.167969 7.421875-22.03125 20.847656-44.832031 40.972656-44.832031 20.128906 0 33.554688 22.800781 40.976563 44.832031 5.808593 17.265625-6.765625 35.167969-24.976563 35.167969zm0 0"/><path d="m288.472656 384c0-13.214844-9.132812-38.976562-16-46.640625-6.863281 7.664063-16 33.425781-16 46.640625-18.207031 0-30.78125-17.902344-24.972656-35.167969 7.421875-22.03125 20.847656-44.832031 40.972656-44.832031 20.128906 0 33.554688 22.800781 40.976563 44.832031 5.808593 17.265625-6.765625 35.167969-24.976563 35.167969zm0 0"/><path d="m240.472656 240c0-13.214844-9.132812-38.976562-16-46.640625-6.863281 7.664063-16 33.425781-16 46.640625-18.207031 0-30.78125-17.902344-24.972656-35.167969 7.421875-22.03125 20.847656-44.832031 40.972656-44.832031 20.128906 0 33.554688 22.800781 40.976563 44.832031 5.808593 17.265625-6.765625 35.167969-24.976563 35.167969zm0 0"/><path d="m176.472656 64h32v64h-32zm0 0"/><path d="m176.472656 0h32v32h-32zm0 0"/><path d="m112.472656 0h32v32h-32zm0 0"/><path d="m240.472656 0h32v32h-32zm0 0"/><path d="m320.28125 431.28125c-35.277344 31.503906-81.070312 48.6875-128.253906 48.6875-7.328125 0-14.6875-.417969-22.050782-1.265625-85.644531-9.742187-156.175781-78.75-167.695312-164.0625-.542969-4.082031-.621094-8.128906-.925781-12.191406-1.2968752 14.480469-1.089844 29.261719.925781 44.191406 11.535156 85.3125 82.066406 154.320313 167.695312 164.0625 7.363282.847656 14.722657 1.265625 22.050782 1.265625 47.167968 0 92.976562-17.183594 128.253906-48.6875 40.800781-36.402344 64.210938-88.625 64.210938-143.28125 0-5.390625-.402344-10.753906-.851563-16.097656-4.078125 48.769531-26.558594 94.53125-63.359375 127.378906zm0 0"/></g><path d="m304.472656 240h32v32h-32zm0 0" fill="#fff"/></svg>