<svg height="512pt" viewBox="0 0 512 511" width="512pt" xmlns="http://www.w3.org/2000/svg"><path d="m446.953125 112.238281h-31.925781v-15.960937c0-35.214844-28.636719-63.851563-63.851563-63.851563v-31.925781c52.820313 0 95.777344 42.957031 95.777344 95.777344zm0 0" fill="#66bb6a"/><path d="m337.59375 182.886719.015625 14.6875c-1.917969 33.394531-42.796875 58.34375-78.058594 58.34375h-131.851562c-70.410157 0-127.699219 57.289062-127.699219 127.699219 0 70.410156 57.289062 127.703124 127.699219 127.703124h87.683593c162.898438-.015624 295.421876-132.539062 295.421876-295.4375v-32.996093zm0 0" fill="#9575cd"/><path d="m510.804688 182.886719h-173.210938l.015625 14.6875c-.703125 12.257812-6.6875 23.386719-15.707031 32.546875l65.140625 57.960937 35.917969-31.941406 35.914062 31.910156 44.730469-39.730469c-29.46875 132.042969-147.449219 231.089844-288.253907 231.089844h-87.652343c-65 0-118.695313-48.847656-126.597657-111.738281-.65625 5.21875-1.101562 10.519531-1.101562 15.929687 0 70.410157 57.289062 127.703126 127.699219 127.703126h87.683593c153.65625 0 280.046876-117.980469 293.933594-268.0625l.113282-.09375c.046874-.496094.03125-1.007813.082031-1.5.140625-1.582032.445312-3.113282.558593-4.695313.125-1.769531.09375-3.367187-.097656-4.453125.335938-5.523438.832032-10.996094.832032-16.617188zm0 0" fill="#7e57c2"/><path d="m446.953125 112.238281v-15.960937c0-10.648438-1.820313-20.882813-5.042969-30.457032-5.796875-.878906-11.671875-1.46875-17.703125-1.46875-5.890625 0-11.636719.574219-17.289062 1.402344 4.996093 9.117188 8.109375 19.410156 8.109375 30.523438v15.960937zm0 0" fill="#43a047"/><path d="m386.550781 246.371094-50.140625-44.613282v-18.710937c0-48.414063 39.382813-87.792969 87.796875-87.792969 48.414063 0 87.792969 39.394532 87.792969 87.792969v16.570313l-52.628906 46.738281-36.425782-32.355469zm0 0" fill="#d4e157"/><g fill="#fff"><path d="m143.664062 287.828125h31.925782v31.921875h-31.925782zm0 0"/><path d="m207.511719 287.828125h31.925781v31.921875h-31.925781zm0 0"/><path d="m383.101562 144.164062h31.925782v31.925782h-31.925782zm0 0"/></g></svg>