<svg height="512pt" viewBox="0 0 512 511" width="512pt" xmlns="http://www.w3.org/2000/svg"><path d="m160 159.289062c-38.609375 0-123.9375-49.21875-137.441406-59.074218l-17.679688-12.925782 17.679688-12.914062c13.503906-9.871094 98.832031-59.085938 137.441406-59.085938 44.113281 0 80 32.304688 80 72 0 39.695313-35.886719 72-80 72zm0 0" fill="#7cb342"/><path d="m248 415.289062h-80c-92.640625 0-168-75.359374-168-168 0-92.640624 75.359375-168 168-168h80c92.640625 0 168 75.359376 168 168 0 92.640626-75.359375 168-168 168zm0 0" fill="#ef4b03"/><path d="m352 115.609375s-55.902344 39.550781-74.398438 63.117187l-83.984374 107.058594c-59.121094 75.359375-182.351563 42.832032-192.59375-52.402344-.078126-.6875-.144532-1.390624-.207032-2.078124-.511718 5.261718-.816406 10.589843-.816406 15.984374 0 69.40625 42.320312 129.070313 102.480469 154.65625l-.015625.015626c.09375.03125.191406.0625.269531.09375.226563.097656.449219.226562.671875.320312 0 0 .066406-.03125.082031-.03125 19.871094 8.304688 41.648438 12.945312 64.511719 12.945312h74.511719c91.96875 0 172.992187-75.121093 173.488281-167.089843.289062-53.726563-24.863281-101.632813-64-132.589844zm0 0" fill="#dd4503"/><path d="m224 143.289062h-32v-25.601562c0-59.101562 43.535156-108.238281 100.207031-117.007812 9.585938-1.472657 18.191407 6.273437 18.191407 15.96875 0 7.902343-5.804688 14.480468-13.613282 15.710937-41.199218 6.5625-72.785156 42.335937-72.785156 85.34375zm0 0" fill="#9ccc65"/><path d="m243.199219 159.289062h-70.398438c-8.832031 0-16-7.167968-16-16 0-8.832031 7.167969-16 16-16h70.398438c8.832031 0 16 7.167969 16 16 0 8.847657-7.167969 16-16 16zm0 0" fill="#dd4503"/><path d="m496 240.601562h-52.0625v-32h52.0625c8.832031 0 16 7.167969 16 16 0 8.847657-7.167969 16-16 16zm0 0" fill="#9ccc65"/><path d="m432.625 213.289062-22.625-22.625 56.574219-56.574218c6.242187-6.257813 16.386719-6.257813 22.625 0 6.242187 6.238281 6.242187 16.382812 0 22.621094zm0 0" fill="#9ccc65"/><path d="m416 191.289062h-32v-80c0-8.832031 7.167969-16 16-16s16 7.167969 16 16zm0 0" fill="#9ccc65"/><path d="m163.792969 511.320312c-13.296875 0-26.5625-5.105468-36.640625-15.183593-18.65625-18.6875-20.304688-48.320313-3.808594-68.945313l179.441406-228.71875c15.328125-19.550781 38.351563-31.632812 63.167969-33.105468 24.863281-1.535157 49.117187 7.714843 66.671875 25.296874 17.566406 17.566407 26.800781 41.871094 25.3125 66.671876-1.488281 24.816406-13.570312 47.824218-33.121094 63.167968l-228.847656 179.550782c-9.441406 7.554687-20.816406 11.265624-32.175781 11.265624zm0 0" fill="#ffa000"/><path d="m424.816406 288.503906-228.847656 179.550782c-9.441406 7.554687-20.816406 11.265624-32.160156 11.265624-13.296875 0-26.5625-5.105468-36.640625-15.183593-6-6.015625-10.046875-13.214844-12.480469-20.816407-5.984375 18.097657-1.695312 38.609376 12.480469 52.816407 10.078125 10.078125 23.34375 15.183593 36.640625 15.183593 11.34375 0 22.71875-3.710937 32.160156-11.265624l228.847656-179.550782c19.550782-15.34375 31.632813-38.351562 33.121094-63.167968.429688-7.136719-.128906-14.222657-1.425781-21.136719-3.886719 20.578125-15.039063 39.234375-31.695313 52.304687zm0 0" fill="#ff8f00"/><path d="m64 159.289062h32v32h-32zm0 0" fill="#fff"/><path d="m32 223.289062h32v32h-32zm0 0" fill="#fff"/><path d="m368 184.660156 22.628906 22.625-22.628906 22.628906-22.625-22.628906zm0 0" fill="#fff"/><g fill="#ff8f00"><path d="m251.601562 371.6875c-6.226562 6.226562-16.335937 6.226562-22.5625 0l-34.800781-34.800781 19.839844-25.277344 37.523437 37.519531c6.222657 6.238282 6.222657 16.335938 0 22.558594zm0 0"/><path d="m353.441406 292.488281-.082031.078125c-6.238281 6.195313-16.304687 6.179688-22.511719-.03125l-57.085937-57.070312 19.839843-25.441406 59.886719 59.890624c6.238281 6.222657 6.222657 16.351563-.046875 22.574219zm0 0"/><path d="m362.558594 369.527344-25.277344 19.839844-40.402344-40.398438c-6.222656-6.222656-6.222656-16.335938 0-22.558594 6.226563-6.226562 16.335938-6.226562 22.5625 0zm0 0"/><path d="m261.121094 449.046875-25.441406 19.839844-29.359376-29.359375c-6.222656-6.222656-6.222656-16.335938 0-22.558594l.015626-.015625c6.222656-6.226563 16.304687-6.226563 22.542968-.015625zm0 0"/></g></svg>