<svg height="512pt" viewBox="-32 0 512 512" width="512pt" xmlns="http://www.w3.org/2000/svg"><path d="m333.910156 193.964844-132.070312-122.445313 10.902344-11.753906c16.375-17.65625 38.597656-27.855469 62.636718-28.769531 24.277344-.640625 47 7.617187 64.609375 23.957031 36.414063 33.753906 38.5625 90.859375 4.808594 127.257813zm0 0" fill="#d4e157"/><path d="m338.429688 189.074219-1.683594-1.683594v-92.316406c0-17.71875-14.351563-32.070313-32.070313-32.070313h-94.945312l-7.890625 8.515625 132.054687 122.445313zm0 0" fill="#c0ca33"/><path d="m400.890625 447.859375h-64.144531v-32.074219h64.144531c8.851563 0 16.035156-7.183594 16.035156-16.035156v-96.210938c0-8.851562-7.183593-16.039062-16.035156-16.039062h-64.144531v-32.070312h64.144531c26.523437 0 48.105469 21.585937 48.105469 48.109374v96.210938c0 26.523438-21.566406 48.109375-48.105469 48.109375zm0 0" fill="#f4db8e"/><path d="m144.320312 447.859375h-32.070312v-390.050781l-70.09375-28.03125 11.898438-29.777344 90.265624 36.113281zm0 0" fill="#dbc9a5"/><path d="m272.605469 512h-192.425781c-44.210938 0-80.179688-35.96875-80.179688-80.179688v-183.027343l48.105469-48.109375v-105.609375h256.570312v105.609375l48.105469 48.109375v183.027343c0 44.210938-35.964844 80.179688-80.175781 80.179688zm0 0" fill="#f7eab7"/><path d="m48.105469 159.21875h256.570312v32.070312h-256.570312zm0 0" fill="#f4db8e"/><path d="m240.535156 111.109375h32.070313v32.074219h-32.070313zm0 0" fill="#fff"/><path d="m176.390625 111.109375h32.070313v32.074219h-32.070313zm0 0" fill="#fff"/><path d="m144.320312 351.035156v-255.960937h-32.070312v255.960937c3.269531.351563 26.203125 1.585938 32.070312 0zm0 0" fill="#f4db8e"/><path d="m272.605469 512h-192.425781c-44.210938 0-80.179688-35.96875-80.179688-80.179688v-160.355468h16.035156c31.15625 0 47.371094 9.734375 61.6875 18.332031 12.796875 7.679687 22.917969 13.742187 45.175782 13.742187 22.289062 0 32.40625-6.078124 45.203124-13.742187 14.320313-8.582031 30.53125-18.332031 61.71875-18.332031 31.191407 0 47.402344 9.734375 61.722657 18.332031 12.8125 7.679687 22.929687 13.742187 45.203125 13.742187h16.035156v128.28125c0 44.210938-35.964844 80.179688-80.175781 80.179688zm0 0" fill="#f48fb1"/><path d="m256.570312 383.714844h32.070313v32.070312h-32.070313zm0 0" fill="#fff"/><path d="m192.425781 415.785156h32.074219v32.074219h-32.074219zm0 0" fill="#f06292"/><path d="m192.425781 351.644531h32.074219v32.070313h-32.074219zm0 0" fill="#fff"/><path d="m48.105469 351.644531h32.074219v32.070313h-32.074219zm0 0" fill="#fff"/><g fill="#f06292"><path d="m144.320312 300.988281c-5.886718 1.585938-12.699218 2.550781-21.421874 2.550781-3.945313 0-7.394532-.257812-10.648438-.609374v144.929687h32.070312zm0 0"/><path d="m272.605469 479.929688h-192.425781c-44.210938 0-80.179688-35.96875-80.179688-80.179688v32.070312c0 44.210938 35.96875 80.179688 80.179688 80.179688h192.425781c44.210937 0 80.175781-35.96875 80.175781-80.179688v-32.070312c0 44.210938-35.964844 80.179688-80.175781 80.179688zm0 0"/><path d="m254.101562 311.554688h32.070313v32.070312h-32.070313zm0 0"/></g></svg>