<svg height="512pt" viewBox="-94 0 512 512" width="512pt" xmlns="http://www.w3.org/2000/svg"><path d="m154.785156 319.457031-154.785156-287.457031h26.785156c45.054688 0 87.453125 24 110.65625 62.640625l17.34375 28.925781zm0 0" fill="#f7e1d2"/><path d="m122.785156 0h96v352h-96zm0 0" fill="#b9e57a"/><path d="m202.785156 448h-64c-35.296875 0-64 28.703125-64 64h32c0-17.648438 14.351563-32 32-32h16v32h32v-32h16c17.648438 0 32 14.351562 32 32h32c0-35.296875-28.707031-64-64-64zm0 0" fill="#d8b880"/><path d="m153.550781 478.496094c-34.429687-6.015625-63.628906-31.390625-74.144531-64.734375-14.238281-45.234375 5.570312-91.007813 43.378906-112.851563 0-12.796875 11.261719-51.246094 24.703125-92.574218 24.925781-76.640626 96.609375-128.335938 177.183594-128.335938l-105.886719 211.777344v9.132812c29.472656 17.027344 48 48.59375 48 83.089844 0 58.574219-52.738281 105.070312-113.234375 94.496094zm0 0" fill="#f7e1d2"/><path d="m170.785156 448c-47.425781 0-86.800781-34.574219-94.527344-79.824219-.867187 5.183594-1.472656 10.449219-1.472656 15.824219 0 52.945312 43.054688 96 96 96 52.941406 0 96-43.054688 96-96 0-5.375-.59375-10.640625-1.472656-15.824219-7.710938 45.25-47.105469 79.824219-94.527344 79.824219zm0 0" fill="#efd1bd"/><g fill="#fff"><path d="m186.785156 400h32v32h-32zm0 0"/><path d="m156.574219 32h32v32h-32zm0 0"/></g></svg>