<svg height="506pt" viewBox="0 0 506 506.25105" width="506pt" xmlns="http://www.w3.org/2000/svg"><path d="m228.601562 409.085938c-17.964843 0-30.9375-3.09375-39.285156-11.441407-18.664062-18.648437-12.859375-36.121093-9.746094-45.511719 2.527344-7.59375 2.574219-7.757812-1.84375-12.175781-6.453124-6.472656-12.175781-6.097656-23.046874-6.75-12.503907.066407-29.78125 0-46.082032-16.300781-16.300781-16.296875-16.285156-33.527344-16.285156-46.097656 0-11.292969-.277344-16.558594-6.730469-23.03125-6.472656-6.472656-11.933593-6.8125-23.035156-6.730469-12.84375.195313-29.796875.03125-46.097656-16.269531-20.78125-20.78125-18.824219-58.535156-10.054688-86.929688 4.886719-15.863281 5.65625-34.199218 2.296875-54.527344-2.28125-13.742187-.765625-34.359374 19.382813-54.523437 21.238281-21.242187 43.015625-21.890625 57.570312-18.679687 14.867188 3.257812 32.261719 1.773437 53.09375-4.550782 27.1875-8.28125 63.929688-9.535156 85.265625 11.835938 16.300782 16.300781 16.316406 33.53125 16.316406 46.113281 0 11.3125.296876 16.59375 6.78125 23.097656 6.457032 6.4375 11.707032 6.75 22.871094 6.75h.71875c12.535156 0 29.484375.226563 45.542969 16.300781 16.300781 16.300782 16.300781 33.527344 16.300781 46.097657 0 11.296875.277344 16.558593 6.730469 23.03125 4.417969 4.417969 4.566406 4.335937 12.113281 1.808593 9.371094-3.128906 26.828125-8.964843 45.476563 9.683594 16.464843 16.449219 12.46875 51.003906 4.597656 106.050782-3.734375 26.164062-9.992187 69.945312-4.320313 78.699218l-23.375 22.691406c.226563.226563.359376.308594.359376.324219-8.769532-5.703125-52.601563.554688-78.765626 4.273438-27.105468 3.828125-49.257812 6.761719-66.75 6.761719zm0 0" fill="#66bb6a"/><g fill="#43a047"><path d="m500.625 501.347656-.148438.148438c-6.339843 6.339844-16.640624 6.339844-22.980468 0l-420.246094-420.375c-6.339844-6.339844-6.339844-16.644532 0-22.984375 6.339844-6.339844 16.644531-6.339844 22.984375 0l420.375 420.226562c6.371094 6.34375 6.371094 16.644531.015625 22.984375zm0 0"/><path d="m193.277344 79.636719v112.410156h-125.269532c-4.320312 0-8.476562-1.710937-11.523437-4.777344-10.269531-10.269531-3-27.824219 11.523437-27.824219h92.667969v-79.808593c0-14.523438 17.558594-21.792969 27.828125-11.523438 3.0625 3.0625 4.773438 7.203125 4.773438 11.523438zm0 0"/><path d="m258.480469 144.839844v114.039062h-123.640625c-4.320313 0-8.476563-1.710937-11.523438-4.777344-10.269531-10.269531-3-27.824218 11.523438-27.824218h91.054687v-81.4375c0-14.523438 17.558594-21.792969 27.828125-11.523438 3.046875 3.0625 4.757813 7.203125 4.757813 11.523438zm0 0"/><path d="m323.683594 210.203125v113.878906h-123.785156c-4.335938 0-8.496094-1.730469-11.558594-4.808593-10.238282-10.289063-2.949219-27.792969 11.558594-27.792969h91.183593v-81.277344c0-14.523437 17.554688-21.792969 27.824219-11.523437 3.066406 3.066406 4.777344 7.207031 4.777344 11.523437zm0 0"/></g><path d="m111.777344 30.671875h32.597656v32.601563h-32.597656zm0 0" fill="#fff"/><path d="m339.984375 226.277344h32.601563v32.601562h-32.601563zm0 0" fill="#fff"/></svg>