<svg height="513.13853pt" viewBox="0 0 513.13853 513.13853" width="513.13853pt" xmlns="http://www.w3.org/2000/svg"><path d="m96.214844 0h32.070312v80.179688h-32.070312zm0 0" fill="#263238"/><path d="m32.070312 64.140625h160.355469v96.214844h-160.355469zm0 0" fill="#37474f"/><path d="m432.960938 513.136719h-160.355469c-44.210938 0-80.179688-35.964844-80.179688-80.175781v-199.066407l80.179688-80.175781v-153.71875h160.355469v153.71875l80.175781 80.175781v199.066407c0 44.210937-35.964844 80.175781-80.175781 80.175781zm0 0" fill="#ffa000"/><path d="m432.960938 481.066406h-160.355469c-5.996094 0-16.035157-11.207031-16.035157-16.035156v-288.640625c0-2.066406-.449218-4.007813-.609374-6.027344l-63.535157 63.53125v199.066407c0 33.289062 20.558594 61.59375 49.519531 73.683593-.015624.0625-.128906.335938-.113281.335938 9.476563 3.976562 19.867188 6.15625 30.773438 6.15625h160.355469c44.210937 0 80.175781-35.964844 80.175781-80.175781v-32.070313c0 44.207031-35.964844 80.175781-80.175781 80.175781zm0 0" fill="#ff8f00"/><path d="m192.425781 256.570312h320.710938v192.425782h-320.710938zm0 0" fill="#fdd835"/><path d="m272.605469 0h160.355469v96.214844h-160.355469zm0 0" fill="#37474f"/><path d="m256.570312 448.996094v-192.425782h-64.144531v176.390626c0 5.515624.753907 10.839843 1.828125 16.035156zm0 0" fill="#fbc02d"/><path d="m192.425781 97.832031c-5.179687-1.058593-10.550781-1.617187-16.035156-1.617187h-128.285156c-5.484375 0-10.855469.558594-16.035157 1.617187v62.523438h160.355469zm0 0" fill="#263238"/><path d="m176.390625 513.136719h-128.285156c-26.523438 0-48.105469-21.582031-48.105469-48.105469v-288.640625c0-26.523437 21.582031-48.105469 48.105469-48.105469h128.285156c26.523437 0 48.109375 21.582032 48.109375 48.105469v288.640625c0 26.523438-21.585938 48.105469-48.109375 48.105469zm0 0" fill="#ff6839"/><g fill="#fff"><path d="m96.214844 240.535156h32.070312v32.070313h-32.070312zm0 0"/><path d="m96.214844 304.675781h32.070312v32.070313h-32.070312zm0 0"/><path d="m96.214844 368.816406h32.070312v32.074219h-32.070312zm0 0"/></g><path d="m176.390625 481.066406h-128.285156c-26.523438 0-48.105469-21.582031-48.105469-48.105468v32.070312c0 26.523438 21.582031 48.105469 48.105469 48.105469h128.285156c26.523437 0 48.109375-21.582031 48.109375-48.105469v-32.070312c0 26.523437-21.585938 48.105468-48.109375 48.105468zm0 0" fill="#ff5629"/><path d="m368.816406 32.070312h32.074219v32.070313h-32.074219zm0 0" fill="#fff"/><path d="m368.816406 128.285156h32.074219v32.070313h-32.074219zm0 0" fill="#fff"/></svg>