<svg height="512pt" viewBox="-48 0 512 512" width="512pt" xmlns="http://www.w3.org/2000/svg"><path d="m416 304c0 114.875-93.125 208-208 208s-208-93.125-208-208 93.125-208 208-208 208 93.125 208 208zm0 0" fill="#9575cd"/><path d="m384 193.664062c-36.847656-58.542968-101.871094-97.664062-176-97.664062s-139.152344 39.121094-176 97.664062v30.335938h80c18.929688 0 36.753906-4.769531 52.398438-13.089844 12.5625 8.210938 27.503906 13.089844 43.601562 13.089844s31.039062-4.878906 43.601562-13.089844c15.644532 8.320313 33.46875 13.089844 52.398438 13.089844h80zm0 0" fill="#7e57c2"/><path d="m192 0h32v112h-32zm0 0" fill="#66bb6a"/><path d="m112 192h-48v-16c0-44.113281 35.886719-80 80-80h48v16c0 44.113281-35.886719 80-80 80zm0 0" fill="#263238"/><path d="m352 192h-48c-44.113281 0-80-35.886719-80-80v-16h48c44.113281 0 80 35.886719 80 80zm0 0" fill="#263238"/><path d="m208 192c-26.464844 0-48-21.535156-48-48v-48h96v48c0 26.464844-21.535156 48-48 48zm0 0" fill="#37474f"/><path d="m208 480c-109.28125 0-198.960938-84.785156-207.183594-192-.417968 5.296875-.816406 10.59375-.816406 16 0 114.6875 93.3125 208 208 208s208-93.3125 208-208c0-5.40625-.398438-10.703125-.816406-16-8.222656 107.214844-97.902344 192-207.183594 192zm0 0" fill="#7e57c2"/><g fill="#fff"><path d="m336 272h32v32h-32zm0 0"/><path d="m320 352h32v32h-32zm0 0"/><path d="m64 272h32v32h-32zm0 0"/></g></svg>