<svg height="521pt" viewBox="0 0 521.63362 521" width="521pt" xmlns="http://www.w3.org/2000/svg"><path d="m423.832031 358.929688c-47.484375 0-88.367187-35.925782-96.386719-81.503907h-133.257812c-8.019531 45.578125-48.902344 81.503907-96.382812 81.503907-53.921876 0-97.804688-43.867188-97.804688-97.804688.015625-143.804688 117.023438-260.808594 260.824219-260.808594 143.804687 0 260.808593 117.003906 260.808593 260.808594 0 53.9375-43.863281 97.804688-97.800781 97.804688zm0 0" fill="#dbc9a5"/><g fill="#d8b880"><path d="m146.722656 81.820312h32.597656v32.601563h-32.597656zm0 0"/><path d="m97.820312 130.722656h32.601563v32.597656h-32.601563zm0 0"/><path d="m211.921875 49.21875h32.601563v32.601562h-32.601563zm0 0"/><path d="m277.125 49.21875h32.601562v32.601562h-32.601562zm0 0"/><path d="m342.328125 81.820312h32.601563v32.601563h-32.601563zm0 0"/><path d="m391.230469 130.722656h32.601562v32.597656h-32.601562zm0 0"/><path d="m300.453125 521.933594h-79.253906c-23.488281 0-45.855469-10.136719-61.324219-27.824219-15.46875-17.671875-22.558594-41.175781-19.460938-64.46875l22.609376-169.589844v-7.074219c0-53.941406 43.863281-97.804687 97.800781-97.804687s97.804687 43.863281 97.804687 97.804687v7.074219l22.609375 169.605469c3.097657 23.292969-3.996093 46.78125-19.464843 64.46875-15.46875 17.671875-37.816407 27.808594-61.320313 27.808594zm0 0"/></g><path d="m415.582031 358.585938c-52.75-4.351563-94.460937-54.882813-89.050781-107.519532.066406-.601562.132812-1.222656.214844-1.824218 3.632812-30.074219 27.511718-49.796876 58.484375-47.957032 27.289062 1.648438 54.902343 21.8125 54.902343 57.132813v2.707031h-32.601562v-2.707031c0-18.269531-15.257812-24.058594-24.257812-24.597657-3.648438-.324218-21.777344-.308593-24.15625 19.367188-.050782.441406-.097657.863281-.148438 1.304688-3.550781 35.160156 24.746094 69.082031 59.988281 71.65625 29.355469 2.152343 55.046875-15.273438 65.316407-40.539063 6.097656-15.03125 21.140624-24.484375 37.359374-24.484375 0 56.660156-48.429687 102.222656-106.050781 97.460938zm0 0" fill="#9b7a5a"/><path d="m99.808594 358.914062c-54.835938 1.089844-99.792969-43.199218-99.792969-97.789062 16.546875 0 31.265625 10.058594 37.703125 25.300781 9.714844 23.015625 32.292969 39.332031 58.683594 39.886719 33.203125.699219 62.855468-25.070312 66.246094-58.097656.519531-5.085938.488281-10.136719-.117188-14.996094-2.378906-19.691406-20.539062-19.707031-24.15625-19.378906-8.996094.519531-24.253906 6.324218-24.253906 24.578125v2.707031h-32.601563v-2.707031c0-35.339844 27.613281-55.5 54.898438-57.148438 30.824219-1.792969 54.851562 17.882813 58.488281 47.988281.75 6.097657.914062 12.4375.472656 18.894532-3.359375 49.648437-45.820312 89.765625-95.570312 90.761718zm0 0" fill="#9b7a5a"/><path d="m456.429688 195.921875h32.601562v32.601563h-32.601562zm0 0" fill="#fff"/><path d="m32.617188 195.921875h32.601562v32.601563h-32.601562zm0 0" fill="#fff"/></svg>