<svg height="507pt" viewBox="-46 0 507 507.31434" width="507pt" xmlns="http://www.w3.org/2000/svg"><path d="m244.84375 475.308594 22.628906-22.628906 31.996094 31.996093-22.628906 22.628907zm0 0" fill="#9b7a5a"/><path d="m116.835938 484.6875 31.996093-31.996094 22.625 22.628906-31.992187 31.992188zm0 0" fill="#9b7a5a"/><path d="m416.148438 272c0 57.121094-22.71875 110.398438-63.839844 150.078125-37.761719 36-86.238282 56.320313-137.921875 57.761719h-3.039063c-.960937.160156-1.917968.160156-3.039062.160156-1.761719 0-3.679688 0-5.441406-.160156-1.117188.160156-2.078126 0-3.199219 0-105.917969-4.320313-193.4375-90.398438-199.199219-196.160156-3.679688-67.039063 25.441406-132 77.761719-173.917969 31.679687-25.28125 49.917969-61.441407 49.917969-99.042969v-10.71875h160v9.441406c0 38.238282 18.398437 74.878906 50.558593 100.796875 49.28125 39.683594 77.441407 98.722657 77.441407 161.761719zm0 0" fill="#e4def9"/><path d="m415.316406 256.910156c-4.03125 50.65625-25.96875 97.441406-62.992187 133.167969-12.320313 11.746094-25.871094 21.632813-40.207031 29.9375 24.191406-32.253906 39.96875-73.902344 40.046874-116.015625.160157-76.160156-33.121093-115.519531-65.28125-153.441406-32.160156-37.917969-62.558593-73.757813-62.558593-149.117188v-1.441406h-32.160157v1.441406c0 75.359375-30.398437 111.199219-62.398437 149.117188-32.160156 37.921875-65.441406 77.28125-65.441406 153.441406.082031 41.839844 15.664062 83.199219 39.679687 115.359375-57.328125-33.710937-97.742187-93.953125-103.054687-163.230469-.71875 9.117188-.9609378 18.304688-.464844 27.550782 5.761719 105.761718 93.28125 191.839843 199.199219 196.160156h14.722656c51.679688-1.441406 100.160156-21.761719 137.917969-57.761719 41.121093-39.679687 63.839843-92.957031 63.839843-150.078125-.015624-5.070312-.496093-10.078125-.847656-15.089844zm-216.769531-91.148437c3.363281-10.402344 6.5625-20.640625 9.761719-31.839844 3.039062 11.199219 6.398437 21.4375 9.601562 31.839844 11.519532 36.160156 22.398438 70.398437 22.398438 138.238281-.160156 77.28125-21.441406 137.601562-31.839844 143.839844-11.359375-7.679688-32.160156-67.519532-32.160156-143.839844-.160156-67.839844 10.71875-102.078125 22.238281-138.238281zm63.839844 5.4375c31.042969 36.640625 57.921875 68.320312 57.761719 132.800781-.160157 53.121094-30.71875 106.878906-68.640626 131.039062 15.039063-39.839843 20.640626-96.960937 20.800782-131.039062 0-72.800781-12.160156-111.039062-23.839844-148-.320312-.800781-.480469-1.601562-.800781-2.398438 4.960937 6.078126 9.921875 11.839844 14.71875 17.597657zm-108.316407 0c4.957032-5.757813 9.917969-11.679688 14.878907-17.917969-.160157.957031-.480469 1.757812-.800781 2.71875-11.839844 36.960938-24 75.199219-23.839844 148 0 33.921875 5.601562 90.878906 20.480468 130.71875-38.082031-24.160156-68.320312-77.757812-68.480468-130.71875 0-64.480469 26.71875-96.160156 57.761718-132.800781zm0 0" fill="#cdc7ef"/><g fill="#fff"><path d="m96.148438 128h32v32h-32zm0 0"/><path d="m304.148438 160h32v32h-32zm0 0"/><path d="m352.148438 224h32v32h-32zm0 0"/></g></svg>