<svg height="510.07129pt" viewBox="0 0 510.07129 510.07129" width="510.07129pt" xmlns="http://www.w3.org/2000/svg"><path d="m510.070312 255.035156c0 140.851563-114.183593 255.035156-255.035156 255.035156-140.851562 0-255.035156-114.183593-255.035156-255.035156 0-140.851562 114.183594-255.035156 255.035156-255.035156 140.851563 0 255.035156 114.183594 255.035156 255.035156zm0 0" fill="#ffa000"/><path d="m446.3125 255.035156c0 105.640625-85.636719 191.277344-191.277344 191.277344s-191.277344-85.636719-191.277344-191.277344 85.636719-191.277344 191.277344-191.277344 191.277344 85.636719 191.277344 191.277344zm0 0" fill="#fdd835"/><path d="m446.3125 255.035156c0-5.417968-.160156-10.679687-.636719-15.9375h-152.066406l107.433594-107.433594c-6.851563-8.132812-14.503907-15.78125-22.632813-22.636718l-107.433594 107.433594v-152.0625c-5.261718-.480469-10.519531-.640626-15.941406-.640626-5.417968 0-10.679687.160157-15.9375.640626v152.0625l-107.433594-107.433594c-8.132812 6.855468-15.78125 14.503906-22.636718 22.636718l107.433594 107.433594h-152.0625c-.480469 5.257813-.640626 10.519532-.640626 15.9375 0 5.421875.160157 10.679688.640626 15.941406h152.0625l-107.433594 107.433594c6.855468 8.128906 14.503906 15.78125 22.636718 22.632813l107.433594-107.433594v152.066406c5.257813.476563 10.519532.636719 15.9375.636719 5.421875 0 10.679688-.160156 15.941406-.636719v-152.066406l107.433594 107.433594c8.128906-6.851563 15.78125-14.503907 22.632813-22.632813l-107.433594-107.433594h152.066406c.476563-5.261718.636719-10.519531.636719-15.941406zm0 0" fill="#fbc02d"/><path d="m505.609375 301.59375c-.304687-.589844-.589844-1.195312-.894531-1.785156-19-37.664063-40.167969-71.34375-50.195313-86.773438l-40.085937-61.671875-40.074219 61.65625c-20.511719 31.511719-87.445313 139.152344-87.445313 201.414063 0 26.96875 6.839844 50.957031 19.03125 70.691406 3.683594 5.960938 7.84375 11.523438 12.464844 16.65625 95.257813-24.496094 169.089844-102.554688 187.199219-200.1875zm0 0" fill="#ff8f00"/><path d="m446.3125 255.035156c0-5.417968-.160156-10.679687-.636719-15.9375-2.074219-25.234375-9.101562-49.046875-20.070312-70.535156l-11.171875-17.199219-40.074219 61.65625c-20.511719 31.511719-87.445313 139.152344-87.445313 201.414063 0 9.992187 1.039063 19.527344 2.839844 28.644531 33.390625-6.136719 63.757813-20.914063 88.65625-42.035156 8.128906-6.851563 15.78125-14.503907 22.632813-22.632813 25.027343-29.488281 41.285156-66.628906 44.632812-107.433594.476563-5.261718.636719-10.519531.636719-15.941406zm0 0" fill="#fbc02d"/><path d="m414.433594 510.070312c-57.207032 0-95.640625-38.429687-95.640625-95.636718 0-55.933594 73.867187-171.082032 82.28125-184.023438l13.359375-20.546875 13.355468 20.546875c8.417969 12.941406 82.28125 128.089844 82.28125 184.023438 0 57.207031-38.429687 95.636718-95.636718 95.636718zm0 0" fill="#f7eab7"/><path d="m414.433594 478.191406c-51.167969 0-87.09375-30.875-94.15625-78.3125-.859375 5.132813-1.484375 10.089844-1.484375 14.554688 0 57.207031 38.433593 95.636718 95.640625 95.636718 57.207031 0 95.636718-38.429687 95.636718-95.636718 0-4.464844-.621093-9.421875-1.480468-14.554688-7.0625 47.4375-42.992188 78.3125-94.15625 78.3125zm0 0" fill="#f4db8e"/><g fill="#fff"><path d="m430.371094 334.734375h31.882812v31.878906h-31.882812zm0 0"/><path d="m446.3125 398.492188h31.878906v31.878906h-31.878906zm0 0"/></g></svg>