<svg height="510pt" viewBox="-35 0 510 510.10317" width="510pt" xmlns="http://www.w3.org/2000/svg"><path d="m277.925781 175.335938c-57.128906 0-103.609375-35.75-103.609375-79.699219 0-43.945313 46.480469-79.695313 103.609375-79.695313 52.121094 0 135.566407 59.996094 144.90625 66.832032l17.566407 12.863281-17.566407 12.863281c-9.339843 6.839844-92.785156 66.835938-144.90625 66.835938zm0 0" fill="#9ccc65"/><path d="m174.316406 95.636719c0 43.949219 46.480469 79.699219 103.609375 79.699219 13.070313 0 28.117188-3.777344 43.464844-9.546876-2.324219-6.535156-4.574219-13.132812-6.675781-19.8125-17.996094-57.015624-65.722656-95.765624-119.675782-97.949218-12.945312 13.308594-20.722656 29.757812-20.722656 47.609375zm0 0" fill="#7cb342"/><path d="m206.195312 95.636719h-31.878906c0-35.160157-28.597656-63.757813-63.757812-63.757813h-47.820313v-31.878906h47.820313c52.742187 0 95.636718 42.894531 95.636718 95.636719zm0 0" fill="#9b7a5a"/><path d="m257.472656 510.085938c-24.035156 0-47.117187-7.9375-67.21875-23.144532-25.582031 19.367188-56.074218 26.941406-87.09375 21.34375-58.339844-10.472656-100.691406-61.957031-103-125.171875-1.484375-40.25 12.527344-79.285156 38.414063-107.085937 20.496093-22.027344 43.722656-76.382813 57.621093-120.472656 14.328126-45.363282 52.140626-75.855469 94.058594-75.855469 41.921875 0 79.730469 30.492187 94.046875 75.871093 13.898438 44.105469 37.121094 98.445313 57.621094 120.472657 25.167969 27.019531 39.59375 65.832031 39.59375 106.511719 0 70.277343-52.410156 116.453124-104.179687 125.746093-6.648438 1.195313-13.296876 1.785157-19.863282 1.785157zm0 0" fill="#f7e1d2"/><path d="m277.351562 476.421875c-6.664062 1.195313-13.3125 1.785156-19.878906 1.785156-24.035156 0-47.117187-7.9375-67.21875-23.144531-25.582031 19.367188-56.074218 26.9375-87.09375 21.34375-55.007812-9.882812-95.765625-56.203125-102.1875-114.445312-.6875 6.996093-1.085937 14.042968-.8125 21.167968 2.308594 63.214844 44.660156 114.683594 103 125.171875 31.019532 5.597657 61.496094-1.992187 87.09375-21.34375 20.101563 15.207031 43.183594 23.144531 67.21875 23.144531 6.566406 0 13.214844-.589843 19.878906-1.785156 51.769532-9.292968 104.179688-55.46875 104.179688-125.746094 0-5.675781-.351562-11.300781-.90625-16.882812-6.839844 61.785156-55.28125 102.113281-103.273438 110.734375zm0 0" fill="#efd1bd"/><g fill="#fff"><path d="m206.195312 175.335938h31.878907v31.878906h-31.878907zm0 0"/><path d="m254.015625 255.035156h31.878906v31.878906h-31.878906zm0 0"/><path d="m333.714844 79.699219h31.878906v31.878906h-31.878906zm0 0"/></g></svg>