<svg height="503pt" viewBox="-60 0 503 503.98232" width="503pt" xmlns="http://www.w3.org/2000/svg"><path d="m191.769531 503.980469c-22.921875 0-42.144531-16.226563-46.769531-37.773438-84.417969-21.167969-144.507812-97.265625-144.507812-185.382812 0-79.140625 47.578124-149.003907 121.21875-178.011719 7.527343-2.964844 11.320312-11.542969 8.65625-19.527344l-26.667969-80.015625 54.292969 13.59375 33.710937-16.863281 33.761719 16.878906 54.355468-13.578125-26.667968 80c-2.664063 7.984375 1.132812 16.5625 8.65625 19.527344 73.65625 28.992187 121.234375 98.855469 121.234375 177.996094 0 88.117187-60.089844 164.214843-144.507813 185.382812-4.621094 21.566407-23.847656 37.773438-46.765625 37.773438zm0 0" fill="#ef4b03"/><path d="m191.769531 472.101562c-7.476562 0-14.027343-5.289062-15.605469-12.574218l-4.160156-19.414063-19.257812-4.847656c-70.882813-17.757813-120.375-81.277344-120.375-154.441406 0-65.957031 39.65625-124.183594 101.027344-148.347657 23.285156-9.167968 35.242187-35.195312 27.222656-59.28125l-8.304688-24.882812 9.40625 2.34375 29.996094-15.015625 30.046875 15 9.46875-2.34375-8.304687 24.914063c-8.015626 24.085937 3.9375 50.113281 27.226562 59.28125 61.351562 24.148437 101.007812 82.375 101.007812 148.332031 0 73.164062-49.492187 136.683593-120.390624 154.441406l-19.257813 4.847656-4.160156 19.414063c-1.5625 7.285156-8.113281 12.574218-15.585938 12.574218zm0 0" fill="#f7eab7"/><path d="m96.128906 185.1875h31.878906v31.878906h-31.878906zm0 0" fill="#fff"/><g fill="#dd4503"><path d="m255.527344 185.1875h31.878906v31.878906h-31.878906zm0 0"/><path d="m239.585938 248.945312h31.878906v31.878907h-31.878906zm0 0"/><path d="m64.25 248.945312h31.878906v31.878907h-31.878906zm0 0"/></g><path d="m96.128906 312.707031h31.878906v31.878907h-31.878906zm0 0" fill="#fff"/><path d="m112.070312 376.464844h31.878907v31.878906h-31.878907zm0 0" fill="#dd4503"/><path d="m287.40625 312.707031h31.878906v31.878907h-31.878906zm0 0" fill="#dd4503"/><path d="m239.585938 344.585938h31.878906v31.878906h-31.878906zm0 0" fill="#dd4503"/><path d="m191.769531 153.308594c-8.800781 0-15.941406 7.140625-15.941406 15.9375v288.6875l.335937 1.59375c1.578126 7.285156 8.128907 12.574218 15.605469 12.574218 7.472657 0 14.023438-5.289062 15.601563-12.574218l.335937-1.59375v-288.6875c0-8.796875-7.140625-15.9375-15.9375-15.9375zm0 0" fill="#f4db8e"/><path d="m303.347656 248.945312h31.878906v31.878907h-31.878906zm0 0" fill="#fff"/></svg>