<svg height="512pt" viewBox="0 0 512 512" width="512pt" xmlns="http://www.w3.org/2000/svg"><path d="m80 416c-44.113281 0-80-35.886719-80-80v-192c0-44.113281 35.886719-80 80-80s80 35.886719 80 80v192c0 44.113281-35.886719 80-80 80zm0 0" fill="#ff8f00"/><path d="m336 416c-44.113281 0-80-35.886719-80-80v-192c0-44.113281 35.886719-80 80-80s80 35.886719 80 80v192c0 44.113281-35.886719 80-80 80zm0 0" fill="#ff8f00"/><path d="m224 80h-32c0-44.113281 35.886719-80 80-80h16v32h-16c-26.464844 0-48 21.535156-48 48zm0 0" fill="#57565c"/><path d="m208.398438 32.015625c-10.140626 13.410156-16.398438 29.921875-16.398438 47.984375h32c0-18.144531 10.238281-33.777344 25.136719-41.9375-12.929688-3.871094-26.59375-6-40.738281-6.046875zm0 0" fill="#2d2d30"/><path d="m208 416c-61.742188 0-112-50.257812-112-112v-128c0-61.742188 50.257812-112 112-112s112 50.257812 112 112v128c0 61.742188-50.257812 112-112 112zm0 0" fill="#ffa000"/><path d="m304 512c-114.6875 0-208-93.3125-208-208v-48h416v48c0 114.6875-93.3125 208-208 208zm0 0" fill="#fdd835"/><path d="m304 416c-79.40625 0-144-64.59375-144-144v-16h288v16c0 79.40625-64.59375 144-144 144zm0 0" fill="#fbc02d"/><g fill="#f4af16"><path d="m240 320c-8.832031 0-16-7.167969-16-16v-48h32v48c0 8.832031-7.167969 16-16 16zm0 0"/><path d="m304 352c-8.832031 0-16-7.167969-16-16v-80h32v80c0 8.832031-7.167969 16-16 16zm0 0"/><path d="m368 320c-8.832031 0-16-7.167969-16-16v-48h32v48c0 8.832031-7.167969 16-16 16zm0 0"/></g><path d="m32 144h32v32h-32zm0 0" fill="#fff"/><path d="m352 112h32v32h-32zm0 0" fill="#fff"/><path d="m448 288h32v32h-32zm0 0" fill="#fff"/></svg>