<svg height="512pt" viewBox="0 0 512.71544 512" width="512pt" xmlns="http://www.w3.org/2000/svg"><path d="m467.777344 272.359375h-230.242188l27.457032-191.136719c-4.191407-18.671875.59375-38.847656 13.390624-55.890625 11.585938-15.40625 27.519532-24.972656 41.617188-24.972656 18.160156 0 29.808594 9.980469 42.144531 20.542969 1.359375 1.167968 2.765625 2.382812 4.253907 3.632812 24.929687-7.601562 76.160156-17.746094 116.625 29.40625v.015625c41.296874 48.191407 28.640624 123.328125 24.992187 140.753907 1.425781 7.695312 3.984375 22.496093 3.984375 29.648437 0 24.015625-31.265625 41.519531-40.847656 46.316406zm0 0" fill="#9ccc65"/><path d="m477.792969 272.359375h-256.578125l21.425781-132.753906c-8.207031-28.304688.015625-46.558594 5.871094-55.085938 7.710937-11.296875 19.679687-18.402343 31.984375-19.011719 20.207031-1.246093 39.855468 11.984376 55.40625 22.417969 6.175781 4.144531 12.019531 8.0625 15.890625 9.695313 1.933593.753906 10.144531-2.847656 14.558593-4.800782 16.128907-7.152343 43.183594-19.152343 70.558594 8.242188 26.851563 26.847656 15.824219 59.152344 8.546875 80.511719-2.257812 6.589843-6.015625 17.617187-5.074219 20.671875 2.546876 6.207031 7.21875 12.894531 12.160157 19.984375 6.113281 8.75 12.433593 17.808593 16.578125 28.238281zm0 0" fill="#d6efb6"/><path d="m304.816406 251.304688 32.019532-96 30.355468 10.125-32.019531 96zm0 0" fill="#b9e57a"/><path d="m53.265625 287.253906c-16.640625 0-18.128906-2.945312-20.242187-9.230468-2.589844-6.019532-7.152344-12.546876-11.96875-19.457032-9.871094-14.175781-21.054688-30.207031-21.054688-50.207031s11.183594-36.035156 21.054688-50.210937c4.945312-7.085938 9.617187-13.773438 12.160156-19.933594.945312-3.042969-2.816406-14.066406-5.070313-20.65625-7.28125-21.359375-18.304687-53.664063 8.542969-80.511719 27.359375-27.34375 54.402344-15.394531 70.558594-8.242187 4.417968 1.96875 12.691406 5.695312 14.59375 4.785156 1.679687-.703125 3.953125-3.199219 6.558594-6.082032 9.378906-10.367187 23.570312-26.03125 63.921874-26.03125 12.207032 0 27.3125 11.808594 35.136719 27.472657 6.832031 13.664062 14.03125 41.871093-12.5625 79.441406 5.21875 1.933594 13.007813 3.96875 18.769531 5.472656 25.472657 6.65625 57.183594 14.941407 65.214844 42.496094 8.082032 27.710937-9.855468 47.824219-22.941406 62.496094-13.363281 14.972656-18.929688 22.558593-16.097656 32.238281l5.441406 18.65625-19.34375 1.757812s-49.058594 4.433594-98.160156 8.753907c-51.839844 4.558593-79.425782 6.992187-94.511719 6.992187zm0 0" fill="#9ccc65"/><path d="m217.601562 189.15625-19.203124-25.597656-49.246094 36.941406-21.472656-107.277344-31.359376 6.269532 18.464844 92.371093-27.632812-13.824219-14.304688 28.636719 49.886719 24.945313 5.585937 27.871094 31.359376-6.269532-3.582032-17.9375zm0 0" fill="#7cb342"/><path d="m384 512.359375h-256v-53.617187c-78.113281-37.007813-128-115.3125-128-202.382813v-16h512v16c0 87.070313-49.886719 165.375-128 202.382813zm0 0" fill="#f7e1d2"/><path d="m128 458.742188h256v53.617187h-256zm0 0" fill="#efd1bd"/><g fill="#fff"><path d="m384 272.359375h32v32h-32zm0 0"/><path d="m320 272.359375h32v32h-32zm0 0"/><path d="m80 272.359375h32v32h-32zm0 0"/></g></svg>