<svg height="512pt" viewBox="0 0 512 512" width="512pt" xmlns="http://www.w3.org/2000/svg"><path d="m272 112h-32c0-61.761719 50.238281-112 112-112v32c-44.113281 0-80 35.886719-80 80zm0 0" fill="#66bb6a"/><path d="m112 512c-61.761719 0-112-50.238281-112-112v-192c0-61.761719 50.238281-112 112-112s112 50.238281 112 112v192c0 61.761719-50.238281 112-112 112zm0 0" fill="#d4e157"/><path d="m400 512c-61.761719 0-112-50.238281-112-112v-192c0-61.761719 50.238281-112 112-112s112 50.238281 112 112v192c0 61.761719-50.238281 112-112 112zm0 0" fill="#d4e157"/><path d="m368.335938 100.625c-46.367188 13.710938-80.335938 56.621094-80.335938 107.375v192c0 50.753906 33.96875 93.664062 80.335938 107.375 48.160156-34.925781 79.664062-91.472656 79.664062-155.375v-96c0-63.902344-31.503906-120.449219-79.664062-155.375zm0 0" fill="#c0ca33"/><path d="m64 256v96c0 63.902344 31.503906 120.449219 79.664062 155.375 46.367188-13.710938 80.335938-56.621094 80.335938-107.375v-192c0-50.753906-33.96875-93.664062-80.335938-107.375-48.160156 34.925781-79.664062 91.472656-79.664062 155.375zm0 0" fill="#c0ca33"/><path d="m256 512c-88.222656 0-160-71.777344-160-160v-96c0-88.222656 71.777344-160 160-160s160 71.777344 160 160v96c0 88.222656-71.777344 160-160 160zm0 0" fill="#d4e157"/><g fill="#fff"><path d="m352 256h-32c0-35.296875-28.703125-64-64-64v-32c52.945312 0 96 43.054688 96 96zm0 0"/><path d="m320 288h32v32h-32zm0 0"/><path d="m320 352h32v32h-32zm0 0"/><path d="m128 224h32v32h-32zm0 0"/><path d="m128 304h32v32h-32zm0 0"/></g></svg>