<svg height="512pt" viewBox="0 0 512 512" width="512pt" xmlns="http://www.w3.org/2000/svg"><path d="m512 256c0 141.386719-114.613281 256-256 256s-256-114.613281-256-256 114.613281-256 256-256 256 114.613281 256 256zm0 0" fill="#ef4b03"/><path d="m297.695312 255.632812 141.183594-59.9375-6.253906-14.734374c-20.03125-47.136719-57.265625-83.679688-104.847656-102.914063l-14.816406-5.984375-57.425782 142.128906-59.917968-141.167968-14.738282 6.257812c-47.117187 20-83.679687 57.230469-102.925781 104.847656l-6 14.832032 142.125 57.421874-141.167969 59.921876 6.257813 14.71875c20.015625 47.152343 57.246093 83.695312 104.847656 102.929687l14.847656 6 57.410157-142.128906 59.917968 141.183593 14.738282-6.253906c47.148437-20.019531 83.695312-57.25 102.941406-104.851562l5.984375-14.832032zm0 0" fill="#dd4503"/><g fill="#fff"><path d="m256 32h32v32h-32zm0 0"/><path d="m336 128h32v32h-32zm0 0"/></g></svg>