<svg height="512pt" viewBox="-13 0 512 512" width="512pt" xmlns="http://www.w3.org/2000/svg"><path d="m242.992188 512c-93.585938 0-195.519532-52.816406-236.304688-101.742188l-6.6875-8.050781 201.089844-402.207031h83.773437l201.089844 402.207031-6.6875 8.050781c-40.769531 48.925782-142.707031 101.742188-236.273437 101.742188zm0 0" fill="#66bb6a"/><path d="m242.992188 448c-78.863282 0-149.265626-29.742188-209.265626-88.398438l-8.335937-8.160156 175.699219-351.441406h83.773437l175.710938 351.441406-8.335938 8.160156c-59.980469 58.65625-130.398437 88.398438-209.246093 88.398438zm0 0" fill="#ef4b03"/><path d="m242.992188 400c-75.441407 0-143.023438-27.519531-201.28125-81.230469l-16.335938 32.671875 8.335938 8.160156c60 58.65625 130.417968 88.398438 209.28125 88.398438 78.863281 0 149.265624-29.742188 209.265624-88.398438l8.335938-8.160156-16.335938-32.671875c-58.257812 53.710938-125.84375 81.230469-201.265624 81.230469zm0 0" fill="#dd4503"/><g fill="#37474f"><path d="m146.992188 288h32v32h-32zm0 0"/><path d="m178.992188 224h32v32h-32zm0 0"/><path d="m210.992188 320h32v32h-32zm0 0"/><path d="m274.992188 256h32v32h-32zm0 0"/><path d="m274.992188 192h32v32h-32zm0 0"/><path d="m274.992188 320h32v32h-32zm0 0"/><path d="m338.992188 288h32v32h-32zm0 0"/><path d="m194.992188 160h32v32h-32zm0 0"/><path d="m242.992188 96h32v32h-32zm0 0"/><path d="m226.992188 32h32v32h-32zm0 0"/></g><path d="m66.992188 336h32v32h-32zm0 0" fill="#fff"/></svg>