<svg height="510pt" viewBox="-127 0 510 510.07129" width="510pt" xmlns="http://www.w3.org/2000/svg"><path d="m143.492188 47.820312h-31.878907v-31.878906c0-8.800781 7.140625-15.941406 15.941407-15.941406 8.796874 0 15.9375 7.140625 15.9375 15.941406zm0 0" fill="#43a047"/><path d="m255.070312 382.554688h-255.0351558v-223.15625c0-70.3125 57.2070318-127.519532 127.5195318-127.519532 70.308593 0 127.515624 57.207032 127.515624 127.519532zm0 0" fill="#66bb6a"/><path d="m95.675781 35.863281v91.65625h-31.882812v-78.425781c9.882812-5.738281 20.5625-10.199219 31.882812-13.230469zm0 0" fill="#43a047"/><path d="m63.792969 223.15625h31.882812v63.757812h-31.882812zm0 0" fill="#43a047"/><path d="m63.792969 159.398438h31.882812v31.878906h-31.882812zm0 0" fill="#fff"/><path d="m191.3125 49.09375v142.183594h-31.878906v-155.414063c11.316406 3.03125 21.996094 7.492188 31.878906 13.230469zm0 0" fill="#43a047"/><path d="m159.433594 223.15625h31.878906v63.757812h-31.878906zm0 0" fill="#43a047"/><path d="m255.070312 382.554688c0 70.425781-57.089843 127.515624-127.515624 127.515624-70.425782 0-127.5195318-57.089843-127.5195318-127.515624 0-70.425782 57.0937498-127.519532 127.5195318-127.519532 70.425781 0 127.515624 57.09375 127.515624 127.519532zm0 0" fill="#d6efb6"/><g fill="#fff"><path d="m111.613281 318.792969h31.878907v31.882812h-31.878907zm0 0"/><path d="m111.613281 414.433594h31.878907v31.878906h-31.878907zm0 0"/><path d="m63.792969 366.613281h31.882812v31.878907h-31.882812zm0 0"/><path d="m159.433594 366.613281h31.878906v31.878907h-31.878906zm0 0"/></g></svg>