<svg height="391pt" viewBox="-13 0 391 391.88326" width="391pt" xmlns="http://www.w3.org/2000/svg"><path d="m258.824219 48.011719c-26.0625-4.671875-52.203125-2.011719-75.691407 8.011719-23.5-10.023438-49.640624-12.683594-75.703124-8.011719-70.511719 12.636719-113.644532 73.796875-96.339844 170.289062 17.296875 96.492188 88.476562 178.117188 158.988281 165.46875 4.460937-.800781 8.8125-1.960937 13.050781-3.449219 4.234375 1.488282 8.585938 2.652344 13.046875 3.449219 70.511719 12.648438 141.703125-68.976562 158.996094-165.46875 17.296875-96.492187-25.835937-157.652343-96.347656-170.289062" fill="#9af43b"/><path d="m258.824219 48.011719 1.203125-6.71875c-8.683594-1.558594-17.394532-2.347657-26.039063-2.339844-18.488281-.007813-36.652343 3.578125-53.542969 10.789063l2.683594 6.28125 2.675782-6.28125c-16.882813-7.203126-35.050782-10.796876-53.542969-10.796876-8.632813 0-17.351563.785157-26.046875 2.347657h.007812c-31.375 5.597656-58.070312 20.601562-76.703125 43.90625-18.648437 23.296875-29.09375 54.636719-29.078125 92.3125 0 13.21875 1.28125 27.230469 3.921875 41.992187 8.28125 46.097656 28.4375 88.773438 55.199219 120.28125 13.390625 15.75 28.457031 28.710938 44.648438 37.808594 16.175781 9.078125 33.539062 14.300781 51.265624 14.289062 5.257813.011719 10.535157-.453124 15.796876-1.386718l.007812-.007813c4.835938-.867187 9.542969-2.121093 14.113281-3.738281l-2.261719-6.429688-2.273437 6.429688c4.570313 1.617188 9.285156 2.871094 14.113281 3.738281 5.277344.941407 10.554688 1.40625 15.808594 1.394531 17.722656.011719 35.085938-5.210937 51.269531-14.300781 24.28125-13.648437 46.054688-35.957031 63.398438-63.40625 17.339843-27.460937 30.238281-60.105469 36.445312-94.671875 2.648438-14.761718 3.929688-28.773437 3.929688-41.992187.007812-37.675781-10.4375-69.023438-29.085938-92.316407-18.625-23.308593-45.320312-38.304687-76.707031-43.902343l-1.207031 6.71875-1.203125 6.714843c28.609375 5.152344 51.996094 18.464844 68.449218 39 16.4375 20.546876 26.074219 48.578126 26.089844 83.785157 0 12.335937-1.195312 25.550781-3.710937 39.585937-7.820313 43.722656-27.117188 84.425782-52.15625 113.847656-12.503907 14.710938-26.425781 26.601563-40.933594 34.738282-14.511719 8.144531-29.558594 12.550781-44.582031 12.550781-4.460938 0-8.929688-.378906-13.398438-1.1875-4.089844-.722656-8.078125-1.792969-11.984375-3.171875-1.457031-.511719-3.070312-.511719-4.535156 0-3.90625 1.382812-7.894531 2.453125-11.984375 3.179688l.015625-.007813c-4.484375.800781-8.953125 1.1875-13.414063 1.1875-15.023437 0-30.0625-4.402344-44.582031-12.550781-21.761719-12.195313-42.191406-32.875-58.542969-58.792969-16.367187-25.90625-28.671874-56.992187-34.546874-89.792969-2.515626-14.035156-3.710938-27.25-3.710938-39.585937.015625-35.207031 9.652344-63.234375 26.089844-83.785157 16.453125-20.523437 39.839844-33.839843 68.457031-39 7.910156-1.421874 15.8125-2.128906 23.621094-2.128906 16.730469 0 33.050781 3.238282 48.183593 9.703125 1.726563.734375 3.636719.734375 5.359376 0 15.140624-6.460937 31.453124-9.691406 48.183593-9.703125 7.820313.011719 15.722657.71875 23.632813 2.128906z" fill="#54596e"/><path d="m258.824219 48.011719c-26.0625-4.671875-52.203125-2.011719-75.691407 8.011719-23.5-10.023438-49.640624-12.683594-75.703124-8.011719-70.511719 12.636719-113.644532 73.796875-96.339844 170.289062 17.296875 96.492188 88.476562 178.117188 158.988281 165.46875 4.460937-.800781 8.8125-1.960937 13.050781-3.449219 4.234375 1.488282 8.585938 2.652344 13.046875 3.449219 70.511719 12.648438 141.703125-68.976562 158.996094-165.46875 17.296875-96.492187-25.835937-157.652343-96.347656-170.289062" fill="#9af43b"/><path d="m258.824219 48.011719 1.203125-6.71875c-8.683594-1.558594-17.394532-2.347657-26.039063-2.339844-18.488281-.007813-36.652343 3.578125-53.542969 10.789063l2.683594 6.28125 2.675782-6.28125c-16.882813-7.203126-35.050782-10.796876-53.542969-10.796876-8.632813 0-17.351563.785157-26.046875 2.347657h.007812c-31.375 5.597656-58.070312 20.601562-76.703125 43.90625-18.648437 23.296875-29.09375 54.636719-29.078125 92.3125 0 13.21875 1.28125 27.230469 3.921875 41.992187 8.28125 46.097656 28.4375 88.773438 55.199219 120.28125 13.390625 15.75 28.457031 28.710938 44.648438 37.808594 16.175781 9.078125 33.539062 14.300781 51.265624 14.289062 5.257813.011719 10.535157-.453124 15.796876-1.386718l.007812-.007813c4.835938-.867187 9.542969-2.121093 14.113281-3.738281l-2.261719-6.429688-2.273437 6.429688c4.570313 1.617188 9.285156 2.871094 14.113281 3.738281 5.277344.941407 10.554688 1.40625 15.808594 1.394531 17.722656.011719 35.085938-5.210937 51.269531-14.300781 24.28125-13.648437 46.054688-35.957031 63.398438-63.40625 17.339843-27.460937 30.238281-60.105469 36.445312-94.671875 2.648438-14.761718 3.929688-28.773437 3.929688-41.992187.007812-37.675781-10.4375-69.023438-29.085938-92.316407-18.625-23.308593-45.320312-38.304687-76.707031-43.902343l-1.207031 6.71875-1.203125 6.714843c28.609375 5.152344 51.996094 18.464844 68.449218 39 16.4375 20.546876 26.074219 48.578126 26.089844 83.785157 0 12.335937-1.195312 25.550781-3.710937 39.585937-7.820313 43.722656-27.117188 84.425782-52.15625 113.847656-12.503907 14.710938-26.425781 26.601563-40.933594 34.738282-14.511719 8.144531-29.558594 12.550781-44.582031 12.550781-4.460938 0-8.929688-.378906-13.398438-1.1875-4.089844-.722656-8.078125-1.792969-11.984375-3.171875-1.457031-.511719-3.070312-.511719-4.535156 0-3.90625 1.382812-7.894531 2.453125-11.984375 3.179688l.015625-.007813c-4.484375.800781-8.953125 1.1875-13.414063 1.1875-15.023437 0-30.0625-4.402344-44.582031-12.550781-21.761719-12.195313-42.191406-32.875-58.542969-58.792969-16.367187-25.90625-28.671874-56.992187-34.546874-89.792969-2.515626-14.035156-3.710938-27.25-3.710938-39.585937.015625-35.207031 9.652344-63.234375 26.089844-83.785157 16.453125-20.523437 39.839844-33.839843 68.457031-39 7.910156-1.421874 15.8125-2.128906 23.621094-2.128906 16.730469 0 33.050781 3.238282 48.183593 9.703125 1.726563.734375 3.636719.734375 5.359376 0 15.140624-6.460937 31.453124-9.691406 48.183593-9.703125 7.820313.011719 15.722657.71875 23.632813 2.128906z" fill="#54596e"/><path d="m14.84375 194.808594c.605469 7.175781 1.585938 14.609375 2.960938 22.289062 5.875 32.800782 18.179687 63.886719 34.546874 89.792969 16.355469 25.921875 36.78125 46.601563 58.542969 58.792969 14.519531 8.144531 29.558594 12.550781 44.582031 12.550781 4.460938 0 8.929688-.386719 13.414063-1.1875l-.015625.007813c4.089844-.730469 8.078125-1.800782 11.984375-3.179688.730469-.253906 1.5-.386719 2.269531-.386719.769532 0 1.539063.128907 2.265625.386719 3.90625 1.382812 7.894531 2.453125 11.984375 3.171875 4.46875.808594 8.9375 1.1875 13.398438 1.1875 15.023437 0 30.070312-4.402344 44.582031-12.550781 14.507813-8.136719 28.429687-20.027344 40.933594-34.738282 25.039062-29.421874 44.335937-70.125 52.15625-113.847656 1.371093-7.660156 2.351562-15.074218 2.957031-22.238281-20.597656 82.078125-79.445312 149.25-140.625 149.25-4.863281 0-9.730469-.425781-14.605469-1.296875-4.460937-.800781-8.8125-1.960938-13.046875-3.449219-4.238281 1.488281-8.59375 2.648438-13.050781 3.449219-4.871094.871094-9.75 1.296875-14.609375 1.296875-61.191406-.003906-120.039062-67.195313-140.625-149.300781" fill="#8cd545"/><path d="m357.832031 158.050781c-.628906 6.28125-1.472656 12.683594-2.65625 19.289063-1.058593 5.902344-2.316406 11.746094-3.765625 17.519531-.605468 7.164063-1.585937 14.578125-2.960937 22.238281-7.816407 43.722656-27.117188 84.425782-52.152344 113.847656-12.507813 14.710938-26.425781 26.601563-40.9375 34.738282-14.511719 8.144531-29.558594 12.550781-44.578125 12.550781-4.460938 0-8.929688-.378906-13.402344-1.1875-4.089844-.722656-8.078125-1.792969-11.980468-3.171875-.730469-.253906-1.5-.386719-2.265626-.386719-.769531 0-1.539062.128907-2.273437.386719-3.902344 1.382812-7.894531 2.453125-11.984375 3.179688l.019531-.007813c-4.488281.800781-8.957031 1.1875-13.417969 1.1875-15.023437 0-30.0625-4.402344-44.578124-12.550781-21.765626-12.195313-42.191407-32.875-58.542969-58.792969-16.367188-25.90625-28.675781-56.992187-34.546875-89.792969-1.378906-7.679687-2.359375-15.113281-2.964844-22.289062-1.441406-5.757813-2.699219-11.585938-3.753906-17.46875-1.183594-6.605469-2.035156-13.007813-2.65625-19.289063-1.953125 18.179688-1.289063 38.242188 2.65625 60.25 16.101562 89.820313 78.902344 166.769531 144.382812 166.769531 4.863282 0 9.730469-.421874 14.605469-1.300781 4.460937-.796875 8.8125-1.957031 13.054687-3.449219 4.230469 1.492188 8.582032 2.652344 13.042969 3.449219 4.871094.875 9.75 1.300781 14.609375 1.300781 65.484375 0 128.289063-76.941406 144.390625-166.769531 3.945313-22.007812 4.601563-42.070312 2.65625-60.25" fill="#54596e"/><path d="m161.140625 93.039062c6.25 4.175782 15.3125 6.800782 25.402344 6.800782 11.128906 0 21.011719-3.191406 27.246093-8.140625" fill="#84ff61"/><g fill="#54596e"><path d="m157.347656 98.71875c7.691406 5.09375 17.917969 7.921875 29.195313 7.945312 12.433593-.039062 23.605469-3.433593 31.488281-9.617187 2.953125-2.347656 3.449219-6.640625 1.101562-9.59375-2.34375-2.949219-6.636718-3.449219-9.589843-1.101563-4.585938 3.707032-13.175781 6.699219-23 6.660157-8.902344.023437-16.804688-2.402344-21.613281-5.652344-3.136719-2.097656-7.378907-1.25-9.472657 1.886719-2.09375 3.136718-1.246093 7.375 1.890625 9.472656zm0 0"/><path d="m194.863281 0c-.609375.753906-18.960937 24.0625-18.972656 66.304688 0 10.539062 1.148437 22.238281 3.988281 35.015624l13.328125-2.957031c-2.625-11.820312-3.660156-22.507812-3.660156-32.058593 0-19.101563 4.140625-33.6875 8.210937-43.464844 2.035157-4.886719 4.054688-8.5625 5.527344-10.96875.734375-1.203125 1.335938-2.085938 1.734375-2.648438l.429688-.59375.085937-.109375.007813-.011719-3.445313-2.71875 3.425782 2.742188.019531-.023438-3.445313-2.722656 3.425782 2.742188zm0 0"/><path d="m234.328125 195.414062c.007813 15.082032 12.226563 27.300782 27.308594 27.300782s27.300781-12.21875 27.308593-27.300782c0-3.773437-3.058593-6.828124-6.828124-6.828124-3.769532 0-6.828126 3.054687-6.828126 6.828124-.011718 7.53125-6.117187 13.636719-13.652343 13.652344-7.535157-.015625-13.640625-6.121094-13.652344-13.652344 0-3.773437-3.058594-6.828124-6.828125-6.828124s-6.828125 3.054687-6.828125 6.828124zm0 0"/><path d="m77.316406 195.414062c.003906 15.082032 12.222656 27.300782 27.308594 27.300782 15.082031 0 27.300781-12.21875 27.304688-27.300782 0-3.773437-3.054688-6.828124-6.828126-6.828124-3.769531 0-6.824218 3.054687-6.824218 6.828124-.015625 7.53125-6.117188 13.636719-13.652344 13.652344-7.539062-.015625-13.640625-6.121094-13.65625-13.652344 0-3.773437-3.054688-6.828124-6.824219-6.828124-3.773437 0-6.828125 3.054687-6.828125 6.828124zm0 0"/><path d="m139.601562 248.265625c8.980469 9.75 23.648438 15.355469 40.113282 15.410156 16.304687-.050781 30.839844-5.550781 39.847656-15.125 2.566406-2.761719 2.40625-7.082031-.359375-9.644531-2.761719-2.566406-7.082031-2.40625-9.644531.359375-5.433594 5.96875-16.707032 10.816406-29.839844 10.761719-13.269531.058594-24.632812-4.894532-30.011719-10.945313-2.535156-2.792969-6.855469-2.996093-9.644531-.460937s-2.996094 6.855468-.460938 9.644531zm0 0"/></g><path d="m268.464844 229.546875c-11.3125 0-20.476563 9.171875-20.476563 20.484375 0 11.300781 9.164063 20.476562 20.476563 20.476562 11.308594 0 20.476562-9.175781 20.476562-20.476562-.003906-11.3125-9.167968-20.484375-20.476562-20.484375" fill="#cdc35c"/><path d="m90.964844 229.546875c-11.308594 0-20.476563 9.171875-20.476563 20.484375 0 11.300781 9.167969 20.476562 20.476563 20.476562 11.3125 0 20.488281-9.175781 20.488281-20.476562 0-11.3125-9.175781-20.484375-20.488281-20.484375" fill="#cdc35c"/></svg>