<svg height="409pt" viewBox="0 -61 409.6 409" width="409pt" xmlns="http://www.w3.org/2000/svg"><path d="m379.914062 106.113281c13.824219-9.90625 22.863282-26.066406 22.863282-44.375 0-30.160156-24.453125-54.613281-54.613282-54.613281-30.164062 0-54.617187 24.453125-54.617187 54.613281h-177.492187c0-30.160156-24.453126-54.613281-54.609376-54.613281-30.167968 0-54.621093 24.453125-54.621093 54.613281 0 18.308594 9.039062 34.46875 22.863281 44.375-13.824219 9.90625-22.863281 26.066407-22.863281 44.375 0 30.160157 24.453125 54.613281 54.621093 54.613281 30.15625 0 54.609376-24.453124 54.609376-54.613281h177.492187c0 30.160157 24.453125 54.613281 54.617187 54.613281 30.15625 0 54.609376-24.453124 54.609376-54.613281 0-18.308593-9.035157-34.46875-22.859376-44.375m-86.367187-30.722656v-13.652344zm-177.492187 61.441406v13.65625z" fill="#fff"/><path d="m379.914062 106.113281 3.984376 5.542969c15.515624-11.109375 25.703124-29.332031 25.703124-49.917969 0-33.933593-27.5-61.4375-61.4375-61.4375-33.945312 0-61.433593 27.503907-61.445312 61.4375h6.824219v-6.824219h-177.488281v6.824219h6.824218c0-33.933593-27.5-61.4375-61.433594-61.4375-33.9375 0-61.4374995 27.503907-61.445312 61.4375 0 20.585938 10.183594 38.808594 25.703125 49.917969l3.980469-5.542969-3.980469-5.554687c-15.519531 11.121094-25.703125 29.335937-25.703125 49.929687.0078125 33.929688 27.507812 61.429688 61.445312 61.433594 33.933594-.003906 61.433594-27.503906 61.433594-61.433594h-6.824218v6.824219h177.492187v-6.824219h-6.824219c.007813 33.929688 27.5 61.429688 61.441406 61.433594 33.9375-.003906 61.4375-27.503906 61.4375-61.433594 0-20.59375-10.183593-38.808593-25.703124-49.929687l-3.984376 5.554687 3.984376 5.542969-3.984376-5.542969-3.972656 5.542969c12.121094 8.710938 20.003906 22.808594 20.003906 38.832031 0 13.207031-5.332031 25.117188-13.992187 33.78125-8.671875 8.667969-20.574219 14-33.789063 14.007813-13.222656-.007813-25.125-5.339844-33.796874-14.007813-8.660157-8.664062-13.992188-20.574219-13.992188-33.78125 0-1.804687-.730469-3.558593-2-4.828125-1.273438-1.269531-3.035156-2.003906-4.832031-2.003906h-177.488281c-1.796876 0-3.558594.734375-4.828126 2.003906-1.273437 1.269532-2.003906 3.023438-2.003906 4.828125 0 13.207031-5.332031 25.117188-13.992187 33.78125-8.671875 8.667969-20.574219 14-33.789063 14.007813-13.222656-.007813-25.125-5.339844-33.789062-14.007813-8.664063-8.664062-14-20.574219-14-33.78125 0-16.023437 7.890625-30.121093 20.003906-38.832031 1.785156-1.269531 2.851562-3.351562 2.851562-5.542969 0-2.191406-1.066406-4.273437-2.851562-5.554687-12.113281-8.699219-20.003906-22.796875-20.003906-38.820313 0-13.21875 5.335937-25.117187 14-33.792969 8.664062-8.65625 20.5625-13.988281 33.789062-13.996093 13.214844.007812 25.117188 5.339843 33.789063 13.996093 8.660156 8.675782 13.992187 20.574219 13.992187 33.792969 0 1.824219.71875 3.542969 2.003906 4.828125 1.292969 1.292969 3 1.992188 4.828126 1.992188h177.492187c1.824219 0 3.535156-.699219 4.828125-1.992188 1.285156-1.285156 2-3.003906 2-4.828125 0-13.21875 5.335938-25.117187 13.992188-33.792969 8.671874-8.65625 20.574218-13.988281 33.796874-13.996093 13.21875.007812 25.117188 5.339843 33.792969 13.996093 8.65625 8.675782 13.988281 20.574219 13.988281 33.792969 0 16.023438-7.882812 30.121094-20.003906 38.820313-1.78125 1.28125-2.847656 3.363281-2.847656 5.554687 0 2.191407 1.066406 4.273438 2.847656 5.542969zm-79.539062-30.722656v-13.652344c0-3.773437-3.058594-6.824219-6.828125-6.824219-3.773437 0-6.824219 3.050782-6.824219 6.824219v13.652344c0 3.769531 3.050782 6.832031 6.824219 6.832031 3.769531 0 6.828125-3.0625 6.828125-6.832031m-191.152344 61.441406v13.65625c0 3.773438 3.0625 6.824219 6.832032 6.824219 3.769531 0 6.824218-3.050781 6.824218-6.824219v-13.65625c0-3.777343-3.054687-6.828125-6.824218-6.828125-3.769532 0-6.832032 3.050782-6.832032 6.828125" fill="#54596e"/><path d="m300.375 130.003906h-191.152344c0 30.167969-17.621094 54.621094-47.777344 54.621094-26.539062 0-42.4375-18.9375-46.761718-44.023438-.671875 3.191407-1.027344 6.496094-1.027344 9.886719 0 13.207031 5.332031 25.117188 14 33.78125 8.664062 8.667969 20.5625 14 33.789062 14.007813 13.214844-.007813 25.117188-5.339844 33.789063-14.007813 8.660156-8.664062 13.992187-20.574219 13.992187-33.78125v-13.65625c0-3.777343 3.0625-6.828125 6.832032-6.828125 3.769531 0 6.824218 3.050782 6.824218 6.828125v6.824219h170.664063c1.796875 0 3.558594.734375 4.832031 2.003906 1.269532 1.269532 2 3.023438 2 4.828125 0 13.207031 5.335938 25.117188 13.992188 33.78125 8.671875 8.667969 20.574218 14 33.796875 14.007813 13.21875-.007813 25.117187-5.339844 33.789062-14.007813 8.660157-8.664062 13.992188-20.574219 13.992188-33.78125 0-3.390625-.351563-6.699219-1.023438-9.886719-4.328125 25.082032-20.226562 44.023438-46.753906 44.023438-30.171875 0-47.796875-24.453125-47.796875-54.621094" fill="#dddee2"/><g fill="#54596e"><path d="m293.546875 143.65625c0 30.160156 24.453125 54.621094 54.617187 54.621094-13.222656-.007813-25.125-5.339844-33.796874-14.007813-8.660157-8.664062-13.992188-20.574219-13.992188-33.78125 0-1.804687-.730469-3.558593-2-4.828125-1.273438-1.269531-3.03125-2.003906-4.828125-2.003906m-279.4375-6.945312c-.292969 2.273437-7.285156 4.59375-7.285156 6.945312 0 30.160156 24.453125 54.621094 54.621093 54.621094-13.226562-.007813-25.128906-5.339844-33.792968-14.007813-8.664063-8.664062-13.996094-20.574219-13.996094-33.78125 0-3.390625.351562-6.695312 1.023438-9.886719-.21875-1.277343-.410157-2.578124-.570313-3.890624m381.382813 0c-.160157 1.3125-.351563 2.609374-.574219 3.890624.671875 3.1875 1.023437 6.496094 1.023437 9.886719 0 13.207031-5.332031 25.117188-13.988281 33.78125-8.671875 8.667969-20.574219 14-33.792969 14.007813 30.160156 0 54.613282-24.460938 54.613282-54.621094 0-2.351562-6.988282-4.671875-7.28125-6.945312m-279.4375-6.707032c-3.769532 0-6.832032 3.050782-6.832032 6.828125v13.65625c0 13.207031-5.332031 25.117188-13.992187 33.78125-8.671875 8.667969-20.574219 14-33.789063 14.007813 30.160156 0 54.613282-24.460938 54.613282-54.621094h6.820312v-6.824219c.003906-3.777343-3.050781-6.828125-6.820312-6.828125"/><path d="m244.695312 125.414062c-8.976562-9.75-23.644531-15.355468-40.113281-15.414062-16.300781.054688-30.839843 5.554688-39.847656 15.121094-2.566406 2.757812-2.410156 7.078125.351563 9.644531 2.761718 2.570313 7.082031 2.414063 9.648437-.34375 5.441406-5.976563 16.710937-10.824219 29.847656-10.773437 13.265625-.054688 24.632813 4.898437 30.007813 10.949218 2.53125 2.789063 6.851562 2.996094 9.640625.460938 2.789062-2.535156 3-6.851563.460937-9.640625v-.003907zm0 0"/><path d="m279.894531 95.875c0 7.539062-6.113281 13.652344-13.65625 13.652344-7.539062 0-13.652343-6.113282-13.652343-13.652344 0-7.542969 6.113281-13.65625 13.652343-13.65625 7.542969 0 13.65625 6.113281 13.65625 13.65625zm0 0"/><path d="m157.011719 95.875c0 7.539062-6.109375 13.652344-13.652344 13.652344-7.539063 0-13.652344-6.113282-13.652344-13.652344 0-7.542969 6.113281-13.65625 13.652344-13.65625 7.542969 0 13.652344 6.113281 13.652344 13.65625zm0 0"/></g><path d="m163.839844 153.898438c0 9.425781-7.640625 17.066406-17.066406 17.066406-9.425782 0-17.066407-7.640625-17.066407-17.066406 0-9.425782 13.652344-30.71875 17.066407-30.71875 3.414062 0 17.066406 21.292968 17.066406 30.71875zm0 0" fill="#55a6ff"/><path d="m279.894531 215.339844c0 9.425781-7.640625 17.066406-17.066406 17.066406s-17.066406-7.640625-17.066406-17.066406c0-9.425782 13.652343-30.71875 17.066406-30.71875 3.410156 0 17.066406 21.292968 17.066406 30.71875zm0 0" fill="#55a6ff"/><path d="m300.375 269.953125c0 9.425781-7.640625 17.066406-17.066406 17.066406-9.429688 0-17.070313-7.640625-17.070313-17.066406s13.65625-30.71875 17.070313-30.71875c3.410156 0 17.066406 21.292969 17.066406 30.71875zm0 0" fill="#55a6ff"/></svg>