<svg height="417pt" viewBox="0 -39 417.23234 417" width="417pt" xmlns="http://www.w3.org/2000/svg"><path d="m398.84375 310.378906c33.535156-35.746094-8.378906-129.546875-93.617188-209.515625-85.242187-79.964843-181.527343-115.816406-215.0625-80.070312-33.53125 35.742187 22.394532 114.609375 107.632813 194.578125s167.515625 130.753906 201.046875 95.007812zm0 0" fill="#ffd578"/><path d="m398.84375 310.378906 4.980469 4.664063c9.308593-9.910157 13.433593-23.398438 13.40625-38.359375-.0625-24.578125-10.5625-54.023438-29.050781-85.359375-18.523438-31.304688-45.199219-64.402344-78.28125-95.441407-31.835938-29.859374-65.199219-53.683593-96.554688-70.128906-31.378906-16.425781-60.679688-25.59375-85.058594-25.636718-8.695312 0-16.796875 1.1875-24.101562 3.792968-7.296875 2.597656-13.796875 6.65625-18.996094 12.210938-8.011719 8.472656-11.765625 19.4375-11.710938 31.109375.015626 11.640625 3.4375 24.125 9.378907 37.394531 17.894531 39.714844 58.871093 87.421875 110.277343 135.722656 33.332032 31.265625 66.25 58.160156 96.304688 77.390625 15.035156 9.617188 29.359375 17.324219 42.765625 22.683594 13.40625 5.351563 25.914063 8.40625 37.441406 8.414063 6.613281.003906 12.917969-1.027344 18.71875-3.300782 5.796875-2.257812 11.054688-5.785156 15.460938-10.488281l-4.980469-4.667969-4.976562-4.675781c-3.074219 3.265625-6.507813 5.558594-10.484376 7.121094-3.972656 1.558593-8.53125 2.363281-13.738281 2.363281-9.0625.011719-20.050781-2.503906-32.375-7.4375-37.074219-14.757812-85.507812-51.054688-134.800781-97.355469-33.832031-31.738281-62.949219-63.269531-83.421875-91.65625-10.238281-14.183593-18.304687-27.578125-23.738281-39.695312-5.445313-12.117188-8.199219-22.925781-8.179688-31.8125.050782-8.980469 2.550782-15.871094 8.015625-21.765625 3.617188-3.851563 8.105469-6.71875 13.625-8.691406 5.511719-1.972657 12.0625-3.003907 19.515625-3.003907 20.898438-.042969 48.65625 8.273438 78.71875 24.074219 30.085938 15.777344 62.554688 38.914062 93.550782 67.996094 32.222656 30.21875 58.136718 62.441406 75.875 92.4375 17.777343 29.964844 27.210937 57.804687 27.148437 78.40625-.023437 12.621094-3.335937 22.207031-9.710937 29.023437zm0 0" fill="#54596e"/><path d="m327.914062 206.390625c8.25 7.738281 29.570313-1.59375 47.628907-20.839844l.625-.691406c-7.066407-11.042969-15.171875-22.28125-24.171875-33.542969-2.132813 1.941406-4.25 4.003906-6.324219 6.210938-18.058594 19.246094-26.011719 41.125-17.757813 48.863281zm0 0" fill="#f4a14e"/><path d="m327.914062 206.390625-4.671874 4.976563c3.515624 3.3125 8.179687 4.59375 12.585937 4.566406 7.109375-.054688 14.417969-2.808594 22.027344-7.222656 7.578125-4.453126 15.371093-10.730469 22.664062-18.488282l.085938-.09375.625-.695312c2.0625-2.277344 2.34375-5.671875.6875-8.257813-7.210938-11.265625-15.453125-22.691406-24.59375-34.121093-1.171875-1.464844-2.917969-2.390626-4.789063-2.542969-1.871094-.148438-3.746094.488281-5.136718 1.753906-2.25 2.046875-4.496094 4.230469-6.707032 6.582031-7.003906 7.472656-12.601562 15.324219-16.542968 22.890625-3.914063 7.589844-6.285157 14.828125-6.324219 21.699219 0 2.515625.339843 5.015625 1.195312 7.414062.847657 2.390626 2.257813 4.683594 4.210938 6.511719l.003906.003907 4.679687-4.976563 4.675782-4.976563c-.261719-.25-.480469-.542968-.707032-1.160156-.222656-.613281-.402343-1.554687-.402343-2.816406-.039063-3.464844 1.492187-9.140625 4.785156-15.398438 3.265625-6.289062 8.175781-13.226562 14.386719-19.84375 1.933594-2.058593 3.917968-3.992187 5.9375-5.828124l-4.59375-5.050782-5.332032 4.261719c8.867188 11.089844 16.832032 22.144531 23.757813 32.960937l5.746094-3.679687-5.0625-4.582031-.628907.691406 5.066407 4.582031-4.976563-4.671875c-6.460937 6.886719-13.359375 12.390625-19.621094 16.054688-6.226562 3.703125-11.902343 5.40625-15.117187 5.351562-2.0625-.027344-2.824219-.492187-3.246094-.875l.007813.003906zm0 0" fill="#54596e"/><path d="m313.460938 131.992188c3.929687-4.183594 7.304687-8.554688 10.148437-12.941407-5.882813-6.117187-11.996094-12.195312-18.382813-18.183593-6.386718-5.996094-12.84375-11.707032-19.324218-17.195313-4.199219 3.121094-8.34375 6.773437-12.269532 10.953125-19.347656 20.628906-26.113281 45.707031-15.113281 56.027344 10.996094 10.316406 35.59375 1.964844 54.941407-18.660156zm0 0" fill="#f4a14e"/><path d="m313.460938 131.992188 4.976562 4.667968c4.214844-4.488281 7.839844-9.175781 10.898438-13.894531 1.726562-2.664063 1.394531-6.160156-.804688-8.449219-5.960938-6.195312-12.15625-12.355468-18.636719-18.433594-6.480469-6.082031-13.027343-11.871093-19.582031-17.421874-2.425781-2.054688-5.933594-2.167969-8.484375-.273438-4.523437 3.359375-8.964844 7.28125-13.175781 11.761719-6.984375 7.449219-12.46875 15.457031-16.273438 23.390625-3.785156 7.945312-5.945312 15.8125-5.964844 23.226562.003907 3.566406.519532 7.042969 1.714844 10.3125 1.191406 3.253906 3.097656 6.292969 5.707032 8.742188l.011718.011718c4.707032 4.421876 10.980469 6.285157 17.246094 6.257813 7.710938-.023437 15.792969-2.550781 23.871094-6.867187 8.074218-4.339844 16.128906-10.546876 23.472656-18.363282l-4.976562-4.667968-4.976563-4.671876c-6.378906 6.796876-13.363281 12.128907-19.972656 15.675782-6.601563 3.566406-12.839844 5.269531-17.414063 5.246094-3.796875-.027344-6.222656-1.003907-7.910156-2.574219l.007812.011719c-.960937-.917969-1.691406-2.015626-2.246093-3.503907-.542969-1.484375-.878907-3.367187-.875-5.605469-.015625-4.660156 1.484375-10.804687 4.625-17.332031 3.128906-6.539062 7.835937-13.46875 13.914062-19.941406 3.640625-3.878906 7.480469-7.265625 11.363281-10.144531l-4.074218-5.480469-4.410156 5.207031c6.402343 5.425782 12.773437 11.058594 19.0625 16.964844 6.292968 5.902344 12.324218 11.894531 18.140624 17.9375l4.917969-4.726562-5.722656-3.71875c-2.632813 4.054687-5.761719 8.105468-9.402344 11.984374zm0 0" fill="#54596e"/><path d="m216.222656 36.085938c-18.054687 19.25-26.007812 41.125-17.757812 48.863281 8.25 7.742187 29.574218-1.589844 47.628906-20.839844 2.074219-2.203125 3.996094-4.449219 5.792969-6.707031-11.808594-8.265625-23.542969-15.632813-35.007813-21.980469zm0 0" fill="#f4a14e"/><path d="m216.222656 36.085938-4.976562-4.671876c-7.003906 7.472657-12.601563 15.320313-16.542969 22.882813-3.914063 7.589844-6.28125 14.828125-6.324219 21.699219 0 2.519531.34375 5.015625 1.199219 7.414062.847656 2.390625 2.257813 4.683594 4.207031 6.515625l.007813.003907c3.515625 3.3125 8.179687 4.589843 12.585937 4.566406 7.109375-.058594 14.417969-2.808594 22.027344-7.222656 7.578125-4.449219 15.375-10.726563 22.664062-18.492188 2.210938-2.351562 4.253907-4.742188 6.152344-7.121094 1.171875-1.46875 1.6875-3.378906 1.417969-5.230468-.265625-1.855469-1.304687-3.542969-2.839844-4.617188-11.988281-8.394531-23.921875-15.886719-35.617187-22.363281-2.6875-1.492188-6.03125-1.003907-8.183594 1.191406l-.65625.667969-.101562.105468 4.980468 4.671876 4.878906 4.777343.652344-.667969-4.875-4.773437-3.308594 5.96875c11.238282 6.222656 22.773438 13.464844 34.402344 21.601563l3.914063-5.589844-5.335938-4.253906c-1.695312 2.125-3.5 4.230468-5.429687 6.285156-6.460938 6.890625-13.359375 12.394531-19.621094 16.0625-6.230469 3.703125-11.902344 5.40625-15.117188 5.347656-2.066406-.027344-2.828124-.492188-3.25-.871094h.007813c-.261719-.246094-.480469-.539062-.707031-1.160156-.222656-.609375-.402344-1.550781-.402344-2.816406-.039062-3.460938 1.492188-9.136719 4.785156-15.394532 3.265625-6.285156 8.175782-13.226562 14.386719-19.84375l-4.980469-4.671874 4.878906 4.777343zm0 0" fill="#54596e"/><path d="m404.605469 304.609375c17.480469-45.789063-56.859375-116.707031-166.050781-158.394531-109.191407-41.691406-211.878907-38.363282-229.363282 7.421875-17.480468 45.789062 64.167969 97.574219 173.355469 139.265625 109.191406 41.691406 204.574219 57.496094 222.058594 11.707031zm0 0" fill="#ffd578"/><g fill="#54596e"><path d="m404.605469 304.609375 6.375 2.433594c2.03125-5.304688 3-10.90625 3-16.601563-.023438-13.113281-5-26.582031-13.570313-40.023437-12.898437-20.160157-34.0625-40.527344-61.328125-59.585938-27.273437-19.042969-60.675781-36.714843-98.09375-50.996093-51.933593-19.816407-102.414062-29.65625-143.734375-29.667969-23.375.007812-43.839844 3.125-60.175781 9.703125-8.160156 3.296875-15.304687 7.480468-21.15625 12.691406-5.84375 5.195312-10.375 11.464844-13.109375 18.640625-1.882812 4.917969-2.81640625 10.007813-2.8125 15.09375.0195312 12.738281 5.691406 25.003906 15 36.640625 14.023438 17.476562 36.5625 34.203125 64.964844 50.386719 28.402344 16.15625 62.695312 31.648437 100.148437 45.957031 63.375 24.152344 122.082031 39.84375 165.183594 39.894531 15.867187-.011719 29.722656-2.121093 41.101563-7.191406 11.351562-5.003906 20.242187-13.425781 24.585937-24.9375l-6.378906-2.4375-6.378907-2.433594c-3.066406 7.882813-8.578124 13.332031-17.402343 17.34375-8.796875 3.953125-20.894531 6.015625-35.53125 6.003907-39.871094.054687-97.839844-15.109376-160.3125-39.003907-49.289063-18.8125-92.847657-39.714843-123.648438-60.835937-15.398437-10.539063-27.578125-21.144532-35.675781-31.277344-8.132812-10.167969-12.023438-19.609375-12.003906-28.113281.003906-3.4375.609375-6.792969 1.914062-10.222657 1.90625-4.976562 5.015625-9.363281 9.441406-13.316406 6.617188-5.914062 16.300782-10.726562 28.578126-13.976562 12.269531-3.257813 27.0625-4.957032 43.667968-4.957032 39.167969-.015624 88.308594 9.457032 138.863282 28.769532 48.582031 18.535156 90.128906 42.972656 119.207031 68.027344 14.539062 12.511718 25.945312 25.179687 33.578125 37.148437 7.65625 11.972656 11.445312 23.148437 11.421875 32.675781-.003907 4.164063-.691407 8.046875-2.097657 11.734375zm0 0"/><path d="m170.4375 255.339844c8.980469 9.75 23.648438 15.359375 40.113281 15.414062 16.304688-.050781 30.839844-5.554687 39.847657-15.125 2.5625-2.765625 2.402343-7.082031-.359376-9.648437-2.761718-2.5625-7.082031-2.402344-9.644531.363281-5.4375 5.96875-16.707031 10.816406-29.839843 10.761719-13.269532.058593-24.632813-4.894531-30.011719-10.945313-2.539063-2.792968-6.855469-2.996094-9.644531-.460937-2.792969 2.535156-2.996094 6.851562-.460938 9.644531zm0 0"/><path d="m149.113281 209.316406c0 7.542969-6.113281 13.65625-13.65625 13.65625-7.539062 0-13.652343-6.113281-13.652343-13.65625 0-7.539062 6.113281-13.652344 13.652343-13.652344 7.542969 0 13.65625 6.113282 13.65625 13.652344zm0 0"/><path d="m299.296875 209.316406c0 7.542969-6.113281 13.65625-13.652344 13.65625-7.539062 0-13.652343-6.113281-13.652343-13.65625 0-7.539062 6.113281-13.652344 13.652343-13.652344 7.539063 0 13.652344 6.113282 13.652344 13.652344zm0 0"/></g><path d="m257.976562 171.898438c2.046876-5.363282 3.515626-10.679688 4.484376-15.824219-7.765626-3.429688-15.722657-6.734375-23.90625-9.859375-8.183594-3.121094-16.320313-5.960938-24.398438-8.582032-2.703125 4.480469-5.15625 9.425782-7.203125 14.785157-10.082031 26.421875-6.839844 52.195312 7.25 57.574219 14.089844 5.378906 33.6875-11.675782 43.773437-38.09375zm0 0" fill="#f4a14e"/><path d="m257.976562 171.898438 6.378907 2.433593c2.195312-5.75 3.769531-11.460937 4.816406-16.996093.585937-3.117188-1.046875-6.226563-3.953125-7.507813-7.859375-3.46875-15.925781-6.824219-24.230469-9.992187-8.300781-3.167969-16.550781-6.046876-24.722656-8.699219-3.019531-.980469-6.308594.246093-7.953125 2.964843-2.90625 4.820313-5.539062 10.128907-7.734375 15.878907-4.230469 11.101562-6.304687 22.121093-6.3125 32.0625.007813 7.6875 1.226563 14.75 3.960937 20.785156 2.703126 5.988281 7.226563 11.128906 13.535157 13.539063l.015625.003906c2.558594.976562 5.25 1.433594 7.910156 1.433594 4.710938-.003907 9.273438-1.390626 13.550781-3.640626 6.417969-3.402343 12.339844-8.765624 17.640625-15.539062 5.289063-6.785156 9.929688-15.015625 13.472656-24.289062l-12.75-4.875c-4.097656 10.757812-9.925781 19.78125-15.933593 25.847656-3 3.035156-6.03125 5.320312-8.796875 6.773437-2.773438 1.460938-5.222656 2.074219-7.183594 2.070313-1.125-.003906-2.109375-.183594-3.058594-.542969l.011719.007813c-2.242187-.871094-4.277344-2.757813-5.992187-6.453126-1.683594-3.652343-2.742188-8.925781-2.734376-15.121093-.007812-8.015625 1.726563-17.542969 5.414063-27.191407 1.898437-4.96875 4.171875-9.550781 6.671875-13.691406l-5.847656-3.527344-2.105469 6.496094c7.980469 2.585938 16.007813 5.390625 24.070313 8.464844 8.0625 3.078125 15.910156 6.339844 23.582031 9.726562l2.757812-6.242187-6.707031-1.265625c-.898438 4.753906-2.253906 9.683594-4.152344 14.652344zm0 0" fill="#54596e"/><path d="m131.640625 120.011719c-9.414063 24.652343-8.480469 47.914062 2.09375 51.945312 10.5625 4.035157 26.761719-12.679687 36.175781-37.339843 1.078125-2.824219 2.003906-5.632813 2.816406-8.398438-14.0625-3.171875-27.710937-5.546875-40.730468-7.074219zm0 0" fill="#f4a14e"/><path d="m131.640625 120.011719-6.375-2.4375c-4.605469 12.085937-6.929687 23.859375-6.941406 33.960937.011719 5.882813.769531 11.226563 2.664062 15.910156.953125 2.339844 2.214844 4.527344 3.917969 6.433594 1.695312 1.898438 3.871094 3.496094 6.378906 4.449219l.019532.007813c1.875.714843 3.847656 1.042968 5.765624 1.039062 4.351563-.015625 8.320313-1.574219 11.960938-3.851562 5.460938-3.453126 10.457031-8.683594 15.089844-15.226563 4.609375-6.546875 8.796875-14.429687 12.164062-23.246094 1.152344-3.019531 2.136719-6 2.988282-8.917969.527343-1.800781.285156-3.769531-.667969-5.378906-.949219-1.617187-2.550781-2.789062-4.378907-3.199218-14.273437-3.222657-28.152343-5.636719-41.4375-7.195313-3.054687-.359375-5.957031 1.355469-7.117187 4.203125l-.410156 1.011719 6.378906 2.4375 6.324219 2.578125.351562-.867188-6.320312-2.578125-.796875 6.78125c12.757812 1.492188 26.175781 3.824219 40.023437 6.949219l1.503906-6.65625-6.554687-1.921875c-.761719 2.613281-1.632813 5.246094-2.640625 7.882813-3.96875 10.421874-9.269531 19.296874-14.460938 25.234374-2.582031 2.972657-5.136718 5.199219-7.300781 6.546876-2.167969 1.375-3.847656 1.785156-4.699219 1.765624l-.910156-.152343.015625.007812-1.097656-.816406c-.660156-.714844-1.511719-2.210937-2.117187-4.496094-.617188-2.269531-.988282-5.261719-.984376-8.734375-.011718-7.972656 1.945313-18.390625 6.042969-29.09375l-6.378906-2.429687 6.324219 2.578125zm0 0" fill="#54596e"/></svg>