<svg height="395pt" viewBox="-29 0 395 395.94325" width="395pt" xmlns="http://www.w3.org/2000/svg"><path d="m304.207031 157.011719c16.085938 0 28.53125-17.070313 25.144531-35.277344-14.8125-79.765625-81.152343-114.90625-160.746093-114.90625s-145.933594 35.140625-160.75 114.90625c-3.386719 18.207031 9.0625 35.277344 25.148437 35.277344zm0 0" fill="#ffd578"/><path d="m304.207031 157.011719v6.824219c9.34375.007812 17.648438-4.445313 23.359375-11.058594 5.746094-6.617188 9.160156-15.472656 9.167969-25.007813 0-2.402343-.214844-4.84375-.671875-7.289062-7.648438-41.511719-29.175781-72.15625-59.027344-91.808594-29.84375-19.703125-67.652344-28.6640625-108.429687-28.671875-40.78125.0078125-78.589844 8.96875-108.429688 28.671875-29.851562 19.652344-51.378906 50.296875-59.03125 91.816406-.453125 2.441407-.675781 4.882813-.671875 7.28125.007813 9.539063 3.421875 18.390625 9.167969 25.015625 5.714844 6.605469 14.019531 11.058594 23.363281 11.054688h271.199219v-13.652344h-271.199219c-4.945312-.007812-9.492187-2.292969-13.058594-6.363281-3.535156-4.054688-5.832031-9.824219-5.820312-16.054688 0-1.570312.140625-3.167969.441406-4.789062 7.164063-38.25 26.214844-65.0625 53.132813-82.921875 26.929687-17.808594 62.089843-26.417969 100.90625-26.410156 38.8125-.007813 73.96875 8.601562 100.898437 26.410156 26.921875 17.859375 45.96875 44.671875 53.132813 82.917968.300781 1.613282.445312 3.21875.445312 4.792969.007813 6.230469-2.285156 12-5.820312 16.054688-3.566407 4.070312-8.113281 6.355469-13.058594 6.363281v6.824219zm0 0" fill="#54596e"/><path d="m220.214844 43.960938c-3.996094-3.996094-10.480469-3.996094-14.476563 0-4 4-4 10.480468 0 14.480468 3.996094 3.996094 10.480469 3.996094 14.476563 0 4-4 4-10.480468 0-14.480468zm0 0" fill="#54596e"/><path d="m131.46875 43.960938c-3.996094-4-10.480469-4-14.476562 0-4 3.996093-4 10.480468 0 14.480468 3.996093 3.996094 10.480468 3.996094 14.476562 0 4-4 4-10.484375 0-14.480468zm0 0" fill="#54596e"/><path d="m196.097656 95.964844c-6.3125-.855469-12.339844-.265625-17.425781 1.339844-6.378906 2.023437-13.753906 2.023437-20.132813 0-5.085937-1.605469-11.113281-2.195313-17.429687-1.339844-9.773437 1.320312-17.644531 6.320312-19.699219 12.492187-3.53125 10.636719 9.234375 20.007813 25.476563 20.007813 4.476562 0 8.691406-.710938 12.371093-1.972656 5.773438-1.96875 12.917969-1.96875 18.695313 0 3.679687 1.261718 7.890625 1.972656 12.371094 1.972656 16.242187 0 29.007812-9.367188 25.472656-20.007813-2.050781-6.167969-9.925781-11.171875-19.699219-12.492187zm0 0" fill="#54596e"/><path d="m284.660156 389.121094h-232.109375c-22.617187 0-40.957031-18.339844-40.957031-40.960938h314.023438c0 22.621094-18.339844 40.960938-40.957032 40.960938zm0 0" fill="#ffd578"/><path d="m284.660156 389.121094v-6.828125h-232.109375c-9.445312-.007813-17.9375-3.8125-24.132812-10-6.191407-6.199219-9.996094-14.6875-10-24.132813h-6.824219v6.824219h314.023438v-6.824219h-6.824219c-.003907 9.441406-3.8125 17.933594-10 24.132813-6.195313 6.1875-14.6875 9.992187-24.132813 10v13.648437c26.390625 0 47.78125-21.386718 47.785156-47.78125 0-1.800781-.726562-3.558594-2-4.828125-1.269531-1.273437-3.027343-2-4.824218-2h-314.027344c-1.796875 0-3.554688.726563-4.828125 2-1.269531 1.269531-2 3.027344-2 4.828125.007813 26.394532 21.394531 47.78125 47.789063 47.78125h232.105468zm0 0" fill="#54596e"/><path d="m298.3125 348.160156h-259.414062c-11.3125 0-20.480469-9.171875-20.480469-20.480468 0-11.308594 9.167969-20.480469 20.480469-20.480469h259.414062c11.3125 0 20.480469 9.171875 20.480469 20.480469 0 11.308593-9.167969 20.480468-20.480469 20.480468zm0 0" fill="#ff927d"/><path d="m298.3125 348.160156v-6.828125h-259.414062c-7.539063-.015625-13.640626-6.117187-13.652344-13.652343.011718-7.539063 6.113281-13.640626 13.652344-13.65625h259.414062c7.539062.015624 13.640625 6.117187 13.652344 13.65625-.011719 7.535156-6.113282 13.636718-13.652344 13.652343v13.652344c15.085938-.003906 27.304688-12.222656 27.304688-27.304687 0-15.082032-12.21875-27.304688-27.304688-27.304688h-259.414062c-15.085938 0-27.304688 12.222656-27.304688 27.304688 0 15.082031 12.21875 27.300781 27.304688 27.304687h259.414062zm0 0" fill="#54596e"/><path d="m284.660156 286.71875h-232.109375c-11.3125 0-20.476562-9.167969-20.476562-20.480469s9.164062-20.476562 20.476562-20.476562h232.109375c11.3125 0 20.480469 9.164062 20.480469 20.476562s-9.167969 20.480469-20.480469 20.480469zm0 0" fill="#fff35f"/><path d="m284.660156 286.71875v-6.824219h-232.109375c-7.539062-.019531-13.636719-6.117187-13.652343-13.65625.015624-7.542969 6.113281-13.636719 13.652343-13.65625h232.109375c7.539063.019531 13.636719 6.113281 13.652344 13.65625-.015625 7.539063-6.113281 13.636719-13.652344 13.65625v13.648438c15.085938-.003907 27.300782-12.222657 27.304688-27.304688-.003906-15.085937-12.21875-27.304687-27.304688-27.304687h-232.109375c-15.082031 0-27.300781 12.21875-27.304687 27.304687.003906 15.082031 12.21875 27.300781 27.304687 27.304688h232.109375zm0 0" fill="#54596e"/><path d="m305.140625 225.28125h-273.066406c-11.316407 0-20.480469-9.171875-20.480469-20.480469 0-11.3125 9.164062-20.480469 20.480469-20.480469h273.066406c11.3125 0 20.476563 9.167969 20.476563 20.480469 0 11.308594-9.164063 20.480469-20.476563 20.480469zm0 0" fill="#ff927d"/><path d="m305.140625 225.28125v-6.828125h-273.066406c-7.542969-.015625-13.640625-6.117187-13.65625-13.652344.015625-7.542969 6.113281-13.640625 13.65625-13.65625h273.066406c7.539063.015625 13.636719 6.113281 13.652344 13.65625-.015625 7.535157-6.113281 13.636719-13.652344 13.652344v13.648437c15.082031 0 27.300781-12.222656 27.304687-27.300781-.003906-15.085937-12.222656-27.308593-27.304687-27.308593h-273.066406c-15.085938 0-27.304688 12.222656-27.308594 27.308593.003906 15.078125 12.21875 27.300781 27.308594 27.300781h273.066406zm0 0" fill="#54596e"/><path d="m25.246094 184.320312h286.71875c7.539062 0 13.652344-6.113281 13.652344-13.652343 0-7.542969-6.113282-13.65625-13.652344-13.65625h-286.71875c-7.539063 0-13.652344 6.113281-13.652344 13.65625 0 7.539062 6.113281 13.652343 13.652344 13.652343zm0 0" fill="#9af43b"/><g fill="#54596e"><path d="m25.246094 184.320312v6.824219h286.71875c11.3125-.003906 20.476562-9.164062 20.480468-20.476562-.003906-11.316407-9.167968-20.476563-20.480468-20.480469h-286.71875c-11.3125.003906-20.476563 9.164062-20.480469 20.480469.003906 11.3125 9.167969 20.472656 20.480469 20.476562v-13.652343c-3.765625-.007813-6.820313-3.0625-6.828125-6.824219.007812-3.769531 3.0625-6.820313 6.828125-6.832031h286.71875c3.765625.011718 6.820312 3.0625 6.828125 6.832031-.007813 3.761719-3.0625 6.816406-6.828125 6.824219h-286.71875zm0 0"/><path d="m81.441406 179.945312-34.132812 40.960938c-2.414063 2.894531-2.023438 7.203125.871094 9.617188 2.898437 2.414062 7.203124 2.023437 9.617187-.875l34.132813-40.960938c2.414062-2.894531 2.023437-7.203125-.875-9.617188-2.894532-2.410156-7.199219-2.019531-9.613282.875"/><path d="m129.226562 179.945312-34.132812 40.960938c-2.414062 2.894531-2.023438 7.203125.875 9.617188 2.894531 2.414062 7.199219 2.023437 9.613281-.875l34.136719-40.960938c2.410156-2.894531 2.019531-7.203125-.875-9.617188-2.898438-2.410156-7.203125-2.019531-9.617188.875"/><path d="m177.015625 179.945312-34.132813 40.960938c-2.414062 2.894531-2.023437 7.203125.871094 9.617188 2.898438 2.414062 7.203125 2.023437 9.617188-.875l34.132812-40.960938c2.414063-2.894531 2.023438-7.203125-.875-9.617188-2.898437-2.410156-7.203125-2.019531-9.613281.875"/><path d="m224.800781 179.945312-34.132812 40.960938c-2.414063 2.894531-2.023438 7.203125.875 9.617188 2.894531 2.414062 7.199219 2.023437 9.613281-.875l34.132812-40.960938c2.414063-2.894531 2.023438-7.203125-.871093-9.617188-2.898438-2.410156-7.203125-2.019531-9.617188.875"/><path d="m272.585938 179.945312-34.132813 40.960938c-2.410156 2.894531-2.019531 7.203125.875 9.617188 2.894531 2.414062 7.199219 2.023437 9.617187-.875l34.132813-40.960938c2.410156-2.894531 2.019531-7.203125-.875-9.617188-2.898437-2.410156-7.203125-2.019531-9.617187.875"/></g><path d="m277.832031 286.71875h-225.28125v34.132812c0 7.542969 6.113281 13.65625 13.65625 13.65625 7.539063 0 13.652344-6.113281 13.652344-13.65625v-13.652343h197.972656zm0 0" fill="#fff"/><path d="m277.832031 286.71875v-6.824219h-225.28125c-1.796875 0-3.554687.726563-4.828125 1.996094-1.269531 1.273437-1.996094 3.027344-1.996094 4.828125v34.132812c.003907 11.316407 9.164063 20.476563 20.480469 20.476563 11.3125 0 20.472657-9.160156 20.480469-20.476563v-6.832031l191.144531.003907c1.824219 0 3.535157-.707032 4.828125-1.996094 1.289063-1.292969 2-3.003906 2-4.828125v-20.480469c0-1.800781-.730468-3.554688-2-4.828125-1.269531-1.269531-3.027344-1.996094-4.828125-1.996094v6.824219h-6.824219v13.652344l-191.148437.003906c-1.796875 0-3.554687.726562-4.828125 1.996094-1.269531 1.273437-1.996094 3.027344-1.996094 4.828125v13.652343c-.007812 3.765626-3.0625 6.816407-6.828125 6.828126-3.765625-.011719-6.820312-3.0625-6.828125-6.828126v-27.304687l20.480469-.003906h197.972656v-6.824219h-6.824219zm0 0" fill="#54596e"/><path d="m277.832031 225.28125h-218.453125v20.480469h150.1875v13.652343c0 7.539063 6.113282 13.652344 13.652344 13.652344s13.652344-6.113281 13.652344-13.652344v-13.652343h40.960937zm0 0" fill="#fff"/><path d="m277.832031 225.28125v-6.828125h-218.453125c-1.796875 0-3.558594.726563-4.828125 1.996094-1.269531 1.273437-2 3.03125-2 4.832031v20.480469c0 1.820312.710938 3.535156 2 4.824219 1.292969 1.289062 3.003907 1.996093 4.828125 1.996093h143.359375v6.832031c.003907 11.3125 9.167969 20.472657 20.480469 20.476563 11.3125-.003906 20.476562-9.164063 20.480469-20.476563v-6.835937l34.132812.003906c1.824219 0 3.535157-.707031 4.828125-1.996093 1.289063-1.289063 2-3.003907 2-4.824219v-20.480469c0-1.800781-.730468-3.558594-2-4.832031-1.269531-1.269531-3.027344-1.996094-4.828125-1.996094v6.828125h-6.824219v13.648438l-34.132812.003906c-1.796875 0-3.558594.726562-4.828125 1.996094-1.273437 1.273437-2 3.03125-2 4.832031v13.652343c-.007813 3.761719-3.058594 6.816407-6.828125 6.824219-3.765625-.007812-6.816406-3.0625-6.824219-6.824219v-13.652343c0-1.800781-.730469-3.558594-2-4.832031-1.273437-1.269532-3.03125-1.996094-4.828125-1.996094h-143.363281v-6.832032h143.359375l27.308594.003907 40.960937-.003907v-6.820312h-6.828125zm0 0" fill="#54596e"/></svg>