<svg height="395.95008pt" viewBox="0 0 395.95008 395.95008" width="395.95008pt" xmlns="http://www.w3.org/2000/svg"><path d="m389.117188 197.980469c0-105.570313-85.578126-191.148438-191.144532-191.148438-105.5625 0-191.140625 85.578125-191.140625 191.148438 0 105.566406 85.578125 191.144531 191.140625 191.144531 105.566406 0 191.144532-85.578125 191.144532-191.144531" fill="#9af43b"/><path d="m389.117188 197.980469h6.832031c-.007813-109.347657-88.632813-197.9726565-197.976563-197.980469-109.339844.0078125-197.9648435 88.632812-197.972656 197.980469.0078125 109.335937 88.632812 197.960937 197.972656 197.96875 109.34375-.007813 197.96875-88.632813 197.976563-197.96875h-13.652344c-.007813 50.917969-20.625 96.949219-53.988281 130.328125-33.382813 33.363281-79.410156 53.976562-130.335938 53.988281-50.917968-.011719-96.953125-20.625-130.332031-53.988281-33.363281-33.378906-53.984375-79.410156-53.984375-130.328125 0-50.925781 20.621094-96.960938 53.984375-130.339844 33.378906-33.363281 79.414063-53.976563 130.332031-53.988281 50.925782.011718 96.957032 20.625 130.335938 53.988281 33.363281 33.378906 53.976562 79.414063 53.988281 130.339844z" fill="#54596e"/><path d="m389.117188 197.980469c0-105.570313-85.578126-191.148438-191.144532-191.148438-105.5625 0-191.140625 85.578125-191.140625 191.148438 0 105.566406 85.578125 191.144531 191.140625 191.144531 105.566406 0 191.144532-85.578125 191.144532-191.144531" fill="#9af43b"/><path d="m389.117188 197.980469h6.832031c-.007813-109.347657-88.632813-197.9726565-197.976563-197.980469-109.339844.0078125-197.9648435 88.632812-197.972656 197.980469.0078125 109.335937 88.632812 197.960937 197.972656 197.96875 109.34375-.007813 197.96875-88.632813 197.976563-197.96875h-13.652344c-.007813 50.917969-20.625 96.949219-53.988281 130.328125-33.382813 33.363281-79.410156 53.976562-130.335938 53.988281-50.917968-.011719-96.953125-20.625-130.332031-53.988281-33.363281-33.378906-53.984375-79.410156-53.984375-130.328125 0-50.925781 20.621094-96.960938 53.984375-130.339844 33.378906-33.363281 79.414063-53.976563 130.332031-53.988281 50.925782.011718 96.957032 20.625 130.335938 53.988281 33.363281 33.378906 53.976562 79.414063 53.988281 130.339844z" fill="#54596e"/><path d="m13.972656 208.894531c2.71875 46.566407 22.707032 88.433594 53.667969 119.414063 33.378906 33.363281 79.414063 53.976562 130.332031 53.988281 50.925782-.011719 96.957032-20.625 130.335938-53.988281 30.960937-30.976563 50.945312-72.847656 53.667968-119.410156-22.609374 80.359374-96.417968 139.261718-184.003906 139.261718-87.585937 0-161.394531-58.90625-184-139.265625" fill="#8cd545"/><path d="m7.933594 177.5c-.71875 6.726562-1.101563 13.554688-1.101563 20.480469 0 105.566406 85.578125 191.144531 191.140625 191.144531 105.566406 0 191.144532-85.578125 191.144532-191.144531h-4.414063c-.804687 3.675781-1.71875 7.324219-2.726563 10.917969-2.722656 46.5625-22.707031 88.433593-53.667968 119.410156-33.382813 33.363281-79.410156 53.976562-130.335938 53.988281-50.917968-.011719-96.953125-20.625-130.332031-53.988281-30.960937-30.976563-50.949219-72.847656-53.667969-119.414063-2.855468-10.144531-4.894531-20.636719-6.039062-31.394531m380.082031 0c-.738281 6.941406-1.851563 13.777344-3.3125 20.480469h4.414063c0-6.925781-.382813-13.753907-1.101563-20.480469" fill="#54596e"/><path d="m41.613281 307.929688s-10.894531-79.234376 50.546875-120.191407c61.441406-40.960937 136.53125 27.304688 136.53125 27.304688 34.136719-81.917969 40.960938-61.441407 109.230469-81.917969 68.265625-20.480469 27.304687-95.574219 27.304687-95.574219s-12.6875 27.453125-105.332031-20.40625" fill="#9af43b"/><path d="m48.378906 307-.023437-.15625c-.113281-.933594-.664063-5.78125-.664063-13.097656-.003906-11.796875 1.445313-29.996094 8.226563-48.585938 6.804687-18.621094 18.753906-37.542968 40.027343-51.742187 13.011719-8.652344 26.425782-11.929688 39.839844-11.953125 22.316406-.042969 44.605469 9.480468 61.171875 19.261718 8.28125 4.871094 15.128907 9.761719 19.875 13.414063 2.371094 1.820313 4.21875 3.339844 5.457031 4.382813.621094.523437 1.089844.925781 1.394532 1.195312l.335937.296875.085938.074219c1.636719 1.488281 3.914062 2.097656 6.074219 1.613281 2.164062-.480469 3.96875-1.996094 4.820312-4.039063 8.457031-20.308593 15.183594-34.089843 21.273438-43.359374 4.574218-6.96875 8.699218-11.34375 12.984374-14.46875 3.230469-2.335938 6.621094-4.019532 10.691407-5.46875 12.152343-4.402344 30.605469-5.9375 59.9375-14.707032 16.65625-4.964844 28.113281-13.382812 35.058593-23.59375 6.96875-10.203125 9.304688-21.753906 9.296876-32.546875-.011719-12.992187-3.285157-25.132812-6.488282-34.144531-3.214844-9.003906-6.410156-14.871094-6.53125-15.097656-1.230468-2.253906-3.648437-3.640625-6.21875-3.550782-2.566406.082032-4.890625 1.621094-5.972656 3.953126l3.359375 1.550781-3.148437-1.953125-.210938.402344 3.359375 1.550781-3.148437-1.957031.097656.058593-.09375-.0625v.003907l.09375.058593-.089844-.0625c-.085938.101563-.726562 1.039063-2.875 2.089844-2.148438 1.035156-5.914062 2.1875-12.269531 2.191406-13.476563.042969-38.484375-5.445312-81.074219-27.480469-3.351562-1.734374-7.46875-.414062-9.199219 2.933594-1.730469 3.351563-.414062 7.46875 2.933594 9.203125 43.699219 22.527344 70.300781 28.953125 87.339844 28.996094 9.75.011719 16.441406-2.21875 20.78125-4.972656 4.347656-2.742188 6.125-5.882813 6.542969-6.820313l-6.203126-2.859375-5.992187 3.265625.09375.171875c.550781 1.042969 3.417969 6.644531 6.101563 14.519531 2.699218 7.875 5.171874 18.027344 5.160156 28.011719-.007813 8.90625-1.898438 17.5-6.921875 24.847657-5.042969 7.335937-13.335938 13.871093-27.707031 18.21875-16.742188 5.019531-29.652344 7.519531-40.496094 9.773437-8.128906 1.695313-15.148438 3.234375-21.738282 5.757813-9.910156 3.722656-18.511718 10.066406-26.265624 20.914062-7.828126 10.859375-15.375 26.160156-25.066407 49.390625l6.300781 2.625 4.59375-5.054687c-.234374-.207032-11.640624-10.570313-29.40625-21.03125-17.773437-10.417969-41.9375-21.097657-68.09375-21.140626-15.667968-.019531-32.066406 3.984376-47.414062 14.238282-24.078125 16.03125-37.777344 37.773437-45.28125 58.429687-7.523438 20.6875-9.042969 40.375-9.050781 53.261719 0 9.140625.777343 14.867188.8125 15.109375.511719 3.734375 3.953125 6.347656 7.691406 5.839844 3.734375-.515625 6.347656-3.957031 5.835937-7.691407zm0 0" fill="#54596e"/><path d="m256 372.058594s-2.144531-22.792969-28.378906-38.703125" fill="#9af43b"/><path d="m262.796875 371.414062c-.0625-.605468-.738281-7.105468-5.035156-15.777343-4.277344-8.65625-12.296875-19.460938-26.601563-28.121094-3.222656-1.957031-7.425781-.925781-9.378906 2.300781-1.957031 3.222656-.925781 7.425782 2.300781 9.378906 11.929688 7.246094 18.101563 15.792969 21.453125 22.511719 1.664063 3.351563 2.601563 6.246094 3.109375 8.230469.253907.996094.402344 1.757812.484375 2.238281l.074219.496094.007813.074219 2.90625-.324219-2.910157.273437.003907.050782 2.90625-.324219-2.910157.273437c.351563 3.753907 3.683594 6.511719 7.433594 6.15625 3.753906-.355468 6.511719-3.683593 6.15625-7.433593zm0 0" fill="#54596e"/><path d="m92.160156 310.617188s-30.4375-12.492188-45.9375-57.445313" fill="#9af43b"/><path d="m94.753906 304.300781-1.511718 3.683594 1.542968-3.671875-.03125-.011719-1.511718 3.683594 1.542968-3.671875c-.003906 0-.390625-.164062-1.164062-.554688-5.464844-2.828124-28.265625-16.109374-40.945313-52.8125-1.230469-3.566406-5.117187-5.460937-8.679687-4.230468-3.566406 1.230468-5.460938 5.117187-4.230469 8.683594 8.128906 23.601562 20.34375 38.984374 30.628906 48.386718 10.289063 9.417969 18.609375 12.914063 19.175781 13.144532 3.484376 1.433593 7.472657-.234376 8.90625-3.722657 1.429688-3.484375-.234374-7.472656-3.722656-8.902343zm0 0" fill="#54596e"/><path d="m249.175781 105.816406s-54.613281-13.652344-88.746093 0c-34.132813 13.652344-141.046876 23.996094-141.046876 23.996094" fill="#9af43b"/><path d="m250.832031 99.191406c-.304687-.058594-24.910156-6.257812-52.226562-6.273437-13.671875.015625-28.070313 1.515625-40.71875 6.5625-7.707031 3.097656-20.597657 6.308593-35.203125 9.140625-21.960938 4.285156-48.007813 7.894531-68.511719 10.421875-10.253906 1.261719-19.125 2.257812-25.429687 2.9375-6.304688.675781-10.011719 1.035156-10.019532 1.035156-3.753906.359375-6.503906 3.699219-6.140625 7.453125s3.703125 6.5 7.457031 6.140625c.054688-.011719 26.851563-2.601563 58-6.914063 15.582032-2.160156 32.246094-4.746093 47.257813-7.671874 15.039063-2.945313 28.3125-6.148438 37.664063-9.871094 10.109374-4.078125 23.019531-5.601563 35.644531-5.585938 12.625 0 24.949219 1.46875 34.050781 2.949219 4.554688.742187 8.304688 1.476563 10.898438 2.027344 1.296874.277343 2.304687.503906 2.980468.660156l.757813.179687.226562.054688c3.652344.914062 7.359375-1.3125 8.277344-4.964844.914063-3.65625-1.308594-7.359375-4.964844-8.277344zm0 0" fill="#54596e"/><path d="m146.773438 160.429688s-18.164063-16.207032-12.492188-45.648438" fill="#9af43b"/><path d="m151.316406 155.332031c-.371094-.34375-3.265625-3.1875-5.992187-8.164062-2.726563-4.992188-5.3125-12.042969-5.316407-21.195313 0-3.054687.289063-6.351562.976563-9.898437.710937-3.703125-1.707031-7.285157-5.410156-7.996094-3.703125-.71875-7.28125 1.703125-7.996094 5.410156-.847656 4.386719-1.222656 8.566407-1.222656 12.484375-.003907 12.570313 3.851562 22.417969 7.726562 29.039063 3.882813 6.644531 7.765625 10.160156 8.148438 10.511719 2.8125 2.511718 7.128906 2.261718 9.636719-.550782 2.511718-2.8125 2.265624-7.125-.546876-9.636718zm0 0" fill="#54596e"/><path d="m201.386719 153.601562s-13.652344-27.304687-40.957031-47.785156" fill="#9af43b"/><path d="m207.492188 150.550781c-.289063-.492187-14.242188-28.585937-42.96875-50.195312-3.019532-2.265625-7.296876-1.652344-9.558594 1.367187-2.261719 3.015625-1.652344 7.292969 1.367187 9.558594 12.925781 9.683594 22.757813 21.128906 29.292969 30.121094 3.269531 4.496094 5.714844 8.371094 7.328125 11.09375.804687 1.363281 1.40625 2.433594 1.792969 3.148437l.425781.796875.09375.183594.015625.03125c1.683594 3.371094 5.78125 4.738281 9.15625 3.050781 3.371094-1.683593 4.738281-5.78125 3.054688-9.152343zm0 0" fill="#54596e"/><path d="m283.308594 78.511719s-79.527344-57.546875-227.492188-8.292969" fill="#9af43b"/><path d="m287.308594 72.976562c-.796875-.589843-41.226563-29.527343-117.203125-29.519531-32.492188-.003906-71.445313 5.289063-116.449219 20.28125-3.578125 1.1875-5.515625 5.054688-4.324219 8.636719 1.191407 3.578125 5.058594 5.511719 8.636719 4.324219 43.683594-14.554688 81.125-19.589844 112.136719-19.59375 36.230469.003906 63.699219 6.886719 82.050781 13.691406 9.171875 3.398437 16.0625 6.785156 20.609375 9.28125 2.273437 1.25 3.957031 2.277344 5.050781 2.972656l1.191406.785157.257813.175781.046875.035156.972656-1.367187-.984375 1.359374.011719.007813.972656-1.367187-.984375 1.359374c3.050781 2.210938 7.320313 1.523438 9.53125-1.527343 2.210938-3.054688 1.523438-7.320313-1.527343-9.53125zm0 0" fill="#54596e"/><path d="m249.175781 30.722656s-13.652343 13.652344-47.789062 20.480469" fill="#9af43b"/><path d="m244.347656 25.894531-.007812.003907c-.839844.769531-13.59375 12.457031-44.292969 18.609374-3.695313.734376-6.097656 4.335938-5.355469 8.03125.738282 3.699219 4.335938 6.097657 8.035156 5.359376 35.527344-7.085938 50.492188-21.542969 51.273438-22.347657 2.667969-2.667969 2.667969-6.992187 0-9.65625-2.664062-2.664062-6.988281-2.664062-9.652344.003907zm0 0" fill="#54596e"/><path d="m116.054688 238.9375s-3.339844 102.148438 76.839843 150.058594" fill="#9af43b"/><path d="m109.230469 238.703125c0 .074219-.023438.753906-.023438 1.96875.011719 7.296875.730469 33.964844 11.027344 64.851563 10.273437 30.832031 30.355469 66.140624 69.15625 89.328124 3.234375 1.933594 7.425781.882813 9.359375-2.355468 1.933594-3.234375.882812-7.425782-2.351562-9.355469-35.214844-21.054687-53.5625-53.082031-63.214844-81.941406-9.628906-28.808594-10.332032-54.179688-10.324219-60.527344l.011719-1.175781.007812-.328125c.125-3.769531-2.824218-6.929688-6.59375-7.054688-3.769531-.125-6.925781 2.824219-7.050781 6.59375zm0 0" fill="#54596e"/><path d="m58.574219 223.417969s57.480469 29.171875 98.441406 8.691406" fill="#9af43b"/><g fill="#54596e"><path d="m55.484375 229.503906c.21875.105469 8.363281 4.234375 20.800781 8.378906 12.445313 4.132813 29.167969 8.328126 46.753906 8.339844 12.335938 0 25.171876-2.097656 37.023438-8.003906 3.371094-1.6875 4.742188-5.785156 3.058594-9.15625-1.683594-3.375-5.785156-4.742188-9.15625-3.058594-9.433594 4.714844-20.113282 6.570313-30.925782 6.570313-15.386718.007812-30.894531-3.789063-42.441406-7.644531-5.773437-1.925782-10.5625-3.851563-13.878906-5.28125-1.660156-.71875-2.949219-1.3125-3.8125-1.71875l-.964844-.464844-.277344-.136719c-3.363281-1.707031-7.472656-.363281-9.179687 3s-.359375 7.472656 3.003906 9.179687zm0 0"/><path d="m361.816406 170.671875c0 7.539063-6.113281 13.652344-13.65625 13.652344-7.539062 0-13.652344-6.113281-13.652344-13.652344 0-7.542969 6.113282-13.65625 13.652344-13.65625 7.542969 0 13.65625 6.113281 13.65625 13.65625zm0 0"/><path d="m279.894531 197.976562c0 7.539063-6.113281 13.652344-13.652343 13.652344-7.539063 0-13.652344-6.113281-13.652344-13.652344 0-7.539062 6.113281-13.652343 13.652344-13.652343 7.539062 0 13.652343 6.113281 13.652343 13.652343zm0 0"/><path d="m286.667969 229.503906c13.359375 38.546875 34.085937 53.371094 50.085937 49.90625 16.191406-3.507812 15.761719-33.273437 11.660156-74.605468zm0 0"/></g></svg>