<svg height="430pt" viewBox="0 -7 430.08341 430" width="430pt" xmlns="http://www.w3.org/2000/svg"><path d="m204.804688 309.484375c0-54.660156-44.316407-98.984375-98.984376-98.984375-54.675781 0-98.992187 44.324219-98.992187 98.984375 0 54.664063 44.316406 98.992187 98.992187 98.992187 54.667969 0 98.984376-44.328124 98.984376-98.992187" fill="#ff927d"/><path d="m204.804688 309.484375h6.824218c-.007812-58.433594-47.367187-105.8125-105.808594-105.8125-58.441406 0-105.8124995 47.378906-105.820312 105.8125.0078125 58.441406 47.378906 105.808594 105.820312 105.808594 58.441407 0 105.800782-47.367188 105.808594-105.808594h-13.652344c-.007812 25.46875-10.304687 48.46875-26.992187 65.164063-16.703125 16.6875-39.695313 26.992187-65.164063 27-25.472656-.007813-48.472656-10.3125-65.167968-27-16.6875-16.695313-26.992188-39.695313-26.992188-65.164063 0-25.472656 10.304688-48.464844 26.992188-65.167969 16.695312-16.6875 39.695312-26.984375 65.167968-26.992187 25.46875.007812 48.460938 10.304687 65.164063 26.992187 16.6875 16.703125 26.984375 39.695313 26.992187 65.167969z" fill="#54596e"/><path d="m225.28125 254.871094c0-54.660156 44.316406-98.984375 98.992188-98.984375 54.667968 0 98.984374 44.324219 98.984374 98.984375 0 54.664062-44.316406 98.992187-98.984374 98.992187-54.675782 0-98.992188-44.328125-98.992188-98.992187" fill="#ff927d"/><path d="m225.28125 254.871094h6.824219c.007812-25.472656 10.304687-48.464844 26.992187-65.167969 16.703125-16.6875 39.695313-26.984375 65.175782-26.992187 25.46875.007812 48.460937 10.304687 65.164062 26.992187 16.6875 16.703125 26.984375 39.695313 26.996094 65.167969-.011719 25.46875-10.308594 48.46875-26.996094 65.164062-16.703125 16.6875-39.695312 26.992188-65.164062 27-25.480469-.007812-48.472657-10.3125-65.175782-27-16.6875-16.695312-26.984375-39.695312-26.992187-65.164062h-13.652344c.011719 58.441406 47.371094 105.808594 105.820313 105.808594 58.441406 0 105.804687-47.367188 105.808593-105.808594-.007812-58.433594-47.367187-105.8125-105.808593-105.8125-58.449219 0-105.808594 47.378906-105.820313 105.8125z" fill="#54596e"/><path d="m386.429688 186.828125c10.320312 15.601563 16.34375 34.285156 16.34375 54.390625 0 54.667969-44.320313 98.984375-98.988282 98.984375-6.28125 0-12.421875-.601563-18.371094-1.738281 11.800782 5.496094 24.957032 8.566406 38.855469 8.570312 25.472657-.007812 48.464844-10.3125 65.167969-27 16.6875-16.695312 26.984375-39.699218 26.992188-65.167968-.007813-25.46875-10.304688-48.460938-26.992188-65.167969-.980469-.976563-1.984375-1.9375-3.007812-2.871094" fill="#dd877a"/><path d="m368.464844 166.398438c6.878906 5.949218 12.933594 12.820312 17.964844 20.429687 1.023437.933594 2.027343 1.894531 3.007812 2.875 16.6875 16.703125 26.984375 39.699219 26.996094 65.167969-.011719 25.46875-10.308594 48.46875-26.996094 65.167968-16.703125 16.683594-39.695312 26.992188-65.164062 27-13.898438-.003906-27.058594-3.074218-38.855469-8.570312-9.109375-1.738281-17.773438-4.734375-25.832031-8.769531 17.355468 15.015625 39.929687 24.164062 64.6875 24.164062 54.667968 0 98.984374-44.324219 98.984374-98.992187 0-38.757813-22.332031-72.226563-54.792968-88.472656" fill="#54596e"/><path d="m167.988281 241.453125c10.316407 15.597656 16.339844 34.277344 16.339844 54.378906 0 54.667969-44.316406 98.984375-98.992187 98.984375-6.285157 0-12.421876-.601562-18.375-1.738281 11.804687 5.496094 24.964843 8.566406 38.859374 8.570313 25.46875-.007813 48.464844-10.3125 65.167969-27 16.6875-16.695313 26.984375-39.699219 26.992188-65.167969h6.824219-6.824219c-.007813-25.46875-10.304688-48.460938-26.992188-65.167969-.980469-.972656-1.980469-1.929688-3-2.859375" fill="#dd877a"/><path d="m204.804688 309.484375h-6.828126c-.007812 25.46875-10.304687 48.46875-26.992187 65.164063-16.703125 16.6875-39.695313 26.992187-65.164063 27-13.894531-.003907-27.058593-3.074219-38.859374-8.566407-9.109376-1.742187-17.769532-4.742187-25.828126-8.773437 17.355469 15.019531 39.929688 24.167968 64.6875 24.167968 54.667969 0 98.984376-44.328124 98.984376-98.992187m-54.785157-88.472656c6.878907 5.949219 12.933594 12.828125 17.96875 20.441406 1.019531.929687 2.019531 1.886719 2.996094 2.863281 16.6875 16.703125 26.984375 39.699219 26.992187 65.167969h6.828126c0-38.757813-22.335938-72.226563-54.785157-88.472656" fill="#54596e"/><path d="m122.800781 264.046875-.085937-.5625c-.402344-2.808594-2.109375-15.839844-2.109375-33.769531-.007813-20.496094 2.253906-47.382813 11.003906-72.613282 8.773437-25.277343 23.777344-48.675781 49.328125-63.585937 3.253906-1.898437 4.355469-6.078125 2.457031-9.335937-1.902343-3.257813-6.082031-4.359376-9.335937-2.457032-29.066406 16.9375-45.921875 43.601563-55.351563 70.914063-9.457031 27.359375-11.742187 55.59375-11.753906 77.078125.003906 21.476562 2.320313 36.207031 2.359375 36.460937.585938 3.722657 4.082031 6.265625 7.804688 5.675781 3.726562-.585937 6.269531-4.078124 5.679687-7.800781zm0 0" fill="#54596e"/><path d="m98.988281 254.871094s6.828125 13.65625 40.960938 13.65625" fill="#ff927d"/><path d="m92.882812 257.921875c.484376 1.019531 3.1875 5.601563 10.398438 9.703125 7.207031 4.121094 18.707031 7.730469 36.667969 7.722656 3.769531 0 6.824219-3.054687 6.824219-6.820312 0-3.769532-3.054688-6.824219-6.824219-6.824219-16.171875-.011719-25.152344-3.226563-29.894531-5.933594-2.375-1.359375-3.722657-2.605469-4.433594-3.378906l-.621094-.765625-.035156-.054688-2.417969 1.527344 2.550781-1.277344-.132812-.25-2.417969 1.527344 2.550781-1.277344c-1.6875-3.375-5.789062-4.742187-9.160156-3.054687s-4.738281 5.789063-3.054688 9.160156zm0 0" fill="#54596e"/><path d="m320.59375 208.625c-.105469-.363281-7.082031-24.722656-24.53125-55.273438-17.453125-30.523437-45.417969-67.355468-87.820312-92.113281-3.257813-1.898437-7.4375-.800781-9.339844 2.460938-1.898438 3.253906-.796875 7.4375 2.460937 9.339843 39.519531 23.027344 66.167969 57.875 82.847657 87.085938 8.335937 14.589844 14.183593 27.742188 17.921874 37.203125 1.871094 4.730469 3.21875 8.539063 4.089844 11.136719.433594 1.300781.753906 2.300781.957032 2.964844l.222656.734374.0625.207032c1.035156 3.625 4.8125 5.722656 8.4375 4.691406 3.625-1.035156 5.726562-4.8125 4.691406-8.4375zm0 0" fill="#54596e"/><path d="m331.09375 200.257812s-6.824219 13.65625-40.957031 13.65625" fill="#ff927d"/><path d="m324.992188 197.207031 3.664062 1.828125-3.542969-2.0625-.121093.234375 3.664062 1.828125-3.542969-2.0625.371094.214844-.359375-.230469-.011719.015625.371094.214844-.359375-.230469c-.066406.078125-1.488281 2.433594-6.511719 4.953125-5.027343 2.511719-13.789062 5.171875-28.476562 5.175782-3.769531 0-6.828125 3.050781-6.828125 6.824218 0 3.769532 3.058594 6.828125 6.828125 6.828125 17.960937.003907 29.460937-3.605469 36.667969-7.726562 7.210937-4.101563 9.914062-8.6875 10.398437-9.703125 1.683594-3.375.3125-7.476563-3.058594-9.15625-3.371093-1.6875-7.472656-.320313-9.15625 3.054687zm0 0" fill="#54596e"/><path d="m187.207031 14.566406c-25.117187-12.546875-53.980469-9.21875-75.289062 6.117188.542969 26.246094 15.230469 51.316406 40.347656 63.855468 25.117187 12.542969 53.980469 9.21875 75.292969-6.117187-.550782-26.246094-15.234375-51.316406-40.351563-63.855469zm0 0" fill="#9af43b"/><path d="m187.207031 14.566406 3.050781-6.109375c-11.417968-5.707031-23.585937-8.4179685-35.550781-8.4140622-16.78125 0-33.175781 5.3007812-46.777343 15.0976562-1.816407 1.308594-2.882813 3.445313-2.839844 5.679687.589844 28.683594 16.660156 56.109376 44.128906 69.824219 11.417969 5.699219 23.585938 8.40625 35.550781 8.40625 16.78125 0 33.171875-5.316406 46.769531-15.085937 1.816407-1.308594 2.886719-3.453125 2.84375-5.6875-.589843-28.679688-16.664062-56.105469-44.128906-69.820313l-3.046875 6.109375-3.050781 6.105469c22.773438 11.363281 36.066406 34.078125 36.574219 57.890625l6.824219-.140625-3.984376-5.546875c-11.277343 8.109375-24.910156 12.523438-38.804687 12.523438-9.914063-.003907-19.957031-2.230469-29.453125-6.96875-22.773438-11.363282-36.066406-34.078126-36.574219-57.890626l-6.824219.144532 3.988282 5.535156c11.273437-8.117188 24.90625-12.527344 38.800781-12.527344 9.914063.003906 19.953125 2.238282 29.449219 6.980469zm0 0" fill="#54596e"/><path d="m150.523438 60.246094c-26.632813 8.894531-44.6875 31.652344-48.914063 57.5625 18.949219 18.175781 47.058594 25.519531 73.6875 16.625 26.628906-8.894532 44.6875-31.652344 48.910156-57.566406-18.945312-18.171876-47.058593-25.515626-73.683593-16.621094zm0 0" fill="#adf2a2"/><g fill="#54596e"><path d="m150.523438 60.246094-2.164063-6.476563c-29.117187 9.726563-48.878906 34.625-53.488281 62.941407-.359375 2.207031.398437 4.476562 2.011718 6.023437 14.761719 14.152344 34.574219 22.285156 55.320313 22.289063 8.375.003906 16.890625-1.332032 25.25-4.113282l.007813-.003906c29.113281-9.726562 48.878906-34.625 53.484374-62.941406.359376-2.207032-.398437-4.476563-2.011718-6.019532-14.757813-14.15625-34.574219-22.296874-55.320313-22.300781-8.371093-.003906-16.894531 1.324219-25.261719 4.128907l.007813-.003907 2.164063 6.476563 2.167968 6.46875c6.949219-2.324219 13.992188-3.417969 20.921875-3.421875 17.152344-.003907 33.632813 6.757812 45.867188 18.5l4.722656-4.925781-6.734375-1.097657c-3.84375 23.503907-20.195312 44.125-44.335938 52.183594h.007813c-6.964844 2.316406-14.011719 3.414063-20.9375 3.417969-17.15625.003906-33.632813-6.757813-45.871094-18.492188l-4.722656 4.929688 6.738281 1.097656c3.84375-23.507812 20.191406-44.125 44.335938-52.1875l.007812-.003906zm0 0"/><path d="m62.285156 345.269531c8.980469 9.75 23.652344 15.355469 40.117188 15.414063 16.304687-.054688 30.839844-5.554688 39.84375-15.128906 2.566406-2.761719 2.40625-7.082032-.355469-9.644532-2.765625-2.5625-7.082031-2.402344-9.644531.359375-5.4375 5.972657-16.707032 10.816407-29.84375 10.765625-13.265625.054688-24.632813-4.898437-30.011719-10.949218-2.535156-2.792969-6.855469-2.996094-9.644531-.457032-2.789063 2.535156-2.992188 6.851563-.457032 9.644532zm0 0"/><path d="m88.75 302.660156c0 5.65625-4.585938 10.238282-10.242188 10.238282s-10.238281-4.582032-10.238281-10.238282 4.582031-10.242187 10.238281-10.242187 10.242188 4.585937 10.242188 10.242187zm0 0"/><path d="m136.535156 302.660156c0 5.65625-4.585937 10.238282-10.238281 10.238282-5.65625 0-10.242187-4.582032-10.242187-10.238282s4.585937-10.242187 10.242187-10.242187c5.652344 0 10.238281 4.585937 10.238281 10.242187zm0 0"/><path d="m367.578125 294.652344c-8.976563-9.75-23.644531-15.355469-40.113281-15.410156-16.304688.050781-30.839844 5.550781-39.847656 15.117187-2.566407 2.761719-2.410157 7.078125.351562 9.648437 2.761719 2.566407 7.078125 2.410157 9.648438-.347656 5.4375-5.976562 16.710937-10.824218 29.847656-10.773437 13.265625-.054688 24.628906 4.898437 30.003906 10.949219 2.535156 2.789062 6.851562 2.996093 9.644531.460937 2.789063-2.535156 2.996094-6.851563.460938-9.640625zm0 0"/><path d="m314.027344 248.046875c0 5.65625-4.582032 10.238281-10.238282 10.238281s-10.242187-4.582031-10.242187-10.238281 4.585937-10.242187 10.242187-10.242187 10.238282 4.585937 10.238282 10.242187zm0 0"/><path d="m361.816406 248.046875c0 5.65625-4.585937 10.238281-10.242187 10.238281s-10.238281-4.582031-10.238281-10.238281 4.582031-10.242187 10.238281-10.242187 10.242187 4.585937 10.242187 10.242187zm0 0"/></g></svg>