<svg height="402pt" viewBox="0 0 402 402.46957" width="402pt" xmlns="http://www.w3.org/2000/svg"><path d="m204.976562 332.894531-135.160156-135.164062 182.527344-182.527344c11.164062-11.164063 29.265625-11.164063 40.429688 0l94.734374 94.734375c11.160157 11.164062 11.160157 29.261719 0 40.425781zm0 0" fill="#bfad88"/><g fill="#54596e"><path d="m204.976562 332.894531 4.824219-4.832031-130.332031-130.335938 177.699219-177.695312c4.269531-4.265625 9.796875-6.371094 15.390625-6.378906 5.589844.007812 11.121094 2.113281 15.386718 6.375l94.734376 94.738281c4.261718 4.261719 6.363281 9.789063 6.371093 15.378906-.007812 5.585938-2.109375 11.113281-6.375 15.398438l-182.527343 182.519531 4.828124 4.832031 4.824219-4.832031-4.824219 4.832031 4.824219 4.824219 182.535157-182.527344c6.898437-6.910156 10.375-16.011718 10.367187-25.046875.007813-9.042969-3.46875-18.140625-10.367187-25.039062l-94.734376-94.730469c-6.898437-6.910156-16.003906-10.3867188-25.042968-10.375-9.042969-.0117188-18.148438 3.472656-25.042969 10.375l-182.527344 182.523438c-1.273437 1.269531-2 3.03125-2 4.832031 0 1.796875.730469 3.550781 2 4.824219l135.160157 135.164062c1.285156 1.285156 3.003906 1.996094 4.828124 1.996094 1.824219 0 3.535157-.710938 4.824219-1.996094zm0 0"/><path d="m243.59375 110.839844c-7.578125 17.492187-6.964844 34.859375 3.300781 45.125 10.160157 10.164062 27.28125 10.863281 44.59375 3.523437zm0 0"/><path d="m268.316406 81.878906c0 5.65625-4.585937 10.238282-10.242187 10.238282s-10.238281-4.582032-10.238281-10.238282 4.582031-10.238281 10.238281-10.238281 10.242187 4.582031 10.242187 10.238281zm0 0"/><path d="m331.070312 144.632812c0 5.65625-4.585937 10.242188-10.242187 10.242188s-10.238281-4.585938-10.238281-10.242188 4.582031-10.238281 10.238281-10.238281 10.242187 4.582031 10.242187 10.238281zm0 0"/></g><path d="m254.933594 248.238281c-8.199219-5.558593-19.351563-3.878906-26.359375 3.128907l-35.664063 35.664062c-6.667968 6.667969-17.46875 6.667969-24.136718 0-6.664063-6.664062-6.664063-17.46875 0-24.132812l59.800781-59.808594c7.007812-7.003906 8.6875-18.160156 3.132812-26.355469-7.484375-11.027344-22.617187-12.074219-31.558593-3.140625l-60.339844 60.335938c-6.660156 6.667968-17.464844 6.667968-24.132813 0-6.667969-6.660157-6.667969-17.46875 0-24.132813l21.1875-21.1875c7-7.003906 8.6875-18.160156 3.125-26.359375-7.480469-11.027344-22.621093-12.070312-31.550781-3.140625l-33.796875 33.792969-25.703125 25.707031-8.082031 8.082031.90625.910156c-12.871094 20.257813-10.503907 47.414063 7.175781 65.09375l61.070312 61.074219c20.460938 20.460938 53.628907 20.460938 74.085938 0l1.574219-1.574219 24.136719-24.132812 48.273437-48.273438c8.929687-8.929687 7.882813-24.070312-3.144531-31.550781zm0 0" fill="#ffb8f2"/><path d="m254.933594 248.238281 3.832031-5.648437c-4.507813-3.0625-9.707031-4.511719-14.796875-4.503906-7.449219.007812-14.757812 2.988281-20.226562 8.457031l-35.660157 35.660156c-2.019531 2.015625-4.601562 2.992187-7.242187 3.003906-2.636719-.011719-5.222656-.992187-7.238282-3.003906-2.015624-2.019531-2.992187-4.605469-3-7.242187.007813-2.648438.988282-5.226563 2.992188-7.226563l59.808594-59.816406c5.453125-5.46875 8.433594-12.769531 8.445312-20.226563.003906-5.082031-1.425781-10.28125-4.492187-14.792968-5.414063-8.003907-14.144531-12.164063-22.734375-12.132813-6.960938-.007813-13.992188 2.671875-19.304688 8l-60.335937 60.335937c-2.019531 2.015626-4.597657 2.996094-7.238281 3.003907-2.640626-.007813-5.226563-.988281-7.242188-3.003907-2.011719-2.015624-2.992188-4.59375-3-7.242187.007812-2.648437.988281-5.226563 2.988281-7.222656l.011719-.007813 21.1875-21.1875c5.449219-5.476562 8.433594-12.777344 8.441406-20.230468.003906-5.085938-1.429687-10.289063-4.496094-14.796876-5.40625-8.003906-14.128906-12.15625-22.71875-12.128906-6.960937-.007812-13.996093 2.671875-19.316406 8.003906l-67.574218 67.574219c-2.664063 2.664063-2.671876 6.957031-.015626 9.632813l.90625.914062 4.84375-4.804687-5.761718-3.664063c-6.140625 9.667969-9.214844 20.71875-9.214844 31.753906-.007812 15.109376 5.78125 30.285157 17.320312 41.828126l61.074219 61.074218c11.546875 11.550782 26.742188 17.351563 41.875 17.339844 15.128907.011719 30.324219-5.792969 41.867188-17.339844l73.980469-73.980468c5.320312-5.320313 8.003906-12.347657 7.996093-19.3125.03125-8.589844-4.125-17.316407-12.132812-22.71875l-7.65625 11.304687c4.171875 2.851563 6.109375 7.0625 6.136719 11.414063-.007813 3.519531-1.320313 6.980468-3.996094 9.660156l-48.273438 48.269531-24.132812 24.136719-1.574219 1.574218c-8.914063 8.90625-20.535156 13.332032-32.214844 13.34375-11.683593-.011718-23.300781-4.4375-32.214843-13.34375l-61.074219-61.074218c-8.902344-8.910156-13.316407-20.507813-13.324219-32.175782 0-8.503906 2.363281-17.003906 7.085938-24.429687 1.710937-2.695313 1.335937-6.203125-.917969-8.46875l-.90625-.914063-4.84375 4.808594 4.824219 4.828125 8.082031-8.078125 25.703125-25.710937 33.796875-33.789063c2.683593-2.6875 6.128906-3.996094 9.652343-4.003906 4.351563.03125 8.566407 1.964844 11.421876 6.148438 1.441406 2.128906 2.136718 4.550781 2.140624 7.125.011719 3.75-1.574218 7.714843-4.449218 10.578124l-21.183594 21.179688.011719-.007812c-4.664063 4.644531-7.015625 10.804687-7.007813 16.898437-.007812 6.089844 2.34375 12.25 6.996094 16.898437 4.648438 4.648438 10.800781 7.007813 16.898438 7 6.089843.007813 12.246093-2.34375 16.890624-7l60.339844-60.339843c2.683594-2.683594 6.128906-3.992188 9.644532-4.003907 4.355468.03125 8.578124 1.964844 11.4375 6.152344 1.441406 2.125 2.132812 4.550782 2.136718 7.125.007813 3.75-1.574218 7.714844-4.445312 10.570313l-59.800782 59.804687c-4.65625 4.640625-7.007812 10.800782-7 16.894532-.007812 6.085937 2.34375 12.242187 6.996094 16.890624 4.648438 4.652344 10.800782 7.007813 16.894532 7 6.09375.011719 12.246093-2.34375 16.894531-6.996093l35.667969-35.664063c2.863281-2.886718 6.8125-4.46875 10.566406-4.457031 2.5625.003906 4.988281.699219 7.132812 2.148437zm0 0" fill="#54596e"/><path d="m7.058594 366.679688 57.925781-57.925782 28.964844 28.964844-57.925781 57.925781zm0 0" fill="#bfad88"/><path d="m36.027344 395.644531 4.828125-4.828125-24.140625-24.140625 48.273437-48.269531 19.308594 19.308594-53.097656 53.101562 4.828125 4.828125 4.828125-4.828125-4.828125 4.828125 4.828125 4.828125 57.925781-57.925781c1.269531-1.273437 2-3.03125 2-4.828125 0-1.800781-.730469-3.558594-2-4.828125l-28.96875-28.964844c-2.667969-2.664062-6.988281-2.664062-9.652344 0l-57.925781 57.921875c-1.269531 1.269532-2 3.03125-2 4.828125 0 1.800781.730469 3.554688 2 4.828125l28.964844 28.96875c1.289062 1.285156 3.003906 1.996094 4.828125 1.996094 1.824218 0 3.539062-.710938 4.828125-1.996094zm0 0" fill="#54596e"/><path d="m252.855469 53.304688 9.332031-9.332032c2.882812-2.882812 6.59375-4.289062 10.371094-4.300781 3.773437.011719 7.484375 1.417969 10.359375 4.296875l9.351562 9.34375c2.664063 2.664062 6.988281 2.664062 9.652344-.003906 2.667969-2.664063 2.664063-6.984375 0-9.648438l-9.347656-9.34375c-5.503907-5.519531-12.792969-8.304687-20.015625-8.292968-7.222656-.011719-14.511719 2.773437-20.023438 8.296874l-9.332031 9.328126c-2.667969 2.664062-2.667969 6.988281-.003906 9.65625 2.667969 2.667968 6.992187 2.667968 9.660156.003906zm0 0" fill="#fff"/></svg>