<svg height="412pt" viewBox="0 -10 412.07808 412" width="412pt" xmlns="http://www.w3.org/2000/svg"><path d="m17.78125 240.984375c-7.808594 4.058594-12.386719 12.445313-10.546875 20.910156 1.902344 8.824219 10.113281 14.746094 19.394531 14.746094 35.332032 82.230469 167.148438 125.023437 316.878906 102.875l-80.082031-369.984375c-149.160156 42.796875-252.949219 139.957031-245.644531 231.453125" fill="#bfad88"/><path d="m17.78125 240.984375-3.144531-6.0625c-8.707031 4.515625-14.6132815 13.285156-14.636719 23.207031 0 1.714844.175781 3.460938.558594 5.199219 1.3125 6.109375 4.851562 11.238281 9.515625 14.714844 4.664062 3.488281 10.460937 5.417969 16.554687 5.417969v-6.820313l-6.273437 2.695313c15.457031 35.902343 47.867187 64.078124 90.6875 83.25 42.871093 19.195312 96.386719 29.539062 155.210937 29.546874 25.25 0 51.472656-1.910156 78.253906-5.875 1.878907-.28125 3.53125-1.304687 4.609376-2.863281 1.085937-1.558593 1.464843-3.46875 1.0625-5.332031l-80.082032-369.976562c-.402344-1.863282-1.535156-3.4375-3.171875-4.414063-1.632812-.980469-3.554687-1.226563-5.386719-.699219-72.976562 20.949219-135.339843 54.722656-179.769531 94.886719-22.214843 20.085937-39.941406 41.777344-52.191406 64.375-12.238281 22.578125-18.984375 46.105469-18.984375 69.613281 0 3.222656.125 6.449219.382812 9.679688l6.804688-.542969-3.144531-6.0625 3.144531 6.0625 6.808594-.554687c-.230469-2.863282-.339844-5.71875-.339844-8.582032 0-20.871094 5.976562-42.152344 17.332031-63.109375 17.011719-31.425781 46.171875-62 84.515625-88.46875 38.335938-26.476562 85.796875-48.851562 139.210938-64.179687l-1.882813-6.558594-6.675781 1.445312 80.089844 369.980469 6.667968-1.441406-.992187-6.753906c-26.132813 3.855469-51.699219 5.71875-76.257813 5.71875-57.21875.007812-108.976562-10.128907-149.632812-28.351563-40.710938-18.234375-70.085938-44.398437-83.722656-76.179687-1.074219-2.5-3.554688-4.128907-6.273438-4.128907-3.191406 0-6.136718-1.035156-8.375-2.710937-2.242187-1.691406-3.753906-3.933594-4.355468-6.660156-.171876-.796875-.25-1.558594-.25-2.320313-.027344-4.28125 2.679687-8.699218 7.28125-11.089844 2.429687-1.265624 3.875-3.875 3.65625-6.605468z" fill="#54596e"/><path d="m24.609375 240.980469c-.003906 2.527343-1.410156 4.875-3.675781 6.058593-.851563.4375-1.636719.953126-2.351563 1.515626.351563 2.457031.792969 4.902343 1.320313 7.347656 1.007812 4.652344 2.304687 9.199218 3.875 13.636718.917968.183594 1.875.28125 2.851562.28125 2.71875 0 5.199219 1.628907 6.273438 4.128907 13.636718 31.78125 43.011718 57.945312 83.722656 76.179687 40.644531 18.21875 92.371094 28.351563 149.566406 28.351563h.0625c22.289063 0 45.414063-1.53125 69.03125-4.703125l-8.253906-38.144532c-23.191406 3.007813-45.921875 4.464844-67.851562 4.464844-110.761719 0-201.683594-37.121094-234.570313-99.117187" fill="#b4a485"/><path d="m23.777344 269.535156c25.226562 71.15625 121.765625 114.449219 241.375 114.449219 25.152344 0 51.308594-1.914063 78.050781-5.882813l-9.390625-43.386718c-2.265625.320312-4.527344.625-6.785156.917968l8.257812 38.144532c-23.621094 3.171875-46.742187 4.703125-69.03125 4.703125-.019531 0-.042968 0-.066406 0-57.191406 0-108.921875-10.132813-149.5625-28.351563-40.710938-18.234375-70.085938-44.398437-83.726562-76.179687-1.070313-2.5-3.554688-4.128907-6.269532-4.128907-.976562-.003906-1.933594-.097656-2.851562-.285156m.554687-29.085937-6.550781.535156-.023438-.050781c.1875 2.546875.460938 5.085937.824219 7.621094.714844-.5625 1.5-1.078126 2.351563-1.519532 2.265625-1.179687 3.671875-3.527344 3.675781-6.054687-.09375-.175781-.183594-.347657-.277344-.53125m-6.652343-15.308594c-.320313 5.277344-.304688 10.542969.078124 15.792969l.023438.050781 6.550781-.535156c-2.59375-4.945313-4.816406-10.050781-6.652343-15.308594" fill="#54596e"/><path d="m396.882812 174.324219c-22.292968-103.027344-82.191406-177.5-133.78125-166.335938-51.589843 11.164063-75.339843 103.734375-53.046874 206.765625 22.296874 103.027344 82.191406 177.5 133.78125 166.335938 51.59375-11.164063 75.339843-103.734375 53.046874-206.765625zm0 0" fill="#9af43b"/><path d="m396.875 174.304688 6.671875-1.449219c-10.601563-48.921875-29.480469-91.574219-52.304687-122.394531-11.425782-15.40625-23.851563-27.878907-36.921876-36.632813-13.054687-8.730469-26.882812-13.7851562-40.816406-13.7890625-3.964844-.0039063-7.941406.4062495-11.871094 1.2656255-10.953124 2.359374-20.773437 7.992187-29.085937 15.996093-12.484375 12.039063-21.789063 29.292969-28.105469 50.066407-6.304687 20.796874-9.589844 45.191406-9.59375 71.765624 0 24.246094 2.75 50.304688 8.535156 77.046876 10.601563 48.921874 29.476563 91.570312 52.304688 122.390624 11.425781 15.40625 23.851562 27.875 36.921875 36.625 13.054687 8.734376 26.878906 13.789063 40.8125 13.792969 3.976563 0 7.9375-.417969 11.84375-1.246093l.019531-.007813c10.964844-2.363281 20.785156-7.996094 29.097656-16.003906 12.484376-12.035157 21.789063-29.289063 28.105469-50.070313 6.300781-20.792968 9.585938-45.191406 9.589844-71.761718 0-24.253907-2.746094-50.3125-8.535156-77.042969l-6.667969 1.449219-6.671875 1.441406c5.589844 25.800781 8.226563 50.929687 8.226563 74.152344.015624 33.910156-5.671876 63.773437-15.679688 85.628906-4.992188 10.929687-11.039062 19.835937-17.832031 26.359375-6.804688 6.53125-14.269531 10.707031-22.519531 12.503906l.019531-.007813c-2.976563.636719-5.972657.949219-8.992188.953126-10.5625.003906-21.804687-3.851563-33.222656-11.484376-17.113281-11.417968-34.292969-31.300781-48.941406-57.246093-14.671875-25.9375-26.871094-57.886719-34.535157-93.316407-5.589843-25.816406-8.226562-50.9375-8.226562-74.15625-.011719-33.914062 5.671875-63.773437 15.679688-85.625 4.992187-10.929687 11.039062-19.835937 17.832031-26.359374 6.804687-6.53125 14.269531-10.707032 22.519531-12.5 2.957031-.644532 5.941406-.953126 8.972656-.957032 10.5625-.003906 21.804688 3.851563 33.222656 11.488282 17.113282 11.417968 34.292969 31.300781 48.941407 57.246093 14.671875 25.941407 26.871093 57.894531 34.535156 93.320313zm0 0" fill="#54596e"/><path d="m353.519531 183.699219c-13.160156-60.804688-41.75-106.214844-63.859375-101.429688-22.109375 4.785157-29.367187 57.953125-16.210937 118.753907 13.15625 60.804687 41.746093 106.214843 63.859375 101.429687 22.109375-4.785156 29.367187-57.953125 16.210937-118.753906zm0 0" fill="#fff35f"/><path d="m271.425781 30.324219 5.773438 26.695312c.796875 3.683594 4.429687 6.023438 8.113281 5.226563 3.6875-.796875 6.027344-4.429688 5.230469-8.113282l-5.773438-26.691406c-.796875-3.6875-4.429687-6.027344-8.117187-5.230468-3.683594.796874-6.023438 4.429687-5.226563 8.113281" fill="#fff"/><path d="m336.410156 330.574219 5.773438 26.691406c.796875 3.6875 4.433594 6.027344 8.117187 5.226563 3.683594-.796876 6.027344-4.429688 5.230469-8.113282l-5.777344-26.6875c-.796875-3.6875-4.429687-6.027344-8.113281-5.230468-3.6875.796874-6.027344 4.429687-5.230469 8.113281" fill="#fff"/><path d="m372.800781 176.019531 6.675781-1.445312c3.683594-.800781 6.023438-4.433594 5.226563-8.117188-.800781-3.6875-4.4375-6.027343-8.121094-5.226562l-6.671875 1.445312c-3.683594.800781-6.023437 4.4375-5.226562 8.117188.800781 3.6875 4.433594 6.027343 8.117187 5.226562" fill="#fff"/><path d="m239.359375 204.902344 13.339844-2.886719c3.683593-.796875 6.027343-4.429687 5.226562-8.117187-.796875-3.683594-4.429687-6.023438-8.117187-5.226563l-13.339844 2.886719c-3.683594.796875-6.023438 4.429687-5.226562 8.117187.800781 3.683594 4.433593 6.023438 8.117187 5.226563" fill="#fff"/><path d="m346.421875 95.863281 5.226563-8.117187c2.042968-3.167969 1.125-7.394532-2.042969-9.433594-3.171875-2.042969-7.398438-1.125-9.4375 2.042969l-5.226563 8.117187c-2.039062 3.171875-1.125 7.394532 2.046875 9.433594 3.167969 2.042969 7.394531 1.128906 9.433594-2.042969" fill="#fff"/><path d="m388.597656 258.464844-8.113281-5.226563c-3.167969-2.042969-7.394531-1.125-9.433594 2.039063-2.042969 3.167968-1.128906 7.398437 2.042969 9.4375l8.113281 5.226562c3.167969 2.042969 7.394531 1.125 9.433594-2.039062 2.042969-3.171875 1.128906-7.398438-2.042969-9.4375" fill="#fff"/><path d="m250.972656 106.652344-24.351562-15.6875c-3.171875-2.042969-7.394532-1.125-9.4375 2.039062-2.042969 3.171875-1.128906 7.398438 2.042968 9.4375l24.355469 15.683594c3.167969 2.042969 7.394531 1.128906 9.433594-2.039062 2.042969-3.167969 1.128906-7.394532-2.042969-9.433594" fill="#fff"/><path d="m276.324219 320.578125 15.679687-24.347656c2.042969-3.171875 1.125-7.394531-2.042968-9.433594-3.171876-2.042969-7.398438-1.125-9.4375 2.042969l-15.679688 24.351562c-2.042969 3.167969-1.128906 7.390625 2.042969 9.429688 3.171875 2.046875 7.394531 1.128906 9.4375-2.042969" fill="#fff"/><g fill="#54596e"><path d="m350.195312 138.035156c0 7.542969-6.113281 13.65625-13.652343 13.65625-7.539063 0-13.652344-6.113281-13.652344-13.65625 0-7.539062 6.113281-13.652344 13.652344-13.652344 7.539062 0 13.652343 6.113282 13.652343 13.652344zm0 0"/><path d="m281.929688 151.691406c0 7.539063-6.113282 13.652344-13.652344 13.652344-7.542969 0-13.65625-6.113281-13.65625-13.652344 0-7.542968 6.113281-13.65625 13.65625-13.65625 7.539062 0 13.652344 6.113282 13.652344 13.65625zm0 0"/><path d="m283.023438 235.300781c14.765624 42.621094 36.585937 70.972657 54.28125 67.144531 17.90625-3.875 26.058593-39.496093 21.527343-85.195312zm0 0"/><path d="m111.261719 267.742188c0 3.769531-3.054688 6.828124-6.824219 6.828124-3.773438 0-6.828125-3.058593-6.828125-6.828124 0-3.769532 3.054687-6.824219 6.828125-6.824219 3.769531 0 6.824219 3.054687 6.824219 6.824219zm0 0"/><path d="m152.222656 254.089844c0 3.769531-3.054687 6.828125-6.828125 6.828125-3.769531 0-6.824219-3.058594-6.824219-6.828125 0-3.769532 3.054688-6.828125 6.824219-6.828125 3.773438 0 6.828125 3.058593 6.828125 6.828125zm0 0"/><path d="m193.183594 315.53125c0 3.769531-3.058594 6.824219-6.828125 6.824219s-6.824219-3.054688-6.824219-6.824219 3.054688-6.828125 6.824219-6.828125 6.828125 3.058594 6.828125 6.828125zm0 0"/><path d="m138.570312 308.703125c0 3.769531-3.058593 6.828125-6.828124 6.828125-3.769532 0-6.824219-3.058594-6.824219-6.828125s3.054687-6.828125 6.824219-6.828125c3.769531 0 6.828124 3.058594 6.828124 6.828125zm0 0"/><path d="m200.007812 267.742188c0 3.769531-3.054687 6.828124-6.824218 6.828124-3.769532 0-6.828125-3.058593-6.828125-6.828124 0-3.769532 3.058593-6.824219 6.828125-6.824219 3.769531 0 6.824218 3.054687 6.824218 6.824219zm0 0"/><path d="m63.476562 254.089844c0 3.769531-3.058593 6.828125-6.828124 6.828125-3.769532 0-6.824219-3.058594-6.824219-6.828125 0-3.769532 3.054687-6.828125 6.824219-6.828125 3.769531 0 6.828124 3.058593 6.828124 6.828125zm0 0"/><path d="m350.195312 138.035156c0 7.542969-6.113281 13.65625-13.652343 13.65625-7.539063 0-13.652344-6.113281-13.652344-13.65625 0-7.539062 6.113281-13.652344 13.652344-13.652344 7.539062 0 13.652343 6.113282 13.652343 13.652344zm0 0"/><path d="m281.929688 151.691406c0 7.539063-6.113282 13.652344-13.652344 13.652344-7.542969 0-13.65625-6.113281-13.65625-13.652344 0-7.542968 6.113281-13.65625 13.65625-13.65625 7.539062 0 13.652344 6.113282 13.652344 13.65625zm0 0"/><path d="m283.023438 235.300781c14.765624 42.621094 36.585937 70.972657 54.28125 67.144531 17.90625-3.875 26.058593-39.496093 21.527343-85.195312zm0 0"/><path d="m350.195312 138.035156c0 7.542969-6.113281 13.65625-13.652343 13.65625-7.539063 0-13.652344-6.113281-13.652344-13.65625 0-7.539062 6.113281-13.652344 13.652344-13.652344 7.539062 0 13.652343 6.113282 13.652343 13.652344zm0 0"/><path d="m281.929688 151.691406c0 7.539063-6.113282 13.652344-13.652344 13.652344-7.542969 0-13.65625-6.113281-13.65625-13.652344 0-7.542968 6.113281-13.65625 13.65625-13.65625 7.539062 0 13.652344 6.113282 13.652344 13.65625zm0 0"/></g></svg>