<svg height="370pt" viewBox="0 0 370.90475 370" width="370pt" xmlns="http://www.w3.org/2000/svg" xmlns:xlink="http://www.w3.org/1999/xlink"><clipPath id="a"><path d="m20 159h337v199h-337zm0 0"/></clipPath><clipPath id="b"><path d="m356.597656 159.738281c-.75 2.832031-1.5625 5.664063-2.4375 8.496094l-.203125.675781c-1.390625 4.414063-2.957031 8.816406-4.660156 13.203125l-.570313 1.480469c-1.675781 4.230469-3.519531 8.433594-5.484374 12.613281-.292969.632813-.582032 1.25-.882813 1.878907-1.976563 4.105468-4.101563 8.1875-6.359375 12.226562-.367188.660156-.738281 1.320312-1.121094 1.980469-2.292968 4.015625-4.722656 8-7.296875 11.945312-.414062.625-.832031 1.257813-1.242187 1.882813-2.644532 3.964844-5.414063 7.898437-8.347656 11.761718l-1.195313 1.5625c-3.046875 3.953126-6.203125 7.863282-9.539063 11.6875l-.878906.976563c-3.523437 4.003906-7.183594 7.953125-11.023437 11.792969-4.027344 4.023437-8.160157 7.863281-12.363281 11.542968l-.636719.566407c-4.074219 3.539062-8.222657 6.871093-12.429688 10.074219l-1.109375.863281c-4.109375 3.089843-8.292968 6.003906-12.511718 8.773437l-1.46875.976563c-4.15625 2.683593-8.367188 5.199219-12.613282 7.582031l-1.730468.972656c-4.195313 2.3125-8.4375 4.460938-12.707032 6.472656-.625.292969-1.253906.597657-1.890625.882813-4.242187 1.957031-8.507812 3.753906-12.792969 5.40625-.664062.257813-1.324218.503906-1.992187.753906-4.28125 1.605469-8.578125 3.0625-12.886719 4.359375-.65625.199219-1.316406.394532-1.976562.582032-4.320313 1.265624-8.648438 2.382812-12.96875 3.335937-.628906.140625-1.265625.269531-1.894532.402344-4.359374.917969-8.710937 1.699219-13.046874 2.304687l-1.714844.214844c-4.398438.578125-8.78125 1.011719-13.132813 1.25l-1.421875.0625c-2.960937.144531-5.914062.226562-8.851562.226562-1.46875 0-2.933594-.019531-4.390625-.0625l-1.015625-.046874c-4.496094-.15625-8.964844-.464844-13.371094-.984376l-.453125-.0625c-4.492187-.539062-8.929687-1.269531-13.296875-2.195312l-.277344-.050781c-4.320312-.933594-8.554687-2.066407-12.730468-3.359375l-.824219-.25c-4.035157-1.28125-7.972657-2.765625-11.84375-4.402344l-1.15625-.484375c-3.769531-1.636719-7.441407-3.464844-11.023438-5.441406l-.863281-.429688c-1.453125-.816406-3.015625-1.199219-4.570312-1.199219-2.847657 0-5.664063 1.289063-7.707032 3.558594l-.589844.566406-.28125.339844-.394531.320313c-1.101562 1.050781-2.296875 2.070312-3.675781 2.945312-.929688.636719-1.917969 1.117188-2.910156 1.632813l-.042969.023437c-3.878906 1.957031-8.089844 2.941407-12.304687 2.941407-3.058594 0-6.121094-.519532-9.050782-1.554688-.902344-.300781-1.777344-.636719-2.632812-1.023438l-1.332032-.660156c-1.050781-.558594-2.082031-1.160156-3.054687-1.863281-.242187.417969-.539063.992187-.910156 1.734375l.03125-.066406-.03125.054687-.015625.035157c-1.472656 2.90625-2.203125 6.046874-2.203125 9.207031 0 2.289062.386719 4.570312 1.164062 6.785156l.046875.128906c.222656.683594.460938 1.304688.714844 1.867188l.527344 1.066406c.472656.890625.933594 1.65625 1.390625 2.285156l.089843.09375.441407.503907c.132812.1875.699219.738281 1.609375 1.621093l.007812.015625c.867188.878906 1.417969 1.449219 1.621094 1.601563l.449219.386719.113281.109374c.625.457032 1.363281.90625 2.21875 1.367188l1.082031.53125c.605469.277344 1.25.527344 1.9375.761719l.125.035156c2.195313.777344 4.492188 1.15625 6.789063 1.164063 3.148437-.007813 6.304687-.738282 9.222656-2.210938l.183594-.085938c.960937-.488281 1.625-.835937 2.019531-1.117187l.144531-.089844c.894532-.578125 1.738282-1.273437 2.632813-2.132812l.351562-.316407.292969-.316406.429688-.414062c3.253906-3.515625 7.777343-5.636719 12.625-5.644532h.046874c2.59375 0 5.296876.648438 7.738282 2.003907l.671875.332031.273437.140625c3.375 1.867187 6.816406 3.578125 10.3125 5.113281l.003906-.003906 1.164063.480469.070313.03125c3.660156 1.550781 7.371093 2.953125 11.128906 4.152343l.824218.25.085938.023438c3.972656 1.234375 8.003906 2.3125 12.089844 3.191406l.15625.035156.140625.023438c4.15625.882812 8.394531 1.574219 12.699219 2.09375l.1875.023438.449218.070312c4.121094.472656 8.332032.769531 12.597656.917969l.085938.003906.894531.042969c1.371094.035156 2.769531.050781 4.171875.050781 2.808594 0 5.671875-.085937 8.5625-.214844h.023438l1.421875-.066406v.003906c4.128906-.242187 8.316406-.648437 12.542969-1.207031h.023437l1.628906-.203125v-.003906c4.160157-.582031 8.355469-1.324219 12.585938-2.21875h-.007813c.671875-.140625 1.285156-.261719 1.835938-.386719 4.15625-.917969 8.339844-2.003906 12.527344-3.21875h-.007813c.675781-.195312 1.3125-.382812 1.933594-.570312h-.007813c4.15625-1.253907 8.316406-2.667969 12.464844-4.21875l-.03125.015624c.660156-.246093 1.320312-.503906 1.976562-.75l-.023437.003907c4.167969-1.605469 8.292969-3.339844 12.398437-5.234375l.011719-.007813c.558594-.253906 1.171875-.542969 1.816407-.851562l.015624-.007813c4.144532-1.949218 8.253907-4.027344 12.320313-6.269531l-.054687.035156 1.730468-.972656.007813-.007813c4.113281-2.308593 8.171875-4.738281 12.179687-7.320312v-.003906l1.464844-.964844.023438-.019531c4.121093-2.707031 8.175781-5.539063 12.15625-8.523438h.003906l1.03125-.796875.054687-.039062c4.101563-3.128906 8.136719-6.378906 12.078125-9.796875l.542969-.492188.074219-.070312c4.105468-3.582031 8.121094-7.3125 12.03125-11.222657 3.726562-3.722656 7.285156-7.554687 10.722656-11.472656l.046875-.054687.875-.976563.007813.003906c3.203124-3.6875 6.261718-7.453124 9.203124-11.292968l.023438-.03125 1.203125-1.550782v.003907c2.8125-3.738281 5.492187-7.53125 8.042969-11.367188.433594-.644531.84375-1.257812 1.21875-1.828125v.003906c2.496094-3.832031 4.855468-7.703124 7.082031-11.601562.363281-.636719.726563-1.28125 1.09375-1.933594l-.007813.015625c2.195313-3.941406 4.257813-7.890625 6.175782-11.871093.253906-.539063.535156-1.144532.851562-1.8125 1.910156-4.070313 3.691406-8.128907 5.304688-12.1875l.535156-1.429688.023438-.050781c1.644531-4.234375 3.152343-8.453125 4.480468-12.652344h-.003906l.203125-.675781.03125-.101563c1.347656-4.347656 2.535156-8.6875 3.566406-13.015625l.023438-.117187.148437-.589844c.984375-4.214844 1.796875-8.453125 2.484375-12.699219l.007813-.046875.222656-1.355469c.601562-3.894531 1.046875-7.78125 1.378906-11.675781"/></clipPath><path d="m212.761719 179.066406c-.003907-22.625-18.339844-40.957031-40.960938-40.960937-9.496093-.003907-18.296875 3.253906-25.238281 8.699219-2.96875 2.320312-3.492188 6.613281-1.167969 9.582031s6.617188 3.492187 9.585938 1.171875c4.652343-3.640625 10.449219-5.796875 16.820312-5.800782 7.5625.007813 14.34375 3.046876 19.308594 8 4.953125 4.964844 7.996094 11.75 8 19.308594 0 3.773438 3.054687 6.828125 6.824219 6.828125 3.769531 0 6.828125-3.058593 6.828125-6.828125zm0 0" fill="#54596e"/><path d="m151.320312 295.121094c0 3.769531-3.054687 6.824218-6.824218 6.824218-3.769532 0-6.828125-3.054687-6.828125-6.824218 0-3.769532 3.058593-6.828125 6.828125-6.828125 3.769531 0 6.824218 3.058593 6.824218 6.828125zm0 0" fill="#ffd578"/><path d="m153.1875 364.296875 1.421875-.050781c4.359375-.25 8.742187-.683594 13.140625-1.257813l1.707031-.214843c4.34375-.605469 8.6875-1.382813 13.046875-2.304688.636719-.132812 1.265625-.257812 1.902344-.394531 4.320312-.957031 8.640625-2.082031 12.96875-3.339844.660156-.191406 1.3125-.386719 1.980469-.578125 4.304687-1.304688 8.59375-2.765625 12.875-4.359375.667969-.257813 1.335937-.503906 1.992187-.761719 4.292969-1.652344 8.558594-3.445312 12.792969-5.398437.636719-.289063 1.273437-.589844 1.902344-.894531 4.265625-2.007813 8.5-4.15625 12.703125-6.46875l1.734375-.964844c4.242187-2.382813 8.445312-4.898438 12.605469-7.585938l1.464843-.980468c4.21875-2.765626 8.402344-5.675782 12.511719-8.773438l1.109375-.863281c4.210937-3.195313 8.363281-6.539063 12.429687-10.066407l.636719-.574218c4.203125-3.675782 8.335938-7.515625 12.371094-11.542969 3.839844-3.839844 7.503906-7.78125 11.015625-11.785156l.878906-.976563c3.332032-3.832031 6.5-7.742187 9.539063-11.699218l1.203125-1.546876c2.925781-3.871093 5.695312-7.804687 8.339844-11.769531.417968-.628906.839843-1.25 1.25-1.878906 2.566406-3.945313 5.003906-7.929687 7.300781-11.953125.371093-.660156.742187-1.3125 1.117187-1.972656 2.257813-4.046875 4.382813-8.117188 6.359375-12.230469.296875-.621094.582031-1.25.878907-1.871094 1.96875-4.1875 3.816406-8.394531 5.492187-12.621093l.558594-1.484376c1.703125-4.390624 3.28125-8.78125 4.660156-13.191406l.203125-.683594c1.394531-4.484374 2.628906-8.984374 3.691406-13.464843l.15625-.613281c1.039063-4.4375 1.886719-8.867188 2.597656-13.28125l.242188-1.445313c.660156-4.257813 1.140625-8.492187 1.488281-12.710937.054688-.621094.117188-1.246094.15625-1.863282.3125-4.140625.449219-8.253906.457031-12.335937.007813-.664063.007813-1.332031 0-2-.039062-4.058594-.214843-8.082031-.550781-12.070313-.054687-.644531-.117187-1.28125-.179687-1.914062-.378906-4.019532-.898438-7.992188-1.582032-11.917969l-.300781-1.605469c-.746093-4.011718-1.621093-7.980468-2.683593-11.875l-.304688-1.039062c-1.148438-4.066406-2.433594-8.074219-3.925781-11.984375l-.039063-.09375c-1.496094-3.917969-3.195312-7.730469-5.039062-11.472657l-.289063-.644531c-3.25-6.488281-2.773437-14.570312 1.878907-20.128906l1.007812-1.484375c5.515625-7.394531 6.804688-16.847656 3.847656-25.257812-.300781-.929688-.660156-1.84375-1.078125-2.746094l-.613281-1.261719c-.644531-1.21875-1.351562-2.394531-2.203125-3.5l-.433594-.457031c-.628906-.777344-1.390625-1.472656-2.109375-2.203125-.722656-.722657-1.421875-1.484375-2.207031-2.109375l-.457031-.425782c-1.097656-.855468-2.277344-1.566406-3.488282-2.203124l-1.273437-.621094c-.890625-.410156-1.804687-.769532-2.746094-1.082032-8.398437-2.945312-17.855469-1.664062-25.25 3.859376l-1.480469 1.007812c-5.570312 4.65625-13.652343 5.117188-20.136718 1.867188l-.636719-.273438c-3.742187-1.847656-7.566406-3.546875-11.476563-5.050781l-.09375-.035157c-3.914062-1.496093-7.917968-2.785156-11.992187-3.921874l-1.039063-.3125c-3.894531-1.054688-7.855468-1.933594-11.867187-2.675782l-1.605469-.308594c-3.925781-.683593-7.90625-1.199218-11.917968-1.585937-.640626-.050781-1.277344-.117187-1.914063-.171875-3.988281-.332031-8.023437-.511719-12.078125-.550781-.667969-.007813-1.328125-.007813-1.996094-.007813-4.085937.007813-8.191406.15625-12.332031.457032-.621094.046874-1.242187.109374-1.863281.15625-4.21875.359374-8.464844.835937-12.714844 1.5l-1.441406.230468c-4.421875.722656-8.851563 1.566406-13.28125 2.609375l-.613282.144531c-4.492187 1.070313-8.980468 2.304688-13.472656 3.695313l-.675781.199219c-4.414063 1.386718-8.8125 2.960937-13.195313 4.660156l-1.488281.566406c-4.230469 1.675782-8.433593 3.519532-12.617187 5.484375-.625.296875-1.246094.585938-1.875.886719-4.105469 1.976562-8.183594 4.105469-12.226563 6.363281-.65625.371094-1.316406.734375-1.976562 1.113281-4.019531 2.300782-8.007813 4.726563-11.945313 7.300782-.628906.402344-1.257812.828125-1.878906 1.25-3.972656 2.636718-7.898438 5.414062-11.769531 8.328125l-1.550781 1.210937c-3.964844 3.035156-7.863282 6.207032-11.695313 9.535156l-.980469.875c-4 3.523438-7.949218 7.183594-11.789062 11.023438-4.027344 4.027344-7.867188 8.160156-11.542969 12.375l-.566406.636719c-3.539063 4.054687-6.871094 8.210937-10.078125 12.417969l-.859375 1.105468c-3.089844 4.113282-5.996094 8.292969-8.773438 12.515625l-.96875 1.464844c-2.691406 4.160156-5.207031 8.363281-7.589843 12.613281l-.976563 1.730469c-2.308594 4.199219-4.453125 8.441406-6.46875 12.707031-.296875.628906-.597656 1.257813-.894531 1.894532-1.945313 4.242187-3.746094 8.507812-5.390625 12.792968-.253907.664063-.511719 1.332032-.757813 2-1.605468 4.273438-3.058594 8.566406-4.359375 12.875-.203125.660156-.398437 1.320313-.589843 1.980469-1.253907 4.320313-2.375 8.644531-3.328126 12.96875-.140624.628906-.269531 1.265625-.402343 1.890625-.914063 4.359375-1.699219 8.714844-2.304688 13.054688l-.214843 1.707031c-.574219 4.402343-1 8.785156-1.25 13.132812l-.0625 1.421875c-.214844 4.445313-.285157 8.867188-.171876 13.242188l.054688 1.015625c.15625 4.511719.46875 8.96875.988281 13.375l.058594.449219c.542969 4.492187 1.273437 8.929687 2.195313 13.296874l.054687.277344c.921875 4.3125 2.0625 8.558594 3.359375 12.730469l.246094.824219c1.28125 4.03125 2.769531 7.972656 4.414062 11.839844l.472656 1.160156c1.636719 3.769531 3.46875 7.4375 5.453126 11.023437l.417968.859375c2.3125 4.121094 1.148438 9.125-2.347656 12.289063l-.574219.589843-.34375.269532-.316406.398437c-1.054687 1.097657-2.0625 2.296875-2.945313 3.675781-.636718.929688-1.121093 1.914063-1.632812 2.910157l-.023438.050781c-3.382812 6.679688-3.855468 14.375-1.378906 21.347656.292969.890625.625 1.777344 1.023438 2.628906l.652344 1.332032c.65625 1.246094 1.378906 2.457031 2.257812 3.578125l.371094.390625c.628906.785156 1.390625 1.46875 2.109375 2.1875.722656.730468 1.410156 1.488281 2.1875 2.109375l.386719.378906c1.132812.871094 2.34375 1.597656 3.585937 2.257813l1.324219.652343c.863281.390625 1.738281.726563 2.632812 1.023438 6.980469 2.46875 14.675782 1.996093 21.355469-1.386719l.054687-.023438c.992188-.503906 1.976563-.996093 2.90625-1.621093 1.382813-.882813 2.570313-1.890625 3.675782-2.957031l.386718-.316407.28125-.332031.589844-.574219c3.164063-3.507812 8.167969-4.667969 12.277344-2.359375l.863281.425782c3.589844 1.988281 7.261719 3.808593 11.023438 5.453124l1.15625.472657c3.871093 1.636719 7.820312 3.125 11.84375 4.40625l.832031.246093c4.164062 1.304688 8.40625 2.4375 12.71875 3.363282l.28125.050781c4.375.933594 8.8125 1.65625 13.296875 2.199219l.449219.070312c4.40625.519532 8.875.828125 13.375.984375l1.023437.042969c4.371094.125 8.789063.054688 13.230469-.171875" fill="#fff35f"/><path d="m153.1875 364.296875.289062 6.820313 1.417969-.050782.101563-.011718c4.554687-.257813 9.101562-.707032 13.636718-1.304688l-.03125.011719 1.71875-.222657.074219-.003906c4.523438-.628906 9.03125-1.445312 13.519531-2.390625h.011719c.582031-.121093 1.230469-.253906 1.953125-.410156h-.007812c4.480468-.992187 8.957031-2.148437 13.410156-3.441406l.007812-.011719c.644532-.183594 1.320313-.382812 2.035157-.597656h.007812c4.445313-1.351563 8.875-2.847656 13.289063-4.5l.039062-.007813c.671875-.261719 1.339844-.511719 2-.765625l.023438-.011718c4.414062-1.695313 8.8125-3.546876 13.1875-5.570313l-.007813.011719c.707031-.328125 1.367188-.636719 1.980469-.929688l-.015625.007813c4.382813-2.066407 8.75-4.277344 13.085937-6.664063l.054688-.035156 1.730469-.976562-.007813.011718c4.359375-2.449218 8.6875-5.039062 12.976563-7.8125l.070312-.039062 1.464844-.976563-.023437.015625c4.320312-2.839844 8.617187-5.828125 12.863281-9.023437l.074219-.050781 1.109374-.863282-.046874.039063c4.3125-3.28125 8.582031-6.71875 12.769531-10.355469l.09375-.085938.636719-.566406-4.566407-5.074218 4.492188 5.144531c4.3125-3.769531 8.554687-7.710938 12.703125-11.851563 3.964844-3.964844 7.722656-8.019531 11.320312-12.121094l-5.125-4.5 5.078125 4.554688.949219-1.054688c3.4375-3.949218 6.695312-7.964843 9.804688-12.015624l-.023438.023437 1.203125-1.550781.058594-.070313c3.011719-3.988281 5.859375-8.027343 8.566406-12.101562.402344-.605469.835937-1.238281 1.277344-1.914063l.011719-.007812c2.644531-4.066406 5.140624-8.160156 7.507812-12.304688.386719-.683594.769531-1.347656 1.140625-2.015625l.007813-.019531c2.320312-4.15625 4.507812-8.347656 6.546874-12.589844.339844-.707031.636719-1.347656.90625-1.921875 2.027344-4.296875 3.925782-8.632812 5.664063-13.011719l.039063-.097656.558593-1.492187-.015625.054687c1.746094-4.5 3.367188-9.039062 4.808594-13.621094l.039062-.117187.195313-.679687-6.546875-1.925782 6.523438 2.023438c1.4375-4.628906 2.707031-9.277344 3.8125-13.921875l-6.640626-1.566407 6.617188 1.683594.152344-.613281.03125-.128906c1.078125-4.617188 1.953125-9.203125 2.691406-13.746094l-.007812.042969.242187-1.449219.015625-.085937c.679688-4.4375 1.175781-8.839844 1.542969-13.1875v-.023438c.046875-.523438.109375-1.164062.160156-1.933594v.023438c.320313-4.3125.46875-8.585938.472656-12.816406l.011719-.84375-.011719-1.242188c-.039062-4.214844-.230469-8.410156-.570312-12.566406-.0625-.714844-.125-1.390625-.1875-2.027344v.03125c-.394531-4.179688-.929688-8.324219-1.652344-12.449219l-.015625-.09375-.300781-1.605469v.03125c-.769531-4.171874-1.683594-8.324218-2.808594-12.433593l-.039063-.132813-.300781-1.039062-6.546875 1.929687 6.570313-1.851562c-1.1875-4.226563-2.535157-8.425781-4.121094-12.574219l-.023437-.050781-.039063-.09375.023437.050781c-1.582031-4.144531-3.375-8.152344-5.304687-12.0625l-6.113281 3.035156 6.242187-2.753906-.277343-.636719-.148438-.3125c-.898438-1.800781-1.375-3.820312-1.363281-5.777343 0-2.664063.828125-5.082032 2.363281-6.914063l.402344-.535156 1.011718-1.472657-5.632812-3.855468 5.46875 4.078125c4.492188-6.015625 6.753906-13.167969 6.746094-20.304688 0-3.816406-.644532-7.644531-1.929688-11.296875l-6.441406 2.265625 6.484375-2.132812c-.378906-1.167969-.835937-2.335938-1.363281-3.476563l-.054688-.113281-.621094-1.269531-.109374-.21875c-.753907-1.417969-1.652344-2.941406-2.824219-4.460938l-.488281-.574218-.4375-.453126-4.917969 4.734376 5.332031-4.265626c-1.085938-1.34375-2.039062-2.171874-2.601562-2.746093l-.015626-.019531c-.582031-.5625-1.417968-1.527344-2.761718-2.613282l-4.265625 5.332032 4.699219-4.949219-.457032-.433594-.535156-.457031c-1.511719-1.167969-3.03125-2.0625-4.46875-2.828125l-.195312-.097657-1.269532-.621093-.132812-.0625c-1.148438-.527344-2.300782-.984375-3.464844-1.363281l-2.144531 6.484374 2.257812-6.449218c-3.644531-1.277344-7.46875-1.929688-11.285156-1.921875-7.136719-.007813-14.289063 2.25-20.308594 6.75l4.085938 5.476562-3.855469-5.640625-1.480469 1.015625-.519531.390625c-1.847656 1.550782-4.269531 2.371094-6.917969 2.378906-1.949219 0-3.988281-.472656-5.796875-1.378906l-.308594-.148437-.644531-.277344-2.730469 6.257813 3.015626-6.128907c-3.898438-1.921875-7.910157-3.707031-12.046876-5.296875l-.144531-.058594-.09375-.027343-2.296875 6.429687 2.433594-6.382812c-4.140625-1.574219-8.34375-2.925782-12.574219-4.121094l-1.851562 6.578125 1.929687-6.554687-1.039062-.304688-.136719-.035156c-4.105469-1.117188-8.253906-2.035156-12.421875-2.808594l.039062.007812-1.605468-.304687-.117188-.023437c-4.109375-.710938-8.261718-1.253907-12.433594-1.652344h-.007812c-.613281-.054688-1.273438-.121094-1.988281-.175782l-.007813-.011718c-4.15625-.339844-8.347656-.53125-12.574218-.5625h.007812c-.710938-.019532-1.394531-.011719-2.0625-.011719h-.015625c-4.234375.011719-8.507813.15625-12.820313.472656h.023438c-.761719.054688-1.40625.125-1.933594.164063h-.015625c-4.359375.363281-8.757812.859375-13.1875 1.542968l-.085937.015626-1.441406.242187h.03125c-4.546876.738281-9.128907 1.613281-13.738282 2.683594l-.101562.03125-.613282.15625 1.652344 6.617187-1.574218-6.640625c-4.648438 1.101563-9.292969 2.375-13.925782 3.816407l2.023438 6.515624-1.898438-6.558593-.683594.203125-.140624.039062c-4.582032 1.441406-9.121094 3.070313-13.613282 4.808594l.03125-.007812-1.480468.566406-.085938.023437c-4.382812 1.738281-8.71875 3.648438-13.011719 5.664063-.574219.269531-1.226562.566406-1.921875.90625h-.007812c-4.238282 2.039062-8.433594 4.234375-12.589844 6.546875l-.011719.007812c-.640625.363281-1.324219.746094-2.03125 1.148438l.007813-.007813c-4.140625 2.363282-8.238282 4.871094-12.292969 7.515625l.015625-.007812c-.683594.441406-1.34375.875-1.964844 1.296875l.015625-.007813c-4.070312 2.707031-8.113281 5.558594-12.101562 8.570313l-.070313.054687-1.550781 1.199219.03125-.023438c-4.058594 3.121094-8.066406 6.371094-12.023437 9.808594l-.078126.066406-.976562.878907.054688-.046875c-4.097657 3.605468-8.148438 7.355468-12.109376 11.316406-4.152343 4.152344-8.089843 8.40625-11.851562 12.707031l5.132812 4.5-5.078124-4.558593-.574219.632812-.0625.082031c-3.644531 4.195313-7.082031 8.460938-10.355469 12.765625l.039062-.046875-.863281 1.109375-.058593.074219c-3.191407 4.246094-6.183594 8.546875-9.023438 12.863281l.007812-.015625-.96875 1.464844-.046874.070313c-2.769532 4.285156-5.359376 8.609374-7.804688 12.972656l.015625-.023438-.976563 1.730469-.039062.070313c-2.382812 4.335937-4.59375 8.703124-6.664062 13.085937l.007812-.007813c-.292969.621094-.605469 1.269532-.914062 1.949219l-.007813.015625c-2.015625 4.371094-3.863281 8.78125-5.570313 13.191406l.007813-.015624c-.265625.691406-.527344 1.382812-.78125 2.0625-1.664063 4.421874-3.160156 8.855468-4.5 13.3125l.007813-.039063c-.226563.738281-.425782 1.429687-.613282 2.074219v.007812c-1.304687 4.453125-2.457031 8.921875-3.453125 13.402344-.152343.71875-.285156 1.367188-.410156 1.953125v.003906c-.945313 4.503907-1.753906 9.007813-2.378906 13.515625l-.015625.09375-.21875 1.707032.007812-.023438c-.597656 4.535156-1.046875 9.082031-1.300781 13.636719l-.011719.09375-.054687 1.417969v-.046876c-.1445315 3.089844-.230469 6.167969-.230469 9.246094 0 1.503906.015625 3.011719.0625 4.523438l.0078125.140625.0468755 1.015625 6.816406-.335938-6.824219.230469c.160156 4.667969.484375 9.320313 1.03125 13.945313l.023437.164062.0625.441406 6.753907-.957031-6.769531.820313c.558593 4.683593 1.324218 9.320312 2.292968 13.894531l6.671875-1.414063-6.699219 1.273438.054688.285156.027344.148438c.972656 4.546874 2.164062 8.984374 3.515625 13.335937l6.515625-2.035156-6.539063 1.933593.238281.820313.042969.140625c1.355469 4.257812 2.921875 8.398438 4.636719 12.441406l6.285156-2.667968-6.316406 2.597656.480469 1.164062.046875.117188c1.730468 3.980468 3.660156 7.851562 5.742187 11.605468l5.972657-3.304687-6.128907 3.015625.425781.863281.171876.324219.328124 1.226562c.007813.777344-.390624 1.824219-1.3125 2.652344l-.324218.304688-.292969.304687-.015625.023438-1.015625 1.015625-.316406.394531 5.3125 4.285156-4.925781-4.730469c-1.261719 1.320313-2.574219 2.859376-3.761719 4.703126l5.742187 3.703124-5.664062-3.824218c-.960938 1.433594-1.558594 2.691406-2.039063 3.613281l-.03125.0625-.023437.054687.015625-.03125c-2.441407 4.824219-3.675781 10.089844-3.675781 15.371094 0 3.835938.652343 7.664063 1.949218 11.335938l6.4375-2.273438-6.484375 2.148438c.355469 1.078125.777344 2.1875 1.304688 3.328125l.074219.164062.652343 1.324219.101563.203125c.769531 1.433594 1.675781 2.996094 2.886718 4.554687l.503907.582032.378906.390625 4.886719-4.765625-5.328125 4.257812c1.109375 1.375 2.070312 2.195313 2.613281 2.761719l-.007812-.015625c.574218.566406 1.398437 1.519531 2.746093 2.621094l4.273438-5.328125-4.714844 4.933593.386719.375.535156.460938c1.550781 1.203125 3.101562 2.121094 4.554688 2.886719l.207031.117187 1.335937.640625.15625.078125c1.117188.515625 2.226563.933594 3.320313 1.296875l2.148437-6.476562-2.273437 6.4375c3.675781 1.296875 7.507812 1.9375 11.332031 1.933593 5.28125.003907 10.542969-1.234374 15.367188-3.664062l-3.070313-6.097656 2.738281 6.253906.054688-.023438.371094-.171874c.921874-.480469 2.1875-1.085938 3.628906-2.0625l-3.828125-5.640626 3.683593 5.738282c1.859376-1.191406 3.402344-2.511719 4.714844-3.777344l-4.722656-4.917969 4.25 5.335938.398438-.316407 1.039062-1.027343.03125-.039063.292969-.285156.3125-.324219c.828125-.914062 1.867187-1.3125 2.644531-1.304687l1.210938.320312.339843.175782.855469.429687 3.023438-6.121094-3.304688 5.972657c3.761719 2.082031 7.625 4.003906 11.597656 5.734374l.132813.050782 1.164062.480468 2.589844-6.3125-2.660156 6.28125c4.035156 1.707032 8.175781 3.273438 12.441406 4.632813l.117187.039063.824219.238281 1.953125-6.539063-2.03125 6.515625c4.339844 1.363281 8.789063 2.546875 13.324219 3.523438l.15625.03125.28125.046875 1.269531-6.703125-1.410156 6.679687c4.578125.96875 9.214844 1.730469 13.894531 2.296875l.8125-6.78125-1 6.75.441407.070313.210937.023437c4.625.550781 9.277344.875 13.949219 1.03125l.226562-6.816406-.3125 6.816406 1.015625.046875h.125c1.527344.042969 3.039063.0625 4.554688.0625 3.078125 0 6.140625-.09375 9.191406-.234375h-.03125l-.296875-6.816406-.308594-6.816406c-2.894531.128906-5.757812.21875-8.566406.21875-1.402344 0-2.800781-.019531-4.171875-.054688l-.183594 6.824219.308594-6.816406-1.015625-.046875-.085938-.007813c-4.335937-.148437-8.617187-.449218-12.804687-.9375l-.800781 6.78125 1.007812-6.757812-.449218-.070313-.1875-.023437c-4.304688-.519532-8.539063-1.210938-12.699219-2.09375l-.136719-.023438-.28125-.058594-1.28125 6.703126 1.4375-6.667969c-4.097656-.886719-8.136719-1.964844-12.125-3.203125l-.085938-.023438-.820312-.25-1.957031 6.539063 2.074219-6.5c-3.800782-1.210938-7.550782-2.625-11.25-4.191407l-.070313-.03125-1.164063-.480468-2.589843 6.324218 2.722656-6.261718c-3.546875-1.550782-7.027344-3.28125-10.449219-5.171875l-.273437-.140625-.863281-.425782-3.023438 6.117188 3.367188-5.941406c-2.5-1.414063-5.277344-2.09375-7.9375-2.085938-4.925782.007813-9.511719 2.195313-12.773438 5.8125l5.0625 4.578125-4.753906-4.898437-.589844.566406-.542969.589844-.269531.339844 5.289062 4.308593-4.25-5.339843-.394531.3125-.472656.417968c-.894531.863282-1.738281 1.558594-2.632813 2.136719l-.144531.089844c-.417969.296875-1.132812.667969-2.1875 1.203125l3.109375 6.074218-2.738281-6.25-.054687.023438-.332032.152344c-2.917968 1.472656-6.074218 2.203125-9.222656 2.210937-2.296875-.007812-4.59375-.386719-6.785156-1.164062l-.125-.035157c-.691406-.234374-1.335938-.484374-1.941406-.761718l-2.839844 6.214844 2.996094-6.136719-1.328126-.652344-2.992187 6.136719 3.203125-6.027344c-1.03125-.550781-1.902344-1.085938-2.597656-1.628906l-4.191406 5.398437 4.726562-4.933593-.386719-.378907-.453125-.386719c-.199218-.152343-.753906-.726562-1.621094-1.601562l-.007812-.019531c-.910156-.882813-1.476562-1.433594-1.605469-1.617188l-.441406-.503906-.382813-.390625-4.886718 4.761719 5.390625-4.179688c-.535157-.6875-1.070313-1.558593-1.621094-2.605469l-6.027344 3.210938 6.128907-3.007812-.660157-1.335938-6.121093 3.011719 6.199218-2.847657c-.261718-.574218-.511718-1.21875-.742187-1.929687l-.046875-.128906c-.777344-2.214844-1.164063-4.496094-1.164063-6.785157 0-3.15625.730469-6.300781 2.203125-9.207031l.015625-.035156.03125-.050781-.03125.0625c.535157-1.066406.90625-1.777344 1.203125-2.203125l.085938-.125c.582031-.910157 1.28125-1.753907 2.140625-2.652344l.386719-.445313.316406-.386718-5.320313-4.285156 4.304688 5.300781.332031-.273438.597656-.542969.574219-.589843-4.894531-4.753907 4.578125 5.058594c3.605469-3.273437 5.792969-7.859375 5.800781-12.777344 0-2.675781-.671875-5.429687-2.078125-7.914062l-5.949219 3.34375 6.128906-3.015625-.425781-.855469-.148437-.292968c-1.890625-3.414063-3.621094-6.890626-5.164063-10.441407l-6.261719 2.722657 6.316407-2.597657-.480469-1.15625-.027344-.0625c-1.574218-3.707031-2.976562-7.445312-4.195312-11.257812l-6.5 2.074219 6.546875-1.941407-.25-.820312-.023438-.09375c-1.246093-3.996094-2.328125-8.039063-3.203125-12.125l-6.679687 1.425781 6.710937-1.28125-.054687-.277344-.03125-.140625c-.875-4.15625-1.574219-8.394531-2.09375-12.691406l-.015625-.148437-.070313-.449219-6.753906.960937 6.78125-.796875c-.5-4.191406-.792969-8.464843-.949219-12.808593v-.109376l-.054687-1.011718-6.816407.335937 6.824219-.195312c-.039062-1.371094-.054687-2.75-.054687-4.132813 0-2.828125.078125-5.691406.21875-8.578125v-.046875l.058594-1.421875-6.816407-.285156 6.8125.386719c.238281-4.160156.652344-8.382813 1.207031-12.640625v-.027344l.21875-1.703125-6.773437-.855469 6.765625.941407c.582031-4.167969 1.335938-8.363282 2.21875-12.589844.140625-.667969.265625-1.273438.386719-1.816406.925781-4.171876 2.003906-8.355469 3.21875-12.542969v.003906c.203125-.671875.382812-1.308594.558593-1.882813l.007813-.039062c1.257813-4.15625 2.671875-8.316406 4.222656-12.457031.242188-.644531.488281-1.289063.726563-1.921875l.011718-.019532c1.597657-4.148437 3.332032-8.285156 5.226563-12.394531l-.007813.023438c.273438-.589844.566407-1.203125.871094-1.847657l.007813-.015624c1.945312-4.140626 4.035156-8.253907 6.265625-12.324219l-5.976563-3.285157 5.941407 3.359376.976562-1.730469.015625-.023438c2.3125-4.136719 4.753906-8.214843 7.363281-12.238281l-5.734375-3.710938 5.6875 3.769532.980469-1.472656.007812-.015626c2.707032-4.109374 5.535157-8.179687 8.53125-12.15625l-5.460937-4.105468 5.402344 4.183594.859375-1.109376.039062-.046874c3.128906-4.109376 6.371094-8.140626 9.789063-12.074219l-5.148438-4.476563 5.078125 4.550782.574219-.636719.046875-.066407c3.582031-4.101562 7.3125-8.117187 11.230469-12.039062 3.714843-3.714844 7.554687-7.277344 11.464843-10.71875l.054688-.039062.972656-.878907-4.554687-5.082031 4.476562 5.152344c3.714844-3.226563 7.515625-6.304688 11.378907-9.277344l.03125-.023438 1.542968-1.203124-4.179687-5.390626 4.113281 5.453126c3.753906-2.839844 7.570312-5.539063 11.433594-8.105469l.015625-.007813c.628906-.417968 1.234375-.824218 1.800781-1.195312l.015625-.007813c3.828125-2.496093 7.695313-4.863281 11.605469-7.089843l.007812-.007813c.605469-.347656 1.238282-.707031 1.921875-1.085937l-.015625.007812c3.933594-2.195312 7.890625-4.257812 11.867188-6.175781l-.007813.007812c.542969-.261719 1.148438-.542969 1.824219-.851562h-.007812c4.078124-1.925781 8.160156-3.707031 12.222656-5.320313l-2.511719-6.347656 2.433594 6.375 1.480469-.566406.039062-.015625c4.273438-1.652344 8.535156-3.179688 12.777344-4.515625l-2.046875-6.507813 1.90625 6.558594.675781-.203125.117188-.03125c4.34375-1.351562 8.6875-2.542969 13.023437-3.578125l.085937-.015625.613282-.15625-1.660156-6.617188 1.558593 6.640626c4.25-.992188 8.523438-1.804688 12.816407-2.503907l.023437-.007812 1.441406-.234375-1.117187-6.734375 1.039062 6.742187c4.082032-.628906 8.160156-1.09375 12.234375-1.433594h-.015625c.722656-.054687 1.316406-.117187 1.789063-.148437h.03125c3.964843-.296875 7.914062-.4375 11.847656-.441406h-.015625 1.921875.011719c3.894531.039062 7.753906.214843 11.574218.535156v-.011719c.566407.058594 1.179688.109375 1.835938.175782h-.007812c3.863281.367187 7.664062.859374 11.402343 1.507812l1.164063-6.722656-1.277344 6.703125 1.605469.308593.039062.011719c3.855469.710938 7.632813 1.546875 11.316407 2.550781l1.792968-6.585937-1.921875 6.546875 1.039063.3125.078125.023438c3.910156 1.09375 7.71875 2.324218 11.410156 3.730468l.128906.046875.09375.039063 2.296875-6.429688-2.445312 6.375c3.6875 1.410156 7.316406 3.023438 10.894531 4.792969l.285156.128906.644531.28125 2.730469-6.253906-3.042969 6.105469c3.710938 1.855468 7.78125 2.808594 11.886719 2.808594 5.488281.011718 11.121094-1.742188 15.667969-5.535157l-4.375-5.242187 3.855469 5.628906 1.480469-1.015625.234374-.164063c3.621094-2.699218 7.847657-4.035156 12.132813-4.039062 2.277344.003906 4.566406.386719 6.761719 1.164062l.117187.039063c.722657.238281 1.398438.5 2.039063.796875l2.855468-6.199219-2.992187 6.136719 1.273437.621094 2.992188-6.136719-3.1875 6.035156c.984375.519531 1.824219 1.03125 2.515625 1.574219l4.164063-5.40625-4.691407 4.949219.449219.433593.433594.378907c.226562.164062.777344.726562 1.644531 1.605469l-.011719-.015626c.882813.878907 1.457032 1.425782 1.621094 1.652344l.410156.472656.433594.453126 4.917969-4.734376-5.40625 4.167969c.527343.679688 1.050781 1.519531 1.578125 2.527344l6.035156-3.195313-6.144531 2.976563.621093 1.273437 6.132813-2.988281-6.1875 2.871094c.292969.636719.558594 1.320313.78125 2.011719l.046875.140625c.769531 2.175781 1.15625 4.464843 1.15625 6.753906 0 4.28125-1.335938 8.515625-4.042969 12.148437l-.160156.226563-1.007813 1.472656 5.636719 3.863281-5.234375-4.390624c-3.8125 4.542968-5.5625 10.179687-5.554687 15.683593 0 4.089844.945312 8.171875 2.816406 11.894531l6.097656-3.058593-6.246093 2.753906.28125.636719.132812.28125c1.765625 3.566406 3.371094 7.1875 4.785156 10.882812l.023438.050782.039062.09375-.023437-.0625c1.402343 3.6875 2.628906 7.496093 3.722656 11.40625l.03125.085937.300781 1.039063 6.546875-1.933594-6.585937 1.792968c1.007812 3.683594 1.847656 7.464844 2.5625 11.328126v.023437l.300781 1.601563 6.710937-1.261719-6.726562 1.164062c.652344 3.730469 1.148438 7.535157 1.511719 11.398438v.03125c.0625.636719.125 1.230469.171875 1.804687.316406 3.816406.488281 7.675782.527344 11.566406l.007812 1.109376-.007812.789062c-.007813 3.949219-.148438 7.910156-.4375 11.871094v.023437c-.039063.472657-.09375 1.070313-.152344 1.792969v-.023438c-.34375 4.089844-.800782 8.167969-1.4375 12.242188l6.75 1.046875-6.734375-1.140625-.242188 1.449219-.007812.046875c-.691407 4.285156-1.511719 8.558594-2.503907 12.804687l6.648438 1.5625-6.617188-1.691406-.15625.613281-.023437.117188c-1.03125 4.324218-2.21875 8.667968-3.570313 13.015625l-.03125.101562-.199218.671875 6.546875 1.933594-6.507813-2.046875c-1.335937 4.234375-2.855468 8.496094-4.515625 12.769531l-.023437.050782-.558594 1.492187 6.382812 2.410156-6.34375-2.511719c-1.621093 4.074219-3.40625 8.140626-5.320312 12.226563-.320312.667969-.597656 1.269531-.855469 1.8125-1.914062 3.980469-3.980469 7.929687-6.175781 11.871094l.011719-.019531c-.367188.65625-.730469 1.296874-1.09375 1.933593-2.230469 3.902344-4.585938 7.769531-7.085938 11.605469v-.007812c-.371093.574218-.78125 1.1875-1.214843 1.828124-2.570313 3.867188-5.269532 7.679688-8.101563 11.445313l5.449219 4.109375-5.394532-4.191406-1.203124 1.554687-.023438.03125c-2.960938 3.863281-6.042969 7.65625-9.269531 11.371094l5.144531 4.484375-5.082031-4.570312-.875.976562-.046875.054688c-3.4375 3.917968-7 7.75-10.722656 11.476562-3.910157 3.910156-7.925782 7.640625-12.03125 11.222656l-.078126.070313-.636718.570312 4.570312 5.074219-4.476562-5.15625c-3.941406 3.421875-7.976563 6.671875-12.078125 9.796875l-.054688.039063-1.109375.863281 4.179688 5.386719-4.101563-5.453126c-3.980469 2.988282-8.035156 5.820313-12.15625 8.527344l-.023437.019532-1.464844.964843 3.769531 5.695313-3.710937-5.730469c-4.023438 2.59375-8.105469 5.039063-12.242188 7.359375l-.007812.007812-1.730469.96875.054687-.03125c-4.066406 2.242188-8.175781 4.316407-12.320312 6.269532l-.011719.007812c-.644531.308594-1.257812.597656-1.816406.851563l-.015625.007812c-4.105469 1.890625-8.230469 3.628907-12.394531 5.234375l.023437-.007812c-.660156.25-1.320312.503906-1.980468.753906l.03125-.015625c-4.148438 1.550781-8.308594 2.960937-12.464844 4.21875h.007812c-.621094.1875-1.253906.375-1.929687.566406h.007812c-4.1875 1.21875-8.371093 2.304688-12.53125 3.222657-.550781.121093-1.164062.246093-1.835937.386718h.007812c-4.226562.890625-8.425781 1.636719-12.582031 2.214844l.9375 6.769531-.851563-6.773437-1.71875.214844h-.023437c-4.257813.5625-8.476563.96875-12.632813 1.210937l.378907 6.820313-.285157-6.828126-1.421874.0625h-.023438z" fill="#54596e"/><g fill="#ffd578"><path d="m151.320312 295.121094c0 3.769531-3.054687 6.824218-6.824218 6.824218-3.769532 0-6.828125-3.054687-6.828125-6.824218 0-3.769532 3.058593-6.828125 6.828125-6.828125 3.769531 0 6.824218 3.058593 6.824218 6.828125zm0 0"/><path d="m62.574219 301.945312c0 3.773438-3.054688 6.828126-6.824219 6.828126-3.773438 0-6.828125-3.054688-6.828125-6.828126 0-3.769531 3.054687-6.824218 6.828125-6.824218 3.769531 0 6.824219 3.054687 6.824219 6.824218zm0 0"/><path d="m110.363281 288.292969c0 3.769531-3.058593 6.828125-6.828125 6.828125-3.769531 0-6.828125-3.058594-6.828125-6.828125s3.058594-6.828125 6.828125-6.828125c3.769532 0 6.828125 3.058594 6.828125 6.828125zm0 0"/><path d="m240.066406 288.292969c0 3.769531-3.054687 6.828125-6.824218 6.828125-3.769532 0-6.828126-3.058594-6.828126-6.828125s3.058594-6.828125 6.828126-6.828125c3.769531 0 6.824218 3.058594 6.824218 6.828125zm0 0"/><path d="m321.988281 185.894531c0 3.769531-3.054687 6.824219-6.828125 6.824219-3.769531 0-6.824218-3.054688-6.824218-6.824219 0-3.773437 3.054687-6.828125 6.824218-6.828125 3.773438 0 6.828125 3.054688 6.828125 6.828125zm0 0"/><path d="m328.816406 151.761719c0 3.769531-3.058594 6.824219-6.828125 6.824219s-6.828125-3.054688-6.828125-6.824219c0-3.773438 3.058594-6.828125 6.828125-6.828125s6.828125 3.054687 6.828125 6.828125zm0 0"/><path d="m253.722656 226.851562c0 3.773438-3.058594 6.828126-6.828125 6.828126s-6.828125-3.054688-6.828125-6.828126c0-3.769531 3.058594-6.824218 6.828125-6.824218s6.828125 3.054687 6.828125 6.824218zm0 0"/><path d="m246.894531 199.546875c0 3.769531-3.054687 6.828125-6.828125 6.828125-3.769531 0-6.824218-3.058594-6.824218-6.828125s3.054687-6.828125 6.824218-6.828125c3.773438 0 6.828125 3.058594 6.828125 6.828125zm0 0"/><path d="m164.976562 247.332031c0 3.773438-3.058593 6.828125-6.828124 6.828125-3.769532 0-6.828126-3.054687-6.828126-6.828125 0-3.769531 3.058594-6.824219 6.828126-6.824219 3.769531 0 6.828124 3.054688 6.828124 6.824219zm0 0"/><path d="m144.496094 260.988281c0 3.769531-3.058594 6.824219-6.828125 6.824219s-6.828125-3.054688-6.828125-6.824219c0-3.773437 3.058594-6.828125 6.828125-6.828125s6.828125 3.054688 6.828125 6.828125zm0 0"/><path d="m287.855469 206.375c0 3.769531-3.058594 6.824219-6.828125 6.824219-3.769532 0-6.824219-3.054688-6.824219-6.824219 0-3.773438 3.054687-6.828125 6.824219-6.828125 3.769531 0 6.828125 3.054687 6.828125 6.828125zm0 0"/><path d="m212.761719 233.679688c0 3.769531-3.054688 6.828124-6.828125 6.828124-3.769532 0-6.824219-3.058593-6.824219-6.828124 0-3.769532 3.054687-6.828126 6.824219-6.828126 3.773437 0 6.828125 3.058594 6.828125 6.828126zm0 0"/><path d="m205.933594 267.8125c0 3.769531-3.054688 6.828125-6.824219 6.828125s-6.828125-3.058594-6.828125-6.828125 3.058594-6.824219 6.828125-6.824219 6.824219 3.054688 6.824219 6.824219zm0 0"/><path d="m267.375 254.160156c0 3.769532-3.054688 6.828125-6.828125 6.828125-3.769531 0-6.824219-3.058593-6.824219-6.828125 0-3.769531 3.054688-6.828125 6.824219-6.828125 3.773437 0 6.828125 3.058594 6.828125 6.828125zm0 0"/><path d="m199.109375 301.945312c0 3.773438-3.058594 6.828126-6.828125 6.828126s-6.828125-3.054688-6.828125-6.828126c0-3.769531 3.058594-6.824218 6.828125-6.824218s6.828125 3.054687 6.828125 6.824218zm0 0"/></g><path d="m184.101562 27.703125-.675781.199219-.109375.039062c-4.582031 1.4375-9.121094 3.0625-13.617187 4.804688l.035156-.015625-1.484375.566406-.085938.035156c-4.378906 1.738281-8.710937 3.636719-13.007812 5.65625l.027344-.011719c-.597656.277344-1.257813.582032-1.980469.933594l.023437-.015625c-4.234374 2.042969-8.433593 4.234375-12.59375 6.558594l.03125-.019531c-.695312.386718-1.378906.769531-2.0625 1.160156-4.136718 2.363281-8.238281 4.867188-12.296874 7.515625l.03125-.023437c-.703126.460937-1.359376.898437-1.976563 1.3125l.015625-.011719c-4.070312 2.710937-8.113281 5.5625-12.101562 8.578125l-.054688.042968-1.554688 1.199219.015626-.015625c-4.050782 3.113282-8.070313 6.367188-12.019532 9.808594l-.070312.058594-.976563.875c-2.808593 2.511718-3.050781 6.824218-.539062 9.636718 2.515625 2.8125 6.832031 3.050782 9.640625.542969l.976562-.878906-4.550781-5.085937 4.484375 5.148437c3.707031-3.230469 7.511719-6.308594 11.375-9.273437l.011719-.015626 1.554687-1.199218-4.171875-5.398438 4.117188 5.441406c3.75-2.835937 7.566406-5.527343 11.433593-8.105468l.015626-.007813c.636718-.425781 1.226562-.828125 1.78125-1.183593l.03125-.019532c3.824218-2.496094 7.695312-4.863281 11.597656-7.085937.640625-.363281 1.265625-.71875 1.898437-1.066407l.03125-.019531c3.925781-2.195312 7.882813-4.257812 11.851563-6.167969l.023437-.015624c.527344-.253907 1.117188-.527344 1.769531-.828126l.027344-.011718c4.078125-1.917969 8.152344-3.707032 12.226563-5.320313l-2.519531-6.34375 2.433593 6.375 1.484375-.566406.035156-.015625c4.277344-1.65625 8.539063-3.179688 12.78125-4.511719l-2.050781-6.511719 1.9375 6.546876.675781-.199219c3.613282-1.070313 5.679688-4.867188 4.609376-8.484375-1.066407-3.613282-4.863282-5.679688-8.480469-4.609375zm0 0" fill="#fff"/><g clip-path="url(#a)"><g clip-path="url(#b)"><path d="m20.296875 159.738281h336.300781v197.957031h-336.300781zm0 0" fill="#ddd462"/></g></g><path d="m362.535156 123.546875-.042968 1.304687c-.046876.617188-.109376 1.242188-.164063 1.863282-.347656 4.21875-.828125 8.464844-1.480469 12.710937l-.246094 1.445313c-.707031 4.425781-1.5625 8.851562-2.59375 13.28125l-.152343.613281c-.394531 1.65625-.8125 3.3125-1.253907 4.972656-.335937 3.890625-.777343 7.78125-1.382812 11.664063l-.226562 1.359375-.007813.042969c-.683594 4.25-1.5 8.488281-2.484375 12.703124l-.148438.589844-.023437.113282c-1.03125 4.328124-2.21875 8.671874-3.566406 13.019531l-.03125.097656-.203125.675781h.003906c-1.328125 4.199219-2.832031 8.421875-4.480469 12.652344l-.023437.054688-.535156 1.425781c-1.617188 4.058593-3.394532 8.121093-5.304688 12.191406-.316406.667969-.597656 1.269531-.851562 1.8125-1.917969 3.980469-3.980469 7.929687-6.175782 11.871094l.007813-.019531c-.363281.65625-.726563 1.296874-1.09375 1.933593-2.226563 3.902344-4.582031 7.769531-7.082031 11.605469v-.007812c-.371094.574218-.785157 1.1875-1.21875 1.828124-2.550782 3.839844-5.230469 7.632813-8.042969 11.367188v-.003906l-1.203125 1.554687-.023438.03125c-2.945312 3.835938-6 7.601563-9.203125 11.292969l-.003906-.007812-.878906.976562-.046875.054688c-3.4375 3.917968-6.996094 7.75-10.71875 11.476562-3.910156 3.910156-7.929688 7.640625-12.035156 11.222656l-.074219.070313-.542969.488281c-3.941406 3.421875-7.976562 6.667969-12.078125 9.796875l-.054687.039063-1.03125.800781-.003907-.003907c-3.976562 2.988282-8.035156 5.820313-12.15625 8.527344l-.023437.015625-1.464844.964844v.003906c-4.003906 2.585938-8.066406 5.015625-12.179688 7.320313l-.007812.011718-1.730469.96875.054688-.035156c-4.066407 2.242188-8.175781 4.320313-12.320313 6.269532l-.015625.007812c-.640625.3125-1.253906.597656-1.8125.855469l-.015625.003906c-4.105468 1.894531-8.234375 3.632813-12.398437 5.238281l.023437-.007812c-.65625.246094-1.316406.503906-1.976562.753906l.03125-.019531c-4.152344 1.550781-8.308594 2.964843-12.464844 4.222656h.007812c-.621093.183594-1.257812.375-1.933593.566406h.011719c-4.191407 1.214844-8.371094 2.304688-12.53125 3.21875-.550782.125-1.164063.25-1.835938.390625h.007812c-4.226562.890625-8.425781 1.632813-12.582031 2.214844v.003906l-1.632812.207032h-.023438c-4.226562.554687-8.414062.960937-12.542969 1.207031v-.003907l-1.421874.0625h-.023438c-2.890625.128907-5.753906.214844-8.5625.214844-1.40625 0-2.800781-.015625-4.171875-.050781l-.894531-.039063-.085938-.007812c-4.261718-.144531-8.472656-.441406-12.597656-.917969l-.449219-.066406-.1875-.027344c-4.304687-.519531-8.539062-1.207031-12.699219-2.09375l-.140624-.023437-.15625-.03125c-4.085938-.882813-8.113282-1.957032-12.089844-3.195313l-.085938-.023437-.824218-.25c-3.761719-1.199219-7.46875-2.597656-11.128907-4.148438l-.070312-.03125-1.164063-.484375-.003906.003907c-3.496094-1.53125-6.9375-3.242188-10.3125-5.113282l-.273438-.140625-.667968-.332031c-2.445313-1.351562-5.148438-2.003906-7.742188-2.003906-.015625 0-.03125 0-.046875 0-4.847656.011718-9.367187 2.128906-12.625 5.648437l-.429687.414063-.292969.316406-.351563.3125c-.894531.859375-1.738281 1.558594-2.628906 2.132812l-.148437.089844c-.394531.28125-1.054688.632813-2.019531 1.117188l-.183594.085937c-2.917969 1.476563-6.074219 2.207031-9.222656 2.210938-2.296876-.003907-4.59375-.386719-6.789063-1.164063l-.125-.035156c-.6875-.234375-1.332031-.484375-1.9375-.757812l-1.082031-.535157c-.855469-.460937-1.597656-.90625-2.214844-1.367187l-.117188-.109375-.449218-.386719c-.203125-.148438-.753906-.722656-1.621094-1.601562l-.007812-.015626c-.910157-.882812-1.476563-1.433593-1.605469-1.621093l-.445313-.5-.089844-.09375c-.457031-.632813-.917968-1.394531-1.390624-2.289063l-.527344-1.066406c-.25-.558594-.492188-1.179688-.714844-1.867188l-.046875-.125c-.773437-2.21875-1.164063-4.5-1.164063-6.789062 0-3.15625.730469-6.296875 2.203126-9.207031l.015624-.035157.03125-.050781-.03125.0625c.375-.742187.667969-1.3125.910157-1.734375-.175781-.128906-.347657-.257812-.519531-.390625l-.390626-.375c-.78125-.621093-1.464843-1.386719-2.1875-2.109375-.636718-.632812-1.289062-1.257812-1.851562-1.925781l-.414062.515625c-.632813.929688-1.117188 1.917969-1.628907 2.910156l-.023437.050782c-3.382813 6.679687-3.847656 14.375-1.378906 21.347656.292968.894531.625 1.777344 1.023437 2.632812l.652344 1.332032c.65625 1.242187 1.378906 2.453124 2.257812 3.578124l.371094.390626c.628906.78125 1.390625 1.464843 2.109375 2.183593.722656.722657 1.410156 1.492188 2.1875 2.109375l.386719.382813c1.132812.867187 2.34375 1.597656 3.585937 2.253906l1.324219.65625c.863281.386719 1.738281.726563 2.632813 1.023437 2.933593 1.035157 5.996093 1.550782 9.054687 1.550782 4.214844 0 8.429687-.980469 12.300781-2.941406l.054688-.023438c.992187-.503906 1.976562-.996094 2.90625-1.621094 1.378906-.882812 2.570312-1.894531 3.675781-2.957031l.386719-.316406.28125-.332031.589844-.574219c2.046874-2.269531 4.863281-3.558594 7.710937-3.558594 1.554687 0 3.117187.382813 4.566406 1.199219l.863281.425781c3.589844 1.984375 7.257813 3.808594 11.023438 5.453125l1.15625.472656c3.871094 1.636719 7.820312 3.125 11.84375 4.40625l.832031.246094c4.164063 1.304688 8.40625 2.4375 12.71875 3.363281l.28125.050781c4.375.933594 8.8125 1.652344 13.296875 2.195313l.457032.070313c4.398437.523437 8.867187.832031 13.367187.988281l1.023437.042969c1.445313.042968 2.898438.0625 4.355469.0625 2.945313 0 5.90625-.082032 8.878907-.234376l1.421874-.050781c4.355469-.25 8.742188-.683593 13.140626-1.257812l1.707031-.214844c4.335937-.609375 8.6875-1.382813 13.046875-2.304687.636718-.132813 1.265625-.257813 1.902344-.398438 4.320312-.953125 8.640624-2.078125 12.96875-3.335938.660156-.191406 1.3125-.386718 1.976562-.578124 4.308594-1.304688 8.597656-2.765626 12.878906-4.363282.667969-.253906 1.335938-.503906 1.992188-.757812 4.292968-1.652344 8.550781-3.449219 12.792968-5.398438.636719-.289062 1.269532-.59375 1.902344-.894531 4.265625-2.007813 8.5-4.15625 12.703125-6.46875l1.730469-.96875c4.242188-2.378906 8.449219-4.894531 12.605469-7.585937l1.46875-.976563c4.21875-2.769531 8.402343-5.679687 12.511719-8.777344l1.109374-.859375c4.210938-3.195312 8.363282-6.539062 12.429688-10.070312l.636719-.570313c4.203125-3.675781 8.335937-7.515625 12.371093-11.546875 3.839844-3.839844 7.5-7.777344 11.015626-11.78125l.875-.976562c3.335937-3.832032 6.503906-7.742188 9.542968-11.699219l1.203125-1.550781c2.925781-3.867188 5.695313-7.800782 8.339844-11.765625.417969-.628907.835937-1.25 1.25-1.882813 2.566406-3.945312 5.003906-7.925781 7.296875-11.953125.375-.660156.746094-1.308593 1.121094-1.96875 2.257812-4.050781 4.382812-8.121093 6.359375-12.234375.296875-.617187.582031-1.246094.878906-1.867187 1.960937-4.1875 3.8125-8.394531 5.484375-12.621094l.566406-1.484375c1.707032-4.390625 3.28125-8.78125 4.660156-13.191406l.203126-.683594c1.394531-4.484375 2.628906-8.976562 3.691406-13.46875l.15625-.613281c1.039062-4.433594 1.886718-8.863281 2.601562-13.277344l.238282-1.445313c.660156-4.257812 1.140624-8.492187 1.492187-12.710937.054687-.621094.113281-1.25.152344-1.871094.3125-4.132812.453125-8.246093.457031-12.328125.011719-.667968.011719-1.332031 0-2-.039062-4.058594-.214844-8.082031-.550781-12.074218-.054688-.640626-.113281-1.277344-.179688-1.910157-.1875-2.023437-.53125-4-.796875-6.003906" fill="#54596e"/><path d="m181.492188 196.351562c.707031.035157 1.390624.042969 2.050781.042969 15.34375-.066406 32.015625-7.75 45.707031-21.355469l.003906-.003906c13.621094-13.691406 21.296875-30.375 21.363282-45.714844l-.027344-1.574218c-.140625-3.769532-3.308594-6.710938-7.074219-6.570313-3.769531.140625-6.710937 3.304688-6.570313 7.074219l.019532 1.066406c.066406 10.601563-5.851563 24.613282-17.371094 36.066406h.003906c-11.449218 11.503907-25.460937 17.429688-36.054687 17.363282l-1.414063-.03125c-3.765625-.179688-6.960937 2.734375-7.136718 6.5-.175782 3.765625 2.734374 6.960937 6.5 7.140625zm0 0" fill="#54596e"/><path d="m130.839844 172.238281c0 7.542969-6.109375 13.65625-13.652344 13.65625-7.539062 0-13.652344-6.113281-13.652344-13.65625 0-7.539062 6.113282-13.652343 13.652344-13.652343 7.542969 0 13.652344 6.113281 13.652344 13.652343zm0 0" fill="#54596e"/><path d="m240.066406 63.015625c0 7.539063-6.109375 13.652344-13.652344 13.652344-7.539062 0-13.652343-6.113281-13.652343-13.652344 0-7.542969 6.113281-13.652344 13.652343-13.652344 7.542969 0 13.652344 6.109375 13.652344 13.652344zm0 0" fill="#54596e"/></svg>