<svg height="417pt" viewBox="0 -11 417.33061 417" width="417pt" xmlns="http://www.w3.org/2000/svg"><path d="m211.625 198.140625 80.257812-155.167969c2.601563-5.015625.554688-11.121094-4.4375-13.769531-30.304687-16.085937-65.445312-24.265625-102.695312-21.761719-94.730469 6.390625-171.5 83.457032-177.527344 178.210938-7.070312 111.21875 81.046875 203.640625 190.75 203.640625 105.570313 0 191.152344-85.582031 191.152344-191.152344v-.105469c-.007812-5.796875-5.011719-10.347656-10.796875-9.996094z" fill="#ffd578"/><path d="m211.628906 198.144531 6.0625 3.132813 80.257813-155.167969c1.277343-2.464844 1.898437-5.144531 1.894531-7.757813 0-6.222656-3.441406-12.125-9.203125-15.183593-27.640625-14.675781-59.203125-23.003907-92.664063-23.003907-4.527343-.003906-9.09375.148438-13.699218.464844-98.1875 6.65625-177.578125 86.359375-183.867188 184.585938-.273437 4.332031-.410156 8.636718-.410156 12.914062.00390625 109.34375 88.632812 197.980469 197.976562 197.984375 109.335938-.003906 197.964844-88.632812 197.972657-197.96875v-.105469c.003906-4.714843-1.992188-9-5.074219-11.992187-3.078125-3.007813-7.316406-4.855469-11.917969-4.855469-.207031 0-.675781-.011718-1.382812.0625l.757812 6.789063-.414062-6.816407-166.703125 10.101563.414062 6.816406 6.0625 3.132813-6.0625-3.132813.414063 6.8125 166.703125-10.105469.34375-.027343-.339844-3.039063.085938 3.058594.253906-.019531-.339844-3.039063.085938 3.058594.121093-.003906c.914063 0 1.757813.371094 2.382813.972656.617187.621094.949218 1.34375.957031 2.226562v.105469c-.003906 50.914063-20.621094 96.953125-53.988281 130.332031-33.378906 33.363282-79.414063 53.980469-130.332032 53.988282-50.921874-.007813-96.957031-20.625-130.335937-53.996094-33.367187-33.378906-53.980469-79.417969-53.988281-130.335938 0-3.984374.128906-8.003906.386718-12.050781 5.761719-91.28125 79.914063-165.71875 171.167969-171.828125 4.289063-.296875 8.539063-.4375 12.769531-.4375 31.191407.003906 60.523438 7.753906 86.265626 21.414063 1.277343.675781 1.945312 1.925781 1.945312 3.121093l-.367188 1.484376-80.257812 155.171874c-1.132812 2.183594-1 4.796876.34375 6.859376 1.34375 2.058593 3.675781 3.238281 6.132812 3.089843zm0 0" fill="#54596e"/><path d="m215.039062 232.273438c-5.65625 0-10.242187 4.59375-10.242187 10.242187 0 5.652344 4.585937 10.238281 10.242187 10.238281 5.660157 0 10.238282-4.585937 10.238282-10.238281 0-5.648437-4.578125-10.242187-10.238282-10.242187" fill="#a99773"/><path d="m160.425781 321.027344c-5.65625 0-10.242187 4.585937-10.242187 10.238281 0 5.648437 4.585937 10.242187 10.242187 10.242187 5.660157 0 10.238281-4.59375 10.238281-10.242187 0-5.652344-4.578124-10.238281-10.238281-10.238281" fill="#a99773"/><path d="m351.578125 204.96875c-5.664063 0-10.238281 4.589844-10.238281 10.238281 0 5.652344 4.574218 10.238281 10.238281 10.238281 5.65625 0 10.242187-4.585937 10.242187-10.238281 0-5.648437-4.585937-10.238281-10.242187-10.238281" fill="#a99773"/><path d="m98.984375 109.394531c-5.652344 0-10.238281 4.59375-10.238281 10.238281 0 5.65625 4.585937 10.242188 10.238281 10.242188 5.664063 0 10.242187-4.585938 10.242187-10.242188 0-5.644531-4.578124-10.238281-10.242187-10.238281" fill="#a99773"/><path d="m204.800781 95.742188c0 18.851562-15.28125 34.136718-34.132812 34.136718-18.851563 0-34.132813-15.285156-34.132813-34.136718 0-18.851563 15.28125-34.132813 34.132813-34.132813 18.851562 0 34.132812 15.28125 34.132812 34.132813zm0 0" fill="#ff927d"/><path d="m204.800781 95.742188h6.828125c-.003906-22.625-18.339844-40.953126-40.960937-40.957032-22.621094.003906-40.953125 18.332032-40.960938 40.957032.007813 22.625 18.339844 40.953124 40.960938 40.957031 22.621093-.003907 40.957031-18.332031 40.960937-40.957031h-13.652344c-.003906 7.5625-3.046874 14.34375-8 19.308593-4.964843 4.953125-11.746093 7.992188-19.308593 8-7.5625-.007812-14.347657-3.046875-19.308594-8-4.953125-4.964843-7.996094-11.75-8-19.308593.003906-7.5625 3.046875-14.34375 8-19.308594 4.960937-4.953125 11.746094-7.992188 19.308594-8 7.5625.007812 14.34375 3.046875 19.308593 8 4.953126 4.964844 7.992188 11.746094 8 19.308594zm0 0" fill="#54596e"/><path d="m259.414062 321.023438c0 11.3125-9.167968 20.480468-20.480468 20.480468-11.308594 0-20.480469-9.167968-20.480469-20.480468 0-11.308594 9.171875-20.480469 20.480469-20.480469 11.3125 0 20.480468 9.171875 20.480468 20.480469zm0 0" fill="#ff927d"/><path d="m163.839844 286.890625c0 11.3125-9.167969 20.480469-20.476563 20.480469-11.3125 0-20.480469-9.167969-20.480469-20.480469s9.167969-20.480469 20.480469-20.480469c11.308594 0 20.476563 9.167969 20.476563 20.480469zm0 0" fill="#ff927d"/><path d="m184.320312 198.144531c0 11.308594-9.167968 20.480469-20.480468 20.480469-11.308594 0-20.476563-9.171875-20.476563-20.480469 0-11.3125 9.167969-20.480469 20.476563-20.480469 11.3125 0 20.480468 9.167969 20.480468 20.480469zm0 0" fill="#fff35f"/><path d="m163.839844 78.675781c0 9.425781-7.640625 17.066407-17.066406 17.066407-9.425782 0-17.066407-7.640626-17.066407-17.066407s7.640625-17.066406 17.066407-17.066406c9.425781 0 17.066406 7.640625 17.066406 17.066406zm0 0" fill="#fff35f"/><path d="m122.882812 194.730469c0 20.738281-16.8125 37.546875-37.546874 37.546875-20.738282 0-37.546876-16.808594-37.546876-37.546875s16.808594-37.546875 37.546876-37.546875c20.734374 0 37.546874 16.808594 37.546874 37.546875zm0 0" fill="#f4a14e"/><path d="m122.882812 194.730469h6.824219c-.003906-24.507813-19.863281-44.371094-44.371093-44.375-24.511719.003906-44.367188 19.867187-44.375 44.375.007812 24.507812 19.863281 44.367187 44.375 44.371093 24.507812-.003906 44.367187-19.863281 44.371093-44.371093h-13.652343c-.003907 8.503906-3.429688 16.140625-8.996094 21.722656-5.582032 5.570313-13.21875 8.992187-21.722656 8.996094-8.503907-.003907-16.140626-3.429688-21.722657-8.996094-5.570312-5.582031-8.996093-13.21875-9-21.722656.003907-8.507813 3.429688-16.144531 9-21.722657 5.582031-5.570312 13.21875-8.996093 21.722657-9 8.503906.007813 16.140624 3.429688 21.722656 9 5.570312 5.578126 8.992187 13.214844 8.996094 21.722657zm0 0" fill="#54596e"/><path d="m95.574219 239.105469c0 11.308593-9.167969 20.476562-20.480469 20.476562-11.308594 0-20.480469-9.167969-20.480469-20.476562 0-11.3125 9.171875-20.480469 20.480469-20.480469 11.3125 0 20.480469 9.167969 20.480469 20.480469zm0 0" fill="#ff927d"/><path d="m334.507812 245.929688c0 15.082031-12.226562 27.308593-27.304687 27.308593-15.082031 0-27.308594-12.226562-27.308594-27.308593 0-15.082032 12.226563-27.304688 27.308594-27.304688 15.078125 0 27.304687 12.222656 27.304687 27.304688zm0 0" fill="#fff35f"/><path d="m334.507812 245.929688h6.828126c-.007813-18.855469-15.28125-34.128907-34.132813-34.132813-18.855469.003906-34.128906 15.277344-34.132813 34.132813.003907 18.855468 15.277344 34.128906 34.132813 34.128906 18.851563 0 34.125-15.273438 34.132813-34.128906h-13.652344c-.023438 11.304687-9.175782 20.457031-20.480469 20.480468-11.308594-.023437-20.460937-9.175781-20.480469-20.480468.019532-11.304688 9.171875-20.457032 20.480469-20.484376 11.304687.027344 20.457031 9.179688 20.480469 20.484376zm0 0" fill="#54596e"/><g fill="#fff35f"><path d="m122.882812 245.929688c-1.097656-.027344-6.261718.339843-11.945312 4.90625-5.699219 4.550781-11.511719 12.914062-15.160156 27.570312-.914063 3.65625 1.308594 7.363281 4.96875 8.277344 3.65625.917968 7.363281-1.308594 8.277344-4.960938 3.179687-12.65625 7.605468-17.945312 10.441406-20.222656 1.441406-1.148438 2.546875-1.59375 3.183594-1.792969l.5625-.136719-.078126-.582031.039063.585938.039063-.003907-.078126-.582031.039063.585938-.292969-4.449219v4.457031l.292969-.007812-.292969-4.449219v4.457031c3.769532 0 6.824219-3.058593 6.824219-6.824219 0-3.769531-3.054687-6.824218-6.824219-6.824218v-.003906zm0 0"/><path d="m207.03125 37.335938c-.289062.671874-1.101562 2.890624-1.101562 6.320312-.015626 3.59375.941406 8.46875 4.019531 13.851562 3.070312 5.394532 8.175781 11.296876 16.355469 17.484376 3.007812 2.273437 7.289062 1.679687 9.5625-1.324219 2.273437-3.007813 1.679687-7.289063-1.328126-9.5625-7.035156-5.324219-10.765624-9.910157-12.722656-13.351563-1.953125-3.460937-2.222656-5.78125-2.238281-7.097656 0-.625.074219-1.03125.113281-1.199219l.019532-.085937-.699219-.195313.683593.25.015626-.050781-.699219-.195312.683593.246093-4.277343-1.511719 4.171875 1.78125.105468-.269531-4.277343-1.511719 4.171875 1.78125c1.476562-3.46875-.136719-7.480468-3.605469-8.957031-3.46875-1.480469-7.476563.132813-8.957031 3.601563zm0 0"/><path d="m307.203125 307.371094h2.351563l-2.351563-.035156v.035156h2.351563l-2.351563-.035156c.03125.101562-.1875 4.734374-1.972656 8.40625-.878907 1.851562-2.039063 3.402343-3.53125 4.476562-1.515625 1.054688-3.433594 1.871094-6.847657 1.898438-1.753906 0-3.902343-.253907-6.484374-.890626-3.660157-.910156-7.363282 1.316407-8.273438 4.980469-.90625 3.660157 1.320312 7.359375 4.984375 8.273438 3.484375.863281 6.726563 1.289062 9.773437 1.289062 6.0625.035157 11.324219-1.808593 15.179688-4.734375 5.832031-4.421875 8.332031-10.46875 9.582031-15.078125 1.234375-4.664062 1.234375-8.203125 1.242188-8.582031 0-3.773438-3.058594-6.828125-6.828125-6.828125-3.769532-.003906-6.824219 3.050781-6.824219 6.824219zm0 0"/><path d="m293.898438 254.917969 2.589843-.867188-2.613281.796875.023438.070313 2.589843-.867188-2.613281.796875c.023438.054688.441406 1.554688.429688 3.214844.003906.949219-.125 1.929688-.40625 2.769531-.46875 1.269531-1.015626 2.234375-2.796876 3.347657-1.789062 1.089843-5.210937 2.234374-11.207031 2.234374-3.769531 0-6.824219 3.050782-6.824219 6.824219 0 3.769531 3.054688 6.828125 6.824219 6.828125 5.117188-.003906 9.445313-.632812 13.160157-1.871094 5.558593-1.8125 9.714843-5.246093 12.015624-9.15625 2.324219-3.898437 2.886719-7.875 2.890626-10.976562-.015626-4.167969-.976563-7.027344-1.109376-7.46875-1.195312-3.574219-5.0625-5.511719-8.640624-4.3125-3.574219 1.195312-5.503907 5.066406-4.3125 8.640625zm0 0"/><path d="m179.433594 292.636719.070312-.035157c.519532-.289062 3.609375-1.957031 7.714844-3.492187 4.097656-1.546875 9.246094-2.898437 13.507812-2.878906 3.066407.003906 5.503907.632812 7.300782 1.835937 1.777344 1.226563 3.40625 3.078125 4.628906 7.285156 1.015625 3.628907 4.785156 5.746094 8.414062 4.730469 3.632813-1.015625 5.75-4.78125 4.734376-8.414062-1.824219-6.652344-5.476563-11.851563-10.203126-14.960938-4.714843-3.140625-10.007812-4.132812-14.871093-4.128906-7.332031.027344-14.125 2.128906-19.277344 4.117187-5.132813 2.003907-8.585937 3.96875-8.785156 4.082032-3.277344 1.867187-4.417969 6.039062-2.546875 9.316406 1.867187 3.273438 6.039062 4.410156 9.3125 2.542969zm0 0"/><path d="m81.921875 321.019531v-.3125l-.003906.316407.003906-.003907v-.3125l-.003906.316407c.359375-.011719 6.625.164062 12.964843 2.417968 3.171876 1.113282 6.328126 2.722656 8.886719 4.886719 2.5625 2.179687 4.566407 4.816406 5.808594 8.503906 1.191406 3.578125 5.058594 5.511719 8.632813 4.316407 3.578124-1.1875 5.511718-5.054688 4.320312-8.628907-2.132812-6.441406-6.011719-11.425781-10.367188-14.96875-6.566406-5.339843-14.039062-7.722656-19.84375-8.957031-5.824218-1.214844-10.078124-1.222656-10.398437-1.226562-3.773437 0-6.828125 3.054687-6.828125 6.828124 0 3.769532 3.054688 6.828126 6.828125 6.828126zm0 0"/><path d="m190.796875 148.195312-.011719-.035156c-.230468-.652344-2.699218-8.792968-2.671875-17.019531-.015625-4.394531.703125-8.699219 2.3125-11.863281 1.683594-3.375.320313-7.472656-3.050781-9.160156s-7.472656-.320313-9.160156 3.054687c-2.945313 5.925781-3.742188 12.238281-3.757813 17.96875.035157 11.441406 3.285157 20.988281 3.386719 21.371094 1.191406 3.578125 5.054688 5.511719 8.632812 4.316406 3.574219-1.1875 5.511719-5.054687 4.320313-8.628906zm0 0"/></g><path d="m410.503906 160.929688c-9.792968-52.246094-39.929687-97.292969-81.898437-126.625l-69.191407 134.671874 150.421876-7.808593zm0 0" fill="#ffd578"/><path d="m410.503906 160.929688 6.710938-1.257813c-10.136719-54.050781-41.304688-100.636719-84.699219-130.964844-1.621094-1.132812-3.636719-1.507812-5.554687-1.03125-1.917969.472657-3.527344 1.746094-4.429688 3.507813l-69.191406 134.671875c-1.113282 2.167969-.984375 4.777343.339844 6.828125 1.324218 2.046875 3.652343 3.234375 6.085937 3.109375l150.421875-7.808594c.636719-.035156 1.316406-.171875 1.917969-.382813l.671875-.234374c3.167968-1.121094 5.054687-4.398438 4.4375-7.699219l-6.710938 1.261719-2.273437-6.4375-.671875.234374 2.273437 6.441407-.351562-6.820313-138.574219 7.191406 63.769531-124.117187-6.074219-3.117187-3.910156 5.59375c40.542969 28.335937 69.644532 71.84375 79.097656 122.289062l6.714844-1.257812-2.273437-6.4375zm0 0" fill="#54596e"/><path d="m311.324219 140.578125c4.605469-5.195313 14.5625-9.582031 26.230469-9.523437 11.542968-.054688 21.425781 4.238281 26.085937 9.375 2.566406 2.757812 6.886719 2.917968 9.648437.351562 2.761719-2.566406 2.921876-6.886719.355469-9.644531-8.226562-8.734375-21.371093-13.679688-36.089843-13.734375-14.863282.058594-28.132813 5.097656-36.335938 14-2.535156 2.789062-2.328125 7.105468.464844 9.644531 2.789062 2.53125 7.109375 2.324219 9.644531-.464844zm0 0" fill="#54596e"/><path d="m334.507812 99.15625c0 5.65625-4.585937 10.242188-10.238281 10.242188-5.65625 0-10.242187-4.585938-10.242187-10.242188s4.585937-10.238281 10.242187-10.238281c5.652344 0 10.238281 4.582031 10.238281 10.238281zm0 0" fill="#54596e"/><path d="m361.816406 99.15625c0 5.65625-4.585937 10.242188-10.242187 10.242188s-10.238281-4.585938-10.238281-10.242188 4.582031-10.238281 10.238281-10.238281 10.242187 4.582031 10.242187 10.238281zm0 0" fill="#54596e"/></svg>