<svg height="423pt" viewBox="0 -29 423.51301 423" width="423pt" xmlns="http://www.w3.org/2000/svg"><path d="m290.90625 106.070312c0-54.667968-36.007812-98.988281-80.429688-98.988281-44.417968 0-80.425781 44.320313-80.425781 98.988281 0 54.667969 36.007813 98.984376 80.425781 98.984376 44.421876 0 80.429688-44.316407 80.429688-98.984376zm0 0" fill="#61c5a8"/><path d="m290.90625 106.070312h6.824219c-.007813-28.835937-9.46875-55.0625-25.082031-74.300781-15.574219-19.214843-37.621094-31.523437-62.171876-31.511719-24.546874-.011718-46.59375 12.296876-62.167968 31.511719-15.613282 19.238281-25.074219 45.464844-25.082032 74.300781.007813 28.832032 9.46875 55.058594 25.082032 74.296876 15.574218 19.210937 37.621094 31.523437 62.167968 31.511718 24.550782.011719 46.597657-12.300781 62.171876-31.511718 15.613281-19.238282 25.074218-45.464844 25.082031-74.296876h-13.652344c.007813 25.828126-8.535156 49.097657-22.027344 65.6875-13.535156 16.609376-31.703125 26.460938-51.574219 26.472657-19.867187-.011719-38.035156-9.859375-51.570312-26.472657-13.492188-16.59375-22.035156-39.859374-22.027344-65.6875-.007812-25.835937 8.535156-49.101562 22.027344-65.691406 13.535156-16.613281 31.703125-26.460937 51.570312-26.472656 19.871094.011719 38.039063 9.859375 51.574219 26.472656 13.492188 16.59375 22.035157 39.859375 22.027344 65.691406zm0 0" fill="#54596e"/><path d="m391.386719 147.03125c0-56.554688-32.09375-102.402344-71.683594-102.402344-39.585937 0-71.679687 45.847656-71.679687 102.402344 0 56.550781 32.09375 102.398438 71.679687 102.398438 39.589844 0 71.683594-45.847657 71.683594-102.398438zm0 0" fill="#adf2a2"/><path d="m391.386719 147.03125h6.824219c-.015626-29.570312-8.339844-56.449219-22.230469-76.324219-6.953125-9.929687-15.324219-18.117187-24.84375-23.875-9.507813-5.753906-20.207031-9.035156-31.433594-9.027343-11.222656-.007813-21.921875 3.273437-31.429687 9.027343-14.28125 8.648438-25.980469 22.707031-34.179688 40.023438-8.191406 17.332031-12.890625 37.996093-12.894531 60.175781.015625 29.566406 8.339843 56.445312 22.226562 76.320312 6.953125 9.929688 15.328125 18.113282 24.847657 23.871094 9.507812 5.753906 20.207031 9.039063 31.429687 9.03125 11.226563.007813 21.925781-3.277344 31.433594-9.03125 14.28125-8.644531 25.980469-22.707031 34.175781-40.023437 8.195312-17.332031 12.894531-37.992188 12.898438-60.167969h-13.652344c.015625 26.984375-7.707032 51.300781-19.761719 68.488281-6.019531 8.605469-13.09375 15.410157-20.722656 20.019531-7.644531 4.609376-15.800781 7.058594-24.371094 7.066407-8.566406-.007813-16.722656-2.457031-24.367187-7.066407-11.445313-6.898437-21.636719-18.804687-28.894532-34.175781-7.269531-15.355469-11.59375-34.097656-11.589844-54.332031-.015624-26.984375 7.707032-51.304688 19.761719-68.492188 6.019531-8.605468 13.089844-15.410156 20.722657-20.019531 7.644531-4.609375 15.804687-7.058593 24.371093-7.066406 8.570313.007813 16.726563 2.457031 24.367188 7.066406 11.449219 6.898438 21.640625 18.804688 28.898437 34.171875 7.265625 15.359375 11.589844 34.097656 11.585938 54.339844zm0 0" fill="#54596e"/><path d="m172.929688 147.03125c0-56.554688-32.089844-102.402344-71.679688-102.402344-39.585938 0-71.679688 45.847656-71.679688 102.402344 0 56.550781 32.09375 102.398438 71.679688 102.398438 39.589844 0 71.679688-45.847657 71.679688-102.398438zm0 0" fill="#adf2a2"/><path d="m172.929688 147.03125h6.828124c-.015624-29.570312-8.339843-56.449219-22.230468-76.324219-6.953125-9.929687-15.324219-18.117187-24.84375-23.875-9.507813-5.753906-20.207032-9.035156-31.433594-9.027343-11.222656-.007813-21.921875 3.273437-31.429688 9.027343-14.28125 8.648438-25.980468 22.707031-34.179687 40.023438-8.191406 17.332031-12.890625 37.996093-12.894531 60.175781.015625 29.566406 8.339844 56.445312 22.226562 76.320312 6.953125 9.929688 15.328125 18.113282 24.847656 23.871094 9.503907 5.753906 20.207032 9.039063 31.429688 9.03125 11.226562.007813 21.925781-3.277344 31.433594-9.03125 14.28125-8.644531 25.976562-22.707031 34.175781-40.023437 8.195313-17.332031 12.894531-37.992188 12.898437-60.167969h-13.652343c.015625 26.984375-7.707031 51.300781-19.761719 68.488281-6.019531 8.605469-13.09375 15.410157-20.722656 20.019531-7.644532 4.609376-15.800782 7.058594-24.371094 7.066407-8.566406-.007813-16.722656-2.457031-24.367188-7.066407-11.449218-6.898437-21.636718-18.804687-28.898437-34.175781-7.265625-15.355469-11.589844-34.097656-11.585937-54.332031-.015626-26.984375 7.707031-51.304688 19.761718-68.492188 6.019532-8.605468 13.089844-15.410156 20.722656-20.019531 7.644532-4.609375 15.800782-7.058593 24.367188-7.066406 8.570312.007813 16.726562 2.457031 24.371094 7.066406 11.445312 6.898438 21.636718 18.804688 28.898437 34.171875 7.265625 15.359375 11.589844 34.097656 11.585938 54.339844zm0 0" fill="#54596e"/><path d="m347.011719 232.363281c0-60.324219-61.128907-109.226562-136.535157-109.226562-75.402343 0-136.53125 48.902343-136.53125 109.226562s61.128907 109.226563 136.53125 109.226563c75.40625 0 136.535157-48.902344 136.535157-109.226563zm0 0" fill="#9af43b"/><path d="m347.011719 232.363281h6.828125c.003906-32.546875-16.542969-61.800781-42.550782-82.566406-26.035156-20.8125-61.632812-33.480469-100.8125-33.488281-39.179687.007812-74.773437 12.675781-100.808593 33.488281-26.007813 20.765625-42.558594 50.019531-42.550781 82.566406-.003907 32.542969 16.542968 61.796875 42.550781 82.5625 26.035156 20.8125 61.628906 33.480469 100.808593 33.488281 39.179688-.007812 74.777344-12.675781 100.8125-33.488281 26.007813-20.765625 42.554688-50.019531 42.550782-82.5625h-13.65625c-.003906 27.78125-14.019532 53.140625-37.425782 71.902344-23.378906 18.722656-56.054687 30.503906-92.28125 30.496094-36.226562.007812-68.898437-11.773438-92.277343-30.496094-23.40625-18.761719-37.421875-44.121094-37.425781-71.902344.003906-27.78125 14.019531-53.144531 37.425781-71.90625 23.378906-18.722656 56.050781-30.503906 92.277343-30.496093 36.230469-.007813 68.902344 11.773437 92.28125 30.496093 23.40625 18.761719 37.421876 44.125 37.425782 71.90625zm0 0" fill="#54596e"/><path d="m271.917969 196.523438c.011719-5.65625 4.585937-10.230469 10.238281-10.242188 5.65625.011719 10.230469 4.585938 10.242188 10.242188 0 3.769531 3.054687 6.828124 6.828124 6.828124 3.769532 0 6.824219-3.058593 6.824219-6.828124-.003906-13.199219-10.691406-23.890626-23.894531-23.894532-13.199219.003906-23.886719 10.695313-23.890625 23.894532 0 3.769531 3.054687 6.828124 6.824219 6.828124 3.773437 0 6.828125-3.058593 6.828125-6.828124zm0 0" fill="#54596e"/><path d="m135.386719 196.523438c.007812-5.65625 4.582031-10.230469 10.238281-10.242188 5.652344.011719 10.230469 4.585938 10.238281 10.242188 0 3.769531 3.058594 6.828124 6.828125 6.828124 3.769532 0 6.828125-3.058593 6.828125-6.828124-.003906-13.199219-10.695312-23.890626-23.894531-23.894532-13.199219.003906-23.890625 10.695313-23.894531 23.894532 0 3.769531 3.058593 6.828124 6.828125 6.828124 3.769531 0 6.828125-3.058593 6.828125-6.828124zm0 0" fill="#54596e"/><path d="m408.734375 196.949219c-17.308594-19.304688-58.308594-36.265625-89.253906 16.972656-21.585938 37.140625-43.882813 67.574219-26.574219 86.878906 17.308594 19.304688 57.269531 11.703125 89.253906-16.972656s43.882813-67.578125 26.574219-86.878906zm0 0" fill="#9af43b"/><path d="m408.734375 196.949219 5.085937-4.554688c-4.890624-5.449219-11.292968-10.605469-18.859374-14.5-7.554688-3.882812-16.316407-6.5-25.734376-6.5-9.40625-.019531-19.417968 2.679688-28.9375 8.992188-9.539062 6.304687-18.570312 16.09375-26.710937 30.105469h.003906c-8.011719 13.789062-16.230469 26.792968-22.597656 38.964843-6.316406 12.195313-11.015625 23.527344-11.085937 34.8125-.0625 7.507813 2.449218 15.054688 7.921874 21.085938l.003907.003906c4.003906 4.46875 9.007812 7.757813 14.527343 9.859375 5.53125 2.109375 11.570313 3.078125 17.871094 3.078125 21.085938-.078125 45.398438-10.554687 66.496094-29.382813v-.003906c11.582031-10.390625 20.703125-22.066406 26.996094-33.921875 6.277344-11.859375 9.78125-23.910156 9.796875-35.203125.023437-10.183594-2.988281-19.941406-9.695313-27.394531l.003906.003906-5.085937 4.554688-5.082031 4.558593c4.078125 4.558594 6.179687 10.628907 6.203125 18.277344.015625 8.402344-2.730469 18.5-8.207031 28.800782-5.460938 10.308593-13.605469 20.800781-24.046876 30.160156v-.003906c-18.953124 17.066406-40.945312 25.980468-57.382812 25.90625-4.902344 0-9.285156-.761719-12.996094-2.179688-3.714844-1.425781-6.765625-3.472656-9.238281-6.222656l.007813.007812c-3.195313-3.660156-4.386719-7.171875-4.445313-11.984375-.074219-7.152343 3.515625-17.074219 9.535156-28.488281 5.972657-11.433594 14.132813-24.378906 22.300781-38.425781v-.003907c7.335938-12.621093 15.035157-20.6875 22.429688-25.574218 7.414062-4.875 14.539062-6.710938 21.414062-6.726563 6.859376 0 13.527344 1.921875 19.492188 4.988281 5.957031 3.054688 11.167969 7.261719 14.933594 11.46875v.003907zm0 0" fill="#54596e"/><path d="m14.773438 196.949219c17.3125-19.304688 58.3125-36.265625 89.253906 16.972656 21.589844 37.140625 43.886718 67.574219 26.578125 86.878906-17.308594 19.304688-57.269531 11.703125-89.253907-16.972656-31.988281-28.675781-43.882812-67.578125-26.578124-86.878906zm0 0" fill="#9af43b"/><path d="m14.773438 196.949219 5.082031 4.558593c3.765625-4.210937 8.976562-8.417968 14.933593-11.472656 5.96875-3.066406 12.632813-4.988281 19.496094-4.988281 6.875.019531 13.996094 1.851563 21.410156 6.726563 7.398438 4.886718 15.097657 12.953124 22.429688 25.574218 8.171875 14.050782 16.332031 26.996094 22.300781 38.429688 6.019531 11.414062 9.609375 21.335937 9.539063 28.488281-.058594 4.808594-1.25 8.324219-4.449219 11.980469l.007813-.003906c-2.472657 2.746093-5.523438 4.796874-9.238282 6.21875-3.707031 1.421874-8.089844 2.179687-12.992187 2.179687-16.4375.078125-38.429688-8.839844-57.386719-25.902344l.003906.003907c-10.445312-9.359376-18.585937-19.855469-24.050781-30.160157-5.476563-10.300781-8.222656-20.398437-8.207031-28.804687.023437-7.644532 2.128906-13.714844 6.203125-18.277344l-5.082031-4.550781-5.078126-4.558594c-6.707031 7.453125-9.7187495 17.210937-9.695312 27.394531.015625 11.292969 3.519531 23.34375 9.800781 35.203125 6.292969 11.855469 15.410157 23.53125 26.992188 33.921875l.003906.003906c21.097656 18.828126 45.410156 29.304688 66.496094 29.382813 6.300781 0 12.339843-.964844 17.867187-3.078125 5.523438-2.101562 10.527344-5.390625 14.527344-9.859375l.007812-.003906c5.46875-6.035157 7.980469-13.582031 7.921876-21.085938-.074219-11.289062-4.773438-22.621093-11.089844-34.8125-6.367188-12.167969-14.585938-25.175781-22.597656-38.964843-8.136719-14.011719-17.167969-23.796876-26.707032-30.105469-9.519531-6.308594-19.53125-9.007813-28.9375-8.988281-9.421875 0-18.179687 2.613281-25.734375 6.496093-7.566406 3.898438-13.96875 9.054688-18.859375 14.496094h.003906zm0 0" fill="#54596e"/><path d="m213.890625 358.65625c44.664063 0 84.195313-17.234375 109.105469-43.761719-16.105469-42.121093-58.804688-72.292969-109.105469-72.292969s-93 30.175782-109.101563 72.292969c24.910157 26.527344 64.4375 43.761719 109.101563 43.761719zm0 0" fill="#61c5a8"/><path d="m213.890625 358.65625v6.824219c46.417969-.019531 87.695313-17.855469 114.082031-45.914063 1.785156-1.90625 2.332032-4.667968 1.398438-7.109375-17.175782-44.871093-62.425782-76.671875-115.480469-76.679687-53.050781.007812-98.304687 31.808594-115.480469 76.679687-.933594 2.441407-.386718 5.203125 1.402344 7.109375 26.382812 28.058594 67.660156 45.898438 114.078125 45.914063v-13.652344c-42.90625.019531-80.691406-16.609375-104.125-41.605469l-4.976563 4.671875 6.375 2.4375c15.03125-39.367187 55.179688-67.914062 102.726563-67.90625 47.546875-.007812 87.691406 28.539063 102.726563 67.90625l6.375-2.4375-4.976563-4.671875c-23.4375 24.996094-61.214844 41.625-104.128906 41.605469v6.828125zm0 0" fill="#54596e"/><path d="m180.378906 202.34375c-7.949218 3.796875-7.320312 15.5 1.066406 18.191406 10.027344 3.222656 20.96875 5 32.445313 5s22.417969-1.777344 32.449219-5c8.386718-2.691406 9.015625-14.398437 1.066406-18.191406-10.0625-4.808594-21.441406-7.527344-33.515625-7.527344s-23.449219 2.71875-33.511719 7.527344zm0 0" fill="#54596e"/><path d="m73.945312 102.65625s20.480469-6.828125 27.304688 6.828125c6.828125 13.652344 37.457031 29.964844 37.457031 29.964844" fill="#9af43b"/><g fill="#54596e"><path d="m76.101562 109.128906-.4375-1.308594.421876 1.316407.015624-.007813-.4375-1.308594.421876 1.316407c.191406-.082031 4.550781-1.386719 8.949218-1.367188 2.34375-.003906 4.628906.367188 6.292969 1.121094 1.683594.789063 2.800781 1.691406 3.8125 3.640625 2.402344 4.71875 6.109375 8.679688 10.273437 12.464844 6.253907 5.621094 13.679688 10.640625 19.621094 14.359375 5.933594 3.707031 10.363282 6.0625 10.457032 6.117187 3.328124 1.769532 7.460937.507813 9.234374-2.816406 1.773438-3.328125.511719-7.460938-2.8125-9.230469l-.296874-.164062c-1.558594-.84375-9.070313-5.003907-16.78125-10.382813-3.855469-2.683594-7.753907-5.675781-10.933594-8.617187-3.183594-2.914063-5.597656-5.863281-6.550782-7.832031-2.398437-4.878907-6.402343-8.246094-10.480468-10.015626-4.09375-1.804687-8.210938-2.285156-11.839844-2.292968-7.25.027344-12.851562 1.945312-13.25 2.058594-3.578125 1.1875-5.511719 5.054687-4.316406 8.632812 1.191406 3.578125 5.058594 5.511719 8.632812 4.320312zm0 0"/><path d="m199.878906 349.136719-.035156-.015625c-.675781-.335938-8.898438-4.6875-16.582031-12.011719-3.851563-3.652344-7.546875-8.027344-10.203125-12.878906-2.660156-4.871094-4.304688-10.140625-4.308594-15.972657 0-2.019531.199219-4.109374.636719-6.285156.742187-3.695312-1.65625-7.296875-5.351563-8.035156-3.695312-.746094-7.292968 1.652344-8.039062 5.347656-.613282 3.058594-.898438 6.058594-.898438 8.972656-.007812 8.742188 2.605469 16.574219 6.335938 23.15625 5.617187 9.894532 13.648437 17.207032 20.238281 22.199219 6.605469 4.976563 11.839844 7.601563 12.097656 7.734375 3.371094 1.679688 7.46875.320313 9.15625-3.050781 1.6875-3.375.320313-7.472656-3.050781-9.15625zm0 0"/><path d="m233.242188 361.347656c.347656-.183594 9.539062-4.769531 19.027343-13.507812 4.742188-4.382813 9.574219-9.824219 13.3125-16.425782 3.726563-6.582031 6.339844-14.414062 6.335938-23.15625 0-2.914062-.285157-5.914062-.902344-8.972656-.742187-3.695312-4.339844-6.089844-8.035156-5.347656-3.695313.738281-6.089844 4.339844-5.351563 8.035156.4375 2.171875.632813 4.265625.636719 6.285156-.007813 6.019532-1.757813 11.445313-4.570313 16.4375-4.199218 7.476563-10.894531 13.757813-16.574218 18.015626-2.828125 2.136718-5.390625 3.78125-7.210938 4.867187-.910156.542969-1.636718.949219-2.121094 1.214844l-.53125.28125-.113281.0625h-.007812c-3.371094 1.683593-4.738281 5.789062-3.054688 9.160156 1.6875 3.371094 5.789063 4.738281 9.160157 3.054687zm0 0"/><path d="m310.253906 160.386719c.113282-.082031 6.976563-4.652344 14.832032-11.058594 3.929687-3.210937 8.105468-6.878906 11.859374-10.753906 3.746094-3.902344 7.09375-7.929688 9.347657-12.386719 2.828125-5.648438 3.761719-11.367188 3.753906-16.457031-.003906-5.101563-.886719-9.640625-1.671875-13.316407-.808594-3.617187-1.421875-6.59375-1.363281-7.414062 0-3.773438-3.058594-6.824219-6.828125-6.824219-3.769532 0-6.824219 3.050781-6.824219 6.824219.054687 3.730469.964844 6.816406 1.667969 10.277344.734375 3.402344 1.367187 6.957031 1.367187 10.453125-.011719 3.503906-.597656 6.890625-2.316406 10.347656-1.160156 2.371094-3.734375 5.703125-6.949219 9-4.820312 4.992187-11.003906 10.0625-15.925781 13.800781-2.464844 1.875-4.617187 3.425782-6.140625 4.496094-.761719.539062-1.367188.957031-1.777344 1.238281l-.601562.40625c-3.140625 2.089844-3.988282 6.328125-1.898438 9.46875s6.328125 3.988281 9.46875 1.898438zm0 0"/><path d="m359.9375 221.890625c-.132812.210937-4.269531 6.777344-8.453125 16.582031-4.164063 9.824219-8.460937 22.863282-8.492187 36.472656-.023438 10.238282 2.597656 21.070313 10.105468 30.054688 2.414063 2.890625 6.71875 3.28125 9.613282.871094 2.894531-2.414063 3.285156-6.71875.871093-9.613282-4.996093-6.011718-6.914062-13.230468-6.9375-21.3125-.03125-10.632812 3.613281-22.296874 7.398438-31.117187 1.882812-4.417969 3.773437-8.136719 5.179687-10.71875.703125-1.292969 1.285156-2.300781 1.683594-2.972656l.449219-.75.128906-.203125c2.011719-3.191406 1.058594-7.410156-2.132813-9.417969-3.1875-2.015625-7.402343-1.0625-9.414062 2.128906zm0 0"/><path d="m121.417969 280.1875-.101563-.007812c-1.386718-.15625-15.976562-2.148438-30.410156-8.625-7.21875-3.222657-14.355469-7.550782-19.859375-13.054688-5.515625-5.539062-9.4375-12.074219-10.847656-20.433594-.621094-3.722656-4.140625-6.234375-7.859375-5.613281-3.71875.617187-6.230469 4.140625-5.609375 7.859375 1.957031 11.851562 7.925781 21.367188 15.367187 28.527344 11.195313 10.773437 25.546875 16.773437 37.09375 20.339844 11.5625 3.539062 20.410156 4.542968 20.691406 4.578124 3.746094.425782 7.128907-2.269531 7.550782-6.015624.421875-3.746094-2.269532-7.125-6.015625-7.550782zm0 0"/><path d="m209.925781 120.445312s-.214843-.496093-.613281-1.460937c-1.394531-3.375-4.9375-12.210937-8.085938-22.070313-1.574218-4.925781-3.050781-10.109374-4.113281-14.933593-1.066406-4.8125-1.691406-9.304688-1.683593-12.582031-.027344-2.503907.425781-4.246094.667968-4.640626 1.6875-3.371093.324219-7.476562-3.042968-9.164062-3.367188-1.691406-7.472657-.328125-9.160157 3.042969-1.710937 3.488281-2.089843 7.046875-2.117187 10.761719.011718 5.554687 1.0625 11.621093 2.535156 17.839843 4.445312 18.546875 12.996094 38.398438 13.0625 38.585938 1.484375 3.460937 5.496094 5.070312 8.960938 3.585937 3.464843-1.484375 5.074218-5.496094 3.585937-8.960937zm0 0"/></g></svg>