<svg height="409pt" viewBox="-20 0 409 409.59659" width="409pt" xmlns="http://www.w3.org/2000/svg"><path d="m247.289062 232.105469h-125.339843c-14.402344 0-26.074219-11.671875-26.074219-26.078125v-124.105469h177.492188v124.105469c-.003907 14.40625-11.679688 26.078125-26.078126 26.078125zm0 0" fill="#999"/><path d="m247.289062 232.105469v-6.824219h-125.339843c-10.628907-.023438-19.230469-8.621094-19.25-19.253906v-117.289063h163.839843v117.289063c-.019531 10.632812-8.621093 19.234375-19.25 19.253906v13.648438c18.175782-.003907 32.902344-14.726563 32.902344-32.902344v-124.105469c0-1.800781-.726562-3.558594-2-4.832031-1.269531-1.269532-3.027344-1.996094-4.824218-1.996094h-177.496094c-1.796875 0-3.554688.726562-4.824219 1.996094-1.273437 1.273437-2 3.03125-2 4.832031v124.105469c0 18.175781 14.726563 32.898437 32.902344 32.902344h125.335937v-6.824219zm0 0" fill="#54596e"/><path d="m243.550781 6.828125h-117.867187c-12.695313 0-22.984375 10.292969-22.984375 22.984375l-6.828125 49.601562c0 12.691407 10.289062 22.984376 22.988281 22.984376h131.519531c12.695313 0 22.984375-10.292969 22.984375-22.984376l-6.824219-49.601562c0-12.691406-10.289062-22.984375-22.988281-22.984375zm0 0" fill="#fff"/><path d="m243.550781 6.828125v-6.828125h-117.867187c-16.46875.00390625-29.808594 13.347656-29.8125 29.8125h6.828125l-6.765625-.933594-6.824219 49.601563-.0625.933593c.003906 16.460938 13.339844 29.804688 29.8125 29.808594h131.519531c16.46875-.003906 29.808594-13.34375 29.8125-29.808594l-.0625-.933593-6.828125-49.601563-6.761719.933594h6.824219c-.003906-16.464844-13.339843-29.80859375-29.8125-29.8125v13.648438c8.921875.019531 16.144531 7.242187 16.160157 16.164062l.0625.929688 6.828124 49.601562 6.761719-.929688h-6.824219c-.019531 8.917969-7.238281 16.140626-16.160156 16.160157h-131.519531c-8.925781-.019531-16.144531-7.242188-16.160156-16.160157h-6.828125l6.765625.929688 6.824219-49.601562.0625-.929688c.019531-8.921875 7.238281-16.144531 16.160156-16.164062h117.867187zm0 0" fill="#54596e"/><path d="m218.75 54.613281c0-11.3125-15.28125-20.480469-34.132812-20.480469-18.851563 0-34.132813 9.167969-34.132813 20.480469s15.28125 20.480469 34.132813 20.480469c18.851562 0 34.132812-9.167969 34.132812-20.480469zm0 0" fill="#ff927d"/><path d="m218.75 54.613281h6.828125c.011719-4.390625-1.527344-8.519531-3.929687-11.90625-3.628907-5.105469-9.039063-8.8125-15.382813-11.40625-6.355469-2.574219-13.746094-3.992187-21.644531-3.996093-10.535156.015624-20.15625 2.5-27.648438 6.96875-3.738281 2.25-6.972656 5.023437-9.382812 8.429687-2.402344 3.386719-3.941406 7.515625-3.929688 11.910156-.011718 4.382813 1.527344 8.515625 3.929688 11.902344 3.628906 5.101563 9.039062 8.8125 15.382812 11.402344 6.355469 2.574219 13.746094 3.996093 21.648438 4 10.535156-.019531 20.15625-2.5 27.648437-6.972657 3.738281-2.25 6.972657-5.019531 9.382813-8.429687 2.402344-3.382813 3.9375-7.515625 3.925781-11.902344h-13.652344c-.011719 1.265625-.386719 2.519531-1.4375 4.035157-1.546875 2.246093-4.796875 4.792968-9.351562 6.617187-4.535157 1.84375-10.28125 3.003906-16.519531 3-8.3125.019531-15.761719-2.082031-20.621094-5.023437-2.4375-1.460938-4.203125-3.097657-5.25-4.589844-1.050782-1.519532-1.425782-2.769532-1.433594-4.039063.007812-1.269531.382812-2.523437 1.433594-4.039062 1.550781-2.246094 4.800781-4.789063 9.351562-6.617188 4.539063-1.839843 10.285156-3.003906 16.519532-3 8.316406-.015625 15.761718 2.085938 20.625 5.027344 2.4375 1.460937 4.203124 3.097656 5.246093 4.589844 1.050781 1.515625 1.425781 2.769531 1.4375 4.039062zm0 0" fill="#54596e"/><path d="m158.542969 402.773438h-125.34375c-14.398438 0-26.074219-11.671876-26.074219-26.078126v-124.109374h177.492188v124.109374c0 14.40625-11.675782 26.078126-26.074219 26.078126zm0 0" fill="#999"/><path d="m158.542969 402.773438v-6.828126h-125.34375c-10.625-.019531-19.230469-8.617187-19.246094-19.25v-117.289062h163.839844v117.289062c-.019531 10.632813-8.625 19.234376-19.25 19.25v13.652344c18.171875-.003906 32.898437-14.726562 32.902343-32.902344v-124.109374c0-1.800782-.730468-3.554688-2-4.828126-1.273437-1.269531-3.03125-1.996093-4.828124-1.996093h-177.492188c-1.796875 0-3.558594.726562-4.828125 1.996093-1.269531 1.273438-2 3.027344-2 4.828126v124.109374c.003906 18.175782 14.730469 32.898438 32.902344 32.902344h125.339843v-6.824218zm0 0" fill="#54596e"/><path d="m65.859375 366.402344c5.378906-6.050782 16.746094-11.003906 30.011719-10.945313 13.136718-.054687 24.40625 4.792969 29.84375 10.765625 2.566406 2.761719 6.886718 2.921875 9.648437.355469s2.917969-6.886719.355469-9.648437c-9.007812-9.570313-23.542969-15.070313-39.84375-15.121094-16.46875.054687-31.136719 5.660156-40.117188 15.410156-2.535156 2.792969-2.332031 7.109375.460938 9.644531 2.789062 2.535157 7.105469 2.332031 9.644531-.457031zm0 0" fill="#54596e"/><path d="m154.804688 177.492188h-117.867188c-12.695312 0-22.984375 10.292968-22.984375 22.988281l-6.828125 49.597656c0 12.695313 10.289062 22.988281 22.988281 22.988281h131.519531c12.695313 0 22.984376-10.292968 22.984376-22.988281l-6.824219-49.597656c0-12.695313-10.289063-22.988281-22.988281-22.988281zm0 0" fill="#fff"/><path d="m154.804688 177.492188v-6.824219h-117.867188c-16.46875.003906-29.808594 13.34375-29.8125 29.8125h6.828125l-6.765625-.933594-6.824219 49.597656-.066406.933594c.007813 16.464844 13.34375 29.808594 29.816406 29.8125h131.519531c16.46875-.003906 29.808594-13.347656 29.8125-29.8125l-.0625-.933594-6.828124-49.597656-6.761719.933594h6.824219c-.003907-16.464844-13.339844-29.808594-29.8125-29.8125v13.648437c8.921874.015625 16.144531 7.238282 16.160156 16.164063l.0625.929687 6.828125 49.597656 6.761719-.929687h-6.824219c-.019531 8.921875-7.238281 16.144531-16.160157 16.160156h-131.519531c-8.925781-.015625-16.144531-7.238281-16.160156-16.160156h-6.828125l6.761719.929687 6.828125-49.597656.0625-.929687c.019531-8.925781 7.238281-16.148438 16.160156-16.164063h117.867188zm0 0" fill="#54596e"/><path d="m130.003906 225.28125c0-11.3125-15.28125-20.480469-34.132812-20.480469-18.851563 0-34.132813 9.167969-34.132813 20.480469 0 11.308594 15.28125 20.480469 34.132813 20.480469 18.851562 0 34.132812-9.171875 34.132812-20.480469zm0 0" fill="#ff927d"/><path d="m130.003906 225.28125h6.828125c.011719-4.390625-1.527343-8.519531-3.929687-11.910156-3.632813-5.101563-9.039063-8.8125-15.382813-11.402344-6.359375-2.574219-13.746093-3.992188-21.644531-3.996094-10.535156.015625-20.15625 2.5-27.648438 6.96875-3.742187 2.25-6.976562 5.023438-9.382812 8.429688-2.40625 3.386718-3.941406 7.515625-3.929688 11.90625-.011718 4.386718 1.523438 8.515625 3.929688 11.90625 3.628906 5.101562 9.039062 8.8125 15.378906 11.402344 6.359375 2.574218 13.75 3.992187 21.652344 3.996093 10.535156-.015625 20.152344-2.5 27.644531-6.96875 3.742188-2.25 6.976563-5.023437 9.386719-8.429687 2.402344-3.386719 3.9375-7.515625 3.925781-11.902344h-13.652343c-.011719 1.265625-.386719 2.519531-1.4375 4.035156-1.550782 2.246094-4.796876 4.789063-9.351563 6.617188-4.535156 1.84375-10.28125 3.003906-16.519531 3-8.3125.015625-15.761719-2.085938-20.621094-5.027344-2.4375-1.457031-4.207031-3.09375-5.25-4.589844-1.050781-1.515625-1.425781-2.769531-1.433594-4.035156.007813-1.269531.382813-2.523438 1.433594-4.039062 1.550781-2.246094 4.800781-4.789063 9.351562-6.617188 4.539063-1.84375 10.285157-3.003906 16.519532-3 8.316406-.015625 15.761718 2.082031 20.625 5.027344 2.4375 1.457031 4.203125 3.09375 5.246094 4.589844 1.050781 1.515624 1.425781 2.769531 1.4375 4.039062zm0 0" fill="#54596e"/><path d="m336.035156 402.773438h-125.339844c-14.398437 0-26.074218-11.671876-26.074218-26.078126v-124.109374h177.492187v124.109374c0 14.40625-11.679687 26.078126-26.078125 26.078126zm0 0" fill="#ffb8f2"/><path d="m336.035156 402.773438v-6.828126h-125.339844c-10.625-.019531-19.230468-8.617187-19.25-19.25v-117.289062h163.839844v117.289062c-.015625 10.632813-8.621094 19.234376-19.246094 19.25v13.652344c18.171876-.003906 32.898438-14.726562 32.902344-32.902344v-124.109374c0-1.800782-.730468-3.554688-2-4.828126-1.273437-1.269531-3.03125-1.996093-4.828125-1.996093h-177.496093c-1.796876 0-3.554688.726562-4.824219 1.996093-1.273438 1.273438-2 3.027344-2 4.828126v124.109374c.003906 18.175782 14.730469 32.898438 32.902343 32.902344h125.339844zm0 0" fill="#54596e"/><path d="m332.296875 177.492188h-117.863281c-12.699219 0-22.988282 10.292968-22.988282 22.988281l-6.828124 49.597656c0 12.695313 10.289062 22.988281 22.988281 22.988281h131.519531c12.695312 0 22.988281-10.292968 22.988281-22.988281l-6.828125-49.597656c0-12.695313-10.289062-22.988281-22.988281-22.988281zm0 0" fill="#fff"/><path d="m332.296875 177.492188v-6.824219h-117.863281c-16.472656.003906-29.808594 13.34375-29.816406 29.8125h6.828124l-6.765624-.933594-6.824219 49.597656-.0625.933594c.003906 16.464844 13.339843 29.808594 29.8125 29.8125h131.519531c16.46875-.003906 29.808594-13.347656 29.8125-29.8125l-.0625-.933594-6.828125-49.597656-6.761719.933594h6.828125c-.007812-16.464844-13.34375-29.808594-29.816406-29.8125v13.648437c8.921875.015625 16.144531 7.238282 16.160156 16.164063l.0625.929687 6.828125 49.597656 6.765625-.929687h-6.828125c-.015625 8.921875-7.238281 16.144531-16.160156 16.160156h-131.519531c-8.925781-.015625-16.144531-7.238281-16.160157-16.160156h-6.828124l6.765624.929687 6.824219-49.597656.066407-.929687c.015624-8.925781 7.234374-16.148438 16.160156-16.164063h117.863281zm0 0" fill="#54596e"/><path d="m307.5 225.28125c0-11.3125-15.285156-20.480469-34.136719-20.480469-18.851562 0-34.132812 9.167969-34.132812 20.480469 0 11.308594 15.28125 20.480469 34.132812 20.480469 18.851563 0 34.136719-9.171875 34.136719-20.480469zm0 0" fill="#ff927d"/><g fill="#54596e"><path d="m307.5 225.28125h6.824219c.011719-4.390625-1.523438-8.519531-3.929688-11.910156-3.628906-5.101563-9.039062-8.8125-15.378906-11.402344-6.359375-2.574219-13.75-3.992188-21.648437-3.996094-10.535157.015625-20.15625 2.5-27.648438 6.96875-3.738281 2.25-6.972656 5.023438-9.382812 8.429688-2.402344 3.386718-3.941407 7.515625-3.929688 11.90625-.011719 4.386718 1.527344 8.515625 3.929688 11.90625 3.632812 5.101562 9.039062 8.8125 15.382812 11.402344 6.359375 2.574218 13.746094 3.992187 21.648438 3.996093 10.535156-.015625 20.15625-2.5 27.648437-6.96875 3.738281-2.25 6.972656-5.023437 9.382813-8.429687 2.402343-3.386719 3.9375-7.515625 3.929687-11.902344h-13.65625c-.011719 1.265625-.382813 2.519531-1.4375 4.035156-1.546875 2.246094-4.796875 4.789063-9.351563 6.617188-4.535156 1.84375-10.28125 3.003906-16.519531 3-8.3125.015625-15.757812-2.085938-20.621093-5.027344-2.4375-1.457031-4.203126-3.09375-5.25-4.589844-1.050782-1.515625-1.421876-2.769531-1.433594-4.035156.011718-1.269531.382812-2.523438 1.433594-4.039062 1.550781-2.246094 4.800781-4.789063 9.355468-6.617188 4.535156-1.84375 10.28125-3.003906 16.515625-3 8.316407-.015625 15.761719 2.082031 20.625 5.027344 2.4375 1.457031 4.203125 3.09375 5.246094 4.589844 1.054687 1.515624 1.425781 2.769531 1.4375 4.039062zm0 0"/><path d="m246.058594 310.613281c0 5.65625-4.585938 10.238281-10.242188 10.238281-5.652344 0-10.238281-4.582031-10.238281-10.238281s4.585937-10.238281 10.238281-10.238281c5.65625 0 10.242188 4.582031 10.242188 10.238281zm0 0"/><path d="m239.230469 341.332031c0 18.855469 15.285156 34.132813 34.132812 34.132813 18.851563 0 34.136719-15.277344 34.136719-34.132813zm0 0"/><path d="m321.152344 310.613281c0 5.65625-4.585938 10.238281-10.242188 10.238281-5.652344 0-10.238281-4.582031-10.238281-10.238281s4.585937-10.238281 10.238281-10.238281c5.65625 0 10.242188 4.582031 10.242188 10.238281zm0 0"/><path d="m68.566406 310.613281c0 5.65625-4.585937 10.238281-10.242187 10.238281s-10.238281-4.582031-10.238281-10.238281 4.582031-10.238281 10.238281-10.238281 10.242187 4.582031 10.242187 10.238281zm0 0"/><path d="m143.660156 310.613281c0 5.65625-4.585937 10.238281-10.242187 10.238281s-10.238281-4.582031-10.238281-10.238281 4.582031-10.238281 10.238281-10.238281 10.242187 4.582031 10.242187 10.238281zm0 0"/></g></svg>