<svg height="423pt" viewBox="0 -89 423.25167 423" width="423pt" xmlns="http://www.w3.org/2000/svg"><path d="m80.933594 177.621094h261.386718c24.929688-16.613282 39.972657-38.046875 39.972657-61.445313 0-52.785156-76.40625-95.574219-170.667969-95.574219-94.257812 0-170.664062 42.789063-170.664062 95.574219 0 23.398438 15.035156 44.832031 39.972656 61.445313" fill="#ff927d"/><g fill="#54596e"><path d="m80.933594 177.621094v6.816406h261.386718c1.363282 0 2.648438-.386719 3.78125-1.144531 13.066407-8.703125 23.734376-18.78125 31.242188-30.082031 7.5-11.269532 11.785156-23.855469 11.777344-37.035157.007812-14.878906-5.441406-28.953125-14.792969-41.316406-14.066406-18.570313-36.769531-33.667969-64.863281-44.320313-28.113282-10.632812-61.710938-16.761718-97.835938-16.765624-48.167968.023437-91.84375 10.871093-124.019531 28.859374-16.078125 9.019532-29.316406 19.839844-38.6875 32.226563-9.355469 12.363281-14.800781 26.4375-14.789063 41.316406-.007812 13.179688 4.273438 25.765625 11.769532 37.035157 7.507812 11.300781 18.183594 21.378906 31.242187 30.082031 1.136719.757812 2.421875 1.144531 3.789063 1.144531v-6.816406l3.785156-5.691406c-11.875-7.902344-21.1875-16.847657-27.4375-26.269532-6.25-9.4375-9.484375-19.269531-9.492188-29.484375.007813-11.523437 4.113282-22.578125 12.027344-33.085937 11.84375-15.730469 32.425782-29.824219 58.800782-39.777344 26.371093-9.984375 58.441406-15.890625 93.011718-15.886719 46.09375-.023437 87.746094 10.523438 117.34375 27.121094 14.800782 8.285156 26.558594 18.0625 34.460938 28.542969 7.914062 10.503906 12.019531 21.5625 12.035156 33.085937-.007812 10.214844-3.242188 20.046875-9.5 29.484375-6.246094 9.421875-15.5625 18.367188-27.4375 26.269532l3.792969 5.691406v-6.828125h-261.390625v6.828125l3.78125-5.691406z"/><path d="m108.488281 113.089844-1.875.945312 1.882813-.929687-.007813-.015625-1.875.945312 1.882813-.929687c-.132813-.210938-5.734375-11.832031-5.699219-26.5625.003906-7.230469 1.292969-15.175781 5.066406-23.175781 3.78125-8.003907 10.042969-16.15625 20.492188-23.816407 3.042969-2.226562 3.703125-6.5 1.476562-9.542969-2.226562-3.039062-6.496093-3.699218-9.539062-1.472656-12.117188 8.851563-20.03125 18.90625-24.78125 29.007813-4.765625 10.101562-6.367188 20.148437-6.367188 29 .042969 18.671875 6.917969 32.164062 7.164063 32.714843 1.703125 3.367188 5.808594 4.707032 9.171875 3.007813 3.367187-1.703125 4.710937-5.808594 3.007812-9.171875zm0 0"/><path d="m163.101562 113.089844-1.875.945312 1.882813-.929687-.007813-.015625-1.875.945312 1.882813-.929687c-.132813-.210938-5.734375-11.832031-5.699219-26.5625.003906-7.230469 1.292969-15.175781 5.066406-23.175781 3.78125-8.003907 10.042969-16.15625 20.492188-23.816407 3.042969-2.226562 3.703125-6.5 1.476562-9.542969-2.226562-3.039062-6.496093-3.699218-9.539062-1.472656-12.117188 8.851563-20.03125 18.90625-24.78125 29.007813-4.765625 10.101562-6.367188 20.148437-6.367188 29 .042969 18.671875 6.917969 32.164062 7.164063 32.714843 1.703125 3.367188 5.808594 4.707032 9.171875 3.007813 3.367188-1.703125 4.710938-5.808594 3.007812-9.171875zm0 0"/><path d="m279.15625 113.089844-1.875.945312 1.882812-.929687-.007812-.015625-1.875.945312 1.882812-.929687c-.132812-.210938-5.734374-11.832031-5.699218-26.5625.003906-7.230469 1.292968-15.175781 5.0625-23.175781 3.785156-8.003907 10.046875-16.15625 20.496094-23.816407 3.042968-2.226562 3.703124-6.5 1.476562-9.542969-2.226562-3.039062-6.496094-3.699218-9.539062-1.472656-12.117188 8.851563-20.03125 18.90625-24.78125 29.007813-4.765626 10.101562-6.371094 20.148437-6.367188 29 .042969 18.671875 6.914062 32.164062 7.164062 32.714843 1.703126 3.367188 5.808594 4.707032 9.171876 3.007813 3.363281-1.703125 4.710937-5.808594 3.007812-9.171875zm0 0"/><path d="m333.769531 140.394531-1.875.949219 1.882813-.929688-.007813-.019531-1.875.949219 1.882813-.929688c-.132813-.210937-5.734375-11.832031-5.699219-26.566406.003906-7.226562 1.292969-15.175781 5.0625-23.175781 3.785156-8 10.046875-16.15625 20.496094-23.816406 3.042969-2.226563 3.703125-6.5 1.476562-9.539063-2.226562-3.039062-6.496093-3.699218-9.539062-1.472656-12.117188 8.851562-20.03125 18.90625-24.78125 29.007812-4.765625 10.097657-6.371094 20.144532-6.367188 28.996094.042969 18.675782 6.914063 32.164063 7.164063 32.71875 1.703125 3.363282 5.808594 4.707032 9.171875 3.007813 3.363281-1.703125 4.710937-5.808594 3.007812-9.175781zm0 0"/></g><path d="m80.882812 239.054688h261.480469c23.566407 0 46.613281-9.75 61.296875-28.171876 8.25-10.363281 12.761719-21.5625 12.761719-33.261718 0-52.792969-91.6875-95.578125-204.796875-95.578125s-204.796875 42.785156-204.796875 95.578125c0 11.699218 4.511719 22.898437 12.761719 33.261718 14.683594 18.421876 37.734375 28.171876 61.292968 28.171876" fill="#fff"/><path d="m80.882812 239.054688v6.828124h261.480469c25.40625 0 50.46875-10.492187 66.632813-30.746093 8.992187-11.253907 14.261718-24.023438 14.253906-37.515625.007812-15.242188-6.679688-29.496094-17.859375-41.792969-16.824219-18.492187-43.765625-33.394531-77.210937-43.976563-33.457032-10.546874-73.492188-16.636718-116.554688-16.636718-57.425781.019531-109.441406 10.800781-147.707031 28.632812-19.125 8.941406-34.855469 19.636719-46.054688 31.976563-11.179687 12.300781-17.8749998 26.554687-17.863281 41.796875-.015625 13.492187 5.265625 26.265625 14.253906 37.515625 16.160156 20.25 41.222656 30.746093 66.628906 30.746093v-13.65625c-21.710937 0-42.753906-9.003906-55.953124-25.601562-7.519532-9.472656-11.265626-19.113281-11.28125-29.003906.015624-11.160156 4.785156-22.054688 14.328124-32.621094 14.269532-15.8125 39.269532-30.09375 71.199219-40.128906 31.910157-10.0625 70.683594-16.003906 112.449219-16.003906 55.683594-.019532 106.0625 10.589843 141.925781 27.351562 17.9375 8.363281 32.195313 18.257812 41.71875 28.777344 9.554688 10.566406 14.320313 21.464844 14.328125 32.621094-.015625 9.894531-3.761718 19.53125-11.273437 29.007812-13.195313 16.597656-34.242188 25.597656-55.960938 25.597656h-261.480469z" fill="#54596e"/><path d="m177.496094 116.175781c0-7.542969-6.121094-13.65625-13.65625-13.65625-7.542969 0-13.65625 6.113281-13.65625 13.65625s6.113281 13.65625 13.65625 13.65625c7.535156 0 13.65625-6.113281 13.65625-13.65625" fill="#d8d8d8"/><path d="m129.4375 157.136719c-8.085938-.023438-13.117188 8.382812-9.339844 15.355469 17.402344 32.066406 51.957032 53.90625 91.75 53.90625 39.621094 0 74.0625-21.664063 91.53125-53.511719 3.808594-6.949219-1.191406-15.371094-9.277344-15.394531l-66.894531 6.683593c-10.21875 1.015625-20.515625.992188-30.722656-.066406z" fill="#54596e"/><path d="m239.347656 6.953125h-55.441406c-7.316406 0-13.242188 5.921875-13.242188 13.238281v218.863282h81.921876v-218.863282c0-7.316406-5.929688-13.238281-13.238282-13.238281" fill="#999"/><path d="m239.347656 6.953125v-6.828125h-55.441406c-11.085938 0-20.066406 8.972656-20.066406 20.066406v218.863282c0 1.824218.707031 3.535156 2 4.828124 1.285156 1.292969 3 2 4.824218 2h81.921876c1.816406 0 3.535156-.707031 4.824218-2 1.285156-1.292968 2-3.003906 2-4.828124v-218.863282c-.003906-11.09375-8.980468-20.066406-20.066406-20.066406v13.648438c3.542969.003906 6.40625 2.871093 6.414062 6.417968v212.035156h-68.273437v-212.035156c.007813-3.546875 2.878906-6.414062 6.417969-6.417968h55.441406v-6.820313" fill="#54596e"/><path d="m245.757812 88.871094h-68.269531v143.355468h68.269531z" fill="#8b8c90"/><path d="m252.585938 88.871094h-6.828126v143.355468h-68.269531v-143.355468h-6.820312v150.183594h81.917969z" fill="#54596e"/><path d="m284.71875 141.480469 12.238281-12.238281 12.238281 12.238281c2.667969 2.664062 6.988282 2.664062 9.65625 0 2.664063-2.664063 2.664063-6.988281 0-9.652344l-17.066406-17.070313c-2.667968-2.664062-6.988281-2.664062-9.65625 0l-17.066406 17.066407c-2.667969 2.664062-2.667969 6.988281 0 9.65625 2.664062 2.667969 6.988281 2.667969 9.65625.003906zm0 0" fill="#54596e"/><path d="m114.050781 141.480469 12.238281-12.238281 12.242188 12.238281c2.664062 2.664062 6.984375 2.664062 9.652344 0 2.667968-2.664063 2.667968-6.988281 0-9.652344l-17.066406-17.070313c-2.667969-2.664062-6.984376-2.664062-9.652344 0l-17.066406 17.066407c-2.667969 2.664062-2.671876 6.988281-.003907 9.65625s6.988281 2.667969 9.660157.003906zm0 0" fill="#54596e"/><path d="m68.265625 160.550781c0 5.652344-4.585937 10.238281-10.242187 10.238281-5.652344 0-10.238282-4.585937-10.238282-10.238281 0-5.65625 4.585938-10.242187 10.238282-10.242187 5.65625 0 10.242187 4.585937 10.242187 10.242187zm0 0" fill="#d8d8d8"/><path d="m109.226562 198.097656c0 7.539063-6.113281 13.652344-13.65625 13.652344-7.539062 0-13.652343-6.113281-13.652343-13.652344 0-7.542968 6.113281-13.65625 13.652343-13.65625 7.542969 0 13.65625 6.113282 13.65625 13.65625zm0 0" fill="#d8d8d8"/><path d="m307.199219 208.335938c0 5.65625-4.585938 10.238281-10.242188 10.238281-5.652343 0-10.238281-4.582031-10.238281-10.238281s4.585938-10.238282 10.238281-10.238282c5.65625 0 10.242188 4.582032 10.242188 10.238282zm0 0" fill="#d8d8d8"/><path d="m361.8125 167.375c0 5.65625-4.585938 10.242188-10.242188 10.242188-5.652343 0-10.238281-4.585938-10.238281-10.242188s4.585938-10.238281 10.238281-10.238281c5.65625 0 10.242188 4.582031 10.242188 10.238281zm0 0" fill="#d8d8d8"/><path d="m382.292969 201.507812c0 5.65625-4.585938 10.242188-10.242188 10.242188s-10.238281-4.585938-10.238281-10.242188c0-5.652343 4.582031-10.238281 10.238281-10.238281s10.242188 4.585938 10.242188 10.238281zm0 0" fill="#d8d8d8"/></svg>