<svg height="430pt" viewBox="-96 0 430 430.08" width="430pt" xmlns="http://www.w3.org/2000/svg"><path d="m170.710938 122.878906h-163.839844v-98.542968c0-9.667969 7.839844-17.507813 17.507812-17.507813h128.820313c9.671875 0 17.511719 7.839844 17.511719 17.507813zm0 0" fill="#55a6ff"/><path d="m170.710938 122.878906v-6.824218h-157.015626v-91.71875c.011719-5.898438 4.789063-10.671876 10.683594-10.6875h128.820313c5.898437.015624 10.671875 4.789062 10.683593 10.6875v98.542968h6.828126v-6.824218 6.824218h6.824218v-98.542968c-.003906-13.441407-10.890625-24.33203175-24.335937-24.335938h-128.820313c-13.441406.00390625-24.332031 10.894531-24.3359372 24.335938v98.542968c0 1.824219.7109372 3.539063 2.0000002 4.828125 1.289062 1.289063 3.003906 1.996094 4.828125 1.996094h163.839844c1.820312 0 3.535156-.707031 4.824218-1.996094 1.292969-1.289062 2-3.003906 2-4.828125zm0 0" fill="#54596e"/><path d="m170.710938 102.398438h6.824218v-54.613282h47.789063v-6.824218h-6.828125c.003906 15.59375-4.765625 29.363281-12.964844 39.03125-8.246094 9.652343-19.714844 15.523437-34.820312 15.582031v6.824219h6.824218-6.824218v6.824218c18.828124.058594 34.664062-7.828125 45.242187-20.410156 10.621094-12.566406 16.195313-29.515625 16.195313-47.851562 0-1.800782-.726563-3.558594-2-4.832032-1.269532-1.269531-3.027344-1.996094-4.824219-1.996094h-54.613281c-1.796876 0-3.558594.726563-4.828126 1.996094-1.269531 1.273438-2 3.03125-2 4.832032v61.4375c0 1.824218.710938 3.539062 2 4.828124 1.292969 1.289063 3.003907 1.996094 4.828126 1.996094zm0 0" fill="#54596e"/><path d="m145.851562 423.253906h-114.117187c-13.734375 0-24.867187-11.132812-24.867187-24.855468v-275.519532h163.839843v275.519532c0 13.722656-11.128906 24.855468-24.855469 24.855468" fill="#ff927d"/><path d="m145.851562 423.253906v-6.832031h-114.117187c-9.964844-.015625-18.019531-8.070313-18.039063-18.023437v-268.699219h150.183594v268.695312c-.019531 9.953125-8.074218 18.011719-18.027344 18.027344v13.652344c17.496094 0 31.675782-14.183594 31.683594-31.679688v-275.515625c0-1.800781-.730468-3.550781-2.003906-4.832031-1.261719-1.261719-3.019531-1.996094-4.824219-1.996094h-163.839843c-1.792969 0-3.550782.734375-4.824219 1.996094-1.269531 1.28125-2.0039065 3.03125-2.0039065 4.832031v275.519532c.0078125 17.496093 14.1874995 31.675781 31.6953125 31.675781h114.117187z" fill="#54596e"/><path d="m145.851562 423.253906h-114.117187c-13.734375 0-24.867187-11.132812-24.867187-24.855468v-275.519532h163.839843v275.519532c0 13.722656-11.128906 24.855468-24.855469 24.855468" fill="#ff927d"/><path d="m145.851562 423.253906v-6.832031h-114.117187c-9.964844-.015625-18.019531-8.070313-18.039063-18.023437v-268.699219h150.183594v268.695312c-.019531 9.953125-8.074218 18.011719-18.027344 18.027344v13.652344c17.496094 0 31.675782-14.183594 31.683594-31.679688v-275.515625c0-1.800781-.730468-3.550781-2.003906-4.832031-1.261719-1.261719-3.019531-1.996094-4.824219-1.996094h-163.839843c-1.792969 0-3.550782.734375-4.824219 1.996094-1.269531 1.28125-2.0039065 3.03125-2.0039065 4.832031v275.519532c.0078125 17.496093 14.1874995 31.675781 31.6953125 31.675781h114.117187z" fill="#54596e"/><path d="m13.695312 374.550781v23.847657c.019532 9.953124 8.074219 18.007812 18.039063 18.023437h114.117187c9.953126-.015625 18.007813-8.070313 18.027344-18.023437v-23.847657c-4.53125 4.769531-10.933594 7.746094-18.027344 7.746094h-114.117187c-7.101563 0-13.507813-2.976563-18.039063-7.746094" fill="#ee8c7b"/><path d="m170.707031 357.433594c0 6.632812-2.59375 12.660156-6.828125 17.117187v23.847657c-.015625 9.953124-8.074218 18.007812-18.027344 18.023437h-114.117187c-9.964844-.015625-18.019531-8.070313-18.039063-18.023437v-23.847657c-4.230468-4.460937-6.828124-10.484375-6.828124-17.117187v40.964844c0 13.722656 11.132812 24.855468 24.867187 24.855468h114.117187c13.722657 0 24.855469-11.132812 24.855469-24.855468z" fill="#54596e"/><path d="m13.695312 238.933594h150.1875v54.613281h-150.1875zm0 0" fill="#ffd578"/><g fill="#54596e"><path d="m232.148438 416.425781h-129.703126c-3.773437 0-6.828124 3.054688-6.828124 6.828125 0 3.769532 3.054687 6.824219 6.828124 6.824219h129.703126c3.773437 0 6.828124-3.054687 6.828124-6.824219 0-3.773437-3.054687-6.828125-6.828124-6.828125"/><path d="m75.136719 88.746094c-.003907-11.316406-9.167969-20.476563-20.480469-20.480469-11.3125.003906-20.472656 9.164063-20.480469 20.480469 0 3.769531 3.058594 6.828125 6.828125 6.828125 3.769532 0 6.824219-3.058594 6.824219-6.828125.007813-3.765625 3.0625-6.820313 6.828125-6.828125 3.765625.007812 6.820312 3.0625 6.828125 6.828125 0 3.769531 3.054687 6.828125 6.824219 6.828125 3.773437 0 6.828125-3.058594 6.828125-6.828125zm0 0"/><path d="m143.402344 88.746094c-.003906-11.316406-9.164063-20.476563-20.480469-20.480469-11.3125.003906-20.472656 9.164063-20.476563 20.480469 0 3.769531 3.054688 6.828125 6.824219 6.828125s6.828125-3.058594 6.828125-6.828125c.007813-3.765625 3.058594-6.820313 6.824219-6.828125 3.769531.007812 6.820313 3.0625 6.828125 6.828125 0 3.769531 3.058594 6.828125 6.828125 6.828125s6.824219-3.058594 6.824219-6.828125zm0 0"/><path d="m61.484375 143.359375c0 11.3125 12.226563 20.480469 27.304687 20.480469 15.082032 0 27.308594-9.167969 27.308594-20.480469zm0 0"/></g><path d="m163.878906 293.550781h-150.183594v20.476563h150.183594z" fill="#ee8c7b"/></svg>