<svg height="430pt" viewBox="-31 0 430 430.07665" width="430pt" xmlns="http://www.w3.org/2000/svg"><path d="m261.214844 50.570312c-5.769532-9.113281-26.996094-6.492187-51.296875 5.121094-3.871094-28.515625-13.839844-48.859375-25.558594-48.859375-11.738281 0-21.714844 20.394531-25.574219 48.972657-24.402344-11.714844-45.75-14.382813-51.535156-5.234376-7.101562 11.21875 11.882812 35.984376 42.476562 55.628907-3.234374 6.402343-3.988281 11.972656-1.515624 15.878906 2.410156 3.8125 7.574218 5.53125 14.488281 5.441406 4.988281 17.90625 12.824219 29.5 21.660156 29.5s16.667969-11.59375 21.660156-29.492187c6.785157.042968 11.847657-1.679688 14.230469-5.449219 2.472656-3.90625 1.722656-9.476563-1.515625-15.878906 30.59375-19.644531 49.582031-44.410157 42.480469-55.628907zm0 0" fill="#9af43b"/><path d="m261.214844 50.570312 5.765625-3.652343c-2.074219-3.300781-5.277344-5.570313-8.664063-6.859375-3.417968-1.308594-7.101562-1.796875-11.03125-1.804688-11.355468.050782-25.265625 4.125-40.3125 11.273438l2.945313 6.160156 6.765625-.921875c-2.027344-14.824219-5.578125-27.636719-10.527344-37.320313-2.496094-4.839843-5.339844-8.9375-8.863281-12.09375-3.476563-3.128906-7.957031-5.3632808-12.933594-5.351562-4.980469-.0117188-9.464844 2.226562-12.945313 5.363281-5.265624 4.753907-9.113281 11.582031-12.320312 19.96875-3.171875 8.394531-5.566406 18.414063-7.070312 29.550781l6.765624.917969 2.953126-6.15625c-15.140626-7.222656-29.140626-11.339843-40.5625-11.390625-3.925782.007813-7.609376.492188-11.027344 1.800782-3.394532 1.28125-6.601563 3.558593-8.675782 6.863281l.007813-.007813c-1.789063 2.804688-2.5625 6.0625-2.550781 9.183594.027344 4.753906 1.570312 9.320312 3.953125 13.925781 3.609375 6.894531 9.304687 13.984375 16.632812 21.125 7.332031 7.121094 16.3125 14.230469 26.515625 20.792969l3.691406-5.742188-6.089843-3.085937c-2.234375 4.449219-3.691407 8.871094-3.71875 13.492187-.011719 3.085938.75 6.316407 2.511719 9.101563l.011718.019531c2.09375 3.332032 5.335938 5.582032 8.730469 6.847656 3.425781 1.285157 7.101563 1.757813 11.015625 1.761719h.289062l-.011718-2.742187-.160156 2.738281.171874.007813-.011718-2.742188-.160156 2.738281.394531-6.816406-6.574219 1.832031c2.65625 9.480469 6.042969 17.484375 10.417969 23.613282 2.203125 3.058593 4.675781 5.675781 7.625 7.644531 2.933593 1.964843 6.464843 3.246093 10.191406 3.234375 3.726563.015625 7.261719-1.265625 10.191406-3.230469 4.421875-2.976563 7.800781-7.328125 10.726563-12.589844 2.914062-5.28125 5.332031-11.558593 7.316406-18.667969l-6.574219-1.828124v6.820312l.390625-.003906-.125-4.464844v4.464844h.125l-.125-4.464844v4.464844c3.917969-.007813 7.59375-.484375 11.015625-1.769532 3.394531-1.269531 6.621094-3.519531 8.714844-6.839843l.003906-.003907c1.777344-2.796874 2.539063-6.03125 2.527344-9.113281-.027344-4.628906-1.488281-9.050781-3.71875-13.5l-6.09375 3.082031 3.691406 5.742188c13.605469-8.746094 25.035157-18.453125 33.285157-27.90625 4.125-4.734375 7.460937-9.402344 9.867187-14.007812 2.382813-4.609376 3.921875-9.171876 3.949219-13.929688.011718-3.121094-.757813-6.382812-2.554688-9.191406l.007813.015625-5.765625 3.652343-5.761719 3.664063c.214844.347656.410156.816406.421875 1.863281.023438 1.539063-.644531 4.28125-2.402344 7.617188-2.601562 5.015625-7.453125 11.257812-14.042968 17.644531-6.585938 6.402344-14.894532 13-24.382813 19.089844-2.945313 1.890625-3.984375 5.703125-2.402344 8.828125 1.636719 3.199218 2.273438 5.847656 2.246094 7.335937-.011719 1.023438-.195313 1.464844-.40625 1.8125l.003906-.007812c-.257812.386719-.6875.859375-2.027343 1.386719-1.308594.503906-3.441407.894531-6.175782.886718l-.386718.007813h-.003907l.125 4.441406v-4.441406h-.125l.125 4.441406v-4.441406c-3.070312 0-5.75 2.03125-6.574219 4.992187-2.335937 8.425782-5.359374 15.167969-8.359374 19.308594-1.484376 2.078125-2.941407 3.476562-4.097657 4.242188-1.175781.765624-1.933593.9375-2.628906.949218-.691406-.011718-1.449219-.183594-2.628906-.949218-1.742188-1.128907-4.121094-3.765626-6.335938-7.824219-2.238281-4.039063-4.359375-9.414063-6.117187-15.734375-.789063-2.824219-3.257813-4.816406-6.179688-4.984375l-.910156-.011719c-2.746094.007812-4.878906-.382812-6.191406-.886719-1.339844-.523437-1.761719-.992187-2.019532-1.378906l.011719.019531c-.222656-.375-.40625-.816406-.417969-1.835937-.023437-1.484375.609376-4.125 2.25-7.328125 1.578126-3.128906.546876-6.9375-2.402343-8.828125-12.652344-8.117188-23.207031-17.160157-30.375-25.394531-3.582031-4.105469-6.3125-8.007813-8.046875-11.34375-1.757813-3.335938-2.429688-6.074219-2.40625-7.613282.011718-1.042968.203125-1.503906.429687-1.875l.003907-.011718c.28125-.417969.707031-.886719 2.027343-1.410157 1.296875-.507812 3.402344-.902343 6.128907-.894531 8.011718-.050781 20.824218 3.367188 34.652343 10.050781 1.976563.949219 4.265625.894531 6.195313-.148437 1.929687-1.039063 3.230468-2.921875 3.523437-5.089844 1.839844-13.722656 5.207031-25.363281 9.144531-33.003906 1.949219-3.824219 4.039063-6.601563 5.800782-8.15625 1.8125-1.585938 2.976562-1.890625 3.863281-1.902344.886719.011719 2.046875.320312 3.855469 1.898438 2.667968 2.3125 5.953125 7.425781 8.621094 14.5625 2.703124 7.132812 4.925781 16.21875 6.316406 26.488281.296875 2.171875 1.59375 4.050781 3.523437 5.089843 1.929688 1.039063 4.210938 1.09375 6.1875.152344 13.738281-6.617187 26.457031-9.992187 34.421875-9.941406 2.726563-.007812 4.828125.386719 6.125.894531 1.324219.527344 1.757813 1 2.035156 1.414063l.007813.019531zm0 0" fill="#54596e"/><path d="m361.851562 266.238281c0-177.484375-102.398437-157.007812-177.492187-157.007812-61.4375 0-177.496094-20.476563-177.496094 157.007812 0 98.03125 79.46875 157.023438 177.496094 157.023438s177.492187-58.992188 177.492187-157.023438" fill="#ff927d"/><g fill="#54596e"><path d="m361.851562 266.238281h6.828126c0-36.582031-4.269532-65.183593-11.953126-87.6875-5.761718-16.867187-13.480468-30.3125-22.734374-40.855469-13.863282-15.855468-31.089844-24.96875-49.257813-29.960937-18.195313-4.996094-37.394531-6.042969-56.113281-6.050781-15.355469 0-30.414063.71875-44.261719.71875-11.242187 0-24.730469-.71875-39.195313-.71875-15.671874 0-32.507812.835937-49.109374 4.523437-24.859376 5.46875-49.4375 17.675781-67.253907 42.789063-17.835937 25.101562-28.7617185 62.308594-28.7617185 117.242187-.0585937 50.875 20.8242185 92.328125 54.4257815 120.492188 33.574218 28.210937 79.53125 43.347656 129.894531 43.347656 50.371094 0 96.328125-15.136719 129.898437-43.347656 33.59375-28.164063 54.476563-69.617188 54.417969-120.492188h-13.648437c-.054688 47.15625-18.910156 84.210938-49.554688 110.042969-30.664062 25.792969-73.449218 40.152344-121.113281 40.152344-47.65625 0-90.453125-14.359375-121.113281-40.152344-30.644532-25.832031-49.496094-62.886719-49.550782-110.042969-.007812-35.449219 4.71875-62.523437 12.496094-83.066406 11.734375-30.796875 29.851563-47.121094 50.871094-56.542969 21.042969-9.351562 45.335938-11.308594 68.101562-11.292968 14.007813 0 27.402344.710937 39.195313.71875 14.3125 0 29.335937-.71875 44.261719-.71875 16.171875-.007813 32.21875.847656 47.003906 4.199218 11.085938 2.503906 21.449219 6.394532 30.789062 12.320313 13.984376 8.898437 25.894532 22.308593 34.621094 43.683593 8.699219 21.367188 14 50.734376 13.992188 90.703126h6.824218"/><path d="m252.625 197.976562c.015625-7.535156 6.117188-13.640624 13.65625-13.65625 7.535156.015626 13.636719 6.121094 13.652344 13.65625 0 3.769532 3.054687 6.828126 6.828125 6.828126 3.769531 0 6.824219-3.058594 6.824219-6.828126-.003907-15.085937-12.222657-27.304687-27.304688-27.304687-15.085938 0-27.300781 12.21875-27.308594 27.304687 0 3.769532 3.058594 6.828126 6.828125 6.828126s6.824219-3.058594 6.824219-6.828126zm0 0"/><path d="m88.785156 197.976562c.015625-7.535156 6.117188-13.640624 13.65625-13.65625 7.535156.015626 13.636719 6.121094 13.652344 13.65625 0 3.769532 3.054688 6.828126 6.828125 6.828126 3.769531 0 6.824219-3.058594 6.824219-6.828126-.003906-15.085937-12.222656-27.304687-27.304688-27.304687-15.085937 0-27.304687 12.21875-27.308594 27.304687 0 3.769532 3.058594 6.828126 6.828126 6.828126 3.769531 0 6.824218-3.058594 6.824218-6.828126zm0 0"/><path d="m119.902344 245.554688c7.058594 2.257812 16.316406 3.992187 27.269531 5.226562 10.9375 1.226562 23.515625 1.917969 36.917969 1.917969 13.269531 0 25.726562-.675781 36.585937-1.878907 10.871094-1.210937 20.097657-2.914062 27.171875-5.128906 3.59375-1.128906 5.59375-4.960937 4.464844-8.558594-1.132812-3.59375-4.960938-5.589843-8.558594-4.460937-5.714844 1.800781-14.3125 3.445313-24.582031 4.578125-10.28125 1.140625-22.28125 1.800781-35.082031 1.800781-12.929688 0-25.042969-.675781-35.394532-1.835937-10.339843-1.15625-18.960937-2.832032-24.617187-4.660156-3.589844-1.15625-7.433594.820312-8.589844 4.410156-1.152343 3.589844.820313 7.433594 4.414063 8.589844zm0 0"/></g><path d="m354.890625 272.902344c-21.355469 69.179687-89.605469 109.398437-170.53125 109.398437-80.90625 0-149.15625-40.1875-170.523437-109.339843 1.753906 43.96875 20.234374 78.730468 49.410156 103.320312 30.664062 25.792969 73.457031 40.152344 121.113281 40.152344 47.664063 0 90.453125-14.359375 121.113281-40.152344 29.183594-24.601562 47.675782-59.386719 49.417969-103.378906" fill="#dd877a"/><path d="m7.71875 242.347656c-.511719 7.574219-.855469 15.4375-.855469 23.890625 0 98.03125 79.46875 157.023438 177.496094 157.023438s177.492187-58.992188 177.492187-157.023438h-5.070312c-.582031 2.253907-1.210938 4.46875-1.890625 6.664063-1.742187 43.988281-20.234375 78.777344-49.421875 103.375-30.660156 25.792968-73.445312 40.15625-121.113281 40.15625-47.65625 0-90.449219-14.363282-121.113281-40.15625-29.175782-24.589844-47.65625-59.351563-49.410157-103.316406-2.976562-9.652344-5.050781-19.867188-6.113281-30.613282m353.34375-.71875c-.808594 8.542969-2.253906 16.753906-4.28125 24.609375h5.074219c-.003907-8.714843-.320313-16.816406-.792969-24.609375" fill="#54596e"/><path d="m81.960938 242.351562c0 9.425782-7.640626 17.066407-17.066407 17.066407s-17.066406-7.640625-17.066406-17.066407c0-9.425781 7.640625-17.066406 17.066406-17.066406s17.066407 7.640625 17.066407 17.066406zm0 0" fill="#ffb8f2"/><path d="m320.894531 242.351562c0 9.425782-7.640625 17.066407-17.066406 17.066407s-17.066406-7.640625-17.066406-17.066407c0-9.425781 7.640625-17.066406 17.066406-17.066406s17.066406 7.640625 17.066406 17.066406zm0 0" fill="#ffb8f2"/></svg>