<svg height="436pt" viewBox="-10 0 436 436.89984" width="436pt" xmlns="http://www.w3.org/2000/svg"><path d="m317.894531 78.503906 92.152344 30.71875v-61.4375z" fill="#ffd578"/><path d="m317.894531 78.503906-2.160156 6.472656 92.15625 30.71875c2.074219.691407 4.371094.34375 6.152344-.933593 1.777343-1.277344 2.835937-3.347657 2.835937-5.539063v-61.4375c0-2.191406-1.058594-4.257812-2.835937-5.539062-1.78125-1.277344-4.070313-1.632813-6.152344-.941406l-92.15625 30.71875c-2.804687.9375-4.664063 3.527343-4.664063 6.480468 0 2.945313 1.867188 5.535156 4.664063 6.472656l2.160156-6.472656 2.15625 6.472656 83.171875-27.726562v42.5l-83.171875-27.726562-2.15625 6.480468 2.15625 6.472656z" fill="#54596e"/><path d="m72.128906 337.921875-37.546875 92.152344h75.101563z" fill="#ffd578"/><path d="m72.128906 337.921875-6.316406-2.578125-37.546875 92.152344c-.859375 2.117187-.621094 4.496094.660156 6.390625 1.269531 1.894531 3.378907 3.011719 5.65625 3.011719h75.101563c2.28125 0 4.390625-1.113282 5.660156-3.019532 1.269531-1.886718 1.515625-4.265625.65625-6.382812l-37.546875-92.152344c-1.046875-2.585938-3.535156-4.257812-6.324219-4.257812-2.777344 0-5.265625 1.671874-6.316406 4.257812l6.316406 2.578125-6.316406 2.566406 33.714844 82.761719h-54.789063l33.714844-82.761719-6.324219-2.566406-6.316406 2.566406z" fill="#54596e"/><path d="m75.546875 395.941406c-37.699219 0-68.273437-30.566406-68.273437-68.269531v-13.648437c0-169.394532 137.8125-307.195313 307.207031-307.195313 37.691406 0 68.265625 30.5625 68.265625 68.261719 0 37.703125-30.574219 68.265625-68.265625 68.265625-94.105469 0-170.667969 76.558593-170.667969 170.667969v13.648437c.003906 37.703125-30.570312 68.269531-68.265625 68.269531" fill="#f4a14e"/><path d="m75.546875 395.941406v-6.824218c-16.988281-.011719-32.300781-6.867188-43.441406-18-11.132813-11.140626-17.996094-26.453126-17.996094-43.445313v-13.648437c0-82.828126 33.671875-157.882813 88.078125-212.296876 54.410156-54.402343 129.464844-88.078124 212.292969-88.078124 16.980469 0 32.304687 6.867187 43.445312 17.992187 11.125 11.144531 17.988281 26.460937 17.988281 43.449219 0 16.984375-6.863281 32.296875-17.988281 43.445312-11.140625 11.125-26.464843 17.988282-43.445312 18-97.894531.003906-177.480469 79.59375-177.5 177.488282v13.648437c0 16.992187-6.863281 32.304687-17.996094 43.445313-11.140625 11.132812-26.453125 17.988281-43.4375 18v13.648437c41.46875 0 75.085937-33.617187 75.09375-75.09375v-13.648437c0-45.183594 18.359375-86.105469 48.046875-115.792969 29.6875-29.691407 70.613281-48.046875 115.792969-48.046875 41.46875-.011719 75.085937-33.617188 75.09375-75.09375-.007813-41.472656-33.625-75.089844-75.09375-75.089844-173.175781.0078125-314.015625 140.839844-314.03125 314.023438v13.648437c.007812 41.476563 33.625 75.09375 75.101562 75.09375v-6.824219" fill="#54596e"/><path d="m358.460938 32.183594c2.460937 7.019531 3.804687 14.558594 3.804687 22.421875 0 37.703125-30.566406 68.269531-68.265625 68.269531-94.105469 0-170.667969 76.558594-170.667969 170.664062v13.660157c0 37.699219-30.566406 68.265625-68.265625 68.265625-7.855468 0-15.390625-1.339844-22.402344-3.796875 11.089844 10.808593 26.179688 17.4375 42.882813 17.449219 16.984375-.011719 32.296875-6.867188 43.4375-18 11.132813-11.140626 17.996094-26.453126 17.996094-43.445313v-13.648437c.019531-97.894532 79.605469-177.484376 177.5-177.488282 16.980469-.011718 32.304687-6.875 43.441406-18 11.125-11.148437 17.992187-26.460937 17.992187-43.445312 0-16.714844-6.648437-31.808594-17.453124-42.90625" fill="#d49354"/><g fill="#54596e"><path d="m351.378906 17.710938c2.894532 4.496093 5.285156 9.34375 7.082032 14.472656 10.808593 11.097656 17.453124 26.191406 17.453124 42.90625 0 16.984375-6.863281 32.296875-17.988281 43.445312-11.140625 11.125-26.464843 17.988282-43.445312 18-97.894531.003906-177.480469 79.59375-177.5 177.488282v13.648437c0 16.992187-6.863281 32.304687-17.996094 43.445313-11.140625 11.132812-26.453125 17.988281-43.4375 18-16.703125-.011719-31.792969-6.640626-42.882813-17.449219-5.136718-1.796875-9.996093-4.1875-14.496093-7.089844 12.148437 18.851563 33.28125 31.363281 57.382812 31.363281 37.691407 0 68.265625-30.566406 68.265625-68.269531v-13.648437c0-94.109376 76.558594-170.667969 170.667969-170.667969 37.691406 0 68.265625-30.5625 68.265625-68.265625 0-24.089844-12.519531-45.230469-31.371094-57.378906"/><path d="m260.453125 92.4375c5.191406 9.773438 15.070313 16.777344 26.671875 16.78125 11.488281-.003906 21.292969-6.871094 26.515625-16.492188 1.808594-3.308593.59375-7.457031-2.710937-9.265624-3.308594-1.8125-7.457032-.597657-9.265626 2.710937-3.285156 5.925781-8.683593 9.402344-14.539062 9.398437-5.902344.007813-11.371094-3.550781-14.632812-9.578124-1.78125-3.324219-5.921876-4.574219-9.246094-2.796876-3.324219 1.78125-4.574219 5.917969-2.792969 9.246094zm0 0"/><path d="m253.039062 61.4375c0 7.539062-6.113281 13.652344-13.652343 13.652344-7.542969 0-13.65625-6.113282-13.65625-13.652344 0-7.542969 6.113281-13.652344 13.65625-13.652344 7.539062 0 13.652343 6.109375 13.652343 13.652344zm0 0"/><path d="m348.613281 61.4375c0 7.539062-6.113281 13.652344-13.65625 13.652344-7.539062 0-13.652343-6.113282-13.652343-13.652344 0-7.542969 6.113281-13.652344 13.652343-13.652344 7.542969 0 13.65625 6.109375 13.65625 13.652344zm0 0"/></g><path d="m161.601562 75.640625c-.394531.171875-12.835937 5.535156-28.808593 17.953125-15.957031 12.414062-35.480469 31.921875-49.699219 60.363281-1.6875 3.371094-.320312 7.46875 3.050781 9.15625 3.371094 1.6875 7.472657.320313 9.160157-3.050781 13.085937-26.175781 31.109374-44.210938 45.871093-55.691406 7.378907-5.738282 13.925781-9.828125 18.582031-12.460938 2.328126-1.316406 4.183594-2.265625 5.429688-2.882812.625-.304688 1.097656-.527344 1.402344-.664063l.328125-.148437.0625-.027344c3.464843-1.488281 5.066406-5.5 3.582031-8.964844s-5.496094-5.070312-8.960938-3.582031zm0 0" fill="#fff"/></svg>