<?xml version="1.0" encoding="iso-8859-1"?>
<!-- Generator: Adobe Illustrator 19.0.0, SVG Export Plug-In . SVG Version: 6.00 Build 0)  -->
<svg xmlns="http://www.w3.org/2000/svg" xmlns:xlink="http://www.w3.org/1999/xlink" version="1.1" id="Layer_1" x="0px" y="0px" viewBox="0 0 511.999 511.999" style="enable-background:new 0 0 511.999 511.999;" xml:space="preserve">
<g>
	<path style="fill:#FFA233;" d="M185.634,176.936c18.312,12.638,43.592,10.807,59.887-5.488   c18.362-18.36,18.362-48.128,0.002-66.488s-48.126-18.36-66.486,0c-18.362,18.36-18.362,48.128,0.002,66.488   C181.101,173.514,183.312,175.345,185.634,176.936z"/>
	<path style="fill:#9FDEE2;" d="M256.685,100.335c0.004,25.965,21.049,47.016,47.016,47.016s47.014-21.051,47.016-47.016   c-0.002-25.967-21.049-47.014-47.016-47.014C277.733,53.321,256.688,74.372,256.685,100.335z"/>
	<path style="fill:#F99A98;" d="M361.879,104.96c-18.36,18.36-18.36,48.128,0.002,66.488c18.36,18.36,48.126,18.36,66.482,0   c18.364-18.36,18.364-48.128,0.004-66.488C410.007,86.6,380.241,86.6,361.879,104.96z"/>
	<path style="fill:#7BA9D6;" d="M432.988,182.609c-25.961,0-47.01,21.051-47.012,47.018c0.002,25.967,21.051,47.012,47.012,47.012   c25.967,0,47.016-21.045,47.018-47.012C480.004,203.66,458.955,182.609,432.988,182.609z"/>
	<path style="fill:#FFE67B;" d="M428.367,287.803c-18.36-18.364-48.126-18.36-66.488,0c-16.295,16.295-18.129,41.573-5.501,59.893   c1.604,2.316,3.437,4.526,5.503,6.591c18.36,18.36,48.126,18.36,66.482,0C446.727,335.929,446.727,306.163,428.367,287.803z"/>
	<path style="fill:#F9EACD;" d="M174.415,231.214c-0.424,36.759-5.278,78.795-61.034,128.975l-67.321,60.592   c-19.221,17.298-18.281,48.207,0,66.488c18.281,18.279,49.191,19.224,66.491,0l60.59-67.321   c50.209-55.786,92.264-60.612,129.041-61.036c-33.07-0.4-65.514-13.48-89.904-37.865   C187.909,296.674,174.83,264.263,174.415,231.214z"/>
</g>
<g>
	<path style="fill:#000003;" d="M490.671,229.627c0-28.929-21.407-52.947-49.214-57.056c7.363-9.882,11.344-21.818,11.344-34.366   c0-15.408-5.999-29.891-16.894-40.786c-10.894-10.894-25.378-16.894-40.786-16.894c-12.549,0-24.484,3.98-34.368,11.344   c-4.108-27.804-28.123-49.214-57.052-49.214s-52.947,21.411-57.054,49.215c-9.882-7.363-21.818-11.347-34.368-11.347   c-15.406,0-29.891,5.999-40.788,16.894c-10.894,10.894-16.894,25.378-16.894,40.786c0,15.406,5.999,29.891,16.896,40.786   c0.421,0.421,0.856,0.819,1.287,1.224c-6.17,16.308-9.207,33.462-9.024,50.751c-0.002,0.021-0.004,0.039-0.004,0.061   c-0.408,35.524-5.186,74.147-57.508,121.241l-67.321,60.587c-10.932,9.839-17.175,23.623-17.575,38.817   c-0.426,16.079,5.833,31.801,17.169,43.139c10.975,10.973,26.063,17.189,41.605,17.189c0.512,0,1.025-0.009,1.537-0.021   c15.194-0.402,28.979-6.643,38.816-17.576l60.59-67.321c46.9-52.107,85.404-57.056,120.813-57.502   c0.65,0.009,1.298,0.022,1.947,0.022c16.795,0,33.449-3.047,49.299-9.044c0.402,0.427,0.796,0.859,1.213,1.277   c10.897,10.894,25.38,16.894,40.786,16.894c15.408,0,29.891-5.999,40.788-16.896c20.456-20.462,22.294-52.589,5.533-75.154   C469.255,282.577,490.671,258.559,490.671,229.627z M395.122,101.856c9.711,0,18.839,3.781,25.703,10.646   c6.866,6.864,10.646,15.993,10.646,25.703s-3.781,18.837-10.646,25.703c-6.864,6.866-15.991,10.646-25.703,10.646   c-9.71,0-18.837-3.781-25.703-10.646s-10.646-15.993-10.646-25.703s3.781-18.839,10.646-25.703   C376.285,105.637,385.414,101.856,395.122,101.856z M303.702,63.986c20.043,0,36.349,16.306,36.349,36.349   c0,20.041-16.306,36.347-36.349,36.347s-36.349-16.306-36.349-36.347C267.353,80.292,283.659,63.986,303.702,63.986z    M186.576,112.502c6.866-6.866,15.996-10.646,25.705-10.646c9.71,0,18.837,3.781,25.703,10.646   c6.866,6.865,10.646,15.993,10.646,25.703s-3.781,18.837-10.648,25.703c-6.864,6.866-15.991,10.646-25.701,10.646   c-7.365,0-14.396-2.181-20.358-6.228c-0.054-0.039-0.109-0.077-0.162-0.114c-1.838-1.263-3.575-2.695-5.184-4.303   c-6.866-6.866-10.646-15.993-10.646-25.703S179.71,119.366,186.576,112.502z M165.21,412.812l-60.59,67.321   c-5.885,6.541-14.24,10.278-23.524,10.521c-10.241,0.288-20.281-3.711-27.496-10.927s-11.198-17.237-10.93-27.494   c0.245-9.286,3.982-17.641,10.521-23.526l67.321-60.587c31.871-28.685,48.03-55.198,56.219-79.603   c5.189,11.198,11.852,21.672,19.874,31.191l-23.088,23.088c-4.164,4.166-4.164,10.919,0,15.083   c2.083,2.083,4.812,3.125,7.542,3.125c2.729,0,5.457-1.042,7.54-3.125l22.943-22.943c10.066,8.821,21.251,16.089,33.268,21.655   C220.408,364.784,193.894,380.945,165.21,412.812z M219.821,313.506c-31.806-31.803-42.623-79.416-28.564-121.574   c6.613,2.585,13.712,3.951,21.024,3.951c15.408,0,29.891-6.001,40.783-16.894c8.88-8.882,14.509-20.15,16.286-32.356   c9.603,7.145,21.492,11.378,34.353,11.378c12.861,0,24.751-4.233,34.351-11.375c1.779,12.206,7.403,23.472,16.284,32.354   c8.88,8.88,20.147,14.505,32.352,16.281c-7.142,9.605-11.378,21.492-11.378,34.356c0,12.861,4.235,24.748,11.378,34.351   c-12.206,1.777-23.472,7.403-32.352,16.285c-16.677,16.677-20.972,41.109-12.912,61.797   C299.259,356.134,251.633,345.318,219.821,313.506z M420.825,346.752c-6.864,6.866-15.991,10.646-25.703,10.646   c-9.71,0-18.837-3.781-25.701-10.646c-14.173-14.175-14.173-37.234-0.002-51.407c6.866-6.866,15.996-10.648,25.703-10.648   c9.708,0,18.837,3.783,25.703,10.65C434.996,309.518,434.996,332.577,420.825,346.752z M432.99,265.974   c-20.043,0-36.349-16.306-36.349-36.347c0-20.045,16.306-36.353,36.349-36.353c20.045,0,36.351,16.308,36.351,36.353   C469.341,249.668,453.035,265.974,432.99,265.974z"/>
	<path style="fill:#000003;" d="M272.74,27.648c9.845-4.194,20.262-6.318,30.96-6.318c21.103,0,40.944,8.217,55.867,23.138   c2.083,2.083,4.812,3.125,7.54,3.125c2.73,0,5.459-1.042,7.542-3.125c4.164-4.166,4.164-10.919-0.002-15.084   C355.696,10.436,330.5,0,303.7,0c-13.585,0-26.813,2.699-39.315,8.022c-5.42,2.306-7.942,8.572-5.637,13.989   C261.056,27.432,267.32,29.956,272.74,27.648z"/>
	<path style="fill:#000003;" d="M240.29,47.593c2.714,0,5.429-1.029,7.509-3.091l0.631-0.621c4.229-4.102,4.331-10.853,0.231-15.082   c-4.102-4.229-10.855-4.333-15.082-0.231c-0.271,0.26-0.533,0.523-0.798,0.783c-4.183,4.148-4.214,10.901-0.067,15.084   C234.802,46.539,237.545,47.593,240.29,47.593z"/>
	<path style="fill:#000003;" d="M151.898,364.416l-0.181,0.179c-4.189,4.141-4.227,10.892-0.087,15.083   c2.087,2.111,4.837,3.166,7.586,3.166c2.708,0,5.418-1.025,7.497-3.079l0.181-0.179c4.189-4.141,4.227-10.892,0.087-15.084   C162.839,360.314,156.086,360.279,151.898,364.416z"/>
</g>
<g>
</g>
<g>
</g>
<g>
</g>
<g>
</g>
<g>
</g>
<g>
</g>
<g>
</g>
<g>
</g>
<g>
</g>
<g>
</g>
<g>
</g>
<g>
</g>
<g>
</g>
<g>
</g>
<g>
</g>
</svg>
