<?xml version="1.0" encoding="iso-8859-1"?>
<!-- Generator: Adobe Illustrator 19.0.0, SVG Export Plug-In . SVG Version: 6.00 Build 0)  -->
<svg xmlns="http://www.w3.org/2000/svg" xmlns:xlink="http://www.w3.org/1999/xlink" version="1.1" id="Layer_1" x="0px" y="0px" viewBox="0 0 512 512" style="enable-background:new 0 0 512 512;" xml:space="preserve">
<g>
	<path style="fill:#F99A98;" d="M256.001,159.997c53.019,0,96.001,42.983,96.001,96.005c0,53.016-42.983,95.999-96.001,95.999   c-53.023,0-96.003-42.983-96.003-95.999C159.997,202.98,202.978,159.997,256.001,159.997L256.001,159.997z M419.091,167.359   c1.517-1.484,2.975-3.054,4.372-4.713c22.975-27.382,19.405-68.213-7.978-91.191s-68.209-19.402-91.188,7.978   c-1.394,1.662-2.688,3.376-3.886,5.126c0.208-2.113,0.315-4.253,0.315-6.423c0-35.748-28.977-64.724-64.724-64.724   s-64.724,28.976-64.724,64.724c0,2.166,0.107,4.31,0.315,6.423c-1.2-1.754-2.494-3.464-3.888-5.126   c-22.977-27.383-63.803-30.952-91.188-7.974c-27.381,22.974-30.951,63.799-7.976,91.187c1.396,1.659,2.855,3.229,4.374,4.717   c-2.044-0.573-4.138-1.054-6.274-1.432c-35.203-6.206-68.775,17.302-74.981,52.504c-6.206,35.205,17.3,68.775,52.504,74.981   c2.136,0.377,4.263,0.645,6.379,0.806c-1.935,0.877-3.846,1.854-5.723,2.936c-30.957,17.872-41.562,57.461-23.691,88.418   c17.877,30.959,57.461,41.564,88.418,23.694c1.88-1.085,3.679-2.248,5.406-3.489c-0.918,1.919-1.755,3.894-2.496,5.93   c-12.224,33.594,5.096,70.735,38.687,82.961c33.592,12.228,70.733-5.094,82.959-38.685c0.739-2.035,1.373-4.086,1.9-6.142   c0.525,2.052,1.158,4.107,1.9,6.142c12.224,33.59,49.366,50.913,82.959,38.685c33.59-12.226,50.909-49.366,38.687-82.961   c-0.743-2.035-1.576-4.015-2.496-5.93c1.727,1.242,3.528,2.404,5.406,3.489c30.955,17.87,70.541,7.266,88.418-23.694   c17.872-30.957,7.264-70.541-23.694-88.418c-1.877-1.082-3.788-2.063-5.723-2.94c2.119-0.16,4.248-0.425,6.383-0.802   c35.201-6.206,58.709-39.776,52.502-74.985c-6.206-35.199-39.778-58.702-74.983-52.5   C423.228,166.308,421.135,166.789,419.091,167.359z"/>
	<path style="fill:#7BA9D6;" d="M352.002,256.003c0-53.023-42.983-96.005-96.001-96.005c-53.023,0-96.003,42.983-96.003,96.005   c0,53.016,42.98,95.999,96.003,95.999C309.019,352.002,352.002,309.019,352.002,256.003z"/>
</g>
<g>
	<path style="fill:#000003;" d="M466.919,298.712c31.076-13.649,50.079-47.254,43.929-82.133   c-6.084-34.507-34.855-59.974-69.36-62.155c15.022-30.432,7.977-68.38-19.149-91.142c-13.555-11.373-30.752-17.637-48.425-17.637   c-16.268,0-31.847,5.194-44.662,14.614c-8.047-32.973-37.837-57.517-73.252-57.517s-65.205,24.543-73.252,57.516   c-12.812-9.42-28.392-14.614-44.66-14.614c-17.672,0-34.871,6.264-48.428,17.639c-27.125,22.761-34.169,60.707-19.143,91.143   c-34.507,2.178-63.279,27.645-69.364,62.157c-6.149,34.88,12.851,68.478,43.925,82.127c-24.531,23.456-30.892,61.53-13.188,92.204   c13.43,23.258,38.475,37.705,65.356,37.703c7.148,0,14.251-1.029,21.088-3.032c-3.714,33.738,15.883,66.995,49.162,79.108   c8.322,3.03,16.995,4.565,25.779,4.565c25.481,0,48.944-12.989,62.728-33.6c13.782,20.614,37.242,33.6,62.722,33.6   c0.002,0,0.004,0,0.006,0c8.788,0,17.462-1.536,25.781-4.565c33.275-12.112,52.875-45.37,49.16-79.108   c6.834,2.002,13.938,3.034,21.088,3.032c26.883-0.002,51.927-14.449,65.356-37.708   C497.817,360.243,491.456,322.174,466.919,298.712z M461.635,380.242c-9.63,16.679-27.594,27.04-46.88,27.04   c-9.422,0.001-18.745-2.507-26.964-7.251c-1.554-0.898-3.073-1.878-4.512-2.912c-3.961-2.848-9.347-2.645-13.083,0.49   c-3.738,3.134-4.871,8.403-2.757,12.797c0.763,1.588,1.463,3.253,2.081,4.951c10.193,28.013-4.3,59.096-32.309,69.291   c-5.974,2.175-12.193,3.277-18.485,3.277c-22.64,0.002-43.053-14.299-50.804-35.594c-0.606-1.663-1.141-3.39-1.589-5.137   c-1.213-4.717-5.463-8.016-10.333-8.016c-4.871,0-9.122,3.298-10.333,8.016c-0.45,1.752-0.986,3.482-1.592,5.144   c-7.749,21.287-28.164,35.588-50.804,35.588c-6.289,0-12.508-1.102-18.483-3.277c-28.009-10.195-42.504-41.278-32.311-69.284   c0.606-1.663,1.311-3.338,2.096-4.98c2.103-4.396,0.958-9.659-2.781-12.784c-3.738-3.128-9.12-3.323-13.074-0.475   c-1.427,1.027-2.946,2.007-4.507,2.909c-8.219,4.744-17.545,7.251-26.969,7.251c-19.285,0.001-37.247-10.359-46.876-27.036   c-14.904-25.814-6.025-58.944,19.772-73.844c1.554-0.894,3.171-1.721,4.805-2.462c4.44-2.011,6.951-6.776,6.103-11.574   c-0.848-4.798-4.84-8.411-9.699-8.779c-1.758-0.133-3.552-0.359-5.334-0.675c-29.355-5.176-49.027-33.268-43.851-62.624   c4.565-25.888,26.923-44.679,53.16-44.679c3.148,0,6.332,0.279,9.48,0.835c1.721,0.3,3.488,0.702,5.251,1.192   c4.692,1.302,9.673-0.734,12.103-4.955c2.431-4.221,1.694-9.551-1.79-12.956c-1.279-1.248-2.511-2.575-3.655-3.937   c-19.161-22.837-16.174-57.004,6.66-76.163c9.721-8.156,22.05-12.647,34.715-12.647c16.041,0,31.146,7.038,41.443,19.308   c1.144,1.363,2.238,2.807,3.248,4.288c2.75,4.023,7.872,5.67,12.449,4.009c4.58-1.663,7.45-6.215,6.978-11.062   c-0.175-1.783-0.262-3.595-0.262-5.388c0-29.806,24.249-54.057,54.057-54.057c29.807,0,54.057,24.249,54.057,54.057   c0,1.796-0.087,3.606-0.262,5.377c-0.477,4.849,2.39,9.406,6.969,11.071c4.58,1.665,9.707,0.017,12.455-4.007   c1.008-1.475,2.103-2.919,3.246-4.286c10.301-12.272,25.408-19.31,41.449-19.31c12.666,0,24.992,4.492,34.711,12.645   c22.835,19.16,25.825,53.327,6.674,76.154c-1.15,1.367-2.385,2.698-3.669,3.954c-3.482,3.408-4.213,8.744-1.775,12.961   c2.44,4.219,7.426,6.255,12.119,4.934c1.7-0.477,3.465-0.879,5.238-1.192c3.13-0.553,6.311-0.831,9.457-0.831   c26.244,0,48.604,18.789,53.169,44.677c5.176,29.357-14.495,57.452-43.851,62.628c-1.751,0.31-3.546,0.536-5.334,0.671   c-4.861,0.368-8.853,3.981-9.701,8.779c-0.848,4.798,1.665,9.561,6.103,11.574c1.611,0.73,3.227,1.561,4.79,2.461   C467.659,321.302,476.536,354.43,461.635,380.242z"/>
	<path style="fill:#000003;" d="M259.675,383.949c-1.227,0.035-2.45,0.052-3.675,0.052c-70.581,0-128.002-57.419-128.002-127.997   c0-11.178,1.467-22.327,4.361-33.132c1.523-5.692-1.856-11.54-7.546-13.063c-5.694-1.525-11.54,1.856-13.063,7.547   c-3.375,12.605-5.086,25.607-5.086,38.648c0,82.341,66.993,149.332,149.337,149.332c1.432,0,2.861-0.018,4.294-0.061   c5.888-0.171,10.523-5.084,10.353-10.972C270.476,388.413,265.532,383.757,259.675,383.949z"/>
	<path style="fill:#000003;" d="M256.001,149.33c-58.82,0-106.671,47.851-106.671,106.669c0,58.82,47.851,106.671,106.671,106.671   c58.817,0,106.669-47.851,106.669-106.671C362.669,197.182,314.818,149.33,256.001,149.33z M256.001,341.334   c-47.053,0-85.336-38.283-85.336-85.336s38.283-85.334,85.336-85.334s85.334,38.28,85.334,85.334   C341.334,303.053,303.054,341.334,256.001,341.334z"/>
	<path style="fill:#000003;" d="M277.863,195.847c-5.534-2.013-11.657,0.844-13.669,6.379c-2.013,5.537,0.844,11.657,6.379,13.671   c16.803,6.109,28.094,22.227,28.094,40.106c0,3.725-0.487,7.441-1.452,11.043c-1.525,5.69,1.852,11.538,7.544,13.063   c0.925,0.247,1.852,0.367,2.765,0.367c4.711,0,9.022-3.146,10.298-7.911c1.445-5.402,2.179-10.974,2.179-16.561   C320.001,229.185,303.067,205.009,277.863,195.847z"/>
	<path style="fill:#000003;" d="M289.203,379.623l-0.597,0.156c-5.694,1.515-9.082,7.357-7.57,13.051   c1.271,4.776,5.583,7.93,10.303,7.93c0.907,0,1.829-0.118,2.748-0.363l0.488-0.127c5.701-1.484,9.122-7.309,7.638-13.009   C300.728,381.558,294.902,378.137,289.203,379.623z"/>
	<path style="fill:#000003;" d="M240.238,193.969c-0.302,0.075-0.602,0.155-0.902,0.238c-5.677,1.579-8.997,7.461-7.417,13.136   c1.312,4.719,5.6,7.811,10.27,7.811c0.948,0,1.911-0.127,2.867-0.394l0.425-0.111c5.711-1.448,9.168-7.25,7.719-12.961   C251.752,195.978,245.952,192.52,240.238,193.969z"/>
</g>
<g>
</g>
<g>
</g>
<g>
</g>
<g>
</g>
<g>
</g>
<g>
</g>
<g>
</g>
<g>
</g>
<g>
</g>
<g>
</g>
<g>
</g>
<g>
</g>
<g>
</g>
<g>
</g>
<g>
</g>
</svg>
