<?xml version="1.0" encoding="iso-8859-1"?>
<!-- Generator: Adobe Illustrator 19.0.0, SVG Export Plug-In . SVG Version: 6.00 Build 0)  -->
<svg xmlns="http://www.w3.org/2000/svg" xmlns:xlink="http://www.w3.org/1999/xlink" version="1.1" id="Layer_1" x="0px" y="0px" viewBox="0 0 512 512" style="enable-background:new 0 0 512 512;" xml:space="preserve">
<g>
	<path style="fill:#F99A98;" d="M309.33,202.667c0-28.513,11.332-55.861,31.493-76.024c37.661-37.658,97.216-42.074,140.016-10.371   C458.088,71.195,418.092,36.31,369.517,20.3c-52.682,7.849-91.675,53.083-91.675,106.343   C277.841,155.156,289.169,182.504,309.33,202.667z"/>
	<path style="fill:#FFE67B;" d="M340.824,126.643c-20.161,20.162-31.493,47.511-31.493,76.024   c64.86-10.694,135.124,6.555,182.368,60.182c6.254-18.926,9.631-39.16,9.631-60.182c0-31.077-7.384-60.428-20.491-86.394   C438.04,84.569,378.484,88.985,340.824,126.643z"/>
	<path style="fill:#9FDEE2;" d="M385.357,171.179c-28.513-0.002-55.863,11.325-76.027,31.489c28.516,0,55.863,11.33,76.023,31.493   c37.661,37.658,42.079,97.215,10.374,140.016c45.073-22.751,79.96-62.751,95.972-111.326   C483.852,210.167,438.619,171.179,385.357,171.179z"/>
	<path style="fill:#FFA233;" d="M385.353,234.16c-20.159-20.163-47.506-31.493-76.023-31.493   c20.163,20.162,31.493,47.511,31.493,76.024c0,53.259-38.994,98.494-91.675,106.34c18.928,6.253,39.163,9.635,60.187,9.635   c31.073-0.002,60.424-7.383,86.392-20.491C427.432,331.374,423.014,271.818,385.353,234.16z"/>
	<path style="fill:#F99A98;" d="M340.824,278.691c0-28.512-11.33-55.861-31.493-76.024c-41.667,74.371-99.228,76.289-171.504,86.395   c6.015,11.914,13.232,23.116,21.505,33.437c8.903,11.145,19.024,21.27,30.174,30.171c17.603,14.099,37.75,25.151,59.643,32.361   C301.83,377.184,340.824,331.949,340.824,278.691z"/>
	<path style="fill:#FFE67B;" d="M277.837,278.689c20.165-20.16,31.493-47.508,31.493-76.022   c-20.161,20.16-47.509,31.491-76.025,31.491c-53.259,0-98.493-38.994-106.339-91.673c-6.254,18.926-9.631,39.158-9.631,60.18   c0,31.077,7.382,60.427,20.491,86.397C180.624,320.762,240.181,316.35,277.837,278.689z"/>
	<path style="fill:#9FDEE2;" d="M233.306,234.158c28.516,0,55.863-11.331,76.025-31.491c-28.511,0-55.859-11.33-76.021-31.489   c-37.665-37.666-42.073-97.218-10.372-140.019c-45.075,22.751-79.96,62.749-95.972,111.324   C134.813,195.164,180.046,234.158,233.306,234.158z"/>
	<path style="fill:#FFA233;" d="M233.31,171.179c20.161,20.158,47.509,31.489,76.021,31.489   c-20.161-20.162-31.49-47.511-31.49-76.024c0-53.259,38.994-98.494,91.675-106.343c-18.928-6.254-39.163-9.634-60.187-9.634   c-31.073,0-60.426,7.385-86.392,20.493C191.236,73.961,195.645,133.513,233.31,171.179z"/>
	<path style="fill:#F9EACD;" d="M189.505,352.67c-11.15-8.901-21.271-19.026-30.174-30.171L10.669,471.163l30.17,30.169   L189.505,352.67z"/>
</g>
<g>
	<path style="fill:#000003;" d="M511.998,202.664c0-32.313-7.615-62.877-21.124-90.012c-0.269-0.749-0.632-1.467-1.069-2.147   C465.78,63.648,424.032,27.32,373.471,10.408c-0.463-0.186-0.936-0.343-1.425-0.464C352.291,3.5,331.215,0,309.334,0   c-32.327,0-62.901,7.62-90.044,21.139c-0.732,0.266-1.434,0.619-2.1,1.044c-46.842,24.012-83.165,65.735-100.091,116.268   c-0.204,0.502-0.378,1.019-0.505,1.552c-6.433,19.742-9.928,40.799-9.928,62.659c0,32.306,7.611,62.862,21.114,89.992   c0.273,0.762,0.642,1.49,1.086,2.18c4.783,9.325,10.278,18.225,16.394,26.646L3.127,463.616c-4.167,4.166-4.167,10.919,0,15.086   l30.17,30.173c2,2.001,4.713,3.125,7.542,3.125c2.829,0,5.542-1.124,7.544-3.124L190.52,366.74   c16.49,11.975,34.843,21.533,54.543,28.136c0.518,0.215,1.056,0.39,1.609,0.523c19.743,6.435,40.802,9.929,62.664,9.929   c32.304,0,62.858-7.61,89.985-21.112c0.787-0.281,1.544-0.657,2.252-1.122C467.074,349.471,511.998,281.216,511.998,202.664z    M422.468,344.261c4.144-13.76,5.801-28.262,4.723-42.812c-2.09-28.238-14.27-54.816-34.292-74.837   c-15.797-15.795-35.279-26.56-56.503-31.511c14.69-8.637,31.466-13.258,48.96-13.258c12.873,0,25.424,2.514,37.302,7.473   c5.44,2.269,11.682-0.298,13.953-5.735c2.269-5.437-0.298-11.684-5.734-13.954c-14.497-6.052-29.812-9.119-45.521-9.119   c-22.34,0-43.727,6.161-62.235,17.669c4.282-16.499,12.875-31.627,25.243-43.993c33.042-33.042,85.894-37.493,124.002-10.841   c11.71,23.974,18.294,50.891,18.294,79.319C490.663,259.893,464.005,311.005,422.468,344.261z M167.713,315.769   c11.038,3.329,22.556,5.078,34.16,5.078c1.371,0,2.748-0.025,4.121-0.073c26.637-0.942,52.455-11.008,72.697-28.343   c4.473-3.833,4.994-10.566,1.163-15.042c-3.834-4.475-10.565-4.997-15.041-1.164c-33.849,28.988-82.21,31.213-118.509,5.772   c-11.717-23.977-18.303-50.899-18.303-79.333c0-6.848,0.396-13.605,1.137-20.258c6.807,12.714,15.916,24.188,27.004,33.748   c21.445,18.487,48.848,28.669,77.162,28.669c27.805,0,54.143-9.541,75.281-27.066c13.968,17.194,21.57,38.478,21.57,60.933   c0,46.74-34.247,87.271-80.063,95.355C217.397,362.711,188.922,342.271,167.713,315.769z M450.932,89.532   c-13.761-4.145-28.264-5.801-42.815-4.725c-28.237,2.093-54.816,14.272-74.835,34.291c-15.795,15.792-26.561,35.273-31.512,56.503   c-8.64-14.691-13.261-31.467-13.261-48.958c0-46.746,34.254-87.28,80.077-95.357C401.266,42.617,429.729,63.046,450.932,89.532z    M329.596,22.473c-12.715,6.806-24.191,15.913-33.752,27.004c-18.488,21.445-28.67,48.851-28.67,77.166   c0,22.336,6.162,43.724,17.671,62.234c-16.497-4.281-31.626-12.875-43.996-25.243c-33.042-33.042-37.491-85.896-10.834-124.005   c23.976-11.71,50.891-18.293,79.319-18.293C316.185,21.334,322.941,21.729,329.596,22.473z M196.2,61.068   c-4.146,13.761-5.804,28.264-4.728,42.816c2.092,28.237,14.27,54.815,34.291,74.836c15.797,15.795,35.279,26.559,56.505,31.51   c-14.692,8.638-31.47,13.259-48.963,13.259c-46.737,0-87.27-34.247-95.355-80.068C149.28,110.739,169.711,82.273,196.2,61.068z    M40.839,486.246l-15.085-15.088l133.003-133.001c4.763,5.288,9.799,10.323,15.087,15.086L40.839,486.246z M289.077,382.855   c12.713-6.807,24.185-15.912,33.744-27.001c18.488-21.445,28.67-48.851,28.67-77.165c0-22.336-6.162-43.724-17.671-62.235   c16.497,4.281,31.626,12.875,43.996,25.243c33.04,33.042,37.491,85.891,10.838,123.999c-23.972,11.712-50.89,18.294-79.318,18.294   C302.486,383.993,295.731,383.598,289.077,382.855z"/>
	<path style="fill:#000003;" d="M462.28,188.97l-0.746-0.636c-4.49-3.812-11.222-3.267-15.036,1.222   c-3.815,4.49-3.267,11.222,1.222,15.037l0.783,0.667c2.004,1.695,4.45,2.522,6.884,2.522c3.029,0,6.04-1.284,8.151-3.779   C467.342,199.504,466.778,192.774,462.28,188.97z"/>
	<path style="fill:#000003;" d="M301.134,266.72c3.227-4.924,1.854-11.534-3.069-14.764c-4.925-3.233-11.538-1.858-14.772,3.066   l-0.148,0.23c-3.267,4.902-1.944,11.525,2.958,14.792c1.819,1.213,3.875,1.793,5.909,1.793c3.446,0,6.829-1.668,8.884-4.751   L301.134,266.72z"/>
</g>
<g>
</g>
<g>
</g>
<g>
</g>
<g>
</g>
<g>
</g>
<g>
</g>
<g>
</g>
<g>
</g>
<g>
</g>
<g>
</g>
<g>
</g>
<g>
</g>
<g>
</g>
<g>
</g>
<g>
</g>
</svg>
