<?xml version="1.0" encoding="iso-8859-1"?>
<!-- Generator: Adobe Illustrator 19.0.0, SVG Export Plug-In . SVG Version: 6.00 Build 0)  -->
<svg xmlns="http://www.w3.org/2000/svg" xmlns:xlink="http://www.w3.org/1999/xlink" version="1.1" id="Layer_1" x="0px" y="0px" viewBox="0 0 511.999 511.999" style="enable-background:new 0 0 511.999 511.999;" xml:space="preserve">
<g>
	<path style="fill:#F99A98;" d="M399.998,160.002c0-92.869-44.991-19.21-97.333-128h-46.665h-46.669   c-24.59,51.109-47.557,61.951-64.998,68.709c-19.687,7.625-32.336,10.052-32.336,59.292H399.998z"/>
	<path style="fill:#7BA9D6;" d="M399.998,160.002H111.999v42.776v49.783v42.555v158.219c0,14.667,11.998,26.664,26.666,26.664   h234.666c14.667,0,26.667-11.996,26.667-26.664V295.114v-42.555v-49.783V160.002L399.998,160.002z M256.001,286.48   c33.499-35.606,72.397,5.69,52.32,37.492c-8.735,13.838-23.434,24.84-52.32,43.275c-28.889-18.435-43.587-29.438-52.322-43.275   C183.601,292.17,222.498,250.874,256.001,286.48z"/>
	<path style="fill:#FFA233;" d="M308.32,323.972c20.078-31.803-18.82-73.098-52.32-37.492c-33.503-35.606-72.399,5.69-52.322,37.492   c8.734,13.838,23.433,24.84,52.322,43.275C284.886,348.812,299.585,337.81,308.32,323.972z"/>
	<g>
		<path style="fill:#F99A98;" d="M399.998,252.56v42.555h33.778c37.154,0,67.555-30.399,67.555-67.557    c0-37.156-30.399-67.556-67.556-67.556h-33.778v42.776h37.661c13.606,0,24.892,11.285,24.892,24.892    c0,13.604-11.286,24.891-24.892,24.891h-37.661V252.56z"/>
		<path style="fill:#F99A98;" d="M111.999,202.777v-42.776H78.223c-37.156,0-67.556,30.399-67.556,67.556    c0,37.157,30.402,67.557,67.556,67.557h33.777v-42.555H74.339c-13.605,0-24.889-11.287-24.889-24.891    c0-13.607,11.284-24.892,24.889-24.892h37.661V202.777z"/>
	</g>
</g>
<g>
	<path style="fill:#000003;" d="M317.339,329.667c8.967-14.203,9.561-31.318,1.586-45.783   c-7.412-13.445-21.031-21.797-35.542-21.797c-6.997,0-16.876,1.915-27.383,10.001c-10.509-8.086-20.388-10.001-27.386-10.001   c-14.51,0-28.128,8.352-35.54,21.798c-7.975,14.465-7.382,31.578,1.583,45.78c9.97,15.793,25.872,27.6,55.604,46.573   c1.751,1.117,3.744,1.675,5.739,1.675c1.994,0,3.987-0.558,5.738-1.675C291.469,357.266,307.373,345.458,317.339,329.667z    M299.299,318.278c-7.231,11.456-19.979,21.209-43.298,36.293c-23.322-15.083-36.07-24.835-43.303-36.293   c-4.754-7.531-5.106-16.536-0.942-24.092c3.661-6.639,10.12-10.763,16.858-10.763c6.452,0,13.235,3.584,19.617,10.367   c2.016,2.143,4.827,3.358,7.769,3.358c2.942,0,5.753-1.215,7.769-3.358c6.38-6.782,13.163-10.367,19.614-10.367   c6.74,0,13.199,4.124,16.86,10.762C304.407,301.738,304.055,310.746,299.299,318.278z"/>
	<path style="fill:#000003;" d="M254.557,90.047h-0.254c-5.891,0-10.667,4.777-10.667,10.667c0,5.89,4.776,10.667,10.667,10.667   h0.254c5.891,0,10.667-4.777,10.667-10.667C265.224,94.824,260.449,90.047,254.557,90.047z"/>
	<path style="fill:#000003;" d="M357.334,426.664H278.01c-5.892,0-10.667,4.777-10.667,10.667s4.776,10.667,10.667,10.667h79.324   c5.89,0,10.667-4.777,10.667-10.667C368.001,431.44,363.225,426.664,357.334,426.664z"/>
	<path style="fill:#000003;" d="M247.365,426.665h-0.254c-5.89,0-10.667,4.777-10.667,10.667c0,5.892,4.777,10.667,10.667,10.667   h0.254c5.892,0,10.667-4.776,10.667-10.667C258.033,431.442,253.257,426.665,247.365,426.665z"/>
	<path style="fill:#000003;" d="M433.777,149.335h-23.341c-0.805-18.264-3.832-30.639-9.536-39.328   c-7.035-10.713-17.049-14.534-26.733-18.228c-16.864-6.433-37.849-14.439-61.888-64.402c-1.777-3.693-5.513-6.042-9.613-6.042   h-93.334c-4.099,0-7.836,2.349-9.613,6.043c-24.036,49.962-45.023,57.968-61.887,64.402c-9.684,3.694-19.698,7.515-26.733,18.228   c-5.706,8.69-8.732,21.063-9.538,39.328H78.223C35.091,149.335,0,184.426,0,227.557c0,43.133,35.091,78.224,78.223,78.224h23.109   v147.552c0,20.585,16.748,37.331,37.333,37.331h234.666c20.587,0,37.334-16.746,37.334-37.331V305.781h23.111   c43.133,0,78.223-35.091,78.223-78.224C512,184.426,476.909,149.335,433.777,149.335z M410.666,213.445h26.993   c7.709,0,14.225,6.513,14.225,14.225c0,7.71-6.516,14.224-14.225,14.224h-26.993V213.445z M128.933,121.717   c3.112-4.737,7.552-6.59,16.504-10.005c0.289-0.111,0.581-0.222,0.876-0.334h77.347c5.89,0,10.667-4.777,10.667-10.667   s-4.777-10.667-10.667-10.667h-41.508c10.733-9.959,22.224-24.687,33.799-47.375h80.096c26.699,52.327,52.938,62.337,70.515,69.044   c8.952,3.415,13.393,5.267,16.504,10.005c3.384,5.152,5.371,14.236,6.025,27.619H122.908   C123.561,135.953,125.549,126.87,128.933,121.717z M101.332,241.893H74.339c-7.709,0-14.222-6.513-14.222-14.224   c0-7.711,6.512-14.225,14.222-14.225h26.993V241.893z M78.223,284.447c-31.368,0-56.888-25.52-56.888-56.889   c0-31.368,25.52-56.888,56.888-56.888h23.109v21.441H74.339c-19.605,0-35.556,15.952-35.556,35.559   c0,19.607,15.951,35.558,35.556,35.558h26.993v21.22H78.223V284.447z M389.331,453.333c0,8.821-7.177,15.997-16,15.997H138.665   c-8.822,0-15.999-7.177-15.999-15.997V295.114v-42.555v-49.783v-32.108h266.665v32.108v49.783v42.555V453.333z M433.777,284.447   h-23.111v-21.22h26.993c19.607,0,35.559-15.951,35.559-35.558s-15.952-35.559-35.559-35.559h-26.993v-21.441h23.111   c31.368,0,56.888,25.52,56.888,56.888C490.666,258.928,465.145,284.447,433.777,284.447z"/>
</g>
<g>
</g>
<g>
</g>
<g>
</g>
<g>
</g>
<g>
</g>
<g>
</g>
<g>
</g>
<g>
</g>
<g>
</g>
<g>
</g>
<g>
</g>
<g>
</g>
<g>
</g>
<g>
</g>
<g>
</g>
</svg>
