<?xml version="1.0"?>
<svg xmlns="http://www.w3.org/2000/svg" id="flat" viewBox="0 0 64 64" width="512" height="512"><path d="M32,57h0a4,4,0,0,1-4,4H24.701a12,12,0,0,1-11.73363-9.48565L9.66593,36.10766A29.99952,29.99952,0,0,1,9,29.82179V20a8,8,0,0,1,8-8h0a8,8,0,0,1,6.4,3.2l.6.8h0a4,4,0,0,1,4-4h4Z" style="fill:#55d97a"/><path d="M32,12h7a5,5,0,0,1,5,5h0V16h0a4,4,0,0,1,4-4h0a7,7,0,0,1,7,7v10.8218a29.99952,29.99952,0,0,1-.66593,6.28587L51.03264,51.51435A12,12,0,0,1,39.299,61H36a4,4,0,0,1-4-4Z" style="fill:#4bbf6c"/><path d="M38,16l-.9923-1.48845A6,6,0,0,1,36,11.18335V9a6,6,0,0,0-6-6H24a2,2,0,0,0-2,2V6a2,2,0,0,0,2,2h5a2,2,0,0,1,2,2v1.51472a6,6,0,0,1-1.75736,4.24264L28,17V27H38Z" style="fill:#b98348"/><path d="M47.34314,18.34314A7.9982,7.9982,0,0,0,44,16.34253V17a4.94482,4.94482,0,0,0-.068-.6745A7.99279,7.99279,0,0,0,41.68628,16H40a8,8,0,0,0-8,8V57a4,4,0,0,0,4,4h3.299a12,12,0,0,0,11.73364-9.48566l3.3014-15.40667A29.99861,29.99861,0,0,0,55,29.82178V26Z" style="fill:#55d97a"/><path d="M24,16H22.31372a7.99991,7.99991,0,0,0-5.65686,2.34314L9,26v3.82178a29.99861,29.99861,0,0,0,.666,6.28589l3.3014,15.40667A12,12,0,0,0,24.701,61H28a4,4,0,0,0,4-4V24A8,8,0,0,0,24,16Z" style="fill:#5ae581"/><path d="M33,24H31a7.00787,7.00787,0,0,0-7-7H22.31348a6.95405,6.95405,0,0,0-4.94971,2.05029L15.707,20.707,14.293,19.293l1.65674-1.65674A8.93953,8.93953,0,0,1,22.31348,15H24A9.01047,9.01047,0,0,1,33,24Z" style="fill:#4bbf6c"/><path d="M33,35H31V24a9.01047,9.01047,0,0,1,9-9h1.68652a8.93953,8.93953,0,0,1,6.36377,2.63623L49.707,19.293,48.293,20.707l-1.65674-1.65674A6.95405,6.95405,0,0,0,41.68652,17H40a7.00787,7.00787,0,0,0-7,7Z" style="fill:#50cc73"/></svg>
