<svg id="flat" height="512" viewBox="0 0 64 64" width="512" xmlns="http://www.w3.org/2000/svg"><path d="m30 18v-5.12323a1.87677 1.87677 0 0 0 -1.87677-1.87677h-3.12323a1 1 0 0 1 -1-1v-2a1 1 0 0 1 1-1h4a1 1 0 0 0 1-1v-2a1 1 0 0 1 1-1h2a1 1 0 0 1 1 1v14z" fill="#b98348"/><path d="m8.3753 39.30024 3.94226 3.15381a1 1 0 0 1 .23279 1.29536l-1.909 3.18163a1 1 0 0 0 .54126 1.46317l3.97078 1.3236a1 1 0 0 1 .66219 1.15531l-.6753 3.19768a1 1 0 0 0 1.0355 1.205l3.9569-.22622a1 1 0 0 1 1.03766.80226l.60747 3.03738a1 1 0 0 0 1.29681.75256l4.339-1.44634a1 1 0 0 1 1.02338.24156l2.27009 2.27009a1 1 0 0 0 .70712.29291h1.17158a1 1 0 0 0 .7071-.29289l2.27011-2.27011a1 1 0 0 1 1.02334-.24158l4.339 1.44634a1 1 0 0 0 1.29681-.75256l.60747-3.03738a1 1 0 0 1 1.03766-.80226l3.9569.22622a1 1 0 0 0 1.0355-1.205l-.6753-3.19768a1 1 0 0 1 .66219-1.15531l3.97078-1.3236a1 1 0 0 0 .54126-1.46317l-1.909-3.18163a1 1 0 0 1 .23279-1.29536l3.94226-3.15381a1 1 0 0 0 .37534-.78084v-1.03876a1 1 0 0 0 -.3753-.78086l-3.94226-3.15376a1 1 0 0 1 -.23279-1.29536l1.909-3.18163a1 1 0 0 0 -.54126-1.46317l-3.97078-1.3236a1 1 0 0 1 -.66219-1.15531l.6753-3.19768a1 1 0 0 0 -1.0355-1.205l-3.9569.22622a1 1 0 0 1 -1.03766-.80226l-.60747-3.03738a1 1 0 0 0 -1.29681-.75256l-4.20078 1.4002a1 1 0 0 1 -1.14828-.394l-1.27945-1.91917a1 1 0 0 0 -.832-.4453h-2.92969a1 1 0 0 0 -.832.4453l-1.27945 1.91918a1 1 0 0 1 -1.14828.394l-4.20075-1.40025a1 1 0 0 0 -1.29681.75256l-.60747 3.03738a1 1 0 0 1 -1.03766.80226l-3.9569-.22622a1 1 0 0 0 -1.0355 1.205l.6753 3.19768a1 1 0 0 1 -.66219 1.15531l-3.97078 1.3236a1 1 0 0 0 -.54126 1.46317l1.909 3.18163a1 1 0 0 1 -.23279 1.29536l-3.94234 3.1538a1 1 0 0 0 -.3753.78086v1.03876a1 1 0 0 0 .3753.78086z" fill="#cccb4f"/><g fill="#bfbe4a"><path d="m22.293 39.707-2.293-2.29294a1.45026 1.45026 0 0 0 -2 0l-2.293 2.293-1.414-1.41406 2.29294-2.293a3.49732 3.49732 0 0 1 4.82812 0l2.293 2.293z"/><path d="m26.293 31.707-2.293-2.29294a1.45026 1.45026 0 0 0 -2 0l-2.293 2.293-1.414-1.41406 2.29294-2.293a3.49732 3.49732 0 0 1 4.82812 0l2.293 2.293z"/><path d="m44.293 31.707-2.293-2.29294a1.45026 1.45026 0 0 0 -2 0l-2.293 2.293-1.414-1.41406 2.29294-2.293a3.49732 3.49732 0 0 1 4.82812 0l2.293 2.293z"/><path d="m48.293 39.707-2.293-2.29294a1.45026 1.45026 0 0 0 -2 0l-2.293 2.293-1.414-1.41406 2.29294-2.293a3.49732 3.49732 0 0 1 4.82812 0l2.293 2.293z"/><path d="m35.293 37.707-2.293-2.29294a1.45026 1.45026 0 0 0 -2 0l-2.293 2.293-1.414-1.41406 2.29294-2.293a3.49732 3.49732 0 0 1 4.82812 0l2.293 2.293z"/><path d="m24 47a3.39207 3.39207 0 0 1 -2.41406-1l-2.293-2.293 1.41406-1.414 2.293 2.29294a1.45026 1.45026 0 0 0 2 0l2.293-2.293 1.414 1.41406-2.29294 2.293a3.39207 3.39207 0 0 1 -2.41406 1z"/><path d="m32 53a3.39207 3.39207 0 0 1 -2.41406-1l-2.293-2.293 1.41406-1.414 2.293 2.29294a1.45026 1.45026 0 0 0 2 0l2.293-2.293 1.414 1.41406-2.29294 2.293a3.39207 3.39207 0 0 1 -2.41406 1z"/><path d="m40 47a3.39207 3.39207 0 0 1 -2.41406-1l-2.293-2.293 1.41406-1.414 2.293 2.29294a1.45026 1.45026 0 0 0 2 0l2.293-2.293 1.414 1.41406-2.29294 2.293a3.39207 3.39207 0 0 1 -2.41406 1z"/><path d="m35.293 26.707-2.293-2.29294a1.45026 1.45026 0 0 0 -2 0l-2.293 2.293-1.414-1.41406 2.29294-2.293a3.49732 3.49732 0 0 1 4.82812 0l2.293 2.293z"/></g></svg>