<?xml version="1.0"?>
<svg xmlns="http://www.w3.org/2000/svg" id="flat" viewBox="0 0 64 64" width="512" height="512"><path d="M42,16h0A12,12,0,0,0,30,28V49A12,12,0,0,0,42,61h0a4.82839,4.82839,0,0,0,3.41419-1.4142L45.5,59.5A5.12133,5.12133,0,0,0,47,55.87868V16Z" style="fill:#4bbf6c"/><path d="M42,15A13.01442,13.01442,0,0,0,29,28V49A13.01442,13.01442,0,0,0,42,62a5.79064,5.79064,0,0,0,4.12109-1.707L46.207,60.207A6.08093,6.08093,0,0,0,48,55.87891V15Zm4,16a3.00328,3.00328,0,0,1-3,3H38v2h5a4.95129,4.95129,0,0,0,3-1.02557V40a3.00328,3.00328,0,0,1-3,3H38v2h5a4.95129,4.95129,0,0,0,3-1.02557V49a3.00328,3.00328,0,0,1-3,3H38v2h5a4.95129,4.95129,0,0,0,3-1.02557v2.90448A4.0946,4.0946,0,0,1,44.793,58.793l-.08594.08594A3.80311,3.80311,0,0,1,42,60,11.01245,11.01245,0,0,1,31,49V28A11.01245,11.01245,0,0,1,42,17h4Z" style="fill:#46b365"/><path d="M35,30H33V28a9.01047,9.01047,0,0,1,9-9h1v2H42a7.00787,7.00787,0,0,0-7,7Z" style="fill:#46b365"/><path d="M47.832,13.55469,46.168,12.44531l.99219-1.48828A4.98574,4.98574,0,0,0,48,8.18311V6h2V8.18311a6.97987,6.97987,0,0,1-1.17578,3.8833Z" style="fill:#3c9957"/><path d="M35.35651,14.68521h0A5.99994,5.99994,0,0,0,39.10469,16H42a1,1,0,0,1,1,1v6.66667a1,1,0,0,0,.2.6l1.2,1.6a2,2,0,0,0,3.2,0l1.2-1.6a1,1,0,0,0,.2-.6V16a4,4,0,0,0-4-4H36.29843A1.50781,1.50781,0,0,0,35.35651,14.68521Z" style="fill:#41a65e"/><path d="M27,12h0A12,12,0,0,0,15,24V49A12,12,0,0,0,27,61h0a4.82839,4.82839,0,0,0,3.41419-1.4142L30.5,59.5A5.12133,5.12133,0,0,0,32,55.87868V12Z" style="fill:#55d97a"/><path d="M27,11A13.01442,13.01442,0,0,0,14,24V49A13.01442,13.01442,0,0,0,27,62a5.79064,5.79064,0,0,0,4.12109-1.707L31.207,60.207A6.08093,6.08093,0,0,0,33,55.87891V11Zm4,16a3.00328,3.00328,0,0,1-3,3H23v2h5a4.95129,4.95129,0,0,0,3-1.02557V38a3.00328,3.00328,0,0,1-3,3H23v2h5a4.95129,4.95129,0,0,0,3-1.02557V49a3.00328,3.00328,0,0,1-3,3H23v2h5a4.95129,4.95129,0,0,0,3-1.02557v2.90448A4.0946,4.0946,0,0,1,29.793,58.793l-.08594.08594A3.80311,3.80311,0,0,1,27,60,11.01245,11.01245,0,0,1,16,49V24A11.01245,11.01245,0,0,1,27,13h4Z" style="fill:#50cc73"/><path d="M20,26H18V24a9.01047,9.01047,0,0,1,9-9h1v2H27a7.00787,7.00787,0,0,0-7,7Z" style="fill:#50cc73"/><path d="M32.832,9.55469,31.168,8.44531,32.16016,6.957A4.98574,4.98574,0,0,0,33,4.18311V2h2V4.18311a6.97987,6.97987,0,0,1-1.17578,3.8833Z" style="fill:#41a65e"/><path d="M20.35651,10.68521h0A5.99994,5.99994,0,0,0,24.10469,12H27a1,1,0,0,1,1,1v6.66667a1,1,0,0,0,.2.6l1.2,1.6a2,2,0,0,0,3.2,0l1.2-1.6a1,1,0,0,0,.2-.6V12a4,4,0,0,0-4-4H21.29843A1.50781,1.50781,0,0,0,20.35651,10.68521Z" style="fill:#4bbf6c"/></svg>
