<svg id="flat" height="512" viewBox="0 0 64 64" width="512" xmlns="http://www.w3.org/2000/svg"><path d="m17 60a11 11 0 0 1 -11-11v-14a20 20 0 0 1 20-20h6a20 20 0 0 1 20 20v15a9 9 0 0 1 -9 9l-2 1z" fill="#cccb50"/><path d="m46 53v-32.27136a19.92711 19.92711 0 0 0 -14-5.72864h-6a19.90465 19.90465 0 0 0 -13 4.81982v33.18018a8 8 0 0 0 8 8h17a8 8 0 0 0 8-8z" fill="#d9d855"/><path d="m38 53a8 8 0 0 1 -8 8h-1a8 8 0 0 1 -8-8v-27a4 4 0 0 1 4-4h9a4 4 0 0 1 4 4z" fill="#e5e45a"/><path d="m28 3h2a1 1 0 0 1 1 1v18a0 0 0 0 1 0 0h-4a0 0 0 0 1 0 0v-18a1 1 0 0 1 1-1z" fill="#b98348"/><path d="m31 11h19a8 8 0 0 1 8 8v5a2 2 0 0 1 -2 2h-17a8 8 0 0 1 -8-8v-7a0 0 0 0 1 0 0z" fill="#4bbf6c"/><path d="m53 22h-2v-2a3.00328 3.00328 0 0 0 -3-3h-17v-2h17a5.00588 5.00588 0 0 1 5 5z" fill="#41a65e"/></svg>