<svg id="flat" height="512" viewBox="0 0 64 64" width="512" xmlns="http://www.w3.org/2000/svg"><path d="m44 55a17 17 0 0 0 17-17v-18.80279a10.19721 10.19721 0 0 0 -10.19721-10.19721 3.36851 3.36851 0 0 1 -2.80279-1.5 3.36851 3.36851 0 0 0 -2.80277-1.5h-2.39446a3.36851 3.36851 0 0 0 -2.80277 1.5 3.36851 3.36851 0 0 1 -2.80277 1.5 10.19721 10.19721 0 0 0 -10.19723 10.19721v18.80279a17 17 0 0 0 17 17z" fill="#ccb157"/><path d="m3 37v5a16 16 0 0 0 16 16 16 16 0 0 0 16-16v-5z" fill="#d9bc5d"/><rect fill="#e5e45a" height="26" rx="13" width="32" x="3" y="24"/><g fill="#cccb50"><path d="m18 28h2v3h-2z"/><path d="m12.697 30.197h2v3h-2z" transform="matrix(.707 -.707 .707 .707 -18.398 18.961)"/><path d="m10 36h3v2h-3z"/><path d="m12.197 41.303h3v2h-3z" transform="matrix(.707 -.707 .707 .707 -25.901 22.075)"/><path d="m18 43h2v3h-2z"/><path d="m23.303 40.803h2v3h-2z" transform="matrix(.707 -.707 .707 .707 -22.792 29.564)"/><path d="m25 36h3v2h-3z"/><path d="m22.803 30.697h3v2h-3z" transform="matrix(.707 -.707 .707 .707 -15.295 26.469)"/></g><path d="m46 43h2v2h-2z" fill="#b39b4c"/><path d="m57 28h2v2h-2z" fill="#b39b4c"/><path d="m56 36h2v2h-2z" fill="#b39b4c"/><path d="m49 38h2v2h-2z" fill="#b39b4c"/><path d="m52 44h2v2h-2z" fill="#b39b4c"/><path d="m45 49h2v2h-2z" fill="#b39b4c"/><path d="m39 47h2v2h-2z" fill="#b39b4c"/></svg>