<svg id="flat" height="512" viewBox="0 0 64 64" width="512" xmlns="http://www.w3.org/2000/svg"><path d="m39 11h11.05208a9.53113 9.53113 0 0 1 6.73952 2.7916l1.4168 1.4168a9.53113 9.53113 0 0 1 2.7916 6.73952v7.52095a9.53111 9.53111 0 0 1 -1.25579 4.72876 9.53113 9.53113 0 0 1 -8.27533 4.80237h-12.46888z" fill="#e6c762"/><path d="m29 21a10 10 0 0 1 10-10 9.74378 9.74378 0 0 1 3.83829.78784l3.0454 1.30517a11.95587 11.95587 0 0 1 3.74441 2.53509 11.9559 11.9559 0 0 1 2.23957 3.10723l.07907.15815a9.97668 9.97668 0 0 1 1.05326 4.46168v6.2371a9.40774 9.40774 0 0 1 -9.40774 9.40774h-14.59226z" fill="#ffdd6d"/><path d="m7.53 45.81505-3.60959-7.82084a9.99993 9.99993 0 0 1 -.92041-4.19058v-4.66149a10 10 0 0 1 2.92893-7.07107l3.14214-3.14214a10 10 0 0 1 7.07107-2.92893h3.0205a10 10 0 0 1 6.68965 2.56706l6.4986 5.84874a9.99944 9.99944 0 0 0 1.38966 1.047l4.66426 2.9152a10 10 0 0 1 3.83813 4.41859l1.89518 4.26416a10 10 0 0 1 .86188 4.06139v.73572a10 10 0 0 1 -2.92893 7.07107l-1.14214 1.14214a10 10 0 0 1 -7.07107 2.92893h-14.49718a10 10 0 0 1 -4.47214-1.05573l-2.75106-1.37553a10 10 0 0 1 -4.60748-4.75369z" fill="#e6c762"/><g fill="#ccb157"><path d="m21 35h2v2h-2z"/><path d="m32 43h2v2h-2z"/><path d="m27 47h2v2h-2z"/><path d="m8 25h2v2h-2z"/><path d="m18 21h2v2h-2z"/><path d="m32 34h2v2h-2z"/><path d="m15 37h2v2h-2z"/><path d="m14 30h2v2h-2z"/><path d="m35 47h2v2h-2z"/><path d="m21 47h2v2h-2z"/><path d="m39 41h2v2h-2z"/></g></svg>