<?xml version="1.0"?>
<svg xmlns="http://www.w3.org/2000/svg" id="flat" viewBox="0 0 64 64" width="512" height="512"><rect x="11" y="12" width="42" height="49" rx="18" ry="18" style="fill:#55d97a"/><path d="M15.2583,18.38745l2.17182,3.2577a3.45207,3.45207,0,0,1-.43006,4.35461l-.06093.061a2.74383,2.74383,0,0,0,.001,3.87937l.11017.11017a2.72086,2.72086,0,0,1,.01245,3.8692l-.11474.11365a2.75011,2.75011,0,0,0-.00586,3.902l.10223.10187a2.74728,2.74728,0,0,1,.01831,3.90515l-.13324.13263a2.71367,2.71367,0,0,0,.00231,3.8488l.52577.52211a2.1821,2.1821,0,0,1,.0054,3.09134l-3.441,3.441a18.05028,18.05028,0,0,0,8.25128,6.70972l4.98432-5.69642a2.82841,2.82841,0,0,0-.12862-3.8625L27,50a2.794,2.794,0,0,1-.03567-3.965A2.82844,2.82844,0,0,0,27,42a2.82846,2.82846,0,0,1,0-4,2.82846,2.82846,0,0,0,0-4,2.82846,2.82846,0,0,1,0-4,2.82844,2.82844,0,0,0-.03556-4.03493A2.79429,2.79429,0,0,1,27,22l.20913-.20917a2.83,2.83,0,0,0,.20853-3.76883l-1.45355-1.81689a11.72943,11.72943,0,0,1-1.58367-2.6186L24,12.71857A17.99515,17.99515,0,0,0,15.2583,18.38745Z" style="fill:#46b365"/><path d="M34,12H32V9H30.5A3.5,3.5,0,1,1,34,5.5V7h4V9H34ZM30.5,4a1.5,1.5,0,0,0,0,3H32V5.5A1.50164,1.50164,0,0,0,30.5,4Z" style="fill:#b98348"/><path d="M48.7417,18.38745a17.97985,17.97985,0,0,0-10.10877-6.02038L37,14a2.82846,2.82846,0,0,0,0,4,2.82846,2.82846,0,0,1,0,4,2.82846,2.82846,0,0,0,0,4,2.82846,2.82846,0,0,1,0,4,2.82846,2.82846,0,0,0,0,4,2.82846,2.82846,0,0,1,0,4,2.82846,2.82846,0,0,0,0,4,2.82846,2.82846,0,0,1,0,4,2.82846,2.82846,0,0,0,0,4,2.82846,2.82846,0,0,1,0,4l-.2099.2099a2.82842,2.82842,0,0,0-.20862,3.76691l2.11231,2.64044a18.00967,18.00967,0,0,0,11.2843-7.63916l-3.441-3.441a2.18209,2.18209,0,0,1,.00543-3.09131l.52576-.52209a2.7137,2.7137,0,0,0,.00232-3.84882l-.13324-.13263a2.74728,2.74728,0,0,1,.01831-3.90515l.10223-.10187a2.75024,2.75024,0,0,0-.00561-3.90179l-.115-.1139a2.72086,2.72086,0,0,1,.01245-3.8692l.11017-.11017a2.744,2.744,0,0,0-.00025-3.88061l-.05969-.05975a3.44968,3.44968,0,0,1-.43115-4.353Z" style="fill:#46b365"/></svg>
