<?xml version="1.0" encoding="iso-8859-1"?>
<!-- Generator: Adobe Illustrator 19.0.0, SVG Export Plug-In . SVG Version: 6.00 Build 0)  -->
<svg version="1.1" id="Layer_1" xmlns="http://www.w3.org/2000/svg" xmlns:xlink="http://www.w3.org/1999/xlink" x="0px" y="0px"
	 viewBox="0 0 512 512" style="enable-background:new 0 0 512 512;" xml:space="preserve">
<path style="fill:#F6C958;" d="M422.733,68.454c-15.984-18.579-35.774-33.775-58.819-45.171C332.663,7.834,296.356,0,256,0
	s-76.663,7.834-107.914,23.286c-23.046,11.394-42.834,26.591-58.819,45.17c-14.875,17.288-20.691,42.42-15.179,65.588
	l46.265,194.434c6.733,28.299,29.886,48.065,56.304,48.065h158.683c26.418,0,49.572-19.765,56.304-48.063l46.265-194.436
	C443.423,110.875,437.607,85.743,422.733,68.454z"/>
<g>
	<path style="fill:#E5BC53;" d="M422.733,68.454c-15.984-18.579-35.774-33.775-58.819-45.171C332.663,7.834,296.356,0,256,0
		c0,27.78,0,340.137,0,376.542h79.341c26.418,0,49.572-19.765,56.304-48.063l46.265-194.436
		C443.423,110.875,437.607,85.743,422.733,68.454z"/>
	<path style="fill:#E5BC53;" d="M356.231,320.051c-2.814,11.826-11.404,20.086-20.89,20.086H176.658
		c-9.485,0-18.075-8.26-20.888-20.087l-19.762-83.052h239.985L356.231,320.051z"/>
</g>
<path style="fill:#D7B04D;" d="M356.231,320.051c-2.814,11.826-11.404,20.086-20.89,20.086H256c0-22.312,0-103.139,0-103.139
	h119.992L356.231,320.051z"/>
<path style="fill:#C2F9FA;" d="M402.495,125.616l-17.841,74.979H127.346l-17.841-74.978c-2.858-12.015-0.039-24.82,7.359-33.419
	C138.761,66.745,180.676,36.403,256,36.403s117.239,30.342,139.137,55.795C402.534,100.796,405.355,113.602,402.495,125.616z"/>
<path style="fill:#B4E8E8;" d="M402.495,125.616l-17.841,74.979H256c0,0,0-127.412,0-164.192
	c75.324,0,117.239,30.342,139.137,55.795C402.534,100.796,405.355,113.602,402.495,125.616z"/>
<rect x="95.619" y="106.134" transform="matrix(-0.1153 -0.9933 0.9933 -0.1153 89.1926 328.109)" style="fill:#F6C958;" width="190.18" height="36.402"/>
<rect x="303.086" y="29.228" transform="matrix(-0.9933 -0.1152 0.1152 -0.9933 626.1135 284.819)" style="fill:#E5BC53;" width="36.402" height="190.178"/>
<g>
	<rect x="91.537" y="345.11" style="fill:#8C493B;" width="16.292" height="155.448"/>
	<rect x="21.957" y="414.675" style="fill:#8C493B;" width="155.448" height="16.292"/>
	
		<rect x="21.965" y="414.674" transform="matrix(-0.7071 -0.7071 0.7071 -0.7071 -128.8009 792.2885)" style="fill:#8C493B;" width="155.446" height="16.293"/>
	
		<rect x="91.546" y="345.118" transform="matrix(-0.7071 -0.7071 0.7071 -0.7071 -128.8091 792.3278)" style="fill:#8C493B;" width="16.293" height="155.446"/>
</g>
<path style="fill:#B85F4D;" d="M99.681,512c-50.228,0-91.091-40.863-91.091-91.091s40.863-91.091,91.091-91.091
	s91.091,40.863,91.091,91.091S149.908,512,99.681,512z M99.681,355.331c-36.159,0-65.577,29.417-65.577,65.577
	s29.418,65.577,65.577,65.577s65.577-29.417,65.577-65.577S135.84,355.331,99.681,355.331z"/>
<g>
	<rect x="404.168" y="345.11" style="fill:#774135;" width="16.292" height="155.448"/>
	<rect x="334.592" y="414.675" style="fill:#774135;" width="155.448" height="16.292"/>
	
		<rect x="334.599" y="414.666" transform="matrix(-0.7071 -0.7071 0.7071 -0.7071 404.9044 1013.3417)" style="fill:#774135;" width="155.446" height="16.293"/>
	
		<rect x="404.189" y="345.097" transform="matrix(-0.7071 -0.7071 0.7071 -0.7071 404.9207 1013.3643)" style="fill:#774135;" width="16.293" height="155.446"/>
</g>
<path style="fill:#9B5142;" d="M412.319,512c-50.228,0-91.091-40.863-91.091-91.091s40.863-91.091,91.091-91.091
	s91.091,40.863,91.091,91.091S462.547,512,412.319,512z M412.319,355.331c-36.159,0-65.577,29.417-65.577,65.577
	s29.418,65.577,65.577,65.577s65.577-29.417,65.577-65.577S448.479,355.331,412.319,355.331z"/>
<g>
</g>
<g>
</g>
<g>
</g>
<g>
</g>
<g>
</g>
<g>
</g>
<g>
</g>
<g>
</g>
<g>
</g>
<g>
</g>
<g>
</g>
<g>
</g>
<g>
</g>
<g>
</g>
<g>
</g>
</svg>
