<?xml version="1.0" encoding="iso-8859-1"?>
<!-- Generator: Adobe Illustrator 19.0.0, SVG Export Plug-In . SVG Version: 6.00 Build 0)  -->
<svg version="1.1" id="Layer_1" xmlns="http://www.w3.org/2000/svg" xmlns:xlink="http://www.w3.org/1999/xlink" x="0px" y="0px"
	 viewBox="0 0 512 512" style="enable-background:new 0 0 512 512;" xml:space="preserve">
<path style="fill:#F6C958;" d="M255.999,320.591c-71.811,0-130.235-58.424-130.235-130.235S184.188,60.121,255.999,60.121
	s130.235,58.424,130.235,130.235S327.81,320.591,255.999,320.591z M255.999,89.983c-55.346,0-100.373,45.027-100.373,100.373
	s45.027,100.373,100.373,100.373s100.373-45.027,100.373-100.373S311.345,89.983,255.999,89.983z"/>
<polygon style="fill:#C2F9FA;" points="302.855,23.194 286.455,0 225.543,0 209.143,23.194 255.999,74.032 "/>
<polygon style="fill:#E0FAF2;" points="235.085,23.194 276.913,23.194 276.913,23.194 268.84,0 243.158,0 "/>
<g>
	<polygon style="fill:#B4E8E8;" points="255.999,74.032 302.855,23.194 276.913,23.194 	"/>
	<polygon style="fill:#B4E8E8;" points="209.143,23.194 255.999,74.032 235.085,23.194 	"/>
</g>
<path style="fill:#F6C958;" d="M283.329,75.066h-54.659c-5.165,0-9.351-4.186-9.351-9.351v-7.109c0-5.165,4.186-9.351,9.351-9.351
	h54.659c5.165,0,9.351,4.186,9.351,9.351v7.109C292.68,70.88,288.493,75.066,283.329,75.066z"/>
<g>
	<path style="fill:#E5BC53;" d="M284.084,49.256h-28.085v25.811h28.085c4.747,0,8.596-3.849,8.596-8.596V57.85
		C292.68,53.103,288.831,49.256,284.084,49.256z"/>
	<path style="fill:#E5BC53;" d="M255.999,60.121v29.862c55.346,0,100.373,45.027,100.373,100.373s-45.027,100.373-100.373,100.373
		v29.862c71.811,0,130.235-58.424,130.235-130.235C386.234,118.545,327.81,60.121,255.999,60.121z"/>
</g>
<rect x="56.458" y="178.643" style="fill:#7A7A7C;" width="399.082" height="132.897"/>
<rect x="255.999" y="178.643" style="fill:#6A6A6B;" width="199.546" height="132.897"/>
<path style="fill:#D02D7F;" d="M409.967,512H102.03c-49.658,0-89.915-40.257-89.915-89.915V268.089h487.768v153.996
	C499.882,471.743,459.627,512,409.967,512z"/>
<path style="fill:#C42C78;" d="M255.999,268.089V512H405.53c52.109,0,94.353-42.243,94.353-94.353V268.089H255.999z"/>
<rect x="12.115" y="245.092" style="fill:#F5F6F6;" width="487.769" height="39.146"/>
<rect x="255.999" y="245.092" style="fill:#E5E5E5;" width="243.879" height="39.146"/>
<g>
</g>
<g>
</g>
<g>
</g>
<g>
</g>
<g>
</g>
<g>
</g>
<g>
</g>
<g>
</g>
<g>
</g>
<g>
</g>
<g>
</g>
<g>
</g>
<g>
</g>
<g>
</g>
<g>
</g>
</svg>
