<?xml version="1.0" encoding="iso-8859-1"?>
<!-- Generator: Adobe Illustrator 19.0.0, SVG Export Plug-In . SVG Version: 6.00 Build 0)  -->
<svg version="1.1" id="Layer_1" xmlns="http://www.w3.org/2000/svg" xmlns:xlink="http://www.w3.org/1999/xlink" x="0px" y="0px"
	 viewBox="0 0 512 512" style="enable-background:new 0 0 512 512;" xml:space="preserve">
<path style="fill:#F6C958;" d="M256,512c-114.687,0-207.992-93.305-207.992-207.992S141.313,96.017,256,96.017
	s207.992,93.305,207.992,207.992S370.687,512,256,512z M256,129.408c-96.275,0-174.601,78.326-174.601,174.601
	s78.326,174.6,174.601,174.6s174.601-78.326,174.601-174.601S352.275,129.408,256,129.408z"/>
<polygon style="fill:#C2F9FA;" points="330.831,37.041 304.64,0 207.36,0 181.169,37.041 256,118.232 "/>
<polygon style="fill:#E0FAF2;" points="222.599,37.041 289.401,37.041 289.401,37.041 276.508,0 235.492,0 "/>
<g>
	<polygon style="fill:#B4E8E8;" points="256,118.232 330.831,37.041 289.401,37.041 	"/>
	<polygon style="fill:#B4E8E8;" points="181.169,37.041 256,118.232 222.599,37.041 	"/>
</g>
<path style="fill:#F6C958;" d="M300.853,119.885h-89.707c-7.582,0-13.727-6.146-13.727-13.727V92.39
	c0-7.582,6.146-13.727,13.727-13.727h89.707c7.581,0,13.727,6.146,13.727,13.727v13.767
	C314.582,113.739,308.435,119.885,300.853,119.885z"/>
<g>
	<path style="fill:#E5BC53;" d="M256,478.609c96.275,0,174.601-78.326,174.601-174.601s-78.326-174.6-174.601-174.6V96.017
		c114.687,0,207.992,93.305,207.992,207.992S370.687,512,256,512V478.609z"/>
	<path style="fill:#E5BC53;" d="M300.853,78.663H256v41.222h44.853c7.581,0,13.727-6.146,13.727-13.727V92.39
		C314.582,84.808,308.435,78.663,300.853,78.663z"/>
</g>
<g>
</g>
<g>
</g>
<g>
</g>
<g>
</g>
<g>
</g>
<g>
</g>
<g>
</g>
<g>
</g>
<g>
</g>
<g>
</g>
<g>
</g>
<g>
</g>
<g>
</g>
<g>
</g>
<g>
</g>
</svg>
