<?xml version="1.0" encoding="iso-8859-1"?>
<!-- Generator: Adobe Illustrator 19.0.0, SVG Export Plug-In . SVG Version: 6.00 Build 0)  -->
<svg version="1.1" id="Layer_1" xmlns="http://www.w3.org/2000/svg" xmlns:xlink="http://www.w3.org/1999/xlink" x="0px" y="0px"
	 viewBox="0 0 512.001 512.001" style="enable-background:new 0 0 512.001 512.001;" xml:space="preserve">
<path style="fill:#D02D7F;" d="M308.949,24.619c-22.731,0-42.533,13.312-52.946,33.008c-10.414-19.698-30.216-33.008-52.946-33.008
	c-39.894,0-66.327,28.978-66.327,64.727c0,35.745,20.152,57.379,66.327,90.002c40.347,28.507,52.946,48.512,52.946,48.512
	s12.601-20.005,52.946-48.512c46.175-32.623,66.325-54.256,66.325-90.002C375.274,53.597,348.843,24.619,308.949,24.619z"/>
<path style="fill:#C42C78;" d="M308.949,24.619c-22.731,0-42.533,13.312-52.946,33.008c0,34.278,0,170.231,0,170.231
	s12.601-20.005,52.946-48.512c46.175-32.623,66.325-54.256,66.325-90.002C375.274,53.597,348.843,24.619,308.949,24.619z"/>
<path style="fill:#FAD8C5;" d="M456.159,313.963c-10.755,4.752-34.766,15.009-52.639,22.618c1.46,5.327,2.229,10.959,2.229,16.748
	c0,15.272-5.369,30.58-14.73,41.997c-11.218,13.683-27.255,21.219-45.158,21.219H240.895v-23.011l0,0H345.86
	c44.907,0,51.641-73.785,4.371-73.785c-65.046,0-166.212-21.543-224.965-21.543l0,0l0,0c-31.514,0-125.266,0-125.266,0v148.901
	l45.695-16.544c0,0,151.255,56.819,229.26,56.819s166.569-55.718,220.606-109.755C527.864,345.324,511.438,289.539,456.159,313.963z
	"/>
<g>
</g>
<g>
</g>
<g>
</g>
<g>
</g>
<g>
</g>
<g>
</g>
<g>
</g>
<g>
</g>
<g>
</g>
<g>
</g>
<g>
</g>
<g>
</g>
<g>
</g>
<g>
</g>
<g>
</g>
</svg>
