<?xml version="1.0" encoding="iso-8859-1"?>
<!-- Generator: Adobe Illustrator 19.0.0, SVG Export Plug-In . SVG Version: 6.00 Build 0)  -->
<svg version="1.1" id="Layer_1" xmlns="http://www.w3.org/2000/svg" xmlns:xlink="http://www.w3.org/1999/xlink" x="0px" y="0px"
	 viewBox="0 0 512 512" style="enable-background:new 0 0 512 512;" xml:space="preserve">
<path style="fill:#D02D7F;" d="M341.099,54.733c-45.019,0-84.239,26.366-104.866,65.376
	c-20.626-39.012-59.846-65.376-104.866-65.376C52.353,54.733,0,112.127,0,182.929c0,70.798,39.912,113.643,131.366,178.256
	c79.91,56.46,104.866,96.081,104.866,96.081s24.958-39.62,104.866-96.081c91.453-64.614,131.363-107.459,131.363-178.256
	C472.462,112.127,420.114,54.733,341.099,54.733z"/>
<path style="fill:#C42C78;" d="M341.099,54.733c-45.019,0-84.239,26.366-104.866,65.376c0,67.891,0,337.158,0,337.158
	s24.958-39.62,104.866-96.081c91.453-64.614,131.363-107.459,131.363-178.256C472.462,112.127,420.114,54.733,341.099,54.733z"/>
<path style="fill:#E759A0;" d="M440.821,239.156c-24.394,0-45.645,14.286-56.821,35.424c-11.176-21.138-32.426-35.424-56.821-35.424
	c-42.813,0-71.18,31.099-71.18,69.463c0,38.361,21.627,61.576,71.18,96.587C370.477,435.799,384,457.267,384,457.267
	s13.523-21.468,56.821-52.061C490.375,370.195,512,346.98,512,308.619C512,270.255,483.635,239.156,440.821,239.156z"/>
<path style="fill:#D85397;" d="M440.821,239.156c-24.394,0-45.645,14.286-56.821,35.424c0,21.256,0,182.686,0,182.686
	s13.523-21.468,56.821-52.061C490.375,370.195,512,346.98,512,308.619C512,270.255,483.635,239.156,440.821,239.156z"/>
<g>
</g>
<g>
</g>
<g>
</g>
<g>
</g>
<g>
</g>
<g>
</g>
<g>
</g>
<g>
</g>
<g>
</g>
<g>
</g>
<g>
</g>
<g>
</g>
<g>
</g>
<g>
</g>
<g>
</g>
</svg>
