<?xml version="1.0" encoding="iso-8859-1"?>
<!-- Generator: Adobe Illustrator 19.0.0, SVG Export Plug-In . SVG Version: 6.00 Build 0)  -->
<svg version="1.1" id="Layer_1" xmlns="http://www.w3.org/2000/svg" xmlns:xlink="http://www.w3.org/1999/xlink" x="0px" y="0px"
	 viewBox="0 0 512.001 512.001" style="enable-background:new 0 0 512.001 512.001;" xml:space="preserve">
<path style="fill:#D02D7F;" d="M256.001,411.53c-67.78,0-132.211-27.45-186.327-79.383c-40.452-38.818-60.886-77.42-61.736-79.045
	L0,237.937l15.537-7.185c6.846-3.166,21.365-19.949,34.175-34.756c19.992-23.111,44.874-51.872,72.299-69.604
	c47.876-30.953,98.764-34.185,133.989-9.671c35.225-24.517,86.109-21.286,133.989,9.671c27.425,17.731,52.307,46.493,72.299,69.604
	c12.81,14.807,27.329,31.59,34.175,34.756l15.537,7.185l-7.938,15.166c-0.85,1.624-21.285,40.227-61.736,79.045
	C388.212,384.08,323.78,411.53,256.001,411.53z"/>
<path style="fill:#C42C78;" d="M256.001,411.53c0-56.922,0-238.752,0-294.81c35.225-24.517,86.109-21.286,133.989,9.671
	c27.425,17.731,52.307,46.493,72.299,69.604c12.81,14.807,27.329,31.59,34.175,34.756l15.537,7.185l-7.938,15.166
	c-0.85,1.624-21.285,40.227-61.736,79.045C388.212,384.08,323.78,411.53,256.001,411.53z"/>
<path style="fill:#E759A0;" d="M44.02,250.009c8.664,13.516,25.087,36.562,48.966,59.328
	c48.442,46.179,103.288,69.594,163.015,69.594c32.954,0,64.9-7.327,94.949-21.778c24.261-11.667,47.411-27.994,68.806-48.526
	c23.598-22.645,39.709-45.268,48.241-58.604c-9.091-8.114-18.96-19.522-30.361-32.702c-19.607-22.662-41.829-48.35-65.347-63.555
	c-40.025-25.879-81.19-27.571-104.867-4.312l-11.422,11.219l-11.422-11.219c-23.678-23.257-64.843-21.568-104.867,4.312
	c-23.518,15.205-45.74,40.892-65.347,63.555C62.97,230.494,53.106,241.897,44.02,250.009z"/>
<path style="fill:#D85397;" d="M256.001,378.931c32.954,0,64.9-7.327,94.949-21.778c24.261-11.667,47.411-27.994,68.806-48.526
	c23.598-22.645,39.709-45.268,48.241-58.604c-9.091-8.114-18.96-19.522-30.361-32.702c-19.607-22.662-41.829-48.35-65.347-63.555
	c-40.025-25.879-81.19-27.571-104.867-4.312l-11.422,11.219C256.001,160.674,256.001,307.307,256.001,378.931z"/>
<path style="fill:#D02D7F;" d="M15.537,230.751L0,237.937l7.938,15.166c0.23,0.44,1.909,3.609,5.02,8.742h486.085
	c3.111-5.133,4.79-8.302,5.02-8.742l7.938-15.166l-15.537-7.185c-0.745-0.344-1.585-0.86-2.5-1.506H18.037
	C17.123,229.893,16.282,230.408,15.537,230.751z"/>
<path style="fill:#C42C78;" d="M256.001,229.246c0,0,0,26.777,0,32.598h243.043c3.111-5.133,4.79-8.302,5.02-8.742l7.938-15.166
	l-15.537-7.185c-0.745-0.344-1.585-0.86-2.5-1.506C493.963,229.246,257.396,229.246,256.001,229.246z"/>
<g>
</g>
<g>
</g>
<g>
</g>
<g>
</g>
<g>
</g>
<g>
</g>
<g>
</g>
<g>
</g>
<g>
</g>
<g>
</g>
<g>
</g>
<g>
</g>
<g>
</g>
<g>
</g>
<g>
</g>
</svg>
