<?xml version="1.0" encoding="iso-8859-1"?>
<!-- Generator: Adobe Illustrator 19.0.0, SVG Export Plug-In . SVG Version: 6.00 Build 0)  -->
<svg version="1.1" id="Layer_1" xmlns="http://www.w3.org/2000/svg" xmlns:xlink="http://www.w3.org/1999/xlink" x="0px" y="0px"
	 viewBox="0 0 512 512" style="enable-background:new 0 0 512 512;" xml:space="preserve">
<path style="fill:#FC9FD8;" d="M255.983,0C167.83,0,96.376,72.244,96.376,161.262C96.377,250.386,255.983,512,255.983,512
	s159.642-261.614,159.642-350.738C415.624,72.244,344.125,0,255.983,0z"/>
<path style="fill:#EC96CB;" d="M255.983,0c0,35.619,0,512,0,512s159.642-261.614,159.642-350.738
	C415.624,72.244,344.125,0,255.983,0z"/>
<path style="fill:#D4498D;" d="M293.551,92.661c-16.619,0-31.096,9.732-38.711,24.133c-7.614-14.401-22.092-24.133-38.711-24.133
	c-29.167,0-48.492,21.186-48.492,47.322c0,26.134,14.733,41.949,48.492,65.801c29.498,20.842,38.711,35.467,38.711,35.467
	s9.213-14.625,38.711-35.467c33.759-23.851,48.491-39.668,48.491-65.801C342.042,113.848,322.719,92.661,293.551,92.661z"/>
<path style="fill:#C84788;" d="M293.551,92.661c-16.619,0-31.096,9.732-38.711,24.133c0,14.238,0,124.457,0,124.457
	s9.213-14.625,38.711-35.467c33.759-23.851,48.491-39.668,48.491-65.801C342.042,113.848,322.719,92.661,293.551,92.661z"/>
<g>
</g>
<g>
</g>
<g>
</g>
<g>
</g>
<g>
</g>
<g>
</g>
<g>
</g>
<g>
</g>
<g>
</g>
<g>
</g>
<g>
</g>
<g>
</g>
<g>
</g>
<g>
</g>
<g>
</g>
</svg>
