<?xml version="1.0" encoding="iso-8859-1"?>
<!-- Generator: Adobe Illustrator 19.0.0, SVG Export Plug-In . SVG Version: 6.00 Build 0)  -->
<svg version="1.1" id="Layer_1" xmlns="http://www.w3.org/2000/svg" xmlns:xlink="http://www.w3.org/1999/xlink" x="0px" y="0px"
	 viewBox="0 0 512 512" style="enable-background:new 0 0 512 512;" xml:space="preserve">
<rect x="182.738" style="fill:#DCDCDE;" width="33.391" height="50.863"/>
<rect x="295.868" style="fill:#CECFD0;" width="33.391" height="50.863"/>
<path style="fill:#F5F6F6;" d="M395.241,230.948c-23.26-30.512-50.792-53.797-79.175-67.843c2.355-5.106,6.687-10.173,12.694-16.938
	c11.187-12.6,25.111-28.28,25.111-53.748c0-35.91-29.215-65.124-65.124-65.124c-11.62,0-22.882,3.076-32.748,8.826
	c-9.866-5.75-21.128-8.826-32.748-8.826c-35.91,0-65.124,29.215-65.124,65.124c0,25.468,13.923,41.148,25.111,53.748
	c6.007,6.765,10.34,11.833,12.694,16.938c-28.384,14.047-55.916,37.331-79.175,67.843C73.353,287.882,49.451,363.16,49.451,442.916
	v7.589l5.718,4.99c1.657,1.447,35.829,30.746,81.18,30.743c4.809,0,9.748-0.336,14.785-1.064
	C164.593,494.839,196.828,512,255.998,512c59.169,0,91.405-17.16,104.869-26.825c5.036,0.728,9.973,1.064,14.785,1.064
	c45.345,0,79.521-29.298,81.18-30.743l5.718-4.99v-7.589C462.548,363.16,438.645,287.882,395.241,230.948z"/>
<path style="fill:#FC9FD8;" d="M255.998,179.792h87.51c-6.396-6.932-15.687-16.696-14.956-33.391h-72.554h-72.555
	c0.731,16.696-8.56,26.459-14.956,33.391H255.998z"/>
<path style="fill:#E5E5E5;" d="M395.241,230.948c-23.26-30.512-50.792-53.797-79.175-67.843c2.355-5.106,6.687-10.173,12.694-16.938
	c11.187-12.6,25.111-28.28,25.111-53.748c0-35.91-29.215-65.124-65.124-65.124c-11.62,0-22.882,3.076-32.748,8.826
	c-0.001,38.443-0.001,416.888-0.001,475.879c59.169,0,91.405-17.16,104.869-26.825c5.036,0.728,9.973,1.064,14.785,1.064
	c45.345,0,79.521-29.298,81.18-30.743l5.718-4.99v-7.589C462.548,363.16,438.645,287.882,395.241,230.948z"/>
<path style="fill:#EC96CB;" d="M255.998,179.792h87.51c-6.396-6.932-15.687-16.696-14.956-33.391h-72.554V179.792z"/>
<path style="fill:#DCDCDE;" d="M194.087,337.439c-6.761,8.933-43.09,66.936-55.634,148.762c4.143-0.085,8.371-0.405,12.676-1.027
	c3.023,2.17,7.001,4.719,12.009,7.365C163.138,492.54,159.979,413.411,194.087,337.439z"/>
<path style="fill:#CECFD0;" d="M317.909,337.439c6.761,8.933,43.09,66.936,55.634,148.762c-4.143-0.085-8.371-0.405-12.676-1.027
	c-3.023,2.17-7.001,4.719-12.009,7.365C348.858,492.54,352.017,413.411,317.909,337.439z"/>
<g>
</g>
<g>
</g>
<g>
</g>
<g>
</g>
<g>
</g>
<g>
</g>
<g>
</g>
<g>
</g>
<g>
</g>
<g>
</g>
<g>
</g>
<g>
</g>
<g>
</g>
<g>
</g>
<g>
</g>
</svg>
