<?xml version="1.0" encoding="iso-8859-1"?>
<!-- Generator: Adobe Illustrator 19.0.0, SVG Export Plug-In . SVG Version: 6.00 Build 0)  -->
<svg version="1.1" id="Layer_1" xmlns="http://www.w3.org/2000/svg" xmlns:xlink="http://www.w3.org/1999/xlink" x="0px" y="0px"
	 viewBox="0 0 511.999 511.999" style="enable-background:new 0 0 511.999 511.999;" xml:space="preserve">
<polygon style="fill:#B82971;" points="258.154,238.112 152.037,465.682 123.331,411.774 63.583,424.435 153.231,232.186 "/>
<polygon style="fill:#A82667;" points="253.845,238.112 359.962,465.682 388.668,411.774 448.416,424.435 358.768,232.186 "/>
<path style="fill:#D02D7F;" d="M215.544,242.733c0,0-116.175,3.46-177.765-8.093c-56.233-10.548-38.116-81.201-19.168-148.384
	c12.594-44.652,44.113-42.927,60.681-36.637c41.348,15.698,107.548,85.949,136.252,112.841V242.733z"/>
<g>
	<path style="fill:#C42C78;" d="M214.771,161.733c-29.101-27.404-94.495-96.555-135.48-112.115
		c-16.568-6.29-48.087-8.015-60.681,36.638C18.61,123.872,142.301,153.652,214.771,161.733z"/>
	<path style="fill:#C42C78;" d="M296.455,242.733c0,0,116.175,3.46,177.765-8.093c56.233-10.548,38.116-81.201,19.168-148.384
		c-12.594-44.652-44.114-42.928-60.681-36.638c-41.348,15.698-107.548,85.949-136.252,112.841V242.733z"/>
</g>
<path style="fill:#B82971;" d="M297.228,161.733c29.101-27.404,94.495-96.555,135.48-112.115
	c16.568-6.29,48.087-8.015,60.681,36.638C493.389,123.872,369.698,153.652,297.228,161.733z"/>
<path style="fill:#C42C78;" d="M295.049,152.668h-78.101c-5.831,0-10.558,4.727-10.558,10.558v78.101
	c0,5.831,4.727,10.558,10.558,10.558h78.101c5.831,0,10.558-4.727,10.558-10.558v-78.1
	C305.609,157.395,300.882,152.668,295.049,152.668z"/>
<path style="fill:#B82971;" d="M293.289,152.668h-37.289c0,6.458,0,83.445,0,99.219h37.289c6.804,0,12.319-5.515,12.319-12.319
	v-74.579C305.609,158.184,300.093,152.668,293.289,152.668z"/>
<g>
</g>
<g>
</g>
<g>
</g>
<g>
</g>
<g>
</g>
<g>
</g>
<g>
</g>
<g>
</g>
<g>
</g>
<g>
</g>
<g>
</g>
<g>
</g>
<g>
</g>
<g>
</g>
<g>
</g>
</svg>
