<?xml version="1.0" encoding="iso-8859-1"?>
<!-- Generator: Adobe Illustrator 19.0.0, SVG Export Plug-In . SVG Version: 6.00 Build 0)  -->
<svg version="1.1" id="Layer_1" xmlns="http://www.w3.org/2000/svg" xmlns:xlink="http://www.w3.org/1999/xlink" x="0px" y="0px"
	 viewBox="0 0 512 512" style="enable-background:new 0 0 512 512;" xml:space="preserve">
<path style="fill:#C2F9FA;" d="M311.068,399.11l73.322-0.319c70.785-0.308,127.918-57.942,127.609-128.727l-0.483-110.84
	c-0.308-70.785-57.942-127.918-128.727-127.609l-255.179,1.112C56.825,33.035-0.307,90.668,0.001,161.453l0.483,110.84
	c0.308,70.785,57.942,127.918,128.727,127.609l71.874-0.313l55.345,80.798L311.068,399.11z"/>
<path style="fill:#B4E8E8;" d="M256.43,480.388l54.638-81.278l73.322-0.319c70.785-0.308,127.918-57.942,127.609-128.727
	l-0.483-110.84c-0.308-70.785-57.942-127.918-128.727-127.609L256,32.726L256.43,480.388z"/>
<path style="fill:#D02D7F;" d="M298.012,134.572c-18.036,0-33.747,10.563-42.011,26.191c-8.263-15.628-23.975-26.191-42.011-26.191
	c-31.654,0-52.627,22.992-52.627,51.357c0,28.363,15.989,45.527,52.627,71.412c32.013,22.619,42.011,38.491,42.011,38.491
	S266,279.96,298.012,257.34c36.637-25.885,52.626-43.049,52.626-71.412C350.637,157.564,329.666,134.572,298.012,134.572z"/>
<path style="fill:#C42C78;" d="M298.012,134.572c-18.036,0-33.747,10.563-42.011,26.191c0,15.452,0,135.069,0,135.069
	S266,279.96,298.012,257.34c36.637-25.885,52.626-43.049,52.626-71.412C350.637,157.564,329.666,134.572,298.012,134.572z"/>
<g>
</g>
<g>
</g>
<g>
</g>
<g>
</g>
<g>
</g>
<g>
</g>
<g>
</g>
<g>
</g>
<g>
</g>
<g>
</g>
<g>
</g>
<g>
</g>
<g>
</g>
<g>
</g>
<g>
</g>
</svg>
