<?xml version="1.0" encoding="iso-8859-1"?>
<!-- Generator: Adobe Illustrator 19.0.0, SVG Export Plug-In . SVG Version: 6.00 Build 0)  -->
<svg version="1.1" id="Layer_1" xmlns="http://www.w3.org/2000/svg" xmlns:xlink="http://www.w3.org/1999/xlink" x="0px" y="0px"
	 viewBox="0 0 512 512" style="enable-background:new 0 0 512 512;" xml:space="preserve">
<rect x="-46.154" y="266.867" transform="matrix(-0.7071 -0.7071 0.7071 -0.7071 188.751 645.8804)" style="fill:#F5F6F6;" width="548.592" height="33.963"/>
<rect x="187.982" y="363.839" transform="matrix(-0.7071 -0.7071 0.7071 -0.7071 285.7508 880.0022)" style="fill:#E5E5E5;" width="274.296" height="33.963"/>
<rect x="232.798" y="14.048" transform="matrix(-0.7071 -0.7071 0.7071 -0.7071 240.9831 624.2596)" style="fill:#E759A0;" width="33.963" height="496.346"/>
<rect x="247.298" y="20.042" transform="matrix(-0.7071 -0.7071 0.7071 -0.7071 247.0028 638.7421)" style="fill:#D85397;" width="16.982" height="496.346"/>
<g>
	<polygon style="fill:#D02D7F;" points="71.257,503.21 58.779,453.221 8.791,440.743 17.016,407.791 86.792,425.208 
		104.209,494.984 	"/>
	<polygon style="fill:#D02D7F;" points="71.257,503.21 58.779,453.221 86.792,425.208 104.209,494.984 	"/>
	<polygon style="fill:#D02D7F;" points="109.754,464.713 97.274,414.726 47.288,402.247 55.513,369.296 125.289,386.711 
		142.706,456.488 	"/>
	<polygon style="fill:#D02D7F;" points="109.754,464.713 97.274,414.726 125.289,386.711 142.706,456.488 	"/>
	<path style="fill:#D02D7F;" d="M428.832,127.38c-9.49-9.49-12.2-23.316-8.324-35.888c-12.572,3.876-26.397,1.166-35.888-8.324
		c-16.657-16.657-15.594-39.791-0.668-54.717c14.925-14.925,32.37-15.543,65.27-9.885c28.748,4.943,42.36,1.852,42.36,1.852
		s-3.091,13.614,1.852,42.36c5.658,32.899,5.039,50.344-9.885,65.269C468.622,142.974,445.489,144.037,428.832,127.38z"/>
</g>
<path style="fill:#C42C78;" d="M428.832,127.38c-9.49-9.49-12.2-23.316-8.324-35.888c14.311-14.312,71.074-71.075,71.074-71.075
	s-3.091,13.614,1.852,42.36c5.658,32.899,5.039,50.344-9.885,65.269C468.622,142.974,445.489,144.037,428.832,127.38z"/>
<path style="fill:#7A7A7C;" d="M511.999,488.597l-24.574-23.445l0.08-0.083c-0.126,0.129-12.837,12.896-28.241,12.967
	c-8.649,0.041-16.877-3.962-25.15-12.236c-15.895-15.895-8.021-58.236-0.407-99.182c11.212-60.294,23.919-128.63-20.025-172.574
	c-18.159-18.159-37.128-28.044-56.381-29.38c-3.414-0.237-6.787-0.184-10.101,0.135c0.318-3.314,0.373-6.687,0.136-10.101
	c-1.336-19.255-11.221-38.223-29.38-56.382c-43.943-43.943-112.28-31.236-172.573-20.024c-40.947,7.613-83.287,15.488-99.182-0.407
	c-8.274-8.274-12.276-16.501-12.236-25.151c0.071-15.405,12.838-28.115,12.967-28.241l-0.083,0.08L23.402,0
	C21.043,2.251,0.348,22.832,0.004,52.137c-0.214,18.09,7.249,34.835,22.18,49.765c28.54,28.54,77.535,19.428,129.407,9.783
	c54.595-10.152,111.048-20.65,142.347,10.648c20.885,20.885,25.377,41.331,12.015,54.693c-8.44,8.44-23.002,11.952-31.229,3.725
	l-24.016,24.016c11.237,11.237,26.763,15.911,42.272,14.25c-1.661,15.509,3.014,31.036,14.251,42.272l24.016-24.016
	c-8.225-8.225-4.715-22.79,3.725-31.23c13.361-13.361,33.806-8.869,54.692,12.016c31.299,31.299,20.802,87.753,10.65,142.348
	c-9.646,51.873-18.756,100.868,9.783,129.407c14.93,14.93,31.673,22.392,49.763,22.18
	C489.168,511.65,509.748,490.956,511.999,488.597z"/>
<path style="fill:#6A6A6B;" d="M357.3,164.666c19.255,1.336,38.223,11.221,56.382,29.38c43.943,43.943,31.236,112.28,20.024,172.573
	c-7.613,40.947-15.488,83.287,0.407,99.182c8.274,8.274,16.501,12.276,25.151,12.236c15.405-0.071,28.115-12.838,28.241-12.967
	l-0.08,0.083L512,488.598c-2.251,2.359-22.832,23.053-52.137,23.397c-18.09,0.214-34.835-7.249-49.765-22.18
	c-28.54-28.54-19.428-77.535-9.783-129.407c10.152-54.595,20.65-111.048-10.648-142.347c-20.885-20.885-41.331-25.377-54.693-12.015
	c-8.44,8.44-11.952,23.002-3.725,31.229l-24.016,24.016c-11.237-11.237-15.911-26.763-14.25-42.272l54.216-54.216
	C350.513,164.482,353.887,164.429,357.3,164.666z"/>
<g>
</g>
<g>
</g>
<g>
</g>
<g>
</g>
<g>
</g>
<g>
</g>
<g>
</g>
<g>
</g>
<g>
</g>
<g>
</g>
<g>
</g>
<g>
</g>
<g>
</g>
<g>
</g>
<g>
</g>
</svg>
