<?xml version="1.0" encoding="iso-8859-1"?>
<!-- Generator: Adobe Illustrator 19.0.0, SVG Export Plug-In . SVG Version: 6.00 Build 0)  -->
<svg version="1.1" id="Layer_1" xmlns="http://www.w3.org/2000/svg" xmlns:xlink="http://www.w3.org/1999/xlink" x="0px" y="0px"
	 viewBox="0 0 512 512" style="enable-background:new 0 0 512 512;" xml:space="preserve">
<polygon style="fill:#F5F6F6;" points="287.13,341.084 116.214,512 0,395.786 395.786,0 512,116.214 341.084,287.13 "/>
<polygon style="fill:#E5E5E5;" points="287.13,341.084 116.214,512 58.108,453.892 453.892,58.108 512,116.214 341.084,287.13 "/>
<polygon style="fill:#D02D7F;" points="222.52,289.661 351.618,418.759 360.823,360.823 418.759,351.618 289.661,222.519 "/>
<polygon style="fill:#C42C78;" points="256.09,256.09 360.823,360.823 418.759,351.618 289.661,222.519 "/>
<circle style="fill:#F6C958;" cx="241.13" cy="241.13" r="72.915"/>
<path style="fill:#E5BC53;" d="M292.69,189.57c28.476,28.476,28.476,74.645,0,103.12c-44.633-44.633-58.955-58.955-103.12-103.12
	C218.046,161.094,264.214,161.094,292.69,189.57z"/>
<g>
</g>
<g>
</g>
<g>
</g>
<g>
</g>
<g>
</g>
<g>
</g>
<g>
</g>
<g>
</g>
<g>
</g>
<g>
</g>
<g>
</g>
<g>
</g>
<g>
</g>
<g>
</g>
<g>
</g>
</svg>
