<?xml version="1.0" encoding="iso-8859-1"?>
<!-- Generator: Adobe Illustrator 19.0.0, SVG Export Plug-In . SVG Version: 6.00 Build 0)  -->
<svg version="1.1" id="Layer_1" xmlns="http://www.w3.org/2000/svg" xmlns:xlink="http://www.w3.org/1999/xlink" x="0px" y="0px"
	 viewBox="0 0 512 512" style="enable-background:new 0 0 512 512;" xml:space="preserve">
<path style="fill:#C2F9FA;" d="M386.247,512H125.754V226.176l170.133-60.002v-35.929c0-21.994-17.893-39.887-39.888-39.887
	s-39.888,17.893-39.888,39.887v16.696h-90.358v-16.696C125.754,58.427,184.184,0,256.001,0s130.246,58.427,130.246,130.245V512z"/>
<path style="fill:#B4E8E8;" d="M386.247,512H256.001V180.242l39.888-14.068v-35.929c0-21.994-17.893-39.887-39.888-39.887
	c0-22.445,0-65.178,0-90.358c71.817,0,130.246,58.427,130.246,130.245V512z"/>
<path style="fill:#D02D7F;" d="M285.646,297.076c-12.727,0-23.815,7.454-29.646,18.482c-5.831-11.029-16.918-18.482-29.646-18.482
	c-22.338,0-37.138,16.225-37.138,36.242c0,20.015,11.283,32.127,37.138,50.393c22.591,15.961,29.646,27.162,29.646,27.162
	s7.056-11.201,29.646-27.163c25.854-18.266,37.137-30.378,37.137-50.393C322.783,313.301,307.984,297.076,285.646,297.076z"/>
<path style="fill:#C42C78;" d="M285.646,297.076c-12.727,0-23.815,7.454-29.646,18.482c0,10.904,0,95.314,0,95.314
	s7.056-11.201,29.646-27.163c25.854-18.266,37.137-30.378,37.137-50.393C322.783,313.301,307.984,297.076,285.646,297.076z"/>
<g>
</g>
<g>
</g>
<g>
</g>
<g>
</g>
<g>
</g>
<g>
</g>
<g>
</g>
<g>
</g>
<g>
</g>
<g>
</g>
<g>
</g>
<g>
</g>
<g>
</g>
<g>
</g>
<g>
</g>
</svg>
