<?xml version="1.0" encoding="iso-8859-1"?>
<!-- Generator: Adobe Illustrator 19.0.0, SVG Export Plug-In . SVG Version: 6.00 Build 0)  -->
<svg version="1.1" id="Layer_1" xmlns="http://www.w3.org/2000/svg" xmlns:xlink="http://www.w3.org/1999/xlink" x="0px" y="0px"
	 viewBox="0 0 512 512" style="enable-background:new 0 0 512 512;" xml:space="preserve">
<path style="fill:#95E9D2;" d="M483.084,138.413H28.915v101.025h29.633V512h394.904V239.438h29.633V138.413H483.084z"/>
<g>
	<path style="fill:#8CD9C3;" d="M483.084,138.413H255.999V512h197.452V239.438h29.633V138.413z"/>
	<polyline style="fill:#8CD9C3;" points="453.452,281.434 58.548,281.434 58.548,239.438 453.452,239.438 453.452,281.434 	"/>
</g>
<polyline style="fill:#7ABEAB;" points="453.452,239.438 255.999,239.438 255.999,281.434 453.452,281.434 453.452,239.438 "/>
<polyline style="fill:#C652AB;" points="278.547,512 233.451,512 233.451,115.455 278.547,115.455 278.547,512 "/>
<g>
	<polyline style="fill:#BA4FA2;" points="278.547,512 255.45,512 255.45,115.455 278.547,115.455 278.547,512 	"/>
	<polyline style="fill:#BA4FA2;" points="255.999,115.455 233.451,115.455 233.451,167.443 278.547,167.443 255.999,167.443 
		255.999,115.455 	"/>
</g>
<polyline style="fill:#AB4995;" points="278.547,115.455 255.999,115.455 255.999,167.443 278.547,167.443 278.547,115.455 "/>
<path style="fill:#C652AB;" d="M341.6,138.413H233.453v-0.302l-62.944,0.302c-38.269,0-69.314-31.046-69.314-69.207
	C101.194,31.046,132.239,0,170.4,0c34.904,0,65.85,21.521,85.6,49.862C275.749,21.521,306.695,0,341.6,0
	c38.161,0,69.206,31.046,69.206,69.206C410.805,107.366,379.76,138.413,341.6,138.413 M283.329,93.316H341.6
	c13.294,0,24.11-10.815,24.11-24.111c0-13.294-10.815-24.11-24.11-24.11c-14.456,0-30.074,8.42-42.849,23.1
	C292.124,75.811,286.832,84.542,283.329,93.316 M170.4,45.096c-13.294,0-24.11,10.815-24.11,24.11
	c0,13.295,10.815,24.111,24.11,24.111l58.159-0.278c-3.503-8.68-8.753-17.308-15.31-24.842
	C200.473,53.515,184.856,45.096,170.4,45.096"/>
<path style="fill:#BA4FA2;" d="M283.329,93.316c3.503-8.774,8.795-17.506,15.422-25.121c12.774-14.68,28.392-23.1,42.849-23.1
	c13.294,0,24.11,10.815,24.11,24.11l0,0l0,0c0,13.295-10.815,24.111-24.11,24.111h-58.271V93.316 M341.6,0
	c-34.905,0-65.851,21.521-85.601,49.862c0,25.046,0,88.55,0,88.55H341.6c38.161,0,69.206-31.046,69.206-69.207
	C410.805,31.046,379.76,0,341.6,0"/>
<g>
</g>
<g>
</g>
<g>
</g>
<g>
</g>
<g>
</g>
<g>
</g>
<g>
</g>
<g>
</g>
<g>
</g>
<g>
</g>
<g>
</g>
<g>
</g>
<g>
</g>
<g>
</g>
<g>
</g>
</svg>
