<?xml version="1.0" encoding="iso-8859-1"?>
<!-- Generator: Adobe Illustrator 19.0.0, SVG Export Plug-In . SVG Version: 6.00 Build 0)  -->
<svg version="1.1" id="Layer_1" xmlns="http://www.w3.org/2000/svg" xmlns:xlink="http://www.w3.org/1999/xlink" x="0px" y="0px"
	 viewBox="0 0 512 512" style="enable-background:new 0 0 512 512;" xml:space="preserve">
<g>
	<rect x="255.6" y="478.609" style="fill:#D7B04D;" width="83.439" height="33.391"/>
	<rect x="255.6" y="397.023" style="fill:#D7B04D;" width="83.439" height="33.391"/>
</g>
<rect x="238.904" y="148.191" style="fill:#F6C958;" width="33.391" height="363.809"/>
<rect x="255.6" y="148.191" style="fill:#E5BC53;" width="16.696" height="363.809"/>
<path style="fill:#D02D7F;" d="M305.136,0c-21.093,0-39.471,12.354-49.134,30.632C246.337,12.354,227.961,0,206.866,0
	c-37.022,0-61.551,26.891-61.551,60.067c0,33.172,18.7,53.247,61.551,83.522c37.442,26.455,49.134,45.018,49.134,45.018
	s11.694-18.564,49.134-45.018c42.85-30.275,61.549-50.35,61.549-83.522C366.686,26.891,342.158,0,305.136,0z"/>
<path style="fill:#C42C78;" d="M305.136,0c-21.093,0-39.471,12.354-49.134,30.632c0,18.072,0,157.974,0,157.974
	s11.694-18.564,49.134-45.018c42.85-30.275,61.549-50.35,61.549-83.522C366.686,26.891,342.158,0,305.136,0z"/>
<g>
</g>
<g>
</g>
<g>
</g>
<g>
</g>
<g>
</g>
<g>
</g>
<g>
</g>
<g>
</g>
<g>
</g>
<g>
</g>
<g>
</g>
<g>
</g>
<g>
</g>
<g>
</g>
<g>
</g>
</svg>
