<?xml version="1.0" encoding="iso-8859-1"?>
<!-- Generator: Adobe Illustrator 19.0.0, SVG Export Plug-In . SVG Version: 6.00 Build 0)  -->
<svg version="1.1" id="Layer_1" xmlns="http://www.w3.org/2000/svg" xmlns:xlink="http://www.w3.org/1999/xlink" x="0px" y="0px"
	 viewBox="0 0 512 512" style="enable-background:new 0 0 512 512;" xml:space="preserve">
<path style="fill:#E5BC53;" d="M388.648,208.228h-33.391v-75.579c0-54.731-44.526-99.258-99.257-99.258
	s-99.257,44.527-99.257,99.258v75.579h-33.391v-75.579C123.352,59.507,182.857,0,256,0s132.648,59.507,132.648,132.649V208.228z"/>
<path style="fill:#D7B04D;" d="M256,0v33.391c54.731,0,99.257,44.527,99.257,99.258v75.579h33.391v-75.579
	C388.648,59.507,329.143,0,256,0z"/>
<path style="fill:#F6C958;" d="M256,512c-99.626,0-180.678-81.052-180.678-180.678V190.317h361.355v141.005
	C436.678,430.948,355.626,512,256,512z"/>
<path style="fill:#E5BC53;" d="M256,190.317V512c99.626,0,180.678-81.052,180.678-180.678V190.317H256z"/>
<path style="fill:#D02D7F;" d="M287.538,295.644c-13.539,0-25.335,7.929-31.538,19.662c-6.203-11.733-17.998-19.662-31.538-19.662
	c-23.763,0-39.507,17.261-39.507,38.555c0,21.291,12.003,34.177,39.507,53.61C248.495,404.789,256,416.705,256,416.705
	s7.506-11.915,31.538-28.896c27.504-19.433,39.506-32.317,39.506-53.61C327.046,312.904,311.302,295.644,287.538,295.644z"/>
<path style="fill:#C42C78;" d="M287.538,295.644c-13.539,0-25.335,7.929-31.538,19.662c0,11.6,0,101.398,0,101.398
	s7.506-11.915,31.538-28.896c27.504-19.433,39.506-32.317,39.506-53.61C327.046,312.904,311.302,295.644,287.538,295.644z"/>
<g>
</g>
<g>
</g>
<g>
</g>
<g>
</g>
<g>
</g>
<g>
</g>
<g>
</g>
<g>
</g>
<g>
</g>
<g>
</g>
<g>
</g>
<g>
</g>
<g>
</g>
<g>
</g>
<g>
</g>
</svg>
