<?xml version="1.0" encoding="iso-8859-1"?>
<!-- Generator: Adobe Illustrator 19.0.0, SVG Export Plug-In . SVG Version: 6.00 Build 0)  -->
<svg version="1.1" id="Layer_1" xmlns="http://www.w3.org/2000/svg" xmlns:xlink="http://www.w3.org/1999/xlink" x="0px" y="0px"
	 viewBox="0 0 512 512" style="enable-background:new 0 0 512 512;" xml:space="preserve">
<path style="fill:#C3C3C9;" d="M256,146.64c-15.835,0-28.719-12.883-28.719-28.72S240.165,89.202,256,89.202
	s28.719,12.883,28.719,28.719S271.835,146.64,256,146.64z"/>
<path style="fill:#B8B9BD;" d="M256,146.64c0-19.836,0-44.921,0-57.439c15.835,0,28.719,12.883,28.719,28.719
	S271.835,146.64,256,146.64z"/>
<path style="fill:#DCDCDE;" d="M493.766,422.798H18.234v-67.111c0-131.104,106.662-237.766,237.766-237.766
	s237.766,106.662,237.766,237.766L493.766,422.798L493.766,422.798z"/>
<path style="fill:#CECFD0;" d="M493.766,422.798H256c0,0,0-241.116,0-304.877c131.104,0,237.766,106.662,237.766,237.766
	L493.766,422.798L493.766,422.798z"/>
<rect y="382.842" style="fill:#C3C3C9;" width="512" height="39.952"/>
<rect x="256" y="382.842" style="fill:#B8B9BD;" width="256" height="39.952"/>
<g>
</g>
<g>
</g>
<g>
</g>
<g>
</g>
<g>
</g>
<g>
</g>
<g>
</g>
<g>
</g>
<g>
</g>
<g>
</g>
<g>
</g>
<g>
</g>
<g>
</g>
<g>
</g>
<g>
</g>
</svg>
