<?xml version="1.0" encoding="iso-8859-1"?>
<!-- Generator: Adobe Illustrator 19.0.0, SVG Export Plug-In . SVG Version: 6.00 Build 0)  -->
<svg version="1.1" id="Layer_1" xmlns="http://www.w3.org/2000/svg" xmlns:xlink="http://www.w3.org/1999/xlink" x="0px" y="0px"
	 viewBox="0 0 512 512" style="enable-background:new 0 0 512 512;" xml:space="preserve">
<path style="fill:#8C493B;" d="M349.447,126.319h-35.721V96.253c0-14.131-11.497-25.629-25.629-25.629h-64.193
	c-14.132,0-25.629,11.498-25.629,25.629v30.067h-35.721V96.253c0-33.829,27.521-61.35,61.35-61.35h64.193
	c33.829,0,61.35,27.521,61.35,61.35V126.319z"/>
<path style="fill:#774135;" d="M288.097,34.903H256v35.721h32.097c14.132,0,25.629,11.498,25.629,25.629v30.067h35.721V96.253
	C349.447,62.423,321.924,34.903,288.097,34.903z"/>
<path style="fill:#F6C958;" d="M463.672,476.713H48.328C21.638,476.713,0,455.075,0,428.384V157.26
	c0-26.691,21.638-48.328,48.328-48.328h415.343c26.691,0,48.328,21.638,48.328,48.328v271.124
	C512,455.075,490.362,476.713,463.672,476.713z"/>
<path style="fill:#E5BC53;" d="M460.3,108.933H256v367.78h204.3c28.553,0,51.7-23.147,51.7-51.7v-264.38
	C512,132.08,488.853,108.933,460.3,108.933z"/>
<rect x="104.626" y="108.935" style="fill:#F5F6F6;" width="35.718" height="368.161"/>
<rect x="371.656" y="108.935" style="fill:#E5E5E5;" width="35.718" height="367.783"/>
<rect x="53.497" y="200.559" transform="matrix(-0.9638 0.2665 -0.2665 -0.9638 341.8867 450.9517)" style="fill:#95E9D2;" width="173.696" height="96.231"/>
<rect x="316.153" y="301.401" transform="matrix(-0.988 -0.1547 0.1547 -0.988 698.8281 744.3253)" style="fill:#D85397;" width="124.443" height="87.143"/>
<g>
</g>
<g>
</g>
<g>
</g>
<g>
</g>
<g>
</g>
<g>
</g>
<g>
</g>
<g>
</g>
<g>
</g>
<g>
</g>
<g>
</g>
<g>
</g>
<g>
</g>
<g>
</g>
<g>
</g>
</svg>
