<?xml version="1.0" encoding="iso-8859-1"?>
<!-- Generator: Adobe Illustrator 19.0.0, SVG Export Plug-In . SVG Version: 6.00 Build 0)  -->
<svg version="1.1" id="Layer_1" xmlns="http://www.w3.org/2000/svg" xmlns:xlink="http://www.w3.org/1999/xlink" x="0px" y="0px"
	 viewBox="0 0 512.009 512.009" style="enable-background:new 0 0 512.009 512.009;" xml:space="preserve">
<rect x="239.518" style="fill:#E0FAF2;" width="32.931" height="51.2"/>
<rect x="255.98" style="fill:#D1E9E2;" width="16.465" height="51.2"/>
<rect x="173.437" y="7.505" transform="matrix(-0.7071 0.7071 -0.7071 -0.7071 347.5909 -77.7676)" style="fill:#E0FAF2;" width="32.93" height="51.2"/>
<rect x="305.587" y="7.497" transform="matrix(-0.7071 -0.7071 0.7071 -0.7071 526.3737 284.2244)" style="fill:#D1E9E2;" width="32.929" height="51.2"/>
<rect x="57.467" y="470.185" transform="matrix(-0.9848 -0.1736 0.1736 -0.9848 133.8944 985.0106)" style="fill:#F5F6F6;" width="105.114" height="32.93"/>
<rect x="119.422" y="464.954" transform="matrix(0.1736 -0.9848 0.9848 0.1736 -371.4778 539.7759)" style="fill:#E5E5E5;" width="32.929" height="52.557"/>
<rect x="108.994" y="310.105" transform="matrix(-0.9848 -0.1736 0.1736 -0.9848 179.737 813.8153)" style="fill:#F5F6F6;" width="32.93" height="177.884"/>
<rect x="44.626" y="392.276" transform="matrix(0.1736 -0.9848 0.9848 0.1736 -284.0465 462.5193)" style="fill:#E5E5E5;" width="177.884" height="16.465"/>
<path style="fill:#F5F6F6;" d="M140.062,316.158c-41.637-7.342-69.537-47.189-62.196-88.824L104.96,73.679l151.02,26.63
	l-27.094,153.655C221.545,295.599,181.699,323.499,140.062,316.158z"/>
<path style="fill:#E5E5E5;" d="M140.062,316.158c7.305-41.426,40.408-229.165,40.408-229.165l75.51,13.315l-27.094,153.655
	C221.545,295.599,181.699,323.499,140.062,316.158z"/>
<path style="fill:#F6C958;" d="M106.084,193.731l-6.598,37.415c-5.239,29.715,14.672,58.152,44.388,63.392
	c29.715,5.239,58.152-14.672,63.392-44.387l11.491-65.166L106.084,193.731z"/>
<path style="fill:#E5BC53;" d="M162.421,189.358c0,0-11.414,64.735-18.547,105.18c29.715,5.239,58.152-14.672,63.392-44.387
	l11.491-65.166L162.421,189.358z"/>
<rect x="349.428" y="470.18" transform="matrix(0.9848 -0.1736 0.1736 0.9848 -78.3791 77.175)" style="fill:#E5E5E5;" width="105.114" height="32.93"/>
<rect x="359.611" y="464.921" transform="matrix(-0.1736 -0.9848 0.9848 -0.1736 -42.3781 946.8383)" style="fill:#F5F6F6;" width="32.929" height="52.557"/>
<rect x="370.069" y="310.115" transform="matrix(0.9848 -0.1736 0.1736 0.9848 -63.4082 73.1628)" style="fill:#E5E5E5;" width="32.93" height="177.884"/>
<rect x="289.456" y="392.234" transform="matrix(-0.1736 -0.9848 0.9848 -0.1736 49.7032 842.6412)" style="fill:#F5F6F6;" width="177.884" height="16.465"/>
<path style="fill:#E5E5E5;" d="M283.074,253.963L255.98,100.309L407,73.68l27.094,153.655c7.342,41.636-20.559,81.483-62.196,88.824
	C330.261,323.499,290.415,295.599,283.074,253.963z"/>
<path style="fill:#F5F6F6;" d="M283.074,253.963L255.98,100.309l75.51-13.314c0,0,33.103,187.738,40.408,229.165
	C330.261,323.499,290.415,295.599,283.074,253.963z"/>
<path style="fill:#E5BC53;" d="M405.876,193.731l6.597,37.415c5.239,29.715-14.672,58.152-44.388,63.392
	c-29.715,5.239-58.152-14.672-63.392-44.387l-11.491-65.166L405.876,193.731z"/>
<path style="fill:#F6C958;" d="M349.539,189.358c0,0,11.414,64.735,18.547,105.18c-29.715,5.239-58.152-14.672-63.392-44.387
	l-11.491-65.166L349.539,189.358z"/>
<g>
</g>
<g>
</g>
<g>
</g>
<g>
</g>
<g>
</g>
<g>
</g>
<g>
</g>
<g>
</g>
<g>
</g>
<g>
</g>
<g>
</g>
<g>
</g>
<g>
</g>
<g>
</g>
<g>
</g>
</svg>
