<?xml version="1.0" encoding="iso-8859-1"?>
<!-- Generator: Adobe Illustrator 19.0.0, SVG Export Plug-In . SVG Version: 6.00 Build 0)  -->
<svg version="1.1" id="Capa_1" xmlns="http://www.w3.org/2000/svg" xmlns:xlink="http://www.w3.org/1999/xlink" x="0px" y="0px"
	 viewBox="0 0 512.005 512.005" style="enable-background:new 0 0 512.005 512.005;" xml:space="preserve">
<linearGradient id="SVGID_1_" gradientUnits="userSpaceOnUse" x1="249.6886" y1="259.543" x2="271.5986" y2="259.543" gradientTransform="matrix(1.0039 0 0 -1.0039 0.1922 516.5609)">
	<stop  offset="0" style="stop-color:#FFCD77"/>
	<stop  offset="0.361" style="stop-color:#FFC34F"/>
	<stop  offset="1" style="stop-color:#FFAF00"/>
</linearGradient>
<rect x="244.555" y="97.782" style="fill:url(#SVGID_1_);" width="22.886" height="316.436"/>
<linearGradient id="SVGID_2_" gradientUnits="userSpaceOnUse" x1="250.173" y1="259.138" x2="0.293" y2="237.228" gradientTransform="matrix(1.0039 0 0 -1.0039 0.1922 516.5609)">
	<stop  offset="0" style="stop-color:#FFCD77"/>
	<stop  offset="0.361" style="stop-color:#FFC34F"/>
	<stop  offset="1" style="stop-color:#FFAF00"/>
</linearGradient>
<rect x="97.782" y="244.555" style="fill:url(#SVGID_2_);" width="316.436" height="22.886"/>
<linearGradient id="SVGID_3_" gradientUnits="userSpaceOnUse" x1="251.1886" y1="263.163" x2="266.6786" y2="247.673" gradientTransform="matrix(1.0039 0 0 -1.0039 0.1922 516.5609)">
	<stop  offset="0" style="stop-color:#FFCD77"/>
	<stop  offset="0.361" style="stop-color:#FFC34F"/>
	<stop  offset="1" style="stop-color:#FFAF00"/>
</linearGradient>
<polygon style="fill:url(#SVGID_3_);" points="152.215,375.968 136.032,359.785 359.785,136.032 375.968,152.215 "/>
<linearGradient id="SVGID_4_" gradientUnits="userSpaceOnUse" x1="258.4286" y1="263.163" x2="242.9386" y2="247.673" gradientTransform="matrix(1.0039 0 0 -1.0039 0.1922 516.5609)">
	<stop  offset="0" style="stop-color:#FFCD77"/>
	<stop  offset="0.361" style="stop-color:#FFC34F"/>
	<stop  offset="1" style="stop-color:#FFAF00"/>
</linearGradient>
<polygon style="fill:url(#SVGID_4_);" points="136.032,152.215 152.215,136.032 375.968,359.785 359.785,375.968 "/>
<linearGradient id="SVGID_5_" gradientUnits="userSpaceOnUse" x1="233.0186" y1="473.978" x2="276.5986" y2="473.978" gradientTransform="matrix(1.0039 0 0 -1.0039 0.1922 516.5609)">
	<stop  offset="0" style="stop-color:#FFA981"/>
	<stop  offset="0.335" style="stop-color:#FB9459"/>
	<stop  offset="1" style="stop-color:#F26500"/>
</linearGradient>
<ellipse style="fill:url(#SVGID_5_);" cx="256" cy="40.724" rx="21.875" ry="40.724"/>
<linearGradient id="SVGID_6_" gradientUnits="userSpaceOnUse" x1="233.5917" y1="430.5432" x2="0.3817" y2="447.0432" gradientTransform="matrix(1.0039 0 0 -1.0039 0.1922 516.5609)">
	<stop  offset="0" style="stop-color:#FFA981"/>
	<stop  offset="0.335" style="stop-color:#FB9459"/>
	<stop  offset="1" style="stop-color:#F26500"/>
</linearGradient>
<path style="fill:url(#SVGID_6_);" d="M266.255,76.703H256h-10.255c0,0,0.178,11.879-6.168,17.831H256h16.424
	C266.078,88.582,266.255,76.703,266.255,76.703z"/>
<linearGradient id="SVGID_7_" gradientUnits="userSpaceOnUse" x1="233.1264" y1="437.3676" x2="-0.0836" y2="429.0276" gradientTransform="matrix(1.0039 0 0 -1.0039 0.1922 516.5609)">
	<stop  offset="0" style="stop-color:#FFA981"/>
	<stop  offset="0.335" style="stop-color:#FB9459"/>
	<stop  offset="1" style="stop-color:#F26500"/>
</linearGradient>
<ellipse style="fill:url(#SVGID_7_);" cx="256" cy="76.7" rx="16.425" ry="4.747"/>
<linearGradient id="SVGID_8_" gradientUnits="userSpaceOnUse" x1="233.0186" y1="45.103" x2="276.5986" y2="45.103" gradientTransform="matrix(1.0039 0 0 -1.0039 0.1922 516.5609)">
	<stop  offset="0" style="stop-color:#FFA981"/>
	<stop  offset="0.335" style="stop-color:#FB9459"/>
	<stop  offset="1" style="stop-color:#F26500"/>
</linearGradient>
<ellipse style="fill:url(#SVGID_8_);" cx="256" cy="471.281" rx="21.875" ry="40.724"/>
<linearGradient id="SVGID_9_" gradientUnits="userSpaceOnUse" x1="233.5917" y1="88.5427" x2="0.3817" y2="72.0427" gradientTransform="matrix(1.0039 0 0 -1.0039 0.1922 516.5609)">
	<stop  offset="0" style="stop-color:#FFA981"/>
	<stop  offset="0.335" style="stop-color:#FB9459"/>
	<stop  offset="1" style="stop-color:#F26500"/>
</linearGradient>
<path style="fill:url(#SVGID_9_);" d="M266.255,435.297H256h-10.255c0,0,0.178-11.879-6.168-17.831H256h16.424
	C266.078,423.418,266.255,435.297,266.255,435.297z"/>
<linearGradient id="SVGID_10_" gradientUnits="userSpaceOnUse" x1="233.1264" y1="81.7184" x2="-0.0836" y2="90.0584" gradientTransform="matrix(1.0039 0 0 -1.0039 0.1922 516.5609)">
	<stop  offset="0" style="stop-color:#FFA981"/>
	<stop  offset="0.335" style="stop-color:#FB9459"/>
	<stop  offset="1" style="stop-color:#F26500"/>
</linearGradient>
<ellipse style="fill:url(#SVGID_10_);" cx="256" cy="435.3" rx="16.425" ry="4.747"/>
<linearGradient id="SVGID_11_" gradientUnits="userSpaceOnUse" x1="244.924" y1="217.6234" x2="11.714" y2="174.0434" gradientTransform="matrix(1.0039 0 0 -1.0039 0.1922 516.5609)">
	<stop  offset="0" style="stop-color:#FFA981"/>
	<stop  offset="0.335" style="stop-color:#FB9459"/>
	<stop  offset="1" style="stop-color:#F26500"/>
</linearGradient>
<ellipse style="fill:url(#SVGID_11_);" cx="471.281" cy="256" rx="40.724" ry="21.875"/>
<linearGradient id="SVGID_12_" gradientUnits="userSpaceOnUse" x1="417.7086" y1="259.5425" x2="434.2086" y2="259.5425" gradientTransform="matrix(1.0039 0 0 -1.0039 0.1922 516.5609)">
	<stop  offset="0" style="stop-color:#FFA981"/>
	<stop  offset="0.335" style="stop-color:#FB9459"/>
	<stop  offset="1" style="stop-color:#F26500"/>
</linearGradient>
<path style="fill:url(#SVGID_12_);" d="M435.297,266.255V256v-10.255c0,0-11.879,0.178-17.831-6.168V256v16.424
	C423.418,266.078,435.297,266.255,435.297,266.255z"/>
<linearGradient id="SVGID_13_" gradientUnits="userSpaceOnUse" x1="435.6486" y1="259.543" x2="427.3086" y2="259.543" gradientTransform="matrix(1.0039 0 0 -1.0039 0.1922 516.5609)">
	<stop  offset="0" style="stop-color:#FFA981"/>
	<stop  offset="0.335" style="stop-color:#FB9459"/>
	<stop  offset="1" style="stop-color:#F26500"/>
</linearGradient>
<ellipse style="fill:url(#SVGID_13_);" cx="435.3" cy="256" rx="4.747" ry="16.425"/>
<linearGradient id="SVGID_14_" gradientUnits="userSpaceOnUse" x1="26.9586" y1="259.543" x2="125.9386" y2="259.543" gradientTransform="matrix(1.0039 0 0 -1.0039 0.1922 516.5609)">
	<stop  offset="0" style="stop-color:#FFA981"/>
	<stop  offset="0.335" style="stop-color:#FB9459"/>
	<stop  offset="1" style="stop-color:#F26500"/>
</linearGradient>
<ellipse style="fill:url(#SVGID_14_);" cx="40.724" cy="256" rx="40.724" ry="21.875"/>
<linearGradient id="SVGID_15_" gradientUnits="userSpaceOnUse" x1="91.9086" y1="259.5425" x2="75.4086" y2="259.5425" gradientTransform="matrix(1.0039 0 0 -1.0039 0.1922 516.5609)">
	<stop  offset="0" style="stop-color:#FFA981"/>
	<stop  offset="0.335" style="stop-color:#FB9459"/>
	<stop  offset="1" style="stop-color:#F26500"/>
</linearGradient>
<path style="fill:url(#SVGID_15_);" d="M76.703,266.255V256v-10.255c0,0,11.879,0.178,17.831-6.168V256v16.424
	C88.582,266.078,76.703,266.255,76.703,266.255z"/>
<linearGradient id="SVGID_16_" gradientUnits="userSpaceOnUse" x1="73.9686" y1="259.543" x2="82.3086" y2="259.543" gradientTransform="matrix(1.0039 0 0 -1.0039 0.1922 516.5609)">
	<stop  offset="0" style="stop-color:#FFA981"/>
	<stop  offset="0.335" style="stop-color:#FB9459"/>
	<stop  offset="1" style="stop-color:#F26500"/>
</linearGradient>
<ellipse style="fill:url(#SVGID_16_);" cx="76.7" cy="256" rx="4.747" ry="16.425"/>
<linearGradient id="SVGID_17_" gradientUnits="userSpaceOnUse" x1="391.0276" y1="426.578" x2="421.8456" y2="395.764" gradientTransform="matrix(1.0039 0 0 -1.0039 0.1922 516.5609)">
	<stop  offset="0" style="stop-color:#FFA981"/>
	<stop  offset="0.335" style="stop-color:#FB9459"/>
	<stop  offset="1" style="stop-color:#F26500"/>
</linearGradient>
<path style="fill:url(#SVGID_17_);" d="M423.691,119.246c-15.904,15.904-35.722,21.871-44.265,13.328
	c-8.543-8.543-2.576-28.361,13.328-44.265c15.904-15.904,35.722-21.871,44.265-13.328
	C445.563,83.524,439.595,103.342,423.691,119.246z"/>
<linearGradient id="SVGID_18_" gradientUnits="userSpaceOnUse" x1="369.9986" y1="374.733" x2="381.6586" y2="386.393" gradientTransform="matrix(1.0039 0 0 -1.0039 0.1922 516.5609)">
	<stop  offset="0" style="stop-color:#FFA981"/>
	<stop  offset="0.335" style="stop-color:#FB9459"/>
	<stop  offset="1" style="stop-color:#F26500"/>
</linearGradient>
<path style="fill:url(#SVGID_18_);" d="M390.034,136.469l-7.251-7.251l-7.251-7.251c0,0-8.274,8.525-16.97,8.246l11.613,11.613
	l11.613,11.613C381.508,144.744,390.034,136.469,390.034,136.469z"/>
<linearGradient id="SVGID_19_" gradientUnits="userSpaceOnUse" x1="382.6786" y1="387.413" x2="376.7786" y2="381.513" gradientTransform="matrix(1.0039 0 0 -1.0039 0.1922 516.5609)">
	<stop  offset="0" style="stop-color:#FFA981"/>
	<stop  offset="0.335" style="stop-color:#FB9459"/>
	<stop  offset="1" style="stop-color:#F26500"/>
</linearGradient>
<path style="fill:url(#SVGID_19_);" d="M394.397,140.832c-1.853,1.853-8.556-1.844-14.97-8.258
	c-6.414-6.414-10.111-13.117-8.258-14.97c1.853-1.853,8.556,1.844,14.97,8.258C392.553,132.276,396.25,138.979,394.397,140.832z"/>
<linearGradient id="SVGID_20_" gradientUnits="userSpaceOnUse" x1="87.7736" y1="123.324" x2="118.5876" y2="92.506" gradientTransform="matrix(1.0039 0 0 -1.0039 0.1922 516.5609)">
	<stop  offset="0" style="stop-color:#FFA981"/>
	<stop  offset="0.335" style="stop-color:#FB9459"/>
	<stop  offset="1" style="stop-color:#F26500"/>
</linearGradient>
<path style="fill:url(#SVGID_20_);" d="M119.246,423.691c15.904-15.904,21.871-35.722,13.328-44.265
	c-8.543-8.543-28.361-2.576-44.265,13.328c-15.904,15.904-21.871,35.722-13.328,44.265
	C83.524,445.563,103.342,439.595,119.246,423.691z"/>
<linearGradient id="SVGID_21_" gradientUnits="userSpaceOnUse" x1="139.6186" y1="144.353" x2="127.9586" y2="132.693" gradientTransform="matrix(1.0039 0 0 -1.0039 0.1922 516.5609)">
	<stop  offset="0" style="stop-color:#FFA981"/>
	<stop  offset="0.335" style="stop-color:#FB9459"/>
	<stop  offset="1" style="stop-color:#F26500"/>
</linearGradient>
<path style="fill:url(#SVGID_21_);" d="M136.469,390.034l-7.251-7.251l-7.251-7.251c0,0,8.525-8.274,8.246-16.97l11.613,11.613
	l11.613,11.613C144.744,381.508,136.469,390.034,136.469,390.034z"/>
<linearGradient id="SVGID_22_" gradientUnits="userSpaceOnUse" x1="126.9386" y1="131.673" x2="132.8386" y2="137.573" gradientTransform="matrix(1.0039 0 0 -1.0039 0.1922 516.5609)">
	<stop  offset="0" style="stop-color:#FFA981"/>
	<stop  offset="0.335" style="stop-color:#FB9459"/>
	<stop  offset="1" style="stop-color:#F26500"/>
</linearGradient>
<path style="fill:url(#SVGID_22_);" d="M140.832,394.397c1.853-1.853-1.844-8.556-8.258-14.97
	c-6.414-6.414-13.117-10.111-14.97-8.258c-1.853,1.853,1.844,8.556,8.258,14.97C132.276,392.553,138.979,396.25,140.832,394.397z"/>
<linearGradient id="SVGID_23_" gradientUnits="userSpaceOnUse" x1="360.9986" y1="153.353" x2="485.1686" y2="29.183" gradientTransform="matrix(1.0039 0 0 -1.0039 0.1922 516.5609)">
	<stop  offset="0" style="stop-color:#FFA981"/>
	<stop  offset="0.335" style="stop-color:#FB9459"/>
	<stop  offset="1" style="stop-color:#F26500"/>
</linearGradient>
<path style="fill:url(#SVGID_23_);" d="M392.754,423.691c-15.904-15.904-21.871-35.722-13.328-44.265
	c8.543-8.543,28.361-2.576,44.265,13.328c15.904,15.904,21.871,35.722,13.328,44.265
	C428.476,445.563,408.658,439.595,392.754,423.691z"/>
<linearGradient id="SVGID_24_" gradientUnits="userSpaceOnUse" x1="369.9986" y1="144.353" x2="381.6586" y2="132.693" gradientTransform="matrix(1.0039 0 0 -1.0039 0.1922 516.5609)">
	<stop  offset="0" style="stop-color:#FFA981"/>
	<stop  offset="0.335" style="stop-color:#FB9459"/>
	<stop  offset="1" style="stop-color:#F26500"/>
</linearGradient>
<path style="fill:url(#SVGID_24_);" d="M375.531,390.034l7.251-7.251l7.251-7.251c0,0-8.525-8.274-8.246-16.97l-11.613,11.613
	l-11.613,11.613C367.256,381.508,375.531,390.034,375.531,390.034z"/>
<linearGradient id="SVGID_25_" gradientUnits="userSpaceOnUse" x1="382.6786" y1="131.673" x2="376.7786" y2="137.573" gradientTransform="matrix(1.0039 0 0 -1.0039 0.1922 516.5609)">
	<stop  offset="0" style="stop-color:#FFA981"/>
	<stop  offset="0.335" style="stop-color:#FB9459"/>
	<stop  offset="1" style="stop-color:#F26500"/>
</linearGradient>
<path style="fill:url(#SVGID_25_);" d="M371.168,394.397c-1.853-1.853,1.844-8.556,8.258-14.97
	c6.414-6.414,13.117-10.111,14.97-8.258c1.853,1.853-1.844,8.556-8.258,14.97S373.021,396.25,371.168,394.397z"/>
<linearGradient id="SVGID_26_" gradientUnits="userSpaceOnUse" x1="87.7866" y1="426.565" x2="151.4386" y2="362.913" gradientTransform="matrix(1.0039 0 0 -1.0039 0.1922 516.5609)">
	<stop  offset="0" style="stop-color:#FFA981"/>
	<stop  offset="0.335" style="stop-color:#FB9459"/>
	<stop  offset="1" style="stop-color:#F26500"/>
</linearGradient>
<path style="fill:url(#SVGID_26_);" d="M88.309,119.246c15.904,15.904,35.723,21.871,44.265,13.328
	c8.543-8.543,2.576-28.361-13.328-44.265S83.523,66.438,74.981,74.981S72.405,103.342,88.309,119.246z"/>
<linearGradient id="SVGID_27_" gradientUnits="userSpaceOnUse" x1="139.6186" y1="374.733" x2="127.9586" y2="386.393" gradientTransform="matrix(1.0039 0 0 -1.0039 0.1922 516.5609)">
	<stop  offset="0" style="stop-color:#FFA981"/>
	<stop  offset="0.335" style="stop-color:#FB9459"/>
	<stop  offset="1" style="stop-color:#F26500"/>
</linearGradient>
<path style="fill:url(#SVGID_27_);" d="M121.966,136.469l7.251-7.251l7.251-7.251c0,0,8.274,8.525,16.97,8.246l-11.613,11.613
	l-11.613,11.613C130.492,144.744,121.966,136.469,121.966,136.469z"/>
<linearGradient id="SVGID_28_" gradientUnits="userSpaceOnUse" x1="126.9386" y1="387.413" x2="132.8386" y2="381.513" gradientTransform="matrix(1.0039 0 0 -1.0039 0.1922 516.5609)">
	<stop  offset="0" style="stop-color:#FFA981"/>
	<stop  offset="0.335" style="stop-color:#FB9459"/>
	<stop  offset="1" style="stop-color:#F26500"/>
</linearGradient>
<path style="fill:url(#SVGID_28_);" d="M117.603,140.832c1.853,1.853,8.556-1.844,14.97-8.258
	c6.414-6.414,10.112-13.117,8.258-14.97c-1.853-1.853-8.556,1.844-14.97,8.258C119.447,132.276,115.75,138.979,117.603,140.832z"/>
<linearGradient id="SVGID_29_" gradientUnits="userSpaceOnUse" x1="354.2194" y1="160.1337" x2="-102.2107" y2="616.5637" gradientTransform="matrix(1.0039 0 0 -1.0039 0.1922 516.5609)">
	<stop  offset="0" style="stop-color:#FFCD77"/>
	<stop  offset="1" style="stop-color:#FF9111"/>
</linearGradient>
<path style="fill:url(#SVGID_29_);" d="M255.999,422.956c-92.062,0-166.958-74.897-166.958-166.958S163.937,89.039,255.999,89.039
	s166.959,74.898,166.959,166.959S348.061,422.956,255.999,422.956z M255.999,147.735c-59.693,0-108.259,48.566-108.259,108.262
	c0,59.693,48.566,108.259,108.259,108.259s108.262-48.566,108.262-108.259C364.26,196.3,315.692,147.735,255.999,147.735z"/>
<linearGradient id="SVGID_30_" gradientUnits="userSpaceOnUse" x1="197.7787" y1="316.5731" x2="464.4687" y2="49.883" gradientTransform="matrix(1.0039 0 0 -1.0039 0.1922 516.5609)">
	<stop  offset="0" style="stop-color:#FFCD77"/>
	<stop  offset="1" style="stop-color:#FFE000"/>
</linearGradient>
<path style="fill:url(#SVGID_30_);" d="M255.999,98.864c-86.645,0-157.141,70.495-157.141,157.141s70.496,157.118,157.141,157.118
	S413.14,342.65,413.14,256.005C413.141,169.36,342.644,98.864,255.999,98.864z M255.999,364.265
	c-59.713,0-108.252-48.594-108.252-108.252c0-59.714,48.539-108.253,108.252-108.253c59.714,0,108.252,48.539,108.252,108.253
	C364.251,315.671,315.712,364.265,255.999,364.265z"/>
<radialGradient id="SVGID_31_" cx="254.8076" cy="266.593" r="142.3004" gradientTransform="matrix(1.0039 0 0 -1.0039 0.1922 516.5609)" gradientUnits="userSpaceOnUse">
	<stop  offset="0" style="stop-color:#F26500"/>
	<stop  offset="0.288" style="stop-color:#F36A02;stop-opacity:0.712"/>
	<stop  offset="0.618" style="stop-color:#F87807;stop-opacity:0.382"/>
	<stop  offset="0.968" style="stop-color:#FE8F10;stop-opacity:0.032"/>
	<stop  offset="1" style="stop-color:#FF9111;stop-opacity:0"/>
</radialGradient>
<path style="fill:url(#SVGID_31_);" d="M255.999,89.05c-92.059,0-166.955,74.897-166.955,166.955
	c0,92.06,74.897,166.955,166.955,166.955c92.06,0,166.955-74.897,166.955-166.955C422.955,163.946,348.059,89.05,255.999,89.05z
	 M255.999,364.265c-59.713,0-108.252-48.594-108.252-108.252c0-59.714,48.539-108.253,108.252-108.253
	c59.714,0,108.252,48.539,108.252,108.253C364.251,315.671,315.712,364.265,255.999,364.265z"/>
<g>
	<circle style="fill:#FF9111;" cx="225.521" cy="256" r="8.28"/>
	<circle style="fill:#FF9111;" cx="286.479" cy="256" r="8.28"/>
	<circle style="fill:#FF9111;" cx="256" cy="225.521" r="8.28"/>
	<circle style="fill:#FF9111;" cx="256" cy="286.479" r="8.28"/>
	<circle style="fill:#FF9111;" cx="234.446" cy="234.446" r="8.28"/>
	<circle style="fill:#FF9111;" cx="277.554" cy="277.554" r="8.28"/>
	<circle style="fill:#FF9111;" cx="277.554" cy="234.446" r="8.28"/>
	<circle style="fill:#FF9111;" cx="234.446" cy="277.554" r="8.28"/>
</g>
<radialGradient id="SVGID_32_" cx="247.1886" cy="272.893" r="49.05" gradientTransform="matrix(1.0039 0 0 -1.0039 0.1922 516.5609)" gradientUnits="userSpaceOnUse">
	<stop  offset="0" style="stop-color:#FFCD77"/>
	<stop  offset="0.357" style="stop-color:#FFCB75"/>
	<stop  offset="0.525" style="stop-color:#FEC56D"/>
	<stop  offset="0.652" style="stop-color:#FDB961"/>
	<stop  offset="0.76" style="stop-color:#FBA94E"/>
	<stop  offset="0.855" style="stop-color:#F89536"/>
	<stop  offset="0.94" style="stop-color:#F57B1A"/>
	<stop  offset="1" style="stop-color:#F26500"/>
</radialGradient>
<circle style="fill:url(#SVGID_32_);" cx="256" cy="256" r="30.479"/>
<linearGradient id="SVGID_33_" gradientUnits="userSpaceOnUse" x1="306.2002" y1="342.2146" x2="250.6402" y2="397.7646" gradientTransform="matrix(1.0039 0 0 -1.0039 0.1922 516.5609)">
	<stop  offset="0" style="stop-color:#FFCD77;stop-opacity:0"/>
	<stop  offset="1" style="stop-color:#FF9111"/>
</linearGradient>
<path style="fill:url(#SVGID_33_);" d="M283.586,134.178l-20.057-20.047c-1.898-1.97-4.568-3.208-7.531-3.208
	c-5.796,0-10.486,4.699-10.486,10.496c0,2.954,1.229,5.623,3.197,7.531l19.502,19.501c16.751,1.887,32.355,7.603,45.909,16.26
	C301.893,152.485,283.631,134.222,283.586,134.178z"/>
<linearGradient id="SVGID_34_" gradientUnits="userSpaceOnUse" x1="254.8086" y1="403.673" x2="254.8086" y2="379.743" gradientTransform="matrix(1.0039 0 0 -1.0039 0.1922 516.5609)">
	<stop  offset="0" style="stop-color:#EFFBFF"/>
	<stop  offset="1" style="stop-color:#B2D5EC"/>
</linearGradient>
<circle style="fill:url(#SVGID_34_);" cx="256" cy="121.414" r="10.489"/>
<linearGradient id="SVGID_35_" gradientUnits="userSpaceOnUse" x1="254.8076" y1="389.583" x2="254.8076" y2="399.073" gradientTransform="matrix(1.0039 0 0 -1.0039 0.1922 516.5609)">
	<stop  offset="0" style="stop-color:#EFFBFF"/>
	<stop  offset="1" style="stop-color:#B2D5EC"/>
</linearGradient>
<path style="fill:url(#SVGID_35_);" d="M261.463,119.677h-3.729v-3.729c0-0.959-0.777-1.736-1.736-1.736l0,0
	c-0.959,0-1.736,0.777-1.736,1.736v3.729h-3.729c-0.959,0-1.736,0.777-1.736,1.736s0.777,1.736,1.736,1.736h3.729v3.729
	c0,0.959,0.777,1.736,1.736,1.736l0,0c0.959,0,1.736-0.777,1.736-1.736v-3.729h3.729c0.959,0,1.736-0.777,1.736-1.736
	C263.199,120.455,262.422,119.677,261.463,119.677z"/>
<linearGradient id="SVGID_36_" gradientUnits="userSpaceOnUse" x1="179.2004" y1="335.1448" x2="161.4604" y2="352.8848" gradientTransform="matrix(1.0039 0 0 -1.0039 0.1922 516.5609)">
	<stop  offset="0" style="stop-color:#FFCD77;stop-opacity:0"/>
	<stop  offset="1" style="stop-color:#FF9111"/>
</linearGradient>
<path style="fill:url(#SVGID_36_);" d="M160.829,150.343c-5.796,0-10.486,4.699-10.486,10.496c0,2.954,1.229,5.623,3.197,7.531
	l18.888,18.888c4.453-5.404,9.42-10.371,14.825-14.824L168.36,153.55C166.462,151.582,163.793,150.343,160.829,150.343z"/>
<linearGradient id="SVGID_37_" gradientUnits="userSpaceOnUse" x1="172.1399" y1="208.1443" x2="116.5799" y2="263.7043" gradientTransform="matrix(1.0039 0 0 -1.0039 0.1922 516.5609)">
	<stop  offset="0" style="stop-color:#FFCD77;stop-opacity:0"/>
	<stop  offset="1" style="stop-color:#FF9111"/>
</linearGradient>
<path style="fill:url(#SVGID_37_);" d="M148.438,268.206l-19.496-19.487c-1.898-1.97-4.568-3.208-7.531-3.208
	c-5.796,0-10.486,4.699-10.486,10.496c0,2.954,1.229,5.623,3.197,7.531l50.585,50.585
	C156.044,300.562,150.324,284.954,148.438,268.206z"/>
<linearGradient id="SVGID_38_" gradientUnits="userSpaceOnUse" x1="193.6908" y1="131.0652" x2="152.2808" y2="172.4852" gradientTransform="matrix(1.0039 0 0 -1.0039 0.1922 516.5609)">
	<stop  offset="0" style="stop-color:#FFCD77;stop-opacity:0"/>
	<stop  offset="1" style="stop-color:#FF9111"/>
</linearGradient>
<path style="fill:url(#SVGID_38_);" d="M188.418,363.934l-20.057-20.047c-1.898-1.969-4.568-3.208-7.531-3.208
	c-5.796,0-10.486,4.699-10.486,10.495c0,2.954,1.229,5.623,3.197,7.531l58.322,58.322c11.352,3.115,23.18,5.068,35.352,5.702
	C228.846,404.361,188.467,363.982,188.418,363.934z"/>
<linearGradient id="SVGID_39_" gradientUnits="userSpaceOnUse" x1="289.7701" y1="90.5145" x2="249.7401" y2="130.5445" gradientTransform="matrix(1.0039 0 0 -1.0039 0.1922 516.5609)">
	<stop  offset="0" style="stop-color:#FFCD77;stop-opacity:0"/>
	<stop  offset="1" style="stop-color:#FF9111"/>
</linearGradient>
<path style="fill:url(#SVGID_39_);" d="M297.875,417.641c-7.527-7.527-14.259-14.258-14.289-14.288l-20.057-20.047
	c-1.898-1.969-4.568-3.208-7.531-3.208c-5.796,0-10.486,4.699-10.486,10.495c0,2.954,1.229,5.623,3.197,7.531l24.002,24.002
	C281.305,421.269,289.71,419.758,297.875,417.641z"/>
<linearGradient id="SVGID_40_" gradientUnits="userSpaceOnUse" x1="372.8011" y1="141.5455" x2="343.8911" y2="170.4555" gradientTransform="matrix(1.0039 0 0 -1.0039 0.1922 516.5609)">
	<stop  offset="0" style="stop-color:#FFCD77;stop-opacity:0"/>
	<stop  offset="1" style="stop-color:#FF9111"/>
</linearGradient>
<path style="fill:url(#SVGID_40_);" d="M381.174,366.353c-1.491-1.491-2.397-2.397-2.42-2.419l-20.057-20.047
	c-1.898-1.969-4.568-3.208-7.531-3.208c-5.796,0-10.486,4.699-10.486,10.495c0,2.954,1.229,5.623,3.197,7.531l22.472,22.472
	C371.594,376.549,376.545,371.598,381.174,366.353z"/>
<linearGradient id="SVGID_41_" gradientUnits="userSpaceOnUse" x1="423.8318" y1="224.5762" x2="383.8018" y2="264.6062" gradientTransform="matrix(1.0039 0 0 -1.0039 0.1922 516.5609)">
	<stop  offset="0" style="stop-color:#FFCD77;stop-opacity:0"/>
	<stop  offset="1" style="stop-color:#FF9111"/>
</linearGradient>
<path style="fill:url(#SVGID_41_);" d="M418.173,268.766l-20.057-20.047c-1.898-1.97-4.568-3.208-7.531-3.208
	c-5.796,0-10.485,4.699-10.485,10.496c0,2.954,1.228,5.623,3.198,7.531l34.34,34.34c2.116-8.165,3.627-16.57,4.486-25.165
	C419.745,270.336,418.203,268.795,418.173,268.766z"/>
<linearGradient id="SVGID_42_" gradientUnits="userSpaceOnUse" x1="372.1109" y1="331.8253" x2="342.8309" y2="361.1153" gradientTransform="matrix(1.0039 0 0 -1.0039 0.1922 516.5609)">
	<stop  offset="0" style="stop-color:#FFCD77;stop-opacity:0"/>
	<stop  offset="1" style="stop-color:#FF9111"/>
</linearGradient>
<path style="fill:url(#SVGID_42_);" d="M392.087,186.931c-6.944-6.946-13.273-13.274-13.333-13.333l-20.057-20.047
	c-1.898-1.97-4.568-3.208-7.531-3.208c-5.796,0-10.485,4.699-10.485,10.496c0,2.954,1.229,5.623,3.197,7.531l17.042,17.042
	C371.284,185.609,381.692,186.117,392.087,186.931z"/>
<linearGradient id="SVGID_43_" gradientUnits="userSpaceOnUse" x1="254.8086" y1="135.543" x2="254.8086" y2="111.613" gradientTransform="matrix(1.0039 0 0 -1.0039 0.1922 516.5609)">
	<stop  offset="0" style="stop-color:#EFFBFF"/>
	<stop  offset="1" style="stop-color:#B2D5EC"/>
</linearGradient>
<circle style="fill:url(#SVGID_43_);" cx="256" cy="390.586" r="10.489"/>
<linearGradient id="SVGID_44_" gradientUnits="userSpaceOnUse" x1="254.8076" y1="121.463" x2="254.8076" y2="130.953" gradientTransform="matrix(1.0039 0 0 -1.0039 0.1922 516.5609)">
	<stop  offset="0" style="stop-color:#EFFBFF"/>
	<stop  offset="1" style="stop-color:#B2D5EC"/>
</linearGradient>
<path style="fill:url(#SVGID_44_);" d="M261.463,388.852h-3.729v-3.729c0-0.959-0.777-1.736-1.736-1.736l0,0
	c-0.959,0-1.736,0.777-1.736,1.736v3.729h-3.729c-0.959,0-1.736,0.777-1.736,1.736c0,0.959,0.777,1.736,1.736,1.736h3.729v3.729
	c0,0.959,0.777,1.736,1.736,1.736l0,0c0.959,0,1.736-0.777,1.736-1.736v-3.729h3.729c0.959,0,1.736-0.777,1.736-1.736
	S262.422,388.852,261.463,388.852z"/>
<linearGradient id="SVGID_45_" gradientUnits="userSpaceOnUse" x1="388.8686" y1="269.603" x2="388.8686" y2="245.673" gradientTransform="matrix(1.0039 0 0 -1.0039 0.1922 516.5609)">
	<stop  offset="0" style="stop-color:#EFFBFF"/>
	<stop  offset="1" style="stop-color:#B2D5EC"/>
</linearGradient>
<circle style="fill:url(#SVGID_45_);" cx="390.586" cy="256" r="10.489"/>
<linearGradient id="SVGID_46_" gradientUnits="userSpaceOnUse" x1="388.8696" y1="255.523" x2="388.8696" y2="265.013" gradientTransform="matrix(1.0039 0 0 -1.0039 0.1922 516.5609)">
	<stop  offset="0" style="stop-color:#EFFBFF"/>
	<stop  offset="1" style="stop-color:#B2D5EC"/>
</linearGradient>
<path style="fill:url(#SVGID_46_);" d="M396.051,254.264h-3.729v-3.729c0-0.959-0.777-1.736-1.736-1.736l0,0
	c-0.959,0-1.736,0.777-1.736,1.736v3.729h-3.729c-0.959,0-1.736,0.777-1.736,1.736c0,0.959,0.777,1.736,1.736,1.736h3.729v3.729
	c0,0.959,0.777,1.736,1.736,1.736l0,0c0.959,0,1.736-0.777,1.736-1.736v-3.729h3.729c0.959,0,1.736-0.777,1.736-1.736
	C397.787,255.041,397.01,254.264,396.051,254.264z"/>
<linearGradient id="SVGID_47_" gradientUnits="userSpaceOnUse" x1="120.7486" y1="269.603" x2="120.7486" y2="245.673" gradientTransform="matrix(1.0039 0 0 -1.0039 0.1922 516.5609)">
	<stop  offset="0" style="stop-color:#EFFBFF"/>
	<stop  offset="1" style="stop-color:#B2D5EC"/>
</linearGradient>
<circle style="fill:url(#SVGID_47_);" cx="121.414" cy="256" r="10.489"/>
<linearGradient id="SVGID_48_" gradientUnits="userSpaceOnUse" x1="120.7466" y1="255.523" x2="120.7466" y2="265.013" gradientTransform="matrix(1.0039 0 0 -1.0039 0.1922 516.5609)">
	<stop  offset="0" style="stop-color:#EFFBFF"/>
	<stop  offset="1" style="stop-color:#B2D5EC"/>
</linearGradient>
<path style="fill:url(#SVGID_48_);" d="M126.877,254.264h-3.729v-3.729c0-0.959-0.777-1.736-1.736-1.736l0,0
	c-0.959,0-1.736,0.777-1.736,1.736v3.729h-3.729c-0.959,0-1.736,0.777-1.736,1.736c0,0.959,0.777,1.736,1.736,1.736h3.729v3.729
	c0,0.959,0.777,1.736,1.736,1.736l0,0c0.959,0,1.736-0.777,1.736-1.736v-3.729h3.729c0.959,0,1.736-0.777,1.736-1.736
	C128.612,255.041,127.834,254.264,126.877,254.264z"/>
<linearGradient id="SVGID_49_" gradientUnits="userSpaceOnUse" x1="349.6086" y1="364.403" x2="349.6086" y2="340.473" gradientTransform="matrix(1.0039 0 0 -1.0039 0.1922 516.5609)">
	<stop  offset="0" style="stop-color:#EFFBFF"/>
	<stop  offset="1" style="stop-color:#B2D5EC"/>
</linearGradient>
<circle style="fill:url(#SVGID_49_);" cx="351.172" cy="160.828" r="10.489"/>
<linearGradient id="SVGID_50_" gradientUnits="userSpaceOnUse" x1="349.6036" y1="350.313" x2="349.6036" y2="359.803" gradientTransform="matrix(1.0039 0 0 -1.0039 0.1922 516.5609)">
	<stop  offset="0" style="stop-color:#EFFBFF"/>
	<stop  offset="1" style="stop-color:#B2D5EC"/>
</linearGradient>
<path style="fill:url(#SVGID_50_);" d="M356.631,159.096h-3.729v-3.729c0-0.959-0.777-1.736-1.736-1.736l0,0
	c-0.959,0-1.736,0.777-1.736,1.736v3.729h-3.729c-0.959,0-1.736,0.777-1.736,1.736c0,0.959,0.777,1.736,1.736,1.736h3.729v3.729
	c0,0.959,0.777,1.736,1.736,1.736l0,0c0.959,0,1.736-0.777,1.736-1.736v-3.729h3.729c0.959,0,1.736-0.777,1.736-1.736
	C358.367,159.874,357.59,159.096,356.631,159.096z"/>
<linearGradient id="SVGID_51_" gradientUnits="userSpaceOnUse" x1="160.0086" y1="174.813" x2="160.0086" y2="150.883" gradientTransform="matrix(1.0039 0 0 -1.0039 0.1922 516.5609)">
	<stop  offset="0" style="stop-color:#EFFBFF"/>
	<stop  offset="1" style="stop-color:#B2D5EC"/>
</linearGradient>
<circle style="fill:url(#SVGID_51_);" cx="160.828" cy="351.172" r="10.489"/>
<linearGradient id="SVGID_52_" gradientUnits="userSpaceOnUse" x1="160.0116" y1="160.723" x2="160.0116" y2="170.213" gradientTransform="matrix(1.0039 0 0 -1.0039 0.1922 516.5609)">
	<stop  offset="0" style="stop-color:#EFFBFF"/>
	<stop  offset="1" style="stop-color:#B2D5EC"/>
</linearGradient>
<path style="fill:url(#SVGID_52_);" d="M166.296,349.432h-3.729v-3.729c0-0.959-0.777-1.736-1.736-1.736l0,0
	c-0.959,0-1.736,0.777-1.736,1.736v3.729h-3.729c-0.959,0-1.736,0.777-1.736,1.736c0,0.959,0.777,1.736,1.736,1.736h3.729v3.729
	c0,0.959,0.777,1.736,1.736,1.736l0,0c0.959,0,1.736-0.777,1.736-1.736v-3.729h3.729c0.959,0,1.736-0.777,1.736-1.736
	C168.031,350.209,167.254,349.432,166.296,349.432z"/>
<linearGradient id="SVGID_53_" gradientUnits="userSpaceOnUse" x1="349.6086" y1="174.813" x2="349.6086" y2="150.883" gradientTransform="matrix(1.0039 0 0 -1.0039 0.1922 516.5609)">
	<stop  offset="0" style="stop-color:#EFFBFF"/>
	<stop  offset="1" style="stop-color:#B2D5EC"/>
</linearGradient>
<circle style="fill:url(#SVGID_53_);" cx="351.172" cy="351.172" r="10.489"/>
<linearGradient id="SVGID_54_" gradientUnits="userSpaceOnUse" x1="349.6036" y1="160.723" x2="349.6036" y2="170.213" gradientTransform="matrix(1.0039 0 0 -1.0039 0.1922 516.5609)">
	<stop  offset="0" style="stop-color:#EFFBFF"/>
	<stop  offset="1" style="stop-color:#B2D5EC"/>
</linearGradient>
<path style="fill:url(#SVGID_54_);" d="M356.631,349.432h-3.729v-3.729c0-0.959-0.777-1.736-1.736-1.736l0,0
	c-0.959,0-1.736,0.777-1.736,1.736v3.729h-3.729c-0.959,0-1.736,0.777-1.736,1.736c0,0.959,0.777,1.736,1.736,1.736h3.729v3.729
	c0,0.959,0.777,1.736,1.736,1.736l0,0c0.959,0,1.736-0.777,1.736-1.736v-3.729h3.729c0.959,0,1.736-0.777,1.736-1.736
	C358.367,350.209,357.59,349.432,356.631,349.432z"/>
<linearGradient id="SVGID_55_" gradientUnits="userSpaceOnUse" x1="160.0086" y1="364.403" x2="160.0086" y2="340.473" gradientTransform="matrix(1.0039 0 0 -1.0039 0.1922 516.5609)">
	<stop  offset="0" style="stop-color:#EFFBFF"/>
	<stop  offset="1" style="stop-color:#B2D5EC"/>
</linearGradient>
<circle style="fill:url(#SVGID_55_);" cx="160.828" cy="160.828" r="10.489"/>
<linearGradient id="SVGID_56_" gradientUnits="userSpaceOnUse" x1="160.0116" y1="350.313" x2="160.0116" y2="359.803" gradientTransform="matrix(1.0039 0 0 -1.0039 0.1922 516.5609)">
	<stop  offset="0" style="stop-color:#EFFBFF"/>
	<stop  offset="1" style="stop-color:#B2D5EC"/>
</linearGradient>
<path style="fill:url(#SVGID_56_);" d="M166.296,159.096h-3.729v-3.729c0-0.959-0.777-1.736-1.736-1.736l0,0
	c-0.959,0-1.736,0.777-1.736,1.736v3.729h-3.729c-0.959,0-1.736,0.777-1.736,1.736c0,0.959,0.777,1.736,1.736,1.736h3.729v3.729
	c0,0.959,0.777,1.736,1.736,1.736l0,0c0.959,0,1.736-0.777,1.736-1.736v-3.729h3.729c0.959,0,1.736-0.777,1.736-1.736
	C168.031,159.874,167.254,159.096,166.296,159.096z"/>
<g>
</g>
<g>
</g>
<g>
</g>
<g>
</g>
<g>
</g>
<g>
</g>
<g>
</g>
<g>
</g>
<g>
</g>
<g>
</g>
<g>
</g>
<g>
</g>
<g>
</g>
<g>
</g>
<g>
</g>
</svg>
