<?xml version="1.0" encoding="iso-8859-1"?>
<!-- Generator: Adobe Illustrator 19.0.0, SVG Export Plug-In . SVG Version: 6.00 Build 0)  -->
<svg version="1.1" id="Capa_1" xmlns="http://www.w3.org/2000/svg" xmlns:xlink="http://www.w3.org/1999/xlink" x="0px" y="0px"
	 viewBox="0 0 512 512" style="enable-background:new 0 0 512 512;" xml:space="preserve">
<linearGradient id="SVGID_1_" gradientUnits="userSpaceOnUse" x1="254.8134" y1="243.1426" x2="254.8134" y2="159.4026" gradientTransform="matrix(1.0039 0 0 -1.0039 0.1922 516.56)">
	<stop  offset="0" style="stop-color:#FEFFB3"/>
	<stop  offset="1" style="stop-color:#FFCD77"/>
</linearGradient>
<rect x="153.971" y="238.14" style="fill:url(#SVGID_1_);" width="204.067" height="132.237"/>
<linearGradient id="SVGID_2_" gradientUnits="userSpaceOnUse" x1="254.8034" y1="189.7626" x2="254.8034" y2="7.0926" gradientTransform="matrix(1.0039 0 0 -1.0039 0.1922 516.56)">
	<stop  offset="0" style="stop-color:#FEFFB3"/>
	<stop  offset="1" style="stop-color:#FFCD77"/>
</linearGradient>
<rect x="122.277" y="344.254" style="fill:url(#SVGID_2_);" width="267.435" height="117.248"/>
<linearGradient id="SVGID_3_" gradientUnits="userSpaceOnUse" x1="110.5084" y1="408.8077" x2="58.7484" y2="408.8077" gradientTransform="matrix(1.0039 0 0 -1.0039 0.1922 516.56)">
	<stop  offset="0.003" style="stop-color:#FFA981"/>
	<stop  offset="0.201" style="stop-color:#FFA17B"/>
	<stop  offset="0.505" style="stop-color:#FF8C6A"/>
	<stop  offset="0.874" style="stop-color:#FF6A50"/>
	<stop  offset="1" style="stop-color:#FF5C45"/>
</linearGradient>
<path style="fill:url(#SVGID_3_);" d="M108.813,111.866c2.454-1.593,2.703-5.091,0.498-7.014L82.413,81.376
	c-1.906-1.849-5.057-1.287-6.218,1.101c-2.227,4.58-3.644,12.563-4.401,23.15c-0.765,10.71-0.446,18.881,1.118,23.708
	c0.8,2.471,3.759,3.469,5.902,2.001L108.813,111.866z"/>
<linearGradient id="SVGID_4_" gradientUnits="userSpaceOnUse" x1="66.5536" y1="385.5303" x2="83.6836" y2="383.3303" gradientTransform="matrix(1.0039 0 0 -1.0039 0.1922 516.56)">
	<stop  offset="0" style="stop-color:#EFFBFF"/>
	<stop  offset="0.279" style="stop-color:#E3F3FB"/>
	<stop  offset="0.787" style="stop-color:#C2DFF1"/>
	<stop  offset="1" style="stop-color:#B2D5EC"/>
</linearGradient>
<path style="fill:url(#SVGID_4_);" d="M68.101,179.134c-0.726-37.366,3.523-82.6,5.053-97.465c0.283-2.755,2.76-4.739,5.512-4.424
	l0,0c2.709,0.309,4.665,2.731,4.385,5.442c-1.509,14.647-5.723,59.448-5.002,96.289c0.053,2.715-2.096,4.957-4.809,5.047l0,0
	C70.462,184.114,68.155,181.914,68.101,179.134z"/>
<linearGradient id="SVGID_5_" gradientUnits="userSpaceOnUse" x1="476.0184" y1="408.8077" x2="424.2584" y2="408.8077" gradientTransform="matrix(1.0039 0 0 -1.0039 0.1922 516.56)">
	<stop  offset="0" style="stop-color:#AFDC00"/>
	<stop  offset="0.193" style="stop-color:#ACD800"/>
	<stop  offset="0.384" style="stop-color:#A3CC00"/>
	<stop  offset="0.573" style="stop-color:#93B800"/>
	<stop  offset="0.761" style="stop-color:#7D9D00"/>
	<stop  offset="0.948" style="stop-color:#617900"/>
	<stop  offset="1" style="stop-color:#586E00"/>
</linearGradient>
<path style="fill:url(#SVGID_5_);" d="M475.752,111.866c2.454-1.593,2.703-5.091,0.498-7.014l-26.899-23.475
	c-1.906-1.849-5.058-1.287-6.218,1.101c-2.227,4.58-3.644,12.563-4.401,23.15c-0.765,10.71-0.446,18.881,1.118,23.708
	c0.8,2.471,3.759,3.469,5.902,2.001L475.752,111.866z"/>
<linearGradient id="SVGID_6_" gradientUnits="userSpaceOnUse" x1="432.0596" y1="385.5303" x2="449.1896" y2="383.3303" gradientTransform="matrix(1.0039 0 0 -1.0039 0.1922 516.56)">
	<stop  offset="0" style="stop-color:#EFFBFF"/>
	<stop  offset="0.279" style="stop-color:#E3F3FB"/>
	<stop  offset="0.787" style="stop-color:#C2DFF1"/>
	<stop  offset="1" style="stop-color:#B2D5EC"/>
</linearGradient>
<path style="fill:url(#SVGID_6_);" d="M435.04,179.134c-0.726-37.366,3.523-82.6,5.053-97.465c0.283-2.755,2.76-4.739,5.512-4.424
	l0,0c2.708,0.309,4.665,2.731,4.385,5.442c-1.509,14.647-5.723,59.448-5.002,96.289c0.053,2.715-2.096,4.957-4.809,5.047l0,0
	C437.401,184.114,435.094,181.914,435.04,179.134z"/>
<linearGradient id="SVGID_7_" gradientUnits="userSpaceOnUse" x1="292.7584" y1="485.7188" x2="240.9884" y2="485.7188" gradientTransform="matrix(1.0039 0 0 -1.0039 0.1922 516.56)">
	<stop  offset="0" style="stop-color:#00FFF4"/>
	<stop  offset="1" style="stop-color:#00DBFF"/>
</linearGradient>
<path style="fill:url(#SVGID_7_);" d="M291.772,34.653c2.454-1.592,2.703-5.091,0.498-7.014L265.371,4.164
	c-1.906-1.849-5.057-1.287-6.218,1.101c-2.227,4.58-3.644,12.563-4.401,23.15c-0.765,10.71-0.446,18.881,1.118,23.708
	c0.8,2.471,3.759,3.469,5.902,2.001L291.772,34.653z"/>
<linearGradient id="SVGID_8_" gradientUnits="userSpaceOnUse" x1="248.7786" y1="462.4442" x2="265.9086" y2="460.2442" gradientTransform="matrix(1.0039 0 0 -1.0039 0.1922 516.56)">
	<stop  offset="0" style="stop-color:#EFFBFF"/>
	<stop  offset="0.279" style="stop-color:#E3F3FB"/>
	<stop  offset="0.787" style="stop-color:#C2DFF1"/>
	<stop  offset="1" style="stop-color:#B2D5EC"/>
</linearGradient>
<path style="fill:url(#SVGID_8_);" d="M251.06,101.922c-0.726-37.366,3.523-82.6,5.053-97.465c0.283-2.755,2.76-4.739,5.512-4.424
	l0,0c2.709,0.309,4.665,2.731,4.385,5.441c-1.509,14.646-5.723,59.448-5.002,96.289c0.053,2.715-2.096,4.957-4.809,5.047l0,0
	C253.42,106.9,251.113,104.701,251.06,101.922z"/>
<linearGradient id="SVGID_9_" gradientUnits="userSpaceOnUse" x1="15.8454" y1="212.8034" x2="92.9644" y2="129.0634" gradientTransform="matrix(1.0039 0 0 -1.0039 0.1922 516.56)">
	<stop  offset="0" style="stop-color:#FEFFB3"/>
	<stop  offset="1" style="stop-color:#FFCD77"/>
</linearGradient>
<path style="fill:url(#SVGID_9_);" d="M125.121,461.507H30.369c-5.944,0-10.763-4.819-10.763-10.763V273.088h105.515
	L125.121,461.507L125.121,461.507z"/>
<linearGradient id="SVGID_10_" gradientUnits="userSpaceOnUse" x1="147.0366" y1="158.2708" x2="20.9366" y2="284.3708" gradientTransform="matrix(1.0039 0 0 -1.0039 0.1922 516.56)">
	<stop  offset="0" style="stop-color:#FEFFB3;stop-opacity:0"/>
	<stop  offset="1" style="stop-color:#FF9111"/>
</linearGradient>
<polygon style="fill:url(#SVGID_10_);" points="19.606,291.364 125.121,396.879 125.121,273.088 19.606,273.088 "/>
<linearGradient id="SVGID_11_" gradientUnits="userSpaceOnUse" x1="71.1323" y1="276.0802" x2="168.3653" y2="192.3402" gradientTransform="matrix(1.0039 0 0 -1.0039 0.1922 516.56)">
	<stop  offset="0" style="stop-color:#FEFFB3"/>
	<stop  offset="1" style="stop-color:#FFCD77"/>
</linearGradient>
<path style="fill:url(#SVGID_11_);" d="M23.453,292.534L23.453,292.534c-14.41-2.609-22.012-18.605-14.909-31.411
	c11.922-21.495,30.503-57.213,54.563-110.349c3.602-7.955,14.909-7.955,18.511,0c24.06,53.136,42.642,88.854,54.563,110.349
	c7.103,12.807-0.499,28.802-14.909,31.411l0,0C88.929,298.389,55.798,298.389,23.453,292.534z"/>
<linearGradient id="SVGID_12_" gradientUnits="userSpaceOnUse" x1="93.6667" y1="108.2409" x2="37.4827" y2="164.4109" gradientTransform="matrix(1.0039 0 0 -1.0039 0.1922 516.56)">
	<stop  offset="0" style="stop-color:#FEFFB3;stop-opacity:0"/>
	<stop  offset="1" style="stop-color:#FF9111"/>
</linearGradient>
<path style="fill:url(#SVGID_12_);" d="M87.907,421.572H56.82v-64.63c0-8.585,6.959-15.544,15.544-15.544l0,0
	c8.585,0,15.544,6.959,15.544,15.544V421.572z"/>
<linearGradient id="SVGID_13_" gradientUnits="userSpaceOnUse" x1="380.0546" y1="211.302" x2="457.1746" y2="127.562" gradientTransform="matrix(1.0039 0 0 -1.0039 0.1922 516.56)">
	<stop  offset="0" style="stop-color:#FEFFB3"/>
	<stop  offset="1" style="stop-color:#FFCD77"/>
</linearGradient>
<path style="fill:url(#SVGID_13_);" d="M481.63,461.507h-94.752V273.088h105.515v177.656
	C492.394,456.689,487.574,461.507,481.63,461.507z"/>
<linearGradient id="SVGID_14_" gradientUnits="userSpaceOnUse" x1="512.8762" y1="158.2703" x2="386.7762" y2="284.3703" gradientTransform="matrix(1.0039 0 0 -1.0039 0.1922 516.56)">
	<stop  offset="0" style="stop-color:#FEFFB3;stop-opacity:0"/>
	<stop  offset="1" style="stop-color:#FF9111"/>
</linearGradient>
<polygon style="fill:url(#SVGID_14_);" points="386.879,291.364 492.394,396.879 492.394,273.088 386.879,273.088 "/>
<linearGradient id="SVGID_15_" gradientUnits="userSpaceOnUse" x1="436.9737" y1="276.0774" x2="534.2037" y2="192.3374" gradientTransform="matrix(1.0039 0 0 -1.0039 0.1922 516.56)">
	<stop  offset="0" style="stop-color:#FEFFB3"/>
	<stop  offset="1" style="stop-color:#FFCD77"/>
</linearGradient>
<path style="fill:url(#SVGID_15_);" d="M390.727,292.534L390.727,292.534c-14.41-2.609-22.012-18.604-14.909-31.411
	c11.922-21.495,30.503-57.213,54.563-110.349c3.602-7.955,14.909-7.955,18.511,0c24.06,53.136,42.642,88.854,54.563,110.349
	c7.103,12.807-0.499,28.802-14.909,31.411l0,0C456.202,298.389,423.07,298.389,390.727,292.534z"/>
<linearGradient id="SVGID_16_" gradientUnits="userSpaceOnUse" x1="459.4998" y1="108.244" x2="403.3199" y2="164.414" gradientTransform="matrix(1.0039 0 0 -1.0039 0.1922 516.56)">
	<stop  offset="0" style="stop-color:#FEFFB3;stop-opacity:0"/>
	<stop  offset="1" style="stop-color:#FF9111"/>
</linearGradient>
<path style="fill:url(#SVGID_16_);" d="M455.181,421.572h-31.088v-64.63c0-8.585,6.959-15.544,15.544-15.544l0,0
	c8.585,0,15.544,6.959,15.544,15.544v64.63H455.181z"/>
<g>
	
		<linearGradient id="SVGID_17_" gradientUnits="userSpaceOnUse" x1="152.7784" y1="201.5726" x2="152.7784" y2="160.9626" gradientTransform="matrix(1.0039 0 0 -1.0039 0.1922 516.56)">
		<stop  offset="0" style="stop-color:#FEFFB3"/>
		<stop  offset="1" style="stop-color:#FFCD77"/>
	</linearGradient>
	<path style="fill:url(#SVGID_17_);" d="M166.603,344.313h-26.066v-17.949c0-4.483,3.634-8.117,8.117-8.117h9.832
		c4.483,0,8.117,3.634,8.117,8.117L166.603,344.313L166.603,344.313z"/>
	
		<linearGradient id="SVGID_18_" gradientUnits="userSpaceOnUse" x1="203.7934" y1="201.5726" x2="203.7934" y2="160.9626" gradientTransform="matrix(1.0039 0 0 -1.0039 0.1922 516.56)">
		<stop  offset="0" style="stop-color:#FEFFB3"/>
		<stop  offset="1" style="stop-color:#FFCD77"/>
	</linearGradient>
	<path style="fill:url(#SVGID_18_);" d="M217.818,344.313h-26.066v-17.949c0-4.483,3.634-8.117,8.117-8.117h9.832
		c4.482,0,8.117,3.634,8.117,8.117L217.818,344.313L217.818,344.313z"/>
	
		<linearGradient id="SVGID_19_" gradientUnits="userSpaceOnUse" x1="254.8084" y1="201.5726" x2="254.8084" y2="160.9626" gradientTransform="matrix(1.0039 0 0 -1.0039 0.1922 516.56)">
		<stop  offset="0" style="stop-color:#FEFFB3"/>
		<stop  offset="1" style="stop-color:#FFCD77"/>
	</linearGradient>
	<path style="fill:url(#SVGID_19_);" d="M269.033,344.313h-26.066v-17.949c0-4.483,3.634-8.117,8.117-8.117h9.832
		c4.483,0,8.117,3.634,8.117,8.117V344.313z"/>
	
		<linearGradient id="SVGID_20_" gradientUnits="userSpaceOnUse" x1="305.8234" y1="201.5726" x2="305.8234" y2="160.9626" gradientTransform="matrix(1.0039 0 0 -1.0039 0.1922 516.56)">
		<stop  offset="0" style="stop-color:#FEFFB3"/>
		<stop  offset="1" style="stop-color:#FFCD77"/>
	</linearGradient>
	<path style="fill:url(#SVGID_20_);" d="M320.248,344.313h-26.066v-17.949c0-4.483,3.634-8.117,8.117-8.117h9.832
		c4.483,0,8.117,3.634,8.117,8.117V344.313z"/>
	
		<linearGradient id="SVGID_21_" gradientUnits="userSpaceOnUse" x1="356.8384" y1="201.5726" x2="356.8384" y2="160.9626" gradientTransform="matrix(1.0039 0 0 -1.0039 0.1922 516.56)">
		<stop  offset="0" style="stop-color:#FEFFB3"/>
		<stop  offset="1" style="stop-color:#FFCD77"/>
	</linearGradient>
	<path style="fill:url(#SVGID_21_);" d="M371.463,344.313h-26.066v-17.949c0-4.483,3.634-8.117,8.117-8.117h9.832
		c4.482,0,8.117,3.634,8.117,8.117V344.313z"/>
</g>
<linearGradient id="SVGID_22_" gradientUnits="userSpaceOnUse" x1="278.948" y1="65.0122" x2="216.668" y2="127.2922" gradientTransform="matrix(1.0039 0 0 -1.0039 0.1922 516.56)">
	<stop  offset="0" style="stop-color:#FEFFB3;stop-opacity:0"/>
	<stop  offset="1" style="stop-color:#FF9111"/>
</linearGradient>
<path style="fill:url(#SVGID_22_);" d="M278.184,461.507h-44.368v-59.706c0-12.252,9.932-22.185,22.185-22.185l0,0
	c12.252,0,22.185,9.932,22.185,22.185L278.184,461.507L278.184,461.507z"/>
<linearGradient id="SVGID_23_" gradientUnits="userSpaceOnUse" x1="298.9774" y1="218.2328" x2="19.8374" y2="343.9829" gradientTransform="matrix(1.0039 0 0 -1.0039 0.1922 516.56)">
	<stop  offset="0" style="stop-color:#FEFFB3;stop-opacity:0"/>
	<stop  offset="1" style="stop-color:#FF9111"/>
</linearGradient>
<polygon style="fill:url(#SVGID_23_);" points="153.968,251.581 272.754,370.368 358.031,370.368 358.031,238.135 153.968,238.135 
	"/>
<linearGradient id="SVGID_24_" gradientUnits="userSpaceOnUse" x1="244.237" y1="330.1478" x2="418.837" y2="246.4078" gradientTransform="matrix(1.0039 0 0 -1.0039 0.1922 516.56)">
	<stop  offset="0" style="stop-color:#FEFFB3"/>
	<stop  offset="1" style="stop-color:#FFCD77"/>
</linearGradient>
<path style="fill:url(#SVGID_24_);" d="M272.207,89.634c-8.125-10.754-24.282-10.747-32.398,0.013L140.769,220.96
	c-7.87,9.369-4.256,23.661,7.102,28.213c21.777,8.727,58.927,12.621,107.826,12.621c49.463,0,86.905-4.15,108.574-12.923
	c11.09-4.49,14.703-18.412,7.258-27.778L272.207,89.634z"/>
<linearGradient id="SVGID_25_" gradientUnits="userSpaceOnUse" x1="208.9357" y1="207.9099" x2="175.9157" y2="240.9299" gradientTransform="matrix(1.0039 0 0 -1.0039 0.1922 516.56)">
	<stop  offset="0" style="stop-color:#FEFFB3;stop-opacity:0"/>
	<stop  offset="1" style="stop-color:#FF9111"/>
</linearGradient>
<path style="fill:url(#SVGID_25_);" d="M212.641,309.461h-31.088v-22.516c0-8.585,6.959-15.544,15.544-15.544l0,0
	c8.585,0,15.544,6.959,15.544,15.544L212.641,309.461L212.641,309.461z"/>
<linearGradient id="SVGID_26_" gradientUnits="userSpaceOnUse" x1="267.6067" y1="207.9109" x2="234.5867" y2="240.9309" gradientTransform="matrix(1.0039 0 0 -1.0039 0.1922 516.56)">
	<stop  offset="0" style="stop-color:#FEFFB3;stop-opacity:0"/>
	<stop  offset="1" style="stop-color:#FF9111"/>
</linearGradient>
<path style="fill:url(#SVGID_26_);" d="M271.544,309.461h-31.088v-22.516c0-8.585,6.959-15.544,15.544-15.544l0,0
	c8.585,0,15.544,6.959,15.544,15.544v22.516H271.544z"/>
<linearGradient id="SVGID_27_" gradientUnits="userSpaceOnUse" x1="326.2782" y1="207.9124" x2="293.2582" y2="240.9324" gradientTransform="matrix(1.0039 0 0 -1.0039 0.1922 516.56)">
	<stop  offset="0" style="stop-color:#FEFFB3;stop-opacity:0"/>
	<stop  offset="1" style="stop-color:#FF9111"/>
</linearGradient>
<path style="fill:url(#SVGID_27_);" d="M330.447,309.461h-31.088v-22.516c0-8.585,6.959-15.544,15.544-15.544l0,0
	c8.585,0,15.544,6.959,15.544,15.544v22.516H330.447z"/>
<linearGradient id="SVGID_28_" gradientUnits="userSpaceOnUse" x1="60.5558" y1="134.6708" x2="152.4258" y2="50.9308" gradientTransform="matrix(1.0039 0 0 -1.0039 0.1922 516.56)">
	<stop  offset="0" style="stop-color:#FEFFB3"/>
	<stop  offset="1" style="stop-color:#FFCD77"/>
</linearGradient>
<path style="fill:url(#SVGID_28_);" d="M66.833,512l82.87-126.312c12.285-18.725,39.735-18.725,52.02,0l74.679,113.828
	c3.518,5.362-0.328,12.485-6.741,12.485H66.833z"/>
<linearGradient id="SVGID_29_" gradientUnits="userSpaceOnUse" x1="169.0683" y1="13.3924" x2="78.9683" y2="56.5424" gradientTransform="matrix(1.0039 0 0 -1.0039 0.1922 516.56)">
	<stop  offset="0" style="stop-color:#FF9111;stop-opacity:0"/>
	<stop  offset="1" style="stop-color:#F26500"/>
</linearGradient>
<polygon style="fill:url(#SVGID_29_);" points="213.653,512 124.997,423.343 124.997,423.343 66.833,512 "/>
<linearGradient id="SVGID_30_" gradientUnits="userSpaceOnUse" x1="-9.5303" y1="157.8405" x2="58.0697" y2="74.1004" gradientTransform="matrix(1.0039 0 0 -1.0039 0.1922 516.56)">
	<stop  offset="0" style="stop-color:#FEFFB3"/>
	<stop  offset="1" style="stop-color:#FFCD77"/>
</linearGradient>
<path style="fill:url(#SVGID_30_);" d="M29.315,499.515l53.474-81.505c9.142-13.933,29.567-13.933,38.709,0L183.161,512H36.056
	C29.644,512,25.798,504.876,29.315,499.515z"/>
<g>
</g>
<g>
</g>
<g>
</g>
<g>
</g>
<g>
</g>
<g>
</g>
<g>
</g>
<g>
</g>
<g>
</g>
<g>
</g>
<g>
</g>
<g>
</g>
<g>
</g>
<g>
</g>
<g>
</g>
</svg>
