<?xml version="1.0" encoding="iso-8859-1"?>
<!-- Generator: Adobe Illustrator 19.0.0, SVG Export Plug-In . SVG Version: 6.00 Build 0)  -->
<svg version="1.1" id="Capa_1" xmlns="http://www.w3.org/2000/svg" xmlns:xlink="http://www.w3.org/1999/xlink" x="0px" y="0px"
	 viewBox="0 0 512 512" style="enable-background:new 0 0 512 512;" xml:space="preserve">
<linearGradient id="SVGID_1_" gradientUnits="userSpaceOnUse" x1="206.3385" y1="145.4335" x2="368.1784" y2="145.4335" gradientTransform="matrix(1.0039 0 0 -1.0039 0.1922 516.5609)">
	<stop  offset="0" style="stop-color:#FEFFB3"/>
	<stop  offset="1" style="stop-color:#FFCD77"/>
</linearGradient>
<path style="fill:url(#SVGID_1_);" d="M192.852,234.784l-47.563,8.611c0,0,35.979,123.835,97.752,260.255
	c5.042,11.135,20.875,11.135,25.917,0c61.773-136.421,97.752-260.255,97.752-260.255l-47.563-8.611
	C277.388,227.224,234.611,227.224,192.852,234.784z"/>
<linearGradient id="SVGID_2_" gradientUnits="userSpaceOnUse" x1="290.5282" y1="186.6935" x2="175.4982" y2="136.3135" gradientTransform="matrix(1.0039 0 0 -1.0039 0.1922 516.5609)">
	<stop  offset="0" style="stop-color:#FEFFB3;stop-opacity:0"/>
	<stop  offset="1" style="stop-color:#FF9111"/>
</linearGradient>
<path style="fill:url(#SVGID_2_);" d="M366.71,243.394c0,0-11.682,40.219-33.175,100.059c-7.196,20.071-15.509,42.337-24.843,66.045
	c-7.731,19.632-16.167,40.247-25.273,61.406c-1.269-1.203-2.357-2.701-3.159-4.477c-43.74-96.613-74.557-186.909-88.816-231.385
	l1.413-0.258c15.318-2.777,30.779-4.534,46.27-5.269c16.874-0.801,33.795-0.401,50.622,1.212c9.839,0.936,19.642,2.29,29.396,4.056
	L366.71,243.394z"/>
<linearGradient id="SVGID_3_" gradientUnits="userSpaceOnUse" x1="321.8181" y1="216.004" x2="225.798" y2="177.494" gradientTransform="matrix(1.0039 0 0 -1.0039 0.1922 516.5609)">
	<stop  offset="0" style="stop-color:#FEFFB3;stop-opacity:0"/>
	<stop  offset="1" style="stop-color:#FF9111"/>
</linearGradient>
<path style="fill:url(#SVGID_3_);" d="M366.71,243.394c0,0-11.682,40.219-33.175,100.059c-7.196,20.071-15.509,42.337-24.843,66.045
	c-30.732-70.014-54.401-135.181-69.566-179.981c16.874-0.801,33.795-0.401,50.622,1.212c9.839,0.936,19.642,2.29,29.396,4.056
	L366.71,243.394z"/>
<linearGradient id="SVGID_4_" gradientUnits="userSpaceOnUse" x1="335.9489" y1="240.4621" x2="285.5689" y2="217.1721" gradientTransform="matrix(1.0039 0 0 -1.0039 0.1922 516.5609)">
	<stop  offset="0" style="stop-color:#FEFFB3;stop-opacity:0"/>
	<stop  offset="1" style="stop-color:#FF9111"/>
</linearGradient>
<path style="fill:url(#SVGID_4_);" d="M366.71,243.394c0,0-11.682,40.219-33.175,100.059
	c-17.351-41.259-32.048-79.969-43.788-112.724c9.839,0.936,19.642,2.29,29.396,4.056L366.71,243.394z"/>
<linearGradient id="SVGID_5_" gradientUnits="userSpaceOnUse" x1="219.0887" y1="186.6935" x2="334.1187" y2="136.3135" gradientTransform="matrix(1.0039 0 0 -1.0039 0.1922 516.5609)">
	<stop  offset="0" style="stop-color:#FEFFB3;stop-opacity:0"/>
	<stop  offset="1" style="stop-color:#FF9111"/>
</linearGradient>
<path style="fill:url(#SVGID_5_);" d="M145.289,243.394c0,0,11.682,40.219,33.175,100.059c7.196,20.071,15.509,42.337,24.843,66.045
	c7.731,19.632,16.167,40.247,25.273,61.406c1.269-1.203,2.357-2.701,3.159-4.477c43.74-96.613,74.557-186.909,88.816-231.385
	l-1.413-0.258c-15.318-2.777-30.779-4.534-46.269-5.269c-16.874-0.801-33.795-0.401-50.622,1.212
	c-9.839,0.936-19.642,2.29-29.396,4.056L145.289,243.394z"/>
<linearGradient id="SVGID_6_" gradientUnits="userSpaceOnUse" x1="187.799" y1="216.0042" x2="283.819" y2="177.4942" gradientTransform="matrix(1.0039 0 0 -1.0039 0.1922 516.5609)">
	<stop  offset="0" style="stop-color:#FEFFB3;stop-opacity:0"/>
	<stop  offset="1" style="stop-color:#FF9111"/>
</linearGradient>
<path style="fill:url(#SVGID_6_);" d="M145.289,243.394c0,0,11.682,40.219,33.175,100.059c7.196,20.071,15.509,42.337,24.843,66.045
	c30.732-70.014,54.4-135.181,69.567-179.981c-16.874-0.801-33.795-0.401-50.622,1.212c-9.839,0.936-19.642,2.29-29.396,4.056
	L145.289,243.394z"/>
<linearGradient id="SVGID_7_" gradientUnits="userSpaceOnUse" x1="173.668" y1="240.4621" x2="224.048" y2="217.1721" gradientTransform="matrix(1.0039 0 0 -1.0039 0.1922 516.5609)">
	<stop  offset="0" style="stop-color:#FEFFB3;stop-opacity:0"/>
	<stop  offset="1" style="stop-color:#FF9111"/>
</linearGradient>
<path style="fill:url(#SVGID_7_);" d="M145.289,243.394c0,0,11.682,40.219,33.175,100.059
	c17.351-41.259,32.049-79.969,43.788-112.724c-9.839,0.936-19.642,2.29-29.396,4.056L145.289,243.394z"/>
<linearGradient id="SVGID_8_" gradientUnits="userSpaceOnUse" x1="264.7595" y1="152.2231" x2="251.4495" y2="312.5731" gradientTransform="matrix(1.0039 0 0 -1.0039 0.1922 516.5609)">
	<stop  offset="0" style="stop-color:#FEFFB3;stop-opacity:0"/>
	<stop  offset="1" style="stop-color:#FF9111"/>
</linearGradient>
<path style="fill:url(#SVGID_8_);" d="M366.71,243.394l-47.563-8.611c-41.759-7.56-84.535-7.56-126.294,0l-47.563,8.611
	L309.457,407.56C346.157,314.126,366.71,243.394,366.71,243.394z"/>
<radialGradient id="SVGID_9_" cx="162.0385" cy="384.163" r="190.57" gradientTransform="matrix(1.0039 0 0 -1.0039 0.1922 516.5609)" gradientUnits="userSpaceOnUse">
	<stop  offset="0.003" style="stop-color:#FFE000"/>
	<stop  offset="0.142" style="stop-color:#DCDE00"/>
	<stop  offset="0.274" style="stop-color:#C3DD00"/>
	<stop  offset="0.393" style="stop-color:#B4DC00"/>
	<stop  offset="0.491" style="stop-color:#AFDC00"/>
	<stop  offset="0.575" style="stop-color:#A6D100"/>
	<stop  offset="0.721" style="stop-color:#90B400"/>
	<stop  offset="0.912" style="stop-color:#6B8600"/>
	<stop  offset="1" style="stop-color:#586E00"/>
</radialGradient>
<path style="fill:url(#SVGID_9_);" d="M275.325,181.57c0-44.516-36.611-80.48-81.366-79.427
	c-42.147,0.992-76.52,35.365-77.512,77.512c-1.053,44.755,34.911,81.366,79.427,81.366c6.613,0,13.034-0.814,19.173-2.342
	c6.573-1.635,12.956,3.227,12.956,10v7.325c0,5.71,4.629,10.339,10.339,10.339l0,0c5.71,0,10.339-4.629,10.339-10.339v-8.471
	c0-14.477,4.152-28.742,12.428-40.62C270.069,214.056,275.325,198.429,275.325,181.57z"/>
<radialGradient id="SVGID_10_" cx="251.7085" cy="447.403" r="219.17" gradientTransform="matrix(1.0039 0 0 -1.0039 0.1922 516.5609)" gradientUnits="userSpaceOnUse">
	<stop  offset="0.003" style="stop-color:#FFA981"/>
	<stop  offset="0.453" style="stop-color:#FFA77F"/>
	<stop  offset="0.628" style="stop-color:#FFA07A"/>
	<stop  offset="0.756" style="stop-color:#FF9471"/>
	<stop  offset="0.86" style="stop-color:#FF8363"/>
	<stop  offset="0.949" style="stop-color:#FF6D52"/>
	<stop  offset="1" style="stop-color:#FF5C45"/>
</radialGradient>
<path style="fill:url(#SVGID_10_);" d="M314.865,102.13c-43.508,0.674-78.191,35.928-78.19,79.441
	c0,19.665,7.16,37.647,18.995,51.52l-0.305-0.196c0,0,4.453,8.271,4.453,23.86v33.592c0,4.491,3.388,8.411,7.87,8.701
	c4.91,0.318,8.992-3.571,8.992-8.412v-34.375c0-2.567,2.684-4.218,4.997-3.104c0.023,0.011,0.047,0.023,0.071,0.034
	c1.189,0.571,1.932,1.786,1.932,3.104v20.053c0,4.491,3.388,8.411,7.87,8.701c4.91,0.318,8.992-3.57,8.992-8.412v-0.414
	c0-8.484,6.941-15.221,15.425-15.205c0.053,0,0.106,0,0.16,0c43.878,0,79.449-35.571,79.449-79.449
	C395.574,137.272,359.32,101.442,314.865,102.13z"/>
<linearGradient id="SVGID_11_" gradientUnits="userSpaceOnUse" x1="354.6308" y1="323.4353" x2="215.3408" y2="462.7253" gradientTransform="matrix(1.0039 0 0 -1.0039 0.1922 516.5609)">
	<stop  offset="0" style="stop-color:#FFA981;stop-opacity:0"/>
	<stop  offset="1" style="stop-color:#B82934"/>
</linearGradient>
<path style="fill:url(#SVGID_11_);" d="M395.574,181.57c0-44.298-36.254-80.128-80.709-79.44
	c-35.364,0.547-64.898,23.943-74.714,56.049l0.101,0.273l99.107,99.107C371.901,247.621,395.574,217.364,395.574,181.57z"/>
<radialGradient id="SVGID_12_" cx="206.2585" cy="529.417" r="171.61" gradientTransform="matrix(1.0039 0 0 -1.0039 0.1922 516.5609)" gradientUnits="userSpaceOnUse">
	<stop  offset="0.003" style="stop-color:#FEFFB3"/>
	<stop  offset="0.5" style="stop-color:#FEFDB1"/>
	<stop  offset="0.679" style="stop-color:#FEF8AA"/>
	<stop  offset="0.806" style="stop-color:#FEEE9F"/>
	<stop  offset="0.909" style="stop-color:#FFE08E"/>
	<stop  offset="0.996" style="stop-color:#FFCE78"/>
	<stop  offset="1" style="stop-color:#FFCD77"/>
</radialGradient>
<path style="fill:url(#SVGID_12_);" d="M240.252,158.453c0,0,26.246-38.653,83.032-56.071c0.073-0.022,0.139-0.032,0.212-0.052
	c2.176-7.247,3.36-14.923,3.36-22.879c0-43.879-35.571-79.45-79.449-79.45s-79.449,35.571-79.449,79.449
	c0,9.128,1.559,17.886,4.391,26.049C174.579,105.839,217.253,112.917,240.252,158.453z"/>
<radialGradient id="SVGID_13_" cx="220.1085" cy="517.373" r="139.82" gradientTransform="matrix(1.0039 0 0 -1.0039 0.1922 516.5609)" gradientUnits="userSpaceOnUse">
	<stop  offset="0.003" style="stop-color:#FEFFB3;stop-opacity:0"/>
	<stop  offset="0.272" style="stop-color:#FEFCAF;stop-opacity:0.27"/>
	<stop  offset="0.521" style="stop-color:#FEF3A4;stop-opacity:0.52"/>
	<stop  offset="0.762" style="stop-color:#FFE391;stop-opacity:0.761"/>
	<stop  offset="0.997" style="stop-color:#FFCD77;stop-opacity:0.997"/>
	<stop  offset="1" style="stop-color:#FFCD77"/>
</radialGradient>
<path style="fill:url(#SVGID_13_);" d="M247.407,0c-35.346,0-65.286,23.089-75.599,55.002
	c14.531,15.946,35.466,25.954,58.738,25.954c0.053,0,0.106,0,0.16,0c8.484-0.017,15.425,6.72,15.425,15.205v0.414
	c0,4.842,4.082,8.73,8.992,8.412c4.48-0.29,7.87-4.21,7.87-8.701V76.234c0-1.318,0.743-2.533,1.932-3.104
	c0.023-0.011,0.047-0.023,0.071-0.034c2.313-1.115,4.996,0.536,4.996,3.104v34.375c0,4.842,4.082,8.73,8.992,8.412
	c4.482-0.29,7.87-4.21,7.87-8.701V76.693c0-15.589,4.453-23.86,4.453-23.86l-0.305,0.196c6.699-7.853,11.896-17.024,15.148-27.07
	C291.619,10.01,270.683,0,247.407,0z"/>
<g>
</g>
<g>
</g>
<g>
</g>
<g>
</g>
<g>
</g>
<g>
</g>
<g>
</g>
<g>
</g>
<g>
</g>
<g>
</g>
<g>
</g>
<g>
</g>
<g>
</g>
<g>
</g>
<g>
</g>
</svg>
