<?xml version="1.0" encoding="iso-8859-1"?>
<!-- Generator: Adobe Illustrator 19.0.0, SVG Export Plug-In . SVG Version: 6.00 Build 0)  -->
<svg version="1.1" id="Capa_1" xmlns="http://www.w3.org/2000/svg" xmlns:xlink="http://www.w3.org/1999/xlink" x="0px" y="0px"
	 viewBox="0 0 512 512" style="enable-background:new 0 0 512 512;" xml:space="preserve">
<linearGradient id="SVGID_1_" gradientUnits="userSpaceOnUse" x1="304.3586" y1="236.2728" x2="64.2286" y2="236.2728" gradientTransform="matrix(1.0039 0 0 -1.0039 0.1922 516.5609)">
	<stop  offset="0" style="stop-color:#EFFBFF"/>
	<stop  offset="0.556" style="stop-color:#CBE4F4"/>
	<stop  offset="1" style="stop-color:#B2D5EC"/>
</linearGradient>
<path style="fill:url(#SVGID_1_);" d="M256.043,512c-61.135,0.023-111.802-49.053-113.633-110.159
	c-1.165-38.863,17.224-74.784,48.329-96.545c5.593-3.912,8.971-10.265,8.971-17.09V103.867c0-30.89,24.53-56.666,55.415-57.137
	c31.437-0.479,57.162,24.953,57.162,56.283v185.186c0,6.732,3.227,13.096,8.752,16.943c30.305,21.096,48.6,55.607,48.6,93.216
	C369.641,461.007,318.686,511.977,256.043,512z"/>
<linearGradient id="SVGID_2_" gradientUnits="userSpaceOnUse" x1="219.8286" y1="236.2732" x2="502.3286" y2="236.2732" gradientTransform="matrix(1.0039 0 0 -1.0039 0.1922 516.5609)">
	<stop  offset="0" style="stop-color:#EFFBFF"/>
	<stop  offset="0.556" style="stop-color:#CBE4F4"/>
	<stop  offset="1" style="stop-color:#B2D5EC"/>
</linearGradient>
<path style="fill:url(#SVGID_2_);" d="M315.176,310.6c-6.718-4.539-10.69-12.166-10.69-20.274V103.012
	c0-26.779-21.708-48.486-48.486-48.486l0,0c-26.779,0-48.486,21.708-48.486,48.486v187.349c0,8.218-4.173,15.807-10.968,20.428
	c-27.995,19.043-46.383,51.157-46.383,87.568c0,58.209,46.436,105.19,104.643,105.832c59,0.652,107.033-46.98,107.033-105.831
	C361.838,361.826,343.328,329.621,315.176,310.6z"/>
<radialGradient id="SVGID_3_" cx="238.5286" cy="170.923" r="177.3" gradientTransform="matrix(1.0039 0 0 -1.0039 0.1922 516.5609)" gradientUnits="userSpaceOnUse">
	<stop  offset="0" style="stop-color:#FFFFFF;stop-opacity:0"/>
	<stop  offset="0.9" style="stop-color:#FFFFFF;stop-opacity:0.9"/>
	<stop  offset="1" style="stop-color:#FFFFFF"/>
</radialGradient>
<circle style="fill:url(#SVGID_3_);" cx="256" cy="398.095" r="110.17"/>
<linearGradient id="SVGID_4_" gradientUnits="userSpaceOnUse" x1="254.8078" y1="334.433" x2="254.8078" y2="18.993" gradientTransform="matrix(1.0039 0 0 -1.0039 0.1922 516.5609)">
	<stop  offset="0" style="stop-color:#FFA981"/>
	<stop  offset="0.639" style="stop-color:#FF7558"/>
	<stop  offset="1" style="stop-color:#FF5C45"/>
</linearGradient>
<path style="fill:url(#SVGID_4_);" d="M284.695,299.354v-173.3c0,0-10.485,5.998-23.321,2.01c-2.536-0.78-5.16-1.961-7.813-3.648
	c-16.094-10.241-26.257,6.594-26.257,6.594v168.343c0,12.278-6.268,23.639-16.516,30.405
	c-21.893,14.456-36.459,39.103-36.933,67.195c-0.755,44.871,35.25,82.46,80.114,83.541c46.302,1.116,84.184-36.082,84.184-82.131
	c0-28.778-14.79-54.086-37.18-68.761C290.79,322.926,284.695,311.532,284.695,299.354z"/>
<radialGradient id="SVGID_5_" cx="242.6486" cy="157.533" r="132.45" gradientTransform="matrix(1.0039 0 0 -1.0039 0.1922 516.5609)" gradientUnits="userSpaceOnUse">
	<stop  offset="0" style="stop-color:#FF5C45;stop-opacity:0"/>
	<stop  offset="0.284" style="stop-color:#FC5A44;stop-opacity:0.284"/>
	<stop  offset="0.503" style="stop-color:#F25342;stop-opacity:0.503"/>
	<stop  offset="0.701" style="stop-color:#E2473E;stop-opacity:0.701"/>
	<stop  offset="0.885" style="stop-color:#CB3638;stop-opacity:0.885"/>
	<stop  offset="1" style="stop-color:#B82934"/>
</radialGradient>
<circle style="fill:url(#SVGID_5_);" cx="256" cy="398.095" r="82.302"/>
<g>
	<path style="fill:#FFFFFF;" d="M294.481,99.07H252.54c-2.154,0-3.901-1.747-3.901-3.901c0-2.154,1.747-3.901,3.901-3.901h41.941
		c2.154,0,3.901,1.747,3.901,3.901C298.383,97.322,296.636,99.07,294.481,99.07z"/>
	<path style="fill:#FFFFFF;" d="M294.481,123.249h-24.384c-2.154,0-3.901-1.747-3.901-3.901s1.747-3.901,3.901-3.901h24.384
		c2.154,0,3.901,1.747,3.901,3.901C298.383,121.503,296.636,123.249,294.481,123.249z"/>
	<path style="fill:#FFFFFF;" d="M294.481,147.431h-24.384c-2.154,0-3.901-1.747-3.901-3.901c0-2.154,1.747-3.901,3.901-3.901h24.384
		c2.154,0,3.901,1.747,3.901,3.901C298.383,145.684,296.636,147.431,294.481,147.431z"/>
	<path style="fill:#FFFFFF;" d="M294.481,171.612h-24.384c-2.154,0-3.901-1.747-3.901-3.901c0-2.154,1.747-3.901,3.901-3.901h24.384
		c2.154,0,3.901,1.747,3.901,3.901C298.383,169.866,296.636,171.612,294.481,171.612z"/>
	<path style="fill:#FFFFFF;" d="M294.481,195.793H252.54c-2.154,0-3.901-1.747-3.901-3.901s1.747-3.901,3.901-3.901h41.941
		c2.154,0,3.901,1.747,3.901,3.901C298.383,194.046,296.636,195.793,294.481,195.793z"/>
	<path style="fill:#FFFFFF;" d="M294.481,219.973h-24.384c-2.154,0-3.901-1.747-3.901-3.901c0-2.154,1.747-3.901,3.901-3.901h24.384
		c2.154,0,3.901,1.747,3.901,3.901C298.383,218.226,296.636,219.973,294.481,219.973z"/>
	<path style="fill:#FFFFFF;" d="M294.481,244.155h-24.384c-2.154,0-3.901-1.747-3.901-3.901c0-2.154,1.747-3.901,3.901-3.901h24.384
		c2.154,0,3.901,1.747,3.901,3.901C298.383,242.408,296.636,244.155,294.481,244.155z"/>
	<path style="fill:#FFFFFF;" d="M294.481,268.335h-24.384c-2.154,0-3.901-1.747-3.901-3.901s1.747-3.901,3.901-3.901h24.384
		c2.154,0,3.901,1.747,3.901,3.901C298.383,266.588,296.636,268.335,294.481,268.335z"/>
	<path style="fill:#FFFFFF;" d="M294.481,292.517H252.54c-2.154,0-3.901-1.747-3.901-3.901c0-2.154,1.747-3.901,3.901-3.901h41.941
		c2.154,0,3.901,1.747,3.901,3.901C298.383,290.77,296.636,292.517,294.481,292.517z"/>
</g>
<g>
	<path style="fill:#FFA981;" d="M304.014,38.993l10.204-22.147c0.902-1.957,3.22-2.812,5.176-1.91s2.812,3.22,1.91,5.176
		L311.1,42.259c-0.902,1.957-3.22,2.812-5.176,1.91C303.967,43.268,303.112,40.951,304.014,38.993z"/>
	<path style="fill:#FFA981;" d="M344.785,69.57l18.535-15.844c1.637-1.4,4.101-1.207,5.5,0.431s1.207,4.101-0.431,5.5
		l-18.535,15.844c-1.637,1.4-4.101,1.207-5.5-0.431S343.147,70.97,344.785,69.57z"/>
	<path style="fill:#FFA981;" d="M207.986,38.993l-10.204-22.147c-0.902-1.957-3.22-2.812-5.176-1.91s-2.812,3.22-1.91,5.176
		L200.9,42.259c0.902,1.957,3.22,2.812,5.176,1.91C208.033,43.268,208.888,40.951,207.986,38.993z"/>
	<path style="fill:#FFA981;" d="M167.215,69.57L148.68,53.726c-1.637-1.4-4.101-1.207-5.501,0.431
		c-1.399,1.637-1.207,4.101,0.431,5.5l18.535,15.844c1.637,1.4,4.101,1.207,5.5-0.431S168.853,70.97,167.215,69.57z"/>
	<path style="fill:#FFA981;" d="M252.099,28.285V3.901C252.099,1.747,253.846,0,256,0c2.154,0,3.901,1.747,3.901,3.901v24.384
		c0,2.154-1.747,3.901-3.901,3.901C253.846,32.187,252.099,30.44,252.099,28.285z"/>
</g>
<g>
</g>
<g>
</g>
<g>
</g>
<g>
</g>
<g>
</g>
<g>
</g>
<g>
</g>
<g>
</g>
<g>
</g>
<g>
</g>
<g>
</g>
<g>
</g>
<g>
</g>
<g>
</g>
<g>
</g>
</svg>
