<?xml version="1.0" encoding="iso-8859-1"?>
<!-- Generator: Adobe Illustrator 19.0.0, SVG Export Plug-In . SVG Version: 6.00 Build 0)  -->
<svg version="1.1" id="Capa_1" xmlns="http://www.w3.org/2000/svg" xmlns:xlink="http://www.w3.org/1999/xlink" x="0px" y="0px"
	 viewBox="0 0 511.999 511.999" style="enable-background:new 0 0 511.999 511.999;" xml:space="preserve">
<linearGradient id="SVGID_1_" gradientUnits="userSpaceOnUse" x1="245.9488" y1="394.7448" x2="96.7988" y2="394.7448" gradientTransform="matrix(1.0039 0 0 -1.0039 0.1922 516.5616)">
	<stop  offset="0" style="stop-color:#FFE000"/>
	<stop  offset="1" style="stop-color:#FFE000;stop-opacity:0"/>
</linearGradient>
<polygon style="fill:url(#SVGID_1_);" points="224.453,148.642 53.7,198.138 53.7,42.399 224.453,91.896 "/>
<linearGradient id="SVGID_2_" gradientUnits="userSpaceOnUse" x1="263.6688" y1="394.7448" x2="412.8188" y2="394.7448" gradientTransform="matrix(1.0039 0 0 -1.0039 0.1922 516.5616)">
	<stop  offset="0" style="stop-color:#FFE000"/>
	<stop  offset="1" style="stop-color:#FFE000;stop-opacity:0"/>
</linearGradient>
<polygon style="fill:url(#SVGID_2_);" points="287.547,148.642 458.299,198.138 458.299,42.399 287.547,91.896 "/>
<linearGradient id="SVGID_3_" gradientUnits="userSpaceOnUse" x1="210.4088" y1="398.4794" x2="299.2088" y2="398.4794" gradientTransform="matrix(1.0039 0 0 -1.0039 0.1922 516.5616)">
	<stop  offset="0" style="stop-color:#605654"/>
	<stop  offset="0.351" style="stop-color:#5B5351"/>
	<stop  offset="0.745" style="stop-color:#4E4948"/>
	<stop  offset="1" style="stop-color:#413F40"/>
</linearGradient>
<rect x="211.426" y="70.113" style="fill:url(#SVGID_3_);" width="89.148" height="92.813"/>
<linearGradient id="SVGID_4_" gradientUnits="userSpaceOnUse" x1="198.3095" y1="471.9175" x2="311.3093" y2="471.9175" gradientTransform="matrix(1.0039 0 0 -1.0039 0.1922 516.5616)">
	<stop  offset="0" style="stop-color:#FFA981"/>
	<stop  offset="0.428" style="stop-color:#FF8666"/>
	<stop  offset="1" style="stop-color:#FF5C45"/>
</linearGradient>
<path style="fill:url(#SVGID_4_);" d="M263.697,3.828c-3.858-5.107-11.531-5.104-15.385,0.006l-47.034,62.36
	c-3.738,4.449-2.021,11.237,3.373,13.398c10.341,4.144,27.984,5.994,51.206,5.994c23.49,0,41.271-1.971,51.561-6.137
	c5.267-2.132,6.983-8.744,3.446-13.192L263.697,3.828z"/>
<linearGradient id="SVGID_5_" gradientUnits="userSpaceOnUse" x1="228.8088" y1="394.7448" x2="243.7888" y2="394.7448" gradientTransform="matrix(1.0039 0 0 -1.0039 0.1922 516.5616)">
	<stop  offset="0" style="stop-color:#FEFFB3"/>
	<stop  offset="1" style="stop-color:#FFCD77"/>
</linearGradient>
<path style="fill:url(#SVGID_5_);" d="M238.49,152.651L238.49,152.651c-6.527,0-11.819-5.292-11.819-11.819V99.706
	c0-6.527,5.292-11.819,11.819-11.819l0,0c6.527,0,11.819,5.292,11.819,11.819v41.126
	C250.309,147.359,245.017,152.651,238.49,152.651z"/>
<linearGradient id="SVGID_6_" gradientUnits="userSpaceOnUse" x1="263.6888" y1="394.7448" x2="278.6688" y2="394.7448" gradientTransform="matrix(1.0039 0 0 -1.0039 0.1922 516.5616)">
	<stop  offset="0" style="stop-color:#FEFFB3"/>
	<stop  offset="1" style="stop-color:#FFCD77"/>
</linearGradient>
<path style="fill:url(#SVGID_6_);" d="M273.511,152.651L273.511,152.651c-6.527,0-11.819-5.292-11.819-11.819V99.706
	c0-6.527,5.292-11.819,11.819-11.819l0,0c6.528,0,11.819,5.292,11.819,11.819v41.126
	C285.329,147.359,280.038,152.651,273.511,152.651z"/>
<linearGradient id="SVGID_7_" gradientUnits="userSpaceOnUse" x1="202.1588" y1="197.4888" x2="294.3088" y2="197.4888" gradientTransform="matrix(1.0039 0 0 -1.0039 0.1922 516.5616)">
	<stop  offset="0" style="stop-color:#FFA981"/>
	<stop  offset="0.428" style="stop-color:#FF8666"/>
	<stop  offset="1" style="stop-color:#FF5C45"/>
</linearGradient>
<path style="fill:url(#SVGID_7_);" d="M328.677,480.655H183.323l22.5-318.664c0.241-3.408,3.076-6.05,6.492-6.05h87.37
	c3.416,0,6.251,2.642,6.492,6.05L328.677,480.655z"/>
<linearGradient id="SVGID_8_" gradientUnits="userSpaceOnUse" x1="343.1382" y1="274.2427" x2="182.7982" y2="425.5927" gradientTransform="matrix(1.0039 0 0 -1.0039 0.1922 516.5616)">
	<stop  offset="0" style="stop-color:#FF5C45;stop-opacity:0"/>
	<stop  offset="1" style="stop-color:#B82934"/>
</linearGradient>
<path style="fill:url(#SVGID_8_);" d="M306.177,161.991c-0.241-3.408-3.076-6.05-6.492-6.05h-87.37l100.534,100.534L306.177,161.991
	z"/>
<linearGradient id="SVGID_9_" gradientUnits="userSpaceOnUse" x1="245.8788" y1="320.4394" x2="305.4788" y2="320.4394" gradientTransform="matrix(1.0039 0 0 -1.0039 0.1922 516.5616)">
	<stop  offset="0" style="stop-color:#EFFBFF"/>
	<stop  offset="0.556" style="stop-color:#CBE4F4"/>
	<stop  offset="1" style="stop-color:#B2D5EC"/>
</linearGradient>
<path style="fill:url(#SVGID_9_);" d="M304.014,157.586l-103.251,76.208l3.677-52.224l34.741-25.632h60.503
	C301.345,155.938,302.863,156.566,304.014,157.586z"/>
<g>
	
		<linearGradient id="SVGID_10_" gradientUnits="userSpaceOnUse" x1="245.8788" y1="241.7764" x2="305.4788" y2="241.7764" gradientTransform="matrix(1.0039 0 0 -1.0039 0.1922 516.5616)">
		<stop  offset="0" style="stop-color:#EFFBFF"/>
		<stop  offset="0.556" style="stop-color:#CBE4F4"/>
		<stop  offset="1" style="stop-color:#B2D5EC"/>
	</linearGradient>
	<polygon style="fill:url(#SVGID_10_);" points="312.613,253.282 193.16,341.445 196.849,289.221 309.292,206.229 	"/>
	
		<linearGradient id="SVGID_11_" gradientUnits="userSpaceOnUse" x1="245.8788" y1="139.8624" x2="305.4788" y2="139.8624" gradientTransform="matrix(1.0039 0 0 -1.0039 0.1922 516.5616)">
		<stop  offset="0" style="stop-color:#EFFBFF"/>
		<stop  offset="0.556" style="stop-color:#CBE4F4"/>
		<stop  offset="1" style="stop-color:#B2D5EC"/>
	</linearGradient>
	<polygon style="fill:url(#SVGID_11_);" points="319.469,350.259 185.557,449.085 189.245,396.873 316.148,303.217 	"/>
</g>
<linearGradient id="SVGID_12_" gradientUnits="userSpaceOnUse" x1="245.8788" y1="75.8379" x2="305.4788" y2="75.8379" gradientTransform="matrix(1.0039 0 0 -1.0039 0.1922 516.5616)">
	<stop  offset="0" style="stop-color:#EFFBFF"/>
	<stop  offset="0.556" style="stop-color:#CBE4F4"/>
	<stop  offset="1" style="stop-color:#B2D5EC"/>
</linearGradient>
<polygon style="fill:url(#SVGID_12_);" points="326.313,447.246 281.039,480.659 213.964,480.659 322.992,400.194 "/>
<linearGradient id="SVGID_13_" gradientUnits="userSpaceOnUse" x1="254.8093" y1="31.7833" x2="254.8093" y2="-0.3966" gradientTransform="matrix(1.0039 0 0 -1.0039 0.1922 516.5616)">
	<stop  offset="0" style="stop-color:#EFFBFF"/>
	<stop  offset="0.242" style="stop-color:#EAF8FE"/>
	<stop  offset="0.514" style="stop-color:#DDF0F9"/>
	<stop  offset="0.799" style="stop-color:#C6E2F2"/>
	<stop  offset="1" style="stop-color:#B2D5EC"/>
</linearGradient>
<path style="fill:url(#SVGID_13_);" d="M371.942,480.659H140.058c-8.655,0-15.67,7.016-15.67,15.67l0,0
	c0,8.655,7.016,15.67,15.67,15.67h231.885c8.655,0,15.67-7.016,15.67-15.67l0,0C387.613,487.675,380.597,480.659,371.942,480.659z"
	/>
<linearGradient id="SVGID_14_" gradientUnits="userSpaceOnUse" x1="328.4973" y1="286.8618" x2="190.0773" y2="425.2818" gradientTransform="matrix(1.0039 0 0 -1.0039 0.1922 516.5616)">
	<stop  offset="0" style="stop-color:#B2D5EC;stop-opacity:0"/>
	<stop  offset="1" style="stop-color:#7797B0"/>
</linearGradient>
<path style="fill:url(#SVGID_14_);" d="M304.014,157.586l-51.809,38.24l-28.478-28.478l15.455-11.411h60.503
	c0.344,0,0.688,0.024,1.02,0.083c0.071,0.012,0.131,0.024,0.19,0.035c0.106,0.012,0.202,0.036,0.296,0.071
	c0.118,0.012,0.225,0.047,0.344,0.082c0.367,0.107,0.712,0.238,1.044,0.404c0.106,0.059,0.214,0.118,0.32,0.178
	C303.302,157.017,303.67,157.278,304.014,157.586z"/>
<linearGradient id="SVGID_15_" gradientUnits="userSpaceOnUse" x1="325.5285" y1="268.2331" x2="187.0985" y2="406.6631" gradientTransform="matrix(1.0039 0 0 -1.0039 0.1922 516.5616)">
	<stop  offset="0" style="stop-color:#B2D5EC;stop-opacity:0"/>
	<stop  offset="1" style="stop-color:#7797B0"/>
</linearGradient>
<polygon style="fill:url(#SVGID_15_);" points="312.613,253.282 310.917,254.539 282.426,226.048 309.292,206.229 "/>
<g>
</g>
<g>
</g>
<g>
</g>
<g>
</g>
<g>
</g>
<g>
</g>
<g>
</g>
<g>
</g>
<g>
</g>
<g>
</g>
<g>
</g>
<g>
</g>
<g>
</g>
<g>
</g>
<g>
</g>
</svg>
