<?xml version="1.0" encoding="iso-8859-1"?>
<!-- Generator: Adobe Illustrator 19.0.0, SVG Export Plug-In . SVG Version: 6.00 Build 0)  -->
<svg version="1.1" id="Capa_1" xmlns="http://www.w3.org/2000/svg" xmlns:xlink="http://www.w3.org/1999/xlink" x="0px" y="0px"
	 viewBox="0 0 512 512" style="enable-background:new 0 0 512 512;" xml:space="preserve">
<linearGradient id="SVGID_1_" gradientUnits="userSpaceOnUse" x1="261.6824" y1="318.5736" x2="-69.2176" y2="-140.2564" gradientTransform="matrix(1.0039 0 0 -1.0039 0.1922 516.5613)">
	<stop  offset="0" style="stop-color:#FEFFB3"/>
	<stop  offset="1" style="stop-color:#FFCD77"/>
</linearGradient>
<path style="fill:url(#SVGID_1_);" d="M156.512,289.017l-26.516-17.838c-14.31-9.627-33.433-7.773-45.628,4.421l-58.613,58.613
	c-19.48,19.48-28.705,46.965-24.921,74.254l5.773,41.636c3.932,28.365,26.231,50.663,54.596,54.596l41.636,5.773
	c27.289,3.784,54.773-5.441,74.254-24.921l58.614-58.614c12.196-12.196,14.048-31.318,4.421-45.628l-17.838-26.516
	C204.819,328.825,182.482,306.487,156.512,289.017z"/>
<linearGradient id="SVGID_2_" gradientUnits="userSpaceOnUse" x1="160.4677" y1="61.0625" x2="60.6187" y2="160.9125" gradientTransform="matrix(1.0039 0 0 -1.0039 0.1922 516.5613)">
	<stop  offset="0" style="stop-color:#FFE000;stop-opacity:0"/>
	<stop  offset="1" style="stop-color:#FF9111"/>
</linearGradient>
<path style="fill:url(#SVGID_2_);" d="M240.128,381.309l-17.838-26.516c-8.551-12.712-18.276-24.547-29.016-35.373L25.45,487.244
	c9.523,9.236,21.912,15.537,35.753,17.456l41.636,5.773c27.289,3.784,54.773-5.441,74.254-24.921l58.614-58.613
	C247.901,414.742,249.754,395.619,240.128,381.309z"/>
<linearGradient id="SVGID_3_" gradientUnits="userSpaceOnUse" x1="118.5787" y1="123.723" x2="212.6587" y2="217.813" gradientTransform="matrix(1.0039 0 0 -1.0039 0.1922 516.5613)">
	<stop  offset="0" style="stop-color:#FFE000;stop-opacity:0"/>
	<stop  offset="1" style="stop-color:#FF9111"/>
</linearGradient>
<path style="fill:url(#SVGID_3_);" d="M235.706,426.937c12.195-12.196,14.048-31.318,4.421-45.628l-17.838-26.516
	c-17.47-25.968-39.807-48.307-65.777-65.777l-26.516-17.838c-12.824-8.627-29.509-8.028-41.614,0.965v236.325l14.454,2.004
	c27.289,3.784,54.773-5.441,74.254-24.921L235.706,426.937z"/>
<radialGradient id="SVGID_4_" cx="298.8067" cy="-6.7456" r="147.47" gradientTransform="matrix(0.6909 0.7283 0.1697 -0.1609 -45.1904 128.5309)" gradientUnits="userSpaceOnUse">
	<stop  offset="0" style="stop-color:#FFCD77"/>
	<stop  offset="0.723" style="stop-color:#FEF0A1"/>
	<stop  offset="1" style="stop-color:#FEFFB3"/>
</radialGradient>
<path style="fill:url(#SVGID_4_);" d="M255.019,421.723c2.257-2.257,3.468-5.34,3.414-8.53c-0.135-8.08-2.625-16.265-7.556-23.47
	l-21.154-30.919c-20.72-30.28-46.943-56.504-77.224-77.224l-30.919-21.153c-6.17-4.223-13.058-6.653-19.983-7.35
	c-3.475-0.349-6.922,0.892-9.392,3.362l-0.667,0.667c-5.778,5.778-3.975,15.572,3.503,18.868c2.427,1.07,4.793,2.38,7.061,3.931
	l30.919,21.153c30.272,20.729,56.496,46.952,77.224,77.224l21.154,30.919c1.88,2.749,3.406,5.639,4.581,8.613
	C239.052,425.589,249.108,427.634,255.019,421.723L255.019,421.723z"/>
<linearGradient id="SVGID_5_" gradientUnits="userSpaceOnUse" x1="145.8375" y1="123.4569" x2="27.0675" y2="236.4069" gradientTransform="matrix(1.0039 0 0 -1.0039 0.1922 516.5613)">
	<stop  offset="0" style="stop-color:#FFE000;stop-opacity:0"/>
	<stop  offset="1" style="stop-color:#FF9111"/>
</linearGradient>
<path style="fill:url(#SVGID_5_);" d="M163.969,496.342c2.228-1.498,4.396-3.105,6.494-4.816c0.122-0.1,0.246-0.199,0.367-0.299
	c1.005-0.828,1.994-1.68,2.965-2.556c0.127-0.114,0.253-0.232,0.379-0.347c0.989-0.902,1.963-1.822,2.912-2.772l35.565-35.565
	l0.008-108.487c-0.029-0.037-0.057-0.075-0.085-0.112c-2.898-3.73-5.905-7.369-9.012-10.919c-0.259-0.295-0.521-0.587-0.78-0.88
	c-1.27-1.437-2.556-2.857-3.859-4.263c-0.339-0.365-0.677-0.731-1.018-1.094c-1.37-1.461-2.76-2.904-4.165-4.33
	c-0.205-0.208-0.407-0.42-0.612-0.627c-1.663-1.675-3.35-3.327-5.063-4.952c-0.067-0.064-0.137-0.125-0.204-0.19
	c-1.579-1.496-3.181-2.966-4.801-4.418c-0.381-0.342-0.767-0.68-1.15-1.02c-1.388-1.23-2.792-2.446-4.209-3.643
	c-0.355-0.3-0.71-0.602-1.067-0.901c-1.734-1.448-3.483-2.878-5.259-4.278l-11.583,11.583c-5.168,5.168-9.322,11.177-12.31,17.727
	c-2.205,4.825-3.779,9.946-4.657,15.218v162.357C150.278,504.263,157.392,500.763,163.969,496.342z"/>
<linearGradient id="SVGID_6_" gradientUnits="userSpaceOnUse" x1="247.2476" y1="271.8224" x2="275.9576" y2="243.1024" gradientTransform="matrix(1.0039 0 0 -1.0039 0.1922 516.5613)">
	<stop  offset="0" style="stop-color:#EFFBFF"/>
	<stop  offset="0.235" style="stop-color:#D5EBF7"/>
	<stop  offset="0.487" style="stop-color:#C2DFF1"/>
	<stop  offset="0.742" style="stop-color:#B6D7ED"/>
	<stop  offset="1" style="stop-color:#B2D5EC"/>
</linearGradient>
<path style="fill:url(#SVGID_6_);" d="M162.6,370.556L162.6,370.556c-11.628,0.834-21.296-8.834-20.462-20.462l0,0
	c1.046-14.584,7.313-28.303,17.652-38.641l189.212-189.212l41.451,41.451L201.241,352.904
	C190.903,363.243,177.184,369.51,162.6,370.556z"/>
<linearGradient id="SVGID_7_" gradientUnits="userSpaceOnUse" x1="349.5889" y1="326.693" x2="369.9389" y2="379.603" gradientTransform="matrix(1.0039 0 0 -1.0039 0.1922 516.5613)">
	<stop  offset="0" style="stop-color:#B2D5EC;stop-opacity:0"/>
	<stop  offset="1" style="stop-color:#7797B0"/>
</linearGradient>
<polygon style="fill:url(#SVGID_7_);" points="345.657,125.586 345.657,208.489 390.453,163.693 349.001,122.241 "/>
<linearGradient id="SVGID_8_" gradientUnits="userSpaceOnUse" x1="370.2922" y1="458.027" x2="504.2222" y2="324.107" gradientTransform="matrix(1.0039 0 0 -1.0039 0.1922 516.5613)">
	<stop  offset="0" style="stop-color:#EFFBFF"/>
	<stop  offset="0.235" style="stop-color:#D5EBF7"/>
	<stop  offset="0.487" style="stop-color:#C2DFF1"/>
	<stop  offset="0.742" style="stop-color:#B6D7ED"/>
	<stop  offset="1" style="stop-color:#B2D5EC"/>
</linearGradient>
<path style="fill:url(#SVGID_8_);" d="M360.341,152.352c-5.29-5.29-9.385-11.77-11.925-19.084l-15.338-44.132
	c-6.289-18.097-1.598-38.543,11.948-52.089l21.642-21.642c19.616-19.616,51.533-19.616,71.149,0l59.471,59.471
	c19.616,19.616,19.616,51.533,0,71.149l-21.642,21.642c-13.546,13.546-33.993,18.236-52.089,11.948l-44.133-15.337
	C372.113,161.736,365.63,157.64,360.341,152.352z M413.851,39.372c-6.401-6.401-16.816-6.401-23.217,0l-21.642,21.642
	c-4.42,4.42-5.951,11.092-3.898,16.996l15.337,44.133c1.658,4.773,5.347,8.459,10.118,10.119l44.134,15.337
	c5.905,2.052,12.576,0.522,16.996-3.898l21.642-21.642c6.401-6.401,6.401-16.816,0-23.217L413.851,39.372z"/>
<linearGradient id="SVGID_9_" gradientUnits="userSpaceOnUse" x1="330.7127" y1="355.2875" x2="359.4327" y2="326.5675" gradientTransform="matrix(1.0039 0 0 -1.0039 0.1922 516.5613)">
	<stop  offset="0" style="stop-color:#FEFFB3"/>
	<stop  offset="1" style="stop-color:#FFCD77"/>
</linearGradient>
<polygon style="fill:url(#SVGID_9_);" points="356.507,197.638 315.056,156.187 328.508,142.734 369.96,184.186 "/>
<linearGradient id="SVGID_10_" gradientUnits="userSpaceOnUse" x1="183.386" y1="428.0735" x2="64.616" y2="493.5536" gradientTransform="matrix(1.0039 0 0 -1.0039 0.1922 516.5613)">
	<stop  offset="0" style="stop-color:#FFE000;stop-opacity:0"/>
	<stop  offset="1" style="stop-color:#FF9111"/>
</linearGradient>
<polygon style="fill:url(#SVGID_10_);" points="345.657,186.788 356.507,197.638 369.96,184.186 345.657,159.883 "/>
<linearGradient id="SVGID_11_" gradientUnits="userSpaceOnUse" x1="461.3089" y1="465.3527" x2="439.3489" y2="443.3927" gradientTransform="matrix(1.0039 0 0 -1.0039 0.1922 516.5613)">
	<stop  offset="0" style="stop-color:#FEFFB3"/>
	<stop  offset="1" style="stop-color:#FFCD77"/>
</linearGradient>
<polygon style="fill:url(#SVGID_11_);" points="471.122,102.275 410.419,41.572 440.552,11.438 501.256,72.142 "/>
<linearGradient id="SVGID_12_" gradientUnits="userSpaceOnUse" x1="419.7785" y1="491.9933" x2="423.0485" y2="488.7303" gradientTransform="matrix(1.0039 0 0 -1.0039 0.1922 516.5613)">
	<stop  offset="0" style="stop-color:#FEFFB3"/>
	<stop  offset="1" style="stop-color:#FFCD77"/>
</linearGradient>
<path style="fill:url(#SVGID_12_);" d="M405.866,41.096L405.866,41.096c1.388,1.388,3.639,1.388,5.029,0l29.182-29.182
	c1.388-1.388,1.388-3.639,0-5.029l0,0c-1.388-1.388-3.639-1.388-5.029,0l-29.182,29.182
	C404.478,37.457,404.478,39.707,405.866,41.096z"/>
<linearGradient id="SVGID_13_" gradientUnits="userSpaceOnUse" x1="485.4697" y1="426.3045" x2="488.8697" y2="422.9045" gradientTransform="matrix(1.0039 0 0 -1.0039 0.1922 516.5613)">
	<stop  offset="0" style="stop-color:#FEFFB3"/>
	<stop  offset="1" style="stop-color:#FFCD77"/>
</linearGradient>
<path style="fill:url(#SVGID_13_);" d="M471.598,106.828L471.598,106.828c1.388,1.388,3.639,1.388,5.028,0l29.182-29.182
	c1.388-1.388,1.388-3.64,0-5.029l0,0c-1.388-1.388-3.639-1.388-5.029,0l-29.182,29.182
	C470.21,103.188,470.21,105.439,471.598,106.828z"/>
<linearGradient id="SVGID_14_" gradientUnits="userSpaceOnUse" x1="254.2324" y1="618.4169" x2="135.4624" y2="712.2289" gradientTransform="matrix(1.0039 0 0 -1.0039 0.1922 516.5613)">
	<stop  offset="0" style="stop-color:#FFE000;stop-opacity:0"/>
	<stop  offset="1" style="stop-color:#FF9111"/>
</linearGradient>
<polygon style="fill:url(#SVGID_14_);" points="440.077,71.229 440.077,11.914 410.419,41.572 "/>
<linearGradient id="SVGID_15_" gradientUnits="userSpaceOnUse" x1="353.0517" y1="406.6422" x2="3.2717" y2="445.0022" gradientTransform="matrix(1.0039 0 0 -1.0039 0.1922 516.5613)">
	<stop  offset="0" style="stop-color:#B2D5EC;stop-opacity:0"/>
	<stop  offset="1" style="stop-color:#7797B0"/>
</linearGradient>
<path style="fill:url(#SVGID_15_);" d="M502.48,80.974l-24.982,24.982l0.002,0.033c0.647,2.304,0.775,4.719,0.399,7.072l0.004,0.071
	v52.278l19.386-19.386c1.923-1.923,3.649-3.965,5.195-6.102V80.976C502.482,80.977,502.481,80.976,502.48,80.974z"/>
<g>
</g>
<g>
</g>
<g>
</g>
<g>
</g>
<g>
</g>
<g>
</g>
<g>
</g>
<g>
</g>
<g>
</g>
<g>
</g>
<g>
</g>
<g>
</g>
<g>
</g>
<g>
</g>
<g>
</g>
</svg>
