<?xml version="1.0" encoding="iso-8859-1"?>
<!-- Generator: Adobe Illustrator 19.0.0, SVG Export Plug-In . SVG Version: 6.00 Build 0)  -->
<svg version="1.1" id="Capa_1" xmlns="http://www.w3.org/2000/svg" xmlns:xlink="http://www.w3.org/1999/xlink" x="0px" y="0px"
	 viewBox="0 0 512 512" style="enable-background:new 0 0 512 512;" xml:space="preserve">
<radialGradient id="SVGID_1_" cx="255.3786" cy="259.543" r="240.78" gradientTransform="matrix(1.0039 0 0 -1.0039 0.1922 516.5609)" gradientUnits="userSpaceOnUse">
	<stop  offset="0" style="stop-color:#FFE000"/>
	<stop  offset="1" style="stop-color:#FFE000;stop-opacity:0"/>
</radialGradient>
<circle style="fill:url(#SVGID_1_);" cx="256" cy="256" r="256"/>
<radialGradient id="SVGID_2_" cx="277.2086" cy="258.193" r="193.66" gradientTransform="matrix(1.0039 0 0 -1.0039 0.1922 516.5609)" gradientUnits="userSpaceOnUse">
	<stop  offset="0" style="stop-color:#FF9111"/>
	<stop  offset="0.168" style="stop-color:#FF961A;stop-opacity:0.832"/>
	<stop  offset="0.447" style="stop-color:#FFA534;stop-opacity:0.553"/>
	<stop  offset="0.8" style="stop-color:#FFBD5D;stop-opacity:0.2"/>
	<stop  offset="1" style="stop-color:#FFCD77;stop-opacity:0"/>
</radialGradient>
<path style="fill:url(#SVGID_2_);" d="M256,52.838c-1.233,3.942-1.871,7.885-2.326,11.827c-0.434,3.942-0.635,7.885-0.631,11.827
	c0.004,3.942,0.206,7.885,0.639,11.827c0.458,3.942,1.093,7.885,2.318,11.827c1.226-3.942,1.861-7.885,2.318-11.827
	c0.434-3.942,0.635-7.885,0.639-11.827c0.005-3.942-0.198-7.885-0.631-11.827C257.871,60.723,257.233,56.78,256,52.838z"/>
<radialGradient id="SVGID_3_" cx="277.2086" cy="-99.427" r="193.66" gradientTransform="matrix(1.0039 0 0 -1.0039 0.1922 516.5609)" gradientUnits="userSpaceOnUse">
	<stop  offset="0" style="stop-color:#FF9111"/>
	<stop  offset="0.168" style="stop-color:#FF961A;stop-opacity:0.832"/>
	<stop  offset="0.447" style="stop-color:#FFA534;stop-opacity:0.553"/>
	<stop  offset="0.8" style="stop-color:#FFBD5D;stop-opacity:0.2"/>
	<stop  offset="1" style="stop-color:#FFCD77;stop-opacity:0"/>
</radialGradient>
<path style="fill:url(#SVGID_3_);" d="M256,411.853c-1.233,3.942-1.871,7.885-2.326,11.827c-0.434,3.942-0.635,7.885-0.631,11.827
	c0.004,3.942,0.206,7.885,0.639,11.827c0.458,3.942,1.093,7.885,2.318,11.827c1.226-3.942,1.861-7.885,2.318-11.827
	c0.434-3.942,0.635-7.885,0.639-11.827c0.005-3.942-0.198-7.885-0.631-11.827C257.871,419.738,257.233,415.795,256,411.853z"/>
<radialGradient id="SVGID_4_" cx="612.7186" cy="237.013" r="192.39" gradientTransform="matrix(1.0039 0 0 -1.0039 0.1922 516.5609)" gradientUnits="userSpaceOnUse">
	<stop  offset="0" style="stop-color:#FF9111"/>
	<stop  offset="0.168" style="stop-color:#FF961A;stop-opacity:0.832"/>
	<stop  offset="0.447" style="stop-color:#FFA534;stop-opacity:0.553"/>
	<stop  offset="0.8" style="stop-color:#FFBD5D;stop-opacity:0.2"/>
	<stop  offset="1" style="stop-color:#FFCD77;stop-opacity:0"/>
</radialGradient>
<path style="fill:url(#SVGID_4_);" d="M435.507,253.042c-3.942,0.003-7.885,0.205-11.827,0.639
	c-3.942,0.458-7.885,1.093-11.827,2.318c3.942,1.226,7.885,1.861,11.827,2.318c3.942,0.434,7.885,0.637,11.827,0.639
	c3.942,0.005,7.885-0.198,11.827-0.631c3.942-0.456,7.885-1.093,11.827-2.327c-3.942-1.233-7.885-1.87-11.827-2.326
	C443.392,253.24,439.45,253.037,435.507,253.042z"/>
<radialGradient id="SVGID_5_" cx="255.1086" cy="237.013" r="192.39" gradientTransform="matrix(1.0039 0 0 -1.0039 0.1922 516.5609)" gradientUnits="userSpaceOnUse">
	<stop  offset="0" style="stop-color:#FF9111"/>
	<stop  offset="0.168" style="stop-color:#FF961A;stop-opacity:0.832"/>
	<stop  offset="0.447" style="stop-color:#FFA534;stop-opacity:0.553"/>
	<stop  offset="0.8" style="stop-color:#FFBD5D;stop-opacity:0.2"/>
	<stop  offset="1" style="stop-color:#FFCD77;stop-opacity:0"/>
</radialGradient>
<path style="fill:url(#SVGID_5_);" d="M76.493,258.958c3.942,0.005,7.885-0.198,11.827-0.631c3.942-0.456,7.885-1.093,11.827-2.327
	c-3.942-1.233-7.885-1.87-11.827-2.326c-3.942-0.434-7.885-0.635-11.827-0.631c-3.942,0.003-7.885,0.205-11.827,0.639
	c-3.942,0.458-7.885,1.093-11.827,2.318c3.942,1.226,7.885,1.861,11.827,2.318C68.608,258.753,72.55,258.955,76.493,258.958z"/>
<radialGradient id="SVGID_6_" cx="507.8886" cy="258.583" r="191.54" gradientTransform="matrix(1.0039 0 0 -1.0039 0.1922 516.5609)" gradientUnits="userSpaceOnUse">
	<stop  offset="0" style="stop-color:#FF9111"/>
	<stop  offset="0.168" style="stop-color:#FF961A;stop-opacity:0.832"/>
	<stop  offset="0.447" style="stop-color:#FFA534;stop-opacity:0.553"/>
	<stop  offset="0.8" style="stop-color:#FFBD5D;stop-opacity:0.2"/>
	<stop  offset="1" style="stop-color:#FFCD77;stop-opacity:0"/>
</radialGradient>
<path style="fill:url(#SVGID_6_);" d="M376.207,139.071c3.095-2.481,6.026-5.126,8.815-7.911c2.791-2.784,5.435-5.715,7.917-8.809
	c2.466-3.11,4.803-6.349,6.718-10.008c-3.659,1.915-6.898,4.253-10.008,6.718c-3.094,2.482-6.026,5.126-8.809,7.917
	c-2.786,2.79-5.43,5.72-7.911,8.815c-2.465,3.111-4.803,6.348-6.724,10.003C369.859,143.874,373.095,141.536,376.207,139.071z"/>
<radialGradient id="SVGID_7_" cx="255.0186" cy="5.713" r="191.54" gradientTransform="matrix(1.0039 0 0 -1.0039 0.1922 516.5609)" gradientUnits="userSpaceOnUse">
	<stop  offset="0" style="stop-color:#FF9111"/>
	<stop  offset="0.168" style="stop-color:#FF961A;stop-opacity:0.832"/>
	<stop  offset="0.447" style="stop-color:#FFA534;stop-opacity:0.553"/>
	<stop  offset="0.8" style="stop-color:#FFBD5D;stop-opacity:0.2"/>
	<stop  offset="1" style="stop-color:#FFCD77;stop-opacity:0"/>
</radialGradient>
<path style="fill:url(#SVGID_7_);" d="M135.787,372.923c-3.094,2.482-6.026,5.126-8.809,7.917c-2.785,2.79-5.43,5.72-7.911,8.815
	c-2.465,3.111-4.803,6.348-6.724,10.003c3.654-1.922,6.891-4.26,10.003-6.724c3.094-2.481,6.026-5.126,8.815-7.911
	c2.791-2.784,5.436-5.715,7.917-8.809c2.466-3.11,4.803-6.349,6.718-10.008C142.136,368.12,138.898,370.457,135.787,372.923z"/>
<radialGradient id="SVGID_8_" cx="507.8886" cy="5.713" r="191.54" gradientTransform="matrix(1.0039 0 0 -1.0039 0.1922 516.5609)" gradientUnits="userSpaceOnUse">
	<stop  offset="0" style="stop-color:#FF9111"/>
	<stop  offset="0.168" style="stop-color:#FF961A;stop-opacity:0.832"/>
	<stop  offset="0.447" style="stop-color:#FFA534;stop-opacity:0.553"/>
	<stop  offset="0.8" style="stop-color:#FFBD5D;stop-opacity:0.2"/>
	<stop  offset="1" style="stop-color:#FFCD77;stop-opacity:0"/>
</radialGradient>
<path style="fill:url(#SVGID_8_);" d="M385.022,380.84c-2.79-2.786-5.72-5.43-8.815-7.911c-3.111-2.465-6.348-4.803-10.003-6.723
	c1.922,3.654,4.26,6.891,6.724,10.003c2.481,3.094,5.126,6.026,7.911,8.815c2.784,2.791,5.715,5.435,8.809,7.917
	c3.11,2.466,6.349,4.803,10.008,6.718c-1.915-3.659-4.253-6.898-6.718-10.008C390.458,386.555,387.814,383.624,385.022,380.84z"/>
<radialGradient id="SVGID_9_" cx="255.0186" cy="258.583" r="191.54" gradientTransform="matrix(1.0039 0 0 -1.0039 0.1922 516.5609)" gradientUnits="userSpaceOnUse">
	<stop  offset="0" style="stop-color:#FF9111"/>
	<stop  offset="0.168" style="stop-color:#FF961A;stop-opacity:0.832"/>
	<stop  offset="0.447" style="stop-color:#FFA534;stop-opacity:0.553"/>
	<stop  offset="0.8" style="stop-color:#FFBD5D;stop-opacity:0.2"/>
	<stop  offset="1" style="stop-color:#FFCD77;stop-opacity:0"/>
</radialGradient>
<path style="fill:url(#SVGID_9_);" d="M126.977,131.16c2.785,2.791,5.715,5.435,8.809,7.917c3.11,2.466,6.349,4.803,10.008,6.718
	c-1.915-3.659-4.253-6.898-6.718-10.008c-2.481-3.094-5.126-6.026-7.917-8.809c-2.79-2.785-5.72-5.43-8.815-7.911
	c-3.111-2.465-6.349-4.803-10.003-6.724c1.922,3.654,4.26,6.892,6.724,10.003C121.548,125.44,124.192,128.37,126.977,131.16z"/>
<radialGradient id="SVGID_10_" cx="387.8886" cy="258.283" r="192" gradientTransform="matrix(1.0039 0 0 -1.0039 0.1922 516.5609)" gradientUnits="userSpaceOnUse">
	<stop  offset="0" style="stop-color:#FF9111"/>
	<stop  offset="0.168" style="stop-color:#FF961A;stop-opacity:0.832"/>
	<stop  offset="0.447" style="stop-color:#FFA534;stop-opacity:0.553"/>
	<stop  offset="0.8" style="stop-color:#FFBD5D;stop-opacity:0.2"/>
	<stop  offset="1" style="stop-color:#FFCD77;stop-opacity:0"/>
</radialGradient>
<path style="fill:url(#SVGID_10_);" d="M325.491,90.462c1.471-3.658,2.749-7.393,3.812-11.214c1.043-3.829,1.917-7.726,2.238-11.844
	c-2.61,3.202-4.668,6.624-6.558,10.115c-1.868,3.499-3.522,7.083-4.983,10.745c-1.463,3.661-2.741,7.396-3.804,11.217
	c-1.041,3.83-1.918,7.726-2.246,11.841c2.603-3.205,4.659-6.628,6.55-10.118C322.369,97.706,324.023,94.122,325.491,90.462z"/>
<radialGradient id="SVGID_11_" cx="254.9186" cy="-73.687" r="192" gradientTransform="matrix(1.0039 0 0 -1.0039 0.1922 516.5609)" gradientUnits="userSpaceOnUse">
	<stop  offset="0" style="stop-color:#FF9111"/>
	<stop  offset="0.168" style="stop-color:#FF961A;stop-opacity:0.832"/>
	<stop  offset="0.447" style="stop-color:#FFA534;stop-opacity:0.553"/>
	<stop  offset="0.8" style="stop-color:#FFBD5D;stop-opacity:0.2"/>
	<stop  offset="1" style="stop-color:#FFCD77;stop-opacity:0"/>
</radialGradient>
<path style="fill:url(#SVGID_11_);" d="M186.508,421.538c-1.463,3.661-2.741,7.396-3.805,11.217
	c-1.041,3.83-1.917,7.726-2.246,11.841c2.604-3.204,4.659-6.628,6.551-10.118c1.868-3.499,3.522-7.083,4.991-10.742
	c1.47-3.657,2.748-7.393,3.812-11.214c1.043-3.829,1.916-7.726,2.238-11.844c-2.61,3.201-4.668,6.624-6.558,10.115
	C189.624,414.291,187.969,417.875,186.508,421.538z"/>
<radialGradient id="SVGID_12_" cx="587.0586" cy="126.073" r="191.06" gradientTransform="matrix(1.0039 0 0 -1.0039 0.1922 516.5609)" gradientUnits="userSpaceOnUse">
	<stop  offset="0" style="stop-color:#FF9111"/>
	<stop  offset="0.168" style="stop-color:#FF961A;stop-opacity:0.832"/>
	<stop  offset="0.447" style="stop-color:#FFA534;stop-opacity:0.553"/>
	<stop  offset="0.8" style="stop-color:#FFBD5D;stop-opacity:0.2"/>
	<stop  offset="1" style="stop-color:#FFCD77;stop-opacity:0"/>
</radialGradient>
<path style="fill:url(#SVGID_12_);" d="M423.737,320.001c-3.661-1.463-7.396-2.741-11.217-3.804
	c-3.83-1.041-7.726-1.918-11.841-2.246c3.204,2.603,6.628,4.659,10.117,6.55c3.499,1.868,7.084,3.522,10.742,4.992
	c3.658,1.471,7.393,2.748,11.214,3.812c3.829,1.043,7.726,1.916,11.844,2.238c-3.202-2.61-6.624-4.668-10.113-6.558
	C430.983,323.116,427.399,321.462,423.737,320.001z"/>
<radialGradient id="SVGID_13_" cx="255.0886" cy="259.043" r="191.06" gradientTransform="matrix(1.0039 0 0 -1.0039 0.1922 516.5609)" gradientUnits="userSpaceOnUse">
	<stop  offset="0" style="stop-color:#FF9111"/>
	<stop  offset="0.168" style="stop-color:#FF961A;stop-opacity:0.832"/>
	<stop  offset="0.447" style="stop-color:#FFA534;stop-opacity:0.553"/>
	<stop  offset="0.8" style="stop-color:#FFBD5D;stop-opacity:0.2"/>
	<stop  offset="1" style="stop-color:#FFCD77;stop-opacity:0"/>
</radialGradient>
<path style="fill:url(#SVGID_13_);" d="M88.264,191.999c3.658,1.471,7.393,2.749,11.214,3.812c3.829,1.043,7.726,1.916,11.844,2.239
	c-3.202-2.611-6.624-4.668-10.115-6.558c-3.499-1.868-7.084-3.522-10.745-4.983c-3.661-1.463-7.396-2.741-11.217-3.804
	c-3.83-1.041-7.726-1.917-11.841-2.246c3.205,2.604,6.628,4.659,10.117,6.55C81.019,188.877,84.604,190.53,88.264,191.999z"/>
<radialGradient id="SVGID_14_" cx="583.8486" cy="259.013" r="191.09" gradientTransform="matrix(1.0039 0 0 -1.0039 0.1922 516.5609)" gradientUnits="userSpaceOnUse">
	<stop  offset="0" style="stop-color:#FF9111"/>
	<stop  offset="0.168" style="stop-color:#FF961A;stop-opacity:0.832"/>
	<stop  offset="0.447" style="stop-color:#FFA534;stop-opacity:0.553"/>
	<stop  offset="0.8" style="stop-color:#FFBD5D;stop-opacity:0.2"/>
	<stop  offset="1" style="stop-color:#FFCD77;stop-opacity:0"/>
</radialGradient>
<path style="fill:url(#SVGID_14_);" d="M409.242,187.889c-3.444,1.972-6.819,4.107-9.961,6.786
	c4.107-0.425,7.981-1.391,11.785-2.523c3.795-1.152,7.499-2.518,11.124-4.066c3.626-1.547,7.171-3.285,10.625-5.234
	c3.444-1.971,6.819-4.108,9.958-6.793c-4.11,0.418-7.985,1.382-11.789,2.515c-3.795,1.152-7.499,2.518-11.121,4.073
	C416.24,184.202,412.695,185.939,409.242,187.889z"/>
<radialGradient id="SVGID_15_" cx="255.0786" cy="118.293" r="191.09" gradientTransform="matrix(1.0039 0 0 -1.0039 0.1922 516.5609)" gradientUnits="userSpaceOnUse">
	<stop  offset="0" style="stop-color:#FF9111"/>
	<stop  offset="0.168" style="stop-color:#FF961A;stop-opacity:0.832"/>
	<stop  offset="0.447" style="stop-color:#FFA534;stop-opacity:0.553"/>
	<stop  offset="0.8" style="stop-color:#FFBD5D;stop-opacity:0.2"/>
	<stop  offset="1" style="stop-color:#FFCD77;stop-opacity:0"/>
</radialGradient>
<path style="fill:url(#SVGID_15_);" d="M102.761,324.118c3.445-1.971,6.819-4.108,9.958-6.793
	c-4.109,0.418-7.985,1.382-11.789,2.515c-3.795,1.153-7.499,2.518-11.121,4.073c-3.623,1.554-7.168,3.292-10.621,5.241
	c-3.444,1.972-6.819,4.107-9.961,6.786c4.107-0.425,7.981-1.391,11.786-2.523c3.795-1.152,7.499-2.518,11.124-4.066
	C95.763,327.806,99.308,326.068,102.761,324.118z"/>
<radialGradient id="SVGID_16_" cx="395.6386" cy="-70.467" r="191.98" gradientTransform="matrix(1.0039 0 0 -1.0039 0.1922 516.5609)" gradientUnits="userSpaceOnUse">
	<stop  offset="0" style="stop-color:#FF9111"/>
	<stop  offset="0.168" style="stop-color:#FF961A;stop-opacity:0.832"/>
	<stop  offset="0.447" style="stop-color:#FFA534;stop-opacity:0.553"/>
	<stop  offset="0.8" style="stop-color:#FFBD5D;stop-opacity:0.2"/>
	<stop  offset="1" style="stop-color:#FFCD77;stop-opacity:0"/>
</radialGradient>
<path style="fill:url(#SVGID_16_);" d="M329.353,419.863c-1.554-3.623-3.292-7.168-5.241-10.621
	c-1.972-3.444-4.107-6.819-6.786-9.961c0.425,4.107,1.391,7.981,2.523,11.786c1.153,3.795,2.518,7.499,4.066,11.124
	c1.547,3.626,3.285,7.171,5.234,10.625c1.97,3.445,4.107,6.819,6.793,9.958c-0.418-4.11-1.382-7.985-2.515-11.789
	C332.273,427.19,330.909,423.485,329.353,419.863z"/>
<radialGradient id="SVGID_17_" cx="254.9286" cy="258.293" r="191.98" gradientTransform="matrix(1.0039 0 0 -1.0039 0.1922 516.5609)" gradientUnits="userSpaceOnUse">
	<stop  offset="0" style="stop-color:#FF9111"/>
	<stop  offset="0.168" style="stop-color:#FF961A;stop-opacity:0.832"/>
	<stop  offset="0.447" style="stop-color:#FFA534;stop-opacity:0.553"/>
	<stop  offset="0.8" style="stop-color:#FFBD5D;stop-opacity:0.2"/>
	<stop  offset="1" style="stop-color:#FFCD77;stop-opacity:0"/>
</radialGradient>
<path style="fill:url(#SVGID_17_);" d="M187.882,102.761c1.97,3.445,4.108,6.819,6.793,9.958c-0.418-4.11-1.382-7.985-2.516-11.789
	c-1.152-3.795-2.518-7.499-4.073-11.121c-1.554-3.623-3.291-7.168-5.241-10.621c-1.972-3.444-4.107-6.819-6.786-9.961
	c0.425,4.106,1.391,7.981,2.522,11.785c1.152,3.795,2.518,7.499,4.066,11.124C184.195,95.763,185.932,99.308,187.882,102.761z"/>
<radialGradient id="SVGID_18_" cx="327.2186" cy="258.213" r="192.56" gradientTransform="matrix(1.0039 0 0 -1.0039 0.1922 516.5609)" gradientUnits="userSpaceOnUse">
	<stop  offset="0" style="stop-color:#FF9111"/>
	<stop  offset="0.168" style="stop-color:#FF961A;stop-opacity:0.832"/>
	<stop  offset="0.447" style="stop-color:#FFA534;stop-opacity:0.553"/>
	<stop  offset="0.8" style="stop-color:#FFBD5D;stop-opacity:0.2"/>
	<stop  offset="1" style="stop-color:#FFCD77;stop-opacity:0"/>
</radialGradient>
<path style="fill:url(#SVGID_18_);" d="M294.213,80.582c0.78-3.864,1.357-7.769,1.708-11.721c0.329-3.954,0.48-7.946,0.046-12.054
	c-1.985,3.623-3.385,7.363-4.608,11.139c-1.201,3.78-2.174,7.606-2.945,11.472c-0.772,3.866-1.349,7.771-1.7,11.722
	c-0.327,3.955-0.48,7.946-0.053,12.052c1.978-3.624,3.375-7.365,4.6-11.141C292.46,88.273,293.434,84.447,294.213,80.582z"/>
<radialGradient id="SVGID_19_" cx="256.8686" cy="-92.407" r="192.56" gradientTransform="matrix(1.0039 0 0 -1.0039 0.1922 516.5609)" gradientUnits="userSpaceOnUse">
	<stop  offset="0" style="stop-color:#FF9111"/>
	<stop  offset="0.168" style="stop-color:#FF961A;stop-opacity:0.832"/>
	<stop  offset="0.447" style="stop-color:#FFA534;stop-opacity:0.553"/>
	<stop  offset="0.8" style="stop-color:#FFBD5D;stop-opacity:0.2"/>
	<stop  offset="1" style="stop-color:#FFCD77;stop-opacity:0"/>
</radialGradient>
<path style="fill:url(#SVGID_19_);" d="M220.732,419.946c-1.201,3.78-2.174,7.606-2.946,11.472c-0.772,3.866-1.349,7.771-1.7,11.722
	c-0.327,3.955-0.48,7.946-0.053,12.052c1.977-3.624,3.375-7.365,4.6-11.141c1.201-3.78,2.174-7.606,2.954-11.47
	c0.78-3.865,1.357-7.77,1.708-11.721c0.328-3.955,0.479-7.946,0.046-12.054C223.355,412.43,221.955,416.17,220.732,419.946z"/>
<radialGradient id="SVGID_20_" cx="605.7286" cy="186.913" r="191.37" gradientTransform="matrix(1.0039 0 0 -1.0039 0.1922 516.5609)" gradientUnits="userSpaceOnUse">
	<stop  offset="0" style="stop-color:#FF9111"/>
	<stop  offset="0.168" style="stop-color:#FF961A;stop-opacity:0.832"/>
	<stop  offset="0.447" style="stop-color:#FFA534;stop-opacity:0.553"/>
	<stop  offset="0.8" style="stop-color:#FFBD5D;stop-opacity:0.2"/>
	<stop  offset="1" style="stop-color:#FFCD77;stop-opacity:0"/>
</radialGradient>
<path style="fill:url(#SVGID_20_);" d="M432.582,288.414c-3.866-0.772-7.771-1.35-11.723-1.701
	c-3.955-0.327-7.946-0.48-12.052-0.053c3.624,1.978,7.365,3.376,11.141,4.6c3.78,1.201,7.606,2.174,11.471,2.954
	c3.864,0.78,7.769,1.357,11.72,1.708c3.955,0.328,7.946,0.479,12.054,0.045c-3.623-1.985-7.363-3.385-11.138-4.607
	C440.273,290.158,436.448,289.185,432.582,288.414z"/>
<radialGradient id="SVGID_21_" cx="255.0986" cy="257.263" r="191.37" gradientTransform="matrix(1.0039 0 0 -1.0039 0.1922 516.5609)" gradientUnits="userSpaceOnUse">
	<stop  offset="0" style="stop-color:#FF9111"/>
	<stop  offset="0.168" style="stop-color:#FF961A;stop-opacity:0.832"/>
	<stop  offset="0.447" style="stop-color:#FFA534;stop-opacity:0.553"/>
	<stop  offset="0.8" style="stop-color:#FFBD5D;stop-opacity:0.2"/>
	<stop  offset="1" style="stop-color:#FFCD77;stop-opacity:0"/>
</radialGradient>
<path style="fill:url(#SVGID_21_);" d="M79.418,223.586c3.865,0.78,7.77,1.357,11.721,1.708c3.954,0.329,7.946,0.479,12.054,0.046
	c-3.623-1.985-7.363-3.385-11.139-4.607c-3.78-1.201-7.606-2.174-11.472-2.947c-3.866-0.772-7.771-1.349-11.722-1.7
	c-3.955-0.327-7.946-0.48-12.052-0.053c3.624,1.978,7.365,3.376,11.141,4.6C71.728,221.834,75.553,222.807,79.418,223.586z"/>
<radialGradient id="SVGID_22_" cx="552.7286" cy="258.793" r="191.28" gradientTransform="matrix(1.0039 0 0 -1.0039 0.1922 516.5609)" gradientUnits="userSpaceOnUse">
	<stop  offset="0" style="stop-color:#FF9111"/>
	<stop  offset="0.168" style="stop-color:#FF961A;stop-opacity:0.832"/>
	<stop  offset="0.447" style="stop-color:#FFA534;stop-opacity:0.553"/>
	<stop  offset="0.8" style="stop-color:#FFBD5D;stop-opacity:0.2"/>
	<stop  offset="1" style="stop-color:#FFCD77;stop-opacity:0"/>
</radialGradient>
<path style="fill:url(#SVGID_22_);" d="M385.731,169.629c3.96-1.165,7.595-2.821,11.129-4.625c3.522-1.824,6.916-3.84,10.2-6.023
	c3.284-2.181,6.453-4.535,9.495-7.08c3.029-2.564,5.957-5.28,8.555-8.491c-3.964,1.159-7.6,2.813-11.134,4.618
	c-3.522,1.824-6.916,3.84-10.195,6.029c-3.28,2.188-6.449,4.541-9.491,7.087C391.262,163.71,388.333,166.423,385.731,169.629z"/>
<radialGradient id="SVGID_23_" cx="255.0586" cy="60.613" r="191.28" gradientTransform="matrix(1.0039 0 0 -1.0039 0.1922 516.5609)" gradientUnits="userSpaceOnUse">
	<stop  offset="0" style="stop-color:#FF9111"/>
	<stop  offset="0.168" style="stop-color:#FF961A;stop-opacity:0.832"/>
	<stop  offset="0.447" style="stop-color:#FFA534;stop-opacity:0.553"/>
	<stop  offset="0.8" style="stop-color:#FFBD5D;stop-opacity:0.2"/>
	<stop  offset="1" style="stop-color:#FFCD77;stop-opacity:0"/>
</radialGradient>
<path style="fill:url(#SVGID_23_);" d="M126.269,342.371c-3.965,1.159-7.601,2.812-11.134,4.618
	c-3.522,1.824-6.916,3.84-10.195,6.029c-3.28,2.188-6.449,4.541-9.49,7.087c-3.028,2.565-5.957,5.28-8.559,8.484
	c3.96-1.165,7.595-2.82,11.129-4.625c3.522-1.823,6.916-3.84,10.199-6.023c3.284-2.181,6.454-4.535,9.495-7.08
	C120.743,348.299,123.671,345.583,126.269,342.371z"/>
<radialGradient id="SVGID_24_" cx="453.1586" cy="-39.257" r="191.78" gradientTransform="matrix(1.0039 0 0 -1.0039 0.1922 516.5609)" gradientUnits="userSpaceOnUse">
	<stop  offset="0" style="stop-color:#FF9111"/>
	<stop  offset="0.168" style="stop-color:#FF961A;stop-opacity:0.832"/>
	<stop  offset="0.447" style="stop-color:#FFA534;stop-opacity:0.553"/>
	<stop  offset="0.8" style="stop-color:#FFBD5D;stop-opacity:0.2"/>
	<stop  offset="1" style="stop-color:#FFCD77;stop-opacity:0"/>
</radialGradient>
<path style="fill:url(#SVGID_24_);" d="M357.942,403.781c-2.188-3.28-4.541-6.449-7.087-9.491c-2.566-3.028-5.28-5.957-8.484-8.56
	c1.165,3.96,2.821,7.595,4.625,11.129c1.824,3.522,3.84,6.916,6.023,10.2c2.181,3.284,4.535,6.453,7.08,9.495
	c2.564,3.029,5.28,5.957,8.491,8.555c-1.159-3.966-2.812-7.6-4.618-11.134C362.148,410.454,360.131,407.061,357.942,403.781z"/>
<radialGradient id="SVGID_25_" cx="254.9786" cy="258.413" r="191.78" gradientTransform="matrix(1.0039 0 0 -1.0039 0.1922 516.5609)" gradientUnits="userSpaceOnUse">
	<stop  offset="0" style="stop-color:#FF9111"/>
	<stop  offset="0.168" style="stop-color:#FF961A;stop-opacity:0.832"/>
	<stop  offset="0.447" style="stop-color:#FFA534;stop-opacity:0.553"/>
	<stop  offset="0.8" style="stop-color:#FFBD5D;stop-opacity:0.2"/>
	<stop  offset="1" style="stop-color:#FFCD77;stop-opacity:0"/>
</radialGradient>
<path style="fill:url(#SVGID_25_);" d="M154.058,108.219c2.181,3.284,4.535,6.454,7.08,9.495c2.564,3.029,5.28,5.957,8.491,8.555
	c-1.159-3.965-2.813-7.6-4.618-11.134c-1.824-3.522-3.84-6.916-6.03-10.195c-2.188-3.28-4.541-6.449-7.087-9.491
	c-2.566-3.028-5.28-5.957-8.484-8.56c1.165,3.96,2.82,7.595,4.625,11.13C149.858,101.542,151.875,104.935,154.058,108.219z"/>
<radialGradient id="SVGID_26_" cx="450.6486" cy="258.413" r="191.79" gradientTransform="matrix(1.0039 0 0 -1.0039 0.1922 516.5609)" gradientUnits="userSpaceOnUse">
	<stop  offset="0" style="stop-color:#FF9111"/>
	<stop  offset="0.168" style="stop-color:#FF961A;stop-opacity:0.832"/>
	<stop  offset="0.447" style="stop-color:#FFA534;stop-opacity:0.553"/>
	<stop  offset="0.8" style="stop-color:#FFBD5D;stop-opacity:0.2"/>
	<stop  offset="1" style="stop-color:#FFCD77;stop-opacity:0"/>
</radialGradient>
<path style="fill:url(#SVGID_26_);" d="M349.692,116.918c2.521-3.062,4.847-6.251,7.007-9.549c2.161-3.298,4.149-6.708,5.943-10.245
	c1.776-3.549,3.399-7.198,4.525-11.173c-3.189,2.625-5.88,5.576-8.419,8.627c-2.52,3.063-4.847,6.251-7,9.554
	c-2.154,3.302-4.142,6.712-5.936,10.249c-1.774,3.55-3.399,7.198-4.531,11.169C344.463,122.919,347.152,119.968,349.692,116.918z"/>
<radialGradient id="SVGID_27_" cx="254.9686" cy="-40.917" r="191.79" gradientTransform="matrix(1.0039 0 0 -1.0039 0.1922 516.5609)" gradientUnits="userSpaceOnUse">
	<stop  offset="0" style="stop-color:#FF9111"/>
	<stop  offset="0.168" style="stop-color:#FF961A;stop-opacity:0.832"/>
	<stop  offset="0.447" style="stop-color:#FFA534;stop-opacity:0.553"/>
	<stop  offset="0.8" style="stop-color:#FFBD5D;stop-opacity:0.2"/>
	<stop  offset="1" style="stop-color:#FFCD77;stop-opacity:0"/>
</radialGradient>
<path style="fill:url(#SVGID_27_);" d="M162.301,395.077c-2.52,3.063-4.847,6.251-7,9.554c-2.154,3.302-4.142,6.712-5.936,10.249
	c-1.775,3.55-3.4,7.198-4.532,11.169c3.183-2.629,5.873-5.582,8.413-8.631c2.521-3.062,4.847-6.251,7.006-9.549
	c2.161-3.297,4.148-6.708,5.943-10.245c1.776-3.549,3.399-7.198,4.525-11.173C167.53,389.076,164.84,392.027,162.301,395.077z"/>
<radialGradient id="SVGID_28_" cx="554.3886" cy="63.123" r="191.27" gradientTransform="matrix(1.0039 0 0 -1.0039 0.1922 516.5609)" gradientUnits="userSpaceOnUse">
	<stop  offset="0" style="stop-color:#FF9111"/>
	<stop  offset="0.168" style="stop-color:#FF961A;stop-opacity:0.832"/>
	<stop  offset="0.447" style="stop-color:#FFA534;stop-opacity:0.553"/>
	<stop  offset="0.8" style="stop-color:#FFBD5D;stop-opacity:0.2"/>
	<stop  offset="1" style="stop-color:#FFCD77;stop-opacity:0"/>
</radialGradient>
<path style="fill:url(#SVGID_28_);" d="M417.423,358.747c-3.063-2.52-6.251-4.847-9.554-7c-3.302-2.154-6.712-4.142-10.25-5.936
	c-3.55-1.774-7.198-3.399-11.169-4.532c2.629,3.183,5.581,5.872,8.631,8.412c3.063,2.521,6.252,4.847,9.55,7.007
	c3.297,2.161,6.708,4.149,10.245,5.943c3.549,1.776,7.198,3.399,11.173,4.525C423.424,363.978,420.473,361.286,417.423,358.747z"/>
<radialGradient id="SVGID_29_" cx="255.0586" cy="258.803" r="191.27" gradientTransform="matrix(1.0039 0 0 -1.0039 0.1922 516.5609)" gradientUnits="userSpaceOnUse">
	<stop  offset="0" style="stop-color:#FF9111"/>
	<stop  offset="0.168" style="stop-color:#FF961A;stop-opacity:0.832"/>
	<stop  offset="0.447" style="stop-color:#FFA534;stop-opacity:0.553"/>
	<stop  offset="0.8" style="stop-color:#FFBD5D;stop-opacity:0.2"/>
	<stop  offset="1" style="stop-color:#FFCD77;stop-opacity:0"/>
</radialGradient>
<path style="fill:url(#SVGID_29_);" d="M94.581,153.246c3.063,2.521,6.252,4.847,9.55,7.007c3.298,2.16,6.708,4.149,10.245,5.943
	c3.549,1.776,7.198,3.399,11.173,4.525c-2.625-3.189-5.576-5.88-8.627-8.419c-3.063-2.52-6.252-4.847-9.554-7
	c-3.302-2.154-6.712-4.142-10.249-5.936c-3.55-1.774-7.198-3.399-11.169-4.531C88.58,148.016,91.532,150.706,94.581,153.246z"/>
<radialGradient id="SVGID_30_" cx="605.1186" cy="257.583" r="191.32" gradientTransform="matrix(1.0039 0 0 -1.0039 0.1922 516.5609)" gradientUnits="userSpaceOnUse">
	<stop  offset="0" style="stop-color:#FF9111"/>
	<stop  offset="0.168" style="stop-color:#FF961A;stop-opacity:0.832"/>
	<stop  offset="0.447" style="stop-color:#FFA534;stop-opacity:0.553"/>
	<stop  offset="0.8" style="stop-color:#FFBD5D;stop-opacity:0.2"/>
	<stop  offset="1" style="stop-color:#FFCD77;stop-opacity:0"/>
</radialGradient>
<path style="fill:url(#SVGID_30_);" d="M419.646,219.366c-3.765,1.256-7.493,2.685-11.101,4.693
	c4.11,0.392,8.099,0.206,12.051-0.155c3.947-0.383,7.849-0.994,11.708-1.798c3.86-0.803,7.677-1.81,11.447-3.042
	c3.766-1.254,7.493-2.685,11.099-4.701c-4.112-0.399-8.101-0.215-12.053,0.147c-3.947,0.384-7.848,0.993-11.706,1.806
	C427.233,217.128,423.416,218.133,419.646,219.366z"/>
<radialGradient id="SVGID_31_" cx="255.0986" cy="184.293" r="191.32" gradientTransform="matrix(1.0039 0 0 -1.0039 0.1922 516.5609)" gradientUnits="userSpaceOnUse">
	<stop  offset="0" style="stop-color:#FF9111"/>
	<stop  offset="0.168" style="stop-color:#FF961A;stop-opacity:0.832"/>
	<stop  offset="0.447" style="stop-color:#FFA534;stop-opacity:0.553"/>
	<stop  offset="0.8" style="stop-color:#FFBD5D;stop-opacity:0.2"/>
	<stop  offset="1" style="stop-color:#FFCD77;stop-opacity:0"/>
</radialGradient>
<path style="fill:url(#SVGID_31_);" d="M92.356,292.642c3.766-1.254,7.493-2.686,11.099-4.701
	c-4.111-0.399-8.101-0.215-12.053,0.147c-3.947,0.383-7.848,0.993-11.706,1.806c-3.858,0.811-7.676,1.817-11.446,3.05
	c-3.765,1.255-7.493,2.685-11.101,4.692c4.11,0.392,8.1,0.206,12.051-0.155c3.948-0.383,7.848-0.993,11.708-1.798
	C84.769,294.88,88.586,293.874,92.356,292.642z"/>
<radialGradient id="SVGID_32_" cx="329.8386" cy="-91.807" r="192.5" gradientTransform="matrix(1.0039 0 0 -1.0039 0.1922 516.5609)" gradientUnits="userSpaceOnUse">
	<stop  offset="0" style="stop-color:#FF9111"/>
	<stop  offset="0.168" style="stop-color:#FF961A;stop-opacity:0.832"/>
	<stop  offset="0.447" style="stop-color:#FFA534;stop-opacity:0.553"/>
	<stop  offset="0.8" style="stop-color:#FFBD5D;stop-opacity:0.2"/>
	<stop  offset="1" style="stop-color:#FFCD77;stop-opacity:0"/>
</radialGradient>
<path style="fill:url(#SVGID_32_);" d="M295.683,431.091c-0.811-3.858-1.817-7.676-3.05-11.445
	c-1.256-3.765-2.686-7.493-4.693-11.101c-0.392,4.11-0.206,8.099,0.155,12.051c0.383,3.947,0.993,7.848,1.798,11.708
	c0.803,3.859,1.809,7.677,3.042,11.447c1.254,3.766,2.685,7.493,4.7,11.099c0.399-4.111,0.215-8.101-0.147-12.053
	C297.106,438.849,296.496,434.949,295.683,431.091z"/>
<radialGradient id="SVGID_33_" cx="256.5486" cy="258.213" r="192.5" gradientTransform="matrix(1.0039 0 0 -1.0039 0.1922 516.5609)" gradientUnits="userSpaceOnUse">
	<stop  offset="0" style="stop-color:#FF9111"/>
	<stop  offset="0.168" style="stop-color:#FF961A;stop-opacity:0.832"/>
	<stop  offset="0.447" style="stop-color:#FFA534;stop-opacity:0.553"/>
	<stop  offset="0.8" style="stop-color:#FFBD5D;stop-opacity:0.2"/>
	<stop  offset="1" style="stop-color:#FFCD77;stop-opacity:0"/>
</radialGradient>
<path style="fill:url(#SVGID_33_);" d="M219.359,92.356c1.254,3.766,2.685,7.493,4.7,11.099c0.399-4.111,0.215-8.101-0.147-12.053
	c-0.384-3.947-0.994-7.848-1.806-11.706c-0.811-3.858-1.817-7.676-3.05-11.445c-1.256-3.765-2.685-7.494-4.693-11.101
	c-0.392,4.11-0.206,8.099,0.155,12.051c0.384,3.947,0.994,7.848,1.798,11.708C217.12,84.768,218.126,88.586,219.359,92.356z"/>
<radialGradient id="SVGID_34_" cx="215.0786" cy="327.093" r="255.61" gradientTransform="matrix(1.0039 0 0 -1.0039 0.1922 516.5609)" gradientUnits="userSpaceOnUse">
	<stop  offset="0" style="stop-color:#FEFFB3"/>
	<stop  offset="0.196" style="stop-color:#FEFEB0"/>
	<stop  offset="0.347" style="stop-color:#FEF9A6"/>
	<stop  offset="0.484" style="stop-color:#FEF296"/>
	<stop  offset="0.612" style="stop-color:#FEE87E"/>
	<stop  offset="0.733" style="stop-color:#FEDA60"/>
	<stop  offset="0.85" style="stop-color:#FFCA3C"/>
	<stop  offset="0.962" style="stop-color:#FFB611"/>
	<stop  offset="1" style="stop-color:#FFAF00"/>
</radialGradient>
<circle style="fill:url(#SVGID_34_);" cx="256" cy="256" r="158.83"/>
<g>
</g>
<g>
</g>
<g>
</g>
<g>
</g>
<g>
</g>
<g>
</g>
<g>
</g>
<g>
</g>
<g>
</g>
<g>
</g>
<g>
</g>
<g>
</g>
<g>
</g>
<g>
</g>
<g>
</g>
</svg>
