<?xml version="1.0" encoding="iso-8859-1"?>
<!-- Generator: Adobe Illustrator 19.0.0, SVG Export Plug-In . SVG Version: 6.00 Build 0)  -->
<svg version="1.1" id="Capa_1" xmlns="http://www.w3.org/2000/svg" xmlns:xlink="http://www.w3.org/1999/xlink" x="0px" y="0px"
	 viewBox="0 0 512 512" style="enable-background:new 0 0 512 512;" xml:space="preserve">
<linearGradient id="SVGID_1_" gradientUnits="userSpaceOnUse" x1="86.9993" y1="140.0076" x2="110.5267" y2="133.5128" gradientTransform="matrix(1.0039 0 0 -1.0039 0.1922 516.5609)">
	<stop  offset="0" style="stop-color:#605654"/>
	<stop  offset="0.351" style="stop-color:#5B5351"/>
	<stop  offset="0.745" style="stop-color:#4E4948"/>
	<stop  offset="1" style="stop-color:#413F40"/>
</linearGradient>
<path style="fill:url(#SVGID_1_);" d="M123.041,339.456l-44.976,83.898h-3.604l47.596-88.777
	C122.068,336.264,122.409,337.92,123.041,339.456z"/>
<linearGradient id="SVGID_2_" gradientUnits="userSpaceOnUse" x1="216.9088" y1="331.5805" x2="347.8301" y2="295.4001" gradientTransform="matrix(1.0039 0 0 -1.0039 0.1922 516.5609)">
	<stop  offset="0" style="stop-color:#EFFBFF"/>
	<stop  offset="0.181" style="stop-color:#DDF0F9"/>
	<stop  offset="0.483" style="stop-color:#C5E1F2"/>
	<stop  offset="0.763" style="stop-color:#B7D8EE"/>
	<stop  offset="1" style="stop-color:#B2D5EC"/>
</linearGradient>
<path style="fill:url(#SVGID_2_);" d="M255.509,2.161L119.691,332.409c-3.545,7.204,0.179,15.988,7.899,18.194
	c24.064,6.875,103.44,13.83,127.919,1.396L255.509,2.161z"/>
<linearGradient id="SVGID_3_" gradientUnits="userSpaceOnUse" x1="364.5057" y1="205.9111" x2="485.642" y2="172.4421" gradientTransform="matrix(1.0039 0 0 -1.0039 0.1922 516.5609)">
	<stop  offset="0" style="stop-color:#605654"/>
	<stop  offset="0.351" style="stop-color:#5B5351"/>
	<stop  offset="0.745" style="stop-color:#4E4948"/>
	<stop  offset="1" style="stop-color:#413F40"/>
</linearGradient>
<path style="fill:url(#SVGID_3_);" d="M465.66,423.354h-3.413l-66.47-167.273c-2.209-9.226-4.668-18.231-7.329-27.026
	L465.66,423.354z"/>
<linearGradient id="SVGID_4_" gradientUnits="userSpaceOnUse" x1="303.6106" y1="317.2374" x2="537.8943" y2="252.5091" gradientTransform="matrix(1.0039 0 0 -1.0039 0.1922 516.5609)">
	<stop  offset="0" style="stop-color:#EFFBFF"/>
	<stop  offset="0.181" style="stop-color:#DDF0F9"/>
	<stop  offset="0.483" style="stop-color:#C5E1F2"/>
	<stop  offset="0.763" style="stop-color:#B7D8EE"/>
	<stop  offset="1" style="stop-color:#B2D5EC"/>
</linearGradient>
<path style="fill:url(#SVGID_4_);" d="M255.677,4.791c0,0,151.646,136.303,156.337,348.581c0.135,6.109-4.473,11.287-10.554,11.88
	c-25.646,2.5-101.403,7.6-145.782-1.134L255.677,4.791L255.677,4.791z"/>
<linearGradient id="SVGID_5_" gradientUnits="userSpaceOnUse" x1="335.0244" y1="154.193" x2="335.0244" y2="149.113" gradientTransform="matrix(1.0039 0 0 -1.0039 0.1922 516.5609)">
	<stop  offset="0" style="stop-color:#FFA981"/>
	<stop  offset="0.428" style="stop-color:#FF8666"/>
	<stop  offset="1" style="stop-color:#FF5C45"/>
</linearGradient>
<path style="fill:url(#SVGID_5_);" d="M413.456,369.018H259.605c-3.815,0-6.908-3.093-6.908-6.908l0,0
	c0-3.815,3.093-6.908,6.908-6.908h153.851c3.815,0,6.908,3.093,6.908,6.908l0,0C420.363,365.925,417.271,369.018,413.456,369.018z"
	/>
<linearGradient id="SVGID_6_" gradientUnits="userSpaceOnUse" x1="287.8094" y1="194.109" x2="416.5594" y2="194.109" gradientTransform="matrix(1.0039 0 0 -1.0039 0.1922 516.5609)">
	<stop  offset="0" style="stop-color:#00FFF4"/>
	<stop  offset="1" style="stop-color:#00DBFF"/>
</linearGradient>
<path style="fill:url(#SVGID_6_);" d="M411.231,334.977H256.096v-26.572h152.695C409.837,317.12,410.661,325.976,411.231,334.977z"
	/>
<linearGradient id="SVGID_7_" gradientUnits="userSpaceOnUse" x1="286.9794" y1="224.909" x2="412.4694" y2="224.909" gradientTransform="matrix(1.0039 0 0 -1.0039 0.1922 516.5609)">
	<stop  offset="0" style="stop-color:#00FFF4"/>
	<stop  offset="1" style="stop-color:#00DBFF"/>
</linearGradient>
<path style="fill:url(#SVGID_7_);" d="M407.302,297.409H256.096v-13.278h149.066C405.939,288.52,406.652,292.94,407.302,297.409z"/>
<linearGradient id="SVGID_8_" gradientUnits="userSpaceOnUse" x1="249.4894" y1="299.46" x2="273.1494" y2="299.46" gradientTransform="matrix(1.0039 0 0 -1.0039 0.1922 516.5609)">
	<stop  offset="0" style="stop-color:#EFFBFF"/>
	<stop  offset="0.235" style="stop-color:#D5EBF7"/>
	<stop  offset="0.487" style="stop-color:#C2DFF1"/>
	<stop  offset="0.742" style="stop-color:#B6D7ED"/>
	<stop  offset="1" style="stop-color:#B2D5EC"/>
</linearGradient>
<path style="fill:url(#SVGID_8_);" d="M256.001,431.853L256.001,431.853c-4.026,0-7.288-3.263-7.288-7.288V7.288
	c0-4.026,3.263-7.288,7.288-7.288l0,0c4.026,0,7.288,3.263,7.288,7.288v417.276C263.289,428.59,260.027,431.853,256.001,431.853z"/>
<linearGradient id="SVGID_9_" gradientUnits="userSpaceOnUse" x1="267.894" y1="77.171" x2="18.214" y2="-5.549" gradientTransform="matrix(1.0039 0 0 -1.0039 0.1922 516.5609)">
	<stop  offset="0" style="stop-color:#EFFBFF"/>
	<stop  offset="0.235" style="stop-color:#D5EBF7"/>
	<stop  offset="0.487" style="stop-color:#C2DFF1"/>
	<stop  offset="0.742" style="stop-color:#B6D7ED"/>
	<stop  offset="1" style="stop-color:#B2D5EC"/>
</linearGradient>
<path style="fill:url(#SVGID_9_);" d="M248.258,421.658l39.171-25.128c13.238-8.492,28.635-13.006,44.362-13.006h86.405
	c12.072,0,21.858,9.786,21.858,21.858v16.277H248.258V421.658z"/>
<linearGradient id="SVGID_10_" gradientUnits="userSpaceOnUse" x1="254.8066" y1="83.083" x2="254.8066" y2="-28.967" gradientTransform="matrix(1.0039 0 0 -1.0039 0.1922 516.5609)">
	<stop  offset="0" style="stop-color:#FFA981"/>
	<stop  offset="0.428" style="stop-color:#FF8666"/>
	<stop  offset="1" style="stop-color:#FF5C45"/>
</linearGradient>
<path style="fill:url(#SVGID_10_);" d="M476.456,437.325c-0.012,0.02-0.024,0.04-0.036,0.059c-0.141,0.23-0.261,0.473-0.417,0.692
	c-0.554,0.776-1.189,1.474-1.918,2.076c-0.475,0.412-0.983,0.776-1.505,1.109c-0.222,0.143-0.428,0.269-0.666,0.38
	c-0.539,0.285-1.109,0.539-1.712,0.745c-2.107,0.729-4.532,1.616-7.146,2.662h-0.016c-12.517,4.992-29.376,13.706-36.664,26.318
	c-2.266,3.929-3.613,8.223-3.613,12.913l-1.806,2.075c-6.053,1.474-11.694,4.817-16.035,9.903c-0.143,0.175-0.301,0.348-0.46,0.491
	c-11.075,12.612-28.013,17.936-44.333,13.927c-9.079-2.219-17.112-7.146-23.229-14.276c-0.047-0.047-0.111-0.111-0.159-0.175
	c-5.831-6.829-14.324-10.743-23.323-10.743c-9.015,0-17.524,3.929-23.323,10.758c-8.572,9.982-20.963,15.702-34.019,15.75
	c-13.182,0-25.605-5.735-34.161-15.718c-5.847-6.861-14.339-10.774-23.339-10.774c-8.984,0-17.492,3.913-23.323,10.759
	c-0.143,0.175-0.301,0.348-0.46,0.507c-6.085,6.892-13.975,11.694-22.848,13.896c-3.628,0.904-7.288,1.331-10.917,1.331
	c-12.755,0-25.003-5.45-33.638-15.385c-0.11-0.11-0.222-0.222-0.317-0.332c-5.277-6.195-12.739-9.998-20.756-10.68l-0.951-1.315
	c0,0-7.067-3.85-16.004-10.552c-9.237-6.908-20.471-16.843-27.966-28.679c-0.554-0.887-1.093-1.79-1.616-2.694
	c-0.507-0.904-0.998-1.822-1.474-2.741c-0.222-0.46-0.46-0.935-0.682-1.394c-0.206-0.476-0.428-0.935-0.633-1.411
	c-0.206-0.475-0.412-0.951-0.602-1.426c-0.19-0.476-0.38-0.951-0.554-1.426c-0.808-2.139-1.442-4.326-1.901-6.544
	c-0.855-4.167,2.25-8.081,6.512-8.081h425.905c6.544,0,11.852,5.308,11.852,11.851c0,0.954-0.149,1.874-0.365,2.773h0.001
	c-0.001,0.003-0.002,0.005-0.002,0.008c-0.146,0.601-0.334,1.184-0.568,1.748c-0.002,0.005-0.004,0.01-0.006,0.015
	C477.034,436.283,476.765,436.814,476.456,437.325z"/>
<linearGradient id="SVGID_11_" gradientUnits="userSpaceOnUse" x1="416.6405" y1="38.5941" x2="266.7306" y2="188.5041" gradientTransform="matrix(1.0039 0 0 -1.0039 0.1922 516.5609)">
	<stop  offset="0" style="stop-color:#FF5C45;stop-opacity:0"/>
	<stop  offset="1" style="stop-color:#B82934"/>
</linearGradient>
<path style="fill:url(#SVGID_11_);" d="M404.466,496.75c0.159-0.143,0.317-0.317,0.46-0.491c4.341-5.086,9.982-8.429,16.035-9.903
	l1.806-2.075c0-4.69,1.346-8.984,3.613-12.913c7.288-12.612,24.147-21.327,36.664-26.318h0.016c2.614-1.046,5.039-1.934,7.146-2.662
	c0.602-0.206,1.173-0.46,1.712-0.745c0.238-0.111,0.444-0.238,0.666-0.38c0.523-0.332,1.03-0.697,1.505-1.109
	c0.729-0.602,1.362-1.299,1.918-2.076c0.156-0.219,0.276-0.463,0.417-0.692c0.012-0.02,0.024-0.04,0.036-0.059
	c0.309-0.511,0.578-1.043,0.809-1.597c0.002-0.005,0.004-0.01,0.006-0.015c0.234-0.565,0.423-1.146,0.568-1.748
	c0.001-0.003,0.002-0.005,0.002-0.008h-0.001c0.217-0.898,0.365-1.819,0.365-2.773c0-6.544-5.308-11.851-11.852-11.851H248.706
	l66.192,66.192c8.447,0.404,16.337,4.249,21.847,10.703c0.047,0.063,0.111,0.126,0.159,0.175
	c6.116,7.13,14.149,12.058,23.229,14.276C376.452,514.687,393.39,509.363,404.466,496.75z"/>
<linearGradient id="SVGID_12_" gradientUnits="userSpaceOnUse" x1="290.3994" y1="76.762" x2="435.8494" y2="76.762" gradientTransform="matrix(1.0039 0 0 -1.0039 0.1922 516.5609)">
	<stop  offset="0" style="stop-color:#EFFBFF"/>
	<stop  offset="0.235" style="stop-color:#D5EBF7"/>
	<stop  offset="0.487" style="stop-color:#C2DFF1"/>
	<stop  offset="0.742" style="stop-color:#B6D7ED"/>
	<stop  offset="1" style="stop-color:#B2D5EC"/>
</linearGradient>
<path style="fill:url(#SVGID_12_);" d="M35.844,433.952c1.418,3.846,3.315,7.553,5.556,11.091h421.658
	c2.609-1.042,5.037-1.928,7.143-2.649c3.892-1.333,6.706-4.565,7.638-8.442H35.844z"/>
<linearGradient id="SVGID_13_" gradientUnits="userSpaceOnUse" x1="370.6772" y1="80.5507" x2="302.5372" y2="148.6907" gradientTransform="matrix(1.0039 0 0 -1.0039 0.1922 516.5609)">
	<stop  offset="0" style="stop-color:#B2D5EC;stop-opacity:0"/>
	<stop  offset="1" style="stop-color:#7797B0"/>
</linearGradient>
<path style="fill:url(#SVGID_13_);" d="M274.417,445.043h188.641c1.72-0.687,3.348-1.298,4.87-1.847
	c0.789-0.286,1.557-0.56,2.277-0.809c0.57-0.195,1.107-0.439,1.62-0.705c0.297-0.156,0.585-0.322,0.865-0.501
	c0.483-0.313,0.955-0.647,1.395-1.028c0.014-0.012,0.026-0.026,0.04-0.038c0.986-0.865,1.804-1.896,2.453-3.032
	c0.183-0.318,0.345-0.649,0.498-0.983c0.084-0.186,0.175-0.367,0.25-0.557c0.169-0.425,0.306-0.861,0.425-1.306
	c0.026-0.096,0.064-0.187,0.087-0.284H263.325L274.417,445.043z"/>
<linearGradient id="SVGID_14_" gradientUnits="userSpaceOnUse" x1="103.1876" y1="54.7331" x2="15.9876" y2="34.3231" gradientTransform="matrix(1.0039 0 0 -1.0039 0.1922 516.5609)">
	<stop  offset="0" style="stop-color:#605654"/>
	<stop  offset="0.351" style="stop-color:#5B5351"/>
	<stop  offset="0.745" style="stop-color:#4E4948"/>
	<stop  offset="1" style="stop-color:#413F40"/>
</linearGradient>
<path style="fill:url(#SVGID_14_);" d="M391.908,412.488v-12.282c0-5.13-4.159-9.289-9.289-9.289h-54.662
	c-8.985,0-17.782,2.579-25.345,7.431l-20.088,12.887c-1.252,0.803-0.683,2.743,0.804,2.743H390.42
	C391.241,413.977,391.908,413.311,391.908,412.488z"/>
<linearGradient id="SVGID_15_" gradientUnits="userSpaceOnUse" x1="47.5791" y1="24.8069" x2="462.0354" y2="24.8069" gradientTransform="matrix(1.0039 0 0 -1.0039 0.1922 516.5609)">
	<stop  offset="0" style="stop-color:#00FFF4"/>
	<stop  offset="1" style="stop-color:#00DBFF"/>
</linearGradient>
<path style="fill:url(#SVGID_15_);" d="M141.038,512c-12.764,0-25.01-5.459-33.648-15.388c-0.108-0.11-0.215-0.226-0.316-0.344
	c-5.849-6.849-14.364-10.778-23.361-10.778c-6.201,0-12.175,1.849-17.272,5.346c-2.277,1.541-4.296,3.354-6.035,5.408
	c-2.518,2.977-6.971,3.348-9.948,0.829c-2.976-2.52-3.347-6.972-0.828-9.949c2.57-3.038,5.551-5.714,8.86-7.955
	c7.424-5.093,16.158-7.796,25.223-7.796c12.98,0,25.27,5.599,33.795,15.377c0.112,0.113,0.22,0.233,0.324,0.353
	c7.586,8.898,19.359,12.676,30.729,9.852c6.211-1.536,11.716-4.946,15.925-9.863c0.143-0.168,0.292-0.325,0.448-0.478
	c8.511-9.692,20.74-15.24,33.651-15.24c13.127,0,25.547,5.731,34.073,15.727c5.858,6.845,14.362,10.776,23.325,10.776
	c9.004-0.031,17.507-3.965,23.374-10.795c8.463-9.973,20.891-15.711,34.066-15.711c13.066,0,25.424,5.665,33.938,15.55
	c0.058,0.062,0.114,0.125,0.166,0.186c4.195,4.927,9.714,8.336,15.957,9.86c11.337,2.776,23.086-0.998,30.675-9.872
	c0.143-0.168,0.292-0.325,0.448-0.477c15.004-17.113,40.263-20.313,59.039-7.383c3.175,2.166,6.109,4.802,8.696,7.819
	c1.097,1.279,1.7,2.909,1.7,4.595c0,3.898-3.16,7.076-7.059,7.076c-2.313,0-4.365-1.106-5.652-2.819
	c-1.706-1.934-3.609-3.622-5.667-5.026c-12.994-8.951-30.493-6.628-40.732,5.382c-0.147,0.173-0.301,0.337-0.463,0.493
	c-11.086,12.603-28.015,17.938-44.341,13.924c-9.074-2.215-17.105-7.149-23.223-14.273c-0.055-0.06-0.106-0.118-0.155-0.174
	c-5.831-6.828-14.333-10.743-23.326-10.743c-9.022,0-17.526,3.922-23.33,10.761c-8.567,9.975-20.956,15.701-34.017,15.747
	c-13.188,0-25.601-5.731-34.151-15.723c-5.847-6.852-14.351-10.779-23.34-10.779c-8.988,0-17.492,3.927-23.332,10.773
	c-0.148,0.173-0.302,0.336-0.464,0.493c-6.079,6.904-13.961,11.705-22.835,13.9C148.321,511.56,144.659,512,141.038,512z"/>
<g>
</g>
<g>
</g>
<g>
</g>
<g>
</g>
<g>
</g>
<g>
</g>
<g>
</g>
<g>
</g>
<g>
</g>
<g>
</g>
<g>
</g>
<g>
</g>
<g>
</g>
<g>
</g>
<g>
</g>
</svg>
