<?xml version="1.0" encoding="iso-8859-1"?>
<!-- Generator: Adobe Illustrator 19.0.0, SVG Export Plug-In . SVG Version: 6.00 Build 0)  -->
<svg version="1.1" id="Capa_1" xmlns="http://www.w3.org/2000/svg" xmlns:xlink="http://www.w3.org/1999/xlink" x="0px" y="0px"
	 viewBox="0 0 512 512" style="enable-background:new 0 0 512 512;" xml:space="preserve">
<linearGradient id="SVGID_1_" gradientUnits="userSpaceOnUse" x1="129.0866" y1="417.6628" x2="129.0866" y2="410.7028" gradientTransform="matrix(1.0039 0 0 -1.0039 0.1922 516.5605)">
	<stop  offset="0" style="stop-color:#FEFFB3"/>
	<stop  offset="1" style="stop-color:#FFCD77"/>
</linearGradient>
<rect x="103.344" y="93.455" style="fill:url(#SVGID_1_);" width="52.883" height="15.255"/>
<linearGradient id="SVGID_2_" gradientUnits="userSpaceOnUse" x1="111.6299" y1="405.7141" x2="93.8999" y2="423.4341" gradientTransform="matrix(1.0039 0 0 -1.0039 0.1922 516.5605)">
	<stop  offset="0" style="stop-color:#FF9111;stop-opacity:0"/>
	<stop  offset="1" style="stop-color:#F26500"/>
</linearGradient>
<polygon style="fill:url(#SVGID_2_);" points="104.816,93.451 103.34,93.451 103.34,108.705 120.071,108.705 "/>
<linearGradient id="SVGID_3_" gradientUnits="userSpaceOnUse" x1="97.8453" y1="445.7953" x2="102.9153" y2="402.9753" gradientTransform="matrix(1.0039 0 0 -1.0039 0.1922 516.5605)">
	<stop  offset="0" style="stop-color:#605654"/>
	<stop  offset="1" style="stop-color:#413F40"/>
</linearGradient>
<path style="fill:url(#SVGID_3_);" d="M102.217,110.834L102.217,110.834c1.443,0,2.612-1.17,2.612-2.612V93.935
	c0-1.443-1.17-2.612-2.612-2.612l0,0c-1.443,0-2.612,1.17-2.612,2.612v14.287C99.605,109.664,100.775,110.834,102.217,110.834z"/>
<linearGradient id="SVGID_4_" gradientUnits="userSpaceOnUse" x1="174.5256" y1="426.5438" x2="174.5256" y2="405.6728" gradientTransform="matrix(1.0039 0 0 -1.0039 0.1922 516.5605)">
	<stop  offset="0" style="stop-color:#605654"/>
	<stop  offset="1" style="stop-color:#413F40"/>
</linearGradient>
<path style="fill:url(#SVGID_4_);" d="M207.176,122.681H156.42c-7.065,0-12.792-5.727-12.792-12.792V94.857
	c0-6.572,4.979-12.074,11.519-12.728l52.028-5.203v45.755H207.176z"/>
<linearGradient id="SVGID_5_" gradientUnits="userSpaceOnUse" x1="380.5366" y1="417.6628" x2="380.5366" y2="410.7028" gradientTransform="matrix(1.0039 0 0 -1.0039 0.1922 516.5605)">
	<stop  offset="0" style="stop-color:#FEFFB3"/>
	<stop  offset="1" style="stop-color:#FFCD77"/>
</linearGradient>
<rect x="355.78" y="93.455" style="fill:url(#SVGID_5_);" width="52.883" height="15.255"/>
<linearGradient id="SVGID_6_" gradientUnits="userSpaceOnUse" x1="411.771" y1="445.7954" x2="406.701" y2="402.9754" gradientTransform="matrix(1.0039 0 0 -1.0039 0.1922 516.5605)">
	<stop  offset="0" style="stop-color:#605654"/>
	<stop  offset="1" style="stop-color:#413F40"/>
</linearGradient>
<path style="fill:url(#SVGID_6_);" d="M409.782,110.834L409.782,110.834c-1.443,0-2.612-1.17-2.612-2.612V93.935
	c0-1.443,1.17-2.612,2.612-2.612l0,0c1.443,0,2.612,1.17,2.612,2.612v14.287C412.395,109.664,411.225,110.834,409.782,110.834z"/>
<linearGradient id="SVGID_7_" gradientUnits="userSpaceOnUse" x1="381.6975" y1="400.3511" x2="344.5275" y2="423.9611" gradientTransform="matrix(1.0039 0 0 -1.0039 0.1922 516.5605)">
	<stop  offset="0" style="stop-color:#FF9111;stop-opacity:0"/>
	<stop  offset="1" style="stop-color:#F26500"/>
</linearGradient>
<polygon style="fill:url(#SVGID_7_);" points="355.778,108.705 383.549,108.705 368.297,93.452 368.296,93.451 355.778,93.451 "/>
<linearGradient id="SVGID_8_" gradientUnits="userSpaceOnUse" x1="335.0916" y1="426.5438" x2="335.0916" y2="405.6728" gradientTransform="matrix(1.0039 0 0 -1.0039 0.1922 516.5605)">
	<stop  offset="0" style="stop-color:#605654"/>
	<stop  offset="1" style="stop-color:#413F40"/>
</linearGradient>
<path style="fill:url(#SVGID_8_);" d="M304.824,122.681h50.756c7.065,0,12.792-5.727,12.792-12.792V94.857
	c0-6.572-4.979-12.074-11.519-12.728l-52.028-5.203L304.824,122.681L304.824,122.681z"/>
<linearGradient id="SVGID_9_" gradientUnits="userSpaceOnUse" x1="348.7671" y1="378.8711" x2="306.0871" y2="417.1211" gradientTransform="matrix(1.0039 0 0 -1.0039 0.1922 516.5605)">
	<stop  offset="0" style="stop-color:#413F40;stop-opacity:0"/>
	<stop  offset="1" style="stop-color:#413F40"/>
</linearGradient>
<path style="fill:url(#SVGID_9_);" d="M359.555,121.987l-43.732-43.732l0.003-0.229l-11.001-1.1v45.755h50.756
	C356.976,122.681,358.296,122.401,359.555,121.987z"/>
<linearGradient id="SVGID_10_" gradientUnits="userSpaceOnUse" x1="254.8075" y1="445.9828" x2="254.8075" y2="403.1628" gradientTransform="matrix(1.0039 0 0 -1.0039 0.1922 516.5605)">
	<stop  offset="0" style="stop-color:#605654"/>
	<stop  offset="1" style="stop-color:#413F40"/>
</linearGradient>
<path style="fill:url(#SVGID_10_);" d="M316.99,139.29c-39.571-10.844-82.384-9.55-121.981,0c-1.449-5.643-2.898-11.287-4.347-16.93
	c-9.934-38.687,19.026-76.22,58.961-76.909c4.245-0.073,8.487-0.073,12.733,0c39.944,0.689,68.915,38.214,58.98,76.908
	C319.889,128.003,318.44,133.647,316.99,139.29z"/>
<linearGradient id="SVGID_11_" gradientUnits="userSpaceOnUse" x1="254.8086" y1="460.4828" x2="254.8086" y2="317.4428" gradientTransform="matrix(1.0039 0 0 -1.0039 0.1922 516.5605)">
	<stop  offset="0" style="stop-color:#FEFFB3"/>
	<stop  offset="1" style="stop-color:#FFCD77"/>
</linearGradient>
<path style="fill:url(#SVGID_11_);" d="M415.16,160.973c-29.672-17.178-86.68-40.575-86.68-40.575H256h-72.48
	c0,0-57.009,23.396-86.68,40.575c-29.672,17.178,60.75,117.517,60.75,117.517H256h98.409
	C354.409,278.491,444.832,178.152,415.16,160.973z"/>
<linearGradient id="SVGID_12_" gradientUnits="userSpaceOnUse" x1="376.4189" y1="266.0334" x2="190.489" y2="396.8433" gradientTransform="matrix(1.0039 0 0 -1.0039 0.1922 516.5605)">
	<stop  offset="0" style="stop-color:#FF9111;stop-opacity:0"/>
	<stop  offset="1" style="stop-color:#F26500"/>
</linearGradient>
<path style="fill:url(#SVGID_12_);" d="M415.16,160.973c-29.672-17.178-86.68-40.575-86.68-40.575h-72.131v158.093h98.061
	C354.409,278.491,444.832,178.152,415.16,160.973z"/>
<linearGradient id="SVGID_13_" gradientUnits="userSpaceOnUse" x1="393.8802" y1="210.2299" x2="17.2703" y2="502.4149" gradientTransform="matrix(1.0039 0 0 -1.0039 0.1922 516.5605)">
	<stop  offset="0" style="stop-color:#FF9111;stop-opacity:0"/>
	<stop  offset="1" style="stop-color:#F26500"/>
</linearGradient>
<path style="fill:url(#SVGID_13_);" d="M256,236.157c-59.241,0-121.909-37.588-164.184-69.243
	c-10.172,27.294,65.775,111.577,65.775,111.577H256h98.409c0,0,75.947-84.283,65.775-111.577
	C377.909,198.57,315.24,236.157,256,236.157z"/>
<linearGradient id="SVGID_14_" gradientUnits="userSpaceOnUse" x1="254.8096" y1="440.0528" x2="254.8096" y2="286.3028" gradientTransform="matrix(1.0039 0 0 -1.0039 0.1922 516.5605)">
	<stop  offset="0" style="stop-color:#FEFFB3"/>
	<stop  offset="1" style="stop-color:#FFCD77"/>
</linearGradient>
<path style="fill:url(#SVGID_14_);" d="M284.338,89.759l-8.003,8.003c-11.23,11.23-29.438,11.23-40.668,0l-8.003-8.003
	c-3.729-3.73-9.775-3.73-13.504,0l-30.639,30.639c0,0,37.965,101.241,72.48,101.241c34.514,0,72.48-101.241,72.48-101.241
	l-30.639-30.639C294.112,86.031,288.066,86.031,284.338,89.759z"/>
<linearGradient id="SVGID_15_" gradientUnits="userSpaceOnUse" x1="323.5572" y1="291.1777" x2="243.4472" y2="421.9877" gradientTransform="matrix(1.0039 0 0 -1.0039 0.1922 516.5605)">
	<stop  offset="0" style="stop-color:#FF9111;stop-opacity:0"/>
	<stop  offset="1" style="stop-color:#F26500"/>
</linearGradient>
<path style="fill:url(#SVGID_15_);" d="M256.349,221.608c34.42-0.677,72.131-101.21,72.131-101.21l-30.639-30.639
	c-3.73-3.729-9.775-3.729-13.504,0l-8.003,8.003c-5.526,5.527-12.743,8.318-19.985,8.406V221.608z"/>
<linearGradient id="SVGID_16_" gradientUnits="userSpaceOnUse" x1="254.8086" y1="130.8328" x2="254.8086" y2="56.9528" gradientTransform="matrix(1.0039 0 0 -1.0039 0.1922 516.5605)">
	<stop  offset="0" style="stop-color:#605654"/>
	<stop  offset="1" style="stop-color:#413F40"/>
</linearGradient>
<path style="fill:url(#SVGID_16_);" d="M512,336.438c0,0,0,0-0.012,0.012c-0.788,1.103-48.761,67.89-133.562,109.29
	c-5.931,2.899-12.045,5.677-18.34,8.284c-2.256-1.892-4.379-3.979-6.332-6.258c-0.073-0.073-0.134-0.146-0.195-0.206
	c-7.035-8.248-17.31-12.979-28.177-12.979c-10.905,0-21.179,4.73-28.19,13.003c-10.286,11.984-25.157,18.898-40.841,19.019h-0.255
	c-15.938,0-30.931-6.926-41.265-18.995c-7.072-8.284-17.346-13.028-28.202-13.028s-21.131,4.743-28.19,13.016
	c-0.182,0.206-0.364,0.413-0.558,0.594c-1.855,2.11-3.857,4.064-5.98,5.835c-6.284-2.608-12.396-5.386-18.328-8.284
	C48.774,404.341,0.8,337.554,0.012,336.451C0,336.438,0,336.438,0,336.438H512z"/>
<linearGradient id="SVGID_17_" gradientUnits="userSpaceOnUse" x1="315.0103" y1="126.4586" x2="97.5503" y2="164.7086" gradientTransform="matrix(1.0039 0 0 -1.0039 0.1922 516.5605)">
	<stop  offset="0" style="stop-color:#413F40;stop-opacity:0"/>
	<stop  offset="1" style="stop-color:#413F40"/>
</linearGradient>
<path style="fill:url(#SVGID_17_);" d="M512,336.438c0,0,0,0-0.012,0.012c-0.788,1.103-48.761,67.89-133.562,109.29
	c-5.931,2.899-12.045,5.677-18.34,8.284c-2.256-1.892-4.379-3.979-6.332-6.258c-0.073-0.073-0.134-0.146-0.195-0.206
	c-7.035-8.248-17.31-12.979-28.177-12.979c-10.905,0-21.179,4.73-28.19,13.003c-10.286,11.984-25.157,18.898-40.841,19.019V336.438
	H512z"/>
<linearGradient id="SVGID_18_" gradientUnits="userSpaceOnUse" x1="254.8076" y1="204.1228" x2="254.8076" y2="87.2428" gradientTransform="matrix(1.0039 0 0 -1.0039 0.1922 516.5605)">
	<stop  offset="0" style="stop-color:#EFFBFF"/>
	<stop  offset="0.317" style="stop-color:#D7ECF8"/>
	<stop  offset="0.747" style="stop-color:#BCDBEF"/>
	<stop  offset="1" style="stop-color:#B2D5EC"/>
</linearGradient>
<path style="fill:url(#SVGID_18_);" d="M204.237,240.341c-63.263,10.284-166.543,35.88-204.233,96.095
	c0,0,75.557,26.518,255.995,26.518s255.995-26.518,255.995-26.518c-37.69-60.215-140.969-85.811-204.233-96.095
	C273.392,234.754,238.608,234.754,204.237,240.341z"/>
<linearGradient id="SVGID_19_" gradientUnits="userSpaceOnUse" x1="254.8086" y1="168.9628" x2="254.8086" y2="132.4928" gradientTransform="matrix(1.0039 0 0 -1.0039 0.1922 516.5605)">
	<stop  offset="0" style="stop-color:#EFFBFF"/>
	<stop  offset="0.317" style="stop-color:#D7ECF8"/>
	<stop  offset="0.747" style="stop-color:#BCDBEF"/>
	<stop  offset="1" style="stop-color:#B2D5EC"/>
</linearGradient>
<path style="fill:url(#SVGID_19_);" d="M511.99,336.444c0,0-75.551,26.506-255.99,26.506S0.01,336.444,0.01,336.444
	c1.412-2.262,2.918-4.471,4.512-6.629c3.661-4.958,9.11-7.234,14.448-6.181c32.408,6.393,107.838,17.665,237.03,17.665
	s204.621-11.272,237.03-17.665c5.339-1.053,10.787,1.223,14.448,6.181C509.071,331.973,510.578,334.182,511.99,336.444z"/>
<linearGradient id="SVGID_20_" gradientUnits="userSpaceOnUse" x1="106.0186" y1="216.1578" x2="315.0386" y2="216.1578" gradientTransform="matrix(1.0039 0 0 -1.0039 0.1922 516.5605)">
	<stop  offset="0" style="stop-color:#7797B0"/>
	<stop  offset="1" style="stop-color:#B2D5EC;stop-opacity:0"/>
</linearGradient>
<path style="fill:url(#SVGID_20_);" d="M256.349,236.157v126.795c180.184-0.034,255.646-26.517,255.646-26.517
	c-37.69-60.215-140.969-85.811-204.232-96.095C290.694,237.566,273.521,236.176,256.349,236.157z"/>
<linearGradient id="SVGID_21_" gradientUnits="userSpaceOnUse" x1="307.4489" y1="220.0529" x2="275.1389" y2="407.2029" gradientTransform="matrix(1.0039 0 0 -1.0039 0.1922 516.5605)">
	<stop  offset="0" style="stop-color:#B2D5EC;stop-opacity:0"/>
	<stop  offset="1" style="stop-color:#7797B0"/>
</linearGradient>
<path style="fill:url(#SVGID_21_);" d="M157.59,249.623l117.549,117.549c79.233-0.541,141.248-4.397,187.814-9.006L354.409,249.623
	l-0.015-0.022c-11.953-1.956-23.349-3.605-33.845-4.973c-42.861-5.588-86.237-5.588-129.098,0
	c-10.501,1.369-21.906,3.02-33.864,4.976L157.59,249.623z"/>
<linearGradient id="SVGID_22_" gradientUnits="userSpaceOnUse" x1="316.9767" y1="203.6309" x2="243.7067" y2="277.7709" gradientTransform="matrix(1.0039 0 0 -1.0039 0.1922 516.5605)">
	<stop  offset="0" style="stop-color:#B2D5EC;stop-opacity:0"/>
	<stop  offset="1" style="stop-color:#7797B0"/>
</linearGradient>
<path style="fill:url(#SVGID_22_);" d="M233.786,302.593c0.573,0.812,1.261,1.511,2.019,2.111l62.206,62.206
	c68.383-1.054,122.964-4.588,164.942-8.744L354.409,249.623l-0.015-0.022c-11.953-1.956-23.349-3.605-33.845-4.973
	c-42.861-5.588-86.237-5.588-129.098,0c-10.496,1.368-21.896,3.018-33.848,4.973c-0.001,0.001-0.013,0.021-0.013,0.021
	C192.259,254.331,217.534,279.551,233.786,302.593z"/>
<linearGradient id="SVGID_23_" gradientUnits="userSpaceOnUse" x1="254.8086" y1="301.6228" x2="254.8086" y2="179.7628" gradientTransform="matrix(1.0039 0 0 -1.0039 0.1922 516.5605)">
	<stop  offset="0" style="stop-color:#EFFBFF"/>
	<stop  offset="0.317" style="stop-color:#D7ECF8"/>
	<stop  offset="0.747" style="stop-color:#BCDBEF"/>
	<stop  offset="1" style="stop-color:#B2D5EC"/>
</linearGradient>
<path style="fill:url(#SVGID_23_);" d="M242.624,306.963c8.916-0.239,17.837-0.239,26.753,0c3.499,0.093,6.821-1.51,8.838-4.37
	c16.252-23.042,41.526-48.262,76.196-52.97c0,0-22.142-38.544-98.409-38.544s-98.409,38.544-98.409,38.544
	c34.669,4.708,59.943,29.928,76.196,52.97C235.803,305.453,239.125,307.056,242.624,306.963z"/>
<linearGradient id="SVGID_24_" gradientUnits="userSpaceOnUse" x1="291.9484" y1="248.6024" x2="249.6584" y2="269.6324" gradientTransform="matrix(1.0039 0 0 -1.0039 0.1922 516.5605)">
	<stop  offset="0" style="stop-color:#B2D5EC;stop-opacity:0"/>
	<stop  offset="1" style="stop-color:#7797B0"/>
</linearGradient>
<path style="fill:url(#SVGID_24_);" d="M340.188,252.858l-35.376-35.376c-13.033-3.818-29.102-6.403-48.812-6.403
	c-19.499,0-35.44,2.528-48.398,6.278c-0.004,0.006-0.014,0.021-0.014,0.021l0,0c7.878,2.087,14.167,8.014,16.716,15.756l0.153,0.463
	c0.194,0.311,0.389,0.622,0.581,0.941c-0.078,0.108-0.119,0.171-0.119,0.171c0.098,0.036,0.194,0.084,0.292,0.121
	c8.332,13.902,14.939,33.69,19.863,52.399c0.767,2.916,1.919,4.828,3.199,5.493l14.147,14.147c2.319,0.03,4.639,0.031,6.958,0.093
	c3.496,0.093,6.814-1.5,8.829-4.358C292.143,282.842,312.74,261.513,340.188,252.858z"/>
<linearGradient id="SVGID_25_" gradientUnits="userSpaceOnUse" x1="254.8086" y1="312.1228" x2="254.8086" y2="194.7428" gradientTransform="matrix(1.0039 0 0 -1.0039 0.1922 516.5605)">
	<stop  offset="0" style="stop-color:#EFFBFF"/>
	<stop  offset="0.317" style="stop-color:#D7ECF8"/>
	<stop  offset="0.747" style="stop-color:#BCDBEF"/>
	<stop  offset="1" style="stop-color:#B2D5EC"/>
</linearGradient>
<path style="fill:url(#SVGID_25_);" d="M249.419,292.991c4.386-0.315,8.774-0.315,13.16,0c1.722,0.123,3.355-1.992,4.348-5.764
	c7.995-30.386,20.429-63.642,37.484-69.851c0,0-10.893-16.737-48.412-16.737s-48.412,16.737-48.412,16.737
	c17.056,6.208,29.489,39.465,37.484,69.851C246.064,291.001,247.699,293.116,249.419,292.991z"/>
<linearGradient id="SVGID_26_" gradientUnits="userSpaceOnUse" x1="211.7186" y1="268.6848" x2="271.6386" y2="268.6848" gradientTransform="matrix(1.0039 0 0 -1.0039 0.1922 516.5605)">
	<stop  offset="0" style="stop-color:#7797B0"/>
	<stop  offset="1" style="stop-color:#B2D5EC;stop-opacity:0"/>
</linearGradient>
<path style="fill:url(#SVGID_26_);" d="M256.436,292.771c2.048,0.01,4.097,0.073,6.145,0.221c1.721,0.123,3.355-1.992,4.348-5.764
	c7.995-30.386,20.429-63.642,37.484-69.851c0,0-10.815-16.6-47.976-16.731L256.436,292.771L256.436,292.771z"/>
<linearGradient id="SVGID_27_" gradientUnits="userSpaceOnUse" x1="4.4244" y1="74.2407" x2="505.1926" y2="74.2407" gradientTransform="matrix(1.0039 0 0 -1.0039 0.1922 516.5605)">
	<stop  offset="0" style="stop-color:#00FFF4"/>
	<stop  offset="1" style="stop-color:#00DBFF"/>
</linearGradient>
<path style="fill:url(#SVGID_27_);" d="M507.366,442.016c0,4.718-3.821,8.551-8.527,8.551c-2.802,0-5.277-1.334-6.829-3.408
	c-2.062-2.329-4.367-4.379-6.854-6.065c-15.696-10.82-36.838-8.005-49.21,6.501c-0.182,0.206-0.364,0.401-0.558,0.594
	c-13.391,15.222-33.854,21.676-53.577,16.824c-8.066-1.977-15.453-5.713-21.725-10.99c-2.256-1.892-4.379-3.979-6.332-6.258
	c-0.073-0.073-0.134-0.146-0.195-0.206c-7.035-8.248-17.31-12.979-28.177-12.979c-10.905,0-21.179,4.73-28.19,13.003
	c-10.286,11.984-25.157,18.898-40.841,19.019h-0.255c-15.938,0-30.931-6.926-41.265-18.995
	c-7.072-8.284-17.346-13.028-28.202-13.028c-10.856,0-21.131,4.743-28.19,13.016c-0.182,0.206-0.364,0.413-0.558,0.594
	c-1.855,2.11-3.857,4.064-5.98,5.835c-6.258,5.24-13.609,8.976-21.615,10.966c-4.391,1.091-8.818,1.613-13.186,1.613
	c-15.429,0-30.227-6.587-40.659-18.583c-0.134-0.134-0.255-0.279-0.389-0.425c-7.06-8.272-17.346-13.016-28.226-13.016
	c-7.484,0-14.701,2.232-20.863,6.453c-2.754,1.868-5.191,4.052-7.29,6.538c-3.045,3.59-8.418,4.039-12.021,1.007
	c-3.59-3.045-4.04-8.43-1.007-12.021c3.117-3.675,6.708-6.914,10.711-9.619c8.976-6.15,19.529-9.413,30.47-9.413
	c15.684,0,30.543,6.756,40.842,18.571c0.134,0.146,0.267,0.279,0.389,0.425c9.17,10.759,23.386,15.32,37.129,11.912
	c2.584-0.63,5.046-1.541,7.387-2.693c4.501-2.208,8.515-5.325,11.851-9.231c0.17-0.194,0.351-0.388,0.546-0.57
	c10.286-11.718,25.06-18.413,40.659-18.413c15.866,0,30.871,6.926,41.169,18.995c7.072,8.272,17.358,13.028,28.177,13.028h0.376
	c10.747-0.146,20.863-4.888,27.874-13.04c10.225-12.057,25.243-18.983,41.157-18.983c15.781,0,30.713,6.842,40.999,18.777
	c0.073,0.085,0.146,0.158,0.206,0.231c3.324,3.906,7.339,7.023,11.838,9.207c2.365,1.165,4.852,2.074,7.436,2.705
	c13.707,3.36,27.899-1.201,37.069-11.924c0.17-0.206,0.351-0.401,0.546-0.582c18.122-20.67,48.64-24.539,71.324-8.916
	c3.845,2.62,7.387,5.798,10.516,9.449C506.638,438.014,507.366,439.979,507.366,442.016z"/>
<g>
</g>
<g>
</g>
<g>
</g>
<g>
</g>
<g>
</g>
<g>
</g>
<g>
</g>
<g>
</g>
<g>
</g>
<g>
</g>
<g>
</g>
<g>
</g>
<g>
</g>
<g>
</g>
<g>
</g>
</svg>
