<?xml version="1.0" encoding="iso-8859-1"?>
<!-- Generator: Adobe Illustrator 19.0.0, SVG Export Plug-In . SVG Version: 6.00 Build 0)  -->
<svg version="1.1" id="Capa_1" xmlns="http://www.w3.org/2000/svg" xmlns:xlink="http://www.w3.org/1999/xlink" x="0px" y="0px"
	 viewBox="0 0 512 512" style="enable-background:new 0 0 512 512;" xml:space="preserve">
<g>
	<path style="fill:#00DBFF;" d="M70.8,369.103c-9.526-15.101-18.312-26.556-26.807-37.634
		c-11.878-15.49-23.098-30.121-32.949-51.026C-8.36,239.26-2.173,201.99,29.431,169.668c23.231-23.757,40.99-56.542,41.167-56.87
		l10.155,5.459c-0.752,1.397-18.682,34.522-43.078,59.471c-28.282,28.923-33.581,60.913-16.2,97.8
		c9.321,19.785,19.677,33.289,31.668,48.924c8.653,11.284,17.601,22.952,27.409,38.498L70.8,369.103z"/>
	<path style="fill:#00DBFF;" d="M453.085,369.191l-10.422-4.932l1.039-2.199c7.899-16.726,28.88-61.159,45.935-83.212
		c7.481-9.673,11.7-28.352,10.746-47.588c-1.075-21.704-8.398-41.026-20.094-53.013c-22.748-23.313-37.192-60.479-37.797-62.049
		l10.761-4.137c0.141,0.362,14.221,36.546,35.288,58.135c30.701,31.464,28.145,92.523,10.216,115.706
		c-16.287,21.059-36.878,64.666-44.629,81.081L453.085,369.191z"/>
	<path style="fill:#00DBFF;" d="M247.205,491.849c-21.36,0-43.797-9.421-62.983-27.279c-24.115-22.446-51.805-34.06-52.082-34.174
		l4.412-10.651c1.209,0.501,29.903,12.54,55.524,36.386c24.698,22.989,55.055,30.24,79.223,18.919
		c22.545-10.558,39.578-10.507,54.623-10.464c4.318,0.012,8.398,0.024,12.485-0.203c6.573-0.364,10.99-5.799,18.231-15.371
		c7.082-9.36,15.895-21.008,31.102-29.039l5.384,10.196c-12.944,6.835-20.566,16.91-27.292,25.801
		c-7.488,9.898-14.562,19.247-26.787,19.926c-4.425,0.246-8.867,0.233-13.158,0.22c-14.496-0.048-29.494-0.087-49.698,9.377
		C267.068,489.764,257.255,491.849,247.205,491.849z"/>
</g>
<g>
	<path style="fill:#B2D5EC;" d="M147.012,52.359l97.778,97.778c-37.166,6.865-66.513,36.212-73.399,73.358L71.149,123.253
		c-3.501-3.491-3.994-8.982-1.216-13.07c16.465-24.159,37.376-45.069,61.534-61.513c4.088-2.777,9.569-2.285,13.07,1.216
		L147.012,52.359z"/>
	<path style="fill:#B2D5EC;" d="M453.112,370.314c-16.465,24.158-37.365,45.069-61.524,61.524c-4.088,2.778-9.569,2.285-13.07-1.216
		L278.288,330.391c37.155-6.897,66.492-36.265,73.358-73.399l100.252,100.252C455.397,360.744,455.89,366.226,453.112,370.314z"/>
	<path style="fill:#B2D5EC;" d="M244.749,330.391L144.518,430.621c-3.501,3.501-8.982,3.994-13.07,1.216
		c-24.159-16.455-45.058-37.365-61.524-61.524c-2.778-4.088-2.285-9.569,1.216-13.07l100.252-100.252
		C178.256,294.127,207.592,323.495,244.749,330.391z"/>
	<path style="fill:#B2D5EC;" d="M451.886,123.254L351.644,223.495c-6.886-37.145-36.234-66.492-73.399-73.358l97.778-97.778
		l2.474-2.474c3.501-3.501,8.982-3.994,13.07-1.216c24.159,16.445,45.069,37.355,61.534,61.513
		C455.879,114.271,455.386,119.763,451.886,123.254z"/>
</g>
<linearGradient id="SVGID_1_" gradientUnits="userSpaceOnUse" x1="129.2558" y1="406.2799" x2="730.9658" y2="-195.4301" gradientTransform="matrix(1.0039 0 0 -1.0039 0.1922 516.5611)">
	<stop  offset="0" style="stop-color:#FFA981"/>
	<stop  offset="1" style="stop-color:#FF5C45"/>
</linearGradient>
<path style="fill:url(#SVGID_1_);" d="M261.518,20.151c121.364,0,220.1,98.736,220.1,220.1s-98.736,220.101-220.1,220.101
	S41.417,361.615,41.417,240.251S140.155,20.151,261.518,20.151z M261.519,331.924c50.546,0,91.67-41.124,91.67-91.673
	c0-50.546-41.124-91.671-91.67-91.671s-91.673,41.124-91.673,91.671C169.846,290.8,210.973,331.924,261.519,331.924z"/>
<radialGradient id="SVGID_2_" cx="260.3041" cy="284.5231" r="144.6317" gradientTransform="matrix(1.0039 0 0 -1.0039 0.1922 516.5611)" gradientUnits="userSpaceOnUse">
	<stop  offset="0" style="stop-color:#B82934"/>
	<stop  offset="0.22" style="stop-color:#BD2C35;stop-opacity:0.78"/>
	<stop  offset="0.473" style="stop-color:#CB3638;stop-opacity:0.527"/>
	<stop  offset="0.741" style="stop-color:#E2473E;stop-opacity:0.259"/>
	<stop  offset="1" style="stop-color:#FF5C45;stop-opacity:0"/>
</radialGradient>
<path style="fill:url(#SVGID_2_);" d="M261.517,20.165c-121.361,0-220.096,98.735-220.096,220.096s98.735,220.096,220.096,220.096
	s220.096-98.735,220.096-220.096S382.878,20.165,261.517,20.165z M261.517,331.93c-50.564,0-91.665-41.148-91.665-91.665
	c0-50.565,41.101-91.665,91.665-91.665s91.665,41.101,91.665,91.665C353.181,290.782,312.081,331.93,261.517,331.93z"/>
<linearGradient id="SVGID_3_" gradientUnits="userSpaceOnUse" x1="319.7091" y1="359.1731" x2="252.1891" y2="542.2271" gradientTransform="matrix(1.0039 0 0 -1.0039 0.1922 516.5611)">
	<stop  offset="0" style="stop-color:#FFA981;stop-opacity:0"/>
	<stop  offset="1" style="stop-color:#B82934"/>
</linearGradient>
<path style="fill:url(#SVGID_3_);" d="M349.631,38.594c-23.757,0.9-53.285,7.321-82.661,14.334l-4.95,1.18
	c-32.451,7.704-64.385-5.882-83.463-13.999c-1.183-0.503-2.307-0.982-3.371-1.429c-0.352-0.149-0.705-0.27-1.057-0.404
	c-11.747,5.102-22.963,11.199-33.545,18.185l95.698,95.669c8.019-2.298,16.485-3.531,25.236-3.531
	c41.475,0,76.577,27.656,87.858,65.502c13.72,4.859,30.495,9.278,48.298,9.278c7.376,0,14.927-0.759,22.508-2.558l4.964-1.183
	c14.594-3.485,34.667-8.273,54.147-11.295C468.177,132.172,417.908,68.543,349.631,38.594z"/>
<g>
	<path style="fill:#EFFBFF;" d="M417.151,84.634c0.667,0.667,1.334,1.349,1.994,2.023c0.578,0.593,1.157,1.186,1.727,1.786
		c0.415,0.43,0.815,0.859,1.216,1.289c0.615,0.66,1.23,1.319,1.838,1.986c0.734,0.793,1.46,1.593,2.171,2.408
		c0.719,0.808,1.431,1.608,2.134,2.431c1.363,1.571,2.691,3.164,4.002,4.773c0.134,0.163,0.267,0.326,0.401,0.489
		c1.26,1.556,2.498,3.12,3.705,4.713c0.653,0.844,1.29,1.69,1.927,2.549c0.57,0.763,1.141,1.542,1.698,2.32
		c0.771,1.052,1.519,2.112,2.261,3.179c1.133,1.623,2.238,3.261,3.32,4.906c1.148,1.757,2.275,3.535,3.379,5.321l-97.54,97.54
		c-0.622-3.142-1.409-6.255-2.357-9.323c-0.037-0.156-0.088-0.311-0.141-0.452c-0.134-0.46-0.281-0.919-0.445-1.378
		c-0.519-1.571-1.082-3.127-1.69-4.669c-0.2-0.511-0.416-1.023-0.63-1.534c-0.2-0.512-0.423-1.03-0.645-1.534
		c-1.223-2.809-2.601-5.566-4.121-8.256c-0.259-0.467-0.526-0.927-0.8-1.393c-0.445-0.771-0.912-1.534-1.385-2.29
		c-0.363-0.57-0.734-1.148-1.104-1.712c-0.378-0.57-0.756-1.126-1.141-1.69c-0.244-0.348-0.489-0.697-0.741-1.038
		c-0.259-0.377-0.526-0.749-0.8-1.111c-0.519-0.712-1.045-1.416-1.593-2.112c-0.296-0.37-0.593-0.756-0.896-1.119
		c-0.141-0.186-0.289-0.363-0.43-0.534c-0.815-0.993-1.652-1.979-2.513-2.943c-0.208-0.237-0.43-0.474-0.653-0.712
		c-0.355-0.401-0.719-0.793-1.089-1.179c-0.607-0.653-1.23-1.29-1.867-1.927c-0.934-0.934-1.89-1.845-2.853-2.735
		c-0.377-0.348-0.763-0.69-1.148-1.03c-0.905-0.815-1.838-1.601-2.772-2.371c-0.467-0.377-0.934-0.756-1.4-1.119
		c-0.467-0.377-0.942-0.734-1.423-1.096c-0.445-0.341-0.905-0.682-1.363-1.008c-1.015-0.749-2.046-1.468-3.09-2.156
		c-0.445-0.296-0.897-0.585-1.349-0.874c-0.022-0.022-0.052-0.037-0.081-0.052c-0.489-0.326-0.978-0.637-1.475-0.927
		c-0.497-0.304-1.008-0.607-1.512-0.905c-1.015-0.6-2.038-1.164-3.068-1.72c-0.489-0.267-0.979-0.533-1.475-0.778
		c-0.052-0.022-0.103-0.059-0.171-0.081c-0.489-0.252-0.986-0.497-1.483-0.741c-0.786-0.386-1.571-0.756-2.371-1.111
		c-0.793-0.363-1.593-0.704-2.401-1.037c-0.519-0.223-1.045-0.438-1.564-0.645c-0.052-0.022-0.096-0.037-0.149-0.059
		c-0.504-0.193-1-0.393-1.512-0.578c-3.247-1.216-6.559-2.231-9.902-3.068c-0.438-0.111-0.881-0.215-1.326-0.318
		c-0.749-0.171-1.497-0.341-2.253-0.489c-0.482-0.111-0.964-0.208-1.46-0.289c-0.556-0.111-1.119-0.215-1.69-0.311l98.154-98.154
		c0.934,0.563,1.867,1.141,2.794,1.712c2.779,1.742,5.529,3.543,8.256,5.41c2.046,1.409,4.062,2.846,6.063,4.328
		c0.667,0.489,1.327,0.986,1.994,1.49c0.882,0.675,1.764,1.349,2.638,2.031c0.734,0.57,1.468,1.157,2.194,1.734
		c0.326,0.252,0.638,0.504,0.949,0.771c0.697,0.548,1.378,1.111,2.06,1.69c1.385,1.148,2.757,2.312,4.113,3.506
		c0.2,0.171,0.401,0.341,0.593,0.519c0.482,0.423,0.964,0.845,1.438,1.275c0.408,0.363,0.822,0.734,1.223,1.104
		c0.178,0.163,0.355,0.326,0.534,0.489c0.66,0.6,1.312,1.208,1.957,1.808c0.489,0.46,0.986,0.927,1.475,1.4
		c0.548,0.519,1.097,1.052,1.645,1.586C415.802,83.3,416.483,83.966,417.151,84.634z"/>
	<path style="fill:#EFFBFF;" d="M193.968,302.228c0.889,0.964,1.801,1.919,2.735,2.853c0.415,0.415,0.83,0.83,1.26,1.23
		c0.222,0.222,0.445,0.43,0.667,0.638l0.052,0.052c0.37,0.355,0.741,0.697,1.126,1.038c0.237,0.222,0.474,0.445,0.712,0.653
		c0.489,0.43,0.971,0.852,1.46,1.267c0.482,0.423,0.986,0.837,1.482,1.245c0.171,0.141,0.348,0.289,0.534,0.43
		c0.363,0.304,0.749,0.6,1.119,0.897c0.697,0.548,1.4,1.074,2.112,1.593c0.363,0.274,0.734,0.541,1.111,0.8
		c0.341,0.252,0.69,0.497,1.037,0.741c0.059,0.044,0.127,0.081,0.186,0.125c0.504,0.341,0.993,0.682,1.505,1.015
		c0.445,0.296,0.897,0.585,1.349,0.874c0.118,0.074,0.245,0.156,0.363,0.23c0.03,0.015,0.044,0.03,0.074,0.044
		c0.474,0.296,0.964,0.593,1.445,0.881c0.252,0.163,0.519,0.311,0.771,0.46c0.066,0.037,0.126,0.066,0.193,0.103
		c0.393,0.245,0.8,0.475,1.201,0.697c0.675,0.378,1.349,0.756,2.031,1.111c0.563,0.296,1.126,0.592,1.69,0.874
		c0.607,0.311,1.216,0.607,1.83,0.896c0.341,0.164,0.682,0.326,1.03,0.482c0.556,0.259,1.119,0.511,1.676,0.756
		c0.511,0.215,1.015,0.438,1.534,0.645c0.511,0.215,1.023,0.43,1.534,0.63c1.541,0.607,3.098,1.171,4.669,1.69
		c0.46,0.163,0.919,0.311,1.378,0.445c0.141,0.052,0.296,0.103,0.452,0.141c0.467,0.141,0.927,0.289,1.4,0.423
		c1.564,0.452,3.135,0.867,4.706,1.238c0.541,0.126,1.075,0.245,1.608,0.363c0.534,0.118,1.074,0.23,1.608,0.333l-97.539,97.54
		c-1.786-1.104-3.565-2.231-5.322-3.379c-1.645-1.082-3.283-2.187-4.906-3.32c-0.697-0.489-1.4-0.971-2.09-1.483
		c-0.37-0.252-0.726-0.519-1.089-0.778c-0.778-0.556-1.556-1.126-2.32-1.698c-0.859-0.638-1.705-1.275-2.549-1.927
		c-1.593-1.208-3.157-2.446-4.713-3.705c-0.163-0.134-0.326-0.267-0.489-0.401c-1.608-1.312-3.202-2.638-4.773-4.002
		c-0.822-0.704-1.623-1.416-2.43-2.134c-0.815-0.712-1.615-1.438-2.408-2.171c-0.667-0.607-1.326-1.223-1.986-1.838
		c-0.43-0.401-0.859-0.8-1.29-1.216c-0.178-0.164-0.348-0.333-0.519-0.504c-0.43-0.401-0.845-0.815-1.267-1.223
		c-0.675-0.66-1.356-1.326-2.023-1.994c-0.667-0.667-1.334-1.349-1.994-2.023c-0.519-0.533-1.038-1.067-1.542-1.601l-0.044-0.044
		c-0.475-0.489-0.942-0.986-1.4-1.475c-0.6-0.645-1.208-1.297-1.808-1.957c-0.163-0.178-0.326-0.355-0.489-0.534
		c-0.37-0.401-0.741-0.815-1.104-1.223l-0.03-0.03c-0.423-0.467-0.83-0.934-1.245-1.409c-0.178-0.193-0.348-0.393-0.519-0.592
		c-1.194-1.356-2.357-2.728-3.506-4.113c-0.511-0.615-1.023-1.23-1.527-1.852c-0.052-0.066-0.111-0.141-0.163-0.208
		c-0.267-0.311-0.519-0.622-0.771-0.949c-0.578-0.726-1.164-1.46-1.734-2.194c-0.682-0.874-1.356-1.757-2.031-2.638
		c-0.675-0.881-1.334-1.764-1.979-2.66c-1.312-1.786-2.586-3.58-3.839-5.395c-1.867-2.728-3.668-5.477-5.41-8.256
		c-0.57-0.927-1.148-1.86-1.712-2.794l98.154-98.154c0.096,0.57,0.2,1.133,0.311,1.69c0.089,0.489,0.178,0.978,0.289,1.46
		c0.149,0.756,0.318,1.505,0.489,2.253c0.103,0.445,0.208,0.889,0.318,1.327c0.164,0.638,0.326,1.275,0.504,1.912
		c0.081,0.333,0.178,0.667,0.274,0.986c0.193,0.697,0.401,1.393,0.615,2.082c0.222,0.726,0.452,1.446,0.697,2.164
		c0.059,0.193,0.134,0.385,0.2,0.585c0.252,0.726,0.511,1.446,0.778,2.171c0.185,0.511,0.386,1.008,0.578,1.512
		c0.022,0.052,0.037,0.096,0.059,0.149c0.208,0.519,0.423,1.045,0.645,1.564c0.274,0.66,0.556,1.312,0.845,1.957
		c0.111,0.274,0.23,0.541,0.363,0.808c0.304,0.675,0.615,1.341,0.942,2.009c0.245,0.497,0.489,0.993,0.741,1.483
		c0.022,0.066,0.059,0.118,0.089,0.163c0.044,0.103,0.096,0.2,0.149,0.296c0.2,0.393,0.408,0.793,0.622,1.186
		c0.556,1.03,1.119,2.053,1.72,3.068c0.296,0.504,0.6,1.015,0.905,1.512c0.267,0.46,0.548,0.905,0.852,1.356
		c0.022,0.037,0.052,0.081,0.074,0.118c0.015,0.03,0.03,0.059,0.052,0.081c0.037,0.052,0.059,0.103,0.096,0.156
		c0.252,0.401,0.519,0.8,0.778,1.194c0.69,1.045,1.408,2.075,2.156,3.09c0.326,0.46,0.667,0.919,1.008,1.363
		c0.363,0.482,0.719,0.956,1.097,1.423c0.363,0.467,0.741,0.934,1.119,1.4c0.771,0.934,1.556,1.867,2.371,2.772
		C193.278,301.465,193.62,301.85,193.968,302.228z"/>
	<path style="fill:#EFFBFF;" d="M146.951,52.321l97.843,97.843c-0.348,0.052-0.697,0.118-1.045,0.2
		c-0.563,0.103-1.126,0.222-1.683,0.348c-2.386,0.504-4.744,1.111-7.085,1.823c-0.979,0.296-1.957,0.607-2.934,0.934
		c-0.37,0.118-0.741,0.252-1.111,0.386c-0.57,0.2-1.134,0.408-1.705,0.622c-0.319,0.111-0.629,0.23-0.942,0.363
		c-0.897,0.333-1.779,0.697-2.66,1.074c-1.245,0.519-2.468,1.074-3.683,1.668c-0.912,0.423-1.808,0.874-2.706,1.341
		c-0.511,0.259-1.015,0.526-1.519,0.808c-0.504,0.267-1.001,0.541-1.497,0.83c-1.008,0.563-1.994,1.148-2.98,1.764
		c-0.423,0.259-0.852,0.526-1.267,0.808c-0.096,0.052-0.193,0.118-0.289,0.186c-0.415,0.267-0.83,0.534-1.23,0.815
		c-0.445,0.282-0.874,0.578-1.297,0.881c-0.563,0.386-1.126,0.786-1.683,1.194c-0.497,0.363-0.993,0.726-1.482,1.111
		c-0.401,0.296-0.793,0.6-1.179,0.912c-0.134,0.104-0.259,0.2-0.386,0.311c-0.34,0.267-0.682,0.534-1.008,0.815
		c-0.037,0.022-0.081,0.052-0.118,0.089c-0.912,0.749-1.808,1.512-2.691,2.305c-0.037,0.037-0.074,0.059-0.103,0.089
		c-0.37,0.326-0.726,0.653-1.082,0.993c-0.126,0.111-0.252,0.222-0.37,0.341c-0.311,0.282-0.622,0.578-0.927,0.881
		c-0.482,0.452-0.956,0.912-1.431,1.386c-0.475,0.475-0.934,0.949-1.386,1.431c-0.304,0.304-0.6,0.615-0.881,0.927
		c-0.118,0.118-0.23,0.245-0.341,0.37c-0.341,0.355-0.668,0.712-0.993,1.082c-0.029,0.03-0.052,0.066-0.089,0.103
		c-0.793,0.881-1.564,1.786-2.312,2.698c-0.415,0.504-0.815,1.008-1.216,1.512c-0.289,0.363-0.578,0.741-0.859,1.111
		c-0.393,0.511-0.778,1.03-1.157,1.542c-0.415,0.563-0.815,1.126-1.208,1.697c-0.304,0.438-0.593,0.859-0.881,1.297
		c-0.245,0.363-0.489,0.727-0.726,1.096c-1.023,1.556-1.979,3.135-2.883,4.751c-0.244,0.423-0.482,0.852-0.719,1.282
		c-0.355,0.653-0.704,1.312-1.038,1.972c-0.37,0.697-0.719,1.4-1.052,2.119c-0.208,0.401-0.393,0.808-0.578,1.216
		c-0.289,0.615-0.57,1.238-0.837,1.86c-0.2,0.438-0.386,0.874-0.563,1.319c-0.252,0.593-0.489,1.186-0.726,1.779l-0.467,1.223
		c-0.259,0.675-0.511,1.356-0.741,2.045c-0.156,0.423-0.304,0.852-0.437,1.282c-0.289,0.852-0.563,1.705-0.815,2.564
		c-0.712,2.342-1.319,4.698-1.823,7.086c-0.126,0.556-0.245,1.119-0.348,1.683c-0.081,0.348-0.149,0.697-0.2,1.045l-97.843-97.843
		c0.074-0.134,0.149-0.252,0.23-0.377c0.489-0.786,0.971-1.564,1.468-2.357c1.133-1.816,2.305-3.609,3.513-5.395
		c0.6-0.896,1.208-1.786,1.831-2.675c0.607-0.889,1.223-1.771,1.86-2.646c0.57-0.808,1.148-1.608,1.742-2.408
		c0.118-0.163,0.237-0.311,0.355-0.474c1.23-1.66,2.476-3.306,3.758-4.943c0.675-0.852,1.356-1.712,2.038-2.557
		c2.194-2.713,4.469-5.388,6.811-8.011c0.482-0.556,0.986-1.104,1.475-1.652c0.2-0.215,0.401-0.43,0.6-0.645
		c0.653-0.712,1.312-1.431,1.979-2.127c0.438-0.467,0.882-0.942,1.326-1.4c0.438-0.452,0.874-0.919,1.326-1.371
		c0.66-0.675,1.326-1.356,1.994-2.023c0.667-0.667,1.349-1.334,2.023-1.994c0.452-0.452,0.919-0.889,1.371-1.326
		c0.46-0.445,0.934-0.889,1.4-1.326c0.697-0.667,1.416-1.327,2.127-1.979c0.215-0.2,0.43-0.401,0.645-0.6
		c0.548-0.489,1.097-0.993,1.652-1.475c2.623-2.342,5.299-4.617,8.011-6.811c0.845-0.682,1.705-1.363,2.557-2.038
		C132.536,61.696,139.643,56.782,146.951,52.321z"/>
	<path style="fill:#EFFBFF;" d="M351.613,256.983l97.843,97.843c-0.326,0.533-0.653,1.067-0.986,1.593
		c-0.786,1.275-1.593,2.542-2.416,3.809c-0.015,0.029-0.044,0.059-0.059,0.089c-1.134,1.742-2.29,3.476-3.491,5.195
		c-0.022,0.037-0.052,0.081-0.081,0.125c-0.548,0.786-1.104,1.578-1.668,2.364c-0.408,0.57-0.822,1.148-1.245,1.72
		c-0.141,0.215-0.296,0.415-0.445,0.622c-0.066,0.096-0.141,0.186-0.208,0.281c-0.149,0.193-0.296,0.401-0.445,0.593
		c-1.216,1.645-2.446,3.276-3.713,4.884c-0.675,0.852-1.356,1.712-2.038,2.557c-1.378,1.705-2.779,3.387-4.217,5.047
		c-0.541,0.629-1.082,1.26-1.63,1.882c-0.267,0.311-0.541,0.615-0.815,0.919c-1.378,1.541-2.779,3.076-4.202,4.588
		c-0.438,0.467-0.882,0.942-1.327,1.4c-0.23,0.245-0.467,0.482-0.704,0.734c-0.2,0.215-0.415,0.43-0.622,0.638
		c-0.66,0.675-1.326,1.356-1.994,2.023c-0.667,0.668-1.349,1.334-2.023,1.994c-0.208,0.208-0.423,0.423-0.638,0.622
		c-0.252,0.237-0.489,0.475-0.734,0.704c-0.46,0.445-0.934,0.889-1.4,1.327c-1.512,1.423-3.046,2.824-4.588,4.202
		c-0.304,0.274-0.607,0.548-0.919,0.815c-0.622,0.548-1.253,1.089-1.882,1.63c-1.66,1.438-3.342,2.839-5.047,4.217
		c-0.845,0.682-1.705,1.363-2.557,2.038c-1.608,1.267-3.239,2.498-4.884,3.712c-0.193,0.149-0.401,0.296-0.593,0.445
		c-0.096,0.066-0.185,0.141-0.281,0.208c-0.208,0.149-0.408,0.304-0.622,0.445c-0.57,0.423-1.148,0.837-1.72,1.245
		c-0.786,0.563-1.578,1.119-2.364,1.668c-0.044,0.03-0.089,0.059-0.125,0.081c-1.72,1.201-3.453,2.357-5.195,3.491
		c-0.029,0.015-0.059,0.044-0.089,0.059c-1.267,0.822-2.535,1.63-3.809,2.416c-0.526,0.333-1.06,0.66-1.593,0.986l-97.843-97.843
		c0.556-0.096,1.104-0.2,1.652-0.319c0.548-0.103,1.097-0.222,1.638-0.348c1.067-0.237,2.134-0.489,3.201-0.771
		c0.638-0.163,1.267-0.333,1.912-0.519c0.467-0.125,0.949-0.267,1.416-0.408c1.082-0.326,2.149-0.667,3.217-1.038
		c0.489-0.163,0.971-0.333,1.46-0.511c0.103-0.029,0.208-0.074,0.311-0.118c0.474-0.164,0.949-0.341,1.416-0.526
		c0.526-0.2,1.052-0.401,1.578-0.615c0.667-0.267,1.319-0.548,1.972-0.83c0.089-0.03,0.171-0.066,0.259-0.111
		c0.622-0.267,1.245-0.548,1.86-0.837c0.408-0.185,0.815-0.37,1.216-0.578c0.311-0.149,0.615-0.289,0.919-0.445
		c0.363-0.171,0.719-0.348,1.074-0.541c0.037-0.022,0.089-0.044,0.125-0.066c0.622-0.311,1.238-0.645,1.845-0.971
		c0.037-0.022,0.089-0.044,0.125-0.066c0.43-0.237,0.859-0.475,1.282-0.719c0.408-0.23,0.815-0.46,1.216-0.697
		c0.393-0.23,0.786-0.46,1.179-0.704c0.8-0.475,1.578-0.971,2.357-1.482c0.37-0.237,0.734-0.482,1.096-0.727
		c0.438-0.289,0.859-0.578,1.297-0.881c0.57-0.393,1.134-0.793,1.698-1.208c0.511-0.377,1.03-0.763,1.541-1.157
		c0.37-0.281,0.749-0.57,1.111-0.859c0.504-0.401,1.008-0.8,1.512-1.216c0.912-0.749,1.816-1.519,2.698-2.312
		c0.037-0.037,0.074-0.059,0.103-0.089c0.37-0.326,0.726-0.653,1.082-0.993c0.126-0.111,0.252-0.222,0.37-0.341
		c0.311-0.281,0.622-0.578,0.927-0.881c0.482-0.452,0.956-0.912,1.431-1.385c0.475-0.474,0.934-0.949,1.385-1.431
		c0.304-0.304,0.6-0.615,0.881-0.927c0.118-0.118,0.23-0.245,0.341-0.37c0.341-0.355,0.667-0.712,0.993-1.082
		c0.03-0.03,0.052-0.066,0.089-0.103c0.785-0.889,1.556-1.779,2.305-2.69c0.037-0.037,0.066-0.081,0.089-0.118
		c0.281-0.326,0.548-0.667,0.815-1.008c0.111-0.125,0.208-0.252,0.311-0.385c0.311-0.385,0.615-0.778,0.912-1.179
		c0.734-0.956,1.446-1.919,2.119-2.905c0.245-0.333,0.489-0.682,0.712-1.023c0.044-0.074,0.089-0.134,0.134-0.208
		c0.007-0.007,0.007-0.007,0.015-0.015c0.074-0.103,0.149-0.208,0.208-0.311c0.052-0.066,0.089-0.134,0.141-0.2
		c0.193-0.281,0.385-0.578,0.571-0.867c0.037-0.052,0.066-0.111,0.103-0.164c0.052-0.066,0.089-0.134,0.125-0.2
		c0.607-0.934,1.201-1.882,1.764-2.846c0.296-0.489,0.585-0.986,0.867-1.49c0.289-0.497,0.563-0.993,0.83-1.497
		c0.281-0.504,0.548-1.008,0.808-1.519c0.526-1.015,1.03-2.038,1.512-3.068c0.215-0.438,0.415-0.874,0.607-1.304
		c0.037-0.081,0.074-0.163,0.111-0.245c0.311-0.697,0.622-1.393,0.905-2.09c0.022-0.037,0.029-0.074,0.052-0.111
		c0.015-0.015,0.015-0.03,0.015-0.044c0.348-0.822,0.675-1.637,0.986-2.468c0.2-0.482,0.378-0.971,0.556-1.46
		c0.03-0.089,0.059-0.163,0.081-0.245c0.37-1.023,0.727-2.06,1.052-3.098c0.178-0.534,0.348-1.074,0.504-1.615
		c0.156-0.497,0.296-0.993,0.437-1.49c0.178-0.607,0.341-1.216,0.497-1.83c0.282-1.052,0.541-2.127,0.771-3.202
		c0.125-0.541,0.244-1.089,0.348-1.638C351.412,258.086,351.517,257.538,351.613,256.983z"/>
</g>
<radialGradient id="SVGID_4_" cx="533.8499" cy="126.2021" r="144.6297" gradientTransform="matrix(0.7099 -0.7099 -0.7099 -0.7099 -34.4588 702.215)" gradientUnits="userSpaceOnUse">
	<stop  offset="0" style="stop-color:#7797B0"/>
	<stop  offset="0.237" style="stop-color:#7C9CB5;stop-opacity:0.762"/>
	<stop  offset="0.51" style="stop-color:#89AAC2;stop-opacity:0.49"/>
	<stop  offset="0.799" style="stop-color:#9FC1D8;stop-opacity:0.201"/>
	<stop  offset="1" style="stop-color:#B2D5EC;stop-opacity:0"/>
</radialGradient>
<path style="fill:url(#SVGID_4_);" d="M192.938,301.079c-0.815-0.905-1.601-1.838-2.371-2.772c-0.377-0.467-0.756-0.934-1.119-1.4
	c-0.377-0.467-0.734-0.942-1.097-1.423c-0.341-0.445-0.682-0.905-1.008-1.363c-0.749-1.015-1.468-2.046-2.156-3.09
	c-0.259-0.393-0.526-0.793-0.778-1.194c-0.037-0.052-0.059-0.103-0.096-0.156c-0.022-0.022-0.037-0.052-0.052-0.081
	c-0.022-0.037-0.052-0.081-0.074-0.118c-0.304-0.452-0.585-0.897-0.852-1.356c-0.318-0.497-0.615-1.001-0.905-1.512
	c-0.6-1.001-1.171-2.031-1.72-3.068c-0.215-0.393-0.43-0.786-0.622-1.186c-0.052-0.096-0.103-0.193-0.149-0.296
	c-0.029-0.044-0.066-0.096-0.089-0.163c-0.252-0.489-0.504-0.979-0.741-1.483c-0.326-0.667-0.637-1.334-0.942-2.009
	c-0.134-0.267-0.252-0.533-0.363-0.808c-0.289-0.645-0.57-1.297-0.845-1.957c-0.222-0.519-0.438-1.045-0.645-1.564
	c-0.022-0.052-0.037-0.096-0.059-0.149c-0.193-0.504-0.393-1.001-0.578-1.512c-0.274-0.719-0.526-1.446-0.778-2.171
	c-0.066-0.2-0.141-0.393-0.2-0.585c-0.245-0.719-0.475-1.438-0.697-2.164c-0.215-0.69-0.423-1.385-0.615-2.082
	c-0.096-0.318-0.193-0.653-0.274-0.986c-0.178-0.637-0.34-1.275-0.504-1.912c-0.111-0.438-0.215-0.881-0.318-1.327
	c-0.171-0.748-0.341-1.497-0.489-2.253c-0.111-0.482-0.208-0.964-0.289-1.46c-0.111-0.556-0.215-1.119-0.311-1.69l-98.153,98.154
	c0.563,0.934,1.141,1.867,1.712,2.794c1.727,2.794,3.528,5.544,5.41,8.256c1.245,1.823,2.52,3.617,3.839,5.395
	c0.645,0.897,1.304,1.779,1.979,2.66c0.675,0.882,1.349,1.764,2.031,2.638c0.57,0.734,1.157,1.468,1.734,2.194
	c0.252,0.326,0.504,0.638,0.771,0.949c0.052,0.066,0.111,0.141,0.163,0.208c0.504,0.622,1.015,1.238,1.527,1.852
	c1.148,1.386,2.312,2.757,3.506,4.113c0.171,0.2,0.341,0.401,0.519,0.592c0.415,0.475,0.822,0.942,1.245,1.409l0.03,0.03
	c0.363,0.408,0.734,0.822,1.104,1.223c0.163,0.178,0.326,0.355,0.489,0.534c0.6,0.66,1.208,1.312,1.808,1.957
	c0.46,0.489,0.927,0.986,1.4,1.475l0.044,0.044c0.504,0.534,1.023,1.067,1.542,1.601c0.66,0.675,1.326,1.356,1.994,2.023
	c0.667,0.667,1.349,1.334,2.023,1.994c0.423,0.408,0.837,0.823,1.267,1.223c0.171,0.171,0.341,0.341,0.519,0.504
	c0.43,0.415,0.859,0.815,1.29,1.216c0.66,0.615,1.319,1.23,1.986,1.838c0.793,0.734,1.593,1.46,2.408,2.171
	c0.808,0.719,1.608,1.431,2.43,2.134c1.571,1.363,3.164,2.69,4.773,4.002c0.163,0.134,0.326,0.267,0.489,0.401
	c1.556,1.26,3.12,2.498,4.713,3.706c0.844,0.653,1.69,1.29,2.549,1.927c0.763,0.57,1.542,1.141,2.32,1.698
	c0.363,0.259,0.719,0.526,1.089,0.778c0.69,0.511,1.393,0.993,2.09,1.483c1.623,1.133,3.261,2.238,4.906,3.32
	c1.749,1.157,3.528,2.283,5.322,3.379l97.532-97.532c-0.534-0.103-1.075-0.215-1.601-0.341c-0.548-0.103-1.082-0.222-1.608-0.363
	c-1.586-0.355-3.149-0.778-4.706-1.238c-0.474-0.134-0.934-0.281-1.4-0.423c-0.156-0.037-0.311-0.089-0.452-0.141
	c-0.46-0.134-0.919-0.282-1.378-0.445c-1.571-0.519-3.127-1.082-4.669-1.69c-0.511-0.2-1.023-0.415-1.534-0.63
	c-0.511-0.2-1.03-0.423-1.534-0.645c-0.556-0.245-1.119-0.497-1.676-0.756c-0.348-0.156-0.689-0.318-1.03-0.482
	c-0.615-0.289-1.223-0.585-1.83-0.897c-0.563-0.282-1.126-0.578-1.69-0.874c-0.682-0.355-1.356-0.734-2.031-1.111
	c-0.401-0.222-0.8-0.46-1.201-0.697c-0.066-0.037-0.126-0.066-0.193-0.103c-0.252-0.149-0.519-0.296-0.771-0.46
	c-0.489-0.281-0.964-0.578-1.445-0.881c-0.03-0.015-0.044-0.03-0.074-0.044c-0.118-0.074-0.245-0.156-0.363-0.23
	c-0.452-0.289-0.905-0.578-1.349-0.874c-0.511-0.333-1.001-0.675-1.505-1.015c-0.059-0.044-0.125-0.081-0.186-0.125
	c-0.348-0.244-0.697-0.489-1.037-0.741c-0.378-0.259-0.749-0.526-1.111-0.8c-0.712-0.519-1.416-1.045-2.112-1.593
	c-0.37-0.296-0.756-0.592-1.119-0.896c-0.186-0.141-0.363-0.289-0.534-0.43c-0.496-0.408-0.986-0.822-1.482-1.245
	c-0.489-0.415-0.971-0.837-1.46-1.267c-0.237-0.208-0.475-0.43-0.712-0.653c-0.385-0.341-0.756-0.682-1.126-1.038l-0.052-0.052
	c-0.222-0.208-0.445-0.415-0.667-0.638c-0.43-0.4-0.845-0.815-1.26-1.23c-0.934-0.934-1.845-1.89-2.735-2.853
	C193.62,301.85,193.278,301.465,192.938,301.079z M415.127,82.64c-0.548-0.534-1.097-1.067-1.645-1.586
	c-0.489-0.474-0.986-0.942-1.475-1.4c-0.645-0.6-1.297-1.208-1.957-1.808c-0.178-0.163-0.355-0.326-0.534-0.489
	c-0.401-0.37-0.815-0.741-1.223-1.104c-0.474-0.43-0.956-0.852-1.438-1.275c-0.193-0.178-0.393-0.348-0.593-0.519
	c-1.356-1.194-2.728-2.357-4.113-3.506c-0.682-0.578-1.363-1.141-2.06-1.69c-0.311-0.267-0.622-0.519-0.949-0.771
	c-0.726-0.578-1.46-1.164-2.194-1.734c-0.874-0.682-1.757-1.356-2.638-2.031c-0.667-0.504-1.326-1.001-1.994-1.49
	c-2.001-1.483-4.01-2.927-6.063-4.328c-2.713-1.882-5.462-3.683-8.256-5.41c-0.927-0.571-1.86-1.148-2.794-1.712l-98.154,98.154
	c0.571,0.096,1.134,0.2,1.69,0.311c0.497,0.081,0.978,0.178,1.46,0.289c0.756,0.149,1.505,0.319,2.253,0.489
	c0.445,0.103,0.889,0.208,1.326,0.318c3.342,0.837,6.655,1.853,9.902,3.068c0.511,0.185,1.008,0.386,1.512,0.578
	c0.052,0.022,0.096,0.037,0.149,0.059c0.519,0.208,1.045,0.423,1.564,0.645c0.808,0.333,1.608,0.675,2.401,1.037
	c0.8,0.355,1.586,0.726,2.371,1.111c0.504,0.237,0.993,0.489,1.483,0.741c0.066,0.022,0.118,0.059,0.171,0.081
	c0.496,0.245,0.986,0.511,1.475,0.778c1.038,0.548,2.068,1.119,3.068,1.72c0.511,0.289,1.015,0.585,1.512,0.905
	c0.497,0.289,0.986,0.6,1.475,0.927c0.03,0.015,0.059,0.029,0.081,0.052c0.46,0.282,0.905,0.578,1.349,0.874
	c1.045,0.69,2.075,1.409,3.09,2.156c0.46,0.326,0.919,0.667,1.363,1.008c0.482,0.363,0.956,0.719,1.423,1.096
	c0.467,0.363,0.934,0.741,1.4,1.119c0.934,0.771,1.867,1.556,2.772,2.371c0.385,0.341,0.771,0.682,1.148,1.03
	c0.964,0.889,1.919,1.801,2.853,2.735c0.637,0.637,1.26,1.275,1.867,1.927c0.37,0.386,0.734,0.778,1.089,1.179
	c0.222,0.237,0.445,0.474,0.653,0.712c0.859,0.964,1.697,1.95,2.513,2.943c0.141,0.171,0.289,0.348,0.43,0.534
	c0.304,0.363,0.6,0.749,0.897,1.119c0.548,0.697,1.074,1.4,1.593,2.112c0.274,0.363,0.541,0.734,0.8,1.111
	c0.252,0.341,0.497,0.69,0.741,1.038c0.386,0.563,0.763,1.119,1.141,1.69c0.37,0.563,0.741,1.141,1.104,1.712
	c0.475,0.756,0.942,1.519,1.385,2.29c0.274,0.467,0.541,0.927,0.8,1.393c1.519,2.69,2.898,5.447,4.121,8.256
	c0.223,0.504,0.445,1.023,0.645,1.534c0.215,0.511,0.43,1.023,0.63,1.534c0.607,1.542,1.171,3.098,1.69,4.669
	c0.163,0.46,0.311,0.919,0.445,1.378c0.052,0.141,0.103,0.296,0.141,0.452c0.964,3.068,1.749,6.181,2.364,9.316l97.532-97.532
	c-1.097-1.793-2.224-3.572-3.379-5.321c-1.082-1.645-2.187-3.283-3.32-4.906c-0.741-1.067-1.49-2.127-2.261-3.179
	c-0.556-0.778-1.126-1.556-1.698-2.32c-0.637-0.859-1.275-1.705-1.927-2.549c-1.208-1.593-2.446-3.157-3.706-4.713
	c-0.134-0.163-0.267-0.326-0.401-0.489c-1.312-1.608-2.638-3.202-4.002-4.773c-0.704-0.823-1.416-1.623-2.134-2.431
	c-0.712-0.815-1.438-1.615-2.171-2.408c-0.607-0.667-1.223-1.326-1.838-1.986c-0.401-0.43-0.801-0.859-1.216-1.289
	c-0.571-0.6-1.148-1.194-1.727-1.786c-0.66-0.675-1.326-1.356-1.994-2.023C416.483,83.966,415.802,83.3,415.127,82.64z
	 M350.946,260.273c-0.23,1.074-0.489,2.149-0.771,3.202c-0.156,0.615-0.318,1.223-0.497,1.83c-0.141,0.497-0.282,0.993-0.437,1.49
	c-0.156,0.541-0.326,1.082-0.504,1.615c-0.326,1.038-0.682,2.075-1.052,3.098c-0.022,0.081-0.052,0.156-0.081,0.245
	c-0.178,0.489-0.355,0.978-0.556,1.46c-0.311,0.83-0.638,1.645-0.986,2.468c0,0.015,0,0.03-0.015,0.044
	c-0.022,0.037-0.029,0.074-0.052,0.111c-0.282,0.697-0.593,1.393-0.905,2.09c-0.037,0.081-0.074,0.163-0.111,0.245
	c-0.193,0.445-0.393,0.881-0.607,1.304c-0.475,1.038-0.978,2.06-1.512,3.068c-0.259,0.511-0.526,1.015-0.808,1.519
	c-0.267,0.504-0.541,1.001-0.83,1.497c-0.282,0.504-0.57,1.001-0.867,1.49c-0.563,0.964-1.157,1.912-1.764,2.846
	c-0.037,0.066-0.074,0.134-0.125,0.2c-0.037,0.052-0.066,0.111-0.103,0.164c-0.186,0.289-0.379,0.585-0.571,0.867
	c-0.052,0.066-0.089,0.134-0.141,0.2c-0.059,0.103-0.134,0.208-0.208,0.311c-0.007,0.007-0.007,0.007-0.015,0.015
	c-0.044,0.074-0.089,0.134-0.134,0.208c-0.222,0.341-0.467,0.69-0.712,1.023c-0.675,0.986-1.385,1.95-2.119,2.905
	c-0.296,0.401-0.6,0.793-0.912,1.179c-0.103,0.134-0.2,0.259-0.311,0.385c-0.267,0.341-0.533,0.682-0.815,1.008
	c-0.022,0.037-0.052,0.081-0.089,0.118c-0.749,0.912-1.519,1.801-2.305,2.69c-0.037,0.037-0.059,0.074-0.089,0.103
	c-0.326,0.37-0.653,0.726-0.993,1.082c-0.111,0.125-0.222,0.252-0.341,0.37c-0.282,0.311-0.578,0.622-0.881,0.927
	c-0.452,0.482-0.912,0.956-1.385,1.431s-0.949,0.934-1.431,1.385c-0.304,0.304-0.615,0.6-0.927,0.881
	c-0.118,0.118-0.245,0.23-0.37,0.341c-0.355,0.341-0.712,0.667-1.082,0.993c-0.03,0.03-0.066,0.052-0.103,0.089
	c-0.882,0.793-1.786,1.564-2.698,2.312c-0.504,0.415-1.008,0.815-1.512,1.216c-0.363,0.289-0.741,0.578-1.111,0.859
	c-0.511,0.393-1.03,0.778-1.541,1.157c-0.563,0.415-1.126,0.815-1.698,1.208c-0.438,0.304-0.859,0.592-1.297,0.881
	c-0.363,0.245-0.726,0.489-1.096,0.727c-0.778,0.511-1.556,1.008-2.357,1.482c-0.393,0.245-0.786,0.475-1.179,0.704
	c-0.401,0.237-0.808,0.467-1.216,0.697c-0.423,0.244-0.852,0.482-1.282,0.719c-0.037,0.022-0.089,0.044-0.125,0.066
	c-0.607,0.326-1.223,0.66-1.845,0.971c-0.037,0.022-0.089,0.044-0.125,0.066c-0.355,0.193-0.712,0.37-1.074,0.541
	c-0.304,0.156-0.607,0.296-0.919,0.445c-0.401,0.208-0.808,0.393-1.216,0.578c-0.615,0.289-1.238,0.57-1.86,0.837
	c-0.089,0.044-0.171,0.081-0.259,0.111c-0.653,0.281-1.304,0.563-1.972,0.83c-0.526,0.215-1.052,0.415-1.578,0.615
	c-0.467,0.186-0.942,0.363-1.416,0.526c-0.103,0.044-0.208,0.089-0.311,0.118c-0.482,0.186-0.971,0.348-1.46,0.511
	c-1.067,0.37-2.134,0.712-3.217,1.038c-0.467,0.141-0.949,0.282-1.416,0.408c-0.645,0.186-1.275,0.355-1.912,0.519
	c-1.052,0.282-2.127,0.541-3.201,0.771c-0.541,0.125-1.089,0.244-1.638,0.348c-0.548,0.118-1.097,0.222-1.652,0.319l97.836,97.836
	c0.533-0.326,1.067-0.653,1.601-0.978c1.275-0.786,2.542-1.593,3.809-2.416c0.03-0.015,0.059-0.044,0.089-0.059
	c1.742-1.134,3.469-2.298,5.195-3.491c0.037-0.022,0.081-0.052,0.125-0.081c0.786-0.548,1.578-1.104,2.364-1.668
	c0.57-0.408,1.148-0.822,1.72-1.245c0.215-0.141,0.415-0.296,0.622-0.445c0.096-0.066,0.186-0.141,0.281-0.208
	c0.193-0.149,0.401-0.296,0.593-0.445c1.645-1.216,3.276-2.446,4.884-3.712c0.852-0.675,1.712-1.356,2.557-2.038
	c1.705-1.378,3.387-2.78,5.047-4.217c0.63-0.541,1.26-1.082,1.882-1.63c0.311-0.267,0.615-0.541,0.919-0.815
	c1.549-1.371,3.083-2.772,4.588-4.202c0.467-0.438,0.942-0.882,1.4-1.327c0.245-0.23,0.482-0.467,0.734-0.704
	c0.215-0.2,0.43-0.415,0.638-0.622c0.675-0.66,1.356-1.326,2.023-1.994c0.667-0.667,1.334-1.348,1.994-2.023
	c0.208-0.208,0.423-0.423,0.622-0.638c0.237-0.252,0.474-0.489,0.704-0.734c0.445-0.46,0.889-0.934,1.327-1.4
	c1.431-1.505,2.831-3.039,4.202-4.588c0.274-0.304,0.548-0.607,0.815-0.919c0.548-0.622,1.089-1.253,1.63-1.882
	c1.438-1.66,2.838-3.342,4.217-5.047c0.682-0.845,1.363-1.705,2.038-2.557c1.267-1.608,2.498-3.239,3.713-4.884
	c0.149-0.193,0.296-0.401,0.445-0.593c0.067-0.096,0.141-0.185,0.208-0.281c0.149-0.208,0.304-0.408,0.445-0.622
	c0.423-0.57,0.837-1.148,1.245-1.72c0.563-0.786,1.119-1.578,1.668-2.364c0.03-0.044,0.059-0.089,0.081-0.125
	c1.194-1.727,2.357-3.453,3.491-5.195c0.015-0.03,0.044-0.059,0.059-0.089c0.822-1.267,1.63-2.535,2.416-3.809
	c0.326-0.534,0.653-1.067,0.978-1.601l-97.836-97.836c-0.096,0.556-0.2,1.104-0.319,1.652
	C351.19,259.184,351.072,259.732,350.946,260.273z M125.673,67.076c-0.852,0.675-1.712,1.356-2.557,2.038
	c-2.713,2.194-5.388,4.469-8.011,6.811c-0.556,0.482-1.104,0.986-1.652,1.475c-0.215,0.2-0.43,0.401-0.645,0.6
	c-0.712,0.653-1.431,1.312-2.127,1.979c-0.467,0.438-0.942,0.881-1.4,1.326c-0.452,0.438-0.919,0.874-1.371,1.326
	c-0.675,0.66-1.356,1.326-2.023,1.994c-0.668,0.667-1.334,1.349-1.994,2.023c-0.452,0.452-0.889,0.919-1.326,1.371
	c-0.445,0.46-0.889,0.934-1.326,1.4c-0.667,0.697-1.326,1.416-1.979,2.127c-0.2,0.215-0.401,0.43-0.6,0.645
	c-0.489,0.548-0.993,1.097-1.475,1.652c-2.342,2.623-4.617,5.299-6.811,8.011c-0.682,0.845-1.363,1.705-2.038,2.557
	c-1.282,1.637-2.527,3.283-3.758,4.943c-0.118,0.163-0.237,0.311-0.355,0.474c-0.593,0.8-1.171,1.601-1.742,2.408
	c-0.637,0.874-1.253,1.757-1.86,2.646c-0.622,0.889-1.23,1.779-1.831,2.675c-1.208,1.786-2.379,3.58-3.513,5.395
	c-0.497,0.793-0.978,1.571-1.468,2.357c-0.081,0.125-0.156,0.245-0.23,0.377l97.843,97.843c0.052-0.348,0.118-0.697,0.2-1.045
	c0.103-0.563,0.222-1.126,0.348-1.683c0.504-2.386,1.111-4.744,1.823-7.086c0.252-0.859,0.526-1.712,0.815-2.564
	c0.134-0.43,0.281-0.859,0.437-1.282c0.23-0.689,0.482-1.371,0.741-2.045l0.467-1.223c0.237-0.593,0.474-1.186,0.726-1.779
	c0.178-0.445,0.363-0.882,0.563-1.319c0.267-0.622,0.548-1.245,0.837-1.86c0.185-0.408,0.37-0.815,0.578-1.216
	c0.333-0.719,0.682-1.423,1.052-2.119c0.333-0.66,0.682-1.319,1.038-1.972c0.237-0.43,0.474-0.859,0.719-1.282
	c0.905-1.615,1.86-3.194,2.883-4.751c0.237-0.37,0.482-0.734,0.726-1.096c0.289-0.438,0.578-0.859,0.881-1.297
	c0.393-0.57,0.793-1.134,1.208-1.697c0.377-0.511,0.763-1.03,1.157-1.542c0.282-0.37,0.57-0.749,0.859-1.111
	c0.401-0.504,0.8-1.008,1.216-1.512c0.749-0.912,1.519-1.816,2.312-2.698c0.037-0.037,0.059-0.074,0.089-0.103
	c0.326-0.37,0.653-0.726,0.993-1.082c0.111-0.126,0.222-0.252,0.341-0.37c0.282-0.311,0.578-0.622,0.881-0.927
	c0.452-0.482,0.912-0.956,1.386-1.431c0.474-0.475,0.949-0.934,1.431-1.386c0.304-0.304,0.615-0.6,0.927-0.881
	c0.118-0.118,0.245-0.23,0.37-0.341c0.355-0.341,0.712-0.668,1.082-0.993c0.03-0.029,0.067-0.052,0.103-0.089
	c0.881-0.793,1.779-1.556,2.691-2.305c0.037-0.037,0.081-0.066,0.118-0.089c0.326-0.282,0.668-0.548,1.008-0.815
	c0.126-0.111,0.252-0.208,0.386-0.311c0.385-0.311,0.778-0.615,1.179-0.912c0.489-0.386,0.986-0.749,1.482-1.111
	c0.556-0.408,1.119-0.808,1.683-1.194c0.423-0.304,0.852-0.6,1.297-0.881c0.401-0.282,0.815-0.548,1.23-0.815
	c0.096-0.066,0.193-0.134,0.289-0.186c0.415-0.282,0.845-0.548,1.267-0.808c0.986-0.615,1.972-1.201,2.98-1.764
	c0.497-0.289,0.993-0.563,1.497-0.83c0.504-0.282,1.008-0.548,1.519-0.808c0.896-0.467,1.793-0.919,2.706-1.341
	c1.216-0.593,2.439-1.148,3.683-1.668c0.881-0.377,1.764-0.741,2.66-1.074c0.311-0.134,0.622-0.252,0.942-0.363
	c0.57-0.215,1.134-0.423,1.705-0.622c0.37-0.134,0.741-0.267,1.111-0.386c0.971-0.333,1.949-0.645,2.934-0.934
	c2.342-0.712,4.698-1.319,7.085-1.823c0.556-0.127,1.119-0.245,1.683-0.348c0.348-0.081,0.697-0.149,1.045-0.2L146.95,52.318
	C139.643,56.782,132.536,61.696,125.673,67.076z"/>
<path style="fill:#00DBFF;" d="M376.093,52.29L376.093,52.29l2.404-2.404c3.248-3.248,8.199-3.901,12.163-1.762l0.141-0.163
	c-20.557-17.788-72.444-7.302-123.831,4.967l-4.95,1.18c-32.451,7.704-64.385-5.882-83.463-13.999
	c-1.183-0.503-2.307-0.982-3.371-1.429c-21.067-8.855-42.239,8.467-43.129,9.209l0.231,0.278c3.978-2.198,8.979-1.555,12.251,1.717
	l2.205,2.205c6.205-3.236,15.429-6.372,23.976-2.781c1.049,0.441,2.158,0.914,3.324,1.409c15.052,6.403,40.349,17.166,68.132,17.165
	c7.376,0,14.927-0.758,22.508-2.558l4.964-1.183C299.406,57.037,352.274,44.169,376.093,52.29z"/>
<g>
</g>
<g>
</g>
<g>
</g>
<g>
</g>
<g>
</g>
<g>
</g>
<g>
</g>
<g>
</g>
<g>
</g>
<g>
</g>
<g>
</g>
<g>
</g>
<g>
</g>
<g>
</g>
<g>
</g>
</svg>
