<?xml version="1.0" encoding="iso-8859-1"?>
<!-- Generator: Adobe Illustrator 19.0.0, SVG Export Plug-In . SVG Version: 6.00 Build 0)  -->
<svg version="1.1" id="Capa_1" xmlns="http://www.w3.org/2000/svg" xmlns:xlink="http://www.w3.org/1999/xlink" x="0px" y="0px"
	 viewBox="0 0 512 512" style="enable-background:new 0 0 512 512;" xml:space="preserve">
<linearGradient id="SVGID_1_" gradientUnits="userSpaceOnUse" x1="97.9384" y1="119.302" x2="114.5684" y2="102.662" gradientTransform="matrix(1.0039 0 0 -1.0039 0.192 516.5582)">
	<stop  offset="0" style="stop-color:#FEFFB3"/>
	<stop  offset="1" style="stop-color:#FFCD77"/>
</linearGradient>
<path style="fill:url(#SVGID_1_);" d="M5.074,508.963l-2.038-2.038c-4.048-4.048-4.048-10.611,0-14.659l198.278-198.278
	l16.697,16.697L19.734,508.963C15.685,513.011,9.123,513.011,5.074,508.963z"/>
<linearGradient id="SVGID_2_" gradientUnits="userSpaceOnUse" x1="193.3683" y1="128.1124" x2="193.3683" y2="236.9324" gradientTransform="matrix(1.0039 0 0 -1.0039 0.192 516.5582)">
	<stop  offset="0" style="stop-color:#FF9111;stop-opacity:0"/>
	<stop  offset="1" style="stop-color:#F26500"/>
</linearGradient>
<polygon style="fill:url(#SVGID_2_);" points="170.625,324.677 170.625,358.071 218.011,310.685 201.314,293.988 "/>
<linearGradient id="SVGID_3_" gradientUnits="userSpaceOnUse" x1="207.1226" y1="506.4086" x2="256.6526" y2="341.6935" gradientTransform="matrix(1.0039 0 0 -1.0039 0.192 516.5582)">
	<stop  offset="0" style="stop-color:#FFA981"/>
	<stop  offset="0.428" style="stop-color:#FF8666"/>
	<stop  offset="1" style="stop-color:#FF5C45"/>
</linearGradient>
<path style="fill:url(#SVGID_3_);" d="M51.174,165.144c2.417,5.966,10.005,7.732,14.859,3.505
	C204.28,48.226,362.766,6.868,433.934,77.613C330.134-25.943,162.042-25.871,58.337,77.836
	c-21.484,21.484-21.39,52.055-7.232,87.137C51.128,165.03,51.151,165.087,51.174,165.144z"/>
<linearGradient id="SVGID_4_" gradientUnits="userSpaceOnUse" x1="315.9197" y1="320.2036" x2="502.8722" y2="133.2411" gradientTransform="matrix(1.0039 0 0 -1.0039 0.192 516.5582)">
	<stop  offset="0" style="stop-color:#FFA981"/>
	<stop  offset="0.428" style="stop-color:#FF8666"/>
	<stop  offset="1" style="stop-color:#FF5C45"/>
</linearGradient>
<path style="fill:url(#SVGID_4_);" d="M434.389,78.067c70.463,70.89,29.719,228.369-89.57,366.218
	c-4.197,4.851-2.431,12.404,3.505,14.835c34.946,14.31,65.25,15.132,85.839-5.457C537.869,349.958,537.942,181.867,434.389,78.067z"
	/>
<linearGradient id="SVGID_5_" gradientUnits="userSpaceOnUse" x1="246.6851" y1="368.657" x2="363.9155" y2="251.4166" gradientTransform="matrix(1.0039 0 0 -1.0039 0.192 516.5582)">
	<stop  offset="0" style="stop-color:#FFA981"/>
	<stop  offset="0.428" style="stop-color:#FF8666"/>
	<stop  offset="1" style="stop-color:#FF5C45"/>
</linearGradient>
<path style="fill:url(#SVGID_5_);" d="M247.005,382.673c-3.451,3.556-9.071,3.782-12.841,0.565
	c-18.585-15.86-37.077-32.973-54.912-50.492c-18.017-17.685-35.364-35.821-51.314-53.958c-3.3-3.753-3.095-9.44,0.488-12.922
	C268.19,130.001,402.86,46.529,434.165,77.834C465.398,109.066,382.35,243.24,247.005,382.673z"/>
<linearGradient id="SVGID_6_" gradientUnits="userSpaceOnUse" x1="461.704" y1="303.7857" x2="524.6641" y2="395.6857" gradientTransform="matrix(1.0039 0 0 -1.0039 0.192 516.5582)">
	<stop  offset="0" style="stop-color:#FFA981;stop-opacity:0"/>
	<stop  offset="1" style="stop-color:#B82934"/>
</linearGradient>
<path style="fill:url(#SVGID_6_);" d="M434.163,77.836c-4.098-4.098-8.307-8.014-12.598-11.789l-3.688,5.443v393.332
	c5.931-2.582,11.386-6.259,16.287-11.16C537.945,349.88,537.945,181.618,434.163,77.836z"/>
<linearGradient id="SVGID_7_" gradientUnits="userSpaceOnUse" x1="229.6636" y1="411.4553" x2="337.5936" y2="227.0753" gradientTransform="matrix(1.0039 0 0 -1.0039 0.192 516.5582)">
	<stop  offset="0" style="stop-color:#EFFBFF"/>
	<stop  offset="0.235" style="stop-color:#D5EBF7"/>
	<stop  offset="0.487" style="stop-color:#C2DFF1"/>
	<stop  offset="0.742" style="stop-color:#B6D7ED"/>
	<stop  offset="1" style="stop-color:#B2D5EC"/>
</linearGradient>
<path style="fill:url(#SVGID_7_);" d="M59.703,183.62c13.19,25.598,32.665,53.031,55.832,80.718
	c3.494,4.175,9.818,4.512,13.725,0.72C268.725,129.67,402.922,46.591,434.165,77.834C362.384,6.052,201.189,48.95,61.815,172.353
	C58.623,175.18,57.749,179.83,59.703,183.62z"/>
<linearGradient id="SVGID_8_" gradientUnits="userSpaceOnUse" x1="351.9774" y1="269.0207" x2="510.4973" y2="139.7307" gradientTransform="matrix(1.0039 0 0 -1.0039 0.192 516.5582)">
	<stop  offset="0" style="stop-color:#EFFBFF"/>
	<stop  offset="0.317" style="stop-color:#D7ECF8"/>
	<stop  offset="0.747" style="stop-color:#BCDBEF"/>
	<stop  offset="1" style="stop-color:#B2D5EC"/>
</linearGradient>
<path style="fill:url(#SVGID_8_);" d="M434.165,77.834c31.157,31.157-51.414,164.757-186.178,303.827
	c-3.82,3.942-3.439,10.327,0.816,13.795c27.719,22.588,55.352,41.9,81.102,55.135c3.8,1.953,8.459,1.069,11.28-2.139
	C463.405,309.473,505.658,149.326,434.165,77.834z"/>
<linearGradient id="SVGID_9_" gradientUnits="userSpaceOnUse" x1="251.2594" y1="256.0118" x2="158.5294" y2="163.2818" gradientTransform="matrix(1.0039 0 0 -1.0039 0.192 516.5582)">
	<stop  offset="0" style="stop-color:#FFA981;stop-opacity:0"/>
	<stop  offset="1" style="stop-color:#B82934"/>
</linearGradient>
<path style="fill:url(#SVGID_9_);" d="M247.007,382.665c-3.451,3.569-9.075,3.786-12.841,0.57
	c-18.593-15.86-37.078-32.968-54.913-50.489c-18.022-17.688-35.367-35.819-51.315-53.951c-3.304-3.756-3.097-9.449,0.482-12.929
	c0.236-0.236,0.472-0.452,0.708-0.688c1.14-1.101,2.271-2.193,3.402-3.284c1.091-1.052,2.183-2.104,3.265-3.146
	c1.907-1.829,3.815-3.638,5.712-5.457c0.275-0.256,0.55-0.511,0.806-0.767c3.274-3.097,6.518-6.165,9.763-9.193
	c4.071-3.796,8.122-7.551,12.173-11.248c1.347-1.229,2.684-2.449,4.022-3.667c1.071-0.974,2.143-1.947,3.216-2.92
	c2.989-2.695,5.958-5.349,8.918-7.994c0.275-0.236,0.541-0.482,0.816-0.718c1.661-1.485,3.333-2.96,4.994-4.424
	c2.566-2.252,5.113-4.483,7.669-6.686c1.062-0.925,2.113-1.838,3.166-2.753c3.166-2.734,6.323-5.437,9.459-8.083
	c1.731-1.475,3.462-2.93,5.191-4.385c16.538,18.957,34.62,37.923,53.449,56.398c18.584,18.249,37.855,36.046,57.224,52.446
	c-0.609,0.747-1.239,1.495-1.858,2.232c-1.967,2.34-3.952,4.7-5.968,7.05c-5.132,6.017-10.393,12.084-15.772,18.19
	c-0.246,0.285-0.492,0.57-0.747,0.845c-3.766,4.258-7.591,8.534-11.465,12.841c-2.006,2.222-4.032,4.444-6.067,6.676
	c-3.579,3.913-7.207,7.837-10.874,11.779c-0.295,0.314-0.59,0.629-0.884,0.944c-3.029,3.245-6.106,6.499-9.193,9.763
	c-1.75,1.829-3.501,3.677-5.271,5.526c-1.534,1.593-3.058,3.175-4.592,4.769C248.787,380.827,247.901,381.751,247.007,382.665z"/>
<linearGradient id="SVGID_10_" gradientUnits="userSpaceOnUse" x1="134.5987" y1="332.4225" x2="55.5017" y2="253.3225" gradientTransform="matrix(1.0039 0 0 -1.0039 0.192 516.5582)">
	<stop  offset="0" style="stop-color:#B2D5EC;stop-opacity:0"/>
	<stop  offset="1" style="stop-color:#7797B0"/>
</linearGradient>
<path style="fill:url(#SVGID_10_);" d="M150.246,106.347c15.034,26.852,36.468,55.464,61.452,84.106
	c-1.721,1.446-3.461,2.91-5.191,4.385c-3.136,2.645-6.293,5.349-9.459,8.083c-1.052,0.915-2.104,1.829-3.166,2.753
	c-2.557,2.203-5.103,4.434-7.669,6.686c-1.661,1.465-3.333,2.939-4.994,4.424c-0.275,0.236-0.541,0.482-0.816,0.718
	c-2.96,2.645-5.929,5.3-8.918,7.994c-1.072,0.973-2.143,1.947-3.216,2.92c-1.337,1.219-2.674,2.439-4.022,3.667
	c-4.051,3.697-8.102,7.453-12.173,11.248c-3.245,3.029-6.489,6.096-9.763,9.193c-0.256,0.256-0.531,0.511-0.806,0.767
	c-1.897,1.819-3.805,3.628-5.712,5.457c-1.081,1.042-2.173,2.094-3.265,3.146c-1.091,1.052-2.172,2.114-3.265,3.166
	c-0.039,0.039-0.088,0.088-0.138,0.118c-3.923,3.667-10.138,3.294-13.588-0.845c-23.174-27.678-42.643-55.11-55.838-80.714
	c-1.947-3.796-1.081-8.436,2.114-11.258c1.406-1.249,2.812-2.478,4.218-3.706c0.777-0.679,1.544-1.347,2.33-2.016
	c1.091-0.954,2.183-1.887,3.294-2.822c0.836-0.718,1.682-1.446,2.527-2.153c11.238-9.488,22.585-18.436,34.001-26.862
	c1.121-0.826,2.232-1.642,3.353-2.449c0.138-0.118,0.285-0.226,0.443-0.324c3.206-2.34,6.411-4.621,9.617-6.863
	c0.118-0.078,0.226-0.148,0.334-0.236c2.133-1.485,4.268-2.95,6.391-4.385c0.078-0.059,0.167-0.127,0.266-0.187
	c2.153-1.465,4.316-2.9,6.47-4.326c1.17-0.777,2.34-1.534,3.5-2.301c2.203-1.416,4.395-2.822,6.598-4.217
	c0.02-0.02,0.049-0.029,0.059-0.039C146.894,108.422,148.566,107.379,150.246,106.347z"/>
<linearGradient id="SVGID_11_" gradientUnits="userSpaceOnUse" x1="327.6067" y1="139.4145" x2="248.5067" y2="60.3245" gradientTransform="matrix(1.0039 0 0 -1.0039 0.192 516.5582)">
	<stop  offset="0" style="stop-color:#B2D5EC;stop-opacity:0"/>
	<stop  offset="1" style="stop-color:#7797B0"/>
</linearGradient>
<path style="fill:url(#SVGID_11_);" d="M341.19,448.454c-2.832,3.205-7.492,4.09-11.278,2.133
	c-25.761-13.235-53.389-32.545-81.108-55.13c-4.258-3.471-4.641-9.852-0.816-13.795c0.56-0.58,1.13-1.17,1.692-1.75
	c1.534-1.593,3.058-3.175,4.592-4.769c1.76-1.839,3.52-3.677,5.271-5.526c3.097-3.255,6.155-6.509,9.193-9.763
	c0.295-0.314,0.59-0.629,0.884-0.944c3.677-3.933,7.295-7.866,10.874-11.779c2.035-2.232,4.061-4.454,6.067-6.676
	c3.884-4.297,7.709-8.573,11.465-12.841c0.256-0.275,0.502-0.56,0.747-0.845c5.388-6.096,10.649-12.162,15.772-18.19
	c2.016-2.35,4.002-4.709,5.968-7.05c0.629-0.747,1.249-1.485,1.868-2.222c28.612,24.266,57.421,45.484,84.44,60.567
	c-0.433,0.728-0.885,1.456-1.337,2.183c-1.366,2.213-2.753,4.424-4.149,6.627c-0.02,0.039-0.039,0.059-0.059,0.078
	c-2.094,3.294-4.238,6.578-6.411,9.872c-0.039,0.059-0.088,0.128-0.128,0.187c-1.436,2.143-2.871,4.287-4.336,6.44
	c-2.35,3.431-4.75,6.873-7.207,10.294c-2.379,3.343-4.808,6.676-7.275,10.009c-0.816,1.111-1.651,2.223-2.498,3.323
	c-1.514,2.026-3.058,4.041-4.611,6.067c-1.957,2.547-3.942,5.084-5.968,7.62c-2.32,2.91-4.68,5.821-7.06,8.731
	c-3.579,4.346-7.227,8.662-10.954,12.979C343.62,445.671,342.41,447.058,341.19,448.454z"/>
<linearGradient id="SVGID_12_" gradientUnits="userSpaceOnUse" x1="94.0704" y1="413.2008" x2="1.3384" y2="320.4608" gradientTransform="matrix(1.0039 0 0 -1.0039 0.192 516.5582)">
	<stop  offset="0" style="stop-color:#FFA981;stop-opacity:0"/>
	<stop  offset="1" style="stop-color:#B82934"/>
</linearGradient>
<path style="fill:url(#SVGID_12_);" d="M150.237,106.337c-1.661,1.032-3.343,2.084-5.025,3.136c-0.01,0.01-0.039,0.02-0.059,0.039
	c-2.193,1.386-4.385,2.793-6.598,4.217c-1.161,0.767-2.33,1.524-3.5,2.301c-2.163,1.416-4.317,2.861-6.47,4.326
	c-0.098,0.059-0.187,0.127-0.266,0.187c-2.133,1.446-4.268,2.91-6.391,4.385c-0.108,0.088-0.216,0.158-0.334,0.236
	c-3.206,2.242-6.411,4.523-9.617,6.863c-0.158,0.098-0.305,0.207-0.443,0.324c-1.12,0.806-2.232,1.622-3.353,2.449
	c-11.416,8.426-22.762,17.374-34.001,26.862c-0.845,0.708-1.682,1.426-2.527,2.153c-1.101,0.925-2.203,1.868-3.294,2.822
	c-0.787,0.669-1.553,1.337-2.33,2.016c-4.857,4.227-12.448,2.459-14.857-3.51c-0.02-0.059-0.049-0.108-0.069-0.168
	c-14.158-35.082-14.257-65.66,7.227-87.144c20.795-20.795,44.167-37.422,69.102-49.87C125.263,50.608,134.033,77.45,150.237,106.337
	z"/>
<linearGradient id="SVGID_13_" gradientUnits="userSpaceOnUse" x1="408.282" y1="98.9792" x2="315.552" y2="6.2492" gradientTransform="matrix(1.0039 0 0 -1.0039 0.192 516.5582)">
	<stop  offset="0" style="stop-color:#FFA981;stop-opacity:0"/>
	<stop  offset="1" style="stop-color:#B82934"/>
</linearGradient>
<path style="fill:url(#SVGID_13_);" d="M434.165,453.665c-20.589,20.589-50.893,19.763-85.846,5.457
	c-5.929-2.428-7.699-9.98-3.491-14.837c3.727-4.316,7.375-8.633,10.954-12.979c2.389-2.9,4.749-5.811,7.06-8.731
	c2.026-2.537,4.012-5.074,5.968-7.62c1.563-2.016,3.097-4.041,4.611-6.067c0.845-1.101,1.682-2.213,2.498-3.323
	c2.478-3.323,4.906-6.656,7.275-10.009c2.458-3.421,4.857-6.863,7.207-10.294c1.465-2.153,2.91-4.287,4.336-6.44
	c0.039-0.059,0.088-0.128,0.128-0.187c2.183-3.284,4.326-6.568,6.411-9.872c0.02-0.02,0.039-0.039,0.059-0.078
	c1.406-2.212,2.783-4.414,4.149-6.627c0.453-0.728,0.905-1.456,1.337-2.183c28.74,16.057,55.454,25.151,77.754,23.598
	C472.059,408.81,455.266,432.565,434.165,453.665z"/>
<linearGradient id="SVGID_14_" gradientUnits="userSpaceOnUse" x1="439.2616" y1="338.1014" x2="480.4316" y2="450.4514" gradientTransform="matrix(1.0039 0 0 -1.0039 0.192 516.5582)">
	<stop  offset="0" style="stop-color:#B2D5EC;stop-opacity:0"/>
	<stop  offset="1" style="stop-color:#7797B0"/>
</linearGradient>
<path style="fill:url(#SVGID_14_);" d="M434.395,78.074c-0.06-0.061-0.118-0.123-0.179-0.184
	c12.997,13.1,6.039,44.168-16.339,86.071v177.011C477.391,234.458,487.584,131.594,434.395,78.074z"/>
<linearGradient id="SVGID_15_" gradientUnits="userSpaceOnUse" x1="440.496" y1="460.0297" x2="458.016" y2="442.4997" gradientTransform="matrix(1.0039 0 0 -1.0039 0.192 516.5582)">
	<stop  offset="0" style="stop-color:#FEFFB3"/>
	<stop  offset="1" style="stop-color:#FFCD77"/>
</linearGradient>
<path style="fill:url(#SVGID_15_);" d="M430.173,81.826c3.948,3.948,7.403,8.095,10.336,12.295c0.651-0.617,1.273-1.278,1.83-2.023
	l29-38.731c2.706-3.614,2.345-8.668-0.847-11.86c-3.192-3.192-8.246-3.554-11.86-0.847l-38.731,29
	c-0.745,0.558-1.406,1.18-2.023,1.83C422.078,74.423,426.224,77.878,430.173,81.826z"/>
<g>
</g>
<g>
</g>
<g>
</g>
<g>
</g>
<g>
</g>
<g>
</g>
<g>
</g>
<g>
</g>
<g>
</g>
<g>
</g>
<g>
</g>
<g>
</g>
<g>
</g>
<g>
</g>
<g>
</g>
</svg>
