<?xml version="1.0" encoding="iso-8859-1"?>
<!-- Generator: Adobe Illustrator 19.0.0, SVG Export Plug-In . SVG Version: 6.00 Build 0)  -->
<svg version="1.1" id="Capa_1" xmlns="http://www.w3.org/2000/svg" xmlns:xlink="http://www.w3.org/1999/xlink" x="0px" y="0px"
	 viewBox="0 0 512.001 512.001" style="enable-background:new 0 0 512.001 512.001;" xml:space="preserve">
<g>
	<path style="fill:#EFFBFF;" d="M256.001,351.802c-36.687,0-69.059-3.446-88.319-8.698c-9.385-2.559-18.613,4.575-18.613,14.302v14
		c0,11.016,47.875,19.946,106.933,19.946s106.932-8.93,106.932-19.946v-14c0-9.727-9.228-16.861-18.613-14.302
		C325.059,348.357,292.688,351.802,256.001,351.802z"/>
	<path style="fill:#EFFBFF;" d="M256.001,388.766c-36.687,0-69.059-3.446-88.319-8.698c-9.385-2.559-18.613,4.575-18.613,14.302v14
		c0,11.016,47.875,19.946,106.933,19.946s106.932-8.93,106.932-19.946v-14c0-9.727-9.228-16.861-18.613-14.302
		C325.059,385.319,292.688,388.766,256.001,388.766z"/>
	<path style="fill:#EFFBFF;" d="M256.001,425.728c-36.687,0-69.059-3.446-88.319-8.698c-9.385-2.559-18.613,4.575-18.613,14.302v14
		c0,11.016,47.875,19.946,106.933,19.946s106.932-8.93,106.932-19.946v-14c0-9.727-9.228-16.861-18.613-14.302
		C325.059,422.282,292.688,425.728,256.001,425.728z"/>
	<path style="fill:#EFFBFF;" d="M377.707,160.021c0,67.217-54.49,81.138-121.706,81.138s-121.706-13.921-121.706-81.138
		s54.49-121.706,121.706-121.706S377.707,92.805,377.707,160.021z"/>
	<path style="fill:#EFFBFF;" d="M256.001,237.102c-40.635,0-76.611-5.094-98.718-23.968v122.684
		c0,10.17,44.198,18.414,98.718,18.414s98.718-8.244,98.718-18.414V213.135C332.612,232.008,296.635,237.102,256.001,237.102z"/>
	<path style="fill:#EFFBFF;" d="M256.001,461.222c-44.475,0-82.597-5.066-98.718-12.271v44.636c0,10.17,44.198,18.414,98.718,18.414
		s98.718-8.244,98.718-18.414v-44.636C338.597,456.156,300.475,461.222,256.001,461.222z"/>
</g>
<linearGradient id="SVGID_1_" gradientUnits="userSpaceOnUse" x1="144.3561" y1="213.1035" x2="365.2661" y2="213.1035" gradientTransform="matrix(1.0039 0 0 -1.0039 0.1922 516.5609)">
	<stop  offset="0" style="stop-color:#00FFF4"/>
	<stop  offset="0.483" style="stop-color:#00DBFF"/>
	<stop  offset="0.65" style="stop-color:#00E0FE"/>
	<stop  offset="0.838" style="stop-color:#00EDF9"/>
	<stop  offset="1" style="stop-color:#00FFF4"/>
</linearGradient>
<path style="opacity:0.5;fill:url(#SVGID_1_);enable-background:new    ;" d="M352.122,357.401v7.111c0,2.441-1.506,4.629-3.786,5.5
	l-0.015,0.006l-7.057,2.706c-7.439,2.852-6.976,13.53,0.683,15.727l7.253,2.081c1.461,0.406,2.921,1.758,2.921,3.841v7.162
	c0,2.395-1.469,4.545-3.699,5.416l-0.1,0.039l-7.038,2.696c-7.442,2.85-6.98,13.53,0.68,15.728l7.238,2.077
	c1.447,0.42,2.921,1.758,2.921,3.841v10.9c-0.46,0.257-1.055,0.554-1.812,0.907l0,0c-3.898,1.735-6.41,5.603-6.41,9.87v13.47
	c0,9.825-6.879,18.32-16.501,20.308c-15.094,3.12-39.15,5.9-71.398,5.9s-56.304-2.78-71.398-5.9
	c-9.623-1.989-16.501-10.482-16.501-20.308v-13.484c0-4.26-2.504-8.123-6.392-9.862l-0.017-0.008
	c-0.757-0.338-1.352-0.635-1.799-0.892v-10.9c0-2.082,1.461-3.421,2.907-3.841l7.238-2.077c7.66-2.198,8.121-12.878,0.68-15.728
	l-7.038-2.696l-0.038-0.015c-2.26-0.882-3.749-3.06-3.749-5.486v-7.116c0-2.082,1.461-3.434,2.907-3.841l7.253-2.081
	c7.658-2.198,8.121-12.874,0.683-15.727l-7.057-2.706l0,0c-2.28-0.871-3.786-3.06-3.786-5.5v-7.116c0-0.598,0.125-1.147,0.344-1.635
	c2.121-4.733,3.786-9.659,3.943-14.844l3.769-123.721c0.096-3.157-1.246-6.189-3.648-8.24l0,0
	c-12.914-11.021-19.189-27.033-19.189-48.939c0-9.533,1.204-18.783,3.489-27.614c0.136-0.568,0.284-1.135,0.46-1.691
	c5.044-10.183,50.995-18.161,106.94-18.161s101.895,7.978,106.94,18.161c0.176,0.554,0.324,1.122,0.46,1.691
	c2.286,8.831,3.489,18.081,3.489,27.614c0,21.908-6.275,37.918-19.189,48.939l-0.003,0.003c-2.4,2.05-3.743,5.078-3.648,8.233
	l3.678,123.489c0.157,5.273,1.867,10.276,4.047,15.08C351.995,356.254,352.122,356.803,352.122,357.401z"/>
<linearGradient id="SVGID_2_" gradientUnits="userSpaceOnUse" x1="254.8091" y1="320.123" x2="254.8091" y2="426.753" gradientTransform="matrix(1.0039 0 0 -1.0039 0.1922 516.5609)">
	<stop  offset="0" style="stop-color:#00FFF4"/>
	<stop  offset="1" style="stop-color:#00DBFF"/>
</linearGradient>
<path style="fill:url(#SVGID_2_);" d="M363.413,132.583c0,11.075-48.087,20.041-107.413,20.041s-107.413-8.966-107.413-20.041
	c0-0.054,0-0.121,0.013-0.176c0.014-0.568,0.176-1.135,0.46-1.691c5.044-10.183,50.995-18.161,106.94-18.161
	s101.895,7.978,106.94,18.161c0.284,0.554,0.446,1.122,0.46,1.691C363.413,132.461,363.413,132.529,363.413,132.583z"/>
<linearGradient id="SVGID_3_" gradientUnits="userSpaceOnUse" x1="184.2591" y1="20.923" x2="143.7191" y2="20.923" gradientTransform="matrix(1.0039 0 0 -1.0039 0.1922 516.5609)">
	<stop  offset="0" style="stop-color:#EFFBFF"/>
	<stop  offset="0.073" style="stop-color:#EAF8FD"/>
	<stop  offset="0.684" style="stop-color:#C1DFF1"/>
	<stop  offset="1" style="stop-color:#B2D5EC"/>
</linearGradient>
<path style="opacity:0.5;fill:url(#SVGID_3_);enable-background:new    ;" d="M169.096,485.718
	c10.804,2.539,36.203,7.637,67.657,8.203v11.472c-23.037-0.415-42.9-4.757-56.084-6.329c-6.78-0.809-11.573-3.936-11.573-7.537
	V485.718z"/>
<linearGradient id="SVGID_4_" gradientUnits="userSpaceOnUse" x1="320.2691" y1="20.9235" x2="357.7791" y2="20.9235" gradientTransform="matrix(1.0039 0 0 -1.0039 0.1922 516.5609)">
	<stop  offset="0" style="stop-color:#EFFBFF"/>
	<stop  offset="0.073" style="stop-color:#EAF8FD"/>
	<stop  offset="0.684" style="stop-color:#C1DFF1"/>
	<stop  offset="1" style="stop-color:#B2D5EC"/>
</linearGradient>
<path style="opacity:0.5;fill:url(#SVGID_4_);enable-background:new    ;" d="M342.905,485.718v5.808
	c0,3.601-4.792,6.729-11.573,7.537c-13.185,1.572-33.047,5.914-56.084,6.329V493.92
	C306.669,493.356,332.186,488.237,342.905,485.718z"/>
<linearGradient id="SVGID_5_" gradientUnits="userSpaceOnUse" x1="223.8291" y1="191.203" x2="223.8291" y2="276.633" gradientTransform="matrix(1.0039 0 0 -1.0039 0.1922 516.5609)">
	<stop  offset="0" style="stop-color:#00FFF4;stop-opacity:0.2"/>
	<stop  offset="0.131" style="stop-color:#32FFF6;stop-opacity:0.305"/>
	<stop  offset="0.309" style="stop-color:#70FFF9;stop-opacity:0.447"/>
	<stop  offset="0.479" style="stop-color:#A3FFFB;stop-opacity:0.583"/>
	<stop  offset="0.638" style="stop-color:#CBFFFD;stop-opacity:0.71"/>
	<stop  offset="0.782" style="stop-color:#E7FFFE;stop-opacity:0.826"/>
	<stop  offset="0.908" style="stop-color:#F9FFFF;stop-opacity:0.926"/>
	<stop  offset="1" style="stop-color:#FFFFFF"/>
</linearGradient>
<circle style="fill:url(#SVGID_5_);" cx="224.899" cy="309.67" r="22.024"/>
<linearGradient id="SVGID_6_" gradientUnits="userSpaceOnUse" x1="260.8691" y1="233.743" x2="260.8691" y2="268.613" gradientTransform="matrix(1.0039 0 0 -1.0039 0.1922 516.5609)">
	<stop  offset="0" style="stop-color:#00FFF4;stop-opacity:0.2"/>
	<stop  offset="0.131" style="stop-color:#32FFF6;stop-opacity:0.305"/>
	<stop  offset="0.309" style="stop-color:#70FFF9;stop-opacity:0.447"/>
	<stop  offset="0.479" style="stop-color:#A3FFFB;stop-opacity:0.583"/>
	<stop  offset="0.638" style="stop-color:#CBFFFD;stop-opacity:0.71"/>
	<stop  offset="0.782" style="stop-color:#E7FFFE;stop-opacity:0.826"/>
	<stop  offset="0.908" style="stop-color:#F9FFFF;stop-opacity:0.926"/>
	<stop  offset="1" style="stop-color:#FFFFFF"/>
</linearGradient>
<circle style="fill:url(#SVGID_6_);" cx="262.084" cy="275.807" r="8.991"/>
<linearGradient id="SVGID_7_" gradientUnits="userSpaceOnUse" x1="219.4391" y1="289.753" x2="219.4391" y2="324.633" gradientTransform="matrix(1.0039 0 0 -1.0039 0.1922 516.5609)">
	<stop  offset="0" style="stop-color:#00FFF4;stop-opacity:0.2"/>
	<stop  offset="0.131" style="stop-color:#32FFF6;stop-opacity:0.305"/>
	<stop  offset="0.309" style="stop-color:#70FFF9;stop-opacity:0.447"/>
	<stop  offset="0.479" style="stop-color:#A3FFFB;stop-opacity:0.583"/>
	<stop  offset="0.638" style="stop-color:#CBFFFD;stop-opacity:0.71"/>
	<stop  offset="0.782" style="stop-color:#E7FFFE;stop-opacity:0.826"/>
	<stop  offset="0.908" style="stop-color:#F9FFFF;stop-opacity:0.926"/>
	<stop  offset="1" style="stop-color:#FFFFFF"/>
</linearGradient>
<circle style="fill:url(#SVGID_7_);" cx="220.492" cy="219.568" r="8.991"/>
<linearGradient id="SVGID_8_" gradientUnits="userSpaceOnUse" x1="260.8691" y1="318.313" x2="260.8691" y2="353.193" gradientTransform="matrix(1.0039 0 0 -1.0039 0.1922 516.5609)">
	<stop  offset="0" style="stop-color:#00FFF4;stop-opacity:0.2"/>
	<stop  offset="0.131" style="stop-color:#32FFF6;stop-opacity:0.305"/>
	<stop  offset="0.309" style="stop-color:#70FFF9;stop-opacity:0.447"/>
	<stop  offset="0.479" style="stop-color:#A3FFFB;stop-opacity:0.583"/>
	<stop  offset="0.638" style="stop-color:#CBFFFD;stop-opacity:0.71"/>
	<stop  offset="0.782" style="stop-color:#E7FFFE;stop-opacity:0.826"/>
	<stop  offset="0.908" style="stop-color:#F9FFFF;stop-opacity:0.926"/>
	<stop  offset="1" style="stop-color:#FFFFFF"/>
</linearGradient>
<circle style="fill:url(#SVGID_8_);" cx="262.084" cy="190.906" r="8.991"/>
<linearGradient id="SVGID_9_" gradientUnits="userSpaceOnUse" x1="236.8091" y1="255.413" x2="236.8091" y2="314.243" gradientTransform="matrix(1.0039 0 0 -1.0039 0.1922 516.5609)">
	<stop  offset="0" style="stop-color:#00FFF4;stop-opacity:0.2"/>
	<stop  offset="0.131" style="stop-color:#32FFF6;stop-opacity:0.305"/>
	<stop  offset="0.309" style="stop-color:#70FFF9;stop-opacity:0.447"/>
	<stop  offset="0.479" style="stop-color:#A3FFFB;stop-opacity:0.583"/>
	<stop  offset="0.638" style="stop-color:#CBFFFD;stop-opacity:0.71"/>
	<stop  offset="0.782" style="stop-color:#E7FFFE;stop-opacity:0.826"/>
	<stop  offset="0.908" style="stop-color:#F9FFFF;stop-opacity:0.926"/>
	<stop  offset="1" style="stop-color:#FFFFFF"/>
</linearGradient>
<circle style="fill:url(#SVGID_9_);" cx="237.93" cy="249.856" r="15.169"/>
<linearGradient id="SVGID_10_" gradientUnits="userSpaceOnUse" x1="322.5902" y1="415.7441" x2="186.8002" y2="551.5341" gradientTransform="matrix(1.0039 0 0 -1.0039 0.1922 516.5609)">
	<stop  offset="0" style="stop-color:#B2D5EC;stop-opacity:0"/>
	<stop  offset="1" style="stop-color:#7797B0"/>
</linearGradient>
<path style="fill:url(#SVGID_10_);" d="M377.707,160.021c0-67.217-54.49-121.706-121.706-121.706c-10.727,0-21.127,1.393-31.035,4
	l-0.067,0.959l147.839,147.84C375.965,182.292,377.707,172.008,377.707,160.021z"/>
<linearGradient id="SVGID_11_" gradientUnits="userSpaceOnUse" x1="269.9363" y1="157.4502" x2="196.5963" y2="230.7802" gradientTransform="matrix(1.0039 0 0 -1.0039 0.1922 516.5609)">
	<stop  offset="0" style="stop-color:#B2D5EC;stop-opacity:0"/>
	<stop  offset="1" style="stop-color:#00DBFF"/>
</linearGradient>
<path style="fill:url(#SVGID_11_);" d="M351.774,355.767c-1.819-4.008-3.297-8.158-3.832-12.485
	c-3.523,0.926-7.055,1.836-10.6,2.716l-5.672,1.392c-1.905,0.397-3.823,0.739-5.735,1.111l-11.51,2.106
	c-3.861,0.556-7.739,1.01-11.611,1.52l-5.814,0.741l-5.842,0.464c-3.896,0.289-7.79,0.65-11.693,0.88
	c-7.813,0.272-15.627,0.618-23.447,0.497c-15.632-0.148-31.264-1.011-46.757-2.951c-15.27-1.862-30.466-4.488-45.262-8.489
	l38.894,38.894c2.239,0.208,4.479,0.414,6.719,0.6c3.869,0.268,7.735,0.541,11.596,0.856l11.608,0.608
	c3.868,0.197,7.742,0.268,11.613,0.41c3.87,0.173,7.743,0.164,11.616,0.159c7.747,0.187,15.484-0.128,23.229-0.28
	c3.869-0.134,7.731-0.397,11.6-0.587l5.803-0.308l5.786-0.5l11.582-1.006l11.537-1.436c1.926-0.233,3.859-0.435,5.783-0.693
	l4.683-0.774c0.401-2.735,2.11-5.296,5.218-6.487l7.057-2.706l0.015-0.006c2.28-0.872,3.786-3.06,3.786-5.501v-7.111
	C352.122,356.803,351.995,356.254,351.774,355.767z"/>
<linearGradient id="SVGID_12_" gradientUnits="userSpaceOnUse" x1="266.8016" y1="125.5755" x2="208.6216" y2="183.7555" gradientTransform="matrix(1.0039 0 0 -1.0039 0.1922 516.5609)">
	<stop  offset="0" style="stop-color:#B2D5EC;stop-opacity:0"/>
	<stop  offset="1" style="stop-color:#00DBFF"/>
</linearGradient>
<path style="fill:url(#SVGID_12_);" d="M349.201,390.533l-7.253-2.081c-3.966-1.138-5.984-4.551-5.992-7.972l-4.287,1.052
	c-1.905,0.397-3.823,0.739-5.735,1.111l-11.51,2.107c-3.861,0.556-7.739,1.01-11.611,1.52l-5.814,0.741l-5.842,0.463
	c-3.896,0.289-7.79,0.65-11.693,0.88c-7.813,0.272-15.627,0.618-23.447,0.497c-15.632-0.148-31.264-1.011-46.757-2.951
	c-11.155-1.36-22.268-3.135-33.218-5.548l39.35,39.35c1.939,0.142,3.878,0.271,5.815,0.43l11.608,0.608
	c3.868,0.197,7.742,0.269,11.613,0.41c3.87,0.173,7.743,0.164,11.616,0.159c7.747,0.187,15.484-0.128,23.229-0.28
	c3.869-0.134,7.731-0.397,11.6-0.587l5.803-0.308l5.786-0.5l11.582-1.006l11.537-1.436c1.926-0.232,3.859-0.435,5.783-0.692
	l4.78-0.79c0.521-2.557,2.208-4.898,5.14-6.022l7.038-2.696l0.1-0.039c2.231-0.871,3.699-3.021,3.699-5.416v-7.162
	C352.122,392.29,350.661,390.938,349.201,390.533z"/>
<linearGradient id="SVGID_13_" gradientUnits="userSpaceOnUse" x1="264.888" y1="90.8819" x2="208.308" y2="147.4619" gradientTransform="matrix(1.0039 0 0 -1.0039 0.1922 516.5609)">
	<stop  offset="0" style="stop-color:#B2D5EC;stop-opacity:0"/>
	<stop  offset="1" style="stop-color:#00DBFF"/>
</linearGradient>
<path style="fill:url(#SVGID_13_);" d="M349.201,427.491l-7.238-2.077c-4.143-1.189-6.16-4.859-5.979-8.43l-4.315,1.059
	c-1.905,0.397-3.823,0.739-5.735,1.11l-11.51,2.106c-3.861,0.556-7.739,1.01-11.611,1.52l-5.814,0.741l-5.842,0.463
	c-3.896,0.289-7.79,0.65-11.693,0.88c-7.813,0.272-15.627,0.618-23.447,0.497c-15.632-0.148-31.264-1.012-46.757-2.951
	c-11.164-1.362-22.287-3.138-33.246-5.554l39.355,39.355c1.947,0.143,3.895,0.273,5.839,0.432l11.608,0.608
	c3.868,0.197,7.742,0.269,11.613,0.41c3.87,0.173,7.743,0.164,11.616,0.159c7.747,0.187,15.484-0.128,23.229-0.28
	c3.869-0.134,7.731-0.397,11.6-0.587l5.803-0.308l5.786-0.5l11.582-1.006l11.537-1.436c1.926-0.232,3.859-0.435,5.783-0.692
	l5.738-0.949c2.33-0.38,4.674-0.73,7.014-1.089c0.659-3.426,2.928-6.381,6.192-7.835c0.757-0.351,1.352-0.65,1.812-0.907v-10.9
	C352.122,429.249,350.647,427.911,349.201,427.491z"/>
<linearGradient id="SVGID_14_" gradientUnits="userSpaceOnUse" x1="265.3391" y1="53.613" x2="203.5091" y2="115.443" gradientTransform="matrix(1.0039 0 0 -1.0039 0.1922 516.5609)">
	<stop  offset="0" style="stop-color:#B2D5EC;stop-opacity:0"/>
	<stop  offset="1" style="stop-color:#00DBFF"/>
</linearGradient>
<path style="fill:url(#SVGID_14_);" d="M337.341,453.162l-5.672,1.392c-1.905,0.397-3.823,0.739-5.735,1.111l-11.51,2.107
	c-3.861,0.556-7.739,1.01-11.611,1.52l-5.814,0.741l-5.842,0.463c-3.896,0.289-7.79,0.65-11.693,0.88
	c-7.813,0.272-15.627,0.618-23.447,0.497c-15.632-0.148-31.264-1.011-46.757-2.951c-13.899-1.696-27.738-4.028-41.269-7.448
	c0.07,0.499,0.11,1.005,0.11,1.518l37.003,37.003c13.604,1.59,30.63,2.69,50.896,2.69c32.248,0,56.304-2.78,71.398-5.9
	c9.623-1.989,16.501-10.482,16.501-20.308v-13.471c0-0.525,0.04-1.044,0.113-1.553C341.791,452.026,339.573,452.609,337.341,453.162
	z"/>
<linearGradient id="SVGID_15_" gradientUnits="userSpaceOnUse" x1="262.6191" y1="241.779" x2="332.6891" y2="241.779" gradientTransform="matrix(1.0039 0 0 -1.0039 0.1922 516.5609)">
	<stop  offset="0" style="stop-color:#FFFFFF;stop-opacity:0"/>
	<stop  offset="0.483" style="stop-color:#FFFFFF"/>
	<stop  offset="0.927" style="stop-color:#FFFFFF;stop-opacity:0.141"/>
	<stop  offset="1" style="stop-color:#FFFFFF;stop-opacity:0"/>
</linearGradient>
<path style="opacity:0.5;fill:url(#SVGID_15_);enable-background:new    ;" d="M285.85,50.838c-29.073,0-52.641,7.713-52.641,17.227
	V483.43c0,9.514,23.568,13.399,52.641,13.399s52.641-3.885,52.641-13.399V93.308C338.491,83.793,314.923,50.838,285.85,50.838z"/>
<linearGradient id="SVGID_16_" gradientUnits="userSpaceOnUse" x1="315.1602" y1="242.884" x2="203.3602" y2="354.694" gradientTransform="matrix(1.0039 0 0 -1.0039 0.1922 516.5609)">
	<stop  offset="0" style="stop-color:#B2D5EC;stop-opacity:0"/>
	<stop  offset="1" style="stop-color:#00DBFF"/>
</linearGradient>
<path style="fill:url(#SVGID_16_);" d="M347.483,332.696c-11.886,3.664-29.926,6.572-51.455,8.195L167.858,212.72
	c13.874,3.814,28.114,6.356,42.422,8.181c15.159,1.988,30.454,2.88,45.735,3.029c7.654,0.121,15.295-0.23,22.935-0.514
	c3.814-0.23,7.627-0.608,11.441-0.907l5.706-0.473l5.693-0.757c3.787-0.527,7.573-0.987,11.359-1.555l11.251-2.163
	c1.879-0.378,3.746-0.73,5.612-1.136l5.545-1.434c3.177-0.825,6.342-1.663,9.493-2.542c-0.703,1.461-1.054,3.083-1.001,4.747
	L347.483,332.696z"/>
<g>
	<path style="fill:#EFFBFF;" d="M165.397,212.026c15.031,2.52,30.114,4.34,45.23,5.66c3.785,0.274,7.566,0.555,11.342,0.878
		l11.354,0.623c3.784,0.202,7.574,0.275,11.358,0.42c3.786,0.177,7.574,0.168,11.361,0.163c7.578,0.192,15.146-0.132,22.721-0.287
		c3.785-0.137,7.563-0.407,11.346-0.602l5.675-0.316l5.659-0.513l11.328-1.032l11.284-1.473c1.883-0.239,3.775-0.447,5.656-0.711
		l5.613-0.974c3.747-0.642,7.505-1.251,11.278-1.837c-3.668,1.014-7.35,2.007-11.044,2.968l-5.549,1.429
		c-1.864,0.407-3.739,0.758-5.61,1.139l-11.258,2.161c-3.777,0.571-7.57,1.036-11.357,1.559l-5.687,0.76l-5.714,0.475
		c-3.811,0.297-7.62,0.667-11.437,0.903c-7.641,0.279-15.286,0.634-22.934,0.51c-15.29-0.152-30.579-1.038-45.733-3.027
		C195.138,218.965,180.062,216.23,165.397,212.026z"/>
	<path style="fill:#EFFBFF;" d="M163.369,343.105c15.367,2.457,30.787,4.231,46.243,5.518c3.869,0.268,7.735,0.541,11.596,0.856
		l11.608,0.608c3.868,0.197,7.742,0.268,11.613,0.41c3.87,0.173,7.743,0.164,11.616,0.159c7.747,0.187,15.484-0.128,23.229-0.28
		c3.869-0.134,7.731-0.397,11.6-0.587l5.803-0.308l5.786-0.5l11.582-1.006l11.537-1.436c1.926-0.233,3.859-0.435,5.783-0.693
		l5.738-0.949c3.83-0.625,7.674-1.219,11.531-1.791c-3.751,0.989-7.514,1.957-11.292,2.892l-5.672,1.392
		c-1.905,0.397-3.823,0.739-5.735,1.111l-11.51,2.106c-3.861,0.556-7.739,1.01-11.611,1.52L297,352.869l-5.842,0.464
		c-3.896,0.289-7.79,0.65-11.693,0.88c-7.813,0.272-15.627,0.618-23.447,0.497c-15.632-0.148-31.264-1.011-46.757-2.951
		C193.774,349.87,178.362,347.202,163.369,343.105z"/>
	<path style="fill:#EFFBFF;" d="M163.369,377.246c15.367,2.457,30.787,4.231,46.243,5.518c3.869,0.268,7.735,0.541,11.596,0.856
		l11.608,0.608c3.868,0.197,7.742,0.268,11.613,0.41c3.87,0.173,7.743,0.164,11.616,0.159c7.747,0.187,15.484-0.128,23.229-0.28
		c3.869-0.134,7.731-0.397,11.6-0.587l5.803-0.308l5.786-0.5l11.582-1.006l11.537-1.436c1.926-0.233,3.859-0.435,5.783-0.693
		l5.738-0.949c3.83-0.625,7.674-1.219,11.531-1.791c-3.751,0.989-7.514,1.957-11.292,2.892l-5.672,1.392
		c-1.905,0.397-3.823,0.739-5.735,1.11l-11.51,2.107c-3.861,0.556-7.739,1.01-11.611,1.52L297,387.01l-5.842,0.463
		c-3.896,0.289-7.79,0.65-11.693,0.88c-7.813,0.272-15.627,0.618-23.447,0.497c-15.632-0.148-31.264-1.012-46.757-2.951
		C193.774,384.01,178.362,381.344,163.369,377.246z"/>
	<path style="fill:#EFFBFF;" d="M163.369,413.758c15.367,2.457,30.787,4.23,46.243,5.518c3.869,0.268,7.735,0.541,11.596,0.856
		l11.608,0.607c3.868,0.197,7.742,0.269,11.613,0.41c3.87,0.173,7.743,0.164,11.616,0.159c7.747,0.187,15.484-0.128,23.229-0.28
		c3.869-0.134,7.731-0.397,11.6-0.587l5.803-0.308l5.786-0.5l11.582-1.006l11.537-1.436c1.926-0.232,3.859-0.435,5.783-0.692
		l5.738-0.949c3.83-0.625,7.674-1.219,11.531-1.791c-3.751,0.989-7.514,1.957-11.292,2.892l-5.672,1.392
		c-1.905,0.397-3.823,0.739-5.735,1.111l-11.51,2.106c-3.861,0.556-7.739,1.01-11.611,1.52L297,423.522l-5.842,0.463
		c-3.896,0.289-7.79,0.65-11.693,0.88c-7.813,0.272-15.627,0.618-23.447,0.497c-15.632-0.148-31.264-1.012-46.757-2.951
		C193.774,420.522,178.362,417.855,163.369,413.758z"/>
	<path style="fill:#EFFBFF;" d="M163.369,450.27c15.367,2.457,30.787,4.231,46.243,5.518c3.869,0.268,7.735,0.541,11.596,0.856
		l11.608,0.608c3.868,0.197,7.742,0.269,11.613,0.41c3.87,0.173,7.743,0.164,11.616,0.159c7.747,0.187,15.484-0.128,23.229-0.28
		c3.869-0.134,7.731-0.397,11.6-0.587l5.803-0.308l5.786-0.5l11.582-1.006l11.537-1.436c1.926-0.232,3.859-0.435,5.783-0.693
		l5.738-0.949c3.83-0.625,7.674-1.219,11.531-1.791c-3.751,0.989-7.514,1.957-11.292,2.892l-5.672,1.392
		c-1.905,0.397-3.823,0.739-5.735,1.111l-11.51,2.107c-3.861,0.556-7.739,1.01-11.611,1.52L297,460.035l-5.842,0.463
		c-3.896,0.289-7.79,0.65-11.693,0.88c-7.813,0.272-15.627,0.618-23.447,0.497c-15.632-0.148-31.264-1.012-46.757-2.951
		C193.774,457.034,178.362,454.367,163.369,450.27z"/>
</g>
<linearGradient id="SVGID_17_" gradientUnits="userSpaceOnUse" x1="148.2941" y1="144.1855" x2="153.8146" y2="144.1855" gradientTransform="matrix(1.0039 0 0 -1.0039 0.1922 516.5609)">
	<stop  offset="0" style="stop-color:#C6E1F2"/>
	<stop  offset="0.038" style="stop-color:#DCECF7"/>
	<stop  offset="0.085" style="stop-color:#EFF7FB"/>
	<stop  offset="0.133" style="stop-color:#FBFDFE"/>
	<stop  offset="0.181" style="stop-color:#FFFFFF"/>
	<stop  offset="0.249" style="stop-color:#F6FAFD"/>
	<stop  offset="0.573" style="stop-color:#D1E6F4"/>
	<stop  offset="0.835" style="stop-color:#BADAEE"/>
	<stop  offset="1" style="stop-color:#B2D5EC"/>
</linearGradient>
<path style="fill:url(#SVGID_17_);" d="M149.068,365.998v5.409c0,2.17,1.866,4.26,5.306,6.215
	C155.957,376.297,149.068,369.125,149.068,365.998z"/>
<linearGradient id="SVGID_18_" gradientUnits="userSpaceOnUse" x1="148.2941" y1="107.3675" x2="153.8146" y2="107.3675" gradientTransform="matrix(1.0039 0 0 -1.0039 0.1922 516.5609)">
	<stop  offset="0" style="stop-color:#C6E1F2"/>
	<stop  offset="0.038" style="stop-color:#DCECF7"/>
	<stop  offset="0.085" style="stop-color:#EFF7FB"/>
	<stop  offset="0.133" style="stop-color:#FBFDFE"/>
	<stop  offset="0.181" style="stop-color:#FFFFFF"/>
	<stop  offset="0.249" style="stop-color:#F6FAFD"/>
	<stop  offset="0.573" style="stop-color:#D1E6F4"/>
	<stop  offset="0.835" style="stop-color:#BADAEE"/>
	<stop  offset="1" style="stop-color:#B2D5EC"/>
</linearGradient>
<path style="fill:url(#SVGID_18_);" d="M149.068,402.96v5.409c0,2.17,1.866,4.26,5.306,6.215
	C155.957,413.259,149.068,406.087,149.068,402.96z"/>
<linearGradient id="SVGID_19_" gradientUnits="userSpaceOnUse" x1="133.5781" y1="328.292" x2="156.4771" y2="328.292" gradientTransform="matrix(1.0039 0 0 -1.0039 0.1922 516.5609)">
	<stop  offset="0" style="stop-color:#C6E1F2"/>
	<stop  offset="0.038" style="stop-color:#DCECF7"/>
	<stop  offset="0.085" style="stop-color:#EFF7FB"/>
	<stop  offset="0.133" style="stop-color:#FBFDFE"/>
	<stop  offset="0.181" style="stop-color:#FFFFFF"/>
	<stop  offset="0.249" style="stop-color:#F6FAFD"/>
	<stop  offset="0.573" style="stop-color:#D1E6F4"/>
	<stop  offset="0.835" style="stop-color:#BADAEE"/>
	<stop  offset="1" style="stop-color:#B2D5EC"/>
</linearGradient>
<path style="fill:url(#SVGID_19_);" d="M157.283,217.191L157.283,217.191c0-3.294-1.316-6.447-3.645-8.776
	c-11.863-11.859-18.884-28.519-19.299-51.644c-0.028,1.08-0.044,2.162-0.044,3.249C134.294,186.603,142.822,204.844,157.283,217.191
	z"/>
<linearGradient id="SVGID_20_" gradientUnits="userSpaceOnUse" x1="355.8037" y1="107.3675" x2="361.3241" y2="107.3675" gradientTransform="matrix(1.0039 0 0 -1.0039 0.1922 516.5609)">
	<stop  offset="0" style="stop-color:#C6E1F2"/>
	<stop  offset="0.038" style="stop-color:#DCECF7"/>
	<stop  offset="0.085" style="stop-color:#EFF7FB"/>
	<stop  offset="0.133" style="stop-color:#FBFDFE"/>
	<stop  offset="0.181" style="stop-color:#FFFFFF"/>
	<stop  offset="0.249" style="stop-color:#F6FAFD"/>
	<stop  offset="0.573" style="stop-color:#D1E6F4"/>
	<stop  offset="0.835" style="stop-color:#BADAEE"/>
	<stop  offset="1" style="stop-color:#B2D5EC"/>
</linearGradient>
<path style="fill:url(#SVGID_20_);" d="M357.628,414.585c3.439-1.956,5.306-4.045,5.306-6.215v-5.409
	C362.932,406.087,356.044,413.259,357.628,414.585z"/>
<linearGradient id="SVGID_21_" gradientUnits="userSpaceOnUse" x1="353.1411" y1="328.2915" x2="376.0401" y2="328.2915" gradientTransform="matrix(1.0039 0 0 -1.0039 0.1922 516.5609)">
	<stop  offset="0" style="stop-color:#C6E1F2"/>
	<stop  offset="0.038" style="stop-color:#DCECF7"/>
	<stop  offset="0.085" style="stop-color:#EFF7FB"/>
	<stop  offset="0.133" style="stop-color:#FBFDFE"/>
	<stop  offset="0.181" style="stop-color:#FFFFFF"/>
	<stop  offset="0.249" style="stop-color:#F6FAFD"/>
	<stop  offset="0.573" style="stop-color:#D1E6F4"/>
	<stop  offset="0.835" style="stop-color:#BADAEE"/>
	<stop  offset="1" style="stop-color:#B2D5EC"/>
</linearGradient>
<path style="fill:url(#SVGID_21_);" d="M354.718,217.191L354.718,217.191c14.46-12.347,22.989-30.587,22.989-57.17
	c0-1.086-0.016-2.169-0.044-3.249c-0.416,23.123-7.436,39.784-19.299,51.644C356.033,210.744,354.718,213.897,354.718,217.191z"/>
<linearGradient id="SVGID_22_" gradientUnits="userSpaceOnUse" x1="355.8037" y1="144.1855" x2="361.3241" y2="144.1855" gradientTransform="matrix(1.0039 0 0 -1.0039 0.1922 516.5609)">
	<stop  offset="0" style="stop-color:#C6E1F2"/>
	<stop  offset="0.038" style="stop-color:#DCECF7"/>
	<stop  offset="0.085" style="stop-color:#EFF7FB"/>
	<stop  offset="0.133" style="stop-color:#FBFDFE"/>
	<stop  offset="0.181" style="stop-color:#FFFFFF"/>
	<stop  offset="0.249" style="stop-color:#F6FAFD"/>
	<stop  offset="0.573" style="stop-color:#D1E6F4"/>
	<stop  offset="0.835" style="stop-color:#BADAEE"/>
	<stop  offset="1" style="stop-color:#B2D5EC"/>
</linearGradient>
<path style="fill:url(#SVGID_22_);" d="M357.628,377.622c3.439-1.956,5.306-4.045,5.306-6.215v-5.409
	C362.932,369.125,356.044,376.297,357.628,377.622z"/>
<linearGradient id="SVGID_23_" gradientUnits="userSpaceOnUse" x1="148.2941" y1="69.8215" x2="156.4771" y2="69.8215" gradientTransform="matrix(1.0039 0 0 -1.0039 0.1922 516.5609)">
	<stop  offset="0" style="stop-color:#C6E1F2"/>
	<stop  offset="0.038" style="stop-color:#DCECF7"/>
	<stop  offset="0.085" style="stop-color:#EFF7FB"/>
	<stop  offset="0.133" style="stop-color:#FBFDFE"/>
	<stop  offset="0.181" style="stop-color:#FFFFFF"/>
	<stop  offset="0.249" style="stop-color:#F6FAFD"/>
	<stop  offset="0.573" style="stop-color:#D1E6F4"/>
	<stop  offset="0.835" style="stop-color:#BADAEE"/>
	<stop  offset="1" style="stop-color:#B2D5EC"/>
</linearGradient>
<path style="fill:url(#SVGID_23_);" d="M153.065,445.339c-2.602-1.722-3.998-3.538-3.998-5.415v5.409
	c0,2.721,2.929,5.312,8.215,7.675l0,0C157.283,449.897,155.659,447.054,153.065,445.339z"/>
<linearGradient id="SVGID_24_" gradientUnits="userSpaceOnUse" x1="353.1411" y1="69.8225" x2="361.3241" y2="69.8225" gradientTransform="matrix(1.0039 0 0 -1.0039 0.1922 516.5609)">
	<stop  offset="0" style="stop-color:#C6E1F2"/>
	<stop  offset="0.038" style="stop-color:#DCECF7"/>
	<stop  offset="0.085" style="stop-color:#EFF7FB"/>
	<stop  offset="0.133" style="stop-color:#FBFDFE"/>
	<stop  offset="0.181" style="stop-color:#FFFFFF"/>
	<stop  offset="0.249" style="stop-color:#F6FAFD"/>
	<stop  offset="0.573" style="stop-color:#D1E6F4"/>
	<stop  offset="0.835" style="stop-color:#BADAEE"/>
	<stop  offset="1" style="stop-color:#B2D5EC"/>
</linearGradient>
<path style="fill:url(#SVGID_24_);" d="M354.718,453.007L354.718,453.007c5.286-2.363,8.215-4.954,8.215-7.675v-5.409
	c0,1.877-1.395,3.693-3.998,5.415C356.343,447.054,354.718,449.897,354.718,453.007z"/>
<linearGradient id="SVGID_25_" gradientUnits="userSpaceOnUse" x1="156.4771" y1="16.408" x2="353.1411" y2="16.408" gradientTransform="matrix(1.0039 0 0 -1.0039 0.1922 516.5609)">
	<stop  offset="0" style="stop-color:#C6E1F2"/>
	<stop  offset="0.038" style="stop-color:#DCECF7"/>
	<stop  offset="0.085" style="stop-color:#EFF7FB"/>
	<stop  offset="0.133" style="stop-color:#FBFDFE"/>
	<stop  offset="0.181" style="stop-color:#FFFFFF"/>
	<stop  offset="0.249" style="stop-color:#F6FAFD"/>
	<stop  offset="0.573" style="stop-color:#D1E6F4"/>
	<stop  offset="0.835" style="stop-color:#BADAEE"/>
	<stop  offset="1" style="stop-color:#B2D5EC"/>
</linearGradient>
<path style="fill:url(#SVGID_25_);" d="M256.001,506.591c-54.52,0-98.718-8.244-98.718-18.414v5.409
	c0,10.17,44.198,18.414,98.718,18.414s98.718-8.244,98.718-18.414v-5.409C354.718,498.347,310.521,506.591,256.001,506.591z"/>
<linearGradient id="SVGID_26_" gradientUnits="userSpaceOnUse" x1="223.8281" y1="490.969" x2="285.7901" y2="490.969" gradientTransform="matrix(1.0039 0 0 -1.0039 0.1922 516.5609)">
	<stop  offset="0" style="stop-color:#C6E1F2"/>
	<stop  offset="0.038" style="stop-color:#DCECF7"/>
	<stop  offset="0.085" style="stop-color:#EFF7FB"/>
	<stop  offset="0.133" style="stop-color:#FBFDFE"/>
	<stop  offset="0.181" style="stop-color:#FFFFFF"/>
	<stop  offset="0.249" style="stop-color:#F6FAFD"/>
	<stop  offset="0.573" style="stop-color:#D1E6F4"/>
	<stop  offset="0.835" style="stop-color:#BADAEE"/>
	<stop  offset="1" style="stop-color:#B2D5EC"/>
</linearGradient>
<path style="fill:url(#SVGID_26_);" d="M286.96,4.441c0.091-0.126,0.143-0.255,0.143-0.385c0-2.241-13.925-4.057-31.102-4.057
	c-17.178,0-31.102,1.816-31.102,4.057c0,0.13,0.051,0.258,0.143,0.385c-0.091,0.126-0.143,0.255-0.143,0.385
	c0,0.13,0.051,0.258,0.143,0.385c-0.091,0.126-0.143,0.255-0.143,0.385c0,0.13,0.051,0.258,0.143,0.385
	c-0.091,0.126-0.143,0.255-0.143,0.385s0.051,0.258,0.143,0.385c-0.091,0.126-0.143,0.255-0.143,0.385
	c0,0.13,0.051,0.258,0.143,0.385c-0.091,0.126-0.143,0.255-0.143,0.385c0,0.13,0.051,0.258,0.143,0.385
	c-0.091,0.126-0.143,0.255-0.143,0.385s0.051,0.258,0.143,0.385c-0.091,0.126-0.143,0.255-0.143,0.385s0.051,0.258,0.143,0.385
	c-0.091,0.126-0.143,0.255-0.143,0.385s0.051,0.258,0.143,0.385c-0.091,0.126-0.143,0.255-0.143,0.385s0.051,0.258,0.143,0.385
	c-0.091,0.126-0.143,0.255-0.143,0.385c0,0.13,0.051,0.258,0.143,0.385c-0.091,0.126-0.143,0.255-0.143,0.385
	c0,0.13,0.051,0.258,0.143,0.385c-0.091,0.126-0.143,0.255-0.143,0.385c0,0.13,0.051,0.258,0.143,0.385
	c-0.091,0.126-0.143,0.255-0.143,0.385c0,0.13,0.051,0.258,0.143,0.385c-0.091,0.126-0.143,0.255-0.143,0.385
	c0,0.13,0.051,0.258,0.143,0.385c-0.091,0.126-0.143,0.255-0.143,0.385s0.051,0.258,0.143,0.385
	c-0.091,0.126-0.143,0.255-0.143,0.385c0,0.13,0.051,0.258,0.143,0.385c-0.091,0.126-0.143,0.255-0.143,0.385
	c0,0.13,0.051,0.258,0.143,0.385c-0.091,0.126-0.143,0.255-0.143,0.385c0,0.13,0.051,0.258,0.143,0.385
	c-0.091,0.126-0.143,0.255-0.143,0.385c0,0.13,0.051,0.258,0.143,0.385c-0.091,0.126-0.143,0.255-0.143,0.385
	c0,0.13,0.051,0.258,0.143,0.385c-0.091,0.126-0.143,0.255-0.143,0.385c0,0.13,0.051,0.258,0.143,0.385
	c-0.091,0.126-0.143,0.255-0.143,0.385c0,0.13,0.051,0.258,0.143,0.385c-0.091,0.126-0.143,0.255-0.143,0.385
	s0.051,0.258,0.143,0.385c-0.091,0.126-0.143,0.255-0.143,0.385s0.051,0.258,0.143,0.385c-0.091,0.126-0.143,0.255-0.143,0.385
	s0.051,0.258,0.143,0.385c-0.091,0.126-0.143,0.255-0.143,0.385s0.051,0.258,0.143,0.385c-0.091,0.126-0.143,0.255-0.143,0.385
	s0.051,0.258,0.143,0.385c-0.091,0.126-0.143,0.255-0.143,0.385s0.051,0.258,0.143,0.385c-0.091,0.126-0.143,0.255-0.143,0.385
	s0.051,0.258,0.143,0.385c-0.091,0.126-0.143,0.255-0.143,0.385s0.051,0.258,0.143,0.385c-0.091,0.126-0.143,0.255-0.143,0.385
	s0.051,0.258,0.143,0.385c-0.091,0.126-0.143,0.255-0.143,0.385c0,0.13,0.051,0.258,0.143,0.385
	c-0.091,0.126-0.143,0.255-0.143,0.385c0,0.13,0.051,0.258,0.143,0.385c-0.091,0.126-0.143,0.255-0.143,0.385
	c0,0.13,0.051,0.258,0.143,0.385c-0.091,0.126-0.143,0.255-0.143,0.385c0,0.13,0.051,0.258,0.143,0.385
	c-0.091,0.126-0.143,0.255-0.143,0.385c0,0.13,0.051,0.258,0.143,0.385c-0.091,0.126-0.143,0.255-0.143,0.385
	c0,0.13,0.051,0.258,0.143,0.384c-0.091,0.126-0.143,0.255-0.143,0.385c0,0.13,0.051,0.258,0.143,0.385
	c-0.091,0.126-0.143,0.255-0.143,0.385s0.051,0.258,0.143,0.384c-0.091,0.126-0.143,0.255-0.143,0.385
	c0,0.13,0.051,0.258,0.143,0.385c-0.091,0.126-0.143,0.255-0.143,0.385s0.051,0.258,0.143,0.384
	c-0.091,0.126-0.143,0.255-0.143,0.385c0,0.13,0.051,0.258,0.143,0.385c-0.091,0.126-0.143,0.255-0.143,0.385
	s0.051,0.258,0.143,0.384c-0.091,0.126-0.143,0.255-0.143,0.385c0,0.13,0.051,0.258,0.143,0.385
	c-0.091,0.126-0.143,0.255-0.143,0.384c0,0.13,0.051,0.258,0.143,0.385c-0.091,0.126-0.143,0.255-0.143,0.385
	c0,0.13,0.051,0.258,0.143,0.385c-0.091,0.126-0.143,0.255-0.143,0.384c0,0.13,0.051,0.258,0.143,0.385
	c-0.091,0.126-0.143,0.255-0.143,0.385c0,0.13,0.051,0.258,0.143,0.385c-0.091,0.126-0.143,0.255-0.143,0.384
	c0,0.13,0.051,0.258,0.143,0.385c-0.091,0.126-0.143,0.255-0.143,0.385s0.051,0.258,0.143,0.385
	c-0.091,0.126-0.143,0.255-0.143,0.384c0,2.241,13.925,4.057,31.102,4.057s31.102-1.816,31.102-4.057
	c0-0.13-0.051-0.258-0.143-0.384c0.091-0.126,0.143-0.255,0.143-0.385c0-0.13-0.051-0.258-0.143-0.385
	c0.091-0.126,0.143-0.255,0.143-0.385s-0.051-0.258-0.143-0.384c0.091-0.126,0.143-0.255,0.143-0.385
	c0-0.13-0.051-0.258-0.143-0.385c0.091-0.126,0.143-0.255,0.143-0.385s-0.051-0.258-0.143-0.384
	c0.091-0.126,0.143-0.255,0.143-0.385c0-0.13-0.051-0.258-0.143-0.385c0.091-0.126,0.143-0.255,0.143-0.385
	s-0.051-0.258-0.143-0.384c0.091-0.126,0.143-0.255,0.143-0.385c0-0.13-0.051-0.258-0.143-0.385
	c0.091-0.126,0.143-0.255,0.143-0.384c0-0.13-0.051-0.258-0.143-0.385c0.091-0.126,0.143-0.255,0.143-0.385
	c0-0.13-0.051-0.258-0.143-0.385c0.091-0.126,0.143-0.255,0.143-0.384c0-0.13-0.051-0.258-0.143-0.385
	c0.091-0.126,0.143-0.255,0.143-0.385c0-0.13-0.051-0.258-0.143-0.385c0.091-0.126,0.143-0.255,0.143-0.384
	c0-0.13-0.051-0.258-0.143-0.385c0.091-0.126,0.143-0.255,0.143-0.385c0-0.13-0.051-0.258-0.143-0.385
	c0.091-0.126,0.143-0.255,0.143-0.384c0-0.13-0.051-0.258-0.143-0.385c0.091-0.126,0.143-0.255,0.143-0.385
	c0-0.13-0.051-0.258-0.143-0.385c0.091-0.126,0.143-0.255,0.143-0.385c0-0.13-0.051-0.258-0.143-0.385
	c0.091-0.126,0.143-0.255,0.143-0.385c0-0.13-0.051-0.258-0.143-0.385c0.091-0.126,0.143-0.255,0.143-0.385
	c0-0.13-0.051-0.258-0.143-0.385c0.091-0.126,0.143-0.255,0.143-0.385s-0.051-0.258-0.143-0.385
	c0.091-0.126,0.143-0.255,0.143-0.385s-0.051-0.258-0.143-0.385c0.091-0.126,0.143-0.255,0.143-0.385s-0.051-0.258-0.143-0.385
	c0.091-0.126,0.143-0.255,0.143-0.385s-0.051-0.258-0.143-0.385c0.091-0.126,0.143-0.255,0.143-0.385s-0.051-0.258-0.143-0.385
	c0.091-0.126,0.143-0.255,0.143-0.385s-0.051-0.258-0.143-0.385c0.091-0.126,0.143-0.255,0.143-0.385s-0.051-0.258-0.143-0.385
	c0.091-0.126,0.143-0.255,0.143-0.385s-0.051-0.258-0.143-0.385c0.091-0.126,0.143-0.255,0.143-0.385s-0.051-0.258-0.143-0.385
	c0.091-0.126,0.143-0.255,0.143-0.385s-0.051-0.258-0.143-0.385c0.091-0.126,0.143-0.255,0.143-0.385
	c0-0.13-0.051-0.258-0.143-0.385c0.091-0.126,0.143-0.255,0.143-0.385c0-0.13-0.051-0.258-0.143-0.385
	c0.091-0.126,0.143-0.255,0.143-0.385c0-0.13-0.051-0.258-0.143-0.385c0.091-0.126,0.143-0.255,0.143-0.385
	c0-0.13-0.051-0.258-0.143-0.385c0.091-0.126,0.143-0.255,0.143-0.385c0-0.13-0.051-0.258-0.143-0.385
	c0.091-0.126,0.143-0.255,0.143-0.385c0-0.13-0.051-0.258-0.143-0.385c0.091-0.126,0.143-0.255,0.143-0.385
	c0-0.13-0.051-0.258-0.143-0.385c0.091-0.126,0.143-0.255,0.143-0.385c0-0.13-0.051-0.258-0.143-0.385
	c0.091-0.126,0.143-0.255,0.143-0.385s-0.051-0.258-0.143-0.385c0.091-0.126,0.143-0.255,0.143-0.385
	c0-0.13-0.051-0.258-0.143-0.385c0.091-0.126,0.143-0.255,0.143-0.385c0-0.13-0.051-0.258-0.143-0.385
	c0.091-0.126,0.143-0.255,0.143-0.385c0-0.13-0.051-0.258-0.143-0.385c0.091-0.126,0.143-0.255,0.143-0.385
	c0-0.13-0.051-0.258-0.143-0.385c0.091-0.126,0.143-0.255,0.143-0.385c0-0.13-0.051-0.258-0.143-0.385
	c0.091-0.126,0.143-0.255,0.143-0.385c0-0.13-0.051-0.258-0.143-0.385c0.091-0.126,0.143-0.255,0.143-0.385
	c0-0.13-0.051-0.258-0.143-0.385c0.091-0.126,0.143-0.255,0.143-0.385c0-0.13-0.051-0.258-0.143-0.385
	c0.091-0.126,0.143-0.255,0.143-0.385s-0.051-0.258-0.143-0.385c0.091-0.126,0.143-0.255,0.143-0.385
	c0-0.13-0.051-0.258-0.143-0.385c0.091-0.126,0.143-0.255,0.143-0.385c0-0.13-0.051-0.258-0.143-0.385
	c0.091-0.126,0.143-0.255,0.143-0.385c0-0.13-0.051-0.258-0.143-0.385c0.091-0.126,0.143-0.255,0.143-0.385
	C287.103,4.696,287.052,4.568,286.96,4.441z"/>
<linearGradient id="SVGID_27_" gradientUnits="userSpaceOnUse" x1="254.8091" y1="513.645" x2="254.8091" y2="493.313" gradientTransform="matrix(1.0039 0 0 -1.0039 0.1922 516.5609)">
	<stop  offset="0" style="stop-color:#EFFBFF"/>
	<stop  offset="1" style="stop-color:#B2D5EC"/>
</linearGradient>
<ellipse style="fill:url(#SVGID_27_);" cx="256.001" cy="4.056" rx="31.102" ry="4.056"/>
<g>
</g>
<g>
</g>
<g>
</g>
<g>
</g>
<g>
</g>
<g>
</g>
<g>
</g>
<g>
</g>
<g>
</g>
<g>
</g>
<g>
</g>
<g>
</g>
<g>
</g>
<g>
</g>
<g>
</g>
</svg>
