<?xml version="1.0" encoding="iso-8859-1"?>
<!-- Generator: Adobe Illustrator 19.0.0, SVG Export Plug-In . SVG Version: 6.00 Build 0)  -->
<svg version="1.1" id="Capa_1" xmlns="http://www.w3.org/2000/svg" xmlns:xlink="http://www.w3.org/1999/xlink" x="0px" y="0px"
	 viewBox="0 0 512 512" style="enable-background:new 0 0 512 512;" xml:space="preserve">
<linearGradient id="SVGID_1_" gradientUnits="userSpaceOnUse" x1="284.4464" y1="181.4317" x2="267.4264" y2="221.1517" gradientTransform="matrix(1.0039 0 0 -1.0039 0.1922 516.5598)">
	<stop  offset="0" style="stop-color:#B2D5EC"/>
	<stop  offset="0.299" style="stop-color:#9FC1D9"/>
	<stop  offset="1" style="stop-color:#7797B0"/>
</linearGradient>
<path style="fill:url(#SVGID_1_);" d="M286.384,443.042c-11.856,0-23.665-2.652-34.768-8.034
	c-26.272-12.736-42.46-37.706-43.303-66.798c-0.589-20.338-22.269-34.347-40.353-42.517c-20.482-9.254-41.028-13.261-41.234-13.301
	l1.91-9.947c3.609,0.693,88.41,17.526,89.801,65.472c0.732,25.246,14.786,46.919,37.597,57.977
	c24.271,11.766,52.54,8.552,75.619-8.599c20.136-14.962,44.129-48.877,44.088-125.478c-0.027-51.171-11.388-98.97-19.057-115.162
	l9.153-4.336c8.301,17.525,20.005,66.185,20.033,119.493c0.023,44.604-8.314,103.992-48.176,133.612
	C322.004,437.084,304.144,443.042,286.384,443.042z"/>
<linearGradient id="SVGID_2_" gradientUnits="userSpaceOnUse" x1="103.9979" y1="337.7414" x2="494.9979" y2="190.6714" gradientTransform="matrix(1.0039 0 0 -1.0039 0.1922 516.5598)">
	<stop  offset="0" style="stop-color:#FEFFB3"/>
	<stop  offset="1" style="stop-color:#FFCD77"/>
</linearGradient>
<path style="fill:url(#SVGID_2_);" d="M506.833,119.313c16.457,36.3-83.261,116.986-222.729,180.218
	c-139.467,63.232-265.87,85.065-282.327,48.765S85.038,231.31,224.506,168.078C363.972,104.846,490.375,83.013,506.833,119.313z"/>
<linearGradient id="SVGID_3_" gradientUnits="userSpaceOnUse" x1="132.839" y1="376.6634" x2="322.639" y2="232.8634" gradientTransform="matrix(1.0039 0 0 -1.0039 0.1922 516.5598)">
	<stop  offset="0" style="stop-color:#FEFFB3"/>
	<stop  offset="1" style="stop-color:#FFCD77"/>
</linearGradient>
<path style="fill:url(#SVGID_3_);" d="M457.264,134.627c11.916,26.282-70.498,89.332-184.077,140.827
	c-113.578,51.494-215.311,71.932-227.227,45.65c-11.916-26.282,70.498-89.332,184.077-140.827
	C343.615,128.784,445.348,108.346,457.264,134.627z"/>
<linearGradient id="SVGID_4_" gradientUnits="userSpaceOnUse" x1="126.2863" y1="403.8503" x2="283.4663" y2="260.8703" gradientTransform="matrix(1.0039 0 0 -1.0039 0.1922 516.5598)">
	<stop  offset="0" style="stop-color:#FEFFB3"/>
	<stop  offset="1" style="stop-color:#FFCD77"/>
</linearGradient>
<path style="fill:url(#SVGID_4_);" d="M400.785,153.335c7.042,15.532-55.199,58.928-139.017,96.931
	c-83.818,38.001-157.476,56.218-164.518,40.687c-7.042-15.532,55.199-58.928,139.017-96.931
	C320.087,156.021,393.744,137.805,400.785,153.335z"/>
<linearGradient id="SVGID_5_" gradientUnits="userSpaceOnUse" x1="318.4252" y1="274.1306" x2="237.7252" y2="407.8606" gradientTransform="matrix(1.0039 0 0 -1.0039 0.1922 516.5598)">
	<stop  offset="0" style="stop-color:#FF9111;stop-opacity:0"/>
	<stop  offset="1" style="stop-color:#F26500"/>
</linearGradient>
<path style="fill:url(#SVGID_5_);" d="M351.336,120.61c-0.017,0.005-0.034,0.01-0.051,0.015c6.46,8.267,12.058,17.42,16.582,27.398
	c3.498,7.714,5.935,14.992,7.413,21.869C347.145,194.423,308.815,218.82,264.305,239c-46.569,21.113-92.129,34.084-130.183,38.556
	l107.118,40.287c14.076-5.649,28.397-11.754,42.861-18.313c90.845-41.187,164.811-89.777,200.804-128.685L351.336,120.61z"/>
<linearGradient id="SVGID_6_" gradientUnits="userSpaceOnUse" x1="397.6458" y1="340.359" x2="475.6458" y2="284.339" gradientTransform="matrix(1.0039 0 0 -1.0039 0.1922 516.5598)">
	<stop  offset="0" style="stop-color:#FEFFB3"/>
	<stop  offset="1" style="stop-color:#FFCD77"/>
</linearGradient>
<path style="fill:url(#SVGID_6_);" d="M511.999,122.531c0.309,41.514-69.55,97.549-184.388,156.08l-4.616,1.44
	c0,0,83.67-54.62,116.728-139.109c8.256-21.102,14.429-46.86,30.645-56.065C485.744,76.145,511.69,80.968,511.999,122.531z"/>
<linearGradient id="SVGID_7_" gradientUnits="userSpaceOnUse" x1="167.9492" y1="354.1049" x2="286.9992" y2="309.325" gradientTransform="matrix(1.0039 0 0 -1.0039 0.1922 516.5598)">
	<stop  offset="0" style="stop-color:#FEFFB3"/>
	<stop  offset="1" style="stop-color:#FFCD77"/>
</linearGradient>
<path style="fill:url(#SVGID_7_);" d="M367.868,148.023c3.498,7.714,5.935,14.992,7.413,21.869
	C347.146,194.423,308.816,218.82,264.306,239c-46.978,21.299-92.937,34.324-131.19,38.684c-3.799-5.312-7.287-11.445-10.477-18.479
	c-20.876-46.043-13.677-97.683,14.369-135.657c13.191-17.88,30.985-32.718,52.652-42.54c21.101-9.567,43.361-13.237,64.943-11.72
	C302.324,72.659,346.731,101.403,367.868,148.023z"/>
<linearGradient id="SVGID_8_" gradientUnits="userSpaceOnUse" x1="231.5927" y1="234.4752" x2="174.7027" y2="326.3752" gradientTransform="matrix(1.0039 0 0 -1.0039 0.1922 516.5598)">
	<stop  offset="0" style="stop-color:#FF9111;stop-opacity:0"/>
	<stop  offset="1" style="stop-color:#F26500"/>
</linearGradient>
<path style="fill:url(#SVGID_8_);" d="M343.987,270.066l-137.374-51.666c-3.578-1.872-7.869-2.468-12.941-1.301
	c-8.539,1.964-17.285,8.415-22.103,16.325l0,0l0,0c-3.922-1.959-8.522-2.619-13.128-1.559c-4.332,0.996-7.98,3.369-10.624,6.538
	c-0.464-0.168-0.931-0.329-1.402-0.48c-1.222-0.539-2.486-1.008-3.771-1.419c-7.065-3.116-15.412-4.122-22.345-2.528
	c-14.034,3.228-16.94,15.875-13.712,29.909c2.446,10.634,7.718,18.998,16.231,21.03l103.312,38.856
	c18.883-7.225,38.298-15.321,57.972-24.242C305.05,290.033,325.093,280.142,343.987,270.066z"/>
<linearGradient id="SVGID_9_" gradientUnits="userSpaceOnUse" x1="221.3283" y1="289.1725" x2="392.0083" y2="366.5525" gradientTransform="matrix(1.0039 0 0 -1.0039 0.1922 516.5598)">
	<stop  offset="0" style="stop-color:#FFA981"/>
	<stop  offset="0.428" style="stop-color:#FF8666"/>
	<stop  offset="1" style="stop-color:#FF5C45"/>
</linearGradient>
<path style="fill:url(#SVGID_9_);" d="M246.009,198.642c-44.575,20.209-90.041,31.918-129.629,43.92
	c1.702,5.605,3.776,11.165,6.259,16.643c3.189,7.033,6.678,13.166,10.477,18.479c38.253-4.36,84.214-17.385,131.19-38.683
	c44.51-20.18,82.839-44.578,110.975-69.108c-1.478-6.878-3.915-14.155-7.413-21.869c-2.385-5.262-5.082-10.283-8.032-15.079
	C325.774,153.854,288.633,179.317,246.009,198.642z"/>
<linearGradient id="SVGID_10_" gradientUnits="userSpaceOnUse" x1="230.4883" y1="202.3525" x2="167.2483" y2="305.2225" gradientTransform="matrix(1.0039 0 0 -1.0039 0.1922 516.5598)">
	<stop  offset="0" style="stop-color:#FFA981;stop-opacity:0"/>
	<stop  offset="1" style="stop-color:#B82934"/>
</linearGradient>
<path style="fill:url(#SVGID_10_);" d="M206.614,218.401c-1.817-0.951-3.82-1.568-6.013-1.797c-6.52,2.27-13.01,4.426-19.448,6.486
	c-3.825,2.838-7.189,6.405-9.582,10.334l0,0l0,0c-3.922-1.959-8.522-2.619-13.128-1.559c-4.332,0.996-7.98,3.369-10.624,6.538
	c-0.464-0.168-0.931-0.329-1.402-0.48c-1.222-0.539-2.486-1.008-3.771-1.419c-0.818-0.361-1.657-0.687-2.506-0.991
	c-8.108,2.38-16.048,4.709-23.76,7.048c1.702,5.605,3.776,11.165,6.259,16.643c3.189,7.033,6.678,13.166,10.477,18.479
	c37.889-4.318,83.341-17.15,129.85-38.09L206.614,218.401z"/>
<radialGradient id="SVGID_11_" cx="-1009.5453" cy="-537.5874" r="41.96" gradientTransform="matrix(0.9784 -0.2251 -0.2251 -0.9784 989.8058 -504.8823)" gradientUnits="userSpaceOnUse">
	<stop  offset="0" style="stop-color:#AFDC00"/>
	<stop  offset="0.365" style="stop-color:#ADDA00"/>
	<stop  offset="0.535" style="stop-color:#A7D200"/>
	<stop  offset="0.666" style="stop-color:#9DC600"/>
	<stop  offset="0.775" style="stop-color:#8FB300"/>
	<stop  offset="0.872" style="stop-color:#7C9B00"/>
	<stop  offset="0.959" style="stop-color:#657F00"/>
	<stop  offset="1" style="stop-color:#586E00"/>
</radialGradient>
<path style="fill:url(#SVGID_11_);" d="M120.3,233.977c14.034-3.228,33.882,4.185,37.11,18.219
	c3.228,14.034-11.386,29.375-25.42,32.602c-14.034,3.229-22.174-6.879-25.401-20.913C103.359,249.852,106.265,237.205,120.3,233.977
	z"/>
<radialGradient id="SVGID_12_" cx="5725.7544" cy="-537.1775" r="41.96" gradientTransform="matrix(-0.9784 0.2251 -0.2251 -0.9784 5678.771 -1583.1224)" gradientUnits="userSpaceOnUse">
	<stop  offset="0" style="stop-color:#AFDC00"/>
	<stop  offset="0.365" style="stop-color:#ADDA00"/>
	<stop  offset="0.535" style="stop-color:#A7D200"/>
	<stop  offset="0.666" style="stop-color:#9DC600"/>
	<stop  offset="0.775" style="stop-color:#8FB300"/>
	<stop  offset="0.872" style="stop-color:#7C9B00"/>
	<stop  offset="0.959" style="stop-color:#657F00"/>
	<stop  offset="1" style="stop-color:#586E00"/>
</radialGradient>
<path style="fill:url(#SVGID_12_);" d="M193.673,217.1c-14.034,3.228-28.648,18.569-25.42,32.602
	c3.228,14.034,23.076,21.448,37.11,18.219c14.034-3.228,16.94-15.875,13.712-29.91C215.847,223.978,207.707,213.872,193.673,217.1z"
	/>
<linearGradient id="SVGID_13_" gradientUnits="userSpaceOnUse" x1="199.9797" y1="251.1347" x2="155.8497" y2="278.7647" gradientTransform="matrix(1.0039 0 0 -1.0039 0.1922 516.5598)">
	<stop  offset="0" style="stop-color:#586E00;stop-opacity:0"/>
	<stop  offset="1" style="stop-color:#2C3700"/>
</linearGradient>
<path style="fill:url(#SVGID_13_);" d="M205.363,267.922c4.925-1.133,8.475-3.429,10.875-6.536l-44.669-27.962l0,0
	c-3.101,5.09-4.581,10.783-3.317,16.278C171.482,263.737,191.329,271.15,205.363,267.922z"/>
<radialGradient id="SVGID_14_" cx="-976.4053" cy="-540.4275" r="31.513" gradientTransform="matrix(0.9784 -0.2251 -0.2251 -0.9784 989.8058 -504.8823)" gradientUnits="userSpaceOnUse">
	<stop  offset="0" style="stop-color:#AFDC00"/>
	<stop  offset="0.365" style="stop-color:#ADDA00"/>
	<stop  offset="0.535" style="stop-color:#A7D200"/>
	<stop  offset="0.666" style="stop-color:#9DC600"/>
	<stop  offset="0.775" style="stop-color:#8FB300"/>
	<stop  offset="0.872" style="stop-color:#7C9B00"/>
	<stop  offset="0.959" style="stop-color:#657F00"/>
	<stop  offset="1" style="stop-color:#586E00"/>
</radialGradient>
<circle style="fill:url(#SVGID_14_);" cx="162.836" cy="250.95" r="19.583"/>
<g>
</g>
<g>
</g>
<g>
</g>
<g>
</g>
<g>
</g>
<g>
</g>
<g>
</g>
<g>
</g>
<g>
</g>
<g>
</g>
<g>
</g>
<g>
</g>
<g>
</g>
<g>
</g>
<g>
</g>
</svg>
