<?xml version="1.0" encoding="iso-8859-1"?>
<!-- Generator: Adobe Illustrator 19.0.0, SVG Export Plug-In . SVG Version: 6.00 Build 0)  -->
<svg version="1.1" id="Capa_1" xmlns="http://www.w3.org/2000/svg" xmlns:xlink="http://www.w3.org/1999/xlink" x="0px" y="0px"
	 viewBox="0 0 512 512" style="enable-background:new 0 0 512 512;" xml:space="preserve">
<linearGradient id="SVGID_1_" gradientUnits="userSpaceOnUse" x1="254.8045" y1="399.723" x2="254.8045" y2="443.883" gradientTransform="matrix(1.0039 0 0 -1.0039 0.1922 516.5609)">
	<stop  offset="0" style="stop-color:#FEFFB3"/>
	<stop  offset="0.118" style="stop-color:#FEFDA7"/>
	<stop  offset="0.333" style="stop-color:#FEF785"/>
	<stop  offset="0.622" style="stop-color:#FFEE50"/>
	<stop  offset="0.971" style="stop-color:#FFE107"/>
	<stop  offset="1" style="stop-color:#FFE000"/>
</linearGradient>
<rect x="225.733" y="76.479" style="fill:url(#SVGID_1_);" width="60.526" height="26.283"/>
<linearGradient id="SVGID_2_" gradientUnits="userSpaceOnUse" x1="207.7874" y1="202.2774" x2="478.1674" y2="246.4374" gradientTransform="matrix(1.0039 0 0 -1.0039 0.1922 516.5609)">
	<stop  offset="0" style="stop-color:#FEFFB3"/>
	<stop  offset="0.118" style="stop-color:#FEFDA7"/>
	<stop  offset="0.333" style="stop-color:#FEF785"/>
	<stop  offset="0.622" style="stop-color:#FFEE50"/>
	<stop  offset="0.971" style="stop-color:#FFE107"/>
	<stop  offset="1" style="stop-color:#FFE000"/>
</linearGradient>
<path style="fill:url(#SVGID_2_);" d="M379.525,168.432c2.672-39.723-28.651-73.475-68.463-73.475c-36.708,0-73.417,0-110.126,0
	c-39.813,0-71.135,33.751-68.463,73.474c5.973,88.795-44.77,177.09-40.565,265.869C93.972,477.874,130.211,512,173.833,512
	c54.778,0,109.556,0,164.334,0c43.622,0,79.861-34.127,81.924-77.701C424.294,345.52,373.552,257.226,379.525,168.432z"/>
<linearGradient id="SVGID_3_" gradientUnits="userSpaceOnUse" x1="295.0402" y1="33.1437" x2="91.8402" y2="236.3438" gradientTransform="matrix(1.0039 0 0 -1.0039 0.1922 516.5609)">
	<stop  offset="0" style="stop-color:#FFE000;stop-opacity:0"/>
	<stop  offset="1" style="stop-color:#FFAF00"/>
</linearGradient>
<path style="fill:url(#SVGID_3_);" d="M354.659,510.333c-4.031,0.831-8.187,1.36-12.406,1.562h-0.013
	c-1.347,0.063-2.708,0.1-4.068,0.1h-44.789L169.62,389.858c-3.01-2.998,2.016-12.91,11.223-22.117
	c3.161-3.161,6.398-5.832,9.421-7.835c5.782-3.879,10.731-5.366,12.696-3.388L354.659,510.333z"/>
<linearGradient id="SVGID_4_" gradientUnits="userSpaceOnUse" x1="278.067" y1="188.9905" x2="116.407" y2="350.6505" gradientTransform="matrix(1.0039 0 0 -1.0039 0.1922 516.5609)">
	<stop  offset="0" style="stop-color:#FFE000;stop-opacity:0"/>
	<stop  offset="1" style="stop-color:#FFAF00"/>
</linearGradient>
<path style="fill:url(#SVGID_4_);" d="M416.867,453.464c-1.587,5.378-3.715,10.517-6.336,15.354L203.754,262.116l-22.91-22.898
	c-9.207-9.207-14.233-19.12-11.223-22.117c2.998-3.01,12.91,2.015,22.117,11.223l22.91,22.911L416.867,453.464z"/>
<linearGradient id="SVGID_5_" gradientUnits="userSpaceOnUse" x1="411.2222" y1="55.8357" x2="194.9522" y2="272.1057" gradientTransform="matrix(1.0039 0 0 -1.0039 0.1922 516.5609)">
	<stop  offset="0" style="stop-color:#FFE000;stop-opacity:0"/>
	<stop  offset="1" style="stop-color:#FFAF00"/>
</linearGradient>
<path style="fill:url(#SVGID_5_);" d="M420.092,434.294c-0.315,6.638-1.424,13.061-3.225,19.17
	c-1.587,5.378-3.715,10.517-6.336,15.354c-7.217,13.439-18.112,24.599-31.286,32.194c-4.295,2.494-8.842,4.597-13.59,6.272
	L208.881,350.599c-10.656-10.656-16.941-24.032-18.868-37.887c-2.457-17.596,2.128-35.973,13.742-50.596
	c1.574-1.99,3.288-3.917,5.126-5.756c1.851-1.851,3.766-3.565,5.769-5.126c14.636-11.625,33.025-16.197,50.621-13.742
	c13.842,1.928,27.206,8.225,37.849,18.868l111.608,111.608c1.385,7.57,2.582,15.152,3.502,22.722
	C419.991,405.212,420.785,419.747,420.092,434.294z"/>
<linearGradient id="SVGID_6_" gradientUnits="userSpaceOnUse" x1="359.707" y1="205.0605" x2="164.717" y2="400.0505" gradientTransform="matrix(1.0039 0 0 -1.0039 0.1922 516.5609)">
	<stop  offset="0" style="stop-color:#FFE000;stop-opacity:0"/>
	<stop  offset="1" style="stop-color:#FFAF00"/>
</linearGradient>
<path style="fill:url(#SVGID_6_);" d="M418.228,390.689L265.27,237.492l-9.031-9.043c-0.088,0-0.164,0.025-0.239,0.025
	c-4.258,0-7.696-10.555-7.696-23.578c0-13.024,3.438-23.578,7.696-23.578l56.466,56.364l94.44,94.289
	c1.713,7.066,3.363,14.144,4.874,21.211c1.046,4.925,2.041,9.849,2.948,14.787C416.112,375.537,417.309,383.12,418.228,390.689z"/>
<linearGradient id="SVGID_7_" gradientUnits="userSpaceOnUse" x1="420.049" y1="185.8825" x2="245.2489" y2="360.6825" gradientTransform="matrix(1.0039 0 0 -1.0039 0.1922 516.5609)">
	<stop  offset="0" style="stop-color:#FFE000;stop-opacity:0"/>
	<stop  offset="1" style="stop-color:#FFAF00"/>
</linearGradient>
<path style="fill:url(#SVGID_7_);" d="M411.779,353.181l-102.74-102.74c-1.99-1.978-0.479-6.953,3.426-12.759
	c2.003-2.998,4.66-6.222,7.796-9.359c9.207-9.207,19.12-14.233,22.117-11.223l48.014,49.135
	c5.101,21.916,11.173,43.819,16.513,65.735C408.618,339.035,410.267,346.114,411.779,353.181z"/>
<linearGradient id="SVGID_8_" gradientUnits="userSpaceOnUse" x1="244.3419" y1="125.1255" x2="77.562" y2="291.9155" gradientTransform="matrix(1.0039 0 0 -1.0039 0.1922 516.5609)">
	<stop  offset="0" style="stop-color:#FFE000;stop-opacity:0"/>
	<stop  offset="1" style="stop-color:#FFAF00"/>
</linearGradient>
<path style="fill:url(#SVGID_8_);" d="M379.245,501.012c-4.295,2.494-8.842,4.597-13.59,6.272c-3.552,1.26-7.23,2.292-10.996,3.048
	c-4.031,0.831-8.187,1.36-12.406,1.562h-0.013L190.264,359.906l-56.427-56.427c0-4.258,10.555-7.696,23.578-7.696
	c13.024,0,23.578,3.438,23.578,7.696c0,0.075-0.025,0.152-0.025,0.239l9.043,8.993L379.245,501.012z"/>
<linearGradient id="SVGID_9_" gradientUnits="userSpaceOnUse" x1="200.881" y1="266.1845" x2="374.791" y2="92.2645" gradientTransform="matrix(1.0039 0 0 -1.0039 0.1922 516.5609)">
	<stop  offset="0" style="stop-color:#FFA981"/>
	<stop  offset="0.335" style="stop-color:#FB9459"/>
	<stop  offset="1" style="stop-color:#F26500"/>
</linearGradient>
<circle style="fill:url(#SVGID_9_);" cx="256.001" cy="303.475" r="66.64"/>
<linearGradient id="SVGID_10_" gradientUnits="userSpaceOnUse" x1="219.2338" y1="295.0428" x2="18.1638" y2="208.0029" gradientTransform="matrix(1.0039 0 0 -1.0039 0.1922 516.5609)">
	<stop  offset="0" style="stop-color:#FFA981"/>
	<stop  offset="0.335" style="stop-color:#FB9459"/>
	<stop  offset="1" style="stop-color:#F26500"/>
</linearGradient>
<ellipse style="fill:url(#SVGID_10_);" cx="256.001" cy="204.9" rx="7.7" ry="23.582"/>
<linearGradient id="SVGID_11_" gradientUnits="userSpaceOnUse" x1="219.2301" y1="98.6513" x2="18.1601" y2="11.6113" gradientTransform="matrix(1.0039 0 0 -1.0039 0.1922 516.5609)">
	<stop  offset="0" style="stop-color:#FFA981"/>
	<stop  offset="0.335" style="stop-color:#FB9459"/>
	<stop  offset="1" style="stop-color:#F26500"/>
</linearGradient>
<ellipse style="fill:url(#SVGID_11_);" cx="256.001" cy="402.061" rx="7.7" ry="23.582"/>
<linearGradient id="SVGID_12_" gradientUnits="userSpaceOnUse" x1="343.3305" y1="300.772" x2="281.7805" y2="239.222" gradientTransform="matrix(1.0039 0 0 -1.0039 0.1922 516.5609)">
	<stop  offset="0" style="stop-color:#FFA981"/>
	<stop  offset="0.335" style="stop-color:#FB9459"/>
	<stop  offset="1" style="stop-color:#F26500"/>
</linearGradient>
<path style="fill:url(#SVGID_12_);" d="M331.153,239.215c-9.21,9.21-19.114,14.238-22.12,11.23
	c-3.008-3.007,2.021-12.91,11.23-22.12c9.21-9.21,19.113-14.238,22.12-11.231C345.391,220.102,340.362,230.005,331.153,239.215z"/>
<linearGradient id="SVGID_13_" gradientUnits="userSpaceOnUse" x1="204.4602" y1="161.9022" x2="142.9102" y2="100.3522" gradientTransform="matrix(1.0039 0 0 -1.0039 0.1922 516.5609)">
	<stop  offset="0" style="stop-color:#FFA981"/>
	<stop  offset="0.335" style="stop-color:#FB9459"/>
	<stop  offset="1" style="stop-color:#F26500"/>
</linearGradient>
<path style="fill:url(#SVGID_13_);" d="M191.736,378.632c-9.21,9.21-19.113,14.238-22.12,11.23
	c-3.007-3.007,2.021-12.91,11.231-22.12s19.113-14.238,22.12-11.231C205.973,359.519,200.946,369.423,191.736,378.632z"/>
<linearGradient id="SVGID_14_" gradientUnits="userSpaceOnUse" x1="379.9993" y1="266.183" x2="292.9593" y2="92.263" gradientTransform="matrix(1.0039 0 0 -1.0039 0.1922 516.5609)">
	<stop  offset="0" style="stop-color:#FFA981"/>
	<stop  offset="0.335" style="stop-color:#FB9459"/>
	<stop  offset="1" style="stop-color:#F26500"/>
</linearGradient>
<ellipse style="fill:url(#SVGID_14_);" cx="354.586" cy="303.475" rx="23.582" ry="7.7"/>
<linearGradient id="SVGID_15_" gradientUnits="userSpaceOnUse" x1="183.5993" y1="266.183" x2="96.5593" y2="92.2631" gradientTransform="matrix(1.0039 0 0 -1.0039 0.1922 516.5609)">
	<stop  offset="0" style="stop-color:#FFA981"/>
	<stop  offset="0.335" style="stop-color:#FB9459"/>
	<stop  offset="1" style="stop-color:#F26500"/>
</linearGradient>
<ellipse style="fill:url(#SVGID_15_);" cx="157.416" cy="303.475" rx="23.582" ry="7.7"/>
<linearGradient id="SVGID_16_" gradientUnits="userSpaceOnUse" x1="343.3322" y1="123.7257" x2="281.7822" y2="185.2757" gradientTransform="matrix(1.0039 0 0 -1.0039 0.1922 516.5609)">
	<stop  offset="0" style="stop-color:#FFA981"/>
	<stop  offset="0.335" style="stop-color:#FB9459"/>
	<stop  offset="1" style="stop-color:#F26500"/>
</linearGradient>
<path style="fill:url(#SVGID_16_);" d="M320.263,378.632c-9.209-9.21-14.238-19.113-11.23-22.12
	c3.007-3.007,12.91,2.021,22.12,11.231s14.238,19.113,11.23,22.12C339.377,392.87,329.473,387.842,320.263,378.632z"/>
<linearGradient id="SVGID_17_" gradientUnits="userSpaceOnUse" x1="204.4585" y1="262.602" x2="142.9085" y2="324.142" gradientTransform="matrix(1.0039 0 0 -1.0039 0.1922 516.5609)">
	<stop  offset="0" style="stop-color:#FFA981"/>
	<stop  offset="0.335" style="stop-color:#FB9459"/>
	<stop  offset="1" style="stop-color:#F26500"/>
</linearGradient>
<path style="fill:url(#SVGID_17_);" d="M180.846,239.215c-9.21-9.21-14.238-19.113-11.231-22.12
	c3.008-3.007,12.911,2.021,22.12,11.231c9.209,9.209,14.238,19.114,11.23,22.12C199.959,253.453,190.055,248.424,180.846,239.215z"
	/>
<linearGradient id="SVGID_18_" gradientUnits="userSpaceOnUse" x1="254.8085" y1="42.313" x2="254.8085" y2="-5.787" gradientTransform="matrix(1.0039 0 0 -1.0039 0.1922 516.5609)">
	<stop  offset="0" style="stop-color:#FFE000;stop-opacity:0"/>
	<stop  offset="1" style="stop-color:#FFAF00"/>
</linearGradient>
<path style="fill:url(#SVGID_18_);" d="M91.729,428.957c0.041,1.781,0.095,3.562,0.18,5.344C93.972,477.874,130.211,512,173.833,512
	c54.778,0,109.556,0,164.334,0c43.622,0,79.861-34.127,81.924-77.701c0.084-1.781,0.139-3.562,0.18-5.343H91.729z"/>
<linearGradient id="SVGID_19_" gradientUnits="userSpaceOnUse" x1="245.1795" y1="471.1135" x2="308.0395" y2="471.1135" gradientTransform="matrix(1.0039 0 0 -1.0039 0.1922 516.5609)">
	<stop  offset="0" style="stop-color:#AFDC00"/>
	<stop  offset="0.26" style="stop-color:#96BC00"/>
	<stop  offset="0.759" style="stop-color:#698400"/>
	<stop  offset="1" style="stop-color:#586E00"/>
</linearGradient>
<path style="fill:url(#SVGID_19_);" d="M274.314,87.2h-36.63c-9.059,0-16.403-7.344-16.403-16.403V16.404
	c0-9.06,7.345-16.404,16.404-16.404h36.63c9.059,0,16.403,7.344,16.403,16.403v54.392C290.717,79.855,283.374,87.2,274.314,87.2z"/>
<g>
</g>
<g>
</g>
<g>
</g>
<g>
</g>
<g>
</g>
<g>
</g>
<g>
</g>
<g>
</g>
<g>
</g>
<g>
</g>
<g>
</g>
<g>
</g>
<g>
</g>
<g>
</g>
<g>
</g>
</svg>
