<?xml version="1.0" encoding="iso-8859-1"?>
<!-- Generator: Adobe Illustrator 19.0.0, SVG Export Plug-In . SVG Version: 6.00 Build 0)  -->
<svg version="1.1" id="Capa_1" xmlns="http://www.w3.org/2000/svg" xmlns:xlink="http://www.w3.org/1999/xlink" x="0px" y="0px"
	 viewBox="0 0 512 512" style="enable-background:new 0 0 512 512;" xml:space="preserve">
<linearGradient id="SVGID_1_" gradientUnits="userSpaceOnUse" x1="72.3588" y1="14.8928" x2="794.2288" y2="14.8928" gradientTransform="matrix(1.0039 0 0 -1.0039 0.1922 516.5615)">
	<stop  offset="0" style="stop-color:#605654"/>
	<stop  offset="1" style="stop-color:#413F40"/>
</linearGradient>
<path style="fill:url(#SVGID_1_);" d="M431.575,494.196H80.425c-4.378,0-8.498-1.085-12.13-2.976C70.1,502.983,80.234,512,92.5,512
	H419.5c12.267,0,22.4-9.017,24.206-20.78C440.073,493.112,435.953,494.196,431.575,494.196z"/>
<linearGradient id="SVGID_2_" gradientUnits="userSpaceOnUse" x1="58.5598" y1="267.3515" x2="835.0388" y2="267.3515" gradientTransform="matrix(1.0039 0 0 -1.0039 0.1922 516.5615)">
	<stop  offset="0" style="stop-color:#AFDC00"/>
	<stop  offset="0.236" style="stop-color:#9EC700"/>
	<stop  offset="0.724" style="stop-color:#739000"/>
	<stop  offset="1" style="stop-color:#586E00"/>
</linearGradient>
<path style="fill:url(#SVGID_2_);" d="M457.906,261.727v208.266c0,14.542-11.789,26.331-26.331,26.331H80.425
	c-14.542,0-26.331-11.789-26.331-26.331V261.727c0-10.507,3.147-20.503,8.72-28.883c5.573-8.401,13.548-15.165,23.247-19.248
	c19.355-8.167,31.946-27.118,31.946-48.132V29.448c0-12.141,8.547-22.604,20.445-25.027l20.655-4.205
	c4.704-0.958,9.561,1.326,11.592,5.676C183.111,32.48,216.608,51.504,256,51.504s72.89-19.023,85.301-45.611
	c2.031-4.35,6.887-6.634,11.592-5.676l20.655,4.205c11.897,2.422,20.445,12.885,20.445,25.027v136.015
	c0,10.507,3.147,20.503,8.72,28.883c5.573,8.38,13.548,15.164,23.226,19.248C445.315,221.741,457.906,240.713,457.906,261.727z"/>
<linearGradient id="SVGID_3_" gradientUnits="userSpaceOnUse" x1="254.8087" y1="-32.9867" x2="254.8088" y2="591.6433" gradientTransform="matrix(1.0039 0 0 -1.0039 0.1922 516.5615)">
	<stop  offset="0" style="stop-color:#AFDC00;stop-opacity:0"/>
	<stop  offset="0.472" style="stop-color:#84A600;stop-opacity:0.472"/>
	<stop  offset="1" style="stop-color:#586E00"/>
</linearGradient>
<path style="fill:url(#SVGID_3_);" d="M176.847,496.323h158.306V16.206C319.734,37.261,290.079,51.505,256,51.505
	c-34.078,0-63.733-14.244-79.153-35.299V496.323z"/>
<linearGradient id="SVGID_4_" gradientUnits="userSpaceOnUse" x1="441.8531" y1="-16.6376" x2="170.2132" y2="607.9924" gradientTransform="matrix(1.0039 0 0 -1.0039 0.1922 516.5615)">
	<stop  offset="0" style="stop-color:#AFDC00;stop-opacity:0"/>
	<stop  offset="0.472" style="stop-color:#84A600;stop-opacity:0.472"/>
	<stop  offset="1" style="stop-color:#586E00"/>
</linearGradient>
<path style="fill:url(#SVGID_4_);" d="M425.939,213.595c-9.678-4.084-17.653-10.868-23.226-19.248
	c-5.573-8.38-8.72-18.377-8.72-28.883V29.448c0-12.141-8.547-22.604-20.445-25.027l-20.655-4.205
	c-4.704-0.958-9.561,1.326-11.592,5.677c-12.403,26.569-45.861,45.582-85.217,45.61v444.82h175.49
	c14.542,0,26.331-11.789,26.331-26.331V261.727C457.906,240.713,445.315,221.741,425.939,213.595z"/>
<linearGradient id="SVGID_5_" gradientUnits="userSpaceOnUse" x1="254.8083" y1="119.7233" x2="254.8083" y2="8.4833" gradientTransform="matrix(1.0039 0 0 -1.0039 0.1922 516.5615)">
	<stop  offset="0" style="stop-color:#AFDC00;stop-opacity:0"/>
	<stop  offset="0.472" style="stop-color:#84A600;stop-opacity:0.472"/>
	<stop  offset="1" style="stop-color:#586E00"/>
</linearGradient>
<path style="fill:url(#SVGID_5_);" d="M54.103,368.888v101.106c0,14.535,11.783,26.318,26.318,26.318h351.159
	c14.535,0,26.318-11.783,26.318-26.318V368.888H54.103z"/>
<linearGradient id="SVGID_6_" gradientUnits="userSpaceOnUse" x1="195.0388" y1="454.462" x2="397.0688" y2="454.462" gradientTransform="matrix(1.0039 0 0 -1.0039 0.1922 516.5615)">
	<stop  offset="0" style="stop-color:#605654"/>
	<stop  offset="1" style="stop-color:#413F40"/>
</linearGradient>
<path style="fill:url(#SVGID_6_);" d="M373.548,4.422l-20.655-4.205c-4.704-0.958-9.561,1.326-11.592,5.677
	C328.89,32.481,295.392,51.505,256,51.505s-72.889-19.023-85.301-45.611c-2.031-4.35-6.887-6.635-11.592-5.677l-20.655,4.205
	c-11.897,2.422-20.445,12.885-20.445,25.027v91.186h275.985V29.448C393.993,17.307,385.446,6.844,373.548,4.422z"/>
<linearGradient id="SVGID_7_" gradientUnits="userSpaceOnUse" x1="311.1588" y1="440.3143" x2="164.5188" y2="440.3143" gradientTransform="matrix(1.0039 0 0 -1.0039 0.1922 516.5615)">
	<stop  offset="0" style="stop-color:#605654"/>
	<stop  offset="1" style="stop-color:#413F40"/>
</linearGradient>
<path style="fill:url(#SVGID_7_);" d="M249.04,148.464h13.919l0,0c32.595,0,60.614-23.114,66.808-55.116l17.957-92.771l-0.406,0.013
	c-2.586,0.876-4.808,2.712-6.019,5.304c-12.41,26.588-45.908,45.611-85.3,45.611s-72.889-19.023-85.301-45.611
	c-1.21-2.592-3.432-4.427-6.019-5.304l-0.406-0.013l17.957,92.771C188.427,125.35,216.445,148.464,249.04,148.464L249.04,148.464z"
	/>
<linearGradient id="SVGID_8_" gradientUnits="userSpaceOnUse" x1="285.8883" y1="233.3533" x2="265.1983" y2="422.8333" gradientTransform="matrix(1.0039 0 0 -1.0039 0.1922 516.5615)">
	<stop  offset="0" style="stop-color:#586E00;stop-opacity:0"/>
	<stop  offset="1" style="stop-color:#586E00"/>
</linearGradient>
<path style="fill:url(#SVGID_8_);" d="M331.983,204.686c-3.08-3.689-7.71-6.041-12.892-6.041H192.91
	c-9.273,0-16.791,7.517-16.791,16.791c0,5.182,2.35,9.812,6.041,12.892l51.519,51.519c3.08,3.689,7.71,6.041,12.892,6.041h126.181
	c9.273,0,16.791-7.517,16.791-16.791c0-5.182-2.35-9.812-6.04-12.892L331.983,204.686z"/>
<linearGradient id="SVGID_9_" gradientUnits="userSpaceOnUse" x1="90.501" y1="248.6763" x2="17.951" y2="226.0363" gradientTransform="matrix(1.0039 0 0 -1.0039 0.1922 516.5615)">
	<stop  offset="0" style="stop-color:#605654"/>
	<stop  offset="1" style="stop-color:#413F40"/>
</linearGradient>
<path style="fill:url(#SVGID_9_);" d="M319.091,232.225H192.91c-9.273,0-16.791-7.517-16.791-16.791l0,0
	c0-9.273,7.517-16.791,16.791-16.791h126.181c9.273,0,16.791,7.517,16.791,16.791l0,0
	C335.881,224.709,328.364,232.225,319.091,232.225z"/>
<linearGradient id="SVGID_10_" gradientUnits="userSpaceOnUse" x1="302.5085" y1="267.963" x2="250.2985" y2="320.1731" gradientTransform="matrix(1.0039 0 0 -1.0039 0.1922 516.5615)">
	<stop  offset="0" style="stop-color:#413F40;stop-opacity:0"/>
	<stop  offset="1" style="stop-color:#413F40"/>
</linearGradient>
<polygon style="fill:url(#SVGID_10_);" points="277.84,198.645 277.447,198.645 260.565,211.946 265.708,232.225 311.422,232.225 
	"/>
<linearGradient id="SVGID_11_" gradientUnits="userSpaceOnUse" x1="254.8088" y1="310.9833" x2="254.8088" y2="264.2633" gradientTransform="matrix(1.0039 0 0 -1.0039 0.1922 516.5615)">
	<stop  offset="0" style="stop-color:#FEFFB3"/>
	<stop  offset="1" style="stop-color:#FFCD77"/>
</linearGradient>
<path style="fill:url(#SVGID_11_);" d="M268.414,237.631h-24.827c-5.968,0-10.806-4.838-10.806-10.806v-22.778
	c0-5.968,4.838-10.806,10.806-10.806h24.827c5.968,0,10.806,4.838,10.806,10.806v22.778
	C279.22,232.793,274.382,237.631,268.414,237.631z"/>
<linearGradient id="SVGID_12_" gradientUnits="userSpaceOnUse" x1="285.8888" y1="139.0933" x2="265.1989" y2="328.5833" gradientTransform="matrix(1.0039 0 0 -1.0039 0.1922 516.5615)">
	<stop  offset="0" style="stop-color:#586E00;stop-opacity:0"/>
	<stop  offset="1" style="stop-color:#586E00"/>
</linearGradient>
<path style="fill:url(#SVGID_12_);" d="M331.983,299.309c-3.08-3.689-7.71-6.041-12.892-6.041H192.91
	c-9.273,0-16.791,7.517-16.791,16.791c0,5.182,2.35,9.812,6.041,12.892l51.519,51.519c3.08,3.689,7.71,6.041,12.892,6.041h126.181
	c9.273,0,16.791-7.517,16.791-16.791c0-5.182-2.35-9.812-6.04-12.892L331.983,299.309z"/>
<linearGradient id="SVGID_13_" gradientUnits="userSpaceOnUse" x1="90.4991" y1="154.4226" x2="17.9491" y2="131.7826" gradientTransform="matrix(1.0039 0 0 -1.0039 0.1922 516.5615)">
	<stop  offset="0" style="stop-color:#605654"/>
	<stop  offset="1" style="stop-color:#413F40"/>
</linearGradient>
<path style="fill:url(#SVGID_13_);" d="M319.091,326.848H192.91c-9.273,0-16.791-7.517-16.791-16.791l0,0
	c0-9.273,7.517-16.791,16.791-16.791h126.181c9.273,0,16.791,7.517,16.791,16.791l0,0
	C335.881,319.332,328.364,326.848,319.091,326.848z"/>
<linearGradient id="SVGID_14_" gradientUnits="userSpaceOnUse" x1="302.507" y1="173.7115" x2="250.297" y2="225.9215" gradientTransform="matrix(1.0039 0 0 -1.0039 0.1922 516.5615)">
	<stop  offset="0" style="stop-color:#413F40;stop-opacity:0"/>
	<stop  offset="1" style="stop-color:#413F40"/>
</linearGradient>
<polygon style="fill:url(#SVGID_14_);" points="277.84,293.268 277.447,293.268 260.565,306.569 265.708,326.848 311.422,326.848 
	"/>
<linearGradient id="SVGID_15_" gradientUnits="userSpaceOnUse" x1="254.8088" y1="216.7333" x2="254.8088" y2="170.0133" gradientTransform="matrix(1.0039 0 0 -1.0039 0.1922 516.5615)">
	<stop  offset="0" style="stop-color:#FEFFB3"/>
	<stop  offset="1" style="stop-color:#FFCD77"/>
</linearGradient>
<path style="fill:url(#SVGID_15_);" d="M268.414,332.253h-24.827c-5.968,0-10.806-4.838-10.806-10.806v-22.778
	c0-5.968,4.838-10.806,10.806-10.806h24.827c5.968,0,10.806,4.838,10.806,10.806v22.778
	C279.22,327.415,274.382,332.253,268.414,332.253z"/>
<linearGradient id="SVGID_16_" gradientUnits="userSpaceOnUse" x1="285.8885" y1="44.8433" x2="265.1985" y2="234.3333" gradientTransform="matrix(1.0039 0 0 -1.0039 0.1922 516.5615)">
	<stop  offset="0" style="stop-color:#586E00;stop-opacity:0"/>
	<stop  offset="1" style="stop-color:#586E00"/>
</linearGradient>
<path style="fill:url(#SVGID_16_);" d="M331.983,393.931c-3.08-3.689-7.71-6.041-12.892-6.041H192.91
	c-9.273,0-16.791,7.517-16.791,16.791c0,5.182,2.35,9.812,6.041,12.892l51.519,51.519c3.08,3.689,7.71,6.041,12.892,6.041h126.181
	c9.273,0,16.791-7.517,16.791-16.791c0-5.182-2.35-9.812-6.04-12.892L331.983,393.931z"/>
<linearGradient id="SVGID_17_" gradientUnits="userSpaceOnUse" x1="90.4999" y1="60.1699" x2="17.9499" y2="37.5299" gradientTransform="matrix(1.0039 0 0 -1.0039 0.1922 516.5615)">
	<stop  offset="0" style="stop-color:#605654"/>
	<stop  offset="1" style="stop-color:#413F40"/>
</linearGradient>
<path style="fill:url(#SVGID_17_);" d="M319.091,421.471H192.91c-9.273,0-16.791-7.517-16.791-16.791l0,0
	c0-9.273,7.517-16.791,16.791-16.791h126.181c9.273,0,16.791,7.517,16.791,16.791l0,0
	C335.881,413.954,328.364,421.471,319.091,421.471z"/>
<linearGradient id="SVGID_18_" gradientUnits="userSpaceOnUse" x1="302.5105" y1="79.4551" x2="250.3005" y2="131.665" gradientTransform="matrix(1.0039 0 0 -1.0039 0.1922 516.5615)">
	<stop  offset="0" style="stop-color:#413F40;stop-opacity:0"/>
	<stop  offset="1" style="stop-color:#413F40"/>
</linearGradient>
<polygon style="fill:url(#SVGID_18_);" points="277.84,387.891 277.447,387.891 260.565,401.191 265.708,421.471 311.422,421.471 
	"/>
<linearGradient id="SVGID_19_" gradientUnits="userSpaceOnUse" x1="254.8088" y1="122.4833" x2="254.8088" y2="75.7533" gradientTransform="matrix(1.0039 0 0 -1.0039 0.1922 516.5615)">
	<stop  offset="0" style="stop-color:#FEFFB3"/>
	<stop  offset="1" style="stop-color:#FFCD77"/>
</linearGradient>
<path style="fill:url(#SVGID_19_);" d="M268.414,426.876h-24.827c-5.968,0-10.806-4.838-10.806-10.806v-22.778
	c0-5.968,4.838-10.806,10.806-10.806h24.827c5.968,0,10.806,4.838,10.806,10.806v22.778
	C279.22,422.038,274.382,426.876,268.414,426.876z"/>
<g>
</g>
<g>
</g>
<g>
</g>
<g>
</g>
<g>
</g>
<g>
</g>
<g>
</g>
<g>
</g>
<g>
</g>
<g>
</g>
<g>
</g>
<g>
</g>
<g>
</g>
<g>
</g>
<g>
</g>
</svg>
