<?xml version="1.0" encoding="iso-8859-1"?>
<!-- Generator: Adobe Illustrator 19.0.0, SVG Export Plug-In . SVG Version: 6.00 Build 0)  -->
<svg version="1.1" id="Capa_1" xmlns="http://www.w3.org/2000/svg" xmlns:xlink="http://www.w3.org/1999/xlink" x="0px" y="0px"
	 viewBox="0 0 512.001 512.001" style="enable-background:new 0 0 512.001 512.001;" xml:space="preserve">
<radialGradient id="SVGID_1_" cx="262.3887" cy="340.8435" r="40.3876" gradientTransform="matrix(1.0205 0 0 -1.0039 -11.764 516.5618)" gradientUnits="userSpaceOnUse">
	<stop  offset="0" style="stop-color:#605654"/>
	<stop  offset="0.351" style="stop-color:#5B5351"/>
	<stop  offset="0.745" style="stop-color:#4E4948"/>
	<stop  offset="1" style="stop-color:#413F40"/>
</radialGradient>
<rect x="197.823" y="170.868" style="fill:url(#SVGID_1_);" width="116.355" height="7.027"/>
<linearGradient id="SVGID_2_" gradientUnits="userSpaceOnUse" x1="236.4651" y1="313.4167" x2="-0.5049" y2="299.4867" gradientTransform="matrix(1.0039 0 0 -1.0039 0.1922 516.5618)">
	<stop  offset="0" style="stop-color:#605654"/>
	<stop  offset="1" style="stop-color:#413F40"/>
</linearGradient>
<path style="fill:url(#SVGID_2_);" d="M30.475,229.906H11.182C5.006,229.906,0,224.9,0,218.724v-8.113
	c0-6.175,5.006-11.182,11.182-11.182h19.294v30.476H30.475z"/>
<linearGradient id="SVGID_3_" gradientUnits="userSpaceOnUse" x1="172.9371" y1="212.582" x2="25.5511" y2="359.962" gradientTransform="matrix(1.0039 0 0 -1.0039 0.1922 516.5618)">
	<stop  offset="0" style="stop-color:#605654"/>
	<stop  offset="1" style="stop-color:#413F40"/>
</linearGradient>
<path style="fill:url(#SVGID_3_);" d="M233.554,203.17c0,0-10.202-47.365-102.017-47.365S9.845,211.186,9.845,250.535
	c0,39.35,19.675,105.661,75.784,105.661C141.739,356.196,258.329,275.311,233.554,203.17z"/>
<radialGradient id="SVGID_4_" cx="78.3286" cy="318.5035" r="146.88" gradientTransform="matrix(1.0039 0 0 -1.0039 0.1922 516.5618)" gradientUnits="userSpaceOnUse">
	<stop  offset="0" style="stop-color:#605654"/>
	<stop  offset="0.351" style="stop-color:#5B5351"/>
	<stop  offset="0.745" style="stop-color:#4E4948"/>
	<stop  offset="1" style="stop-color:#413F40"/>
</radialGradient>
<path style="fill:url(#SVGID_4_);" d="M225.918,206.832c0,0-9.494-44.081-94.945-44.081S17.717,214.293,17.717,250.914
	s18.311,98.335,70.531,98.335C140.468,349.25,248.976,273.972,225.918,206.832z"/>
<linearGradient id="SVGID_5_" gradientUnits="userSpaceOnUse" x1="110.0117" y1="292.925" x2="-6.9214" y2="525.009" gradientTransform="matrix(1.0039 0 0 -1.0039 0.1922 516.5618)">
	<stop  offset="1.000000e-004" style="stop-color:#E7EEED;stop-opacity:0"/>
	<stop  offset="1" style="stop-color:#E7EEED"/>
</linearGradient>
<path style="fill:url(#SVGID_5_);" d="M220.063,209.641c0,0-8.952-41.563-89.522-41.563S23.754,216.676,23.754,251.206
	s17.265,92.719,66.502,92.719C139.493,343.924,241.805,272.946,220.063,209.641z"/>
<linearGradient id="SVGID_6_" gradientUnits="userSpaceOnUse" x1="238.0796" y1="285.9514" x2="1.1096" y2="272.0214" gradientTransform="matrix(1.0039 0 0 -1.0039 0.1922 516.5618)">
	<stop  offset="0" style="stop-color:#605654"/>
	<stop  offset="1" style="stop-color:#413F40"/>
</linearGradient>
<path style="fill:url(#SVGID_6_);" d="M481.525,229.906h19.294c6.175,0,11.182-5.006,11.182-11.182v-8.113
	c0-6.175-5.007-11.182-11.182-11.182h-19.294V229.906z"/>
<linearGradient id="SVGID_7_" gradientUnits="userSpaceOnUse" x1="467.2302" y1="197.5851" x2="308.2502" y2="356.5651" gradientTransform="matrix(1.0039 0 0 -1.0039 0.1922 516.5618)">
	<stop  offset="0" style="stop-color:#605654"/>
	<stop  offset="1" style="stop-color:#413F40"/>
</linearGradient>
<path style="fill:url(#SVGID_7_);" d="M278.446,203.17c0,0,10.202-47.365,102.017-47.365s121.691,55.38,121.691,94.73
	s-19.675,105.661-75.784,105.661C370.261,356.196,253.67,275.311,278.446,203.17z"/>
<radialGradient id="SVGID_8_" cx="822.5014" cy="336.6735" r="146.88" gradientTransform="matrix(-1.0039 0 0 -1.0039 1220.238 516.5618)" gradientUnits="userSpaceOnUse">
	<stop  offset="0" style="stop-color:#605654"/>
	<stop  offset="0.351" style="stop-color:#5B5351"/>
	<stop  offset="0.745" style="stop-color:#4E4948"/>
	<stop  offset="1" style="stop-color:#413F40"/>
</radialGradient>
<path style="fill:url(#SVGID_8_);" d="M286.082,206.832c0,0,9.494-44.081,94.945-44.081s113.255,51.541,113.255,88.162
	s-18.311,98.335-70.531,98.335C371.532,349.25,263.024,273.972,286.082,206.832z"/>
<linearGradient id="SVGID_9_" gradientUnits="userSpaceOnUse" x1="380.8426" y1="288.4356" x2="258.5726" y2="517.7526" gradientTransform="matrix(1.0039 0 0 -1.0039 0.1922 516.5618)">
	<stop  offset="1.000000e-004" style="stop-color:#E7EEED;stop-opacity:0"/>
	<stop  offset="1" style="stop-color:#E7EEED"/>
</linearGradient>
<path style="fill:url(#SVGID_9_);" d="M291.937,209.641c0,0,8.952-41.563,89.522-41.563s106.787,48.598,106.787,83.128
	s-17.264,92.719-66.502,92.719C372.507,343.924,270.195,272.946,291.937,209.641z"/>
<linearGradient id="SVGID_10_" gradientUnits="userSpaceOnUse" x1="236.7786" y1="315.4425" x2="280.7086" y2="315.4425" gradientTransform="matrix(1.0039 0 0 -1.0039 0.1922 516.5618)">
	<stop  offset="0" style="stop-color:#605654"/>
	<stop  offset="1" style="stop-color:#413F40"/>
</linearGradient>
<path style="fill:url(#SVGID_10_);" d="M280.253,216.312c-2.376,0-4.304-1.927-4.304-4.304c0-11-8.949-19.948-19.948-19.948
	c-10.999,0-19.949,8.949-19.949,19.948c0,2.377-1.928,4.304-4.304,4.304c-2.376,0-4.304-1.927-4.304-4.304
	c0-15.747,12.81-28.557,28.557-28.557c15.746,0,28.557,12.81,28.557,28.557C284.557,214.386,282.629,216.312,280.253,216.312z"/>
<g>
</g>
<g>
</g>
<g>
</g>
<g>
</g>
<g>
</g>
<g>
</g>
<g>
</g>
<g>
</g>
<g>
</g>
<g>
</g>
<g>
</g>
<g>
</g>
<g>
</g>
<g>
</g>
<g>
</g>
</svg>
