<?xml version="1.0" encoding="iso-8859-1"?>
<!-- Generator: Adobe Illustrator 19.0.0, SVG Export Plug-In . SVG Version: 6.00 Build 0)  -->
<svg version="1.1" id="Capa_1" xmlns="http://www.w3.org/2000/svg" xmlns:xlink="http://www.w3.org/1999/xlink" x="0px" y="0px"
	 viewBox="0 0 511.999 511.999" style="enable-background:new 0 0 511.999 511.999;" xml:space="preserve">
<linearGradient id="SVGID_1_" gradientUnits="userSpaceOnUse" x1="223.9582" y1="83.7835" x2="285.6582" y2="83.7835" gradientTransform="matrix(1.0039 0 0 -1.0039 0.1922 516.5588)">
	<stop  offset="0" style="stop-color:#FEFFB3"/>
	<stop  offset="1" style="stop-color:#FFCD77"/>
</linearGradient>
<path style="fill:url(#SVGID_1_);" d="M259.78,511.999h-7.561c-15.017,0-27.191-12.174-27.191-27.191V352.895h61.942v131.914
	C286.971,499.825,274.797,511.999,259.78,511.999z"/>
<linearGradient id="SVGID_2_" gradientUnits="userSpaceOnUse" x1="311.9682" y1="100.152" x2="217.5182" y2="194.602" gradientTransform="matrix(1.0039 0 0 -1.0039 0.1922 516.5588)">
	<stop  offset="0" style="stop-color:#FF9111;stop-opacity:0"/>
	<stop  offset="1" style="stop-color:#F26500"/>
</linearGradient>
<polygon style="fill:url(#SVGID_2_);" points="225.029,364.365 286.971,426.307 286.971,352.895 225.029,352.895 "/>
<linearGradient id="SVGID_3_" gradientUnits="userSpaceOnUse" x1="115.4327" y1="333.07" x2="394.1835" y2="333.07" gradientTransform="matrix(1.0039 0 0 -1.0039 0.1922 516.5588)">
	<stop  offset="0" style="stop-color:#FFA981"/>
	<stop  offset="0.428" style="stop-color:#FF8666"/>
	<stop  offset="1" style="stop-color:#FF5C45"/>
</linearGradient>
<path style="fill:url(#SVGID_3_);" d="M345,364.365H166.999c-29.651,0-53.03-25.234-50.77-54.798L135.498,57.39
	c1.732-22.668,18.28-41.44,40.551-46.003l31.709-6.496c31.83-6.521,64.654-6.521,96.484,0l31.709,6.496
	c22.271,4.563,38.819,23.336,40.55,46.003l19.269,252.177C398.029,339.131,374.65,364.365,345,364.365z"/>
<linearGradient id="SVGID_4_" gradientUnits="userSpaceOnUse" x1="368.5782" y1="331.8678" x2="296.2482" y2="331.8678" gradientTransform="matrix(1.0039 0 0 -1.0039 0.1922 516.5588)">
	<stop  offset="0" style="stop-color:#FFA981"/>
	<stop  offset="1" style="stop-color:#FF5C45"/>
</linearGradient>
<path style="fill:url(#SVGID_4_);" d="M335.218,326.882c-10.895,0.011-26.668,0.02-37.991,0.026
	c-7.582,0.004-13.689-6.145-13.702-13.727c-0.002-1.196-0.012-2.399-0.03-3.611l-3.786-252.185
	c-0.017-1.128-0.041-2.248-0.073-3.355c-0.239-8.424,7.055-15.135,15.41-14.042c3.074,0.403,6.14,0.852,9.198,1.349l20.291,3.303
	c6.299,1.025,11.143,6.256,11.477,12.63c0.002,0.038,0.004,0.076,0.006,0.114l12.79,252.185c0.06,1.174,0.094,2.34,0.101,3.499
	C348.958,320.675,342.826,326.874,335.218,326.882z"/>
<linearGradient id="SVGID_5_" gradientUnits="userSpaceOnUse" x1="225.2982" y1="331.8694" x2="161.0582" y2="331.8694" gradientTransform="matrix(1.0039 0 0 -1.0039 0.1922 516.5588)">
	<stop  offset="0" style="stop-color:#FFA981"/>
	<stop  offset="1" style="stop-color:#FF5C45"/>
</linearGradient>
<path style="fill:url(#SVGID_5_);" d="M228.504,309.569c-0.018,1.212-0.029,2.416-0.03,3.611
	c-0.012,7.582-6.121,13.73-13.702,13.727c-11.323-0.005-27.097-0.014-37.991-0.026c-7.607-0.008-13.739-6.207-13.693-13.814
	c0.007-1.159,0.04-2.325,0.101-3.499l12.79-252.185c0.002-0.038,0.004-0.076,0.006-0.114c0.333-6.373,5.177-11.604,11.477-12.63
	l20.291-3.303c3.058-0.497,6.125-0.947,9.198-1.349c8.357-1.094,15.65,5.617,15.41,14.042c-0.031,1.108-0.056,2.227-0.073,3.355
	L228.504,309.569z"/>
<linearGradient id="SVGID_6_" gradientUnits="userSpaceOnUse" x1="254.8082" y1="209.262" x2="254.8082" y2="150.432" gradientTransform="matrix(1.0039 0 0 -1.0039 0.1922 516.5588)">
	<stop  offset="0" style="stop-color:#FFA981;stop-opacity:0"/>
	<stop  offset="1" style="stop-color:#B82934"/>
</linearGradient>
<path style="fill:url(#SVGID_6_);" d="M116.229,309.567c-2.259,29.565,21.121,54.798,50.77,54.798h178
	c29.651,0,53.03-25.234,50.771-54.798l-5.454-71.38H121.683L116.229,309.567z"/>
<g>
</g>
<g>
</g>
<g>
</g>
<g>
</g>
<g>
</g>
<g>
</g>
<g>
</g>
<g>
</g>
<g>
</g>
<g>
</g>
<g>
</g>
<g>
</g>
<g>
</g>
<g>
</g>
<g>
</g>
</svg>
