<?xml version="1.0" encoding="iso-8859-1"?>
<!-- Generator: Adobe Illustrator 19.0.0, SVG Export Plug-In . SVG Version: 6.00 Build 0)  -->
<svg version="1.1" id="Capa_1" xmlns="http://www.w3.org/2000/svg" xmlns:xlink="http://www.w3.org/1999/xlink" x="0px" y="0px"
	 viewBox="0 0 512 512" style="enable-background:new 0 0 512 512;" xml:space="preserve">
<linearGradient id="SVGID_1_" gradientUnits="userSpaceOnUse" x1="254.8086" y1="495.548" x2="254.8086" y2="450.543" gradientTransform="matrix(1.0039 0 0 -1.0039 0.1922 516.5609)">
	<stop  offset="0" style="stop-color:#FEFFB3"/>
	<stop  offset="1" style="stop-color:#FFCD77"/>
</linearGradient>
<path style="fill:url(#SVGID_1_);" d="M395.755,42.073h-279.51c-9.634,0-17.444-7.81-17.444-17.444l0,0
	c0-9.634,7.81-17.444,17.444-17.444h279.51c9.634,0,17.444,7.81,17.444,17.444l0,0C413.199,34.264,405.389,42.073,395.755,42.073z"
	/>
<linearGradient id="SVGID_2_" gradientUnits="userSpaceOnUse" x1="87.2185" y1="321.7823" x2="133.3085" y2="313.3123" gradientTransform="matrix(1.0039 0 0 -1.0039 0.1922 516.5609)">
	<stop  offset="0" style="stop-color:#FEFFB3"/>
	<stop  offset="1" style="stop-color:#FFCD77"/>
</linearGradient>
<path style="fill:url(#SVGID_2_);" d="M137.485,41.549L82.662,353.69c-1.689,9.183-10.501,15.258-19.683,13.57l0,0
	c-9.183-1.689-15.258-10.501-13.57-19.683l54.823-312.14c1.689-9.183,10.501-15.258,19.683-13.57l0,0
	C133.098,23.555,139.174,32.367,137.485,41.549z"/>
<linearGradient id="SVGID_3_" gradientUnits="userSpaceOnUse" x1="417.508" y1="447.1624" x2="358.668" y2="505.9944" gradientTransform="matrix(1.0039 0 0 -1.0039 0.1922 516.5609)">
	<stop  offset="0" style="stop-color:#FFE000;stop-opacity:0"/>
	<stop  offset="1" style="stop-color:#FFAF00"/>
</linearGradient>
<path style="fill:url(#SVGID_3_);" d="M376.441,42.073h19.313c4.277,0,8.19-1.545,11.224-4.1L376.441,7.436V42.073z"/>
<linearGradient id="SVGID_4_" gradientUnits="userSpaceOnUse" x1="422.3987" y1="321.7823" x2="376.3087" y2="313.3123" gradientTransform="matrix(1.0039 0 0 -1.0039 0.1922 516.5609)">
	<stop  offset="0" style="stop-color:#FEFFB3"/>
	<stop  offset="1" style="stop-color:#FFCD77"/>
</linearGradient>
<path style="fill:url(#SVGID_4_);" d="M374.515,41.549l54.823,312.14c1.689,9.183,10.501,15.258,19.683,13.57l0,0
	c9.183-1.689,15.258-10.501,13.57-19.683l-54.823-312.14c-1.689-9.183-10.501-15.258-19.683-13.57l0,0
	C378.902,23.555,372.826,32.367,374.515,41.549z"/>
<linearGradient id="SVGID_5_" gradientUnits="userSpaceOnUse" x1="390.1195" y1="324.1999" x2="302.4195" y2="336.0199" gradientTransform="matrix(1.0039 0 0 -1.0039 0.1922 516.5609)">
	<stop  offset="0" style="stop-color:#FFE000;stop-opacity:0"/>
	<stop  offset="1" style="stop-color:#FFAF00"/>
</linearGradient>
<path style="fill:url(#SVGID_5_);" d="M462.591,347.577L408.476,39.471L390.62,21.614c-0.839,0.027-1.685,0.095-2.536,0.252l0,0
	c-5.115,0.941-9.261,4.095-11.643,8.289v22.36l52.898,301.172c0.316,1.722,0.883,3.334,1.656,4.807
	c2.834,5.399,8.437,8.918,14.614,9.041c1.123,0.022,2.265-0.067,3.413-0.278c3.443-0.633,6.45-2.268,8.774-4.549
	c0.774-0.76,1.474-1.592,2.087-2.483s1.142-1.839,1.578-2.834c0.435-0.995,0.776-2.034,1.014-3.106
	C462.949,352.145,463.013,349.872,462.591,347.577z"/>
<linearGradient id="SVGID_6_" gradientUnits="userSpaceOnUse" x1="53.2587" y1="92.9449" x2="103.1587" y2="89.9849" gradientTransform="matrix(1.0039 0 0 -1.0039 0.1922 516.5609)">
	<stop  offset="0" style="stop-color:#FEFFB3"/>
	<stop  offset="1" style="stop-color:#FFCD77"/>
</linearGradient>
<path style="fill:url(#SVGID_6_);" d="M83.378,353.711L71.103,495.588c-0.57,9.617-8.828,16.951-18.445,16.381l0,0
	c-9.617-0.57-16.951-8.828-16.381-18.445l12.275-141.877c0.57-9.617,8.828-16.951,18.445-16.381l0,0
	C76.613,335.835,83.947,344.093,83.378,353.711z"/>
<linearGradient id="SVGID_7_" gradientUnits="userSpaceOnUse" x1="97.8886" y1="128.903" x2="50.3966" y2="176.403" gradientTransform="matrix(1.0039 0 0 -1.0039 0.1922 516.5609)">
	<stop  offset="0" style="stop-color:#FFE000;stop-opacity:0"/>
	<stop  offset="1" style="stop-color:#FFAF00"/>
</linearGradient>
<path style="fill:url(#SVGID_7_);" d="M66.997,335.266c-9.617-0.57-17.876,6.763-18.445,16.381l-0.973,11.251l32.218,32.218
	l3.582-41.405C83.947,344.093,76.613,335.835,66.997,335.266z"/>
<linearGradient id="SVGID_8_" gradientUnits="userSpaceOnUse" x1="444.0784" y1="92.2164" x2="493.9684" y2="95.1764" gradientTransform="matrix(1.0039 0 0 -1.0039 0.1922 516.5609)">
	<stop  offset="0" style="stop-color:#FEFFB3"/>
	<stop  offset="1" style="stop-color:#FFCD77"/>
</linearGradient>
<path style="fill:url(#SVGID_8_);" d="M475.723,493.524l-12.275-141.877c-0.57-9.617-8.828-16.951-18.445-16.381l0,0
	c-9.617,0.57-16.951,8.828-16.381,18.445l12.275,141.877c0.57,9.617,8.828,16.951,18.445,16.381l0,0
	C468.96,511.399,476.294,503.14,475.723,493.524z"/>
<linearGradient id="SVGID_9_" gradientUnits="userSpaceOnUse" x1="487.8503" y1="115.7847" x2="384.5103" y2="219.1347" gradientTransform="matrix(1.0039 0 0 -1.0039 0.1922 516.5609)">
	<stop  offset="0" style="stop-color:#FFE000;stop-opacity:0"/>
	<stop  offset="1" style="stop-color:#FFAF00"/>
</linearGradient>
<path style="fill:url(#SVGID_9_);" d="M468.237,406.989l-4.788-55.342c-0.57-9.617-8.828-16.951-18.445-16.381
	c-9.617,0.57-16.951,8.828-16.381,18.445l1.294,14.957L468.237,406.989z"/>
<linearGradient id="SVGID_10_" gradientUnits="userSpaceOnUse" x1="254.8081" y1="171.083" x2="254.8081" y2="126.073" gradientTransform="matrix(1.0039 0 0 -1.0039 0.1922 516.5609)">
	<stop  offset="0" style="stop-color:#FEFFB3"/>
	<stop  offset="1" style="stop-color:#FFCD77"/>
</linearGradient>
<path style="fill:url(#SVGID_10_);" d="M452.023,367.812H59.977c-9.634,0-17.444-7.81-17.444-17.444l0,0
	c0-9.634,7.81-17.444,17.444-17.444h392.044c9.634,0,17.444,7.809,17.444,17.444l0,0
	C469.466,360.002,461.656,367.812,452.023,367.812z"/>
<linearGradient id="SVGID_11_" gradientUnits="userSpaceOnUse" x1="82.4286" y1="346.0045" x2="474.5486" y2="346.0045" gradientTransform="matrix(1.0039 0 0 -1.0039 0.1922 516.5609)">
	<stop  offset="0" style="stop-color:#FFA981"/>
	<stop  offset="0.64" style="stop-color:#FF7558"/>
	<stop  offset="1" style="stop-color:#FF5C45"/>
</linearGradient>
<path style="fill:url(#SVGID_11_);" d="M378.091,15.799C378.029,7.057,370.933,0,362.191,0H256H149.809
	c-8.742,0-15.838,7.057-15.9,15.799c-0.922,129.467-13.605,256.548-59.334,322.6H256h181.425
	C391.696,272.347,379.012,145.265,378.091,15.799z"/>
<g>
	
		<linearGradient id="SVGID_12_" gradientUnits="userSpaceOnUse" x1="168.3141" y1="231.753" x2="168.3141" y2="111.773" gradientTransform="matrix(1.0039 0 0 -1.0039 0.1922 516.5609)">
		<stop  offset="0" style="stop-color:#EFFBFF"/>
		<stop  offset="0.235" style="stop-color:#D5EBF7"/>
		<stop  offset="0.487" style="stop-color:#C2DFF1"/>
		<stop  offset="0.742" style="stop-color:#B6D7ED"/>
		<stop  offset="1" style="stop-color:#B2D5EC"/>
	</linearGradient>
	<path style="fill:url(#SVGID_12_);" d="M129.729,338.403h35.831c36.297-119.552,42.114-289.811,43.044-338.399h-34.257
		C173.265,49.29,166.833,225.38,129.729,338.403z"/>
	
		<linearGradient id="SVGID_13_" gradientUnits="userSpaceOnUse" x1="341.2976" y1="231.753" x2="341.2976" y2="111.773" gradientTransform="matrix(1.0039 0 0 -1.0039 0.1922 516.5609)">
		<stop  offset="0" style="stop-color:#EFFBFF"/>
		<stop  offset="0.235" style="stop-color:#D5EBF7"/>
		<stop  offset="0.487" style="stop-color:#C2DFF1"/>
		<stop  offset="0.742" style="stop-color:#B6D7ED"/>
		<stop  offset="1" style="stop-color:#B2D5EC"/>
	</linearGradient>
	<path style="fill:url(#SVGID_13_);" d="M337.654,0.004h-34.257c0.931,48.587,6.747,218.847,43.044,338.399h35.818
		C345.181,225.393,338.735,49.275,337.654,0.004z"/>
	
		<linearGradient id="SVGID_14_" gradientUnits="userSpaceOnUse" x1="254.8086" y1="231.753" x2="254.8086" y2="111.773" gradientTransform="matrix(1.0039 0 0 -1.0039 0.1922 516.5609)">
		<stop  offset="0" style="stop-color:#EFFBFF"/>
		<stop  offset="0.235" style="stop-color:#D5EBF7"/>
		<stop  offset="0.487" style="stop-color:#C2DFF1"/>
		<stop  offset="0.742" style="stop-color:#B6D7ED"/>
		<stop  offset="1" style="stop-color:#B2D5EC"/>
	</linearGradient>
	<rect x="238.893" y="0.004" style="fill:url(#SVGID_14_);" width="34.214" height="338.402"/>
</g>
<linearGradient id="SVGID_15_" gradientUnits="userSpaceOnUse" x1="254.8086" y1="174.333" x2="254.8086" y2="144.743" gradientTransform="matrix(1.0039 0 0 -1.0039 0.1922 516.5609)">
	<stop  offset="0" style="stop-color:#FFA981"/>
	<stop  offset="0.117" style="stop-color:#FF9F79"/>
	<stop  offset="0.707" style="stop-color:#FF6F53"/>
	<stop  offset="1" style="stop-color:#FF5C45"/>
</linearGradient>
<path style="fill:url(#SVGID_15_);" d="M429.061,367.812H82.939c-9.634,0-17.443-7.81-17.443-17.444l0,0
	c0-9.634,7.81-17.444,17.443-17.444H429.06c9.634,0,17.444,7.809,17.444,17.444l0,0
	C446.504,360.002,438.695,367.812,429.061,367.812z"/>
<g>
	
		<linearGradient id="SVGID_16_" gradientUnits="userSpaceOnUse" x1="189.1581" y1="487.141" x2="189.1581" y2="541.14" gradientTransform="matrix(1.0039 0 0 -1.0039 0.1922 516.5609)">
		<stop  offset="0" style="stop-color:#EFFBFF"/>
		<stop  offset="0.235" style="stop-color:#D5EBF7"/>
		<stop  offset="0.487" style="stop-color:#C2DFF1"/>
		<stop  offset="0.742" style="stop-color:#B6D7ED"/>
		<stop  offset="1" style="stop-color:#B2D5EC"/>
	</linearGradient>
	<path style="fill:url(#SVGID_16_);" d="M174.346,0.004h34.257c-0.26,13.919-0.931,37.816-2.6,67.652h-34.421
		C173.306,37.875,174.032,13.896,174.346,0.004z"/>
	
		<linearGradient id="SVGID_17_" gradientUnits="userSpaceOnUse" x1="254.8086" y1="487.141" x2="254.8086" y2="541.14" gradientTransform="matrix(1.0039 0 0 -1.0039 0.1922 516.5609)">
		<stop  offset="0" style="stop-color:#EFFBFF"/>
		<stop  offset="0.235" style="stop-color:#D5EBF7"/>
		<stop  offset="0.487" style="stop-color:#C2DFF1"/>
		<stop  offset="0.742" style="stop-color:#B6D7ED"/>
		<stop  offset="1" style="stop-color:#B2D5EC"/>
	</linearGradient>
	<rect x="238.893" y="0.004" style="fill:url(#SVGID_17_);" width="34.214" height="67.654"/>
	
		<linearGradient id="SVGID_18_" gradientUnits="userSpaceOnUse" x1="320.4591" y1="487.141" x2="320.4591" y2="541.14" gradientTransform="matrix(1.0039 0 0 -1.0039 0.1922 516.5609)">
		<stop  offset="0" style="stop-color:#EFFBFF"/>
		<stop  offset="0.235" style="stop-color:#D5EBF7"/>
		<stop  offset="0.487" style="stop-color:#C2DFF1"/>
		<stop  offset="0.742" style="stop-color:#B6D7ED"/>
		<stop  offset="1" style="stop-color:#B2D5EC"/>
	</linearGradient>
	<path style="fill:url(#SVGID_18_);" d="M340.419,67.657h-34.421c-1.669-29.837-2.34-53.733-2.6-67.652h34.257
		C337.968,13.896,338.694,37.861,340.419,67.657z"/>
</g>
<g>
	
		<linearGradient id="SVGID_19_" gradientUnits="userSpaceOnUse" x1="254.8081" y1="165.633" x2="254.8081" y2="137.673" gradientTransform="matrix(1.0039 0 0 -1.0039 0.1922 516.5609)">
		<stop  offset="0" style="stop-color:#EFFBFF"/>
		<stop  offset="0.235" style="stop-color:#D5EBF7"/>
		<stop  offset="0.487" style="stop-color:#C2DFF1"/>
		<stop  offset="0.742" style="stop-color:#B6D7ED"/>
		<stop  offset="1" style="stop-color:#B2D5EC"/>
	</linearGradient>
	<rect x="235.922" y="332.931" style="fill:url(#SVGID_19_);" width="40.156" height="34.887"/>
	
		<linearGradient id="SVGID_20_" gradientUnits="userSpaceOnUse" x1="138.4716" y1="165.633" x2="138.4716" y2="137.673" gradientTransform="matrix(1.0039 0 0 -1.0039 0.1922 516.5609)">
		<stop  offset="0" style="stop-color:#EFFBFF"/>
		<stop  offset="0.235" style="stop-color:#D5EBF7"/>
		<stop  offset="0.487" style="stop-color:#C2DFF1"/>
		<stop  offset="0.742" style="stop-color:#B6D7ED"/>
		<stop  offset="1" style="stop-color:#B2D5EC"/>
	</linearGradient>
	<rect x="119.135" y="332.931" style="fill:url(#SVGID_20_);" width="40.143" height="34.887"/>
	
		<linearGradient id="SVGID_21_" gradientUnits="userSpaceOnUse" x1="371.1516" y1="165.633" x2="371.1516" y2="137.673" gradientTransform="matrix(1.0039 0 0 -1.0039 0.1922 516.5609)">
		<stop  offset="0" style="stop-color:#EFFBFF"/>
		<stop  offset="0.235" style="stop-color:#D5EBF7"/>
		<stop  offset="0.487" style="stop-color:#C2DFF1"/>
		<stop  offset="0.742" style="stop-color:#B6D7ED"/>
		<stop  offset="1" style="stop-color:#B2D5EC"/>
	</linearGradient>
	<rect x="352.728" y="332.931" style="fill:url(#SVGID_21_);" width="40.143" height="34.887"/>
</g>
<linearGradient id="SVGID_22_" gradientUnits="userSpaceOnUse" x1="103.8603" y1="53.9847" x2="56.2803" y2="101.5647" gradientTransform="matrix(1.0039 0 0 -1.0039 0.1922 516.5609)">
	<stop  offset="0" style="stop-color:#FFE000;stop-opacity:0"/>
	<stop  offset="1" style="stop-color:#FFAF00"/>
</linearGradient>
<path style="fill:url(#SVGID_22_);" d="M78.027,415.551h-2.084c-8.85,0-16.023,7.174-16.023,16.024c0,5.017,2.309,9.492,5.919,12.43
	l8.952,8.953L78.027,415.551z"/>
<linearGradient id="SVGID_23_" gradientUnits="userSpaceOnUse" x1="450.702" y1="46.8263" x2="404.1719" y2="93.3563" gradientTransform="matrix(1.0039 0 0 -1.0039 0.1922 516.5609)">
	<stop  offset="0" style="stop-color:#FFE000;stop-opacity:0"/>
	<stop  offset="1" style="stop-color:#FFAF00"/>
</linearGradient>
<path style="fill:url(#SVGID_23_);" d="M433.973,415.551l6.924,80.037c0.57,9.617,8.828,16.951,18.445,16.381
	c9.617-0.57,16.951-8.828,16.381-18.445l-4.245-49.062l-22.992-22.992c-2.937-3.61-7.413-5.919-12.43-5.919H433.973z"/>
<linearGradient id="SVGID_24_" gradientUnits="userSpaceOnUse" x1="254.8086" y1="89.743" x2="254.8086" y2="48.393" gradientTransform="matrix(1.0039 0 0 -1.0039 0.1922 516.5609)">
	<stop  offset="0" style="stop-color:#FEFFB3"/>
	<stop  offset="1" style="stop-color:#FFCD77"/>
</linearGradient>
<path style="fill:url(#SVGID_24_);" d="M436.057,447.597H75.943c-8.85,0-16.023-7.174-16.023-16.023l0,0
	c0-8.85,7.174-16.024,16.023-16.024h360.115c8.85,0,16.023,7.174,16.023,16.024l0,0C452.08,440.424,444.907,447.597,436.057,447.597
	z"/>
<g>
</g>
<g>
</g>
<g>
</g>
<g>
</g>
<g>
</g>
<g>
</g>
<g>
</g>
<g>
</g>
<g>
</g>
<g>
</g>
<g>
</g>
<g>
</g>
<g>
</g>
<g>
</g>
<g>
</g>
</svg>
