<?xml version="1.0" encoding="iso-8859-1"?>
<!-- Generator: Adobe Illustrator 19.0.0, SVG Export Plug-In . SVG Version: 6.00 Build 0)  -->
<svg version="1.1" id="Capa_1" xmlns="http://www.w3.org/2000/svg" xmlns:xlink="http://www.w3.org/1999/xlink" x="0px" y="0px"
	 viewBox="0 0 512 512" style="enable-background:new 0 0 512 512;" xml:space="preserve">
<path style="opacity:0.8;fill:#EFFBFF;enable-background:new    ;" d="M256,0.041c-41.763,0-84.585,2.008-126.194,9.261
	c-18.366,3.202-48.304,5.766-60.008,22.499c-45.917,147.923-45.914,300.527,0,448.439c11.706,16.733,41.643,19.296,60.008,22.498
	C171.414,509.992,214.237,512,256,512s84.585-2.008,126.194-9.261c18.366-3.202,48.304-5.766,60.008-22.498
	c45.913-147.913,45.917-300.516,0-448.439c-11.705-16.733-41.643-19.296-60.008-22.499C340.585,2.049,297.763,0.041,256,0.041z"/>
<linearGradient id="SVGID_1_" gradientUnits="userSpaceOnUse" x1="67.0674" y1="23.9011" x2="442.5494" y2="23.9011" gradientTransform="matrix(1.0039 0 0 -1.0039 0.1922 516.5611)">
	<stop  offset="0" style="stop-color:#C6E1F2"/>
	<stop  offset="0.038" style="stop-color:#DCECF7"/>
	<stop  offset="0.085" style="stop-color:#EFF7FB"/>
	<stop  offset="0.133" style="stop-color:#FBFDFE"/>
	<stop  offset="0.181" style="stop-color:#FFFFFF"/>
	<stop  offset="0.249" style="stop-color:#F6FAFD"/>
	<stop  offset="0.573" style="stop-color:#D1E6F4"/>
	<stop  offset="0.835" style="stop-color:#BADAEE"/>
	<stop  offset="1" style="stop-color:#B2D5EC"/>
</linearGradient>
<path style="fill:url(#SVGID_1_);" d="M256,504.977c-42.351,0-85.771-1.997-127.971-9.287c-18.442-3.186-48.795-5.689-60.506-22.557
	c0.894,2.847,1.349,4.269,2.275,7.109c11.706,16.733,41.643,19.296,60.008,22.498C171.414,509.992,214.237,512,256,512
	s84.585-2.008,126.194-9.261c18.366-3.202,48.304-5.766,60.008-22.498c0.925-2.84,1.379-4.262,2.275-7.109
	c-11.711,16.868-42.063,19.372-60.505,22.557C341.771,502.98,298.351,504.977,256,504.977z"/>
<linearGradient id="SVGID_2_" gradientUnits="userSpaceOnUse" x1="105.3184" y1="41.8781" x2="16.4664" y2="41.8781" gradientTransform="matrix(1.0039 0 0 -1.0039 0.1922 516.5611)">
	<stop  offset="0" style="stop-color:#EFFBFF"/>
	<stop  offset="0.073" style="stop-color:#EAF8FD"/>
	<stop  offset="0.684" style="stop-color:#C1DFF1"/>
	<stop  offset="1" style="stop-color:#B2D5EC"/>
</linearGradient>
<path style="opacity:0.5;fill:url(#SVGID_2_);enable-background:new    ;" d="M70.683,444.061
	c45.937,15.806,97.412,17.862,145.451,19.875c1.033,16.536,1.602,24.752,2.845,41.041c-37.527-1.773-75.128-5.204-111.615-12.899
	c-13.932-2.938-26.588-13.148-31.049-27.026C73.941,456.683,72.814,452.484,70.683,444.061z"/>
<linearGradient id="SVGID_3_" gradientUnits="userSpaceOnUse" x1="393.1484" y1="41.8781" x2="475.3584" y2="41.8781" gradientTransform="matrix(1.0039 0 0 -1.0039 0.1922 516.5611)">
	<stop  offset="0" style="stop-color:#EFFBFF"/>
	<stop  offset="0.073" style="stop-color:#EAF8FD"/>
	<stop  offset="0.684" style="stop-color:#C1DFF1"/>
	<stop  offset="1" style="stop-color:#B2D5EC"/>
</linearGradient>
<path style="opacity:0.5;fill:url(#SVGID_3_);enable-background:new    ;" d="M441.316,444.061
	c-2.131,8.423-3.258,12.622-5.632,20.991c-4.461,13.877-17.117,24.087-31.049,27.026c-36.487,7.695-74.088,11.126-111.615,12.899
	c1.243-16.29,1.812-24.506,2.844-41.041C343.97,461.92,395.305,459.766,441.316,444.061z"/>
<linearGradient id="SVGID_4_" gradientUnits="userSpaceOnUse" x1="129.4276" y1="262.8202" x2="380.1889" y2="262.8202" gradientTransform="matrix(1.0039 0 0 -1.0039 0.1922 516.5611)">
	<stop  offset="0" style="stop-color:#EFFBFF"/>
	<stop  offset="0.056" style="stop-color:#F6FDFF"/>
	<stop  offset="0.169" style="stop-color:#FDFFFF"/>
	<stop  offset="0.483" style="stop-color:#FFFFFF"/>
	<stop  offset="0.819" style="stop-color:#FDFFFF"/>
	<stop  offset="0.94" style="stop-color:#F6FDFF"/>
	<stop  offset="1" style="stop-color:#EFFBFF"/>
</linearGradient>
<path style="opacity:0.5;fill:url(#SVGID_4_);enable-background:new    ;" d="M256,0.041c-26.229,0-93.557-0.087-106.126,31.76
	c-26.33,148.822-26.329,299.62,0,448.439c11.713,29.65,82.109,24.736,106.126,24.736c24.65,0,94.241,5.581,106.126-24.736
	c26.329-148.819,26.329-299.616,0-448.439C349.436-0.552,282.672,0.041,256,0.041z"/>
<path style="fill:#E8FC95;" d="M256,126.448c-49.618,0-100.289,1.952-149.754,9.612c-17.455,2.704-56.024,5.035-65.55,23.269
	C29.758,249.78,34.41,338.445,54.747,427.256c10.183,17.587,46.13,20.089,63.293,22.869c45.562,7.379,92.248,9.461,137.96,9.461
	c45.716,0,92.396-2.08,137.96-9.461c17.763-2.877,52.972-5.154,63.293-22.869c20.336-88.812,24.99-177.477,14.051-267.928
	c-9.71-18.339-47.599-20.488-65.551-23.269C356.296,128.397,305.609,126.448,256,126.448z"/>
<linearGradient id="SVGID_5_" gradientUnits="userSpaceOnUse" x1="92.811" y1="222.7008" x2="416.8056" y2="222.7008" gradientTransform="matrix(1.0039 0 0 -1.0039 0.1922 516.5611)">
	<stop  offset="0" style="stop-color:#E8FC95"/>
	<stop  offset="0.333" style="stop-color:#BFE52B"/>
	<stop  offset="0.483" style="stop-color:#AFDC00"/>
	<stop  offset="0.559" style="stop-color:#B1DD05"/>
	<stop  offset="0.645" style="stop-color:#B6E012"/>
	<stop  offset="0.736" style="stop-color:#BFE529"/>
	<stop  offset="0.83" style="stop-color:#CBEC48"/>
	<stop  offset="0.926" style="stop-color:#DAF470"/>
	<stop  offset="1" style="stop-color:#E8FC95"/>
</linearGradient>
<path style="opacity:0.5;fill:url(#SVGID_5_);enable-background:new    ;" d="M256,126.448c-29.749,0-143.615-5.736-158.411,32.88
	c-8.003,89.947-4.666,178.873,10.338,267.928c16.264,37.019,117.881,32.329,148.072,32.329c30.181,0,132.862,5.168,148.072-32.329
	c15.004-89.055,18.342-177.98,10.338-267.928c-5.645-16.277-34.566-20.3-48.41-23.229C329.877,128.458,292.317,126.448,256,126.448z
	"/>
<linearGradient id="SVGID_6_" gradientUnits="userSpaceOnUse" x1="69.1225" y1="482.6851" x2="440.4916" y2="482.6851" gradientTransform="matrix(1.0039 0 0 -1.0039 0.1922 516.5611)">
	<stop  offset="0" style="stop-color:#C6E1F2"/>
	<stop  offset="0.038" style="stop-color:#DCECF7"/>
	<stop  offset="0.085" style="stop-color:#EFF7FB"/>
	<stop  offset="0.133" style="stop-color:#FBFDFE"/>
	<stop  offset="0.181" style="stop-color:#FFFFFF"/>
	<stop  offset="0.249" style="stop-color:#F6FAFD"/>
	<stop  offset="0.573" style="stop-color:#D1E6F4"/>
	<stop  offset="0.835" style="stop-color:#BADAEE"/>
	<stop  offset="1" style="stop-color:#B2D5EC"/>
</linearGradient>
<path style="fill:url(#SVGID_6_);" d="M256,0.041c-41.763,0-84.585,2.008-126.194,9.261C111.44,12.504,73.517,18.686,69.798,31.8
	C62.767,56.584,232.966,63.925,256,63.925s193.185-7.511,186.202-32.123c-3.746-13.206-41.643-19.296-60.008-22.498
	C340.585,2.049,297.763,0.041,256,0.041z M256,59.066c-42.79,0-86.625-1.323-129.322-8.035
	c-12.469-1.961-50.246-10.39-48.133-19.229c2.552-10.676,39.143-16.423,56.512-19.098C175.055,6.547,215.939,4.8,256,4.8
	s80.945,1.747,120.943,7.905c17.369,2.673,54.005,8.611,56.512,19.098c2.151,8.998-35.664,17.268-48.133,19.229
	C342.625,57.743,298.79,59.066,256,59.066z"/>
<linearGradient id="SVGID_7_" gradientUnits="userSpaceOnUse" x1="254.8083" y1="388.8931" x2="254.8083" y2="268.1731" gradientTransform="matrix(1.0039 0 0 -1.0039 0.1922 516.5611)">
	<stop  offset="0" style="stop-color:#E8FC95"/>
	<stop  offset="1" style="stop-color:#AFDC00"/>
</linearGradient>
<path style="fill:url(#SVGID_7_);" d="M471.304,159.329c1.388,12.05-46.083,20.996-61.11,23.347
	c-50.886,7.962-103.143,9.689-154.195,9.689c-51.064,0-103.299-1.73-154.194-9.689c-14.438-2.258-62.491-11.398-61.11-23.347
	c1.517-13.116,48.095-20.566,65.55-23.269c49.465-7.66,100.135-9.612,149.754-9.612c49.609,0,100.296,1.949,149.754,9.612
	C423.705,138.84,469.808,146.343,471.304,159.329z"/>
<linearGradient id="SVGID_8_" gradientUnits="userSpaceOnUse" x1="246.4706" y1="316.5726" x2="282.1705" y2="459.3826" gradientTransform="matrix(1.0039 0 0 -1.0039 0.1922 516.5611)">
	<stop  offset="1.000000e-004" style="stop-color:#FFFFFF;stop-opacity:0"/>
	<stop  offset="1" style="stop-color:#FFFFFF"/>
</linearGradient>
<path style="fill:url(#SVGID_8_);" d="M461.899,165.02c0.822,9.334-44.068,17.297-58.987,19.307
	c-48.625,6.556-98.218,8.037-146.912,8.037c-48.691,0-98.287-1.484-146.911-8.037c-14.098-1.9-59.789-10.268-58.987-19.307
	c0.894-10.099,45.716-17.042,62.269-19.257c47.559-6.365,96.013-7.987,143.63-7.987c47.619,0,96.07,1.62,143.63,7.987
	C416.843,148.067,461.032,155.177,461.899,165.02z"/>
<linearGradient id="SVGID_9_" gradientUnits="userSpaceOnUse" x1="296.9084" y1="262.871" x2="464.3484" y2="262.871" gradientTransform="matrix(1.0039 0 0 -1.0039 0.1922 516.5611)">
	<stop  offset="0" style="stop-color:#FFFFFF;stop-opacity:0"/>
	<stop  offset="0.483" style="stop-color:#FFFFFF"/>
	<stop  offset="0.927" style="stop-color:#FFFFFF;stop-opacity:0.141"/>
	<stop  offset="1" style="stop-color:#FFFFFF;stop-opacity:0"/>
</linearGradient>
<path style="opacity:0.5;fill:url(#SVGID_9_);enable-background:new    ;" d="M331.275,0.041
	c-23.584,0.267-93.372-0.197-101.325,31.76c-6.489,149.433-6.489,299.006,0,448.439c7.426,29.578,81.153,24.6,102.448,24.736
	c26.787,0.171,93.854,4.67,109.804-24.736c45.913-147.913,45.917-300.516,0-448.439C425.222,0.602,360.399-0.288,331.275,0.041z"/>
<linearGradient id="SVGID_10_" gradientUnits="userSpaceOnUse" x1="181.4382" y1="196.9823" x2="394.0482" y2="290.1223" gradientTransform="matrix(1.0039 0 0 -1.0039 0.1922 516.5611)">
	<stop  offset="0" style="stop-color:#E8FC95"/>
	<stop  offset="0.09" style="stop-color:#EBFCA4"/>
	<stop  offset="0.366" style="stop-color:#F4FECB"/>
	<stop  offset="0.619" style="stop-color:#FAFEE8"/>
	<stop  offset="0.838" style="stop-color:#FEFFF9"/>
	<stop  offset="1" style="stop-color:#FFFFFF"/>
</linearGradient>
<polygon style="fill:url(#SVGID_10_);" points="264.353,223.092 233.956,307.267 322.029,317.4 352.426,235.562 "/>
<linearGradient id="SVGID_11_" gradientUnits="userSpaceOnUse" x1="284.8558" y1="159.2645" x2="398.1559" y2="252.4045" gradientTransform="matrix(1.0039 0 0 -1.0039 0.1922 516.5611)">
	<stop  offset="0" style="stop-color:#E8FC95"/>
	<stop  offset="0.09" style="stop-color:#EBFCA4"/>
	<stop  offset="0.366" style="stop-color:#F4FECB"/>
	<stop  offset="0.619" style="stop-color:#FAFEE8"/>
	<stop  offset="0.838" style="stop-color:#FEFFF9"/>
	<stop  offset="1" style="stop-color:#FFFFFF"/>
</linearGradient>
<polygon style="fill:url(#SVGID_11_);" points="352.426,368.841 322.029,317.4 352.426,235.562 385.16,287.003 "/>
<linearGradient id="SVGID_12_" gradientUnits="userSpaceOnUse" x1="198.4433" y1="136.8903" x2="411.0633" y2="230.0303" gradientTransform="matrix(1.0039 0 0 -1.0039 0.1922 516.5611)">
	<stop  offset="0" style="stop-color:#E8FC95"/>
	<stop  offset="0.09" style="stop-color:#EBFCA4"/>
	<stop  offset="0.366" style="stop-color:#F4FECB"/>
	<stop  offset="0.619" style="stop-color:#FAFEE8"/>
	<stop  offset="0.838" style="stop-color:#FEFFF9"/>
	<stop  offset="1" style="stop-color:#FFFFFF"/>
</linearGradient>
<polygon style="fill:url(#SVGID_12_);" points="264.353,356.37 233.956,307.267 322.029,317.4 352.426,368.841 "/>
<linearGradient id="SVGID_13_" gradientUnits="userSpaceOnUse" x1="314.5501" y1="214.8014" x2="164.2101" y2="64.4514" gradientTransform="matrix(1.0039 0 0 -1.0039 0.1922 516.5611)">
	<stop  offset="0" style="stop-color:#E8FC95"/>
	<stop  offset="0.09" style="stop-color:#EBFCA4"/>
	<stop  offset="0.366" style="stop-color:#F4FECB"/>
	<stop  offset="0.619" style="stop-color:#FAFEE8"/>
	<stop  offset="0.838" style="stop-color:#FEFFF9"/>
	<stop  offset="1" style="stop-color:#FFFFFF"/>
</linearGradient>
<polygon style="fill:url(#SVGID_13_);" points="292.771,390.813 254.744,309.797 185.303,364.91 221.677,444.272 "/>
<linearGradient id="SVGID_14_" gradientUnits="userSpaceOnUse" x1="205.2999" y1="150.5616" x2="125.1799" y2="70.4416" gradientTransform="matrix(1.0039 0 0 -1.0039 0.1922 516.5611)">
	<stop  offset="0" style="stop-color:#E8FC95"/>
	<stop  offset="0.292" style="stop-color:#F0FDB8"/>
	<stop  offset="0.767" style="stop-color:#FBFEEB"/>
	<stop  offset="1" style="stop-color:#FFFFFF"/>
</linearGradient>
<polygon style="fill:url(#SVGID_14_);" points="127.435,350.029 185.303,364.91 221.677,444.272 162.155,431.045 "/>
<linearGradient id="SVGID_15_" gradientUnits="userSpaceOnUse" x1="255.1072" y1="250.8744" x2="104.7672" y2="100.5344" gradientTransform="matrix(1.0039 0 0 -1.0039 0.1922 516.5611)">
	<stop  offset="0" style="stop-color:#E8FC95"/>
	<stop  offset="0.09" style="stop-color:#EBFCA4"/>
	<stop  offset="0.366" style="stop-color:#F4FECB"/>
	<stop  offset="0.619" style="stop-color:#FAFEE8"/>
	<stop  offset="0.838" style="stop-color:#FEFFF9"/>
	<stop  offset="1" style="stop-color:#FFFFFF"/>
</linearGradient>
<polygon style="fill:url(#SVGID_15_);" points="198.529,296.571 254.744,309.797 185.303,364.91 127.435,350.029 "/>
<linearGradient id="SVGID_16_" gradientUnits="userSpaceOnUse" x1="371.0385" y1="133.3631" x2="371.0385" y2="226.5031" gradientTransform="matrix(1.0039 0 0 -1.0039 0.1922 516.5611)">
	<stop  offset="0" style="stop-color:#E8FC95"/>
	<stop  offset="0.09" style="stop-color:#EBFCA4"/>
	<stop  offset="0.366" style="stop-color:#F4FECB"/>
	<stop  offset="0.619" style="stop-color:#FAFEE8"/>
	<stop  offset="0.838" style="stop-color:#FEFFF9"/>
	<stop  offset="1" style="stop-color:#FFFFFF"/>
</linearGradient>
<circle style="fill:url(#SVGID_16_);" cx="372.686" cy="366.391" r="24.011"/>
<linearGradient id="SVGID_17_" gradientUnits="userSpaceOnUse" x1="411.4284" y1="179.7331" x2="411.4284" y2="217.7631" gradientTransform="matrix(1.0039 0 0 -1.0039 0.1922 516.5611)">
	<stop  offset="0" style="stop-color:#E8FC95"/>
	<stop  offset="0.09" style="stop-color:#EBFCA4"/>
	<stop  offset="0.366" style="stop-color:#F4FECB"/>
	<stop  offset="0.619" style="stop-color:#FAFEE8"/>
	<stop  offset="0.838" style="stop-color:#FEFFF9"/>
	<stop  offset="1" style="stop-color:#FFFFFF"/>
</linearGradient>
<circle style="fill:url(#SVGID_17_);" cx="413.234" cy="329.477" r="9.801"/>
<linearGradient id="SVGID_18_" gradientUnits="userSpaceOnUse" x1="366.2585" y1="240.8031" x2="366.2585" y2="278.8231" gradientTransform="matrix(1.0039 0 0 -1.0039 0.1922 516.5611)">
	<stop  offset="0" style="stop-color:#E8FC95"/>
	<stop  offset="0.09" style="stop-color:#EBFCA4"/>
	<stop  offset="0.366" style="stop-color:#F4FECB"/>
	<stop  offset="0.619" style="stop-color:#FAFEE8"/>
	<stop  offset="0.838" style="stop-color:#FEFFF9"/>
	<stop  offset="1" style="stop-color:#FFFFFF"/>
</linearGradient>
<circle style="fill:url(#SVGID_18_);" cx="367.887" cy="268.168" r="9.801"/>
<linearGradient id="SVGID_19_" gradientUnits="userSpaceOnUse" x1="411.4284" y1="271.9331" x2="411.4284" y2="309.9631" gradientTransform="matrix(1.0039 0 0 -1.0039 0.1922 516.5611)">
	<stop  offset="0" style="stop-color:#E8FC95"/>
	<stop  offset="0.09" style="stop-color:#EBFCA4"/>
	<stop  offset="0.366" style="stop-color:#F4FECB"/>
	<stop  offset="0.619" style="stop-color:#FAFEE8"/>
	<stop  offset="0.838" style="stop-color:#FEFFF9"/>
	<stop  offset="1" style="stop-color:#FFFFFF"/>
</linearGradient>
<circle style="fill:url(#SVGID_19_);" cx="413.234" cy="236.916" r="9.801"/>
<linearGradient id="SVGID_20_" gradientUnits="userSpaceOnUse" x1="385.1884" y1="203.3731" x2="385.1884" y2="267.5031" gradientTransform="matrix(1.0039 0 0 -1.0039 0.1922 516.5611)">
	<stop  offset="0" style="stop-color:#E8FC95"/>
	<stop  offset="0.09" style="stop-color:#EBFCA4"/>
	<stop  offset="0.366" style="stop-color:#F4FECB"/>
	<stop  offset="0.619" style="stop-color:#FAFEE8"/>
	<stop  offset="0.838" style="stop-color:#FEFFF9"/>
	<stop  offset="1" style="stop-color:#FFFFFF"/>
</linearGradient>
<circle style="fill:url(#SVGID_20_);" cx="386.891" cy="301.187" r="16.533"/>
<linearGradient id="SVGID_21_" gradientUnits="userSpaceOnUse" x1="182.5384" y1="205.6631" x2="182.5384" y2="298.7931" gradientTransform="matrix(1.0039 0 0 -1.0039 0.1922 516.5611)">
	<stop  offset="0" style="stop-color:#E8FC95"/>
	<stop  offset="0.09" style="stop-color:#EBFCA4"/>
	<stop  offset="0.366" style="stop-color:#F4FECB"/>
	<stop  offset="0.619" style="stop-color:#FAFEE8"/>
	<stop  offset="0.838" style="stop-color:#FEFFF9"/>
	<stop  offset="1" style="stop-color:#FFFFFF"/>
</linearGradient>
<circle style="fill:url(#SVGID_21_);" cx="183.446" cy="293.808" r="24.011"/>
<linearGradient id="SVGID_22_" gradientUnits="userSpaceOnUse" x1="222.9284" y1="252.0331" x2="222.9284" y2="290.0531" gradientTransform="matrix(1.0039 0 0 -1.0039 0.1922 516.5611)">
	<stop  offset="0" style="stop-color:#E8FC95"/>
	<stop  offset="0.09" style="stop-color:#EBFCA4"/>
	<stop  offset="0.366" style="stop-color:#F4FECB"/>
	<stop  offset="0.619" style="stop-color:#FAFEE8"/>
	<stop  offset="0.838" style="stop-color:#FEFFF9"/>
	<stop  offset="1" style="stop-color:#FFFFFF"/>
</linearGradient>
<circle style="fill:url(#SVGID_22_);" cx="223.995" cy="256.894" r="9.801"/>
<linearGradient id="SVGID_23_" gradientUnits="userSpaceOnUse" x1="196.6984" y1="275.6631" x2="196.6984" y2="339.7931" gradientTransform="matrix(1.0039 0 0 -1.0039 0.1922 516.5611)">
	<stop  offset="0" style="stop-color:#E8FC95"/>
	<stop  offset="0.09" style="stop-color:#EBFCA4"/>
	<stop  offset="0.366" style="stop-color:#F4FECB"/>
	<stop  offset="0.619" style="stop-color:#FAFEE8"/>
	<stop  offset="0.838" style="stop-color:#FEFFF9"/>
	<stop  offset="1" style="stop-color:#FFFFFF"/>
</linearGradient>
<circle style="fill:url(#SVGID_23_);" cx="197.662" cy="228.603" r="16.533"/>
<g>
</g>
<g>
</g>
<g>
</g>
<g>
</g>
<g>
</g>
<g>
</g>
<g>
</g>
<g>
</g>
<g>
</g>
<g>
</g>
<g>
</g>
<g>
</g>
<g>
</g>
<g>
</g>
<g>
</g>
</svg>
