<?xml version="1.0" encoding="iso-8859-1"?>
<!-- Generator: Adobe Illustrator 19.0.0, SVG Export Plug-In . SVG Version: 6.00 Build 0)  -->
<svg version="1.1" id="Capa_1" xmlns="http://www.w3.org/2000/svg" xmlns:xlink="http://www.w3.org/1999/xlink" x="0px" y="0px"
	 viewBox="0 0 511.999 511.999" style="enable-background:new 0 0 511.999 511.999;" xml:space="preserve">
<linearGradient id="SVGID_1_" gradientUnits="userSpaceOnUse" x1="122.9879" y1="469.5168" x2="137.6292" y2="469.5168" gradientTransform="matrix(1.0039 0 0 -1.0039 0.1922 516.5597)">
	<stop  offset="0" style="stop-color:#EFFBFF"/>
	<stop  offset="0.279" style="stop-color:#E3F3FB"/>
	<stop  offset="0.787" style="stop-color:#C2DFF1"/>
	<stop  offset="1" style="stop-color:#B2D5EC"/>
</linearGradient>
<path style="fill:url(#SVGID_1_);" d="M129.969,86.795c-4.656-31.333-5.981-69.818-6.306-82.479
	c-0.06-2.346,1.807-4.282,4.154-4.316l0,0c2.31-0.033,4.217,1.79,4.276,4.1c0.317,12.476,1.625,50.595,6.221,81.485
	c0.338,2.276-1.225,4.394-3.497,4.763l0,0C132.492,90.725,130.316,89.126,129.969,86.795z"/>
<linearGradient id="SVGID_2_" gradientUnits="userSpaceOnUse" x1="386.6287" y1="469.5168" x2="371.9875" y2="469.5168" gradientTransform="matrix(1.0039 0 0 -1.0039 0.1922 516.5597)">
	<stop  offset="0" style="stop-color:#EFFBFF"/>
	<stop  offset="0.279" style="stop-color:#E3F3FB"/>
	<stop  offset="0.787" style="stop-color:#C2DFF1"/>
	<stop  offset="1" style="stop-color:#B2D5EC"/>
</linearGradient>
<path style="fill:url(#SVGID_2_);" d="M382.03,86.795c4.655-31.333,5.981-69.818,6.306-82.479c0.06-2.346-1.807-4.282-4.154-4.316
	l0,0c-2.31-0.033-4.217,1.79-4.276,4.1c-0.317,12.476-1.625,50.595-6.221,81.485c-0.338,2.276,1.225,4.394,3.497,4.763l0,0
	C379.507,90.725,381.684,89.126,382.03,86.795z"/>
<linearGradient id="SVGID_3_" gradientUnits="userSpaceOnUse" x1="154.7483" y1="222.4277" x2="483.0383" y2="222.4277" gradientTransform="matrix(1.0039 0 0 -1.0039 0.1922 516.5597)">
	<stop  offset="0" style="stop-color:#EFFBFF"/>
	<stop  offset="0.279" style="stop-color:#E3F3FB"/>
	<stop  offset="0.787" style="stop-color:#C2DFF1"/>
	<stop  offset="1" style="stop-color:#B2D5EC"/>
</linearGradient>
<path style="fill:url(#SVGID_3_);" d="M341.838,236.459c24.318-60.795,36.891-128.324,41.145-154.339
	c0.789-4.825-3.786-8.76-8.447-7.284c-55.542,17.593-181.53,17.593-237.072,0c-4.661-1.477-9.236,2.46-8.447,7.284
	c4.254,26.015,16.827,93.543,41.145,154.339c13.734,32.618,10.3,61.803-10.3,82.405c-20.601,20.601-20.601,68.67-20.601,68.67
	s63.52,18.885,90.988,108.155c0,0,8.584,16.309,25.752,16.309s25.752-16.309,25.752-16.309
	c27.468-89.272,90.988-108.155,90.988-108.155s0-48.07-20.601-68.67C331.537,298.263,328.103,269.078,341.838,236.459z"/>
<linearGradient id="SVGID_4_" gradientUnits="userSpaceOnUse" x1="355.0099" y1="320.744" x2="189.1099" y2="486.648" gradientTransform="matrix(1.0039 0 0 -1.0039 0.1922 516.5597)">
	<stop  offset="0" style="stop-color:#B2D5EC;stop-opacity:0"/>
	<stop  offset="1" style="stop-color:#7797B0"/>
</linearGradient>
<path style="fill:url(#SVGID_4_);" d="M301.998,86.472c-29.576,2.061-61.962,2.075-91.567,0.034
	c-0.127,1.263-0.194,2.563-0.194,3.897c0,7.706,2.058,14.414,6.898,17.97l125.657,125.657c10.753-27.307,19.16-55.823,25.527-81.237
	L301.998,86.472z"/>
<path style="fill:#00FFF4;" d="M239.736,87.836V506.41c-6.325-4.71-9.493-10.722-9.493-10.722
	c-6.216-20.203-14.288-36.804-23.034-50.405V86.281C217.75,87.065,228.677,87.583,239.736,87.836z"/>
<path style="fill:#FFA981;" d="M304.79,86.281v359.001c-8.746,13.601-16.818,30.202-23.034,50.405c0,0-3.168,6.011-9.493,10.722
	V87.836C283.322,87.583,294.249,87.065,304.79,86.281z"/>
<path style="fill:#FEFFB3;" d="M272.263,87.836V506.41c-4.096,3.072-9.517,5.59-16.264,5.59s-12.168-2.518-16.264-5.59V87.836
	C250.542,88.089,261.457,88.089,272.263,87.836z"/>
<radialGradient id="SVGID_5_" cx="131.4083" cy="35.5424" r="116.04" gradientTransform="matrix(1.0039 0 0 -1.0039 0.1922 516.5597)" gradientUnits="userSpaceOnUse">
	<stop  offset="0" style="stop-color:#7797B0"/>
	<stop  offset="0.237" style="stop-color:#7C9CB5;stop-opacity:0.762"/>
	<stop  offset="0.51" style="stop-color:#89AAC2;stop-opacity:0.49"/>
	<stop  offset="0.799" style="stop-color:#9FC1D8;stop-opacity:0.201"/>
	<stop  offset="1" style="stop-color:#B2D5EC;stop-opacity:0"/>
</radialGradient>
<path style="fill:url(#SVGID_5_);" d="M159.861,318.864c-20.601,20.601-20.601,68.67-20.601,68.67s63.52,18.885,90.988,108.155
	c0,0,8.584,16.309,25.752,16.309c17.168,0,25.752-16.309,25.752-16.309c27.468-89.272,90.988-108.155,90.988-108.155
	s0-48.07-20.601-68.67c-10.955-10.955-17.055-24.337-18.3-39.373H178.162C176.916,294.527,170.816,307.909,159.861,318.864z"/>
<radialGradient id="SVGID_6_" cx="-1030.2089" cy="35.5424" r="116.04" gradientTransform="matrix(-1.0039 0 0 -1.0039 -654.3653 516.5597)" gradientUnits="userSpaceOnUse">
	<stop  offset="0" style="stop-color:#7797B0"/>
	<stop  offset="0.237" style="stop-color:#7C9CB5;stop-opacity:0.762"/>
	<stop  offset="0.51" style="stop-color:#89AAC2;stop-opacity:0.49"/>
	<stop  offset="0.799" style="stop-color:#9FC1D8;stop-opacity:0.201"/>
	<stop  offset="1" style="stop-color:#B2D5EC;stop-opacity:0"/>
</radialGradient>
<path style="fill:url(#SVGID_6_);" d="M352.138,318.864c20.601,20.601,20.601,68.67,20.601,68.67s-63.52,18.885-90.988,108.155
	c0,0-8.583,16.309-25.752,16.309c-17.168,0-25.752-16.309-25.752-16.309c-27.468-89.272-90.988-108.155-90.988-108.155
	s0-48.07,20.601-68.67c10.955-10.955,17.055-24.337,18.3-39.373h155.676C335.084,294.527,341.184,307.909,352.138,318.864z"/>
<linearGradient id="SVGID_7_" gradientUnits="userSpaceOnUse" x1="272.3696" y1="371.7037" x2="215.4496" y2="428.6137" gradientTransform="matrix(1.0039 0 0 -1.0039 0.1922 516.5597)">
	<stop  offset="0" style="stop-color:#00DBFF;stop-opacity:0"/>
	<stop  offset="1" style="stop-color:#279AFF"/>
</linearGradient>
<path style="fill:url(#SVGID_7_);" d="M239.736,87.836v43.141l-22.6-22.6c-4.843-3.554-6.903-10.264-6.903-17.974
	c0-1.337,0.072-2.626,0.193-3.891c2.181,0.157,4.385,0.289,6.602,0.422c1.373,0.072,2.747,0.145,4.144,0.217
	c3.409,0.181,6.843,0.325,10.3,0.446c1.373,0.048,2.747,0.096,4.12,0.133C236.977,87.763,238.351,87.799,239.736,87.836z"/>
<linearGradient id="SVGID_8_" gradientUnits="userSpaceOnUse" x1="327.9407" y1="331.0941" x2="240.7407" y2="457.4941" gradientTransform="matrix(1.0039 0 0 -1.0039 0.1922 516.5597)">
	<stop  offset="0" style="stop-color:#FFA981;stop-opacity:0"/>
	<stop  offset="1" style="stop-color:#B82934"/>
</linearGradient>
<path style="fill:url(#SVGID_8_);" d="M304.79,86.281V196.03l-32.527-32.527V87.836c1.169-0.024,2.325-0.06,3.494-0.096
	c0.422,0,0.855-0.012,1.277-0.036c1.144-0.024,2.289-0.06,3.433-0.108c1.831-0.06,3.65-0.133,5.469-0.217
	c5.421-0.229,10.782-0.53,16.059-0.904C302.935,86.414,303.863,86.354,304.79,86.281z"/>
<linearGradient id="SVGID_9_" gradientUnits="userSpaceOnUse" x1="315.5907" y1="330.7544" x2="190.7907" y2="484.3544" gradientTransform="matrix(1.0039 0 0 -1.0039 0.1922 516.5597)">
	<stop  offset="0" style="stop-color:#FFE000;stop-opacity:0"/>
	<stop  offset="1" style="stop-color:#FFAF00"/>
</linearGradient>
<path style="fill:url(#SVGID_9_);" d="M272.263,87.836v75.668l-32.527-32.527V87.836C250.542,88.089,261.457,88.089,272.263,87.836z
	"/>
<radialGradient id="SVGID_10_" cx="224.6483" cy="433.5494" r="33.27" gradientTransform="matrix(1.0039 0 0 -1.0039 0.1922 516.5597)" gradientUnits="userSpaceOnUse">
	<stop  offset="0" style="stop-color:#FEFFB3"/>
	<stop  offset="0.322" style="stop-color:#FEFEB1"/>
	<stop  offset="0.472" style="stop-color:#FEFBA9"/>
	<stop  offset="0.588" style="stop-color:#FEF59D"/>
	<stop  offset="0.684" style="stop-color:#FEED8A"/>
	<stop  offset="0.77" style="stop-color:#FEE272"/>
	<stop  offset="0.848" style="stop-color:#FFD555"/>
	<stop  offset="0.919" style="stop-color:#FFC532"/>
	<stop  offset="0.984" style="stop-color:#FFB40B"/>
	<stop  offset="1" style="stop-color:#FFAF00"/>
</radialGradient>
<path style="fill:url(#SVGID_10_);" d="M226.149,69.728c11.419,0,25.439,9.257,25.439,20.676s-14.02,20.676-25.439,20.676
	c-11.419,0-15.912-9.257-15.912-20.676S214.731,69.728,226.149,69.728z"/>
<radialGradient id="SVGID_11_" cx="1335.4412" cy="-403.8576" r="33.27" gradientTransform="matrix(-1.0039 0 0 -1.0039 1626.9563 -324.1343)" gradientUnits="userSpaceOnUse">
	<stop  offset="0" style="stop-color:#FEFFB3"/>
	<stop  offset="0.322" style="stop-color:#FEFEB1"/>
	<stop  offset="0.472" style="stop-color:#FEFBA9"/>
	<stop  offset="0.588" style="stop-color:#FEF59D"/>
	<stop  offset="0.684" style="stop-color:#FEED8A"/>
	<stop  offset="0.77" style="stop-color:#FEE272"/>
	<stop  offset="0.848" style="stop-color:#FFD555"/>
	<stop  offset="0.919" style="stop-color:#FFC532"/>
	<stop  offset="0.984" style="stop-color:#FFB40B"/>
	<stop  offset="1" style="stop-color:#FFAF00"/>
</radialGradient>
<path style="fill:url(#SVGID_11_);" d="M285.85,69.728c-11.419,0-25.439,9.257-25.439,20.676s14.02,20.676,25.439,20.676
	s15.912-9.257,15.912-20.676S297.269,69.728,285.85,69.728z"/>
<linearGradient id="SVGID_12_" gradientUnits="userSpaceOnUse" x1="281.7695" y1="407.3536" x2="252.5695" y2="436.5526" gradientTransform="matrix(1.0039 0 0 -1.0039 0.1922 516.5597)">
	<stop  offset="0" style="stop-color:#FFE000;stop-opacity:0"/>
	<stop  offset="1" style="stop-color:#FFAF00"/>
</linearGradient>
<path style="fill:url(#SVGID_12_);" d="M285.849,111.078c4.008,0,7.159-1.143,9.565-3.117l-29.548-29.547l0,0
	c-3.301,3.382-5.456,7.518-5.456,11.99C260.411,101.822,274.431,111.078,285.849,111.078z"/>
<radialGradient id="SVGID_13_" cx="250.9283" cy="431.2924" r="24.989" gradientTransform="matrix(1.0039 0 0 -1.0039 0.1922 516.5597)" gradientUnits="userSpaceOnUse">
	<stop  offset="0" style="stop-color:#FFE000"/>
	<stop  offset="0.354" style="stop-color:#FFDE00"/>
	<stop  offset="0.52" style="stop-color:#FED600"/>
	<stop  offset="0.647" style="stop-color:#FDCA00"/>
	<stop  offset="0.754" style="stop-color:#FBB700"/>
	<stop  offset="0.848" style="stop-color:#F89F00"/>
	<stop  offset="0.932" style="stop-color:#F58300"/>
	<stop  offset="1" style="stop-color:#F26500"/>
</radialGradient>
<circle style="fill:url(#SVGID_13_);" cx="256" cy="90.403" r="15.528"/>
<g>
</g>
<g>
</g>
<g>
</g>
<g>
</g>
<g>
</g>
<g>
</g>
<g>
</g>
<g>
</g>
<g>
</g>
<g>
</g>
<g>
</g>
<g>
</g>
<g>
</g>
<g>
</g>
<g>
</g>
</svg>
