<svg id="Layer_1" enable-background="new 0 0 495.982 495.982" height="512" viewBox="0 0 495.982 495.982" width="512" xmlns="http://www.w3.org/2000/svg"><path d="m344.642 412.522c-19.18 3.48-40.5 6.29-63.67 7.7v59.76h-65.96v-59.76c-23.17-1.41-44.49-4.22-63.67-7.7-24.47-4.44-36.16-32.69-21.95-53.11l57.25-82.26c-7.86-1.04-15.4-2.23-22.6-3.54-21.26-3.86-31.41-28.39-19.07-46.13l49.74-71.47c.123-.878 1.557.125-13.8-2.67-16.99-3.09-25.1-22.69-15.24-36.87l62.87-90.33c9.43-13.55 29.47-13.55 38.9 0l62.87 90.33c9.86 14.18 1.75 33.78-15.24 36.87-4.38.79-8.92 1.54-13.62 2.21l49.56 71.93c12.34 17.74 2.19 42.27-19.07 46.13-7.16 1.3-14.65 2.49-22.47 3.52l57.12 82.28c14.21 20.42 2.52 48.67-21.95 53.11z" fill="#cefd97"/><path d="m344.642 412.522c-63.48 11.518-128.77 11.708-193.3 0-14.49-2.63-24.51-13.62-27.3-26.38 56.408 7.827 114.079 6.635 170.6-3.62 24.47-4.44 36.16-32.69 21.95-53.11l-34.36-49.49c-39.414 2.885-79.259.773-118.19-6.31-10.96-1.99-18.96-9.47-22.45-18.69 53.583 8.784 107.574 8.272 160.35-1.31 21.26-3.86 31.41-28.39 19.07-46.13l-34.51-50.08c-35.51 3.663-71.209 2.198-105.59-4.06-11.11-2.02-18.43-11.11-19.39-21.12 36.976 4.85 75.77 4.295 115.55-2.88 16.99-3.09 25.1-22.69 15.24-36.87l-52.28-75.12c9.58-3.4 20.97-.46 27.41 8.79l62.87 90.33c9.86 14.18 1.75 33.78-15.24 36.87-4.38.79-8.92 1.54-13.62 2.21l49.56 71.93c12.34 17.74 2.19 42.27-19.07 46.13-7.16 1.3-14.65 2.49-22.47 3.52l57.12 82.28c14.21 20.42 2.52 48.67-21.95 53.11z" fill="#b5f26d"/><path d="m280.972 420.222v59.76h-65.96v-59.76c21.393 1.31 43.358 1.384 65.96 0z" fill="#e0b7a3"/><path d="m280.972 420.222v20c-21.44 1.312-43.404 1.381-65.96 0v-20c21.439 1.313 43.404 1.381 65.96 0z" fill="#c79a83"/><path d="m379.726 350.277-18.282-26.271c-5.047-7.252-15.018-9.041-22.272-3.993-7.253 5.048-9.041 15.019-3.993 22.272l18.282 26.27c7.572 10.88 1.364 25.86-11.681 28.227-61.221 11.112-124.777 11.398-187.576 0-13.041-2.367-19.254-17.345-11.681-28.227l51.755-74.369c47.05 5.228 94.264 3.566 140.518-4.829 32.723-5.939 48.331-43.734 29.346-71.013l-15.88-22.819c-5.047-7.252-15.019-9.041-22.272-3.993-7.253 5.047-9.041 15.019-3.994 22.272l15.88 22.819c5.681 8.164 1.015 19.468-8.795 21.249-53.705 9.747-108.678 9.71-162.179 0-9.786-1.776-14.491-13.065-8.795-21.249l44.473-63.906c39.423 4.599 78.082 3.128 115.347-3.636 28.451-5.164 42.02-38.026 25.514-61.743l-62.865-90.333c-15.779-22.674-49.391-22.671-65.168 0l-62.865 90.333c-14.255 20.483-6.212 48.389 15.745 58.634l-36.447 52.373c-18.496 26.577-4.201 63.265 27.14 70.541l-42.724 61.392c-20.862 29.979-3.687 71.472 32.231 77.991 16.693 3.03 33.574 5.294 50.518 6.79v28.924h-48.939c-8.836 0-16 7.163-16 16s7.164 16 16 16h195.848c8.836 0 16-7.163 16-16s-7.164-16-16-16h-48.939v-28.924c16.945-1.496 33.825-3.76 50.518-6.79 35.94-6.524 53.082-48.031 32.232-77.992zm-200.917-224.66 62.865-90.333c3.067-4.408 9.564-4.415 12.637 0l62.865 90.334c3.213 4.617.588 10.971-4.963 11.979-42.009 7.625-85.525 7.789-128.44 0-5.554-1.009-8.177-7.364-4.964-11.98zm86.168 338.365h-33.97v-27.022c11.434.351 22.144.363 33.97 0z"/></svg>