<svg id="Layer_1" enable-background="new 0 0 496.008 496.008" height="512" viewBox="0 0 496.008 496.008" width="512" xmlns="http://www.w3.org/2000/svg"><path d="m440.964 231.864c-27.334-80.154-51.578-151.263-51.537-151.144-2.76-8.094-11.397-12.587-19.609-10.201l-113.118 32.871c-8.212 2.386-13.096 10.808-11.088 19.12 15.396 63.756 7.477 30.954 37.473 155.224 11.02 45.62 57.89 72.8 102.95 59.71 45.069-13.1 70.069-61.16 54.929-105.58z" fill="#b7fff9"/><path d="m126.191 20.269c-8.212-2.386-16.849 2.107-19.609 10.201-44.61 130.847-34.004 99.744-51.538 151.144-15.14 44.41 9.86 92.48 54.93 105.57 45.06 13.1 91.93-14.09 102.95-59.7 21.744-90.097 37.537-155.488 37.473-155.225 2.007-8.312-2.877-16.734-11.088-19.12z" fill="#b7fff9"/><path d="m227.554 166.864-14.63 60.62c-11.02 45.61-57.89 72.8-102.95 59.7-45.07-13.09-70.07-61.16-54.93-105.57l13.55-39.72c14.475 13.943 33.251 22.044 52.41 24.11 19.76 2.14 24.92-4.05 48-6 13.63-1.15 33.53-.82 58.55 6.86z" fill="#ffe773"/><path d="m250.394 72.264-1.87 7.75-102.33-29.75c-8.22-2.38-16.85 2.11-19.61 10.21-44.597 130.798-34.006 99.74-51.54 151.14-6.49 19.05-5.6 38.78 1.09 56.12-22.4-21.39-31.81-54.67-21.09-86.12 17.143-50.253 6.128-17.952 51.54-151.14 2.76-8.1 11.39-12.59 19.61-10.21l113.11 32.88c8.22 2.38 13.1 10.8 11.09 19.12z" fill="#cefffb"/><path d="m75.044 211.614c-6.49 19.05-5.6 38.78 1.09 56.12-22.4-21.39-31.81-54.67-21.09-86.12l13.55-39.72c6.919 6.666 15.162 12.333 24.58 16.57-5.924 17.372-2.016 5.914-18.13 53.15z" fill="#ffec8f"/><path d="m347.674 339.274c-30.65-5.86-56.74-29.01-64.59-61.54-29.976-124.188-22.097-91.549-37.47-155.22-2.01-8.32 2.87-16.74 11.09-19.12l113.11-32.88c8.22-2.38 16.85 2.11 19.61 10.21l4.88 14.3-97.6 28.37c-8.22 2.38-13.1 10.8-11.09 19.12 15.394 63.756 7.474 30.949 37.47 155.22 4.02 16.66 12.83 30.87 24.59 41.54z" fill="#cefffb"/><path d="m440.964 231.864c15.14 44.42-9.86 92.48-54.93 105.58-45.06 13.09-91.93-14.09-102.95-59.71l-25.4-105.23c27.867-6.152 52.936-10.551 79.32-.5 12.22 4.66 17.05 9.51 31 13 22.08 5.52 42.21 1.45 55.96-2.99z" fill="#ffe773"/><path d="m347.674 339.274c-30.65-5.86-56.74-29.01-64.59-61.54l-25.4-105.23c10.431-2.303 23.204-4.848 33.76-5.85 1.461 6.052 30.316 125.596 31.64 131.08 4.02 16.66 12.83 30.87 24.59 41.54z" fill="#ffec8f"/><path d="m490.163 445.494c-2.465-8.486-11.348-13.365-19.828-10.9l-36.341 10.559-28.487-98.046c43.541-20.673 67.176-71.796 50.601-120.406-1.65-4.84-52.302-153.398-56.465-165.606-2.759-8.094-11.401-12.586-19.607-10.201l-116.168 33.752 5.672-23.49c2.008-8.313-2.877-16.734-11.089-19.12l-142.478-41.396c-8.211-2.388-16.849 2.108-19.607 10.201l-56.465 165.606c-16.569 48.593 7.046 99.726 50.601 120.406l-28.487 98.046-36.342-10.559c-8.486-2.464-17.362 2.415-19.828 10.9s2.414 17.363 10.9 19.829l103.41 30.046c8.486 2.465 17.363-2.416 19.828-10.9 2.466-8.486-2.414-17.363-10.9-19.829l-36.34-10.559 28.489-98.054c47.729 5.863 95.161-24.502 107.241-74.537l13.464-55.763 25.598 106.017c12.005 49.723 59.189 80.44 107.241 74.537l28.489 98.054-36.34 10.559c-8.486 2.466-13.366 11.343-10.9 19.829 2.468 8.497 11.355 13.363 19.828 10.9l103.41-30.046c8.486-2.466 13.366-11.343 10.9-19.829zm-86.991-274.89c-30.931 4.819-44.996-7.311-60.182-13.437-21.302-8.594-45.987-9.939-73.531-4.045l-8.298-34.366 113.126-32.868zm-281.451-134.971 113.126 32.868-19.027 78.803c-70.364-14.94-83.639 20.848-128.5-10.778zm75.647 188.092c-4.292 17.772-15.365 32.611-31.182 41.784-53.156 30.83-115.607-21.227-95.998-78.735l6.487-19.025c13.823 8.263 28.25 13.038 43.073 14.206 29.85 2.354 43.882-12.736 88.557-3.525zm101.273 50.254-21.666-89.729c60.094-12.513 60.218 19.427 112.978 19.424 7.746 0 15.645-.818 23.665-2.434l12.202 35.787c12.245 35.913-7.99 74.514-44.247 85.049-36.282 10.545-74.032-11.244-82.932-48.097z"/></svg>