<svg id="Layer_1" enable-background="new 0 0 496.058 496.058" height="512" viewBox="0 0 496.058 496.058" width="512" xmlns="http://www.w3.org/2000/svg"><path d="m248.058 16c128.13 0 232 103.87 232 232s-103.87 232-232 232-232-103.87-232-232 103.87-232 232-232z" fill="#fe4f60"/><path d="m480.058 248c0 128.13-103.87 232-232 232-69.16 0-131.25-30.26-173.74-78.26 40.94 36.25 94.77 58.26 153.74 58.26 128.13 0 232-103.87 232-232 0-58.97-22.01-112.8-58.26-153.74 48 42.49 78.26 104.58 78.26 173.74z" fill="#e84857"/><path d="m441.167 119.39c-36.81-24.57-81.04-38.89-128.61-38.89-186.232 0-294.9 208.112-193.11 360.61-62.329-41.59-103.389-112.55-103.389-193.11 0-128.13 103.87-232 232-232 80.56 0 151.52 41.06 193.109 103.39z" fill="#ff6d7a"/><circle cx="248.058" cy="248" fill="#f1fafc" r="169"/><path d="m282.258 82.46c-103.9 13.55-186.19 95.84-199.74 199.74-24.37-118.52 80.302-224.298 199.74-199.74z" fill="#c9edf2"/><path d="m248.058 0c-66.244 0-128.522 25.796-175.363 72.638-96.923 96.923-96.931 253.794 0 350.725 96.921 96.922 253.794 96.932 350.725 0 46.841-46.841 72.638-109.119 72.638-175.362 0-137.07-110.919-248.001-248-248.001zm0 464c-119.103 0-216-96.897-216-216s96.897-216 216-216 216 96.897 216 216-96.898 216-216 216zm0-401c-102.01 0-185 82.991-185 185s82.99 185 185 185 185-82.991 185-185-82.991-185-185-185zm16 337.165v-14.165c0-8.836-7.163-16-16-16s-16 7.164-16 16v14.165c-71.613-7.476-128.69-64.552-136.165-136.165h14.165c8.837 0 16-7.164 16-16s-7.163-16-16-16h-14.165c7.476-71.613 64.552-128.689 136.165-136.165v14.165c0 8.836 7.163 16 16 16s16-7.164 16-16v-14.165c71.612 7.476 128.689 64.552 136.165 136.165h-14.165c-8.837 0-16 7.164-16 16s7.163 16 16 16h14.165c-7.476 71.613-64.553 128.689-136.165 136.165zm0-222.165v70c0 14.283-17.32 21.31-27.313 11.313l-78.5-78.5c-6.249-6.248-6.249-16.379 0-22.627 6.248-6.249 16.379-6.249 22.627 0l51.187 51.186v-31.372c0-8.836 7.163-16 16-16s15.999 7.164 15.999 16z"/></svg>