<svg id="Layer_1" enable-background="new 0 0 501.01 501.01" height="512" viewBox="0 0 501.01 501.01" width="512" xmlns="http://www.w3.org/2000/svg"><path d="m407.292 383.58c-13.287-22.643-20.76-48.906-20.76-76.45 0-96.532.04-92.12-.06-92.12 0-54.447-31.324-85.835-31.48-87.08 9.227 0 22.45-9.121 22.45-24.26v-63.32c0-17.01-17.02-28.77-32.93-22.74l-62.214 23.563c-2.953 1.118-5.166 3.911-5.166 7.717 0-13.25-10.75-24-24-24h-5.2c-13.25 0-24 10.75-24 24 0-3.821-2.23-6.605-5.166-7.717l-62.214-23.563c-15.91-6.03-32.93 5.73-32.93 22.74v63.32c0 13.23 10.31 23.29 22.38 24.26-.176 1.408-31.47 32.426-31.47 87.08v92.12c0 26.517-7.036 53.154-20.88 76.65-12.54 21.34 2.82 48.23 27.58 48.23h76.3c0 29.27 23.73 53 53 53s53-23.73 53-53h76.35c24.85 0 39.99-26.99 27.41-48.43z" fill="#ffe773"/><path d="m344.512 17.61-62.214 23.563c-2.953 1.118-5.166 3.911-5.166 7.717 0-13.25-10.75-24-24-24h-5.2c-13.25 0-24 10.75-24 24 0-3.821-2.23-6.605-5.166-7.717l-62.214-23.563c-15.91-6.03-32.93 5.73-32.93 22.74v63.32c0 13.23 10.31 23.29 22.38 24.26 7.171.585 5.054.562 72.764-25.083 2.953-1.118 5.166-3.911 5.166-7.717 0 13.25 10.75 24 24 24h5.2c13.25 0 24-10.75 24-24 0 3.821 2.23 6.605 5.166 7.717 67.716 25.647 65.56 25.648 72.694 25.083 12.1-.93 22.45-11 22.45-24.26v-63.32c0-17.011-17.02-28.77-32.93-22.74z" fill="#fe929f"/><path d="m277.132 48.89v46.24c0 13.25-10.75 24-24 24h-5.2c-13.25 0-24-10.75-24-24v-46.24c0-13.25 10.75-24 24-24h5.2c13.25 0 24 10.75 24 24z" fill="#ffa4b8"/><path d="m197.532 432.01c0 29.27 23.73 53 53 53s53-23.73 53-53z" fill="#fadf5a"/><path d="m210.542 105.96c-21.97 15.53-48.33 40.96-60.01 78.97-7.655 24.908-6 33.134-6 132.2 0 26.517-7.036 53.154-20.88 76.65-7.74 13.17-4.85 28.46 4.32 38.23h-6.74c-24.76 0-40.12-26.89-27.58-48.23 13.16-22.335 20.88-48.787 20.88-76.65v-92.12c0-54.447 31.313-85.825 31.47-87.08 7.171.585 5.657.333 64.54-21.97z" fill="#ffec8f"/><path d="m290.522 105.96c40.843 28.871 65.844 69.685 66.01 119.05v92.12c0 26.517 7.036 53.154 20.88 76.65 7.74 13.17 4.85 28.46-4.32 38.23h6.74c24.76 0 40.12-26.89 27.58-48.23-13.16-22.335-20.88-48.787-20.88-76.65v-92.12c0-54.447-31.313-85.825-31.47-87.08-7.171.585-5.657.333-64.54-21.97z" fill="#fadf5a"/><path d="m407.292 383.58c12.58 21.44-2.56 48.43-27.41 48.43-9.623 0-245.919 0-258.65 0-24.76 0-40.12-26.89-27.58-48.23 4.16-7.06 7.73-14.45 10.67-22.06h292.41c2.93 7.58 6.47 14.89 10.56 21.86z" fill="#fff9cc"/><path d="m403.392 421.699c-10.723 11.696-23.048 10.31-30.3 10.31 9.17-9.77 12.06-25.06 4.32-38.23-5.921-10.049-10.655-20.769-14.14-32.06h33.46c2.974 7.633 6.338 14.646 10.56 21.86 12.403 21.128-3.9 38.02-3.9 38.12z" fill="#fff6b5"/><path d="m123.652 393.78c-7.74 13.17-4.85 28.46 4.32 38.23h-6.74c-24.76 0-40.12-26.89-27.58-48.23 4.16-7.06 7.73-14.45 10.67-22.06h33.47c-3.482 11.282-8.214 22.003-14.14 32.06z" fill="#fffbde"/><path d="m223.932 48.65v8.04l-50.38-19.08c-15.91-6.03-32.93 5.73-32.93 22.74 0 69.049-.094 64.362.22 66.58-9.71-2.99-17.22-11.97-17.22-23.26v-63.32c0-17.01 17.02-28.77 32.93-22.74l62.21 23.56c3.11 1.179 5.17 4.16 5.17 7.48z" fill="#ffa4b8"/><path d="m275.652 40.599c-7.56-6.423-14.984-5.71-20.72-5.71-13.25 0-24 10.75-24 24 0 50.103-.496 49.2 1.48 54.53-5.19-4.39-8.48-10.96-8.48-18.29v-46.239c0-13.25 10.75-24 24-24h5.2c10.34 0 19.15 6.54 22.52 15.709z" fill="#ffbfcd"/><path d="m376.512 33.67c-6.19-8.16-17.34-12.1-28-8.06l-71.38 27.21c0-3.543-.793-9.388 5.17-11.65l62.21-23.56c13.72-5.201 28.27 2.83 32 16.06z" fill="#ffa4b8"/><path d="m421.093 375.479c-12.144-20.694-18.562-44.329-18.562-68.35 0-99.364 1.611-108.694-6.177-135.132-2.497-8.477-11.392-13.325-19.868-10.828-8.477 2.497-13.324 11.392-10.827 19.869 6.304 21.407 4.872 27.18 4.872 126.091 0 29.71 7.94 58.945 22.962 84.545 6.354 10.828-1.175 24.336-13.616 24.336h-258.65c-12.387 0-20.058-13.439-13.778-24.12 2.71-4.61 5.182-9.341 7.428-14.167h207.655c8.837 0 16-7.164 16-16s-7.163-16-16-16h-196.525c5.836-24.574 4.525-32.252 4.525-130.713 0-25.785 8.356-50.926 23.641-71.517 5.668-.887 3.042-.224 62.932-22.909 7.343 8.877 18.437 14.542 30.83 14.542h5.195c12.393 0 23.487-5.666 30.83-14.542l54.883 20.789c26.358 9.986 54.601-9.527 54.601-37.704v-63.319c0-28.181-28.247-47.686-54.601-37.704l-54.883 20.789c-7.343-8.877-18.437-14.542-30.83-14.542h-5.195c-12.393 0-23.487 5.666-30.83 14.542l-54.884-20.789c-26.357-9.985-54.601 9.527-54.601 37.704v63.318c0 11.848 5.218 23.01 14.116 30.623-15.064 24.058-23.205 52.077-23.205 80.718v92.119c0 24.065-6.456 47.768-18.669 68.544-18.811 31.998 4.197 72.337 41.364 72.337h62.198c7.237 30.354 34.569 53 67.107 53s59.87-22.646 67.107-53h62.239c37.158.001 60.104-40.341 41.216-72.53zm-70.915-342.908c5.454-2.064 11.265 1.941 11.265 7.779v63.318c0 5.829-5.806 9.847-11.265 7.779l-57.048-21.608v-35.659zm-102.244 8.322h5.195c4.411 0 8 3.589 8 8v46.233c0 4.411-3.589 8-8 8h-5.195c-4.411 0-8-3.589-8-8v-46.233c0-4.411 3.589-8 8-8zm-108.313-.543c0-5.797 5.769-9.862 11.265-7.779l57.049 21.609v35.658l-57.049 21.609c-5.453 2.064-11.265-1.941-11.265-7.779zm77.553 407.66h66.716c-13.459 27.948-53.25 27.962-66.716 0z"/></svg>