<svg id="Layer_1" enable-background="new 0 0 496 496" height="512" viewBox="0 0 496 496" width="512" xmlns="http://www.w3.org/2000/svg"><path d="m443 143v161c0 8.837-7.163 16-16 16-8.489 0-299.475 0-297 0-19.882 0-36-16.118-36-36v-30c0-8.837 7.163-16 16-16h123.381c4.17 0 7.576-3.218 7.949-7.371 3.644-40.51 35.717-72.786 76.281-76.31 4.159-.361 7.389-3.767 7.389-7.942v-23.377c0-8.837 7.163-16 16-16h66c19.882 0 36 16.118 36 36z" fill="#fe4f60"/><path d="m442.5 137h-61.5c-8.84 0-16 7.16-16 16v23.38c0 4.17-3.23 7.58-7.39 7.94-40.56 3.52-72.64 35.8-76.28 76.31-.37 4.15-3.78 7.37-7.95 7.37h-123.38c-8.84 0-16 7.16-16 16 0 32.514-.167 32.062.5 36h-4.5c-19.88 0-36-16.12-36-36v-30c0-8.84 7.16-16 16-16h123.38c4.17 0 7.58-3.22 7.95-7.37 3.64-40.51 35.72-72.79 76.28-76.31 4.16-.36 7.39-3.77 7.39-7.94v-23.38c0-8.84 7.16-16 16-16h66c17.83 0 32.64 12.97 35.5 30z" fill="#ff6d7a"/><path d="m480 373h-48.052l-9.384-37h20.436c8.837 0 16-7.164 16-16v-177c0-28.673-23.327-52-52-52h-82c-8.837 0-16 7.164-16 16v32.279c-42.35 6.84-75.882 40.372-82.721 82.721h-132.279c-8.837 0-16 7.164-16 16v46c0 28.673 23.327 52 52 52h4.436l-9.384 37c-53.651 0-93.052-42.736-93.052-92 0-8.836-7.163-16-16-16s-16 7.164-16 16c0 68.374 55.626 124 124 124h356c8.837 0 16-7.164 16-16s-7.163-16-16-16zm-81.064 0h-96.936v-37h87.552zm-288.936-89v-30h131c8.837 0 16-7.164 16-16 0-37.495 30.505-68 68-68 8.837 0 16-7.164 16-16v-31h66c11.028 0 20 8.972 20 20v161h-297c-11.028 0-20-8.972-20-20zm57.448 52h102.552v37h-111.936z"/></svg>