<svg id="Layer_1" enable-background="new 0 0 496 496" height="512" viewBox="0 0 496 496" width="512" xmlns="http://www.w3.org/2000/svg"><path d="m438.338 131.158-42.998-26.648v-72.51c0-8.836-7.163-16-16-16h-262.68c-8.837 0-16 7.164-16 16v72.51l-42.998 26.648c-4.708 2.917-7.572 8.062-7.572 13.6v300.062c0 19.39 15.705 35.18 35.18 35.18h325.46c19.468 0 35.18-15.785 35.18-35.18 0-9.728 0-279.221 0-300.062 0-5.539-2.864-10.683-7.572-13.6z" fill="#fe929f"/><path d="m50.09 444.82v-195.72c70.86 31.499 191.918 85.297 191.412 85.072 4.137 1.838 8.859 1.838 12.996 0 164.277-73.007 125.279-55.674 191.412-85.072v195.72c0 19.39-15.705 35.18-35.18 35.18h-325.46c-19.469 0-35.18-15.784-35.18-35.18z" fill="#ffe773"/><path d="m395.34 271.58-140.842 62.592c-4.137 1.838-8.859 1.838-12.996 0l-140.842-62.592c0-9.363 0-245.699 0-239.58 0-8.837 7.163-16 16-16h262.68c8.837 0 16 7.163 16 16z" fill="#e8f8fc"/><path d="m312.31 202.8c-33.655-48.36-31.22-44.762-31.28-45.15 3.38-.48 6.63-1.02 9.74-1.6 10.01-1.87 14.76-13.42 8.95-21.77l-39.65-56.97c-5.85-8.41-18.29-8.41-24.14 0l-39.65 56.97c-5.81 8.35-1.06 19.9 8.95 21.77 10.513 1.96 9.786 1.301 9.7 1.86l-31.24 44.89c-7.49 10.76-1.32 25.63 11.58 28 34.893 6.396 70.521 6.404 105.46 0 12.9-2.37 19.07-17.24 11.58-28z" fill="#cefd97"/><path d="m300.73 230.8c-34.886 6.395-70.521 6.405-105.46 0-9.02-1.66-14.75-9.42-14.82-17.63 29.28 3.807 59.721 3.232 90.28-2.37 12.9-2.37 19.07-17.24 11.58-28l-16.35-23.49c-19.754 1.522-40.247.56-60.73-3.26-8.3-1.55-12.98-9.75-11.03-17.26 22.361 2.257 44.622 1.353 66.57-2.74 10.01-1.87 14.76-13.42 8.95-21.77l-28.84-41.44c6.29-3.49 14.69-2 19.19 4.47l39.65 56.97c5.81 8.35 1.06 19.9-8.95 21.77-3.11.58-6.36 1.12-9.74 1.6.06.391-2.361-3.19 31.28 45.15 7.49 10.76 1.32 25.63-11.58 28z" fill="#b5f26d"/><path d="m100.66 104.51v29.02l-22 13.63c-4.71 2.91-7.57 8.06-7.57 13.6v97.68l-21-9.34v-104.34c0-5.54 2.86-10.69 7.57-13.6z" fill="#ffa4b8"/><path d="m411.34 114.43v150.04l-16 7.11v-167.07z" fill="#fe7a8a"/><path d="m395.34 32v4h-258.68c-8.84 0-16 7.16-16 16v228.47l-20-8.89v-239.58c0-8.84 7.16-16 16-16h262.68c8.84 0 16 7.16 16 16z" fill="#f1fafc"/><path d="m83.88 479.97c-18.929-.736-33.79-16.313-33.79-35.15v-195.72l21 9.34v194.38c0 10.91 4.97 20.66 12.76 27.12.01.01.02.02.03.03z" fill="#ffec8f"/><g fill="#fadf5a"><path d="m183.96 414.36-103.58 65.3c-12.322-1.717-22.489-9.753-27.29-20.61l113.81-71.75c7.47-4.72 17.35-2.48 22.06 5 4.72 7.47 2.48 17.35-5 22.06z"/><path d="m445.91 249.1v195.72c0 19.39-15.705 35.18-35.18 35.18h-30c19.468 0 35.18-15.785 35.18-35.18v-182.38z"/><path d="m442.93 459.01c-6.783 15.398-22.252 20.65-27.27 20.65l-103.62-65.29c-7.48-4.71-9.72-14.59-5.01-22.07s14.59-9.72 22.07-5.01z"/></g><path d="m82.22 478.5-1.83 1.15c-10.277-.987-21.899-8.448-27.3-20.6l18-11.35c0 5.655-1.138 19.302 11.13 30.8z" fill="#ffe773"/><path d="m442.93 459.01c-6.522 14.842-19.893 18.648-20.12 18.87-2.646.921-6.16 1.78-7.16 1.78l-12.39-7.81c7.73-6.46 12.65-16.17 12.65-27.03v-2.83z" fill="#fadb41"/><path d="m192.38 246.532c13.062 2.4 26.332 3.939 39.62 4.634v26.834c0 8.836 7.164 16 16 16s16-7.164 16-16v-26.834c13.288-.694 26.558-2.234 39.619-4.634 24.363-4.476 35.933-32.593 21.819-52.873l-19.11-27.46c12.685-9.593 15.849-27.663 6.525-41.06l-39.647-56.972c-12.207-17.539-38.208-17.538-50.412 0l-39.647 56.971c-9.302 13.366-6.191 31.443 6.525 41.06l-19.11 27.459c-14.123 20.296-2.529 48.401 21.818 52.875zm107.002-32.713c-.426 1.034-1.268 1.188-1.545 1.24-32.526 5.976-66.31 6.13-99.673 0-1.474-.27-2.192-1.889-1.335-3.121l25.913-37.236c17.03 1.735 33.469 1.737 50.518 0 28.372 40.771 26.706 37.698 26.122 39.117zm-51.382-125.85 36.808 52.891c-24.279 4.174-49.334 4.174-73.615 0zm206.341 34.278-43.005-26.644v-79.603c0-8.836-7.164-16-16-16h-294.672c-8.836 0-16 7.164-16 16v79.603l-43.005 26.644c-4.708 2.917-7.573 8.062-7.573 13.601v308.972c0 28.022 22.777 51.18 51.18 51.18h325.47c28.372 0 51.18-23.131 51.18-51.18 0-12.516 0-301.178 0-308.972-.001-5.539-2.866-10.684-7.575-13.601zm-125.228 265.059c-7.472-4.717-17.354-2.486-22.072 4.984-4.719 7.471-2.487 17.353 4.984 22.072l78.593 49.638h-285.236l78.593-49.638c7.471-4.719 9.703-14.601 4.984-22.072-4.719-7.47-14.6-9.703-22.072-4.984l-99.958 63.132c-1.205-3.926-.843 8.375-.843-176.719 8.288 3.684 167.137 74.283 175.417 77.963 4.137 1.839 8.859 1.839 12.996 0 4.715-2.095 162.368-72.163 175.417-77.963 0 184.905.375 172.751-.843 176.719zm100.802-242.549v93.944l-18.578 8.257v-113.711zm-50.579-112.757v229.181l-131.336 58.371-131.336-58.372v-229.18zm-294.672 101.247v113.712l-18.578-8.257v-93.944z"/></svg>