<svg id="Layer_1" enable-background="new 0 0 496.009 496.009" height="512" viewBox="0 0 496.009 496.009" width="512" xmlns="http://www.w3.org/2000/svg"><path d="m476.134 315.116c-.411 6.541-5.419 11.964-11.96 12.88-33.826 4.562-68.826-4.071-97.17-27.98v42c0 65.569-53.144 119-119 119-65.816 0-119-53.391-119-119v-42c-25.793 21.758-58.244 31.234-87.89 28.91-9.441-.598-14.901-1.041-18.87-6.91-1.36-1.99-2.21-4.35-2.37-6.9-1.15-18.29.31-52.08 22.13-84.1 40.78-59.85 114.95-58.2 120-58 0 .1 172 .1 172 0 5.05-.2 79.22-1.85 120 58 21.82 32.02 23.28 65.81 22.13 84.1z" fill="#ffaa64"/><path d="m476.134 315.116c-.411 6.541-5.419 11.964-11.96 12.88-33.826 4.562-68.826-4.071-97.17-27.98v-93c0-18.45-14.68-33.46-33-33.99 0-.274 78.171-3.4 120 57.99 21.82 32.02 23.28 65.81 22.13 84.1z" fill="#ffbd7b"/><path d="m359.274 185.426c-14.194-1.134-185.27.026-185.27-.41-2.3-.09-19-.48-40.34 4.81-69.899 17.282-106.132 74.912-101.72 138.18-6.92-.952-11.668-6.547-12.068-12.889-1.153-18.292.304-52.078 22.128-84.101 40.78-59.85 114.95-58.2 120-58 0 .102 169.285-.071 172 .01 10.18.29 19.23 5.06 25.27 12.4z" fill="#ffbd7b"/><path d="m333.004 173.016c-1.849 0-159.692 0-170 0-18.826 0-34 15.252-34 34v135c0 65.569 53.144 119 119 119 65.816 0 119-53.391 119-119 0-6.472 0-128.184 0-135 0-18.749-15.175-34-34-34z" fill="#ffaa64"/><path d="m364.874 195.136c-3.783-1.402-7.744-2.12-11.87-2.12-.52 0-170.482-.006-171 .01-18.32.53-33 15.54-33 33.99v135c0 26.345 8.607 52.13 25.45 73.54-28.155-22.14-45.45-56.205-45.45-93.54v-135c0-18.635 15.067-34 34-34 .52 0 170.482-.006 171 .01 14.215.405 26.219 9.567 30.87 22.11z" fill="#ffbd7b"/><path d="m214.004 266.016c-8.836 0-16-7.163-16-16v-7c0-8.837 7.164-16 16-16s16 7.163 16 16v7c0 8.837-7.163 16-16 16z"/><path d="m282.004 266.016c-8.836 0-16-7.163-16-16v-7c0-8.837 7.164-16 16-16s16 7.163 16 16v7c0 8.837-7.163 16-16 16z"/><path d="m129.004 251.016v49c-26.517 22.368-59.544 31.918-93.22 28.46-3.975-.442-9.606-.642-13.54-6.46 15.675-46.702 56.178-77.601 106.76-71z" fill="#fe929f"/><path d="m282.004 337.016c0-18.78-15.22-34-34-34s-34 15.22-34 34c-30.858 14.206-53.781 41.055-62.99 73.95 47.488 66.708 146.479 66.725 193.98 0-9.195-32.845-32.086-59.723-62.99-73.95z" fill="#e8f8fc"/><circle cx="248.004" cy="337.016" fill="#fe4f60" r="34"/><path d="m129.004 251.016v9.18c-44.645-1.455-79.657 26.229-95.41 68.02-4.526-.541-8.395-1.83-11.35-6.2 15.675-46.702 56.178-77.601 106.76-71z" fill="#fe7a8a"/><path d="m387.004 197.016v116.8c-8.49-4.71-15.15-9.71-20-13.8v-93c0-18.45-14.68-33.46-33-33.99 0-.142 22.562-.839 48.47 7.03 2.88 4.99 4.53 10.79 4.53 16.96z" fill="#ffaa64"/><path d="m473.764 322.016c-2.15 3.17-5.59 5.42-9.59 5.98-33.877 4.569-68.881-4.117-97.17-27.98v-49c50.568-6.599 91.086 24.297 106.76 71z" fill="#fe929f"/><path d="m387.004 250.376v63.44c-6.251-3.421-13.676-8.45-20-13.8v-49c5.03-.66 11.94-1.19 20-.64z" fill="#fe7a8a"/><path d="m276.524 318.496c-22.395-14.581-52.52 1.426-52.52 28.52 0 6.83 2.01 13.19 5.48 18.52-9.32-6.06-15.48-16.57-15.48-28.52 0-33.821 44.177-46.731 62.52-18.52z" fill="#ff6d7a"/><path d="m174.454 435.556c-9.03-7.094-17.132-15.672-23.44-24.59.89-3.16 2.15-7.15 3.95-11.69 4.288 13.034 10.855 25.304 19.49 36.28z" fill="#f1fafc"/><path d="m230.004 243.016v7c0 8.837-7.164 16-16 16s-16-7.163-16-16v-7c0-8.837 7.164-16 16-16s16 7.163 16 16zm52-16c-8.836 0-16 7.163-16 16v7c0 8.837 7.164 16 16 16s16-7.163 16-16v-7c0-8.837-7.163-16-16-16zm67.734-80.666-1.868 11.053c92.379 6.889 154.919 77.879 143.007 170.635-1.011 7.085-6.047 12.178-12.529 13.624-33.496 6.972-65.26 3.645-95.344-11.842 0 15.485 2.265 51.085-24.017 88.965-.571 1.028-1.261 1.987-2.046 2.87-54.152 73.873-163.842 73.708-217.873 0-.785-.883-1.475-1.842-2.046-2.87-25.538-36.808-24.017-70.682-24.017-88.965-28.575 14.711-60.649 19.232-95.342 11.843-7.253-1.661-11.793-7.457-12.545-13.731-12.18-85.613 45.035-163.216 143.022-170.528l-1.868-11.054c-2.775-16.417-16.874-28.333-33.524-28.333-11.804 0-17.556 0-41.042 0-25.698 0-48.787-16.255-57.453-40.447l-13.312-37.158c-2.979-8.318 1.349-17.479 9.667-20.458s17.479 1.348 20.458 9.667l13.31 37.157c4.122 11.507 15.104 19.238 27.327 19.238h6.733l-11.94-47.065c-2.173-8.564 3.009-17.27 11.574-19.443 8.563-2.175 17.271 3.009 19.444 11.574l13.939 54.935c35.449 0 61.22 24.525 66.371 55l2.704 16h134.954l2.704-15.999c5.138-30.393 30.824-55.001 66.371-55.001l13.939-54.935c2.174-8.565 10.878-13.746 19.444-11.574 8.565 2.174 13.747 10.879 11.574 19.443l-11.942 47.065h6.733c12.223 0 23.205-7.731 27.327-19.238l13.31-37.157c2.98-8.319 12.14-12.647 20.458-9.667 8.319 2.979 12.647 12.14 9.667 20.458l-13.31 37.157c-8.666 24.192-31.754 40.447-57.453 40.447-18.161 0 31.522 0-41.042 0-16.65 0-30.749 11.916-33.524 28.334zm-3.695 227.253c6.529-20.217 4.961-19.491 4.961-166.587 0-9.925-8.075-18-18-18-261.058 0-39.845 0-170 0-9.925 0-18 8.075-18 18 0 148.267-1.514 146.538 4.961 166.587 12.128-19.989 29.018-35.99 49.134-46.984 4.799-22.596 24.9-39.603 48.905-39.603s44.106 17.007 48.905 39.603c20.119 10.996 37.008 26.998 49.134 46.984zm-98.039-54.587c-9.925 0-18 8.075-18 18s8.075 18 18 18 18-8.075 18-18-8.074-18-18-18zm-203.647-58.734c19.579-16.786 43.513-25.481 68.647-26.089 0-29.455-.306-30.972 1.092-37.561-34.685 11.703-57.972 34.844-69.739 63.65zm68.647 31.986v-26.062c-31.421 1.047-55.448 19.048-69.628 46.829 25.523 1.377 49.737-6.088 69.628-20.767zm214.166 115.565c-6.75-18.415-18.679-34.719-35.385-46.697-19.052 34.444-68.479 34.499-87.561 0-16.705 11.977-28.634 28.279-35.385 46.697 41.292 49.582 117.049 49.57 158.331 0zm125.463-94.798c-14.212-27.842-38.271-45.786-69.628-46.829v26.062c19.884 14.674 44.097 22.144 69.628 20.767zm-70.72-116.404c1.413 6.661 1.092 8.379 1.092 37.562 25.133.608 49.069 9.304 68.647 26.089-11.757-28.781-35.015-51.933-69.739-63.651z"/></svg>