<svg id="Layer_1" enable-background="new 0 0 495.905 495.905" height="512" viewBox="0 0 495.905 495.905" width="512" xmlns="http://www.w3.org/2000/svg"><path d="m378.273 154.59c76.67 73.22 78.15 195.15 3.19 270.11-73.73 73.73-193.27 73.73-267 0-74.95-74.94-73.53-196.86 3.13-270.05 37.647-36.055 69.96-75.996 97.07-120.09 15.24-24.8 51.4-24.72 66.65.07 27.025 43.948 59.723 84.431 96.96 119.96z" fill="#75f9fb"/><path d="m381.463 424.7c-94.659 94.659-254.813 63.125-307.12-59.19 62.089 107.524 209.381 126.929 297.12 39.19 56.29-56.29 69.48-139.08 40.08-207.83 41.59 72.07 31.8 165.95-30.08 227.83z" fill="#68eaea"/><path d="m289.623 47.76c-16.14-4.98-35.01.61-44.96 16.8-27.083 44.05-59.381 83.993-97.07 120.09-71.48 68.24-77.54 178.85-17.28 254.23-89.906-71.86-95.105-205.575-12.72-284.23 37.652-36.061 69.96-75.996 97.07-120.09 15.24-24.8 51.4-24.72 66.65.07 2.65 4.31 5.42 8.69 8.31 13.13z" fill="#aefcfe"/><path d="m389.323 143.019c-.101-.051-50.837-45.96-94.381-116.767-21.49-34.943-72.413-35.04-93.91-.074-25.536 41.535-57.077 81.181-94.49 116.898-83.237 79.475-84.764 211.571-3.396 292.938 79.842 79.843 209.771 79.863 289.63.003 81.348-81.346 79.832-213.46-3.453-292.998zm-19.174 270.371c-67.375 67.374-177 67.372-244.376-.003-68.66-68.661-67.357-180.116 2.868-247.166 38.31-36.581 71.856-78.075 99.651-123.283 9.005-14.647 30.35-14.627 39.393.077 27.779 45.171 61.335 86.671 99.539 123.147 70.197 67.039 71.647 178.506 2.925 247.228zm-200.747-204.467c-6.709 6.406-12.602 13.583-17.513 21.33-4.732 7.465-14.62 9.677-22.08 4.948-7.463-4.731-9.679-14.616-4.948-22.08 6.302-9.943 13.853-19.142 22.441-27.343 6.393-6.102 16.521-5.867 22.622.523 6.103 6.392 5.869 16.519-.522 22.622zm16.551 94.077c-8.836 0-16-7.164-16-16v-15c0-8.836 7.164-16 16-16s16 7.164 16 16v15c0 8.837-7.163 16-16 16zm140-31v15c0 8.836-7.163 16-16 16s-16-7.164-16-16v-15c0-8.836 7.163-16 16-16s16 7.164 16 16zm-16.492 78.447c5.511 6.908 4.378 16.975-2.53 22.486-34.106 27.207-83.13 27.782-117.956 0-6.908-5.511-8.04-15.578-2.53-22.486 5.511-6.908 15.577-8.04 22.486-2.53 23.551 18.788 56.117 17.491 78.044 0 6.91-5.51 16.977-4.378 22.486 2.53z"/></svg>