<svg id="Layer_1" enable-background="new 0 0 496.067 496.067" height="512" viewBox="0 0 496.067 496.067" width="512" xmlns="http://www.w3.org/2000/svg"><path d="m388.241 325.659-68.31-73.86c-13.67-14.79-21.26-34.18-21.26-54.32v-93.48c19.813 0 33-15.146 33-32v-24c0-17.67-14.33-32-32-32h-185c-17.67 0-32 14.33-32 32v24c0 17.67 14.33 32 32 32v112c0 24.787-4.429 80.032 42.52 130.81 19.727 21.337 76.787 83.054 95.95 103.77 34.49 37.3 92.7 39.58 130.01 5.09 37.539-34.706 39.37-93.184 5.09-130.01z" fill="#fe4f60"/><path d="m383.151 455.668c-21.67 20.03-50.4 27.66-77.43 23.22 71.962-11.827 102.275-99.779 52.52-153.23l-68.31-73.86c-13.67-14.79-21.26-34.18-21.26-54.32v-93.48h30v93.48c0 20.14 7.59 39.53 21.26 54.32l68.31 73.86c34.228 36.771 32.503 95.255-5.09 130.01z" fill="#e84857"/><path d="m335.061 479.049c-29.2 4.479-60.02-5.16-81.58-28.47-19.045-20.588-77.112-83.395-95.95-103.77-27.34-29.57-42.52-68.35-42.52-108.62v-134.19h28v134.19c0 40.27 15.18 79.05 42.52 108.62 34.978 37.834 55.154 59.655 90.15 97.5 7.946 8.59 25.161 29.521 59.38 34.74z" fill="#ff6d7a"/><path d="m391.311 328.749c31.651 37.402 28.427 93.409-7.82 126.92-37.31 34.49-95.52 32.21-130.01-5.09-6.676-7.217-5.933-6.145-5.47-6.58 9.087-70.35 72.233-121.237 143-115z" fill="#e8f8fc"/><path d="m182.271 373.569-24.74-26.76c-46.201-49.969-42.52-103.863-42.52-130.81 80.993 8.837 107.188 91.736 67.26 157.57z" fill="#f1fafc"/><path d="m332.011 71.999c0 16.739-13.039 32-33 32h-184c-17.67 0-32-14.33-32-32v-24c0-17.67 14.33-32 32-32h185c17.67 0 32 14.33 32 32z" fill="#e8f8fc"/><path d="m192.061 353.869c-2.64 6.69-5.9 13.29-9.79 19.7l-24.74-26.76c-46.201-49.969-42.52-103.863-42.52-130.81 5.08.55 15.78 2.06 28 6.85 0 20.702-3.219 74.491 42.52 123.96z" fill="#f1fafc"/><path d="m145.011 103.999h-30c-17.67 0-32-14.33-32-32v-24c0-17.67 14.33-32 32-32h30c-17.67 0-32 14.33-32 32v24c0 17.669 14.33 32 32 32z" fill="#f1fafc"/><path d="m332.011 47.999v24c0 17.67-14.33 32-32 32h-30c17.67 0 32-14.33 32-32v-24c0-17.67-14.33-32-32-32h30c17.67 0 32 14.33 32 32z" fill="#d6f4fc"/><path d="m383.491 455.668c-21.67 20.03-50.4 27.66-77.43 23.22 69.379-11.403 101.13-94.31 56.11-149.11 19.964-2.664 28.093-.157 29.14-1.03 31.648 37.398 28.431 93.406-7.82 126.92z" fill="#d6f4fc"/><path d="m335.061 479.049c-29.832 4.62-60.521-5.7-81.58-28.47l-5.8-6.27c.898-.843.627-8.257 5.79-24.01l22.21 24.01c7.946 8.59 25.161 29.521 59.38 34.74z" fill="#f1fafc"/><path d="m400.329 314.797-68.307-73.864c-10.97-11.863-17.011-27.295-17.011-43.453v-79.893c19.142-6.314 33-24.357 33-45.587v-24c0-26.468-21.532-48-48-48h-185c-26.467 0-48 21.532-48 48v24c0 20.859 13.377 38.643 32 45.248v98.675c0 25.724-4.653 86.126 46.771 141.747 4.731 5.117 91.407 98.858 95.952 103.772 21.254 22.986 50.25 34.625 79.335 34.625 94.529 0 142.608-112.767 79.26-181.27zm-43.921-.362c-53.911 8.449-98.41 44.809-116.963 97.397l-37.605-40.67c34.223-68.486 8.676-150.744-70.828-168.676v-82.486h152v77.479c0 24.236 9.062 47.384 25.517 65.179zm-257.397-266.435c0-8.822 7.178-16 16-16h185c8.822 0 16 7.178 16 16v24c0 8.067-6.084 16-17 16h-184c-8.822 0-16-7.178-16-16zm32 187.563c50.726 15.615 62.775 66.832 47.077 109.912l-8.811-9.529c-23.897-25.847-38.266-59.4-38.266-100.383zm190.046 228.52c-20.705-.002-40.959-8.275-56.097-24.656 10.997-56.497 59.562-96.153 118.383-94.82 35.082 50.135-.899 119.483-62.286 119.476z"/></svg>