<svg id="Layer_1" enable-background="new 0 0 496.015 496.015" height="512" viewBox="0 0 496.015 496.015" width="512" xmlns="http://www.w3.org/2000/svg"><path d="m468.957 89.266-62.21-62.21c-19.71-19.71-53.25-11.94-62.29 14.43l-28.89 84.32c-8.401-8.401-14.304-15.29-26.74-20.53-21.83-9.23-48.01-4.95-65.81 12.84-64.452 64.465-39.96 39.973-104.9 104.9-23.43 23.44-23.43 61.43 0 84.86l7.69 7.69-84.32 28.89c-26.37 9.04-34.14 42.58-14.43 62.29l62.21 62.21c19.71 19.71 53.25 11.94 62.29-14.43l28.89-84.32 7.69 7.69c23.43 23.43 61.42 23.43 84.86 0 20.926-20.912 1.998-1.987 104.9-104.9 23.43-23.44 23.43-61.43 0-84.86l-7.69-7.69 84.32-28.89c26.37-9.04 34.14-42.58 14.43-62.29z" fill="#ffe773"/><path d="m377.897 272.997c-102.852 102.864-84.171 84.183-104.9 104.9-23.44 23.43-61.43 23.43-84.86 0l-10-10c23.43 23.43 61.42 23.43 84.86 0 20.926-20.912 1.998-1.987 104.9-104.9 23.43-23.44 23.43-61.43 0-84.86l10 10c23.43 23.43 23.43 61.419 0 84.86z" fill="#fadf5a"/><path d="m327.877 138.116c-23.38-23.38-61.377-23.47-84.86 0-64.452 64.465-39.96 39.973-104.9 104.9-23.43 23.44-23.43 61.43 0 84.86l-20-20c-23.43-23.43-23.43-61.42 0-84.86 64.904-64.891 40.501-40.489 104.9-104.9 17.8-17.79 43.98-22.07 65.81-12.84 13.181 5.554 17.722 11.511 39.05 32.84z" fill="#ffec8f"/><path d="m468.957 89.267c19.71 19.71 11.94 53.25-14.43 62.29l-84.32 28.89-54.64-54.64 28.89-84.32c9.04-26.37 42.58-34.14 62.29-14.43z" fill="#ffe773"/><path d="m180.447 370.207-28.89 84.32c-9.04 26.37-42.58 34.14-62.29 14.43l-62.21-62.21c-19.71-19.71-11.94-53.25 14.43-62.29l84.32-28.89c5.609 5.608 49.32 49.319 54.64 54.64z" fill="#ffe773"/><path d="m169.787 359.547c-7.569-7.569-45.078-45.078-51.67-51.67-23.43-23.43-23.43-61.42 0-84.86l51.67-51.66z" fill="#e8f8fc"/><path d="m377.897 188.137c23.43 23.43 23.43 61.42 0 84.86l-89.06 89.07c-.101-.101-.01 3.967-.01-256.79 13.815 5.82 11.696 5.486 89.07 82.86z" fill="#e8f8fc"/><path d="m426.747 47.056c-19.71-19.71-53.25-11.94-62.29 14.43l-28.89 84.32-20-20 28.89-84.32c9.04-26.37 42.58-34.14 62.29-14.43z" fill="#ffec8f"/><path d="m47.057 426.747-20-20c-19.71-19.71-11.94-53.25 14.43-62.29l84.32-28.89 20 20-84.32 28.89c-26.37 9.04-34.14 42.579-14.43 62.29z" fill="#ffec8f"/><path d="m169.787 171.357v40l-31.67 31.66c-23.43 23.44-23.43 61.43 0 84.86l-20-20c-23.43-23.43-23.43-61.42 0-84.86z" fill="#f1fafc"/><path d="m454.527 151.556-84.32 28.89-10-10 84.32-28.89c26.37-9.04 34.14-42.58 14.43-62.29l10 10c19.71 19.71 11.94 53.25-14.43 62.29z" fill="#fadf5a"/><path d="m180.447 370.207-28.89 84.32c-9.04 26.37-42.58 34.14-62.29 14.43l-10-10c19.71 19.71 53.25 11.94 62.29-14.43l28.89-84.32z" fill="#fadf5a"/><path d="m377.897 272.997c-90.184 90.194-88.972 89.16-89.07 89.06v-19.98l79.07-79.08c23.43-23.44 23.43-61.43 0-84.86l10 10c23.43 23.43 23.43 61.419 0 84.86z" fill="#d6f4fc"/><path d="m480.268 77.952-62.206-62.206c-28.103-28.103-75.882-16.971-88.741 20.557l-21.061 61.463c-29.572-20.182-70.333-17.182-96.551 9.039l-104.903 104.903c-26.22 26.22-29.22 66.98-9.039 96.551l-61.464 21.061c-37.603 12.885-48.605 60.693-20.557 88.741l62.206 62.206c28.108 28.108 75.883 16.969 88.741-20.557l21.061-61.464c29.729 20.288 70.439 17.075 96.551-9.039 5.189-5.189 100.002-100.002 104.902-104.902 26.22-26.22 29.22-66.98 9.039-96.551l61.464-21.061c37.604-12.885 48.606-60.693 20.558-88.741zm-343.846 371.386c-5.21 15.201-24.466 19.68-35.843 8.303l-62.206-62.206c-11.361-11.363-6.916-30.627 8.303-35.843l74.877-25.657c5.253 5.253 35.7 35.7 40.526 40.525zm230.16-187.66-61.752 61.752v-150.37c0-8.837-7.163-16-16-16s-16 7.163-16 16v182.37l-11.15 11.15c-17.156 17.154-45.069 17.154-62.226 0l-13.671-13.671v-109.899c0-8.837-7.163-16-16-16s-16 7.163-16 16v77.899l-24.35-24.35c-17.155-17.156-17.155-45.07 0-62.226l104.902-104.902c17.158-17.156 45.069-17.154 62.226 0 7.379 7.379 62.351 62.351 70.021 70.021 17.155 17.157 17.155 45.071 0 62.226zm82.756-125.256-74.877 25.657-40.526-40.525 25.657-74.877c5.209-15.199 24.467-19.678 35.843-8.303l62.206 62.206c11.361 11.362 6.917 30.625-8.303 35.842z"/></svg>