<svg id="Layer_1" enable-background="new 0 0 507.317 507.317" height="512" viewBox="0 0 507.317 507.317" width="512" xmlns="http://www.w3.org/2000/svg"><path d="m361.168 216.027c-5.66 5.51-8.24 13.45-6.91 21.24l12.9 75.17c3.36 19.6-17.22 34.55-34.83 25.3l-37.46-19.69 43.92 152.85c2.94 10.23-4.73 20.42-15.38 20.42h-139.45c-10.66 0-18.34-10.22-15.37-20.45l44.37-153.09-37.97 19.96c-17.61 9.25-38.19-5.7-34.83-25.3l12.9-75.17c1.33-7.79-1.25-15.73-6.91-21.24l-54.61-53.24c-14.24-13.88-6.38-38.07 13.3-40.93l75.48-10.97c7.81-1.14 14.57-6.05 18.07-13.13l33.75-68.39c8.8-17.84 34.24-17.84 43.04 0l33.75 68.39c3.5 7.08 10.26 11.99 18.07 13.13l75.48 10.97c19.68 2.86 27.54 27.05 13.3 40.93z" fill="#ffe773"/><path d="m415.778 162.787c-4.824 4.701-48.607 47.388-54.61 53.24-5.697 5.557-8.224 13.497-6.91 21.24l12.9 75.17c3.361 19.566-17.195 34.55-34.83 25.3-27.341-14.371 49.847 26.19-67.5-35.49-6.99-3.68-15.35-3.68-22.34 0-22.484 11.817-45.017 23.671-67.5 35.49-17.61 9.25-38.19-5.7-34.83-25.3l12.9-75.17c1.33-7.79-1.25-15.73-6.91-21.24l-54.61-53.24c-14.228-13.87-6.397-38.067 13.3-40.93l75.48-10.97c8.118-1.182 14.764-6.386 18.07-13.13 31.185-63.192 24.429-49.5 33.75-68.39 8.8-17.84 34.24-17.84 43.04 0l33.75 68.39c3.5 7.08 10.26 11.99 18.07 13.13l75.48 10.97c19.68 2.86 27.54 27.05 13.3 40.93z" fill="#ffe773"/><g fill="#ffec8f"><path d="m283.998 47.237c-9.71-15.68-33.43-14.97-41.86 2.13l-33.75 68.39c-3.5 7.08-10.26 11.99-18.07 13.13l-75.48 10.97c-12.67 1.84-20.44 12.52-20.56 23.6l-2.74-2.67c-14.24-13.88-6.38-38.07 13.3-40.93l75.48-10.97c7.81-1.14 14.57-6.05 18.07-13.13l33.75-68.39c8.8-17.84 34.24-17.84 43.04 0z"/><path d="m423.038 146.067c-6.3-4.533-4.048-3.264-86.04-15.18-7.81-1.14-14.57-6.05-18.07-13.13l-8.9-18.03c3.7 6.01 9.91 10.13 16.97 11.16l75.48 10.97c12.9 1.88 20.72 12.92 20.56 24.21z"/><path d="m163.058 257.267c-13.998 81.57-13.185 76.191-13.25 78.71-6.99-5.03-11.34-13.7-9.65-23.54 14.05-81.87 13.218-76.209 13.24-79.09l2.75 2.68c5.66 5.51 8.24 13.45 6.91 21.24z"/></g><path d="m357.508 335.967c.064-3.146.761 1.944-13.25-79.7-1.33-7.79 1.25-15.73 6.91-21.24l2.77-2.7c-.148 3.466-.814-1.67 13.22 80.11 1.69 9.84-2.66 18.51-9.65 23.53z" fill="#fadf5a"/><path d="m264.828 322.247c-6.99-3.68-15.35-3.68-22.34 0-11.27 5.923-34.847 18.32-36.37 19.12 6.982-24.081 6.84-23.499 6.84-23.6l29.53-15.52c6.99-3.68 15.35-3.68 22.34 0 30.444 16.002 30.04 15.7 30.04 15.8l6.77 23.56c-56.388-29.652-29.006-15.258-36.81-19.36z" fill="#fadf5a"/><path d="m426.944 174.247c23.735-23.136 10.616-63.462-22.169-68.228l-75.473-10.967c-2.605-.378-4.857-2.015-6.023-4.376l-33.752-68.39c-14.668-29.723-57.077-29.709-71.738 0l-33.752 68.39c-1.166 2.361-3.417 3.998-6.023 4.376l-75.472 10.967c-32.8 4.767-45.893 45.104-22.168 68.228l54.612 53.233c1.886 1.839 2.746 4.486 2.301 7.081l-12.892 75.168c-5.604 32.667 28.715 57.585 58.038 42.167l4.696-2.469-39.839 137.436c-2.966 10.233 4.728 20.454 15.368 20.454h182c10.64 0 18.312-10.209 15.378-20.419l-30.622-106.561c-2.44-8.491-11.301-13.395-19.796-10.959-8.493 2.44-13.399 11.304-10.958 19.797l24.753 86.142h-139.459l42.48-146.555 23.501-12.355c2.33-1.226 5.113-1.226 7.445 0l67.504 35.489c29.312 15.41 63.644-9.489 58.038-42.167l-12.892-75.167c-.445-2.596.415-5.243 2.3-7.082zm-76.949 30.319c-9.429 9.191-13.729 22.426-11.504 35.405l12.893 75.168c1.123 6.549-5.728 11.521-11.608 8.433l-67.504-35.489c-11.655-6.128-25.572-6.128-37.227 0l-67.504 35.489c-5.875 3.092-12.732-1.881-11.608-8.433l12.893-75.169c2.225-12.979-2.075-26.213-11.504-35.404l-54.612-53.233c-4.759-4.638-2.14-12.69 4.434-13.646l75.472-10.967c13.031-1.894 24.29-10.073 30.117-21.882l33.753-68.39c2.939-5.958 11.407-5.958 14.347 0 .1 0-.997-2.021 33.753 68.39 5.828 11.809 17.086 19.988 30.117 21.882l75.472 10.967c6.576.956 9.191 9.009 4.434 13.646z"/></svg>