<svg id="Layer_1" enable-background="new 0 0 496 496" height="512" viewBox="0 0 496 496" width="512" xmlns="http://www.w3.org/2000/svg"><path d="m396.353 228.6c-2.393 0-4.129-1.852-4.188-4.005-1.873-68.683-51.801-125.532-117.666-137.785 2.864.533 5.698 1.15 8.501 1.85 22.985-28.78 2.956-71.255-33.26-72.627-38.477-1.458-60.41 42.99-36.74 72.627 2.802-.7 5.637-1.317 8.501-1.85-67.118 12.485-117.721 71.295-117.721 141.79h-4.133c-23.864 0-43.83 18.911-44.231 42.772-.41 24.373 19.225 44.259 43.504 44.259h11.07l21.78 143.96c1.78 11.73 11.86 20.41 23.73 20.41h185c11.87 0 21.95-8.68 23.73-20.41l21.78-143.96h11.07c24.79 0 44.738-20.732 43.451-45.804-1.193-23.241-20.907-41.227-44.178-41.227z" fill="#e8f8fc"/><path d="m283 88.66c-22.856-5.709-47.142-5.709-70 0-23.111-28.936-2.745-72.66 35-72.66 37.679 0 58.158 43.666 35 72.66z" fill="#fe4f60"/><path d="m396.293 228.6c23.916 0 43.888 18.884 44.29 42.77.41 24.373-19.224 44.26-43.504 44.26-6.708 0-302.425 0-297.444 0-23.857 0-43.817-18.904-44.22-42.758-.41-24.374 19.225-44.272 43.505-44.272h4.86c0-93.577 88.044-162.714 179.22-139.94 61.497 15.33 107.371 70.128 109.165 135.935.061 2.232 1.896 4.005 4.128 4.005z" fill="#ffaa64"/><path d="m195.5 480h-40c-11.87 0-21.95-8.68-23.73-20.41l-21.78-143.96h40l21.78 143.96c1.78 11.73 11.86 20.41 23.73 20.41z" fill="#f1fafc"/><path d="m312.5 480h28c11.87 0 21.95-8.68 23.73-20.41l21.78-143.96h-28l-21.78 143.96c-1.78 11.73-11.86 20.41-23.73 20.41z" fill="#d6f4fc"/><path d="m342.29 119.48c-86.167-43.084-191.617 9.689-206.773 106.671-1.79 11.454-9.683 21.126-20.62 24.97-26.801 9.419-37.546 40.519-22.947 63.949-21.287-3.421-37.403-22.285-36.504-44.738.939-23.456 20.786-41.733 44.261-41.733 2.233 0 4.067-1.773 4.128-4.005 3.338-122.455 147.762-183.565 238.455-105.114z" fill="#ffbd7b"/><path d="m277.38 26.99c-34.462-7.422-63.424 26.244-51.45 59.07-4.38.67-8.69 1.54-12.93 2.6-23.111-28.937-2.744-72.66 35-72.66 11.24 0 21.52 4.15 29.38 10.99z" fill="#ff6d7a"/><path d="m456.591 272.118c0-29.255-21.218-53.647-49.073-58.598-5.756-61.386-46.296-112.807-101.648-134.32 12.552-39.385-17.056-79.2-57.87-79.2-40.799 0-70.427 39.799-57.869 79.2-55.352 21.514-95.892 72.935-101.649 134.321-27.855 4.95-49.073 29.343-49.073 58.598 0 31.911 25.246 58.029 56.814 59.447l19.73 130.418c2.982 19.711 19.615 34.017 39.55 34.017h184.995c19.936 0 36.568-14.306 39.551-34.017l19.73-130.418c31.566-1.42 56.812-27.537 56.812-59.448zm-208.591-240.118c19.862 0 33.904 19.845 27.006 38.661-17.343-2.956-35.69-3.123-54.012 0-6.893-18.803 7.128-38.661 27.006-38.661zm100.407 425.196c-.596 3.942-3.923 6.804-7.91 6.804h-184.995c-3.987 0-7.313-2.861-7.91-6.804l-18.995-125.563h54.523l12.98 92.163c1.126 7.994 7.976 13.771 15.824 13.771 9.773 0 17.216-8.633 15.864-18.233l-12.352-87.7h65.024l-6.136 41.884c-1.281 8.743 4.769 16.869 13.512 18.15 8.743 1.28 16.869-4.769 18.15-13.512l6.815-46.522h54.602zm48.668-157.562c-10.396 0-274.664 0-298.151 0-15.172 0-27.515-12.344-27.515-27.516s12.343-27.515 27.515-27.515h4.854c8.836 0 16-7.163 16-16 0-70.702 57.52-128.223 128.222-128.223 65.286 0 119.332 49.041 127.229 112.223h-26.107c-8.837 0-16 7.163-16 16s7.163 16 16 16h47.954c15.172 0 27.516 12.343 27.516 27.515s-12.345 27.516-27.517 27.516zm-179.411-123.994c10.112 10.114 2.809 27.313-11.314 27.313-8.139 0-11.225-4.597-20.639-14.012-6.248-6.249-6.248-16.379 0-22.628 6.249-6.246 16.379-6.249 22.627.001zm92.624-9.327c6.248 6.248 6.249 16.379.001 22.628-9.018 9.019-12.369 14.012-20.639 14.012-14.126 0-21.423-17.203-11.314-27.313l9.324-9.325c6.248-6.249 16.378-6.25 22.628-.002z"/></svg>