<svg id="Layer_1" enable-background="new 0 0 496 496" height="512" viewBox="0 0 496 496" width="512" xmlns="http://www.w3.org/2000/svg"><path d="m453.87 384.751-24.42 42.33c-4.29 7.43-12.21 12.01-20.79 12.01h-321.32c-8.58 0-16.5-4.58-20.79-12.01l-24.42-42.33h130.63v-162.02c0-13.25 10.74-24 24-24h102.48c13.26 0 24 10.75 24 24v162.02z" fill="#f2f2f2"/><path d="m453.87 384.751-24.423 42.333c-4.286 7.429-12.211 12.007-20.788 12.007h-321.317c-8.577 0-16.502-4.577-20.788-12.007l-24.424-42.333z" fill="#aaa"/><path d="m320.57 211.731h-97.81c-13.26 0-24 10.75-24 24v149.02h-26v-162.02c0-13.25 10.74-24 24-24h102.48c9.29 0 17.35 5.28 21.33 13z" fill="#f9f9f9"/><path d="m286.063 77.099c21.023 21.023 21.023 55.114 0 76.125-21.023 21.023-55.102 21.023-76.125 0-21.023-21.012-21.023-55.102 0-76.125l21.046-21.046c9.395-9.395 24.638-9.395 34.033 0z" fill="#ff6d7a"/><path d="m135.34 439.091h-48c-8.58 0-16.5-4.58-20.79-12.01l-24.42-42.33h48l24.42 42.33c4.29 7.43 12.21 12.01 20.79 12.01z" fill="#b2b2b2"/><path d="m480 368.75c-1.56 0-137.721 0-140.757 0v-146.018c0-22.056-17.944-40-40-40h-35.243v-7.726c46.441-12.167 62.788-70.612 28.375-105.025l-18.282-18.283c-14.387-14.386-37.797-14.388-52.186 0l-18.282 18.282c-34.029 34.029-18.619 92.714 28.375 105.025v7.727h-35.243c-22.056 0-40 17.944-40 40v146.018c-4.715 0-138.196 0-140.757 0-8.836 0-16 7.164-16 16s7.164 16 16 16h16.885l26.734 46.338c2.857 4.953 8.141 8.004 13.859 8.004h349.045c5.718 0 11.001-3.051 13.859-8.004l26.734-46.338h16.884c8.836 0 16-7.164 16-16s-7.164-16-16-16zm-253.747-276.143c19.712-19.713 18.989-19.714 21.747-19.714 2.762 0 2.044.011 21.747 19.715 12.02 12.02 12.021 31.474 0 43.495-11.992 11.991-31.503 11.992-43.495 0-12.019-12.021-12.02-31.474.001-43.496zm-37.496 130.125c0-4.411 3.589-8 8-8h58.757v94.775c0 8.836 7.164 16 16 16s16-7.164 16-16v-94.775h11.729c4.411 0 8 3.589 8 8v146.018h-118.486zm224.525 200.36h-330.564l-12.89-22.342h356.343z"/></svg>