<?xml version="1.0" encoding="iso-8859-1"?>
<!-- Generator: Adobe Illustrator 19.0.0, SVG Export Plug-In . SVG Version: 6.00 Build 0)  -->
<svg version="1.1" id="Capa_1" xmlns="http://www.w3.org/2000/svg" xmlns:xlink="http://www.w3.org/1999/xlink" x="0px" y="0px"
	 viewBox="0 0 512 512" style="enable-background:new 0 0 512 512;" xml:space="preserve">
<linearGradient id="SVGID_1_" gradientUnits="userSpaceOnUse" x1="254.8083" y1="167.2325" x2="254.8083" y2="-119.6675" gradientTransform="matrix(1.0039 0 0 -1.0039 0.1922 516.5599)">
	<stop  offset="0" style="stop-color:#FEFFB3"/>
	<stop  offset="0.118" style="stop-color:#FEFDA7"/>
	<stop  offset="0.333" style="stop-color:#FEF785"/>
	<stop  offset="0.622" style="stop-color:#FFEE50"/>
	<stop  offset="0.971" style="stop-color:#FFE107"/>
	<stop  offset="1" style="stop-color:#FFE000"/>
</linearGradient>
<path style="fill:url(#SVGID_1_);" d="M428.826,89.108L256,90.368l-172.826-1.26L0.901,377.622
	c-2.722,9.543,0.86,19.744,8.926,25.528c26.551,19.041,93.423,55.267,201.647,38.455c9.192-1.428,16.704-8.1,19.131-17.08
	L256,330.557l25.396,93.968c2.427,8.98,9.939,15.652,19.131,17.08c108.224,16.812,175.095-19.414,201.647-38.455
	c8.064-5.784,11.646-15.984,8.926-25.528L428.826,89.108z"/>
<linearGradient id="SVGID_2_" gradientUnits="userSpaceOnUse" x1="434.6086" y1="248.0647" x2="-141.7114" y2="248.0647" gradientTransform="matrix(1.0039 0 0 -1.0039 0.1922 516.5599)">
	<stop  offset="0" style="stop-color:#FFE000;stop-opacity:0"/>
	<stop  offset="1" style="stop-color:#FFAF00"/>
</linearGradient>
<path style="fill:url(#SVGID_2_);" d="M281.396,424.525c2.427,8.98,9.939,15.652,19.131,17.08
	c108.224,16.812,175.095-19.414,201.647-38.455c8.064-5.784,11.646-15.984,8.925-25.528L428.826,89.108L256,90.368v240.189
	L281.396,424.525z"/>
<linearGradient id="SVGID_3_" gradientUnits="userSpaceOnUse" x1="431.6534" y1="331.4451" x2="-3.1466" y2="477.6651" gradientTransform="matrix(1.0039 0 0 -1.0039 0.1922 516.5599)">
	<stop  offset="0" style="stop-color:#FFE000;stop-opacity:0"/>
	<stop  offset="1" style="stop-color:#FFAF00"/>
</linearGradient>
<path style="fill:url(#SVGID_3_);" d="M463.019,209.011L428.826,89.108L256,90.368l-172.826-1.26l-1.571,5.509l72.836,72.836
	c26.61,26.61,62.701,41.559,100.334,41.559H463.019z"/>
<path style="fill:#00FFF4;" d="M502.914,402.583c-0.246,0.192-0.493,0.383-0.739,0.561c-5.497,3.952-12.746,8.63-21.717,13.429
	c-0.164,0.095-0.341,0.178-0.506,0.273L386.589,89.411h0.574l26.38-0.192L502.914,402.583z"/>
<path style="fill:#FFA981;" d="M480.458,416.574c-0.164,0.095-0.341,0.178-0.506,0.273c-6.797,3.61-14.592,7.275-23.372,10.735
	L360.208,89.617l26.38-0.205h0.574L480.458,416.574z"/>
<linearGradient id="SVGID_4_" gradientUnits="userSpaceOnUse" x1="420.7395" y1="349.6828" x2="383.9595" y2="460.0228" gradientTransform="matrix(1.0039 0 0 -1.0039 0.1922 516.5599)">
	<stop  offset="0" style="stop-color:#00DBFF;stop-opacity:0"/>
	<stop  offset="1" style="stop-color:#279AFF"/>
</linearGradient>
<polygon style="fill:url(#SVGID_4_);" points="447.705,209.018 420.695,209.018 386.589,89.411 387.163,89.411 413.543,89.22 "/>
<linearGradient id="SVGID_5_" gradientUnits="userSpaceOnUse" x1="389.0216" y1="345.0025" x2="389.0216" y2="469.5465" gradientTransform="matrix(1.0039 0 0 -1.0039 0.1922 516.5599)">
	<stop  offset="0" style="stop-color:#FFA981;stop-opacity:0"/>
	<stop  offset="1" style="stop-color:#B82934"/>
</linearGradient>
<polygon style="fill:url(#SVGID_5_);" points="421.271,209.018 394.261,209.018 360.208,89.617 386.589,89.411 387.163,89.411 "/>
<path style="fill:#FEFFB3;" d="M93.895,66.21c108.042,18.345,216.17,18.343,324.21,0c5.608-0.952,10.939,2.789,12.005,8.376
	c0.731,3.83,1.391,7.294,2.118,11.104c1.103,5.786-2.779,11.326-8.586,12.311c-111.731,18.951-223.553,18.954-335.286,0
	c-5.807-0.985-9.689-6.525-8.586-12.311c0.727-3.81,1.387-7.274,2.118-11.104C82.956,68.998,88.287,65.258,93.895,66.21z"/>
<g>
	
		<linearGradient id="SVGID_6_" gradientUnits="userSpaceOnUse" x1="434.8383" y1="408.931" x2="0.0383" y2="430.281" gradientTransform="matrix(1.0039 0 0 -1.0039 0.1922 516.5599)">
		<stop  offset="0" style="stop-color:#FFE000;stop-opacity:0"/>
		<stop  offset="1" style="stop-color:#FFAF00"/>
	</linearGradient>
	<circle style="fill:url(#SVGID_6_);" cx="239.817" cy="96.356" r="8.889"/>
	
		<linearGradient id="SVGID_7_" gradientUnits="userSpaceOnUse" x1="434.9159" y1="410.5103" x2="0.1159" y2="431.8603" gradientTransform="matrix(1.0039 0 0 -1.0039 0.1922 516.5599)">
		<stop  offset="0" style="stop-color:#FFE000;stop-opacity:0"/>
		<stop  offset="1" style="stop-color:#FFAF00"/>
	</linearGradient>
	<circle style="fill:url(#SVGID_7_);" cx="272.183" cy="96.356" r="8.889"/>
</g>
<linearGradient id="SVGID_8_" gradientUnits="userSpaceOnUse" x1="259.1976" y1="336.131" x2="173.7175" y2="394.701" gradientTransform="matrix(1.0039 0 0 -1.0039 0.1922 516.5599)">
	<stop  offset="0" style="stop-color:#FFE000;stop-opacity:0"/>
	<stop  offset="1" style="stop-color:#FFAF00"/>
</linearGradient>
<path style="fill:url(#SVGID_8_);" d="M244.032,94.115c-1.171-1.643-3.194-2.587-5.319-2.245c-0.684,0.11-16.854,2.87-24.55,16.047
	c-4.974,8.521-5.203,19.072-0.676,31.36c4.532,12.301,3.592,22.766-2.793,31.102c-4.95,6.462-11.492,9.362-11.535,9.38
	c-2.781,1.18-4.079,4.39-2.899,7.172l68.499,68.93c1.033,1.467,2.707,2.327,4.462,2.327c0.712,0,1.437-0.141,2.134-0.436
	c0.348-0.148,34.718-15.252,20.318-54.335c-3.331-9.043-3.389-16.445-0.175-22.002c5.025-8.684,16.71-10.791,16.906-10.825
	c2.972-0.493,4.988-3.297,4.505-6.273c-0.247-1.526-1.109-2.795-2.288-3.611L244.032,94.115z"/>
<path style="fill:#FFA981;" d="M201.299,190.266c-2.13,0-4.155-1.252-5.039-3.336c-1.18-2.781,0.118-5.991,2.899-7.172
	c0.042-0.019,6.584-2.917,11.535-9.38c6.385-8.337,7.324-18.8,2.793-31.102c-4.528-12.287-4.299-22.838,0.676-31.36
	c7.695-13.176,23.865-15.936,24.55-16.047c2.98-0.481,5.793,1.542,6.276,4.525c0.484,2.976-1.533,5.78-4.505,6.273
	c-0.197,0.034-11.882,2.142-16.906,10.825c-3.215,5.557-3.155,12.96,0.175,22.002c14.399,39.084-19.97,54.188-20.318,54.335
	C202.737,190.125,202.011,190.266,201.299,190.266z"/>
<linearGradient id="SVGID_9_" gradientUnits="userSpaceOnUse" x1="325.2291" y1="346.8931" x2="233.7791" y2="438.333" gradientTransform="matrix(1.0039 0 0 -1.0039 0.1922 516.5599)">
	<stop  offset="0" style="stop-color:#FFE000;stop-opacity:0"/>
	<stop  offset="1" style="stop-color:#FFAF00"/>
</linearGradient>
<path style="fill:url(#SVGID_9_);" d="M341.205,179.376c-5.714-10.246-4.454-23.113-4.437-23.28c0.218-2.002-0.689-3.851-2.198-4.97
	l-57.987-57.988c-0.873-1.194-2.211-2.041-3.797-2.217c-2.988-0.332-5.706,1.83-6.041,4.833
	c-0.116,1.052-2.468,24.131,12.125,38.131l14.373,14.391c5.86,8.967,7.732,18.06,7.757,18.183c0.273,1.413,1.077,2.577,2.153,3.364
	l57.974,57.975c1.014,1.375,2.626,2.239,4.383,2.239c0.346,0,0.695-0.033,1.046-0.1c2.966-0.574,4.905-3.444,4.331-6.41
	c-0.164-0.845-3.758-18.646-17.098-31.558L341.205,179.376z"/>
<path style="fill:#FFA981;" d="M306.365,170.892c-2.567,0-4.857-1.817-5.363-4.432c-0.036-0.18-3.957-19.233-18.306-29.397
	c-18.825-13.334-16.076-40.172-15.95-41.308c0.334-3.003,3.053-5.165,6.041-4.833c2.999,0.333,5.16,3.03,4.835,6.028l0,0
	c-0.023,0.215-2.126,21.605,11.4,31.186c17.994,12.747,22.537,35.292,22.721,36.246c0.574,2.967-1.365,5.836-4.331,6.41
	C307.059,170.859,306.711,170.892,306.365,170.892z"/>
<g>
</g>
<g>
</g>
<g>
</g>
<g>
</g>
<g>
</g>
<g>
</g>
<g>
</g>
<g>
</g>
<g>
</g>
<g>
</g>
<g>
</g>
<g>
</g>
<g>
</g>
<g>
</g>
<g>
</g>
</svg>
