<?xml version="1.0" encoding="iso-8859-1"?>
<!-- Generator: Adobe Illustrator 19.0.0, SVG Export Plug-In . SVG Version: 6.00 Build 0)  -->
<svg version="1.1" id="Capa_1" xmlns="http://www.w3.org/2000/svg" xmlns:xlink="http://www.w3.org/1999/xlink" x="0px" y="0px"
	 viewBox="0 0 512.001 512.001" style="enable-background:new 0 0 512.001 512.001;" xml:space="preserve">
<linearGradient id="SVGID_1_" gradientUnits="userSpaceOnUse" x1="250.8099" y1="375.293" x2="250.8099" y2="458.993" gradientTransform="matrix(1.0039 0 0 -1.0039 0.1922 516.5609)">
	<stop  offset="0" style="stop-color:#E8FC95"/>
	<stop  offset="0.09" style="stop-color:#EBFCA4"/>
	<stop  offset="0.366" style="stop-color:#F4FECB"/>
	<stop  offset="0.619" style="stop-color:#FAFEE8"/>
	<stop  offset="0.838" style="stop-color:#FEFFF9"/>
	<stop  offset="1" style="stop-color:#FFFFFF"/>
</linearGradient>
<circle style="fill:url(#SVGID_1_);" cx="251.986" cy="125.159" r="21.575"/>
<linearGradient id="SVGID_2_" gradientUnits="userSpaceOnUse" x1="287.0999" y1="416.973" x2="287.0999" y2="451.133" gradientTransform="matrix(1.0039 0 0 -1.0039 0.1922 516.5609)">
	<stop  offset="0" style="stop-color:#E8FC95"/>
	<stop  offset="0.09" style="stop-color:#EBFCA4"/>
	<stop  offset="0.366" style="stop-color:#F4FECB"/>
	<stop  offset="0.619" style="stop-color:#FAFEE8"/>
	<stop  offset="0.838" style="stop-color:#FEFFF9"/>
	<stop  offset="1" style="stop-color:#FFFFFF"/>
</linearGradient>
<circle style="fill:url(#SVGID_2_);" cx="288.418" cy="91.979" r="8.807"/>
<linearGradient id="SVGID_3_" gradientUnits="userSpaceOnUse" x1="246.5199" y1="471.845" x2="246.5199" y2="506.01" gradientTransform="matrix(1.0039 0 0 -1.0039 0.1922 516.5609)">
	<stop  offset="0" style="stop-color:#E8FC95"/>
	<stop  offset="0.09" style="stop-color:#EBFCA4"/>
	<stop  offset="0.366" style="stop-color:#F4FECB"/>
	<stop  offset="0.619" style="stop-color:#FAFEE8"/>
	<stop  offset="0.838" style="stop-color:#FEFFF9"/>
	<stop  offset="1" style="stop-color:#FFFFFF"/>
</linearGradient>
<circle style="fill:url(#SVGID_3_);" cx="247.679" cy="36.893" r="8.807"/>
<linearGradient id="SVGID_4_" gradientUnits="userSpaceOnUse" x1="287.0999" y1="499.82" x2="287.0999" y2="533.985" gradientTransform="matrix(1.0039 0 0 -1.0039 0.1922 516.5609)">
	<stop  offset="0" style="stop-color:#E8FC95"/>
	<stop  offset="0.09" style="stop-color:#EBFCA4"/>
	<stop  offset="0.366" style="stop-color:#F4FECB"/>
	<stop  offset="0.619" style="stop-color:#FAFEE8"/>
	<stop  offset="0.838" style="stop-color:#FEFFF9"/>
	<stop  offset="1" style="stop-color:#FFFFFF"/>
</linearGradient>
<circle style="fill:url(#SVGID_4_);" cx="288.418" cy="8.807" r="8.807"/>
<linearGradient id="SVGID_5_" gradientUnits="userSpaceOnUse" x1="263.5299" y1="438.203" x2="263.5299" y2="495.831" gradientTransform="matrix(1.0039 0 0 -1.0039 0.1922 516.5609)">
	<stop  offset="0" style="stop-color:#E8FC95"/>
	<stop  offset="0.09" style="stop-color:#EBFCA4"/>
	<stop  offset="0.366" style="stop-color:#F4FECB"/>
	<stop  offset="0.619" style="stop-color:#FAFEE8"/>
	<stop  offset="0.838" style="stop-color:#FEFFF9"/>
	<stop  offset="1" style="stop-color:#FFFFFF"/>
</linearGradient>
<circle style="fill:url(#SVGID_5_);" cx="264.755" cy="66.56" r="14.856"/>
<linearGradient id="SVGID_6_" gradientUnits="userSpaceOnUse" x1="168.3799" y1="195.9645" x2="365.0899" y2="195.9645" gradientTransform="matrix(1.0039 0 0 -1.0039 0.1922 516.5609)">
	<stop  offset="0" style="stop-color:#AFDC00"/>
	<stop  offset="0.29" style="stop-color:#99C000"/>
	<stop  offset="0.915" style="stop-color:#607800"/>
	<stop  offset="1" style="stop-color:#586E00"/>
</linearGradient>
<polygon style="fill:url(#SVGID_6_);" points="346.807,137.97 120.725,137.97 107.478,176.995 107.478,462.66 120.725,501.686 
	346.807,501.686 360.055,462.66 360.055,176.995 "/>
<linearGradient id="SVGID_7_" gradientUnits="userSpaceOnUse" x1="218.4496" y1="410.7529" x2="240.9097" y2="296.1529" gradientTransform="matrix(1.0039 0 0 -1.0039 0.1922 516.5609)">
	<stop  offset="0" style="stop-color:#AFDC00"/>
	<stop  offset="0.193" style="stop-color:#ACD800"/>
	<stop  offset="0.384" style="stop-color:#A3CC00"/>
	<stop  offset="0.573" style="stop-color:#93B800"/>
	<stop  offset="0.761" style="stop-color:#7D9D00"/>
	<stop  offset="0.948" style="stop-color:#617900"/>
	<stop  offset="1" style="stop-color:#586E00"/>
</linearGradient>
<polygon style="fill:url(#SVGID_7_);" points="360.054,176.995 107.478,176.995 120.725,137.97 346.807,137.97 "/>
<linearGradient id="SVGID_8_" gradientUnits="userSpaceOnUse" x1="228.2141" y1="97.1134" x2="238.0041" y2="1.5234" gradientTransform="matrix(1.0039 0 0 -1.0039 0.1922 516.5609)">
	<stop  offset="0" style="stop-color:#AFDC00"/>
	<stop  offset="0.193" style="stop-color:#ACD800"/>
	<stop  offset="0.384" style="stop-color:#A3CC00"/>
	<stop  offset="0.573" style="stop-color:#93B800"/>
	<stop  offset="0.761" style="stop-color:#7D9D00"/>
	<stop  offset="0.948" style="stop-color:#617900"/>
	<stop  offset="1" style="stop-color:#586E00"/>
</linearGradient>
<polygon style="fill:url(#SVGID_8_);" points="360.054,462.66 107.478,462.66 120.725,501.686 346.807,501.686 "/>
<linearGradient id="SVGID_9_" gradientUnits="userSpaceOnUse" x1="256.4008" y1="228.6331" x2="221.8908" y2="456.2231" gradientTransform="matrix(1.0039 0 0 -1.0039 0.1922 516.5609)">
	<stop  offset="0" style="stop-color:#AFDC00;stop-opacity:0"/>
	<stop  offset="0.472" style="stop-color:#84A600;stop-opacity:0.472"/>
	<stop  offset="1" style="stop-color:#586E00"/>
</linearGradient>
<polygon style="fill:url(#SVGID_9_);" points="120.725,137.97 117.359,147.889 360.055,390.584 360.055,176.995 346.807,137.97 "/>
<linearGradient id="SVGID_10_" gradientUnits="userSpaceOnUse" x1="232.6609" y1="384.483" x2="232.6609" y2="367.063" gradientTransform="matrix(1.0039 0 0 -1.0039 0.1922 516.5609)">
	<stop  offset="0" style="stop-color:#EFFBFF"/>
	<stop  offset="0.242" style="stop-color:#EAF8FE"/>
	<stop  offset="0.514" style="stop-color:#DDF0F9"/>
	<stop  offset="0.799" style="stop-color:#C6E2F2"/>
	<stop  offset="1" style="stop-color:#B2D5EC"/>
</linearGradient>
<path style="fill:url(#SVGID_10_);" d="M351.487,146.575H116.045c-5.224,0-9.46-4.236-9.46-9.46l0,0c0-5.224,4.236-9.46,9.46-9.46
	h235.442c5.224,0,9.46,4.236,9.46,9.46l0,0C360.946,142.34,356.712,146.575,351.487,146.575z"/>
<linearGradient id="SVGID_11_" gradientUnits="userSpaceOnUse" x1="232.6609" y1="20.983" x2="232.6609" y2="1.563" gradientTransform="matrix(1.0039 0 0 -1.0039 0.1922 516.5609)">
	<stop  offset="0" style="stop-color:#EFFBFF"/>
	<stop  offset="0.242" style="stop-color:#EAF8FE"/>
	<stop  offset="0.514" style="stop-color:#DDF0F9"/>
	<stop  offset="0.799" style="stop-color:#C6E2F2"/>
	<stop  offset="1" style="stop-color:#B2D5EC"/>
</linearGradient>
<path style="fill:url(#SVGID_11_);" d="M351.487,493.081H116.045c-5.224,0-9.46,4.236-9.46,9.46l0,0c0,5.224,4.236,9.46,9.46,9.46
	h235.442c5.224,0,9.46-4.236,9.46-9.46l0,0C360.946,497.316,356.712,493.081,351.487,493.081z"/>
<linearGradient id="SVGID_12_" gradientUnits="userSpaceOnUse" x1="235.5526" y1="176.9034" x2="208.9126" y2="352.5634" gradientTransform="matrix(1.0039 0 0 -1.0039 0.1922 516.5609)">
	<stop  offset="0" style="stop-color:#EFFBFF"/>
	<stop  offset="0.556" style="stop-color:#CBE4F4"/>
	<stop  offset="1" style="stop-color:#B2D5EC"/>
</linearGradient>
<polygon style="fill:url(#SVGID_12_);" points="360.055,189.179 360.055,304.664 107.478,450.477 107.478,334.992 "/>
<linearGradient id="SVGID_13_" gradientUnits="userSpaceOnUse" x1="233.3485" y1="260.0428" x2="218.8085" y2="355.9028" gradientTransform="matrix(1.0039 0 0 -1.0039 0.1922 516.5609)">
	<stop  offset="0" style="stop-color:#FEFFB3"/>
	<stop  offset="1" style="stop-color:#FFCD77"/>
</linearGradient>
<polygon style="fill:url(#SVGID_13_);" points="360.055,176.999 360.055,179.083 107.478,324.908 107.478,309.088 356.158,165.514 
	"/>
<linearGradient id="SVGID_14_" gradientUnits="userSpaceOnUse" x1="235.1321" y1="111.0733" x2="220.5921" y2="206.9333" gradientTransform="matrix(1.0039 0 0 -1.0039 0.1922 516.5609)">
	<stop  offset="0" style="stop-color:#FEFFB3"/>
	<stop  offset="1" style="stop-color:#FFCD77"/>
</linearGradient>
<polygon style="fill:url(#SVGID_14_);" points="360.055,314.747 360.055,330.567 111.374,474.141 107.478,462.656 107.478,460.572 
	"/>
<linearGradient id="SVGID_15_" gradientUnits="userSpaceOnUse" x1="407.1472" y1="66.3317" x2="259.9472" y2="358.5817" gradientTransform="matrix(1.0039 0 0 -1.0039 0.1922 516.5609)">
	<stop  offset="0" style="stop-color:#FEFFB3"/>
	<stop  offset="1" style="stop-color:#FFCD77"/>
</linearGradient>
<polygon style="fill:url(#SVGID_15_);" points="360.055,176.999 360.055,179.083 225.972,256.497 215.94,246.465 356.158,165.514 
	"/>
<linearGradient id="SVGID_16_" gradientUnits="userSpaceOnUse" x1="383.1093" y1="121.1926" x2="334.6293" y2="187.0426" gradientTransform="matrix(1.0039 0 0 -1.0039 0.1922 516.5609)">
	<stop  offset="0" style="stop-color:#FEFFB3"/>
	<stop  offset="1" style="stop-color:#FFCD77"/>
</linearGradient>
<polygon style="fill:url(#SVGID_16_);" points="360.055,314.747 360.055,330.567 322.009,352.535 311.978,342.503 "/>
<linearGradient id="SVGID_17_" gradientUnits="userSpaceOnUse" x1="368.5386" y1="215.7117" x2="206.5186" y2="377.7317" gradientTransform="matrix(1.0039 0 0 -1.0039 0.1922 516.5609)">
	<stop  offset="0" style="stop-color:#B2D5EC;stop-opacity:0"/>
	<stop  offset="1" style="stop-color:#7797B0"/>
</linearGradient>
<polygon style="fill:url(#SVGID_17_);" points="305.581,336.111 360.055,304.664 360.055,189.179 232.365,262.894 "/>
<linearGradient id="SVGID_18_" gradientUnits="userSpaceOnUse" x1="398.9492" y1="477.6847" x2="280.1391" y2="358.8737" gradientTransform="matrix(1.0039 0 0 -1.0039 0.1922 516.5609)">
	<stop  offset="0" style="stop-color:#FFA981"/>
	<stop  offset="0.536" style="stop-color:#FF8262"/>
	<stop  offset="1" style="stop-color:#FF5C45"/>
</linearGradient>
<path style="fill:url(#SVGID_18_);" d="M285.259,127.517c3.467,0.103,6.984,0.138,10.57,0.138c3.552,0,7.053-0.034,10.485-0.138
	l14.157-29.522l20.901-43.084l47.438,53.94c3.467,3.931,9.45,4.311,13.381,0.862c3.931-3.466,4.328-9.45,0.862-13.381
	l-56.906-64.718c-2.104-2.397-5.26-3.57-8.415-3.138c-3.155,0.432-5.88,2.431-7.26,5.294l-30.73,63.553L285.259,127.517z"/>
<linearGradient id="SVGID_19_" gradientUnits="userSpaceOnUse" x1="319.7497" y1="436.495" x2="357.2597" y2="440.105" gradientTransform="matrix(1.0039 0 0 -1.0039 0.1922 516.5609)">
	<stop  offset="0" style="stop-color:#FFA981;stop-opacity:0"/>
	<stop  offset="1" style="stop-color:#B82934"/>
</linearGradient>
<path style="fill:url(#SVGID_19_);" d="M306.314,127.517c-3.431,0.103-6.932,0.138-10.485,0.138c-3.587,0-7.105-0.034-10.57-0.138
	l14.485-30.195l30.73-63.553c0.963-1.997,2.588-3.559,4.55-4.476l0,0c-6.016,10.963,6.349,25.618,6.349,25.618l-20.901,43.084
	L306.314,127.517z"/>
<g>
</g>
<g>
</g>
<g>
</g>
<g>
</g>
<g>
</g>
<g>
</g>
<g>
</g>
<g>
</g>
<g>
</g>
<g>
</g>
<g>
</g>
<g>
</g>
<g>
</g>
<g>
</g>
<g>
</g>
</svg>
