<?xml version="1.0" encoding="iso-8859-1"?>
<!-- Generator: Adobe Illustrator 19.0.0, SVG Export Plug-In . SVG Version: 6.00 Build 0)  -->
<svg version="1.1" id="Capa_1" xmlns="http://www.w3.org/2000/svg" xmlns:xlink="http://www.w3.org/1999/xlink" x="0px" y="0px"
	 viewBox="0 0 512 512" style="enable-background:new 0 0 512 512;" xml:space="preserve">
<linearGradient id="SVGID_1_" gradientUnits="userSpaceOnUse" x1="268.989" y1="419.0601" x2="398.559" y2="419.0601" gradientTransform="matrix(1.0039 0 0 -1.0039 0.1922 516.5603)">
	<stop  offset="0" style="stop-color:#FEFFB3"/>
	<stop  offset="1" style="stop-color:#FFCD77"/>
</linearGradient>
<path style="fill:url(#SVGID_1_);" d="M138.497,191.714L251.69,19.183c16.78-25.577,54.275-25.577,71.055,0l113.192,172.531H138.497
	z"/>
<linearGradient id="SVGID_2_" gradientUnits="userSpaceOnUse" x1="278.0282" y1="335.6611" x2="154.9682" y2="394.6011" gradientTransform="matrix(1.0039 0 0 -1.0039 0.1922 516.5603)">
	<stop  offset="0" style="stop-color:#FF9111;stop-opacity:0"/>
	<stop  offset="1" style="stop-color:#F26500"/>
</linearGradient>
<polygon style="fill:url(#SVGID_2_);" points="339.041,191.714 217.945,70.618 217.945,70.618 138.497,191.714 "/>
<linearGradient id="SVGID_3_" gradientUnits="userSpaceOnUse" x1="173.219" y1="394.6275" x2="269.6389" y2="394.6275" gradientTransform="matrix(1.0039 0 0 -1.0039 0.1922 516.5603)">
	<stop  offset="0" style="stop-color:#FEFFB3"/>
	<stop  offset="1" style="stop-color:#FFCD77"/>
</linearGradient>
<path style="fill:url(#SVGID_3_);" d="M76.064,191.714l84.228-128.383c12.487-19.032,40.387-19.032,52.873,0l84.228,128.383H76.064z
	"/>
<linearGradient id="SVGID_4_" gradientUnits="userSpaceOnUse" x1="254.8085" y1="-7.0373" x2="254.8085" y2="16.5527" gradientTransform="matrix(1.0039 0 0 -1.0039 0.1922 516.5603)">
	<stop  offset="0" style="stop-color:#00FFF4"/>
	<stop  offset="1" style="stop-color:#00DBFF"/>
</linearGradient>
<path style="fill:url(#SVGID_4_);" d="M361.965,512h-211.93c-7.564,0-13.694-6.131-13.694-13.694V484.08
	c0-7.564,6.131-13.694,13.694-13.694h211.929c7.564,0,13.694,6.131,13.694,13.694v14.226C375.659,505.869,369.528,512,361.965,512z"
	/>
<linearGradient id="SVGID_5_" gradientUnits="userSpaceOnUse" x1="219.4841" y1="173.1443" x2="527.6041" y2="196.7344" gradientTransform="matrix(1.0039 0 0 -1.0039 0.1922 516.5603)">
	<stop  offset="0" style="stop-color:#00FFF4"/>
	<stop  offset="1" style="stop-color:#00DBFF"/>
</linearGradient>
<path style="fill:url(#SVGID_5_);" d="M373.455,502.229H138.545c-11.243,0-20.775-8.267-22.364-19.398L76.732,206.622
	c-1.944-13.609,8.617-25.786,22.364-25.786h313.807c13.748,0,24.308,12.176,22.364,25.786L395.82,482.831
	C394.23,493.961,384.698,502.229,373.455,502.229z"/>
<linearGradient id="SVGID_6_" gradientUnits="userSpaceOnUse" x1="315.7786" y1="112.6426" x2="215.1086" y2="434.7826" gradientTransform="matrix(1.0039 0 0 -1.0039 0.1922 516.5603)">
	<stop  offset="0" style="stop-color:#00DBFF;stop-opacity:0"/>
	<stop  offset="1" style="stop-color:#279AFF"/>
</linearGradient>
<path style="fill:url(#SVGID_6_);" d="M412.904,180.836H99.097c-13.748,0-24.308,12.176-22.364,25.786l2.467,17.271l278.335,278.335
	h15.921c11.243,0,20.774-8.267,22.364-19.397l39.448-276.209C437.211,193.013,426.651,180.836,412.904,180.836z"/>
<linearGradient id="SVGID_7_" gradientUnits="userSpaceOnUse" x1="151.0088" y1="316.8573" x2="515.3688" y2="340.4473" gradientTransform="matrix(1.0039 0 0 -1.0039 0.1922 516.5603)">
	<stop  offset="0" style="stop-color:#00FFF4"/>
	<stop  offset="1" style="stop-color:#00DBFF"/>
</linearGradient>
<path style="fill:url(#SVGID_7_);" d="M425.775,225.05H86.226c-12.117,0-21.941-9.823-21.941-21.941v-22.791
	c0-12.117,9.823-21.941,21.941-21.941h339.547c12.117,0,21.941,9.823,21.941,21.941v22.791
	C447.714,215.226,437.892,225.05,425.775,225.05z"/>
<linearGradient id="SVGID_8_" gradientUnits="userSpaceOnUse" x1="129.704" y1="281.4477" x2="164.814" y2="246.3377" gradientTransform="matrix(1.0039 0 0 -1.0039 0.1922 516.5603)">
	<stop  offset="0" style="stop-color:#00FFF4"/>
	<stop  offset="1" style="stop-color:#00DBFF"/>
</linearGradient>
<circle style="fill:url(#SVGID_8_);" cx="148.731" cy="252.335" r="18.002"/>
<linearGradient id="SVGID_9_" gradientUnits="userSpaceOnUse" x1="218.439" y1="123.6528" x2="76.549" y2="185.4129" gradientTransform="matrix(1.0039 0 0 -1.0039 0.1922 516.5603)">
	<stop  offset="0" style="stop-color:#00DBFF;stop-opacity:0"/>
	<stop  offset="1" style="stop-color:#279AFF"/>
</linearGradient>
<path style="fill:url(#SVGID_9_);" d="M156.84,243.161l-0.318-0.318v-0.017c-1.373-1.34-3.065-2.412-5.025-3.032
	c-6.6-2.094-13.668,1.574-15.762,8.174L99.115,363.339l8.177,57.256l0,0l81.633,81.633h184.53c11.243,0,20.774-8.267,22.364-19.397
	l0.086-0.603L156.84,243.161z"/>
<linearGradient id="SVGID_10_" gradientUnits="userSpaceOnUse" x1="67.3101" y1="158.0533" x2="159.4508" y2="158.0533" gradientTransform="matrix(1.0039 0 0 -1.0039 0.1922 516.5603)">
	<stop  offset="0" style="stop-color:#FFA981"/>
	<stop  offset="0.428" style="stop-color:#FF8666"/>
	<stop  offset="1" style="stop-color:#FF5C45"/>
</linearGradient>
<path style="fill:url(#SVGID_10_);" d="M80.335,476.564c-1.26,0-2.541-0.192-3.805-0.592c-6.612-2.099-10.271-9.162-8.172-15.776
	l67.37-212.225c2.1-6.612,9.164-10.264,15.776-8.172c6.612,2.098,10.271,9.162,8.172,15.776L92.305,467.8
	C90.607,473.147,85.662,476.564,80.335,476.564z"/>
<g>
</g>
<g>
</g>
<g>
</g>
<g>
</g>
<g>
</g>
<g>
</g>
<g>
</g>
<g>
</g>
<g>
</g>
<g>
</g>
<g>
</g>
<g>
</g>
<g>
</g>
<g>
</g>
<g>
</g>
</svg>
