<?xml version="1.0" encoding="iso-8859-1"?>
<!-- Generator: Adobe Illustrator 19.0.0, SVG Export Plug-In . SVG Version: 6.00 Build 0)  -->
<svg version="1.1" id="Capa_1" xmlns="http://www.w3.org/2000/svg" xmlns:xlink="http://www.w3.org/1999/xlink" x="0px" y="0px"
	 viewBox="0 0 512 512" style="enable-background:new 0 0 512 512;" xml:space="preserve">
<path style="fill:#7797B0;" d="M370.588,173.995c-95.29-19.867-190.657-19.865-285.946,0c-4.945,1.031-9.648-3.02-10.587-9.07
	c-0.645-4.148-1.227-7.899-1.868-12.026c-0.973-6.265,2.451-12.266,7.573-13.332c98.544-20.523,197.168-20.527,295.714,0
	c5.121,1.067,8.545,7.068,7.572,13.333c-0.641,4.126-1.224,7.878-1.868,12.026C380.236,170.975,375.534,175.026,370.588,173.995z"/>
<linearGradient id="SVGID_1_" gradientUnits="userSpaceOnUse" x1="431.394" y1="324.355" x2="5.074" y2="189.275" gradientTransform="matrix(1.0039 0 0 -1.0039 0.1922 516.5608)">
	<stop  offset="0" style="stop-color:#605654"/>
	<stop  offset="1" style="stop-color:#413F40"/>
</linearGradient>
<path style="fill:url(#SVGID_1_);" d="M418.34,179.076l-67.986-24.466c-24.212-8.713-49.975-10.59-75.106-5.98
	c-6.67,1.223-13.44,2.184-19.704,2.931c-18.552,2.214-37.309,2.214-55.861,0c-6.262-0.748-13.034-1.708-19.704-2.931
	c-25.131-4.61-50.895-2.733-75.106,5.98l-67.986,24.466c-16.158,5.815-27.084,22.366-27.084,41.03v54.71
	c0,16.032,8.093,30.744,21.017,38.21l78.014,45.067c10.633,6.142,22.839,5.935,32.927,0.506c12.805-6.891,28.21-6.839,40.493,0.945
	l0.439,0.278c27.373,17.558,62.467,17.558,89.84,0l0.439-0.278c12.283-7.783,27.688-7.837,40.493-0.945
	c10.086,5.428,22.294,5.636,32.926-0.506l78.014-45.067c12.925-7.467,21.018-22.179,21.018-38.21v-54.71
	C445.424,201.442,434.498,184.891,418.34,179.076z"/>
<linearGradient id="SVGID_2_" gradientUnits="userSpaceOnUse" x1="226.5357" y1="319.773" x2="226.5357" y2="73.263" gradientTransform="matrix(1.0039 0 0 -1.0039 0.1922 516.5608)">
	<stop  offset="0" style="stop-color:#00FFF4"/>
	<stop  offset="0.554" style="stop-color:#17C5FA"/>
	<stop  offset="1" style="stop-color:#279AFF"/>
</linearGradient>
<path style="fill:url(#SVGID_2_);" d="M383.326,179.076l-55.504-24.466c-19.766-8.713-40.8-10.59-61.318-5.98
	c-5.445,1.223-10.973,2.184-16.086,2.931c-15.146,2.214-30.459,2.214-45.606,0c-5.113-0.748-10.641-1.708-16.086-2.931
	c-20.517-4.61-41.551-2.733-61.318,5.98l-55.504,24.466c-13.192,5.815-22.111,22.366-22.111,41.03v67.785
	c0,16.032,6.607,30.744,17.159,38.21l63.691,31.992c13.888,9.827,31.068-5.753,39.184-23.813l29.686-56.906
	c5.945-13.23,16.605-21.315,28.102-21.315c11.497,0,22.157,8.085,28.102,21.315l29.686,56.906
	c8.116,18.061,25.296,33.64,39.184,23.813l63.691-31.992c10.552-7.467,17.159-22.179,17.159-38.21v-67.785
	C405.438,201.442,396.518,184.891,383.326,179.076z"/>
<linearGradient id="SVGID_3_" gradientUnits="userSpaceOnUse" x1="226.5321" y1="285.813" x2="226.5321" y2="367.443" gradientTransform="matrix(1.0039 0 0 -1.0039 0.1922 516.5608)">
	<stop  offset="0" style="stop-color:#00DBFF;stop-opacity:0"/>
	<stop  offset="1" style="stop-color:#7797B0"/>
</linearGradient>
<path style="fill:url(#SVGID_3_);" d="M418.34,179.076l-67.986-24.466c-24.212-8.713-49.975-10.59-75.106-5.98
	c-6.67,1.223-13.44,2.184-19.704,2.931c-18.552,2.214-37.309,2.214-55.861,0c-6.262-0.748-13.034-1.708-19.704-2.931
	c-25.131-4.61-50.895-2.733-75.106,5.98l-67.986,24.466c-16.158,5.815-27.084,22.366-27.084,41.03v54.71
	c0,16.032,8.093,30.744,21.017,38.21l78.014,45.067c10.633,6.142,22.839,5.935,32.927,0.506c12.805-6.891,28.21-6.839,40.493,0.945
	l0.439,0.278c27.373,17.558,62.467,17.558,89.84,0l0.439-0.278c12.283-7.783,27.688-7.837,40.493-0.945
	c10.086,5.428,22.294,5.636,32.926-0.506l78.014-45.067c12.925-7.467,21.018-22.179,21.018-38.21v-54.71
	C445.424,201.442,434.498,184.891,418.34,179.076z"/>
<linearGradient id="SVGID_4_" gradientUnits="userSpaceOnUse" x1="188.1777" y1="299.9821" x2="249.4077" y2="238.7621" gradientTransform="matrix(1.0039 0 0 -1.0039 0.1922 516.5608)">
	<stop  offset="0" style="stop-color:#FFFFFF;stop-opacity:0"/>
	<stop  offset="0.483" style="stop-color:#FFFFFF"/>
	<stop  offset="0.927" style="stop-color:#FFFFFF;stop-opacity:0.141"/>
	<stop  offset="1" style="stop-color:#FFFFFF;stop-opacity:0"/>
</linearGradient>
<path style="opacity:0.75;fill:url(#SVGID_4_);enable-background:new    ;" d="M383.325,179.076l-55.504-24.466
	c-19.766-8.713-40.8-10.59-61.318-5.98c-5.445,1.223-10.973,2.184-16.086,2.931c-4.599,0.673-9.214,1.115-13.834,1.379
	L64.96,324.565c0.648,0.541,1.311,1.056,1.993,1.538l63.691,31.992c13.888,9.827,31.068-5.753,39.184-23.813l29.686-56.906
	c5.945-13.23,16.605-21.315,28.102-21.315c11.497,0,22.157,8.085,28.102,21.315l23.683,45.397l122.46-122.461
	C398.078,190.464,391.53,182.693,383.325,179.076z"/>
<linearGradient id="SVGID_5_" gradientUnits="userSpaceOnUse" x1="52.0086" y1="261.0876" x2="397.2686" y2="261.0876" gradientTransform="matrix(1.0039 0 0 -1.0039 0.1922 516.5608)">
	<stop  offset="0" style="stop-color:#B2D5EC"/>
	<stop  offset="0.669" style="stop-color:#52ACF9"/>
	<stop  offset="1" style="stop-color:#279AFF"/>
</linearGradient>
<path style="fill:url(#SVGID_5_);" d="M125.721,372.498c-7.541,0-15.014-1.999-21.788-5.912l-78.014-45.067
	C9.932,312.283,0,294.388,0,274.816v-54.709c0-22.835,13.491-43.032,33.569-50.257l67.986-24.467
	c25.417-9.148,53.149-11.359,80.195-6.4c5.797,1.063,12.223,2.019,19.098,2.84c17.761,2.119,35.774,2.119,53.535,0
	c6.876-0.821,13.301-1.777,19.096-2.84c27.047-4.959,54.779-2.749,80.198,6.4l67.985,24.467
	c20.078,7.224,33.569,27.422,33.569,50.257v54.709c0,19.571-9.932,37.467-25.918,46.702l-78.013,45.067
	c-10.26,5.926-22.119,7.458-33.388,4.316c-11.873-3.31-21.855-11.384-28.104-22.737l-36.361-66.061
	c-5.597-10.167-15.253-16.236-25.83-16.236s-20.233,6.071-25.831,16.238l-36.361,66.059c-6.249,11.354-16.229,19.429-28.103,22.739
	C133.493,371.969,129.597,372.497,125.721,372.498z M227.615,246.254c17.57,0,34.05,10.113,43.011,26.393l36.362,66.06
	c3.686,6.696,9.436,11.421,16.189,13.304c6.149,1.713,12.655,0.859,18.312-2.406l78.012-45.067
	c9.942-5.743,16.117-17.131,16.117-29.72v-54.709c0-14.59-8.278-27.371-20.597-31.804h-0.001l-67.985-24.467
	c-22.162-7.975-46.375-9.897-70.016-5.562c-6.195,1.136-13.028,2.152-20.31,3.024c-19.305,2.305-38.881,2.305-58.185,0
	c-7.28-0.869-14.114-1.887-20.311-3.024c-23.644-4.335-47.855-2.413-70.017,5.562l-67.986,24.467
	c-12.32,4.434-20.597,17.214-20.597,31.804v54.709c0,12.589,6.176,23.977,16.117,29.72l78.013,45.067
	c5.656,3.268,12.157,4.119,18.312,2.405c6.753-1.882,12.503-6.607,16.188-13.302l36.362-66.06
	C193.565,256.366,210.046,246.254,227.615,246.254z"/>
<linearGradient id="SVGID_6_" gradientUnits="userSpaceOnUse" x1="188.0308" y1="244.6463" x2="218.4408" y2="186.0363" gradientTransform="matrix(1.0039 0 0 -1.0039 0.1922 516.5608)">
	<stop  offset="0" style="stop-color:#605654"/>
	<stop  offset="1" style="stop-color:#413F40"/>
</linearGradient>
<path style="fill:url(#SVGID_6_);" d="M209.166,278.881l-23.947,80.942c-1.803,4.533,0.631,9.642,5.288,11.096l16.852,5.266
	c13.19,4.122,27.323,4.122,40.512,0l16.851-5.266c4.656-1.455,7.091-6.564,5.288-11.096l-23.947-80.942
	C239.426,262.193,215.804,262.193,209.166,278.881z"/>
<linearGradient id="SVGID_7_" gradientUnits="userSpaceOnUse" x1="426.1288" y1="262.4735" x2="575.9088" y2="203.8635" gradientTransform="matrix(1.0039 0 0 -1.0039 0.1922 516.5608)">
	<stop  offset="0" style="stop-color:#605654"/>
	<stop  offset="1" style="stop-color:#413F40"/>
</linearGradient>
<path style="fill:url(#SVGID_7_);" d="M375.364,479.585c-4.183,0-8.366-1.596-11.557-4.787c-6.383-6.383-6.383-16.73,0-23.114
	l81.205-81.205c22.118-22.118,34.3-51.525,34.3-82.805V48.758c0-9.026,7.318-16.344,16.344-16.344S512,39.732,512,48.758v238.915
	c0,40.01-15.582,77.627-43.873,105.919l-81.205,81.205C383.731,477.989,379.548,479.585,375.364,479.585z"/>
<linearGradient id="SVGID_8_" gradientUnits="userSpaceOnUse" x1="413.4307" y1="99.9951" x2="434.2807" y2="79.1551" gradientTransform="matrix(1.0039 0 0 -1.0039 0.1922 516.5608)">
	<stop  offset="0" style="stop-color:#EFFBFF"/>
	<stop  offset="0.556" style="stop-color:#CBE4F4"/>
	<stop  offset="1" style="stop-color:#B2D5EC"/>
</linearGradient>
<path style="fill:url(#SVGID_8_);" d="M382.825,441.937l13.843,13.843c4.588,4.589,12.028,4.589,16.616,0l41.568-41.568
	c4.589-4.588,4.589-12.028,0-16.616l-13.843-13.843c-4.588-4.588-12.028-4.588-16.616,0l-41.568,41.568
	C378.238,429.909,378.238,437.348,382.825,441.937z"/>
<linearGradient id="SVGID_9_" gradientUnits="userSpaceOnUse" x1="479.1986" y1="435.694" x2="505.2486" y2="435.694" gradientTransform="matrix(1.0039 0 0 -1.0039 0.1922 516.5608)">
	<stop  offset="0" style="stop-color:#B2D5EC"/>
	<stop  offset="0.669" style="stop-color:#52ACF9"/>
	<stop  offset="1" style="stop-color:#279AFF"/>
</linearGradient>
<path style="fill:url(#SVGID_9_);" d="M495.656,32.415c-9.026,0-16.344,7.318-16.344,16.344v77.143H512V48.758
	C512,39.732,504.682,32.415,495.656,32.415z"/>
<g>
</g>
<g>
</g>
<g>
</g>
<g>
</g>
<g>
</g>
<g>
</g>
<g>
</g>
<g>
</g>
<g>
</g>
<g>
</g>
<g>
</g>
<g>
</g>
<g>
</g>
<g>
</g>
<g>
</g>
</svg>
