<?xml version="1.0" encoding="iso-8859-1"?>
<!-- Generator: Adobe Illustrator 19.0.0, SVG Export Plug-In . SVG Version: 6.00 Build 0)  -->
<svg version="1.1" id="Capa_1" xmlns="http://www.w3.org/2000/svg" xmlns:xlink="http://www.w3.org/1999/xlink" x="0px" y="0px"
	 viewBox="0 0 512 512" style="enable-background:new 0 0 512 512;" xml:space="preserve">
<linearGradient id="SVGID_1_" gradientUnits="userSpaceOnUse" x1="322.3311" y1="67.6755" x2="466.9211" y2="-76.9146" gradientTransform="matrix(1.0039 0 0 -1.0039 0.1922 516.5609)">
	<stop  offset="0" style="stop-color:#605654"/>
	<stop  offset="1" style="stop-color:#413F40"/>
</linearGradient>
<path style="fill:url(#SVGID_1_);" d="M449.981,512H284.004c-7.68,0-13.906-6.226-13.906-13.906v-12.537
	c0-7.68,6.226-13.906,13.906-13.906h165.976c7.68,0,13.906,6.226,13.906,13.906v12.537C463.887,505.774,457.661,512,449.981,512z"/>
<linearGradient id="SVGID_2_" gradientUnits="userSpaceOnUse" x1="31.9796" y1="354.314" x2="282.4796" y2="103.814" gradientTransform="matrix(1.0039 0 0 -1.0039 0.1922 516.5609)">
	<stop  offset="0" style="stop-color:#EFFBFF"/>
	<stop  offset="0.181" style="stop-color:#DDF0F9"/>
	<stop  offset="0.483" style="stop-color:#C5E1F2"/>
	<stop  offset="0.763" style="stop-color:#B7D8EE"/>
	<stop  offset="1" style="stop-color:#B2D5EC"/>
</linearGradient>
<path style="fill:url(#SVGID_2_);" d="M224.127,339.863H31.303c-11.621,0-21.043-9.422-21.043-21.043V193.731
	c0-11.621,9.422-21.043,21.043-21.043h192.823c11.621,0,21.043,9.422,21.043,21.043v125.089
	C245.17,330.442,235.748,339.863,224.127,339.863z"/>
<linearGradient id="SVGID_3_" gradientUnits="userSpaceOnUse" x1="31.48" y1="354.8104" x2="239.406" y2="146.8904" gradientTransform="matrix(1.0039 0 0 -1.0039 0.1922 516.5609)">
	<stop  offset="0" style="stop-color:#605654"/>
	<stop  offset="1" style="stop-color:#413F40"/>
</linearGradient>
<path style="fill:url(#SVGID_3_);" d="M207.738,325.654H47.691c-9.647,0-17.466-7.82-17.466-17.466V204.362
	c0-9.647,7.82-17.466,17.466-17.466h160.046c9.647,0,17.466,7.82,17.466,17.466v103.826
	C225.204,317.835,217.384,325.654,207.738,325.654z"/>
<linearGradient id="SVGID_4_" gradientUnits="userSpaceOnUse" x1="225.6314" y1="280.2157" x2="296.0213" y2="209.8357" gradientTransform="matrix(1.0039 0 0 -1.0039 0.1922 516.5609)">
	<stop  offset="0" style="stop-color:#605654"/>
	<stop  offset="1" style="stop-color:#413F40"/>
</linearGradient>
<path style="fill:url(#SVGID_4_);" d="M247.741,303.864L247.741,303.864c-7.244,0-13.117-5.873-13.117-13.117v-68.942
	c0-7.244,5.873-13.117,13.117-13.117l0,0c7.244,0,13.117,5.873,13.117,13.117v68.942
	C260.858,297.991,254.985,303.864,247.741,303.864z"/>
<linearGradient id="SVGID_5_" gradientUnits="userSpaceOnUse" x1="480.8086" y1="158.355" x2="480.8086" y2="73.578" gradientTransform="matrix(1.0039 0 0 -1.0039 0.1922 516.5609)">
	<stop  offset="0" style="stop-color:#FFA981"/>
	<stop  offset="0.428" style="stop-color:#FF8666"/>
	<stop  offset="1" style="stop-color:#FF5C45"/>
</linearGradient>
<path style="fill:url(#SVGID_5_);" d="M467.528,442.694v-85.109h14.732c8.827,0,15.984,7.156,15.984,15.984v53.141
	c0,8.827-7.156,15.984-15.984,15.984L467.528,442.694L467.528,442.694z"/>
<linearGradient id="SVGID_6_" gradientUnits="userSpaceOnUse" x1="236.7691" y1="388.7035" x2="668.8191" y2="-43.3365" gradientTransform="matrix(1.0039 0 0 -1.0039 0.1922 516.5609)">
	<stop  offset="0" style="stop-color:#EFFBFF"/>
	<stop  offset="0.181" style="stop-color:#DDF0F9"/>
	<stop  offset="0.483" style="stop-color:#C5E1F2"/>
	<stop  offset="0.763" style="stop-color:#B7D8EE"/>
	<stop  offset="1" style="stop-color:#B2D5EC"/>
</linearGradient>
<path style="fill:url(#SVGID_6_);" d="M434.693,495.338H299.291c-23.826,0-43.141-19.314-43.141-43.141V58.667
	c0-23.826,19.314-43.141,43.141-43.141h135.402c23.826,0,43.141,19.314,43.141,43.141v393.53
	C477.835,476.023,458.519,495.338,434.693,495.338z"/>
<linearGradient id="SVGID_7_" gradientUnits="userSpaceOnUse" x1="474.3748" y1="282.0459" x2="98.7248" y2="618.7949" gradientTransform="matrix(1.0039 0 0 -1.0039 0.1922 516.5609)">
	<stop  offset="0" style="stop-color:#B2D5EC;stop-opacity:0"/>
	<stop  offset="1" style="stop-color:#7797B0"/>
</linearGradient>
<path style="fill:url(#SVGID_7_);" d="M477.835,58.667c0-23.826-19.314-43.141-43.141-43.141H299.291
	c-23.826,0-43.141,19.314-43.141,43.141v146.57c5.36,7.738,11.501,14.894,18.323,21.339l203.36,203.361V58.667H477.835z"/>
<linearGradient id="SVGID_8_" gradientUnits="userSpaceOnUse" x1="375.4586" y1="156.118" x2="351.4486" y2="156.118" gradientTransform="matrix(1.0039 0 0 -1.0039 0.1922 516.5609)">
	<stop  offset="0" style="stop-color:#B2D5EC;stop-opacity:0"/>
	<stop  offset="1" style="stop-color:#7797B0"/>
</linearGradient>
<rect x="361.753" y="224.316" style="fill:url(#SVGID_8_);" width="10.482" height="271.029"/>
<linearGradient id="SVGID_9_" gradientUnits="userSpaceOnUse" x1="371.8864" y1="308.2708" x2="339.7164" y2="663.9008" gradientTransform="matrix(1.0039 0 0 -1.0039 0.1922 516.5609)">
	<stop  offset="0" style="stop-color:#EFFBFF"/>
	<stop  offset="0.181" style="stop-color:#DDF0F9"/>
	<stop  offset="0.483" style="stop-color:#C5E1F2"/>
	<stop  offset="0.763" style="stop-color:#B7D8EE"/>
	<stop  offset="1" style="stop-color:#B2D5EC"/>
</linearGradient>
<circle style="fill:url(#SVGID_9_);" cx="366.994" cy="134.746" r="134.746"/>
<linearGradient id="SVGID_10_" gradientUnits="userSpaceOnUse" x1="365.3686" y1="289.993" x2="365.3686" y2="602.483" gradientTransform="matrix(1.0039 0 0 -1.0039 0.1922 516.5609)">
	<stop  offset="0" style="stop-color:#B2D5EC"/>
	<stop  offset="0.235" style="stop-color:#ADD0E7"/>
	<stop  offset="0.513" style="stop-color:#A0C2D9"/>
	<stop  offset="0.811" style="stop-color:#89AAC2"/>
	<stop  offset="1" style="stop-color:#7797B0"/>
</linearGradient>
<circle style="fill:url(#SVGID_10_);" cx="366.994" cy="134.746" r="118.403"/>
<linearGradient id="SVGID_11_" gradientUnits="userSpaceOnUse" x1="477.3178" y1="268.3722" x2="392.3078" y2="353.3822" gradientTransform="matrix(1.0039 0 0 -1.0039 0.1922 516.5609)">
	<stop  offset="0" style="stop-color:#B2D5EC;stop-opacity:0"/>
	<stop  offset="1" style="stop-color:#7797B0"/>
</linearGradient>
<path style="fill:url(#SVGID_11_);" d="M485.393,134.747c0-4.57-0.268-9.077-0.772-13.513L434.11,70.723
	c-16.892-17.703-40.716-28.732-67.117-28.732c-51.228,0-92.756,41.528-92.756,92.756c0,26.401,11.03,50.225,28.733,67.117
	l50.511,50.511c4.435,0.504,8.943,0.772,13.513,0.772C432.383,253.148,485.393,200.139,485.393,134.747z"/>
<linearGradient id="SVGID_12_" gradientUnits="userSpaceOnUse" x1="280.2086" y1="465.483" x2="456.0886" y2="289.603" gradientTransform="matrix(1.0039 0 0 -1.0039 0.1922 516.5609)">
	<stop  offset="0" style="stop-color:#B2D5EC"/>
	<stop  offset="0.235" style="stop-color:#ADD0E7"/>
	<stop  offset="0.513" style="stop-color:#A0C2D9"/>
	<stop  offset="0.811" style="stop-color:#89AAC2"/>
	<stop  offset="1" style="stop-color:#7797B0"/>
</linearGradient>
<circle style="fill:url(#SVGID_12_);" cx="366.994" cy="134.746" r="92.752"/>
<linearGradient id="SVGID_13_" gradientUnits="userSpaceOnUse" x1="365.3686" y1="416.783" x2="365.3686" y2="299.823" gradientTransform="matrix(1.0039 0 0 -1.0039 0.1922 516.5609)">
	<stop  offset="0" style="stop-color:#B2D5EC"/>
	<stop  offset="0.235" style="stop-color:#ADD0E7"/>
	<stop  offset="0.513" style="stop-color:#A0C2D9"/>
	<stop  offset="0.811" style="stop-color:#89AAC2"/>
	<stop  offset="1" style="stop-color:#7797B0"/>
</linearGradient>
<circle style="fill:url(#SVGID_13_);" cx="366.994" cy="134.746" r="60.878"/>
<linearGradient id="SVGID_14_" gradientUnits="userSpaceOnUse" x1="365.3686" y1="345.213" x2="365.3686" y2="419.363" gradientTransform="matrix(1.0039 0 0 -1.0039 0.1922 516.5609)">
	<stop  offset="0" style="stop-color:#B2D5EC"/>
	<stop  offset="0.235" style="stop-color:#ADD0E7"/>
	<stop  offset="0.513" style="stop-color:#A0C2D9"/>
	<stop  offset="0.811" style="stop-color:#89AAC2"/>
	<stop  offset="1" style="stop-color:#7797B0"/>
</linearGradient>
<circle style="fill:url(#SVGID_14_);" cx="366.994" cy="134.746" r="51.381"/>
<linearGradient id="SVGID_15_" gradientUnits="userSpaceOnUse" x1="419.1371" y1="326.5515" x2="378.8971" y2="366.7915" gradientTransform="matrix(1.0039 0 0 -1.0039 0.1922 516.5609)">
	<stop  offset="0" style="stop-color:#B2D5EC;stop-opacity:0"/>
	<stop  offset="1" style="stop-color:#7797B0"/>
</linearGradient>
<path style="fill:url(#SVGID_15_);" d="M450.14,158.28l-52.192-52.192c-7.707-8.321-18.72-13.533-30.956-13.533
	c-23.303,0-42.193,18.891-42.193,42.193c0,12.235,5.213,23.249,13.533,30.956l52.192,52.192
	C419.319,209.762,442.007,187.075,450.14,158.28z"/>
<linearGradient id="SVGID_16_" gradientUnits="userSpaceOnUse" x1="365.3686" y1="316.683" x2="365.3686" y2="450.423" gradientTransform="matrix(1.0039 0 0 -1.0039 0.1922 516.5609)">
	<stop  offset="0" style="stop-color:#605654"/>
	<stop  offset="0.351" style="stop-color:#5B5351"/>
	<stop  offset="0.745" style="stop-color:#4E4948"/>
	<stop  offset="1" style="stop-color:#413F40"/>
</linearGradient>
<circle style="fill:url(#SVGID_16_);" cx="366.994" cy="134.746" r="42.195"/>
<linearGradient id="SVGID_17_" gradientUnits="userSpaceOnUse" x1="365.3686" y1="436.393" x2="365.3686" y2="367.723" gradientTransform="matrix(1.0039 0 0 -1.0039 0.1922 516.5609)">
	<stop  offset="0" style="stop-color:#605654"/>
	<stop  offset="0.351" style="stop-color:#5B5351"/>
	<stop  offset="0.745" style="stop-color:#4E4948"/>
	<stop  offset="1" style="stop-color:#413F40"/>
</linearGradient>
<circle style="fill:url(#SVGID_17_);" cx="366.994" cy="134.746" r="33.106"/>
<linearGradient id="SVGID_18_" gradientUnits="userSpaceOnUse" x1="352.8534" y1="392.8278" x2="272.4134" y2="473.2778" gradientTransform="matrix(1.0039 0 0 -1.0039 0.1922 516.5609)">
	<stop  offset="1.000000e-004" style="stop-color:#E7EEED;stop-opacity:0"/>
	<stop  offset="1" style="stop-color:#E7EEED"/>
</linearGradient>
<circle style="fill:url(#SVGID_18_);" cx="351.875" cy="119.637" r="20.209"/>
<linearGradient id="SVGID_19_" gradientUnits="userSpaceOnUse" x1="415.1684" y1="330.5228" x2="307.8584" y2="437.8428" gradientTransform="matrix(1.0039 0 0 -1.0039 0.1922 516.5609)">
	<stop  offset="1.000000e-004" style="stop-color:#E7EEED;stop-opacity:0"/>
	<stop  offset="1" style="stop-color:#E7EEED"/>
</linearGradient>
<circle style="fill:url(#SVGID_19_);" cx="413.576" cy="181.328" r="26.963"/>
<linearGradient id="SVGID_20_" gradientUnits="userSpaceOnUse" x1="359.6223" y1="429.3469" x2="6.5823" y2="588.0969" gradientTransform="matrix(1.0039 0 0 -1.0039 0.1922 516.5609)">
	<stop  offset="1.000000e-004" style="stop-color:#E7EEED;stop-opacity:0"/>
	<stop  offset="1" style="stop-color:#E7EEED"/>
</linearGradient>
<circle style="fill:url(#SVGID_20_);" cx="366.994" cy="88.124" r="68.779"/>
<linearGradient id="SVGID_21_" gradientUnits="userSpaceOnUse" x1="375.1147" y1="77.1301" x2="-0.5353" y2="-5.8199" gradientTransform="matrix(1.0039 0 0 -1.0039 0.1922 516.5609)">
	<stop  offset="0" style="stop-color:#B2D5EC;stop-opacity:0"/>
	<stop  offset="1" style="stop-color:#7797B0"/>
</linearGradient>
<path style="fill:url(#SVGID_21_);" d="M256.151,395.718v56.48c0,23.826,19.314,43.141,43.141,43.141h135.402
	c23.826,0,43.141-19.315,43.141-43.141v-56.48L256.151,395.718L256.151,395.718z"/>
<linearGradient id="SVGID_22_" gradientUnits="userSpaceOnUse" x1="46.2582" y1="311.9126" x2="60.7602" y2="297.4126" gradientTransform="matrix(1.0039 0 0 -1.0039 0.1922 516.5609)">
	<stop  offset="0" style="stop-color:#FFA981"/>
	<stop  offset="0.428" style="stop-color:#FF8666"/>
	<stop  offset="1" style="stop-color:#FF5C45"/>
</linearGradient>
<circle style="fill:url(#SVGID_22_);" cx="52.154" cy="208.946" r="7.727"/>
<g>
	<path style="fill:#EFFBFF;" d="M67.345,217.904v-15.869c0-0.224,0.079-0.416,0.24-0.575c0.16-0.16,0.359-0.24,0.599-0.24h4.555
		c3.675,0,5.514,1.63,5.514,4.89c0,1.353-0.304,2.415-0.911,3.186c-0.607,0.772-1.431,1.285-2.469,1.54l3.356,6.32
		c0.063,0.112,0.095,0.232,0.095,0.36c0,0.32-0.164,0.617-0.491,0.889c-0.327,0.273-0.676,0.409-1.043,0.409
		c-0.416,0-0.751-0.248-1.007-0.745l-3.502-6.877h-2.421v6.709c0,0.256-0.124,0.461-0.371,0.613
		c-0.248,0.153-0.547,0.229-0.899,0.229c-0.335,0-0.627-0.075-0.874-0.228C67.469,218.364,67.345,218.16,67.345,217.904z
		 M69.862,209.179h2.876c1.982,0,2.973-0.951,2.973-2.852c0-1.901-0.991-2.852-2.973-2.852h-2.876V209.179z"/>
	<path style="fill:#EFFBFF;" d="M80.744,217.904v-15.845c0-0.255,0.111-0.459,0.335-0.611c0.224-0.152,0.487-0.228,0.791-0.228
		h8.533c0.271,0,0.48,0.112,0.623,0.335c0.144,0.224,0.216,0.48,0.216,0.767c0,0.32-0.076,0.591-0.228,0.815
		c-0.152,0.224-0.355,0.335-0.611,0.335h-7.119v5.489h3.691c0.255,0,0.459,0.1,0.611,0.299c0.152,0.2,0.228,0.444,0.228,0.731
		c0,0.256-0.072,0.484-0.216,0.683c-0.144,0.2-0.351,0.3-0.623,0.3h-3.691v5.514h7.12c0.255,0,0.459,0.112,0.611,0.335
		c0.152,0.224,0.228,0.496,0.228,0.815c0,0.288-0.072,0.543-0.216,0.767c-0.144,0.224-0.351,0.335-0.623,0.335h-8.533
		c-0.304,0-0.567-0.075-0.791-0.228C80.856,218.364,80.744,218.16,80.744,217.904z"/>
	<path style="fill:#EFFBFF;" d="M92.898,213.542v-6.975c0-1.837,0.491-3.188,1.474-4.051c0.983-0.863,2.265-1.294,3.847-1.294
		c1.63,0,2.944,0.404,3.943,1.211c0.999,0.807,1.498,1.85,1.498,3.128c0,0.512-0.096,0.859-0.287,1.043
		c-0.192,0.184-0.52,0.276-0.983,0.276c-0.831,0-1.255-0.279-1.27-0.839c-0.096-1.71-1.031-2.565-2.805-2.565
		c-1.917,0-2.876,1.031-2.876,3.092v6.975c0,2.061,0.975,3.092,2.924,3.092c0.575,0,1.055-0.084,1.439-0.252
		c0.384-0.168,0.66-0.412,0.827-0.731s0.283-0.599,0.347-0.839c0.063-0.24,0.111-0.535,0.144-0.886
		c0.048-0.559,0.463-0.839,1.247-0.839c0.464,0,0.795,0.092,0.995,0.276s0.299,0.531,0.299,1.043c0,1.326-0.503,2.405-1.51,3.236
		c-1.007,0.831-2.325,1.247-3.955,1.247c-1.582,0-2.861-0.432-3.835-1.294C93.385,216.73,92.898,215.379,92.898,213.542z"/>
</g>
<g>
</g>
<g>
</g>
<g>
</g>
<g>
</g>
<g>
</g>
<g>
</g>
<g>
</g>
<g>
</g>
<g>
</g>
<g>
</g>
<g>
</g>
<g>
</g>
<g>
</g>
<g>
</g>
<g>
</g>
</svg>
