<?xml version="1.0" encoding="iso-8859-1"?>
<!-- Generator: Adobe Illustrator 19.0.0, SVG Export Plug-In . SVG Version: 6.00 Build 0)  -->
<svg version="1.1" id="Capa_1" xmlns="http://www.w3.org/2000/svg" xmlns:xlink="http://www.w3.org/1999/xlink" x="0px" y="0px"
	 viewBox="0 0 512 512" style="enable-background:new 0 0 512 512;" xml:space="preserve">
<linearGradient id="SVGID_1_" gradientUnits="userSpaceOnUse" x1="151.0616" y1="39.8345" x2="358.556" y2="39.8345" gradientTransform="matrix(1.0039 0 0 -1.0039 0.1922 516.5609)">
	<stop  offset="0" style="stop-color:#FFA981"/>
	<stop  offset="0.428" style="stop-color:#FF8666"/>
	<stop  offset="1" style="stop-color:#FF5C45"/>
</linearGradient>
<path style="fill:url(#SVGID_1_);" d="M337.041,512H174.959c-17.942,0-29.021-19.577-19.784-34.96l14.836-24.703
	c4.172-6.947,11.682-11.197,19.784-11.197h132.41c8.103,0,15.613,4.25,19.784,11.197l14.836,24.703
	C366.062,492.423,354.983,512,337.041,512z"/>
<linearGradient id="SVGID_2_" gradientUnits="userSpaceOnUse" x1="269.8287" y1="31.2741" x2="0.4787" y2="-8.8459" gradientTransform="matrix(1.0039 0 0 -1.0039 0.1922 516.5609)">
	<stop  offset="0" style="stop-color:#FF5C45;stop-opacity:0"/>
	<stop  offset="1" style="stop-color:#B82934"/>
</linearGradient>
<path style="fill:url(#SVGID_2_);" d="M155.175,477.04c-9.237,15.382,1.842,34.96,19.784,34.96h162.081
	c17.942,0,29.021-19.577,19.784-34.96l-7.611-12.673H162.787L155.175,477.04z"/>
<linearGradient id="SVGID_3_" gradientUnits="userSpaceOnUse" x1="283.8173" y1="11.2926" x2="265.7972" y2="80.6526" gradientTransform="matrix(1.0039 0 0 -1.0039 0.1922 516.5609)">
	<stop  offset="0" style="stop-color:#FF5C45;stop-opacity:0"/>
	<stop  offset="1" style="stop-color:#B82934"/>
</linearGradient>
<path style="fill:url(#SVGID_3_);" d="M356.825,477.04l-14.835-24.703c-4.171-6.946-11.682-11.197-19.784-11.197H204.471
	c-2.654,4.786-5.544,9.426-8.707,13.86c-3.264,4.575-2.079,10.67,2.105,13.794L241.075,512h95.966
	C354.983,512,366.062,492.423,356.825,477.04z"/>
<linearGradient id="SVGID_4_" gradientUnits="userSpaceOnUse" x1="192.9356" y1="130.0225" x2="318.8836" y2="130.0225" gradientTransform="matrix(1.0039 0 0 -1.0039 0.1922 516.5609)">
	<stop  offset="0" style="stop-color:#FFA981"/>
	<stop  offset="0.428" style="stop-color:#FF8666"/>
	<stop  offset="1" style="stop-color:#FF5C45"/>
</linearGradient>
<path style="fill:url(#SVGID_4_);" d="M281.822,292.86h-24.717h-24.717c0,0,7.313,100.555-36.626,162.141
	c-3.925,5.502-1.432,13.22,5,15.3l0.054,0.017c36.592,11.838,75.985,11.838,112.578,0l0.054-0.017c6.431-2.081,8.925-9.797,5-15.3
	C274.509,393.415,281.822,292.86,281.822,292.86z"/>
<linearGradient id="SVGID_5_" gradientUnits="userSpaceOnUse" x1="269.1577" y1="64.563" x2="268.8077" y2="151.063" gradientTransform="matrix(1.0039 0 0 -1.0039 0.1922 516.5609)">
	<stop  offset="0" style="stop-color:#FF5C45;stop-opacity:0"/>
	<stop  offset="1" style="stop-color:#B82934"/>
</linearGradient>
<path style="fill:url(#SVGID_5_);" d="M293.235,475.58c6.789-1.368,13.521-3.114,20.159-5.262l0.054-0.017
	c6.431-2.081,8.925-9.797,5-15.3c-43.939-61.587-36.626-162.141-36.626-162.141h-24.717h-24.717c0,0,4.057,55.858-12.066,109.809
	L293.235,475.58z"/>
<linearGradient id="SVGID_6_" gradientUnits="userSpaceOnUse" x1="281.4764" y1="41.5708" x2="228.8064" y2="94.2408" gradientTransform="matrix(1.0039 0 0 -1.0039 0.1922 516.5609)">
	<stop  offset="0" style="stop-color:#FF5C45;stop-opacity:0"/>
	<stop  offset="1" style="stop-color:#B82934"/>
</linearGradient>
<path style="fill:url(#SVGID_6_);" d="M301.919,473.589l-35.623-35.618c-0.021-0.021-0.04-0.045-0.061-0.067
	c-0.794-0.8-1.7-1.48-2.662-2.075l-4.9-4.806c-0.554-0.9-1.539-1.505-2.672-1.505c-1.738,0-3.146,1.409-3.146,3.146v1.328
	c-6.45,1.438-11.275,7.184-11.275,14.067c0,4.265,1.855,8.091,4.799,10.728l20.136,20.136
	C278.42,478.311,290.276,476.532,301.919,473.589z"/>
<linearGradient id="SVGID_7_" gradientUnits="userSpaceOnUse" x1="252.6303" y1="76.6234" x2="257.6903" y2="57.1334" gradientTransform="matrix(1.0039 0 0 -1.0039 0.1922 516.5609)">
	<stop  offset="0" style="stop-color:#FEFFB3"/>
	<stop  offset="1" style="stop-color:#FFCD77"/>
</linearGradient>
<circle style="fill:url(#SVGID_7_);" cx="256" cy="448.06" r="14.422"/>
<linearGradient id="SVGID_8_" gradientUnits="userSpaceOnUse" x1="256.7882" y1="60.6029" x2="252.1882" y2="78.3329" gradientTransform="matrix(1.0039 0 0 -1.0039 0.1922 516.5609)">
	<stop  offset="0" style="stop-color:#FEFFB3"/>
	<stop  offset="1" style="stop-color:#FFCD77"/>
</linearGradient>
<circle style="fill:url(#SVGID_8_);" cx="256" cy="448.06" r="13.111"/>
<linearGradient id="SVGID_9_" gradientUnits="userSpaceOnUse" x1="263.6286" y1="68.2325" x2="252.0686" y2="68.2325" gradientTransform="matrix(1.0039 0 0 -1.0039 0.1922 516.5609)">
	<stop  offset="0" style="stop-color:#FF9111;stop-opacity:0"/>
	<stop  offset="1" style="stop-color:#F26500"/>
</linearGradient>
<path style="fill:url(#SVGID_9_);" d="M256.12,433.645v28.832c7.909-0.065,14.302-6.491,14.302-14.416
	C270.422,440.137,264.029,433.71,256.12,433.645z"/>
<linearGradient id="SVGID_10_" gradientUnits="userSpaceOnUse" x1="251.8571" y1="76.2545" x2="259.0271" y2="56.7645" gradientTransform="matrix(1.0039 0 0 -1.0039 0.1922 516.5609)">
	<stop  offset="0" style="stop-color:#FEFFB3"/>
	<stop  offset="1" style="stop-color:#FFCD77"/>
</linearGradient>
<path style="fill:url(#SVGID_10_);" d="M256,466.604L256,466.604c-1.738,0-3.146-1.409-3.146-3.146v-30.791
	c0-1.738,1.409-3.146,3.146-3.146l0,0c1.738,0,3.146,1.409,3.146,3.146v30.791C259.146,465.195,257.738,466.604,256,466.604z"/>
<linearGradient id="SVGID_11_" gradientUnits="userSpaceOnUse" x1="340.5156" y1="404.916" x2="114.4356" y2="178.846" gradientTransform="matrix(1.0039 0 0 -1.0039 0.1922 516.5609)">
	<stop  offset="0" style="stop-color:#AFDC00"/>
	<stop  offset="0.26" style="stop-color:#96BC00"/>
	<stop  offset="0.759" style="stop-color:#698400"/>
	<stop  offset="1" style="stop-color:#586E00"/>
</linearGradient>
<path style="fill:url(#SVGID_11_);" d="M257.608,204.056c0,0-42.18-90.708-8.124-134.48s88.182-25.319,121.149,2.033
	s59.582,102.281,22.095,118.903S327.224,161.129,257.608,204.056z"/>
<linearGradient id="SVGID_12_" gradientUnits="userSpaceOnUse" x1="296.497" y1="157.2126" x2="229.4771" y2="419.6326" gradientTransform="matrix(1.0039 0 0 -1.0039 0.1922 516.5609)">
	<stop  offset="0" style="stop-color:#AFDC00"/>
	<stop  offset="0.26" style="stop-color:#96BC00"/>
	<stop  offset="0.759" style="stop-color:#698400"/>
	<stop  offset="1" style="stop-color:#586E00"/>
</linearGradient>
<path style="fill:url(#SVGID_12_);" d="M257.608,204.056c0,0,98.81,15.615,116.129,68.302c17.32,52.686-28.197,87.304-69.291,99.399
	c-41.094,12.095-118.123-7.632-110.999-48.016C200.574,283.357,254.384,285.778,257.608,204.056z"/>
<linearGradient id="SVGID_13_" gradientUnits="userSpaceOnUse" x1="152.2882" y1="335.5015" x2="344.2682" y2="284.3815" gradientTransform="matrix(1.0039 0 0 -1.0039 0.1922 516.5609)">
	<stop  offset="0" style="stop-color:#AFDC00"/>
	<stop  offset="0.26" style="stop-color:#96BC00"/>
	<stop  offset="0.759" style="stop-color:#698400"/>
	<stop  offset="1" style="stop-color:#586E00"/>
</linearGradient>
<path style="fill:url(#SVGID_13_);" d="M257.608,204.056c0,0-59.884,80.131-114.569,70.888s-64.086-65.65-55.626-107.643
	s61.827-100.939,94.23-75.808S186.816,163.099,257.608,204.056z"/>
<linearGradient id="SVGID_14_" gradientUnits="userSpaceOnUse" x1="364.9456" y1="189.09" x2="232.8356" y2="321.2" gradientTransform="matrix(1.0039 0 0 -1.0039 0.1922 516.5609)">
	<stop  offset="0" style="stop-color:#AFDC00;stop-opacity:0"/>
	<stop  offset="0.472" style="stop-color:#84A600;stop-opacity:0.472"/>
	<stop  offset="1" style="stop-color:#586E00"/>
</linearGradient>
<path style="fill:url(#SVGID_14_);" d="M373.738,272.357c-17.32-52.687-116.13-68.302-116.13-68.302
	c-1.227,31.09-9.777,49.996-20.291,63.72l93.265,93.265C362.038,344.138,387.379,313.854,373.738,272.357z"/>
<g style="opacity:0.5;">
	
		<radialGradient id="SVGID_15_" cx="254.8086" cy="312.263" r="168.33" gradientTransform="matrix(1.0039 0 0 -1.0039 0.1922 516.5609)" gradientUnits="userSpaceOnUse">
		<stop  offset="0" style="stop-color:#FEFFB3;stop-opacity:0"/>
		<stop  offset="0.9" style="stop-color:#FEFFB3;stop-opacity:0.9"/>
		<stop  offset="1" style="stop-color:#FEFFB3"/>
	</radialGradient>
	<circle style="fill:url(#SVGID_15_);" cx="256" cy="203.073" r="142.386"/>
	
		<radialGradient id="SVGID_16_" cx="254.8086" cy="312.263" r="136.54" gradientTransform="matrix(1.0039 0 0 -1.0039 0.1922 516.5609)" gradientUnits="userSpaceOnUse">
		<stop  offset="0" style="stop-color:#FEFFB3;stop-opacity:0"/>
		<stop  offset="0.9" style="stop-color:#FEFFB3;stop-opacity:0.9"/>
		<stop  offset="1" style="stop-color:#FEFFB3"/>
	</radialGradient>
	<circle style="fill:url(#SVGID_16_);" cx="256" cy="203.073" r="115.491"/>
</g>
<linearGradient id="SVGID_17_" gradientUnits="userSpaceOnUse" x1="249.9886" y1="312.273" x2="259.6366" y2="312.273" gradientTransform="matrix(1.0039 0 0 -1.0039 0.1922 516.5609)">
	<stop  offset="0" style="stop-color:#FFA981"/>
	<stop  offset="0.428" style="stop-color:#FF8666"/>
	<stop  offset="1" style="stop-color:#FF5C45"/>
</linearGradient>
<rect x="251.161" y="9.075" style="fill:url(#SVGID_17_);" width="9.686" height="387.976"/>
<linearGradient id="SVGID_18_" gradientUnits="userSpaceOnUse" x1="59.9426" y1="276.6026" x2="7.2196" y2="266.9526" gradientTransform="matrix(1.0039 0 0 -1.0039 0.1922 516.5609)">
	<stop  offset="0" style="stop-color:#FFA981"/>
	<stop  offset="0.428" style="stop-color:#FF8666"/>
	<stop  offset="1" style="stop-color:#FF5C45"/>
</linearGradient>
<rect x="62.01" y="198.224" style="fill:url(#SVGID_18_);" width="387.976" height="9.686"/>
<linearGradient id="SVGID_19_" gradientUnits="userSpaceOnUse" x1="252.3632" y1="316.4357" x2="257.2432" y2="308.1157" gradientTransform="matrix(1.0039 0 0 -1.0039 0.1922 516.5609)">
	<stop  offset="0" style="stop-color:#FFA981"/>
	<stop  offset="0.428" style="stop-color:#FF8666"/>
	<stop  offset="1" style="stop-color:#FF5C45"/>
</linearGradient>
<polygon style="fill:url(#SVGID_19_);" points="91.178,305.487 86.274,297.136 420.822,100.652 425.726,109.004 "/>
<linearGradient id="SVGID_20_" gradientUnits="userSpaceOnUse" x1="258.9738" y1="314.7141" x2="250.6538" y2="309.8241" gradientTransform="matrix(1.0039 0 0 -1.0039 0.1922 516.5609)">
	<stop  offset="0" style="stop-color:#FFA981"/>
	<stop  offset="0.428" style="stop-color:#FF8666"/>
	<stop  offset="1" style="stop-color:#FF5C45"/>
</linearGradient>
<polygon style="fill:url(#SVGID_20_);" points="350.065,372.796 153.582,38.248 161.935,33.344 358.418,367.892 "/>
<linearGradient id="SVGID_21_" gradientUnits="userSpaceOnUse" x1="250.6063" y1="314.6167" x2="259.0262" y2="309.9067" gradientTransform="matrix(1.0039 0 0 -1.0039 0.1922 516.5609)">
	<stop  offset="0" style="stop-color:#FFA981"/>
	<stop  offset="0.428" style="stop-color:#FF8666"/>
	<stop  offset="1" style="stop-color:#FF5C45"/>
</linearGradient>
<polygon style="fill:url(#SVGID_21_);" points="165.391,374.667 156.943,369.932 346.609,31.474 355.057,36.207 "/>
<linearGradient id="SVGID_22_" gradientUnits="userSpaceOnUse" x1="257.1666" y1="316.4729" x2="252.4466" y2="308.0529" gradientTransform="matrix(1.0039 0 0 -1.0039 0.1922 516.5609)">
	<stop  offset="0" style="stop-color:#FFA981"/>
	<stop  offset="0.428" style="stop-color:#FF8666"/>
	<stop  offset="1" style="stop-color:#FF5C45"/>
</linearGradient>
<polygon style="fill:url(#SVGID_22_);" points="422.863,302.127 84.404,112.461 89.137,104.012 427.596,293.678 "/>
<linearGradient id="SVGID_23_" gradientUnits="userSpaceOnUse" x1="52.5316" y1="312.2665" x2="457.0856" y2="312.2665" gradientTransform="matrix(1.0039 0 0 -1.0039 0.1922 516.5609)">
	<stop  offset="0" style="stop-color:#FFA981"/>
	<stop  offset="0.428" style="stop-color:#FF8666"/>
	<stop  offset="1" style="stop-color:#FF5C45"/>
</linearGradient>
<path style="fill:url(#SVGID_23_);" d="M256,406.14c-111.973,0-203.07-91.097-203.07-203.07S144.027,0,256,0
	s203.07,91.097,203.07,203.07S367.973,406.14,256,406.14z M256,18.161c-101.96,0-184.909,82.949-184.909,184.909
	S154.04,387.98,256,387.98s184.909-82.949,184.909-184.909S357.96,18.161,256,18.161z"/>
<radialGradient id="SVGID_24_" cx="237.9286" cy="340.963" r="108.61" gradientTransform="matrix(1.0039 0 0 -1.0039 0.1922 516.5609)" gradientUnits="userSpaceOnUse">
	<stop  offset="0" style="stop-color:#FEFFB3"/>
	<stop  offset="0.196" style="stop-color:#FEFEB0"/>
	<stop  offset="0.347" style="stop-color:#FEF9A6"/>
	<stop  offset="0.484" style="stop-color:#FEF296"/>
	<stop  offset="0.612" style="stop-color:#FEE87E"/>
	<stop  offset="0.733" style="stop-color:#FEDA60"/>
	<stop  offset="0.85" style="stop-color:#FFCA3C"/>
	<stop  offset="0.962" style="stop-color:#FFB611"/>
	<stop  offset="1" style="stop-color:#FFAF00"/>
</radialGradient>
<circle style="fill:url(#SVGID_24_);" cx="256" cy="203.073" r="67.484"/>
<g>
</g>
<g>
</g>
<g>
</g>
<g>
</g>
<g>
</g>
<g>
</g>
<g>
</g>
<g>
</g>
<g>
</g>
<g>
</g>
<g>
</g>
<g>
</g>
<g>
</g>
<g>
</g>
<g>
</g>
</svg>
