<?xml version="1.0" encoding="iso-8859-1"?>
<!-- Generator: Adobe Illustrator 19.0.0, SVG Export Plug-In . SVG Version: 6.00 Build 0)  -->
<svg version="1.1" id="Capa_1" xmlns="http://www.w3.org/2000/svg" xmlns:xlink="http://www.w3.org/1999/xlink" x="0px" y="0px"
	 viewBox="0 0 512 512" style="enable-background:new 0 0 512 512;" xml:space="preserve">
<linearGradient id="SVGID_1_" gradientUnits="userSpaceOnUse" x1="176.8617" y1="347.236" x2="275.6817" y2="248.416" gradientTransform="matrix(1.0039 0 0 -1.0039 0.1922 516.5602)">
	<stop  offset="0" style="stop-color:#FFA981"/>
	<stop  offset="0.428" style="stop-color:#FF8666"/>
	<stop  offset="1" style="stop-color:#FF5C45"/>
</linearGradient>
<path style="fill:url(#SVGID_1_);" d="M410.278,0.219C344.203,13.62,81.623,86.065,10.047,400.236
	c-1.738,7.629,5.091,14.458,12.72,12.72C336.938,341.38,409.383,78.801,422.784,12.724C424.297,5.271,417.733-1.293,410.278,0.219z"
	/>
<linearGradient id="SVGID_2_" gradientUnits="userSpaceOnUse" x1="381.5141" y1="474.8959" x2="353.5441" y2="446.9269" gradientTransform="matrix(1.0039 0 0 -1.0039 0.1922 516.5602)">
	<stop  offset="0" style="stop-color:#FEFFB3"/>
	<stop  offset="1" style="stop-color:#FFCD77"/>
</linearGradient>
<path style="fill:url(#SVGID_2_);" d="M335.116,22.218l65.671,65.671c4.032-10.715,7.442-20.794,10.317-30.059L365.175,11.9
	C355.91,14.774,345.831,18.186,335.116,22.218z"/>
<linearGradient id="SVGID_3_" gradientUnits="userSpaceOnUse" x1="58.5022" y1="151.8848" x2="32.0262" y2="125.4048" gradientTransform="matrix(1.0039 0 0 -1.0039 0.1922 516.5602)">
	<stop  offset="0" style="stop-color:#FEFFB3"/>
	<stop  offset="1" style="stop-color:#FFCD77"/>
</linearGradient>
<path style="fill:url(#SVGID_3_);" d="M95.503,391.616L31.386,327.5c-3.571,9.805-6.948,19.89-10.098,30.277l43.938,43.938
	C75.613,398.565,85.698,395.188,95.503,391.616z"/>
<linearGradient id="SVGID_4_" gradientUnits="userSpaceOnUse" x1="244.6867" y1="279.421" x2="170.0367" y2="354.071" gradientTransform="matrix(1.0039 0 0 -1.0039 0.1922 516.5602)">
	<stop  offset="0" style="stop-color:#FF5C45;stop-opacity:0"/>
	<stop  offset="1" style="stop-color:#B82934"/>
</linearGradient>
<path style="fill:url(#SVGID_4_);" d="M22.654,412.975c0.244-0.055,0.492-0.108,0.735-0.164c0.861-0.197,1.714-0.402,2.571-0.601
	c1.811-0.423,3.618-0.847,5.413-1.283c1.005-0.243,2.003-0.492,3.002-0.74c1.642-0.407,3.28-0.816,4.908-1.234
	c1.031-0.264,2.058-0.53,3.083-0.798c1.612-0.422,3.216-0.848,4.815-1.28c0.989-0.267,1.979-0.533,2.963-0.804
	c1.697-0.467,3.382-0.943,5.064-1.422c0.857-0.244,1.719-0.484,2.572-0.731c2.234-0.647,4.453-1.304,6.661-1.97
	c0.279-0.084,0.563-0.166,0.842-0.25c2.484-0.754,4.948-1.522,7.398-2.3c0.761-0.242,1.513-0.49,2.271-0.735
	c1.687-0.543,3.37-1.089,5.041-1.644c0.921-0.306,1.833-0.616,2.749-0.926c1.508-0.509,3.012-1.022,4.507-1.54
	c0.942-0.326,1.88-0.656,2.817-0.986c1.478-0.521,2.949-1.048,4.413-1.578c0.91-0.329,1.819-0.659,2.724-0.991
	c1.533-0.564,3.054-1.134,4.573-1.708c0.807-0.305,1.619-0.607,2.422-0.915c1.913-0.733,3.813-1.475,5.704-2.224
	c0.387-0.153,0.778-0.302,1.164-0.456c2.27-0.904,4.522-1.82,6.76-2.746c0.663-0.274,1.316-0.553,1.976-0.829
	c1.575-0.659,3.146-1.32,4.706-1.99c0.83-0.356,1.653-0.717,2.479-1.076c1.385-0.602,2.766-1.208,4.138-1.819
	c0.86-0.383,1.718-0.768,2.573-1.155c1.345-0.607,2.683-1.219,4.017-1.834c0.833-0.384,1.668-0.769,2.496-1.157
	c1.388-0.65,2.766-1.305,4.141-1.963c0.745-0.356,1.494-0.711,2.236-1.069c1.672-0.809,3.329-1.625,4.98-2.447
	c0.426-0.212,0.857-0.42,1.282-0.632c2.067-1.035,4.118-2.08,6.155-3.133c0.569-0.294,1.13-0.593,1.698-0.889
	c1.467-0.766,2.929-1.534,4.381-2.309c0.746-0.399,1.486-0.801,2.228-1.203c1.267-0.685,2.531-1.372,3.786-2.064
	c0.78-0.43,1.556-0.862,2.331-1.295c1.221-0.682,2.436-1.366,3.645-2.055c0.76-0.433,1.519-0.864,2.274-1.3
	c1.252-0.721,2.494-1.447,3.734-2.174c0.686-0.403,1.375-0.804,2.057-1.209c1.453-0.862,2.893-1.732,4.329-2.604
	c0.451-0.274,0.907-0.544,1.356-0.819c1.872-1.145,3.731-2.299,5.574-3.461c0.475-0.299,0.942-0.601,1.415-0.902
	c1.369-0.869,2.736-1.741,4.089-2.618c0.663-0.43,1.317-0.862,1.976-1.293c1.159-0.759,2.314-1.519,3.461-2.284
	c0.703-0.469,1.401-0.94,2.1-1.41c1.101-0.743,2.199-1.489,3.289-2.237c0.692-0.475,1.382-0.949,2.069-1.426
	c1.119-0.777,2.232-1.557,3.339-2.34c0.629-0.445,1.262-0.888,1.888-1.334c1.277-0.911,2.543-1.826,3.804-2.744
	c0.44-0.32,0.884-0.638,1.322-0.958c1.692-1.239,3.369-2.485,5.034-3.737c0.375-0.282,0.744-0.567,1.117-0.85
	c1.286-0.974,2.566-1.949,3.836-2.929c0.584-0.452,1.163-0.906,1.744-1.358c1.054-0.822,2.105-1.645,3.148-2.473
	c0.626-0.497,1.25-0.996,1.872-1.495c0.994-0.796,1.984-1.595,2.968-2.395c0.619-0.504,1.238-1.008,1.853-1.514
	c1.003-0.824,1.999-1.652,2.991-2.481c0.571-0.477,1.143-0.953,1.712-1.432c1.114-0.94,2.218-1.883,3.318-2.828
	c0.427-0.366,0.857-0.731,1.282-1.097c1.516-1.31,3.019-2.626,4.509-3.945c0.292-0.259,0.579-0.52,0.87-0.779
	c1.195-1.064,2.383-2.13,3.562-3.201c0.517-0.47,1.028-0.942,1.542-1.413c0.949-0.869,1.894-1.74,2.832-2.612
	c0.558-0.52,1.113-1.041,1.668-1.562c0.888-0.835,1.773-1.672,2.651-2.509c0.556-0.531,1.111-1.061,1.664-1.593
	c0.885-0.853,1.765-1.708,2.64-2.564c0.519-0.508,1.041-1.015,1.556-1.523c0.965-0.952,1.919-1.905,2.872-2.86
	c0.409-0.41,0.822-0.818,1.229-1.229c1.349-1.362,2.688-2.728,4.012-4.096c0.201-0.208,0.398-0.417,0.598-0.625
	c1.121-1.163,2.236-2.327,3.339-3.495c0.454-0.48,0.901-0.961,1.351-1.441c0.848-0.905,1.694-1.809,2.531-2.716
	c0.496-0.537,0.988-1.074,1.48-1.611c0.788-0.861,1.573-1.723,2.351-2.585c0.494-0.547,0.986-1.094,1.476-1.641
	c0.786-0.878,1.566-1.759,2.343-2.639c0.458-0.519,0.918-1.038,1.371-1.558c0.845-0.966,1.682-1.934,2.515-2.902
	c0.372-0.433,0.75-0.865,1.12-1.299c1.192-1.394,2.374-2.79,3.543-4.187c0.121-0.146,0.241-0.291,0.362-0.437
	c1.049-1.258,2.089-2.516,3.12-3.776c0.388-0.474,0.769-0.949,1.155-1.423c0.757-0.933,1.511-1.864,2.258-2.798
	c0.438-0.547,0.871-1.094,1.305-1.641c0.693-0.873,1.381-1.746,2.065-2.62c0.437-0.558,0.871-1.116,1.305-1.675
	c0.684-0.881,1.362-1.763,2.037-2.645c0.412-0.538,0.824-1.075,1.233-1.613c0.724-0.954,1.44-1.907,2.153-2.861
	c0.343-0.46,0.691-0.919,1.032-1.378c1.046-1.408,2.082-2.816,3.106-4.224c0.017-0.023,0.034-0.047,0.051-0.07
	c1.008-1.386,2.003-2.774,2.99-4.16c0.329-0.464,0.654-0.927,0.981-1.389c0.673-0.952,1.343-1.903,2.006-2.855
	c0.376-0.541,0.749-1.081,1.122-1.622c0.608-0.88,1.214-1.761,1.814-2.641c0.378-0.555,0.755-1.109,1.129-1.665
	c0.597-0.883,1.19-1.767,1.779-2.65c0.357-0.536,0.716-1.071,1.07-1.607c0.622-0.941,1.238-1.88,1.85-2.82
	c0.307-0.472,0.618-0.944,0.924-1.415c0.839-1.296,1.671-2.59,2.493-3.884c0.067-0.105,0.136-0.211,0.202-0.315
	c0.888-1.401,1.766-2.8,2.634-4.198c0.275-0.442,0.544-0.883,0.817-1.325c0.591-0.959,1.182-1.916,1.764-2.873
	c0.321-0.528,0.638-1.055,0.958-1.583c0.528-0.875,1.054-1.75,1.575-2.624c0.327-0.55,0.654-1.1,0.978-1.649
	c0.511-0.865,1.018-1.729,1.522-2.592c0.309-0.53,0.619-1.061,0.926-1.591c0.534-0.924,1.062-1.845,1.588-2.767
	c0.265-0.464,0.532-0.928,0.794-1.39c0.676-1.192,1.343-2.382,2.005-3.57c0.103-0.185,0.209-0.371,0.311-0.556
	c0.761-1.37,1.512-2.738,2.254-4.102c0.228-0.42,0.452-0.837,0.678-1.257c0.512-0.947,1.021-1.892,1.524-2.836
	c0.274-0.514,0.544-1.027,0.816-1.541c0.452-0.853,0.901-1.707,1.344-2.557c0.279-0.534,0.555-1.067,0.831-1.6
	c0.434-0.839,0.864-1.677,1.292-2.512c0.265-0.518,0.53-1.036,0.792-1.553c0.447-0.88,0.886-1.758,1.325-2.634
	c0.233-0.465,0.468-0.931,0.698-1.394c0.54-1.088,1.073-2.172,1.602-3.255c0.117-0.241,0.239-0.484,0.355-0.725
	c0.644-1.321,1.277-2.638,1.902-3.95c0.181-0.379,0.357-0.757,0.537-1.135c0.444-0.936,0.884-1.869,1.319-2.8
	c0.227-0.486,0.451-0.97,0.675-1.455c0.38-0.822,0.76-1.642,1.133-2.46c0.234-0.512,0.467-1.022,0.698-1.532
	c0.363-0.8,0.723-1.598,1.08-2.394c0.224-0.499,0.448-0.999,0.669-1.496c0.365-0.822,0.726-1.641,1.085-2.459
	c0.202-0.46,0.406-0.921,0.604-1.378c0.427-0.981,0.847-1.957,1.265-2.93c0.12-0.281,0.244-0.564,0.363-0.844
	c0.534-1.253,1.061-2.5,1.579-3.741c0.137-0.327,0.27-0.652,0.406-0.979c0.38-0.917,0.76-1.831,1.131-2.74
	c0.184-0.448,0.363-0.893,0.545-1.34c0.316-0.78,0.631-1.558,0.942-2.332c0.194-0.482,0.384-0.963,0.576-1.443
	c0.298-0.751,0.594-1.499,0.886-2.244c0.183-0.467,0.366-0.933,0.547-1.397c0.302-0.775,0.599-1.545,0.895-2.314
	c0.163-0.423,0.326-0.847,0.488-1.269c0.336-0.881,0.667-1.758,0.995-2.631c0.112-0.3,0.228-0.603,0.34-0.903
	c0.435-1.163,0.861-2.318,1.281-3.466c0.1-0.275,0.198-0.546,0.298-0.82c0.319-0.877,0.637-1.751,0.947-2.619
	c0.145-0.405,0.287-0.805,0.43-1.208c0.26-0.73,0.517-1.457,0.771-2.18c0.153-0.435,0.303-0.866,0.454-1.298
	c0.243-0.7,0.484-1.396,0.723-2.089c0.146-0.423,0.29-0.844,0.433-1.265c0.24-0.705,0.477-1.404,0.711-2.102
	c0.132-0.391,0.264-0.783,0.394-1.173c0.268-0.805,0.531-1.602,0.792-2.397c0.087-0.267,0.178-0.538,0.265-0.804
	c0.346-1.059,0.686-2.109,1.018-3.15c0.073-0.228,0.143-0.452,0.216-0.68c0.258-0.811,0.514-1.619,0.764-2.418
	c0.11-0.353,0.219-0.703,0.327-1.054c0.209-0.672,0.416-1.342,0.619-2.006c0.115-0.375,0.228-0.748,0.341-1.121
	c0.192-0.632,0.383-1.262,0.569-1.886c0.112-0.374,0.224-0.749,0.334-1.12c0.186-0.624,0.367-1.243,0.548-1.858
	c0.102-0.35,0.207-0.702,0.307-1.05c0.203-0.698,0.402-1.388,0.598-2.075c0.071-0.248,0.144-0.499,0.214-0.745
	c0.266-0.936,0.527-1.861,0.781-2.774c0.041-0.148,0.079-0.29,0.12-0.437c0.21-0.755,0.416-1.503,0.616-2.242
	c0.087-0.32,0.172-0.634,0.257-0.953c0.154-0.568,0.306-1.135,0.455-1.694c0.088-0.332,0.176-0.662,0.262-0.991
	c0.143-0.54,0.283-1.075,0.422-1.606c0.083-0.32,0.166-0.638,0.248-0.955c0.14-0.54,0.276-1.073,0.411-1.603
	c0.074-0.294,0.151-0.589,0.224-0.88c0.145-0.573,0.285-1.137,0.425-1.699c0.057-0.232,0.116-0.468,0.174-0.697
	c0.193-0.781,0.38-1.551,0.563-2.307c0.027-0.11,0.051-0.217,0.078-0.326c0.156-0.649,0.308-1.289,0.457-1.92
	c0.058-0.248,0.114-0.49,0.172-0.735c0.113-0.484,0.225-0.966,0.334-1.438c0.061-0.267,0.121-0.531,0.182-0.794
	c0.1-0.441,0.2-0.878,0.297-1.309c0.059-0.263,0.117-0.524,0.176-0.783c0.095-0.429,0.189-0.851,0.281-1.27
	c0.052-0.24,0.105-0.481,0.157-0.717c0.101-0.465,0.199-0.92,0.295-1.369c0.036-0.17,0.074-0.343,0.109-0.511
	c0.132-0.619,0.259-1.227,0.382-1.818c0.012-0.057,0.023-0.111,0.034-0.169c0.099-0.483,0.196-0.955,0.29-1.418
	c0.752-3.724-0.511-7.224-2.892-9.606l-407,407C15.314,412.528,18.882,413.793,22.654,412.975z"/>
<linearGradient id="SVGID_5_" gradientUnits="userSpaceOnUse" x1="238.0209" y1="282.4552" x2="153.1008" y2="367.3752" gradientTransform="matrix(1.0039 0 0 -1.0039 0.1922 516.5602)">
	<stop  offset="0" style="stop-color:#FFA981"/>
	<stop  offset="0.428" style="stop-color:#FF8666"/>
	<stop  offset="1" style="stop-color:#FF5C45"/>
</linearGradient>
<path style="fill:url(#SVGID_5_);" d="M158.897,256.783L158.897,256.783c-17.157-17.157-17.157-44.975,0-62.132l41.903-41.903
	c17.157-17.157,44.975-17.157,62.132,0l0,0c17.157,17.157,17.157,44.975,0,62.132l-41.903,41.903
	C203.872,273.94,176.054,273.94,158.897,256.783z"/>
<linearGradient id="SVGID_6_" gradientUnits="userSpaceOnUse" x1="184.6009" y1="335.8752" x2="260.9809" y2="259.4952" gradientTransform="matrix(1.0039 0 0 -1.0039 0.1922 516.5602)">
	<stop  offset="0" style="stop-color:#B82934"/>
	<stop  offset="0.383" style="stop-color:#D53E3B"/>
	<stop  offset="1" style="stop-color:#FF5C45"/>
</linearGradient>
<path style="fill:url(#SVGID_6_);" d="M257.702,157.978L257.702,157.978c15.432,15.432,15.432,40.453,0,55.885l-37.69,37.69
	c-15.432,15.432-40.453,15.432-55.885,0l0,0c-15.432-15.432-15.432-40.453,0-55.885l37.69-37.69
	C217.249,142.545,242.27,142.545,257.702,157.978z"/>
<linearGradient id="SVGID_7_" gradientUnits="userSpaceOnUse" x1="414.5099" y1="351.1442" x2="483.5298" y2="282.1242" gradientTransform="matrix(1.0039 0 0 -1.0039 0.1922 516.5602)">
	<stop  offset="0" style="stop-color:#FEFFB3"/>
	<stop  offset="1" style="stop-color:#FFCD77"/>
</linearGradient>
<path style="fill:url(#SVGID_7_);" d="M415.711,239.986l-18.525-10.889l-10.889-18.525c-7.438-12.654-5.384-28.735,4.995-39.114
	l39.674-39.674c10.302-10.302,27.005-10.302,37.309,0l26.225,26.225c10.302,10.302,10.302,27.005,0,37.309l-39.674,39.674
	C444.446,245.37,428.364,247.424,415.711,239.986z"/>
<linearGradient id="SVGID_8_" gradientUnits="userSpaceOnUse" x1="264.6401" y1="162.8344" x2="271.9401" y2="155.5244" gradientTransform="matrix(1.0039 0 0 -1.0039 0.1922 516.5602)">
	<stop  offset="0" style="stop-color:#FFA981"/>
	<stop  offset="0.428" style="stop-color:#FF8666"/>
	<stop  offset="1" style="stop-color:#FF5C45"/>
</linearGradient>
<polygon style="fill:url(#SVGID_8_);" points="145.541,488.073 138.21,480.742 393.52,225.432 400.851,232.763 "/>
<linearGradient id="SVGID_9_" gradientUnits="userSpaceOnUse" x1="444.5033" y1="281.4276" x2="391.6533" y2="334.2876" gradientTransform="matrix(1.0039 0 0 -1.0039 0.1922 516.5602)">
	<stop  offset="0" style="stop-color:#FF9111;stop-opacity:0"/>
	<stop  offset="1" style="stop-color:#F26500"/>
</linearGradient>
<path style="fill:url(#SVGID_9_);" d="M415.711,239.986c8.101,4.762,17.601,5.614,26.115,2.902v-56.776
	c0.344-1.028-0.628-2-1.655-1.655c-7.339,2.459-30.149,11.495-49.341,33.826l6.356,10.814L415.711,239.986z"/>
<linearGradient id="SVGID_10_" gradientUnits="userSpaceOnUse" x1="250.2901" y1="291.0704" x2="5.4201" y2="322.2604" gradientTransform="matrix(1.0039 0 0 -1.0039 0.1922 516.5602)">
	<stop  offset="0" style="stop-color:#FF5C45;stop-opacity:0"/>
	<stop  offset="1" style="stop-color:#B82934"/>
</linearGradient>
<polygon style="fill:url(#SVGID_10_);" points="376.348,242.603 376.348,257.266 400.851,232.763 393.52,225.432 "/>
<linearGradient id="SVGID_11_" gradientUnits="userSpaceOnUse" x1="403.3123" y1="304.4066" x2="416.4023" y2="291.3066" gradientTransform="matrix(1.0039 0 0 -1.0039 0.1922 516.5602)">
	<stop  offset="0" style="stop-color:#FEFFB3"/>
	<stop  offset="1" style="stop-color:#FFCD77"/>
</linearGradient>
<path style="fill:url(#SVGID_11_);" d="M440.17,184.457c-9.165,3.07-42.469,16.379-62.709,53.065
	c-3.999,7.248,4.05,15.298,11.299,11.299c36.686-20.24,49.995-53.544,53.065-62.709C442.17,185.086,441.197,184.113,440.17,184.457z
	"/>
<linearGradient id="SVGID_12_" gradientUnits="userSpaceOnUse" x1="128.3004" y1="31.2247" x2="143.7504" y2="15.7747" gradientTransform="matrix(1.0039 0 0 -1.0039 0.1922 516.5602)">
	<stop  offset="0" style="stop-color:#FEFFB3"/>
	<stop  offset="1" style="stop-color:#FFCD77"/>
</linearGradient>
<path style="fill:url(#SVGID_12_);" d="M118.595,507.688L118.595,507.688c-5.749-5.749-5.749-15.072,0-20.821l12.054-12.054
	c5.749-5.749,15.072-5.749,20.821,0l0,0c5.749,5.749,5.749,15.072,0,20.821l-12.054,12.054
	C133.667,513.437,124.345,513.437,118.595,507.688z"/>
<g>
</g>
<g>
</g>
<g>
</g>
<g>
</g>
<g>
</g>
<g>
</g>
<g>
</g>
<g>
</g>
<g>
</g>
<g>
</g>
<g>
</g>
<g>
</g>
<g>
</g>
<g>
</g>
<g>
</g>
</svg>
