<?xml version="1.0" encoding="iso-8859-1"?>
<!-- Generator: Adobe Illustrator 19.0.0, SVG Export Plug-In . SVG Version: 6.00 Build 0)  -->
<svg version="1.1" id="Capa_1" xmlns="http://www.w3.org/2000/svg" xmlns:xlink="http://www.w3.org/1999/xlink" x="0px" y="0px"
	 viewBox="0 0 512.001 512.001" style="enable-background:new 0 0 512.001 512.001;" xml:space="preserve">
<linearGradient id="SVGID_1_" gradientUnits="userSpaceOnUse" x1="110.0866" y1="219.3295" x2="218.3466" y2="111.0695" gradientTransform="matrix(1.0039 0 0 -1.0039 0.1922 516.5579)">
	<stop  offset="0" style="stop-color:#00FFF4"/>
	<stop  offset="1" style="stop-color:#00DBFF"/>
</linearGradient>
<path style="fill:url(#SVGID_1_);" d="M311.398,323.838c0,0-66.211-4.653-150.053,64.496C77.78,457.253,0,363.712,0,351.627
	c0-10.567,216.486-99.188,216.486-99.188L311.398,323.838z"/>
<path style="fill:#FFA981;" d="M111.789,385.64c-6.597,1.187-13.381,1.533-20.079,1.056l-0.81,11.544
	c2.199,0.159,4.427,0.246,6.64,0.246c5.439,0,10.923-0.492,16.29-1.447L111.789,385.64z M61.618,379.159l-4.572,10.633
	c7.19,3.081,14.496,5.382,21.729,6.814l2.257-11.342C74.58,383.976,68.056,381.921,61.618,379.159z M140.823,374.848
	c-6.076,3.487-12.34,6.249-18.576,8.217l3.472,11.038c7.046-2.214,14.047-5.31,20.846-9.201L140.823,374.848z M34.522,362.956
	l-7.103,9.143c6.047,4.701,12.369,8.868,18.777,12.398l5.57-10.156C45.892,371.115,40.091,367.296,34.522,362.956z M166.849,355.78
	c-3.053,2.358-6.134,4.832-9.187,7.349c-2.503,2.054-5.064,4.022-7.61,5.83l6.684,9.433c2.778-1.968,5.57-4.094,8.289-6.337
	c2.952-2.445,5.946-4.832,8.912-7.118L166.849,355.78z M13.139,342.167c-4.326,2.372-7.711,4.412-9.968,6.062
	c4.195,5.367,9.404,10.937,15.089,16.13l7.797-8.535C20.171,350.427,15.917,345.611,13.139,342.167z M194.393,336.438
	c-6.076,3.848-12.196,7.985-18.185,12.326l6.8,9.375c5.773-4.195,11.69-8.203,17.563-11.906L194.393,336.438z M223.862,320.019
	c-6.466,3.139-13.006,6.626-19.429,10.343l5.802,10.011c6.177-3.588,12.471-6.93,18.677-9.939L223.862,320.019z M255.198,307.201
	c-6.829,2.271-13.773,4.933-20.644,7.913l4.6,10.618c6.554-2.85,13.179-5.382,19.689-7.537L255.198,307.201z M289.542,307.403
	l-9.23-6.944c-4.543,0.926-9.158,2.025-13.816,3.313l3.081,11.154c6.973-1.925,13.845-3.428,20.456-4.455L289.542,307.403z"/>
<linearGradient id="SVGID_2_" gradientUnits="userSpaceOnUse" x1="278.9288" y1="155.5517" x2="191.8088" y2="242.6717" gradientTransform="matrix(1.0039 0 0 -1.0039 0.1922 516.5579)">
	<stop  offset="0" style="stop-color:#B2D5EC;stop-opacity:0"/>
	<stop  offset="1" style="stop-color:#00DBFF"/>
</linearGradient>
<path style="fill:url(#SVGID_2_);" d="M142.526,290.449l65.357,65.357c60.541-34.978,103.515-31.969,103.515-31.969l-94.913-71.399
	c0,0-33.548,13.734-74.227,31.03L142.526,290.449z"/>
<linearGradient id="SVGID_3_" gradientUnits="userSpaceOnUse" x1="359.6948" y1="412.5703" x2="356.7148" y2="396.2604" gradientTransform="matrix(1.0039 0 0 -1.0039 0.1922 516.5579)">
	<stop  offset="0" style="stop-color:#00FFF4"/>
	<stop  offset="1" style="stop-color:#00DBFF"/>
</linearGradient>
<circle style="fill:url(#SVGID_3_);" cx="358.48" cy="117.789" r="19.225"/>
<linearGradient id="SVGID_4_" gradientUnits="userSpaceOnUse" x1="332.3427" y1="262.8607" x2="308.8527" y2="134.2607" gradientTransform="matrix(1.0039 0 0 -1.0039 0.1922 516.5579)">
	<stop  offset="0" style="stop-color:#FFA981"/>
	<stop  offset="0.428" style="stop-color:#FF8666"/>
	<stop  offset="1" style="stop-color:#FF5C45"/>
</linearGradient>
<path style="fill:url(#SVGID_4_);" d="M503.374,341.49l-0.169,0.922c-1.605,8.787-10.03,14.609-18.817,13.004l-337.929-61.741
	c-3.138-0.573-5.218-3.583-4.644-6.721l7.997-43.771c16.226-88.815,101.379-147.659,190.194-131.431l37.898,6.924
	C455.97,132.937,510.886,200.455,512,276.9c0.04,2.79-1.506,5.392-4.041,6.558c-13.411,6.166-23.709,18.544-26.564,34.172
	l-1.755,9.607c-0.461,2.523,1.211,4.942,3.734,5.403l15.893,2.903C502.042,336.05,503.882,338.713,503.374,341.49z"/>
<linearGradient id="SVGID_5_" gradientUnits="userSpaceOnUse" x1="446.0446" y1="295.2545" x2="336.4345" y2="513.9855" gradientTransform="matrix(1.0039 0 0 -1.0039 0.1922 516.5579)">
	<stop  offset="0" style="stop-color:#FFA981;stop-opacity:0"/>
	<stop  offset="1" style="stop-color:#B82934"/>
</linearGradient>
<path style="fill:url(#SVGID_5_);" d="M507.958,283.458c2.535-1.166,4.081-3.768,4.041-6.558
	c-1.113-76.447-56.03-143.963-134.096-158.227l-37.898-6.924l141.598,204.906C484.704,301.493,494.83,289.494,507.958,283.458z"/>
<linearGradient id="SVGID_6_" gradientUnits="userSpaceOnUse" x1="459.8886" y1="275.4717" x2="364.1786" y2="286.5917" gradientTransform="matrix(1.0039 0 0 -1.0039 0.1922 516.5579)">
	<stop  offset="0" style="stop-color:#FFA981;stop-opacity:0"/>
	<stop  offset="1" style="stop-color:#B82934"/>
</linearGradient>
<path style="fill:url(#SVGID_6_);" d="M377.903,118.674l-18.845-3.443c41.569,7.653,69.099,47.531,61.499,89.124l-23.282,127.431
	c-0.753,4.121-4.703,6.851-8.824,6.098l95.937,17.53c8.787,1.605,17.212-4.216,18.817-13.004l0.169-0.922
	c0.507-2.777-1.332-5.438-4.109-5.946l-15.893-2.903c-2.523-0.461-4.194-2.88-3.734-5.403l1.755-9.607
	c2.855-15.628,13.152-28.006,26.564-34.172c2.535-1.166,4.081-3.768,4.041-6.558C510.886,200.454,455.969,132.937,377.903,118.674z"
	/>
<linearGradient id="SVGID_7_" gradientUnits="userSpaceOnUse" x1="210.3689" y1="329.2022" x2="320.0089" y2="280.1622" gradientTransform="matrix(1.0039 0 0 -1.0039 0.1922 516.5579)">
	<stop  offset="0" style="stop-color:#FFA981;stop-opacity:0"/>
	<stop  offset="1" style="stop-color:#B82934"/>
</linearGradient>
<path style="fill:url(#SVGID_7_);" d="M252.627,313.067c-4.121-0.753-6.851-4.703-6.098-8.824l23.282-127.431
	c7.6-41.592,47.45-69.159,89.041-61.62l-18.845-3.443c-88.814-16.226-173.967,42.616-190.194,131.431l-7.997,43.771
	c-0.573,3.138,1.506,6.148,4.644,6.721L252.627,313.067z"/>
<linearGradient id="SVGID_8_" gradientUnits="userSpaceOnUse" x1="321.3083" y1="297.8899" x2="437.5983" y2="277.2398" gradientTransform="matrix(1.0039 0 0 -1.0039 0.1922 516.5579)">
	<stop  offset="0" style="stop-color:#EFFBFF"/>
	<stop  offset="0.181" style="stop-color:#DDF0F9"/>
	<stop  offset="0.483" style="stop-color:#C5E1F2"/>
	<stop  offset="0.763" style="stop-color:#B7D8EE"/>
	<stop  offset="1" style="stop-color:#B2D5EC"/>
</linearGradient>
<path style="fill:url(#SVGID_8_);" d="M388.452,337.883l-135.826-24.816c-4.121-0.753-6.851-4.703-6.098-8.824l23.282-127.431
	c7.606-41.628,47.518-69.208,89.145-61.603l0,0c41.628,7.606,69.208,47.518,61.603,89.145l-23.282,127.431
	C396.524,335.907,392.573,338.636,388.452,337.883z"/>
<linearGradient id="SVGID_9_" gradientUnits="userSpaceOnUse" x1="409.7666" y1="331.6701" x2="320.3366" y2="461.0701" gradientTransform="matrix(1.0039 0 0 -1.0039 0.1922 516.5579)">
	<stop  offset="0" style="stop-color:#B2D5EC;stop-opacity:0"/>
	<stop  offset="1" style="stop-color:#7797B0"/>
</linearGradient>
<path style="fill:url(#SVGID_9_);" d="M358.849,115.193c-5.814-1.054-11.589-1.4-17.252-1.14l75.499,109.255l3.463-18.952
	c7.599-41.592-19.929-81.469-61.497-89.123L358.849,115.193z"/>
<linearGradient id="SVGID_10_" gradientUnits="userSpaceOnUse" x1="325.6436" y1="229.2103" x2="312.0236" y2="172.1003" gradientTransform="matrix(1.0039 0 0 -1.0039 0.1922 516.5579)">
	<stop  offset="0" style="stop-color:#B2D5EC;stop-opacity:0"/>
	<stop  offset="1" style="stop-color:#7797B0"/>
</linearGradient>
<path style="fill:url(#SVGID_10_);" d="M261.745,220.956l-15.217,83.287c-0.753,4.121,1.978,8.072,6.098,8.824l135.826,24.816
	c4.121,0.753,8.072-1.978,8.824-6.098l14.853-81.296L261.745,220.956z"/>
<g>
</g>
<g>
</g>
<g>
</g>
<g>
</g>
<g>
</g>
<g>
</g>
<g>
</g>
<g>
</g>
<g>
</g>
<g>
</g>
<g>
</g>
<g>
</g>
<g>
</g>
<g>
</g>
<g>
</g>
</svg>
