<?xml version="1.0" encoding="iso-8859-1"?>
<!-- Generator: Adobe Illustrator 19.0.0, SVG Export Plug-In . SVG Version: 6.00 Build 0)  -->
<svg version="1.1" id="Capa_1" xmlns="http://www.w3.org/2000/svg" xmlns:xlink="http://www.w3.org/1999/xlink" x="0px" y="0px"
	 viewBox="0 0 512.008 512.008" style="enable-background:new 0 0 512.008 512.008;" xml:space="preserve">
<linearGradient id="SVGID_1_" gradientUnits="userSpaceOnUse" x1="385.1225" y1="138.41" x2="385.1225" y2="732.86" gradientTransform="matrix(1 0 0 -1 0 514)">
	<stop  offset="0.003" style="stop-color:#FFE000"/>
	<stop  offset="0.142" style="stop-color:#DCDE00"/>
	<stop  offset="0.274" style="stop-color:#C3DD00"/>
	<stop  offset="0.393" style="stop-color:#B4DC00"/>
	<stop  offset="0.491" style="stop-color:#AFDC00"/>
	<stop  offset="0.556" style="stop-color:#A1CA00"/>
	<stop  offset="0.759" style="stop-color:#7A9900"/>
	<stop  offset="0.914" style="stop-color:#617A00"/>
	<stop  offset="1" style="stop-color:#586E00"/>
</linearGradient>
<path style="fill:url(#SVGID_1_);" d="M361.68,0c-41.688,0-90.323,24.826-90.323,87.357s54.771,155.738,54.771,200.031
	c0,61.533-9.61,104.809-9.61,137.812s9.115,86.8,76.208,86.8s94.885-42.506,94.885-84.194s-5.366-107.633,2.961-167.478
	s12.588-115.853,2.175-157.502C484.417,69.506,449.792,0,361.68,0z"/>
<linearGradient id="SVGID_2_" gradientUnits="userSpaceOnUse" x1="470.2552" y1="127.6403" x2="113.1352" y2="722.0904" gradientTransform="matrix(1 0 0 -1 0 514)">
	<stop  offset="0.003" style="stop-color:#FFE000"/>
	<stop  offset="0.142" style="stop-color:#DCDE00"/>
	<stop  offset="0.274" style="stop-color:#C3DD00"/>
	<stop  offset="0.393" style="stop-color:#B4DC00"/>
	<stop  offset="0.491" style="stop-color:#AFDC00"/>
	<stop  offset="0.556" style="stop-color:#A1CA00"/>
	<stop  offset="0.759" style="stop-color:#7A9900"/>
	<stop  offset="0.914" style="stop-color:#617A00"/>
	<stop  offset="1" style="stop-color:#586E00"/>
</linearGradient>
<path style="fill:url(#SVGID_2_);" d="M363.366,6.245c-38.688,0-83.825,24.221-83.825,85.226
	c0,61.006,50.831,151.939,50.831,195.151c0,60.031-8.918,102.252-8.918,134.45s8.459,84.681,70.725,84.681
	s88.059-41.469,88.059-82.139c0-40.671-4.979-105.007,2.748-163.392s11.683-113.026,2.019-153.66
	C477.274,74.055,445.139,6.245,363.366,6.245z"/>
<linearGradient id="SVGID_3_" gradientUnits="userSpaceOnUse" x1="432.1773" y1="253.7973" x2="257.8873" y2="380.5473" gradientTransform="matrix(1 0 0 -1 0 514)">
	<stop  offset="0" style="stop-color:#AFDC00;stop-opacity:0"/>
	<stop  offset="0.472" style="stop-color:#84A600;stop-opacity:0.472"/>
	<stop  offset="1" style="stop-color:#586E00"/>
</linearGradient>
<path style="fill:url(#SVGID_3_);" d="M498.493,180.117L380.541,62.164c-2.106-3.653-6.26-5.88-10.705-5.313
	c-5.905,0.753-10.081,6.151-9.328,12.056l0.771,6.237l-51.454,71.552c-0.071,0.099-0.142,0.2-0.209,0.301
	c-7.036,10.464-12.345,21.889-15.818,33.829c15.125,41.544,32.33,81.736,32.33,106.562c0,4.971-0.068,9.811-0.184,14.549
	c0.206,0.2,0.401,0.409,0.607,0.606L482.308,458.3c3.591-9.775,5.302-20.16,5.302-30.494c0-41.688-5.366-107.633,2.961-167.478
	C494.457,232.398,497.456,205.305,498.493,180.117z"/>
<linearGradient id="SVGID_4_" gradientUnits="userSpaceOnUse" x1="274.802" y1="474.416" x2="639.252" y2="474.416" gradientTransform="matrix(1 0 0 -1 0 514)">
	<stop  offset="0" style="stop-color:#FFFFFF"/>
	<stop  offset="0.043" style="stop-color:#FFFCF9"/>
	<stop  offset="0.279" style="stop-color:#FEF0DE"/>
	<stop  offset="0.517" style="stop-color:#FDE7CA"/>
	<stop  offset="0.757" style="stop-color:#FCE2BE"/>
	<stop  offset="1" style="stop-color:#FCE0BA"/>
</linearGradient>
<path style="fill:url(#SVGID_4_);" d="M462.755,57.615H285.138c5.725-15.909,15.507-27.764,27.256-36.062h111.933
	C440.784,31.146,453.363,44.127,462.755,57.615z"/>
<linearGradient id="SVGID_5_" gradientUnits="userSpaceOnUse" x1="274.802" y1="402.277" x2="639.252" y2="402.277" gradientTransform="matrix(1 0 0 -1 0 514)">
	<stop  offset="0" style="stop-color:#FFFFFF"/>
	<stop  offset="0.043" style="stop-color:#FFFCF9"/>
	<stop  offset="0.279" style="stop-color:#FEF0DE"/>
	<stop  offset="0.517" style="stop-color:#FDE7CA"/>
	<stop  offset="0.757" style="stop-color:#FCE2BE"/>
	<stop  offset="1" style="stop-color:#FCE0BA"/>
</linearGradient>
<path style="fill:url(#SVGID_5_);" d="M488.853,129.759H284.698c-2.897-12.666-4.766-24.848-4.996-36.072h201.437
	c1.608,4.612,2.847,8.897,3.747,12.698C486.634,113.734,487.933,121.547,488.853,129.759z"/>
<linearGradient id="SVGID_6_" gradientUnits="userSpaceOnUse" x1="274.802" y1="330.138" x2="639.252" y2="330.138" gradientTransform="matrix(1 0 0 -1 0 514)">
	<stop  offset="0" style="stop-color:#FFFFFF"/>
	<stop  offset="0.043" style="stop-color:#FFFCF9"/>
	<stop  offset="0.279" style="stop-color:#FEF0DE"/>
	<stop  offset="0.517" style="stop-color:#FDE7CA"/>
	<stop  offset="0.757" style="stop-color:#FCE2BE"/>
	<stop  offset="1" style="stop-color:#FCE0BA"/>
</linearGradient>
<path style="fill:url(#SVGID_6_);" d="M490.571,165.831c-0.05,11.561-0.579,23.627-1.499,36.062H307.278
	c-4.216-11.834-8.512-23.975-12.42-36.062H490.571z"/>
<linearGradient id="SVGID_7_" gradientUnits="userSpaceOnUse" x1="274.802" y1="257.9985" x2="639.252" y2="257.9985" gradientTransform="matrix(1 0 0 -1 0 514)">
	<stop  offset="0" style="stop-color:#FFFFFF"/>
	<stop  offset="0.043" style="stop-color:#FFFCF9"/>
	<stop  offset="0.279" style="stop-color:#FEF0DE"/>
	<stop  offset="0.517" style="stop-color:#FDE7CA"/>
	<stop  offset="0.757" style="stop-color:#FCE2BE"/>
	<stop  offset="1" style="stop-color:#FCE0BA"/>
</linearGradient>
<path style="fill:url(#SVGID_7_);" d="M485.625,237.965c-0.839,7.349-1.769,14.772-2.758,22.269
	c-0.599,4.57-1.129,9.171-1.578,13.804h-151.99c-1.689-10.518-5.145-22.764-9.482-36.072h165.808V237.965z"/>
<linearGradient id="SVGID_8_" gradientUnits="userSpaceOnUse" x1="274.802" y1="185.8615" x2="639.252" y2="185.8615" gradientTransform="matrix(1 0 0 -1 0 514)">
	<stop  offset="0" style="stop-color:#FFFFFF"/>
	<stop  offset="0.043" style="stop-color:#FFFCF9"/>
	<stop  offset="0.279" style="stop-color:#FEF0DE"/>
	<stop  offset="0.517" style="stop-color:#FDE7CA"/>
	<stop  offset="0.757" style="stop-color:#FCE2BE"/>
	<stop  offset="1" style="stop-color:#FCE0BA"/>
</linearGradient>
<path style="fill:url(#SVGID_8_);" d="M478.581,346.169h-150.88c0.969-11.182,1.808-23.163,2.288-36.061h149.002
	C478.571,322.311,478.491,334.419,478.581,346.169z"/>
<linearGradient id="SVGID_9_" gradientUnits="userSpaceOnUse" x1="274.802" y1="113.723" x2="639.252" y2="113.723" gradientTransform="matrix(1 0 0 -1 0 514)">
	<stop  offset="0" style="stop-color:#FFFFFF"/>
	<stop  offset="0.043" style="stop-color:#FFFCF9"/>
	<stop  offset="0.279" style="stop-color:#FEF0DE"/>
	<stop  offset="0.517" style="stop-color:#FDE7CA"/>
	<stop  offset="0.757" style="stop-color:#FCE2BE"/>
	<stop  offset="1" style="stop-color:#FCE0BA"/>
</linearGradient>
<path style="fill:url(#SVGID_9_);" d="M480.09,418.313H321.566c0.17-10.813,1.249-22.742,2.598-36.072h155.107
	C479.631,395.37,479.99,407.553,480.09,418.313z"/>
<linearGradient id="SVGID_10_" gradientUnits="userSpaceOnUse" x1="274.802" y1="41.5845" x2="639.252" y2="41.5845" gradientTransform="matrix(1 0 0 -1 0 514)">
	<stop  offset="0" style="stop-color:#FFFFFF"/>
	<stop  offset="0.043" style="stop-color:#FFFCF9"/>
	<stop  offset="0.279" style="stop-color:#FEF0DE"/>
	<stop  offset="0.517" style="stop-color:#FDE7CA"/>
	<stop  offset="0.757" style="stop-color:#FCE2BE"/>
	<stop  offset="1" style="stop-color:#FCE0BA"/>
</linearGradient>
<path style="fill:url(#SVGID_10_);" d="M474.924,454.385c-5.046,14.056-13.928,26.775-27.137,36.061H345.306
	c-10.781-9.666-16.826-22.753-20.123-36.061H474.924z"/>
<linearGradient id="SVGID_11_" gradientUnits="userSpaceOnUse" x1="416.4637" y1="127.7445" x2="-15.7064" y2="-37.8955" gradientTransform="matrix(1 0 0 -1 0 514)">
	<stop  offset="0" style="stop-color:#AFDC00;stop-opacity:0"/>
	<stop  offset="0.472" style="stop-color:#84A600;stop-opacity:0.472"/>
	<stop  offset="1" style="stop-color:#586E00"/>
</linearGradient>
<path style="fill:url(#SVGID_11_);" d="M326.073,295.016c-0.739,57.503-9.554,98.565-9.554,130.185
	c0,33.003,9.115,86.799,76.208,86.799s94.885-42.506,94.885-84.194c0-33.739-3.512-83.367-0.439-132.791L326.073,295.016
	L326.073,295.016z"/>
<linearGradient id="SVGID_12_" gradientUnits="userSpaceOnUse" x1="472.6799" y1="296.6379" x2="240.6398" y2="528.6719" gradientTransform="matrix(1 0 0 -1 0 514)">
	<stop  offset="0" style="stop-color:#BDA88B;stop-opacity:0"/>
	<stop  offset="1" style="stop-color:#5F5446"/>
</linearGradient>
<polygon style="fill:url(#SVGID_12_);" points="448.135,129.757 322.01,129.757 347.944,93.691 412.068,93.691 "/>
<linearGradient id="SVGID_13_" gradientUnits="userSpaceOnUse" x1="436.6181" y1="311.6536" x2="281.1481" y2="381.9636" gradientTransform="matrix(1 0 0 -1 0 514)">
	<stop  offset="0" style="stop-color:#BDA88B;stop-opacity:0"/>
	<stop  offset="1" style="stop-color:#5F5446"/>
</linearGradient>
<path style="fill:url(#SVGID_13_);" d="M490.496,172.118c-0.183,9.626-0.669,19.574-1.423,29.771H307.275
	c-3.525-9.895-7.093-19.995-10.456-30.095c0.755-2.016,1.563-3.999,2.425-5.961h184.967L490.496,172.118z"/>
<linearGradient id="SVGID_14_" gradientUnits="userSpaceOnUse" x1="411.5232" y1="256.1627" x2="256.0532" y2="326.4627" gradientTransform="matrix(1 0 0 -1 0 514)">
	<stop  offset="0" style="stop-color:#BDA88B;stop-opacity:0"/>
	<stop  offset="1" style="stop-color:#5F5446"/>
</linearGradient>
<path style="fill:url(#SVGID_14_);" d="M485.624,237.967c-0.84,7.352-1.768,14.768-2.76,22.269
	c-0.593,4.57-1.121,9.162-1.574,13.797H329.296c-1.682-10.52-5.141-22.765-9.475-36.067L485.624,237.967L485.624,237.967z"/>
<linearGradient id="SVGID_15_" gradientUnits="userSpaceOnUse" x1="431.2155" y1="183.3694" x2="259.9055" y2="247.7395" gradientTransform="matrix(1 0 0 -1 0 514)">
	<stop  offset="0" style="stop-color:#BDA88B;stop-opacity:0"/>
	<stop  offset="1" style="stop-color:#5F5446"/>
</linearGradient>
<path style="fill:url(#SVGID_15_);" d="M478.584,346.166H370.17l-36.056-36.056h144.88
	C478.574,322.312,478.488,334.417,478.584,346.166z"/>
<linearGradient id="SVGID_16_" gradientUnits="userSpaceOnUse" x1="467.6465" y1="108.5259" x2="262.6664" y2="263.9959" gradientTransform="matrix(1 0 0 -1 0 514)">
	<stop  offset="0" style="stop-color:#BDA88B;stop-opacity:0"/>
	<stop  offset="1" style="stop-color:#5F5446"/>
</linearGradient>
<path style="fill:url(#SVGID_16_);" d="M480.094,418.309h-37.781l-36.067-36.066h73.027
	C479.631,395.371,479.986,407.552,480.094,418.309z"/>
<linearGradient id="SVGID_17_" gradientUnits="userSpaceOnUse" x1="359.1678" y1="441.4268" x2="385.1302" y2="436.1212" gradientTransform="matrix(1 0 0 -1 0 514)">
	<stop  offset="0" style="stop-color:#FFA981"/>
	<stop  offset="0.428" style="stop-color:#FF8666"/>
	<stop  offset="1" style="stop-color:#FF5C45"/>
</linearGradient>
<path style="fill:url(#SVGID_17_);" d="M374.462,93.601c-5.905,0.753-11.303-3.423-12.056-9.328l-1.898-15.366
	c-0.753-5.905,3.423-11.303,9.328-12.056s11.302,3.423,12.056,9.328l1.898,15.366C384.543,87.45,380.367,92.848,374.462,93.601z"/>
<linearGradient id="SVGID_18_" gradientUnits="userSpaceOnUse" x1="297.0169" y1="343.6753" x2="516.4506" y2="276.0442" gradientTransform="matrix(1 0 0 -1 0 514)">
	<stop  offset="0" style="stop-color:#FFA981"/>
	<stop  offset="0.428" style="stop-color:#FF8666"/>
	<stop  offset="1" style="stop-color:#FF5C45"/>
</linearGradient>
<path style="fill:url(#SVGID_18_);" d="M475.789,321.55c-1.946,0.057-3.932-0.372-5.776-1.345
	c-5.695-3.006-7.875-10.057-4.87-15.752l11.418-21.635c19.376-36.718,11.447-81.859-19.284-109.773l-83.279-75.654l-45.133,62.764
	c-12.94,19.317-18.605,42.669-15.952,65.772c2.659,23.162,13.517,44.672,30.572,60.569l1.084,1.009
	c4.713,4.387,4.977,11.764,0.59,16.477c-4.387,4.712-11.765,4.977-16.476,0.59l-1.09-1.014
	c-21.115-19.68-34.554-46.303-37.845-74.972c-3.291-28.668,3.765-57.644,19.868-81.59c0.068-0.101,0.139-0.202,0.209-0.301
	l52.874-73.527c1.941-2.698,4.938-4.439,8.243-4.788c3.306-0.342,6.602,0.731,9.06,2.966l92.954,84.441
	c38.607,35.07,48.57,91.783,24.227,137.914l-11.418,21.635C483.733,319.187,479.85,321.431,475.789,321.55z"/>
<linearGradient id="SVGID_19_" gradientUnits="userSpaceOnUse" x1="359.9116" y1="280.873" x2="289.7616" y2="278.803" gradientTransform="matrix(1 0 0 -1 0 514)">
	<stop  offset="0" style="stop-color:#FFA981;stop-opacity:0"/>
	<stop  offset="1" style="stop-color:#B82934"/>
</linearGradient>
<path style="fill:url(#SVGID_19_);" d="M345.158,303.982c4.387-4.713,4.123-12.09-0.59-16.477l-1.084-1.009
	c-17.056-15.895-27.913-37.406-30.572-60.569c-2.652-23.103,3.013-46.454,15.952-65.772l-9.776,13.527
	c-28.929,40.194-24.886,95.343,9.594,130.889l0,0C333.394,308.96,340.772,308.695,345.158,303.982z"/>
<linearGradient id="SVGID_20_" gradientUnits="userSpaceOnUse" x1="487.21" y1="124.0602" x2="481.73" y2="309.0703" gradientTransform="matrix(1 0 0 -1 0 514)">
	<stop  offset="0" style="stop-color:#FFA981;stop-opacity:0"/>
	<stop  offset="1" style="stop-color:#B82934"/>
</linearGradient>
<path style="fill:url(#SVGID_20_);" d="M474.907,190.722l-7.836-7.247c22.4,27.901,26.607,66.904,9.489,99.344l-11.418,21.635
	c-3.005,5.694-0.825,12.746,4.87,15.752c1.843,0.973,3.83,1.402,5.776,1.345c3.526-0.104,6.912-1.813,9.074-4.78l0.902-1.436
	l10.727-20.326C512.217,259.483,503.838,217.48,474.907,190.722z"/>
<linearGradient id="SVGID_21_" gradientUnits="userSpaceOnUse" x1="460.8846" y1="319.5185" x2="293.2646" y2="317.4485" gradientTransform="matrix(1 0 0 -1 0 514)">
	<stop  offset="0" style="stop-color:#FFA981;stop-opacity:0"/>
	<stop  offset="1" style="stop-color:#B82934"/>
</linearGradient>
<path style="fill:url(#SVGID_21_);" d="M476.562,282.819l-11.418,21.635c-3.005,5.694-0.825,12.746,4.87,15.752
	c1.843,0.973,3.83,1.402,5.776,1.345c4.062-0.12,7.944-2.364,9.976-6.214l11.418-21.635c24.343-46.131,14.38-102.844-24.227-137.914
	l-92.955-84.441c-2.437-2.215-5.695-3.285-8.972-2.97l2.968,29.015l83.279,75.654C488.007,200.961,495.937,246.1,476.562,282.819z"
	/>
<linearGradient id="SVGID_22_" gradientUnits="userSpaceOnUse" x1="126.8815" y1="138.41" x2="126.8815" y2="732.86" gradientTransform="matrix(1 0 0 -1 0 514)">
	<stop  offset="0.003" style="stop-color:#FFE000"/>
	<stop  offset="0.142" style="stop-color:#DCDE00"/>
	<stop  offset="0.274" style="stop-color:#C3DD00"/>
	<stop  offset="0.393" style="stop-color:#B4DC00"/>
	<stop  offset="0.491" style="stop-color:#AFDC00"/>
	<stop  offset="0.556" style="stop-color:#A1CA00"/>
	<stop  offset="0.759" style="stop-color:#7A9900"/>
	<stop  offset="0.914" style="stop-color:#617A00"/>
	<stop  offset="1" style="stop-color:#586E00"/>
</linearGradient>
<path style="fill:url(#SVGID_22_);" d="M150.324,0c41.688,0,90.323,24.826,90.323,87.357s-54.771,155.738-54.771,200.031
	c0,61.533,9.61,104.809,9.61,137.812s-9.115,86.8-76.208,86.8s-94.885-42.506-94.885-84.194s5.366-107.633-2.961-167.478
	S8.844,144.475,19.257,102.826C27.587,69.506,62.212,0,150.324,0z"/>
<linearGradient id="SVGID_23_" gradientUnits="userSpaceOnUse" x1="196.4206" y1="141.8896" x2="-133.5494" y2="736.3397" gradientTransform="matrix(1 0 0 -1 0 514)">
	<stop  offset="0.003" style="stop-color:#FFE000"/>
	<stop  offset="0.142" style="stop-color:#DCDE00"/>
	<stop  offset="0.274" style="stop-color:#C3DD00"/>
	<stop  offset="0.393" style="stop-color:#B4DC00"/>
	<stop  offset="0.491" style="stop-color:#AFDC00"/>
	<stop  offset="0.556" style="stop-color:#A1CA00"/>
	<stop  offset="0.759" style="stop-color:#7A9900"/>
	<stop  offset="0.914" style="stop-color:#617A00"/>
	<stop  offset="1" style="stop-color:#586E00"/>
</linearGradient>
<path style="fill:url(#SVGID_23_);" d="M148.634,6.023c38.68,0,83.807,24.243,83.807,85.302s-50.82,152.074-50.82,195.326
	c0,60.086,8.916,102.344,8.916,134.571c0,32.226-8.457,84.757-70.71,84.757s-88.04-41.506-88.04-82.213s4.978-105.102-2.747-163.539
	S17.36,147.1,27.022,106.429C34.75,73.893,66.877,6.023,148.634,6.023z"/>
<linearGradient id="SVGID_24_" gradientUnits="userSpaceOnUse" x1="170.8281" y1="242.6061" x2="7.1281" y2="406.3062" gradientTransform="matrix(1 0 0 -1 0 514)">
	<stop  offset="0" style="stop-color:#AFDC00;stop-opacity:0"/>
	<stop  offset="0.472" style="stop-color:#84A600;stop-opacity:0.472"/>
	<stop  offset="1" style="stop-color:#586E00"/>
</linearGradient>
<path style="fill:url(#SVGID_24_);" d="M149.952,61.847c-1.654-2.652-4.441-4.569-7.783-4.996
	c-5.905-0.753-11.302,3.423-12.056,9.328l-0.958,7.755l-90.106,81.853c-10.554,9.587-18.951,20.799-25.108,32.964
	c1.302,22.706,4.047,46.811,7.492,71.578c2.468,17.734,3.727,36.003,4.285,54.018l0.522,0.989c0.272,0.515,0.581,0.997,0.916,1.453
	l158.548,158.364c7.963-16.375,9.782-35.231,9.782-49.952c0-33.003-9.61-76.28-9.61-137.812c0-32.402,29.306-90.977,45.045-144.573
	L149.952,61.847z"/>
<linearGradient id="SVGID_25_" gradientUnits="userSpaceOnUse" x1="237.192" y1="474.416" x2="-127.258" y2="474.416" gradientTransform="matrix(1 0 0 -1 0 514)">
	<stop  offset="0" style="stop-color:#FFFFFF"/>
	<stop  offset="0.043" style="stop-color:#FFFCF9"/>
	<stop  offset="0.279" style="stop-color:#FEF0DE"/>
	<stop  offset="0.517" style="stop-color:#FDE7CA"/>
	<stop  offset="0.757" style="stop-color:#FCE2BE"/>
	<stop  offset="1" style="stop-color:#FCE0BA"/>
</linearGradient>
<path style="fill:url(#SVGID_25_);" d="M49.249,57.615h177.617c-5.725-15.909-15.507-27.764-27.256-36.062H87.676
	C71.22,31.146,58.641,44.127,49.249,57.615z"/>
<linearGradient id="SVGID_26_" gradientUnits="userSpaceOnUse" x1="237.192" y1="402.277" x2="-127.258" y2="402.277" gradientTransform="matrix(1 0 0 -1 0 514)">
	<stop  offset="0" style="stop-color:#FFFFFF"/>
	<stop  offset="0.043" style="stop-color:#FFFCF9"/>
	<stop  offset="0.279" style="stop-color:#FEF0DE"/>
	<stop  offset="0.517" style="stop-color:#FDE7CA"/>
	<stop  offset="0.757" style="stop-color:#FCE2BE"/>
	<stop  offset="1" style="stop-color:#FCE0BA"/>
</linearGradient>
<path style="fill:url(#SVGID_26_);" d="M23.151,129.759h204.154c2.897-12.666,4.766-24.848,4.996-36.072H30.865
	c-1.608,4.612-2.847,8.897-3.747,12.698C25.37,113.734,24.071,121.547,23.151,129.759z"/>
<linearGradient id="SVGID_27_" gradientUnits="userSpaceOnUse" x1="237.192" y1="330.138" x2="-127.258" y2="330.138" gradientTransform="matrix(1 0 0 -1 0 514)">
	<stop  offset="0" style="stop-color:#FFFFFF"/>
	<stop  offset="0.043" style="stop-color:#FFFCF9"/>
	<stop  offset="0.279" style="stop-color:#FEF0DE"/>
	<stop  offset="0.517" style="stop-color:#FDE7CA"/>
	<stop  offset="0.757" style="stop-color:#FCE2BE"/>
	<stop  offset="1" style="stop-color:#FCE0BA"/>
</linearGradient>
<path style="fill:url(#SVGID_27_);" d="M21.433,165.831c0.05,11.561,0.579,23.627,1.499,36.062h181.793
	c4.216-11.834,8.512-23.975,12.42-36.062H21.433z"/>
<linearGradient id="SVGID_28_" gradientUnits="userSpaceOnUse" x1="237.192" y1="257.9985" x2="-127.258" y2="257.9985" gradientTransform="matrix(1 0 0 -1 0 514)">
	<stop  offset="0" style="stop-color:#FFFFFF"/>
	<stop  offset="0.043" style="stop-color:#FFFCF9"/>
	<stop  offset="0.279" style="stop-color:#FEF0DE"/>
	<stop  offset="0.517" style="stop-color:#FDE7CA"/>
	<stop  offset="0.757" style="stop-color:#FCE2BE"/>
	<stop  offset="1" style="stop-color:#FCE0BA"/>
</linearGradient>
<path style="fill:url(#SVGID_28_);" d="M26.379,237.965c0.839,7.349,1.769,14.772,2.758,22.269c0.599,4.57,1.129,9.171,1.578,13.804
	h151.989c1.689-10.518,5.146-22.764,9.482-36.072H26.379V237.965z"/>
<linearGradient id="SVGID_29_" gradientUnits="userSpaceOnUse" x1="237.192" y1="185.8615" x2="-127.258" y2="185.8615" gradientTransform="matrix(1 0 0 -1 0 514)">
	<stop  offset="0" style="stop-color:#FFFFFF"/>
	<stop  offset="0.043" style="stop-color:#FFFCF9"/>
	<stop  offset="0.279" style="stop-color:#FEF0DE"/>
	<stop  offset="0.517" style="stop-color:#FDE7CA"/>
	<stop  offset="0.757" style="stop-color:#FCE2BE"/>
	<stop  offset="1" style="stop-color:#FCE0BA"/>
</linearGradient>
<path style="fill:url(#SVGID_29_);" d="M33.423,346.169h150.88c-0.969-11.182-1.808-23.163-2.288-36.061H33.013
	C33.433,322.311,33.513,334.419,33.423,346.169z"/>
<linearGradient id="SVGID_30_" gradientUnits="userSpaceOnUse" x1="237.192" y1="113.723" x2="-127.258" y2="113.723" gradientTransform="matrix(1 0 0 -1 0 514)">
	<stop  offset="0" style="stop-color:#FFFFFF"/>
	<stop  offset="0.043" style="stop-color:#FFFCF9"/>
	<stop  offset="0.279" style="stop-color:#FEF0DE"/>
	<stop  offset="0.517" style="stop-color:#FDE7CA"/>
	<stop  offset="0.757" style="stop-color:#FCE2BE"/>
	<stop  offset="1" style="stop-color:#FCE0BA"/>
</linearGradient>
<path style="fill:url(#SVGID_30_);" d="M31.914,418.313h158.523c-0.17-10.813-1.249-22.742-2.598-36.072H32.734
	C32.373,395.37,32.014,407.553,31.914,418.313z"/>
<linearGradient id="SVGID_31_" gradientUnits="userSpaceOnUse" x1="237.192" y1="41.5845" x2="-127.258" y2="41.5845" gradientTransform="matrix(1 0 0 -1 0 514)">
	<stop  offset="0" style="stop-color:#FFFFFF"/>
	<stop  offset="0.043" style="stop-color:#FFFCF9"/>
	<stop  offset="0.279" style="stop-color:#FEF0DE"/>
	<stop  offset="0.517" style="stop-color:#FDE7CA"/>
	<stop  offset="0.757" style="stop-color:#FCE2BE"/>
	<stop  offset="1" style="stop-color:#FCE0BA"/>
</linearGradient>
<path style="fill:url(#SVGID_31_);" d="M37.08,454.385c5.046,14.056,13.928,26.775,27.136,36.061h102.481
	c10.781-9.666,16.826-22.753,20.123-36.061H37.08z"/>
<linearGradient id="SVGID_32_" gradientUnits="userSpaceOnUse" x1="181.4278" y1="345.6058" x2="98.5478" y2="428.4758" gradientTransform="matrix(1 0 0 -1 0 514)">
	<stop  offset="0" style="stop-color:#BDA88B;stop-opacity:0"/>
	<stop  offset="1" style="stop-color:#5F5446"/>
</linearGradient>
<polygon style="fill:url(#SVGID_32_);" points="217.867,129.757 67.705,129.757 107.404,93.691 181.789,93.691 "/>
<linearGradient id="SVGID_33_" gradientUnits="userSpaceOnUse" x1="140.5345" y1="309.6425" x2="20.3425" y2="429.8225" gradientTransform="matrix(1 0 0 -1 0 514)">
	<stop  offset="0" style="stop-color:#BDA88B;stop-opacity:0"/>
	<stop  offset="1" style="stop-color:#5F5446"/>
</linearGradient>
<path style="fill:url(#SVGID_33_);" d="M217.144,165.834c-3.902,12.083-8.203,24.221-12.418,36.056H22.93
	c-0.658-8.904-1.11-17.613-1.336-26.085c2.36-3.438,4.915-6.769,7.675-9.971H217.144z"/>
<linearGradient id="SVGID_34_" gradientUnits="userSpaceOnUse" x1="100.171" y1="269.279" x2="-20.019" y2="389.459" gradientTransform="matrix(1 0 0 -1 0 514)">
	<stop  offset="0" style="stop-color:#BDA88B;stop-opacity:0"/>
	<stop  offset="1" style="stop-color:#5F5446"/>
</linearGradient>
<path style="fill:url(#SVGID_34_);" d="M192.191,237.967c-4.344,13.301-7.793,25.546-9.485,36.067H30.712
	c-0.442-4.635-0.981-9.227-1.574-13.797c-0.992-7.502-1.918-14.918-2.76-22.269h165.813V237.967z"/>
<linearGradient id="SVGID_35_" gradientUnits="userSpaceOnUse" x1="125.0847" y1="180.0527" x2="7.4957" y2="297.6427" gradientTransform="matrix(1 0 0 -1 0 514)">
	<stop  offset="0" style="stop-color:#BDA88B;stop-opacity:0"/>
	<stop  offset="1" style="stop-color:#5F5446"/>
</linearGradient>
<path style="fill:url(#SVGID_35_);" d="M184.301,346.166H56.56L33.331,322.96c-0.064-4.258-0.173-8.547-0.312-12.848h148.997
	C182.49,323.002,183.331,334.989,184.301,346.166z"/>
<linearGradient id="SVGID_36_" gradientUnits="userSpaceOnUse" x1="192.8145" y1="79.2026" x2="-135.1555" y2="407.1626" gradientTransform="matrix(1 0 0 -1 0 514)">
	<stop  offset="0" style="stop-color:#BDA88B;stop-opacity:0"/>
	<stop  offset="1" style="stop-color:#5F5446"/>
</linearGradient>
<path style="fill:url(#SVGID_36_);" d="M190.434,418.309h-61.645L92.68,382.243h95.157
	C189.184,395.566,190.272,407.498,190.434,418.309z"/>
<linearGradient id="SVGID_37_" gradientUnits="userSpaceOnUse" x1="64.1596" y1="171.3276" x2="-79.6704" y2="315.1676" gradientTransform="matrix(1 0 0 -1 0 514)">
	<stop  offset="0" style="stop-color:#BDA88B;stop-opacity:0"/>
	<stop  offset="1" style="stop-color:#5F5446"/>
</linearGradient>
<path style="fill:url(#SVGID_37_);" d="M186.823,454.387c-1.369,5.519-3.213,11.016-5.67,16.233l-16.243-16.233H186.823z"/>
<linearGradient id="SVGID_38_" gradientUnits="userSpaceOnUse" x1="152.836" y1="441.4262" x2="126.8738" y2="436.1218" gradientTransform="matrix(1 0 0 -1 0 514)">
	<stop  offset="0" style="stop-color:#FFA981"/>
	<stop  offset="0.428" style="stop-color:#FF8666"/>
	<stop  offset="1" style="stop-color:#FF5C45"/>
</linearGradient>
<path style="fill:url(#SVGID_38_);" d="M137.542,93.601c5.905,0.753,11.303-3.423,12.056-9.328l1.898-15.366
	c0.753-5.905-3.423-11.303-9.328-12.056s-11.302,3.423-12.056,9.328l-1.898,15.366C127.461,87.45,131.636,92.848,137.542,93.601z"/>
<linearGradient id="SVGID_39_" gradientUnits="userSpaceOnUse" x1="214.9893" y1="343.6738" x2="-4.4438" y2="276.0425" gradientTransform="matrix(1 0 0 -1 0 514)">
	<stop  offset="0" style="stop-color:#FFA981"/>
	<stop  offset="0.428" style="stop-color:#FF8666"/>
	<stop  offset="1" style="stop-color:#FF5C45"/>
</linearGradient>
<path style="fill:url(#SVGID_39_);" d="M36.215,321.55c1.946,0.057,3.932-0.372,5.776-1.345c5.695-3.006,7.875-10.057,4.87-15.752
	l-11.418-21.635C16.068,246.1,23.997,200.96,54.728,173.046l83.279-75.654l45.134,62.764c12.94,19.317,18.605,42.669,15.952,65.772
	c-2.659,23.162-13.517,44.672-30.572,60.569l-1.084,1.009c-4.713,4.387-4.977,11.764-0.59,16.477
	c4.387,4.712,11.765,4.977,16.476,0.59l1.09-1.014c21.115-19.68,34.554-46.303,37.845-74.972
	c3.291-28.668-3.765-57.644-19.868-81.59c-0.068-0.101-0.138-0.202-0.209-0.301L149.308,73.17c-1.941-2.698-4.939-4.439-8.243-4.788
	c-3.306-0.342-6.602,0.731-9.06,2.966l-92.954,84.441c-38.607,35.07-48.57,91.783-24.227,137.914l11.418,21.635
	C28.271,319.187,32.154,321.431,36.215,321.55z"/>
<linearGradient id="SVGID_40_" gradientUnits="userSpaceOnUse" x1="152.0822" y1="280.8772" x2="222.2322" y2="278.7971" gradientTransform="matrix(1 0 0 -1 0 514)">
	<stop  offset="0" style="stop-color:#FFA981;stop-opacity:0"/>
	<stop  offset="1" style="stop-color:#B82934"/>
</linearGradient>
<path style="fill:url(#SVGID_40_);" d="M166.846,303.982c-4.387-4.713-4.123-12.09,0.59-16.477l1.084-1.009
	c17.056-15.895,27.913-37.406,30.572-60.569c2.652-23.103-3.013-46.454-15.952-65.772l9.776,13.527
	c28.929,40.194,24.886,95.343-9.594,130.889l0,0C178.61,308.96,171.232,308.695,166.846,303.982z"/>
<linearGradient id="SVGID_41_" gradientUnits="userSpaceOnUse" x1="24.7953" y1="124.07" x2="30.2733" y2="309.07" gradientTransform="matrix(1 0 0 -1 0 514)">
	<stop  offset="0" style="stop-color:#FFA981;stop-opacity:0"/>
	<stop  offset="1" style="stop-color:#B82934"/>
</linearGradient>
<path style="fill:url(#SVGID_41_);" d="M37.097,190.722l7.836-7.247c-22.4,27.901-26.607,66.904-9.489,99.344l11.418,21.635
	c3.005,5.694,0.825,12.746-4.87,15.752c-1.843,0.973-3.83,1.402-5.776,1.345c-3.526-0.104-6.912-1.813-9.074-4.78l-0.902-1.436
	L15.513,295.01C-0.213,259.483,8.166,217.48,37.097,190.722z"/>
<linearGradient id="SVGID_42_" gradientUnits="userSpaceOnUse" x1="256.7295" y1="326.8484" x2="25.9425" y2="324.7784" gradientTransform="matrix(1 0 0 -1 0 514)">
	<stop  offset="0" style="stop-color:#FFA981;stop-opacity:0"/>
	<stop  offset="1" style="stop-color:#B82934"/>
</linearGradient>
<path style="fill:url(#SVGID_42_);" d="M168.52,286.496l-1.084,1.009c-4.713,4.387-4.977,11.764-0.59,16.477
	c4.387,4.712,11.765,4.977,16.476,0.59l1.09-1.015c21.115-19.68,34.554-46.303,37.845-74.972
	c3.291-28.668-3.765-57.644-19.868-81.59c-0.068-0.101-0.139-0.202-0.209-0.301l-52.874-73.527
	c-1.941-2.698-4.938-4.439-8.243-4.788c-0.029-0.003-0.058-0.002-0.088-0.005l-2.969,29.015l45.134,62.764
	c12.94,19.317,18.605,42.669,15.952,65.772C196.433,249.091,185.576,270.601,168.52,286.496z"/>
<linearGradient id="SVGID_43_" gradientUnits="userSpaceOnUse" x1="379.2923" y1="224.7181" x2="-52.8778" y2="59.0781" gradientTransform="matrix(1 0 0 -1 0 514)">
	<stop  offset="0" style="stop-color:#AFDC00;stop-opacity:0"/>
	<stop  offset="0.472" style="stop-color:#84A600;stop-opacity:0.472"/>
	<stop  offset="1" style="stop-color:#586E00"/>
</linearGradient>
<path style="fill:url(#SVGID_43_);" d="M185.906,295.024c0.74,57.503,9.554,98.565,9.554,130.185
	c0,33.003-9.115,86.799-76.208,86.799s-94.885-42.506-94.885-84.194c0-33.739,3.512-83.367,0.439-132.791h161.099v0.001H185.906z"/>
<g>
</g>
<g>
</g>
<g>
</g>
<g>
</g>
<g>
</g>
<g>
</g>
<g>
</g>
<g>
</g>
<g>
</g>
<g>
</g>
<g>
</g>
<g>
</g>
<g>
</g>
<g>
</g>
<g>
</g>
</svg>
