<?xml version="1.0" encoding="iso-8859-1"?>
<!-- Generator: Adobe Illustrator 19.0.0, SVG Export Plug-In . SVG Version: 6.00 Build 0)  -->
<svg version="1.1" id="Capa_1" xmlns="http://www.w3.org/2000/svg" xmlns:xlink="http://www.w3.org/1999/xlink" x="0px" y="0px"
	 viewBox="0 0 512 512" style="enable-background:new 0 0 512 512;" xml:space="preserve">
<linearGradient id="SVGID_1_" gradientUnits="userSpaceOnUse" x1="97.9671" y1="159.9936" x2="-74.743" y2="-12.7064" gradientTransform="matrix(1.0039 0 0 -1.0039 0.1922 516.5601)">
	<stop  offset="0" style="stop-color:#AFDC00"/>
	<stop  offset="0.236" style="stop-color:#9EC700"/>
	<stop  offset="0.724" style="stop-color:#739000"/>
	<stop  offset="1" style="stop-color:#586E00"/>
</linearGradient>
<path style="fill:url(#SVGID_1_);" d="M302.436,246.993L121.139,428.291c-26.177,26.177-68.771,26.178-94.948,0.001
	S0.013,359.52,26.19,333.343l1.479-1.479l9.644,9.644l-1.479,1.479c-20.859,20.859-20.859,54.801,0.001,75.661
	c20.859,20.859,54.8,20.859,75.66-0.001l181.297-181.297L302.436,246.993z"/>
<linearGradient id="SVGID_2_" gradientUnits="userSpaceOnUse" x1="179.1472" y1="330.3817" x2="240.6772" y2="268.8416" gradientTransform="matrix(1.0039 0 0 -1.0039 0.1922 516.5601)">
	<stop  offset="0" style="stop-color:#FEFFB3"/>
	<stop  offset="1" style="stop-color:#FFCD77"/>
</linearGradient>
<path style="fill:url(#SVGID_2_);" d="M343.215,147.67L142.828,348.057c-32.674,32.674-85.65,32.674-118.323,0l0,0
	c-32.674-32.674-32.674-85.65,0-118.323L224.892,29.346c32.674-32.674,85.65-32.674,118.323,0l0,0
	C375.89,62.021,375.89,114.996,343.215,147.67z"/>
<linearGradient id="SVGID_3_" gradientUnits="userSpaceOnUse" x1="132.039" y1="275.6717" x2="17.651" y2="161.2816" gradientTransform="matrix(1.0039 0 0 -1.0039 0.1922 516.5601)">
	<stop  offset="0" style="stop-color:#FF9111;stop-opacity:0"/>
	<stop  offset="1" style="stop-color:#F26500"/>
</linearGradient>
<polygon style="fill:url(#SVGID_3_);" points="275.404,215.471 147.26,343.616 28.941,225.296 38.765,215.471 "/>
<linearGradient id="SVGID_4_" gradientUnits="userSpaceOnUse" x1="310.1268" y1="453.7618" x2="232.6368" y2="376.2639" gradientTransform="matrix(1.0039 0 0 -1.0039 0.1922 516.5601)">
	<stop  offset="0" style="stop-color:#FF9111;stop-opacity:0"/>
	<stop  offset="1" style="stop-color:#F26500"/>
</linearGradient>
<path style="fill:url(#SVGID_4_);" d="M347.157,33.602H220.637l-9.826,9.826l118.318,118.318l14.282-14.282
	C374.51,116.156,375.748,66.398,347.157,33.602z"/>
<linearGradient id="SVGID_5_" gradientUnits="userSpaceOnUse" x1="207.0191" y1="483.6696" x2="340.0421" y2="350.6426" gradientTransform="matrix(1.0039 0 0 -1.0039 0.1922 516.5601)">
	<stop  offset="0" style="stop-color:#FFA981"/>
	<stop  offset="0.428" style="stop-color:#FF8666"/>
	<stop  offset="1" style="stop-color:#FF5C45"/>
</linearGradient>
<path style="fill:url(#SVGID_5_);" d="M341.569,164.541c-2.663,2.663-6.981,2.663-9.644,0L208.022,40.638
	c-2.663-2.663-2.663-6.981,0-9.644s6.981-2.663,9.644,0l123.903,123.903C344.231,157.56,344.231,161.878,341.569,164.541z"/>
<linearGradient id="SVGID_6_" gradientUnits="userSpaceOnUse" x1="25.8616" y1="302.5131" x2="158.8816" y2="169.4831" gradientTransform="matrix(1.0039 0 0 -1.0039 0.1922 516.5601)">
	<stop  offset="0" style="stop-color:#FFA981"/>
	<stop  offset="0.428" style="stop-color:#FF8666"/>
	<stop  offset="1" style="stop-color:#FF5C45"/>
</linearGradient>
<path style="fill:url(#SVGID_6_);" d="M159.699,346.41c-2.663,2.663-6.981,2.663-9.644,0L26.153,222.507
	c-2.663-2.663-2.663-6.981,0-9.644c2.663-2.662,6.981-2.663,9.644,0l123.903,123.903
	C162.363,339.429,162.363,343.746,159.699,346.41z"/>
<linearGradient id="SVGID_7_" gradientUnits="userSpaceOnUse" x1="345.5516" y1="330.8561" x2="369.2116" y2="307.1961" gradientTransform="matrix(1.0039 0 0 -1.0039 0.1922 516.5601)">
	<stop  offset="0" style="stop-color:#AFDC00"/>
	<stop  offset="0.236" style="stop-color:#9EC700"/>
	<stop  offset="0.724" style="stop-color:#739000"/>
	<stop  offset="1" style="stop-color:#586E00"/>
</linearGradient>
<path style="fill:url(#SVGID_7_);" d="M435.507,128.403L291.095,272.814c-4.962,4.962-13.007,4.962-17.969,0l-7.686-7.686
	c-4.962-4.962-4.962-13.007,0-17.969l144.412-144.412c4.962-4.962,13.007-4.962,17.969,0l7.686,7.686
	C440.468,115.396,440.468,123.441,435.507,128.403z"/>
<linearGradient id="SVGID_8_" gradientUnits="userSpaceOnUse" x1="277.8524" y1="173.1684" x2="263.0623" y2="158.3783" gradientTransform="matrix(1.0039 0 0 -1.0039 0.1922 516.5601)">
	<stop  offset="0" style="stop-color:#AFDC00"/>
	<stop  offset="0.236" style="stop-color:#9EC700"/>
	<stop  offset="0.724" style="stop-color:#739000"/>
	<stop  offset="1" style="stop-color:#586E00"/>
</linearGradient>
<polygon style="fill:url(#SVGID_8_);" points="277.762,353.729 297.349,334.142 287.704,324.498 268.118,344.085 "/>
<linearGradient id="SVGID_9_" gradientUnits="userSpaceOnUse" x1="294.4176" y1="189.7331" x2="286.7976" y2="182.1131" gradientTransform="matrix(1.0039 0 0 -1.0039 0.1922 516.5601)">
	<stop  offset="0" style="stop-color:#AFDC00"/>
	<stop  offset="0.236" style="stop-color:#9EC700"/>
	<stop  offset="0.724" style="stop-color:#739000"/>
	<stop  offset="1" style="stop-color:#586E00"/>
</linearGradient>
<path style="fill:url(#SVGID_9_);" d="M287.311,321.848L287.311,321.848c1.705-1.705,4.468-1.705,6.173,0l6.515,6.515
	c1.705,1.705,1.705,4.468,0,6.173l0,0c-1.705,1.705-4.468,1.705-6.173,0l-6.515-6.515
	C285.606,326.316,285.606,323.552,287.311,321.848z"/>
<linearGradient id="SVGID_10_" gradientUnits="userSpaceOnUse" x1="295.0181" y1="168.7806" x2="256.0381" y2="168.7806" gradientTransform="matrix(1.0039 0 0 -1.0039 0.1922 516.5601)">
	<stop  offset="0" style="stop-color:#AFDC00;stop-opacity:0"/>
	<stop  offset="0.472" style="stop-color:#84A600;stop-opacity:0.472"/>
	<stop  offset="1" style="stop-color:#586E00"/>
</linearGradient>
<polygon style="fill:url(#SVGID_10_);" points="271.697,340.506 268.118,344.085 277.762,353.729 290.985,340.506 "/>
<linearGradient id="SVGID_11_" gradientUnits="userSpaceOnUse" x1="319.8081" y1="255.4541" x2="233.8681" y2="255.4541" gradientTransform="matrix(1.0039 0 0 -1.0039 0.1922 516.5601)">
	<stop  offset="0" style="stop-color:#AFDC00;stop-opacity:0"/>
	<stop  offset="0.472" style="stop-color:#84A600;stop-opacity:0.472"/>
	<stop  offset="1" style="stop-color:#586E00"/>
</linearGradient>
<path style="fill:url(#SVGID_11_);" d="M263.366,249.909l24.981,24.981c0.982-0.554,1.911-1.238,2.749-2.074l27.496-27.496h-51.309
	l-1.841,1.841C264.603,247.996,263.92,248.926,263.366,249.909z"/>
<linearGradient id="SVGID_12_" gradientUnits="userSpaceOnUse" x1="180.9103" y1="211.2148" x2="233.7103" y2="158.4148" gradientTransform="matrix(1.0039 0 0 -1.0039 0.1922 516.5601)">
	<stop  offset="0" style="stop-color:#FFA981"/>
	<stop  offset="0.428" style="stop-color:#FF8666"/>
	<stop  offset="1" style="stop-color:#FF5C45"/>
</linearGradient>
<path style="fill:url(#SVGID_12_);" d="M147.442,414.663L147.442,414.663c10.755,10.755,25.341,16.797,40.55,16.797h30.386
	c21.408,0,38.762,17.355,38.762,38.762v1.38c0,19.637,15.919,35.556,35.556,35.556l0,0c19.637,0,35.556-15.919,35.556-35.556v-2.885
	c0-45.153-17.937-88.457-49.865-120.384l-4.258-4.258c-6.215-6.215-6.215-16.292,0-22.507l27.035-27.035
	c4.192-4.192,4.192-10.988,0-15.18l-42.167-42.167c-4.192-4.192-10.988-4.192-15.18,0l-96.374,96.374
	C125.047,355.957,125.047,392.268,147.442,414.663z"/>
<linearGradient id="SVGID_13_" gradientUnits="userSpaceOnUse" x1="441.4281" y1="390.8171" x2="378.1281" y2="390.8171" gradientTransform="matrix(1.0039 0 0 -1.0039 0.1922 516.5601)">
	<stop  offset="0" style="stop-color:#AFDC00;stop-opacity:0"/>
	<stop  offset="0.472" style="stop-color:#84A600;stop-opacity:0.472"/>
	<stop  offset="1" style="stop-color:#586E00"/>
</linearGradient>
<path style="fill:url(#SVGID_13_);" d="M403.873,108.727l-5.313,5.313l25.654,25.654l11.291-11.292
	c4.962-4.962,4.962-13.007,0-17.969l-1.707-1.707L403.873,108.727L403.873,108.727z"/>
<linearGradient id="SVGID_14_" gradientUnits="userSpaceOnUse" x1="351.5721" y1="381.8766" x2="404.3721" y2="329.0766" gradientTransform="matrix(1.0039 0 0 -1.0039 0.1922 516.5601)">
	<stop  offset="0" style="stop-color:#FFA981"/>
	<stop  offset="0.428" style="stop-color:#FF8666"/>
	<stop  offset="1" style="stop-color:#FF5C45"/>
</linearGradient>
<path style="fill:url(#SVGID_14_);" d="M419.377,176.129l-45.934,45.934c-3.304,3.304-8.661,3.304-11.964,0l-45.287-45.287
	c-3.304-3.304-3.304-8.661,0-11.964l45.934-45.934c15.81-15.81,41.441-15.81,57.251,0l0,0
	C435.186,134.688,435.186,160.32,419.377,176.129z"/>
<linearGradient id="SVGID_15_" gradientUnits="userSpaceOnUse" x1="266.6393" y1="245.2213" x2="242.3694" y2="220.9513" gradientTransform="matrix(1.0039 0 0 -1.0039 0.1922 516.5601)">
	<stop  offset="0" style="stop-color:#FFA981"/>
	<stop  offset="0.428" style="stop-color:#FF8666"/>
	<stop  offset="1" style="stop-color:#FF5C45"/>
</linearGradient>
<path style="fill:url(#SVGID_15_);" d="M279.678,296.343L279.678,296.343c-4.376,4.376-11.472,4.376-15.849,0l-21.919-21.918
	c-4.376-4.376-4.376-11.472,0-15.849l0,0c4.376-4.376,11.472-4.376,15.849,0l21.918,21.918
	C284.055,284.871,284.055,291.967,279.678,296.343z"/>
<linearGradient id="SVGID_16_" gradientUnits="userSpaceOnUse" x1="242.3036" y1="220.887" x2="218.0336" y2="196.607" gradientTransform="matrix(1.0039 0 0 -1.0039 0.1922 516.5601)">
	<stop  offset="0" style="stop-color:#FFA981"/>
	<stop  offset="0.428" style="stop-color:#FF8666"/>
	<stop  offset="1" style="stop-color:#FF5C45"/>
</linearGradient>
<path style="fill:url(#SVGID_16_);" d="M255.248,320.775L255.248,320.775c-4.376,4.376-11.472,4.376-15.849,0l-21.918-21.918
	c-4.376-4.376-4.376-11.472,0-15.849l0,0c4.376-4.376,11.472-4.376,15.849,0l21.918,21.918
	C259.624,309.302,259.624,316.398,255.248,320.775z"/>
<linearGradient id="SVGID_17_" gradientUnits="userSpaceOnUse" x1="217.9696" y1="196.5511" x2="193.6996" y2="172.2811" gradientTransform="matrix(1.0039 0 0 -1.0039 0.1922 516.5601)">
	<stop  offset="0" style="stop-color:#FFA981"/>
	<stop  offset="0.428" style="stop-color:#FF8666"/>
	<stop  offset="1" style="stop-color:#FF5C45"/>
</linearGradient>
<path style="fill:url(#SVGID_17_);" d="M230.816,345.205L230.816,345.205c-4.376,4.376-11.472,4.376-15.849,0l-21.918-21.918
	c-4.376-4.376-4.376-11.472,0-15.849l0,0c4.376-4.376,11.472-4.376,15.849,0l21.918,21.918
	C235.193,333.733,235.193,340.829,230.816,345.205z"/>
<linearGradient id="SVGID_18_" gradientUnits="userSpaceOnUse" x1="193.6301" y1="172.2106" x2="169.3601" y2="147.9406" gradientTransform="matrix(1.0039 0 0 -1.0039 0.1922 516.5601)">
	<stop  offset="0" style="stop-color:#FFA981"/>
	<stop  offset="0.428" style="stop-color:#FF8666"/>
	<stop  offset="1" style="stop-color:#FF5C45"/>
</linearGradient>
<path style="fill:url(#SVGID_18_);" d="M206.386,369.637L206.386,369.637c-4.376,4.376-11.472,4.376-15.849,0l-21.918-21.918
	c-4.376-4.376-4.376-11.472,0-15.849l0,0c4.376-4.376,11.472-4.376,15.849,0l21.918,21.918
	C210.762,358.164,210.762,365.259,206.386,369.637z"/>
<linearGradient id="SVGID_19_" gradientUnits="userSpaceOnUse" x1="356.56" y1="117.7072" x2="271.44" y2="87.4573" gradientTransform="matrix(1.0039 0 0 -1.0039 0.1922 516.5601)">
	<stop  offset="0" style="stop-color:#FFA981;stop-opacity:0"/>
	<stop  offset="1" style="stop-color:#B82934"/>
</linearGradient>
<path style="fill:url(#SVGID_19_);" d="M328.253,471.603v-2.885c0-40.492-14.434-79.492-40.439-110.139h-29.893
	c-2.204-0.383-4.553,0.256-6.256,1.96l-38.317,38.317c-4.482,4.483-1.308,12.146,5.032,12.147
	c17.816-0.001,34.431,7.814,45.93,21.819c8.815,10.737,13.279,24.398,13.29,38.291c0.007,7.937,5.925,14.897,13.836,15.537
	l33.449-0.013C327.023,482.065,328.253,476.983,328.253,471.603z"/>
<linearGradient id="SVGID_20_" gradientUnits="userSpaceOnUse" x1="213.6196" y1="151.8541" x2="303.8796" y2="61.5941" gradientTransform="matrix(1.0039 0 0 -1.0039 0.1922 516.5601)">
	<stop  offset="0" style="stop-color:#FEFFB3"/>
	<stop  offset="1" style="stop-color:#FFCD77"/>
</linearGradient>
<path style="fill:url(#SVGID_20_);" d="M213.348,398.855c-4.482,4.483-1.308,12.146,5.032,12.147l0,0
	c17.816-0.001,34.431,7.814,45.93,21.819c8.815,10.737,13.279,24.398,13.29,38.291l0,0c0.007,7.937,5.925,14.897,13.836,15.537
	c4.841,0.392,9.444-1.478,12.637-5.118c2.511-2.863,3.723-6.645,3.723-10.453v-2.359c-0.001-40.011-15.582-77.628-43.873-105.92
	c0,0-0.925-0.947-2.109-2.171c-2.764-2.859-7.338-2.899-10.149-0.087L213.348,398.855z"/>
<linearGradient id="SVGID_21_" gradientUnits="userSpaceOnUse" x1="467.9461" y1="463.3706" x2="497.9261" y2="433.3906" gradientTransform="matrix(1.0039 0 0 -1.0039 0.1922 516.5601)">
	<stop  offset="0" style="stop-color:#00FFF4"/>
	<stop  offset="1" style="stop-color:#00DBFF"/>
</linearGradient>
<path style="fill:url(#SVGID_21_);" d="M496.341,69.31c-7.566,7.566-28.26,15.994-35.826,8.43c-7.566-7.566,0.864-28.26,8.43-35.826
	c7.566-7.566,19.831-7.566,27.396,0C503.906,49.479,503.906,61.745,496.341,69.31z"/>
<linearGradient id="SVGID_22_" gradientUnits="userSpaceOnUse" x1="427.9091" y1="462.511" x2="455.8091" y2="465.051" gradientTransform="matrix(1.0039 0 0 -1.0039 0.1922 516.5601)">
	<stop  offset="0" style="stop-color:#00FFF4"/>
	<stop  offset="1" style="stop-color:#00DBFF"/>
</linearGradient>
<path style="fill:url(#SVGID_22_);" d="M449.851,44.425c0.968,10.655-2.876,31.684-9.917,32.323s-14.611-19.352-15.579-30.007
	s3.954-19.811,10.996-20.451C442.391,25.651,448.883,33.771,449.851,44.425z"/>
<linearGradient id="SVGID_23_" gradientUnits="userSpaceOnUse" x1="483.9299" y1="406.4942" x2="486.4698" y2="434.3942" gradientTransform="matrix(1.0039 0 0 -1.0039 0.1922 516.5601)">
	<stop  offset="0" style="stop-color:#00FFF4"/>
	<stop  offset="1" style="stop-color:#00DBFF"/>
</linearGradient>
<path style="fill:url(#SVGID_23_);" d="M493.83,88.404c-10.655-0.968-31.684,2.876-32.323,9.917
	c-0.639,7.041,19.352,14.611,30.007,15.579c10.656,0.968,19.811-3.954,20.451-10.996C512.604,95.862,504.484,89.372,493.83,88.404z"
	/>
<g>
</g>
<g>
</g>
<g>
</g>
<g>
</g>
<g>
</g>
<g>
</g>
<g>
</g>
<g>
</g>
<g>
</g>
<g>
</g>
<g>
</g>
<g>
</g>
<g>
</g>
<g>
</g>
<g>
</g>
</svg>
