<?xml version="1.0" encoding="iso-8859-1"?>
<!-- Generator: Adobe Illustrator 19.0.0, SVG Export Plug-In . SVG Version: 6.00 Build 0)  -->
<svg version="1.1" id="Capa_1" xmlns="http://www.w3.org/2000/svg" xmlns:xlink="http://www.w3.org/1999/xlink" x="0px" y="0px"
	 viewBox="0 0 512 512" style="enable-background:new 0 0 512 512;" xml:space="preserve">
<linearGradient id="SVGID_1_" gradientUnits="userSpaceOnUse" x1="254.8089" y1="514.543" x2="254.8089" y2="427.413" gradientTransform="matrix(1.0039 0 0 -1.0039 0.1922 516.5609)">
	<stop  offset="0" style="stop-color:#FFA981"/>
	<stop  offset="0.428" style="stop-color:#FF8666"/>
	<stop  offset="1" style="stop-color:#FF5C45"/>
</linearGradient>
<path style="fill:url(#SVGID_1_);" d="M256,87.472c-3.527,0-6.386-2.859-6.386-6.386v-74.7C249.615,2.859,252.475,0,256,0
	c3.527,0,6.386,2.859,6.386,6.386v74.701C262.386,84.613,259.527,87.472,256,87.472z"/>
<linearGradient id="SVGID_2_" gradientUnits="userSpaceOnUse" x1="254.81" y1="470.103" x2="254.81" y2="405.133" gradientTransform="matrix(1.0039 0 0 -1.0039 0.1922 516.5609)">
	<stop  offset="0" style="stop-color:#EFFBFF"/>
	<stop  offset="0.181" style="stop-color:#DDF0F9"/>
	<stop  offset="0.483" style="stop-color:#C5E1F2"/>
	<stop  offset="0.763" style="stop-color:#B7D8EE"/>
	<stop  offset="1" style="stop-color:#B2D5EC"/>
</linearGradient>
<path style="fill:url(#SVGID_2_);" d="M176.771,51.38h158.461c3.383,0,6.425,2.06,7.682,5.201l17.95,44.871H151.139l17.95-44.871
	C170.345,53.439,173.388,51.38,176.771,51.38z"/>
<path style="fill:#EFFBFF;" d="M390.569,71.782H121.433c-8.815,0-15.987,7.171-15.987,15.987v20.111h12.771V87.77
	c0-1.774,1.443-3.217,3.217-3.217h16.629v23.327h12.771V84.553h24.413v23.327h12.771V84.553h24.414v23.327h12.771V84.553h24.413
	v23.327h12.771V84.553H286.8v23.327h12.771V84.553h24.414v23.327h12.771V84.553h24.413v23.327h12.771V84.553h16.629
	c1.773,0,3.217,1.442,3.217,3.217v20.111h12.771V87.77C406.555,78.953,399.383,71.782,390.569,71.782z"/>
<linearGradient id="SVGID_3_" gradientUnits="userSpaceOnUse" x1="254.8094" y1="404.583" x2="254.8094" y2="363.043" gradientTransform="matrix(1.0039 0 0 -1.0039 0.1922 516.5609)">
	<stop  offset="0" style="stop-color:#AFDC00"/>
	<stop  offset="0.236" style="stop-color:#9EC700"/>
	<stop  offset="0.724" style="stop-color:#739000"/>
	<stop  offset="1" style="stop-color:#586E00"/>
</linearGradient>
<path style="fill:url(#SVGID_3_);" d="M401.151,146.788H110.85c-3.383,0-6.425-2.06-7.682-5.201l-13.41-33.524
	c-2.174-5.435,1.828-11.347,7.682-11.347h317.122c5.854,0,9.857,5.912,7.682,11.347l-13.41,33.524
	C407.576,144.729,404.535,146.788,401.151,146.788z"/>
<linearGradient id="SVGID_4_" gradientUnits="userSpaceOnUse" x1="254.809" y1="316.943" x2="254.809" y2="194.953" gradientTransform="matrix(1.0039 0 0 -1.0039 0.1922 516.5609)">
	<stop  offset="0" style="stop-color:#EFFBFF"/>
	<stop  offset="0.181" style="stop-color:#DDF0F9"/>
	<stop  offset="0.483" style="stop-color:#C5E1F2"/>
	<stop  offset="0.763" style="stop-color:#B7D8EE"/>
	<stop  offset="1" style="stop-color:#B2D5EC"/>
</linearGradient>
<rect x="112.67" y="148.912" style="fill:url(#SVGID_4_);" width="286.66" height="133.391"/>
<linearGradient id="SVGID_5_" gradientUnits="userSpaceOnUse" x1="254.8089" y1="252.663" x2="254.8089" y2="451.403" gradientTransform="matrix(1.0039 0 0 -1.0039 0.1922 516.5609)">
	<stop  offset="0" style="stop-color:#B2D5EC;stop-opacity:0"/>
	<stop  offset="1" style="stop-color:#7797B0"/>
</linearGradient>
<polygon style="fill:url(#SVGID_5_);" points="230.922,282.306 399.33,282.306 399.33,148.91 112.67,148.91 112.67,164.055 "/>
<g>
	
		<linearGradient id="SVGID_6_" gradientUnits="userSpaceOnUse" x1="155.8119" y1="310.663" x2="155.8119" y2="362.513" gradientTransform="matrix(1.0039 0 0 -1.0039 0.1922 516.5609)">
		<stop  offset="0" style="stop-color:#605654"/>
		<stop  offset="0.351" style="stop-color:#5B5351"/>
		<stop  offset="0.745" style="stop-color:#4E4948"/>
		<stop  offset="1" style="stop-color:#413F40"/>
	</linearGradient>
	<path style="fill:url(#SVGID_6_);" d="M174.109,209.743h-34.989c-3.675,0-6.656-2.98-6.656-6.656v-21.493
		c0-3.675,2.98-6.656,6.656-6.656h34.989c3.675,0,6.656,2.98,6.656,6.656v21.493C180.765,206.764,177.786,209.743,174.109,209.743z"
		/>
	
		<linearGradient id="SVGID_7_" gradientUnits="userSpaceOnUse" x1="221.8099" y1="310.663" x2="221.8099" y2="362.513" gradientTransform="matrix(1.0039 0 0 -1.0039 0.1922 516.5609)">
		<stop  offset="0" style="stop-color:#605654"/>
		<stop  offset="0.351" style="stop-color:#5B5351"/>
		<stop  offset="0.745" style="stop-color:#4E4948"/>
		<stop  offset="1" style="stop-color:#413F40"/>
	</linearGradient>
	<path style="fill:url(#SVGID_7_);" d="M240.366,209.743h-34.989c-3.675,0-6.656-2.98-6.656-6.656v-21.493
		c0-3.675,2.98-6.656,6.656-6.656h34.989c3.675,0,6.656,2.98,6.656,6.656v21.493C247.022,206.764,244.043,209.743,240.366,209.743z"
		/>
	
		<linearGradient id="SVGID_8_" gradientUnits="userSpaceOnUse" x1="287.8079" y1="310.663" x2="287.8079" y2="362.513" gradientTransform="matrix(1.0039 0 0 -1.0039 0.1922 516.5609)">
		<stop  offset="0" style="stop-color:#605654"/>
		<stop  offset="0.351" style="stop-color:#5B5351"/>
		<stop  offset="0.745" style="stop-color:#4E4948"/>
		<stop  offset="1" style="stop-color:#413F40"/>
	</linearGradient>
	<path style="fill:url(#SVGID_8_);" d="M306.623,209.743h-34.989c-3.675,0-6.656-2.98-6.656-6.656v-21.493
		c0-3.675,2.98-6.656,6.656-6.656h34.989c3.675,0,6.656,2.98,6.656,6.656v21.493C313.279,206.764,310.299,209.743,306.623,209.743z"
		/>
	
		<linearGradient id="SVGID_9_" gradientUnits="userSpaceOnUse" x1="353.8059" y1="310.663" x2="353.8059" y2="362.513" gradientTransform="matrix(1.0039 0 0 -1.0039 0.1922 516.5609)">
		<stop  offset="0" style="stop-color:#605654"/>
		<stop  offset="0.351" style="stop-color:#5B5351"/>
		<stop  offset="0.745" style="stop-color:#4E4948"/>
		<stop  offset="1" style="stop-color:#413F40"/>
	</linearGradient>
	<path style="fill:url(#SVGID_9_);" d="M372.88,209.743h-34.989c-3.675,0-6.656-2.98-6.656-6.656v-21.493
		c0-3.675,2.98-6.656,6.656-6.656h34.989c3.675,0,6.656,2.98,6.656,6.656v21.493C379.536,206.764,376.556,209.743,372.88,209.743z"
		/>
</g>
<linearGradient id="SVGID_10_" gradientUnits="userSpaceOnUse" x1="254.8089" y1="377.523" x2="254.8089" y2="335.113" gradientTransform="matrix(1.0039 0 0 -1.0039 0.1922 516.5609)">
	<stop  offset="0" style="stop-color:#FFA981"/>
	<stop  offset="0.428" style="stop-color:#FF8666"/>
	<stop  offset="1" style="stop-color:#FF5C45"/>
</linearGradient>
<path style="fill:url(#SVGID_10_);" d="M404.352,163.23H107.649c-6.555,0-11.868-5.314-11.868-11.868l0,0
	c0-6.555,5.314-11.868,11.868-11.868h296.703c6.555,0,11.868,5.314,11.868,11.868l0,0C416.22,157.916,410.906,163.23,404.352,163.23
	z"/>
<linearGradient id="SVGID_11_" gradientUnits="userSpaceOnUse" x1="22.0261" y1="192.9581" x2="389.626" y2="127.9882" gradientTransform="matrix(1.0039 0 0 -1.0039 0.1922 516.5609)">
	<stop  offset="0" style="stop-color:#EFFBFF"/>
	<stop  offset="0.181" style="stop-color:#DDF0F9"/>
	<stop  offset="0.483" style="stop-color:#C5E1F2"/>
	<stop  offset="0.763" style="stop-color:#B7D8EE"/>
	<stop  offset="1" style="stop-color:#B2D5EC"/>
</linearGradient>
<path style="fill:url(#SVGID_11_);" d="M437.486,310.644c-0.685,0.963-1.38,1.949-2.087,2.958c-0.058,0.092-0.128,0.174-0.186,0.267
	c-0.151,0.209-0.301,0.429-0.453,0.65c-0.069,0.104-0.14,0.197-0.209,0.301c-0.359,0.522-0.719,1.032-1.078,1.565
	c-0.128,0.186-0.267,0.383-0.395,0.58c-0.301,0.441-0.614,0.894-0.917,1.345c-0.244,0.359-0.499,0.731-0.754,1.113
	c-0.069,0.116-0.151,0.221-0.221,0.336c-0.441,0.65-0.881,1.31-1.322,1.972c-0.267,0.406-0.533,0.812-0.812,1.229
	c-0.487,0.742-0.986,1.496-1.485,2.25c-0.209,0.336-0.429,0.661-0.637,0.997c-0.557,0.846-1.113,1.705-1.671,2.575
	c-0.14,0.22-0.29,0.453-0.429,0.673c-0.29,0.453-0.568,0.892-0.858,1.345c-0.069,0.092-0.128,0.186-0.186,0.278
	c-0.661,1.044-1.333,2.11-2.006,3.177c-0.371,0.58-0.731,1.16-1.101,1.751c-27.799,44.464-60.886,107.704-82.608,150.556
	c-2.215,4.372-4.314,8.524-6.262,12.421c-0.418-0.441-0.823-0.894-1.218-1.357c-0.058-0.058-0.104-0.116-0.151-0.163
	c-5.37-6.298-13.21-9.904-21.501-9.904c-8.315,0-16.155,3.607-21.513,9.927c-7.84,9.139-19.194,14.415-31.162,14.509H256
	c-12.13-0.023-23.543-5.312-31.417-14.497c-5.393-6.321-13.233-9.939-21.513-9.939s-16.12,3.618-21.513,9.927
	c-0.14,0.163-0.278,0.325-0.429,0.464c-0.313,0.348-0.626,0.696-0.94,1.032c-1.949-3.896-4.036-8.037-6.251-12.397
	c-21.722-42.852-54.82-106.103-82.619-150.579c-0.371-0.591-0.731-1.172-1.101-1.751c-0.673-1.067-1.345-2.134-2.006-3.177
	c-4.778-7.492-9.371-14.38-13.696-20.435c-4.407-6.181-3.816-14.16,0.522-19.623c1.67-2.11,3.896-3.839,6.599-4.952l6.17-2.528
	l24.864-10.194l77.528-31.776l59.61-24.423c1.983-0.812,4.082-1.218,6.193-1.218c0.267,0,0.522,0,0.789,0.023
	c0.789,0.035,1.577,0.128,2.354,0.278c1.032,0.197,2.053,0.51,3.05,0.917l137.138,56.201l20.377,8.35l10.658,4.372
	c0.742,0.301,1.45,0.661,2.11,1.055C440.571,291.868,443.134,302.724,437.486,310.644z"/>
<linearGradient id="SVGID_12_" gradientUnits="userSpaceOnUse" x1="271.9321" y1="206.8492" x2="114.6421" y2="405.5892" gradientTransform="matrix(1.0039 0 0 -1.0039 0.1922 516.5609)">
	<stop  offset="0" style="stop-color:#B2D5EC;stop-opacity:0"/>
	<stop  offset="1" style="stop-color:#7797B0"/>
</linearGradient>
<path style="fill:url(#SVGID_12_);" d="M437.486,310.644c-0.685,0.963-1.38,1.949-2.087,2.958c-0.058,0.092-0.128,0.174-0.186,0.267
	c-0.151,0.209-0.301,0.429-0.453,0.65c-0.069,0.104-0.14,0.197-0.209,0.301c-0.359,0.522-0.719,1.032-1.078,1.565
	c-0.128,0.186-0.267,0.383-0.395,0.58c-0.301,0.441-0.614,0.894-0.917,1.345c-0.244,0.359-0.499,0.731-0.754,1.113
	c-0.069,0.116-0.151,0.221-0.221,0.336c-0.441,0.65-0.881,1.31-1.322,1.972c-0.267,0.406-0.533,0.812-0.812,1.229
	c-0.487,0.742-0.986,1.496-1.485,2.25c-0.209,0.336-0.429,0.661-0.637,0.997c-0.557,0.846-1.113,1.705-1.671,2.575
	c-0.14,0.22-0.29,0.453-0.429,0.673c-0.29,0.453-0.568,0.892-0.858,1.345c-0.069,0.092-0.128,0.186-0.186,0.278
	c-0.661,1.044-1.333,2.11-2.006,3.177c-0.371,0.58-0.731,1.16-1.101,1.751c-27.799,44.464-60.886,107.704-82.608,150.556
	c-2.215,4.372-4.314,8.524-6.262,12.421c-0.418-0.441-0.823-0.894-1.218-1.357c-0.058-0.058-0.104-0.116-0.151-0.163
	c-5.37-6.298-13.21-9.904-21.501-9.904c-8.315,0-16.155,3.607-21.513,9.927c-7.84,9.139-19.194,14.415-31.162,14.509H256V215.929
	c0.267,0,0.522,0,0.789,0.023c0.789,0.035,1.577,0.127,2.354,0.278c1.032,0.197,2.053,0.51,3.05,0.917l137.138,56.201l20.377,8.35
	l10.658,4.372c0.742,0.301,1.45,0.661,2.11,1.055C440.571,291.868,443.134,302.724,437.486,310.644z"/>
<path style="fill:#EFFBFF;" d="M432.481,292.983H419.71v-17.06c0-1.477-0.888-2.78-2.264-3.322l-155.567-61.206
	c-5.238-2.061-11.009-2.061-16.248,0L90.065,272.603c-1.374,0.541-2.263,1.844-2.263,3.321v17.06H75.031v-17.06
	c0-6.761,4.066-12.729,10.357-15.204l155.568-61.209c8.254-3.248,17.345-3.245,25.597,0l155.568,61.208
	c6.293,2.477,10.358,8.445,10.358,15.206L432.481,292.983L432.481,292.983z"/>
<linearGradient id="SVGID_13_" gradientUnits="userSpaceOnUse" x1="254.8098" y1="259.113" x2="254.8098" y2="114.553" gradientTransform="matrix(1.0039 0 0 -1.0039 0.1922 516.5609)">
	<stop  offset="0" style="stop-color:#AFDC00"/>
	<stop  offset="0.236" style="stop-color:#9EC700"/>
	<stop  offset="0.724" style="stop-color:#739000"/>
	<stop  offset="1" style="stop-color:#586E00"/>
</linearGradient>
<path style="fill:url(#SVGID_13_);" d="M91.315,336.005l158.497-64.955c3.965-1.625,8.412-1.625,12.377,0l158.497,64.955
	c5.889-9.419,11.544-18.004,16.8-25.364c6.116-8.564,2.614-20.585-7.124-24.576l-168.173-68.92c-3.965-1.625-8.412-1.625-12.377,0
	l-168.173,68.92c-9.737,3.991-13.239,16.013-7.124,24.576C79.771,318,85.426,326.586,91.315,336.005z"/>
<linearGradient id="SVGID_14_" gradientUnits="userSpaceOnUse" x1="407.8389" y1="239.657" x2="134.1789" y2="239.657" gradientTransform="matrix(1.0039 0 0 -1.0039 0.1922 516.5609)">
	<stop  offset="0" style="stop-color:#AFDC00;stop-opacity:0"/>
	<stop  offset="0.472" style="stop-color:#84A600;stop-opacity:0.472"/>
	<stop  offset="1" style="stop-color:#586E00"/>
</linearGradient>
<path style="fill:url(#SVGID_14_);" d="M430.362,286.064l-168.173-68.92c-0.992-0.407-2.013-0.711-3.05-0.915
	c-1.036-0.203-2.088-0.305-3.139-0.305v53.906c2.103,0,4.206,0.407,6.189,1.219l158.497,64.955c0.689-1.102,1.374-2.19,2.056-3.268
	c0.074-0.117,0.149-0.235,0.223-0.352c0.624-0.985,1.245-1.959,1.863-2.923c0.146-0.227,0.291-0.454,0.436-0.68
	c0.558-0.868,1.113-1.728,1.667-2.578c0.215-0.331,0.43-0.66,0.645-0.988c0.496-0.759,0.99-1.513,1.481-2.257
	c0.273-0.415,0.545-0.822,0.817-1.232c0.439-0.66,0.876-1.319,1.311-1.966c0.329-0.491,0.656-0.971,0.983-1.454
	c0.38-0.561,0.761-1.126,1.138-1.678c0.419-0.611,0.831-1.208,1.246-1.806c0.282-0.409,0.568-0.824,0.848-1.227
	c0.702-1.005,1.398-1.993,2.086-2.958C443.601,302.076,440.1,290.055,430.362,286.064z"/>
<linearGradient id="SVGID_15_" gradientUnits="userSpaceOnUse" x1="63.7611" y1="23.2232" x2="445.8559" y2="23.2232" gradientTransform="matrix(1.0039 0 0 -1.0039 0.1922 516.5609)">
	<stop  offset="0" style="stop-color:#00FFF4"/>
	<stop  offset="1" style="stop-color:#00DBFF"/>
</linearGradient>
<path style="fill:url(#SVGID_15_);" d="M447.797,493.232c0,3.607-2.911,6.529-6.506,6.529c-2.134,0-4.025-1.021-5.207-2.598
	c-1.577-1.774-3.328-3.34-5.23-4.627c-11.98-8.257-28.112-6.112-37.552,4.952c-0.14,0.163-0.278,0.313-0.418,0.464
	c-10.217,11.609-25.839,16.538-40.881,12.838c-6.158-1.519-11.794-4.361-16.584-8.397c-1.264-1.055-2.471-2.192-3.607-3.409
	c-0.418-0.441-0.823-0.893-1.218-1.357c-0.058-0.058-0.104-0.116-0.151-0.163c-5.37-6.298-13.21-9.904-21.501-9.904
	c-8.315,0-16.155,3.607-21.513,9.927c-7.84,9.139-19.194,14.415-31.162,14.509H256c-12.13-0.023-23.543-5.312-31.417-14.497
	c-5.393-6.321-13.233-9.939-21.513-9.939s-16.12,3.618-21.513,9.927c-0.14,0.163-0.278,0.325-0.429,0.464
	c-0.313,0.348-0.626,0.696-0.94,1.032c-1.148,1.218-2.354,2.354-3.618,3.409c-4.778,4.001-10.38,6.854-16.491,8.374
	c-3.352,0.835-6.726,1.23-10.066,1.23c-11.771,0-23.055-5.022-31.023-14.183c-0.104-0.092-0.197-0.209-0.29-0.325
	c-5.393-6.309-13.244-9.927-21.536-9.927c-5.717,0-11.226,1.705-15.923,4.929c-2.099,1.427-3.966,3.085-5.567,4.986
	c-2.319,2.737-6.425,3.085-9.174,0.765c-2.737-2.319-3.073-6.436-0.765-9.174c2.377-2.807,5.114-5.277,8.176-7.341
	c6.843-4.685,14.902-7.179,23.253-7.179c11.969,0,23.299,5.161,31.162,14.171c0.092,0.116,0.197,0.209,0.29,0.324
	c7.004,8.211,17.848,11.69,28.332,9.093c1.972-0.487,3.85-1.183,5.636-2.064c3.432-1.682,6.494-4.059,9.046-7.039
	c0.128-0.151,0.267-0.29,0.418-0.429c0.614-0.696,1.241-1.368,1.89-2.018c7.712-7.689,18.161-12.038,29.133-12.038
	c12.107,0,23.554,5.289,31.417,14.497c5.393,6.309,13.244,9.939,21.49,9.939h0.29c8.199-0.116,15.923-3.735,21.269-9.951
	c7.804-9.197,19.263-14.485,31.406-14.485c10.983,0,21.432,4.337,29.133,12.015c0.742,0.742,1.462,1.508,2.145,2.308
	c0.058,0.069,0.116,0.128,0.163,0.186c2.54,2.981,5.602,5.358,9.034,7.016c1.809,0.894,3.699,1.589,5.671,2.064
	c10.461,2.563,21.292-0.917,28.285-9.092c0.128-0.163,0.267-0.301,0.418-0.441c13.824-15.773,37.111-18.729,54.426-6.808
	c2.934,1.995,5.636,4.418,8.025,7.213C447.251,490.182,447.797,491.678,447.797,493.232z"/>
<g>
</g>
<g>
</g>
<g>
</g>
<g>
</g>
<g>
</g>
<g>
</g>
<g>
</g>
<g>
</g>
<g>
</g>
<g>
</g>
<g>
</g>
<g>
</g>
<g>
</g>
<g>
</g>
<g>
</g>
</svg>
