<?xml version="1.0" encoding="iso-8859-1"?>
<!-- Generator: Adobe Illustrator 19.0.0, SVG Export Plug-In . SVG Version: 6.00 Build 0)  -->
<svg version="1.1" id="Capa_1" xmlns="http://www.w3.org/2000/svg" xmlns:xlink="http://www.w3.org/1999/xlink" x="0px" y="0px"
	 viewBox="0 0 512.001 512.001" style="enable-background:new 0 0 512.001 512.001;" xml:space="preserve">
<linearGradient id="SVGID_1_" gradientUnits="userSpaceOnUse" x1="175.0493" y1="317.0543" x2="708.7393" y2="317.0543" gradientTransform="matrix(1.0039 0 0 -1.0039 0.1922 516.5623)">
	<stop  offset="0" style="stop-color:#FEFFB3"/>
	<stop  offset="0.485" style="stop-color:#FFD39A"/>
	<stop  offset="1" style="stop-color:#FFA981"/>
</linearGradient>
<path style="fill:url(#SVGID_1_);" d="M140.299,244.402c6.112-0.971,12.354-0.738,18.343,0.824l110.062,28.712
	c38.803,10.123,80.086-0.318,109.411-27.67l29.998-27.979c14.361-13.394,31.955-22.543,50.847-26.742l2.236-2.629L350.55,118.797
	H161.445L50.982,188.918l-3.661,40.375C62.291,242.712,89.796,252.421,140.299,244.402z"/>
<linearGradient id="SVGID_2_" gradientUnits="userSpaceOnUse" x1="277.6998" y1="251.0637" x2="277.6998" y2="578.7137" gradientTransform="matrix(1.0039 0 0 -1.0039 0.1922 516.5623)">
	<stop  offset="0" style="stop-color:#FF9111;stop-opacity:0"/>
	<stop  offset="0.287" style="stop-color:#FE8C0F;stop-opacity:0.287"/>
	<stop  offset="0.619" style="stop-color:#F97E0A;stop-opacity:0.619"/>
	<stop  offset="0.972" style="stop-color:#F36701;stop-opacity:0.972"/>
	<stop  offset="1" style="stop-color:#F26500"/>
</linearGradient>
<path style="fill:url(#SVGID_2_);" d="M378.115,246.268l18.181-16.957c-1.207-4.122-2.754-8.082-4.716-11.819
	c-15.963-30.393-39.836-69.083-64.843-98.696H218.408c-30.497,52.998-56.742,120.001-56.742,120.001s1.787,3.129,4.95,8.509
	l102.088,26.631C307.506,284.06,348.789,273.62,378.115,246.268z"/>
<linearGradient id="SVGID_3_" gradientUnits="userSpaceOnUse" x1="233.6964" y1="371.5154" x2="58.4564" y2="212.6655" gradientTransform="matrix(1.0039 0 0 -1.0039 0.1922 516.5623)">
	<stop  offset="0" style="stop-color:#FEFFB3"/>
	<stop  offset="0.485" style="stop-color:#FFD39A"/>
	<stop  offset="1" style="stop-color:#FFA981"/>
</linearGradient>
<ellipse style="fill:url(#SVGID_3_);" cx="256.001" cy="124.377" rx="97.411" ry="23.15"/>
<linearGradient id="SVGID_4_" gradientUnits="userSpaceOnUse" x1="254.8093" y1="389.1237" x2="254.8093" y2="457.4237" gradientTransform="matrix(1.0039 0 0 -1.0039 0.1922 516.5623)">
	<stop  offset="0" style="stop-color:#FFFFFF"/>
	<stop  offset="0.088" style="stop-color:#FFFFF2"/>
	<stop  offset="0.313" style="stop-color:#FEFFD7"/>
	<stop  offset="0.54" style="stop-color:#FEFFC3"/>
	<stop  offset="0.768" style="stop-color:#FEFFB7"/>
	<stop  offset="1" style="stop-color:#FEFFB3"/>
</linearGradient>
<ellipse style="fill:url(#SVGID_4_);" cx="256.001" cy="122.891" rx="84.962" ry="15.725"/>
<radialGradient id="SVGID_5_" cx="185.8993" cy="298.3337" r="351.26" gradientTransform="matrix(1.0039 0 0 -1.0039 0.1922 516.5623)" gradientUnits="userSpaceOnUse">
	<stop  offset="0.003" style="stop-color:#FFE000"/>
	<stop  offset="0.142" style="stop-color:#DCDE00"/>
	<stop  offset="0.274" style="stop-color:#C3DD00"/>
	<stop  offset="0.393" style="stop-color:#B4DC00"/>
	<stop  offset="0.491" style="stop-color:#AFDC00"/>
	<stop  offset="0.715" style="stop-color:#AEDA00"/>
	<stop  offset="0.796" style="stop-color:#A8D300"/>
	<stop  offset="0.854" style="stop-color:#9FC800"/>
	<stop  offset="0.901" style="stop-color:#91B700"/>
	<stop  offset="0.941" style="stop-color:#80A100"/>
	<stop  offset="0.975" style="stop-color:#6B8600"/>
	<stop  offset="1" style="stop-color:#586E00"/>
</radialGradient>
<path style="fill:url(#SVGID_5_);" d="M393.704,215.507l-27.157,25.329c-26.548,24.761-63.921,34.213-99.048,25.049l-99.637-25.993
	c-5.421-1.415-11.072-1.624-16.605-0.746c-104.166,16.54-100.276-50.227-100.276-50.228
	c-16.644,31.501-26.235,67.265-26.612,105.186c-0.927,93.227,53.234,173.894,131.917,211.476c7.72,3.687,16.094,5.795,24.64,6.208
	c12.827,0.621,29.002,0.033,46.474-3.896c34.852-7.84,67.296-0.109,97.535,3c10.736,1.103,21.554-0.863,31.281-5.539
	c77.749-37.369,131.419-116.863,131.419-208.895c0-38.82-9.563-75.402-26.441-107.54l0,0
	C436.143,188.918,412.024,198.42,393.704,215.507z"/>
<linearGradient id="SVGID_6_" gradientUnits="userSpaceOnUse" x1="391.1593" y1="165.8599" x2="-249.8507" y2="165.8599" gradientTransform="matrix(1.0039 0 0 -1.0039 0.1922 516.5623)">
	<stop  offset="0" style="stop-color:#AFDC00;stop-opacity:0"/>
	<stop  offset="0.472" style="stop-color:#84A600;stop-opacity:0.472"/>
	<stop  offset="1" style="stop-color:#586E00"/>
</linearGradient>
<path style="fill:url(#SVGID_6_);" d="M487.644,296.454c0,92.025-53.671,171.523-131.434,208.894
	c-9.723,4.682-20.535,6.649-31.277,5.541c-9.348-0.965-18.909-2.359-28.667-3.61c-12.368-1.573-25.093-2.913-38.158-2.77
	c-0.697-0.036-1.411-0.018-2.109,0.018h-0.161c-9.293,0.214-18.766,1.18-28.435,3.36c-2.967,0.662-5.88,1.234-8.757,1.716
	c-1.573-1.001-3.11-2.359-4.576-4.022c-33.082-37.586-55.869-118.245-55.477-211.486c0.089-19.07,1.143-37.586,3.074-55.298
	c2.091,0.197,4.164,0.554,6.202,1.09l88.129,23.002l11.51,3.003c3.699,0.965,7.417,1.716,11.153,2.252
	c25.487,3.807,51.437-1.841,72.974-15.71c5.255-3.378,10.241-7.256,14.905-11.599l27.166-25.325
	c9.169-8.543,19.767-15.191,31.223-19.696c11.439-4.522,23.735-6.899,36.264-6.899C478.081,221.05,487.644,257.635,487.644,296.454z
	"/>
<linearGradient id="SVGID_7_" gradientUnits="userSpaceOnUse" x1="271.57" y1="105.5023" x2="713.08" y2="331.5923" gradientTransform="matrix(1.0039 0 0 -1.0039 0.1922 516.5623)">
	<stop  offset="0" style="stop-color:#AFDC00;stop-opacity:0"/>
	<stop  offset="0.472" style="stop-color:#84A600;stop-opacity:0.472"/>
	<stop  offset="1" style="stop-color:#586E00"/>
</linearGradient>
<path style="fill:url(#SVGID_7_);" d="M461.192,188.915c-12.529,0-24.825,2.377-36.264,6.899
	c-11.457,4.504-22.055,11.153-31.223,19.696l-2.126,1.982c8.947,24.645,13.85,51.228,13.85,78.962
	c0,91.786-53.398,171.099-130.833,208.592c7.337,0.513,14.563,1.329,21.668,2.233c9.758,1.251,19.32,2.645,28.667,3.61
	c10.741,1.108,21.554-0.857,31.277-5.541c77.764-37.371,131.434-116.869,131.434-208.894
	C487.644,257.635,478.081,221.05,461.192,188.915z"/>
<linearGradient id="SVGID_8_" gradientUnits="userSpaceOnUse" x1="374.0544" y1="152.2592" x2="-17.2956" y2="-22.6308" gradientTransform="matrix(1.0039 0 0 -1.0039 0.1922 516.5623)">
	<stop  offset="0" style="stop-color:#AFDC00;stop-opacity:0"/>
	<stop  offset="0.472" style="stop-color:#84A600;stop-opacity:0.472"/>
	<stop  offset="1" style="stop-color:#586E00"/>
</linearGradient>
<path style="fill:url(#SVGID_8_);" d="M40.191,380.688c21.452,54.906,63.22,99.636,116.096,124.893
	c7.72,3.687,16.094,5.794,24.639,6.208c12.828,0.621,29.003,0.033,46.475-3.897c34.852-7.839,67.296-0.109,97.535,3
	c10.736,1.103,21.554-0.863,31.281-5.539c52.64-25.301,94.214-69.926,115.595-124.665H40.191z"/>
<linearGradient id="SVGID_9_" gradientUnits="userSpaceOnUse" x1="121.4994" y1="513.8628" x2="284.5094" y2="350.8438" gradientTransform="matrix(1.0039 0 0 -1.0039 0.1922 516.5623)">
	<stop  offset="0" style="stop-color:#FFA981"/>
	<stop  offset="0.536" style="stop-color:#FF8262"/>
	<stop  offset="1" style="stop-color:#FF5C45"/>
</linearGradient>
<path style="fill:url(#SVGID_9_);" d="M266.954,138.479c-3.592,0.107-7.238,0.144-10.956,0.144c-3.681,0-7.31-0.036-10.866-0.144
	l-14.673-30.598L191.907,27.49L142.74,83.395c-3.592,4.075-9.794,4.468-13.869,0.893c-4.075-3.592-4.487-9.794-0.893-13.869
	l58.979-67.076c2.181-2.485,5.451-3.699,8.722-3.253c3.271,0.447,6.095,2.52,7.524,5.486l48.738,101.605L266.954,138.479z"/>
<linearGradient id="SVGID_10_" gradientUnits="userSpaceOnUse" x1="217.3098" y1="445.439" x2="166.3498" y2="450.339" gradientTransform="matrix(1.0039 0 0 -1.0039 0.1922 516.5623)">
	<stop  offset="0" style="stop-color:#FFA981;stop-opacity:0"/>
	<stop  offset="1" style="stop-color:#B82934"/>
</linearGradient>
<path style="fill:url(#SVGID_10_);" d="M245.13,138.479c3.557,0.107,7.185,0.144,10.866,0.144c3.718,0,7.364-0.036,10.956-0.144
	l-15.013-31.295L203.201,5.579c-0.998-2.07-2.682-3.689-4.715-4.64l0,0c6.234,11.362-6.581,26.552-6.581,26.552l38.551,80.391
	L245.13,138.479z"/>
<linearGradient id="SVGID_11_" gradientUnits="userSpaceOnUse" x1="254.8733" y1="-10.9563" x2="254.8733" y2="50.5737" gradientTransform="matrix(1.0039 0 0 -1.0039 0.1922 516.5623)">
	<stop  offset="0" style="stop-color:#586E00;stop-opacity:0"/>
	<stop  offset="1" style="stop-color:#2C3700"/>
</linearGradient>
<path style="fill:url(#SVGID_11_);" d="M367.326,497.548c-8.619,3.687-17.968,5.795-27.508,6.208
	c-14.321,0.621-32.38,0.033-51.886-3.897c-38.911-7.839-75.132-0.109-108.892,3c-11.986,1.103-24.064-0.863-34.924-5.539
	c-4.988-2.147-9.881-4.445-14.684-6.866c8.576,5.608,17.541,10.675,26.857,15.125c7.72,3.687,16.094,5.794,24.639,6.208
	c12.828,0.621,29.003,0.033,46.475-3.897c34.852-7.839,67.296-0.109,97.535,3c10.736,1.103,21.554-0.863,31.281-5.539
	c9.183-4.414,18.021-9.429,26.482-14.969C377.675,492.917,372.552,495.313,367.326,497.548z"/>
<g>
</g>
<g>
</g>
<g>
</g>
<g>
</g>
<g>
</g>
<g>
</g>
<g>
</g>
<g>
</g>
<g>
</g>
<g>
</g>
<g>
</g>
<g>
</g>
<g>
</g>
<g>
</g>
<g>
</g>
</svg>
