<?xml version="1.0" encoding="iso-8859-1"?>
<!-- Generator: Adobe Illustrator 19.0.0, SVG Export Plug-In . SVG Version: 6.00 Build 0)  -->
<svg version="1.1" id="Capa_1" xmlns="http://www.w3.org/2000/svg" xmlns:xlink="http://www.w3.org/1999/xlink" x="0px" y="0px"
	 viewBox="0 0 512 512" style="enable-background:new 0 0 512 512;" xml:space="preserve">
<path style="opacity:0.8;fill:#EFFBFF;enable-background:new    ;" d="M273.278,24.835c-65.83,0-119.196,9.954-119.196,22.233
	v442.698c0,12.279,53.365,22.234,119.196,22.234s119.196-9.954,119.196-22.234V47.068C392.475,34.789,339.108,24.835,273.278,24.835
	z"/>
<linearGradient id="SVGID_1_" gradientUnits="userSpaceOnUse" x1="153.289" y1="18.0767" x2="390.749" y2="18.0767" gradientTransform="matrix(1.0039 0 0 -1.0039 0.1922 516.5602)">
	<stop  offset="0" style="stop-color:#C6E1F2"/>
	<stop  offset="0.038" style="stop-color:#DCECF7"/>
	<stop  offset="0.085" style="stop-color:#EFF7FB"/>
	<stop  offset="0.133" style="stop-color:#FBFDFE"/>
	<stop  offset="0.181" style="stop-color:#FFFFFF"/>
	<stop  offset="0.249" style="stop-color:#F6FAFD"/>
	<stop  offset="0.573" style="stop-color:#D1E6F4"/>
	<stop  offset="0.835" style="stop-color:#BADAEE"/>
	<stop  offset="1" style="stop-color:#B2D5EC"/>
</linearGradient>
<path style="fill:url(#SVGID_1_);" d="M273.278,507.059c-65.83,0-119.196-9.954-119.196-22.234v4.94
	c0,12.279,53.365,22.234,119.196,22.234s119.196-9.954,119.196-22.234v-4.94C392.475,497.105,339.108,507.059,273.278,507.059z"/>
<linearGradient id="SVGID_2_" gradientUnits="userSpaceOnUse" x1="180.968" y1="30.5407" x2="128.658" y2="30.5407" gradientTransform="matrix(1.0039 0 0 -1.0039 0.1922 516.5602)">
	<stop  offset="0" style="stop-color:#EFFBFF"/>
	<stop  offset="0.073" style="stop-color:#EAF8FD"/>
	<stop  offset="0.684" style="stop-color:#C1DFF1"/>
	<stop  offset="1" style="stop-color:#B2D5EC"/>
</linearGradient>
<path style="opacity:0.5;fill:url(#SVGID_2_);enable-background:new    ;" d="M161.123,464.741
	c13.834,6.282,46.765,12.3,87.316,13.711v28.607c-29.731-1.034-55.364-5.117-72.38-9.038c-8.751-2.017-14.935-9.815-14.935-18.796
	v-14.483H161.123z"/>
<linearGradient id="SVGID_3_" gradientUnits="userSpaceOnUse" x1="356.508" y1="30.5402" x2="404.908" y2="30.5402" gradientTransform="matrix(1.0039 0 0 -1.0039 0.1922 516.5602)">
	<stop  offset="0" style="stop-color:#EFFBFF"/>
	<stop  offset="0.073" style="stop-color:#EAF8FD"/>
	<stop  offset="0.684" style="stop-color:#C1DFF1"/>
	<stop  offset="1" style="stop-color:#B2D5EC"/>
</linearGradient>
<path style="opacity:0.5;fill:url(#SVGID_3_);enable-background:new    ;" d="M385.434,464.741v14.484
	c0,8.981-6.184,16.78-14.935,18.796c-17.015,3.921-42.65,8.004-72.38,9.038v-28.607C338.669,477.042,371.6,471.023,385.434,464.741z
	"/>
<linearGradient id="SVGID_4_" gradientUnits="userSpaceOnUse" x1="204.349" y1="249.6347" x2="339.689" y2="249.6347" gradientTransform="matrix(1.0039 0 0 -1.0039 0.1922 516.5602)">
	<stop  offset="0" style="stop-color:#EFFBFF"/>
	<stop  offset="0.056" style="stop-color:#F6FDFF"/>
	<stop  offset="0.169" style="stop-color:#FDFFFF"/>
	<stop  offset="0.483" style="stop-color:#FFFFFF"/>
	<stop  offset="0.819" style="stop-color:#FDFFFF"/>
	<stop  offset="0.94" style="stop-color:#F6FDFF"/>
	<stop  offset="1" style="stop-color:#EFFBFF"/>
</linearGradient>
<path style="opacity:0.5;fill:url(#SVGID_4_);enable-background:new    ;" d="M273.278,24.835c-37.52,0-67.935,9.954-67.935,22.233
	v442.698c0,12.279,30.416,17.293,67.935,17.293s67.935-5.014,67.935-17.293V47.068C341.214,34.789,310.798,24.835,273.278,24.835z"
	/>
<path style="fill:#FEFFB3;" d="M273.278,112.004c-65.83,0-119.196,9.954-119.196,22.234v318.973
	c0,12.279,53.365,22.234,119.196,22.234s119.196-9.954,119.196-22.234V134.237C392.475,121.958,339.108,112.004,273.278,112.004z"/>
<linearGradient id="SVGID_5_" gradientUnits="userSpaceOnUse" x1="184.663" y1="221.9652" x2="359.375" y2="221.9652" gradientTransform="matrix(1.0039 0 0 -1.0039 0.1922 516.5602)">
	<stop  offset="0" style="stop-color:#FEFFB3"/>
	<stop  offset="0.073" style="stop-color:#FEFA96"/>
	<stop  offset="0.357" style="stop-color:#FFE72B"/>
	<stop  offset="0.483" style="stop-color:#FFE000"/>
	<stop  offset="0.552" style="stop-color:#FFE105"/>
	<stop  offset="0.63" style="stop-color:#FFE312"/>
	<stop  offset="0.712" style="stop-color:#FFE729"/>
	<stop  offset="0.797" style="stop-color:#FFED48"/>
	<stop  offset="0.884" style="stop-color:#FEF471"/>
	<stop  offset="0.972" style="stop-color:#FEFCA2"/>
	<stop  offset="1" style="stop-color:#FEFFB3"/>
</linearGradient>
<path style="opacity:0.5;fill:url(#SVGID_5_);enable-background:new    ;" d="M273.278,112.004
	c-48.434,0-87.699,9.954-87.699,22.234v318.973c0,12.279,39.264,22.234,87.699,22.234s87.699-9.954,87.699-22.234V134.237
	C360.976,121.958,321.713,112.004,273.278,112.004z"/>
<linearGradient id="SVGID_6_" gradientUnits="userSpaceOnUse" x1="153.289" y1="467.6577" x2="390.749" y2="467.6577" gradientTransform="matrix(1.0039 0 0 -1.0039 0.1922 516.5602)">
	<stop  offset="0" style="stop-color:#C6E1F2"/>
	<stop  offset="0.038" style="stop-color:#DCECF7"/>
	<stop  offset="0.085" style="stop-color:#EFF7FB"/>
	<stop  offset="0.133" style="stop-color:#FBFDFE"/>
	<stop  offset="0.181" style="stop-color:#FFFFFF"/>
	<stop  offset="0.249" style="stop-color:#F6FAFD"/>
	<stop  offset="0.573" style="stop-color:#D1E6F4"/>
	<stop  offset="0.835" style="stop-color:#BADAEE"/>
	<stop  offset="1" style="stop-color:#B2D5EC"/>
</linearGradient>
<path style="fill:url(#SVGID_6_);" d="M273.278,24.835c-65.83,0-119.196,9.954-119.196,22.234
	c0,12.279,53.365,22.234,119.196,22.234s119.196-9.954,119.196-22.234C392.475,34.789,339.108,24.835,273.278,24.835z
	 M273.278,65.953c-62.738,0-113.597-8.455-113.597-18.885s50.859-18.885,113.597-18.885s113.597,8.455,113.597,18.885
	S336.016,65.953,273.278,65.953z"/>
<linearGradient id="SVGID_7_" gradientUnits="userSpaceOnUse" x1="272.018" y1="403.1827" x2="272.018" y2="321.7427" gradientTransform="matrix(1.0039 0 0 -1.0039 0.1922 516.5602)">
	<stop  offset="0" style="stop-color:#FEFFB3"/>
	<stop  offset="1" style="stop-color:#FFE000"/>
</linearGradient>
<ellipse style="fill:url(#SVGID_7_);" cx="273.277" cy="134.234" rx="119.196" ry="22.237"/>
<linearGradient id="SVGID_8_" gradientUnits="userSpaceOnUse" x1="267.112" y1="357.3842" x2="288.022" y2="441.0442" gradientTransform="matrix(1.0039 0 0 -1.0039 0.1922 516.5602)">
	<stop  offset="1.000000e-004" style="stop-color:#FFFFFF;stop-opacity:0"/>
	<stop  offset="1" style="stop-color:#FFFFFF"/>
</linearGradient>
<ellipse style="fill:url(#SVGID_8_);" cx="273.277" cy="138.069" rx="113.594" ry="18.397"/>
<linearGradient id="SVGID_9_" gradientUnits="userSpaceOnUse" x1="245.2416" y1="233.4063" x2="390.0316" y2="296.8263" gradientTransform="matrix(1.0039 0 0 -1.0039 0.1922 516.5602)">
	<stop  offset="0" style="stop-color:#FFF799"/>
	<stop  offset="0.068" style="stop-color:#FFF8A4"/>
	<stop  offset="0.35" style="stop-color:#FFFBCB"/>
	<stop  offset="0.609" style="stop-color:#FFFDE8"/>
	<stop  offset="0.834" style="stop-color:#FFFFF9"/>
	<stop  offset="1" style="stop-color:#FFFFFF"/>
</linearGradient>
<polygon style="fill:url(#SVGID_9_);" points="278.763,227.349 258.064,284.67 318.04,291.57 338.74,235.841 "/>
<linearGradient id="SVGID_10_" gradientUnits="userSpaceOnUse" x1="323.4991" y1="223.139" x2="400.6591" y2="286.559" gradientTransform="matrix(1.0039 0 0 -1.0039 0.1922 516.5602)">
	<stop  offset="0" style="stop-color:#FFF799"/>
	<stop  offset="0.068" style="stop-color:#FFF8A4"/>
	<stop  offset="0.35" style="stop-color:#FFFBCB"/>
	<stop  offset="0.609" style="stop-color:#FFFDE8"/>
	<stop  offset="0.834" style="stop-color:#FFFFF9"/>
	<stop  offset="1" style="stop-color:#FFFFFF"/>
</linearGradient>
<polygon style="fill:url(#SVGID_10_);" points="338.74,326.6 318.04,291.57 338.74,235.841 361.031,270.871 "/>
<linearGradient id="SVGID_11_" gradientUnits="userSpaceOnUse" x1="256.8256" y1="192.4851" x2="401.6156" y2="255.9051" gradientTransform="matrix(1.0039 0 0 -1.0039 0.1922 516.5602)">
	<stop  offset="0" style="stop-color:#FFF799"/>
	<stop  offset="0.068" style="stop-color:#FFF8A4"/>
	<stop  offset="0.35" style="stop-color:#FFFBCB"/>
	<stop  offset="0.609" style="stop-color:#FFFDE8"/>
	<stop  offset="0.834" style="stop-color:#FFFFF9"/>
	<stop  offset="1" style="stop-color:#FFFFFF"/>
</linearGradient>
<polygon style="fill:url(#SVGID_11_);" points="278.763,318.107 258.064,284.67 318.04,291.57 338.74,326.6 "/>
<linearGradient id="SVGID_12_" gradientUnits="userSpaceOnUse" x1="312.5012" y1="235.2895" x2="210.1212" y2="132.9095" gradientTransform="matrix(1.0039 0 0 -1.0039 0.1922 516.5602)">
	<stop  offset="0" style="stop-color:#FFF799"/>
	<stop  offset="0.068" style="stop-color:#FFF8A4"/>
	<stop  offset="0.35" style="stop-color:#FFFBCB"/>
	<stop  offset="0.609" style="stop-color:#FFFDE8"/>
	<stop  offset="0.834" style="stop-color:#FFFFF9"/>
	<stop  offset="1" style="stop-color:#FFFFFF"/>
</linearGradient>
<polygon style="fill:url(#SVGID_12_);" points="298.116,341.562 272.221,286.392 224.933,323.923 249.703,377.966 "/>
<linearGradient id="SVGID_13_" gradientUnits="userSpaceOnUse" x1="238.097" y1="191.5437" x2="183.547" y2="136.9837" gradientTransform="matrix(1.0039 0 0 -1.0039 0.1922 516.5602)">
	<stop  offset="0" style="stop-color:#FFF799"/>
	<stop  offset="0.268" style="stop-color:#FFF9B8"/>
	<stop  offset="0.759" style="stop-color:#FFFDEB"/>
	<stop  offset="1" style="stop-color:#FFFFFF"/>
</linearGradient>
<polygon style="fill:url(#SVGID_13_);" points="185.526,313.789 224.933,323.923 249.703,377.966 209.17,368.959 "/>
<linearGradient id="SVGID_14_" gradientUnits="userSpaceOnUse" x1="272.0296" y1="259.8611" x2="169.6396" y2="157.481" gradientTransform="matrix(1.0039 0 0 -1.0039 0.1922 516.5602)">
	<stop  offset="0" style="stop-color:#FFF799"/>
	<stop  offset="0.068" style="stop-color:#FFF8A4"/>
	<stop  offset="0.35" style="stop-color:#FFFBCB"/>
	<stop  offset="0.609" style="stop-color:#FFFDE8"/>
	<stop  offset="0.834" style="stop-color:#FFFFF9"/>
	<stop  offset="1" style="stop-color:#FFFFFF"/>
</linearGradient>
<polygon style="fill:url(#SVGID_14_);" points="233.94,277.385 272.221,286.392 224.933,323.923 185.526,313.789 "/>
<linearGradient id="SVGID_15_" gradientUnits="userSpaceOnUse" x1="221.068" y1="243.4827" x2="221.068" y2="306.9027" gradientTransform="matrix(1.0039 0 0 -1.0039 0.1922 516.5602)">
	<stop  offset="0" style="stop-color:#FFF799"/>
	<stop  offset="0.068" style="stop-color:#FFF8A4"/>
	<stop  offset="0.35" style="stop-color:#FFFBCB"/>
	<stop  offset="0.609" style="stop-color:#FFFDE8"/>
	<stop  offset="0.834" style="stop-color:#FFFFF9"/>
	<stop  offset="1" style="stop-color:#FFFFFF"/>
</linearGradient>
<circle style="fill:url(#SVGID_15_);" cx="222.127" cy="261.039" r="16.351"/>
<linearGradient id="SVGID_16_" gradientUnits="userSpaceOnUse" x1="248.568" y1="275.0627" x2="248.568" y2="300.9527" gradientTransform="matrix(1.0039 0 0 -1.0039 0.1922 516.5602)">
	<stop  offset="0" style="stop-color:#FFF799"/>
	<stop  offset="0.068" style="stop-color:#FFF8A4"/>
	<stop  offset="0.35" style="stop-color:#FFFBCB"/>
	<stop  offset="0.609" style="stop-color:#FFFDE8"/>
	<stop  offset="0.834" style="stop-color:#FFFFF9"/>
	<stop  offset="1" style="stop-color:#FFFFFF"/>
</linearGradient>
<circle style="fill:url(#SVGID_16_);" cx="249.735" cy="235.891" r="6.675"/>
<linearGradient id="SVGID_17_" gradientUnits="userSpaceOnUse" x1="217.808" y1="316.6527" x2="217.808" y2="342.5427" gradientTransform="matrix(1.0039 0 0 -1.0039 0.1922 516.5602)">
	<stop  offset="0" style="stop-color:#FFF799"/>
	<stop  offset="0.068" style="stop-color:#FFF8A4"/>
	<stop  offset="0.35" style="stop-color:#FFFBCB"/>
	<stop  offset="0.609" style="stop-color:#FFFDE8"/>
	<stop  offset="0.834" style="stop-color:#FFFFF9"/>
	<stop  offset="1" style="stop-color:#FFFFFF"/>
</linearGradient>
<circle style="fill:url(#SVGID_17_);" cx="218.854" cy="194.138" r="6.675"/>
<linearGradient id="SVGID_18_" gradientUnits="userSpaceOnUse" x1="248.568" y1="337.8527" x2="248.568" y2="363.7427" gradientTransform="matrix(1.0039 0 0 -1.0039 0.1922 516.5602)">
	<stop  offset="0" style="stop-color:#FFF799"/>
	<stop  offset="0.068" style="stop-color:#FFF8A4"/>
	<stop  offset="0.35" style="stop-color:#FFFBCB"/>
	<stop  offset="0.609" style="stop-color:#FFFDE8"/>
	<stop  offset="0.834" style="stop-color:#FFFFF9"/>
	<stop  offset="1" style="stop-color:#FFFFFF"/>
</linearGradient>
<circle style="fill:url(#SVGID_18_);" cx="249.735" cy="172.865" r="6.675"/>
<linearGradient id="SVGID_19_" gradientUnits="userSpaceOnUse" x1="230.698" y1="291.1527" x2="230.698" y2="334.8227" gradientTransform="matrix(1.0039 0 0 -1.0039 0.1922 516.5602)">
	<stop  offset="0" style="stop-color:#FFF799"/>
	<stop  offset="0.068" style="stop-color:#FFF8A4"/>
	<stop  offset="0.35" style="stop-color:#FFFBCB"/>
	<stop  offset="0.609" style="stop-color:#FFFDE8"/>
	<stop  offset="0.834" style="stop-color:#FFFFF9"/>
	<stop  offset="1" style="stop-color:#FFFFFF"/>
</linearGradient>
<circle style="fill:url(#SVGID_19_);" cx="231.795" cy="216.626" r="11.258"/>
<linearGradient id="SVGID_20_" gradientUnits="userSpaceOnUse" x1="294.778" y1="249.6347" x2="385.218" y2="249.6347" gradientTransform="matrix(1.0039 0 0 -1.0039 0.1922 516.5602)">
	<stop  offset="0" style="stop-color:#FFFFFF;stop-opacity:0"/>
	<stop  offset="0.483" style="stop-color:#FFFFFF"/>
	<stop  offset="0.927" style="stop-color:#FFFFFF;stop-opacity:0.141"/>
	<stop  offset="1" style="stop-color:#FFFFFF;stop-opacity:0"/>
</linearGradient>
<path style="opacity:0.5;fill:url(#SVGID_20_);enable-background:new    ;" d="M324.539,24.835c-37.52,0-67.935,9.954-67.935,22.233
	v442.698c0,12.279,30.416,17.293,67.935,17.293s67.935-5.014,67.935-17.293V47.068C392.475,34.789,362.059,24.835,324.539,24.835z"
	/>
<linearGradient id="SVGID_21_" gradientUnits="userSpaceOnUse" x1="270.3608" y1="324.664" x2="216.1308" y2="445.504" gradientTransform="matrix(1.0039 0 0 -1.0039 0.1922 516.5602)">
	<stop  offset="0" style="stop-color:#FFA981;stop-opacity:0"/>
	<stop  offset="1" style="stop-color:#B82934"/>
</linearGradient>
<polygon style="fill:url(#SVGID_21_);" points="258.224,139.939 287.607,200.835 266.84,200.835 237.457,139.939 "/>
<linearGradient id="SVGID_22_" gradientUnits="userSpaceOnUse" x1="153.577" y1="475.7686" x2="174.977" y2="456.2616" gradientTransform="matrix(1.0039 0 0 -1.0039 0.1922 516.5602)">
	<stop  offset="0" style="stop-color:#FFA981"/>
	<stop  offset="0.536" style="stop-color:#FF8262"/>
	<stop  offset="1" style="stop-color:#FF5C45"/>
</linearGradient>
<path style="fill:url(#SVGID_22_);" d="M191.559,2.692c-0.764-0.745-1.652-1.356-2.617-1.805c1.166,2.12,1.623,4.375,1.623,6.629
	c0,9.285-7.881,18.637-7.881,18.637L135.898,79.35c-3.419,3.878-9.323,4.251-13.192,0.85c-3.878-3.419-4.27-9.323-0.85-13.202
	l56.11-63.818c2.082-2.359,5.187-3.516,8.3-3.095C188.292,0.362,190.135,1.298,191.559,2.692z"/>
<linearGradient id="SVGID_23_" gradientUnits="userSpaceOnUse" x1="160.8702" y1="516.3589" x2="233.3002" y2="443.9249" gradientTransform="matrix(1.0039 0 0 -1.0039 0.1922 516.5602)">
	<stop  offset="0" style="stop-color:#FFA981"/>
	<stop  offset="0.536" style="stop-color:#FF8262"/>
	<stop  offset="1" style="stop-color:#FF5C45"/>
</linearGradient>
<path style="fill:url(#SVGID_23_);" d="M221.534,63.894c-7.89-0.679-15.236-1.5-21.923-2.446L186.84,34.817l-1.337-2.789
	l-2.818-5.875c0,0,7.881-9.352,7.881-18.637c0-2.255-0.459-4.509-1.623-6.629c0.965,0.449,1.853,1.06,2.617,1.805
	c0.191,0.191,0.372,0.382,0.544,0.592c0.172,0.201,0.334,0.411,0.497,0.63c0.153,0.22,0.305,0.44,0.44,0.679
	c0.144,0.229,0.267,0.468,0.392,0.717l11.3,23.565l1.424,2.962L221.534,63.894z"/>
<linearGradient id="SVGID_24_" gradientUnits="userSpaceOnUse" x1="174.4885" y1="465.8432" x2="275.3685" y2="364.9632" gradientTransform="matrix(1.0039 0 0 -1.0039 0.1922 516.5602)">
	<stop  offset="0" style="stop-color:#FFA981"/>
	<stop  offset="0.536" style="stop-color:#FF8262"/>
	<stop  offset="1" style="stop-color:#FF5C45"/>
</linearGradient>
<path style="fill:url(#SVGID_24_);" d="M258.472,140.656c-3.419,0.095-6.887,0.134-10.422,0.134c-3.506,0-6.954-0.038-10.345-0.134
	l-18.341-38.008l-18.158-37.875c6.782,0.965,14.128,1.796,21.932,2.465l16.669,34.742L258.472,140.656z"/>
<linearGradient id="SVGID_25_" gradientUnits="userSpaceOnUse" x1="196.2979" y1="483.0287" x2="171.0379" y2="485.4518" gradientTransform="matrix(1.0039 0 0 -1.0039 0.1922 516.5602)">
	<stop  offset="0" style="stop-color:#FFA981;stop-opacity:0"/>
	<stop  offset="1" style="stop-color:#B82934"/>
</linearGradient>
<path style="fill:url(#SVGID_25_);" d="M221.534,63.894c-7.89-0.679-15.236-1.5-21.923-2.446L186.84,34.817l-1.337-2.789
	l-2.818-5.875c0,0,7.881-9.352,7.881-18.637c0-2.255-0.459-4.509-1.623-6.629c0.965,0.449,1.853,1.06,2.617,1.805
	c0.191,0.191,0.372,0.382,0.544,0.592c0.172,0.201,0.334,0.411,0.497,0.63c0.153,0.22,0.305,0.44,0.44,0.679
	c0.144,0.229,0.267,0.468,0.392,0.717l11.3,23.565l1.424,2.962L221.534,63.894z"/>
<linearGradient id="SVGID_26_" gradientUnits="userSpaceOnUse" x1="219.4477" y1="412.1294" x2="181.0677" y2="415.8094" gradientTransform="matrix(1.0039 0 0 -1.0039 0.1922 516.5602)">
	<stop  offset="0" style="stop-color:#FFA981;stop-opacity:0"/>
	<stop  offset="1" style="stop-color:#B82934"/>
</linearGradient>
<path style="fill:url(#SVGID_26_);" d="M258.472,140.656c-3.419,0.095-6.887,0.134-10.422,0.134c-3.506,0-6.954-0.038-10.345-0.134
	l-18.341-38.008l-18.158-37.875c6.782,0.965,14.128,1.796,21.932,2.465l16.669,34.742L258.472,140.656z"/>
<g>
</g>
<g>
</g>
<g>
</g>
<g>
</g>
<g>
</g>
<g>
</g>
<g>
</g>
<g>
</g>
<g>
</g>
<g>
</g>
<g>
</g>
<g>
</g>
<g>
</g>
<g>
</g>
<g>
</g>
</svg>
