<?xml version="1.0" encoding="iso-8859-1"?>
<!-- Generator: Adobe Illustrator 19.0.0, SVG Export Plug-In . SVG Version: 6.00 Build 0)  -->
<svg version="1.1" id="Capa_1" xmlns="http://www.w3.org/2000/svg" xmlns:xlink="http://www.w3.org/1999/xlink" x="0px" y="0px"
	 viewBox="0 0 512 512" style="enable-background:new 0 0 512 512;" xml:space="preserve">
<linearGradient id="SVGID_1_" gradientUnits="userSpaceOnUse" x1="147.4481" y1="385.4417" x2="442.248" y2="90.6317" gradientTransform="matrix(1.0039 0 0 -1.0039 0.1922 516.5603)">
	<stop  offset="0" style="stop-color:#EFFBFF"/>
	<stop  offset="0.235" style="stop-color:#D5EBF7"/>
	<stop  offset="0.487" style="stop-color:#C2DFF1"/>
	<stop  offset="0.742" style="stop-color:#B6D7ED"/>
	<stop  offset="1" style="stop-color:#B2D5EC"/>
</linearGradient>
<path style="fill:url(#SVGID_1_);" d="M504.354,0.177C449.244,13.462,168.832,97.647,0.611,465.548
	c-1.652,3.613,0.177,7.875,3.928,9.184l24.257,8.47l8.47,24.257c1.31,3.752,5.571,5.581,9.184,3.928
	C414.353,343.168,498.538,62.756,511.823,7.647C512.907,3.151,508.849-0.907,504.354,0.177z"/>
<linearGradient id="SVGID_2_" gradientUnits="userSpaceOnUse" x1="45.8915" y1="50.6203" x2="10.4135" y2="15.1403" gradientTransform="matrix(1.0039 0 0 -1.0039 0.1922 516.5603)">
	<stop  offset="0" style="stop-color:#B2D5EC;stop-opacity:0"/>
	<stop  offset="1" style="stop-color:#7797B0"/>
</linearGradient>
<path style="fill:url(#SVGID_2_);" d="M92.879,303.742C60.038,350.406,28.753,404.001,0.611,465.548
	c-1.652,3.613,0.177,7.875,3.928,9.184l24.257,8.47l8.471,24.258c1.31,3.752,5.571,5.581,9.184,3.928
	c61.547-28.142,115.143-59.426,161.806-92.268L92.879,303.742z"/>
<linearGradient id="SVGID_3_" gradientUnits="userSpaceOnUse" x1="363.1612" y1="169.7248" x2="144.0912" y2="388.7948" gradientTransform="matrix(1.0039 0 0 -1.0039 0.1922 516.5603)">
	<stop  offset="0" style="stop-color:#B2D5EC;stop-opacity:0"/>
	<stop  offset="1" style="stop-color:#7797B0"/>
</linearGradient>
<path style="fill:url(#SVGID_3_);" d="M46.451,511.389C414.353,343.168,498.538,62.756,511.823,7.647
	c0.542-2.248-0.202-4.386-1.642-5.827L28.797,483.203l8.471,24.258C38.577,511.212,42.838,513.041,46.451,511.389z"/>
<linearGradient id="SVGID_4_" gradientUnits="userSpaceOnUse" x1="60.0301" y1="11.5765" x2="13.9501" y2="210.6165" gradientTransform="matrix(1.0039 0 0 -1.0039 0.1922 516.5603)">
	<stop  offset="0" style="stop-color:#B2D5EC;stop-opacity:0"/>
	<stop  offset="1" style="stop-color:#7797B0"/>
</linearGradient>
<path style="fill:url(#SVGID_4_);" d="M65.031,401.121c0.149-1.427-0.108-2.554-0.833-3.279
	c-3.179-3.179-14.063,2.548-24.309,12.794c-8.742,8.742-14.189,17.944-13.627,22.434v49.248l2.535,0.885l8.471,24.258
	c1.31,3.752,5.571,5.581,9.184,3.928c6.278-2.87,12.466-5.777,18.58-8.711L65.031,401.121z"/>
<linearGradient id="SVGID_5_" gradientUnits="userSpaceOnUse" x1="79.5402" y1="122.9738" x2="190.5602" y2="11.9538" gradientTransform="matrix(1.0039 0 0 -1.0039 0.1922 516.5603)">
	<stop  offset="0" style="stop-color:#FEFFB3"/>
	<stop  offset="0.152" style="stop-color:#FEFA96"/>
	<stop  offset="0.739" style="stop-color:#FFE72B"/>
	<stop  offset="1" style="stop-color:#FFE000"/>
</linearGradient>
<path style="fill:url(#SVGID_5_);" d="M79.249,346.071c-13.164,20.402-25.975,42.168-38.297,65.38
	c-2.566,4.834-1.516,10.798,2.562,14.448c14.99,13.42,29.167,27.597,42.586,42.586c3.65,4.077,9.615,5.128,14.448,2.562
	c23.213-12.321,44.979-25.132,65.38-38.297c6.033-3.892,7.253-12.237,2.591-17.697c-22.005-25.77-45.805-49.571-71.575-71.576
	C91.486,338.817,83.141,340.038,79.249,346.071z"/>
<linearGradient id="SVGID_6_" gradientUnits="userSpaceOnUse" x1="157.8009" y1="44.7145" x2="56.6379" y2="145.8745" gradientTransform="matrix(1.0039 0 0 -1.0039 0.1922 516.5603)">
	<stop  offset="0" style="stop-color:#FFE000;stop-opacity:0"/>
	<stop  offset="1" style="stop-color:#FFAF00"/>
</linearGradient>
<path style="fill:url(#SVGID_6_);" d="M65.396,446.604c7.096,7.096,13.995,14.387,20.705,21.881
	c3.65,4.077,9.615,5.128,14.448,2.562c23.213-12.321,44.979-25.132,65.38-38.297c6.033-3.893,7.253-12.237,2.591-17.696
	c-11.002-12.885-22.454-25.278-34.375-37.2L65.396,446.604z"/>
<linearGradient id="SVGID_7_" gradientUnits="userSpaceOnUse" x1="98.8903" y1="45.4627" x2="98.8903" y2="173.3127" gradientTransform="matrix(1.0039 0 0 -1.0039 0.1922 516.5603)">
	<stop  offset="0" style="stop-color:#FFE000;stop-opacity:0"/>
	<stop  offset="1" style="stop-color:#FFAF00"/>
</linearGradient>
<path style="fill:url(#SVGID_7_);" d="M130.868,468.194v-80.401c0.241-2.31-0.176-4.137-1.349-5.311
	c-5.15-5.15-22.779,4.128-39.374,20.723c-14.159,14.159-22.984,29.065-22.073,36.336v61.668
	C90.047,490.577,110.964,479.547,130.868,468.194z"/>
<linearGradient id="SVGID_8_" gradientUnits="userSpaceOnUse" x1="95.5366" y1="106.9802" x2="109.2666" y2="93.2402" gradientTransform="matrix(1.0039 0 0 -1.0039 0.1922 516.5603)">
	<stop  offset="0" style="stop-color:#00FFF4"/>
	<stop  offset="1" style="stop-color:#00DBFF"/>
</linearGradient>
<path style="fill:url(#SVGID_8_);" d="M108.796,421.856c-16.596,16.596-34.224,25.873-39.374,20.723
	c-5.15-5.15,4.128-22.779,20.723-39.375c16.595-16.596,34.224-25.874,39.374-20.723C134.669,387.632,125.39,405.261,108.796,421.856
	z"/>
<linearGradient id="SVGID_9_" gradientUnits="userSpaceOnUse" x1="314.4389" y1="379.9525" x2="470.4289" y2="223.9625" gradientTransform="matrix(1.0039 0 0 -1.0039 0.1922 516.5603)">
	<stop  offset="0" style="stop-color:#00FFF4"/>
	<stop  offset="1" style="stop-color:#00DBFF"/>
</linearGradient>
<path style="fill:url(#SVGID_9_);" d="M484.032,21.537c-37.074,9.461-190.513,57.117-328.561,224.829
	c-3.675,4.464-3.154,11.026,1.142,14.896c33.027,29.757,64.366,61.097,94.124,94.124c3.871,4.296,10.432,4.817,14.896,1.142
	c167.713-138.047,215.369-291.486,224.83-328.56C491.457,24.072,487.929,20.543,484.032,21.537z"/>
<linearGradient id="SVGID_10_" gradientUnits="userSpaceOnUse" x1="417.9696" y1="276.4432" x2="275.3096" y2="419.1032" gradientTransform="matrix(1.0039 0 0 -1.0039 0.1922 516.5603)">
	<stop  offset="0" style="stop-color:#00DBFF;stop-opacity:0"/>
	<stop  offset="1" style="stop-color:#279AFF"/>
</linearGradient>
<path style="fill:url(#SVGID_10_);" d="M204.902,307.098c15.683,15.683,30.957,31.774,45.835,48.288
	c3.871,4.297,10.434,4.816,14.899,1.14C433.343,218.482,481,65.048,490.462,27.97c0.503-1.973-0.118-3.832-1.359-5.073
	L204.902,307.098z"/>
<g>
	<path style="fill:#EFFBFF;" d="M484.533,22.037c-34.924,11.61-180.129,67.501-320.486,232.905
		c-3.737,4.403-3.767,10.413-0.106,13.648c1.597,1.411,3.17,2.847,4.757,4.27c-1.361-2.94-0.446-7.19,2.59-10.677
		C313.595,98.728,451.847,35.885,484.956,22.459c1.74-0.706,3.239-0.429,4.126,0.459C488.031,21.867,486.368,21.427,484.533,22.037z
		"/>
	<path style="fill:#EFFBFF;" d="M489.962,27.467c0.61-1.835,0.171-3.498-0.881-4.549c0.887,0.887,1.164,2.386,0.459,4.126
		c-13.425,33.11-76.269,171.361-239.722,313.668c-3.487,3.036-7.736,3.951-10.677,2.59c1.423,1.586,2.857,3.159,4.27,4.757
		c3.235,3.66,9.245,3.63,13.648-0.106C422.462,207.597,478.352,62.392,489.962,27.467z"/>
</g>
<linearGradient id="SVGID_11_" gradientUnits="userSpaceOnUse" x1="51.9189" y1="74.3627" x2="51.9189" y2="157.3927" gradientTransform="matrix(1.0039 0 0 -1.0039 0.1922 516.5603)">
	<stop  offset="0" style="stop-color:#FFE000;stop-opacity:0"/>
	<stop  offset="1" style="stop-color:#FFAF00"/>
</linearGradient>
<path style="fill:url(#SVGID_11_);" d="M65.031,401.121c0.149-1.427-0.108-2.554-0.833-3.279c-2.864-2.864-11.98,1.514-21.25,9.897
	c-0.665,1.239-1.333,2.466-1.996,3.712c-2.566,4.834-1.516,10.798,2.562,14.448c7.367,6.596,14.536,13.376,21.517,20.344V401.121z"
	/>
<linearGradient id="SVGID_12_" gradientUnits="userSpaceOnUse" x1="43.2095" y1="101.8431" x2="51.6865" y2="93.3631" gradientTransform="matrix(1.0039 0 0 -1.0039 0.1922 516.5603)">
	<stop  offset="0" style="stop-color:#00FFF4"/>
	<stop  offset="1" style="stop-color:#00DBFF"/>
</linearGradient>
<path style="fill:url(#SVGID_12_);" d="M51.403,422.151c-10.246,10.246-21.13,15.973-24.309,12.794s2.548-14.063,12.794-24.309
	c10.246-10.246,21.13-15.973,24.309-12.794S61.649,411.906,51.403,422.151z"/>
<linearGradient id="SVGID_13_" gradientUnits="userSpaceOnUse" x1="79.6838" y1="58.2474" x2="33.6038" y2="102.5574" gradientTransform="matrix(1.0039 0 0 -1.0039 0.1922 516.5603)">
	<stop  offset="0" style="stop-color:#B2D5EC;stop-opacity:0"/>
	<stop  offset="1" style="stop-color:#7797B0"/>
</linearGradient>
<path style="fill:url(#SVGID_13_);" d="M114.991,451.082c0.149-1.427-0.108-2.554-0.833-3.279
	c-3.179-3.179-14.063,2.548-24.309,12.794c-8.742,8.742-14.19,17.944-13.627,22.433v14.186
	c13.315-6.581,26.237-13.305,38.769-20.161V451.082z"/>
<linearGradient id="SVGID_14_" gradientUnits="userSpaceOnUse" x1="92.9691" y1="52.0827" x2="101.4491" y2="43.6027" gradientTransform="matrix(1.0039 0 0 -1.0039 0.1922 516.5603)">
	<stop  offset="0" style="stop-color:#00FFF4"/>
	<stop  offset="1" style="stop-color:#00DBFF"/>
</linearGradient>
<path style="fill:url(#SVGID_14_);" d="M101.363,472.111c-10.246,10.246-21.13,15.974-24.309,12.794
	c-3.179-3.179,2.548-14.063,12.794-24.309c10.246-10.246,21.13-15.974,24.309-12.794
	C117.338,450.982,111.61,461.866,101.363,472.111z"/>
<g>
</g>
<g>
</g>
<g>
</g>
<g>
</g>
<g>
</g>
<g>
</g>
<g>
</g>
<g>
</g>
<g>
</g>
<g>
</g>
<g>
</g>
<g>
</g>
<g>
</g>
<g>
</g>
<g>
</g>
</svg>
