<svg id="Layer_1" enable-background="new 0 0 496 496" height="512" viewBox="0 0 496 496" width="512" xmlns="http://www.w3.org/2000/svg"><path d="m428.92 272.53c-2.41-23.95-16.51-45.74-37.21-59.49h-.01c4.725-51.497-43.86-91.755-93.48-77.95-25.775-27.805-61.141-44.353-100.06-44.67-75.41-.63-137.62 60.59-138.16 136-.52 73.4 56.68 133.54 128.9 137.75h158.21c49.9-3.58 86.25-47.36 81.81-91.64z" fill="#ffb366"/><path d="m347.11 364.17h-30c62.877-4.511 104.73-73.011 69.07-126.73 3.41-7.35 5.64-15.35 6.46-23.77 20.19 13.78 33.91 35.27 36.28 58.86 4.44 44.28-31.91 88.06-81.81 91.64z" fill="#ffaa64"/><path d="m101 246.42c-.33 46.04 22.06 86.87 56.62 111.94-56.26-17.32-97.06-69.89-96.62-131.94.795-111.061 127.626-174.822 217.12-110.03-93.771-26.755-176.499 43.351-177.12 130.03z" fill="#ffbd7b"/><path d="m453.87 364.17-24.423 42.342c-4.286 7.43-12.212 12.008-20.789 12.008h-321.315c-8.578 0-16.503-4.578-20.789-12.008l-24.424-42.342z" fill="#ededed"/><path d="m117.34 418.52h-30c-8.57 0-16.5-4.58-20.79-12.01l-24.42-42.34h30l24.42 42.34c4.29 7.43 12.22 12.01 20.79 12.01z" fill="#f7f7f7"/><path d="m358.66 418.52h50c8.57 0 16.5-4.58 20.79-12.01l24.42-42.34h-50l-24.42 42.34c-4.29 7.43-12.22 12.01-20.79 12.01z" fill="#e3e3e3"/><path d="m392.7 213.04c-3.35 37.76-35.07 67.37-73.7 67.37-40.87 0-74-33.13-74-74 0-40.907 33.164-74 74-74 43.626 0 77.652 37.551 73.7 80.63z" fill="#ffb366"/><path d="m373.8 156.67c-7.75-2.76-16.1-4.26-24.8-4.26-64.643 0-97.499 76.675-54.8 123.74-28.67-10.19-49.2-37.57-49.2-69.74 0-67.74 83.607-99.472 128.8-49.74z" fill="#ffbd7b"/><path d="m480 348.173c-11.822 0-50.989 0-62.727 0 27.762-29.111 34.964-69.491 23.564-104.138-2.762-8.395-11.806-12.961-20.199-10.197-8.394 2.762-12.959 11.806-10.197 20.199 14.525 44.146-16.302 90.551-62.752 94.136h-157.272c-63.532-3.9-113.874-56.815-113.414-121.64.691-97.315 112.939-156.188 193.538-95.93-24.965 16.014-41.541 44.013-41.541 75.811 0 49.626 40.374 90 90 90 72.616 0 115.186-81.986 73.914-141.286 39.076-39.076 36.879-37.722 39.931-37.722.825 0 2.412.203 3.771 1.562 3.124 3.125 7.219 4.687 11.313 4.687 14.123 0 21.426-17.202 11.314-27.313-5.606-5.606-12.567-9.044-19.839-10.332-1.288-7.271-4.726-14.232-10.332-19.838-6.248-6.249-16.379-6.249-22.627 0-6.249 6.248-6.249 16.379 0 22.627 2.072 2.072 2.088 5.455-.005 7.548l-36.154 36.154c-19.649-13.676-43.235-18.581-65.786-14.913-58.68-56.82-153.26-58.622-213.747.941-66.032 65.026-59.783 172.542 13.266 229.644-10.286 0-77.679 0-88.02 0-8.836 0-16 7.164-16 16s7.164 16 16 16h16.885l26.734 46.338c2.857 4.953 8.141 8.004 13.859 8.004h349.045c5.718 0 11.001-3.051 13.859-8.004l26.734-46.338h16.885c8.836 0 16-7.164 16-16s-7.164-16-16-16zm-103-141.759c0 31.981-26.019 58-58 58s-58-26.019-58-58 26.019-58 58-58 58 26.019 58 58zm36.282 196.101h-330.564l-12.89-22.342h356.343zm-247.024-238.006c5.749 6.71 4.97 16.811-1.74 22.561-11.612 9.949-18.333 24.333-18.441 39.464-.063 8.797-7.214 15.886-15.997 15.886-8.884 0-16.065-7.233-16.002-16.114.173-24.399 10.969-47.557 29.62-63.537 6.71-5.75 16.81-4.971 22.56 1.74z"/></svg>