<svg id="Layer_1" enable-background="new 0 0 495.9 495.9" height="512" viewBox="0 0 495.9 495.9" width="512" xmlns="http://www.w3.org/2000/svg"><path d="m466.91 151.65v69.25c0 8.837-7.163 16-16 16h-23.24v227c0 8.837-7.163 16-16 16h-327.44c-8.837 0-16-7.163-16-16v-227h-23.24c-8.837 0-16-7.163-16-16v-69.25c0-8.837 7.163-16 16-16h405.92c8.836 0 16 7.163 16 16z" fill="#fe4f60"/><path d="m450.91 135.65c-4.016 0-290.341 0-405.92 0-8.837 0-16 7.164-16 16v69.25c0 8.836 7.163 16 16 16h140.94v40.157c0 11.837 12.408 19.576 23.038 14.369 1.248-.611 21.465-10.51 31.946-15.641 4.439-2.173 9.633-2.173 14.071 0 1.592.78 30.356 14.862 31.946 15.641 10.63 5.207 23.038-2.532 23.038-14.369v-40.157h140.94c8.837 0 16-7.164 16-16v-69.25c.001-8.837-7.163-16-15.999-16z" fill="#ff6d7a"/><path d="m466.91 151.65v14h-391.92c-8.84 0-16 7.16-16 16v55.25h-14c-8.84 0-16-7.16-16-16v-69.25c0-8.84 7.16-16 16-16h405.92c8.84 0 16 7.16 16 16z" fill="#fe929f"/><path d="m68.23 236.9h359.72v31h-359.72z" fill="#e84857"/><path d="m309.97 135.65v141.41c0 11.082-11.407 20.129-24.05 13.87v188.97h-75.94v-188.97c-12.695 6.285-24.05-2.845-24.05-13.87v-141.41z" fill="#d6f4fc"/><path d="m309.97 277.057c0 11.837-12.408 19.576-23.038 14.369-1.564-.766-32.596-15.959-31.946-15.641-4.439-2.173-9.632-2.173-14.071 0-.388.19-31.946 15.641-31.946 15.641-10.63 5.207-23.038-2.532-23.038-14.369 0-1.984 0-120.037 0-141.407h124.04c-.001 3.63-.001 145.899-.001 141.407z" fill="#e8f8fc"/><path d="m185.93 135.65h124.04v30h-124.04z" fill="#f1fafc"/><path d="m466.905 119.646h-77.342c19.988-28.68 17.191-67.029-5.647-92.522-43.735-48.819-110.804-26.062-135.966 24.478-26.181-52.588-94.378-70.906-133.844-26.849-27.914 31.155-25.901 68.875-7.77 94.892h-77.342c-8.836 0-16 7.164-16 16v101.251c0 8.836 7.164 16 16 16h23.235v227.004c0 8.836 7.164 16 16 16h359.441c8.836 0 16-7.164 16-16v-227.003h23.235c8.836 0 16-7.164 16-16v-101.251c0-8.837-7.163-16-16-16zm-196.49-33.403c5.834-45.506 58.734-72.296 87.546-40.136l2.122 2.369c24.592 27.452 5.001 71.17-31.795 71.17-7.221 0-54.854 0-62.156 0zm23.551 190.815c-42.303-20.72-41.062-20.723-46.016-20.723-4.945 0-3.692-.008-46.016 20.723v-125.412h92.032zm-158.15-228.581 2.124-2.371c28.922-32.284 81.725-5.261 87.545 40.137l4.283 33.403c-7.302 0-54.937 0-62.156 0-36.866 0-56.34-43.771-31.796-71.169zm-90.822 103.169h124.939v69.251h-124.939zm39.235 101.251h85.705v49.813c0 10.912 11.201 20.167 24.047 13.875v147.315h-109.752zm327.442 211.003h-109.752v-110c0-8.836-7.164-16-16-16s-16 7.164-16 16v110h-43.938v-162.988l21.969-10.761c60.03 29.403 56.949 28.56 62.015 28.56 8.838 0 16.001-7.173 16.001-16v-49.813h85.705zm39.234-243.003h-124.939v-69.251h124.939z"/></svg>