<svg id="Layer_1" enable-background="new 0 0 496 496" height="512" viewBox="0 0 496 496" width="512" xmlns="http://www.w3.org/2000/svg"><path d="m248 16c-82.997 0-150.56 67.517-150.56 150.56v254.85c0 32.36 26.23 58.59 58.59 58.59s58.59-26.23 58.59-58.59c0-12.934 0-245.721 0-254.85 0-15.5 10.61-28.56 24.95-32.31 19.64-5.11 38.865 8.296 41.5 27.81.392 2.742.31 4.082.31 11.48 0 32.35 26.23 58.58 58.59 58.58s58.59-26.23 58.59-58.58v-6.98c0-83.021-67.54-150.56-150.56-150.56z" fill="#e8f8fc"/><path d="m339.41 47c-97.253-30.858-195.97 42.382-195.97 143.56v254.85c0 12.93 4.19 24.88 11.29 34.57-31.76-.69-57.29-26.65-57.29-58.57v-254.85c0-124.689 143.568-194.991 241.97-119.56z" fill="#f1fafc"/><path d="m346.61 52.88-.11.12c8.984 47.302-18.347 94.251-65 109l-.43.06c-2.637-19.525-21.873-32.918-41.5-27.81-.355-1.269.565-20.369-10.07-42.25-20.271-41.701-60.223-51.835-61.12-53.18 55.611-34.796 127.993-29.601 178.23 14.06z" fill="#fe929f"/><path d="m214.5 396c-29.718-38.061-70.861-64.904-117-77-.1 0-.06 6.784-.06-143 1.255 0 68.328 14.587 117.06 77 .129 0 .239 143 0 143z" fill="#fe929f"/><path d="m339.4 47c-41.643-13.213-89.392-8.104-128.95 18.37-20.859-20.859-41.247-25.315-42.07-26.55 52.756-33.01 120.972-30.185 171.02 8.18z" fill="#ffa4b8"/><path d="m143.44 193.77v143c-22.676-11.855-45-17.77-46-17.77v-143c1 0 23.267 5.885 46 17.77z" fill="#ffa4b8"/><path d="m248 0c-91.839 0-166.556 74.717-166.556 166.556v254.858c0 41.127 33.459 74.586 74.586 74.586s74.586-33.459 74.586-74.586v-254.858c0-9.585 7.798-17.384 17.384-17.384s17.384 7.798 17.384 17.384v6.98c0 41.127 33.459 74.586 74.586 74.586s74.586-33.459 74.586-74.586v-6.98c0-91.839-74.717-166.556-166.556-166.556zm-77.895 56.897c28.256 12.711 48.346 36.298 52.589 67.272-14.41 8.635-24.078 24.401-24.078 42.387v46.124c-23.998-21.481-52.724-38.339-85.139-48.681.827-44.14 23.007-83.15 56.628-107.102zm-56.661 140.946c33.2 12.47 62.523 33.413 85.172 60.935v96.901c-24.108-21.58-52.871-38.391-85.172-48.691zm42.586 266.157c-23.482 0-42.586-19.104-42.586-42.586v-80.572c33.2 12.47 62.523 33.413 85.172 60.935v19.636c0 23.483-19.104 42.587-42.586 42.587zm98.044-346.441c-4.775-30.52-21.356-58.484-50.087-78.159 41.878-14.537 90.272-7.874 127.581 21.775 3.785 32.389-11.361 63.631-41.354 79.777-7.673-12.605-20.836-21.506-36.14-23.393zm128.482 55.977c0 23.482-19.104 42.586-42.586 42.586-22.757 0-42.586-18.181-42.586-43.098 33.13-14.751 56.818-43.286 64.237-78.471 13.249 20.834 20.935 45.537 20.935 72.003z"/></svg>