<svg id="Layer_1" enable-background="new 0 0 495.198 495.198" height="512" viewBox="0 0 495.198 495.198" width="512" xmlns="http://www.w3.org/2000/svg"><path d="m479.194 193.004c0 144.216-163.114 226.725-279.18 144.55-.17.247-130.988 131.048-131.2 131.26-12.93 12.93-32.91 13.91-44.62 2.19-11.72-11.71-10.74-31.69 2.19-44.62.212-.212 131.013-131.03 131.26-131.2-82.279-116.172.455-279.18 144.55-279.18 97.75 0 177 79.25 177 177z" fill="#c9edf2"/><path d="m302.194 16.004c-97.75 0-177 79.25-177 177 0 97.84 79.321 177 177 177 97.75 0 177-79.25 177-177s-79.25-177-177-177z" fill="#e8f8fc"/><path d="m479.194 193.004c0 142.149-159.017 225.183-275.4 147.14 114.729 40.082 235.4-45.163 235.4-167.14 0-61.32-31.19-115.36-78.57-147.12 69.04 24.13 118.57 89.84 118.57 167.12z" fill="#d6f4fc"/><path d="m428.244 68.744c-115.807-46.64-243.05 38.739-243.05 164.26 0 47.098 18.529 91.444 50.97 124.27-65.298-26.23-110.97-90.136-110.97-164.27 0-97.75 79.25-177 177-177 49.33 0 93.95 20.18 126.05 52.74z" fill="#f1fafc"/><path d="m302.194 16.004c37.938 37.283 40.374 98.127 0 137-22.09 0-40 17.91-40 40-38.837-40.336-99.674-37.981-137 0 0 97.84 79.321 177 177 177-37.938-37.283-40.374-98.127 0-137 22.09 0 40-17.91 40-40 38.837 40.336 99.674 37.981 137 0 0-97.75-79.25-177-177-177z" fill="#fe929f"/><circle cx="302.194" cy="193.004" fill="#ff6d7a" r="40"/><path d="m479.194 193.004c-2.93 2.99-19.86 19.64-46.17 26.49 19.571-72.104-7.994-150.437-72.4-193.61 69.04 24.13 118.57 89.84 118.57 167.12z" fill="#fe7a8a"/><path d="m302.194 370.004c-36.41 0-70.26-10.99-98.4-29.86 27.044 9.448 55.392 11.872 82.05 8.29 6.95 12.11 14.44 19.699 16.35 21.57z" fill="#fe7a8a"/><path d="m236.164 357.274c-65.298-26.23-110.97-90.136-110.97-164.27 3.87-3.94 32.09-31.66 74.08-29.3-27.563 64.739-14.401 141.671 36.89 193.57z" fill="#ffa4b8"/><path d="m428.244 68.744c-32.563-13.115-67.751-15.841-100.35-9.41-7.26-24.69-22.82-40.51-25.7-43.33 49.33 0 93.95 20.18 126.05 52.74z" fill="#ffa4b8"/><path d="m48.384 436.383c-12.29 12.29-13.78 30.94-3.84 42.81-26.979.036-38.592-32.378-18.16-52.81.212-.212 131.013-131.03 131.26-131.2 4.39 6.19 9.16 12.09 14.29 17.66z" fill="#e1f7fa"/><path d="m302.041.006c-150.491.118-242.077 166.021-164.88 292.976l-122.088 122.089c-9.066 9.066-14.396 20.891-15.006 33.293-2.103 42.689 48.963 62.857 80.06 31.761l122.089-122.088c127.034 77.245 292.979-14.502 292.979-165.033-.001-108.417-89.422-193.796-193.154-192.998zm160.997 186.138c-32.567 27.487-74.992 26.75-105.331-.41-2.309-17.727-12.932-32.867-27.825-41.377 20.36-31.37 24.508-71.411 5.593-108.886 70.695 14.918 124.432 76.36 127.563 150.673zm-194.124 164.392c-70.695-14.918-124.432-76.359-127.563-150.672 32.281-27.239 74.73-26.986 105.331.409 2.309 17.727 12.932 32.867 27.825 41.377-20.361 31.37-24.508 71.411-5.593 108.886zm33.28-133.532c-13.233 0-24-10.766-24-24s10.767-24 24-24 24 10.766 24 24-10.766 24-24 24zm-6.86-184.844c27.485 32.571 26.751 74.991-.41 105.331-17.727 2.31-32.867 12.933-41.376 27.825-31.306-20.319-71.338-24.543-108.887-5.591 14.918-70.697 76.359-124.434 150.673-127.565zm-237.834 425.337c-6.67 6.669-16.536 7.655-21.996 2.196-5.379-5.378-4.481-15.316 2.196-21.995l118.543-118.544c6.115 7.066 12.734 13.685 19.8 19.8zm251.554-103.649c-27.485-32.571-26.751-74.991.41-105.331 17.727-2.31 32.867-12.933 41.376-27.825 31.706 20.579 71.772 24.328 108.885 5.599-14.92 70.692-76.36 124.425-150.671 127.557z"/></svg>