<svg id="Layer_1" enable-background="new 0 0 496.052 496.052" height="512" viewBox="0 0 496.052 496.052" width="512" xmlns="http://www.w3.org/2000/svg"><path d="m455.163 223.192c0-114.4-92.74-207.14-207.14-207.14s-207.14 92.74-207.14 207.14c0 62.71 27.86 118.92 71.89 156.9 0 .104.516-3.517-10.41 62.75-3.22 19.49 11.82 37.21 31.57 37.21h228.18c19.75 0 34.79-17.72 31.57-37.21l-10.33-62.65c-2.506 0 71.81-51.594 71.81-157z" fill="#b7fff9"/><path d="m312.333 294.852c-33.655-48.36-31.22-44.762-31.28-45.15 3.38-.48 6.63-1.02 9.74-1.6 10.01-1.87 14.76-13.42 8.95-21.77l-39.65-56.97c-5.85-8.41-18.29-8.41-24.14 0l-39.65 56.97c-5.81 8.35-1.06 19.9 8.95 21.77 10.514 1.961 9.786 1.301 9.7 1.86l-31.24 44.89c-7.49 10.76-1.32 25.63 11.58 28 34.886 6.395 70.521 6.405 105.46 0 12.9-2.37 19.07-17.24 11.58-28z" fill="#cefd97"/><path d="m80.883 263.192c0 62.71 27.86 118.92 71.89 156.9 0 .102.497-3.399-9.95 59.96h-8.89c-19.75 0-34.79-17.72-31.57-37.21 10.826-65.657 10.286-62.65 10.41-62.65 0-1.112-71.89-54.125-71.89-157 0-114.4 92.74-207.14 207.14-207.14 67.4 0 127.28 32.19 165.1 82.04-34.76-26.39-78.1-42.04-125.1-42.04-114.4 0-207.14 92.74-207.14 207.14z" fill="#cefffb"/><path d="m393.683 442.842c3.22 19.49-11.82 37.21-31.57 37.21h-228.18c-19.75 0-34.79-17.72-31.57-37.21l10.33-62.65h270.66z" fill="#fe4f60"/><path d="m300.753 322.852c-34.886 6.395-70.521 6.405-105.46 0-9.02-1.66-14.75-9.42-14.82-17.63 29.28 3.807 59.721 3.232 90.28-2.37 12.9-2.37 19.07-17.24 11.58-28l-16.35-23.49c-19.754 1.522-40.247.56-60.73-3.26-8.3-1.55-12.98-9.75-11.03-17.26 22.401 2.261 44.679 1.343 66.57-2.74 10.01-1.87 14.76-13.42 8.95-21.77l-28.84-41.44c6.29-3.49 14.69-2 19.19 4.47l39.65 56.97c5.81 8.35 1.06 19.9-8.95 21.77-3.11.58-6.36 1.12-9.74 1.6.06.391-2.361-3.19 31.28 45.15 7.49 10.76 1.32 25.63-11.58 28z" fill="#b5f26d"/><path d="m158.933 480.052h-25c-19.75 0-34.79-17.72-31.57-37.21l10.33-62.65h25l-10.33 62.65c-3.22 19.49 11.82 37.21 31.57 37.21z" fill="#ff6d7a"/><path d="m337.113 480.052h25c19.75 0 34.79-17.72 31.57-37.21l-10.33-62.65h-25l10.33 62.65c3.22 19.49-11.82 37.21-31.57 37.21z" fill="#e84857"/><path d="m405.809 65.409c-87.209-87.208-228.356-87.215-315.572 0-89.795 89.795-86.163 234.987 5.27 320.645l-8.934 54.19c-4.821 29.244 17.765 55.808 47.361 55.808h228.179c29.639 0 52.175-26.606 47.361-55.808l-10.33-62.653c-1.274-7.728-7.955-13.397-15.787-13.397h-119.334v-20.975c13.288-.694 26.558-2.234 39.62-4.634 24.362-4.477 35.932-32.592 21.818-52.873l-19.11-27.46c12.652-9.568 15.872-27.629 6.525-41.06l-39.647-56.972c-12.206-17.539-38.208-17.538-50.412 0l-39.647 56.971c-9.3 13.364-6.194 31.441 6.525 41.06l-19.11 27.46c-14.148 20.33-2.484 48.408 21.818 52.873 13.062 2.4 26.332 3.94 39.62 4.634v20.975h-113.048c-39.532-36.202-62.095-87.263-62.095-140.998 0-105.396 85.747-191.143 191.143-191.143 150.734 0 241.775 167.122 161.448 293.517-4.74 7.458-2.537 17.346 4.921 22.086s17.346 2.536 22.085-4.922c54.298-85.436 45.476-201.18-30.668-277.324zm-157.786 114.612 36.808 52.891c-24.282 4.174-49.334 4.174-73.616 0zm-51.172 123.969 25.914-37.237c17.026 1.735 33.468 1.738 50.518 0 28.278 40.634 26.714 37.683 26.123 39.118-.426 1.034-1.269 1.189-1.545 1.24-32.526 5.976-66.31 6.13-99.673 0-1.471-.27-2.197-1.885-1.337-3.121zm181.048 141.459c1.609 9.758-5.882 18.603-15.787 18.603h-228.178c-9.89 0-17.398-8.831-15.787-18.603l8.121-49.256h243.511zm-184.876-15.397c0-8.837 7.164-16 16-16h78c8.836 0 16 7.163 16 16s-7.164 16-16 16h-78c-8.837 0-16-7.164-16-16zm-92.12-224.23c-8.367-3.49-11.967-12.936-8.65-20.89 3.519-8.458 13.579-12.545 22.31-7.99 7.459 4.054 10.317 12.81 7.23 20.23-3.038 7.676-12.365 12.201-20.89 8.65zm32.99 39.54c9.547-1.833 18.163 4.944 19.05 14.12.852 8.894-5.676 16.655-14.35 17.49-7.772.748-15.403-4.173-17.26-12.79-1.613-8.38 3.412-16.845 12.56-18.82zm20.76-144.45c5.69-7.066 16.784-8.066 23.68-1.17 7.961 7.966 5.46 21.638-5.19 26.08-15.36 6.398-28.974-12.202-18.49-24.91zm133.49 3.44c-15.192-10.007-4.061-33.882 13.53-28.6 5.282 1.617 9.119 5.647 10.65 10.65 4.523 14.121-11.739 26.338-24.18 17.95zm44.11 52.82c-3.368-8.075.404-17.455 8.65-20.89 8.63-3.595 18.623.979 21.42 10.12 2.27 7.088-.978 15.999-9.18 19.42-8.49 3.536-17.837-.935-20.89-8.65zm48.07 85c4.988 7.393 2.767 17.446-4.42 22.18-9.009 6.074-22.044 1.557-24.57-10.17-3.347-17.387 19.545-26.337 28.99-12.01z"/></svg>