<svg id="Layer_1" enable-background="new 0 0 496 496" height="512" viewBox="0 0 496 496" width="512" xmlns="http://www.w3.org/2000/svg"><path d="m407.5 430h-18.5v-390c0-13.255-10.745-24-24-24h-234c-13.255 0-24 10.745-24 24v390h-18.5c-14.636 0-26.5 11.864-26.5 26.5v7.5c0 8.837 7.163 16 16 16h340c8.837 0 16-7.163 16-16v-7.5c0-14.636-11.864-26.5-26.5-26.5z" fill="#ffbd7b"/><path d="m310.27 222.18c54.864-54.967 16.349-150.18-62.27-150.18-78.451 0-117.244 95.078-62.28 150.18-4.6 2.06-7.97 6.66-7.97 12.29v35.06c0 9.41 9.42 15.92 18.23 12.58l37.3-14.12v-4.63c0 8.13 6.59 14.72 14.72 14.72s14.72-6.59 14.72-14.72v4.63l37.3 14.12c8.81 3.34 18.23-3.17 18.23-12.58v-35.06c0-5.64-3.38-10.23-7.98-12.29zm-62.27-34.18c-15.46 0-28-12.54-28-28s12.54-28 28-28 28 12.54 28 28-12.54 28-28 28z" fill="#b5f26d"/><path d="m300.02 221.89c-38.682 14.643-37.3 13.553-37.3 15.501v3.249c0-8.13-6.59-14.72-14.72-14.72s-14.72 6.59-14.72 14.72v-3.249c0-1.956 1.356-.868-37.3-15.501-8.801-3.332-18.23 3.147-18.23 12.58v35.06c0 9.41 9.42 15.92 18.23 12.58 38.682-14.643 37.3-13.553 37.3-15.501v-3.249c0 8.13 6.59 14.72 14.72 14.72s14.72-6.59 14.72-14.72c0 3.056-.329 4.506 1.292 5.119l36.008 13.631c8.81 3.34 18.23-3.17 18.23-12.58v-35.06c0-9.433-9.451-15.913-18.23-12.58z" fill="#fe929f"/><circle cx="248" cy="160" fill="#ffbd7b" r="28"/><path d="m262.72 240.64v22.72c0 8.13-6.59 14.72-14.72 14.72s-14.72-6.59-14.72-14.72v-22.72c0-8.13 6.59-14.72 14.72-14.72s14.72 6.59 14.72 14.72z" fill="#ffa4b8"/><path d="m389 40v6h-228c-13.25 0-24 10.75-24 24v360h-30v-390c0-13.25 10.75-24 24-24h234c13.25 0 24 10.75 24 24z" fill="#ffd3a6"/><path d="m319.41 108.59c-57.508-41.56-139.41-.705-139.41 71.41 0 14.83 3.67 28.8 10.15 41.06-1.55.11-3.05.5-4.43 1.12-54.945-55.083-16.191-150.18 62.28-150.18 29.41 0 55.45 14.43 71.41 36.59z" fill="#cefd97"/><path d="m233.28 242.22-27.3-10.33c-8.801-3.332-18.23 3.147-18.23 12.58 0 38.141-.136 36.111.36 38.16-5.77-1.37-10.36-6.53-10.36-13.1v-35.06c0-9.432 9.428-15.912 18.23-12.58l36.008 13.631c1.664.63 1.292 2.032 1.292 6.699z" fill="#ffa4b8"/><path d="m260.6 233.04c-9.699-5.898-22.32 1.095-22.32 12.6 0 24.352-.621 25.812 2.12 30.32-4.27-2.57-7.12-7.25-7.12-12.6v-22.72c0-14.892 19.674-20.303 27.32-7.6z" fill="#ffbfcd"/><path d="m252 191c-7.22 0-13.8-2.74-18.77-7.22 4.29 2.68 9.35 4.22 14.77 4.22 25.616 0 37.679-31.671 18.77-48.78 23.796 14.775 13.365 51.78-14.77 51.78z" fill="#cefd97"/><path d="m317.72 230.73c-3.45-4.42-9.54-6.52-15.37-4.3l-39.63 15.21c0-4.067-.355-5.487 1.29-6.12l36.01-13.63c7.402-2.81 15.573 1.385 17.7 8.84z" fill="#ffa4b8"/><path d="m434 456.5v7.5c0 8.837-7.163 16-16 16h-340c-8.837 0-16-7.163-16-16v-7.5c0-14.636 11.864-26.5 26.5-26.5 10.167 0 322.413 0 319 0 14.636 0 26.5 11.864 26.5 26.5z" fill="#aaa"/><path d="m108 480h-30c-8.84 0-16-7.16-16-16v-7.5c0-14.64 11.86-26.5 26.5-26.5h30c-14.64 0-26.5 11.86-26.5 26.5v7.5c0 8.84 7.16 16 16 16z" fill="#b2b2b2"/><path d="m368 480h50c8.84 0 16-7.16 16-16v-7.5c0-14.64-11.86-26.5-26.5-26.5h-50c14.64 0 26.5 11.86 26.5 26.5v7.5c0 8.84-7.16 16-16 16z" fill="#999"/><path d="m248 56c-85.719 0-134.124 98.198-83.491 166.04-3.575 7.674-2.762 9.919-2.762 47.486 0 16.355 13.285 29.462 29.464 29.462 6.957 0 8.455-1.161 37.145-12.028 11.35 9.465 27.856 9.535 39.291 0l26.71 10.118c19.298 7.311 39.898-7.003 39.898-27.551v-35.052c0-20.596-20.643-34.844-39.898-27.551l-26.71 10.118c-11.35-9.465-27.856-9.535-39.291 0-28.803-10.911-29.922-11.871-36.528-12.009-37.635-46.769-4.226-117.033 56.172-117.033 44.75 0 79.04 40.706 70.792 85.22-1.609 8.688 4.13 17.037 12.818 18.646 8.685 1.61 17.036-4.129 18.646-12.818 11.913-64.335-37.704-123.048-102.256-123.048zm54.254 182.15v27.7l-23.53-8.913v-9.874zm-84.978 18.787-23.53 8.913v-27.7l23.53 8.913zm-13.276-96.937c0 24.262 19.738 44 44 44s44-19.738 44-44-19.738-44-44-44-44 19.738-44 44zm56 0c0 6.617-5.383 12-12 12s-12-5.383-12-12 5.383-12 12-12 12 5.383 12 12zm145 254v-398c0-8.836-7.163-16-16-16h-282c-8.837 0-16 7.164-16 16v398c-28.584 0-45 20.919-45 42.5v23.5c0 8.836 7.163 16 16 16s16-7.164 16-16v-23.5c0-5.79 4.71-10.5 10.5-10.5h319c5.79 0 10.5 4.71 10.5 10.5v23.5c0 8.836 7.163 16 16 16s16-7.164 16-16v-23.5c0-21.489-16.276-42.5-45-42.5zm-282 0v-382h250v382zm215-63c0 8.836-7.163 16-16 16h-148c-8.837 0-16-7.164-16-16s7.163-16 16-16h148c8.837 0 16 7.164 16 16z"/></svg>