<svg id="Layer_1" enable-background="new 0 0 496 496" height="512" viewBox="0 0 496 496" width="512" xmlns="http://www.w3.org/2000/svg"><path d="m454 274.56v2.35c0 19.84-22 31.78-38.63 20.96l-24.37-15.85v197.98h-286v-197.98l-24.37 15.85c-16.63 10.82-38.63-1.12-38.63-20.96v-2.35c0-8.46 4.28-16.34 11.37-20.96v-13.16c0-29.21 14.77-56.44 39.26-72.37l108.29-70.45c28.62-18.62 65.53-18.62 94.16 0l32.92 21.42v-79.04c0-13.25 10.75-24 24-24h29c13.25 0 24 10.75 24 24v129.15c-.418.418 37.63 21.759 37.63 71.29v13.16c7.09 4.62 11.37 12.5 11.37 20.96z" fill="#f7f7f7"/><path d="m274 294c-15.042 0-36.958 0-52 0-17.67 0-32 14.33-32 32v52c0 17.67 14.33 32 32 32h52c17.67 0 32-14.33 32-32 0-15.042 0-36.958 0-52 0-17.67-14.33-32-32-32z" fill="#b7fff9"/><path d="m442.63 253.6v-13.16c0-28.56-14.12-55.22-37.64-71.28.1-.1.01.45.01-129.16 0-13.25-10.75-24-24-24h-29c-13.25 0-24 10.75-24 24v79.04l-32.92-21.42c-28.63-18.62-65.54-18.62-94.16 0l-108.29 70.45c-24.49 15.93-39.26 43.16-39.26 72.37v13.16c-7.09 4.62-11.37 12.5-11.37 20.96v2.35c0 19.84 22 31.78 38.63 20.96 31.709-20.624 159.097-103.483 160.83-104.61 3.97-2.59 9.1-2.59 13.08 0 5.729 3.727 111.334 72.418 160.83 104.61 16.63 10.82 38.63-1.12 38.63-20.96v-2.35c0-8.46-4.28-16.34-11.37-20.96z" fill="#fe4f60"/><path d="m405 40v24h-77v-24c0-13.25 10.75-24 24-24h29c13.25 0 24 10.75 24 24z" fill="#e8f8fc"/><path d="m442.63 240.44v13.16l-181.54-118.09c-7.96-5.17-18.22-5.17-26.18 0l-181.54 118.09v-13.16c0-29.21 14.77-56.44 39.26-72.37l108.29-70.45c28.62-18.62 65.53-18.62 94.16 0 113.775 74.029 108.551 70.591 109.91 71.54 23.52 16.06 37.64 42.72 37.64 71.28z" fill="#e8f8fc"/><path d="m296.35 98.44c-24.85-8.64-52.74-5.58-75.43 9.18l-108.29 70.45c-21.6 14.05-35.64 36.88-38.65 62.12l-20.61 13.41v-13.16c0-29.21 14.77-56.44 39.26-72.37l108.29-70.45c27.171-17.677 63.456-19.821 95.43.82z" fill="#f1fafc"/><path d="m402.21 28.79c-6.796-3.611-9.398-2.79-40.21-2.79-13.25 0-24 10.75-24 24v14h-10v-24c0-13.25 10.75-24 24-24h29c9.2 0 17.2 5.18 21.21 12.79z" fill="#f1fafc"/><path d="m338 64v61.55l-10-6.51v-55.04z" fill="#ff6d7a"/><path d="m279.09 147.51c-7.96-5.17-18.22-5.17-26.18 0l-181.54 118.09c-13.353 8.701-13.746 26.32-7.9 36.09-24.248-3.569-28.681-35.982-10.1-48.09l181.54-118.09c7.96-5.17 18.22-5.17 26.18 0 226.392 147.266 258.014 168.132 18 12z" fill="#ff6d7a"/><path d="m444.88 296.23c-7.93 6.47-19.66 8.05-29.51 1.64-31.71-20.624-159.097-103.483-160.83-104.61-2.39-1.56-5.2-2.18-7.92-1.86l4.84-3.14c3.97-2.59 9.1-2.59 13.08 0 5.729 3.727 111.334 72.418 160.83 104.61 6.23 4.05 13.21 4.91 19.51 3.36z" fill="#e84857"/><path d="m278.54 209.26c-3.98-2.59-9.11-2.59-13.08 0l-160.46 103.74v-30.98l136.46-88.76c3.97-2.59 9.1-2.59 13.08 0z" fill="#ededed"/><path d="m274 278h-52c-26.467 0-48 21.533-48 48v52c0 26.467 21.533 48 48 48h52c26.467 0 48-21.533 48-48v-52c0-26.467-21.533-48-48-48zm16 48v10h-26v-26h10c8.822 0 16 7.178 16 16zm-68-16h10v26h-26v-10c0-8.822 7.178-16 16-16zm-16 68v-10h26v26h-10c-8.822 0-16-7.178-16-16zm68 16h-10v-26h26v10c0 8.822-7.178 16-16 16zm194 70h-61v-152.503c6.699 4.262 14.335 6.423 21.999 6.423 37.742 0 53.981-46.287 29.633-71.685v-5.793c0-31.056-13.893-59.955-37.631-79.281 0-15.299 0-106.974 0-121.161 0-22.056-17.944-40-40-40h-29c-22.056 0-40 17.944-40 40v49.544l-8.196-5.332c-33.901-22.051-77.709-22.051-111.607 0l-108.294 70.442c-29.14 18.956-46.537 51.026-46.537 85.788v5.793c-7.225 7.537-11.367 17.607-11.367 28.327 0 37.348 37.205 53.348 63 36.936v152.502h-61c-8.836 0-16 7.164-16 16s7.164 16 16 16h440c8.836 0 16-7.164 16-16s-7.164-16-16-16zm-124-424c0-4.411 3.589-8 8-8h29c4.411 0 8 3.589 8 8v8h-45zm0 40h45v59.631l-45-29.272zm-242.647 101.478 108.292-70.441c23.299-15.156 53.409-15.156 76.71 0l108.291 70.441c14.916 9.703 25.352 24.408 29.709 41.151l-154.544-100.528c-13.25-8.619-30.372-8.619-43.622 0l-154.545 100.528c4.358-16.743 14.793-31.448 29.709-41.151zm-43.353 95.436c0-2.262-.503-6.908 4.093-9.897l181.545-118.092c2.649-1.724 6.075-1.724 8.724 0 185.059 120.378 181.443 118.092 181.545 118.092 4.572 2.974 4.092 7.595 4.092 9.897 0 7.145-7.91 11.446-13.907 7.544-5.876-3.822-152.316-99.079-160.825-104.614-9.275-6.033-21.26-6.034-30.535 0-8.531 5.549-154.968 100.805-160.825 104.614-5.991 3.896-13.907-.389-13.907-7.544zm63 187.086v-173.302l127-82.611 127 82.612v173.301z"/></svg>