<svg id="Layer_1" enable-background="new 0 0 496 496" height="512" viewBox="0 0 496 496" width="512" xmlns="http://www.w3.org/2000/svg"><path d="m448 326c17.67 0 32-14.33 32-32v-92c0-17.67-14.33-32-32-32-10.086 0-389.355 0-400 0-17.67 0-32 14.33-32 32v92c0 17.67 14.33 32 32 32z" fill="#c79a83"/><path d="m478.31 191.69c-7.307-2.458 21.872-1.69-410.31-1.69-17.67 0-32 14.33-32 32 0 100.731-.621 95.439 1.69 102.31-12.61-4.29-21.69-16.24-21.69-30.31v-92c0-17.67 14.33-32 32-32h400c14.07 0 26.02 9.08 30.31 21.69z" fill="#e0b7a3"/><path d="m296 210c0-8.837-7.163-16-16-16h-70c-8.837 0-16 7.163-16 16v76c0 8.837 7.163 16 16 16h70c8.837 0 16-7.163 16-16 0-.739 0-76.64 0-76zm64 124c0 13.25-10.75 24-24 24h-176c-13.25 0-24-10.75-24-24 0-11.006 0-166.42 0-172 0-13.25 10.75-24 24-24h176c13.25 0 24 10.75 24 24z" fill="#ffe773"/><path d="m306 211.57v83.45c0 9.7-7.87 17.57-17.57 17.57h-76.86c-9.7 0-17.57-7.87-17.57-17.57v-9.02c0 8.84 7.16 16 16 16h70c8.84 0 16-7.16 16-16v-76c0-8.84-7.16-16-16-16h8.43c9.7 0 17.57 7.87 17.57 17.57z" fill="#fadf5a"/><path d="m360 162v6h-170c-13.25 0-24 10.75-24 24v166h-6c-13.25 0-24-10.75-24-24v-172c0-13.25 10.75-24 24-24h176c13.25 0 24 10.75 24 24z" fill="#ffec8f"/><path d="m448 154h-72.805c-3.717-18.236-19.878-32-39.195-32h-176c-19.317 0-35.479 13.764-39.195 32h-72.805c-26.468 0-48 21.533-48 48v92c0 26.467 21.532 48 48 48h72.805c3.717 18.236 19.878 32 39.195 32h176c22.056 0 40-17.944 40-40v-148h72c8.822 0 16 7.178 16 16v92c0 8.822-7.178 16-16 16h-34.333c-8.837 0-16 7.164-16 16s7.163 16 16 16h34.333c26.468 0 48-21.533 48-48v-92c0-26.467-21.532-48-48-48zm-416 140v-92c0-8.822 7.178-16 16-16h72v124h-72c-8.822 0-16-7.178-16-16zm304 48h-176c-4.411 0-8-3.589-8-8v-172c0-4.411 3.589-8 8-8h176c4.411 0 8 3.589 8 8v70h-32v-38c0-8.836-7.163-16-16-16h-102c-8.837 0-16 7.164-16 16v108c0 8.836 7.163 16 16 16h102c8.837 0 16-7.164 16-16v-38h32v70c0 4.411-3.589 8-8 8zm-80-78h24v22h-70v-76h70v22h-24c-8.837 0-16 7.164-16 16s7.163 16 16 16zm-159-16c0 8.836-7.163 16-16 16h-5c-8.837 0-16-7.164-16-16s7.163-16 16-16h5c8.837 0 16 7.164 16 16zm302 0c0-8.836 7.163-16 16-16h5c8.837 0 16 7.164 16 16s-7.163 16-16 16h-5c-8.837 0-16-7.164-16-16z"/></svg>