<svg id="Layer_1" enable-background="new 0 0 496 496" height="512" viewBox="0 0 496 496" width="512" xmlns="http://www.w3.org/2000/svg"><path d="m339.75 231.93c-.149-.153 7.807-3.476 11.07-13.49 1.536-4.669 1.18-5.179 1.18-33.44 0-13.25-10.75-24-24-24h-6.75c43.911-59.414 1.769-145-73.25-145-74.896 0-117.254 85.461-73.25 145h-6.75c-13.25 0-24 10.75-24 24v26c0 15.324 12.453 20.722 12.25 20.93-30.15 25.86-49.25 64.23-49.25 107.07 0 77.87 63.13 141 141 141s141-63.13 141-141c0-42.84-19.1-81.21-49.25-107.07z" fill="#e8f8fc"/><path d="m298.35 31.19c-79.341-28.09-150.09 57.439-110.02 129.81h-13.58c-43.911-59.414-1.769-145 73.25-145 18.62 0 35.93 5.59 50.35 15.19z" fill="#f1fafc"/><path d="m230.29 478.9c-69.51-8.71-123.29-68.03-123.29-139.9 0-42.84 19.1-81.21 49.25-107.07l.01-.01c6.372 3.618 11.362 3.08 18.51 3.08 1.557 1.071 1.578.829 1.48.93-85.448 73.29-54.572 212.9 54.04 242.97z" fill="#f1fafc"/><path d="m389 339c0 80.352-67.121 144.575-147.5 140.85 74.85-3.39 134.5-65.16 134.5-140.85 0-42.84-19.1-81.21-49.25-107.07-.149-.153 7.807-3.476 11.07-13.49 1.536-4.669 1.18-5.179 1.18-33.44 0-13.25-10.75-24-24-24h-6.75c42.186-57.08 5.057-139.712-66.75-144.76 77.287-5.775 125.67 82.628 79.75 144.76h6.75c13.25 0 24 10.75 24 24 0 28.326.348 28.796-1.18 33.44-3.455 10.605-11.404 13.148-11.07 13.49 30.15 25.86 49.25 64.23 49.25 107.07z" fill="#d6f4fc"/><path d="m352 185c0 28.326.348 28.796-1.18 33.44-3.158 9.693-12.273 16.56-22.82 16.56-173.702 0-164.235 1.181-171.74-3.08-7.471-4.181-12.26-12.117-12.26-20.92v-26c0-13.25 10.75-24 24-24h160c13.25 0 24 10.75 24 24z" fill="#fe4f60"/><path d="m352 185c0 28.326.348 28.796-1.18 33.44-1.88 5.77-5.88 10.57-11.08 13.48-6.829 3.877-10.529 3.08-31.74 3.08 10.68 0 19.705-6.999 22.82-16.56 1.536-4.669 1.18-5.179 1.18-33.44 0-13.25-10.75-24-24-24h20c13.25 0 24 10.75 24 24z" fill="#e84857"/><path d="m188 235c-21.234 0-24.914.795-31.74-3.08-5.2-2.91-9.2-7.71-11.08-13.48-1.536-4.669-1.18-5.179-1.18-33.44 0-13.25 10.75-24 24-24h20c-13.25 0-24 10.75-24 24v26c0 13.26 10.783 24 24 24z" fill="#ff6d7a"/><path d="m203 94v-6c0-8.837 7.164-16 16-16s16 7.163 16 16v6c0 8.837-7.164 16-16 16s-16-7.163-16-16zm74 16c8.836 0 16-7.163 16-16v-6c0-8.837-7.164-16-16-16s-16 7.163-16 16v6c0 8.837 7.164 16 16 16zm201.188 62.294-24.137 12.139 15.615 8.523c14.533 7.934 8.78 30.047-7.68 30.047-5.412 0-4.377-.172-42.697-21.089l-56.195 28.26c-6.802 12.4-19.981 20.826-35.094 20.826-175 0-162.391.331-167.962-.798-23.637 23.417-37.038 55.294-37.038 88.798 0 68.925 56.075 125 125 125 93.866 0 153.923-99.989 110.985-182.573-4.076-7.84-1.025-17.5 6.815-21.577 7.839-4.074 17.5-1.025 21.577 6.815 54.093 104.036-21.749 229.335-139.377 229.335-86.57 0-157-70.43-157-157 0-40.217 15.364-78.572 42.635-107.56-1.097-1.838 5.455 1.843-56.924-29.526-38.096 20.795-37.29 21.089-42.697 21.089-16.463 0-22.222-22.108-7.68-30.047l15.615-8.523-24.137-12.139c-7.895-3.97-11.076-13.588-7.106-21.482 3.97-7.896 13.588-11.077 21.483-7.105l22.438 11.284-2.372-13.149c-1.569-8.696 4.208-17.018 12.905-18.587 8.693-1.567 17.018 4.209 18.586 12.905l6.642 36.815 37.612 18.914v-6.889c0-15.48 8.846-28.925 21.742-35.572-30.48-70.387 21.46-149.428 98.258-149.428 76.717 0 128.773 78.963 98.258 149.428 12.897 6.647 21.742 20.092 21.742 35.572v6.889l37.612-18.915 6.642-36.815c1.569-8.696 9.894-14.47 18.586-12.905 8.696 1.569 14.474 9.891 12.905 18.587l-2.372 13.149 22.438-11.284c7.895-3.972 17.513-.789 21.483 7.105 3.97 7.895.789 17.513-7.106 21.483zm-294.854-27.294h129.332c29.212-49.487-6.528-113-64.666-113-58.167 0-93.858 63.543-64.666 113zm152.666 66v-26c0-4.411-3.589-8-8-8-134.347 0 166.967 0-160 0-4.411 0-8 3.589-8 8v26c0 4.411 3.589 8 8 8h160c4.411 0 8-3.589 8-8zm-81 77h-14c-8.836 0-16 7.163-16 16s7.164 16 16 16h14c8.836 0 16-7.163 16-16s-7.164-16-16-16zm0 60h-14c-8.836 0-16 7.163-16 16s7.164 16 16 16h14c8.836 0 16-7.163 16-16s-7.164-16-16-16z"/></svg>