<svg id="Layer_1" enable-background="new 0 0 496 496" height="512" viewBox="0 0 496 496" width="512" xmlns="http://www.w3.org/2000/svg"><path d="m452 61c-14.102 0-133.473 0-148 0-8.836 0-16 7.164-16 16v87l-80-81h-164c-8.836 0-16 7.164-16 16v320c0 8.836 7.164 16 16 16h148c8.836 0 16-7.164 16-16 0-13.884 0-73.051 0-87l80 81h164c8.836 0 16-7.164 16-16 0-16.476 0-306.184 0-320 0-8.836-7.164-16-16-16z" fill="#e8f8fc"/><path d="m288 164v249l-80-81v-249z" fill="#c9edf2"/><path d="m208 83v50h-114c-8.84 0-16 7.16-16 16v286h-34c-8.84 0-16-7.16-16-16v-320c0-8.84 7.16-16 16-16z" fill="#f1fafc"/><path d="m208 369v50c0 8.837-7.163 16-16 16-12.205 0-149 0-148 0-8.837 0-16-7.163-16-16v-50z" fill="#fe4f60"/><path d="m78 369v66h-34c-8.84 0-16-7.16-16-16v-50z" fill="#ff6d7a"/><path d="m468 77v24h-124c-8.84 0-16 7.16-16 16v296h-40v-336c0-8.84 7.16-16 16-16h148c8.84 0 16 7.16 16 16z" fill="#f1fafc"/><path d="m468 77v46.5h-180v-46.5c0-8.837 7.163-16 16-16 12.205 0 149 0 148 0 8.837 0 16 7.163 16 16z" fill="#fe4f60"/><path d="m468 77v24h-124c-8.84 0-16 7.16-16 16v6.5h-40v-46.5c0-8.84 7.16-16 16-16h148c8.84 0 16 7.16 16 16z" fill="#ff6d7a"/><path d="m468 0c-8.837 0-16 7.163-16 16v29h-28v-29c0-8.837-7.163-16-16-16s-16 7.163-16 16v29h-28v-29c0-8.837-7.163-16-16-16s-16 7.163-16 16v29h-28v-29c0-8.837-7.163-16-16-16s-16 7.163-16 16v109.031c-55.777-56.474-54.092-55.733-59.313-57.33-3.353-1.023 9.368-.701-184.687-.701-8.837 0-16 7.163-16 16v397c0 8.837 7.163 16 16 16s16-7.163 16-16v-29h28v29c0 8.837 7.163 16 16 16s16-7.163 16-16v-29h28v29c0 8.837 7.163 16 16 16s16-7.163 16-16v-29h28v29c0 8.837 7.163 16 16 16s16-7.163 16-16c0-4.764 0-104.359 0-109.031 57.248 57.964 53.994 55.716 59.34 57.336 3.354 1.021-8.383.695 184.66.695 8.837 0 16-7.163 16-16 0-14.967 0-378.643 0-397 0-8.837-7.163-16-16-16zm-424 385h99c8.837 0 16-7.163 16-16s-7.163-16-16-16h-99v-254h148v320h-148zm180-263.031 48 48.6v203.461l-48-48.6zm228 275.031h-148v-257.5h104c8.837 0 16-7.163 16-16s-7.163-16-16-16h-104v-30.5h148z"/></svg>