<svg id="Layer_1" enable-background="new 0 0 496 496" height="512" viewBox="0 0 496 496" width="512" xmlns="http://www.w3.org/2000/svg"><path d="m474.89 165.57v237.11c0 8.837-7.163 16-16 16h-80.07v45.32c0 8.837-7.163 16-16 16h-229.64c-8.837 0-16-7.163-16-16v-45.32h-80.07c-8.837 0-16-7.163-16-16v-237.11c0-29.99 21.01-55.86 50.36-62.02l89.433-18.766c3.704-.777 6.357-4.044 6.357-7.829v-44.955c0-8.837 7.163-16 16-16h129.48c8.837 0 16 7.163 16 16v44.955c0 3.785 2.653 7.052 6.357 7.829l89.433 18.766c29.35 6.16 50.36 32.03 50.36 62.02z" fill="#fe4f60"/><path d="m378.82 252.09h96.07v69.5h-96.07z" fill="#f2f2f2"/><path d="m117.18 225.36c0 2.546 0 242.484 0 238.64 0 8.837 7.163 16 16 16h229.82c8.837 0 16-7.163 16-16v-46h-176.59c-15.69 0-28.41-12.72-28.41-28.41v-164.23c0-15.671-12.689-28.382-28.36-28.41-15.7-.028-28.46 12.69-28.46 28.41z" fill="#e84857"/><path d="m378.82 418.68c0-2.471 0-207.454 0-204.19 0-9.715 7.875-17.59 17.59-17.59 9.708 0 17.59 7.869 17.59 17.59v145.92c0 9.715 7.875 17.59 17.59 17.59h43.41v24.947c0 8.857-7.196 16.029-16.053 16z" fill="#e84857"/><path d="m326.969 224.852-54.848-.92c-7.633-6.888-16.783-11.799-26.651-14.376l-4.304-20.096c-1.851-8.642-10.354-14.145-18.996-12.295-8.641 1.851-14.145 10.355-12.294 18.996l2.373 11.082c-3.321-.613-6.26-2.548-8.113-5.474l-11.1-17.521c-4.729-7.465-14.613-9.682-22.079-4.953-7.464 4.729-9.682 14.614-4.953 22.078l11.098 17.518c8.16 12.887 22.137 20.58 37.388 20.58 14.776 0 25.463-1.614 36.361 8.357l6.998 28.762-64.51 5.605-3.422-7.274c-3.761-7.995-13.292-11.43-21.289-7.668s-11.429 13.293-7.668 21.289l6.268 13.327c-4.46 42.352-1.529 23.77-13.607 82.953-2.021 9.903 5.542 19.202 15.693 19.202 7.445 0 14.114-5.226 15.66-12.804l7.427-36.394 68.507 4.515 11.842 33.949c2.302 6.6 8.491 10.734 15.107 10.734 11.004 0 18.732-10.883 15.108-21.273l-13.377-38.351c12.621-32.136 11.988-23.436 6.224-47.131l28.864-3.764c7.308-.952 13.02-6.773 13.833-14.098l4.09-36.79c1.046-9.37-6.21-17.606-15.63-17.765z" fill="#f7f7f7"/><path d="m176.9 402.1c-11.786 6.381-26.002-3.888-23.28-17.28 12.312-60.299 9.182-40.881 13.61-82.95l-6.27-13.33c-4.744-10.094 2.05-21.778 13.04-22.75 0 133.547-1.102 128.199 2.9 136.31z" fill="#f2f2f2"/><path d="m378.82 252.09h35.18v69.5h-35.18z" fill="#ededed"/><path d="m328.74 32v4h-125.48c-8.837 0-16 7.163-16 16v38.459c0 7.57-5.305 14.104-12.714 15.659l-83.076 17.432c-29.35 6.16-50.36 32.03-50.36 62.02v233.11h-4c-8.837 0-16-7.163-16-16v-237.11c0-29.99 21.01-55.86 50.36-62.02l89.433-18.766c3.704-.777 6.357-4.044 6.357-7.829v-44.955c0-8.837 7.163-16 16-16h129.48c8.837 0 16 7.163 16 16z" fill="#ff6d7a"/><path d="m21.11 252.09h96.07v69.5h-96.07z" fill="#f2f2f2"/><path d="m21.11 252.09h20v69.5h-20z" fill="#f7f7f7"/><path d="m427.82 87.892-83.08-17.429v-54.463c0-8.837-7.164-16-16-16h-161.48c-8.836 0-16 7.163-16 16v54.462l-83.079 17.43c-36.545 7.666-63.07 40.333-63.07 77.675v253.112c0 8.837 7.164 16 16 16h80.07v45.321c0 8.837 7.164 16 16 16h261.639c8.836 0 16-7.163 16-16v-45.321h80.07c8.836 0 16-7.163 16-16v-253.113c0-37.341-26.525-70.008-63.07-77.674zm-33.001 180.196h64.07v37.498h-64.07zm-211.559-236.088h129.48v35.454h-129.48zm-82.079 273.586h-64.071v-37.498h64.07v37.498zm-64.071 97.093v-65.093h64.07v65.093zm325.709 61.321h-229.638c0-11.437 0-255.368 0-267.102 0-8.837-7.164-16-16-16s-16 7.163-16 16v39.189h-64.071v-70.521c0-22.285 15.83-41.781 37.64-46.356l94.17-19.756h158.16l94.17 19.756c21.81 4.575 37.64 24.071 37.64 46.356v70.521h-64.07v-39.189c0-8.837-7.164-16-16-16s-16 7.163-16 16c-.001 11.765-.001 255.694-.001 267.102zm32-61.321v-65.093h64.07v65.093zm-67.857-177.831-54.839-.914c-7.634-6.889-16.786-11.801-26.656-14.377l-4.307-20.099c-1.851-8.641-10.359-14.142-18.997-12.292-8.641 1.851-14.144 10.356-12.293 18.997l2.374 11.079c-3.319-.614-6.255-2.549-8.105-5.47l-11.098-17.522c-4.728-7.466-14.612-9.686-22.078-4.956-7.465 4.728-9.684 14.612-4.956 22.077l11.097 17.522c8.16 12.886 22.138 20.578 37.39 20.578 14.777 0 25.462-1.611 36.361 8.358l6.995 28.756-64.51 5.61-3.427-7.282c-3.762-7.995-13.295-11.426-21.29-7.665-7.996 3.763-11.427 13.295-7.665 21.29l6.273 13.332c-4.457 42.345-1.527 23.764-13.605 82.948-1.767 8.658 3.819 17.109 12.478 18.876 8.632 1.765 17.105-3.799 18.876-12.478l7.427-36.394 68.501 4.515 11.842 33.949c2.302 6.601 8.491 10.734 15.107 10.734 11.004 0 18.732-10.884 15.108-21.273l-13.375-38.347c12.723-32.386 11.949-23.6 6.224-47.132l28.863-3.765c7.308-.953 13.019-6.774 13.833-14.099l4.088-36.793c1.039-9.354-6.198-17.606-15.636-17.763zm-128.819 89.05 67.284-5.852 1.581 6.321-5.095 12.968-64.734-4.269zm109.949-50.502-19.886 2.594-2.389-9.823 23.036.384z"/></svg>