<svg id="Layer_1" enable-background="new 0 0 496.017 496.017" height="512" viewBox="0 0 496.017 496.017" width="512" xmlns="http://www.w3.org/2000/svg"><path d="m373.138 301.468c10.065 19.56 15.5 41.249 15.5 64.8 0 24-25.68 39.271-46.77 27.79l-3.06-1.66-22.81 45.63c-28.01 56.03-107.97 56.03-135.98 0l-23.04-46.08-2.58 1.43c-21.1 11.72-47.02-3.53-47.02-27.66 0-22.19 5.14-43.18 14.3-61.84-22.35 1.5-43.26-16.08-43.26-40.55 0-86.17 64.26-157.33 147.46-168.17l-6.67-50.63c-1.98-15.09 9.76-28.48 24.98-28.48h7.64c15.22 0 26.96 13.39 24.98 28.48l-6.67 50.63c83.2 10.84 147.46 82 147.46 168.17 0 24.6-22.14 41.67-44.46 38.14z" fill="#faa157"/><path d="m251.828 16.048c15.22 0 26.96 13.39 24.98 28.48l-6.67 50.63c-14.676-1.905-29.564-1.908-44.26 0l-6.67-50.63c-1.98-15.09 9.76-28.48 24.98-28.48z" fill="#ffb366"/><path d="m388.638 366.268c0 24-25.68 39.27-46.77 27.79-3.961-2.149-.92-.495-17.13-9.32-10.92-5.94-24.32-4.93-34.23 2.58l-23.46 17.77c-11.27 8.53-26.82 8.57-38.12.08-7.82-5.88-16.78-12.61-24.31-18.26-9.99-7.5-23.44-8.41-34.36-2.35-15.292 8.51-12.521 6.969-15.86 8.82-21.1 11.72-47.02-3.53-47.02-27.66 0-22.19 5.14-43.18 14.3-61.84 5.03-.34 10.12-1.65 15.07-4.05 22.79-11.08 49.66-9.72 71.21 3.6l4.8 2.97c21.24 13.14 48.38 11.85 68.28-3.23 23.05-17.46 54.19-19.8 79.58-5.98 4.08 2.22 8.3 3.62 12.52 4.28 10.065 19.561 15.5 41.25 15.5 64.8z" fill="#ffaa64"/><path d="m78.418 263.328c0-101.993 89.551-181.435 191.72-168.17 83.2 10.84 147.46 82 147.46 168.17 0 29.253-31.293 47.837-56.98 33.86-25.39-13.82-56.53-11.48-79.58 5.98-19.9 15.08-47.04 16.37-68.28 3.23l-4.8-2.97c-21.55-13.32-48.42-14.68-71.21-3.6-27.073 13.127-58.33-6.612-58.33-36.5z" fill="#ffbd7b"/><path d="m273.918 29.128c-6.677-3.666-11.917-3.08-19.73-3.08-15.22 0-26.96 13.39-24.98 28.48l5.23 39.73c-2.88.23-5.73.53-8.56.9l-6.67-50.63c-1.98-15.09 9.76-28.48 24.98-28.48h7.64c9.61 0 17.84 5.34 22.09 13.08z" fill="#ffbd7b"/><path d="m356.418 132.908c-112.306-58.692-248 22.928-248 150.42 0 7.54 1.98 14.42 5.38 20.29-19.15-2.52-35.38-18.73-35.38-40.29 0-101.983 89.545-181.435 191.72-168.17 32.57 4.24 62.24 17.73 86.28 37.75z" fill="#ffd3a6"/><path d="m381.658 321.828c-6.852.515-14.191-.914-21.04-4.64-25.39-13.82-56.53-11.48-79.58 5.98-19.9 15.08-47.04 16.37-68.28 3.23l-4.8-2.97c-21.55-13.32-48.42-14.68-71.21-3.6-7.535 3.654-15.469 4.803-22.96 3.79 2.14-6.82 4.78-13.41 7.89-19.74 5.03-.34 10.12-1.65 15.07-4.05 22.79-11.08 49.66-9.72 71.21 3.6l4.8 2.97c21.24 13.14 48.38 11.85 68.28-3.23 23.05-17.46 54.19-19.8 79.58-5.98 4.08 2.22 8.3 3.62 12.52 4.28 3.35 6.51 6.2 13.31 8.52 20.36z" fill="#faa157"/><path d="m338.808 392.398-7.86 15.72-6.21-3.38c-10.92-5.94-24.32-4.93-34.23 2.58l-23.46 17.77c-11.27 8.53-26.82 8.57-38.12.08-7.82-5.88-16.78-12.61-24.31-18.26-9.99-7.5-23.44-8.41-34.36-2.35l-5.46 3.04-7.82-15.65 13.28-7.39c10.92-6.06 24.37-5.15 34.36 2.35 7.53 5.65 16.49 12.38 24.31 18.26 11.3 8.49 26.85 8.45 38.12-.08l23.46-17.77c9.91-7.51 23.31-8.52 34.23-2.58z" fill="#fa9a4b"/><path d="m288 82.084 4.667-35.468c3.245-24.671-15.983-46.568-40.843-46.568-7.725 0-24.871-1.625-38.604 14.032-7.821 8.917-11.419 20.776-9.872 32.537l4.667 35.467c-83.178 18.34-145.603 92.632-145.603 181.242 0 23.83 14.64 44.73 36.892 53.051-5.26 15.812-7.929 32.331-7.929 49.342 0 31.244 29.019 53.01 57.876 46.553l16.456 32.912c33.891 67.784 130.716 67.77 164.6 0l16.209-32.419c28.328 6.49 58.123-14.309 58.123-47.046 0-17.22-2.872-34.386-8.391-50.613 22.345-7.516 37.354-27.945 37.354-51.78.001-88.609-62.424-162.902-145.602-181.242zm-52.924-39.641c-.473-3.594 1.178-6.093 2.203-7.263 3.413-3.891 7.175-3.132 14.546-3.132 5.554 0 9.841 4.881 9.116 10.394l-4.669 35.483c-5.772-.254-10.607-.261-16.526 0zm66.611 388.43c-22.138 44.276-85.174 44.367-107.357 0l-16.19-32.38c5.372-2.933 11.981-2.463 16.878 1.211 7.522 5.645 16.48 12.375 24.296 18.249 16.915 12.712 40.515 12.676 57.394-.11l23.464-17.774c4.677-3.543 11.131-4.422 17.419-1.002zm47.83-50.866-17.129-9.319c-16.416-8.932-36.649-7.411-51.541 3.873l-23.463 17.774c-5.539 4.195-13.29 4.213-18.845.038-7.823-5.88-16.789-12.616-24.316-18.265-15.017-11.268-35.322-12.654-51.735-3.532l-15.866 8.817c-10.438 5.804-23.245-1.748-23.245-13.675 0-16.532 3.156-32.473 9.374-47.502 3.744-.948 7.43-2.268 10.999-4.003 17.955-8.731 38.813-7.676 55.793 2.823 6.278 3.882 22.767 15.531 48.616 14.312 15.48-.732 30.192-6.065 42.545-15.424 17.997-13.633 42.442-15.472 62.272-4.679 2.91 1.583 5.916 2.863 8.973 3.886 7.095 15.908 10.692 32.891 10.692 50.587-.001 13.232-13.187 19.698-23.124 14.289zm18.753-96.869c-30.858-16.791-68.89-13.932-96.89 7.279-14.526 11.004-34.703 11.959-50.202 2.376l-4.805-2.972c-26.269-16.242-58.645-17.99-86.621-4.385-16.354 7.952-35.339-3.89-35.339-22.11 0-84.692 68.902-153.595 153.595-153.595s153.595 68.902 153.595 153.595c0 17.16-18.256 28.011-33.333 19.812z"/></svg>