<svg id="Layer_1" enable-background="new 0 0 496.046 496.046" height="512" viewBox="0 0 496.046 496.046" width="512" xmlns="http://www.w3.org/2000/svg"><path d="m334.791 164.423c.155-.622.1 2.369.1-36.4 0-13.25-10.75-24-24-24l29.63-52.14c9.09-16-2.47-35.86-20.87-35.86h-63.52c-18.4 0-29.96 19.86-20.87 35.86l29.63 52.14c-13.25 0-24 10.75-24 24v36.87c-66.934 16.972-119.427 69.13-136.9 135.73h-71.99c-8.84 0-16 7.16-16 16v28.77c0 8.84 7.16 16 16 16h2.71v102.63c0 8.84 7.16 16 16 16h324.37c41.49 0 78.77-25.7 93.11-64.63 38.977-105.631-21.991-223.968-133.4-250.97z" fill="#b5f26d"/><path d="m468.191 415.393c-14.34 38.93-51.62 64.63-93.11 64.63h-324.37c-8.84 0-16-7.16-16-16v-30c0 8.84 7.16 16 16 16h324.37c41.49 0 78.77-25.7 93.11-64.63 5.92-16.05 9.74-33.13 11.11-50.89 2.105 26.4-1.288 54.272-11.11 80.89z" fill="#ace667"/><path d="m457.581 259.453c-88.969-109.501-265.004-87.276-322.69 41.42h-30.65c26.286-100.192 128.437-161.096 230.8-136.2 53.08 12.87 97.36 47.84 122.54 94.78z" fill="#cefd97"/><path d="m208.891 300.623c-3.842 0-171.81 0-176.89 0-8.837 0-16 7.164-16 16v28.77c0 8.836 7.163 16 16 16h2.71v102.63c0 8.836 7.163 16 16 16h139.46c8.837 0 16-7.164 16-16v-102.63h2.72c8.837 0 16-7.164 16-16v-28.77c0-8.837-7.163-16-16-16z" fill="#fe4f60"/><path d="m224.891 316.623v28.77c0 8.837-7.163 16-16 16-3.886 0-181.097 0-176.89 0-8.837 0-16-7.163-16-16v-28.77c0-8.837 7.163-16 16-16 2.389 0 180.945 0 176.89 0 8.837 0 16 7.163 16 16z" fill="#ff6d7a"/><path d="m334.891 128.023c0 38.769.055 35.778-.1 36.4-29.661-7.214-62.766-7.42-93.9.47v-36.87c0-13.25 10.75-24 24-24h46c13.25 0 24 10.75 24 24z" fill="#f2f2f2"/><path d="m255.261 61.883 23.95 42.14h-14.32l-29.63-52.14c-9.09-16 2.47-35.86 20.87-35.86h63.52c8.33 0 15.25 4.06 19.5 10h-63.02c-18.4 0-29.96 19.86-20.87 35.86z" fill="#cefd97"/><path d="m334.601 124.313c-2.589-.406.176-.29-49.71-.29-13.25 0-24 10.75-24 24v12.93c-6.79.96-13.46 2.28-20 3.94v-36.87c0-13.25 10.75-24 24-24h46c11.99 0 21.93 8.8 23.71 20.29z" fill="#f7f7f7"/><path d="m224.891 316.623v4h-172.89c-8.84 0-16 7.16-16 16v24.77h-4c-8.84 0-16-7.16-16-16v-28.77c0-8.84 7.16-16 16-16h176.89c8.84 0 16 7.16 16 16z" fill="#fe929f"/><path d="m34.711 361.393h171.46v20h-171.46z" fill="#e84857"/><path d="m224.891 284.62h-18.344c12.351-37.5-25.552-73.333-62.063-59.298-9.587 3.688-17.802 9.768-24.039 17.442-21.114-25.982-56.04-26.725-75.455-5.05-13.116 14.634-15.595 31.882-10.647 46.905h-18.343c-8.836 0-16 7.163-16 16v60.772c0 8.837 7.164 16 16 16h2.715v102.63c0 8.837 7.164 16 16 16h171.46c8.836 0 16-7.163 16-16v-102.63h2.716c8.836 0 16-7.163 16-16v-60.771c0-8.836-7.163-16-16-16zm-85.139-8.771c2.219-17.308 21.87-28.443 32.32-16.774l1.103 1.23c8.403 9.379 1.708 24.315-10.862 24.315h-23.685zm-72.04-15.54 1.11-1.238c10.512-11.736 30.113-.405 32.316 16.778l1.125 8.771h-23.685c-12.612 0-19.236-14.967-10.866-24.311zm-35.712 56.311h176.891v28.772h-176.891zm158.175 147.403h-139.46v-86.63h139.46zm160.716-311.785v-24.215c0-13.392-6.622-25.258-16.756-32.522l20.294-35.717c15.148-26.661-4.084-59.761-34.778-59.761h-63.521c-30.663 0-49.942 33.073-34.778 59.761l20.294 35.717c-10.134 7.264-16.756 19.13-16.756 32.522v25.28c-7.86 2.589-15.593 5.647-23.171 9.206-7.999 3.756-11.438 13.284-7.682 21.283 3.756 7.998 13.283 11.438 21.284 7.682 23.223-10.904 48.154-16.45 74.062-16.45 120.277 0 205.934 120.526 163.796 234.842-11.94 32.394-43.324 54.158-78.094 54.158h-92.861c-8.836 0-16 7.163-16 16s7.164 16 16 16h92.861c48.115 0 91.565-30.177 108.12-75.091 41.218-111.825-20.488-234.194-132.314-268.695zm-94.76-120.215h63.521c6.128 0 9.991 6.61 6.956 11.952l-25.028 44.048h-27.377l-25.027-44.048c-3.028-5.329.81-11.952 6.955-11.952zm.76 113.541v-17.542c0-4.411 3.589-8 8-8h46c4.411 0 8 3.589 8 8v17.071c-20.172-2.847-41.101-2.822-62 .471zm95.122 116.717c-7.156-5.185-8.753-15.188-3.568-22.345 5.185-7.155 15.189-8.753 22.344-3.567 27.858 20.187 47.121 49.804 54.24 83.396 1.832 8.645-3.691 17.138-12.335 18.97-8.623 1.831-17.134-3.674-18.969-12.335-5.473-25.823-20.286-48.594-41.712-64.119z"/></svg>