<svg id="Layer_1" enable-background="new 0 0 495.891 495.891" height="512" viewBox="0 0 495.891 495.891" width="512" xmlns="http://www.w3.org/2000/svg"><path d="m429.396 350.826-57.3 51.13c-50.105 103.994-198.301 103.774-248.3 0l-57.3-51.13c-5-4.46-2.64-12.71 3.95-13.85 42.834-7.453 39.508-6.945 40.3-6.87 1.03-11.86 3.57-23.29 7.42-34.1 3.184.506 256.57.475 259.56 0 3.85 10.81 6.39 22.24 7.42 34.1.791-.074-2.521-.581 40.3 6.87 6.59 1.14 8.95 9.39 3.95 13.85z" fill="#ffebd2"/><path d="m373.866 213.505h-5.25l-94.73-181.79c-10.93-20.99-40.95-20.99-51.88 0l-94.73 181.79h-5.25c-13.26 0-24 10.75-24 24v34.81c0 13.257 10.743 24 24 24 271.091 0 252.686.169 255.7-.31 11.42-1.84 20.14-11.75 20.14-23.69v-34.81c0-13.25-10.74-24-24-24z" fill="#b5f26d"/><path d="m98.026 272.315v-34.81c0-13.25 10.74-24 24-24h251.84c13.26 0 24 10.75 24 24v34.81c0 13.251-10.737 24-24 24-9.38 0-241.344 0-251.84 0-13.261 0-24-10.747-24-24z" fill="#e8f8fc"/><path d="m380.736 378.905-90.13-82.59c90.709 0 84.33.133 87.12-.31 9.482 26.623 10.481 55.823 3.01 82.9z" fill="#ffe773"/><path d="m257.946 479.616c-100.024 7.267-172.833-90.804-139.78-183.61 2.568.408 2.398.31 19.89.31-30.19 85.397 29.147 176.799 119.89 183.3z" fill="#fff3e4"/><path d="m205.286 296.315-90.13 82.59c-7.457-27.024-6.492-56.222 3.01-82.9 2.785.442-3.585.31 87.12.31z" fill="#ffe773"/><path d="m110.746 330.105c-.34 3.85-.52 7.75-.53 11.69l-29.77 5.18c-5.31.92-7.87 6.45-6.05 10.9l-7.9-7.05c-5-4.46-2.64-12.71 3.95-13.85 42.835-7.453 39.509-6.944 40.3-6.87z" fill="#fff3e4"/><path d="m131.866 363.596-16.71 15.31c-7.456-27.024-6.492-56.221 3.01-82.9 2.568.408 2.398.31 19.89.31-7.812 22.097-9.609 45.44-6.19 67.28z" fill="#ffec8f"/><path d="m401.596 375.636-29.5 26.32c10.395-21.554 15.284-46.329 13.05-71.85.757-.071-1.659-.431 20.25 3.38.89 13.571-.276 28.042-3.8 42.15z" fill="#ffdfba"/><path d="m276.806 37.326c-12.7-3.97-27.74.83-34.8 14.39l-84.31 161.79h-30.42l94.73-181.79c10.93-20.99 40.95-20.99 51.88 0z" fill="#cefd97"/><path d="m397.576 233.795c-2.748-.431 14.079-.29-255.55-.29-13.26 0-24 10.75-24 24 0 38.064-.109 35.981.29 38.52-6.327 0-20.29-8.216-20.29-23.71v-34.81c0-13.25 10.74-24 24-24h251.84c12 0 21.94 8.8 23.71 20.29z" fill="#f1fafc"/><path d="m291.218 403.806c5.302 7.068 3.869 17.098-3.2 22.399-22.596 16.948-54.323 17.537-77.706 0-7.069-5.302-8.502-15.331-3.2-22.399 5.302-7.07 15.33-8.504 22.4-3.2 11.819 8.863 27.868 8.578 39.306 0 7.071-5.302 17.098-3.868 22.4 3.2zm161.522-52.376c-73.087 69.102-67.844 64.516-70.746 66.001-58.916 104.623-209.19 104.604-268.096.001-2.898-1.484 2.356 3.114-70.747-66.002-9.562-9.041-4.686-25.14 8.251-27.39l45.007-7.827c.651-3.818 1.453-7.605 2.393-11.361-10.147-7.262-16.779-19.137-16.779-32.538v-34.804c0-20.501 15.507-37.441 35.406-39.728l90.384-173.464c16.91-32.453 63.386-32.393 80.264 0l90.384 173.464c19.899 2.287 35.407 19.226 35.407 39.728v34.804c0 13.401-6.632 25.276-16.779 32.539.939 3.755 1.741 7.543 2.393 11.361l45.006 7.827c12.963 2.253 17.798 18.364 8.252 27.389zm-326.426-4.455 37.827-34.662h-34.207c-2.858 11.302-4.075 22.849-3.62 34.662zm249.594-66.935c3.425-.905 5.961-4.021 5.961-7.727v-34.803c0-4.411-3.589-8-8-8-4.924 0-238.946 0-251.845 0-4.411 0-8 3.589-8 8v34.804c0 4.441 3.642 8 8 8 271.543-.001 250.597.101 253.884-.274zm-44.156 32.273 37.827 34.662c.459-11.95-.795-23.488-3.62-34.662zm-178.097-114.803h188.581l-82.537-158.406c-4.958-9.517-18.545-9.522-23.506 0zm-65.332 152.589 6.537 6.181c-.218-2.396-.383-4.807-.489-7.232zm274.055 33.681-77.993-71.467h-72.876l-77.994 71.467c17.016 46.732 61.888 80.195 114.432 80.195s97.415-33.462 114.431-80.195zm45.191-33.681-6.048-1.052c-.106 2.426-.271 4.837-.489 7.232zm-187.217 21.189c8.836 0 16-7.163 16-16v-6.132c0-8.837-7.164-16-16-16s-16 7.163-16 16v6.132c0 8.837 7.163 16 16 16zm57.627 0c8.837 0 16-7.163 16-16v-6.132c0-8.837-7.163-16-16-16s-16 7.163-16 16v6.132c0 8.837 7.163 16 16 16z"/></svg>