<svg id="Layer_1" enable-background="new 0 0 495.999 495.999" height="512" viewBox="0 0 495.999 495.999" width="512" xmlns="http://www.w3.org/2000/svg"><path d="m467.341 231.043c-.178-26.358-21.677-47.679-47.996-47.679-.291 0-48.171.322-48.464.324v-5.689c0-8.837-7.164-16-16-16h-170v-75.129c0-38.89-31.64-70.52-70.53-70.52-36.279 0-70.53 27.905-70.53 73.79 0 15.16 12.29 27.45 27.45 27.45s27.44-12.29 27.44-27.45v-3.27c0-8.62 7.02-15.64 15.64-15.64 8.63 0 15.64 7.02 15.64 15.64v75.13h-23.11c-8.836 0-16 7.163-16 16v270c0 17.673 14.327 32 32 32h216c17.673 0 32-14.327 32-32v-16.43l69.53-32.747c16.989-7.895 27.886-25.104 27.761-43.842zm-40.49 138.795-55.97 26.36v-180.507c.079-.001 48.461-.326 48.461-.326 8.772 0 15.94 7.108 15.999 15.894l.831 123.938c.043 6.243-3.586 11.976-9.321 14.641z" fill="#e8f8fc"/><path d="m370.882 447.999c0 17.673-14.327 32-32 32h-216c-17.673 0-32-14.327-32-32v-270c0-8.837 7.163-16 16-16 2.495 0 250.904 0 248 0 8.837 0 16 7.163 16 16 0 6.346 0 271.002 0 270z" fill="#fe4f60"/><path d="m370.882 177.999v14h-234c-8.84 0-16 7.16-16 16 0 1.752-.033 270.446.06 271.94-16.77-1-30.06-14.921-30.06-31.94v-270c0-8.84 7.16-16 16-16h248c8.84 0 16 7.161 16 16z" fill="#ff6d7a"/><path d="m468.172 354.98c.13 18.739-10.77 35.949-27.76 43.84l-49.53 23.33v-35.37l35.97-16.94c5.73-2.67 9.36-8.399 9.32-14.64l-.83-123.94c-.06-8.79-7.23-15.89-16-15.89-.171 0-28.289.188-28.46.189v-32l28.14-.189c27.292 0 48.143 21.846 48.32 47.67z" fill="#fe4f60"/><path d="m173.192 48.04c-44.495-29.517-109.37-1.194-109.37 62.1 0 2.29.28 4.52.81 6.64-11.95-2.97-20.81-13.77-20.81-26.64-.001-76.054 91.838-98.827 129.37-42.1z" fill="#f1fafc"/><path d="m419.882 183.499h-33v-21.5c0-8.837-7.163-16-16-16h-170v-59.126c0-47.711-38.816-86.527-86.527-86.527-44.448 0-86.528 34.401-86.528 89.797 0 23.956 19.489 43.445 43.444 43.445 21.252 0 38.99-15.341 42.723-35.529v47.941h-23.112c-8.837 0-16 7.163-16 16v286c0 26.468 21.532 48 48 48h216c26.468 0 48-21.532 48-48v-24.719l52.944-24.184c17.043-7.786 28.056-24.924 28.056-43.661v-123.937c0-26.466-21.534-48-48-48zm-305.528-128.265c-17.445 0-31.639 14.193-31.639 31.639v3.27c0 6.311-5.135 11.445-11.445 11.445s-11.444-5.135-11.444-11.445v-3.27c0-30.066 24.461-54.527 54.528-54.527 30.066 0 54.527 24.461 54.527 54.527v59.127h-22.889v-59.127c.001-17.446-14.193-31.639-31.638-31.639zm240.528 392.765c0 8.822-7.178 16-16 16h-216c-8.822 0-16-7.178-16-16v-270h248zm81-92.563c0 6.246-3.671 11.959-9.352 14.554l-39.648 18.111v-172.602h33c8.822 0 16 7.178 16 16zm-121.626-64.181c5.633 10.616-2.031 23.491-14.111 23.491-2.746 0-2.894-.212-18.721-4.453l-18.543 10.706 18.63 10.756 14.224-3.812c13.392-3.583 24.646 10.426 18.382 22.711 6.816 4.681 8.999 13.886 4.794 21.169-4.126 7.146-13.039 10.017-20.584 6.51-7.369 11.763-25.372 9.187-28.999-4.345l-3.905-14.571-18.542-10.705v21.412l10.665 10.665c9.89 9.889 3.16 26.789-10.737 27.286-.723 8.167-7.573 14.572-15.928 14.572-8.41 0-15.29-6.491-15.936-14.735-13.792-.717-20.265-17.486-10.477-27.275l10.413-10.412v-21.513l-18.542 10.705-3.905 14.571c-3.609 13.463-21.585 16.181-28.999 4.345-2.16 1.004-4.448 1.493-6.713 1.493-15.64 0-22.014-20.288-9.077-29.172-6.276-12.308 5.007-26.283 18.382-22.711l14.224 3.812 18.63-10.756-18.543-10.706-14.57 3.904c-13.52 3.618-24.776-10.665-18.261-22.942-6.71-4.71-8.832-13.846-4.656-21.08 4.206-7.284 13.269-9.997 20.73-6.434 7.519-11.585 25.274-8.805 28.859 4.564l3.811 14.225 18.63 10.756v-21.513l-10.413-10.412c-9.801-9.802-3.292-26.558 10.477-27.274.646-8.244 7.526-14.736 15.936-14.736 8.355 0 15.205 6.406 15.928 14.573 13.926.499 20.612 17.412 10.737 27.285l-10.665 10.665v21.412l18.63-10.756 3.811-14.225c3.587-13.385 21.355-16.129 28.859-4.563 7.462-3.559 16.525-.85 20.73 6.433 4.178 7.235 2.055 16.37-4.655 21.08zm-88.266-244.395c-1.6-13.673 3.739-27.608 15.87-41.419 5.833-6.639 15.942-7.293 22.58-1.463 6.64 5.832 7.294 15.941 1.463 22.58-5.73 6.524-8.618 12.413-8.13 16.582.74 6.32 12.318 13.391 15.795 30.71 2.743 13.66-.706 28.072-10.25 42.836-4.797 7.42-14.701 9.549-22.123 4.75-7.421-4.797-9.548-14.702-4.75-22.123 17.201-26.607-7.283-25.352-10.455-52.453zm80 0c-1.6-13.673 3.739-27.608 15.87-41.419 5.833-6.639 15.942-7.293 22.58-1.463 6.64 5.832 7.294 15.941 1.463 22.58-5.73 6.524-8.618 12.413-8.13 16.582.74 6.32 12.318 13.391 15.795 30.71 2.743 13.66-.706 28.072-10.25 42.836-4.797 7.42-14.701 9.549-22.123 4.75-7.421-4.797-9.548-14.702-4.75-22.123 17.384-26.89-7.209-24.72-10.455-52.453z"/></svg>