<svg id="Layer_1" enable-background="new 0 0 496.054 496.054" height="512" viewBox="0 0 496.054 496.054" width="512" xmlns="http://www.w3.org/2000/svg"><path d="m373.285 124.175c-8.398 0-227.065 0-238.17 0-14.74 0-26.19 12.87-24.46 27.51 9.228 78.403 25.792 219.206 34.41 292.49 1.94 16.54 15.96 29.01 32.62 29.01h153.04c16.65 0 30.67-12.47 32.62-29.01 10.282-87.427 33.988-288.907 34.41-292.49 1.72-14.64-9.72-27.51-24.47-27.51z" fill="#e8f8fc"/><path d="m373.285 124.175c-8.398 0-227.065 0-238.17 0-14.74 0-26.19 12.87-24.46 27.51 9.613 81.676 1.926 16.337 30.7 260.94 237.548 0 224.483-.047 225.69.09.033-.299 30.673-260.72 30.71-261.03 1.72-14.64-9.72-27.51-24.47-27.51z" fill="#ff6d7a"/><path d="m397.755 151.685-1.47 12.49h-221.17c-14.74 0-26.19 12.87-24.46 27.51 9.291 78.94 3.735 31.709 25.99 220.94h-35.29c-28.772-244.586-21.091-179.305-30.7-260.94-1.73-14.64 9.72-27.51 24.46-27.51h238.17c14.75 0 26.19 12.87 24.47 27.51z" fill="#fe929f"/><path d="m107.415 32.814c-50.12 0-91.36 41.24-91.36 91.36 0 54.429 48.357 97.292 102.04 90.72 45.17-5.35 80.68-44.21 80.68-90.72 0-50.119-41.24-91.36-91.36-91.36z" fill="#ffec8f"/><path d="m135.115 124.175h63.66c0 46.51-35.51 85.37-80.68 90.72l-7.44-63.21c-1.73-14.64 9.72-27.51 24.46-27.51z" fill="#fadf5a"/><path d="m327.685 24.894-17.38-1.9c-10.98-1.21-20.86 6.72-22.06 17.7-14.193 129.632-31.191 284.955-31.69 289.51-1.2 10.979 6.72 20.859 17.7 22.06l17.38 1.9c10.98 1.199 20.86-6.721 22.06-17.7.245-2.234 18.031-164.694 31.69-289.51 1.2-10.979-6.72-20.859-17.7-22.06z" fill="#fa9a4b"/><path d="m327.685 24.895c10.98 1.2 18.9 11.08 17.7 22.06l-8.45 77.22h-57.83l9.14-83.48c1.2-10.98 11.08-18.91 22.06-17.7z" fill="#ffaa64"/><path d="m183.775 473.185h-6.09c-16.66 0-30.68-12.47-32.62-29.01l-3.71-31.55h35.29c5.853 49.709 4.116 34.954 7.13 60.56z" fill="#f1fafc"/><path d="m198.775 124.175c0 14.31-3.36 27.89-9.33 40h-14.33c-14.74 0-26.19 12.87-24.46 27.51l1.42 12.05c-10.28 5.82-21.78 9.71-33.98 11.16l-7.44-63.21c-1.73-14.64 9.72-27.51 24.46-27.51z" fill="#ffe773"/><path d="m336.935 124.175-4.38 40h-57.83l4.38-40z" fill="#faa157"/><path d="m495.874 344.134-10.662-124.016c-2.171-25.243-23.292-44.663-48.669-44.663h-25.474l2.576-21.897c2.841-24.148-16.059-45.384-40.358-45.384h-18.506l6.511-59.481c2.164-19.78-12.088-37.538-31.869-39.704l-17.381-1.902c-19.729-2.16-37.542 12.138-39.703 31.869l-7.577 69.219h-51.186c-12.943-85.982-119.14-122.599-181.95-59.788-67.442 67.442-19.393 180.134 72.3 183.082.562 4.78 24.377 207.206 25.244 214.573 2.893 24.595 23.748 43.142 48.513 43.142h153.039c24.764 0 45.62-18.546 48.514-43.141l2.562-21.779 82.192-30.071c20.657-7.558 33.769-28.143 31.884-50.059zm-191.725-301.697c.224-2.046 1.962-3.565 3.974-3.565.342 0 17.46 1.888 17.817 1.927 2.198.24 3.783 2.208 3.541 4.411l-6.892 62.964h-25.636zm-31.69 289.509 20.992-191.772h25.636l-21.295 194.545c-.24 2.197-2.214 3.792-4.411 3.541l-17.381-1.903c-2.192-.239-3.781-2.219-3.541-4.411zm-238.678-191.772h19.228c8.837 0 16-7.163 16-16s-7.163-16-16-16h-19.228c6.238-28.73 28.902-51.394 57.632-57.632v19.228c0 8.837 7.163 16 16 16s16-7.163 16-16v-19.229c28.73 6.238 51.394 28.902 57.632 57.632h-45.928c-24.316 0-43.196 21.251-40.357 45.384l5.367 45.616c-32.789-3.161-59.489-27.419-66.346-58.999zm296.941 317.01h-153.039c-8.541 0-15.734-6.396-16.731-14.879l-1.61-13.685h152.345c8.837 0 16-7.163 16-16s-7.163-16-16-16h-156.11l-29.036-246.802c-.605-5.132 3.402-9.645 8.576-9.645h45.888c-3.367 15.184-11.453 29.199-23.309 39.892-6.563 5.919-7.084 16.036-1.166 22.598 5.919 6.563 16.037 7.085 22.598 1.166 18.612-16.786 30.695-39.382 34.415-63.655h47.716l-20.611 188.291c-2.158 19.732 12.138 37.542 31.869 39.703 18.989 2.078 18.734 2.12 21.368 2.12 18.046 0 33.69-13.58 35.717-32.087l21.676-198.027h22.009c5.166 0 9.182 4.505 8.577 9.646l-34.41 292.485c-.998 8.482-8.191 14.879-16.732 14.879zm122.272-93.043-67.008 24.517 21.318-181.202h29.238c8.814 0 16.031 6.623 16.786 15.404l10.662 124.016c.652 7.558-3.871 14.657-10.996 17.265z"/></svg>