<svg id="Layer_1" enable-background="new 0 0 496.084 496.084" height="512" viewBox="0 0 496.084 496.084" width="512" xmlns="http://www.w3.org/2000/svg"><path d="m418.142 340.499c-1.35 1.48-1.37 3.71-.1 5.26 7.28 8.88 11.39 20.11 11.39 31.86v78.39c0 13.25-10.75 24-24 24h-15.13c-13.25 0-24-10.75-24-24 0-56.935 1.518-62.557-5.57-76.34-3.61-7.01-8.87-13.18-15.47-17.89-13.2-9.43-21.04-24.66-21.04-40.89v135.12c0 13.25-10.74 24-24 24h-15.12c-13.25 0-24-10.75-24-24 0 13.25-10.75 24-24 24h-15.12c-13.26 0-24-10.75-24-24v-53.34c0-16.23-7.84-31.46-21.04-40.89-13.21-9.43-21.04-24.66-21.04-40.89v135.12c0 13.25-10.75 24-24 24h-15.13c-13.25 0-24-10.75-24-24 0-81.211.494-75.954-1.15-77.62l-37.53-38.24c-4.8-4.9-7.49-11.48-7.49-18.34 0-19.57 20.68-32.22 38.1-23.31l2.25 1.15c2.66 1.36 5.82-.57 5.82-3.56v-53.59c0-13.25 10.75-24 24-24h15.13c13.25 0 24 10.75 24 24 0-13.25 10.74-24 24-24h5.81v-36.33c0-13.28 10.77-24.04 24.05-24.04h102.68c13.28 0 24.05 10.76 24.05 24.04 0 39.881-.09 39.3.01 39.4 6.689-3.778 10.857-3.07 26.83-3.07 13.26 0 24.01 10.76 24.01 24.01v48.42c0 3.02 3.22 4.95 5.88 3.52l26.43-14.12c9.71-5.18 21.78-1.68 27.2 7.89 4.33 7.63 3.26 17.17-2.65 23.66z" fill="#ffbd7b"/><path d="m299.165 36.116c21.023 21.023 21.023 55.114 0 76.125-21.023 21.023-55.102 21.023-76.125 0-21.023-21.012-21.023-55.102 0-76.125l21.046-21.046c9.395-9.395 24.638-9.395 34.033 0z" fill="#ff6d7a"/><g fill="#ffd3a6"><path d="m155.672 239.188c-7.211-4.561-12.236-3.69-27.9-3.69-13.25 0-24 10.75-24 24v53.59c0 2.99-3.16 4.92-5.82 3.56l-2.25-1.15c-19.556-10.002-42.203 7.172-37.51 28.83-4.244-4.326-11.59-10.427-11.59-22.52 0-19.57 20.68-32.22 38.1-23.31l2.25 1.15c2.66 1.36 5.82-.57 5.82-3.56v-53.59c0-13.25 10.75-24 24-24h15.13c12.13 0 22.16 9.01 23.77 20.69z"/><path d="m218.532 237.668c-7.536-5.148-13.133-4.17-28.63-4.17-13.26 0-24 10.75-24 24 0 85.608-1.245 85.888 4.12 98.32-8.98-9.29-14.12-21.78-14.12-34.93v-78.39c0-13.25 10.74-24 24-24h15.12c11.6 0 21.28 8.24 23.51 19.17z"/><path d="m323.052 235.088c-6.356-3.246-10.131-2.59-25.95-2.59-13.25 0-24 10.75-24 24 0 230.689-.508 215.813 1.18 220.92-7.82-3.95-13.18-12.06-13.18-21.41v-213.51c0-13.25 10.75-24 24-24h15.12c10.67 0 19.71 6.961 22.83 16.59z"/><path d="m385.722 233.858c-6.116-2.932-9.405-2.36-25.5-2.36-13.115 0-24 10.643-24 24v78.39c0 9.72 2.81 19.08 7.9 27.05-12.51-9.48-19.9-24.29-19.9-40.05v-78.39c0-8.99 4.95-16.83 12.28-20.93 6.689-3.778 10.857-3.07 26.83-3.07 10.21 0 18.93 6.38 22.39 15.36z"/></g><path d="m448.622 292.348c-5.34-2.1-11.53-1.92-16.97.98l-26.43 14.12c-2.66 1.43-5.88-.5-5.88-3.52v-12.75l20.31-10.85c11.241-5.996 25.248-.273 28.97 12.02z" fill="#ffd086"/><path d="m336.492 221.559c.121.121-12.27 5.832-12.27 20.94 0-13.25-10.74-24-24-24h-15.12c-13.25 0-24 10.75-24 24v135.12c0-16.23-7.84-31.46-21.04-40.89s-21.04-24.66-21.04-40.88v-53.35c0-13.25-10.75-24-24-24h-9.31v-36.33c0-13.28 10.77-24.04 24.05-24.04h102.68c13.28 0 24.05 10.76 24.05 24.04z" fill="#f2f2f2"/><path d="m336.192 178.408c-5.183-1.77 1.235-1.28-110.43-1.28-13.28 0-24.05 10.76-24.05 24.04v18.29c-4.047-1.203-6.17-.96-16-.96v-36.33c0-13.28 10.77-24.04 24.05-24.04h102.68c12 0 21.95 8.79 23.75 20.28z" fill="#f9f9f9"/><path d="m460.776 280.332c-9.784-17.266-31.161-23.466-48.662-14.113l-8.771 4.687v-28.407c0-22.056-17.944-40-40-40h-10.851v-20.327c0-22.082-17.965-40.046-40.046-40.046h-35.343v-7.796c46.751-12.23 62.676-70.946 28.439-105.183-1.742-1.742-16.147-16.147-18.318-18.318-14.436-14.437-37.805-14.44-52.243 0l-18.318 18.318c-34.183 34.183-18.402 92.93 28.439 105.183v7.796h-35.342c-22.082 0-40.046 17.965-40.046 40.046v21.648c-5.064 1.334-9.738 3.637-13.811 6.7-12.57-9.458-23.432-8.022-39.13-8.022-22.056 0-40 17.944-40 40v37.281c-39.156-3.787-61.445 43.703-34.096 71.572l34.096 34.746v69.911c0 22.056 17.944 40 40 40h15.13c22.056 0 40-17.944 40-40v-77.586c6.382 6.371 10.078 15.09 10.078 24.243v53.343c0 22.056 17.944 40 40 40 15.768 0 26.578 1.416 39.122-8.022 12.547 9.441 23.364 8.022 39.122 8.022 22.056 0 40-17.944 40-40v-77.588c6.714 6.7 10.078 15.482 10.078 24.249v53.34c0 22.056 17.944 40 40 40h15.13c22.056 0 40-17.944 40-40v-78.39c0-11.884-3.145-23.362-9.03-33.414l19.632-21.555c10.59-11.629 12.495-28.635 4.741-42.318zm-221.486-228.558 18.318-18.318c1.932-1.933 5.051-1.937 6.988 0l18.318 18.317c12.027 12.027 12.027 31.596 0 43.623s-31.597 12.027-43.624 0c-12.026-12.027-12.026-31.596 0-43.622zm-29.53 122.352h102.686c4.437 0 8.046 3.609 8.046 8.046v25.865c-11.288-6.663-19.989-5.535-35.389-5.535-22.056 0-40 17.944-40 40v77.589c-6.384-6.371-10.082-15.092-10.082-24.246v-53.343c0-19.775-14.428-36.234-33.308-39.429v-20.9c0-4.438 3.61-8.047 8.047-8.047zm-77.858 289.883h-15.13c-4.411 0-8-3.589-8-8v-76.45c0-4.191-1.645-8.215-4.58-11.207l-38.676-39.413c-6.273-6.391-1.784-17.341 7.294-17.341 2.976 0 4.088.882 12.674 5.275 10.625 5.436 23.288-2.29 23.288-14.244v-60.13c0-4.411 3.589-8 8-8h15.13c4.396 0 7.974 3.565 7.998 7.956 0 3.393.002 206.656.002 213.554 0 4.411-3.589 8-8 8zm105.2 0h-15.122c-4.411 0-8-3.589-8-8v-53.343c0-21.346-10.371-41.498-27.741-53.906-8.949-6.392-14.3-16.761-14.337-27.754v-78.507c0-4.409 3.587-7.997 7.997-7.997h15.122c4.411 0 8 3.589 8 8v53.343c0 21.347 10.371 41.499 27.741 53.906 8.979 6.414 14.34 16.831 14.34 27.866v78.392c0 4.411-3.589 8-8 8zm63.122 0h-15.122c-4.411 0-8-3.589-8-8 0-7.587 0-201.403 0-213.507 0-4.411 3.589-8 8-8h15.122c4.409 0 7.998 3.587 7.998 7.997 0 5.906.002 197.294.002 213.51 0 4.411-3.588 8-8 8zm132.152-162.907-28.473 31.263c-5.634 6.186-5.55 15.669.192 21.754 6.021 6.381 9.337 14.726 9.337 23.499v78.39c0 4.411-3.589 8-8 8h-15.13c-4.411 0-8-3.589-8-8v-53.34c0-21.559-10.505-41.61-27.739-53.909-8.962-6.402-14.318-16.793-14.339-27.807v-78.451c0-4.437 3.608-8.003 7.998-8.003h15.12c4.411 0 8 3.589 8 8 0 57.553-.017 54.023.04 55.632.408 11.824 13.103 19.132 23.53 13.56l32.282-17.248c4.262-2.277 8.377 3.152 5.182 6.66z"/></svg>