<?xml version="1.0" encoding="iso-8859-1"?>
<!-- Generator: Adobe Illustrator 19.0.0, SVG Export Plug-In . SVG Version: 6.00 Build 0)  -->
<svg version="1.1" id="Layer_1" xmlns="http://www.w3.org/2000/svg" xmlns:xlink="http://www.w3.org/1999/xlink" x="0px" y="0px"
	 viewBox="0 0 512 512" style="enable-background:new 0 0 512 512;" xml:space="preserve">
<path style="fill:#7A7A7C;" d="M397.143,435.395H385.9c0-40.684-7.672-52.847-15.795-65.725
	c-8.085-12.817-16.445-26.071-16.445-64.68h11.243c0,35.359,7.146,46.688,14.712,58.682
	C388.232,377.334,397.143,391.461,397.143,435.395z"/>
<path style="fill:#C84788;" d="M350.598,285.158l-7.438,22.571c4.03,0,4.03,1.682,8.061,1.682s4.03-1.682,8.061-1.682
	s4.03,1.682,8.061,1.682c4.03,0,4.03-1.682,8.061-1.682l-7.438-22.571H350.598z"/>
<path style="fill:#B9427E;" d="M359.28,285.158c0,0,0,17.154,0,22.571c4.03,0,4.03,1.682,8.061,1.682c4.03,0,4.03-1.682,8.061-1.682
	l-7.438-22.571H359.28z"/>
<ellipse style="fill:#D4498D;" cx="359.279" cy="159.388" rx="111.527" ry="132.931"/>
<path style="fill:#C84788;" d="M470.806,159.39c0,73.416-49.932,132.933-111.527,132.933c0-71.631,0-214.432,0-265.866
	C420.874,26.457,470.806,85.974,470.806,159.39z"/>
<path style="fill:#7A7A7C;" d="M225.655,512h-11.243c0-51.348-10.164-67.46-19.995-83.045
	c-10.015-15.876-20.372-32.295-20.372-80.225h11.243c0,44.681,9.053,59.032,18.638,74.227
	C214.609,439.891,225.655,457.403,225.655,512z"/>
<path style="fill:#EC96CB;" d="M169.957,323.9l-9.313,28.26c3.886,0,3.886,2.106,8.932,2.106c5.045,0,5.045-2.106,10.092-2.106
	c5.047,0,5.045,2.106,10.092,2.106c5.045,0,5.045-2.106,10.092-2.106l-9.313-28.26L169.957,323.9L169.957,323.9z"/>
<path style="fill:#DD8CBF;" d="M180.827,323.9c0,0,0,21.478,0,28.26c5.045,0,5.045,2.106,10.092,2.106
	c5.045,0,5.045-2.106,10.092-2.106l-9.313-28.26L180.827,323.9L180.827,323.9z"/>
<ellipse style="fill:#FC9FD8;" cx="180.825" cy="166.433" rx="139.631" ry="166.433"/>
<path style="fill:#EC96CB;" d="M320.461,166.436c0,91.92-62.516,166.436-139.634,166.436c0-89.683,0-268.475,0-332.87
	C257.944,0,320.461,74.516,320.461,166.436z"/>
<g>
</g>
<g>
</g>
<g>
</g>
<g>
</g>
<g>
</g>
<g>
</g>
<g>
</g>
<g>
</g>
<g>
</g>
<g>
</g>
<g>
</g>
<g>
</g>
<g>
</g>
<g>
</g>
<g>
</g>
</svg>
