<?xml version="1.0" encoding="iso-8859-1"?>
<!-- Generator: Adobe Illustrator 19.0.0, SVG Export Plug-In . SVG Version: 6.00 Build 0)  -->
<svg version="1.1" id="Layer_1" xmlns="http://www.w3.org/2000/svg" xmlns:xlink="http://www.w3.org/1999/xlink" x="0px" y="0px"
	 viewBox="0 0 512 512" style="enable-background:new 0 0 512 512;" xml:space="preserve">
<circle style="fill:#DCDCDE;" cx="256" cy="41.272" r="41.272"/>
<path style="fill:#CECFD0;" d="M297.274,41.274C297.274,18.479,278.795,0,256,0v82.547
	C278.795,82.547,297.274,64.069,297.274,41.274z"/>
<path style="fill:#DCDCDE;" d="M302.97,437.026v28.003c0,25.942-21.03,46.97-46.97,46.97c-25.941,0-46.97-21.03-46.97-46.97v-28.003
	H302.97z"/>
<path style="fill:#CECFD0;" d="M256,437.026V512c25.942,0,46.972-21.029,46.972-46.97v-28.003H256z"/>
<path style="fill:#F6C958;" d="M256,466.271h211.913c0-97.044-61.395-31.384-61.395-256.306
	c0-93.717-61.395-168.691-150.518-168.691s-150.518,74.973-150.518,168.691c0,224.922-61.395,159.261-61.395,256.306L256,466.271
	L256,466.271z"/>
<g>
	<path style="fill:#E5BC53;" d="M406.518,209.965c0-93.717-61.395-168.691-150.518-168.691v424.996h211.913
		C467.913,369.225,406.518,434.886,406.518,209.965z"/>
	<path style="fill:#E5BC53;" d="M61.503,404.573c-9.834,13.587-17.417,27.598-17.417,61.696H256h211.913
		c0-34.098-7.583-48.109-17.417-61.696H61.503z"/>
</g>
<path style="fill:#D7B04D;" d="M450.497,404.573H256v61.696h211.912C467.912,432.171,460.329,418.161,450.497,404.573z"/>
<g>
</g>
<g>
</g>
<g>
</g>
<g>
</g>
<g>
</g>
<g>
</g>
<g>
</g>
<g>
</g>
<g>
</g>
<g>
</g>
<g>
</g>
<g>
</g>
<g>
</g>
<g>
</g>
<g>
</g>
</svg>
