<?xml version="1.0" encoding="iso-8859-1"?>
<!-- Generator: Adobe Illustrator 19.0.0, SVG Export Plug-In . SVG Version: 6.00 Build 0)  -->
<svg version="1.1" id="Layer_1" xmlns="http://www.w3.org/2000/svg" xmlns:xlink="http://www.w3.org/1999/xlink" x="0px" y="0px"
	 viewBox="0 0 512 512" style="enable-background:new 0 0 512 512;" xml:space="preserve">
<polygon style="fill:#B82971;" points="431.628,290.875 512,290.875 512,221.125 431.628,221.125 80.372,221.125 0,221.125 
	0,290.875 80.372,290.875 "/>
<polygon style="fill:#A82667;" points="471.814,290.875 512,290.875 512,221.124 471.814,221.124 296.185,221.124 256,221.124 
	256,290.875 296.185,290.875 "/>
<path style="fill:#D02D7F;" d="M214.487,295.141L109.459,352.84c-22.489,11.098-49.171-3.385-52.143-28.286
	C55.243,307.178,53.69,284.613,53.69,256s1.553-51.178,3.626-68.555c2.972-24.901,29.655-39.384,52.143-28.286l105.028,57.699
	L256,256L214.487,295.141z"/>
<g>
	<path style="fill:#C42C78;" d="M297.513,295.141l105.028,57.699c22.489,11.098,49.171-3.385,52.143-28.286
		c2.074-17.377,3.626-39.942,3.626-68.555s-1.553-51.178-3.626-68.555c-2.972-24.901-29.655-39.384-52.143-28.286l-105.028,57.699
		L256,256L297.513,295.141z"/>
	<path style="fill:#C42C78;" d="M279.415,303.628h-46.83c-9.995,0-18.098-8.103-18.098-18.098v-59.06
		c0-9.995,8.103-18.098,18.098-18.098h46.83c9.995,0,18.098,8.103,18.098,18.098v59.06
		C297.513,295.525,289.41,303.628,279.415,303.628z"/>
</g>
<path style="fill:#B82971;" d="M279.415,303.628H256v-95.255h23.415c9.995,0,18.098,8.103,18.098,18.098v59.06
	C297.513,295.525,289.41,303.628,279.415,303.628z"/>
<g>
	
		<rect x="137.506" y="226.477" transform="matrix(-0.9754 -0.2206 0.2206 -0.9754 306.388 503.8655)" style="fill:#C42C78;" width="87.644" height="16.696"/>
	
		<rect x="172.958" y="233.38" transform="matrix(-0.2206 -0.9754 0.9754 -0.2206 -49.0731 515.1901)" style="fill:#C42C78;" width="16.696" height="87.644"/>
</g>
<g>
	
		<rect x="322.348" y="191.009" transform="matrix(-0.2206 -0.9754 0.9754 -0.2206 174.599 609.1835)" style="fill:#B82971;" width="16.696" height="87.644"/>
	
		<rect x="286.88" y="268.838" transform="matrix(-0.9754 -0.2206 0.2206 -0.9754 592.113 620.4938)" style="fill:#B82971;" width="87.644" height="16.696"/>
</g>
<g>
</g>
<g>
</g>
<g>
</g>
<g>
</g>
<g>
</g>
<g>
</g>
<g>
</g>
<g>
</g>
<g>
</g>
<g>
</g>
<g>
</g>
<g>
</g>
<g>
</g>
<g>
</g>
<g>
</g>
</svg>
