<?xml version="1.0" encoding="iso-8859-1"?>
<!-- Generator: Adobe Illustrator 19.0.0, SVG Export Plug-In . SVG Version: 6.00 Build 0)  -->
<svg version="1.1" id="Layer_1" xmlns="http://www.w3.org/2000/svg" xmlns:xlink="http://www.w3.org/1999/xlink" x="0px" y="0px"
	 viewBox="0 0 512 512" style="enable-background:new 0 0 512 512;" xml:space="preserve">
<path style="fill:#7A7A7C;" d="M478.667,309.587H334.605c-18.41,0-33.333-14.924-33.333-33.333V156.27
	c0-18.41,14.924-33.333,33.333-33.333h144.061c18.41,0,33.333,14.924,33.333,33.333v119.983
	C512,294.663,497.076,309.587,478.667,309.587z"/>
<path style="fill:#F5F6F6;" d="M386.185,248.835H253.334v-65.146h132.851c7.166,0,12.975,5.809,12.975,12.975v39.197
	C399.16,243.026,393.351,248.835,386.185,248.835z"/>
<g>
	<rect x="253.329" y="183.685" style="fill:#7A7A7C;" width="38.332" height="65.146"/>
	<path style="fill:#7A7A7C;" d="M94.163,16.506c-25.542,0-46.248,20.706-46.248,46.248v253.912v46.704v85.876
		c0,25.542,20.706,46.248,46.248,46.248h86.35c25.542,0,46.248-20.706,46.248-46.248V363.37v-46.787V62.754
		c0-25.542-20.706-46.248-46.248-46.248C180.513,16.506,94.163,16.506,94.163,16.506z"/>
</g>
<path style="fill:#6A6A6B;" d="M137.338,16.506c0,43.519,0,431.671,0,478.987h43.175c25.542,0,46.248-20.706,46.248-46.248v-85.876
	v-46.787V62.754c0-25.542-20.706-46.248-46.248-46.248C180.513,16.506,137.338,16.506,137.338,16.506z"/>
<circle style="fill:#F5F6F6;" cx="137.338" cy="212.346" r="137.338"/>
<path style="fill:#E5E5E5;" d="M137.338,75.011c75.851,0,137.338,61.489,137.338,137.338s-61.489,137.338-137.338,137.338
	C137.338,264.508,137.338,101.797,137.338,75.011z"/>
<circle style="fill:#4D4D4D;" cx="137.338" cy="212.346" r="103.435"/>
<path style="fill:#282828;" d="M137.338,108.91c57.128,0,103.44,46.312,103.44,103.44s-46.312,103.44-103.44,103.44
	C137.338,255.999,137.338,152.788,137.338,108.91z"/>
<circle style="fill:#B8B9BD;" cx="167.691" cy="175.304" r="20.72"/>
<g>
</g>
<g>
</g>
<g>
</g>
<g>
</g>
<g>
</g>
<g>
</g>
<g>
</g>
<g>
</g>
<g>
</g>
<g>
</g>
<g>
</g>
<g>
</g>
<g>
</g>
<g>
</g>
<g>
</g>
</svg>
