<?xml version="1.0" encoding="iso-8859-1"?>
<!-- Generator: Adobe Illustrator 19.0.0, SVG Export Plug-In . SVG Version: 6.00 Build 0)  -->
<svg version="1.1" id="Layer_1" xmlns="http://www.w3.org/2000/svg" xmlns:xlink="http://www.w3.org/1999/xlink" x="0px" y="0px"
	 viewBox="0 0 512 512" style="enable-background:new 0 0 512 512;" xml:space="preserve">
<rect x="166.556" y="161.77" style="fill:#7A7A7C;" width="11.739" height="40.704"/>
<path style="fill:#F6C958;" d="M172.406,173.046c-22.137,0.189-38.178-19.948-39.768-22.003
	c-10.232-13.221-11.135-27.12-11.135-34.777c0-44.375,36.024-58.015,41.358-116.266c8.58,8.96,62.089,65.899,60.447,116.266
	c-0.249,7.653-0.903,21.556-11.135,34.777C210.584,153.098,194.543,173.235,172.406,173.046"/>
<rect x="106.552" y="190.82" style="fill:#D02D7F;" width="131.706" height="321.18"/>
<path style="fill:#EE964B;" d="M172.416,173.047c-10.912,0.093-18.819-9.833-19.603-10.846c-5.044-6.517-5.488-13.369-5.488-17.142
	c0-21.874,17.757-28.597,20.387-57.311c4.23,4.417,30.605,32.483,29.796,57.311c-0.122,3.772-0.445,10.625-5.488,17.142
	C191.234,163.213,183.327,173.141,172.416,173.047"/>
<g>
	<polygon style="fill:#C42C78;" points="238.26,269.397 238.26,239.132 106.552,370.84 106.552,401.105 	"/>
	<polygon style="fill:#C42C78;" points="238.26,192.927 238.26,190.824 210.098,190.824 106.552,294.371 106.552,324.636 	"/>
	<polygon style="fill:#C42C78;" points="106.552,217.903 106.552,248.168 163.896,190.824 133.631,190.824 	"/>
	<polygon style="fill:#C42C78;" points="238.26,345.865 238.26,315.6 106.552,447.309 106.552,477.574 	"/>
	<polygon style="fill:#C42C78;" points="118.329,512 148.594,512 238.26,422.333 238.26,392.068 	"/>
	<polygon style="fill:#C42C78;" points="238.26,498.802 238.26,468.537 194.798,512 225.062,512 	"/>
</g>
<rect x="332.589" y="286.03" style="fill:#7A7A7C;" width="11.739" height="40.704"/>
<path style="fill:#F6C958;" d="M338.434,297.312c-22.137,0.189-38.178-19.948-39.768-22.003
	c-10.232-13.221-11.135-27.12-11.135-34.777c0-44.375,36.024-58.015,41.358-116.266c8.58,8.96,62.089,65.899,60.447,116.266
	c-0.249,7.653-0.903,21.556-11.135,34.777C376.613,277.364,360.572,297.502,338.434,297.312"/>
<rect x="273.742" y="320.122" style="fill:#FC9FD8;" width="131.706" height="191.878"/>
<path style="fill:#EE964B;" d="M338.444,297.313c-10.912,0.094-18.819-9.833-19.603-10.845c-5.044-6.517-5.488-13.369-5.488-17.142
	c0-21.874,17.758-28.597,20.387-57.311c4.23,4.417,30.605,32.483,29.796,57.311c-0.122,3.772-0.445,10.625-5.488,17.142
	C357.264,287.48,349.357,297.406,338.444,297.313"/>
<g>
	<polygon style="fill:#EC96CB;" points="354.727,320.118 405.448,370.84 405.448,401.105 324.462,320.118 	"/>
	<polygon style="fill:#EC96CB;" points="273.74,320.118 278.259,320.118 405.448,447.309 405.448,477.574 273.74,345.865 	"/>
</g>
<polygon style="fill:#DE9DD7;" points="404.289,320.118 404.289,324.636 399.771,320.118 "/>
<g>
	<polygon style="fill:#EC96CB;" points="273.74,468.537 317.202,512 286.938,512 273.74,498.802 	"/>
	<polygon style="fill:#EC96CB;" points="273.74,392.068 393.671,512 363.406,512 273.74,422.333 	"/>
</g>
<g>
</g>
<g>
</g>
<g>
</g>
<g>
</g>
<g>
</g>
<g>
</g>
<g>
</g>
<g>
</g>
<g>
</g>
<g>
</g>
<g>
</g>
<g>
</g>
<g>
</g>
<g>
</g>
<g>
</g>
</svg>
