<?xml version="1.0" encoding="iso-8859-1"?>
<!-- Generator: Adobe Illustrator 19.0.0, SVG Export Plug-In . SVG Version: 6.00 Build 0)  -->
<svg version="1.1" id="Layer_1" xmlns="http://www.w3.org/2000/svg" xmlns:xlink="http://www.w3.org/1999/xlink" x="0px" y="0px"
	 viewBox="0 0 512 512" style="enable-background:new 0 0 512 512;" xml:space="preserve">
<polygon style="fill:#F5F6F6;" points="371.052,512 140.879,512 140.879,358.151 256.877,286.163 371.052,358.151 "/>
<polygon style="fill:#E5E5E5;" points="371.052,512 255.965,512 256.877,286.163 371.052,358.151 "/>
<rect x="186.936" y="176.328" style="fill:#F5F6F6;" width="138.073" height="146.365"/>
<rect x="255.967" y="176.328" style="fill:#E5E5E5;" width="69.031" height="146.365"/>
<polygon style="fill:#4D4D4D;" points="296.117,23.011 267.471,23.011 267.471,0 244.46,0 244.46,23.011 215.814,23.011 
	215.814,46.022 244.46,46.022 244.46,95.312 267.471,95.312 267.471,46.022 296.117,46.022 "/>
<polygon style="fill:#282828;" points="267.471,23.011 267.471,0 255.965,0 255.965,95.312 267.471,95.312 267.471,46.022 
	296.117,46.022 296.117,23.011 "/>
<path style="fill:#4D4D4D;" d="M294.453,512v-83.696c0-21.257-17.232-38.488-38.488-38.488s-38.488,17.232-38.488,38.488V512
	H294.453z"/>
<polygon style="fill:#E759A0;" points="163.774,200.862 255.965,73.915 348.157,200.862 "/>
<polygon style="fill:#D85397;" points="255.965,200.862 255.965,73.915 348.157,200.862 "/>
<polygon style="fill:#E759A0;" points="129.722,376.83 117.587,357.278 257.062,270.721 394.413,357.321 382.141,376.786 
	256.966,297.864 "/>
<polygon style="fill:#D85397;" points="257.062,270.721 394.413,357.321 382.141,376.786 256.966,297.864 "/>
<circle style="fill:#C2F9FA;" cx="255.967" cy="236.488" r="21.337"/>
<path style="fill:#B4E8E8;" d="M255.965,215.155v42.674c11.784,0,21.337-9.553,21.337-21.337
	C277.303,224.708,267.75,215.155,255.965,215.155z"/>
<path style="fill:#282828;" d="M294.453,428.304c0-21.257-17.232-38.488-38.488-38.488V512h38.488V428.304z"/>
<polygon style="fill:#4D4D4D;" points="278.229,336.569 262.345,336.569 262.345,323.809 249.587,323.809 249.587,336.569 
	233.702,336.569 233.702,349.328 249.587,349.328 249.587,376.658 262.345,376.658 262.345,349.328 278.229,349.328 "/>
<polygon style="fill:#282828;" points="262.345,336.569 262.345,323.809 255.965,323.809 255.965,376.658 262.345,376.658 
	262.345,349.328 278.229,349.328 278.229,336.569 "/>
<g>
</g>
<g>
</g>
<g>
</g>
<g>
</g>
<g>
</g>
<g>
</g>
<g>
</g>
<g>
</g>
<g>
</g>
<g>
</g>
<g>
</g>
<g>
</g>
<g>
</g>
<g>
</g>
<g>
</g>
</svg>
