<?xml version="1.0" encoding="iso-8859-1"?>
<!-- Generator: Adobe Illustrator 19.0.0, SVG Export Plug-In . SVG Version: 6.00 Build 0)  -->
<svg version="1.1" id="Layer_1" xmlns="http://www.w3.org/2000/svg" xmlns:xlink="http://www.w3.org/1999/xlink" x="0px" y="0px"
	 viewBox="0 0 512 512" style="enable-background:new 0 0 512 512;" xml:space="preserve">
<path style="fill:#D02D7F;" d="M317.501,111.856c-41.07,0-76.85,24.053-95.666,59.641c-18.817-35.59-54.596-59.641-95.666-59.641
	c-72.083,0-119.842,52.359-119.842,116.951c0,64.587,36.411,103.673,119.842,162.619c72.9,51.508,95.666,87.652,95.666,87.652
	s22.768-36.145,95.666-87.652c83.43-58.946,119.839-98.032,119.839-162.619C437.34,164.215,389.584,111.856,317.501,111.856z"/>
<path style="fill:#C42C78;" d="M317.501,111.856c-41.07,0-76.85,24.053-95.666,59.641c0,35.188,0,307.58,0,307.58
	s22.768-36.145,95.666-87.652c83.43-58.946,119.839-98.032,119.839-162.619C437.34,164.215,389.584,111.856,317.501,111.856z"/>
<rect x="351.633" y="85.49" transform="matrix(-0.7071 0.7071 -0.7071 -0.7071 771.2946 -113.9854)" style="fill:#F6C958;" width="115.243" height="34.515"/>
<rect x="357.73" y="100.216" transform="matrix(-0.7071 0.7071 -0.7071 -0.7071 786.0158 -107.8873)" style="fill:#E5BC53;" width="115.243" height="17.259"/>
<g>
	<polygon style="fill:#EE964B;" points="503.64,91.405 437.183,74.817 420.595,8.36 454.086,0 465.655,46.345 512,57.914 	"/>
	<polygon style="fill:#EE964B;" points="467.381,127.665 400.924,111.076 384.335,44.619 417.825,36.259 429.394,82.606 
		475.741,94.175 	"/>
</g>
<g>
	<polygon style="fill:#DF8D46;" points="503.64,91.405 437.183,74.817 465.655,46.345 512,57.914 	"/>
	<polygon style="fill:#DF8D46;" points="467.381,127.665 400.924,111.076 429.394,82.606 475.741,94.175 	"/>
</g>
<polygon style="fill:#F6C958;" points="165.914,321.91 62.838,424.754 87.246,449.162 190.322,346.318 "/>
<polygon style="fill:#E5BC53;" points="178.117,334.115 75.042,436.957 87.246,449.162 190.322,346.318 "/>
<path style="fill:#EE964B;" d="M0,512l42.012-122.368l80.356,80.356L0,512z"/>
<path style="fill:#DF8D46;" d="M0,512l82.19-82.19l40.179,40.179L0,512z"/>
<g>
</g>
<g>
</g>
<g>
</g>
<g>
</g>
<g>
</g>
<g>
</g>
<g>
</g>
<g>
</g>
<g>
</g>
<g>
</g>
<g>
</g>
<g>
</g>
<g>
</g>
<g>
</g>
<g>
</g>
</svg>
