<?xml version="1.0" encoding="iso-8859-1"?>
<!-- Generator: Adobe Illustrator 19.0.0, SVG Export Plug-In . SVG Version: 6.00 Build 0)  -->
<svg version="1.1" id="Layer_1" xmlns="http://www.w3.org/2000/svg" xmlns:xlink="http://www.w3.org/1999/xlink" x="0px" y="0px"
	 viewBox="0 0 512 512" style="enable-background:new 0 0 512 512;" xml:space="preserve">
<polygon style="fill:#C2F9FA;" points="471.076,278.642 395.799,172.179 116.201,172.179 40.924,278.642 256,512 "/>
<polygon style="fill:#E0FAF2;" points="159.998,278.642 352.002,278.642 352.002,278.642 314.943,172.179 197.057,172.179 "/>
<g>
	<polygon style="fill:#B4E8E8;" points="256,512 471.077,278.642 352.002,278.642 	"/>
	<polygon style="fill:#B4E8E8;" points="40.923,278.642 256,512 159.998,278.642 	"/>
</g>
<rect x="238.742" style="fill:#E0FAF2;" width="34.517" height="99.293"/>
<rect x="256" style="fill:#D1E9E2;" width="17.258" height="99.293"/>
<rect x="78.22" y="46.934" transform="matrix(-0.7071 -0.7071 0.7071 -0.7071 172.8915 199.9982)" style="fill:#E0FAF2;" width="99.293" height="34.517"/>
<rect x="366.882" y="14.54" transform="matrix(-0.7071 -0.7071 0.7071 -0.7071 610.3814 381.2014)" style="fill:#D1E9E2;" width="34.517" height="99.293"/>
<g>
</g>
<g>
</g>
<g>
</g>
<g>
</g>
<g>
</g>
<g>
</g>
<g>
</g>
<g>
</g>
<g>
</g>
<g>
</g>
<g>
</g>
<g>
</g>
<g>
</g>
<g>
</g>
<g>
</g>
</svg>
