<?xml version="1.0" encoding="iso-8859-1"?>
<!-- Generator: Adobe Illustrator 19.0.0, SVG Export Plug-In . SVG Version: 6.00 Build 0)  -->
<svg version="1.1" id="Layer_1" xmlns="http://www.w3.org/2000/svg" xmlns:xlink="http://www.w3.org/1999/xlink" x="0px" y="0px"
	 viewBox="0 0 512 512" style="enable-background:new 0 0 512 512;" xml:space="preserve">
<path style="fill:#F6C958;" d="M401.037,252.965c-64.691,0-118.525,48.108-145.037,77.017
	c-26.513-28.909-80.346-77.017-145.036-77.017C49.779,252.965,0,302.742,0,363.928c0,61.185,49.779,110.963,110.964,110.963
	c64.69,0,118.525-48.108,145.036-77.017c26.512,28.909,80.346,77.017,145.037,77.017c61.185,0,110.963-49.778,110.963-110.963
	C512,302.742,462.222,252.965,401.037,252.965z M199.524,391.922c-38.274,32.56-69.285,39.395-88.56,39.395
	c-37.159,0-67.389-30.23-67.389-67.388s30.23-67.389,67.389-67.389c51.178,0,97.012,44.771,116.916,67.414
	C221.182,371.578,211.503,381.73,199.524,391.922z M401.037,431.317c-51.162,0-96.979-44.74-116.896-67.388
	c19.916-22.649,65.734-67.389,116.896-67.389c37.159,0,67.388,30.231,67.388,67.389S438.195,431.317,401.037,431.317z"/>
<path style="fill:#E5BC53;" d="M401.037,252.965c-64.691,0-118.525,48.108-145.037,77.017c0,42.321,0,42.321,0,67.892
	c26.512,28.909,80.346,77.017,145.037,77.017c61.185,0,110.963-49.778,110.963-110.963C512,302.742,462.222,252.965,401.037,252.965
	z M401.037,431.317c-51.162,0-96.979-44.74-116.896-67.388c19.916-22.649,65.734-67.389,116.896-67.389
	c37.159,0,67.388,30.231,67.388,67.389S438.195,431.317,401.037,431.317z"/>
<path style="fill:#D02D7F;" d="M299.707,37.109c-18.763,0-35.109,10.988-43.706,27.247c-8.596-16.259-24.942-27.247-43.706-27.247
	c-32.932,0-54.751,23.92-54.751,53.429c0,29.507,16.634,47.363,54.751,74.293c33.304,23.532,43.706,40.044,43.706,40.044
	s10.401-16.513,43.706-40.044c38.115-26.93,54.748-44.787,54.748-74.293C354.455,61.029,332.637,37.109,299.707,37.109z"/>
<path style="fill:#C42C78;" d="M299.707,37.109c-18.763,0-35.109,10.988-43.706,27.247c0,16.076,0,140.52,0,140.52
	s10.401-16.513,43.706-40.044c38.115-26.93,54.748-44.787,54.748-74.293C354.455,61.029,332.637,37.109,299.707,37.109z"/>
<g>
</g>
<g>
</g>
<g>
</g>
<g>
</g>
<g>
</g>
<g>
</g>
<g>
</g>
<g>
</g>
<g>
</g>
<g>
</g>
<g>
</g>
<g>
</g>
<g>
</g>
<g>
</g>
<g>
</g>
</svg>
