<?xml version="1.0" encoding="iso-8859-1"?>
<!-- Generator: Adobe Illustrator 19.0.0, SVG Export Plug-In . SVG Version: 6.00 Build 0)  -->
<svg version="1.1" id="Layer_1" xmlns="http://www.w3.org/2000/svg" xmlns:xlink="http://www.w3.org/1999/xlink" x="0px" y="0px"
	 viewBox="0 0 512 512" style="enable-background:new 0 0 512 512;" xml:space="preserve">
<path style="fill:#DCDCDE;" d="M507.243,193.915c-11.546,54.633-38.905,124.691-45.239,269.343h-33.38
	c0,0-0.005-175.947-42.432-233.095v-36.248L507.243,193.915L507.243,193.915z"/>
<path style="fill:#CECFD0;" d="M507.243,193.915c-11.546,54.633-38.905,124.691-45.239,269.343h-15.286V193.915H507.243z"/>
<path style="fill:#F5F6F6;" d="M507.243,193.915c3.282-15.529,4.757-27.248,4.757-42.221c0-67.652-34.198-102.952-34.198-102.952
	C300.931,131.1,251.171,205.698,195.354,304.449c-17.101,30.256-102.535-2.725-150.02,25.117C19.079,344.96,0,374.745,0,434.368
	c0,0,76.209,28.89,159.849,28.89s101.331-19.189,130.987-86.237C362.072,215.898,423.406,193.915,507.243,193.915z"/>
<path style="fill:#E5E5E5;" d="M487.11,170.543c-34.87,1.686-71.275,9.009-106.941,35.346
	c-40.222,29.701-75.53,81.019-111.111,161.5c-13.397,30.289-23.301,48.579-37.245,58.467c-13.61,9.651-34.459,13.587-71.963,13.587
	c-56.226,0-109.399-15.049-135.429-22.022c-4.04-1.082-12.931-3.52-23.316-6.379C0.387,418.268,0,426.014,0,434.368
	c0,0,76.209,28.89,159.849,28.89S261.18,444.07,290.836,377.02c71.236-161.122,132.569-183.104,216.407-183.104
	c1.807-8.553,3.064-15.951,3.83-23.372C495.033,170.543,487.11,170.543,487.11,170.543z"/>
<g>
</g>
<g>
</g>
<g>
</g>
<g>
</g>
<g>
</g>
<g>
</g>
<g>
</g>
<g>
</g>
<g>
</g>
<g>
</g>
<g>
</g>
<g>
</g>
<g>
</g>
<g>
</g>
<g>
</g>
</svg>
