<?xml version="1.0" encoding="iso-8859-1"?>
<!-- Generator: Adobe Illustrator 19.0.0, SVG Export Plug-In . SVG Version: 6.00 Build 0)  -->
<svg version="1.1" id="Layer_1" xmlns="http://www.w3.org/2000/svg" xmlns:xlink="http://www.w3.org/1999/xlink" x="0px" y="0px"
	 viewBox="0 0 512 512" style="enable-background:new 0 0 512 512;" xml:space="preserve">
<rect x="337.732" y="192.657" style="fill:#282828;" width="70.993" height="54.005"/>
<path style="fill:#C2F9FA;" d="M423.022,192.591h-99.586c-11.827,0-21.416-9.588-21.416-21.416v-51.61
	c0-11.827,9.588-21.416,21.416-21.416h99.586c11.827,0,21.416,9.588,21.416,21.416v51.61
	C444.438,183.003,434.849,192.591,423.022,192.591z"/>
<path style="fill:#B4E8E8;" d="M421.88,192.591h-48.65c0-25.168,0-71.392,0-94.442h48.65c12.458,0,22.558,10.1,22.558,22.558v49.326
	C444.438,182.492,434.339,192.591,421.88,192.591z"/>
<g>
	<path style="fill:#4D4D4D;" d="M421.88,204.316h-97.302c-18.903,0-34.282-15.379-34.282-34.282v-49.326
		c0-18.904,15.379-34.282,34.282-34.282h97.302c18.903,0,34.282,15.379,34.282,34.282v49.326
		C456.162,188.937,440.783,204.316,421.88,204.316z M324.578,109.874c-5.973,0-10.833,4.861-10.833,10.834v49.326
		c0,5.974,4.861,10.834,10.833,10.834h97.302c5.973,0,10.833-4.861,10.833-10.834v-49.326c0-5.974-4.861-10.834-10.833-10.834
		H324.578z"/>
	<path style="fill:#4D4D4D;" d="M94.179,215.239v32.289c0,7.016,5.688,12.703,12.703,12.703h47.733
		c7.016,0,12.703-5.688,12.703-12.703v-32.289c0-7.016-5.688-12.703-12.703-12.703h-47.733
		C99.867,202.536,94.179,208.224,94.179,215.239z"/>
</g>
<path style="fill:#F5F6F6;" d="M424.173,512H79.857c-23.204,0-42.013-18.81-42.013-42.013V268.469
	c0-23.204,18.81-42.013,42.013-42.013h344.317c23.204,0,42.013,18.81,42.013,42.013v201.518C466.186,493.19,447.377,512,424.173,512
	z"/>
<path style="fill:#E5E5E5;" d="M421.933,512H252.015c0-32.729,0-273.882,0-285.543h169.917c24.441,0,44.254,19.813,44.254,44.255
	v197.034C466.186,492.187,446.373,512,421.933,512z"/>
<rect x="37.844" y="289.013" style="fill:#7A7A7C;" width="428.344" height="160.423"/>
<rect x="252.017" y="289.013" style="fill:#6A6A6B;" width="214.172" height="160.423"/>
<circle style="fill:#4D4D4D;" cx="252.017" cy="369.23" r="103.157"/>
<path style="fill:#282828;" d="M252.014,266.073c56.971,0,103.155,46.185,103.155,103.155s-46.185,103.155-103.155,103.155
	C252.014,425.806,252.014,290.01,252.014,266.073z"/>
<circle style="fill:#FFFFFF;" cx="252.017" cy="369.23" r="80.217"/>
<path style="fill:#F5F6F6;" d="M252.014,289.016c44.3,0,80.213,35.912,80.213,80.213s-35.912,80.213-80.213,80.213
	C252.014,407.344,252.014,310.503,252.014,289.016z"/>
<circle style="fill:#C2F9FA;" cx="252.017" cy="369.23" r="56.718"/>
<path style="fill:#B4E8E8;" d="M252.014,312.509c31.324,0,56.718,25.394,56.718,56.718s-25.394,56.718-56.718,56.718
	C252.014,384.038,252.014,327.781,252.014,312.509z"/>
<rect x="117.16" y="238.113" style="fill:#D02D7F;" width="27.183" height="10.776"/>
<rect x="355.886" style="fill:#F6C958;" width="34.682" height="53.927"/>
<rect x="373.227" style="fill:#E5BC53;" width="17.343" height="53.927"/>
<rect x="286.284" y="7.905" transform="matrix(-0.7071 0.7071 -0.7071 -0.7071 542.976 -155.1707)" style="fill:#F6C958;" width="34.682" height="53.926"/>
<rect x="425.487" y="7.894" transform="matrix(-0.7071 -0.7071 0.7071 -0.7071 731.308 372.6316)" style="fill:#E5BC53;" width="34.682" height="53.926"/>
<path style="fill:#282828;" d="M421.88,86.427h-48.651v23.448h48.651c5.973,0,10.833,4.861,10.833,10.834v49.326
	c0,5.974-4.861,10.834-10.833,10.834h-48.651v23.448h48.651c18.903,0,34.282-15.379,34.282-34.282v-49.326
	C456.162,101.805,440.783,86.427,421.88,86.427z"/>
<g>
</g>
<g>
</g>
<g>
</g>
<g>
</g>
<g>
</g>
<g>
</g>
<g>
</g>
<g>
</g>
<g>
</g>
<g>
</g>
<g>
</g>
<g>
</g>
<g>
</g>
<g>
</g>
<g>
</g>
</svg>
