<?xml version="1.0" encoding="iso-8859-1"?>
<!-- Generator: Adobe Illustrator 19.0.0, SVG Export Plug-In . SVG Version: 6.00 Build 0)  -->
<svg version="1.1" id="Layer_1" xmlns="http://www.w3.org/2000/svg" xmlns:xlink="http://www.w3.org/1999/xlink" x="0px" y="0px"
	 viewBox="0 0 512 512" style="enable-background:new 0 0 512 512;" xml:space="preserve">
<rect x="186.268" y="8.348" style="fill:#F5F6F6;" width="139.453" height="122.669"/>
<rect x="256" y="8.348" style="fill:#E5E5E5;" width="69.732" height="122.669"/>
<path style="fill:#FC9FD8;" d="M290.862,86.598c-13.874,0-21.682-5.334-26.85-8.863c-3.601-2.46-4.458-3.045-8.016-3.045
	c-3.556,0-4.412,0.584-8.012,3.044c-5.168,3.529-12.976,8.864-26.85,8.864s-21.682-5.334-26.85-8.864
	c-3.6-2.46-4.456-3.044-8.012-3.044V41.298c13.874,0,21.681,5.334,26.848,8.863c3.601,2.46,4.457,3.044,8.014,3.044
	s4.413-0.584,8.014-3.044c5.167-3.529,12.974-8.863,26.848-8.863c13.875,0,21.683,5.334,26.851,8.863
	c3.601,2.46,4.457,3.044,8.015,3.044s4.415-0.584,8.016-3.045c5.168-3.529,12.976-8.863,26.85-8.863v33.391
	c-3.558,0-4.414,0.584-8.015,3.044C312.546,81.263,304.737,86.598,290.862,86.598z"/>
<path style="fill:#EC96CB;" d="M290.862,86.598c-13.874,0-21.682-5.334-26.85-8.863c-3.601-2.46-4.458-3.045-8.016-3.045
	c0-10.742,0-24.842,0-33.391c13.875,0,21.683,5.334,26.851,8.863c3.601,2.46,4.457,3.044,8.015,3.044s4.415-0.584,8.016-3.045
	c5.168-3.529,12.976-8.863,26.85-8.863v33.391c-3.558,0-4.414,0.584-8.015,3.044C312.546,81.263,304.737,86.598,290.862,86.598z"/>
<rect x="119.808" y="119.552" style="fill:#E5E5E5;" width="272.373" height="152.732"/>
<rect x="256.178" y="119.552" style="fill:#CECFD0;" width="136.014" height="152.732"/>
<path style="fill:#EC96CB;" d="M358.137,208.623c-13.772,0-21.49-5.397-26.595-8.969c-3.479-2.433-4.203-2.94-7.457-2.94
	c-3.252,0-3.976,0.506-7.454,2.94c-5.106,3.572-12.822,8.969-26.594,8.969s-21.487-5.397-26.594-8.969
	c-3.478-2.433-4.202-2.94-7.455-2.94c-3.251,0-3.975,0.506-7.453,2.94c-5.106,3.572-12.822,8.969-26.594,8.969
	c-13.771,0-21.487-5.397-26.593-8.969c-3.478-2.433-4.202-2.94-7.454-2.94c-3.25,0-3.972,0.506-7.45,2.938
	c-5.106,3.572-12.821,8.97-26.593,8.97c-13.771,0-21.486-5.398-26.592-8.97c-3.477-2.433-4.2-2.938-7.45-2.938v-33.391
	c13.771,0,21.486,5.398,26.592,8.97c3.477,2.433,4.2,2.938,7.45,2.938c3.251,0,3.974-0.506,7.451-2.938
	c5.106-3.572,12.821-8.97,26.592-8.97c13.772,0,21.488,5.397,26.594,8.969c3.478,2.433,4.202,2.94,7.453,2.94
	c3.252,0,3.976-0.506,7.454-2.94c5.106-3.572,12.822-8.969,26.593-8.969c13.772,0,21.488,5.397,26.595,8.969
	c3.478,2.433,4.202,2.94,7.454,2.94c3.252,0,3.976-0.506,7.454-2.94c5.106-3.572,12.822-8.969,26.594-8.969
	s21.49,5.397,26.595,8.969c3.479,2.433,4.203,2.94,7.457,2.94c3.255,0,3.978-0.506,7.457-2.94
	c5.106-3.572,12.823-8.969,26.595-8.969v33.391c-3.255,0-3.978,0.506-7.457,2.94C379.626,203.226,371.909,208.623,358.137,208.623z"
	/>
<path style="fill:#DD8CBF;" d="M255.988,196.715c3.253,0,3.977,0.506,7.455,2.94c5.107,3.571,12.822,8.969,26.594,8.969
	s21.488-5.397,26.594-8.969c3.478-2.433,4.202-2.94,7.454-2.94c3.255,0,3.978,0.506,7.457,2.94
	c5.106,3.572,12.823,8.969,26.595,8.969c13.772,0,21.49-5.397,26.595-8.969c3.479-2.433,4.203-2.94,7.457-2.94v-33.391
	c-13.772,0-21.49,5.397-26.595,8.969c-3.479,2.433-4.203,2.94-7.457,2.94c-3.255,0-3.978-0.506-7.457-2.94
	c-5.106-3.572-12.823-8.969-26.595-8.969s-21.488,5.397-26.594,8.969c-3.478,2.433-4.202,2.94-7.454,2.94
	c-3.252,0-3.976-0.506-7.454-2.94c-5.107-3.572-12.823-8.969-26.595-8.969L255.988,196.715L255.988,196.715z"/>
<rect x="239.304" y="399.482" style="fill:#B8B9BD;" width="33.391" height="87.474"/>
<rect x="53.35" y="252.394" style="fill:#F5F6F6;" width="405.293" height="147.089"/>
<rect x="256.178" y="252.394" style="fill:#E5E5E5;" width="202.474" height="147.089"/>
<path style="fill:#FC9FD8;" d="M458.648,348.591c-13.738,0-21.423-5.419-26.507-9.006c-3.408-2.403-4.116-2.903-7.264-2.903
	c-3.148,0-3.858,0.5-7.264,2.903c-5.084,3.586-12.771,9.006-26.508,9.006s-21.423-5.419-26.508-9.006
	c-3.408-2.403-4.116-2.903-7.265-2.903c-3.147,0-3.856,0.5-7.26,2.902c-5.084,3.586-12.77,9.006-26.506,9.006
	c-13.738,0-21.423-5.419-26.508-9.006c-3.406-2.402-4.115-2.902-7.261-2.902c-3.148,0-3.857,0.5-7.264,2.903
	c-5.084,3.586-12.77,9.006-26.507,9.006c-13.737,0-21.424-5.419-26.508-9.005c-3.409-2.403-4.117-2.903-7.267-2.903
	s-3.859,0.5-7.267,2.903c-5.084,3.586-12.771,9.005-26.508,9.005c-13.739,0-21.424-5.419-26.509-9.005
	c-3.409-2.403-4.118-2.903-7.268-2.903c-3.15,0-3.859,0.5-7.267,2.903c-5.084,3.586-12.771,9.005-26.508,9.005
	c-13.739,0-21.425-5.419-26.512-9.005c-3.409-2.404-4.118-2.904-7.269-2.904c-3.152,0-3.862,0.5-7.27,2.904
	c-5.085,3.586-12.772,9.005-26.51,9.005v-33.391c3.151,0,3.861-0.5,7.269-2.904c5.087-3.586,12.773-9.005,26.512-9.005
	s21.425,5.418,26.51,9.005c3.409,2.404,4.118,2.904,7.27,2.904c3.15,0,3.859-0.5,7.266-2.903c5.085-3.586,12.772-9.005,26.509-9.005
	c13.737,0,21.424,5.419,26.509,9.005c3.409,2.403,4.118,2.903,7.268,2.903c3.15,0,3.859-0.5,7.267-2.903
	c5.084-3.586,12.771-9.005,26.508-9.005c13.737,0,21.424,5.419,26.509,9.005c3.408,2.403,4.116,2.903,7.266,2.903
	c3.148,0,3.857-0.5,7.264-2.903c5.084-3.586,12.77-9.006,26.507-9.006c13.737,0,21.422,5.419,26.506,9.006
	c3.408,2.403,4.116,2.903,7.264,2.903c3.147,0,3.856-0.5,7.26-2.902c5.084-3.586,12.77-9.006,26.506-9.006
	c13.738,0,21.423,5.419,26.508,9.006c3.408,2.403,4.116,2.903,7.265,2.903s3.858-0.5,7.265-2.903
	c5.084-3.586,12.77-9.006,26.507-9.006s21.423,5.419,26.507,9.006c3.408,2.403,4.116,2.903,7.264,2.903L458.648,348.591
	L458.648,348.591z"/>
<path style="fill:#EC96CB;" d="M458.648,348.591c-13.738,0-21.423-5.419-26.507-9.006c-3.408-2.403-4.116-2.903-7.264-2.903
	c-3.148,0-3.858,0.5-7.264,2.903c-5.084,3.586-12.771,9.006-26.508,9.006s-21.423-5.419-26.508-9.006
	c-3.408-2.403-4.116-2.903-7.265-2.903c-3.147,0-3.856,0.5-7.26,2.902c-5.084,3.586-12.77,9.006-26.506,9.006
	c-13.738,0-21.423-5.419-26.508-9.006c-3.406-2.402-4.115-2.902-7.261-2.902c-3.148,0-3.857,0.5-7.264,2.903
	c-5.084,3.586-12.77,9.006-26.507,9.006c0-18.205,0-28.44,0-33.391c3.148,0,3.857-0.5,7.264-2.903
	c5.084-3.586,12.77-9.006,26.507-9.006s21.422,5.419,26.506,9.006c3.408,2.403,4.116,2.903,7.264,2.903
	c3.147,0,3.856-0.5,7.26-2.902c5.084-3.586,12.77-9.006,26.506-9.006c13.738,0,21.423,5.419,26.508,9.006
	c3.408,2.403,4.116,2.903,7.265,2.903s3.858-0.5,7.265-2.903c5.084-3.586,12.77-9.006,26.507-9.006s21.423,5.419,26.507,9.006
	c3.408,2.403,4.116,2.903,7.264,2.903V348.591z"/>
<rect y="382.787" style="fill:#C3C3C9;" width="512" height="33.391"/>
<rect x="162.159" y="470.261" style="fill:#7A7A7C;" width="187.67" height="33.391"/>
<g>
</g>
<g>
</g>
<g>
</g>
<g>
</g>
<g>
</g>
<g>
</g>
<g>
</g>
<g>
</g>
<g>
</g>
<g>
</g>
<g>
</g>
<g>
</g>
<g>
</g>
<g>
</g>
<g>
</g>
</svg>
