<?xml version="1.0" encoding="iso-8859-1"?>
<!-- Generator: Adobe Illustrator 19.0.0, SVG Export Plug-In . SVG Version: 6.00 Build 0)  -->
<svg version="1.1" id="Layer_1" xmlns="http://www.w3.org/2000/svg" xmlns:xlink="http://www.w3.org/1999/xlink" x="0px" y="0px"
	 viewBox="0 0 512 512" style="enable-background:new 0 0 512 512;" xml:space="preserve">
<path style="fill:#F5F6F6;" d="M512,502.423H0V162.193h512V502.423z"/>
<path style="fill:#E5E5E5;" d="M512,502.423H256.001V162.193H512V502.423z"/>
<path style="fill:#DBE77F;" d="M512,160.746H0V36.407h512V160.746z"/>
<path style="fill:#CED977;" d="M512,160.746H256V36.407h256V160.746z"/>
<rect y="144.05" style="fill:#9DB748;" width="512" height="33.391"/>
<rect x="256" y="144.05" style="fill:#91A842;" width="256" height="33.391"/>
<g>
	<rect x="95.722" y="9.577" style="fill:#7A7A7C;" width="33.391" height="87.04"/>
	<rect x="191.443" y="9.577" style="fill:#7A7A7C;" width="33.391" height="87.04"/>
</g>
<g>
	<rect x="287.165" y="9.577" style="fill:#6A6A6B;" width="33.391" height="87.04"/>
	<rect x="382.887" y="9.577" style="fill:#6A6A6B;" width="33.391" height="87.04"/>
</g>
<path style="fill:#D4498D;" d="M297.431,263.999c-17.786,0-33.281,10.416-41.43,25.829c-8.149-15.412-23.643-25.829-41.43-25.829
	c-31.216,0-51.9,22.675-51.9,50.648c0,27.971,15.768,44.897,51.9,70.424c31.57,22.307,41.43,37.959,41.43,37.959
	s9.86-15.653,41.43-37.959c36.131-25.528,51.898-42.455,51.898-70.424C349.329,286.674,328.647,263.999,297.431,263.999z"/>
<path style="fill:#C84788;" d="M297.431,263.999c-17.786,0-33.281,10.416-41.43,25.829c0,26.822,0,133.202,0,133.202
	s9.86-15.653,41.43-37.959c36.131-25.528,51.898-42.455,51.898-70.424C349.329,286.674,328.647,263.999,297.431,263.999z"/>
<g>
</g>
<g>
</g>
<g>
</g>
<g>
</g>
<g>
</g>
<g>
</g>
<g>
</g>
<g>
</g>
<g>
</g>
<g>
</g>
<g>
</g>
<g>
</g>
<g>
</g>
<g>
</g>
<g>
</g>
</svg>
