<svg height="510pt" viewBox="0 0 510.07129 510" width="510pt" xmlns="http://www.w3.org/2000/svg"><path d="m342.703125 191.3125c-57.128906 0-103.605469-35.753906-103.605469-79.699219 0-43.945312 46.476563-79.699219 103.605469-79.699219 52.125 0 135.570313 60 144.910156 66.835938l17.546875 12.863281-17.5625 12.863281c-9.324218 6.839844-92.769531 66.835938-144.894531 66.835938zm0 0" fill="#7cb342"/><path d="m320.53125 509.070312c-16.003906 0-31.894531-6.566406-43.5625-18.25-12.351562-12.386718-31.464844-12.386718-43.179688-.667968l-.671874.667968c-13.339844 13.324219-32.210938 20.050782-50.304688 17.867188-104.214844-12.242188-182.8125-100.722656-182.8125-205.796875 0-114.257813 92.960938-207.214844 207.214844-207.214844h95.640625c114.253906 0 207.214843 92.957031 207.214843 207.214844 0 105.074219-78.597656 193.554687-182.8125 205.796875-2.214843.253906-4.476562.382812-6.726562.382812zm0 0" fill="#ef4b03"/><path d="m270.976562 175.371094h-31.878906v-31.878906c0-61.527344-50.070312-111.578126-111.578125-111.578126v-31.8789058c79.105469 0 143.457031 64.3632818 143.457031 143.4570318zm0 0" fill="#9ccc65"/><path d="m302.855469 191.3125h-95.640625c-8.796875 0-15.9375-7.140625-15.9375-15.941406 0-8.796875 7.140625-15.9375 15.9375-15.9375h95.640625c8.796875 0 15.9375 7.140625 15.9375 15.9375 0 8.800781-7.140625 15.941406-15.9375 15.941406zm0 0" fill="#dd4503"/><path d="m327.257812 476.808594c-2.230468.269531-4.476562.382812-6.726562.382812-16.003906 0-31.894531-6.566406-43.5625-18.25-12.351562-12.386718-31.464844-12.386718-43.179688-.671875l-.671874.671875c-13.339844 13.324219-32.210938 20.050782-50.304688 17.867188-98.667969-11.589844-174.253906-91.527344-182.03125-189.171875-.382812 5.050781-.78125 10.105469-.78125 15.253906 0 105.074219 78.597656 193.554687 182.8125 205.796875 18.109375 2.183594 36.964844-4.542969 50.304688-17.867188l.671874-.667968c11.714844-11.71875 30.828126-11.703125 43.179688.667968 11.667969 11.683594 27.558594 18.25 43.5625 18.25 2.25 0 4.496094-.128906 6.726562-.382812 104.214844-12.242188 182.8125-100.722656 182.8125-205.796875 0-5.148437-.398437-10.203125-.78125-15.269531-7.777343 97.644531-83.363281 177.582031-182.03125 189.1875zm0 0" fill="#dd4503"/><g fill="#fff"><path d="m382.554688 207.253906h31.878906v31.878906h-31.878906zm0 0"/><path d="m430.371094 271.011719h31.882812v31.878906h-31.882812zm0 0"/><path d="m79.699219 207.253906h31.878906v31.878906h-31.878906zm0 0"/></g></svg>