<svg height="506pt" viewBox="-14 0 506 506.69516" width="506pt" xmlns="http://www.w3.org/2000/svg"><path d="m364.15625 164.371094c-51.773438 24.148437-109.011719 11.378906-127.582031-28.453125-18.570313-39.832031 8.449219-91.875 60.21875-116.023438 47.230469-22.03125 148.226562-2.917969 159.574219-.65625l21.34375 4.242188-10.472657 19.078125c-5.578125 10.136718-55.851562 99.78125-103.082031 121.8125zm0 0" fill="#7cb342"/><path d="m240.050781 111.578125h-31.882812c0-43.945313-35.75-79.699219-79.695313-79.699219h-15.941406c-8.800781 0-15.941406-7.140625-15.941406-15.9375 0-8.800781 7.140625-15.941406 15.941406-15.941406h15.941406c61.507813 0 111.578125 50.050781 111.578125 111.578125zm0 0" fill="#9ccc65"/><path d="m299.980469 506.691406c-15.378907 0-31.066407-3.714844-45.585938-11.109375-18.953125-9.660156-41.617187-9.660156-60.585937 0-27.976563 14.25-60.269532 14.839844-86.472656 1.515625-30.875-15.71875-53.398438-43.996094-61.785157-77.578125l-41.332031-165.441406c-9.609375-38.367187-1.128906-78.246094 23.195312-109.410156 24.324219-31.160157 60.96875-49.03125 100.515626-49.03125h192.359374c39.53125 0 76.175782 17.886719 100.515626 49.046875 24.339843 31.164062 32.804687 71.042968 23.191406 109.410156l-41.363282 165.441406c-8.367187 33.566406-30.890624 61.84375-61.78125 77.5625-12.578124 6.390625-26.585937 9.59375-40.871093 9.59375zm0 0" fill="#f7eab7"/><path d="m315.269531 350.675781c-23.910156 0-43.355469-17.695312-43.355469-39.4375v-56.570312c0-17.375 15.300782-31.511719 34.109376-31.511719 15.078124 0 28.199218 8.925781 32.613281 22.203125l18.121093 54.386719c3.746094 11.269531 1.851563 23.351562-5.210937 33.15625-8.03125 11.125-21.597656 17.773437-36.277344 17.773437zm0 0" fill="#f4db8e"/><path d="m132.933594 350.675781c-14.679688 0-28.230469-6.648437-36.261719-17.789062-7.0625-9.804688-8.976563-21.886719-5.230469-33.15625l18.15625-54.402344c4.398438-13.246094 17.503906-22.171875 32.582032-22.171875 18.808593 0 34.109374 14.136719 34.109374 31.511719v56.570312c0 21.742188-19.445312 39.4375-43.355468 39.4375zm0 0" fill="#f4db8e"/><path d="m240.050781 490.273438v-394.636719h-31.882812v394.636719c10.457031-2.566407 21.410156-2.566407 31.882812 0zm0 0" fill="#dbc9a5"/><g fill="#fff"><path d="m89.5625 143.457031h31.878906v31.878907h-31.878906zm0 0"/><path d="m351.628906 175.335938h31.878906v31.878906h-31.878906zm0 0"/><path d="m41.824219 191.277344h31.878906v31.878906h-31.878906zm0 0"/></g></svg>