<svg height="511pt" viewBox="-71 0 511 511.26677" width="511pt" xmlns="http://www.w3.org/2000/svg"><path d="m239.230469 127.519531h-31.878907v-15.941406c0-43.945313-35.753906-79.699219-79.699218-79.699219v-31.878906c61.511718 0 111.578125 50.050781 111.578125 111.578125zm0 0" fill="#9ccc65"/><path d="m271.109375 510.070312c-4.78125 0-9.707031-1.257812-14.679687-3.730468-20.421876-10.214844-45.859376-10.214844-66.277344 0-4.976563 2.472656-9.898438 3.730468-14.683594 3.730468-40.964844 0-86.328125-47.484374-91.363281-52.902343l-4.273438-4.589844v-17.058594l8.128907-4.574219c38.414062-21.597656 79.539062-55.804687 79.539062-72.316406 0-23.527344-24.882812-47.054687-48.152344-61.242187l-17.183594-10.472657 14.136719-14.328124c11.269531-11.414063 27.289063-38.910157 27.289063-49.429688 0-26.363281-21.453125-47.820312-47.816406-47.820312h-15.941407v-59.039063l10.566407-3.777344c1.914062-.703125 47.535156-16.882812 85.070312-16.882812 17.3125 0 34.082031 5.789062 47.820312 16.226562 13.742188-10.4375 30.507813-16.226562 47.820313-16.226562 37.539063 0 83.15625 16.179687 85.070313 16.882812l10.566406 3.777344v59.039063h-15.9375c-26.367188 0-47.820313 21.457031-47.820313 47.820312 0 10.519531 16.019531 38.015625 27.289063 49.445312l14.136718 14.328126-17.179687 10.472656c-23.273437 14.1875-48.15625 37.714844-48.15625 61.242187 0 33.410157 39.339844 63.980469 74.644531 70.53125l13.023438 2.425781v19.523438l-4.269532 6.058594c-5.039062 5.402344-50.402343 52.886718-91.367187 52.886718zm0 0" fill="#ef4b03"/><path d="m63.890625 0h31.882813v31.878906h-31.882813zm0 0" fill="#9ccc65"/><path d="m.132812 0h31.878907v31.878906h-31.878907zm0 0" fill="#9ccc65"/><g fill="#f7eab7"><path d="m120.175781 266.765625c-1.769531 2.234375-3.507812 4.273437-5.148437 5.929687l-14.472656 14.699219 17.613281 10.742188c17.277343 10.535156 35.289062 26.125 43.976562 43.085937 3.378907-4.941406 5.371094-9.390625 5.371094-12.976562-.015625-23.445313-24.085937-46.832032-47.339844-61.480469zm0 0"/><path d="m279.078125 328.246094c0 5.898437 1.257813 11.699218 3.425781 17.3125 7.605469-18.617188 27.164063-35.976563 45.90625-47.40625l17.617188-10.742188-14.492188-14.679687c-1.640625-1.660157-3.378906-3.699219-5.148437-5.929688-23.238281 14.632813-47.308594 38-47.308594 61.445313zm0 0"/><path d="m302.988281 192.21875c0 3.203125 1.5625 8.015625 3.90625 13.402344 7.441407-17.421875 24.738281-29.664063 44.835938-29.664063h16.261719v-32.5h-16.261719c-26.871094 0-48.742188 21.871094-48.742188 48.761719zm0 0"/></g><path d="m271.808594 478.910156c-4.84375 0-9.847656-1.277344-14.886719-3.792968-20.722656-10.363282-46.527344-10.363282-67.25 0-5.035156 2.515624-10.042969 3.792968-14.886719 3.792968-35.339844 0-73.816406-34.75-87.714844-48.554687-.367187.207031-.71875.429687-1.085937.621093l-8.242187 4.640626v17.308593l4.335937 4.65625c5.117187 5.5 51.152344 53.683594 92.722656 53.683594 4.847657 0 9.851563-1.273437 14.886719-3.792969 20.722656-10.359375 46.527344-10.359375 67.25 0 5.039062 2.519532 10.042969 3.792969 14.886719 3.792969 41.574219 0 87.605469-48.183594 92.722656-53.683594l4.335937-6.136719v-19.8125l-8.941406-1.660156c-13.597656 13.535156-52.457031 48.9375-88.132812 48.9375zm0 0" fill="#dd4503"/><path d="m139.6875 205.621094c2.339844-5.386719 3.902344-10.199219 3.902344-13.402344 0-26.890625-21.867188-48.761719-48.757813-48.761719h-16.257812v32.5h16.257812c20.113281 0 37.410157 12.242188 44.855469 29.664063zm0 0" fill="#f7eab7"/><path d="m239.230469 143.457031h31.878906v31.878907h-31.878906zm0 0" fill="#fff"/><path d="m239.230469 223.15625h31.878906v31.878906h-31.878906zm0 0" fill="#fff"/></svg>