<svg height="510pt" viewBox="0 0 510 510.12373" width="510pt" xmlns="http://www.w3.org/2000/svg"><path d="m408.898438 196.695312c-51.101563 41.378907-118.558594 43.054688-150.390626 3.761719-31.832031-39.289062-16.144531-104.945312 34.941407-146.324219 46.605469-37.746093 164.703125-44.519531 178.015625-45.175781l25.007812-1.210937-6.390625 24.214844c-3.378906 12.894531-34.574219 126.988281-81.183593 164.734374zm0 0" fill="#9ccc65"/><path d="m271.039062 127.519531h-31.882812c0-52.746093-42.890625-95.640625-95.636719-95.640625h-15.941406v-31.878906h15.941406c70.308594 0 127.519531 57.207031 127.519531 127.519531zm0 0" fill="#9b7a5a"/><path d="m329.742188 510.117188c-25.46875 0-50.847657-6.230469-74.644532-18.664063-48.152344 25.167969-102.828125 24.929687-151.394531-.957031-60.269531-32.101563-98.84375-96.289063-103.210937-171.6875-.285157-5.035156-.429688-10.136719-.429688-15.253906 0-5.132813.144531-10.230469.429688-15.269532 4.351562-75.394531 42.941406-139.597656 103.210937-171.6875 48.582031-25.902344 103.257813-26.09375 151.394531-.953125 48.152344-25.171875 102.828125-24.929687 151.394532.953125 60.269531 32.105469 98.84375 96.292969 103.210937 171.6875.285156 5.039063.429687 10.136719.429687 15.269532 0 5.117187-.144531 10.21875-.429687 15.253906-4.351563 75.398437-42.941406 139.601562-103.210937 171.6875-24.5625 13.105468-50.703126 19.621094-76.75 19.621094zm0 0" fill="#ffa000"/><path d="m318.21875 323.785156-28.722656-13.851562c4.144531-8.578125 7.378906-17.597656 9.625-26.8125l30.972656 7.570312c-2.773438 11.351563-6.757812 22.492188-11.875 33.09375zm16.53125-68-31.863281-.84375.03125-3.207031c0-43.050781-39.132813-131.214844-39.132813-131.214844 45.125 29.328125 71.011719 77.164063 71.011719 131.214844zm0 0" fill="#ff8f00"/><path d="m509.625 287.601562c-4.5625 75.105469-43.039062 139.007813-103.132812 171.015626-24.5625 13.085937-50.703126 19.605468-76.75 19.605468-25.46875 0-50.847657-6.230468-74.644532-18.664062-48.152344 25.167968-102.828125 24.929687-151.394531-.957032-60.078125-32.007812-98.574219-95.910156-103.132813-171.015624-.015624.222656-.0625.445312-.078124.667968-.285157 5.070313-.429688 10.167969-.429688 15.300782 0 5.117187.144531 10.21875.429688 15.253906 4.351562 75.398437 42.941406 139.601562 103.210937 171.6875 48.566406 25.886718 103.257813 26.125 151.394531.957031 23.796875 12.433594 49.175782 18.664063 74.644532 18.664063 26.046874 0 52.1875-6.515626 76.75-19.605469 60.269531-32.101563 98.84375-96.289063 103.210937-171.683594.285156-5.054687.429687-10.15625.429687-15.273437 0-5.132813-.144531-10.230469-.429687-15.269532-.015625-.238281-.0625-.445312-.078125-.683594zm0 0" fill="#ff8f00"/><g fill="#fff"><path d="m366.675781 143.457031h31.878907v31.878907h-31.878907zm0 0"/><path d="m430.433594 223.15625h31.878906v31.878906h-31.878906zm0 0"/><path d="m430.433594 302.855469h31.878906v31.878906h-31.878906zm0 0"/></g></svg>