<svg height="512pt" viewBox="-156 0 511 512" width="512pt" xmlns="http://www.w3.org/2000/svg"><path d="m163.90625 512h-128v-30.03125l-35.40625-141.617188 15.535156-3.886718c6.609375-1.648438 13.394532-2.273438 19.871094-1.96875v-105.296875c0-26.832031-5.855469-53.136719-12.175781-77.582031-7.199219-27.730469-3.328125-56.738282 10.914062-81.632813l27.441407-48.015625c7.726562-13.554688 22.222656-21.96875 37.820312-21.96875 15.601562 0 30.097656 8.414062 37.824219 21.953125l27.441406 48.015625c14.238281 24.910156 18.113281 53.917969 10.914063 81.679688-5.792969 22.382812-11.1875 46.351562-12.050782 70.847656 6.59375-.273438 13.183594.335937 19.746094 1.96875l16.046875 4-35.921875 125.757812zm0 0" fill="#43a047"/><path d="m176.066406 151.679688c-3.679687 14.082031-7.039062 28.800781-9.4375 43.839843l-99.199218-51.039062 89.277343-89.28125 8.480469 14.722656c14.242188 24.957031 18.082031 53.917969 10.878906 81.757813zm0 0" fill="#9ccc65"/><path d="m199.90625 228.480469-36 125.757812v157.761719h-128v-30.078125l-35.359375-141.601563 15.519531-3.839843c6.5625-1.601563 13.28125-2.242188 19.839844-1.921875v-105.277344c0-26.882812-5.917969-53.121094-12.160156-77.601562-7.199219-27.839844-3.359375-56.800782 10.882812-81.757813l2.71875-4.480469 129.601563 129.597656c-.800781 4.480469-1.441407 9.121094-1.921875 13.601563-.480469 4.640625-.800782 9.28125-.960938 13.917969 6.5625-.320313 13.121094.320312 19.679688 1.921875zm0 0" fill="#66bb6a"/><path d="m51.90625 144h32v32h-32zm0 0" fill="#fff"/><path d="m115.90625 288h32v32h-32zm0 0" fill="#fff"/><g fill="#43a047"><path d="m166.789062 194.878906c-.800781 4.480469-1.28125 9.121094-1.761718 13.761719-.480469 4.640625-.800782 9.28125-.960938 13.917969-6.558594.480468-13.117187 2.882812-18.558594 7.203125-8.640624 6.71875-13.601562 16.957031-13.601562 28-14.398438 0-24.476562-11.839844-24.476562-24.480469 0-4.800781 1.4375-9.761719 4.636718-14.242188 3.839844-5.4375 8.320313-10.238281 13.761719-14.398437 10.71875-8.480469 23.359375-13.28125 36.480469-14.242187zm0 0"/><path d="m80.867188 322.929688c18.367187 18.765624 11.074218 50.496093-12.960938 61.070312v-14.078125c0-10.882813-4.957031-21.121094-13.597656-28-6.242188-4.960937-19.519532-7.363281-18.402344-7.363281v-32c13.601562.640625 27.042969 5.441406 38.082031 14.242187 2.449219 1.902344 4.75 3.953125 6.878907 6.128907zm0 0"/></g></svg>