<svg height="519pt" viewBox="-35 0 519 519.53323" width="519pt" xmlns="http://www.w3.org/2000/svg"><path d="m284.386719 162.355469c-58.1875 0-105.53125-36.417969-105.53125-81.179688 0-44.757812 47.34375-81.175781 105.53125-81.175781 53.089843 0 138.082031 61.109375 147.597656 68.074219l17.875 13.101562-17.894531 13.101563c-9.496094 6.964844-94.488282 68.078125-147.578125 68.078125zm0 0" fill="#d4e157"/><path d="m308.738281 48.707031h32.472657v32.46875h-32.472657zm0 0" fill="#fff"/><path d="m146.386719 0h32.46875v81.175781h-32.46875zm0 0" fill="#9b7a5a"/><path d="m182.785156 519.535156h-40.328125c-78.402343 0-142.191406-76.339844-142.191406-170.164062 0-29.109375 6.269531-57.898438 18.121094-83.273438l69.910156-149.511718c14.902344-31.851563 43.378906-51.644532 74.324219-51.644532 30.945312 0 59.421875 19.792969 74.324218 51.644532l69.910157 149.511718c11.851562 25.359375 18.121093 54.164063 18.121093 83.257813 0 93.839843-63.789062 170.179687-142.191406 170.179687zm0 0" fill="#f7eab7"/><path d="m113.914062 129.882812h32.472657v32.472657h-32.472657zm0 0" fill="#fff"/><path d="m162.621094 454.589844c-69.035156 0-113.648438-44.613282-113.648438-113.644532 0-68.351562 43.234375-163.703124 113.648438-163.703124 70.414062 0 113.648437 95.351562 113.648437 163.703124 0 69.03125-44.617187 113.644532-113.648437 113.644532zm0 0" fill="#f4db8e"/><path d="m162.621094 422.121094c-51.597656 0-81.175782-29.582032-81.175782-81.175782 0-52.847656 34.09375-131.234374 81.175782-131.234374 47.082031 0 81.175781 78.386718 81.175781 131.234374 0 51.59375-29.578125 81.175782-81.175781 81.175782zm0 0" fill="#9b7a5a"/><path d="m178.855469 308.472656h32.472656v32.472656h-32.472656zm0 0" fill="#fff"/><path d="m162.621094 389.648438c-46.175782 0-74.539063-23.847657-80.023438-65.816407-.699218 5.894531-1.152344 11.65625-1.152344 17.113281 0 51.59375 29.578126 81.175782 81.175782 81.175782s81.175781-29.582032 81.175781-81.175782c0-5.457031-.453125-11.21875-1.152344-17.113281-5.488281 41.96875-33.851562 65.816407-80.023437 65.816407zm0 0" fill="#89674c"/></svg>