<svg height="510.07129pt" viewBox="0 0 510.07129 510.07129" width="510.07129pt" xmlns="http://www.w3.org/2000/svg"><path d="m509.910156 204.027344c-1.113281 88.945312-39.6875 168.960937-100.898437 224.75-65.671875 1.59375-132.296875-17.53125-189.523438-58.976563-3.824219-2.707031-7.488281-5.578125-11.15625-8.605469-69.976562-54.992187-116.839843-132.777343-118.75-136.285156l-5.421875-8.925781 48.457032-66.789063 64.558593 46.863282c42.398438 30.921875 83.203125 50.847656 122.414063 59.613281 67.585937 15.464844 130.707031-1.753906 190.320312-51.644531zm0 0" fill="#fdd835"/><path d="m509.910156 204.027344c-59.613281 49.890625-122.734375 67.109375-190.320312 51.644531-2.582032-.574219-5.195313-1.335937-7.777344-2.007813-8.191406 4.320313-16.5625 8.179688-25.359375 11.046876-17.582031 5.722656-36.804687 8.625-57.160156 8.625-32.660157 0-69.6875-7.445313-109.984375-22.125l-16.6875-6.089844c18.726562 27.433594 56.457031 77.339844 105.710937 116.058594 3.667969 3.027343 7.332031 5.894531 11.15625 8.605468 57.226563 41.445313 123.851563 60.570313 189.523438 58.976563 61.210937-55.773438 99.785156-135.789063 100.898437-224.734375zm0 0" fill="#fbc02d"/><path d="m510.070312 199.882812c0 1.4375 0 2.871094-.160156 4.144532-1.113281 88.945312-39.6875 168.960937-100.898437 224.75-3.824219 3.507812-7.808594 7.015625-11.953125 10.363281 0 0-.160156 0-.160156.160156-67.742188 26.617188-145.371094 29.644531-219.171876 2.867188-41.921874-15.300781-80.652343-38.894531-109.984374-59.613281-32.195313-22.796876-53.238282-42.402344-54.832032-43.835938l-7.492187-7.171875 28.214843-77.628906 74.757813 27.257812c72.683594 26.460938 135.007813 31.082031 187.929687 13.867188 58.65625-19.125 105.679688-65.351563 141.703126-138.992188 10.203124-20.882812 28.214843-35.863281 49.890624-42.242187v-4.78125c7.8125 9.246094 13.230469 20.085937 15.78125 31.878906 4.304688 19.128906 6.375 38.414062 6.375 58.976562zm0 0" fill="#fdd835"/><path d="m510.070312 199.882812c0-20.5625-2.070312-39.847656-6.375-58.976562-2.550781-11.792969-7.96875-22.632812-15.78125-31.878906v4.78125c-21.675781 6.378906-39.6875 21.359375-49.890624 42.242187-36.023438 73.640625-83.046876 119.867188-141.703126 138.992188-16.546874 5.390625-34.113281 8.371093-52.523437 9.484375-38.300781 31.257812-92.242187 46.148437-164.097656 46.148437h-53.144531c9.582031 8.09375 23.640624 19.460938 41.1875 31.878907 29.332031 20.71875 68.0625 44.3125 109.984374 59.613281 73.800782 26.777343 151.429688 23.75 219.171876-2.867188 0-.160156.160156-.160156.160156-.160156 4.144531-3.347656 8.128906-6.855469 11.953125-10.363281 61.210937-55.789063 99.785156-135.804688 100.898437-224.75.160156-1.273438.160156-2.707032.160156-4.144532zm0 0" fill="#fbc02d"/><path d="m199.867188 510.070312c-94.171876 0-186.351563-39.210937-190.222657-40.867187l-9.644531-4.160156v-82.488281h79.699219c162.917969 0 250.222656-75.378907 266.878906-230.410157 2.46875-23.015625 14.296875-43.371093 32.421875-56.679687l-35.277344-95.464844h97.953125l33.980469 96.976562c14.332031 11.175782 24.230469 26.605469 28.101562 43.945313 4.257813 19.035156 6.3125 38.320313 6.3125 58.929687 0 171.066407-139.152343 310.21875-310.203124 310.21875zm0 0" fill="#fdd835"/><path d="m430.371094 159.398438h31.882812v31.878906h-31.882812zm0 0" fill="#fff"/><path d="m430.371094 239.097656h31.882812v31.878906h-31.882812zm0 0" fill="#fff"/><path d="m199.867188 478.191406c-94.171876 0-186.351563-39.210937-190.222657-40.867187l-9.644531-4.164063v31.882813l9.628906 4.160156c3.886719 1.65625 96.066406 40.867187 190.238282 40.867187 171.050781 0 310.203124-139.152343 310.203124-310.21875 0-5.386718-.523437-10.503906-.8125-15.730468-8.480468 163.539062-143.792968 294.070312-309.390624 294.070312zm0 0" fill="#fbc02d"/></svg>