<svg height="510.07129pt" viewBox="0 0 510.07129 510.07129" width="510.07129pt" xmlns="http://www.w3.org/2000/svg"><path d="m430.339844 209.496094c-48.089844 44.839844-115.273438 51.230468-149.769532 14.234375-34.492187-36.996094-23.429687-103.5625 24.660157-148.398438 43.867187-40.902343 161.199219-55.902343 174.429687-57.480469l24.863282-2.964843-4.683594 24.613281c-2.472656 13.085938-25.632813 129.078125-69.5 169.996094zm0 0" fill="#9ccc65"/><path d="m482.8125 17.535156-89.324219 80.351563c-8.894531-19.113281-20.308593-36.820313-33.953125-52.570313-21.484375 7.921875-41.1875 17.789063-54.289062 30.015625-48.089844 44.835938-59.136719 111.417969-24.660156 148.398438 34.496093 36.980469 101.679687 30.605469 149.769531-14.234375 14.234375-13.277344 26.253906-34.476563 36.121093-57.496094-14.730468-13.003906-31.128906-24.164062-48.886718-33.011719l80.84375-72.761719c.796875-3.1875 1.117187-5.421874 1.4375-6.695312l4.621094-24.707031zm0 0" fill="#7cb342"/><path d="m382.554688 191.277344c0 105.636718-85.640626 191.277344-191.277344 191.277344-105.640625 0-191.277344-85.640626-191.277344-191.277344 0-105.640625 85.636719-191.277344 191.277344-191.277344 105.636718 0 191.277344 85.636719 191.277344 191.277344zm0 0" fill="#9575cd"/><path d="m119.898438 236.515625c-4.097657 0-8.242188-.957031-12.320313-3.316406-14.457031-8.371094-14.234375-25.902344-14.074219-38.6875.046875-4.128907.140625-10.996094-.65625-13.054688-.90625-.828125-6.644531-4-10.074218-5.898437-11.378907-6.3125-26.984376-14.949219-26.984376-32.101563 0-17.152343 15.605469-25.789062 26.984376-32.101562 3.429687-1.898438 9.167968-5.070313 10.523437-6.664063.332031-1.289062.253906-8.175781.207031-12.289062-.160156-12.785156-.382812-30.300782 14.058594-38.667969 14.183594-8.164063 29.007812.554687 39.816406 6.964844 3.714844 2.199219 9.945313 5.847656 12.242188 6.152343 1.847656-.304687 8.082031-3.953124 11.792968-6.152343 10.855469-6.410157 25.648438-15.160157 39.804688-6.980469 14.457031 8.367188 14.234375 25.898438 14.074219 38.683594-.046875 4.128906-.144531 11 .652343 13.054687.910157.828125 6.648438 4 10.074219 5.898438 11.382813 6.3125 26.984375 14.949219 26.984375 32.101562 0 17.152344-15.601562 25.789063-26.984375 32.101563-3.425781 1.898437-9.164062 5.070312-10.519531 6.664062-.335938 1.292969-.253906 8.175782-.207031 12.289063.160156 12.785156.382812 30.300781-14.058594 38.671875-14.15625 8.207031-28.996094-.558594-39.820313-6.96875-3.710937-2.199219-9.945312-5.847656-12.238281-6.152344-1.851562.304688-8.082031 3.953125-11.796875 6.152344-7.699218 4.558594-17.421875 10.300781-27.480468 10.300781zm0 0" fill="#7e57c2"/><path d="m143.457031 127.519531h31.878907v31.878907h-31.878907zm0 0" fill="#fff"/><path d="m510.070312 318.792969c0 105.640625-85.636718 191.277343-191.277343 191.277343-105.636719 0-191.273438-85.636718-191.273438-191.277343 0-105.636719 85.636719-191.273438 191.273438-191.273438 105.640625 0 191.277343 85.636719 191.277343 191.273438zm0 0" fill="#e4def9"/><path d="m279.296875 379.972656c-4.097656 0-8.242187-.957031-12.324219-3.316406-14.457031-8.367188-14.230468-25.902344-14.074218-38.6875.050781-4.128906.144531-10.996094-.652344-13.054688-.910156-.828124-6.648438-4-10.074219-5.894531-11.378906-6.3125-26.984375-14.953125-26.984375-32.105469 0-17.148437 15.605469-25.789062 26.984375-32.101562 3.425781-1.898438 9.164063-5.070312 10.519531-6.664062.335938-1.289063.257813-8.175782.207032-12.289063-.15625-12.78125-.382813-30.300781 14.058593-38.667969 14.1875-8.164062 29.011719.558594 39.820313 6.964844 3.710937 2.199219 9.945312 5.851562 12.242187 6.152344 1.847657-.300782 8.078125-3.953125 11.792969-6.152344 10.855469-6.40625 25.648438-15.160156 39.800781-6.980469 14.457031 8.367188 14.234375 25.902344 14.074219 38.683594-.046875 4.128906-.140625 11 .65625 13.054687.90625.828126 6.644531 4 10.074219 5.898438 11.378906 6.3125 26.984375 14.953125 26.984375 32.101562 0 17.152344-15.605469 25.792969-26.984375 32.105469-3.429688 1.894531-9.167969 5.066407-10.519531 6.660157-.335938 1.292968-.257813 8.179687-.210938 12.289062.160156 12.785156.382812 30.300781-14.058594 38.671875-14.152344 8.207031-28.992187-.558594-39.816406-6.964844-3.714844-2.203125-9.945312-5.851562-12.242188-6.15625-1.847656.304688-8.082031 3.953125-11.792968 6.15625-7.699219 4.558594-17.421875 10.296875-27.480469 10.296875zm0 0" fill="#7e57c2"/><path d="m302.855469 270.976562h31.878906v31.878907h-31.878906zm0 0" fill="#fff"/><path d="m318.792969 478.191406c-100.101563 0-182.316407-77.308594-190.460938-175.335937-.449219 5.277343-.8125 10.550781-.8125 15.9375 0 105.476562 85.800781 191.277343 191.273438 191.277343 105.476562 0 191.277343-85.800781 191.277343-191.277343 0-5.386719-.367187-10.660157-.8125-15.9375-8.144531 98.027343-90.363281 175.335937-190.464843 175.335937zm0 0" fill="#cdc7ef"/></svg>