<svg height="512pt" viewBox="0 0 512 512" width="512pt" xmlns="http://www.w3.org/2000/svg"><path d="m240 208h32v112h-32zm0 0" fill="#43a047"/><path d="m336 512h-160v-125.488281l-90.976562-124.253907 97.710937-24.433593 46.832031 66.175781h47.714844l52.621094-65.648438 97.824218 23.96875-91.726562 118.511719zm0 0" fill="#66bb6a"/><path d="m427.726562 262.320312-97.824218-23.96875-36.703125 45.792969c6.175781 1.792969 12.578125 3.039063 19.199219 3.566407 17.792968 20.050781 43.457031 32 70.722656 32.257812zm0 0" fill="#43a047"/><path d="m384 288c-23.328125 0-44.398438-12.832031-55.550781-32.574219-2.800781.382813-5.617188.574219-8.449219.574219-35.296875 0-64-28.703125-64-64 0-23.328125 12.832031-44.398438 32.574219-55.550781-.382813-2.800781-.574219-5.617188-.574219-8.449219 0-35.296875 28.703125-64 64-64 11.28125 0 22.289062 3.039062 32 8.71875 9.710938-5.679688 20.71875-8.71875 32-8.71875 35.296875 0 64 28.703125 64 64 0 2.832031-.191406 5.648438-.574219 8.449219 19.742188 11.152343 32.574219 32.222656 32.574219 55.550781 0 35.296875-28.703125 64-64 64-2.832031 0-5.648438-.191406-8.449219-.574219-11.152343 19.742188-32.222656 32.574219-55.550781 32.574219zm0 0" fill="#9ccc65"/><path d="m199.601562 287.695312c5.628907-.449218 11.117188-1.4375 16.445313-2.816406l-33.292969-47.070312-97.714844 24.429687 42.242188 57.714844c.238281.015625.480469.046875.71875.046875 27.601562 0 53.617188-12.015625 71.601562-32.304688zm0 0" fill="#43a047"/><path d="m128 288c-23.328125 0-44.398438-12.832031-55.550781-32.574219-2.800781.382813-5.617188.574219-8.449219.574219-35.296875 0-64-28.703125-64-64 0-23.328125 12.832031-44.398438 32.574219-55.550781-.382813-2.800781-.574219-5.617188-.574219-8.449219 0-35.296875 28.703125-64 64-64 11.28125 0 22.289062 3.039062 32 8.71875 9.710938-5.679688 20.71875-8.71875 32-8.71875 35.296875 0 64 28.703125 64 64 0 2.832031-.191406 5.648438-.574219 8.449219 19.742188 11.152343 32.574219 32.222656 32.574219 55.550781 0 35.296875-28.703125 64-64 64-2.832031 0-5.648438-.191406-8.449219-.574219-11.152343 19.742188-32.222656 32.574219-55.550781 32.574219zm0 0" fill="#9ccc65"/><path d="m223.425781 136.449219c.382813-2.800781.574219-5.617188.574219-8.449219 0-35.296875-28.703125-64-64-64-11.28125 0-22.289062 3.039062-32 8.71875-3.359375-1.964844-6.910156-3.488281-10.527344-4.796875-13.601562 16.796875-21.472656 37.886719-21.472656 60.078125 0 50.367188 39.007812 91.808594 88.398438 95.695312 9.9375 11.199219 22.371093 19.761719 36.113281 25.296876 20.945312-10.527344 35.488281-32 35.488281-56.992188 0-23.328125-12.832031-44.398438-32.574219-55.550781zm0 0" fill="#7cb342"/><path d="m416 128c0-22.191406-7.871094-43.28125-21.472656-60.078125-3.617188 1.308594-7.167969 2.847656-10.527344 4.796875-9.710938-5.679688-20.71875-8.71875-32-8.71875-35.296875 0-64 28.703125-64 64 0 2.832031.191406 5.648438.574219 8.449219-19.742188 11.152343-32.574219 32.222656-32.574219 55.550781 0 24.992188 14.542969 46.464844 35.488281 56.992188 13.742188-5.535157 26.175781-14.097657 36.113281-25.296876 49.40625-3.886718 88.398438-45.328124 88.398438-95.695312zm0 0" fill="#7cb342"/><path d="m256 224c-23.328125 0-44.398438-12.832031-55.550781-32.574219-2.800781.382813-5.617188.574219-8.449219.574219-35.296875 0-64-28.703125-64-64 0-23.328125 12.832031-44.398438 32.574219-55.550781-.382813-2.800781-.574219-5.617188-.574219-8.449219 0-35.296875 28.703125-64 64-64 11.28125 0 22.289062 3.039062 32 8.71875 9.710938-5.679688 20.71875-8.71875 32-8.71875 35.296875 0 64 28.703125 64 64 0 2.832031-.191406 5.648438-.574219 8.449219 19.742188 11.152343 32.574219 32.222656 32.574219 55.550781 0 35.296875-28.703125 64-64 64-2.832031 0-5.648438-.191406-8.449219-.574219-11.152343 19.742188-32.222656 32.574219-55.550781 32.574219zm0 0" fill="#9ccc65"/><g fill="#fff"><path d="m272 64h32v32h-32zm0 0"/><path d="m176 112h32v32h-32zm0 0"/></g></svg>