<svg height="512pt" viewBox="0 -3 512.00206 512" width="512pt" xmlns="http://www.w3.org/2000/svg"><path d="m272 384h-128v-60.128906c0-39.503906-15.390625-76.636719-43.3125-104.574219l-27.3125-27.296875h269.25l-27.3125 27.3125c-27.9375 27.921875-43.3125 65.074219-43.3125 104.578125zm0 0" fill="#43a047"/><path d="m399.601562 223.601562c-10.578124 10.574219-24.640624 16.398438-39.601562 16.398438-15.425781 0-30.097656-6.542969-40.558594-17.632812-5.183594 1.105468-10.304687 1.632812-15.441406 1.632812-17.390625 0-34.207031-5.824219-48-16.285156-13.792969 10.476562-30.609375 16.285156-48 16.300781-17.390625-.015625-34.222656-5.824219-48-16.300781-13.792969 10.476562-30.609375 16.285156-48 16.300781-5.136719 0-10.257812-.542969-15.441406-1.648437-10.558594 11.25-25.117188 17.632812-40.558594 17.632812-14.960938 0-29.023438-5.824219-39.601562-16.398438-10.574219-10.578124-16.398438-24.640624-16.398438-39.601562.015625-22.222656 13.230469-42.015625 32.785156-50.941406 4.78125-34.242188 31.054688-61.472656 64.558594-67.714844 6.914062-37.132812 39.550781-65.34375 78.65625-65.34375 11.054688 0 21.777344 2.320312 32 6.914062 10.222656-4.59375 20.960938-6.914062 32-6.914062 39.105469 0 71.742188 28.210938 78.65625 65.34375 33.617188 6.257812 59.902344 33.601562 64.609375 67.730469 19.519531 8.941406 32.734375 28.703125 32.734375 50.910156 0 14.976563-5.824219 29.039063-16.398438 39.617187zm0 0" fill="#9ccc65"/><path d="m383.265625 133.074219c-.992187-7.234375-3.136719-14.066407-5.9375-20.546875-12.433594 1.042968-24.527344 4.019531-35.824219 9.007812-14.113281-6.222656-29.425781-9.453125-45.152344-9.453125-18.800781 0-37.457031 4.816407-53.902343 13.773438-4.609375-.734375-9.296875-1.117188-14-1.117188-23.570313 0-45.679688 9.132813-62.289063 25.726563-9.664062 9.664062-16.449218 21.28125-20.734375 33.824218-10.433593 4.894532-21.761719 7.710938-33.425781 7.726563-5.136719 0-10.257812-.542969-15.441406-1.648437-10.558594 11.25-25.117188 17.632812-40.558594 17.632812-14.960938 0-29.023438-5.824219-39.601562-16.398438-6.75-6.753906-11.328126-15.023437-13.917969-23.953124-1.601563 5.199218-2.480469 10.6875-2.480469 16.351562 0 14.960938 5.824219 29.023438 16.398438 39.601562 10.578124 10.574219 24.640624 16.398438 39.601562 16.398438 15.441406 0 30-6.382812 40.558594-17.632812 5.183594 1.105468 10.304687 1.632812 15.441406 1.648437 13.632812 0 26.863281-3.695313 38.625-10.285156 3.246094-1.761719 6.398438-3.746094 9.375-6.015625 13.792969 10.476562 30.609375 16.285156 48 16.300781 17.390625 0 34.207031-5.824219 48-16.300781 13.792969 10.476562 30.609375 16.285156 48 16.285156 5.136719 0 10.238281-.542969 15.441406-1.632812 10.460938 11.089843 25.132813 17.632812 40.558594 17.632812 14.960938 0 29.023438-5.824219 39.601562-16.398438 10.574219-10.578124 16.398438-24.640624 16.398438-39.617187 0-22.207031-13.214844-41.96875-32.734375-50.910156zm0 0" fill="#7cb342"/><path d="m160 64h32v32h-32zm0 0" fill="#fff"/><path d="m96 128h32v32h-32zm0 0" fill="#fff"/><path d="m239.664062 506.847656-90.511718-90.511718 42.511718-42.511719c27.9375-27.933594 43.3125-65.070313 43.3125-104.574219v-38.625l190.382813 190.382812h-38.625c-39.488281 0-76.636719 15.378907-104.574219 43.3125zm0 0" fill="#66bb6a"/><path d="m234.992188 230.640625v38.625c0 15.039063-2.257813 29.726563-6.558594 43.695313 9.199218 6.960937 19.40625 12.558593 30.335937 16.398437 5.519531 15.664063 14.460938 30.019531 26.175781 41.730469 11.695313 11.695312 26.046876 20.640625 41.710938 26.144531.351562.992187 1.664062 2 3.375 3.007813-17.664062 7.328124-33.902344 18.144531-47.839844 32.078124l-42.511718 42.511719-74.511719-74.511719-16 16 90.511719 90.511719 42.511718-42.511719c27.9375-27.933593 65.074219-43.3125 104.578125-43.3125h38.621094zm0 0" fill="#43a047"/><path d="m443.3125 483.648438c-14.960938 0-29.023438-5.824219-39.601562-16.398438-10.910157-10.914062-16.65625-25.90625-16.207032-41.152344-4.449218-2.898437-8.433594-6.128906-12.0625-9.761718-12.304687-12.304688-20.082031-28.304688-22.417968-45.453126-17.167969-2.335937-33.167969-10.128906-45.457032-22.417968-12.285156-12.304688-20.078125-28.320313-22.414062-45.472656-17.167969-2.335938-33.167969-10.128907-45.457032-22.414063-3.632812-3.648437-6.863281-7.632813-9.757812-12.082031-15.425781.480468-30.242188-5.3125-41.152344-16.222656-10.578125-10.578126-16.402344-24.640626-16.402344-39.601563 0-14.957031 5.824219-29.023437 16.402344-39.597656 15.726563-15.714844 39.054688-20.351563 59.199219-12.847657 27.601563-20.816406 65.421875-21.523437 93.535156-2.226562 31.136719-21.375 74.175781-18.238281 101.824219 9.410156 7.808594 7.808594 13.761719 17.039063 17.746094 27.519532 10.476562 3.984374 19.695312 9.933593 27.519531 17.742187 27.664063 27.648437 30.78125 70.671875 9.40625 101.824219 19.34375 28.191406 18.609375 66.113281-2.207031 93.570312 7.488281 20.144532 2.847656 43.453125-12.847656 59.167969-10.625 10.589844-24.6875 16.414063-39.648438 16.414063zm0 0" fill="#9ccc65"/><g fill="#fff"><path d="m364.121094 224.015625 22.625-22.628906 22.628906 22.625-22.621094 22.628906zm0 0"/><path d="m350.054688 288.003906 22.628906-22.625 22.625 22.625-22.625 22.628906zm0 0"/><path d="m273.605469 224 22.628906-22.628906 22.628906 22.628906-22.628906 22.628906zm0 0"/></g><path d="m482.929688 435.25c-10.59375 10.574219-24.65625 16.398438-39.617188 16.398438s-29.023438-5.824219-39.601562-16.398438c-10.910157-10.914062-16.65625-25.90625-16.207032-41.152344-4.449218-2.898437-8.433594-6.128906-12.0625-9.761718-12.304687-12.304688-20.082031-28.304688-22.417968-45.453126-17.167969-2.335937-33.167969-10.128906-45.457032-22.417968-12.285156-12.304688-20.078125-28.320313-22.414062-45.472656-17.167969-2.335938-33.167969-10.128907-45.457032-22.414063-3.632812-3.648437-6.863281-7.632813-9.757812-12.082031-15.425781.480468-30.242188-5.3125-41.152344-16.222656-6.671875-6.671876-11.199218-14.800782-13.824218-23.601563-1.535157 5.152344-2.59375 10.464844-2.59375 16 0 14.960937 5.824218 29.023437 16.402343 39.601563 10.910157 10.910156 25.726563 16.6875 41.152344 16.222656 2.894531 4.449218 6.125 8.433594 9.757813 12.082031 12.304687 12.285156 28.304687 20.0625 45.457031 22.414063 2.335937 17.152343 10.128906 33.167968 22.414062 45.472656 12.304688 12.289062 28.304688 20.0625 45.457031 22.417968 2.335938 17.148438 10.128907 33.167969 22.417969 45.453126 3.628907 3.632812 7.628907 6.863281 12.0625 9.761718-.433593 15.246094 5.3125 30.238282 16.207031 41.152344 10.578126 10.574219 24.640626 16.398438 39.601563 16.398438s29.023437-5.824219 39.613281-16.398438c14.785156-14.800781 19.617188-36.335938 13.890625-55.617188-2.5625 8.6875-7.136719 16.863282-13.871093 23.617188zm0 0" fill="#7cb342"/><path d="m240 32h32v32h-32zm0 0" fill="#fff"/><path d="m448 240h32v32h-32zm0 0" fill="#fff"/><path d="m425.375 352.066406h32v32h-32zm0 0" fill="#fff"/></svg>