<svg height="521pt" viewBox="0 0 521.61732 521" width="521pt" xmlns="http://www.w3.org/2000/svg"><path d="m277.109375 325.226562h-16.300781v-228.207031c0-28.363281 17.996094-81.992187 86.066406-81.992187 12.550781 0 21.730469 4.613281 29.113281 8.332031 7.5625 3.796875 12.484375 6.339844 21.355469 5.050781 19.054688-2.738281 54.523438-7.871094 86.894531 24.5 23.132813 23.128906 16.300781 48.984375 12.210938 64.421875-1.207031 4.546875-3.03125 11.410157-2.460938 13.460938 2.003907 4.710937 5.722657 10.027343 9.632813 15.648437 8.429687 12.082032 17.996094 25.773438 17.996094 43.328125 0 17.359375-9.488282 31.003907-17.867188 43.050781-4.007812 5.753907-7.789062 11.179688-9.792969 16.023438-2.136719 5.101562-3.585937 12.226562-5.105469 19.753906-3.113281 15.371094-6.632812 32.816406-18.546874 44.582032-12.457032 12.457031-30.679688 12.160156-45.546876 11.964843-3.84375-.0625-7.742187-.128906-11.425781.050781zm0 0" fill="#43a047"/><path d="m211.90625 520.832031c-27.007812 0-48.347656-7.9375-71.460938-17.554687-3.992187-1.660156-13.824218-.554688-22.476562.410156-22.871094 2.605469-54.21875 6.144531-80.589844-20.246094-27.890625-27.875-15.683594-55.421875-8.398437-71.886718 1.992187-4.5 5.707031-12.878907 4.875-14.867188-12.175781-29.308594.75-63.945312 19.820312-83l4.777344-4.777344h218.65625v181.035156s-11.996094 8.035157-14.378906 9.664063c-14.375 9.960937-30.644531 21.222656-50.824219 21.222656zm0 0" fill="#43a047"/><path d="m309.710938 520.832031c-20.359376 0-36.726563-11.390625-51.152344-21.449219-7.21875-5.039062-14.035156-9.796874-20.308594-12.390624-6.734375-2.800782-15.746094-4.644532-25.300781-6.566407-18.386719-3.734375-39.21875-7.957031-53.007813-21.730469-14.246094-14.261718-13.921875-35.144531-13.660156-53.578124.082031-4.859376.457031-177.691407.457031-177.691407h271.4375c44.417969 0 85.363281 26.828125 100.457031 68.605469 1.875 5.136719 2.984376 9.601562 2.984376 12.894531 0 20.375-11.394532 36.710938-21.453126 51.152344-5.035156 7.222656-9.777343 14.035156-12.386718 20.308594-.945313 3.148437 2.886718 14.347656 5.152344 21.046875 7.433593 21.777344 18.679687 54.671875-8.691407 82.039062-26.390625 26.390625-57.75 22.804688-80.589843 20.246094-8.636719-.996094-18.464844-2.070312-22.445313-.425781-23.144531 9.585937-44.484375 17.539062-71.492187 17.539062zm0 0" fill="#9ccc65"/><path d="m123.980469 374.453125c-2.605469 0-5.460938.035156-8.214844.082031-18.53125.277344-39.363281.605469-53.628906-13.640625-13.773438-13.777343-17.996094-34.625-21.726563-53.011719-1.925781-9.535156-3.75-18.566406-6.554687-25.265624-2.605469-6.292969-7.367188-13.121094-12.402344-20.34375-10.058594-14.441407-21.453125-30.789063-21.453125-51.148438s11.394531-36.710938 21.453125-51.152344c5.035156-7.222656 9.796875-14.035156 12.386719-20.3125.960937-3.113281-2.886719-14.328125-5.152344-21.042968-7.429688-21.777344-18.679688-54.671876 8.691406-82.023438 27.90625-27.890625 55.386719-15.679688 71.882813-8.394531 4.515625 1.988281 12.925781 5.738281 14.851562 4.875 1.777344-.734375 4.074219-3.277344 6.746094-6.226563 9.570313-10.582031 24.027344-26.539062 65.089844-26.539062 12.4375 0 27.824219 12.046875 35.796875 28.003906 6.960937 13.9375 14.277344 42.707031-12.878906 80.964844 5.332031 1.972656 13.335937 4.074218 19.25 5.625 25.917968 6.796875 58.160156 15.238281 66.34375 43.277344 8.230468 28.230468-10.023438 48.722656-23.375 63.667968-13.609376 15.257813-19.28125 22.984375-16.414063 32.847656 2.886719 9.863282 11.816406 13.332032 31.507813 18.890626 19.285156 5.445312 45.707031 12.910156 53.941406 41.144531 8.246094 28.230469-10.011719 48.722656-23.359375 63.683593-13.613281 15.277344-19.285157 23.003907-16.398438 32.878907l5.65625 19.367187zm0 0" fill="#9ccc65"/><path d="m440.113281 260.023438c0 99.03125-80.277343 179.308593-179.304687 179.308593s-179.304688-80.277343-179.304688-179.308593c0-99.027344 80.277344-179.304688 179.304688-179.304688s179.304687 80.277344 179.304687 179.304688zm0 0" fill="#66bb6a"/><path d="m326.824219 378.367188c-7.171875 7.988281-12.0625 13.855468-14.832031 19.070312-1.628907 3.261719-2.609376 22.171875-2.445313 35.046875-10.269531 3.097656-20.863281 5.054687-31.621094 6.03125-.652343-12.875-.980469-29.828125-.816406-32.761719.324219-20.867187 14.507813-36.839844 25.265625-49.066406 13.691406-15.160156 19.398438-22.984375 16.464844-32.765625-2.933594-9.941406-11.902344-13.363281-31.460938-18.90625-19.398437-5.542969-45.804687-12.878906-53.957031-41.242187-8.3125-28.199219 9.945313-48.738282 23.3125-63.570313 13.691406-15.324219 19.234375-22.984375 16.460937-32.929687-3.09375-10.269532-26.40625-16.300782-43.359374-20.863282-15.648438-4.074218-29.664063-7.824218-38.304688-15.648437-3.097656-2.933594-5.542969-6.355469-7.007812-10.59375-1.957032-5.542969-2.609376-14.019531 3.746093-24.125 2.773438-1.304688 5.707031-2.445313 8.640625-3.585938 3.75-1.46875 7.660156-2.773437 11.574219-4.078125 2.445313-.652344 5.050781-1.300781 7.496094-1.953125 2.445312-.652343 4.890625-1.304687 7.335937-1.792969 3.261719-.652343 6.519532-1.304687 9.78125-1.792968-2.933594 8.148437-7.5 16.949218-14.179687 26.40625 5.214843 1.957031 13.363281 4.074218 19.234375 5.703125.160156.164062.324218 0 .324218 0 25.917969 6.683593 57.867188 15.324219 66.015626 43.199219 8.152343 28.199218-10.105469 48.738281-23.472657 63.734374-13.527343 15.160157-19.234375 22.984376-16.296875 32.761719 2.769532 9.945313 11.734375 13.367188 31.457032 18.910157 19.234374 5.542968 45.644531 12.878906 53.957031 41.242187 8.148437 28.199219-10.109375 48.738281-23.3125 63.570313zm0 0" fill="#43a047"/><g fill="#fff"><path d="m146.703125 276.324219h32.601563v32.601562h-32.601563zm0 0"/><path d="m211.90625 341.527344h32.601562v32.601562h-32.601562zm0 0"/><path d="m342.3125 194.824219h32.601562v32.601562h-32.601562zm0 0"/><path d="m423.8125 64.417969h32.601562v32.601562h-32.601562zm0 0"/></g></svg>