<svg height="512pt" viewBox="-139 0 512 512" width="512pt" xmlns="http://www.w3.org/2000/svg"><path d="m73.367188 123.3125-68.6875-68.6875c-6.238282-6.242188-6.238282-16.386719 0-22.625 6.242187-6.238281 16.382812-6.238281 22.625 0l68.6875 68.6875zm0 0" fill="#9ccc65"/><path d="m132.679688 112h-32v-96c0-8.832031 7.167968-16 16-16 8.832031 0 16 7.167969 16 16zm0 0" fill="#9ccc65"/><path d="m159.992188 123.3125-22.625-22.625 68.6875-68.6875c6.242187-6.238281 16.386718-6.238281 22.625 0 6.242187 6.238281 6.242187 16.382812 0 22.625zm0 0" fill="#9ccc65"/><path d="m165.222656 72.832031-27.855468 27.855469 22.625 22.625 34.976562-34.976562c-9.28125-6.351563-19.234375-11.582032-29.746094-15.503907zm0 0" fill="#7cb342"/><path d="m132.679688 64.929688c-5.28125-.59375-10.609376-.929688-16-.929688-5.390626 0-10.71875.335938-16 .929688v47.070312h32zm0 0" fill="#7cb342"/><path d="m73.367188 123.3125 22.625-22.625-27.855469-27.855469c-10.511719 3.921875-20.464844 9.136719-29.761719 15.488281zm0 0" fill="#7cb342"/><path d="m116.679688 512c-26.0625 0-48.863282-18.527344-54.191407-44.046875l-50.625-243.042969c-6.605469-31.695312 1.3125-64.269531 21.730469-89.390625 20.445312-25.121093 50.71875-39.519531 83.085938-39.519531 32.367187 0 62.640624 14.398438 83.074218 39.519531 20.414063 25.121094 28.335938 57.695313 21.726563 89.390625l-50.625 243.027344c-5.3125 25.535156-28.113281 44.0625-54.175781 44.0625zm0 0" fill="#ffa000"/><g fill="#ff8f00"><path d="m116.679688 208c0 8.832031-7.167969 16-16 16h-88.960938c-2.078125-10.71875-2.558594-21.441406-1.4375-32h90.398438c8.832031 0 16 7.167969 16 16zm0 0"/><path d="m215.078125 256-6.71875 32h-75.679687c-8.832032 0-16-7.167969-16-16s7.167968-16 16-16zm0 0"/><path d="m132.679688 336c0 8.832031-7.167969 16-16 16h-78.398438l-6.5625-32h84.960938c8.832031 0 16 7.167969 16 16zm0 0"/><path d="m188.359375 384-6.558594 32h-49.121093c-8.832032 0-16-7.167969-16-16s7.167968-16 16-16zm0 0"/><path d="m116.679688 480c-24.335938 0-46.144532-11.390625-57.617188-28.511719l3.425781 16.464844c5.328125 25.519531 28.128907 44.046875 54.191407 44.046875s48.863281-18.527344 54.191406-44.0625l3.425781-16.449219c-11.472656 17.121094-33.28125 28.511719-57.617187 28.511719zm0 0"/></g><path d="m116.679688 128h32v32h-32zm0 0" fill="#fff"/><path d="m164.679688 192h32v32h-32zm0 0" fill="#fff"/></svg>