<svg height="512pt" viewBox="-13 0 512 512" width="512pt" xmlns="http://www.w3.org/2000/svg"><path d="m239.199219 512c-70.574219 0-128-57.425781-128-128v-384h256v384c0 70.574219-57.421875 128-128 128zm0 0" fill="#66bb6a"/><path d="m303.199219 0v368c0 51.839844-11.839844 74.238281-31.679688 106.398438-1.597656 2.242187-3.039062 4.640624-4.640625 7.203124-4.320312 6.878907-8.957031 14.238282-13.917968 22.558594l-4.480469 7.519532c-3.039063.160156-6.082031.320312-9.28125.320312s-6.238281-.160156-9.277344-.320312l-4.480469-7.519532c-4.960937-8.320312-9.601562-15.679687-13.921875-22.558594-1.597656-2.5625-3.039062-4.960937-4.640625-7.203124-19.839844-32.160157-31.679687-54.558594-31.679687-106.398438v-368h32v368c0 46.558594 9.921875 62.238281 31.359375 96.640625.320312.320313.480468.640625.640625.960937.160156-.320312.320312-.640624.640625-.960937 21.441406-34.402344 31.359375-50.082031 31.359375-96.640625v-368zm0 0" fill="#43a047"/><g fill="#d4e157"><path d="m239.199219 288c-44.109375 0-80-35.886719-80-80v-32h16c5.96875 0 11.921875.703125 17.761719 2.097656 6.976562-31.984375 37.613281-47.664062 39.070312-48.402344l7.152344-3.582031 7.152344 3.582031c1.472656.738282 32.015624 16.382813 39.296874 48.367188 5.757813-1.375 11.632813-2.0625 17.566407-2.0625h16v32c0 44.113281-35.886719 80-80 80zm0 0"/><path d="m79.199219 175.96875c-20.496094 0-40.976563-7.792969-56.574219-23.394531l-22.625-22.636719 11.3125-11.3125c4.207031-4.210938 8.925781-7.921875 14.03125-11.074219-17.679688-27.550781-7.105469-60.304687-6.589844-61.871093l2.527344-7.582032 7.582031-2.53125c1.550781-.542968 34.207031-11.054687 62 6.417969 3.105469-5.039063 6.753907-9.664063 10.960938-13.871094l11.3125-11.3125 22.640625 22.625c31.183594 31.199219 31.183594 81.949219 0 113.148438-15.601563 15.585937-36.097656 23.394531-56.578125 23.394531zm0 0"/><path d="m406.625 412.257812c-20.480469 0-40.976562-7.808593-56.5625-23.394531-15.117188-15.101562-23.4375-35.199219-23.4375-56.558593 0-21.375 8.320312-41.457032 23.4375-56.578126l22.625-22.621093 11.3125 11.292969c4.207031 4.195312 7.855469 8.832031 10.960938 13.859374 27.726562-17.457031 60.429687-6.945312 61.984374-6.417968l7.597657 2.527344 2.527343 7.585937c.515626 1.566406 11.058594 34.238281-6.621093 61.855469 5.117187 3.152344 9.839843 6.878906 14.0625 11.085937l11.3125 11.3125-22.625 22.625c-15.597657 15.617188-36.078125 23.425781-56.574219 23.425781zm0 0"/></g><path d="m303.199219 32h32v32h-32zm0 0" fill="#fff"/><path d="m367.199219 304h32v32h-32zm0 0" fill="#fff"/><path d="m47.199219 64h32v32h-32zm0 0" fill="#fff"/></svg>