<svg height="502pt" viewBox="0 0 502 502.864" width="502pt" xmlns="http://www.w3.org/2000/svg"><path d="m133.878906 502.863281c-34.945312 0-71.136718-14.671875-94.960937-38.496093-41.808594-41.808594-55.40625-121.726563-11.039063-166.09375l298.269532-298.273438 49.105468 49.105469v19.550781c0 15.855469 6.175782 30.75 17.390625 41.984375 11.21875 11.214844 26.128907 17.390625 41.984375 17.390625h19.554688l49.101562 49.105469-298.269531 298.269531c-19.089844 19.105469-44.753906 27.457031-71.136719 27.457031zm0 0" fill="#9ccc65"/><path d="m145.207031 446.929688-7.648437-.867188c-20.816406-2.335938-40.175782-11.503906-54.496094-25.839844-14.335938-14.335937-23.503906-33.679687-25.839844-54.496094l-.863281-7.648437 316.367187-311.519531 3.246094 28.640625c1.539063 13.648437 7.457032 26.226562 16.671875 35.441406 9.21875 9.230469 21.792969 15.152344 35.441407 16.671875l28.625 3.710938zm0 0" fill="#66bb6a"/><path d="m334.484375 120.800781h32v32h-32zm0 0" fill="#fff"/><path d="m133.878906 502.863281c-34.945312 0-71.136718-14.671875-94.960937-38.496093-41.808594-41.808594-55.40625-121.726563-11.039063-166.09375l11.3125-11.3125 49.117188 49.101562v19.554688c0 15.855468 6.175781 30.765624 17.378906 41.984374 11.199219 11.214844 26.109375 17.375 41.984375 17.375h19.550781l49.101563 49.121094-11.308594 11.308594c-19.089844 19.105469-44.753906 27.457031-71.136719 27.457031zm0 0" fill="#43a047"/><path d="m30.484375 344.800781h32v32h-32zm0 0" fill="#fff"/></svg>