<svg height="513pt" viewBox="0 -67 513.6 513" width="513pt" xmlns="http://www.w3.org/2000/svg"><path d="m432.191406 45.179688c-6-6.976563-12.960937-13.085938-20.65625-18.175782l17.648438-26.703125c10.160156 6.71875 19.3125 14.785157 27.25 23.984375zm0 0" fill="#7cb342"/><path d="m256 378.890625c-111.535156 0-218.273438-43.679687-253.777344-103.871094l-2.222656-3.757812v-59.953125l21.921875 8.71875c.78125.304687 78.8125 30.863281 186.078125 30.863281 84.144531 0 120.398438-77.664063 121.921875-80.976563l1.007813-1.902343c17.664062-28.253907 48.09375-45.121094 81.40625-45.121094h3.664062c52.945312 0 96 43.058594 96 96 0 89.714844-112.449219 160-256 160zm0 0" fill="#ef4b03"/><path d="m482.496094 294.203125c20.015625-23.824219 30.894531-51.296875 29.359375-80.847656-2.6875-51.28125-47.246094-90.464844-98.589844-90.464844h-.914063c-33.3125 0-63.742187 16.867187-81.40625 45.121094l-1.007812 1.902343c-.65625 1.441407-7.890625 16.898438-22.722656 33.921876v93.328124l32.707031-8.609374c14.191406-3.742188 28.078125 6.960937 28.078125 21.648437 0 9.96875-6.527344 18.769531-16.128906 21.503906-20.941406 5.96875-59.167969 15.167969-95.871094 15.167969-111.535156 0-218.273438-43.679688-253.777344-103.871094l-2.222656-3.742187v32l2.222656 3.757812c35.519532 60.191407 142.257813 103.871094 253.777344 103.871094 93.695312 0 173.855469-30.0625 218.433594-75.804687l.0625-.019532c.113281-.109375.191406-.222656.304687-.335937 1.023438-1.054688 2.269531-2 3.261719-3.070313 1.96875-2.128906 3.328125-3.886718 4.433594-5.457031zm0 0" fill="#dd4503"/><path d="m483.953125 145.722656c3.933594-12.6875 6.125-25.773437 6.125-39.039062 0-19.152344-4.285156-38.464844-12.367187-55.855469l-29.007813 13.503906c6.128906 13.183594 9.375 27.824219 9.375 42.351563 0 6.816406-.941406 13.550781-2.316406 20.207031-11.714844-5.085937-24.609375-7.949219-38.160157-7.949219h-3.664062c-25.570312 0-50.5625 10.574219-68.578125 29.023438l-4.558594 4.671875v99.070312l60.800781-16v47.183594l102.015626-22.671875 3.023437-8.160156c4.605469-12.398438 6.960937-24.894532 6.960937-37.117188 0-27.203125-11.410156-51.730468-29.648437-69.21875zm0 0" fill="#9ccc65"/><g fill="#fff"><path d="m384 170.890625h32v32h-32zm0 0"/><path d="m118.128906 271.402344h32v32h-32zm0 0"/></g></svg>