<svg height="521pt" viewBox="-17 0 521 521.72501" width="521pt" xmlns="http://www.w3.org/2000/svg"><path d="m487.425781 81.175781c-20.796875 0-31.546875-13.425781-38.65625-22.324219-6.480469-8.101562-8.71875-10.144531-13.296875-10.144531-4.675781 0-6.949218 2.042969-13.492187 10.195313-7.113281 8.878906-17.875 22.273437-38.625 22.273437-20.78125 0-31.527344-13.425781-38.640625-22.324219-6.492188-8.101562-8.734375-10.144531-13.3125-10.144531-4.433594 0-6.65625 2.011719-13.070313 10.03125-5.925781 7.386719-13.296875 16.578125-26.285156 20.457031l-9.269531-31.105468c3.050781-.925782 5.894531-4.269532 10.226562-9.660156 7.0625-8.847657 17.78125-22.195313 38.398438-22.195313 20.796875 0 31.546875 13.445313 38.65625 22.324219 6.476562 8.101562 8.71875 10.148437 13.296875 10.148437s6.820312-2.03125 13.296875-10.132812c7.144531-8.894531 17.941406-22.339844 38.820312-22.339844 20.796875 0 31.542969 13.425781 38.65625 22.324219 6.476563 8.101562 8.71875 10.148437 13.296875 10.148437zm0 0" fill="#9ccc65"/><path d="m211.421875 0h32.472656v48.707031h-32.472656zm0 0" fill="#9ccc65"/><path d="m278.070312 521.726562c-5.960937 0-11.949218-.441406-17.925781-1.316406-8.847656-1.300781-17.417969-5.714844-24.15625-12.4375-4.464843-4.464844-12.195312-4.449218-16.625-.015625-6.753906 6.738281-15.328125 11.152344-24.144531 12.453125-38.542969 5.617188-76.855469-6.933594-110.789062-36.269531-50.28125-43.496094-84.066407-118.257813-84.066407-186.058594 0-107.285156 119.734375-265.609375 227.296875-265.609375 107.558594 0 227.292969 158.324219 227.292969 265.609375 0 67.800781-33.785156 142.546875-84.050781 186.042969-28.65625 24.789062-60.425782 37.601562-92.832032 37.601562zm0 0" fill="#9ccc65"/><g fill="#7cb342"><path d="m370.902344 451.652344c-28.65625 24.777344-60.445313 37.585937-92.832032 37.585937-5.960937 0-11.949218-.4375-17.925781-1.316406-8.847656-1.296875-17.417969-5.714844-24.15625-12.433594-4.464843-4.464843-12.195312-4.449219-16.625-.019531-6.753906 6.738281-15.328125 11.15625-24.144531 12.453125-38.542969 5.617187-76.855469-6.929687-110.789062-36.269531-46.367188-40.117188-78.335938-106.761719-83.078126-170.082032-.617187 5.617188-.988281 11.136719-.988281 16.511719 0 67.800781 33.785157 142.546875 84.050781 186.042969 33.929688 29.351562 72.261719 41.886719 110.789063 36.269531 8.816406-1.300781 17.390625-5.714843 24.144531-12.453125 4.429688-4.433594 12.160156-4.449218 16.625.015625 6.734375 6.722657 15.308594 11.136719 24.15625 12.4375 5.992188.875 11.964844 1.3125 17.925782 1.3125 32.402343 0 64.175781-12.808593 92.832031-37.582031 50.28125-43.480469 84.066406-118.242188 84.066406-186.042969 0-5.375-.371094-10.910156-.957031-16.511719-4.757813 63.320313-36.722656 129.980469-83.09375 170.082032zm0 0"/><path d="m335.265625 221.726562-40.34375-67.246093 27.84375-16.707031 40.359375 67.261718c4.597656 7.679688 2.113281 17.648438-5.582031 22.261719-7.679688 4.609375-17.664063 2.125-22.277344-5.570313zm0 0"/><path d="m227.660156 259.765625c-8.964844 0-16.238281-7.273437-16.238281-16.234375v-97.414062h32.472656v97.414062c0 8.960938-7.273437 16.234375-16.234375 16.234375zm0 0"/><path d="m97.773438 227.296875c-7.679688-4.613281-10.179688-14.582031-5.566407-22.277344l40.359375-67.261719 27.84375 16.707032-40.34375 67.246094c-4.628906 7.710937-14.613281 10.195312-22.292968 5.585937zm0 0"/></g><path d="m409.738281 162.355469h-364.160156l19.726563-26.042969c49.257812-65.023438 109.960937-103.839844 162.355468-103.839844 52.390625 0 113.09375 38.816406 162.351563 103.839844zm0 0" fill="#d6efb6"/><path d="m162.714844 81.175781h32.472656v32.472657h-32.472656zm0 0" fill="#fff"/><path d="m49.070312 259.765625h32.46875v32.472656h-32.46875zm0 0" fill="#fff"/><path d="m49.070312 340.945312h32.46875v32.46875h-32.46875zm0 0" fill="#fff"/></svg>