<svg height="521pt" viewBox="-1 0 521 521.72501" width="521pt" xmlns="http://www.w3.org/2000/svg"><path d="m201.714844 521.726562c-38.769532 0-76.339844-15.066406-109.71875-44.226562-55.65625-48.640625-91.632813-131.230469-91.632813-210.394531 0-147.953125 142.109375-267.105469 259.765625-267.105469 117.660156 0 259.765625 119.152344 259.765625 267.105469 0 79.164062-35.976562 161.753906-91.648437 210.394531-39.191406 34.222656-84.195313 49.03125-130.125 42.84375-9.515625-1.28125-18.835938-5.761719-26.203125-12.613281-6.398438-5.925781-17.195313-5.910157-23.59375.015625-7.367188 6.835937-16.671875 11.316406-26.21875 12.597656-6.820313.910156-13.621094 1.382812-20.390625 1.382812zm0 0" fill="#b9e57a"/><path d="m201.714844 489.253906c-31.125 0-60.867188-12.175781-88.355469-36.1875-48.914063-42.78125-80.527344-115.757812-80.527344-185.960937 0-126.359375 124.980469-234.632813 227.296875-234.632813s227.296875 108.273438 227.296875 234.632813c0 70.203125-31.609375 143.179687-80.527343 185.945312-27.488282 24.011719-57.246094 36.1875-88.417969 36.1875-5.292969 0-10.683594-.359375-16.007813-1.089843-2.84375-.371094-6.007812-1.960938-8.445312-4.21875-9.121094-8.460938-21.152344-13.136719-33.867188-13.136719-12.742187 0-24.773437 4.660156-33.898437 13.136719-2.433594 2.257812-5.601563 3.832031-8.457031 4.21875-5.375.730468-10.78125 1.105468-16.089844 1.105468zm0 0" fill="#d6efb6"/><path d="m260.128906 456.214844c-88.449218 0-178.589844-90.140625-178.589844-178.589844 0-89.617188 89.992188-214.308594 178.589844-214.308594s178.589844 124.691406 178.589844 214.308594c0 88.449219-90.140625 178.589844-178.589844 178.589844zm0 0" fill="#dbc9a5"/><g fill="#fff"><path d="m260.128906 423.746094c-71.011718 0-146.117187-75.105469-146.117187-146.121094 0-73.449219 76.972656-181.835938 146.117187-181.835938 69.148438 0 146.117188 108.386719 146.117188 181.820313 0 71.03125-75.101563 146.136719-146.117188 146.136719zm0 0"/><path d="m438.71875 156.949219h32.472656v32.46875h-32.472656zm0 0"/><path d="m471.191406 251.648438h32.46875v32.472656h-32.46875zm0 0"/><path d="m32.832031 203.074219h32.472657v32.46875h-32.472657zm0 0"/></g><path d="m260.128906 209.4375c51.710938 0 107.769532 60.621094 132.773438 121.894531 8.425781-17.289062 13.34375-35.636719 13.34375-53.707031 0-73.449219-76.96875-181.835938-146.117188-181.835938-69.144531 0-146.117187 108.386719-146.117187 181.835938 0 18.085938 4.917969 36.417969 13.34375 53.722656 25.003906-61.289062 81.0625-121.910156 132.773437-121.910156zm0 0" fill="#f4f0e9"/></svg>