<svg height="512pt" viewBox="0 0 512 512" width="512pt" xmlns="http://www.w3.org/2000/svg"><path d="m400 224h-240v-224h240c61.742188 0 112 50.238281 112 112s-50.257812 112-112 112zm0 0" fill="#66bb6a"/><path d="m510.71875 96c-7.808594 54.191406-54.414062 96-110.71875 96h-120.558594c15.421875-22.910156 24.558594-50.367188 24.558594-80 0-45.214844-20.992188-85.585938-53.695312-112h-90.304688v224h240c61.742188 0 112-50.238281 112-112 0-5.441406-.527344-10.753906-1.28125-16zm0 0" fill="#43a047"/><path d="m352 64h32v32h-32zm0 0" fill="#fff"/><g fill="#43a047"><path d="m510.71875 128c-1.4375 11.359375-4.796875 22.078125-9.597656 32h-117.121094v-32zm0 0"/><path d="m240 128h112v32h-112zm0 0"/><path d="m256 64h64v32h-64zm0 0"/><path d="m510.71875 96h-94.71875v-32h85.121094c4.800781 9.921875 8.160156 20.640625 9.597656 32zm0 0"/></g><path d="m272 112c0 61.855469-50.144531 112-112 112s-112-50.144531-112-112 50.144531-112 112-112 112 50.144531 112 112zm0 0" fill="#d6efb6"/><path d="m260.960938 160.160156c-4.480469 9.761719-10.402344 18.558594-17.761719 26.558594l-83.199219-55.519531-83.199219 55.519531c-7.359375-8-13.28125-16.796875-17.761719-26.558594l84.960938-56.800781v-102.078125c5.28125-.960938 10.558594-1.28125 16-1.28125s10.71875.320312 16 1.28125v102.078125zm0 0" fill="#b9e57a"/><path d="m224 288c0 61.855469-50.144531 112-112 112s-112-50.144531-112-112 50.144531-112 112-112 112 50.144531 112 112zm0 0" fill="#b9e57a"/><path d="m320 400c0 61.855469-50.144531 112-112 112s-112-50.144531-112-112 50.144531-112 112-112 112 50.144531 112 112zm0 0" fill="#d6efb6"/><path d="m308.960938 448.160156c-4.480469 9.761719-10.402344 18.558594-17.761719 26.558594l-83.199219-55.519531-83.199219 55.519531c-7.359375-8-13.28125-16.796875-17.761719-26.558594l84.960938-56.800781v-102.078125c5.28125-.960938 10.558594-1.28125 16-1.28125s10.71875.320312 16 1.28125v102.078125zm0 0" fill="#b9e57a"/></svg>