<svg height="512pt" viewBox="-32 0 512 512" width="512pt" xmlns="http://www.w3.org/2000/svg"><path d="m274.175781 512h-100.335937c-95.855469 0-173.839844-77.984375-173.839844-173.824219 0-56.671875 27.710938-109.902343 74.144531-142.398437 53.757813-37.632813 85.855469-99.28125 85.855469-164.898438v-30.878906h128v30.878906c0 65.632813 32.097656 127.265625 85.855469 164.898438 46.433593 32.496094 74.144531 85.726562 74.144531 142.398437 0 95.839844-77.984375 173.824219-173.824219 173.824219zm0 0" fill="#9575cd"/><path d="m173.824219 480c-78.191407 0-141.824219-63.632812-141.824219-141.824219 0-46.238281 22.625-89.664062 60.496094-116.191406 62-43.390625 99.136718-114.335937 99.503906-189.984375h64c.367188 75.648438 37.503906 146.59375 99.503906 189.984375 37.871094 26.511719 60.496094 69.953125 60.496094 116.191406 0 78.191407-63.632812 141.824219-141.824219 141.824219zm0 0" fill="#f7e1d2"/><path d="m274.175781 448h-100.335937c-60.574219 0-109.839844-49.265625-109.839844-109.824219 0-35.808593 17.503906-69.441406 46.847656-89.96875 45.617188-31.933593 79.535156-76.605469 98.0625-129.183593l15.089844-42.816407 15.089844 42.816407c18.542968 52.578124 52.445312 97.25 98.078125 129.183593 29.328125 20.527344 46.832031 54.144531 46.832031 89.96875 0 60.558594-49.265625 109.824219-109.824219 109.824219zm0 0" fill="#ef4b03"/><g fill="#dd4503"><path d="m208 272c-6.273438 6.273438-16.449219 6.273438-22.71875 0l-46.402344-46.398438c8-7.203124 15.359375-15.042968 22.242188-23.203124l46.878906 46.882812c6.273438 6.269531 6.273438 16.445312 0 22.71875zm0 0"/><path d="m302.558594 219.359375-40.160156 50.160156c-5.488282 6.847657-15.488282 7.984375-22.351563 2.511719-6.910156-5.488281-8.046875-15.550781-2.511719-22.445312l43.601563-54.402344c6.382812 8.496094 13.582031 16.496094 21.421875 24.175781zm0 0"/><path d="m382.398438 320h-94.460938c-8.800781 0-15.9375-7.136719-15.9375-15.9375v-.109375c0-8.816406 7.136719-15.953125 15.9375-15.953125h83.742188c5.28125 10.078125 8.960937 20.800781 10.71875 32zm0 0"/><path d="m176 303.9375v.109375c0 8.816406-7.136719 15.953125-15.9375 15.953125h-94.460938c1.757813-11.199219 5.4375-21.921875 10.71875-32h83.742188c8.800781 0 15.9375 7.136719 15.9375 15.9375zm0 0"/><path d="m359.519531 407.199219c-6.878906 8.480469-15.039062 16-24.160156 22.242187l-58.925781-39.34375c-7.3125-4.882812-9.296875-14.753906-4.449219-22.066406 4.863281-7.34375 14.769531-9.34375 22.113281-4.464844zm0 0"/><path d="m176.078125 390.640625-47.4375 47.4375c-10.082031-4.316406-19.359375-10.398437-27.519531-17.917969l52.238281-52.238281c6.226563-6.226563 16.320313-6.226563 22.542969 0l.175781.175781c6.242187 6.222656 6.242187 16.300782 0 22.542969zm0 0"/></g><path d="m208 368h32v32h-32zm0 0" fill="#fff"/><path d="m208 304h32v32h-32zm0 0" fill="#fff"/></svg>