<svg height="512pt" viewBox="0 -1 512 512" width="512pt" xmlns="http://www.w3.org/2000/svg"><path d="m160 158.789062c-38.609375 0-123.9375-49.214843-137.441406-59.074218l-17.679688-12.925782 17.679688-12.914062c13.503906-9.871094 98.832031-59.085938 137.441406-59.085938 44.113281 0 80 32.304688 80 72 0 39.695313-35.886719 72-80 72zm0 0" fill="#7cb342"/><path d="m248 414.789062h-80c-92.640625 0-168-75.359374-168-168 0-92.640624 75.359375-168 168-168h80c92.640625 0 168 75.359376 168 168 0 92.640626-75.359375 168-168 168zm0 0" fill="#ef4b03"/><path d="m270.496094 80.515625c.015625-.015625-46.398438 33.21875-69.921875 78.273437-6.558594 12.558594-7.871094 27.457032-8.460938 42.238282l-1.074219 4.863281c-3.933593 17.648437-12.878906 35.554687-27.375 54.707031-22.992187 30.382813-35.664062 68.078125-35.664062 106.191406 0 3.839844.511719 7.550782.785156 11.328126-68.722656-16.511719-121.136718-75.359376-127.96875-147.328126-.511718 5.28125-.816406 10.609376-.816406 16 0 80.960938 57.585938 148.671876 133.921875 164.464844 0 .015625 0 .03125.015625.046875.140625.03125.300781.046875.445312.0625.289063.066407.5625.144531.832032.210938 0 0 .015625-.066407.015625-.082031 10.609375 2.113281 21.539062 3.28125 32.753906 3.28125h80c92.640625 0 168-75.359376 168-168 .015625-84.976563-63.488281-155.199219-145.488281-166.257813zm0 0" fill="#dd4503"/><path d="m224 142.789062h-32v-25.601562c0-59.117188 43.535156-108.238281 100.207031-117.007812 9.585938-1.472657 18.191407 6.257812 18.191407 15.953124v.015626c0 7.902343-5.804688 14.464843-13.613282 15.710937-41.199218 6.5625-72.785156 42.335937-72.785156 85.34375zm0 0" fill="#9ccc65"/><path d="m259.199219 158.789062h-86.398438c-8.832031 0-16-7.167968-16-16 0-8.832031 7.167969-16 16-16h86.398438zm0 0" fill="#dd4503"/><path d="m352 110.789062h-32v-64c0-8.832031 7.167969-16 16-16s16 7.167969 16 16zm0 0" fill="#9b7a5a"/><path d="m368 510.789062h-64c-79.390625 0-144-64.59375-144-144 0-31.167968 10.351562-62.03125 29.167969-86.898437 17.328125-22.910156 28.160156-44.847656 33.105469-67.054687l1.742187-7.855469c.976563-60.929688 50.832031-110.191407 111.984375-110.191407s111.007812 49.261719 111.984375 110.191407l1.742187 7.855469c4.945313 22.222656 15.777344 44.160156 33.105469 67.054687 18.816407 24.867187 29.167969 55.730469 29.167969 86.898437 0 79.40625-64.609375 144-144 144zm0 0" fill="#f7eab7"/><path d="m368 478.789062h-64c-73.886719 0-134.894531-55.96875-143.007812-127.730468-.59375 5.21875-.992188 10.464844-.992188 15.730468 0 79.40625 64.609375 144 144 144h64c79.390625 0 144-64.59375 144-144 0-5.265624-.398438-10.511718-.992188-15.730468-8.113281 71.761718-69.121093 127.730468-143.007812 127.730468zm0 0" fill="#f4db8e"/><g fill="#fff"><path d="m368 158.789062h32v32h-32zm0 0"/><path d="m384 254.789062h32v32h-32zm0 0"/><path d="m432 334.789062h32v32h-32zm0 0"/></g></svg>