<svg height="512pt" viewBox="0 0 512 512" width="512pt" xmlns="http://www.w3.org/2000/svg"><path d="m464 448h-96v-32h96c8.832031 0 16-7.167969 16-16v-192c0-8.832031-7.167969-16-16-16h-96v-32h96c26.464844 0 48 21.535156 48 48v192c0 26.464844-21.535156 48-48 48zm0 0" fill="#37474f"/><path d="m304 512h-224c-44.113281 0-80-35.886719-80-80v-278.625l48-48v-105.375h288v105.375l48 48v278.625c0 44.113281-35.886719 80-80 80zm0 0" fill="#d6efb6"/><path d="m48 48h288v48h-288zm0 0" fill="#b9e57a"/><path d="m48 0h288v64h-288zm0 0" fill="#37474f"/><path d="m144 448c-44.113281 0-80-35.886719-80-80v-16h160v16c0 44.113281-35.886719 80-80 80zm0 0" fill="#66bb6a"/><path d="m237.265625 294.574219c-20.496094 0-40.992187-7.789063-56.578125-23.390625l-11.3125-11.3125 113.136719-113.117188 11.3125 11.308594c31.183593 31.183594 31.183593 81.9375 0 113.121094-15.585938 15.601562-36.082031 23.390625-56.558594 23.390625zm0 0" fill="#9ccc65"/><g fill="#fff"><path d="m96 128h32v32h-32zm0 0"/><path d="m128 192h32v32h-32zm0 0"/><path d="m192 128h32v32h-32zm0 0"/><path d="m64 224h32v32h-32zm0 0"/><path d="m96 288h32v32h-32zm0 0"/><path d="m288 320h32v32h-32zm0 0"/><path d="m256 384h32v32h-32zm0 0"/></g><path d="m304 480h-224c-44.113281 0-80-35.886719-80-80v32c0 44.113281 35.886719 80 80 80h224c44.113281 0 80-35.886719 80-80v-32c0 44.113281-35.886719 80-80 80zm0 0" fill="#b9e57a"/></svg>