<svg height="521.61732pt" viewBox="0 0 521.61732 521.61732" width="521.61732pt" xmlns="http://www.w3.org/2000/svg"><path d="m342.3125 521.617188h-163.007812c-98.863282 0-179.304688-80.441407-179.304688-179.304688 0-48.984375 19.382812-94.738281 54.574219-128.808594 56.644531-54.851562 94.234375-124.09375 108.707031-200.25l2.527344-13.253906h189.871094l3.144531 15.84375c15.09375 76.5 52.046875 144.375 106.832031 196.339844 36.089844 34.214844 55.960938 80.425781 55.960938 130.128906 0 98.863281-80.441407 179.304688-179.304688 179.304688zm0 0" fill="#e4def9"/><g fill="#cdc7ef"><path d="m277.109375 122.253906h32.601563v81.503906h-32.601563zm0 0"/><path d="m277.109375 57.050781h32.601563v32.601563h-32.601563zm0 0"/><path d="m211.90625 0h32.601562v97.804688h-32.601562zm0 0"/><path d="m211.90625 130.40625h32.601562v32.597656h-32.601562zm0 0"/><path d="m520.800781 325.914062c-7.121093 78.941407-65.574219 143.199219-141.648437 159.171876 27.449218-31.117188 44.660156-76.054688 44.660156-110.171876 0-59.382812-22.882812-111.140624-69.976562-158.230468-12.242188 12.242187-13.773438 31.851562-3 45.414062 27.433593 34.507813 40.378906 70.953125 40.378906 112.816406 0 42.917969-39.480469 114.101563-81.503906 114.101563h-32.601563v-260.808594h-32.601563v260.808594h-32.601562c-42.023438 0-81.5-71.183594-81.5-114.101563 0-41.863281 12.941406-78.308593 40.375-112.816406 10.773438-13.546875 9.242188-33.171875-3-45.414062-47.09375 47.089844-69.976562 98.847656-69.976562 158.230468 0 34.117188 17.210937 79.054688 44.660156 110.191407-76.089844-15.976563-134.574219-80.296875-141.648438-159.273438-.492187 5.445313-.816406 10.9375-.816406 16.480469 0 98.863281 80.441406 179.304688 179.304688 179.304688h163.007812c98.863281 0 179.304688-80.441407 179.304688-179.304688 0-5.527344-.34375-10.972656-.816407-16.398438zm0 0"/></g><path d="m342.3125 163.003906h32.601562v32.601563h-32.601562zm0 0" fill="#fff"/><path d="m447.695312 301.378906h32.601563v32.601563h-32.601563zm0 0" fill="#fff"/><path d="m48.902344 250.292969h32.601562v32.601562h-32.601562zm0 0" fill="#fff"/></svg>