<svg height="510pt" viewBox="-96 0 510 510.07129" width="510pt" xmlns="http://www.w3.org/2000/svg"><path d="m116.984375 87.492188-27.910156-49.859376c-4.304688-7.683593-1.5625-17.390624 6.121093-21.691406 7.683594-4.304687 17.390626-1.5625 21.695313 6.121094l27.910156 49.839844zm0 0" fill="#9ccc65"/><path d="m174.894531 79.699219h-31.878906v-63.757813c0-8.800781 7.140625-15.941406 15.9375-15.941406 8.800781 0 15.941406 7.140625 15.941406 15.941406zm0 0" fill="#9ccc65"/><path d="m200.925781 87.492188-27.816406-15.589844 27.910156-49.839844c4.304688-7.683594 14.011719-10.425781 21.695313-6.121094 7.683594 4.300782 10.421875 14.007813 6.121094 21.691406zm0 0" fill="#9ccc65"/><g fill="#d8b880"><path d="m.0351562 235.222656 17.4218748-69.738281 52.953125-35.289063 17.675782 26.523438-42.6875 28.46875-6.707032 26.859375c-4.257812 17.070313-21.570312 27.449219-38.6562498 23.175781zm0 0"/><path d="m.179688 410.050781 33.664062-117.8125 61.433594-35.097656 15.808594 27.671875-50.160157 28.65625-21.34375 74.695312c-4.828125 16.929688-22.476562 26.730469-39.402343 21.886719zm0 0"/><path d="m247.339844 435.1875-6.710938-26.859375-42.6875-28.46875 17.679688-26.523437 52.949218 35.289062 17.441407 69.738281c-17.089844 4.289063-34.398438-6.089843-38.671875-23.175781zm0 0"/><path d="m279.21875 323.609375-22.027344-88.101563-39.515625-13.164062 10.089844-30.238281 56.125 18.714843 34 135.996094c-17.089844 4.257813-34.398437-6.121094-38.671875-23.207031zm0 0"/></g><path d="m204.957031 510.070312h-92.003906l-45.554687-376.972656c-1.4375-18.332031 4.683593-35.914062 16.71875-48.886718 12.019531-13.007813 29.074218-20.453126 46.785156-20.453126h56.121094c17.710937 0 34.765624 7.445313 46.785156 20.453126 12.035156 12.972656 18.15625 30.554687 16.785156 48.199218zm0 0" fill="#dbc9a5"/><path d="m158.953125 364.574219c0 7.683593-6.230469 13.898437-13.898437 13.898437h-47.46875l-3.984376-27.796875h51.453126c7.683593 0 13.898437 6.230469 13.898437 13.898438zm0 0" fill="#d8b880"/><path d="m231.957031 286.914062-3.824219 31.878907h-69.179687c-8.796875 0-15.9375-7.140625-15.9375-15.9375 0-8.800781 7.140625-15.941407 15.9375-15.941407zm0 0" fill="#d8b880"/><path d="m158.953125 239.097656c0 8.796875-7.140625 15.9375-15.9375 15.9375h-60.890625l-3.824219-31.878906h64.714844c8.8125 0 15.9375 7.140625 15.9375 15.941406zm0 0" fill="#d8b880"/><path d="m247.421875 159.398438-3.988281 31.878906h-68.539063c-8.796875 0-15.941406-7.140625-15.941406-15.941406 0-8.796876 7.144531-15.9375 15.941406-15.9375zm0 0" fill="#d8b880"/><path d="m174.894531 95.636719h31.878907v31.882812h-31.878907zm0 0" fill="#fff"/><path d="m95.195312 127.519531h31.878907v31.878907h-31.878907zm0 0" fill="#fff"/></svg>