<svg height="497pt" viewBox="0 0 497.44 497" width="497pt" xmlns="http://www.w3.org/2000/svg"><path d="m309.007812 167.882812 7.632813-73.742187 93.902344-93.921875 86.898437 86.882812-50.351562 50.367188zm0 0" fill="#66bb6a"/><path d="m273.136719 265.738281 31.953125-127.566406 143.359375-33.984375 44.796875 104.527344zm0 0" fill="#43a047"/><path d="m95.761719 315.003906 103.855469-103.855468 45.246093-192.0625 118.066407 19.4375-54.480469 217.921874zm0 0" fill="#9ccc65"/><path d="m87.535156 497.179688-86.960937-86.960938 141.074219-141.085938 201.519531-53.617187 42.863281 99.808594-163.582031 46.734375zm0 0" fill="#66bb6a"/><path d="m87.265625 497.484375-87.265625-87.265625 87.214844-87.214844 87.183594 87.183594zm0 0" fill="#d6efb6"/><g fill="#fff"><path d="m263.199219 67.5h32v32h-32zm0 0"/><path d="m64.574219 387.496094 22.625-22.628906 22.628906 22.628906-22.628906 22.628906zm0 0"/></g></svg>