<svg height="509pt" viewBox="0 0 509 509.99401" width="509pt" xmlns="http://www.w3.org/2000/svg"><path d="m75.222656 509.992188c-19.144531 0-38.289062-7.28125-52.859375-21.867188-28.847656-28.851562-29.152343-75.601562-.90625-104.820312-39.515625-91.890626-11.558593-210.308594 70.230469-292.109376 81.785156-81.804687 200.203125-109.746093 292.109375-70.25 29.234375-28.226562 76-27.925781 104.820313.910157 28.851562 28.851562 29.152343 75.601562.910156 104.820312 39.511718 91.890625 11.570312 210.308594-70.230469 292.109375-81.804687 81.820313-200.203125 109.777344-292.113281 70.25-14.457032 13.976563-33.203125 20.957032-51.960938 20.957032zm0 0" fill="#fdd835"/><path d="m142.757812 146.757812-22.234374-22.535156c37.949218-38.480468 87.253906-62.199218 135.246093-65.066406l1.851563 31.8125c-40.410156 2.441406-82.265625 22.761719-114.863282 55.789062zm168.992188-46.574218c-8.175781-3.667969-17.007812-6.3125-26.253906-7.84375l5.070312-31.464844c11.890625 1.960938 23.320313 5.371094 33.921875 10.15625zm0 0" fill="#fff"/><path d="m96.101562 350.628906h31.878907v31.878906h-31.878907zm0 0" fill="#fbc02d"/><path d="m191.742188 254.992188h31.878906v31.878906h-31.878906zm0 0" fill="#fff"/><path d="m287.378906 223.109375h31.878906v31.882813h-31.878906zm0 0" fill="#fbc02d"/><path d="m383.015625 191.230469h31.878906v31.878906h-31.878906zm0 0" fill="#fbc02d"/><path d="m351.136719 286.871094h31.878906v31.878906h-31.878906zm0 0" fill="#fff"/><g fill="#fbc02d"><path d="m96.101562 223.109375h31.878907v31.882813h-31.878907zm0 0"/><path d="m255.5 350.628906h31.878906v31.878906h-31.878906zm0 0"/><path d="m191.742188 382.507812h31.878906v31.878907h-31.878906zm0 0"/><path d="m419.296875 386.921875c-81.804687 81.820313-200.203125 109.777344-292.113281 70.246094-14.457032 13.964843-33.203125 20.945312-51.960938 20.945312-19.144531 0-38.289062-7.28125-52.859375-21.867187-10.453125-10.457032-17.054687-23.304688-20.003906-36.773438-5.164063 24.003906 1.386719 50.050782 20.003906 68.652344 14.570313 14.585938 33.714844 21.867188 52.859375 21.867188 18.757813 0 37.503906-6.980469 51.960938-20.941407 91.925781 39.527344 210.308594 11.570313 292.113281-70.246093 61.621094-61.625 92.65625-144.015626 87.332031-220.210938-3.984375 66.695312-34.222656 135.21875-87.332031 188.328125zm0 0"/><path d="m231.03125 156.738281h31.878906v31.878907h-31.878906zm0 0"/></g></svg>