<svg height="510pt" viewBox="-1 0 510 510.07129" width="510pt" xmlns="http://www.w3.org/2000/svg"><path d="m299.113281 510.070312h-104.421875l-98.492187-415.339843c-1.976563-9.515625-3.285157-21.757813 4.175781-31.960938 10.011719-13.5625 27.398438-14.011719 42.734375-14.410156 5.929687-.15625 15.84375-.414063 18.394531-2.023437 1.878906-1.53125 4.8125-9.308594 6.566406-13.960938 4.878907-12.898438 12.210938-32.375 32.835938-32.375 15.398438 0 27.59375 5.675781 37.394531 10.234375 6.582031 3.058594 12.273438 5.707031 16.800781 5.707031 4.527344 0 10.21875-2.648437 16.800782-5.707031 9.785156-4.558594 21.980468-10.234375 37.394531-10.234375 20.625 0 27.957031 19.476562 32.820313 32.359375 1.753906 4.652344 4.6875 12.429687 6.695312 14.058594 2.515625 1.625 12.464844 1.863281 18.394531 2.007812 14.535157.351563 32.613281.8125 42.574219 14.296875 7.507812 10.25 6.199219 22.476563 4.222656 32.007813zm0 0" fill="#7cb342"/><path d="m506.628906 342.386719c-12.273437 48.296875-54.511718 81.929687-103.289062 83.839843l-9.722656 29.332032c-10.679688 32.039062-40.167969 53.714844-73.960938 54.351562-.636719.160156-73.480469.160156-73.480469.160156l37.617188-112.851562c-44.632813-23.910156-67.902344-75.394531-55.152344-125.765625 5.261719-20.082031 22.476563-33.953125 42.082031-35.863281l8.609375-33.472656c7.332031-28.691407 33.152344-47.980469 61.527344-47.980469l8.445313-32.835938c4.144531-16.578125 14.507812-30.445312 29.171874-39.050781 14.664063-8.769531 31.878907-11.160156 48.296876-7.015625 16.578124 4.304687 30.445312 14.664063 39.210937 29.332031 8.609375 14.664063 11 31.71875 6.855469 48.296875l-8.449219 32.835938c10.042969 5.417969 18.332031 13.386719 24.226563 23.269531 8.609374 14.664062 11.160156 31.878906 6.855468 48.296875l-8.449218 33.632813c16.261718 11 24.867187 31.402343 19.605468 51.488281zm0 0" fill="#9ccc65"/><path d="m202.5 84.113281h31.878906v31.878907h-31.878906zm0 0" fill="#fff"/><path d="m271.042969 48.695312h31.878906v31.878907h-31.878906zm0 0" fill="#fff"/><path d="m224.496094 397.21875 37.621094 112.851562h-71.890626c-34.269531 0-64.714843-21.835937-75.554687-54.511718l-9.722656-29.332032c-48.773438-1.910156-91.015625-35.542968-103.449219-83.839843-5.101562-20.085938 3.507812-40.488281 19.765625-51.488281l-8.605469-33.632813c-4.144531-16.417969-1.59375-33.632813 7.011719-48.296875 5.898437-9.882812 14.1875-17.851562 24.070313-23.269531l-8.289063-32.835938c-4.304687-16.578125-1.753906-33.632812 6.851563-48.296875 8.769531-14.667968 22.636718-25.027344 39.054687-29.332031 16.578125-4.144531 33.632813-1.753906 48.296875 7.015625 14.664062 8.605469 25.023438 22.472656 29.328125 39.050781l8.289063 32.835938c28.375 0 54.355468 19.289062 61.6875 47.980469l8.605468 33.472656c19.609375 1.910156 36.824219 15.78125 41.921875 35.863281 2.390625 9.40625 3.507813 18.648437 3.507813 27.894531 0 40.648438-22.15625 78.425782-58.5 97.871094zm0 0" fill="#d6efb6"/><path d="m398.558594 105.472656h31.878906v31.878906h-31.878906zm0 0" fill="#fff"/><path d="m85.871094 111.578125h31.878906v31.878906h-31.878906zm0 0" fill="#fff"/><path d="m430.4375 318.792969v31.882812h-58.339844l-52.441406 159.234375c-.636719.160156-1.113281.160156-1.75.160156h-32.199219l72.84375-224.75-35.066406-34.90625 22.632813-22.636718 22.792968 22.796875 14.347656-47.980469 30.605469 9.246094-32.199219 106.953125zm0 0" fill="#7cb342"/><path d="m234.378906 510.070312h-34.429687l-61.84375-159.394531h-58.339844v-31.882812h48.773437l-32.195312-106.953125 30.601562-9.246094 14.347657 47.980469 22.792969-22.796875 22.632812 22.636718-35.066406 34.90625zm0 0" fill="#b9e57a"/></svg>