<svg height="512pt" viewBox="0 0 512 512" width="512pt" xmlns="http://www.w3.org/2000/svg"><path d="m344 160c-57.34375 0-104-35.886719-104-80s46.65625-80 104-80c52.320312 0 136.078125 60.222656 145.457031 67.089844l17.613281 12.910156-17.628906 12.910156c-9.363281 6.867188-93.121094 67.089844-145.441406 67.089844zm0 0" fill="#66bb6a"/><path d="m151.136719 44.609375c-14.402344-11.746094-23.136719-19.554687-23.136719-28.609375h-16l-13.3125-8.878906c-13.582031 20.382812-54.925781 82.382812 5.039062 125.839844l18.785157-25.921876c-13.777344-9.984374-26.367188-23.40625-11.871094-56.175781 6.128906 6.878907 13.359375 12.914063 20.269531 18.542969 16.675782 13.617188 26.851563 22.640625 25.777344 36.226562l31.90625 2.496094c2.414062-30.960937-19.683594-49.023437-37.457031-63.519531zm0 0" fill="#66bb6a"/><path d="m32 0h192v32h-192zm0 0" fill="#43a047"/><path d="m452.414062 480h-100.414062c-141.152344 0-256-114.847656-256-256 0-88.222656 71.777344-160 160-160s160 71.777344 160 160c0 56.257812 24.785156 109.152344 67.984375 145.152344l6.589844 5.503906c13.617187 11.34375 21.425781 28.03125 21.425781 45.757812 0 32.867188-26.71875 59.585938-59.585938 59.585938zm0 0" fill="#fdd835"/><path d="m509.550781 404.398438c-7.039062 25.074218-29.839843 43.601562-57.136719 43.601562h-4.671874c-1.230469-25.585938-12.894532-49.441406-32.671876-65.921875l-6.605468-5.503906c-35.890625-29.902344-56.464844-73.855469-56.464844-120.574219 0-88.574219-60.351562-163.105469-142.03125-185.183594-65.839844 19.839844-113.96875 80.976563-113.96875 153.183594 0 141.152344 114.847656 256 256 256h100.414062c32.867188 0 59.585938-26.71875 59.585938-59.585938 0-5.503906-1.007812-10.828124-2.449219-16.015624zm0 0" fill="#fbc02d"/><path d="m356.414062 512h-100.414062c-141.152344 0-256-114.847656-256-256 0-88.222656 71.777344-160 160-160s160 71.777344 160 160c0 56.257812 24.785156 109.152344 67.984375 145.152344l6.589844 5.503906c13.617187 11.34375 21.425781 28.03125 21.425781 45.757812 0 32.867188-26.71875 59.585938-59.585938 59.585938zm0 0" fill="#d4e157"/><path d="m120.367188 391.777344c-8.238282-8.242188-15.742188-17.234375-22.335938-26.738282l26.320312-18.222656c5.503907 7.9375 11.761719 15.457032 18.640626 22.335938zm-39.472657-57.074219c-4.78125-10.542969-8.605469-21.664063-11.390625-33.007813l31.089844-7.597656c2.300781 9.421875 5.484375 18.636719 9.453125 27.40625zm-16.558593-67.421875c-.222657-3.730469-.335938-7.503906-.335938-11.28125 0-52.945312 43.054688-96 96-96v32c-35.296875 0-64 28.703125-64 64 0 3.152344.078125 6.273438.273438 9.375zm0 0" fill="#fff"/><path d="m356.414062 480h-100.414062c-135.761719 0-246.863281-106.304688-255.183594-240-.527344 5.265625-.816406 10.609375-.816406 16 0 141.152344 114.847656 256 256 256h100.414062c32.867188 0 59.585938-26.71875 59.585938-59.585938 0-5.519531-1.007812-10.828124-2.449219-16.015624-7.039062 25.074218-29.839843 43.601562-57.136719 43.601562zm0 0" fill="#c0ca33"/></svg>