<svg height="512pt" viewBox="0 0 512 512" width="512pt" xmlns="http://www.w3.org/2000/svg"><path d="m208 0h32v80h-32zm0 0" fill="#66bb6a"/><path d="m448 288c0 123.710938-100.289062 224-224 224s-224-100.289062-224-224 100.289062-224 224-224 224 100.289062 224 224zm0 0" fill="#9575cd"/><path d="m448 288c0-40.015625-10.832031-77.441406-29.328125-109.96875v-.414062c-1.183594-2.082032-2.496094-4.066407-3.742187-6.113282-.175782-.289062-.335938-.59375-.515626-.878906-.015624 0-.03125 0-.046874-.015625-39.488282-63.839844-109.933594-106.609375-190.367188-106.609375-83.375 0-156.113281 45.871094-194.671875 113.617188v14.382812h96c17.230469 0 33.488281-4.03125 48.097656-11.007812 13.390625 10.113281 29.871094 16.335937 47.902344 16.335937h5.34375c4.703125 0 9.28125-.464844 13.742187-1.265625-48.589843 34.867188-80.414062 91.699219-80.414062 155.9375 0 48.863281 18.433594 93.441406 48.59375 127.375-111.007812-7.597656-199.890625-96.429688-207.777344-207.375-.382812 5.3125-.816406 10.59375-.816406 16 0 123.519531 100.480469 224 224 224 7.550781 0 15.023438-.367188 22.398438-1.105469 0 0-.140626-.160156-.160157-.175781 113.089844-11.230469 201.761719-106.71875 201.761719-222.71875zm0 0" fill="#7e57c2"/><path d="m125.328125 160h-64v-16c0-44.113281 35.886719-80 80-80h64v16c0 44.113281-35.886719 80-80 80zm0 0" fill="#263238"/><path d="m386.671875 160h-64c-44.113281 0-80-35.886719-80-80v-16h64c44.113281 0 80 35.886719 80 80zm0 0" fill="#263238"/><path d="m512 352c0 88.367188-71.632812 160-160 160s-160-71.632812-160-160 71.632812-160 160-160 160 71.632812 160 160zm0 0" fill="#37474f"/><path d="m385.9375 465.9375c-12.050781 0-23.699219-2.65625-34.289062-7.664062-10.402344 4.6875-21.886719 7.199218-33.617188 7.199218-21.359375 0-41.984375-8.367187-56.574219-22.976562-15.089843-15.089844-23.410156-35.183594-23.410156-56.558594 0-11.921875 2.59375-23.457031 7.519531-33.9375-4.925781-10.480469-7.519531-22.015625-7.519531-33.9375 0-21.375 8.335937-41.46875 23.441406-56.574219 14.558594-14.578125 35.167969-22.960937 56.542969-22.960937 11.839844 0 23.457031 2.578125 33.953125 7.359375 10.480469-4.796875 22.113281-7.375 33.96875-7.375 21.34375 0 41.949219 8.367187 56.542969 22.976562 15.089844 15.105469 23.425781 35.199219 23.425781 56.574219 0 11.921875-2.59375 23.457031-7.523437 33.9375 4.929687 10.480469 7.523437 22.015625 7.523437 33.9375 0 21.375-8.335937 41.46875-23.441406 56.574219-15.074219 15.121093-35.167969 23.425781-56.542969 23.425781zm0 0" fill="#263238"/><path d="m385.9375 433.9375c-12.816406 0-24.882812-5.007812-33.9375-14.066406-18.144531 18.128906-49.777344 18.128906-67.886719 0-9.042969-9.039063-14.050781-21.101563-14.050781-33.933594 0-12.816406 5.007812-24.882812 14.066406-33.9375-9.058594-9.054688-14.066406-21.121094-14.066406-33.9375 0-12.832031 5.007812-24.894531 14.066406-33.949219 18.078125-18.097656 49.726563-18.113281 67.871094.015625 18.144531-18.128906 49.761719-18.144531 67.871094-.015625v.015625h.015625c9.058593 9.054688 14.050781 21.101563 14.050781 33.933594 0 12.816406-5.007812 24.882812-14.066406 33.9375 9.058594 9.054688 14.066406 21.121094 14.066406 33.9375 0 12.832031-5.007812 24.894531-14.066406 33.949219-9.039063 9.058593-21.101563 14.050781-33.933594 14.050781zm0 0" fill="#f7eab7"/><path d="m226.671875 165.328125h-5.34375c-26.464844 0-48-21.535156-48-48v-53.328125h101.34375v53.328125c0 26.464844-21.535156 48-48 48zm0 0" fill="#37474f"/><g fill="#fff"><path d="m48 240h32v32h-32zm0 0"/><path d="m320 96h32v32h-32zm0 0"/><path d="m368 304h32v32h-32zm0 0"/></g></svg>