<svg height="512pt" viewBox="0 0 512 512" width="512pt" xmlns="http://www.w3.org/2000/svg"><path d="m272 448h-32c-114.6875 0-208-93.3125-208-208v-32c0-114.6875 93.3125-208 208-208h32c114.6875 0 208 93.3125 208 208v32c0 114.6875-93.3125 208-208 208zm0 0" fill="#f7eab7"/><path d="m32 208v32c0 114.6875 93.3125 208 208 208h32c114.6875 0 208-93.3125 208-208v-32c0-16.542969-2.144531-32.558594-5.808594-48h-436.382812c-3.664063 15.441406-5.808594 31.457031-5.808594 48zm0 0" fill="#f4db8e"/><path d="m320 208.464844c-1.375-47.535156-9.246094-92.191406-22.191406-125.761719-12.066406-31.261719-28.066406-50.703125-41.761719-50.703125-27.808594 0-60.910156 72.464844-63.886719 176.449219l-32-.914063c2.976563-103.136718 36.863282-207.535156 95.886719-207.535156 28.480469 0 53.921875 25.28125 71.632813 71.199219 14.207031 36.878906 22.847656 85.28125 24.335937 136.335937zm0 0" fill="#f4db8e"/><path d="m256 512c-141.152344 0-256-114.847656-256-256v-64h512v64c0 141.152344-114.847656 256-256 256zm0 0" fill="#9575cd"/><g fill="#fff"><path d="m335.632812 412.015625c-3.695312-7.199219-1.519531-16.175781 5.328126-20.496094 20.320312-12.832031 37.742187-30.253906 50.574218-50.574219 4.320313-6.847656 13.296875-9.007812 20.496094-5.328124 8.449219 4.335937 11.265625 15.007812 6.175781 23.023437-15.199219 23.855469-35.679687 44.351563-59.550781 59.550781-8.015625 5.089844-18.703125 2.273438-23.023438-6.175781zm0 0"/><path d="m416 224h32v32h-32zm0 0"/><path d="m336 224h32v32h-32zm0 0"/><path d="m57.023438 224h32v32h-32zm0 0"/></g><path d="m256 480c-141.152344 0-256-114.847656-256-256v32c0 141.152344 114.847656 256 256 256s256-114.847656 256-256v-32c0 141.152344-114.847656 256-256 256zm0 0" fill="#7e57c2"/></svg>