<svg height="512pt" viewBox="0 0 512 512" width="512pt" xmlns="http://www.w3.org/2000/svg"><path d="m240 80h-32c0-44.113281 35.886719-80 80-80h32v32h-32c-26.464844 0-48 21.535156-48 48zm0 0" fill="#37474f"/><path d="m448 288c0 123.710938-100.289062 224-224 224s-224-100.289062-224-224 100.289062-224 224-224 224 100.289062 224 224zm0 0" fill="#dbc9a5"/><g fill="#d8b880"><path d="m5.121094 336h58.878906v-32h-63.359375c.640625 10.878906 2.238281 21.601562 4.480469 32zm0 0"/><path d="m377.601562 125.121094c-7.839843-7.519532-16.160156-14.242188-24.960937-20.480469l-44 44 22.71875 22.71875zm0 0"/><path d="m256 66.238281c-10.398438-1.4375-21.121094-2.238281-32-2.238281v64h32zm0 0"/><path d="m68.6875 260.679688 48.003906-48.003907 22.628906 22.628907-48.003906 48.003906zm0 0"/><path d="m419.679688 179.039062c-5.28125-9.597656-11.359376-18.71875-18.078126-27.359374l-22.882812 22.878906-39.679688 39.679687-29.757812-22.238281h-37.28125v-32h-32v32h-24l-81.921875-109.121094c-9.917969 4.320313-19.519531 9.441406-28.636719 15.042969l94.558594 126.078125h78.113281l-20.417969 40.847656 28.625 14.320313 23.421876-46.847657.019531.015626 48.636719 36.480468 19.203124-25.601562-12.640624-9.4375zm0 0"/></g><path d="m64 155.359375h32v32h-32zm0 0" fill="#fff"/><path d="m304 512c-55.664062 0-107.921875-21.617188-147.152344-60.847656-39.230468-39.230469-60.847656-91.488282-60.847656-147.152344v-16h160v16c0 12.71875 5.007812 24.816406 14.113281 34.046875 9.070313 8.945313 21.167969 13.953125 33.886719 13.953125 26.464844 0 48-21.535156 48-48v-16h160v16c0 114.6875-93.3125 208-208 208zm0 0" fill="#f7eab7"/><path d="m304 432c-8.863281 0-17.742188-.832031-26.449219-2.433594l5.875-31.46875c9.199219 1.710938 18.734375 2.253906 27.933594 1.664063l2 31.933593c-3.101563.191407-6.222656.304688-9.359375.304688zm44.671875-7.054688-9.902344-30.433593c8.863281-2.878907 17.34375-6.878907 25.214844-11.871094l17.152344 27.007813c-10.144531 6.429687-21.058594 11.566406-32.464844 15.296874zm-105.328125-6.304687c-10.847656-5.039063-21.070312-11.457031-30.398438-19.007813l20.191407-24.847656c7.261719 5.902344 15.246093 10.910156 23.710937 14.832032zm165.472656-31.871094-23.28125-21.96875c6.402344-6.785156 11.9375-14.351562 16.480469-22.527343l27.96875 15.535156c-5.824219 10.496094-12.960937 20.238281-21.167969 28.960937zm-220.671875-13.203125c-7.105469-9.664062-13.007812-20.175781-17.535156-31.261718l29.628906-12.097657c3.539063 8.640625 8.144531 16.863281 13.683594 24.386719zm0 0" fill="#fff"/><path d="m304 480c-55.664062 0-107.921875-21.617188-147.152344-60.847656-35.441406-35.441406-56.335937-81.550782-60.0625-131.152344h-.785156v16c0 55.664062 21.617188 107.921875 60.847656 147.152344 39.230469 39.230468 91.488282 60.847656 147.152344 60.847656 114.6875 0 208-93.3125 208-208v-16h-.816406c-8.222656 107.214844-97.902344 192-207.183594 192zm0 0" fill="#d8b880"/></svg>