<svg height="502pt" viewBox="0 0 502.488 502" width="502pt" xmlns="http://www.w3.org/2000/svg"><path d="m214.832031 502.722656c-73.695312 0-147.40625-28.046875-203.519531-84.160156l-11.3125-11.308594 135.792969-135.859375 11.3125 11.410157c17.949219 18.09375 41.984375 28.0625 67.664062 28.0625 25.679688 0 49.710938-9.96875 67.679688-28.0625 18.125-18.066407 28.09375-42.066407 28.109375-67.632813.035156-25.648437-9.933594-49.742187-28.0625-67.871094l-11.296875-11.3125 135.808593-135.746093 11.3125 11.3125c112.222657 112.226562 112.222657 294.800781 0 407.007812-56.097656 56.113281-129.808593 84.160156-203.488281 84.160156zm0 0" fill="#f7eab7"/><g fill="#fff"><path d="m126.625 350.867188h32v32h-32zm0 0"/><path d="m190.625 382.867188h32v32h-32zm0 0"/><path d="m254.625 350.867188h32v32h-32zm0 0"/><path d="m350.625 126.867188h32v32h-32zm0 0"/><path d="m382.625 190.867188h32v32h-32zm0 0"/><path d="m366.625 254.867188h32v32h-32zm0 0"/><path d="m334.625 318.867188h32v32h-32zm0 0"/></g><path d="m418.335938 386.578125c-56.113282 56.113281-129.808594 84.160156-203.503907 84.160156-71.632812 0-143.121093-26.71875-198.59375-79.710937l-16.238281 16.226562 11.3125 11.308594c56.113281 56.113281 129.808594 84.160156 203.519531 84.160156 73.679688 0 147.390625-28.046875 203.503907-84.160156 60.175781-60.175781 87.761718-140.558594 83.40625-219.503906-3.789063 68.273437-31.375 135.472656-83.40625 187.519531zm0 0" fill="#dbc9a5"/></svg>