<svg height="519pt" viewBox="-11 0 519 519.92206" width="519pt" xmlns="http://www.w3.org/2000/svg"><path d="m142.097656 354.171875 18.085938-27.125 97.804687 65.199219-18.082031 27.128906zm0 0" fill="#43a047"/><path d="m239.898438 392.289062 97.808593-65.199218 18.082031 27.125-97.808593 65.203125zm0 0" fill="#43a047"/><path d="m232.628906 210.210938h32.601563v309.710937h-32.601563zm0 0" fill="#66bb6a"/><g fill="#d4e157"><path d="m248.929688 229.332031-124.226563-75.976562 28.820313-28.003907-13.871094-59.316406 50.808594 15.761719 18.710937-81.796875 42.726563 67.566406 32.992187-32.453125 18.582031 44.449219 73.320313-40.230469-31.527344 86.949219 27.890625 27.074219zm0 0"/><path d="m333.203125 359.019531-20.523437-126.28125 31.933593.457031 26.929688-43.390624 20.132812 38.222656 58.597657-36.789063-14.390626 63.945313 36.265626.292968-17.050782 41.566407 42.285156 38.519531zm0 0"/><path d="m164.640625 359.019531-164.179687-23.457031 42.300781-38.519531-17.066407-41.566407 36.269532-.292968-14.394532-63.945313 58.601563 36.789063 20.128906-38.222656 26.945313 43.390624 31.917968-.457031zm0 0"/></g><path d="m232.628906 112.410156h32.601563v32.597656h-32.601563zm0 0" fill="#fff"/><path d="m346.734375 259.113281h32.601563v32.601563h-32.601563zm0 0" fill="#fff"/></svg>