<svg height="512pt" viewBox="0 -3 512 512" width="512pt" xmlns="http://www.w3.org/2000/svg"><path d="m160 382.09375c0 35.34375-28.652344 64-64 64s-64-28.65625-64-64c0-35.347656 28.652344-64 64-64s64 28.652344 64 64zm0 0" fill="#d6efb6"/><path d="m204.015625 261.964844c-49.824219 0-98.175781-15.058594-137.105469-42.914063-16.285156-11.648437-33.039062-25.503906-49.820312-41.167969l-8.417969-7.871093 16.609375-36.351563 14.558594 6.671875c84.609375 38.703125 144.65625-9.824219 208.257812-61.183593 69.183594-55.855469 147.582032-119.167969 256.796875-46.367188l7.105469 4.75v44.992188l-2.289062 3.808593c-62.894532 104.816407-173.359376 170.398438-295.503907 175.425781-3.390625.140626-6.78125.207032-10.191406.207032zm0 0" fill="#7cb342"/><path d="m352 158.09375c0 35.34375-28.652344 64-64 64s-64-28.65625-64-64c0-35.347656 28.652344-64 64-64s64 28.652344 64 64zm0 0" fill="#d6efb6"/><path d="m256 286.09375c0 35.34375-28.652344 64-64 64s-64-28.65625-64-64c0-35.347656 28.652344-64 64-64s64 28.652344 64 64zm0 0" fill="#d6efb6"/><g fill="#b9e57a"><path d="m229.246094 183.371094c9.824218 22.738281 32.433594 38.722656 58.753906 38.722656 35.296875 0 64-28.707031 64-64 0-31.425781-22.800781-57.488281-52.703125-62.867188-29.664063 25.664063-51.824219 56.449219-70.050781 88.144532zm0 0"/><path d="m192 350.09375c35.296875 0 64-28.707031 64-64 0-29.90625-20.703125-54.882812-48.464844-61.875-4.238281 8.546875-8.382812 17.042969-12.382812 25.328125-15.664063 32.464844-29.441406 60.863281-45.726563 83.96875 11.328125 10.191406 26.160157 16.578125 42.574219 16.578125zm0 0"/><path d="m33.96875 397.453125c1.871094 7.582031 5.054688 14.863281 9.679688 21.453125 9.824218 13.984375 24.511718 23.3125 41.359374 26.242188 3.695313.640624 7.390626.960937 11.007813.960937 30.511719 0 57.632813-21.96875 63.023437-53.023437 2.945313-16.832032-.863281-33.808594-10.6875-47.792969-1.230468-1.761719-2.75-3.199219-4.128906-4.816407-25.132812 32.734376-56.925781 53.296876-110.253906 56.976563zm0 0"/></g><path d="m169.425781 506.75c-44.386719 0-96.609375-8.867188-158.480469-29.488281l-10.945312-3.648438v-43.539062h16c127.550781 0 164.816406-77.230469 207.96875-166.652344 45.550781-94.371094 97.167969-201.328125 272.03125-201.328125h16v46.8125c0 27.683594-11.902344 53.921875-32.65625 71.984375-16.671875 14.511719-29.664062 48.898437-44.71875 88.707031-37.234375 98.476563-89.695312 237.132813-265.199219 237.152344zm0 0" fill="#9ccc65"/><path d="m432 94.09375h32v32h-32zm0 0" fill="#fff"/><path d="m384 174.09375h32v32h-32zm0 0" fill="#fff"/></svg>