<svg height="510pt" viewBox="0 0 510 510.12373" width="510pt" xmlns="http://www.w3.org/2000/svg"><path d="m408.898438 196.695312c-51.101563 41.378907-118.558594 43.054688-150.390626 3.761719-31.832031-39.289062-16.144531-104.945312 34.941407-146.324219 46.605469-37.746093 164.703125-44.519531 178.015625-45.175781l25.007812-1.210937-6.390625 24.214844c-3.378906 12.894531-34.574219 126.988281-81.183593 164.734374zm0 0" fill="#9ccc65"/><path d="m271.039062 127.519531h-31.882812c0-52.746093-42.890625-95.640625-95.636719-95.640625h-15.941406v-31.878906h15.941406c70.308594 0 127.519531 57.207031 127.519531 127.519531zm0 0" fill="#9b7a5a"/><path d="m329.742188 510.117188c-25.46875 0-50.847657-6.230469-74.644532-18.664063-48.152344 25.167969-102.8125 24.929687-151.394531-.957031-60.269531-32.101563-98.84375-96.289063-103.210937-171.6875-.285157-5.035156-.429688-10.136719-.429688-15.253906 0-5.132813.144531-10.230469.429688-15.269532 4.351562-75.394531 42.941406-139.597656 103.210937-171.6875 48.582031-25.902344 103.257813-26.09375 151.394531-.953125 48.152344-25.171875 102.8125-24.929687 151.394532.953125 60.269531 32.105469 98.84375 96.292969 103.210937 171.6875.285156 5.039063.429687 10.136719.429687 15.269532 0 5.117187-.144531 10.21875-.429687 15.253906-4.351563 75.398437-42.941406 139.601562-103.210937 171.6875-24.5625 13.105468-50.703126 19.621094-76.75 19.621094zm0 0" fill="#ffa000"/><path d="m329.742188 510.117188c-25.46875 0-50.847657-6.230469-74.644532-18.664063-48.152344 25.167969-102.8125 24.929687-151.394531-.957031-60.269531-32.101563-98.84375-96.289063-103.210937-171.6875-.285157-5.035156-.429688-10.136719-.429688-15.269532 0-5.117187.144531-10.214843.429688-15.253906 5.992187-103.527344 76.78125-183.671875 168.308593-190.542968l6.261719-.460938 4.910156 3.902344c27.480469 22.015625 43.246094 54.800781 43.246094 90.011718v63.839844h63.757812v-63.839844c0-35.210937 15.765626-68.011718 43.261719-90.011718l4.910157-3.902344 6.261718.460938c91.542969 6.886718 162.316406 87.03125 168.308594 190.542968.269531 5.039063.414062 10.136719.414062 15.253906 0 5.132813-.144531 10.234376-.429687 15.269532-4.351563 75.398437-42.941406 139.601562-103.210937 171.6875-24.5625 13.105468-50.703126 19.621094-76.75 19.621094zm0 0" fill="#fdd835"/><path d="m509.703125 288.285156c-.015625-.222656-.0625-.445312-.078125-.667968-4.5625 75.105468-43.039062 139.007812-103.132812 171.015624-.238282.128907-.492188.257813-.75.398438-45.492188 24.132812-94.105469-28.546875-65.828126-71.566406 15.222657-23.179688 26.761719-49.636719 26.761719-76.640625 0-79.363281-74.917969-136.078125-83.445312-142.292969l-28.132813-20.433594-28.117187 20.433594c-8.542969 6.214844-83.460938 62.929688-83.460938 142.292969 0 26.96875 11.507813 53.398437 26.714844 76.558593 27.863281 42.449219-19.476563 95.589844-64.585937 72.269532-.65625-.332032-1.292969-.667969-1.945313-1.019532-60.078125-32.007812-98.574219-95.910156-103.132813-171.015624-.015624.222656-.0625.445312-.078124.667968-.285157 5.039063-.429688 10.136719-.429688 15.269532 0 5.117187.144531 10.21875.429688 15.253906 4.351562 75.398437 42.941406 139.601562 103.210937 171.6875 48.582031 25.886718 103.257813 26.125 151.394531.957031 23.796875 12.433594 49.175782 18.664063 74.644532 18.664063 26.046874 0 52.1875-6.515626 76.75-19.605469 60.269531-32.101563 98.84375-96.289063 103.210937-171.683594.285156-5.054687.429687-10.15625.429687-15.273437 0-5.132813-.144531-10.230469-.429687-15.269532zm0 0" fill="#fbc02d"/><path d="m223.21875 191.195312v63.839844h63.757812v-63.839844c0-6.277343.667969-12.429687 1.65625-18.519531-2.5-1.992187-4.429687-3.445312-5.402343-4.144531l-28.132813-20.433594-28.117187 20.433594c-.972657.714844-2.917969 2.167969-5.421875 4.160156.988281 6.074219 1.660156 12.226563 1.660156 18.503906zm0 0" fill="#ff8f00"/><path d="m255.097656 434.132812-9.371094-6.820312c-2.886718-2.074219-70.328124-51.882812-70.328124-116.488281 0-64.601563 67.441406-114.414063 70.328124-116.503907l9.371094-6.804687 9.371094 6.820313c2.886719 2.074218 70.328125 51.886718 70.328125 116.488281 0 64.605469-67.441406 114.414062-70.328125 116.503906zm0 0" fill="#9b7a5a"/><g fill="#fff"><path d="m382.617188 175.335938h31.878906v31.878906h-31.878906zm0 0"/><path d="m430.433594 239.097656h31.878906v31.878906h-31.878906zm0 0"/><path d="m79.761719 191.277344h31.878906v31.878906h-31.878906zm0 0"/></g><path d="m264.46875 363.570312-9.371094 6.804688-9.371094-6.820312c-2.375-1.722657-48.890624-36.183594-64.890624-84.625-3.332032 10.105468-5.4375 20.753906-5.4375 31.894531 0 64.605469 67.441406 114.414062 70.328124 116.503906l9.371094 6.804687 9.371094-6.820312c2.886719-2.074219 70.328125-51.882812 70.328125-116.488281 0-11.140625-2.105469-21.789063-5.4375-31.878907-16.003906 48.441407-62.515625 82.886719-64.890625 84.625zm0 0" fill="#89674c"/></svg>