<svg height="510pt" viewBox="-80 0 510 510.07129" width="510pt" xmlns="http://www.w3.org/2000/svg"><path d="m255.070312 175.335938h-127.515624v-53.285157l94.664062-122.050781h32.851562zm0 0" fill="#b9e57a"/><path d="m223.191406 175.335938h-127.515625v-175.335938h32.851563l94.664062 122.050781zm0 0" fill="#d6efb6"/><path d="m267.519531 223.15625h-201.351562l199.25-159.398438h41.953125zm0 0" fill="#7cb342"/><path d="m284.574219 223.15625h-201.347657l-39.851562-159.398438h41.953125zm0 0" fill="#9ccc65"/><path d="m250.734375 510.070312h-150.726563c-28.324218 0-54.417968-14.648437-68.078124-38.207031-20.863282-36.023437-31.8945318-77.929687-31.8945318-121.1875 0-43.261719 11.0312498-85.167969 31.8945318-121.175781 13.660156-23.574219 39.753906-38.222656 68.078124-38.222656h150.726563c28.328125 0 54.417969 14.648437 68.078125 38.207031 20.867188 36.023437 31.898438 77.929687 31.898438 121.191406 0 43.257813-11.03125 85.164063-31.898438 121.171875-13.660156 23.574219-39.75 38.222656-68.078125 38.222656zm0 0" fill="#fdd835"/><path d="m318.8125 439.96875c-13.660156 23.574219-39.75 38.222656-68.078125 38.222656h-150.726563c-28.324218 0-54.417968-14.648437-68.078124-38.207031-18.296876-31.578125-29.023438-67.679687-31.382813-105.25-.335937 5.292969-.5117188 10.601563-.5117188 15.941406 0 43.257813 11.0312498 85.164063 31.8945318 121.1875 13.660156 23.558594 39.753906 38.207031 68.078124 38.207031h150.726563c28.328125 0 54.417969-14.648437 68.078125-38.222656 20.867188-36.007812 31.898438-77.914062 31.898438-121.171875 0-5.339843-.175782-10.648437-.511719-15.941406-2.359375 37.570313-13.085938 73.65625-31.386719 105.234375zm0 0" fill="#fbc02d"/><path d="m345.449219 401.363281c2.710937-12.753906 4.304687-25.824219 4.941406-39.054687l-22.953125-21.515625 21.359375-21.359375c-1.59375-12.753906-4.144531-25.34375-7.808594-37.460938l-36.980469 36.980469-42.402343-39.847656 54.195312-54.195313c-6.054687-8.925781-14.027343-16.417968-23.269531-21.996094l-54.355469 54.351563-42.398437-39.847656 26.140625-26.140625h-45.269531l-4.304688 4.304687-4.460938-4.304687h-46.546874l28.53125 26.777344-42.238282 42.242187-54.195312-54.195313c-8.605469 6.214844-16.097656 14.027344-21.519532 23.429688 0 0 0 .160156-.160156.160156l53.242188 53.238282-41.125 41.125-35.867188-35.863282c-3.347656 12.589844-5.578125 25.503906-6.691406 38.574219l19.921875 19.921875-20.71875 20.722656c.953125 13.390625 2.867187 26.460938 6.054687 39.210938l37.300782-37.296875 41.125 41.125-55.949219 55.945312c.796875 1.914063 1.910156 3.667969 2.867187 5.421875 4.464844 7.652344 10.203126 14.34375 17.054688 19.925782l58.660156-58.660157 41.125 41.125-35.863281 35.863281h45.265625l13.230469-13.230468 13.230469 13.230468h45.269531l-35.863281-35.863281 41.125-41.125 62.164062 62.164063c8.605469-6.214844 16.097656-14.027344 21.519531-23.429688 0 0 0-.160156.15625-.160156l-61.207031-61.207031 47.179688-47.183594zm-172.148438-161.46875 42.398438 39.847657-44.3125 44.3125-41.125-41.125zm-106.796875 106.792969 41.125-41.121094 41.125 41.121094-41.125 41.125zm104.882813 104.886719-41.125-41.125 41.125-41.125 41.125 41.125zm63.761719-63.761719-41.125-41.125 45.109374-45.109375 42.398438 39.851563zm0 0" fill="#fbc02d"/><g fill="#fff"><path d="m271.011719 255.035156h31.878906v31.878906h-31.878906zm0 0"/><path d="m47.855469 286.914062h31.878906v31.878907h-31.878906zm0 0"/><path d="m47.855469 366.613281h31.878906v31.878907h-31.878906zm0 0"/></g></svg>