<svg height="512pt" viewBox="0 0 512 512" width="512pt" xmlns="http://www.w3.org/2000/svg"><path d="m352 80c-19.214844 0-36.257812 8.671875-48 22.113281-11.742188-13.441406-28.785156-22.113281-48-22.113281s-36.257812 8.671875-48 22.113281c-11.742188-13.441406-28.785156-22.113281-48-22.113281-35.296875 0-64 28.703125-64 64v13.28125c0 35.582031 26.609375 64.863281 60.59375 66.640625 1.148438.046875 2.300781.078125 3.4375.078125 16.480469 0 32-6.175781 44.03125-17.585938 1.570312-1.484374 2.785156-3.246093 4.175781-4.878906 10.992188 12.914063 26.59375 21.457032 44.355469 22.386719 1.148438.046875 2.300781.078125 3.4375.078125 16.480469 0 32-6.175781 44.03125-17.585938 1.570312-1.484374 2.785156-3.246093 4.175781-4.878906 10.992188 12.914063 26.59375 21.457032 44.355469 22.386719 1.148438.046875 2.300781.078125 3.4375.078125 16.480469 0 32-6.175781 44.03125-17.585938 12.671875-12.03125 19.9375-28.941406 19.9375-46.414062v-16c0-35.296875-28.703125-64-64-64zm0 0" fill="#c13505"/><path d="m208.03125 144c-1.136719 0-2.289062-.03125-3.4375-.078125-33.984375-1.777344-60.59375-31.058594-60.59375-66.640625v-13.28125c0-35.296875 28.703125-64 64-64s64 28.703125 64 64v16c0 17.472656-7.265625 34.382812-19.9375 46.414062-12.03125 11.410157-27.550781 17.585938-44.03125 17.585938zm0 0" fill="#ff6839"/><path d="m128.03125 144c-1.136719 0-2.289062-.03125-3.4375-.078125-33.984375-1.777344-60.59375-31.058594-60.59375-66.640625v-13.28125c0-35.296875 28.703125-64 64-64s64 28.703125 64 64v16c0 17.472656-7.265625 34.382812-19.9375 46.414062-12.03125 11.410157-27.550781 17.585938-44.03125 17.585938zm0 0" fill="#dd4503"/><path d="m64.03125 192c-1.136719 0-2.289062-.03125-3.4375-.078125-33.984375-1.777344-60.59375-31.058594-60.59375-66.640625v-13.28125c0-35.296875 28.703125-64 64-64s64 28.703125 64 64v16c0 17.472656-7.265625 34.382812-19.9375 46.414062-12.03125 11.410157-27.550781 17.585938-44.03125 17.585938zm0 0" fill="#ef4b03"/><path d="m64.03125 256c-1.136719 0-2.289062-.03125-3.4375-.078125-33.984375-1.777344-60.59375-31.058594-60.59375-66.640625v-13.28125c0-35.296875 28.703125-64 64-64s64 28.703125 64 64v16c0 17.472656-7.265625 34.382812-19.9375 46.414062-12.03125 11.410157-27.550781 17.585938-44.03125 17.585938zm0 0" fill="#ff5629"/><path d="m256.03125 512c-1.136719 0-2.289062-.03125-3.4375-.078125-33.984375-1.777344-60.59375-31.058594-60.59375-66.640625v-13.28125c0-35.296875 28.703125-64 64-64s64 28.703125 64 64v16c0 17.472656-7.265625 34.382812-19.9375 46.414062-12.03125 11.410157-27.550781 17.585938-44.03125 17.585938zm0 0" fill="#dd4503"/><path d="m208.03125 448c-1.136719 0-2.289062-.03125-3.4375-.078125-33.984375-1.777344-60.59375-31.058594-60.59375-66.640625v-13.28125c0-35.296875 28.703125-64 64-64s64 28.703125 64 64v16c0 17.472656-7.265625 34.382812-19.9375 46.414062-12.03125 11.410157-27.550781 17.585938-44.03125 17.585938zm0 0" fill="#ff6839"/><path d="m304.03125 448c-1.136719 0-2.289062-.03125-3.4375-.078125-33.984375-1.777344-60.59375-31.058594-60.59375-66.640625v-13.28125c0-35.296875 28.703125-64 64-64s64 28.703125 64 64v16c0 17.472656-7.265625 34.382812-19.9375 46.414062-12.03125 11.410157-27.550781 17.585938-44.03125 17.585938zm0 0" fill="#ef4b03"/><path d="m160.03125 384c-1.136719 0-2.289062-.03125-3.4375-.078125-33.984375-1.777344-60.59375-31.058594-60.59375-66.640625v-13.28125c0-35.296875 28.703125-64 64-64s64 28.703125 64 64v16c0 17.472656-7.265625 34.382812-19.9375 46.414062-12.03125 11.410157-27.550781 17.585938-44.03125 17.585938zm0 0" fill="#dd4503"/><path d="m256.03125 384c-1.136719 0-2.289062-.03125-3.4375-.078125-33.984375-1.777344-60.59375-31.058594-60.59375-66.640625v-13.28125c0-35.296875 28.703125-64 64-64s64 28.703125 64 64v16c0 17.472656-7.265625 34.382812-19.9375 46.414062-12.03125 11.410157-27.550781 17.585938-44.03125 17.585938zm0 0" fill="#ff5629"/><path d="m352.03125 384c-1.136719 0-2.289062-.03125-3.4375-.078125-33.984375-1.777344-60.59375-31.058594-60.59375-66.640625v-13.28125c0-35.296875 28.703125-64 64-64s64 28.703125 64 64v16c0 17.472656-7.265625 34.382812-19.9375 46.414062-12.03125 11.410157-27.550781 17.585938-44.03125 17.585938zm0 0" fill="#ff6839"/><path d="m304.03125 144c-1.136719 0-2.289062-.03125-3.4375-.078125-33.984375-1.777344-60.59375-31.058594-60.59375-66.640625v-13.28125c0-35.296875 28.703125-64 64-64s64 28.703125 64 64v16c0 17.472656-7.265625 34.382812-19.9375 46.414062-12.03125 11.410157-27.550781 17.585938-44.03125 17.585938zm0 0" fill="#ff5629"/><path d="m112.03125 320c-1.136719 0-2.289062-.03125-3.4375-.078125-33.984375-1.777344-60.59375-31.058594-60.59375-66.640625v-13.28125c0-35.296875 28.703125-64 64-64s64 28.703125 64 64v16c0 17.472656-7.265625 34.382812-19.9375 46.414062-12.03125 11.410157-27.550781 17.585938-44.03125 17.585938zm0 0" fill="#ff6839"/><path d="m208.03125 320c-1.136719 0-2.289062-.03125-3.4375-.078125-33.984375-1.777344-60.59375-31.058594-60.59375-66.640625v-13.28125c0-35.296875 28.703125-64 64-64s64 28.703125 64 64v16c0 17.472656-7.265625 34.382812-19.9375 46.414062-12.03125 11.410157-27.550781 17.585938-44.03125 17.585938zm0 0" fill="#ef4b03"/><path d="m384.03125 144c-1.136719 0-2.289062-.03125-3.4375-.078125-33.984375-1.777344-60.59375-31.058594-60.59375-66.640625v-13.28125c0-35.296875 28.703125-64 64-64s64 28.703125 64 64v16c0 17.472656-7.265625 34.382812-19.9375 46.414062-12.03125 11.410157-27.550781 17.585938-44.03125 17.585938zm0 0" fill="#ef4b03"/><path d="m448.03125 192c-1.136719 0-2.289062-.03125-3.4375-.078125-33.984375-1.777344-60.59375-31.058594-60.59375-66.640625v-13.28125c0-35.296875 28.703125-64 64-64s64 28.703125 64 64v16c0 17.472656-7.265625 34.382812-19.9375 46.414062-12.03125 11.410157-27.550781 17.585938-44.03125 17.585938zm0 0" fill="#ff6839"/><path d="m448.03125 256c-1.136719 0-2.289062-.03125-3.4375-.078125-33.984375-1.777344-60.59375-31.058594-60.59375-66.640625v-13.28125c0-35.296875 28.703125-64 64-64s64 28.703125 64 64v16c0 17.472656-7.265625 34.382812-19.9375 46.414062-12.03125 11.410157-27.550781 17.585938-44.03125 17.585938zm0 0" fill="#ef4b03"/><path d="m400.03125 320c-1.136719 0-2.289062-.03125-3.4375-.078125-33.984375-1.777344-60.59375-31.058594-60.59375-66.640625v-13.28125c0-35.296875 28.703125-64 64-64s64 28.703125 64 64v16c0 17.472656-7.265625 34.382812-19.9375 46.414062-12.03125 11.410157-27.550781 17.585938-44.03125 17.585938zm0 0" fill="#ff5629"/><path d="m304.03125 320c-1.136719 0-2.289062-.03125-3.4375-.078125-33.984375-1.777344-60.59375-31.058594-60.59375-66.640625v-13.28125c0-35.296875 28.703125-64 64-64s64 28.703125 64 64v16c0 17.472656-7.265625 34.382812-19.9375 46.414062-12.03125 11.410157-27.550781 17.585938-44.03125 17.585938zm0 0" fill="#dd4503"/><g fill="#fff"><path d="m448 144h32v32h-32zm0 0"/><path d="m304 208h32v32h-32zm0 0"/><path d="m80 208h32v32h-32zm0 0"/></g></svg>