<svg height="500pt" viewBox="-42 0 500 500.336" width="500pt" xmlns="http://www.w3.org/2000/svg"><path d="m325.046875 154.257812h-233.757813l-4.464843-3.777343c-8.398438-7.054688-16.289063-13.984375-20.71875-18.113281-24.371094-22.558594-17.90625-81.472657-16.351563-93.023438l1.628906-12.253906 12.257813-1.523438c11.375-1.390625 69.4375-7.328125 92.527344 15.984375l4.191406 4.210938c14.800781-19.585938 35.023437-35.730469 37.921875-38.019531l9.886719-7.742188 9.871093 7.726562c2.898438 2.289063 23.121094 18.433594 37.921876 38.015626l4.253906-4.253907c23.023437-23.230469 81.089844-17.390625 92.496094-15.921875l12.257812 1.523438 1.632812 12.253906c1.550782 11.566406 8.015626 70.464844-16.335937 93.023438-4.449219 4.128906-12.335937 11.039062-20.738281 18.113281zm0 0" fill="#9ccc65"/><path d="m329.511719 150.480469c8.398437-7.054688 16.289062-13.984375 20.734375-18.113281 6.960937-6.445313 11.347656-15.886719 14.097656-26.320313-24.128906-13.757813-51.953125-21.726563-81.648438-21.726563h-149.054687c-29.695313 0-57.519531 7.96875-81.648437 21.726563 2.75 10.433594 7.152343 19.890625 14.113281 26.320313 4.429687 4.128906 12.335937 11.039062 20.71875 18.113281l4.464843 3.757812h233.742188zm0 0" fill="#7cb342"/><path d="m208.167969 500.335938c-25.105469 0-48.71875-11.054688-64.785157-30.335938l-112.285156-134.734375c-19.9375-23.953125-30.929687-54.289063-30.929687-85.472656 0-73.601563 59.871093-133.472657 133.472656-133.472657h149.054687c73.601563 0 133.472657 59.871094 133.472657 133.472657 0 31.167969-10.992188 61.519531-30.945313 85.453125l-112.285156 134.753906c-16.050781 19.265625-39.664062 30.335938-64.769531 30.335938zm0 0" fill="#ef4b03"/><path d="m64.167969 212.335938h32v32h-32zm0 0" fill="#fff"/><path d="m128.167969 180.335938h32v32h-32zm0 0" fill="#fff"/><g fill="#dd4503"><path d="m112.167969 276.335938h32v32h-32zm0 0"/><path d="m144.167969 340.335938h32v32h-32zm0 0"/><path d="m192.167969 404.335938h32v32h-32zm0 0"/><path d="m240.167969 340.335938h32v32h-32zm0 0"/><path d="m272.167969 276.335938h32v32h-32zm0 0"/><path d="m320.167969 212.335938h32v32h-32zm0 0"/><path d="m256.167969 180.335938h32v32h-32zm0 0"/><path d="m192.167969 212.335938h32v32h-32zm0 0"/><path d="m192.167969 276.335938h32v32h-32zm0 0"/><path d="m385.222656 303.246094-109.566406 131.472656c-12.800781 15.359375-29.777344 27.488281-49.328125 31.664062-31.566406 6.753907-63.054687-4.527343-82.960937-28.414062l-112.289063-134.738281c-16.542969-19.839844-26.796875-44.09375-29.871094-69.566407-.605469 5.3125-1.039062 10.671876-1.039062 16.128907 0 31.167969 10.992187 61.519531 30.945312 85.453125l110.269531 132.339844c12.335938 14.8125 28.738282 26.316406 47.539063 30.574218 31.917969 7.246094 63.902344-4.015625 84.015625-28.160156l112.285156-134.753906c19.953125-23.933594 30.945313-54.269532 30.945313-85.453125 0-5.457031-.433594-10.816407-1.070313-16.113281-3.074218 25.472656-13.328125 49.726562-29.875 69.566406zm0 0"/></g><path d="m304.167969 52.335938h32v32h-32zm0 0" fill="#fff"/></svg>