<svg height="512pt" viewBox="0 0 512.00553 512" width="512pt" xmlns="http://www.w3.org/2000/svg"><path d="m415.980469.00390625h32v79.99999975h-32zm0 0" fill="#37474f"/><path d="m271.980469 512.003906c-17.277344 0-33.742188-5.539062-47.628907-15.984375-29.265624 20.910157-68.242187 20.910157-96 0-14.625 10.445313-31.105468 15.984375-48.371093 15.984375-24.460938 0-47.261719-10.976562-62.542969-30.113281-15.28125-19.121094-20.878906-44.0625-15.359375-68.382813 6.558594-28.914062 29.441406-52.113281 58.304687-59.121093 24-5.824219 47.917969-.992188 67.3125 13.664062 29.132813-21.023437 68.160157-20.976562 95.917969-.0625 22.894531-16.335937 51.617188-20.320312 76.71875-10.800781 12.304688-18.847656 31.570313-31.921875 53.265625-35.871094 1.921875-11.664062 6.992188-23.121094 14.367188-32.945312-10.464844-14.65625-15.984375-31.121094-15.984375-48.367188 0-17.25 5.519531-33.714844 15.984375-47.617187-10.445313-14.671875-15.984375-31.136719-15.984375-48.382813 0-24.449218 10.976562-47.25 30.097656-62.527344 19.136719-15.28125 44.0625-20.851562 68.382813-15.394531 28.898437 6.542969 52.097656 29.441407 59.136718 58.320313 5.839844 24.03125.976563 47.953125-13.710937 67.390625 10.464843 14.195312 16.09375 30.785156 16.09375 48.226562 0 17.246094-5.519531 33.710938-15.984375 47.613281 10.449218 14.675782 15.984375 31.136719 15.984375 48.386719 0 38.480469-27.421875 71.550781-65.199219 78.625-7.246094 37.933594-40.304688 65.359375-78.800781 65.359375-9.742188 0-19.292969-1.746094-28.351563-5.183594-15.121094 23.292969-40.269531 37.183594-67.648437 37.183594zm0 0" fill="#9b7a5a"/><path d="m446.78125 382.625c-7.246094 37.953125-40.304688 65.378906-78.800781 65.378906-9.742188 0-19.292969-1.746094-28.351563-5.183594-15.121094 23.292969-40.269531 37.183594-67.648437 37.183594-17.277344 0-33.742188-5.539062-47.628907-15.984375-29.265624 20.910157-68.242187 20.910157-96 0-14.625 10.445313-31.105468 15.984375-48.371093 15.984375-24.460938 0-47.261719-10.976562-62.542969-30.113281-8.015625-10.03125-13.296875-21.679687-15.777344-34-4.621094 23.566406.992188 47.488281 15.777344 66 15.28125 19.136719 38.082031 30.113281 62.542969 30.113281 17.28125 0 33.746093-5.539062 48.371093-15.984375 27.757813 20.910157 66.734376 20.910157 96 0 13.886719 10.445313 30.351563 15.984375 47.628907 15.984375 27.378906 0 52.527343-13.890625 67.648437-37.183594 9.058594 3.4375 18.59375 5.183594 28.351563 5.183594 38.496093 0 71.570312-27.425781 78.800781-65.378906 37.777344-7.070312 65.199219-40.140625 65.199219-78.621094 0-5.394531-.71875-10.671875-1.789063-15.875-6.449218 31.265625-31.058594 56.433594-63.410156 62.496094zm0 0" fill="#89674c"/><g fill="#fff"><path d="m383.980469 128.003906h32v32h-32zm0 0"/><path d="m383.980469 224.003906h32v32h-32zm0 0"/><path d="m63.980469 384.003906h32v32h-32zm0 0"/></g></svg>