<svg height="512pt" viewBox="0 0 512 512" width="512pt" xmlns="http://www.w3.org/2000/svg"><path d="m272 80h-32v-64c0-8.832031 7.167969-16 16-16s16 7.167969 16 16zm0 0" fill="#9b7a5a"/><path d="m288 512h-64c-123.519531 0-224-100.480469-224-224s100.480469-224 224-224h64c123.519531 0 224 100.480469 224 224s-100.480469 224-224 224zm0 0" fill="#ef4b03"/><path d="m290.480469 447.984375-.464844-32c9.503906-.144531 18.960937-1.34375 28.113281-3.570313l7.566406 31.089844c-11.488281 2.800782-23.328124 4.304688-35.214843 4.480469zm68.527343-16.625-14.253906-28.65625c8.476563-4.207031 16.511719-9.375 23.871094-15.359375l20.191406 24.816406c-9.167968 7.472656-19.199218 13.9375-29.808594 19.199219zm54.6875-44.464844-25.121093-19.804687c17.9375-22.769532 27.425781-50.113282 27.425781-79.089844h32c0 36.222656-11.855469 70.433594-34.304688 98.894531zm0 0" fill="#fff"/><path d="m447.953125 131.488281c-40.6875-41.585937-97.3125-67.488281-159.953125-67.488281h-64c-62.65625 0-119.3125 25.9375-160 67.535156l-.015625 122.128906 77.296875-38.640624 23.871094 119.390624 90.847656-113.582031 90.863281 113.582031 23.871094-119.359374 77.152344 38.625zm0 0" fill="#dd4503"/><path d="m288 61.601562h-64c-47.601562 0-91.679688 15.039063-128 40.445313v97.457031l68.433594-34.207031 18.621094 93.117187 72.960937-91.199218 72.960937 91.199218 18.625-93.117187 68.335938 34.207031.046875-97.488281c-36.335937-25.390625-80.417969-40.414063-127.984375-40.414063zm0 0" fill="#9ccc65"/><path d="m304 96h32v32h-32zm0 0" fill="#fff"/><path d="m144 128h32v32h-32zm0 0" fill="#fff"/><path d="m288 480h-64c-118.113281 0-214.929688-91.953125-223.183594-208-.382812 5.3125-.816406 10.59375-.816406 16 0 123.519531 100.480469 224 224 224h64c123.519531 0 224-100.480469 224-224 0-5.40625-.433594-10.6875-.816406-16-8.253906 116.046875-105.070313 208-223.183594 208zm0 0" fill="#dd4503"/></svg>