<svg height="510pt" viewBox="-32 0 510 510.07129" width="510pt" xmlns="http://www.w3.org/2000/svg"><path d="m239.132812 79.699219h-31.878906c0-26.363281-21.457031-47.820313-47.820312-47.820313h-15.941406v-31.878906h15.941406c43.945312 0 79.699218 35.753906 79.699218 79.699219zm0 0" fill="#d8b880"/><path d="m446.347656 286.914062c0 123.246094-99.910156 223.15625-223.15625 223.15625s-223.1562498-99.910156-223.1562498-223.15625c0-123.246093 99.9101558-223.15625 223.1562498-223.15625s223.15625 99.910157 223.15625 223.15625zm0 0" fill="#66bb6a"/><g fill="#43a047"><path d="m223.191406 478.191406c-117.667968 0-214.117187-91.605468-222.34375-207.214844-.382812 5.289063-.8124998 10.550782-.8124998 15.9375 0 123.054688 100.1015628 223.15625 223.1562498 223.15625 123.054688 0 223.15625-100.101562 223.15625-223.15625 0-5.386718-.429687-10.648437-.8125-15.9375-8.226562 115.609376-104.675781 207.214844-222.34375 207.214844zm0 0"/><path d="m152.738281 447.746094c-2.070312 4.941406-3.507812 8.128906-2.550781 15.941406.320312 2.070312.796875 4.621094 1.433594 7.648438l.320312 3.347656v23.75c-11-3.664063-21.679687-8.285156-31.878906-13.707032v-8.449218c-2.550781-12.910156-2.390625-21.675782-.796875-28.847656.957031-4.304688 2.390625-8.128907 3.984375-11.957032 2.390625-5.417968 4.304688-10.199218 4.304688-21.039062 0-20.402344-11.476563-33.472656-23.59375-47.5-11.953126-13.710938-24.226563-27.894532-24.226563-48.140625 0-29.167969 7.011719-42.558594 12.113281-52.441407 2.871094-5.578124 3.828125-7.648437 3.828125-11.316406v-151.109375c10.039063-7.171875 20.71875-13.386719 31.878907-18.648437v169.757812c0 11.636719-3.984376 19.289063-7.492188 25.980469-4.144531 8.132813-8.449219 16.417969-8.449219 37.777344 0 7.972656 6.21875 15.464843 16.417969 27.257812 14.027344 16.101563 31.402344 36.023438 31.402344 68.382813 0 17.214844-3.828125 26.617187-6.695313 33.3125zm0 0"/><path d="m205.65625 142.339844c-7.648438 16.417968-14.34375 30.605468-14.34375 48.9375 0 18.332031 6.695312 32.515625 14.34375 48.933594 8.289062 17.535156 17.535156 37.140624 17.535156 62.644531v207.214843c-10.839844 0-21.519531-.796874-31.878906-2.230468v-204.984375c0-18.332031-6.695312-32.519531-14.347656-48.9375-8.285156-17.53125-17.53125-37.136719-17.53125-62.640625s9.246094-45.109375 17.53125-62.644532c4.785156-10.359374 9.246094-19.765624 11.796875-29.804687 1.59375-6.058594 2.550781-12.277344 2.550781-19.128906v-13.707031c10.359375-1.4375 21.039062-2.234376 31.878906-2.234376v15.941407c0 5.578125-.476562 10.839843-1.273437 15.9375-2.710938 18.011719-9.722657 32.996093-16.261719 46.703125zm0 0"/><path d="m299.382812 137.402344c-7.492187 9.402344-12.433593 15.617187-12.433593 29.964844 0 14.347656 4.941406 20.402343 12.433593 29.808593 8.609376 10.835938 19.449219 24.226563 19.449219 49.730469s-10.839843 39.050781-19.449219 49.890625c-7.492187 9.40625-12.433593 15.460937-12.433593 29.808594 0 14.34375 5.261719 20.878906 12.433593 29.964843 8.609376 10.839844 19.449219 24.390626 19.449219 49.894532 0 25.5-10.839843 38.890625-19.449219 49.730468-2.390624 3.027344-4.621093 5.898438-6.375 8.765626-3.824218 5.578124-6.058593 11.636718-6.058593 21.199218v14.667969c-10.359375 3.027344-21.039063 5.417969-31.878907 7.011719v-21.679688c0-3.824218.320313-7.488281.796876-10.835937 2.390624-18.808594 11.316406-29.808594 18.652343-39.054688 7.488281-9.246093 12.429688-15.460937 12.429688-29.804687 0-14.347656-5.257813-20.882813-12.429688-29.96875-8.609375-10.839844-19.449219-24.386719-19.449219-49.890625 0-25.503907 10.839844-38.894531 19.449219-49.730469 7.488281-9.40625 12.429688-15.621094 12.429688-29.96875 0-14.1875-4.941407-20.402344-12.429688-29.808594-8.609375-10.835937-19.449219-24.226562-19.449219-49.730468 0-25.503907 10.839844-39.050782 19.449219-49.890626 3.503907-4.304687 6.535157-7.96875 8.605469-12.113281 2.390625-4.785156 3.824219-10.042969 3.824219-17.695312v-14.664063c11 3.347656 21.679687 7.332032 31.882812 12.273438v2.390625c0 12.59375-2.710937 22.316406-6.378906 30.125-3.824219 8.132812-8.765625 14.1875-13.070313 19.609375zm0 0"/><path d="m381.792969 425.273438.796875 2.550781v15.140625c-9.722656 9.882812-20.402344 18.96875-31.878906 26.9375v-36.980469c-.320313-.957031-.640626-1.910156-.957032-2.867187-17.695312-54.675782-14.824218-66.949219-7.492187-87.03125 3.667969-10.203126 8.449219-23.113282 8.449219-56.109376h31.878906c0 38.734376-6.058594 55.152344-10.519532 67.105469-3.988281 10.839844-6.378906 17.535157 2.867188 49.253907 1.753906 6.21875 3.984375 13.550781 6.855469 22zm0 0"/><path d="m382.589844 130.863281v60.414063h-31.878906v-87.351563c11.476562 7.972657 22.15625 17.058594 31.878906 26.9375zm0 0"/></g><path d="m32.792969 215.1875h31.878906v31.878906h-31.878906zm0 0" fill="#fff"/><path d="m31.914062 291.855469h31.878907v31.878906h-31.878907zm0 0" fill="#fff"/><path d="m350.710938 223.15625h31.878906v31.878906h-31.878906zm0 0" fill="#fff"/></svg>