<svg height="512pt" viewBox="0 -120 512 512" width="512pt" xmlns="http://www.w3.org/2000/svg"><path d="m256 272c-141.152344 0-256-114.847656-256-256v-16h512v16c0 141.152344-114.847656 256-256 256zm0 0" fill="#66bb6a"/><path d="m256 208c-105.871094 0-192-86.128906-192-192v-16h384v16c0 105.871094-86.128906 192-192 192zm0 0" fill="#ef4b03"/><g fill="#37474f"><path d="m144 32h32v32h-32zm0 0"/><path d="m192 80h32v32h-32zm0 0"/><path d="m288 80h32v32h-32zm0 0"/><path d="m336 32h32v32h-32zm0 0"/><path d="m240 32h32v32h-32zm0 0"/></g><path d="m256 176c-100.480469 0-183.007812-77.601562-191.183594-176h-.816406v16c0 105.871094 86.128906 192 192 192s192-86.128906 192-192v-16h-.816406c-8.175782 98.398438-90.703125 176-191.183594 176zm0 0" fill="#dd4503"/></svg>