<?xml version="1.0" encoding="iso-8859-1"?>
<!-- Generator: Adobe Illustrator 19.0.0, SVG Export Plug-In . SVG Version: 6.00 Build 0)  -->
<svg version="1.1" id="Capa_1" xmlns="http://www.w3.org/2000/svg" xmlns:xlink="http://www.w3.org/1999/xlink" x="0px" y="0px"
	 viewBox="0 0 384 384" style="enable-background:new 0 0 384 384;" xml:space="preserve">
<path style="fill:#FF833B;" d="M248.104,96.744v8.64h-140v-8.64c0-43.12,26.4-78.08,70-78.08S248.104,53.624,248.104,96.744z"/>
<path style="fill:#DBAD56;" d="M276.264,133.224c0,15.36-12.64,27.76-28.16,27.76h-140c-15.52,0-28.08-12.4-28.08-27.76
	s12.56-27.84,28.08-27.84h140C263.624,105.384,276.264,117.864,276.264,133.224z"/>
<rect x="108.104" y="160.96" style="fill:#3EAD26;" width="140" height="73.6"/>
<path style="fill:#FF833B;" d="M248.104,234.584v119.12c0,9.36-7.68,16.96-17.12,16.96h-105.76c-9.44,0-17.12-7.6-17.12-16.96
	v-119.12H248.104z"/>
<path style="fill:#235413;" d="M92.08,351.04c0,18.176,14.856,32.96,33.128,32.96h105.76c18.256,0,33.12-14.784,33.12-32.96v-56.08
	H304c8.832,0,16-7.16,16-16v-94.08c0-8.832-7.168-16-16-16h-34.64c13.624-7.464,22.88-21.832,22.88-38.32
	c0-18.632-11.792-34.552-28.344-40.88C261.984,37.472,226.544,0,178.08,0S94.168,37.48,92.264,89.688
	C75.76,96.024,64,111.936,64,130.56c0,18.52,11.672,34.36,28.08,40.736v60.632V351.04z M96,130.56c0-6.528,5.424-11.84,12.08-11.84
	h140c6.712,0,12.168,5.312,12.168,11.84c0,6.488-5.456,11.76-12.168,11.76h-140C101.424,142.32,96,137.04,96,130.56z M124.08,174.32
	h108v10.56v31.04h-108L124.08,174.32L124.08,174.32z M232.08,351.04c0,0.456-0.464,0.96-1.12,0.96H125.2
	c-0.672,0-1.128-0.496-1.128-0.96V247.92h108v31.04v72.08H232.08z M288,262.96h-23.92v-31.04v-31.04H288V262.96z M178.08,32
	c34.336,0,51.208,26.416,53.68,54.72H124.4C126.864,58.416,143.744,32,178.08,32z"/>
<g>
</g>
<g>
</g>
<g>
</g>
<g>
</g>
<g>
</g>
<g>
</g>
<g>
</g>
<g>
</g>
<g>
</g>
<g>
</g>
<g>
</g>
<g>
</g>
<g>
</g>
<g>
</g>
<g>
</g>
</svg>
