<?xml version="1.0" encoding="iso-8859-1"?>
<!-- Generator: Adobe Illustrator 19.0.0, SVG Export Plug-In . SVG Version: 6.00 Build 0)  -->
<svg version="1.1" id="Capa_1" xmlns="http://www.w3.org/2000/svg" xmlns:xlink="http://www.w3.org/1999/xlink" x="0px" y="0px"
	 viewBox="0 0 384 384" style="enable-background:new 0 0 384 384;" xml:space="preserve">
<path style="fill:#DBAD56;" d="M328.024,45.064c0,14.56-12.16,26.4-27.12,26.4H82.984c-14.88-0.08-26.96-11.92-26.96-26.4
	c0-14.56,12.16-26.4,27.12-26.4h217.76C315.864,18.664,328.024,30.504,328.024,45.064z"/>
<path style="fill:#FF833B;" d="M82.984,71.464v202.56c0-14.72,12.24-26.64,27.36-26.64h163.36c14,0,25.52,10.16,27.12,23.36V71.464
	L82.984,71.464L82.984,71.464z"/>
<path style="fill:#3EAD26;" d="M300.824,270.744v73.76c0,14.48-12.08,26.16-26.88,26.16h-164.08c-14.8,0-26.88-11.68-26.88-26.16
	v-70.48c0-14.72,12.24-26.64,27.36-26.64h163.36C287.704,247.384,299.224,257.544,300.824,270.744z"/>
<path style="fill:#DBAD56;" d="M246.264,137.864v43.2c0,6.96-5.84,12.64-13.04,12.64h-81.84c-7.2,0-13.6-5.68-13.6-12.64v-43.2
	c0-6.96,6.4-12.64,13.6-12.64h81.84C240.424,125.224,246.264,130.904,246.264,137.864z"/>
<g>
	<path style="fill:#235413;" d="M300.88,0H83.12C59.344,0,40,19.016,40,42.4c0,17.696,11.176,32.888,26.96,39.216V271.36v70.48
		c0,23.248,19.232,42.16,42.88,42.16h164.08c23.64,0,42.872-18.912,42.872-42.16v-68.08c0.12-0.792,0.24-1.576,0.24-2.4
		c0-1.088-0.152-2.128-0.24-3.192v-0.088V81.72C332.696,75.472,344,60.24,344,42.4C344,19.016,324.656,0,300.88,0z M83.12,32h217.76
		c6.136,0,11.12,4.664,11.12,10.4s-4.984,10.4-11.12,10.4h-0.08H83.048C76.96,52.768,72,48.104,72,42.4
		C72,36.664,76.984,32,83.12,32z M284.8,230.136c-0.664-0.176-1.368-0.256-2.04-0.392c-0.632-0.136-1.256-0.264-1.904-0.368
		c-2.344-0.384-4.728-0.656-7.176-0.656H110.32c-1.776,0-3.52,0.136-5.232,0.344c-0.52,0.064-1.032,0.152-1.544,0.232
		c-1.24,0.192-2.456,0.432-3.656,0.728c-0.304,0.072-0.624,0.104-0.92,0.184V84.8H284.8V230.136z M273.92,352H109.84
		c-6,0-10.88-4.56-10.88-10.16v-70.48c0-5.864,5.096-10.64,11.36-10.64h163.36c1.408,0,2.76,0.248,4.008,0.688
		c0.416,0.144,0.744,0.424,1.136,0.608c0.784,0.376,1.576,0.736,2.24,1.272c0.384,0.312,0.648,0.72,0.992,1.072
		c0.528,0.56,1.08,1.096,1.472,1.744c0.272,0.448,0.392,0.968,0.584,1.456c0.272,0.672,0.568,1.336,0.688,2.072v72.2
		C284.8,347.44,279.92,352,273.92,352z"/>
	<path style="fill:#235413;" d="M151.36,207.04h81.84c16.016,0,29.04-12.848,29.04-28.64v-43.2c0-15.792-13.024-28.64-29.04-28.64
		h-81.84c-16.32,0-29.6,12.848-29.6,28.64v43.2C121.76,194.192,135.04,207.04,151.36,207.04z M153.76,138.56h76.48v36.48h-76.48
		L153.76,138.56L153.76,138.56z"/>
</g>
<g>
</g>
<g>
</g>
<g>
</g>
<g>
</g>
<g>
</g>
<g>
</g>
<g>
</g>
<g>
</g>
<g>
</g>
<g>
</g>
<g>
</g>
<g>
</g>
<g>
</g>
<g>
</g>
<g>
</g>
</svg>
