<?xml version="1.0" encoding="iso-8859-1"?>
<!-- Generator: Adobe Illustrator 19.0.0, SVG Export Plug-In . SVG Version: 6.00 Build 0)  -->
<svg version="1.1" id="Capa_1" xmlns="http://www.w3.org/2000/svg" xmlns:xlink="http://www.w3.org/1999/xlink" x="0px" y="0px"
	 viewBox="0 0 384 384" style="enable-background:new 0 0 384 384;" xml:space="preserve">
<g>
	<path style="fill:#235413;" d="M16,320.76c27.64,0,52.768-10.936,71.328-28.696V367.4c0,8.832,7.16,16,16,16
		c8.832,0,16-7.168,16-16v-75.336c18.56,17.76,43.688,28.696,71.328,28.696c8.832,0,16-7.168,16-16c0-8.832-7.168-16-16-16
		c-39.328,0-71.328-32.048-71.328-71.448v-3.728c17.912,16.696,41.896,26.944,68.24,26.944c8.832,0,16-7.168,16-16s-7.168-16-16-16
		c-36.056,0-65.592-28.184-68.008-63.704c14.56,11.632,32.92,18.704,52.96,18.704c8.832,0,16-7.16,16-16c0-8.832-7.168-16-16-16
		c-29.336,0-53.192-23.912-53.192-53.304v-0.4c12.408,8.856,27.504,14.152,43.864,14.152c8.84,0,16-7.16,16-16
		c0-8.832-7.16-16-16-16c-24.184,0-43.864-19.728-43.864-43.976c0-8.832-7.168-16-16-16c-8.84,0-16,7.168-16,16
		c0,24.248-19.68,43.976-43.872,43.976c-8.832,0-16,7.16-16,16s7.16,16,16,16c16.368,0,31.464-5.304,43.872-14.16v0.4
		c0,29.392-23.864,53.304-53.2,53.304c-8.832,0-16,7.168-16,16c0,8.84,7.168,16,16,16c20.04,0,38.4-7.064,52.968-18.704
		c-2.408,35.52-31.952,63.704-68.016,63.704c-8.832,0-16,7.168-16,16s7.168,16,16,16c26.344,0,50.336-10.24,68.248-26.944v3.728
		c0,39.4-32,71.448-71.328,71.448c-8.84,0-16,7.168-16,16C0,313.584,7.16,320.76,16,320.76z"/>
	<path style="fill:#235413;" d="M368,289.664c-26.416,0-47.896-21.512-47.896-47.96v-2.568
		c12.832,9.392,28.568,15.032,45.648,15.032c8.832,0,16-7.168,16-16s-7.168-16-16-16c-24.176,0-43.968-18.936-45.496-42.768
		c10.072,6.128,21.88,9.656,34.496,9.656c8.832,0,16-7.16,16-16c0-8.832-7.168-16-16-16c-19.104,0-34.648-15.576-34.648-34.72v-1.4
		c8.32,4.408,17.768,6.96,27.816,6.96c8.832,0,16-7.168,16-16s-7.168-16-16-16c-15.344,0-27.816-12.512-27.816-27.88
		c0-8.832-7.168-16-16-16c-8.84,0-16,7.16-16,16c0,15.376-12.464,27.88-27.784,27.88c-8.84,0-16,7.168-16,16s7.16,16,16,16
		c10.04,0,19.464-2.552,27.784-6.944v1.392c0,19.144-15.52,34.72-34.592,34.72c-8.832,0-16,7.168-16,16c0,8.84,7.168,16,16,16
		c12.6,0,24.384-3.528,34.448-9.648c-1.536,23.824-21.312,42.752-45.472,42.752c-8.832,0-16,7.168-16,16s7.168,16,16,16
		c17.072,0,32.792-5.64,45.616-15.024v2.56c0,26.448-21.48,47.96-47.872,47.96c-8.832,0-16,7.168-16,16c0,8.832,7.168,16,16,16
		c17.984,0,34.512-6.08,47.872-16.152V368c0,8.832,7.16,16,16,16c8.832,0,16-7.168,16-16v-62.496
		c13.368,10.08,29.912,16.16,47.896,16.16c8.832,0,16-7.168,16-16C384,296.832,376.832,289.664,368,289.664z"/>
</g>
<g>
</g>
<g>
</g>
<g>
</g>
<g>
</g>
<g>
</g>
<g>
</g>
<g>
</g>
<g>
</g>
<g>
</g>
<g>
</g>
<g>
</g>
<g>
</g>
<g>
</g>
<g>
</g>
<g>
</g>
</svg>
