<?xml version="1.0" encoding="iso-8859-1"?>
<!-- Generator: Adobe Illustrator 19.0.0, SVG Export Plug-In . SVG Version: 6.00 Build 0)  -->
<svg version="1.1" id="Capa_1" xmlns="http://www.w3.org/2000/svg" xmlns:xlink="http://www.w3.org/1999/xlink" x="0px" y="0px"
	 viewBox="0 0 384.004 384.004" style="enable-background:new 0 0 384.004 384.004;" xml:space="preserve">
<path style="fill:#FFFFFF;" d="M217.466,99.146c-2.32,4.4-14.8,25.2-42.88,25.2c-28.72,0-40.56-21.92-42.4-25.76l0.16-0.24
	l42.32-79.68L217.466,99.146z"/>
<path style="fill:#3EAD26;" d="M231.946,126.346l-21.04,39.6l-80.4,151.2H16.026l116.16-218.56c1.84,3.84,13.68,25.76,42.4,25.76
	c28.08,0,40.56-20.8,42.88-25.2L231.946,126.346z"/>
<path style="fill:#FFFFFF;" d="M287.706,165.946c0,0-13.52,20.48-38.24,20.48s-38.56-20.48-38.56-20.48l21.04-39.6l17.36-32.56
	L287.706,165.946z"/>
<path style="fill:#299113;" d="M368.026,317.146h-237.52l80.4-151.2c0,0,13.84,20.48,38.56,20.48s38.24-20.48,38.24-20.48
	L368.026,317.146z"/>
<g>
	<path style="fill:#235413;" d="M16.002,330.482h114.48h237.52c5.616,0,10.816-2.944,13.712-7.76s3.056-10.792,0.424-15.752
		l-80.32-151.2c0-0.008-0.008-0.016-0.016-0.024L263.41,83.602c-2.784-5.216-8.2-8.48-14.12-8.488h-0.008
		c-5.904,0-11.336,3.256-14.12,8.472l-3.232,6.064l-0.376-0.696c0-0.008-0.008-0.016-0.016-0.024L188.77,8.49
		c-2.784-5.224-8.208-8.488-14.128-8.488l0,0c-5.92,0-11.352,3.272-14.128,8.496l-42.016,79.104c-0.088,0.144-0.12,0.304-0.2,0.448
		c-0.08,0.136-0.192,0.232-0.264,0.368L1.874,306.978c-2.64,4.96-2.48,10.936,0.416,15.752
		C5.178,327.538,10.386,330.482,16.002,330.482z M157.114,298.482l58.144-109.36c1.096,0.736,2.248,1.456,3.448,2.16
		c0.28,0.16,0.584,0.312,0.864,0.472c0.992,0.56,2.008,1.112,3.072,1.64c0.48,0.24,0.992,0.464,1.488,0.696
		c0.904,0.424,1.824,0.832,2.776,1.224c0.576,0.232,1.168,0.456,1.76,0.672c0.928,0.344,1.88,0.672,2.848,0.984
		c0.632,0.2,1.272,0.392,1.928,0.576c1.008,0.28,2.032,0.528,3.08,0.76c0.648,0.144,1.296,0.296,1.96,0.424
		c1.168,0.216,2.368,0.384,3.584,0.536c0.584,0.072,1.16,0.168,1.76,0.224c1.832,0.168,3.704,0.28,5.632,0.28
		c1.928,0,3.8-0.112,5.624-0.28c0.6-0.056,1.168-0.152,1.76-0.224c1.216-0.152,2.416-0.32,3.584-0.536
		c0.656-0.12,1.288-0.272,1.92-0.408c1.056-0.232,2.096-0.488,3.112-0.776c0.632-0.176,1.256-0.36,1.872-0.56
		c0.984-0.312,1.944-0.648,2.896-1c0.568-0.216,1.144-0.424,1.696-0.648c0.992-0.408,1.944-0.84,2.896-1.288
		c0.448-0.208,0.912-0.408,1.344-0.624c1.296-0.648,2.544-1.32,3.744-2.024c0.104-0.064,0.208-0.128,0.312-0.184
		c1.088-0.648,2.136-1.304,3.144-1.976l58.04,109.256H157.114V298.482z M268.202,160.73c-0.104,0.08-0.176,0.16-0.28,0.24
		c-0.576,0.456-1.256,0.904-1.904,1.352c-0.544,0.376-1.056,0.76-1.656,1.12c-0.768,0.464-1.64,0.864-2.488,1.28
		c-0.608,0.296-1.168,0.624-1.808,0.896c-1.008,0.416-2.136,0.712-3.24,1.016c-0.592,0.168-1.128,0.4-1.744,0.528
		c-1.776,0.368-3.656,0.592-5.648,0.592c-2.008,0-3.904-0.224-5.704-0.608c-0.608-0.128-1.144-0.352-1.728-0.52
		c-1.136-0.32-2.288-0.624-3.328-1.048c-0.632-0.256-1.176-0.576-1.768-0.864c-0.888-0.432-1.8-0.856-2.6-1.336
		c-0.56-0.336-1.048-0.696-1.568-1.048c-0.712-0.488-1.448-0.968-2.08-1.464c-0.096-0.08-0.168-0.144-0.264-0.224l18.864-35.496
		L268.202,160.73z M174.65,50.098l24.056,45.24c-0.032,0.032-0.048,0.064-0.08,0.096c-0.08,0.088-0.184,0.176-0.264,0.264
		c-0.728,0.768-1.568,1.544-2.464,2.312c-0.216,0.184-0.432,0.376-0.656,0.56c-1.016,0.824-2.144,1.632-3.376,2.392
		c-0.24,0.144-0.496,0.28-0.736,0.416c-1.168,0.672-2.424,1.296-3.776,1.848c-0.232,0.096-0.448,0.208-0.696,0.296
		c-1.52,0.576-3.176,1.04-4.928,1.4c-0.392,0.08-0.8,0.144-1.208,0.216c-1.864,0.312-3.824,0.544-5.952,0.544
		c-2.136,0-4.08-0.224-5.928-0.544c-0.416-0.072-0.84-0.136-1.248-0.224c-1.736-0.368-3.384-0.824-4.872-1.4
		c-0.208-0.08-0.392-0.184-0.592-0.264c-1.336-0.552-2.576-1.184-3.72-1.864c-0.264-0.16-0.544-0.304-0.792-0.464
		c-1.192-0.76-2.288-1.56-3.264-2.384c-0.208-0.176-0.384-0.352-0.584-0.528c-0.832-0.736-1.584-1.48-2.256-2.216
		c-0.136-0.144-0.288-0.296-0.416-0.44c-0.064-0.072-0.104-0.136-0.16-0.2L174.65,50.098z M135.162,124.362
		c0.216,0.176,0.464,0.336,0.688,0.504c0.528,0.408,1.08,0.808,1.632,1.208c0.712,0.52,1.44,1.024,2.2,1.52
		c0.592,0.392,1.2,0.768,1.816,1.144c0.784,0.48,1.592,0.944,2.424,1.392c0.656,0.36,1.312,0.704,1.992,1.048
		c0.872,0.432,1.768,0.84,2.688,1.24c0.712,0.312,1.416,0.624,2.152,0.912c0.968,0.376,1.976,0.72,2.992,1.056
		c0.76,0.248,1.504,0.512,2.28,0.736c1.096,0.32,2.248,0.576,3.4,0.84c0.768,0.176,1.52,0.376,2.312,0.528
		c1.32,0.248,2.704,0.424,4.096,0.6c0.696,0.088,1.36,0.208,2.08,0.28c2.136,0.2,4.352,0.312,6.648,0.312
		c3.416,0,6.672-0.28,9.824-0.736c0.28-0.04,0.568-0.056,0.84-0.104c2.976-0.472,5.8-1.152,8.528-1.976
		c0.384-0.112,0.776-0.216,1.152-0.336c2.624-0.84,5.12-1.848,7.512-2.968c0.392-0.184,0.776-0.36,1.16-0.552
		c2.336-1.16,4.56-2.432,6.664-3.816c0.328-0.216,0.64-0.432,0.96-0.648c0.56-0.384,1.152-0.752,1.696-1.144l-92.032,173.08h-78.24
		L135.162,124.362z"/>
	<path style="fill:#235413;" d="M324.242,384.002c8.832,0,16-7.168,16-16s-7.168-16-16-16H60.322c-8.84,0-16,7.168-16,16
		s7.16,16,16,16H324.242z"/>
</g>
<g>
</g>
<g>
</g>
<g>
</g>
<g>
</g>
<g>
</g>
<g>
</g>
<g>
</g>
<g>
</g>
<g>
</g>
<g>
</g>
<g>
</g>
<g>
</g>
<g>
</g>
<g>
</g>
<g>
</g>
</svg>
