<?xml version="1.0" encoding="iso-8859-1"?>
<!-- Generator: Adobe Illustrator 19.0.0, SVG Export Plug-In . SVG Version: 6.00 Build 0)  -->
<svg version="1.1" id="Capa_1" xmlns="http://www.w3.org/2000/svg" xmlns:xlink="http://www.w3.org/1999/xlink" x="0px" y="0px"
	 viewBox="0 0 384.007 384.007" style="enable-background:new 0 0 384.007 384.007;" xml:space="preserve">
<path style="fill:#FF833B;" d="M367.968,118.325c0.96,27.6-9.12,55.52-30.16,76.56c-32.32,32.4-80.8,38.88-119.52,19.36l7.76-7.76
	l0.24,0.24c16.08,2.16,32.96-2.96,45.36-15.36c21.12-21.2,21.12-55.44,0-76.64c-21.12-21.12-55.36-21.12-76.48,0
	c-12.4,12.4-17.52,29.28-15.36,45.44l0.24,0.24l-7.76,7.76c-19.44-38.72-13.04-87.2,19.28-119.6c21.04-21.04,54.24-30.8,81.84-29.84
	h94.24L367.968,118.325z"/>
<path style="fill:#D2982C;" d="M271.648,191.365c-12.4,12.4-29.28,17.52-45.36,15.36l-0.24-0.24l-46-46.08l-0.24-0.24
	c-2.16-16.16,2.96-33.04,15.36-45.44c21.12-21.12,55.36-21.12,76.48,0C292.768,135.924,292.768,170.165,271.648,191.365z"/>
<path style="fill:#E4C180;" d="M226.048,206.484l-7.76,7.76l-147.52,147.68c-12.8,11.92-32.8,11.6-45.2-0.8
	c-12.72-12.72-12.72-33.36,0-46.08l146.72-146.88l7.76-7.76L226.048,206.484z"/>
<path style="fill:#235413;" d="M14.2,301.1l-2.528,2.528c-1.112,1.112-1.952,2.368-2.664,3.68C3.184,315.469,0,325.189,0,335.421
	c0,12.984,5.056,25.184,14.232,34.352C23.688,379.228,36,384.004,48.4,384.004c9.464,0,18.928-2.896,27.264-8.504
	c1.672-0.768,3.256-1.792,4.632-3.168l1.448-1.448l0.632-0.568c0.192-0.176,0.328-0.384,0.512-0.568l139.04-139.184
	c13.88,5.36,28.352,8.088,42.752,8.088c30.936,0,61.448-12.096,84.416-35.128c23.224-23.224,35.92-55.344,34.848-88.168l-0.32-99.36
	c-0.032-8.816-7.176-15.952-16-15.952l-93.688,0.024c-27.64-0.92-66.8,7.608-93.72,34.536
	c-33.64,33.72-43.776,83.584-26.952,127.288L14.232,301.06C14.224,301.077,14.208,301.092,14.2,301.1z M36.856,347.148
	C33.72,344.021,32,339.853,32,335.428c0-4.432,1.728-8.6,4.864-11.736L180.016,180.38l23.392,23.432L59.84,347.556
	C53.296,353.645,43.192,353.484,36.856,347.148z M260.312,177.389c-7.272,7.272-16.912,11.16-26.976,11.112l-38.008-38.08
	c-0.056-10.12,3.856-19.776,11.128-27.048c14.856-14.848,39.024-14.832,53.832-0.024
	C275.136,138.253,275.136,162.501,260.312,177.389z M202.856,57.213c16.192-16.2,43.6-26.072,70.52-25.152h78.296l0.264,83.648
	c0,0.168,0,0.336,0.008,0.512c0.84,24.072-8.456,47.648-25.504,64.696c-13.92,13.96-31.6,22.424-50.12,24.936
	c2.304-1.8,4.512-3.752,6.624-5.856c27.248-27.352,27.248-71.864-0.024-99.248c-13.664-13.656-31.608-20.48-49.552-20.48
	s-35.888,6.832-49.552,20.488c-2.08,2.08-4.008,4.264-5.792,6.536C180.552,88.789,188.984,71.125,202.856,57.213z"/>
<g>
</g>
<g>
</g>
<g>
</g>
<g>
</g>
<g>
</g>
<g>
</g>
<g>
</g>
<g>
</g>
<g>
</g>
<g>
</g>
<g>
</g>
<g>
</g>
<g>
</g>
<g>
</g>
<g>
</g>
</svg>
