<?xml version="1.0" encoding="iso-8859-1"?>
<!-- Generator: Adobe Illustrator 19.0.0, SVG Export Plug-In . SVG Version: 6.00 Build 0)  -->
<svg version="1.1" id="Capa_1" xmlns="http://www.w3.org/2000/svg" xmlns:xlink="http://www.w3.org/1999/xlink" x="0px" y="0px"
	 viewBox="0 0 384.032 384.032" style="enable-background:new 0 0 384.032 384.032;" xml:space="preserve">
<path style="fill:#FF7526;" d="M133.071,135.736c-26.8,26.72-70.16,26.72-96.96,0c-26.8-26.8-26.8-70.16,0-96.96
	c26.72-26.8,70.16-26.8,96.96,0C159.791,65.576,159.791,108.936,133.071,135.736z"/>
<path style="fill:#FF833B;" d="M209.071,211.736c-26.72,26.8-70.16,26.8-96.88,0l-76.08-76c26.8,26.72,70.16,26.72,96.96,0
	c26.72-26.8,26.72-70.16,0-96.96l76,76.08C235.871,141.576,235.871,185.016,209.071,211.736z"/>
<path style="fill:#235413;" d="M335.751,313.144v-55.528c0-8.832-7.168-16-16-16s-16,7.168-16,16v23.52l-73.144-73.152
	c9.44-13.864,14.544-30.216,14.544-47.368c0-22.592-8.808-43.816-24.784-59.744l-75.984-76.064l0,0l-0.008-0.016
	c-0.008-0.016-0.024-0.016-0.032-0.032C128.359,8.792,107.127,0,84.551,0c-0.016,0-0.04,0-0.064,0
	c-17.144,0.008-33.48,5.112-47.32,14.544l-9.832-9.832c-6.248-6.248-16.384-6.248-22.624,0c-6.248,6.248-6.248,16.376,0,22.624
	l9.872,9.872c-22.256,32.872-18.888,78.048,10.2,107.16c0,0,0.008,0.008,0.008,0.016l0.016,0.008l0,0l76.04,75.96
	c15.952,16,37.176,24.808,59.768,24.808c17.16,0,33.512-5.104,47.376-14.552l37.928,37.936h-23.528c-8.832,0-16,7.168-16,16
	s7.168,16,16,16h55.52l30.504,30.504c0.016,0.016,0.032,0.032,0.048,0.048l48.232,48.24c3.12,3.136,7.216,4.696,11.312,4.696
	s8.192-1.56,11.312-4.688c3.128-3.12,4.688-7.216,4.688-11.312s-1.56-8.184-4.688-11.312L335.751,313.144z M73.439,96.088
	c3.128,3.128,7.216,4.688,11.312,4.688s8.192-1.56,11.312-4.688c6.248-6.248,6.248-16.376,0-22.624l-35.6-35.6
	c7.336-3.8,15.52-5.848,24.032-5.856c0.008,0,0.024,0,0.04,0c14.04,0,27.256,5.472,37.176,15.4
	c20.44,20.496,20.44,53.84,0.024,74.344c-1,1-2.064,1.912-3.128,2.816c-0.288,0.248-0.56,0.528-0.856,0.768
	c-20.632,16.76-51.144,15.568-70.368-3.584C30.847,105.2,27.679,80.296,37.855,60.52L73.439,96.088z M123.479,197.752l-29.28-29.248
	c1.576-0.176,3.144-0.464,4.704-0.728c0.68-0.12,1.368-0.184,2.056-0.32c2.416-0.472,4.816-1.064,7.192-1.752
	c0.896-0.256,1.776-0.584,2.672-0.88c1.528-0.496,3.048-1,4.552-1.584c1.008-0.392,2-0.832,2.992-1.264
	c1.368-0.592,2.728-1.208,4.064-1.88c1-0.496,1.984-1.016,2.96-1.56c1.328-0.728,2.632-1.504,3.92-2.304
	c0.928-0.576,1.856-1.152,2.76-1.768c1.376-0.936,2.712-1.936,4.04-2.96c0.76-0.584,1.544-1.144,2.288-1.76
	c1.96-1.616,3.872-3.328,5.712-5.144c0.072-0.072,0.152-0.128,0.224-0.2c0.016-0.008,0.024-0.024,0.032-0.032
	c1.912-1.92,3.696-3.928,5.384-5.976c0.56-0.68,1.064-1.392,1.592-2.08c1.088-1.408,2.16-2.832,3.144-4.296
	c0.56-0.832,1.08-1.68,1.616-2.52c0.872-1.384,1.696-2.784,2.48-4.216c0.488-0.888,0.96-1.784,1.416-2.688
	c0.736-1.464,1.408-2.944,2.048-4.44c0.376-0.88,0.768-1.744,1.112-2.632c0.664-1.696,1.24-3.408,1.784-5.128
	c0.224-0.704,0.488-1.4,0.696-2.112c0.704-2.44,1.312-4.896,1.792-7.376c0.088-0.44,0.128-0.888,0.208-1.328
	c0.32-1.776,0.624-3.552,0.824-5.344l29.272,29.304c9.928,9.896,15.4,23.08,15.4,37.104c0,14.032-5.472,27.208-15.4,37.112
	c-0.008,0.008-0.024,0.024-0.032,0.032c-9.896,9.928-23.08,15.4-37.112,15.4C146.575,213.176,133.399,207.704,123.479,197.752z"/>
<g>
</g>
<g>
</g>
<g>
</g>
<g>
</g>
<g>
</g>
<g>
</g>
<g>
</g>
<g>
</g>
<g>
</g>
<g>
</g>
<g>
</g>
<g>
</g>
<g>
</g>
<g>
</g>
<g>
</g>
</svg>
