<?xml version="1.0" encoding="iso-8859-1"?>
<!-- Generator: Adobe Illustrator 19.0.0, SVG Export Plug-In . SVG Version: 6.00 Build 0)  -->
<svg version="1.1" id="Capa_1" xmlns="http://www.w3.org/2000/svg" xmlns:xlink="http://www.w3.org/1999/xlink" x="0px" y="0px"
	 viewBox="0 0 384 384" style="enable-background:new 0 0 384 384;" xml:space="preserve">
<path style="fill:#E4C180;" d="M368.024,156.424v160.8h-88l-87.84,53.44l-49.6-15.04h-0.08c-26.32-8.08-28-36.08-47.28-72.32
	s-79.2-35.68-79.2-35.68v-194l68.32,20.72c-0.16,0.88-0.16,1.76-0.16,2.64c0,16.72,7.12,31.92,18.48,42.56l39.92,39.52l39.84-39.52
	c3.76-3.52,7.04-7.44,9.76-11.84c0.24-0.32,0.48-0.72,0.72-1.12l1.68-0.96l85.44-52c0,0,0,33.68,41.28,60.56
	C362.504,141.064,364.744,142.184,368.024,156.424z"/>
<path style="fill:#FF833B;" d="M142.584,18.664c-31.36,0-56.96,24.64-58.24,55.68c-0.16,0.88-0.16,1.76-0.16,2.64
	c0,16.72,7.12,31.92,18.48,42.56l39.92,39.52l39.84-39.52c3.76-3.52,7.04-7.44,9.76-11.84c0.24-0.32,0.48-0.72,0.72-1.12
	c5.12-8.72,8.08-18.88,8.08-29.6C200.984,44.744,174.824,18.664,142.584,18.664z"/>
<g>
	<path style="fill:#3EAD26;" d="M142.504,355.624l-126.48-38.4v-69.6c0,0,59.92-0.56,79.2,35.68S116.184,347.544,142.504,355.624z"
		/>
	<path style="fill:#3EAD26;" d="M368.024,53.624v102.8c-3.28-14.24-5.52-15.36-46.72-42.24c-41.28-26.88-41.28-60.56-41.28-60.56
		S368.024,53.624,368.024,53.624z"/>
</g>
<g>
	<path style="fill:#235413;" d="M308.92,180.8c-6.24-6.256-16.368-6.256-22.624-0.016l-6.656,6.64l-6.656-6.64
		c-6.256-6.24-16.384-6.24-22.624,0.016c-6.248,6.256-6.232,16.384,0.016,22.632l6.616,6.608l-6.616,6.608
		c-6.248,6.24-6.264,16.376-0.016,22.632c3.128,3.128,7.216,4.696,11.32,4.696c4.096,0,8.176-1.56,11.304-4.68l6.656-6.64
		l6.656,6.64c3.128,3.12,7.208,4.68,11.304,4.68c4.104,0,8.192-1.568,11.32-4.696c6.248-6.256,6.232-16.384-0.016-22.632
		l-6.616-6.608l6.616-6.608C315.152,197.184,315.168,187.056,308.92,180.8z"/>
	<path style="fill:#235413;" d="M142.56,98.08c13.768,0,24.96-11.192,24.96-24.96c0-13.76-11.192-24.96-24.96-24.96
		c-13.768,0-24.96,11.2-24.96,24.96S128.8,98.08,142.56,98.08z"/>
	<path style="fill:#235413;" d="M368,34.96h-88c-0.064,0-0.12,0.016-0.184,0.016c-0.16,0-0.32,0.04-0.48,0.048
		c-1.112,0.048-2.2,0.216-3.264,0.488c-0.352,0.088-0.696,0.2-1.048,0.32c-0.944,0.312-1.848,0.704-2.712,1.184
		c-0.2,0.112-0.424,0.152-0.624,0.272l-54.904,33.424C214.872,31.416,182.368,0,142.56,0c-33.04,0-60.968,21.336-70.624,51.208
		L20.64,35.656c-4.84-1.464-10.104-0.56-14.168,2.464C2.4,41.128,0,45.896,0,50.96v194v69.6c0,7.048,4.608,13.264,11.352,15.312
		l126.4,38.384c0.008,0,0.016,0.008,0.024,0.008c0.288,0.088,0.584,0.168,0.88,0.24l48.848,14.816
		c0.144,0.04,0.288,0.024,0.432,0.064c1.352,0.36,2.736,0.616,4.2,0.616h0.016h0.008c0.024,0,0.048-0.008,0.072-0.008
		c1.312-0.008,2.56-0.216,3.784-0.52c0.368-0.088,0.72-0.216,1.08-0.336c0.96-0.312,1.872-0.712,2.744-1.192
		c0.208-0.112,0.44-0.16,0.648-0.28l83.992-51.104H368c8.832,0,16-7.168,16-16v-160.8V50.96C384,42.128,376.832,34.96,368,34.96z
		 M352,112.56c-2.424-1.632-5.12-3.416-7.968-5.28c-0.592-0.392-1.232-0.808-1.84-1.208c-2.776-1.816-5.672-3.712-8.864-5.792
		l-3.32-2.168c-4.096-2.664-7.696-5.392-10.864-8.112c-0.088-0.08-0.168-0.16-0.256-0.24c-1.48-1.28-2.88-2.568-4.176-3.848
		c-0.104-0.096-0.176-0.192-0.28-0.296c-1.264-1.256-2.456-2.512-3.544-3.752c-0.168-0.192-0.304-0.376-0.464-0.56
		c-0.984-1.144-1.936-2.28-2.792-3.392c-0.296-0.392-0.544-0.768-0.824-1.152c-0.664-0.904-1.328-1.808-1.912-2.68
		c-0.4-0.6-0.728-1.176-1.088-1.76c-0.392-0.64-0.824-1.288-1.176-1.912c-0.536-0.936-0.992-1.832-1.448-2.72
		c-0.12-0.232-0.264-0.488-0.376-0.72H352V112.56z M142.56,32c23.376,0,42.4,18.984,42.4,42.32c0,7.512-2.032,14.952-5.568,21.072
		c-0.128,0.176-0.24,0.36-0.368,0.536c-0.08,0.112-0.152,0.224-0.232,0.336c-0.08,0.12-0.168,0.24-0.248,0.36
		c-1.912,3.088-4.224,5.888-7.416,8.888l-28.584,28.36L113.576,105.2c-8.488-7.952-13.368-19.128-13.416-31.264
		c0.072-0.528,0.12-1.064,0.144-1.6C101.24,49.72,119.808,32,142.56,32z M32,302.696v-40.384c2.92,0.416,6.064,0.984,9.36,1.704
		c1.168,0.264,2.328,0.52,3.512,0.824c0.544,0.136,1.096,0.296,1.648,0.44c9.08,2.504,18.248,6.328,25.32,12.032
		c0.192,0.16,0.392,0.32,0.584,0.48c1.48,1.232,2.824,2.576,4.08,3.984c0.288,0.328,0.608,0.632,0.88,0.968
		c1.392,1.68,2.656,3.464,3.688,5.4c5.448,10.24,9.52,20.104,13.128,28.808c0.736,1.776,1.472,3.544,2.2,5.296L32,302.696z
		 M280,298.56c-2.928,0-5.816,0.808-8.312,2.336l-63.552,38.664v-67.664c0-8.832-7.168-16-16-16s-16,7.168-16,16v74.536
		l-28.936-8.784c-0.072-0.024-0.144-0.04-0.216-0.064c-0.752-0.24-1.416-0.56-2.104-0.856c-0.552-0.24-1.144-0.448-1.664-0.728
		c-0.616-0.336-1.168-0.752-1.744-1.144c-0.488-0.336-1-0.632-1.464-1.016c-0.536-0.44-1.024-0.976-1.528-1.488
		c-0.448-0.448-0.912-0.848-1.336-1.352c-0.472-0.552-0.912-1.216-1.368-1.832c-0.424-0.576-0.856-1.104-1.272-1.736
		c-0.424-0.656-0.84-1.432-1.264-2.16c-0.424-0.728-0.848-1.408-1.272-2.208c-0.384-0.728-0.776-1.584-1.168-2.368
		c-0.464-0.944-0.92-1.824-1.392-2.848c-0.304-0.664-0.632-1.44-0.944-2.144c-1.456-3.264-2.976-6.848-4.696-11
		c-3.872-9.368-8.272-19.992-14.448-31.592c-1.328-2.488-2.824-4.784-4.408-7c-0.424-0.6-0.864-1.168-1.312-1.752
		c-1.368-1.784-2.8-3.488-4.312-5.104c-0.312-0.336-0.608-0.696-0.936-1.024c-1.88-1.92-3.848-3.712-5.904-5.384
		c-0.336-0.272-0.68-0.52-1.016-0.784c-1.848-1.464-3.752-2.832-5.712-4.112c-0.344-0.224-0.68-0.456-1.024-0.672
		c-4.672-2.968-9.56-5.464-14.512-7.544c-0.08-0.032-0.152-0.064-0.232-0.096c-13.656-5.712-27.632-8.408-37.968-9.632V72.528
		l36.76,11.152c0.184,1.416,0.464,2.816,0.728,4.224c0.112,0.608,0.184,1.216,0.312,1.816c0.488,2.288,1.08,4.544,1.776,6.768
		c0.176,0.568,0.408,1.12,0.6,1.688c0.56,1.656,1.16,3.296,1.832,4.904c0.328,0.776,0.696,1.536,1.048,2.296
		c0.632,1.376,1.288,2.728,2,4.056c0.424,0.792,0.864,1.568,1.312,2.336c0.744,1.28,1.528,2.528,2.352,3.76
		c0.488,0.736,0.968,1.464,1.488,2.176c0.92,1.28,1.904,2.52,2.904,3.736c0.48,0.584,0.936,1.192,1.44,1.76
		c1.536,1.752,3.136,3.448,4.84,5.04l39.92,39.52c1.384,1.376,2.976,2.392,4.664,3.152c0.208,0.096,0.4,0.232,0.608,0.32
		c0.04,0.016,0.088,0.024,0.136,0.04c1.88,0.736,3.864,1.12,5.848,1.12c4.08,0,8.152-1.544,11.264-4.64l22.328-22.152v38.632
		c0,8.832,7.168,16,16,16c8.84,0,16-7.168,16-16v-70.816l61.696-37.552c0.064,0.16,0.16,0.336,0.224,0.496
		c0.384,0.92,0.848,1.88,1.288,2.832c0.416,0.912,0.808,1.8,1.28,2.736c0.512,1.016,1.104,2.064,1.68,3.104
		c0.504,0.92,0.976,1.824,1.528,2.768c0.648,1.096,1.4,2.208,2.12,3.32c0.592,0.92,1.144,1.824,1.792,2.752
		c0.808,1.16,1.744,2.344,2.64,3.52c0.688,0.904,1.32,1.8,2.064,2.712c0.992,1.216,2.12,2.432,3.216,3.656
		c0.784,0.88,1.504,1.76,2.344,2.64c1.216,1.28,2.592,2.544,3.928,3.824c0.864,0.824,1.648,1.648,2.552,2.464
		c1.576,1.408,3.32,2.8,5.056,4.192c0.824,0.664,1.56,1.344,2.424,2c2.672,2.04,5.512,4.064,8.552,6.04l3.304,2.16
		c2.904,1.896,5.496,3.584,7.936,5.184c1.048,0.688,2.104,1.376,3.072,2.008c0.672,0.44,1.272,0.84,1.912,1.256
		c0.912,0.6,1.816,1.192,2.656,1.752c0.568,0.376,1.08,0.712,1.608,1.064c0.816,0.544,1.616,1.072,2.36,1.576
		c0.512,0.344,0.992,0.672,1.472,0.992c0.656,0.448,1.296,0.88,1.896,1.288c0.432,0.296,0.848,0.584,1.248,0.864
		c0.584,0.408,1.136,0.792,1.656,1.168c0.344,0.248,0.688,0.488,1.008,0.72c0.488,0.352,0.944,0.688,1.376,1.016
		c0.296,0.216,0.584,0.44,0.856,0.648c0.4,0.304,0.768,0.6,1.12,0.888c0.232,0.184,0.472,0.376,0.688,0.56
		c0.344,0.288,0.648,0.56,0.944,0.824c0.168,0.152,0.344,0.304,0.496,0.448c0.304,0.288,0.568,0.56,0.816,0.824
		c0.104,0.112,0.224,0.224,0.32,0.336c0.328,0.36,0.616,0.712,0.864,1.056l0.008,0.008c0.264,0.36,0.488,0.712,0.68,1.064
		c0.024,0.048,0.048,0.096,0.064,0.136c0.16,0.304,0.312,0.6,0.432,0.904c0.04,0.088,0.064,0.184,0.104,0.272
		c0.104,0.272,0.2,0.536,0.288,0.824c0.032,0.104,0.056,0.208,0.088,0.312c0.056,0.2,0.112,0.408,0.168,0.616v142.88H280V298.56z"/>
</g>
<g>
</g>
<g>
</g>
<g>
</g>
<g>
</g>
<g>
</g>
<g>
</g>
<g>
</g>
<g>
</g>
<g>
</g>
<g>
</g>
<g>
</g>
<g>
</g>
<g>
</g>
<g>
</g>
<g>
</g>
</svg>
