<?xml version="1.0" encoding="iso-8859-1"?>
<!-- Generator: Adobe Illustrator 19.0.0, SVG Export Plug-In . SVG Version: 6.00 Build 0)  -->
<svg version="1.1" id="Capa_1" xmlns="http://www.w3.org/2000/svg" xmlns:xlink="http://www.w3.org/1999/xlink" x="0px" y="0px"
	 viewBox="0 0 384.005 384.005" style="enable-background:new 0 0 384.005 384.005;" xml:space="preserve">
<path style="fill:#51B53B;" d="M227.409,18.669c33.296,5.816,65.2,21.664,90.928,47.576c66.32,66.808,66.32,175.112,0,241.928
	c-66.344,66.808-173.864,66.808-240.2,0c-66.32-66.816-66.32-175.12,0-241.928c24.848-25.008,55.456-40.656,87.52-46.952
	c0,0,10.584,49.824,32.584,49.824C220.241,69.125,227.409,18.669,227.409,18.669z"/>
<path style="fill:#235413;" d="M4.777,379.357c3.12,3.104,7.192,4.648,11.272,4.648c4.112,0,8.224-1.576,11.352-4.728l51.216-51.584
	c33.44,28.4,75.32,43.912,119.584,43.912h0.008c49.656,0,96.344-19.48,131.464-54.832c72.376-72.912,72.376-191.552,0-264.472
	c-27.248-27.448-61.664-45.456-99.528-52.064c-4.24-0.744-8.64,0.28-12.144,2.816s-5.832,6.392-6.448,10.68
	c-2.264,15.648-8.784,33.128-13.48,36.52c-4.704-2.72-12.952-19.104-16.784-36.952c-1.816-8.544-10.176-14.112-18.736-12.376
	c-36.368,7.144-69.496,24.904-95.792,51.376C-1.847,121.413-5.311,231.525,56.129,304.925l-51.44,51.8
	C-1.527,363.005-1.495,373.133,4.777,379.357z M89.465,74.853c18.232-18.352,40.408-31.648,64.8-38.952
	c6.4,19.64,19.616,46.552,43.944,46.552c24.6,0,36.328-27.736,41.536-47.264c25.344,7.112,48.344,20.648,67.216,39.656
	c60.032,60.48,60.032,158.896,0,219.376c-29.064,29.264-67.688,45.376-108.76,45.376c-35.744,0-69.616-12.232-96.96-34.696
	l34.248-34.488c0.016-0.016,0.032-0.032,0.048-0.048l21.088-21.24h57.616c8.832,0,16-7.168,16-16s-7.168-16-16-16h-25.848
	l28.784-28.992l57.592,0.016h0.008c8.832,0,15.992-7.16,16-16c0-8.832-7.16-16-16-16l-25.832-0.008l13.6-13.696
	c6.224-6.272,6.184-16.4-0.08-22.632c-6.272-6.224-16.4-6.192-22.632,0.08l-40.576,40.872c-0.04,0.04-0.072,0.072-0.112,0.112
	l-2.912,2.936v-25.912c0-8.832-7.16-16-16-16c-8.832,0-16,7.168-16,16v58.144l-24.04,24.208v-25.92c0-8.84-7.16-16-16-16
	s-16,7.168-16,16l0.008,58.144l-29.488,29.696C29.681,221.317,33.257,131.469,89.465,74.853z"/>
<g>
</g>
<g>
</g>
<g>
</g>
<g>
</g>
<g>
</g>
<g>
</g>
<g>
</g>
<g>
</g>
<g>
</g>
<g>
</g>
<g>
</g>
<g>
</g>
<g>
</g>
<g>
</g>
<g>
</g>
</svg>
