<?xml version="1.0" encoding="iso-8859-1"?>
<!-- Generator: Adobe Illustrator 19.0.0, SVG Export Plug-In . SVG Version: 6.00 Build 0)  -->
<svg version="1.1" id="Capa_1" xmlns="http://www.w3.org/2000/svg" xmlns:xlink="http://www.w3.org/1999/xlink" x="0px" y="0px"
	 viewBox="0 0 383.983 383.983" style="enable-background:new 0 0 383.983 383.983;" xml:space="preserve">
<path style="fill:#D9D8D2;" d="M312.18,180.751c-83.92,69.12-107.36,88.4-108.72,89.52c-0.08,0.08-0.08,0.08-0.08,0.08l-61.68-72.48
	l217.44-179.2C359.14,18.671,398.74,109.391,312.18,180.751z"/>
<g>
	<polygon style="fill:#51B53B;" points="203.38,270.351 158.02,307.791 96.34,235.311 141.7,197.871 	"/>
	<path style="fill:#51B53B;" d="M113.14,344.671l-18.08,14.96c-20.32,16.8-50.64,14.16-67.68-5.92c-17.04-20-14.32-49.76,6-66.48
		l18.08-14.96L113.14,344.671z"/>
</g>
<polygon style="fill:#FF833B;" points="158.02,307.791 113.14,344.671 51.46,272.271 96.34,235.311 "/>
<path style="fill:#235413;" d="M64.268,383.983c14.472,0,29.032-4.816,40.976-14.688l18.08-14.96
	c0.008-0.008,0.008-0.016,0.016-0.016l44.816-36.824c0,0,0,0,0.008-0.008s0.016-0.008,0.024-0.016l33.264-27.456l20.672,24.28
	c3.168,3.72,7.664,5.64,12.192,5.64c3.664,0,7.344-1.248,10.352-3.808c6.736-5.72,7.552-15.824,1.832-22.552l-20.368-23.92
	l96.192-79.208c0,0,0,0,0.008,0c94.784-78.152,51.896-179.824,51.448-180.84c-2.008-4.6-6.056-7.992-10.936-9.16
	c-4.872-1.184-10.032,0.016-13.904,3.208l-205.256,169.16l-19.656-23.088c-5.728-6.736-15.832-7.552-22.552-1.832
	c-6.736,5.72-7.552,15.816-1.84,22.552l19.36,22.736l-32.872,27.128c0,0,0,0-0.008,0.008L41.26,257.263l-0.008,0.008
	c-0.008,0.008-0.016,0.016-0.024,0.016l-18.04,14.928c-13.2,10.864-21.304,26.16-22.8,43.064
	c-1.488,16.832,3.768,33.224,14.76,46.128C27.804,376.295,45.972,383.983,64.268,383.983z M94.332,255.007l40.928,48.096
	l-20.16,16.56l-40.936-48.048L94.332,255.007z M139.708,217.583l40.936,48.112l-20.672,17.064l-40.944-48.112L139.708,217.583z
	 M350.372,43.943c4.904,28.096,4.032,78.576-48.4,121.792l-96.592,79.544l-40.952-48.096L350.372,43.943z M43.564,296.895
	l5.92-4.904l22.728,26.672l18.2,21.368l-5.568,4.608c-13.584,11.232-33.904,9.472-45.304-3.968
	c-5.416-6.344-7.992-14.36-7.264-22.576C33.004,309.807,36.996,302.287,43.564,296.895z"/>
<g>
</g>
<g>
</g>
<g>
</g>
<g>
</g>
<g>
</g>
<g>
</g>
<g>
</g>
<g>
</g>
<g>
</g>
<g>
</g>
<g>
</g>
<g>
</g>
<g>
</g>
<g>
</g>
<g>
</g>
</svg>
