<?xml version="1.0" encoding="iso-8859-1"?>
<!-- Generator: Adobe Illustrator 19.0.0, SVG Export Plug-In . SVG Version: 6.00 Build 0)  -->
<svg version="1.1" id="Capa_1" xmlns="http://www.w3.org/2000/svg" xmlns:xlink="http://www.w3.org/1999/xlink" x="0px" y="0px"
	 viewBox="0 0 383.85 383.85" style="enable-background:new 0 0 383.85 383.85;" xml:space="preserve">
<path style="fill:#51B53B;" d="M256.927,86.181c25.392-26.144,66.544-26.12,91.944,0.056c25.408,26.176,25.44,68.6,0.064,94.744
	c-25.384,26.16-66.552,26.128-91.96-0.048C231.591,154.773,231.559,112.341,256.927,86.181z"/>
<g>
	<path style="fill:#235413;" d="M360.335,72.429c-15.328-15.8-35.744-24.504-57.48-24.504c-0.008,0-0.016,0-0.024,0
		c-21.712,0-42.096,8.68-57.408,24.44l-0.008,0.008c-27.592,28.448-30.8,72.616-9.704,104.792l-106.28,109.544
		c-10.784,11.096-25.08,17.216-40.256,17.216c-0.008,0-0.008,0-0.008,0c-15.192,0-29.504-6.136-40.304-17.256
		c-18.6-19.168-21.896-48.224-9.872-70.864l18.176,18.744c4.336,4.456,10.832,5.992,16.68,3.992
		c5.864-2.008,10.04-7.232,10.712-13.392l7.944-72.704c0.744-6.792-2.912-13.312-9.096-16.216
		c-6.208-2.92-13.536-1.568-18.296,3.336l-39.2,40.4c-0.04,0.032-0.072,0.072-0.104,0.104
		c-34.44,35.536-34.408,93.336,0.088,128.888c16.88,17.384,39.344,26.968,63.264,26.968c0.008,0,0.008,0,0.016,0
		c23.896,0,46.352-9.56,63.216-26.936l105.712-108.944c13.184,9.016,28.656,13.864,44.872,13.864
		c21.72,0,42.112-8.688,57.416-24.456C391.695,157.213,391.663,104.717,360.335,72.429z M337.423,167.165
		c-9.216,9.504-21.456,14.744-34.448,14.744c-13.024,0-25.288-5.256-34.544-14.792c-19.4-19.992-19.416-52.504-0.048-72.472
		c9.24-9.488,21.464-14.72,34.448-14.72c0.008,0,0.008,0,0.016,0c13.008,0,25.264,5.256,34.52,14.792
		C356.767,114.709,356.799,147.213,337.423,167.165z"/>
	<path style="fill:#235413;" d="M302.919,105.381c-0.016,0-0.032,0-0.04,0c-6.816,0.008-13.192,2.728-17.976,7.648
		c-9.608,9.864-9.608,25.912-0.032,35.744c4.776,4.944,11.16,7.672,17.984,7.688c0.024,0,0.04,0,0.056,0
		c6.824,0,13.224-2.712,18.024-7.64c9.56-9.816,9.592-25.856-0.024-35.832C316.111,108.077,309.727,105.381,302.919,105.381z"/>
</g>
<g>
</g>
<g>
</g>
<g>
</g>
<g>
</g>
<g>
</g>
<g>
</g>
<g>
</g>
<g>
</g>
<g>
</g>
<g>
</g>
<g>
</g>
<g>
</g>
<g>
</g>
<g>
</g>
<g>
</g>
</svg>
