<?xml version="1.0" encoding="iso-8859-1"?>
<!-- Generator: Adobe Illustrator 19.0.0, SVG Export Plug-In . SVG Version: 6.00 Build 0)  -->
<svg version="1.1" id="Capa_1" xmlns="http://www.w3.org/2000/svg" xmlns:xlink="http://www.w3.org/1999/xlink" x="0px" y="0px"
	 viewBox="0 0 384 384" style="enable-background:new 0 0 384 384;" xml:space="preserve">
<polygon style="fill:#D2982C;" points="42.092,139.16 159.996,139.16 151.548,191.792 50.532,191.792 "/>
<g>
	<path style="fill:#E4C180;" d="M162.044,94.752H40.036c0,0-2.432-76.08,61.008-76.08C164.492,18.664,162.044,94.752,162.044,94.752
		z"/>
	<path style="fill:#E4C180;" d="M139.78,283.72v14.896c0,21.848-17.352,39.584-38.736,39.584S62.3,320.464,62.3,298.616V283.72
		c0,0,11.56-3.504,38.744-3.504C128.22,280.216,139.78,283.72,139.78,283.72z"/>
</g>
<polygon style="fill:#D2982C;" points="224.052,171.616 341.956,171.616 333.516,224.264 232.5,224.264 "/>
<g>
	<path style="fill:#E4C180;" d="M344.012,127.216H222.004c0,0-2.448-76.08,61-76.08C346.444,51.128,344.012,127.216,344.012,127.216
		z"/>
	<path style="fill:#E4C180;" d="M321.748,316.184v14.896c0,21.864-17.352,39.584-38.744,39.584
		c-21.384,0-38.736-17.72-38.736-39.584v-14.896c0,0,11.56-3.504,38.736-3.504C310.188,312.68,321.748,316.184,321.748,316.184z"/>
</g>
<g>
	<path style="fill:#235413;" d="M167.324,191.664l8.44-52.64c0.744-4.632-0.584-9.344-3.624-12.912
		c-3.04-3.568-7.488-5.624-12.176-5.624H42.068c-4.688,0-9.136,2.056-12.176,5.624s-4.36,8.288-3.624,12.912l8.44,52.64
		c1.24,7.76,7.936,13.464,15.8,13.464h101.016C159.388,205.128,166.084,199.424,167.324,191.664z M137.892,173.128H64.148
		l-3.312-20.64h80.368L137.892,173.128z"/>
	<path style="fill:#235413;" d="M24.02,92.592c0.28,8.632,7.36,15.488,15.992,15.488H162.02c8.64,0,15.712-6.856,15.992-15.488
		c0.056-1.824,1.144-44.984-24.872-71.848C139.812,6.984,122.276,0,101.02,0C79.772,0,62.236,6.984,48.9,20.744
		C22.892,47.608,23.964,90.768,24.02,92.592z M71.892,43.008C79.068,35.6,88.596,32,101.02,32c12.384,0,21.888,3.576,29.048,10.92
		c9.008,9.24,12.944,22.72,14.648,33.16H57.332C59.052,65.672,62.972,52.224,71.892,43.008z"/>
	<path style="fill:#235413;" d="M46.284,281.056v14.896c0,30.648,24.56,55.584,54.744,55.584s54.736-24.936,54.736-55.584v-14.896
		c0-7.048-4.616-13.264-11.36-15.312c-1.416-0.432-14.656-4.192-43.376-4.192c-28.728,0-41.968,3.76-43.384,4.192
		C50.892,267.792,46.284,274.008,46.284,281.056z M78.284,294.6c5.472-0.568,12.984-1.048,22.744-1.048
		c9.752,0,17.264,0.48,22.736,1.048v1.352c0,13-10.2,23.584-22.736,23.584s-22.744-10.576-22.744-23.584L78.284,294.6L78.284,294.6z
		"/>
	<path style="fill:#235413;" d="M126.932,249.28c8.832,0,16-7.168,16-16s-7.168-16-16-16H75.124c-8.832,0-16,7.168-16,16
		s7.168,16,16,16H126.932z"/>
	<path style="fill:#235413;" d="M349.292,224.128l8.44-52.64c0.744-4.632-0.584-9.344-3.624-12.912
		c-3.04-3.568-7.488-5.624-12.176-5.624H224.036c-4.688,0-9.136,2.056-12.176,5.624s-4.36,8.288-3.624,12.912l8.44,52.64
		c1.24,7.76,7.936,13.464,15.8,13.464h101.016C341.356,237.592,348.052,231.888,349.292,224.128z M319.86,205.592h-73.744
		l-3.312-20.64h80.36L319.86,205.592z"/>
	<path style="fill:#235413;" d="M205.988,125.064c0.28,8.632,7.36,15.488,15.992,15.488h122.008c8.64,0,15.712-6.856,15.992-15.488
		c0.056-1.824,1.128-44.984-24.88-71.848c-13.336-13.76-30.864-20.744-52.12-20.744c-21.256,0-38.792,6.984-52.12,20.744
		C204.852,80.072,205.932,123.24,205.988,125.064z M253.852,75.472c7.168-7.408,16.704-11.008,29.136-11.008
		c12.384,0,21.88,3.568,29.048,10.92c9.008,9.24,12.944,22.72,14.656,33.16H239.3C241.012,98.136,244.932,84.688,253.852,75.472z"/>
	<path style="fill:#235413;" d="M228.252,313.52v14.896c0,30.648,24.552,55.584,54.736,55.584s54.744-24.936,54.744-55.584V313.52
		c0-7.048-4.616-13.264-11.36-15.312c-1.416-0.432-14.656-4.192-43.384-4.192c-28.72,0-41.96,3.76-43.376,4.192
		C232.86,300.256,228.252,306.472,228.252,313.52z M260.252,327.064c5.472-0.568,12.984-1.048,22.736-1.048
		c9.752,0,17.272,0.48,22.744,1.048v1.352c0,13-10.2,23.584-22.744,23.584c-12.536,0-22.736-10.576-22.736-23.584V327.064z"/>
	<path style="fill:#235413;" d="M308.884,281.744c8.832,0,16-7.168,16-16s-7.168-16-16-16h-51.816c-8.832,0-16,7.168-16,16
		s7.168,16,16,16H308.884z"/>
</g>
<g>
</g>
<g>
</g>
<g>
</g>
<g>
</g>
<g>
</g>
<g>
</g>
<g>
</g>
<g>
</g>
<g>
</g>
<g>
</g>
<g>
</g>
<g>
</g>
<g>
</g>
<g>
</g>
<g>
</g>
</svg>
