<?xml version="1.0" encoding="iso-8859-1"?>
<!-- Generator: Adobe Illustrator 19.0.0, SVG Export Plug-In . SVG Version: 6.00 Build 0)  -->
<svg version="1.1" id="Capa_1" xmlns="http://www.w3.org/2000/svg" xmlns:xlink="http://www.w3.org/1999/xlink" x="0px" y="0px"
	 viewBox="0 0 384 384" style="enable-background:new 0 0 384 384;" xml:space="preserve">
<polygon style="fill:#51B53B;" points="368.024,57.784 276.664,149.144 217.864,208.024 172.024,253.864 171.944,253.864 
	132.824,214.744 328.904,18.664 "/>
<g>
	
		<rect x="105.152" y="226.22" transform="matrix(-0.7071 0.7071 -0.7071 -0.7071 406.254 339.492)" style="fill:#FF7526;" width="55.327" height="55.327"/>
	<polygon style="fill:#FF7526;" points="93.704,332.104 55.144,370.664 35.624,351.064 16.024,331.544 54.584,292.984 	"/>
</g>
<rect x="66.06" y="265.355" transform="matrix(-0.7071 0.7071 -0.7071 -0.7071 367.193 433.942)" style="fill:#FF833B;" width="55.327" height="55.327"/>
<path style="fill:#235413;" d="M383.68,51.976c-0.072-0.352-0.208-0.672-0.304-1.016c-0.176-0.672-0.344-1.336-0.616-1.984
	c-0.144-0.352-0.36-0.664-0.528-1c-0.296-0.6-0.576-1.2-0.96-1.768c-0.232-0.344-0.528-0.64-0.784-0.96
	c-0.384-0.488-0.736-1-1.184-1.448l-39.12-39.12C337.192,1.688,333.128,0,328.88,0c-4.24,0-8.312,1.688-11.312,4.688l-53.96,53.96
	l-8.176-8.168c-6.248-6.24-16.392-6.248-22.624,0c-6.248,6.248-6.248,16.384,0,22.632l8.168,8.168l-36.088,36.088l-8.16-8.168
	c-6.248-6.248-16.368-6.256-22.632-0.016c-6.248,6.248-6.256,16.376-0.008,22.632l8.168,8.176L132.8,189.448l-11.368-11.368
	c-9.056-9.12-21.128-14.144-33.984-14.144l0,0c-12.856,0-24.928,5.016-33.944,14.088L20.528,210.92
	c-9.112,9.12-14.128,21.232-14.104,34.104c0.016,12.832,5.04,24.88,14.104,33.88l11.408,11.408L4.688,317.56
	C1.68,320.568-0.008,324.648,0,328.896c0,4.248,1.696,8.328,4.712,11.32l39.072,39.072c3,3.016,7.032,4.352,11.336,4.712
	c4.24,0,8.312-1.688,11.312-4.688l38.56-38.56l39.12-39.12l38.76-38.768c0.136-0.128,0.304-0.224,0.44-0.36l34.528-34.544
	l8.136,8.128c3.128,3.128,7.216,4.68,11.312,4.68s8.192-1.56,11.32-4.688c6.24-6.248,6.24-16.384-0.008-22.624l-8.136-8.128
	l36.192-36.208l8.144,8.144c3.128,3.12,7.216,4.68,11.312,4.68s8.184-1.56,11.312-4.688c6.248-6.248,6.248-16.376,0-22.632
	l-8.144-8.144L352,93.76v248.064c0,5.608-4.56,10.176-10.176,10.176c-5.6,0-10.152-4.56-10.152-10.168c0-8.832-7.168-16-16-16
	H287.84c-8.832,0-16,7.168-16,16s7.168,16,16,16h14.976C309.136,373.168,324.24,384,341.824,384C365.08,384,384,365.08,384,341.824
	V55.136v-0.008C384,54.072,383.888,53.016,383.68,51.976z M43.144,233.568l33.008-32.928c3.008-3.024,7.016-4.696,11.296-4.696
	c4.272,0,8.28,1.664,11.328,4.736l11.408,11.408l-27.808,27.808l-27.808,27.808l-11.44-11.44c-3.016-3-4.688-7.008-4.696-11.28
	C38.416,240.664,40.096,236.608,43.144,233.568z M55.144,345.344l-16.496-16.496l15.904-15.904L71.04,329.44L55.144,345.344z
	 M93.68,306.816L77.184,290.32l16.496-16.496l16.488,16.496L93.68,306.816z M132.8,267.688L116.312,251.2l16.496-16.488
	l16.488,16.488L132.8,267.688z M265.376,135.16c-0.008,0.008-0.024,0.016-0.04,0.032c-0.016,0.016-0.016,0.024-0.032,0.04
	l-58.552,58.576c-0.08,0.08-0.176,0.136-0.264,0.216c-0.08,0.08-0.136,0.176-0.208,0.256l-34.32,34.336l-16.528-16.528
	L328.88,38.632l16.496,16.488L265.376,135.16z"/>
<g>
</g>
<g>
</g>
<g>
</g>
<g>
</g>
<g>
</g>
<g>
</g>
<g>
</g>
<g>
</g>
<g>
</g>
<g>
</g>
<g>
</g>
<g>
</g>
<g>
</g>
<g>
</g>
<g>
</g>
</svg>
