<?xml version="1.0" encoding="iso-8859-1"?>
<!-- Generator: Adobe Illustrator 19.0.0, SVG Export Plug-In . SVG Version: 6.00 Build 0)  -->
<svg version="1.1" id="Capa_1" xmlns="http://www.w3.org/2000/svg" xmlns:xlink="http://www.w3.org/1999/xlink" x="0px" y="0px"
	 viewBox="0 0 384.001 384.001" style="enable-background:new 0 0 384.001 384.001;" xml:space="preserve">
<path style="fill:#D9D8D2;" d="M254.848,359.136c-66.224-25.28-113.256-89.392-113.256-164.472
	c0-75.096,47.032-139.192,113.264-164.472h0.008c-19.496-7.448-40.68-11.528-62.8-11.528c-97.224,0-176.04,78.8-176.04,176
	s78.816,176,176.04,176C214.176,370.664,235.352,366.592,254.848,359.136z"/>
<polygon style="fill:#DBAD56;" points="289.32,110.328 310.256,174.752 368.024,174.752 323.184,214.568 344.128,279.008 
	289.32,239.168 234.496,279.008 255.44,214.568 210.6,174.752 268.368,174.752 "/>
<g>
	<path style="fill:#235413;" d="M0,192c0,105.872,86.152,192,192.04,192c23.208,0,45.88-4.144,67.408-12.224
		c0.064-0.016,0.128-0.04,0.184-0.064c0.296-0.112,0.6-0.184,0.896-0.296c1.12-0.432,2.152-0.992,3.12-1.624
		c0.168-0.112,0.312-0.256,0.48-0.376c1.032-0.744,1.944-1.6,2.76-2.544c0.2-0.232,0.408-0.456,0.6-0.704
		c0.872-1.144,1.592-2.392,2.128-3.72c0.04-0.096,0.112-0.168,0.152-0.264c0.12-0.312,0.152-0.624,0.256-0.936
		c0.176-0.56,0.344-1.12,0.464-1.704c0.096-0.496,0.144-0.984,0.192-1.48c0.056-0.528,0.104-1.056,0.104-1.6
		c0-0.536-0.048-1.064-0.104-1.592c-0.048-0.496-0.096-0.984-0.2-1.48c-0.112-0.576-0.28-1.128-0.456-1.688
		c-0.096-0.312-0.136-0.632-0.256-0.944c-0.056-0.136-0.136-0.248-0.192-0.384c-0.224-0.544-0.504-1.048-0.784-1.56
		c-0.232-0.424-0.44-0.848-0.704-1.24c-0.296-0.44-0.64-0.832-0.976-1.24c-0.328-0.4-0.64-0.808-1-1.168
		c-0.352-0.352-0.752-0.656-1.136-0.976c-0.416-0.344-0.824-0.696-1.264-0.992c-0.392-0.264-0.824-0.472-1.24-0.704
		c-0.512-0.28-1.016-0.552-1.552-0.776c-0.136-0.056-0.256-0.144-0.392-0.2c-61.584-23.504-102.96-83.6-102.96-149.52
		S198.952,65.984,260.536,42.48c0.144-0.056,0.264-0.144,0.408-0.208c0.528-0.216,1.016-0.488,1.52-0.76
		c0.424-0.232,0.864-0.448,1.264-0.712c0.456-0.304,0.864-0.664,1.288-1.008c0.376-0.312,0.768-0.608,1.104-0.944
		c0.384-0.384,0.72-0.816,1.064-1.24c0.304-0.376,0.632-0.744,0.904-1.144c0.288-0.432,0.528-0.912,0.784-1.376
		c0.248-0.464,0.504-0.92,0.704-1.408c0.064-0.152,0.16-0.272,0.216-0.424c0.136-0.352,0.184-0.712,0.288-1.064
		c0.152-0.504,0.304-1,0.408-1.512c0.112-0.552,0.168-1.096,0.224-1.648c0.04-0.472,0.088-0.944,0.088-1.416
		c0-0.6-0.048-1.184-0.112-1.768c-0.048-0.44-0.088-0.872-0.176-1.304c-0.12-0.64-0.312-1.256-0.504-1.872
		c-0.088-0.272-0.12-0.552-0.224-0.816c-0.048-0.12-0.12-0.216-0.168-0.328c-0.24-0.592-0.544-1.152-0.856-1.712
		c-0.208-0.376-0.4-0.76-0.632-1.12c-0.312-0.472-0.688-0.904-1.056-1.344c-0.304-0.36-0.584-0.736-0.92-1.072
		c-0.384-0.384-0.816-0.72-1.24-1.064c-0.384-0.312-0.752-0.632-1.16-0.904c-0.424-0.288-0.896-0.52-1.352-0.768
		c-0.472-0.256-0.944-0.512-1.44-0.72c-0.144-0.064-0.264-0.152-0.416-0.208C238.704,4.232,215.648,0,192.04,0
		C86.152,0,0,86.128,0,192z M192.04,32c6.016,0,11.968,0.44,17.88,1.096C158.208,68.368,125.568,127.88,125.568,192
		S158.2,315.624,209.92,350.904c-5.912,0.656-11.864,1.096-17.88,1.096C103.8,352,32,280.224,32,192S103.8,32,192.04,32z"/>
	<path style="fill:#235413;" d="M382.952,166.4c-2.36-6.208-8.312-10.32-14.952-10.32h-46.144l-17.344-53.368
		c-2.144-6.592-8.288-11.056-15.216-11.056s-13.072,4.464-15.216,11.056l-17.352,53.368h-46.152c-6.64,0-12.6,4.104-14.96,10.32
		c-2.36,6.208-0.64,13.232,4.336,17.648l37.016,32.864l-17.712,54.48c-2.144,6.592,0.2,13.816,5.816,17.888
		c2.808,2.032,6.112,3.056,9.408,3.056s6.6-1.016,9.408-3.056l45.416-33l45.408,33c5.608,4.072,13.2,4.08,18.816,0
		c5.608-4.072,7.952-11.296,5.816-17.888l-17.712-54.48l37.008-32.864C383.592,179.632,385.32,172.608,382.952,166.4z
		 M307.944,216.848l5.72,17.584l-14.96-10.872c-5.6-4.064-13.192-4.08-18.816,0l-14.968,10.872l5.72-17.584
		c1.96-6.048,0.168-12.688-4.592-16.912l-13.352-11.856h15.656c6.928,0,13.072-4.464,15.216-11.056l5.728-17.608l5.72,17.608
		c2.144,6.592,8.288,11.056,15.216,11.056h15.656l-13.352,11.856C307.784,204.168,305.984,210.8,307.944,216.848z"/>
</g>
<g>
</g>
<g>
</g>
<g>
</g>
<g>
</g>
<g>
</g>
<g>
</g>
<g>
</g>
<g>
</g>
<g>
</g>
<g>
</g>
<g>
</g>
<g>
</g>
<g>
</g>
<g>
</g>
<g>
</g>
</svg>
