<?xml version="1.0" encoding="iso-8859-1"?>
<!-- Generator: Adobe Illustrator 19.0.0, SVG Export Plug-In . SVG Version: 6.00 Build 0)  -->
<svg version="1.1" id="Capa_1" xmlns="http://www.w3.org/2000/svg" xmlns:xlink="http://www.w3.org/1999/xlink" x="0px" y="0px"
	 viewBox="0 0 384 384" style="enable-background:new 0 0 384 384;" xml:space="preserve">
<path style="fill:#3EAD26;" d="M316.504,70.184l-37.44,37.44c-22.24-22.24-53.04-36-87.04-36s-64.8,13.76-87.04,36l-37.44-37.44
	c31.84-31.84,75.84-51.52,124.48-51.52S284.664,38.344,316.504,70.184z"/>
<path style="fill:#FF833B;" d="M368.024,194.664c0,48.64-19.68,92.64-51.52,124.48l-37.44-37.44c22.24-22.24,36-53.04,36-87.04
	s-13.76-64.8-36-87.04l37.44-37.44C348.344,102.024,368.024,146.024,368.024,194.664z"/>
<path style="fill:#3EAD26;" d="M316.504,319.144c-31.84,31.84-75.84,51.52-124.48,51.52s-92.64-19.68-124.48-51.52l37.44-37.44
	c22.24,22.24,53.04,36,87.04,36s64.8-13.76,87.04-36L316.504,319.144z"/>
<path style="fill:#FF833B;" d="M68.984,194.664c0,34,13.76,64.8,36,87.04l-37.44,37.44c-31.84-31.84-51.52-75.84-51.52-124.48
	s19.68-92.64,51.52-124.48l37.44,37.44C82.744,129.864,68.984,160.664,68.984,194.664z"/>
<path style="fill:#D9D8D2;" d="M279.064,107.624c-22.24-22.24-53.04-36-87.04-36s-64.8,13.76-87.04,36s-36,53.04-36,87.04
	s13.76,64.8,36,87.04s53.04,36,87.04,36s64.8-13.76,87.04-36s36-53.04,36-87.04S301.304,129.864,279.064,107.624z"/>
<g>
	<path style="fill:#235413;" d="M192,0C140.672,0,92.448,19.96,56.208,56.208C19.96,92.448,0,140.672,0,192
		s19.96,99.552,56.208,135.792C92.448,364.04,140.672,384,192,384c51.32,0,99.552-19.96,135.792-56.208
		C364.04,291.552,384,243.328,384,192s-19.96-99.552-56.208-135.792C291.552,19.96,243.32,0,192,0z M279.928,207.992h17.808
		c-3.352,22.552-13.632,43.36-30.008,59.728l0,0l0,0c-16.368,16.376-37.176,26.656-59.72,30.008V279.92c0-8.832-7.168-16-16-16
		c-8.84,0-16,7.168-16,16v17.808c-22.544-3.352-43.352-13.632-59.72-30.008l0,0l0,0c-16.376-16.368-26.656-37.184-30.008-59.728
		h17.824c8.832,0,16-7.168,16-16s-7.168-16-16-16H86.288c3.352-22.544,13.64-43.344,30.008-59.712l0,0l0,0
		c16.368-16.376,37.176-26.656,59.72-30.008v17.8c0,8.832,7.16,16,16,16c8.832,0,16-7.168,16-16v-17.8
		c22.544,3.352,43.352,13.632,59.72,30.008l0,0l0,0c16.368,16.368,26.656,37.168,30.008,59.712h-17.808c-8.832,0-16,7.168-16,16
		S271.088,207.992,279.928,207.992z M192,32c37.392,0,72.8,12.704,101.296,36.072L278.4,82.976
		c-24.368-19.368-54.36-29.904-86-29.992c-0.136,0-0.264-0.04-0.392-0.04c-0.136,0-0.264,0.04-0.392,0.04
		c-31.648,0.088-61.64,10.624-86,29.992L90.72,68.08C119.2,44.704,154.608,32,192,32z M68.072,90.704L82.968,105.6
		c-19.368,24.36-29.904,54.352-29.992,85.992c0,0.136-0.04,0.264-0.04,0.4s0.032,0.256,0.04,0.392
		C53.064,224.04,63.6,254.032,82.968,278.4l-14.896,14.896C44.704,264.8,32,229.392,32,192S44.704,119.2,68.072,90.704z M192,352
		c-37.392,0-72.8-12.704-101.296-36.072l14.896-14.896c24.368,19.376,54.36,29.904,86,29.992c0.136,0,0.256,0.04,0.392,0.04
		c0.136,0,0.256-0.04,0.392-0.04c31.648-0.088,61.64-10.624,86-29.992l14.896,14.896C264.8,339.296,229.392,352,192,352z
		 M315.928,293.296L301.024,278.4c19.376-24.368,29.912-54.368,30-86.016c0-0.136,0.04-0.256,0.04-0.392
		c0-0.136-0.04-0.264-0.04-0.4c-0.088-31.64-10.624-61.624-29.992-85.992l14.896-14.896C339.296,119.2,352,154.608,352,192
		S339.296,264.8,315.928,293.296z"/>
	<path style="fill:#235413;" d="M222.304,140.2l-49.84,25.2c-3.048,1.536-5.52,4.008-7.056,7.056l-25.2,49.84
		c-3.12,6.168-1.928,13.648,2.968,18.528c3.072,3.072,7.168,4.688,11.312,4.688c2.456,0,4.928-0.56,7.216-1.72l49.84-25.2
		c3.048-1.536,5.52-4.008,7.056-7.056l25.2-49.84c3.12-6.168,1.928-13.648-2.968-18.528
		C235.952,138.28,228.464,137.088,222.304,140.2z"/>
</g>
<g>
</g>
<g>
</g>
<g>
</g>
<g>
</g>
<g>
</g>
<g>
</g>
<g>
</g>
<g>
</g>
<g>
</g>
<g>
</g>
<g>
</g>
<g>
</g>
<g>
</g>
<g>
</g>
<g>
</g>
</svg>
