<?xml version="1.0" encoding="iso-8859-1"?>
<!-- Generator: Adobe Illustrator 19.0.0, SVG Export Plug-In . SVG Version: 6.00 Build 0)  -->
<svg version="1.1" id="Capa_1" xmlns="http://www.w3.org/2000/svg" xmlns:xlink="http://www.w3.org/1999/xlink" x="0px" y="0px"
	 viewBox="0 0 384 384" style="enable-background:new 0 0 384 384;" xml:space="preserve">
<path style="fill:#FF7526;" d="M280.024,96.504v1.92c0,50.4-39.36,76.88-88,76.88s-88-26.48-88-76.88v-1.92
	c1.04-49.28,40-77.84,88-77.84S278.984,47.224,280.024,96.504z"/>
<path style="fill:#DBAD56;" d="M280.024,98.424v130.24c0,50.48-39.36,76.96-88,76.96s-88-26.48-88-76.96V98.424
	c0,50.4,39.36,76.88,88,76.88S280.024,148.824,280.024,98.424z"/>
<path style="fill:#3EAD26;" d="M280.024,228.664v65.04c0,50.48-39.36,76.96-88,76.96s-88-26.48-88-76.96v-65.04
	c0,50.48,39.36,76.96,88,76.96S280.024,279.144,280.024,228.664z"/>
<g>
	<path style="fill:#235413;" d="M192,0C131.928,0,89.16,38.448,88,93.84v1.92V226v65.04v7.04c0,1.48,0.264,2.888,0.64,4.248
		C93.944,351.624,134.112,384,192,384s98.048-32.376,103.36-81.672c0.376-1.36,0.64-2.768,0.64-4.248v-7.04V226V95.76v-1.92
		c0-0.112,0-0.224-0.008-0.336C294.832,38.448,252.072,0,192,0z M120,165.856c0.672,0.544,1.416,1.008,2.104,1.536
		c1.08,0.824,2.176,1.632,3.304,2.408c1.368,0.944,2.784,1.848,4.224,2.728c1.176,0.72,2.344,1.432,3.56,2.104
		c1.504,0.832,3.056,1.608,4.624,2.376c1.248,0.608,2.496,1.224,3.784,1.792c1.64,0.72,3.344,1.36,5.048,2.008
		c1.312,0.496,2.608,1.008,3.952,1.456c1.8,0.6,3.656,1.112,5.52,1.632c1.352,0.376,2.672,0.784,4.056,1.112
		c1.992,0.48,4.056,0.856,6.112,1.24c1.336,0.248,2.632,0.544,3.992,0.752c2.32,0.36,4.72,0.592,7.112,0.832
		c1.176,0.12,2.312,0.296,3.512,0.384c3.624,0.272,7.32,0.416,11.096,0.416s7.472-0.152,11.096-0.416
		c1.192-0.088,2.336-0.272,3.512-0.384c2.392-0.24,4.792-0.472,7.112-0.832c1.36-0.208,2.656-0.504,3.992-0.752
		c2.056-0.384,4.12-0.76,6.112-1.24c1.384-0.328,2.704-0.744,4.048-1.112c1.856-0.52,3.72-1.032,5.52-1.632
		c1.344-0.448,2.64-0.96,3.952-1.456c1.704-0.64,3.408-1.288,5.048-2.008c1.288-0.568,2.536-1.184,3.784-1.792
		c1.568-0.76,3.12-1.536,4.624-2.376c1.216-0.672,2.384-1.392,3.56-2.104c1.44-0.88,2.856-1.776,4.224-2.728
		c1.128-0.776,2.224-1.584,3.304-2.408c0.584-0.44,1.208-0.84,1.776-1.296c-1.616,24.528-12.312,39.536-33.568,46.712
		c-8.368,2.832-12.864,11.904-10.04,20.28c2.256,6.672,8.48,10.88,15.16,10.88c1.696,0,3.424-0.272,5.12-0.84
		c7.672-2.592,15.784-6.392,23.376-11.864c-2.84,40.88-38.328,55.696-71.72,55.696c-34.808,0-72-16.016-72-60.96v-60.144H120z
		 M192,32c32.576,0,70.944,16.248,72,62.016v1.744c0,44.888-37.192,60.88-72,60.88s-72-15.992-72-60.88l-0.008-1.584
		C120.968,48.288,159.392,32,192,32z M192,352c-33.416,0-69.024-14.76-71.824-55.696c0.64,0.52,1.36,0.968,2.016,1.464
		c1.072,0.816,2.16,1.608,3.28,2.384c1.384,0.952,2.808,1.864,4.256,2.752c1.16,0.712,2.32,1.408,3.52,2.072
		c1.52,0.84,3.088,1.624,4.664,2.392c1.232,0.6,2.464,1.208,3.736,1.76c1.656,0.72,3.368,1.376,5.08,2.024
		c1.296,0.488,2.584,1,3.92,1.44c1.808,0.6,3.68,1.12,5.552,1.64c1.336,0.368,2.64,0.776,4.008,1.096c2,0.48,4.064,0.856,6.128,1.24
		c1.328,0.248,2.624,0.544,3.976,0.752c2.312,0.36,4.704,0.592,7.096,0.832c1.176,0.12,2.312,0.296,3.512,0.384
		c3.616,0.272,7.304,0.416,11.08,0.416s7.464-0.152,11.08-0.416c1.192-0.088,2.336-0.264,3.512-0.384
		c2.392-0.24,4.776-0.48,7.096-0.832c1.352-0.208,2.648-0.504,3.976-0.752c2.064-0.384,4.128-0.76,6.128-1.24
		c1.368-0.328,2.672-0.728,4.008-1.096c1.872-0.52,3.744-1.04,5.552-1.64c1.336-0.448,2.616-0.952,3.92-1.44
		c1.72-0.648,3.432-1.296,5.08-2.024c1.272-0.552,2.504-1.16,3.736-1.76c1.584-0.768,3.152-1.552,4.664-2.392
		c1.2-0.664,2.36-1.368,3.52-2.072c1.448-0.888,2.872-1.8,4.256-2.752c1.12-0.768,2.208-1.568,3.28-2.384
		c0.664-0.504,1.376-0.944,2.016-1.464C261.024,337.24,225.416,352,192,352z"/>
	<path style="fill:#235413;" d="M193.944,76.944c8.136,0,23.52,3.76,23.52,17.984c0,8.832,7.168,16,16,16c8.84,0,16-7.168,16-16
		c0-28.496-23.864-49.984-55.52-49.984c-8.832,0-16,7.168-16,16S185.112,76.944,193.944,76.944z"/>
</g>
<g>
</g>
<g>
</g>
<g>
</g>
<g>
</g>
<g>
</g>
<g>
</g>
<g>
</g>
<g>
</g>
<g>
</g>
<g>
</g>
<g>
</g>
<g>
</g>
<g>
</g>
<g>
</g>
<g>
</g>
</svg>
