<?xml version="1.0" encoding="iso-8859-1"?>
<!-- Generator: Adobe Illustrator 19.0.0, SVG Export Plug-In . SVG Version: 6.00 Build 0)  -->
<svg version="1.1" id="Capa_1" xmlns="http://www.w3.org/2000/svg" xmlns:xlink="http://www.w3.org/1999/xlink" x="0px" y="0px"
	 viewBox="0 0 383.971 383.971" style="enable-background:new 0 0 383.971 383.971;" xml:space="preserve">
<path style="fill:#FF833B;" d="M133.954,75.715c-16.568,15.336-26.928,37.2-26.928,61.424c0,46.48,38.064,84.136,84.976,84.136
	c46.92,0,84.976-37.656,84.976-84.136c0-24.224-10.352-46.072-26.912-61.424l-58.064-57.048L133.954,75.715z"/>
<ellipse style="fill:#FF7526;" cx="191.986" cy="138.795" rx="32.64" ry="32.32"/>
<g>
	<path style="fill:#DBAD56;" d="M192.01,340.267l-89.36,28.96c-15.52,4.96-32.08-3.36-37.2-18.64c-5.04-15.28,3.36-31.76,18.88-36.8
		l12.88-4.24h0.08L192.01,340.267z"/>
	<path style="fill:#DBAD56;" d="M299.69,305.387l-12.96,4.16l-94.72-30.64l89.36-28.96c15.52-5.04,32.08,3.36,37.2,18.64
		C323.61,283.867,315.21,300.347,299.69,305.387z"/>
</g>
<path style="fill:#D2982C;" d="M318.57,350.587c-5.12,15.28-21.68,23.6-37.2,18.64l-89.36-28.96l-94.72-30.72h-0.08l-12.88-4.16
	c-15.52-5.04-23.92-21.52-18.88-36.8c5.12-15.28,21.68-23.68,37.2-18.64l89.36,28.96l94.72,30.64l12.96,4.24
	C315.21,318.827,323.61,335.307,318.57,350.587z"/>
<g>
	<path style="fill:#235413;" d="M191.978,234.603c55.68,0,100.976-44.92,100.976-100.136c0-27.624-11.68-54.288-31.704-72.832
		L203.186,4.587c-6.216-6.12-16.192-6.112-22.432,0l-57.88,56.888c-20.256,18.848-31.872,45.44-31.872,72.992
		C91.002,189.683,136.298,234.603,191.978,234.603z M144.802,84.795c0.12-0.112,0.232-0.216,0.352-0.336l46.832-46.024
		l47.184,46.352c14.056,13.024,21.792,30.664,21.792,49.688c0,37.568-30.944,68.136-68.976,68.136s-68.976-30.56-68.976-68.136
		C123.002,115.443,130.746,97.803,144.802,84.795z"/>
	<path style="fill:#235413;" d="M191.97,184.459c26.816,0,48.632-21.68,48.632-48.336c0-26.64-21.824-48.32-48.632-48.32
		c-26.832,0-48.648,21.68-48.648,48.32C143.322,162.779,165.138,184.459,191.97,184.459z M191.97,119.803
		c9.168,0,16.632,7.32,16.632,16.32c0,9.008-7.464,16.336-16.632,16.336c-9.176,0-16.648-7.328-16.648-16.336
		C175.322,127.123,182.794,119.803,191.97,119.803z"/>
	<path style="fill:#235413;" d="M61.554,306.923c-3.44,3.392-6.48,7.208-8.72,11.632c-5.448,10.744-6.368,22.952-2.576,34.464
		c6.344,18.888,24.24,30.944,43.384,30.944c4.616,0,9.304-0.704,13.92-2.176l84.448-27.368l84.472,27.384
		c4.592,1.472,9.264,2.168,13.864,2.168c19.12,0,37.032-12.056,43.376-30.952c0.008-0.024,0.016-0.056,0.024-0.08
		c3.768-11.432,2.848-23.64-2.6-34.384c-2.24-4.424-5.288-8.24-8.72-11.632c3.44-3.392,6.48-7.208,8.72-11.632
		c5.448-10.744,6.368-22.952,2.576-34.456c-7.912-23.56-33.632-36.48-57.304-28.776l-84.424,27.36l-84.424-27.352
		c-23.72-7.696-49.416,5.216-57.344,28.848c-3.768,11.424-2.848,23.64,2.6,34.376C55.074,299.715,58.114,303.531,61.554,306.923z
		 M140.106,337.595l-42.344,13.72c-7.12,2.272-14.832-1.52-17.144-8.408c-1.088-3.288-0.816-6.8,0.752-9.888
		c1.616-3.184,4.416-5.552,7.944-6.704l7.952-2.616l4.672,1.512L140.106,337.595z M286.29,262.507
		c7.088-2.312,14.744,1.52,17.064,8.432c1.088,3.28,0.816,6.792-0.752,9.888c-1.608,3.176-4.408,5.544-7.856,6.672l-8.024,2.576
		l-42.792-13.84L286.29,262.507z M80.594,271.011c2.344-6.992,9.96-10.824,17.104-8.504l89.352,28.952c0,0,0.008,0.008,0.016,0.008
		l6.128,1.984l101.536,32.896c3.464,1.128,6.256,3.496,7.872,6.68c1.56,3.08,1.832,6.576,0.768,9.848
		c-2.352,6.936-10.016,10.736-17.096,8.472l-184.072-59.672c-0.272-0.088-0.552-0.168-0.832-0.248l-12.128-3.912
		c-3.464-1.128-6.256-3.496-7.872-6.68C79.802,277.731,79.53,274.219,80.594,271.011z"/>
</g>
<g>
</g>
<g>
</g>
<g>
</g>
<g>
</g>
<g>
</g>
<g>
</g>
<g>
</g>
<g>
</g>
<g>
</g>
<g>
</g>
<g>
</g>
<g>
</g>
<g>
</g>
<g>
</g>
<g>
</g>
</svg>
