<?xml version="1.0" encoding="iso-8859-1"?>
<!-- Generator: Adobe Illustrator 19.0.0, SVG Export Plug-In . SVG Version: 6.00 Build 0)  -->
<svg version="1.1" id="Capa_1" xmlns="http://www.w3.org/2000/svg" xmlns:xlink="http://www.w3.org/1999/xlink" x="0px" y="0px"
	 viewBox="0 0 384.003 384.003" style="enable-background:new 0 0 384.003 384.003;" xml:space="preserve">
<path style="fill:#D2982C;" d="M319.065,264.746c0,43.12-21.12,81.2-53.52,104.4c-30.16-6.64-34.96-33.76-73.6-33.76
	c-38.48,0-43.28,27.04-73.36,33.76c-32.48-23.2-53.6-61.28-53.6-104.4H319.065z"/>
<path style="fill:#D9D8D2;" d="M192.025,248.555V18.667c0,0,78.864,32.928,78.864,114.944S192.025,248.555,192.025,248.555z"/>
<g>
	<path style="fill:#235413;" d="M368.001,316.723c-27.624,0-42.248,11.728-54.008,21.16c-0.328,0.264-0.632,0.504-0.952,0.76
		c14.136-22.664,22-49.136,22-76.552c0-8.832-7.16-16-16-16h-95.36c26.232-18.28,63.192-54.744,63.192-115.136
		c0-91.624-85.08-128.2-88.704-129.712c-4.944-2.072-10.584-1.528-15.032,1.448c-4.464,2.968-7.136,7.96-7.136,13.312v229.88
		c0,0.064,0.024,0.128,0.024,0.192H64.961c-8.832,0-16,7.168-16,16c0,27.44,7.88,53.912,22.04,76.584
		c-0.336-0.264-0.648-0.512-0.992-0.784c-11.752-9.424-26.384-21.152-54.008-21.152c-8.84,0-16,7.168-16,16s7.16,16,16,16
		c16.376,0,23.768,5.928,33.992,14.128c11.752,9.424,26.384,21.152,54.008,21.152c6.368,0,12.256-0.624,18-1.896
		c0.016,0,0.032,0,0.048-0.008c16.528-3.696,26.84-11.968,35.936-19.264c10.208-8.192,17.592-14.12,33.944-14.12
		c16.44,0,23.84,5.928,34.096,14.144c8.752,7.008,18.68,14.872,34.112,18.728c1.216,0.432,2.488,0.696,3.824,0.824
		c5.144,1.016,10.4,1.592,16.04,1.592c27.624,0,42.248-11.728,54.008-21.16c10.224-8.2,17.616-14.128,33.992-14.128
		c8.832,0,16-7.168,16-16S376.833,316.723,368.001,316.723z M208.001,43.859c20.216,14.776,46.864,42.672,46.864,87.088
		s-26.648,72.304-46.864,87.08V43.859z M191.921,316.723c-27.6,0-42.224,11.728-53.968,21.16
		c-5.632,4.52-10.392,8.336-16.248,10.856c-21.528-17.784-35.632-43.08-39.6-70.656h219.792
		c-3.968,27.568-18.048,52.872-39.552,70.664c-5.888-2.504-10.672-6.336-16.328-10.864
		C234.241,328.458,219.585,316.723,191.921,316.723z"/>
	<path style="fill:#235413;" d="M53.329,139.915c0,8.832,7.16,16,16,16h69.96c8.832,0,16-7.168,16-16s-7.168-16-16-16h-69.96
		C60.489,123.915,53.329,131.083,53.329,139.915z"/>
	<path style="fill:#235413;" d="M139.289,175.587h-52.44c-8.832,0-16,7.168-16,16c0,8.832,7.168,16,16,16h52.44
		c8.832,0,16-7.168,16-16C155.289,182.747,148.129,175.587,139.289,175.587z"/>
	<path style="fill:#235413;" d="M139.289,101.659c8.832,0,16-7.168,16-16s-7.168-16-16-16h-34.912c-8.832,0-16,7.168-16,16
		s7.168,16,16,16H139.289z"/>
</g>
<g>
</g>
<g>
</g>
<g>
</g>
<g>
</g>
<g>
</g>
<g>
</g>
<g>
</g>
<g>
</g>
<g>
</g>
<g>
</g>
<g>
</g>
<g>
</g>
<g>
</g>
<g>
</g>
<g>
</g>
</svg>
