<?xml version="1.0" encoding="iso-8859-1"?>
<!-- Generator: Adobe Illustrator 19.0.0, SVG Export Plug-In . SVG Version: 6.00 Build 0)  -->
<svg version="1.1" id="Capa_1" xmlns="http://www.w3.org/2000/svg" xmlns:xlink="http://www.w3.org/1999/xlink" x="0px" y="0px"
	 viewBox="0 0 384.024 384.024" style="enable-background:new 0 0 384.024 384.024;" xml:space="preserve">
<path style="fill:#D9D8D2;" d="M120.988,71.728l-51.92,51.92c-13.92,13.36-30.96,18-44.72,4.24c-14.08-14.08-8.88-31.68,5.28-45.76
	l49.84-49.84c14.16-14.16,31.68-19.44,45.76-5.28C139.068,40.768,134.348,57.808,120.988,71.728z"/>
<polygon style="fill:#FF833B;" points="209.068,127.328 124.668,211.728 52.828,139.888 69.068,123.648 137.228,55.488 "/>
<polygon style="fill:#FF7526;" points="268.828,207.888 257.788,218.928 216.268,260.448 205.228,271.488 135.148,201.408 
	198.748,137.808 "/>
<polygon style="fill:#DBAD56;" points="368.028,329.088 326.428,370.688 216.268,260.448 257.788,218.928 "/>
<path style="fill:#235413;" d="M280.364,216.232c5.968-6.264,5.904-16.168-0.248-22.32l-58.936-58.936
	c5.344-6.288,5.12-15.688-0.824-21.624L149.532,42.52c-0.088-10.68-4.36-20.888-12.976-29.464C128.068,4.528,117.74,0.016,106.692,0
	c-0.024,0-0.04,0-0.056,0c-13.208,0-26.52,6.336-38.504,18.312l-49.808,49.8C6.372,80,0.036,93.296,0.02,106.544
	c-0.016,11.104,4.472,21.48,12.992,29.992c8.584,8.592,18.776,12.872,29.448,12.968l70.872,70.872
	c3.128,3.128,7.216,4.688,11.312,4.688c3.68,0,7.328-1.336,10.304-3.864l58.944,58.936c3.128,3.128,7.216,4.688,11.312,4.688
	c3.968,0,7.92-1.504,11.008-4.432l98.872,98.944c3,3,7.072,4.688,11.32,4.688c4.24,0,8.312-1.688,11.312-4.688l41.6-41.6
	c3-3,4.688-7.072,4.688-11.32c0-4.24-1.688-8.312-4.688-11.312L280.364,216.232z M32.02,106.592
	c0.008-4.368,3.32-10.272,8.896-15.824l49.832-49.832c5.6-5.6,11.528-8.936,15.872-8.936h0.008c1.552,0,4,0.384,7.288,3.688
	c2.36,2.344,8.608,8.56-4.4,22.184L90.436,76.96L57.86,109.536c-13.592,12.976-19.872,6.736-22.232,4.384
	C32.388,110.664,32.012,108.176,32.02,106.592z M75.436,137.224l61.776-61.768l49.208,49.208l-61.776,61.768L75.436,137.224z
	 M157.748,198.744l40.976-40.968l47.456,47.448L205.212,246.2L157.748,198.744z M326.412,345.392l-87.536-87.6l18.896-18.904
	l87.6,87.536L326.412,345.392z"/>
<g>
</g>
<g>
</g>
<g>
</g>
<g>
</g>
<g>
</g>
<g>
</g>
<g>
</g>
<g>
</g>
<g>
</g>
<g>
</g>
<g>
</g>
<g>
</g>
<g>
</g>
<g>
</g>
<g>
</g>
</svg>
