<?xml version="1.0" encoding="iso-8859-1"?>
<!-- Generator: Adobe Illustrator 19.0.0, SVG Export Plug-In . SVG Version: 6.00 Build 0)  -->
<svg version="1.1" id="Capa_1" xmlns="http://www.w3.org/2000/svg" xmlns:xlink="http://www.w3.org/1999/xlink" x="0px" y="0px"
	 viewBox="0 0 383.979 383.979" style="enable-background:new 0 0 383.979 383.979;" xml:space="preserve">
<rect x="119.799" y="112.924" transform="matrix(-0.7071 0.7071 -0.7071 -0.7071 465.4772 196.5201)" style="fill:#FF833B;" width="144.479" height="163.478"/>
<g>
	<path style="fill:#E4C180;" d="M83.141,187.915l115.6,115.6l-36.24,36.24c-35.92,35.92-86.96,43.28-122.88,7.28
		c-35.92-35.92-28.64-86.96,7.28-122.88L83.141,187.915z"/>
	<path style="fill:#E4C180;" d="M337.141,165.115l-36.24,36.24l-115.6-115.6l36.24-36.24c35.92-35.92,86.96-43.2,122.88-7.28
		S373.061,129.195,337.141,165.115z"/>
</g>
<g>
	<path style="fill:#235413;" d="M0.349,281.595c-2.296,27.472,7.624,53.776,27.92,74.072c18.464,18.504,41.336,28.296,66.144,28.312
		c0.024,0,0.04,0,0.056,0c28.208,0,56.376-12.632,79.312-35.576l36.24-36.24l102.168-102.16l36.232-36.24
		c20.576-20.568,33.08-45.936,35.208-71.416c2.304-27.464-7.616-53.776-27.928-74.088C335.397,7.947,309.045-1.965,281.613,0.323
		c-25.48,2.136-50.84,14.64-71.416,35.208l-36.24,36.24l-102.16,102.16l-36.24,36.24C14.989,230.755,2.485,256.115,0.349,281.595z
		 M232.829,58.163c15.224-15.232,33.504-24.448,51.456-25.944c18.152-1.528,35.056,4.936,48.8,18.664
		c13.736,13.736,20.192,30.608,18.672,48.792c-1.504,17.96-10.72,36.232-25.952,51.464l-24.92,24.92l-85.368-85.36l-7.608-7.608
		L232.829,58.163z M185.277,105.723l85.368,85.36l7.608,7.608l-79.536,79.528l-92.968-92.968L185.277,105.723z M83.117,207.875
		l92.976,92.976l-24.928,24.928c-16.896,16.896-37.032,26.2-56.688,26.2c-0.016,0-0.024,0-0.04,0
		c-16.136-0.008-31.176-6.552-43.52-18.92c-13.736-13.736-20.192-30.608-18.664-48.792c1.504-17.96,10.72-36.232,25.944-51.464
		L83.117,207.875z"/>
	<path style="fill:#235413;" d="M217.677,217.651c6.248-6.248,6.248-16.376,0-22.632l-28.72-28.736
		c-6.248-6.248-16.376-6.248-22.632,0c-6.248,6.248-6.248,16.376-0.008,22.632l28.728,28.736c3.128,3.128,7.224,4.688,11.32,4.688
		C210.461,222.331,214.549,220.771,217.677,217.651z"/>
</g>
<g>
</g>
<g>
</g>
<g>
</g>
<g>
</g>
<g>
</g>
<g>
</g>
<g>
</g>
<g>
</g>
<g>
</g>
<g>
</g>
<g>
</g>
<g>
</g>
<g>
</g>
<g>
</g>
<g>
</g>
</svg>
