<?xml version="1.0"?>
<svg xmlns="http://www.w3.org/2000/svg" id="flat" viewBox="0 0 64 64" width="512" height="512"><path d="M28,15V7.2111a4,4,0,0,1,.6718-2.2188l1.03133-1.547A1,1,0,0,1,30.53518,3h.92964a1,1,0,0,1,.832.4453l1.03133,1.547A4,4,0,0,1,34,7.2111V15Z" style="fill:#49b968"/><path d="M31,22V12.2111a4,4,0,0,1,.6718-2.2188l1.03133-1.547A1,1,0,0,1,33.53518,8h.92964a1,1,0,0,1,.832.4453l1.03133,1.547A4,4,0,0,1,37,12.2111V22Z" style="fill:#4ec66f"/><path d="M32,32V16.2111a4,4,0,0,0-.6718-2.2188l-1.03133-1.547a1,1,0,0,0-.832-.4453h-.92964a1,1,0,0,0-.832.4453l-1.03133,1.547A4,4,0,0,0,26,16.2111V32Z" style="fill:#52d276"/><path d="M37.32819,17.99231l-1.03131-1.547A1,1,0,0,0,35.46484,16h-.92968a1,1,0,0,0-.832.44531l-1.03131,1.547A3.99982,3.99982,0,0,0,32,20.21106v9a3.99982,3.99982,0,0,0-.67181-2.21875l-1.03131-1.547A1,1,0,0,0,29.46484,25h-.92968a1,1,0,0,0-.832.44531l-1.03131,1.547A3.99982,3.99982,0,0,0,26,29.21106V48l2,1V62h8V48l2-3V20.21106A3.99982,3.99982,0,0,0,37.32819,17.99231Z" style="fill:#57df7d"/><path d="M33,62V41.2111a4,4,0,0,1,.6718-2.2188l1.03133-1.547a1,1,0,0,1,.832-.4453h.92964a1,1,0,0,1,.832.4453l1.03133,1.547A4,4,0,0,1,39,41.2111v4.09632A13.98139,13.98139,0,0,1,38,50.5l-.57414,1.43535A5.95417,5.95417,0,0,0,37,54.14667V62Z" style="fill:#5cec84"/><path d="M31,62V48.2111a4,4,0,0,0-.6718-2.2188l-1.03133-1.547a1,1,0,0,0-.832-.4453h-.92964a1,1,0,0,0-.832.4453l-1.03133,1.547A4,4,0,0,0,25,48.2111v2.98613A5.95416,5.95416,0,0,0,26,54.5h0a5.95416,5.95416,0,0,1,1,3.30277V62Z" style="fill:#5cec84"/></svg>
