<svg id="flat" height="512" viewBox="0 0 64 64" width="512" xmlns="http://www.w3.org/2000/svg"><path d="m29 13v-8a2 2 0 0 1 2-2h.17157a2 2 0 0 1 1.41422.58579l.82842.82842a2 2 0 0 1 .58579 1.41422v7.17157z" fill="#d2bf84"/><path d="m28 20v-6.29844a2 2 0 0 1 .43826-1.24939l2.96125-3.70156a2 2 0 0 1 1.56174-.75061h1.03875a2 2 0 0 1 2 2v10z" fill="#d9c588"/><path d="m26 28v-10a2 2 0 0 1 2-2h4.33333a2 2 0 0 1 1.2.4l2.66667 2a2 2 0 0 1 .8 1.6v8z" fill="#dfcb8c"/><path d="m39 24a2 2 0 0 0 -2-2h-2a2 2 0 0 0 -1.6.8l-2.4 3.2v9h8z" fill="#e6d190"/><path d="m23 26a2 2 0 0 1 2-2h3.26015a2 2 0 0 1 1.30158.48149l6.43827 5.51851v5h-13z" fill="#ecd794"/><path d="m42 31a2 2 0 0 0 -2-2h-1.52786a2 2 0 0 0 -.89443.21115l-6.44959 3.22479a2.04078 2.04078 0 0 0 -1.12812 1.82534v5.73872h12z" fill="#f2dd98"/><path d="m20 50v-16a2 2 0 0 1 2-2h4.60435a2.00009 2.00009 0 0 1 .7615.15064l15.39565 6.33936a2 2 0 0 1 1.2385 1.84939v9.66061z" fill="#f9e39c"/><path d="m17 59v-7.85126a2 2 0 0 1 .99226-1.72756l10.54074-6.14874a2 2 0 0 1 1.0077-.27244h15.4593a2 2 0 0 1 2 2v14a2 2 0 0 1 -2 2h-26a2 2 0 0 1 -2-2z" fill="#ffe9a0"/></svg>