<svg id="flat" height="512" viewBox="0 0 64 64" width="512" xmlns="http://www.w3.org/2000/svg"><path d="m19 19v16.4195a26.00011 26.00011 0 0 0 2.29 10.6695l5.0685 11.26334a6.18635 6.18635 0 0 0 5.6415 3.64766 6.18635 6.18635 0 0 0 5.64146-3.64768l5.06854-11.26332a26.00011 26.00011 0 0 0 2.29-10.6695v-16.4195a6 6 0 0 0 -6-6h-14a6 6 0 0 0 -6 6z" fill="#ffaf45"/><g fill="#cc8c37"><path d="m19 21h9v2h-9z"/><path d="m21.25281 46h8.74719v-2h-9.53436c.2362.6756.49493 1.344.78717 2z"/><path d="m36 27h9v2h-9z"/><path d="m44.585 40h-5.585v2h5.14856c.17285-.66052.3161-1.328.43644-2z"/><path d="m19 32h6v2h-6z"/><path d="m38 22h2v2h-2z"/><path d="m23 26h2v2h-2z"/><path d="m32 33h2v2h-2z"/><path d="m26 39h2v2h-2z"/><path d="m36 47h2v2h-2z"/><path d="m30 52h2v2h-2z"/></g><path d="m27 13v-2.5518a4 4 0 0 0 -.92711-2.56074l-1.61127-1.93352a1.801 1.801 0 0 1 1.38355-2.95394h.40883a1.801 1.801 0 0 1 1.27348.52749l4.47252 4.47251v5z" fill="#45b365"/><path d="m31 13v-3.1265a4 4 0 0 1 1.43926-3.07289l4.05983-3.38318a1.801 1.801 0 0 1 1.15291-.41743 1.801 1.801 0 0 1 1.27348 3.07447l-1.754 1.754a4 4 0 0 0 -1.17148 2.82838v2.34315" fill="#4fcc73"/></svg>