<svg id="flat" height="512" viewBox="0 0 64 64" width="512" xmlns="http://www.w3.org/2000/svg"><path d="m22 21a10 10 0 0 1 10 10v15h-16a12 12 0 0 1 -12-12v-3a10 10 0 0 1 10-10z" fill="#d95f4a"/><path d="m50 19a10 10 0 0 1 10 10v3a12 12 0 0 1 -12 12h-16v-15a10 10 0 0 1 10-10z" fill="#cc5946"/><path d="m36 36a10 10 0 0 1 10 10v3a12 12 0 0 1 -12 12h-4a12 12 0 0 1 -12-12v-3a10 10 0 0 1 10-10z" fill="#e5644e"/><path d="m38.80176 14.36816-5.80176-2.07238v-.29578h-2v4.24536l-5.582 1.59448a11.65641 11.65641 0 0 0 -8.418 11.16016h2a9.64751 9.64751 0 0 1 6.9668-9.23633l5.0332-1.43774v24.67407h2v-28.58142l5.12988 1.8324a10.37343 10.37343 0 0 1 6.87012 9.74902h2a12.3765 12.3765 0 0 0 -8.19824-11.63184z" fill="#b98348"/><rect fill="#df9e57" height="9" rx="1" width="4" x="30" y="3"/><path d="m19.39453 30h-2.78906a2.98728 2.98728 0 0 1 -1.66406-.50391l-2.4961-1.66409 1.10938-1.664 2.49609 1.664a.99322.99322 0 0 0 .55469.168h2.78906a.99322.99322 0 0 0 .55469-.168l2.49609-1.664 1.10938 1.664-2.4961 1.66406a2.98728 2.98728 0 0 1 -1.66406.50394z" fill="#c05441"/><path d="m47.39453 27h-2.78906a2.98728 2.98728 0 0 1 -1.66406-.50391l-2.4961-1.66409 1.10938-1.664 2.49609 1.664a.99322.99322 0 0 0 .55469.168h2.78906a.99322.99322 0 0 0 .55469-.168l2.49609-1.664 1.10938 1.664-2.4961 1.66406a2.98728 2.98728 0 0 1 -1.66406.50394z" fill="#b34e3d"/><path d="m33.39453 44h-2.78906a2.98728 2.98728 0 0 1 -1.66406-.50391l-2.4961-1.66409 1.10938-1.664 2.49609 1.664a.99322.99322 0 0 0 .55469.168h2.78906a.99322.99322 0 0 0 .55469-.168l2.49609-1.664 1.10938 1.664-2.4961 1.66406a2.98728 2.98728 0 0 1 -1.66406.50394z" fill="#cc5945"/></svg>