<svg id="flat" height="512" viewBox="0 0 64 64" width="512" xmlns="http://www.w3.org/2000/svg"><path d="m27 32 2-6-2-6h-6l-2 6 2 6z" fill="#cccb51"/><path d="m27 44 2-6-2-6h-6l-2 6 2 6z" fill="#d2d153"/><path d="m27 56 2-6-2-6h-6l-2 6 2 6z" fill="#cccb51"/><path d="m35 50 2-6-2-6h-6l-2 6 2 6z" fill="#d9d856"/><path d="m19 38 2-6-2-6h-6l-2 6 2 6z" fill="#d9d856"/><path d="m19 50 2-6-2-6h-6l-2 6 2 6z" fill="#dfde58"/><path d="m19 26 2-6-2-4h-1.80174a6.79293 6.79293 0 0 0 -6.07578 3.755l-.12248.245 2 6z" fill="#d2d153"/><path d="m35 38 2-6-2-6h-6l-2 6 2 6z" fill="#e5e45a"/><path d="m11 32h-3l-1.05724-2.11448a8.68826 8.68826 0 0 1 0-7.771l.78085-1.56169a1 1 0 0 1 .89439-.55283h2.382l2 6z" fill="#e5e45a"/><path d="m11 44h-3l-1.05724-2.11448a8.68826 8.68826 0 0 1 0-7.771l1.05724-2.11452h3l2 6z" fill="#d2d153"/><path d="m19 16 .508-.762a5.02582 5.02582 0 0 1 4.18174-2.238h.82138a4.65051 4.65051 0 0 1 3.86946 2.07088l.61942.92912-2 4h-6z" fill="#e5e45a"/><path d="m29 16-2 4 2 6h6l2-6-2-4z" fill="#d9d856"/><path d="m27 56v3l1.70711 1.70711a1 1 0 0 0 .7071.29289h5.17158a1 1 0 0 0 .7071-.29289l1.70711-1.70711v-3l-2-6h-6z" fill="#e5e45a"/><path d="m13 50-1 3 2.81257 3.7501a1 1 0 0 0 .48378.34868l2.70365.90122 3-2-2-6z" fill="#d2d153"/><path d="m11 44h-3l-.48214.7232a5.202 5.202 0 0 0 -.5016 4.81745l.149.37253a4.39574 4.39574 0 0 0 3.0152 2.63194l1.81954.45488 1-3z" fill="#cccb51"/><path d="m18 58 3-2h6v3l-2.63193 1.75462a1 1 0 0 1 -.79723.13809l-3.30213-.82553a1 1 0 0 1 -.46457-.263z" fill="#d9d856"/><path d="m37.026 32-2-6 2-6h6l2 6-2 6z" fill="#cccb51"/><path d="m37.026 44-2-6 2-6h6l2 6-2 6z" fill="#d2d153"/><path d="m37.026 56-2-6 2-6h6l2 6-2 6z" fill="#cccb51"/><path d="m45.026 38-2-6 2-6h6l2 6-2 6z" fill="#d9d856"/><path d="m45.026 50-2-6 2-6h6l2 6-2 6z" fill="#dfde58"/><path d="m45.02551 26-2-6 2-4h1.80174a6.79291 6.79291 0 0 1 6.07575 3.755l.12248.245-2 6z" fill="#d2d153"/><path d="m53.02551 32h3l1.05724-2.11448a8.68826 8.68826 0 0 0 0-7.771l-.78084-1.56169a1 1 0 0 0 -.89443-.55283h-2.382l-2 6z" fill="#e5e45a"/><path d="m53.02551 44h3l1.05724-2.11448a8.68826 8.68826 0 0 0 0-7.771l-1.05724-2.11452h-3l-2 6z" fill="#d2d153"/><path d="m45.02551 16-.508-.762a5.02581 5.02581 0 0 0 -4.18174-2.238h-.82137a4.65052 4.65052 0 0 0 -3.86947 2.07088l-.61942.92912 2 4h6z" fill="#e5e45a"/><path d="m51.02551 50 1 3-2.81257 3.7501a1 1 0 0 1 -.48377.34868l-2.70366.90122-3-2 2-6z" fill="#d2d153"/><path d="m53.02551 44h3l.48214.7232a5.2019 5.2019 0 0 1 .5016 4.81745l-.149.37253a4.39574 4.39574 0 0 1 -3.0152 2.63194l-1.81954.45488-1-3z" fill="#cccb51"/><path d="m46.02551 58-3-2h-6v3l2.63193 1.75462a1 1 0 0 0 .79724.13809l3.30212-.82553a1 1 0 0 0 .46457-.263z" fill="#d9d856"/><path d="m29 16 1.83875-6.43561a1.89739 1.89739 0 0 0 -.02437-1.12124l-.98193-2.94579a1.89737 1.89737 0 0 1 1.8-2.49736 1.89737 1.89737 0 0 1 1.8 1.29737l1.38192 4.14578a1.89739 1.89739 0 0 1 .02437 1.12124l-1.83874 6.43561z" fill="#b98348"/></svg>