<?xml version="1.0"?>
<svg xmlns="http://www.w3.org/2000/svg" id="flat" viewBox="0 0 64 64" width="512" height="512"><path d="M19,46H13A10,10,0,0,1,3,36V30A10,10,0,0,1,13,20h6Z" style="fill:#f2cabd"/><path d="M31,46h6A10,10,0,0,0,47,36V30A10,10,0,0,0,37,20H31Z" style="fill:#e6c0b3"/><path d="M33.87617,18.9257l-1.52849-.91709a10.55361,10.55361,0,0,1-4.58224-5.7123L27.30932,10.928a2,2,0,0,1,.23327-1.74185l.86368-1.29552A2,2,0,0,1,30.07037,7H34a2,2,0,0,0,2-2h0a2,2,0,0,0-2-2H28.14074a4,4,0,0,0-3.32821,1.7812L23.1094,7.33591A6.60545,6.60545,0,0,0,22,11h0a8.42271,8.42271,0,0,1-4.38948,7.39426L16.5,19A10.55363,10.55363,0,0,0,11,28.265V38A10,10,0,0,0,21,48h8A10,10,0,0,0,39,38V27.97536A10.55363,10.55363,0,0,0,33.87617,18.9257Z" style="fill:#ffd5c7"/><path d="M55,53l4.84532-6.46042a2.72007,2.72007,0,0,0,.08718-3.14084h0a2.72,2.72,0,0,0-2.60059-1.19023l-4.47837.5598a10,10,0,0,1-3.66571-.22135L43,41H40V53Z" style="fill:#f2d5b1"/><path d="M52.13007,51.1194l6.83718,2.99127A3.39257,3.39257,0,0,1,61,57.21878h0a3.39254,3.39254,0,0,1-2.72721,3.32666l-.86011.172A14.54906,14.54906,0,0,1,54.55934,61H45.64273A14,14,0,0,1,32.009,43.81879l2.35976-10.11327A3.50108,3.50108,0,0,1,37.7782,31h0a2.96938,2.96938,0,0,1,2.84872,2.13152l2.1771,7.40214A16.697,16.697,0,0,0,52.13007,51.1194Z" style="fill:#ffe0ba"/></svg>
