<svg id="flat" height="512" viewBox="0 0 64 64" width="512" xmlns="http://www.w3.org/2000/svg"><path d="m20 46-2.34761 1.76071a8.24618 8.24618 0 0 1 -3.69385 1.55336l-9.80648 1.50869a1 1 0 0 1 -1.15206-.98837v-9.37839a13.54424 13.54424 0 0 1 .86237-4.75568 13.54436 13.54436 0 0 1 7.81982-7.88579l7.31781-2.81453h9v21z" fill="#50cc73"/><path d="m8.89453 44.44727-1.78906-.89454.47656-.95312a28.98462 28.98462 0 0 1 10.56885-11.623 6.42534 6.42534 0 0 1 3.40478-.97661h2.44434v2h-2.44434a4.42286 4.42286 0 0 0 -2.3457.67285 26.986 26.986 0 0 0 -9.83887 10.82129z" fill="#46b365"/><path d="m40 27h4a8 8 0 0 0 8-8v-6a1 1 0 0 0 -1-1h-15a10 10 0 0 0 -10 10v8h14z" fill="#50cc73"/><path d="m32 31h-2v-4a10.01146 10.01146 0 0 1 10-10h7v2h-7a8.00917 8.00917 0 0 0 -8 8z" fill="#46b365"/><path d="m38 28 2.07849-1.18771a5.36219 5.36219 0 0 1 7.45651 2.25764l1.465 2.93007v2h-11z" fill="#933d57"/><g fill="#9f425f"><path d="m53 36-.89821-1.497a6 6 0 0 0 -6.13135-2.83139l-1.97044.32839v8h9z"/><path d="m41 35-1.14838-4.5935a5.73 5.73 0 0 0 -8.44609-3.55972l-5.40553 3.15322v7h15z"/><path d="m20 44v5a4 4 0 0 0 4 4h.76393a3.618 3.618 0 0 0 3.23607-2v-7z"/></g><path d="m37 42v6a5 5 0 0 1 -5 5 5 5 0 0 1 -5-5v-6z" fill="#ac4767"/><path d="m44 51 2.77666 1.38833a6.21 6.21 0 0 0 6.22189-.38736l.00145-.00097v-8h-9z" fill="#9f425f"/><path d="m56 43 .33635-.33635a4.125 4.125 0 0 0 .2521-5.55751 4.125 4.125 0 0 0 -5.74571-.58032l-1.84274 1.47418v6h7z" fill="#ac4767"/><path d="m17 39v2.93927a4.06073 4.06073 0 0 0 4.06073 4.06073h2.93927v-7z" fill="#ac4767"/><path d="m29 31h-8a5 5 0 0 0 -5 5 5 5 0 0 0 5 5h8z" fill="#9f425f"/><path d="m37 37a5 5 0 0 0 -5-5 5 5 0 0 0 -5 5v5h10z" fill="#ac4767"/><circle cx="27" cy="42" fill="#b64b6d" r="5"/><circle cx="56" cy="48" fill="#b64b6d" r="5"/><path d="m37 42v-6.5a4.5 4.5 0 0 1 4.5-4.5 4.5 4.5 0 0 1 4.5 4.5v6.5z" fill="#ac4767"/><path d="m47 47v1a5 5 0 0 1 -5 5 5 5 0 0 1 -5-5v-6h10z" fill="#ac4767"/><circle cx="47" cy="42" fill="#b64b6d" r="5"/><circle cx="37" cy="42" fill="#bf4f73" r="5"/><path d="m27 24a3 3 0 0 0 -3-3h-4a2 2 0 0 1 -2-2v-7a1 1 0 0 0 -1-1h-2a1 1 0 0 0 -1 1v7a6 6 0 0 0 6 6h7z" fill="#b98348"/><circle cx="26" cy="29" fill="#bf4f73" r="5"/></svg>