<svg id="flat" height="512" viewBox="0 0 64 64" width="512" xmlns="http://www.w3.org/2000/svg"><path d="m44 58.18381a4 4 0 0 1 1.837-3.36471l2.2024-1.41583a21.68925 21.68925 0 0 0 9.9606-18.24454 21.68923 21.68923 0 0 0 -7.80413-16.66214l-2.75661-2.29717a4 4 0 0 1 -1.43926-3.07292 3.1265 3.1265 0 0 0 -3.1265-3.1265h-5.747a3.1265 3.1265 0 0 0 -3.1265 3.1265 21.18535 21.18535 0 0 0 -3.45745 4.19424l-.73842 1.17582a21.68923 21.68923 0 0 0 -7.80413 16.66214 21.68925 21.68925 0 0 0 9.96063 18.24453l2.2024 1.41583a4 4 0 0 1 1.83697 3.36474 2.81619 2.81619 0 0 0 2.81619 2.8162h2.36762a2.81619 2.81619 0 0 0 2.81619-2.81619z" fill="#ffd649"/><path d="m41 17h-2v-7a3.00328 3.00328 0 0 0 -3-3h-1v-2h1a5.00588 5.00588 0 0 1 5 5z" fill="#b98348"/><path d="m39.34326 18h-2.34326v-2h2.34326a3.02037 3.02037 0 0 0 2.1211-.87891l.82864-.82809 1.414 1.414-.82861.82813a4.9679 4.9679 0 0 1 -3.53513 1.46487z" fill="#e6c142"/><path d="m20 3h14a2 2 0 0 1 2 2v2a14 14 0 0 1 -14 14h-14a2 2 0 0 1 -2-2v-2a14 14 0 0 1 14-14z" fill="#50cc73"/><path d="m14 17h2a8.00917 8.00917 0 0 1 8-8h11.84094a14.037 14.037 0 0 0 .15906-2h-12a10.01146 10.01146 0 0 0 -10 10z" fill="#46b365"/></svg>