<?xml version="1.0"?>
<svg xmlns="http://www.w3.org/2000/svg" id="flat" viewBox="0 0 64 64" width="512" height="512"><path d="M18,31V8.338a2.5,2.5,0,0,1,1.11325-2.08013l1.25694-.838A2.5,2.5,0,0,1,21.75694,5H27.75a2.5,2.5,0,0,1,2,1l1.5,2a2.5,2.5,0,0,0,2,1h.71447a2.5,2.5,0,0,0,1.76776-.73223l1.53554-1.53554A2.5,2.5,0,0,1,39.03553,6h1.27189a2.5,2.5,0,0,1,2.32119,1.57152l.74278,1.857A2.5,2.5,0,0,0,45.69258,11h3.90173a2.5,2.5,0,0,1,.79056.12829l.9057.3019A2.5,2.5,0,0,1,53,13.8019V15.5A2.5,2.5,0,0,0,55.5,18h0A2.5,2.5,0,0,1,58,20.5h0a3.62132,3.62132,0,0,0,1.06066,2.56066l.87868.87868A3.62132,3.62132,0,0,1,61,26.5v.56193a3.62133,3.62133,0,0,1-1.61257,3.01312l-.47513.31675A3.62131,3.62131,0,0,1,56.90355,31H18Z" style="fill:#4bbf6b"/><path d="M39.89453,34.44727l-1.78906-.89454,5.94531-11.89062A18.54745,18.54745,0,0,0,46,13.40625V11h2v2.40625a20.55866,20.55866,0,0,1-2.16016,9.15039Z" style="fill:#46b364"/><path d="M13,28V13.693A2.693,2.693,0,0,1,15.693,11h.49162a2.693,2.693,0,0,1,1.49381.45229l1.22567.81711a2.693,2.693,0,0,0,2.34541.3141l3.69225-1.23075a2.693,2.693,0,0,1,2.056.14611l5.51363,2.75681A2.693,2.693,0,0,1,34,16.66437h0a2.693,2.693,0,0,0,2.31215,2.66594l3.291.47014A2.693,2.693,0,0,1,41.631,21.262l1.08467,2.16934A2.693,2.693,0,0,1,43,24.63573V41H21Z" style="fill:#50cc72"/><path d="M31,40A12,12,0,0,1,43,28h8a2,2,0,0,1,2,2v2a2,2,0,0,1-2,2H48a4,4,0,0,0-4,4V51a8,8,0,0,1-8,8H31Z" style="fill:#55d979"/><path d="M25.90137,39.43262l6.083-12.67188A20.58168,20.58168,0,0,0,34,17.90625V16.66437a2.693,2.693,0,0,0-1.48865-2.40869L32,14v3.90625a18.57424,18.57424,0,0,1-1.81836,7.98926l-6.083,12.67187Z" style="fill:#4bbf6b"/><path d="M31,40A12,12,0,0,1,43,28h8a2,2,0,0,1,2,2v2a2,2,0,0,1-2,2H48a4,4,0,0,0-4,4V51a8,8,0,0,1-8,8H31Z" style="fill:#55d979"/><path d="M42.921,55H37a6,6,0,0,1-6-6.00006V39A20,20,0,0,0,11,19H7a4,4,0,0,0-4,4v2a2,2,0,0,0,2,2H6A10,10,0,0,1,16,37v8A14,14,0,0,0,30,59h6A7.99018,7.99018,0,0,0,42.921,55Z" style="fill:#5ae680"/><path d="M9.82129,24.70312l-5.24756,2.249A1.99787,1.99787,0,0,0,5,27H6a9.98273,9.98273,0,0,1,2.67041.37158l1.938-.83056a7.87054,7.87054,0,0,1,6.62793.19531l.3164.1582.89454-1.78906-.31641-.1582A9.86454,9.86454,0,0,0,9.82129,24.70312Z" style="fill:#55d979"/><path d="M27.65375,27.93219l-1.62934,1.62933A13.65184,13.65184,0,0,0,22,39.27734V44h2V39.27734a11.66306,11.66306,0,0,1,3.43848-8.30175l1.26507-1.26508A19.9671,19.9671,0,0,0,27.65375,27.93219Z" style="fill:#55d979"/></svg>
