<?xml version="1.0"?>
<svg xmlns="http://www.w3.org/2000/svg" id="flat" viewBox="0 0 64 64" width="512" height="512"><path d="M45,16A16,16,0,0,1,61,32v5A24,24,0,0,1,37,61H27A24,24,0,0,1,3,37V32A16,16,0,0,1,19,16Z" style="fill:#e5644e"/><path d="M49.26667,11.2,52.6,13.7a1,1,0,0,1,.4.8v1a1,1,0,0,1-.4.8l-3.33333,2.5a1,1,0,0,1-.6.2H45.27735a1,1,0,0,0-.73626,1.67671l2.14856,2.33762a1,1,0,0,1,.2537.53529l.59254,4.14779a1,1,0,0,1-.28284.84853l-.70711.70711a1,1,0,0,1-.84853.28284l-4.14328-.5919a1,1,0,0,1-.54137-.25933L39.36558,27.1453A2,2,0,0,0,36,28.60652v1.06015a1,1,0,0,1-.2.6L33.3,33.6a1,1,0,0,1-.8.4h-1a1,1,0,0,1-.8-.4l-2.5-3.33333a1,1,0,0,1-.2-.6V28.60652a2,2,0,0,0-3.36558-1.46122l-1.64718,1.53936a1,1,0,0,1-.54137.25933l-4.14328.5919a1,1,0,0,1-.84853-.28284l-.70711-.70711a1,1,0,0,1-.28284-.84853l.59254-4.14779a1,1,0,0,1,.2537-.53529l2.14856-2.33762A1,1,0,0,0,18.72265,19H15.33333a1,1,0,0,1-.6-.2L11.4,16.3a1,1,0,0,1-.4-.8v-1a1,1,0,0,1,.4-.8l3.33333-2.5a1,1,0,0,1,.6-.2H24a6,6,0,0,1,3.6,1.2l.8.6A6,6,0,0,0,32,14h0a6,6,0,0,0,3.6-1.2l.8-.6A6,6,0,0,1,40,11h8.66667A1,1,0,0,1,49.26667,11.2Z" style="fill:#4fcc73"/><path d="M30,14V9a6,6,0,0,1,6-6h2a2,2,0,0,1,2,2h0a2,2,0,0,1-2,2H36a2,2,0,0,0-2,2v5Z" style="fill:#47b164"/><path d="M32.76416,19a6.27048,6.27048,0,0,0,2.78857-.6582l1.78907-.89453A2.98411,2.98411,0,0,0,39,14.76416V11.08679a5.986,5.986,0,0,0-2,.73468v2.94269a.9945.9945,0,0,1-.55273.894l-1.78858.89453A4.26313,4.26313,0,0,1,32.76416,17H31.58789a4.23314,4.23314,0,0,1-2.35449-.71289l-.35742-.23828A6.22843,6.22843,0,0,0,25.41211,15H24v2h1.41211a4.23314,4.23314,0,0,1,2.35449.71289l.35742.23828A6.22843,6.22843,0,0,0,31.58789,19Z" style="fill:#47b164"/></svg>
