<?xml version="1.0" encoding="iso-8859-1"?>
<!-- Generator: Adobe Illustrator 19.0.0, SVG Export Plug-In . SVG Version: 6.00 Build 0)  -->
<svg version="1.1" id="Capa_1" xmlns="http://www.w3.org/2000/svg" xmlns:xlink="http://www.w3.org/1999/xlink" x="0px" y="0px"
	 viewBox="0 0 384.007 384.007" style="enable-background:new 0 0 384.007 384.007;" xml:space="preserve">
<rect x="163.627" y="18.668" style="fill:#E4C180;" width="56.8" height="42.88"/>
<polygon style="fill:#D2982C;" points="350.427,61.547 350.427,133.627 51.227,133.627 16.027,97.627 51.227,61.547 "/>
<rect x="163.627" y="133.627" style="fill:#E4C180;" width="56.8" height="51.04"/>
<polygon style="fill:#D2982C;" points="368.027,220.747 332.827,256.828 33.627,256.828 33.627,184.667 332.827,184.667 "/>
<rect x="163.627" y="256.803" style="fill:#E4C180;" width="56.8" height="113.84"/>
<path style="fill:#235413;" d="M39.763,142.155c3.016,3.08,7.136,4.808,11.44,4.808h96.4v19.04h-114c-8.832,0-16,7.168-16,16v72.16
	c0,8.832,7.168,16,16,16h114v97.84c0,8.832,7.168,16,16,16h56.8c8.832,0,16-7.168,16-16v-97.84h96.4
	c4.312,0,8.44-1.744,11.456-4.832l35.2-36.08c6.064-6.216,6.064-16.128,0-22.344l-35.2-36.08c-3.008-3.088-7.144-4.832-11.456-4.832
	h-96.4v-19.04h114c8.832,0,16-7.168,16-16v-72.08c0-8.84-7.168-16-16-16h-114V16.003c0-8.832-7.168-16-16-16h-56.8
	c-8.832,0-16,7.168-16,16v26.88h-96.4c-4.312,0-8.44,1.744-11.456,4.824l-35.2,36.08c-6.064,6.216-6.064,16.144,0.008,22.36
	L39.763,142.155z M204.403,352.004h-24.8v-81.84h24.8V352.004z M345.651,218.083l-19.592,20.08H220.403h-56.8h-114v-40.16h114h56.8
	h105.664L345.651,218.083z M204.403,166.003h-24.8v-19.04h24.8V166.003z M179.603,32.003h24.8v10.88h-24.8L179.603,32.003
	L179.603,32.003z M57.947,74.884h105.656h56.8h114v40.08h-114h-56.8H57.939L38.371,94.956L57.947,74.884z"/>
<g>
</g>
<g>
</g>
<g>
</g>
<g>
</g>
<g>
</g>
<g>
</g>
<g>
</g>
<g>
</g>
<g>
</g>
<g>
</g>
<g>
</g>
<g>
</g>
<g>
</g>
<g>
</g>
<g>
</g>
</svg>
