<?xml version="1.0" encoding="iso-8859-1"?>
<!-- Generator: Adobe Illustrator 19.0.0, SVG Export Plug-In . SVG Version: 6.00 Build 0)  -->
<svg version="1.1" id="Capa_1" xmlns="http://www.w3.org/2000/svg" xmlns:xlink="http://www.w3.org/1999/xlink" x="0px" y="0px"
	 viewBox="0 0 384 384" style="enable-background:new 0 0 384 384;" xml:space="preserve">
<g>
	<path style="fill:#FF7526;" d="M200.664,147.304l-56,56c-10.72,10.72-28.08,10.64-38.8,0c-10.72-10.72-10.72-28.08,0-38.8
		l2.32-2.32l51.36-51.28v-0.08l2.32-2.32c10.72-10.72,28.08-10.72,38.8,0C211.304,119.224,211.384,136.584,200.664,147.304z"/>
	<path style="fill:#FF7526;" d="M239.384,186.024l-56,56c-10.72,10.72-28,10.72-38.72,0s-10.72-28,0-38.72l56-56
		c10.72-10.72,28-10.72,38.72,0S250.104,175.304,239.384,186.024z"/>
	<path style="fill:#FF7526;" d="M278.184,224.824l-2.32,2.32l-51.36,51.28v0.08l-2.32,2.32c-10.72,10.72-28.08,10.64-38.8,0
		c-10.64-10.72-10.72-28.08,0-38.8l56-56c10.72-10.72,28.08-10.72,38.8,0S288.904,214.104,278.184,224.824z"/>
</g>
<path style="fill:#235413;" d="M83.656,169.44c-4.128,14.656-0.624,31.024,10.912,42.56c7.4,7.344,16.824,11.288,26.48,12.224
	c0.936,9.656,4.904,19.072,12.28,26.456c7.384,7.384,16.808,11.344,26.464,12.288c0.944,9.672,4.904,19.12,12.288,26.56
	c8.48,8.416,19.6,12.624,30.704,12.624c4.008,0,7.968-0.744,11.856-1.84c13.16,32.408,42.08,59.2,46.048,62.776
	C274.32,376.576,292.36,384,311.56,384c19.352,0,37.528-7.544,51.192-21.248C376.456,349.096,384,330.912,384,311.56
	c0-19.2-7.424-37.24-20.92-50.864c-3.6-4-30.368-32.928-62.752-46.072c4.152-14.664,0.664-31.056-10.856-42.576
	c-7.4-7.4-16.84-11.368-26.52-12.304c-0.944-9.648-4.904-19.048-12.28-26.416c-7.384-7.384-16.8-11.344-26.456-12.28
	c-0.944-9.664-4.896-19.096-12.264-26.52c-11.52-11.528-27.928-15.016-42.6-10.848c-13.184-32.424-42.128-59.232-46.056-62.768
	C109.632,7.424,91.584,0,72.408,0c-0.024,0-0.048,0-0.072,0c-19.32,0.016-37.472,7.568-51.072,21.224
	C7.568,34.872,0.016,53.024,0,72.336C-0.016,91.528,7.4,109.6,20.896,123.28C25.488,128.416,51.632,156.568,83.656,169.44z
	 M339.448,282.264c0.224,0.256,0.464,0.504,0.704,0.744c7.64,7.624,11.848,17.76,11.848,28.552s-4.208,20.928-11.848,28.544
	c-0.016,0.008-0.032,0.024-0.04,0.04C332.496,347.792,322.352,352,311.56,352s-20.936-4.208-28.552-11.848
	c-0.224-0.232-0.48-0.464-0.72-0.68c-9.672-8.592-33.896-34.304-40.496-58.32l39.368-39.36
	C305.16,248.336,330.872,272.592,339.448,282.264z M266.848,210.848l-2.312,2.304l0,0l-51.36,51.28
	c-0.312,0.32-0.616,0.64-0.896,0.976l-1.432,1.432c-4.448,4.44-11.72,4.424-16.136,0.04c-4.464-4.496-4.488-11.768-0.04-16.216
	l56-56c2.232-2.224,5.16-3.344,8.088-3.344s5.856,1.12,8.088,3.344C271.304,199.136,271.304,206.384,266.848,210.848z
	 M228.048,172.048l-56,56c-4.44,4.44-11.656,4.44-16.096,0c-4.432-4.44-4.432-11.656,0-16.096l56-56
	c2.216-2.216,5.136-3.328,8.048-3.328s5.832,1.104,8.048,3.328C232.48,160.392,232.48,167.608,228.048,172.048z M189.288,117.112
	c4.464,4.496,4.488,11.768,0.04,16.216l-56,56c-4.44,4.432-11.72,4.424-16.176,0c-4.456-4.464-4.456-11.712,0-16.176l2.312-2.304
	l0,0l51.36-51.28c0.312-0.312,0.616-0.64,0.896-0.976l1.432-1.432C177.616,112.688,184.872,112.696,189.288,117.112z M43.888,43.848
	c7.608-7.632,17.72-11.84,28.48-11.848c0.008,0,0.024,0,0.04,0c10.784,0,20.936,4.216,28.6,11.872
	c0.224,0.216,0.464,0.448,0.696,0.656c9.672,8.6,33.936,34.344,40.512,58.368l-39.376,39.312
	c-23.96-6.56-49.704-30.824-58.304-40.496c-0.216-0.24-0.44-0.48-0.664-0.712C36.208,93.336,31.984,83.16,32,72.36
	C32.016,61.616,36.216,51.504,43.888,43.848z"/>
<g>
</g>
<g>
</g>
<g>
</g>
<g>
</g>
<g>
</g>
<g>
</g>
<g>
</g>
<g>
</g>
<g>
</g>
<g>
</g>
<g>
</g>
<g>
</g>
<g>
</g>
<g>
</g>
<g>
</g>
</svg>
