<?xml version="1.0" encoding="iso-8859-1"?>
<!-- Generator: Adobe Illustrator 19.0.0, SVG Export Plug-In . SVG Version: 6.00 Build 0)  -->
<svg version="1.1" id="Capa_1" xmlns="http://www.w3.org/2000/svg" xmlns:xlink="http://www.w3.org/1999/xlink" x="0px" y="0px"
	 viewBox="0 0 384 384" style="enable-background:new 0 0 384 384;" xml:space="preserve">
<polyline style="fill:#299113;" points="243.896,211.736 280.872,211.736 221.84,122.624 255.256,122.624 192.024,18.664 
	128.776,122.624 162.2,122.624 103.176,211.736 140.144,211.736 140.52,211.736 88.024,293.432 296.024,293.432 243.52,211.736 "/>
<path style="fill:#235413;" d="M73.96,298.432c2.808,5.136,8.192,8.336,14.04,8.336h88V368c0,8.832,7.168,16,16,16s16-7.168,16-16
	v-61.24h88c5.848,0,11.24-3.192,14.04-8.336c2.808-5.136,2.584-11.392-0.584-16.32l-36.656-57.04h8.056
	c5.888,0,11.312-3.24,14.096-8.432c2.784-5.192,2.496-11.496-0.76-16.408l-42.584-64.272h3.624c5.784,0,11.112-3.12,13.944-8.16
	c2.832-5.04,2.728-11.216-0.28-16.152L205.664,7.68C202.768,2.912,197.584,0,192,0s-10.768,2.912-13.664,7.68l-63.24,103.96
	c-3.008,4.944-3.112,11.12-0.28,16.152c2.832,5.04,8.168,8.16,13.944,8.16h3.64l-42.576,64.272
	c-3.256,4.912-3.544,11.216-0.752,16.408c2.784,5.192,8.2,8.432,14.096,8.432h8.032l-36.664,57.04
	C71.376,287.032,71.152,293.296,73.96,298.432z M153.96,217.72c3.168-4.92,3.2-11.176,0.392-16.32
	c-2.808-5.136-8.376-8.336-14.232-8.336h-7.176L175.52,128.8c3.256-4.912,3.544-11.216,0.752-16.408
	c-2.784-5.192-8.2-8.432-14.096-8.432h-4.968L192,46.792l34.776,57.168h-4.96c-5.888,0-11.312,3.24-14.096,8.432
	s-2.496,11.496,0.76,16.408l42.584,64.272h-7.184c-0.04,0-0.08,0-0.12,0c-3.048,0.04-6.152,0.768-8.912,2.536
	c-7.44,4.776-9.592,14.672-4.808,22.112l36.656,57.04H117.304L153.96,217.72z"/>
<g>
</g>
<g>
</g>
<g>
</g>
<g>
</g>
<g>
</g>
<g>
</g>
<g>
</g>
<g>
</g>
<g>
</g>
<g>
</g>
<g>
</g>
<g>
</g>
<g>
</g>
<g>
</g>
<g>
</g>
</svg>
