<?xml version="1.0" encoding="iso-8859-1"?>
<!-- Generator: Adobe Illustrator 19.0.0, SVG Export Plug-In . SVG Version: 6.00 Build 0)  -->
<svg version="1.1" id="Capa_1" xmlns="http://www.w3.org/2000/svg" xmlns:xlink="http://www.w3.org/1999/xlink" x="0px" y="0px"
	 viewBox="0 0 384 384" style="enable-background:new 0 0 384 384;" xml:space="preserve">
<path style="fill:#E4C180;" d="M312.024,179.624h-240c0-64.96,53.76-117.6,120-117.6S312.024,114.664,312.024,179.624z"/>
<path style="fill:#D2982C;" d="M284.344,179.624v81.6c0,50-41.36,90.4-92.32,90.4s-92.32-40.4-92.32-90.4v-81.6H284.344z"/>
<g>
	<path style="fill:#235413;" d="M158.48,359.68c4.6,14.056,17.8,24.32,33.52,24.32s28.928-10.264,33.52-24.32
		c43.36-13.904,74.8-53.952,74.8-101.128v-65.6H312c8.832,0,16-7.16,16-16c0-68.344-52.536-124.776-120-132.592V16
		c0-8.832-7.168-16-16-16s-16,7.168-16,16v28.368C108.536,52.184,56,108.616,56,176.96c0,8.832,7.168,16,16,16h11.68v65.6
		C83.68,305.736,115.12,345.776,158.48,359.68z M268.32,258.56c0,41.024-34.24,74.4-76.32,74.4s-76.32-33.376-76.32-74.4v-65.6
		h152.64V258.56z M191.84,75.368c0.056,0,0.104,0.016,0.16,0.016s0.104-0.016,0.16-0.016c51.704,0.08,94.68,37.192,102.552,85.592
		H284.32H99.68H89.288C97.16,112.56,140.136,75.448,191.84,75.368z"/>
	<path style="fill:#235413;" d="M192,312.56c30.208,0,54.784-24.224,54.784-54c0-8.832-7.168-16-16-16s-16,7.168-16,16
		c0,12.128-10.224,22-22.784,22c-8.832,0-16,7.168-16,16S183.168,312.56,192,312.56z"/>
	<path style="fill:#235413;" d="M178.528,128.52h26.944c8.832,0,16-7.168,16-16s-7.168-16-16-16h-26.944c-8.84,0-16,7.168-16,16
		S169.688,128.52,178.528,128.52z"/>
</g>
<g>
</g>
<g>
</g>
<g>
</g>
<g>
</g>
<g>
</g>
<g>
</g>
<g>
</g>
<g>
</g>
<g>
</g>
<g>
</g>
<g>
</g>
<g>
</g>
<g>
</g>
<g>
</g>
<g>
</g>
</svg>
