<?xml version="1.0" encoding="iso-8859-1"?>
<!-- Generator: Adobe Illustrator 19.0.0, SVG Export Plug-In . SVG Version: 6.00 Build 0)  -->
<svg version="1.1" id="Capa_1" xmlns="http://www.w3.org/2000/svg" xmlns:xlink="http://www.w3.org/1999/xlink" x="0px" y="0px"
	 viewBox="0 0 384 384" style="enable-background:new 0 0 384 384;" xml:space="preserve">
<path style="fill:#FF833B;" d="M263.464,179.464v174.4c0,9.28-7.28,16.8-16.24,16.8H87.784c-8.96,0-16.24-7.52-16.24-16.8v-174.4
	L263.464,179.464L263.464,179.464z"/>
<path style="fill:#DBAD56;" d="M278.904,155.944c0,13.04-10.08,23.52-22.56,23.52H78.664c-12.48,0-22.64-10.48-22.64-23.52
	c0-12.88,10.16-23.36,22.64-23.36h177.68C268.824,132.584,278.904,143.064,278.904,155.944z"/>
<g>
	<path style="fill:#235413;" d="M87.76,384H247.2c17.776,0,32.232-14.712,32.232-32.8v-7.28h22.088
		c23.424,0,42.48-19.52,42.48-43.52v-56c0-24-19.056-43.52-42.48-43.52h-22.08v-16.168c9.32-7.224,15.448-18.56,15.448-31.432
		c0-21.704-17.296-39.36-38.56-39.36H78.64c-21.304,0-38.64,17.656-38.64,39.36c0,12.888,6.152,24.256,15.52,31.472V351.2
		C55.52,369.288,69.984,384,87.76,384z M247.44,351.2c0,0.552-0.272,0.776-0.248,0.8l-159.328,0.024c0,0-0.336-0.208-0.336-0.824
		V192.8H247.44v24.08v111.04V351.2z M301.52,232.88c5.776,0,10.48,5.168,10.48,11.52v56c0,6.352-4.704,11.52-10.48,11.52h-22.08
		v-79.04L301.52,232.88L301.52,232.88z M78.64,145.92h177.68c3.616,0,6.56,3.304,6.56,7.36c0,4.144-2.944,7.52-6.56,7.52H78.64
		c-3.664,0-6.64-3.376-6.64-7.52C72,149.224,74.976,145.92,78.64,145.92z"/>
	<path style="fill:#235413;" d="M149.656,307.856h-18.04v-19.248c0-8.832-7.16-16-16-16c-8.832,0-16,7.168-16,16v35.248
		c0,8.832,7.168,16,16,16h34.04c8.832,0,16-7.168,16-16S158.488,307.856,149.656,307.856z"/>
	<path style="fill:#235413;" d="M151.456,16v43.512c0,8.832,7.16,16,16,16c8.832,0,16-7.168,16-16V16c0-8.832-7.168-16-16-16
		C158.616,0,151.456,7.168,151.456,16z"/>
	<path style="fill:#235413;" d="M211.04,42.432v43.512c0,8.832,7.168,16,16,16s16-7.168,16-16V42.432c0-8.832-7.168-16-16-16
		S211.04,33.6,211.04,42.432z"/>
	<path style="fill:#235413;" d="M91.872,42.432v43.512c0,8.832,7.168,16,16,16s16-7.168,16-16V42.432c0-8.832-7.168-16-16-16
		S91.872,33.6,91.872,42.432z"/>
</g>
<g>
</g>
<g>
</g>
<g>
</g>
<g>
</g>
<g>
</g>
<g>
</g>
<g>
</g>
<g>
</g>
<g>
</g>
<g>
</g>
<g>
</g>
<g>
</g>
<g>
</g>
<g>
</g>
<g>
</g>
</svg>
