<?xml version="1.0" encoding="iso-8859-1"?>
<!-- Generator: Adobe Illustrator 19.0.0, SVG Export Plug-In . SVG Version: 6.00 Build 0)  -->
<svg version="1.1" id="Capa_1" xmlns="http://www.w3.org/2000/svg" xmlns:xlink="http://www.w3.org/1999/xlink" x="0px" y="0px"
	 viewBox="0 0 384 384" style="enable-background:new 0 0 384 384;" xml:space="preserve">
<path style="fill:#FF833B;" d="M248.024,74.664c0,22-17.44,39.84-38.96,39.84c-21.44,0-38.88-17.84-38.88-39.84
	c0-11.44,4.72-21.76,12.32-29.04l26.56-26.96l26.64,26.96C243.304,52.904,248.024,63.224,248.024,74.664z"/>
<path style="fill:#3EAD26;" d="M304.024,203.224v145.44c0,12.16-9.68,22-21.6,22h-146.64c-11.92,0-21.6-9.84-21.6-22v-145.44
	H304.024z"/>
<rect x="114.184" y="151.144" style="fill:#DBAD56;" width="189.84" height="52.08"/>
<g>
	<path style="fill:#235413;" d="M114.16,132.48c-8.832,0-16,7.168-16,16v10.032H80c-8.832,0-16,7.168-16,16v52.752
		c0,8.832,7.168,16,16,16h18.16V346c0,20.952,16.864,38,37.6,38H282.4c20.736,0,37.6-17.048,37.6-38V200.56v-52.08
		c0-8.832-7.168-16-16-16h-54c-1.056-6.168-3.376-11.888-6.784-16.832C255.864,105.408,264,89.664,264,72
		c0-15.304-6.288-30.096-16.936-40.288l-26.64-26.96C217.416,1.712,213.32,0,209.04,0c-0.008,0-0.008,0-0.016,0
		c-4.28,0-8.384,1.72-11.384,4.776l-26.224,26.632C160.448,41.904,154.16,56.696,154.16,72c0,17.68,8.136,33.432,20.776,43.672
		c-3.4,4.936-5.72,10.648-6.776,16.808H114.16z M193.88,54.184l15.176-15.408l15.552,15.736C229.376,59.08,232,65.288,232,72
		c0,13.144-10.304,23.84-22.96,23.84c-12.616,0-22.88-10.696-22.88-23.84C186.16,65.288,188.784,59.08,193.88,54.184z M288,346
		c0,3.312-2.512,6-5.6,6H135.76c-3.088,0-5.6-2.688-5.6-6V216.56H288V346z M288,184.56H130.16v-20.08H288V184.56z"/>
	<path style="fill:#235413;" d="M173.48,320.632c3.12,3.048,7.152,4.568,11.192,4.568c4.152,0,8.304-1.608,11.432-4.808
		l12.976-13.248l12.976,13.248c3.136,3.2,7.28,4.808,11.432,4.808c4.04,0,8.08-1.52,11.192-4.568
		c6.312-6.184,6.416-16.312,0.24-22.632l-13.448-13.736l13.448-13.736c6.176-6.32,6.072-16.448-0.24-22.632
		c-6.32-6.168-16.44-6.072-22.632,0.24l-12.976,13.248l-12.976-13.248c-6.184-6.304-16.312-6.416-22.632-0.24
		c-6.312,6.184-6.416,16.312-0.24,22.632l13.448,13.736L173.224,298C167.056,304.32,167.168,314.448,173.48,320.632z"/>
</g>
<g>
</g>
<g>
</g>
<g>
</g>
<g>
</g>
<g>
</g>
<g>
</g>
<g>
</g>
<g>
</g>
<g>
</g>
<g>
</g>
<g>
</g>
<g>
</g>
<g>
</g>
<g>
</g>
<g>
</g>
</svg>
