<?xml version="1.0" encoding="iso-8859-1"?>
<!-- Generator: Adobe Illustrator 19.0.0, SVG Export Plug-In . SVG Version: 6.00 Build 0)  -->
<svg version="1.1" id="Capa_1" xmlns="http://www.w3.org/2000/svg" xmlns:xlink="http://www.w3.org/1999/xlink" x="0px" y="0px"
	 viewBox="0 0 384 384" style="enable-background:new 0 0 384 384;" xml:space="preserve">
<path style="fill:#D9D8D2;" d="M304.024,159.304c0,48.64-29.68,84.96-71.52,99.2h-14.64v-72.8h-51.68v72.8h-14.64
	c-41.84-14.24-71.52-50.56-71.52-99.2c0-63.2,50.16-114.48,112-114.48S304.024,96.104,304.024,159.304z"/>
<rect x="166.184" y="185.68" style="fill:#FF7526;" width="51.68" height="72.8"/>
<path style="fill:#DBAD56;" d="M260.184,283.384c0,13.76-10.88,24.88-24.32,24.88h-87.68c-13.44,0-24.32-11.12-24.32-24.88
	s10.88-24.88,24.32-24.88h87.68C249.304,258.504,260.184,269.624,260.184,283.384z"/>
<path style="fill:#3EAD26;" d="M294.664,345.784c0,13.76-10.88,24.88-24.4,24.88h-156.48c-13.52,0-24.4-11.12-24.4-24.88
	s10.88-24.96,24.4-24.96h156.48C283.784,320.824,294.664,332.024,294.664,345.784z"/>
<g>
	<path style="fill:#235413;" d="M320,156.64c0-57.416-36.616-106.192-87.264-123.592C228.504,14.168,211.888,0,192,0
		c-19.896,0-36.52,14.168-40.744,33.056C100.616,50.456,64,99.224,64,156.64c0,41.688,19.416,77.528,52.192,99.448
		c-5.168,6.872-8.352,15.344-8.352,24.632c0,7.888,2.312,15.192,6.144,21.44h-0.224c-22.272,0-40.4,18.376-40.4,40.96
		c0,22.536,18.128,40.88,40.4,40.88h156.48c22.272,0,40.4-18.336,40.4-40.88c0-22.584-18.128-40.96-40.4-40.96h-0.232
		c3.832-6.248,6.144-13.552,6.144-21.44c0-9.288-3.184-17.76-8.352-24.632C300.584,234.168,320,198.328,320,156.64z M278.64,343.12
		c0,4.896-3.768,8.88-8.4,8.88H113.76c-4.632,0-8.4-3.984-8.4-8.88c0-4.944,3.768-8.96,8.4-8.96h156.48
		C274.872,334.16,278.64,338.176,278.64,343.12z M96,156.64c0-45.952,30.88-84.536,72.44-95.36c1.28-0.168,2.48-0.512,3.64-0.96
		c6.432-1.4,13.088-2.16,19.92-2.16c6.856,0,13.536,0.768,19.984,2.176c1.072,0.408,2.192,0.72,3.368,0.888
		C257.016,71.976,288,110.616,288,156.64c0,36.784-20.568,67.464-54.16,81.576V183.04c0-8.832-7.16-16-16-16H208v-19.048
		c0-8.84-7.168-16-16-16c-8.84,0-16,7.16-16,16v19.048h-9.848c-8.832,0-16,7.168-16,16v55.176C116.568,224.104,96,193.424,96,156.64
		z M235.84,271.84c4.584,0,8.312,3.984,8.312,8.88s-3.728,8.88-8.312,8.88h-87.688c-4.584,0-8.312-3.984-8.312-8.88
		s3.728-8.88,8.312-8.88h3.368h14.632h51.688h14.632H235.84z M182.152,199.04h19.688v40.8h-19.688V199.04z"/>
	<path style="fill:#235413;" d="M198.552,104.48c12.568,2.216,23.2,10.744,28.44,22.8c2.624,6.032,8.504,9.632,14.688,9.632
		c2.128,0,4.288-0.424,6.368-1.328c8.104-3.52,11.824-12.944,8.304-21.048c-9.528-21.936-29.056-37.48-52.232-41.576
		c-8.664-1.504-16.992,4.28-18.536,12.976C184.04,94.648,189.848,102.944,198.552,104.48z"/>
</g>
<g>
</g>
<g>
</g>
<g>
</g>
<g>
</g>
<g>
</g>
<g>
</g>
<g>
</g>
<g>
</g>
<g>
</g>
<g>
</g>
<g>
</g>
<g>
</g>
<g>
</g>
<g>
</g>
<g>
</g>
</svg>
