<?xml version="1.0" encoding="iso-8859-1"?>
<!-- Generator: Adobe Illustrator 19.0.0, SVG Export Plug-In . SVG Version: 6.00 Build 0)  -->
<svg version="1.1" id="Capa_1" xmlns="http://www.w3.org/2000/svg" xmlns:xlink="http://www.w3.org/1999/xlink" x="0px" y="0px"
	 viewBox="0 0 383.968 383.968" style="enable-background:new 0 0 383.968 383.968;" xml:space="preserve">
<path style="fill:#E4C180;" d="M315.427,194.504l-29.36,29.28c-1.28,1.28-2.64,2.56-4,3.68l-122.88-122.8
	c1.2-1.36,2.4-2.64,3.68-3.92l29.36-29.36L315.427,194.504z"/>
<path style="fill:#3EAD26;" d="M282.067,227.464c-24.16,21.44-57.36,27.04-86.32,16.96c-12-4.16-23.28-11.04-32.88-20.64
	c-9.52-9.52-16.4-20.8-20.64-32.72c-10.08-29.04-4.48-62.32,16.96-86.4L282.067,227.464z"/>
<path style="fill:#FF833B;" d="M195.747,244.424l-115.28,115.2c-14.72,14.72-38.64,14.72-53.44,0c-14.72-14.8-14.72-38.72,0-53.44
	l115.2-115.12c4.24,11.92,11.12,23.2,20.64,32.72C172.467,233.384,183.747,240.264,195.747,244.424z"/>
<g>
	<path style="fill:#235413;" d="M15.723,368.304c10.504,10.448,24.272,15.664,38.032,15.664c13.776,0,27.536-5.232,38-15.688
		l108.632-108.552c7.944,1.904,16,2.888,24.024,2.888c24.544,0,48.664-8.776,67.624-25.336c0.056-0.048,0.12-0.072,0.176-0.12
		c0.064-0.056,0.128-0.12,0.192-0.176c0.088-0.072,0.176-0.136,0.264-0.208c0.064-0.056,0.104-0.128,0.168-0.184
		c1.536-1.304,3.08-2.704,4.512-4.136l29.36-29.28c3.008-3,4.696-7.072,4.704-11.32c0-4.248-1.68-8.328-4.688-11.328l-123.2-123.12
		c-6.24-6.248-16.376-6.248-22.624,0.008l-29.376,29.376c-1.488,1.496-2.896,2.992-4.296,4.576l0,0l-0.008,0.008
		c-0.016,0.016-0.032,0.032-0.048,0.048s-0.024,0.032-0.04,0.048c-22.312,25.128-30.656,59.624-22.872,92.256L15.691,292.208
		C-5.221,313.12-5.237,347.232,15.723,368.304z M200.963,226.648c-10.128-3.512-19.152-9.176-26.816-16.832
		c-7.504-7.504-13.144-16.432-16.768-26.512c-0.088-0.256-0.144-0.52-0.248-0.776c-6.296-18.68-4.608-38.808,4.208-55.72
		l47.472,47.44l48.4,48.368C240.091,231.512,219.739,233.184,200.963,226.648z M192.203,91.344l100.552,100.488l-10.544,10.52
		l-100.536-100.48L192.203,91.344z M38.307,314.832l19.824-19.808c0.544,0.792,1.136,1.552,1.84,2.256
		c3.128,3.128,7.216,4.696,11.32,4.696c4.096,0,8.184-1.56,11.312-4.688l26.728-26.712c6.256-6.248,6.256-16.376,0.008-22.624
		c-0.704-0.704-1.464-1.296-2.256-1.84l30.72-30.696c1.264,1.96,2.696,3.792,4.088,5.664c0.736,0.992,1.392,2.032,2.168,2.992
		c2.344,2.928,4.832,5.728,7.472,8.368c2.704,2.704,5.544,5.224,8.48,7.584c0.992,0.792,2.056,1.464,3.072,2.224
		c1.824,1.36,3.616,2.768,5.528,4l-99.48,99.4c-8.472,8.464-22.312,8.464-30.784,0.032
		C29.859,337.144,29.843,323.304,38.307,314.832z"/>
	<path style="fill:#235413;" d="M305.211,101.488l27-27c6.248-6.248,6.248-16.376,0-22.632c-6.248-6.248-16.376-6.248-22.632,0
		l-27,26.992c-6.248,6.248-6.248,16.376,0,22.632c3.128,3.128,7.224,4.688,11.32,4.688
		C297.987,106.168,302.083,104.608,305.211,101.488z"/>
	<path style="fill:#235413;" d="M367.963,122.984h-38.184c-8.832,0-16,7.168-16,16s7.168,16,16,16h38.184c8.832,0,16-7.168,16-16
		S376.795,122.984,367.963,122.984z"/>
	<path style="fill:#235413;" d="M260.939,54.176V16c0-8.832-7.168-16-16-16s-16,7.168-16,16v38.184c0,8.832,7.168,16,16,16
		S260.939,63.016,260.939,54.176z"/>
</g>
<g>
</g>
<g>
</g>
<g>
</g>
<g>
</g>
<g>
</g>
<g>
</g>
<g>
</g>
<g>
</g>
<g>
</g>
<g>
</g>
<g>
</g>
<g>
</g>
<g>
</g>
<g>
</g>
<g>
</g>
</svg>
