<?xml version="1.0" encoding="iso-8859-1"?>
<!-- Generator: Adobe Illustrator 19.0.0, SVG Export Plug-In . SVG Version: 6.00 Build 0)  -->
<svg version="1.1" id="Capa_1" xmlns="http://www.w3.org/2000/svg" xmlns:xlink="http://www.w3.org/1999/xlink" x="0px" y="0px"
	 viewBox="0 0 384.006 384.006" style="enable-background:new 0 0 384.006 384.006;" xml:space="preserve">
<path style="fill:#DBAD56;" d="M159.464,51.387c-0.08-0.08-0.08-0.08-0.08-0.08c-25.52-12.4-77.36-32.64-143.36-32.64
	c0,66.08,20.24,117.92,32.64,143.44c0,0,0,0,0.08,0.08c2.16,1.04,39.28,19.04,84.56-26.24S160.504,53.547,159.464,51.387z"/>
<path style="fill:#FF833B;" d="M234.744,237.387c-51.6,51.6-102.48,24.32-136.24-7.84c-8.56-8.16-16-16.64-22.08-24.24
	c-11.68-14.56-18.4-25.84-18.4-25.84s-3.92-6.08-9.28-17.28c2.16,1.04,39.28,19.04,84.56-26.24s27.2-82.4,26.16-84.56
	c11.2,5.36,17.36,9.28,17.36,9.28s26.32,15.68,49.92,40.56l0.08,0.08C258.984,135.147,286.104,186.027,234.744,237.387z"/>
<path style="fill:#DBAD56;" d="M368.024,253.147c0,0-30.48,1.12-73.44,44.08c-43.04,43.04-44.08,73.44-44.08,73.44l-15.76-133.28
	L368.024,253.147z"/>
<path style="fill:#FF7526;" d="M309.144,91.947c0,0-44.8,46.72-82.32,9.36l-0.08-0.08c-23.6-24.88-49.92-40.56-49.92-40.56
	s-6.16-3.92-17.36-9.28c-0.08-0.08-0.08-0.08-0.08-0.08s61.76-47.36,98-11.2C293.544,76.347,309.144,91.947,309.144,91.947z"/>
<g>
	<path style="fill:#235413;" d="M68.232,265.307c2.064,0.896,4.24,1.336,6.408,1.336c4.144,0,8.232-1.616,11.296-4.664
		l13.216-13.176c25.024,20.568,50.192,30.92,74.536,30.92c16.664,0,32.936-4.936,48.512-14.616l12.384,104.776
		c0.952,8.08,7.816,14.12,15.888,14.12c0.216,0,0.448,0,0.672-0.016c8.36-0.344,15.04-7.072,15.328-15.432
		c0.008-0.24,2.488-25.752,39.408-62.672c36.344-36.344,61.936-39.312,63.016-39.416c8.208-0.456,14.768-7.08,15.096-15.328
		c0.344-8.352-5.808-15.552-14.104-16.536l-104.84-12.4c18.232-29.4,19.272-61.32,2.976-93.704
		c28.504-3.832,50.096-25.472,52.648-28.136c6.024-6.288,5.92-16.232-0.232-22.384l-51.768-51.856
		c-37.104-37-90.528-8.896-110.856,4.176C129.208,17.475,78.744,0.003,16,0.003c-8.84,0-16,7.168-16,16
		c0,69.56,21.464,124.104,34.248,150.432c0.064,0.136,0.168,0.264,0.24,0.4c5.528,11.504,9.608,17.936,9.768,18.16
		c0.264,0.448,6.008,10.016,15.936,22.912l-1.544,42.16C58.416,256.627,62.208,262.675,68.232,265.307z M109.52,215.307
		c-7.016-6.688-13.952-14.312-20.64-22.672c-3.968-4.944-7.336-9.504-10.016-13.304c0.16-0.016,0.344-0.056,0.504-0.072
		c2-0.216,4.056-0.504,6.168-0.896c0.16-0.032,0.312-0.048,0.472-0.08c2.152-0.408,4.368-0.944,6.624-1.552
		c0.408-0.112,0.8-0.216,1.208-0.336c2.224-0.64,4.488-1.384,6.8-2.248c0.424-0.16,0.848-0.328,1.272-0.488
		c2.392-0.936,4.824-1.96,7.304-3.16c0.192-0.096,0.392-0.2,0.584-0.304c2.424-1.192,4.888-2.528,7.384-4.008
		c0.32-0.192,0.632-0.36,0.952-0.552c2.52-1.52,5.08-3.224,7.656-5.056c0.48-0.344,0.952-0.68,1.44-1.032
		c2.576-1.888,5.168-3.92,7.784-6.144c0.416-0.36,0.84-0.736,1.264-1.104c2.752-2.392,5.52-4.912,8.312-7.704
		c3.144-3.144,6.008-6.264,8.64-9.36c0.912-1.072,1.664-2.128,2.52-3.192c1.608-2.008,3.248-4.016,4.656-6
		c0.888-1.24,1.624-2.456,2.432-3.688c1.168-1.768,2.368-3.544,3.392-5.288c0.76-1.296,1.392-2.552,2.072-3.824
		c0.872-1.632,1.768-3.264,2.52-4.864c0.616-1.304,1.12-2.568,1.656-3.848c0.64-1.52,1.288-3.04,1.832-4.528
		c0.464-1.28,0.848-2.528,1.248-3.784c0.448-1.424,0.896-2.848,1.264-4.232c0.328-1.24,0.592-2.448,0.856-3.656
		c0.288-1.336,0.568-2.656,0.784-3.944c0.2-1.184,0.36-2.336,0.504-3.488c0.08-0.664,0.224-1.376,0.296-2.032
		c0.136,0.096,0.264,0.184,0.392,0.28c1.984,1.408,4.192,3.032,6.528,4.808c0.376,0.288,0.728,0.544,1.112,0.84
		c2.488,1.904,5.144,4.024,7.88,6.288c0.528,0.432,1.064,0.896,1.6,1.344c2.528,2.128,5.112,4.392,7.728,6.792
		c0.536,0.488,1.064,0.976,1.6,1.472c3,2.8,6.016,5.744,8.984,8.856c0.056,0.064,0.12,0.12,0.184,0.192
		c59.328,62.48,20.8,101.008,8.144,113.672C210.688,236.123,172.016,274.827,109.52,215.307z M283.248,283.251
		c-9.592,9.584-17.296,18.664-23.488,27.056l-6.776-57.32l57.32,6.776C301.912,265.963,292.832,273.667,283.248,283.251z
		 M246.032,48.739l39.224,39.288c-7.208,4.664-16.424,8.992-25.408,9.096c-7.848,0.072-15.04-3.12-21.52-9.568
		c-2.032-2.144-4.088-4.2-6.144-6.216c-0.512-0.504-1.024-1-1.536-1.488c-1.856-1.792-3.712-3.536-5.552-5.208
		c-0.176-0.16-0.352-0.328-0.528-0.488c-2.04-1.84-4.048-3.592-6.032-5.288c-0.456-0.392-0.904-0.76-1.36-1.144
		c-1.68-1.408-3.328-2.768-4.936-4.064c-0.296-0.24-0.608-0.496-0.904-0.728c-1.856-1.48-3.648-2.872-5.384-4.192
		c-0.368-0.28-0.72-0.544-1.088-0.816c-1.448-1.088-2.832-2.12-4.16-3.08c-0.304-0.224-0.608-0.448-0.904-0.664
		c-1.544-1.112-2.992-2.136-4.336-3.072c-0.184-0.128-0.344-0.232-0.52-0.36c-1.24-0.856-2.368-1.616-3.4-2.304
		c-0.072-0.048-0.16-0.112-0.232-0.152C208.36,40.275,231.36,34.099,246.032,48.739z M146.648,60.339
		c0.152,0.576,0.304,1.16,0.44,1.832c0.008,0.024,0.008,0.04,0.016,0.064c0.168,0.824,0.32,1.736,0.448,2.696
		c0.024,0.208,0.048,0.44,0.072,0.664c0.088,0.76,0.16,1.56,0.208,2.392c0.016,0.32,0.032,0.648,0.048,0.976
		c0.032,0.832,0.032,1.704,0.016,2.6c-0.008,0.328-0.008,0.648-0.024,0.992c-0.048,1.232-0.144,2.512-0.304,3.864v0.008
		c-0.168,1.36-0.416,2.792-0.72,4.256c-0.072,0.36-0.176,0.744-0.264,1.12c-0.256,1.112-0.552,2.24-0.896,3.408
		c-0.144,0.496-0.304,0.992-0.464,1.496c-0.376,1.144-0.8,2.328-1.272,3.52c-0.192,0.48-0.36,0.952-0.568,1.44
		c-0.696,1.664-1.472,3.368-2.376,5.12c-0.008,0.016-0.016,0.032-0.024,0.04c-0.912,1.76-1.96,3.576-3.104,5.416
		c-0.328,0.528-0.696,1.064-1.04,1.6c-0.872,1.336-1.792,2.688-2.792,4.064c-0.472,0.648-0.96,1.304-1.464,1.96
		c-1.048,1.368-2.176,2.76-3.36,4.16c-0.512,0.608-1.008,1.216-1.552,1.832c-1.768,2.008-3.64,4.04-5.712,6.112
		s-4.096,3.936-6.104,5.704c-0.632,0.56-1.256,1.064-1.888,1.592c-1.384,1.168-2.752,2.28-4.104,3.312
		c-0.672,0.512-1.336,1.016-2,1.496c-1.36,0.992-2.704,1.912-4.024,2.768c-0.544,0.352-1.096,0.728-1.632,1.064
		c-1.84,1.136-3.656,2.192-5.416,3.104c-0.016,0.008-0.024,0.016-0.04,0.024c-1.752,0.912-3.456,1.68-5.128,2.384
		c-0.472,0.2-0.928,0.368-1.392,0.552c-1.224,0.48-2.432,0.928-3.608,1.304c-0.472,0.152-0.936,0.304-1.4,0.44
		c-1.224,0.36-2.416,0.68-3.576,0.944c-0.312,0.072-0.632,0.16-0.944,0.224c-2.968,0.624-5.712,0.944-8.224,1.048
		c-0.288,0.016-0.552,0.016-0.832,0.016c-0.952,0.024-1.872,0.016-2.752-0.016c-0.296-0.008-0.584-0.024-0.872-0.04
		c-0.88-0.048-1.72-0.128-2.512-0.216c-0.184-0.024-0.384-0.04-0.568-0.064c-0.96-0.128-1.864-0.272-2.688-0.44
		c-0.112-0.024-0.2-0.048-0.312-0.072c-0.576-0.12-1.096-0.248-1.592-0.384C49.8,123.627,35.144,83.203,32.448,32.419
		C83.176,35.147,123.568,49.787,146.648,60.339z"/>
	<path style="fill:#235413;" d="M196.16,143.595c-8.928-0.6-16.48,5.976-17.128,14.784l-1.432,19.408l-19.624,1.592
		c-8.808,0.72-15.368,8.44-14.648,17.248c0.68,8.368,7.68,14.704,15.928,14.704c0.432,0,0.872-0.016,1.312-0.048l33.28-2.704
		c7.856-0.64,14.088-6.912,14.656-14.776l2.432-33.072C211.592,151.907,204.976,144.243,196.16,143.595z"/>
	<path style="fill:#235413;" d="M64.944,91.579c0.648,0.928,1.344,1.832,2.152,2.632c0.736,0.736,1.544,1.336,2.36,1.928
		c0.216,0.16,0.408,0.368,0.632,0.52c0.6,0.392,1.248,0.672,1.88,0.992c0.488,0.248,0.952,0.56,1.448,0.768
		c0.552,0.224,1.128,0.336,1.696,0.504c0.616,0.184,1.216,0.424,1.848,0.552c1.2,0.232,2.424,0.352,3.648,0.352
		c4.72,0,9.464-1.744,13.2-5.256c0.264-0.24,0.504-0.488,0.752-0.744c7.128-7.616,6.976-19.336-0.384-26.744
		c-3.664-3.656-8.824-5.728-13.864-5.624c-4.944,0.08-9.736,2.128-13.216,5.632c-3.52,3.488-5.576,8.288-5.656,13.248
		C61.376,84.355,62.656,88.299,64.944,91.579z"/>
</g>
<g>
</g>
<g>
</g>
<g>
</g>
<g>
</g>
<g>
</g>
<g>
</g>
<g>
</g>
<g>
</g>
<g>
</g>
<g>
</g>
<g>
</g>
<g>
</g>
<g>
</g>
<g>
</g>
<g>
</g>
</svg>
