<?xml version="1.0" encoding="iso-8859-1"?>
<!-- Generator: Adobe Illustrator 19.0.0, SVG Export Plug-In . SVG Version: 6.00 Build 0)  -->
<svg version="1.1" id="Capa_1" xmlns="http://www.w3.org/2000/svg" xmlns:xlink="http://www.w3.org/1999/xlink" x="0px" y="0px"
	 viewBox="0 0 384 384" style="enable-background:new 0 0 384 384;" xml:space="preserve">
<g>
	<path style="fill:#E4C180;" d="M192.024,156.352l-48.8,48.96l-65.92-66.16c-3.28-3.28-5.76-7.12-7.44-11.2h93.92L192.024,156.352z"
		/>
	<path style="fill:#E4C180;" d="M306.744,320.512c-13.52,13.52-35.36,13.52-48.8,0l-65.92-66.16l48.8-49.04l65.92,66.24
		C320.184,285.072,320.184,306.992,306.744,320.512z"/>
</g>
<path style="fill:#DBAD56;" d="M314.184,127.952c-1.68,4.08-4.16,7.92-7.44,11.2l-65.92,66.16l-48.8-48.96l28.24-28.4
	L314.184,127.952L314.184,127.952z"/>
<polygon style="fill:#D2982C;" points="240.824,205.312 192.024,254.352 143.224,205.312 192.024,156.352 "/>
<path style="fill:#DBAD56;" d="M192.024,254.352l-65.92,66.16c-13.44,13.52-35.28,13.52-48.8,0c-13.44-13.52-13.44-35.44,0-48.96
	l65.92-66.24L192.024,254.352z"/>
<path style="fill:#FF7526;" d="M368.024,93.312c0,19.12-15.44,34.64-34.48,34.64H50.504c-19.04,0-34.48-15.52-34.48-34.64
	s15.44-34.64,34.48-34.64h283.04C352.584,58.672,368.024,74.192,368.024,93.312z"/>
<path style="fill:#235413;" d="M323.368,141.288h10.152c27.832,0,50.48-22.72,50.48-50.64s-22.648-50.64-50.48-50.64H50.48
	C22.648,40.008,0,62.728,0,90.648s22.648,50.64,50.48,50.64h10.152c1.616,2.28,3.328,4.504,5.32,6.496l54.672,54.872l-54.688,54.952
	c-19.608,19.72-19.608,51.808,0.032,71.552c9.56,9.56,22.248,14.832,35.736,14.832c0.024,0,0.056,0,0.08,0
	c13.48-0.024,26.136-5.304,35.624-14.848L192,274.36l54.576,54.768c9.504,9.56,22.16,14.84,35.64,14.864c0.024,0,0.056,0,0.08,0
	c13.488,0,26.176-5.264,35.736-14.832c0.016-0.008,0.024-0.016,0.032-0.032c19.608-19.72,19.608-51.8-0.008-71.528l-54.68-54.944
	l54.648-54.856C320.032,145.8,321.744,143.576,323.368,141.288z M32,90.648c0-10.28,8.288-18.64,18.48-18.64h283.04
	c10.192,0,18.48,8.36,18.48,18.64s-8.288,18.64-18.48,18.64h-19.36h-93.92h-56.48H69.84H50.48C40.288,109.288,32,100.928,32,90.648z
	 M192,229.008l-26.216-26.344L192,176.352l26.216,26.304L192,229.008z M157.112,141.288l12.312,12.384L143.2,179.984l-38.552-38.688
	h52.464V141.288z M114.728,306.568c-3.464,3.488-8.08,5.408-12.992,5.416c-0.008,0-0.024,0-0.024,0c-4.944,0-9.6-1.936-13.08-5.424
	c-7.24-7.28-7.24-19.12-0.008-26.392l54.576-54.84l26.224,26.344L114.728,306.568z M295.384,306.552
	c-3.512,3.504-8.168,5.44-13.096,5.44c-0.008,0-0.016,0-0.024,0c-4.912-0.008-9.528-1.936-13-5.432l-54.68-54.872l26.224-26.344
	l54.568,54.832C302.608,287.44,302.608,299.272,295.384,306.552z M240.8,179.984l-26.216-26.304l12.312-12.384h52.456L240.8,179.984
	z"/>
<g>
</g>
<g>
</g>
<g>
</g>
<g>
</g>
<g>
</g>
<g>
</g>
<g>
</g>
<g>
</g>
<g>
</g>
<g>
</g>
<g>
</g>
<g>
</g>
<g>
</g>
<g>
</g>
<g>
</g>
</svg>
