<?xml version="1.0" encoding="iso-8859-1"?>
<!-- Generator: Adobe Illustrator 19.0.0, SVG Export Plug-In . SVG Version: 6.00 Build 0)  -->
<svg version="1.1" id="Capa_1" xmlns="http://www.w3.org/2000/svg" xmlns:xlink="http://www.w3.org/1999/xlink" x="0px" y="0px"
	 viewBox="0 0 384 384" style="enable-background:new 0 0 384 384;" xml:space="preserve">
<g>
	<path style="fill:#DBAD56;" d="M86.024,199.624v134.32h-34.96c-19.36,0-35.04-15.6-35.04-34.88v-64.56
		c0-19.28,15.68-34.88,35.04-34.88H86.024z"/>
	<path style="fill:#DBAD56;" d="M368.024,234.504v64.56c0,19.28-15.68,34.88-35.04,34.88h-34.96v-134.32h34.96
		C352.344,199.624,368.024,215.224,368.024,234.504z"/>
</g>
<path style="fill:#FF833B;" d="M298.024,162.184v182.08c0,14.56-11.84,26.4-26.48,26.4h-159.04c-14.64,0-26.48-11.84-26.48-26.4
	v-182.08c17.52,27.12,46.8,47.44,79.28,54.8v22.16c0,14.72,11.92,26.64,26.72,26.64c14.8,0,26.72-11.92,26.72-26.64v-22.24
	C251.224,209.544,280.504,189.304,298.024,162.184z"/>
<path style="fill:#3EAD26;" d="M314.904,52.904v53.36c0,20.32-6.24,39.44-16.88,55.92c-17.52,27.12-46.8,47.36-79.28,54.72v-84.16
	h-53.44v84.24c-32.48-7.36-61.76-27.68-79.28-54.8c-10.64-16.48-16.88-35.6-16.88-55.92v-53.36L314.904,52.904L314.904,52.904z"/>
<g>
	<path style="fill:#235413;" d="M218.528,299.16h-53.064c-8.832,0-16,7.168-16,16s7.168,16,16,16h53.064c8.832,0,16-7.168,16-16
		S227.368,299.16,218.528,299.16z"/>
	<path style="fill:#235413;" d="M332.96,180.96H314v-17.032c11.016-18.632,16.88-39.368,16.88-60.328V50.24c0-8.84-7.168-16-16-16
		h-67.336V16c0-8.832-7.168-16-16-16h-79.096c-8.832,0-16,7.168-16,16v18.24H69.12c-8.832,0-16,7.16-16,16v53.36
		c0,20.952,5.864,41.68,16.88,60.32v17.04H51.04C22.896,180.96,0,203.784,0,231.84v64.56c0,28.056,22.896,50.88,51.04,50.88h19.536
		C73.384,367.952,91,384,112.48,384h159.04c21.472,0,39.088-16.048,41.904-36.72h19.536c28.144,0,51.04-22.824,51.04-50.88v-64.56
		C384,203.784,361.104,180.96,332.96,180.96z M85.12,66.24h213.76v37.36c0,16.392-4.952,32.728-14.32,47.232
		c-1.72,2.656-3.616,5.224-5.592,7.728c-0.6,0.76-1.232,1.488-1.856,2.232c-1.488,1.776-3.032,3.512-4.64,5.2
		c-0.704,0.736-1.4,1.472-2.12,2.192c-1.952,1.936-3.976,3.8-6.072,5.592c-0.376,0.32-0.728,0.672-1.112,0.984
		c-2.488,2.072-5.08,4.024-7.744,5.888c-0.76,0.528-1.544,1.024-2.32,1.536c-2,1.328-4.032,2.6-6.112,3.808
		c-0.92,0.536-1.848,1.064-2.784,1.568c-2.24,1.216-4.52,2.352-6.84,3.424c-0.688,0.32-1.36,0.672-2.048,0.976
		c-0.2,0.088-0.408,0.144-0.608,0.232V130.08c0-8.832-7.168-16-16-16h-53.44c-8.832,0-16,7.168-16,16v62.192
		c-0.2-0.088-0.408-0.152-0.608-0.24c-0.664-0.288-1.304-0.624-1.96-0.928c-2.344-1.08-4.656-2.232-6.928-3.472
		c-0.92-0.504-1.832-1.024-2.736-1.552c-2.096-1.216-4.144-2.496-6.16-3.84c-0.76-0.504-1.536-0.992-2.28-1.512
		c-2.672-1.872-5.272-3.832-7.76-5.904c-0.376-0.312-0.72-0.656-1.088-0.968c-2.104-1.8-4.136-3.68-6.088-5.616
		c-0.728-0.728-1.432-1.472-2.144-2.216c-1.6-1.672-3.128-3.4-4.608-5.168c-0.64-0.76-1.288-1.52-1.904-2.296
		c-1.912-2.424-3.728-4.896-5.392-7.456c-0.056-0.088-0.128-0.176-0.184-0.264c-9.376-14.512-14.328-30.848-14.328-47.24V66.24
		H85.12z M181.28,214.32v-68.24h21.44v68.16v22.24c0,5.864-4.808,10.64-10.72,10.64c-5.912,0-10.72-4.776-10.72-10.64V214.32z
		 M32,296.4v-64.56c0-10.408,8.536-18.88,19.04-18.88H70v102.32H51.04C40.536,315.28,32,306.808,32,296.4z M282,341.6
		c0,5.736-4.704,10.4-10.48,10.4H112.48c-5.776,0-10.48-4.664-10.48-10.4v-10.32v-130.4c1.528,1.24,3.176,2.328,4.752,3.504
		c1.704,1.272,3.376,2.592,5.136,3.784c2.008,1.36,4.096,2.592,6.176,3.856c1.824,1.112,3.616,2.28,5.488,3.312
		c2.16,1.192,4.408,2.232,6.632,3.312c1.896,0.928,3.752,1.912,5.688,2.76c2.336,1.016,4.744,1.856,7.136,2.752
		c1.92,0.72,3.8,1.52,5.752,2.152c0.176,0.056,0.344,0.144,0.528,0.2v9.976c0,23.512,19.168,42.64,42.72,42.64
		s42.72-19.128,42.72-42.64V226.44c0.184-0.064,0.36-0.144,0.544-0.208c1.904-0.624,3.736-1.4,5.608-2.104
		c2.44-0.904,4.896-1.768,7.28-2.8c1.904-0.824,3.72-1.8,5.584-2.704c2.264-1.096,4.544-2.152,6.744-3.36
		c1.84-1.016,3.592-2.16,5.392-3.248c2.112-1.28,4.232-2.528,6.272-3.904c1.752-1.192,3.408-2.496,5.104-3.76
		c1.576-1.176,3.224-2.264,4.752-3.504V331.28v10.32H282z M352,296.4c0,10.408-8.536,18.88-19.04,18.88H314V212.96h18.96
		c10.504,0,19.04,8.472,19.04,18.88V296.4z"/>
</g>
<g>
</g>
<g>
</g>
<g>
</g>
<g>
</g>
<g>
</g>
<g>
</g>
<g>
</g>
<g>
</g>
<g>
</g>
<g>
</g>
<g>
</g>
<g>
</g>
<g>
</g>
<g>
</g>
<g>
</g>
</svg>
