<?xml version="1.0" encoding="iso-8859-1"?>
<!-- Generator: Adobe Illustrator 19.0.0, SVG Export Plug-In . SVG Version: 6.00 Build 0)  -->
<svg version="1.1" id="Capa_1" xmlns="http://www.w3.org/2000/svg" xmlns:xlink="http://www.w3.org/1999/xlink" x="0px" y="0px"
	 viewBox="0 0 383.996 383.996" style="enable-background:new 0 0 383.996 383.996;" xml:space="preserve">
<path style="fill:#FF7526;" d="M348.322,241.556c-36,53.6-83.36,47.2-83.36,47.2l-27.12-24.48c5.44,0.16,34.88-1.44,68.08-51.04
	c33.04-49.36,23.6-77.2,21.44-82.32l32.72,15.6C360.09,146.516,384.17,187.876,348.322,241.556z"/>
<path style="fill:#D9D8D2;" d="M305.93,213.236c-33.2,49.6-62.64,51.2-68.08,51.04l-0.16-0.16l-69.04-62.24l-38.8-35.04l66-98.56
	l47.12,22.48l84,40l0.4,0.16C329.53,136.036,338.97,163.876,305.93,213.236z"/>
<g>
	<polygon style="fill:#D2982C;" points="272.01,47.396 242.97,90.756 195.85,68.276 229.05,18.676 	"/>
	<path style="fill:#D2982C;" d="M168.65,201.876L63.37,359.156c0,0.08-0.08,0.08-0.08,0.16c-8.08,11.76-24,14.96-35.76,7.04
		c-11.92-8-15.12-24-7.2-35.92l109.52-163.6L168.65,201.876z"/>
</g>
<path style="fill:#235413;" d="M18.57,376.964c7.056,4.76,15.104,7.032,23.088,7.032c13.4,0,26.64-6.408,34.8-18.28
	c0.2-0.296,0.4-0.592,0.576-0.904L171.65,223.46l82.568,74.504c2.4,2.16,5.392,3.544,8.584,3.984c0.456,0.064,2.904,0.36,6.864,0.36
	c16.44,0,58.816-5.208,91.912-54.496c0.008-0.016,0.016-0.024,0.024-0.04c40.912-61.28,13.472-109.928,12.28-111.976
	c-1.624-2.784-4.048-5.008-6.952-6.392l-32.648-15.552c-0.32-0.176-0.656-0.32-0.984-0.472l-66.744-31.8l18.72-27.952
	c2.36-3.528,3.224-7.848,2.4-12.016c-0.832-4.168-3.272-7.824-6.808-10.184l-42.96-28.72c-7.336-4.928-17.28-2.936-22.184,4.4
	l-33.176,49.576c-0.008,0.008-0.008,0.008-0.016,0.016l-66,98.56L6.978,318.916C-5.758,338.084-0.55,364.132,18.57,376.964z
	 M313.786,139.532c1.336,8.16,1.224,28.696-21.176,62.144c-22.6,33.768-41.672,41.52-49.296,43.336l-85.968-77.552l-6.512-5.88
	l50.6-75.56l2.184,1.04l32.448,15.48c0.056,0.024,0.12,0.032,0.176,0.064L313.786,139.532z M335.01,229.988
	c-23.984,35.704-52.84,40.064-63.624,40.36l-1.864-1.68c14.28-7.808,31.696-22.32,49.672-49.184
	c18-26.872,24.792-48.536,26.568-64.72l2.2,1.048C351.866,166.02,358.81,194.324,335.01,229.988z M233.434,38.196l16.352,10.936
	L237.37,67.676l-17.944-8.544L233.434,38.196z M33.602,336.676l99.232-148.232l14.8,13.36L50.05,347.596
	c-0.088,0.136-0.176,0.272-0.264,0.4c-3.184,4.2-9.064,5.312-13.36,2.408C31.794,347.3,30.562,341.244,33.602,336.676z"/>
<g>
</g>
<g>
</g>
<g>
</g>
<g>
</g>
<g>
</g>
<g>
</g>
<g>
</g>
<g>
</g>
<g>
</g>
<g>
</g>
<g>
</g>
<g>
</g>
<g>
</g>
<g>
</g>
<g>
</g>
</svg>
