<svg id="Layer_1" enable-background="new 0 0 496 496" height="512" viewBox="0 0 496 496" width="512" xmlns="http://www.w3.org/2000/svg"><circle cx="199.185" cy="277.168" fill="#ffe070" r="181.185"/><path d="m380.369 277.168c0-36.272-10.665-70.049-29.021-98.381-8.162.182-18.261 2.989-22.457 9.958-6.739 11.194 4.07 24.259 8.691 36.481 6.741 17.828-.937 38.787-14.829 51.836-13.893 13.048-32.836 19.369-51.608 22.663-19.77 3.47-40.055 3.988-59.976 1.533-26.836-3.307-53.553-11.979-80.36-8.45-7.407.975-15.075 3.095-20.33 8.407-5.75 5.812-7.597 14.368-8.604 22.482-5.156 41.527 7.95 82.376 25.718 119.952 21.962 9.457 46.162 14.705 71.591 14.705 100.066-.001 181.185-81.12 181.185-181.186z" fill="#ffce66"/><path d="m18 277.168c0 57.744 27.014 109.175 69.092 142.354.365-1.77-51.39-82.312-27.693-158.942 6.281-20.312 8.995-42.016 20.277-60.037s29.153-32.8 50.123-36.307c18.912-3.164 41.126 2.056 55.327-10.829 3.915-3.552 6.818-8.254 11.291-11.07 7.303-4.597 16.672-3.053 25.302-3.002 8.63.052 18.982-3.083 21.013-11.471.862-3.561-.048-7.304-1.249-10.765-2.29-6.598-5.683-12.718-9.908-18.225-10.51-1.897-21.334-2.891-32.391-2.891-100.065.001-181.184 81.12-181.184 181.185z" fill="#fff2b9"/><path d="m307.001 496c94.44 0 170.999-76.559 170.999-170.999h-341.998c0 94.44 76.559 170.999 170.999 170.999z" fill="#ffb750"/><path d="m476.904 344.469c.724-6.389 1.096-12.885 1.096-19.468h-341.998c0 6.583.372 13.079 1.096 19.468z" fill="#ffe070"/><path d="m307.001 450.221c69.157 0 125.22-56.063 125.22-125.22h-250.44c0 69.157 56.063 125.22 125.22 125.22z" fill="#ffe070"/><path d="m430.717 344.469c.99-6.344 1.505-12.846 1.505-19.468h-250.441c0 6.622.515 13.124 1.505 19.468z" fill="#ffe5a5"/><path d="m360.865 115.07c2.336-4.88.277-10.395-4.685-12.551-13.774-5.984-42.443-15.473-69.095-5.524-28.379 10.594-33.291 33.141-34.053 42.893-.422 5.391 1.576 10.746 5.429 14.544 6.966 6.867 25.451 20.681 53.831 10.087 26.651-9.948 42.089-35.903 48.573-49.449z" fill="#69da61"/><path d="m350.593 132.745c-5.591-1.434-11.674-2.222-18.038-2.222-27.421 0-49.651 14.617-49.651 32.647 0 1.493.153 2.963.449 4.403 8.03 1.508 17.71 1.138 28.938-3.054 17.272-6.447 29.834-19.616 38.302-31.774z" fill="#5ab161"/><path d="m256.55 3.729c-4.793-4.971-12.308-4.971-17.1 0-13.304 13.8-37.45 43.848-37.45 80.159 0 38.666 24.771 54.604 36.092 59.87 6.258 2.911 13.553 2.913 19.816 0 11.321-5.265 36.092-21.204 36.092-59.87 0-36.311-24.146-66.359-37.45-80.159z" fill="#a8ffa9"/><path d="m239.45 3.728c-13.304 13.801-37.45 43.849-37.45 80.16 0 12.378 2.539 22.427 6.362 30.542 17.125.864 36.54-21.763 44.779-53.251 6.562-25.078 4.19-48.728-4.804-61.174-3.189-.093-6.404 1.147-8.887 3.723z" fill="#c9ffd2"/><path d="m99.694 232.228c-.409 2.862-.611 5.847.311 8.587 1.875 5.573 8.207 8.78 14.077 8.436 5.869-.344 11.219-3.572 15.584-7.511 11.8-10.645 27.963-43.593 3.469-49.178-19.795-4.512-31.245 24.285-33.441 39.666z" fill="#fff2b9"/><g fill="#ffb750"><path d="m240.344 375.982c-4.418 0-8-3.582-8-8v-11.675c0-4.418 3.582-8 8-8s8 3.582 8 8v11.675c0 4.418-3.582 8-8 8z"/><path d="m284.782 375.982c-4.418 0-8-3.582-8-8v-11.675c0-4.418 3.582-8 8-8s8 3.582 8 8v11.675c0 4.418-3.581 8-8 8z"/><path d="m329.22 375.982c-4.418 0-8-3.582-8-8v-11.675c0-4.418 3.582-8 8-8s8 3.582 8 8v11.675c0 4.418-3.581 8-8 8z"/><path d="m373.659 375.982c-4.418 0-8-3.582-8-8v-11.675c0-4.418 3.582-8 8-8s8 3.582 8 8v11.675c0 4.418-3.582 8-8 8z"/><path d="m262.563 415.079c-4.418 0-8-3.582-8-8v-11.675c0-4.418 3.582-8 8-8s8 3.582 8 8v11.675c0 4.419-3.582 8-8 8z"/><path d="m307.001 415.079c-4.418 0-8-3.582-8-8v-11.675c0-4.418 3.582-8 8-8s8 3.582 8 8v11.675c0 4.419-3.582 8-8 8z"/><path d="m351.439 415.079c-4.418 0-8-3.582-8-8v-11.675c0-4.418 3.582-8 8-8s8 3.582 8 8v11.675c0 4.419-3.581 8-8 8z"/></g></svg>