<svg id="Layer_1" enable-background="new 0 0 496 496" height="512" viewBox="0 0 496 496" width="512" xmlns="http://www.w3.org/2000/svg"><path d="m247.997 160.235c-4.33 0-7.884-3.455-7.994-7.804-.015-.576-2.025-57.964-46.641-91.909-3.517-2.675-4.198-7.694-1.523-11.21 2.674-3.517 7.694-4.199 11.21-1.523 50.876 38.708 52.889 101.605 52.949 104.264.102 4.467-3.487 8.182-8.001 8.182z" fill="#5ab161"/><path d="m244.515 136.758c-5.337 0-9.204-5.151-7.665-10.291.543-1.814 13.743-44.679 51.808-66.697 3.827-2.212 8.72-.904 10.931 2.92 2.212 3.825.905 8.718-2.919 10.931-32.46 18.774-44.38 57.065-44.496 57.45-1.048 3.455-4.225 5.687-7.659 5.687z" fill="#5ab161"/><path d="m205.67 97.784c16.503-.692 30.577-12.348 34.332-28.433 1.808-7.743 1.583-17.271-3.765-27.939-18.5-36.905-82.609-41.412-82.609-41.412s-7.518 63.827 25.294 88.879c9.484 7.242 18.804 9.238 26.748 8.905z" fill="#69da61"/><path d="m207.921 82.596c0-22.067-22.417-39.956-50.071-39.956-.932 0-1.858.021-2.777.061 2.956 17.103 9.599 35.297 23.849 46.177 8.89 6.788 17.634 8.967 25.237 8.94 2.423-4.691 3.762-9.832 3.762-15.222z" fill="#5ab161"/><path d="m273.132 65.62c.212 11.299 7.962 21.11 18.904 23.934 5.267 1.359 11.788 1.356 19.17-2.132 25.536-12.069 29.635-55.849 29.635-55.849s-43.539-6.154-61.195 15.892c-5.103 6.373-6.617 12.716-6.514 18.155z" fill="#a8ffa9"/><path d="m279.647 47.465c-4.607 5.753-6.288 11.48-6.497 16.541 2.629.517 5.382.792 8.218.792 22.212 0 38.249-16.582 32.046-33.165-12.246 1.579-25.705 5.765-33.767 15.832z" fill="#c9ffd2"/><path d="m385.108 145.183c-33.126-23.084-77.062-21.372-109.803 2.256-8.786 6.34-18.783 10.07-27.305 10.07s-18.519-3.73-27.305-10.07c-32.741-23.627-76.677-25.34-109.803-2.256-39.839 27.763-62.892 72.379-62.892 133.304 0 84.964 52.981 175.572 127.708 212.869 9.778 4.88 20.995 5.977 31.508 2.991 25.659-7.288 57.969-7.513 84.019-.694 10.248 2.683 21.158 1.748 30.591-3.072 73.917-37.764 126.174-127.712 126.174-212.094 0-60.925-23.053-105.541-62.892-133.304z" fill="#a8ffa9"/><path d="m408.824 165.867c9.31 21.2 14.279 45.97 14.279 74.254 0 84.382-52.257 174.33-126.174 212.095-9.433 4.82-20.343 5.755-30.591 3.072-26.013-6.809-58.321-6.605-84.019.694-10.512 2.986-21.73 1.889-31.508-2.991-28.035-13.993-53.01-35.49-73.274-61.377 22.749 42.798 57.19 79.287 98.172 99.742 9.778 4.88 20.995 5.977 31.508 2.991 25.659-7.288 57.969-7.513 84.019-.694 10.248 2.683 21.158 1.748 30.591-3.072 73.916-37.764 126.173-127.712 126.173-212.094 0-47.568-14.053-85.194-39.176-112.62z" fill="#85eda2"/><path d="m79.664 311.575c0-60.925 23.053-105.541 62.892-133.304 33.126-23.084 77.062-21.372 109.803 2.256 8.786 6.34 18.783 10.07 27.305 10.07s18.519-3.73 27.305-10.07c32.741-23.627 76.677-25.34 109.803-2.256 1.479 1.03 2.934 2.084 4.365 3.161-9.669-14.224-21.775-26.315-36.029-36.248-33.126-23.084-77.062-21.372-109.803 2.256-8.786 6.34-18.783 10.07-27.305 10.07s-18.519-3.73-27.305-10.07c-32.741-23.627-76.677-25.34-109.803-2.256-39.839 27.762-62.892 72.378-62.892 133.303 0 68.452 34.389 140.566 86.833 185.515-34.184-43.247-55.169-98.955-55.169-152.427z" fill="#d3ffd2"/></svg>