<svg id="Layer_1" enable-background="new 0 0 496 496" height="512" viewBox="0 0 496 496" width="512" xmlns="http://www.w3.org/2000/svg"><path d="m356.457 91.84c-4.259 0-7.8-3.356-7.987-7.653-.583-13.05-4.579-36.585-12.823-44.194-3.247-2.997-3.449-8.058-.452-11.305s8.059-3.449 11.305-.452c15.75 14.538 17.776 51.132 17.956 55.257.196 4.53-3.416 8.347-7.999 8.347z" fill="#5ab161"/><path d="m412.135 170.516c9.569-39.396-16.311-79.112-55.671-86.676-39.39-7.569-77.235 18.905-83.63 58.546-6.468 40.087-25.954 76.778-56.184 103.886-21.403 19.193-36.825 45.41-42.316 75.975-13.03 72.53 35.781 142.516 108.33 155.441 71.957 12.819 141.076-34.54 154.913-106.541 5.756-29.95 1.047-59.485-11.568-84.832-17.843-35.846-23.326-76.889-13.874-115.799z" fill="#69da61"/><path d="m353.677 357.945c0-30.498-10.198-58.614-27.37-81.124-24.286-31.835-37.416-71.106-35.478-111.101.74-15.252-3.451-30.113-11.937-42.769-2.985 6.244-4.987 12.79-6.059 19.435-6.468 40.087-25.954 76.778-56.184 103.886-21.403 19.193-36.825 45.41-42.316 75.975-12.901 71.815 34.824 141.135 106.191 155.041 43.418-22.134 73.153-67.266 73.153-119.343z" fill="#5ab161"/><path d="m260.909 169.9c1.962-40.494-30.948-74.612-71.028-74.612-40.111.001-72.279 33.141-71.079 73.277 1.214 40.587-10.997 80.296-35.569 112.623-17.396 22.887-27.593 51.544-27.217 82.596.893 73.686 62.034 133.203 135.718 132.203 73.083-.991 132.022-60.544 132.022-133.863 0-30.498-10.198-58.614-27.37-81.124-24.285-31.835-37.415-71.106-35.477-111.1z" fill="#a8ffa9"/><path d="m235.179 135.196c6.525 4.057 14.527 8.481 21.534 7.122-9.985-27.246-36.303-47.03-66.833-47.029-40.096.001-72.281 33.127-71.079 73.277 1.214 40.587-10.997 80.296-35.569 112.623-32 42.1-36.161 99.196-10.601 145.365 19.143-18.19 27.52-47.642 19.392-72.949-1.294-4.03-2.971-8.03-3.123-12.26-.342-9.518 6.851-17.37 12.947-24.687 17.119-20.55 28.816-45.576 33.602-71.89 4.471-24.579 3.029-50.163 9.829-74.202s25.404-47.62 50.36-48.78c14.124-.658 27.535 5.946 39.541 13.41z" fill="#c9ffd2"/><circle cx="189.882" cy="365.459" fill="#ffb750" r="91.224"/><circle cx="189.882" cy="365.459" fill="#cd8e50" r="60.661"/><ellipse cx="168.234" cy="332.592" fill="#cd9e6c" rx="16.643" ry="7.902" transform="matrix(.791 -.612 .612 .791 -168.339 172.47)"/><path d="m171.065 152.996c-2.91 3.593-4.568 8.182-4.624 12.805-.027 2.161.335 4.439 1.687 6.125 2.584 3.223 7.922 2.908 11.149.328 3.226-2.58 4.772-6.699 5.818-10.695.655-2.501 1.175-5.086.923-7.659s-1.371-5.16-3.457-6.686c-5.333-3.903-8.646 2.264-11.496 5.782z" fill="#c9ffd2"/><ellipse cx="324.703" cy="208.792" fill="#5ab161" rx="13.337" ry="19.788" transform="matrix(.944 -.33 .33 .944 -50.695 118.777)"/><path d="m279.413 8.087c-3.633 1.683-5.059 5.8-3.245 9.369 5.037 9.908 16.918 28.839 36.814 35.729 21.185 7.337 34.618-3.211 39.651-8.415 2.782-2.877 4.168-6.873 3.76-10.857-.737-7.202-4.769-23.798-25.954-31.135-19.896-6.89-40.941.638-51.026 5.309z" fill="#a8ffa9"/><path d="m276.168 17.456c5.037 9.908 16.918 28.839 36.814 35.729 6.782 2.349 12.769 2.865 17.941 2.31 3.723-9.219-4.991-24.15-20.68-34.639-12.495-8.354-25.903-11.542-34.429-8.975-.656 1.728-.586 3.725.354 5.575z" fill="#c9ffd2"/></svg>