<svg id="Layer_1" enable-background="new 0 0 493.111 493.111" height="512" viewBox="0 0 493.111 493.111" width="512" xmlns="http://www.w3.org/2000/svg"><path d="m341.838 277.661c-4.348 0-7.912-3.481-7.995-7.847-.012-.568-1.046-45.592-13.757-96.24-11.523-45.917-35.271-106.067-82.964-131.866-3.886-2.103-5.333-6.957-3.23-10.843 2.103-3.887 6.956-5.332 10.843-3.23 50.442 27.287 77.054 86.816 90.949 142.354 13.119 52.438 14.12 97.622 14.156 99.519.085 4.47-3.513 8.153-8.002 8.153z" fill="#db4968"/><path d="m179.504 6.469c-5.347 1.769-8 7.294-6.037 12.573 5.45 14.653 19.02 43.014 45.718 55.832 28.429 13.649 48.892 1.063 56.76-5.403 4.349-3.574 6.926-8.937 6.995-14.57.125-10.183-2.85-34.022-31.279-47.671-26.697-12.818-57.314-5.671-72.157-.761z" fill="#a8ffa9"/><path d="m173.468 19.042c5.45 14.653 19.02 43.014 45.718 55.832 9.101 4.369 17.386 6.05 24.702 6.104 6.68-12.286-3.103-34.549-23.346-51.722-16.122-13.677-34.348-20.282-46.674-18.062-1.195 2.311-1.418 5.113-.4 7.848z" fill="#c9ffd2"/><path d="m410.418 78.859c5.995.643 10.02 5.825 9.158 11.793-2.392 16.566-10.183 49.31-35.224 68.757-26.665 20.708-50.923 12.161-60.617 7.173-5.359-2.757-9.267-7.787-10.613-13.666-2.432-10.627-4.706-36.246 21.959-56.954 25.042-19.446 58.695-18.887 75.337-17.103z" fill="#69da61"/><path d="m419.576 90.652c-2.392 16.566-10.182 49.31-35.224 68.757-8.536 6.629-16.826 10.26-24.47 11.97-9.767-11.347-4.561-36.854 12.742-59.4 13.78-17.956 31.36-28.986 44.76-29.449 1.773 2.148 2.639 5.03 2.192 8.122z" fill="#5ab161"/><path d="m159.141 251.437c-4.653 0-8.313-3.938-7.989-8.561.101-1.442 2.787-35.754 29.654-74.775 2.507-3.638 7.487-4.558 11.126-2.052s4.558 7.487 2.052 11.126c-24.417 35.462-26.851 66.511-26.872 66.821-.294 4.217-3.808 7.441-7.971 7.441z" fill="#db4968"/><path d="m282.681 140.699c2.163-5.146-.235-10.727-5.456-12.7-14.494-5.477-44.514-13.821-71.481-2.235-28.716 12.338-32.649 35.819-32.947 45.907-.165 5.577 2.161 10.995 6.323 14.717 7.523 6.728 27.263 20.038 55.979 7.701 26.967-11.586 41.578-39.106 47.582-53.39z" fill="#a8ffa9"/><path d="m277.224 127.999c-14.494-5.477-44.514-13.821-71.481-2.235-9.193 3.95-15.845 9.041-20.652 14.47 4.823 12.994 27.822 20.193 53.835 16.264 20.718-3.129 37.525-12.436 43.898-23.087-.947-2.397-2.894-4.389-5.6-5.412z" fill="#c9ffd2"/><circle cx="341.841" cy="381.375" fill="#ff5872" r="111.715"/><path d="m326.048 270.769c54.22 7.672 95.923 54.269 95.923 110.607s-41.703 102.935-95.923 110.607c67.597 9.565 127.507-42.893 127.507-110.607 0-67.725-59.921-120.171-127.507-110.607z" fill="#ff7f90"/><path d="m314.328 359.728c0-30.228-10.479-55.869-28.003-75.319-33.58 19.267-56.199 55.475-56.199 96.966 0 30.348 12.102 57.868 31.741 78.001-.011.689.111 1.391.403 2.109.357-.206.717-.412 1.079-.617.209.207.419.413.63.617 1.316-1.005 2.611-2.036 3.885-3.091 10.677-5.681 22.817-11.159 32.408-17.639 2.616-1.767 5.273-3.572 7.253-6.032 3.016-3.746 4.176-8.685 4.378-13.49.066-1.569-.03-3.491-.302-5.557-1.438-10.927-1.335-21.987.643-32.83 1.369-7.496 2.084-15.224 2.084-23.118z" fill="#db4968"/><path d="m278.71 352.085c0 66.041-53.537 119.577-119.577 119.577s-119.577-53.536-119.577-119.577 53.537-108.649 119.577-108.649 119.577 42.608 119.577 108.649z" fill="#ff5872"/><path d="m62.772 382.999c0-66.041 53.537-108.649 119.577-108.649 33.763 0 64.258 11.137 86.002 30.848-18.661-38.615-60.543-61.762-109.218-61.762-66.041 0-119.577 42.608-119.577 108.649 0 33.901 14.108 64.506 36.772 86.267-8.659-16.551-13.556-35.38-13.556-55.353z" fill="#ff7f90"/><ellipse cx="137.791" cy="308.665" fill="#ff7f90" rx="21.924" ry="12.163" transform="matrix(.961 -.276 .276 .961 -79.783 49.972)"/><ellipse cx="325.437" cy="399.966" fill="#db4968" rx="7.525" ry="11.024" transform="matrix(.997 -.083 .083 .997 -31.942 28.264)"/></svg>