<svg id="Layer_1" enable-background="new 0 0 504 504" height="512" viewBox="0 0 504 504" width="512" xmlns="http://www.w3.org/2000/svg"><path d="m429.619 27.977c-1.259-2.129-3.548-3.434-6.021-3.434h-343.197c-2.473 0-4.762 1.306-6.02 3.434-7.175 12.135-7.175 27.213 0 39.348 1.258 2.129 3.547 3.434 6.02 3.434h343.197c2.473 0 4.762-1.306 6.021-3.434 7.175-12.135 7.175-27.213 0-39.348z" fill="#cd8e50"/><path d="m69.061 50.031c.34 6.075 2.113 12.087 5.32 17.511 1.259 2.129 3.547 3.434 6.02 3.434h343.197c2.473 0 4.762-1.306 6.021-3.434 3.207-5.424 4.98-11.437 5.32-17.511z" fill="#ac6849"/><g fill="#b97d50"><path d="m254.156 176.517c-4.725 0-8.397-4.048-7.977-8.718 6.516-72.36-29.609-135.154-48.125-154.227-3.077-3.17-3.002-8.235.168-11.313 3.171-3.078 8.235-3.001 11.313.168 10.359 10.672 25.594 32.983 37.279 63.599 9.078 23.783 19.102 60.994 15.301 103.207-.374 4.158-3.864 7.284-7.959 7.284z"/><path d="m297.377 93.034c-3.555 0-6.801-2.388-7.736-5.989-9.1-34.994-27.445-59.27-41.233-73.473-3.077-3.17-3.002-8.235.168-11.313 3.171-3.078 8.235-3.001 11.313.168 15.13 15.585 35.26 42.218 45.237 80.591 1.315 5.062-2.507 10.016-7.749 10.016z"/><path d="m323.472 132.329c-6.839-5.009-11.124-12.61-12.393-21.981-.593-4.378 2.476-8.408 6.854-9.001 4.377-.596 8.407 2.476 9.001 6.854.69 5.103 2.651 8.772 5.992 11.22 9.666 7.082 22.951-.424 23.469-12.226 1.336-30.488-36.209-83.485-46.051-93.624-3.077-3.17-3.002-8.235.168-11.313 3.171-3.078 8.235-3.001 11.313.168 10.746 11.069 52.21 67.717 50.555 105.469-1.078 24.586-28.946 39.057-48.908 24.434z"/><path d="m248.137 156.887c-.991-1.574-24.255-37.497-78.872-33.977-4.396.277-8.213-3.06-8.498-7.468-.284-4.409 3.06-8.214 7.469-8.499 64.555-4.161 92.353 39.651 93.504 41.519 2.319 3.761 1.15 8.689-2.61 11.009-3.736 2.304-8.657 1.174-10.993-2.584z"/></g><path d="m117.235 58.816c-5.465 1.361-8.527 6.671-6.967 12.083 4.331 15.022 15.725 44.324 41.382 59.118 27.32 15.752 48.673 4.743 57.006-1.111 4.606-3.236 7.58-8.39 8.073-14.001.892-10.144-.278-34.14-27.599-49.892-25.656-14.795-56.724-9.975-71.895-6.197z" fill="#a8ffa9"/><path d="m110.269 70.898c4.331 15.022 15.725 44.324 41.382 59.118 8.746 5.043 16.88 7.343 24.172 7.948 7.587-11.748-.491-34.684-19.383-53.334-15.046-14.853-32.723-22.812-45.181-21.527-1.366 2.214-1.799 4.991-.99 7.795z" fill="#c9ffd2"/><circle cx="254.148" cy="439.915" fill="#c991ff" r="64.085"/><path d="m241.166 422.006c7.98-4.685 17.983-4.685 25.963 0 15.36 9.017 33.566 11.033 50.057 6.316-5.456-29.859-31.604-52.491-63.038-52.491-31.435 0-57.582 22.633-63.039 52.491 16.451 4.706 34.66 2.724 50.057-6.316z" fill="#b173ff"/><circle cx="208.77" cy="338.701" fill="#c991ff" r="64.085"/><path d="m150.91 318.786c14.38 3.585 30.226 2.186 44.312-4.9 10.415-5.239 22.821-5.239 33.236 0 14.064 7.075 29.909 8.491 44.312 4.9-8.376-25.643-32.489-44.169-60.93-44.169s-52.553 18.526-60.93 44.169z" fill="#b173ff"/><circle cx="299.526" cy="338.701" fill="#c991ff" r="64.085"/><path d="m282.908 313.886c10.415-5.239 22.821-5.239 33.236 0 14.064 7.075 29.909 8.491 44.312 4.9-8.376-25.643-32.489-44.169-60.93-44.169s-52.553 18.527-60.93 44.169c14.382 3.585 30.227 2.185 44.312-4.9z" fill="#b173ff"/><circle cx="163.391" cy="232.601" fill="#c991ff" r="64.085"/><path d="m163.391 196.572c30.574 0 56.148 21.411 62.545 50.057 8.955-40.105-21.566-78.113-62.545-78.113-41.003 0-71.497 38.024-62.545 78.113 6.397-28.646 31.971-50.057 62.545-50.057z" fill="#d3b3ff"/><circle cx="344.904" cy="232.601" fill="#c991ff" r="64.085"/><path d="m344.904 198.128c30.297 0 55.683 21.024 62.366 49.279 9.525-40.275-21.034-78.891-62.366-78.891-35.393 0-64.085 28.692-64.085 64.085 0 5.096.595 10.053 1.719 14.806 6.683-28.254 32.069-49.279 62.366-49.279z" fill="#d3b3ff"/><circle cx="254.148" cy="232.601" fill="#c991ff" r="64.085"/><path d="m254.148 202.521c29.506 0 54.355 19.942 61.805 47.083 1.486-5.415 2.28-11.116 2.28-17.002 0-35.393-28.692-64.085-64.085-64.085s-64.085 28.692-64.085 64.085c0 5.887.794 11.588 2.28 17.002 7.45-27.141 32.298-47.083 61.805-47.083z" fill="#d3b3ff"/><path d="m308.119 320.058c1.622.486 3.288 1.26 4.148 2.719 1.059 1.796.535 4.247-.905 5.754s-3.607 2.158-5.691 2.143c-3.821-.026-12.246-1.991-11.064-7.295 1.237-5.554 9.62-4.488 13.512-3.321z" fill="#b173ff"/></svg>