<svg id="Layer_1" enable-background="new 0 0 504.001 504.001" height="512" viewBox="0 0 504.001 504.001" width="512" xmlns="http://www.w3.org/2000/svg"><path d="m248.97 159.946c-4.418 0-8-3.582-8-8v-53.98c0-33.705-17.866-65.562-46.628-83.138-3.77-2.304-4.958-7.228-2.654-10.998 2.303-3.77 7.226-4.959 10.998-2.655 33.612 20.541 54.284 57.179 54.284 96.791v53.98c0 4.418-3.582 8-8 8z" fill="#b97d50"/><circle cx="252.001" cy="452.33" fill="#ff5872" r="51.671"/><path d="m252.001 400.659c-29.371 0-52.841 24.44-51.626 53.844 14.264 2.592 29.189-.422 41.47-8.92 6.084-4.21 14.228-4.21 20.312 0 12.267 8.489 27.197 11.514 41.47 8.92 1.213-29.364-22.218-53.844-51.626-53.844z" fill="#db4968"/><circle cx="210.347" cy="374.978" fill="#ff5872" r="55.42"/><path d="m155.288 368.61c15.115 5.332 32.035 4.76 46.93-1.908 7.581-3.394 16.329-3.395 23.91-.002 12.659 5.666 26.6 6.855 39.478 4.038-2.166-28.627-26.079-51.18-55.26-51.18-28.454 0-51.9 21.444-55.058 49.052z" fill="#db4968"/><circle cx="293.655" cy="374.978" fill="#ff5872" r="55.42"/><path d="m238.394 370.738c12.861 2.813 26.802 1.635 39.478-4.038 7.581-3.393 16.329-3.392 23.91.002 14.863 6.654 31.783 7.252 46.93 1.908-3.158-27.609-26.604-49.052-55.058-49.052-29.18 0-53.094 22.553-55.26 51.18z" fill="#db4968"/><circle cx="208.297" cy="190.952" fill="#ff5872" r="58.148"/><path d="m217.076 155.373c20.334 0 38.23 10.437 48.623 26.246-4.465-27.677-28.465-48.815-57.402-48.815-32.114 0-58.148 26.034-58.148 58.148 0 11.78 3.503 22.742 9.524 31.901-5.731-35.527 21.707-67.48 57.403-67.48z" fill="#ff7f90"/><circle cx="295.705" cy="190.952" fill="#ff5872" r="58.148"/><path d="m256.158 190.509c0-14.752 5.494-28.221 14.547-38.473 3.655-7.088 8.724-13.328 14.835-18.346-27.268 4.807-47.983 28.615-47.983 57.262 0 36.331 32.978 63.821 68.823 57.169-28.364-3.866-50.222-28.186-50.222-57.612z" fill="#db4968"/><ellipse cx="176.365" cy="283.805" fill="#ff5872" rx="63.364" ry="63.397"/><path d="m129.863 296.805c0-35.013 28.369-63.397 63.364-63.397 10.72 0 20.818 2.664 29.669 7.365-11.575-12.524-28.138-20.365-46.532-20.365-34.995 0-63.364 28.384-63.364 63.397 0 24.288 13.651 45.386 33.695 56.032-10.447-11.304-16.832-26.422-16.832-43.032z" fill="#ff7f90"/><ellipse cx="327.636" cy="283.805" fill="#ff5872" rx="63.364" ry="63.397"/><path d="m327.636 220.408c-19.593 0-37.109 8.898-48.732 22.874 9.704-6.042 21.16-9.531 33.43-9.531 34.995 0 63.365 28.384 63.365 63.397 0 15.41-5.496 29.536-14.632 40.523 17.971-11.189 29.934-31.129 29.934-53.866 0-35.013-28.369-63.397-63.365-63.397z" fill="#ff7f90"/><circle cx="252.001" cy="283.805" fill="#ff5872" r="63.397"/><path d="m252.001 242.408c31.261 0 57.238 22.627 62.446 52.397 6.819-38.98-23.19-74.397-62.446-74.397-39.257 0-69.265 35.418-62.446 74.397 5.208-29.77 31.184-52.397 62.446-52.397z" fill="#ff7f90"/><path d="m335.738 43.538c2.493-4.486.862-9.829-3.713-12.156-12.699-6.461-39.302-17.102-65.115-9.218-27.487 8.395-33.439 29.465-34.724 38.656-.71 5.081.872 10.267 4.302 14.087 6.201 6.905 22.91 21.053 50.396 12.658 25.815-7.884 41.932-31.573 48.854-44.027z" fill="#a8ffa9"/><path d="m332.025 31.382c-12.699-6.461-39.302-17.102-65.115-9.218-8.799 2.688-15.392 6.674-20.33 11.154 3.104 12.361 23.404 21.25 47.577 20.27 19.252-.78 35.549-7.601 42.444-16.697-.625-2.287-2.205-4.303-4.576-5.509z" fill="#c9ffd2"/></svg>