<svg id="Layer_1" enable-background="new 0 0 496 496" height="512" viewBox="0 0 496 496" width="512" xmlns="http://www.w3.org/2000/svg"><path d="m247.99 135.103c-3.955 0-7.391-2.931-7.921-6.955-.08-.583-6.813-46.872-48.389-65.117-4.046-1.775-5.886-6.495-4.111-10.541s6.494-5.886 10.541-4.111c50.05 21.964 57.53 75.428 57.824 77.693.62 4.786-3.105 9.031-7.944 9.031z" fill="#5ab161"/><path d="m248.01 135.103c-4.825 0-8.516-4.208-7.954-8.943 2.021-17.041 13.332-33.482 33.618-48.867 14.474-10.977 28.271-17.312 28.852-17.576 4.021-1.832 8.765-.057 10.596 3.964 1.832 4.021.057 8.765-3.964 10.596-.777.357-49.575 23.097-53.213 53.767-.483 4.067-3.938 7.059-7.935 7.059z" fill="#5ab161"/><circle cx="248" cy="452.717" fill="#a8ffa9" r="43.283"/><path d="m248 409.435c-24.551 0-44.298 20.435-43.242 45.162 11.324 2.057 23.089-.112 32.983-6.318 6.268-3.932 14.249-3.932 20.517 0 9.874 6.194 21.643 8.378 32.983 6.318 1.057-24.726-18.689-45.162-43.241-45.162z" fill="#93e39c"/><circle cx="248" cy="163.566" fill="#a8ffa9" r="43.283"/><path d="m259.531 387.923c0 25.639-20.784 46.423-46.423 46.423-23.199 0-42.423-17.016-45.872-39.248-4.388-28.284 17.49-53.598 45.872-53.598 25.639-.001 46.423 20.784 46.423 46.423z" fill="#69da61"/><path d="m167.923 377.229c15.941 5.444 34.219 3.118 48.607-7.489 12.528 9.231 27.919 12.153 42.141 9.251-4.164-21.365-22.98-37.491-45.564-37.491-21.957-.001-40.354 15.245-45.184 35.729z" fill="#5ab161"/><circle cx="282.892" cy="387.923" fill="#69da61" r="46.423"/><path d="m237.328 378.991c14.221 2.901 29.612-.019 42.141-9.251 14.369 10.592 32.65 12.939 48.607 7.489-4.829-20.484-23.226-35.73-45.185-35.73-22.583 0-41.399 16.127-45.563 37.492z" fill="#5ab161"/><circle cx="211.391" cy="223.119" fill="#69da61" r="48.708"/><path d="m183.719 220.985c0-21.542 13.985-39.817 33.372-46.243-29.051-3.388-54.407 19.288-54.407 48.377 0 26.901 21.807 48.708 48.708 48.708 5.358 0 10.514-.866 15.336-2.464-24.216-2.823-43.009-23.405-43.009-48.378z" fill="#5ab161"/><circle cx="284.609" cy="223.119" fill="#69da61" r="48.708"/><path d="m257.133 212.274c0-14.612 6.435-27.721 16.625-36.649-21.677 4.932-37.857 24.323-37.857 47.494 0 26.901 21.807 48.708 48.708 48.708 12.288 0 23.513-4.551 32.083-12.059-30.55 6.951-59.559-16.286-59.559-47.494z" fill="#5ab161"/><ellipse cx="185.078" cy="304.959" fill="#a8ffa9" rx="53.078" ry="53.105"/><path d="m148.64 304.959c0-26.497 19.396-48.462 44.758-52.456-32.188-5.071-61.398 19.753-61.398 52.456 0 32.66 29.163 57.533 61.398 52.456-25.362-3.994-44.758-25.959-44.758-52.456z" fill="#93e39c"/><ellipse cx="310.922" cy="304.959" fill="#a8ffa9" rx="53.078" ry="53.105"/><path d="m280.239 295.178c0-17.371 8.337-32.794 21.225-42.483-24.802 4.463-43.62 26.165-43.62 52.264 0 29.329 23.764 53.105 53.078 53.105 11.952 0 22.981-3.952 31.853-10.622-32.673 5.879-62.536-19.248-62.536-52.264z" fill="#93e39c"/><circle cx="248" cy="304.959" fill="#a8ffa9" r="53.105"/><path d="m264.496 348.774c-29.329 0-53.105-23.776-53.105-53.105 0-16.459 7.488-31.17 19.244-40.911-20.801 7.194-35.74 26.953-35.74 50.201 0 29.329 23.776 53.105 53.105 53.105 12.87 0 24.67-4.578 33.861-12.194-5.441 1.882-11.284 2.904-17.365 2.904z" fill="#93e39c"/><path d="m153.724.019c-4.998.091-8.702 4.075-8.429 9.066.759 13.856 4.788 41.468 24.04 59.367 20.5 19.059 41.16 13.782 49.532 10.375 4.628-1.883 8.225-5.75 9.767-10.506 2.789-8.598 6.548-29.587-13.952-48.646-19.251-17.898-47.084-19.907-60.958-19.656z" fill="#a8ffa9"/><path d="m145.295 9.085c.759 13.856 4.788 41.468 24.04 59.367 6.563 6.101 13.142 9.708 19.329 11.681 8.899-8.653 6.472-30.1-6.161-49.989-10.062-15.84-23.769-26.24-34.801-27.606-1.622 1.645-2.549 3.961-2.407 6.547z" fill="#c9ffd2"/><path d="m349.703 43.536c.837-4.104-1.747-7.86-5.879-8.546-11.471-1.904-34.789-3.639-52.935 8.845-19.323 13.294-18.771 31.153-17.51 38.621.697 4.128 3.204 7.775 6.813 9.903 6.524 3.847 23.005 10.746 42.328-2.548 18.146-12.484 24.861-34.881 27.183-46.275z" fill="#69da61"/><path d="m343.824 34.991c-11.471-1.904-34.789-3.639-52.935 8.845-6.186 4.256-10.335 8.979-13.076 13.68 5.456 8.855 23.439 10.778 42.008 4.069 14.788-5.343 25.792-14.66 28.919-23.433-1.05-1.626-2.775-2.806-4.916-3.161z" fill="#5ab161"/></svg>