<svg id="Layer_1" enable-background="new 0 0 496 496" height="512" viewBox="0 0 496 496" width="512" xmlns="http://www.w3.org/2000/svg"><path d="m198.557 48.055h-23.941c17.944 40.239 0 84.827 0 84.827h23.941s17.945-44.588 0-84.827z" fill="#ffe070"/><ellipse cx="183.631" cy="308.523" fill="#69da61" rx="173.631" ry="187.477"/><path d="m276.937 150.389c-70.04 56.52-94.828 155.642-54.27 240.35 4.555 13.41 39.386 32.363 18.402 73.072-1.509 2.927-.43 7.104 1.996 9.33 2.231 2.048 5.685 1.704 8.676 1.232 6.609-1.043 13.301-2.11 19.439-4.775 3.703-1.608 7.219-3.879 10-6.78.182.139.365.278.548.417 45.614-33.783 75.535-90.474 75.535-154.711-.001-66.46-32.028-124.841-80.326-158.135z" fill="#5ab161"/><path d="m229.179 127.564c-14.516-4.249-29.786-6.517-45.548-6.517-95.894 0-173.631 83.936-173.631 187.476 0 102.685 76.458 186.088 171.258 187.459-16.9-4.947-32.776-12.581-47.211-22.451-16.15-16.954-5.793-21.6-10.034-37.644-1.531-5.794-2.605-11.922-6.1-16.79-4.725-6.579-12.856-9.54-19.867-13.596-24.467-14.155-39.83-38.288-43.196-64.329-14.714-113.83 67.764-215.159 174.329-213.608z" fill="#87eda8"/><path d="m268.405 6.9c-3.005-8.22-12.583-9.314-17.141-2.103-13.939 22.052-40.38 26.407-62.981 19.854-29.755-8.628-52.476 9.086-62.928 19.768-3.883 3.969-4.919 10.471-2.558 15.795 3.151 7.106 11.006 9.356 16.711 4.826 11.621-9.228 32.195-19.023 59.049-13.268 23.23 4.978 60.985.349 70.357-36.811.637-2.526.526-5.228-.36-7.653z" fill="#ffb750"/><path d="m484.628 453.352-143.458-299.622c-3.551-7.416-12.674-10.129-19.769-5.973-80.209 46.989-112.313 148.442-71.445 233.799s140.031 123.96 226.928 90.94c7.687-2.92 11.294-11.728 7.744-19.144z" fill="#a8ffa9"/><path d="m479.577 442.802-132.526-276.79c-73.467 37.9-103.944 127.615-68.003 202.681 35.941 75.065 124.939 107.577 200.529 74.109z" fill="#ffe070"/><path d="m308.623 358.414c-31.295-65.363-12.234-141.832 41.718-185.53l-3.291-6.873c-73.467 37.9-103.944 127.615-68.003 202.681s124.939 107.577 200.529 74.11l-.267-.557c-67.869 14.63-139.391-18.468-170.686-83.831z" fill="#ffce66"/><path d="m380.188 235.221c-28.765 13.211-46.844 44.04-42.438 77.051 5.408 40.513 42.634 68.971 83.147 63.564 8.309-1.109 16.112-3.557 23.219-7.097z" fill="#ffb750"/><g fill="#ba8050"><path d="m371.77 286.11c-4.334 0-8-3.522-8-8.01 0-5.157 4.767-8.817 9.561-7.84 4.387.861 7.171 5.206 6.279 9.41-.735 3.758-4.069 6.44-7.84 6.44z"/><path d="m357.45 320.23c-2.73-2.748-3.067-7.02-.99-10.1 2.72-4.126 8.698-4.827 12.31-1.22 3.112 3.112 3.118 8.202 0 11.32-3.247 3.157-8.153 3.087-11.32 0z"/><path d="m385.64 314.86c2.701-4.097 8.67-4.85 12.311-1.21 4.432 4.444 2.329 12.119-4.091 13.5-6.902 1.33-12.14-6.137-8.22-12.29z"/><path d="m401.34 358.39c-2.005 0-4.096-.797-5.65-2.35-2.655-2.657-3.143-6.849-1-10.1 2.835-4.204 8.749-4.771 12.311-1.21 1.468 1.466 2.34 3.5 2.34 5.66-.001 4.437-3.637 8-8.001 8z"/></g><path d="m92.586 381.148c1.591.839 3.245 1.638 5.027 1.878s3.737-.16 5.001-1.44c1.956-1.979 1.654-5.203 1.055-7.921-.594-2.698-1.346-5.36-2.25-7.97-.514-1.484-1.096-2.982-2.108-4.182-4.288-5.083-17.102-7.858-20.131-.081-3.324 8.531 7.115 16.396 13.406 19.716z" fill="#87eda8"/><path d="m208.973 420.396c.447-1.207 1.352-2.188 2.367-2.952 4.799-3.607 12.011-2.354 16.26 1.871 6.744 6.706 9.129 24.689-3.331 26.266-11.331 1.435-18.855-15.566-15.296-25.185z" fill="#5ab161"/></svg>