<svg id="Layer_1" enable-background="new 0 0 496 496" height="512" viewBox="0 0 496 496" width="512" xmlns="http://www.w3.org/2000/svg"><path d="m173.235 482.075c12.466-7.324 27.92-7.324 40.386 0 12.942 7.604 29.11 7.258 41.638-1.009 164.421-108.499 153.619-368.524-52.014-362.848-6.539.181-13.095.181-19.634 0-205.633-5.677-216.436 254.348-52.014 362.848 12.529 8.267 28.696 8.613 41.638 1.009z" fill="#69da61"/><path d="m203.245 118.217c-6.539.181-13.095.181-19.634 0-205.633-5.676-216.436 254.349-52.014 362.848 5.677 3.746 12.102 5.848 18.635 6.339-27.053-20.583-48.678-45.46-64.771-72.369-10.702-17.896-15.049-39.46-10.684-60.81.752-3.679 1.674-7.413 1.243-11.143-.716-6.192-4.976-11.282-8.58-16.368-8.138-11.484-17.253-21.634-16.523-43.122 2.806-82.532 58.203-151.915 165.539-148.952 6.539.18 13.095.18 19.634 0 26.16-.722 49.159 2.864 69.053 9.883-25.926-17.504-59.833-27.467-101.898-26.306z" fill="#87eda8"/><path d="m357.93 212.768c-16.939 2.119-35.795-.677-50.394-9.486-15.721-9.486-35.292-10.132-51.604-1.703-61.455 31.754-83.405 103.705-67.78 175.41 2.404 11.03 1.468 20.748-2.127 30.084-2.322 6.031-5.821 12.046-5.125 18.472.68 6.287 4.847 12.555 10.747 14.828 46.368 17.865 48.523 25.945 53.65 45.404 3.477-1.076 6.834-2.647 9.964-4.712 98.446-64.964 134.068-184.248 102.669-268.297z" fill="#5ab161"/><path d="m316.389 145.364c-27.076-29.148-64.705-46.373-113.155-44.653-6.535.232-13.077.232-19.612 0-48.45-1.72-86.078 15.505-113.155 44.653-.22.836-.436 1.671-.637 2.503 21.905 23.077 46.67 12.302 58.791 4.487 4.278-2.758 9.994-1.196 12.29 3.347.529 1.047 1.081 2.131 1.655 3.235 7.718 14.833 28.467 16.111 37.911 2.312 1.966-2.873 3.729-5.834 5.309-8.852 3.21-6.131 12.074-6.131 15.284 0 1.58 3.018 3.343 5.98 5.309 8.852 9.444 13.798 30.193 12.521 37.911-2.312.574-1.104 1.126-2.189 1.655-3.235 2.296-4.543 8.012-6.105 12.29-3.347 12.121 7.815 36.886 18.59 58.791-4.487-.201-.832-.417-1.667-.637-2.503z" fill="#a8ffa9"/><path d="m165.072 23.985c-22.168-4.489-32.662-9.947-39-17.368-5.226-6.119-13.704-8.323-21.127-5.216-10.585 4.432-14.639 17.501-8.149 26.965 7.363 10.735 20.528 21.449 44.037 24.26 45.008 5.381 36.202 48.045 36.202 48.045h39.91c.001-.001 11.97-63.759-51.873-76.686z" fill="#69da61"/><path d="m419.986 233.629c-13.063-6.75-28.734-6.232-41.324 1.364-17.982 10.85-45.27 10.854-63.258 0-12.589-7.596-28.261-8.113-41.324-1.364-86.919 44.911-75.198 190.249 26.777 257.541 9.356 6.174 21.43 6.432 31.095.754 9.309-5.47 20.851-5.47 30.16 0 9.665 5.679 21.739 5.42 31.095-.754 101.977-67.292 113.698-212.63 26.779-257.541z" fill="#93e39c"/><path d="m408.21 254.425c-10.954-5.66-24.096-5.226-34.653 1.144-15.079 9.099-37.962 9.102-53.047 0-10.557-6.37-23.699-6.804-34.653-1.144-72.888 37.661-63.059 159.538 22.455 215.968 7.846 5.177 17.971 5.394 26.076.632 7.807-4.587 17.485-4.587 25.292 0 8.105 4.762 18.23 4.545 26.076-.632 85.513-56.43 95.342-178.307 22.454-215.968z" fill="#a8ffa9"/><path d="m418.5 363.141c0 37.634-31.997 68.142-71.466 68.142s-71.466-30.508-71.466-68.142 31.997-80.33 71.466-80.33 71.466 42.696 71.466 80.33z" fill="#e6e9df"/><path d="m397.599 361.359c0 26.627-22.639 48.213-50.565 48.213s-50.565-21.586-50.565-48.213 22.639-56.837 50.565-56.837 50.565 30.209 50.565 56.837z" fill="#fff"/><path d="m176.903 392.447c-2.055 5.429-8.422 8.827-14.077 7.511-12.07-2.809-12.411-25.282-1.43-29.319 12.181-4.48 18.995 12.594 15.507 21.808z" fill="#5ab161"/><path d="m60.014 281.251c1.043 6.717 6.268 12.063 12.225 16.047 11.473 7.675 16.018-14.838 15.475-19.792-.775-7.074-8.595-14.085-16.348-14.009-8.973.089-12.424 10.848-11.352 17.754z" fill="#87eda8"/></svg>