<svg id="Layer_1" enable-background="new 0 0 496 496" height="512" viewBox="0 0 496 496" width="512" xmlns="http://www.w3.org/2000/svg"><path d="m440.628 80.641c-11.783 1.65-22.904-3.522-29.63-12.616-42.753-57.806-128.037-83.598-212.279-58.345s-141.432 93.756-145.554 165.614c-.662 11.54-7.354 21.862-17.77 26.807-16.14 7.664-23.868 25.729-18.905 42.385 5.061 16.985 21.817 27.641 39.29 24.986l5.744-.873c10.446-1.587 20.917 2.308 27.972 10.196 44.936 50.243 124.733 71.355 203.616 47.708 78.884-23.647 134.047-85.216 144.129-151.953 1.583-10.478 8.206-19.497 17.807-23.92l5.28-2.432c16.061-7.398 24.24-25.528 19.18-42.513-5.014-16.833-21.531-27.473-38.88-25.044z" fill="#ffe070"/><path d="m410.999 68.025c-42.754-57.806-128.038-83.598-212.28-58.345-84.379 25.295-141.617 93.978-145.573 165.963-.604 10.999-7.003 21.362-17.85 26.506-15.836 7.51-23.821 25.504-18.805 42.338 3.369 11.306 11.921 19.801 22.416 23.439-3.171-15.859 4.778-32.077 19.603-39.123 10.656-5.064 17.244-15.295 17.843-26.373.604-11.181 2.496-22.282 5.574-33.155 3.005-10.611 10.98-19.042 21.214-23.08 13.935-5.499 24.201-18.361 26.838-32.582.369-1.989.706-4.689 1.006-7.601 1.313-12.719 7.617-24.457 17.706-32.273 20.891-16.183 45.61-29.122 73.242-37.406 72.486-21.729 145.742-5.664 192.013 36.069l.069-.867c-1.076-1.089-2.089-2.256-3.016-3.51z" fill="#fff2b9"/><path d="m252.558 166.864c-73.29 13.903-132.938 55.637-165.916 109.118 1.002.871 1.956 1.809 2.854 2.813 44.936 50.243 124.733 71.355 203.616 47.708 69.729-20.903 120.916-71.438 138.823-128.979-48.794-30.499-113.032-43.245-179.377-30.66z" fill="#ffce66"/><path d="m175.75 87.094c-4.66-6.43-14.074-6.804-19.702-1.208-5.325 5.295-9.758 12.263-2.768 16.821 12.587 8.207 24.037-3.879 24.301-10.638.066-1.69-.678-3.384-1.831-4.975z" fill="#fff2b9"/><path d="m93.61 185.005c1.659 3.213 5.672 4.578 9.268 4.296 3.968-.311 7.776-2.313 10.289-5.409s3.694-7.243 3.193-11.204c-2.165-17.086-30.208-2.125-22.75 12.317z" fill="#fff2b9"/><ellipse cx="289.196" cy="348.927" fill="#ffb750" rx="147.04" ry="147.04" transform="matrix(.226 -.974 .974 .226 -116.059 551.789)"/><ellipse cx="289.196" cy="348.927" fill="#ffce66" rx="116.52" ry="116.52" transform="matrix(.226 -.974 .974 .226 -116.059 551.789)"/><ellipse cx="289.196" cy="348.927" fill="#ffe070" rx="84.883" ry="84.883" transform="matrix(.226 -.974 .974 .226 -116.059 551.789)"/><g fill="#ffb750"><path d="m308.893 275.295c0 12.611-8.819 39.22-19.697 39.22s-19.697-26.609-19.697-39.22 8.819-22.835 19.697-22.835c10.879 0 19.697 10.224 19.697 22.835z"/><path d="m235.441 294.014c10.922 6.306 29.556 27.247 24.117 36.668s-32.893 3.754-43.814-2.552c-10.922-6.306-15.366-19.055-9.927-28.476s18.702-11.946 29.624-5.64z"/><path d="m214.926 366.985c10.922-6.306 38.375-11.973 43.814-2.552s-13.195 30.363-24.117 36.668c-10.922 6.306-24.185 3.78-29.624-5.641-5.44-9.421-.995-22.17 9.927-28.475z"/><path d="m267.863 421.237c0-12.611 8.819-39.22 19.697-39.22s19.697 26.609 19.697 39.22-8.819 22.835-19.697 22.835-19.697-10.224-19.697-22.835z"/><path d="m341.315 402.518c-10.922-6.306-29.556-27.247-24.117-36.668s32.892-3.754 43.814 2.552 15.366 19.055 9.927 28.476-18.702 11.946-29.624 5.64z"/><path d="m361.831 329.547c-10.922 6.306-38.375 11.973-43.814 2.552s13.195-30.363 24.117-36.668c10.922-6.306 24.185-3.78 29.624 5.641s.994 22.17-9.927 28.475z"/></g></svg>