<svg id="Layer_1" enable-background="new 0 0 496 496" height="512" viewBox="0 0 496 496" width="512" xmlns="http://www.w3.org/2000/svg"><path d="m445.895 111.948c3.438-9.491-1.4-19.352-11.007-22.438-26.67-8.568-81.636-20.895-129.279 2.495-50.732 24.907-55.7 67.676-55.321 85.923.209 10.084 4.9 19.659 12.755 26.002 14.196 11.464 51.052 33.7 101.784 8.794 47.643-23.391 71.525-74.43 81.068-100.776z" fill="#69da61"/><path d="m128.944.009c-11.135.094-19.472 8.887-18.97 20.008 1.394 30.871 9.78 92.447 52.283 132.718 45.258 42.882 91.393 31.575 110.115 24.168 10.347-4.094 18.443-12.625 21.982-23.186 6.396-19.086 15.219-65.745-30.039-108.627-42.503-40.27-104.459-45.342-135.371-45.081z" fill="#a8ffa9"/><path d="m434.888 89.509c-24.369-7.828-72.359-18.779-116.803-2.77 31.443-2.083 60.712 5.059 78.037 10.624 9.608 3.086 14.445 12.948 11.007 22.438-9.543 26.346-33.426 77.385-81.069 100.775-2.613 1.283-5.187 2.434-7.725 3.475 13.673.14 29.283-2.88 46.492-11.329 47.643-23.39 71.525-74.428 81.069-100.775 3.437-9.49-1.4-19.351-11.008-22.438z" fill="#5ab161"/><path d="m191.974 167.945c-42.503-40.271-50.888-101.846-52.282-132.718-.502-11.121 7.834-19.914 18.97-20.008 20.22-.171 53.724 1.945 86.377 14.697-40.31-26.415-89.6-30.131-116.093-29.907-11.135.094-19.472 8.887-18.97 20.008 1.395 30.871 9.78 92.447 52.283 132.718 14.735 13.961 29.562 22.175 43.507 26.653-4.588-3.298-9.195-7.087-13.792-11.443z" fill="#85eda2"/><circle cx="237.522" cy="259.33" fill="#c991ff" r="113.132"/><path d="m124.471 263.392c2.14 60.598 51.931 109.069 113.051 109.069 61.158 0 110.973-48.531 113.055-109.182-.154-4.368-.553-8.673-1.188-12.902-30.533-7.944-64.406-3.056-92.322 16.027-9.405 6.429-21.777 6.429-31.182 0-30.384-20.77-67.916-24.774-100.579-13.534-.441 3.461-.714 6.972-.835 10.522z" fill="#b173ff"/><circle cx="162.131" cy="382.868" fill="#c991ff" r="113.132"/><path d="m222.636 287.265c21.971 20.637 35.698 49.949 35.698 82.471 0 62.481-50.651 113.132-113.131 113.132-22.255 0-43.006-6.43-60.505-17.528 20.24 19.01 47.475 30.66 77.433 30.66 62.481 0 113.132-50.651 113.132-113.132 0-40.226-20.997-75.544-52.627-95.603z" fill="#b173ff"/><path d="m59.415 405.757c0-62.481 50.651-113.132 113.132-113.132 41.29 0 77.408 22.124 97.162 55.16-14.766-45.305-57.344-78.048-107.577-78.048-62.481 0-113.132 50.65-113.132 113.131 0 21.191 5.832 41.017 15.97 57.971-3.601-11.045-5.555-22.835-5.555-35.082z" fill="#d3b3ff"/><circle cx="320.821" cy="382.868" fill="#c991ff" r="113.132"/><path d="m317.906 292.625c63.503 0 114.687 52.285 113.095 116.014 1.929-8.278 2.951-16.905 2.951-25.77 0-62.481-50.651-113.132-113.132-113.132-61.517 0-111.566 49.101-113.095 110.25 11.664-50.064 56.566-87.362 110.181-87.362z" fill="#d3b3ff"/><g fill="#8a56b3"><path d="m114.638 365.271c-4.418 0-8-3.582-8-8v-33.511c0-4.418 3.582-8 8-8s8 3.582 8 8v33.511c0 4.419-3.582 8-8 8z"/><path d="m131.394 348.516h-33.511c-4.418 0-8-3.582-8-8s3.582-8 8-8h33.511c4.418 0 8 3.582 8 8s-3.582 8-8 8z"/><path d="m370.451 365.271c-4.418 0-8-3.582-8-8v-33.511c0-4.418 3.582-8 8-8s8 3.582 8 8v33.511c0 4.419-3.582 8-8 8z"/><path d="m387.207 348.516h-33.511c-4.418 0-8-3.582-8-8s3.582-8 8-8h33.511c4.418 0 8 3.582 8 8s-3.582 8-8 8z"/><path d="m207.69 223.969c-4.418 0-8-3.582-8-8v-33.511c0-4.418 3.582-8 8-8s8 3.582 8 8v33.511c0 4.418-3.582 8-8 8z"/><path d="m224.445 207.213h-33.511c-4.418 0-8-3.582-8-8s3.582-8 8-8h33.511c4.418 0 8 3.582 8 8s-3.583 8-8 8z"/></g></svg>