<svg id="Layer_1" enable-background="new 0 0 496.017 496.017" height="512" viewBox="0 0 496.017 496.017" width="512" xmlns="http://www.w3.org/2000/svg"><path d="m286.553 290.655c0 160.515-47.804 194.485-106.772 194.485s-106.772-33.97-106.772-194.485 47.803-290.637 106.772-290.637 106.772 130.123 106.772 290.637z" fill="#cd8e50"/><path d="m106.814 315.381c0-48.145 4.301-93.555 11.913-133.54 1.45-7.616-5.319-25.094-3.636-32.298 3.259-13.946 15.282-17.025 19.341-29.222 19.536-58.703 47.763-95.577 79.154-95.577 3.539 0 7.038.481 10.489 1.397-13.493-16.769-28.492-26.123-44.294-26.123-58.969 0-106.772 130.123-106.772 290.638 0 125.124 29.049 173.35 69.79 188.535-22.07-27.473-35.985-77.224-35.985-163.81z" fill="#dda450"/><path d="m255.875 86.802c-19.925 49.223-33.413 128.142-33.76 217.596-.055 14.19 10.667 24.733 10.905 32.789.306 10.348-9.772 20.062-9.094 29.178 3.275 44.052 10.763 74.133 21.18 94.289 25.212-25.915 41.447-76.469 41.447-169.999 0-79.424-11.708-151.393-30.678-203.853z" fill="#ba8050"/><path d="m423.009 309.84c0 153.658-39.513 186.177-88.254 186.177s-88.255-32.519-88.255-186.177 39.513-278.222 88.254-278.222 88.255 124.565 88.255 278.222z" fill="#ffb750"/><path d="m130.845 32.284c10.363 18.963 28.4 31.528 48.936 31.528s38.573-12.564 48.936-31.527c-30.62-43.06-67.271-43.033-97.872-.001z" fill="#fff"/><path d="m205.654 15.246c-4.17-5.863-8.644-10.34-13.338-13.239-8.326-2.652-16.735-2.655-25.069 0-4.694 2.899-9.168 7.375-13.338 13.239 5.479 10.025 15.015 16.668 25.872 16.668 10.858.001 20.394-6.642 25.873-16.668z" fill="#e6e9df"/><g fill="#9f7050"><path d="m135.757 271.412c-5.753 0-9.707-5.984-7.274-11.32 2.23-4.971 6.713-19.908.637-28.962-12.779-19.038-.581-38.16-.056-38.965 2.416-3.699 7.374-4.74 11.072-2.324 3.684 2.406 4.731 7.332 2.354 11.026-.351.561-6.86 11.254-.085 21.346 5.243 7.812 6.966 18.096 4.984 29.743-1.406 8.26-4.228 14.511-4.348 14.772-1.342 2.945-4.247 4.684-7.284 4.684z"/><path d="m205.649 235.268c-5.753 0-9.707-5.984-7.274-11.32 2.23-4.971 6.713-19.907.637-28.96-12.779-19.04-.581-38.162-.056-38.967 2.416-3.7 7.374-4.74 11.072-2.324 3.684 2.405 4.731 7.332 2.354 11.026-.346.553-6.863 11.25-.086 21.348 5.243 7.81 6.966 18.095 4.984 29.741-1.406 8.26-4.228 14.511-4.348 14.772-1.341 2.944-4.246 4.684-7.283 4.684z"/><path d="m135.757 404.926c-5.757 0-9.706-5.987-7.274-11.32 2.23-4.971 6.713-19.907.637-28.961-12.779-19.039-.581-38.16-.056-38.965 2.417-3.7 7.373-4.738 11.073-2.324 3.684 2.406 4.731 7.333 2.353 11.027-.355.567-6.857 11.256-.085 21.346 5.243 7.811 6.966 18.095 4.984 29.741-1.406 8.26-4.229 14.511-4.348 14.772-1.342 2.944-4.247 4.684-7.284 4.684z"/><path d="m200.346 455.677c-5.762 0-9.705-5.989-7.274-11.321 2.231-4.97 6.714-19.906.637-28.959-12.779-19.04-.581-38.161-.056-38.966 2.417-3.699 7.374-4.741 11.073-2.324 3.683 2.405 4.73 7.33 2.354 11.024-.335.535-6.87 11.242-.086 21.349 5.243 7.811 6.966 18.095 4.984 29.741-1.405 8.26-4.229 14.511-4.348 14.772-1.342 2.944-4.247 4.684-7.284 4.684z"/><path d="m196.744 345.188c-3.444 0-6.624-2.24-7.661-5.709-1.685-5.63-4.228-11.48-7.559-17.389-14.433-25.605-6.607-51.746-6.267-52.847 1.305-4.221 5.782-6.59 10.006-5.279 4.212 1.302 6.575 5.765 5.288 9.978-.111.379-6.009 20.92 4.911 40.291 3.913 6.942 6.924 13.894 8.948 20.66 1.539 5.142-2.328 10.295-7.666 10.295z"/><path d="m168.877 168.396c-3.444 0-6.624-2.24-7.661-5.709-1.685-5.63-4.228-11.479-7.558-17.388-14.433-25.606-6.607-51.746-6.267-52.847 1.305-4.221 5.782-6.592 10.006-5.279 4.212 1.302 6.575 5.765 5.288 9.978-.111.379-6.008 20.919 4.911 40.291 3.913 6.942 6.923 13.893 8.948 20.659 1.539 5.142-2.328 10.295-7.667 10.295z"/></g><path d="m223.305 331.724c1.724 4.734.457 9.696-2.831 11.083s-7.351-1.326-9.075-6.06-.457-9.696 2.831-11.083 7.351 1.326 9.075 6.06z" fill="#ba8050"/><ellipse cx="334.754" cy="279.024" fill="#ea8e50" rx="58.963" ry="149.285"/><ellipse cx="334.754" cy="279.024" fill="#ffe070" rx="39.038" ry="124.47"/><path d="m334.754 154.553c-3.443 0-6.782 1.428-9.962 4.096 16.734 14.042 29.076 62.61 29.076 120.374s-12.342 106.332-29.076 120.374c3.181 2.669 6.519 4.097 9.962 4.097 21.56 0 39.038-55.727 39.038-124.47s-17.478-124.471-39.038-124.471z" fill="#ffce66"/><path d="m334.754 356.611c-4.418 0-8-3.582-8-8v-145.715c0-4.418 3.582-8 8-8s8 3.582 8 8v145.715c0 4.418-3.582 8-8 8z" fill="#9f7050"/><ellipse cx="133.479" cy="156.585" fill="#dda450" rx="8.75" ry="9.417"/><path d="m329.792 495.523c2.444.252 4.916.464 7.416.465 47.619.021 85.8-35.078 85.8-186.147 0-151.076-38.196-274.021-85.806-278.111-2.498.223-4.969.779-7.411 1.638 44.085 15.502 78.363 133.358 78.363 276.473.001 143.114-34.277 181.137-78.362 185.682z" fill="#ea8e50"/></svg>