<svg id="Layer_1" enable-background="new 0 0 496 496" height="512" viewBox="0 0 496 496" width="512" xmlns="http://www.w3.org/2000/svg"><path d="m337.437 234.139c150.277-25.992 135.137-173.886 135.137-173.886-98.088-12.616-157.321 31.368-182.595 108.896l-12.599 39.98 28.649 22.749z" fill="#69da61"/><path d="m472.574 60.253c-65.715-8.452-113.987 8.504-146.294 43.927 28.189-17.24 64.123-24.858 108.295-20.579 5.068.491 8.956 4.692 9.028 9.783.296 21.04-2.98 75.549-40.956 117.012 80.179-49.943 69.927-150.143 69.927-150.143z" fill="#5ab161"/><path d="m154.322 0s-59.082 137.286 70.57 213.439c0 0 62.496 20.415 70.972 4.782 54.086-99.76-31.377-218.44-141.542-218.221z" fill="#a8ffa9"/><path d="m195.429 24.719c31.093 3.514 59.59 16.411 82.688 35.328-29.091-35.864-73.91-60.146-123.795-60.047 0 0-50.369 117.052 43.984 194.945-45.809-56.627-34.554-124.117-25.906-154.689 2.86-10.112 12.587-16.717 23.029-15.537z" fill="#85eda2"/><circle cx="121.566" cy="368.67" fill="#ff5872" r="98.566"/><path d="m121.566 270.104c-8.788 0-17.305 1.156-25.414 3.314 9.104 28.839 28.762 52.991 54.453 67.91 5.383 3.126 7.748 9.589 5.63 15.442-11.726 32.408-9.048 69.363 8.846 100.357 32.433-15.985 54.805-49.276 55.049-87.821.345-54.416-44.147-99.202-98.564-99.202z" fill="#db4968"/><circle cx="339.399" cy="298.868" fill="#ff5872" r="98.566"/><path d="m325.227 295.874c-5.308-2.961-7.653-9.42-5.388-15.06 10.148-25.272 11.082-53.422 2.946-79.111-47.967 8.143-84.139 50.934-81.849 101.726 2.352 52.175 45.758 93.756 97.985 94.003 16.389.078 31.855-3.846 45.477-10.849-3.618-39.059-26.552-72.514-59.171-90.709z" fill="#db4968"/><path d="m409.096 306.868c-4.418 0-8-3.582-8-8 0-29.184-20.715-54.604-49.254-60.443-4.329-.886-7.12-5.113-6.234-9.441.886-4.33 5.121-7.114 9.441-6.234 35.952 7.357 62.047 39.37 62.047 76.119 0 4.417-3.582 7.999-8 7.999z" fill="#ad4968"/><circle cx="210.964" cy="237.147" fill="#ff5872" r="98.566"/><path d="m125.365 255.908c0-54.437 44.13-98.566 98.566-98.566 29.539 0 56.039 12.998 74.104 33.581-16.565-31.139-49.339-52.343-87.07-52.343-54.437 0-98.566 44.13-98.566 98.566 0 24.898 9.236 47.635 24.462 64.985-7.335-13.786-11.496-29.517-11.496-46.223z" fill="#ff7f90"/><g fill="#ad4968"><path d="m80.268 352.474c-4.418 0-8-3.582-8-8v-26.047c0-4.418 3.582-8 8-8s8 3.582 8 8v26.047c0 4.418-3.582 8-8 8z"/><path d="m93.291 339.45h-26.046c-4.418 0-8-3.582-8-8s3.582-8 8-8h26.046c4.418 0 8 3.582 8 8s-3.582 8-8 8z"/><path d="m183.156 222.733c-4.418 0-8-3.582-8-8v-26.047c0-4.418 3.582-8 8-8s8 3.582 8 8v26.047c0 4.418-3.582 8-8 8z"/><path d="m196.18 209.71h-26.047c-4.418 0-8-3.582-8-8s3.582-8 8-8h26.047c4.418 0 8 3.582 8 8s-3.582 8-8 8z"/></g><circle cx="268.699" cy="397.434" fill="#ff5872" r="98.566"/><path d="m180.076 412.022c0-51.691 41.904-93.595 93.595-93.595 49.263 0 89.637 38.06 93.321 86.38 4.252-57.453-41.175-105.939-98.292-105.939-54.437 0-98.566 44.13-98.566 98.566 0 25.302 9.538 48.374 25.209 65.826-9.65-14.72-15.267-32.322-15.267-51.238z" fill="#ff7f90"/><path d="m305.482 382.683c-4.418 0-8-3.582-8-8v-26.046c0-4.418 3.582-8 8-8s8 3.582 8 8v26.046c0 4.418-3.582 8-8 8z" fill="#ad4968"/><path d="m318.506 369.659h-26.046c-4.418 0-8-3.582-8-8s3.582-8 8-8h26.046c4.418 0 8 3.582 8 8s-3.582 8-8 8z" fill="#ad4968"/></svg>