<svg id="Layer_1" enable-background="new 0 0 496 496" height="512" viewBox="0 0 496 496" width="512" xmlns="http://www.w3.org/2000/svg"><path d="m341.062 277.871c0 111.786-75.678 176.819-169.031 176.819s-169.031-65.033-169.031-176.819 75.678-202.407 169.031-202.407 169.031 90.621 169.031 202.407z" fill="#c991ff"/><path d="m30.685 298.634c0-111.786 75.678-202.406 169.031-202.406 27.075 0 52.657 7.635 75.343 21.186-28.522-26.3-64.246-41.95-103.028-41.95-93.353 0-169.031 90.621-169.031 202.407 0 72.523 31.86 125.357 79.727 153.532-32.072-30.272-52.042-75.35-52.042-132.769z" fill="#d3b3ff"/><path d="m153.473 343.519c0 16.518 14.547 20.981 18.558 36.239 2.585 9.834-10.526 24.462-2.389 40.04 6.136 11.748 12.039 23.534 19.762 34.124 85.192-7.591 151.659-71.29 151.659-176.052 0-44.544-12.026-85.718-32.389-119.147-88.166 15.348-155.201 92.24-155.201 184.796z" fill="#b173ff"/><path d="m215.263 2.17c-5.526-3.537-12.799-2.686-17.307 2.081-11.452 12.112-30.34 39.97-31.481 92.7-.106 4.903 1.78 9.783 5.689 13.332 11.453 10.399 29.784 1.748 29.38-13.716-.515-19.711 1.899-50.21 17.931-75.574 4.019-6.357 2.122-14.769-4.212-18.823z" fill="#69da61"/><circle cx="340.519" cy="343.519" fill="#c991ff" r="152.481"/><circle cx="340.519" cy="343.519" fill="#ffe070" r="119.881"/><circle cx="340.519" cy="343.519" fill="#ffb750" r="91.578"/><ellipse cx="151.331" cy="381.058" fill="#b173ff" rx="8.088" ry="10.176" transform="matrix(.964 -.266 .266 .964 -95.938 54.004)"/><g fill="#ba8050"><path d="m321.77 283.52c-6.345 0-10.202-7.057-6.649-12.439 2.497-3.708 7.5-4.633 11.09-2.21 1.692 1.117 2.982 2.956 3.399 5.09 1.014 4.775-2.7 9.559-7.84 9.559z"/><path d="m280.84 303.99c-4.409 0-8-3.575-8-8 0-3.865 2.755-7.116 6.43-7.841 4.895-.993 9.57 2.768 9.57 7.841 0 4.4-3.593 8-8 8z"/><path d="m317.54 334.149c-4.485 0-8.01-3.657-8.01-8 0-5.035 4.657-8.841 9.569-7.84 4.222.833 7.14 4.925 6.28 9.41-.707 3.625-3.947 6.43-7.839 6.43z"/><path d="m355.64 325.16c-4.467 0-8-3.641-8-8 0-5.051 4.652-8.841 9.561-7.841 4.44.86 7.172 5.275 6.279 9.4-.742 3.796-4.09 6.441-7.84 6.441z"/><path d="m391.63 344.92c-4.444 0-8-3.617-8-8 0-2.115.842-4.152 2.35-5.66 3.034-3.05 8.143-3.168 11.311 0 3.112 3.112 3.117 8.204 0 11.32-1.491 1.48-3.551 2.34-5.661 2.34z"/><path d="m403.63 303.99c-3.671 0-7.001-2.485-7.85-6.44-.729-3.696 1.23-7.494 4.789-8.95 3.005-1.252 6.492-.5 8.711 1.73 1.757 1.757 2.74 4.4 2.189 7.22-.748 3.834-4.143 6.44-7.839 6.44z"/><path d="m270.109 351.27c-4.363 0-8-3.533-8-8 0-2.228.936-4.255 2.341-5.66 3.151-3.151 8.243-3.06 11.319 0 3.107 3.192 3.126 8.11 0 11.32-1.584 1.542-3.577 2.34-5.66 2.34z"/><path d="m304.77 377.09c-6.43 0-10.178-7.201-6.649-12.44 1.195-1.81 3.081-3.009 5.08-3.399 2.717-.549 5.483.396 7.22 2.18 3.102 3.102 3.147 8.174 0 11.32-1.371 1.406-3.472 2.339-5.651 2.339z"/><path d="m289.78 413.26c-4.419 0-8-3.579-8-8 0-2.231.952-4.299 2.34-5.65 3.997-3.997 10.825-2.724 13.04 2.591 2.199 5.291-1.734 11.059-7.38 11.059z"/><path d="m330.939 428.899c-4.359 0-8-3.559-8-8 0-6.283 6.974-10.225 12.44-6.659.824.542 1.583 1.279 2.21 2.21 2.507 3.799 1.382 8.729-2.21 11.1-1.178.796-2.792 1.349-4.44 1.349z"/><path d="m380.34 417.609c-4.39 0-8-3.572-8-8 0-5.142 4.735-8.834 9.56-7.85 4.378.854 7.172 5.203 6.28 9.41-.738 3.775-4.075 6.44-7.84 6.44z"/><path d="m346.66 375.06c-2.024 0-4.115-.805-5.66-2.35-2.704-2.686-3.093-6.974-.99-10.09 2.754-4.182 8.761-4.779 12.31-1.221 1.414 1.414 2.341 3.456 2.341 5.66-.001 4.421-3.605 8.001-8.001 8.001z"/><path d="m409.27 385.14c-4.438 0-8-3.62-8-8 0-2.004.801-4.104 2.351-5.649 3.083-3.101 8.174-3.135 11.31 0 3.125 3.117 3.109 8.201 0 11.31-1.404 1.402-3.431 2.339-5.661 2.339z"/><path d="m364.109 283.52c-6.315 0-10.218-7.033-6.649-12.439 2.494-3.703 7.506-4.629 11.09-2.21 1.696 1.117 2.979 2.955 3.4 5.09.996 4.731-2.646 9.559-7.841 9.559z"/></g><path d="m202.213 75.782c-5.541 8.72-18.256 11.652-26.958 3.5-3.591-3.36-5.512-8.154-5.406-13.071.019-.872.055-1.719.084-2.577-1.919 9.803-3.188 20.857-3.458 33.317-.106 4.917 1.815 9.711 5.406 13.071 11.573 10.842 30.068 2.042 29.663-13.456-.158-6.061-.037-13.145.669-20.784z" fill="#5ab161"/></svg>