<svg id="Layer_1" enable-background="new 0 0 504 504" height="512" viewBox="0 0 504 504" width="512" xmlns="http://www.w3.org/2000/svg"><path d="m183.708 152.878c-4.416 0-7.994-3.578-8-7.993-.001-.813-.721-81.897-51.588-131.137-3.175-3.073-3.257-8.138-.184-11.313 3.072-3.175 8.138-3.257 11.312-.184 55.819 54.031 56.46 139.034 56.46 142.626 0 4.419-3.582 8.001-8 8.001z" fill="#b97d50"/><path d="m343.549 217.274c-4.418 0-8-3.582-8-8 0-30.407 43.655-67.574 82.835-81.912 4.149-1.518 8.744.614 10.262 4.764 1.519 4.148-.614 8.743-4.763 10.262-36.505 13.359-72.334 46.49-72.334 66.887 0 4.417-3.581 7.999-8 7.999z" fill="#b97d50"/><ellipse cx="183.708" cy="299.563" fill="#ffb750" rx="176.708" ry="154.685"/><ellipse cx="262.815" cy="337.422" fill="#ffb750" rx="158.32" ry="148.955"/><path d="m137.306 354.657c0-82.266 70.882-148.956 158.32-148.956 21.286 0 41.585 3.962 60.125 11.13-26.101-17.837-58.21-28.365-92.937-28.365-87.438 0-158.32 66.689-158.32 148.955 0 62.238 40.577 115.552 98.195 137.827-39.617-27.074-65.383-70.998-65.383-120.591z" fill="#ffe070"/><path d="m80.102 63.356c-4.491 2.661-5.798 8.189-2.975 12.577 7.837 12.183 25.741 35.162 52.452 41.47 28.443 6.717 44.476-8.732 50.319-16.145 3.229-4.096 4.501-9.461 3.447-14.575-1.904-9.242-9.319-30.229-37.762-36.946-26.712-6.307-53.016 6.232-65.481 13.619z" fill="#69da61"/><path d="m166.063 78.526c13.174 17.068 52.86 51.347 126.321-20.869 4.272-4.2 4.279-11.006-.035-14.688-21.544-18.382-84.328-61.167-127.355 19.968-2.714 5.117-2.297 11.229 1.069 15.589z" fill="#a8ffa9"/><path d="m186.4 33.394c10.441 22.137 35.739 33.973 59.942 26.826 14.774-4.363 26.038-14.892 31.839-27.946-22.761-15.107-59.594-29.91-91.781 1.12z" fill="#c9ffd2"/><path d="m319.293 90.232c-5.217.19-9.008 4.419-8.627 9.624 1.058 14.447 5.793 43.19 26.236 61.503 21.768 19.501 43.237 13.599 51.913 9.883 4.795-2.054 8.477-6.157 9.997-11.152 2.747-9.027 6.27-31.005-15.498-50.506-20.443-18.314-49.541-19.879-64.021-19.352z" fill="#69da61"/><path d="m151.919 100.104c-26.711-6.308-44.615-29.288-52.452-41.47-.822-1.278-1.284-2.653-1.429-4.026-7.323 2.85-13.507 6.123-17.937 8.749-4.491 2.661-5.798 8.189-2.975 12.577 7.837 12.183 25.741 35.162 52.452 41.47 28.443 6.717 44.476-8.732 50.319-16.145.547-.694 1.016-1.434 1.448-2.191-7.732 2.761-17.48 3.857-29.426 1.036z" fill="#5ab161"/><path d="m388.815 140.386c-8.676 3.716-30.145 9.618-51.913-9.883-12.221-10.948-18.826-25.622-22.39-38.743-2.552 1.712-4.095 4.691-3.846 8.095 1.058 14.447 5.793 43.19 26.236 61.503 21.768 19.5 43.237 13.599 51.913 9.883 4.795-2.054 8.477-6.157 9.997-11.152 1.757-5.774 3.821-16.851-.61-29.186-1.851 4.424-5.309 7.736-9.387 9.483z" fill="#5ab161"/><path d="m43.622 317.462c0-5.949-6.476-25.9-3.708-41.952 2.106-12.214 16.963-17.455 20.813-24.525 28.403-52.162 89.194-88.209 159.603-88.209 23.758 0 46.415 4.115 67.108 11.558-29.132-18.523-64.97-29.456-103.73-29.456-97.593 0-176.708 69.255-176.708 154.685 0 64.633 45.29 119.997 109.599 143.128-44.218-28.115-72.977-73.729-72.977-125.229z" fill="#ffe070"/><ellipse cx="262.815" cy="337.422" fill="#ffb750" rx="158.32" ry="148.955"/><path d="m137.306 354.657c0-82.266 70.882-148.956 158.32-148.956 21.286 0 41.585 3.962 60.125 11.13-26.101-17.837-58.21-28.365-92.937-28.365-87.438 0-158.32 66.689-158.32 148.955 0 62.238 40.577 115.552 98.195 137.827-39.617-27.074-65.383-70.998-65.383-120.591z" fill="#ffe070"/><path d="m323.646 199.866c35.831 24.39 63.072 50.142 65.951 101.23 1.348 23.926-7.751 11.12-7.971 26.207-.151 10.282 6.536 13.641 4.427 23.337-14.763 67.876-78.596 118.936-155.104 118.936-21.556 0-42.102-4.06-60.831-11.4 26.058 17.738 58.077 28.201 92.698 28.201 87.438 0 158.32-66.69 158.32-148.955 0-61.986-40.246-115.121-97.49-137.556z" fill="#ea8e50"/><ellipse cx="56.129" cy="284.52" fill="#ffe070" rx="9.265" ry="6.949" transform="matrix(.236 -.972 .972 .236 -233.599 271.885)"/><ellipse cx="379.199" cy="304.399" fill="#ea8e50" rx="5.253" ry="6.73"/><ellipse cx="373.104" cy="350.074" fill="#ea8e50" rx="7.831" ry="6.095" transform="matrix(.336 -.942 .942 .336 -81.989 583.845)"/><ellipse cx="58.487" cy="334.73" fill="#ffe070" rx="4.614" ry="5.721"/><path d="m364.059 389.713c-42.051 6.982-82.228-2.857-111.454-27.268-11.419-9.538-27.663-.479-26.902 14.841.295 5.94.935 11.935 1.935 17.959 13.158 79.254 81.216 118.816 155.032 106.56s125.438-71.687 112.279-150.941c-1-6.024-2.332-11.904-3.973-17.621-4.23-14.744-22.53-18.068-30.254-5.352-19.77 32.547-54.612 54.841-96.663 61.822z" fill="#ffe070"/><path d="m490.976 333.244c-1.967-6.858-6.98-11.241-12.555-12.692 13.727 79.007-31.964 138.931-100.879 150.373-69.128 11.477-131.552-30.709-144.059-109.706-4.807 3.175-8.134 8.943-7.78 16.069.295 5.94.935 11.935 1.935 17.959 13.158 79.254 81.216 118.816 155.032 106.56s125.438-71.687 112.279-150.941c-1.001-6.026-2.333-11.905-3.973-17.622z" fill="#ffce66"/><path d="m447.245 345.986c-20.394 22.679-49.469 38.129-83.186 43.727s-66.224.372-92.853-14.5c22.815 42.512 60.829 63.317 99.882 56.833 39.052-6.483 68.304-38.456 76.157-86.06z" fill="#fff2b9"/><g fill="#b97d50"><path d="m372.495 448.583c-3.842 0-7.232-2.775-7.882-6.69l-2.5-15.063c-.724-4.359 2.223-8.479 6.582-9.202 4.356-.731 8.479 2.223 9.202 6.581l2.5 15.063c.808 4.872-2.948 9.311-7.902 9.311z"/><path d="m317.642 449.27c-5.489 0-9.393-5.444-7.541-10.673l5.669-16.01c1.474-4.165 6.046-6.347 10.211-4.87 4.165 1.475 6.346 6.047 4.871 10.212l-5.669 16.01c-1.162 3.281-4.247 5.331-7.541 5.331z"/><path d="m418.372 428.466-10.539-13.318c-2.742-3.465-2.155-8.496 1.309-11.237 3.465-2.74 8.496-2.156 11.238 1.31l10.539 13.318c2.742 3.465 2.155 8.496-1.309 11.237-3.458 2.734-8.491 2.163-11.238-1.31z"/></g></svg>