<svg id="Layer_1" enable-background="new 0 0 496 496" height="512" viewBox="0 0 496 496" width="512" xmlns="http://www.w3.org/2000/svg"><path d="m232.673 30.606c-10.897 10.589-24.185 13.719-33.983 14.555-5.563.475-10.551-3.44-11.428-8.954-2.097-13.192-6.056-25.735-12.769-36.207l-31.777 10.585c-5.455 1.817-7.81 8.204-4.866 13.143 18.727 31.409 27.344 79.231 16.047 120.312l27.011 7.229s5.07-35.037 7.379-66.369c.362-4.913 4.037-8.926 8.895-9.747 10.467-1.77 28.228-5.489 37.946-11.432 17.344-10.603 1.037-36.508-2.455-33.115z" fill="#69da61"/><path d="m170.525 143.064c11.284-46.568 2.698-100.77-15.984-136.418l-11.825 3.939c-5.455 1.817-7.81 8.204-4.866 13.143 18.727 31.409 27.344 79.232 16.047 120.312l27.011 7.229s.255-1.767.676-4.845z" fill="#5ab161"/><path d="m315.234 327.982 18.106-15.981c6.057-5.346 6.057-15.193 0-20.539l-18.106-15.981c-9.609-8.481-13.053-22.493-8.566-34.854l9.256-25.501c2.926-8.062-2.029-16.902-10.118-18.049l-18.282-2.592c-13.339-1.891-23.734-13.174-25.184-27.333l-2.465-24.077c-.937-9.152-10.128-14.588-17.985-10.639l-13.871 6.973c-13.062 6.566-28.701 2.037-36.787-10.651l-9.814-15.4c-5.009-7.861-15.944-7.861-20.953 0l-9.817 15.404c-8.086 12.688-23.722 17.213-36.784 10.647l-13.871-6.973c-7.857-3.95-17.048 1.487-17.985 10.639l-2.465 24.077c-1.45 14.159-11.845 25.442-25.184 27.333l-18.283 2.592c-8.089 1.147-13.044 9.987-10.118 18.049l9.256 25.501c4.487 12.361 1.043 26.373-8.566 34.854l-18.105 15.981c-6.057 5.346-6.057 15.193 0 20.539l18.106 15.981c9.609 8.481 13.053 22.493 8.566 34.854l-9.256 25.501c-2.926 8.062 2.029 16.902 10.118 18.049l18.283 2.592c13.339 1.891 23.734 13.174 25.184 27.333l2.465 24.077c.937 9.152 10.128 14.588 17.985 10.639l13.871-6.973c13.062-6.566 28.698-2.041 36.784 10.647l9.817 15.404c5.009 7.861 15.944 7.861 20.953 0l9.817-15.404c8.086-12.688 23.722-17.214 36.784-10.647l13.871 6.973c7.857 3.95 17.048-1.487 17.985-10.639l2.465-24.077c1.45-14.159 11.845-25.442 25.184-27.333l18.283-2.592c8.089-1.147 13.044-9.987 10.118-18.049l-9.256-25.501c-4.489-12.361-1.045-26.373 8.564-34.854z" fill="#ffe070"/><path d="m209.72 343.021c-7.059 0-12.682 6.681-11.973 14.421.614 6.707 1.652 13.295 3.088 19.739 1.08 4.845 7.975 11.046 9.494 15.716 1.623 4.992-2.1 8.44-.002 13.207 10.491 23.836 26.747 44.691 47.056 60.9 1.322-1.845 2.231-4.08 2.491-6.615l2.465-24.077c1.45-14.159 11.845-25.441 25.184-27.333l18.283-2.592c8.089-1.147 13.044-9.986 10.118-18.049l-9.256-25.501c-2.359-6.499-2.506-13.447-.737-19.815 0 0-17.175 1.843-25.352 0-4.096-.923-19.15-7.229-23.349-7.206-4.115.023-10.788 6.281-14.798 7.206-7.97 1.836-32.712-.001-32.712-.001z" fill="#ffce66"/><path d="m30.188 312.669 18.106-15.981c9.609-8.481 13.053-22.493 8.566-34.854l-9.256-25.501c-2.926-8.062 2.029-16.902 10.118-18.049l18.282-2.592c13.339-1.891 23.734-13.174 25.184-27.333l2.465-24.077c.937-9.151 10.128-14.588 17.985-10.639l13.871 6.973c13.062 6.567 28.698 2.041 36.784-10.647l9.817-15.404c2.22-3.483 5.606-5.412 9.122-5.808l-9.814-15.4c-5.009-7.861-15.943-7.861-20.953 0l-9.817 15.404c-8.086 12.687-23.722 17.214-36.784 10.647l-13.871-6.973c-7.857-3.95-17.048 1.487-17.985 10.639l-2.465 24.077c-1.45 14.159-11.845 25.442-25.184 27.333l-18.283 2.592c-8.089 1.147-13.044 9.986-10.118 18.049l9.256 25.501c4.486 12.361 1.043 26.373-8.566 34.854l-18.105 15.982c-6.057 5.346-6.057 15.193 0 20.539l18.021 15.906c-1.949-5.168-.752-11.375 3.624-15.238z" fill="#fff2b9"/><g fill="#cd8e50"><path d="m145.389 190.724-13.835-7.744-13.836 7.744c-3.854 2.158-8.729.783-10.888-3.073-2.158-3.855-.782-8.73 3.073-10.888l17.743-9.932c2.428-1.359 5.387-1.359 7.814 0l17.742 9.932c3.855 2.158 5.231 7.033 3.073 10.888-2.148 3.84-7.02 5.238-10.886 3.073z"/><path d="m224.164 190.724-13.835-7.744-13.835 7.744c-3.854 2.158-8.729.783-10.888-3.073-2.158-3.854-.782-8.729 3.073-10.888l17.742-9.932c2.428-1.359 5.387-1.359 7.814 0l17.742 9.932c3.855 2.158 5.231 7.033 3.073 10.888-2.148 3.84-7.019 5.238-10.886 3.073z"/><path d="m106 247.971-13.835-7.744-13.835 7.744c-3.854 2.158-8.729.783-10.888-3.073-2.158-3.854-.782-8.729 3.073-10.888l17.742-9.932c2.428-1.359 5.387-1.359 7.814 0l17.742 9.932c3.855 2.158 5.231 7.033 3.073 10.888-2.148 3.84-7.02 5.238-10.886 3.073z"/><path d="m184.776 247.971-13.835-7.744-13.835 7.744c-3.854 2.158-8.73.783-10.888-3.073-2.158-3.854-.782-8.729 3.073-10.888l17.742-9.932c2.428-1.359 5.387-1.359 7.814 0l17.742 9.932c3.855 2.158 5.231 7.033 3.073 10.888-2.147 3.84-7.019 5.238-10.886 3.073z"/><path d="m263.552 247.971-13.835-7.744-13.835 7.744c-3.854 2.158-8.729.783-10.888-3.073-2.158-3.854-.782-8.729 3.073-10.888l17.742-9.932c2.428-1.359 5.387-1.359 7.814 0l17.742 9.932c3.855 2.158 5.231 7.033 3.073 10.888-2.148 3.84-7.02 5.238-10.886 3.073z"/><path d="m106 313.678-13.835-7.744-13.835 7.744c-3.854 2.157-8.729.782-10.888-3.073-2.158-3.854-.782-8.729 3.073-10.888l17.742-9.932c2.428-1.359 5.387-1.359 7.814 0l17.742 9.932c3.855 2.158 5.231 7.033 3.073 10.888-2.148 3.84-7.02 5.238-10.886 3.073z"/><path d="m167.034 313.678-17.742-9.932c-3.855-2.158-5.231-7.033-3.073-10.888 2.157-3.856 7.033-5.231 10.888-3.073l13.835 7.744 13.835-7.744c3.854-2.158 8.729-.783 10.888 3.073 2.158 3.854.782 8.729-3.073 10.888l-17.742 9.932c-2.429 1.359-5.388 1.359-7.816 0z"/><path d="m263.552 313.678-13.835-7.744-13.835 7.744c-3.854 2.157-8.729.782-10.888-3.073-2.158-3.854-.782-8.729 3.073-10.888l17.742-9.932c2.428-1.359 5.387-1.359 7.814 0l17.742 9.932c3.855 2.158 5.231 7.033 3.073 10.888-2.148 3.84-7.02 5.238-10.886 3.073z"/><path d="m167.034 379.384-17.742-9.932c-3.855-2.158-5.231-7.033-3.073-10.888 2.157-3.856 7.033-5.231 10.888-3.073l13.835 7.744 13.835-7.744c3.854-2.158 8.729-.783 10.888 3.073 2.158 3.854.782 8.729-3.073 10.888l-17.742 9.932c-2.429 1.359-5.388 1.359-7.816 0z"/><path d="m88.258 379.384-17.742-9.932c-3.855-2.158-5.231-7.033-3.073-10.888 2.158-3.856 7.034-5.231 10.888-3.073l13.835 7.744 13.834-7.744c3.854-2.158 8.729-.783 10.888 3.073 2.158 3.854.782 8.729-3.073 10.888l-17.742 9.932c-2.428 1.359-5.387 1.359-7.815 0z"/><path d="m206.422 432.402-17.742-9.932c-3.855-2.158-5.231-7.033-3.073-10.888 2.158-3.856 7.034-5.232 10.888-3.073l13.835 7.744 8.481-4.747c3.852-2.159 8.729-.782 10.888 3.073s.782 8.729-3.073 10.888l-12.389 6.935c-2.428 1.36-5.387 1.36-7.815 0z"/><path d="m127.646 432.402-17.743-9.932c-3.855-2.157-5.231-7.032-3.073-10.888s7.033-5.232 10.888-3.073l13.836 7.744 13.835-7.744c3.854-2.159 8.729-.783 10.888 3.073 2.158 3.854.782 8.729-3.073 10.888l-17.742 9.932c-2.429 1.36-5.388 1.36-7.816 0z"/></g><path d="m357.359 480.208c-70.531 0-128.441-47.786-134.592-108.745-.583-5.774 4.041-10.759 9.847-10.759h249.489c5.806 0 10.43 4.985 9.847 10.759-6.151 60.959-64.061 108.745-134.591 108.745z" fill="#ffb750"/><path d="m357.359 461.4c65.83 0 120.658-41.63 132.677-96.744 1.418 1.877 2.172 4.265 1.915 6.806-6.151 60.959-64.061 108.745-134.592 108.745s-128.441-47.786-134.592-108.745c-.257-2.542.497-4.929 1.915-6.806 12.018 55.114 66.847 96.744 132.677 96.744z" fill="#ea8e50"/><path d="m358.827 442.593c-39.759 0-73.666-22.16-86.789-53.276-5.728-13.582 4.234-28.613 18.98-28.613h135.618c14.745 0 24.708 15.031 18.98 28.613-13.123 31.116-47.029 53.276-86.789 53.276z" fill="#ffe070"/><path d="m358.827 420.456c38.349 0 71.247-20.62 85.308-50.004 3.342 5.384 4.252 12.293 1.48 18.866-13.123 31.116-47.029 53.276-86.788 53.276s-73.666-22.16-86.789-53.276c-2.772-6.573-1.862-13.481 1.48-18.866 14.062 29.384 46.96 50.004 85.309 50.004z" fill="#ffce66"/><path d="m291.008 360.704h62.421c-20.18 14.068-34.519 40.944-32.983 74.544-22.264-8.98-39.803-25.53-48.407-45.931-5.727-13.579 4.229-28.605 18.969-28.613z" fill="#fff2b9"/><path d="m278.409 365.008c.264 1.52.696 3.044 1.331 4.551 7.778 18.443 22.874 33.718 42.147 43.119-1.273 7.098-1.804 14.644-1.442 22.57-22.264-8.98-39.803-25.53-48.407-45.931-3.842-9.112-.616-18.869 6.371-24.309z" fill="#ffe070"/><path d="m426.647 360.704h-62.421c20.18 14.068 34.518 40.945 32.983 74.544 22.264-8.98 39.803-25.53 48.407-45.931 5.726-13.579-4.23-28.605-18.969-28.613z" fill="#fff2b9"/><ellipse cx="200.907" cy="393.674" fill="#ffce66" rx="3.765" ry="4.424" transform="matrix(.98 -.198 .198 .98 -74.003 47.6)"/><ellipse cx="283.587" cy="334.057" fill="#ffce66" rx="5.4" ry="4.134"/><path d="m442.964 368.751c-8.727 19.549-25.699 35.414-47.143 44.233 1.233 7.009 1.744 14.451 1.387 22.264 22.264-8.98 39.804-25.53 48.407-45.931 3.075-7.288 1.626-14.99-2.651-20.566z" fill="#ffe070"/></svg>