<svg id="Layer_1" enable-background="new 0 0 495.99 495.99" height="512" viewBox="0 0 495.99 495.99" width="512" xmlns="http://www.w3.org/2000/svg"><path d="m128.805 26.466v-1.121c-97.336-30.405-228.932 462.967-8.668 446.21-176.111-14.908-81.037-410.108 8.668-445.089z" fill="#5ab161"/><path d="m128.805 470.674v-445.329c98.59-30.797 232.343 475.782 0 445.329z" fill="#a8ffa9"/><path d="m128.805 470.674v-445.329c55.877-30.797 131.682 475.782 0 445.329z" fill="#69da61"/><path d="m328.915 138.272.029.034.029-.034z" fill="#ffb750"/><path d="m495.99 259.652s-45.749-23.411-101.735-18.531c-7.72.673-14.689-4.443-16.649-11.94-12.954-49.548-48.09-90.216-48.662-90.876-.572.66-35.708 41.327-48.662 90.876-1.96 7.497-8.929 12.613-16.649 11.94-55.985-4.88-101.735 18.531-101.735 18.531s20.699 39.47 72.714 74.492c5.927 3.991 8.474 11.384 6.249 18.174-11.627 35.482-15.146 103.731-15.146 103.731s49.12-6.802 92.958-44.676c5.884-5.083 14.658-5.083 20.542 0 43.837 37.874 92.958 44.677 92.958 44.677s-3.52-68.249-15.146-103.731c-2.225-6.79.322-14.183 6.249-18.174 52.014-35.023 72.714-74.493 72.714-74.493z" fill="#ffe070"/><path d="m423.276 334.145c52.014-35.023 72.714-74.492 72.714-74.492s-6.856-3.507-18.502-7.523c-5.09 8.656-26.641 42.138-71.493 72.338-5.928 3.991-8.474 11.384-6.249 18.174 11.627 35.482 15.146 103.731 15.146 103.731s-23.211-3.215-51.961-17.526c36.12 22.612 69.243 27.203 69.243 27.203s-3.52-68.249-15.146-103.731c-2.226-6.79.32-14.183 6.248-18.174z" fill="#ffce66"/><path d="m328.928 222.606.016.018.015-.018z" fill="#ffe070"/><path d="m417.621 287.041s-24.286-12.428-54.007-9.837c-4.098.357-7.798-2.359-8.838-6.338-6.877-26.303-25.529-47.891-25.832-48.242-.304.35-18.956 21.939-25.832 48.242-1.04 3.98-4.74 6.696-8.838 6.338-29.72-2.591-54.006 9.837-54.006 9.837s10.988 20.953 38.601 39.545c3.147 2.119 4.499 6.043 3.317 9.648-6.172 18.836-8.04 55.066-8.04 55.066s26.076-3.611 49.347-23.717c3.123-2.699 7.781-2.699 10.905 0 23.271 20.106 49.347 23.717 49.347 23.717s-1.868-36.23-8.04-55.066c-1.181-3.605.171-7.529 3.317-9.648 27.611-18.592 38.599-39.545 38.599-39.545z" fill="#fff2b9"/></svg>