<svg id="Layer_1" enable-background="new 0 0 496 496" height="512" viewBox="0 0 496 496" width="512" xmlns="http://www.w3.org/2000/svg"><path d="m341.755 234.414c0 89.736-72.475 162.481-161.877 162.481s-161.878-72.745-161.878-162.481 72.475-133.177 161.877-133.177 161.878 43.442 161.878 133.177z" fill="#ff5872"/><path d="m149.425 394.012c9.864 1.885 20.041 2.883 30.452 2.883 89.402 0 161.877-72.745 161.877-162.481 0-19.554-3.444-36.909-9.752-52.096-58.88-1.91-118.523 20.231-154.903 66.746-9.239 11.812 4.036 21.977-7.56 34.037-5.434 5.651-17.311 9.332-19.685 16.926-9.396 30.054-9.462 62.999-.429 93.985z" fill="#db4968"/><ellipse cx="155.293" cy="274.002" fill="#db4968" rx="8.594" ry="6.91" transform="matrix(.5 -.866 .866 .5 -159.646 271.489)"/><path d="m478 348.198c0 79.881-68.493 147.802-152.984 147.802s-152.984-67.921-152.984-147.802 68.493-138.579 152.984-138.579 152.984 58.697 152.984 138.579z" fill="#ff7f90"/><path d="m478 348.198c0 79.881-68.493 147.802-152.984 147.802s-152.984-67.921-152.984-147.802 68.493-138.579 152.984-138.579 152.984 58.697 152.984 138.579z" fill="#ff9db7"/><path d="m39.086 234.414c0-9.29.777-18.084 2.269-26.385.776-4.32 11.283-9.353 12.439-13.406 2.321-8.145-2.444-13.968 1.301-21.042 3.147-5.944 5.068-12.447 9.128-17.639 26.945-34.457 73.086-52.411 126.199-54.492-93.063-3.652-172.422 39.054-172.422 132.964 0 93.439 78.519 168.194 172.421 162.129-84.487-5.453-151.335-75.949-151.335-162.129z" fill="#ff7f90"/><ellipse cx="70.96" cy="177.024" fill="#ff7f90" rx="6.359" ry="6.359" transform="matrix(.178 -.984 .984 .178 -115.867 215.343)"/><path d="m459.632 348.751c0 11.52-15.27 9.648-18.515 23.763-2.552 11.101 8.021 26.79 3.817 34.713-19.214 36.212-55.552 63.184-98.714 69.936-6.907 1.081-13.989-8.596-21.203-8.596-8.078 0-15.99 9.534-23.677 8.186-63.055-11.058-110.939-65.349-110.939-128.002 0-70.291 60.269-121.94 134.615-121.94s134.616 51.65 134.616 121.94z" fill="#ff7f90"/><ellipse cx="454.439" cy="375.325" fill="#ff7f90" rx="6.326" ry="5.193" transform="matrix(.288 -.958 .958 .288 -35.944 702.293)"/><path d="m279.68 348.314c0-25.561 6.476-48.081 19.489-65.148 10.334-13.554-3.39-32.466-19.396-26.706-29.722 10.697-57.012 35.78-57.012 91.854 0 59.616 27.953 88.325 58.09 101.853 16.036 7.198 31.119-11.375 21.04-25.817-14.831-21.253-22.211-48.75-22.211-76.036z" fill="#ff5872"/><path d="m368.352 348.314c0-25.561-6.476-48.081-19.489-65.148-10.334-13.554 3.39-32.466 19.396-26.706 29.722 10.697 57.012 35.78 57.012 91.854 0 59.616-27.953 88.325-58.09 101.853-16.036 7.198-31.119-11.375-21.04-25.817 14.832-21.253 22.211-48.75 22.211-76.036z" fill="#ff5872"/><path d="m155.334 85.116s-37.949-27.752-103.547 21.222c0 0 29.291 37.137 78.572 34.393 27.617-1.538 42.021-33.752 24.975-55.615z" fill="#69da61"/><path d="m155.334 85.116s-14.214-10.389-40.276-7.232c-9.14 14.361-13.002 32.189-9.033 50.48.787 3.627 1.732 7.314 2.833 11.042 6.661 1.212 13.839 1.752 21.501 1.325 27.617-1.538 42.021-33.752 24.975-55.615z" fill="#5ab161"/><path d="m204.421 85.116s37.949-27.752 103.547 21.222c0 0-29.291 37.137-78.572 34.393-27.617-1.538-42.022-33.752-24.975-55.615z" fill="#69da61"/><path d="m204.421 85.116c-17.047 21.863-2.642 54.077 24.975 55.615 7.662.427 14.84-.113 21.501-1.325 1.101-3.728 2.046-7.415 2.833-11.042 3.969-18.291.108-36.119-9.033-50.48-26.062-3.157-40.276 7.232-40.276 7.232z" fill="#5ab161"/><path d="m184.848 73.419h-9.941c-30.533 0-53.715 28.201-47.218 58.146 5.123 23.61 19.111 50.661 52.188 73.567 33.077-22.906 47.065-49.957 52.188-73.567 6.498-29.945-16.684-58.146-47.217-58.146z" fill="#a8ffa9"/><path d="m221.788 4.829c-8.138-6.126-19.289-6.48-27.698-.736-34.561 23.605-24.598 64.582-23.397 69.023.064.237.276.394.521.394h16.025c.304 0 .549-.246.541-.551-.118-4.465.295-34.945 32.41-50.978 6.726-3.359 7.608-12.628 1.598-17.152z" fill="#69da61"/><path d="m182.407 139.575c3.374 9.025.348 18.511-6.758 21.187s-15.602-2.47-18.976-11.495-.348-18.511 6.758-21.187c7.106-2.677 15.602 2.47 18.976 11.495z" fill="#c9ffd2"/><g fill="#ad4968"><path d="m263.96 300.13c-6.338 0-10.195-7.009-6.66-12.44 2.942-4.312 8.859-4.68 12.31-1.22 3.111 3.111 3.127 8.193 0 11.32-1.498 1.502-3.571 2.34-5.65 2.34z"/><path d="m255.569 332.09c-3.893 0-7.128-2.79-7.839-6.43-.411-1.94-.036-4.191 1.19-6.011 2.806-4.251 8.871-4.732 12.3-1.21 1.467 1.428 2.35 3.558 2.35 5.65-.001 4.277-3.451 8.001-8.001 8.001z"/><path d="m246.13 361.84c-6.343 0-10.201-7.048-6.65-12.44 2.373-3.595 7.408-4.695 11.089-2.21 1.667 1.098 2.978 2.929 3.4 5.09 1.028 4.847-2.767 9.56-7.839 9.56z"/><path d="m260.01 387.31c-5.696 0-9.573-5.831-7.39-11.06 2.105-5.18 8.955-6.693 13.05-2.601 4.01 4.04 2.669 10.855-2.601 13.04-.994.416-2.062.621-3.059.621z"/><path d="m258.3 416.43c-3.12-3.12-3.111-8.2 0-11.31 2.102-2.114 5.511-3.044 8.72-1.73 5.287 2.203 6.604 9.026 2.59 13.04-3.114 3.121-8.179 3.13-11.31 0z"/><path d="m378.729 297.54c-2.173 0-4.214-.898-5.66-2.34-3.999-4.002-2.698-10.843 2.601-13.04 5.253-2.193 11.06 1.681 11.06 7.38-.001 4.439-3.614 8-8.001 8z"/><path d="m396.84 324.85c-3.738 0-7.099-2.648-7.84-6.439-.537-2.535.278-5.319 2.18-7.221 2.182-2.181 5.638-3.016 8.72-1.729 5.322 2.217 6.584 9.057 2.601 13.04-1.53 1.528-3.639 2.349-5.661 2.349z"/><path d="m383.479 348.85c-.412-2.15.041-4.283 1.2-6 2.76-4.182 8.753-4.777 12.311-1.22 3.223 3.32 3.014 8.295 0 11.31-4.404 4.404-12.111 2.375-13.511-4.09z"/><path d="m400.46 381.18c-4.4 0-8-3.555-8-8 0-5.099 4.711-8.829 9.56-7.84 4.673 1.01 7.124 5.432 6.28 9.41-.73 3.733-4.036 6.43-7.84 6.43z"/><path d="m384.54 404.89c-4.466 0-8-3.621-8-7.99 0-2.114.853-4.177 2.34-5.659 3.083-3.083 8.181-3.139 11.32 0 3.08 3.164 3.167 8.048 0 11.31-1.435 1.434-3.464 2.339-5.66 2.339z"/><path d="m373.67 430.59c-6.324 0-10.195-7.068-6.65-12.45 2.871-4.253 8.805-4.715 12.311-1.21 2.504 2.505 3.247 6.564 1 10.1-1.371 2.08-3.883 3.56-6.661 3.56z"/></g></svg>