<svg id="Capa_1" enable-background="new 0 0 512 512" height="512" viewBox="0 0 512 512" width="512" xmlns="http://www.w3.org/2000/svg" xmlns:xlink="http://www.w3.org/1999/xlink"><radialGradient id="SVGID_1_" cx="447.619" cy="133.79" gradientTransform="matrix(.931 0 0 .112 -161.706 412.193)" gradientUnits="userSpaceOnUse" r="258.347"><stop offset="0" stop-color="#f4d8bc"/><stop offset=".0882" stop-color="#f6dcc2"/><stop offset=".4962" stop-color="#ffead8"/><stop offset=".8982" stop-color="#fff"/></radialGradient><linearGradient id="SVGID_2_" gradientUnits="userSpaceOnUse" x1="478.331" x2="478.331" y1="364.869" y2="205.771"><stop offset=".1585" stop-color="#e49542"/><stop offset=".2166" stop-color="#e38d39"/><stop offset=".3795" stop-color="#e07b24"/><stop offset=".4866" stop-color="#df751c"/><stop offset=".7788" stop-color="#d76818"/><stop offset=".824" stop-color="#d56617"/></linearGradient><linearGradient id="SVGID_3_" gradientUnits="userSpaceOnUse" x1="129.228" x2="163.693" y1="380.229" y2="323.125"><stop offset=".0675" stop-color="#d56617"/><stop offset=".2868" stop-color="#ce6219"/><stop offset=".6103" stop-color="#ba5520"/><stop offset=".788" stop-color="#ac4d24"/></linearGradient><linearGradient id="lg1"><stop offset=".1314" stop-color="#e7a561"/><stop offset=".2308" stop-color="#e38f41"/><stop offset=".3326" stop-color="#e07c26"/><stop offset=".3927" stop-color="#df751c"/><stop offset=".7018" stop-color="#d96c19"/><stop offset=".8493" stop-color="#d56617"/></linearGradient><radialGradient id="SVGID_4_" cx="78.881" cy="394.94" gradientTransform="matrix(.996 -.085 .066 .768 -25.617 98.233)" gradientUnits="userSpaceOnUse" r="44.665" xlink:href="#lg1"/><radialGradient id="SVGID_5_" cx="122.61" cy="243.194" fx="130.67" fy="219.902" gradientTransform="matrix(-.371 .929 -1.279 -.51 478.964 253.325)" gradientUnits="userSpaceOnUse" r="101.614"><stop offset=".1337" stop-color="#ac4d24"/><stop offset=".3977" stop-color="#c15a1d"/><stop offset=".6894" stop-color="#d56617"/></radialGradient><linearGradient id="SVGID_6_" gradientUnits="userSpaceOnUse" x1="376.758" x2="314.607" y1="382.208" y2="331.264"><stop offset=".3301" stop-color="#d56617"/><stop offset=".4957" stop-color="#d06318"/><stop offset=".6812" stop-color="#c35b1d"/><stop offset=".8755" stop-color="#ad4d24"/><stop offset=".8801" stop-color="#ac4d24"/></linearGradient><radialGradient id="SVGID_7_" cx="298.254" cy="252.677" gradientTransform="matrix(.976 -.216 .113 .509 -21.4 188.601)" gradientUnits="userSpaceOnUse" r="129.307"><stop offset=".3927" stop-color="#ac4d24"/><stop offset=".544" stop-color="#b55221"/><stop offset=".7887" stop-color="#cd611a"/><stop offset=".8597" stop-color="#d56617"/></radialGradient><linearGradient id="SVGID_8_" gradientUnits="userSpaceOnUse" x1="447.925" x2="385.774" y1="387.084" y2="336.14"><stop offset=".4471" stop-color="#e28424"/><stop offset=".6018" stop-color="#e07f22"/><stop offset=".7748" stop-color="#da721c"/><stop offset=".8801" stop-color="#d56617"/></linearGradient><linearGradient id="SVGID_9_" gradientUnits="userSpaceOnUse" x1="421.335" x2="421.335" y1="423.533" y2="322.25"><stop offset=".1585" stop-color="#e49542"/><stop offset=".1719" stop-color="#e49441"/><stop offset=".4437" stop-color="#e3882c"/><stop offset=".6223" stop-color="#e28424"/><stop offset=".8875" stop-color="#df771d"/><stop offset=".9285" stop-color="#df751c"/></linearGradient><radialGradient id="SVGID_10_" cx="256.19" cy="131.086" gradientTransform="matrix(1 0 0 .781 0 28.743)" gradientUnits="userSpaceOnUse" r="208.444"><stop offset="0" stop-color="#ecb780"/><stop offset=".1624" stop-color="#eab176"/><stop offset=".3814" stop-color="#e7a561"/><stop offset=".5156" stop-color="#e6a15c"/><stop offset=".6823" stop-color="#e5974c"/><stop offset=".8653" stop-color="#e28533"/><stop offset="1" stop-color="#df751c"/></radialGradient><radialGradient id="SVGID_11_" cx="164.405" cy="278.482" gradientTransform="matrix(1 0 0 .889 0 30.805)" gradientUnits="userSpaceOnUse" r="109.538"><stop offset="0" stop-color="#d56617"/><stop offset=".237" stop-color="#dc7c2b"/><stop offset=".5131" stop-color="#e28e3c"/><stop offset=".707" stop-color="#e49542"/><stop offset=".8575" stop-color="#e49644"/><stop offset=".9253" stop-color="#e59a4b"/><stop offset=".9764" stop-color="#e6a058"/><stop offset="1" stop-color="#e7a561"/></radialGradient><radialGradient id="SVGID_12_" cx="7.312" cy="114.92" gradientTransform="matrix(1 0 0 .724 0 31.717)" gradientUnits="userSpaceOnUse" r="61.544"><stop offset=".1096" stop-color="#fff9e2"/><stop offset=".6064" stop-color="#f4d8bc"/><stop offset=".821" stop-color="#f1cea8"/><stop offset="1" stop-color="#efc89d"/></radialGradient><radialGradient id="SVGID_13_" cx="53.829" cy="83.409" gradientUnits="userSpaceOnUse" r="46.195"><stop offset="0" stop-color="#f4d8bc"/><stop offset=".1027" stop-color="#f2d1af"/><stop offset=".2934" stop-color="#eebe8c"/><stop offset=".5496" stop-color="#e69f54"/><stop offset=".6272" stop-color="#e49542"/><stop offset=".7585" stop-color="#e4923d"/><stop offset=".9212" stop-color="#e3892d"/><stop offset=".9955" stop-color="#e28424"/></radialGradient><radialGradient id="SVGID_14_" cx="6.894" cy="158.189" gradientTransform="matrix(-1 0 0 -.66 13.787 262.636)" gradientUnits="userSpaceOnUse" r="75.626"><stop offset="0" stop-color="#efc89d"/><stop offset=".4095" stop-color="#ecbb87"/><stop offset=".9955" stop-color="#e7a561"/></radialGradient><radialGradient id="SVGID_15_" cx="33.582" cy="89.095" gradientTransform="matrix(1 0 0 .783 0 19.381)" gradientUnits="userSpaceOnUse" r="62.552"><stop offset=".1096" stop-color="#fff9e2"/><stop offset=".6064" stop-color="#f4d8bc"/><stop offset=".7045" stop-color="#f2ceaa"/><stop offset=".8935" stop-color="#eebd8b"/><stop offset="1" stop-color="#ecb780"/></radialGradient><radialGradient id="SVGID_16_" cx="92.552" cy="161.73" gradientTransform="matrix(.342 -.94 .838 .305 -74.685 199.364)" gradientUnits="userSpaceOnUse" r="91.473"><stop offset=".4565" stop-color="#e7a561"/><stop offset=".7222" stop-color="#e59645"/><stop offset=".9879" stop-color="#e28424"/></radialGradient><radialGradient id="SVGID_17_" cx="2.133" cy="33.601" gradientUnits="userSpaceOnUse" r="279.228"><stop offset=".1074" stop-color="#ecb780"/><stop offset=".2298" stop-color="#e8a16b"/><stop offset=".3985" stop-color="#e27d47"/><stop offset=".5443" stop-color="#d86138"/><stop offset=".6829" stop-color="#d14c2d"/><stop offset=".776" stop-color="#ce4529"/></radialGradient><radialGradient id="SVGID_18_" cx="73.231" cy="60.899" gradientTransform="matrix(.707 -.707 .632 .632 -17.052 74.18)" gradientUnits="userSpaceOnUse" r="44.913"><stop offset=".0991" stop-color="#fbf1e2"/><stop offset=".2489" stop-color="#f5d9c3"/><stop offset=".4966" stop-color="#eaaa89"/><stop offset=".9183" stop-color="#e27d47"/></radialGradient><radialGradient id="SVGID_19_" cx="101.119" cy="77.609" gradientUnits="userSpaceOnUse" r="55.206"><stop offset="0" stop-color="#fff9e2"/><stop offset=".116" stop-color="#fcedd0"/><stop offset=".3486" stop-color="#f3cfa1"/><stop offset=".63" stop-color="#e7a561"/><stop offset=".9955" stop-color="#e28424"/></radialGradient><radialGradient id="SVGID_20_" cx="127.754" cy="112.033" gradientTransform="matrix(-.63 -.777 .75 -.608 124.154 279.388)" gradientUnits="userSpaceOnUse" r="32.673"><stop offset="0" stop-color="#b78e8e"/><stop offset=".2178" stop-color="#9d7676"/><stop offset=".5189" stop-color="#7f5b5b"/><stop offset=".7772" stop-color="#6d4b4b"/><stop offset=".9608" stop-color="#664545"/></radialGradient><radialGradient id="SVGID_21_" cx=".714" cy="235.16" gradientUnits="userSpaceOnUse" r="238.391"><stop offset="0" stop-color="#ffead8"/><stop offset=".0182" stop-color="#fce0cb"/><stop offset=".0997" stop-color="#f1b697"/><stop offset=".1761" stop-color="#e8956e"/><stop offset=".2451" stop-color="#e27d50"/><stop offset=".3044" stop-color="#de6e3e"/><stop offset=".3471" stop-color="#dd6938"/><stop offset=".6422" stop-color="#dd5d32"/><stop offset="1" stop-color="#dd542e"/></radialGradient><radialGradient id="SVGID_22_" cx="14.462" cy="145.162" gradientTransform="matrix(-.961 .005 -.003 -.562 22.866 226.706)" gradientUnits="userSpaceOnUse" r="23.62"><stop offset="0" stop-color="#ffd0be"/><stop offset=".0247" stop-color="#f9cab9"/><stop offset=".324" stop-color="#b78681"/><stop offset=".464" stop-color="#9d6b6b"/><stop offset=".465" stop-color="#9d6b6b"/><stop offset=".6328" stop-color="#7f5656"/><stop offset=".7767" stop-color="#6d4a4a"/><stop offset=".879" stop-color="#664545"/></radialGradient><linearGradient id="lg2"><stop offset="0" stop-color="#ecb780"/><stop offset=".2269" stop-color="#e9ab6b"/><stop offset=".3927" stop-color="#e7a561"/><stop offset=".5058" stop-color="#e6a058"/><stop offset=".6886" stop-color="#e49340"/><stop offset=".8597" stop-color="#e28424"/></linearGradient><radialGradient id="SVGID_23_" cx="339.097" cy="229.409" gradientTransform="matrix(.703 -.712 .549 .542 -25.035 346.386)" gradientUnits="userSpaceOnUse" r="129.307" xlink:href="#lg2"/><radialGradient id="SVGID_24_" cx="304.662" cy="246.567" gradientTransform="matrix(.649 -.761 .616 .526 -44.921 348.709)" gradientUnits="userSpaceOnUse" r="153.986"><stop offset=".1103" stop-color="#fbf4c6"/><stop offset=".3449" stop-color="#f0ca91"/><stop offset=".5276" stop-color="#eaaf6e"/><stop offset=".6259" stop-color="#e7a561"/><stop offset=".9087" stop-color="#e28424"/></radialGradient><radialGradient id="SVGID_25_" cx="317.295" cy="394.94" gradientTransform="matrix(.996 -.085 .066 .768 -24.753 118.513)" gradientUnits="userSpaceOnUse" r="44.665" xlink:href="#lg1"/><linearGradient id="SVGID_26_" gradientUnits="userSpaceOnUse" x1="184.39" x2="235.488" y1="394.083" y2="309.422"><stop offset=".2734" stop-color="#e28424"/><stop offset=".3021" stop-color="#e18223"/><stop offset=".788" stop-color="#d56617"/></linearGradient><linearGradient id="SVGID_27_" gradientUnits="userSpaceOnUse" x1="176.303" x2="176.303" y1="430.638" y2="348.182"><stop offset=".4337" stop-color="#e49542"/><stop offset=".4464" stop-color="#e49440"/><stop offset=".6235" stop-color="#e2882c"/><stop offset=".7411" stop-color="#e28424"/></linearGradient><radialGradient id="SVGID_28_" cx="156.806" cy="402.917" gradientTransform="matrix(.996 -.085 .066 .768 -25.858 106.709)" gradientUnits="userSpaceOnUse" r="44.665"><stop offset="0" stop-color="#fff9e2"/><stop offset=".0856" stop-color="#fbeacb"/><stop offset=".2642" stop-color="#f0c38f"/><stop offset=".3927" stop-color="#e7a561"/><stop offset=".5058" stop-color="#e6a058"/><stop offset=".6886" stop-color="#e49340"/><stop offset=".8597" stop-color="#e28424"/></radialGradient><radialGradient id="SVGID_29_" cx="184.09" cy="234.355" gradientTransform="matrix(.703 -.712 .549 .542 -73.836 238.363)" gradientUnits="userSpaceOnUse" r="121.639" xlink:href="#lg2"/><radialGradient id="SVGID_30_" cx="151.339" cy="256.974" gradientTransform="matrix(.649 -.761 .616 .526 -105.1 237.038)" gradientUnits="userSpaceOnUse" r="115.814"><stop offset=".1103" stop-color="#fbf4c6"/><stop offset=".2458" stop-color="#f6e0ac"/><stop offset=".534" stop-color="#e9ac6a"/><stop offset=".5706" stop-color="#e7a561"/><stop offset=".6765" stop-color="#e7a35d"/><stop offset=".7833" stop-color="#e69c51"/><stop offset=".8901" stop-color="#e4913d"/><stop offset=".9858" stop-color="#e28424"/></radialGradient><radialGradient id="SVGID_31_" cx="389.221" cy="400.305" gradientTransform="matrix(.996 -.085 .066 .768 -24.844 125.874)" gradientUnits="userSpaceOnUse" r="44.665"><stop offset=".0319" stop-color="#fff9e2"/><stop offset=".2498" stop-color="#f3cd9f"/><stop offset=".4167" stop-color="#eab072"/><stop offset=".5007" stop-color="#e7a561"/><stop offset=".5876" stop-color="#e6a058"/><stop offset=".7281" stop-color="#e49340"/><stop offset=".8597" stop-color="#e28424"/></radialGradient><g><path d="m258.358 457.58c138.432 0 250.653-13.749 250.653-30.709h-501.306c0 16.961 112.221 30.709 250.653 30.709z" fill="url(#SVGID_1_)"/><path d="m474.05 326.195c-8.456-8.456-13.206-19.924-13.206-31.882v-80.108c0-17.044-5.695-33.599-16.182-47.035v133.846c0 11.958 4.75 23.426 13.206 31.882l33.345 33.345c5.161 5.161 13.529 5.161 18.689 0l2.097-2.097z" fill="url(#SVGID_2_)"/><path d="m104.12 373.983v52.888h25.833l5.207-46.068 10.302-64.326z" fill="url(#SVGID_3_)"/><path d="m85.496 416.557c0-7.453 6.042-13.494 13.494-13.494h10.262c7.453 0 13.494 6.042 13.494 13.494v10.314h-37.25z" fill="url(#SVGID_4_)"/><path d="m135.601 194.384c-17.685.485-31.556 15.44-31.556 33.131l.075 146.467 43.315-43.308c13.796-13.793 21.546-32.503 21.546-52.011v-51.823c.001-18.235-15.031-32.959-33.38-32.456z" fill="url(#SVGID_5_)"/><path d="m362.188 297.677-26.9 16.663 27.666 43.718-20.266 68.813h30.888l20.417-78.309z" fill="url(#SVGID_6_)"/><path d="m330.57 174.701c-26.288.975-47.633 22.534-48.368 48.83-.318 11.397 3.168 21.958 9.265 30.535l-.014.005 43.834 60.27c10.826 14.885 29.814 21.397 47.496 16.288v-105.664c.001-28.415-23.561-51.327-52.213-50.264z" fill="url(#SVGID_7_)"/><path d="m427.408 297.677-26.901 16.663 27.667 43.718-20.266 68.813h30.888l20.416-78.309z" fill="url(#SVGID_8_)"/><path d="m414.496 314.34 16.816-10.417-3.904-6.246-26.901 16.663 27.667 43.718-20.266 68.813h13.988l20.266-68.813z" fill="url(#SVGID_9_)"/><path d="m95.983 208.379c0 39.062 28.293 72.376 66.84 78.7l33.368 5.474c47.366 7.771 95.948 2.79 140.751-14.432l36.24-13.93h28.571c41.184 0 68.894-42.184 52.539-79.981-14.601-33.741-47.852-55.584-84.617-55.584h-193.94c-44.046.001-79.752 35.707-79.752 79.753z" fill="url(#SVGID_10_)"/><path d="m118.84 152.512 25.362 22.585-33.247 70.166-4.34 2.883c10.495 18.219 28.022 32.024 49.253 37.47l60.204-57.384c14.206-13.541 22.246-32.31 22.246-51.936v-36.055l-10.857-11.614h-51.725c-22.286 0-42.425 9.15-56.896 23.885z" fill="url(#SVGID_11_)"/><path d="m26.544 128.584-22.558 16.454c-1.504 1.097-2.629 2.593-3.288 4.282l79.844 6.863 13.271-30.673z" fill="url(#SVGID_12_)"/><path d="m65.205 121.484h-17.966v-23.043c0-9.561 7.751-17.312 17.312-17.312 6.449 0 11.677 5.228 11.677 11.677v17.655c0 6.088-4.935 11.023-11.023 11.023z" fill="url(#SVGID_13_)"/><path d="m.03 152.812-.03 40.897c-.006 8.602 6.98 14.979 14.847 15.1l-.001.009h31.434l.008-.012 34.254-59.485h-79.844c-.43 1.099-.667 2.279-.668 3.491z" fill="url(#SVGID_14_)"/><path d="m123.467 74.777h-31.693c-14.554 0-28.575 5.473-39.28 15.333l-20.281 18.68c-3.613 3.328-5.669 8.017-5.669 12.929v6.865h65.939z" fill="url(#SVGID_15_)"/><path d="m176.267 123.119c0-26.699-21.644-48.342-48.342-48.342h-4.458c-14.554 0-28.575 5.473-39.28 15.333l-20.281 18.68c-3.613 3.328-5.669 8.017-5.669 12.929v6.865l-22.559 16.454c-2.483 1.812-3.953 4.7-3.955 7.774l-.03 40.897c-.008 10.81 11.025 18.118 20.976 13.893l93.435-39.688c17.687-7.186 30.163-24.528 30.163-44.795z" fill="url(#SVGID_16_)"/><path d="m97.088 121.484v-34.574c0-3.02-2.721-5.312-5.697-4.799l-10.189 1.757-16.465-2.402 1.896-4.463c5.818-13.693 19.256-22.585 34.134-22.585h57.902l79.648 74.164v34.559c0 19.917-8.279 38.938-22.855 52.51l-97.612 90.892-39.892-37.146 56.178-114.923z" fill="url(#SVGID_17_)"/><path d="m81.202 83.869 2.916-6.865c5.818-13.693 19.256-22.585 34.134-22.585h-17.486c-14.878 0-28.316 8.891-34.134 22.585l-1.896 4.462.435.763c1.612 2.829 4.894 4.259 8.064 3.513z" fill="url(#SVGID_18_)"/><path d="m117.834 121.484h-12.688v-23.043c0-9.561 7.751-17.312 17.312-17.312 6.449 0 11.677 5.228 11.677 11.677v12.377c0 9.003-7.298 16.301-16.301 16.301z" fill="url(#SVGID_19_)"/><path d="m116.984 119.492h-10.111v-18.362c0-7.619 6.177-13.796 13.796-13.796 5.139 0 9.305 4.166 9.305 9.305v9.863c-.001 7.174-5.816 12.99-12.99 12.99z" fill="url(#SVGID_20_)"/><path d="m46.28 208.818 37.324-14.885c12.304-4.907 20.376-16.816 20.376-30.062v-36.249l-6.892-6.138v-21.033l47.113 40.67v52.617c0 13.858-6.03 27.03-16.52 36.085l-53.003 45.754-35.535-30.675c-10.49-9.055-16.52-22.227-16.52-36.085h23.657z" fill="url(#SVGID_21_)"/><path d="m13.877 157.735-6.929-8.273c-.617-.736-.093-1.858.867-1.858h16.755c.96 0 1.484 1.121.867 1.858l-6.929 8.273c-1.207 1.442-3.424 1.442-4.631 0z" fill="url(#SVGID_22_)"/><path d="m395.79 174.701c-26.288.975-47.633 22.534-48.368 48.83-.318 11.397 3.168 21.958 9.265 30.535l-.014.005 43.834 60.27c10.826 14.885 29.814 21.397 47.496 16.288v-105.664c0-28.415-23.561-51.327-52.213-50.264z" fill="url(#SVGID_23_)"/><path d="m414.496 314.34-43.834-60.27.014-.005c-6.096-8.577-9.583-19.138-9.265-30.535.686-24.569 19.367-44.999 43.259-48.371-2.89-.401-5.854-.571-8.88-.459-26.288.975-47.633 22.534-48.368 48.83-.318 11.396 3.168 21.958 9.265 30.535l-.014.005 43.834 60.27c9.786 13.455 26.241 20.066 42.373 17.439-11.152-1.805-21.445-7.898-28.384-17.439z" fill="url(#SVGID_24_)"/><path d="m337.404 403.063h10.262c7.453 0 13.494 6.042 13.494 13.494v10.314h-37.25v-10.314c0-7.452 6.042-13.494 13.494-13.494z" fill="url(#SVGID_25_)"/><path d="m169.277 368.468.063 58.403h25.833l5.207-46.068 8.632-53.901z" fill="url(#SVGID_26_)"/><path d="m169.34 426.871h13.989l-.097-90.013-13.955 31.61z" fill="url(#SVGID_27_)"/><path d="m164.209 403.063h10.262c7.453 0 13.494 6.042 13.494 13.494v10.314h-37.25v-10.314c0-7.452 6.042-13.494 13.494-13.494z" fill="url(#SVGID_28_)"/><path d="m200.821 194.384c-17.685.485-31.556 15.44-31.556 33.131l.075 146.467 43.315-43.308c13.796-13.793 21.546-32.503 21.546-52.011v-51.823c.001-18.235-15.032-32.959-33.38-32.456z" fill="url(#SVGID_29_)"/><path d="m183.253 227.516c0-15.615 10.808-29.091 25.505-32.374-2.547-.562-5.204-.832-7.937-.757-17.685.485-31.556 15.44-31.556 33.132l.075 146.467 13.981-13.979z" fill="url(#SVGID_30_)"/><path d="m402.624 403.063h10.262c7.453 0 13.494 6.042 13.494 13.494v10.314h-37.25v-10.314c0-7.452 6.041-13.494 13.494-13.494z" fill="url(#SVGID_31_)"/></g></svg>