<svg id="Capa_1" enable-background="new 0 0 512 512" height="512" viewBox="0 0 512 512" width="512" xmlns="http://www.w3.org/2000/svg" xmlns:xlink="http://www.w3.org/1999/xlink"><radialGradient id="SVGID_1_" cx="412.461" cy="516.625" gradientTransform="matrix(.931 0 0 .112 -118.375 364.351)" gradientUnits="userSpaceOnUse" r="250.616"><stop offset="0" stop-color="#f4d8bc"/><stop offset=".0882" stop-color="#f6dcc2"/><stop offset=".4962" stop-color="#ffead8"/><stop offset=".8982" stop-color="#fff"/></radialGradient><radialGradient id="SVGID_2_" cx="9.946" cy="115.821" gradientTransform="matrix(1 0 0 .724 0 31.965)" gradientUnits="userSpaceOnUse" r="50.35"><stop offset=".1407" stop-color="#fff9e2"/><stop offset=".5764" stop-color="#f4d8bc"/><stop offset="1" stop-color="#efc89d"/></radialGradient><radialGradient id="SVGID_3_" cx="52.354" cy="55.265" gradientUnits="userSpaceOnUse" r="92.267"><stop offset="0" stop-color="#beb9dd"/><stop offset=".2163" stop-color="#807b8f"/><stop offset=".3829" stop-color="#55505a"/><stop offset=".4636" stop-color="#454045"/></radialGradient><radialGradient id="SVGID_4_" cx="60.405" cy="70.511" gradientTransform="matrix(1 0 0 .781 0 15.461)" gradientUnits="userSpaceOnUse" r="53.282"><stop offset="0" stop-color="#ffe2cb"/><stop offset=".1188" stop-color="#fbdcc1"/><stop offset=".3214" stop-color="#f2cda6"/><stop offset=".3769" stop-color="#efc89d"/><stop offset=".5214" stop-color="#eec598"/><stop offset=".7009" stop-color="#ecbc88"/><stop offset=".8981" stop-color="#e9ad6f"/><stop offset=".9899" stop-color="#e7a561"/></radialGradient><linearGradient id="SVGID_5_" gradientUnits="userSpaceOnUse" x1="480.789" x2="480.789" y1="336.081" y2="203.109"><stop offset=".1585" stop-color="#e49542"/><stop offset=".2166" stop-color="#e38d39"/><stop offset=".3795" stop-color="#e07b24"/><stop offset=".4866" stop-color="#df751c"/><stop offset=".7788" stop-color="#d76818"/><stop offset=".824" stop-color="#d56617"/></linearGradient><linearGradient id="SVGID_6_" gradientUnits="userSpaceOnUse" x1="160.797" x2="197.493" y1="372.146" y2="311.346"><stop offset=".0675" stop-color="#d56617"/><stop offset=".2868" stop-color="#ce6219"/><stop offset=".6103" stop-color="#ba5520"/><stop offset=".788" stop-color="#ac4d24"/></linearGradient><linearGradient id="lg1"><stop offset=".1314" stop-color="#e7a561"/><stop offset=".2308" stop-color="#e38f41"/><stop offset=".3326" stop-color="#e07c26"/><stop offset=".3927" stop-color="#df751c"/><stop offset=".7018" stop-color="#d96c19"/><stop offset=".8493" stop-color="#d56617"/></linearGradient><radialGradient id="SVGID_7_" cx="113.573" cy="390.831" gradientTransform="matrix(.996 -.085 .066 .768 -25.222 100.231)" gradientUnits="userSpaceOnUse" r="43.328" xlink:href="#lg1"/><radialGradient id="SVGID_8_" cx="197.288" cy="233.359" fx="205.87" fy="208.56" gradientTransform="matrix(-.371 .929 -1.279 -.51 568.733 169.11)" gradientUnits="userSpaceOnUse" r="108.19"><stop offset=".4242" stop-color="#ac4d24"/><stop offset=".4609" stop-color="#b25022"/><stop offset=".6203" stop-color="#c55c1c"/><stop offset=".7814" stop-color="#d16418"/><stop offset=".9456" stop-color="#d56617"/></radialGradient><linearGradient id="SVGID_9_" gradientUnits="userSpaceOnUse" x1="387.682" x2="327.391" y1="378.48" y2="329.061"><stop offset=".3301" stop-color="#d56617"/><stop offset=".4957" stop-color="#d06318"/><stop offset=".6812" stop-color="#c35b1d"/><stop offset=".8755" stop-color="#ad4d24"/><stop offset=".8801" stop-color="#ac4d24"/></linearGradient><radialGradient id="SVGID_10_" cx="311.527" cy="252.825" gradientTransform="matrix(.976 -.216 .113 .509 -21.103 191.542)" gradientUnits="userSpaceOnUse" r="125.438"><stop offset=".3927" stop-color="#ac4d24"/><stop offset=".544" stop-color="#b55221"/><stop offset=".7887" stop-color="#cd611a"/><stop offset=".8597" stop-color="#d56617"/></radialGradient><linearGradient id="lg2"><stop offset="0" stop-color="#ecb780"/><stop offset=".1624" stop-color="#eab176"/><stop offset=".3814" stop-color="#e7a561"/><stop offset=".5156" stop-color="#e6a15c"/><stop offset=".6823" stop-color="#e5974c"/><stop offset=".8653" stop-color="#e28533"/><stop offset="1" stop-color="#df751c"/></linearGradient><radialGradient id="SVGID_11_" cx="252.812" cy="79.186" gradientTransform="matrix(1 0 0 .781 0 17.363)" gradientUnits="userSpaceOnUse" r="245.365" xlink:href="#lg2"/><radialGradient id="SVGID_12_" cx="113.754" cy="68.046" gradientTransform="matrix(1 0 0 .781 0 14.92)" gradientUnits="userSpaceOnUse" r="89.395"><stop offset="0" stop-color="#e7a561"/><stop offset=".3814" stop-color="#e7a561"/><stop offset=".5156" stop-color="#e6a15c"/><stop offset=".6823" stop-color="#e5974c"/><stop offset=".8653" stop-color="#e28533"/><stop offset="1" stop-color="#df751c"/></radialGradient><radialGradient id="SVGID_13_" cx="65.246" cy="173.914" gradientTransform="matrix(1 0 0 1.039 0 -6.761)" gradientUnits="userSpaceOnUse" r="168.708"><stop offset="0" stop-color="#fffbe4"/><stop offset=".6064" stop-color="#ffe2cb"/><stop offset=".6358" stop-color="#fde0c7"/><stop offset=".8687" stop-color="#f3cea8"/><stop offset="1" stop-color="#efc89d"/></radialGradient><linearGradient id="lg3"><stop offset="0" stop-color="#ffead8"/><stop offset=".3115" stop-color="#ffe4ce"/><stop offset=".3769" stop-color="#ffe2cb"/><stop offset=".5462" stop-color="#fddfc6"/><stop offset=".7565" stop-color="#f8d6b6"/><stop offset=".9876" stop-color="#efc89d"/><stop offset=".9899" stop-color="#efc89d"/></linearGradient><radialGradient id="SVGID_14_" cx="107.646" cy="123.255" gradientTransform="matrix(1 0 0 .781 0 27.026)" gradientUnits="userSpaceOnUse" r="85.939" xlink:href="#lg3"/><linearGradient id="lg4"><stop offset=".1101" stop-color="#8b818e"/><stop offset=".5596" stop-color="#544f57"/><stop offset=".8106" stop-color="#4b464d"/><stop offset=".9429" stop-color="#454045"/></linearGradient><radialGradient id="SVGID_15_" cx="182.869" cy="101.793" gradientTransform="matrix(.967 .256 -.2 .755 26.462 -21.873)" gradientUnits="userSpaceOnUse" r="420.514" xlink:href="#lg4"/><radialGradient id="SVGID_16_" cx="125.832" cy="220.733" gradientTransform="matrix(.967 .256 -.2 .755 48.347 21.922)" gradientUnits="userSpaceOnUse" r="311.972" xlink:href="#lg4"/><linearGradient id="SVGID_17_" gradientUnits="userSpaceOnUse" x1="456.719" x2="396.428" y1="383.209" y2="333.79"><stop offset=".3301" stop-color="#e28424"/><stop offset=".5267" stop-color="#e07f22"/><stop offset=".7464" stop-color="#da721c"/><stop offset=".8801" stop-color="#d56617"/></linearGradient><linearGradient id="SVGID_18_" gradientUnits="userSpaceOnUse" x1="430.925" x2="430.925" y1="418.568" y2="320.316"><stop offset=".1585" stop-color="#e49542"/><stop offset=".1719" stop-color="#e49441"/><stop offset=".4437" stop-color="#e3882c"/><stop offset=".6223" stop-color="#e28424"/><stop offset=".8875" stop-color="#df771d"/><stop offset=".9285" stop-color="#df751c"/></linearGradient><radialGradient id="SVGID_19_" cx="369.995" cy="233.218" gradientTransform="matrix(.28 -.96 .74 .216 93.842 538.132)" gradientUnits="userSpaceOnUse" r="125.438"><stop offset="0" stop-color="#ecb780"/><stop offset=".2269" stop-color="#e9ab6b"/><stop offset=".3927" stop-color="#e7a561"/><stop offset=".6296" stop-color="#e38e40"/><stop offset=".8619" stop-color="#e07c26"/><stop offset="1" stop-color="#df751c"/></radialGradient><radialGradient id="SVGID_20_" cx="323.25" cy="245.204" gradientTransform="matrix(.649 -.761 .616 .526 -37.563 362.199)" gradientUnits="userSpaceOnUse" r="149.378"><stop offset=".1103" stop-color="#fbf4c6"/><stop offset=".3449" stop-color="#f0ca91"/><stop offset=".5276" stop-color="#eaaf6e"/><stop offset=".6259" stop-color="#e7a561"/><stop offset=".9087" stop-color="#df751c"/></radialGradient><radialGradient id="SVGID_21_" cx="329.999" cy="390.831" gradientTransform="matrix(.996 -.085 .066 .768 -24.438 118.641)" gradientUnits="userSpaceOnUse" r="43.328" xlink:href="#lg1"/><linearGradient id="SVGID_22_" gradientUnits="userSpaceOnUse" x1="219.529" x2="273.934" y1="386.896" y2="296.756"><stop offset=".2734" stop-color="#e28424"/><stop offset=".3021" stop-color="#e18223"/><stop offset=".788" stop-color="#d56617"/></linearGradient><linearGradient id="SVGID_23_" gradientUnits="userSpaceOnUse" x1="210.919" x2="210.919" y1="425.817" y2="338.025"><stop offset=".4337" stop-color="#e49542"/><stop offset=".4464" stop-color="#e49440"/><stop offset=".6235" stop-color="#e2882c"/><stop offset=".7411" stop-color="#e28424"/></linearGradient><radialGradient id="SVGID_24_" cx="183.512" cy="396.972" gradientTransform="matrix(.996 -.085 .066 .768 -25.371 107.604)" gradientUnits="userSpaceOnUse" r="43.328"><stop offset=".0485" stop-color="#fff9e2"/><stop offset=".1804" stop-color="#f6d9b1"/><stop offset=".3163" stop-color="#eebd86"/><stop offset=".4224" stop-color="#e9ac6b"/><stop offset=".4848" stop-color="#e7a561"/><stop offset=".5756" stop-color="#e6a058"/><stop offset=".7223" stop-color="#e49340"/><stop offset=".8597" stop-color="#e28424"/></radialGradient><radialGradient id="SVGID_25_" cx="219.209" cy="216.831" gradientTransform="matrix(.703 -.712 .549 .542 -53.78 255.322)" gradientUnits="userSpaceOnUse" r="129.511"><stop offset="0" stop-color="#ecb780"/><stop offset=".2269" stop-color="#e9ab6b"/><stop offset=".3927" stop-color="#e7a561"/><stop offset=".5058" stop-color="#e6a058"/><stop offset=".6886" stop-color="#e49340"/><stop offset=".8597" stop-color="#e28424"/></radialGradient><radialGradient id="SVGID_26_" cx="184.339" cy="240.914" gradientTransform="matrix(.649 -.761 .616 .526 -83.641 254.515)" gradientUnits="userSpaceOnUse" r="123.309"><stop offset=".1103" stop-color="#fbf4c6"/><stop offset=".2458" stop-color="#f6e0ac"/><stop offset=".534" stop-color="#e9ac6a"/><stop offset=".5706" stop-color="#e7a561"/><stop offset=".6765" stop-color="#e7a35d"/><stop offset=".7833" stop-color="#e69c51"/><stop offset=".8901" stop-color="#e4913d"/><stop offset=".9858" stop-color="#e28424"/></radialGradient><radialGradient id="SVGID_27_" cx="401.455" cy="398.737" gradientTransform="matrix(.996 -.085 .066 .768 -24.697 126.551)" gradientUnits="userSpaceOnUse" r="43.328"><stop offset=".0168" stop-color="#fff9e2"/><stop offset=".264" stop-color="#efc08a"/><stop offset=".3927" stop-color="#e7a561"/><stop offset=".5058" stop-color="#e6a058"/><stop offset=".6886" stop-color="#e49340"/><stop offset=".8597" stop-color="#e28424"/></radialGradient><radialGradient id="SVGID_28_" cx="26.614" cy="85.854" gradientTransform="matrix(1 0 0 .783 0 18.676)" gradientUnits="userSpaceOnUse" r="58.075"><stop offset=".1096" stop-color="#fff9e2"/><stop offset=".6064" stop-color="#f4d8bc"/><stop offset=".7045" stop-color="#f2ceaa"/><stop offset=".8935" stop-color="#eebd8b"/><stop offset="1" stop-color="#ecb780"/></radialGradient><radialGradient id="SVGID_29_" cx="14.742" cy="141.438" gradientTransform="matrix(1 0 0 .724 0 39.035)" gradientUnits="userSpaceOnUse" r="78.607"><stop offset="0" stop-color="#fffbe4"/><stop offset=".6064" stop-color="#ffe2cb"/><stop offset=".6833" stop-color="#fce0c7"/><stop offset="1" stop-color="#f4d8bc"/></radialGradient><radialGradient id="SVGID_30_" cx="108.022" cy="145.077" gradientTransform="matrix(1 0 0 .781 0 31.811)" gradientUnits="userSpaceOnUse" r="108.894" xlink:href="#lg2"/><radialGradient id="SVGID_31_" cx="102.027" cy="152.955" gradientTransform="matrix(1 0 0 .781 0 33.538)" gradientUnits="userSpaceOnUse" r="85.652" xlink:href="#lg3"/><radialGradient id="SVGID_32_" cx="94.784" cy="55.265" gradientUnits="userSpaceOnUse" r="92.267"><stop offset="0" stop-color="#dddaec"/><stop offset=".2119" stop-color="#9894a1"/><stop offset=".3814" stop-color="#67626c"/><stop offset=".4636" stop-color="#544f57"/><stop offset=".8205" stop-color="#454045"/></radialGradient><radialGradient id="SVGID_33_" cx="102.835" cy="70.511" gradientTransform="matrix(1 0 0 .781 0 15.461)" gradientUnits="userSpaceOnUse" r="53.282"><stop offset="0" stop-color="#ffead8"/><stop offset=".1735" stop-color="#fbe3ce"/><stop offset=".3769" stop-color="#f4d8bc"/><stop offset=".4896" stop-color="#f3d5b7"/><stop offset=".6297" stop-color="#f1cca7"/><stop offset=".7843" stop-color="#edbe8e"/><stop offset=".9481" stop-color="#e8ab6b"/><stop offset=".9899" stop-color="#e7a561"/></radialGradient><radialGradient id="SVGID_34_" cx="-12.537" cy="141.953" gradientTransform="matrix(-.961 .005 -.003 -.562 -4.242 221.821)" gradientUnits="userSpaceOnUse" r="20.812"><stop offset="0" stop-color="#dddaec"/><stop offset=".3146" stop-color="#a29aa9"/><stop offset=".464" stop-color="#8b818e"/><stop offset=".465" stop-color="#8b818e"/><stop offset=".6328" stop-color="#6d6670"/><stop offset=".7767" stop-color="#5b555e"/><stop offset=".879" stop-color="#544f57"/></radialGradient><radialGradient id="SVGID_35_" cx="95.401" cy="132.032" gradientTransform="matrix(1 0 0 1.365 0 -48.121)" gradientUnits="userSpaceOnUse" r="50.559" xlink:href="#lg3"/><g><path d="m268.848 451.597c134.289 0 243.152-13.337 243.152-29.79h-486.304c0 16.452 108.863 29.79 243.152 29.79z" fill="url(#SVGID_1_)"/><path d="m113.859 125.927-.329-23.647-93.722 11.029-18.022 27.727c-1.029 1.583-1.615 3.367-1.754 5.182l114.033 12.126c1.373-6.555 1.366-25.588-.206-32.417z" fill="url(#SVGID_2_)"/><path d="m89.238 83.032-8.079-15.395c-2.322-4.424-6.896-7.205-11.892-7.23l-.693-.004 11.114 44.911 7.175-7.175c3.961-3.961 5.012-10.054 2.42-15.019-.014-.03-.03-.059-.045-.088z" fill="url(#SVGID_3_)"/><path d="m54.058 85.362 9.316-21.513c2.036-4.702 8.754-4.559 10.587.226l4.966 12.96c3.472 9.063 3.741 19.041.762 28.278z" fill="url(#SVGID_4_)"/><path d="m496.923 300.397v15.132c0 7.641-6.194 13.835-13.835 13.835-7.641 0-13.835-6.194-13.835-13.835v-99.054c0-16.534-5.525-32.593-15.698-45.627v142.382c0 15.041 12.193 27.234 27.234 27.234 15.041 0 27.234-12.193 27.234-27.234v-12.833c0-3.065-2.485-5.55-5.55-5.55-3.065 0-5.55 2.485-5.55 5.55z" fill="url(#SVGID_5_)"/><path d="m134.065 365.495v56.312h27.505l5.543-49.05 10.969-68.489z" fill="url(#SVGID_6_)"/><path d="m133.08 398.711h9.955c7.23 0 13.09 5.861 13.09 13.09v10.005h-36.135v-10.005c0-7.229 5.861-13.09 13.09-13.09z" fill="url(#SVGID_7_)"/><path d="m167.583 174.274c-18.83.516-33.598 16.439-33.598 35.276l.08 155.946 46.118-46.11c14.689-14.686 22.941-34.606 22.941-55.377v-55.179c0-19.415-16.005-35.092-35.541-34.556z" fill="url(#SVGID_8_)"/><path d="m373.548 296.478-26.095 16.165 26.838 42.41-19.659 66.754h29.963l19.806-75.966z" fill="url(#SVGID_9_)"/><path d="m342.877 177.182c-25.501.945-46.208 21.86-46.92 47.369-.309 11.056 3.074 21.301 8.988 29.621l-.014.004 42.523 58.467c10.502 14.44 28.922 20.756 46.075 15.801v-102.501c-.001-27.565-22.858-49.791-50.652-48.761z" fill="url(#SVGID_10_)"/><path d="m462.895 186.408c-14.241-32.911-46.212-54.635-82.055-55.754l-110.14-3.439c-8.039-.251-15.837-2.804-22.468-7.355-25.596-17.568-54.558-29.638-85.055-35.448l-44.69-8.513-35.23 72.311 27.075 14.988 66.295 108.943 73.99 27.65 74.806-13.198 58.791-22.598h27.716c39.951.001 66.832-40.921 50.965-77.587z" fill="url(#SVGID_11_)"/><path d="m151.325 135.811-23.791-50.027h-3.076c-3.713 0-7.412.203-11.081.602l-30.121 61.824 15.509 14.988c8.782 8.487 15.954 18.456 21.202 29.421l9.243-5.434c10.82-6.362 18.37-16.544 21.585-28.071.891-3.196 1.45-6.495 1.652-9.844.269-4.439-.088-8.966-1.122-13.459z" fill="url(#SVGID_12_)"/><path d="m439.065 253.141h-27.716l-58.791 22.598c-28.249 10.858-58.255 16.426-88.518 16.426-45.2 0-85.729-27.844-101.943-70.036l-10.917-30.582c-5.297-14.839-13.948-28.255-25.278-39.204l-30.363-29.342-12.283 25.209 15.509 14.988c11.33 10.949 19.98 24.365 25.278 39.204l10.917 30.582c16.214 42.192 56.743 70.036 101.943 70.036 30.264 0 60.269-5.568 88.518-16.426l58.791-22.598h27.716c12.857 0 24.361-4.238 33.522-11.209-2.086.233-4.216.354-6.385.354z" fill="url(#SVGID_13_)"/><path d="m143.275 174.525c-4.727-8.133-10.566-15.603-17.374-22.181l-30.363-29.342-12.282 25.208c16.378 15.827 27.287 24.737 36.696 44.377.005.011.01.021.015.032l9.243-5.434c5.621-3.305 10.359-7.641 14.065-12.66z" fill="url(#SVGID_14_)"/><path d="m145.542 253.652c-2.446-3.735-4.676-7.642-6.671-11.707 9.836-13.436 20.671-26.122 32.414-37.947-7.175 17.249-15.787 33.859-25.743 49.654zm31.368-155.673 2.017-9.975c-4.109-1.094-8.254-2.072-12.428-2.933l-2.099 10.379c-4.367 21.594-6.628 43.56-6.753 65.59 8.445-20.348 14.896-41.467 19.263-63.061zm31.064-.071-3.501 17.39c-4.348 21.597-6.591 43.565-6.698 65.595 8.428-20.355 14.861-41.479 19.21-63.076l2.919-14.494c-3.925-1.921-7.903-3.727-11.93-5.415zm-18.803 176.876c9.17-19.483 16.429-39.81 21.674-60.694-12.752 17.351-23.791 35.898-32.961 55.381l-5.768 12.255c3.381 2.491 6.905 4.787 10.552 6.875zm205.543-58.364c-1.711 8.714-3.072 29.955-4.08 47.575h8.159c-1.008-17.62-2.368-38.861-4.079-47.575zm-23.102-86.054v15.964c0 22.031 2.137 44.009 6.382 65.627 4.245-21.618 6.382-43.596 6.382-65.627v-15.498c-1.174-.081-2.353-.142-3.536-.178zm-59.9 96.909c-3.653 18.605-5.709 45.207-6.148 65.998 4.093-1.186 8.158-2.479 12.191-3.878-.606-19.86-2.626-44.718-6.043-62.12zm30.204-80.945v-16.891l-12.763-.398v17.29c0 22.031 2.137 44.009 6.381 65.627 4.245-21.619 6.382-43.597 6.382-65.628zm11.297 86.372c-1.607 8.186-2.905 28.05-3.893 44.705l7.58-2.914c-.959-15.556-2.189-34.159-3.687-41.791zm73.622-86.372v-1.758c-4.068-2.531-8.335-4.747-12.763-6.625v8.384c0 22.031 2.137 44.009 6.382 65.627 4.243-21.619 6.381-43.597 6.381-65.628zm-150.386 134.236c0-21.533-2.089-43.016-6.238-64.145-4.149 21.13-6.237 42.612-6.237 64.145v20.964c4.173-.461 8.333-1.028 12.475-1.7zm-19.451-134.236v-21.868c-3.078-1.177-6.022-2.718-8.767-4.602-1.323-.908-2.656-1.802-3.997-2.68v29.15c0 22.031 2.137 44.009 6.381 65.627 4.246-21.618 6.383-43.596 6.383-65.627zm29.696 0c0 22.031 2.137 44.009 6.382 65.627 4.245-21.618 6.381-43.596 6.381-65.627v-18.217l-12.763-.398z" fill="url(#SVGID_15_)"/><path d="m138.871 241.945c6.578-8.986 13.603-17.635 21.048-25.917l2.178 6.101c.146.38.294.759.445 1.137-5.132 10.416-10.806 20.558-17 30.385-2.446-3.734-4.677-7.641-6.671-11.706zm210.477 35.002c-.009.154-.018.308-.027.461l7.58-2.914c-.008-.138-.017-.276-.025-.414l-4.317 1.659c-1.068.411-2.139.812-3.211 1.208zm-43.784 16.326c4.093-1.186 8.158-2.479 12.191-3.877-.031-1.029-.067-2.071-.106-3.125-3.968.883-7.957 1.668-11.963 2.354-.049 1.576-.09 3.127-.122 4.648zm-121.603-36.054c-2.109 4.04-4.135 8.125-6.078 12.252l-5.768 12.255c3.381 2.491 6.905 4.787 10.552 6.875l6.504-13.817c1.366-2.902 2.689-5.822 3.969-8.76-3.221-2.749-6.287-5.688-9.179-8.805zm92.488 34.634c-4.129.208-8.267.313-12.409.313-.022 0-.044 0-.066 0v9.365c4.173-.461 8.333-1.028 12.475-1.7zm114.356-30.815c-.058.995-.115 1.982-.171 2.958h8.159c-.11-1.929-.225-3.902-.344-5.896z" fill="url(#SVGID_16_)"/><path d="m436.816 296.478-26.095 16.165 26.838 42.41-19.659 66.754h29.963l19.806-75.966z" fill="url(#SVGID_17_)"/><path d="m424.291 312.643 16.313-10.105-3.788-6.06-26.095 16.165 26.838 42.41-19.66 66.754h13.57l19.66-66.754z" fill="url(#SVGID_18_)"/><path d="m406.145 177.182c-25.501.945-46.208 21.86-46.92 47.369-.309 11.056 3.074 21.301 8.988 29.621l-.014.004 42.523 58.467c10.502 14.44 28.922 20.756 46.075 15.801v-102.501c-.001-27.565-22.858-49.791-50.652-48.761z" fill="url(#SVGID_19_)"/><path d="m424.291 312.643-42.523-58.467.014-.004c-5.914-8.32-9.296-18.566-8.988-29.621.666-23.834 18.787-43.652 41.964-46.924-2.804-.389-5.679-.554-8.614-.445-25.501.945-46.208 21.86-46.92 47.369-.309 11.055 3.074 21.301 8.988 29.621l-.014.004 42.522 58.467c9.493 13.052 25.456 19.465 41.105 16.917-10.818-1.751-20.803-7.662-27.534-16.917z" fill="url(#SVGID_20_)"/><path d="m349.506 398.711h9.955c7.23 0 13.09 5.861 13.09 13.09v10.005h-36.135v-10.005c0-7.229 5.86-13.09 13.09-13.09z" fill="url(#SVGID_21_)"/><path d="m203.439 359.624.066 62.183h27.505l5.544-49.05 9.191-57.389z" fill="url(#SVGID_22_)"/><path d="m203.505 421.807h14.894l-.103-95.839-14.857 33.656z" fill="url(#SVGID_23_)"/><path d="m196.348 398.711h9.955c7.23 0 13.09 5.861 13.09 13.09v10.005h-36.135v-10.005c0-7.229 5.861-13.09 13.09-13.09z" fill="url(#SVGID_24_)"/><path d="m237.023 174.274c-18.83.516-33.598 16.439-33.598 35.276l.08 155.946 46.118-46.11c14.689-14.686 22.941-34.606 22.941-55.377v-55.179c0-19.415-16.005-35.092-35.541-34.556z" fill="url(#SVGID_25_)"/><path d="m218.319 209.549c0-16.625 11.508-30.973 27.155-34.47-2.712-.598-5.541-.886-8.451-.806-18.829.516-33.598 16.439-33.598 35.276l.08 155.946 14.886-14.884z" fill="url(#SVGID_26_)"/><path d="m412.774 398.711h9.955c7.23 0 13.09 5.861 13.09 13.09v10.005h-36.135v-10.005c-.001-7.229 5.86-13.09 13.09-13.09z" fill="url(#SVGID_27_)"/><path d="m112.556 75.9h-25.564c-19.342 0-38.289 5.48-54.645 15.805-7.466 4.713-12.15 12.783-12.539 21.603h93.722z" fill="url(#SVGID_28_)"/><path d="m1.43 152.501 15.554 27.526c2.939 5.201 8.122 8.111 13.496 8.451l-.005.034h24.443l11.95-11.95 6.746 11.399 18.13-10.66c11.753-6.911 19.648-18.33 22.32-31.083h-114.032c-.164 2.148.299 4.337 1.398 6.283z" fill="url(#SVGID_29_)"/><path d="m142.429 125.927-23.791-50.027h-3.076c-19.342 0-38.289 5.48-54.645 15.805-7.466 4.713-12.15 12.783-12.539 21.604l-18.022 27.727c-1.018 1.567-1.603 3.331-1.75 5.126l15.613 4.365c15.053 4.155 31.178-.1 42.221-11.142l21.034 14.599 36.078-14.599c.268-4.438-.089-8.965-1.123-13.458z" fill="url(#SVGID_30_)"/><path d="m143.552 139.385c-.202 3.35-.761 6.649-1.652 9.844-3.215 11.527-10.765 21.709-21.585 28.071l-18.13 10.66-12.896-21.79-17.37 17.428c-7.804 7.831-20.926 6.052-26.365-3.572l-15.554-27.525c-1.109-1.962-1.571-4.173-1.394-6.339l15.613 4.365c15.053 4.155 31.178-.1 42.221-11.142z" fill="url(#SVGID_31_)"/><path d="m131.668 83.032-8.079-15.395c-2.322-4.424-6.896-7.205-11.892-7.23l-.693-.004 11.114 44.911 7.175-7.175c3.961-3.961 5.012-10.054 2.42-15.019-.014-.03-.029-.059-.045-.088z" fill="url(#SVGID_32_)"/><path d="m96.489 85.362 9.316-21.513c2.036-4.702 8.754-4.559 10.587.226l4.966 12.96c3.472 9.063 3.741 19.041.762 28.278z" fill="url(#SVGID_33_)"/><path d="m12.089 153.031-6.105-7.29c-.543-.649-.082-1.637.764-1.637h14.763c.846 0 1.307.988.764 1.637l-6.105 7.29c-1.064 1.27-3.017 1.27-4.081 0z" fill="url(#SVGID_34_)"/><path d="m58.424 113.309.666-2.584c1.705-6.619 7.674-11.245 14.51-11.245h24.715l-2.56 4.758c-3.007 5.587-8.839 9.072-15.184 9.072h-22.147z" fill="url(#SVGID_35_)"/></g></svg>