<svg id="Capa_1" enable-background="new 0 0 512 512" height="512" viewBox="0 0 512 512" width="512" xmlns="http://www.w3.org/2000/svg" xmlns:xlink="http://www.w3.org/1999/xlink"><radialGradient id="SVGID_1_" cx="411.954" cy="822.987" gradientTransform="matrix(.931 0 0 .112 -118.375 277.809)" gradientUnits="userSpaceOnUse" r="258.927"><stop offset="0" stop-color="#c6d0da"/><stop offset=".2432" stop-color="#e0e6eb"/><stop offset=".4962" stop-color="#f6f9f9"/><stop offset=".617" stop-color="#fafcfc"/><stop offset=".8982" stop-color="#fff"/></radialGradient><radialGradient id="SVGID_2_" cx="428.646" cy="242.317" fx="392.611" fy="250.691" gradientTransform="matrix(.918 -.396 .266 .616 -29.332 262.765)" gradientUnits="userSpaceOnUse" r="114.459"><stop offset="0" stop-color="#5e6b75"/><stop offset=".4221" stop-color="#818d98"/><stop offset=".7754" stop-color="#98a2af"/><stop offset="1" stop-color="#a0aab7"/></radialGradient><linearGradient id="lg1"><stop offset="0" stop-color="#909ba5"/><stop offset=".2689" stop-color="#8d98a2"/><stop offset=".4703" stop-color="#848f98"/><stop offset=".6498" stop-color="#747f88"/><stop offset=".8156" stop-color="#5d6972"/><stop offset=".9105" stop-color="#4d5961"/></linearGradient><radialGradient id="SVGID_3_" cx="454.794" cy="344.207" gradientTransform="matrix(0 -1 .911 0 141.396 799.001)" gradientUnits="userSpaceOnUse" r="86.751" xlink:href="#lg1"/><linearGradient id="lg2"><stop offset="0" stop-color="#dae4ea"/><stop offset=".4338" stop-color="#d7e1e8"/><stop offset=".7583" stop-color="#cdd7e0"/><stop offset=".9105" stop-color="#c6d0da"/></linearGradient><radialGradient id="SVGID_4_" cx="464.892" cy="311.405" gradientTransform="matrix(0 -1 .716 0 241.834 776.297)" gradientUnits="userSpaceOnUse" r="45.842" xlink:href="#lg2"/><radialGradient id="SVGID_5_" cx="350.847" cy="319.945" fx="332.699" fy="322.549" gradientTransform="matrix(.762 -.648 .647 .76 -123.343 304.156)" gradientUnits="userSpaceOnUse" r="75.641"><stop offset="0" stop-color="#4d5961"/><stop offset=".1324" stop-color="#556169"/><stop offset=".9175" stop-color="#808b95"/></radialGradient><radialGradient id="SVGID_6_" cx="288.796" cy="267.777" fx="271.832" fy="267.233" gradientTransform="matrix(1 -.01 .005 .523 -1.373 130.672)" gradientUnits="userSpaceOnUse" r="95.857"><stop offset=".1048" stop-color="#4d5961"/><stop offset=".3256" stop-color="#606b74"/><stop offset=".6648" stop-color="#77828c"/><stop offset=".8745" stop-color="#808b95"/></radialGradient><radialGradient id="SVGID_7_" cx="337.572" cy="286.091" fx="318.064" fy="288.89" gradientTransform="matrix(.762 -.648 .647 .76 -104.603 287.432)" gradientUnits="userSpaceOnUse" r="81.308"><stop offset="0" stop-color="#4d5961"/><stop offset=".0393" stop-color="#525e66"/><stop offset=".3515" stop-color="#737f88"/><stop offset=".5206" stop-color="#808b95"/></radialGradient><radialGradient id="SVGID_8_" cx="321.296" cy="342.495" fx="311.349" fy="343.922" gradientTransform="matrix(.762 -.648 .647 .76 -144.983 290.41)" gradientUnits="userSpaceOnUse" r="41.458"><stop offset="0" stop-color="#b9c1cb"/><stop offset=".098" stop-color="#acb5bf"/><stop offset=".4557" stop-color="#808b95"/><stop offset=".95" stop-color="#5e6b75"/></radialGradient><radialGradient id="SVGID_9_" cx="107.943" cy="261.191" fx="98.169" fy="287.101" gradientTransform="matrix(.762 -.648 .647 .76 -143.264 132.614)" gradientUnits="userSpaceOnUse" r="91.284"><stop offset="0"/><stop offset=".2546" stop-color="#2d3134"/><stop offset=".5405" stop-color="#5a6168"/><stop offset=".7561" stop-color="#758089"/><stop offset=".8745" stop-color="#808b95"/></radialGradient><radialGradient id="SVGID_10_" cx="-1927.573" cy="225.003" fx="-1942.972" fy="226.806" gradientTransform="matrix(-.787 -.617 -.616 .786 -1256.921 -1141.168)" gradientUnits="userSpaceOnUse" r="83.457"><stop offset=".0436" stop-color="#4d5961"/><stop offset=".0946" stop-color="#515d66"/><stop offset=".4397" stop-color="#6b7680"/><stop offset=".7495" stop-color="#7b868f"/><stop offset=".992" stop-color="#808b95"/></radialGradient><radialGradient id="SVGID_11_" cx="229.715" cy="131.482" fx="166.645" fy="170.584" gradientTransform="matrix(.995 .096 -.064 .668 9.531 21.627)" gradientUnits="userSpaceOnUse" r="229.589"><stop offset="0" stop-color="#b9c1cb"/><stop offset=".5161" stop-color="#a0aab7"/><stop offset="1" stop-color="#808b95"/></radialGradient><radialGradient id="SVGID_12_" cx="141.345" cy="213.609" fx="145.112" fy="271.819" gradientTransform="matrix(.995 .096 -.064 .668 14.414 57.4)" gradientUnits="userSpaceOnUse" r="180.472"><stop offset="0" stop-color="#dae7ef"/><stop offset=".1141" stop-color="#c6d0d9"/><stop offset=".2087" stop-color="#b9c1cb"/><stop offset=".2547" stop-color="#b3bcc6"/><stop offset=".4328" stop-color="#a0aab7"/><stop offset=".5534" stop-color="#aeb7c3"/><stop offset=".6807" stop-color="#b9c1cb"/><stop offset=".7588" stop-color="#b2bac4"/><stop offset=".8763" stop-color="#9da6b0"/><stop offset="1" stop-color="#808b95"/></radialGradient><radialGradient id="SVGID_13_" cx="153.507" cy="213" fx="149.325" fy="236.369" gradientTransform="matrix(.995 .096 -.121 1.255 26.497 -69.049)" gradientUnits="userSpaceOnUse" r="73.449"><stop offset="0" stop-color="#808b95"/><stop offset=".2251" stop-color="#8f99a5"/><stop offset=".4304" stop-color="#a0aab7"/><stop offset=".546" stop-color="#a6afbc"/><stop offset="1" stop-color="#b9c1cb"/></radialGradient><radialGradient id="SVGID_14_" cx="159.764" cy="257.96" fx="149.99" fy="283.87" gradientTransform="matrix(.762 -.648 .647 .76 -128.813 165.43)" gradientUnits="userSpaceOnUse" r="91.284"><stop offset="0" stop-color="#4d5961"/><stop offset=".3569" stop-color="#75808a"/><stop offset=".6909" stop-color="#949eab"/><stop offset=".8745" stop-color="#a0aab7"/></radialGradient><radialGradient id="SVGID_15_" cx="207.836" cy="359.648" fx="197.369" fy="366.925" gradientTransform="matrix(.762 -.648 .647 .76 -183.146 220.979)" gradientUnits="userSpaceOnUse" r="52.596"><stop offset="0" stop-color="#b9c1cb"/><stop offset=".8745" stop-color="#a0aab7"/></radialGradient><radialGradient id="SVGID_16_" cx="-1987.268" cy="217.432" fx="-2002.667" fy="219.235" gradientTransform="matrix(-.787 -.617 -.616 .786 -1248.865 -1179.627)" gradientUnits="userSpaceOnUse" r="83.457"><stop offset=".0436" stop-color="#c6d0da"/><stop offset=".3264" stop-color="#b5bfcb"/><stop offset=".7039" stop-color="#a6b0bc"/><stop offset="1" stop-color="#a0aab7"/></radialGradient><radialGradient id="SVGID_17_" cx="183.295" cy="244.891" fx="179.828" fy="244.471" gradientTransform="matrix(.787 -.617 .499 .636 -83.064 202.256)" gradientUnits="userSpaceOnUse" r="66.273"><stop offset="0" stop-color="#dae7ef"/><stop offset=".4994" stop-color="#c6d0da"/><stop offset=".6385" stop-color="#bec8d2"/><stop offset=".8571" stop-color="#a7b1be"/><stop offset=".916" stop-color="#a0aab7"/></radialGradient><radialGradient id="SVGID_18_" cx="329.882" cy="189.355" fx="315.464" fy="208.158" gradientTransform="matrix(.972 .236 -.29 1.194 64.198 -114.515)" gradientUnits="userSpaceOnUse" r="137.124"><stop offset="0" stop-color="#c6d0da"/><stop offset=".1747" stop-color="#bac4ce"/><stop offset=".487" stop-color="#9ba6b0"/><stop offset=".7201" stop-color="#808b95"/></radialGradient><radialGradient id="SVGID_19_" cx="281.653" cy="214.937" fx="239.359" fy="282.753" gradientTransform="matrix(.787 -.617 .508 .648 -49.146 249.521)" gradientUnits="userSpaceOnUse" r="144.027"><stop offset=".2128" stop-color="#dae7ef"/><stop offset=".4171" stop-color="#c6d0da"/><stop offset=".5569" stop-color="#aeb9c3"/><stop offset=".7836" stop-color="#8d98a2"/><stop offset=".9073" stop-color="#808b95"/></radialGradient><radialGradient id="SVGID_20_" cx="287.957" cy="351.592" fx="282.456" fy="352.381" gradientTransform="matrix(.762 -.648 .647 .76 -158.822 270.982)" gradientUnits="userSpaceOnUse" r="22.93"><stop offset="0" stop-color="#b9c1cb"/><stop offset=".8745" stop-color="#909ba5"/></radialGradient><radialGradient id="SVGID_21_" cx="115.986" cy="154.064" gradientTransform="matrix(-.474 -.88 .908 -.489 31.193 331.503)" gradientUnits="userSpaceOnUse" r="48.508"><stop offset=".1531" stop-color="#5e6b75"/><stop offset=".7568" stop-color="#909ba5"/><stop offset=".8246" stop-color="#919fac"/><stop offset=".9223" stop-color="#95acbf"/><stop offset="1" stop-color="#98b9d3"/></radialGradient><radialGradient id="SVGID_22_" cx="21.702" cy="180.565" gradientTransform="matrix(.94 .341 -.244 .673 45.423 51.582)" gradientUnits="userSpaceOnUse" r="98.304"><stop offset=".0492" stop-color="#dae4ea"/><stop offset=".1619" stop-color="#d7e1e8"/><stop offset=".9105" stop-color="#c6d0da"/></radialGradient><radialGradient id="SVGID_23_" cx="18.932" cy="160.484" fx="15.014" fy="154.944" gradientTransform="matrix(.933 -.359 .256 .665 -39.805 60.652)" gradientUnits="userSpaceOnUse" r="48.079"><stop offset=".1552" stop-color="#ecf9f9"/><stop offset="1" stop-color="#dae4ea"/></radialGradient><radialGradient id="SVGID_24_" cx="50.146" cy="124.734" fx="45.326" fy="117.918" gradientTransform="matrix(.933 -.359 .256 .665 -28.57 59.875)" gradientUnits="userSpaceOnUse" r="59.154"><stop offset="0" stop-color="#ecf9f9"/><stop offset="1" stop-color="#e7ecf1"/></radialGradient><radialGradient id="SVGID_25_" cx="35.372" cy="153.068" gradientTransform="matrix(1 0 0 .911 0 13.701)" gradientUnits="userSpaceOnUse" r="123.588"><stop offset=".0234" stop-color="#e2f4f9"/><stop offset=".0253" stop-color="#e1f3f8"/><stop offset=".1227" stop-color="#c5d3dc"/><stop offset=".2169" stop-color="#b1bdc8"/><stop offset=".3055" stop-color="#a4afbb"/><stop offset=".383" stop-color="#a0aab7"/></radialGradient><radialGradient id="SVGID_26_" cx="67.834" cy="120.886" gradientTransform="matrix(1 0 0 .911 0 10.82)" gradientUnits="userSpaceOnUse" r="92.008"><stop offset=".0299" stop-color="#e2f4f9"/><stop offset=".1048" stop-color="#d6e6ed"/><stop offset=".3084" stop-color="#b8c5cf"/><stop offset=".4784" stop-color="#a6b1bd"/><stop offset=".5929" stop-color="#a0aab7"/></radialGradient><radialGradient id="SVGID_27_" cx="107.477" cy="176.193" gradientTransform="matrix(1 0 0 .716 0 49.986)" gradientUnits="userSpaceOnUse" r="79.317" xlink:href="#lg2"/><radialGradient id="SVGID_28_" cx="78.639" cy="196.175" gradientTransform="matrix(.669 -.743 .676 .61 -106.697 135.033)" gradientUnits="userSpaceOnUse" r="65.768" xlink:href="#lg1"/><radialGradient id="SVGID_29_" cx="115.9" cy="185.159" gradientTransform="matrix(1 0 0 .911 0 16.573)" gradientUnits="userSpaceOnUse" r="81.896"><stop offset="0" stop-color="#a0aab7"/><stop offset=".3461" stop-color="#99a3b0"/><stop offset=".8568" stop-color="#86919c"/><stop offset="1" stop-color="#808b95"/></radialGradient><radialGradient id="SVGID_30_" cx="152.997" cy="146.364" gradientTransform="matrix(-.474 -.88 .908 -.489 92.749 352.619)" gradientUnits="userSpaceOnUse" r="45.621"><stop offset=".1531" stop-color="#808b95"/><stop offset=".6822" stop-color="#a0aab7"/><stop offset="1" stop-color="#c1d5e4"/></radialGradient><radialGradient id="SVGID_31_" cx="138.022" cy="161.022" gradientTransform="matrix(1 0 0 .911 0 14.413)" gradientUnits="userSpaceOnUse" r="32.579"><stop offset="0" stop-color="#909ba5"/><stop offset=".3032" stop-color="#8d98a2"/><stop offset=".5303" stop-color="#838f99"/><stop offset=".7321" stop-color="#73808a"/><stop offset=".9105" stop-color="#5e6b75"/></radialGradient><radialGradient id="SVGID_32_" cx="-430.514" cy="123.905" gradientTransform="matrix(.527 0 0 .799 235.012 80.936)" gradientUnits="userSpaceOnUse" r="44.043"><stop offset="0" stop-color="#c1d5e4"/><stop offset=".187" stop-color="#a4b2be"/><stop offset=".3335" stop-color="#909ba5"/><stop offset=".3947" stop-color="#848f99"/><stop offset=".5689" stop-color="#66717a"/><stop offset=".7176" stop-color="#545f68"/><stop offset=".8225" stop-color="#4d5961"/></radialGradient><g><path d="m260.784 400.261c138.743 0 251.216-13.78 251.216-30.778h-502.432c0 16.998 112.473 30.778 251.216 30.778z" fill="url(#SVGID_1_)"/><path d="m420.539 225.786-26.639 15.38 31.063 50.071 25.023-14.447z" fill="url(#SVGID_2_)"/><path d="m457.74 290.221-24.597 14.201-8.18-13.186 25.023-14.447zm31.018 53.724-7.754-13.431-21.323 12.311c8.41 5.759 19.7 6.534 29.077 1.12zm-23.263-40.293-24.172 13.956 8.18 13.186 23.746-13.71z" fill="url(#SVGID_3_)"/><path d="m465.495 303.652-24.172 13.956-8.18-13.186 24.597-14.201zm7.754 13.431-23.746 13.71 2.423 3.906c2.06 3.32 4.72 6.048 7.755 8.126l21.323-12.311z" fill="url(#SVGID_4_)"/><path d="m287.021 270.999-35.272 83.968h-23.426c-6.717 0-12.162 5.445-12.162 12.162v2.354h55.168l57.087-57.087z" fill="url(#SVGID_5_)"/><path d="m342.069 229.557c0-34.464-28.344-62.308-62.993-61.492-32.199.758-58.641 26.701-59.972 58.881-.727 17.58 5.928 33.611 17.12 45.246l-.008.008 40.194 40.194c14.362 14.362 37.647 14.362 52.008 0l-13.185-20.059c-2.919-4.44-1.947-10.419 2.298-13.616 14.902-11.224 24.538-29.067 24.538-49.162z" fill="url(#SVGID_6_)"/><path d="m353.559 270.999-35.272 83.968h-23.426c-6.717 0-12.162 5.445-12.162 12.162v2.354h55.168l57.088-57.087z" fill="url(#SVGID_7_)"/><path d="m329.036 354.967 32.092-76.398-7.569-7.57-35.272 83.968z" fill="url(#SVGID_8_)"/><path d="m147.161 259.74 13.546 96.208h-4.846c-6.263 0-11.34 5.077-11.34 11.34v2.195h47.959v-72.869z" fill="url(#SVGID_9_)"/><path d="m159.576 204.141c17.917-1.179 32.903 13.567 32.903 31.523v60.95h-9.406c-28.878 0-52.287-23.41-52.287-52.287v-9.406c-.001-16.346 12.712-29.722 28.79-30.78z" fill="url(#SVGID_10_)"/><path d="m419.801 213.131c7.026 41.689-25.107 79.69-67.383 79.69h-122.049l-68.737-30.128-36.359-120.255h74.879c29.417-20.002 64.168-30.698 99.74-30.698 59.36-.001 110.044 42.857 119.909 101.391z" fill="url(#SVGID_11_)"/><path d="m152.352 184.804 2.921-42.367h-30l-2.921 42.367c0 59.656 48.361 108.017 108.017 108.017h30c-59.656 0-108.017-48.361-108.017-108.017z" fill="url(#SVGID_12_)"/><path d="m155.34 218.653c0-8.807-.772-17.567-2.291-26.182-2.666-15.119-7.634-29.794-14.776-43.5l-3.405-6.534h-9.595l-2.921 42.367c0 15.056 3.081 29.393 8.646 42.414 6.204 1.165 12.527 1.758 18.89 1.758h5.452z" fill="url(#SVGID_13_)"/><path d="m194.742 259.74 13.546 96.208h-4.847c-6.263 0-11.34 5.077-11.34 11.34v2.195h47.959v-72.869z" fill="url(#SVGID_14_)"/><path d="m210.239 355.948h4.846l-12.666-89.961-7.677-6.246 13.546 96.208h-4.846c-6.263 0-11.34 5.077-11.34 11.34v2.195h6.797v-2.195c0-6.264 5.077-11.341 11.34-11.341z" fill="url(#SVGID_15_)"/><path d="m207.157 204.141c17.917-1.179 32.903 13.567 32.903 31.523v60.95h-9.406c-28.878 0-52.287-23.41-52.287-52.287v-9.406c-.001-16.346 12.713-29.722 28.79-30.78z" fill="url(#SVGID_16_)"/><path d="m188.562 244.327v-9.406c0-15.267 11.093-27.941 25.657-30.409-2.282-.39-4.644-.53-7.063-.371-16.078 1.058-28.791 14.434-28.791 30.779v9.406c0 28.877 23.41 52.287 52.287 52.287h9.406v-.02c-28.51-.423-51.496-23.654-51.496-52.266z" fill="url(#SVGID_17_)"/><path d="m408.606 229.557c0-34.464-28.344-62.308-62.993-61.492-32.199.758-58.641 26.701-59.972 58.881-.727 17.58 5.928 33.611 17.12 45.246l-.008.008 40.194 40.194c14.362 14.362 37.647 14.362 52.008 0l-13.185-20.059c-2.919-4.44-1.946-10.419 2.298-13.616 14.902-11.224 24.538-29.067 24.538-49.162z" fill="url(#SVGID_18_)"/><path d="m358.656 312.395-40.194-40.194.008-.008c-11.192-11.635-17.847-27.666-17.12-45.246 1.242-30.035 24.36-54.637 53.616-58.399-3.054-.39-6.177-.557-9.354-.482-32.199.758-58.641 26.701-59.972 58.881-.727 17.58 5.928 33.611 17.12 45.246l-.008.008 40.194 40.194c9.191 9.191 22.037 12.5 33.859 9.927-6.651-1.447-12.978-4.756-18.149-9.927z" fill="url(#SVGID_19_)"/><path d="m302.968 354.967h-8.107c-6.717 0-12.162 5.445-12.162 12.162v2.354h8.107v-2.354c0-6.717 5.445-12.162 12.162-12.162z" fill="url(#SVGID_20_)"/><path d="m81.749 146.492v-4.227c0-9.251 5.61-17.578 14.184-21.053 10.31-4.179 21.572 3.409 21.572 14.533 0 10.484-6.23 19.965-15.854 24.125l-8.403 3.633z" fill="url(#SVGID_21_)"/><path d="m102.481 179.794c-.144-.058-.289-.116-.433-.174.144.058.288.116.433.174z" fill="none"/><path d="m3.158 193.285 16.923 10.24c4.074 2.465 8.744 3.768 13.505 3.768h29.265c15.875 9.484 34.021 14.491 52.513 14.491h32.783l-27.331-10.322c0-8.358-.696-16.673-2.065-24.863h-118.659c-.412 2.47.553 5.165 3.066 6.686z" fill="url(#SVGID_22_)"/><path d="m4.575 181.442c-2.568.811-4.105 2.889-4.483 5.156l118.659 15.682c-.074-1.456-.149-16.562-.226-17.002-.728-4.128-1.628-14.558-2.697-27.956l-87.178 15.682c-5.005 3.374-11.992 4.031-24.075 8.438zm97.906-1.648c-.144-.058-.289-.116-.433-.174.144.058.288.116.433.174z" fill="url(#SVGID_23_)"/><path d="m121.96 138.708-63.758 6.748c-3.468 2.079-7.066 4.566-10.659 7.561l72.155 6.748z" fill="url(#SVGID_24_)"/><path d="m119.698 153.017h-72.155c-5.043 4.204-10.074 9.405-14.716 15.873-1.264 1.761-2.625 3.068-4.177 4.114h87.178c-.323-1.224-.66-2.444-1.014-3.659z" fill="url(#SVGID_25_)"/><path d="m125.985 132.001c-23.808.532-30.668-1.443-41.873 2.46-2.889 1.39-13.574 3.601-25.91 10.995h63.758z" fill="url(#SVGID_26_)"/><path d="m134.573 181.531c-12.773-4.242-24.38-11.406-33.897-20.924l-15.152-15.152c-3.723 2.249-7.269 4.777-10.606 7.561l27.494 31.846c5.116 5.926-.255 14.954-7.904 13.285-14.9-3.25-28.169-11.668-37.457-23.763l-1.061-1.381c-1.434 1.001-3.021 1.787-4.71 2.32l-19.374 6.118c-5.369 1.695-6.234 8.928-1.417 11.842l16.924 10.24c4.074 2.465 8.744 3.768 13.505 3.768h29.265c15.874 9.484 34.021 14.491 52.513 14.491h5.452v-10.322c0-8.807-.772-17.567-2.291-26.182z" fill="url(#SVGID_27_)"/><path d="m94.509 198.148c7.649 1.668 13.02-7.359 7.904-13.285l-27.494-31.846c-5.539 4.621-10.506 9.946-14.759 15.873-1.154 1.608-2.566 2.995-4.168 4.114l1.061 1.381c9.287 12.095 22.556 20.513 37.456 23.763z" fill="url(#SVGID_28_)"/><path d="m125.985 132.001c-4.951 0-9.866.832-14.541 2.461l-9.769 3.403c-5.663 1.973-11.072 4.523-16.151 7.591l15.152 15.152c9.517 9.517 21.124 16.682 33.897 20.924l11.283 3.747c-2.666-15.119-7.634-29.794-14.776-43.5z" fill="url(#SVGID_29_)"/><path d="m120.741 146.492v-4.227c0-9.251 5.61-17.578 14.184-21.053 10.31-4.179 21.572 3.409 21.572 14.533 0 10.484-6.23 19.965-15.854 24.125-4.874 2.107-10.557.447-13.53-3.952z" fill="url(#SVGID_30_)"/><path d="m122.709 149.715v-2.832c0-6.197 3.758-11.775 9.501-14.103 6.906-2.799 14.45 2.283 14.45 9.736 0 7.023-4.174 13.374-10.62 16.161-3.265 1.411-7.072.299-9.063-2.647z" fill="url(#SVGID_31_)"/><path d="m16.239 193.249h-5.056c-3.337 0-6.042-2.705-6.042-6.042 0-3.337 2.705-6.042 6.042-6.042h5.056c3.337 0 6.042 2.705 6.042 6.042 0 3.337-2.705 6.042-6.042 6.042z" fill="url(#SVGID_32_)"/></g></svg>