<svg id="Capa_1" enable-background="new 0 0 512 512" height="512" viewBox="0 0 512 512" width="512" xmlns="http://www.w3.org/2000/svg" xmlns:xlink="http://www.w3.org/1999/xlink"><radialGradient id="SVGID_1_" cx="379.673" cy="428.533" gradientTransform="matrix(-.99 .48 -.534 -.865 1012.008 616.848)" gradientUnits="userSpaceOnUse" r="59.152"><stop offset=".0101" stop-color="#e7a561"/><stop offset=".1583" stop-color="#e8a765"/><stop offset=".3142" stop-color="#e9ae72"/><stop offset=".4736" stop-color="#ecba87"/><stop offset=".6345" stop-color="#f1cba4"/><stop offset=".7418" stop-color="#f4d8bc"/></radialGradient><radialGradient id="SVGID_2_" cx="201.903" cy="438.51" gradientUnits="userSpaceOnUse" r="99.069"><stop offset=".1075" stop-color="#9d6b6b"/><stop offset=".1403" stop-color="#996868"/><stop offset=".3822" stop-color="#7d5555"/><stop offset=".5948" stop-color="#6c4949"/><stop offset=".7538" stop-color="#664545"/></radialGradient><radialGradient id="SVGID_3_" cx="269.937" cy="397.845" gradientTransform="matrix(.703 -.712 .849 .839 -257.538 256.306)" gradientUnits="userSpaceOnUse" r="53.803"><stop offset="0" stop-color="#785252"/><stop offset=".5465" stop-color="#815858"/><stop offset=".9602" stop-color="#8b5e5e"/></radialGradient><radialGradient id="SVGID_4_" cx="162.377" cy="330.389" gradientTransform="matrix(.933 .361 -.302 .78 110.652 14.233)" gradientUnits="userSpaceOnUse" r="158.103"><stop offset=".2245" stop-color="#785252"/><stop offset=".2973" stop-color="#7b5454"/><stop offset=".6431" stop-color="#875c5c"/><stop offset="1" stop-color="#8b5e5e"/></radialGradient><radialGradient id="SVGID_5_" cx="206.523" cy="199.837" gradientTransform="matrix(.894 .447 -.295 .59 80.765 -10.402)" gradientUnits="userSpaceOnUse" r="315.213"><stop offset="0" stop-color="#b78e8e"/><stop offset=".4414" stop-color="#9d6b6b"/><stop offset=".5685" stop-color="#956666"/><stop offset=".7641" stop-color="#805757"/><stop offset=".9433" stop-color="#664545"/></radialGradient><radialGradient id="SVGID_6_" cx="113.991" cy="322.853" gradientTransform="matrix(.989 .15 -.098 .647 32.927 96.806)" gradientUnits="userSpaceOnUse" r="255.734"><stop offset="0" stop-color="#ffd0be"/><stop offset=".0955" stop-color="#e6b9ad"/><stop offset=".2474" stop-color="#b78e8e"/><stop offset=".5038" stop-color="#9d6b6b"/><stop offset=".6746" stop-color="#8f6262"/><stop offset=".8848" stop-color="#785252"/></radialGradient><radialGradient id="SVGID_7_" cx="75.984" cy="260.727" gradientTransform="matrix(1 0 0 .889 0 28.841)" gradientUnits="userSpaceOnUse" r="138.325"><stop offset=".134" stop-color="#785252"/><stop offset=".6102" stop-color="#a37979"/><stop offset=".6847" stop-color="#aa8080"/><stop offset=".8576" stop-color="#af8585"/><stop offset="1" stop-color="#b78e8e"/></radialGradient><radialGradient id="SVGID_8_" cx="247.517" cy="438.51" gradientUnits="userSpaceOnUse" r="99.069"><stop offset="0" stop-color="#ffd0be"/><stop offset=".1028" stop-color="#d7a79c"/><stop offset=".2039" stop-color="#b88681"/><stop offset=".2879" stop-color="#a47271"/><stop offset=".3446" stop-color="#9d6b6b"/><stop offset=".4705" stop-color="#8f6161"/><stop offset=".6728" stop-color="#7e5656"/><stop offset=".8245" stop-color="#785252"/></radialGradient><radialGradient id="SVGID_9_" cx="287.217" cy="327.56" gradientTransform="matrix(.703 -.712 .595 .587 -109.411 339.53)" gradientUnits="userSpaceOnUse" r="195.99"><stop offset="0" stop-color="#aa8080"/><stop offset=".1699" stop-color="#a37575"/><stop offset=".3927" stop-color="#9d6b6b"/><stop offset=".591" stop-color="#946565"/><stop offset=".9116" stop-color="#7c5555"/><stop offset=".9602" stop-color="#785252"/></radialGradient><radialGradient id="SVGID_10_" cx="257.944" cy="316.889" gradientTransform="matrix(.703 -.712 .595 .587 -111.768 314.298)" gradientUnits="userSpaceOnUse" r="149.061"><stop offset="0" stop-color="#ffd0be"/><stop offset=".0962" stop-color="#ebbbad"/><stop offset=".3229" stop-color="#c19089"/><stop offset=".4996" stop-color="#a77573"/><stop offset=".6035" stop-color="#9d6b6b"/><stop offset=".73" stop-color="#976767"/><stop offset=".9061" stop-color="#855a5a"/><stop offset="1" stop-color="#785252"/></radialGradient><radialGradient id="SVGID_11_" cx="43.548" cy="61.789" gradientTransform="matrix(.887 -.462 .369 .71 -17.909 38.008)" gradientUnits="userSpaceOnUse" r="121.855"><stop offset="0" stop-color="#eaaa89"/><stop offset=".1598" stop-color="#cc927b"/><stop offset=".3802" stop-color="#a9766b"/><stop offset=".5607" stop-color="#936462"/><stop offset=".6774" stop-color="#8b5e5e"/></radialGradient><radialGradient id="SVGID_12_" cx="29.121" cy="110.496" gradientUnits="userSpaceOnUse" r="136.076"><stop offset=".0138" stop-color="#ffd0be"/><stop offset=".2586" stop-color="#eabaac"/><stop offset=".7657" stop-color="#b3827e"/><stop offset=".9552" stop-color="#9d6b6b"/></radialGradient><radialGradient id="SVGID_13_" cx="-8.297" cy="184.87" gradientUnits="userSpaceOnUse" r="75.793"><stop offset="0" stop-color="#ffc3ac"/><stop offset=".255" stop-color="#e9af9d"/><stop offset=".7834" stop-color="#b17d78"/><stop offset=".9552" stop-color="#9d6b6b"/></radialGradient><radialGradient id="SVGID_14_" cx="116.995" cy="194.851" gradientTransform="matrix(.887 -.462 .369 .71 -58.771 110.475)" gradientUnits="userSpaceOnUse" r="98.477"><stop offset=".5541" stop-color="#9d6b6b"/><stop offset=".7037" stop-color="#956666"/><stop offset=".9345" stop-color="#7f5757"/><stop offset="1" stop-color="#785252"/></radialGradient><radialGradient id="SVGID_15_" cx="100.263" cy="65.837" gradientTransform="matrix(.887 -.462 .369 .71 -13.005 65.354)" gradientUnits="userSpaceOnUse" r="121.855"><stop offset="0" stop-color="#ffc3ac"/><stop offset=".1711" stop-color="#dea596"/><stop offset=".3867" stop-color="#bb867f"/><stop offset=".5632" stop-color="#a57270"/><stop offset=".6774" stop-color="#9d6b6b"/></radialGradient><radialGradient id="SVGID_16_" cx="163.624" cy="98.85" gradientTransform="matrix(0 1 -.567 0 219.645 -64.775)" gradientUnits="userSpaceOnUse" r="69.613"><stop offset=".055" stop-color="#f4d8bc"/><stop offset=".227" stop-color="#f3d5b7"/><stop offset=".4406" stop-color="#f1cca7"/><stop offset=".6763" stop-color="#edbe8e"/><stop offset=".9261" stop-color="#e8ab6b"/><stop offset=".9899" stop-color="#e7a561"/></radialGradient><radialGradient id="SVGID_17_" cx="175.057" cy="283.84" gradientTransform="matrix(.703 -.712 .595 .587 -116.757 241.685)" gradientUnits="userSpaceOnUse" r="158.103"><stop offset=".0453" stop-color="#b78e8e"/><stop offset=".3923" stop-color="#a47575"/><stop offset=".6097" stop-color="#9d6b6b"/><stop offset=".7322" stop-color="#946565"/><stop offset=".9302" stop-color="#7c5555"/><stop offset=".9602" stop-color="#785252"/></radialGradient><radialGradient id="SVGID_18_" cx="144.977" cy="459.741" gradientTransform="matrix(.703 -.712 .595 .587 -230.313 292.871)" gradientUnits="userSpaceOnUse" r="34.5"><stop offset="0" stop-color="#e7c6bc"/><stop offset=".0544" stop-color="#debbb3"/><stop offset=".2998" stop-color="#bb908c"/><stop offset=".4911" stop-color="#a57574"/><stop offset=".6035" stop-color="#9d6b6b"/><stop offset=".73" stop-color="#976767"/><stop offset=".9061" stop-color="#855a5a"/><stop offset="1" stop-color="#785252"/></radialGradient><radialGradient id="SVGID_19_" cx="160.388" cy="294.756" gradientTransform="matrix(.703 -.712 .595 .587 -127.611 235.752)" gradientUnits="userSpaceOnUse" r="189.051"><stop offset="0" stop-color="#ffc3ac"/><stop offset=".0608" stop-color="#edb3a0"/><stop offset=".2274" stop-color="#c28c83"/><stop offset=".3573" stop-color="#a77472"/><stop offset=".4337" stop-color="#9d6b6b"/><stop offset=".452" stop-color="#996868"/><stop offset=".5781" stop-color="#815858"/><stop offset=".6559" stop-color="#785252"/><stop offset=".8642" stop-color="#9a6969"/><stop offset=".8789" stop-color="#9d6b6b"/><stop offset=".8989" stop-color="#a57372"/><stop offset=".9306" stop-color="#bb8a84"/><stop offset=".9695" stop-color="#deaea2"/><stop offset="1" stop-color="#ffd0be"/></radialGradient><radialGradient id="SVGID_20_" cx="453.432" cy="1359.113" gradientTransform="matrix(.931 0 0 .112 -161.706 308.177)" gradientUnits="userSpaceOnUse" r="263.858"><stop offset="0" stop-color="#c3a2a2"/><stop offset=".1833" stop-color="#c9abab"/><stop offset=".4787" stop-color="#d8c3c3"/><stop offset=".6461" stop-color="#e2d3d3"/><stop offset=".835" stop-color="#f7f3f3"/><stop offset=".8982" stop-color="#fff"/></radialGradient><radialGradient id="SVGID_21_" cx="11.499" cy="349.136" gradientTransform="matrix(.762 -.571 .647 .669 -223.177 -13.331)" gradientUnits="userSpaceOnUse" r="21.934"><stop offset="0" stop-color="#d0cee7"/><stop offset=".3371" stop-color="#a19dae"/><stop offset=".6383" stop-color="#756e78"/><stop offset="1" stop-color="#665e66"/></radialGradient><g><path d="m476.945 426.041h-109.048v33.699h75.349c18.611.001 33.699-15.087 33.699-33.699z" fill="url(#SVGID_1_)"/><path d="m313.959 459.741h-115.467c5.601-16.931 21.426-28.364 39.259-28.364h76.209v28.364z" fill="url(#SVGID_2_)"/><circle cx="313.959" cy="369.903" fill="url(#SVGID_3_)" r="89.837"/><path d="m152.398 267.28c-25.328 1.754-45.722 22.468-47.115 47.819-1.311 23.858 13.846 44.383 35.137 51.242 6.368 2.052 10.697 7.958 10.697 14.648 0 8.35-1.095 16.664-3.256 24.729l-9.513 35.502h-6.025c-7.618 0-14.501 4.548-17.489 11.555l-2.97 6.965h21.521 37.248l34.176-127.546c1.314-4.515 2.02-9.289 2.02-14.228.001-29.259-24.731-52.743-54.431-50.686z" fill="url(#SVGID_4_)"/><path d="m158.919 172.871 9.97 21.44c2.122 4.563 6.313 7.822 11.257 8.756l158.377 29.905c70.841 13.376 122.139 75.267 122.139 147.36 0 41.706-33.809 75.515-75.515 75.515h-10.726c-31.032 0-60.45-13.829-80.25-37.724-2.309-2.786-5.156-5.079-8.37-6.741l-153.377-87.109c-24.34-12.582-38.513-35.453-38.513-62.853l-8.572-35.914z" fill="url(#SVGID_5_)"/><path d="m326.752 418.124c-2.309-2.786-5.155-5.079-8.37-6.741l-160.836-83.14c-24.34-12.582-39.626-37.692-39.626-65.091v-60.952l-32.582 23.308v37.645c0 27.399 15.286 52.509 39.626 65.091l160.836 83.14c3.215 1.662 6.061 3.954 8.37 6.741 19.8 23.895 49.218 37.724 80.25 37.724h10.726c3.418 0 6.783-.227 10.081-.667-26.602-3.025-51.199-16.21-68.475-37.058z" fill="url(#SVGID_6_)"/><path d="m158.919 172.871-73.58 52.636v31.215c7.392-1.317 14.536-4.123 20.967-8.361l41.322-27.227c11.067-7.292 17.797-18.943 19.144-31.377z" fill="url(#SVGID_7_)"/><path d="m359.574 459.741h-115.468c5.601-16.931 21.426-28.364 39.259-28.364h76.209z" fill="url(#SVGID_8_)"/><circle cx="359.574" cy="369.903" fill="url(#SVGID_9_)" r="89.837"/><path d="m286.383 369.903c0-46.809 35.8-85.257 81.514-89.456-2.741-.252-5.517-.381-8.323-.381-49.616 0-89.837 40.222-89.837 89.837 0 49.616 40.222 89.837 89.837 89.837 2.806 0 5.583-.129 8.323-.381-45.714-4.199-81.514-42.646-81.514-89.456z" fill="url(#SVGID_10_)"/><path d="m65.958 149.131h38.573v-50.57c0-30.497-14.274-59.237-38.573-77.666z" fill="url(#SVGID_11_)"/><path d="m113.205 141.225h-45.882c-16.958 0-32.611 9.102-41 23.84l-21.236 37.311c-1.708 3.001-2.71 6.311-2.979 9.685l85.681 11.693z" fill="url(#SVGID_12_)"/><path d="m2.108 212.061c-.227 2.852.07 5.75.908 8.547l2.049 6.837c2.918 9.734 10.374 17.448 20.003 20.695 5.909 1.993 12.031 2.96 18.12 2.933v.001h30.603l13.997-39.013z" fill="url(#SVGID_13_)"/><path d="m35.062 202.376 21.237-37.312c8.388-14.738 24.042-23.84 41-23.84h45.881c5.264 0 10.036 3.098 12.178 7.906l5.321 11.942c8.589 19.275 1.962 41.935-15.659 53.546l-41.322 27.227c-14.384 9.478-32.332 11.8-48.655 6.295-9.629-3.247-17.085-10.962-20.003-20.695l-2.05-6.837c-1.829-6.105-1.081-12.693 2.072-18.232z" fill="url(#SVGID_14_)"/><path d="m155.358 149.131h-38.573v-50.57c0-30.497 14.274-59.237 38.573-77.666z" fill="url(#SVGID_15_)"/><path d="m132.424 138.366v-71.293c0-18.132 8.486-35.22 22.934-46.177v94.536c0 12.666-10.268 22.934-22.934 22.934z" fill="url(#SVGID_16_)"/><path d="m198.012 267.28c-25.328 1.754-45.722 22.468-47.115 47.819-1.311 23.858 13.846 44.383 35.137 51.242 6.368 2.052 10.698 7.958 10.698 14.648 0 8.35-1.095 16.664-3.256 24.729l-9.513 35.502h-6.025c-7.618 0-14.501 4.548-17.489 11.555l-2.97 6.965h21.521 37.248l34.176-127.546c1.314-4.515 2.02-9.289 2.02-14.228 0-29.259-24.732-52.743-54.432-50.686z" fill="url(#SVGID_17_)"/><path d="m162.485 459.741h-13.033 37.248z" fill="url(#SVGID_18_)"/><path d="m190.971 441.22h6.025l9.513-35.502c2.161-8.065 3.256-16.379 3.256-24.729 0-6.69-4.329-12.597-10.697-14.648-21.291-6.859-36.448-27.384-35.137-51.242 1.339-24.372 20.241-44.458 44.205-47.531-3.287-.42-6.671-.526-10.123-.287-25.328 1.754-45.722 22.468-47.115 47.819-1.311 23.858 13.846 44.383 35.137 51.242 6.368 2.052 10.698 7.958 10.698 14.648 0 8.35-1.095 16.664-3.256 24.729l-9.513 35.502h-6.025c-7.618 0-14.501 4.548-17.489 11.555l-2.97 6.965h13.033l2.97-6.965c2.987-7.008 9.87-11.556 17.488-11.556z" fill="url(#SVGID_19_)"/><path d="m256 491.105c141.385 0 256-14.042 256-31.364h-512c0 17.321 114.615 31.364 256 31.364z" fill="url(#SVGID_20_)"/><path d="m27.555 220.794c0 3.312-6.525 8.667-10.674 8.667s-10.674-5.355-10.674-8.667 4.779-5.998 10.674-5.998 10.674 2.686 10.674 5.998z" fill="url(#SVGID_21_)"/></g></svg>