<svg id="Capa_1" enable-background="new 0 0 512 512" height="512" viewBox="0 0 512 512" width="512" xmlns="http://www.w3.org/2000/svg" xmlns:xlink="http://www.w3.org/1999/xlink"><radialGradient id="SVGID_1_" cx="18.635" cy="181.947" gradientTransform="matrix(.858 .514 -.375 .627 70.928 58.26)" gradientUnits="userSpaceOnUse" r="40.762"><stop offset="0" stop-color="#f1cb86"/><stop offset=".8168" stop-color="#ecbe6b"/></radialGradient><linearGradient id="SVGID_2_" gradientUnits="userSpaceOnUse" x1="304.019" x2="304.019" y1="265.129" y2="301.88"><stop offset=".1359" stop-color="#df8621"/><stop offset=".4056" stop-color="#e49824"/></linearGradient><radialGradient id="SVGID_3_" cx="266.297" cy="182.691" gradientTransform="matrix(.041 .999 -1.433 .059 517.109 -94.174)" gradientUnits="userSpaceOnUse" r="79.793"><stop offset=".0055" stop-color="#e49824"/><stop offset=".7359" stop-color="#df8621"/><stop offset=".7375" stop-color="#df8621"/><stop offset=".874" stop-color="#e39323"/><stop offset=".9976" stop-color="#e49824"/></radialGradient><linearGradient id="SVGID_4_" gradientUnits="userSpaceOnUse" x1="130.393" x2="134.077" y1="315.017" y2="262.045"><stop offset=".7575" stop-color="#e49824"/><stop offset=".8679" stop-color="#e18e22"/><stop offset="1" stop-color="#df8621"/></linearGradient><radialGradient id="SVGID_5_" cx="78.189" cy="335.61" gradientTransform="matrix(.703 -.712 .549 .542 -160.873 209.408)" gradientUnits="userSpaceOnUse" r="32.099"><stop offset="0" stop-color="#a298a5"/><stop offset=".4343" stop-color="#79727c"/><stop offset=".7905" stop-color="#5e5861"/><stop offset="1" stop-color="#544f57"/></radialGradient><radialGradient id="SVGID_6_" cx="149.47" cy="190.301" gradientTransform="matrix(.482 .876 -.676 .371 206.078 -11.36)" gradientUnits="userSpaceOnUse" r="65.6"><stop offset="0" stop-color="#df8621"/><stop offset=".6694" stop-color="#df8621"/><stop offset=".6861" stop-color="#df8821"/><stop offset=".8442" stop-color="#e39423"/><stop offset="1" stop-color="#e49824"/></radialGradient><linearGradient id="SVGID_7_" gradientUnits="userSpaceOnUse" x1="105.85" x2="109.584" y1="323.194" y2="376.872"><stop offset="0" stop-color="#e49824"/><stop offset=".0106" stop-color="#e49824"/><stop offset="1" stop-color="#e49824"/></linearGradient><radialGradient id="SVGID_8_" cx="49.025" cy="150.429" gradientTransform="matrix(1 0 0 .759 0 36.335)" gradientUnits="userSpaceOnUse" r="33.021"><stop offset=".2003" stop-color="#fffbe4"/><stop offset=".4402" stop-color="#f9edcf"/><stop offset=".6064" stop-color="#f6e7c6"/><stop offset=".7987" stop-color="#f5e1b8"/><stop offset="1" stop-color="#f4d8a5"/></radialGradient><linearGradient id="SVGID_9_" gradientUnits="userSpaceOnUse" x1="332.983" x2="513.679" y1="249.602" y2="249.602"><stop offset=".1662" stop-color="#e49824"/><stop offset=".2576" stop-color="#e6a235"/><stop offset=".3758" stop-color="#e8ab43"/><stop offset=".5235" stop-color="#eab04b"/><stop offset=".79" stop-color="#eab14d"/></linearGradient><radialGradient id="SVGID_10_" cx="239.063" cy="141.647" gradientTransform="matrix(1 0 0 .757 0 34.41)" gradientUnits="userSpaceOnUse" r="152.664"><stop offset="0" stop-color="#f1cb86"/><stop offset=".1805" stop-color="#efc67c"/><stop offset=".3814" stop-color="#ecbe6b"/><stop offset=".5134" stop-color="#ebbb66"/><stop offset=".6772" stop-color="#eab356"/><stop offset=".8572" stop-color="#e7a63d"/><stop offset="1" stop-color="#e49824"/></radialGradient><radialGradient id="SVGID_11_" cx="127.833" cy="236.106" gradientTransform="matrix(.707 .707 -.889 .889 247.256 -64.1)" gradientUnits="userSpaceOnUse" r="55.128"><stop offset="0" stop-color="#fff9c1"/><stop offset=".0329" stop-color="#fef6bc"/><stop offset=".5893" stop-color="#ecbe6b"/><stop offset=".6768" stop-color="#e9b254"/><stop offset=".7991" stop-color="#e6a43a"/><stop offset=".9089" stop-color="#e59b2a"/><stop offset=".9945" stop-color="#e49824"/></radialGradient><radialGradient id="SVGID_12_" cx="153.672" cy="165.518" gradientTransform="matrix(.775 -.632 .411 .503 -33.386 179.383)" gradientUnits="userSpaceOnUse" r="82.213"><stop offset="0" stop-color="#ecbe6b"/><stop offset=".2086" stop-color="#e9b14c"/><stop offset=".386" stop-color="#e7a52e"/><stop offset=".5294" stop-color="#e49824"/></radialGradient><radialGradient id="SVGID_13_" cx="101.074" cy="183.387" gradientTransform="matrix(.981 -.193 .128 .649 -21.528 83.928)" gradientUnits="userSpaceOnUse" r="59.646"><stop offset=".5787" stop-color="#ecbe6b"/><stop offset=".6748" stop-color="#ecbc66"/><stop offset=".7916" stop-color="#eab657"/><stop offset=".9187" stop-color="#e8ac3f"/><stop offset=".9879" stop-color="#e7a52e"/></radialGradient><linearGradient id="lg1"><stop offset="0" stop-color="#8b818e"/><stop offset=".3136" stop-color="#79707b"/><stop offset=".948" stop-color="#494449"/><stop offset="1" stop-color="#454045"/></linearGradient><radialGradient id="SVGID_14_" cx="125.724" cy="167.193" gradientTransform="matrix(.762 -.648 .685 .804 -84.495 114.199)" gradientUnits="userSpaceOnUse" r="31.208" xlink:href="#lg1"/><radialGradient id="SVGID_15_" cx="122.52" cy="168.925" gradientTransform="matrix(.762 -.648 .685 .804 -86.444 112.461)" gradientUnits="userSpaceOnUse" r="21.192"><stop offset="0" stop-color="#454045"/><stop offset=".052" stop-color="#494449"/><stop offset=".6864" stop-color="#79707b"/><stop offset="1" stop-color="#8b818e"/></radialGradient><radialGradient id="SVGID_16_" cx="82.983" cy="177.986" gradientTransform="matrix(.762 -.648 .561 .659 -80.093 114.434)" gradientUnits="userSpaceOnUse" r="58.418" xlink:href="#lg1"/><linearGradient id="lg2"><stop offset="0" stop-color="#e49824"/><stop offset=".0128" stop-color="#e59b2a"/><stop offset=".0686" stop-color="#e8a73d"/><stop offset=".1249" stop-color="#e9af49"/><stop offset=".1823" stop-color="#eab14d"/><stop offset="1" stop-color="#e49824"/></linearGradient><linearGradient id="SVGID_17_" gradientUnits="userSpaceOnUse" x1="345.139" x2="350.523" xlink:href="#lg2" y1="268.008" y2="345.416"/><radialGradient id="SVGID_18_" cx="316.464" cy="226.89" gradientTransform="matrix(-.836 -.548 .786 -1.199 402.697 672.527)" gradientUnits="userSpaceOnUse" r="59.801"><stop offset="0" stop-color="#f1cb86"/><stop offset=".3445" stop-color="#ecbe6b"/><stop offset=".4957" stop-color="#ecbc66"/><stop offset=".6876" stop-color="#eab556"/><stop offset=".9005" stop-color="#e8ab3c"/><stop offset=".9955" stop-color="#e7a52e"/></radialGradient><radialGradient id="SVGID_19_" cx="308.949" cy="204.359" gradientTransform="matrix(-.823 -.569 .846 -1.223 390.25 630.018)" gradientUnits="userSpaceOnUse" r="58.819"><stop offset=".0039" stop-color="#fff9c1"/><stop offset=".3854" stop-color="#ecbe6b"/><stop offset=".6341" stop-color="#ebb75c"/><stop offset=".9463" stop-color="#eab14d"/></radialGradient><linearGradient id="SVGID_20_" gradientUnits="userSpaceOnUse" x1="172.89" x2="156.815" y1="315.459" y2="258.569"><stop offset=".5448" stop-color="#eab14d"/><stop offset=".5963" stop-color="#e9ab43"/><stop offset=".7165" stop-color="#e6a032"/><stop offset=".8459" stop-color="#e49a27"/><stop offset="1" stop-color="#e49824"/></linearGradient><linearGradient id="SVGID_21_" gradientUnits="userSpaceOnUse" x1="147.176" x2="175.192" y1="343.221" y2="272.543"><stop offset=".2382" stop-color="#ecbe6b"/><stop offset=".5361" stop-color="#ebb556"/><stop offset=".6529" stop-color="#eab14d"/><stop offset=".9012" stop-color="#e7a52e"/></linearGradient><radialGradient id="SVGID_22_" cx="117.915" cy="335.61" gradientTransform="matrix(.703 -.712 .549 .542 -149.061 237.674)" gradientUnits="userSpaceOnUse" r="32.099"><stop offset="0" stop-color="#c6c1c8"/><stop offset=".1466" stop-color="#b4aeb6"/><stop offset=".528" stop-color="#8a838b"/><stop offset=".8253" stop-color="#706870"/><stop offset="1" stop-color="#665e66"/></radialGradient><radialGradient id="SVGID_23_" cx="162.164" cy="205.887" gradientTransform="matrix(.703 -.712 .549 .542 -64.737 209.718)" gradientUnits="userSpaceOnUse" r="64.326"><stop offset="0" stop-color="#f4d8a5"/><stop offset=".0799" stop-color="#f1ce90"/><stop offset=".2012" stop-color="#edc275"/><stop offset=".2727" stop-color="#ecbe6b"/><stop offset=".5119" stop-color="#ebba62"/><stop offset=".8597" stop-color="#eab14d"/></radialGradient><radialGradient id="SVGID_24_" cx="139.549" cy="212.931" gradientTransform="matrix(.649 -.761 .616 .526 -82.125 207.172)" gradientUnits="userSpaceOnUse" r="84.006"><stop offset=".1103" stop-color="#fff9d0"/><stop offset=".2653" stop-color="#fae9b6"/><stop offset=".4994" stop-color="#f3d393"/><stop offset=".6259" stop-color="#f1cb86"/><stop offset=".9124" stop-color="#eab14d"/></radialGradient><linearGradient id="SVGID_25_" gradientUnits="userSpaceOnUse" x1="145.576" x2="149.31" xlink:href="#lg2" y1="323.194" y2="376.872"/><radialGradient id="SVGID_26_" cx="258.932" cy="1570.205" gradientTransform="matrix(.931 0 0 .112 11.619 173.69)" gradientUnits="userSpaceOnUse" r="263.858"><stop offset="0" stop-color="#f6e7c6"/><stop offset=".0882" stop-color="#f7e9cc"/><stop offset=".4962" stop-color="#fbf1e2"/><stop offset=".8982" stop-color="#fff"/></radialGradient><radialGradient id="SVGID_27_" cx="19.819" cy="391.363" gradientTransform="matrix(.762 -.571 .647 .669 -248.516 -75.269)" gradientUnits="userSpaceOnUse" r="17.241"><stop offset="0" stop-color="#d0cee7"/><stop offset=".3128" stop-color="#a19dae"/><stop offset=".5922" stop-color="#756e78"/><stop offset="1" stop-color="#665e66"/></radialGradient><g><path d="m14.622 180.404v4.586c0 4.99 4.045 9.035 9.035 9.035h11.082c0 2.777 2.252 5.029 5.029 5.029h22.48l16.728-24.993z" fill="url(#SVGID_1_)"/><path d="m339.76 305.971-44.617-58.959-26.865 34.363 52.63 30.386-5.995 22.374c-1.082 4.038-5.144 6.515-9.229 5.628l-6.234-1.353c-4.116-.894-8.263 1.372-9.734 5.319l-1.904 5.108h40.461z" fill="url(#SVGID_2_)"/><path d="m330.155 199.748c0-17.376-14.324-31.406-31.808-30.926-16.852.462-30.069 14.712-30.069 31.57v80.983h5.028c21.305 0 38.577-17.271 38.577-38.577v-8.684c0-3.517 1.776-6.773 4.686-8.747 8.198-5.566 13.586-14.963 13.586-25.619z" fill="url(#SVGID_3_)"/><path d="m113.663 344.16-10.241-6.777 26.473-76.219 28.514 16.462-34.501 59.757z" fill="url(#SVGID_4_)"/><path d="m117.296 348.836h-46.614l4.758-5.168c3.687-4.005 8.882-6.284 14.326-6.284l24.501 2.455z" fill="url(#SVGID_5_)"/><path d="m158.409 277.626c-20.8 0-37.662-16.862-37.662-37.662v-35.811c0-10.4 8.431-18.831 18.831-18.831 10.4 0 18.831 8.431 18.831 18.831z" fill="url(#SVGID_6_)"/><path d="m89.766 337.383 27.53 11.453 6.612-11.453z" fill="url(#SVGID_7_)"/><path d="m114.497 143.314h-22.48c-21.033 0-41.055 9.02-54.991 24.774-3.02 3.414-6.796 6.073-11.028 7.766l-11.376 4.551h60.108z" fill="url(#SVGID_8_)"/><path d="m371.793 201.743 62.038 23.964c33.237 12.839 55.154 44.8 55.154 80.43v26.908c0 8.721 7.07 15.79 15.79 15.79v-48.495c0-38.215-20.73-73.423-54.147-91.963l-104.556-58.009z" fill="url(#SVGID_9_)"/><path d="m132.306 149.465 14.876 13.016c9.285 8.124 22.512 9.946 33.648 4.636l49.78-23.741c34.226-16.323 74.186-15.335 107.563 2.66l5.424 2.924c21.644 11.669 35.138 34.275 35.138 58.864 0 14.639-11.868 26.507-26.507 26.507h-172.155c-18.253 0-31.009-11.247-44.746-23.266l-36.644-23.175.001-.001z" fill="url(#SVGID_10_)"/><path d="m111.776 172.927c-6.225 7.115-13.091 14.962-13.091 14.962l-.001.001 31.768 27.797c13.737 12.02 31.369 18.645 49.622 18.645h30.192c-18.253 0-35.885-6.625-49.622-18.645z" fill="url(#SVGID_11_)"/><path d="m146.249 171.32c-1.3-9.219-6.866-16.908-14.532-21.183-1.136 1.298-33.033 37.752-33.033 37.752l-.001.001 16.391 14.342h4.316c16.487 0 29.161-14.586 26.859-30.912z" fill="url(#SVGID_12_)"/><path d="m59.506 168.088c-3.02 3.414-6.796 6.073-11.028 7.766l-11.376 4.551v4.586c0 4.99 4.045 9.035 9.035 9.035h11.082c0 2.777 2.252 5.029 5.029 5.029h53.964c16.487 0 29.161-14.586 26.859-30.912-2.007-14.24-14.193-24.828-28.574-24.828-21.032-.001-41.055 9.02-54.991 24.773z" fill="url(#SVGID_13_)"/><path d="m127.268 185.011-2.586-1.862c-2.923-2.105-4.655-5.487-4.655-9.089 0-3.602 1.732-6.984 4.655-9.089l2.586-1.862c3.052-2.198 7.326-1.362 9.325 1.824 3.501 5.581 3.501 12.673 0 18.253-1.999 3.187-6.273 4.023-9.325 1.825z" fill="url(#SVGID_14_)"/><path d="m127.212 181.497-1.756-1.264c-1.985-1.429-3.161-3.726-3.161-6.172 0-2.446 1.176-4.742 3.161-6.172l1.756-1.264c2.073-1.493 4.975-.925 6.333 1.239 2.378 3.79 2.378 8.605 0 12.395-1.358 2.162-4.261 2.73-6.333 1.238z" fill="url(#SVGID_15_)"/><path d="m67.864 170.387 3.616-3.616c3.373-3.373 7.948-5.268 12.719-5.268h15.349v3.232c0 5.15-4.175 9.325-9.325 9.325l-3.469 3.469c-2.57 2.57-6.32 3.566-9.826 2.61l-6.978-1.902c-3.479-.949-4.635-5.301-2.086-7.85z" fill="url(#SVGID_16_)"/><path d="m382.665 305.971-44.617-58.959-26.865 34.363 52.63 30.386-5.995 22.374c-1.082 4.038-5.144 6.515-9.229 5.628l-6.234-1.353c-4.116-.894-8.263 1.372-9.734 5.319l-1.904 5.108h40.461z" fill="url(#SVGID_17_)"/><path d="m373.06 199.748c0-17.376-14.324-31.406-31.808-30.926-16.852.462-30.069 14.712-30.069 31.57v80.983h5.028c21.305 0 38.577-17.271 38.577-38.577v-8.684c0-3.517 1.776-6.773 4.686-8.747 8.198-5.566 13.586-14.963 13.586-25.619z" fill="url(#SVGID_18_)"/><path d="m320.658 200.392c0-15.55 11.247-28.882 26.218-31.219-1.827-.282-3.707-.404-5.624-.351-16.851.462-30.069 14.712-30.069 31.57v80.983h5.028c1.504 0 2.988-.086 4.447-.254z" fill="url(#SVGID_19_)"/><path d="m153.389 344.16-10.24-6.777 26.473-76.219 28.513 16.462-34.5 59.757z" fill="url(#SVGID_20_)"/><path d="m152.624 337.383 24.89-71.663-7.892-4.556-26.473 76.219 10.24 6.777 4.739-3.134z" fill="url(#SVGID_21_)"/><path d="m157.023 348.836h-46.614l4.758-5.168c3.687-4.005 8.882-6.284 14.326-6.284l24.501 2.455z" fill="url(#SVGID_22_)"/><path d="m198.135 277.626c-20.8 0-37.662-16.862-37.662-37.662v-35.811c0-10.4 8.431-18.831 18.831-18.831 10.4 0 18.831 8.431 18.831 18.831z" fill="url(#SVGID_23_)"/><path d="m169.949 239.964v-35.811c0-8.764 5.987-16.129 14.093-18.23-1.514-.392-3.101-.601-4.738-.601-10.4 0-18.831 8.431-18.831 18.831v35.811c0 20.8 16.862 37.662 37.662 37.662v-1.202c-16.213-4.202-28.186-18.932-28.186-36.46z" fill="url(#SVGID_24_)"/><path d="m129.492 337.383 27.531 11.453 6.612-11.453z" fill="url(#SVGID_25_)"/><path d="m256 380.2c141.385 0 256-14.042 256-31.364h-512c0 17.322 114.615 31.364 256 31.364z" fill="url(#SVGID_26_)"/><path d="m33.447 182.076c0 2.322-4.574 6.867-7.482 6.867s-7.482-4.545-7.482-6.867 3.35-4.204 7.482-4.204 7.482 1.882 7.482 4.204z" fill="url(#SVGID_27_)"/></g></svg>