<svg id="Capa_1" enable-background="new 0 0 512 512" height="512" viewBox="0 0 512 512" width="512" xmlns="http://www.w3.org/2000/svg" xmlns:xlink="http://www.w3.org/1999/xlink"><radialGradient id="SVGID_1_" cx=".81" cy="152.379" gradientTransform="matrix(1 0 0 .837 0 24.851)" gradientUnits="userSpaceOnUse" r="60.064"><stop offset="0" stop-color="#ffe2cb"/><stop offset=".6476" stop-color="#f6d9be"/><stop offset=".7364" stop-color="#f4d8bc"/></radialGradient><radialGradient id="SVGID_2_" cx="15.295" cy="118.958" gradientTransform="matrix(1 0 0 .781 0 26.084)" gradientUnits="userSpaceOnUse" r="55.799"><stop offset="0" stop-color="#fffbe4"/><stop offset=".2938" stop-color="#fff1dd"/><stop offset=".4363" stop-color="#ffead8"/><stop offset=".5949" stop-color="#fee8d5"/><stop offset=".7302" stop-color="#fbe2ca"/><stop offset=".8569" stop-color="#f6d8b9"/><stop offset=".9777" stop-color="#f0caa0"/><stop offset=".9899" stop-color="#efc89d"/></radialGradient><radialGradient id="SVGID_3_" cx="63.431" cy="62.436" gradientTransform="matrix(-.944 .33 -.208 -.595 136.304 78.671)" gradientUnits="userSpaceOnUse" r="58.499"><stop offset="0" stop-color="#fff9c1"/><stop offset=".4629" stop-color="#e7a561"/><stop offset=".5729" stop-color="#e2944c"/><stop offset=".7984" stop-color="#d56718"/><stop offset=".801" stop-color="#d56617"/></radialGradient><linearGradient id="SVGID_4_" gradientUnits="userSpaceOnUse" x1="346.418" x2="330.077" y1="357.314" y2="316.88"><stop offset=".3323" stop-color="#e49542"/><stop offset=".7424" stop-color="#e07f27"/><stop offset="1" stop-color="#df751c"/></linearGradient><linearGradient id="lg1"><stop offset=".278" stop-color="#d56617"/><stop offset=".6971" stop-color="#e49542"/></linearGradient><radialGradient id="SVGID_5_" cx="334.098" cy="265.193" gradientTransform="matrix(.908 .419 -.323 .7 116.231 -60.333)" gradientUnits="userSpaceOnUse" r="100.123" xlink:href="#lg1"/><linearGradient id="lg2"><stop offset="0" stop-color="#e7a561"/><stop offset=".458" stop-color="#e59d51"/><stop offset="1" stop-color="#e49542"/></linearGradient><radialGradient id="SVGID_6_" cx="322.584" cy="406.709" gradientUnits="userSpaceOnUse" r="27.223" xlink:href="#lg2"/><linearGradient id="SVGID_7_" gradientTransform="matrix(1 0 0 1.039 0 -9.814)" gradientUnits="userSpaceOnUse" x1="190.449" x2="183.934" y1="328.357" y2="295.795"><stop offset=".2584" stop-color="#e49542"/><stop offset=".5125" stop-color="#e38e39"/><stop offset=".9234" stop-color="#e07921"/><stop offset="1" stop-color="#df751c"/></linearGradient><linearGradient id="SVGID_8_" gradientTransform="matrix(1 0 0 1.039 0 -9.814)" gradientUnits="userSpaceOnUse" x1="260.069" x2="253.554" y1="345.638" y2="313.076"><stop offset=".2584" stop-color="#e7a561"/><stop offset=".5534" stop-color="#e6a058"/><stop offset="1" stop-color="#e49542"/></linearGradient><radialGradient id="SVGID_9_" cx="170.077" cy="408.643" gradientUnits="userSpaceOnUse" r="24.017" xlink:href="#lg2"/><radialGradient id="SVGID_10_" cx="192.924" cy="247.514" gradientTransform="matrix(.908 .419 -.323 .7 97.571 -6.553)" gradientUnits="userSpaceOnUse" r="75.529" xlink:href="#lg1"/><radialGradient id="SVGID_11_" cx="29.334" cy="66.022" gradientTransform="matrix(-.96 .279 -.299 -1.029 77.258 125.731)" gradientUnits="userSpaceOnUse" r="191.995"><stop offset=".0005790931" stop-color="#fff9e2"/><stop offset=".2293" stop-color="#f4d8b3"/><stop offset=".36" stop-color="#efc89d"/><stop offset=".9388" stop-color="#efc89d"/></radialGradient><radialGradient id="SVGID_12_" cx="412.381" cy="252.213" gradientTransform="matrix(-.857 .615 -.918 -1.086 994.826 272.665)" gradientUnits="userSpaceOnUse" r="130.073"><stop offset="0" stop-color="#df751c"/><stop offset=".2092" stop-color="#e1822b"/><stop offset=".5304" stop-color="#e3903c"/><stop offset=".7699" stop-color="#e49542"/></radialGradient><radialGradient id="SVGID_13_" cx="239.122" cy="109.207" gradientTransform="matrix(-.371 .929 -1.279 -.51 467.334 -57.211)" gradientUnits="userSpaceOnUse" r="223.034"><stop offset="0" stop-color="#f4d8bc"/><stop offset=".2419" stop-color="#f1cba5"/><stop offset=".563" stop-color="#ecb780"/><stop offset=".6421" stop-color="#e8a55f"/><stop offset=".7369" stop-color="#e5933f"/><stop offset=".8164" stop-color="#e3882b"/><stop offset=".8702" stop-color="#e28424"/></radialGradient><radialGradient id="SVGID_14_" cx="106.621" cy="151.646" gradientTransform="matrix(-.371 .929 -1.279 -.51 340.004 129.942)" gradientUnits="userSpaceOnUse" r="0"><stop offset="0" stop-color="#fffbe4"/><stop offset=".1537" stop-color="#fbebcd"/><stop offset=".4753" stop-color="#efc391"/><stop offset=".563" stop-color="#ecb780"/><stop offset=".6421" stop-color="#e8a55f"/><stop offset=".7369" stop-color="#e5933f"/><stop offset=".8164" stop-color="#e3882b"/><stop offset=".8702" stop-color="#e28424"/></radialGradient><radialGradient id="SVGID_15_" cx="117.335" cy="241.618" gradientTransform="matrix(-.371 .929 -1.279 -.51 469.72 255.844)" gradientUnits="userSpaceOnUse" r="195.056"><stop offset="0" stop-color="#fffbe4"/><stop offset=".0961" stop-color="#fbedd1"/><stop offset=".3054" stop-color="#f2d2ab"/><stop offset=".4161" stop-color="#efc89d"/><stop offset=".4902" stop-color="#eab078"/><stop offset=".5821" stop-color="#e59750"/><stop offset=".6665" stop-color="#e28434"/><stop offset=".7397" stop-color="#e07922"/><stop offset=".7934" stop-color="#df751c"/></radialGradient><radialGradient id="SVGID_16_" cx="138.083" cy="70.288" gradientTransform="matrix(-.371 .929 -1.279 -.51 279.103 -22.127)" gradientUnits="userSpaceOnUse" r="120.372"><stop offset=".001" stop-color="#efc89d"/><stop offset=".2446" stop-color="#efc79b"/><stop offset=".3323" stop-color="#eec394"/><stop offset=".3946" stop-color="#edbc89"/><stop offset=".4233" stop-color="#ecb780"/><stop offset=".7089" stop-color="#e8aa6a"/><stop offset=".8117" stop-color="#e7a561"/></radialGradient><linearGradient id="SVGID_17_" gradientUnits="userSpaceOnUse" x1="422.71" x2="399.864" y1="379.493" y2="290.863"><stop offset=".029" stop-color="#e7a561"/><stop offset=".2154" stop-color="#e7a35e"/><stop offset=".3642" stop-color="#e59c54"/><stop offset=".5" stop-color="#e49043"/><stop offset=".6273" stop-color="#e1802c"/><stop offset=".6937" stop-color="#df751c"/></linearGradient><linearGradient id="SVGID_18_" gradientUnits="userSpaceOnUse" x1="409.305" x2="414.634" y1="420.861" y2="294.302"><stop offset="0" stop-color="#efc89d"/><stop offset=".0334" stop-color="#eec293"/><stop offset=".1266" stop-color="#ebb57d"/><stop offset=".2283" stop-color="#e9ac6d"/><stop offset=".3443" stop-color="#e7a764"/><stop offset=".5053" stop-color="#e7a561"/><stop offset=".5607" stop-color="#e6a15c"/><stop offset=".6299" stop-color="#e5974c"/><stop offset=".7062" stop-color="#e28533"/><stop offset=".7611" stop-color="#df751c"/></linearGradient><radialGradient id="SVGID_19_" cx="344.083" cy="230.873" gradientTransform="matrix(.703 -.712 .549 .542 -24.356 350.605)" gradientUnits="userSpaceOnUse" r="122.839"><stop offset="0" stop-color="#efc89d"/><stop offset=".2182" stop-color="#edbd8a"/><stop offset=".3927" stop-color="#ecb780"/><stop offset=".7158" stop-color="#e8a45e"/><stop offset=".9491" stop-color="#e49542"/></radialGradient><linearGradient id="lg3"><stop offset=".1103" stop-color="#fff9e2"/><stop offset=".2383" stop-color="#faeacd"/><stop offset=".4752" stop-color="#f2d1aa"/><stop offset=".6033" stop-color="#efc89d"/><stop offset=".9121" stop-color="#e49542"/></linearGradient><radialGradient id="SVGID_20_" cx="320.34" cy="252.386" gradientTransform="matrix(.649 -.761 .616 .526 -43.004 363.394)" gradientUnits="userSpaceOnUse" r="131.846" xlink:href="#lg3"/><linearGradient id="lg4"><stop offset="0" stop-color="#ecb780"/><stop offset=".458" stop-color="#e9ae70"/><stop offset="1" stop-color="#e7a561"/></linearGradient><radialGradient id="SVGID_21_" cx="388.954" cy="406.709" gradientUnits="userSpaceOnUse" r="27.223" xlink:href="#lg4"/><linearGradient id="SVGID_22_" gradientUnits="userSpaceOnUse" x1="248.577" x2="254.385" y1="420.267" y2="282.305"><stop offset="0" stop-color="#efc89d"/><stop offset=".1098" stop-color="#ecba84"/><stop offset=".231" stop-color="#e9ae71"/><stop offset=".3536" stop-color="#e8a765"/><stop offset=".4786" stop-color="#e7a561"/><stop offset=".5741" stop-color="#e7a35e"/><stop offset=".6549" stop-color="#e59b53"/><stop offset=".7303" stop-color="#e38f42"/><stop offset=".8021" stop-color="#e17e29"/><stop offset=".8335" stop-color="#df751c"/></linearGradient><radialGradient id="SVGID_23_" cx="163.6" cy="113.184" gradientTransform="matrix(-.96 .279 -.385 -1.322 364.213 217.068)" gradientUnits="userSpaceOnUse" r="154.369"><stop offset=".143" stop-color="#f4d8bc"/><stop offset=".6161" stop-color="#ecb780"/><stop offset=".754" stop-color="#f1ca96"/><stop offset="1" stop-color="#fbf4c6"/></radialGradient><radialGradient id="SVGID_24_" cx="92.568" cy="52.619" gradientTransform="matrix(-.944 .33 -.714 -2.041 217.502 129.47)" gradientUnits="userSpaceOnUse" r="58.503"><stop offset="0" stop-color="#fffbe4"/><stop offset=".5131" stop-color="#ecb780"/><stop offset=".8718" stop-color="#eec394"/><stop offset="1" stop-color="#efc89d"/></radialGradient><radialGradient id="SVGID_25_" cx="107.489" cy="83.156" gradientTransform="matrix(1 0 0 1.008 0 -.686)" gradientUnits="userSpaceOnUse" r="20.453"><stop offset="0" stop-color="#ffead8"/><stop offset=".2628" stop-color="#fce4ce"/><stop offset=".714" stop-color="#f5d4b2"/><stop offset="1" stop-color="#efc89d"/></radialGradient><radialGradient id="SVGID_26_" cx="236.446" cy="408.643" gradientUnits="userSpaceOnUse" r="24.017" xlink:href="#lg4"/><radialGradient id="SVGID_27_" cx="253.978" cy="215.851" gradientTransform="matrix(.703 -.712 .776 .766 -91.901 231.223)" gradientUnits="userSpaceOnUse" r="103.286"><stop offset="0" stop-color="#efc89d"/><stop offset=".2452" stop-color="#ecba84"/><stop offset=".5464" stop-color="#e7a561"/><stop offset=".7269" stop-color="#e6a058"/><stop offset="1" stop-color="#e49542"/></radialGradient><radialGradient id="SVGID_28_" cx="171.986" cy="244.013" gradientTransform="matrix(1 0 0 .809 0 46.524)" gradientUnits="userSpaceOnUse" r="145.476" xlink:href="#lg3"/><radialGradient id="SVGID_29_" cx="4.804" cy="425.067" gradientTransform="matrix(.762 -.571 .647 .669 -273.907 -152.687)" gradientUnits="userSpaceOnUse" r="17.641"><stop offset="0" stop-color="#d0cee7"/><stop offset=".3128" stop-color="#a19dae"/><stop offset=".5922" stop-color="#756e78"/><stop offset="1" stop-color="#665e66"/></radialGradient><radialGradient id="SVGID_30_" cx="68.325" cy="132.721" gradientTransform="matrix(1 0 0 .776 0 29.694)" gradientUnits="userSpaceOnUse" r="51.738"><stop offset="0" stop-color="#ffead8"/><stop offset=".5" stop-color="#fee9d6"/><stop offset=".6801" stop-color="#fde5cf"/><stop offset=".8085" stop-color="#f9dec4"/><stop offset=".9115" stop-color="#f5d5b3"/><stop offset="1" stop-color="#efc89d"/></radialGradient><radialGradient id="SVGID_31_" cx="354.504" cy="2082.982" gradientTransform="matrix(.931 0 0 .112 -75.044 190.701)" gradientUnits="userSpaceOnUse" r="261.459"><stop offset="0" stop-color="#f4d8bc"/><stop offset=".0882" stop-color="#f6dcc2"/><stop offset=".4962" stop-color="#ffead8"/><stop offset=".8982" stop-color="#fff"/></radialGradient><g><path d="m.173 135.754c-.413 2.11-.095 4.373 1.064 6.381l5.426 9.397c3.196 5.536 9.126 8.729 15.307 8.568l-.011.014h22.703l9.712-24.36z" fill="url(#SVGID_1_)"/><path d="m64.88 109.402-40.539 8.743-19.727 11.39c-2.403 1.388-3.946 3.694-4.44 6.219l57.393 9.197z" fill="url(#SVGID_2_)"/><path d="m81.747 93.437h-24.181v-4.863c0-11.421 4.319-22.42 12.091-30.789 7.771 8.369 12.091 19.368 12.091 30.789v4.863z" fill="url(#SVGID_3_)"/><path d="m352.207 300.788-25.475 15.78 26.2 41.401-19.192 65.167h29.251l19.335-74.16z" fill="url(#SVGID_4_)"/><path d="m322.264 184.328c-24.895.923-45.109 21.34-45.805 46.242-.301 10.793 3.001 20.794 8.774 28.917l-.014.004 41.511 57.076c10.252 14.096 28.234 20.263 44.979 15.425v-100.063c.002-26.909-22.311-48.607-49.445-47.601z" fill="url(#SVGID_5_)"/><path d="m328.736 400.589h9.718c7.058 0 12.779 5.721 12.779 12.779v9.767h-35.276v-9.767c0-7.057 5.721-12.779 12.779-12.779z" fill="url(#SVGID_6_)"/><path d="m209.113 400.589-13.761 22.547h-13.934l-6.2-133.926h33.895z" fill="url(#SVGID_7_)"/><path d="m275.276 400.589-13.762 22.547h-13.933l-6.2-133.926h33.895z" fill="url(#SVGID_8_)"/><path d="m175.504 403.244h8.574c6.227 0 11.274 5.048 11.274 11.274v8.617h-31.122v-8.617c0-6.226 5.048-11.274 11.274-11.274z" fill="url(#SVGID_9_)"/><path d="m209.113 316.595v-79.837c0-18.401-14.917-33.318-33.318-33.318-18.401 0-33.318 14.917-33.318 33.318 0 25.596 13.655 49.248 35.822 62.046z" fill="url(#SVGID_10_)"/><path d="m101.861 72.362h-21.959c-9.719 0-19.267 2.558-27.684 7.418l-3.883 2.242c-10.843 6.26-18.756 16.572-21.996 28.666l-1.998 7.458h21.959c1.529.557 55.561-45.784 55.561-45.784z" fill="url(#SVGID_11_)"/><path d="m476.577 361.962c-26.399 0-47.8-21.401-47.8-47.8v-143.377h.523c26.11 0 47.277 21.167 47.277 47.277z" fill="url(#SVGID_12_)"/><path d="m440.255 179.3c-12.076-19.818-33.343-32.197-56.539-32.912l-153.909-4.744-98.549-61.865c-7.72-4.846-16.651-7.417-25.766-7.417l-71.2 70.935 30.281 11.77 2.045-.548c6.511-1.745 13.437.542 17.63 5.821l.831 1.387 6.688 21.4c6.293 20.135 19.636 37.324 37.581 48.414l5.108 3.157c20.102 20.129 45.316 34.796 73.265 42.198l47.057 12.463c51.077 13.528 105.21 9.603 153.801-11.15 38.483-16.436 53.451-63.173 31.676-98.909z" fill="url(#SVGID_13_)"/><path d="" fill="url(#SVGID_14_)"/><path d="m284.055 289.359-47.057-12.463c-27.949-7.402-53.163-22.068-73.265-42.198l-5.108-3.157c-17.945-11.09-31.288-28.28-37.581-48.414l-6.206-19.857c-.32-1.025-.761-2.009-1.314-2.93l-42.554-53.587-36.68 36.544 30.281 11.77 2.045-.548c6.511-1.745 13.437.542 17.63 5.821l.831 1.387 6.688 21.4c6.293 20.135 19.636 37.324 37.581 48.414l5.108 3.157c20.102 20.129 45.316 34.796 73.265 42.198l47.057 12.463c24.719 6.547 50.153 9.006 75.328 7.448-15.468-.957-30.893-3.434-46.049-7.448z" fill="url(#SVGID_15_)"/><path d="m109.883 76.754h-3.63c-1.821 0-3.636.09-5.438.268l-66.523 66.275 30.281 11.77 2.045-.548c4.613-1.236 9.434-.448 13.343 1.993l1.773-.475c13.735 0 26.488-6.964 33.928-18.417l.046-.003 5.879-9.95-11.703-11.703v-39.21z" fill="url(#SVGID_16_)"/><path d="m418.576 300.788-25.475 15.78 26.2 41.401-19.192 65.167h29.251l19.335-74.16z" fill="url(#SVGID_17_)"/><path d="m406.348 316.568 15.925-9.865-3.698-5.915-25.475 15.78 26.201 41.401-19.192 65.167h13.247l19.192-65.167z" fill="url(#SVGID_18_)"/><path d="m388.633 184.328c-24.895.923-45.109 21.34-45.805 46.242-.301 10.793 3.001 20.794 8.774 28.917l-.014.004 41.512 57.076c10.252 14.096 28.234 20.263 44.979 15.425v-100.063c.001-26.909-22.312-48.607-49.446-47.601z" fill="url(#SVGID_19_)"/><path d="m406.348 316.568-41.512-57.076.013-.004c-5.773-8.122-9.075-18.124-8.774-28.917.65-23.267 18.341-42.614 40.967-45.808-2.737-.379-5.544-.541-8.409-.435-24.895.923-45.109 21.34-45.804 46.242-.301 10.793 3.001 20.794 8.774 28.917l-.013.004 41.511 57.076c9.267 12.742 24.851 19.003 40.127 16.515-10.561-1.709-20.309-7.479-26.88-16.514z" fill="url(#SVGID_20_)"/><path d="m395.105 400.589h9.718c7.058 0 12.779 5.721 12.779 12.779v9.767h-35.276v-9.767c0-7.057 5.721-12.779 12.779-12.779z" fill="url(#SVGID_21_)"/><path d="m241.587 289.21 6.201 133.926h13.175l-6.2-133.926z" fill="url(#SVGID_22_)"/><path d="m111.316 133.226 5.879-9.951-11.703-11.703v-39.21h-3.63c-9.719 0-19.267 2.558-27.684 7.418l-3.883 2.242c-10.843 6.26-18.756 16.572-21.996 28.666l-1.998 7.458 24.47 17.608z" fill="url(#SVGID_23_)"/><path d="m113.862 93.437h-24.181v-4.863c0-11.421 4.319-22.42 12.091-30.789 7.771 8.369 12.091 19.368 12.091 30.789v4.863z" fill="url(#SVGID_24_)"/><path d="m105.36 93.437h-8.822c-2.272 0-4.115-1.842-4.115-4.115 0-9.664 3.045-18.97 8.525-26.052 5.48 7.082 8.525 16.388 8.525 26.052.001 2.273-1.841 4.115-4.113 4.115z" fill="url(#SVGID_25_)"/><path d="m241.873 403.244h8.574c6.227 0 11.274 5.048 11.274 11.274v8.617h-31.122v-8.617c0-6.226 5.048-11.274 11.274-11.274z" fill="url(#SVGID_26_)"/><path d="m275.482 316.595v-79.837c0-18.401-14.917-33.318-33.318-33.318-18.401 0-33.318 14.917-33.318 33.318 0 25.596 13.655 49.248 35.822 62.046z" fill="url(#SVGID_27_)"/><path d="m259.095 298.804c-22.167-12.798-35.822-36.45-35.822-62.046 0-15.924 11.172-29.239 26.105-32.535-2.323-.513-4.737-.783-7.214-.783-18.401 0-33.318 14.917-33.318 33.318 0 25.596 13.655 49.248 35.822 62.046l30.814 17.791v-8.33z" fill="url(#SVGID_28_)"/><path d="m18.749 135.935c0 2.376-4.68 7.026-7.656 7.026s-7.656-4.65-7.656-7.026 3.428-4.302 7.656-4.302 7.656 1.926 7.656 4.302z" fill="url(#SVGID_29_)"/><path d="m98.23 131.244c-7.126-1.072-13.496-5.031-17.612-10.945l-4.195-6.028c1.25-4.629-1.494-9.393-6.126-10.634-5.014-1.343-10.361.162-13.937 3.925l-10.06 10.583-19.727 11.39c-4.412 2.547-5.923 8.188-3.376 12.6l5.426 9.397c3.883 6.726 11.8 10.006 19.303 7.995l29.417-7.882c13.743 0 26.504-6.973 33.942-18.438z" fill="url(#SVGID_30_)"/><path d="m258.328 454.215c140.099 0 253.672-13.915 253.672-31.079h-507.344c0 17.164 113.573 31.079 253.672 31.079z" fill="url(#SVGID_31_)"/></g></svg>