<svg id="Capa_1" enable-background="new 0 0 508.606 508.606" height="512" viewBox="0 0 508.606 508.606" width="512" xmlns="http://www.w3.org/2000/svg" xmlns:xlink="http://www.w3.org/1999/xlink"><linearGradient id="lg1"><stop offset=".1873" stop-color="#c3bec6"/><stop offset=".2037" stop-color="#c4bfc7"/><stop offset=".4439" stop-color="#d5d1d6"/><stop offset=".7004" stop-color="#dfdcdf"/><stop offset="1" stop-color="#e2dfe2"/></linearGradient><radialGradient id="SVGID_1_" cx="176.678" cy="307.507" gradientTransform="matrix(1 0 0 .789 0 64.986)" gradientUnits="userSpaceOnUse" r="61.352" xlink:href="#lg1"/><linearGradient id="lg2"><stop offset="0" stop-color="#fff9d0"/><stop offset=".5922" stop-color="#f4d8bc"/><stop offset=".9521" stop-color="#f0caa1"/><stop offset="1" stop-color="#efc89d"/></linearGradient><radialGradient id="SVGID_2_" cx="163.082" cy="339.056" gradientTransform="matrix(.762 -.648 .647 .76 -180.497 187.031)" gradientUnits="userSpaceOnUse" r="23.587" xlink:href="#lg2"/><radialGradient id="SVGID_3_" cx="379.808" cy="307.507" gradientTransform="matrix(1 0 0 .789 0 64.986)" gradientUnits="userSpaceOnUse" r="61.352" xlink:href="#lg1"/><radialGradient id="SVGID_4_" cx="366.212" cy="339.056" gradientTransform="matrix(.762 -.648 .647 .76 -132.044 318.7)" gradientUnits="userSpaceOnUse" r="23.587" xlink:href="#lg2"/><radialGradient id="SVGID_5_" cx="210.701" cy="213.408" gradientTransform="matrix(1.165 0 0 .948 -32.826 11.108)" gradientUnits="userSpaceOnUse" r="255.532"><stop offset="0" stop-color="#f9f6f9"/><stop offset=".3599" stop-color="#f1eef1"/><stop offset=".7527" stop-color="#e2dfe2"/><stop offset=".8365" stop-color="#dcd8dc"/><stop offset=".9571" stop-color="#cac5cc"/><stop offset=".9929" stop-color="#c3bec6"/></radialGradient><radialGradient id="SVGID_6_" cx="89.741" cy="264.593" gradientTransform="matrix(1 0 0 .948 0 13.772)" gradientUnits="userSpaceOnUse" r="90.912"><stop offset=".1526" stop-color="#fff"/><stop offset=".2063" stop-color="#fefefe"/><stop offset="1" stop-color="#f9f6f9"/></radialGradient><radialGradient id="SVGID_7_" cx="133.737" cy="310.096" gradientTransform="matrix(1 0 0 .948 0 16.141)" gradientUnits="userSpaceOnUse" r="65.101"><stop offset=".0071" stop-color="#c3bec6"/><stop offset=".1281" stop-color="#d0ccd2"/><stop offset=".3345" stop-color="#e2dfe2"/><stop offset=".6645" stop-color="#ebe8eb"/><stop offset="1" stop-color="#f9f6f9"/></radialGradient><radialGradient id="SVGID_8_" cx="77.083" cy="214.369" gradientTransform="matrix(1 0 0 .685 0 67.512)" gradientUnits="userSpaceOnUse" r="116.49"><stop offset="0" stop-color="#fff"/><stop offset=".9902" stop-color="#efecef"/></radialGradient><radialGradient id="SVGID_9_" cx="247.237" cy="153.597" gradientTransform="matrix(-.371 .929 -1.279 -.51 535.21 2.278)" gradientUnits="userSpaceOnUse" r="260.943"><stop offset="0" stop-color="#f4e2c1"/><stop offset=".3785" stop-color="#f2daaa"/><stop offset=".5609" stop-color="#f1d59d"/><stop offset=".7117" stop-color="#e6c686"/><stop offset=".8833" stop-color="#ddb972"/><stop offset="1" stop-color="#dab46b"/></radialGradient><radialGradient id="SVGID_10_" cx="204.616" cy="113.508" gradientTransform="matrix(-.371 .929 -1.279 -.51 425.543 -18.666)" gradientUnits="userSpaceOnUse" r="159.538"><stop offset=".0179" stop-color="#fff9e2"/><stop offset=".7731" stop-color="#f9efda"/></radialGradient><radialGradient id="SVGID_11_" cx="177.089" cy="145.808" gradientTransform="matrix(-.371 .929 -1.279 -.51 429.115 55.673)" gradientUnits="userSpaceOnUse" r="102.059"><stop offset=".0179" stop-color="#fff9e2"/><stop offset=".6594" stop-color="#f7e9cb"/><stop offset=".8978" stop-color="#f4e2c1"/></radialGradient><radialGradient id="SVGID_12_" cx="31.986" cy="273.285" gradientTransform="matrix(1 0 0 .781 0 59.923)" gradientUnits="userSpaceOnUse" r="69.645"><stop offset="0" stop-color="#fffbe4"/><stop offset=".2938" stop-color="#fff1dd"/><stop offset=".4363" stop-color="#ffead8"/><stop offset=".5949" stop-color="#fee8d5"/><stop offset=".7302" stop-color="#fbe2ca"/><stop offset=".8569" stop-color="#f6d8b9"/><stop offset=".9777" stop-color="#f0caa0"/><stop offset=".9899" stop-color="#efc89d"/></radialGradient><linearGradient id="lg3"><stop offset="0" stop-color="#f9f6f9"/><stop offset=".505" stop-color="#e2dfe2"/><stop offset=".9168" stop-color="#d6d1d8"/><stop offset="1" stop-color="#d3ced5"/></linearGradient><radialGradient id="SVGID_13_" cx="208.512" cy="298.269" gradientTransform="matrix(-.041 -.999 .788 -.032 -18.003 516.223)" gradientUnits="userSpaceOnUse" r="127.747" xlink:href="#lg3"/><radialGradient id="SVGID_14_" cx="398.994" cy="310.491" gradientTransform="matrix(.045 -.999 .788 .036 136.297 697.983)" gradientUnits="userSpaceOnUse" r="95.289" xlink:href="#lg3"/><linearGradient id="lg4"><stop offset="0" stop-color="#fff"/><stop offset=".0141" stop-color="#fefefe"/><stop offset=".3153" stop-color="#f3f1f3"/><stop offset=".5831" stop-color="#efecef"/><stop offset=".9218" stop-color="#fbfbfb"/><stop offset="1" stop-color="#fff"/></linearGradient><radialGradient id="SVGID_15_" cx="199.083" cy="291.519" gradientTransform="matrix(-.999 .049 -.058 -1.187 414.906 627.713)" gradientUnits="userSpaceOnUse" r="56.803" xlink:href="#lg4"/><radialGradient id="SVGID_16_" cx="402.213" cy="291.519" gradientTransform="matrix(-.999 .049 -.058 -1.187 820.921 617.755)" gradientUnits="userSpaceOnUse" r="56.803" xlink:href="#lg4"/><linearGradient id="lg5"><stop offset="0" stop-color="#fffbe4"/><stop offset=".5922" stop-color="#ffead8"/><stop offset="1" stop-color="#ffe2cb"/></linearGradient><radialGradient id="SVGID_17_" cx="409.273" cy="339.056" gradientTransform="matrix(.762 -.648 .647 .76 -121.773 346.612)" gradientUnits="userSpaceOnUse" r="23.587" xlink:href="#lg5"/><radialGradient id="SVGID_18_" cx="141.857" cy="288.847" gradientTransform="matrix(.707 -.707 .592 .592 -129.482 218.125)" gradientUnits="userSpaceOnUse" r="81.372"><stop offset="0" stop-color="#efecef"/><stop offset=".6106" stop-color="#edeaed"/><stop offset=".9316" stop-color="#e5e2e5"/><stop offset="1" stop-color="#e2dfe2"/></radialGradient><linearGradient id="lg6"><stop offset="0" stop-color="#ffead8"/><stop offset=".4418" stop-color="#fee9d6"/><stop offset=".6382" stop-color="#fce5cf"/><stop offset=".7859" stop-color="#f9ddc2"/><stop offset=".9086" stop-color="#f4d3b0"/><stop offset="1" stop-color="#efc89d"/></linearGradient><radialGradient id="SVGID_19_" cx="93.607" cy="313.928" gradientTransform="matrix(1 0 0 .776 0 70.237)" gradientUnits="userSpaceOnUse" r="59.275" xlink:href="#lg6"/><radialGradient id="SVGID_20_" cx="133.666" cy="257.719" gradientTransform="matrix(.707 -.707 .484 .484 -85.694 227.392)" gradientUnits="userSpaceOnUse" r="48.18"><stop offset="0" stop-color="#e2dfe2"/><stop offset=".0669" stop-color="#e4e1e4"/><stop offset=".4726" stop-color="#efecef"/><stop offset=".7467" stop-color="#f5f3f5"/><stop offset="1" stop-color="#fff"/></radialGradient><radialGradient id="SVGID_21_" cx="168.31" cy="244.644" gradientTransform="matrix(1 0 0 1.106 0 -25.95)" gradientUnits="userSpaceOnUse" r="24.515" xlink:href="#lg6"/><radialGradient id="SVGID_22_" cx="14.253" cy="692.603" gradientTransform="matrix(.762 -.571 .647 .669 -444.771 -166.469)" gradientUnits="userSpaceOnUse" r="20.327"><stop offset="0" stop-color="#d0cee7"/><stop offset=".3128" stop-color="#a19dae"/><stop offset=".5922" stop-color="#756e78"/><stop offset="1" stop-color="#665e66"/></radialGradient><radialGradient id="SVGID_23_" cx="206.143" cy="339.056" gradientTransform="matrix(.762 -.648 .647 .76 -170.225 214.943)" gradientUnits="userSpaceOnUse" r="23.587" xlink:href="#lg5"/><radialGradient id="SVGID_24_" cx="255.231" cy="207.056" gradientTransform="matrix(-.371 .929 -1.279 -.51 614.514 75.573)" gradientUnits="userSpaceOnUse" r="129.092"><stop offset="0" stop-color="#f4ddb1"/><stop offset=".563" stop-color="#f1d59d"/></radialGradient><radialGradient id="SVGID_25_" cx="405.181" cy="2364.197" gradientTransform="matrix(.931 0 0 .112 -118.491 91.521)" gradientUnits="userSpaceOnUse" r="262.109"><stop offset="0" stop-color="#e2dfe2"/><stop offset=".3187" stop-color="#ebe8eb"/><stop offset=".6461" stop-color="#f9f6f9"/><stop offset=".8982" stop-color="#fff"/></radialGradient><g><path d="m170.679 271.064c-10.143.532-18.531 8.706-19.301 18.834-.627 8.245 3.635 15.557 10.191 19.339 5.227 3.016 9.047 7.973 10.158 13.905l6.036 32.23h14.484v-63.873c-.001-11.667-9.765-21.054-21.568-20.435z" fill="url(#SVGID_1_)"/><path d="m173.594 342.138h9.754c1.539 0 2.787 1.248 2.787 2.787v10.447h-25.314v-.461c0-7.054 5.718-12.773 12.773-12.773z" fill="url(#SVGID_2_)"/><path d="m373.809 271.064c-10.143.532-18.531 8.706-19.301 18.834-.627 8.245 3.635 15.557 10.191 19.339 5.227 3.016 9.047 7.973 10.158 13.905l6.036 32.23h14.484v-63.873c-.001-11.667-9.765-21.054-21.568-20.435z" fill="url(#SVGID_3_)"/><path d="m376.724 342.138h9.754c1.539 0 2.787 1.248 2.787 2.787v10.447h-25.314v-.461c0-7.054 5.718-12.773 12.773-12.773z" fill="url(#SVGID_4_)"/><path d="m115.795 266.342c-.414 4.261-.626 8.571-.626 12.924v36.771h326.678c16.861 0 30.53-13.669 30.53-30.53v-6.241c0-4.353-.212-8.663-.626-12.924l-334.894-60.372c-11.561 18.206-18.95 38.645-21.062 60.372z" fill="url(#SVGID_5_)"/><path d="m169.622 266.342c1.211-12.463 4.159-24.502 8.635-35.94l-.933-24.431-41.147 1.087c-14.393 19.967-17.983 34.609-20.382 59.284-.414 4.261-.626 8.571-.626 12.924v36.771h53.826v-36.771c.001-4.353.213-8.663.627-12.924z" fill="url(#SVGID_6_)"/><path d="m120.618 241.533c-2.369 8.036-3.998 16.324-4.823 24.809-.414 4.261-.626 8.571-.626 12.924v36.771h35.455c9.616-6.408 15.952-17.351 15.952-29.773v-52.5h-12.31c-11.83 0-23.311 2.727-33.648 7.769z" fill="url(#SVGID_7_)"/><path d="m119.412 227.783c-24.882 0-48.221 12.062-62.613 32.36l-13.332 18.803h46.949l57.87-51.164h-28.874z" fill="url(#SVGID_8_)"/><path d="m145.036 201.025-1.552-11.165 11.237-.903-.414-11.266 11.272.209.672-11.253 11.204 1.267 1.706-11.145 11.043 2.274 2.686-10.95 10.803 3.227 3.615-10.679 10.493 4.128 4.494-10.341 10.117 4.978 5.32-9.941 9.683 5.777 6.096-9.486 9.198 6.522 6.817-8.981 8.666 7.214 7.485-8.433 8.097 7.849 11.491-7.694 10.601 8.878 12.254-6.406 9.564 9.986 12.888-5.006 8.378 10.998 13.377-3.5 7.043 11.897 13.696-1.892 5.553 12.66 13.825-.184 3.903 13.262 13.731 1.621 2.087 13.665 13.373 3.51.106 13.822 12.704 5.453-2.011 13.675 11.683 7.39-4.199 13.169 10.299 9.22-2.368 11.891h-237.947c-15.596 0-30.553-6.195-41.581-17.224l-23.898-23.898-55.294 6.528c-1.907.225-3.258-1.818-2.303-3.484l13.799-24.092z" fill="url(#SVGID_9_)"/><path d="m183.528 204.172 20.508-3.148-1.552-11.165 11.237-.903-.414-11.266 11.272.209.672-11.253 11.204 1.267 1.706-11.145 11.043 2.274 2.686-10.95 10.803 3.227 3.615-10.679 10.493 4.128 4.494-10.341 10.117 4.978 5.32-9.941 9.683 5.777 5.032-7.831-6.183-5.178-11.491 7.694-8.097-7.849-7.484 8.433-8.666-7.214-6.817 8.981-9.198-6.522-6.096 9.486-9.683-5.777-5.32 9.941-10.117-4.978-4.494 10.341-10.493-4.128-3.615 10.679-10.803-3.227-2.686 10.95-11.043-2.274-1.706 11.145-11.204-1.267-.672 11.253-11.272-.209.414 11.266-11.237.903 1.552 11.165-20.509 3.148-13.799 24.092c-.955 1.667.396 3.709 2.303 3.484l55.294-6.528 2 2z" fill="url(#SVGID_10_)"/><path d="m148.274 224.835c1.512-2.074 3.24-3.862 5.032-5.566 1.801-1.691 3.688-3.27 5.646-4.753 1.958-1.484 3.992-2.867 6.111-4.139 2.127-1.26 4.32-2.433 6.731-3.319-1.509 2.077-3.236 3.867-5.029 5.57-1.802 1.691-3.687 3.27-5.649 4.75-1.961 1.48-3.995 2.863-6.114 4.135-2.127 1.259-4.32 2.433-6.728 3.322zm68.24-58.846c2.119-1.271 4.153-2.655 6.114-4.135 1.962-1.479 3.848-3.059 5.649-4.75 1.793-1.702 3.52-3.492 5.029-5.57-2.411.885-4.604 2.058-6.731 3.319-2.119 1.272-4.153 2.655-6.111 4.139-1.959 1.483-3.845 3.062-5.646 4.753-1.792 1.703-3.52 3.492-5.032 5.566 2.409-.889 4.601-2.063 6.728-3.322zm-30.756 27.762c2.119-1.271 4.152-2.655 6.114-4.135 1.962-1.479 3.848-3.058 5.649-4.75 1.793-1.702 3.52-3.492 5.029-5.57-2.411.885-4.604 2.058-6.731 3.319-2.119 1.272-4.153 2.655-6.111 4.139-1.959 1.483-3.845 3.062-5.646 4.753-1.792 1.703-3.52 3.492-5.032 5.566 2.408-.889 4.601-2.063 6.728-3.322zm10-27.762c2.119-1.271 4.152-2.655 6.114-4.135 1.962-1.479 3.848-3.059 5.649-4.75 1.793-1.702 3.52-3.492 5.029-5.57-2.411.885-4.604 2.058-6.731 3.319-2.118 1.272-4.153 2.655-6.111 4.139-1.959 1.483-3.845 3.062-5.646 4.753-1.792 1.703-3.52 3.492-5.032 5.566 2.408-.889 4.601-2.063 6.728-3.322zm-30.756 27.762c2.119-1.271 4.152-2.655 6.114-4.135 1.962-1.479 3.848-3.058 5.649-4.75 1.793-1.702 3.52-3.492 5.029-5.57-2.411.885-4.604 2.058-6.731 3.319-2.118 1.272-4.153 2.655-6.111 4.139-1.959 1.483-3.845 3.062-5.646 4.753-1.792 1.703-3.52 3.492-5.032 5.566 2.408-.889 4.601-2.063 6.728-3.322zm-30.756 27.762c2.119-1.271 4.153-2.655 6.114-4.135 1.962-1.479 3.848-3.058 5.649-4.75 1.793-1.702 3.52-3.492 5.029-5.57-2.411.885-4.604 2.058-6.731 3.319-2.118 1.272-4.153 2.655-6.111 4.139-1.959 1.483-3.845 3.062-5.646 4.753-1.792 1.703-3.52 3.492-5.032 5.566 2.408-.889 4.6-2.063 6.728-3.322zm82.268-55.524c2.119-1.271 4.153-2.655 6.114-4.135 1.962-1.479 3.848-3.059 5.649-4.75 1.793-1.702 3.52-3.492 5.029-5.57-2.411.885-4.604 2.058-6.731 3.319-2.119 1.272-4.153 2.655-6.111 4.139-1.959 1.483-3.845 3.062-5.646 4.753-1.792 1.703-3.52 3.492-5.032 5.566 2.409-.889 4.601-2.063 6.728-3.322z" fill="url(#SVGID_11_)"/><path d="m14.648 290.569c-4.998 2.016-8.272 6.865-8.272 12.255 0 7.298 5.916 13.214 13.214 13.214h28.875l41.952-37.09h-46.95z" fill="url(#SVGID_12_)"/><path d="m213.74 271.064c-10.143.532-18.531 8.706-19.301 18.834-.627 8.245 3.635 15.557 10.191 19.339 5.227 3.016 9.047 7.973 10.158 13.905l6.036 32.23h14.484v-63.873c-.001-11.667-9.765-21.054-21.568-20.435z" fill="url(#SVGID_13_)"/><path d="m416.87 271.064c-10.143.532-18.531 8.706-19.301 18.834-.627 8.245 3.635 15.557 10.191 19.339 5.227 3.016 9.047 7.973 10.158 13.905l6.036 32.23h14.484v-63.873c-.001-11.667-9.765-21.054-21.568-20.435z" fill="url(#SVGID_14_)"/><path d="m213.002 309.237c-6.555-3.782-10.818-11.094-10.191-19.339.691-9.084 7.51-16.596 16.227-18.432-1.699-.354-3.474-.498-5.299-.402-10.143.532-18.531 8.706-19.301 18.834-.627 8.245 3.635 15.557 10.191 19.339 5.227 3.016 9.047 7.973 10.158 13.905l6.036 32.23h8.373l-6.036-32.23c-1.111-5.932-4.931-10.889-10.158-13.905z" fill="url(#SVGID_15_)"/><path d="m416.132 309.237c-6.555-3.782-10.818-11.094-10.191-19.339.691-9.084 7.51-16.596 16.227-18.432-1.699-.354-3.474-.498-5.299-.402-10.143.532-18.531 8.706-19.301 18.834-.627 8.245 3.635 15.557 10.191 19.339 5.227 3.016 9.047 7.973 10.158 13.905l6.036 32.23h8.373l-6.036-32.23c-1.111-5.932-4.931-10.889-10.158-13.905z" fill="url(#SVGID_16_)"/><path d="m419.785 342.138h9.754c1.539 0 2.787 1.248 2.787 2.787v10.447h-25.314v-.461c0-7.054 5.718-12.773 12.773-12.773z" fill="url(#SVGID_17_)"/><path d="m148.286 227.783c-24.883 0-48.221 12.062-62.613 32.36l-13.332 18.803 11.901 37.09h40.599c19.746 0 35.754-16.008 35.754-35.754v-52.5h-12.309z" fill="url(#SVGID_18_)"/><path d="m102.743 291.273c-7.892-7.892-18.597-12.326-29.759-12.326h-.643l-28.819 11.622c-4.999 2.016-8.272 6.865-8.272 12.255 0 7.298 5.916 13.214 13.214 13.214h35.778l21.632-21.632z" fill="url(#SVGID_19_)"/><path d="m159.504 249.955h-13.723v-25.313c0-7.579 6.144-13.723 13.723-13.723 7.579 0 13.723 6.144 13.723 13.723v11.59c-.001 7.579-6.145 13.723-13.723 13.723z" fill="url(#SVGID_20_)"/><path d="m159.504 244.413h-2.255c-4.181 0-7.57-3.389-7.57-7.57v-10.554c0-5.427 4.399-9.826 9.826-9.826 5.427 0 9.826 4.399 9.826 9.826v8.299c-.002 5.426-4.401 9.825-9.827 9.825z" fill="url(#SVGID_21_)"/><path d="m30.32 296.833c0 2.737-5.393 8.096-8.822 8.096s-8.822-5.358-8.822-8.096c0-2.737 3.95-4.957 8.822-4.957s8.822 2.22 8.822 4.957z" fill="url(#SVGID_22_)"/><path d="m216.655 342.138h9.754c1.539 0 2.787 1.248 2.787 2.787v10.447h-25.314v-.461c0-7.054 5.719-12.773 12.773-12.773z" fill="url(#SVGID_23_)"/><path d="m216.787 224.835c1.512-2.074 3.24-3.862 5.032-5.566 1.801-1.691 3.687-3.27 5.646-4.753 1.958-1.484 3.992-2.867 6.111-4.139 2.127-1.26 4.32-2.433 6.731-3.319-1.509 2.077-3.236 3.867-5.029 5.57-1.802 1.691-3.687 3.27-5.649 4.75-1.961 1.48-3.995 2.863-6.114 4.135-2.128 1.259-4.32 2.433-6.728 3.322zm37.484-3.322c2.119-1.271 4.153-2.655 6.114-4.135 1.962-1.479 3.848-3.058 5.649-4.75 1.793-1.702 3.52-3.492 5.029-5.57-2.411.885-4.604 2.058-6.731 3.319-2.119 1.272-4.153 2.655-6.111 4.139-1.959 1.483-3.845 3.062-5.646 4.753-1.792 1.703-3.52 3.492-5.032 5.566 2.408-.889 4.6-2.063 6.728-3.322zm30.756 0c2.119-1.271 4.153-2.655 6.114-4.135 1.962-1.479 3.848-3.058 5.649-4.75 1.793-1.702 3.52-3.492 5.029-5.57-2.411.885-4.604 2.058-6.731 3.319-2.118 1.272-4.153 2.655-6.111 4.139-1.959 1.483-3.845 3.062-5.646 4.753-1.792 1.703-3.52 3.492-5.032 5.566 2.408-.889 4.6-2.063 6.728-3.322zm30.756 0c2.119-1.271 4.153-2.655 6.114-4.135 1.962-1.479 3.848-3.058 5.649-4.75 1.793-1.702 3.52-3.492 5.029-5.57-2.411.885-4.604 2.058-6.731 3.319-2.119 1.272-4.153 2.655-6.111 4.139-1.959 1.483-3.845 3.062-5.646 4.753-1.792 1.703-3.52 3.492-5.032 5.566 2.408-.889 4.6-2.063 6.728-3.322zm30.756 0c2.119-1.271 4.153-2.655 6.114-4.135 1.962-1.479 3.848-3.058 5.649-4.75 1.793-1.702 3.52-3.492 5.029-5.57-2.411.885-4.604 2.058-6.731 3.319-2.119 1.272-4.153 2.655-6.111 4.139-1.959 1.483-3.845 3.062-5.646 4.753-1.792 1.703-3.52 3.492-5.032 5.566 2.408-.889 4.601-2.063 6.728-3.322zm30.757 0c2.119-1.271 4.153-2.655 6.114-4.135 1.962-1.479 3.848-3.058 5.649-4.75 1.793-1.702 3.52-3.492 5.029-5.57-2.411.885-4.604 2.058-6.731 3.319-2.118 1.272-4.153 2.655-6.111 4.139-1.959 1.483-3.845 3.062-5.646 4.753-1.792 1.703-3.52 3.492-5.032 5.566 2.407-.889 4.6-2.063 6.728-3.322zm30.756 0c2.119-1.271 4.153-2.655 6.114-4.135 1.962-1.479 3.848-3.058 5.649-4.75 1.793-1.702 3.52-3.492 5.029-5.57-2.411.885-4.604 2.058-6.731 3.319-2.118 1.272-4.153 2.655-6.111 4.139-1.959 1.483-3.845 3.062-5.646 4.753-1.792 1.703-3.52 3.492-5.032 5.566 2.408-.889 4.6-2.063 6.728-3.322zm0 0c2.119-1.271 4.153-2.655 6.114-4.135 1.962-1.479 3.848-3.058 5.649-4.75 1.793-1.702 3.52-3.492 5.029-5.57-2.411.885-4.604 2.058-6.731 3.319-2.118 1.272-4.153 2.655-6.111 4.139-1.959 1.483-3.845 3.062-5.646 4.753-1.792 1.703-3.52 3.492-5.032 5.566 2.408-.889 4.6-2.063 6.728-3.322zm-184.538 27.762c2.119-1.271 4.153-2.655 6.114-4.135 1.962-1.479 3.848-3.058 5.649-4.75 1.793-1.702 3.52-3.492 5.029-5.57-2.411.885-4.604 2.058-6.731 3.319-2.118 1.272-4.153 2.655-6.111 4.139-1.959 1.483-3.845 3.062-5.646 4.753-1.792 1.703-3.52 3.492-5.032 5.566 2.409-.889 4.601-2.063 6.728-3.322zm30.757 0c2.119-1.271 4.153-2.655 6.114-4.135 1.962-1.479 3.848-3.058 5.649-4.75 1.793-1.702 3.52-3.492 5.029-5.57-2.411.885-4.604 2.058-6.731 3.319-2.119 1.272-4.153 2.655-6.111 4.139-1.959 1.483-3.845 3.062-5.646 4.753-1.792 1.703-3.52 3.492-5.032 5.566 2.408-.889 4.6-2.063 6.728-3.322zm30.756 0c2.119-1.271 4.153-2.655 6.114-4.135 1.962-1.479 3.848-3.058 5.649-4.75 1.793-1.702 3.52-3.492 5.029-5.57-2.411.885-4.604 2.058-6.731 3.319-2.118 1.272-4.153 2.655-6.111 4.139-1.959 1.483-3.845 3.062-5.646 4.753-1.792 1.703-3.52 3.492-5.032 5.566 2.408-.889 4.6-2.063 6.728-3.322zm30.756 0c2.119-1.271 4.153-2.655 6.114-4.135 1.962-1.479 3.848-3.058 5.649-4.75 1.793-1.702 3.52-3.492 5.029-5.57-2.411.885-4.604 2.058-6.731 3.319-2.119 1.272-4.153 2.655-6.111 4.139-1.959 1.483-3.845 3.062-5.646 4.753-1.792 1.703-3.52 3.492-5.032 5.566 2.408-.889 4.6-2.063 6.728-3.322zm30.756 0c2.119-1.271 4.153-2.655 6.114-4.135 1.962-1.479 3.848-3.058 5.649-4.75 1.793-1.702 3.52-3.492 5.029-5.57-2.411.885-4.604 2.058-6.731 3.319-2.119 1.272-4.153 2.655-6.111 4.139-1.959 1.483-3.845 3.062-5.646 4.753-1.792 1.703-3.52 3.492-5.032 5.566 2.408-.889 4.601-2.063 6.728-3.322zm30.757 0c2.119-1.271 4.153-2.655 6.114-4.135 1.962-1.479 3.848-3.058 5.649-4.75 1.793-1.702 3.52-3.492 5.029-5.57-2.411.885-4.604 2.058-6.731 3.319-2.118 1.272-4.153 2.655-6.111 4.139-1.959 1.483-3.845 3.062-5.646 4.753-1.792 1.703-3.52 3.492-5.032 5.566 2.407-.889 4.6-2.063 6.728-3.322zm30.756 0c2.119-1.271 4.153-2.655 6.114-4.135 1.962-1.479 3.848-3.058 5.649-4.75 1.793-1.702 3.52-3.492 5.029-5.57-2.411.885-4.604 2.058-6.731 3.319-2.118 1.272-4.153 2.655-6.111 4.139-1.959 1.483-3.845 3.062-5.646 4.753-1.792 1.703-3.52 3.492-5.032 5.566 2.408-.889 4.6-2.063 6.728-3.322zm30.756 0c2.119-1.271 4.152-2.655 6.114-4.135 1.962-1.479 3.848-3.058 5.649-4.75 1.793-1.702 3.52-3.492 5.029-5.57-2.411.885-4.604 2.058-6.731 3.319-2.118 1.272-4.153 2.655-6.111 4.139-1.959 1.483-3.845 3.062-5.646 4.753-1.792 1.703-3.52 3.492-5.032 5.566 2.408-.889 4.6-2.063 6.728-3.322zm-215.294-55.524c2.119-1.271 4.153-2.655 6.114-4.135 1.962-1.479 3.848-3.058 5.649-4.75 1.793-1.702 3.52-3.492 5.029-5.57-2.411.885-4.604 2.058-6.731 3.319-2.118 1.272-4.153 2.655-6.111 4.139-1.959 1.483-3.845 3.062-5.646 4.753-1.792 1.703-3.52 3.492-5.032 5.566 2.409-.889 4.601-2.063 6.728-3.322zm30.757 0c2.119-1.271 4.153-2.655 6.114-4.135 1.962-1.479 3.848-3.058 5.649-4.75 1.793-1.702 3.52-3.492 5.029-5.57-2.411.885-4.604 2.058-6.731 3.319-2.119 1.272-4.153 2.655-6.111 4.139-1.959 1.483-3.845 3.062-5.646 4.753-1.792 1.703-3.52 3.492-5.032 5.566 2.408-.889 4.6-2.063 6.728-3.322zm30.756 0c2.119-1.271 4.153-2.655 6.114-4.135 1.962-1.479 3.848-3.058 5.649-4.75 1.793-1.702 3.52-3.492 5.029-5.57-2.411.885-4.604 2.058-6.731 3.319-2.118 1.272-4.153 2.655-6.111 4.139-1.959 1.483-3.845 3.062-5.646 4.753-1.792 1.703-3.52 3.492-5.032 5.566 2.408-.889 4.6-2.063 6.728-3.322zm30.756 0c2.119-1.271 4.153-2.655 6.114-4.135 1.962-1.479 3.848-3.058 5.649-4.75 1.793-1.702 3.52-3.492 5.029-5.57-2.411.885-4.604 2.058-6.731 3.319-2.119 1.272-4.153 2.655-6.111 4.139-1.959 1.483-3.845 3.062-5.646 4.753-1.792 1.703-3.52 3.492-5.032 5.566 2.408-.889 4.6-2.063 6.728-3.322zm30.756 0c2.119-1.271 4.153-2.655 6.114-4.135 1.962-1.479 3.848-3.058 5.649-4.75 1.793-1.702 3.52-3.492 5.029-5.57-2.411.885-4.604 2.058-6.731 3.319-2.119 1.272-4.153 2.655-6.111 4.139-1.959 1.483-3.845 3.062-5.646 4.753-1.792 1.703-3.52 3.492-5.032 5.566 2.408-.889 4.601-2.063 6.728-3.322zm30.757 0c2.119-1.271 4.153-2.655 6.114-4.135 1.962-1.479 3.848-3.058 5.649-4.75 1.793-1.702 3.52-3.492 5.029-5.57-2.411.885-4.604 2.058-6.731 3.319-2.118 1.272-4.153 2.655-6.111 4.139-1.959 1.483-3.845 3.062-5.646 4.753-1.792 1.703-3.52 3.492-5.032 5.566 2.407-.889 4.6-2.063 6.728-3.322zm30.756 0c2.119-1.271 4.153-2.655 6.114-4.135 1.962-1.479 3.848-3.058 5.649-4.75 1.793-1.702 3.52-3.492 5.029-5.57-2.411.885-4.604 2.058-6.731 3.319-2.118 1.272-4.153 2.655-6.111 4.139-1.959 1.483-3.845 3.062-5.646 4.753-1.792 1.703-3.52 3.492-5.032 5.566 2.408-.889 4.6-2.063 6.728-3.322zm-153.781-27.762c2.119-1.271 4.153-2.655 6.114-4.135 1.962-1.479 3.848-3.059 5.649-4.75 1.793-1.702 3.52-3.492 5.029-5.57-2.411.885-4.604 2.058-6.731 3.319-2.119 1.272-4.153 2.655-6.111 4.139-1.959 1.483-3.845 3.062-5.646 4.753-1.792 1.703-3.52 3.492-5.032 5.566 2.408-.889 4.6-2.063 6.728-3.322zm-30.757 83.286c2.119-1.271 4.153-2.655 6.114-4.135 1.962-1.479 3.848-3.058 5.649-4.75 1.793-1.702 3.52-3.492 5.029-5.57-2.411.885-4.604 2.058-6.731 3.319-2.118 1.272-4.153 2.655-6.111 4.139-1.959 1.483-3.845 3.062-5.646 4.753-1.792 1.703-3.52 3.492-5.032 5.566 2.409-.889 4.601-2.063 6.728-3.322zm0-55.524c2.119-1.271 4.153-2.655 6.114-4.135 1.962-1.479 3.848-3.058 5.649-4.75 1.793-1.702 3.52-3.492 5.029-5.57-2.411.885-4.604 2.058-6.731 3.319-2.118 1.272-4.153 2.655-6.111 4.139-1.959 1.483-3.845 3.062-5.646 4.753-1.792 1.703-3.52 3.492-5.032 5.566 2.409-.889 4.601-2.063 6.728-3.322zm-30.756 27.762c2.119-1.271 4.152-2.655 6.114-4.135 1.962-1.479 3.848-3.058 5.649-4.75 1.793-1.702 3.52-3.492 5.029-5.57-2.411.885-4.604 2.058-6.731 3.319-2.118 1.272-4.153 2.655-6.111 4.139-1.959 1.483-3.845 3.062-5.646 4.753-1.792 1.703-3.52 3.492-5.032 5.566 2.408-.889 4.601-2.063 6.728-3.322zm92.269-55.524c2.119-1.271 4.153-2.655 6.114-4.135 1.962-1.479 3.848-3.059 5.649-4.75 1.793-1.702 3.52-3.492 5.029-5.57-2.411.885-4.604 2.058-6.731 3.319-2.118 1.272-4.153 2.655-6.111 4.139-1.959 1.483-3.845 3.062-5.646 4.753-1.792 1.703-3.52 3.492-5.032 5.566 2.408-.889 4.6-2.063 6.728-3.322zm30.756 0c2.119-1.271 4.153-2.655 6.114-4.135 1.962-1.479 3.848-3.059 5.649-4.75 1.793-1.702 3.52-3.492 5.029-5.57-2.411.885-4.604 2.058-6.731 3.319-2.119 1.272-4.153 2.655-6.111 4.139-1.959 1.483-3.845 3.062-5.646 4.753-1.792 1.703-3.52 3.492-5.032 5.566 2.408-.889 4.6-2.063 6.728-3.322zm30.756 0c2.119-1.271 4.153-2.655 6.114-4.135 1.962-1.479 3.848-3.059 5.649-4.75 1.793-1.702 3.52-3.492 5.029-5.57-2.411.885-4.604 2.058-6.731 3.319-2.119 1.272-4.153 2.655-6.111 4.139-1.959 1.483-3.845 3.062-5.646 4.753-1.792 1.703-3.52 3.492-5.032 5.566 2.408-.889 4.601-2.063 6.728-3.322zm29.614.864c1.738-.983 3.391-2.079 4.971-3.271 1.581-1.191 3.086-2.483 4.506-3.886 1.412-1.414 2.758-2.916 3.887-4.706-2.03.597-3.842 1.482-5.588 2.455-1.738.984-3.391 2.079-4.968 3.275-1.578 1.195-3.083 2.486-4.503 3.89-1.411 1.415-2.758 2.916-3.889 4.702 2.026-.602 3.837-1.488 5.584-2.459z" fill="url(#SVGID_24_)"/><path d="m254.303 386.528c140.448 0 254.303-13.949 254.303-31.156h-508.606c0 17.207 113.855 31.156 254.303 31.156z" fill="url(#SVGID_25_)"/></g></svg>