<svg id="Capa_1" enable-background="new 0 0 512 512" height="512" viewBox="0 0 512 512" width="512" xmlns="http://www.w3.org/2000/svg" xmlns:xlink="http://www.w3.org/1999/xlink"><radialGradient id="SVGID_1_" cx="79.212" cy="92.404" gradientTransform="matrix(.533 .701 -.373 .506 59.913 -9.934)" gradientUnits="userSpaceOnUse" r="70.981"><stop offset="0" stop-color="#544f57"/><stop offset=".339" stop-color="#59535c"/><stop offset=".7192" stop-color="#666069"/><stop offset="1" stop-color="#756e78"/></radialGradient><linearGradient id="lg1"><stop offset="0" stop-color="#f1d0d5"/><stop offset=".2984" stop-color="#f0cdd2"/><stop offset=".5139" stop-color="#edc4ca"/><stop offset=".7032" stop-color="#e8b4bb"/><stop offset=".8765" stop-color="#e19ea6"/><stop offset="1" stop-color="#da8993"/></linearGradient><radialGradient id="SVGID_2_" cx="87.643" cy="96.749" gradientTransform="matrix(-.705 -.71 .708 -.703 80.855 226.992)" gradientUnits="userSpaceOnUse" r="54.13" xlink:href="#lg1"/><linearGradient id="lg2"><stop offset="0" stop-color="#756e78"/><stop offset=".5607" stop-color="#736c76"/><stop offset=".7626" stop-color="#6c666f"/><stop offset=".9061" stop-color="#615b64"/><stop offset=".9978" stop-color="#544f57"/></linearGradient><radialGradient id="SVGID_3_" cx="44.519" cy="106.82" gradientTransform="matrix(.713 .701 -.882 .896 107.002 -20.148)" gradientUnits="userSpaceOnUse" r="65.516" xlink:href="#lg2"/><radialGradient id="SVGID_4_" cx="8.456" cy="73.539" gradientTransform="matrix(1 0 0 .911 0 6.582)" gradientUnits="userSpaceOnUse" r="141.421"><stop offset="0" stop-color="#d0cee7"/><stop offset=".1533" stop-color="#aca8bb"/><stop offset=".3078" stop-color="#8e8896"/><stop offset=".452" stop-color="#78717c"/><stop offset=".5802" stop-color="#6b636c"/><stop offset=".6795" stop-color="#665e66"/></radialGradient><radialGradient id="SVGID_5_" cx="1.619" cy="124.591" gradientTransform="matrix(1 0 0 .911 0 11.152)" gradientUnits="userSpaceOnUse" r="48.755"><stop offset="0" stop-color="#544f57"/><stop offset=".0177" stop-color="#555058"/><stop offset=".3157" stop-color="#67616a"/><stop offset=".6327" stop-color="#726b75"/><stop offset="1" stop-color="#756e78"/></radialGradient><linearGradient id="lg3"><stop offset="0" stop-color="#454045"/><stop offset=".4638" stop-color="#4e4950"/><stop offset="1" stop-color="#544f57"/></linearGradient><radialGradient id="SVGID_6_" cx="460.541" cy="266.269" gradientTransform="matrix(1 0 0 .771 0 60.961)" gradientUnits="userSpaceOnUse" r="123.59" xlink:href="#lg3"/><linearGradient id="lg4"><stop offset=".2404" stop-color="#454045"/><stop offset=".3211" stop-color="#4c474e"/><stop offset=".4651" stop-color="#524d55"/><stop offset=".788" stop-color="#544f57"/></linearGradient><linearGradient id="SVGID_7_" gradientUnits="userSpaceOnUse" x1="187.575" x2="97.562" xlink:href="#lg4" y1="356.591" y2="379.567"/><linearGradient id="lg5"><stop offset=".2207" stop-color="#665e66"/><stop offset="1" stop-color="#544f57"/></linearGradient><radialGradient id="SVGID_8_" cx="93.522" cy="421.618" gradientTransform="matrix(.996 -.085 .066 .768 -27.314 105.66)" gradientUnits="userSpaceOnUse" r="41.623" xlink:href="#lg5"/><radialGradient id="SVGID_9_" cx="127.427" cy="277.084" gradientTransform="matrix(.707 .707 -.545 .545 188.394 35.908)" gradientUnits="userSpaceOnUse" r="55.622" xlink:href="#lg3"/><linearGradient id="SVGID_10_" gradientUnits="userSpaceOnUse" x1="307.755" x2="412.588" xlink:href="#lg4" y1="382.383" y2="382.383"/><radialGradient id="SVGID_11_" cx="311.511" cy="299.992" gradientTransform="matrix(1 0 0 .771 0 68.681)" gradientUnits="userSpaceOnUse" r="110.821" xlink:href="#lg3"/><radialGradient id="SVGID_12_" cx="314.961" cy="421.618" gradientTransform="matrix(.996 -.085 .066 .768 -26.511 124.496)" gradientUnits="userSpaceOnUse" r="41.623" xlink:href="#lg5"/><radialGradient id="SVGID_13_" cx="266.761" cy="106.68" gradientTransform="matrix(1 0 0 .671 0 35.114)" gradientUnits="userSpaceOnUse" r="304.838"><stop offset="0" stop-color="#afaab4"/><stop offset=".2251" stop-color="#867f89"/><stop offset=".3437" stop-color="#756e78"/><stop offset=".6909" stop-color="#665f69"/><stop offset="1" stop-color="#544f57"/></radialGradient><radialGradient id="SVGID_14_" cx="115.455" cy="228.253" fx="97.012" fy="266.478" gradientTransform="matrix(.995 .096 -.064 .668 15.237 64.751)" gradientUnits="userSpaceOnUse" r="131.31"><stop offset=".0099" stop-color="#d0cee7"/><stop offset=".1306" stop-color="#b4afc3"/><stop offset=".3237" stop-color="#8b818e"/><stop offset=".5317" stop-color="#7f7682"/><stop offset=".6553" stop-color="#756e78"/><stop offset="1" stop-color="#544f57"/></radialGradient><radialGradient id="SVGID_15_" cx="104.493" cy="172.893" gradientTransform="matrix(.713 .701 -.882 .896 182.505 -55.362)" gradientUnits="userSpaceOnUse" r="65.724"><stop offset=".0022" stop-color="#544f57"/><stop offset=".6068" stop-color="#6b656e"/><stop offset="1" stop-color="#756e78"/></radialGradient><radialGradient id="SVGID_16_" cx="103.237" cy="138.949" gradientTransform="matrix(.713 .701 -.882 .896 152.206 -58.001)" gradientUnits="userSpaceOnUse" r="67.422" xlink:href="#lg2"/><linearGradient id="lg6"><stop offset=".2734" stop-color="#665e66"/><stop offset=".788" stop-color="#544f57"/></linearGradient><linearGradient id="SVGID_17_" gradientUnits="userSpaceOnUse" x1="411.985" x2="466.156" xlink:href="#lg6" y1="382.409" y2="292.657"/><linearGradient id="SVGID_18_" gradientUnits="userSpaceOnUse" x1="408.883" x2="408.883" y1="447.62" y2="337.331"><stop offset=".2678" stop-color="#756e78"/><stop offset=".4084" stop-color="#6c656e"/><stop offset=".5768" stop-color="#665e66"/><stop offset=".7953" stop-color="#5e575f"/><stop offset=".9645" stop-color="#544f57"/></linearGradient><radialGradient id="SVGID_19_" cx="364.336" cy="294.688" gradientTransform="matrix(.28 -.96 .74 .216 44.262 580.908)" gradientUnits="userSpaceOnUse" r="107.567"><stop offset="0" stop-color="#8b818e"/><stop offset=".5296" stop-color="#756e78"/><stop offset=".7478" stop-color="#6c646d"/><stop offset="1" stop-color="#665e66"/></radialGradient><linearGradient id="lg7"><stop offset=".1103" stop-color="#d0cee7"/><stop offset=".262" stop-color="#bcb8cd"/><stop offset=".5706" stop-color="#8b818e"/><stop offset=".9882" stop-color="#665e66"/></linearGradient><radialGradient id="SVGID_20_" cx="272.691" cy="260.266" gradientTransform="matrix(.649 -.761 .616 .526 -64.567 330.894)" gradientUnits="userSpaceOnUse" r="152.409" xlink:href="#lg7"/><linearGradient id="lg8"><stop offset=".0485" stop-color="#d0cee7"/><stop offset=".0788" stop-color="#c9c7de"/><stop offset=".2467" stop-color="#a8a1b3"/><stop offset=".3776" stop-color="#938a98"/><stop offset=".4545" stop-color="#8b818e"/><stop offset=".5643" stop-color="#807782"/><stop offset=".8597" stop-color="#665e66"/></linearGradient><radialGradient id="SVGID_21_" cx="379.115" cy="418.724" gradientTransform="matrix(.996 -.085 .066 .768 -26.089 129.283)" gradientUnits="userSpaceOnUse" r="41.623" xlink:href="#lg8"/><linearGradient id="SVGID_22_" gradientUnits="userSpaceOnUse" x1="210.274" x2="289.359" xlink:href="#lg6" y1="361.129" y2="230.097"/><linearGradient id="SVGID_23_" gradientUnits="userSpaceOnUse" x1="184.005" x2="184.005" y1="447.954" y2="330.363"><stop offset=".4337" stop-color="#756e78"/><stop offset=".5736" stop-color="#6c656e"/><stop offset=".7411" stop-color="#665e66"/></linearGradient><radialGradient id="SVGID_24_" cx="157.676" cy="418.724" gradientTransform="matrix(.996 -.085 .066 .768 -26.892 110.447)" gradientUnits="userSpaceOnUse" r="41.623" xlink:href="#lg8"/><radialGradient id="SVGID_25_" cx="197.595" cy="254.178" gradientTransform="matrix(.703 -.712 .643 .635 -104.612 233.435)" gradientUnits="userSpaceOnUse" r="99.662"><stop offset="0" stop-color="#8b818e"/><stop offset=".0111" stop-color="#8a808d"/><stop offset=".5499" stop-color="#706771"/><stop offset=".8597" stop-color="#665e66"/></radialGradient><radialGradient id="SVGID_26_" cx="146.254" cy="255.635" gradientTransform="matrix(.649 -.761 .616 .526 -106.06 232.536)" gradientUnits="userSpaceOnUse" r="96.313" xlink:href="#lg7"/><radialGradient id="SVGID_27_" cx="416.493" cy="2893.965" gradientTransform="matrix(.931 0 0 .112 -118.375 119.541)" gradientUnits="userSpaceOnUse" r="278.452"><stop offset="0" stop-color="#c6c1c8"/><stop offset=".2432" stop-color="#dddbdf"/><stop offset=".4962" stop-color="#f1f1f4"/><stop offset=".6787" stop-color="#fafafb"/><stop offset=".8982" stop-color="#fff"/></radialGradient><radialGradient id="SVGID_28_" cx="7.459" cy="585.027" gradientTransform="matrix(.762 -.571 .647 .669 -376.781 -268.268)" gradientUnits="userSpaceOnUse" r="24.749"><stop offset="0" stop-color="#dddaec"/><stop offset=".3465" stop-color="#aba4b3"/><stop offset=".5597" stop-color="#8b818e"/><stop offset="1" stop-color="#756e78"/></radialGradient><radialGradient id="SVGID_29_" cx="124.883" cy="114.048" gradientTransform="matrix(-.015 -1 .635 -.017 31.405 240.857)" gradientUnits="userSpaceOnUse" r="103.983"><stop offset="0" stop-color="#665e66"/><stop offset=".4001" stop-color="#756e78"/><stop offset=".5725" stop-color="#7a727d"/><stop offset=".7531" stop-color="#867e89"/><stop offset="1" stop-color="#a298a5"/></radialGradient><radialGradient id="SVGID_30_" cx="122.009" cy="96.749" gradientTransform="matrix(-.705 -.71 .708 -.703 139.433 251.379)" gradientUnits="userSpaceOnUse" r="54.13" xlink:href="#lg1"/><g><path d="m94.199 91.333h-26.497v-50.067c0-2.092 2.457-3.217 4.041-1.85 14.259 12.309 22.456 30.214 22.456 49.051z" fill="url(#SVGID_1_)"/><path d="m73.08 81.914c-2.97 0-5.378-2.408-5.378-5.378v-35.27c6.956 8.519 10.756 19.179 10.756 30.177v5.093c0 2.97-2.408 5.378-5.378 5.378z" fill="url(#SVGID_2_)"/><path d="m25.237 159.952c3.37 2.564 7.488 3.953 11.723 3.953h47.7l5.074-19.41-69.126 11.935z" fill="url(#SVGID_3_)"/><path d="m95.435 74.45h-32.47c-.524 0-1.046.012-1.567.035-11.938.526-22.467 8.019-27.499 18.857l-.337.726c-3.336 7.185-8.997 13.036-16.069 16.606l-7.331 3.701c-3.523 1.778-6.466 4.607-8.124 8.188l-.032.07 93.43 16.898v-65.081z" fill="url(#SVGID_4_)"/><path d="m2.005 122.634c-2.105 4.588-2.603 9.84-1.255 14.869l2.467 9.207c1.536 5.734 6.732 9.721 12.668 9.721h69.675l4.071-33.796h-87.626z" fill="url(#SVGID_5_)"/><path d="m493.46 428.729c-2.371 1.901-5.408 3.005-8.705 2.908-7.255-.214-12.89-6.455-12.89-13.713v-167.17c0-15.883-5.308-31.311-15.08-43.832v208.585c0 14.433 11.417 26.628 25.85 26.796 6.413.075 12.303-2.158 16.89-5.92 2.216-1.817 2.338-5.175.312-7.201-1.717-1.716-4.482-1.972-6.377-.453z" fill="url(#SVGID_6_)"/><path d="m110.175 346.545v96.037h26.422l5.326-47.12 16.731-104.468z" fill="url(#SVGID_7_)"/><path d="m109.229 420.395h9.563c6.945 0 12.575 5.63 12.575 12.575v9.612h-34.713v-9.612c0-6.945 5.63-12.575 12.575-12.575z" fill="url(#SVGID_8_)"/><path d="m142.374 204.789c-18.089.496-32.276 15.792-32.276 33.888l.077 107.869 44.304-44.296c14.111-14.108 22.038-33.245 22.038-53.198v-11.066c0-18.652-15.376-33.712-34.143-33.197z" fill="url(#SVGID_9_)"/><path d="m353.764 322.185-25.068 15.529 25.782 40.74-18.886 64.128h28.785l19.026-72.977z" fill="url(#SVGID_10_)"/><path d="m324.3 207.583c-24.498.908-44.39 21-45.074 45.505-.297 10.621 2.953 20.463 8.634 28.456l-13.543.004 54.379 56.166c10.089 13.871 27.784 19.94 44.262 15.179v-98.468c-.001-26.48-21.958-47.832-48.658-46.842z" fill="url(#SVGID_11_)"/><path d="m330.668 420.395h9.563c6.945 0 12.575 5.63 12.575 12.575v9.612h-34.713v-9.612c0-6.945 5.63-12.575 12.575-12.575z" fill="url(#SVGID_12_)"/><path d="m259.991 160.685-23.285 3.114c-23.994 3.209-47.553-8.38-59.657-29.345l-16.627-28.799c-11.148-19.31-31.752-31.205-54.048-31.205h-20.842l1.3 89.454.998.586c8.278 4.865 19.616 14.492 19.616 24.094l2.652 37.48c0 42.895 25.866 76.654 68.761 76.654h227.241c26.428 0 49.908-16.867 58.345-41.912 3.792-11.257 4.214-23.378 1.211-34.871-10.546-40.375-47.015-68.542-88.744-68.542h-53.957c-16.532.001-46.577 1.101-62.964 3.292z" fill="url(#SVGID_13_)"/><path d="m128.249 225.052v-37.21c0-18.071-18.007-33.6-41.427-24.577l.009.64.998.586c8.278 4.865 13.361 13.749 13.361 23.351v37.21c0 42.895 34.773 77.668 77.668 77.668h27.059c-42.895 0-77.668-34.774-77.668-77.668z" fill="url(#SVGID_14_)"/><path d="m142.138 151.914c6.462-6.462 10.092-15.226 10.092-24.364v-21.555c0-14.533-11.781-26.314-26.314-26.314h-25.25c-.524 0-1.046.011-1.567.034-3.606.16-7.083.955-10.319 2.285l1.19 81.905.998.586c2.19 1.287 4.157 2.856 5.865 4.645h5.133c14.695 0 28.788-5.837 39.179-16.228z" fill="url(#SVGID_15_)"/><path d="m120.685 74.45h-25.25c-.524 0-1.046.012-1.567.035-11.938.526-22.467 8.019-27.498 18.857l-.337.726c-3.336 7.185-8.997 13.036-16.069 16.606l-7.337 3.703c-3.499 1.767-6.431 4.569-8.09 8.12-2.157 4.62-2.678 9.926-1.317 15.004l2.467 9.207c1.536 5.734 6.732 9.721 12.668 9.721h4.723l4.63 3.522c3.37 2.564 7.488 3.953 11.723 3.953h27.304c14.695 0 28.788-5.838 39.179-16.228l.993-.993c6.462-6.462 10.092-15.226 10.092-24.364v-21.554c0-14.533-11.781-26.315-26.314-26.315z" fill="url(#SVGID_16_)"/><path d="m414.543 322.185-25.069 15.529 25.782 40.74-18.886 64.128h28.785l19.027-72.977z" fill="url(#SVGID_17_)"/><path d="m402.51 337.714 15.671-9.708-3.638-5.821-25.069 15.529 25.782 40.74-18.886 64.128h13.036l18.886-64.128z" fill="url(#SVGID_18_)"/><path d="m385.078 207.583c-24.498.908-44.39 21-45.074 45.505-.297 10.621 2.953 20.463 8.634 28.456l-.013.004 40.849 56.166c10.089 13.871 27.784 19.94 44.262 15.179v-98.468c0-26.48-21.957-47.832-48.658-46.842z" fill="url(#SVGID_19_)"/><path d="m402.51 337.714-40.849-56.166.013-.004c-5.681-7.993-8.93-17.835-8.634-28.456.639-22.896 18.048-41.934 40.313-45.077-2.694-.373-5.456-.532-8.275-.428-24.498.908-44.39 21-45.074 45.505-.297 10.62 2.953 20.463 8.634 28.456l-.013.004 40.849 56.166c9.12 12.539 24.454 18.699 39.487 16.251-10.392-1.683-19.985-7.361-26.451-16.251z" fill="url(#SVGID_20_)"/><path d="m391.446 420.395h9.563c6.945 0 12.575 5.63 12.575 12.575v9.612h-34.713v-9.612c0-6.945 5.63-12.575 12.575-12.575z" fill="url(#SVGID_21_)"/><path d="m176.883 346.545v96.037h26.422l5.326-47.12 18.328-114.439z" fill="url(#SVGID_22_)"/><path d="m176.883 442.582h14.308l-.099-128.367-14.273 32.33z" fill="url(#SVGID_23_)"/><path d="m170.008 420.395h9.563c6.945 0 12.575 5.63 12.575 12.575v9.612h-34.713v-9.612c-.001-6.945 5.629-12.575 12.575-12.575z" fill="url(#SVGID_24_)"/><path d="m209.082 204.789c-18.089.496-32.276 15.792-32.276 33.888l.077 107.869 44.304-44.296c14.111-14.108 22.038-33.245 22.038-53.198v-11.066c0-18.652-15.376-33.712-34.143-33.197z" fill="url(#SVGID_25_)"/><path d="m191.114 238.676c0-15.971 11.055-29.755 26.087-33.113-2.605-.575-5.323-.851-8.118-.774-18.089.496-32.276 15.792-32.276 33.888l.077 107.869 14.301-14.298z" fill="url(#SVGID_26_)"/><path d="m265.089 473.182c136.365 0 246.911-13.544 246.911-30.6h-493.821c0 17.057 110.545 30.6 246.91 30.6z" fill="url(#SVGID_27_)"/><path d="m27.021 128.668c0 3.333-6.566 9.857-10.741 9.857s-10.74-6.524-10.74-9.857 4.809-6.035 10.741-6.035 10.74 2.703 10.74 6.035z" fill="url(#SVGID_28_)"/><path d="m128.564 91.333h-26.497v-50.067c0-2.092 2.457-3.217 4.041-1.85 14.259 12.309 22.456 30.214 22.456 49.051z" fill="url(#SVGID_29_)"/><path d="m112.824 81.914h-5.378c-2.97 0-5.378-2.408-5.378-5.378v-35.27c6.956 8.519 10.756 19.179 10.756 30.177z" fill="url(#SVGID_30_)"/></g></svg>