<svg id="Capa_1" enable-background="new 0 0 512 512" height="512" viewBox="0 0 512 512" width="512" xmlns="http://www.w3.org/2000/svg" xmlns:xlink="http://www.w3.org/1999/xlink"><radialGradient id="SVGID_1_" cx="79.664" cy="63.964" gradientTransform="matrix(.813 -.582 .454 .633 -14.116 69.857)" gradientUnits="userSpaceOnUse" r="33.625"><stop offset=".0198" stop-color="#ddfbea"/><stop offset=".9822" stop-color="#80bc93"/></radialGradient><radialGradient id="SVGID_2_" cx="32.799" cy="110.201" gradientTransform="matrix(.914 -.406 .266 .598 -26.472 57.624)" gradientUnits="userSpaceOnUse" r="52.587"><stop offset=".4975" stop-color="#f9efaf"/><stop offset=".6469" stop-color="#f6e39f"/><stop offset=".9385" stop-color="#eec575"/><stop offset="1" stop-color="#ecbe6b"/></radialGradient><radialGradient id="SVGID_3_" cx="155.618" cy="379.602" gradientTransform="matrix(1 0 0 .809 0 72.478)" gradientUnits="userSpaceOnUse" r="60.86"><stop offset=".303" stop-color="#eab14d"/><stop offset=".5509" stop-color="#eaaf4a"/><stop offset=".7406" stop-color="#e8a940"/><stop offset=".9105" stop-color="#e69f30"/><stop offset="1" stop-color="#e49824"/></radialGradient><radialGradient id="SVGID_4_" cx="335.98" cy="136.148" gradientTransform="matrix(.989 .15 -.098 .647 17.13 -2.278)" gradientUnits="userSpaceOnUse" r="379.692"><stop offset=".1293" stop-color="#f6f1f1"/><stop offset=".3408" stop-color="#f1e9e7"/><stop offset=".525" stop-color="#eadfda"/><stop offset=".7311" stop-color="#d1c6c4"/><stop offset=".9362" stop-color="#b4aaaa"/></radialGradient><radialGradient id="SVGID_5_" cx="125.304" cy="322.207" gradientTransform="matrix(.989 .15 -.098 .647 32.991 94.885)" gradientUnits="userSpaceOnUse" r="96.208"><stop offset="0" stop-color="#eadfda"/><stop offset=".4691" stop-color="#d1c6c4"/><stop offset=".9362" stop-color="#b4aaaa"/></radialGradient><radialGradient id="SVGID_6_" cx="174.412" cy="408.832" gradientUnits="userSpaceOnUse" r="46.568"><stop offset=".0161" stop-color="#fbf4c6"/><stop offset=".1922" stop-color="#f5dd9f"/><stop offset=".3538" stop-color="#f0cc82"/><stop offset=".4944" stop-color="#edc271"/><stop offset=".5983" stop-color="#ecbe6b"/></radialGradient><radialGradient id="SVGID_7_" cx="340.558" cy="136.148" gradientTransform="matrix(.989 .15 -.098 .647 17.181 -2.963)" gradientUnits="userSpaceOnUse" r="376.111"><stop offset=".1293" stop-color="#80bc93"/><stop offset=".3459" stop-color="#76b68b"/><stop offset=".5346" stop-color="#69af81"/><stop offset=".7428" stop-color="#58966b"/><stop offset=".9433" stop-color="#457a52"/></radialGradient><radialGradient id="SVGID_8_" cx="103.091" cy="150.426" gradientTransform="matrix(.989 .15 -.098 .647 15.905 37.623)" gradientUnits="userSpaceOnUse" r="68.666"><stop offset=".1293" stop-color="#80bc93"/><stop offset=".3459" stop-color="#76b68b"/><stop offset=".5346" stop-color="#69af81"/></radialGradient><radialGradient id="SVGID_9_" cx="109.973" cy="128.379" gradientTransform="matrix(.989 .15 -.148 .974 20.181 -13.183)" gradientUnits="userSpaceOnUse" r="115.42"><stop offset=".0567" stop-color="#457a52"/><stop offset=".2418" stop-color="#58966b"/><stop offset=".434" stop-color="#69af81"/></radialGradient><radialGradient id="SVGID_10_" cx="147.498" cy="102.437" gradientTransform="matrix(.813 -.582 .454 .633 -18.88 123.476)" gradientUnits="userSpaceOnUse" r="75.149"><stop offset=".4931" stop-color="#69af81"/><stop offset=".6609" stop-color="#66ab7d"/><stop offset=".8351" stop-color="#5d9e71"/><stop offset=".9802" stop-color="#528e61"/></radialGradient><radialGradient id="SVGID_11_" cx="211.565" cy="396.638" gradientTransform="matrix(1 0 0 .809 0 75.731)" gradientUnits="userSpaceOnUse" r="74.438"><stop offset="0" stop-color="#fff9e2"/><stop offset=".4401" stop-color="#ecbe6b"/><stop offset=".5671" stop-color="#ebb961"/><stop offset=".7839" stop-color="#e8aa45"/><stop offset="1" stop-color="#e49824"/></radialGradient><radialGradient id="SVGID_12_" cx="174.798" cy="409.742" gradientUnits="userSpaceOnUse" r="36.852"><stop offset=".0161" stop-color="#fbf4c6"/><stop offset=".2351" stop-color="#f5dd9f"/><stop offset=".5534" stop-color="#ecbe6b"/><stop offset=".6466" stop-color="#ebbb65"/><stop offset=".7752" stop-color="#e9b153"/><stop offset=".924" stop-color="#e6a136"/><stop offset="1" stop-color="#e49824"/></radialGradient><radialGradient id="SVGID_13_" cx="227.121" cy="408.157" gradientUnits="userSpaceOnUse" r="53.473"><stop offset=".0161" stop-color="#fbf4c6"/><stop offset=".1338" stop-color="#f5dd9f"/><stop offset=".2418" stop-color="#f0cc82"/><stop offset=".3358" stop-color="#edc271"/><stop offset=".4052" stop-color="#ecbe6b"/><stop offset=".5293" stop-color="#ebbb65"/><stop offset=".7007" stop-color="#e9b153"/><stop offset=".8988" stop-color="#e6a136"/><stop offset="1" stop-color="#e49824"/></radialGradient><linearGradient id="SVGID_14_" gradientUnits="userSpaceOnUse" x1="250.673" x2="257.386" y1="327.548" y2="384.93"><stop offset="0" stop-color="#9b9595"/><stop offset=".0264" stop-color="#9e9898"/><stop offset=".2389" stop-color="#b4adaa"/><stop offset=".443" stop-color="#c1bab5"/><stop offset=".6281" stop-color="#c6beb9"/></linearGradient><radialGradient id="SVGID_15_" cx="225.8" cy="245.361" gradientTransform="matrix(.989 .15 -.066 .438 18.817 104.087)" gradientUnits="userSpaceOnUse" r="212.309"><stop offset="0" stop-color="#f6f1f1"/><stop offset=".2747" stop-color="#f1e9e7"/><stop offset=".514" stop-color="#eadfda"/><stop offset=".6353" stop-color="#e3d9d4"/><stop offset=".806" stop-color="#d1c7c4"/><stop offset="1" stop-color="#b4aaaa"/></radialGradient><radialGradient id="SVGID_16_" cx="168.714" cy="217.409" gradientTransform="matrix(.989 .15 -.131 .867 30.445 3.632)" gradientUnits="userSpaceOnUse" r="115.298"><stop offset="0" stop-color="#fff"/><stop offset=".169" stop-color="#f9f6f5"/><stop offset=".4541" stop-color="#eadfda"/><stop offset=".5904" stop-color="#e3d9d4"/><stop offset=".7822" stop-color="#d1c7c4"/><stop offset="1" stop-color="#b4aaaa"/></radialGradient><radialGradient id="SVGID_17_" cx="78.243" cy="145.141" gradientTransform="matrix(.914 -.406 .266 .598 -31.843 90.132)" gradientUnits="userSpaceOnUse" r="48.9"><stop offset=".5675" stop-color="#ecbe6b"/><stop offset=".6656" stop-color="#ebb961"/><stop offset=".833" stop-color="#e8aa45"/><stop offset="1" stop-color="#e49824"/></radialGradient><radialGradient id="SVGID_18_" cx="332.238" cy="136.148" gradientTransform="matrix(.989 .15 -.098 .647 17.088 -1.718)" gradientUnits="userSpaceOnUse" r="367.964"><stop offset=".1293" stop-color="#b48e84"/><stop offset=".4" stop-color="#ac847a"/><stop offset=".5313" stop-color="#a77d73"/><stop offset=".7448" stop-color="#8e665d"/><stop offset=".9433" stop-color="#734d45"/></radialGradient><radialGradient id="SVGID_19_" cx="54.47" cy="207.426" gradientTransform="matrix(.989 .15 -.098 .647 20.943 65.005)" gradientUnits="userSpaceOnUse" r="140.041"><stop offset=".0453" stop-color="#e7c6bc"/><stop offset=".237" stop-color="#d0aca2"/><stop offset=".5291" stop-color="#b28a80"/><stop offset=".6875" stop-color="#a77d73"/></radialGradient><radialGradient id="SVGID_20_" cx="340.558" cy="136.148" gradientTransform="matrix(.989 .15 -.098 .647 17.181 -2.963)" gradientUnits="userSpaceOnUse" r="376.111"><stop offset=".1293" stop-color="#efe7e4"/><stop offset=".5352" stop-color="#eadfda"/><stop offset=".7424" stop-color="#d1c6c4"/><stop offset=".9486" stop-color="#b4aaaa"/></radialGradient><radialGradient id="SVGID_21_" cx="106.051" cy="142.208" gradientTransform="matrix(.989 .15 -.098 .647 15.133 34.281)" gradientUnits="userSpaceOnUse" r="50.749"><stop offset=".1293" stop-color="#f9f6f6"/><stop offset=".3162" stop-color="#f4eeec"/><stop offset=".5352" stop-color="#eadfda"/></radialGradient><radialGradient id="SVGID_22_" cx="281.069" cy="3263.062" gradientTransform="matrix(.931 0 0 .112 -31.713 63.151)" gradientUnits="userSpaceOnUse" r="219.014"><stop offset="0" stop-color="#efe7e4"/><stop offset=".4962" stop-color="#f9f6f6"/><stop offset=".8982" stop-color="#fff"/></radialGradient><g><path d="m125.924 58.5h-22.219c-18.405 0-34.804 11.618-40.91 28.98l-11.705 33.291 23.06 10.016 36.624 1.549c4.773.513 29.76-16.745 24.644-29.175l-.722-1.755c-2.95-7.168-9.935-11.847-17.687-11.847z" fill="url(#SVGID_1_)"/><path d="m59.202 97.701-7.989 9.686c-6.934 8.407-15.621 15.198-25.453 19.899l-11.886 5.682c-5.582 2.668-10.16 7.057-13.063 12.521l-.811 1.526h22.219l51.428-16.523 7.774-32.791z" fill="url(#SVGID_2_)"/><path d="m222.373 412.783h-15.159v-52.087h-13.624l-6.161 33.578c-1.967 10.723-11.313 18.51-22.215 18.51h-29.508c-8.11 0-14.684 6.574-14.684 14.684h116.034c.001-8.111-6.574-14.685-14.683-14.685z" fill="url(#SVGID_3_)"/><path d="m441.809 310.689c-28.401-42.613-68.11-76.474-114.675-97.785l-50.033-22.9c-30.204-13.824-64.611-15.308-95.893-4.135l-20.782 7.422-39.404 18.58-27.916 87.921 10.895 25.13c4.227 1.885 8.634 3.475 13.2 4.738l18.999 5.255c39.5 27.131 87.865 38.164 135.222 30.846l240.578-37.176z" fill="url(#SVGID_4_)"/><path d="m162.342 334.914-18.999-5.255c-4.566-1.263-8.973-2.853-13.2-4.738-14.383-6.415-26.676-16.263-36.001-28.389l-1.035 3.259 10.895 25.13c4.227 1.885 8.634 3.475 13.2 4.738l18.999 5.255c35.154 24.147 77.331 35.541 119.57 32.597-33.246-2.315-65.546-13.445-93.429-32.597z" fill="url(#SVGID_5_)"/><path d="m194.376 412.783h-8.318c-8.11 0-14.684 6.574-14.684 14.683h8.318c.001-8.109 6.575-14.683 14.684-14.683z" fill="url(#SVGID_6_)"/><path d="m179.952 165.481c8.899-12.674 13.169-27.203 13.169-41.587 0-.743-.01-1.479-.029-2.208-.946-35.316-30.45-63.186-65.778-63.186h-1.389l-1.525 78.265-8.106 6.522 20.139 16.095 36.246 16.458z" fill="url(#SVGID_7_)"/><path d="m135.156 149.143c9.75-7.845 15.524-19.606 15.768-32.119l-19.412-13.856-5.588-44.668-1.525 78.265-8.106 6.522 13.114 10.481z" fill="url(#SVGID_8_)"/><path d="m129.409 143.587c6.907 4.42 15.749 4.439 22.674.048 11.352-7.198 15.899-21.508 10.784-33.939l-.722-1.755c-2.95-7.168-9.935-11.847-17.687-11.847v-17.754c0-7.348-5.957-13.305-13.305-13.305-1.809 0-3.599.113-5.362.332l-1.391 71.399-3.704 2.98c3.075.822 6.015 2.114 8.713 3.841z" fill="url(#SVGID_9_)"/><path d="m139.229 71.805c0-7.348-5.957-13.305-13.305-13.305-18.405 0-34.804 11.618-40.91 28.98l-11.706 33.291 23.06 10.016 14.405 1.549c4.773.513 9.362 2.127 13.406 4.715 6.907 4.42 15.749 4.439 22.674.048 11.352-7.198 15.899-21.508 10.784-33.938l-.722-1.755c-2.95-7.168-9.935-11.847-17.687-11.847v-17.754z" fill="url(#SVGID_10_)"/><path d="m272.725 412.783h-15.159v-57.266h-12.674l-7.111 38.757c-1.967 10.723-11.313 18.51-22.215 18.51h-29.508c-8.11 0-14.684 6.574-14.684 14.684h116.034c0-8.111-6.574-14.685-14.683-14.685z" fill="url(#SVGID_11_)"/><path d="m193.9 412.783h-7.842c-8.11 0-14.684 6.574-14.684 14.683h7.842c0-8.109 6.574-14.683 14.684-14.683z" fill="url(#SVGID_12_)"/><path d="m244.891 355.516-7.111 38.757c-1.967 10.723-11.313 18.51-22.215 18.51h8.318c10.902 0 20.247-7.787 22.215-18.51l7.092-38.656z" fill="url(#SVGID_13_)"/><circle cx="251.425" cy="333.982" fill="url(#SVGID_14_)" r="28.884"/><path d="m425.504 270.78c-56.171 58.233-147.829 69.414-202.308 69.414s-98.642-31.078-98.642-69.414 44.164-69.414 98.642-69.414 202.308 69.414 202.308 69.414z" fill="url(#SVGID_15_)"/><path d="m144.16 270.78c0-35.65 38.191-65.022 87.352-68.964-2.963-.295-5.743-.45-8.316-.45-54.478 0-98.642 31.078-98.642 69.414s44.164 69.414 98.642 69.414c3.92 0 8.033-.058 12.312-.187-51.072-2.627-91.348-32.617-91.348-69.227z" fill="url(#SVGID_16_)"/><path d="m81.421 97.701-7.989 9.686c-6.934 8.407-15.621 15.198-25.453 19.899l-11.886 5.682c-5.582 2.668-10.16 7.057-13.063 12.521l-.811 1.526h12.035c13.591 0 27.055-2.609 39.663-7.685l21.95-8.838c2.47-.994 2.736-4.386.451-5.753l-3.476-2.081c-7.239-4.333-9.704-13.647-5.556-20.993l.684-1.211c.582-1.032-.685-2.111-1.611-1.372l-2.769 2.212c-1.375 1.098-3.33-.29-2.746-1.95z" fill="url(#SVGID_17_)"/><path d="m104.002 307.449c0-43.182 19.443-84.068 52.938-111.322l3.486-2.837 7.227-10.293-36.501-25.478-22.137-8.376-25.085 23.362c-20.588 16.565-29.584 38.103-29.584 64.527 0 37.308 16.366 73.042 49.655 87.889v-17.472z" fill="url(#SVGID_18_)"/><path d="m74.763 238.669c.241-26.431 12.814-51.244 33.408-67.813l18.624-14.985-17.779-6.727-27.836 22.395c-20.588 16.565-32.562 41.567-32.562 67.991 0 37.308 22.094 70.544 55.384 85.391v-17.462c-18.412-17.432-29.483-42.101-29.239-68.79z" fill="url(#SVGID_19_)"/><path d="m172.678 175.841-56.385-32.553-7.277 5.855 58.637 33.855z" fill="url(#SVGID_20_)"/><path d="m131.513 152.074-15.22-8.786-7.277 5.855 15.219 8.787z" fill="url(#SVGID_21_)"/><path d="m232.744 453.5c117.356 0 212.491-11.656 212.491-26.034h-424.982c0 14.378 95.135 26.034 212.491 26.034z" fill="url(#SVGID_22_)"/></g></svg>