<svg id="Capa_1" enable-background="new 0 0 512 512" height="512" viewBox="0 0 512 512" width="512" xmlns="http://www.w3.org/2000/svg" xmlns:xlink="http://www.w3.org/1999/xlink"><radialGradient id="SVGID_1_" cx="255.514" cy="358.23" gradientTransform="matrix(0 1 -.793 0 539.72 102.716)" gradientUnits="userSpaceOnUse" r="33.947"><stop offset="0" stop-color="#e49542"/><stop offset=".2502" stop-color="#e59b4d"/><stop offset=".6932" stop-color="#e9ac6b"/><stop offset=".9514" stop-color="#ecb780"/></radialGradient><radialGradient id="SVGID_2_" cx="231.583" cy="294.334" gradientTransform="matrix(1 0 0 .813 0 54.961)" gradientUnits="userSpaceOnUse" r="47.39"><stop offset="0" stop-color="#e7a561"/><stop offset=".115" stop-color="#e8a765"/><stop offset=".9671" stop-color="#ecb780"/></radialGradient><radialGradient id="SVGID_3_" cx="203.262" cy="119.365" gradientTransform="matrix(1 0 0 1.101 0 -12.004)" gradientUnits="userSpaceOnUse" r="159.279"><stop offset="0" stop-color="#8b818e"/><stop offset=".6483" stop-color="#665e66"/><stop offset=".8794" stop-color="#5c555d"/><stop offset="1" stop-color="#544f57"/></radialGradient><radialGradient id="SVGID_4_" cx="108.382" cy="232.761" gradientTransform="matrix(1 0 0 1.101 0 -23.408)" gradientUnits="userSpaceOnUse" r="99.879"><stop offset=".0622" stop-color="#d0cee7"/><stop offset=".4792" stop-color="#8b818e"/><stop offset=".8066" stop-color="#756c76"/><stop offset="1" stop-color="#665e66"/></radialGradient><radialGradient id="SVGID_5_" cx="287.226" cy="358.23" gradientTransform="matrix(0 1 -.793 0 571.432 71.004)" gradientUnits="userSpaceOnUse" r="33.947"><stop offset="0" stop-color="#ecb780"/><stop offset=".4776" stop-color="#edbe8b"/><stop offset="1" stop-color="#efc89d"/></radialGradient><radialGradient id="SVGID_6_" cx="202.458" cy="476.363" gradientTransform="matrix(1 0 0 1.262 0 -124.894)" gradientUnits="userSpaceOnUse" r="35.581"><stop offset="0" stop-color="#fff9e2"/><stop offset=".2356" stop-color="#fbebcf"/><stop offset=".7339" stop-color="#f2d2ab"/><stop offset="1" stop-color="#efc89d"/></radialGradient><radialGradient id="SVGID_7_" cx="256.773" cy="455.246" gradientTransform="matrix(1 0 0 1.262 0 -119.357)" gradientUnits="userSpaceOnUse" r="59.514"><stop offset="0" stop-color="#fff9e2"/><stop offset=".1125" stop-color="#fbeccf"/><stop offset=".2895" stop-color="#f6dcb9"/><stop offset=".4824" stop-color="#f2d1a9"/><stop offset=".7009" stop-color="#f0caa0"/><stop offset="1" stop-color="#efc89d"/></radialGradient><radialGradient id="SVGID_8_" cx="250.635" cy="252.286" gradientTransform="matrix(1 0 0 1.101 0 -25.371)" gradientUnits="userSpaceOnUse" r="47.39"><stop offset="0" stop-color="#ffead8"/><stop offset=".5062" stop-color="#f6d8b8"/><stop offset="1" stop-color="#efc89d"/></radialGradient><radialGradient id="SVGID_9_" cx="244.166" cy="263.589" gradientTransform="matrix(1 0 0 1.101 0 -26.508)" gradientUnits="userSpaceOnUse" r="77.205"><stop offset="0" stop-color="#fff9e2"/><stop offset=".1448" stop-color="#fcefd7"/><stop offset=".5419" stop-color="#f4d8bc"/><stop offset=".7401" stop-color="#f2d3b2"/><stop offset="1" stop-color="#efc89d"/></radialGradient><radialGradient id="SVGID_10_" cx="226.455" cy="269.464" gradientTransform="matrix(.703 -.712 .643 .635 -105.856 259.553)" gradientUnits="userSpaceOnUse" r="132.059"><stop offset="0" stop-color="#8b818e"/><stop offset=".0111" stop-color="#8a808d"/><stop offset=".5499" stop-color="#706771"/><stop offset=".8597" stop-color="#665e66"/></radialGradient><radialGradient id="SVGID_11_" cx="230.11" cy="256.091" gradientTransform="matrix(1 0 0 1.101 0 -25.754)" gradientUnits="userSpaceOnUse" r="81.68"><stop offset=".0622" stop-color="#d0cee7"/><stop offset=".5071" stop-color="#8b818e"/><stop offset=".7103" stop-color="#7e7580"/><stop offset="1" stop-color="#665e66"/></radialGradient><radialGradient id="SVGID_12_" cx="77.721" cy="84.194" gradientTransform="matrix(1 0 0 1.101 0 -8.467)" gradientUnits="userSpaceOnUse" r="96.044"><stop offset=".1773" stop-color="#fffbe4"/><stop offset=".4645" stop-color="#ffead8"/><stop offset=".5949" stop-color="#fee7d3"/><stop offset=".7457" stop-color="#fadfc5"/><stop offset=".9061" stop-color="#f4d2ae"/><stop offset="1" stop-color="#efc89d"/></radialGradient><radialGradient id="SVGID_13_" cx="109.737" cy="33.367" gradientTransform="matrix(1 0 0 1.03 0 -.997)" gradientUnits="userSpaceOnUse" r="17.799"><stop offset="0" stop-color="#ecb780"/><stop offset="1" stop-color="#ffead8"/></radialGradient><radialGradient id="SVGID_14_" cx="84.847" cy="3.325" gradientTransform="matrix(1 0 0 .781 0 .729)" gradientUnits="userSpaceOnUse" r="25.447"><stop offset="0" stop-color="#fffbe4"/><stop offset=".3817" stop-color="#fff1dd"/><stop offset=".5668" stop-color="#ffead8"/><stop offset=".6881" stop-color="#fee8d5"/><stop offset=".7915" stop-color="#fbe2ca"/><stop offset=".8883" stop-color="#f6d8b9"/><stop offset=".9806" stop-color="#f0caa0"/><stop offset=".9899" stop-color="#efc89d"/></radialGradient><radialGradient id="SVGID_15_" cx="82.064" cy="20.665" gradientTransform="matrix(1 0 0 .837 0 3.37)" gradientUnits="userSpaceOnUse" r="34.615"><stop offset="0" stop-color="#ffe2cb"/><stop offset=".6476" stop-color="#f6d9be"/><stop offset=".7364" stop-color="#f4d8bc"/></radialGradient><radialGradient id="SVGID_16_" cx="119.542" cy="10.474" gradientTransform="matrix(1 0 0 .733 0 2.802)" gradientUnits="userSpaceOnUse" r="28.032"><stop offset="0" stop-color="#ffead8"/><stop offset=".3563" stop-color="#fee9d5"/><stop offset=".5762" stop-color="#fce4cd"/><stop offset=".7591" stop-color="#f8dbbe"/><stop offset=".9208" stop-color="#f3d0aa"/><stop offset="1" stop-color="#efc89d"/></radialGradient><radialGradient id="SVGID_17_" cx="70.202" cy="11.852" gradientTransform="matrix(.997 -.084 .055 .652 -.403 9.99)" gradientUnits="userSpaceOnUse" r="17.231"><stop offset="0" stop-color="#f4d8a5"/><stop offset=".1924" stop-color="#f3d39b"/><stop offset=".5223" stop-color="#f0c77f"/><stop offset=".9474" stop-color="#ebb453"/><stop offset="1" stop-color="#eab14d"/></radialGradient><radialGradient id="SVGID_18_" cx="74.222" cy="6.793" gradientTransform="matrix(.914 -.406 .266 .598 4.595 32.885)" gradientUnits="userSpaceOnUse" r="15.93"><stop offset=".4975" stop-color="#f9efaf"/><stop offset=".6469" stop-color="#f6e39f"/><stop offset=".9385" stop-color="#eec575"/><stop offset="1" stop-color="#ecbe6b"/></radialGradient><radialGradient id="SVGID_19_" cx="96.587" cy="16.096" gradientTransform="matrix(.997 -.084 .055 .652 -.543 13.672)" gradientUnits="userSpaceOnUse" r="18.451"><stop offset=".5675" stop-color="#ecbe6b"/><stop offset=".6656" stop-color="#ebb961"/><stop offset=".833" stop-color="#e8aa45"/><stop offset="1" stop-color="#e49824"/></radialGradient><radialGradient id="SVGID_20_" cx="383.749" cy="3362.774" gradientTransform="matrix(.931 0 0 .112 -118.375 113.61)" gradientUnits="userSpaceOnUse" r="208.455"><stop offset="0" stop-color="#c6c1c8"/><stop offset=".2432" stop-color="#dddbdf"/><stop offset=".4962" stop-color="#f1f1f4"/><stop offset=".6787" stop-color="#fafafb"/><stop offset=".8982" stop-color="#fff"/></radialGradient><g><path d="m224.964 367.469v101.729h-31.599c-10.987 0-19.894 8.907-19.894 19.894h72.995v-143.126z" fill="url(#SVGID_1_)"/><path d="m269.829 261.014c0-19.569-16.477-35.29-36.315-34.045-16.591 1.041-30.246 14.266-31.765 30.82-.897 9.776 2.333 18.799 8.149 25.525 9.787 11.32 15.066 25.846 15.066 40.81v43.346c11.876 0 21.503-9.628 21.503-21.503v-21.847c0-15.022 5.409-29.524 15.177-40.937 5.103-5.962 8.185-13.706 8.185-22.169z" fill="url(#SVGID_2_)"/><path d="m417.917 176.821c-7.236 0-14.345 1.905-20.612 5.523-9.173 5.296-20.337 5.846-29.986 1.478l-55.875-25.296c-14.682-6.647-30.614-10.086-46.73-10.086-19.889 0-39.428 5.236-56.652 15.18l-31.511 18.193c-4.939 2.851-10.541 4.353-16.244 4.353h-7.909c-14.358 0-25.998-11.64-25.998-25.998l-9.193-2.336-8.101 2.336 3.538 14.952c0 12.126 2.95 20.535 11.525 29.109l24.594 26.02-1.069 2.495c0 34.038 43.498 64.442 59.044 62.386h32.876c51.993 0 101.856-20.654 138.62-57.418l10.702-10.702c4.053 4.053 9.55 6.33 15.281 6.33h5.215c28.55 0 51.694-23.144 51.694-51.694v-4.823h-43.209z" fill="url(#SVGID_3_)"/><path d="m162.401 233.497v-3.494l-22.61-22.61c-8.574-8.574-13.391-20.204-13.391-32.329v-14.896l-9.193-2.336-8.101 2.336v14.896c0 12.126 4.817 23.755 13.391 32.329l22.61 22.61v3.494c0 34.038 27.593 61.631 61.631 61.631h17.295c-34.039 0-61.632-27.593-61.632-61.631z" fill="url(#SVGID_4_)"/><path d="m256.676 367.469v101.729h-31.599c-10.987 0-19.894 8.907-19.894 19.894h72.995v-143.126z" fill="url(#SVGID_5_)"/><path d="m235.225 469.198h-10.148c-10.987 0-19.894 8.907-19.894 19.894h10.148c0-10.987 8.907-19.894 19.894-19.894z" fill="url(#SVGID_6_)"/><path d="m266.823 357.321-10.147 10.148v101.729h10.147z" fill="url(#SVGID_7_)"/><path d="m301.541 261.014c0-19.569-16.477-35.29-36.315-34.045-16.591 1.041-30.246 14.266-31.765 30.82-.897 9.776 2.333 18.799 8.149 25.525 9.787 11.32 15.066 25.846 15.066 40.81v43.346c11.876 0 21.503-9.628 21.503-21.503v-21.847c0-15.022 5.409-29.524 15.177-40.937 5.103-5.962 8.185-13.706 8.185-22.169z" fill="url(#SVGID_8_)"/><path d="m266.823 364.928v-40.805c0-14.964-5.279-29.49-15.066-40.81-5.815-6.726-9.046-15.749-8.149-25.525 1.431-15.588 13.622-28.223 28.892-30.514-2.355-.351-4.788-.462-7.275-.306-16.591 1.041-30.246 14.266-31.765 30.82-.897 9.776 2.333 18.799 8.149 25.525 9.787 11.32 15.066 25.846 15.066 40.81v43.346c3.671 0 7.126-.92 10.148-2.541z" fill="url(#SVGID_9_)"/><path d="m390.218 275.913-79.465-79.465c-18.598-18.598-47.737-21.483-69.621-6.894-17.299 11.532-19.722 36.008-5.021 50.709l30.223 30.223c33.645 33.646 87.424 36.002 123.884 5.427z" fill="url(#SVGID_10_)"/><path d="m285.36 270.485-30.223-30.223c-14.701-14.701-12.278-39.177 5.021-50.709 6.538-4.358 13.722-7.157 21.08-8.443-13.575-2.37-27.959.344-40.108 8.443-17.299 11.532-19.722 36.008-5.021 50.709l30.223 30.223c20.244 20.244 47.775 29.16 74.438 26.392-20.297-2.104-39.973-10.954-55.41-26.392z" fill="url(#SVGID_11_)"/><path d="m126.4 18.393-20.647 7.079c2.146 2.146 3.352 5.057 3.352 8.092v126.603h17.295z" fill="url(#SVGID_12_)"/><path d="m108.822 31.036c2.518 2.203 5.756 3.426 9.119 3.426 3.401 0 6.442-1.544 8.459-3.97v-12.099l-20.647 7.079c1.54 1.54 2.596 3.473 3.069 5.564z" fill="url(#SVGID_13_)"/><path d="m105.336 0h-11.416c-7.04 0-13.064 5.05-14.294 11.981l-.236 1.327 32.056 4.529z" fill="url(#SVGID_14_)"/><path d="m79.391 13.307-.126.709 3.449 2.063c3.379 2.021 6.511 4.427 9.335 7.17l2.288 2.223c2.585 2.512 6.047 3.916 9.651 3.916h11.416l-5.509-16.081z" fill="url(#SVGID_15_)"/><path d="m105.753 25.472-2.288-2.223c-2.823-2.743-5.956-5.15-9.335-7.17l-3.449-2.063.361-2.035c1.23-6.931 7.255-11.981 14.294-11.981h4.844c8.958 0 16.22 7.262 16.22 16.22v2.173c0 6.073-4.923 10.996-10.996 10.996-3.604-.001-7.066-1.405-9.651-3.917z" fill="url(#SVGID_16_)"/><path d="m63.068 12.204c.022.502.346.99.961 1.104l23.419 4.331c.712.132 1.435.198 2.159.198h10.328l-9.253-8.449z" fill="url(#SVGID_17_)"/><path d="m93.192 6.571h-11.417l-17.818 4.438c-.62.155-.913.682-.89 1.194h28.669z" fill="url(#SVGID_18_)"/><path d="m93.191 6.571-17.817 4.438c-1.227.306-1.173 2.068.07 2.298l24.489 4.529c1.655.306 3.181-.964 3.181-2.647 0-1.487-1.205-2.692-2.692-2.692h-1.722c-2.385 0-4.462-1.631-5.027-3.948z" fill="url(#SVGID_19_)"/><path d="m235.715 512c102.086 0 184.842-10.139 184.842-22.908h-369.684c0 12.769 82.757 22.908 184.842 22.908z" fill="url(#SVGID_20_)"/></g></svg>