<svg id="Capa_1" enable-background="new 0 0 512 512" height="512" viewBox="0 0 512 512" width="512" xmlns="http://www.w3.org/2000/svg" xmlns:xlink="http://www.w3.org/1999/xlink"><linearGradient id="lg1"><stop offset=".0726" stop-color="#e4989d"/><stop offset="1" stop-color="#dd636e"/></linearGradient><radialGradient id="SVGID_1_" cx="121.648" cy="362.957" gradientTransform="matrix(1 0 0 .831 0 61.525)" gradientUnits="userSpaceOnUse" r="25.081" xlink:href="#lg1"/><radialGradient id="SVGID_2_" cx="205.098" cy="360.885" gradientTransform="matrix(1 0 0 .831 0 61.173)" gradientUnits="userSpaceOnUse" r="31.366" xlink:href="#lg1"/><radialGradient id="SVGID_3_" cx="133.12" cy="341.999" gradientTransform="matrix(.703 -.712 .549 .542 -148.046 251.42)" gradientUnits="userSpaceOnUse" r="57.814"><stop offset="0" stop-color="#d09080"/><stop offset=".2031" stop-color="#ca8470"/><stop offset=".3927" stop-color="#c67d66"/><stop offset=".5604" stop-color="#bd755e"/><stop offset=".8314" stop-color="#a55e47"/><stop offset="1" stop-color="#934d36"/></radialGradient><linearGradient id="lg2"><stop offset="0" stop-color="#d09080"/><stop offset=".4595" stop-color="#c67d66"/><stop offset=".6346" stop-color="#c0755d"/><stop offset=".9178" stop-color="#b06045"/><stop offset="1" stop-color="#aa593d"/></linearGradient><radialGradient id="SVGID_4_" cx="242.377" cy="316.567" gradientTransform="matrix(.703 -.712 .595 .587 -116.205 303.089)" gradientUnits="userSpaceOnUse" r="86.651" xlink:href="#lg2"/><radialGradient id="SVGID_5_" cx="63.727" cy="221.456" gradientTransform="matrix(.577 -.817 .837 .592 -158.501 142.345)" gradientUnits="userSpaceOnUse" r="65.628"><stop offset="0" stop-color="#c67d66"/><stop offset=".7147" stop-color="#a35c45"/><stop offset="1" stop-color="#934d36"/></radialGradient><radialGradient id="SVGID_6_" cx="351.427" cy="370.191" gradientTransform="matrix(-.023 -1 1.146 -.027 -64.546 731.406)" gradientUnits="userSpaceOnUse" r="112.144"><stop offset=".0535" stop-color="#dd636e"/><stop offset=".6387" stop-color="#e2878e"/><stop offset="1" stop-color="#e4989d"/></radialGradient><radialGradient id="SVGID_7_" cx="211.612" cy="249.544" gradientTransform="matrix(1 0 0 .781 0 54.717)" gradientUnits="userSpaceOnUse" r="191.324"><stop offset="0" stop-color="#d09080"/><stop offset=".546" stop-color="#c67d66"/><stop offset=".6695" stop-color="#c27962"/><stop offset=".8014" stop-color="#b56d56"/><stop offset=".9369" stop-color="#a05942"/><stop offset="1" stop-color="#934d36"/></radialGradient><linearGradient id="lg3"><stop offset="0" stop-color="#ffd0be"/><stop offset=".0411" stop-color="#fbcab7"/><stop offset=".4288" stop-color="#d5937d"/><stop offset=".6145" stop-color="#c67d66"/><stop offset=".7145" stop-color="#bf7760"/><stop offset=".8555" stop-color="#ad654e"/><stop offset="1" stop-color="#934d36"/></linearGradient><radialGradient id="SVGID_8_" cx="178.027" cy="232.979" gradientTransform="matrix(1 0 0 .781 0 51.085)" gradientUnits="userSpaceOnUse" r="88.338" xlink:href="#lg3"/><radialGradient id="SVGID_9_" cx="102.822" cy="378.039" gradientTransform="matrix(1 0 0 .781 0 82.892)" gradientUnits="userSpaceOnUse" r="70.246" xlink:href="#lg3"/><radialGradient id="SVGID_10_" cx="109.647" cy="346.036" gradientTransform="matrix(.729 -.685 .43 .457 -118.916 262.843)" gradientUnits="userSpaceOnUse" r="140.812"><stop offset="0" stop-color="#aa593d"/><stop offset=".4465" stop-color="#c67d66"/><stop offset=".6923" stop-color="#c77f69"/><stop offset=".8623" stop-color="#cb8672"/><stop offset="1" stop-color="#d09080"/></radialGradient><linearGradient id="lg4"><stop offset=".0726" stop-color="#f6d3d5"/><stop offset="1" stop-color="#e28086"/></linearGradient><radialGradient id="SVGID_11_" cx="159.31" cy="362.957" gradientTransform="matrix(1 0 0 .831 0 61.525)" gradientUnits="userSpaceOnUse" r="25.081" xlink:href="#lg4"/><radialGradient id="SVGID_12_" cx="242.76" cy="360.885" gradientTransform="matrix(1 0 0 .831 0 61.173)" gradientUnits="userSpaceOnUse" r="31.366" xlink:href="#lg4"/><radialGradient id="SVGID_13_" cx="170.781" cy="341.999" gradientTransform="matrix(.703 -.712 .549 .542 -136.848 278.216)" gradientUnits="userSpaceOnUse" r="57.814"><stop offset="0" stop-color="#d09080"/><stop offset=".2031" stop-color="#ca8470"/><stop offset=".3927" stop-color="#c67d66"/><stop offset=".5895" stop-color="#c0755d"/><stop offset=".9077" stop-color="#b06045"/><stop offset="1" stop-color="#aa593d"/></radialGradient><linearGradient id="lg5"><stop offset="0" stop-color="#ffdace"/><stop offset=".0837" stop-color="#f9cfc2"/><stop offset=".2344" stop-color="#e7b3a3"/><stop offset=".4337" stop-color="#cb8670"/><stop offset=".47" stop-color="#c67d66"/><stop offset=".8678" stop-color="#aa593d"/></linearGradient><radialGradient id="SVGID_14_" cx="175" cy="339.278" gradientTransform="matrix(1 0 0 .771 0 77.676)" gradientUnits="userSpaceOnUse" r="64.381" xlink:href="#lg5"/><radialGradient id="SVGID_15_" cx="280.038" cy="316.567" gradientTransform="matrix(.703 -.712 .595 .587 -105.008 329.886)" gradientUnits="userSpaceOnUse" r="86.651" xlink:href="#lg2"/><radialGradient id="SVGID_16_" cx="261.781" cy="315.924" gradientTransform="matrix(1 0 0 .771 0 72.329)" gradientUnits="userSpaceOnUse" r="107.651" xlink:href="#lg5"/><radialGradient id="SVGID_17_" cx="6.852" cy="276.421" gradientTransform="matrix(1 0 0 .783 0 60.13)" gradientUnits="userSpaceOnUse" r="94.934"><stop offset=".1096" stop-color="#f9efda"/><stop offset=".1675" stop-color="#f6e9d5"/><stop offset=".6064" stop-color="#e2bcaf"/><stop offset=".6419" stop-color="#e0b7aa"/><stop offset=".8709" stop-color="#d49b8b"/><stop offset="1" stop-color="#d09080"/></radialGradient><radialGradient id="SVGID_18_" cx="105.04" cy="323.602" gradientTransform="matrix(.729 -.685 .43 .457 -110.528 247.515)" gradientUnits="userSpaceOnUse" r="90.099"><stop offset=".4077" stop-color="#c67d66"/><stop offset=".6789" stop-color="#c47b64"/><stop offset=".8118" stop-color="#bf745c"/><stop offset=".9142" stop-color="#b6694f"/><stop offset="1" stop-color="#aa593d"/></radialGradient><radialGradient id="SVGID_19_" cx="96.405" cy="226.084" gradientTransform="matrix(.577 -.817 .837 .592 -148.568 170.913)" gradientUnits="userSpaceOnUse" r="108.101"><stop offset=".0856" stop-color="#d8a595"/><stop offset=".4624" stop-color="#c67d66"/><stop offset=".4726" stop-color="#c57c65"/><stop offset=".8082" stop-color="#b16348"/><stop offset="1" stop-color="#aa593d"/></radialGradient><radialGradient id="SVGID_20_" cx="141.47" cy="275.757" gradientTransform="matrix(-.023 -1 .757 -.018 -63.946 422.053)" gradientUnits="userSpaceOnUse" r="65.36"><stop offset=".0535" stop-color="#f6d3d5"/><stop offset=".2375" stop-color="#f5ced0"/><stop offset=".466" stop-color="#f1bec1"/><stop offset=".7179" stop-color="#eba5a9"/><stop offset=".9851" stop-color="#e38288"/><stop offset="1" stop-color="#e28086"/></radialGradient><radialGradient id="SVGID_21_" cx="423.648" cy="3189.903" gradientTransform="matrix(.931 0 0 .112 -161.706 26.13)" gradientUnits="userSpaceOnUse" r="231.756"><stop offset="0" stop-color="#e2bcaf"/><stop offset=".2829" stop-color="#eacdc3"/><stop offset=".5032" stop-color="#f1ddd5"/><stop offset=".8982" stop-color="#fff"/></radialGradient><radialGradient id="SVGID_22_" cx="4.755" cy="929.536" gradientTransform="matrix(1 0 0 .666 0 -273.452)" gradientUnits="userSpaceOnUse" r="14.765"><stop offset="0" stop-color="#ffdace"/><stop offset=".3946" stop-color="#f6d3d5"/><stop offset=".7828" stop-color="#e8989d"/><stop offset=".9754" stop-color="#e28086"/></radialGradient><g><path d="m124.265 371.458h28.577l10.065 10.801h-49.443c0-5.966 4.836-10.801 10.801-10.801z" fill="url(#SVGID_1_)"/><path d="m206.584 370.298h40.172l11.146 11.96h-63.278c0-6.605 5.355-11.96 11.96-11.96z" fill="url(#SVGID_2_)"/><path d="m175.026 342.582c0-12.599-10.503-22.745-23.23-22.16-11.39.524-20.723 9.967-21.123 21.362-.262 7.457 3.16 14.129 8.586 18.337 2.28 1.768 3.519 4.567 3.519 7.452 0 8.11 6.574 14.684 14.684 14.684h5.446v-14.688c0-2.906 1.276-5.7 3.568-7.487 5.203-4.058 8.55-10.388 8.55-17.5z" fill="url(#SVGID_3_)"/><circle cx="257.902" cy="332.191" fill="url(#SVGID_4_)" r="50.068"/><path d="m52.537 266.194v-11.559c0-13.424 5.332-26.297 14.824-35.789l.018-.018c4.031-4.031 9.498-6.295 15.198-6.295 11.871 0 21.494 9.623 21.494 21.494 0 12.22-4.855 23.94-13.496 32.581l-10.849 10.849c-5.244 5.244-13.415 6.175-19.704 2.244-4.655-2.91-7.485-8.015-7.485-13.507z" fill="url(#SVGID_5_)"/><path d="m501.65 200.615c5.716 0 10.35-4.634 10.35-10.35v-38.826c0-27.198-22.048-49.246-49.246-49.246-28.871 0-52.276 23.405-52.276 52.276v163.179c0 21.539-17.461 39-39 39h-30.795v17.742h30.796c31.337 0 56.741-25.404 56.741-56.741v-163.956c0-20.277 16.438-36.715 36.715-36.715 20.277 0 36.715 16.438 36.715 36.715z" fill="url(#SVGID_6_)"/><path d="m75.317 350.782 15.03-1.723c5.1 0 11.67.308 15.683 3.455l4.786 4.016c12.644 9.916 25.731 17.859 41.8 17.859h188.068c12.297 0 22.266-9.969 22.266-22.266 0-83.878-67.997-151.875-151.875-151.875-20.114 0-39.092 9.321-51.388 25.238l-2.048 2.651c-4.469 5.785-10.411 10.263-17.204 12.964l-36.416 14.481z" fill="url(#SVGID_7_)"/><path d="m159.914 241.1c6.793-2.701 12.735-7.179 17.204-12.964l2.048-2.651c10.721-13.879 26.523-22.742 43.727-24.785-3.9-.3-7.841-.453-11.819-.453-20.114 0-39.092 9.321-51.388 25.238l-2.048 2.651c-4.469 5.785-10.411 10.262-17.204 12.964l-36.416 14.481-2.653 8.801z" fill="url(#SVGID_8_)"/><path d="m111.276 343.529c-4.013-3.147-8.965-4.858-14.065-4.858h-18.244l-3.651 12.111h14.526c5.1 0 10.052 1.71 14.065 4.857l4.392 3.445c12.644 9.916 28.248 15.306 44.316 15.306h19.48c-16.068 0-31.672-5.389-44.316-15.306z" fill="url(#SVGID_9_)"/><path d="m133.677 286.672v-8.229c0-9.04-7.328-16.368-16.368-16.368-5.419 0-10.767.744-15.905 2.178l-26.087 86.53h14.526c3.01 0 5.969.596 8.714 1.732 1.358-1.16 2.675-2.376 3.947-3.647l9.239-9.239c14.044-14.046 21.934-33.095 21.934-52.957z" fill="url(#SVGID_10_)"/><path d="m161.926 371.458h28.577l10.065 10.801h-49.443c.001-5.966 4.836-10.801 10.801-10.801z" fill="url(#SVGID_11_)"/><path d="m244.246 370.298h40.172l11.146 11.96h-63.278c0-6.605 5.354-11.96 11.96-11.96z" fill="url(#SVGID_12_)"/><path d="m212.687 342.582c0-12.599-10.503-22.745-23.23-22.16-11.39.524-20.723 9.967-21.123 21.362-.262 7.457 3.16 14.129 8.586 18.337 2.28 1.768 3.519 4.567 3.519 7.452 0 8.11 6.574 14.684 14.684 14.684h5.446v-14.688c0-2.906 1.276-5.7 3.568-7.487 5.203-4.058 8.55-10.388 8.55-17.5z" fill="url(#SVGID_13_)"/><path d="m189.529 367.574c0-2.885-1.239-5.684-3.519-7.452-5.426-4.209-8.847-10.88-8.586-18.337.358-10.209 7.886-18.851 17.641-20.916-1.799-.376-3.678-.535-5.609-.446-11.391.524-20.723 9.967-21.123 21.362-.262 7.457 3.159 14.129 8.586 18.337 2.28 1.768 3.519 4.567 3.519 7.452 0 8.11 6.574 14.684 14.684 14.684h5.446v-.456c-6.346-1.62-11.039-7.376-11.039-14.228z" fill="url(#SVGID_14_)"/><circle cx="295.563" cy="332.191" fill="url(#SVGID_15_)" r="50.068"/><path d="m262.378 332.191c0-24.775 17.994-45.346 41.626-49.359-2.744-.466-5.564-.71-8.441-.71-27.652 0-50.068 22.417-50.068 50.068s22.416 50.068 50.068 50.068c2.877 0 5.697-.243 8.441-.71-23.632-4.011-41.626-24.583-41.626-49.357z" fill="url(#SVGID_16_)"/><path d="m110.816 255.581h-23.449c-14.689 0-28.852 5.46-39.74 15.32l-1.968 1.783c-21.812 19.752-37.464 45.375-45.079 73.798l-.157.587c-2.076 7.748 3.762 15.357 11.784 15.357h35.393z" fill="url(#SVGID_17_)"/><path d="m105.249 333.135-9.239 9.239c-12.839 12.839-30.253 20.052-48.411 20.052h-11.944c-8.021 0-13.86-7.609-11.784-15.357l.157-.587c7.616-28.423 23.268-54.047 45.079-73.799l1.968-1.782c10.888-9.86 25.051-15.32 39.74-15.32 9.04 0 16.368 7.328 16.368 16.368v8.229c.001 19.863-7.889 38.912-21.934 52.957z" fill="url(#SVGID_18_)"/><path d="m85.216 266.194v-11.559c0-13.424 5.332-26.297 14.824-35.789l.018-.018c4.031-4.031 9.498-6.295 15.198-6.295 11.871 0 21.494 9.623 21.494 21.494 0 12.22-4.855 23.94-13.496 32.581l-10.849 10.849c-5.244 5.244-13.415 6.175-19.704 2.244-4.656-2.91-7.485-8.015-7.485-13.507z" fill="url(#SVGID_19_)"/><path d="m101.139 279.525c-2.498 0-4.94-.701-7.061-2.027-3.921-2.451-6.264-6.677-6.264-11.304v-11.559c0-12.827 4.994-24.885 14.063-33.953 3.588-3.588 8.334-5.554 13.38-5.554 10.42 0 18.897 8.477 18.897 18.897 0 11.613-4.523 22.533-12.734 30.746l-10.85 10.848c-2.518 2.52-5.868 3.906-9.431 3.906z" fill="url(#SVGID_20_)"/><path d="m228.822 409.807c124.183 0 224.853-12.334 224.853-27.548h-449.706c0 15.214 100.67 27.548 224.853 27.548z" fill="url(#SVGID_21_)"/><path d="m19.599 349.009c0 2.442-4.811 7.223-7.871 7.223s-7.871-4.781-7.871-7.223 3.524-4.422 7.871-4.422 7.871 1.979 7.871 4.422z" fill="url(#SVGID_22_)"/></g></svg>