<svg id="Capa_1" enable-background="new 0 0 512 512" height="512" viewBox="0 0 512 512" width="512" xmlns="http://www.w3.org/2000/svg" xmlns:xlink="http://www.w3.org/1999/xlink"><radialGradient id="SVGID_1_" cx="482.371" cy="217.967" gradientTransform="matrix(0 -1 .527 0 367.553 700.338)" gradientUnits="userSpaceOnUse" r="68.234"><stop offset=".014" stop-color="#5e6b75"/><stop offset=".3109" stop-color="#69757f"/><stop offset=".8302" stop-color="#86919b"/><stop offset=".9852" stop-color="#909ba5"/></radialGradient><radialGradient id="SVGID_2_" cx="284.536" cy="3684.902" gradientTransform="matrix(.931 0 0 .112 11.619 35.516)" gradientUnits="userSpaceOnUse" r="235.429"><stop offset="0" stop-color="#c6d0da"/><stop offset=".2432" stop-color="#e0e6eb"/><stop offset=".4962" stop-color="#f6f9f9"/><stop offset=".617" stop-color="#fafcfc"/><stop offset=".8982" stop-color="#fff"/></radialGradient><radialGradient id="SVGID_3_" cx="253.571" cy="1122.031" fx="238.68" fy="1124.167" gradientTransform="matrix(.677 -.561 .575 .658 -409.987 -267.512)" gradientUnits="userSpaceOnUse" r="62.065"><stop offset="0" stop-color="#4d5961"/><stop offset=".1324" stop-color="#556169"/><stop offset=".9175" stop-color="#808b95"/></radialGradient><radialGradient id="SVGID_4_" cx="242.605" cy="292.38" fx="234.837" fy="312.974" gradientTransform="matrix(.762 -.648 .647 .76 -131.325 227.383)" gradientUnits="userSpaceOnUse" r="72.557"><stop offset="0" stop-color="#4d5961"/><stop offset=".1025" stop-color="#546069"/><stop offset=".6" stop-color="#747f89"/><stop offset=".8745" stop-color="#808b95"/></radialGradient><radialGradient id="SVGID_5_" cx="274.758" cy="232.406" fx="252.976" fy="234.957" gradientTransform="matrix(.787 -.617 .616 .786 -84.614 219.377)" gradientUnits="userSpaceOnUse" r="118.046"><stop offset=".0436" stop-color="#4d5961"/><stop offset=".0946" stop-color="#515d66"/><stop offset=".4397" stop-color="#6b7680"/><stop offset=".7495" stop-color="#7b868f"/><stop offset=".992" stop-color="#808b95"/></radialGradient><radialGradient id="SVGID_6_" cx="405.445" cy="254.106" fx="391.976" fy="253.674" gradientTransform="matrix(1 .015 -.015 .973 3.785 .626)" gradientUnits="userSpaceOnUse" r="76.103"><stop offset=".1048" stop-color="#4d5961"/><stop offset=".3256" stop-color="#606b74"/><stop offset=".6648" stop-color="#77828c"/><stop offset=".8745" stop-color="#808b95"/></radialGradient><linearGradient id="lg1"><stop offset="0" stop-color="#808b95"/><stop offset=".3139" stop-color="#747f89"/><stop offset=".8827" stop-color="#546069"/><stop offset="1" stop-color="#4d5961"/></linearGradient><radialGradient id="SVGID_7_" cx="2838.636" cy="432.024" gradientTransform="matrix(-.872 -.403 -.323 .771 2814.099 1243.236)" gradientUnits="userSpaceOnUse" r="25.159" xlink:href="#lg1"/><radialGradient id="SVGID_8_" cx="2602.799" cy="432.024" gradientTransform="matrix(-.872 -.403 -.323 .771 2833.153 1148.179)" gradientUnits="userSpaceOnUse" r="25.416" xlink:href="#lg1"/><radialGradient id="SVGID_9_" cx="299.545" cy="139.392" fx="217.57" fy="190.216" gradientTransform="matrix(.995 .096 -.059 .614 9.639 25.058)" gradientUnits="userSpaceOnUse" r="298.411"><stop offset="0" stop-color="#b9c1cb"/><stop offset=".5161" stop-color="#a0aab7"/><stop offset=".5272" stop-color="#9fa9b6"/><stop offset=".7802" stop-color="#88939e"/><stop offset=".9366" stop-color="#808b95"/></radialGradient><radialGradient id="SVGID_10_" cx="193.597" cy="221.761" fx="145.238" fy="251.743" gradientTransform="matrix(.995 .096 -.085 .883 19.775 7.468)" gradientUnits="userSpaceOnUse" r="176.039"><stop offset=".0115" stop-color="#ecf9f9"/><stop offset=".0525" stop-color="#e1edef"/><stop offset=".1751" stop-color="#c5d0d7"/><stop offset=".2963" stop-color="#b0bbc5"/><stop offset=".4147" stop-color="#a4aebb"/><stop offset=".5267" stop-color="#a0aab7"/><stop offset="1" stop-color="#808b95"/></radialGradient><radialGradient id="SVGID_11_" cx="133.132" cy="206.5" gradientTransform="matrix(.725 -.689 .627 .66 -92.892 161.917)" gradientUnits="userSpaceOnUse" r="107.216"><stop offset="0" stop-color="#808b95"/><stop offset=".1193" stop-color="#85909b"/><stop offset=".6357" stop-color="#99a3af"/><stop offset=".9786" stop-color="#a0aab7"/></radialGradient><radialGradient id="SVGID_12_" cx="77.754" cy="90.263" gradientTransform="matrix(.725 -.689 .627 .66 -35.223 84.25)" gradientUnits="userSpaceOnUse" r="78.761"><stop offset=".0214" stop-color="#909ba5"/><stop offset=".4834" stop-color="#949fa9"/><stop offset=".9896" stop-color="#a0aab7"/><stop offset="1" stop-color="#a0aab7"/></radialGradient><linearGradient id="lg2"><stop offset="0" stop-color="#909ba5"/><stop offset=".3238" stop-color="#848f99"/><stop offset=".9108" stop-color="#64707a"/><stop offset="1" stop-color="#5e6b75"/></linearGradient><radialGradient id="SVGID_13_" cx="2793.231" cy="433.117" gradientTransform="matrix(-.872 -.403 -.323 .771 2818.121 1225.186)" gradientUnits="userSpaceOnUse" r="25.199" xlink:href="#lg2"/><linearGradient id="lg3"><stop offset="0" stop-color="#e7ecf1"/><stop offset=".3027" stop-color="#d5dce3"/><stop offset=".9043" stop-color="#a8b1bd"/><stop offset="1" stop-color="#a0aab7"/></linearGradient><radialGradient id="SVGID_14_" cx="234.837" cy="431.471" gradientTransform="matrix(-.862 -.506 .312 -.532 302.549 779.935)" gradientUnits="userSpaceOnUse" r="22.348" xlink:href="#lg3"/><radialGradient id="SVGID_15_" cx="2557.457" cy="433.117" gradientTransform="matrix(-.872 -.403 -.323 .771 2837.17 1130.155)" gradientUnits="userSpaceOnUse" r="25.416" xlink:href="#lg2"/><radialGradient id="SVGID_16_" cx="459.085" cy="431.471" gradientTransform="matrix(-.862 -.506 .312 -.532 720.17 893.485)" gradientUnits="userSpaceOnUse" r="22.348" xlink:href="#lg3"/><radialGradient id="SVGID_17_" cx="293.515" cy="318.399" fx="288.815" fy="330.859" gradientTransform="matrix(.762 -.648 .647 .76 -136.018 266.623)" gradientUnits="userSpaceOnUse" r="43.899"><stop offset="0" stop-color="#4d5961"/><stop offset=".3569" stop-color="#75808a"/><stop offset=".6909" stop-color="#949eab"/><stop offset=".8745" stop-color="#a0aab7"/></radialGradient><radialGradient id="SVGID_18_" cx="256.98" cy="423.379" fx="244.616" fy="431.976" gradientTransform="matrix(.762 -.648 .647 .76 -212.663 268.12)" gradientUnits="userSpaceOnUse" r="62.126"><stop offset="0" stop-color="#b9c1cb"/><stop offset=".4556" stop-color="#aeb7c2"/><stop offset=".8745" stop-color="#a0aab7"/></radialGradient><radialGradient id="SVGID_19_" cx="312.992" cy="1121.828" fx="291.531" fy="1124.907" gradientTransform="matrix(.677 -.561 .575 .658 -397.271 -234.214)" gradientUnits="userSpaceOnUse" r="89.449"><stop offset="0" stop-color="#4d5961"/><stop offset=".1334" stop-color="#626d76"/><stop offset=".3845" stop-color="#838e98"/><stop offset=".5206" stop-color="#909ba5"/></radialGradient><radialGradient id="SVGID_20_" cx="474.668" cy="414.811" fx="459.021" fy="433.223" gradientTransform="matrix(.762 -.648 .647 .76 -155.194 407.17)" gradientUnits="userSpaceOnUse" r="99.689"><stop offset="0" stop-color="#b9c1cb"/><stop offset=".4133" stop-color="#909ba5"/><stop offset=".8631" stop-color="#808b95"/></radialGradient><radialGradient id="SVGID_21_" cx="257.013" cy="246.259" fx="242.781" fy="247.926" gradientTransform="matrix(.787 -.617 .616 .786 -96.929 211.398)" gradientUnits="userSpaceOnUse" r="77.133"><stop offset=".0436" stop-color="#c6d0da"/><stop offset=".3176" stop-color="#b5bfcb"/><stop offset=".6834" stop-color="#a6b0bc"/><stop offset=".9702" stop-color="#a0aab7"/></radialGradient><radialGradient id="SVGID_22_" cx="252.531" cy="273.793" fx="247.564" fy="273.191" gradientTransform="matrix(.787 -.617 .499 .636 -82.724 255.499)" gradientUnits="userSpaceOnUse" r="94.939"><stop offset="0" stop-color="#ecf9f9"/><stop offset=".3395" stop-color="#c6d0da"/><stop offset=".6055" stop-color="#b2bcc7"/><stop offset=".8881" stop-color="#a0aab7"/></radialGradient><radialGradient id="SVGID_23_" cx="425.304" cy="276.96" fx="413.092" fy="292.886" gradientTransform="matrix(.972 .236 -.29 1.194 92.284 -153.999)" gradientUnits="userSpaceOnUse" r="116.143"><stop offset="0" stop-color="#c6d0da"/><stop offset=".1487" stop-color="#b7c1cb"/><stop offset=".477" stop-color="#9ba5af"/><stop offset=".6664" stop-color="#909ba5"/></radialGradient><radialGradient id="SVGID_24_" cx="408.194" cy="266.73" fx="400.327" fy="316.524" gradientTransform="matrix(.787 -.617 .508 .648 -48.487 345.852)" gradientUnits="userSpaceOnUse" r="84.643"><stop offset="0" stop-color="#ecf9f9"/><stop offset=".1208" stop-color="#deeaec"/><stop offset=".5127" stop-color="#b4bfc6"/><stop offset=".819" stop-color="#9aa5ae"/><stop offset="1" stop-color="#909ba5"/></radialGradient><radialGradient id="SVGID_25_" cx="43.155" cy="101.298" gradientTransform="matrix(1 0 0 .911 0 9.067)" gradientUnits="userSpaceOnUse" r="198.587"><stop offset="0" stop-color="#bcd0df"/><stop offset=".0762" stop-color="#b6c8d7"/><stop offset=".2904" stop-color="#aab7c5"/><stop offset=".5186" stop-color="#a2adba"/><stop offset=".7826" stop-color="#a0aab7"/></radialGradient><radialGradient id="SVGID_26_" cx="-14.77" cy="178.537" fx="-19.14" fy="172.357" gradientTransform="matrix(.933 -.359 .256 .665 -46.677 54.597)" gradientUnits="userSpaceOnUse" r="53.634"><stop offset="0" stop-color="#ecf9f9"/><stop offset="1" stop-color="#dae4ea"/></radialGradient><radialGradient id="SVGID_27_" cx="139.819" cy="158.94" gradientTransform="matrix(.725 -.689 .627 .66 -61.223 150.354)" gradientUnits="userSpaceOnUse" r="139.577"><stop offset=".0214" stop-color="#a0aab7"/><stop offset=".5681" stop-color="#9ea8b5"/><stop offset=".7649" stop-color="#98a2ae"/><stop offset=".9048" stop-color="#8d97a3"/><stop offset="1" stop-color="#808b95"/></radialGradient><radialGradient id="SVGID_28_" cx="110.538" cy="50.71" fx="76.051" fy="51.806" gradientTransform="matrix(.895 .447 -.251 .503 24.405 -24.211)" gradientUnits="userSpaceOnUse" r="106.751"><stop offset="0" stop-color="#909ba5"/><stop offset=".5161" stop-color="#808b95"/><stop offset=".5272" stop-color="#7f8a94"/><stop offset=".7802" stop-color="#67737d"/><stop offset=".9366" stop-color="#5e6b75"/></radialGradient><radialGradient id="SVGID_29_" cx="106.61" cy="114.778" gradientTransform="matrix(.725 -.689 .627 .66 -42.66 112.462)" gradientUnits="userSpaceOnUse" r="78.761"><stop offset=".0214" stop-color="#a0aab7"/><stop offset=".4308" stop-color="#a7b0bc"/><stop offset="1" stop-color="#b9c1cb"/></radialGradient><radialGradient id="SVGID_30_" cx="112.316" cy="73.181" gradientTransform="matrix(0 -1 .65 0 64.741 185.497)" gradientUnits="userSpaceOnUse" r="36.376"><stop offset="0" stop-color="#f6f9f9"/><stop offset=".2458" stop-color="#eef2f4"/><stop offset=".6249" stop-color="#d8e0e6"/><stop offset=".8803" stop-color="#c6d0da"/></radialGradient><radialGradient id="SVGID_31_" cx="68.785" cy="199.278" gradientTransform="matrix(.707 -.707 .506 .506 -80.788 146.982)" gradientUnits="userSpaceOnUse" r="49.86"><stop offset="0" stop-color="#dae4ea"/><stop offset=".4062" stop-color="#d5dfe6"/><stop offset=".8553" stop-color="#c8d2dc"/><stop offset=".9105" stop-color="#c6d0da"/></radialGradient><g><path d="m512 312.449c-6.42 0-11.625-5.205-11.625-11.625v-129.048c7.423 7.059 11.625 16.854 11.625 27.097z" fill="url(#SVGID_1_)"/><path d="m272.509 474.927c126.152 0 228.418-12.529 228.418-27.985h-456.836c0 15.455 102.266 27.985 228.418 27.985z" fill="url(#SVGID_2_)"/><path d="m429.696 431.548h16.906c5.909 0 10.699-4.79 10.699-10.699v-95.284l-20.273-6.697-7.333 22.635v90.045z" fill="url(#SVGID_3_)"/><path d="m205.448 431.548h14.802c5.909 0 10.699-4.79 10.699-10.699v-90.149l-25.502 16.594v84.254z" fill="url(#SVGID_4_)"/><path d="m265.069 245.604c0-16.742-13.802-30.261-30.649-29.799-16.237.445-28.973 14.176-28.973 30.42v101.069c10.081 0 19.366-5.48 24.238-14.306l1.263-2.289 20.056-57.169c.691-1.97 1.843-3.767 3.441-5.112 6.497-5.467 10.624-13.659 10.624-22.814z" fill="url(#SVGID_5_)"/><path d="m450.218 271.135c-.501-3.85.132-7.757 1.796-11.265 2.549-5.371 3.942-11.397 3.859-17.756-.277-21.25-17.412-38.846-38.649-39.651-22.925-.87-41.783 17.457-41.783 40.188 0 8.156 2.428 15.745 6.6 22.084l47.654 76.768c8.766 0 17.1-3.808 22.839-10.434l4.767-5.504z" fill="url(#SVGID_6_)"/><path d="m193.719 446.942h27.031v-15.394h-15.302c-2.339 0-4.481 1.307-5.551 3.387z" fill="url(#SVGID_7_)"/><path d="m417.967 446.942h28.635v-15.394h-16.907c-2.339 0-4.481 1.307-5.551 3.387z" fill="url(#SVGID_8_)"/><path d="m509.17 201.894c0-31.07-25.187-56.257-56.257-56.257-14.174 0-28.3 1.646-42.094 4.906l-22.713 5.367c-27.245 6.438-55.772 4.845-82.13-4.587-10.515-3.763-21.599-5.686-32.766-5.686h-44.467c-13.524 0-26.764-3.878-38.151-11.175l-66.546-42.641c-4.043-2.591-8.745-3.968-13.547-3.968h-2.261l4.271 71.445c1.701 17.58 11.315 28.854 24.493 40.613l77.465 65.584c24.67 22.013 53.545 41.237 86.608 41.237h38.211c29.898 0 58.572-11.877 79.714-33.018l12.946-12.946h20.968c31.07 0 56.257-25.187 56.257-56.257v-2.617z" fill="url(#SVGID_9_)"/><path d="m253.891 272.553-142.2-126.886.815 13.632c1.701 17.58 9.964 33.873 23.142 45.632l75.784 67.622c24.67 22.013 56.578 34.179 89.641 34.179h38.211c.678 0 1.355-.006 2.031-.018-32.27-.531-63.305-12.64-87.424-34.161z" fill="url(#SVGID_10_)"/><path d="m140.233 163.388-14.05-60.031c-1.284-5.484-6.174-9.362-11.807-9.362-1.731 0-3.431.455-4.93 1.321l-.74.427 3.799 63.556c1.438 14.862 7.566 28.803 17.388 39.864 9.303-9.166 13.407-22.674 10.34-35.775z" fill="url(#SVGID_11_)"/><path d="m82.591 59.392v54.945c-5.891 0-21.334-42.619-21.334-54.945s6.584-22.319 10.667-22.319 10.667 9.993 10.667 22.319z" fill="url(#SVGID_12_)"/><path d="m237.999 446.942h27.031v-15.394h-15.302c-2.339 0-4.481 1.307-5.551 3.387z" fill="url(#SVGID_13_)"/><path d="m258.346 431.548h-8.618c-2.339 0-4.481 1.307-5.551 3.387l-6.177 12.007h8.618l6.177-12.007c1.07-2.08 3.212-3.387 5.551-3.387z" fill="url(#SVGID_14_)"/><path d="m462.247 446.942h28.635v-15.394h-16.907c-2.339 0-4.481 1.307-5.551 3.387z" fill="url(#SVGID_15_)"/><path d="m482.594 431.548h-8.618c-2.339 0-4.481 1.307-5.551 3.387l-6.177 12.007h8.618l6.177-12.007c1.07-2.08 3.212-3.387 5.551-3.387z" fill="url(#SVGID_16_)"/><path d="m249.728 431.548h14.802c5.909 0 10.699-4.79 10.699-10.699v-90.149l-25.502 16.594v84.254z" fill="url(#SVGID_17_)"/><path d="m260.321 340.401-10.593 6.893v84.254h10.593z" fill="url(#SVGID_18_)"/><path d="m473.976 431.548h16.907c5.909 0 10.699-4.79 10.699-10.699v-95.284l-20.273-6.697-7.333 22.635z" fill="url(#SVGID_19_)"/><path d="m483.83 319.7-2.521-.833-7.333 22.635v90.046h9.629v-111.008z" fill="url(#SVGID_20_)"/><path d="m309.349 245.604c0-16.742-13.802-30.261-30.649-29.799-16.237.445-28.973 14.176-28.973 30.42v101.069c10.081 0 19.366-5.48 24.238-14.306l1.263-2.289 20.056-57.169c.691-1.97 1.843-3.767 3.44-5.112 6.498-5.467 10.625-13.659 10.625-22.814z" fill="url(#SVGID_21_)"/><path d="m260.224 246.193c0-14.752 10.515-27.394 24.585-29.935-1.926-.344-3.915-.503-5.95-.457-16.295.363-29.132 14.092-29.132 30.391v101.101h.11c5.774-.023 10.387-4.845 10.387-10.619z" fill="url(#SVGID_22_)"/><path d="m494.498 271.135c-.501-3.85.132-7.757 1.796-11.265 2.549-5.371 3.942-11.397 3.859-17.756-.277-21.25-17.412-38.846-38.649-39.651-22.925-.87-41.783 17.457-41.783 40.188 0 8.156 2.428 15.745 6.6 22.084l47.654 76.768c8.766 0 17.1-3.808 22.839-10.434l4.767-5.504z" fill="url(#SVGID_23_)"/><path d="m436.944 264.734c-4.172-6.339-6.6-13.928-6.6-22.084 0-20.408 15.201-37.266 34.898-39.869-1.23-.163-2.476-.271-3.738-.319-22.925-.87-41.783 17.457-41.783 40.188 0 8.156 2.428 15.745 6.6 22.084l47.654 76.768c3.315 0 6.567-.545 9.642-1.58z" fill="url(#SVGID_24_)"/><path d="m84.901 87.853c-1.731 0-3.431.455-4.93 1.321l-9.053 5.227c-16.099 9.295-28.958 23.305-36.842 40.139l-23.012 49.135 65.651 22.514 31.52-118.336z" fill="url(#SVGID_25_)"/><path d="m2.939 201.027c-5.557 11.866-3.087 25.941 6.177 35.205 3.02 3.02 7.011 4.611 11.055 4.668l24.064.002 30.071-57.226h-39.906l-5.21-11.926c-.999-2.287-4.003-2.821-5.73-1.019l-12.396 12.944z" fill="url(#SVGID_26_)"/><path d="m117.081 198.267c13.888-8.604 20.735-25.112 17.012-41.02l-14.05-60.031c-1.284-5.484-6.174-9.362-11.807-9.362-1.731 0-3.431.455-4.93 1.321l-9.053 5.227c-16.099 9.295-28.958 23.305-36.842 40.139l-23.011 49.134 40.38 40.797z" fill="url(#SVGID_27_)"/><path d="m228.742 145.637c0-8.262-5.506-15.617-13.514-17.656-5.647-1.437-11.054-3.777-16.023-6.961l-66.547-42.641c-6.616-4.239-14.308-6.492-22.165-6.492h-32.282l7.494 15.967h24.792c4.802 0 9.504 1.377 13.547 3.968l66.547 42.641c11.387 7.296 24.627 11.174 38.151 11.174z" fill="url(#SVGID_28_)"/><path d="m108.382 59.392v54.945c-5.891 0-21.334-42.619-21.334-54.945s6.584-22.319 10.667-22.319 10.667 9.993 10.667 22.319z" fill="url(#SVGID_29_)"/><path d="m105.926 97.499c0 2.775-3.804 3.569-4.902 1.021-5.517-12.793-11.519-31.187-11.519-39.128 0-11.621 6.227-19.863 8.211-19.863s8.211 8.242 8.211 19.863v38.107z" fill="url(#SVGID_30_)"/><path d="m64.725 201.184-30.325-17.509-8.126 17.351c-5.557 11.866-3.087 25.941 6.178 35.205 5.232 5.232 13.377 6.176 19.667 2.279l22.662-14.039c2.149-9.082-1.893-18.574-10.056-23.287z" fill="url(#SVGID_31_)"/></g></svg>