<svg id="Capa_1" enable-background="new 0 0 512 512" height="512" viewBox="0 0 512 512" width="512" xmlns="http://www.w3.org/2000/svg" xmlns:xlink="http://www.w3.org/1999/xlink"><radialGradient id="SVGID_1_" cx="91.075" cy="173.458" gradientTransform="matrix(.577 -.817 .837 .592 -106.754 145.099)" gradientUnits="userSpaceOnUse" r="63.237"><stop offset=".0856" stop-color="#be694f"/><stop offset="1" stop-color="#7a402b"/></radialGradient><radialGradient id="SVGID_2_" cx="27.389" cy="181.048" gradientTransform="matrix(1 0 0 .783 0 39.383)" gradientUnits="userSpaceOnUse" r="57.025"><stop offset=".1096" stop-color="#ffdace"/><stop offset=".4872" stop-color="#e2bcaf"/><stop offset="1" stop-color="#d09080"/></radialGradient><radialGradient id="SVGID_3_" cx="26.065" cy="237.318" gradientTransform="matrix(1 0 0 .783 0 51.624)" gradientUnits="userSpaceOnUse" r="70.824"><stop offset="0" stop-color="#c67d66"/><stop offset=".5947" stop-color="#b6694f"/><stop offset="1" stop-color="#aa593d"/></radialGradient><radialGradient id="SVGID_4_" cx="350.953" cy="355.06" gradientTransform="matrix(1 0 0 1.008 0 -2.677)" gradientUnits="userSpaceOnUse" r="195.217"><stop offset="0" stop-color="#934d36"/><stop offset=".0264" stop-color="#954e37"/><stop offset=".4171" stop-color="#b36249"/><stop offset=".639" stop-color="#be694f"/><stop offset=".964" stop-color="#c57b63"/><stop offset="1" stop-color="#c67d66"/></radialGradient><radialGradient id="SVGID_5_" cx="303.713" cy="3586.909" gradientTransform="matrix(.931 0 0 .112 -75.044 -14.542)" gradientUnits="userSpaceOnUse" r="210.414"><stop offset="0" stop-color="#e2bcaf"/><stop offset=".2829" stop-color="#eacdc3"/><stop offset=".5032" stop-color="#f1ddd5"/><stop offset=".8982" stop-color="#fff"/></radialGradient><radialGradient id="SVGID_6_" cx="190.036" cy="376.918" gradientUnits="userSpaceOnUse" r="50.959"><stop offset="0" stop-color="#fbf6ec"/><stop offset=".038" stop-color="#f0dcd0"/><stop offset=".1063" stop-color="#deb3a2"/><stop offset=".1673" stop-color="#d19681"/><stop offset=".218" stop-color="#c9846d"/><stop offset=".2522" stop-color="#c67d66"/><stop offset=".2998" stop-color="#bc7158"/><stop offset=".3747" stop-color="#b26349"/><stop offset=".4622" stop-color="#ac5b40"/><stop offset=".5915" stop-color="#aa593d"/></radialGradient><radialGradient id="SVGID_7_" cx="213.502" cy="342.826" gradientTransform="matrix(.707 .707 -.545 .545 249.449 4.942)" gradientUnits="userSpaceOnUse" r="70.699"><stop offset="0" stop-color="#934d36"/><stop offset=".658" stop-color="#aa593d"/></radialGradient><radialGradient id="SVGID_8_" cx="144.225" cy="305.248" gradientTransform="matrix(.707 .707 -.545 .545 208.67 36.839)" gradientUnits="userSpaceOnUse" r="95.312"><stop offset="0" stop-color="#934d36"/><stop offset=".8597" stop-color="#aa593d"/></radialGradient><radialGradient id="SVGID_9_" cx="84.932" cy="377.331" gradientUnits="userSpaceOnUse" r="22.946"><stop offset="0" stop-color="#fbf6ec"/><stop offset=".0901" stop-color="#ebd3c5"/><stop offset=".1993" stop-color="#dbae9c"/><stop offset=".2989" stop-color="#d0937e"/><stop offset=".3843" stop-color="#c9836c"/><stop offset=".4458" stop-color="#c67d66"/><stop offset=".4629" stop-color="#c57b64"/><stop offset=".7768" stop-color="#b16248"/><stop offset=".9575" stop-color="#aa593d"/></radialGradient><radialGradient id="SVGID_10_" cx="230.769" cy="217.271" gradientTransform="matrix(.926 .378 -.295 .723 81.275 -27.025)" gradientUnits="userSpaceOnUse" r="191.543"><stop offset="0" stop-color="#d09080"/><stop offset=".3601" stop-color="#c67d66"/><stop offset=".5534" stop-color="#c37961"/><stop offset=".7672" stop-color="#ba6d54"/><stop offset=".9902" stop-color="#ab5a3e"/><stop offset="1" stop-color="#aa593d"/></radialGradient><radialGradient id="SVGID_11_" cx="121.944" cy="346.825" gradientTransform="matrix(1 0 0 .781 0 76.048)" gradientUnits="userSpaceOnUse" r="169.369"><stop offset="0" stop-color="#f9efda"/><stop offset=".1658" stop-color="#eacdb7"/><stop offset=".4691" stop-color="#d0937d"/><stop offset=".6145" stop-color="#c67d66"/><stop offset=".7145" stop-color="#bf7760"/><stop offset=".8555" stop-color="#ad654e"/><stop offset="1" stop-color="#934d36"/></radialGradient><radialGradient id="SVGID_12_" cx="222.19" cy="377.132" gradientUnits="userSpaceOnUse" r="50.959"><stop offset="0" stop-color="#fbf6ec"/><stop offset=".0401" stop-color="#f0dcd0"/><stop offset=".1123" stop-color="#deb3a2"/><stop offset=".1766" stop-color="#d19681"/><stop offset=".2302" stop-color="#c9846d"/><stop offset=".2663" stop-color="#c67d66"/><stop offset=".3269" stop-color="#c0755d"/><stop offset=".4772" stop-color="#b4654b"/><stop offset=".6376" stop-color="#ac5c40"/><stop offset=".8245" stop-color="#aa593d"/></radialGradient><radialGradient id="SVGID_13_" cx="240.416" cy="299.671" gradientTransform="matrix(.703 -.712 .595 .587 -106.739 294.721)" gradientUnits="userSpaceOnUse" r="116.977"><stop offset="0" stop-color="#d09080"/><stop offset=".2031" stop-color="#ca8470"/><stop offset=".3927" stop-color="#c67d66"/><stop offset=".6639" stop-color="#c3755d"/><stop offset=".9404" stop-color="#be694f"/></radialGradient><radialGradient id="SVGID_14_" cx="145.621" cy="288.362" gradientTransform="matrix(.703 -.712 .549 .542 -114.903 235.738)" gradientUnits="userSpaceOnUse" r="91.634"><stop offset="0" stop-color="#d09080"/><stop offset=".2031" stop-color="#ca8470"/><stop offset=".3927" stop-color="#c67d66"/><stop offset=".544" stop-color="#c0755d"/><stop offset=".7887" stop-color="#b06045"/><stop offset=".8597" stop-color="#aa593d"/></radialGradient><radialGradient id="SVGID_15_" cx="232.267" cy="307.071" gradientTransform="matrix(.703 -.712 .595 .587 -113.563 291.977)" gradientUnits="userSpaceOnUse" r="88.967"><stop offset="0" stop-color="#fbf6ec"/><stop offset=".1712" stop-color="#e6c6b7"/><stop offset=".3343" stop-color="#d59e8b"/><stop offset=".4607" stop-color="#ca8670"/><stop offset=".535" stop-color="#c67d66"/><stop offset=".6748" stop-color="#c0755d"/><stop offset=".9008" stop-color="#b06045"/><stop offset=".9664" stop-color="#aa593d"/></radialGradient><radialGradient id="SVGID_16_" cx="150.696" cy="289.101" gradientTransform="matrix(1 0 0 .771 0 66.188)" gradientUnits="userSpaceOnUse" r="133.089"><stop offset="0" stop-color="#fbf6ec"/><stop offset=".0222" stop-color="#f6ebe0"/><stop offset=".1245" stop-color="#e2bcac"/><stop offset=".2135" stop-color="#d39a86"/><stop offset=".2848" stop-color="#c9856f"/><stop offset=".3295" stop-color="#c67d66"/><stop offset=".6529" stop-color="#be694f"/><stop offset=".6963" stop-color="#c06f55"/><stop offset=".756" stop-color="#c77f67"/><stop offset=".8251" stop-color="#d39984"/><stop offset=".9015" stop-color="#e2bdad"/><stop offset=".9827" stop-color="#f6ebe0"/><stop offset="1" stop-color="#fbf6ec"/></radialGradient><radialGradient id="SVGID_17_" cx="114.525" cy="377.118" gradientUnits="userSpaceOnUse" r="22.946"><stop offset="0" stop-color="#fbf6ec"/><stop offset=".1049" stop-color="#ebd3c5"/><stop offset=".2322" stop-color="#dbae9c"/><stop offset=".3481" stop-color="#d0937e"/><stop offset=".4476" stop-color="#c9836c"/><stop offset=".5192" stop-color="#c67d66"/><stop offset=".5339" stop-color="#c57b64"/><stop offset=".8028" stop-color="#b16248"/><stop offset=".9575" stop-color="#aa593d"/></radialGradient><radialGradient id="SVGID_18_" cx="103.579" cy="241.997" gradientTransform="matrix(.694 -.72 .567 .547 -105.424 184.269)" gradientUnits="userSpaceOnUse" r="75.247"><stop offset=".076" stop-color="#c67d66"/><stop offset=".499" stop-color="#c47b64"/><stop offset=".7063" stop-color="#bf745c"/><stop offset=".8662" stop-color="#b6694f"/><stop offset="1" stop-color="#aa593d"/></radialGradient><radialGradient id="SVGID_19_" cx="107.076" cy="160.65" gradientTransform="matrix(.577 -.817 .837 .592 -89.268 152.939)" gradientUnits="userSpaceOnUse" r="63.237"><stop offset=".0856" stop-color="#d8a595"/><stop offset=".4624" stop-color="#c67d66"/></radialGradient><radialGradient id="SVGID_20_" cx="137.307" cy="195.182" gradientTransform="matrix(-.023 -1 .757 -.018 -7.221 335.893)" gradientUnits="userSpaceOnUse" r="29.539"><stop offset=".0535" stop-color="#f6d3d5"/><stop offset=".2822" stop-color="#f2c4c7"/><stop offset=".7213" stop-color="#e99ca1"/><stop offset="1" stop-color="#e28086"/></radialGradient><radialGradient id="SVGID_21_" cx="18.261" cy="886.814" gradientTransform="matrix(1 0 0 .88 0 -547.904)" gradientUnits="userSpaceOnUse" r="18.531"><stop offset="0" stop-color="#ffd0be"/><stop offset=".2171" stop-color="#cd9d94"/><stop offset=".3967" stop-color="#aa7976"/><stop offset=".4924" stop-color="#9d6b6b"/><stop offset=".5936" stop-color="#906262"/><stop offset=".7787" stop-color="#6f4b4b"/><stop offset=".8245" stop-color="#664545"/></radialGradient><g><path d="m88.692 215.078v-39.554c0-6.129 6.537-10.043 11.94-7.149 6.068 3.251 9.855 9.576 9.855 16.46v8.448c0 12.037-9.758 21.795-21.795 21.795z" fill="url(#SVGID_1_)"/><path d="m90.838 186.121c-21.109 0-41.354 8.386-56.281 23.312l-16.697 16.697c-1.717 1.718-2.88 3.779-3.491 5.962l80.668 14.777 19.756-60.748z" fill="url(#SVGID_2_)"/><path d="m17.86 245.435 1.251 1.251c4.009 4.009 9.445 6.26 15.114 6.26h3.172l2.027 2.028c3.3 3.3 7.775 5.153 12.441 5.153h38.155l9.384-28.034h-85.035c-1.286 4.593-.122 9.728 3.491 13.342z" fill="url(#SVGID_3_)"/><path d="m423.2 101.026c-54.702 0-99.046 44.345-99.046 99.046v163.085h30.312c51.165 0 92.642-41.477 92.642-92.642v-15.796c0-35.839 29.053-64.892 64.892-64.892 0-49.043-39.757-88.801-88.8-88.801z" fill="url(#SVGID_4_)"/><path d="m204.148 410.974c112.748 0 204.148-11.198 204.148-25.011h-408.296c0 13.813 91.4 25.011 204.148 25.011z" fill="url(#SVGID_5_)"/><path d="m250.38 385.962h-59.762l.898-1.603c3.528-6.296 10.182-10.195 17.399-10.195h41.464v11.798z" fill="url(#SVGID_6_)"/><circle cx="250.38" cy="332.343" fill="url(#SVGID_7_)" r="53.619"/><path d="m148.624 260.414c-11.944 0-21.626 9.682-21.626 21.626v69.507l-27.408 27.409 8.003 7.006h3.049l59.609-34.415v-69.507c-.001-11.944-9.683-21.626-21.627-21.626z" fill="url(#SVGID_8_)"/><path d="m103.089 376.006h-1.599c-6.405 0-12.143 3.963-14.411 9.953l-.001.004h20.514v-5.453c.001-2.488-2.016-4.504-4.503-4.504z" fill="url(#SVGID_9_)"/><path d="m90.02 259.59h14.39c4.714 0 9.071 2.515 11.428 6.598l16.23 28.111c10.416 18.041 29.669 29.155 50.501 29.155h9.332c6.718 0 13.155 2.669 17.905 7.419l14.246 14.246c21.755 21.755 51.261 33.977 82.027 33.977h6.186c25.966 0 47.016-21.05 47.016-47.016 0-58.033-47.045-105.078-105.078-105.078h-54.616c-11.76 0-23.038-4.672-31.354-12.987l-16.272-16.272c-7.441-7.441-17.533-11.621-28.056-11.621h-4.911z" fill="url(#SVGID_10_)"/><path d="m245.613 345.12-14.247-14.246c-4.75-4.75-11.187-7.419-17.905-7.419-2.803 0-5.99 0-9.332 0-20.832 0-40.085-11.114-50.501-29.155l-21.573-37.365c-3.596-6.229-10.241-10.065-17.432-10.065h-19.586l-5.017 12.721h14.39c4.714 0 9.071 2.515 11.428 6.598l16.23 28.111c10.416 18.041 29.669 29.155 50.501 29.155h9.332c6.718 0 13.155 2.669 17.905 7.419l14.246 14.246c21.755 21.755 51.261 33.976 82.027 33.976h6.186c2.036 0 4.041-.129 6.009-.38-27.337-2.213-53.125-14.06-72.661-33.596z" fill="url(#SVGID_11_)"/><path d="m280.186 385.962h-59.762l.898-1.603c3.528-6.296 10.182-10.195 17.399-10.195h41.464v11.798z" fill="url(#SVGID_12_)"/><circle cx="280.186" cy="332.343" fill="url(#SVGID_13_)" r="53.619"/><path d="m178.431 260.414c-11.944 0-21.626 9.682-21.626 21.626v69.507l-27.288 27.288 7.883 7.127h3.049l59.609-34.415v-69.507c-.001-11.944-9.684-21.626-21.627-21.626z" fill="url(#SVGID_14_)"/><path d="m236.503 332.343c0-27.938 21.367-50.885 48.652-53.392-1.636-.15-3.293-.227-4.968-.227-29.613 0-53.619 24.006-53.619 53.619s24.006 53.619 53.619 53.619c1.675 0 3.332-.077 4.968-.227-27.285-2.507-48.652-25.454-48.652-53.392z" fill="url(#SVGID_15_)"/><path d="m166.74 282.04c0-10.234 7.109-18.808 16.658-21.052-1.595-.375-3.258-.574-4.968-.574-11.944 0-21.626 9.682-21.626 21.626v69.507l-27.889 27.889 3.409 6.526 34.415-34.415v-69.507z" fill="url(#SVGID_16_)"/><path d="m132.896 376.006h-1.599c-6.405 0-12.143 3.963-14.411 9.953l-.001.004h20.514v-5.453c0-2.488-2.016-4.504-4.503-4.504z" fill="url(#SVGID_17_)"/><path d="m123.561 186.122h-8.768c-21.109 0-41.354 8.386-56.281 23.312l-16.697 16.697c-5.331 5.331-5.331 13.973 0 19.304l1.251 1.251c4.009 4.009 9.445 6.26 15.114 6.26h3.172l2.027 2.027c3.3 3.3 7.775 5.153 12.441 5.153h14.2c11.498 0 22.525-4.568 30.656-12.698 10.03-10.03 15.664-23.633 15.664-37.817v-10.71c.001-7.057-5.721-12.779-12.779-12.779z" fill="url(#SVGID_18_)"/><path d="m112.804 215.078v-39.554c0-6.129 6.537-10.043 11.94-7.149 6.068 3.251 9.855 9.576 9.855 16.46v8.448c0 12.037-9.758 21.795-21.795 21.795z" fill="url(#SVGID_19_)"/><path d="m122.481 172.599c-.502-.269-1.026-.405-1.56-.405-1.599 0-3.325 1.273-3.325 3.329v19.616c2.137 2.591 3.321 5.855 3.321 9.243v3.84c5.293-2.884 8.892-8.498 8.892-14.939v-8.447c-.001-5.128-2.808-9.816-7.328-12.237z" fill="url(#SVGID_20_)"/><path d="m33.888 236.691c0 2.54-5.004 7.512-8.185 7.512s-8.185-4.972-8.185-7.512 3.665-4.599 8.185-4.599 8.185 2.059 8.185 4.599z" fill="url(#SVGID_21_)"/></g></svg>