<svg id="Capa_1" enable-background="new 0 0 512 512" height="512" viewBox="0 0 512 512" width="512" xmlns="http://www.w3.org/2000/svg" xmlns:xlink="http://www.w3.org/1999/xlink"><linearGradient id="lg1"><stop offset=".0304" stop-color="#dad0cb"/><stop offset=".9552" stop-color="#eadfda"/></linearGradient><radialGradient id="SVGID_1_" cx="172.412" cy="269.822" gradientTransform="matrix(.727 .687 -.339 .359 138.442 54.647)" gradientUnits="userSpaceOnUse" r="63.097" xlink:href="#lg1"/><radialGradient id="SVGID_2_" cx="230.758" cy="425.238" gradientTransform="matrix(1 0 0 .809 0 81.191)" gradientUnits="userSpaceOnUse" r="65.546"><stop offset=".303" stop-color="#eab14d"/><stop offset=".5509" stop-color="#eaaf4a"/><stop offset=".7406" stop-color="#e8a940"/><stop offset=".9105" stop-color="#e69f30"/><stop offset="1" stop-color="#e49824"/></radialGradient><radialGradient id="SVGID_3_" cx="269.262" cy="340.933" gradientTransform="matrix(.983 .185 -.091 .485 35.746 125.813)" gradientUnits="userSpaceOnUse" r="84.38" xlink:href="#lg1"/><radialGradient id="SVGID_4_" cx="355.645" cy="171.449" gradientTransform="matrix(0 1 -1.409 0 597.159 -184.196)" gradientUnits="userSpaceOnUse" r="81.304"><stop offset=".0304" stop-color="#dad0cb"/><stop offset=".1772" stop-color="#e2d8d4"/><stop offset=".497" stop-color="#efe7e4"/><stop offset="1" stop-color="#f6f1f1"/></radialGradient><radialGradient id="SVGID_5_" cx="238.749" cy="196.907" gradientTransform="matrix(1 0 0 .98 0 3.86)" gradientUnits="userSpaceOnUse" r="249.551"><stop offset="0" stop-color="#f9f6f6"/><stop offset=".8537" stop-color="#efe7e4"/><stop offset=".9526" stop-color="#eee5e2"/><stop offset=".9983" stop-color="#eadfda"/><stop offset="1" stop-color="#eadfda"/></radialGradient><radialGradient id="SVGID_6_" cx="172.376" cy="269.515" gradientTransform="matrix(1 0 0 .98 0 5.283)" gradientUnits="userSpaceOnUse" r="226.727"><stop offset="0" stop-color="#fff"/><stop offset=".2245" stop-color="#faf7f6"/><stop offset=".5183" stop-color="#efe7e4"/><stop offset="1" stop-color="#eadfda"/></radialGradient><radialGradient id="SVGID_7_" cx="195.249" cy="143.741" gradientTransform="matrix(1 0 0 .98 0 2.817)" gradientUnits="userSpaceOnUse" r="114.228"><stop offset="0" stop-color="#f9f6f6"/><stop offset=".5729" stop-color="#f6f1f1"/><stop offset=".9392" stop-color="#ece2de"/><stop offset="1" stop-color="#eadfda"/></radialGradient><radialGradient id="SVGID_8_" cx="121.421" cy="150.694" gradientTransform="matrix(1 0 0 .98 0 2.954)" gradientUnits="userSpaceOnUse" r="89.175"><stop offset="0" stop-color="#fff"/><stop offset=".3456" stop-color="#fcfafa"/><stop offset=".6221" stop-color="#f6f1f1"/><stop offset="1" stop-color="#efe7e4"/></radialGradient><radialGradient id="SVGID_9_" cx="153.944" cy="118.411" gradientTransform="matrix(1 0 0 .98 0 2.321)" gradientUnits="userSpaceOnUse" r="60.574"><stop offset="0" stop-color="#f9f6f6"/><stop offset=".7293" stop-color="#f6f1f1"/><stop offset=".9615" stop-color="#ece2de"/><stop offset="1" stop-color="#eadfda"/></radialGradient><radialGradient id="SVGID_10_" cx="77.153" cy="7.779" gradientTransform="matrix(1 0 0 .949 0 .4)" gradientUnits="userSpaceOnUse" r="130.386"><stop offset=".0336" stop-color="#ffdace"/><stop offset=".1796" stop-color="#f9c4bb"/><stop offset=".4846" stop-color="#ea8a8a"/><stop offset=".7898" stop-color="#da4a54"/></radialGradient><radialGradient id="SVGID_11_" cx="191.843" cy="75.856" gradientTransform="matrix(1 0 0 .859 0 10.709)" gradientUnits="userSpaceOnUse" r="118.026"><stop offset=".6779" stop-color="#da4a54"/><stop offset=".764" stop-color="#d54650"/><stop offset=".8603" stop-color="#c83b45"/><stop offset=".9612" stop-color="#b22832"/><stop offset="1" stop-color="#a71f29"/></radialGradient><radialGradient id="SVGID_12_" cx="73.44" cy="73.585" gradientTransform="matrix(.914 -.406 .388 .872 -22.183 39.283)" gradientUnits="userSpaceOnUse" r="16.84"><stop offset=".2083" stop-color="#f9efaf"/><stop offset=".4437" stop-color="#f6e39f"/><stop offset=".9031" stop-color="#eec575"/><stop offset="1" stop-color="#ecbe6b"/></radialGradient><radialGradient id="SVGID_13_" cx="91.507" cy="81.293" gradientTransform="matrix(.914 -.406 .428 .963 -26.92 40.173)" gradientUnits="userSpaceOnUse" r="13.731"><stop offset="0" stop-color="#ecbe6b"/><stop offset=".2586" stop-color="#ecbc68"/><stop offset=".4861" stop-color="#eab65d"/><stop offset=".7018" stop-color="#e8ad4b"/><stop offset=".9091" stop-color="#e69f32"/><stop offset="1" stop-color="#e49824"/></radialGradient><radialGradient id="SVGID_14_" cx="303.306" cy="450.732" gradientTransform="matrix(1 0 0 .809 0 86.059)" gradientUnits="userSpaceOnUse" r="75.681"><stop offset="0" stop-color="#fff9e2"/><stop offset=".4401" stop-color="#ecbe6b"/><stop offset=".5671" stop-color="#ebb961"/><stop offset=".7839" stop-color="#e8aa45"/><stop offset="1" stop-color="#e49824"/></radialGradient><radialGradient id="SVGID_15_" cx="298.604" cy="469.726" gradientUnits="userSpaceOnUse" r="85.469"><stop offset="0" stop-color="#fbf4c6"/><stop offset=".1091" stop-color="#faf1c1"/><stop offset=".2432" stop-color="#f8e8b2"/><stop offset=".3903" stop-color="#f4d999"/><stop offset=".5458" stop-color="#eec576"/><stop offset=".59" stop-color="#ecbe6b"/><stop offset=".6745" stop-color="#ebb863"/><stop offset=".8062" stop-color="#e7a74d"/><stop offset=".9678" stop-color="#e08c29"/><stop offset="1" stop-color="#df8621"/></radialGradient><radialGradient id="SVGID_16_" cx="340.101" cy="346.798" gradientTransform="matrix(1 0 0 .789 0 73.29)" gradientUnits="userSpaceOnUse" r="112.794"><stop offset="0" stop-color="#efe7e4"/><stop offset=".544" stop-color="#efe7e4"/><stop offset=".8861" stop-color="#ece2de"/><stop offset="1" stop-color="#eadfda"/></radialGradient><radialGradient id="SVGID_17_" cx="299.314" cy="326.513" gradientTransform="matrix(.962 .273 -.28 .987 102.941 -77.407)" gradientUnits="userSpaceOnUse" r="112.98"><stop offset="0" stop-color="#fff"/><stop offset=".0607" stop-color="#fdfcfc"/><stop offset=".5893" stop-color="#efe7e4"/><stop offset="1" stop-color="#eadfda"/></radialGradient><radialGradient id="SVGID_18_" cx="273.352" cy="267.301" gradientTransform="matrix(1 0 0 .733 0 71.395)" gradientUnits="userSpaceOnUse" r="132.748"><stop offset="0" stop-color="#f9f6f6"/><stop offset=".4723" stop-color="#f9f6f6"/><stop offset=".7344" stop-color="#f6f1f0"/><stop offset="1" stop-color="#efe7e4"/></radialGradient><radialGradient id="SVGID_19_" cx="228.85" cy="246.78" gradientTransform="matrix(.962 .273 -.28 .987 77.903 -59.223)" gradientUnits="userSpaceOnUse" r="103.804"><stop offset="0" stop-color="#fff"/><stop offset=".5893" stop-color="#f6f1f1"/><stop offset="1" stop-color="#f6f1f1"/></radialGradient><radialGradient id="SVGID_20_" cx="402.302" cy="3753.05" gradientTransform="matrix(.931 0 0 .112 -118.375 69.533)" gradientUnits="userSpaceOnUse" r="196.756"><stop offset="0" stop-color="#efe7e4"/><stop offset=".4962" stop-color="#f9f6f6"/><stop offset=".617" stop-color="#fcfafa"/><stop offset=".8982" stop-color="#fff"/></radialGradient><g><path d="m280.13 260.939-79.29-45.778c-18.95-10.94-42.885-7.789-58.358 7.683-18.88 18.88-18.88 49.49 0 68.37l.777.776c19.039 19.039 44.862 29.735 71.787 29.735h99.91v-.467c-.001-24.884-13.276-47.877-34.826-60.319z" fill="url(#SVGID_1_)"/><path d="m293.826 472.094h-12.769l20.976-71.889h-18.273l-18.68 53.5c-3.476 9.956-12.679 16.781-23.216 17.216l-28.395 1.173c-9.123 0-16.519 7.396-16.519 16.519h113.395c0-9.124-7.396-16.519-16.519-16.519z" fill="url(#SVGID_2_)"/><path d="m302.033 400.205-22.766-84.963c-5.242-19.563-25.011-31.989-44.71-27.286-20.438 4.88-32.698 25.615-27.295 45.779 3.985 14.871 16.445 25.208 30.791 27.205 9.574 1.333 17.275 8.573 19.777 17.91 4.584 17.107 22.168 27.259 39.275 22.676z" fill="url(#SVGID_3_)"/><path d="m428.236 69.216h5.695c8.881 0 16.08-7.199 16.08-16.08h-26.383c-4.594 0-8.6-3.54-8.738-8.132-.143-4.751 3.667-8.648 8.386-8.648h6.599c11.121 0 20.135-9.015 20.135-20.135h-36.965c-56.745 0-96.701 55.75-78.469 109.486l15.988 47.123 43.627 21.814 55.819-21.814v-89.492h-21.775c-3.9 0-7.061-3.161-7.061-7.061s3.162-7.061 7.062-7.061z" fill="url(#SVGID_4_)"/><path d="m294.193 172.829c-12.16 0-23.722-4.372-32.738-12.037l-78.965-11.035-58.8 64.893c17.681 81.411 90.146 142.388 176.854 142.388h.001c82.549 0 149.467-66.919 149.467-149.467v-34.742z" fill="url(#SVGID_5_)"/><path d="m159.584 175.037-35.894 39.614c17.681 81.411 90.146 142.388 176.854 142.388h.001c6.452 0 12.808-.409 19.044-1.202-90.404-10.432-160.521-87.481-160.005-180.8z" fill="url(#SVGID_6_)"/><path d="m144.959 229.633 16.616-21.261 12.867 23.718 10.555-24.834 18.545 19.602 3.799-26.714 22.982 14.141-3.27-26.783 25.87 7.669-10.106-25.024 24.129 5.481-5.492-14.834c-3.872-3.292-7.275-7.192-10.054-11.614l-32.955-52.449c-4.139-6.588-8.96-12.606-14.339-17.985-23.218-23.218-48.45-28.849-70.545-30.024-16.417-.873-30.146 12.369-30.146 28.809v5.109l16.15 16.15v77.272c0 13.244 1.423 26.155 4.123 38.589l15.004-11.264z" fill="url(#SVGID_7_)"/><path d="m159.58 176.061v-54.432c0-14.624-5.809-28.649-16.15-38.99h-40.015l16.15 16.15v77.272c0 13.244 1.423 26.155 4.123 38.589l15.004-11.264 6.266 26.245 16.616-21.261 1.348 2.484c-2.192-11.258-3.342-22.891-3.342-34.793z" fill="url(#SVGID_8_)"/><path d="m119.566 98.79v51.819h12.754c7.443 0 13.476-6.033 13.476-13.476v-20.125l16.21-28.076c3.683-6.38.313-14.517-6.803-16.424l-19.479-5.219c-.882-.236-1.79-.356-2.703-.356-2.769 0-5.425 1.1-7.384 3.059l-6.431 6.43c-2.055 2.055-4.842 3.209-7.748 3.209h-8.043v3.009z" fill="url(#SVGID_9_)"/><path d="m159.42 4.769-14.737 14.737 12.946-14.053h-12.946c-4.898 0-9.595 1.946-13.059 5.409l5.141-10.862h-12.946c-3.31 0-6.302 1.968-7.613 5.007l-1.097 2.543h-11.425c-5.329 0-9.648 4.32-9.648 9.648v1.398h-5.617c-3.758 3.241-5.919 7.957-5.919 12.919v6.849h-9.771l-5.838 5.838c-6.535 6.535-6.535 17.131 0 23.666l15.751 15.751c1.489 1.489 3.401 2.436 5.452 2.913 2.286.532 4.398 1.693 6.084 3.379l.907.907-.406.407c-2.13 2.131-3.864 4.657-4.885 7.492-2.722 7.561-.72 15.665 4.648 21.032l5.783 5.783v5.925c0 7.327 5.94 13.266 13.266 13.266h12.946l6.197-43.417-41.919-27.56 24.236-35.362 42.998-15.521 14.417-18.093h-12.946z" fill="url(#SVGID_10_)"/><path d="m157.629 19.506v-14.053c-4.898 0-9.595 1.946-13.059 5.409l-7.805 7.805v-18.667c-3.31 0-6.302 1.968-7.613 5.007l-7.069 16.387-5.453-13.843c-5.329 0-9.648 4.32-9.648 9.648v6.013l-5.617-4.615c-3.758 3.241-5.919 7.957-5.919 12.919v6.849h-9.771l-5.838 5.838c-6.535 6.535-6.535 17.131 0 23.666l15.751 15.751c1.489 1.489 3.4 2.436 5.452 2.913 2.285.531 4.398 1.693 6.084 3.379l.907.907-.406.407c-2.13 2.131-3.864 4.657-4.885 7.492-2.722 7.561-.72 15.665 4.647 21.032l5.783 5.783v5.925c0 7.327 5.94 13.266 13.266 13.266 7.443 0 13.476-6.033 13.476-13.476v-20.125l16.21-28.076c3.683-6.38.313-14.517-6.803-16.424l-19.479-5.219c-.882-.236-1.79-.356-2.703-.356-2.769 0-5.425 1.1-7.384 3.059l-6.431 6.431c-2.055 2.055-4.842 3.209-7.748 3.209h-1.913c1.913-14.636 14.764-25.829 29.9-25.025 9.01.479 18.541 1.699 28.244 4.55 6.762-6.762 10.56-15.933 10.56-25.495v-23.008z" fill="url(#SVGID_11_)"/><path d="m76.936 69.95h11.035l-8.345 19.859h-12.945v-3.149c0-5.356 2.128-10.493 5.915-14.281l1.079-1.079c.865-.864 2.038-1.35 3.261-1.35z" fill="url(#SVGID_12_)"/><path d="m87.972 69.95 2.348 3.884c1.315 2.176 3.673 3.506 6.216 3.506h.719c1.942 0 3.517 1.575 3.517 3.517 0 2.188-1.774 3.962-3.962 3.962h-.779c-5.084 0-10.078 1.338-14.48 3.88l-1.922 1.11v-3.149c0-5.356 2.128-10.493 5.915-14.281z" fill="url(#SVGID_13_)"/><path d="m360.905 472.094h-12.769l20.976-71.889h-18.272l-18.68 53.5c-3.476 9.956-12.679 16.781-23.216 17.216l-28.395 1.173c-9.123 0-16.519 7.396-16.519 16.519h113.395c-.001-9.124-7.397-16.519-16.52-16.519z" fill="url(#SVGID_14_)"/><path d="m291.976 472.094 28.395-1.173c10.537-.435 19.739-7.26 23.216-17.216l18.68-53.5h-11.427l-18.68 53.5c-3.476 9.956-12.679 16.781-23.216 17.216l-28.395 1.173c-9.123 0-16.519 7.396-16.519 16.518h11.428c-.001-9.123 7.395-16.518 16.518-16.518z" fill="url(#SVGID_15_)"/><path d="m369.112 400.205-22.766-84.963c-5.242-19.563-25.011-31.989-44.71-27.286-20.438 4.88-32.698 25.615-27.295 45.779 3.985 14.871 16.445 25.208 30.791 27.205 9.574 1.333 17.275 8.573 19.777 17.91 4.584 17.107 22.168 27.259 39.275 22.676z" fill="url(#SVGID_16_)"/><path d="m340.624 378.849c-2.502-9.337-10.203-16.577-19.777-17.91-14.346-1.998-26.807-12.334-30.791-27.205-5.403-20.164 6.857-40.899 27.295-45.779.191-.046.382-.089.574-.132-5.219-1.159-10.756-1.189-16.287.132-20.438 4.88-32.698 25.615-27.295 45.779 3.985 14.871 16.445 25.208 30.791 27.205 9.574 1.333 17.275 8.573 19.777 17.91 4.543 16.955 21.857 27.078 38.82 22.794-10.885-2.765-19.994-11.175-23.107-22.794z" fill="url(#SVGID_17_)"/><path d="m358.271 260.939-79.29-45.778c-18.95-10.94-42.885-7.789-58.358 7.683-18.88 18.88-18.88 49.49 0 68.37l.777.776c19.039 19.039 44.862 29.735 71.787 29.735h99.91v-.467c-.001-24.884-13.276-47.877-34.826-60.319z" fill="url(#SVGID_18_)"/><path d="m238.277 291.214c-18.88-18.88-18.88-49.49 0-68.371 7.106-7.106 15.996-11.612 25.369-13.349-15.334-2.848-31.518 1.844-43.023 13.349-18.88 18.88-18.88 49.49 0 68.371l.777.776c19.039 19.039 44.862 29.735 71.787 29.735h17.654c-26.925 0-52.748-10.696-71.787-29.735z" fill="url(#SVGID_19_)"/><path d="m252.886 512c105.429 0 190.897-10.471 190.897-23.388h-381.794c0 12.917 85.468 23.388 190.897 23.388z" fill="url(#SVGID_20_)"/></g></svg>