<svg id="Capa_1" enable-background="new 0 0 512 512" height="512" viewBox="0 0 512 512" width="512" xmlns="http://www.w3.org/2000/svg" xmlns:xlink="http://www.w3.org/1999/xlink"><radialGradient id="SVGID_1_" cx="472.344" cy="198.671" gradientTransform="matrix(-.941 .339 -.466 -1.295 1009.399 295.956)" gradientUnits="userSpaceOnUse" r="36.378"><stop offset="0" stop-color="#b4aaaa"/><stop offset=".4795" stop-color="#cfc5c2"/><stop offset=".7699" stop-color="#dad0cb"/></radialGradient><linearGradient id="lg1"><stop offset="0" stop-color="#868086"/><stop offset=".4839" stop-color="#999299"/><stop offset=".9207" stop-color="#a59da5"/></linearGradient><radialGradient id="SVGID_2_" cx="-2276.403" cy="444.88" gradientTransform="matrix(-.872 -.403 -.323 .771 -1704.299 -815.492)" gradientUnits="userSpaceOnUse" r="25.384" xlink:href="#lg1"/><radialGradient id="SVGID_3_" cx="-2589.405" cy="444.966" gradientTransform="matrix(-.872 -.403 -.323 .771 -1678.982 -941.631)" gradientUnits="userSpaceOnUse" r="26.509" xlink:href="#lg1"/><linearGradient id="SVGID_4_" gradientUnits="userSpaceOnUse" x1="134.752" x2="166.509" y1="386.204" y2="316.055"><stop offset=".0105" stop-color="#f4d8bc"/><stop offset=".4018" stop-color="#f4d7ba"/><stop offset=".5427" stop-color="#f3d3b3"/><stop offset=".6431" stop-color="#f1cda8"/><stop offset=".7238" stop-color="#efc497"/><stop offset=".7926" stop-color="#ecb881"/><stop offset=".7957" stop-color="#ecb780"/></linearGradient><radialGradient id="SVGID_5_" cx="147.738" cy="276.56" gradientTransform="matrix(-.929 -.369 .207 -.52 227.867 474.913)" gradientUnits="userSpaceOnUse" r="85.002"><stop offset=".0123" stop-color="#b4aaaa"/><stop offset=".5463" stop-color="#bdb4b1"/><stop offset=".9338" stop-color="#c6beb9"/></radialGradient><linearGradient id="SVGID_6_" gradientTransform="matrix(.889 0 0 .866 -99.227 -642.908)" gradientUnits="userSpaceOnUse" x1="641.535" x2="558.514" y1="1192.418" y2="1150.189"><stop offset=".0105" stop-color="#f4d8bc"/><stop offset=".3077" stop-color="#f4d6b9"/><stop offset=".5411" stop-color="#f2d1af"/><stop offset=".7528" stop-color="#f0c89e"/><stop offset=".9506" stop-color="#edbb87"/><stop offset="1" stop-color="#ecb780"/></linearGradient><radialGradient id="SVGID_7_" cx="387.682" cy="282.449" gradientTransform="matrix(-.789 .615 -.28 -.359 772.588 145.706)" gradientUnits="userSpaceOnUse" r="79.77"><stop offset="0" stop-color="#b4aaaa"/><stop offset=".4717" stop-color="#bab0af"/><stop offset="1" stop-color="#c6beb9"/></radialGradient><radialGradient id="SVGID_8_" cx="277.673" cy="95.26" gradientTransform="matrix(.002 1 -1.377 .002 408.344 -182.625)" gradientUnits="userSpaceOnUse" r="232.709"><stop offset="0" stop-color="#efe7e4"/><stop offset=".2606" stop-color="#e8dfdb"/><stop offset=".563" stop-color="#dad0cb"/><stop offset=".6973" stop-color="#d6ccc7"/><stop offset=".8337" stop-color="#cac1bc"/><stop offset=".8636" stop-color="#c6beb9"/></radialGradient><radialGradient id="SVGID_9_" cx="74.21" cy="201.941" gradientTransform="matrix(.575 -.818 .645 .453 -98.771 171.119)" gradientUnits="userSpaceOnUse" r="159.528"><stop offset=".0269" stop-color="#fbf6ec"/><stop offset=".3328" stop-color="#efe7e4"/><stop offset=".6792" stop-color="#eadfda"/><stop offset=".7989" stop-color="#e0d6d1"/><stop offset="1" stop-color="#c6beb9"/></radialGradient><radialGradient id="SVGID_10_" cx="89.726" cy="137.925" gradientTransform="matrix(.002 1 -1.377 .002 279.429 47.891)" gradientUnits="userSpaceOnUse" r="107.926"><stop offset=".0459" stop-color="#b4aaaa"/><stop offset=".515" stop-color="#dad0cb"/><stop offset=".975" stop-color="#e9ded9"/><stop offset="1" stop-color="#eadfda"/></radialGradient><linearGradient id="lg2"><stop offset="0" stop-color="#868086"/><stop offset=".5255" stop-color="#999299"/><stop offset="1" stop-color="#a59da5"/></linearGradient><radialGradient id="SVGID_11_" cx="-2322.568" cy="444.88" gradientTransform="matrix(-.872 -.403 -.323 .771 -1700.569 -834.099)" gradientUnits="userSpaceOnUse" r="25.384" xlink:href="#lg2"/><linearGradient id="lg3"><stop offset="0" stop-color="#efecef"/><stop offset=".3307" stop-color="#dfdae0"/><stop offset=".9884" stop-color="#b5adb8"/><stop offset="1" stop-color="#b4acb7"/></linearGradient><radialGradient id="SVGID_12_" cx="150.608" cy="430.557" gradientTransform="matrix(-.862 -.506 .312 -.532 145.972 735.884)" gradientUnits="userSpaceOnUse" r="23.824" xlink:href="#lg3"/><radialGradient id="SVGID_13_" cx="-2638.406" cy="444.966" gradientTransform="matrix(-.872 -.403 -.323 .771 -1675.023 -961.382)" gradientUnits="userSpaceOnUse" r="26.509" xlink:href="#lg2"/><radialGradient id="SVGID_14_" cx="450.404" cy="431.246" gradientTransform="matrix(-.862 -.506 .312 -.532 704.074 888.744)" gradientUnits="userSpaceOnUse" r="22.821" xlink:href="#lg3"/><linearGradient id="SVGID_15_" gradientUnits="userSpaceOnUse" x1="178.722" x2="210.479" y1="386.204" y2="316.055"><stop offset=".0105" stop-color="#ffe2cb"/><stop offset=".3846" stop-color="#ffe1c9"/><stop offset=".5194" stop-color="#fdddc2"/><stop offset=".6155" stop-color="#fad6b7"/><stop offset=".6931" stop-color="#f6cda6"/><stop offset=".7588" stop-color="#f0c090"/><stop offset=".7957" stop-color="#ecb780"/></linearGradient><linearGradient id="SVGID_16_" gradientUnits="userSpaceOnUse" x1="171.997" x2="171.997" y1="353.255" y2="427.258"><stop offset=".3136" stop-color="#ffe2cb"/><stop offset=".9252" stop-color="#fff6df"/><stop offset="1" stop-color="#fff9e2"/></linearGradient><radialGradient id="SVGID_17_" cx="174.893" cy="243.701" gradientTransform="matrix(.575 -.818 .645 .453 -82.911 276.335)" gradientUnits="userSpaceOnUse" r="120.796"><stop offset="0" stop-color="#efe7e4"/><stop offset=".505" stop-color="#dad0cb"/><stop offset=".8655" stop-color="#ccc4bf"/><stop offset="1" stop-color="#c6beb9"/></radialGradient><radialGradient id="SVGID_18_" cx="168.864" cy="262.138" gradientTransform="matrix(.575 -.818 .645 .453 -97.373 281.48)" gradientUnits="userSpaceOnUse" r="98.219"><stop offset="0" stop-color="#fbf6ec"/><stop offset=".2299" stop-color="#efe7e4"/><stop offset=".5239" stop-color="#eadfda"/><stop offset=".618" stop-color="#e0d6d1"/><stop offset=".8434" stop-color="#cdc4bf"/><stop offset="1" stop-color="#c6beb9"/></radialGradient><linearGradient id="SVGID_19_" gradientTransform="matrix(.889 0 0 .866 -99.227 -642.908)" gradientUnits="userSpaceOnUse" x1="659.912" x2="588.058" y1="1174.184" y2="1143.259"><stop offset=".0654" stop-color="#f4d8bc"/><stop offset=".2866" stop-color="#f3d4b4"/><stop offset=".627" stop-color="#efc99f"/><stop offset=".6483" stop-color="#efc89d"/></linearGradient><linearGradient id="SVGID_20_" gradientUnits="userSpaceOnUse" x1="470.519" x2="470.519" y1="428.17" y2="332.526"><stop offset=".1585" stop-color="#ffead8"/><stop offset=".4349" stop-color="#f7ddc4"/><stop offset=".6223" stop-color="#f4d8bc"/><stop offset=".7297" stop-color="#f2d1af"/><stop offset=".9259" stop-color="#eebf8e"/><stop offset="1" stop-color="#ecb780"/></linearGradient><radialGradient id="SVGID_21_" cx="-476.695" cy="626.102" gradientTransform="matrix(.098 -.995 .785 .077 -57.704 -266.076)" gradientUnits="userSpaceOnUse" r="143.223"><stop offset="0" stop-color="#f6f1f1"/><stop offset=".0385" stop-color="#f2edec"/><stop offset=".2633" stop-color="#e1d8d4"/><stop offset=".4016" stop-color="#dad0cb"/><stop offset=".8374" stop-color="#ccc4bf"/><stop offset="1" stop-color="#c6beb9"/></radialGradient><radialGradient id="SVGID_22_" cx="362.939" cy="283.9" gradientTransform="matrix(.352 -.936 .738 .278 25.507 544.662)" gradientUnits="userSpaceOnUse" r="159.87"><stop offset=".0879" stop-color="#fbf6ec"/><stop offset=".3275" stop-color="#efe7e4"/><stop offset=".4631" stop-color="#eadfda"/><stop offset=".7483" stop-color="#d4cbc6"/><stop offset="1" stop-color="#c6beb9"/></radialGradient><radialGradient id="SVGID_23_" cx="3.596" cy="86.236" gradientTransform="matrix(1 0 0 .837 0 14.064)" gradientUnits="userSpaceOnUse" r="108.683"><stop offset="0" stop-color="#ffe2cb"/><stop offset=".6476" stop-color="#f6d9be"/><stop offset=".7364" stop-color="#f4d8bc"/></radialGradient><radialGradient id="SVGID_24_" cx="21.004" cy="39.265" gradientTransform="matrix(1 0 0 .781 0 8.609)" gradientUnits="userSpaceOnUse" r="77.157"><stop offset="0" stop-color="#fffbe4"/><stop offset=".4799" stop-color="#fff1dd"/><stop offset=".7126" stop-color="#ffead8"/></radialGradient><radialGradient id="SVGID_25_" cx="76.704" cy="76.023" gradientTransform="matrix(1 0 0 .776 0 17.009)" gradientUnits="userSpaceOnUse" r="65.431"><stop offset="0" stop-color="#ffead8"/><stop offset=".5" stop-color="#fee9d6"/><stop offset=".6801" stop-color="#fde5cf"/><stop offset=".8085" stop-color="#f9dec4"/><stop offset=".9115" stop-color="#f5d5b3"/><stop offset="1" stop-color="#efc89d"/></radialGradient><radialGradient id="SVGID_26_" cx="-69.635" cy="76.442" gradientTransform="matrix(.5 .866 -.672 .388 193.96 93.312)" gradientUnits="userSpaceOnUse" r="31.948"><stop offset="0" stop-color="#ffead8"/><stop offset=".8587" stop-color="#ffead8"/><stop offset="1" stop-color="#ffead8"/></radialGradient><radialGradient id="SVGID_27_" cx="-21.268" cy="63.829" gradientTransform="matrix(.262 -.965 .963 .262 86.951 61.02)" gradientUnits="userSpaceOnUse" r="57.898"><stop offset="0" stop-color="#f1d0d5"/><stop offset=".2984" stop-color="#f0cdd2"/><stop offset=".5139" stop-color="#edc4ca"/><stop offset=".7032" stop-color="#e8b4bb"/><stop offset=".8765" stop-color="#e19ea6"/><stop offset="1" stop-color="#da8993"/></radialGradient><radialGradient id="SVGID_28_" cx="4.269" cy="706.683" gradientTransform="matrix(.762 -.571 .647 .669 -456.263 -396.271)" gradientUnits="userSpaceOnUse" r="16.676"><stop offset="0" stop-color="#d0cee7"/><stop offset=".3128" stop-color="#a19dae"/><stop offset=".5922" stop-color="#756e78"/><stop offset="1" stop-color="#665e66"/></radialGradient><radialGradient id="SVGID_29_" cx="453.677" cy="3685.675" gradientTransform="matrix(.931 0 0 .112 -161.706 35.438)" gradientUnits="userSpaceOnUse" r="263.618"><stop offset="0" stop-color="#efe7e4"/><stop offset=".3811" stop-color="#f4eeed"/><stop offset=".6461" stop-color="#f9f6f6"/><stop offset=".8982" stop-color="#fff"/></radialGradient><g><path d="m475.118 217.686h-31.672v-62.403h9.532c19.126 0 34.631 15.505 34.631 34.631v15.282c-.001 6.897-5.593 12.49-12.491 12.49z" fill="url(#SVGID_1_)"/><path d="m110.02 446.92h28.591v-16.282h-16.185c-2.474 0-4.74 1.383-5.872 3.582z" fill="url(#SVGID_2_)"/><path d="m406.972 446.92h29.871v-15.597h-17.988c-2.37 0-4.541 1.324-5.625 3.432z" fill="url(#SVGID_3_)"/><path d="m122.425 430.638h15.656c6.25 0 11.317-5.067 11.317-11.317v-91.358l-26.973 17.552z" fill="url(#SVGID_4_)"/><path d="m185.486 237.959c0-17.708-14.598-32.007-32.417-31.518-17.174.471-30.644 14.994-30.644 32.175v106.9c10.663 0 20.483-5.796 25.637-15.131l1.336-2.421 21.213-60.467c.731-2.084 1.95-3.984 3.639-5.406 6.871-5.785 11.236-14.449 11.236-24.132z" fill="url(#SVGID_5_)"/><path d="m418.855 431.323h17.129c5.987 0 10.84-4.853 10.84-10.84v-104.378l-4.156-8.764-23.813 24.913z" fill="url(#SVGID_6_)"/><path d="m442.668 307.341-20.358-42.927c-2.46-5.187-3.529-10.98-2.72-16.664.89-6.256.416-12.823-1.659-19.297-6.619-20.656-28.01-33.328-49.298-29.168-24.824 4.851-39.954 29.563-33.519 53.578 2.267 8.459 6.893 15.655 12.982 21.069l70.757 66.375c9.229-2.473 17.248-8.209 22.569-16.145 3.351-4.996 3.824-11.386 1.246-16.821z" fill="url(#SVGID_7_)"/><path d="m84.071 111.181 3.863 83.462c0 22.562 5.065 42.801 21.019 58.755 21.914 21.914 51.67 36.908 82.661 36.908h3.507l44.984 12.768c18.361 5.211 37.356 7.855 56.442 7.855 38.415 0 75.648-13.291 105.378-37.619h19.324c33.492 0 60.642-27.15 60.642-60.642 0-44.771-36.294-81.065-81.065-81.065h-182.73l-10.867-5.945c-10.364-5.669-21.987-8.641-33.8-8.641h-3.411c0-14.771-5.868-28.936-16.312-39.381l-12.813-12.813c-7.133-7.133-16.808-11.14-26.895-11.14z" fill="url(#SVGID_8_)"/><path d="m224.962 290.306h-3.507c-30.991 0-60.712-12.311-82.626-34.225-15.953-15.954-24.916-37.591-24.916-60.153v-142.086l-29.843 57.339v84.747c0 22.562 8.963 44.199 24.916 60.153 21.914 21.914 51.635 34.225 82.626 34.225h3.507l44.984 12.768c18.361 5.211 37.355 7.855 56.442 7.855 4.726 0 9.434-.202 14.113-.6-13.766-1.051-27.406-3.478-40.712-7.255z" fill="url(#SVGID_9_)"/><path d="m129.772 65.218-10.289-11.137c-1.807-.263-3.64-.398-5.487-.398l-29.925 57.498v9.981h9.831l.085-.327c4.03-.764 7.769-2.85 10.563-6.041l25.495-29.118c5.154-5.887 5.036-14.712-.273-20.458z" fill="url(#SVGID_10_)"/><path d="m153.99 446.92h28.591v-16.282h-16.185c-2.474 0-4.74 1.383-5.872 3.582z" fill="url(#SVGID_11_)"/><path d="m175.754 430.638h-9.358c-2.474 0-4.74 1.383-5.872 3.582l-6.534 12.7h9.358l6.534-12.7c1.132-2.199 3.398-3.582 5.872-3.582z" fill="url(#SVGID_12_)"/><path d="m453.644 446.92h29.871v-15.597h-17.988c-2.37 0-4.541 1.324-5.625 3.432z" fill="url(#SVGID_13_)"/><path d="m474.492 431.323h-8.965c-2.37 0-4.541 1.324-5.625 3.432l-6.259 12.166h8.965l6.259-12.166c1.084-2.108 3.255-3.432 5.625-3.432z" fill="url(#SVGID_14_)"/><path d="m166.395 430.638h15.656c6.25 0 11.317-5.067 11.317-11.317v-91.358l-26.973 17.552z" fill="url(#SVGID_15_)"/><path d="m177.599 338.224-11.204 7.291v85.123h11.204z" fill="url(#SVGID_16_)"/><path d="m229.456 237.959c0-17.708-14.598-32.007-32.417-31.518-17.174.471-30.644 14.994-30.644 32.175v106.9c10.663 0 20.483-5.796 25.637-15.131l1.336-2.421 21.213-60.467c.731-2.084 1.95-3.984 3.639-5.406 6.871-5.785 11.236-14.449 11.236-24.132z" fill="url(#SVGID_17_)"/><path d="m177.497 238.581c0-15.603 11.122-28.974 26.004-31.662-2.037-.363-4.141-.532-6.293-.484-17.235.384-30.813 14.905-30.813 32.145v106.934h.116c6.107-.024 10.986-5.124 10.986-11.232z" fill="url(#SVGID_18_)"/><path d="m465.527 431.323h17.129c5.987 0 10.84-4.853 10.84-10.84v-104.378l-4.156-8.764-23.813 24.913z" fill="url(#SVGID_19_)"/><path d="m475.511 310.164-2.554-.844-7.43 22.934v99.069h9.757v-120.308z" fill="url(#SVGID_20_)"/><path d="m489.341 307.341-20.358-42.927c-2.46-5.187-3.529-10.98-2.72-16.664.89-6.256.416-12.823-1.659-19.297-6.619-20.656-28.01-33.328-49.298-29.168-24.824 4.851-39.954 29.563-33.519 53.578 2.267 8.459 6.893 15.655 12.982 21.069l70.757 66.375c9.229-2.473 17.248-8.209 22.569-16.145 3.35-4.996 3.823-11.386 1.246-16.821z" fill="url(#SVGID_21_)"/><path d="m408.885 273.932c-6.089-5.414-10.715-12.61-12.982-21.069-6.278-23.429 7.97-47.522 31.72-53.187 1.047-.25 2.095-.46 3.14-.631-5.561-.922-11.406-.764-17.256.631-23.75 5.666-37.998 29.759-31.72 53.187 2.267 8.459 6.893 15.655 12.982 21.069l70.757 66.375c3.449-.924 6.729-2.304 9.762-4.084z" fill="url(#SVGID_22_)"/><path d="m.038 85.936c-.283 5.511 1.014 11.152 4.039 16.211 2.246 3.756 6.3 6.056 10.677 6.056h14.644l29.632 6.55c1.87.413 3.761.531 5.613.373l-.001.068h23.293l10.603-40.724z" fill="url(#SVGID_23_)"/><path d="m87.933 33.744h-21.486c-8.044 0-15.885 2.528-22.414 7.227l-32.074 23.084c-7.337 5.28-11.487 13.429-11.921 21.881h87.895z" fill="url(#SVGID_24_)"/><path d="m123.803 59.25-15.214-16.467c-5.323-5.762-12.811-9.038-20.656-9.038-8.044 0-15.885 2.528-22.414 7.227l-32.074 23.083c-12.121 8.724-15.546 25.275-7.882 38.092 2.246 3.756 6.3 6.056 10.676 6.056h14.644l29.632 6.55c6.653 1.471 13.578-.802 18.066-5.928l25.495-29.118c5.154-5.886 5.036-14.712-.273-20.457z" fill="url(#SVGID_25_)"/><path d="m164.78 44.059c2.845-4.581-.563-10.485-5.953-10.311-2.058.066-4.081.373-6.051.861l.02-.03-18.559 4.973c-7.956 2.132-15.599 5.298-22.733 9.416-3.983 2.299-5.187 7.49-2.624 11.308 3.793 5.65 11.315 7.396 17.208 3.993l4.714-2.722 17.169-4.842c6.985-1.969 12.981-6.48 16.809-12.646z" fill="url(#SVGID_26_)"/><path d="m140.585 43.127c4.927-4.796 11.424-7.561 18.294-7.781 1.932-.062 3.662.9 4.628 2.575.966 1.673.934 3.652-.085 5.294-3.625 5.839-9.268 10.084-15.886 11.951l-27.175 7.665z" fill="url(#SVGID_27_)"/><path d="m17.45 80.713c0 2.246-4.424 6.642-7.237 6.642s-7.237-4.396-7.237-6.642 3.24-4.066 7.237-4.066 7.237 1.82 7.237 4.066z" fill="url(#SVGID_28_)"/><path d="m256.233 478.256c141.256 0 255.767-14.029 255.767-31.336h-511.535c0 17.307 114.511 31.336 255.768 31.336z" fill="url(#SVGID_29_)"/></g></svg>