<?xml version="1.0" encoding="iso-8859-1"?>
<!-- Generator: Adobe Illustrator 19.0.0, SVG Export Plug-In . SVG Version: 6.00 Build 0)  -->
<svg version="1.1" id="Capa_1" xmlns="http://www.w3.org/2000/svg" xmlns:xlink="http://www.w3.org/1999/xlink" x="0px" y="0px"
	 viewBox="0 0 384 384" style="enable-background:new 0 0 384 384;" xml:space="preserve">
<path style="fill:#F26E64;" d="M332.958,261.28c0,0-17.2,54.48-140.96,54.48s-140.96-54.48-140.96-54.48L191.998,16L332.958,261.28z
	"/>
<path style="fill:#9DC85C;" d="M359.998,306.96c0,0-19.84,61.04-168,61.04s-168-61.04-168-61.04l27.04-45.68
	c0,0,17.2,54.48,140.96,54.48s140.96-54.48,140.96-54.48L359.998,306.96z"/>
<g>
	<path style="fill:#603916;" d="M375.214,311.904c1.424-4.368,0.888-9.144-1.456-13.096l-26.912-45.472
		c-0.008-0.008-0.008-0.024-0.016-0.032L205.87,8.024C203.014,3.064,197.726,0,191.998,0s-11.016,3.064-13.872,8.024l-140.96,245.28
		c-0.008,0.008-0.008,0.024-0.016,0.032l-26.912,45.472c-2.344,3.952-2.872,8.72-1.456,13.096
		C11.174,319.288,36.702,384,191.998,384S372.822,319.288,375.214,311.904z M191.998,48.112l122.584,213.304
		c-0.016,0.016-0.024,0.04-0.04,0.056c-0.48,0.64-1.04,1.336-1.648,2.064c-0.128,0.16-0.272,0.32-0.408,0.48
		c-1.312,1.52-2.92,3.2-4.864,4.976c-0.192,0.176-0.376,0.344-0.576,0.52c-1,0.896-2.072,1.8-3.256,2.728
		c-0.128,0.104-0.272,0.208-0.4,0.304c-1.112,0.864-2.304,1.736-3.576,2.616c-0.232,0.16-0.448,0.32-0.688,0.48
		c-1.4,0.944-2.896,1.896-4.496,2.848c-0.272,0.16-0.56,0.32-0.84,0.48c-1.536,0.896-3.168,1.784-4.896,2.672
		c-0.192,0.096-0.368,0.2-0.56,0.296c-1.856,0.936-3.856,1.856-5.936,2.76c-0.424,0.184-0.856,0.368-1.288,0.544
		c-4.304,1.824-9.112,3.56-14.448,5.168c-0.56,0.168-1.12,0.336-1.688,0.504c-2.672,0.776-5.464,1.52-8.4,2.224
		c-0.384,0.088-0.8,0.176-1.192,0.264c-2.712,0.624-5.56,1.216-8.504,1.768c-0.624,0.12-1.232,0.24-1.864,0.352
		c-3.256,0.584-6.656,1.112-10.192,1.584c-0.696,0.096-1.424,0.176-2.136,0.264c-3.304,0.416-6.72,0.784-10.28,1.104
		c-0.536,0.048-1.048,0.104-1.584,0.152c-3.912,0.328-8.016,0.568-12.24,0.76c-0.968,0.04-1.96,0.08-2.944,0.112
		c-4.392,0.16-8.896,0.272-13.632,0.272c-4.76,0-9.288-0.112-13.704-0.272c-0.968-0.032-1.944-0.072-2.904-0.112
		c-4.24-0.192-8.352-0.44-12.272-0.76c-0.576-0.048-1.12-0.112-1.688-0.16c-3.544-0.312-6.96-0.688-10.256-1.104
		c-0.704-0.088-1.416-0.168-2.112-0.264c-3.544-0.48-6.944-1.008-10.2-1.592c-0.656-0.12-1.288-0.24-1.936-0.368
		c-2.992-0.56-5.888-1.16-8.64-1.8c-0.32-0.072-0.664-0.144-0.984-0.216c-2.96-0.704-5.76-1.456-8.448-2.24
		c-0.576-0.168-1.144-0.336-1.704-0.504c-2.648-0.8-5.2-1.624-7.592-2.48c-0.064-0.024-0.128-0.048-0.192-0.072
		c-2.352-0.848-4.56-1.736-6.672-2.624c-0.432-0.184-0.864-0.36-1.288-0.544c-2.072-0.904-4.048-1.816-5.888-2.752
		c-0.264-0.136-0.504-0.264-0.76-0.4c-1.688-0.872-3.288-1.744-4.792-2.624c-0.24-0.144-0.504-0.28-0.736-0.424
		c-1.6-0.952-3.088-1.904-4.488-2.848c-0.256-0.176-0.496-0.344-0.744-0.52c-1.328-0.92-2.584-1.832-3.728-2.736
		c-0.048-0.04-0.104-0.072-0.144-0.112c-1.2-0.944-2.28-1.864-3.296-2.768c-0.184-0.16-0.36-0.32-0.536-0.48
		c-0.976-0.888-1.88-1.76-2.688-2.584c-0.008-0.008-0.016-0.016-0.024-0.024c-0.816-0.84-1.528-1.64-2.184-2.408
		c-0.096-0.112-0.192-0.224-0.28-0.328c-0.632-0.752-1.2-1.464-1.688-2.12c-0.016-0.016-0.024-0.032-0.032-0.048L191.998,48.112z
		 M191.998,352c-105.536,0-139.992-32-149.552-44.792l9.8-16.56c0.272,0.272,0.6,0.552,0.88,0.824
		c0.696,0.672,1.416,1.344,2.168,2.016c0.488,0.44,0.984,0.88,1.496,1.32c0.816,0.704,1.664,1.408,2.544,2.12
		c0.496,0.4,0.984,0.808,1.504,1.208c1.232,0.96,2.536,1.92,3.888,2.88c0.208,0.144,0.384,0.288,0.592,0.432
		c1.552,1.08,3.2,2.152,4.904,3.224c0.576,0.36,1.192,0.712,1.792,1.072c1.216,0.728,2.456,1.456,3.76,2.176
		c0.712,0.392,1.44,0.784,2.168,1.176c1.312,0.696,2.664,1.384,4.056,2.064c0.744,0.368,1.48,0.728,2.248,1.088
		c1.688,0.792,3.448,1.568,5.248,2.328c0.528,0.224,1.016,0.456,1.552,0.672c2.352,0.968,4.808,1.904,7.352,2.808
		c0.68,0.24,1.408,0.472,2.112,0.712c1.928,0.664,3.896,1.312,5.936,1.936c0.968,0.296,1.968,0.584,2.968,0.872
		c1.912,0.552,3.864,1.088,5.872,1.6c1.064,0.272,2.128,0.544,3.216,0.808c2.224,0.536,4.52,1.04,6.864,1.536
		c0.92,0.192,1.8,0.4,2.736,0.584c3.296,0.648,6.688,1.256,10.216,1.808c0.656,0.104,1.352,0.184,2.016,0.28
		c2.92,0.432,5.904,0.84,8.976,1.2c1.264,0.152,2.576,0.272,3.872,0.408c2.616,0.272,5.288,0.52,8.024,0.744
		c1.44,0.112,2.896,0.224,4.368,0.32c2.856,0.192,5.8,0.344,8.784,0.472c1.368,0.056,2.704,0.136,4.096,0.176
		c4.392,0.144,8.888,0.232,13.552,0.232s9.152-0.096,13.552-0.232c1.392-0.048,2.728-0.12,4.096-0.176
		c2.984-0.128,5.92-0.28,8.784-0.472c1.472-0.096,2.928-0.208,4.368-0.32c2.736-0.216,5.4-0.464,8.024-0.744
		c1.296-0.136,2.608-0.264,3.872-0.408c3.08-0.36,6.064-0.76,8.976-1.2c0.664-0.096,1.36-0.184,2.016-0.28
		c3.528-0.552,6.928-1.16,10.216-1.808c0.936-0.184,1.816-0.392,2.736-0.584c2.344-0.488,4.64-1,6.864-1.536
		c1.088-0.264,2.152-0.536,3.216-0.808c2.008-0.52,3.96-1.048,5.872-1.6c1-0.288,2-0.576,2.968-0.872
		c2.04-0.624,4.008-1.272,5.936-1.936c0.696-0.24,1.424-0.464,2.112-0.712c2.552-0.912,5-1.848,7.352-2.808
		c0.536-0.224,1.032-0.448,1.552-0.672c1.8-0.76,3.56-1.536,5.248-2.328c0.768-0.36,1.504-0.728,2.248-1.088
		c1.392-0.68,2.744-1.368,4.056-2.064c0.736-0.392,1.464-0.784,2.168-1.176c1.296-0.72,2.544-1.448,3.76-2.176
		c0.592-0.36,1.208-0.712,1.792-1.072c1.712-1.064,3.352-2.144,4.904-3.224c0.208-0.144,0.392-0.288,0.592-0.432
		c1.352-0.96,2.648-1.92,3.888-2.88c0.52-0.4,1-0.808,1.504-1.208c0.872-0.704,1.728-1.416,2.544-2.12
		c0.512-0.44,1.008-0.88,1.496-1.32c0.752-0.68,1.464-1.352,2.168-2.016c0.28-0.272,0.608-0.552,0.88-0.824l9.76,16.496
		C331.726,320.248,297.142,352,191.998,352z"/>
	<path style="fill:#603916;" d="M191.998,189.296c8.832,0,16-7.168,16-16V148c0-8.832-7.168-16-16-16s-16,7.168-16,16v25.296
		C175.998,182.136,183.166,189.296,191.998,189.296z"/>
	<path style="fill:#603916;" d="M139.046,259.696c8.832,0,16-7.168,16-16V218.4c0-8.832-7.168-16-16-16s-16,7.168-16,16v25.296
		C123.046,252.536,130.206,259.696,139.046,259.696z"/>
	<path style="fill:#603916;" d="M244.95,259.696c8.832,0,16-7.168,16-16V218.4c0-8.832-7.168-16-16-16s-16,7.168-16,16v25.296
		C228.95,252.536,236.118,259.696,244.95,259.696z"/>
</g>
<g>
</g>
<g>
</g>
<g>
</g>
<g>
</g>
<g>
</g>
<g>
</g>
<g>
</g>
<g>
</g>
<g>
</g>
<g>
</g>
<g>
</g>
<g>
</g>
<g>
</g>
<g>
</g>
<g>
</g>
</svg>
