<?xml version="1.0" encoding="iso-8859-1"?>
<!-- Generator: Adobe Illustrator 19.0.0, SVG Export Plug-In . SVG Version: 6.00 Build 0)  -->
<svg version="1.1" id="Capa_1" xmlns="http://www.w3.org/2000/svg" xmlns:xlink="http://www.w3.org/1999/xlink" x="0px" y="0px"
	 viewBox="0 0 384 384" style="enable-background:new 0 0 384 384;" xml:space="preserve">
<path style="fill:#FFF9BB;" d="M303.118,123.04c0,59.04-49.76,87.52-111.12,87.52s-111.12-28.48-111.12-87.52
	c0-59.12,49.76-107.04,111.12-107.04S303.118,63.92,303.118,123.04z"/>
<path style="fill:#80764C;" d="M191.998,368c-129.2,0-111.12-244.96-111.12-244.96c0,59.04,49.76,87.52,111.12,87.52
	s111.12-28.48,111.12-87.52C303.118,123.04,321.198,368,191.998,368z"/>
<g>
	<path style="fill:#603916;" d="M319.046,121.712C318.302,54.48,261.63,0,191.998,0S65.694,54.48,64.95,121.704
		c-0.008,0.056-0.024,0.104-0.024,0.16c-0.488,6.552-11.12,161.304,52.312,229.584c20.056,21.6,45.216,32.552,74.76,32.552
		s54.704-10.952,74.768-32.552c63.424-68.28,52.792-223.032,52.312-229.584C319.07,121.808,319.054,121.76,319.046,121.712z
		 M191.998,32c52.448,0,95.12,40.84,95.12,91.04c0,66.368-72.808,71.52-95.12,71.52s-95.12-5.16-95.12-71.52
		C96.878,72.84,139.55,32,191.998,32z M191.998,352c-20.568,0-37.344-7.296-51.304-22.312
		c-12.824-13.792-22.016-32.56-28.608-53.168h38.4c8.832,0,16-7.168,16-16s-7.168-16-16-16h-45.76c-0.232,0-0.448,0.056-0.68,0.072
		c-3.144-16.168-5.136-32.488-6.328-47.672c0.288,0.248,0.616,0.448,0.904,0.696c1.472,1.224,3.048,2.36,4.608,3.52
		c1.376,1.024,2.72,2.072,4.16,3.04c1.64,1.088,3.384,2.08,5.104,3.104c1.512,0.896,2.984,1.832,4.568,2.664
		c1.8,0.952,3.712,1.8,5.592,2.68c1.64,0.768,3.24,1.576,4.944,2.28c1.976,0.816,4.056,1.512,6.112,2.248
		c1.752,0.624,3.448,1.304,5.248,1.872c2.176,0.68,4.464,1.232,6.72,1.824c1.808,0.472,3.568,1.008,5.432,1.424
		c2.432,0.544,4.984,0.944,7.504,1.392c1.808,0.32,3.56,0.712,5.408,0.976c2.896,0.416,5.904,0.664,8.904,0.952
		c1.592,0.152,3.12,0.376,4.736,0.488c4.664,0.32,9.44,0.488,14.336,0.488s9.672-0.168,14.336-0.488
		c1.584-0.112,3.08-0.336,4.632-0.48c3.032-0.288,6.088-0.544,9.016-0.96c1.776-0.256,3.448-0.632,5.184-0.928
		c2.6-0.456,5.224-0.872,7.736-1.432c1.792-0.4,3.48-0.92,5.224-1.376c2.328-0.608,4.696-1.176,6.936-1.888
		c1.744-0.544,3.376-1.2,5.072-1.808c2.112-0.752,4.264-1.472,6.288-2.32c1.656-0.688,3.2-1.472,4.8-2.216
		c1.928-0.896,3.888-1.768,5.736-2.752c1.544-0.816,2.976-1.728,4.456-2.608c1.76-1.04,3.536-2.056,5.208-3.168
		c1.416-0.952,2.736-1.984,4.096-2.992c1.584-1.168,3.176-2.32,4.672-3.568c0.288-0.248,0.624-0.456,0.92-0.696
		c-1.192,15.2-3.176,31.528-6.328,47.712c-0.24-0.008-0.472-0.072-0.712-0.072h-45.76c-8.832,0-16,7.168-16,16s7.168,16,16,16
		h38.432c-2.032,6.352-4.32,12.528-6.88,18.448c-1.344-0.368-2.728-0.624-4.192-0.624h-68.872c-8.832,0-16,7.168-16,16
		s7.168,16,16,16h54.152c-0.936,1.112-1.848,2.264-2.832,3.328C229.358,344.696,212.574,352,191.998,352z"/>
	<path style="fill:#603916;" d="M191.998,156.072c39.096,0,53.024-22.104,53.024-42.792c0-28.488-23.784-51.656-53.024-51.656
		s-53.024,23.168-53.024,51.656C138.974,133.968,152.902,156.072,191.998,156.072z M191.998,93.624
		c11.592,0,21.024,8.816,21.024,19.656c0,3.232,0,10.792-21.024,10.792s-21.024-7.56-21.024-10.792
		C170.974,102.44,180.406,93.624,191.998,93.624z"/>
</g>
<g>
</g>
<g>
</g>
<g>
</g>
<g>
</g>
<g>
</g>
<g>
</g>
<g>
</g>
<g>
</g>
<g>
</g>
<g>
</g>
<g>
</g>
<g>
</g>
<g>
</g>
<g>
</g>
<g>
</g>
</svg>
