<?xml version="1.0" encoding="iso-8859-1"?>
<!-- Generator: Adobe Illustrator 19.0.0, SVG Export Plug-In . SVG Version: 6.00 Build 0)  -->
<svg version="1.1" id="Capa_1" xmlns="http://www.w3.org/2000/svg" xmlns:xlink="http://www.w3.org/1999/xlink" x="0px" y="0px"
	 viewBox="0 0 384.032 384.032" style="enable-background:new 0 0 384.032 384.032;" xml:space="preserve">
<path style="fill:#F58A54;" d="M368.016,223.28c0,125.2-121.68,127.84-126.96,127.92c12.32-16.56,106.4-112.24-0.16-264.56
	C240.896,86.64,368.016,89.52,368.016,223.28z"/>
<path style="fill:#F7A176;" d="M240.896,86.64c0,0-14.4-15.04-48.56-15.04s-48.56,15.04-48.56,15.04
	c-106.64,152.64-12.08,248.16,0,264.56c0,0,19.28,17.68,48.56,16.8c29.28,0.88,48.56-16.8,48.56-16.8s0.08,0,0.16,0
	C253.376,334.64,347.456,238.96,240.896,86.64z"/>
<path style="fill:#F58A54;" d="M143.776,351.2h-0.64c0,0-127.12,0-127.12-127.92c0-133.76,127.76-136.64,127.76-136.64
	C37.136,239.28,131.696,334.8,143.776,351.2z"/>
<g>
	<path style="fill:#603916;" d="M247.136,71.088c-5.488-4.008-15.256-9.616-29.936-12.872V16c0-8.832-7.168-16-16-16h-17.672
		c-8.832,0-16,7.168-16,16v42.208c-14.712,3.256-24.496,8.864-29.992,12.88C110.656,73.792,0.016,92.856,0.016,223.28
		c0,110.2,87.712,141.904,138.224,143.824c8.872,6.28,28.344,17.432,54.096,16.904c0.704,0.016,1.4,0.024,2.096,0.024
		c24.968,0,43.64-10.896,52.168-17.008c53.472-2.736,137.416-35.456,137.416-143.744C384.016,92.904,273.952,73.8,247.136,71.088z
		 M32.016,223.28c0-75.84,45.896-104.024,79.008-114.488c-0.184,0.336-0.36,0.688-0.544,1.032c-1.904,3.448-3.768,6.944-5.56,10.504
		c-0.056,0.12-0.112,0.24-0.176,0.36c-1.72,3.416-3.36,6.896-4.96,10.416c-0.352,0.768-0.704,1.536-1.048,2.312
		c-1.608,3.624-3.16,7.288-4.624,11.008c-0.184,0.472-0.36,0.952-0.544,1.432c-1.312,3.384-2.544,6.808-3.72,10.264
		c-0.264,0.768-0.528,1.536-0.784,2.312c-1.248,3.8-2.416,7.632-3.48,11.512c-0.192,0.704-0.368,1.424-0.552,2.128
		c-0.92,3.472-1.76,6.976-2.52,10.504c-0.152,0.712-0.32,1.424-0.472,2.136c-0.808,3.952-1.496,7.944-2.088,11.968
		c-0.128,0.872-0.232,1.752-0.352,2.624c-0.488,3.688-0.896,7.4-1.184,11.144c-0.04,0.544-0.104,1.08-0.144,1.624
		c-0.288,4.112-0.416,8.264-0.44,12.432c-0.008,0.976,0.008,1.944,0.016,2.92c0.04,4.096,0.176,8.208,0.48,12.352
		c0.016,0.184,0.016,0.376,0.032,0.56c0.336,4.272,0.872,8.576,1.512,12.896c0.152,1.016,0.312,2.032,0.472,3.048
		c0.712,4.328,1.544,8.672,2.584,13.048c0.08,0.344,0.192,0.696,0.28,1.048c1,4.088,2.184,8.192,3.488,12.304
		c0.32,1.016,0.64,2.04,0.984,3.056c1.464,4.36,3.072,8.728,4.896,13.12c0.288,0.696,0.624,1.4,0.92,2.096
		c1.68,3.904,3.512,7.824,5.496,11.752c0.488,0.968,0.952,1.936,1.464,2.904c2.296,4.392,4.784,8.784,7.472,13.192
		c0.192,0.312,0.336,0.616,0.528,0.928C75.832,320.2,32.016,294.216,32.016,223.28z M192.816,352.008
		c-0.16-0.008-0.32-0.008-0.48-0.008s-0.32,0-0.48,0.008c-19.176,0.48-33.048-9.28-36.472-11.944
		c-0.048-0.064-0.128-0.16-0.184-0.224c-0.744-0.944-1.576-1.984-2.568-3.2c-3.648-4.488-7.056-9.008-10.232-13.568
		c-1.224-1.752-2.256-3.544-3.408-5.312c-1.848-2.816-3.76-5.624-5.432-8.464c-1.208-2.056-2.2-4.152-3.32-6.224
		c-1.392-2.584-2.88-5.152-4.128-7.752c-1.056-2.208-1.896-4.448-2.856-6.672c-1.072-2.504-2.248-4.992-3.2-7.504
		c-0.856-2.288-1.496-4.6-2.24-6.904c-0.808-2.488-1.728-4.968-2.408-7.472c-0.64-2.336-1.064-4.712-1.592-7.064
		c-0.56-2.504-1.224-4.992-1.664-7.504c-0.416-2.384-0.616-4.8-0.92-7.2c-0.32-2.52-0.744-5.024-0.936-7.56
		c-0.192-2.416-0.16-4.864-0.24-7.288c-0.08-2.552-0.264-5.088-0.224-7.664c0.04-2.432,0.288-4.896,0.432-7.352
		c0.16-2.592,0.216-5.176,0.496-7.784c0.264-2.472,0.736-4.968,1.112-7.448c0.392-2.624,0.696-5.232,1.216-7.864
		c0.488-2.488,1.184-5.008,1.784-7.512c0.632-2.656,1.184-5.304,1.936-7.984c0.712-2.504,1.624-5.032,2.448-7.544
		c0.88-2.704,1.672-5.4,2.68-8.12c0.936-2.528,2.072-5.088,3.12-7.632c1.12-2.736,2.152-5.456,3.4-8.2
		c1.152-2.544,2.512-5.12,3.776-7.68c1.368-2.776,2.648-5.536,4.144-8.328c1.368-2.552,2.928-5.128,4.4-7.688
		c1.624-2.824,3.16-5.64,4.912-8.48c1.584-2.576,3.368-5.168,5.064-7.76c1.712-2.624,3.36-5.232,5.184-7.864
		c3.032-2.368,14.184-9.656,36.4-9.656s33.368,7.288,36.408,9.656c1.84,2.664,3.512,5.304,5.248,7.952
		c1.68,2.56,3.448,5.136,5.024,7.688c1.736,2.816,3.264,5.6,4.872,8.408c1.488,2.592,3.08,5.2,4.456,7.784
		c1.464,2.736,2.72,5.44,4.064,8.16c1.296,2.624,2.688,5.256,3.872,7.864c1.2,2.64,2.192,5.256,3.272,7.88
		c1.096,2.664,2.288,5.328,3.264,7.976c0.952,2.568,1.696,5.112,2.536,7.672c0.872,2.672,1.84,5.352,2.6,8.008
		c0.712,2.504,1.216,4.976,1.816,7.472c0.648,2.68,1.392,5.376,1.912,8.04c0.48,2.424,0.744,4.824,1.12,7.232
		c0.416,2.696,0.928,5.408,1.216,8.096c0.256,2.36,0.296,4.704,0.448,7.048c0.176,2.696,0.44,5.408,0.48,8.088
		c0.032,2.336-0.136,4.64-0.2,6.96c-0.072,2.672-0.056,5.352-0.264,8c-0.184,2.312-0.576,4.584-0.856,6.88
		c-0.32,2.632-0.552,5.272-1.008,7.88c-0.4,2.28-1.008,4.528-1.512,6.792c-0.576,2.6-1.048,5.208-1.752,7.784
		c-0.624,2.288-1.472,4.544-2.2,6.816c-0.808,2.52-1.52,5.056-2.456,7.56c-0.88,2.352-1.984,4.664-2.984,7
		c-1.024,2.4-1.936,4.808-3.08,7.192c-1.16,2.408-2.544,4.784-3.824,7.176c-1.216,2.264-2.312,4.552-3.632,6.8
		c-1.56,2.648-3.36,5.264-5.064,7.888c-1.28,1.96-2.424,3.944-3.792,5.888c-3.184,4.56-6.6,9.08-10.248,13.568
		c-0.824,1.016-1.56,1.92-2.216,2.744c-0.04,0.056-0.104,0.128-0.144,0.184C227.24,341.752,212.904,352.464,192.816,352.008z
		 M276.56,329.384c0.144-0.24,0.256-0.48,0.408-0.72c2.704-4.432,5.184-8.848,7.48-13.264c0.52-1,1.016-2.008,1.52-3.008
		c2.008-4,3.88-7.992,5.568-11.976c0.24-0.576,0.52-1.152,0.76-1.72c1.816-4.384,3.408-8.752,4.864-13.104
		c0.36-1.08,0.704-2.152,1.04-3.232c1.32-4.192,2.528-8.368,3.528-12.528c0.056-0.232,0.128-0.472,0.184-0.704
		c1.024-4.328,1.832-8.624,2.536-12.92c0.184-1.104,0.36-2.208,0.52-3.312c0.616-4.216,1.128-8.416,1.448-12.592
		c0.04-0.536,0.048-1.072,0.088-1.608c0.256-3.776,0.384-7.536,0.424-11.272c0.008-1.088,0.024-2.168,0.016-3.248
		c-0.032-4.056-0.168-8.08-0.448-12.08c-0.056-0.824-0.152-1.64-0.216-2.464c-0.28-3.432-0.648-6.84-1.104-10.224
		c-0.136-1.024-0.256-2.04-0.408-3.064c-0.576-3.888-1.256-7.744-2.032-11.56c-0.2-0.968-0.424-1.92-0.632-2.88
		c-0.704-3.24-1.48-6.448-2.328-9.632c-0.232-0.888-0.448-1.776-0.696-2.664c-1.032-3.728-2.16-7.408-3.36-11.056
		c-0.336-1.016-0.688-2.016-1.032-3.024c-1.08-3.144-2.208-6.256-3.4-9.336c-0.264-0.688-0.52-1.392-0.792-2.08
		c-1.408-3.56-2.896-7.056-4.44-10.52c-0.44-1-0.896-1.984-1.344-2.976c-1.456-3.176-2.944-6.32-4.496-9.416
		c-0.192-0.392-0.376-0.784-0.576-1.176c-1.704-3.376-3.48-6.672-5.28-9.944c-0.256-0.464-0.496-0.952-0.752-1.416
		c32.904,10.352,78.408,38.44,78.408,114.616C352.016,293.4,309.296,319.6,276.56,329.384z"/>
	<path style="fill:#603916;" d="M208.736,280.72h-32.72c-7.624,0-14.192,5.384-15.688,12.864c-1.504,7.48,2.496,14.976,9.528,17.904
		c1.496,0.624,10.776,4.264,23.096,4.264c6.664,0,14.216-1.064,21.912-4.256c7.048-2.928,11.048-10.424,9.56-17.904
		C222.936,286.112,216.368,280.72,208.736,280.72z"/>
	<path style="fill:#603916;" d="M214.864,126.256c-21.92-9.08-42.704-0.944-45.008,0.008c-7.04,2.936-11.032,10.432-9.528,17.904
		c1.496,7.48,8.064,12.864,15.688,12.864h32.72c7.632,0,14.2-5.392,15.696-12.872C225.912,136.68,221.912,129.184,214.864,126.256z"
		/>
</g>
<g>
</g>
<g>
</g>
<g>
</g>
<g>
</g>
<g>
</g>
<g>
</g>
<g>
</g>
<g>
</g>
<g>
</g>
<g>
</g>
<g>
</g>
<g>
</g>
<g>
</g>
<g>
</g>
<g>
</g>
</svg>
