<?xml version="1.0" encoding="iso-8859-1"?>
<!-- Generator: Adobe Illustrator 19.0.0, SVG Export Plug-In . SVG Version: 6.00 Build 0)  -->
<svg version="1.1" id="Capa_1" xmlns="http://www.w3.org/2000/svg" xmlns:xlink="http://www.w3.org/1999/xlink" x="0px" y="0px"
	 viewBox="0 0 384 384" style="enable-background:new 0 0 384 384;" xml:space="preserve">
<path style="fill:#FFFCEC;" d="M192.72,123.52c0,0-12.08-21.76-38.96-26.16c-3.12-0.64-6.48-0.96-10.08-0.96
	c-34,0-49.6,27.28-49.6,27.28C48.24,142.96,16,188.16,16,240.88C16,311.12,73.12,368,143.68,368c35.6,0,67.76-14.48,90.96-37.84
	c22.72-22.96,36.72-54.48,36.72-89.28C271.36,188,238.88,142.64,192.72,123.52z"/>
<path style="fill:#F26E64;" d="M368,199.28c0,70.64-56.24,128.32-126.64,130.88h-6.72c22.72-22.96,36.72-54.48,36.72-89.28
	c0-52.88-32.48-98.24-78.64-117.36c0,0-12.08-21.76-38.96-26.16c9.44-7.6,20.16-14.08,31.6-18.88c0,0,16-28.16,51.04-28.16
	s50.56,28,50.56,28C334.56,98,368,144.72,368,199.28z"/>
<path style="fill:#F58A54;" d="M219.12,241.52c0,41.44-33.76,75.04-75.44,75.04c-41.6,0-75.36-33.6-75.36-75.04
	c0-31.12,18.96-57.84,46.08-69.2c0,0,9.2-16.16,29.28-16.16s28.96,16,28.96,16C199.92,183.44,219.12,210.24,219.12,241.52z"/>
<g>
	<path style="fill:#603916;" d="M297.624,65.504c-6.096-8.32-20.712-24.344-45.216-29.504V16c0-8.832-7.168-16-16-16
		s-16,7.168-16,16v20c-24.68,5.192-39.544,21.408-45.68,29.68c-8.92,4.096-17.408,9.144-25.4,14.984
		c-1.856-0.144-3.72-0.264-5.64-0.264c-33.48,0-52.928,20.752-60.208,30.472C32.608,134.264,0,184.784,0,240.88
		C0,319.8,64.456,384,143.68,384c36.36,0,70.52-13.48,97.152-37.848h1.112C321.6,343.256,384,278.744,384,199.28
		C384,141.312,350.264,89.336,297.624,65.504z M32,240.88c0-44.792,26.8-85,68.28-102.448c3.24-1.36,5.944-3.76,7.688-6.808
		c0.112-0.192,11.664-19.224,35.712-19.224c2.504,0,4.816,0.216,7.496,0.752c2.304,0.376,4.456,0.936,6.456,1.624
		c1.016,0.352,1.896,0.808,2.84,1.216c0.904,0.392,1.888,0.736,2.72,1.176c1.272,0.664,2.384,1.408,3.488,2.144
		c0.376,0.248,0.824,0.472,1.184,0.728c7.072,5.024,10.616,10.832,10.936,11.376c0.616,1.08,1.488,1.96,2.32,2.864
		c0.352,0.376,0.584,0.856,0.976,1.2c1.32,1.176,2.84,2.136,4.496,2.824c41.776,17.304,68.768,57.568,68.768,102.576
		c0,3.672-0.176,7.328-0.528,10.936c-2.464,25.288-13.456,48.792-31.56,67.088c0,0,0,0,0,0.008
		C202.056,340.248,173.792,352,143.68,352C82.096,352,32,302.152,32,240.88z M269.848,309.528c0.2-0.368,0.376-0.752,0.576-1.128
		c0.368-0.688,0.704-1.392,1.056-2.08c1.632-3.168,3.144-6.384,4.536-9.656c0.296-0.704,0.624-1.392,0.912-2.104
		c1.504-3.712,2.832-7.488,4.016-11.32c0.264-0.864,0.504-1.736,0.752-2.608c1.024-3.544,1.92-7.12,2.664-10.744
		c0.104-0.496,0.232-0.992,0.336-1.488c0.776-3.992,1.344-8.032,1.776-12.104c0.104-0.96,0.184-1.92,0.272-2.88
		c0.36-4.152,0.608-8.328,0.608-12.544c0-52.16-28.136-99.312-72.904-124.488c-0.576-0.328-1.128-0.696-1.712-1.016
		c-0.632-0.344-1.296-0.632-1.936-0.968c-2.448-1.288-4.904-2.552-7.44-3.712c-3.048-4.144-8.24-10.192-15.656-15.776
		c1.272-0.592,2.544-1.152,3.84-1.696c3.16-1.328,5.888-3.776,7.64-6.712c0.488-0.824,12.296-20.144,37.112-20.192
		c0.04,0,0.072,0.008,0.104,0.008s0.064-0.008,0.096-0.008c24.688,0.056,36.072,19.08,36.464,19.744
		c1.752,3.168,4.528,5.648,7.88,7.024c43.232,17.896,71.16,59.576,71.16,106.2C352,251.504,317.512,295.472,269.848,309.528z"/>
	<path style="fill:#603916;" d="M235.12,241.52c0-35.312-20.2-67.04-51.864-82.144c-6.848-8.712-20.24-19.216-39.576-19.216
		c-19.376,0-32.936,10.632-39.864,19.384C72.384,174.688,52.32,206.36,52.32,241.52c0,50.2,40.984,91.04,91.36,91.04
		C194.104,332.56,235.12,291.72,235.12,241.52z M143.68,300.56c-32.728,0-59.36-26.488-59.36-59.04
		c0-23.84,14.232-45.216,36.264-54.44c3.256-1.36,5.976-3.768,7.72-6.84c0.048-0.08,5.064-8.08,15.376-8.08
		c9.912,0,14.624,7.216,14.976,7.76c1.752,3.168,4.528,5.64,7.872,7.024c22.232,9.192,36.592,30.616,36.592,54.576
		C203.12,274.072,176.456,300.56,143.68,300.56z"/>
	<path style="fill:#603916;" d="M148.136,198.784h-8.88c-8.832,0-16,7.168-16,16s7.168,16,16,16h8.88c8.832,0,16-7.168,16-16
		S156.968,198.784,148.136,198.784z"/>
	<path style="fill:#603916;" d="M148.136,249.96h-8.88c-8.832,0-16,7.168-16,16s7.168,16,16,16h8.88c8.832,0,16-7.168,16-16
		S156.968,249.96,148.136,249.96z"/>
</g>
<g>
</g>
<g>
</g>
<g>
</g>
<g>
</g>
<g>
</g>
<g>
</g>
<g>
</g>
<g>
</g>
<g>
</g>
<g>
</g>
<g>
</g>
<g>
</g>
<g>
</g>
<g>
</g>
<g>
</g>
</svg>
