<?xml version="1.0" encoding="iso-8859-1"?>
<!-- Generator: Adobe Illustrator 19.0.0, SVG Export Plug-In . SVG Version: 6.00 Build 0)  -->
<svg version="1.1" id="Capa_1" xmlns="http://www.w3.org/2000/svg" xmlns:xlink="http://www.w3.org/1999/xlink" x="0px" y="0px"
	 viewBox="0 0 384.015 384.015" style="enable-background:new 0 0 384.015 384.015;" xml:space="preserve">
<path style="fill:#FFEB97;" d="M307.591,307.599c-80.56,80.56-211.12,80.56-291.6,0l64.56-64.56c44.88,44.88,117.6,44.88,162.48,0
	s44.88-117.6,0-162.48l64.56-64.56C388.151,96.479,388.151,227.039,307.591,307.599z"/>
<path style="fill:#F58A54;" d="M243.031,243.039c-44.88,44.88-117.6,44.88-162.48,0l52.4-52.4c0,0,37.12,21.76,58.88,0
	s-0.32-58.56-0.32-58.56l51.52-51.52C287.911,125.439,287.911,198.159,243.031,243.039z"/>
<path style="fill:#603916;" d="M161.759,384.015c59.352,0,115.168-23.12,157.152-65.104s65.104-97.792,65.104-157.144
	S360.895,46.623,318.903,4.679c-6.232-6.24-16.368-6.24-22.616,0.008l-64.56,64.56l-51.512,51.52
	c-5.192,5.192-6.184,13.248-2.408,19.544c0.16,0.264,15.096,26.648,2.728,39.016c-12.512,12.496-39.264-2.368-39.48-2.488
	c-6.28-3.672-14.256-2.648-19.408,2.496l-52.4,52.4l-64.56,64.56c-6.248,6.248-6.248,16.368-0.008,22.624
	C46.615,360.895,102.407,384.015,161.759,384.015z M136.231,209.991c19.24,7.768,47.224,11.656,66.912-8.032
	c19.712-19.712,15.688-47.52,7.792-66.672l31.112-31.112c0.392,0.544,0.816,1.056,1.192,1.608c0.608,0.88,1.192,1.768,1.768,2.664
	c1.08,1.68,2.104,3.392,3.072,5.128c0.48,0.856,0.976,1.696,1.424,2.56c1.208,2.312,2.32,4.656,3.336,7.056
	c0.128,0.296,0.28,0.584,0.4,0.88c1.112,2.688,2.072,5.44,2.944,8.224c0.264,0.856,0.48,1.72,0.72,2.576
	c0.56,1.992,1.072,4,1.512,6.04c0.216,1.008,0.416,2.016,0.6,3.024c0.368,2.032,0.664,4.08,0.904,6.144
	c0.112,0.92,0.24,1.84,0.32,2.768c0.264,2.968,0.44,5.952,0.44,8.968c0,26.408-10.288,51.24-28.976,69.928
	s-43.52,28.976-69.928,28.976c-3.016,0-6-0.168-8.968-0.44c-0.92-0.08-1.832-0.216-2.752-0.32c-2.072-0.24-4.136-0.544-6.184-0.912
	c-1-0.184-1.992-0.376-2.976-0.584c-2.064-0.44-4.104-0.96-6.136-1.536c-0.824-0.232-1.664-0.44-2.48-0.696
	c-2.808-0.872-5.576-1.848-8.288-2.968c-0.2-0.08-0.384-0.184-0.584-0.264c-2.504-1.056-4.952-2.224-7.368-3.488
	c-0.808-0.424-1.6-0.888-2.392-1.336c-1.808-1.008-3.584-2.072-5.328-3.2c-0.84-0.544-1.68-1.096-2.504-1.664
	c-0.568-0.392-1.112-0.84-1.672-1.24L136.231,209.991z M81.231,264.991c1.968,1.544,4.024,2.944,6.072,4.368
	c0.768,0.536,1.512,1.128,2.288,1.648c3.32,2.208,6.728,4.248,10.216,6.128c0.816,0.44,1.664,0.8,2.488,1.224
	c2.704,1.384,5.432,2.704,8.216,3.888c1.288,0.544,2.6,1.024,3.904,1.528c2.4,0.936,4.816,1.816,7.272,2.6
	c1.44,0.464,2.888,0.888,4.352,1.296c2.424,0.688,4.872,1.288,7.336,1.832c1.464,0.32,2.92,0.648,4.392,0.92
	c2.664,0.496,5.352,0.864,8.064,1.192c1.288,0.152,2.56,0.36,3.856,0.48c4,0.368,8.032,0.592,12.096,0.592
	c34.952,0,67.832-13.616,92.552-38.344c24.728-24.728,38.352-57.592,38.352-92.552c0-4.072-0.224-8.104-0.592-12.104
	c-0.12-1.288-0.32-2.56-0.48-3.848c-0.328-2.712-0.696-5.408-1.192-8.072c-0.272-1.472-0.6-2.92-0.92-4.376
	c-0.544-2.472-1.152-4.92-1.84-7.344c-0.416-1.456-0.84-2.912-1.304-4.352c-0.784-2.448-1.664-4.856-2.592-7.24
	c-0.512-1.32-0.992-2.648-1.544-3.944c-1.168-2.744-2.472-5.432-3.832-8.096c-0.44-0.864-0.824-1.76-1.288-2.616
	c-1.872-3.472-3.904-6.856-6.104-10.16c-0.568-0.856-1.216-1.664-1.808-2.512c-1.384-1.976-2.736-3.976-4.232-5.888l42.16-42.152
	c29.048,34.264,44.872,77.248,44.872,122.68c0,50.808-19.792,98.576-55.728,134.52c-35.944,35.936-83.72,55.728-134.52,55.728
	c-45.432,0-88.424-15.832-122.68-44.88L81.231,264.991z"/>
<g>
</g>
<g>
</g>
<g>
</g>
<g>
</g>
<g>
</g>
<g>
</g>
<g>
</g>
<g>
</g>
<g>
</g>
<g>
</g>
<g>
</g>
<g>
</g>
<g>
</g>
<g>
</g>
<g>
</g>
</svg>
