<?xml version="1.0" encoding="iso-8859-1"?>
<!-- Generator: Adobe Illustrator 19.0.0, SVG Export Plug-In . SVG Version: 6.00 Build 0)  -->
<svg version="1.1" id="Capa_1" xmlns="http://www.w3.org/2000/svg" xmlns:xlink="http://www.w3.org/1999/xlink" x="0px" y="0px"
	 viewBox="0 0 383.985 383.985" style="enable-background:new 0 0 383.985 383.985;" xml:space="preserve">
<path style="fill:#FFEB97;" d="M294.226,294.233c0.168-0.176,0.36-0.36,0.528-0.544h-0.016
	c65.24-65.936,82.968-147.856,53.68-205.424c0.032-0.016,0.056-0.04,0.096-0.08c0,0,35.8-37.896,10.344-63.336
	c-25.44-25.456-61.552,12.136-61.552,12.136c-0.032,0.032-0.064,0.064-0.08,0.088C239.674,7.809,157.722,25.513,91.802,90.745
	h-0.016c-0.168,0.168-0.344,0.344-0.536,0.528c-0.168,0.176-0.352,0.36-0.528,0.544l0,0C25.498,157.753,7.786,239.673,37.05,297.249
	c-0.016,0.016-0.048,0.04-0.056,0.072c0,0-37.6,36.12-12.152,61.552c25.448,25.464,63.344-10.36,63.344-10.36
	c0.024-0.016,0.032-0.048,0.072-0.056c57.576,29.264,139.504,11.552,205.424-53.688l0.008,0.016
	C293.866,294.585,294.042,294.409,294.226,294.233z"/>
<g>
	<path style="fill:#603916;" d="M370.178,13.529c-8.848-8.856-19.88-13.528-31.912-13.528c-0.152,0-0.312,0-0.464,0
		c-17.888,0.176-34.072,10.6-43.472,18.16c-64.768-26.44-149.184-2.704-214.152,61.552c-0.104,0.096-0.728,0.744-0.832,0.84
		C15.418,145.185-8.302,229.601,18.162,294.369c-7.624,9.488-17.984,25.624-18.16,43.448c-0.12,12.208,4.552,23.4,13.512,32.36
		c10.016,10.016,21.36,13.808,32.616,13.808c16.568,0,32.936-8.208,44.584-16.816c64.64,26.656,148.992,3.176,213.68-60.512
		c0.248-0.224,0.496-0.456,0.728-0.696l-10.368-11.144v-0.024l10.656,10.888c0.056-0.056,0.296-0.296,0.344-0.344
		c0.112-0.112,0.576-0.584,0.68-0.704c0.056-0.056,0.112-0.12,0.168-0.176c63.712-64.704,87.216-149.056,60.552-213.696
		C381.61,71.185,394.962,38.305,370.178,13.529z M334.162,95.513c27.248,53.56,6.84,128.672-50.792,186.92
		c-0.16,0.168-0.32,0.336-0.48,0.504c-0.16,0.144-0.312,0.288-0.464,0.44c-58.216,57.624-133.336,78.024-186.92,50.8
		c-3.312-1.688-7.096-2.168-10.72-1.352c-2.816,0.624-5.424,2.016-7.52,3.984c-0.008,0.008-0.016,0.016-0.032,0.024
		c-0.264,0.248-27.184,24.6-41.08,10.704c-2.888-2.888-4.168-5.776-4.152-9.36c0.072-11.24,11.96-25.328,16.08-29.336
		c0.424-0.408,0.824-0.84,1.2-1.288c4.12-4.88,4.968-11.808,2.032-17.576c-27.224-53.576-6.816-128.696,51.008-187.176
		c0.064-0.056,0.672-0.648,0.736-0.704c58.224-57.616,133.336-78.016,186.92-50.784c6.456,3.28,14.216,1.792,19.016-3.416
		c5.112-5.248,18.664-15.808,29.12-15.912c3.416-0.216,6.52,1.24,9.432,4.16c13.08,13.072-7.736,37.704-10.392,40.728
		C332.33,81.665,330.938,89.177,334.162,95.513z"/>
	<path style="fill:#603916;" d="M246.394,61.169c-60.608-4.176-97.584,38.224-99.128,40.032c-5.736,6.72-4.936,16.824,1.784,22.56
		c3.016,2.568,6.704,3.832,10.376,3.832c4.52,0,9.016-1.904,12.176-5.616c0.272-0.328,27.992-32,72.56-28.88
		c8.904,0.672,16.464-6.04,17.072-14.848C261.858,69.425,255.21,61.777,246.394,61.169z"/>
</g>
<g>
</g>
<g>
</g>
<g>
</g>
<g>
</g>
<g>
</g>
<g>
</g>
<g>
</g>
<g>
</g>
<g>
</g>
<g>
</g>
<g>
</g>
<g>
</g>
<g>
</g>
<g>
</g>
<g>
</g>
</svg>
