<?xml version="1.0" encoding="iso-8859-1"?>
<!-- Generator: Adobe Illustrator 19.0.0, SVG Export Plug-In . SVG Version: 6.00 Build 0)  -->
<svg version="1.1" id="Capa_1" xmlns="http://www.w3.org/2000/svg" xmlns:xlink="http://www.w3.org/1999/xlink" x="0px" y="0px"
	 viewBox="0 0 384 384" style="enable-background:new 0 0 384 384;" xml:space="preserve">
<path style="fill:#FFEB97;" d="M263.291,295.44c0,24.08-11.52,45.52-29.36,58.64c-11.76,8.72-26.24,13.92-41.92,13.92
	c-16.24,0-31.28-5.6-43.28-14.96c-17.04-13.2-28-34.08-28-57.6c0-3.92,0.32-7.76,0.88-11.6c0,0,16.56-156.24,54.64-191.76
	c0.08-0.08,0.08-0.08,0.16-0.16c4.88-4.56,10.08-7.04,15.6-7.04c5.36,0,10.4,2.32,15.12,6.64h0.08l0.08,0.08
	c38.4,34.64,55.12,192.24,55.12,192.24C262.971,287.68,263.291,291.52,263.291,295.44z"/>
<g>
	<path style="fill:#FFF9BB;" d="M300.491,362c-19.44,5.76-49.84,1.76-66.56-7.92c17.84-13.12,29.36-34.56,29.36-58.64
		c0-3.92-0.32-7.76-0.88-11.6c0,0-16.72-157.6-55.12-192.24l1.2-0.72c47.36-13.92,136.64,170.4,136.64,170.4
		c1.6,3.44,2.96,7.04,4.08,10.88C360.091,310.64,338.411,350.88,300.491,362z"/>
	<path style="fill:#FFF9BB;" d="M148.731,353.04c-16.64,9.92-45.68,14.72-65.2,8.96c-37.92-11.12-59.6-51.36-48.72-89.84
		c1.12-3.84,2.48-7.44,4.08-10.88c0,0,87.52-184.32,134.88-170.4l2.48,1.2c-38.08,35.52-54.64,191.76-54.64,191.76
		c-0.56,3.84-0.88,7.68-0.88,11.6C120.731,318.96,131.691,339.84,148.731,353.04z"/>
</g>
<g>
	<path style="fill:#603916;" d="M79.003,377.344c7.176,2.12,15.384,3.136,23.928,3.136c15.072,0,31.144-3.192,44.552-8.976
		c13.448,8.16,28.64,12.496,44.528,12.496c15.296,0,30.008-4.048,43.112-11.656c13.072,5.376,29.088,8.336,44.224,8.336
		c9.184,0,18.04-1.072,25.664-3.336c46.112-13.536,72.848-62.664,59.56-109.672c-1.32-4.528-2.984-8.944-5.04-13.368
		c-25.888-53.44-87.592-169.488-139.496-179.376c0.008-0.2,0.056-0.384,0.056-0.592V16c0-8.832-7.168-16-16-16h-24.168
		c-8.832,0-16,7.168-16,16v58.336c0,0.12,0.032,0.224,0.032,0.344C111.899,82.264,50.099,200.352,24.379,254.536
		c-1.952,4.192-3.608,8.608-4.968,13.272C6.163,314.68,32.907,363.824,79.003,377.344z M158.523,340.392
		c-13.848-10.728-21.8-27.112-21.8-44.952c0-2.968,0.232-6,0.792-9.912c0.576-5.448,1.272-11.272,2.064-17.368
		c7.704-58.96,25.352-143.656,47.744-164.544c1.856-1.736,3.568-2.736,4.68-2.736c1.432,0,3.328,1.528,4.32,2.448
		c0.184,0.168,0.384,0.336,0.584,0.496c0.184,0.176,0.368,0.376,0.552,0.56c1.376,1.352,2.736,2.928,4.072,4.752
		c0.136,0.184,0.272,0.384,0.4,0.576c1.344,1.88,2.672,3.96,3.976,6.272c0.12,0.208,0.232,0.432,0.352,0.648
		c1.312,2.36,2.6,4.912,3.872,7.656c0.104,0.232,0.208,0.472,0.312,0.704c1.272,2.792,2.52,5.752,3.744,8.888
		c0.096,0.24,0.184,0.496,0.28,0.736c1.232,3.184,2.432,6.504,3.616,9.984c0.08,0.232,0.16,0.48,0.232,0.712
		c1.184,3.52,2.344,7.168,3.472,10.936c0.072,0.232,0.136,0.464,0.2,0.696c1.136,3.808,2.24,7.728,3.312,11.736
		c0.056,0.2,0.104,0.4,0.16,0.6c1.08,4.056,2.136,8.2,3.152,12.416c0.04,0.168,0.08,0.344,0.12,0.52
		c1.024,4.248,2.016,8.56,2.976,12.912c0.032,0.144,0.064,0.296,0.096,0.44c0.96,4.392,1.896,8.824,2.784,13.264
		c0.016,0.08,0.032,0.152,0.048,0.232c0.904,4.504,1.768,9.024,2.6,13.52c0.008,0.032,0.008,0.064,0.016,0.096
		c0.832,4.52,1.624,9.024,2.368,13.488c0.016,0.072,0.024,0.136,0.032,0.208c0.744,4.432,1.448,8.824,2.104,13.136
		c0.008,0.056,0.016,0.112,0.024,0.168c0.664,4.328,1.28,8.592,1.856,12.744c0,0.016,0.008,0.04,0.008,0.056
		c0.576,4.176,1.112,8.256,1.592,12.2c0,0.024,0.008,0.048,0.008,0.08c0.488,3.944,0.92,7.76,1.312,11.408
		c0.48,3.28,0.712,6.312,0.712,9.28c0,2.264-0.136,4.52-0.392,6.736c-1.832,15.56-9.936,29.808-22.496,39.048
		C205.003,355.608,177.651,355.296,158.523,340.392z M330.627,268.024c1.288,2.776,2.344,5.592,3.184,8.488
		c8.504,30.064-8.472,61.52-37.824,70.136c-0.008,0-0.024,0.008-0.04,0.008c-8.824,2.616-21.48,2.6-33.12,0.52
		c0.4-0.568,0.752-1.176,1.144-1.752c0.432-0.648,0.856-1.296,1.272-1.944c1.56-2.456,3.04-4.96,4.36-7.56
		c0.064-0.128,0.144-0.248,0.208-0.376c1.36-2.712,2.528-5.52,3.608-8.368c0.272-0.72,0.528-1.432,0.784-2.16
		c0.992-2.824,1.88-5.688,2.584-8.608c0.016-0.08,0.048-0.152,0.064-0.224c0.712-2.984,1.216-6.024,1.616-9.088
		c0.104-0.768,0.192-1.528,0.272-2.296c0.328-3.096,0.552-6.208,0.552-9.352c0-4.536-0.344-9.088-0.976-13.288
		c-0.064-0.624-0.16-1.472-0.264-2.44c-0.04-0.392-0.088-0.792-0.136-1.24c-0.104-0.928-0.224-1.968-0.36-3.12
		c-0.032-0.304-0.064-0.544-0.104-0.864c-0.184-1.568-0.4-3.328-0.64-5.24c-0.04-0.32-0.08-0.648-0.128-0.984
		c-0.24-1.896-0.504-3.928-0.792-6.104c-0.016-0.144-0.04-0.28-0.056-0.424c-4.024-30.16-12.856-85.6-27.992-128.856
		C272.339,162.336,303.851,212.792,330.627,268.024z M50.171,276.648c0.88-3.024,1.936-5.848,3.168-8.504
		c26.68-56.192,59.168-108.464,83.824-137.76c-0.128,0.352-0.24,0.72-0.368,1.072c-1.152,3.216-2.272,6.488-3.352,9.832
		c-0.128,0.384-0.24,0.776-0.36,1.168c-0.968,3.048-1.912,6.136-2.824,9.256c-0.264,0.888-0.52,1.784-0.776,2.68
		c-1.992,6.968-3.848,14.064-5.576,21.184c-0.224,0.936-0.448,1.864-0.672,2.8c-0.76,3.208-1.496,6.416-2.208,9.608
		c-0.08,0.352-0.16,0.712-0.24,1.064c-0.776,3.528-1.504,7.024-2.216,10.496c-0.184,0.904-0.36,1.8-0.544,2.696
		c-0.592,2.944-1.16,5.848-1.704,8.728c-0.104,0.568-0.216,1.136-0.328,1.704c-0.624,3.352-1.216,6.632-1.784,9.856
		c-0.136,0.784-0.264,1.544-0.4,2.32c-0.464,2.672-0.904,5.28-1.32,7.84c-0.104,0.64-0.216,1.28-0.312,1.912
		c-0.48,2.984-0.936,5.88-1.368,8.672c-0.104,0.696-0.2,1.352-0.304,2.032c-0.336,2.248-0.656,4.424-0.96,6.52
		c-0.088,0.632-0.184,1.264-0.272,1.88c-0.352,2.512-0.688,4.904-0.992,7.152c-0.056,0.408-0.104,0.76-0.152,1.152
		c-0.256,1.912-0.488,3.704-0.704,5.392c-0.064,0.496-0.128,0.984-0.184,1.464c-0.232,1.832-0.44,3.544-0.616,5.056
		c-0.032,0.248-0.048,0.44-0.08,0.68c-0.152,1.296-0.288,2.432-0.4,3.448c-0.04,0.368-0.08,0.68-0.112,1.008
		c-0.112,0.984-0.2,1.856-0.272,2.464c-0.704,4.832-1.048,9.384-1.048,13.92c0,3.096,0.208,6.144,0.512,9.176
		c0.08,0.768,0.168,1.528,0.264,2.288c0.368,2.888,0.824,5.752,1.456,8.568c0.024,0.12,0.04,0.248,0.072,0.368
		c0.672,2.912,1.528,5.752,2.48,8.552c0.248,0.728,0.504,1.44,0.768,2.16c0.936,2.552,1.968,5.064,3.136,7.512
		c0.12,0.248,0.216,0.504,0.336,0.752c1.28,2.616,2.728,5.136,4.256,7.616c0.424,0.68,0.856,1.352,1.296,2.016
		c0.456,0.696,0.872,1.408,1.344,2.088c-11.48,2.424-23.928,2.672-32.624,0.112C58.675,338.032,41.707,306.576,50.171,276.648z"/>
	<path style="fill:#603916;" d="M216.635,275.696c-8.832,0-16,7.168-16,16c0,5-3.872,9.064-8.632,9.064c-8.832,0-16,7.168-16,16
		s7.168,16,16,16c22.408,0,40.632-18.424,40.632-41.064C232.635,282.856,225.475,275.696,216.635,275.696z"/>
</g>
<g>
</g>
<g>
</g>
<g>
</g>
<g>
</g>
<g>
</g>
<g>
</g>
<g>
</g>
<g>
</g>
<g>
</g>
<g>
</g>
<g>
</g>
<g>
</g>
<g>
</g>
<g>
</g>
<g>
</g>
</svg>
