<?xml version="1.0" encoding="iso-8859-1"?>
<!-- Generator: Adobe Illustrator 19.0.0, SVG Export Plug-In . SVG Version: 6.00 Build 0)  -->
<svg version="1.1" id="Capa_1" xmlns="http://www.w3.org/2000/svg" xmlns:xlink="http://www.w3.org/1999/xlink" x="0px" y="0px"
	 viewBox="0 0 383.962 383.962" style="enable-background:new 0 0 383.962 383.962;" xml:space="preserve">
<path style="fill:#9DC85C;" d="M284.545,166.16c0,0-5.6,2.08-14.24,3.04c-12.56,1.44-31.68,0.48-49.76-12.4
	c-11.84,18.64-28.64,26.56-28.64,26.56s-16.72-8-28.56-26.56c-18.16,12.88-37.2,13.84-49.68,12.4c-8.72-0.96-14.24-3.04-14.24-3.04
	s-15.12-42.32,17.84-76.16c20.08-20.56,39.2-18.72,51.12-14.16l-0.08,0.24c10.48-8.88,22.48-10.24,23.68-10.32c0.08,0,0.08,0,0.08,0
	s12.48,0.96,23.44,10.16c4.32-1.68,9.6-3.04,15.6-3.04c10.4,0,22.8,4.08,35.6,17.12C299.665,123.84,284.545,166.16,284.545,166.16z"
	/>
<path style="fill:#99336A;" d="M278.705,281.28c0,95.28-86.72,86.48-86.72,86.48s-86.72,8.8-86.72-86.48c0,0-1.76-56.24,8.4-112.08
	c12.48,1.44,31.52,0.48,49.68-12.4c11.84,18.56,28.56,26.56,28.56,26.56s16.8-7.92,28.64-26.56c18.08,12.88,37.2,13.84,49.76,12.4
	C280.465,225.04,278.705,281.28,278.705,281.28z"/>
<g>
	<path style="fill:#603916;" d="M299.617,171.544c0.752-2.112,18.016-52.184-21.496-92.752
		C260.337,60.68,242.737,56.88,231.097,56.88c-4.248,0-8.52,0.496-12.76,1.464c-3.608-2.176-7.12-3.76-10.36-4.968V16
		c0-8.832-7.168-16-16-16s-16,7.168-16,16v37.4c-3.232,1.208-6.728,2.784-10.312,4.944c-14.912-3.368-37.4-2.528-59.864,20.496
		c-39.472,40.52-22.2,90.592-21.456,92.704c1.584,4.432,5.032,7.936,9.44,9.592c0.184,0.072,0.752,0.28,1.64,0.56
		c-7.536,51.208-6.216,97.88-6.16,99.576c0,34.288,10.136,60.824,30.112,78.88c27.576,24.912,64.408,24.168,72.608,23.648
		c1.232,0.08,3.12,0.16,5.512,0.16c13.56,0,43.664-2.64,67.096-23.808c19.928-18.008,30.064-44.472,30.112-78.632
		c0.12-4.304,1.184-49.936-6.16-99.832c0.84-0.272,1.392-0.464,1.568-0.536C294.545,179.512,298.025,176,299.617,171.544z
		 M128.713,101.176c10.496-10.752,20.92-14.392,31.784-11.144c5.776,3.24,13.032,2.592,18.16-1.752
		c5.168-4.376,11.032-5.912,13.352-6.376c2.408,0.48,8.136,2,13.216,6.264c4.488,3.768,10.664,4.776,16.104,2.656
		c11.744-4.584,22.736-1.072,33.92,10.336c18.048,18.528,17.816,40.304,16.024,51.768c-0.864,0.136-1.808,0.264-2.784,0.376
		c-9.968,1.128-24.704,0.4-38.656-9.536c-3.568-2.544-8.032-3.504-12.344-2.672c-4.312,0.84-8.088,3.416-10.44,7.12
		c-4.776,7.504-10.632,12.848-15.104,16.216c-1.12-0.848-2.328-1.824-3.576-2.92c-3.76-3.288-7.952-7.712-11.536-13.328
		c-0.008-0.008-0.016-0.016-0.024-0.032c-0.544-0.84-1.16-1.616-1.848-2.336c-0.064-0.064-0.104-0.144-0.168-0.2
		c-1.488-1.52-3.272-2.752-5.264-3.584c-0.016-0.008-0.032-0.008-0.048-0.016c-0.96-0.4-1.96-0.704-3-0.912
		c-0.024-0.008-0.04-0.016-0.064-0.016c-1.024-0.2-2.048-0.296-3.072-0.296c-0.024,0-0.048,0.008-0.08,0.008
		c-0.608,0-1.192,0.112-1.792,0.184c-0.48,0.056-0.968,0.064-1.432,0.16c-0.36,0.08-0.696,0.224-1.048,0.328
		c-0.304,0.088-0.6,0.176-0.904,0.28c-0.36,0.128-0.736,0.216-1.088,0.368c-0.32,0.136-0.616,0.344-0.928,0.504
		c-0.624,0.32-1.256,0.64-1.832,1.04c-0.048,0.032-0.112,0.056-0.16,0.088c-14.048,9.96-28.712,10.68-38.672,9.544
		c-0.952-0.104-1.864-0.232-2.712-0.36C110.913,141.472,110.681,119.696,128.713,101.176z M262.713,280.784
		c-0.008,0.168-0.008,0.336-0.008,0.496c0,24.736-6.52,43.232-19.384,54.976c-19.848,18.112-49.504,15.608-49.72,15.592
		c-0.512-0.056-1.064-0.08-1.6-0.08c-0.52,0-1.048,0.024-1.552,0.072c-0.28,0.032-29.96,2.52-49.8-15.584
		c-12.856-11.736-19.384-30.232-19.392-55.472c-0.016-0.504-1.32-46.44,5.92-95.184c0.056,0,0.128-0.016,0.184-0.016
		c2.184-0.112,4.448-0.336,6.76-0.632c0.672-0.088,1.36-0.216,2.04-0.328c1.712-0.264,3.432-0.576,5.192-0.96
		c0.84-0.184,1.688-0.392,2.536-0.6c1.736-0.432,3.48-0.944,5.248-1.512c0.792-0.256,1.584-0.488,2.384-0.768
		c2.544-0.896,5.104-1.904,7.688-3.112c11.896,13.2,24.112,19.312,25.792,20.12c1.088,0.52,2.224,0.912,3.376,1.168
		c0.28,0.064,0.576,0.048,0.856,0.096c0.88,0.152,1.76,0.296,2.648,0.296c0.008,0,0.016,0,0.024,0c0.816,0,1.632-0.144,2.44-0.264
		c0.336-0.056,0.68-0.04,1.016-0.112c1.152-0.256,2.28-0.632,3.368-1.144c1.688-0.8,13.992-6.88,25.952-20.144
		c2.576,1.208,5.128,2.208,7.672,3.104c0.824,0.288,1.64,0.528,2.456,0.792c1.736,0.552,3.456,1.056,5.16,1.48
		c0.88,0.224,1.752,0.432,2.624,0.616c1.728,0.376,3.432,0.68,5.112,0.936c0.704,0.112,1.416,0.248,2.104,0.336
		c2.312,0.296,4.576,0.512,6.768,0.624c0.064,0,0.136,0.016,0.2,0.016C264.033,234.344,262.729,280.28,262.713,280.784z"/>
	<path style="fill:#603916;" d="M225.233,264.384c-8.832,0-16,7.168-16,16c0,14.688-7.184,17.648-10.36,18.232
		c-8.576,1.176-14.696,9.008-13.712,17.664c0.928,8.168,7.848,14.192,15.872,14.192c0.608,0,1.216-0.032,1.832-0.104
		c13.264-1.512,38.36-13.896,38.36-49.984C241.233,271.552,234.073,264.384,225.233,264.384z"/>
</g>
<g>
</g>
<g>
</g>
<g>
</g>
<g>
</g>
<g>
</g>
<g>
</g>
<g>
</g>
<g>
</g>
<g>
</g>
<g>
</g>
<g>
</g>
<g>
</g>
<g>
</g>
<g>
</g>
<g>
</g>
</svg>
