<?xml version="1.0" encoding="iso-8859-1"?>
<!-- Generator: Adobe Illustrator 19.0.0, SVG Export Plug-In . SVG Version: 6.00 Build 0)  -->
<svg version="1.1" id="Capa_1" xmlns="http://www.w3.org/2000/svg" xmlns:xlink="http://www.w3.org/1999/xlink" x="0px" y="0px"
	 viewBox="0 0 384 384" style="enable-background:new 0 0 384 384;" xml:space="preserve">
<path style="fill:#80764C;" d="M368,183.44c0,82.24-66.48,148.96-148.56,148.96c-5.12,0-12.88-1.2-17.84-1.76
	c15.52-18.4,24.88-42.16,24.88-68.16c0-58.32-47.12-105.52-105.2-105.52c-17.76,0-34.4,4.4-49.04,12.08
	c8-61.2,53.2-116,112.08-130.32c0,0,19.76-22.72,35.12-22.72c15.44,0,35.92,22.88,35.92,22.88C320.08,54.96,368,113.6,368,183.44z"
	/>
<path style="fill:#B3AD94;" d="M121.28,156.96c-17.76,0-34.4,4.4-49.04,12.08C38.8,186.72,16,221.92,16,262.48
	C16,320.72,63.12,368,121.28,368c32.16,0,60.96-14.48,80.32-37.36c15.52-18.4,24.88-42.16,24.88-68.16
	C226.48,204.16,179.36,156.96,121.28,156.96z"/>
<path style="fill:#FFF9BB;" d="M173.52,262.48c0,28.96-23.36,52.48-52.24,52.48c-28.96,0-52.32-23.52-52.32-52.48
	c0-28.96,23.36-52.48,52.32-52.48C150.16,210,173.52,233.52,173.52,262.48z"/>
<g>
	<path style="fill:#603916;" d="M121.28,384c32.672,0,63.608-13.28,86.392-36.52c4.008,0.48,8.112,0.912,11.768,0.912
		C310.176,348.4,384,274.4,384,183.44c0-74.384-49.144-139.024-120.112-158.856C255.4,15.888,237.424,0,219.44,0
		c-17.92,0-35.408,15.704-43.744,24.44C116.392,41.064,69.224,95.08,57.736,158.928C21.928,180.992,0,219.952,0,262.48
		C0,329.488,54.408,384,121.28,384z M188.104,54.264c3.216-0.784,6.12-2.544,8.288-5.048C203.736,40.768,215.368,32.08,219.44,32
		c4.192,0.072,16.096,8.776,24,17.552c2.144,2.392,4.944,4.08,8.064,4.856C310.672,69.112,352,122.168,352,183.44
		c0,69.712-53.776,127.064-121.896,132.528c0.128-0.264,0.216-0.544,0.344-0.816c1.8-3.752,3.424-7.576,4.824-11.488
		c0.264-0.728,0.456-1.488,0.704-2.224c1.088-3.224,2.048-6.496,2.872-9.8c0.32-1.296,0.592-2.6,0.872-3.904
		c0.624-2.944,1.136-5.912,1.544-8.896c0.168-1.264,0.368-2.512,0.504-3.776c0.432-4.168,0.72-8.36,0.72-12.584
		c0-67.008-54.368-121.52-121.192-121.52c-4.784,0-9.504,0.304-14.176,0.84c-1.52,0.176-3.008,0.52-4.52,0.76
		c-2.72,0.416-5.464,0.76-8.136,1.36C109.384,99.888,145.128,64.72,188.104,54.264z M79.672,183.208
		c12.968-6.8,26.96-10.248,41.608-10.248c49.176,0,89.192,40.16,89.192,89.52c0,2.648-0.12,5.28-0.352,7.896
		c-0.928,10.456-3.672,20.632-8.072,30.064c-0.008,0.016-0.016,0.04-0.024,0.056c-0.288,0.616-0.64,1.192-0.936,1.8
		c-3.176,6.416-7.064,12.488-11.728,18.024c0,0,0,0,0,0.008C172.32,340.456,147.512,352,121.28,352C72.056,352,32,311.84,32,262.48
		C32,229.128,50.28,198.744,79.672,183.208z"/>
	<path style="fill:#603916;" d="M121.28,330.96c37.624,0,68.24-30.72,68.24-68.48S158.904,194,121.28,194
		c-37.672,0-68.32,30.72-68.32,68.48S83.608,330.96,121.28,330.96z M121.28,226c19.984,0,36.24,16.36,36.24,36.48
		s-16.256,36.48-36.24,36.48c-20.024,0-36.32-16.36-36.32-36.48S101.256,226,121.28,226z"/>
	<path style="fill:#603916;" d="M254.208,111.112c22.008,12.016,37.224,33.008,39.712,54.792
		c0.936,8.168,7.848,14.184,15.872,14.184c0.608,0,1.224-0.032,1.832-0.104c8.784-1,15.088-8.936,14.088-17.712
		c-3.656-31.96-25.176-62.328-56.176-79.248c-7.752-4.24-17.48-1.368-21.712,6.376C243.592,97.16,246.456,106.872,254.208,111.112z"
		/>
</g>
<g>
</g>
<g>
</g>
<g>
</g>
<g>
</g>
<g>
</g>
<g>
</g>
<g>
</g>
<g>
</g>
<g>
</g>
<g>
</g>
<g>
</g>
<g>
</g>
<g>
</g>
<g>
</g>
<g>
</g>
</svg>
