<?xml version="1.0" encoding="iso-8859-1"?>
<!-- Generator: Adobe Illustrator 19.0.0, SVG Export Plug-In . SVG Version: 6.00 Build 0)  -->
<svg version="1.1" id="Capa_1" xmlns="http://www.w3.org/2000/svg" xmlns:xlink="http://www.w3.org/1999/xlink" x="0px" y="0px"
	 viewBox="0 0 384 384" style="enable-background:new 0 0 384 384;" xml:space="preserve">
<path style="fill:#9DC85C;" d="M311.52,118.48c0,9.6-2.72,18.56-7.36,26.16c-7.12,11.6-18.8,20.08-32.56,22.8
	c-3.12,0.64-6.32,0.96-9.6,0.96c-7.6,0-14.64-1.68-21.04-4.8c-2.08,25.68-23.44,45.84-49.44,45.84s-47.28-20.16-49.36-45.84
	c-6.4,3.12-13.52,4.8-21.04,4.8c-3.28,0-6.48-0.32-9.6-0.96c-13.84-2.72-25.52-11.28-32.64-22.96c-4.64-7.6-7.28-16.48-7.28-26
	c0-27.6,22.16-49.92,49.52-49.92c7.44,0,14.56,1.68,20.88,4.56v-8.8C142.88,37.52,164.72,16,191.52,16
	c26.88,0,48.72,21.52,49.6,48.32v8.8c6.32-2.88,13.36-4.56,20.88-4.56C289.36,68.56,311.52,90.88,311.52,118.48z"/>
<g>
	<path style="fill:#69BE5D;" d="M147.84,273.76c-8.24,6.16-18.4,9.84-29.44,9.84c-24.4,0-44.72-17.84-48.8-41.28
		c-1.36,0.16-2.72,0.16-4.08,0.16c-27.36,0-49.52-22.32-49.52-49.92c0-27.52,22.16-49.92,49.52-49.92c4.64,0,9.12,0.64,13.36,1.84
		c7.12,11.68,18.8,20.24,32.64,22.96C121.12,183.76,138,218.32,147.84,273.76z"/>
	<path style="fill:#69BE5D;" d="M368,192.56c0,27.6-22.16,49.92-49.52,49.92c-1.36,0-2.72,0-4.08-0.16
		c-4.08,23.44-24.4,41.28-48.8,41.28c-11.04,0-21.2-3.68-29.44-9.84l-0.8-0.48c9.92-55.12,26.64-89.52,36.24-105.84
		c13.76-2.72,25.44-11.2,32.56-22.8c4.24-1.2,9.6-2,14.32-2C345.84,142.64,368,165.04,368,192.56z"/>
</g>
<path style="fill:#603916;" d="M326.92,127.248c0.392-2.896,0.608-5.824,0.608-8.768c0-36.344-29.392-65.92-65.52-65.92
	c-2.064,0-4.112,0.096-6.144,0.28C249.832,22.464,223.408,0,191.52,0c-31.712,0-58.032,22.288-64.192,52.856
	c-2.064-0.2-4.136-0.304-6.2-0.304c-36.128,0-65.52,29.576-65.52,65.92c0,2.992,0.208,5.968,0.608,8.904
	C24.488,131.96,0,159.4,0,192.56c0,33.6,25.12,61.408,57.448,65.424C67.152,282.728,91.024,299.6,118.4,299.6
	c5.784,0,11.416-0.944,16.888-2.416c2.96,22.344,4.48,46.064,4.48,70.816c0,8.832,7.168,16,16,16s16-7.168,16-16
	c0-30.488-2.288-59.496-6.552-86.624l3.232-2.168c7.336-4.928,9.296-14.864,4.368-22.2c-3.128-4.648-8.264-7.12-13.472-7.064
	c-3.632-15.912-7.792-29.88-12.032-41.984c7.912,7.304,17.608,12.544,28.24,15.288v23.512c0,8.832,7.168,16,16,16
	c8.84,0,16-7.168,16-16v-23.52c10.664-2.744,20.392-8,28.312-15.336c-4.152,11.832-8.224,25.472-11.816,40.976
	c-6.456-1.336-13.336,1.352-16.944,7.32c-4.568,7.56-2.144,17.4,5.424,21.976l5.384,3.256c-4.272,27.312-6.552,56.304-6.552,86.568
	c0,8.832,7.168,16,16,16s16-7.168,16-16c0-24.672,1.528-48.456,4.52-71c5.728,1.624,11.648,2.608,17.72,2.608
	c27.368,0,51.24-16.872,60.944-41.616C358.88,253.968,384,226.16,384,192.56C384,159.096,359.064,131.44,326.92,127.248z
	 M118.4,267.6c-16.32,0-30.208-11.784-33.032-28.024c-0.016-0.072-0.04-0.128-0.056-0.2c-0.016-0.072-0.008-0.136-0.024-0.208
	c-0.32-1.608-0.488-3.48-0.488-5.568c0-1.064,0.056-2.072,0.16-3.128c0.88-8.792-5.536-16.64-14.328-17.512
	c-7.76-0.784-14.72,4.088-16.888,11.248C41.072,219.36,32,207.056,32,192.56c0-18.704,15.032-33.92,33.52-33.92
	c1.296,0,2.592,0.072,3.864,0.224c0.168,0.208,0.368,0.384,0.536,0.592c1.64,2.072,3.416,4.016,5.272,5.864
	c0.544,0.536,1.08,1.064,1.64,1.576c2.064,1.912,4.216,3.728,6.496,5.36c0.08,0.056,0.152,0.128,0.24,0.184
	c2.4,1.696,4.936,3.176,7.544,4.536c0.6,0.312,1.2,0.6,1.808,0.896c2.336,1.128,4.728,2.128,7.184,2.968
	c0.272,0.096,0.52,0.24,0.792,0.328c8.376,15.504,20.648,43.24,29.08,84.336C126.296,266.888,122.392,267.6,118.4,267.6z
	 M191.568,193.44c-0.008,0-0.016,0-0.024,0c-0.016,0-0.032,0.008-0.048,0.008c-17.288-0.016-31.928-13.648-33.368-31.056
	c-0.056-0.952-0.12-1.912-0.12-2.864c0-1.064,0.048-2.136,0.16-3.208c0.88-8.792-5.536-16.64-14.328-17.512
	c-8.432-0.872-15.792,4.952-17.264,13.08c-3.896,0.656-7.928,0.68-11.96-0.136c-9.072-1.784-17.12-7.472-22.072-15.6
	c-3.224-5.288-4.936-11.392-4.936-17.664c0-18.704,15.032-33.92,33.52-33.92c4.808,0,9.704,1.072,14.152,3.096
	c4.584,2.176,8.56,5.264,11.792,9.216c3.168,3.856,7.752,5.848,12.376,5.848c3.568,0,7.168-1.184,10.144-3.632
	c6.832-5.608,7.832-15.688,2.224-22.52c-3.992-4.872-8.624-8.992-13.72-12.496C159.08,46.04,173.584,32,191.52,32
	c18.152,0,32.816,14.28,33.56,32.04c-5.12,3.512-9.776,7.648-13.776,12.536c-5.6,6.832-4.6,16.912,2.232,22.512
	c2.976,2.44,6.56,3.624,10.136,3.624c4.624,0,9.216-2,12.384-5.856c3.232-3.936,7.2-7.032,11.784-9.208
	c4.512-2.048,9.272-3.096,14.16-3.096c18.488,0,33.52,15.216,33.52,33.92c0,6.28-1.736,12.44-5.008,17.792
	c-4.928,8.04-12.96,13.68-22.112,15.488c-3.864,0.784-7.92,0.752-11.864,0.088c-1.464-8.088-8.736-13.848-17.216-13.056
	c-8.8,0.856-15.224,8.68-14.368,17.48c0.104,1.08,0.16,2.168,0.16,3.248c0,0.968-0.064,1.936-0.12,2.912
	C223.528,179.808,208.88,193.408,191.568,193.44z M330.264,224.208c-2.152-7.128-9.04-11.976-16.856-11.248
	c-8.8,0.856-15.224,8.68-14.368,17.48c0.104,1.072,0.168,2.096,0.168,3.168c0,2.072-0.168,3.944-0.496,5.568
	c-0.016,0.064-0.008,0.128-0.016,0.2c-0.016,0.072-0.048,0.136-0.056,0.216c-2.824,16.24-16.72,28.024-33.032,28.024
	c-4.288,0-8.472-0.824-12.384-2.416c8.504-41.04,20.696-68.616,29.016-84.016c0.376-0.12,0.72-0.32,1.096-0.456
	c2.288-0.792,4.512-1.72,6.688-2.76c0.704-0.336,1.4-0.664,2.096-1.032c2.528-1.32,4.992-2.76,7.336-4.4
	c0.208-0.144,0.4-0.32,0.608-0.472c2.136-1.536,4.16-3.232,6.104-5.016c0.6-0.552,1.192-1.12,1.768-1.696
	c1.808-1.792,3.528-3.68,5.136-5.68c0.184-0.232,0.416-0.424,0.6-0.664c1.68-0.224,3.352-0.352,4.832-0.352
	c18.488,0,33.52,15.216,33.52,33.92C352,207.048,342.928,219.352,330.264,224.208z"/>
<g>
</g>
<g>
</g>
<g>
</g>
<g>
</g>
<g>
</g>
<g>
</g>
<g>
</g>
<g>
</g>
<g>
</g>
<g>
</g>
<g>
</g>
<g>
</g>
<g>
</g>
<g>
</g>
<g>
</g>
</svg>
