<?xml version="1.0" encoding="iso-8859-1"?>
<!-- Generator: Adobe Illustrator 19.0.0, SVG Export Plug-In . SVG Version: 6.00 Build 0)  -->
<svg version="1.1" id="Capa_1" xmlns="http://www.w3.org/2000/svg" xmlns:xlink="http://www.w3.org/1999/xlink" x="0px" y="0px"
	 viewBox="0 0 384.935 384.935" style="enable-background:new 0 0 384.935 384.935;" xml:space="preserve">
<path style="fill:#FFEB97;" d="M256.551,274.953c105.464-115.304,29.208-214.464,29.208-214.464s1.72,37.304-114.68,152.44
	C54.679,328.041,16.935,326.321,16.935,326.321s106.92,80.392,228.528-39.84C249.375,282.625,253.055,278.777,256.551,274.953z"/>
<g>
	<ellipse style="fill:#9DC85C;" cx="208.279" cy="248.801" rx="42.192" ry="41.736"/>
	<ellipse style="fill:#9DC85C;" cx="332.775" cy="312.473" rx="36.176" ry="35.776"/>
	<ellipse style="fill:#9DC85C;" cx="142.279" cy="300.001" rx="40.4" ry="39.952"/>
	<ellipse style="fill:#9DC85C;" cx="261.495" cy="185.841" rx="40.4" ry="39.968"/>
</g>
<g>
	<path style="fill:#603916;" d="M7.319,339.113c0.68,0.504,39.976,29.192,97.928,29.192c42.952,0,96.16-15.768,151.464-70.448
		c4.112-4.056,7.968-8.096,11.648-12.112l0,0c100.136-109.472,47.376-208.216,33.248-230.352
		c-0.392-7.144-1.784-20.024-6.816-29.976c-3.992-7.888-13.616-11.056-21.504-7.056c-7.888,3.992-11.048,13.616-7.064,21.496
		c1.96,3.88,3.048,11.056,3.4,16.664c-0.16,1.304-0.184,2.656,0.04,4.072c-1.168,5.472-12.552,44.744-109.832,140.96
		c-97.728,96.64-137.4,107.592-142.776,108.68c-7.056-1.064-12.96,2.832-15.904,9.456C-1.873,326.497,1.367,334.633,7.319,339.113z
		 M208.287,223.105c14.44,0,26.176,11.552,26.176,25.744c0,14.176-11.744,25.72-26.176,25.72c-14.456,0-26.208-11.536-26.208-25.72
		C182.079,234.649,193.831,223.105,208.287,223.105z M166.687,299.993c0,13.208-10.944,23.952-24.408,23.952
		c-13.456,0-24.4-10.744-24.4-23.952s10.944-23.96,24.4-23.96C155.743,276.041,166.687,286.785,166.687,299.993z M261.495,209.777
		c-13.464,0-24.416-10.752-24.416-23.976c0-13.208,10.952-23.96,24.416-23.96c13.456,0,24.4,10.744,24.4,23.96
		C285.895,199.025,274.951,209.777,261.495,209.777z M287.911,98.337c4.4,11.632,8.128,26.512,8.72,43.768
		c-8.368-6.64-18.656-10.968-29.912-12C275.959,117.713,282.863,107.169,287.911,98.337z M86.519,307.961
		c1.576,10.896,6.296,20.768,13.264,28.704c-17.456-0.544-32.504-4.208-44.336-8.496C64.119,323.297,74.447,316.705,86.519,307.961z
		"/>
	<path style="fill:#603916;" d="M332.767,260.705c-28.776,0-52.176,23.224-52.176,51.768c0,28.552,23.408,51.776,52.176,51.776
		s52.168-23.224,52.168-51.776C384.935,283.929,361.527,260.705,332.767,260.705z M332.767,332.249
		c-11.128,0-20.176-8.872-20.176-19.776s9.056-19.768,20.176-19.768s20.168,8.864,20.168,19.768S343.887,332.249,332.767,332.249z"
		/>
</g>
<g>
</g>
<g>
</g>
<g>
</g>
<g>
</g>
<g>
</g>
<g>
</g>
<g>
</g>
<g>
</g>
<g>
</g>
<g>
</g>
<g>
</g>
<g>
</g>
<g>
</g>
<g>
</g>
<g>
</g>
</svg>
