<?xml version="1.0" encoding="iso-8859-1"?>
<!-- Generator: Adobe Illustrator 19.0.0, SVG Export Plug-In . SVG Version: 6.00 Build 0)  -->
<svg version="1.1" id="Capa_1" xmlns="http://www.w3.org/2000/svg" xmlns:xlink="http://www.w3.org/1999/xlink" x="0px" y="0px"
	 viewBox="0 0 384.036 384.036" style="enable-background:new 0 0 384.036 384.036;" xml:space="preserve">
<g>
	<path style="fill:#69BE5D;" d="M254.985,165.636c0,2.72,0.08,5.44,0.32,7.92l1.68,13.28c-19.44-15.2-40.16-19.04-56.24-18.96
		c3.68-14.96,2.4-35.84-19.36-57.68c-2.24-2.24-4.48-4.24-6.72-6.08v-11.52c-0.08-7.84,0.88-16.16,2.32-23.92v-0.08
		c3.12-18,8.32-33.2,8.32-33.2s54.56-10,88.56,38c4.48,6.4,7.76,12.48,9.92,18.24l1.68,5.76
		C271.384,110.116,254.985,132.116,254.985,165.636z"/>
	<path style="fill:#69BE5D;" d="M274.585,274.676c0,0-23.92,20.48-54.4,8.64c-8.16-3.2-16.8-8.64-25.52-17.36
		c-2.72-2.72-5.12-5.44-7.36-8.24c-15.6-19.6-19.52-40.56-19.44-56.88c0.08-16.8,4.4-28.64,4.4-28.64s11.76-4.24,28.48-4.32
		c16.08-0.08,36.8,3.76,56.24,18.96c3.04,2.32,6,4.96,8.96,7.92c9.2,9.2,14.72,18.24,17.76,26.72
		C294.585,251.476,274.585,274.676,274.585,274.676z"/>
</g>
<path style="fill:#9DC85C;" d="M176.985,68.596v0.08c-1.44,7.76-2.4,16.08-2.32,23.92v11.52c-40.32-33.52-87.04-16.48-87.04-16.48
	l-18.32-18.32c-6.72-26.64,1.52-49.12,1.52-49.2c0,0,49.36-18,88.64,21.44C168.825,50.916,174.185,60.036,176.985,68.596z"/>
<g>
	<path style="fill:#69BE5D;" d="M104.105,174.756h-11.52c-7.84-0.08-16.16,0.88-24,2.24h-0.08l-3.2-1.2
		c-7.6-2.96-15.68-8.08-23.92-16.32c-39.28-39.36-21.2-88.72-21.2-88.72s22.48-8.16,49.12-1.44l18.32,18.32
		C87.625,87.636,70.425,134.436,104.105,174.756z"/>
	<path style="fill:#69BE5D;" d="M187.305,257.716l-13.76-2.4c-2.56-0.16-5.2-0.32-7.92-0.32c-33.68,0.08-55.76,16.56-68.48,30.64
		l-5.6-1.84c-5.76-2.16-11.84-5.36-18.24-9.92c-48-33.92-38-88.56-38-88.56s15.2-5.2,33.2-8.32h0.08c7.84-1.36,16.16-2.32,24-2.24
		h11.52c1.84,2.24,3.84,4.4,6,6.56c21.84,21.92,42.8,23.2,57.76,19.52C167.785,217.156,171.705,238.116,187.305,257.716z"/>
</g>
<g>
	<path style="fill:#9DC85C;" d="M200.745,167.876c-16.72,0.08-28.48,4.32-28.48,4.32s-4.32,11.84-4.4,28.64
		c-14.96,3.68-35.92,2.4-57.76-19.52c-2.16-2.16-4.16-4.32-6-6.56c-33.68-40.32-16.48-87.12-16.48-87.12s46.72-17.04,87.04,16.48
		c2.24,1.84,4.48,3.84,6.72,6.08C203.145,132.036,204.425,152.916,200.745,167.876z"/>
	<path style="fill:#9DC85C;" d="M355.704,165.716c0,26.64-10.4,42.08-21.76,50.88c-13.68,10.56-28.64,11.68-28.64,11.68
		s-4.88-0.32-11.6-2.64l-10-4.16c-3.04-8.48-8.56-17.52-17.76-26.72c-2.96-2.96-5.92-5.6-8.96-7.92l-1.68-13.28
		c-0.24-2.48-0.32-5.2-0.32-7.92c0-33.52,16.4-55.52,30.48-68.24c10.64-9.6,19.92-13.92,19.92-13.92
		S355.704,106.916,355.704,165.716z"/>
	<path style="fill:#9DC85C;" d="M228.265,305.316c0,0-1.12,14.8-11.44,28.32c-8.8,11.44-24.24,22.08-51.2,22.08
		c-58.8,0-82.24-50.32-82.24-50.32s4.24-9.2,13.76-19.76c12.72-14.08,34.8-30.56,68.48-30.64c2.72,0,5.36,0.16,7.92,0.32l13.76,2.4
		c2.24,2.8,4.64,5.52,7.36,8.24c8.72,8.72,17.36,14.16,25.52,17.36l5.44,10.4C227.865,300.436,228.265,305.316,228.265,305.316z"/>
	<path style="fill:#9DC85C;" d="M368.025,295.956l-72.08,72.08c0,0-43.2-52.96-76.96-35.44l-2.16,1.04
		c10.32-13.52,11.44-28.32,11.44-28.32s-0.4-4.88-2.64-11.6l-5.44-10.4c30.48,11.84,54.4-8.64,54.4-8.64s20-23.2,9.12-53.2l10,4.16
		c6.72,2.32,11.6,2.64,11.6,2.64s14.96-1.12,28.64-11.68C312.505,250.676,368.025,295.956,368.025,295.956z"/>
</g>
<path style="fill:#603916;" d="M14.721,55.716c-4.44,1.608-7.936,5.104-9.56,9.536c-0.88,2.4-20.912,59.136,24.544,105.136
	c-5.248,1.968-9.128,6.512-10.136,12.048c-0.488,2.64-11.2,65.144,44.456,104.472c2.752,1.96,5.576,3.616,8.408,5.248
	c-2.144,3.56-3.336,6.016-3.576,6.536c-1.968,4.272-1.96,9.192,0.024,13.456c1.136,2.432,28.528,59.56,96.744,59.56
	c31.872,0,50.528-12.92,61.12-25.064c16.704-8.096,45.44,17.648,56.808,31.496c2.856,3.504,7.072,5.64,11.592,5.864
	c0.264,0.024,0.536,0.032,0.8,0.032c4.232,0,8.304-1.68,11.312-4.688l72.08-72.08c3.2-3.2,4.896-7.6,4.664-12.12
	s-2.36-8.728-5.864-11.592c-9.16-7.472-40.336-38.328-31.36-56.904c12.016-10.456,24.928-29.032,24.928-60.944
	c0-68.216-57.136-95.608-59.568-96.744c-4.28-1.992-9.224-2-13.504,0c-0.512,0.24-2.928,1.416-6.416,3.52
	c-1.608-2.76-3.336-5.544-5.296-8.352c-39.44-55.688-101.864-44.976-104.496-44.488c-5.56,1.016-10.12,4.92-12.072,10.2
	C124.465-15.724,67.745,4.212,65.345,5.084c-4.736,1.728-8.288,5.536-9.76,10.168c-1.2,3.6-5.312,17.416-4.824,35.488
	C30.401,50.164,15.545,55.412,14.721,55.716z M33.273,83.956c6.576-1.192,16.744-2.16,28.016-0.024l8.496,8.496
	c0,0.008,0,0.016-0.008,0.024c-0.36,1.664-0.704,3.512-1.032,5.504c-0.064,0.408-0.12,0.856-0.184,1.28
	c-0.248,1.616-0.472,3.288-0.664,5.08c-0.072,0.672-0.12,1.376-0.184,2.072c-0.152,1.664-0.272,3.368-0.352,5.152
	c-0.04,0.808-0.056,1.624-0.072,2.456c-0.048,1.8-0.04,3.648,0.008,5.552c0.024,0.872,0.048,1.736,0.088,2.624
	c0.096,2.016,0.272,4.088,0.488,6.192c0.088,0.832,0.152,1.64,0.256,2.488c0.312,2.464,0.736,4.976,1.248,7.528
	c0.104,0.528,0.168,1.032,0.288,1.56c1.344,6.264,3.36,12.744,6.2,19.304c0.072,0.168,0.12,0.336,0.192,0.504
	c-1.904,0.224-3.856,0.488-5.84,0.784c-5.88-2.464-11.768-6.616-17.504-12.344C29.369,124.788,30.809,97.14,33.273,83.956z
	 M106.641,99.828c0.432-0.048,0.888-0.096,1.336-0.136c0.872-0.088,1.776-0.16,2.712-0.224c0.488-0.032,0.968-0.072,1.464-0.096
	c1.36-0.072,2.76-0.112,4.224-0.112c0.36,0,0.744,0.024,1.112,0.024c1.16,0.016,2.344,0.056,3.56,0.128
	c0.6,0.032,1.216,0.08,1.824,0.128c1.104,0.088,2.232,0.208,3.368,0.352c0.584,0.072,1.16,0.136,1.752,0.224
	c1.624,0.24,3.272,0.536,4.944,0.896c0.576,0.128,1.16,0.288,1.744,0.424c1.208,0.296,2.432,0.616,3.664,0.984
	c0.704,0.208,1.4,0.424,2.112,0.664c1.304,0.432,2.624,0.92,3.944,1.44c0.536,0.208,1.064,0.392,1.6,0.616
	c1.768,0.752,3.544,1.608,5.328,2.536c0.608,0.32,1.216,0.68,1.832,1.024c1.312,0.736,2.616,1.52,3.928,2.368
	c0.624,0.4,1.248,0.8,1.864,1.232c1.768,1.224,3.536,2.52,5.28,3.96c0.088,0.072,0.184,0.136,0.272,0.216
	c1.856,1.528,3.72,3.184,5.56,5.024c2.248,2.256,4.184,4.544,5.968,6.832c0.456,0.584,0.888,1.16,1.312,1.744
	c1.584,2.184,3.016,4.384,4.176,6.592c0.064,0.12,0.152,0.248,0.216,0.368c1.192,2.32,2.08,4.648,2.808,6.992
	c0.184,0.592,0.344,1.192,0.504,1.792c0.56,2.144,0.96,4.304,1.128,6.472c0.016,0.184,0.056,0.368,0.072,0.552
	c-1.432,0.184-2.8,0.384-4.104,0.6c-0.176,0.032-0.32,0.056-0.496,0.088c-1.408,0.24-2.712,0.48-3.944,0.736
	c-0.368,0.072-0.712,0.144-1.064,0.224c-1.08,0.232-2.088,0.464-3.008,0.696c-0.184,0.048-0.384,0.088-0.568,0.136
	c-1.072,0.272-2,0.528-2.816,0.76c-0.208,0.056-0.344,0.104-0.536,0.16c-0.6,0.176-1.112,0.336-1.528,0.472
	c-0.168,0.056-0.288,0.096-0.432,0.136c-0.416,0.136-0.744,0.248-0.896,0.304c-4.464,1.608-7.984,5.112-9.608,9.568
	c-0.056,0.16-0.176,0.504-0.328,0.944c-0.04,0.112-0.072,0.216-0.112,0.344c-0.144,0.448-0.32,1-0.512,1.656
	c-0.048,0.16-0.088,0.28-0.136,0.448c-0.24,0.832-0.504,1.776-0.784,2.872c-0.04,0.168-0.088,0.352-0.128,0.52
	c-0.232,0.928-0.472,1.944-0.712,3.04c-0.08,0.368-0.16,0.736-0.24,1.12c-0.248,1.176-0.48,2.432-0.712,3.768
	c-0.04,0.248-0.088,0.456-0.128,0.712c-0.216,1.32-0.424,2.712-0.616,4.168c-0.152-0.008-0.296-0.048-0.44-0.056
	c-2.216-0.168-4.424-0.584-6.616-1.16c-0.584-0.152-1.176-0.312-1.76-0.496c-2.352-0.736-4.688-1.624-7.016-2.832
	c-0.128-0.064-0.248-0.16-0.376-0.224c-2.208-1.168-4.4-2.608-6.584-4.2c-0.592-0.432-1.184-0.88-1.776-1.344
	c-2.288-1.792-4.568-3.736-6.824-6c-1.784-1.784-3.44-3.568-5.04-5.512c-1.528-1.832-2.888-3.68-4.176-5.528
	c-0.376-0.544-0.72-1.08-1.08-1.624c-0.912-1.392-1.76-2.792-2.552-4.192c-0.288-0.512-0.592-1.032-0.864-1.544
	c-0.984-1.848-1.888-3.696-2.672-5.536c-0.064-0.152-0.112-0.296-0.176-0.448c-0.712-1.712-1.336-3.416-1.896-5.104
	c-0.176-0.536-0.336-1.064-0.504-1.6c-0.424-1.384-0.8-2.76-1.128-4.12c-0.112-0.464-0.24-0.936-0.344-1.392
	c-0.392-1.768-0.728-3.504-0.984-5.216c-0.032-0.232-0.048-0.448-0.08-0.672c-0.208-1.496-0.368-2.968-0.488-4.416
	c-0.04-0.48-0.072-0.952-0.104-1.416c-0.08-1.256-0.128-2.488-0.152-3.688c-0.008-0.376-0.024-0.76-0.024-1.128
	c-0.008-1.512,0.024-2.992,0.096-4.4c0.016-0.264,0.04-0.504,0.048-0.76c0.072-1.16,0.16-2.28,0.264-3.36
	c0.04-0.392,0.08-0.776,0.128-1.152c0.112-0.968,0.232-1.896,0.36-2.784c0.04-0.272,0.08-0.56,0.12-0.824
	c0.16-1.016,0.336-1.96,0.504-2.848c0.624-0.12,1.264-0.24,1.952-0.36c0.28-0.048,0.552-0.096,0.84-0.144
	C104.473,100.1,105.537,99.956,106.641,99.828z M247.273,199.556c2.384,1.816,4.792,3.952,7.352,6.512
	c6.784,6.784,11.496,13.784,14.032,20.864c0.808,2.224,1.368,4.4,1.728,6.504c0.168,0.96,0.16,1.856,0.248,2.792
	c0.104,1.112,0.288,2.256,0.288,3.32c0,1.368-0.152,2.64-0.288,3.928c-0.056,0.56-0.048,1.16-0.128,1.704
	c-0.256,1.752-0.632,3.408-1.072,4.968c-0.008,0.032-0.016,0.064-0.024,0.096c-1.808,6.36-4.792,11.008-6.232,13.024
	c-0.016,0.008-0.04,0.024-0.056,0.04c-2.496,1.768-9.304,6.024-18.44,7.296c-3.688,0.512-7.752,0.536-12.064-0.28
	c-0.36-0.072-0.736-0.24-1.096-0.32c-1.808-0.4-3.632-0.864-5.512-1.592c-6.84-2.688-13.584-7.32-20.024-13.76
	c-2.176-2.184-4.192-4.448-6.168-6.912c-10.672-13.408-16.04-29.16-15.952-46.824c0.032-6.16,0.744-11.536,1.512-15.56
	c4-0.752,9.336-1.448,15.44-1.48c2.216,0.016,4.4,0.12,6.568,0.296C222.089,185.388,235.537,190.38,247.273,199.556z
	 M50.385,197.484c5.424-1.496,12.6-3.272,20.304-4.632c0.208-0.024,0.416-0.056,0.632-0.096c8.024-1.392,15.192-2.128,21.264-2.008
	h4.368c0.6,0.624,1.2,1.24,1.824,1.856c2.456,2.464,4.904,4.704,7.352,6.752c0.856,0.712,1.696,1.288,2.552,1.952
	c1.584,1.248,3.176,2.52,4.752,3.6c1,0.688,1.992,1.24,2.984,1.864c1.416,0.888,2.832,1.824,4.232,2.592
	c1.056,0.584,2.088,1.032,3.136,1.552c1.32,0.648,2.64,1.344,3.944,1.896c1.072,0.456,2.12,0.8,3.184,1.192
	c1.248,0.464,2.504,0.96,3.736,1.336c1.064,0.328,2.104,0.568,3.152,0.84c1.192,0.312,2.392,0.64,3.56,0.88
	c1.04,0.208,2.056,0.344,3.08,0.504c1.136,0.176,2.28,0.368,3.392,0.48c1.008,0.104,1.992,0.144,2.976,0.208
	c0.792,0.048,1.6,0.144,2.376,0.168c0.016,0.088,0.04,0.168,0.048,0.248c0.528,3.304,1.208,6.56,2.032,9.768
	c0.24,0.928,0.552,1.832,0.816,2.752c0.648,2.272,1.344,4.536,2.144,6.752c0.152,0.416,0.248,0.856,0.4,1.264
	c-0.048,0-0.088,0.008-0.136,0.016c-3.288,0.208-6.44,0.584-9.52,1.048c-0.736,0.112-1.464,0.224-2.184,0.344
	c-2.992,0.512-5.92,1.104-8.72,1.824c-0.328,0.088-0.64,0.192-0.968,0.28c-2.568,0.688-5.04,1.472-7.448,2.312
	c-0.6,0.208-1.2,0.416-1.792,0.632c-2.544,0.944-4.992,1.96-7.352,3.048c-0.472,0.216-0.92,0.456-1.392,0.68
	c-2.072,1-4.08,2.04-6.016,3.136c-0.408,0.232-0.832,0.448-1.232,0.688c-2.144,1.248-4.192,2.552-6.16,3.88
	c-0.448,0.304-0.88,0.616-1.328,0.92c-1.808,1.264-3.552,2.552-5.208,3.864c-0.168,0.136-0.352,0.264-0.52,0.4
	c-1.784,1.432-3.456,2.88-5.064,4.336c-0.168,0.152-0.36,0.304-0.528,0.456c-3.448-1.64-6.968-3.728-10.52-6.264
	C54.193,240.78,50.313,212.1,50.385,197.484z M101.913,305.42c1.76-2.592,4.12-5.744,7.112-9.056
	c10.416-11.536,28.704-25.296,56.608-25.36c2.064,0,4.08,0.112,6.04,0.232l7.168,1.248c1.456,1.64,2.96,3.224,4.52,4.792
	c2.216,2.216,4.488,4.264,6.792,6.208c0.704,0.592,1.424,1.128,2.136,1.696c1.632,1.304,3.28,2.56,4.952,3.728
	c0.832,0.584,1.68,1.136,2.528,1.688c1.632,1.056,3.272,2.04,4.936,2.968c0.84,0.464,1.672,0.944,2.52,1.376
	c0.464,0.24,0.92,0.528,1.384,0.752l2.208,4.224c0.704,2.304,1.104,4.216,1.312,5.432c-0.136,0.792-0.352,1.888-0.688,3.2
	c-1.016,3.944-3.112,9.856-7.296,15.36c-8.088,10.496-21.04,15.816-38.504,15.816C129.721,339.716,109.809,317.116,101.913,305.42z
	 M296.368,344.988c-12.12-11.816-31.8-27.632-53.264-31.352c0.216-1.024,0.392-1.944,0.536-2.784
	c0.032-0.184,0.048-0.296,0.072-0.472c0.136-0.84,0.24-1.544,0.312-2.136c0.024-0.2,0.04-0.336,0.064-0.512
	c0.064-0.552,0.104-1,0.12-1.208c0.064-0.832,0.064-1.672-0.008-2.504c-0.016-0.184-0.048-0.544-0.104-0.984
	c-0.008-0.072-0.008-0.088-0.016-0.168c0.92-0.064,1.752-0.248,2.648-0.352c1.376-0.152,2.712-0.312,4.032-0.528
	c1.576-0.264,3.08-0.576,4.568-0.928c1.232-0.288,2.44-0.576,3.608-0.912c1.432-0.416,2.768-0.864,4.104-1.336
	c1.08-0.384,2.144-0.744,3.152-1.152c1.272-0.512,2.432-1.04,3.592-1.576c0.896-0.416,1.8-0.808,2.624-1.224
	c1.12-0.568,2.088-1.112,3.072-1.672c0.68-0.384,1.4-0.76,2.008-1.136c0.968-0.584,1.744-1.096,2.528-1.616
	c0.44-0.296,0.936-0.6,1.32-0.864c0.824-0.576,1.432-1.024,1.984-1.44c0.168-0.128,0.4-0.288,0.544-0.4
	c0.608-0.472,0.992-0.792,1.112-0.896c0.616-0.52,1.184-1.096,1.712-1.704c0.08-0.096,0.336-0.408,0.672-0.824
	c0.112-0.144,0.184-0.232,0.32-0.416c0.408-0.52,0.896-1.176,1.496-2.024c0.064-0.088,0.096-0.128,0.16-0.216
	c0.624-0.888,1.336-1.976,2.088-3.176c0.192-0.304,0.368-0.6,0.56-0.92c0.72-1.184,1.456-2.472,2.208-3.896
	c0.104-0.192,0.2-0.352,0.296-0.544c0.832-1.6,1.648-3.36,2.456-5.224c0.176-0.416,0.344-0.84,0.52-1.272
	c0.712-1.728,1.376-3.552,2-5.48c0.096-0.312,0.208-0.592,0.304-0.904c0.68-2.2,1.264-4.536,1.76-6.96
	c0.096-0.488,0.176-0.984,0.264-1.472c0.392-2.176,0.696-4.432,0.88-6.768c0.024-0.312,0.096-0.6,0.12-0.912
	c0.096,0.008,0.104,0.008,0.192,0.016c0.576,0.064,1.04,0.104,1.272,0.112c0.344,0.024,0.688,0.032,1.032,0.032
	c0.4,0,0.8-0.016,1.192-0.04c0.208-0.016,0.648-0.056,1.192-0.12c0.192-0.024,0.344-0.04,0.576-0.072
	c0.576-0.072,1.264-0.176,2.072-0.304c0.2-0.032,0.344-0.048,0.56-0.088c0.912-0.16,1.904-0.344,3.032-0.592
	c3.512,19.872,17.168,39.144,31,53.368L296.368,344.988z M305.424,102.02c11.744,7.936,34.28,27.832,34.28,63.696
	c0,17.376-5.232,30.232-15.536,38.216c-7.568,5.84-15.896,7.704-18.896,8.216c-1.256-0.208-3.36-0.64-5.912-1.488l-3.44-1.432
	c-0.152-0.328-0.36-0.64-0.52-0.968c-0.384-0.776-0.824-1.544-1.24-2.32c-0.968-1.816-2.008-3.616-3.136-5.392
	c-0.544-0.856-1.104-1.704-1.68-2.552c-1.2-1.76-2.496-3.496-3.856-5.216c-0.584-0.744-1.144-1.488-1.76-2.224
	c-2.016-2.408-4.144-4.792-6.472-7.112c-1.752-1.752-3.472-3.376-5.192-4.896l-0.832-6.544c-0.192-1.992-0.248-4.176-0.248-6.36
	c0-3.472,0.216-6.792,0.608-9.968c0.496-3.944,1.344-7.584,2.344-11.08c3.024-10.592,8.008-19.264,13.456-26.032
	c2.904-3.6,5.912-6.688,8.784-9.28C299.561,106.22,302.777,103.82,305.424,102.02z M197.761,50.484c14.672,0,43.12,4.024,63,32.088
	c2.568,3.672,4.672,7.216,6.288,10.584c-0.176,0.192-0.352,0.416-0.528,0.616c-1.44,1.592-2.88,3.24-4.296,5
	c-0.112,0.136-0.216,0.288-0.328,0.424c-1.328,1.664-2.624,3.424-3.904,5.248c-0.328,0.464-0.648,0.92-0.976,1.4
	c-1.336,1.96-2.632,4-3.88,6.144c-0.216,0.376-0.424,0.768-0.632,1.144c-1.104,1.944-2.152,3.96-3.16,6.048
	c-0.232,0.48-0.464,0.936-0.688,1.424c-1.096,2.368-2.112,4.824-3.064,7.376c-0.208,0.56-0.4,1.136-0.6,1.704
	c-0.848,2.408-1.624,4.88-2.312,7.44c-0.096,0.344-0.2,0.68-0.296,1.024c-0.72,2.808-1.312,5.728-1.816,8.728
	c-0.12,0.712-0.232,1.424-0.336,2.144c-0.456,3.088-0.832,6.24-1.032,9.536c0,0.048-0.008,0.088-0.016,0.128
	c-0.592-0.224-1.208-0.36-1.8-0.576c-1.688-0.6-3.392-1.12-5.112-1.632c-1.488-0.448-2.96-0.92-4.464-1.296
	c-1.872-0.472-3.784-0.824-5.696-1.192c-1.264-0.248-2.504-0.592-3.784-0.792c0-0.096-0.016-0.2-0.024-0.296
	c-0.048-1.768-0.176-3.576-0.376-5.424c-0.048-0.424-0.12-0.848-0.168-1.272c-0.192-1.488-0.44-2.992-0.736-4.52
	c-0.104-0.544-0.216-1.088-0.336-1.64c-0.432-1.944-0.928-3.912-1.56-5.912c-0.016-0.048-0.032-0.096-0.048-0.144
	c-0.624-1.936-1.376-3.912-2.2-5.896c-0.248-0.584-0.512-1.168-0.776-1.76c-0.728-1.632-1.544-3.272-2.424-4.928
	c-0.256-0.48-0.488-0.96-0.76-1.448c-1.16-2.072-2.456-4.152-3.88-6.248c-0.328-0.488-0.704-0.976-1.056-1.464
	c-1.192-1.688-2.48-3.376-3.864-5.072c-0.496-0.608-0.984-1.216-1.504-1.824c-1.832-2.152-3.768-4.304-5.92-6.472
	c-0.672-0.68-1.352-1.336-2.032-1.984v-4.48c-0.064-6.056,0.648-13.264,2.048-20.832c0.048-0.256,0.088-0.52,0.128-0.784
	c1.36-7.712,3.136-14.896,4.632-20.336C197.561,50.484,197.665,50.484,197.761,50.484z M83.993,33.228
	c13.136-2.424,40.816-3.8,64.16,19.64c5.664,5.664,9.8,11.48,12.336,17.32c-0.32,2.008-0.6,3.992-0.832,5.944
	c-0.216-0.096-0.424-0.144-0.64-0.24c-3.472-1.496-6.928-2.768-10.336-3.824c-0.768-0.24-1.52-0.4-2.288-0.616
	c-2.68-0.76-5.328-1.416-7.944-1.944c-1.072-0.216-2.112-0.4-3.168-0.576c-2.392-0.408-4.728-0.728-7.032-0.96
	c-0.896-0.088-1.792-0.208-2.664-0.28c-3.072-0.24-6.072-0.384-8.928-0.384c-0.024,0-0.048,0-0.072,0c-1.04,0-2,0.064-3.008,0.088
	c-1.328,0.032-2.688,0.04-3.944,0.12c-1.136,0.064-2.176,0.184-3.264,0.28c-1.056,0.096-2.16,0.16-3.16,0.28
	c-1.328,0.152-2.52,0.336-3.744,0.52c-0.648,0.096-1.36,0.176-1.976,0.28c-1.568,0.256-2.984,0.536-4.344,0.816
	c-0.184,0.04-0.416,0.072-0.6,0.112c-0.04,0.008-0.08,0.016-0.12,0.024l-8.504-8.504C81.793,50.02,82.761,39.876,83.993,33.228z"/>
<g>
</g>
<g>
</g>
<g>
</g>
<g>
</g>
<g>
</g>
<g>
</g>
<g>
</g>
<g>
</g>
<g>
</g>
<g>
</g>
<g>
</g>
<g>
</g>
<g>
</g>
<g>
</g>
<g>
</g>
</svg>
