<?xml version="1.0" encoding="iso-8859-1"?>
<!-- Generator: Adobe Illustrator 19.0.0, SVG Export Plug-In . SVG Version: 6.00 Build 0)  -->
<svg version="1.1" id="Capa_1" xmlns="http://www.w3.org/2000/svg" xmlns:xlink="http://www.w3.org/1999/xlink" x="0px" y="0px"
	 viewBox="0 0 384.001 384.001" style="enable-background:new 0 0 384.001 384.001;" xml:space="preserve">
<path style="fill:#9DC85C;" d="M309.601,71.757c-25.44,21.36-45.44,0.96-45.44,0.96s-16.72-23.12,8.8-44.56
	c25.44-21.36,53.92-8.08,53.92-8.08S335.121,50.317,309.601,71.757z"/>
<g>
	<path style="fill:#F58A54;" d="M226.561,262.877c0,12.16-2.08,23.84-5.92,34.72c-14.32,41.04-53.36,70.4-99.36,70.4
		c-58.16,0-105.28-47.04-105.28-105.12c0-49.28,34-90.64,79.92-102c2.96-0.72,6-1.28,9.04-1.76c5.36-0.88,10.8-1.28,16.32-1.28
		c14.96,0,29.2,3.12,42.08,8.72C200.561,182.797,226.561,219.837,226.561,262.877z"/>
	<path style="fill:#F58A54;" d="M368.001,201.277c0,58.08-47.12,105.12-105.28,105.12c-15.04,0-29.2-3.12-42.08-8.8
		c3.84-10.88,5.92-22.56,5.92-34.72c0-43.04-26-80.08-63.2-96.32c14.32-40.96,53.36-70.4,99.36-70.4
		C320.881,96.157,368.001,143.197,368.001,201.277z"/>
</g>
<path style="fill:#9DC85C;" d="M143.521,137.277c-25.44,21.36-45.44,0.96-45.44,0.96s-16.72-23.12,8.8-44.56
	c25.44-21.36,53.92-8.08,53.92-8.08S169.041,115.837,143.521,137.277z"/>
<path style="fill:#603916;" d="M311.073,90.269c2.936-1.72,5.88-3.792,8.816-6.256c0,0,0,0,0.008,0
	c32.968-27.704,22.864-66.504,22.424-68.136c-1.232-4.544-4.416-8.312-8.68-10.296c-1.536-0.728-38.12-17.272-70.968,10.336
	c-11.24,9.44-16.832,20.008-18.864,30.152c-16.176-14.352-41.048-25.448-78.224-25.448c-8.832,0-16,7.168-16,16s7.168,16,16,16
	c43.816,0,61.096,17.824,67.936,31.144c-22.456,5.576-42.704,17.48-58.496,34c5.712-18.92,1.496-35.312,1.216-36.36
	c-1.232-4.536-4.416-8.304-8.672-10.296c-1.552-0.72-38.128-17.272-70.968,10.328c-9.408,7.904-14.832,16.6-17.568,25.176
	c-14.104-10.664-34.04-18.976-62.296-20.28c-8.672-0.4-16.304,6.416-16.72,15.248c-0.408,8.832,6.424,16.32,15.248,16.72
	c36.688,1.688,52.936,18.528,60.16,32.56C30.297,169.189,0.001,213.013,0.001,262.877c0,66.784,54.408,121.12,121.28,121.12
	c46.12,0,87.736-26.152,108.112-66.384c10.76,3.096,21.888,4.784,33.32,4.784c66.88,0,121.288-54.336,121.288-121.12
	C384.001,151.661,353.937,108.965,311.073,90.269z M283.249,40.413c10.4-8.736,21.608-9.08,28.912-7.96
	c-0.16,7.384-2.448,18.312-12.848,27.056c-11.056,9.264-18.912,5.984-22.872,2.752C274.577,58.973,271.513,50.269,283.249,40.413z
	 M117.169,105.933c10.4-8.728,21.608-9.072,28.904-7.96c-0.152,7.384-2.44,18.312-12.84,27.056
	c-11.048,9.264-18.912,5.984-22.872,2.752C108.505,124.493,105.441,115.789,117.169,105.933z M121.281,351.997
	c-49.224,0-89.28-39.984-89.28-89.12c0-41.04,27.864-76.6,67.696-86.456c0.368-0.088,0.776-0.136,1.144-0.224
	c5.968,6.36,18.208,24.68,20.736,69.592c0.488,8.512,7.536,15.096,15.96,15.096c0.304,0,0.608-0.008,0.912-0.024
	c8.832-0.496,15.568-8.048,15.08-16.872c-1.792-31.744-8-53.488-15.152-68.472c6.368,1.232,12.584,3.104,18.584,5.704
	c32.56,14.216,53.6,46.272,53.6,81.656c0,9.728-1.616,19.288-4.736,28.48c-0.144,0.344-0.216,0.728-0.336,1.08
	C193.009,328.061,159.185,351.997,121.281,351.997z M262.721,290.397c-7.768,0-15.352-0.976-22.68-2.904
	c0.128-0.6,0.168-1.216,0.28-1.824c0.488-2.56,0.872-5.128,1.192-7.72c0.152-1.216,0.344-2.424,0.464-3.64
	c0.36-3.792,0.584-7.6,0.584-11.432c0-2.848-0.12-5.68-0.312-8.496c-0.064-0.936-0.184-1.856-0.272-2.784
	c-0.176-1.88-0.36-3.752-0.624-5.608c-0.152-1.08-0.352-2.144-0.528-3.216c-0.288-1.688-0.584-3.368-0.936-5.04
	c-0.24-1.112-0.504-2.216-0.776-3.328c-0.392-1.608-0.808-3.208-1.256-4.792c-0.312-1.104-0.648-2.192-0.992-3.28
	c-0.504-1.576-1.04-3.136-1.6-4.68c-0.384-1.048-0.76-2.104-1.176-3.144c-0.632-1.592-1.312-3.152-2-4.712
	c-0.424-0.952-0.832-1.912-1.28-2.848c-0.816-1.712-1.696-3.392-2.592-5.064c-0.4-0.744-0.768-1.504-1.184-2.24
	c-2.696-4.792-5.72-9.392-9.04-13.776c-0.496-0.656-1.032-1.28-1.536-1.92c-1.192-1.512-2.4-3.008-3.672-4.464
	c-0.656-0.752-1.344-1.48-2.016-2.216c-1.192-1.304-2.4-2.592-3.656-3.848c-0.744-0.744-1.504-1.472-2.272-2.192
	c-1.256-1.192-2.528-2.36-3.832-3.496c-0.808-0.704-1.624-1.4-2.456-2.088c-1.336-1.104-2.704-2.176-4.096-3.224
	c-0.848-0.64-1.688-1.288-2.56-1.904c-1.472-1.048-2.976-2.056-4.496-3.04c-0.84-0.544-1.664-1.104-2.512-1.632
	c-0.304-0.184-0.584-0.392-0.888-0.576c12.168-22.736,33.736-38.88,58.736-44.64c6.616,6.104,19.32,22.624,19.32,59.624
	c0,8.832,7.168,16,16,16s16-7.168,16-16c0-26.768-5.696-46.216-12.808-60.128c40.36,8.528,70.752,44.352,70.752,87.152
	C352.001,250.421,311.945,290.397,262.721,290.397z"/>
<g>
</g>
<g>
</g>
<g>
</g>
<g>
</g>
<g>
</g>
<g>
</g>
<g>
</g>
<g>
</g>
<g>
</g>
<g>
</g>
<g>
</g>
<g>
</g>
<g>
</g>
<g>
</g>
<g>
</g>
</svg>
