<?xml version="1.0" encoding="iso-8859-1"?>
<!-- Generator: Adobe Illustrator 19.0.0, SVG Export Plug-In . SVG Version: 6.00 Build 0)  -->
<svg xmlns="http://www.w3.org/2000/svg" xmlns:xlink="http://www.w3.org/1999/xlink" version="1.1" id="Capa_1" x="0px" y="0px" viewBox="0 0 512 512" style="enable-background:new 0 0 512 512;" xml:space="preserve">
<ellipse style="fill:#F2BA5B;" cx="256" cy="130.98" rx="97.31" ry="84.21"/>
<path style="fill:#FC8063;" d="M304.255,48.255C304.255,21.605,282.651,0,256,0s-48.255,21.605-48.255,48.255H304.255z"/>
<path style="opacity:0.1;enable-background:new    ;" d="M256,0c-1.7,0-3.378,0.09-5.033,0.262  c15.728,1.63,29.204,10.819,36.755,23.866h-73.505c-4.109,7.1-6.472,15.335-6.472,24.128h96.511C304.255,21.605,282.651,0,256,0z"/>
<path style="fill:#A16B4E;" d="M301.762,30.579h-91.524c-8.943,0-16.193,7.25-16.193,16.193l0,0c0,8.943,7.25,16.193,16.193,16.193  h91.524c8.943,0,16.193-7.25,16.193-16.193l0,0C317.955,37.828,310.705,30.579,301.762,30.579z"/>
<path style="opacity:0.1;enable-background:new    ;" d="M301.762,30.579h-91.524c-8.943,0-16.193,7.25-16.193,16.193  c0,1.722,0.274,3.38,0.772,4.937c2.088-6.528,8.2-11.256,15.421-11.256h91.524c7.221,0,13.332,4.729,15.421,11.256  c0.498-1.557,0.772-3.214,0.772-4.937C317.955,37.828,310.705,30.579,301.762,30.579z"/>
<path style="fill:#A16B4E;" d="M293.662,199.003h-75.324c-8.943,0-16.193,7.25-16.193,16.193l0,0c0,8.943,7.25,16.193,16.193,16.193  h75.324c8.943,0,16.193-7.25,16.193-16.193l0,0C309.855,206.252,302.605,199.003,293.662,199.003z"/>
<path style="opacity:0.1;enable-background:new    ;" d="M309.182,210.595c-1.983,6.701-8.176,11.593-15.52,11.593h-75.324  c-7.344,0-13.537-4.892-15.52-11.593c-0.432,1.459-0.673,3.001-0.673,4.6l0,0c0,8.943,7.25,16.193,16.193,16.193h75.324  c8.943,0,16.193-7.25,16.193-16.193l0,0C309.855,213.596,309.614,212.054,309.182,210.595z"/>
<rect x="227.51" y="231.39" style="fill:#FC8063;" width="56.975" height="241.36"/>
<rect x="227.51" y="231.39" style="fill:#DDDDDD;" width="56.975" height="215.6"/>
<rect x="227.51" y="319.78" style="fill:#A16B4E;" width="56.975" height="35.13"/>
<rect x="227.51" y="231.39" style="opacity:0.1;enable-background:new    ;" width="56.975" height="16.217"/>
<rect x="227.51" y="430.36" style="opacity:0.1;enable-background:new    ;" width="56.975" height="16.628"/>
<g>
	<path style="fill:#A16B4E;" d="M288.157,446.99h-64.314c-5.197,0-9.409,4.213-9.409,9.409v16.354h83.132v-16.354   C297.566,451.202,293.353,446.99,288.157,446.99z"/>
	<path style="fill:#A16B4E;" d="M302.87,472.752h-93.74c-16.402,0-29.698,13.296-29.698,29.698l0,0c0,5.274,4.275,9.55,9.55,9.55   h134.035c5.274,0,9.55-4.276,9.55-9.55l0,0C332.568,486.048,319.271,472.752,302.87,472.752z"/>
</g>
<path style="opacity:0.1;enable-background:new    ;" d="M302.87,472.752h-15.994c16.402,0,29.698,13.296,29.698,29.698  c0,5.274-4.276,9.55-9.55,9.55h15.994c5.274,0,9.55-4.276,9.55-9.55C332.568,486.049,319.271,472.752,302.87,472.752z"/>
<path style="opacity:0.1;enable-background:new    ;" d="M256,424.196c-4.143,0-7.5-3.357-7.5-7.5V267.705  c0-4.143,3.357-7.5,7.5-7.5c4.143,0,7.5,3.357,7.5,7.5v148.991C263.5,420.839,260.143,424.196,256,424.196z"/>
<g>
	<path style="fill:#4A5058;" d="M214.373,128.669c-4.143,0-7.5-3.357-7.5-7.5v-6.91c0-4.143,3.357-7.5,7.5-7.5s7.5,3.357,7.5,7.5   v6.91C221.873,125.312,218.516,128.669,214.373,128.669z"/>
	<path style="fill:#4A5058;" d="M297.627,128.669c-4.143,0-7.5-3.357-7.5-7.5v-6.91c0-4.143,3.357-7.5,7.5-7.5   c4.142,0,7.5,3.357,7.5,7.5v6.91C305.127,125.312,301.77,128.669,297.627,128.669z"/>
	<path style="fill:#4A5058;" d="M256,133.975c-6.373,0-12.434-2.76-16.628-7.57c-2.722-3.122-2.398-7.86,0.725-10.582   c3.122-2.723,7.86-2.398,10.582,0.725c1.345,1.543,3.284,2.428,5.321,2.428c2.037,0,3.977-0.885,5.321-2.428   c2.721-3.123,7.458-3.447,10.582-0.725c3.122,2.722,3.446,7.46,0.725,10.582C268.434,131.215,262.373,133.975,256,133.975z"/>
</g>
<g style="opacity:0.3;">
	<ellipse style="fill:#F15B70;" cx="214.37" cy="138.37" rx="17.818" ry="7.731"/>
	<ellipse style="fill:#F15B70;" cx="297.63" cy="138.37" rx="17.818" ry="7.731"/>
</g>
<g>
	<path style="fill:#FC8063;" d="M139.078,86.584c-1.017,0-2.05-0.208-3.039-0.647L107.95,73.468   c-3.786-1.68-5.492-6.111-3.812-9.897c1.681-3.785,6.111-5.492,9.897-3.812l28.089,12.469c3.786,1.68,5.492,6.111,3.811,9.897   C144.695,84.922,141.952,86.584,139.078,86.584z"/>
	<path style="fill:#FC8063;" d="M106.144,145.87c-3.973,0-7.287-3.119-7.485-7.131c-0.204-4.137,2.984-7.656,7.122-7.86   l28.508-1.405c4.146-0.199,7.656,2.985,7.86,7.122s-2.984,7.656-7.122,7.86l-28.508,1.405   C106.394,145.867,106.268,145.87,106.144,145.87z"/>
	<path style="fill:#FC8063;" d="M119.081,210.411c-2.698,0-5.305-1.46-6.646-4.015c-1.927-3.667-0.515-8.201,3.152-10.127   l25.357-13.319c3.666-1.93,8.2-0.516,10.127,3.152c1.927,3.667,0.515,8.201-3.152,10.127l-25.356,13.319   C121.449,210.134,120.256,210.411,119.081,210.411z"/>
	<path style="fill:#FC8063;" d="M372.922,86.584c-2.875,0-5.617-1.662-6.858-4.459c-1.681-3.786,0.025-8.218,3.811-9.897   l28.089-12.469c3.789-1.682,8.218,0.026,9.897,3.812c1.681,3.786-0.025,8.218-3.811,9.897l-28.089,12.469   C374.972,86.376,373.939,86.584,372.922,86.584z"/>
	<path style="fill:#FC8063;" d="M405.856,145.87c-0.124,0-0.249-0.003-0.375-0.009l-28.508-1.405   c-4.138-0.204-7.326-3.724-7.122-7.86c0.204-4.138,3.681-7.314,7.86-7.122l28.508,1.405c4.138,0.204,7.326,3.724,7.122,7.86   C413.144,142.751,409.829,145.87,405.856,145.87z"/>
	<path style="fill:#FC8063;" d="M392.919,210.411c-1.175,0-2.368-0.277-3.48-0.862l-25.357-13.319   c-3.667-1.926-5.079-6.46-3.152-10.127c1.926-3.667,6.46-5.081,10.127-3.152l25.356,13.319c3.667,1.926,5.079,6.46,3.152,10.127   C398.224,208.951,395.617,210.411,392.919,210.411z"/>
</g>
<path style="opacity:0.1;enable-background:new    ;" d="M288.157,446.99h-10.69c5.197,0,9.409,4.213,9.409,9.409v6.016h-72.442  v10.337h83.132v-16.354C297.566,451.202,293.353,446.99,288.157,446.99z"/>
<g>
</g>
<g>
</g>
<g>
</g>
<g>
</g>
<g>
</g>
<g>
</g>
<g>
</g>
<g>
</g>
<g>
</g>
<g>
</g>
<g>
</g>
<g>
</g>
<g>
</g>
<g>
</g>
<g>
</g>
</svg>
