<?xml version="1.0" encoding="iso-8859-1"?>
<!-- Generator: Adobe Illustrator 19.0.0, SVG Export Plug-In . SVG Version: 6.00 Build 0)  -->
<svg xmlns="http://www.w3.org/2000/svg" xmlns:xlink="http://www.w3.org/1999/xlink" version="1.1" id="Capa_1" x="0px" y="0px" viewBox="0 0 512 512" style="enable-background:new 0 0 512 512;" xml:space="preserve">
<path style="fill:#F15B70;" d="M322.741,97.11c0-28.012-14.921-65.918-50.481-94.443c-6.566-5.267-16.394-2.386-19.062,5.598  c-11.732,35.111-45.513,61.236-45.513,88.845c0,31.772,25.756,57.528,57.528,57.528S322.741,128.882,322.741,97.11z"/>
<path style="opacity:0.3;fill:#FFFFFF;enable-background:new    ;" d="M296.666,115.744c0-15.315-8.158-36.04-27.6-51.636  c-3.59-2.88-8.963-1.305-10.422,3.061c-6.415,19.197-24.884,33.48-24.884,48.575c0,17.371,14.082,31.453,31.453,31.453  S296.666,133.115,296.666,115.744z"/>
<polygon style="fill:#F2BA5B;" points="131.116,450.552 131.116,141.328 380.884,173.531 380.884,450.552 "/>
<g style="opacity:0.1;">
	<path d="M157.667,352.626c-4.143,0-7.5-3.357-7.5-7.5v-14.203c0-4.143,3.357-7.5,7.5-7.5s7.5,3.357,7.5,7.5v14.203   C165.167,349.269,161.81,352.626,157.667,352.626z"/>
	<path d="M280.333,328.126c-4.143,0-7.5-3.357-7.5-7.5v-39.039c0-4.143,3.357-7.5,7.5-7.5s7.5,3.357,7.5,7.5v39.039   C287.833,324.769,284.476,328.126,280.333,328.126z"/>
</g>
<path style="opacity:0.05;enable-background:new    ;" d="M349.257,169.453l-218.141-28.125V246.31  c2.212,0.712,4.569,1.101,7.018,1.101l0,0c11.702,0,21.188,9.486,21.188,21.188v36.419c0,19.85,16.092,35.942,35.942,35.942  c19.851,0,35.942-16.092,35.942-35.942v-16.135c0-22.904,18.568-41.472,41.472-41.472l0,0c22.904,0,41.472,18.568,41.472,41.472  v61.652c0,19.755,13.875,36.261,32.409,40.328v59.689h34.323V193.425C372.79,182.949,361.962,174.584,349.257,169.453z"/>
<path style="fill:#FAE5AA;" d="M115.254,145.281v57.669c0,12.637,10.244,22.881,22.881,22.881l0,0  c11.702,0,21.188,9.486,21.188,21.188v36.419c0,19.85,16.092,35.942,35.942,35.942l0,0c19.85,0,35.942-16.092,35.942-35.942v-16.135  c0-22.904,18.568-41.472,41.472-41.472l0,0c22.904,0,41.472,18.568,41.472,41.472v61.652c0,22.808,18.49,41.297,41.297,41.297l0,0  c22.808,0,41.297-18.489,41.297-41.297V218.281c0-33.968-22.552-63.807-55.231-73.077L177.073,98.558  C146.069,89.764,115.254,113.053,115.254,145.281z"/>
<path style="fill:#FF945E;" d="M389.934,512H122.066c-10.836,0-21.049-5.063-27.61-13.686l-19.243-25.292  c-7.01-9.214-0.439-22.47,11.138-22.47h339.297c11.577,0,18.148,13.256,11.138,22.47l-19.243,25.292  C410.983,506.937,400.77,512,389.934,512z"/>
<path style="opacity:0.1;enable-background:new    ;" d="M425.649,450.552h-42.924c11.577,0,18.148,13.256,11.138,22.47  l-19.243,25.292C368.06,506.937,357.846,512,347.01,512h42.924c10.836,0,21.049-5.063,27.61-13.686l19.243-25.292  C443.797,463.808,437.226,450.552,425.649,450.552z"/>
<g>
	<path style="fill:#4A5058;" d="M194.454,401.186c-4.143,0-7.5-3.357-7.5-7.5V383.47c0-4.143,3.357-7.5,7.5-7.5s7.5,3.357,7.5,7.5   v10.216C201.954,397.828,198.597,401.186,194.454,401.186z"/>
	<path style="fill:#4A5058;" d="M317.546,401.186c-4.143,0-7.5-3.357-7.5-7.5V383.47c0-4.143,3.357-7.5,7.5-7.5s7.5,3.357,7.5,7.5   v10.216C325.046,397.828,321.689,401.186,317.546,401.186z"/>
	<path style="fill:#4A5058;" d="M256,409.031c-8.387,0-16.362-3.632-21.881-9.965c-2.722-3.123-2.395-7.86,0.727-10.582   c3.122-2.721,7.859-2.396,10.582,0.726c2.669,3.064,6.523,4.82,10.572,4.82c4.05,0,7.903-1.757,10.572-4.82   c2.722-3.123,7.457-3.448,10.582-0.726c3.122,2.722,3.448,7.459,0.727,10.582C272.362,405.399,264.387,409.031,256,409.031z"/>
</g>
<g style="opacity:0.3;">
	<ellipse style="fill:#F15B70;" cx="194.45" cy="419.12" rx="26.345" ry="11.431"/>
	<ellipse style="fill:#F15B70;" cx="317.55" cy="419.12" rx="26.345" ry="11.431"/>
</g>
<g>
</g>
<g>
</g>
<g>
</g>
<g>
</g>
<g>
</g>
<g>
</g>
<g>
</g>
<g>
</g>
<g>
</g>
<g>
</g>
<g>
</g>
<g>
</g>
<g>
</g>
<g>
</g>
<g>
</g>
</svg>
