<?xml version="1.0" encoding="iso-8859-1"?>
<!-- Generator: Adobe Illustrator 19.0.0, SVG Export Plug-In . SVG Version: 6.00 Build 0)  -->
<svg xmlns="http://www.w3.org/2000/svg" xmlns:xlink="http://www.w3.org/1999/xlink" version="1.1" id="Capa_1" x="0px" y="0px" viewBox="0 0 512 512" style="enable-background:new 0 0 512 512;" xml:space="preserve">
<path style="fill:#F15B70;" d="M281.793,408.71v-35.029h-51.587v35.036c0,11.995-3.781,23.65-10.65,33.483  c-5.505,7.881-8.518,17.63-7.892,28.111c1.352,22.607,19.913,40.764,42.543,41.654c25.347,0.997,46.209-19.256,46.209-44.382  c0-9.318-2.872-17.962-7.778-25.102C285.778,432.498,281.793,420.824,281.793,408.71z"/>
<path style="opacity:0.15;enable-background:new    ;" d="M292.638,442.481c-6.86-9.983-10.845-21.658-10.845-33.771v-35.029  h-51.587v35.036c0,11.995-3.781,23.65-10.65,33.483c-1.421,2.034-2.672,4.195-3.742,6.459h64.515  c2.712,5.741,4.235,12.153,4.235,18.925c0,21.827-15.747,39.967-36.498,43.703l0,0c2.005,0.365,4.055,0.596,6.14,0.678  c25.347,0.997,46.209-19.256,46.209-44.382C300.417,458.265,297.544,449.621,292.638,442.481z"/>
<path style="fill:#A16B4E;" d="M256,0c-28.455,0-51.521,23.067-51.521,51.521s23.067,51.521,51.521,51.521  s51.522-23.067,51.522-51.521S284.454,0,256,0z M256,74.091c-12.465,0-22.57-10.105-22.57-22.57s10.105-22.57,22.57-22.57  c12.465,0,22.57,10.105,22.57,22.57C278.569,63.986,268.465,74.091,256,74.091z"/>
<path style="opacity:0.15;enable-background:new    ;" d="M256,78.546L256,78.546c-13.755,0-27.007,2.144-39.45,6.103  c9.451,11.243,23.612,18.394,39.449,18.394s29.998-7.151,39.449-18.394C283.006,80.689,269.754,78.546,256,78.546z"/>
<path style="fill:#E3E3E3;" d="M446.074,432.751H65.926c-11.093,0-20.085-8.993-20.085-20.086V381.45  c0-11.093,8.993-20.086,20.085-20.086h380.148c11.093,0,20.086,8.993,20.086,20.086v31.215  C466.159,423.759,457.167,432.751,446.074,432.751z"/>
<path style="opacity:0.15;enable-background:new    ;" d="M446.074,361.366h-48.219c11.093,0,20.086,8.993,20.086,20.085v31.215  c0,11.093-8.993,20.086-20.086,20.086h48.219c11.093,0,20.086-8.993,20.086-20.086v-31.215  C466.159,370.358,457.167,361.366,446.074,361.366z"/>
<path style="fill:#E3E3E3;" d="M385.972,223.283v-1.503c0-71.782-58.19-129.972-129.972-129.972l0,0  c-71.782,0-129.972,58.19-129.972,129.972v1.503c0,49.628-15.748,97.975-44.976,138.083l0,0h349.897l0,0  C401.72,321.258,385.972,272.91,385.972,223.283z"/>
<g>
	<path style="fill:#4A5058;" d="M189.46,296.558c-4.142,0-7.5-3.357-7.5-7.5v-11.349c0-4.143,3.358-7.5,7.5-7.5s7.5,3.357,7.5,7.5   v11.349C196.96,293.2,193.602,296.558,189.46,296.558z"/>
	<path style="fill:#4A5058;" d="M256,316.886L256,316.886c-10.58,0-19.156-8.577-19.156-19.156v-14.033   c0-2.823,2.288-5.111,5.111-5.111h28.09c2.823,0,5.111,2.288,5.111,5.111v14.033C275.156,308.309,266.58,316.886,256,316.886z"/>
	<path style="fill:#4A5058;" d="M322.54,296.558c-4.143,0-7.5-3.357-7.5-7.5v-11.349c0-4.143,3.357-7.5,7.5-7.5s7.5,3.357,7.5,7.5   v11.349C330.04,293.2,326.683,296.558,322.54,296.558z"/>
</g>
<g style="opacity:0.3;">
	<ellipse style="fill:#F15B70;" cx="191.76" cy="313.27" rx="27.5" ry="11.932"/>
	<ellipse style="fill:#F15B70;" cx="320.24" cy="313.27" rx="27.5" ry="11.932"/>
</g>
<path style="opacity:0.15;enable-background:new    ;" d="M430.948,361.365c-29.228-40.108-44.976-88.455-44.976-138.083v-1.503  c0-71.781-58.19-129.972-129.972-129.972l0,0c-5.472,0-10.863,0.342-16.157,0.999c64.157,7.955,113.815,62.663,113.815,128.973  v1.503c0,39.569,10.021,78.318,28.894,112.732H97.134c-4.798,8.749-10.158,17.222-16.083,25.351l0,0L430.948,361.365z"/>
<path style="opacity:0.1;enable-background:new    ;" d="M156.224,237.508c8.664-8.666,22.761-8.664,31.425-0.001  c7.03,7.031,16.377,10.903,26.319,10.903s19.289-3.872,26.319-10.902c8.664-8.665,22.762-8.665,31.425,0  c7.031,7.03,16.378,10.902,26.32,10.902s19.289-3.872,26.319-10.902c8.664-8.666,22.763-8.663,31.425-0.001  c7.03,7.031,16.377,10.903,26.319,10.903c1.755,0,3.49-0.127,5.198-0.364c-0.529-4.984-0.906-9.993-1.115-15.02  c-1.334,0.247-2.697,0.385-4.083,0.385c-5.935,0-11.516-2.312-15.713-6.51c-14.511-14.511-38.126-14.514-52.639,0.001  c-4.196,4.197-9.776,6.509-15.712,6.509s-11.516-2.313-15.713-6.51c-14.514-14.512-38.125-14.513-52.639,0.001  c-4.197,4.197-9.777,6.509-15.712,6.509c-5.936,0-11.516-2.313-15.713-6.51c-14.512-14.512-38.126-14.513-52.638,0.001  c-4.197,4.196-9.777,6.509-15.713,6.509c-1.386,0-2.749-0.138-4.083-0.385c-0.209,5.028-0.586,10.036-1.115,15.02  c1.708,0.237,3.443,0.364,5.198,0.364C139.847,248.41,149.194,244.538,156.224,237.508z"/>
<g style="opacity:0.1;">
	<path d="M181.904,187.25c-1.919,0-3.839-0.732-5.303-2.197l-16.165-16.165c-2.929-2.929-2.929-7.677,0-10.606   s7.678-2.928,10.606,0.001l16.165,16.165c2.929,2.929,2.929,7.677,0,10.606C185.743,186.518,183.823,187.25,181.904,187.25z"/>
	<path d="M224.543,187.25c-1.919,0-3.839-0.732-5.303-2.197l-16.165-16.165c-2.929-2.929-2.929-7.677,0-10.606   s7.678-2.928,10.606,0.001l16.165,16.165c2.929,2.929,2.929,7.677,0,10.606C228.382,186.518,226.462,187.25,224.543,187.25z"/>
	<path d="M267.183,187.25c-1.92,0-3.839-0.732-5.304-2.197l-16.164-16.165c-2.929-2.929-2.928-7.678,0.001-10.606   c2.929-2.929,7.678-2.928,10.607,0.001l16.164,16.165c2.929,2.929,2.929,7.678-0.001,10.606   C271.021,186.518,269.102,187.25,267.183,187.25z"/>
	<path d="M309.822,187.25c-1.92,0-3.839-0.732-5.304-2.197l-16.164-16.165c-2.929-2.929-2.929-7.678,0.001-10.606   c2.929-2.928,7.678-2.929,10.606,0.001l16.164,16.165c2.929,2.929,2.929,7.678-0.001,10.606   C313.661,186.518,311.741,187.25,309.822,187.25z"/>
	<path d="M352.462,187.25c-1.92,0-3.839-0.732-5.304-2.197l-16.164-16.165c-2.929-2.929-2.929-7.678,0.001-10.606   c2.929-2.928,7.678-2.929,10.606,0.001l16.164,16.165c2.929,2.929,2.929,7.678-0.001,10.606   C356.301,186.518,354.381,187.25,352.462,187.25z"/>
</g>
<g>
</g>
<g>
</g>
<g>
</g>
<g>
</g>
<g>
</g>
<g>
</g>
<g>
</g>
<g>
</g>
<g>
</g>
<g>
</g>
<g>
</g>
<g>
</g>
<g>
</g>
<g>
</g>
<g>
</g>
</svg>
