<?xml version="1.0" encoding="iso-8859-1"?>
<!-- Generator: Adobe Illustrator 19.0.0, SVG Export Plug-In . SVG Version: 6.00 Build 0)  -->
<svg xmlns="http://www.w3.org/2000/svg" xmlns:xlink="http://www.w3.org/1999/xlink" version="1.1" id="Capa_1" x="0px" y="0px" viewBox="0 0 512 512" style="enable-background:new 0 0 512 512;" xml:space="preserve">
<g>
	<path style="fill:#DBDCDD;" d="M7.5,415.115c-1.919,0-3.839-0.732-5.303-2.196c-2.929-2.93-2.929-7.678,0-10.607l108.135-108.135   c2.929-2.928,7.678-2.928,10.607,0c2.929,2.93,2.929,7.678,0,10.607L12.803,412.919C11.339,414.383,9.42,415.115,7.5,415.115z"/>
	<path style="fill:#DBDCDD;" d="M39.795,447.41c-1.919,0-3.839-0.733-5.303-2.196c-2.929-2.93-2.929-7.678,0-10.607l108.135-108.135   c2.929-2.928,7.678-2.928,10.606,0c2.929,2.93,2.929,7.678,0,10.607L45.098,445.214C43.634,446.678,41.715,447.41,39.795,447.41z"/>
	<path style="fill:#DBDCDD;" d="M72.09,479.705c-1.919,0-3.839-0.732-5.303-2.196c-2.929-2.93-2.929-7.678,0-10.607l108.135-108.135   c2.929-2.928,7.678-2.928,10.606,0c2.929,2.93,2.929,7.678,0,10.607L77.393,477.509C75.929,478.973,74.009,479.705,72.09,479.705z"/>
	<path style="fill:#DBDCDD;" d="M104.385,512c-1.92,0-3.839-0.732-5.303-2.196c-2.929-2.93-2.929-7.678,0-10.607l108.135-108.135   c2.929-2.928,7.678-2.928,10.607,0c2.929,2.93,2.929,7.678,0,10.607L109.688,509.804C108.224,511.268,106.304,512,104.385,512z"/>
</g>
<g style="opacity:0.09;">
	<path d="M7.5,415.115c-1.919,0-3.839-0.732-5.303-2.196c-2.929-2.93-2.929-7.678,0-10.607l108.135-108.135   c2.929-2.928,7.678-2.928,10.607,0c2.929,2.93,2.929,7.678,0,10.607L12.803,412.919C11.339,414.383,9.42,415.115,7.5,415.115z"/>
	<path d="M39.795,447.41c-1.919,0-3.839-0.733-5.303-2.196c-2.929-2.93-2.929-7.678,0-10.607l108.135-108.135   c2.929-2.928,7.678-2.928,10.606,0c2.929,2.93,2.929,7.678,0,10.607L45.098,445.214C43.634,446.678,41.715,447.41,39.795,447.41z"/>
	<path d="M72.09,479.705c-1.919,0-3.839-0.732-5.303-2.196c-2.929-2.93-2.929-7.678,0-10.607l108.135-108.135   c2.929-2.928,7.678-2.928,10.606,0c2.929,2.93,2.929,7.678,0,10.607L77.393,477.509C75.929,478.973,74.009,479.705,72.09,479.705z"/>
	<path d="M104.385,512c-1.92,0-3.839-0.732-5.303-2.196c-2.929-2.93-2.929-7.678,0-10.607l108.135-108.135   c2.929-2.928,7.678-2.928,10.607,0c2.929,2.93,2.929,7.678,0,10.607L109.688,509.804C108.224,511.268,106.304,512,104.385,512z"/>
</g>
<path style="fill:#A16B4E;" d="M266.586,292.255l-46.841-46.841L458.334,6.825c9.1-9.1,23.855-9.1,32.955,0l13.885,13.885  c9.1,9.1,9.1,23.855,0,32.955L266.586,292.255z"/>
<path style="fill:#E8E8E8;" d="M223.665,407.511L104.489,288.335c-2.819-2.819-2.819-7.391,0-10.21l33.135-33.135  c4.921-4.921,12.899-4.921,17.819,0L267.01,356.557c4.921,4.921,4.921,12.899,0,17.819l-33.135,33.135  C231.056,410.33,226.485,410.33,223.665,407.511z"/>
<path style="opacity:0.1;enable-background:new    ;" d="M218.657,402.503l-109.159-109.16l16.66-16.66  c3.666-3.666,9.61-3.666,13.277,0l95.882,95.882c3.666,3.666,3.666,9.611,0,13.277L218.657,402.503z"/>
<path style="fill:#FAD97E;" d="M273.35,299.019l-60.369-60.369c-6.431-6.431-16.858-6.431-23.29,0l-20.293,20.293l83.658,83.659  l20.293-20.293C279.781,315.877,279.781,305.45,273.35,299.019z"/>
<path style="opacity:0.1;enable-background:new    ;" d="M273.35,299.019l-14.569-14.569c6.431,6.431,6.431,16.858,0,23.29  l-8.996,8.996l-69.089-69.089l-11.298,11.298l83.659,83.659l20.293-20.293C279.781,315.877,279.781,305.45,273.35,299.019z"/>
<path style="opacity:0.1;enable-background:new    ;" d="M505.175,20.711L493.601,9.137c9.1,9.1,9.1,23.855,0,32.955l-219.17,219.17  l-35.267-35.267l-19.419,19.419l46.841,46.841L505.175,53.666C514.275,44.566,514.275,29.811,505.175,20.711z"/>
<g>
</g>
<g>
</g>
<g>
</g>
<g>
</g>
<g>
</g>
<g>
</g>
<g>
</g>
<g>
</g>
<g>
</g>
<g>
</g>
<g>
</g>
<g>
</g>
<g>
</g>
<g>
</g>
<g>
</g>
</svg>
