<?xml version="1.0" encoding="iso-8859-1"?>
<!-- Generator: Adobe Illustrator 19.0.0, SVG Export Plug-In . SVG Version: 6.00 Build 0)  -->
<svg xmlns="http://www.w3.org/2000/svg" xmlns:xlink="http://www.w3.org/1999/xlink" version="1.1" id="Capa_1" x="0px" y="0px" viewBox="0 0 512 512" style="enable-background:new 0 0 512 512;" xml:space="preserve">
<path style="fill:#A16B4E;" d="M401.663,512H110.335c-15.611,0-28.267-12.655-28.267-28.267V28.267  C82.068,12.656,94.724,0,110.335,0h291.328c15.611,0,28.267,12.656,28.267,28.267v455.466C429.93,499.345,417.274,512,401.663,512z"/>
<path style="fill:#F2BA5B;" d="M363.28,345.079c-19.75,19.75-51.771,19.75-71.52,0c-19.75-19.75-51.771-19.75-71.521,0  s-51.771,19.75-71.52,0c-18.201-18.2-46.815-19.614-66.65-4.269v142.923c0,15.611,12.656,28.267,28.267,28.267h291.328  c15.611,0,28.267-12.655,28.267-28.267V340.81C410.094,325.465,381.48,326.878,363.28,345.079z"/>
<path style="opacity:0.1;enable-background:new    ;" d="M401.663,0h-38.861c15.611,0,28.267,12.656,28.267,28.267v455.466  c0,15.611-12.656,28.267-28.267,28.267h38.861c15.611,0,28.267-12.655,28.267-28.267V28.267C429.93,12.656,417.274,0,401.663,0z"/>
<path style="opacity:0.1;enable-background:new    ;" d="M302.453,246.902V59.461c0-15.439-12.105-28.49-27.539-28.913  c-16.013-0.439-29.131,12.41-29.131,28.324V246.9c0,5.707-2.848,11.096-7.685,14.123c-19.992,12.512-33.016,35.12-31.901,60.691  c1.52,34.878,29.741,63.216,64.613,64.868c39.052,1.85,71.295-29.264,71.295-67.909c0-24.302-12.757-45.612-31.935-57.63  C305.323,258.006,302.453,252.622,302.453,246.902z"/>
<path style="fill:#9BD3E0;" d="M284.334,246.902V59.461c0-15.439-12.105-28.49-27.539-28.913  c-16.013-0.439-29.131,12.41-29.131,28.324V246.9c0,5.707-2.848,11.096-7.685,14.123c-19.992,12.512-33.016,35.12-31.901,60.691  c1.52,34.878,29.741,63.216,64.613,64.868c39.052,1.85,71.295-29.264,71.295-67.909c0-24.302-12.757-45.612-31.935-57.63  C287.204,258.006,284.334,252.622,284.334,246.902z"/>
<path style="fill:#F15B70;" d="M292.051,261.044c-4.847-3.037-7.717-8.421-7.717-14.141v-61.518h-56.669V246.9  c0,5.706-2.848,11.095-7.685,14.123c-19.992,12.513-33.016,35.12-31.901,60.691c1.52,34.879,29.74,63.216,64.613,64.868  c39.052,1.851,71.295-29.264,71.295-67.909C323.986,294.372,311.228,273.061,292.051,261.044z"/>
<g>
	<path style="fill:#4A5058;" d="M251.562,185.384c0,4.143,3.357,7.5,7.5,7.5h25.272v-15h-25.272   C254.919,177.884,251.562,181.241,251.562,185.384z M251.562,221.722c0,4.143,3.357,7.5,7.5,7.5h25.272v-15h-25.272   C254.919,214.222,251.562,217.579,251.562,221.722z M251.562,112.709c0,4.143,3.357,7.5,7.5,7.5h25.272v-15h-25.272   C254.919,105.209,251.562,108.566,251.562,112.709z M259.062,68.871c-4.143,0-7.5,3.357-7.5,7.5s3.357,7.5,7.5,7.5h25.272v-15   H259.062z M251.562,149.046c0,4.143,3.357,7.5,7.5,7.5h25.272v-15h-25.272C254.919,141.546,251.562,144.903,251.562,149.046z"/>
	<path style="fill:#4A5058;" d="M194.453,444.156c-4.143,0-7.5-3.358-7.5-7.5V426.44c0-4.142,3.357-7.5,7.5-7.5s7.5,3.358,7.5,7.5   v10.216C201.953,440.799,198.596,444.156,194.453,444.156z"/>
	<path style="fill:#4A5058;" d="M317.545,444.156c-4.143,0-7.5-3.358-7.5-7.5V426.44c0-4.142,3.357-7.5,7.5-7.5s7.5,3.358,7.5,7.5   v10.216C325.045,440.799,321.688,444.156,317.545,444.156z"/>
	<path style="fill:#4A5058;" d="M255.999,452.002c-8.387,0-16.362-3.632-21.881-9.965c-2.722-3.123-2.395-7.86,0.727-10.582   c3.122-2.721,7.859-2.396,10.582,0.727c2.669,3.063,6.522,4.82,10.572,4.82s7.903-1.757,10.572-4.82   c2.723-3.122,7.457-3.448,10.582-0.727c3.122,2.722,3.448,7.459,0.727,10.582C272.361,448.37,264.386,452.002,255.999,452.002z"/>
</g>
<g style="opacity:0.3;">
	<ellipse style="fill:#F15B70;" cx="194.449" cy="462.09" rx="26.345" ry="11.431"/>
	<ellipse style="fill:#F15B70;" cx="317.549" cy="462.09" rx="26.345" ry="11.431"/>
</g>
<path style="opacity:0.1;enable-background:new    ;" d="M292.051,261.044c-4.847-3.037-7.717-8.422-7.717-14.141V59.461  c0-15.439-12.105-28.49-27.539-28.913c-3.526-0.097-6.91,0.452-10.046,1.535c11.228,3.925,19.179,14.867,19.179,27.378v187.442  c0,5.72,2.871,11.104,7.717,14.141c19.178,12.018,31.935,33.328,31.935,57.63c0,34.441-25.616,62.878-58.831,67.353  c1.957,0.268,3.937,0.461,5.941,0.556c39.052,1.85,71.295-29.264,71.295-67.909C323.986,294.372,311.228,273.061,292.051,261.044z"/>
<g style="opacity:0.1;">
	<path d="M337.212,205.034c-4.143,0-7.5-3.357-7.5-7.5v-24.3c0-4.143,3.357-7.5,7.5-7.5s7.5,3.357,7.5,7.5v24.3   C344.712,201.677,341.354,205.034,337.212,205.034z"/>
	<path d="M380.481,374.767c-4.143,0-7.5-3.357-7.5-7.5v-53.082c0-4.143,3.357-7.5,7.5-7.5s7.5,3.357,7.5,7.5v53.082   C387.981,371.409,384.624,374.767,380.481,374.767z"/>
	<path d="M138.956,279.857c-4.143,0-7.5-3.357-7.5-7.5v-72.566c0-17.824,6.941-34.582,19.546-47.188   c9.771-9.771,15.152-22.762,15.152-36.58V73.85c0-4.143,3.357-7.5,7.5-7.5s7.5,3.357,7.5,7.5v42.174   c0,17.825-6.941,34.583-19.545,47.188c-9.771,9.771-15.153,22.763-15.153,36.58v72.566   C146.456,276.5,143.099,279.857,138.956,279.857z"/>
	<path d="M131.772,83.871c-4.143,0-7.5-3.357-7.5-7.5V46c0-4.143,3.357-7.5,7.5-7.5c4.143,0,7.5,3.357,7.5,7.5v30.371   C139.272,80.514,135.915,83.871,131.772,83.871z"/>
	<path d="M388.485,182.76c-4.142,0-7.5-3.357-7.5-7.5v-20.55c0-12.95-5.043-25.125-14.199-34.28   c-11.99-11.991-18.594-27.934-18.594-44.889V55.666c0-4.143,3.357-7.5,7.5-7.5s7.5,3.357,7.5,7.5v19.875   c0,12.949,5.043,25.124,14.2,34.282c11.989,11.988,18.593,27.93,18.593,44.887v20.55   C395.985,179.402,392.628,182.76,388.485,182.76z"/>
	<path d="M139.601,402.96c-4.143,0-7.5-3.357-7.5-7.5v-40.648c0-4.143,3.357-7.5,7.5-7.5s7.5,3.357,7.5,7.5v40.648   C147.101,399.603,143.743,402.96,139.601,402.96z"/>
</g>
<g>
</g>
<g>
</g>
<g>
</g>
<g>
</g>
<g>
</g>
<g>
</g>
<g>
</g>
<g>
</g>
<g>
</g>
<g>
</g>
<g>
</g>
<g>
</g>
<g>
</g>
<g>
</g>
<g>
</g>
</svg>
