<?xml version="1.0" encoding="iso-8859-1"?>
<!-- Generator: Adobe Illustrator 19.0.0, SVG Export Plug-In . SVG Version: 6.00 Build 0)  -->
<svg xmlns="http://www.w3.org/2000/svg" xmlns:xlink="http://www.w3.org/1999/xlink" version="1.1" id="Capa_1" x="0px" y="0px" viewBox="0 0 511.999 511.999" style="enable-background:new 0 0 511.999 511.999;" xml:space="preserve">
<path style="fill:#A16B4E;" d="M251.987,120.634c-9.477,0-17.16-7.683-17.16-17.16c0-57.179,35.018-97.384,68.872-103.221  c9.349-1.615,18.217,4.656,19.827,13.995s-4.657,18.216-13.995,19.826c-16.93,2.919-40.383,28.66-40.383,69.399  C269.147,112.951,261.464,120.634,251.987,120.634z"/>
<path style="opacity:0.1;enable-background:new    ;" d="M255.995,68.055c-5.688,0-11.271,0.444-16.721,1.292  c-2.84,10.491-4.448,21.917-4.448,34.126c0,9.477,7.683,17.16,17.16,17.16s17.16-7.683,17.16-17.16  c0-12.801,2.318-24.119,6.019-33.716C268.944,68.639,262.538,68.055,255.995,68.055z"/>
<path style="fill:#F2BA5B;" d="M363.845,194.049c0.005-0.427,0.008-0.854,0.009-1.282c0.055-59.569-48.288-107.958-107.858-107.956  c-59.565,0.002-107.851,48.289-107.851,107.854c0,0.959,0.013,1.915,0.037,2.867c0.777,29.704-7.473,58.981-22.903,84.375  c-13.986,23.016-22.063,50.018-22.126,78.905c-0.177,81.142,67.403,150.884,148.515,153.127  c86.393,2.389,157.178-66.933,157.178-152.787c0-28.666-7.893-55.488-21.624-78.412C371.521,254.528,363.46,224.602,363.845,194.049  z"/>
<path style="opacity:0.1;enable-background:new    ;" d="M387.222,280.741c-15.7-26.213-23.762-56.139-23.377-86.692  c0.005-0.427,0.008-0.854,0.009-1.282c0.049-53.65-39.161-98.222-90.47-106.551c31.507,17.813,52.796,51.617,52.76,90.367  c0,0.411-0.003,0.822-0.008,1.232c-0.37,29.362,7.377,58.121,22.466,83.312c13.195,22.031,20.781,47.806,20.781,75.355  c0,82.507-68.026,149.126-151.051,146.831c-28.923-0.8-56.05-10.536-78.73-26.443c27.395,32.427,67.708,53.842,112.067,55.069  c86.393,2.389,157.178-66.932,157.178-152.786C408.846,330.486,400.952,303.665,387.222,280.741z"/>
<g>
	<path style="fill:#4A5058;" d="M186.188,350.781c-4.143,0-7.5-3.357-7.5-7.5v-11.588c0-4.142,3.357-7.5,7.5-7.5s7.5,3.358,7.5,7.5   v11.588C193.688,347.424,190.331,350.781,186.188,350.781z"/>
	<path style="fill:#4A5058;" d="M325.809,350.781c-4.142,0-7.5-3.357-7.5-7.5v-11.588c0-4.142,3.358-7.5,7.5-7.5   c4.143,0,7.5,3.358,7.5,7.5v11.588C333.309,347.424,329.952,350.781,325.809,350.781z"/>
	<path style="fill:#4A5058;" d="M255.999,359.68c-9.222,0-17.991-3.994-24.06-10.957c-2.722-3.123-2.395-7.86,0.727-10.582   c3.122-2.721,7.859-2.395,10.582,0.727c3.219,3.694,7.866,5.813,12.751,5.813c4.885,0,9.532-2.118,12.751-5.813   c2.722-3.122,7.457-3.448,10.582-0.727c3.122,2.722,3.448,7.459,0.727,10.582C273.99,355.686,265.221,359.68,255.999,359.68z"/>
</g>
<g style="opacity:0.3;">
	<ellipse style="fill:#F15B70;" cx="186.189" cy="372.129" rx="29.883" ry="12.966"/>
	<ellipse style="fill:#F15B70;" cx="325.809" cy="372.129" rx="29.883" ry="12.966"/>
</g>
<g style="opacity:0.1;">
	<circle cx="188.999" cy="190.229" r="7.17"/>
	<circle cx="203.339" cy="148.009" r="7.171"/>
	<circle cx="217.679" cy="175.889" r="7.171"/>
	<circle cx="318.639" cy="460.019" r="7.171"/>
	<circle cx="350.319" cy="438.619" r="7.171"/>
</g>
<g>
</g>
<g>
</g>
<g>
</g>
<g>
</g>
<g>
</g>
<g>
</g>
<g>
</g>
<g>
</g>
<g>
</g>
<g>
</g>
<g>
</g>
<g>
</g>
<g>
</g>
<g>
</g>
<g>
</g>
</svg>
