<?xml version="1.0" encoding="iso-8859-1"?>
<!-- Generator: Adobe Illustrator 19.0.0, SVG Export Plug-In . SVG Version: 6.00 Build 0)  -->
<svg xmlns="http://www.w3.org/2000/svg" xmlns:xlink="http://www.w3.org/1999/xlink" version="1.1" id="Capa_1" x="0px" y="0px" viewBox="0 0 512.001 512.001" style="enable-background:new 0 0 512.001 512.001;" xml:space="preserve">
<path style="fill:#F15B70;" d="M345.193,113.585H166.807c-56.333,0-102,45.667-102,102v249.684  c0,25.809,20.923,46.732,46.732,46.732h288.922c25.81,0,46.732-20.923,46.732-46.732V215.584  C447.193,159.251,401.526,113.585,345.193,113.585z"/>
<path style="fill:#FAD97E;" d="M64.807,266.418v198.85c0,25.809,20.923,46.732,46.732,46.732h288.922  c25.809,0,46.732-20.923,46.732-46.732v-198.85H64.807z"/>
<path style="opacity:0.1;enable-background:new    ;" d="M345.193,113.585H166.807c-51.846,0-94.655,38.683-101.146,88.762  c8.312,8.444,20.984,12.656,34.384,8.112l0,0c10.993-3.728,23.134-1.471,32.054,5.957c24.571,20.463,58.409,25.743,88.046,13.738  l3.301-1.337c20.879-8.458,44.231-8.458,65.11,0l3.301,1.337c29.637,12.005,63.475,6.725,88.046-13.738  c5.517-4.595,12.267-7.204,19.215-7.65c0.149,2.254,0.232,4.527,0.232,6.819v249.684c0,25.809-20.921,46.73-46.729,46.732h47.842  c25.81,0,46.732-20.923,46.732-46.732V215.584C447.193,159.251,401.526,113.585,345.193,113.585z"/>
<path style="fill:#A16B4E;" d="M412.842,85.71l28.604,48.627c14.871,25.28-9.669,55.44-37.445,46.021l0,0  c-10.433-3.538-21.954-1.396-30.419,5.653l0,0c-23.318,19.419-55.43,24.43-83.556,13.037l-3.132-1.269  c-19.814-8.026-41.975-8.026-61.789,0l-3.132,1.269c-28.125,11.393-60.238,6.382-83.555-13.037l0,0  c-8.465-7.05-19.986-9.191-30.419-5.653l0,0c-27.776,9.419-52.315-20.741-37.445-46.021L99.158,85.71H412.842z"/>
<path style="opacity:0.1;enable-background:new    ;" d="M441.446,134.337L412.842,85.71h-33.094l28.604,48.627  c10.131,17.223,1.964,36.698-13.05,44.393c2.925,0.135,5.853,0.663,8.699,1.628l0,0  C431.777,189.777,456.317,159.617,441.446,134.337z"/>
<path style="fill:#7D4E3E;" d="M388.619,0H123.381c-13.378,0-24.223,10.845-24.223,24.223V85.71h313.684V24.223  C412.842,10.845,401.997,0,388.619,0z"/>
<path style="opacity:0.1;enable-background:new    ;" d="M388.619,0h-33.094c13.378,0,24.223,10.845,24.223,24.223V85.71h33.094  V24.223C412.842,10.845,401.997,0,388.619,0z"/>
<path style="fill:#FAD97E;" d="M414.275,53.784H97.725c-8.816,0-15.963,7.147-15.963,15.963l0,0c0,8.816,7.147,15.963,15.963,15.963  h316.55c8.816,0,15.963-7.147,15.963-15.963l0,0C430.238,60.931,423.091,53.784,414.275,53.784z"/>
<path style="fill:#F15B70;" d="M64.807,465.268c0,25.809,20.923,46.732,46.732,46.732h288.922c25.809,0,46.732-20.923,46.732-46.732  H64.807z"/>
<path style="opacity:0.1;enable-background:new    ;" d="M300.205,359.513c-8.677,0-16.492,3.669-21.995,9.533  c-8.698-5.221-16.309-12.559-22.087-19.839c2.438-2.435,4.148-5.452,4.989-8.926c2.849-11.768-4.834-25.173-12.279-33.076  c-2.801-2.974-7.483-3.115-10.457-0.312c-2.974,2.801-3.114,7.482-0.313,10.457c6.067,6.441,9.795,14.803,8.67,19.451  c-0.284,1.171-0.94,2.499-3.657,3.46c-10.947,3.876-25.434,11.588-32.288,26.318c-1.357,2.917-2.273,5.832-2.848,8.639  c-13.062,3.313-22.726,15.146-22.726,29.239c0,16.66,13.505,30.165,30.165,30.165s30.165-13.505,30.165-30.165  c0-13.953-9.476-25.688-22.341-29.135c2.045-6.136,7.248-13.479,19.689-19.062c5.357,7.08,14.985,17.995,28.13,25.763  c-0.64,2.445-0.983,5.01-0.983,7.656c0,16.66,13.505,30.165,30.165,30.165s30.165-13.505,30.165-30.165  C330.371,373.019,316.865,359.513,300.205,359.513z"/>
<g>
	<path style="fill:#A16B4E;" d="M215.376,389.899c-3.236,0-6.222-2.11-7.188-5.37c-1.708-5.763-1.946-15.33,2.507-24.902   c6.869-14.763,21.381-22.489,32.346-26.372c2.671-0.945,3.314-2.243,3.591-3.387c0.95-3.926-1.756-12.045-8.645-19.357   c-2.84-3.016-2.698-7.762,0.317-10.603c3.015-2.84,7.762-2.697,10.602,0.317c7.462,7.923,15.163,21.364,12.304,33.172   c-1.594,6.585-6.269,11.557-13.164,13.998c-31.512,11.156-25.542,32.654-25.478,32.87c1.177,3.972-1.088,8.146-5.06,9.322   C216.8,389.799,216.082,389.899,215.376,389.899z"/>
	<path style="fill:#A16B4E;" d="M292.292,383.298c-0.533,0-1.073-0.058-1.615-0.177c-27.968-6.138-46.4-31.136-51.383-38.651   c-2.288-3.452-1.346-8.106,2.107-10.396c3.452-2.287,8.106-1.347,10.395,2.107c8.646,13.041,24.247,28.372,42.097,32.29   c4.046,0.888,6.605,4.887,5.718,8.933C298.842,380.908,295.738,383.298,292.292,383.298z"/>
</g>
<circle style="fill:#F15B70;" cx="215.38" cy="397.55" r="30.16"/>
<path style="opacity:0.1;enable-background:new    ;" d="M232.308,372.579c3.279,4.827,5.197,10.654,5.197,16.929  c0,16.66-13.506,30.165-30.165,30.165c-6.275,0-12.102-1.918-16.929-5.197c5.427,7.988,14.584,13.237,24.969,13.237  c16.66,0,30.165-13.506,30.165-30.166C245.545,387.163,240.296,378.005,232.308,372.579z"/>
<circle style="fill:#F15B70;" cx="300.2" cy="382.77" r="30.16"/>
<path style="opacity:0.1;enable-background:new    ;" d="M317.134,357.801c3.279,4.827,5.197,10.654,5.197,16.929  c0,16.66-13.505,30.165-30.165,30.165c-6.275,0-12.102-1.917-16.929-5.197c5.427,7.988,14.584,13.237,24.969,13.237  c16.66,0,30.165-13.506,30.165-30.165C330.371,372.385,325.122,363.228,317.134,357.801z"/>
<g style="opacity:0.1;">
	<rect x="248.5" y="53.783" width="15" height="31.927"/>
	<rect x="186.32" y="53.783" width="15" height="31.927"/>
	<rect x="124.13" y="53.783" width="15" height="31.927"/>
	<rect x="310.68" y="53.783" width="15" height="31.927"/>
	<rect x="372.87" y="53.783" width="15" height="31.927"/>
</g>
<g>
</g>
<g>
</g>
<g>
</g>
<g>
</g>
<g>
</g>
<g>
</g>
<g>
</g>
<g>
</g>
<g>
</g>
<g>
</g>
<g>
</g>
<g>
</g>
<g>
</g>
<g>
</g>
<g>
</g>
</svg>
