<?xml version="1.0" encoding="iso-8859-1"?>
<!-- Generator: Adobe Illustrator 19.0.0, SVG Export Plug-In . SVG Version: 6.00 Build 0)  -->
<svg xmlns="http://www.w3.org/2000/svg" xmlns:xlink="http://www.w3.org/1999/xlink" version="1.1" id="Capa_1" x="0px" y="0px" viewBox="0 0 512 512" style="enable-background:new 0 0 512 512;" xml:space="preserve">
<path style="fill:#8CC4B1;" d="M418.241,229.787L418.241,229.787c-7.246-19.907-29.258-30.172-49.165-22.926l-11.878,4.323  c-13.537,4.927-27.853-5.097-27.853-19.503l0,0c0-8.725,5.457-16.519,13.656-19.503l52.313-19.04  c19.907-7.246,30.172-29.258,22.926-49.165l0,0c-7.246-19.907-29.257-30.172-49.165-22.926l-10.467,3.81  c-28.779,10.475-59.216-10.837-59.216-41.464l0,0C299.393,19.428,279.965,0,256,0l0,0c-23.965,0-43.393,19.428-43.393,43.393l0,0  c0,30.627-30.437,51.938-59.216,41.464l-10.467-3.81c-19.907-7.246-41.919,3.019-49.165,22.926l0,0  c-7.246,19.907,3.019,41.919,22.926,49.165l52.314,19.041c8.199,2.984,13.656,10.778,13.656,19.503l0,0  c0,14.406-14.316,24.43-27.853,19.503l-11.878-4.323c-19.907-7.246-41.919,3.019-49.165,22.926l0,0  c-7.246,19.907,3.019,41.919,22.926,49.165l52.314,19.041c8.199,2.984,13.656,10.778,13.656,19.503l0,0  c0,14.406-14.316,24.43-27.853,19.503l-11.878-4.323c-19.907-7.246-41.919,3.019-49.165,22.926l0,0  c-7.246,19.907,3.019,41.919,22.926,49.165l81.779,29.765c37.165,13.527,77.907,13.527,115.072,0l81.779-29.765  c19.907-7.246,30.172-29.258,22.926-49.165l0,0c-7.246-19.907-29.257-30.171-49.165-22.926L357.198,337  c-13.537,4.927-27.853-5.097-27.853-19.503l0,0c0-8.725,5.457-16.519,13.656-19.503l52.313-19.04  C415.222,271.706,425.487,249.694,418.241,229.787z"/>
<path style="opacity:0.05;enable-background:new    ;" d="M369.076,206.861l-2.278,0.829c13.944,2.069,26.327,11.306,31.491,25.141  l0,0c5.882,15.76-1.876,38.12-15.415,50.648l12.441-4.528c19.907-7.246,30.172-29.258,22.926-49.165  C410.995,209.88,388.983,199.615,369.076,206.861z M334.413,86.596c-19.421-4.134-35.021-21.279-35.021-43.203  C299.393,19.428,279.965,0,256,0l0,0c-4.505,0-8.85,0.687-12.935,1.962c18.382,5.55,31.734,22.257,31.734,42.006  C274.799,74.339,305.09,95.65,334.413,86.596z M398.289,105.351c6.227,16.683-3.041,41.175-18.134,53.305l15.16-5.518  c19.907-7.246,30.172-29.258,22.926-49.165l0,0c-7.153-19.652-28.693-29.894-48.395-23.184  C382.523,83.67,393.505,92.533,398.289,105.351z M418.241,355.601c-7.246-19.907-29.257-30.171-49.165-22.926l-5.855,2.131  c15.369,0.906,29.466,10.498,35.068,25.507l0,0c6.169,16.529-1.529,37.924-15.891,49.154l12.917-4.701  C415.222,397.521,425.487,375.509,418.241,355.601L418.241,355.601z"/>
<path style="fill:#A16B4E;" d="M323.202,262.395c3.942-1.271,6.109-5.496,4.838-9.439c-1.271-3.942-5.495-6.107-9.439-4.838  L263.5,265.873V156.605l59.702-19.239c3.942-1.271,6.109-5.496,4.838-9.439c-1.271-3.941-5.495-6.107-9.439-4.838L263.5,140.845  V78.159c0-4.143-3.358-7.5-7.5-7.5s-7.5,3.357-7.5,7.5v62.686l-55.102-17.756c-3.944-1.271-8.169,0.896-9.439,4.838  c-1.271,3.943,0.896,8.169,4.838,9.439l59.702,19.239v109.269l-55.102-17.756c-3.944-1.271-8.169,0.896-9.439,4.838  c-1.271,3.943,0.896,8.169,4.838,9.439l59.702,19.239v109.269l-55.102-17.757c-3.944-1.271-8.168,0.896-9.439,4.838  s0.896,8.169,4.838,9.439l59.702,19.239V504.5c0,4.143,3.358,7.5,7.5,7.5s7.5-3.357,7.5-7.5v-97.838l59.702-19.239  c3.942-1.271,6.109-5.497,4.838-9.439c-1.271-3.941-5.497-6.107-9.439-4.838L263.5,390.902V281.633L323.202,262.395z"/>
<g>
</g>
<g>
</g>
<g>
</g>
<g>
</g>
<g>
</g>
<g>
</g>
<g>
</g>
<g>
</g>
<g>
</g>
<g>
</g>
<g>
</g>
<g>
</g>
<g>
</g>
<g>
</g>
<g>
</g>
</svg>
