<?xml version="1.0" encoding="iso-8859-1"?>
<!-- Generator: Adobe Illustrator 19.0.0, SVG Export Plug-In . SVG Version: 6.00 Build 0)  -->
<svg xmlns="http://www.w3.org/2000/svg" xmlns:xlink="http://www.w3.org/1999/xlink" version="1.1" id="Capa_1" x="0px" y="0px" viewBox="0 0 512 512" style="enable-background:new 0 0 512 512;" xml:space="preserve">
<path style="fill:#A16B4E;" d="M303.934,256.802V113.597H47.758c-14.247,0-25.796,11.549-25.796,25.796v282.324H490.04v-52.954  c0-61.835-50.127-111.962-111.962-111.962h-74.144V256.802z"/>
<path style="fill:#7D4E3E;" d="M178.494,350.053H70.843v71.664h152.723v-26.592C223.566,370.232,203.387,350.053,178.494,350.053z"/>
<path style="fill:#A16B4E;" d="M251.731,37.172L251.731,37.172c28.831,0,52.203,23.372,52.203,52.203v167.427h-79.699  c-13.646,0-24.708-11.062-24.708-24.708V89.375C199.528,60.544,222.9,37.172,251.731,37.172z"/>
<path style="opacity:0.2;fill:#FFFFFF;enable-background:new    ;" d="M251.731,37.172L251.731,37.172  c28.831,0,52.203,23.372,52.203,52.203v167.427h-79.699c-13.646,0-24.708-11.062-24.708-24.708V89.375  C199.528,60.544,222.9,37.172,251.731,37.172z"/>
<path style="opacity:0.1;enable-background:new    ;" d="M251.731,37.172c-4.507,0-8.88,0.571-13.051,1.645  c22.515,5.795,39.152,26.234,39.152,50.558v167.427h26.102V89.375C303.935,60.544,280.563,37.172,251.731,37.172z"/>
<path style="fill:#FC8063;" d="M495.5,474.824h-479c-9.113,0-16.5-7.387-16.5-16.5v-20.107c0-9.113,7.387-16.5,16.5-16.5h479  c9.113,0,16.5,7.387,16.5,16.5v20.107C512,467.437,504.613,474.824,495.5,474.824z"/>
<g style="opacity:0.2;">
	<rect x="154.28" y="421.718" width="15" height="53.11"/>
	<rect x="195.03" y="421.718" width="15" height="53.11"/>
	<rect x="235.78" y="421.718" width="15" height="53.11"/>
	<rect x="276.54" y="421.718" width="15" height="53.11"/>
	<rect x="317.29" y="421.718" width="15" height="53.11"/>
</g>
<path style="fill:#FAD97E;" d="M21.961,318.453v103.264h103.264C125.225,364.686,78.993,318.453,21.961,318.453z"/>
<path style="opacity:0.1;enable-background:new    ;" d="M21.961,353.108v68.609H90.57C90.57,383.826,59.853,353.108,21.961,353.108  z"/>
<path style="fill:#FAD97E;" d="M75.356,146.987H19.721c-6.43,0-11.644-5.213-11.644-11.643v-31.307  c0-6.431,5.213-11.644,11.644-11.644h55.635c6.431,0,11.644,5.213,11.644,11.644v31.307C87,141.774,81.787,146.987,75.356,146.987z"/>
<path style="opacity:0.1;enable-background:new    ;" d="M75.356,146.987H19.721c-6.43,0-11.644-5.213-11.644-11.643v-31.307  c0-6.431,5.213-11.644,11.644-11.644h55.635c6.431,0,11.644,5.213,11.644,11.644v31.307C87,141.774,81.787,146.987,75.356,146.987z"/>
<path style="fill:#FAD97E;" d="M75.356,201.581H19.721c-6.43,0-11.644-5.213-11.644-11.644V158.63  c0-6.431,5.213-11.644,11.644-11.644h55.635c6.431,0,11.644,5.213,11.644,11.644v31.307C87,196.368,81.787,201.581,75.356,201.581z"/>
<g>
	<path style="fill:#4A5058;" d="M303.935,220.646H176.628c-4.143,0-7.5-3.357-7.5-7.5s3.357-7.5,7.5-7.5h127.307   c4.142,0,7.5,3.357,7.5,7.5S308.077,220.646,303.935,220.646z"/>
	<path style="fill:#4A5058;" d="M303.935,185.146H176.628c-4.143,0-7.5-3.357-7.5-7.5s3.357-7.5,7.5-7.5h127.307   c4.142,0,7.5,3.357,7.5,7.5S308.077,185.146,303.935,185.146z"/>
	<path style="fill:#4A5058;" d="M303.935,149.646H176.628c-4.143,0-7.5-3.358-7.5-7.5c0-4.143,3.357-7.5,7.5-7.5h127.307   c4.142,0,7.5,3.357,7.5,7.5C311.435,146.288,308.077,149.646,303.935,149.646z"/>
</g>
<path style="fill:#7D4E3E;" d="M378.077,256.802h-25.564c-30.625,10.855-48.579,40.8-48.579,81.287s0,83.629,0,83.629h186.105  v-52.954C490.039,306.929,439.912,256.802,378.077,256.802z"/>
<g>
	<path style="fill:#FAD97E;" d="M163.499,233.775c-11.375,0-20.629-9.254-20.629-20.629s9.254-20.629,20.629-20.629   s20.629,9.254,20.629,20.629S174.874,233.775,163.499,233.775z M163.499,207.518c-3.104,0-5.629,2.525-5.629,5.629   s2.525,5.629,5.629,5.629s5.629-2.525,5.629-5.629C169.128,210.043,166.602,207.518,163.499,207.518z"/>
	<path style="fill:#FAD97E;" d="M163.499,198.275c-11.375,0-20.629-9.254-20.629-20.629s9.254-20.629,20.629-20.629   s20.629,9.254,20.629,20.629S174.874,198.275,163.499,198.275z M163.499,172.018c-3.104,0-5.629,2.525-5.629,5.629   s2.525,5.629,5.629,5.629s5.629-2.525,5.629-5.629C169.128,174.543,166.602,172.018,163.499,172.018z"/>
	<path style="fill:#FAD97E;" d="M163.499,162.774c-11.375,0-20.629-9.254-20.629-20.629s9.254-20.629,20.629-20.629   s20.629,9.254,20.629,20.629S174.874,162.774,163.499,162.774z M163.499,136.517c-3.104,0-5.629,2.525-5.629,5.629   s2.525,5.629,5.629,5.629s5.629-2.525,5.629-5.629C169.128,139.042,166.602,136.517,163.499,136.517z"/>
</g>
<path style="opacity:0.1;enable-background:new    ;" d="M378.077,256.802h-33.434c61.835,0,111.962,50.127,111.962,111.962v52.954  h33.434v-52.954C490.039,306.929,439.912,256.802,378.077,256.802z"/>
<g>
</g>
<g>
</g>
<g>
</g>
<g>
</g>
<g>
</g>
<g>
</g>
<g>
</g>
<g>
</g>
<g>
</g>
<g>
</g>
<g>
</g>
<g>
</g>
<g>
</g>
<g>
</g>
<g>
</g>
</svg>
