<?xml version="1.0" encoding="iso-8859-1"?>
<!-- Generator: Adobe Illustrator 19.0.0, SVG Export Plug-In . SVG Version: 6.00 Build 0)  -->
<svg xmlns="http://www.w3.org/2000/svg" xmlns:xlink="http://www.w3.org/1999/xlink" version="1.1" id="Capa_1" x="0px" y="0px" viewBox="0 0 512 512" style="enable-background:new 0 0 512 512;" xml:space="preserve">
<path style="fill:#DBDCDD;" d="M103.963,511.409L103.963,511.409c-54.86-5.056-98.316-48.512-103.372-103.372l0,0  c-3.815-41.392,10.981-82.336,40.373-111.729l43.78-43.78c17.748-17.748,46.522-17.748,64.27,0l110.458,110.458  c17.748,17.748,17.748,46.522,0,64.27l-43.78,43.78C186.299,500.429,145.355,515.224,103.963,511.409z"/>
<path style="opacity:0.1;enable-background:new    ;" d="M259.472,362.986l-12.457-12.457c17.748,17.748,17.748,46.522,0,64.27  l-43.78,43.78c-29.393,29.393-70.337,44.188-111.729,40.373l0,0c-24.325-2.242-46.397-12.044-63.884-27.031  c18.814,21.953,45.805,36.674,76.34,39.488l0,0c41.392,3.815,82.337-10.981,111.729-40.373l43.78-43.78  C277.22,409.508,277.22,380.734,259.472,362.986z"/>
<path style="opacity:0.05;enable-background:new    ;" d="M107.25,485.406L107.25,485.406  c-42.805-3.945-76.711-37.851-80.656-80.656l0,0c-2.976-32.296,8.568-64.243,31.501-87.177l34.159-34.159  c13.848-13.848,36.299-13.848,50.147,0l86.185,86.185c13.848,13.848,13.848,36.299,0,50.147l-34.159,34.159  C171.493,476.839,139.546,488.383,107.25,485.406z"/>
<path style="fill:#DBDCDD;" d="M269.445,284.568l-42.013-42.013c-3.937-3.937-10.319-3.937-14.256,0l-62.857,62.857  c-3.937,3.937-3.937,10.319,0,14.256l42.013,42.013c3.937,3.937,10.319,3.937,14.256,0l62.857-62.857  C273.382,294.887,273.382,288.505,269.445,284.568z"/>
<path style="opacity:0.1;enable-background:new    ;" d="M269.445,284.568l-42.013-42.013c-3.937-3.937-10.319-3.937-14.256,0  l-62.857,62.857c-3.937,3.937-3.937,10.319,0,14.256l42.013,42.013c3.937,3.937,10.319,3.937,14.256,0l62.857-62.857  C273.382,294.887,273.382,288.505,269.445,284.568z"/>
<path style="opacity:0.1;enable-background:new    ;" d="M269.445,284.568l-13.029-13.029c3.937,3.937,3.937,10.319,0,14.256  l-62.857,62.857c-3.937,3.937-10.32,3.937-14.256,0l-28.985-28.985v0.001l42.013,42.013c3.937,3.937,10.319,3.937,14.256,0  l62.857-62.857C273.382,294.887,273.382,288.505,269.445,284.568z"/>
<rect x="282.194" y="123.62" transform="matrix(-0.7071 -0.7071 0.7071 -0.7071 377.6758 567.6359)" style="fill:#A16B4E;" width="48.41" height="163.958"/>
<polygon style="opacity:0.1;enable-background:new    ;" points="347.259,130.512 331.32,146.452 354.674,169.806 270.618,253.862   247.263,230.508 231.324,246.447 265.553,280.676 381.488,164.741 "/>
<path style="fill:#9BD3E0;" d="M498.77,68.242L443.758,13.23c-17.641-17.64-46.242-17.64-63.882,0l-20.071,20.071  c-17.641,17.641-17.641,46.242,0,63.882l0,0c2.487,2.487,2.487,6.518,0,9.005l-14.063,14.063c-2.414,2.414-2.414,6.328,0,8.743  l37.263,37.263c2.414,2.414,6.328,2.414,8.742,0l14.063-14.063c2.487-2.487,6.518-2.487,9.005,0l0,0  c17.641,17.641,46.242,17.641,63.883,0l20.071-20.071C516.41,114.483,516.41,85.882,498.77,68.242z M454.802,128.299  c-4.436,4.436-11.655,4.436-16.091,0l-55.01-55.01c-4.436-4.436-4.436-11.655,0-16.091l20.071-20.071  c4.436-4.436,11.654-4.436,16.091,0l55.01,55.01c4.436,4.436,4.436,11.655,0,16.091L454.802,128.299z"/>
<path style="opacity:0.1;enable-background:new    ;" d="M498.77,68.242l-9.683-9.683c17.64,17.641,17.639,46.241-0.001,63.881  l-20.071,20.071c-17.641,17.641-46.242,17.641-63.883,0l0,0c-2.487-2.487-6.519-2.487-9.005,0l-14.063,14.063  c-2.414,2.414-6.328,2.414-8.742,0l9.684,9.684c2.414,2.414,6.328,2.414,8.742,0l14.063-14.063c2.487-2.487,6.518-2.487,9.005,0  c17.641,17.641,46.242,17.641,63.883,0l20.071-20.071C516.41,114.483,516.41,85.882,498.77,68.242z"/>
<g>
	<path style="fill:#4A5058;" d="M90.07,349.482c-1.919,0-3.839-0.732-5.303-2.196c-2.93-2.929-2.93-7.678-0.001-10.607l6.817-6.818   c2.93-2.929,7.679-2.929,10.606,0c2.93,2.929,2.93,7.678,0.001,10.607l-6.817,6.818C93.909,348.75,91.989,349.482,90.07,349.482z"/>
	<path style="fill:#4A5058;" d="M113.326,398.674L113.326,398.674c-6.356-6.356-6.356-16.661,0-23.016l8.43-8.43   c1.696-1.696,4.445-1.696,6.141,0l16.875,16.875c1.696,1.696,1.696,4.445,0,6.141l-8.43,8.43   C129.987,405.029,119.682,405.029,113.326,398.674z"/>
	<path style="fill:#4A5058;" d="M170.018,429.43c-1.919,0-3.839-0.732-5.303-2.196c-2.93-2.929-2.93-7.678-0.001-10.607l6.817-6.818   c2.93-2.929,7.679-2.929,10.606,0c2.93,2.929,2.93,7.678,0.001,10.607l-6.817,6.818C173.856,428.697,171.937,429.43,170.018,429.43   z"/>
</g>
<g style="opacity:0.3;">
	
		<ellipse transform="matrix(0.7071 -0.7071 0.7071 0.7071 -230.5483 159.2098)" style="fill:#F15B70;" cx="76.909" cy="357.901" rx="10.137" ry="23.363"/>
	
		<ellipse transform="matrix(0.7071 -0.7071 0.7071 0.7071 -262.5169 236.3944)" style="fill:#F15B70;" cx="154.095" cy="435.083" rx="10.137" ry="23.363"/>
</g>
<g>
</g>
<g>
</g>
<g>
</g>
<g>
</g>
<g>
</g>
<g>
</g>
<g>
</g>
<g>
</g>
<g>
</g>
<g>
</g>
<g>
</g>
<g>
</g>
<g>
</g>
<g>
</g>
<g>
</g>
</svg>
