<?xml version="1.0" encoding="iso-8859-1"?>
<!-- Generator: Adobe Illustrator 19.0.0, SVG Export Plug-In . SVG Version: 6.00 Build 0)  -->
<svg xmlns="http://www.w3.org/2000/svg" xmlns:xlink="http://www.w3.org/1999/xlink" version="1.1" id="Capa_1" x="0px" y="0px" viewBox="0 0 512 512" style="enable-background:new 0 0 512 512;" xml:space="preserve">
<path style="fill:#FC8063;" d="M286.194,190.826L254.348,86.865c-4.789-15.635-19.225-26.31-35.576-26.31H89.192  c-20.549,0-37.208,16.659-37.208,37.208v296.078h424.831V245.039c0-29.941-24.272-54.212-54.212-54.212H286.194V190.826z"/>
<path style="opacity:0.1;enable-background:new    ;" d="M274.235,339.174h-82.527c-9.698,0-17.559-7.861-17.559-17.559v-41.056  c0-9.698,7.861-17.559,17.559-17.559h82.527c9.698,0,17.559,7.861,17.559,17.559v41.056  C291.794,331.312,283.932,339.174,274.235,339.174z"/>
<path style="opacity:0.1;enable-background:new    ;" d="M353.366,393.84V290.686c0-20.399,16.537-36.936,36.936-36.936h86.513  v140.09H353.366z"/>
<path style="fill:#DBDCDD;" d="M402.994,276.15h73.821v117.69H375.766v-90.462C375.766,288.341,387.957,276.15,402.994,276.15z"/>
<g style="opacity:0.1;">
	<rect x="375.77" y="310.687" width="101.05" height="15"/>
	<rect x="375.77" y="349.697" width="101.05" height="15"/>
</g>
<path style="fill:#9BD3E0;" d="M157.438,190.826h128.756L259.61,104.04H157.438c-10.555,0-19.111,8.556-19.111,19.111v48.564  C138.327,182.27,146.883,190.826,157.438,190.826z"/>
<path style="fill:#DBDCDD;" d="M406.196,83.262h-21.683c-4.831,0-8.747,3.916-8.747,8.747v98.817h39.178V92.009  C414.944,87.178,411.027,83.262,406.196,83.262z"/>
<rect x="375.77" y="173.737" style="opacity:0.1;enable-background:new    ;" width="39.18" height="17.09"/>
<path style="opacity:0.1;enable-background:new    ;" d="M254.348,86.865c-4.789-15.635-19.225-26.31-35.576-26.31H89.192  c-20.549,0-37.208,16.659-37.208,37.208v6.279H259.61L254.348,86.865z"/>
<g>
	<path style="fill:#FFFFFF;" d="M180.121,160.303c-1.919,0-3.839-0.732-5.303-2.197c-2.929-2.929-2.929-7.678,0-10.607   l15.159-15.159c2.929-2.929,7.678-2.929,10.606,0c2.929,2.929,2.929,7.678,0,10.606l-15.159,15.159   C183.96,159.57,182.04,160.303,180.121,160.303z"/>
	<path style="fill:#FFFFFF;" d="M206.63,171.503c-1.919,0-3.839-0.732-5.303-2.197c-2.929-2.929-2.929-7.678,0-10.606l33.332-33.332   c2.929-2.929,7.678-2.929,10.606,0c2.929,2.929,2.929,7.678,0,10.606l-33.331,33.332C210.469,170.77,208.55,171.503,206.63,171.503   z"/>
</g>
<path style="opacity:0.1;enable-background:new    ;" d="M218.772,60.554h-31.428c16.352,0,30.787,10.676,35.576,26.31  l31.846,103.962h31.428L254.348,86.865C249.559,71.23,235.123,60.554,218.772,60.554z M422.602,190.826h-31.428  c29.941,0,54.212,24.272,54.212,54.212v148.801h31.428v-148.8C476.815,215.098,452.543,190.826,422.602,190.826z"/>
<circle style="fill:#4A5058;" cx="121.52" cy="329.927" r="121.52"/>
<path style="opacity:0.1;enable-background:new    ;" d="M199.176,236.464c17.518,21.058,28.057,48.127,28.057,77.66  c0,67.111-54.405,121.516-121.516,121.516c-29.533,0-56.602-10.539-77.66-28.056c22.29,26.795,55.881,43.856,93.459,43.856  c67.112,0,121.516-54.405,121.516-121.516C243.032,292.345,225.971,258.754,199.176,236.464z"/>
<circle style="fill:#4A5058;" cx="454.4" cy="393.837" r="57.6"/>
<path style="opacity:0.1;enable-background:new    ;" d="M489.981,348.562c7.71,9.797,12.322,22.147,12.322,35.581  c0,31.811-25.788,57.6-57.6,57.6c-13.434,0-25.784-4.612-35.581-12.322c10.547,13.402,26.901,22.019,45.278,22.019  c31.811,0,57.6-25.788,57.6-57.6C512,375.463,503.383,359.108,489.981,348.562z"/>
<g>
	<circle style="fill:#DBDCDD;" cx="454.4" cy="393.837" r="21.18"/>
	<circle style="fill:#DBDCDD;" cx="121.52" cy="329.927" r="66.924"/>
</g>
<path style="opacity:0.1;enable-background:new    ;" d="M121.516,263c-36.961,0-66.924,29.963-66.924,66.924  c0,20.099,8.872,38.114,22.899,50.381c-10.292-11.769-16.542-27.162-16.542-44.025c0-36.961,29.963-66.924,66.924-66.924  c16.863,0,32.256,6.25,44.025,16.543C159.63,271.872,141.615,263,121.516,263z"/>
<g style="opacity:0.1;">
	<circle cx="104.51" cy="315.327" r="7.485"/>
	<circle cx="138.52" cy="315.327" r="7.485"/>
	<circle cx="104.51" cy="344.517" r="7.485"/>
	<circle cx="138.52" cy="344.517" r="7.485"/>
</g>
<g>
</g>
<g>
</g>
<g>
</g>
<g>
</g>
<g>
</g>
<g>
</g>
<g>
</g>
<g>
</g>
<g>
</g>
<g>
</g>
<g>
</g>
<g>
</g>
<g>
</g>
<g>
</g>
<g>
</g>
</svg>
