<?xml version="1.0" encoding="iso-8859-1"?>
<!-- Generator: Adobe Illustrator 19.0.0, SVG Export Plug-In . SVG Version: 6.00 Build 0)  -->
<svg xmlns="http://www.w3.org/2000/svg" xmlns:xlink="http://www.w3.org/1999/xlink" version="1.1" id="Capa_1" x="0px" y="0px" viewBox="0 0 512 512" style="enable-background:new 0 0 512 512;" xml:space="preserve">
<path style="fill:#E8E8E8;" d="M165.786,171.72H16.29v261.177c0,8.443,6.844,15.286,15.286,15.286h134.21L165.786,171.72  L165.786,171.72z"/>
<g style="opacity:0.1;">
	<rect x="16.29" y="227.168" width="149.5" height="15"/>
	<rect x="16.29" y="313.788" width="149.5" height="15"/>
</g>
<polygon style="opacity:0.1;enable-background:new    ;" points="16.29,171.72 16.29,193.988 133.816,193.988 133.816,448.184   165.786,448.184 165.786,171.72 "/>
<path style="fill:#E8E8E8;" d="M16.29,138.56c0-41.282,33.466-74.748,74.748-74.748s74.748,33.466,74.748,74.748H16.29z"/>
<path style="opacity:0.1;enable-background:new    ;" d="M91.038,63.812c-3.609,0-7.153,0.271-10.625,0.765  c36.248,5.16,64.123,36.31,64.123,73.983h21.249C165.786,97.278,132.321,63.812,91.038,63.812z"/>
<path style="fill:#A16B4E;" d="M173.247,171.72H8.829c-4.876,0-8.829-3.953-8.829-8.829V147.39c0-4.876,3.953-8.829,8.829-8.829  h164.418c4.876,0,8.829,3.953,8.829,8.829v15.501C182.077,167.767,178.124,171.72,173.247,171.72z"/>
<path style="opacity:0.1;enable-background:new    ;" d="M173.247,138.56H144.96c4.876,0,8.829,3.953,8.829,8.829v15.501  c0,4.876-3.953,8.829-8.829,8.829h28.288c4.876,0,8.829-3.953,8.829-8.829v-15.501C182.077,142.513,178.124,138.56,173.247,138.56z"/>
<path style="fill:#F15B70;" d="M459.191,448.184H165.786V260.941l154.345-101.1l154.345,101.1v171.956  C474.477,441.34,467.633,448.184,459.191,448.184z"/>
<path style="opacity:0.1;enable-background:new    ;" d="M320.132,159.841l-154.345,101.1v40.292l147.586-96.672  c4.105-2.689,9.413-2.689,13.518,0l120.111,78.675v164.948h12.189c8.442,0,15.286-6.844,15.286-15.286V260.941L320.132,159.841z"/>
<g>
	<path style="fill:#A16B4E;" d="M485.431,292.615l-158.54-103.847c-4.105-2.689-9.413-2.689-13.518,0l-158.54,103.848   c-4.2,2.751-9.834,1.576-12.585-2.623l-12.497-19.08c-2.751-4.199-1.576-9.834,2.623-12.585l176.528-115.63   c6.819-4.467,15.639-4.467,22.459,0l176.529,115.63c4.199,2.751,5.374,8.385,2.623,12.585l-12.497,19.08   C495.265,294.191,489.63,295.366,485.431,292.615z"/>
	<path style="fill:#A16B4E;" d="M387.642,448.184H252.621V377.67c0-6.772,5.49-12.261,12.261-12.261h110.499   c6.772,0,12.261,5.49,12.261,12.261L387.642,448.184L387.642,448.184z"/>
</g>
<rect x="235.78" y="274.908" style="fill:#FFFFFF;" width="33.681" height="47.78"/>
<path style="fill:#4A5058;" d="M269.461,330.187H235.78c-4.142,0-7.5-3.358-7.5-7.5v-47.78c0-4.142,3.358-7.5,7.5-7.5h33.681  c4.142,0,7.5,3.358,7.5,7.5v47.78C276.961,326.829,273.603,330.187,269.461,330.187z M243.28,315.187h18.681v-32.78H243.28V315.187z  "/>
<rect x="370.8" y="274.908" style="fill:#FFFFFF;" width="33.681" height="47.78"/>
<path style="fill:#4A5058;" d="M404.483,330.187h-33.681c-4.142,0-7.5-3.358-7.5-7.5v-47.78c0-4.142,3.358-7.5,7.5-7.5h33.681  c4.142,0,7.5,3.358,7.5,7.5v47.78C411.983,326.829,408.625,330.187,404.483,330.187z M378.302,315.187h18.681v-32.78h-18.681  V315.187z"/>
<g>
	<rect x="165.79" y="385.408" style="fill:#FAD97E;" width="86.83" height="15"/>
	<rect x="387.64" y="385.408" style="fill:#FAD97E;" width="86.83" height="15"/>
</g>
<rect x="312.63" y="365.408" style="opacity:0.1;enable-background:new    ;" width="15" height="82.78"/>
<g>
</g>
<g>
</g>
<g>
</g>
<g>
</g>
<g>
</g>
<g>
</g>
<g>
</g>
<g>
</g>
<g>
</g>
<g>
</g>
<g>
</g>
<g>
</g>
<g>
</g>
<g>
</g>
<g>
</g>
</svg>
