<?xml version="1.0" encoding="iso-8859-1"?>
<!-- Generator: Adobe Illustrator 19.0.0, SVG Export Plug-In . SVG Version: 6.00 Build 0)  -->
<svg xmlns="http://www.w3.org/2000/svg" xmlns:xlink="http://www.w3.org/1999/xlink" version="1.1" id="Capa_1" x="0px" y="0px" viewBox="0 0 512 512" style="enable-background:new 0 0 512 512;" xml:space="preserve">
<path style="fill:#A16B4E;" d="M259.063,164.389c-9.769,0-17.688-7.919-17.688-17.688c0-58.936,36.095-100.377,70.989-106.394  c9.636-1.665,18.777,4.799,20.437,14.426c1.659,9.626-4.8,18.776-14.425,20.436c-17.451,3.009-41.624,29.542-41.624,71.533  C276.751,156.469,268.832,164.389,259.063,164.389z"/>
<path style="opacity:0.1;enable-background:new    ;" d="M256,108.221L256,108.221c-3.084,0-6.147,0.123-9.189,0.343  c-3.453,11.614-5.436,24.392-5.436,38.137c0,9.769,7.919,17.688,17.688,17.688c9.769,0,17.688-7.919,17.688-17.688  c0-13.531,2.519-25.445,6.505-35.496C274.426,109.258,265.302,108.221,256,108.221z"/>
<path style="fill:#FC8063;" d="M128,143.855L128,143.855c-50.132,0-94.988,31.147-112.502,78.121l0,0  c-20.664,55.422-20.664,116.435,0,171.858l0,0c17.514,46.973,62.37,78.12,112.502,78.12l0,0c50.132,0,94.988-31.147,112.502-78.121  l0,0c20.664-55.422,20.664-116.435,0-171.858l0,0C222.988,175.003,178.132,143.855,128,143.855z"/>
<path style="opacity:0.05;enable-background:new    ;" d="M128,143.855L128,143.855c-50.132,0-94.988,31.147-112.502,78.121l0,0  c-20.664,55.422-20.664,116.435,0,171.858l0,0c17.514,46.973,62.37,78.12,112.502,78.12l0,0c50.132,0,94.988-31.147,112.502-78.121  l0,0c20.664-55.422,20.664-116.435,0-171.858l0,0C222.988,175.003,178.132,143.855,128,143.855z"/>
<path style="fill:#FC8063;" d="M384,143.855L384,143.855c50.132,0,94.988,31.147,112.502,78.121l0,0  c20.664,55.422,20.664,116.435,0,171.858l0,0c-17.514,46.973-62.369,78.121-112.502,78.121l0,0  c-50.132,0-94.987-31.147-112.502-78.121l0,0c-20.664-55.422-20.664-116.435,0-171.858l0,0  C289.012,175.003,333.868,143.855,384,143.855z"/>
<path style="opacity:0.05;enable-background:new    ;" d="M384,143.855L384,143.855c50.132,0,94.988,31.147,112.502,78.121l0,0  c20.664,55.422,20.664,116.435,0,171.858l0,0c-17.514,46.973-62.369,78.121-112.502,78.121l0,0  c-50.132,0-94.987-31.147-112.502-78.121l0,0c-20.664-55.422-20.664-116.435,0-171.858l0,0  C289.012,175.003,333.868,143.855,384,143.855z"/>
<path style="opacity:0.1;enable-background:new    ;" d="M393.361,201.391c-7.776-20.857-20.008-39.391-35.858-54.567  c-38.933,8.806-71.653,36.657-86.005,75.152l0,0c-20.664,55.422-20.664,116.435,0,171.858l0,0  c12.365,33.163,38.366,58.419,70.223,70.415c23.613-17.014,41.451-40.35,51.64-67.677  C416.825,333.639,416.825,264.323,393.361,201.391z"/>
<path style="opacity:0.1;enable-background:new    ;" d="M118.639,201.391c7.776-20.857,20.008-39.391,35.858-54.567  c38.933,8.806,71.653,36.657,86.006,75.152l0,0c20.664,55.422,20.664,116.435,0,171.858l0,0  c-12.365,33.163-38.367,58.419-70.223,70.415c-23.613-17.014-41.451-40.35-51.64-67.677  C95.175,333.639,95.175,264.323,118.639,201.391z"/>
<path style="fill:#FC8063;" d="M256,126.008L256,126.008c-52.859,0-100.155,32.842-118.621,82.37l0,0  c-21.788,58.437-21.788,122.769,0,181.206l0,0c18.467,49.528,65.762,82.37,118.621,82.37l0,0c52.859,0,100.154-32.842,118.621-82.37  l0,0c21.788-58.437,21.788-122.769,0-181.206l0,0C356.155,158.85,308.859,126.008,256,126.008z"/>
<g style="opacity:0.1;">
	<path d="M472.764,247.609c-3.042,0-5.903-1.864-7.028-4.882c-2.383-6.39-5.51-12.491-9.294-18.132   c-2.308-3.439-1.39-8.099,2.05-10.406c3.439-2.309,8.099-1.39,10.406,2.05c4.437,6.613,8.101,13.762,10.893,21.249   c1.447,3.881-0.526,8.2-4.407,9.648C474.52,247.456,473.634,247.609,472.764,247.609z"/>
	<path d="M443.692,207.146c-1.661,0-3.331-0.548-4.721-1.676c-9.941-8.065-21.752-13.938-34.157-16.985   c-4.022-0.988-6.482-5.05-5.495-9.073c0.988-4.023,5.051-6.481,9.073-5.495c14.539,3.572,28.381,10.455,40.029,19.904   c3.217,2.61,3.709,7.333,1.099,10.549C448.039,206.199,445.874,207.146,443.692,207.146z"/>
	<path d="M442.805,424.382c-2.213,0-4.405-0.976-5.886-2.846c-2.571-3.247-2.022-7.964,1.226-10.535   c12.484-9.881,22.024-22.993,27.59-37.919c1.447-3.881,5.766-5.854,9.647-4.407s5.854,5.767,4.407,9.647   c-6.522,17.493-17.704,32.86-32.335,44.44C446.078,423.853,444.435,424.382,442.805,424.382z"/>
	<path d="M78.008,433.162c-1.325,0-2.666-0.351-3.882-1.088c-14.803-8.978-27.223-21.616-35.916-36.548   c-2.084-3.58-0.872-8.171,2.708-10.255c3.578-2.084,8.17-0.872,10.255,2.708c7.438,12.774,18.064,23.587,30.732,31.27   c3.542,2.148,4.671,6.76,2.523,10.302C83.018,431.876,80.543,433.162,78.008,433.162z"/>
</g>
<g>
	<path style="fill:#4A5058;" d="M185.557,300.155c-4.142,0-7.5-3.358-7.5-7.5v-11.693c0-4.142,3.358-7.5,7.5-7.5s7.5,3.358,7.5,7.5   v11.693C193.057,296.797,189.699,300.155,185.557,300.155z"/>
	<path style="fill:#4A5058;" d="M326.443,300.155c-4.142,0-7.5-3.358-7.5-7.5v-11.693c0-4.142,3.358-7.5,7.5-7.5s7.5,3.358,7.5,7.5   v11.693C333.943,296.797,330.585,300.155,326.443,300.155z"/>
	<path style="fill:#4A5058;" d="M256,309.135c-9.285,0-18.115-4.021-24.226-11.034c-2.721-3.123-2.396-7.86,0.727-10.582   c3.122-2.721,7.859-2.397,10.581,0.727c3.261,3.742,7.969,5.888,12.918,5.888c4.948,0,9.656-2.146,12.917-5.888   c2.721-3.124,7.459-3.448,10.582-0.727c3.123,2.722,3.448,7.459,0.727,10.582C274.115,305.113,265.285,309.135,256,309.135z"/>
</g>
<g style="opacity:0.5;">
	<ellipse style="fill:#F15B70;" cx="185.56" cy="321.76" rx="30.15" ry="13.08"/>
	<ellipse style="fill:#F15B70;" cx="326.44" cy="321.76" rx="30.15" ry="13.08"/>
</g>
<g>
</g>
<g>
</g>
<g>
</g>
<g>
</g>
<g>
</g>
<g>
</g>
<g>
</g>
<g>
</g>
<g>
</g>
<g>
</g>
<g>
</g>
<g>
</g>
<g>
</g>
<g>
</g>
<g>
</g>
</svg>
