<?xml version="1.0" encoding="iso-8859-1"?>
<!-- Generator: Adobe Illustrator 19.0.0, SVG Export Plug-In . SVG Version: 6.00 Build 0)  -->
<svg xmlns="http://www.w3.org/2000/svg" xmlns:xlink="http://www.w3.org/1999/xlink" version="1.1" id="Capa_1" x="0px" y="0px" viewBox="0 0 512.001 512.001" style="enable-background:new 0 0 512.001 512.001;" xml:space="preserve">
<path style="fill:#A16B4E;" d="M450.48,410.125H196.315v77.05c0,13.711,11.115,24.826,24.825,24.826h204.514  c13.711,0,24.826-11.115,24.826-24.826V410.125z"/>
<path style="fill:#F15B70;" d="M368.781,0h-90.769c-73.857,0-133.73,59.873-133.73,133.73v76.13c0,7.067-8.545,10.607-13.542,5.609  l-28.814-28.814c-21.146-21.146-55.431-21.146-76.576,0l0,0c-21.146,21.146-21.146,55.43,0,76.576l132.006,132.006  c0,0,16.583,14.886,34.615,14.886h262.851c26.338,0,47.689-21.351,47.689-47.689V133.73C502.511,59.873,442.638,0,368.781,0z"/>
<g>
	<path style="fill:#FAD97E;" d="M461.838,189.997l8.61-8.61c2.929-2.929,2.929-7.678,0-10.606c-2.93-2.929-7.678-2.929-10.607,0   l-8.61,8.61l-8.61-8.61c-2.93-2.929-7.678-2.929-10.607,0s-2.929,7.678,0,10.606l8.61,8.61l-8.61,8.61   c-2.929,2.929-2.929,7.678,0,10.606c1.465,1.464,3.385,2.197,5.304,2.197c1.919,0,3.839-0.732,5.304-2.197l8.61-8.61l8.61,8.61   c1.465,1.464,3.385,2.197,5.304,2.197c1.919,0,3.839-0.732,5.304-2.197c2.929-2.929,2.929-7.678,0-10.606L461.838,189.997z"/>
	<path style="fill:#FAD97E;" d="M397.921,189.997l8.61-8.61c2.929-2.929,2.929-7.678,0-10.606c-2.93-2.929-7.678-2.929-10.607,0   l-8.61,8.61l-8.61-8.61c-2.93-2.929-7.678-2.929-10.607,0s-2.929,7.678,0,10.606l8.61,8.61l-8.61,8.61   c-2.929,2.929-2.929,7.678,0,10.606c1.465,1.464,3.385,2.197,5.304,2.197c1.919,0,3.839-0.732,5.304-2.197l8.61-8.61l8.61,8.61   c1.465,1.464,3.385,2.197,5.304,2.197c1.919,0,3.839-0.732,5.304-2.197c2.929-2.929,2.929-7.678,0-10.606L397.921,189.997z"/>
	<path style="fill:#FAD97E;" d="M334.004,189.997l8.61-8.61c2.929-2.929,2.929-7.678,0-10.606c-2.93-2.929-7.678-2.929-10.607,0   l-8.61,8.61l-8.61-8.61c-2.93-2.929-7.678-2.929-10.607,0s-2.929,7.678,0,10.606l8.61,8.61l-8.61,8.61   c-2.929,2.929-2.929,7.678,0,10.606c1.465,1.464,3.385,2.197,5.304,2.197c1.919,0,3.839-0.732,5.304-2.197l8.61-8.61l8.61,8.61   c1.465,1.464,3.385,2.197,5.304,2.197c1.919,0,3.839-0.732,5.304-2.197c2.929-2.929,2.929-7.678,0-10.606L334.004,189.997z"/>
	<path style="fill:#FAD97E;" d="M270.087,189.997l8.61-8.61c2.929-2.929,2.929-7.678,0-10.606c-2.93-2.929-7.678-2.929-10.607,0   l-8.61,8.61l-8.61-8.61c-2.93-2.929-7.678-2.929-10.607,0s-2.929,7.678,0,10.606l8.61,8.61l-8.61,8.61   c-2.929,2.929-2.929,7.678,0,10.606c1.465,1.464,3.385,2.197,5.304,2.197s3.839-0.732,5.304-2.197l8.61-8.61l8.61,8.61   c1.465,1.464,3.385,2.197,5.304,2.197c1.919,0,3.839-0.732,5.304-2.197c2.929-2.929,2.929-7.678,0-10.606L270.087,189.997z"/>
	<path style="fill:#FAD97E;" d="M206.17,189.997l8.61-8.61c2.929-2.929,2.929-7.678,0-10.606c-2.93-2.929-7.678-2.929-10.607,0   l-8.61,8.61l-8.61-8.61c-2.93-2.929-7.678-2.929-10.607,0s-2.929,7.678,0,10.606l8.61,8.61l-8.61,8.61   c-2.929,2.929-2.929,7.678,0,10.606c1.465,1.464,3.385,2.197,5.304,2.197s3.839-0.732,5.304-2.197l8.61-8.61l8.61,8.61   c1.465,1.464,3.385,2.197,5.304,2.197s3.839-0.732,5.304-2.197c2.929-2.929,2.929-7.678,0-10.606L206.17,189.997z"/>
	<path style="fill:#FAD97E;" d="M368.781,0h-90.768c-73.857,0-133.73,59.873-133.73,133.73v15.084h358.228V133.73   C502.511,59.873,442.638,0,368.781,0z"/>
	<rect x="315.901" y="410.12" style="fill:#FAD97E;" width="15" height="101.88"/>
	<rect x="250.501" y="410.12" style="fill:#FAD97E;" width="15" height="101.88"/>
	<rect x="381.291" y="410.12" style="fill:#FAD97E;" width="15" height="101.88"/>
</g>
<path style="opacity:0.1;enable-background:new    ;" d="M196.315,410.125v38.483h226.678v38.567  c0,13.711-11.115,24.825-24.826,24.825h27.487c13.711,0,24.826-11.115,24.826-24.825v-77.05H196.315z"/>
<path style="fill:#FAD97E;" d="M401.362,322.666c-15.286,15.286-39.857,17.225-53.163,17.021c-5.408-0.083-9.76-4.435-9.843-9.843  c-0.204-13.305,1.736-37.877,17.021-53.163c15.286-15.286,39.857-17.225,53.163-17.021c5.408,0.083,9.76,4.435,9.843,9.843  C418.587,282.809,416.648,307.38,401.362,322.666z"/>
<path style="opacity:0.1;enable-background:new    ;" d="M418.384,269.504c-0.077-5.003-3.809-9.095-8.65-9.746  c0.053,0.392,0.09,0.788,0.096,1.193c0.204,13.305-1.736,37.877-17.021,53.163c-15.286,15.286-39.857,17.225-53.163,17.021  c-0.405-0.006-0.801-0.044-1.193-0.096c0.651,4.841,4.743,8.573,9.746,8.65c13.305,0.204,37.877-1.736,53.163-17.021  C416.648,307.38,418.587,282.809,418.384,269.504z"/>
<path style="fill:#FAD97E;" d="M245.432,322.666c15.286,15.286,39.857,17.225,53.163,17.021c5.408-0.083,9.76-4.435,9.843-9.843  c0.204-13.305-1.735-37.877-17.021-53.163c-15.286-15.286-39.857-17.225-53.162-17.021c-5.408,0.083-9.76,4.435-9.843,9.843  C228.207,282.809,230.146,307.38,245.432,322.666z"/>
<path style="opacity:0.1;enable-background:new    ;" d="M228.411,269.504c0.077-5.003,3.809-9.095,8.65-9.746  c-0.053,0.392-0.09,0.788-0.096,1.193c-0.204,13.305,1.735,37.877,17.021,53.163c15.286,15.286,39.857,17.225,53.162,17.021  c0.405-0.006,0.801-0.044,1.193-0.096c-0.651,4.841-4.743,8.573-9.746,8.65c-13.305,0.204-37.877-1.736-53.163-17.021  S228.207,282.809,228.411,269.504z"/>
<path style="fill:#A16B4E;" d="M383.674,294.371c-2.93-2.929-7.678-2.929-10.607,0l-49.669,49.669l-49.67-49.669  c-2.93-2.929-7.678-2.929-10.607,0s-2.929,7.678,0,10.606l54.974,54.973c1.465,1.464,3.385,2.197,5.304,2.197  s3.839-0.732,5.304-2.197l54.973-54.973C386.603,302.049,386.603,297.3,383.674,294.371z"/>
<path style="fill:#FAD97E;" d="M101.927,186.656c-21.146-21.146-55.431-21.146-76.576,0l0,0c-21.146,21.146-21.146,55.43,0,76.576  l9.869,9.869l76.576-76.577L101.927,186.656z"/>
<path style="opacity:0.1;enable-background:new    ;" d="M368.781,0h-46.524c73.857,0,133.73,59.873,133.73,133.73v228.706  c0,26.338-21.351,47.689-47.689,47.689h46.524c26.338,0,47.688-21.351,47.688-47.689V133.73C502.511,59.873,442.638,0,368.781,0z"/>
<g style="opacity:0.1;">
	<circle cx="201.791" cy="100.84" r="7.419"/>
	<circle cx="53.221" cy="238.87" r="7.419"/>
	<circle cx="80.161" cy="273.1" r="7.419"/>
	<circle cx="458.651" cy="360.35" r="7.419"/>
	<circle cx="243.231" cy="42.42" r="7.419"/>
	<circle cx="250.651" cy="81.83" r="7.419"/>
</g>
<g>
</g>
<g>
</g>
<g>
</g>
<g>
</g>
<g>
</g>
<g>
</g>
<g>
</g>
<g>
</g>
<g>
</g>
<g>
</g>
<g>
</g>
<g>
</g>
<g>
</g>
<g>
</g>
<g>
</g>
</svg>
