<?xml version="1.0" encoding="iso-8859-1"?>
<!-- Generator: Adobe Illustrator 19.0.0, SVG Export Plug-In . SVG Version: 6.00 Build 0)  -->
<svg xmlns="http://www.w3.org/2000/svg" xmlns:xlink="http://www.w3.org/1999/xlink" version="1.1" id="Capa_1" x="0px" y="0px" viewBox="0 0 512 512" style="enable-background:new 0 0 512 512;" xml:space="preserve">
<path style="fill:#FAD97E;" d="M318.124,286.321h-124.25v158.642c0,10.275,8.329,18.604,18.604,18.604h87.044  c10.274,0,18.604-8.329,18.604-18.604V286.321H318.124z"/>
<path style="opacity:0.05;enable-background:new    ;" d="M193.874,286.321v59.724c3.175,0.525,6.556-0.276,9.218-2.536  l14.579-12.381c4.258-3.615,10.511-3.603,14.754,0.029l16.179,13.85c4.256,3.643,10.532,3.643,14.789,0l16.179-13.85  c4.243-3.632,10.496-3.645,14.754-0.029l0.84,0.713v113.122c0,10.274-8.329,18.604-18.604,18.604h22.958  c10.274,0,18.603-8.329,18.603-18.604V286.321H193.874z"/>
<path style="fill:#A16B4E;" d="M355.303,261.472l16.869,34.194c4.574,9.272-4.597,19.342-14.254,15.653l-9.612-3.672  c-4.746-1.813-10.118-0.258-13.161,3.81l-9.774,13.063c-3.927,5.249-11.467,6.098-16.464,1.855l-14.579-12.38  c-4.258-3.616-10.511-3.603-14.754,0.029l-16.179,13.85c-4.256,3.643-10.532,3.643-14.788,0l-16.179-13.85  c-4.243-3.632-10.497-3.645-14.754-0.029l-14.579,12.38c-4.997,4.243-12.537,3.394-16.464-1.855l-9.774-13.063  c-3.044-4.067-8.416-5.622-13.161-3.81l-9.612,3.672c-9.658,3.689-18.828-6.381-14.254-15.653l16.869-34.194H355.303z"/>
<path style="opacity:0.1;enable-background:new    ;" d="M372.172,295.666l-16.869-34.194H156.695l-16.869,34.194  c-1.321,2.677-1.49,5.418-0.839,7.878H373.01C373.662,301.084,373.492,298.343,372.172,295.666z"/>
<path style="fill:#F15B70;" d="M119.252,91.181l-87.304,60.497C-27.588,192.933,1.606,286.32,74.039,286.32h363.922  c72.433,0,101.627-93.387,42.091-134.642l-87.304-60.497C310.491,34.183,201.507,34.183,119.252,91.181z"/>
<path style="opacity:0.05;enable-background:new    ;" d="M480.051,151.678l-87.304-60.497  c-40.916-28.353-88.446-42.596-136.01-42.742c29.44,6.956,57.884,19.386,83.755,37.313l89.733,62.18  c61.193,42.403,31.187,138.388-43.262,138.388h50.997C510.393,286.321,539.587,192.934,480.051,151.678z"/>
<g>
	<path style="fill:#E8E8E8;" d="M480.053,151.68l-48.685-33.736l-38.621-26.762l-0.009-0.006c-1.566-1.085-3.144-2.145-4.73-3.186   c-0.159-0.105-0.32-0.208-0.48-0.312c-1.542-1.007-3.092-1.999-4.65-2.97c-0.001-0.001-0.002-0.001-0.003-0.002   c-4.968,10.917-7.758,23.035-7.758,35.812c0,47.818,38.765,86.583,86.583,86.583c17.683,0,34.112-5.32,47.812-14.424   C505.34,177.159,495.803,162.594,480.053,151.68z"/>
	<path style="fill:#E8E8E8;" d="M72.107,199.738c-28.062,0-52.983,13.365-68.799,34.064c8.721,28.805,34.231,52.519,70.73,52.519   h84.651C158.689,238.502,119.925,199.738,72.107,199.738z"/>
	<path style="fill:#E8E8E8;" d="M180.616,60.561c-21.46,7.094-42.142,17.3-61.365,30.62l-11.334,7.854   c3.476,20.426,21.249,35.98,42.664,35.98c23.909,0,43.292-19.382,43.292-43.291C193.874,79.482,188.784,68.436,180.616,60.561z"/>
	<path style="fill:#E8E8E8;" d="M387.421,231.129c-23.909,0-43.291,19.382-43.291,43.291c0,4.129,0.59,8.118,1.67,11.9h83.243   c1.079-3.782,1.67-7.771,1.67-11.9C430.712,250.512,411.33,231.129,387.421,231.129z"/>
</g>
<g>
	<path style="fill:#4A5058;" d="M181.618,184.494c-4.143,0-7.5-3.358-7.5-7.5v-12.687c0-4.142,3.357-7.5,7.5-7.5s7.5,3.358,7.5,7.5   v12.687C189.118,181.136,185.761,184.494,181.618,184.494z"/>
	<path style="fill:#4A5058;" d="M255.999,208.101L255.999,208.101c-11.826,0-21.414-9.587-21.414-21.414v-15.686   c0-3.156,2.558-5.714,5.714-5.714h31.4c3.156,0,5.714,2.558,5.714,5.714v15.686C277.413,198.514,267.826,208.101,255.999,208.101z"/>
	<path style="fill:#4A5058;" d="M330.38,184.494c-4.143,0-7.5-3.358-7.5-7.5v-12.687c0-4.142,3.357-7.5,7.5-7.5   c4.142,0,7.5,3.358,7.5,7.5v12.687C337.88,181.136,334.522,184.494,330.38,184.494z"/>
</g>
<g style="opacity:0.3;">
	<ellipse style="fill:#F15B70;" cx="184.189" cy="204.059" rx="30.74" ry="13.338"/>
	<ellipse style="fill:#F15B70;" cx="327.809" cy="204.059" rx="30.74" ry="13.338"/>
</g>
<g>
</g>
<g>
</g>
<g>
</g>
<g>
</g>
<g>
</g>
<g>
</g>
<g>
</g>
<g>
</g>
<g>
</g>
<g>
</g>
<g>
</g>
<g>
</g>
<g>
</g>
<g>
</g>
<g>
</g>
</svg>
