<?xml version="1.0" encoding="iso-8859-1"?>
<!-- Generator: Adobe Illustrator 19.0.0, SVG Export Plug-In . SVG Version: 6.00 Build 0)  -->
<svg version="1.1" id="Layer_1" xmlns="http://www.w3.org/2000/svg" xmlns:xlink="http://www.w3.org/1999/xlink" x="0px" y="0px"
	 viewBox="0 0 512.001 512.001" style="enable-background:new 0 0 512.001 512.001;" xml:space="preserve">
<path style="fill:#FBA026;" d="M278.923,27.993l49.321,151.796h159.608c23.348,0,33.056,29.877,14.167,43.601l-129.125,93.816
	l49.321,151.796c7.214,22.206-18.201,40.671-37.089,26.947l-129.126-93.815L126.875,495.95
	c-18.89,13.723-44.304-4.741-37.089-26.947l49.321-151.796L9.981,223.391c-18.89-13.724-9.181-43.601,14.167-43.601h159.608
	l49.321-151.796C240.294,5.788,271.707,5.788,278.923,27.993z"/>
<g>
	<circle style="fill:#F37934;" cx="256.008" cy="270.588" r="42.582"/>
	<path style="fill:#F37934;" d="M256.001,116.354c-8.738,6.271-14.837,20.412-14.837,36.863c0,16.452,6.098,30.592,14.837,36.863
		c8.738-6.271,14.837-20.412,14.837-36.863S264.74,122.626,256.001,116.354z"/>
	<path style="fill:#F37934;" d="M95.616,227.061c3.265,10.249,14.829,20.419,30.474,25.501c15.647,5.084,30.979,3.654,39.644-2.719
		c-3.265-10.249-14.827-20.419-30.474-25.501C119.613,219.258,104.281,220.688,95.616,227.061z"/>
	<path style="fill:#F37934;" d="M161.075,405.006c10.756,0.063,24.001-7.792,33.671-21.103c9.67-13.31,13.048-28.334,9.665-38.544
		c-10.756-0.063-24.001,7.792-33.671,21.103C161.07,379.772,157.691,394.796,161.075,405.006z"/>
	<path style="fill:#F37934;" d="M352.217,407.587c3.383-10.211,0.005-25.234-9.665-38.543c-9.67-13.31-22.914-21.164-33.671-21.103
		c-3.383,10.211-0.005,25.234,9.665,38.544C328.216,399.795,341.46,407.65,352.217,407.587z"/>
	<path style="fill:#F37934;" d="M419.375,225.77c-8.665-6.373-23.998-7.803-39.644-2.719c-15.647,5.084-27.21,15.253-30.474,25.501
		c8.665,6.373,23.998,7.803,39.644,2.719S416.11,236.018,419.375,225.77z"/>
</g>
<g>
</g>
<g>
</g>
<g>
</g>
<g>
</g>
<g>
</g>
<g>
</g>
<g>
</g>
<g>
</g>
<g>
</g>
<g>
</g>
<g>
</g>
<g>
</g>
<g>
</g>
<g>
</g>
<g>
</g>
</svg>
