<?xml version="1.0" encoding="iso-8859-1"?>
<!-- Generator: Adobe Illustrator 19.0.0, SVG Export Plug-In . SVG Version: 6.00 Build 0)  -->
<svg version="1.1" id="Layer_1" xmlns="http://www.w3.org/2000/svg" xmlns:xlink="http://www.w3.org/1999/xlink" x="0px" y="0px"
	 viewBox="0 0 512 512" style="enable-background:new 0 0 512 512;" xml:space="preserve">
<path style="fill:#F4A026;" d="M486.607,256c-19.276,67.519-52.659,117.506-92.931,154.409
	c-138.642,127.02-359.087,99.136-368.284,98.712c0,0,140.102-37.092,214.263-118.13c-54.366-11.928-99.784-57.157-102.845-60.266
	c-0.106-0.106-0.165-0.165-0.165-0.165c-30.215,48.079-98.889,67.308-98.889,67.308S51.44,370.02,62.12,328.065
	c2.379-9.291,4.592-19.276,6.488-29.815c6.335-32.488,6.041-63.104-2.379-96.687c-10.869-51.599-28.473-87.431-28.473-87.431
	s68.673,19.229,98.889,67.308c0,0,46.701-48.078,103.01-60.431C165.495,39.97,25.393,2.878,25.393,2.878
	c9.196-0.424,229.642-28.308,368.284,98.712C433.948,138.494,467.331,188.48,486.607,256z"/>
<path style="fill:#EB7830;" d="M486.607,256c-19.276,67.519-52.659,117.506-92.931,154.409
	c-46.183-35.644-75.927-91.553-75.927-154.409s29.744-118.766,75.927-154.409C433.948,138.494,467.331,188.48,486.607,256z"/>
<circle style="fill:#CA463D;" cx="401.232" cy="231.679" r="9.42"/>
<g>
	<path style="fill:#EB7830;" d="M136.81,330.726c-0.106-0.106-0.165-0.165-0.165-0.165c-30.215,48.079-98.889,67.308-98.889,67.308
		S51.44,370.02,62.12,328.065c26.918-12.706,62.715-35.079,74.349-67.826C136.245,261.64,130.652,296.424,136.81,330.726z"/>
	<path style="fill:#EB7830;" d="M274.84,236.838c-12.899,0-23.354-10.456-23.354-23.354c0-12.899,10.456-23.354,23.354-23.354
		L274.84,236.838L274.84,236.838z"/>
	<path style="fill:#EB7830;" d="M274.84,283.547c-12.899,0-23.354-10.456-23.354-23.354c0-12.899,10.456-23.354,23.354-23.354
		L274.84,283.547L274.84,283.547z"/>
	<path style="fill:#EB7830;" d="M274.84,330.255c-12.899,0-23.354-10.456-23.354-23.354c0-12.899,10.456-23.354,23.354-23.354
		L274.84,330.255L274.84,330.255z"/>
	<path style="fill:#EB7830;" d="M210.076,245.248c-8.253,0-14.945-6.691-14.945-14.945s6.691-14.945,14.945-14.945V245.248z"/>
	<path style="fill:#EB7830;" d="M210.076,275.137c-8.253,0-14.945-6.691-14.945-14.945c0-8.253,6.691-14.945,14.945-14.945V275.137z
		"/>
	<path style="fill:#EB7830;" d="M210.076,305.026c-8.253,0-14.945-6.691-14.945-14.945c0-8.253,6.691-14.945,14.945-14.945V305.026z
		"/>
</g>
<g>
</g>
<g>
</g>
<g>
</g>
<g>
</g>
<g>
</g>
<g>
</g>
<g>
</g>
<g>
</g>
<g>
</g>
<g>
</g>
<g>
</g>
<g>
</g>
<g>
</g>
<g>
</g>
<g>
</g>
</svg>
