<?xml version="1.0" encoding="iso-8859-1"?>
<!-- Generator: Adobe Illustrator 19.0.0, SVG Export Plug-In . SVG Version: 6.00 Build 0)  -->
<svg version="1.1" id="Layer_1" xmlns="http://www.w3.org/2000/svg" xmlns:xlink="http://www.w3.org/1999/xlink" x="0px" y="0px"
	 viewBox="0 0 512.002 512.002" style="enable-background:new 0 0 512.002 512.002;" xml:space="preserve">
<path style="fill:#4A8EB9;" d="M99.483,214.891l-41.57-25.43c-14.947-9.143-14.273-31.052,1.188-39.296
	c6.693-3.568,13.186-7.449,17.308-16.786c11.089-20.749-9.15-34.45,6.848-55.095c17.194-19.156,34.088-1.248,50.971-14.768
	c17.686-12.184,5.255-33.246,27.532-43.944c22.871-9.205,30.694,13.961,51.274,9.01C233.883,24.966,231.365,0.748,255.932,0
	c24.57,0.743,22.057,24.962,42.908,28.576c20.583,4.949,28.402-18.218,51.279-9.014c22.28,10.694,9.852,31.76,27.54,43.941
	c16.884,13.518,33.777-4.392,50.973,14.762c16.004,20.649-4.233,34.351,6.859,55.104c4.144,9.385,10.682,13.258,17.409,16.842
	c15.433,8.221,16.137,30.079,1.253,39.255l-40.382,24.893c-47.116,29.044-101.377,44.424-156.726,44.424h-1.704
	C200.337,258.782,146.403,243.594,99.483,214.891z"/>
<path style="fill:#3768AF;" d="M412.52,297.111l41.57,25.429c14.947,9.143,14.273,31.052-1.188,39.296
	c-6.693,3.568-13.186,7.449-17.308,16.786c-11.089,20.749,9.15,34.45-6.848,55.095c-17.194,19.156-34.088,1.248-50.971,14.768
	c-17.686,12.184-5.255,33.246-27.532,43.944c-22.871,9.205-30.694-13.961-51.274-9.01c-20.848,3.617-18.33,27.835-42.897,28.583
	c-24.57-0.743-22.057-24.962-42.908-28.576c-20.583-4.949-28.402,18.218-51.279,9.014c-22.281-10.694-9.852-31.759-27.54-43.941
	c-16.884-13.518-33.777,4.392-50.974-14.762c-16.004-20.649,4.233-34.351-6.859-55.104c-4.144-9.385-10.682-13.258-17.409-16.842
	c-15.433-8.221-16.137-30.079-1.253-39.255l40.381-24.893c47.116-29.044,101.377-38.862,156.726-38.862h1.704
	C311.664,258.782,365.599,268.408,412.52,297.111z"/>
<g>
	<path style="fill:#495577;" d="M76.511,350.821c-4.144-9.385-10.682-13.258-17.409-16.842c-2.971-1.583-5.391-3.674-7.264-6.082
		c-8.249,10.554-5.664,27.006,7.264,33.894c6.727,3.583,13.265,7.458,17.409,16.842c0.423,0.791,0.785,1.567,1.12,2.338
		C79.244,371.502,82.607,362.226,76.511,350.821z"/>
	<path style="fill:#495577;" d="M452.901,334.025c-6.692,3.568-13.186,7.449-17.308,16.786c-6.093,11.401-2.732,20.674-1.117,30.14
		c0.335-0.768,0.696-1.542,1.117-2.328c4.123-9.337,10.616-13.217,17.308-16.786c12.931-6.895,15.511-23.346,7.264-33.895
		C458.292,330.347,455.872,332.44,452.901,334.025z"/>
	<path style="fill:#495577;" d="M428.744,405.906c-17.194,19.156-34.088,1.248-50.971,14.768
		c-17.686,12.184-5.255,33.246-27.532,43.944c-22.871,9.205-30.694-13.961-51.274-9.01c-20.848,3.617-18.33,27.835-42.897,28.583
		c-24.569-0.743-22.057-24.962-42.907-28.576c-20.583-4.949-28.402,18.218-51.279,9.014c-22.281-10.694-9.852-31.759-27.54-43.941
		c-16.884-13.518-33.777,4.392-50.974-14.762c-1.733-2.236-3.019-4.386-3.988-6.477c-1.787,11.007-6.104,21.267,3.988,34.288
		c17.197,19.154,34.089,1.245,50.974,14.762c17.688,12.182,5.26,33.246,27.54,43.941c22.877,9.202,30.695-13.965,51.279-9.014
		c20.85,3.614,18.338,27.833,42.907,28.576c24.567-0.748,22.05-24.966,42.897-28.583c20.578-4.952,28.401,18.214,51.274,9.01
		c22.277-10.696,9.846-31.76,27.532-43.944c16.883-13.52,33.777,4.388,50.971-14.768c10.087-13.018,5.771-23.275,3.983-34.277
		C431.759,401.527,430.474,403.673,428.744,405.906z"/>
</g>
<g>
	<path style="fill:#61ACD2;" d="M435.491,161.181c4.144,9.385,10.682,13.258,17.409,16.842c2.971,1.583,5.391,3.674,7.264,6.082
		c8.249-10.554,5.664-27.006-7.264-33.894c-6.727-3.583-13.265-7.457-17.409-16.842c-0.423-0.791-0.785-1.567-1.12-2.338
		C432.758,140.5,429.395,149.776,435.491,161.181z"/>
	<path style="fill:#61ACD2;" d="M59.102,177.977c6.691-3.568,13.186-7.449,17.308-16.786c6.093-11.401,2.731-20.674,1.117-30.14
		c-0.335,0.768-0.696,1.542-1.117,2.328c-4.123,9.337-10.616,13.217-17.308,16.786c-12.932,6.895-15.511,23.346-7.264,33.896
		C53.71,181.655,56.129,179.562,59.102,177.977z"/>
	<path style="fill:#61ACD2;" d="M83.258,106.096c17.194-19.156,34.088-1.248,50.971-14.768
		c17.686-12.184,5.255-33.246,27.532-43.944c22.871-9.205,30.694,13.961,51.274,9.01c20.848-3.617,18.331-27.835,42.897-28.583
		c24.569,0.743,22.057,24.962,42.908,28.576c20.583,4.949,28.402-18.218,51.279-9.014c22.281,10.694,9.852,31.759,27.54,43.941
		c16.884,13.518,33.777-4.392,50.973,14.762c1.733,2.236,3.019,4.386,3.988,6.477c1.787-11.007,6.104-21.267-3.988-34.288
		c-17.197-19.154-34.089-1.245-50.973-14.762c-17.688-12.182-5.26-33.246-27.54-43.941c-22.877-9.202-30.695,13.965-51.279,9.014
		c-20.851-3.613-18.339-27.832-42.908-28.575c-24.567,0.748-22.049,24.966-42.897,28.583c-20.578,4.952-28.402-18.214-51.274-9.01
		c-22.277,10.696-9.846,31.76-27.532,43.944c-16.883,13.519-33.777-4.389-50.971,14.767c-10.087,13.017-5.771,23.275-3.983,34.277
		C80.243,110.475,81.528,108.329,83.258,106.096z"/>
	<path style="fill:#61ACD2;" d="M256.064,463.551c-7.262-7.643-18.286-16.172-34.808-19.356c-4.589-1.009-9.235-1.521-13.829-1.521
		c-10.328,0-18.949,2.518-25.781,5.407c-3.464-9.872-9.934-22.027-23.395-31.727c-11.204-8.605-23.967-13.019-38.901-13.451
		c1.414-10.743,1.463-25.53-6.822-41.812c-3.41-7.328-7.569-13.181-11.891-17.885l18.61-11.472
		c35.918-22.141,80.309-32.906,135.71-32.906h1.704c55.126,0,99.27,10.613,134.959,32.444l19.713,12.059
		c-4.271,4.677-8.381,10.488-11.76,17.751c-8.28,16.278-8.231,31.061-6.817,41.804c-14.933,0.435-27.693,4.85-38.894,13.456
		c-13.459,9.7-19.925,21.852-23.387,31.724c-6.832-2.887-15.448-5.401-25.77-5.401c-4.598,0-9.246,0.512-13.838,1.523
		C274.341,447.377,263.324,455.907,256.064,463.551z"/>
</g>
<path style="fill:#E0E0E0;" d="M255.34,218.733c-47.646,0-94.314-13.143-134.958-38.006l-19.713-12.059
	c4.27-4.677,8.381-10.489,11.759-17.749c8.282-16.28,8.232-31.061,6.817-41.805c14.935-0.434,27.694-4.849,38.896-13.456
	c13.458-9.701,19.924-21.851,23.386-31.723c6.831,2.887,15.447,5.401,25.769,5.401c4.598,0,9.247-0.512,13.839-1.523
	c16.522-3.186,27.539-11.718,34.8-19.36c7.262,7.642,18.285,16.171,34.805,19.355c4.59,1.009,9.237,1.521,13.831,1.521
	c10.329,0,18.95-2.518,25.783-5.407c3.464,9.871,9.934,22.026,23.392,31.724c11.205,8.606,23.967,13.021,38.903,13.453
	c-1.414,10.744-1.464,25.529,6.822,41.811c3.41,7.327,7.57,13.182,11.891,17.885l-18.609,11.471
	c-40.824,25.166-87.753,38.468-135.71,38.468h-1.703V218.733z"/>
<circle style="fill:#E46A53;" cx="254.89" cy="269.007" r="61.186"/>
<circle style="fill:#FFFFFF;" cx="227.033" cy="256.369" r="13.35"/>
<g>
</g>
<g>
</g>
<g>
</g>
<g>
</g>
<g>
</g>
<g>
</g>
<g>
</g>
<g>
</g>
<g>
</g>
<g>
</g>
<g>
</g>
<g>
</g>
<g>
</g>
<g>
</g>
<g>
</g>
</svg>
