<?xml version="1.0" encoding="iso-8859-1"?>
<!-- Generator: Adobe Illustrator 19.0.0, SVG Export Plug-In . SVG Version: 6.00 Build 0)  -->
<svg version="1.1" id="Layer_1" xmlns="http://www.w3.org/2000/svg" xmlns:xlink="http://www.w3.org/1999/xlink" x="0px" y="0px"
	 viewBox="0 0 512 512" style="enable-background:new 0 0 512 512;" xml:space="preserve">
<g>
	<path style="fill:#E46A53;" d="M286.404,457.273c-20.27,0-40.538,0-60.808,0c-28.605-1.357-51.851,21.317-51.686,51.686
		c0,1.013,0,2.027,0,3.04c53.06-19.102,111.121-19.102,164.181,0c0-1.013,0-2.027,0-3.04
		C338.254,478.591,315.01,455.916,286.404,457.273z"/>
	<path style="fill:#E46A53;" d="M270.999,350.252H241c-10.186,0-18.444,8.258-18.444,18.445v17.837
		c0,10.186,8.258,18.445,18.445,18.445H271c10.186,0,18.445-8.258,18.445-18.445v-17.837
		C289.444,358.509,281.187,350.252,270.999,350.252z"/>
	<path style="fill:#E46A53;" d="M445.784,153.195l-11.753-11.753c-6.253-6.253-16.393-6.253-22.645,0
		c0,0-44.023,44.407-44.764,45.845h-61.368v48.646h75.198c8.163,0,65.332-60.094,65.332-60.094
		C452.038,169.588,452.038,159.448,445.784,153.195z"/>
	<path style="fill:#E46A53;" d="M100.613,141.412c-6.253-6.253-16.393-6.253-22.645,0l-11.753,11.753
		c-6.253,6.253-6.253,16.393,0,22.645c0,0,57.169,60.094,65.332,60.094h75.198v-48.646h-61.368
		C144.637,185.818,100.613,141.412,100.613,141.412z"/>
	<path style="fill:#E46A53;" d="M245.055,158.1h-19.458V78.442c0-32.576-26.408-58.983-58.983-58.983h-20.164
		c-5.319,0-9.632-4.312-9.632-9.632V9.632c0-5.319,4.312-9.632,9.632-9.632h20.164c43.322,0,78.442,35.12,78.442,78.442V158.1z"/>
	<path style="fill:#E46A53;" d="M286.404,158.1h-19.458V78.442C266.945,35.12,302.065,0,345.387,0h20.164
		c5.319,0,9.632,4.312,9.632,9.632v0.195c0,5.319-4.312,9.632-9.632,9.632h-20.164c-32.576,0-58.983,26.408-58.983,58.983V158.1z"/>
	<path style="fill:#E46A53;" d="M397.786,316.269l-7.509-7.51c-13.535-13.535-31.891-21.139-51.032-21.139h-35.397v-19.458h35.395
		c24.476,0,47.487,9.531,64.793,26.838l7.51,7.509c3.762,3.762,3.762,9.861,0,13.622l-0.137,0.137
		C407.646,320.03,401.547,320.029,397.786,316.269z"/>
	<path style="fill:#E46A53;" d="M392.314,363.699l-7.509-7.51c-13.535-13.535-31.891-21.139-51.032-21.139h-35.397v-19.458h35.395
		c24.476,0,47.487,9.531,64.793,26.838l7.51,7.509c3.762,3.762,3.762,9.861,0,13.622l-0.137,0.137
		C402.173,367.46,396.074,367.459,392.314,363.699z"/>
	<path style="fill:#E46A53;" d="M100.593,316.269l-0.137-0.137c-3.762-3.762-3.762-9.861,0-13.622l7.51-7.509
		c17.306-17.307,40.315-26.838,64.792-26.838h35.395v19.458h-35.395c-19.28,0-37.403,7.507-51.033,21.139l-7.51,7.51
		C110.453,320.03,104.354,320.03,100.593,316.269z"/>
	<path style="fill:#E46A53;" d="M106.065,363.699l-0.137-0.137c-3.762-3.762-3.762-9.861,0-13.622l7.51-7.509
		c17.306-17.307,40.315-26.838,64.792-26.838h35.395v19.458H178.23c-19.28,0-37.403,7.507-51.033,21.139l-7.51,7.51
		C115.926,367.46,109.827,367.46,106.065,363.699z"/>
</g>
<g>
	<path style="fill:#CA463D;" d="M268.162,150.803h-24.323c-21.829,0-39.525,17.696-39.525,39.525v121.615
		c0,21.829,17.696,39.525,39.525,39.525h24.323c21.829,0,39.525-17.696,39.525-39.525V190.328
		C307.686,168.499,289.99,150.803,268.162,150.803z"/>
	<path style="fill:#CA463D;" d="M270.999,403.762H241c-10.186,0-18.444,8.258-18.444,18.445v17.837
		c0,10.187,8.258,18.445,18.445,18.445H271c10.186,0,18.445-8.258,18.445-18.445v-17.837
		C289.444,412.02,281.187,403.762,270.999,403.762z"/>
	<path style="fill:#CA463D;" d="M439.202,32.806v69.29h-69.29c0.652,37.05,30.868,66.888,68.074,66.888
		c37.613,0,68.105-30.491,68.105-68.105C506.091,63.674,476.251,33.456,439.202,32.806z"/>
	<path style="fill:#CA463D;" d="M72.798,31.62v69.29h69.29c-0.652,37.05-30.868,66.888-68.074,66.888
		c-37.613,0-68.105-30.491-68.105-68.105C5.909,62.488,35.749,32.272,72.798,31.62z"/>
</g>
<g>
</g>
<g>
</g>
<g>
</g>
<g>
</g>
<g>
</g>
<g>
</g>
<g>
</g>
<g>
</g>
<g>
</g>
<g>
</g>
<g>
</g>
<g>
</g>
<g>
</g>
<g>
</g>
<g>
</g>
</svg>
