<?xml version="1.0" encoding="iso-8859-1"?>
<!-- Generator: Adobe Illustrator 19.0.0, SVG Export Plug-In . SVG Version: 6.00 Build 0)  -->
<svg version="1.1" id="Layer_1" xmlns="http://www.w3.org/2000/svg" xmlns:xlink="http://www.w3.org/1999/xlink" x="0px" y="0px"
	 viewBox="0 0 512 512" style="enable-background:new 0 0 512 512;" xml:space="preserve">
<g>
	<path style="fill:#28324E;" d="M34.602,321.061l-26.145,2.702c0,0-5.515,13.106-0.848,22.506c4.666,9.4,4.295,11.633,15.458,13.121
		c11.164,1.488,72.192-0.745,72.936-23.072c0.744-22.327-14.141-20.095-29.77-18.234C50.604,319.945,34.602,321.061,34.602,321.061z
		"/>
	<path style="fill:#28324E;" d="M215.454,372.041l14.446,12.708c0,0,23.324-5.266,38.003-3.481
		c20.731,2.521,62.537-4.39,62.537-4.39s23.816-50.237,23.816-52.841c0-2.605-32.003-8.931-32.003-8.931L215.454,372.041z"/>
</g>
<path style="fill:#475577;" d="M344.053,327.22c3.471,17.958-6.369,35.871-23.427,42.47c-12.412,4.802-27.361,8.174-44.754,10.081
	c-14.602,1.596-27.519,9.121-35.411,20.631c-0.469,0.681-0.904,1.34-1.317,1.998c109.84,9.009,175.706-17.784,195.465-50.069
	c11.119-18.186,4.153-41.194,4.075-41.429c-0.022-0.067-0.045-0.134-0.067-0.19c-0.145-0.447-0.29-0.904-0.435-1.373
	c-6.073-19.503-16.991-65.241,0.96-99.312c3.952-7.513,9.031-14.022,15.216-19.503c4.923-4.354,10.539-8.06,16.824-11.097
	c1.496-0.726,3.048-1.34,4.622-1.898l14.524-5.236c21.736-8.328,22.64-20.854,21.256-29.841
	c-2.512-16.232-16.031-29.327-32.866-31.828c-52.023-7.77-142.494-5.493-182.549,90.504c-6.43,15.406-17.728,28.367-32.386,36.371
	c-55.071,30.086-160.746,46.095-160.746,46.095c-36.505,4.8-90.85,18.052-94.579,40.167c0.67,1.407,2.4,4.075,6.464,6.207
	c6.609,3.472,23.209,7.312,60.15-5.872c4.644-1.663,9.757,0.759,11.42,5.403c1.652,4.644-0.759,9.757-5.414,11.409
	c-19.179,6.855-35.657,10.282-49.31,10.282c-9.422,0-17.482-1.652-24.158-4.923c-2.344,2.97-5.347,7.569-6.776,12.247
	c-0.871,2.847-1.161,5.727-0.368,8.295c1.239,4.041,5.392,7.636,12.034,10.561c7.312,3.215,15.35,4.399,23.321,3.762l68.735-5.448
	c4.454-0.357,8.931-0.1,13.318,0.737c36.796,7.033,92.569,15.328,112.028,8.328c0.045-0.022,0.1-0.034,0.145-0.045
	c10.907-12.637,26.536-20.798,43.873-22.696c21.434-2.356,36.338-6.843,46.687-11.845c21.524-10.393,23.388-23.008,23.399-23.198
	L344.053,327.22z"/>
<circle style="fill:#28324E;" cx="421.43" cy="144.112" r="8.931"/>
<path style="fill:#D1D5D8;" d="M486.729,254.418c5.112-44.173-11.327-91.029-12.427-94.102c-0.162-0.395-0.345-0.794-0.56-1.16
	c-2.508-4.275-8.008-5.707-12.282-3.198c-4.248,2.493-5.685,7.936-3.242,12.199c0.743,1.125,27.677,42.175,28.503,86.336
	C486.721,254.492,486.725,254.466,486.729,254.418z"/>
<path style="fill:#28324E;" d="M454.358,190.446v0.078c-6.185,5.481-11.264,11.99-15.216,19.503
	c-17.951,34.072-7.033,79.809-0.96,99.312C379.885,213.153,454.358,190.446,454.358,190.446z"/>
<g>
</g>
<g>
</g>
<g>
</g>
<g>
</g>
<g>
</g>
<g>
</g>
<g>
</g>
<g>
</g>
<g>
</g>
<g>
</g>
<g>
</g>
<g>
</g>
<g>
</g>
<g>
</g>
<g>
</g>
</svg>
