<?xml version="1.0" encoding="iso-8859-1"?>
<!-- Generator: Adobe Illustrator 19.0.0, SVG Export Plug-In . SVG Version: 6.00 Build 0)  -->
<svg version="1.1" id="Layer_1" xmlns="http://www.w3.org/2000/svg" xmlns:xlink="http://www.w3.org/1999/xlink" x="0px" y="0px"
	 viewBox="0 0 512.003 512.003" style="enable-background:new 0 0 512.003 512.003;" xml:space="preserve">
<path style="fill:#61ACD2;" d="M341.593,87.392c-22.871-8.388-47.294-13.555-72.736-14.934c-3.464-0.197-6.952-0.313-10.462-0.359
	c-1.135-0.012-7.067,0-8.608,0.023c-28.559,0.591-55.948,5.932-81.402,15.27C72.197,122.682-5.658,215.462,3.574,323.489
	c0.1,1.167,0.598,3.471,0.95,4.588c0.827,2.623,2.317,4.437,3.684,5.851c13.474,14.042,39.682-22.025,66.92-22.025
	c1.274,0,2.503,0.046,3.673,0.127c26.358,1.807,27.574,23.044,56.284,23.044c29.973,0,29.973-23.172,59.957-23.172
	c29.973,0,29.973,23.172,59.957,23.172c29.973,0,29.973-23.172,59.957-23.172c0.892,0,1.749,0.023,2.584,0.058
	c27.412,1.298,28.281,23.114,57.362,23.114c29.984,0,29.984-23.172,59.957-23.172c1.471,0,2.943,0.104,4.403,0.301
	c23.102,3.105,44.988,29.046,58.416,24.411c3.059-1.054,6.181-3.497,7.774-8.539c0.352-1.117,0.85-3.421,0.95-4.588
	C515.629,215.461,437.779,122.682,341.593,87.392z"/>
<path style="fill:#3E81C8;" d="M501.953,376.61c-0.521,26.103-21.839,47.097-48.07,47.097c-49.819,0-49.819,16.22-99.639,16.22
	s-49.819-16.22-99.639-16.22s-49.819,16.22-99.639,16.22s-49.819-16.22-99.639-16.22c-26.532,0-48.047-21.492-48.081-48.023
	c13.162,16.939,39.983-20.913,67.882-20.913c29.973,0,29.973,23.172,59.957,23.172s29.984-23.172,59.957-23.172
	s29.973,23.172,59.957,23.172c29.973,0,29.973-23.172,59.957-23.172c29.973,0,29.973,23.172,59.945,23.172
	c29.984,0,29.984-23.172,59.957-23.172C462.225,354.771,488.536,391.162,501.953,376.61z"/>
<path style="fill:#3768AF;" d="M498.358,379.221c-7.191,17.491-24.386,29.811-44.475,29.811c-49.819,0-49.819,16.22-99.639,16.22
	s-49.819-16.22-99.639-16.22s-49.819,16.22-99.639,16.22s-49.819-16.22-99.639-16.22c-20.265,0-37.592-12.545-44.666-30.291
	c-1.221-0.701-2.362-1.702-3.416-3.056c0.035,26.532,21.55,48.024,48.081,48.024c49.819,0,49.819,16.22,99.639,16.22
	s49.819-16.22,99.639-16.22s49.819,16.22,99.639,16.22s49.819-16.22,99.639-16.22c26.23,0,47.548-20.994,48.07-47.097
	C500.842,377.815,499.639,378.666,498.358,379.221z"/>
<g>
	<path style="fill:#3E81C8;" d="M439.262,312.204c-1.46-0.197-2.931-0.301-4.403-0.301c-29.973,0-29.973,23.172-59.957,23.172
		c-29.081,0-29.95-21.816-57.362-23.114c-0.301-5.526-10.59-182.142-59.146-239.863c3.511,0.046,6.998,0.162,10.462,0.359
		C443.189,175.804,439.945,300.746,439.262,312.204z"/>
	<path style="fill:#3E81C8;" d="M254.443,72.075c-49.344,58.625-59.401,239.828-59.401,239.828
		c-29.984,0-29.984,23.172-59.957,23.172c-28.71,0-29.926-21.237-56.284-23.044c-0.695-12.536-3.047-137.003,170.985-239.909
		C251.327,72.098,252.891,72.075,254.443,72.075z"/>
</g>
<path style="fill:#E0E0E0;" d="M511.61,369.833l-0.964,4.588c-1.059,2.41-2.246,4.275-3.552,5.665
	c-13.619,14.552-40.329-21.839-68.109-21.839c-30.426,0-30.426,23.172-60.864,23.172c-30.426,0-30.426-23.172-60.851-23.172
	c-30.437,0-30.437,23.172-60.864,23.172c-30.437,0-30.437-23.172-60.864-23.172s-30.426,23.172-60.864,23.172
	s-30.437-23.172-60.864-23.172c-28.321,0-55.547,37.851-68.908,20.913c-1-1.263-1.929-2.827-2.763-4.739l-0.965-4.588
	c0,0-4.704-15.062,4.704-39.38c13.678,14.042,40.282-22.025,67.932-22.025c1.294,0,2.541,0.046,3.728,0.127
	c26.756,1.807,27.992,23.044,57.136,23.044c30.426,0,30.426-23.172,60.864-23.172c30.426,0,30.426,23.172,60.864,23.172
	c30.426,0,30.426-23.172,60.864-23.172c0.906,0,1.776,0.023,2.623,0.058c27.827,1.298,28.709,23.114,58.229,23.114
	c30.437,0,30.437-23.172,60.864-23.172c1.493,0,2.987,0.104,4.469,0.301c23.452,3.105,45.668,29.046,59.299,24.411
	C514.844,352.871,511.61,369.833,511.61,369.833z"/>
<g>
	<path style="fill:#BDBDBD;" d="M502.755,333.14c-13.631,4.634-35.848-21.306-59.299-24.411c-1.482-0.197-2.975-0.301-4.469-0.301
		c-30.426,0-30.426,23.172-60.864,23.172c-29.521,0-30.403-21.816-58.23-23.114c-0.847-0.035-1.717-0.058-2.623-0.058
		c-30.437,0-30.437,23.172-60.864,23.172c-30.437,0-30.437-23.172-60.864-23.172c-30.437,0-30.437,23.172-60.864,23.172
		c-29.144,0-30.379-21.237-57.136-23.044c-1.188-0.081-2.434-0.127-3.728-0.127c-27.651,0-54.254,36.067-67.932,22.025
		c-2.279,5.891-3.711,11.217-4.601,15.936c0,0,1.533,1.88,2.094,2.445c1.373,1.381,1.754,1.747,2.789,2.755
		c13.759,13.269,40.188-22.306,67.65-22.306c1.294,0,2.541,0.046,3.728,0.127c26.756,1.807,27.992,23.044,57.136,23.044
		c30.426,0,30.426-23.172,60.864-23.172c30.426,0,30.426,23.172,60.864,23.172c30.426,0,30.426-23.172,60.864-23.172
		c0.906,0,1.776,0.023,2.623,0.058c27.827,1.298,28.709,23.114,58.23,23.114c30.437,0,30.437-23.172,60.864-23.172
		c1.493,0,2.987,0.104,4.469,0.301c23.452,3.105,45.668,29.046,59.299,24.411c0,0,1.177-0.191,3.718-1.898
		c2.541-1.707,3.387-2.823,3.387-2.823C508.477,344.359,506.265,338.868,502.755,333.14z"/>
	<path style="fill:#BDBDBD;" d="M341.593,87.392c-9.616,15.166-44.745,26.393-86.605,26.393S178,102.558,168.384,87.392
		c4.403-1.61,8.852-3.117,13.37-4.484c23.16-7.044,47.757-10.833,73.234-10.833s50.074,3.789,73.234,10.833
		C332.741,84.275,337.19,85.781,341.593,87.392z"/>
</g>
<path style="fill:#E0E0E0;" d="M328.222,82.908c-16.116,9.014-42.903,14.911-73.234,14.911s-57.118-5.897-73.234-14.911
	c23.16-7.044,47.757-10.833,73.234-10.833S305.062,75.864,328.222,82.908z"/>
<g>
</g>
<g>
</g>
<g>
</g>
<g>
</g>
<g>
</g>
<g>
</g>
<g>
</g>
<g>
</g>
<g>
</g>
<g>
</g>
<g>
</g>
<g>
</g>
<g>
</g>
<g>
</g>
<g>
</g>
</svg>
