<svg height="512" viewBox="0 0 128 128" width="512" xmlns="http://www.w3.org/2000/svg"><g fill="#bc8871"><path d="m56.722 26.781a1.749 1.749 0 0 1 -1.75-1.75v-11.418a10.127 10.127 0 0 0 -10.116-10.113 1.75 1.75 0 0 1 0-3.5 13.631 13.631 0 0 1 13.616 13.613v11.418a1.75 1.75 0 0 1 -1.75 1.75z"/><path d="m71.278 26.781a1.749 1.749 0 0 1 -1.75-1.75v-11.418a13.631 13.631 0 0 1 13.616-13.613 1.75 1.75 0 0 1 0 3.5 10.127 10.127 0 0 0 -10.116 10.113v11.418a1.749 1.749 0 0 1 -1.75 1.75z"/><path d="m9.5 104.955a1.75 1.75 0 0 1 -.279-3.478l10.987-1.789 4.647-12.788a1.751 1.751 0 0 1 .913-.991l20.11-9.261a1.75 1.75 0 0 1 1.465 3.179l-19.443 8.957-4.751 13.064a1.748 1.748 0 0 1 -1.363 1.129l-12 1.954a1.707 1.707 0 0 1 -.286.024z"/><path d="m19 123.751a1.751 1.751 0 0 1 -.741-3.337l10.24-4.779v-8.885a1.751 1.751 0 0 1 .612-1.33l13.67-11.69a1.75 1.75 0 0 1 2.276 2.66l-13.057 11.166v9.194a1.751 1.751 0 0 1 -1.01 1.586l-11.25 5.25a1.753 1.753 0 0 1 -.74.165z"/><path d="m118.5 104.955a1.7 1.7 0 0 1 -.283-.024l-12-1.954a1.751 1.751 0 0 1 -1.364-1.129l-4.753-13.064-19.443-8.955a1.75 1.75 0 0 1 1.465-3.179l20.11 9.261a1.746 1.746 0 0 1 .912.991l4.65 12.786 10.987 1.789a1.75 1.75 0 0 1 -.279 3.478z"/><path d="m109 123.751a1.738 1.738 0 0 1 -.739-.165l-11.25-5.25a1.751 1.751 0 0 1 -1.011-1.586v-9.194l-13.994-11.967a1.75 1.75 0 1 1 2.275-2.66l14.607 12.491a1.751 1.751 0 0 1 .612 1.33v8.885l10.24 4.779a1.751 1.751 0 0 1 -.741 3.337z"/><path d="m52.632 48.5a1.737 1.737 0 0 1 -1.1-.393l-19.199-15.625a1.748 1.748 0 0 1 -.618-1.048l-2.115-11.834-12.143-8.213a1.75 1.75 0 0 1 1.961-2.9l12.75 8.625a1.744 1.744 0 0 1 .742 1.141l2.136 11.924 18.691 15.216a1.75 1.75 0 0 1 -1.105 3.107z"/><path d="m75.368 48.5a1.75 1.75 0 0 1 -1.1-3.107l18.686-15.215 2.136-11.924a1.744 1.744 0 0 1 .742-1.141l12.75-8.625a1.75 1.75 0 0 1 1.961 2.9l-12.138 8.212-2.12 11.836a1.748 1.748 0 0 1 -.618 1.048l-19.2 15.625a1.739 1.739 0 0 1 -1.099.391z"/></g><path d="m74.789 67.648-10.789 4.665-10.789-4.665a13.852 13.852 0 0 1 -8.355-12.715 13.853 13.853 0 0 1 13.853-13.852h10.582a13.852 13.852 0 0 1 13.852 13.852 13.853 13.853 0 0 1 -8.354 12.715z" fill="#6d4c41"/><path d="m68.618 41.081h-9.236a9.651 9.651 0 0 1 -9.651-9.651 9.651 9.651 0 0 1 4.392-8.092l9.877-6.419 9.877 6.419a9.651 9.651 0 0 1 4.392 8.092 9.651 9.651 0 0 1 -9.651 9.651z" fill="#ffe671"/><path d="m84.107 79.491-4.244-15.618a13.818 13.818 0 0 1 -5.074 3.775l-10.789 4.665-10.789-4.665a13.818 13.818 0 0 1 -5.074-3.775l-4.244 15.618a40.7 40.7 0 0 0 1.144 24.9 40.7 40.7 0 0 0 15.953 19.9l3.01 1.956 3.01-1.956a40.7 40.7 0 0 0 15.953-19.9 40.7 40.7 0 0 0 1.144-24.9z" fill="#ffe671"/><path d="m122.046 47.833h-40.877a13.792 13.792 0 0 1 -1.307 16.04l.406 1.495a34.891 34.891 0 0 0 44.424-10.068 4.2 4.2 0 0 0 -2.646-7.47z" fill="#c8ffff"/><path d="m5.954 47.833h40.877a13.788 13.788 0 0 0 1.307 16.04l-.406 1.495a34.891 34.891 0 0 1 -44.424-10.068 4.2 4.2 0 0 1 2.646-7.47z" fill="#c8ffff"/><path d="m64 92.682a51.8 51.8 0 0 0 21.479-4.441 40.674 40.674 0 0 0 -1.372-8.75l-.444-1.633a40.539 40.539 0 0 1 -19.663 4.824 40.546 40.546 0 0 1 -19.664-4.824l-.443 1.633a40.674 40.674 0 0 0 -1.372 8.75 51.8 51.8 0 0 0 21.479 4.441z" fill="#6d4c41"/><path d="m79.774 111.018a40.671 40.671 0 0 0 3.189-6.623 40.748 40.748 0 0 0 1.511-5.039 64.679 64.679 0 0 1 -40.948 0 40.748 40.748 0 0 0 1.511 5.039 40.671 40.671 0 0 0 3.189 6.623 75.6 75.6 0 0 0 31.548 0z" fill="#6d4c41"/></svg>