<svg height="512" viewBox="0 0 128 128" width="512" xmlns="http://www.w3.org/2000/svg"><g><path d="m54.861 106.992a1.752 1.752 0 0 1 -1.611-1.064l-10.584-24.81a1.75 1.75 0 1 1 3.22-1.373l10.584 24.81a1.751 1.751 0 0 1 -1.609 2.437z" fill="#ffe671"/><path d="m69.9 106.992a1.749 1.749 0 0 1 -1.61-1.064l-12.17-28.528a1.75 1.75 0 0 1 3.22-1.373l12.17 28.528a1.751 1.751 0 0 1 -1.609 2.437z" fill="#ffe671"/><path d="m1.75 105.241 63.3-84.1a15.487 15.487 0 0 1 12.379-6.171 15.489 15.489 0 0 1 15.489 15.489 53.525 53.525 0 0 1 -53.526 53.526h-1.856a21.256 21.256 0 0 1 -21.257 21.256z" fill="#70efef"/><path d="m78.809 46.489a1.751 1.751 0 0 0 -2.306.9 39.319 39.319 0 0 1 -35.981 23.485h-12.902l-2.635 3.5h15.537a42.817 42.817 0 0 0 39.184-25.574 1.749 1.749 0 0 0 -.897-2.311z" fill="#c8ffff"/><path d="m92.917 30.426v.033a53.827 53.827 0 0 1 -.959 10.072h9.132a5.034 5.034 0 0 0 5.034-5.035z" fill="#ffe671"/><path d="m81.63 31.631a1.753 1.753 0 0 1 -1.589-1.014.174.174 0 0 0 -.2-.094l-.283.082a1.751 1.751 0 0 1 -.963-3.366l.283-.081a3.656 3.656 0 0 1 4.343 1.986 1.751 1.751 0 0 1 -.852 2.324 1.733 1.733 0 0 1 -.739.163z" fill="#c8ffff"/><path d="m36.25 105.241h90v7.789h-90z" fill="#bc8871"/></g></svg>