<svg height="512" viewBox="0 0 128 128" width="512" xmlns="http://www.w3.org/2000/svg"><g><path d="m108.716 73.228-20.975-3.538a46.3 46.3 0 0 1 -34.1-25.74l-9.891-20.764-42 10.24v38.26h13.6a23.475 23.475 0 0 1 19.11 9.84l9.478 13.285h11.573a62.645 62.645 0 0 1 20.389 3.409l5.432 1.869a62.645 62.645 0 0 0 20.384 3.409 62.634 62.634 0 0 0 24.107-4.824l.432-.18v-4.527a21.032 21.032 0 0 0 -17.539-20.739z" fill="#bc8871"/><path d="m81.325 100.089-5.425-1.869a62.661 62.661 0 0 0 -20.386-3.409h-53.764v13.375a4 4 0 0 0 4 4h38.75a4 4 0 0 0 4-4v-4.686h6.855a62.64 62.64 0 0 1 21.129 3.671l3.758 1.346a62.649 62.649 0 0 0 21.129 3.671h.325a62.645 62.645 0 0 0 23.638-4.631l.916-.373v-8.69l-.427.178a62.646 62.646 0 0 1 -24.112 4.826 62.661 62.661 0 0 1 -20.386-3.409z" fill="#6d4c41"/><path d="m75.575 76.711a9.1 9.1 0 0 0 12.166-7.021 46.3 46.3 0 0 1 -34.1-25.74l-9.891-20.764-9.61 2.343 10.422 22.608.054.115a56.366 56.366 0 0 0 30.959 28.459z" fill="#6d4c41"/><g fill="#ffe671"><path d="m15.349 71.686h-13.599v23.125h42.187l-9.478-13.285a23.475 23.475 0 0 0 -19.11-9.84z"/><path d="m1.75 33.426 42-10.24-3.188-7.372-38.812 9.406z"/><path d="m43.939 32.935a1.749 1.749 0 0 1 -.825-3.293l6.562-3.5a1.75 1.75 0 1 1 1.648 3.087l-6.563 3.5a1.739 1.739 0 0 1 -.822.206z"/><path d="m48.328 41.866a1.75 1.75 0 0 1 -.825-3.294l6.562-3.5a1.75 1.75 0 0 1 1.648 3.088l-6.563 3.5a1.739 1.739 0 0 1 -.822.206z"/><path d="m53.059 52.16a1.75 1.75 0 0 1 -.825-3.294l6.562-3.5a1.75 1.75 0 0 1 1.648 3.088l-6.563 3.5a1.739 1.739 0 0 1 -.822.206z"/><path d="m60.054 61.255a1.75 1.75 0 0 1 -.825-3.294l6.562-3.5a1.75 1.75 0 0 1 1.648 3.088l-6.563 3.5a1.739 1.739 0 0 1 -.822.206z"/></g></g></svg>