<svg height="512" viewBox="0 0 128 128" width="512" xmlns="http://www.w3.org/2000/svg"><g><path d="m116.438 97.627a28.624 28.624 0 0 1 -57.247 0c0-11.706 4.024-21.771 14.089-26.206 3.528-1.555 10.432 1.585 14.535 1.585s11.006-3.14 14.534-1.585c10.065 4.436 14.089 14.5 14.089 26.206z" fill="#ef5350"/><path d="m106.438 99.377a1.75 1.75 0 0 1 -1.75-1.75c0-7.7-2.1-12.765-6.255-15.048a1.75 1.75 0 1 1 1.687-3.066c5.354 2.945 8.068 9.04 8.068 18.114a1.749 1.749 0 0 1 -1.75 1.75z" fill="#e53935"/><path d="m59.191 97.626c0-7.032 1.467-13.46 4.809-18.443a21.321 21.321 0 0 0 -9.28-7.762c-3.528-1.555-10.432 1.585-14.535 1.585s-11.006-3.14-14.534-1.585c-10.065 4.435-14.089 14.5-14.089 26.205a28.623 28.623 0 0 0 52.438 15.88 28.487 28.487 0 0 1 -4.809-15.88z" fill="#e53935"/><path d="m40.185 73.006a21.6 21.6 0 0 0 4.472-.679 75.491 75.491 0 0 1 40.143-58.679l3.7-1.936a83.636 83.636 0 0 0 -5.051 60.638 21.156 21.156 0 0 0 4.366.656 19.66 19.66 0 0 0 4.01-.578l-.416-1.328a75.675 75.675 0 0 1 8.025-62.642 4.4 4.4 0 0 0 -3.748-6.708h-4.327a4.394 4.394 0 0 0 -2.041.5l-8.23 4.31a83.47 83.47 0 0 0 -44.495 65.961 18.125 18.125 0 0 0 3.592.485z" fill="#6d4c41"/><path d="m47.908 37.96a83.219 83.219 0 0 1 5.252-7.8 25.686 25.686 0 0 0 -25.588-23.5h-15.072v5.616a25.687 25.687 0 0 0 25.682 25.684z" fill="#77bc4d"/><path d="m51.6 32.34-23.858-16.4a1.75 1.75 0 0 0 -1.982 2.885l23.872 16.41q.951-1.47 1.968-2.895z" fill="#479838"/></g></svg>