<svg height="512" viewBox="0 0 128 128" width="512" xmlns="http://www.w3.org/2000/svg"><g><path d="m80.625 78.209h-.025c.016-.353.027-.707.027-1.064a23.815 23.815 0 0 0 -44.161-12.376 15.689 15.689 0 0 0 -24.466 13.002c0 .167.02.328.025.493a11.374 11.374 0 0 0 1.1 22.7h67.5a11.375 11.375 0 0 0 0-22.75z" fill="#c8ffff"/><g fill="#70efef"><path d="m70.625 78.9a1.749 1.749 0 0 1 -1.75-1.75 12.076 12.076 0 0 0 -12.063-12.066 1.75 1.75 0 0 1 0-3.5 15.58 15.58 0 0 1 15.563 15.562 1.749 1.749 0 0 1 -1.75 1.754z"/><path d="m114.844 54.736c.005-.183.027-.363.027-.547a17.428 17.428 0 0 0 -27.179-14.445 26.456 26.456 0 0 0 -49.056 13.75c0 .4.013.79.03 1.182h-.03a12.628 12.628 0 0 0 -11.508 7.437c.187-.007.371-.028.559-.028a15.611 15.611 0 0 1 8.779 2.685 23.815 23.815 0 0 1 44.159 12.376c0 .357-.011.711-.027 1.064h.027a11.308 11.308 0 0 1 6.024 1.738h26.973a12.635 12.635 0 0 0 1.222-25.211z"/></g></g></svg>