<svg height="512" viewBox="0 0 128 128" width="512" xmlns="http://www.w3.org/2000/svg"><g><path d="m98 1.734-10.08 10.08a11.216 11.216 0 0 0 0 15.86l12.39 12.391a11.216 11.216 0 0 0 15.86 0l10.08-10.08zm12.885 33.044a3.742 3.742 0 0 1 -5.287 0l-12.392-12.391a3.742 3.742 0 0 1 0-5.286l4.794-4.793 17.678 17.677z" fill="#ffe671"/><path d="m36.319 91.923-.257-.258a4.373 4.373 0 0 1 0-6.186l54.831-54.831 6.443 6.443-54.831 54.832a4.375 4.375 0 0 1 -6.186 0z" fill="#bc8871"/><path d="m51.71 89.121-1.548-4.856-7.657 7.658a4.375 4.375 0 0 1 -6.186 0l-.257-.258a4.373 4.373 0 0 1 0-6.186l7.657-7.657-4.856-1.548a18.983 18.983 0 0 0 -19.188 4.664l-16.968 16.969a3.1 3.1 0 0 0 -.308 4.13 3 3 0 0 0 4.241.39l13.481-12.251a4.387 4.387 0 0 1 6.052.145 4.388 4.388 0 0 1 .048 6.155l-12.444 12.846a3 3 0 0 0 .06 4.173l.652.652a3 3 0 0 0 4.174.06l12.845-12.445a4.388 4.388 0 0 1 6.155.048 4.387 4.387 0 0 1 .144 6.053l-12.17 13.386a3.084 3.084 0 0 0 -.228 3.761 3 3 0 0 0 4.557.379l17.08-17.08a18.982 18.982 0 0 0 4.664-19.188z" fill="#edf1d3"/></g></svg>