<svg height="512" viewBox="0 0 128 128" width="512" xmlns="http://www.w3.org/2000/svg"><g><path d="m96.083 56.878h-64.166a5.558 5.558 0 0 1 -5.558-5.558 5.558 5.558 0 0 1 5.558-5.557h64.166a5.558 5.558 0 0 1 5.558 5.557 5.558 5.558 0 0 1 -5.558 5.558z" fill="#6d4c41"/><path d="m84.742 126.247h-41.484l-10.008-69.369h61.5z" fill="#ffe671"/><path d="m74.648 37.627c-5.33 0-5.33-4-10.661-4s-5.328 4-10.656 4-5.327-4-10.654-4c-4.787 0-5.284 3.221-9.2 3.876a16.991 16.991 0 0 0 -.228 2.658v5.6h61.5v-5.6a16.988 16.988 0 0 0 -.228-2.657c-3.921-.651-4.421-3.877-9.221-3.877-5.324 0-5.324 4-10.652 4z" fill="#bc8871"/><path d="m77.75 23.161h-27.5a16.989 16.989 0 0 0 -16.772 14.339c3.915-.655 4.412-3.876 9.2-3.876 5.327 0 5.327 4 10.654 4s5.328-4 10.656-4 5.331 4 10.661 4 5.328-4 10.656-4c4.8 0 5.291 3.226 9.218 3.877a16.989 16.989 0 0 0 -16.773-14.34z" fill="#c8ffff"/><path d="m66.528 23.161 1.385-13.411h16.829v-8h-24.046l-2.211 21.411z" fill="#70efef"/><path d="m91.252 81.125h-16.568a9 9 0 0 0 -9-8.937h-2.622a9 9 0 0 0 -9 8.937h-17.314l3.012 20.875h14.306a9 9 0 0 0 9 8.938h2.625a9 9 0 0 0 9-8.938h13.549z" fill="#ffae4d"/></g></svg>