<svg height="512" viewBox="0 0 128 128" width="512" xmlns="http://www.w3.org/2000/svg"><g><path d="m78.68 41.886a6.226 6.226 0 0 1 3.461 1.046v-18.222a4.824 4.824 0 0 1 9.648 0v-8.128a4.824 4.824 0 0 1 9.648 0v8.784a4.825 4.825 0 0 1 9.649 0v7.16a4.824 4.824 0 0 1 9.648 0v75.474h-38.593v-28.976l-3.333-2.664a17.011 17.011 0 0 1 -6.386-13.284v-14.932a6.258 6.258 0 0 1 6.258-6.258z" fill="#d0daad"/><path d="m1.75 107.995h49.625v8.247h-49.625z" fill="#6d4c41"/><path d="m49.32 41.886a6.226 6.226 0 0 0 -3.461 1.046v-18.222a4.824 4.824 0 0 0 -9.648 0v-8.128a4.825 4.825 0 0 0 -9.649 0v8.784a4.824 4.824 0 0 0 -9.648 0v7.16a4.824 4.824 0 0 0 -9.648 0v75.474h38.593v-28.976l3.333-2.664a17.011 17.011 0 0 0 6.386-13.284v-14.932a6.258 6.258 0 0 0 -6.258-6.258z" fill="#d0daad"/><g fill="#edf1d3"><path d="m16.914 53.056a1.75 1.75 0 0 1 -1.75-1.75v-11.774a1.75 1.75 0 1 1 3.5 0v11.774a1.75 1.75 0 0 1 -1.75 1.75z"/><path d="m26.562 48.5a1.751 1.751 0 0 1 -1.75-1.75v-14.378a1.75 1.75 0 0 1 3.5 0v14.373a1.75 1.75 0 0 1 -1.75 1.755z"/><path d="m36.211 43.666a1.75 1.75 0 0 1 -1.75-1.75v-10.2a1.75 1.75 0 1 1 3.5 0v10.2a1.75 1.75 0 0 1 -1.75 1.75z"/><path d="m45.859 61.627a1.751 1.751 0 0 1 -1.75-1.75v-10.941a1.75 1.75 0 0 1 3.5 0v10.941a1.75 1.75 0 0 1 -1.75 1.75z"/></g><g fill="#edf1d3"><path d="m111.086 53.056a1.75 1.75 0 0 0 1.75-1.75v-11.774a1.75 1.75 0 0 0 -3.5 0v11.774a1.75 1.75 0 0 0 1.75 1.75z"/><path d="m101.437 48.5a1.75 1.75 0 0 0 1.75-1.75v-14.378a1.75 1.75 0 0 0 -3.5 0v14.373a1.751 1.751 0 0 0 1.75 1.755z"/><path d="m91.789 43.666a1.75 1.75 0 0 0 1.75-1.75v-10.2a1.75 1.75 0 1 0 -3.5 0v10.2a1.75 1.75 0 0 0 1.75 1.75z"/><path d="m82.141 61.627a1.751 1.751 0 0 0 1.75-1.75v-10.941a1.75 1.75 0 1 0 -3.5 0v10.941a1.75 1.75 0 0 0 1.75 1.75z"/></g><path d="m76.625 107.995h49.625v8.247h-49.625z" fill="#6d4c41" transform="matrix(-1 0 0 -1 202.875 224.237)"/></g></svg>