<svg height="512" viewBox="0 0 128 128" width="512" xmlns="http://www.w3.org/2000/svg"><g><path d="m101.164 73.07h-74.328v-10.977a37.163 37.163 0 0 1 37.164-37.163 37.163 37.163 0 0 1 37.164 37.163z" fill="#ffe671"/><path d="m83.2 44.645a1.745 1.745 0 0 1 -1.238-.513 25.241 25.241 0 0 0 -17.962-7.452 1.75 1.75 0 0 1 0-3.5 28.721 28.721 0 0 1 20.436 8.477 1.751 1.751 0 0 1 -1.236 2.988z" fill="#ffae4d"/><path d="m126.25 93.062s-22.688 10.008-62.25 10.008-62.25-10.008-62.25-10.008l25.086-19.992h74.741z" fill="#ffe671"/><path d="m26.836 63.883h74.327v9.188h-74.327z" fill="#ef5350"/></g></svg>