<svg height="512" viewBox="0 0 128 128" width="512" xmlns="http://www.w3.org/2000/svg"><g><path d="m1.75 114.125h124.5v12.122h-124.5z" fill="#77bc4d"/><path d="m54.728 48.518-.738-.242a3.616 3.616 0 0 0 -4.265 1.646 8.47 8.47 0 0 1 -6.85 4.576v-19.886a3.62 3.62 0 0 0 -3.62-3.62h-.76a3.62 3.62 0 0 0 -3.62 3.62v36.413c-4.765-.188-7.208-4.238-8.344-7.1a3.6 3.6 0 0 0 -4.03-2.185l-.753.144a3.634 3.634 0 0 0 -2.682 4.947c2.227 5.557 7.13 12.054 15.809 12.2v35.1h8v-51.626a16.656 16.656 0 0 0 13.867-8.74 3.634 3.634 0 0 0 -2.014-5.247z" fill="#ffe671"/><path d="m65.113 50.381a41.5 41.5 0 0 0 2.137-13.376c0-15.467-7.891-28.005-17.625-28.005a11.563 11.563 0 0 0 -4.348.861c-2-4.846-6.232-8.2-11.152-8.2-6.835 0-12.375 6.456-12.375 14.42a16.652 16.652 0 0 0 .492 4c-6.076 2.746-10.492 11.058-10.492 20.887a30.622 30.622 0 0 0 1.361 9.132c-7 4.193-11.361 10.074-11.361 16.59 0 11.893 14.5 21.68 33.125 22.919v-10.582c-8.679-.143-13.582-6.64-15.809-12.2a3.634 3.634 0 0 1 2.682-4.947l.753-.144a3.6 3.6 0 0 1 4.03 2.185c1.136 2.863 3.579 6.913 8.344 7.1v-36.409a3.62 3.62 0 0 1 3.62-3.62h.76a3.62 3.62 0 0 1 3.62 3.62v19.888a8.47 8.47 0 0 0 6.85-4.576 3.616 3.616 0 0 1 4.265-1.646l.738.242a3.634 3.634 0 0 1 2.014 5.247 16.656 16.656 0 0 1 -13.867 8.74v27.1c18.625-1.237 33.125-11.024 33.125-22.917 0-6.37-4.161-12.137-10.887-16.309z" fill="#77bc4d"/><path d="m74.531 94.067h51.719v8.625h-51.719z" fill="#6d4c41"/><g fill="#bc8871"><path d="m82.172 102.692h6.469v11.433h-6.469z"/><path d="m112.141 102.692h6.469v11.433h-6.469z"/><path d="m87.172 74.757h26.437a5 5 0 0 1 5 5v14.31a0 0 0 0 1 0 0h-36.437a0 0 0 0 1 0 0v-14.31a5 5 0 0 1 5-5z"/></g></g></svg>