<svg height="512" viewBox="0 0 128 128" width="512" xmlns="http://www.w3.org/2000/svg"><g><path d="m57.972 84.018-36.6-33.012h85.25l-36.6 33.012a9 9 0 0 1 -12.05 0z" fill="#ffe671"/><path d="m92.626 63.633-22.6 20.385a9 9 0 0 1 -12.056 0l-22.6-20.385h-24.12l8.39 41.6a10 10 0 0 0 9.8 8.023h69.117a10 10 0 0 0 9.8-8.023l8.39-41.6z" fill="#bc8871"/><g fill="#6d4c41"><path d="m21.375 51.006h-16.625a3 3 0 0 0 -3 3v6.627a3 3 0 0 0 3 3h30.624z"/><path d="m106.625 51.006-14 12.627h30.625a3 3 0 0 0 3-3v-6.627a3 3 0 0 0 -3-3z"/></g><path d="m111.625 51.006h-10v-15.264c0-6.066-4.2-11-9.357-11h-56.536c-5.16 0-9.357 4.934-9.357 11v15.264h-10v-15.264c0-11.58 8.684-21 19.357-21h56.536c10.673 0 19.357 9.42 19.357 21z" fill="#edf1d3"/><path d="m51.5 14.742h25v10h-25z" fill="#77bc4d"/><g fill="#6d4c41"><path d="m27.25 75.385a1.749 1.749 0 0 0 -1.75-1.75h-11.88a1.713 1.713 0 0 0 -.346.035l.7 3.465h11.526a1.75 1.75 0 0 0 1.75-1.75z"/><path d="m28.87 86.259h11.88a1.75 1.75 0 0 0 0-3.5h-11.88a1.75 1.75 0 0 0 0 3.5z"/><path d="m58.25 94.258a1.75 1.75 0 0 0 -1.75-1.75h-11.88a1.75 1.75 0 1 0 0 3.5h11.88a1.75 1.75 0 0 0 1.75-1.75z"/><path d="m35.5 93.384a1.749 1.749 0 0 0 -1.75-1.75h-6.13a1.75 1.75 0 0 0 0 3.5h6.13a1.75 1.75 0 0 0 1.75-1.75z"/><path d="m41.314 101.634h-11.88a1.75 1.75 0 0 0 0 3.5h11.88a1.75 1.75 0 1 0 0-3.5z"/><path d="m114.38 73.635h-11.88a1.75 1.75 0 0 0 0 3.5h11.527l.7-3.465a1.721 1.721 0 0 0 -.347-.035z"/><path d="m87.25 86.258h11.88a1.75 1.75 0 0 0 0-3.5h-11.88a1.75 1.75 0 0 0 0 3.5z"/><path d="m83.38 92.508h-11.88a1.75 1.75 0 0 0 0 3.5h11.88a1.75 1.75 0 0 0 0-3.5z"/><path d="m69.94 101.633h-11.88a1.75 1.75 0 0 0 0 3.5h11.88a1.75 1.75 0 0 0 0-3.5z"/><path d="m100.38 91.633h-6.13a1.75 1.75 0 0 0 0 3.5h6.13a1.75 1.75 0 0 0 0-3.5z"/><path d="m98.566 101.633h-11.881a1.75 1.75 0 0 0 0 3.5h11.881a1.75 1.75 0 0 0 0-3.5z"/></g></g></svg>