<svg height="512" viewBox="0 0 128 128" width="512" xmlns="http://www.w3.org/2000/svg"><g><g fill="#77bc4d"><path d="m69.191 35.877h-10.382a6.857 6.857 0 0 1 -5.366-2.588 6.856 6.856 0 0 1 -.844-7.173l11.401-24.369 11.4 24.369a6.856 6.856 0 0 1 -.844 7.173 6.857 6.857 0 0 1 -5.365 2.588z"/><path d="m84.771 53.228-5.477-5.476a5.116 5.116 0 0 1 -1.465-4.2 5.114 5.114 0 0 1 3.338-4.229l18.869-6.841-6.836 18.873a5.112 5.112 0 0 1 -4.228 3.338 5.111 5.111 0 0 1 -4.201-1.465z"/><path d="m43.229 53.228 5.477-5.476a5.116 5.116 0 0 0 1.465-4.2 5.114 5.114 0 0 0 -3.338-4.229l-18.869-6.837 6.841 18.869a5.112 5.112 0 0 0 4.228 3.338 5.111 5.111 0 0 0 4.196-1.465z"/></g><path d="m90.153 42.369a1.748 1.748 0 0 0 -2.474 0l-21.929 21.931v-41.994a1.75 1.75 0 1 0 -3.5 0v41.994l-21.929-21.931a1.75 1.75 0 0 0 -2.474 2.475l24.4 24.4v8.941a1.75 1.75 0 0 0 3.5 0v-8.938l24.4-24.4a1.749 1.749 0 0 0 .006-2.478z" fill="#ffe671"/><path d="m91.75 78.188h-55.5a5.438 5.438 0 0 0 -5.438 5.437 5.438 5.438 0 0 0 5.438 5.438h55.5a5.438 5.438 0 0 0 5.437-5.438 5.437 5.437 0 0 0 -5.437-5.437z" fill="#bc8871"/><path d="m82.364 100.127c-4.593 0-4.593 8-9.187 8s-4.594-8-9.189-8-4.593 8-9.186 8-4.592-8-9.184-8c-2.884 0-3.957 3.153-5.493 5.5v9.616a11 11 0 0 0 11 11h25.75a11 11 0 0 0 11-11v-9.6c-1.544-2.343-2.617-5.516-5.511-5.516z" fill="#d0daad"/><path d="m40.125 89.063v16.564c1.536-2.347 2.609-5.5 5.493-5.5 4.592 0 4.592 8 9.184 8s4.593-8 9.186-8 4.595 8 9.189 8 4.594-8 9.187-8c2.894 0 3.967 3.169 5.511 5.519v-16.583z" fill="#edf1d3"/></g></svg>