<svg height="512" viewBox="0 0 128 128" width="512" xmlns="http://www.w3.org/2000/svg"><g><path d="m1.75 126.25h15a109.622 109.622 0 0 1 109.5-109.5v-15a124.5 124.5 0 0 0 -124.5 124.5z" fill="#ef5350"/><path d="m16.75 126.25h15a94.6 94.6 0 0 1 94.5-94.5v-15a109.622 109.622 0 0 0 -109.5 109.5z" fill="#ffae4d"/><path d="m61.75 126.25h15a49.555 49.555 0 0 1 49.5-49.5v-15a64.567 64.567 0 0 0 -64.5 64.5z" fill="#77bc4d"/><path d="m31.75 126.25h15a79.585 79.585 0 0 1 79.5-79.5v-15a94.6 94.6 0 0 0 -94.5 94.5z" fill="#ffe671"/><path d="m46.75 126.25h15a64.567 64.567 0 0 1 64.5-64.5v-15a79.585 79.585 0 0 0 -79.5 79.5z" fill="#70efef"/></g></svg>