<svg height="512" viewBox="0 0 128 128" width="512" xmlns="http://www.w3.org/2000/svg"><path d="m109.892 109.889a16.263 16.263 0 0 0 -9.734 3.233 23.8 23.8 0 0 0 -41.732-4.947 21.935 21.935 0 0 0 -13.211.763 12.117 12.117 0 0 0 -24.215.687c0 .182.019.359.027.538a16.3 16.3 0 0 0 -19.277 16.084h124.5a16.358 16.358 0 0 0 -16.358-16.358z" fill="#70efef"/><circle cx="104.625" cy="82.375" fill="#c8ffff" r="7.875"/><circle cx="55.658" cy="40.942" fill="#c8ffff" r="19.692" transform="matrix(.707 -.707 .707 .707 -12.649 51.348)"/><g fill="#70efef"><path d="m67.35 42.692a1.75 1.75 0 0 1 -1.75-1.75 9.953 9.953 0 0 0 -9.942-9.942 1.75 1.75 0 0 1 0-3.5 13.457 13.457 0 0 1 13.442 13.442 1.75 1.75 0 0 1 -1.75 1.75z"/><path d="m79.875 35a18.081 18.081 0 0 0 -5.233.775 19.594 19.594 0 0 1 -11.8 23.489 18.118 18.118 0 1 0 17.033-24.264z"/><circle cx="20.312" cy="73.188" r="10.687"/><circle cx="109.626" cy="10.374" r="8.626" transform="matrix(.384 -.923 .923 .384 57.986 107.63)"/></g><circle cx="22.374" cy="17.72" fill="#c8ffff" r="8.626" transform="matrix(.077 -.997 .997 .077 2.977 38.657)"/></svg>