<svg height="512" viewBox="0 0 128 128" width="512" xmlns="http://www.w3.org/2000/svg"><g><path d="m100.472 23.5h-55.627a6.47 6.47 0 0 1 -6.47-6.47 15.282 15.282 0 0 1 15.283-15.283h46.814z" fill="#70efef"/><path d="m76.75 46.5v-13.572h-25.5v13.572a14.289 14.289 0 0 1 -7.759 12.839 32 32 0 0 0 -17.741 28.655v32.253a6 6 0 0 0 6 6h64.5a6 6 0 0 0 6-6v-32.253a32 32 0 0 0 -17.741-28.655 14.289 14.289 0 0 1 -7.759-12.839z" fill="#edf1d3"/><path d="m45.156 23.5h37.688a0 0 0 0 1 0 0v5.428a4 4 0 0 1 -4 4h-29.688a4 4 0 0 1 -4-4v-5.428a0 0 0 0 1 0 0z" fill="#d0daad"/><path d="m100.472 1.747h9.028v11.378h-9.028z" fill="#6d4c41"/><path d="m99.945 44.011a19.608 19.608 0 0 1 -7.473-15.453v-5.058h8v5.058a11.648 11.648 0 0 0 4.439 9.181z" fill="#ffe671"/><path d="m80.048 68.288h-32.095a21.9 21.9 0 0 0 -12.2 19.7v28.254h56.5v-28.249a21.9 21.9 0 0 0 -12.205-19.705z" fill="#70efef"/><g fill="#c8ffff"><path d="m77.318 80.038h-26.636a1.75 1.75 0 0 1 0-3.5h26.636a1.75 1.75 0 0 1 0 3.5z"/><path d="m82.25 89.357h-36.5a1.75 1.75 0 0 1 0-3.5h36.5a1.75 1.75 0 0 1 0 3.5z"/><path d="m82.25 98.678h-36.5a1.75 1.75 0 0 1 0-3.5h36.5a1.75 1.75 0 0 1 0 3.5z"/><path d="m82.25 108h-36.5a1.75 1.75 0 0 1 0-3.5h36.5a1.75 1.75 0 0 1 0 3.5z"/></g></g></svg>