<?xml version="1.0" encoding="iso-8859-1"?>
<!-- Generator: Adobe Illustrator 19.0.0, SVG Export Plug-In . SVG Version: 6.00 Build 0)  -->
<svg version="1.1" id="Layer_1" xmlns="http://www.w3.org/2000/svg" xmlns:xlink="http://www.w3.org/1999/xlink" x="0px" y="0px"
	 viewBox="0 0 512.001 512.001" style="enable-background:new 0 0 512.001 512.001;" xml:space="preserve">
<g>
	<path style="fill:#EB7830;" d="M201.996,114.002c-17.909,16.891-56.586,53.203-63.209,59.399l-36.125-29.623
		c-12.195-9.995-5.123-29.776,10.652-29.776H201.996z"/>
	<path style="fill:#EB7830;" d="M409.344,143.778l-36.136,29.634c-6.623-6.207-45.179-42.497-63.001-59.41h88.485
		C414.468,114.002,421.539,133.783,409.344,143.778z"/>
</g>
<path style="fill:#F4A026;" d="M507.962,296.512c-43.821-41.03-202.948-190.304-207.031-194.158
	c-12.479-11.768-28.406-17.729-44.377-17.896c-0.184-0.002-0.948-0.002-1.146,0c-15.959,0.177-31.869,6.137-44.338,17.896
	c-4.083,3.853-163.21,153.128-207.031,194.158c-8.776,7.826-2.963,28.691,14.677,44.301c0.446,0.395,2.758,2.339,3.118,2.631
	c18.454,14.891,39.405,16.573,45.643,6.523c-6.704,9.793,3.443,28.366,23.943,38.956c0.354,0.183,2.496,1.23,2.82,1.384
	c20.568,9.757,40.835,6.66,45.039-4.193c-3.666,11.063,10.117,26.237,31.926,31.627c0.333,0.082,2.256,0.524,2.473,0.571
	c22.462,4.935,41.804-2.997,42.91-14.88c-1.633,11.803,15.358,23.831,38.177,24.111c0.134,0.002,2.338,0.002,2.472,0
	c22.82-0.281,39.811-12.309,38.177-24.111c1.106,11.884,20.448,19.815,42.91,14.88c0.216-0.047,2.14-0.489,2.473-0.571
	c21.808-5.391,35.592-20.564,31.926-31.627c4.204,10.853,24.47,13.95,45.039,4.193c0.324-0.153,2.466-1.201,2.82-1.384
	c20.5-10.59,30.647-29.163,23.944-38.956c6.239,10.051,27.189,8.368,45.643-6.523c0.361-0.291,2.672-2.237,3.119-2.631
	C510.926,325.203,516.739,304.339,507.962,296.512z"/>
<g>
	<path style="fill:#EB7830;" d="M214.886,306.598c-4.369,40.833-3.377,76.995,1.725,96.834c9.184-18.31,17.804-53.445,22.172-94.277
		c4.368-40.833,3.377-76.995-1.725-96.834C227.874,230.632,219.255,265.766,214.886,306.598z"/>
	<path style="fill:#EB7830;" d="M160.67,291.655c-13.967,38.617-21.616,73.975-21.386,94.459
		c13.28-15.596,30.02-47.667,43.988-86.284c13.967-38.617,21.617-73.975,21.386-94.459
		C191.378,220.968,174.639,253.039,160.67,291.655z"/>
	<path style="fill:#EB7830;" d="M109.077,262.507c-22.104,34.609-37.327,67.426-41.599,87.461
		c16.38-12.301,39.751-39.914,61.855-74.523c22.104-34.609,37.327-67.426,41.599-87.461
		C154.552,200.283,131.181,227.897,109.077,262.507z"/>
	<path style="fill:#EB7830;" d="M297.08,306.598c4.369,40.833,3.377,76.995-1.725,96.834c-9.184-18.31-17.804-53.445-22.172-94.277
		c-4.369-40.833-3.377-76.995,1.725-96.834C284.091,230.632,292.711,265.766,297.08,306.598z"/>
	<path style="fill:#EB7830;" d="M351.294,291.655c13.967,38.617,21.616,73.975,21.386,94.459
		c-13.28-15.596-30.02-47.667-43.988-86.284s-21.617-73.975-21.386-94.459C320.586,220.968,337.327,253.039,351.294,291.655z"/>
	<path style="fill:#EB7830;" d="M402.888,262.507c22.104,34.609,37.327,67.426,41.599,87.461
		c-16.38-12.301-39.751-39.914-61.855-74.523c-22.104-34.609-37.327-67.426-41.599-87.461
		C357.414,200.283,380.785,227.897,402.888,262.507z"/>
</g>
<g>
</g>
<g>
</g>
<g>
</g>
<g>
</g>
<g>
</g>
<g>
</g>
<g>
</g>
<g>
</g>
<g>
</g>
<g>
</g>
<g>
</g>
<g>
</g>
<g>
</g>
<g>
</g>
<g>
</g>
</svg>
