<?xml version="1.0" encoding="iso-8859-1"?>
<!-- Generator: Adobe Illustrator 19.0.0, SVG Export Plug-In . SVG Version: 6.00 Build 0)  -->
<svg version="1.1" id="Layer_1" xmlns="http://www.w3.org/2000/svg" xmlns:xlink="http://www.w3.org/1999/xlink" x="0px" y="0px"
	 viewBox="0 0 512 512" style="enable-background:new 0 0 512 512;" xml:space="preserve">
<g>
	<path style="fill:#3B804B;" d="M292.543,373.371c9.259,44.516,36.566,69.918,36.566,69.918
		c39.766-38.623,94.773-101.644,105.924-114.51c-23.598,22.163-51.171,40.77-80.942,47.006c-6.922,1.435-13.958,2.223-21.096,2.223
		C319.088,378.007,305.562,376.381,292.543,373.371z"/>
	<path style="fill:#3B804B;" d="M164.361,185.228c7.265-7.493,14.276-14.847,20.778-19.191
		c33.111-22.049,85.883-31.498,145.31-31.498c43.398,0,83.266,17.972,114.497,38.344c0.635,0.419,2.578,1.702,2.921,1.918
		l-56.518-106.09C391.349,68.711,178.624,86.441,164.361,185.228z"/>
</g>
<path style="fill:#6ABE71;" d="M105.132,265.331c15.047-7.999,23.565-7.839,38.824-2.634c11.247,3.828,30.415,36.202,38.345,45.929
	c5.649,6.921,11.929,13.594,18.758,19.872c9.595,8.849,20.292,16.962,31.866,24.015c28.17,17.146,61.636,28.038,97.525,28.038
	c7.144,0,14.183-0.786,21.105-2.229C441.884,359.405,512,226.592,512,226.592s-26.138-30.817-67.049-57.519
	c-31.238-20.371-71.099-38.341-114.501-38.341c-59.433,0-112.194,9.451-145.306,31.499c-18.915,12.611-42.046,50.797-63.457,43.175
	C78.275,189.953,52.238,111.208,0,98.837c36.096,75.239,36.096,177.125,0,252.352C40.808,346.807,61.764,288.384,105.132,265.331z"
	/>
<g>
	<path style="fill:#3B804B;" d="M281.617,259.524c-13.521,19.239-15.734,39.332-9.719,66.555
		c26.151,8.978,70.301-11.015,111.783-38.142L281.617,259.524z"/>
	<circle style="fill:#3B804B;" cx="439.815" cy="229.528" r="10.161"/>
</g>
<g>
</g>
<g>
</g>
<g>
</g>
<g>
</g>
<g>
</g>
<g>
</g>
<g>
</g>
<g>
</g>
<g>
</g>
<g>
</g>
<g>
</g>
<g>
</g>
<g>
</g>
<g>
</g>
<g>
</g>
</svg>
