<?xml version="1.0" encoding="iso-8859-1"?>
<!-- Generator: Adobe Illustrator 19.0.0, SVG Export Plug-In . SVG Version: 6.00 Build 0)  -->
<svg version="1.1" id="Layer_1" xmlns="http://www.w3.org/2000/svg" xmlns:xlink="http://www.w3.org/1999/xlink" x="0px" y="0px"
	 viewBox="0 0 512 512" style="enable-background:new 0 0 512 512;" xml:space="preserve">
<g>
	<rect x="195.839" y="142.915" style="fill:#EB806E;" width="19.249" height="60.155"/>
	<rect x="295.696" y="142.915" style="fill:#EB806E;" width="19.249" height="60.155"/>
	<path style="fill:#EB806E;" d="M370.131,482.183h-0.193c-5.262,0-9.529-4.266-9.529-9.529v-6.313
		c0-17.829-14.454-32.283-32.283-32.283h-44.715v-19.249h44.715c28.46,0,51.532,23.072,51.532,51.532v6.313
		C379.66,477.916,375.395,482.183,370.131,482.183z"/>
	<path style="fill:#EB806E;" d="M418.255,454.512h-0.193c-5.262,0-9.529-4.266-9.529-9.529v-27.968
		c0-17.829-14.454-32.283-32.283-32.283h-57.949v-19.249h57.949c28.46,0,51.532,23.072,51.532,51.532v27.968
		C427.784,450.245,423.519,454.512,418.255,454.512z"/>
	<path style="fill:#EB806E;" d="M461.566,408.794h-0.193c-5.262,0-9.529-4.266-9.529-9.529v-36.389
		c0-17.83-14.454-32.283-32.283-32.283h-65.168v-19.249h65.168c28.46,0,51.532,23.072,51.532,51.532v36.39
		C471.095,404.528,466.83,408.794,461.566,408.794z"/>
	<path style="fill:#EB806E;" d="M502.471,370.295h-0.192c-5.262,0-9.529-4.266-9.529-9.529v-53.232
		c0-17.83-14.454-32.283-32.283-32.283H395.3v-19.249h65.168c28.46,0,51.532,23.072,51.532,51.532v53.233
		C512,366.029,507.735,370.295,502.471,370.295z"/>
	<path style="fill:#EB806E;" d="M140.599,482.183h-0.192c-5.262,0-9.529-4.266-9.529-9.529v-6.313
		c0-28.46,23.072-51.532,51.532-51.532h44.715v19.249H182.41c-17.829,0-32.283,14.454-32.283,32.283v6.313
		C150.128,477.916,145.862,482.183,140.599,482.183z"/>
	<path style="fill:#EB806E;" d="M92.476,454.512h-0.193c-5.262,0-9.528-4.266-9.528-9.529v-27.967
		c0-28.46,23.072-51.532,51.532-51.532h57.949v19.249h-57.949c-17.83,0-32.283,14.454-32.283,32.283v27.968
		C102.004,450.245,97.738,454.512,92.476,454.512z"/>
	<path style="fill:#EB806E;" d="M49.164,408.794h-0.192c-5.262,0-9.528-4.266-9.528-9.529v-36.389
		c0-28.46,23.072-51.532,51.532-51.532h65.168v19.249H90.975c-17.83,0-32.283,14.454-32.283,32.283v36.39
		C58.693,404.528,54.427,408.794,49.164,408.794z"/>
	<path style="fill:#EB806E;" d="M9.721,370.295H9.528c-5.262,0-9.528-4.266-9.528-9.529v-53.232
		c0-28.46,23.072-51.532,51.532-51.532H116.7v19.249H51.532c-17.829-0.001-32.283,14.453-32.283,32.281v53.233
		C19.249,366.029,14.983,370.295,9.721,370.295z"/>
</g>
<g>
	<path style="fill:#D14841;" d="M473.73,50.297c-23.954-23.966-59.373-27.394-79.115-7.652c-0.277,0.277-0.541,0.577-0.818,0.866
		l48.461,48.473h-57.953c3.116,10.575,9.144,20.946,17.974,29.777c7.026,7.026,15.039,12.284,23.364,15.712
		c-0.012,5.522-0.674,13.775-3.621,22.281c-6.148,17.794-19.767,29.211-41.639,34.938c-1.648,0.433-3.224,0.999-4.728,1.684h-0.012
		c-2.298-0.349-4.68-0.529-7.134-0.529H142.29c-2.454,0-4.836,0.18-7.134,0.529c-1.504-0.686-3.092-1.251-4.74-1.684
		c-21.872-5.727-35.491-17.144-41.651-34.938c-2.936-8.506-3.597-16.747-3.609-22.281c8.325-3.429,16.338-8.686,23.364-15.712
		c8.831-8.831,14.858-19.201,17.974-29.777H68.54l48.461-48.473c-0.277-0.289-0.541-0.59-0.818-0.866
		C96.44,22.902,61.021,26.331,37.055,50.297c-23.268,23.28-27.166,57.363-9.288,77.383c-0.722,9.131-0.987,27.539,5.39,47.823
		c7.339,23.328,24.531,52.84,64.606,69.106c0.794,6.316,3.068,12.657,7.062,18.6l113.103,168.24
		c17.673,26.276,57.267,26.276,74.941,0l113.103-168.24c3.994-5.943,6.268-12.272,7.05-18.588v-0.012
		c40.087-16.254,57.279-45.778,64.618-69.106c6.376-20.284,6.112-38.691,5.39-47.823C500.908,107.66,497.009,73.576,473.73,50.297z"
		/>
	<circle style="fill:#D14841;" cx="205.464" cy="120.057" r="28.874"/>
	<circle style="fill:#D14841;" cx="305.321" cy="120.057" r="28.874"/>
</g>
<g>
	<path style="fill:#EB806E;" d="M97.763,244.608c-40.075-16.266-57.267-45.778-64.606-69.106
		c-6.376-20.284-6.112-38.691-5.39-47.823c0.529,0.59,1.071,1.167,1.636,1.732c13.944,13.944,35.72,16.326,55.751,8.061
		c0.012,5.534,0.674,13.775,3.609,22.281c6.16,17.794,19.779,29.211,41.651,34.938c1.648,0.433,3.236,0.999,4.74,1.684
		C110.841,200.057,94.984,222.23,97.763,244.608z"/>
	<path style="fill:#EB806E;" d="M477.64,175.502c-7.339,23.328-24.531,52.852-64.618,69.106
		c2.791-22.378-13.066-44.538-37.368-48.232c1.504-0.686,3.08-1.251,4.728-1.684c21.872-5.727,35.491-17.144,41.639-34.938
		c2.948-8.506,3.609-16.759,3.621-22.281c20.031,8.265,41.807,5.883,55.751-8.061c0.565-0.565,1.107-1.143,1.636-1.732
		C483.751,136.811,484.016,155.218,477.64,175.502z"/>
</g>
<g>
</g>
<g>
</g>
<g>
</g>
<g>
</g>
<g>
</g>
<g>
</g>
<g>
</g>
<g>
</g>
<g>
</g>
<g>
</g>
<g>
</g>
<g>
</g>
<g>
</g>
<g>
</g>
<g>
</g>
</svg>
