<?xml version="1.0" encoding="iso-8859-1"?>
<!-- Generator: Adobe Illustrator 19.0.0, SVG Export Plug-In . SVG Version: 6.00 Build 0)  -->
<svg version="1.1" id="Layer_1" xmlns="http://www.w3.org/2000/svg" xmlns:xlink="http://www.w3.org/1999/xlink" x="0px" y="0px"
	 viewBox="0 0 512 512" style="enable-background:new 0 0 512 512;" xml:space="preserve">
<path style="fill:#54ACD2;" d="M247.464,171.723v99.457h-5.92c0,0-4.558,0.841-10.786,2.356c-0.225,0.047-0.462,0.107-0.699,0.166
	c-10.514,2.605-25.314,7.057-31.139,12.645c0,0,31.802,21.194,30.749,48.118c-0.355,9.022-4.416,18.707-14.599,28.44
	c-20.685,19.749-51.54,24.923-77.624,13.214c-20.258-9.105-39.167-27.505-34.372-64.682C65.363,348.993,0.006,297.169,0.006,297.169
	c25.492-7.151,39.925-14.682,48.059-21.158c9.058-7.211,10.313-13.119,10.348-15.712c-57.318,8.963-58.407-25.267-58.407-25.267
	c7.992,6.512,16.991,8.146,25.101,7.637c9.981-0.628,19.394-4.665,26.889-11.177v-0.012c1.444-1.22,2.818-2.569,4.109-4.002
	c17.618-19.489,36.029-28.629,51.931-32.525c0.095-4.831-3.043-8.856-3.043-8.856c-12.87-13.521-30.701-14.09-47.1-10.159
	c-0.036,0.012-0.047,0.012-0.047,0.012c-22.816,5.47-42.837,19.619-42.837,19.619c0.793-18.944,14.895-94.164,107.354-54.488
	c64.86,27.836,104.903,30.855,119.182,30.867C245.487,171.947,247.464,171.723,247.464,171.723z"/>
<path style="fill:#475577;" d="M431.631,301.82c-12.799,0-24.9-2.996-35.639-8.324c-23.964-11.887-49.776-19.512-76.298-21.679
	c-5.162-0.426-10.348-0.639-15.558-0.639h-62.599v-99.457h62.599c31.625,0,62.812-7.447,90.956-21.869
	c12.089-6.181,25.954-9.401,40.635-8.667c40.102,1.989,72.722,33.815,75.99,73.574c0.083,0.924,0.142,1.847,0.189,2.771
	C514.109,263.695,477.322,301.82,431.631,301.82z"/>
<g>
	<path style="fill:#2C82C9;" d="M229.662,334.463c-0.355,9.022-4.416,18.707-14.599,28.44
		c-20.685,19.749-51.54,24.923-77.624,13.214c-20.258-9.105-39.167-27.505-34.372-64.682C65.357,348.991,0,297.167,0,297.167
		c25.492-7.151,39.925-14.682,48.059-21.158c9.058-7.211,10.313-13.119,10.348-15.712c11.887-1.859,26.202-5.577,43.418-11.84
		c0,0,34.064-11.958,66.068,6.334c-13.711,8.478-23.064,22.07-20.46,43.725c1.705,14.184,12.633,25.835,26.806,27.54
		c12.503,1.516,25.385-5.186,24.675-39.712C198.914,286.345,230.716,307.539,229.662,334.463z"/>
	<circle style="fill:#2C82C9;" cx="197.339" cy="209.38" r="9.472"/>
</g>
<path style="fill:#28324E;" d="M431.631,301.82c-12.799,0-24.9-2.996-35.639-8.324c-23.964-11.887-49.776-19.512-76.298-21.679
	c147.374-7.601,184.161-37.415,192.023-57.057c0.083,0.924,0.142,1.847,0.189,2.771C514.109,263.695,477.322,301.82,431.631,301.82z
	"/>
<path style="fill:#54ACD2;" d="M229.662,334.463c-0.355,9.022-4.416,18.707-14.599,28.44c-20.685,19.749-51.54,24.923-77.624,13.214
	c-20.258-9.105-39.167-27.505-34.372-64.682C65.357,348.991,0,297.167,0,297.167c25.492-7.151,39.925-14.682,48.059-21.158
	c29.482-4.57,85.876-10.538,79.281,11.876C118.875,316.679,183.119,403.124,229.662,334.463z"/>
<g>
	<path style="fill:#2C82C9;" d="M241.538,237.99v33.188c0,0-4.902,0.9-11.485,2.522c-10.514,2.605-25.314,7.057-31.139,12.645
		C198.914,286.345,211.914,250.233,241.538,237.99z"/>
	<path style="fill:#2C82C9;" d="M151.908,198.491c0,0-35.568-8.3-99.919,32.998v-0.012c1.444-1.22,2.818-2.569,4.109-4.002
		c17.618-19.489,36.029-28.629,51.931-32.525c0.095-4.831-3.043-8.856-3.043-8.856c-12.87-13.521-30.701-14.09-47.1-10.159
		C59.887,175.415,127.991,158.247,151.908,198.491z"/>
</g>
<g>
</g>
<g>
</g>
<g>
</g>
<g>
</g>
<g>
</g>
<g>
</g>
<g>
</g>
<g>
</g>
<g>
</g>
<g>
</g>
<g>
</g>
<g>
</g>
<g>
</g>
<g>
</g>
<g>
</g>
</svg>
