<?xml version="1.0" encoding="iso-8859-1"?>
<!-- Generator: Adobe Illustrator 19.0.0, SVG Export Plug-In . SVG Version: 6.00 Build 0)  -->
<svg version="1.1" id="Layer_1" xmlns="http://www.w3.org/2000/svg" xmlns:xlink="http://www.w3.org/1999/xlink" x="0px" y="0px"
	 viewBox="0 0 512 512" style="enable-background:new 0 0 512 512;" xml:space="preserve">
<g>
	<path style="fill:#475577;" d="M30.275,119.49c53.389,17.608,92.101,57.662,113.899,85.769l23.811,29.873l17.008-19.021
		c18.667-19.503,44.491-30.532,71.492-30.532h36.593V88.276H171.34c-52.824,0-103.342,11.029-139.864,30.532L30.275,119.49z"/>
	<path style="fill:#475577;" d="M71.988,424.901c0,0,93.584,0,125.658,0c23.246,0,30.908-7.015,33.309-9.416
		c5.426-5.414,16.631-17.067,25.541-26.365c-10.44-2.837-20.256-7.792-28.813-14.642l-55.131-44.114l-24.611,28.543
		c-18.232,20.951-41.407,40.489-62.982,56.579C80.545,418.781,76.202,421.923,71.988,424.901z"/>
</g>
<path style="fill:#E46A53;" d="M512,320.147l-37.582-39.024c-47.417-49.236-68.349-66.893-105.872-131.619
	c-10.785-18.601-18.882-42.746-37.806-64.759v97.3h-74.259c-26.997,0-52.822,11.03-71.488,30.534l-25.35,28.354
	c-4.22,4.719-10.249,7.416-16.579,7.416h-0.224c-7.366,0-14.255-3.636-18.387-9.732C107.22,213.206,49.249,144.772,0,144.772
	c0,0,82.391,143.595,0,282.483c0,0,84.561-47.565,124.467-99.625c4.195-5.473,10.829-8.66,17.723-8.66c1.569,0,3.13,0,4.556,0
	c5.051,0,8.414,1.718,12.357,4.874l66.23,52.984c14.136,11.309,31.702,17.47,49.805,17.47h70.078
	C424.901,394.299,512,320.147,512,320.147z"/>
<g>
	<circle style="fill:#475577;" cx="304.846" cy="247.172" r="9.416"/>
	<circle style="fill:#475577;" cx="304.846" cy="289.545" r="9.416"/>
	<circle style="fill:#475577;" cx="304.846" cy="331.917" r="9.416"/>
	<circle style="fill:#475577;" cx="257.766" cy="247.172" r="9.416"/>
	<circle style="fill:#475577;" cx="257.766" cy="289.545" r="9.416"/>
	<circle style="fill:#475577;" cx="257.766" cy="331.917" r="9.416"/>
</g>
<circle style="fill:#2A324E;" cx="425.69" cy="289.545" r="9.416"/>
<g>
</g>
<g>
</g>
<g>
</g>
<g>
</g>
<g>
</g>
<g>
</g>
<g>
</g>
<g>
</g>
<g>
</g>
<g>
</g>
<g>
</g>
<g>
</g>
<g>
</g>
<g>
</g>
<g>
</g>
</svg>
