<?xml version="1.0" encoding="iso-8859-1"?>
<!-- Generator: Adobe Illustrator 19.0.0, SVG Export Plug-In . SVG Version: 6.00 Build 0)  -->
<svg version="1.1" id="Layer_1" xmlns="http://www.w3.org/2000/svg" xmlns:xlink="http://www.w3.org/1999/xlink" x="0px" y="0px"
	 viewBox="0 0 512 512" style="enable-background:new 0 0 512 512;" xml:space="preserve">
<g>
	<path style="fill:#EB7830;" d="M446.43,246.324l-63.915,71.286c-9.362-30.151-26.787-57.033-49.639-77.5L446.43,246.324z"/>
	<path style="fill:#EB7830;" d="M460.312,381.358l-64.977,44.94c-7.645-23.567-7.836-43.926-7.156-54.66
		c0.513-8.027,0.525-16.089-0.083-24.104L460.312,381.358z"/>
</g>
<path style="fill:#E46A53;" d="M155.431,59.111L69.797,95.464l-14.92-35.148c-7.657-18.057-2.97-37.319,10.472-43.019l36.961-15.695
	c13.441-5.701,30.544,4.306,38.201,22.363L155.431,59.111z"/>
<path style="fill:#CA463D;" d="M214.778,124.124L79.231,181.67c-0.942,0.394-1.837,0.859-2.695,1.372l-21.599-50.867
	c-7.657-18.057-2.97-37.319,10.472-43.019l2.004-0.847l85.633-36.352l2.016-0.859c13.441-5.701,30.544,4.306,38.213,22.363
	L214.778,124.124z"/>
<path style="fill:#EB7830;" d="M288.556,209.817c-1.276-0.501-2.564-0.978-3.852-1.443c-18.188-6.512-37.843-9.661-58.286-8.659
	c0,0-23.126-2.767-66.324,17.508c-5.403,2.54-20.657,12.344-37.975,23.853c-14.67,9.768-24.545,24.426-28.505,40.622L64.931,214.11
	c-6.381-15.028-2.218-31.427,9.219-38.225c0.859-0.513,1.753-0.978,2.695-1.372l135.547-57.546l6.81-2.886
	c13.441-5.701,29.9,2.779,36.758,18.951L288.556,209.817z"/>
<path style="fill:#CA463D;" d="M401.298,426.298c-7.645-23.567-7.836-43.926-7.156-54.66c0.513-8.027,0.525-16.089-0.083-24.104
	c-0.453-6.023-1.264-12.034-2.481-17.973c-1.157-5.665-2.588-11.247-4.294-16.721c-9.362-30.151-26.787-57.033-49.639-77.499
	c-14.419-12.917-30.997-23.281-49.09-30.294c-1.276-0.501-2.564-0.978-3.852-1.443c-18.188-6.512-37.843-9.661-58.286-8.659
	c0,0-23.126-2.767-66.324,17.508c-5.403,2.54-20.657,12.344-37.975,23.853c-14.67,9.768-24.545,24.426-28.505,40.622
	c-3.184,13-2.552,26.978,2.433,40.205c7.406,19.667,14.181,37.569,14.181,37.569v0.024c-0.215,2.91-0.322,5.844-0.322,8.814
	c0,64.344,52.167,116.5,116.512,116.5c43.974,0,82.258-24.354,102.08-60.325l0,0C378.005,545.731,460.8,506.087,460.8,506.087
	C426.619,481.172,409.576,451.845,401.298,426.298z"/>
<path style="fill:#E46A53;" d="M342.918,363.54c0,20.371-5.224,39.513-14.419,56.175c-19.822,35.971-58.107,60.325-102.08,60.325
	c-64.344,0-116.512-52.155-116.512-116.5c0-2.97,0.107-5.904,0.322-8.814v-0.024c4.532-60.218,54.815-107.674,116.19-107.674
	C290.763,247.028,342.918,299.195,342.918,363.54z"/>
<circle style="fill:#CA463D;" cx="226.416" cy="363.537" r="66.193"/>
<circle style="fill:#F4A026;" cx="226.416" cy="363.537" r="45.918"/>
<g>
</g>
<g>
</g>
<g>
</g>
<g>
</g>
<g>
</g>
<g>
</g>
<g>
</g>
<g>
</g>
<g>
</g>
<g>
</g>
<g>
</g>
<g>
</g>
<g>
</g>
<g>
</g>
<g>
</g>
</svg>
