<?xml version="1.0" encoding="iso-8859-1"?>
<!-- Generator: Adobe Illustrator 19.0.0, SVG Export Plug-In . SVG Version: 6.00 Build 0)  -->
<svg xmlns="http://www.w3.org/2000/svg" xmlns:xlink="http://www.w3.org/1999/xlink" version="1.1" id="Layer_1" x="0px" y="0px" viewBox="0 0 512 512" style="enable-background:new 0 0 512 512;" xml:space="preserve">
<g>
	<path style="fill:#FFA233;" d="M106.232,260.543c0,0,13.31-188.374,150.001-225.001c-124.263,0-225.001,100.734-225.001,225.001   c0,20.707,16.79,37.493,37.5,37.493C89.444,298.037,106.232,281.25,106.232,260.543z"/>
	<path style="fill:#9FDEE2;" d="M256.233,35.541C119.542,72.169,106.232,260.543,106.232,260.543c0,20.707,16.79,37.493,37.5,37.493   c20.712,0,37.5-16.786,37.5-37.493C181.233,260.543,187.885,72.169,256.233,35.541z"/>
	<path style="fill:#7BA9D6;" d="M256.233,35.541c68.345,36.627,75.001,225.001,75.001,225.001c0,20.707,16.786,37.493,37.5,37.493   c20.712,0,37.5-16.786,37.5-37.493C406.233,260.543,392.925,72.169,256.233,35.541z"/>
	<path style="fill:#FFE67B;" d="M256.233,35.541c136.692,36.627,150.001,225.001,150.001,225.001   c0,20.707,16.786,37.493,37.498,37.493c20.714,0,37.5-16.786,37.5-37.493C481.232,136.275,380.496,35.541,256.233,35.541z"/>
	<path style="fill:#F9EACD;" d="M331.233,260.543c0,0-6.654-188.374-75.001-225.001c-0.077,0.044-0.155,0.081-0.231,0.125   c-0.378,60.014-0.483,186.035-0.509,232.331c0.483-2.409,0.739-4.905,0.739-7.454c0,20.707,16.788,37.493,37.5,37.493   C314.443,298.036,331.233,281.25,331.233,260.543z"/>
	<path style="fill:#F99A98;" d="M181.001,260.416c0,0,6.654-188.372,75.001-225.001c0.077,0.044,0.155,0.083,0.231,0.127   c0.378,60.012,0.483,186.033,0.511,232.331c-0.485-2.409-0.741-4.905-0.741-7.456c0,20.712-16.788,37.5-37.5,37.5   S181.001,281.127,181.001,260.416z"/>
</g>
<g>
	<path style="fill:#000003;" d="M422.643,94.025c-41.988-41.988-97.031-66.17-155.974-68.78V10.667   C266.668,4.776,261.893,0,256.001,0c-5.889,0-10.667,4.776-10.667,10.667v14.578c-58.943,2.608-113.986,26.791-155.973,68.78   c-44.511,44.511-69.025,103.692-69.025,166.639c0,26.559,21.608,48.167,48.167,48.167c15.136,0,28.662-7.017,37.5-17.97   c8.836,10.953,22.364,17.97,37.5,17.97c15.135,0,28.662-7.017,37.498-17.97c8.838,10.953,22.364,17.97,37.5,17.97   c9.932,0,19.157-3.036,26.833-8.206v168.706c0,11.763-9.57,21.335-21.33,21.335c-11.763,0-21.335-9.572-21.335-21.335   c0-5.89-4.776-10.667-10.667-10.667c-5.889,0-10.667,4.777-10.667,10.667c0,23.529,19.14,42.669,42.669,42.669   c23.527,0,42.665-19.14,42.665-42.669V300.624c7.675,5.172,16.903,8.206,26.833,8.206c15.137,0,28.664-7.017,37.5-17.97   c8.836,10.953,22.364,17.97,37.498,17.97c15.136,0,28.664-7.017,37.502-17.97c8.836,10.953,22.364,17.97,37.498,17.97   c26.559,0,48.167-21.608,48.167-48.167C491.668,197.716,467.154,138.535,422.643,94.025z M143.503,287.497   c-14.69,0-26.655-11.87-26.824-26.52c0.457-5.486,5.663-61.239,31.777-115.24c2.564-5.303,0.343-11.682-4.96-14.246   c-5.305-2.562-11.682-0.346-14.246,4.958c-29.129,60.239-33.707,120.91-33.886,123.463c-0.009,0.121-0.004,0.238-0.009,0.358   c-0.004,0.131-0.019,0.26-0.019,0.394c0,14.794-12.038,26.833-26.833,26.833c-14.797,0-26.833-12.038-26.833-26.833   c0-107.784,79.978-197.223,183.701-212.131c-18.568,23.468-32.968,60.699-42.963,111.301   c-10.254,51.911-11.996,98.496-12.068,100.454c-0.002,0.065,0.004,0.129,0.004,0.194c-0.002,0.063-0.011,0.121-0.011,0.183   C170.334,275.459,158.298,287.497,143.503,287.497z M218.501,287.497c-14.751,0-26.758-11.968-26.828-26.701   c1.644-45.307,14.517-159.039,53.662-202.933v202.802C245.334,275.459,233.298,287.497,218.501,287.497z M368.5,287.497   c-14.794,0-26.83-12.038-26.83-26.833c0-5.892-4.776-10.667-10.667-10.667c-5.889,0-10.667,4.776-10.667,10.667   c0,14.794-12.036,26.833-26.833,26.833c-14.794,0-26.833-12.038-26.833-26.833V57.956c20.251,22.806,36.26,67.125,45.938,128.231   c0.831,5.253,5.367,8.999,10.521,8.999c0.556,0,1.117-0.042,1.683-0.131c5.817-0.923,9.788-6.385,8.868-12.204   c-7.94-50.141-19.662-88.995-35.014-116.296c31.033,20.828,55.651,53.866,73.478,98.762c18.676,47.036,22.782,90.878,23.184,95.671   C395.154,275.632,383.189,287.497,368.5,287.497z M443.5,287.497c-14.794,0-26.83-12.038-26.83-26.833   c0-0.123-0.015-0.242-0.019-0.363c-0.004-0.129,0.002-0.258-0.006-0.389c-0.142-1.989-3.681-49.336-24.462-101.934   c-12.318-31.181-28.177-57.704-47.137-78.829c-7.615-8.486-15.736-16.095-24.327-22.821   c86.65,27.506,149.613,108.7,149.613,204.336C470.333,275.459,458.297,287.497,443.5,287.497z"/>
	<path style="fill:#000003;" d="M160.694,103.556c-4.944-3.207-11.548-1.796-14.753,3.148l-0.437,0.677   c-3.194,4.951-1.769,11.553,3.181,14.746c1.79,1.152,3.792,1.705,5.773,1.705c3.502,0,6.934-1.723,8.973-4.886l0.411-0.636   C167.046,113.367,165.637,106.763,160.694,103.556z"/>
	<path style="fill:#000003;" d="M337.925,214.284c-0.579-5.863-5.808-10.151-11.665-9.565c-5.863,0.579-10.145,5.802-9.565,11.666   l0.067,0.617c0.555,5.496,5.19,9.596,10.601,9.596c0.358,0,0.721-0.019,1.086-0.057c5.861-0.592,10.132-5.823,9.54-11.686   L337.925,214.284z"/>
</g>
<g>
</g>
<g>
</g>
<g>
</g>
<g>
</g>
<g>
</g>
<g>
</g>
<g>
</g>
<g>
</g>
<g>
</g>
<g>
</g>
<g>
</g>
<g>
</g>
<g>
</g>
<g>
</g>
<g>
</g>
</svg>
