<?xml version="1.0" encoding="iso-8859-1"?>
<!-- Generator: Adobe Illustrator 19.0.0, SVG Export Plug-In . SVG Version: 6.00 Build 0)  -->
<svg xmlns="http://www.w3.org/2000/svg" xmlns:xlink="http://www.w3.org/1999/xlink" version="1.1" id="Layer_1" x="0px" y="0px" viewBox="0 0 512 512" style="enable-background:new 0 0 512 512;" xml:space="preserve">
<g>
	<g>
		<path style="fill:#FFA233;" d="M246.33,128.32c-86.826-234.667-273.219,6.839-26.163,28.017v-1.81    c-91.191-19.215-18.005-112.825,24.722-26.206h1.441V128.32z"/>
		<path style="fill:#FFA233;" d="M291.833,156.336c247.058-21.171,60.665-262.683-26.161-28.016h1.441    c42.729-86.619,115.916,6.992,24.72,26.206V156.336z"/>
		<polygon style="fill:#FFA233;" points="314.333,200.503 314.333,157.839 255.999,157.839 197.665,157.839 197.665,442.838     197.665,485.503 314.333,485.503   "/>
	</g>
	<g>
		<path style="fill:#FFE67B;" d="M314.333,200.503v285.001h126.295c33.39,0,60.705-27.312,60.705-60.702V218.541    c0-33.386-27.314-60.702-60.705-60.702H314.333V200.503z"/>
		<path style="fill:#FFE67B;" d="M197.665,442.838V157.839H71.37c-33.388,0-60.703,27.316-60.703,60.702v206.26    c0,33.39,27.315,60.702,60.703,60.702h126.295V442.838z"/>
	</g>
	<g>
		<circle style="fill:#7BA9D6;" cx="165.493" cy="185.909" r="16"/>
		<path style="fill:#7BA9D6;" d="M197.665,240.382c-3.891-5.513-3.891-12.926,0-18.433V240.382z"/>
		<circle style="fill:#7BA9D6;" cx="74.987" cy="185.909" r="16"/>
		<path style="fill:#7BA9D6;" d="M131.552,219.847c6.247,6.25,6.247,16.38,0,22.63c-6.25,6.25-16.378,6.25-22.628,0    c-6.247-6.25-6.247-16.38,0-22.63C115.174,213.602,125.302,213.602,131.552,219.847z"/>
		<path style="fill:#7BA9D6;" d="M176.806,265.104c6.247,6.25,6.247,16.38,0,22.626c-6.25,6.25-16.378,6.25-22.628,0    c-6.25-6.245-6.25-16.377,0-22.626C160.428,258.853,170.556,258.853,176.806,265.104z"/>
		<path style="fill:#7BA9D6;" d="M197.665,330.885c-3.891-5.507-3.891-12.922,0-18.429V330.885z"/>
		<path style="fill:#7BA9D6;" d="M41.044,219.847c6.247,6.25,6.247,16.38,0,22.63c-6.25,6.25-16.379,6.25-22.628,0    c-6.25-6.25-6.25-16.38,0-22.63C24.666,213.602,34.795,213.602,41.044,219.847z"/>
		<path style="fill:#7BA9D6;" d="M86.299,265.104c6.25,6.25,6.25,16.38,0,22.626c-6.251,6.25-16.378,6.25-22.628,0    c-6.25-6.245-6.25-16.377,0-22.626C69.92,258.853,80.048,258.853,86.299,265.104z"/>
		<path style="fill:#7BA9D6;" d="M131.552,310.359c6.247,6.245,6.247,16.378,0,22.627c-6.25,6.25-16.378,6.25-22.628,0    c-6.247-6.25-6.247-16.381,0-22.627C115.174,304.106,125.302,304.106,131.552,310.359z"/>
		<path style="fill:#7BA9D6;" d="M176.806,355.612c6.247,6.25,6.247,16.378,0,22.631c-6.25,6.245-16.378,6.245-22.628,0    c-6.25-6.254-6.25-16.381,0-22.631C160.428,349.361,170.556,349.361,176.806,355.612z"/>
		<path style="fill:#7BA9D6;" d="M197.665,421.397c-3.891-5.513-3.891-12.926,0-18.433V421.397z"/>
		<path style="fill:#7BA9D6;" d="M41.044,310.359c6.247,6.245,6.247,16.378,0,22.627c-6.25,6.25-16.379,6.25-22.628,0    s-6.25-16.381,0-22.627C24.666,304.106,34.795,304.106,41.044,310.359z"/>
		<path style="fill:#7BA9D6;" d="M86.299,355.612c6.25,6.25,6.25,16.378,0,22.631c-6.251,6.245-16.378,6.245-22.628,0    c-6.25-6.254-6.25-16.381,0-22.631C69.92,349.361,80.048,349.361,86.299,355.612z"/>
		<path style="fill:#7BA9D6;" d="M131.552,400.864c6.247,6.25,6.247,16.381,0,22.631c-6.25,6.25-16.378,6.25-22.628,0    c-6.247-6.25-6.247-16.382,0-22.631C115.174,394.618,125.302,394.618,131.552,400.864z"/>
		<circle style="fill:#7BA9D6;" cx="165.493" cy="457.429" r="16"/>
		<path style="fill:#7BA9D6;" d="M41.044,400.864c6.247,6.25,6.247,16.381,0,22.631c-6.25,6.25-16.379,6.25-22.628,0    s-6.25-16.382,0-22.631C24.666,394.618,34.795,394.618,41.044,400.864z"/>
		<circle style="fill:#7BA9D6;" cx="74.987" cy="457.429" r="16"/>
		<circle style="fill:#7BA9D6;" cx="437.013" cy="185.909" r="16"/>
		<path style="fill:#7BA9D6;" d="M493.584,219.847c6.247,6.25,6.247,16.38,0,22.63c-6.25,6.25-16.379,6.25-22.626,0    c-6.252-6.25-6.252-16.38,0-22.63C477.206,213.602,487.334,213.602,493.584,219.847z"/>
		<path style="fill:#7BA9D6;" d="M357.822,174.596c6.25,6.25,6.25,16.375,0,22.626c-6.25,6.25-16.378,6.25-22.626,0    c-6.252-6.25-6.252-16.377,0-22.626C341.444,168.346,351.572,168.346,357.822,174.596z"/>
		<path style="fill:#7BA9D6;" d="M403.076,219.847c6.25,6.25,6.25,16.38,0,22.63c-6.25,6.25-16.378,6.25-22.628,0    c-6.247-6.25-6.247-16.38,0-22.63C386.699,213.602,396.827,213.602,403.076,219.847z"/>
		<path style="fill:#7BA9D6;" d="M448.331,265.104c6.247,6.25,6.247,16.38,0,22.626c-6.25,6.25-16.378,6.25-22.628,0    c-6.247-6.245-6.247-16.377,0-22.626C431.952,258.853,442.08,258.853,448.331,265.104z"/>
		<path style="fill:#7BA9D6;" d="M493.584,310.359c6.247,6.245,6.247,16.378,0,22.627c-6.25,6.25-16.379,6.25-22.626,0    c-6.252-6.25-6.252-16.381,0-22.627C477.206,304.106,487.334,304.106,493.584,310.359z"/>
		<path style="fill:#7BA9D6;" d="M314.333,221.944c3.895,5.507,3.895,12.929,0,18.437V221.944z"/>
		<path style="fill:#7BA9D6;" d="M357.822,265.104c6.25,6.25,6.25,16.38,0,22.626c-6.25,6.25-16.378,6.25-22.626,0    c-6.252-6.245-6.252-16.377,0-22.626C341.444,258.853,351.572,258.853,357.822,265.104z"/>
		<path style="fill:#7BA9D6;" d="M403.076,310.359c6.25,6.245,6.25,16.378,0,22.627s-16.378,6.25-22.628,0    c-6.247-6.25-6.247-16.381,0-22.627C386.699,304.106,396.827,304.106,403.076,310.359z"/>
		<path style="fill:#7BA9D6;" d="M448.331,355.612c6.247,6.25,6.247,16.378,0,22.631c-6.25,6.245-16.378,6.245-22.628,0    c-6.247-6.254-6.247-16.381,0-22.631C431.952,349.361,442.08,349.361,448.331,355.612z"/>
		<path style="fill:#7BA9D6;" d="M493.584,400.864c6.247,6.25,6.247,16.381,0,22.631c-6.25,6.25-16.379,6.25-22.626,0    c-6.252-6.25-6.252-16.382,0-22.631C477.206,394.618,487.334,394.618,493.584,400.864z"/>
		<path style="fill:#7BA9D6;" d="M314.333,312.452c3.895,5.511,3.895,12.93,0,18.437V312.452z"/>
		<path style="fill:#7BA9D6;" d="M357.822,355.612c6.25,6.25,6.25,16.378,0,22.631c-6.25,6.245-16.378,6.245-22.626,0    c-6.252-6.254-6.252-16.381,0-22.631C341.444,349.361,351.572,349.361,357.822,355.612z"/>
		<path style="fill:#7BA9D6;" d="M403.076,400.864c6.25,6.25,6.25,16.381,0,22.631c-6.25,6.25-16.378,6.25-22.628,0    c-6.247-6.25-6.247-16.382,0-22.631C386.699,394.618,396.827,394.618,403.076,400.864z"/>
		<circle style="fill:#7BA9D6;" cx="437.013" cy="457.429" r="16"/>
		<path style="fill:#7BA9D6;" d="M314.333,402.96c3.895,5.507,3.895,12.93,0,18.437V402.96z"/>
		<path style="fill:#7BA9D6;" d="M357.822,446.119c6.25,6.25,6.25,16.381,0,22.626c-6.25,6.25-16.378,6.25-22.626,0    c-6.252-6.245-6.252-16.377,0-22.626C341.444,439.87,351.572,439.87,357.822,446.119z"/>
	</g>
	<path style="fill:#000003;" d="M186.997,453.533H118.34c-5.892,0-10.667-4.774-10.667-10.663c0-5.894,4.774-10.669,10.667-10.669   h68.657V168.532H71.37c-13.748,0-26.259,5.637-35.33,14.709c-9.073,9.072-14.707,21.58-14.707,35.33V424.83   c0,13.75,5.634,26.259,14.707,35.331c9.071,9.075,21.582,14.704,35.33,14.704h115.628V453.533L186.997,453.533z M138.241,147.2   c-18.519-8.924-31.43-19.953-39.7-31.701c-18.116-25.739-14.846-54.767,0.471-74.87c15.247-20.013,42.448-31.093,72.303-21.089   c29.115,9.753,60.799,40.322,84.684,104.186c23.883-63.873,55.575-94.432,84.69-104.186c29.853-10.004,57.055,1.077,72.303,21.089   c15.316,20.105,18.588,49.132,0.47,74.87c-8.27,11.748-21.183,22.778-39.7,31.701h66.869c19.638,0,37.485,8.03,50.415,20.959   C503.973,181.088,512,198.936,512,218.572V424.83c0,19.635-8.027,37.484-20.957,50.413c-12.93,12.935-30.777,20.96-50.415,20.96   H314.333H197.665H71.37c-19.635,0-37.483-8.025-50.413-20.96C8.026,462.314,0,444.465,0,424.83V218.572   c0-19.635,8.026-37.484,20.957-50.413C33.887,155.23,51.734,147.2,71.37,147.2H138.241L138.241,147.2z M325.001,168.532v21.333   h68.657c5.892,0,10.667,4.778,10.667,10.668c0,5.891-4.774,10.669-10.667,10.669h-68.657v263.664h115.628   c13.75,0,26.259-5.629,35.332-14.704c9.071-9.072,14.705-21.582,14.705-35.331V218.572c0-13.75-5.634-26.258-14.705-35.33   c-9.073-9.072-21.582-14.709-35.332-14.709L325.001,168.532L325.001,168.532z M303.666,474.865V200.533v-32.001h-47.667h-47.667   v274.337v31.996H303.666L303.666,474.865z M347.439,39.704c-15.716,5.265-32.544,18.58-48.219,43.186   c16.322-4.38,31.045,2.026,39.503,13.13c8.458,11.098,10.667,26.805,2.051,41.133c28.22-8.147,45.805-20.455,55.271-33.902   c12.135-17.244,10.097-36.489,0.026-49.706C385.932,40.234,367.658,32.928,347.439,39.704L347.439,39.704z M303.406,103.828   c-10.715,3.588-22.733,16.036-32.587,42.881c28.915-2.022,44.382-10.026,50.848-19.215c4.573-6.493,3.863-13.671,0.139-18.559   C318.016,103.957,311.108,101.249,303.406,103.828L303.406,103.828z M212.781,82.891c-15.675-24.606-32.505-37.922-48.219-43.186   c-20.22-6.777-38.494,0.529-48.636,13.84c-10.069,13.217-12.107,32.462,0.028,49.706c9.467,13.446,27.051,25.755,55.271,33.902   c-8.618-14.327-6.406-30.034,2.048-41.133C181.734,84.916,196.46,78.51,212.781,82.891L212.781,82.891z M241.181,146.709   c-9.854-26.845-21.875-39.293-32.589-42.881c-7.7-2.579-14.607,0.129-18.399,5.108c-3.724,4.886-4.433,12.066,0.139,18.559   C196.8,136.684,212.267,144.687,241.181,146.709L241.181,146.709z M424.303,211.206h0.254c5.892,0,10.669-4.779,10.669-10.668   c0-5.89-4.777-10.669-10.669-10.669h-0.254c-5.892,0-10.666,4.779-10.666,10.669C413.636,206.428,418.411,211.206,424.303,211.206   L424.303,211.206z M87.696,432.197c5.891,0,10.669,4.774,10.669,10.668c0,5.89-4.777,10.663-10.669,10.663h-0.254   c-5.892,0-10.669-4.773-10.669-10.663c0-5.893,4.777-10.668,10.669-10.668H87.696z"/>
</g>
<g>
</g>
<g>
</g>
<g>
</g>
<g>
</g>
<g>
</g>
<g>
</g>
<g>
</g>
<g>
</g>
<g>
</g>
<g>
</g>
<g>
</g>
<g>
</g>
<g>
</g>
<g>
</g>
<g>
</g>
</svg>
