<?xml version="1.0" encoding="iso-8859-1"?>
<!-- Generator: Adobe Illustrator 19.0.0, SVG Export Plug-In . SVG Version: 6.00 Build 0)  -->
<svg xmlns="http://www.w3.org/2000/svg" xmlns:xlink="http://www.w3.org/1999/xlink" version="1.1" id="Layer_1" x="0px" y="0px" viewBox="0 0 512.001 512.001" style="enable-background:new 0 0 512.001 512.001;" xml:space="preserve">
<g>
	<g>
		<path style="fill:#F9EACD;" d="M256.132,160.973c17.62-0.075,31.878-14.382,31.878-32.014c0-14.75-9.973-27.168-23.543-30.88    c-2.696-0.737-5.536-1.132-8.466-1.132c-2.93,0-5.771,0.394-8.468,1.132c-13.571,3.713-23.546,16.129-23.546,30.88    c0,17.633,14.262,31.939,31.88,32.014c0.044-0.006,0.09-0.006,0.133,0C256.044,160.973,256.089,160.973,256.132,160.973z"/>
		<path style="fill:#F9EACD;" d="M256,160.967c-0.044,0-0.09,0-0.133,0.006C255.911,160.973,255.957,160.973,256,160.967    L256,160.967z M288.01,278.346c0,19.304-1.269,37.522-3.523,53.592c-1.968,14.041-4.688,26.438-7.962,36.479    c-5.554,17.043-12.715,27.301-20.525,27.301c-7.811,0-14.971-10.258-20.526-27.301c-7.021-21.53-11.488-53.892-11.488-90.071    c0-5.046,0.088-10.017,0.256-14.892c1.99-57.639,15.379-102.244,31.624-102.481c0.044-0.006,0.09-0.006,0.133,0h0.131    C273.752,161.234,288.01,213.683,288.01,278.346z"/>
	</g>
	<g>
		<path style="fill:#F99A98;" d="M224.07,263.174c0.901-26.123,4.146-49.571,8.933-67.421l-2.344-2.766    C131.519,80.752-30.143,89.666,53.14,270.565C-92.563,467.165,176.501,528.572,232.372,376.942    c0.477-1.294,1.539-5.355,2.643-9.683c-6.857-21.528-11.2-53.5-11.2-89.19C223.814,273.023,223.901,268.052,224.07,263.174z"/>
		<path style="fill:#F99A98;" d="M287.931,263.174c-0.902-26.123-4.148-49.571-8.936-67.421l2.347-2.766    C380.48,80.752,542.145,89.666,458.861,270.565C604.565,467.165,335.5,528.572,279.63,376.942    c-0.478-1.294-1.54-5.355-2.643-9.683c6.856-21.528,11.2-53.5,11.2-89.19C288.187,273.023,288.099,268.052,287.931,263.174z"/>
	</g>
</g>
<g>
	<path style="fill:#000003;" d="M470.963,269.301c15.635-35.442,22.783-66.245,21.253-91.63   c-1.547-25.663-12.051-45.451-30.376-57.228c-22.81-14.662-55.307-15.629-91.501-2.724c-30.786,10.977-61.221,31.128-87.169,57.491   c-1.555-3.654-3.249-7.015-5.093-10.008c12.342-7.489,20.607-21.056,20.607-36.518c0-15.2-7.991-28.56-19.987-36.124   c11.972-22.484,28.917-32.212,41.561-31.678c5.463,0.225,12.604,2.486,15.598,11.988c1.774,5.622,7.768,8.739,13.387,6.967   c5.621-1.774,8.741-7.765,6.967-13.387c-5.091-16.144-18.203-26.199-35.073-26.895c-18.825-0.744-45.851,11.159-63.092,46.494   c-0.679-0.031-1.357-0.052-2.044-0.052s-1.367,0.021-2.045,0.052c-17.241-35.335-44.266-47.251-63.091-46.494   c-16.872,0.696-29.984,10.75-35.075,26.895c-1.771,5.622,1.348,11.613,6.968,13.387c5.619,1.771,11.613-1.347,13.386-6.967   c2.998-9.502,10.138-11.763,15.6-11.988c12.646-0.553,29.59,9.191,41.561,31.676c-11.997,7.566-19.989,20.925-19.989,36.126   c0,15.46,8.265,29.029,20.607,36.518c-1.844,2.995-3.537,6.357-5.092,10.011c-25.947-26.363-56.382-46.516-87.171-57.493   c-36.195-12.906-68.689-11.939-91.5,2.724c-18.323,11.776-28.828,31.565-30.374,57.228c-1.531,25.386,5.617,56.188,21.253,91.63   c-56.424,79.015-42.526,129.714-28.943,153.14c18.19,31.371,55.378,50.04,97.593,50.04c5.677,0,11.445-0.337,17.27-1.028   c26.263-3.11,50.854-13.147,71.113-29.027c16.137-12.65,29.144-28.891,38.409-47.716c5.328,7.139,11.769,11.408,19.521,11.408   c7.752,0,14.192-4.268,19.52-11.408c9.266,18.827,22.272,35.067,38.409,47.716c20.258,15.88,44.849,25.917,71.113,29.027   c5.828,0.689,11.589,1.028,17.269,1.028c42.214-0.004,79.406-18.67,97.594-50.04C513.486,399.013,527.386,348.315,470.963,269.301z    M234.658,128.682c0-11.767,9.575-21.342,21.342-21.342c11.767,0,21.34,9.575,21.34,21.342c0,11.751-9.548,21.314-21.293,21.338   c-0.016,0-0.031-0.002-0.047-0.002c-0.017,0-0.031,0.002-0.048,0.002C244.207,149.996,234.658,140.433,234.658,128.682z    M124.449,450.258c-40.674,4.824-77.528-10.306-93.889-38.523c-19.413-33.483-8.287-81.361,31.327-134.818   c2.32-3.131,2.749-7.276,1.119-10.815c-29.02-63.041-29.497-109.59-1.307-127.708c32.901-21.146,104.199-1.817,159.768,60.13   c-3.287,13.966-5.41,29.477-6.663,44.44c-27.364-19.608-50.796-33.229-74.28-43.26c-5.421-2.314-11.689,0.204-14.005,5.624   c-2.316,5.419,0.203,11.69,5.623,14.004c25.066,10.706,50.314,25.943,81.297,49.079c-0.08,3.337-0.12,6.567-0.12,9.658   c0,26.353,2.764,62.812,10.957,90.09C209.416,413.987,172.33,444.589,124.449,450.258z M256,384.572   c-2.284-1.609-8.178-9.352-13.385-30.483c-5.131-20.819-7.955-47.816-7.955-76.019c0-28.206,2.826-55.204,7.955-76.021   c5.206-21.132,11.101-28.875,13.385-30.483c2.283,1.609,8.178,9.348,13.386,30.481c5.131,20.817,7.954,47.816,7.954,76.024   c0,28.204-2.824,55.202-7.954,76.021C264.179,375.222,258.284,382.963,256,384.572z M481.442,411.735   c-16.361,28.216-53.212,43.337-93.891,38.523c-47.878-5.67-84.965-36.269-99.825-82.098c1.857-6.182,3.436-12.832,4.766-19.733   c26.822,14.723,38.01,17.891,57.71,23.462c2.034,0.575,4.166,1.178,6.422,1.824c0.983,0.282,1.972,0.417,2.945,0.417   c4.641,0,8.911-3.051,10.253-7.734c1.623-5.667-1.654-11.576-7.318-13.199c-2.283-0.652-4.437-1.263-6.494-1.845   c-20.308-5.742-30.256-8.556-60.083-25.444c1.974-16.87,2.758-33.791,2.758-47.839c0-23.083-2.117-53.918-8.15-79.548   c55.569-61.945,126.869-81.274,159.767-60.126c28.191,18.12,27.715,64.667-1.307,127.708c-1.63,3.539-1.201,7.684,1.12,10.815   C489.728,330.374,500.854,378.252,481.442,411.735z"/>
	<path style="fill:#000003;" d="M102.696,208.473l0.64,0.204c1.09,0.35,2.194,0.519,3.28,0.519c4.506,0,8.693-2.878,10.153-7.397   c1.811-5.609-1.268-11.622-6.875-13.433l-0.868-0.275c-5.627-1.745-11.607,1.398-13.356,7.026   C93.921,200.746,97.068,206.726,102.696,208.473z"/>
	<path style="fill:#000003;" d="M161.796,337.548c-21.526,3.969-48.051,16.695-72.773,34.915c-4.744,3.495-5.756,10.177-2.259,14.92   c2.092,2.839,5.324,4.341,8.599,4.341c2.199,0,4.417-0.678,6.323-2.082c21.881-16.125,45.8-27.756,63.982-31.106   c5.796-1.069,9.626-6.634,8.559-12.43C173.157,340.312,167.592,336.479,161.796,337.548z"/>
	<path style="fill:#000003;" d="M393.134,360.328l-0.678-0.129c-5.786-1.126-11.388,2.653-12.514,8.439   c-1.126,5.784,2.653,11.386,8.437,12.512l0.877,0.166c0.654,0.121,1.307,0.179,1.95,0.179c5.046,0,9.533-3.593,10.481-8.735   C402.758,366.966,398.929,361.399,393.134,360.328z"/>
	<path style="fill:#000003;" d="M404.892,182.834c-21.526,3.973-48.051,16.698-72.77,34.913c-4.745,3.497-5.757,10.177-2.261,14.923   c2.093,2.839,5.324,4.341,8.6,4.341c2.199,0,4.417-0.678,6.322-2.082c21.88-16.123,45.8-27.751,63.985-31.106   c5.796-1.069,9.628-6.636,8.557-12.43C416.254,185.596,410.689,181.76,404.892,182.834z"/>
</g>
<g>
</g>
<g>
</g>
<g>
</g>
<g>
</g>
<g>
</g>
<g>
</g>
<g>
</g>
<g>
</g>
<g>
</g>
<g>
</g>
<g>
</g>
<g>
</g>
<g>
</g>
<g>
</g>
<g>
</g>
</svg>
