<?xml version="1.0" encoding="iso-8859-1"?>
<!-- Generator: Adobe Illustrator 19.0.0, SVG Export Plug-In . SVG Version: 6.00 Build 0)  -->
<svg xmlns="http://www.w3.org/2000/svg" xmlns:xlink="http://www.w3.org/1999/xlink" version="1.1" id="Layer_1" x="0px" y="0px" viewBox="0 0 511.999 511.999" style="enable-background:new 0 0 511.999 511.999;" xml:space="preserve">
<g>
	<path style="fill:#F99A98;" d="M320.456,216.594c-34.209,0.105-50.321-12.003-57.875-23.905c-2.083,0.634-4.289,0.972-6.58,0.972   c-2.289,0-4.496-0.338-6.58-0.974c-7.555,11.905-23.666,24.012-57.876,23.907c-19.529-0.061-17.919-16.824-15.128-22.509   c4.446-9.062,12.862-13.928,12.862-22.992c0-9.067-8.415-13.93-12.862-22.993c-2.791-5.684-4.4-22.448,15.128-22.509   c34.21-0.105,50.322,12.001,57.876,23.906c2.083-0.635,4.289-0.975,6.58-0.975c2.289,0,4.496,0.34,6.58,0.975   c7.555-11.906,23.666-24.011,57.875-23.906c19.53,0.061,17.919,16.824,15.128,22.509c-4.447,9.063-12.86,13.926-12.86,22.993   c0,9.064,8.413,13.93,12.86,22.992C338.375,199.769,339.984,216.534,320.456,216.594L320.456,216.594z M128.333,41.833   C89.12,64.475,30.047,148.27,10.666,181.836c9.551,22.185,34.52,49.65,61.947,66.614c10.165-10.297,38.674-42.767,53.568-62.91   c13.641,33.05-29.681,213.849-29.681,284.627h159.5h159.498c0-70.779-43.321-251.577-29.678-284.627   c14.893,20.143,43.403,52.612,53.568,62.91c27.426-16.964,52.394-44.429,61.943-66.614   c-19.376-33.566-78.45-117.36-117.667-140.003C322.083,103.417,189.918,103.417,128.333,41.833z"/>
	<path style="fill:#F9EACD;" d="M262.58,192.688c7.555,11.903,23.666,24.01,57.875,23.905c19.53-0.061,17.919-16.824,15.128-22.509   c-4.447-9.062-12.86-13.928-12.86-22.992c0-9.067,8.413-13.93,12.86-22.993c2.791-5.684,4.401-22.448-15.128-22.509   c-34.209-0.105-50.321,12.001-57.875,23.906c9.253,2.817,15.989,11.419,15.989,21.595   C278.57,181.269,271.833,189.871,262.58,192.688z"/>
	<path style="fill:#7BA9D6;" d="M262.58,192.688c9.253-2.817,15.989-11.419,15.989-21.595s-6.736-18.779-15.989-21.595   c-2.083-0.635-4.291-0.975-6.58-0.975c-2.288,0-4.496,0.34-6.58,0.975c-9.255,2.817-15.99,11.419-15.99,21.595   c0,10.173,6.735,18.779,15.99,21.593c2.083,0.636,4.289,0.974,6.58,0.974C258.29,193.66,260.497,193.322,262.58,192.688z"/>
	<path style="fill:#F9EACD;" d="M249.421,192.688c-9.255-2.817-15.99-11.421-15.99-21.595c0-10.176,6.735-18.779,15.99-21.595   c-7.555-11.906-23.666-24.011-57.876-23.906c-19.529,0.061-17.919,16.824-15.128,22.509c4.446,9.063,12.862,13.926,12.862,22.993   c0,9.064-8.415,13.93-12.862,22.992c-2.791,5.684-4.4,22.448,15.128,22.509C225.755,216.698,241.867,204.591,249.421,192.688z"/>
</g>
<g>
	<path style="fill:#000003;" d="M510.571,176.502c-16.36-28.34-78.047-118.779-121.573-143.907   c-4.183-2.415-9.462-1.718-12.875,1.696c-26.964,26.965-71.87,43.064-120.121,43.064c-48.252,0-93.159-16.099-120.123-43.065   c-3.415-3.412-8.696-4.109-12.878-1.695C79.482,57.722,17.791,148.161,1.429,176.502c-1.683,2.916-1.891,6.458-0.559,9.551   c10.727,24.916,37.303,53.635,66.133,71.469c4.231,2.616,9.708,1.963,13.204-1.579c6.923-7.015,23.302-25.306,37.91-42.985   c-1.17,29.819-9.076,79.553-15.781,121.732c-8.112,51.034-16.502,103.806-16.502,135.476c0,5.892,4.776,10.667,10.667,10.667H415.5   c0.006,0,0.014-0.001,0.021,0c5.892,0,10.667-4.776,10.667-10.667c0-0.236-0.009-0.469-0.022-0.701   c-0.121-31.745-8.446-84.115-16.499-134.773c-6.704-42.179-14.611-91.915-15.78-121.734c14.609,17.681,30.987,35.971,37.91,42.985   c3.495,3.539,8.971,4.194,13.203,1.579c28.833-17.835,55.408-46.556,66.131-71.47C512.461,182.96,512.254,179.419,510.571,176.502z    M440.988,234.623c-12.432-13.495-34.26-38.747-46.59-55.424c-2.288-3.094-6.064-4.716-9.883-4.245   c-3.818,0.469-7.088,2.96-8.556,6.517c-8.25,19.99-0.731,72.487,12.636,156.572c7.103,44.689,14.422,90.73,15.947,121.457H107.456   c1.525-30.728,8.844-76.77,15.949-121.459c13.366-84.084,20.888-136.58,12.638-156.571c-1.469-3.556-4.737-6.047-8.556-6.517   c-3.821-0.475-7.594,1.151-9.882,4.245c-12.328,16.674-34.158,41.927-46.59,55.424c-20.414-14.295-39.067-34.445-48.286-52.242   C44.87,145.51,93.369,79.469,127.129,55.32c4.581,4.03,9.487,7.8,14.674,11.312c-10.596,10.491-21.531,22.444-29.703,31.64   c-3.914,4.403-3.516,11.146,0.889,15.06c2.031,1.805,4.56,2.692,7.082,2.692c2.942,0,5.869-1.21,7.978-3.581   c12.3-13.841,23.735-25.883,32.898-34.674c27.293,13.541,60.082,20.92,95.055,20.92c51.041,0,97.438-15.712,128.87-43.37   c33.764,24.152,82.261,90.193,104.401,127.061C480.055,200.177,461.403,220.326,440.988,234.623z"/>
	<path style="fill:#000003;" d="M359.117,356.948c5.825-0.88,9.834-6.316,8.955-12.141L368,344.341   c-0.941-5.817-6.422-9.773-12.233-8.829c-5.816,0.94-9.768,6.417-8.828,12.233l0.039,0.25c0.798,5.285,5.346,9.075,10.534,9.075   C358.04,357.07,358.577,357.031,359.117,356.948z"/>
	<path style="fill:#000003;" d="M107.147,119.987c-4.483-3.656-11.045-3.06-14.806,1.286c-0.146,0.163-0.285,0.327-0.364,0.422   c-3.744,4.55-3.09,11.271,1.458,15.015c1.985,1.634,4.385,2.43,6.772,2.43c2.994,0,5.965-1.253,8.068-3.679   c0.162-0.182,0.317-0.365,0.4-0.467C112.397,130.429,111.712,123.71,107.147,119.987z"/>
	<path style="fill:#000003;" d="M360.492,365.036c-5.822,0.901-9.811,6.352-8.909,12.175c2.548,16.454,4.482,29.805,6.086,42.015   c0.415,3.159,0.835,6.368,1.246,9.613c0.683,5.391,5.275,9.33,10.569,9.33c0.447,0,0.898-0.028,1.353-0.085   c5.845-0.738,9.983-6.076,9.244-11.922c-0.415-3.278-0.84-6.521-1.259-9.715c-1.625-12.377-3.581-25.882-6.156-42.503   C371.763,368.123,366.317,364.137,360.492,365.036z"/>
	<path style="fill:#000003;" d="M345.16,189.386c-2.223-4.528-4.984-7.977-7.419-11.018c-2.779-3.469-4.35-5.517-4.35-7.274   c0-1.758,1.572-3.806,4.35-7.275c2.435-3.042,5.196-6.489,7.417-11.015c3.275-6.669,4.375-17.754-0.952-26.331   c-3.256-5.245-10.013-11.505-23.718-11.547c-0.156,0-0.306,0-0.463,0c-33.971,0-52.283,11.44-62.117,22.991   c-0.633-0.036-1.267-0.06-1.908-0.06c-0.642,0-1.276,0.022-1.908,0.059c-9.878-11.612-28.313-23.131-62.58-22.99   c-13.704,0.043-20.463,6.303-23.719,11.547c-5.325,8.578-4.226,19.662-0.954,26.328c2.222,4.529,4.984,7.978,7.42,11.018   c2.778,3.469,4.35,5.517,4.35,7.275c0,1.758-1.573,3.805-4.35,7.274c-2.436,3.042-5.198,6.49-7.419,11.016   c-3.274,6.669-4.374,17.754,0.953,26.331c3.257,5.244,10.015,11.504,23.72,11.546c0.156,0.001,0.306,0.001,0.463,0.001   c33.969,0,52.282-11.442,62.115-22.993c0.632,0.035,1.267,0.059,1.908,0.059c0.641,0,1.276-0.022,1.908-0.059   c9.832,11.553,28.141,22.993,62.117,22.993c0.154,0,0.308,0,0.463-0.001c13.705-0.043,20.463-6.302,23.718-11.546   C349.532,207.137,348.433,196.053,345.16,189.386z M267.902,171.094c0,6.561-5.339,11.899-11.901,11.899   c-6.561,0-11.9-5.338-11.9-11.899c0-6.563,5.339-11.903,11.9-11.903C262.563,159.191,267.902,164.531,267.902,171.094z    M191.976,205.928c-0.131,0-0.266,0-0.398-0.001c-2.882-0.009-5.102-0.58-5.655-1.457c-0.867-1.377-0.467-4.555,0.069-5.685   c1.188-2.423,3.002-4.685,4.919-7.081c4.024-5.024,9.033-11.277,9.033-20.61c0-9.334-5.008-15.587-9.034-20.612   c-1.918-2.395-3.729-4.656-4.918-7.079c-0.537-1.131-0.937-4.309-0.069-5.686c0.553-0.876,2.772-1.448,5.655-1.457   c0.133,0,0.265,0,0.398,0c17.955,0,31.886,3.725,41.03,10.87c-6.303,6.053-10.241,14.555-10.241,23.964s3.936,17.909,10.241,23.962   C223.861,202.202,209.932,205.928,191.976,205.928z M321.088,191.704c1.919,2.396,3.73,4.657,4.919,7.081   c0.538,1.131,0.936,4.307,0.068,5.685c-0.551,0.877-2.771,1.449-5.653,1.457c-0.133,0.001-0.265,0.001-0.398,0.001   c-17.955,0-31.885-3.726-41.03-10.872c6.304-6.052,10.242-14.553,10.242-23.962c0-9.407-3.935-17.909-10.24-23.962   c9.218-7.201,23.295-10.936,41.425-10.872c2.881,0.01,5.101,0.581,5.653,1.457c0.867,1.377,0.468,4.555-0.068,5.686   c-1.188,2.423-3.001,4.685-4.919,7.079c-4.023,5.025-9.032,11.278-9.032,20.612C312.056,180.426,317.065,186.68,321.088,191.704z"/>
</g>
<g>
</g>
<g>
</g>
<g>
</g>
<g>
</g>
<g>
</g>
<g>
</g>
<g>
</g>
<g>
</g>
<g>
</g>
<g>
</g>
<g>
</g>
<g>
</g>
<g>
</g>
<g>
</g>
<g>
</g>
</svg>
