<?xml version="1.0" encoding="iso-8859-1"?>
<!-- Generator: Adobe Illustrator 19.0.0, SVG Export Plug-In . SVG Version: 6.00 Build 0)  -->
<svg xmlns="http://www.w3.org/2000/svg" xmlns:xlink="http://www.w3.org/1999/xlink" version="1.1" id="Layer_1" x="0px" y="0px" viewBox="0 0 512 512" style="enable-background:new 0 0 512 512;" xml:space="preserve">
<g>
	<path style="fill:#F9EACD;" d="M213.157,329.055l-15.09-15.084l-15.082-15.089l-99.453,99.457   c-6.038-2.371-12.613-3.674-19.487-3.674c-29.456,0-53.336,23.88-53.334,53.333c0,29.456,23.879,53.333,53.334,53.333   c29.451,0,53.332-23.878,53.332-53.333c0-6.879-1.302-13.452-3.675-19.49L213.157,329.055z"/>
	<path style="fill:#F99A98;" d="M182.985,298.883l15.082,15.089l15.09,15.084l15.078,15.086   c18.567-18.567,35.412-27.491,75.956-17.841c52.251,12.435,109.548-1.729,150.315-42.497c62.483-62.485,62.483-163.787,0-226.273   c-62.48-62.483-163.789-62.483-226.271,0.002c-40.767,40.768-54.934,98.062-42.494,150.317   c9.649,40.545,0.725,57.387-17.843,75.955L182.985,298.883L182.985,298.883z M317.508,194.61l-27.774-12.985l22.353-20.831   l3.767-30.425l26.718,14.818l30.1-5.818l-5.836,29.991l14.838,26.829l-30.329,3.715l-20.93,22.4L317.508,194.61z"/>
	<polygon style="fill:#FFE67B;" points="317.508,194.61 330.414,222.303 351.344,199.903 381.673,196.187 366.835,169.358    372.671,139.367 342.571,145.185 315.853,130.367 312.086,160.792 289.733,181.624  "/>
</g>
<g>
	<path style="fill:#000003;" d="M462.052,49.986C429.816,17.753,386.959,0,341.374,0c-45.588,0-88.447,17.753-120.68,49.988   c-20.983,20.983-36.179,47.12-43.948,75.585c-7.532,27.597-8.009,56.9-1.381,84.743c9.109,38.277-0.029,50.961-15.009,65.943   c-4.165,4.166-4.165,10.92,0,15.086l7.542,7.541l-87.278,87.281c-5.38-1.441-10.928-2.169-16.574-2.169   c-17.096,0-33.169,6.657-45.257,18.746C6.699,414.833,0.043,430.905,0.043,448c0,35.29,28.712,64.001,64.002,64.001   s63.999-28.711,63.999-64.001c0-5.643-0.728-11.194-2.171-16.577l87.28-87.278l7.54,7.539c2,2.001,4.713,3.124,7.542,3.124   c2.829,0,5.542-1.124,7.544-3.124c12.095-12.096,21.975-18.651,39.508-18.651c7.486,0,16.13,1.193,26.432,3.645   c12.965,3.086,26.312,4.651,39.665,4.651c45.58,0,88.434-17.751,120.665-49.983C528.593,224.804,528.593,116.531,462.052,49.986z    M106.158,420.966c-2.999,3-3.935,7.492-2.385,11.441c1.95,4.968,2.938,10.214,2.938,15.592c0,23.527-19.138,42.666-42.665,42.666   S21.378,471.526,21.378,448c0-11.397,4.438-22.111,12.497-30.169c8.059-8.059,18.772-12.497,30.17-12.497   c5.384,0,10.628,0.988,15.586,2.935c3.95,1.552,8.442,0.614,11.445-2.386l91.905-91.91l15.087,15.087L106.158,420.966z    M446.965,276.259c-28.202,28.202-65.698,43.734-105.582,43.734c-11.69,0-23.372-1.37-34.721-4.071   c-11.942-2.843-22.204-4.225-31.375-4.225c-20.384,0-34.173,6.81-46.788,17.621l-7.719-7.719c-0.027-0.029-0.052-0.061-0.079-0.089   l-30.175-30.171c-0.021-0.022-0.046-0.041-0.068-0.063l-7.751-7.75c15.961-18.716,22.614-39.481,13.411-78.151   c-12.117-50.901,2.708-103.351,39.661-140.304c28.203-28.204,65.705-43.738,105.593-43.738s77.388,15.533,105.591,43.737   C505.189,123.297,505.189,218.035,446.965,276.259z"/>
	<path style="fill:#000003;" d="M56.5,440.458c-4.167,4.165-4.167,10.918,0,15.086c4.167,4.163,10.919,4.163,15.087,0   c4.162-4.167,4.162-10.92,0-15.086C67.419,436.292,60.667,436.292,56.5,440.458z"/>
	<path style="fill:#000003;" d="M276.236,60.481c-5.071,2.999-6.752,9.54-3.755,14.611c2.998,5.071,9.54,6.752,14.611,3.755   c41.93-24.787,95.266-18.046,129.708,16.396c2.083,2.083,4.813,3.124,7.542,3.124c2.732,0,5.461-1.041,7.544-3.124   c4.165-4.166,4.165-10.92,0-15.087C390.555,38.828,326.551,30.737,276.236,60.481z"/>
	<path style="fill:#000003;" d="M370.04,273.408c-27.442,7.657-57.328,3.876-81.998-10.366c-5.1-2.945-11.625-1.197-14.572,3.904   c-2.946,5.102-1.198,11.626,3.904,14.572c19.549,11.288,41.825,17.099,64.189,17.099c11.5,0,23.026-1.538,34.21-4.657   c5.675-1.583,8.993-7.466,7.408-13.141C381.599,275.142,375.713,271.826,370.04,273.408z"/>
	<path style="fill:#000003;" d="M251.504,79.524l-0.586,0.579c-4.197,4.136-4.246,10.889-0.111,15.086   c2.088,2.117,4.842,3.179,7.598,3.179c2.704,0,5.41-1.022,7.488-3.07l0.498-0.492c4.221-4.111,4.309-10.865,0.196-15.085   C262.477,75.501,255.725,75.412,251.504,79.524z"/>
	<path style="fill:#000003;" d="M394.77,263.007l-0.645,0.367c-5.128,2.9-6.932,9.41-4.031,14.536   c1.963,3.469,5.576,5.417,9.294,5.417c1.779,0,3.583-0.446,5.242-1.385l0.684-0.387c5.124-2.911,6.915-9.423,4.002-14.545   C406.405,261.888,399.891,260.097,394.77,263.007z"/>
	<path style="fill:#000003;" d="M380.22,131.825c-2.505-2.508-6.09-3.61-9.574-2.935l-26.292,5.084l-23.328-12.937   c-3.098-1.72-6.853-1.786-10.009-0.179c-3.161,1.608-5.314,4.68-5.751,8.198l-3.29,26.576l-19.516,18.187   c-2.594,2.417-3.817,5.964-3.265,9.466c0.553,3.502,2.809,6.501,6.02,8.002l24.26,11.341l11.271,24.181   c1.496,3.213,4.492,5.471,7.992,6.028c0.56,0.089,1.119,0.132,1.677,0.132c2.929,0,5.758-1.208,7.792-3.385l18.283-19.566   l26.48-3.244c3.519-0.431,6.592-2.581,8.204-5.739c1.611-3.158,1.548-6.91-0.166-10.011l-12.963-23.436l5.096-26.186   C383.82,137.923,382.723,134.334,380.22,131.825z M350.047,189.315c-2.485,0.305-4.785,1.474-6.496,3.306l-10.142,10.854   l-6.234-13.374c-1.056-2.27-2.881-4.096-5.15-5.157l-13.457-6.291l10.792-10.057c1.834-1.709,3.006-4.007,3.312-6.493l1.827-14.743   l12.899,7.153c2.192,1.216,4.744,1.622,7.198,1.145l14.586-2.82l-2.818,14.482c-0.479,2.459-0.077,5.008,1.135,7.2l7.192,13   L350.047,189.315z"/>
</g>
<g>
</g>
<g>
</g>
<g>
</g>
<g>
</g>
<g>
</g>
<g>
</g>
<g>
</g>
<g>
</g>
<g>
</g>
<g>
</g>
<g>
</g>
<g>
</g>
<g>
</g>
<g>
</g>
<g>
</g>
</svg>
