<?xml version="1.0" encoding="iso-8859-1"?>
<!-- Generator: Adobe Illustrator 19.0.0, SVG Export Plug-In . SVG Version: 6.00 Build 0)  -->
<svg xmlns="http://www.w3.org/2000/svg" xmlns:xlink="http://www.w3.org/1999/xlink" version="1.1" id="Layer_1" x="0px" y="0px" viewBox="0 0 512 512" style="enable-background:new 0 0 512 512;" xml:space="preserve">
<g>
	<path style="fill:#F9EACD;" d="M256,417.342c-34.21-21.832-51.62-34.864-61.96-51.248c-23.778-37.663,22.285-86.566,61.96-44.402   c39.674-42.166,85.737,6.739,61.96,44.402C307.619,382.479,290.21,395.511,256,417.342L256,417.342z M256,242.785   c-48.724,0-88.223-39.499-88.223-88.223c0-30.719,15.006-57.026,40.185-73.904c37.893-25.403,33.518-84.866-28.902-66.543   C112.619,33.612,63.746,95.289,63.746,167.822v208.059c0,69,56.451,125.452,125.449,125.452h66.806h66.803   c69,0,125.452-56.451,125.452-125.452V167.822c0-72.533-48.873-134.209-115.314-153.706   c-62.421-18.323-66.798,41.138-28.902,66.543c25.177,16.878,40.184,43.185,40.184,73.904   C344.222,203.285,304.724,242.785,256,242.785z"/>
	<path style="fill:#F99A98;" d="M194.04,366.094c10.342,16.384,27.75,29.416,61.96,51.248c34.21-21.832,51.617-34.864,61.96-51.248   c23.777-37.663-22.286-86.566-61.96-44.402C216.325,279.528,170.262,328.432,194.04,366.094z"/>
</g>
<g>
	<path style="fill:#000003;" d="M423.995,64.613C401.9,35.627,370.629,14.057,335.944,3.88C327.174,1.306,318.956,0,311.517,0   c-20.282,0-35.442,10.037-40.555,26.849c-6.511,21.407,4.902,47.764,27.137,62.669c22.865,15.328,35.456,38.427,35.456,65.044   c0,42.764-34.79,77.555-77.554,77.555c-42.765,0-77.555-34.791-77.555-77.555c0-26.617,12.592-49.716,35.457-65.044   c22.237-14.908,33.652-41.264,27.14-62.67C235.928,10.037,220.767,0,200.482,0c-7.438,0-15.657,1.306-24.426,3.88   C141.37,14.057,110.1,35.627,88.004,64.613c-22.848,29.973-34.926,65.661-34.926,103.209v208.059   C53.078,450.937,114.14,512,189.195,512h133.608c75.056,0,136.119-61.063,136.119-136.119V167.822   C458.923,130.274,446.844,94.586,423.995,64.613z M437.588,375.881c0,63.292-51.492,114.784-114.784,114.784h-133.61   c-63.291,0-114.782-51.492-114.782-114.784V167.822c0-65.874,44.267-124.871,107.652-143.471   c6.817-2.002,13.014-3.017,18.418-3.017c7.565,0,17.201,2.034,20.149,11.722c3.262,10.724-2.808,28.148-18.609,38.74   c-28.542,19.134-44.911,49.3-44.911,82.765c0,54.528,44.362,98.89,98.89,98.89s98.889-44.362,98.889-98.89   c0-33.465-16.37-63.633-44.911-82.764c-15.801-10.592-21.868-28.014-18.605-38.739c2.946-9.69,12.58-11.724,20.143-11.724   c5.404,0,11.601,1.014,18.42,3.017c63.383,18.599,107.651,77.597,107.651,143.471V375.881z"/>
	<path style="fill:#000003;" d="M125.212,103.253c-5.226-2.717-11.668-0.684-14.385,4.543l-0.105,0.194   c-2.781,5.192-0.814,11.628,4.378,14.412c1.597,0.857,3.315,1.262,5.011,1.262c3.817,0,7.515-2.053,9.444-5.647l0.201-0.378   C132.472,112.412,130.439,105.971,125.212,103.253z"/>
	<path style="fill:#000003;" d="M112.05,130.516c-5.727-1.362-11.484,2.172-12.851,7.903c-2.291,9.617-3.454,19.509-3.454,29.403   v46.621c0,5.892,4.776,10.667,10.667,10.667c5.892,0,10.667-4.776,10.667-10.667v-46.621c0-8.23,0.966-16.457,2.873-24.456   C121.319,137.636,117.782,131.882,112.05,130.516z"/>
	<path style="fill:#000003;" d="M323.152,447.998h-0.349c-5.891,0-10.667,4.776-10.667,10.667c0,5.892,4.777,10.667,10.667,10.667   h0.349c5.892,0,10.667-4.776,10.667-10.667C333.819,452.774,329.044,447.998,323.152,447.998z"/>
	<path style="fill:#000003;" d="M351.789,441.849c-0.566,0.254-1.146,0.501-1.722,0.74c-5.442,2.255-8.026,8.495-5.771,13.938   c1.703,4.108,5.673,6.586,9.859,6.586c1.36,0,2.745-0.262,4.079-0.815c0.755-0.313,1.515-0.639,2.243-0.963   c33.884-15.072,55.778-48.615,55.778-85.454c0-5.892-4.777-10.667-10.667-10.667c-5.892,0-10.667,4.776-10.667,10.667   C394.921,404.301,377.996,430.193,351.789,441.849z"/>
	<path style="fill:#000003;" d="M288.43,294.772c-8.227,0-19.965,2.34-32.43,12.38c-12.466-10.041-24.203-12.38-32.431-12.38   c-16.468,0-31.936,9.502-40.367,24.797c-9.092,16.493-8.413,36.014,1.818,52.219c11.606,18.386,30.286,32.239,65.241,54.546   c1.751,1.117,3.744,1.675,5.739,1.675c1.994,0,3.987-0.558,5.738-1.675c34.957-22.307,53.635-36.16,65.241-54.545   c10.232-16.206,10.912-35.727,1.82-52.22C320.368,304.274,304.899,294.772,288.43,294.772z M308.939,360.4   c-8.866,14.045-24.395,25.853-52.939,44.268c-28.544-18.416-44.073-30.225-52.941-44.269c-6.018-9.533-6.457-20.946-1.174-30.53   c4.681-8.489,12.99-13.763,21.683-13.763c8.197,0,16.724,4.46,24.662,12.896c2.016,2.143,4.827,3.357,7.769,3.357   c2.942,0,5.753-1.215,7.768-3.357c7.939-8.437,16.467-12.896,24.662-12.896c8.696,0,17.006,5.273,21.686,13.762   C315.399,339.452,314.959,350.865,308.939,360.4z"/>
</g>
<g>
</g>
<g>
</g>
<g>
</g>
<g>
</g>
<g>
</g>
<g>
</g>
<g>
</g>
<g>
</g>
<g>
</g>
<g>
</g>
<g>
</g>
<g>
</g>
<g>
</g>
<g>
</g>
<g>
</g>
</svg>
