<?xml version="1.0" encoding="iso-8859-1"?>
<!-- Generator: Adobe Illustrator 19.0.0, SVG Export Plug-In . SVG Version: 6.00 Build 0)  -->
<svg xmlns="http://www.w3.org/2000/svg" xmlns:xlink="http://www.w3.org/1999/xlink" version="1.1" id="Layer_1" x="0px" y="0px" viewBox="0 0 512.001 512.001" style="enable-background:new 0 0 512.001 512.001;" xml:space="preserve">
<g>
	<path style="fill:#7BA9D6;" d="M81.355,83.701c38.007-0.829,98.558,5.381,131.169,34.106c3.65-30.015,15.55-73.251,48.457-107.09   c-1.656-0.032-3.316-0.049-4.982-0.049C187.656,10.667,125.841,38.613,81.355,83.701z"/>
	<path style="fill:#F9EACD;" d="M212.524,117.807c-32.61-28.726-93.161-34.935-131.169-34.106   c-31.203,31.623-53.878,71.68-64.3,116.44C55.702,165.942,104.604,116.254,212.524,117.807z"/>
	<path style="fill:#FFA233;" d="M212.524,117.807c-107.921-1.552-156.823,48.135-195.469,82.334   c-4.177,17.944-6.388,36.645-6.388,55.859c0,135.494,109.84,245.333,245.332,245.333c9.869,0,19.605-0.583,29.171-1.716   C63.568,357.379,165.942,140.321,212.524,117.807z"/>
	<path style="fill:#9FDEE2;" d="M212.524,117.807C165.942,140.321,63.567,357.38,285.17,499.617   c51.288-6.076,97.73-27.976,134.303-60.682c8.811-25.384,12.867-53.417,12.29-82.033   C429.46,243.192,353.945,120.287,212.524,117.807z"/>
	<path style="fill:#F99A98;" d="M212.524,117.807c141.421,2.48,216.934,125.385,219.239,239.096   c0.577,28.616-3.479,56.649-12.29,82.033c50.238-44.924,81.858-110.238,81.858-182.936c0-82.758-40.977-155.945-103.75-200.379   C348.392,51.041,279.288,55.697,212.524,117.807z"/>
	<path style="fill:#FFE67B;" d="M212.524,117.807c66.764-62.109,135.868-66.766,185.057-62.186   C358.844,28.202,311.81,11.73,260.98,10.716C228.074,44.556,216.174,87.791,212.524,117.807z"/>
</g>
<g>
	<path style="fill:#000003;" d="M511.998,256c0-85.642-42.277-161.59-107.053-208.087c-0.756-0.723-1.62-1.336-2.569-1.813   C362.224,18.015,313.686,1.142,261.331,0.067c-0.212-0.007-0.427-0.014-0.64-0.009C259.13,0.031,257.569,0,256.002,0   C185.368,0,121.326,28.755,74.962,75.173c-0.873,0.656-1.637,1.441-2.273,2.329c-31.775,32.624-54.943,73.662-65.793,119.421   c-0.164,0.521-0.299,1.05-0.381,1.587c-4.258,18.486-6.512,37.73-6.512,57.491c0,141.16,114.84,256,255.999,256   c10.149,0,20.156-0.612,30-1.768c0.273-0.021,0.546-0.051,0.817-0.093c52.712-6.353,100.539-28.788,138.427-62.241   c0.916-0.59,1.746-1.322,2.452-2.178C479.443,398.845,511.998,331.154,511.998,256z M490.664,256   c0,55.207-19.174,106.014-51.197,146.137c2.141-13.798,3.158-28.022,3.009-42.497c17.271-31.072,26.856-66.58,26.856-103.64   c0-5.892-4.776-10.667-10.667-10.667c-5.89,0-10.667,4.776-10.667,10.667c0,20.586-3.29,40.637-9.459,59.549   c-6.87-41.024-22.383-79.723-45.088-112.234c-20.181-28.899-45.159-51.843-74.239-68.195   c-24.376-13.706-51.123-22.417-79.78-26.055c44.519-33.812,95.202-47.93,154.113-43.071   C452.348,108.679,490.664,177.944,490.664,256z M287.68,488.519c-113.003-73.995-132.391-163.957-128.611-226.67   c4.177-69.306,37.56-121.803,56.064-133.304c84.338,2.46,133.97,48.526,160.827,86.984c27.808,39.822,43.366,89.926,44.959,138.788   c-20.156,33.806-50.631,61.328-88.263,77.716c-5.402,2.352-7.874,8.638-5.521,14.039c1.748,4.015,5.67,6.411,9.785,6.411   c1.422,0,2.868-0.286,4.253-0.89c30.741-13.386,57.183-33.461,77.932-58.078c-1.742,13.489-4.665,26.614-8.794,39.126   C376.541,462.18,334.26,482.205,287.68,488.519z M86.091,94.304c28.789-0.192,62.818,3.755,89.841,14.353   c-64.889,6.543-106.081,32.75-136.983,58.191C50.113,139.762,66.192,115.203,86.091,94.304z M356.724,44.078   c-47.473,2.54-89.759,17.858-127.944,46.294c5.826-21.286,16.628-46.841,36.665-68.831C298,22.836,328.868,30.786,356.724,44.078z    M204.792,99.044c-29.562-17.871-68.724-23.679-96.299-25.406c35.86-29.063,80.417-47.791,129.107-51.585   C218.458,48.589,209.236,77.307,204.792,99.044z M21.337,256c0-17.233,1.886-34.032,5.427-50.217c1.37-1.22,2.748-2.45,4.147-3.702   c33.54-29.995,74.469-66.604,153.043-72.745c-7.024,8.812-13.871,19.686-19.995,31.969c-10.484,21.023-23.537,55.31-26.186,99.261   c-2.672,44.321,5.995,86.691,25.757,125.929c19.579,38.876,49.813,73.805,90.059,104.14C125.303,489.333,21.337,384.588,21.337,256   z"/>
	<path style="fill:#000003;" d="M306.156,441.331l-0.478,0.13c-5.688,1.533-9.015,7.375-7.482,13.063   c1.281,4.758,5.614,7.884,10.326,7.884c0.922,0,1.858-0.119,2.788-0.37l0.604-0.165c5.672-1.59,8.983-7.478,7.392-13.151   C317.716,443.05,311.831,439.741,306.156,441.331z"/>
</g>
<g>
</g>
<g>
</g>
<g>
</g>
<g>
</g>
<g>
</g>
<g>
</g>
<g>
</g>
<g>
</g>
<g>
</g>
<g>
</g>
<g>
</g>
<g>
</g>
<g>
</g>
<g>
</g>
<g>
</g>
</svg>
