<?xml version="1.0" encoding="iso-8859-1"?>
<!-- Generator: Adobe Illustrator 19.0.0, SVG Export Plug-In . SVG Version: 6.00 Build 0)  -->
<svg xmlns="http://www.w3.org/2000/svg" xmlns:xlink="http://www.w3.org/1999/xlink" version="1.1" id="Layer_1" x="0px" y="0px" viewBox="0 0 512 512" style="enable-background:new 0 0 512 512;" xml:space="preserve">
<g>
	<path style="fill:#9FDEE2;" d="M213.329,181.334c5.87,0,10.673-4.802,10.673-10.675V95.999c0-46.936-38.398-85.332-85.334-85.332   c-46.934,0-85.334,38.396-85.334,85.332v74.659c0,5.872,4.805,10.675,10.676,10.675h53.326c0-11.782,9.55-21.335,21.332-21.335   c11.784,0,21.335,9.553,21.335,21.335H213.329z"/>
	<path style="fill:#F99A98;" d="M352,330.665h-53.324c-5.873,0-10.676,4.802-10.676,10.675V416   c0,46.936,38.398,85.332,85.334,85.332s85.332-38.397,85.332-85.332V341.34c0-5.872-4.8-10.675-10.673-10.675H394.67   c0,11.782-9.553,21.335-21.335,21.335C361.553,352,352,342.447,352,330.665z"/>
</g>
<g>
	<path style="fill:#000003;" d="M138.667,0C85.733,0,42.666,43.065,42.666,95.999v74.659c0,7.881,4.304,14.76,10.676,18.457v237.559   c0,47.048,38.278,85.325,85.328,85.325c5.882,0,11.625-0.598,17.175-1.737c38.846-7.97,68.152-42.421,68.152-83.588V189.115   c6.369-3.696,10.673-10.576,10.673-18.457V95.999C234.669,43.065,191.604,0,138.667,0z M184.401,471.372   c-0.17,0.174-0.332,0.357-0.505,0.529c-0.114,0.113-0.236,0.221-0.35,0.334c-11.559,11.387-27.409,18.43-44.877,18.43   c-35.285-0.001-63.991-28.707-63.991-63.992s28.706-63.992,63.991-63.992s63.992,28.707,63.992,63.992   C202.661,444.053,195.687,459.828,184.401,471.372z M138.669,341.346c-25.466,0-48.346,11.228-63.993,28.978V192.001h42.659   c5.892,0,10.667-4.776,10.667-10.667c0-5.882,4.784-10.667,10.665-10.667c5.883,0,10.667,4.785,10.667,10.667   c0,5.892,4.777,10.667,10.667,10.667h42.66v178.32C187.013,352.573,164.135,341.346,138.669,341.346z M213.332,170.666h-44.49   c-3.219-9.077-10.432-16.264-19.507-19.486v-33.847c0-5.892-4.776-10.667-10.667-10.667c-5.89,0-10.667,4.776-10.667,10.667v33.847   c-9.074,3.222-16.286,10.408-19.503,19.483L64,170.657V95.999c0-41.17,33.495-74.665,74.667-74.665   c41.173,0,74.667,33.494,74.667,74.665L213.332,170.666z"/>
	<path style="fill:#000003;" d="M179.474,61.801c-3.815-4.479-10.507-4.986-14.993-1.178c-4.475,3.801-5.006,10.537-1.233,15.029   c2.107,2.571,5.168,3.905,8.257,3.905c2.352,0,4.721-0.776,6.694-2.368c4.584-3.7,5.301-10.417,1.599-15.001   C179.699,62.066,179.591,61.939,179.474,61.801z"/>
	<path style="fill:#000003;" d="M144.796,43.021c-2.028-0.236-4.09-0.355-6.129-0.355c-29.408,0-53.334,23.926-53.334,53.334   c0,5.892,4.777,10.667,10.667,10.667c5.892,0,10.667-4.776,10.667-10.667c0-17.346,14.655-32,32-32c1.218,0,2.45,0.071,3.663,0.213   c5.848,0.676,11.147-3.51,11.83-9.362C154.841,48.999,150.65,43.703,144.796,43.021z"/>
	<path style="fill:#000003;" d="M458.663,322.885V85.406c0-0.027,0.002-0.054,0.002-0.082C458.665,38.276,420.388,0,373.337,0   c0,0-0.001,0-0.002,0c0,0-0.001,0-0.002,0c-47.047,0-85.324,38.276-85.324,85.325v237.56c-6.372,3.696-10.676,10.577-10.676,18.457   v74.659c0,52.934,43.067,95.999,96.002,95.999s95.999-43.065,95.999-95.999v-74.659   C469.336,333.461,465.031,326.581,458.663,322.885z M437.328,319.998H394.67c-5.89,0-10.667,4.776-10.667,10.667   c0,5.882-4.784,10.667-10.667,10.667c-5.882,0-10.667-4.785-10.667-10.667c0-5.892-4.776-10.667-10.667-10.667h-42.656V141.675   c15.647,17.75,38.527,28.979,63.993,28.979c25.464,0,48.342-11.226,63.99-28.973v178.318H437.328z M437.328,85.325v0.082   c-0.045,35.249-28.732,63.912-63.99,63.912c-35.285,0-63.991-28.708-63.991-63.994c0-35.284,28.706-63.99,63.991-63.99   C408.623,21.335,437.328,50.04,437.328,85.325z M448.001,416c0,41.17-33.493,74.665-74.665,74.665h-0.002   c-41.169,0-74.665-33.494-74.665-74.665l0.009-74.667h44.485c3.218,9.077,10.43,16.264,19.506,19.486v33.846   c0,5.892,4.777,10.667,10.667,10.667c5.892,0,10.667-4.776,10.667-10.667v-33.847c9.076-3.22,16.289-10.408,19.507-19.484   l44.49,0.006L448.001,416L448.001,416z"/>
	<path style="fill:#000003;" d="M397.958,436.295l-0.087,0.103c-3.801,4.503-3.202,11.199,1.3,14.999   c1.994,1.682,4.428,2.501,6.855,2.501c3.052,0,6.088-1.298,8.205-3.806l0.086-0.103c3.801-4.503,3.203-11.2-1.298-14.999   C408.517,431.191,401.758,431.794,397.958,436.295z"/>
	<path style="fill:#000003;" d="M377.003,447.786c-1.221,0.142-2.455,0.213-3.67,0.213c-17.345,0-32-14.654-32-32   c0-5.892-4.776-10.667-10.667-10.667c-5.891,0-10.667,4.776-10.667,10.667c0,29.409,23.927,53.334,53.334,53.334   c2.032,0,4.094-0.119,6.127-0.355c5.852-0.678,10.046-5.974,9.367-11.826C388.149,451.301,382.85,447.106,377.003,447.786z"/>
</g>
<g>
</g>
<g>
</g>
<g>
</g>
<g>
</g>
<g>
</g>
<g>
</g>
<g>
</g>
<g>
</g>
<g>
</g>
<g>
</g>
<g>
</g>
<g>
</g>
<g>
</g>
<g>
</g>
<g>
</g>
</svg>
