<?xml version="1.0" encoding="iso-8859-1"?>
<!-- Generator: Adobe Illustrator 19.0.0, SVG Export Plug-In . SVG Version: 6.00 Build 0)  -->
<svg xmlns="http://www.w3.org/2000/svg" xmlns:xlink="http://www.w3.org/1999/xlink" version="1.1" id="Layer_1" x="0px" y="0px" viewBox="0 0 511.999 511.999" style="enable-background:new 0 0 511.999 511.999;" xml:space="preserve">
<g>
	<path style="fill:#9FDEE2;" d="M152.008,341.314v69.482v58.495c0,1.443,0.097,2.864,0.284,4.256   c2.099,15.602,15.555,27.736,31.71,27.736c10.746,0,20.302-5.37,26.112-13.561c3.702-5.218,5.883-11.584,5.883-18.432L216,438.143   l-0.004-96.829c0-17.596-14.396-31.99-31.995-31.99C166.404,309.323,152.008,323.717,152.008,341.314z"/>
	<g>
		<path style="fill:#F9EACD;" d="M133.338,258.657c0,27.98,22.685,50.667,50.664,50.667c27.983,0,50.666-22.686,50.666-50.667    c0-27.98-22.683-65.749-50.666-65.749C156.023,192.908,133.338,230.674,133.338,258.657z"/>
		<path style="fill:#F9EACD;" d="M277.326,258.657c0,27.98,22.685,50.667,50.664,50.667c27.983,0,50.668-22.686,50.668-50.667    H327.99L277.326,258.657L277.326,258.657z"/>
	</g>
	<path style="fill:#9FDEE2;" d="M327.988,309.323c-17.595,0-31.991,14.394-31.991,31.99v96.825v31.153   c0,6.852,2.183,13.216,5.887,18.436c5.807,8.189,15.36,13.556,26.107,13.556c17.598,0,31.993-14.396,31.993-31.992v-1.135v-57.36   v-69.482C359.983,323.717,345.587,309.323,327.988,309.323z"/>
	<g>
		<path style="fill:#F9EACD;" d="M295.996,438.139c-25.961,5.703-53.226,5.883-79.997,0.004l-0.004,31.149    c0,6.847-2.181,13.214-5.885,18.432c30.278,5.967,61.495,5.969,91.773,0.004c-3.704-5.221-5.887-11.583-5.887-18.436v-31.153    H295.996z"/>
		<path style="fill:#F9EACD;" d="M152.008,469.291v-58.499c-1.67-1.122-3.326-2.272-4.969-3.452    c-8.03-5.776-15.696-12.269-22.904-19.478c-67.267-67.267-72.141-174.236-14.627-247.257c0.143-0.189,0.289-0.373,0.437-0.558    c4.373-5.511,9.103-10.823,14.19-15.91c72.525-72.524,191.202-72.524,263.725,0c72.827,72.826,72.827,190.899,0,263.725    c-7.728,7.729-16.041,14.687-24.827,20.843c-1.01,0.709-2.026,1.406-3.049,2.091v57.36c22.766-11.159,44.112-26.199,63.041-45.132    c72.031-72.028,87.814-179.005,47.355-266.353l25.036-34.603c7.075-9.772,8.532-22.499,0-31.031l-74.457-74.456    c-8.531-8.533-21.255-7.075-31.033,0l-34.6,25.036C267.978,1.16,161.001,16.943,88.974,88.975    C16.941,161.002,1.159,267.979,41.617,355.328L16.579,389.93c-7.074,9.779-8.532,22.499,0,31.033l74.457,74.456    c8.531,8.531,21.257,7.073,31.031,0l30.224-21.871C152.105,472.155,152.008,470.734,152.008,469.291z"/>
	</g>
	<path style="fill:#F99A98;" d="M327.99,309.323L327.99,309.323L327.99,309.323z M327.99,309.323   c-27.979,0-50.664-22.686-50.664-50.667h50.664h50.668C378.658,286.637,355.973,309.323,327.99,309.323L327.99,309.323z    M184.002,309.323c-27.979,0-50.664-22.686-50.664-50.667c0-27.982,22.685-65.749,50.664-65.749   c27.983,0,50.666,37.769,50.666,65.749C234.667,286.637,211.985,309.323,184.002,309.323L184.002,309.323z M215.995,341.314v96.656   l0.004,0.174c26.772,5.878,54.036,5.697,79.997-0.004v-0.168v-96.656c0-17.596,14.396-31.99,31.991-31.99   c17.6,0,31.995,14.394,31.995,31.99v69.482l3.049-2.091c8.786-6.156,17.099-13.114,24.827-20.843   c72.525-72.524,72.525-191.201,0-263.725c-72.523-72.524-191.2-72.524-263.725,0c-5.087,5.088-9.817,10.4-14.19,15.91l-0.439,0.556   c-57.512,73.022-52.638,179.991,14.629,247.258c7.209,7.208,14.874,13.702,22.904,19.478c1.642,1.181,3.299,2.33,4.969,3.452   v-69.478c0-17.596,14.396-31.99,31.991-31.99C201.599,309.323,215.995,323.717,215.995,341.314z"/>
</g>
<g>
	<path style="fill:#000003;" d="M502.957,83.497L428.5,9.041c-11.638-11.638-29.652-12.078-44.826-1.099l-29.611,21.425   C310.178,10.37,262.106,4.567,214.627,12.597c-50.677,8.571-96.734,32.374-133.194,68.836   c-36.463,36.461-60.267,82.518-68.837,133.195c-8.03,47.48-2.228,95.55,16.772,139.437L7.937,383.678   c-10.973,15.174-10.532,33.188,1.1,44.823l74.46,74.459c6.016,6.015,13.738,9.039,21.889,9.039c7.615,0,15.607-2.639,22.935-7.94   l18.705-13.534c7.374,12.79,21.181,21.424,36.975,21.424c11.817,0,22.525-4.832,30.258-12.621   c13.867,2.374,27.808,3.563,41.749,3.563c13.934,0,27.868-1.188,41.727-3.559c7.732,7.787,18.439,12.617,30.254,12.617   c21.621,0,39.526-16.174,42.279-37.056c22.173-11.579,42.437-26.466,60.297-44.328c36.463-36.461,60.267-82.518,68.836-133.195   c8.03-47.48,2.227-95.55-16.771-139.437l21.424-29.609C515.038,113.152,514.597,95.138,502.957,83.497z M184.002,298.658   c-22.056,0-39.999-17.945-39.999-40.002c0-23.542,19.775-55.083,39.999-55.083c20.224,0,40.001,31.541,40.001,55.083   C224.002,280.713,206.058,298.658,184.002,298.658z M184.002,490.619h-0.002c-11.758,0-21.326-9.568-21.326-21.327v-58.059   c0.011-0.282,0.011-0.561,0-0.841v-69.078c0-11.758,9.568-21.325,21.328-21.325c11.76,0,21.328,9.567,21.328,21.325V469.29   c0,4.396-1.34,8.486-3.628,11.884c-0.156,0.199-0.311,0.4-0.454,0.611C197.368,487.127,191.093,490.619,184.002,490.619z    M225.427,479.454c0.8-3.259,1.233-6.66,1.233-10.163v-18.347c9.752,1.478,19.539,2.235,29.325,2.235   c9.793,0,19.584-0.758,29.346-2.239v18.35c0,3.504,0.433,6.906,1.233,10.167C266.232,482.238,245.761,482.237,225.427,479.454z    M366.548,269.322c-4.679,16.897-20.193,29.337-38.559,29.337c-18.364,0-33.878-12.439-38.556-29.337H366.548L366.548,269.322z    M327.99,490.619h-0.002c-7.091,0-13.369-3.493-17.249-8.835c-0.139-0.207-0.291-0.402-0.445-0.598   c-2.293-3.401-3.633-7.493-3.633-11.894v-31.263c0-0.017,0-0.034,0-0.051v-96.665c0-11.758,9.568-21.325,21.328-21.325   s21.328,9.567,21.328,21.325v69.442c0,0.015,0,0.031,0,0.047v58.49C349.318,481.051,339.75,490.619,327.99,490.619z    M486.776,115.819l-25.036,34.6c-2.263,3.127-2.66,7.232-1.038,10.734c39.594,85.482,21.422,187.69-45.22,254.329   c-13.527,13.529-28.558,25.184-44.833,34.801v-33.916c8.802-6.294,17.113-13.323,24.755-20.963   c37.236-37.236,57.742-86.744,57.742-139.404c0-52.659-20.506-102.168-57.742-139.404c-30.772-30.771-69.83-50.122-112.953-55.961   c-43.123-5.84-85.921,2.43-123.767,23.909c-5.124,2.907-6.918,9.417-4.011,14.54c2.907,5.121,9.415,6.918,14.54,4.011   c68.557-38.911,155.368-27.158,211.107,28.584c33.208,33.207,51.495,77.359,51.495,124.321s-18.288,91.113-51.495,124.321   c-3.105,3.105-6.335,6.094-9.671,8.963v-47.97c0-11.482-4.569-21.91-11.975-29.586c18.304-10.624,30.648-30.427,30.648-53.071   v-65.749c0-5.89-4.776-10.665-10.665-10.665c-5.89,0-10.665,4.775-10.665,10.665v55.083h-29.338v-55.083   c0-5.89-4.775-10.665-10.665-10.665c-5.889,0-10.665,4.775-10.665,10.665v55.083h-29.332v-55.083   c0-5.89-4.775-10.665-10.665-10.665s-10.665,4.775-10.665,10.665v65.749c0,22.643,12.342,42.445,30.643,53.069   c-7.405,7.676-11.974,18.105-11.974,29.588v88.029c-19.503,3.32-39.17,3.321-58.671,0.003v-88.032   c0-11.482-4.569-21.912-11.975-29.587c18.302-10.625,30.646-30.427,30.646-53.07c0-16.167-6.282-34.684-16.802-49.532   c-12.284-17.334-28.096-26.882-44.529-26.882c-16.431,0-32.243,9.546-44.527,26.88c-10.521,14.849-16.802,33.366-16.802,49.533   c0,22.643,12.342,42.445,30.643,53.069c-7.405,7.676-11.974,18.105-11.974,29.588v47.967c-3.337-2.869-6.565-5.858-9.668-8.96   c-54.794-54.793-67.128-140.565-29.991-208.578c2.822-5.17,0.92-11.65-4.249-14.472c-5.17-2.823-11.65-0.92-14.472,4.249   c-20.571,37.677-28.216,80.049-22.107,122.538c6.11,42.49,25.382,80.992,55.736,111.345c7.633,7.634,15.943,14.662,24.751,20.962   v51.943l-25.524,18.47c-4.908,3.551-12.369,5.97-17.241,1.1l-74.457-74.456c-4.87-4.871-2.452-12.333,1.096-17.24l25.039-34.601   c2.262-3.127,2.66-7.232,1.038-10.734C11.7,265.362,29.872,163.155,96.515,96.515c66.637-66.641,168.843-84.814,254.33-45.22   c3.501,1.623,7.607,1.226,10.733-1.037l34.599-25.035c4.909-3.553,12.369-5.971,17.24-1.1l74.456,74.456   C492.746,103.452,490.328,110.911,486.776,115.819z"/>
	<path style="fill:#000003;" d="M116.573,131.691c-4.614-3.661-11.323-2.888-14.983,1.728l-0.46,0.582   c-3.646,4.625-2.851,11.332,1.775,14.978c1.956,1.541,4.284,2.29,6.594,2.29c3.156,0,6.281-1.394,8.384-4.064l0.418-0.529   C121.962,142.061,121.189,135.353,116.573,131.691z"/>
</g>
<g>
</g>
<g>
</g>
<g>
</g>
<g>
</g>
<g>
</g>
<g>
</g>
<g>
</g>
<g>
</g>
<g>
</g>
<g>
</g>
<g>
</g>
<g>
</g>
<g>
</g>
<g>
</g>
<g>
</g>
</svg>
