<?xml version="1.0" encoding="iso-8859-1"?>
<!-- Generator: Adobe Illustrator 19.0.0, SVG Export Plug-In . SVG Version: 6.00 Build 0)  -->
<svg xmlns="http://www.w3.org/2000/svg" xmlns:xlink="http://www.w3.org/1999/xlink" version="1.1" id="Layer_1" x="0px" y="0px" viewBox="0 0 512.002 512.002" style="enable-background:new 0 0 512.002 512.002;" xml:space="preserve">
<path style="fill:#2B2B2D;" d="M432.592,283.194c1.457-15.469,2.217-32.144,2.217-50.115C434.809,54.015,354.754,0,256.001,0  S77.193,54.015,77.193,233.079c0,17.972,0.76,34.646,2.217,50.115c-1.32,14.274-1.912,27.906-1.912,40.405l0,0l0,0  c0,35.429,10.322,68.447,28.122,96.211c1.548,2.414,3.152,4.789,4.811,7.122s3.373,4.624,5.139,6.872  c1.767,2.248,3.586,4.452,5.456,6.612s3.792,4.273,5.762,6.339c2.955,3.1,6.021,6.094,9.191,8.975  c2.113,1.921,4.273,3.792,6.477,5.611c3.306,2.728,6.712,5.34,10.211,7.828c2.333,1.659,4.708,3.264,7.122,4.811  c6.036,3.87,12.32,7.386,18.823,10.519c2.601,1.254,5.237,2.446,7.907,3.575c21.356,9.033,44.835,14.027,69.481,14.027  s48.126-4.995,69.481-14.027c2.67-1.129,5.306-2.321,7.907-3.575c6.503-3.134,12.787-6.649,18.823-10.519  c2.414-1.548,4.789-3.152,7.122-4.811c3.5-2.489,6.905-5.1,10.211-7.828c2.204-1.819,4.364-3.69,6.477-5.611  c3.17-2.881,6.236-5.875,9.191-8.975c1.97-2.066,3.891-4.18,5.762-6.339c1.87-2.159,3.689-4.364,5.456-6.612  c1.766-2.248,3.48-4.539,5.139-6.872s3.263-4.708,4.811-7.122c17.8-27.764,28.122-60.782,28.122-96.211l0,0l0,0  C434.504,311.1,433.912,297.468,432.592,283.194z"/>
<path style="fill:#1B1B1E;" d="M434.809,233.079C434.809,54.015,354.754,0,256.001,0c-5.205,0-10.354,0.16-15.446,0.47  c91.52,5.581,163.362,62.983,163.362,232.608c0,17.972-0.76,34.646-2.217,50.115c1.32,14.274,1.912,27.906,1.912,40.405l0,0  c0,35.429-10.322,68.447-28.122,96.211c-1.548,2.414-3.152,4.789-4.811,7.122s-3.373,4.625-5.139,6.872  c-1.767,2.248-3.586,4.452-5.456,6.612c-1.87,2.159-3.792,4.273-5.762,6.339c-2.956,3.1-6.021,6.094-9.191,8.975  c-2.113,1.921-4.273,3.792-6.477,5.611c-3.306,2.728-6.712,5.34-10.211,7.828c-2.333,1.659-4.707,3.264-7.122,4.812  c-6.036,3.87-12.32,7.385-18.823,10.519c-2.601,1.253-5.237,2.445-7.907,3.575c-16.846,7.125-35.017,11.724-54.035,13.355  c5.092,0.437,10.241,0.673,15.446,0.673c24.646,0,48.126-4.995,69.481-14.027c2.669-1.129,5.305-2.321,7.907-3.575  c6.503-3.134,12.787-6.65,18.823-10.519c2.414-1.548,4.789-3.152,7.122-4.812c3.5-2.488,6.905-5.1,10.211-7.828  c2.204-1.819,4.364-3.69,6.477-5.611c3.17-2.881,6.236-5.875,9.191-8.975c1.97-2.066,3.891-4.18,5.762-6.339  c1.87-2.159,3.689-4.364,5.456-6.612c1.766-2.248,3.48-4.539,5.139-6.872s3.263-4.707,4.811-7.122  c17.8-27.764,28.121-60.782,28.121-96.211l0,0c0-12.499-0.592-26.131-1.912-40.405C434.049,267.725,434.809,251.05,434.809,233.079z  "/>
<g>
	<path style="fill:#3D3D42;" d="M439.64,171.736c-7.715-7.176-17.109,6.672-24.233,20.306c-0.457,0.874-0.536,1.894-0.237,2.834   c6.79,21.349,11.524,43.353,14.606,64.58c0.385,2.654,3.394,4.037,5.663,2.608C480.999,233.389,453.357,184.495,439.64,171.736z"/>
	<path style="fill:#3D3D42;" d="M96.832,194.876c0.299-0.94,0.22-1.96-0.237-2.834c-7.124-13.633-16.518-27.482-24.233-20.306   c-13.716,12.759-41.358,61.653,4.201,90.329c2.269,1.428,5.278,0.045,5.663-2.608C85.308,238.229,90.041,216.226,96.832,194.876z"/>
</g>
<g>
	<path style="fill:#58565D;" d="M80.046,239.175c-0.88,4.542-6.933,5.715-9.347,1.768c-2.553-4.174-4.148-8.697-4.772-13.552   c-1.894-14.723,5.332-30.411,12.056-39.818c1.787-2.5,5.52-2.441,7.277,0.079c0.031,0.044,0.062,0.089,0.093,0.133   c3.478,5.02,4.484,11.334,2.813,17.208C85.034,216.003,82.322,227.42,80.046,239.175z"/>
	<path style="fill:#58565D;" d="M434.875,239.175c0.88,4.542,6.933,5.715,9.347,1.768c2.553-4.174,4.148-8.697,4.772-13.552   c1.894-14.723-5.332-30.411-12.056-39.818c-1.787-2.5-5.52-2.441-7.277,0.079c-0.031,0.044-0.062,0.089-0.093,0.133   c-3.478,5.02-4.484,11.334-2.813,17.208C429.887,216.003,432.599,227.42,434.875,239.175z"/>
</g>
<path style="fill:#666666;" d="M350.272,450.705l-34.706-9.855c-40.03-11.367-82.457-11.189-122.391,0.511l-31.391,9.197  c-0.378,0.111-0.755,0.174-1.129,0.216c0.021,0.173,0.112,0.544,0.135,0.558C171.363,491.504,210.669,512,255.96,512  c45.475,0,84.915-20.444,95.298-61.102C350.931,450.857,350.602,450.799,350.272,450.705z"/>
<path style="fill:#4D4D4D;" d="M350.272,450.705l-27.381-7.775l-0.637,2.489c-12.082,37.634-50.219,56.571-93.966,56.571  c-10.027,0-19.759-1.009-28.952-3.01c5.916,3.174,12.307,5.767,19.057,7.784c0.184,0.055,0.366,0.113,0.551,0.168  c0.889,0.261,1.787,0.505,2.687,0.746c0.324,0.087,0.647,0.176,0.973,0.26c0.822,0.212,1.652,0.411,2.484,0.607  c0.417,0.098,0.833,0.197,1.252,0.29c0.775,0.173,1.555,0.337,2.338,0.497c0.488,0.099,0.976,0.197,1.467,0.29  c0.74,0.141,1.484,0.276,2.23,0.405c0.546,0.094,1.094,0.184,1.643,0.271c0.708,0.113,1.418,0.222,2.131,0.323  c0.605,0.086,1.214,0.165,1.823,0.243c0.672,0.086,1.345,0.172,2.022,0.248c0.667,0.075,1.337,0.14,2.008,0.206  c0.634,0.062,1.267,0.126,1.904,0.18c0.738,0.062,1.48,0.11,2.222,0.161c0.582,0.039,1.163,0.084,1.747,0.117  c0.857,0.047,1.719,0.079,2.581,0.111c0.48,0.018,0.957,0.044,1.439,0.057c1.349,0.037,2.704,0.058,4.064,0.058  c1.406,0,2.806-0.02,4.2-0.059c0.473-0.013,0.941-0.041,1.412-0.059c0.918-0.035,1.837-0.066,2.748-0.117  c0.565-0.032,1.123-0.08,1.686-0.119c0.811-0.055,1.625-0.106,2.431-0.175c0.604-0.052,1.201-0.12,1.803-0.179  c0.756-0.075,1.515-0.144,2.267-0.231c0.623-0.072,1.239-0.161,1.859-0.241c0.72-0.094,1.443-0.181,2.158-0.286  c0.637-0.093,1.266-0.203,1.899-0.305c0.688-0.111,1.378-0.217,2.061-0.339c0.645-0.115,1.282-0.246,1.922-0.37  c0.661-0.129,1.324-0.252,1.979-0.391c0.648-0.137,1.287-0.289,1.93-0.436c0.637-0.145,1.276-0.286,1.907-0.441  c0.65-0.16,1.291-0.334,1.934-0.503c0.613-0.162,1.228-0.319,1.835-0.49c0.648-0.182,1.288-0.379,1.93-0.572  c0.59-0.178,1.183-0.351,1.768-0.538c0.645-0.206,1.282-0.425,1.92-0.642c0.568-0.193,1.138-0.382,1.7-0.583  c0.641-0.229,1.273-0.472,1.907-0.713c0.546-0.208,1.095-0.413,1.636-0.629c0.633-0.253,1.258-0.519,1.883-0.784  c0.526-0.223,1.054-0.443,1.575-0.674c0.625-0.277,1.242-0.567,1.858-0.856c0.506-0.237,1.013-0.472,1.512-0.717  c0.616-0.302,1.222-0.616,1.828-0.929c0.485-0.251,0.971-0.501,1.45-0.76c0.604-0.327,1.2-0.664,1.794-1.003  c0.465-0.265,0.931-0.529,1.389-0.802c0.591-0.351,1.173-0.713,1.754-1.077c0.445-0.279,0.891-0.558,1.33-0.844  c0.577-0.376,1.144-0.762,1.709-1.151c0.426-0.293,0.851-0.586,1.27-0.885c0.561-0.402,1.114-0.813,1.663-1.227  c0.405-0.305,0.81-0.612,1.209-0.924c0.545-0.427,1.081-0.863,1.613-1.303c0.385-0.318,0.769-0.638,1.147-0.963  c0.527-0.453,1.046-0.915,1.56-1.381c0.365-0.331,0.727-0.664,1.085-1.001c0.508-0.479,1.007-0.966,1.501-1.458  c0.345-0.344,0.687-0.69,1.025-1.04c0.487-0.505,0.965-1.017,1.437-1.535c0.325-0.357,0.647-0.716,0.965-1.079  c0.464-0.53,0.921-1.066,1.37-1.61c0.306-0.37,0.607-0.743,0.906-1.119c0.441-0.555,0.874-1.118,1.299-1.687  c0.285-0.382,0.566-0.769,0.845-1.158c0.416-0.581,0.825-1.167,1.224-1.762c0.266-0.396,0.527-0.797,0.785-1.2  c0.389-0.606,0.772-1.216,1.144-1.836c0.246-0.41,0.486-0.825,0.725-1.24c0.362-0.631,0.718-1.267,1.063-1.912  c0.226-0.423,0.444-0.851,0.663-1.28c0.334-0.656,0.662-1.316,0.978-1.986c0.206-0.437,0.403-0.88,0.601-1.322  c0.304-0.681,0.603-1.365,0.889-2.059c0.185-0.45,0.361-0.908,0.538-1.364c0.273-0.705,0.543-1.413,0.797-2.132  c0.164-0.465,0.318-0.938,0.475-1.409c0.241-0.729,0.479-1.459,0.701-2.202c0.297-0.995,0.589-1.992,0.849-3.012  C350.931,450.857,350.602,450.799,350.272,450.705z"/>
<path style="fill:#808080;" d="M380.856,242.137c6.736-35.831-23.087-67.24-60.85-62.667l-52.594,6.37  c-3.793,0.459-7.599,0.741-11.41,0.848c-3.811-0.106-7.618-0.388-11.41-0.848l-52.594-6.37  c-37.764-4.573-67.586,26.836-60.85,62.667c0,0,13.777,74.878,67.133,91.093c-22.764,30.491-42.591,74.907-46.171,104.93  c-0.369,3.091-0.585,6.071-0.66,8.948c-0.116,4.428,4.081,7.701,8.332,6.455l33.394-9.197c39.934-11.7,82.361-11.877,122.391-0.511  l36.709,9.855c4.242,1.204,8.394-2.069,8.279-6.477c-0.076-2.917-0.296-5.939-0.67-9.072  c-3.579-30.022-23.406-74.437-46.169-104.928C367.078,317.022,380.856,242.137,380.856,242.137z"/>
<path style="fill:#666666;" d="M324.807,328.796c4.397-2.219,8.468-4.859,12.244-7.804c1.158-0.903,2.287-1.837,3.389-2.796  c0.588-0.511,1.169-1.03,1.741-1.556c30.044-27.606,38.674-74.503,38.674-74.503c2.819-14.996-0.783-29.205-8.673-40.338  c-1.478-2.085-3.095-4.069-4.861-5.923c-0.07-0.073-0.134-0.152-0.204-0.224c-11.334-11.76-28.231-18.468-47.112-16.182  l-3.314,0.401l-7.222,0.875c26.893,6.748,45.041,32.636,39.636,61.391c0,0-9.771,53.107-44.722,79.559  c-6.374,4.824-13.586,8.758-21.729,11.325c1.41,1.883,2.801,3.809,4.172,5.771c20.827,29.822,36.797,71.131,40.163,99.369  c0.373,3.133,0.594,6.156,0.67,9.072c0,0.019-0.002,0.037-0.002,0.056l24.618,6.422c4.242,1.204,8.394-2.069,8.279-6.477  c-0.076-2.917-0.296-5.939-0.67-9.072c-3.579-30.021-23.404-74.432-46.165-104.922c1.345-0.409,2.669-0.85,3.964-1.331  C320.146,330.993,322.52,329.951,324.807,328.796z"/>
<path style="fill:#333333;" d="M198.467,323.184c0-17.866,25.759-32.349,57.534-32.349s57.534,14.483,57.534,32.349  s-25.759,50.321-57.534,50.321S198.467,341.05,198.467,323.184z"/>
<path style="fill:#2D2C2C;" d="M260.49,290.943c13.478,8.999,22.153,21.88,22.153,32.242c0,14.856-17.817,39.783-42.088,47.765  c4.917,1.617,10.093,2.555,15.446,2.555c31.775,0,57.534-32.455,57.534-50.321C313.535,306.169,290.165,292.232,260.49,290.943z"/>
<g>
	<path style="fill:#333333;" d="M180.311,208.939c-14.268,0-25.876,11.608-25.876,25.876c0,4.147,3.361,7.507,7.507,7.507   c4.147,0,7.507-3.361,7.507-7.507c0-5.989,4.872-10.861,10.861-10.861c5.988,0,10.86,4.872,10.86,10.861   c0,4.147,3.361,7.507,7.507,7.507c4.147,0,7.507-3.361,7.507-7.507C206.186,220.547,194.579,208.939,180.311,208.939z"/>
	<path style="fill:#333333;" d="M331.691,223.954c5.989,0,10.861,4.872,10.861,10.861c0,4.147,3.361,7.507,7.507,7.507   c4.147,0,7.507-3.361,7.507-7.507c0-14.268-11.608-25.876-25.876-25.876s-25.875,11.608-25.875,25.876   c0,4.147,3.361,7.507,7.507,7.507s7.507-3.361,7.507-7.507C320.831,228.826,325.703,223.954,331.691,223.954z"/>
</g>
<g>
	<path style="fill:#261B19;" d="M222.675,315.204c-4.097-0.555-7.923,2.313-8.483,6.42c-0.56,4.108,2.286,7.889,6.395,8.449   c0.456,0.07,11.214,1.832,13.385,11.574c0.779,3.498,3.881,5.877,7.321,5.877c0.541,0,1.09-0.06,1.639-0.182   c4.047-0.901,6.597-4.913,5.695-8.96C244.166,318.358,223.551,315.324,222.675,315.204z"/>
	<path style="fill:#261B19;" d="M286.674,315.204c-0.876,0.119-21.493,3.153-25.952,23.178c-0.901,4.047,1.648,8.059,5.695,8.96   c0.55,0.123,1.099,0.182,1.639,0.182c3.44-0.001,6.542-2.38,7.321-5.877c2.157-9.686,12.805-11.483,13.376-11.573   c4.08-0.585,6.931-4.354,6.373-8.445C294.567,317.521,290.768,314.645,286.674,315.204z"/>
</g>
<g>
</g>
<g>
</g>
<g>
</g>
<g>
</g>
<g>
</g>
<g>
</g>
<g>
</g>
<g>
</g>
<g>
</g>
<g>
</g>
<g>
</g>
<g>
</g>
<g>
</g>
<g>
</g>
<g>
</g>
</svg>
