<?xml version="1.0" encoding="iso-8859-1"?>
<!-- Generator: Adobe Illustrator 19.0.0, SVG Export Plug-In . SVG Version: 6.00 Build 0)  -->
<svg xmlns="http://www.w3.org/2000/svg" xmlns:xlink="http://www.w3.org/1999/xlink" version="1.1" id="Layer_1" x="0px" y="0px" viewBox="0 0 512 512" style="enable-background:new 0 0 512 512;" xml:space="preserve">
<path style="fill:#FEA921;" d="M117.523,117.685l14.454-27.43c4.181-7.935,9.44-15.077,15.529-21.307  c-5.598-4.035-9.928-6.869-9.928-6.869L59.288,3.661C51.983-1.79,41.791-1.086,35.305,5.317l0,0  C15.031,25.331,10.264,56.275,23.623,81.436c15.382,28.97,34.724,63.069,43.706,69.485c3.345,2.389,19.29,8.338,32.628,12.956  C103.903,147.883,109.786,132.367,117.523,117.685z"/>
<path style="fill:#F9C37D;" d="M117.523,117.685l3.528-6.694L48.075,44.209c-6.841-6.299-18.167-1.657-18.218,7.642  c-0.05,9.097,2.097,18.272,6.575,26.706c13.47,25.369,30.407,55.229,38.273,60.847c2.37,1.693,15.768,7.357,28.601,12.48  C106.984,140.118,111.735,128.668,117.523,117.685z"/>
<path style="fill:#FEA921;" d="M394.477,117.685l-14.454-27.43c-4.181-7.935-9.44-15.077-15.529-21.307  c5.598-4.035,9.928-6.869,9.928-6.869l78.29-58.418c7.305-5.451,17.496-4.747,23.983,1.656l0,0  c20.273,20.013,25.041,50.958,11.682,76.118c-15.382,28.97-34.724,63.069-43.706,69.485c-3.345,2.389-19.29,8.338-32.628,12.956  C408.097,147.883,402.214,132.367,394.477,117.685z"/>
<path style="fill:#EA961B;" d="M476.695,5.318L476.695,5.318c-2.747-2.712-6.16-4.389-9.734-5.022  c9.105,18.261,9.227,40.232-0.733,58.991c-15.382,28.97-34.724,63.069-43.706,69.485c-2.246,1.605-10.175,4.814-19.179,8.147  c3.519,8.787,6.439,17.79,8.701,26.958c13.338-4.618,29.283-10.567,32.628-12.956c8.983-6.416,28.324-40.515,43.706-69.485  C501.736,56.275,496.969,25.331,476.695,5.318z"/>
<path style="fill:#F9C37D;" d="M394.477,117.685l-3.528-6.694l72.976-66.781c6.841-6.299,18.167-1.657,18.218,7.642  c0.05,9.097-2.097,18.272-6.575,26.706c-13.47,25.369-30.407,55.229-38.273,60.847c-2.37,1.693-15.768,7.357-28.601,12.48  C405.016,140.118,400.265,128.668,394.477,117.685z"/>
<path style="fill:#FEC373;" d="M309.313,32.927h-21.957c-6.064,0-11.812,2.705-15.678,7.377l0,0c-8.137,9.837-23.218,9.837-31.355,0  l0,0c-3.865-4.673-9.614-7.377-15.678-7.377h-21.957c-33.992,0-65.19,18.824-81.036,48.897l-14.454,27.43  c-15.433,29.288-23.499,61.894-23.499,94.999v168.293c0,37.613,18.777,72.744,50.051,93.642l0,0  c22.682,15.157,49.35,23.247,76.63,23.247h23.84h43.562h23.84c27.28,0,53.948-8.09,76.63-23.247l0,0  c31.274-20.898,50.051-56.029,50.051-93.642V204.252c0-33.105-8.065-65.712-23.499-94.999l-14.454-27.43  C374.502,51.751,343.305,32.927,309.313,32.927z"/>
<path style="fill:#FEB64F;" d="M404.803,109.253l-14.454-27.43c-15.847-30.072-47.044-48.897-81.036-48.897h-21.957  c-0.929,0-1.849,0.071-2.758,0.195c31.673,2.035,60.221,20.375,75.148,48.701l14.454,27.43  c15.433,29.288,23.499,61.894,23.499,94.999v168.293c0,37.613-18.777,72.744-50.051,93.642l0,0  c-22.682,15.157-49.35,23.247-76.63,23.247h6.764h23.84c27.28,0,53.948-8.09,76.63-23.247l0,0  c31.274-20.898,50.051-56.029,50.051-93.642V204.252C428.302,171.147,420.236,138.541,404.803,109.253z"/>
<g>
	<path style="fill:#333333;" d="M141.509,202.644c-16.013,0-29.041,13.028-29.041,29.041c0,4.099,3.322,7.42,7.42,7.42   s7.42-3.322,7.42-7.42c0-7.83,6.37-14.2,14.2-14.2s14.2,6.37,14.2,14.2c0,4.099,3.322,7.42,7.42,7.42s7.42-3.322,7.42-7.42   C170.55,215.672,157.522,202.644,141.509,202.644z"/>
	<path style="fill:#333333;" d="M370.491,202.644c-16.013,0-29.041,13.028-29.041,29.041c0,4.099,3.322,7.42,7.42,7.42   s7.42-3.322,7.42-7.42c0-7.83,6.37-14.2,14.2-14.2s14.2,6.37,14.2,14.2c0,4.099,3.322,7.42,7.42,7.42s7.42-3.322,7.42-7.42   C399.531,215.672,386.504,202.644,370.491,202.644z"/>
</g>
<path style="fill:#E57501;" d="M179.618,462.192C182.118,489.989,215.35,512,256,512c40.671,0,73.917-22.034,76.387-49.851  C332.387,413.365,179.618,415.348,179.618,462.192z"/>
<path style="fill:#713802;" d="M263.858,450.813l-7.871-7.149l-7.948,7.219c-9.865,8.961-21.56,14.52-33.677,16.839  c8.008,10.258,23.645,18.231,41.625,18.231c18.001,0,33.653-7.99,41.652-18.268C285.486,465.371,273.754,459.801,263.858,450.813z"/>
<path style="fill:#FEA921;" d="M364.243,386.423c-6.127-55.14-56.449-154.476-86.276-209.432c-9.455-17.42-34.479-17.42-43.934,0  c-29.827,54.956-80.149,154.291-86.276,209.432c-2.792,25.123,3.295,44.032,12.896,58.137c20.139,29.59,62.056,34.099,88.552,10.033  L256,448.42l6.729,6.112c26.604,24.165,68.715,19.545,88.808-10.254C361.028,430.203,367.016,411.379,364.243,386.423z"/>
<path style="fill:#EA961B;" d="M364.243,386.423c-6.127-55.14-56.449-154.476-86.276-209.431  c-4.611-8.496-12.926-12.836-21.331-13.045c29.662,59.092,70.512,170.818,76.251,222.477c2.773,24.957-3.215,43.781-12.706,57.856  c-8.195,12.153-20.053,20.115-33.026,23.647c23.481,6.373,49.76-1.962,64.382-23.647  C361.028,430.203,367.016,411.379,364.243,386.423z"/>
<path style="fill:#BF6101;" d="M256,221.55L256,221.55c-3.683,0-7.334,0.417-10.916,1.235  c-26.445,6.033-75.886,21.978-75.886,56.903c0,59.995,81.451,59.995,81.451,59.995h10.701c0,0,81.451,0,81.451-59.995  c0-34.925-49.441-50.87-75.886-56.903C263.334,221.968,259.683,221.55,256,221.55z"/>
<path style="fill:#AD5404;" d="M266.917,222.785c-2.897-0.661-5.841-1.046-8.808-1.175c25.62,11.668,54.09,32.481,54.09,58.077  c0,46.898-49.77,57.135-71.5,59.371c6.069,0.624,9.951,0.624,9.951,0.624h10.701c0,0,81.451,0,81.451-59.995  C342.802,244.763,293.361,228.817,266.917,222.785z"/>
<g>
	<path style="fill:#713802;" d="M200.937,286.138c-7.636-6.145-6.607-18.377,2.217-22.642c2.53-1.223,5.349-1.585,8.305-0.241   c10.642,4.837,33.618,25.879,34.102,32.651C245.96,301.484,217.911,299.799,200.937,286.138z"/>
	<path style="fill:#713802;" d="M311.063,286.138c7.636-6.145,6.607-18.377-2.217-22.642c-2.53-1.223-5.349-1.585-8.305-0.241   c-10.642,4.837-33.618,25.879-34.102,32.651C266.04,301.484,294.089,299.799,311.063,286.138z"/>
</g>
<g>
</g>
<g>
</g>
<g>
</g>
<g>
</g>
<g>
</g>
<g>
</g>
<g>
</g>
<g>
</g>
<g>
</g>
<g>
</g>
<g>
</g>
<g>
</g>
<g>
</g>
<g>
</g>
<g>
</g>
</svg>
