<?xml version="1.0" encoding="iso-8859-1"?>
<!-- Generator: Adobe Illustrator 19.0.0, SVG Export Plug-In . SVG Version: 6.00 Build 0)  -->
<svg xmlns="http://www.w3.org/2000/svg" xmlns:xlink="http://www.w3.org/1999/xlink" version="1.1" id="Layer_1" x="0px" y="0px" viewBox="0 0 511.999 511.999" style="enable-background:new 0 0 511.999 511.999;" xml:space="preserve">
<path style="fill:#FED9A8;" d="M433.187,268.188l-1.793-9.939c0,0-5.715-33.147,7.736-52.949  c40.265-59.279,52.346-180.084,31.334-187.724c-24.66-8.967-141.232,102.001-141.232,102.001s-3.945,0.247-3.945,0.255  C326.404,122,346.999,193.5,433.187,268.188z"/>
<path style="fill:#FFE0BB;" d="M383.347,181.635c3.027,4.304,6.17,8.65,9.415,12.993c7.458,9.98,22.92,8.527,28.191-2.762  c1.997-4.277,4.219-8.138,6.676-11.175c15.701-19.408,25.839-53.373,32.405-89.778c2.736-15.173,4.017-28.015,4.436-38.278  c0.153-3.745-4.722-5.312-6.792-2.188l-74.585,112.547C379.331,168.669,379.43,176.065,383.347,181.635z"/>
<path style="fill:#FED9A8;" d="M182.788,119.533c0,0-0.01,0.019-0.027,0.052c0-0.004,0-0.009,0-0.009S66.188,8.608,41.529,17.575  c-1.588,0.577-2.937,1.872-4.067,3.761c-0.019,0.032-0.034,0.068-0.054,0.099C22.86,43.97,36.039,150.716,73.114,205.299  c13.451,19.802,7.736,52.949,7.736,52.949l-1.792,9.939c86.023-74.545,106.702-145.91,107.891-148.338L182.788,119.533z"/>
<path style="fill:#FFE0BB;" d="M128.897,181.635c-3.027,4.304-6.17,8.65-9.415,12.993c-7.458,9.98-22.92,8.527-28.191-2.762  c-1.997-4.277-4.219-8.138-6.676-11.175c-15.701-19.408-25.839-53.373-32.405-89.778c-2.736-15.173-4.017-28.015-4.436-38.278  c-0.153-3.745,4.722-5.312,6.792-2.188l74.585,112.547C132.913,168.669,132.814,176.065,128.897,181.635z"/>
<path style="fill:#FE9901;" d="M504.843,332.663c-19.851-17.727-59.038-54.209-99.989-100.682  c-19.096-21.672-36.115-46.204-49.153-66.815c27.935-41.117,93.197-134.029,118.891-143.735c-1.143-1.943-2.512-3.269-4.127-3.856  c-24.66-8.967-141.232,102.001-141.232,102.001s0,0.005,0,0.009c-0.017-0.033-0.027-0.052-0.027-0.052l-73.208,5.569l-73.208-5.569  c0,0-0.01,0.019-0.027,0.052c0-0.004,0-0.009,0-0.009S66.188,8.608,41.529,17.575c-1.615,0.587-2.984,1.913-4.127,3.856  c25.694,9.707,90.956,102.618,118.891,143.735c-13.038,20.611-30.057,45.143-49.153,66.815  c-40.951,46.473-80.139,82.955-99.989,100.682c-8.102,7.235-9.514,19.405-3.238,28.27c24.111,34.057,93.753,108.965,239.883,108.965  c4.169,0,8.214,0,12.201,0c3.988,0,8.032,0,12.201,0c146.13,0,215.772-74.908,239.883-108.965  C514.356,352.068,512.944,339.898,504.843,332.663z"/>
<path style="fill:#EA7500;" d="M504.849,332.668c-19.849-17.725-59.04-54.21-99.995-100.687  c-19.096-21.672-36.115-46.204-49.153-66.815c27.935-41.117,93.197-134.029,118.891-143.735c-1.143-1.943-2.512-3.269-4.127-3.856  c-9.311-3.386-31.728,10.331-56.025,28.714c-26.494,28.984-60.195,76.126-81.592,107.175c-4.912,7.128-4.999,16.52-0.219,23.737  c11.742,17.728,25.869,37.196,41.364,54.78c40.955,46.477,80.146,82.962,99.995,100.686c8.096,7.23,9.514,19.39,3.243,28.25  c-23.922,33.797-92.724,107.856-236.664,108.955c1.077,0.008,2.144,0.026,3.229,0.026c4.169,0,8.214,0,12.201,0  c3.988,0,8.032,0,12.201,0c146.146,0,215.787-74.925,239.891-108.976C514.362,352.059,512.948,339.9,504.849,332.668z"/>
<path style="fill:#FED9A8;" d="M510.83,341.729c-37.502-12.573-204.78-57.285-247.928,128.169c1.749,0,3.507,0,5.296,0  c2.681,0,5.329-0.033,7.959-0.082c0.797-0.015,1.585-0.038,2.377-0.057c1.882-0.046,3.752-0.105,5.607-0.176  c0.83-0.032,1.66-0.064,2.485-0.101c2.048-0.091,4.078-0.199,6.093-0.32c0.516-0.031,1.04-0.056,1.554-0.088  c2.503-0.16,4.98-0.345,7.433-0.55c0.625-0.052,1.24-0.113,1.862-0.168c1.853-0.164,3.693-0.339,5.517-0.528  c0.786-0.081,1.568-0.166,2.348-0.252c1.758-0.193,3.502-0.399,5.234-0.615c0.661-0.083,1.326-0.161,1.983-0.246  c2.339-0.305,4.658-0.626,6.949-0.971c0.305-0.046,0.603-0.097,0.908-0.144c1.991-0.305,3.964-0.626,5.918-0.96  c0.708-0.121,1.41-0.247,2.113-0.372c1.601-0.284,3.19-0.578,4.767-0.881c0.687-0.132,1.376-0.263,2.058-0.399  c1.903-0.379,3.789-0.77,5.656-1.176c0.277-0.06,0.559-0.116,0.835-0.177c2.132-0.469,4.236-0.958,6.321-1.461  c0.594-0.143,1.179-0.292,1.769-0.438c1.519-0.376,3.027-0.759,4.521-1.151c0.666-0.175,1.33-0.351,1.99-0.529  c1.538-0.415,3.061-0.84,4.572-1.273c0.496-0.142,0.998-0.28,1.491-0.424c1.973-0.576,3.926-1.166,5.853-1.771  c0.405-0.127,0.801-0.259,1.203-0.387c1.534-0.489,3.056-0.985,4.561-1.491c0.609-0.205,1.213-0.412,1.817-0.619  c1.352-0.464,2.691-0.935,4.019-1.413c0.552-0.198,1.107-0.395,1.654-0.595c3.654-1.339,7.218-2.727,10.695-4.16  c0.526-0.217,1.045-0.437,1.568-0.656c1.243-0.521,2.476-1.048,3.697-1.58c0.545-0.237,1.09-0.475,1.63-0.715  c1.348-0.598,2.68-1.203,4-1.813c0.332-0.153,0.669-0.304,0.999-0.458c1.634-0.764,3.245-1.537,4.837-2.319  c0.402-0.198,0.797-0.399,1.197-0.598c1.201-0.597,2.392-1.199,3.569-1.806c0.504-0.26,1.006-0.521,1.505-0.783  c1.132-0.593,2.252-1.19,3.362-1.791c0.417-0.226,0.839-0.451,1.253-0.678c1.492-0.818,2.967-1.643,4.417-2.474  c0.198-0.114,0.391-0.229,0.588-0.343c1.256-0.724,2.495-1.453,3.72-2.186c0.444-0.266,0.884-0.534,1.324-0.801  c1.005-0.609,1.999-1.221,2.982-1.836c0.427-0.266,0.855-0.533,1.277-0.8c1.195-0.756,2.374-1.515,3.538-2.278  c0.158-0.104,0.321-0.207,0.479-0.311c1.319-0.869,2.614-1.742,3.893-2.618c0.359-0.246,0.71-0.493,1.066-0.739  c0.931-0.644,1.852-1.29,2.762-1.938c0.401-0.286,0.802-0.572,1.199-0.858c0.931-0.671,1.849-1.343,2.757-2.016  c0.297-0.22,0.598-0.439,0.892-0.659c1.182-0.884,2.346-1.769,3.489-2.655c0.237-0.184,0.467-0.368,0.702-0.551  c0.912-0.712,1.812-1.424,2.7-2.136c0.355-0.285,0.706-0.57,1.058-0.855c0.794-0.644,1.577-1.288,2.351-1.932  c0.316-0.263,0.635-0.526,0.948-0.789c2.116-1.778,4.158-3.553,6.125-5.319c0.293-0.263,0.581-0.526,0.871-0.789  c0.706-0.64,1.403-1.278,2.09-1.915c0.298-0.277,0.597-0.553,0.891-0.829c0.757-0.709,1.502-1.416,2.236-2.121  c0.175-0.168,0.355-0.337,0.528-0.505c0.898-0.868,1.777-1.732,2.64-2.591c0.214-0.214,0.422-0.426,0.635-0.639  c0.652-0.654,1.296-1.307,1.927-1.955c0.263-0.27,0.524-0.539,0.783-0.808c0.61-0.633,1.21-1.262,1.8-1.888  c0.209-0.221,0.422-0.444,0.628-0.665c0.781-0.834,1.548-1.663,2.294-2.483c0.098-0.107,0.191-0.213,0.288-0.32  c0.647-0.714,1.281-1.423,1.903-2.126c0.221-0.25,0.437-0.497,0.655-0.746c0.509-0.581,1.01-1.159,1.502-1.731  c0.203-0.237,0.408-0.474,0.608-0.709c0.597-0.701,1.181-1.395,1.751-2.081c0.067-0.08,0.137-0.162,0.203-0.242  c0.638-0.77,1.256-1.529,1.861-2.279c0.163-0.202,0.319-0.399,0.479-0.599c0.441-0.551,0.873-1.096,1.296-1.635  c0.181-0.231,0.362-0.461,0.54-0.69c0.429-0.551,0.847-1.095,1.257-1.633c0.125-0.164,0.254-0.332,0.378-0.495  c0.526-0.695,1.037-1.378,1.532-2.048c0.097-0.132,0.189-0.259,0.285-0.39c0.396-0.539,0.783-1.07,1.158-1.592  c0.144-0.2,0.285-0.397,0.426-0.595c0.164-0.23,0.32-0.453,0.48-0.679C512.162,355.108,512.962,347.993,510.83,341.729z"/>
<path style="fill:#FEC373;" d="M278.562,469.757c1.868-0.046,3.723-0.104,5.565-0.174c0.006,0,0.013,0,0.019-0.001  c58.359-2.257,116.693-17.77,165.084-51.248c29.677-20.551,48.479-42.754,58.85-57.401c4.079-5.761,4.89-12.913,2.749-19.204l0,0  c-7.711-2.585-20.912-6.528-37.39-9.551c-0.006,0.013,0-0.001-0.006,0.012c8.583,7.168,10.2,19.682,3.785,28.743  c-22.646,31.988-85.486,99.991-214.119,108.136c-0.065,0.278-0.134,0.55-0.199,0.829c1.749,0,3.507,0,5.296,0  c2.68,0,5.326-0.033,7.954-0.083C276.96,469.8,277.759,469.777,278.562,469.757z"/>
<path style="fill:#FED9A8;" d="M243.795,469.898c1.79,0,3.547,0,5.296,0C209.826,301.133,67.771,322.972,14.26,337.744  c-2.493,0.593-6.657,1.825-13.097,3.984c0,0,0,0.002-0.001,0.002c-0.39,1.146-0.68,2.321-0.871,3.511  c-0.008,0.051-0.017,0.103-0.025,0.154c-0.173,1.127-0.254,2.267-0.246,3.409c0.001,0.155,0.004,0.31,0.009,0.465  c0.015,0.525,0.052,1.05,0.106,1.574c0.024,0.235,0.045,0.47,0.077,0.705c0.039,0.287,0.089,0.573,0.14,0.859  c0.05,0.275,0.106,0.55,0.166,0.824c0.068,0.307,0.138,0.613,0.22,0.918c0.107,0.399,0.225,0.797,0.356,1.191  c0.073,0.219,0.151,0.438,0.231,0.656c0.141,0.382,0.293,0.761,0.457,1.137c0.086,0.197,0.173,0.394,0.265,0.589  c0.196,0.415,0.408,0.824,0.633,1.229c0.098,0.177,0.199,0.354,0.303,0.529c0.276,0.465,0.564,0.925,0.879,1.374l0,0  c0.159,0.225,0.313,0.446,0.476,0.674c0.101,0.142,0.203,0.285,0.306,0.428c0.042,0.058,0.082,0.115,0.124,0.173  c0.375,0.522,0.762,1.053,1.158,1.592c0.096,0.131,0.188,0.258,0.285,0.39c0.493,0.668,1.003,1.349,1.527,2.042  C34.947,402.067,104.738,469.898,243.795,469.898z"/>
<path style="fill:#BF6101;" d="M205.485,454.365c0.574,22.488,22.96,40.576,50.512,40.576c27.551,0,49.938-18.088,50.512-40.576  H205.485z"/>
<g>
	<path style="fill:#FFE0BB;" d="M421.144,357.183c-31.876,0-59.019,7.661-80.675,22.771c-3.404,2.375-6.67,4.967-9.824,7.736   c4.141,19.395,5.89,37.497,3.897,52.112c0.115-0.025,0.232-0.047,0.347-0.072l0.775-0.163c1.957-0.431,3.892-0.881,5.81-1.343   c48.282-11.576,93.72-36.225,126.697-73.734c0.49-0.56,0.938-1.074,1.377-1.586l0.25-0.291   C456.229,359.699,439.267,357.183,421.144,357.183z"/>
	<path style="fill:#FFE0BB;" d="M181.347,387.691c-3.154-2.769-6.42-5.362-9.824-7.736c-21.656-15.11-48.799-22.771-80.675-22.771   c-18.123,0-35.085,2.516-48.654,5.431l0.25,0.291c0.439,0.512,0.887,1.026,1.377,1.586C76.798,402,122.236,426.65,170.518,438.226   c1.918,0.462,3.852,0.912,5.81,1.343l0.775,0.163c0.115,0.025,0.232,0.047,0.347,0.072   C175.457,425.187,177.206,407.086,181.347,387.691C178.194,384.922,177.206,407.086,181.347,387.691z"/>
</g>
<g>
	<path style="fill:#4C3F21;" d="M171.599,262.416c-14.739,0-26.73,11.991-26.73,26.731c0,4.143,3.357,7.5,7.5,7.5s7.5-3.357,7.5-7.5   c0-6.469,5.263-11.731,11.73-11.731c6.469,0,11.731,5.263,11.731,11.731c0,4.143,3.357,7.5,7.5,7.5s7.5-3.357,7.5-7.5   C198.331,274.407,186.339,262.416,171.599,262.416z"/>
	<path style="fill:#4C3F21;" d="M321.162,296.647c4.143,0,7.5-3.357,7.5-7.5c0-6.469,5.263-11.731,11.73-11.731   c6.469,0,11.731,5.263,11.731,11.731c0,4.143,3.357,7.5,7.5,7.5s7.5-3.357,7.5-7.5c0-14.74-11.991-26.731-26.731-26.731   c-14.739,0-26.73,11.991-26.73,26.731C313.662,293.29,317.02,296.647,321.162,296.647z"/>
</g>
<path style="fill:#FEB64F;" d="M255.996,253.898c-15.369,0.132-81.994,136.555-61.44,184.516  c6.448,15.047,21.666,26.408,31.364,30.859c12.284,5.637,25.447-1.748,30.075-14.591c4.628,12.844,17.791,20.228,30.075,14.591  c9.699-4.451,24.916-15.813,31.364-30.859C337.99,390.453,271.365,254.03,255.996,253.898z"/>
<path style="fill:#FEA921;" d="M255.996,253.898c-0.467,0.004-0.983,0.139-1.54,0.388c15.92,62.182,30.02,153.534,16.908,184.129  c-3.167,7.389-8.451,13.882-14.155,19.112c5.429,11.049,17.517,16.953,28.862,11.747c9.699-4.451,24.916-15.813,31.364-30.859  C337.99,390.453,271.365,254.03,255.996,253.898z"/>
<path style="fill:#713802;" d="M257.818,418.804c-0.264,0-0.524,0-0.781,0c-0.671,0-1.364,0-2.082,0c-0.257,0-0.517,0-0.781,0  c-12.752,0-23.942,8.91-23.942,18.9c0,7.54,12.899,13.389,19.225,15.803c2.094,0.799,4.307,1.206,6.539,1.206l0,0  c2.231,0,4.445-0.407,6.539-1.206c6.326-2.415,19.225-8.263,19.225-15.803C281.76,427.714,270.57,418.804,257.818,418.804z"/>
<g>
</g>
<g>
</g>
<g>
</g>
<g>
</g>
<g>
</g>
<g>
</g>
<g>
</g>
<g>
</g>
<g>
</g>
<g>
</g>
<g>
</g>
<g>
</g>
<g>
</g>
<g>
</g>
<g>
</g>
</svg>
