<?xml version="1.0" encoding="iso-8859-1"?>
<!-- Generator: Adobe Illustrator 19.0.0, SVG Export Plug-In . SVG Version: 6.00 Build 0)  -->
<svg xmlns="http://www.w3.org/2000/svg" xmlns:xlink="http://www.w3.org/1999/xlink" version="1.1" id="Layer_1" x="0px" y="0px" viewBox="0 0 512.001 512.001" style="enable-background:new 0 0 512.001 512.001;" xml:space="preserve">
<path style="fill:#331D0E;" d="M210.95,479.083c0.024,18.215,7.869,32.918,28.411,32.918h33.279  c20.542,0,28.388-14.704,28.411-32.918H210.95z"/>
<path style="fill:#DECCBC;" d="M167.414,177.36c0.744-0.401,1.522-0.772,2.343-1.106L210.564,157l-48.506-28.499  c-30.67-15.526-49.02-47.949-46.539-82.236l3.026-41.828c0.332-4.588-5.954-6.202-7.874-2.022L82.579,63.579  c-15.823,34.451-7.002,75.212,21.649,100.038l36.221,26.465L167.414,177.36z"/>
<g>
	<path style="fill:#CEBCAF;" d="M112.514,0.455c0.139-0.071,0.279-0.137,0.424-0.191c-0.161,0.06-0.317,0.134-0.47,0.216   C112.483,0.472,112.498,0.463,112.514,0.455z"/>
	<path style="fill:#CEBCAF;" d="M113.713,0.065c-0.197,0.031-0.391,0.077-0.583,0.137c0.022-0.007,0.043-0.015,0.065-0.022   c0.154-0.045,0.31-0.082,0.467-0.108C113.68,0.07,113.696,0.068,113.713,0.065z"/>
	<path style="fill:#CEBCAF;" d="M115.206,0.096c0.046,0.009,0.092,0.014,0.138,0.024c0.237,0.055,0.47,0.126,0.695,0.219   c-27.859,63.826-17.568,116.195,10.804,140.78l28.363,20.195c0,0,15.085,10.953,18.203,13.217L210.565,157l-48.507-28.499   c-30.67-15.526-49.02-47.949-46.539-82.235l3.026-41.828c0.191-2.644-1.816-4.291-3.918-4.42   C114.822,0.031,115.015,0.058,115.206,0.096z"/>
	<path style="fill:#CEBCAF;" d="M111.283,1.459c0.116-0.142,0.234-0.282,0.363-0.402c0.026-0.024,0.053-0.043,0.08-0.065   c-0.217,0.191-0.421,0.405-0.603,0.656C111.174,1.581,111.231,1.523,111.283,1.459z"/>
	<path style="fill:#CEBCAF;" d="M110.671,2.416c0.127-0.278,0.277-0.526,0.439-0.753C110.948,1.891,110.799,2.139,110.671,2.416z"/>
	<path style="fill:#CEBCAF;" d="M114.421,0.015c0.019,0,0.039,0.001,0.058,0.001c-0.192-0.005-0.383,0-0.574,0.021   C114.077,0.019,114.249,0.012,114.421,0.015z"/>
	<path style="fill:#CEBCAF;" d="M111.875,0.872c0.125-0.1,0.252-0.198,0.386-0.28C112.127,0.674,112,0.771,111.875,0.872z"/>
</g>
<path style="fill:#DECCBC;" d="M344.588,177.36c-0.744-0.401-1.522-0.772-2.343-1.106L301.438,157l48.507-28.498  c30.67-15.526,49.02-47.949,46.539-82.236l-3.026-41.828c-0.332-4.588,5.954-6.202,7.874-2.022l28.092,61.163  c15.823,34.451,7.002,75.212-21.649,100.038l-36.221,26.465L344.588,177.36z"/>
<path style="fill:#CEBCAF;" d="M344.588,177.36c-0.744-0.401-1.522-0.772-2.343-1.106l-3.651-1.723  c3.118-2.264,18.203-13.217,18.203-13.217l28.363-20.195c28.372-24.585,38.663-76.954,10.804-140.78  c0.225-0.093,0.458-0.164,0.695-0.219c0.045-0.011,0.092-0.015,0.138-0.024c0.191-0.038,0.384-0.066,0.579-0.078  c0.069-0.004,0.137-0.003,0.206-0.003c0.172-0.003,0.344,0.004,0.516,0.022c0.081,0.009,0.161,0.022,0.242,0.035  c0.158,0.026,0.313,0.063,0.467,0.108c0.087,0.026,0.173,0.053,0.258,0.084c0.145,0.053,0.285,0.119,0.424,0.191  c0.085,0.044,0.171,0.086,0.253,0.137c0.134,0.082,0.261,0.18,0.387,0.281c0.076,0.061,0.155,0.117,0.227,0.184  c0.129,0.12,0.246,0.26,0.363,0.402c0.057,0.069,0.119,0.129,0.173,0.204c0.163,0.227,0.312,0.475,0.439,0.753l28.092,61.163  c15.823,34.451,7.002,75.212-21.649,100.038l-36.221,26.465L344.588,177.36z"/>
<path style="fill:#72563A;" d="M119.167,202.559c-6.196-0.042-17.222-0.072-17.966-0.083l0,0  c-31.631-0.454-60.493,16.347-73.292,42.664l-12.466,25.633c-2.559,5.262,0.056,11.414,5.839,13.742l28.178,11.34  c20.742,8.348,62.362,8.008,82.996-0.103L119.167,202.559z"/>
<path style="fill:#AB825B;" d="M122.898,228.724c-5.031-0.163-20.708-0.26-22.009-0.279c-0.315-0.005-0.626-0.007-0.94-0.007  c-23.34,0-44.524,12.549-53.969,31.969l-9.104,18.721l20.578,8.281c7.572,3.047,15.601,4.592,23.863,4.592  c10.883,0,39.067-2.693,49.502-7.72L122.898,228.724z"/>
<path style="fill:#72563A;" d="M392.835,202.559c6.196-0.042,17.222-0.072,17.966-0.083l0,0  c31.631-0.454,60.493,16.347,73.292,42.664l12.466,25.633c2.559,5.262-0.056,11.414-5.839,13.742l-28.178,11.34  c-20.742,8.348-62.362,8.008-82.996-0.103L392.835,202.559z"/>
<path style="fill:#AB825B;" d="M389.104,228.724c5.031-0.163,20.708-0.26,22.009-0.279c0.315-0.005,0.626-0.007,0.94-0.007  c23.34,0,44.524,12.549,53.969,31.969l9.104,18.721l-20.578,8.281c-7.572,3.047-15.601,4.592-23.863,4.592  c-10.883,0-39.067-2.693-49.502-7.72L389.104,228.724z"/>
<path style="fill:#6B4D32;" d="M355.097,159.903l-64.346-13.487c-26.037-5.457-53.018-5.315-78.957,0.416l-57.309,12.661  c-28.14,6.217-45.455,31.84-41.58,59.916l14.183,102.772c1.981,14.68,9.949,28.349,22.16,38.397l0,0  c10.5,8.639,17.494,19.627,19.969,31.154l9.023,42.018c2.773,12.911,14.185,22.132,27.39,22.132h98.965  c13.205,0,24.617-9.221,27.39-22.132l9.024-42.018c2.476-11.527,9.47-22.515,19.97-31.154l0,0  c12.212-10.048,20.18-23.717,22.161-38.397L397.257,219.9C401.163,191.617,383.544,165.866,355.097,159.903z"/>
<path style="fill:#5E432C;" d="M355.097,159.903l-64.346-13.487c-17.69-3.708-35.815-4.823-53.753-3.365  c7.833,0.634,15.636,1.747,23.355,3.365l64.346,13.487c28.447,5.962,46.066,31.714,42.162,59.997l-1.968,14.262l-12.149,88.019  c-1.982,14.68-9.949,28.349-22.161,38.397c-6.129,5.042-11.052,10.889-14.591,17.172c-0.92,9.733-3.287,19.309-7.077,28.378  l-2.868,6.865l-3.456,16.092l-1.593,26.797h3.599c4.126,0,8.078-0.901,11.645-2.533c0.713-0.327,1.412-0.682,2.093-1.066  c2.724-1.534,5.176-3.516,7.248-5.857c0.518-0.585,1.012-1.193,1.481-1.822c2.345-3.145,4.055-6.819,4.922-10.854l9.025-42.018  c0.464-2.161,1.087-4.304,1.862-6.415c0.437-1.191,0.933-2.369,1.466-3.538c1.042-2.286,2.253-4.529,3.647-6.707  c0.843-1.317,1.748-2.611,2.714-3.88c0.966-1.268,1.993-2.51,3.078-3.723c2.171-2.425,4.577-4.732,7.202-6.891  c9.922-8.164,17.043-18.718,20.427-30.263c0.781-2.664,1.363-5.381,1.735-8.133l13.198-95.618l0,0l0.92-6.663  C401.163,191.617,383.544,165.865,355.097,159.903z"/>
<g>
	<path style="fill:#8A6747;" d="M207.032,419.966l-5.782-13.839c-6.881-16.468-9.102-34.607-6.405-52.321l5.665-37.213   c3.786-24.874-5.909-49.894-25.279-65.234l0,0c-16.241-12.862-35.616-21.164-56.131-24.053l-5.205-0.733l13.194,95.608   c1.981,14.68,9.949,28.349,22.16,38.397l0,0c10.5,8.639,17.494,19.627,19.969,31.154l9.024,42.018   c2.773,12.911,14.185,22.132,27.39,22.132h3.535L207.032,419.966z"/>
	<path style="fill:#8A6747;" d="M303.133,419.966l-2.135,35.915h3.599c13.205,0,24.617-9.221,27.39-22.132l9.024-42.018   c2.476-11.527,9.47-22.515,19.97-31.154c12.212-10.048,20.18-23.717,22.161-38.397l13.198-95.618l-5.274,0.743   c-20.515,2.888-39.89,11.191-56.131,24.053l0,0c-19.37,15.34-29.065,40.36-25.279,65.234l5.665,37.213   c2.697,17.714,0.476,35.853-6.405,52.321L303.133,419.966z"/>
</g>
<path style="fill:#7C593C;" d="M391.066,227.305c-9,1.267-17.78,3.577-26.172,6.856l-12.149,88.019  c-1.982,14.68-9.949,28.349-22.161,38.397c-6.129,5.043-11.052,10.889-14.591,17.172c-0.92,9.732-3.287,19.309-7.077,28.378  l-2.868,6.865l-3.456,16.092l-1.593,26.797h3.599c4.127,0,8.078-0.901,11.645-2.533c0.713-0.326,1.412-0.682,2.093-1.066  c2.724-1.534,5.176-3.516,7.248-5.857c0.518-0.585,1.013-1.193,1.482-1.822c2.345-3.145,4.055-6.819,4.921-10.854l9.025-42.018  c0.464-2.161,1.087-4.304,1.862-6.415c0.437-1.191,0.933-2.369,1.466-3.538c1.042-2.286,2.253-4.529,3.647-6.707  c0.843-1.317,1.748-2.611,2.714-3.88c0.966-1.268,1.993-2.51,3.078-3.723c2.171-2.425,4.577-4.732,7.202-6.891  c9.922-8.164,17.043-18.718,20.427-30.263c0.781-2.664,1.363-5.381,1.734-8.134l13.198-95.618L391.066,227.305z"/>
<path style="fill:#8A6747;" d="M290.842,146.416c-26.037-5.457-53.018-5.315-78.957,0.416l-14.13,3.121  c3.156,20.604,30.812,36.833,41.915,42.575c2.853,1.475,6.011,2.245,9.223,2.245h0.002h12.555l0,0c3.207,0,6.361-0.765,9.209-2.238  c10.913-5.644,37.88-21.455,41.748-41.598L290.842,146.416z"/>
<path style="fill:#7C593C;" d="M260.354,146.416l50.198,10.522c0.827-1.946,1.46-3.942,1.853-5.983l-21.653-4.539  c-5.423-1.137-10.887-2.027-16.375-2.677c-0.296-0.035-0.592-0.068-0.888-0.101c-1.863-0.212-3.729-0.396-5.597-0.551  c-0.209-0.017-0.418-0.038-0.627-0.055c-0.88-0.07-1.76-0.13-2.641-0.188c-0.527-0.035-1.054-0.066-1.581-0.096  c-1.1-0.063-2.201-0.117-3.302-0.161c-0.888-0.035-1.776-0.069-2.664-0.091c-0.727-0.019-1.455-0.028-2.183-0.038  c-0.74-0.01-1.48-0.016-2.22-0.018c-0.66-0.001-1.32-0.004-1.98,0.001c-1.274,0.011-2.547,0.034-3.82,0.071  c-0.527,0.015-1.053,0.038-1.579,0.057c-0.998,0.037-1.996,0.081-2.993,0.135c-0.464,0.025-0.929,0.048-1.393,0.076  c-1.292,0.079-2.582,0.171-3.872,0.277C244.857,143.689,252.647,144.8,260.354,146.416z"/>
<path style="fill:#513622;" d="M335.873,451.228c-5.797-24.966-28.479-42.361-54.109-42.361h-7.977H236.38h-7.979  c-25.63,0-48.311,17.394-54.109,42.36c-1.412,6.081-1.545,11.508,0.612,15.172c8.404,14.273,32.585,19.728,76.563,19.728  c1.261,0,2.461-0.066,3.615-0.181c1.154,0.115,2.353,0.181,3.615,0.181c43.978,0,68.159-5.455,76.563-19.728  C337.417,462.736,337.285,457.309,335.873,451.228z"/>
<path style="fill:#472E1C;" d="M335.873,451.228c-5.797-24.966-28.479-42.36-54.109-42.36h-7.977h-22.42  c25.631,0,48.312,17.394,54.109,42.36c1.412,6.081,1.544,11.508-0.613,15.171c-7.635,12.966-28.292,18.654-64.979,19.587  c3.699,0.094,7.557,0.141,11.584,0.141c1.261,0,2.461-0.066,3.615-0.182c1.153,0.115,2.353,0.182,3.615,0.182  c43.978,0,68.159-5.455,76.563-19.728C337.417,462.736,337.285,457.308,335.873,451.228z"/>
<g>
	<path style="fill:#4C3F21;" d="M177.264,306.541c4.08,0,7.387-3.307,7.387-7.387c0-13.759-11.194-24.953-24.952-24.953   c-13.759,0-24.953,11.194-24.953,24.953c0,4.08,3.307,7.387,7.387,7.387c4.08,0,7.387-3.307,7.387-7.387   c0-5.613,4.566-10.179,10.178-10.179s10.178,4.566,10.178,10.179C169.877,303.234,173.184,306.541,177.264,306.541z"/>
	<path style="fill:#4C3F21;" d="M332.901,306.541c4.08,0,7.387-3.307,7.387-7.387c0-5.613,4.566-10.179,10.179-10.179   c5.612,0,10.178,4.566,10.178,10.179c0,4.08,3.307,7.387,7.387,7.387s7.387-3.307,7.387-7.387   c0-13.759-11.193-24.953-24.952-24.953s-24.953,11.194-24.953,24.953C325.514,303.234,328.821,306.541,332.901,306.541z"/>
</g>
<g>
	<path style="fill:#261B19;" d="M242.315,446.122l-24.857-12.312c-3.656-1.81-8.087-0.315-9.899,3.341   c-1.811,3.656-0.315,8.087,3.341,9.899l24.858,12.312c1.054,0.522,2.171,0.77,3.273,0.77c2.72,0,5.336-1.508,6.625-4.11   C247.466,452.365,245.971,447.934,242.315,446.122z"/>
	<path style="fill:#261B19;" d="M292.707,433.81l-24.858,12.312c-3.656,1.81-5.152,6.243-3.341,9.899   c1.289,2.602,3.905,4.11,6.625,4.11c1.101,0,2.219-0.247,3.273-0.77l24.858-12.312c3.656-1.81,5.152-6.243,3.341-9.899   C300.796,433.496,296.365,431.998,292.707,433.81z"/>
</g>
<g>
</g>
<g>
</g>
<g>
</g>
<g>
</g>
<g>
</g>
<g>
</g>
<g>
</g>
<g>
</g>
<g>
</g>
<g>
</g>
<g>
</g>
<g>
</g>
<g>
</g>
<g>
</g>
<g>
</g>
</svg>
