<?xml version="1.0" encoding="iso-8859-1"?>
<!-- Generator: Adobe Illustrator 19.0.0, SVG Export Plug-In . SVG Version: 6.00 Build 0)  -->
<svg xmlns="http://www.w3.org/2000/svg" xmlns:xlink="http://www.w3.org/1999/xlink" version="1.1" id="Layer_1" x="0px" y="0px" viewBox="0 0 512 512" style="enable-background:new 0 0 512 512;" xml:space="preserve">
<path style="fill:#FE8901;" d="M447.802,107.517c-14.852-16.708-30.724-32.234-45.427-45.612  c-33.051-30.073-78.332-42.817-122.227-34.45l0,0c-15.955,3.041-32.34,3.041-48.295,0l0,0c-43.895-8.367-89.176,4.377-122.227,34.45  C94.923,75.283,79.05,90.809,64.198,107.517c-20.639,23.219-38.968,53.007-51.781,76.19c-15.05,27.232-16.481,59.939-3.954,88.421  c37.601,85.495,131.704,158.215,192.447,198.369c33.413,22.087,76.768,22.087,110.181,0  c60.743-40.154,154.846-112.873,192.447-198.369c12.526-28.482,11.096-61.189-3.954-88.421  C486.77,160.524,468.441,130.736,447.802,107.517z"/>
<path style="fill:#E57501;" d="M499.583,183.707c-12.813-23.184-31.142-52.972-51.781-76.19  c-14.852-16.708-30.724-32.234-45.427-45.612c-30.252-27.526-70.75-40.521-111.052-36.111c29.507,3.233,57.642,15.66,80.119,36.111  c14.703,13.378,30.576,28.904,45.427,45.612c20.639,23.219,38.968,53.007,51.781,76.19c15.05,27.232,16.481,59.94,3.954,88.421  C435.003,357.623,340.9,430.343,280.157,470.497c-12.204,8.067-25.736,13.174-39.624,15.349  c24.135,3.778,49.348-1.328,70.557-15.349c60.743-40.154,154.846-112.873,192.447-198.369  C516.064,243.647,514.633,210.94,499.583,183.707z"/>
<path style="fill:#FECE00;" d="M356.28,161.967l-10.143-8.254c-6.137-4.994-12.767-9.259-19.756-12.749  c-23.803-11.882-52.781-2.982-66.45,19.842l0,0c-1.779,2.97-6.083,2.97-7.862,0l0,0c-13.669-22.824-42.646-31.725-66.45-19.842  c-6.989,3.489-13.619,7.754-19.756,12.748l-10.143,8.254c-24.982,20.33-39.483,50.827-39.483,83.036v27.494  c0,18.227,7.798,35.409,20.944,48.034c8.764,8.416,14.791,19.276,17.298,31.163c5.748,27.249,23.041,50.646,47.993,63.013  l19.517,9.673c10.715,5.31,22.363,7.965,34.01,7.965c11.648,0,23.295-2.655,34.01-7.965l19.517-9.673  c24.952-12.366,42.245-35.764,47.993-63.013c2.508-11.888,8.535-22.747,17.298-31.163c13.146-12.625,20.944-29.807,20.944-48.034  v-27.494C395.763,212.794,381.262,182.297,356.28,161.967z"/>
<path style="fill:#FDBF00;" d="M356.28,161.967l-10.143-8.254c-6.137-4.994-12.767-9.26-19.756-12.749  c-12.176-6.078-25.701-6.707-37.843-2.827c2.337,0.76,4.645,1.698,6.906,2.827c6.99,3.489,13.619,7.754,19.756,12.749l10.143,8.254  c24.982,20.33,39.483,50.827,39.483,83.036v27.494c0,18.227-7.798,35.409-20.944,48.034c-8.764,8.416-14.791,19.276-17.299,31.163  c-5.748,27.249-23.041,50.646-47.993,63.013l-19.517,9.673c-5.946,2.947-12.18,5.073-18.542,6.384  c5.102,1.052,10.285,1.581,15.469,1.581c11.648,0,23.295-2.655,34.01-7.965l19.517-9.673c24.952-12.366,42.245-35.764,47.993-63.013  c2.508-11.888,8.535-22.747,17.298-31.163c13.146-12.625,20.944-29.807,20.944-48.034v-27.494  C395.763,212.794,381.262,182.297,356.28,161.967z"/>
<path style="fill:#FDEA96;" d="M315.283,297.674c-12.748-12.269-26.656-35.301-37.796-56.21c-9.143-17.162-33.831-17.162-42.974,0  c-11.14,20.909-25.048,43.941-37.796,56.21c-27.074,26.057-24.814,89.838-24.726,92.08c8.206,10.463,18.72,19.124,30.945,25.183  l19.054,9.443c10.715,5.31,22.363,7.965,34.01,7.965c11.648,0,23.295-2.655,34.01-7.965l19.054-9.443  c12.225-6.059,22.739-14.72,30.945-25.183C340.097,387.511,342.357,323.731,315.283,297.674z"/>
<path style="fill:#FEF3CA;" d="M329.861,368.764C302.146,336.719,256,372.229,256,372.229s-46.146-35.51-73.861-3.464  c-12.474,14.423-9.158,31.653-1.738,46.242c5.434,10.685,15.081,17.82,25.916,20.486c10.059,11.021,28.539,18.413,49.684,18.413  c21.223,0,39.76-7.448,49.794-18.537c10.882-2.752,20.578-9.978,25.956-20.659C339.063,400.183,342.25,383.089,329.861,368.764z"/>
<path style="fill:#FDEA96;" d="M333.65,374.012c-0.593,1.373-1.229,2.728-1.9,4.061c-9.764,19.393-33.757,27.43-53.26,17.889  l-13.328-6.52c-5.606-2.743-9.161-8.439-9.161-14.681v-0.033c0,6.261-3.566,11.976-9.191,14.728l-13.252,6.483  c-19.548,9.563-43.291,1.829-53.156-17.569c-0.727-1.429-1.413-2.885-2.05-4.359c-7.834,13.23-4.489,28.137,2.05,40.994  c9.865,19.398,33.608,27.132,53.156,17.569l13.252-6.483c5.625-2.752,9.191-8.466,9.191-14.728v0.033  c0,6.241,3.555,11.938,9.161,14.681l13.328,6.52c19.504,9.541,43.496,1.504,53.26-17.889  C338.189,401.92,341.423,387.14,333.65,374.012z"/>
<path style="fill:#513622;" d="M302.913,341.609L302.913,341.609c-6.406-11.72-21.136-15.973-32.804-9.472l-0.026,0.014  c-8.755,4.878-19.411,4.878-28.166,0l-0.026-0.014c-11.668-6.501-26.398-2.248-32.804,9.472l0,0  c-6.49,11.873-1.909,26.762,10.133,32.933l0.061,0.031c6.095,3.124,10.662,8.442,13.325,14.752  c3.449,8.174,11.537,13.911,20.966,13.911h2.331h0.194h2.331c9.429,0,17.517-5.737,20.966-13.911  c2.662-6.31,7.229-11.628,13.325-14.752l0.061-0.031C304.822,368.37,309.403,353.482,302.913,341.609z"/>
<path style="fill:#3A2516;" d="M302.913,341.609L302.913,341.609c-6.406-11.72-21.136-15.973-32.804-9.472l-0.026,0.014  c-1.438,0.801-2.931,1.458-4.455,1.996c2.533,1.965,4.716,4.468,6.352,7.462l0,0c6.49,11.873,1.909,26.762-10.133,32.933  l-0.061,0.031c-5.392,2.763-4.474,20.286-6.033,28.662h0.149h0.194h2.331c9.429,0,17.518-5.737,20.966-13.911  c2.662-6.31,7.229-11.628,13.324-14.752l0.061-0.031C304.822,368.37,309.403,353.482,302.913,341.609z"/>
<path style="fill:#FECE00;" d="M373.722,148.893l-11.086-9.022c-1.537-1.251-3.104-2.458-4.698-3.623  c-4.487-3.278-3.63-10.238,1.57-12.199c18.41-6.945,42.024-11.03,57.932,3.643c28.376,26.172,22.844,58.733,8.49,84.165  c-3.094,5.482-11.261,4.302-12.853-1.787C406.855,186.258,393.205,164.747,373.722,148.893z"/>
<path style="fill:#FDEA96;" d="M404.715,140.409c24.959,23.02,23.68,50.981,13.244,74.688c-2.239-0.638-4.194-2.362-4.89-5.027  c-6.223-23.812-19.874-45.323-39.356-61.177l-11.086-9.022c-1.537-1.251-3.104-2.458-4.698-3.622c-0.946-0.691-1.64-1.55-2.12-2.486  C372.433,129.001,391.309,128.045,404.715,140.409z"/>
<path style="fill:#FECE00;" d="M138.278,148.893l11.086-9.022c1.537-1.251,3.104-2.458,4.698-3.623  c4.487-3.278,3.63-10.238-1.57-12.199c-18.41-6.945-42.024-11.03-57.932,3.643c-28.376,26.172-22.844,58.733-8.49,84.165  c3.094,5.482,11.261,4.302,12.853-1.787C105.145,186.258,118.795,164.747,138.278,148.893z"/>
<path style="fill:#FDEA96;" d="M107.285,140.409c-24.959,23.02-23.68,50.981-13.244,74.688c2.239-0.638,4.194-2.362,4.89-5.027  c6.223-23.812,19.874-45.323,39.356-61.177l11.086-9.022c1.537-1.251,3.104-2.458,4.698-3.622c0.946-0.691,1.64-1.55,2.12-2.486  C139.567,129.001,120.691,128.045,107.285,140.409z"/>
<g>
	<path style="fill:#4C3F21;" d="M369.866,241c0-4.143-3.357-7.5-7.5-7.5h-19.815c-14.475,0-26.25,11.775-26.25,26.25V275   c0,4.143,3.357,7.5,7.5,7.5s7.5-3.357,7.5-7.5v-15.25c0-6.203,5.047-11.25,11.25-11.25h19.815   C366.509,248.5,369.866,245.143,369.866,241z"/>
	<path style="fill:#4C3F21;" d="M345.366,255.667c-4.143,0-7.5,3.357-7.5,7.5s3.357,7.5,7.5,7.5h12.5c4.143,0,7.5-3.357,7.5-7.5   s-3.357-7.5-7.5-7.5L345.366,255.667L345.366,255.667z"/>
	<path style="fill:#4C3F21;" d="M188.199,282.5c4.143,0,7.5-3.357,7.5-7.5v-15.25c0-14.475-11.775-26.25-26.25-26.25h-19.815   c-4.143,0-7.5,3.357-7.5,7.5s3.357,7.5,7.5,7.5h19.815c6.203,0,11.25,5.047,11.25,11.25V275   C180.699,279.143,184.057,282.5,188.199,282.5z"/>
	<path style="fill:#4C3F21;" d="M154.134,255.667c-4.143,0-7.5,3.357-7.5,7.5s3.357,7.5,7.5,7.5h12.5c4.143,0,7.5-3.357,7.5-7.5   s-3.357-7.5-7.5-7.5L154.134,255.667L154.134,255.667z"/>
</g>
<g>
</g>
<g>
</g>
<g>
</g>
<g>
</g>
<g>
</g>
<g>
</g>
<g>
</g>
<g>
</g>
<g>
</g>
<g>
</g>
<g>
</g>
<g>
</g>
<g>
</g>
<g>
</g>
<g>
</g>
</svg>
