<?xml version="1.0" encoding="iso-8859-1"?>
<!-- Generator: Adobe Illustrator 19.0.0, SVG Export Plug-In . SVG Version: 6.00 Build 0)  -->
<svg xmlns="http://www.w3.org/2000/svg" xmlns:xlink="http://www.w3.org/1999/xlink" version="1.1" id="Layer_1" x="0px" y="0px" viewBox="0 0 512.001 512.001" style="enable-background:new 0 0 512.001 512.001;" xml:space="preserve">
<path style="fill:#E8B179;" d="M100.282,134.244c0-10.495-11.293-17.113-20.449-11.985l-59.748,33.465  c-18.423,11.601-25.28,35.153-15.903,54.802c10.038,21.034,21.582,55.506,26.295,77.808c7.495,35.472,35.969,49.563,54.936,47.153  c0.052,0.004,0.104,0.008,0.155,0.012c7.949,0.598,14.714-5.731,14.714-13.702V134.244z"/>
<path style="fill:#DBA16E;" d="M100.282,161.623c-3.491-0.884-7.244-1.62-11.281-2.206c-15.641-2.271-31.6,0.716-45.401,8.419l0,0  c-15.342,9.661-21.052,29.273-13.243,45.636c8.359,17.516,17.973,46.222,21.897,64.794c0.028,0.134,0.057,0.267,0.086,0.401  c4.29,19.694,24.982,31.456,44.04,24.894c1.334-0.459,2.635-0.952,3.903-1.475L100.282,161.623L100.282,161.623z"/>
<path style="fill:#E8B179;" d="M411.718,134.244c0-10.495,11.293-17.113,20.449-11.985l59.748,33.465  c18.423,11.601,25.28,35.153,15.903,54.802c-10.038,21.034-21.582,55.506-26.295,77.808c-7.495,35.472-35.969,49.563-54.936,47.153  c-0.052,0.004-0.104,0.008-0.155,0.012c-7.949,0.598-14.714-5.731-14.714-13.702V134.244z"/>
<path style="fill:#DBA16E;" d="M411.718,161.623c3.491-0.884,7.244-1.62,11.281-2.206c15.641-2.271,31.6,0.716,45.401,8.419l0,0  c15.342,9.661,21.052,29.273,13.243,45.636c-8.359,17.516-17.973,46.222-21.897,64.794c-0.028,0.134-0.057,0.267-0.086,0.401  c-4.29,19.694-24.982,31.456-44.04,24.894c-1.334-0.459-2.635-0.952-3.903-1.475V161.623H411.718z"/>
<path style="fill:#F3C38D;" d="M372.487,76.915c-16.437-8.383-34.985-11.687-53.295-9.405l-53.51,6.67  c-6.43,0.801-12.935,0.801-19.364,0l-53.51-6.67c-18.31-2.282-36.858,1.022-53.295,9.405  C99.584,97.278,37.406,140.822,54.194,255.463c7.493,51.171,29.623,84.633,56.631,106.475c5.505,4.452,56.229,62.899,145.175,62.899  s139.67-58.446,145.175-62.899c27.008-21.842,49.138-55.304,56.631-106.475C474.594,140.822,412.416,97.278,372.487,76.915z"/>
<path style="fill:#E2AF7D;" d="M372.487,76.915c-16.437-8.383-34.985-11.687-53.295-9.405l-4.502,0.561  c9.295,1.55,18.352,4.513,26.844,8.844c39.929,20.364,102.107,63.907,85.319,178.549c-7.493,51.171-29.623,84.634-56.631,106.475  c-5.178,4.187-50.353,56.124-129.698,62.295c5.024,0.391,10.18,0.604,15.477,0.604c88.946,0,139.67-58.446,145.175-62.899  c27.008-21.842,49.138-55.304,56.631-106.475C474.594,140.822,412.416,97.278,372.487,76.915z"/>
<path style="fill:#BC9A7B;" d="M256,131.833c49.729,0,91.175-26.349,100.47-61.29c-12.032-3.533-24.711-4.599-37.278-3.033  l-53.51,6.67c-6.43,0.802-12.935,0.802-19.364,0l-53.51-6.67c-12.567-1.566-25.246-0.5-37.278,3.033  C164.825,105.484,206.271,131.833,256,131.833z"/>
<path style="fill:#AB825B;" d="M341.533,76.915c3.312,1.689,6.78,3.542,10.34,5.578c1.947-3.847,3.502-7.836,4.597-11.95  c-0.943-0.277-1.892-0.533-2.842-0.78c-0.295-0.076-0.59-0.15-0.886-0.224c-0.797-0.198-1.596-0.386-2.398-0.563  c-0.195-0.043-0.389-0.09-0.584-0.132c-0.958-0.205-1.92-0.391-2.884-0.566c-0.284-0.051-0.568-0.099-0.852-0.147  c-0.785-0.134-1.571-0.258-2.359-0.372c-0.236-0.034-0.472-0.072-0.709-0.104c-0.976-0.133-1.955-0.25-2.935-0.352  c-0.253-0.026-0.507-0.048-0.76-0.072c-0.8-0.076-1.601-0.142-2.403-0.198c-0.258-0.018-0.516-0.038-0.774-0.054  c-0.992-0.06-1.986-0.106-2.981-0.134c-0.206-0.006-0.412-0.007-0.618-0.011c-0.837-0.018-1.675-0.024-2.513-0.019  c-0.266,0.002-0.533,0.002-0.799,0.006c-1.008,0.015-2.016,0.042-3.024,0.091c-0.13,0.006-0.259,0.016-0.389,0.023  c-0.901,0.047-1.802,0.109-2.703,0.183c-0.27,0.022-0.539,0.045-0.809,0.069c-1.019,0.092-2.038,0.196-3.057,0.323l-4.502,0.561  C323.984,69.621,333.042,72.584,341.533,76.915z"/>
<path id="SVGCleanerId_0" style="fill:#FFD6AE;" d="M147.867,181.892l8.399-1.17c18.163-2.529,36.391,4.17,48.594,17.86l0,0  c14.426,16.184,14.716,40.526,0.68,57.049l-40.512,47.691c-4.378,5.154-10.799,8.124-17.561,8.124l0,0  c-12.353,0-22.508-9.741-23.022-22.083l-0.265-6.35c-0.385-9.239-6.275-17.344-14.943-20.564l0,0  c-9.832-3.652-15.079-14.366-11.937-24.372l5.724-18.227C109.383,199.597,126.841,184.819,147.867,181.892z"/>
<path id="SVGCleanerId_1" style="fill:#FFD6AE;" d="M364.133,181.892l-8.399-1.17c-18.163-2.529-36.391,4.17-48.594,17.86l0,0  c-14.426,16.184-14.716,40.526-0.68,57.049l40.512,47.691c4.378,5.154,10.799,8.124,17.561,8.124l0,0  c12.353,0,22.508-9.741,23.022-22.083l0.265-6.35c0.385-9.239,6.275-17.344,14.943-20.564l0,0  c9.832-3.652,15.079-14.366,11.937-24.372l-5.724-18.227C402.617,199.597,385.159,184.819,364.133,181.892z"/>
<g>
	<path id="SVGCleanerId_0_1_" style="fill:#FFD6AE;" d="M147.867,181.892l8.399-1.17c18.163-2.529,36.391,4.17,48.594,17.86l0,0   c14.426,16.184,14.716,40.526,0.68,57.049l-40.512,47.691c-4.378,5.154-10.799,8.124-17.561,8.124l0,0   c-12.353,0-22.508-9.741-23.022-22.083l-0.265-6.35c-0.385-9.239-6.275-17.344-14.943-20.564l0,0   c-9.832-3.652-15.079-14.366-11.937-24.372l5.724-18.227C109.383,199.597,126.841,184.819,147.867,181.892z"/>
</g>
<g>
	<path id="SVGCleanerId_1_1_" style="fill:#FFD6AE;" d="M364.133,181.892l-8.399-1.17c-18.163-2.529-36.391,4.17-48.594,17.86l0,0   c-14.426,16.184-14.716,40.526-0.68,57.049l40.512,47.691c4.378,5.154,10.799,8.124,17.561,8.124l0,0   c12.353,0,22.508-9.741,23.022-22.083l0.265-6.35c0.385-9.239,6.275-17.344,14.943-20.564l0,0   c9.832-3.652,15.079-14.366,11.937-24.372l-5.724-18.227C402.617,199.597,385.159,184.819,364.133,181.892z"/>
</g>
<path style="fill:#A07853;" d="M176.693,399.991c0.392,19.832,35.74,45.203,79.307,45.203s78.915-25.371,79.307-45.203  C335.306,361.243,176.693,359.743,176.693,399.991z"/>
<g>
	<path style="fill:#4C3F21;" d="M163.569,206.93c-12.767,0-23.153,10.387-23.153,23.154c0,4.142,3.358,7.499,7.499,7.499   c4.142,0,7.499-3.357,7.499-7.499c0-4.497,3.658-8.155,8.154-8.155c4.497,0,8.155,3.658,8.155,8.155   c0,4.142,3.358,7.499,7.499,7.499s7.499-3.357,7.499-7.499C186.723,217.316,176.337,206.93,163.569,206.93z"/>
	<path style="fill:#4C3F21;" d="M348.43,206.93c-12.767,0-23.153,10.387-23.153,23.154c0,4.142,3.357,7.499,7.499,7.499   s7.499-3.357,7.499-7.499c0-4.497,3.658-8.155,8.154-8.155c4.497,0,8.155,3.658,8.155,8.155c0,4.142,3.357,7.499,7.499,7.499   s7.499-3.357,7.499-7.499C371.584,217.316,361.197,206.93,348.43,206.93z"/>
</g>
<path style="fill:#BC9A7B;" d="M344.946,377.987c0,32.348-39.823,37.121-88.946,37.121s-88.946-4.772-88.946-37.121  s39.823-90.295,88.946-90.295S344.946,345.639,344.946,377.987z"/>
<path style="fill:#B28965;" d="M256,287.693c-5.313,0-10.516,0.68-15.572,1.93c41.699,10.307,73.374,59.515,73.374,88.365  c0,28.85-31.676,35.765-73.374,36.924c5.056,0.141,10.259,0.197,15.572,0.197c49.124,0,88.946-4.772,88.946-37.121  C344.946,345.639,305.124,287.693,256,287.693z"/>
<path style="fill:#5B432E;" d="M256,313.553L256,313.553c-1.963,0-3.909,0.254-5.819,0.751  c-14.095,3.67-40.448,27.941-40.448,49.188c0,36.499,43.414,31.035,43.414,31.035h5.704c0,0,43.414,5.464,43.414-31.035  c0-21.247-26.352-45.518-40.448-49.188C259.909,313.807,257.963,313.553,256,313.553z"/>
<g>
	<path style="fill:#4C3F21;" d="M239.768,357.739c-2.074-3.586-6.663-4.809-10.247-2.737c-3.585,2.073-4.811,6.661-2.738,10.246   l5.725,9.899c1.39,2.403,3.909,3.746,6.499,3.746c1.274,0,2.566-0.325,3.748-1.009c3.585-2.073,4.811-6.661,2.738-10.246   L239.768,357.739z"/>
	<path style="fill:#4C3F21;" d="M272.233,357.739l-5.725,9.899c-2.074,3.586-0.849,8.173,2.737,10.246   c1.183,0.684,2.473,1.009,3.748,1.009c2.59,0,5.109-1.343,6.499-3.746l5.725-9.899c2.074-3.586,0.849-8.173-2.737-10.246   C278.894,352.93,274.306,354.154,272.233,357.739z"/>
</g>
<g>
</g>
<g>
</g>
<g>
</g>
<g>
</g>
<g>
</g>
<g>
</g>
<g>
</g>
<g>
</g>
<g>
</g>
<g>
</g>
<g>
</g>
<g>
</g>
<g>
</g>
<g>
</g>
<g>
</g>
</svg>
