<?xml version="1.0" encoding="iso-8859-1"?>
<!-- Generator: Adobe Illustrator 19.0.0, SVG Export Plug-In . SVG Version: 6.00 Build 0)  -->
<svg xmlns="http://www.w3.org/2000/svg" xmlns:xlink="http://www.w3.org/1999/xlink" version="1.1" id="Layer_1" x="0px" y="0px" viewBox="0 0 512.001 512.001" style="enable-background:new 0 0 512.001 512.001;" xml:space="preserve">
<path style="fill:#BF6101;" d="M433.936,492.025L433.936,492.025c7.115-16.974-1.248-36.466-18.45-43.007L119.653,336.523  c-16.406-6.239-34.804,1.654-41.589,17.842l0,0c-7.115,16.974,1.248,36.466,18.45,43.007l295.833,112.495  C408.753,516.106,427.151,508.213,433.936,492.025z"/>
<path style="fill:#9A4D01;" d="M433.936,492.025L433.936,492.025c0.734-1.751,1.294-3.529,1.706-5.316  c-6.12,1.444-13.203,1.329-19.507-1.068L120.302,373.146c-15.453-5.876-23.763-22.201-20.139-37.764  c-9.612,2.419-17.988,9.174-22.099,18.982l0,0c-7.115,16.974,1.248,36.466,18.45,43.007l295.833,112.495  C408.753,516.105,427.151,508.213,433.936,492.025z"/>
<path style="fill:#BF6101;" d="M78.064,492.025L78.064,492.025c-7.115-16.974,1.248-36.466,18.45-43.007l295.833-112.495  c16.406-6.239,34.804,1.654,41.589,17.842l0,0c7.115,16.974-1.248,36.466-18.45,43.007L119.653,509.867  C103.247,516.106,84.849,508.213,78.064,492.025z"/>
<path style="fill:#9A4D01;" d="M433.936,354.365c-0.601-1.434-1.298-2.799-2.071-4.099c-3.619,6.078-9.233,11.034-16.379,13.751  L119.653,476.512c-14.953,5.686-31.556-0.37-39.518-13.743c-5.093,8.554-6.231,19.333-2.071,29.256l0,0  c6.785,16.188,25.183,24.081,41.589,17.842l295.833-112.495C432.689,390.83,441.051,371.339,433.936,354.365L433.936,354.365z"/>
<path style="fill:#FE9901;" d="M393.659,213.094C380.119,128.127,260.817,24.061,233.081,0.87c-2.312-1.933-5.836-0.45-6.076,2.554  c-1.832,22.868-13.576,97.332-88.192,190.891c-34.285,42.99-8.837,96.962,33.541,123.419c52.703,32.903,121.282,33.04,173.89,0  C376.67,298.625,400.367,255.193,393.659,213.094z"/>
<path style="fill:#FE8901;" d="M393.659,213.094C380.118,128.126,260.812,24.057,233.08,0.868c-2.314-1.935-5.836-0.442-6.078,2.564  c-0.332,4.131-0.987,9.943-2.275,17.242c44.528,40.232,126.746,122.741,137.85,192.419c6.709,42.099-16.989,85.531-47.415,104.64  c-21.773,13.674-46.283,21.648-71.269,23.986c35.333,3.299,71.575-4.656,102.352-23.986  C376.67,298.625,400.367,255.193,393.659,213.094z"/>
<path style="fill:#FECE00;" d="M264.687,82.809c-3.048-3.618-8.162-0.319-7.202,4.646c3.206,16.579,9.222,44.388,18.806,76.734  c15.552,52.486-33.169,81.873-27.627,42.783c3.819-26.941-4.707-43.346-10.377-50.941c-1.96-2.626-5.485-2.202-6.941,0.812  c-10.829,22.415-26.688,47.936-49.921,74.958c-21.302,24.776-15.821,64.883,0.454,91.424  c51.246,27.302,114.871,25.593,164.364-5.491c2.468-1.55,4.886-3.276,7.253-5.133c0.047-3.246,8.735-34.344,7.662-49.352  C356.467,197.618,290.372,113.294,264.687,82.809z"/>
<path style="fill:#EABD00;" d="M349.634,315.472c0.319-0.223,0.635-0.455,0.952-0.683c0.977-0.707,1.948-1.433,2.909-2.186  c0.001-0.001,0.001-0.001,0.002-0.002c0.047-3.246,8.735-34.344,7.662-49.352c-0.213-2.985-0.557-6.009-1.015-9.064  c-7.208,26.963-24.573,50.731-44.983,63.549c-21.773,13.674-46.283,21.648-71.269,23.986c0.646,0.06,1.293,0.109,1.94,0.162  c0.532,0.043,1.063,0.09,1.596,0.129c0.903,0.065,1.807,0.121,2.71,0.172c0.517,0.029,1.034,0.051,1.551,0.075  c1.488,0.069,2.977,0.119,4.467,0.148c0.53,0.01,1.06,0.021,1.59,0.026c0.901,0.009,1.802,0.015,2.702,0.01  c0.547-0.003,1.095-0.017,1.642-0.026c1.439-0.023,2.877-0.061,4.315-0.121c0.586-0.024,1.171-0.053,1.756-0.084  c1.325-0.069,2.649-0.155,3.972-0.256c0.677-0.052,1.353-0.102,2.029-0.162c0.823-0.073,1.645-0.152,2.467-0.237  c0.762-0.079,1.522-0.167,2.283-0.256c1.146-0.135,2.291-0.281,3.434-0.439c0.756-0.105,1.512-0.213,2.266-0.329  c0.732-0.112,1.464-0.223,2.194-0.345c1.229-0.205,2.456-0.423,3.68-0.656c0.672-0.127,1.343-0.264,2.013-0.4  c0.907-0.184,1.812-0.376,2.716-0.575c0.745-0.164,1.49-0.331,2.234-0.505c1.119-0.263,2.235-0.538,3.349-0.824  c0.586-0.151,1.172-0.304,1.757-0.462c1.323-0.356,2.644-0.724,3.959-1.114c0.446-0.132,0.889-0.274,1.334-0.41  c1.09-0.333,2.177-0.678,3.26-1.034c0.457-0.15,0.916-0.298,1.372-0.452c1.364-0.462,2.723-0.944,4.076-1.443  c0.428-0.158,0.854-0.32,1.281-0.482c1.268-0.48,2.533-0.973,3.79-1.486c0.204-0.083,0.409-0.161,0.613-0.245  c1.415-0.584,2.821-1.195,4.222-1.821c0.371-0.166,0.742-0.331,1.112-0.5c1.398-0.637,2.79-1.29,4.171-1.968  c0.25-0.123,0.499-0.251,0.749-0.375c1.269-0.631,2.53-1.279,3.784-1.946c0.257-0.136,0.515-0.27,0.772-0.407  c1.384-0.745,2.758-1.513,4.123-2.301c0.298-0.172,0.594-0.346,0.891-0.52c1.403-0.822,2.8-1.659,4.181-2.526  c0.787-0.494,1.567-1.015,2.345-1.542C348.938,315.955,349.287,315.716,349.634,315.472z"/>
<path style="fill:#FDEA96;" d="M316.18,227.654c-3.251-5.978-12.014-5.112-14.109,1.363c-2.101,6.494-5.203,12.613-9.278,18.166  c-9.632,13.121-23.404,20.954-36.842,20.955c-9.888,0-19.061-4.28-25.165-11.742c-1.29-1.577-2.596-3.477-3.76-5.727  c-2.405-4.648-8.74-5.464-12.339-1.664c-5.262,5.555-10.799,11.042-16.66,16.39c-16.777,15.311,6.729,54.905,17.24,71.096  c37.403,10.291,77.937,7.25,113.402-9.23c3.319-11.15,7.787-30.541,5.828-48.137C332.975,265.458,327.142,247.809,316.18,227.654z"/>
<path style="fill:#FEE570;" d="M334.086,301.768c-5.81,6.323-12.2,11.743-18.925,15.966c-21.769,13.672-46.273,21.645-71.255,23.984  c1.097,0.102,2.194,0.193,3.292,0.274c0.429,0.031,0.859,0.055,1.288,0.083c0.707,0.046,1.413,0.093,2.121,0.13  c0.223,0.011,0.446,0.023,0.669,0.034c1.572,0.077,3.145,0.126,4.719,0.159c0.629,0.013,1.258,0.028,1.887,0.034  c0.345,0.003,0.69,0.002,1.035,0.004c0.807,0.002,1.614,0,2.42-0.009c1.609-0.018,3.217-0.061,4.825-0.126  c0.699-0.028,1.397-0.062,2.096-0.099c1.369-0.073,2.738-0.159,4.106-0.265c0.205-0.016,0.411-0.033,0.616-0.048  c1.074-0.087,2.147-0.184,3.219-0.292c0.044-0.004,0.089-0.008,0.133-0.013c0.894-0.091,1.786-0.196,2.678-0.302  c0.79-0.093,1.58-0.195,2.369-0.3c0.598-0.079,1.197-0.156,1.795-0.242c0.174-0.025,0.348-0.05,0.522-0.075  c3.43-0.505,6.845-1.118,10.241-1.839c0.13-0.028,0.261-0.055,0.392-0.083c3.446-0.74,6.87-1.592,10.268-2.554  c0.077-0.022,0.155-0.043,0.232-0.065c3.447-0.982,6.866-2.079,10.25-3.29c0.032-0.012,0.065-0.023,0.097-0.034  c4.566-1.638,9.069-3.484,13.492-5.54C330.577,320.852,332.858,311.716,334.086,301.768z"/>
<path style="fill:#FEC373;" d="M376.443,467.866L376.443,467.866c6.664-15.899,24.529-23.786,40.708-18.152  c16.07,7.133,23.667,25.903,16.786,42.32l0,0c-6.664,15.899-24.529,23.786-40.709,18.152  C377.159,503.053,369.562,484.283,376.443,467.866z"/>
<path style="fill:#FFD097;" d="M387.867,478.033c-1.177,11.88,8.726,21.782,20.606,20.606c8.791-0.871,15.902-7.981,16.772-16.772  c1.176-11.88-8.726-21.782-20.606-20.606C395.849,462.132,388.738,469.242,387.867,478.033z"/>
<path style="fill:#FEC373;" d="M135.56,467.866L135.56,467.866c-6.664-15.899-24.529-23.786-40.708-18.152  c-16.07,7.133-23.667,25.903-16.786,42.32l0,0c6.664,15.899,24.529,23.786,40.709,18.152  C134.844,503.053,142.441,484.283,135.56,467.866z"/>
<path style="fill:#FFD097;" d="M124.135,478.033c1.176,11.88-8.726,21.782-20.606,20.606c-8.791-0.871-15.902-7.981-16.772-16.772  c-1.176-11.88,8.726-21.782,20.606-20.606C116.154,462.132,123.265,469.242,124.135,478.033z"/>
<g>
</g>
<g>
</g>
<g>
</g>
<g>
</g>
<g>
</g>
<g>
</g>
<g>
</g>
<g>
</g>
<g>
</g>
<g>
</g>
<g>
</g>
<g>
</g>
<g>
</g>
<g>
</g>
<g>
</g>
</svg>
