<?xml version="1.0" encoding="iso-8859-1"?>
<!-- Generator: Adobe Illustrator 19.0.0, SVG Export Plug-In . SVG Version: 6.00 Build 0)  -->
<svg xmlns="http://www.w3.org/2000/svg" xmlns:xlink="http://www.w3.org/1999/xlink" version="1.1" id="Layer_1" x="0px" y="0px" viewBox="0 0 512.001 512.001" style="enable-background:new 0 0 512.001 512.001;" xml:space="preserve">
<path style="fill:#FB0125;" d="M255.604,10.853c-135.139,0-244.692,109.552-244.692,244.692s109.552,244.692,244.692,244.692  s244.692-109.552,244.692-244.692S390.743,10.853,255.604,10.853z M255.604,457.252c-111.4,0-201.707-90.307-201.707-201.707  S144.204,53.838,255.604,53.838s201.707,90.307,201.707,201.707S367.003,457.252,255.604,457.252z"/>
<path style="fill:#D60024;" d="M255.604,10.853c-5.222,0-10.4,0.183-15.541,0.505c127.896,8.019,229.151,114.269,229.151,244.186  S367.959,491.712,240.063,499.731c5.141,0.322,10.319,0.505,15.541,0.505c135.139,0,244.692-109.552,244.692-244.692  S390.743,10.853,255.604,10.853z"/>
<path style="fill:#939598;" d="M452.056,39.535l-321.973,253.31c-6.257,4.92-7.265,14.014-2.237,20.185l8.164,10.019l0.066-0.052  l1.743-4.835c1.814-5.031,5.004-9.452,9.208-12.759l202.781-159.526c2.838-2.232,6.947-1.74,9.179,1.098  c0.113,0.144,0.206,0.297,0.315,0.443l109.715-86.354L452.056,39.535z"/>
<path style="fill:#AB825B;" d="M349.809,145.875L147.027,305.402c-4.203,3.307-7.394,7.728-9.208,12.759l-4.988,13.835  c-1.337,3.709-4.164,6.431-7.845,7.554l-32.061,13.498L4.937,428.781c-5.743,4.903-6.593,13.464-1.925,19.4l42.859,54.505  c6.009,7.642,17.772,7.033,22.961-1.187l62.991-95.747l16.414-2.834c5.061-0.874,9.18-4.56,10.608-9.494l14.59-50.42l183.033-164.48  c8.943-8.248,10.04-21.986,2.52-31.55l0,0C356.756,144.135,352.647,143.644,349.809,145.875z"/>
<path style="fill:#808285;" d="M460.842,50.686L138.68,303.756c-5.596,4.4-6.978,12.133-3.614,18.133l0.945,1.159l0.066-0.052  l1.743-4.835c1.814-5.031,5.004-9.452,9.208-12.759l202.781-159.526c2.838-2.232,6.947-1.74,9.179,1.098  c0.113,0.144,0.206,0.297,0.315,0.443l109.715-86.354L460.842,50.686z"/>
<g>
	<path id="SVGCleanerId_0" style="fill:#6D6E71;" d="M510.757,35.721l-48.45,38.175c-1.416,1.116-3.468,0.872-4.584-0.544   l-20.447-25.951c-1.116-1.416-0.872-3.468,0.544-4.584l48.45-38.175c1.416-1.116,3.468-0.872,4.584,0.544l20.447,25.952   C512.416,32.553,512.173,34.606,510.757,35.721z"/>
</g>
<g>
	<path id="SVGCleanerId_0_1_" style="fill:#6D6E71;" d="M510.757,35.721l-48.45,38.175c-1.416,1.116-3.468,0.872-4.584-0.544   l-20.447-25.951c-1.116-1.416-0.872-3.468,0.544-4.584l48.45-38.175c1.416-1.116,3.468-0.872,4.584,0.544l20.447,25.952   C512.416,32.553,512.173,34.606,510.757,35.721z"/>
</g>
<g>
	<path id="SVGCleanerId_0_2_" style="fill:#6D6E71;" d="M510.757,35.721l-48.45,38.175c-1.416,1.116-3.468,0.872-4.584-0.544   l-20.447-25.951c-1.116-1.416-0.872-3.468,0.544-4.584l48.45-38.175c1.416-1.116,3.468-0.872,4.584,0.544l20.447,25.952   C512.416,32.553,512.173,34.606,510.757,35.721z"/>
</g>
<g>
	<path id="SVGCleanerId_0_3_" style="fill:#6D6E71;" d="M510.757,35.721l-48.45,38.175c-1.416,1.116-3.468,0.872-4.584-0.544   l-20.447-25.951c-1.116-1.416-0.872-3.468,0.544-4.584l48.45-38.175c1.416-1.116,3.468-0.872,4.584,0.544l20.447,25.952   C512.416,32.553,512.173,34.606,510.757,35.721z"/>
</g>
<path style="fill:#997252;" d="M154.429,324.025l-14.59,50.42c-1.428,4.934-5.546,8.62-10.608,9.494l-16.414,2.834L49.826,482.52  c-3.345,5.299-9.418,7.415-14.924,6.217l10.968,13.949c6.009,7.642,17.772,7.033,22.961-1.187l62.991-95.747l16.414-2.834  c5.061-0.874,9.18-4.56,10.608-9.494l14.59-50.42l183.033-164.48c6.834-6.304,9.069-15.809,6.395-24.212L154.429,324.025z"/>
<path style="fill:#58595B;" d="M212.195,308.172l-7.885,7.085l0.566,2.475c3.354,14.677-5.366,29.382-19.855,33.476l-15.204,4.298  l-3.034,10.486l20.759-5.867c19.241-5.438,30.823-24.966,26.367-44.457L212.195,308.172z"/>
<path style="fill:#654D34;" d="M9.604,424.796l-4.668,3.984c-5.743,4.903-6.593,13.464-1.925,19.4l42.859,54.505  c5.697,7.245,16.558,7.062,22.092,0.017L9.604,424.796z"/>
<path style="fill:#543C2A;" d="M47.464,504.374c0.275,0.253,0.549,0.508,0.839,0.734c0.183,0.143,0.377,0.263,0.565,0.396  c0.264,0.185,0.525,0.375,0.798,0.54c0.214,0.129,0.436,0.237,0.655,0.354c0.259,0.138,0.516,0.28,0.782,0.4  c0.241,0.109,0.487,0.199,0.732,0.293c0.252,0.098,0.503,0.198,0.76,0.281c0.265,0.085,0.534,0.152,0.803,0.221  c0.242,0.062,0.483,0.126,0.727,0.175c0.288,0.058,0.578,0.099,0.869,0.139c0.227,0.031,0.453,0.062,0.681,0.082  c0.31,0.027,0.62,0.039,0.931,0.046c0.208,0.005,0.416,0.008,0.623,0.003c0.329-0.007,0.658-0.028,0.986-0.059  c0.185-0.017,0.37-0.036,0.555-0.061c0.346-0.046,0.691-0.104,1.034-0.175c0.161-0.033,0.321-0.07,0.481-0.109  c0.36-0.088,0.717-0.188,1.069-0.304c0.135-0.044,0.269-0.094,0.404-0.142c0.368-0.134,0.733-0.28,1.091-0.445  c0.11-0.051,0.218-0.107,0.327-0.161c0.372-0.184,0.739-0.379,1.096-0.598c0.085-0.052,0.168-0.11,0.252-0.164  c0.37-0.238,0.735-0.489,1.085-0.764c0.059-0.047,0.115-0.098,0.174-0.146c0.365-0.297,0.722-0.609,1.061-0.948  c0.033-0.033,0.063-0.069,0.095-0.103c0.357-0.364,0.701-0.746,1.024-1.157l0,0l-16.676-22.263l-1.46,2.08  c-3.345,5.299-9.418,7.415-14.924,6.217l10.968,13.949c0.366,0.466,0.755,0.898,1.161,1.303  C47.17,504.126,47.321,504.243,47.464,504.374z"/>
<g>
	<path id="SVGCleanerId_0_4_" style="fill:#6D6E71;" d="M510.757,35.721l-48.45,38.175c-1.416,1.116-3.468,0.872-4.584-0.544   l-20.447-25.951c-1.116-1.416-0.872-3.468,0.544-4.584l48.45-38.175c1.416-1.116,3.468-0.872,4.584,0.544l20.447,25.952   C512.416,32.553,512.173,34.606,510.757,35.721z"/>
</g>
<g>
	<path id="SVGCleanerId_0_5_" style="fill:#6D6E71;" d="M510.757,35.721l-48.45,38.175c-1.416,1.116-3.468,0.872-4.584-0.544   l-20.447-25.951c-1.116-1.416-0.872-3.468,0.544-4.584l48.45-38.175c1.416-1.116,3.468-0.872,4.584,0.544l20.447,25.952   C512.416,32.553,512.173,34.606,510.757,35.721z"/>
</g>
<path style="fill:#6D6E71;" d="M510.757,35.721l-48.45,38.175c-1.416,1.116-3.468,0.872-4.584-0.544l-20.447-25.951  c-1.116-1.416-0.872-3.468,0.544-4.584l48.45-38.175c1.416-1.116,3.468-0.872,4.584,0.544l20.447,25.952  C512.416,32.553,512.173,34.606,510.757,35.721z"/>
<path style="fill:#58595B;" d="M457.723,73.353c1.116,1.416,3.168,1.659,4.584,0.544l48.45-38.175  c1.416-1.116,1.659-3.168,0.544-4.584l-9.965-12.648l-53.578,42.215L457.723,73.353z"/>
<path style="fill:#FB0125;" d="M100.36,66.419c-10.268,8.439-19.835,17.698-28.604,27.677l345.305,345.305  c9.977-8.771,19.234-18.34,27.67-28.611L100.36,66.419z"/>
<path style="fill:#D60024;" d="M426.96,393.018c-7.53,11.065-15.945,21.476-25.141,31.14l15.238,15.238  c0.315-0.277,0.627-0.556,0.94-0.834c0.923-0.82,1.846-1.639,2.756-2.473c0.057-0.052,0.113-0.106,0.17-0.159  c3.416-3.133,6.74-6.366,9.973-9.686c0.26-0.267,0.523-0.532,0.782-0.801c0.928-0.961,1.845-1.933,2.757-2.909  c0.275-0.295,0.551-0.59,0.824-0.886c0.928-1.003,1.848-2.013,2.759-3.032c0.203-0.226,0.403-0.455,0.605-0.682  c2.079-2.343,4.118-4.723,6.108-7.145L426.96,393.018z"/>
<g>
</g>
<g>
</g>
<g>
</g>
<g>
</g>
<g>
</g>
<g>
</g>
<g>
</g>
<g>
</g>
<g>
</g>
<g>
</g>
<g>
</g>
<g>
</g>
<g>
</g>
<g>
</g>
<g>
</g>
</svg>
