<?xml version="1.0" encoding="iso-8859-1"?>
<!-- Generator: Adobe Illustrator 19.0.0, SVG Export Plug-In . SVG Version: 6.00 Build 0)  -->
<svg xmlns="http://www.w3.org/2000/svg" xmlns:xlink="http://www.w3.org/1999/xlink" version="1.1" id="Layer_1" x="0px" y="0px" viewBox="0 0 512 512" style="enable-background:new 0 0 512 512;" xml:space="preserve">
<path style="fill:#C9E7F8;" d="M355.462,268.364c-5.106-64.888-44.67-158.143-44.67-158.143h-59.739h-9.343h-40.502  c0,0-34.598,81.549-43.261,145.191l-2.115,31.608c0.072,57.177,19.854,105.592,19.854,105.592h66.024h9.343h85.261  C336.314,392.612,360.569,333.252,355.462,268.364z"/>
<path style="fill:#A2D8F4;" d="M355.462,268.364c-5.106-64.888-44.67-158.143-44.67-158.143h-31.528  c0,0,39.564,93.255,44.67,158.143s-19.148,124.248-19.148,124.248h31.528C336.314,392.612,360.569,333.252,355.462,268.364z"/>
<rect x="208.51" y="22.696" style="fill:#008777;" width="94.97" height="27.802"/>
<rect x="271.96" y="22.696" style="fill:#037C6A;" width="31.528" height="27.802"/>
<path style="fill:#006659;" d="M293.539,0h-75.078c-14.745,0-26.699,11.954-26.699,26.699l0,0h128.476l0,0  C320.238,11.954,308.284,0,293.539,0z"/>
<path style="fill:#008777;" d="M368.46,484.971H143.54l10.57-81.263c1.408-13.575,13.594-23.931,28.159-23.931H329.73  c14.566,0,26.751,10.356,28.159,23.931L368.46,484.971z"/>
<path style="fill:#006659;" d="M326.362,403.708l10.538,81.263h31.56l-10.57-81.263c-0.176-1.697-0.52-3.344-1.017-4.926  c-1.241-3.956-3.432-7.51-6.317-10.445c-0.577-0.587-1.182-1.149-1.812-1.685c-3.152-2.679-6.946-4.694-11.127-5.83  c-0.418-0.114-0.84-0.218-1.266-0.314c-2.128-0.478-4.345-0.731-6.621-0.731h-31.528  C312.769,379.777,324.954,390.133,326.362,403.708z"/>
<path style="fill:#CCCCCC;" d="M274.438,353.421h-36.876c-7.314,0-13.243,5.929-13.243,13.243v13.113h63.362v-13.113  C287.681,359.35,281.752,353.421,274.438,353.421z"/>
<path style="fill:#FE9901;" d="M227.952,357.57c2.414-2.55,5.821-4.149,9.61-4.149h36.876c3.788,0,7.196,1.599,9.61,4.149l0,0  c0,0,18.522-23.322-5.14-37.181C265.246,312.387,256,302.812,256,302.812s-9.246,9.575-22.908,17.577  C209.43,334.248,227.952,357.57,227.952,357.57L227.952,357.57z"/>
<path style="fill:#006659;" d="M328.243,58.758h-5.127c-2.095,0-3.972-1.174-5.015-2.988c-3.185-5.537-9.153-9.271-16.006-9.271  h-92.189c-6.853,0-12.821,3.734-16.006,9.271c-1.044,1.814-2.921,2.988-5.015,2.988h-5.127c-3.151,0-5.705,2.551-5.705,5.699v23.049  c0,3.147,2.554,5.699,5.705,5.699h1.968c3.151,0,5.705,2.551,5.705,5.699l0,0c0,13.34,10.826,24.154,24.181,24.154h80.779  c13.355,0,24.181-10.814,24.181-24.154l0,0c0-3.147,2.554-5.699,5.705-5.699h1.968c3.151,0,5.705-2.551,5.705-5.699v-23.05  C333.949,61.309,331.394,58.758,328.243,58.758z"/>
<g>
	<path style="fill:#666666;" d="M178.052,69.166l-1.442,0.39c-9.673,2.771-18.642,7.47-26.255,13.9   c-13,10.981-20.894,25.948-22.229,42.146L108.808,360.06c-1.387,16.826,4.371,33.173,16.212,46.03   c6.941,7.536,15.572,13.362,25.156,17.213l1.375,0.528l1.883-14.811l-1.366-0.603c-6.218-2.989-11.815-7.066-16.445-12.094   c-9.079-9.858-13.5-22.316-12.448-35.08l19.317-234.458c1.575-19.114,15.355-35.134,34.117-42.049l1.442-0.428V69.166H178.052z"/>
	<path style="fill:#666666;" d="M403.192,360.06l-19.317-234.459c-1.335-16.197-9.229-31.165-22.229-42.146   c-7.613-6.431-16.583-11.13-26.255-13.9l-1.442-0.39v15.143l1.442,0.428c18.762,6.915,32.541,22.935,34.117,42.049l19.317,234.458   c1.052,12.764-3.369,25.222-12.448,35.08c-4.63,5.028-10.228,9.105-16.445,12.094l-1.366,0.603l1.883,14.811l1.375-0.528   c9.584-3.851,18.216-9.677,25.156-17.213C398.821,393.233,404.579,376.886,403.192,360.06z"/>
</g>
<path style="fill:#01544B;" d="M389.487,512H122.513c-5.777,0-10.461-4.683-10.461-10.461v-12.122  c0-5.777,4.683-10.461,10.461-10.461h266.974c5.777,0,10.461,4.683,10.461,10.461v12.122C399.948,507.316,395.264,512,389.487,512z"/>
<path style="fill:#014238;" d="M389.487,478.957H368.42V512h21.067c5.777,0,10.461-4.684,10.461-10.461v-12.122  C399.948,483.64,395.264,478.957,389.487,478.957z"/>
<g>
</g>
<g>
</g>
<g>
</g>
<g>
</g>
<g>
</g>
<g>
</g>
<g>
</g>
<g>
</g>
<g>
</g>
<g>
</g>
<g>
</g>
<g>
</g>
<g>
</g>
<g>
</g>
<g>
</g>
</svg>
