<?xml version="1.0" encoding="iso-8859-1"?>
<!-- Generator: Adobe Illustrator 19.0.0, SVG Export Plug-In . SVG Version: 6.00 Build 0)  -->
<svg xmlns="http://www.w3.org/2000/svg" xmlns:xlink="http://www.w3.org/1999/xlink" version="1.1" id="Layer_1" x="0px" y="0px" viewBox="0 0 512 512" style="enable-background:new 0 0 512 512;" xml:space="preserve">
<path style="fill:#D8D8DA;" d="M419.544,152.685l-38.892-62.798c-6.108-9.99-16.974-16.083-28.684-16.083h-60.25h-0.093h-60.25  c-11.71,0-22.576,6.093-28.684,16.083l-38.892,62.798H419.544z"/>
<path style="fill:#2B2B2D;" d="M100.299,116.588h-55.45c-6.156,0-11.147,4.991-11.147,11.147v24.95h77.745v-24.95  C111.447,121.578,106.456,116.588,100.299,116.588z"/>
<path style="fill:#1A1A1C;" d="M100.299,116.588H80.597v36.097h30.85v-24.95C111.447,121.578,106.456,116.588,100.299,116.588z"/>
<path style="fill:#C7C5CB;" d="M380.651,89.886c-6.108-9.99-16.974-16.083-28.684-16.083H321.12  c11.709,0.001,22.574,6.093,28.682,16.083l38.765,62.799h30.977L380.651,89.886z"/>
<path style="fill:#444451;" d="M493.828,425.267H18.172C8.136,425.267,0,417.13,0,407.094V163.853  c0-10.036,8.136-18.172,18.172-18.172h475.655c10.036,0,18.172,8.136,18.172,18.172v243.242  C512,417.13,503.864,425.267,493.828,425.267z"/>
<path style="fill:#32323F;" d="M493.828,145.68h-30.85c10.036,0,18.172,8.136,18.172,18.172v243.242  c0,10.036-8.136,18.172-18.172,18.172h30.85c10.036,0,18.172-8.136,18.172-18.172V163.853  C512,153.816,503.864,145.68,493.828,145.68z"/>
<path style="fill:#C7C5CB;" d="M512,215.785H0v-51.933c0-10.036,8.136-18.172,18.172-18.172h475.655  c10.036,0,18.172,8.136,18.172,18.172v51.933H512z"/>
<path style="fill:#AEADB3;" d="M493.828,145.68h-30.85c10.036,0,18.172,8.136,18.172,18.172v51.933H512v-51.933  C512,153.816,503.864,145.68,493.828,145.68z"/>
<path style="fill:#363644;" d="M493.828,425.267H18.172C8.136,425.267,0,417.13,0,407.094v-51.933h512v51.933  C512,417.13,503.864,425.267,493.828,425.267z"/>
<path style="fill:#262635;" d="M481.15,407.094c0,10.036-8.136,18.172-18.172,18.172h30.85c10.036,0,18.172-8.136,18.172-18.172  v-51.933h-30.85V407.094z"/>
<circle style="fill:#B3B3B3;" cx="291.72" cy="285.477" r="152.72"/>
<circle style="fill:#B0DBFD;" cx="291.72" cy="285.477" r="110.41"/>
<path style="fill:#84C9FE;" d="M299.204,175.319c43.98,17.245,75.124,60.059,75.124,110.154s-31.144,92.909-75.124,110.155  c57.471-3.849,102.901-51.666,102.926-110.106c0-0.016,0.001-0.032,0.001-0.048C402.13,227.011,356.691,179.169,299.204,175.319z"/>
<circle style="fill:#C9E7F8;" cx="291.72" cy="285.477" r="79.85"/>
<g>
</g>
<g>
</g>
<g>
</g>
<g>
</g>
<g>
</g>
<g>
</g>
<g>
</g>
<g>
</g>
<g>
</g>
<g>
</g>
<g>
</g>
<g>
</g>
<g>
</g>
<g>
</g>
<g>
</g>
</svg>
