<?xml version="1.0" encoding="iso-8859-1"?>
<!-- Generator: Adobe Illustrator 19.0.0, SVG Export Plug-In . SVG Version: 6.00 Build 0)  -->
<svg xmlns="http://www.w3.org/2000/svg" xmlns:xlink="http://www.w3.org/1999/xlink" version="1.1" id="Layer_1" x="0px" y="0px" viewBox="0 0 512 512" style="enable-background:new 0 0 512 512;" xml:space="preserve">
<path style="fill:#006659;" d="M255.996,97.733c-26.945,0-48.867-21.921-48.867-48.867S229.051,0,255.996,0  c26.946,0,48.867,21.921,48.867,48.867S282.941,97.733,255.996,97.733z M255.996,14.517c-18.941,0-34.35,15.409-34.35,34.35  s15.409,34.35,34.35,34.35s34.35-15.409,34.35-34.35S274.936,14.517,255.996,14.517z"/>
<path style="fill:#C7C5CB;" d="M283.914,120.532h-55.832V75.009c0-7.056,5.72-12.777,12.777-12.777h30.279  c7.056,0,12.777,5.72,12.777,12.777v45.523H283.914z"/>
<path style="fill:#AEADB3;" d="M271.139,62.233h-18.66c0.141,0.76-0.301,58.299-0.301,58.299h31.737V75.01  C283.914,67.953,278.195,62.233,271.139,62.233z"/>
<circle style="fill:#FC8829;" cx="255.999" cy="306.96" r="205.04"/>
<g>
	<path style="fill:#FE4F19;" d="M255.999,101.915c-5.31,0-10.573,0.202-15.782,0.598c105.868,8.058,189.261,96.512,189.261,204.444   s-83.393,196.386-189.261,204.444c5.209,0.397,10.472,0.599,15.782,0.599c113.242,0,205.043-91.801,205.043-205.043   S369.241,101.915,255.999,101.915z"/>
	<circle style="fill:#FE4F19;" cx="255.999" cy="306.96" r="160.93"/>
</g>
<circle style="fill:#C9E7F8;" cx="255.999" cy="306.96" r="151.95"/>
<path style="fill:#B7DFF6;" d="M280.415,282.54l94.787,22.709c1.796,0.43,1.796,2.986,0,3.416l-94.787,22.709l-22.709,94.787  c-0.43,1.796-2.986,1.796-3.416,0l-22.709-94.787l-94.787-22.709c-1.796-0.43-1.796-2.986,0-3.416l94.787-22.709l22.709-94.787  c0.43-1.796,2.986-1.796,3.416,0L280.415,282.54z"/>
<path style="fill:#008777;" d="M238.996,292.122l-81.761,109.78c-1.878,2.522,1.296,5.696,3.818,3.818l109.78-81.761  c0.823-0.613,1.553-1.343,2.167-2.167l81.761-109.78c1.878-2.522-1.296-5.696-3.818-3.818l-109.78,81.761  C240.34,290.569,239.609,291.298,238.996,292.122z"/>
<path style="fill:#006659;" d="M157.236,401.902c-1.878,2.522,1.296,5.696,3.818,3.818l109.78-81.761  c0.823-0.613,1.553-1.343,2.167-2.167l81.761-109.78c1.878-2.522-1.296-5.696-3.818-3.818L157.236,401.902z"/>
<g>
	<path style="fill:#008777;" d="M255.999,201.97c-6.846,0-12.416-5.57-12.416-12.416s5.57-12.416,12.416-12.416   s12.416,5.57,12.416,12.416C268.414,196.4,262.845,201.97,255.999,201.97z"/>
	<path style="fill:#008777;" d="M255.999,434.411c-6.846,0-12.416-5.57-12.416-12.416s5.57-12.416,12.416-12.416   s12.416,5.57,12.416,12.416C268.414,428.841,262.845,434.411,255.999,434.411z"/>
	<path style="fill:#008777;" d="M372.219,318.191c-6.846,0-12.416-5.57-12.416-12.416s5.57-12.416,12.416-12.416   s12.416,5.57,12.416,12.416S379.065,318.191,372.219,318.191z"/>
	<path style="fill:#008777;" d="M139.779,318.191c-6.846,0-12.416-5.57-12.416-12.416s5.57-12.416,12.416-12.416   c6.846,0,12.416,5.57,12.416,12.416S146.625,318.191,139.779,318.191z"/>
</g>
<g>
</g>
<g>
</g>
<g>
</g>
<g>
</g>
<g>
</g>
<g>
</g>
<g>
</g>
<g>
</g>
<g>
</g>
<g>
</g>
<g>
</g>
<g>
</g>
<g>
</g>
<g>
</g>
<g>
</g>
</svg>
