<?xml version="1.0" encoding="iso-8859-1"?>
<!-- Generator: Adobe Illustrator 19.0.0, SVG Export Plug-In . SVG Version: 6.00 Build 0)  -->
<svg xmlns="http://www.w3.org/2000/svg" xmlns:xlink="http://www.w3.org/1999/xlink" version="1.1" id="Layer_1" x="0px" y="0px" viewBox="0 0 512 512" style="enable-background:new 0 0 512 512;" xml:space="preserve">
<g>
	<path style="fill:#FC8829;" d="M285.752,109.787h-29.638c-3.077,0-5.639,2.36-5.89,5.426l-2.932,35.688h47.282l-2.932-35.688   C291.39,112.148,288.828,109.787,285.752,109.787z"/>
	<path style="fill:#FC8829;" d="M215.053,0L215.053,0c-7.139,0-12.999,5.645-13.267,12.778l-5.188,138.124h36.91L228.32,12.778   C228.051,5.645,222.191,0,215.053,0z"/>
</g>
<path style="fill:#E57501;" d="M263.358,109.787v41.115h31.216l-2.931-35.688c-0.252-3.066-2.814-5.426-5.89-5.426L263.358,109.787  L263.358,109.787z"/>
<g>
	<path style="fill:#FC8829;" d="M145.35,226.191h25.902v-41.652H145.35c-2.322,0-4.204,1.882-4.204,4.204v33.244   C141.146,224.309,143.029,226.191,145.35,226.191z"/>
	<path style="fill:#FC8829;" d="M145.35,260.783h25.902v-18.708H145.35c-2.322,0-4.204,1.882-4.204,4.204v10.3   C141.146,258.901,143.029,260.783,145.35,260.783z"/>
</g>
<path style="fill:#006659;" d="M163.152,178.273v113.136c0,14.983,2.109,46.846,6.265,61.241l0,0  c5.397,18.694,6.452,37.958,7.338,57.395l6.837,86.566c0.392,8.61,7.487,15.389,16.106,15.389h134.61  c8.619,0,15.714-6.779,16.106-15.389l6.837-86.566c0.886-19.437,1.941-38.702,7.338-57.395l0,0  c4.156-14.395,6.265-46.258,6.265-61.241V178.273c0-18.472-14.974-33.446-33.446-33.446h-140.81  C178.126,144.827,163.152,159.801,163.152,178.273z"/>
<path style="fill:#01544B;" d="M337.409,144.827h-31.241c18.472,0,33.446,14.974,33.446,33.446v113.136  c0,14.983-2.109,46.845-6.265,61.241c-5.397,18.694-6.452,37.958-7.338,57.395l-6.837,86.566  c-0.392,8.61-7.487,15.389-16.106,15.389h31.241c8.619,0,15.714-6.779,16.106-15.389l6.837-86.566  c0.886-19.437,1.941-38.702,7.338-57.395c4.156-14.395,6.265-46.258,6.265-61.241V178.273  C370.856,159.801,355.881,144.827,337.409,144.827z"/>
<path style="fill:#84C9FE;" d="M336.513,235.368H197.493c-5.766,0-10.441-4.675-10.441-10.441v-35.242  c0-5.766,4.675-10.441,10.441-10.441h139.019c5.766,0,10.441,4.675,10.441,10.441v35.242  C346.954,230.694,342.28,235.368,336.513,235.368z"/>
<path style="fill:#00A5FE;" d="M336.513,179.244h-31.216c5.766,0,10.441,4.675,10.441,10.441v35.242  c0,5.766-4.675,10.441-10.441,10.441h31.216c5.766,0,10.441-4.675,10.441-10.441v-35.242  C346.954,183.919,342.28,179.244,336.513,179.244z"/>
<g>
	<path style="fill:#01CDB4;" d="M340.601,257.606H193.407c-1.755,0-3.177-1.422-3.177-3.177l0,0c0-1.755,1.422-3.177,3.177-3.177   h147.194c1.755,0,3.177,1.422,3.177,3.177l0,0C343.777,256.184,342.355,257.606,340.601,257.606z"/>
	<path style="fill:#01CDB4;" d="M340.601,277.55H193.407c-1.755,0-3.177-1.422-3.177-3.177l0,0c0-1.755,1.422-3.177,3.177-3.177   h147.194c1.755,0,3.177,1.422,3.177,3.177l0,0C343.777,276.128,342.355,277.55,340.601,277.55z"/>
	<path style="fill:#01CDB4;" d="M340.601,297.493H193.407c-1.755,0-3.177-1.422-3.177-3.177l0,0c0-1.755,1.422-3.177,3.177-3.177   h147.194c1.755,0,3.177,1.422,3.177,3.177l0,0C343.777,296.071,342.355,297.493,340.601,297.493z"/>
	<path style="fill:#01CDB4;" d="M340.601,317.437H193.407c-1.755,0-3.177-1.422-3.177-3.177l0,0c0-1.755,1.422-3.177,3.177-3.177   h147.194c1.755,0,3.177,1.422,3.177,3.177l0,0C343.777,316.014,342.355,317.437,340.601,317.437z"/>
</g>
<g>
</g>
<g>
</g>
<g>
</g>
<g>
</g>
<g>
</g>
<g>
</g>
<g>
</g>
<g>
</g>
<g>
</g>
<g>
</g>
<g>
</g>
<g>
</g>
<g>
</g>
<g>
</g>
<g>
</g>
</svg>
