<?xml version="1.0" encoding="iso-8859-1"?>
<!-- Generator: Adobe Illustrator 19.0.0, SVG Export Plug-In . SVG Version: 6.00 Build 0)  -->
<svg xmlns="http://www.w3.org/2000/svg" xmlns:xlink="http://www.w3.org/1999/xlink" version="1.1" id="Layer_1" x="0px" y="0px" viewBox="0 0 512.001 512.001" style="enable-background:new 0 0 512.001 512.001;" xml:space="preserve">
<path style="fill:#BC9A7B;" d="M332.862,9.283c-0.72-1.857-1.8-3.498-3.133-4.869l0,0l0,0C327.044,1.652,323.316,0,319.306,0  h-126.61c-4.011,0-7.731,1.642-10.414,4.406v0.033l-0.008-0.025l0,0c-1.333,1.372-2.414,3.012-3.134,4.869l-0.44,1.035l9.822,29.368  c7.759,26.184,23.555,49.266,45.151,65.98l22.328,17.28l22.327-17.28c21.597-16.715,37.392-39.797,45.151-65.98l9.822-29.368  L332.862,9.283z"/>
<path style="fill:#D6B79D;" d="M459.825,308.333c-14.033-16.265-36.736-50.907-36.736-104.803c0-52.373,12.391-84.263,19.52-98.276  c2.365-4.648,0.227-10.323-4.596-12.306l-84.33-34.656L332.862,9.283c-0.72-1.857-1.8-3.498-3.134-4.869l0,0l-12.189,36.443  c-7.076,23.879-21.481,44.929-41.177,60.172l-20.361,15.758l-20.362-15.759c-19.696-15.243-34.101-36.293-41.177-60.172  L182.274,4.414l0,0c-1.333,1.372-2.414,3.012-3.134,4.869l-20.821,49.009l-84.33,34.656c-4.824,1.982-6.961,7.658-4.596,12.306  c7.129,14.014,19.52,45.903,19.52,98.276c0,54.108-22.882,88.81-36.902,104.994c-6.913,7.98-10.654,18.215-10.654,28.773v152.548  c0,12.236,9.919,22.155,22.155,22.155h384.977c12.236,0,22.155-9.919,22.155-22.155V337.297  C470.645,326.652,466.779,316.392,459.825,308.333z"/>
<path style="fill:#999999;" d="M182.264,4.461c0.006-0.006,0.012-0.012,0.018-0.019l-0.008-0.029L182.264,4.461z"/>
<path style="fill:#AB825B;" d="M208.581,487.122h-94.233c-6.96,0-12.602-5.642-12.602-12.602V357.982  c0-3.607,2.924-6.531,6.531-6.531h106.375c3.607,0,6.531,2.924,6.531,6.531V474.52C221.183,481.48,215.541,487.122,208.581,487.122z  "/>
<path style="fill:#D6B79D;" d="M153.464,404.32v82.79h16v-82.79C164.149,404.942,158.78,404.942,153.464,404.32z"/>
<path style="fill:#BC9A7B;" d="M101.745,357.982v13.624c0,10.8,7.069,20.328,17.405,23.459l22.366,6.775  c13.006,3.94,26.888,3.94,39.895,0l22.366-6.775c10.336-3.131,17.405-12.659,17.405-23.459v-13.624c0-3.607-2.924-6.531-6.531-6.531  H108.276C104.67,351.45,101.745,354.375,101.745,357.982z"/>
<path style="fill:#A07853;" d="M214.652,351.45H183.52c3.607,0,6.531,2.924,6.531,6.531V474.52c0,6.96-5.642,12.602-12.602,12.602  h31.132c6.96,0,12.602-5.642,12.602-12.602V357.982C221.183,354.375,218.259,351.45,214.652,351.45z"/>
<path style="fill:#B59072;" d="M214.652,351.45H183.52c3.607,0,6.531,2.924,6.531,6.531v41.24l13.727-4.158  c10.336-3.131,17.405-12.658,17.405-23.457v-13.625C221.183,354.375,218.259,351.45,214.652,351.45z"/>
<path style="fill:#AB825B;" d="M397.654,487.122h-94.233c-6.96,0-12.602-5.642-12.602-12.602V357.982  c0-3.607,2.924-6.531,6.531-6.531h106.375c3.607,0,6.531,2.924,6.531,6.531V474.52C410.256,481.48,404.614,487.122,397.654,487.122z  "/>
<path style="fill:#D6B79D;" d="M342.538,404.32v82.79h16v-82.79C353.222,404.942,347.853,404.942,342.538,404.32z"/>
<path style="fill:#BC9A7B;" d="M290.819,357.982v13.624c0,10.8,7.069,20.328,17.405,23.459l22.366,6.775  c13.006,3.94,26.888,3.94,39.895,0l22.366-6.775c10.336-3.131,17.405-12.659,17.405-23.459v-13.624c0-3.607-2.924-6.531-6.531-6.531  H297.35C293.743,351.45,290.819,354.375,290.819,357.982z"/>
<path style="fill:#A07853;" d="M403.725,351.45h-31.132c3.607,0,6.531,2.924,6.531,6.531V474.52c0,6.96-5.642,12.602-12.602,12.602  h31.132c6.96,0,12.602-5.642,12.602-12.602V357.982C410.256,354.375,407.332,351.45,403.725,351.45z"/>
<path style="fill:#B59072;" d="M403.725,351.45h-31.132c3.607,0,6.531,2.924,6.531,6.531v41.24l13.727-4.158  c10.336-3.131,17.405-12.658,17.405-23.457v-13.625C410.256,354.375,407.332,351.45,403.725,351.45z"/>
<path style="fill:#AB825B;" d="M213.386,288.11h-80.77c-5.966,0-10.802-4.836-10.802-10.802V177.42c0-3.092,2.506-5.598,5.598-5.598  h91.177c3.092,0,5.598,2.506,5.598,5.598v99.888C224.187,283.274,219.351,288.11,213.386,288.11z"/>
<path style="fill:#BC9A7B;" d="M121.815,177.421v11.677c0,9.257,6.059,17.423,14.919,20.107l19.17,5.807  c11.148,3.377,23.047,3.377,34.195,0l19.17-5.807c8.86-2.684,14.919-10.85,14.919-20.107v-11.677c0-3.092-2.506-5.598-5.598-5.598  h-91.177C124.321,171.823,121.815,174.329,121.815,177.421z"/>
<path style="fill:#D6B79D;" d="M165.001,216.991v71.119h16v-71.119C175.692,217.718,170.31,217.718,165.001,216.991z"/>
<path style="fill:#A07853;" d="M218.589,171.823h-31.132c3.092,0,5.598,2.506,5.598,5.598v99.888  c0,5.966-4.836,10.802-10.802,10.802h31.132c5.966,0,10.802-4.836,10.802-10.802v-99.888  C224.187,174.329,221.681,171.823,218.589,171.823z"/>
<path style="fill:#B59072;" d="M220.254,172.074c-0.526-0.164-1.085-0.252-1.665-0.252h-31.132c3.092,0,5.598,2.506,5.598,5.598  v36.696l16.214-4.911c8.86-2.684,14.919-10.85,14.919-20.107v-11.677C224.187,174.909,222.533,172.783,220.254,172.074z"/>
<path style="fill:#AB825B;" d="M379.386,288.11h-80.77c-5.966,0-10.802-4.836-10.802-10.802V177.42c0-3.092,2.506-5.598,5.598-5.598  h91.177c3.092,0,5.598,2.506,5.598,5.598v99.888C390.187,283.274,385.351,288.11,379.386,288.11z"/>
<path style="fill:#BC9A7B;" d="M287.815,177.421v11.677c0,9.257,6.059,17.423,14.919,20.107l19.17,5.807  c11.148,3.377,23.047,3.377,34.195,0l19.17-5.807c8.86-2.684,14.919-10.85,14.919-20.107v-11.677c0-3.092-2.506-5.598-5.598-5.598  h-91.177C290.321,171.823,287.815,174.329,287.815,177.421z"/>
<path style="fill:#D6B79D;" d="M331.001,216.991v71.119h16v-71.119C341.692,217.718,336.31,217.718,331.001,216.991z"/>
<path style="fill:#A07853;" d="M384.589,171.823h-31.132c3.092,0,5.598,2.506,5.598,5.598v99.888  c0,5.966-4.836,10.802-10.802,10.802h31.132c5.966,0,10.802-4.836,10.802-10.802v-99.888  C390.187,174.329,387.681,171.823,384.589,171.823z"/>
<path style="fill:#B59072;" d="M386.254,172.074c-0.526-0.164-1.085-0.252-1.665-0.252h-31.132c3.092,0,5.598,2.506,5.598,5.598  v36.696l16.214-4.911c8.86-2.684,14.919-10.85,14.919-20.107v-11.677C390.187,174.909,388.533,172.783,386.254,172.074z"/>
<g>
	<polygon style="fill:#BC9A7B;" points="256.001,116.787 240.359,104.682 240.359,512 271.643,512 271.643,104.682  "/>
	<path style="fill:#BC9A7B;" d="M470.644,337.297c0-10.645-3.866-20.905-10.82-28.965c-14.033-16.265-36.736-50.907-36.736-104.802   c0-52.373,12.391-84.263,19.52-98.276c2.365-4.648,0.228-10.323-4.596-12.306l-84.33-34.656l-20.82-49.009   c-0.72-1.857-1.8-3.498-3.134-4.869l-4.721,14.115l23.16,50.291l58.713,24.129c4.824,1.982,6.961,7.657,4.596,12.306   c-7.129,14.013-19.52,45.903-19.52,98.276c0,53.895,22.703,88.537,36.736,104.802c6.954,8.06,10.82,18.32,10.82,28.965v174.703   h8.977c12.236,0,22.155-9.919,22.155-22.155V337.297z"/>
</g>
<g>
	<path style="fill:#AB825B;" d="M276.363,101.029c19.696-15.243,34.101-36.293,41.177-60.173l12.188-36.442l0,0   c1.333,1.372,2.414,3.013,3.134,4.869l20.821,49.009l-1.674,3.416c-12.911,26.342-31.189,49.693-53.659,68.552l-8.003,6.717   c-3.453,2.898-8.51,2.824-11.876-0.175l-22.47-20.014l0,0L276.363,101.029z"/>
	<path style="fill:#AB825B;" d="M235.639,101.029c-19.696-15.243-34.101-36.293-41.177-60.173L182.274,4.414l0,0   c-1.333,1.372-2.414,3.013-3.134,4.869l-20.821,49.009l1.674,3.416c12.911,26.342,31.189,49.693,53.659,68.552l8.003,6.717   c3.453,2.898,8.51,2.824,11.876-0.175l22.47-20.014l0,0L235.639,101.029z"/>
</g>
<g>
</g>
<g>
</g>
<g>
</g>
<g>
</g>
<g>
</g>
<g>
</g>
<g>
</g>
<g>
</g>
<g>
</g>
<g>
</g>
<g>
</g>
<g>
</g>
<g>
</g>
<g>
</g>
<g>
</g>
</svg>
