<svg id="Layer_1" enable-background="new 0 0 496.5 496.5" height="512" viewBox="0 0 496.5 496.5" width="512" xmlns="http://www.w3.org/2000/svg"><path d="m388.358 84.192c-11.058 3.574-22.781.59-30.969-7.171-51.433-48.751-138.781-59.191-216.421-20.309s-121.6 115.08-113.369 185.466c1.322 11.303-3.43 22.456-12.718 29.032-14.393 10.188-18.835 29.027-11.17 44.332 7.816 15.606 25.929 23.076 42.473 17.516l5.439-1.828c9.89-3.324 20.739-1.336 28.945 5.108 52.267 41.044 133.48 47.883 206.182 11.474s115.87-105.538 114.31-171.976c-.245-10.431 4.661-20.309 13.247-26.238l4.721-3.26c14.362-9.918 19.23-28.896 11.415-44.503-7.746-15.467-25.625-22.962-42.085-17.643z" fill="#ffe070"/><path d="m401.06 175.836c-.001-.052-.002-.105-.003-.157-7.391.81-14.642 3.976-20.506 8.63-9.398 7.457-15.622 18.265-19.849 29.493-3.101 8.238-5.29 16.922-9.874 24.436-13.707 22.465-43.624 27.744-69.898 29.241-34.546 1.968-69.245 1.264-103.683-2.105-20.479-2.003-44.694-3.542-57.84 12.289-6.909 8.32-8.867 19.74-8.615 30.551.459 19.682 6.695 37.885 16.955 53.457 47.716 16.288 105.651 12.859 159.002-13.859 72.702-36.409 115.871-105.538 114.311-171.976z" fill="#ffce66"/><path d="m424.431 100.284c1.689.455 1.649-3 2.09-4.594-8.921-11.207-24.062-16.053-38.163-11.498-11.083 3.58-22.797.575-30.969-7.171-51.433-48.751-138.781-59.191-216.421-20.309s-121.6 115.08-113.369 185.466c.785 6.715-.573 13.378-3.753 19.058 10.639-3.198 19.316-13.162 23.737-23.813 5.576-13.434 15.216-82.642 110.994-141.578 16.088-9.9 88.772-45.501 166.705 4.771 27.828 17.952 62.289-10.27 99.149-.332z" fill="#fff2b9"/><path d="m325.282 463c94.285 0 170.718-76.433 170.718-170.718h-341.436c0 94.285 76.433 170.718 170.718 170.718z" fill="#ffb750"/><path d="m325.282 463.5c-93.287 0-171.218-75.491-171.218-171.718h342.436c0 96.29-77.989 171.718-171.218 171.718zm-170.218-170.718c.27 93.63 76.525 169.718 170.218 169.718s169.948-76.088 170.218-169.718z" fill="#ffb750"/><path d="m494.445 315.417c1.025-7.566 1.555-15.288 1.555-23.135h-341.436c0 7.847.53 15.569 1.555 23.135z" fill="#ffe070"/><path d="m199.018 292.282c2.665 71.417 58.175 128.448 126.264 128.448s123.599-57.031 126.264-128.448z" fill="#ffe070"/><path d="m448.771 315.417c1.536-7.497 2.479-15.228 2.775-23.135h-252.528c.295 7.907 1.238 15.638 2.775 23.135z" fill="#ffe5a5"/><path d="m387.571 403.368-51.204-111.086h-22.17l-51.204 111.086c38.53 23.163 86.049 23.162 124.578 0z" fill="#fff2b9"/><path d="m347.031 315.417-10.664-23.135h-22.17l-10.664 23.135z" fill="#fff2f3"/><path d="m91.424 179.771c-.321 2.621-.146 5.565 1.679 7.473 2.968 3.103 8.288 1.614 11.698-.996 4.596-3.517 7.883-8.706 9.1-14.364.317-1.473.494-3.029.05-4.468-.696-2.256-2.83-3.832-5.094-4.499-10.542-3.103-16.302 7.621-17.433 16.854z" fill="#fff2b9"/><path d="m328.203 237.015c.874-1.536 1.126-3.536.221-5.054-1.073-1.801-3.353-2.418-5.421-2.757-7.379-1.209-24.772 1.746-17.815 13.076 5.372 8.75 19.136 1.552 23.015-5.265z" fill="#ffce66"/></svg>