<svg id="Layer_1" enable-background="new 0 0 496 496" height="512" viewBox="0 0 496 496" width="512" xmlns="http://www.w3.org/2000/svg"><path d="m197.664 29.139c0-15.43-11.999-28.572-27.419-29.12-16.189-.575-29.494 12.378-29.494 28.438v.682c0 13.689-7.941 26.258-20.474 31.764-63.427 27.864-109.277 108.435-109.277 203.487 0 118.142 70.832 177.761 158.207 177.761s158.207-59.619 158.207-177.761c0-95.052-45.85-175.623-109.277-203.487-12.532-5.506-20.473-18.075-20.473-31.764z" fill="#cd8e50"/><path d="m25.357 289.633c0-95.052 45.85-175.623 109.277-203.487 12.533-5.506 20.474-18.075 20.474-31.764v-.682c0-16.061 13.305-29.014 29.494-28.438 4.765.169 9.203 1.542 13.062 3.812-.033-15.402-12.02-28.509-27.419-29.056-16.189-.575-29.494 12.378-29.494 28.438v.682c0 13.689-7.942 26.258-20.474 31.764-63.427 27.865-109.277 108.436-109.277 203.488 0 48.507 11.941 87.148 32.064 115.848-11.314-24.9-17.707-55.111-17.707-90.605z" fill="#dda450"/><path d="m302.453 149.013c-82.508 11.599-148.317 75.229-163.181 156.643-2.938 16.092-2.66 32.564.052 48.695 8.95 53.235-31.935 68.415-37.491 71.153-.989.487-1.954 1.082-2.864 1.763 21.163 9.914 45.011 14.884 70.239 14.884 87.375 0 158.207-59.619 158.207-177.761 0-42.491-9.163-82.088-24.962-115.377z" fill="#ba8050"/><circle cx="329.638" cy="340.638" fill="#69da61" r="155.362"/><circle cx="329.638" cy="340.638" fill="#a8ffa9" r="119.563"/><circle cx="329.638" cy="340.638" fill="#c9ffd2" r="60.279"/><g fill="#5ab161"><path d="m329.638 288.359c-4.418 0-8-3.582-8-8v-8.646c0-4.418 3.582-8 8-8s8 3.582 8 8v8.646c0 4.419-3.582 8-8 8z"/><path d="m292.571 292.435-4.323-7.488c-2.21-3.826-.898-8.719 2.928-10.928 3.829-2.21 8.72-.898 10.928 2.928l4.323 7.488c2.21 3.826.898 8.719-2.928 10.928-3.814 2.202-8.712.912-10.928-2.928z"/><path d="m273.436 317.427-7.488-4.323c-3.826-2.209-5.138-7.102-2.929-10.928 2.21-3.826 7.103-5.139 10.929-2.928l7.488 4.323c3.826 2.209 5.138 7.102 2.929 10.928-2.217 3.836-7.114 5.132-10.929 2.928z"/><path d="m269.359 348.638h-8.646c-4.418 0-8-3.582-8-8s3.582-8 8-8h8.646c4.418 0 8 3.582 8 8s-3.582 8-8 8z"/><path d="m263.019 379.101c-2.209-3.827-.897-8.719 2.929-10.928l7.488-4.323c3.828-2.21 8.72-.897 10.929 2.928 2.209 3.827.897 8.719-2.929 10.928l-7.488 4.323c-3.803 2.195-8.705.922-10.929-2.928z"/><path d="m291.176 407.257c-3.826-2.209-5.138-7.102-2.928-10.928l4.323-7.488c2.208-3.827 7.102-5.138 10.928-2.928s5.138 7.102 2.928 10.928l-4.323 7.488c-2.216 3.838-7.114 5.131-10.928 2.928z"/><path d="m329.638 417.563c-4.418 0-8-3.582-8-8v-8.646c0-4.418 3.582-8 8-8s8 3.582 8 8v8.646c0 4.419-3.582 8-8 8z"/><path d="m357.173 404.329-4.323-7.488c-2.21-3.826-.898-8.719 2.928-10.928 3.828-2.21 8.72-.898 10.928 2.928l4.323 7.488c2.21 3.826.898 8.719-2.928 10.928-3.815 2.202-8.712.912-10.928-2.928z"/><path d="m385.329 382.029-7.488-4.323c-3.826-2.209-5.138-7.102-2.929-10.928 2.21-3.826 7.103-5.139 10.929-2.928l7.488 4.323c3.826 2.209 5.138 7.102 2.929 10.928-2.216 3.836-7.113 5.132-10.929 2.928z"/><path d="m398.563 348.638h-8.646c-4.418 0-8-3.582-8-8s3.582-8 8-8h8.646c4.418 0 8 3.582 8 8s-3.582 8-8 8z"/><path d="m374.912 314.499c-2.209-3.827-.897-8.719 2.929-10.928l7.488-4.323c3.829-2.211 8.719-.897 10.929 2.928 2.209 3.827.897 8.719-2.929 10.928l-7.488 4.323c-3.802 2.195-8.705.922-10.929-2.928z"/><path d="m355.777 295.363c-3.826-2.209-5.138-7.102-2.928-10.928l4.323-7.488c2.208-3.827 7.102-5.139 10.928-2.928 3.826 2.209 5.138 7.102 2.928 10.928l-4.323 7.488c-2.215 3.838-7.113 5.131-10.928 2.928z"/></g><path d="m123.187 381.416c.113-2.502-.214-5.282-2.043-6.964-1.617-1.487-4.026-1.723-6.179-1.368-4.052.667-7.684 3.152-10.266 6.392-4.631 5.81-10.814 24.217 1.436 25.517 10.238 1.086 16.69-15.557 17.052-23.577z" fill="#ba8050"/></svg>