<svg id="Layer_1" enable-background="new 0 0 496 496" height="512" viewBox="0 0 496 496" width="512" xmlns="http://www.w3.org/2000/svg"><path d="m322.515 205.933c5.658-43.181-26.687-78.908-67.682-82.416-48.99-4.192-87.996 35.33-81.248 83.153 4.988 35.35-4.488 71.299-26.484 99.423-17.105 21.871-27.249 49.447-27.1 79.396.356 71.572 60.883 112.846 132.438 110.408 68.637-2.338 123.561-41.874 123.561-111.058 0-29.667-10.1-56.977-27.05-78.679-22.161-28.374-31.112-64.533-26.435-100.227z" fill="#ffe070"/><path d="m349.765 307.215c-21.899-28.647-32.521-64.645-27.381-100.336 5.625-39.059-20.104-73.216-56.854-81.683 20.312 15.795 31.178 40.774 27.304 67.661-5.147 35.727 5.551 71.725 27.448 100.42 16.418 21.515 26.168 48.387 26.168 77.536 0 6.63-.504 12.987-1.477 19.066-2.914 18.213-14.419 34.519-32.233 42.253-4.375 1.9-9.383 3.647-11.564 7.89-1.507 2.931-1.283 6.406-1.758 9.668-1.121 7.706-6.219 13.923-12.97 17.23-34.093 16.698-80.63 19.986-118.6 7.48 23.136 15.022 52.773 22.582 84.591 21.497 68.637-2.338 123.561-41.875 123.561-111.058 0-29.189-9.776-56.094-26.235-77.624z" fill="#ffce66"/><path d="m137.396 399.405c-.149-29.949 9.995-57.524 27.1-79.396 21.995-28.124 31.472-64.074 26.484-99.423-6.76-47.911 32.355-87.336 81.248-83.153 11.52.986 22.341 4.514 31.825 10.023-12.393-13.402-29.814-22.278-49.219-23.939-48.991-4.192-87.996 35.33-81.248 83.153 4.988 35.35-4.488 71.299-26.484 99.423-17.105 21.871-27.249 49.447-27.1 79.396.198 39.774 18.978 70.191 47.907 88.95-18.844-18.558-30.358-43.936-30.513-75.034z" fill="#fff2b9"/><path d="m248.006 131.22c-4.433 0-8.006-3.592-8.006-8-.001-.104-.21-13.871-8.446-31.542-11.021-23.647-30.471-42.787-57.808-56.888-3.926-2.026-5.468-6.851-3.441-10.777 2.024-3.926 6.848-5.468 10.777-3.442 32.846 16.944 59.441 43.512 70.449 78.407 10.323-15.279 28.689-33.581 58.637-37.179 4.377-.528 8.37 2.602 8.896 6.988.527 4.387-2.602 8.37-6.988 8.897-41.962 5.042-56.332 47.592-56.472 48.021-1.087 3.33-4.189 5.515-7.598 5.515z" fill="#ffb750"/><path d="m151.695.527c-4.472.446-7.5 4.286-6.891 8.737 1.692 12.356 7.321 36.797 25.88 51.424 19.762 15.575 37.89 9.339 45.143 5.676 4.008-2.025 6.95-5.75 7.985-10.125 1.871-7.905 3.706-26.982-16.056-42.557-18.56-14.627-43.647-14.394-56.061-13.155z" fill="#a8ffa9"/><path d="m144.804 9.264c1.692 12.356 7.321 36.797 25.88 51.424 6.326 4.986 12.485 7.737 18.174 9.052 7.342-8.402 3.601-27.436-9.173-44.329-10.175-13.454-23.218-21.769-33.203-22.187-1.333 1.591-1.994 3.733-1.678 6.04z" fill="#c9ffd2"/><ellipse cx="317.219" cy="406.06" fill="#ffce66" rx="11.543" ry="8.405" transform="matrix(.866 -.5 .5 .866 -160.531 213.011)"/><path d="m284.353 459.962c1.258-.759 2.518-1.752 2.903-3.171.327-1.205-.043-2.477-.411-3.67-.356-1.154-.675-1.697-2.316-1.975-3.285-.557-6.767.132-9.592 1.9-1.727 1.08-3.268 2.651-3.753 4.63-2.126 8.678 9.862 4.28 13.169 2.286z" fill="#ffce66"/><path d="m205.595 190.004c.39 2.329 2.141 4.5 4.463 4.93 2.538.471 4.994-1.116 6.872-2.888 3.422-3.229 6.084-7.708 5.69-12.396-.437-5.204-8.397-4.73-11.42-2.024-2.924 2.619-6.259 8.473-5.605 12.378z" fill="#fff2b9"/></svg>