<svg id="Layer_1" enable-background="new 0 0 496.01 496.01" height="512" viewBox="0 0 496.01 496.01" width="512" xmlns="http://www.w3.org/2000/svg"><path d="m441.651 389.752-185.794-384.826c-3.171-6.568-12.533-6.568-15.704 0l-185.793 384.826c-4.366 9.043-2.543 19.833 4.497 26.997 103.889 105.727 274.497 105.636 378.297 0 7.04-7.164 8.863-17.954 4.497-26.997z" fill="#a8ffa9"/><path d="m436.385 378.845c-103.67 104.64-273.08 104.649-376.759 0l-5.266 10.907c-4.366 9.043-2.543 19.833 4.497 26.997 103.889 105.727 274.497 105.636 378.297 0 7.04-7.165 8.863-17.954 4.497-26.997z" fill="#85eda2"/><path d="m240.153 4.926-157.671 326.577c33.824 55.851 95.298 93.195 165.523 93.195s131.699-37.345 165.523-93.195l-157.671-326.577c-3.171-6.568-12.533-6.568-15.704 0z" fill="#ff5872"/><g fill="#db4968"><path d="m248.005 382.451c-62.611 0-118.266-29.686-153.57-75.706l-11.953 24.758c33.824 55.851 95.298 93.195 165.523 93.195s131.699-37.345 165.523-93.195l-11.953-24.758c-35.304 46.02-90.959 75.706-153.57 75.706z"/><path d="m153.116 329.386c-4.418 0-8-3.582-8-8v-16.329c0-4.418 3.582-8 8-8s8 3.582 8 8v16.329c0 4.418-3.583 8-8 8z"/><path d="m216.375 329.386c-4.418 0-8-3.582-8-8v-16.329c0-4.418 3.582-8 8-8s8 3.582 8 8v16.329c0 4.418-3.582 8-8 8z"/><path d="m279.635 329.386c-4.418 0-8-3.582-8-8v-16.329c0-4.418 3.582-8 8-8s8 3.582 8 8v16.329c0 4.418-3.582 8-8 8z"/><path d="m342.895 329.386c-4.418 0-8-3.582-8-8v-16.329c0-4.418 3.582-8 8-8s8 3.582 8 8v16.329c0 4.418-3.582 8-8 8z"/><path d="m184.745 258.622c-4.418 0-8-3.582-8-8v-16.329c0-4.418 3.582-8 8-8s8 3.582 8 8v16.329c0 4.419-3.582 8-8 8z"/><path d="m248.005 258.622c-4.418 0-8-3.582-8-8v-16.329c0-4.418 3.582-8 8-8s8 3.582 8 8v16.329c0 4.419-3.582 8-8 8z"/><path d="m311.265 258.622c-4.418 0-8-3.582-8-8v-16.329c0-4.418 3.582-8 8-8s8 3.582 8 8v16.329c0 4.419-3.582 8-8 8z"/><path d="m216.375 187.859c-4.418 0-8-3.582-8-8v-16.329c0-4.418 3.582-8 8-8s8 3.582 8 8v16.329c0 4.419-3.582 8-8 8z"/><path d="m279.635 187.859c-4.418 0-8-3.582-8-8v-16.329c0-4.418 3.582-8 8-8s8 3.582 8 8v16.329c0 4.419-3.582 8-8 8z"/><path d="m248.005 117.096c-4.418 0-8-3.582-8-8v-16.329c0-4.418 3.582-8 8-8s8 3.582 8 8v16.329c0 4.419-3.582 8-8 8z"/></g></svg>