<svg id="Layer_1" enable-background="new 0 0 498 498" height="512" viewBox="0 0 498 498" width="512" xmlns="http://www.w3.org/2000/svg"><path d="m182.518 102.866c-4.418 0-8-3.582-8-8v-44.024c0-28.034 22.807-50.842 50.841-50.842 22.117 0 40.111 17.994 40.111 40.11v9.12c0 16.691-13.579 30.27-30.27 30.27s-30.27-13.579-30.27-30.27v-6.313c0-4.418 3.582-8 8-8s8 3.582 8 8v6.313c0 7.868 6.401 14.27 14.27 14.27s14.27-6.401 14.27-14.27v-9.12c0-13.294-10.816-24.11-24.111-24.11-19.212 0-34.842 15.63-34.842 34.842v44.024c.001 4.418-3.581 8-7.999 8z" fill="#5ab161"/><circle cx="182.517" cy="276.383" fill="#69da61" r="181.517"/><path d="m196.353 95.386c12.887 84.782 14.137 261.678 2.459 361.793-10.556.939-21.521.985-32.59 0-11.775-100.954-10.316-277.745 2.459-361.793 9.016-.68 18.292-.707 27.672 0zm105.704 62.626-7.492-21.474-4.271-6.227c-11.355-8.392-23.724-15.491-36.888-21.081l.735 3.016c26.505 108.829 26.332 222.447-.501 331.189 14.88-6.343 28.741-14.617 41.266-24.506l7.15-20.495c27.159-77.839 27.159-162.581.001-240.422zm-231.929-24.176-7.15 20.494c-27.158 77.84-27.158 162.583 0 240.423l7.492 21.474 4.271 6.227c11.355 8.392 23.724 15.491 36.888 21.081l-.735-3.016c-26.506-108.829-26.332-222.446.5-331.189-14.88 6.344-28.74 14.617-41.266 24.506z" fill="#a8ffa9"/><path d="m309.914 498c103.325 0 187.086-83.761 187.086-187.086h-374.172c0 103.325 83.761 187.086 187.086 187.086z" fill="#ff7f90"/><path d="m146.227 310.914c10.743 86.839 79.933 153.837 163.687 153.837s152.944-66.998 163.687-153.837z" fill="#ff5872"/><g fill="#ad4968"><path d="m200.46 352.846c-4.418 0-8-3.582-8-8v-6.184c0-4.418 3.582-8 8-8s8 3.582 8 8v6.184c0 4.418-3.582 8-8 8z"/><path d="m244.241 352.846c-4.418 0-8-3.582-8-8v-6.184c0-4.418 3.582-8 8-8s8 3.582 8 8v6.184c0 4.418-3.581 8-8 8z"/><path d="m288.023 352.846c-4.418 0-8-3.582-8-8v-6.184c0-4.418 3.582-8 8-8s8 3.582 8 8v6.184c0 4.418-3.582 8-8 8z"/><path d="m331.805 352.846c-4.418 0-8-3.582-8-8v-6.184c0-4.418 3.582-8 8-8s8 3.582 8 8v6.184c0 4.418-3.582 8-8 8z"/><path d="m375.586 352.846c-4.418 0-8-3.582-8-8v-6.184c0-4.418 3.582-8 8-8s8 3.582 8 8v6.184c0 4.418-3.581 8-8 8z"/><path d="m419.368 352.846c-4.418 0-8-3.582-8-8v-6.184c0-4.418 3.582-8 8-8s8 3.582 8 8v6.184c0 4.418-3.581 8-8 8z"/><path d="m222.35 401.318c-4.418 0-8-3.582-8-8v-6.184c0-4.418 3.582-8 8-8s8 3.582 8 8v6.184c0 4.418-3.581 8-8 8z"/><path d="m266.132 401.318c-4.418 0-8-3.582-8-8v-6.184c0-4.418 3.582-8 8-8s8 3.582 8 8v6.184c0 4.418-3.582 8-8 8z"/><path d="m309.914 401.318c-4.418 0-8-3.582-8-8v-6.184c0-4.418 3.582-8 8-8s8 3.582 8 8v6.184c0 4.418-3.582 8-8 8z"/><path d="m353.695 401.318c-4.418 0-8-3.582-8-8v-6.184c0-4.418 3.582-8 8-8s8 3.582 8 8v6.184c0 4.418-3.581 8-8 8z"/><path d="m397.477 401.318c-4.418 0-8-3.582-8-8v-6.184c0-4.418 3.582-8 8-8s8 3.582 8 8v6.184c0 4.418-3.581 8-8 8z"/></g><path d="m467.426 310.914c-14.759 50.267-49.782 90.868-94.772 110.74-2.588.483-5.213.704-7.873.564-6.525-.343-17.662-9.688-24.146-10.491-16.126-1.998-26.584 13.418-42.569 16.331-16.65 3.035-36.08.731-55.06-8.319-42.981-20.492-76.304-60.122-90.604-108.825h-6.175c10.743 86.839 79.933 153.837 163.687 153.837s152.944-66.998 163.687-153.837z" fill="#db4968"/><path d="m285.08 419.095c2.389.005 4.692-.978 6.669-2.32 1.688-1.146 3.234-2.626 3.994-4.52s.586-4.255-.815-5.738c-1.164-1.232-2.929-1.674-4.61-1.891-4.15-.535-6.93.134-10.406 2.735-2.555 1.912-5.462 5.637-3.304 8.945 1.547 2.371 5.906 2.784 8.472 2.789z" fill="#db4968"/></svg>