<svg id="Layer_1" enable-background="new 0 0 496.063 496.063" height="512" viewBox="0 0 496.063 496.063" width="512" xmlns="http://www.w3.org/2000/svg"><path d="m200.436 495.867c190.138-20.482 289.074-319.573 180.877-418.834-3.468-3.182-8.153-4.207-12.492-2.869-13.623 4.202-43.015 16.056-49.414 41.475-8.129 32.297 39.85 178.286-142.473 305.964-11.471 8.033-17.886 22.492-16.725 37.439 1.749 22.5 19.861 39.019 40.227 36.825z" fill="#ffb750"/><path d="m383.9 86.172c-2.68-3.998-7.008-6.221-11.512-6.058-6.658.242-17.08 1.216-27.467 4.581-11.176 6.765-21.937 16.735-25.513 30.944-8.129 32.297 39.85 178.286-142.473 305.964-8.452 5.919-14.159 15.326-16.113 25.846 169.262-12.015 300.221-246.175 223.078-361.277z" fill="#ea8e50"/><path d="m354.5 52.694s-19.552-20.559-29.148-44.377c-2.796-6.941-10.145-10.108-16.538-7.293l-5.191 2.285c-6.85 3.015-10.041 11.738-6.986 19.146 8.018 19.443 21.372 55.31 20.449 76.539z" fill="#a8ffa9"/><path d="m312.675.039c-1.296.106-2.597.428-3.861.985l-5.191 2.285c-6.85 3.015-10.041 11.738-6.986 19.146 3.725 9.034 8.603 21.613 12.665 34.623 8.489-17.562 9.474-38.822 3.373-57.039z" fill="#c9ffd2"/><path d="m101.581 418.089c189.103 29.902 349.922-234.679 266.317-359.422-2.68-3.998-7.008-6.221-11.512-6.058-14.141.513-45.253 4.329-56.969 27.342-14.885 29.239.121 183.597-204.591 259.855-12.88 4.798-22.24 17.161-24.346 31.982-3.171 22.31 10.846 43.098 31.101 46.301z" fill="#ffe070"/><path d="m98.814 359.387c213.595-67.763 204.735-227.151 221.273-256.426 12.612-22.326 43.173-25.188 58.297-25.157-2.934-6.676-6.421-13.071-10.485-19.136-2.68-3.998-7.008-6.221-11.512-6.058-14.141.513-45.253 4.329-56.969 27.342-14.885 29.239.121 183.597-204.591 259.855-19.541 7.279-29.583 31.078-22.557 52.145 2.504-15.352 12.633-28.152 26.544-32.565z" fill="#fff2b9"/><path d="m367.898 58.667c-1.578-2.355-3.729-4.094-6.15-5.092 33.154 79.149-9.741 196.363-88.338 270.572l-.018.02c-5.458 5.152-11.087 10.097-16.875 14.807-16.418 10.312-37.436 15.772-54.627 19.564-4.154.916-8.359 1.777-12.252 3.62-5.276 2.497-9.725 6.669-14.27 10.54-5.062 4.314-26.165 28.66-91.311 19.09-4.789-.704-9.217-2.493-13.16-4.999 3.213 15.964 15.102 28.835 30.685 31.299 189.102 29.903 349.921-234.678 266.316-359.421z" fill="#ffce66"/><path d="m325.24 122.262c.792.989 2.108 1.673 3.187 1.102.497-.263.864-.75 1.199-1.234 2.098-3.021 3.656-6.497 4.56-10.17.331-1.343.576-2.749.372-4.124-.816-5.515-6.551-3.844-8.455-.396-2.072 3.754-3.756 11.212-.863 14.822z" fill="#fff2b9"/></svg>