<svg id="Layer_1" enable-background="new 0 0 496 496" height="512" viewBox="0 0 496 496" width="512" xmlns="http://www.w3.org/2000/svg"><path d="m366.71 124c-7.186 0-14.232 1.967-20.36 5.717-26.722 16.354-66.597 35.677-98.35 35.677s-71.628-19.322-98.35-35.677c-6.128-3.75-13.174-5.717-20.36-5.717h-37.004c27.383 46.675 86.806 83.025 155.714 83.025s128.331-36.35 155.714-83.025z" fill="#ffb750"/><path d="m248 185.447c-57.84 0-108.987-25.616-140.123-61.447h-15.591c27.383 46.674 86.806 83.025 155.714 83.025s128.331-36.351 155.714-83.025h-15.591c-31.136 35.83-82.283 61.447-140.123 61.447z" fill="#ea8e50"/><path d="m403.714 124c-27.383 46.675-86.806 83.025-155.714 83.025s-128.331-36.35-155.714-83.025h-82.696c-5.451 0-9.798 4.539-9.582 9.982 5.242 132.339 114.266 238.018 247.992 238.018s242.75-105.679 247.992-238.018c.216-5.443-4.131-9.982-9.582-9.982z" fill="#a8ffa9"/><path d="m403.714 124c-27.383 46.675-86.806 83.025-155.714 83.025s-128.331-36.35-155.714-83.025h-47.042c0 111.894 90.777 202.601 202.756 202.601s202.756-90.707 202.756-202.601z" fill="#ffe070"/><g fill="#ffce66"><path d="m448.627 124c.52 0-8.018 34.132-9.095 37.226-4.515 12.966-11.125 25.041-17.414 37.246-10.872 21.098-36.331 44.861-40.622 48.616-2.676 1.34-5.421 2.303-8.23 2.768-8.759 1.448-17.907.802-26.335 3.591-15.379 5.089-24.974 20.273-38.736 28.814-7.947 4.932-32.741 14.541-60.194 14.961-101.981 1.562-186.384-75.253-200.628-173.222h-2.13c0 111.894 90.777 202.601 202.756 202.601s202.757-90.707 202.757-202.601z"/><path d="m306.446 268.647c.832-1.77 1.277-3.724.882-5.603-.835-3.974-5.587-6.849-10.251-6.686-4.663.163-8.892 2.988-10.886 6.64-8.509 15.586 13.992 18.975 20.255 5.649z"/></g></svg>