<svg id="Layer_1" enable-background="new 0 0 496 496" height="512" viewBox="0 0 496 496" width="512" xmlns="http://www.w3.org/2000/svg"><path d="m360.8 143.38c-4.422 0-8.011-3.59-8-8.02.007-2.871.687-70.452 45.368-82.172 4.274-1.121 8.647 1.436 9.768 5.708 1.121 4.274-1.435 8.647-5.709 9.768-13.346 3.5-23.019 15.459-28.75 35.543-4.587 16.075-4.677 31.042-4.677 31.191-.011 4.413-3.591 7.982-8 7.982z" fill="#db4968"/><path d="m328.178 425.269c21.689-2.95 43.554-2.95 65.243 0 17.558 2.388 37.612 2.389 47.593-7.162 74.363-71.154 61.065-212.707 31.236-255.145-32.686-46.502-70.833-40.671-92.956-31.361-11.971 5.038-25.019 5.038-36.99 0-22.123-9.31-60.27-15.142-92.956 31.361-29.829 42.438-43.126 183.992 31.236 255.145 9.982 9.55 30.036 9.55 47.594 7.162z" fill="#ff5872"/><path d="m472.251 162.962c-32.686-46.502-70.833-40.671-92.956-31.361-11.971 5.038-25.019 5.038-36.99 0-22.123-9.31-60.27-15.142-92.956 31.361-.974 1.387-1.931 2.885-2.867 4.477 27.141-21.817 54.993-16.605 72.645-9.176 11.971 5.038 25.019 5.038 36.99 0 22.123-9.31 68.626-10.646 92.956 31.361 17.359 29.971 14.686 68.247 11.083 76.447-4.103 9.337-10.184 18.772-8.618 28.85.818 5.266 3.67 9.95 6 14.743 6.437 13.245 9.471 26.088 7.627 42.944-.657 6.01-13.069 47.345-26.694 67.551.9-.634 1.763-1.304 2.545-2.052 74.361-71.154 61.064-212.707 31.235-255.145z" fill="#ff7f90"/><path d="m348.451 414.078c-6.536-3.498-13.977-4.832-21.001-7.202s-14.106-6.212-17.498-12.804c-2.421-4.704-2.592-9.618-1.965-14.54.564-2.583 12.422-62.469 4.97-102.665-5.296-28.569-9.468-61.729-26.986-85.748-10.898-14.943-22.294-25.287-33.653-32.217-.497.654-2.477 3.36-2.97 4.06-29.829 42.438-43.126 183.991 31.236 255.145 9.981 9.551 30.035 9.55 47.593 7.162 9.626-1.309 19.287-2.034 28.952-2.181-1.378-3.832-4.947-7.013-8.678-9.01z" fill="#db4968"/><path d="m326.351 394.597c3.725 1.653 8.506-.257 10.427-3.851 3.321-6.214-3.731-18.432-11.4-15.554-7.23 2.713-5.177 16.676.973 19.405z" fill="#db4968"/><path d="m144.201 198.271c-4.038 0-7.477-3.029-7.942-7.089-.078-.678-8.454-68.718-50.978-92.037-3.874-2.125-5.292-6.987-3.168-10.861 2.125-3.874 6.989-5.292 10.861-3.168 25.445 13.954 41.581 41.183 50.856 68.949 9.146-22.434 25.398-37.607 47.146-43.966 4.239-1.238 8.683 1.193 9.924 5.434 1.24 4.241-1.192 8.684-5.434 9.924-42.766 12.504-43.261 64.293-43.261 64.815.002 4.412-3.573 7.999-8.004 7.999z" fill="#ffb750"/><path d="m108.901 478.642c23.026-3.018 46.238-3.018 69.264 0 18.641 2.444 39.93 2.444 50.527-7.328 78.945-72.803 64.829-217.64 33.161-261.062-34.701-47.581-75.199-41.614-98.685-32.088-12.708 5.155-26.561 5.155-39.27 0-23.486-9.526-63.984-15.493-98.685 32.088-31.668 43.422-45.784 188.258 33.161 261.062 10.596 9.772 31.886 9.772 50.527 7.328z" fill="#ffce66"/><path d="m115.175 450.948c18.854-2.472 37.861-2.472 56.714 0 15.263 2.001 32.695 2.001 41.372-6 64.642-59.613 53.083-178.207 27.153-213.761-28.413-38.96-61.574-34.074-80.804-26.274-10.406 4.221-21.749 4.221-32.155 0-19.231-7.8-52.391-12.686-80.804 26.274-25.93 35.554-37.489 154.149 27.153 213.761 8.676 8.002 26.108 8.001 41.371 6z" fill="#ffe070"/><path d="m171.893 421.689c-14.096 16.853-42.625 16.853-56.721 0-44.112-52.741-44.112-124.738 0-177.478 14.096-16.853 42.625-16.853 56.721 0 44.112 52.741 44.112 124.738 0 177.478z" fill="#ffce66"/><path d="m161.677 397.209c-9.018 12.204-27.27 12.204-36.288 0-28.222-38.191-28.222-90.326 0-128.517 9.018-12.204 27.27-12.204 36.289 0 28.22 38.191 28.22 90.326-.001 128.517z" fill="#cd8e50"/><ellipse cx="136.304" cy="305.394" fill="#cd9e6c" rx="15.386" ry="11.337" transform="matrix(.113 -.994 .994 .113 -182.559 406.244)"/><path d="m69.809 71.875c-3.985.398-6.684 3.819-6.141 7.786 1.508 11.011 6.524 32.792 23.063 45.826 17.611 13.88 33.765 8.323 40.229 5.058 3.572-1.804 6.193-5.124 7.116-9.023 1.667-7.045 3.303-24.045-14.309-37.925-16.539-13.034-38.895-12.826-49.958-11.722z" fill="#a8ffa9"/><path d="m63.668 79.661c1.508 11.011 6.524 32.792 23.063 45.826 5.638 4.443 11.126 6.895 16.195 8.067 6.543-7.487 3.209-24.45-8.175-39.504-9.066-11.99-20.689-19.399-29.588-19.772-1.187 1.418-1.776 3.327-1.495 5.383z" fill="#c9ffd2"/><path d="m443.867 252.871c-14.526 3.038-18.488-21.131-3.935-24.005 14.751-2.913 15.242 21.64 3.935 24.005z" fill="#ff7f90"/><path d="m441.561 16.581c4.273.458 7.141 4.152 6.527 8.405-1.705 11.806-7.257 35.142-25.104 49.001-19.004 14.758-36.292 8.667-43.201 5.112-3.819-1.965-6.605-5.549-7.563-9.739-1.733-7.574-3.354-25.832 15.65-40.59 17.847-13.859 41.831-13.461 53.691-12.189z" fill="#69da61"/><path d="m448.088 24.985c-1.705 11.806-7.257 35.142-25.104 49.001-6.084 4.724-11.991 7.312-17.439 8.531-6.961-8.087-3.25-26.265 9.081-42.333 9.821-12.797 22.35-20.658 31.9-20.988 1.263 1.532 1.88 3.585 1.562 5.789z" fill="#5ab161"/></svg>