<svg id="Layer_1" enable-background="new 0 0 496 496" height="512" viewBox="0 0 496 496" width="512" xmlns="http://www.w3.org/2000/svg"><path d="m353.047 235.154c0 106.984-79.032 193.711-176.524 193.711s-176.523-86.727-176.523-193.711 79.032-217.154 176.523-217.154 176.524 110.171 176.524 217.154z" fill="#cd8e50"/><path d="m102.596 236.772v53.896c0 52.062 18.907 99.701 50.215 136.451 127.965 18.856 238.93-116.433 187.242-268.454-8.814-.421-17.798-.638-26.918-.638-116.278 0-210.539 35.256-210.539 78.745z" fill="#ba8050"/><path d="m203.574 36.483c23.586 0 46.086 6.464 66.654 17.755-27.157-22.486-59.276-36.238-93.705-36.238-97.491 0-176.523 110.171-176.523 217.154 0 75.694 39.569 141.238 97.242 173.109-20.601-17.087-37.672-39.019-49.82-64.249-8.503-17.66-9.333-38.054-2.683-56.492 2.146-5.951 4.36-12.082 4.149-18.412-.331-9.956-6.511-18.617-10.104-27.908-3.66-9.463-10.451-29.592-2.341-52.595 23.69-82.386 89.567-152.124 167.131-152.124z" fill="#dda450"/><path d="m313.135 478c-100.993 0-182.865-81.871-182.865-182.865v-46.812h365.73v46.812c0 100.994-81.872 182.865-182.865 182.865z" fill="#cd8e50"/><path d="m468.326 248.323v36.064c0 100.993-81.871 182.864-182.865 182.864-18.128 0-35.635-2.651-52.168-7.563 24.125 11.728 51.214 18.312 79.842 18.312 100.993 0 182.865-81.871 182.865-182.865v-46.812z" fill="#ba8050"/><path d="m496 248.323c0-37.773-81.871-68.394-182.865-68.394s-182.865 30.621-182.865 68.394c0 31.152 55.689 57.435 131.861 65.693 10.915 1.183 20.8 7.002 27.196 15.926l11.552 16.118c6.087 8.493 18.658 8.664 24.973.34l13.645-17.984c5.951-7.843 17.189-9.257 24.896-3.132l21.078 16.75c7.678 6.102 18.867 4.725 24.838-3.055l26.637-34.712c3.771-4.914 8.77-8.731 14.457-11.187 27.783-11.994 44.597-27.64 44.597-44.757z" fill="#e6e9df"/><ellipse cx="313.135" cy="246.524" fill="#fff" rx="124.706" ry="35.567"/><g fill="#9f7050"><path d="m134.06 83.78c-3.844 0-7.117-2.743-7.84-6.43-1.23-6.39 5.105-11.367 10.9-8.95 3.714 1.545 5.522 5.438 4.78 8.95-.732 3.733-4.042 6.43-7.84 6.43z"/><path d="m176.52 72.72c-4.979 0-8.824-4.546-7.84-9.56.626-3.19 3.144-5.665 6.28-6.28 4.82-.983 9.56 2.699 9.56 7.84 0 4.416-3.576 8-8 8z"/><path d="m163.65 108.39c-4.557 0-8-3.733-8-8 0-1.972.777-4.077 2.35-5.65 1.713-1.762 4.5-2.744 7.22-2.19 4.183.821 7.141 4.918 6.28 9.41-.878 4.056-4.306 6.43-7.85 6.43z"/></g><path d="m44.557 204.582c-.277 4.048-.376 8.62 2.434 11.548 2.341 2.439 6.258 2.951 9.409 1.725 6.237-2.426 10.273-11.188 8.033-18.039-1.678-5.133-7.432-8.927-12.839-8.433-6.559.598-6.656 7.629-7.037 13.199z" fill="#dda450"/></svg>