<svg id="Layer_1" enable-background="new 0 0 496 496" height="512" viewBox="0 0 496 496" width="512" xmlns="http://www.w3.org/2000/svg"><path d="m196.75 98.529c-5.51 0-9.429-5.502-7.508-10.744.763-2.081 19.312-51.061 73.39-57.822 4.381-.545 8.383 2.562 8.931 6.946s-2.562 8.382-6.945 8.931c-44.226 5.529-59.722 45.764-60.36 47.474-1.202 3.219-4.259 5.215-7.508 5.215z" fill="#b97d50"/><path d="m210.129 89.431c-92.233 2.218-139.758 111.996-78.84 181.052 23.297 26.41 44.353 63.683 44.802 111.764.19 20.344-2.16 39.804-6.415 57.715-6.631 27.907 14.051 56.038 44.012 56.038 79.952 0 144.765-182.651 144.765-262.334.001-80.992-66.886-146.194-148.324-144.235z" fill="#ffe070"/><path d="m213.688 89.388c-3.293 0-4.96.084-6.817.181 39.872 8.847 73.725 33.22 94.595 66.286 6.574 10.416 8.784 22.968 6.356 35.033-2.965 14.739-5.007 36.485 4.329 48.35 6.83 8.681 10.11 19.61 8.359 30.503-12.63 78.546-59.95 195.484-119.607 224.468 3.42.997 7.022 1.608 10.774 1.752 80.738 3.089 146.775-181.644 146.775-262.295.002-79.682-64.812-144.278-144.764-144.278z" fill="#ffce66"/><path d="m210.129 89.431c-92.233 2.218-139.758 111.996-78.84 181.052 23.297 26.41 44.353 63.683 44.802 111.764.191 20.436-2.181 39.979-6.473 57.956-7.013 29.377 16.676 59.635 50.684 55.374-17.159-9.51-27.104-29.92-22.216-50.495 4.255-17.911 6.605-37.371 6.415-57.715-.449-48.08-21.505-85.354-44.802-111.764-5.316-6.026-9.804-12.363-13.509-18.911-10.404-18.392-8.839-41.337 3.921-58.192 1.346-1.778 2.413-3.403 3.001-4.707 3.396-7.533-.4-16.103-2.327-24.135-3.511-14.634.836-29.374 10.444-40.002 18.578-20.551 45.237-34.334 77.31-35.105 5.02-.121 10.009.012 15.141.417-14.385-4.112-29.062-5.888-43.551-5.537z" fill="#fff2b9"/><path d="m254.095 40.99c-14.447 19.928-39.791 74.264 57.178 129.73 5.64 3.226 12.86.97 15.567-4.922 13.518-29.421 41.476-111.575-56.509-131.148-6.18-1.234-12.545 1.249-16.236 6.34z" fill="#69da61"/><path d="m341.118 107.497c-.098-30.384-15.098-61.723-70.787-72.847-6.18-1.234-12.545 1.249-16.236 6.34-5.143 7.095-11.663 18.552-13.558 32.867 16.77 21.73 47.146 42.586 100.581 33.64z" fill="#5ab161"/><path d="m254.957 46.805c8.058 20.764 37.347 66.333 131.25 16.28 5.461-2.911 7.459-9.652 4.262-14.561-15.965-24.514-65.649-85.268-132.011-17.476-4.185 4.276-5.559 10.452-3.501 15.757z" fill="#a8ffa9"/><path d="m288.339 8.028c1.555 20.705 22.93 37.112 49.081 37.112 15.758 0 29.774-5.963 38.774-15.227-18.598-20.598-49.331-41.92-87.855-21.885z" fill="#c9ffd2"/><g fill="#fff2b9"><path d="m151.887 240.309c2.324 3.837 6.899 6.199 11.384 5.877s8.674-3.312 10.423-7.44c4.303-10.157-.96-24.509-13.662-22.945-11.197 1.379-13.114 16.305-8.145 24.508z"/><path d="m174.001 150.701c-1.748 3.804-5.608 5.773-8.622 4.398-3.013-1.375-4.039-5.575-2.291-9.379s5.608-5.773 8.622-4.398 4.039 5.574 2.291 9.379z"/></g></svg>