<svg id="Layer_1" enable-background="new 0 0 496.565 496.565" height="512" viewBox="0 0 496.565 496.565" width="512" xmlns="http://www.w3.org/2000/svg"><path d="m230.99 48.274-50.312-37.232s-16.098 32.084 1.369 68.265c14.045 29.092 37.486 22.218 51.451 8.311 16.897-16.828-2.508-39.344-2.508-39.344z" fill="#a8ffa9"/><path d="m265.575 48.274 50.312-37.232s16.098 32.084-1.369 68.265c-14.045 29.092-37.486 22.218-51.451 8.311-16.897-16.828 2.508-39.344 2.508-39.344z" fill="#a8ffa9"/><path d="m248.282 0s-55.743 38.581-37.428 108.311l37.428 49.759 37.428-49.759c18.315-69.73-37.428-108.311-37.428-108.311z" fill="#69da61"/><path d="m262.22 40.915c10.107 11.115 22.604 29.323 26.182 53.975 8.485-61.239-40.12-94.89-40.12-94.89s-48.605 33.651-40.119 94.891c3.578-24.652 16.075-42.86 26.182-53.976 7.466-8.211 20.409-8.211 27.875 0z" fill="#87eda8"/><path d="m248.282 151.576s-6.35-68.205-94.875-71.1c0 0 16.873 99.607 37.146 117.559s57.729-46.459 57.729-46.459z" fill="#a8ffa9"/><path d="m248.282 151.576s6.35-68.205 94.875-71.1c0 0-16.873 99.607-37.146 117.559s-57.729-46.459-57.729-46.459z" fill="#a8ffa9"/><path d="m243.033 159.96c3.275-4.998 5.249-8.384 5.249-8.384s-6.35-68.205-94.875-71.1c0 0 1.934 11.413 5.277 27.202 54.383 3.504 75.937 32.489 84.349 52.282z" fill="#d3ffd2"/><path d="m337.881 107.678c3.343-15.789 5.277-27.202 5.277-27.202-88.526 2.896-94.875 71.1-94.875 71.1s1.974 3.387 5.249 8.384c8.412-19.793 29.966-48.778 84.349-52.282z" fill="#d3ffd2"/><path d="m385.282 334.445c0 107.494-61.337 161.555-137 161.555s-137-54.061-137-161.555 61.337-183.591 137-183.591 137 76.097 137 183.591z" fill="#ffb750"/><path d="m385.282 334.445c0 107.494-61.337 161.555-137 161.555s-137-54.061-137-161.555 61.337-183.591 137-183.591 137 76.097 137 183.591z" fill="#ffe070"/><path d="m248.282 150.854c-75.663 0-137 76.097-137 183.591 0 53.419 15.152 93.637 39.679 120.587-9.895-17.844-24.008-72.783-11.699-113.39 2.883-9.51 6.177-19.02 7.007-28.923.355-4.238.089-11.33-.324-18.445-1.021-17.605 3.275-35.115 12.243-50.299 25.073-42.454 64.122-68.041 107.992-68.041 34.722 0 66.42 16.034 90.565 43.765-25.054-42.932-64.316-68.845-108.463-68.845z" fill="#fff2b9"/><path d="m319.217 176.5c27.998 32.693 45.62 81.275 45.62 138.884 0 24.987 4.46 51.501-11.467 67.403-5.326 5.317-11.124 12.438-17.362 17.337-6.527 5.126-13.573 10.054-17.583 17.553-3.167 5.922-4.066 12.799-6.78 18.942-4.396 9.95-16.804 39.722-83.808 40.321-30.199.27-58.112-8.622-80.758-25.807 25.053 30.256 61.116 45.434 101.203 45.434 75.663 0 137-54.061 137-161.555 0-70.607-26.462-127.665-66.065-158.512z" fill="#ffce66"/><path d="m269.292 442.738c4.736-4.311 10.565-7.307 16.88-8.368 5.864-.985 11.507-.232 8.892 7.467-4.922 14.492-34.999 22.694-35.545 15.312-.316-4.268 5.126-10.181 9.773-14.411z" fill="#ffce66"/><path d="m346.192 380.762c-1.778 2.385-4.694 4.358-7.583 3.648-.811-.199-1.558-.597-2.286-1.007-.877-.494-1.757-1.023-2.424-1.777-5.376-6.065 1.434-16.036 8.554-16.039 8.859-.003 7.627 9.96 3.739 15.175z" fill="#ffce66"/><g fill="#cd8e50"><path d="m207.125 246.262-16.624-7.625c-4.016-1.842-5.778-6.591-3.936-10.606 1.842-4.017 6.59-5.779 10.607-3.937l13.289 6.095 13.289-6.095c4.017-1.845 8.766-.08 10.607 3.937 1.842 4.016.08 8.765-3.936 10.606l-16.624 7.625c-2.079.952-4.511.99-6.672 0z"/><path d="m282.77 246.262-16.624-7.625c-4.017-1.842-5.778-6.591-3.937-10.606 1.843-4.017 6.593-5.779 10.606-3.937l13.289 6.095 13.289-6.095c4.014-1.842 8.765-.079 10.606 3.937s.08 8.765-3.937 10.606l-16.624 7.625c-2.075.952-4.508.99-6.668 0z"/><path d="m169.306 302.66-16.624-7.624c-4.016-1.842-5.779-6.591-3.937-10.606 1.842-4.017 6.592-5.779 10.607-3.937l13.289 6.095 13.289-6.095c4.016-1.844 8.765-.08 10.607 3.937 1.842 4.016.079 8.765-3.937 10.606l-16.624 7.624c-2.077.953-4.51.991-6.67 0z"/><path d="m244.951 302.66-16.624-7.624c-4.016-1.842-5.779-6.591-3.937-10.606 1.842-4.017 6.592-5.779 10.607-3.937l13.289 6.095 13.289-6.095c4.014-1.843 8.766-.08 10.606 3.937 1.842 4.016.079 8.765-3.937 10.606l-16.623 7.624c-2.077.953-4.51.991-6.67 0z"/><path d="m320.595 302.66-16.624-7.624c-4.016-1.842-5.778-6.591-3.937-10.606 1.842-4.017 6.591-5.78 10.606-3.937l13.289 6.095 13.289-6.095c4.015-1.843 8.766-.08 10.606 3.937 1.842 4.016.079 8.765-3.937 10.606l-16.624 7.624c-2.079.955-4.513.989-6.668 0z"/><path d="m169.309 363.06-16.624-7.625c-4.016-1.842-5.778-6.591-3.936-10.606 1.842-4.018 6.59-5.78 10.607-3.937l13.289 6.095 13.289-6.095c4.016-1.843 8.766-.08 10.607 3.937 1.842 4.016.08 8.765-3.936 10.606l-16.624 7.625c-2.079.952-4.511.99-6.672 0z"/><path d="m244.953 363.06-16.624-7.625c-4.016-1.842-5.778-6.591-3.936-10.606 1.842-4.018 6.591-5.78 10.607-3.937l13.289 6.095 13.29-6.095c4.014-1.842 8.764-.08 10.606 3.937 1.842 4.016.08 8.765-3.937 10.606l-16.624 7.625c-2.09.958-4.523.984-6.671 0z"/><path d="m320.599 363.06-16.624-7.625c-4.017-1.842-5.778-6.591-3.937-10.606 1.843-4.017 6.594-5.779 10.606-3.937l13.289 6.095 13.289-6.095c4.014-1.842 8.765-.08 10.606 3.937 1.842 4.016.08 8.765-3.937 10.606l-16.624 7.625c-2.075.952-4.508.99-6.668 0z"/><path d="m207.125 423.458-16.624-7.624c-4.016-1.842-5.779-6.591-3.937-10.606 1.842-4.017 6.593-5.78 10.607-3.937l13.289 6.095 13.289-6.095c4.016-1.844 8.765-.079 10.607 3.937s.079 8.765-3.937 10.606l-16.624 7.624c-2.077.953-4.51.99-6.67 0z"/><path d="m282.77 423.458-16.624-7.624c-4.016-1.842-5.778-6.591-3.937-10.606 1.841-4.017 6.59-5.779 10.606-3.937l13.289 6.095 13.289-6.095c4.014-1.842 8.766-.08 10.606 3.937 1.842 4.016.079 8.765-3.937 10.606l-16.624 7.624c-2.08.955-4.513.989-6.668 0z"/></g><path d="m172.165 249.132c-2.791-.35-5.676.086-8.24 1.244l-.115.508c-3.212 2.569-5.453 6.324-6.189 10.371-.116.635-.195 1.29-.076 1.925.233 1.239 1.203 2.234 2.308 2.841 3.121 1.716 7.176.692 9.959-1.531s4.575-5.425 6.297-8.542c.515-.932 1.046-1.927.994-2.991-.11-2.266-2.689-3.543-4.938-3.825z" fill="#fff2b9"/></svg>