<svg id="Layer_1" enable-background="new 0 0 496 496" height="512" viewBox="0 0 496 496" width="512" xmlns="http://www.w3.org/2000/svg"><path d="m228.104 4.659c-38.903 25.524-50.428 78.23-50.428 78.23l23.117 12.609c6.439-32.533 38.015-51.295 59.621-60.515 9.71-4.144 12.556-16.538 5.561-24.446l-.734-.83c-9.418-10.649-25.251-12.846-37.137-5.048z" fill="#69da61"/><path d="m295.298 258.424c-20.775-33.061-30.705-71.474-29.395-110.499 1.302-38.767-30.227-70.471-69.113-70.471-38.95 0-70.412 31.769-69.112 70.471 1.31 39.025-8.62 77.438-29.395 110.499-10.957 17.437-17.283 38.002-17.283 60.024 0 63.047 51.841 160.84 115.791 160.84s115.791-97.793 115.791-160.84c0-22.022-6.326-42.587-17.284-60.024z" fill="#a8ffa9"/><path d="m100.791 340.544c0-22.022 6.326-42.587 17.284-60.024 20.775-33.061 30.705-71.474 29.395-110.499-1.3-38.535 29.999-70.471 69.112-70.471 15.23 0 29.301 4.865 40.726 13.09-11.791-20.978-34.467-35.186-60.517-35.186-39.17 0-70.411 31.991-69.112 70.471 1.31 39.025-8.619 77.438-29.395 110.499-10.958 17.438-17.284 38.002-17.284 60.024 0 43.47 24.646 103.452 60.911 136.515-25.145-33.739-41.12-79.427-41.12-114.419z" fill="#d3ffd2"/><path d="m239.471 180.985c1.441 42.91-9.478 85.149-32.322 121.502-12.049 19.174-19.005 41.786-19.005 66.001 0 32.084 12.215 72.345 32.303 106.349 52.603-19.793 92.134-101.335 92.134-156.389 0-22.022-6.326-42.587-17.284-60.025-20.775-33.061-30.705-71.474-29.395-110.499.265-7.94-.851-15.774-3.321-23.3-15.118 14.438-23.838 34.609-23.11 56.361z" fill="#85eda2"/><path d="m400.24 307.386c-17.742-28.233-26.222-61.038-25.103-94.364 1.112-33.107-25.813-60.181-59.021-60.181-33.263 0-60.13 27.13-59.021 60.181 1.119 33.326-7.361 66.13-25.103 94.364-9.358 14.892-14.76 32.453-14.76 51.26 0 53.841 44.272 137.354 98.883 137.354 54.613 0 98.885-83.513 98.885-137.354 0-18.807-5.402-36.369-14.76-51.26z" fill="#ffe070"/><path d="m400.24 307.386c-17.742-28.234-26.222-61.037-25.103-94.364 1.232-36.799-31.978-65.498-68.917-59.351 28.575 4.756 50.129 29.716 49.125 59.351-1.119 33.326 7.361 66.13 25.103 94.364 9.358 14.891 14.76 32.453 14.76 51.259 0 50.548-39.023 127.246-88.988 136.439 59.048 10.862 108.78-79.213 108.78-136.438 0-18.807-5.402-36.369-14.76-51.26z" fill="#ffce66"/><path d="m371.486 354.568c0 68.173-24.79 95.513-55.369 95.513s-55.369-27.341-55.369-95.513 24.79-123.438 55.369-123.438 55.369 55.265 55.369 123.438z" fill="#ffce66"/><path d="m356.308 346.148c0 51.21-17.994 71.748-40.191 71.748s-40.191-20.538-40.191-71.748 17.994-92.725 40.191-92.725 40.191 41.515 40.191 92.725z" fill="#ffb750"/><path d="m316.117 253.423c-3.392 0-6.684.98-9.831 2.806 17.444 10.12 30.361 46.534 30.361 89.919 0 43.384-12.917 64.748-30.361 70.267 3.147.995 6.439 1.481 9.831 1.481 22.197 0 40.191-20.538 40.191-71.748s-17.994-92.725-40.191-92.725z" fill="#ea8e50"/><g fill="#ba8050"><path d="m303.2 326.229c-4.37 0-8-3.567-8-8 0-3.167 1.882-6.113 4.939-7.39 5.146-2.144 11.061 1.584 11.061 7.39 0 4.396-3.582 8-8 8z"/><path d="m330.24 378.149c-3.734 0-7.09-2.632-7.841-6.439-.415-1.935-.029-4.194 1.19-6 2.385-3.622 7.41-4.694 11.09-2.21 1.814 1.194 3.006 3.077 3.4 5.08 1.003 4.758-2.666 9.569-7.839 9.569z"/><path d="m301.53 357.189c-6.361 0-10.187-7.09-6.65-12.449 2.845-4.224 8.761-4.759 12.31-1.21 1.57 1.608 2.341 3.596 2.341 5.659-.001 4.337-3.545 8-8.001 8z"/><path d="m306.96 390.66c-4.362 0-8-3.537-8-8 0-3.706 2.517-7.004 6.43-7.851 2.793-.543 5.53.451 7.22 2.19 2.59 2.59 3.183 6.793 1 10.1-1.447 2.197-3.987 3.561-6.65 3.561z"/><path d="m322.149 343.479c-4.414-4.385-2.336-12.111 4.091-13.5 2.764-.558 5.524.448 7.22 2.19 4.036 4.036 2.661 10.857-2.59 13.05-3.097 1.265-6.483.498-8.721-1.74z"/><path d="m328.88 316.479c-6.359 0-10.18-7.091-6.65-12.439 2.616-3.972 8.467-4.952 12.311-1.221 3.114 3.114 3.115 8.205 0 11.32-1.462 1.461-3.518 2.34-5.661 2.34z"/><path d="m312.229 294.899c-4.505 0-8-3.683-8-8 0-2.109.902-4.243 2.351-5.649 3.044-3.061 8.145-3.164 11.31 0 3.059 2.97 3.174 8.136 0 11.31-1.491 1.49-3.55 2.339-5.661 2.339z"/></g></svg>