<svg id="Layer_1" enable-background="new 0 0 496 496" height="512" viewBox="0 0 496 496" width="512" xmlns="http://www.w3.org/2000/svg"><path d="m6 281.629c0-89.884 72.865-142.122 162.749-142.122s162.749 52.238 162.749 142.122-72.865 162.749-162.749 162.749-162.749-72.865-162.749-162.749z" fill="#c991ff"/><path d="m299.108 191.636c-70.025 21.442-120.951 86.59-120.951 163.639 0 20.576 15.753 35.529 17.799 45.942 2.222 11.308-2.587 24.895 5.16 33.427-.519.97-1.373 1.617-2.37 2.049.809 1.492 1.634 2.974 2.486 4.439 74.32-15.054 130.267-80.743 130.267-159.504-.001-36.548-12.05-66.873-32.391-89.992z" fill="#b173ff"/><path d="m204.613 152.109c17.084 0 33.55 1.892 49.021 5.566-24.715-11.908-53.779-18.168-84.885-18.168-89.884 0-162.749 52.238-162.749 142.122 0 77.63 54.355 142.555 127.08 158.818-6.374-1.425-13.787-7.458-19.148-11.062-6.325-4.252-12.351-8.947-18.021-14.039-5.668-5.09-10.428-11.058-15.87-16.386-13.048-12.776-8.542-39.536-9.641-41.614-1.9-3.595-6.748-4.395-9.548-7.343-10.589-11.15-17.933-29.512-18.988-55.772-3.607-89.811 72.865-142.122 162.749-142.122z" fill="#d3b3ff"/><ellipse cx="102.336" cy="138.81" fill="#69da61" rx="52.802" ry="35.109" transform="matrix(.991 -.132 .132 .991 -17.477 14.77)"/><ellipse cx="235.162" cy="138.81" fill="#69da61" rx="35.109" ry="52.802" transform="matrix(.132 -.991 .991 .132 66.44 353.525)"/><path d="m97.216 153.14c0 6.246 1.181 13.466 3.363 21.055 2.112-.11 4.248-.297 6.406-.585 28.905-3.861 50.256-22.571 47.689-41.79-1.655-12.391-12.855-21.96-28.346-26.167-17.655 10.741-29.112 28.008-29.112 47.487z" fill="#5ab161"/><path d="m211.171 105.653c-15.491 4.207-26.691 13.776-28.346 26.167-2.567 19.219 18.784 37.93 47.689 41.79 2.158.288 4.294.475 6.406.585 2.182-7.589 3.363-14.809 3.363-21.055 0-19.479-11.458-36.746-29.112-47.487z" fill="#5ab161"/><path d="m217.761 158.277c0 22.319-21.943 62.769-49.011 62.769s-49.011-40.45-49.011-62.769 21.943-40.413 49.011-40.413 49.011 18.093 49.011 40.413z" fill="#a8ffa9"/><path d="m202.174 2.989c-49.945 32.149-45.168 116.051-45.168 116.051h23.486c7.93-46.516 28.212-72.09 44.048-85.436 9.314-7.849 9.082-22.249-.581-29.664-6.338-4.864-15.067-5.275-21.785-.951z" fill="#cd8e50"/><circle cx="349.275" cy="355.275" fill="#db4968" r="140.725"/><circle cx="349.275" cy="355.275" fill="#ff5872" r="117.398"/><g fill="#e6e9df"><path d="m396.625 307.925-47.35 47.35h66.95c19.606 0 33.052-19.893 25.594-38.025-.125-.304-.251-.607-.379-.909-7.57-17.896-31.075-22.155-44.815-8.416z"/><path d="m301.925 402.625 47.35-47.35h-66.95c-19.606 0-33.052 19.893-25.594 38.025.125.304.251.607.379.909 7.571 17.896 31.076 22.155 44.815 8.416z"/><path d="m396.625 402.625-47.35-47.35v66.95c0 19.606 19.893 33.052 38.025 25.594.304-.125.607-.251.909-.379 17.896-7.57 22.156-31.075 8.416-44.815z"/></g><path d="m349.275 288.312v66.963l47.341-47.341c13.863-13.863 9.305-37.438-8.79-44.985-.303-.126-.607-.251-.911-.375-18.007-7.301-37.64 6.307-37.64 25.738z" fill="#fff"/><path d="m301.925 307.925 47.35 47.35v-66.95c0-19.606-19.893-33.052-38.025-25.594-.304.125-.607.251-.909.379-17.895 7.57-22.155 31.076-8.416 44.815z" fill="#e6e9df"/><path d="m282.313 355.275h66.963l-47.341-47.341c-13.863-13.863-37.438-9.305-44.985 8.79-.126.303-.251.607-.375.911-7.302 18.007 6.307 37.64 25.738 37.64z" fill="#fff"/><path d="m349.275 422.238v-66.963l-47.341 47.341c-13.863 13.863-9.305 37.438 8.79 44.985.303.126.607.251.911.375 18.008 7.301 37.64-6.307 37.64-25.738z" fill="#fff"/><path d="m416.238 355.275h-66.963l47.341 47.341c13.863 13.863 37.438 9.305 44.985-8.79.126-.303.251-.607.375-.911 7.302-18.007-6.307-37.64-25.738-37.64z" fill="#fff"/><path d="m188.32 408.66c-.844 1.98-2.255 3.833-4.252 4.635-2.003.804-4.349.423-6.223-.648-1.873-1.071-3.322-2.763-4.476-4.587-3.517-5.559-1.11-15.799 6.54-16.498 8.37-.765 10.963 11.113 8.411 17.098z" fill="#b173ff"/><ellipse cx="69.213" cy="318.87" fill="#d3b3ff" rx="8.654" ry="11.716" transform="matrix(.901 -.434 .434 .901 -131.642 61.721)"/><ellipse cx="156.883" cy="175.959" fill="#c9ffd2" rx="11.3" ry="15.677" transform="matrix(.866 -.5 .5 .866 -66.961 102.016)"/></svg>