<svg id="Layer_1" enable-background="new 0 0 504.002 504.002" height="512" viewBox="0 0 504.002 504.002" width="512" xmlns="http://www.w3.org/2000/svg"><g fill="#b97d50"><path d="m163.95 500.557c-21.057-30.387-7.678-63.863-7.098-65.273 1.68-4.087 6.355-6.036 10.441-4.357 4.078 1.677 6.029 6.336 4.367 10.416-.451 1.121-10.562 27.009 5.441 50.102 2.516 3.632 1.612 8.615-2.019 11.132-3.655 2.531-8.631 1.588-11.132-2.02z"/><path d="m122.422 500.337c-5.856 0-9.796-6.173-7.18-11.519 12.925-26.41 13.118-62.448 13.119-62.81.005-4.414 3.588-7.993 8.002-7.993 4.392 0 7.998 3.561 7.998 7.998 0 1.621-.167 40.048-14.748 69.838-1.388 2.837-4.233 4.486-7.191 4.486z"/><path d="m200.189 487.806c-23.195-25.211-23.558-60.289-23.562-61.771-.012-4.418 3.56-8.01 7.978-8.021 4.417-.012 8.01 3.559 8.022 7.979.002.285.431 30.432 19.336 50.979 2.992 3.252 2.781 8.313-.471 11.305-3.258 2.998-8.319 2.771-11.303-.471z"/><path d="m325.642 464.887c-3.154-3.094-3.204-8.159-.11-11.313 15.065-15.361 11.427-41.685 11.388-41.949-.637-4.372 2.39-8.433 6.762-9.07 4.376-.64 8.433 2.389 9.071 6.762.204 1.398 4.76 34.499-15.797 55.461-3.09 3.148-8.156 3.207-11.314.109z"/><path d="m427.831 433.714c-44.21-12.453-51.222-44.091-51.499-45.432-.894-4.327 1.89-8.56 6.216-9.453 4.307-.887 8.515 1.86 9.438 6.149.262 1.129 5.91 23.681 40.182 33.335 4.253 1.198 6.729 5.616 5.531 9.869-1.193 4.24-5.601 6.733-9.868 5.532z"/><path d="m391.45 460.639c-28.932-21.349-31.406-55.843-31.497-57.301-.276-4.409 3.075-8.208 7.485-8.483 4.397-.271 8.194 3.063 8.482 7.461.03.41 2.282 28.663 25.03 45.448 3.555 2.624 4.311 7.632 1.687 11.188-2.631 3.565-7.64 4.303-11.187 1.687z"/><path d="m314.995 186c-4.291 0-7.841-3.402-7.99-7.725-.766-22.213-17.863-25.337-18.591-25.459-41.709-6.521-63.111-29.58-73.705-47.772-6.172-10.6-9.453-20.756-11.175-27.981-19.432 9.491-31.504 26.354-35.94 50.252-3.959 21.327-.16 40.498-.122 40.689.879 4.325-1.91 8.551-6.234 9.437-4.322.881-8.546-1.894-9.438-6.216-.183-.887-4.43-22-.033-46.311 6.005-33.202 25.133-56.229 55.314-66.589 4.939-1.701 10.174 1.734 10.574 6.955.011.131 1.4 15.723 11.208 32.269 12.901 21.767 33.798 35.047 62.111 39.474 10.709 1.798 31.051 12.597 32.021 40.702.156 4.519-3.463 8.275-8 8.275z"/></g><path d="m196.393 180.077c-22.434-13.958-51.082-13.958-73.516 0-31.954 19.882-56.726 58.038-45.933 125.109 6.932 43.077 36.411 74.431 48.106 114.435 4.476 15.311 18.654 25.723 34.586 25.723s30.11-10.411 34.586-25.722c11.694-40.004 41.174-71.359 48.106-114.435 10.791-67.072-13.981-105.228-45.935-125.11z" fill="#ff5872"/><path d="m153.503 421.016c-4.78-15.01-12.445-28.733-20.4-42.372-2.36-4.046-8.334-4.027-10.676-8.09-2.592-4.495-1.544-13.077-3.941-17.673-3.178-6.094-9.508-8.232-11.968-14.678-2.602-6.821-1.278-17.976-2.583-25.419-11.121-63.435 14.404-99.522 47.329-118.326 16.314-9.317 35.815-12.049 54.006-8.215-2.879-2.226-5.846-4.279-8.879-6.166-22.434-13.958-51.082-13.958-73.516 0-31.954 19.882-56.726 58.038-45.933 125.109 6.932 43.077 36.411 74.431 48.106 114.435 6.042 20.669 29.099 31.301 48.926 22.768-9.695-3.95-17.359-11.604-20.471-21.373z" fill="#ff7f90"/><path d="m206.413 187.155c-8.217 20.373-11.418 44.526-6.413 72.636.888 4.988 7.929 8.904 9.351 14.142s-2.774 11.798-.781 17.288c3.023 8.329 6.722 16.949 11.159 25.863 3.747 7.528 8.037 14.518 12.715 21.118 4.422-10.411 7.993-21.277 9.883-33.017 9.631-59.854-9.069-96.668-35.914-118.03z" fill="#db4968"/><path d="m320.803 145.772c-25.569-6.628-52.915 1.922-70.175 21.942-24.584 28.515-36.873 72.331-6.608 133.132 19.438 39.05 56.911 60.181 79.98 94.877 8.829 13.279 25.463 18.986 40.67 14.231 15.208-4.755 25.643-18.925 25.358-34.876-.744-41.676 18.063-80.404 11.858-123.592-9.661-67.244-44.664-96.273-81.083-105.714z" fill="#ff5872"/><path d="m339.385 395.724c-23.07-34.696-60.542-55.827-79.98-94.877-1.385-2.783-2.681-5.53-3.89-8.242-6.071-13.616-8.085-28.771-5.115-43.381.623-3.062 1.382-5.846 2.271-8.006 1.847-4.489 1.412-9.767-.026-14.403-1.505-4.852-6.247-8.852-5.907-13.972 1.261-18.953 10.877-35.39 19.274-45.129 11.668-13.533 27.947-21.816 45.169-23.721-22.608-2.54-45.445 6.195-60.554 23.719-24.584 28.515-36.873 72.331-6.608 133.132 19.438 39.05 56.911 60.181 79.98 94.877 8.223 12.367 23.215 18.162 37.52 15.059-8.846-1.925-16.875-7.146-22.134-15.056z" fill="#ff7f90"/><path d="m401.886 251.485c-9.661-67.244-44.664-96.272-81.084-105.713-8.772-2.274-17.749-2.746-26.46-1.595 2.761.365 5.517.883 8.253 1.592 36.419 9.441 71.423 38.47 81.083 105.713 4.031 28.056-2.494 54.23-7.357 80.553-.962 5.206 1.814 17.125 1.077 22.359-1.273 9.038-5.744 11.433-5.578 20.68.297 16.634-11.041 31.212-27.074 35.362 23.142 6.01 45.703-11.75 45.282-35.358-.744-41.677 18.063-80.405 11.858-123.593z" fill="#db4968"/><ellipse cx="262.032" cy="269.864" fill="#ff7f90" rx="5.781" ry="9.399" transform="matrix(.994 -.111 .111 .994 -28.413 30.847)"/><circle cx="260.668" cy="208.494" fill="#ff7f90" r="5.822"/><ellipse cx="369.008" cy="353.933" fill="#db4968" rx="5.433" ry="3.536" transform="matrix(.261 -.965 .965 .261 -68.985 617.749)"/><ellipse cx="114.849" cy="332.278" fill="#ff7f90" rx="4.964" ry="5.925" transform="matrix(.942 -.337 .337 .942 -105.256 58.138)"/><ellipse cx="199.046" cy="277.585" fill="#db4968" rx="4.767" ry="6.447"/><path d="m173.594 91.882c-73.567 17.597-107.594-52.444-107.594-52.444 46.654-37.988 91.354-34.222 129.247-2.205l7.683 6.623c10.937 9.428 10.164 26.601-1.476 35.041-8.371 6.069-17.804 10.579-27.86 12.985z" fill="#69da61"/><path d="m66 39.438s1.483 3.045 4.485 7.698c9.167 5.97 20.723 9.541 33.293 9.541 28.257 0 51.418-17.997 53.696-40.891-28.54-8.783-59.549-2.343-91.474 23.652z" fill="#5ab161"/><path d="m217.79 78.313c82.395 13.646 101.206-65.67 101.206-65.67-48.453-24.226-87.007-12.133-114.042 23.455l-5.456 7.331c-7.777 10.449-3.707 25.386 8.159 30.509z" fill="#a8ffa9"/><path d="m248.129 3.573c-.077.922-.129 1.849-.129 2.788 0 21.108 19.749 38.22 44.11 38.22 4.49 0 8.822-.585 12.904-1.666 10.501-15.623 13.982-30.272 13.982-30.272-26.728-13.363-50.436-15.656-70.867-9.07z" fill="#c9ffd2"/></svg>