<svg id="Layer_1" enable-background="new 0 0 496 496" height="512" viewBox="0 0 496 496" width="512" xmlns="http://www.w3.org/2000/svg"><path d="m485.214 381.802c-3.961 11.548-12.301 20.891-17.926 31.003-5.945 10.688-9.612 22.669-17.04 31.501-7.896 9.388-19.128 14.907-28.251 21.896-9.754 7.472-18.208 16.77-28.816 21.13-11.273 4.633-23.686 3.725-35.263 4.401-11.788.689-24.076 2.927-35.468-.965-11.393-3.892-19.729-13.175-28.622-20.927-8.733-7.614-19.1-14.487-25.162-25.042-5.705-9.932-6.675-22.45-9.794-34.319-2.917-11.101-8.403-22.33-8.878-34.577-.446-11.522 4.014-23.231 5.88-35.313 1.765-11.431.913-23.914 4.875-35.463 3.961-11.548 12.301-20.891 17.926-31.003 5.945-10.688 9.612-22.669 17.04-31.501 7.896-9.388 19.128-14.907 28.251-21.896 9.754-7.472 18.208-16.77 28.816-21.13 11.273-4.633 23.686-3.725 35.263-4.401 11.788-.689 24.076-2.927 35.468.965 11.393 3.892 19.729 13.175 28.622 20.927 8.733 7.614 19.1 14.487 25.162 25.042 5.705 9.932 6.675 22.45 9.794 34.319 2.917 11.101 8.403 22.33 8.878 34.577.446 11.522-4.014 23.231-5.88 35.313-1.765 11.432-.913 23.915-4.875 35.463z" fill="#ffb750"/><path d="m490.089 346.34c1.866-12.082 6.326-23.791 5.88-35.313-.474-12.247-5.961-23.476-8.878-34.577-3.119-11.869-4.09-24.386-9.794-34.319-6.062-10.555-16.429-17.428-25.162-25.042-7.957-6.938-15.476-15.089-25.132-19.517 3.717 3.222 7.279 6.662 10.932 9.847 8.733 7.614 19.1 14.487 25.163 25.042 5.705 9.933 6.675 22.45 9.794 34.319 2.917 11.101 8.403 22.33 8.878 34.577.446 11.522-4.014 23.231-5.88 35.313-1.765 11.431-.913 23.914-4.875 35.462-3.961 11.548-12.301 20.891-17.926 31.003-5.946 10.689-9.612 22.67-17.04 31.502-7.897 9.388-19.128 14.907-28.251 21.896-9.754 7.472-18.208 16.77-28.816 21.13-11.273 4.633-23.686 3.725-35.263 4.401-13.644.797-26.411 3.379-38.958-2.375 5.329 4.62 10.977 8.787 17.689 11.08 11.393 3.892 23.68 1.654 35.468.965 11.577-.676 23.991.233 35.263-4.401 10.608-4.36 19.062-13.658 28.816-21.13 9.123-6.988 20.355-12.507 28.251-21.896 7.429-8.832 11.095-20.813 17.04-31.501 5.625-10.112 13.964-19.455 17.926-31.003 3.962-11.549 3.11-24.032 4.875-35.463z" fill="#ea8e50"/><path d="m272.652 425.687c-2.917-11.101-8.403-22.33-8.878-34.577-.446-11.521 4.014-23.231 5.88-35.313 1.765-11.431.913-23.914 4.875-35.462 3.961-11.548 12.301-20.891 17.926-31.003 5.945-10.688 9.612-22.669 17.04-31.501 7.896-9.388 19.128-14.907 28.251-21.896 9.754-7.472 18.208-16.77 28.816-21.13 11.272-4.633 23.686-3.725 35.263-4.401 11.788-.688 24.075-2.927 35.468.965s19.729 13.175 28.622 20.927c3.513 3.063 7.288 6.009 10.943 9.12-6.113-10.147-16.193-16.887-24.724-24.325-8.892-7.753-17.228-17.036-28.622-20.927-11.393-3.892-23.681-1.653-35.468-.965-11.577.676-23.991-.232-35.263 4.401-10.608 4.36-19.062 13.658-28.816 21.13-9.123 6.988-20.355 12.507-28.251 21.896-7.429 8.832-11.095 20.813-17.04 31.501-5.625 10.112-13.964 19.455-17.926 31.003s-3.11 24.032-4.875 35.463c-1.866 12.082-6.326 23.791-5.88 35.313.474 12.247 5.961 23.476 8.878 34.577 3.119 11.869 4.09 24.386 9.794 34.319 3.624 6.309 8.788 11.299 14.219 15.922-6.154-10.226-6.989-22.698-10.232-35.037z" fill="#ffe070"/><path d="m452.145 374.022c-2.52 7.345-7.824 13.288-11.401 19.72-3.781 6.799-6.113 14.419-10.838 20.037-5.022 5.972-12.166 9.482-17.968 13.927-6.204 4.753-11.581 10.667-18.327 13.441-7.169 2.947-15.064 2.37-22.427 2.8-7.497.438-15.312 1.862-22.557-.613-7.246-2.475-12.547-8.379-18.202-13.31-5.554-4.843-12.147-9.214-16.002-15.927-3.628-6.317-4.245-14.279-6.228-21.828-1.855-7.06-5.344-14.202-5.645-21.992-.284-7.328 2.554-14.776 3.74-22.461 1.123-7.271.581-15.211 3.101-22.556s7.824-13.288 11.401-19.72c3.781-6.798 6.113-14.419 10.838-20.037 5.022-5.972 12.166-9.482 17.968-13.927 6.204-4.753 11.581-10.667 18.327-13.441 7.169-2.947 15.064-2.37 22.427-2.8 7.497-.438 15.312-1.862 22.557.613 7.246 2.475 12.547 8.379 18.202 13.31 5.554 4.843 12.147 9.214 16.002 15.927 3.628 6.317 4.245 14.279 6.228 21.828 1.855 7.06 5.344 14.202 5.645 21.992.284 7.328-2.554 14.776-3.74 22.461-1.122 7.271-.581 15.211-3.101 22.556z" fill="#ea8e50"/><path d="m421.052 363.401c-1.422 4.145-4.416 7.499-6.435 11.129-2.134 3.837-3.45 8.138-6.117 11.308-2.835 3.37-6.866 5.352-10.141 7.86-3.501 2.682-6.536 6.02-10.344 7.586-4.046 1.663-8.502 1.337-12.657 1.58-4.231.247-8.642 1.051-12.731-.346s-7.081-4.729-10.273-7.512c-3.135-2.733-6.856-5.2-9.031-8.989-2.048-3.565-2.396-8.059-3.515-12.319-1.047-3.985-3.016-8.016-3.186-12.412-.16-4.136 1.441-8.339 2.111-12.676.634-4.103.328-8.585 1.75-12.73s4.415-7.499 6.435-11.129c2.134-3.837 3.45-8.138 6.117-11.308 2.834-3.37 6.866-5.352 10.141-7.86 3.501-2.682 6.536-6.02 10.344-7.586 4.046-1.663 8.502-1.337 12.657-1.58 4.231-.247 8.642-1.051 12.731.346s7.081 4.729 10.273 7.512c3.135 2.733 6.856 5.2 9.031 8.989 2.048 3.565 2.396 8.059 3.515 12.319 1.047 3.985 3.016 8.016 3.186 12.412.16 4.136-1.441 8.339-2.111 12.676-.634 4.104-.328 8.585-1.75 12.73z" fill="#d27a50"/><path d="m312.041 206.354c0 15.942-6.389 31.007-9.072 45.877-2.836 15.717-2.284 32.07-7.757 46.119-5.818 14.934-17.439 26.495-25.808 38.982-8.948 13.35-15.499 28.409-26.837 38.274-12.049 10.484-27.883 14.601-42.001 20.323-14.374 5.826-28.709 13.779-44.546 13.779-15.838 0-30.174-7.952-44.548-13.779-14.117-5.723-29.951-9.84-42-20.323-11.338-9.866-17.889-24.924-26.837-38.274-8.368-12.486-19.988-24.046-25.807-38.98-5.474-14.049-4.921-30.401-7.757-46.118-2.682-14.871-9.071-29.937-9.071-45.88 0-15.942 6.389-31.008 9.071-45.877 2.836-15.717 2.284-32.07 7.757-46.119 5.818-14.934 17.439-26.495 25.808-38.982 8.948-13.35 15.499-28.409 26.837-38.274 12.049-10.484 27.883-14.601 42.001-20.323 14.374-5.827 28.709-13.779 44.546-13.779 15.838 0 30.174 7.952 44.548 13.779 14.117 5.723 29.951 9.84 42 20.323 11.338 9.866 17.889 24.924 26.837 38.274 8.368 12.486 19.988 24.046 25.806 38.98 5.474 14.049 4.921 30.401 7.757 46.118 2.684 14.871 9.073 29.938 9.073 45.88z" fill="#ffb750"/><path d="m302.969 160.475c-2.836-15.717-2.284-32.069-7.757-46.118-5.818-14.934-17.438-26.494-25.806-38.98-8.948-13.35-15.498-28.408-26.837-38.274-12.049-10.484-27.883-14.601-42-20.323-12.864-5.215-25.699-12.114-39.604-13.51 6 2.413 11.901 5.16 17.807 7.554 14.117 5.723 29.951 9.84 42 20.323 11.338 9.866 17.889 24.924 26.837 38.274 8.368 12.486 19.988 24.046 25.806 38.98 5.474 14.049 4.921 30.401 7.757 46.118 2.683 14.87 9.072 29.937 9.072 45.879s-6.389 31.008-9.072 45.877c-2.836 15.718-2.284 32.07-7.757 46.12-5.818 14.934-17.439 26.495-25.807 38.982-8.948 13.351-15.499 28.409-26.837 38.274-12.049 10.484-27.883 14.601-42.001 20.323-16.694 6.767-31.44 15.322-49.491 13.509 8.603 3.46 17.41 6.225 26.741 6.225 15.838 0 30.172-7.952 44.546-13.779 14.117-5.723 29.952-9.839 42.001-20.323 11.338-9.865 17.889-24.924 26.837-38.274 8.369-12.486 19.989-24.047 25.808-38.982 5.474-14.049 4.921-30.402 7.757-46.119 2.683-14.87 9.072-29.935 9.072-45.877 0-15.943-6.389-31.009-9.072-45.879z" fill="#ea8e50"/><path d="m66.274 350.305c-8.368-12.486-19.988-24.046-25.807-38.98-5.473-14.049-4.921-30.401-7.757-46.118-2.683-14.87-9.072-29.937-9.072-45.879s6.389-31.008 9.071-45.878c2.836-15.717 2.284-32.07 7.757-46.119 5.818-14.934 17.439-26.495 25.808-38.982 8.948-13.351 15.499-28.409 26.837-38.274 12.049-10.484 27.883-14.601 42.001-20.323 14.374-5.826 28.709-13.779 44.546-13.779 15.838 0 30.174 7.952 44.548 13.779 5.679 2.302 11.634 4.349 17.51 6.65-11.938-9.958-27.358-14.033-41.148-19.623-14.374-5.826-28.709-13.779-44.548-13.779-15.838 0-30.172 7.953-44.546 13.779-14.117 5.723-29.952 9.84-42.001 20.323-11.338 9.865-17.889 24.924-26.837 38.274-8.369 12.486-19.989 24.047-25.808 38.982-5.474 14.049-4.921 30.402-7.757 46.119-2.682 14.87-9.071 29.936-9.071 45.877 0 15.942 6.389 31.009 9.072 45.879 2.836 15.717 2.284 32.069 7.757 46.118 5.818 14.934 17.438 26.494 25.807 38.98 8.948 13.35 15.498 28.408 26.837 38.274 7.202 6.266 15.758 10.254 24.49 13.674-12.012-10.025-18.428-25.156-27.689-38.974z" fill="#ffe070"/><path d="m261.217 206.354c0 10.749-4.308 20.907-6.116 30.933-1.912 10.597-1.54 21.623-5.23 31.096-3.923 10.07-11.758 17.864-17.401 26.283-6.033 9.001-10.45 19.155-18.095 25.806-8.124 7.069-18.8 9.845-28.319 13.703-9.692 3.928-19.357 9.29-30.035 9.29-10.679 0-20.345-5.362-30.036-9.291-9.518-3.858-20.195-6.634-28.318-13.703-7.645-6.652-12.062-16.805-18.095-25.806-5.642-8.419-13.477-16.213-17.4-26.282-3.691-9.473-3.318-20.498-5.23-31.095-1.809-10.026-6.117-20.185-6.117-30.934s4.308-20.907 6.116-30.933c1.912-10.597 1.54-21.623 5.23-31.096 3.923-10.07 11.758-17.864 17.401-26.283 6.033-9.002 10.45-19.155 18.095-25.806 8.124-7.069 18.8-9.844 28.319-13.703 9.692-3.928 19.357-9.29 30.035-9.29 10.679 0 20.345 5.362 30.036 9.291 9.518 3.858 20.195 6.634 28.318 13.703 7.645 6.652 12.062 16.805 18.095 25.806 5.642 8.419 13.477 16.213 17.4 26.282 3.691 9.473 3.318 20.498 5.23 31.095 1.809 10.027 6.117 20.185 6.117 30.934z" fill="#ea8e50"/><path d="m217.662 206.354c0 6.298-2.524 12.251-3.584 18.125-1.12 6.21-.902 12.67-3.065 18.221-2.299 5.9-6.89 10.468-10.196 15.401-3.535 5.275-6.123 11.224-10.603 15.122-4.76 4.142-11.016 5.769-16.594 8.029-5.679 2.302-11.342 5.444-17.6 5.444-6.257 0-11.921-3.142-17.6-5.444-5.577-2.261-11.833-3.888-16.594-8.03-4.48-3.898-7.068-9.847-10.603-15.122-3.306-4.933-7.897-9.5-10.196-15.4-2.163-5.551-1.944-12.011-3.065-18.221-1.06-5.875-3.584-11.828-3.584-18.126s2.524-12.251 3.584-18.125c1.12-6.21.902-12.67 3.065-18.221 2.299-5.9 6.89-10.468 10.196-15.401 3.535-5.275 6.123-11.224 10.603-15.122 4.76-4.142 11.016-5.769 16.594-8.029 5.679-2.302 11.342-5.444 17.6-5.444 6.257 0 11.921 3.142 17.6 5.444 5.577 2.261 11.833 3.887 16.594 8.029 4.48 3.898 7.068 9.847 10.603 15.122 3.306 4.933 7.897 9.5 10.196 15.4 2.163 5.551 1.944 12.011 3.065 18.221 1.06 5.876 3.584 11.829 3.584 18.127z" fill="#d27a50"/><ellipse cx="106.542" cy="58.678" fill="#ffe070" rx="10.237" ry="8.509" transform="matrix(.815 -.58 .58 .815 -14.285 72.647)"/><ellipse cx="51.397" cy="309.543" fill="#ffe070" rx="5.151" ry="7.412" transform="matrix(.902 -.432 .432 .902 -128.79 52.656)"/><ellipse cx="261.217" cy="295.962" fill="#ea8e50" rx="7.319" ry="4.941" transform="matrix(.42 -.908 .908 .42 -117.05 408.843)"/><ellipse cx="371.981" cy="224.23" fill="#ffe070" rx="7.061" ry="3.657" transform="matrix(.98 -.201 .201 .98 -37.404 79.133)"/><g fill="#ea8e50"><ellipse cx="197.437" cy="172.238" rx="6.205" ry="8.485" transform="matrix(.815 -.58 .58 .815 -63.291 146.39)"/><ellipse cx="351.439" cy="364.349" rx="5.032" ry="8.754" transform="matrix(.979 -.206 .206 .979 -67.407 80.048)"/></g></svg>