<svg id="Layer_1" enable-background="new 0 0 496 496" height="512" viewBox="0 0 496 496" width="512" xmlns="http://www.w3.org/2000/svg"><path d="m281.523 11.767c-47.298 52.902-22.308 146.79 65.107 177.077 6.799 2.356-21.701 16.612-21.701 16.612-87.738-26.916-94.954-91.065-94.954-91.065-81.108 20.021-85.509 121.927-85.509 121.927l-26.695 3.404s-16.382-119.946 105.214-159.871c0 0-2.99-49.907 33.887-79.851z" fill="#cd8e50"/><g fill="#ba8050"><path d="m346.63 188.844c-87.415-30.287-112.405-124.176-65.107-177.077l-14.137-7.05c-50.138 58.685-26.723 158.643 60.692 191.375 2.992 1.121 25.351-4.893 18.552-7.248z"/><path d="m231.09 107.582c-3.159-4.999-9.461-6.942-15.083-5.108-74.055 24.161-81.926 117.76-81.926 117.76l-1.138 17.554 11.522-1.469s4.221-97.405 80.219-120.457c7.257.077 9.48-3.417 6.406-8.28z"/><path d="m346.63 188.844c-6.256-2.167-12.181-4.671-17.794-7.452-6.471 4.065-14.292 7.979-14.292 7.979-38.657-11.859-61.677-30.945-75.341-48.588 11.005 20.885 34.8 49.05 85.726 64.673 0 0 28.5-14.257 21.701-16.612z"/></g><ellipse cx="299.015" cy="392.336" fill="#455d7d" rx="103.513" ry="103.664"/><path d="m401.84 380.393c-5.915-51.625-49.691-91.72-102.825-91.72-57.168 0-103.513 46.412-103.513 103.664 0 18.124 4.649 35.158 12.811 49.981 21.43-8.41 39.993-22.543 53.808-40.525 6.882-8.958 18.771-12.296 29.437-8.575 35.729 12.463 76.621 8.638 110.282-12.825z" fill="#2e445e"/><ellipse cx="162.513" cy="332.175" fill="#66658b" rx="103.513" ry="103.664"/><ellipse cx="162.513" cy="332.175" fill="#455d7d" rx="103.513" ry="103.664"/><path d="m81.719 332.175c0-56.316 46.048-102.311 103.086-101.246-7.181-1.579-14.638-2.418-22.292-2.418-57.169.001-103.513 46.412-103.513 103.664s46.344 103.664 103.513 103.664c7.654 0 15.112-.84 22.292-2.418-56.599 1.1-103.086-44.532-103.086-101.246z" fill="#6b86ab"/><path d="m159.789 288.497c0 4.48-4.928 7.68-7.016 11.298-2.156 3.735-2.529 9.58-6.257 11.741-3.616 2.097-8.818-.434-13.297-.434s-9.681 2.53-13.297.433c-3.728-2.162-4.101-8.007-6.257-11.742-2.089-3.618-7.016-6.818-7.016-11.298s4.928-7.68 7.016-11.298c2.156-3.735 2.529-9.58 6.257-11.741 3.616-2.097 8.818.434 13.297.434s9.681-2.53 13.297-.433c3.728 2.162 4.101 8.007 6.257 11.742 2.088 3.618 7.016 6.818 7.016 11.298z" fill="#ffb750"/><ellipse cx="333.487" cy="279.656" fill="#455d7d" rx="103.513" ry="103.664"/><path d="m251.593 280.656c0-54.642 44.232-98.938 98.795-98.938 8.795 0 17.319 1.157 25.435 3.316-12.924-5.808-27.252-9.041-42.335-9.041-57.168 0-103.513 46.412-103.513 103.664s46.344 103.664 103.513 103.664c10.802 0 21.216-1.659 31.005-4.733-59.892 8.573-112.9-37.962-112.9-97.932z" fill="#6b86ab"/><path d="m378.303 253.345c-3.165 3.169-8.91 1.948-12.944 3.027-4.163 1.113-8.561 4.977-12.724 3.864-4.034-1.079-5.915-6.548-9.08-9.717-3.166-3.17-8.635-5.062-9.711-9.103-1.111-4.167 2.755-8.57 3.865-12.737 1.077-4.041-.15-9.789 3.016-12.959 3.165-3.169 8.91-1.948 12.944-3.027 4.163-1.113 8.561-4.977 12.724-3.864 4.034 1.079 5.915 6.548 9.08 9.717 3.166 3.17 8.635 5.062 9.711 9.103 1.111 4.167-2.755 8.57-3.865 12.737-1.077 4.041.149 9.789-3.016 12.959z" fill="#ffb750"/><path d="m369.998 73.49c3.728 4.536 2.996 10.888-1.667 14.453-12.944 9.897-40.657 27.371-71.302 23.826-32.632-3.775-43.669-26.267-47.008-36.35-1.846-5.572-1.138-11.738 1.932-16.748 5.547-9.055 21.414-28.434 54.046-24.659 30.644 3.545 53.649 26.886 63.999 39.478z" fill="#69da61"/><path d="m368.331 87.943c-12.944 9.897-40.657 27.371-71.302 23.826-10.446-1.208-18.68-4.335-25.156-8.359.94-14.558 21.929-28.758 49.307-32.647 21.804-3.097 41.532 1.216 51.159 10.033-.231 2.703-1.592 5.299-4.008 7.147z" fill="#5ab161"/><path d="m365.656 240.682c-1.035 1.036-2.913.637-4.231.989-1.361.364-2.799 1.627-4.16 1.263-1.319-.353-1.934-2.141-2.968-3.177-1.035-1.036-2.823-1.655-3.175-2.976-.363-1.362.9-2.802 1.264-4.164.352-1.321-.049-3.2.986-4.236s2.913-.637 4.231-.99c1.361-.364 2.799-1.627 4.16-1.263 1.319.353 1.934 2.141 2.968 3.177 1.035 1.036 2.823 1.655 3.175 2.976.363 1.362-.9 2.801-1.264 4.164-.352 1.322.049 3.201-.986 4.237z" fill="#ffe070"/><path d="m142.581 288.497c0 1.579-1.736 2.706-2.472 3.981-.76 1.316-.891 3.376-2.205 4.137-1.274.739-3.107-.153-4.685-.153s-3.411.891-4.686.153c-1.314-.762-1.445-2.821-2.205-4.137-.736-1.275-2.472-2.403-2.472-3.981 0-1.579 1.736-2.706 2.472-3.981.76-1.316.891-3.376 2.205-4.137 1.274-.739 3.107.153 4.685.153s3.411-.891 4.686-.153c1.314.762 1.445 2.821 2.205 4.137.736 1.274 2.472 2.402 2.472 3.981z" fill="#ffe070"/></svg>