<svg id="Layer_1" enable-background="new 0 0 504.003 504.003" height="512" viewBox="0 0 504.003 504.003" width="512" xmlns="http://www.w3.org/2000/svg"><path d="m320.543 301.255c0 81.848-66.383 161.166-148.271 161.166s-148.271-79.318-148.271-161.166 66.383-148.198 148.271-148.198 148.271 66.35 148.271 148.198z" fill="#ff5872"/><path d="m237.262 236.429c-3.179 5.566-14.922 9.065-17.44 15.019-2.26 5.344 4.641 13.108 2.931 18.715-8.525 27.952-9.906 58.471-4.183 87.081-12.227 7.719-18.771 22.337-15.632 37.019 4.266 19.952 12.203 39.104 23.144 56.322 55.284-25.079 94.461-86.454 94.461-149.33 0-42.545-17.943-80.897-46.67-107.925-14.507 11.539-27.002 26.273-36.611 43.099z" fill="#db4968"/><path d="m50.973 318.734c0-2.221-4.085-7.591-3.988-9.788.239-5.424.769-10.772 1.576-16.029.99-6.447-4.511-18.941-2.718-25.086 2.657-9.107 13.069-11.667 17.336-19.957 24.603-47.802 74.447-80.499 131.931-80.499 24.08 0 46.816 5.743 66.921 15.925-24.917-18.971-56.018-30.243-89.758-30.243-81.888 0-148.271 66.351-148.271 148.198 0 60.841 36.686 120.274 89.149 146.779-35.74-27.147-60.589-70.442-65.443-116.166-.575-5.406 3.265-7.683 3.265-13.134z" fill="#ff7f90"/><g fill="#ad4968"><path d="m82.788 252.609c-4.418 0-8-3.582-8-8v-7.917c0-4.418 3.582-8 8-8s8 3.582 8 8v7.917c0 4.418-3.581 8-8 8z"/><path d="m142.444 252.609c-4.418 0-8-3.582-8-8v-7.917c0-4.418 3.582-8 8-8s8 3.582 8 8v7.917c0 4.418-3.581 8-8 8z"/><path d="m202.1 252.609c-4.418 0-8-3.582-8-8v-7.917c0-4.418 3.582-8 8-8s8 3.582 8 8v7.917c0 4.418-3.582 8-8 8z"/><path d="m112.617 212.623c-4.418 0-8-3.582-8-8v-7.917c0-4.418 3.582-8 8-8s8 3.582 8 8v7.917c0 4.418-3.582 8-8 8z"/><path d="m172.272 212.623c-4.418 0-8-3.582-8-8v-7.917c0-4.418 3.582-8 8-8s8 3.582 8 8v7.917c0 4.418-3.581 8-8 8z"/><path d="m231.928 212.623c-4.418 0-8-3.582-8-8v-7.917c0-4.418 3.582-8 8-8s8 3.582 8 8v7.917c0 4.418-3.581 8-8 8z"/><path d="m112.617 413.066c-4.418 0-8-3.582-8-8v-7.917c0-4.418 3.582-8 8-8s8 3.582 8 8v7.917c0 4.418-3.582 8-8 8z"/><path d="m172.272 413.066c-4.418 0-8-3.582-8-8v-7.917c0-4.418 3.582-8 8-8s8 3.582 8 8v7.917c0 4.418-3.581 8-8 8z"/><path d="m82.788 308.834c-4.418 0-8-3.582-8-8v-7.917c0-4.418 3.582-8 8-8s8 3.582 8 8v7.917c0 4.418-3.581 8-8 8z"/><path d="m142.444 308.834c-4.418 0-8-3.582-8-8v-7.917c0-4.418 3.582-8 8-8s8 3.582 8 8v7.917c0 4.418-3.581 8-8 8z"/><path d="m202.1 308.834c-4.418 0-8-3.582-8-8v-7.917c0-4.418 3.582-8 8-8s8 3.582 8 8v7.917c0 4.418-3.582 8-8 8z"/><path d="m82.788 365.059c-4.418 0-8-3.582-8-8v-7.918c0-4.418 3.582-8 8-8s8 3.582 8 8v7.918c0 4.418-3.581 8-8 8z"/><path d="m142.444 365.059c-4.418 0-8-3.582-8-8v-7.918c0-4.418 3.582-8 8-8s8 3.582 8 8v7.918c0 4.418-3.581 8-8 8z"/><path d="m202.1 365.059c-4.418 0-8-3.582-8-8v-7.918c0-4.418 3.582-8 8-8s8 3.582 8 8v7.918c0 4.418-3.582 8-8 8z"/><path d="m172.285 173.349c-5.272 0-9.115-5.02-7.721-10.113.378-1.39 32.815-123.189-25.249-147.871-4.066-1.729-5.961-6.426-4.233-10.492 1.729-4.065 6.428-5.963 10.492-4.232 70.903 30.139 35.946 161.251 34.423 166.818-.973 3.554-4.196 5.89-7.712 5.89z"/></g><path d="m464.819 371.836h-5.761c5.154-15.42 7.986-32.211 7.986-49.779 0-75.245-51.919-136.243-115.964-136.243s-115.964 60.998-115.964 136.243c0 17.568 2.832 34.359 7.986 49.779h-5.761c-9.616 0-16.855 8.846-14.845 18.245 13.098 61.254 65.69 113.921 128.584 113.921s115.486-52.667 128.584-113.921c2.01-9.399-5.229-18.245-14.845-18.245z" fill="#db4968"/><ellipse cx="351.08" cy="322.057" fill="#fff2b9" rx="115.964" ry="136.243"/><path d="m334.349 187.231c37.063 6.293 68.455 33.176 85.5 70.46 3.68 8.049 16.251 19.721 18.506 28.638 3.115 12.316-4.773 22.223-4.773 35.728 0 68.569-43.117 125.297-99.233 134.825 5.464.928 11.048 1.417 16.731 1.417 64.045 0 115.964-60.999 115.964-136.243 0-81.921-61.727-146.874-132.695-134.825z" fill="#f4dca7"/><ellipse cx="422.886" cy="288.805" fill="#f4dca7" rx="6.981" ry="9.369" transform="matrix(.976 -.22 .22 .976 -53.175 100.108)"/><path d="m237.341 371.836c-9.616 0-16.855 8.846-14.845 18.245 13.098 61.254 65.69 113.921 128.584 113.921s115.487-52.667 128.584-113.921c2.01-9.399-5.229-18.245-14.845-18.245z" fill="#ff5872"/><path d="m464.819 371.836h-5.938c1.047 2.64 1.373 5.61.725 8.645-2.915 13.632-7.786 26.84-14.292 39.135-3.862 7.299-4.071 19.843-9.017 26.398-3.321 4.401-11.099 3.045-14.858 7.034-34.429 36.537-83.364 51.569-130.382 34.073 18 10.657 38.404 16.881 60.024 16.881 62.894 0 115.486-52.667 128.584-113.921 2.009-9.399-5.23-18.245-14.846-18.245z" fill="#db4968"/><path d="m298.08 461.048c-4.418 0-8-3.582-8-8v-7.033c0-4.418 3.582-8 8-8s8 3.582 8 8v7.033c0 4.418-3.582 8-8 8z" fill="#ad4968"/><path d="m351.08 461.048c-4.418 0-8-3.582-8-8v-7.033c0-4.418 3.582-8 8-8s8 3.582 8 8v7.033c0 4.418-3.582 8-8 8z" fill="#ad4968"/><path d="m404.079 461.048c-4.418 0-8-3.582-8-8v-7.033c0-4.418 3.582-8 8-8s8 3.582 8 8v7.033c0 4.418-3.582 8-8 8z" fill="#ad4968"/><path d="m271.581 418.397c-4.418 0-8-3.582-8-8v-7.034c0-4.418 3.582-8 8-8s8 3.582 8 8v7.034c0 4.418-3.582 8-8 8z" fill="#ad4968"/><path d="m324.58 418.397c-4.418 0-8-3.582-8-8v-7.034c0-4.418 3.582-8 8-8s8 3.582 8 8v7.034c0 4.418-3.582 8-8 8z" fill="#ad4968"/><path d="m377.579 418.397c-4.418 0-8-3.582-8-8v-7.034c0-4.418 3.582-8 8-8s8 3.582 8 8v7.034c0 4.418-3.582 8-8 8z" fill="#ad4968"/><path d="m430.579 418.397c-4.418 0-8-3.582-8-8v-7.034c0-4.418 3.582-8 8-8s8 3.582 8 8v7.034c0 4.418-3.582 8-8 8z" fill="#ad4968"/><path d="m267.67 85.332c3.894 3.363 4.199 8.952.695 12.717-9.728 10.451-31.104 29.621-58.123 31.088-28.771 1.562-41.638-16.214-46.016-24.421-2.419-4.535-2.719-9.96-.806-14.736 3.458-8.632 14.31-27.697 43.081-29.259 27.019-1.467 50.36 15.275 61.169 24.611z" fill="#69da61"/><path d="m183.265 81.002c4.378 8.206 17.245 25.983 46.016 24.421 16.153-.877 30.286-8.082 41.122-15.968.906 2.89.254 6.131-2.038 8.593-9.727 10.451-31.104 29.621-58.123 31.088-28.771 1.562-41.637-16.214-46.016-24.421-2.42-4.536-2.719-9.96-.806-14.736 2.212-5.522 7.46-15.307 18.478-22.055-1.304 4.534-.695 9.213 1.367 13.078z" fill="#5ab161"/><path d="m83.261 73.337c-3.682 3.18-3.971 8.464-.657 12.024 9.198 9.882 29.41 28.008 54.957 29.395 27.204 1.477 39.37-15.331 43.51-23.091 2.288-4.288 2.571-9.417.762-13.934-3.269-8.162-13.531-26.188-40.734-27.665-25.548-1.387-47.617 14.443-57.838 23.271z" fill="#a8ffa9"/><path d="m163.069 69.243c-4.14 7.759-16.306 24.568-43.51 23.091-15.273-.829-28.636-7.641-38.882-15.098-.857 2.733-.241 5.797 1.927 8.125 9.198 9.882 29.41 28.008 54.957 29.395 27.204 1.477 39.37-15.331 43.51-23.091 2.288-4.289 2.571-9.417.762-13.934-2.091-5.221-7.054-14.474-17.472-20.854 1.233 4.287.657 8.711-1.292 12.366z" fill="#85eda2"/><circle cx="228.373" cy="229.168" fill="#db4968" r="5.131"/><ellipse cx="58.896" cy="272.839" fill="#ff7f90" rx="5.701" ry="7.345"/><circle cx="56.895" cy="334.762" fill="#ff7f90" r="3.699"/><ellipse cx="430.579" cy="439.5" fill="#db4968" rx="4.332" ry="3.183" transform="matrix(.612 -.791 .791 .612 -180.51 511.114)"/></svg>