<svg height="512" viewBox="0 0 128 128" width="512" xmlns="http://www.w3.org/2000/svg"><g><path d="m92.677 125.015a60.026 60.026 0 0 0 32.311-32.315c4.519-10.873-3.674-22.829-15.449-22.829a16.637 16.637 0 0 0 -15.874 11.659l-.1.327a16.633 16.633 0 0 1 -10.272 10.682l-2.412.864a16.636 16.636 0 0 0 -11.032 15.665v.5c0 11.772 11.951 19.965 22.828 15.447z" fill="#6d4c41"/><path d="m80.864 93.409.017-.006 2.412-.863a16.637 16.637 0 0 0 10.269-10.683l.1-.327c.133-.425.284-.84.448-1.247a9.7 9.7 0 1 1 -13.246 13.126z" fill="#d0daad"/><path d="m11.836 87.892a60.029 60.029 0 0 0 45.7 0c10.878-4.492 13.539-18.741 5.213-27.067a16.638 16.638 0 0 0 -19.466-2.983l-.3.159a16.638 16.638 0 0 1 -14.815.292l-2.32-1.093a16.638 16.638 0 0 0 -18.878 3.273l-.352.352c-8.326 8.326-5.665 22.575 5.218 27.067z" fill="#6d4c41"/><path d="m25.831 57.191.017.007 2.316 1.095a16.638 16.638 0 0 0 14.815-.293l.3-.159q.592-.309 1.2-.565a9.7 9.7 0 1 1 -18.651-.086z" fill="#d0daad"/><path d="m51.378 24.576a60.026 60.026 0 0 0 32.311 32.311c10.873 4.518 22.829-3.675 22.829-15.45a16.637 16.637 0 0 0 -11.655-15.873l-.328-.1a16.64 16.64 0 0 1 -10.682-10.272l-.863-2.412a16.638 16.638 0 0 0 -15.665-11.033h-.5c-11.772 0-19.966 11.953-15.447 22.829z" fill="#6d4c41"/><path d="m82.983 12.763.007.017.863 2.412a16.64 16.64 0 0 0 10.682 10.269l.328.1c.424.133.84.283 1.247.447a9.7 9.7 0 1 1 -13.127-13.245z" fill="#d0daad"/></g></svg>