<svg height="512" viewBox="0 0 128 128" width="512" xmlns="http://www.w3.org/2000/svg"><g><path d="m91.75 78.188h-55.5a5.438 5.438 0 0 0 -5.438 5.437 5.438 5.438 0 0 0 5.438 5.438h55.5a5.438 5.438 0 0 0 5.437-5.438 5.437 5.437 0 0 0 -5.437-5.437z" fill="#bc8871"/><path d="m98.3 27.77a8.15 8.15 0 0 0 -1.045-.071 7.9 7.9 0 0 0 -7.692 5.809 23.229 23.229 0 0 1 -12.813 15.24v8.576a31.141 31.141 0 0 0 21.55-29.554z" fill="#77bc4d"/><g fill="#479838"><path d="m98.3 27.77a31.141 31.141 0 0 1 -21.55 29.554v8.317a39.277 39.277 0 0 0 28.241-27.866 8.01 8.01 0 0 0 -6.691-10.005z"/><path d="m63.942 11.761a12.748 12.748 0 0 0 -12.692 12.747v53.68h7.937v-61.62a4.81 4.81 0 0 1 4.755-4.807z"/><path d="m76.75 24.508a12.748 12.748 0 0 0 -12.692-12.747 4.809 4.809 0 0 1 4.754 4.807v61.62h7.938z"/></g><path d="m64.058 11.761c-.019 0-.038 0-.058 0s-.039 0-.058 0a4.81 4.81 0 0 0 -4.755 4.807v61.62h9.625v-61.62a4.809 4.809 0 0 0 -4.754-4.807z" fill="#77bc4d"/><path d="m54.053 1.747a9.339 9.339 0 0 0 5.111 8.837c7.507 3.634 14.9-1.74 14.9-8.84a9.717 9.717 0 0 1 -10 0 9.717 9.717 0 0 1 -10 0z" fill="#ffe671"/><path d="m82.364 100.127c-4.593 0-4.593 8-9.187 8s-4.594-8-9.189-8-4.593 8-9.186 8-4.592-8-9.184-8c-2.884 0-3.957 3.153-5.493 5.5v9.616a11 11 0 0 0 11 11h25.75a11 11 0 0 0 11-11v-9.6c-1.544-2.343-2.617-5.516-5.511-5.516z" fill="#d0daad"/><path d="m40.125 89.063v16.564c1.536-2.347 2.609-5.5 5.493-5.5 4.592 0 4.592 8 9.184 8s4.593-8 9.186-8 4.595 8 9.189 8 4.594-8 9.187-8c2.894 0 3.967 3.169 5.511 5.518v-16.582z" fill="#edf1d3"/></g></svg>