<svg height="512" viewBox="0 0 128 128" width="512" xmlns="http://www.w3.org/2000/svg"><g><path d="m3.948 124.052a7.506 7.506 0 0 1 -.83-9.627l52.216-74.174a23.264 23.264 0 0 1 35.473-3.058 23.264 23.264 0 0 1 -3.058 35.473l-74.174 52.216a7.506 7.506 0 0 1 -9.627-.83z" fill="#ffae4d"/><path d="m93.566 11.651a6.346 6.346 0 0 0 .4 10.876l-9.949 9.949a23.322 23.322 0 0 1 11.507 11.506l9.949-9.949a6.356 6.356 0 0 0 10.876.4 8.032 8.032 0 0 0 6.856-14.117 11.411 11.411 0 0 0 -15.522-15.516 8.037 8.037 0 0 0 -14.117 6.856z" fill="#a2d962"/><g fill="#ffe671"><path d="m95.307 63.772-11.3-11.3a1.75 1.75 0 0 0 -2.475 2.474l11.95 11.954a23.043 23.043 0 0 0 1.825-3.128z"/><path d="m50.439 47.205 9.406 9.406a1.749 1.749 0 0 0 2.474-2.474l-9.836-9.837z"/><path d="m63.747 72.734a1.75 1.75 0 1 0 -2.475 2.475l9.446 9.446 2.9-2.044z"/><path d="m42.131 79.037a1.749 1.749 0 1 0 2.474-2.474l-8.7-8.706-2.045 2.905z"/><path d="m38.346 93.659a1.75 1.75 0 0 0 -2.475 2.475l7.66 7.66 2.9-2.045z"/></g></g></svg>