<svg height="512" viewBox="0 0 128 128" width="512" xmlns="http://www.w3.org/2000/svg"><g><path d="m36.937 109.375h54.125a11 11 0 0 1 11 11v5.872a0 0 0 0 1 0 0h-76.125a0 0 0 0 1 0 0v-5.872a11 11 0 0 1 11-11z" fill="#d0daad"/><circle cx="64" cy="40.606" fill="#70efef" r="38.859"/><circle cx="64" cy="40.606" fill="#edf1d3" r="30.859" transform="matrix(.05 -.999 .999 .05 20.243 102.495)"/><circle cx="64" cy="40.606" fill="#6d4c41" r="8.25"/><g fill="#bc8871"><path d="m55.75 40.606a8.2 8.2 0 0 1 1.516-4.749h-17.748v1.43a10.071 10.071 0 0 0 13.321 9.532l4.4-1.5a8.2 8.2 0 0 1 -1.489-4.713z"/><path d="m59.288 33.844a8.2 8.2 0 0 1 9.462.028v-17.748h-1.43a10.071 10.071 0 0 0 -10.071 10.076 10.061 10.061 0 0 0 .539 3.25z"/><path d="m68.712 47.368a8.2 8.2 0 0 1 -9.462-.027v17.748h1.43a10.071 10.071 0 0 0 9.532-13.321z"/><path d="m78.411 33.855a10.07 10.07 0 0 0 -3.25.539l-4.4 1.5a8.2 8.2 0 0 1 -.028 9.462h17.749v-1.43a10.071 10.071 0 0 0 -10.071-10.071z"/></g><path d="m64 79.466a38.928 38.928 0 0 1 -9.386-1.148l-4.324 31.057h27.42l-4.324-31.057a38.928 38.928 0 0 1 -9.386 1.148z" fill="#edf1d3"/></g></svg>