<svg height="512" viewBox="0 0 128 128" width="512" xmlns="http://www.w3.org/2000/svg"><g><path d="m104.621 104.244v-80.493a15.273 15.273 0 0 0 9.562-14.16 7.842 7.842 0 0 0 -7.842-7.841 15.265 15.265 0 0 0 -13.505 8.15h-57.672a15.266 15.266 0 0 0 -13.505-8.15 7.842 7.842 0 0 0 -7.842 7.841 15.273 15.273 0 0 0 9.562 14.16v80.493a15.27 15.27 0 0 0 -9.562 14.156 7.842 7.842 0 0 0 7.842 7.841 15.264 15.264 0 0 0 13.505-8.141h57.672a15.263 15.263 0 0 0 13.5 8.149 7.842 7.842 0 0 0 7.842-7.841 15.27 15.27 0 0 0 -9.557-14.164z" fill="#bc8871"/><ellipse cx="64" cy="63.997" fill="#ffe671" rx="25.72" ry="33.872"/><path d="m69.191 75.9h-10.382a6.857 6.857 0 0 1 -5.366-2.588 6.856 6.856 0 0 1 -.844-7.173l11.401-24.373 11.4 24.369a6.856 6.856 0 0 1 -.844 7.173 6.857 6.857 0 0 1 -5.365 2.592z" fill="#77bc4d"/><path d="m64 60.575a1.749 1.749 0 0 0 -1.75 1.75v35.457c.579.052 1.161.087 1.75.087s1.171-.035 1.75-.087v-35.457a1.749 1.749 0 0 0 -1.75-1.75z" fill="#479838"/></g></svg>