<svg height="512" viewBox="0 0 128 128" width="512" xmlns="http://www.w3.org/2000/svg"><path d="m1.75 109.5h124.5v16.747h-124.5z" fill="#bc8871"/><path d="m16.464 23.123 11.736 30.903a98.682 98.682 0 0 1 6.338 30.811l1.056 24.663h28.406l-3.058-18.873a98.69 98.69 0 0 0 -44.478-67.5z" fill="#77bc4d"/><path d="m64 109.5 1.822-21.948a170.954 170.954 0 0 1 31.678-85.805l-3.582 27.227a170.975 170.975 0 0 0 -1.231 31.165l2.563 49.361z" fill="#77bc4d"/><g fill="#479838"><path d="m48.648 56.48a98.664 98.664 0 0 1 12.294 34.147l3.058 18.873 1.822-21.948a170.959 170.959 0 0 1 6.667-35.072 108.559 108.559 0 0 0 -27.489-43.386l1.789 7.6a108.579 108.579 0 0 1 1.859 39.786z"/><path d="m31.309 85.654a121.044 121.044 0 0 0 -23.853-35.054l-5.706-5.84a121.049 121.049 0 0 1 13.45 60.412l-.171 4.328h20.565l-.677-15.8z"/><path d="m126.25 33.938a127.749 127.749 0 0 0 -32.213 52.2l1.213 23.362h23.062l-.4-2.184a127.762 127.762 0 0 1 7.037-70.116z"/></g></svg>