<svg height="512" viewBox="0 0 128 128" width="512" xmlns="http://www.w3.org/2000/svg"><g><path d="m1.75 48.439h124.5v19.003h-124.5z" fill="#bc8871"/><path d="m19.008 59.69h-7.25a1.75 1.75 0 1 1 0-3.5h7.25a1.75 1.75 0 0 1 0 3.5z" fill="#edf1d3"/><path d="m116.242 59.69h-7.25a1.75 1.75 0 0 1 0-3.5h7.25a1.75 1.75 0 1 1 0 3.5z" fill="#edf1d3"/><path d="m1.75 67.442h124.5v19.003h-124.5z" fill="#6d4c41"/><path d="m56.19 27.261a15.323 15.323 0 0 1 5.709-1.1h4.2a15.323 15.323 0 0 1 5.709 1.1 12.184 12.184 0 0 0 5.244-10.02 12.16 12.16 0 0 0 -8.704 3.659 16.625 16.625 0 0 0 -4.348-7.592 16.616 16.616 0 0 0 -4.348 7.592 12.16 12.16 0 0 0 -8.706-3.656 12.184 12.184 0 0 0 5.244 10.017z" fill="#a2d962"/><path d="m19.008 78.693h-7.25a1.75 1.75 0 1 1 0-3.5h7.25a1.75 1.75 0 0 1 0 3.5z" fill="#edf1d3"/><path d="m116.242 78.693h-7.25a1.75 1.75 0 0 1 0-3.5h7.25a1.75 1.75 0 0 1 0 3.5z" fill="#edf1d3"/><path d="m1.75 86.445h124.5v19.003h-124.5z" fill="#bc8871"/><path d="m19.008 97.7h-7.25a1.75 1.75 0 1 1 0-3.5h7.25a1.75 1.75 0 0 1 0 3.5z" fill="#edf1d3"/><path d="m116.242 97.7h-7.25a1.75 1.75 0 1 1 0-3.5h7.25a1.75 1.75 0 0 1 0 3.5z" fill="#edf1d3"/><path d="m9.844 105.448h14.531v9.244h-14.531z" fill="#ffe671"/><path d="m103.625 105.448h14.531v9.244h-14.531z" fill="#ffe671" transform="matrix(-1 0 0 -1 221.781 220.14)"/><path d="m79.828 48.439a15.361 15.361 0 0 0 1.646-6.905 15.373 15.373 0 0 0 -15.374-15.373h-4.2a15.373 15.373 0 0 0 -15.374 15.373 15.361 15.361 0 0 0 1.646 6.905z" fill="#ef5350"/><path d="m98.181 27.261a15.314 15.314 0 0 1 5.708-1.1h4.2a15.314 15.314 0 0 1 5.708 1.1 12.184 12.184 0 0 0 5.244-10.02 12.16 12.16 0 0 0 -8.706 3.656 16.616 16.616 0 0 0 -4.348-7.589 16.614 16.614 0 0 0 -4.347 7.589 12.16 12.16 0 0 0 -8.706-3.656 12.184 12.184 0 0 0 5.247 10.02z" fill="#a2d962"/><path d="m121.819 48.439a15.374 15.374 0 0 0 1.646-6.905 15.373 15.373 0 0 0 -15.373-15.373h-4.2a15.373 15.373 0 0 0 -15.376 15.373 15.374 15.374 0 0 0 1.646 6.905z" fill="#ef5350"/><path d="m29.819 27.261a15.314 15.314 0 0 0 -5.708-1.1h-4.2a15.314 15.314 0 0 0 -5.708 1.1 12.184 12.184 0 0 1 -5.244-10.02 12.16 12.16 0 0 1 8.703 3.659 16.614 16.614 0 0 1 4.347-7.589 16.616 16.616 0 0 1 4.348 7.589 12.16 12.16 0 0 1 8.706-3.656 12.184 12.184 0 0 1 -5.244 10.017z" fill="#a2d962"/><path d="m6.181 48.439a15.374 15.374 0 0 1 -1.646-6.905 15.373 15.373 0 0 1 15.373-15.373h4.2a15.373 15.373 0 0 1 15.376 15.373 15.374 15.374 0 0 1 -1.646 6.905z" fill="#ef5350"/><g fill="#e53935"><g><path d="m60.766 36.465a1.749 1.749 0 0 1 -1.75-1.75v-2.315a1.75 1.75 0 0 1 3.5 0v2.313a1.75 1.75 0 0 1 -1.75 1.752z"/><path d="m67.234 36.465a1.75 1.75 0 0 1 -1.75-1.75v-2.315a1.75 1.75 0 0 1 3.5 0v2.313a1.749 1.749 0 0 1 -1.75 1.752z"/></g><path d="m55.529 44.673a1.75 1.75 0 0 1 -1.75-1.75v-2.313a1.75 1.75 0 0 1 3.5 0v2.313a1.749 1.749 0 0 1 -1.75 1.75z"/><path d="m64 44.673a1.75 1.75 0 0 1 -1.75-1.75v-2.313a1.75 1.75 0 0 1 3.5 0v2.313a1.75 1.75 0 0 1 -1.75 1.75z"/><path d="m72.471 44.673a1.749 1.749 0 0 1 -1.75-1.75v-2.313a1.75 1.75 0 0 1 3.5 0v2.313a1.75 1.75 0 0 1 -1.75 1.75z"/><g><path d="m102.756 36.465a1.749 1.749 0 0 1 -1.75-1.75v-2.315a1.75 1.75 0 0 1 3.5 0v2.313a1.749 1.749 0 0 1 -1.75 1.752z"/><path d="m109.225 36.465a1.749 1.749 0 0 1 -1.75-1.75v-2.315a1.75 1.75 0 0 1 3.5 0v2.313a1.75 1.75 0 0 1 -1.75 1.752z"/></g><path d="m97.519 44.673a1.75 1.75 0 0 1 -1.75-1.75v-2.313a1.75 1.75 0 0 1 3.5 0v2.313a1.749 1.749 0 0 1 -1.75 1.75z"/><path d="m105.99 44.673a1.749 1.749 0 0 1 -1.75-1.75v-2.313a1.75 1.75 0 0 1 3.5 0v2.313a1.749 1.749 0 0 1 -1.75 1.75z"/><path d="m114.461 44.673a1.749 1.749 0 0 1 -1.75-1.75v-2.313a1.75 1.75 0 0 1 3.5 0v2.313a1.749 1.749 0 0 1 -1.75 1.75z"/><g><path d="m25.244 36.465a1.75 1.75 0 0 1 -1.75-1.75v-2.315a1.75 1.75 0 0 1 3.5 0v2.313a1.75 1.75 0 0 1 -1.75 1.752z"/><path d="m18.775 36.465a1.75 1.75 0 0 1 -1.75-1.75v-2.315a1.75 1.75 0 0 1 3.5 0v2.313a1.75 1.75 0 0 1 -1.75 1.752z"/></g><path d="m30.48 44.673a1.75 1.75 0 0 1 -1.75-1.75v-2.313a1.75 1.75 0 1 1 3.5 0v2.313a1.75 1.75 0 0 1 -1.75 1.75z"/><path d="m22.009 44.673a1.75 1.75 0 0 1 -1.75-1.75v-2.313a1.75 1.75 0 0 1 3.5 0v2.313a1.749 1.749 0 0 1 -1.75 1.75z"/><path d="m13.539 44.673a1.75 1.75 0 0 1 -1.75-1.75v-2.313a1.75 1.75 0 0 1 3.5 0v2.313a1.75 1.75 0 0 1 -1.75 1.75z"/></g></g></svg>