<?xml version="1.0"?>
<svg xmlns="http://www.w3.org/2000/svg" width="512" height="512" viewBox="0 0 128 128"><g><path d="M84.375,61.625h0a4,4,0,0,0-5.616-.676L68,69.4V41a4,4,0,0,0-4-4h0a4,4,0,0,0-4,4V57.253l-8.3-4.537a4,4,0,0,0-5.429,1.589h0a4,4,0,0,0,1.59,5.429L60,66.371v59.876h8V79.57L83.7,67.241A4,4,0,0,0,84.375,61.625Z" fill="#479838"/><path d="M64,1.747S29.521,42.478,29.521,61.521A34.479,34.479,0,0,0,60,95.762V66.371L47.866,59.734a4,4,0,1,1,3.839-7.018L60,57.253V41a4,4,0,0,1,4-4h0a4,4,0,0,1,4,4V69.4l10.759-8.449a4,4,0,0,1,4.94,6.292L68,79.57V95.762A34.479,34.479,0,0,0,98.479,61.521C98.479,42.478,64,1.747,64,1.747Z" fill="#77bc4d"/></g></svg>
