<svg height="512" viewBox="0 0 128 128" width="512" xmlns="http://www.w3.org/2000/svg"><g><path d="m87.179 126.247h-46.359l-10.008-92.62h66.375z" fill="#c8ffff"/><path d="m30.812 33.627h22.938a22.938 22.938 0 1 0 -22.938 22.937 23.333 23.333 0 0 0 2.465-.133z" fill="#ffae4d"/><path d="m30.812 33.627h14.938a14.973 14.973 0 1 0 -13.333 14.848l-1.6-14.848z" fill="#ffe671"/><path d="m79.361 1.75-9.147 31.877h8.323l6.852-23.877h14.361v-8z" fill="#70efef"/><path d="m63.989 70.188c-5.64 0-5.64 4-11.279 4-4.165 0-5.258-2.181-7.816-3.321l4.9 45.38h28.406l4.9-45.388c-2.571 1.138-3.658 3.329-7.834 3.329-5.636 0-5.636-4-11.277-4z" fill="#ffe671"/><path d="m42.526 24.387a13.415 13.415 0 0 0 -2.474-2.474l-7.49 7.487v-10.6a13.851 13.851 0 0 0 -3.5 0v10.6l-7.489-7.489a13.5 13.5 0 0 0 -2.473 2.476l7.489 7.49h-10.6a13.728 13.728 0 0 0 0 3.5h10.6l-7.489 7.489a13.509 13.509 0 0 0 2.475 2.475l9.239-9.24.3.3-.3-2.774h14.936a14.865 14.865 0 0 0 -.112-1.75h-10.6z" fill="#ffae4d"/></g></svg>