<svg height="512" viewBox="0 0 128 128" width="512" xmlns="http://www.w3.org/2000/svg"><g><path d="m76.706 64h-25.412a6.794 6.794 0 0 1 -6.794-6.8 6.793 6.793 0 0 1 6.794-6.793h25.412a6.793 6.793 0 0 1 6.794 6.793 6.794 6.794 0 0 1 -6.794 6.8z" fill="#bc8871"/><path d="m39.82 126.266a5.712 5.712 0 0 1 -5.438-7.46l17.618-54.806h12l-18.742 58.3a5.712 5.712 0 0 1 -5.438 3.966z" fill="#ffe671"/><path d="m88.18 126.266a5.712 5.712 0 0 0 5.438-7.46l-17.618-54.806h-12l18.742 58.3a5.712 5.712 0 0 0 5.438 3.966z" fill="#ffe671"/><g fill="#edf1d3"><path d="m76 50.41h-12l20.016-48.676 1.846 4.619a39.952 39.952 0 0 1 -9.862 44.057z"/><path d="m52 50.41h12l-20.016-48.676-1.846 4.619a39.952 39.952 0 0 0 9.862 44.057z"/></g></g></svg>