<svg height="512" viewBox="0 0 128 128" width="512" xmlns="http://www.w3.org/2000/svg"><g><path d="m80.625 62.373h-.027c.016-.353.027-.707.027-1.064a23.815 23.815 0 0 0 -44.159-12.376 15.689 15.689 0 0 0 -24.466 13.003c0 .166.02.328.025.493a11.374 11.374 0 0 0 1.1 22.694h67.5a11.375 11.375 0 0 0 0-22.75z" fill="#c8ffff"/><g fill="#70efef"><path d="m70.625 63.06a1.749 1.749 0 0 1 -1.75-1.75 12.076 12.076 0 0 0 -12.063-12.062 1.75 1.75 0 0 1 0-3.5 15.58 15.58 0 0 1 15.563 15.562 1.749 1.749 0 0 1 -1.75 1.75z"/><path d="m114.844 38.9c.005-.184.027-.363.027-.548a17.428 17.428 0 0 0 -27.179-14.443 26.456 26.456 0 0 0 -49.056 13.75c0 .4.013.79.03 1.182h-.03a12.63 12.63 0 0 0 -11.508 7.437c.187-.006.371-.028.559-.028a15.619 15.619 0 0 1 8.779 2.685 23.815 23.815 0 0 1 44.159 12.376c0 .357-.011.711-.027 1.064h.027a11.309 11.309 0 0 1 6.024 1.739h26.973a12.635 12.635 0 0 0 1.222-25.214z"/><path d="m10.5 103.461a1.75 1.75 0 0 1 -1.237-2.987l7.125-7.125a1.749 1.749 0 1 1 2.474 2.474l-7.125 7.125a1.743 1.743 0 0 1 -1.237.513z"/><path d="m23.565 103.461a1.75 1.75 0 0 1 -1.237-2.987l7.125-7.125a1.75 1.75 0 0 1 2.475 2.474l-7.128 7.125a1.744 1.744 0 0 1 -1.235.513z"/><path d="m36.631 103.461a1.75 1.75 0 0 1 -1.237-2.987l7.125-7.125a1.749 1.749 0 0 1 2.474 2.474l-7.125 7.125a1.743 1.743 0 0 1 -1.237.513z"/><path d="m49.7 103.461a1.75 1.75 0 0 1 -1.237-2.987l7.125-7.125a1.75 1.75 0 0 1 2.475 2.474l-7.125 7.125a1.745 1.745 0 0 1 -1.238.513z"/><path d="m62.762 103.461a1.75 1.75 0 0 1 -1.238-2.987l7.125-7.125a1.75 1.75 0 0 1 2.475 2.474l-7.124 7.125a1.743 1.743 0 0 1 -1.238.513z"/><path d="m75.828 103.461a1.75 1.75 0 0 1 -1.237-2.987l7.125-7.125a1.749 1.749 0 1 1 2.474 2.474l-7.125 7.125a1.741 1.741 0 0 1 -1.237.513z"/><path d="m88.894 103.461a1.75 1.75 0 0 1 -1.238-2.987l7.125-7.125a1.75 1.75 0 0 1 2.475 2.474l-7.125 7.125a1.743 1.743 0 0 1 -1.237.513z"/><path d="m101.959 103.461a1.75 1.75 0 0 1 -1.237-2.987l7.125-7.125a1.749 1.749 0 1 1 2.474 2.474l-7.125 7.125a1.743 1.743 0 0 1 -1.237.513z"/><path d="m20.508 118.544a1.75 1.75 0 0 1 -1.238-2.987l7.125-7.125a1.75 1.75 0 1 1 2.475 2.475l-7.125 7.125a1.746 1.746 0 0 1 -1.237.512z"/><path d="m33.573 118.544a1.75 1.75 0 0 1 -1.237-2.987l7.125-7.125a1.75 1.75 0 0 1 2.474 2.475l-7.125 7.125a1.744 1.744 0 0 1 -1.237.512z"/><path d="m46.639 118.544a1.75 1.75 0 0 1 -1.238-2.987l7.125-7.125a1.75 1.75 0 0 1 2.474 2.475l-7.125 7.125a1.746 1.746 0 0 1 -1.236.512z"/><path d="m59.705 118.544a1.75 1.75 0 0 1 -1.237-2.987l7.125-7.125a1.75 1.75 0 0 1 2.474 2.475l-7.125 7.125a1.744 1.744 0 0 1 -1.237.512z"/><path d="m72.77 118.544a1.75 1.75 0 0 1 -1.237-2.987l7.125-7.125a1.75 1.75 0 0 1 2.475 2.475l-7.125 7.125a1.747 1.747 0 0 1 -1.238.512z"/><path d="m85.836 118.544a1.75 1.75 0 0 1 -1.237-2.987l7.125-7.125a1.75 1.75 0 0 1 2.474 2.475l-7.125 7.125a1.746 1.746 0 0 1 -1.237.512z"/><path d="m98.9 118.544a1.75 1.75 0 0 1 -1.237-2.987l7.125-7.125a1.75 1.75 0 0 1 2.475 2.475l-7.125 7.125a1.747 1.747 0 0 1 -1.238.512z"/><path d="m111.967 118.544a1.75 1.75 0 0 1 -1.238-2.987l7.125-7.125a1.75 1.75 0 0 1 2.475 2.475l-7.125 7.125a1.746 1.746 0 0 1 -1.237.512z"/></g></g></svg>