<svg height="512" viewBox="0 0 128 128" width="512" xmlns="http://www.w3.org/2000/svg"><g><path d="m45.236 86.082a5.714 5.714 0 0 1 .358-4.075c1.223-2.443 1.648-5.387.19-6.845s-4.4-1.033-6.845.19a5.714 5.714 0 0 1 -4.075.358c-7.434-2.068-17.021.854-24.314 8.146-9.739 9.744-11.692 23.575-4.364 30.904s21.165 5.375 30.9-4.364c7.297-7.296 10.214-16.88 8.15-24.314z" fill="#edf1d3"/><path d="m13.258 109.439a1.745 1.745 0 0 1 -1.238-.513c-1.9-1.9-2.5-5.119-1.651-8.838a22.056 22.056 0 0 1 6.015-10.4 1.75 1.75 0 0 1 2.474 2.475 18.529 18.529 0 0 0 -5.077 8.7c-.558 2.446-.285 4.585.714 5.584a1.751 1.751 0 0 1 -1.237 2.988z" fill="#d0daad"/><path d="m54.476 13.805a5.709 5.709 0 0 1 -2.628-3.134c-.863-2.593-2.648-4.971-4.707-4.971s-3.841 2.378-4.706 4.971a5.709 5.709 0 0 1 -2.628 3.134c-6.719 3.8-11.432 12.64-11.432 22.953 0 13.773 8.4 24.938 18.766 24.938s18.767-11.165 18.767-24.938c0-10.313-4.708-19.158-11.432-22.953z" fill="#edf1d3"/><path d="m47.142 53.445c-5.6 0-10.517-7.8-10.517-16.687a1.75 1.75 0 0 1 3.5 0c0 7.927 4.223 13.187 7.017 13.187a1.75 1.75 0 0 1 0 3.5z" fill="#d0daad"/><path d="m83.738 66.476a7.333 7.333 0 0 1 -5.232-.46c-3.137-1.57-6.916-2.116-8.788-.244s-1.326 5.652.244 8.788a7.327 7.327 0 0 1 .459 5.232c-2.654 9.544 1.1 21.852 10.459 31.214 12.5 12.5 30.265 15.011 39.674 5.6s6.9-27.172-5.6-39.675c-9.364-9.359-21.672-13.11-31.216-10.455z" fill="#edf1d3"/><path d="m105.785 114.055c-6.381 0-13.511-3.322-19.072-8.882a1.75 1.75 0 1 1 2.474-2.475c4.92 4.919 11.124 7.856 16.6 7.857a9.087 9.087 0 0 0 6.463-2.254 1.75 1.75 0 0 1 2.475 2.474 12.476 12.476 0 0 1 -8.94 3.28z" fill="#d0daad"/></g></svg>