<svg height="512" viewBox="0 0 128 128" width="512" xmlns="http://www.w3.org/2000/svg"><g><path d="m92.751 1.75-11.951 11.95a13.3 13.3 0 0 0 0 18.806l14.692 14.694a13.3 13.3 0 0 0 18.806 0l11.952-11.952zm15.278 39.182a4.439 4.439 0 0 1 -6.269 0l-14.692-14.693a4.437 4.437 0 0 1 0-6.268l5.683-5.684 20.962 20.961z" fill="#ffe671"/><path d="m36.5 91.8-.3-.3a5.186 5.186 0 0 1 0-7.335l48.126-48.131 7.64 7.64-48.129 48.126a5.186 5.186 0 0 1 -7.337 0z" fill="#bc8871"/><path d="m51.14 84.5-7.154 7.154a5.4 5.4 0 0 1 -7.633 0l-.007-.007a5.4 5.4 0 0 1 0-7.633l7.154-7.154-15.476-15.476-13.454 13.454a43.766 43.766 0 0 0 -9.37 47.962 43.768 43.768 0 0 0 47.966-9.375l13.45-13.449z" fill="#edf1d3"/><path d="m13.9 115.849a1.751 1.751 0 0 1 -1.691-1.3 34.291 34.291 0 0 1 .256-18.514 1.75 1.75 0 0 1 3.357.992 30.788 30.788 0 0 0 -.23 16.625 1.752 1.752 0 0 1 -1.692 2.2z" fill="#d0daad"/></g></svg>