<?xml version="1.0"?>
<svg xmlns="http://www.w3.org/2000/svg" width="512" height="512" viewBox="0 0 128 128"><g><path d="M22.029,1.753V16.018A11.223,11.223,0,0,0,33.252,27.241H50.788A11.223,11.223,0,0,0,62.011,16.018V1.753Zm32.5,14.265a3.744,3.744,0,0,1-3.741,3.741H33.252a3.744,3.744,0,0,1-3.741-3.741V9.235H54.529Z" fill="#ffe671"/><path d="M42.2,89.063h-.364a4.377,4.377,0,0,1-4.377-4.377V27.241h9.118V84.686A4.377,4.377,0,0,1,42.2,89.063Z" fill="#bc8871"/><path d="M46.579,75.969v8.539a4.554,4.554,0,0,1-4.554,4.555h-.01a4.554,4.554,0,0,1-4.554-4.555V75.969H18.989V92.027a36.938,36.938,0,0,0,23.031,34.22h0a36.938,36.938,0,0,0,23.031-34.22V75.969Z" fill="#edf1d3"/><path d="M42.019,117.606a1.737,1.737,0,0,1-.877-.237,29.212,29.212,0,0,1-11-11.308,1.749,1.749,0,1,1,3.074-1.671,25.719,25.719,0,0,0,9.682,9.953,1.75,1.75,0,0,1-.88,3.263Z" fill="#d0daad"/><path d="M109.011,126.247v-12.81a10.078,10.078,0,0,0-10.078-10.078H83.186a10.078,10.078,0,0,0-10.078,10.078v12.81Zm-29.184-12.81a3.362,3.362,0,0,1,3.359-3.359H98.933a3.362,3.362,0,0,1,3.359,3.359v6.092H79.827Z" fill="#ffe671"/><path d="M90.9,29.746h.328a3.93,3.93,0,0,1,3.93,3.93v69.683H86.965V33.676A3.931,3.931,0,0,1,90.9,29.746Z" fill="#bc8871"/><path d="M82.9,41.306l4.069,2.1V33.676a3.931,3.931,0,0,1,3.93-3.93h.328a3.93,3.93,0,0,1,3.93,3.93v9.732l4.07-2.1a17.061,17.061,0,0,0,9.229-15.156V4.585a2.789,2.789,0,0,0-2.429-2.82,2.692,2.692,0,0,0-2.943,2.447L102.3,20.563a3.943,3.943,0,0,1-3.938,3.754h0a3.942,3.942,0,0,1-3.942-3.88L94.164,4.366a2.691,2.691,0,0,0-2.69-2.613h-.829a2.691,2.691,0,0,0-2.69,2.613L87.7,20.437a3.943,3.943,0,0,1-3.942,3.88h0a3.943,3.943,0,0,1-3.938-3.755L79.049,4.324A2.772,2.772,0,0,0,76.8,1.789a2.692,2.692,0,0,0-3.136,2.655V26.15A17.059,17.059,0,0,0,82.9,41.306Z" fill="#edf1d3"/></g></svg>
