<svg height="512" viewBox="0 0 128 128" width="512" xmlns="http://www.w3.org/2000/svg"><g><rect fill="#bc8871" height="7.473" rx="3.56" width="58.6" x="37.783" y="35.138"/><path d="m83.977 92.862h-33.789a10.56 10.56 0 0 1 -10.424-12.246l6.148-38.005h42.341l6.147 38.005a10.56 10.56 0 0 1 -10.423 12.246z" fill="#edf1d3"/><path d="m7.852 43.79-6.102 11.245 9.978 1.829 4.599-8.475z" fill="#edf1d3"/><path d="m42.665 62.682-26.338-14.293-4.599 8.475 28.671 19.825z" fill="#d0daad"/><path d="m111.98 47.542h-22.929l1.358 8.4h21.571a5.874 5.874 0 0 1 2.214 11.314l-20.594 8.378.806 4.982a10.51 10.51 0 0 1 -.083 3.788l23.04-9.375a14.27 14.27 0 0 0 -5.379-27.487z" fill="#d0daad"/><path d="m60.3 71.58c0-3.747 6.785-14.472 6.785-14.472s6.785 10.725 6.785 14.472a6.785 6.785 0 1 1 -13.57 0z" fill="#70efef"/></g></svg>