<svg height="512" viewBox="0 0 128 128" width="512" xmlns="http://www.w3.org/2000/svg"><g><circle cx="14.281" cy="97.112" fill="#70efef" r="12.531" transform="matrix(.23 -.973 .973 .23 -83.514 88.699)"/><path d="m85.086 74.721 9.422-33.828h-92.758l40.734 44.815z" fill="#d0daad"/><path d="m125.432 18.232-26.132 5.458-14.214 51.031-60.311 15.554a12.455 12.455 0 0 1 2.038 6.837c0 .307-.025.609-.047.911l32.644-8.423 5.99 13.581a11.038 11.038 0 0 0 20.75-1.546l12.05-44.187 7.5-26.922 21.368-4.464zm-47 81.3a3.039 3.039 0 0 1 -5.712.425l-5.46-12.377 15.519-4z" fill="#edf1d3"/><path d="m85.649 38.5a11.292 11.292 0 0 0 -21.579-4.66 8.859 8.859 0 0 0 -9.057-1.076 14.98 14.98 0 0 0 -28.108.222 8.9 8.9 0 0 0 -13 7.905h71.485a11.344 11.344 0 0 0 .259-2.391z" fill="#6d4c41"/></g></svg>