<svg id="Layer_1" enable-background="new 0 0 512 512" height="512" viewBox="0 0 512 512" width="512" xmlns="http://www.w3.org/2000/svg"><path d="m495 256.017c-28.984.358-29.344 15.983-59 15.983-30.01 0-30.01-16-60.01-16s-30 16-60 16-30-16-60-16-30 16-59.99 16c-30 0-30-16-60-16s-30 16-60 16c-29.656 0-30.016-15.625-59-15.983 0-.1.373-.017-17-.017v256h512v-256c-17.357 0-17-.083-17 .017z" fill="#8dffff"/><path d="m424 128v248l-96 48-43.861-6.266c-7.162-1.023-14.119 2.887-16.969 9.536l-11.415 26.635c-3.999 9.331-15.565 12.627-23.882 6.805l-136.274-95.391c-4.699-3.29-7.278-8.843-6.759-14.556.01-.118 9.791-107.669 23.16-254.763l48.614 54.691c7.435 8.364 20.939 6.707 26.132-3.206l77.254-147.485 104 8 16 96z" fill="#f9f9f9"/><path d="m424 137.059v133.911c-18.73-3.54-22.65-14.97-48.01-14.97-30 0-30 16-60 16s-30-16-60-16c-13.62 0-21.06 3.3-27.92 6.9l3.356-53.706c.356-5.691 3.713-10.763 8.813-13.313l32.883-16.441c4.347-2.174 7.471-6.206 8.489-10.958l21.031-98.144c.871-4.064.126-8.308-2.077-11.832l-36.565-58.506 91.505 7.039c7.338.564 13.345 6.063 14.555 13.322l12.725 76.351c.771 4.624 3.531 8.678 7.55 11.09l25.896 15.538c4.82 2.891 7.769 8.099 7.769 13.719z" fill="#f2f2f2"/><path d="m225.61 73.28-38.864 74.204c-5.192 9.914-18.697 11.571-26.132 3.206l-48.614-54.69z" fill="#ece2e2"/><path d="m424 270.97v105.03l-96 48-56-8-16.245 37.906c-3.999 9.331-15.565 12.627-23.882 6.805l-136.274-95.392c-4.699-3.29-7.278-8.843-6.759-14.556.297-3.269 6.981-76.82 7.47-82.133 12.32-4.7 18.57-12.63 39.69-12.63 30 0 30 16 60 16 29.99 0 29.99-16 59.99-16s30 16 60 16 30-16 60-16c25.36 0 29.28 11.43 48.01 14.97z" fill="#74f7f9"/><path d="m424 272v94.111c0 6.06-3.424 11.601-8.845 14.311l-82.685 41.342c-2.911 1.455-6.196 1.989-9.418 1.528l-38.913-5.559c-7.162-1.023-14.119 2.887-16.969 9.536l-11.415 26.635c-3.999 9.331-15.565 12.627-23.882 6.805l-136.274-95.39c-4.699-3.29-7.278-8.843-6.759-14.556l7.16-78.763c41.06 65.696 38.801 63.237 43.057 65.946l73.519 46.785c6.594 4.196 15.254 3.014 20.483-2.795l57.446-63.829c3.449-3.833 8.535-5.768 13.66-5.199l63.835 7.092-56.063 14.016c-4.984 1.246-9.067 4.81-10.975 9.58l-5.818 14.545c-3.715 9.288 1.908 19.67 11.718 21.632 16.117 3.223 19.853 4.871 26.049 1.773l53.649-26.824c3.505-1.752 6.245-4.73 7.7-8.369z" fill="#68eaea"/></svg>