<svg id="Layer_1" enable-background="new 0 0 512.008 512.008" height="512" viewBox="0 0 512.008 512.008" width="512" xmlns="http://www.w3.org/2000/svg"><path d="m463.232 383.859c-8.606-.405-15.227-7.818-15.227-16.434v-55.097c0-8.616 6.621-16.029 15.227-16.434 9.188-.432 16.773 6.889 16.773 15.982v56c-.001 9.094-7.585 16.415-16.773 15.983z" fill="#b2b2b2"/><path d="m47.23 503.859c-8.606-.405-15.226-7.818-15.226-16.434v-175.096c0-8.615 6.621-16.028 15.226-16.434 9.188-.433 16.774 6.889 16.774 15.982v176c0 9.093-7.586 16.415-16.774 15.982z" fill="#b2b2b2"/><path d="m512.004 34.144v213.333h-512v-213.333c0-18.851 15.282-34.133 34.133-34.133h443.733c18.852 0 34.134 15.282 34.134 34.133z" fill="#6994ff"/><path d="m512.004 34.144v170.667h-384c-47.128 0-85.333-38.205-85.333-85.333v-119.467h435.2c18.851 0 34.133 15.282 34.133 34.133z" fill="#80aaff"/><path d="m324.274 92.807v154.67h-136.54v-154.67c0-8.837 7.163-16 16-16h104.54c8.837 0 16 7.164 16 16z" fill="#74f7f9"/><path d="m324.274 92.807v124.67h-74.54c-17.673 0-32-14.327-32-32v-108.67h90.54c8.837 0 16 7.164 16 16z" fill="#8dffff"/><path d="m512.004 76.807v85.34h-103.47c-8.83 0-16-7.17-16-16v-53.34c0-8.83 7.17-16 16-16z" fill="#74f7f9"/><path d="m512.004 76.807v55.34h-57.47c-17.673 0-32-14.327-32-32v-23.34z" fill="#8dffff"/><path d="m119.474 92.807v53.34c0 8.83-7.17 16-16 16h-103.47v-85.34h103.47c8.83 0 16 7.17 16 16z" fill="#74f7f9"/><path d="m119.474 92.807v43.34h-63.47c-17.673 0-32-14.327-32-32v-27.34h79.47c8.837 0 16 7.164 16 16z" fill="#8dffff"/><path d="m467.982 315.744h-423.956c-6.06 0-11.601-3.424-14.311-8.845l-29.711-59.422h512l-29.711 59.422c-2.71 5.421-8.25 8.845-14.311 8.845z" fill="#4379ff"/><path d="m15.996 511.881c-6.977 0-13.39-4.598-15.386-11.642-2.409-8.502 2.531-17.347 11.032-19.756l480-136c8.499-2.41 17.347 2.531 19.755 11.032 2.409 8.502-2.53 17.347-11.032 19.756-514.662 145.822-480.922 136.61-484.369 136.61z" fill="#a07765"/></svg>