<svg id="Layer_1" enable-background="new 0 0 512.003 512.003" height="512" viewBox="0 0 512.003 512.003" width="512" xmlns="http://www.w3.org/2000/svg"><path d="m400.231 373.723c-42.614 25.569-42.276 26.28-48.23 26.28-8.745 0-16-7.09-16-16v-32.2c-4.45-2.45-9.67-3.17-14.71-1.95l-32.01 20.8 3.86 3.87c23.093 23.094 32.362 55.389 26.18 86.45-3.361 16.959 19.217 26.375 28.84 11.94l6.53-9.79c4.9-7.35 14.84-9.33 22.19-4.43s9.33 14.84 4.43 22.19l-6.53 9.79c-8.9 13.35-23.81 21.33-39.86 21.33-30.101 0-52.989-27.611-46.97-57.33 4.107-20.735-2.106-42.193-17.43-57.53l-4.53-4.52c-21.758-21.785-60.859 3.782-58.77 39.68 2.362 4.624 3.528 6.229 14.28 23.11 4.02 6.33 3.12 14.6-2.19 19.9l-32 32c-3.12 3.13-7.22 4.69-11.31 4.69-14.117 0-21.419-17.217-11.31-27.31l22.92-22.93c-1.218-1.913-8.288-12.735-10.39-17.99-20.045-42.614-11.995-91.359 17.42-124.99-28.135-39.212-36.808-90.276-21.52-137.68l-39.36-32.81c-2.81-2.34-4.73-5.57-5.45-9.15l-24-120c-1.73-8.67 3.89-17.1 12.55-18.83 8.67-1.73 17.1 3.89 18.83 12.55l22.89 114.46 21.2 17.67c-2.424-6.508-3.78-14.727-3.78-16.99v-72c0-13.175 15.08-20.695 25.6-12.8l27.73 20.8h13.34l27.73-20.8c10.488-7.871 25.6-.418 25.6 12.8 0 78.385.247 73.321-.58 76.28-1.68 12.21-7.09 23.54-15.48 32.56l40.06-22.25v-86.59c0-8.84 7.16-16 16-16s16 7.16 16 16v96c0 5.81-3.15 11.16-8.23 13.99l-65.04 36.13c-2.91 25.15.58 50.55 10.2 74.04l8.06-2.69c35.164-11.71 71.01 14.641 71.01 51.18v31.09l15.77-9.46c7.58-4.55 17.4-2.09 21.95 5.49s2.09 17.4-5.49 21.95z" fill="#ffaa64"/><path d="m296.001 56.003c0 78.385.247 73.321-.58 76.28-4.034 29.237-29.105 51.72-59.42 51.72-30.34 0-55.389-22.508-59.42-51.72-.827-2.959-.58 2.036-.58-76.28 0-13.175 15.08-20.695 25.6-12.8l27.73 20.8h13.34l27.73-20.8c10.487-7.871 25.6-.418 25.6 12.8z" fill="#ffbd7b"/><path d="m381.311 480.883-6.53 9.79c-8.9 13.35-23.81 21.33-39.86 21.33-30.101 0-52.989-27.611-46.97-57.33 4.107-20.735-2.106-42.193-17.43-57.53l-4.53-4.52c-21.758-21.785-60.859 3.782-58.77 39.68 2.362 4.624 3.528 6.229 14.28 23.11 4.02 6.33 3.12 14.6-2.19 19.9l-32 32c-3.12 3.13-7.22 4.69-11.31 4.69-14.117 0-21.419-17.217-11.31-27.31l22.92-22.93c-1.218-1.913-8.288-12.735-10.39-17.99-9.381-19.943-12.833-41.74-10.19-63.22 5.76 8.32 15.77 12.05 32.97 3.45 47.92-23.96 135.7-71.84 136-32.2-4.45-2.45-9.67-3.17-14.71-1.95l-32.01 20.8 3.86 3.87c23.093 23.094 32.362 55.389 26.18 86.45-3.361 16.959 19.217 26.375 28.84 11.94l6.53-9.79c4.9-7.35 14.84-9.33 22.19-4.43s9.33 14.84 4.43 22.19z" fill="#f2a661"/></svg>