<svg id="Layer_1" enable-background="new 0 0 512.044 512.044" height="512" viewBox="0 0 512.044 512.044" width="512" xmlns="http://www.w3.org/2000/svg"><path d="m16.026 512.028c-14.119 0-21.431-17.196-11.314-27.314l320-320c6.248-6.248 16.379-6.248 22.627 0 5.908 5.907 6.727 15.909-.38 23.007l-319.619 319.621c-3.125 3.124-7.219 4.686-11.314 4.686z" fill="#999"/><path d="m49.926 320.028c-27.515 0-49.9-22.385-49.9-49.9v-222.1c0-7.896 5.76-14.611 13.563-15.813 7.805-1.205 15.317 3.468 17.694 10.998 1.94 6.145.742 5.563.742 13.088 2.712 1.953 4.838 4.77 5.912 8.206l59.61 190.74c10.088 32.143-14.019 64.781-47.621 64.781zm-17.9-167.161v117.261c0 9.87 8.03 17.9 17.9 17.9 11.935 0 20.749-11.537 17.084-23.22z" fill="#ece2e2"/><path d="m462.126 320.028c-33.381 0-57.779-32.42-47.615-64.802l59.604-190.721c1.073-3.435 3.199-6.251 5.911-8.204 0-6.18-.36-4.294-.36-7.123 0-10.229 8.517-18.552 18.8-16.963 7.803 1.204 13.561 7.918 13.561 15.813v222.1c-.001 27.516-22.386 49.9-49.901 49.9zm17.9-167.16c-38.216 122.282-35.82 113.468-35.82 117.321 0 9.837 8.039 17.84 17.92 17.84 9.87 0 17.9-8.03 17.9-17.9z" fill="#ece2e2"/><path d="m183.176 136.449c-29.104 30.06-18.292 19.052-47.25 48.01-.601-.602-125.522-126.529-126.06-127.071-6.843-6.79-10.259-16.583-9.83-24.3.466-29.922 36.832-43.947 57.57-23.21 113.966 114.868 88.754 89.455 125.57 126.571z" fill="#6994ff"/><path d="m154.906 107.949c-14.93 14.984-39.351 14.779-54.002-.64-76.412-80.418-70.6-74.106-72.438-76.69-6.224-8.667-7.753-19.472-4.92-29.05 11.606-3.652 24.896-.854 34.06 8.31z" fill="#80aaff"/><path d="m376.506 184.079c137.958-139.068 126.971-127.705 129.23-130.88 15.733-21.908.238-53.23-27.39-53.17-9.257 0-17.721 3.671-23.9 9.85l-125.57 126.57c4.069 4.202 46.684 48.576 47.63 47.63z" fill="#6994ff"/><path d="m355.646 108.868c14.93 14.984 39.351 14.779 54.002-.64 76.412-80.418 70.6-74.106 72.438-76.69 6.224-8.667 7.753-19.472 4.92-29.05-11.606-3.652-24.896-.854-34.06 8.31z" fill="#80aaff"/><path d="m496.026 512.028c-4.095 0-8.189-1.562-11.313-4.686l-320-320c-6.248-6.249-6.248-16.379 0-22.628 6.249-6.248 16.379-6.248 22.628 0 .651.652 319.342 319.342 320 320 10.108 10.109 2.811 27.314-11.315 27.314z" fill="#aaa"/><path d="m432.026 488.028c-14.127 0-21.422-17.206-11.313-27.314l40-40c6.248-6.248 16.379-6.248 22.627 0 6.249 6.249 6.249 16.379 0 22.628l-40 40c-3.125 3.124-7.219 4.686-11.314 4.686z" fill="#b2b2b2"/><path d="m80.026 488.028c-4.095 0-8.189-1.562-11.314-4.686l-40-40c-6.248-6.249-6.248-16.379 0-22.628 6.249-6.248 16.379-6.248 22.628 0l40 40c10.111 10.112 2.811 27.314-11.314 27.314z" fill="#aaa"/><g fill="#4379ff"><path d="m136.026 216.028c-14.126 0-21.421-17.206-11.313-27.313l64-64c6.248-6.249 16.379-6.249 22.627 0 6.249 6.248 6.249 16.379 0 22.627l-64 64c-3.125 3.124-7.219 4.686-11.314 4.686z"/><path d="m376.026 216.028c-4.095 0-8.189-1.562-11.313-4.687l-64-64c-6.249-6.248-6.249-16.379 0-22.627 6.248-6.249 16.379-6.249 22.627 0l64 64c10.109 10.109 2.811 27.314-11.314 27.314z"/></g></svg>