<svg id="Layer_1" enable-background="new 0 0 512 512" height="512" viewBox="0 0 512 512" width="512" xmlns="http://www.w3.org/2000/svg"><path d="m447.933 464h-16c-8.837 0-16-7.164-16-16s7.163-16 16-16h16c17.645 0 32-14.355 32-32s-14.355-32-32-32h-16c-8.837 0-16-7.164-16-16s7.163-16 16-16h16c35.29 0 64 28.71 64 64s-28.71 64-64 64z" fill="#f2f2f2"/><path d="m256.067 409.6h-256v68.267c0 18.848 15.285 34.133 34.133 34.133h221.867c6.219 0 12.043-1.664 17.067-4.565" fill="#4379ff"/><path d="m285.176 324.267c-12.723 37.302-6.422 18.833-29.109 85.333h-256l16.128-258.133c1.13-17.984 16.042-32 34.069-32h190.688c18.069 0 33.013 14.091 34.069 32.128z" fill="#6994ff"/><path d="m285.176 324.267-10.187 29.867h-146.789c-39.378 0-70.59-33.224-68.134-72.525l10.134-162.142h170.752c18.069 0 33.013 14.091 34.069 32.128z" fill="#80aaff"/><path d="m239 119.467h-187.733v-52.267c0-8.837 7.163-16 16-16h155.733c8.837 0 16 7.163 16 16z" fill="#ece2e2"/><path d="m187.8 51.2h-85.333v-35.2c0-8.837 7.163-16 16-16h53.333c8.837 0 16 7.163 16 16z" fill="#ffdfba"/><path d="m443.8 340.267v137.6c0 18.851-15.282 34.133-34.133 34.133h-119.467c-18.851 0-34.133-15.282-34.133-34.133v-137.6c0-8.837 7.163-16 16-16h155.733c8.837 0 16 7.163 16 16z" fill="#f2f2f2"/><path d="m443.8 340.267v120.533h-102.4c-18.851 0-34.133-15.282-34.133-34.133v-102.4h120.533c8.837 0 16 7.163 16 16z" fill="#f9f9f9"/><g fill="#ece2e2"><path d="m323.753 252.344c6.816 5.621 16.9 4.656 22.523-2.163 5.623-6.817 4.655-16.901-2.162-22.524-2.329-1.921-2.253-2.551-2.137-3.504 1.59-13.028 32.847-44.976 3.441-75.292-6.151-6.342-16.282-6.497-22.625-.345s-6.498 16.282-.346 22.625c5.271 5.434 4.832 8.862-3.134 24.451-3.933 7.696-7.999 15.654-9.101 24.687-1.514 12.42 3.168 23.509 13.541 32.065z"/><path d="m379.753 284.344c6.816 5.621 16.9 4.656 22.523-2.163 5.623-6.817 4.655-16.901-2.162-22.524-2.329-1.921-2.253-2.551-2.137-3.504 1.59-13.028 32.847-44.976 3.441-75.292-6.152-6.342-16.283-6.497-22.625-.345-6.343 6.152-6.498 16.282-.346 22.625 5.271 5.434 4.832 8.862-3.134 24.451-3.933 7.696-7.999 15.654-9.101 24.687-1.514 12.42 3.168 23.509 13.541 32.065z"/></g></svg>