<svg id="Layer_1" enable-background="new 0 0 512.002 512.002" height="512" viewBox="0 0 512.002 512.002" width="512" xmlns="http://www.w3.org/2000/svg"><g fill="#b2b2b2"><path d="m153.72 85.336h-25.619c-9.433 0-17.079-7.641-17.079-17.067s7.647-17.067 17.079-17.067h25.619c9.433 0 17.079 7.641 17.079 17.067s-7.646 17.067-17.079 17.067z"/><path d="m153.72 153.602h-25.619c-9.433 0-17.079-7.641-17.079-17.067s7.647-17.067 17.079-17.067h25.619c9.433 0 17.079 7.641 17.079 17.067s-7.646 17.067-17.079 17.067z"/><path d="m153.72 230.402h-25.619c-9.433 0-17.079-7.641-17.079-17.067s7.647-17.067 17.079-17.067h25.619c9.433 0 17.079 7.641 17.079 17.067s-7.646 17.067-17.079 17.067z"/><path d="m153.72 298.669h-25.619c-9.433 0-17.079-7.641-17.079-17.067s7.647-17.067 17.079-17.067h25.619c9.433 0 17.079 7.641 17.079 17.067s-7.646 17.067-17.079 17.067z"/><path d="m153.72 366.935h-25.619c-9.433 0-17.079-7.641-17.079-17.067s7.647-17.067 17.079-17.067h25.619c9.433 0 17.079 7.641 17.079 17.067s-7.646 17.067-17.079 17.067z"/></g><ellipse cx="354.403" cy="256.002" fill="#8dffff" rx="132.365" ry="132.266"/><ellipse cx="354.403" cy="256.002" fill="#74f7f9" rx="85.397" ry="85.333"/><ellipse cx="354.403" cy="256.002" fill="#68eaea" rx="34.159" ry="34.133"/><path d="m153.72 435.202c0 42.289-34.229 76.627-76.516 76.8-41.737.181-76.344-33.526-77.188-75.222-.459-23.371 9.522-44.416 25.608-58.805v-326.773c.001-30.367 26.296-54.062 56.576-50.922 25.79 2.667 45.901 24.448 45.901 50.923v326.773c15.724 14.058 25.619 34.485 25.619 57.226z" fill="#ece2e2"/><path d="m125.358 494.785c-43.113 2.862-80.696-31.586-81.575-75.072-.459-23.371 9.522-44.416 25.608-58.805v-326.772c0-12.981 4.836-24.832 12.81-33.856 25.79 2.667 45.901 24.448 45.901 50.923v326.773c35.261 31.527 33.911 86.984-2.744 116.809z" fill="#f9f9f9"/><path d="m93.942 405.661v-183.792c0-9.426-7.647-17.067-17.079-17.067s-17.079 7.641-17.079 17.067v183.792c-10.2 5.911-17.079 16.935-17.079 29.541 0 18.821 15.323 34.133 34.159 34.133s34.159-15.312 34.159-34.133c-.001-12.607-6.881-23.63-17.081-29.541z" fill="#ea8692"/><path d="m354.403 238.935c-9.433 0-17.079-7.641-17.079-17.067v-128c0-9.426 7.646-17.067 17.079-17.067s17.079 7.641 17.079 17.067v128c0 9.427-7.646 17.067-17.079 17.067z" fill="#4379ff"/><path d="m342.326 182.736-42.698-42.667c-6.671-6.665-6.671-17.471 0-24.135 6.67-6.665 17.484-6.665 24.153 0l30.622 30.599 30.622-30.599c6.67-6.665 17.484-6.665 24.153 0 6.671 6.665 6.671 17.471 0 24.135l-42.698 42.667c-6.671 6.666-17.484 6.665-24.154 0z" fill="#80aaff"/><path d="m354.403 435.202c-9.433 0-17.079-7.641-17.079-17.067v-128c0-9.426 7.646-17.067 17.079-17.067s17.079 7.641 17.079 17.067v128c0 9.426-7.646 17.067-17.079 17.067z" fill="#4379ff"/><path d="m397.101 401.068c-4.371 0-8.742-1.667-12.077-4.999l-30.622-30.599-30.622 30.599c-6.67 6.665-17.484 6.665-24.153 0-6.671-6.665-6.671-17.471 0-24.135l42.698-42.667c6.67-6.665 17.484-6.665 24.153 0l42.698 42.667c10.799 10.787 2.998 29.134-12.075 29.134z" fill="#80aaff"/><path d="m324.805 256.005c-6.425 0 .92 3.159-119.458-66.29-8.169-4.712-10.968-15.151-6.252-23.314 4.716-8.161 15.162-10.959 23.331-6.247l110.934 64c15.093 8.708 8.865 31.851-8.555 31.851z" fill="#4379ff"/><path d="m222.109 246.023c-7.541 0-14.442-5.028-16.487-12.654-2.441-9.104 2.966-18.462 12.077-20.902l41.83-11.199-11.208-41.799c-2.441-9.104 2.966-18.462 12.078-20.902 9.114-2.435 18.476 2.965 20.918 12.069l15.628 58.283c2.441 9.104-2.966 18.462-12.078 20.902-62.909 16.843-59.546 16.202-62.758 16.202z" fill="#80aaff"/><path d="m494.903 354.138c-6.425 0 .92 3.159-119.458-66.289-8.169-4.712-10.968-15.151-6.252-23.314 4.716-8.164 15.162-10.96 23.331-6.247l110.934 64c15.094 8.708 8.866 31.85-8.555 31.85z" fill="#4379ff"/><path d="m443.977 374.023c-7.542 0-14.442-5.028-16.487-12.654l-15.628-58.283c-2.441-9.104 2.966-18.462 12.078-20.902l58.327-15.617c9.115-2.435 18.476 2.965 20.918 12.069s-2.966 18.462-12.078 20.902l-41.829 11.199 11.208 41.799c2.907 10.844-5.292 21.487-16.509 21.487z" fill="#80aaff"/><path d="m384.001 256.005c-17.431 0-23.642-23.146-8.555-31.85l110.934-64c8.168-4.709 18.614-1.916 23.331 6.247 4.716 8.162 1.917 18.601-6.252 23.314-120.436 69.481-113.058 66.289-119.458 66.289z" fill="#4379ff"/><path d="m486.696 246.023c-3.168 0 .683.784-62.757-16.202-9.112-2.44-14.519-11.798-12.078-20.902l15.628-58.283c2.442-9.105 11.811-14.502 20.918-12.069 9.112 2.44 14.519 11.798 12.078 20.902l-11.208 41.799 41.829 11.199c9.112 2.44 14.519 11.798 12.078 20.902-2.046 7.625-8.947 12.654-16.488 12.654z" fill="#80aaff"/><path d="m213.903 354.138c-17.431 0-23.644-23.146-8.556-31.85l110.934-64c8.168-4.709 18.614-1.916 23.331 6.247 4.716 8.162 1.917 18.601-6.252 23.314-120.436 69.482-113.058 66.289-119.457 66.289z" fill="#4379ff"/><path d="m264.829 374.023c-11.23 0-19.414-10.653-16.508-21.487l11.208-41.799-41.83-11.199c-9.111-2.44-14.518-11.798-12.077-20.902 2.441-9.105 11.807-14.506 20.918-12.069l58.326 15.617c9.112 2.44 14.519 11.798 12.078 20.902l-15.628 58.283c-2.045 7.624-8.946 12.654-16.487 12.654z" fill="#80aaff"/><path d="m354.403 307.202c-28.253 0-51.238-22.968-51.238-51.2s22.985-51.2 51.238-51.2 51.238 22.968 51.238 51.2-22.985 51.2-51.238 51.2zm0-68.267c-9.417 0-17.079 7.656-17.079 17.067s7.662 17.067 17.079 17.067 17.079-7.656 17.079-17.067-7.662-17.067-17.079-17.067z" fill="#4379ff"/></svg>