<svg id="Layer_1" enable-background="new 0 0 512 512" height="512" viewBox="0 0 512 512" width="512" xmlns="http://www.w3.org/2000/svg"><g fill="#8bc4ff"><circle cx="256" cy="48" r="32"/><circle cx="256" cy="48" r="32"/><circle cx="256" cy="464" r="32"/><circle cx="256" cy="48" r="32"/></g><circle cx="256" cy="48" fill="#68eaea" r="32"/><circle cx="256" cy="464" fill="#68eaea" r="32"/><ellipse cx="75.867" cy="152" fill="#8bc4ff" rx="32" ry="32" transform="matrix(.5 -.866 .866 .5 -93.703 141.703)"/><ellipse cx="75.867" cy="152" fill="#8bc4ff" rx="32" ry="32" transform="matrix(.5 -.866 .866 .5 -93.703 141.703)"/><ellipse cx="436.133" cy="360" fill="#8bc4ff" rx="32" ry="32" transform="matrix(.5 -.866 .866 .5 -93.703 557.703)"/><ellipse cx="75.867" cy="152" fill="#8bc4ff" rx="32" ry="32" transform="matrix(.5 -.866 .866 .5 -93.703 141.703)"/><ellipse cx="75.867" cy="152" fill="#68eaea" rx="32" ry="32" transform="matrix(.5 -.866 .866 .5 -93.703 141.703)"/><ellipse cx="436.133" cy="360" fill="#68eaea" rx="32" ry="32" transform="matrix(.5 -.866 .866 .5 -93.703 557.703)"/><ellipse cx="436.133" cy="152" fill="#8bc4ff" rx="32" ry="32" transform="matrix(.866 -.5 .5 .866 -17.569 238.431)"/><ellipse cx="436.133" cy="152" fill="#8bc4ff" rx="32" ry="32" transform="matrix(.866 -.5 .5 .866 -17.569 238.431)"/><ellipse cx="75.867" cy="360" fill="#8bc4ff" rx="32" ry="32" transform="matrix(.866 -.5 .5 .866 -169.836 86.164)"/><ellipse cx="436.133" cy="152" fill="#8bc4ff" rx="32" ry="32" transform="matrix(.866 -.5 .5 .866 -17.569 238.431)"/><ellipse cx="436.133" cy="152" fill="#68eaea" rx="32" ry="32" transform="matrix(.866 -.5 .5 .866 -17.569 238.431)"/><ellipse cx="75.867" cy="360" fill="#68eaea" rx="32" ry="32" transform="matrix(.866 -.5 .5 .866 -169.836 86.164)"/><path d="m415.352 164v184l-159.352 92-159.352-92v-184l159.352-92z" fill="#8dffff"/><path d="m368 191.338v129.324l-112 64.662-112-64.662v-129.324l112-64.662z" fill="#74f7f9"/><path d="m256 448c-8.836 0-16-7.164-16-16v-352c0-8.836 7.164-16 16-16 8.837 0 16 7.164 16 16v352c0 8.836-7.163 16-16 16z" fill="#4379ff"/><path d="m256 96c-26.467 0-48-21.533-48-48s21.533-48 48-48c26.468 0 48 21.533 48 48s-21.532 48-48 48zm0-64c-8.822 0-16 7.178-16 16s7.178 16 16 16 16-7.178 16-16-7.178-16-16-16z" fill="#4379ff"/><path d="m244.686 179.313-48-48c-6.249-6.248-6.249-16.379 0-22.627 6.248-6.249 16.379-6.249 22.627 0l36.687 36.687 36.687-36.686c6.248-6.249 16.379-6.249 22.627 0 6.249 6.248 6.249 16.379 0 22.627l-48 48c-6.248 6.248-16.379 6.249-22.628-.001z" fill="#6994ff"/><path d="m256 512c-26.467 0-48-21.533-48-48s21.533-48 48-48c26.468 0 48 21.533 48 48s-21.532 48-48 48zm0-64c-8.822 0-16 7.178-16 16s7.178 16 16 16 16-7.178 16-16-7.178-16-16-16z" fill="#4379ff"/><path d="m304 408c-4.095 0-8.189-1.562-11.313-4.687l-36.687-36.686-36.687 36.686c-6.248 6.249-16.379 6.249-22.627 0-6.249-6.248-6.249-16.379 0-22.627l48-48c6.248-6.249 16.379-6.249 22.627 0l48 48c10.11 10.108 2.812 27.314-11.313 27.314z" fill="#6994ff"/><path d="m408.406 360.002c-6.357.001 15.612 11.478-312.827-178.146-7.599-4.387-10.303-14.154-5.856-21.856 4.418-7.652 14.203-10.274 21.856-5.856 279.748 161.513-164.594-95.028 304.841 176 14.105 8.144 8.347 29.858-8.014 29.858z" fill="#4379ff"/><path d="m75.789 200.021c-20.698 0-40.426-13.727-46.286-35.597-6.866-25.625 8.313-51.921 33.941-58.788 25.622-6.867 51.92 8.312 58.788 33.941 8.204 30.621-14.936 60.444-46.443 60.444zm.104-64.028c-16.335 0-22.172 21.697-8.026 29.863 7.658 4.421 17.435 1.803 21.856-5.856 6.214-10.764-1.71-24.007-13.83-24.007z" fill="#4379ff"/><path d="m114.21 245.573c-7.064 0-13.529-4.714-15.444-11.863-2.287-8.535 2.778-17.309 11.313-19.596l50.114-13.428-13.428-50.115c-2.287-8.536 2.778-17.309 11.313-19.596 8.531-2.287 17.309 2.778 19.596 11.313l17.569 65.569c2.287 8.536-2.778 17.309-11.313 19.596-71.359 19.123-66.726 18.12-69.72 18.12z" fill="#6994ff"/><path d="m436.055 408.021c-36.3 0-60.162-39.678-41.49-72.021 13.264-22.973 42.589-30.835 65.568-17.569 22.973 13.264 30.836 42.593 17.569 65.57-8.995 15.58-25.207 24.02-41.647 24.02zm-7.922-34.165c7.655 4.421 17.434 1.804 21.856-5.856 4.421-7.659 1.803-17.435-5.856-21.857-7.657-4.421-17.434-1.802-21.855 5.856-4.421 7.659-1.805 17.435 5.855 21.857z" fill="#4379ff"/><path d="m349.77 381.573c-7.065 0-13.529-4.714-15.445-11.863l-17.569-65.569c-2.287-8.536 2.778-17.309 11.313-19.596l65.57-17.569c8.537-2.288 17.309 2.779 19.596 11.313 2.287 8.536-2.778 17.309-11.313 19.596l-50.115 13.428 13.429 50.115c2.721 10.161-4.95 20.145-15.466 20.145z" fill="#6994ff"/><path d="m103.595 360.002c-16.383.001-22.08-21.738-8.015-29.859 261.749-151.121 46.119-26.629 304.841-176 10.716-6.185 23.999 1.651 24.003 13.837.001 5.531-2.869 10.911-8.003 13.875l-110.852 64c-202.13 115.505-193.409 114.147-201.974 114.147z" fill="#4379ff"/><path d="m394.564 176c-21.364-37.004 12.954-81.362 53.992-70.364 25.622 6.865 40.809 33.159 33.94 58.788-11.065 41.299-66.615 48.5-87.932 11.576zm33.569-37.856c-7.658 4.421-10.278 14.197-5.855 21.856 4.421 7.658 14.195 10.278 21.855 5.857 7.658-4.421 10.279-14.197 5.856-21.856-4.42-7.659-14.197-10.28-21.856-5.857z" fill="#4379ff"/><path d="m397.789 245.573c-3.042 0 1.671 1.01-69.721-18.119-8.535-2.287-13.601-11.06-11.313-19.596l17.569-65.569c2.288-8.535 11.061-13.602 19.597-11.313 8.535 2.287 13.601 11.06 11.313 19.596l-13.429 50.115 50.115 13.428c8.535 2.287 13.601 11.06 11.313 19.596-1.915 7.147-8.38 11.862-15.444 11.862z" fill="#6994ff"/><path d="m75.945 408.021c-16.418 0-32.64-8.419-41.647-24.021-13.264-22.973-5.408-52.303 17.569-65.569 22.974-13.265 52.304-5.407 65.569 17.569 18.643 32.291-5.129 72.021-41.491 72.021zm-.105-64.028c-6.915 0-13.479 4.59-15.428 11.866-2.289 8.54 2.77 17.307 11.313 19.596 8.54 2.289 17.307-2.77 19.596-11.313 2.741-10.229-5.001-20.149-15.481-20.149z" fill="#4379ff"/><path d="m162.231 381.573c-10.52 0-18.187-9.987-15.465-20.145l13.428-50.115-50.114-13.428c-8.536-2.287-13.601-11.061-11.313-19.596 2.287-8.536 11.061-13.603 19.596-11.313l65.569 17.569c8.536 2.287 13.601 11.06 11.313 19.596l-17.569 65.569c-1.916 7.148-8.381 11.863-15.445 11.863z" fill="#6994ff"/></svg>