<svg id="Layer_1" enable-background="new 0 0 512.062 512.062" height="512" viewBox="0 0 512.062 512.062" width="512" xmlns="http://www.w3.org/2000/svg"><path d="m324.664 118.748v197.455h-237.403l-76.65-76.64c-14.106-14.104-14.106-36.99 0-51.094s36.994-14.104 51.1 0l25.55 25.547v-95.268c0-36.085 16.107-68.401 41.519-90.169 76.576-65.607 195.884-11.009 195.884 90.169z" fill="#fe929f"/><path d="m324.664 118.748v154.877h-110.717c-47.036 0-85.167-38.126-85.167-85.156v-111.233c0-41.845 33.593-77.174 77.183-77.174 65.533 0 118.701 53.127 118.701 118.686z" fill="#ffa4b8"/><path d="m341.697 350.266v25.547c0 18.809-15.256 34.062-34.067 34.062h-203.336c-18.811 0-34.067-15.254-34.067-34.062v-25.547c0-18.457 14.681-33.488 33.002-34.041 1.067-.033 62.687-.021 204.401-.021 18.812 0 34.067 15.253 34.067 34.062z" fill="#ece2e2"/><path d="m341.697 350.266v17.01c-1.067.033-62.687.021-204.401.021-18.811 0-34.067-15.254-34.067-34.062v-17.01c1.067-.033 62.687-.021 204.401-.021 18.812 0 34.067 15.253 34.067 34.062z" fill="#f2f2f2"/><path d="m494.998 220.935v197.455h-237.403l-76.65-76.64c-14.106-14.104-14.106-36.99 0-51.094s36.994-14.104 51.1 0l25.55 25.547v-95.268c0-36.085 16.107-68.401 41.519-90.169 76.576-65.607 195.884-11.009 195.884 90.169z" fill="#ea8692"/><path d="m494.998 220.935v154.877h-110.717c-47.036 0-85.167-38.126-85.167-85.156v-111.232c0-41.845 33.593-77.174 77.183-77.174 65.533-.001 118.701 53.126 118.701 118.685z" fill="#fe929f"/><path d="m512.031 452.453v25.547c0 18.809-15.256 34.062-34.067 34.062h-203.336c-18.811 0-34.067-15.254-34.067-34.062v-25.547c0-18.457 14.681-33.488 33.002-34.041 1.067-.033 62.687-.021 204.401-.021 18.812 0 34.067 15.253 34.067 34.062z" fill="#ece2e2"/><path d="m512.031 452.453v17.01c-1.067.033-62.687.021-204.401.021-18.811 0-34.067-15.254-34.067-34.062v-17.01c1.067-.033 62.687-.021 204.401-.021 18.812 0 34.067 15.253 34.067 34.062z" fill="#f2f2f2"/></svg>