<svg id="Layer_1" enable-background="new 0 0 512 512" height="512" viewBox="0 0 512 512" width="512" xmlns="http://www.w3.org/2000/svg"><path d="m460.8 237.643v146.357c0 9.429-7.637 17.067-17.067 17.067h-42.667c-9.429 0-17.067-7.638-17.067-17.067 0-7.946 0-252.355 0-256l16.96.565c36.897 23.499 59.841 64.469 59.841 109.078z" fill="#a07765"/><path d="m128 384c0 9.429-7.637 17.067-17.067 17.067h-42.666c-9.429 0-17.067-7.638-17.067-17.067v-146.357c0-44.608 22.944-85.579 59.84-109.078l16.96-.565z" fill="#a07765"/><g fill="#c79a83"><path d="m128 332.8v51.2c0 9.429-7.637 17.067-17.067 17.067h-42.666c-9.429 0-17.067-7.638-17.067-17.067v-51.2z"/><path d="m460.8 332.8v51.2c0 9.429-7.637 17.067-17.067 17.067h-42.667c-9.429 0-17.067-7.638-17.067-17.067v-51.2z"/><path d="m418.133 366.933v34.133h-17.067c-9.429 0-17.067-7.638-17.067-17.067v-17.067h34.134z"/><path d="m384 178.976v315.957c0 9.429-7.637 17.067-17.067 17.067h-68.267c-23.562 0-42.666-19.104-42.666-42.667 0 23.551-19.114 42.667-42.667 42.667h-68.267c-9.429 0-17.067-7.638-17.067-17.067v-315.957z"/></g><path d="m128 136.533v42.667c0 136.672 110.795 247.467 247.467 247.467h8.533c0-9.636 0-274.748 0-290.133h-256z" fill="#e0b7a3"/><path d="m401.067 123.733c0 75.112-90.404 110.13-142.101 58.432l-2.966-2.965-2.965 2.965c-51.684 51.684-142.101 16.686-142.101-58.432-.001-71.012 68.101-123.733 145.066-123.733 77.795 0 145.067 53.517 145.067 123.733z" fill="#ffdfba"/><path d="m397.675 96.981c-16.875 57.238-92.768 79.926-138.709 33.984l-2.966-2.965-2.965 2.965c-45.941 45.942-121.835 23.254-138.709-33.984 14.335-55.477 72.319-96.981 141.674-96.981s127.339 41.504 141.675 96.981z" fill="#ffebd2"/><path d="m292.267 70.4c19.974 19.974 20.085 52.449 0 72.533l-36.267 36.267-36.267-36.267c-20.029-20.03-20.029-52.504 0-72.533 19.974-19.974 52.449-20.085 72.534 0z" fill="#a07765"/><circle cx="256" cy="264.533" fill="#b2b2b2" r="17.067"/><circle cx="256" cy="332.8" fill="#b2b2b2" r="17.067"/><circle cx="256" cy="401.067" fill="#b2b2b2" r="17.067"/></svg>