<svg id="Layer_1" enable-background="new 0 0 512 512" height="512" viewBox="0 0 512 512" width="512" xmlns="http://www.w3.org/2000/svg"><path d="m392.533 34.133v42.667c0 18.848-15.285 34.133-34.133 34.133h-187.733c-18.848 0-34.133-15.285-34.133-34.133v-42.667c-.001-18.848 15.285-34.133 34.133-34.133h187.733c18.848 0 34.133 15.285 34.133 34.133z" fill="#ffdfba"/><path d="m392.533 34.133v34.133h-179.2c-18.848 0-34.133-15.285-34.133-34.133v-34.133h179.2c18.848 0 34.133 15.285 34.133 34.133z" fill="#ffebd2"/><path d="m153.6 460.8h341.333c9.426 0 17.067-7.641 17.067-17.067v-51.2h-358.4z" fill="#999"/><path d="m512 375.467v17.067h-358.4v-281.6h221.867v128c0 18.848 15.285 34.133 34.133 34.133 56.459 0 102.4 45.742 102.4 102.4z" fill="#a07765"/><path d="m508.779 349.867h-303.979v-238.934h170.667v128c0 18.848 15.285 34.133 34.133 34.133 47.712.001 87.808 32.63 99.179 76.801z" fill="#c79a83"/><path d="m512 375.467v17.067h-102.4v-119.467c56.555 0 102.4 45.837 102.4 102.4z" fill="#ffdfba"/><path d="m508.779 349.867h-99.179v-76.8c47.767 0 87.833 32.695 99.179 76.8z" fill="#ffebd2"/><path d="m256 392.533h-93.867v-93.867c51.813.001 93.867 41.998 93.867 93.867z" fill="#a2d0ff"/><path d="m256 85.333v42.667c0 18.848-15.285 34.133-34.133 34.133h-187.734c-18.848 0-34.133-15.285-34.133-34.133v-42.667c0-18.848 15.285-34.133 34.133-34.133h187.733c18.849 0 34.134 15.285 34.134 34.133z" fill="#ffdfba"/><path d="m256 85.333v34.133h-179.2c-18.848 0-34.133-15.285-34.133-34.133v-34.133h179.2c18.848 0 34.133 15.285 34.133 34.133z" fill="#ffebd2"/><path d="m34.133 512h324.267c9.426 0 17.067-7.641 17.067-17.067v-51.2h-358.4v51.2c0 9.426 7.641 17.067 17.066 17.067z" fill="#999"/><path d="m375.467 426.667v17.067h-358.4v-281.6h221.867v128c0 18.848 15.285 34.133 34.133 34.133 56.459 0 102.4 45.742 102.4 102.4z" fill="#c79a83"/><path d="m372.245 401.067h-303.978v-238.934h170.667v128c0 18.848 15.285 34.133 34.133 34.133 47.712.001 87.808 32.63 99.178 76.801z" fill="#e0b7a3"/><path d="m375.467 426.667v17.067h-102.4v-119.467c56.555 0 102.4 45.837 102.4 102.4z" fill="#ffdfba"/><path d="m372.245 401.067h-99.179v-76.8c47.767 0 87.833 32.695 99.179 76.8z" fill="#ffebd2"/><path d="m110.933 443.733h-93.866v-93.867c51.812.001 93.866 41.999 93.866 93.867z" fill="#a07765"/><g fill="#aaa"><path d="m238.933 247.467h-51.2c-9.426 0-17.067-7.641-17.067-17.067s7.641-17.067 17.067-17.067h51.2c9.426 0 17.067 7.641 17.067 17.067s-7.641 17.067-17.067 17.067z"/><path d="m238.933 315.733h-51.2c-9.426 0-17.067-7.641-17.067-17.067s7.641-17.067 17.067-17.067h51.2c9.426 0 17.067 7.641 17.067 17.067 0 9.427-7.641 17.067-17.067 17.067z"/><path d="m375.467 196.267h-51.2c-9.426 0-17.067-7.641-17.067-17.067s7.641-17.067 17.067-17.067h51.2c9.426 0 17.067 7.641 17.067 17.067s-7.641 17.067-17.067 17.067z"/><path d="m375.467 264.533h-51.2c-9.426 0-17.067-7.641-17.067-17.067s7.641-17.067 17.067-17.067h51.2c9.426 0 17.067 7.641 17.067 17.067s-7.641 17.067-17.067 17.067z"/></g></svg>