<svg id="Layer_1" enable-background="new 0 0 512 512" height="512" viewBox="0 0 512 512" width="512" xmlns="http://www.w3.org/2000/svg"><path d="m445.935 189.935c0 42.818-32.599 78.028-74.323 82.178h-231.225c-41.894-4.167-74.323-39.516-74.323-82.178 44.068-19.59 77.446-57.276 91.603-103.184h196.666c14.154 45.901 47.526 83.59 91.602 103.184z" fill="#999"/><path d="m355.097 107.355v41.29c0 23.556-8.217 45.192-21.956 62.194-39.682 49.179-114.559 49.229-154.281 0-13.739-17.002-21.956-38.638-21.956-62.194v-41.29z" fill="#ffebd2"/><path d="m355.097 107.355c0 54.711-44.375 99.097-99.097 99.097-54.713 0-99.097-44.376-99.097-99.097z" fill="#fff3e4"/><path d="m454.194 445.935v66.065h-396.388v-66.065c0-67.479 33.714-127.071 85.223-162.859h225.941c52.282 36.352 85.224 96.283 85.224 162.859z" fill="#80aaff"/><path d="m454.194 512h-396.388c0-54.926 22.338-104.619 58.426-140.511 14.524-14.452 34.323-22.348 54.813-22.348h169.899c20.342 0 40.267 7.778 55.195 22.72 35.871 35.86 58.055 85.409 58.055 140.139z" fill="#6994ff"/><path d="m371.613 247.742v24.774c0 26.426-48.268 48.021-109.089 49.466-1.644.043-4.459.083-6.524.083-63.855 0-115.613-22.183-115.613-49.548v-24.774c0-14.658 14.854-27.83 38.472-36.903 39.682 49.179 114.559 49.229 154.281 0 23.619 9.072 38.473 22.244 38.473 36.902z" fill="#ffa4b8"/><path d="m355.097 107.355h-198.194v-8.258c0-54.73 44.367-99.097 99.097-99.097 54.577 0 99.097 44.216 99.097 99.097z" fill="#999"/><path d="m322.065 313.806v165.161c0 9.122-7.395 16.516-16.516 16.516h-49.549c-9.122 0-16.516-7.395-16.516-16.516v-156.902" fill="#fe929f"/><path d="m262.524 321.982c-.106.008-2.395.154-2.395.041.805 0 1.6-.02 2.395-.041z" fill="#8bc4ff"/></svg>