<svg id="Layer_1" enable-background="new 0 0 512 512" height="512" viewBox="0 0 512 512" width="512" xmlns="http://www.w3.org/2000/svg"><path d="m452.238 512c-9.419 0-17.067-7.634-17.067-17.067v-392.533h34.133v392.533c0 9.426-7.641 17.067-17.066 17.067z" fill="#aaa"/><circle cx="447.971" cy="200.533" fill="#fff3e4" r="38.4"/><circle cx="51.171" cy="409.6" fill="#fff3e4" r="34.133"/><path d="m290.104 204.8v221.867c0 9.426-7.641 17.067-17.067 17.067h-170.666c-9.426 0-17.067-7.641-17.067-17.067v-221.867z" fill="#c79a83"/><path d="m85.304 204.8h204.8v179.2h-204.8z" fill="#e0b7a3"/><path d="m170.638 204.8h34.133v238.933h-34.133z" fill="#c79a83"/><g fill="#aaa"><path d="m153.571 443.733h34.133v68.267c-104.688 0-102.4-.1-102.4 0 0-37.703 30.564-68.267 68.267-68.267z"/><path d="m221.838 443.733h-34.133v68.267c104.688 0 102.4-.1 102.4 0-.001-37.703-30.565-68.267-68.267-68.267z"/><path d="m297.934 195.008c-9.397 11.753-6.378 8.582-13.429 14.464-26.411 22.005-64.789 22.005-91.2 0l-5.6-4.672c-24.662 24.662-63.497 27.803-91.765 7.595-12.763-9.115-8.605-5.056-18.464-17.387-63.02-78.773-6.382-195.008 93.727-195.008h33.003c101.275 0 155.839 117.33 93.728 195.008z"/></g><path d="m320.995 92.234c-4.11 17.488-12.15 33.661-23.061 47.307-9.397 11.753-6.378 8.582-13.429 14.464-26.411 22.005-64.789 22.005-91.2 0l-5.6-4.672c-24.662 24.662-63.497 27.803-91.765 7.595-12.763-9.115-8.605-5.056-18.464-17.387-11.168-13.952-18.997-30.133-23.061-47.307 12.448-52.577 59.763-92.234 116.788-92.234h33.003c56.725 0 104.256 39.339 116.789 92.234z" fill="#b2b2b2"/><path d="m255.971 136.533c0 37.715-30.548 68.267-68.267 68.267-46.613 0-79.319-45.675-64.864-89.6 8.985-27.383 34.725-46.933 64.864-46.933 37.925 0 68.267 30.754 68.267 68.266z" fill="#ffdfba"/><path d="m252.568 115.2c-8.985 27.383-34.725 46.933-64.864 46.933-30.261 0-55.915-19.68-64.864-46.933 15.671-47.758 76.903-63.183 113.141-26.944 7.467 7.467 13.217 16.672 16.587 26.944z" fill="#fff3e4"/><path d="m290.104 298.933 4.278 4.278c25.913 25.913 67.663 26.743 94.586 1.881l50.244-46.398c7.12-6.575 7.343-17.753.489-24.606l-24.483-24.483c-6.327-6.327-16.466-6.693-23.233-.84l-51.214 44.301-48.288-48.288-2.379 2.379" fill="#c79a83"/><path d="m68.238 384h-34.134c-9.426 0-17.067-7.641-17.067-17.067v-63.625c0-43.855 27.204-83.11 68.267-98.509.117-.044 0 162.235 0 162.133 0 9.427-7.641 17.068-17.066 17.068z" fill="#c79a83"/><path d="m456.13 110.933h-7.785c-31.705 0-49.695-35.91-31.552-61.311l35.445-49.622 35.444 49.622c18.367 25.714-.174 61.311-31.552 61.311z" fill="#999"/><path d="m170.638 443.733h34.133v68.267h-34.133z" fill="#999"/></svg>