<svg id="Layer_1" enable-background="new 0 0 512 512" height="512" viewBox="0 0 512 512" width="512" xmlns="http://www.w3.org/2000/svg"><path d="m384 184v120c0 17.67-14.33 32-32 32s-32-14.33-32-32v120c0 17.679-14.319 32-32 32-17.67 0-32-14.33-32-32 0 8.84-3.58 16.84-9.37 22.63-19.966 19.967-54.63 5.976-54.63-22.63v-120c0 17.67-14.33 32-32 32s-32-14.33-32-32v-120c0-53.515 32.919-99.664 80.05-118.71h95.9c46.94 18.97 80.05 64.98 80.05 118.71z" fill="#b2b2b2"/><path d="m384 184v71c0 17.67-14.33 32-32 32s-32-14.33-32-32v120c0 17.679-14.319 32-32 32-17.67 0-32-14.33-32-32 0 8.84-3.58 16.84-9.37 22.63-19.966 19.967-54.63 5.976-54.63-22.63v-120c0 17.67-14.33 32-32 32s-32-14.33-32-32v-71c0-53.515 32.919-99.664 80.05-118.71h95.9c46.94 18.97 80.05 64.98 80.05 118.71z" fill="#ece2e2"/><path d="m304 67.24v41.52c0 23.88-19.36 43.24-43.24 43.24h-9.52c-23.88 0-43.24-19.36-43.24-43.24v-41.52c0-23.88 19.36-43.24 43.24-43.24h9.52c23.88 0 43.24 19.36 43.24 43.24z" fill="#ffdfba"/><path d="m304 67.24c0 27.072-20.536 44.76-43.24 44.76h-9.52c-23.88 0-43.24-19.36-43.24-43.24 0-27.072 20.536-44.76 43.24-44.76h9.52c23.88 0 43.24 19.36 43.24 43.24z" fill="#fff3e4"/><g fill="#e0b7a3"><path d="m320 512h-32c-8.836 0-16-7.163-16-16v-40c0-8.837 7.164-16 16-16s16 7.163 16 16v24h16c8.836 0 16 7.163 16 16s-7.164 16-16 16z"/><path d="m224 512h-32c-8.836 0-16-7.163-16-16s7.164-16 16-16h16v-24c0-8.837 7.164-16 16-16s16 7.163 16 16v40c0 8.837-7.164 16-16 16z"/><path d="m384 392c-26.467 0-48-21.533-48-48v-8c0-8.837 7.164-16 16-16s16 7.163 16 16v8c0 8.822 7.178 16 16 16 8.836 0 16 7.163 16 16s-7.164 16-16 16z"/><path d="m128 392c-8.836 0-16-7.163-16-16s7.164-16 16-16c8.822 0 16-7.178 16-16v-8c0-8.837 7.164-16 16-16s16 7.163 16 16v8c0 26.467-21.533 48-48 48z"/><path d="m211.425 66.312c-2.798 0-5.632-.733-8.208-2.276-16.788-10.058-27.217-28.465-27.217-48.036 0-8.837 7.164-16 16-16s16 7.163 16 16c0 8.514 4.36 16.209 11.663 20.584 13.905 8.331 7.923 29.728-8.238 29.728z"/><path d="m300.575 66.312c-16.157 0-22.146-21.394-8.238-29.728 7.303-4.375 11.663-12.07 11.663-20.584 0-8.837 7.164-16 16-16s16 7.163 16 16c0 28.664-22.853 50.312-35.425 50.312z"/></g></svg>