<svg id="Layer_1" enable-background="new 0 0 512 512" height="512" viewBox="0 0 512 512" width="512" xmlns="http://www.w3.org/2000/svg"><path d="m256 512c-8.837 0-16-7.164-16-16v-64c0-8.836 7.163-16 16-16s16 7.164 16 16v64c0 8.836-7.163 16-16 16z" fill="#c79a83"/><path d="m119.503 419.807 56.497-91.807h-17.513c-6.295 0-10.124-6.934-6.771-12.261l57.734-91.739h-17.203c-6.637 0-10.388-7.617-6.341-12.878l70.094-91.122 70.094 91.122c4.047 5.261.296 12.878-6.341 12.878h-17.203l57.734 91.739c3.353 5.327-.476 12.261-6.771 12.261h-17.513l56.497 91.807c3.28 5.33-.555 12.193-6.813 12.193h-259.367c-6.259 0-10.094-6.863-6.814-12.193z" fill="#90c94f"/><path d="m353.513 328h-195.026c-6.295 0-10.124-6.934-6.771-12.261l57.734-91.739h93.1l57.734 91.739c3.353 5.327-.476 12.261-6.771 12.261z" fill="#99d856"/><path d="m319.753 224h-127.506c-6.637 0-10.388-7.617-6.341-12.878l70.094-91.122 70.094 91.122c4.047 5.261.296 12.878-6.341 12.878z" fill="#aaef68"/><path d="m365.219 391.917c-135.082-2.295-196.545-49.329-199.096-51.33-6.952-5.455-8.165-15.513-2.711-22.465 5.44-6.933 15.459-8.159 22.407-2.755.427.323 14.426 10.82 43.103 21.441 26.836 9.939 72.359 22.018 136.84 23.113 8.836.15 15.876 7.434 15.727 16.27-.15 8.783-7.371 15.867-16.27 15.726z" fill="#ea8692"/><path d="m338.574 263.72c-48.656-2.971-92.018-23.582-119.159-50.931l.087.089-.008.007c-9.968-10.307-27.494-3.218-27.494 11.115 0 4.322 1.721 8.236 4.506 11.115l-.008.007c.37.39 1.118 1.103 1.51 1.47 39.774 37.074 87.544 55.95 138.617 59.068 8.768.542 16.404-6.133 16.945-14.995.538-8.82-6.175-16.407-14.996-16.945z" fill="#ea8692"/><path d="m206.812 57.944 15.184 11.031-5.8 17.849c-4.779 14.705 12.122 26.97 24.621 17.889l15.183-11.031 15.184 11.031c12.507 9.088 29.397-3.194 24.621-17.889l-5.8-17.849 15.184-11.031c12.507-9.086 6.048-28.944-9.405-28.944h-18.768l-5.8-17.849c-4.777-14.706-25.66-14.693-30.434 0l-5.799 17.849h-18.768c-15.461 0-21.904 19.864-9.403 28.944z" fill="#efd66c"/><g fill="#ece2e2"><path d="m84 48c11.03 0 20-8.97 20-20s-8.97-20-20-20-20 8.97-20 20 8.97 20 20 20z"/><path d="m140 136c11.03 0 20-8.97 20-20s-8.97-20-20-20-20 8.97-20 20 8.97 20 20 20z"/><path d="m20 216c11.03 0 20-8.97 20-20s-8.97-20-20-20-20 8.97-20 20 8.97 20 20 20z"/><path d="m96 268c0 11.03 8.97 20 20 20s20-8.97 20-20-8.97-20-20-20-20 8.97-20 20z"/><path d="m24 380c0 11.03 8.97 20 20 20s20-8.97 20-20-8.97-20-20-20-20 8.97-20 20z"/><path d="m432 380c0 11.03 8.97 20 20 20s20-8.97 20-20-8.97-20-20-20-20 8.97-20 20z"/><path d="m408 260c0 11.03 8.97 20 20 20s20-8.97 20-20-8.97-20-20-20-20 8.97-20 20z"/><path d="m364 168c11.03 0 20-8.97 20-20s-8.97-20-20-20-20 8.97-20 20 8.97 20 20 20z"/><path d="m492 120c11.03 0 20-8.97 20-20s-8.97-20-20-20-20 8.97-20 20 8.97 20 20 20z"/><path d="m420 40c11.03 0 20-8.97 20-20s-8.97-20-20-20-20 8.97-20 20 8.97 20 20 20z"/></g><path d="m496 512h-480c-8.837 0-16-7.164-16-16s7.163-16 16-16h480c8.837 0 16 7.164 16 16s-7.163 16-16 16z" fill="#a07765"/></svg>