<svg id="Layer_1" enable-background="new 0 0 512 512" height="512" viewBox="0 0 512 512" width="512" xmlns="http://www.w3.org/2000/svg"><path d="m59.733 270.4h392.533v238.933h-392.533z" fill="#4379ff"/><path d="m452.267 295.533v162.133h-324.267c-37.703 0-68.267-30.564-68.267-68.267v-93.867h392.534z" fill="#80aaff"/><path d="m318.623 82.667h-125.246c-19.84 0-38.698 8.631-51.666 23.646l-118.861 137.629c-8.953 10.367-1.589 26.458 12.109 26.458h442.082c13.698 0 21.062-16.091 12.109-26.458l-118.862-137.629c-12.967-15.015-31.826-23.646-51.665-23.646z" fill="#999"/><path d="m430.933 176.533h-12.8c-27.029 0-27.029 17.067-54.048 17.067-27.029 0-27.029-17.067-54.048-17.067-27.029 0-27.029 17.067-54.048 17.067s-27.019-17.067-54.037-17.067c-27.029 0-27.029 17.067-54.048 17.067s-27.019-17.067-54.037-17.067h-12.8c16.538-19.153 8.271-9.579 60.64-70.219 12.971-15.019 31.829-23.648 51.669-23.648h125.248c19.84 0 38.699 8.629 51.669 23.648 57.981 67.138 43.811 50.73 60.64 70.219z" fill="#f9f9f9"/><path d="m430.933 176.533h-12.8c-27.029 0-27.029 17.067-54.048 17.067-27.029 0-27.029-17.067-54.048-17.067-27.029 0-27.029 17.067-54.048 17.067s-27.019-17.067-54.037-17.067c-27.029 0-27.029 17.067-54.048 17.067s-27.019-17.067-54.037-17.067h-12.8c14.908-17.265 9.311-11.649 24.405-24.917 17.077-15.019 41.92-23.648 68.043-23.648h164.971c26.123 0 50.965 8.629 68.043 23.648 15.098 13.272 9.505 7.663 24.404 24.917z" fill="#f2f2f2"/><path d="m384 509.333h-102.4v-154.666c0-8.837 7.163-16 16-16h70.4c8.837 0 16 7.163 16 16z" fill="#a07765"/><path d="m197.333 424h-53.333c-8.837 0-16-7.163-16-16v-53.333c0-8.837 7.163-16 16-16h53.333c8.837 0 16 7.163 16 16v53.333c0 8.837-7.163 16-16 16z" fill="#74f7f9"/><g fill="#ece2e2"><path d="m36 168c11.03 0 20-8.97 20-20s-8.97-20-20-20-20 8.97-20 20 8.97 20 20 20z"/><path d="m76 80c11.03 0 20-8.97 20-20s-8.97-20-20-20-20 8.97-20 20 8.97 20 20 20z"/><path d="m196 40c11.03 0 20-8.97 20-20s-8.97-20-20-20-20 8.97-20 20 8.97 20 20 20z"/><path d="m324 56c11.03 0 20-8.97 20-20s-8.97-20-20-20-20 8.97-20 20 8.97 20 20 20z"/><path d="m436 136c11.03 0 20-8.97 20-20s-8.97-20-20-20-20 8.97-20 20 8.97 20 20 20z"/><path d="m492 56c11.03 0 20-8.97 20-20s-8.97-20-20-20-20 8.97-20 20 8.97 20 20 20z"/><path d="m496 512h-480c-8.837 0-16-7.163-16-16 0-8.809 7.136-16 16-16h480c8.837 0 16 7.163 16 16 0 8.809-7.136 16-16 16z"/></g></svg>