<?xml version="1.0" encoding="iso-8859-1"?>
<!-- Generator: Adobe Illustrator 19.0.0, SVG Export Plug-In . SVG Version: 6.00 Build 0)  -->
<svg version="1.1" id="Layer_1" xmlns="http://www.w3.org/2000/svg" xmlns:xlink="http://www.w3.org/1999/xlink" x="0px" y="0px"
	 viewBox="0 0 512.001 512.001" style="enable-background:new 0 0 512.001 512.001;" xml:space="preserve">
<path style="fill:#495577;" d="M331.047,172.402c-17.772-2.824-87.878-12.927-144.807-6.246c-0.035,0-0.082,0-0.117,0.012
	c-5.684,0.667-11.24,1.509-16.597,2.538c-48.95,11.369-85.431,55.254-85.431,107.666c0,28.738,10.971,54.903,28.937,74.565
	c3.895,4.258,12.995,12.644,18.796,16.106c4.577,2.733,11.582,6.118,21.696,8.086c-0.296-0.057-0.608-0.108-0.899-0.167
	c9.742,2.234,99.547,24.873,140.785,111.175c1.212,2.634,2.678,4.987,4.473,6.964c17.154,18.9,27.447,18.9,37.623,18.9
	c11.046,0,32.935-7.003,55.088-53.191c31.466-65.602,37.314-176.718,37.314-176.718C427.906,225.676,385.64,179.137,331.047,172.402
	z"/>
<path style="fill:#3E81C8;" d="M209.605,105.539l28.571-84.874c9.326-27.979,49.102-27.399,57.607,0.841l25.849,85.816
	L209.605,105.539z"/>
<path style="fill:#61ACD2;" d="M148.267,178.347l7.846-41.115c4.342-22.14,24.17-37.814,46.713-36.927l118.806,4.677
	c21.789,0.859,39.948,16.969,43.393,38.502l7.113,44.914L148.267,178.347z"/>
<path style="fill:#3768AF;" d="M427.906,282.092c0-61.045-49.487-110.532-110.532-110.532s-110.532,49.487-110.532,110.532
	c0,37.239,18.416,70.175,46.637,90.202c9.239,8.416,23.464,21.059,30.892,48.098c5.224,19.017-0.519,57.252,13.509,72.709
	c17.154,18.9,27.447,18.9,37.623,18.9c11.046,0,32.935-7.003,55.088-53.191C422.058,393.208,427.906,282.092,427.906,282.092z"/>
<path style="fill:#495577;" d="M344.742,401.756c-12.346-43.033-36.588-65.104-48.326-75.79l-6.382-5.182
	c-12.729-9.032-20.029-23.136-20.029-38.693c0-26.121,21.25-47.371,47.371-47.371c25.642,0,46.591,20.48,47.348,45.941
	C363.318,303.918,357.557,358.646,344.742,401.756z"/>
<path style="fill:#3E81C8;" d="M206.849,282.092c0,31.101,12.831,59.184,33.499,79.255c-7.696,2.421-14.761,4.983-16.632,5.614
	c-53.476,18.024-80.355,6.971-91.887,0.082c-5.801-3.462-14.901-11.849-18.796-16.106c-17.966-19.662-28.937-45.827-28.937-74.565
	c0-52.412,36.481-96.297,85.431-107.666c5.357-1.029,10.913-1.871,16.597-2.538c0.035-0.012,0.082-0.012,0.117-0.012
	c57.009-6.69,127.234,3.45,144.884,6.258c-4.503-0.561-9.088-0.854-13.743-0.854C256.325,171.56,206.849,221.048,206.849,282.092z"
	/>
<g>
</g>
<g>
</g>
<g>
</g>
<g>
</g>
<g>
</g>
<g>
</g>
<g>
</g>
<g>
</g>
<g>
</g>
<g>
</g>
<g>
</g>
<g>
</g>
<g>
</g>
<g>
</g>
<g>
</g>
</svg>
