<?xml version="1.0" encoding="iso-8859-1"?>
<!-- Generator: Adobe Illustrator 19.0.0, SVG Export Plug-In . SVG Version: 6.00 Build 0)  -->
<svg version="1.1" id="Layer_1" xmlns="http://www.w3.org/2000/svg" xmlns:xlink="http://www.w3.org/1999/xlink" x="0px" y="0px"
	 viewBox="0 0 512 512" style="enable-background:new 0 0 512 512;" xml:space="preserve">
<g>
	<path style="fill:#449457;" d="M389.53,192.417c-3.749-0.234-7.545-0.351-11.4-0.351c-26.315,0-51.762,0.902-75.956,2.601
		c1.652-14.282,3.07-54.738-28.564-79.588C273.609,115.078,367.082,109.665,389.53,192.417z"/>
	<path style="fill:#449457;" d="M410.467,340.956c-25.155,53.871-90.977,56.039-90.977,56.039
		c17.235-13.263,18.031-51.809,18.066-55.348c13.251,0.48,26.795,0.726,40.573,0.726
		C389.366,342.373,400.192,341.905,410.467,340.956z"/>
	<path style="fill:#449457;" d="M207.214,206.5c-36.988,7.006-67.462,16.239-88.715,26.947c-0.551,0.281-1.101,0.551-1.664,0.797
		l5.261-60.608L207.214,206.5z"/>
	<path style="fill:#449457;" d="M216.176,329.567l-89.395,29.373l-4.991-52.583c7.908,1.125,15.782,3.046,23.514,5.718
		C165.047,318.894,189.007,324.811,216.176,329.567z"/>
</g>
<path style="fill:#6ABE71;" d="M512,279.902c0,36.52-41.686,57.913-101.533,63.397c-10.275,0.949-21.101,1.418-32.337,1.418
	c-13.778,0-27.322-0.246-40.573-0.726c-44.522-1.605-85.728-5.835-121.38-12.079c-27.17-4.757-51.13-10.673-70.872-17.492
	c-7.733-2.671-15.606-4.593-23.515-5.718c-5.085-0.726-10.181-1.125-15.266-1.172c-2.179-0.012-6.561,0.035-8.752,0.012
	c-13.462-0.094-26.807,5.237-36.438,15.536L0,388.664c10.017-33.731,21.253-82.518,21.253-116.788S10.017,188.832,0,155.101
	l61.335,65.576c14.259,15.255,36.66,19.859,55.5,11.224c0.562-0.246,1.113-0.516,1.664-0.797
	c21.253-10.709,51.727-19.941,88.715-26.947c28.248-5.354,60.304-9.408,94.96-11.833c24.194-1.699,49.642-2.601,75.956-2.601
	c3.855,0,7.651,0.117,11.4,0.351C460.366,194.467,512,239.247,512,279.902z"/>
<g>
	<circle style="fill:#449457;" cx="442.534" cy="258.882" r="9.373"/>
	<polygon style="fill:#449457;" points="322.783,258.877 290.563,317.96 387.808,288.419 	"/>
</g>
<g>
</g>
<g>
</g>
<g>
</g>
<g>
</g>
<g>
</g>
<g>
</g>
<g>
</g>
<g>
</g>
<g>
</g>
<g>
</g>
<g>
</g>
<g>
</g>
<g>
</g>
<g>
</g>
<g>
</g>
</svg>
