<?xml version="1.0" encoding="iso-8859-1"?>
<!-- Generator: Adobe Illustrator 19.0.0, SVG Export Plug-In . SVG Version: 6.00 Build 0)  -->
<svg version="1.1" id="Layer_1" xmlns="http://www.w3.org/2000/svg" xmlns:xlink="http://www.w3.org/1999/xlink" x="0px" y="0px"
	 viewBox="0 0 512 512" style="enable-background:new 0 0 512 512;" xml:space="preserve">
<g>
	<path style="fill:#E46A53;" d="M90.481,206.095L0,157.647c0,0,0,80.08,0,138.667v0.549l90.481-34.14V206.095z"/>
	<path style="fill:#E46A53;" d="M370.844,157.236c-21.324-21.324-63.443-36.085-93.058-30.4L96.815,164.628l30.8,33.264
		L370.844,157.236z"/>
	<path style="fill:#E46A53;" d="M261.849,306.998c0,0-48.458,33.109-86.44,44.895L52.464,312.469l84.965-35.595L261.849,306.998z"/>
	<path style="fill:#E46A53;" d="M387.568,319.783c0,0-94.521,49.58-162.625,66.606c0,0,33.475-21.921,71.456-67.76L387.568,319.783z
		"/>
</g>
<path style="fill:#F4A026;" d="M512,280.492l-99.495-99.494c-21.324-21.324-51.83-30.689-81.445-25.005L85.04,203.221v61.556
	l214.465,56.494c35.216,9.276,72.396,7.853,106.8-4.089L512,280.492z"/>
<circle style="fill:#E46A53;" cx="397.21" cy="230.729" r="9.856"/>
<g>
	<path style="fill:#EB7830;" d="M334.591,225.202c-8.635,0-15.637-7-15.637-15.637c0-8.636,7-15.637,15.637-15.637V225.202z"/>
	<path style="fill:#EB7830;" d="M334.591,256.474c-8.635,0-15.637-7-15.637-15.637c0-8.635,7-15.637,15.637-15.637V256.474z"/>
	<path style="fill:#EB7830;" d="M334.591,287.748c-8.635,0-15.637-7-15.637-15.637c0-8.635,7-15.637,15.637-15.637V287.748z"/>
	<path style="fill:#EB7830;" d="M283.259,225.202c-8.635,0-15.637-7-15.637-15.637c0-8.636,7-15.637,15.637-15.637V225.202z"/>
	<path style="fill:#EB7830;" d="M283.259,256.474c-8.635,0-15.637-7-15.637-15.637c0-8.635,7-15.637,15.637-15.637V256.474z"/>
	<path style="fill:#EB7830;" d="M283.259,287.748c-8.635,0-15.637-7-15.637-15.637c0-8.635,7-15.637,15.637-15.637V287.748z"/>
</g>
<g>
</g>
<g>
</g>
<g>
</g>
<g>
</g>
<g>
</g>
<g>
</g>
<g>
</g>
<g>
</g>
<g>
</g>
<g>
</g>
<g>
</g>
<g>
</g>
<g>
</g>
<g>
</g>
<g>
</g>
</svg>
