<?xml version="1.0" encoding="iso-8859-1"?>
<!-- Generator: Adobe Illustrator 19.0.0, SVG Export Plug-In . SVG Version: 6.00 Build 0)  -->
<svg version="1.1" id="Layer_1" xmlns="http://www.w3.org/2000/svg" xmlns:xlink="http://www.w3.org/1999/xlink" x="0px" y="0px"
	 viewBox="0 0 512 512" style="enable-background:new 0 0 512 512;" xml:space="preserve">
<path style="fill:#3E81C8;" d="M415.767,212.105h-0.012c-12.76-31.445-96.44-225.395-204.904-187.311
	c-117.956,41.409-100.387,210.806-95.37,232.137l0.472-0.058c-2.177,1.347-3.545,2.224-4.027,2.536
	C81.77,242.412,47.937,223.402,0,208.458C32.699,253.456,32.699,314.401,0,359.4c47.833-14.912,81.627-33.883,111.732-50.843
	c0.536,3.399,20.635,127.823,94.103,175.599c63.108,41.029,199.622-89.249,203.304-92.781l0.081-0.069L512,305.968
	C512,305.968,481.199,248.463,415.767,212.105z"/>
<path style="fill:#61ACD2;" d="M512,305.968l-102.78,85.337l-0.081,0.069l-1.243,1.024c-17.811,14.785-42.283,18.639-63.776,10.044
	l-73.878-29.869v65.778c0,5.086-4.119,9.204-9.204,9.204c-5.074,0-9.204-4.119-9.204-9.204v-71.53c0-0.552,0.058-1.093,0.161-1.622
	l-44.492-17.995v63.546c0,5.074-4.119,9.204-9.204,9.204c-5.074,0-9.204-4.131-9.204-9.204v-70.99l-77.375-31.284v-48.933
	c0,0,1.484-0.966,4.234-2.669c0,0,0.012,0,0.012-0.012c7.306-4.568,23.54-14.44,44.297-25.519c-0.012-0.115-0.023-0.23-0.023-0.345
	V128.102c0-5.085,4.119-9.204,9.204-9.204s9.204,4.119,9.204,9.204v93.736c13.887-6.915,28.983-13.853,44.331-19.916V76.661
	c0-5.085,4.119-9.204,9.204-9.204s9.204,4.119,9.204,9.204v118.485c15.222-5.155,30.306-9.089,44.331-10.953v-73.659
	c0-5.085,4.119-9.204,9.204-9.204c5.086,0,9.204,4.119,9.204,9.204v72.485c44.665,0.299,81.759,12.484,111.628,29.086h0.012
	C481.199,248.463,512,305.968,512,305.968z"/>
<path style="fill:#3E81C8;" d="M176.031,294.751c-4.776,0-8.813-3.69-9.17-8.53c-0.373-5.069,3.434-9.482,8.505-9.855
	l156.476-11.506c5.071-0.379,9.482,3.434,9.855,8.505c0.373,5.069-3.434,9.482-8.505,9.855l-156.476,11.506
	C176.486,294.742,176.258,294.751,176.031,294.751z"/>
<circle style="fill:#495577;" cx="434.326" cy="279.794" r="9.204"/>
<g>
</g>
<g>
</g>
<g>
</g>
<g>
</g>
<g>
</g>
<g>
</g>
<g>
</g>
<g>
</g>
<g>
</g>
<g>
</g>
<g>
</g>
<g>
</g>
<g>
</g>
<g>
</g>
<g>
</g>
</svg>
