<?xml version="1.0" encoding="iso-8859-1"?>
<!-- Generator: Adobe Illustrator 19.0.0, SVG Export Plug-In . SVG Version: 6.00 Build 0)  -->
<svg version="1.1" id="Layer_1" xmlns="http://www.w3.org/2000/svg" xmlns:xlink="http://www.w3.org/1999/xlink" x="0px" y="0px"
	 viewBox="0 0 512 512" style="enable-background:new 0 0 512 512;" xml:space="preserve">
<polygon style="fill:#61ACD2;" points="97.199,269.099 11.481,161.711 11.481,335.242 54.036,335.242 "/>
<path style="fill:#FBA026;" d="M28.102,103.003h228.63c86.704,0,167.013,45.613,211.42,120.082c0,0,30.77,45.79,31.519,46.987
	c36.252,58.053-15.225,91.418-54.038,115.405c-19.745,12.203-40.005,23.52-63.216,23.52H0l120.213-184.222L28.102,103.003z"/>
<path style="fill:#61ACD2;" d="M302.878,230.058c-2.616-5.47-0.303-12.028,5.17-14.644c5.473-2.618,12.03-0.303,14.644,5.168
	l59.114,123.603c2.814-4.244,4.715-9.167,5.375-14.489l3.543-28.593c5.973-48.209-14.323-96.372-53.961-124.454
	c-21.549-15.266-47.093-23.687-80.03-23.687H128.531l52.718,69.695L92.255,359.04h141.17l-27.34-57.165
	c-2.616-5.472-0.303-12.029,5.168-14.645c5.477-2.618,12.029-0.302,14.645,5.168l31.873,66.642h42.786l-44.512-93.073
	c-2.616-5.47-0.303-12.028,5.17-14.644c5.472-2.619,12.029-0.303,14.644,5.17l49.045,102.547h29.491c0.113,0,0.225,0,0.336-0.001
	c3.179-0.023,6.253-0.516,9.164-1.403L302.878,230.058z"/>
<circle style="fill:#C87F1E;" cx="445.207" cy="276.927" r="10.982"/>
<g>
</g>
<g>
</g>
<g>
</g>
<g>
</g>
<g>
</g>
<g>
</g>
<g>
</g>
<g>
</g>
<g>
</g>
<g>
</g>
<g>
</g>
<g>
</g>
<g>
</g>
<g>
</g>
<g>
</g>
</svg>
