<svg id="Layer_1" enable-background="new 0 0 512 512" height="512" viewBox="0 0 512 512" width="512" xmlns="http://www.w3.org/2000/svg"><path d="m496 276h-16v-112c0-3.88-.258-3.54-10.44-31.53-15.76-43.35-57.34-72.47-103.47-72.47h-47.51c-30.05 0-57.92 15.35-74.18 40h-99.4c-79.744 0-145 64.84-145 145v191c0 8.84 7.16 16 16 16h73.333l-12.333-62.333 19.34-69.477c3.1-8.27 12.32-12.46 20.6-9.36 8.27 3.1 12.46 12.32 9.36 20.6l-21.69 57.84 13.14 62.73h42.25c8.84 0 16-7.16 16-16 0-7.95-5.79-14.54-13.38-15.79l8.91-57.98c24.28 3.074 51.312 2.276 76.47-3.4v18.93l-15.38 53.84c-2.934 10.269 4.803 20.4 15.38 20.4h32c7.058 0 13.125-4.987 15.56-10.37l16.44-36.1v30.47c0 8.84 7.16 16 16 16h48c11.702 0 19.511-12.224 14.45-22.86l-12.45-26.24v-36.61c6.22 21.74 26.28 37.71 50 37.71 28.67 0 52-23.33 52-52v-44h16c8.84 0 16-7.16 16-16s-7.16-16-16-16zm-48 76c0 11.03-8.97 20-20 20-18.593 0-25.12-24-16-24h4c8.84 0 16-7.16 16-16s-7.16-16-16-16h-4c-15.71 0-29.1 10.12-34 24.18v-27.25l35.35-19.58c10.83 5.7 22.5 9.86 34.65 12.25z" fill="#999"/><path d="m480 164v76c-19.59 19.3-112 56-144-40 8 32-14.574 46.115-24 48-40 8-72-80-72-104-16 40 40 120 0 152s-136-16-136-16-16 56-56 56c-44.073 0-46.47-65.91-47.73-99.99 4.66-75.78 67.8-136.01 144.73-136.01h99.4c16.26-24.65 44.13-40 74.18-40h47.51c46.13 0 87.71 29.12 103.47 72.47 10.102 27.771 10.44 27.721 10.44 31.53z" fill="#aaa"/><g fill="#ece2e2"><path d="m496 308h-23.502c-45.511 0-87.81-24.547-110.39-64.062-4.384-7.672-1.718-17.446 5.954-21.831 7.671-4.383 17.446-1.718 21.831 5.954 16.896 29.57 48.548 47.939 82.605 47.939h23.502c8.836 0 16 7.164 16 16s-7.164 16-16 16z"/><path d="m496 308h-23.502c-45.511 0-87.81-24.547-110.39-64.062-4.384-7.672-1.718-17.446 5.954-21.831 7.671-4.383 17.446-1.718 21.831 5.954 16.896 29.57 48.548 47.939 82.605 47.939h23.502c8.836 0 16 7.164 16 16s-7.164 16-16 16z"/></g></svg>