<svg id="Layer_1" enable-background="new 0 0 512.125 512.125" height="512" viewBox="0 0 512.125 512.125" width="512" xmlns="http://www.w3.org/2000/svg"><path d="m200.001 264.141s8 152-32 160-48-24-48-88 8-80 32-80 48 8 48 8z" fill="#a07765"/><path d="m440.001 264.141s8 152-32 160-48-24-48-88 8-80 32-80 48 8 48 8z" fill="#a07765"/><path d="m511.921 278.551c-.827-8.256-7.785-14.419-15.92-14.408v-48.002c-483.158 48.316-461.007 46.568-461.51 45.31-1.94-4.85-3.61-9.76-5-14.74l-15.08 1.51c-8.8.88-15.21 8.72-14.33 17.51.82 8.25 7.78 14.41 15.9 14.41.1 0 .02-.832.02 31.921l-1.59.159c-8.79.88-15.21 8.72-14.33 17.51.85 8.551 8.401 15.174 17.51 14.33l38.41-3.84v-16.08l112.838-11.284c-.831 5.495-1.856 10.965-3.098 16.384 2.194-.219 54.818-5.483 116.56-11.65-.535-5.304-.977-10.622-1.326-15.947l106.818-10.682c-1.336 5.454-2.52 10.932-3.522 16.429 56.118-5.619 14.195-1.425 113.32-11.33 8.79-.88 15.21-8.72 14.33-17.51z" fill="#f2a661"/><path d="m420.761 48.141c-44.09 0-66.513-2.373-98.55 11.36-18.54 7.94-38.88 10.56-58.82 7.57l-70.96-10.64c-94.237-14.15-181.505 64.413-167.05 170.65 3.177 23.976 12.706 43.322 30.62 88.14 0 70.616-.651 71.498 1.79 79 8.42 28.929 46.036 40.988 70.07 17.54 9.475-9.474 43.53-62.891 43.53-132.45 64.58 5.324 107.272-15.49 108.44-15.49.456 8.821-1.237 50.092 10.08 102.39 1.713 8.32 8.109 35.723 12.32 43.64 2.293 4.582 6.515 9.847 11.37 13.56 29.698 22.498 71.072-1.167 67.47-37.4-5.309-53.146 4.704-86.959 13.96-124.04 5.18 1.372 10.919 2.17 16.69 2.17 10.523 0 22.575.734 37.92-6.93 24.051-12.026 29.805-14.628 34.36-17.96 15.295-10.195 26.492-28.28 27.92-50.46.107-3.526.08 5.82.08-49.41 0-50.168-40.633-91.24-91.24-91.24zm59.24 137.32c0 7.064-2.241 13.802-5.72 18.81-6.317 9.477-12.859 11.269-38.95 24.32-8.348 4.165-14.604 3.55-23.61 3.55-9.657 0-12.214-2.132-41.13-16.59-11.47-5.74-18.59-17.26-18.59-30.09 0-6.694-.689-17.994 9.85-28.55 8.647-8.637 15.911-18.02 31.94-18.02 5.11 0 10.26 1.17 15.05 3.56 4.51 2.25 9.81 2.25 14.32 0 12.97-6.48 28.57-3.95 38.82 6.3 13.072 13.057 18.02 16.359 18.02 36.71z" fill="#c79a83"/><path d="m497.601 232.061-5.52.55c7.57-7.29 13.24-16.29 16.55-26.26 7.625 9.755 1.584 24.447-11.03 25.71z"/><path d="m367.751 421.041c-2.46 24.17-22.94 43.1-47.75 43.1h-8c-8.84 0-16-7.16-16-16s7.16-16 16-16c7.974 0 10.916.437 15.23-1.74-.42-.12-.83-.25-1.24-.39 14.241 4.713 30.312 1.557 41.76-8.97z" fill="#ece2e2"/><path d="m127.851 411.781c-1.88 24.78-22.61 44.36-47.85 44.36h-8c-8.84 0-16-7.16-16-16s7.16-16 16-16c7.975 0 10.666.412 14.79-1.54 14.145 3.979 30.057.238 41.06-10.82z" fill="#ece2e2"/><path d="m497.601 232.061-5.53.55c-4.73 4.59-10.22 8.5-16.35 11.56-25.741 12.871-36.219 19.97-55.44 19.97-9.315 0-15.636.357-25.25-2.17 0 0-15.981 26.17-51.03 26.17-16 0-72-104-72-104s-24 24-56 40-80-48-80-48-8 80-24 128c-11.6 34.81-61.07-60.81-87.38-115.99 7.864-85.012 85.493-144.08 167.81-131.72l70.96 10.64c19.94 2.99 40.28.37 58.82-7.57 31.8-13.631 52.36-11.36 98.55-11.36 50.572 0 91.24 41.038 91.24 91.24 0 47.171 1.119 53.492-3.36 66.95 0 .237 2.752 2.935 3.28 8.21.88 8.79-5.53 16.64-14.32 17.52z" fill="#e0b7a3"/><path d="m480.001 180.701c0 9.965-.438 17.496-7.82 26.35-2.95 3.54-6.631 6.431-10.78 8.5-28.05 14.031-31.085 16.59-41.12 16.59-19.21 0-14.395 1.049-49.69-16.59-11.47-5.74-18.59-17.26-18.59-30.09 0-6.694-.689-17.994 9.85-28.55 8.647-8.637 15.911-18.02 31.94-18.02 5.11 0 10.26 1.17 15.05 3.56 4.51 2.25 9.81 2.25 14.32 0 12.97-6.48 28.57-3.95 38.82 6.3 9.397 9.385 18.02 16.2 18.02 31.95z" fill="#ffdfba"/></svg>