<svg id="Layer_1" enable-background="new 0 0 512.002 512.002" height="512" viewBox="0 0 512.002 512.002" width="512" xmlns="http://www.w3.org/2000/svg"><path d="m511.69 155.141-1.44 7.18c-5.29 26.47-28.72 45.68-55.71 45.68-26.412 0-25.057.024-26.98-.07l-18.14 54.4c-12.42 37.27-36.83 69.97-68.95 92.52l-28.47 56.93v68.22c8.84 0 16 7.16 16 16s-7.16 16-16 16h-16c-8.84 0-16-7.16-16-16v-86.42l-6.73-33.65-17.27 33.46v86.61c0 8.84-7.16 16-16 16s-16-7.16-16-16v-136.42c-3.92.28-7.85.42-11.78.42-65.663 0-62.651.574-67.11-1.56-4.35 7.65-9.29 14.98-14.79 21.92l33.21 99.64h4.47c8.84 0 16 7.16 16 16s-7.16 16-16 16h-16c-6.89 0-13-4.41-15.18-10.94l-31.62-94.85c-10.927 9.565-4.186 5.644-33.78 18.18l19.86 55.61h12.72c8.84 0 16 7.16 16 16s-7.16 16-16 16h-24c-6.76 0-12.79-4.25-15.07-10.62-35.546-99.54-25.832-72.342-40-112-2.08-5.82-.62-12.32 3.76-16.69 14.915-14.914 19.94-37.441 12.44-57.45l-5.3-14.11-10.23 7.67c-7.036 5.277-17.08 3.9-22.4-3.2-5.3-7.07-3.87-17.1 3.2-22.4l29.44-22.08c11.65-39.89 48.56-69.12 92.16-69.12h175.44c52.419-78.635 50.596-76.888 56.85-82.6.274-.269-14.998-9.101-28.68-29.4h-33.61c-35.29 0-64-28.71-64-64 0-8.84 7.16-16 16-16s16 7.16 16 16c0 17.65 14.35 32 32 32h18.58c-2.99-10.24-4.58-21-4.58-32 0-8.84 7.16-16 16-16s16 7.16 16 16c0 11.2 2.28 22.05 6.47 32h29.53c11.03 0 20-8.97 20-20 0-8.84 7.16-16 16-16s16 7.16 16 16c0 28.67-23.33 52-52 52h-5.53c9.946 8.089 17.534 10.937 28.93 16h11.3c19.13 0 36.35 10.59 45.11 27.07 25.485 8.499 15.979 5.33 41.25 13.75 7.65 2.55 12.21 10.41 10.63 18.32z" fill="#c79a83"/><path d="m480.05 129.821c-3.98 14.08-12 26.16-24.05 30.18-24 8-64 8-64 8s-40 96-48 112-32 48-32 24-24-8-72 0-88-40-88-40-59.29 88.94-113.68 95.6c7.09-13.5 8.32-29.66 2.81-44.36l-5.3-14.11-10.23 7.67c-7.036 5.277-17.08 3.9-22.4-3.2-5.3-7.07-3.87-17.1 3.2-22.4l29.44-22.08c11.65-39.89 48.56-69.12 92.16-69.12h175.44c52.419-78.635 50.596-76.888 56.85-82.6.274-.269-14.998-9.101-28.68-29.4h-33.61c-35.29 0-64-28.71-64-64 0-8.84 7.16-16 16-16s16 7.16 16 16c0 17.65 14.35 32 32 32h18.58c-2.99-10.24-4.58-21-4.58-32 0-8.84 7.16-16 16-16s16 7.16 16 16c0 11.2 2.28 22.05 6.47 32h29.53c11.03 0 20-8.97 20-20 0-8.84 7.16-16 16-16s16 7.16 16 16c0 28.67-23.33 52-52 52h-5.53c9.946 8.089 17.534 10.937 28.93 16h11.3c19.13 0 36.35 10.59 45.11 27.07z" fill="#e0b7a3"/><g fill="#ece2e2"><path d="m380 80.001h-82c-35.29 0-64-28.71-64-64 0-8.836 7.164-16 16-16s16 7.164 16 16c0 17.645 14.355 32 32 32h82c11.028 0 20-8.972 20-20 0-8.836 7.164-16 16-16s16 7.164 16 16c0 28.673-23.327 52-52 52z"/><path d="m399.992 128.005c-4.5 0-6.101-1.21-20.006-7.39-41.3-18.356-67.986-59.419-67.986-104.614 0-8.836 7.164-16 16-16s16 7.164 16 16c0 32.562 19.227 62.147 48.982 75.372l13.517 6.007c15.735 6.994 10.711 30.625-6.507 30.625z"/></g></svg>