<svg id="Layer_1" enable-background="new 0 0 512.016 512.016" height="512" viewBox="0 0 512.016 512.016" width="512" xmlns="http://www.w3.org/2000/svg"><path d="m467.102 200.008c-39.251 0-44.541.621-56.89-1.98l-18.85 64.1c-9.092 30.922-28.176 56.683-52.77 74.27l-49.18 89.2 18.13 54.41h4.47c8.84 0 16 7.16 16 16s-7.16 16-16 16h-16c-6.89 0-13-4.41-15.18-10.94-26.716-80.15-24.433-72.542-24.8-76.21-.17-2.38-1.01-14.17-2.08-29.76l-20.32 31.17 17.91 53.74h4.47c8.84 0 16 7.16 16 16s-7.16 16-16 16h-16c-6.89 0-13-4.41-15.18-10.94-25.598-76.795-24.79-73.661-24.79-76.08 0-.685-2.124-29.14-4.93-72.04l-59.76-11.95c-4.62 7.29-9.75 14.229-15.34 20.78v118.23h8c8.84 0 16 7.16 16 16s-7.16 16-16 16h-24c-8.84 0-16-7.16-16-16v-104.74c-11.061 7.989-23.458 14.562-25.67 15.43-1.047.458 1.094-.263-30.33 9.69v63.62h8c8.84 0 16 7.16 16 16s-7.16 16-16 16h-24c-8.84 0-16-7.16-16-16v-136c0-3.46 1.12-6.83 3.2-9.6 11.56-15.41 18.64-34 20.38-53.15.506-5.549.45-4.026.45-51.42-6.799 3.958-15.54 2.395-20.52-3.83-5.52-6.91-4.41-16.97 2.49-22.49l38.65-30.92c17.59-22.27 44.83-36.59 75.35-36.59h183.44c11.561-17.348 12.495-19.774 17.13-22.17 11.787-6.117 74.352-3.07 79.42-66.4-.31-17.38-14.54-31.43-31.99-31.43-17.65 0-32 14.36-32 32v4c0 6.62 5.38 12 12 12s12-5.38 12-12c0-8.84 7.16-16 16-16s16 7.16 16 16c0 24.261-19.739 44-44 44-24.26 0-44-19.74-44-44v-4c0-35.29 28.71-64 64-64 30.97 0 56.87 22.11 62.74 51.38.255 0 6.001 2.863 10.5 7.86 46.573 51.737 33.081 36.745 59.23 65.81 25.809 28.618 5.53 74.95-33.38 74.95z" fill="#cccaca"/><path d="m441.252 59.248c-4.323-4.802-10.133-7.86-10.5-7.86-5.87-29.27-31.77-51.38-62.74-51.38-35.29 0-64 28.71-64 64v4c0 25.648 21.988 46.016 47.733 43.84 10.439.718 20.232-1.179 28.684-4.991-12.094 10.703-30.044 17.532-54.837 21.331-8.668 1.239-11.12 7.284-22.14 23.82h-183.44c-30.52 0-57.76 14.32-75.35 36.59l-38.65 30.92c-11.806 9.445-5.04 28.49 10.01 28.49 2.76 0 5.53-.72 8.02-2.17 0 29.575.193 44.365-.45 51.42 16.51 21.53 34.02 36.51 48.42 30.75 40-16 80-56 80-56s32 32 64 32 48-16 48-16 48 32 72-16 32-120 32-120 80 16 88-8c8.672-26.015 16.07-32.07 24.02-41.68z" fill="#ece2e2"/><path d="m348.012 112.008c-24.262 0-44-19.738-44-44v-4c0-35.29 28.71-64 64-64s64 28.71 64 64c0 8.837-7.164 16-16 16s-16-7.163-16-16c0-17.645-14.355-32-32-32s-32 14.355-32 32v4c0 6.617 5.383 12 12 12s12-5.383 12-12c0-8.837 7.164-16 16-16s16 7.163 16 16c0 24.265-19.74 44-44 44z" fill="#999"/></svg>