<svg id="Layer_1" enable-background="new 0 0 512.142 512.142" height="512" viewBox="0 0 512.142 512.142" width="512" xmlns="http://www.w3.org/2000/svg"><path d="m511.522 339.952c-6.49 25.98-29.73 44.12-56.5 44.12h-3.49l8 24h4.47c8.84 0 16 7.16 16 16s-7.16 16-16 16h-16c-6.89 0-13-4.41-15.18-10.94l-15.02-45.06c-10.33 0-4.095-.824-28.89 4.14l6.62 19.86h4.47c8.84 0 16 7.16 16 16s-7.16 16-16 16h-16c-6.89 0-13-4.41-15.18-10.94l-12.35-37.06h-60.47v16h8c8.84 0 16 7.16 16 16s-7.16 16-16 16h-24c-8.84 0-16-7.16-16-16v-34.16c-4.864-2.805-6.033-6.58-6.26-6.58-11.71-1.44-23-3.76-33.74-6.87v31.61h8c8.84 0 16 7.16 16 16s-7.16 16-16 16h-24c-8.84 0-16-7.16-16-16v-40.42c-45.706 10.445-73.762 8.42-144 8.42-8.84 0-16-7.16-16-16s7.16-16 16-16c72.539 0 91.302 1.404 127.05-5.53 0-.21-11.955-6.989-24.56-19.77-39.684-1.084-125.011-3.852-146.25-26.85-5.99-6.49-5.59-16.61.91-22.61 6.49-5.99 16.61-5.58 22.61.91 1.18 1.15 14.31 11.68 98.87 15.66.35.02.7.03 1.05.05-5.171-11.742-7.576-23.526-7.67-35.07-21.4-2.71-43.01-3.81-62.42-1.87-8.79.87-16.63-5.54-17.51-14.33s5.54-16.63 14.33-17.51c22.5-2.25 47.15-.96 71.21 2.14 2.844-7.647 6.788-15.095 11.64-22.09-4.343.4-8.847 1.147-13.05 2.31-8.53 2.32-17.32-2.7-19.65-11.23-2.32-8.53 2.71-17.32 11.23-19.65 16.979-4.638 34.401-4.591 51.4-1.62 1.605-1.566 13.695-9.594 25.61-15.39-22.732-7.13-46.257-9.28-69.85-4.82-8.69 1.63-17.05-4.1-18.68-12.78-1.62-8.69 4.1-17.05 12.78-18.68 41.673-7.809 82.721.942 121.16 20.76.525 0 12.59-3.096 31.16-4.43-55.97-27.785-117.79-34.325-179.67-27.69-8.79.93-16.67-5.42-17.61-14.21-.94-8.78 5.42-16.67 14.21-17.61 90.35-9.665 178.83 7.857 250.37 64.51 1.164 0 32.547 7.003 59.98 24.53-47.25-66.9-117.06-73.11-117.88-73.18-8.81-.67-15.4-8.37-14.72-17.18.67-8.81 8.36-15.41 17.18-14.72 1.19.09 29.52 2.44 63.93 19.64 31.58 15.79 74.84 47.7 101.55 110.01 10.213 23.833 44.733 102.986 60.82 123.17 4.44 3.92 5.44 9.21 3.99 15.01z" fill="#aaa"/><path d="m446.712 201.772c-26.71-62.31-69.97-94.22-101.55-110.01-34.41-17.2-62.74-19.55-63.93-19.64-8.82-.69-16.51 5.91-17.18 14.72-.68 8.81 5.91 16.51 14.72 17.18.82.07 70.63 6.28 117.88 73.18-17.17-10.97-37.53-19.41-59.97-24.53-2.743 0-85.525-82.146-250.38-64.51-8.79.94-15.15 8.83-14.21 17.61.94 8.79 8.82 15.14 17.61 14.21 62.457-6.697 124.069.088 179.67 27.69-10.72.77-21.13 2.27-31.14 4.43-1.936 0-54.648-33.227-121.18-20.76-8.68 1.63-14.4 9.99-12.78 18.68 1.63 8.68 9.99 14.41 18.68 12.78 23.594-4.461 47.117-2.311 69.85 4.82-9.25 4.5-17.82 9.66-25.6 15.38-.427.417-23.733-5.93-51.41 1.63-8.52 2.33-13.55 11.12-11.23 19.65 2.33 8.53 11.12 13.55 19.65 11.23 4.203-1.163 8.707-1.91 13.05-2.31-1.79 2.58-3.45 5.21-4.97 7.89-.893 1.537-1.047 1.364.4 1.3 19.04 60.52 93.89 105.68 183.31 105.68 66.88 0 125.61-25.27 158.93-63.32-7.76-16.39-17.1-37.03-28.22-62.98z" fill="#cccaca"/><g fill="#999"><path d="m117.637 392.072h-69.635c-8.836 0-16-7.163-16-16s7.164-16 16-16h69.635c51.171 0 101.863-13.136 146.594-37.986 7.727-4.291 17.466-1.509 21.757 6.216 4.292 7.725 1.508 17.466-6.216 21.757-49.474 27.485-105.539 42.013-162.135 42.013z"/><path d="m392.014 256.076c-5.857 0-11.496-3.228-14.305-8.813-.262-.513-19.729-38.205-64.702-72.458-60.146-45.81-135.276-64.256-223.301-54.823-8.793.928-16.672-5.419-17.613-14.205s5.418-16.672 14.204-17.613c89.095-9.544 176.23 7.321 247.473 62.237 50.325 38.792 71.659 80.749 72.543 82.517 5.358 10.716-2.547 23.158-14.299 23.158z"/><path d="m352.016 291.074c-9.437 0-12.931-6.957-13.212-6.957-.251-.366-25.644-37.065-65.617-70.229-51.706-42.898-102.254-60.088-150.237-51.09-8.686 1.636-17.046-4.092-18.675-12.777-1.628-8.685 4.092-17.046 12.777-18.674 64.782-12.149 126.146 15.897 177.192 58.434 43.21 36.009 69.849 74.631 70.962 76.257 7.321 10.698-.507 25.036-13.19 25.036z"/><path d="m320.005 312.072c-7.421 0-11.795-5.077-11.695-5.077-1.056-1.129-106.488-112.654-184.099-91.486-8.529 2.323-17.322-2.701-19.646-11.227-2.325-8.525 2.701-17.321 11.226-19.646 96.215-26.233 211.064 95.332 215.907 100.52 9.549 10.23 2.186 26.916-11.693 26.916z"/><path d="m242.62 296.14c-1.296-.461-109.678-38.679-185.026-31.147-8.797.868-16.633-5.536-17.513-14.329-.879-8.792 5.536-16.633 14.328-17.513 82.638-8.262 194.262 31.17 198.974 32.853 8.322 2.973 12.659 12.128 9.687 20.45-2.973 8.323-12.129 12.656-20.45 9.686z"/><path d="m124.236 333.804c-89.118-4.266-110.938-16.071-119.992-25.879-5.994-6.493-5.589-16.616.904-22.609 6.494-5.994 16.615-5.588 22.609.904 1.185 1.152 14.312 11.683 98.873 15.662 45.531 2.141 88.578 1.204 89.008 1.194 8.834-.186 16.158 6.799 16.358 15.633.2 8.835-6.798 16.158-15.632 16.359-23.415.516-60.427.254-92.128-1.264z"/><path d="m432.009 224.076c-6.208 0-12.113-3.634-14.713-9.701-43.678-101.914-137.578-110.277-138.521-110.35-8.811-.678-15.403-8.37-14.726-17.181.678-8.81 8.368-15.415 17.18-14.726 1.189.092 29.521 2.438 63.928 19.643 31.588 15.794 74.848 47.7 101.551 110.008 4.538 10.59-3.291 22.307-14.699 22.307z"/></g></svg>