<svg id="Layer_1" enable-background="new 0 0 512.71 512.71" height="512" viewBox="0 0 512.71 512.71" width="512" xmlns="http://www.w3.org/2000/svg"><path d="m469.952 314.96 37.32 112.02c3.677 11.044-5.36 22.225-16.85 20.97-1.198.129 2.88.09-49.71.09-7.9 0-14.61-5.77-15.81-13.57l-12.05-78.33c-4.12 2.05-8.17 3.84-12.14 5.36v70.54c0 8.83-7.16 16-16 16h-48c-7.5 0-13.99-5.21-15.62-12.53l-12.17-54.78c-40.499 12.606-84.299 20.244-126.16 18.22-16.769 43.071-15.223 39.17-15.64 40.05-2.707 5.419-7.725 8.437-12.62 8.94-1.484.149.848.1-33.79.1-10.46 0-18.175-9.926-15.46-20.13l11.1-41.61c-4.43-1.59-8.78-3.32-13.04-5.2l-32.61 58.71c-2.83 5.08-8.18 8.23-13.99 8.23h-32c-10.46 0-18.175-9.926-15.46-20.13l27.18-101.91c-14.83-3.52-23.62-6.4-24.78-6.79-6.087-2.025-10.351-7.496-10.88-13.84-2.311-26.642.493-69.006 9.44-104.29 18.67-73.27 61.46-117.81 123.72-128.8 34.66-6.12 111.06-13.85 152.11.67 58.931 20.852 100.34 76.475 123.16 134.85 27.107-16.276 72.222-42.165 85.82-14.92 8.82 17.64 16.61 63.37 17.47 68.53.76 4.54-.48 9.19-3.4 12.76-8.371 10.219-23.628 26.601-39.14 40.79z" fill="#c79a83"/><path d="m424.432 199.021c-1.14 50.094-60.021 71.315-128.01 105.31-64 32-192 16-280 8-5.58-.51-10.65-2.05-15.24-4.48-1.67-6.765-2.939-53.812 7.04-98.42 15.405-69.956 54.877-124.647 125.71-137.15 34.66-6.12 111.06-13.85 152.11.67 59.13 20.922 100.217 76.484 123.16 134.85 4.579-2.751 9.78-5.79 15.23-8.78z" fill="#90c94f"/><path d="m341.362 106.141c-1.76 13.77-3.72 29.16-4.94 46.19-8 112-144 120-176 120-54.479 0-144-8-152.2-62.9 15.405-69.956 54.877-124.647 125.71-137.15 34.66-6.12 111.06-13.85 152.11.67 21.45 7.59 39.78 19.4 55.32 33.19z" fill="#aaef68"/><path d="m509.091 274.17c-.59.72-11.53 14.03-28.18 30.39-19.41 1.07-41.95-.23-64.49-.23-40.05 0-22.82-65.46-9.74-102.76.9 2.18 1.75 4.26 2.52 6.229 27.107-16.276 72.222-42.165 85.82-14.92 8.82 17.64 16.61 63.37 17.47 68.53.761 4.542-.479 9.192-3.4 12.761z" fill="#e0b7a3"/></svg>