<svg id="Layer_1" enable-background="new 0 0 512.003 512.003" height="512" viewBox="0 0 512.003 512.003" width="512" xmlns="http://www.w3.org/2000/svg"><path d="m486.561 299.022c-1.595-3.19-4.214-5.514-4.87-5.85-3.022-2.318-37.295-18.34-78.83-46.95.58-1.44 1.12-2.93 1.62-4.46 40.871-11.956 73.035-46.941 79.44-91.78 1.373-9.693-6.154-18.26-15.84-18.26-24.98 0-49.45 3.98-72.96 11.85-6.821-12.131-14.985-20.033-26.31-26.46 8.08-23.79 12.17-48.57 12.17-73.88 0-9.696-8.605-17.23-18.27-15.84-44.979 6.428-80.105 38.791-91.92 79.94-1.72.55-3.39 1.15-5.02 1.8-39.895-57.93-42.041-77.547-52.79-83.69-66.97-32.667-132.833-32.941-202.7-6.18-10.162 3.897-13.571 16.619-6.67 25.071 38.807 47.483 30.148 79.631 16.63 139.8-1.87 8.31 3.09 16.62 11.28 18.92 26.5 7.44 60.03 40.06 62.94 61.24.92 6.686 2.081 6.511 30.58 37.05-31.946 74.131 9.68 118.346 85.62 85.62 30.491 28.455 30.353 29.658 37.05 30.58 21.18 2.91 53.8 36.44 61.24 62.94 2.3 8.19 10.61 13.15 18.92 11.28 59.976-13.469 92.256-22.226 139.8 16.63 8.43 6.883 21.165 3.517 25.07-6.67 26.759-69.86 26.49-135.725-6.18-202.701z" fill="#999"/><path d="m248.001 184.002s-104 80-104 104-32 80-8 88 96 0 104-16 88-96 88-96 32 8 48 0 24-72 16-96-16-40-40-40-80 0-88 0-16 56-16 56z" fill="#aaa"/><path d="m232.001 184.002-104 136s40 56 104-8 40-96 40-96 48 32 72 0 40-64 24-80-104-8-112 0-16 48-16 48z" fill="#cccaca"/><g fill="#aaa"><path d="m94.81 155.859c-12.022 0-19.989-13.062-13.935-23.84 25.055-44.598 64.774-80.45 118.054-106.562 7.933-3.889 17.52-.609 21.408 7.326 3.889 7.935.608 17.52-7.326 21.408-48.014 23.531-82.11 54.115-104.237 93.501-2.936 5.226-8.368 8.167-13.964 8.167z"/><path d="m161.511 178.089c-11.063 0-18.835-11.024-15.036-21.472l44.458-122.261c3.021-8.305 12.203-12.587 20.505-9.569 8.305 3.021 12.589 12.2 9.569 20.505l-44.458 122.261c-2.364 6.5-8.501 10.536-15.038 10.536z"/><path d="m372.162 433.182c-16.461 0-22.131-21.93-7.852-29.952 39.386-22.127 69.97-56.224 93.501-104.237 3.889-7.937 13.476-11.215 21.408-7.326 7.935 3.889 11.215 13.474 7.326 21.408-26.111 53.279-61.964 92.999-106.562 118.054-2.477 1.392-5.167 2.053-7.821 2.053z"/><path d="m176.013 208.006c-5.92 0-11.61-3.299-14.386-8.976l-14.76-30.188c-3.881-7.938-.593-17.521 7.346-21.402s17.521-.593 21.402 7.346l14.76 30.188c5.225 10.688-2.649 23.032-14.362 23.032z"/><path d="m350.18 366.763c-4.915 0-4.24-.268-37.207-16.387-7.938-3.882-11.227-13.464-7.346-21.402 3.882-7.938 13.463-11.228 21.402-7.346l23.647 11.563 116.034-42.194c8.303-3.017 17.483 1.264 20.505 9.569 3.02 8.305-1.265 17.484-9.569 20.505-137.651 50.054-124.872 45.692-127.466 45.692z"/><path d="m164.512 397.997c-32.52 0-52.995-21.916-50.255-56.722 4.834-61.468 72.386-136.987 128.039-173.609 8.482-5.582 19.955-1.941 23.678 7.493 11.369 28.809 41.869 59.426 70.87 70.871 9.447 3.728 13.067 15.206 7.493 23.678-41.34 62.826-121.714 128.289-179.825 128.289zm80.534-193.113c-33.697 25.467-68.07 63.268-86.631 100.558-14.774 29.658-14.707 49.616-8.087 56.241 6.616 6.611 26.575 6.682 56.228-8.092 37.229-18.53 74.995-52.801 100.563-86.634-24.53-14.393-47.155-36.648-62.073-62.073z"/><path d="m353.892 281.789c-65.269 0-159.687-108.872-109.495-159.07 31.491-31.462 109.172-24.615 139.338 5.551 38.216 38.21 39.511 153.519-29.843 153.519zm-83.915-138.911c-10.69 7.556-8.78 20.162-4.001 32.285 18.342 46.477 84.664 93.018 103.168 66.837 14.741-20.966 9.698-73.37-8.036-91.104-17.636-17.636-69.986-22.895-91.131-8.018z"/><path d="m343.083 140.393c-16.888-6.229-38.74-7.956-55.674-4.402-11.169 2.345-21.141-7.447-19.005-18.653 8.77-46.029 45.863-83.034 94.318-89.944 9.631-1.366 18.259 6.1 18.259 15.84 0 30.449-5.915 60.15-17.581 88.279-3.294 7.942-12.265 11.85-20.317 8.88zm-36.039-38.212c10.63.058 21.508 1.301 31.807 3.665 4.503-13.506 7.516-27.378 9.017-41.5-17.719 7.319-32.272 20.973-40.824 37.835z"/><path d="m375.898 225.071c3.672-16.879 2.032-38.797-4.18-55.84-2.94-8.068 1.014-17.02 8.958-20.28 27.854-11.432 57.261-17.229 87.405-17.229 9.743 0 17.217 8.641 15.839 18.268-6.862 47.917-43.256 85.114-89.297 94.181-11.328 2.237-21.162-7.908-18.725-19.1zm30.357-51.476c2.326 10.283 3.533 21.12 3.563 31.702 16.426-8.533 29.865-22.857 37.14-40.46-13.849 1.473-27.453 4.399-40.703 8.758z"/></g></svg>