<svg id="Layer_1" enable-background="new 0 0 512.011 512.011" height="512" viewBox="0 0 512.011 512.011" width="512" xmlns="http://www.w3.org/2000/svg"><path d="m511.187 256.911c-6.05 18.15-17.42 28.48-29.02 34.43l.04.05c19.222 26.932 18.786 18.268-3.89 63.62-3.202 6.404-10.187 9.771-16.94 8.62-45.748-7.63-45.06-7.78-51.6-7.78-13.867 0-27.84-3.16-40.8-9.63-18.989-9.495-24.529-11.789-32.97-18.31v9.34l11.67 35.02c7.07 1.66 12.33 8.01 12.33 15.58 0 8.84-7.16 16-16 16h-8c-6.89 0-13-4.41-15.18-10.94l-14.42-43.26-14.99-11.24-11.41 28.52v4.92c8.84 0 16 7.16 16 16s-7.16 16-16 16h-16c-8.84 0-16-7.16-16-16 0-25.494-.376-26.119 1.14-29.94 6.385-15.941 5.769-14.68 5.87-14.68-35.849 4.232-70.639-10.663-98.69-33.6-.82 1.35-1.68 2.67-2.59 3.98l27.58 41.37c3.19 4.77 3.57 10.89 1 16.03l-8 16c-3.954 7.907-13.581 11.095-21.47 7.15-7.9-3.95-11.1-13.56-7.15-21.47l3.85-7.69-19.28-28.91c-10.566 6.636-17.691 9.155-82.26 26.97v8.79c8.84 0 16 7.16 16 16s-7.16 16-16 16h-16c-8.84 0-16-7.16-16-16v-64c0-4.24 1.69-8.31 4.69-11.31l33.79-33.79c-4.284-19.251-6.423-26.646-6.65-38.89-12.01 11.76-18.19 21.36-18.29 21.52-4.697 7.503-14.538 9.731-22.04 5.06-7.49-4.68-9.75-14.58-5.07-22.07.83-1.32 20.09-31.68 58.12-54.7 10.424-18.314 26.95-33.668 47.92-42.34 22.704-9.408 32.275-7.48 101.01-7.48 36.512 0 45.335-14.25 87.78-14.25 11.52 0 22.93 1.28 34.08 3.81 8.045-14.766 20.674-25.772 36.07-19.38 15.582 6.452 26.433 30.655 33.42 46.71l13.76 6.03c19.91 8.71 33.78 27.55 36.18 49.15l4.67 42.02 7.7 10.78c9.33-3.25 14.67-8.89 17.68-17.93 2.8-8.38 11.85-12.91 20.24-10.12 8.38 2.8 12.91 11.86 10.12 20.24z" fill="#c79a83"/><path d="m511.187 256.911c-6.05 18.15-17.42 28.48-29.02 34.43.126.157-33.031 1.435-66.16-3.3-56-8-80-48-80-48s-8 8-72 40-120-24-120-24-8 8-32 32c-14.74 14.74-58.6 17.41-84.08 17.27l26.56-26.56c-4.284-19.251-6.423-26.646-6.65-38.89-12.01 11.76-18.19 21.36-18.29 21.52-4.697 7.503-14.538 9.731-22.04 5.06-7.49-4.68-9.75-14.58-5.07-22.07.83-1.32 20.09-31.68 58.12-54.7 10.424-18.314 26.95-33.668 47.92-42.34 22.704-9.408 32.275-7.48 101.01-7.48 36.512 0 45.335-14.25 87.78-14.25 11.52 0 22.93 1.28 34.08 3.81 8.045-14.766 20.674-25.772 36.07-19.38 15.582 6.452 26.433 30.655 33.42 46.71l13.76 6.03c19.91 8.71 33.78 27.55 36.18 49.15l4.67 42.02 7.7 10.78c9.33-3.25 14.67-8.89 17.68-17.93 2.8-8.38 11.85-12.91 20.24-10.12 8.38 2.8 12.91 11.86 10.12 20.24z" fill="#e0b7a3"/><path d="m432.069 285.262c-.779-8.802 5.726-16.569 14.527-17.348 20.162-1.784 29.759-7.706 34.231-21.122 2.794-8.382 11.854-12.914 20.238-10.119 8.383 2.794 12.914 11.855 10.119 20.239-12.85 38.551-49.67 41.808-61.769 42.878-8.777.777-16.565-5.704-17.346-14.528z"/><path d="m432.069 285.262c-.779-8.802 5.726-16.569 14.527-17.348 20.162-1.784 29.759-7.706 34.231-21.122 2.794-8.382 11.854-12.914 20.238-10.119 8.383 2.794 12.914 11.855 10.119 20.239-12.85 38.551-49.67 41.808-61.769 42.878-8.777.777-16.565-5.704-17.346-14.528z" fill="#ece2e2"/><path d="m347.992 220.853c-11.98.001-30.14-17.367-28.054-50.873 1.859-29.864 20.529-71.114 47.481-59.952 10.936 4.53 20.408 17.308 31.674 42.728 6.969 15.725 11.886 30.417 12.092 31.035 2.795 8.383-1.736 17.444-10.119 20.239-8.382 2.793-17.444-1.736-20.238-10.119-6.443-19.297-15.268-38.917-21.603-48.785-8.773 16.973-10.112 41.233-2.344 46.412 13.209 8.806 6.797 29.315-8.889 29.315z" fill="#c79a83"/></svg>