<svg id="Layer_1" enable-background="new 0 0 511.999 511.999" height="512" viewBox="0 0 511.999 511.999" width="512" xmlns="http://www.w3.org/2000/svg"><path d="m507.31 206.451c-8.24-8.25-13.84-18.64-16.18-30.07-3.28-15.96-14.91-29.08-30.37-34.23-9.59-3.2-18.99-7.19-27.95-11.87l-30.82-24.64c-7.691-6.153-19.027-3.935-23.87 4.54-4.89 8.52-8.83 17.9-11.73 27.88s-9.51 18.45-18.38 23.7c-221.834 0-141.707.414-170.13-.3-32.36-.79-59.37 9.1-80.37 29.47-18.82 18.25-29.89 41.85-38.78 60.8-5.27 11.24-14.09 30.03-18.73 30.03-1.74 0-5.78 0-6.98-.72-.17-.27-1.02-1.87-1.02-6.28 0-8.83-7.16-16-16-16s-16 7.17-16 16c0 20.01 9.26 29.53 17.02 34 8.71 5 17.99 5 22.98 5 35.704 0 43.006-48.619 66.3-83.37-1.51 6.45-2.3 13.18-2.3 20.08 0 11.88-3.65 23.28-10.56 32.95l-26.43 37c-3.896 5.412-3.01 8.042-3.01 34.72 0 18.86 7.35 36.6 20.69 49.94 5.888 5.888 11.132 4.68 27.31 4.68 8.84 0 16-7.16 16-16 0-8.83-7.16-16-16-16h-8.69c-8.41-11.58-7.31-21.707-7.31-34.12 45.251-6.464 43.606-6.034 45.94-7.02 38.214-15.279 35.559-14.211 36.01-14.41l17.215 51.644c5 14.999 15.54 27.152 29.68 34.222 4.314 2.158 7.415 1.689 15.155 1.689 8.836 0 16-7.163 16-16s-7.164-16-16-16h-3.765c-5.025-3.334-8.775-8.218-10.713-14.03-19.97-59.91-18.497-55.987-19.761-58.124 1.606.219-4.908.15 104.352.15-12.732 25.464-14.896 27.66-13.953 34.267l8 56c1.126 7.883 7.877 13.737 15.839 13.737h16c8.836 0 16-7.163 16-16s-7.164-16-16-16h-2.123l-5.331-37.315 13.765-27.529c1.323-2.646 1.277-4.213 1.379-4.01 19.606 39.224 18.201 36.532 18.98 37.7.764 1.171-2.967-3.268 49.18 57.57 3.04 3.54 7.48 5.58 12.15 5.58h16c8.84 0 16-7.16 16-16 0-8.83-7.16-16-16-16h-8.64l-38.69-45.13c.636-5.722 5.603-50.42 6.41-57.68l11.91-7.95c26.726 6.693 21.127 5.292 28.53 7.14 24.17 6.04 48.83-5.3 59.98-27.59l10.81-21.63c3.081-6.161 1.871-13.601-2.999-18.471zm-174.8-12.69 10.97 42.16c2.23 8.55-2.9 17.29-11.45 19.51-8.265 2.203-17.233-2.685-19.51-11.45l-13.07-50.22zm-51.57 0 6.58 26.31c2.15 8.57-3.07 17.26-11.64 19.4-8.453 2.146-17.235-2.993-19.4-11.64l-8.52-34.07zm-62 0 4.58 18.31c2.15 8.57-3.07 17.26-11.64 19.4-8.453 2.146-17.235-2.993-19.4-11.64l-6.42-25.68c4.675-.558 6.1-.39 32.88-.39zm-63.63 81.5c-6.216 6.236-16.37 6.27-22.62 0-.649-.649 3.31-8.61 3.31-24.79 0-5.19.7-10.21 2.02-14.99 1.023.838-.392-.522 17.29 17.16 6.25 6.24 6.25 16.38 0 22.62zm219.09-22.29-9.71-9.71c-6.25-6.24-6.25-16.38 0-22.62 6.25-6.25 16.37-6.25 22.62 0l14.41 14.41c-2.45 1.034-27.219 17.844-27.32 17.92z" fill="#f2a661"/><path d="m186.56 161.981c-39.27 2.69-71.59 31.06-80.26 68.4-8.385 12.52-14.541 26.433-20.56 39.11-13.357 8.886-25.356 11.568-41.61 9.17 5.546-6.871 12.975-23.517 17.09-32.23 27.001-10.031 58.629-72.585 106.01-84.83 8.587-.446 17.41.054 19.33.38z" fill="#f2a661"/><path d="m490.73 174.601c-4.9 7.05-13.43 11.78-16.22 19.86-18.51 53.49-42.51 13.49-90.51 37.49l-48 24h-88c-8.063-16.126-16.038-24-33.69-24-10.33.01-19.82 5.54-25.32 14.28-18.018 28.662-53.007 40.47-84.14 29.92-3.66 2.24-7.29 4.42-10.88 6.52.166-.276 4.861-6.797 7.34-14.9.082-.329 1.432-4.131 2.17-9.59.841-6.06.282-10.993.93-16.17 2.207-38.71 36.246-76.886 82.15-80.03 3.393-.319-3.603-.22 161.44-.22 2.66-1.57 5.11-3.43 7.32-5.54l12.94-6.06c-1.611-14.336 2.773-26.705 10.43-38.59 3.612-5.367 10.114-8.008 15.82-6.92 5.336.759 5.765 2.006 37.01 25.44 5.416 1.811 12.673 6.549 29.24 12.06 14.88 4.96 26.21 17.3 29.97 32.45z" fill="#ffbd7b"/><g fill="#999"><path d="m144 279.951c-4.095 0-8.189-1.563-11.313-4.687l-16-16c-6.249-6.248-6.249-16.379 0-22.627 6.248-6.248 16.379-6.248 22.627 0l16 16c10.109 10.109 2.811 27.314-11.314 27.314z"/><path d="m327.992 255.955c-6.963 0-13.369-4.58-15.376-11.608l-16-56c-2.428-8.496 2.492-17.353 10.989-19.78 8.498-2.424 17.353 2.492 19.78 10.989l16 56c2.913 10.197-4.743 20.399-15.393 20.399z"/><path d="m271.988 239.955c-7.169 0-13.692-4.853-15.51-12.123l-8-32c-2.143-8.573 3.069-17.26 11.642-19.403 8.574-2.137 17.26 3.069 19.403 11.642l8 32c2.52 10.082-5.11 19.884-15.535 19.884z"/><path d="m207.988 231.955c-7.169 0-13.692-4.853-15.51-12.123l-8-32c-2.143-8.573 3.069-17.26 11.642-19.403 8.574-2.141 17.26 3.069 19.403 11.642l8 32c2.52 10.082-5.11 19.884-15.535 19.884z"/><path d="m392 263.951c-4.095 0-8.189-1.563-11.313-4.687l-16-16c-6.249-6.248-6.249-16.379 0-22.627 6.248-6.248 16.379-6.248 22.627 0l16 16c10.109 10.109 2.811 27.314-11.314 27.314z"/></g></svg>