<svg id="Layer_1" enable-background="new 0 0 512.115 512.115" height="512" viewBox="0 0 512.115 512.115" width="512" xmlns="http://www.w3.org/2000/svg"><path d="m511.448 229.4-4.39 15.38c-7.64 26.73-30.14 46.45-56.9 51.14-18.062 63.085-71.127 110.386-135.46 120.86-1.231.207-2.545.247-3.06.21l5.13 43.99 12.09 19.02h15.21c8.84 0 16 7.16 16 16s-7.16 16-16 16h-24c-5.47 0-10.57-2.8-13.5-7.42-17.679-27.823-37.612-59.19-53.33-83.92l-53.13 3.43c-8.1 7.28-17.67 12.91-28.28 16.52-40.969 16.521-38.999 15.965-42.02 16.3-.358.031-5.791.631-23.73 2.6l27.32 20.49h18.67c8.84 0 16 7.16 16 16s-7.16 16-16 16c-24.576 0-27.937 1.053-33.6-3.2-68.002-51.007-66.437-49.118-68.37-52.99-2.868-5.257-2.573-11.254.08-15.75 1.383-2.568-5.063 8.878 14.28-25-15.81-19.71-24.39-44.02-24.39-69.66v-11.6c-30.27-6.811-29.711-6.301-33.16-8.68-.104-.104-2.747-1.787-4.54-4.86-2.421-4.037-3.049-8.966-1.31-13.8 1.905-5.142 14.95-26.708 35.05-45.62 30.5-28.68 67.83-43.84 107.96-43.84h133.76l45.66-13.05c6.131-16.326 16.072-32.125 29.32-43.16-9.993-30.437-24.993-80.881-27.78-112.68-.77-8.79-3.12-35.55 16.49-42.31 1.99-.69 4.03-.96 6.01-.86 11.75-1.08 25.44 1.17 37.05 12.5 4.41-8.9 11.62-17.44 23.49-17.44 12.69 0 23.55 5.14 31.41 14.86 25.785 31.916 11.17 102.166 3.41 140.1 28.069 13.106 53.878 39.051 67.07 62.1 2.141 3.74 2.681 8.19 1.49 12.34z" fill="#cccaca"/><path d="m473.098 174.36c-8.06 25.78-17.36 47.42-25.03 57.64-24 32-48 32-72 32-16 72-40 96-80 96-49.386 0-83.78-22.05-104-48 1.45 22.46-16 80-72 80-43.081 0-64-72-64-72s0 9.52-16 20.57v-6.77c-27.839-6.264-27.42-6.19-27.52-6.19-8.925-1.982-14.384-11.205-11.9-19.89 2.803-9.531 20.571-32.872 35.46-46.88 30.5-28.68 67.83-43.84 107.96-43.84h133.76l45.66-13.05c6.131-16.326 16.072-32.125 29.32-43.16-9.993-30.437-24.993-80.881-27.78-112.68-.77-8.79-3.12-35.55 16.49-42.31 1.99-.69 4.03-.96 6.01-.86 11.75-1.08 25.44 1.17 37.05 12.5 4.41-8.9 11.62-17.44 23.49-17.44 12.69 0 23.55 5.14 31.41 14.86 25.785 31.916 11.17 102.166 3.41 140.1 11.48 5.36 21.58 12.22 30.21 19.4z" fill="#ece2e2"/></svg>