<svg id="Layer_1" enable-background="new 0 0 496.043 496.043" height="512" viewBox="0 0 496.043 496.043" width="512" xmlns="http://www.w3.org/2000/svg"><path d="m380.103 263.822c29.435 59.215-13.609 129.6-80.4 129.6h-214.86c-38.66 0-69.87-31.88-68.77-70.79 1.07-38.002 33.202-66.79 67.31-66.79 7.27-.16 12.89-6.45 12.07-13.68-6.836-60.673 53.495-112.776 115.82-93.36v-.01c25.41-59.237 98.672-82.1 153.59-45.36 55.133 37.181 61.735 114.453 15.24 160.39z" fill="#83f8fb"/><path d="m380.103 263.822c-17.122-34.465-54.489-54.607-93.6-48.89-7.55 1.12-14.77-3.37-17.33-10.56-16.273-45.679-57.9-55.156-57.9-55.58 25.41-59.237 98.672-82.1 153.59-45.36 55.133 37.181 61.735 114.453 15.24 160.39z" fill="#ffe773"/><path d="m384.921 275.542c2.151 6.513-6.658 10.863-10.621 5.264-22.18-31.34-60.722-49.281-101.377-43.323-8.85 1.32-17.31-3.95-20.31-12.38-12.546-35.187-42.782-60.81-78.771-67.896-6.685-1.316-6.399-11.053.37-11.835 42.14-4.872 81.126 20.164 94.962 59.002 2.56 7.19 9.78 11.68 17.33 10.56 43.865-6.414 84.917 19.718 98.417 60.608z" fill="#bbfbff"/><path d="m308.573 392.992s10.942.43-223.73.43c-47.485 0-79.828-46.833-65.47-89.9 9.944-29.831 37.867-47.68 64.01-47.68 7.27-.16 12.89-6.45 12.07-13.68-1.45-12.865.424-25.951 4.606-37.721 4.403-12.39 22.939-6.31 19.476 6.375-1.608 5.891-1.842 9.542-3.642 20.186-3.194 18.887 7.455 26.305 2.65 34.95-5.847 10.519-23.189 1.875-37.5 12.417-15.338 11.298-21.166 40.192-10 60.083 12.102 21.559 39.53 24.355 53.63 25.7 0 0 182.513.02 182.52.02 18.35 0 19.63 27 1.38 28.82z" fill="#6ff3fa"/><path d="m382.716 196.71c-16.897-42.218-56.181-72.906-101.627-78.49-15.947-1.959-17.538-24.404-2.06-28.715 66.559-18.538 133.001 32.312 132 101.94-.232 16.095-22.333 20.208-28.313 5.265z" fill="#ffec8f"/><path d="m306.967 69.341c-43.531 0-83.154 23.398-104.347 60.613-69.955-12.025-128.6 46.922-123.454 109.691-63.989 4.254-100.4 75.887-65.828 130.174-9.487 10.199-2.259 26.883 11.705 26.883h101c23.159 0 42-18.841 42-42s-18.841-42-42-42h-11c-8.837 0-16 7.164-16 16s7.163 16 16 16h11c5.514 0 10 4.486 10 10s-4.486 10-10 10h-75.111c-11.895-9.994-18.889-24.779-18.889-40.442 0-32.902 29.984-58.049 62.674-51.885 11.027 2.084 20.723-7.572 18.704-18.604-1.044-5.707-2.516-15.573-2.516-19.64 0-40.653 33.073-73.726 73.726-73.726 35.548 0 66.033 25.32 72.488 60.205.834 4.502 3.556 8.432 7.477 10.794 10.085 6.075 14.166-1.793 35.11-1.793 40.652 0 73.726 33.073 73.726 73.726s-33.073 73.726-73.726 73.726c-8.837 0-16 7.164-16 16s7.163 16 16 16c73.662 0 124.627-73.711 99.173-142.372 65.262-77.325 10.294-197.35-91.912-197.35zm-22.677 129.39c-9.004-25.442-27.334-46.062-50.585-58.248 16.149-24.19 43.457-39.142 73.262-39.142 69.486 0 111.288 76.998 74.511 135.056-23.529-28.69-60.145-43.086-97.188-37.666zm211.753-9.39c0 8.836-7.163 16-16 16h-18c-8.837 0-16-7.164-16-16s7.163-16 16-16h18c8.837 0 16 7.164 16 16zm-205.152-155v-18c0-8.836 7.163-16 16-16s16 7.164 16 16v18c0 8.836-7.163 16-16 16s-16-7.164-16-16zm149.719 21.326c6.249 6.248 6.249 16.379 0 22.627l-12.728 12.727c-3.124 3.125-7.219 4.687-11.313 4.687-14.127 0-21.421-17.207-11.313-27.314l12.728-12.727c6.247-6.249 16.378-6.249 22.626 0zm-267.393 22.734c-6.249-6.249-6.248-16.379 0-22.627 6.249-6.248 16.38-6.248 22.627 0l12.728 12.728c10.112 10.111 2.81 27.313-11.313 27.313-4.096 0-8.189-1.562-11.313-4.687zm104.826 276.301c0 23.159-18.841 42-42 42h-31c-8.837 0-16-7.164-16-16s7.163-16 16-16h31c5.514 0 10-4.486 10-10s-4.486-10-10-10h-11c-8.837 0-16-7.164-16-16s7.163-16 16-16h11c23.16 0 42 18.842 42 42zm-30 99c0 23.159-18.841 42-42 42h-11c-8.837 0-16-7.164-16-16s7.163-16 16-16h11c5.514 0 10-4.486 10-10s-4.486-10-10-10h-101c-8.837 0-16-7.164-16-16s7.163-16 16-16h101c23.16 0 42 18.842 42 42z"/></svg>