<svg id="Layer_1" enable-background="new 0 0 496.392 496.392" height="512" viewBox="0 0 496.392 496.392" width="512" xmlns="http://www.w3.org/2000/svg"><path d="m453.657 363.524c-40.357 70.474-116.627 117.739-203.855 116.855-128.059-1.296-230.044-104.785-229.565-232.849.51-136.706 118.97-244.465 257.151-229.8 24.275 2.576 36.859 29.915 23.385 50.27-67.788 102.403 2.023 241.836 126.227 246.888 24.321.989 38.753 27.514 26.657 48.636z" fill="#ffe773"/><path d="m453.487 361.972c-3.776 6.587-11.095 10.358-18.657 9.676-162.748-14.682-262.1-197.835-178.196-343.894 3.84-6.685 11.274-10.475 18.947-9.73 1.013.098 2.023.203 3.032.315 23.682 2.645 35.745 29.446 22.475 49.23-70.148 104.429 4.934 243.898 125.95 247.359 23.591.902 38.252 26.452 26.449 47.044z" fill="#ffec8f"/><path d="m471.666 293.912c-91.372 25.11-181.225-44.119-181.225-138.167 0-43.856 19.688-84.701 54.018-112.063 9.693-7.724 7.274-23.109-4.328-27.483-162.868-61.411-335.893 59.538-335.893 232.193 0 137.069 110.919 248 248 248 111.658 0 210.076-75.167 239.334-182.793 3.326-12.232-8.164-22.915-19.906-19.687zm-219.428 170.48c-119.103 0-216-96.897-216-216 0-139.352 130.859-242.974 267.31-210.056-28.938 31.963-45.105 73.45-45.105 117.409 0 103.392 89.766 185.291 193.85 174.282-32.755 80.258-111.638 134.365-200.055 134.365z"/></svg>