<svg id="Layer_1" enable-background="new 0 0 496.022 496.022" height="512" viewBox="0 0 496.022 496.022" width="512" xmlns="http://www.w3.org/2000/svg"><path d="m361.968 109.531c96.133 44.29 148.576 145.09 99.069 252.04-2.868 6.197-11.601 6.04-14.532-.128-10.664-22.445-46.983-27.75-60.008.528-44.283 96.128-145.072 148.606-252.049 99.076-6.196-2.869-6.04-11.6.127-14.531 22.439-10.666 27.75-46.98-.528-60.005-96.133-44.29-148.576-145.09-99.069-252.04 2.868-6.197 11.601-6.04 14.532.128 10.664 22.445 46.983 27.75 60.008-.528 44.283-96.128 145.072-148.605 252.049-99.076 6.196 2.869 6.04 11.6-.127 14.531-22.438 10.666-27.749 46.981.528 60.005z" fill="#c1fefa"/><circle cx="248.008" cy="248.021" fill="#83f8fb" r="38.75"/><path d="m261.59 211.626c3.653 1.366 3.036 6.809-1.287 7.007-27.215 1.246-43.167 28.93-34.636 52.08 1.354 3.675-3.297 6.621-5.972 3.76-6.824-7.299-10.857-17.238-10.402-28.117 1.155-27.557 29.175-43.376 52.297-34.73z" fill="#4bf5fa"/><path d="m361.438 49.531c-1.785.847-4.732 3.055-8.791 1.343-98-41.34-189.425 7.768-230.109 96.077-4.872 10.587-13.221 16.164-22.137 17.708-8.897 1.541-13.142-10.662-5.174-14.909 5.789-3.086 10.854-8.211 14.291-15.679 44.28-96.13 145.07-148.61 252.05-99.08 6.19 2.87 6.04 11.6-.13 14.54z" fill="#d9fffd"/><path d="m446.498 361.451c-.847-1.785-3.055-4.732-1.343-8.791 41.34-98-7.768-189.425-96.077-230.109-10.587-4.872-16.164-13.221-17.708-22.137-1.541-8.897 10.662-13.142 14.909-5.174 3.086 5.789 8.211 10.854 15.679 14.291 96.13 44.28 148.61 145.07 99.08 252.05-2.87 6.19-11.6 6.04-14.54-.13z" fill="#83f8fb"/><path d="m134.578 446.511c1.785-.847 4.732-3.055 8.791-1.343 98 41.34 189.425-7.768 230.109-96.077 4.872-10.587 13.221-16.164 22.137-17.708 8.897-1.541 13.142 10.662 5.174 14.909-5.789 3.086-10.854 8.211-14.291 15.679-44.28 96.13-145.07 148.61-252.05 99.08-6.19-2.87-6.04-11.6.13-14.54z" fill="#83f8fb"/><path d="m49.518 134.591c.847 1.785 3.055 4.732 1.343 8.791-41.34 98 7.768 189.425 96.077 230.109 10.587 4.872 16.164 13.221 17.708 22.137 1.541 8.897-10.662 13.142-14.909 5.174-3.086-5.789-8.211-10.854-15.679-14.291-96.13-44.28-148.61-145.07-99.08-252.05 2.87-6.19 11.6-6.04 14.54.13z" fill="#d9fffd"/><path d="m368.661 95.001c-13.629-6.279-9.674-18.91-8.743-21.378.934-2.474 6.321-14.598 20.729-10.303.4.12.8.242 1.2.365 7.711 2.381 15.988-1.35 19.307-8.706 3.319-7.355.641-16.032-6.246-20.237-122.21-74.617-247.154-21.913-299.924 92.638-6.278 13.628-18.908 9.676-21.376 8.745-2.475-.934-14.601-6.321-10.302-20.74.119-.4.241-.8.365-1.2 2.384-7.71-1.348-15.989-8.704-19.309-7.355-3.321-16.033-.642-20.238 6.245-75.215 123.19-20.94 247.6 92.626 299.92 13.63 6.279 9.674 18.91 8.743 21.378-.934 2.474-6.32 14.597-20.729 10.303-.4-.12-.8-.242-1.2-.365-7.712-2.382-15.988 1.35-19.307 8.706-3.319 7.355-.641 16.032 6.246 20.237 121.672 74.287 246.876 22.514 299.924-92.638 6.279-13.629 18.909-9.676 21.375-8.745 2.475.934 14.602 6.321 10.304 20.736-.119.399-.241.8-.364 1.199-2.387 7.71 1.344 15.991 8.7 19.313s16.035.646 20.241-6.244c75.284-123.303 20.816-247.656-92.627-299.92zm83.338 246.907c-22.824-23.221-64.346-20.683-80.031 13.365-38.027 82.546-122.662 133.245-217.859 96.733 23.267-22.873 20.62-64.373-13.364-80.029-82.862-38.175-133.113-122.941-96.727-217.842 22.876 23.275 64.378 20.613 80.031-13.366 38.178-82.875 122.95-133.136 217.858-96.733-23.267 22.875-20.62 64.373 13.364 80.029 82.971 38.225 133.078 123.037 96.728 217.843zm-79.975-41.49c-2.582 6.104-8.508 9.771-14.743 9.771-11.402 0-19.196-11.674-14.729-22.237 24.146-57.087-7.775-123.303-68.474-139.194-8.548-2.238-13.664-10.982-11.426-19.531s10.981-13.661 19.531-11.426c79.523 20.82 121.587 107.557 89.841 182.617zm-222.821-24.64c2.385 8.509-2.58 17.339-11.089 19.724-8.503 2.384-17.338-2.576-19.724-11.089-15.443-55.1 5.588-114.754 53.887-147.679 7.302-4.978 17.255-3.091 22.233 4.208 4.977 7.302 3.093 17.255-4.208 22.233-36.832 25.106-52.874 70.586-41.099 112.603zm159.049 75.676c3.391 8.161-.477 17.524-8.637 20.914-46.822 19.452-101.384 10.957-140.215-23.024-6.649-5.82-7.323-15.928-1.503-22.578s15.929-7.322 22.578-1.503c29.523 25.836 71.121 32.404 106.863 17.555 8.161-3.393 17.524.476 20.914 8.636zm-60.244-48.682c30.189 0 54.75-24.561 54.75-54.75s-24.561-54.75-54.75-54.75-54.75 24.561-54.75 54.75 24.561 54.75 54.75 54.75zm0-77.501c12.544 0 22.75 10.206 22.75 22.75s-10.206 22.75-22.75 22.75-22.75-10.206-22.75-22.75 10.206-22.75 22.75-22.75z"/></svg>