<svg id="Layer_1" enable-background="new 0 0 496 496" height="512" viewBox="0 0 496 496" width="512" xmlns="http://www.w3.org/2000/svg"><path d="m434.95 233.552c.064 4.846 2.188-1.41-41.7 98.56-3.31 7.54-14.46 5.77-15.28-2.42l-7.71-77.1c-.358-3.581 1.366 1.085-31.5-72.68-1.24-2.78-5.01-3.21-6.85-.77-66.676 88.55-63.714 83.299-64.45 89.08-4.025 31.424-1.009 7.899-15.16 118.24-1.07 8.37-12.69 9.59-15.48 1.62l-63.5-181.37c-1.32-3.74-6.69-3.5-7.66.35l-25.76 102.53c-2.04 8.1-13.57 8.05-15.54-.07l-14.43-59.55c-1.21-4.99-4.75-9.1-9.51-11.04l-32.63-13.32c-5.42-2.21-9.2-7.21-9.86-13.02 0 0-15.385-136.172-15.43-136.57h410.5l-18.61 85.21c-.57 2.609-.448-2.675.56 72.32z" fill="#c1fefa"/><g fill="#d9fffd"><path d="m136.44 306.55c1.872 7.598-9.423 11.111-11.878 3.68-.178-.54-14.498-59.706-14.632-60.258-1.21-4.99-4.75-9.1-9.51-11.04l-32.63-13.32c-9.506-3.876-9.842-12.861-10.271-16.668-.537-4.767 4.285-8.31 8.684-6.397 6.408 2.787 17.889 7.29 40.127 16.366 6.18 2.53 10.78 7.86 12.36 14.35 11.237 46.385 15.793 65.342 17.75 73.287z"/><path d="m253.953 373.592-1.648 12.832c-1.075 8.375-12.706 9.595-15.496 1.626-66.384-189.617-62.937-177.39-61.798-181.928 2.996-11.935 17.507-11.48 20.921-1.734 62.1 177.32 58.485 165.589 58.021 169.204z"/><path d="m393.25 332.112c-3.31 7.54-14.46 5.77-15.28-2.42l-7.71-77.1c-.358-3.581 1.366 1.085-31.5-72.68-6.191-13.882 13.976-22.862 19.775-9.558 29.548 67.788 28.106 63.682 28.475 67.368 9.695 96.94 9.778 86.32 6.24 94.39z"/></g><path d="m480 60.022c-10.866 0-459.094 0-464 0-8.836 0-16 7.164-16 16s7.164 16 16 16h12.206l14.895 131.797c.657 5.814 4.436 10.806 9.853 13.017l41.425 16.908 22.072 91.048c3.922 16.18 27.013 16.263 31.067.13l23.916-95.177 61.465 175.565c5.554 15.863 28.833 13.423 30.971-3.252l19.461-151.796 49.11-65.223 21.895 49.142 10.743 107.436c1.63 16.299 23.974 19.87 30.571 4.839 58.879-134.114 55.414-124.73 55.349-129.648-.141-10.431-.834-61.669-.976-72.164l15.86-72.62h14.117c8.837 0 16-7.164 16-16s-7.163-16.002-16-16.002zm-61.886 111.579-15.029-9.576-6.511-27.667c-2.023-8.602-10.635-13.937-19.239-11.91-8.602 2.024-13.934 10.638-11.909 19.239l8 34c.955 4.061 3.458 7.587 6.977 9.829l38.229 24.358.323 23.894-28.1 64.005-4.934-49.343c-.366-3.663 2.763 4.213-46.306-105.919-3.598-8.072-13.059-11.7-21.127-8.104-8.071 3.597-11.699 13.055-8.104 21.127l7.165 16.08-46.792 62.146-17.462-34.925 18.859-55.68c2.835-8.37-1.652-17.452-10.021-20.287-8.367-2.834-17.453 1.652-20.287 10.021l-21 62c-1.37 4.044-1.066 8.469.843 12.288l29.822 59.642-10.774 84.035-55.137-157.487 10.917-43.446c2.153-8.57-3.048-17.264-11.618-19.417-8.572-2.151-17.263 3.049-19.417 11.618-.575 2.288-31.624 125.851-33.204 132.138l-8.729-36.008c-1.211-4.994-4.746-9.102-9.503-11.044l-40.213-16.414-2.35-20.793 30.209-19.547c3.777-2.444 6.351-6.365 7.09-10.803l5-30c1.453-8.716-4.436-16.96-13.152-18.413-8.717-1.451-16.96 4.436-18.413 13.152l-3.839 23.034-10.91 7.059-7.058-62.461h372.718c-17.195 78.735-15.209 65.168-15.014 79.579z"/></svg>