<svg id="Layer_1" enable-background="new 0 0 496 496" height="512" viewBox="0 0 496 496" width="512" xmlns="http://www.w3.org/2000/svg"><path d="m389.703 334.13c17.459 15.049 28.575 37.254 28.813 62.057.433 45.122-35.89 82.731-81.002 83.789-46.752 1.097-84.995-36.474-84.995-82.977 0-25.132 11.168-47.659 28.819-62.873 2.002-1.725 3.181-4.215 3.181-6.858v-259.43c0-27.97 22.17-51.369 50.137-51.831 28.565-.472 51.863 22.536 51.863 50.993 0 10.185 0 264.169 0 260.268 0 2.645 1.181 5.135 3.184 6.862z" fill="#c1fefa"/><path d="m289.558 44.869c4.127-8.554 16.901-5.484 16.852 4.013-.001.252-.001 298.594-.001 298.342 0 2.615-1.167 5.085-3.16 6.778-17.588 14.942-28.535 35.141-32.121 56.608-1.645 9.85-15.807 10.075-17.46.226-4.65-27.699 4.86-57.111 27.703-76.739 1.98-1.702 3.149-4.161 3.149-6.772v-260.325c-.001-7.931 1.809-15.438 5.038-22.131z" fill="#d9fffd"/><path d="m372.787 397c0 20.402-16.598 37-37 37s-37-16.598-37-37c0-14.675 8.587-27.38 21-33.358v-200.642c0-8.837 7.163-16 16-16s16 7.163 16 16v200.642c12.413 5.978 21 18.683 21 33.358zm107-325c0 8.837-7.163 16-16 16h-61v68h41c8.837 0 16 7.163 16 16s-7.163 16-16 16h-41v68h21c8.837 0 16 7.163 16 16s-7.163 16-16 16h-21v36.11c20.432 18.723 32 44.864 32 72.89 0 54.589-44.411 99-99 99s-99-44.411-99-99c0-28.026 11.568-54.168 32-72.89v-257.11c0-36.944 30.056-67 67-67 33.197 0 60.817 24.273 66.082 56h61.918c8.837 0 16 7.163 16 16zm-77 325c0-20.798-9.416-40.065-25.835-52.86-3.891-3.031-6.165-7.688-6.165-12.62v-264.52c0-19.299-15.701-35-35-35s-35 15.701-35 35v264.52c0 4.933-2.274 9.589-6.165 12.62-16.419 12.795-25.835 32.062-25.835 52.86 0 36.944 30.056 67 67 67s67-30.056 67-67zm-227.073-299.888c22.13 5.93 21.779 6.023 24.582 6.023 14.23 0 21.38-17.295 11.248-27.359 11.523-11.522.332-30.964-15.438-26.74-4.185-15.826-26.691-15.84-30.917-.068l-5.474 20.43-27.446 15.846v-31.69l14.956-14.956c11.576-11.574.228-31.013-15.517-26.74-4.215-15.743-26.655-15.771-30.878 0-15.749-4.274-27.095 15.164-15.517 26.74l14.956 14.956v31.691l-27.446-15.846-5.474-20.43c-4.223-15.758-26.728-15.771-30.917.067-15.742-4.22-26.979 15.201-15.438 26.741-11.508 11.431-.549 31.078 15.398 26.81l20.432-5.475 27.446 15.846-27.446 15.846-20.432-5.474c-15.787-4.23-26.996 15.288-15.398 26.81-11.641 11.639-.158 30.942 15.443 26.756 4.213 15.857 26.685 15.83 30.913.051l5.474-20.43 27.446-15.846v31.691l-14.956 14.956c-11.576 11.574-.228 31.013 15.517 26.74 4.215 15.743 26.655 15.771 30.878 0 15.757 4.279 27.082-15.177 15.517-26.74l-14.956-14.956v-31.691l27.446 15.846 5.474 20.43c4.238 15.81 26.728 15.704 30.912-.051 15.666 4.202 27.061-15.14 15.443-26.757 11.578-11.502.421-31.038-15.398-26.81l-20.432 5.474-27.446-15.846z"/></svg>