<svg id="Layer_1" enable-background="new 0 0 496 496" height="512" viewBox="0 0 496 496" width="512" xmlns="http://www.w3.org/2000/svg"><path d="m335 16h-174c-26.51 0-48 21.49-48 48v368c0 26.51 21.49 48 48 48h174c26.51 0 48-21.49 48-48 0-6.619 0-362.065 0-368 0-26.51-21.49-48-48-48z" fill="#83f8fb"/><g fill="#bafbfe"><path d="m230.566 138.944-16.249-16.259c-6.246-6.25-16.386-6.252-22.635 0l-16.25 16.26c-24.433 24.404-7.211 66.58 27.567 66.58 34.345 0 52.3-41.891 27.567-66.581z"/><path d="m264.317 232.925c-6.246-6.25-16.386-6.252-22.635 0l-16.25 16.26c-15.269 15.251-15.243 39.935-.02 55.141 15.382 15.417 40.11 15.098 55.147.025 15.261-15.227 15.266-39.932.005-55.167z"/><path d="m340.566 169.184-16.249-16.259c-6.246-6.25-16.386-6.252-22.635 0l-16.25 16.26c-24.433 24.404-7.211 66.58 27.567 66.58 34.87 0 51.926-42.264 27.567-66.581z"/></g><path d="m240.158 154.629c1.963 6.145-6.593 10.006-9.927 4.484-1.895-3.139-4.187-6.071-6.851-8.728-20.558-20.569-20.053-20.42-23.196-22.138-4.872-2.663-2.961-10.185 2.591-10.251 4.415-.053 8.537 1.68 11.546 4.689 16.984 16.995 22.279 20.803 25.837 31.944z" fill="#d9fffd"/><path d="m290.158 264.869c1.963 6.145-6.593 10.007-9.927 4.484-3.671-6.08-5.391-7.268-25.791-27.678-1.266-1.266-2.701-2.338-4.256-3.188-4.872-2.663-2.961-10.185 2.591-10.251 4.415-.053 8.537 1.68 11.546 4.689 16.984 16.995 22.279 20.803 25.837 31.944z" fill="#d9fffd"/><path d="m350.15 184.869c1.963 6.145-6.593 10.006-9.927 4.484-3.671-6.08-5.391-7.268-25.791-27.678-1.266-1.266-2.701-2.338-4.256-3.188-4.824-2.636-3.088-10.252 2.816-10.252 4.25 0 8.32 1.69 11.32 4.69 16.985 16.995 22.28 20.803 25.838 31.944z" fill="#d9fffd"/><path d="m337.133 45.879c-25.873-.042-69.752.121-146.125.121-26.509 0-48.008 21.49-48.008 48 0 396.777-1.09 372.79 2.54 383.46-18.92-6.44-32.54-24.36-32.54-45.46v-368c0-26.51 21.49-48 48-48 187.079 0 174.904-.061 177.486.125 18.973 1.362 17.669 29.785-1.353 29.754z" fill="#bafbfe"/><path d="m383 383.5v48.5c0 26.51-21.49 48-48 48h-174c-26.51 0-48-21.49-48-48v-48.5z" fill="#f2f2f2"/><path d="m129.816 468.49c-10.291-8.805-16.816-21.886-16.816-36.49v-48.5h30v78.5c0 7.286-8.071 10.865-13.184 6.49z" fill="#f9f9f9"/><path d="m220.577 194.34c15.205-15.205 15.206-39.946.001-55.153l-16.265-16.264c-6.248-6.248-16.379-6.248-22.627 0l-16.265 16.264c-15.204 15.206-15.204 39.948.001 55.155 15.207 15.204 39.95 15.205 55.155-.002zm-32.527-32.527 4.95-4.95 4.949 4.95c2.729 2.729 2.729 7.171.001 9.899-2.729 2.73-7.171 2.729-9.9 0s-2.729-7.169 0-9.899zm27.372 87.374c-24.52 24.523-7.001 66.559 27.577 66.559 34.549 0 52.127-42.008 27.579-66.559l-16.265-16.264c-6.248-6.248-16.379-6.248-22.627 0zm22.628 22.626 4.95-4.95 4.949 4.95c2.729 2.729 2.729 7.171.001 9.899-2.729 2.731-7.171 2.728-9.9 0-2.729-2.729-2.729-7.169 0-9.899zm92.527-47.473c15.205-15.205 15.206-39.946.001-55.153l-16.265-16.264c-6.248-6.248-16.379-6.248-22.627 0l-16.265 16.264c-15.204 15.206-15.204 39.948.001 55.155 15.207 15.204 39.95 15.205 55.155-.002zm-32.527-32.527 4.95-4.95 4.949 4.95c2.729 2.729 2.729 7.171.001 9.899-2.729 2.731-7.171 2.728-9.9 0-2.729-2.729-2.729-7.169 0-9.899zm36.95-191.813h-174c-35.29 0-64 28.71-64 64v368c0 35.29 28.71 64 64 64h174c35.29 0 64-28.71 64-64v-368c0-35.29-28.71-64-64-64zm-174 32h174c17.645 0 32 14.355 32 32v303.5h-238v-303.5c0-17.645 14.355-32 32-32zm174 432h-174c-17.645 0-32-14.355-32-32v-32.5h238v32.5c0 17.645-14.355 32-32 32zm-56-32c0 8.837-7.163 16-16 16h-30c-8.837 0-16-7.163-16-16s7.163-16 16-16h30c8.837 0 16 7.163 16 16z"/></svg>