<svg id="Layer_1" enable-background="new 0 0 496 496" height="512" viewBox="0 0 496 496" width="512" xmlns="http://www.w3.org/2000/svg"><path d="m335 16h-174c-26.51 0-48 21.49-48 48v368c0 26.51 21.49 48 48 48h174c26.51 0 48-21.49 48-48 0-6.619 0-362.065 0-368 0-26.51-21.49-48-48-48z" fill="#83f8fb"/><path d="m337.133 45.879c-25.873-.042-69.752.121-146.125.121-26.509 0-48.008 21.49-48.008 48 0 396.777-1.09 372.79 2.54 383.46-18.92-6.44-32.54-24.36-32.54-45.46v-368c0-26.51 21.49-48 48-48 187.079 0 174.904-.061 177.486.125 18.973 1.362 17.669 29.785-1.353 29.754z" fill="#bafbfe"/><path d="m383 383.5v48.5c0 26.51-21.49 48-48 48h-174c-26.51 0-48-21.49-48-48v-48.5z" fill="#f2f2f2"/><path d="m129.816 468.49c-10.291-8.805-16.816-21.886-16.816-36.49v-48.5h30v78.5c0 7.286-8.071 10.865-13.184 6.49z" fill="#f9f9f9"/><path d="m335 0h-174c-35.29 0-64 28.71-64 64v368c0 35.29 28.71 64 64 64h174c35.29 0 64-28.71 64-64v-368c0-35.29-28.71-64-64-64zm32 432c0 17.645-14.355 32-32 32h-174c-17.645 0-32-14.355-32-32v-32.5h238zm0-64.5h-238v-303.5c0-17.645 14.355-32 32-32h174c17.645 0 32 14.355 32 32zm-150 64.5c0-8.837 7.164-16 16-16h30c8.836 0 16 7.163 16 16s-7.164 16-16 16h-30c-8.836 0-16-7.163-16-16zm3.5-221.5h-61c-8.836 0-16-7.163-16-16s7.164-16 16-16h61c5.514 0 10-4.486 10-10s-4.486-10-10-10h-11c-8.836 0-16-7.163-16-16s7.164-16 16-16h11c23.159 0 42 18.841 42 42s-18.841 42-42 42zm132-42c0 23.159-18.841 42-42 42h-21c-8.836 0-16-7.163-16-16s7.164-16 16-16h21c5.514 0 10-4.486 10-10s-4.486-10-10-10h-11c-8.836 0-16-7.163-16-16s7.164-16 16-16h11c23.159 0 42 18.841 42 42zm-20 99c0 23.159-18.841 42-42 42h-11c-8.836 0-16-7.163-16-16s7.164-16 16-16h11c5.514 0 10-4.486 10-10s-4.486-10-10-10h-91c-8.836 0-16-7.163-16-16s7.164-16 16-16h91c23.159 0 42 18.841 42 42z"/></svg>