<svg id="Layer_1" enable-background="new 0 0 495.99 495.99" height="512" viewBox="0 0 495.99 495.99" width="512" xmlns="http://www.w3.org/2000/svg"><path d="m122.353 15.754 155.419 5.239c14.673.495 25.175 14.363 21.673 28.621l-18.54 75.485c-3.578 14.568 7.451 28.634 22.452 28.634h72.716c18.516 0 29.526 20.672 19.18 36.028-45.311 67.254-131.841 195.679-174.757 259.373-5.374 7.976-17.831 3.449-16.852-6.119l14.449-141.277c1.394-13.628-9.301-25.472-22.999-25.472h-92.483c-13.572 0-24.223-11.647-23.029-25.166 7.475-84.589 4.882-55.273 18.963-214.262 1.081-12.23 11.537-21.497 23.808-21.084z" fill="#ffe773"/><path d="m218.084 277.839c-.415 4.074-5.215 6.214-8.387 3.623-3.963-3.237-9.034-5.195-14.594-5.195h-92.501c-13.238 0-24.234-11.221-23.007-25.406.358-4.137 5.21-6.285 8.428-3.661 3.965 3.233 9.032 5.185 14.579 5.185h92.501c13.687-.001 24.391 11.836 22.981 25.454z" fill="#fada86"/><path d="m395.248 189.754c-37.634 55.855-103.684 153.904-149.586 222.023-7.804 11.581-25.871 6.275-26.184-7.687-.14-6.237-7.447 6.304 123.982-188.721 10.496-15.582-.67-36.552-19.444-36.552h-73.751c-15.236 0-26.402-14.265-22.773-29.038l18.796-76.572c3.56-14.473-7.098-28.529-21.987-29.038l-103.229-3.484c-15.794-.533-16.246-24.377-.453-24.929 1.27-.044-9.474-.377 157.157 5.224 14.658.509 25.177 14.38 21.663 28.622l-18.542 75.498c-3.578 14.568 7.45 28.634 22.452 28.634h72.734c18.495 0 29.523 20.668 19.165 36.02z" fill="#ffec8f"/><path d="m418.812 138.508h-124.943l29.64-118.629c2.523-10.102-5.132-19.879-15.523-19.879h-207.741c-8.29 0-15.207 6.332-15.938 14.59l-23.084 260.855c-.828 9.351 6.549 17.41 15.938 17.41h125.404l-18.973 185.517c-1.693 16.56 19.969 24.248 29.186 10.568l219.303-325.492c7.145-10.605-.466-24.94-13.269-24.94zm-196.889 279.59 14.279-139.614c.965-9.434-6.449-17.628-15.917-17.628h-125.646l20.252-228.856h172.605l-29.64 118.63c-2.524 10.1 5.134 19.878 15.523 19.878h115.36zm-56.005-295.627-3.503 37.953c-.811 8.783-8.582 15.271-17.403 14.462-8.799-.813-15.274-8.604-14.461-17.403l3.503-37.953c.813-8.799 8.602-15.259 17.403-14.462 8.799.812 15.274 8.604 14.461 17.403z"/></svg>