<svg id="Layer_1" enable-background="new 0 0 496 496" height="512" viewBox="0 0 496 496" width="512" xmlns="http://www.w3.org/2000/svg"><g fill="#c1fefa"><path d="m248.905 352.967c-6.248-6.249-16.379-6.249-22.627 0l-33.89 33.89c-40.255 40.254-11.369 109.143 45.204 109.143 56.376 0 85.662-68.688 45.203-109.144z"/><path d="m474.247 185.969-33.89-33.9c-6.16-6.164-16.292-6.341-22.629-.002l-33.9 33.9c-40.272 40.272-11.371 109.133 45.203 109.133 57.26 0 85.066-69.284 45.216-109.131z"/><path d="m78.294 237.635c-6.249-6.246-16.378-6.246-22.625.002l-33.89 33.89c-12.077 12.075-18.727 28.13-18.727 45.207 0 56.951 69.141 85.212 109.144 45.209 24.987-24.988 24.989-65.427 0-90.417-.05-.1 1.874 1.874-33.902-33.891z"/></g><path d="m46.532 278.1c-17.765 17.765-22.789 43.282-15.61 65.302 3.566 10.94-11.054 18.171-17.436 8.596-15.764-23.653-14.266-57.926 8.296-80.468l33.89-33.891c6.24-6.25 16.37-6.25 22.62-.01l2.223 2.218c1.165 1.163 1.194 3.076-.093 4.362z" fill="#d9fffd"/><path d="m217.346 393.237c-17.765 17.765-22.789 43.282-15.61 65.302 3.566 10.94-11.054 18.171-17.436 8.596-15.764-23.653-14.266-57.926 8.296-80.468l33.89-33.891c6.24-6.25 16.37-6.25 22.62-.01l2.223 2.218c1.165 1.163 1.194 3.076-.093 4.362z" fill="#d9fffd"/><path d="m408.614 192.415c-17.732 17.732-22.746 43.2-15.581 65.179 3.56 10.919-11.033 18.136-17.403 8.579-15.734-23.608-14.238-57.817 8.28-80.315l33.826-33.826c6.228-6.238 16.339-6.238 22.577-.01l2.218 2.214c1.163 1.161 1.192 3.07-.093 4.354z" fill="#d9fffd"/><path d="m78.3 237.633c-6.249-6.248-16.379-6.248-22.628 0l-33.894 33.894c-24.927 24.928-24.926 65.487 0 90.414 24.926 24.926 65.487 24.928 90.415 0 24.926-24.927 24.927-65.486 0-90.414zm11.265 101.68c-12.45 12.449-32.709 12.449-45.159 0-12.451-12.45-12.45-32.709 0-45.16l22.58-22.58 22.58 22.58c12.45 12.451 12.45 32.71-.001 45.16zm159.341 13.654c-6.249-6.249-16.379-6.249-22.627 0l-33.895 33.894c-24.986 24.986-24.987 65.426 0 90.414 24.926 24.926 65.486 24.928 90.415 0 24.928-24.927 24.928-65.487 0-90.414zm11.266 101.68c-12.451 12.45-32.709 12.45-45.161 0-12.45-12.451-12.45-32.709 0-45.16l22.581-22.58 22.58 22.58c12.45 12.451 12.45 32.709 0 45.16zm214.073-268.682-33.894-33.894c-6.248-6.248-16.379-6.248-22.627 0l-33.894 33.893c-24.986 24.986-24.991 65.426 0 90.415 24.925 24.925 65.485 24.929 90.414 0 24.929-24.927 24.929-65.487.001-90.414zm-67.787 67.786c-12.481-12.481-12.481-32.676 0-45.159l22.58-22.58 22.58 22.58c6.031 6.031 9.353 14.051 9.353 22.58 0 28.226-34.379 42.713-54.513 22.579zm-378.345-79.385v-112.803c0-8.837 7.164-16 16-16s16 7.163 16 16v112.803c0 8.837-7.164 16-16 16s-16-7.163-16-16zm169.726 123.023v-133.306c0-8.837 7.164-16 16-16s16 7.163 16 16v133.306c0 8.837-7.164 16-16 16s-16-7.163-16-16zm183.394-185.704v-44.425c0-8.837 7.163-16 16-16s16 7.163 16 16v44.425c0 8.837-7.163 16-16 16s-16-7.164-16-16zm76.32-9.114v-86.571c0-8.837 7.163-16 16-16s16 7.163 16 16v86.571c0 8.837-7.163 16-16 16s-16-7.163-16-16zm-189.09 111.663v-125.332c0-8.837 7.163-16 16-16s16 7.163 16 16v125.332c0 8.837-7.163 16-16 16s-16-7.163-16-16zm0 83.155v-27.338c0-8.837 7.163-16 16-16s16 7.163 16 16v27.338c0 8.837-7.163 16-16 16s-16-7.163-16-16zm-172.004-102.519v-50.152c0-8.837 7.164-16 16-16s16 7.163 16 16v50.152c0 8.837-7.164 16-16 16s-16-7.163-16-16zm0-110.524v-22.783c0-8.837 7.164-16 16-16s16 7.163 16 16v22.782c0 8.837-7.164 16-16 16s-16-7.162-16-15.999z"/></svg>