<svg id="Layer_1" enable-background="new 0 0 496 496" height="512" viewBox="0 0 496 496" width="512" xmlns="http://www.w3.org/2000/svg"><path d="m479.963 294.074c-1.615 60.16-50.891 108.429-111.448 108.429h-266.955c-48.033 0-86.81-39.609-85.444-87.953 1.33-47.216 41.252-82.984 83.63-82.984 9.033-.199 16.015-8.014 14.996-16.997-6.905-61.289 43.059-121.003 110.802-121.003 48.518 0 89.792 30.987 105.112 74.249 3.131 8.871 12.151 14.301 21.457 12.921 68.371-9.993 129.555 43.504 127.85 113.338z" fill="#83f8fb"/><path d="m474.394 256.042c2.672 8.093-8.273 13.496-13.196 6.54-27.558-38.938-75.445-61.23-125.957-53.827-10.996 1.64-21.507-4.908-25.234-15.382-15.588-43.719-53.155-75.554-97.87-84.358-8.306-1.635-7.95-13.733.459-14.705 52.726-6.096 100.923 25.412 117.986 73.307 3.181 8.933 12.151 14.512 21.532 13.12 54.501-7.967 105.506 24.501 122.28 75.305z" fill="#bbfbff"/><path d="m379.535 401.969s13.593.534-277.975.534c-58.998 0-99.183-58.188-81.344-111.697 12.355-37.064 47.048-59.24 79.53-59.24 9.033-.199 16.015-8.014 14.996-16.997-1.801-15.984.526-32.243 5.723-46.866 5.471-15.394 28.501-7.84 24.199 7.92-1.998 7.319-2.289 11.855-4.525 25.08-3.969 23.467 9.262 32.683 3.292 43.424-7.265 13.07-28.811 2.329-46.592 15.427-19.057 14.037-26.297 49.937-12.425 74.651 15.036 26.786 49.115 30.261 66.633 31.931 0 0 226.768.025 226.773.025 22.799 0 24.39 33.546 1.715 35.808z" fill="#6ff3fa"/><path d="m346.72 165.356c-16.858-51.783-65.436-87.856-121.22-87.856-77.079 0-134.418 68.038-126.8 138.038-54.679 1.488-98.7 46.431-98.7 101.462 0 55.968 45.532 101.5 101.5 101.5h267c70.304 0 127.5-57.196 127.5-127.5 0-78.591-70.969-139.133-149.28-125.644zm21.78 221.144h-267c-38.322 0-69.5-31.178-69.5-69.5 0-43.289 39.464-76.417 82.483-68.292 11.002 2.081 20.726-7.547 18.707-18.602-1.233-6.748-3.19-19.53-3.19-25.106 0-52.659 42.841-95.5 95.5-95.5 46.046 0 85.535 32.8 93.896 77.991 1.741 9.411 11.334 15.23 20.514 12.358 61.512-19.263 124.09 26.914 124.09 91.151 0 52.659-42.841 95.5-95.5 95.5z"/></svg>