<svg id="Layer_1" enable-background="new 0 0 496 496" height="512" viewBox="0 0 496 496" width="512" xmlns="http://www.w3.org/2000/svg"><path d="m479.963 226.758c-1.615 60.16-50.891 108.429-111.448 108.429h-266.955c-48.033 0-86.81-39.609-85.444-87.953 1.33-47.216 41.252-82.984 83.63-82.984 9.033-.199 16.015-8.014 14.996-16.997-6.904-61.289 43.06-121.003 110.803-121.003 48.518 0 89.792 30.987 105.112 74.249 3.131 8.871 12.151 14.301 21.457 12.922 68.37-9.994 129.554 43.502 127.849 113.337z" fill="#83f8fb"/><path d="m474.394 188.726c2.672 8.093-8.273 13.496-13.196 6.54-27.558-38.938-75.445-61.23-125.957-53.827-10.996 1.64-21.507-4.908-25.234-15.382-15.588-43.719-53.155-75.554-97.87-84.358-8.306-1.635-7.95-13.733.459-14.705 52.357-6.053 100.796 25.053 117.986 73.307 3.181 8.933 12.151 14.512 21.532 13.12 54.501-7.967 105.506 24.501 122.28 75.305z" fill="#bbfbff"/><path d="m379.535 334.652c-7.14.757 7.137.534-277.975.534-58.998 0-99.183-58.188-81.344-111.697 12.355-37.064 47.048-59.24 79.53-59.24 9.033-.199 16.015-8.014 14.996-16.997-1.801-15.984.526-32.243 5.723-46.866 5.471-15.394 28.501-7.84 24.199 7.92-1.998 7.319-2.289 11.855-4.525 25.08-3.969 23.467 9.262 32.683 3.292 43.424-7.265 13.07-28.811 2.329-46.592 15.427-19.057 14.037-26.297 49.937-12.425 74.651 15.036 26.786 49.115 30.261 66.633 31.931 0 0 226.768.025 226.773.025 22.799.001 24.39 33.547 1.715 35.808z" fill="#6ff3fa"/><path d="m108.463 263.069 67.224 2.266c6.347.214 10.889 6.213 9.374 12.38l-8.019 32.65c-1.548 6.301 3.223 12.385 9.711 12.385h31.452c8.009 0 12.771 8.941 8.296 15.584-19.599 29.09-57.026 84.638-75.589 112.188-2.325 3.45-7.713 1.492-7.289-2.647l6.25-61.108c.603-5.894-4.023-11.017-9.948-11.017h-40.002c-5.87 0-10.477-5.038-9.961-10.885 3.233-36.588 2.112-23.908 8.202-92.676.469-5.291 4.991-9.299 10.299-9.12z" fill="#ffe773"/><path d="m149.87 376.43c-.18 1.762-2.256 2.688-3.628 1.567-3.668-2.997-3.084-2.247-46.322-2.247-5.87 0-10.47-5.04-9.96-10.89.173-2.002 2.319-2.771 3.654-1.683 3.671 2.993 3.1 2.243 46.316 2.243 5.92 0 10.55 5.12 9.94 11.01z" fill="#fada86"/><path d="m226.5 338.33c-16.278 24.159-44.847 66.569-64.701 96.033-3.375 5.009-11.19 2.714-11.325-3.325-.061-2.699-3.221 2.727 53.627-81.629 4.54-6.74-.29-15.81-8.41-15.81h-31.9c-6.59 0-11.42-6.17-9.85-12.56l8.13-33.12c1.54-6.26-3.07-12.34-9.51-12.56l-44.65-1.507c-6.918-.233-7.213-11.047.55-10.783l67.23 2.26c6.34.22 10.89 6.22 9.37 12.38l-8.021 32.655c-1.548 6.301 3.223 12.385 9.711 12.385h31.46c7.999.001 12.769 8.941 8.289 15.581z" fill="#ffec8f"/><path d="m346.72 93.182c-16.858-51.784-65.436-87.857-121.22-87.857-77.079 0-134.418 68.038-126.8 138.038-54.679 1.488-98.7 46.431-98.7 101.462 0 46.215 31.153 86.337 75.408 98.083l-2.346 26.506c-.827 9.353 6.549 17.41 15.938 17.41h44.28l-7.197 70.372c-1.693 16.545 19.959 24.261 29.187 10.568l81.821-121.44h131.409c70.304 0 127.5-57.196 127.5-127.5 0-78.59-70.971-139.134-149.28-125.642zm21.78 221.143h-115.889c-1.631-7.278-8.092-12.5-15.611-12.5h-42.595l9.133-37.184c2.107-8.582-3.141-17.247-11.722-19.354-8.584-2.108-17.246 3.14-19.354 11.722l-14 57c-2.477 10.082 5.173 19.816 15.538 19.816h32.927l-42.513 63.098 2.503-24.47c.965-9.431-6.448-17.628-15.917-17.628h-44.521c1.123-12.691 7.44-84.076 8.459-95.59.779-8.802-5.725-16.569-14.527-17.348-8.797-.778-16.569 5.725-17.348 14.527l-4.776 53.974c-27.256-9.556-46.287-35.4-46.287-65.563 0-43.295 39.459-76.41 82.484-68.292 11.05 2.082 20.721-7.589 18.705-18.604-1.233-6.737-3.189-19.51-3.189-25.104 0-52.659 42.841-95.5 95.5-95.5 46.046 0 85.535 32.8 93.896 77.991 1.745 9.431 11.355 15.224 20.514 12.358 61.487-19.25 124.09 26.87 124.09 91.151 0 52.659-42.841 95.5-95.5 95.5zm-83.449 83.449-6.109 16.078c-2.368 6.231-8.335 10.317-14.957 10.317-3.802 0-4.405-.557-21.762-7.153-8.26-3.139-12.412-12.379-9.273-20.64l6.109-16.078c3.138-8.255 12.381-12.412 20.641-9.273l16.078 6.11c8.259 3.138 12.411 12.379 9.273 20.639zm54.549 59.701v17.2c0 8.837-7.163 16-16 16h-17.2c-8.837 0-16-7.163-16-16v-17.2c0-8.837 7.163-16 16-16h17.2c8.837 0 16 7.163 16 16zm62.603-54.111c-2.16 8.059-7.273 9.611-22.351 18.315-7.651 4.417-17.437 1.798-21.856-5.856l-8.601-14.896c-4.415-7.647-1.795-17.439 5.856-21.857l14.896-8.6c7.651-4.417 17.438-1.798 21.856 5.856 8.723 15.107 12.355 18.99 10.2 27.038z"/></svg>