<svg id="Layer_1" enable-background="new 0 0 496.003 496.003" height="512" viewBox="0 0 496.003 496.003" width="512" xmlns="http://www.w3.org/2000/svg"><path d="m322.231 216.36c-5.45-1.23-13.07-2.37-18.59-2.83 6.39.29 12.61 1.26 18.59 2.83z" fill="#83f8fb"/><path d="m379.781 263.34c6.458 12.993 9.635 27.291 9.27 42.26-.03.01-.06.03-.09.04-1.42 48.24-40.98 86.91-89.57 86.91h-214.58c-38.6 0-69.77-31.84-68.67-70.7 1.056-37.789 32.979-66.7 67.22-66.7 7.26-.16 12.87-6.44 12.05-13.66-6.82-60.536 53.418-112.534 115.45-93.26 6.27-14.1 17.77-32.4 38.39-45.92 2.95-1.93 26.96-17.25 57.4-17.26 89.459 0 141.056 110.188 73.13 178.29z" fill="#83f8fb"/><path d="m379.814 263.167c-17.122-34.465-54.489-54.607-93.6-48.89-7.55 1.12-14.77-3.37-17.33-10.56-16.273-45.679-57.9-55.156-57.9-55.58 25.414-59.246 98.647-82.117 153.59-45.36 55.133 37.18 61.735 114.452 15.24 160.39z" fill="#ffe773"/><path d="m322.231 216.36c-5.45-1.23-13.07-2.37-18.59-2.83 6.39.29 12.61 1.26 18.59 2.83z" fill="#83f8fb"/><path d="m384.495 274.826c2.148 6.505-6.65 10.848-10.607 5.257-22.151-31.298-60.642-49.216-101.243-43.266-8.838 1.318-17.287-3.945-20.283-12.364-12.529-35.141-42.725-60.729-78.667-67.806-6.676-1.315-6.39-11.038.369-11.82 42.084-4.865 81.018 20.138 94.836 58.923 2.557 7.18 9.767 11.665 17.307 10.546 43.808-6.403 84.806 19.694 98.288 60.53z" fill="#bbfbff"/><path d="m308.249 392.121s10.926.429-223.433.429c-47.422 0-79.722-46.771-65.383-89.781 9.93-29.791 37.817-47.617 63.925-47.617 7.26-.16 12.873-6.441 12.054-13.662-1.448-12.848.423-25.917 4.6-37.67 4.397-12.373 22.909-6.302 19.451 6.366-1.606 5.883-1.84 9.529-3.637 20.159-3.19 18.862 7.445 26.27 2.646 34.904-5.839 10.505-23.158 1.872-37.45 12.4-15.318 11.283-21.137 40.139-9.987 60.004 12.086 21.53 39.478 24.323 53.559 25.666 0 0 182.271.02 182.278.02 18.324 0 19.603 26.964 1.377 28.782z" fill="#6ff3fa"/><path d="m90.364 318.355 54.034 1.821c5.101.172 8.753 4.994 7.535 9.951l-6.446 26.244c-1.244 5.065 2.59 9.955 7.806 9.955h25.281c6.438 0 10.265 7.187 6.668 12.526-15.753 23.382-45.837 68.031-60.757 90.176-1.868 2.773-6.199 1.199-5.859-2.128l5.023-49.118c.485-4.738-3.234-8.856-7.996-8.856h-32.153c-4.718 0-8.422-4.049-8.006-8.749 2.599-29.409 1.697-19.217 6.593-74.492.376-4.252 4.011-7.474 8.277-7.33z" fill="#ffe773"/><path d="m123.647 409.473c-.144 1.417-1.813 2.161-2.916 1.26-2.948-2.408-2.489-1.806-37.234-1.806-4.718 0-8.416-4.051-8.006-8.753.139-1.609 1.864-2.227 2.937-1.352 2.948 2.404 2.483 1.803 37.228 1.803 4.76-.002 8.481 4.114 7.991 8.848z" fill="#fada86"/><path d="m185.241 378.849c-13.084 19.419-36.048 53.508-52.006 77.191-2.713 4.026-8.994 2.181-9.103-2.672-.049-2.17-2.589 2.192 43.105-65.612 3.649-5.418-.233-12.708-6.76-12.708h-25.641c-5.297 0-9.179-4.959-7.917-10.096l6.535-26.621c1.238-5.032-2.468-9.919-7.644-10.096l-35.89-1.211c-5.56-.188-5.798-8.879.442-8.667l54.039 1.817c5.096.177 8.753 5 7.532 9.951l-6.447 26.248c-1.244 5.065 2.59 9.955 7.806 9.955h25.287c6.429-.002 10.263 7.184 6.662 12.521z" fill="#ffec8f"/><path d="m382.427 196.055c-16.897-42.218-56.181-72.906-101.627-78.49-15.947-1.959-17.538-24.404-2.06-28.715 66.559-18.538 133.001 32.312 132 101.94-.232 16.094-22.333 20.208-28.313 5.265z" fill="#ffec8f"/><path d="m221.721 449.232-6 10c-4.544 7.574-14.37 10.036-21.952 5.488-7.577-4.546-10.034-14.375-5.488-21.952l6-10c4.547-7.577 14.374-10.033 21.952-5.488 7.578 4.547 10.035 14.375 5.488 21.952zm64.142-22.168c-7.699-4.343-17.456-1.622-21.797 6.074l-22 39c-4.342 7.697-1.622 17.456 6.074 21.797 7.696 4.342 17.455 1.623 21.797-6.074l22-39c4.342-7.696 1.622-17.455-6.074-21.797zm60.37.216c-7.577-4.545-17.404-2.089-21.952 5.488l-6 10c-4.546 7.577-2.089 17.405 5.488 21.952 7.582 4.549 17.408 2.085 21.952-5.488l6-10c4.547-7.577 2.09-17.405-5.488-21.952zm52.332-160.61c25.283 68.827-26.034 141.958-99.196 141.958-120.593 0-112.854.079-114.639-.162l-54.171 80.401c-9.238 13.714-30.877 5.966-29.186-10.568l5.433-53.113h-32.121c-9.388 0-16.766-8.059-15.937-17.411l.276-3.121c-34.527-10.974-59.023-43.352-59.023-80.758 0-44.808 34.963-81.604 79.04-84.542-5.145-62.893 53.61-121.625 123.433-109.562 21.167-37.32 60.85-60.792 104.451-60.792 102.57 0 157.157 120.585 91.64 197.67zm-165.032-126.326c23.185 12.18 41.461 32.756 50.447 58.135 36.845-5.386 73.616 8.855 97.273 37.864 37.127-58.11-4.753-135.343-74.328-135.343-29.886 0-57.259 15.037-73.392 39.344zm139.468 162.652c0-49.471-48.184-85.149-95.678-70.279-9.15 2.866-18.767-2.922-20.513-12.358-6.446-34.841-36.894-60.128-72.396-60.128-40.601 0-73.632 33.032-73.632 73.633 0 4.044 1.469 13.907 2.513 19.619 2.017 11.039-7.685 20.678-18.705 18.601-32.69-6.164-62.588 19.003-62.588 51.815 0 20.758 12.111 39.029 29.958 47.584l4.827-54.544c.779-8.802 8.545-15.304 17.348-14.527 8.802.779 15.306 8.546 14.527 17.348l-6.498 73.428h32.362c9.483 0 16.88 8.209 15.917 17.628l-.737 7.21 23.881-35.444h-20.572c-10.38 0-18.011-9.747-15.538-19.816l11.254-45.821c2.108-8.582 10.77-13.83 19.354-11.722 8.582 2.107 13.83 10.773 11.722 19.354l-6.387 26.004h30.239c11.739 0 21.315 12.998 12.522 26.049h93.188c40.601-.002 73.632-33.033 73.632-73.634zm107-129.996h-18c-8.836 0-16 7.164-16 16s7.164 16 16 16h18c8.836 0 16-7.164 16-16s-7.163-16-16-16zm-173.152-123c8.836 0 16-7.164 16-16v-18c0-8.836-7.164-16-16-16s-16 7.164-16 16v18c0 8.836 7.164 16 16 16zm111.092 5.325-12.728 12.728c-10.113 10.113-2.809 27.314 11.313 27.314 4.094 0 8.189-1.563 11.313-4.686l12.728-12.728c6.249-6.249 6.249-16.379 0-22.627-6.246-6.248-16.377-6.249-22.626-.001zm-232.038 35.463c3.124 3.125 7.219 4.687 11.313 4.687 14.125 0 21.423-17.205 11.313-27.313l-12.728-12.728c-6.249-6.249-16.379-6.249-22.627 0-6.249 6.248-6.249 16.379 0 22.627z"/></svg>