<svg id="Layer_1" enable-background="new 0 0 496.016 496.016" height="512" viewBox="0 0 496.016 496.016" width="512" xmlns="http://www.w3.org/2000/svg"><path d="m465.613 285.718c-16.258 28.551-41.45 51.345-71.771 64.578-1.315 48.987-41.44 88.293-90.751 88.293h-217.378c-39.113 0-70.689-32.254-69.576-71.62 1.083-38.447 33.591-67.573 68.099-67.573 7.355-.162 13.041-6.526 12.211-13.84-5.442-48.305 32.531-95.587 85.318-98.4l-.01-.132c12.063-79.155 84.689-137.812 168.097-128.63 15.672 1.75 23.654 19.486 14.872 32.577-46.419 69.104 3.265 161.396 83.345 163.686 15.612.599 25.274 17.484 17.544 31.061z" fill="#83f8fb"/><path d="m448.066 254.662c15.612.595 25.281 17.483 17.549 31.059-16.257 28.544-41.45 51.34-71.773 64.575 1.39-56.977-48.606-100.471-104.104-92.285-7.576 1.118-14.919-3.303-17.476-10.522-13.415-37.885-50.344-62.577-90.496-60.333l-.01-.132c12.136-79.636 85.287-137.844 168.101-128.626 15.669 1.744 23.652 19.479 14.867 32.57-45.782 68.215 1.645 160.581 83.342 163.694z" fill="#ffe773"/><path d="m465.573 285.789c-2.499 4.359-7.342 6.855-12.346 6.403-107.697-9.715-173.441-130.914-117.919-227.567 2.541-4.424 7.46-6.932 12.538-6.438 19.073 1.853 25.217 20.356 16.879 32.786-46.419 69.104 3.265 161.396 83.345 163.686 15.612.597 25.313 17.504 17.503 31.13z" fill="#ffec8f"/><path d="m389.308 319.327c2.176 6.59-6.736 10.99-10.745 5.325-22.44-31.707-61.434-49.859-102.565-43.831-8.954 1.335-17.513-3.996-20.548-12.525-12.693-35.6-43.284-61.522-79.695-68.692-6.763-1.332-6.474-11.182.374-11.974 42.934-4.964 82.181 20.692 96.075 59.693 2.59 7.274 9.895 11.817 17.533 10.684 44.379-6.487 85.912 19.951 99.571 61.32z" fill="#bbfbff"/><path d="m312.065 438.154s11.07.435-226.352.435c-48.041 0-80.764-47.381-66.237-90.953 10.06-30.181 38.311-48.239 64.76-48.239 7.355-.162 13.041-6.526 12.211-13.84-1.467-13.016.429-26.255 4.66-38.163 4.455-12.535 23.208-6.384 19.705 6.449-1.627 5.96-1.864 9.654-3.685 20.422-3.232 19.109 7.542 26.613 2.681 35.36-5.916 10.643-23.46 1.897-37.939 12.562-15.518 11.431-21.414 40.663-10.117 60.787 12.243 21.811 39.994 24.641 54.258 26.001 0 0 184.652.02 184.659.02 18.565.001 19.86 27.318 1.396 29.159z" fill="#6ff3fa"/><path d="m475.761 235.6c-56.915 15.638-112.882-27.482-112.882-86.062 0-27.316 12.265-52.759 33.648-69.803 9.692-7.725 7.274-23.109-4.328-27.483-95.721-36.09-201.38 20.999-224.057 120.39-55.317 9.672-92.267 61.014-88.065 110.947-44.639 2.865-80.077 40.092-80.077 85.442 0 47.211 38.408 85.62 85.619 85.62h217.409c54.495 0 99.583-41.033 106.001-93.825 43.324-22.046 74.09-60.994 86.393-105.538 3.301-11.951-7.703-22.974-19.661-19.688zm-172.733 187.051h-217.409c-29.565 0-53.619-24.054-53.619-53.62 0-33.401 30.444-58.954 63.641-52.688 11.024 2.08 20.726-7.564 18.705-18.603-1.058-5.781-2.548-15.78-2.548-19.907 0-41.24 33.551-74.791 74.79-74.791 36.062 0 66.987 25.686 73.534 61.075 1.744 9.426 11.353 15.227 20.514 12.358 48.17-15.079 97.183 21.061 97.183 71.385-.001 41.24-33.551 74.791-74.791 74.791zm104.292-97.777c-11.794-53.552-63.386-91.021-120.018-82.652-13.206-37.494-46.44-64.663-85.962-70.144 18.817-64.424 84.337-108.765 154.769-96.632-61.668 79.612-3.621 198.04 99.285 195.281-10.879 21.882-27.593 40.717-48.074 54.147z"/></svg>