<svg height="512" viewBox="0 0 128 128" width="512" xmlns="http://www.w3.org/2000/svg"><g><path d="m91.353 111.367-12.408-32.123a1.75 1.75 0 1 0 -3.265 1.262l5.492 14.22h-15.422v-14.851a1.75 1.75 0 0 0 -3.5 0v14.851h-15.422l5.492-14.22a1.75 1.75 0 1 0 -3.265-1.262l-12.408 32.122a1.751 1.751 0 0 0 3.266 1.262l5.563-14.4h16.774v13.272a1.75 1.75 0 0 0 3.5 0v-13.274h16.774l5.564 14.4a1.75 1.75 0 1 0 3.265-1.262z" fill="#d0daad"/><path d="m27.861 37.875h72.278a4.737 4.737 0 0 1 4.736 4.736 4.737 4.737 0 0 1 -4.736 4.737h-72.278a4.736 4.736 0 0 1 -4.736-4.737 4.736 4.736 0 0 1 4.736-4.736z" fill="#d0daad"/><path d="m30.5 47.348h67a0 0 0 0 1 0 0v18.527a14 14 0 0 1 -14 14h-39a14 14 0 0 1 -14-14v-18.527a0 0 0 0 1 0 0z" fill="#edf1d3"/><g fill="#c8ffff"><path d="m44.625 26.125a1.749 1.749 0 0 1 -1.75-1.75 8.725 8.725 0 0 1 1.2-4.593 5.271 5.271 0 0 0 .8-2.951 5.279 5.279 0 0 0 -.8-2.953 8.721 8.721 0 0 1 -1.2-4.592 8.713 8.713 0 0 1 1.2-4.59 5.267 5.267 0 0 0 .8-2.949 1.75 1.75 0 0 1 3.5 0 8.713 8.713 0 0 1 -1.2 4.59 5.267 5.267 0 0 0 -.8 2.949 5.279 5.279 0 0 0 .8 2.953 8.721 8.721 0 0 1 1.2 4.592 8.7 8.7 0 0 1 -1.2 4.591 5.279 5.279 0 0 0 -.8 2.953 1.749 1.749 0 0 1 -1.75 1.75z"/><path d="m63 26.125a1.749 1.749 0 0 1 -1.75-1.75 8.725 8.725 0 0 1 1.2-4.593 5.271 5.271 0 0 0 .8-2.951 5.279 5.279 0 0 0 -.8-2.953 8.721 8.721 0 0 1 -1.2-4.592 8.713 8.713 0 0 1 1.2-4.59 5.267 5.267 0 0 0 .8-2.949 1.75 1.75 0 0 1 3.5 0 8.713 8.713 0 0 1 -1.2 4.59 5.267 5.267 0 0 0 -.8 2.949 5.279 5.279 0 0 0 .8 2.953 8.721 8.721 0 0 1 1.2 4.592 8.7 8.7 0 0 1 -1.2 4.591 5.279 5.279 0 0 0 -.8 2.953 1.749 1.749 0 0 1 -1.75 1.75z"/><path d="m81.375 26.125a1.749 1.749 0 0 1 -1.75-1.75 8.725 8.725 0 0 1 1.2-4.593 5.271 5.271 0 0 0 .8-2.951 5.279 5.279 0 0 0 -.8-2.953 8.721 8.721 0 0 1 -1.2-4.592 8.713 8.713 0 0 1 1.2-4.59 5.267 5.267 0 0 0 .8-2.949 1.75 1.75 0 0 1 3.5 0 8.713 8.713 0 0 1 -1.2 4.59 5.267 5.267 0 0 0 -.8 2.949 5.279 5.279 0 0 0 .8 2.953 8.721 8.721 0 0 1 1.2 4.592 8.7 8.7 0 0 1 -1.2 4.591 5.279 5.279 0 0 0 -.8 2.953 1.749 1.749 0 0 1 -1.75 1.75z"/></g><circle cx="35.624" cy="118.874" fill="#6d4c41" r="7.374" transform="matrix(.287 -.958 .958 .287 -88.473 118.946)"/><circle cx="64" cy="118.874" fill="#6d4c41" r="7.374" transform="matrix(.588 -.809 .809 .588 -69.781 100.722)"/><circle cx="92.376" cy="118.874" fill="#6d4c41" r="7.374" transform="matrix(.214 -.977 .977 .214 -43.543 183.606)"/></g></svg>