<svg height="512" viewBox="0 0 128 128" width="512" xmlns="http://www.w3.org/2000/svg"><g><path d="m59.464 35.569a1.749 1.749 0 0 1 -1.721-1.448l-1.472-8.4a32.4 32.4 0 0 0 -15.651-22.461 1.75 1.75 0 1 1 1.76-3.026 35.9 35.9 0 0 1 17.339 24.885l1.471 8.4a1.749 1.749 0 0 1 -1.422 2.025 1.844 1.844 0 0 1 -.304.025z" fill="#70efef"/><path d="m68.8 35.569a1.854 1.854 0 0 1 -.3-.026 1.749 1.749 0 0 1 -1.422-2.025l1.472-8.4a35.9 35.9 0 0 1 17.33-24.884 1.751 1.751 0 0 1 1.761 3.026 32.4 32.4 0 0 0 -15.652 22.463l-1.471 8.4a1.751 1.751 0 0 1 -1.718 1.446z" fill="#70efef"/><circle cx="64.13" cy="41.366" fill="#6d4c41" r="8.88" transform="matrix(.23 -.973 .973 .23 9.136 94.277)"/><path d="m71.079 53.632-.827-5.843a8.859 8.859 0 0 1 -12.473-.222l-.858 6.065a215.4 215.4 0 0 0 0 60.349l.987 6.975a6.153 6.153 0 0 0 12.184 0l.987-6.975a215.4 215.4 0 0 0 0-60.349z" fill="#bc8871"/><path d="m110.78 25.5a15.468 15.468 0 0 0 -11.339 4.947l-27.549 29.686a215.552 215.552 0 0 1 1.293 21.617h27.627a25.438 25.438 0 0 0 25.438-25.437v-15.344a15.47 15.47 0 0 0 -15.47-15.469z" fill="#ffe671"/><path d="m114.337 96.089-11.462-14.339h-29.69q.1 9.968-.73 19.918l7.131 8.709a34.316 34.316 0 0 0 18.125 11.523 16.2 16.2 0 0 0 16.626-25.812z" fill="#ffae4d"/><g fill="#ffae4d"><path d="m82.872 71.75h17.94a15.412 15.412 0 0 0 2.173-.171 20.1 20.1 0 0 0 -11.413-17.952l-9.281 10q.363 4.047.581 8.123z"/><path d="m110.78 35.5a5.489 5.489 0 0 0 -4.009 1.749l-8.181 8.817a30.192 30.192 0 0 1 13.913 20.3 15.361 15.361 0 0 0 3.747-10.053v-15.343a5.476 5.476 0 0 0 -5.47-5.47z"/></g><circle cx="98.937" cy="103.563" fill="#6d4c41" r="7.125"/><path d="m17.22 25.5a15.468 15.468 0 0 1 11.339 4.947l27.549 29.686a215.552 215.552 0 0 0 -1.293 21.617h-27.627a25.438 25.438 0 0 1 -25.438-25.437v-15.344a15.47 15.47 0 0 1 15.47-15.469z" fill="#ffe671"/><path d="m13.663 96.089 11.462-14.339h29.69q-.1 9.968.73 19.918l-7.131 8.709a34.316 34.316 0 0 1 -18.125 11.523 16.2 16.2 0 0 1 -16.626-25.811z" fill="#ffae4d"/><g fill="#ffae4d"><path d="m45.128 71.75h-17.94a15.4 15.4 0 0 1 -2.173-.171 20.1 20.1 0 0 1 11.413-17.952l9.281 10q-.363 4.047-.581 8.123z"/><path d="m17.22 35.5a5.489 5.489 0 0 1 4.009 1.749l8.181 8.817a30.188 30.188 0 0 0 -13.91 20.3 15.356 15.356 0 0 1 -3.75-10.053v-15.343a5.476 5.476 0 0 1 5.47-5.47z"/></g><circle cx="29.063" cy="103.563" fill="#6d4c41" r="7.125"/></g></svg>