<svg height="512" viewBox="0 0 128 128" width="512" xmlns="http://www.w3.org/2000/svg"><g fill="#ffe671"><path d="m21.364 37.277 26.984 19.509a17.284 17.284 0 0 1 8.441-8.441l-19.509-26.984a11.4 11.4 0 0 0 -17.3-1.381 11.4 11.4 0 0 0 1.384 17.297z"/><path d="m79.652 56.786 26.984-19.509a11.4 11.4 0 0 0 1.381-17.3 11.4 11.4 0 0 0 -17.3 1.381l-19.506 26.987a17.284 17.284 0 0 1 8.441 8.441z"/><path d="m58.031 47.833a16.991 16.991 0 0 1 11.938 0l5.285-32.878a11.4 11.4 0 1 0 -22.508 0z"/><path d="m46.753 64a17.15 17.15 0 0 1 1.083-5.968l-32.878-5.289a11.4 11.4 0 1 0 0 22.508l32.878-5.285a17.156 17.156 0 0 1 -1.083-5.966z"/><path d="m113.042 52.743-32.878 5.286a16.988 16.988 0 0 1 0 11.937l32.878 5.285a11.4 11.4 0 1 0 0-22.508z"/><path d="m106.636 90.717-26.984-19.509a17.284 17.284 0 0 1 -8.441 8.441l19.509 26.984a11.4 11.4 0 1 0 15.916-15.916z"/><path d="m48.348 71.208-26.984 19.509a11.4 11.4 0 1 0 15.916 15.916l19.509-26.984a17.284 17.284 0 0 1 -8.441-8.441z"/><path d="m69.969 80.161a16.991 16.991 0 0 1 -11.938 0l-5.285 32.878a11.4 11.4 0 1 0 22.508 0z"/></g><circle cx="64" cy="63.997" fill="#77bc4d" r="17.247"/><g fill="#ff8e7d"><path d="m111.527 44.311a9.389 9.389 0 0 0 -6.839-5.626l-25.036 18.1c.187.406.356.82.512 1.243l30.5-4.905a9.386 9.386 0 0 0 .863-8.812z"/><path d="m110.669 74.87-30.5-4.9c-.156.422-.325.836-.512 1.242l25.036 18.1a9.412 9.412 0 0 0 5.981-14.439z"/><path d="m71.211 79.649c-.406.188-.82.356-1.242.512l4.9 30.5a9.413 9.413 0 0 0 14.439-5.981z"/><path d="m56.789 79.649-18.1 25.036a9.413 9.413 0 0 0 14.439 5.981l4.9-30.5c-.419-.161-.828-.329-1.239-.517z"/><path d="m47.836 69.966-30.5 4.9a9.412 9.412 0 0 0 5.981 14.439l25.036-18.1c-.192-.405-.361-.817-.517-1.239z"/><path d="m48.348 56.786-25.036-18.1a9.389 9.389 0 0 0 -6.839 5.626 9.386 9.386 0 0 0 .858 8.813l30.505 4.905c.156-.424.325-.838.512-1.244z"/><path d="m58.031 47.833-4.9-30.5a9.413 9.413 0 0 0 -14.439 5.981l18.1 25.036c.408-.192.817-.361 1.239-.517z"/><path d="m71.211 48.345 18.1-25.036a9.389 9.389 0 0 0 -5.626-6.839 9.386 9.386 0 0 0 -8.813.858l-4.9 30.505c.419.156.833.325 1.239.512z"/></g></svg>