<svg height="512" viewBox="0 0 128 128" width="512" xmlns="http://www.w3.org/2000/svg"><g><path d="m64 126.247a7.312 7.312 0 0 1 -7.312-7.312v-28.122h14.625v28.122a7.313 7.313 0 0 1 -7.313 7.312z" fill="#ffe671"/><path d="m90.623 26.691a6.6 6.6 0 0 1 -6.429-8.2c-.065 0-.129.01-.2.01a6.626 6.626 0 0 1 -6.625-6.625 6.624 6.624 0 0 1 -6.09-9.232 29.914 29.914 0 0 0 -37.185 29.009v53.16a6 6 0 0 0 6 6h47.812a6 6 0 0 0 6-6v-53.16a30.06 30.06 0 0 0 -.525-5.569 6.588 6.588 0 0 1 -2.758.607z" fill="#bc8871"/><g fill="#6d4c41"><path d="m59.252 80.813h-12.152v-42.485a6.078 6.078 0 0 1 6.078-6.078 6.078 6.078 0 0 1 6.078 6.078z"/><path d="m80.9 80.813h-12.152v-42.485a6.078 6.078 0 0 1 6.078-6.078 6.078 6.078 0 0 1 6.074 6.078z"/></g></g></svg>