<svg height="512" viewBox="0 0 128 128" width="512" xmlns="http://www.w3.org/2000/svg"><g><g fill="#bc8871"><path d="m80.876 44a1.75 1.75 0 0 1 -.982-3.2l17.529-11.856 1.027-8.344a1.751 1.751 0 0 1 .813-1.272l9.937-6.188a1.75 1.75 0 0 1 1.85 2.97l-9.228 5.746-1.022 8.306a1.752 1.752 0 0 1 -.757 1.235l-18.189 12.303a1.74 1.74 0 0 1 -.978.3z"/><path d="m89.631 66.519a1.751 1.751 0 0 1 -.537-3.417l17.492-5.643a1.762 1.762 0 0 1 .874-.051l9.994 1.958 7.6-7.141a1.75 1.75 0 1 1 2.4 2.55l-8.254 7.756a1.753 1.753 0 0 1 -1.535.443l-10.435-2.045-17.062 5.5a1.765 1.765 0 0 1 -.537.09z"/><path d="m125.7 120.813a1.735 1.735 0 0 1 -.715-.154l-12.01-5.386a1.753 1.753 0 0 1 -1.031-1.474l-.877-12.505-19.559-12.987a1.75 1.75 0 1 1 1.935-2.916l20.275 13.464a1.747 1.747 0 0 1 .778 1.335l.864 12.318 11.054 4.958a1.75 1.75 0 0 1 -.717 3.347z"/><path d="m47.124 44a1.75 1.75 0 0 0 .982-3.2l-17.529-11.856-1.027-8.344a1.754 1.754 0 0 0 -.813-1.272l-9.937-6.188a1.75 1.75 0 0 0 -1.85 2.97l9.228 5.746 1.022 8.306a1.752 1.752 0 0 0 .757 1.235l18.188 12.303a1.746 1.746 0 0 0 .979.3z"/><path d="m38.369 66.519a1.751 1.751 0 0 0 .537-3.417l-17.492-5.643a1.762 1.762 0 0 0 -.874-.051l-9.994 1.958-7.6-7.141a1.75 1.75 0 1 0 -2.4 2.55l8.254 7.756a1.753 1.753 0 0 0 1.535.443l10.43-2.045 17.063 5.5a1.765 1.765 0 0 0 .541.09z"/><path d="m2.3 120.813a1.735 1.735 0 0 0 .715-.154l12.01-5.386a1.753 1.753 0 0 0 1.031-1.474l.876-12.505 19.56-12.987a1.75 1.75 0 1 0 -1.935-2.916l-20.275 13.464a1.747 1.747 0 0 0 -.778 1.335l-.864 12.318-11.054 4.958a1.75 1.75 0 0 0 .717 3.347z"/></g><path d="m54.867 18.746a1.743 1.743 0 0 1 -.827-.21 18.574 18.574 0 0 1 -9.689-14.484l-.217-2.128a1.75 1.75 0 1 1 3.482-.354l.217 2.13a15.077 15.077 0 0 0 7.867 11.754 1.751 1.751 0 0 1 -.831 3.292z" fill="#6d4c41"/><path d="m73.133 18.746a1.751 1.751 0 0 1 -.831-3.292 15.077 15.077 0 0 0 7.865-11.754l.217-2.126a1.75 1.75 0 1 1 3.482.354l-.217 2.127a18.576 18.576 0 0 1 -9.689 14.481 1.743 1.743 0 0 1 -.827.21z" fill="#6d4c41"/><path d="m64 126.276a32.25 32.25 0 0 1 -32.25-32.25v-19.466a28 28 0 0 1 13.234-23.79l8.5-5.277a19.939 19.939 0 0 1 21.027 0l8.5 5.277a28 28 0 0 1 13.239 23.79v19.466a32.25 32.25 0 0 1 -32.25 32.25z" fill="#ef5350"/><path d="m52.74 32.515 11.26-4.641 11.26 4.641a21.03 21.03 0 0 1 4.865 2.834v-6.974a12.75 12.75 0 0 0 -12.75-12.75h-6.75a12.75 12.75 0 0 0 -12.75 12.75v6.974a21.03 21.03 0 0 1 4.865-2.834z" fill="#bc8871"/><path d="m44.984 50.77 8.5-5.277a19.939 19.939 0 0 1 21.027 0l8.5 5.277a27.906 27.906 0 0 1 5.053 4.03 20.605 20.605 0 0 0 .217-2.829 21.04 21.04 0 0 0 -13.021-19.456l-11.26-4.641-11.26 4.641a21.038 21.038 0 0 0 -13.021 19.451 20.605 20.605 0 0 0 .217 2.829 27.934 27.934 0 0 1 5.048-4.025z" fill="#6d4c41"/><path d="m62.25 42.582v83.645c.58.031 1.163.049 1.75.049.587 0 1.17-.018 1.75-.049v-83.645a20.055 20.055 0 0 0 -3.5 0z" fill="#e53935"/><circle cx="76.25" cy="64.5" fill="#6d4c41" r="5.375"/><path d="m81.625 83.863a10.618 10.618 0 0 0 14.625 9.837v-19.14c0-.182-.014-.362-.018-.543a10.615 10.615 0 0 0 -14.607 9.846z" fill="#6d4c41"/><path d="m93.02 108.106a11.256 11.256 0 1 0 -16.159 15.5 32.372 32.372 0 0 0 16.159-15.5z" fill="#6d4c41"/><circle cx="51.75" cy="64.5" fill="#6d4c41" r="5.375"/><path d="m46.375 83.863a10.618 10.618 0 0 1 -14.625 9.837v-19.14c0-.182.014-.362.017-.543a10.616 10.616 0 0 1 14.608 9.846z" fill="#6d4c41"/><path d="m34.98 108.106a11.256 11.256 0 1 1 16.159 15.5 32.372 32.372 0 0 1 -16.159-15.5z" fill="#6d4c41"/></g></svg>