<svg height="512" viewBox="0 0 128 128" width="512" xmlns="http://www.w3.org/2000/svg"><g><path d="m54.751 1.747h18.5a36.5 36.5 0 0 1 36.5 36.5 8.314 8.314 0 0 1 -8.314 8.314h-74.873a8.314 8.314 0 0 1 -8.314-8.314 36.5 36.5 0 0 1 36.501-36.5z" fill="#6d4c41"/><g fill="#bc8871"><path d="m69.711 46.563h-11.368l-1.066 27.6a219.406 219.406 0 0 1 -5.092 39.259 10.537 10.537 0 0 0 4.84 11.313 10.548 10.548 0 0 0 5.443 1.514h3.119a10.544 10.544 0 0 0 5.442-1.514 10.535 10.535 0 0 0 4.84-11.313 219.406 219.406 0 0 1 -5.092-39.259z"/><path d="m34.437 29.063a1.75 1.75 0 0 0 -1.75 1.75v15.75h3.5v-15.75a1.749 1.749 0 0 0 -1.75-1.75z"/><path d="m41.187 35.938a1.751 1.751 0 0 1 -1.75-1.75v-11.882a1.75 1.75 0 1 1 3.5 0v11.882a1.75 1.75 0 0 1 -1.75 1.75z"/><path d="m71.5 39.111a1.749 1.749 0 0 1 -1.75-1.75v-9.75a1.75 1.75 0 0 1 3.5 0v9.75a1.749 1.749 0 0 1 -1.75 1.75z"/><path d="m79.062 30.736a1.751 1.751 0 0 0 -1.75 1.75v14.077h3.5v-14.077a1.75 1.75 0 0 0 -1.75-1.75z"/><path d="m89.562 32.563a1.751 1.751 0 0 1 -1.75-1.75v-10.5a1.75 1.75 0 0 1 3.5 0v10.5a1.75 1.75 0 0 1 -1.75 1.75z"/><path d="m56.344 35.128a1.749 1.749 0 0 1 -1.75-1.75v-5.131a1.75 1.75 0 0 1 3.5 0v5.131a1.75 1.75 0 0 1 -1.75 1.75z"/><path d="m50.893 20.315a1.749 1.749 0 0 1 -1.75-1.75v-5.13a1.75 1.75 0 0 1 3.5 0v5.13a1.75 1.75 0 0 1 -1.75 1.75z"/><path d="m77.562 19.25a1.75 1.75 0 0 1 -1.75-1.75v-3a1.75 1.75 0 0 1 3.5 0v3a1.749 1.749 0 0 1 -1.75 1.75z"/></g></g></svg>