<svg height="512" viewBox="0 0 128 128" width="512" xmlns="http://www.w3.org/2000/svg"><g><circle cx="64" cy="42.464" fill="#bc8871" r="8.464"/><path d="m64 34v-20.327h-28.792l22.807 22.806a8.437 8.437 0 0 1 5.985-2.479z" fill="#ff8e7d"/><path d="m43.641 22.106-20.358 20.358h32.253a8.437 8.437 0 0 1 2.479-5.985z" fill="#ffe671"/><path d="m35.208 42.464v28.792l22.807-22.806a8.438 8.438 0 0 1 -2.479-5.986z" fill="#ff8e7d"/><path d="m43.641 62.823 20.359 20.359v-32.253a8.441 8.441 0 0 1 -5.985-2.479z" fill="#ffe671"/><path d="m69.985 48.45a8.441 8.441 0 0 1 -5.985 2.479v20.327h28.792z" fill="#ff8e7d"/><path d="m72.464 42.464a8.438 8.438 0 0 1 -2.479 5.986l14.374 14.373 20.358-20.359z" fill="#ffe671"/><path d="m69.985 36.479a8.437 8.437 0 0 1 2.479 5.985h20.328v-28.791z" fill="#ff8e7d"/><path d="m64 71.256v11.926l-5.156-5.157v48.222h10.312v-54.991z" fill="#70efef"/><path d="m84.359 22.106-20.359-20.359v32.253a8.437 8.437 0 0 1 5.985 2.479z" fill="#ffe671"/></g></svg>