<?xml version="1.0"?>
<svg xmlns="http://www.w3.org/2000/svg" width="512" height="512" viewBox="0 0 128 128"><g><path d="M101.274,45.2a1.749,1.749,0,0,1-1.533-.906l-1.909-3.46a35.58,35.58,0,0,1-4.393-18.653,1.75,1.75,0,1,1,3.5.146A32.072,32.072,0,0,0,100.9,39.147l1.908,3.46a1.752,1.752,0,0,1-1.531,2.6Z" fill="#edf1d3"/><path d="M112.855,43.179a1.75,1.75,0,0,1-1.745-1.643l-.173-2.824a51.045,51.045,0,0,1,4.682-24.633,1.75,1.75,0,0,1,3.172,1.481,47.522,47.522,0,0,0-4.36,22.938l.172,2.824a1.749,1.749,0,0,1-1.639,1.854Z" fill="#edf1d3"/><path d="M1.75,124.669h0a39.11,39.11,0,0,1,36.124-24.122H65.687A28.312,28.312,0,0,0,94,72.235V56.252a14.9,14.9,0,0,1,14.9-14.9h2.454a14.9,14.9,0,0,1,14.9,14.9h0a14.9,14.9,0,0,1-4.363,10.534l-6.7,6.7V95.827a28.842,28.842,0,0,1-28.843,28.842Z" fill="#d0daad"/><path d="M46.879,100.547H65.687A28.313,28.313,0,0,0,94,72.235V62.168A38.379,38.379,0,0,0,55.621,23.789H46.879A38.379,38.379,0,0,0,8.5,62.168h0A38.379,38.379,0,0,0,46.879,100.547Z" fill="#6d4c41"/><path d="M102.109,16.2a6.117,6.117,0,1,1-6.117-6.117A6.117,6.117,0,0,1,102.109,16.2Z" fill="#77bc4d"/><circle cx="120.133" cy="9.448" r="6.117" fill="#77bc4d"/><path d="M89.657,87.3a28.139,28.139,0,0,0,1.873-3.5H47.454C35.652,83.8,25.7,74.469,25.266,63A21.654,21.654,0,0,1,46.879,40.539h8.742A21.654,21.654,0,0,1,77.25,62.168a11.611,11.611,0,0,1-11.6,11.6H46.879a11.6,11.6,0,1,1,0-23.2h3.773a11.611,11.611,0,0,1,11.6,11.6,1.75,1.75,0,1,0,3.5,0,15.115,15.115,0,0,0-15.1-15.1H46.879a15.1,15.1,0,1,0,0,30.2H65.652a15.115,15.115,0,0,0,15.1-15.1A25.157,25.157,0,0,0,55.621,37.039H46.879a25.151,25.151,0,0,0-25.11,26.1C22.271,76.458,33.794,87.3,47.454,87.3Z" fill="#bc8871"/></g></svg>
