<svg height="512" viewBox="0 0 128 128" width="512" xmlns="http://www.w3.org/2000/svg"><g><g fill="#77bc4d"><path d="m70.5 44.5h-13a8.587 8.587 0 0 1 -6.721-3.243 8.588 8.588 0 0 1 -1.058-8.984l14.279-30.526 14.282 30.526a8.588 8.588 0 0 1 -1.058 8.984 8.587 8.587 0 0 1 -6.724 3.243z"/><path d="m90.018 66.235-6.86-6.861a6.4 6.4 0 0 1 -1.835-5.256 6.405 6.405 0 0 1 4.182-5.3l23.635-8.569-8.569 23.636a6.4 6.4 0 0 1 -5.3 4.182 6.407 6.407 0 0 1 -5.253-1.832z"/><path d="m37.982 66.235 6.86-6.861a6.4 6.4 0 0 0 1.835-5.256 6.405 6.405 0 0 0 -4.182-5.3l-23.635-8.566 8.568 23.636a6.407 6.407 0 0 0 5.3 4.182 6.407 6.407 0 0 0 5.254-1.835z"/></g><path d="m96.448 52.944a1.75 1.75 0 0 0 -2.474 0l-28.224 28.224v-53.668a1.75 1.75 0 0 0 -3.5 0v53.668l-28.224-28.224a1.75 1.75 0 0 0 -2.474 2.475l30.7 30.7v11.381a1.75 1.75 0 0 0 3.5 0v-11.383l30.7-30.7a1.749 1.749 0 0 0 -.004-2.473z" fill="#ffe671"/><path d="m107.812 116.25a7.686 7.686 0 0 0 -7.687-7.687h-10.75a11.063 11.063 0 0 0 -11.062-11.063h-28.625a11.063 11.063 0 0 0 -11.063 11.063h-10.75a7.686 7.686 0 0 0 -7.687 7.687h-10.751a7.688 7.688 0 0 0 -7.687 7.688v2.309h124.5v-2.309a7.688 7.688 0 0 0 -7.688-7.688z" fill="#bc8871"/></g></svg>