<svg height="512" viewBox="0 0 128 128" width="512" xmlns="http://www.w3.org/2000/svg"><g><circle cx="64" cy="45.205" fill="#6d4c41" r="14.142"/><path d="m64 31.063a14.154 14.154 0 0 1 2.923.306 22.393 22.393 0 0 0 3.942-12.086c0-9.055-6.865-17.536-6.865-17.536s-6.865 8.481-6.865 17.536a22.393 22.393 0 0 0 3.942 12.086 14.154 14.154 0 0 1 2.923-.306z" fill="#ffe671"/><g fill="#ffae4d"><path d="m44.984 26.3a22.386 22.386 0 0 1 8.5 9.472 14.1 14.1 0 0 1 7.591-4.4 22.393 22.393 0 0 1 -3.942-12.086 19.741 19.741 0 0 1 .273-3.186c-5.584-5.734-15.137-8.528-15.137-8.528s-2.358 9.67-.183 17.373a19.831 19.831 0 0 1 2.898 1.355z"/><path d="m66.923 31.369a14.1 14.1 0 0 1 7.591 4.4 22.386 22.386 0 0 1 8.5-9.472 19.831 19.831 0 0 1 2.9-1.356c2.174-7.7-.183-17.373-.183-17.373s-9.556 2.794-15.139 8.532a19.741 19.741 0 0 1 .273 3.186 22.393 22.393 0 0 1 -3.942 12.083z"/><path d="m50.56 49.592a14.062 14.062 0 0 1 0-8.775 22.382 22.382 0 0 1 -12.442-2.627 19.864 19.864 0 0 1 -2.611-1.822c-7.762 1.965-14.965 8.837-14.965 8.837s7.2 6.871 14.965 8.836a19.763 19.763 0 0 1 2.611-1.821 22.384 22.384 0 0 1 12.442-2.628z"/><path d="m92.493 36.368a19.864 19.864 0 0 1 -2.611 1.822 22.382 22.382 0 0 1 -12.442 2.627 14.062 14.062 0 0 1 0 8.775 22.384 22.384 0 0 1 12.442 2.628 19.763 19.763 0 0 1 2.611 1.821c7.762-1.965 14.965-8.836 14.965-8.836s-7.204-6.872-14.965-8.837z"/><path d="m61.077 59.041a14.113 14.113 0 0 1 -7.591-4.4 22.386 22.386 0 0 1 -8.5 9.472 19.733 19.733 0 0 1 -2.9 1.357c-2.175 7.7.183 17.373.183 17.373s9.553-2.794 15.137-8.529a19.741 19.741 0 0 1 -.273-3.186 22.386 22.386 0 0 1 3.944-12.087z"/><path d="m83.016 64.111a22.386 22.386 0 0 1 -8.5-9.472 14.113 14.113 0 0 1 -7.591 4.4 22.386 22.386 0 0 1 3.942 12.085 19.763 19.763 0 0 1 -.273 3.187c5.584 5.734 15.137 8.528 15.137 8.528s2.357-9.671.183-17.373a19.733 19.733 0 0 1 -2.898-1.355z"/></g><g fill="#ffe671"><path d="m53.486 35.77a22.386 22.386 0 0 0 -8.5-9.472c-7.842-4.527-18.619-2.822-18.619-2.822s3.909 10.186 11.751 14.714a22.382 22.382 0 0 0 12.442 2.627 14.111 14.111 0 0 1 2.926-5.047z"/><path d="m50.56 49.592a22.384 22.384 0 0 0 -12.442 2.628c-7.842 4.527-11.753 14.713-11.753 14.713s10.777 1.706 18.619-2.822a22.386 22.386 0 0 0 8.5-9.472 14.094 14.094 0 0 1 -2.924-5.047z"/><path d="m64 59.347a14.223 14.223 0 0 1 -2.923-.306 22.386 22.386 0 0 0 -3.942 12.085c0 9.055 6.865 17.536 6.865 17.536s6.865-8.481 6.865-17.536a22.386 22.386 0 0 0 -3.942-12.085 14.223 14.223 0 0 1 -2.923.306z"/><path d="m89.882 52.22a22.384 22.384 0 0 0 -12.442-2.628 14.094 14.094 0 0 1 -2.926 5.047 22.386 22.386 0 0 0 8.5 9.472c7.842 4.528 18.619 2.822 18.619 2.822s-3.909-10.186-11.751-14.713z"/><path d="m83.016 26.3a22.386 22.386 0 0 0 -8.5 9.472 14.111 14.111 0 0 1 2.926 5.047 22.382 22.382 0 0 0 12.44-2.629c7.842-4.528 11.753-14.714 11.753-14.714s-10.777-1.705-18.619 2.824z"/></g><path d="m95.125 126.247h-27.125a31.125 31.125 0 0 1 31.125-31.125h27.125a31.125 31.125 0 0 1 -31.125 31.125z" fill="#77bc4d"/><path d="m108.087 104.063-40.017 20.188c-.041.661-.07 1.325-.07 2h3.885l37.778-19.059a1.75 1.75 0 0 0 -1.576-3.125z" fill="#479838"/><path d="m32.875 126.247h27.125a31.125 31.125 0 0 0 -31.125-31.125h-27.125a31.125 31.125 0 0 0 31.125 31.125z" fill="#77bc4d"/><path d="m60 126.247c0-.671-.029-1.335-.07-2l-40.017-20.184a1.75 1.75 0 0 0 -1.576 3.125l37.778 19.059z" fill="#479838"/><path d="m64 88.662a37.33 37.33 0 0 1 -4-6.5v44.083h8v-44.081a37.33 37.33 0 0 1 -4 6.498z" fill="#bc8871"/></g></svg>