<svg height="512" viewBox="0 0 128 128" width="512" xmlns="http://www.w3.org/2000/svg"><g><path d="m64 1.747a62.25 62.25 0 0 0 -62.25 62.253h32.344c0-34.383 13.389-62.253 29.906-62.253z" fill="#ffe671"/><path d="m126.25 64a62.25 62.25 0 0 0 -62.25-62.253c16.517 0 29.906 27.87 29.906 62.25h32.344z" fill="#ffae4d"/><path d="m34.094 64h29.906v-62.253c-16.517 0-29.906 27.87-29.906 62.253z" fill="#ffae4d"/><path d="m64 1.747v62.253h29.906c0-34.383-13.389-62.253-29.906-62.253z" fill="#ffe671"/><path d="m52.457 126.224c-8.457-.418-14.957-7.717-14.957-16.188v-5.729a5 5 0 0 1 5-5 5 5 0 0 1 5 5v5.985a5.884 5.884 0 0 0 4.993 5.9 5.756 5.756 0 0 0 6.507-5.7v-46.492h10v46.493a15.767 15.767 0 0 1 -16.543 15.731z" fill="#70efef"/></g></svg>