<svg height="512" viewBox="0 0 128 128" width="512" xmlns="http://www.w3.org/2000/svg"><g><path d="m68.25 71.738a34.687 34.687 0 0 0 30.438-34.419v-16.909a10.657 10.657 0 1 0 -21.313 0v16.1h-48.062v.813a34.686 34.686 0 0 0 30.437 34.415v20.011h8.5z" fill="#edf1d3"/><path d="m45.313 36.506h-16.813a26.752 26.752 0 0 1 -26.75-26.752h16.81a26.752 26.752 0 0 1 26.753 26.752z" fill="#d0daad"/><path d="m23.531 17.409h-20.663a26.489 26.489 0 0 0 1.32 3.5h19.343a1.75 1.75 0 0 0 0-3.5z" fill="#acb58a"/><path d="m31.063 28.444a1.751 1.751 0 0 0 -1.75-1.75h-21.513a26.862 26.862 0 0 0 3.452 3.5h18.061a1.75 1.75 0 0 0 1.75-1.75z" fill="#acb58a"/><path d="m98.688 20.825v9.73h7.2a5.034 5.034 0 0 0 5.034-5.034z" fill="#ffe671"/><path d="m70.25 51.694h-9.75a15.187 15.187 0 0 1 -15.187-15.188h32.062v8.063a7.125 7.125 0 0 1 -7.125 7.125z" fill="#d0daad"/><path d="m61.344 42.351h-.023l-14.753.2a15.182 15.182 0 0 0 2.1 3.473l12.7-.168a1.75 1.75 0 0 0 -.023-3.5z" fill="#acb58a"/><path d="m59.75 91.749h8.5v34.498h-8.5z" fill="#bc8871"/><path d="m88.031 9.754h-9.212a8.006 8.006 0 0 1 -8.006-8.007h9.212a8.006 8.006 0 0 1 8.006 8.007z" fill="#ef5350"/><path d="m102.25 90h-71.34l-9.669-12.627h-19.491l6.5 14.376-6.5 14.376h19.491l9.669-12.625h71.34a1.75 1.75 0 0 0 0-3.5z" fill="#6d4c41"/><path d="m106.234 106.125h-10.484l6.5-14.376-6.5-14.376h10.484l20.016 14.376z" fill="#ffe671"/><path d="m7.459 90 .791 1.75-.791 1.75h12.791a1.75 1.75 0 0 0 0-3.5z" fill="#bc8871"/></g></svg>