<?xml version="1.0" encoding="iso-8859-1"?>
<!-- Generator: Adobe Illustrator 19.0.0, SVG Export Plug-In . SVG Version: 6.00 Build 0)  -->
<svg xmlns="http://www.w3.org/2000/svg" xmlns:xlink="http://www.w3.org/1999/xlink" version="1.1" id="Layer_1" x="0px" y="0px" viewBox="0 0 512.001 512.001" style="enable-background:new 0 0 512.001 512.001;" xml:space="preserve">
<g>
	<path style="fill:#F9EACD;" d="M227.138,149.674h-42.654H154.66c-64.46,0-104.068-5.179-118.412,55.208L10.664,312.573v54.984   c0,58.398,0,83.581,42.651,83.581c0-23.557,19.097-42.656,42.654-42.656c23.556,0,42.654,19.099,42.654,42.656h78.532h113.411   c0-23.557,19.097-42.656,42.654-42.656c23.556,0,42.654,19.099,42.654,42.656c78.412,0,85.322-13,85.37-49.425l0.044-27.591   h-17.029c-17.199,0-31.144-13.946-31.144-31.146c0-17.198,13.945-31.144,31.144-31.144h11.757   c-5.251-7.84-15.365-11.376-34.358-16.466l-72.692-19.472l-54.205,10.539c-47.055-65.456-75.01-99.367-22.807-119.078   C291.495,147.951,272.888,149.674,227.138,149.674z"/>
	<g>
		<path style="fill:#7BA9D6;" d="M138.623,451.138c0-23.557-19.098-42.656-42.654-42.656c-23.557,0-42.654,19.099-42.654,42.656    c0,23.555,19.097,42.651,42.654,42.651C119.525,493.79,138.623,474.693,138.623,451.138z"/>
		<circle style="fill:#7BA9D6;" cx="373.216" cy="451.139" r="42.654"/>
	</g>
	<path style="fill:#FFA233;" d="M453.113,342.976c0,17.2,13.945,31.146,31.144,31.146h17.029l0.05-31.146   c0.019-15.41-1.018-24.723-5.321-31.144h-11.757C467.058,311.832,453.113,325.778,453.113,342.976z"/>
	<path style="fill:#9FDEE2;" d="M334.76,286.433l54.205-10.539l-51.891-76.89c-9.628-14.265-17.504-24.423-25.121-31.648   C259.75,187.066,287.705,220.976,334.76,286.433z"/>
	<path style="fill:#FFE67B;" d="M227.138,149.674v-49.259c4.938,1.999,10.338,3.101,15.994,3.101   c23.557,0,42.651-19.095,42.651-42.651s-19.095-42.651-42.651-42.651c-16.061,0-30.045,8.877-37.32,21.99   c-7.275-13.113-21.26-21.99-37.32-21.99c-23.559,0-42.655,19.095-42.655,42.651s19.096,42.651,42.655,42.651   c5.655,0,11.055-1.102,15.992-3.101v49.258h42.654V149.674z"/>
	<g>
		<path style="fill:#000003;" d="M511.978,358.996c0-0.387,0-0.783,0.001-1.177c0.001-0.721,0.003-1.449,0.003-2.185    c0.002-0.529,0.002-1.066,0.003-1.604c0.001-0.398,0.001-0.804,0.001-1.208c0.004-2.251,0.007-4.595,0.011-7.046    c0.001-0.914,0.002-1.84,0.004-2.784c0.001-1.119-0.004-2.207-0.015-3.28c-0.003-0.327-0.011-0.642-0.015-0.964    c-0.01-0.737-0.02-1.473-0.037-2.189c-0.009-0.381-0.022-0.756-0.033-1.134c-0.019-0.627-0.037-1.25-0.063-1.86    c-0.017-0.419-0.037-0.831-0.059-1.243c-0.026-0.537-0.054-1.071-0.087-1.595c-0.027-0.45-0.057-0.896-0.089-1.337    c-0.032-0.448-0.068-0.892-0.108-1.331c-0.042-0.49-0.084-0.979-0.132-1.458c-0.034-0.336-0.071-0.667-0.11-0.998    c-0.063-0.556-0.126-1.114-0.198-1.656c-0.021-0.156-0.046-0.308-0.068-0.465c-0.753-5.396-2.025-10.02-4.082-14.099    c-0.004-0.006-0.006-0.011-0.009-0.017c-0.291-0.577-0.598-1.143-0.922-1.7c-0.034-0.061-0.07-0.118-0.107-0.179    c-0.295-0.5-0.601-0.997-0.927-1.483c-0.022-0.033-0.044-0.07-0.067-0.105c-0.027-0.042-0.061-0.075-0.087-0.116    c-0.692-1.016-1.433-2.006-2.259-2.959c-7.909-9.125-20.785-13.116-38.114-17.76l-68.841-18.441l-49.66-73.585    c-9.575-14.186-17.783-24.656-25.673-32.387c-0.576-0.712-1.234-1.337-1.959-1.87c-21.446-19.912-41.155-19.914-80.48-19.791    v-25.071c1.762,0.175,3.54,0.262,5.33,0.262c29.398,0,53.315-23.917,53.315-53.315S272.529,7.548,243.13,7.548    c-14.143,0-27.486,5.616-37.32,15.244c-9.834-9.631-23.178-15.244-37.32-15.244c-29.4,0-53.319,23.917-53.319,53.315    s23.918,53.315,53.319,53.315c1.789,0,3.566-0.087,5.328-0.262v25.091h-19.16c-4.838,0-9.537-0.029-14.095-0.059    c-29.54-0.179-52.879-0.33-72.192,7.312c-21.961,8.689-35.466,26.535-42.502,56.154L0.289,310.11    c-0.01,0.035-0.012,0.073-0.02,0.11c-0.065,0.29-0.115,0.585-0.157,0.883c-0.013,0.096-0.033,0.192-0.044,0.29    C0.025,311.78,0,312.173,0,312.573v54.984c0,30.253,0,52.109,6.067,67.583c7.571,19.305,23.436,24.816,37.581,26.223    c4.785,24.523,26.421,43.091,52.323,43.091c25.747,0,47.288-18.345,52.243-42.651h172.762    c4.956,24.306,26.498,42.651,52.245,42.651c25.773,0,47.33-18.383,52.258-42.726c35.82-0.556,55.986-4.384,68.441-12.81    c16.556-11.199,17.964-29.455,17.987-47.192c0.013-10.695,0.028-19.21,0.044-27.582v-0.002    C511.958,369.182,511.968,364.273,511.978,358.996z M484.257,322.496h4.857c0.144,0.555,0.271,1.143,0.391,1.75    c0.035,0.186,0.068,0.378,0.103,0.568c0.069,0.389,0.135,0.793,0.197,1.204c0.046,0.304,0.092,0.604,0.133,0.922    c0.029,0.21,0.052,0.435,0.078,0.654c0.391,3.308,0.597,7.402,0.643,12.528c0.007,0.929,0.012,1.87,0.012,2.841    c-0.002,1.25-0.004,2.46-0.005,3.656c-0.001,0.298-0.001,0.592-0.001,0.887c-0.009,5.811-0.017,10.999-0.025,15.952h-6.383    c-11.293,0-20.48-9.189-20.48-20.482C463.777,331.683,472.965,322.496,484.257,322.496z M371.111,268.501l-31.686,6.161    c-0.977-1.355-1.945-2.697-2.904-4.023c-25.578-35.445-45.783-63.44-41.478-77.744c1.418-4.711,6.269-9.047,14.448-12.932    c5.587,6.195,11.535,14.326,18.744,25.006L371.111,268.501z M190.444,91.572c-2.941-1.982-6.677-2.373-9.962-1.042    c-3.806,1.541-7.84,2.323-11.989,2.323c-17.639,0-31.991-14.348-31.991-31.988c0-17.637,14.352-31.988,31.991-31.988    c11.619,0,22.348,6.324,27.995,16.5c1.881,3.389,5.45,5.49,9.326,5.49s7.446-2.104,9.325-5.49    c5.645-10.179,16.371-16.5,27.994-16.5c17.638,0,31.988,14.35,31.988,31.988c0,17.639-14.349,31.988-31.988,31.988    c-4.151,0-8.186-0.781-11.991-2.323c-3.289-1.331-7.021-0.942-9.962,1.042c-2.941,1.982-4.705,5.297-4.705,8.844v38.594h-21.326    v-38.594C195.148,96.869,193.386,93.555,190.444,91.572z M95.971,483.126c-17.639,0-31.99-14.353-31.99-31.992    s14.35-31.988,31.99-31.988c17.631,0,31.975,14.336,31.989,31.963c0,0.011-0.001,0.019-0.001,0.029c0,0.009,0,0.017,0,0.025    C127.944,468.79,113.6,483.126,95.971,483.126z M373.221,483.126c-17.639,0-31.99-14.353-31.99-31.992s14.35-31.988,31.99-31.988    c17.631,0,31.975,14.336,31.989,31.963c0,0.011-0.001,0.019-0.001,0.029c0,0.009,0,0.017,0,0.025    C405.193,468.79,390.85,483.126,373.221,483.126z M481.969,431.251c-8.563,5.793-26.169,8.671-56.516,9.15    c-4.981-24.273-26.508-42.583-52.232-42.583c-25.75,0-47.295,18.347-52.246,42.656H227.82v-68.638    c0-5.89-4.775-10.664-10.664-10.664c-5.89,0-10.664,4.774-10.664,10.664v68.638h-58.274    c-4.953-24.308-26.496-42.656-52.245-42.656c-25.543,0-46.941,18.058-52.116,42.075c-12.519-1.726-15.792-7.08-17.932-12.541    c-4.597-11.716-4.597-31.882-4.597-59.794v-44.32h54.63c5.89,0,10.664-4.774,10.664-10.664c0-5.889-4.774-10.664-10.664-10.664    h-51.8l22.465-94.563c6.823-28.728,18.791-36.974,29.599-41.25c15.466-6.121,36.976-5.988,64.211-5.817    c4.6,0.029,9.344,0.059,14.228,0.059h72.477c3.621,0,7.073-0.011,10.371-0.021c26.279-0.083,41.406-0.129,53.772,5.496    c-8.675,5.791-14.184,12.714-16.658,20.934c-7.34,24.389,13.326,53.026,44.606,96.373c2.239,3.101,4.533,6.28,6.874,9.537    c2.026,2.818,5.267,4.438,8.658,4.438c0.675,0,1.356-0.063,2.036-0.196l51.788-10.07l70.313,18.837    c1.52,0.406,2.956,0.8,4.351,1.187c-12.425,7.257-20.798,20.726-20.798,36.122c0,23.054,18.756,41.81,41.808,41.81h6.346    c-0.009,5.168-0.017,10.662-0.025,16.912C490.556,419.9,488.544,426.805,481.969,431.251z"/>
		<path style="fill:#000003;" d="M217.151,330.282c-5.89,0-10.664,4.775-10.664,10.664v0.256c0,5.89,4.774,10.664,10.664,10.664    c5.889,0,10.664-4.774,10.664-10.664v-0.256C227.815,335.057,223.039,330.282,217.151,330.282z"/>
		<path style="fill:#000003;" d="M168.492,50.201c-5.89,0-10.666,4.772-10.666,10.664c0,5.888,4.776,10.662,10.666,10.662    c5.888,0,10.662-4.774,10.662-10.662C179.154,54.973,174.38,50.201,168.492,50.201z"/>
		<path style="fill:#000003;" d="M243.131,71.527c5.89,0,10.663-4.774,10.663-10.662c0-5.892-4.773-10.664-10.663-10.664    c-5.89,0-10.663,4.772-10.663,10.664C232.468,66.754,237.242,71.527,243.131,71.527z"/>
	</g>
</g>
<g>
</g>
<g>
</g>
<g>
</g>
<g>
</g>
<g>
</g>
<g>
</g>
<g>
</g>
<g>
</g>
<g>
</g>
<g>
</g>
<g>
</g>
<g>
</g>
<g>
</g>
<g>
</g>
<g>
</g>
</svg>
