<?xml version="1.0" encoding="iso-8859-1"?>
<!-- Generator: Adobe Illustrator 19.0.0, SVG Export Plug-In . SVG Version: 6.00 Build 0)  -->
<svg xmlns="http://www.w3.org/2000/svg" xmlns:xlink="http://www.w3.org/1999/xlink" version="1.1" id="Layer_1" x="0px" y="0px" viewBox="0 0 512.001 512.001" style="enable-background:new 0 0 512.001 512.001;" xml:space="preserve">
<g>
	<path style="fill:#F9EACD;" d="M92.222,161.752c-11.782,0-21.332,9.545-21.332,21.31c0,11.767,9.55,21.308,21.332,21.308   c11.784,0,21.334-9.54,21.334-21.308C113.556,171.297,104.006,161.752,92.222,161.752z"/>
	<ellipse style="fill:#F9EACD;" cx="136.189" cy="116.38" rx="23.999" ry="23.971"/>
	<ellipse style="fill:#F9EACD;" cx="202.421" cy="61.199" rx="26.667" ry="26.632"/>
	<ellipse style="fill:#F9EACD;" cx="291.706" cy="41.571" rx="30.935" ry="30.903"/>
	<ellipse style="fill:#F9EACD;" cx="395.924" cy="65.156" rx="45.186" ry="45.133"/>
	<path style="fill:#F9EACD;" d="M376.067,281.769c40.723-70.464,25.201-142.582-67.678-153.597   c-70.318-10.429-165.779,41.747-176.555,117.949c-6.114,43.265,19.838,84.3,42.152,119.483   c20.078,31.662,44.938,65.295,68.251,90.173c28.998,30.928,65.145,55.937,109.846,41.223c25.927-8.532,45.411-30.968,46.353-65.981   C399.975,373.89,340.094,343.995,376.067,281.769z"/>
</g>
<g>
	<path style="fill:#000003;" d="M385.303,287.107c24.434-42.282,29.299-84.796,13.345-116.648   c-10.275-20.511-34.026-46.32-88.849-52.861c-6.404-0.942-13.11-1.419-19.939-1.419c-36.01,0-74.934,12.927-106.791,35.464   c-34.857,24.66-56.803,57.683-61.794,92.986c-6.68,47.25,21.258,91.296,43.705,126.688c21.959,34.627,47.281,68.071,69.479,91.757   c30.867,32.922,60.792,48.925,91.488,48.927c0.002,0,0.002,0,0.002,0c9.743,0,19.66-1.637,29.47-4.867   c32.627-10.738,52.694-39.086,53.684-75.827c0.689-25.586-9.648-46.265-18.77-64.508   C377.091,340.318,366.633,319.399,385.303,287.107z M387.771,430.735c-0.746,27.757-14.969,48.217-39.025,56.134   c-7.657,2.519-15.328,3.799-22.801,3.799c0,0,0,0-0.001,0c-24.817-0.002-48.943-13.404-75.924-42.183   c-21.322-22.753-45.752-55.043-67.026-88.592c-21.645-34.127-46.177-72.806-40.598-112.277c4.16-29.424,22.98-57.323,52.993-78.556   c27.92-19.752,63.236-31.546,94.469-31.546c5.84,0,11.548,0.408,16.965,1.211c0.103,0.016,0.206,0.029,0.309,0.042   c36.011,4.269,61.06,18.532,72.438,41.248c12.684,25.32,8.04,60.462-12.74,96.415c-24.416,42.238-9.098,72.876,4.417,99.911   C380.026,393.899,388.318,410.483,387.771,430.735z"/>
	<path style="fill:#000003;" d="M312.764,276.685c-24.089-4.374-60.653-3.48-91.037,12.149c-0.461,0.238-0.92,0.479-1.378,0.721   c-5.209,2.754-7.198,9.209-4.446,14.418c1.914,3.619,5.613,5.684,9.44,5.684c1.681,0,3.388-0.398,4.976-1.24   c0.397-0.21,0.797-0.419,1.181-0.617c21.108-10.859,51.511-14.83,77.452-10.123c5.798,1.058,11.35-2.794,12.401-8.59   C322.406,283.288,318.56,277.736,312.764,276.685z"/>
	<path style="fill:#000003;" d="M209.876,324.636c3.698-4.586,2.952-11.268-1.635-14.965c-4.584-3.698-11.327-2.946-15.026,1.642   c-3.772,4.525-3.161,11.251,1.364,15.024c1.995,1.661,4.416,2.471,6.823,2.471c3.056,0,6.092-1.307,8.201-3.838l0.269-0.33"/>
	<path style="fill:#000003;" d="M395.922,9.354c-30.798,0-55.854,25.031-55.854,55.798s25.056,55.798,55.854,55.798   c30.799,0,55.857-25.031,55.857-55.798S426.722,9.354,395.922,9.354z M395.922,99.615c-19.035,0-34.52-15.46-34.52-34.464   s15.487-34.464,34.52-34.464c19.037,0,34.522,15.46,34.522,34.464S414.959,99.615,395.922,99.615z"/>
	<path style="fill:#000003;" d="M291.703,83.14c22.944,0,41.61-18.647,41.61-41.57c0-22.922-18.665-41.57-41.61-41.57   c-22.942,0-41.606,18.648-41.606,41.57C250.096,64.493,268.761,83.14,291.703,83.14z M291.703,21.335   c11.179,0,20.275,9.078,20.275,20.236s-9.095,20.236-20.275,20.236c-11.178,0-20.272-9.078-20.272-20.236   S280.524,21.335,291.703,21.335z"/>
	<path style="fill:#000003;" d="M202.423,98.496c20.586,0,37.332-16.733,37.332-37.299s-16.746-37.299-37.332-37.299   c-20.588,0-37.336,16.732-37.336,37.299C165.087,81.763,181.837,98.496,202.423,98.496z M202.423,45.232   c8.821,0,15.998,7.162,15.998,15.965s-7.178,15.965-15.998,15.965c-8.823,0-16.002-7.162-16.002-15.965   C186.422,52.394,193.601,45.232,202.423,45.232z"/>
	<path style="fill:#000003;" d="M136.191,151.017c19.115,0,34.666-15.538,34.666-34.639c0-19.096-15.552-34.634-34.666-34.634   c-19.116,0-34.666,15.537-34.666,34.634C101.525,135.479,117.075,151.017,136.191,151.017z M136.191,103.079   c7.351,0,13.332,5.966,13.332,13.3c0,7.336-5.981,13.304-13.332,13.304c-7.353,0-13.332-5.968-13.332-13.304   C122.859,109.045,128.838,103.079,136.191,103.079z"/>
	<path style="fill:#000003;" d="M92.222,151.085c-17.645,0-31.999,14.343-31.999,31.973c0,17.63,14.355,31.975,31.999,31.975   s32.002-14.344,32.002-31.975C124.223,165.428,109.866,151.085,92.222,151.085z M92.222,193.698   c-5.882,0-10.665-4.774-10.665-10.641c0-5.865,4.783-10.638,10.665-10.638c5.882,0,10.667,4.774,10.667,10.638   C102.889,188.925,98.104,193.698,92.222,193.698z"/>
	<path style="fill:#000003;" d="M336.817,375.367c-0.134-0.029-0.283-0.059-0.396-0.077c-5.806-1.008-11.329,2.877-12.338,8.682   c-0.993,5.712,2.756,11.153,8.407,12.286c0.164,0.033,0.353,0.07,0.497,0.094c0.594,0.1,1.184,0.148,1.767,0.148   c5.12-0.002,9.639-3.698,10.509-8.917C346.213,381.88,342.45,376.482,336.817,375.367z"/>
	<path style="fill:#000003;" d="M299.465,379.959c-12.744,5.342-25.224,14.326-34.238,24.647c-3.876,4.438-3.42,11.178,1.018,15.052   c2.022,1.764,4.522,2.632,7.013,2.632c2.972,0,5.93-1.235,8.038-3.65c6.946-7.952,16.574-14.88,26.416-19.005   c5.434-2.277,7.992-8.53,5.714-13.963C311.149,380.241,304.9,377.682,299.465,379.959z"/>
</g>
<g>
</g>
<g>
</g>
<g>
</g>
<g>
</g>
<g>
</g>
<g>
</g>
<g>
</g>
<g>
</g>
<g>
</g>
<g>
</g>
<g>
</g>
<g>
</g>
<g>
</g>
<g>
</g>
<g>
</g>
</svg>
