<?xml version="1.0" encoding="iso-8859-1"?>
<!-- Generator: Adobe Illustrator 19.0.0, SVG Export Plug-In . SVG Version: 6.00 Build 0)  -->
<svg xmlns="http://www.w3.org/2000/svg" xmlns:xlink="http://www.w3.org/1999/xlink" version="1.1" id="Layer_1" x="0px" y="0px" viewBox="0 0 512 512" style="enable-background:new 0 0 512 512;" xml:space="preserve">
<g>
	<g>
		<path style="fill:#9FDEE2;" d="M42.848,117.334c17.586-0.098,31.816-14.388,31.816-31.999c0-17.676-14.326-32.001-31.995-32.001    c-17.676,0-32.004,14.325-32.004,32.001c0,17.611,14.23,31.9,31.818,31.999c0.061-0.002,0.118-0.002,0.186,0    C42.728,117.334,42.787,117.334,42.848,117.334z"/>
		<polygon style="fill:#9FDEE2;" points="447.996,160.001 63.999,160.001 63.999,202.668 184.887,202.67 327.109,202.67     447.996,202.668   "/>
	</g>
	<g>
		<path style="fill:#F9EACD;" d="M206.22,288.006v-64.004c0-11.734-9.598-21.332-21.335-21.332    c-11.734,0-21.332,9.598-21.332,21.332v64.004c0,11.656,9.474,21.204,21.101,21.33l0.234,0.002l0.234-0.002    C196.75,309.21,206.22,299.662,206.22,288.006z"/>
		<path style="fill:#F9EACD;" d="M305.775,224.002v64.004c0,11.656,9.469,21.204,21.097,21.33l0.236,0.002l0.234-0.002    c11.627-0.126,21.101-9.674,21.101-21.33v-64.004c0-11.734-9.598-21.332-21.335-21.332    C315.375,202.67,305.775,212.268,305.775,224.002z"/>
	</g>
	<path style="fill:#9FDEE2;" d="M326.873,309.336H185.121c-0.079,0.002-0.155,0.002-0.236,0.002c-0.077,0-0.155,0-0.231-0.002   H63.999v42.667v42.665h383.997v-85.332H327.341c-0.077,0.002-0.156,0.002-0.234,0.002   C327.029,309.338,326.954,309.338,326.873,309.336z"/>
	<path style="fill:#F9EACD;" d="M42.667,117.332h0.002c11.734,0,21.332,9.598,21.332,21.335v298.666   c0,11.736-9.598,21.335-21.332,21.335h-0.002c-11.734,0-21.332-9.598-21.332-21.335V138.666   C21.335,126.93,30.933,117.332,42.667,117.332z"/>
	<path style="fill:#9FDEE2;" d="M469.512,117.334c17.586-0.098,31.818-14.388,31.818-31.999c0-17.676-14.328-32.001-32.002-32.001   c-17.671,0-32,14.325-32,32.001c0,17.611,14.23,31.9,31.818,31.999c0.061-0.002,0.121-0.002,0.181,0   C469.391,117.334,469.451,117.334,469.512,117.334z"/>
	<path style="fill:#F9EACD;" d="M469.329,117.332L469.329,117.332c11.736,0,21.335,9.598,21.335,21.335v298.666   c0,11.736-9.598,21.335-21.335,21.335l0,0c-11.732,0-21.332-9.598-21.332-21.335V138.666   C447.996,126.93,457.597,117.332,469.329,117.332z"/>
</g>
<g>
	<path style="fill:#000003;" d="M512,85.333c0-23.528-19.138-42.668-42.665-42.668c-23.529,0-42.669,19.14-42.669,42.668   c0,13.937,6.719,26.334,17.087,34.126c-4.029,5.354-6.424,12.006-6.424,19.207v10.667H74.669v-10.667   c0-7.2-2.392-13.851-6.422-19.205c10.37-7.791,17.089-20.189,17.089-34.128c0-23.528-19.14-42.668-42.667-42.668   C19.14,42.665,0,61.806,0,85.333c0,13.938,6.719,26.335,17.089,34.127c-4.029,5.354-6.422,12.005-6.422,19.206v298.666   c0,17.646,14.355,32.002,32.002,32.002c17.645,0,32-14.356,32-32.002v-31.998h362.66v31.998c0,17.646,14.355,32.002,32,32.002   h0.004c17.643,0,31.998-14.356,31.998-32.002V138.666c0-7.2-2.392-13.85-6.42-19.204C505.281,111.672,512,99.273,512,85.333z    M469.335,64c11.761,0,21.33,9.571,21.33,21.333c0,11.755-9.555,21.317-21.306,21.332c-0.011,0-0.021-0.001-0.031-0.001   c-0.009,0-0.015,0.001-0.023,0.001C457.554,106.649,448,97.088,448,85.333C448.001,73.571,457.571,64,469.335,64z M327.066,298.669   c-5.861-0.023-10.624-4.796-10.624-10.663v-64.004c0-5.881,4.785-10.665,10.667-10.665c5.88,0,10.665,4.784,10.665,10.665v64.004   c0,5.867-4.763,10.641-10.626,10.663H327.066z M184.846,298.669c-5.861-0.023-10.624-4.796-10.624-10.663v-64.004   c0-5.881,4.785-10.665,10.667-10.665s10.665,4.784,10.665,10.665v64.004c0,5.867-4.763,10.641-10.624,10.663H184.846z    M74.669,213.335h80.055c-1.183,3.339-1.836,6.927-1.836,10.667v64.004c0,3.738,0.65,7.325,1.834,10.663H74.669V213.335z    M215.054,213.335h81.89c-1.185,3.339-1.836,6.927-1.836,10.667v64.004c0,3.738,0.65,7.325,1.834,10.663h-81.886   c1.183-3.338,1.834-6.925,1.834-10.663v-64.004C216.889,220.263,216.239,216.674,215.054,213.335z M357.275,213.335h80.055v85.334   h-80.053c1.183-3.338,1.834-6.925,1.834-10.663v-64.004C359.11,220.263,358.458,216.674,357.275,213.335z M437.329,170.668v21.332   H74.669v-21.332H437.329z M42.669,64c11.763,0,21.332,9.571,21.332,21.333c0,11.754-9.555,21.317-21.306,21.332   c-0.011,0-0.02-0.001-0.029-0.001s-0.019,0.001-0.027,0.001c-11.749-0.015-21.306-9.578-21.306-21.332   C21.335,73.571,30.906,64,42.669,64z M53.334,437.334c0,5.882-4.785,10.667-10.665,10.667h-0.002   c-5.882,0-10.665-4.785-10.665-10.667V138.666c0-5.872,4.771-10.65,10.641-10.666c0.009,0,0.017,0.001,0.027,0.001   c0.009,0,0.017-0.001,0.027-0.001c5.867,0.016,10.638,4.794,10.638,10.666V437.334z M74.669,384.001v-21.33h68.656   c5.892,0,10.667-4.777,10.667-10.667s-4.776-10.667-10.667-10.667H74.669v-21.332h110.14c0.027,0,0.054,0.002,0.081,0.002   c0.027,0,0.054-0.002,0.083-0.002h142.054c0.029,0,0.057,0.002,0.083,0.002s0.054-0.002,0.081-0.002h110.137v63.997H74.669z    M479.996,138.666v298.666c0,5.882-4.783,10.667-10.663,10.667h-0.004c-5.88,0-10.665-4.785-10.665-10.667V138.666   c0-5.872,4.771-10.651,10.643-10.666c0.011,0,0.019,0.001,0.029,0.001c0.009,0,0.017-0.001,0.025-0.001   C475.227,128.016,479.996,132.794,479.996,138.666z"/>
	<path style="fill:#000003;" d="M174.224,341.338h-0.254c-5.892,0-10.667,4.776-10.667,10.667c0,5.89,4.776,10.667,10.667,10.667   h0.254c5.889,0,10.667-4.777,10.667-10.667C184.891,346.115,180.115,341.338,174.224,341.338z"/>
</g>
<g>
</g>
<g>
</g>
<g>
</g>
<g>
</g>
<g>
</g>
<g>
</g>
<g>
</g>
<g>
</g>
<g>
</g>
<g>
</g>
<g>
</g>
<g>
</g>
<g>
</g>
<g>
</g>
<g>
</g>
</svg>
