<?xml version="1.0" encoding="iso-8859-1"?>
<!-- Generator: Adobe Illustrator 19.0.0, SVG Export Plug-In . SVG Version: 6.00 Build 0)  -->
<svg xmlns="http://www.w3.org/2000/svg" xmlns:xlink="http://www.w3.org/1999/xlink" version="1.1" id="Layer_1" x="0px" y="0px" viewBox="0 0 512.001 512.001" style="enable-background:new 0 0 512.001 512.001;" xml:space="preserve">
<g>
	<path style="fill:#F9EACD;" d="M199.869,346.446c-50.087-71.33,8.326-209.554-55.754-217.031   c-51.38,100.006-61.527,207.783-19.238,281.438C174.898,402.382,194.354,371.383,199.869,346.446z"/>
	<path style="fill:#7BA9D6;" d="M144.116,129.415c64.078,7.477,5.666,145.701,55.754,217.031   c-5.515,24.937-24.97,55.937-74.992,64.407c5.87,10.224,12.752,19.794,20.672,28.59c34.334,38.135,88.216,61.803,164.082,61.89   h0.112c17.549,0.013,36.273-1.237,56.205-3.858c-21.787-3.524-32.932-64.58-44.825-142.331   c-2.108-13.774-4.239-28.072-6.456-42.667c-21.818-143.653-52.039-316.085-150.99-300.87c-51.067,7.851-57.78,43.861-58.609,63.8   L59.37,121.52C101.642,126.516,115.375,126.722,144.116,129.415z"/>
	<path style="fill:#FFA233;" d="M309.631,501.333c-75.866-0.087-129.748-23.755-164.082-61.89l-39.082,33.374   c-23.933,20.434-18.652,28.517,13.072,28.517H309.631z"/>
	<path style="fill:#FFE67B;" d="M370.401,355.143c-2,4.939-3.102,10.341-3.102,15.999c0,23.563,19.101,42.664,42.665,42.664   c23.565,0,42.667-19.101,42.667-42.664c0-16.066-8.884-30.057-21.999-37.333c13.115-7.276,21.999-21.266,21.999-37.332   c0-23.564-19.102-42.665-42.667-42.665c-23.564,0-42.665,19.101-42.665,42.665c0,5.66,1.102,11.059,3.102,16h-55.732   c2.217,14.595,4.348,28.893,6.456,42.667L370.401,355.143L370.401,355.143z M399.297,371.142c0-5.892,4.777-10.668,10.667-10.668   c5.89,0,10.667,4.777,10.667,10.668c0,5.889-4.777,10.666-10.667,10.666C404.074,381.808,399.297,377.031,399.297,371.142   L399.297,371.142z M409.964,307.145c-5.89,0-10.667-4.777-10.667-10.668c0-5.89,4.777-10.666,10.667-10.666   c5.89,0,10.667,4.777,10.667,10.666C420.632,302.369,415.855,307.145,409.964,307.145z"/>
	<g>
		<path style="fill:#000003;" d="M264.538,28.017c2.09,2.856,5.332,4.369,8.618,4.369c2.186,0,4.391-0.669,6.289-2.059    c4.754-3.479,5.789-10.153,2.311-14.909l-0.48-0.642c-3.531-4.716-10.214-5.679-14.932-2.147    c-4.716,3.53-5.677,10.216-2.147,14.932L264.538,28.017z"/>
		<path style="fill:#000003;" d="M280.204,52.48c12.43,22.438,23.464,50.546,32.8,83.54c1.329,4.698,5.606,7.766,10.259,7.766    c0.96,0,1.938-0.131,2.909-0.406c5.669-1.603,8.965-7.499,7.36-13.169c-9.917-35.056-21.258-63.864-34.665-88.07    c-2.853-5.153-9.346-7.019-14.5-4.162C279.212,40.834,277.35,47.325,280.204,52.48z"/>
		<path style="fill:#000003;" d="M276.392,376.049l-0.429-0.057c-5.832-0.774-11.203,3.329-11.978,9.17    c-0.777,5.84,3.328,11.204,9.169,11.979l0.569,0.073c0.454,0.058,0.905,0.085,1.35,0.085c5.296,0,9.89-3.94,10.569-9.333    C286.378,382.122,282.238,376.786,276.392,376.049z"/>
		<path style="fill:#000003;" d="M153.817,58.031c-5.878,0-10.669,4.792-10.669,10.668s4.792,10.668,10.669,10.668    c5.877,0,10.665-4.792,10.665-10.668C164.482,62.823,159.692,58.031,153.817,58.031z"/>
		<path style="fill:#000003;" d="M463.298,296.476c0-29.408-23.927-53.332-53.334-53.332c-29.408,0-53.332,23.925-53.332,53.332    c0,1.791,0.087,3.569,0.262,5.333h-33.058C302.208,160.718,272.007,0,175.656,0c-4.432,0-9.007,0.358-13.6,1.065    c-25.425,3.908-44.08,14.698-55.448,32.069c-6.872,10.501-10.796,22.842-11.946,37.621l-42.869,43.257    c-2.869,2.897-3.838,7.178-2.493,11.028c1.345,3.85,4.768,6.597,8.819,7.075c28.145,3.326,44.034,4.569,59.403,5.771    c3.297,0.257,6.644,0.518,10.133,0.803c-22.543,47.704-36.015,96.94-39.113,143.271c-3.408,50.959,5.909,97.137,26.957,133.962    c0.083,0.154,0.166,0.305,0.256,0.453c0.778,1.354,1.569,2.697,2.379,4.025c3.562,5.834,7.679,11.824,12.433,17.812L99.54,464.706    c-11.24,9.597-22.127,21.045-17.649,33.187c4.573,12.399,20.797,14.109,37.648,14.109h190.205c0.025,0,0.048-0.003,0.071-0.003    c0.073,0,0.145,0.001,0.218,0.001c18.117,0,37.398-1.328,57.307-3.947c5.249-0.69,9.197-5.127,9.274-10.42    c0.079-5.293-3.737-9.843-8.963-10.689c-0.938-0.151-9.454-2.656-19.552-43.344c-5.243-21.124-9.902-48.172-14.531-77.789h23.326    c-0.175,1.762-0.262,3.54-0.262,5.331c0,29.406,23.925,53.331,53.332,53.331c29.408,0,53.334-23.925,53.334-53.331    c0-14.147-5.617-27.497-15.249-37.333C457.681,323.972,463.298,310.622,463.298,296.476z M149.779,141.924    c16.476,7.709,17.144,36.319,16.724,79.811c-0.295,30.54-0.632,65.155,8.142,95.425c3.404,11.741,7.964,22.151,13.707,31.286    c-4.826,16.745-18.62,41.26-57.853,50.389C96.5,332.54,103.609,236.053,149.779,141.924z M119.539,490.665    c-7.589,0-12.267-0.497-15.093-1.021c1.622-1.95,4.359-4.797,8.949-8.716l31.432-26.841c13.814,13.61,31.455,26.457,53.929,36.578    L119.539,490.665L119.539,490.665z M310.033,490.663c-76.629,0-134.449-25.12-168.018-72.772    c36.061-10.379,53.496-32.528,61.883-50.462c10.155,9.566,22.476,16.924,37.073,22.165c1.192,0.428,2.409,0.632,3.606,0.632    c4.375,0,8.476-2.712,10.04-7.065c1.991-5.545-0.89-11.654-6.434-13.645c-61.563-22.109-60.915-88.766-60.347-147.576    c0.238-24.379,0.461-47.407-3.942-65.336c-5.585-22.74-18.553-35.454-38.542-37.787c-0.046-0.005-0.092-0.004-0.139-0.01    c-0.034-0.003-0.067-0.013-0.102-0.016c-9.831-0.921-18.015-1.562-25.928-2.18c-11.108-0.868-21.785-1.704-36.711-3.251    l30.173-30.448c1.871-1.888,2.971-4.409,3.082-7.065c1.298-31.206,17.512-48.771,49.572-53.7    c3.523-0.542,7.007-0.816,10.358-0.816c36.414,0,65.175,32.74,87.927,100.093c20.807,61.594,32.787,141.125,43.358,211.293    c1.222,8.107,2.407,15.919,3.569,23.465c0.037,0.398,0.099,0.787,0.18,1.171c10.002,64.872,18.199,108.91,31.133,131.969    C330.89,490.215,320.258,490.663,310.033,490.663z M425.456,343.136c10.182,5.649,16.508,16.38,16.508,28.006    c0,17.643-14.355,31.996-32,31.996c-17.645,0-31.998-14.354-31.998-31.996c0-4.155,0.781-8.189,2.322-11.993    c1.332-3.288,0.943-7.023-1.04-9.966c-1.981-2.943-5.298-4.706-8.846-4.706h-40.109c-0.748-4.937-1.498-9.918-2.254-14.933    c-0.321-2.125-0.642-4.259-0.964-6.399h43.327c3.548,0,6.864-1.763,8.846-4.705c1.983-2.943,2.373-6.678,1.042-9.966    c-1.541-3.806-2.323-7.843-2.323-11.995c0-17.644,14.353-31.998,31.998-31.998c17.645,0,32,14.354,32,31.998    c0,11.625-6.326,22.355-16.508,28.005c-3.39,1.881-5.492,5.451-5.492,9.327C419.965,337.685,422.066,341.257,425.456,343.136z"/>
		<path style="fill:#000003;" d="M409.966,285.81c-5.878,0-10.669,4.791-10.669,10.666c0,5.874,4.792,10.668,10.669,10.668    c5.873,0,10.665-4.794,10.665-10.668C420.632,290.601,415.839,285.81,409.966,285.81z"/>
		<path style="fill:#000003;" d="M409.966,360.474c-5.878,0-10.669,4.794-10.669,10.668c0,5.874,4.792,10.666,10.669,10.666    c5.873,0,10.665-4.792,10.665-10.666C420.632,365.267,415.839,360.474,409.966,360.474z"/>
	</g>
</g>
<g>
</g>
<g>
</g>
<g>
</g>
<g>
</g>
<g>
</g>
<g>
</g>
<g>
</g>
<g>
</g>
<g>
</g>
<g>
</g>
<g>
</g>
<g>
</g>
<g>
</g>
<g>
</g>
<g>
</g>
</svg>
