<?xml version="1.0" encoding="iso-8859-1"?>
<!-- Generator: Adobe Illustrator 19.0.0, SVG Export Plug-In . SVG Version: 6.00 Build 0)  -->
<svg xmlns="http://www.w3.org/2000/svg" xmlns:xlink="http://www.w3.org/1999/xlink" version="1.1" id="Layer_1" x="0px" y="0px" viewBox="0 0 511.999 511.999" style="enable-background:new 0 0 511.999 511.999;" xml:space="preserve">
<g>
	<g>
		<path style="fill:#FFA233;" d="M128,91.934c55.201-0.518,17.953-68.511-4.673-81.265c0,0-55.832,80,2.5,81.249    C126.566,91.936,127.29,91.94,128,91.934z"/>
		<path style="fill:#FFA233;" d="M251.327,10.668c0,0-55.832,80,2.5,81.249c0.739,0.017,1.462,0.022,2.173,0.015    C311.201,91.415,273.953,23.422,251.327,10.668z"/>
		<path style="fill:#FFA233;" d="M379.328,10.668c0,0-55.832,80,2.5,81.249c0.739,0.017,1.462,0.022,2.173,0.015    C439.202,91.415,401.954,23.422,379.328,10.668z"/>
	</g>
	<g>
		<polygon style="fill:#F9EACD;" points="384.001,123.685 362.667,123.685 362.667,241.325 405.333,241.325 405.333,123.685   "/>
		<polygon style="fill:#F9EACD;" points="277.333,241.325 277.333,123.685 256.001,123.685 234.666,123.685 234.666,241.325   "/>
		<polygon style="fill:#F9EACD;" points="149.332,241.325 149.332,123.685 128,123.685 106.666,123.685 106.666,241.325   "/>
	</g>
	<path style="fill:#F99A98;" d="M38.788,362.286L38.788,362.286L38.788,362.286z M389.148,299.88L389.148,299.88L389.148,299.88z    M473.212,362.286L473.212,362.286L473.212,362.286z M234.666,241.325h-85.334h-42.667h-60.1   c-19.744,0-35.896,16.152-35.896,35.893v56.946c0,15.456,12.655,28.121,28.121,28.121v40.818c0,15.451,12.653,28.122,28.121,28.122   c15.463,0,28.12-12.653,28.12-28.122v-59.616v-13.342V327.7c0-15.3,12.519-27.821,27.82-27.821h119.498   c15.304,0,27.821,12.537,27.821,27.821v2.446v22.732c0,69.852,91.154,66.534,91.154,0v-22.732V327.7   c0-15.3,12.519-27.821,27.823-27.821c15.302,0,27.819,12.521,27.819,27.821v2.446v86.981c0,15.464,12.656,28.122,28.122,28.122   s28.12-12.656,28.12-28.122l0.002-54.841c15.465,0,28.118-12.657,28.118-28.121v-56.946c0-19.742-16.152-35.893-35.895-35.893   h-60.099h-42.667h-85.334H234.666z"/>
	<path style="fill:#7BA9D6;" d="M242.35,299.88H122.852c-15.301,0-27.82,12.521-27.82,27.821v2.446v13.342v59.616   c0,15.469-12.657,28.122-28.12,28.122c-15.468,0-28.121-12.671-28.121-28.122l-0.002,79.965c0,10.05,9.446,18.264,20.984,18.264   h392.456c11.536,0,20.982-8.219,20.982-18.264v-65.941c0,15.466-12.653,28.122-28.12,28.122s-28.122-12.658-28.122-28.122v-86.981   v-2.446c0-15.3-12.517-27.821-27.819-27.821c-15.304,0-27.823,12.521-27.823,27.821v2.446v22.732c0,66.534-91.154,69.852-91.154,0   v-22.732v-2.446C270.171,312.417,257.654,299.88,242.35,299.88z"/>
</g>
<g>
	<path style="fill:#000003;" d="M465.435,230.658h-49.434V123.685c0-5.892-4.777-10.667-10.667-10.667h-10.665v-11.361   c19.253-3.455,25.526-15.656,27.558-23.398c6.902-26.296-18.223-65.928-37.661-76.883c-4.785-2.699-10.84-1.32-13.984,3.187   c-0.361,0.514-8.88,12.781-16.037,28.09c-10.552,22.57-12.716,40.284-6.434,52.649c3.316,6.53,10.353,14.195,25.225,16.56v11.154   h-10.67c-5.892,0-10.667,4.776-10.667,10.667v106.974h-63.999V123.685c0-5.892-4.777-10.667-10.667-10.667h-10.663v-11.361   C285.92,98.202,292.193,86,294.226,78.26c6.902-26.296-18.223-65.928-37.661-76.884c-4.787-2.699-10.84-1.32-13.984,3.187   c-0.361,0.514-8.88,12.781-16.037,28.09c-10.552,22.57-12.716,40.284-6.434,52.649c3.316,6.53,10.353,14.195,25.224,16.56v11.154   h-10.669c-5.892,0-10.667,4.776-10.667,10.667v106.974h-63.999V123.685c0-5.892-4.777-10.667-10.667-10.667h-10.663v-11.361   C157.919,98.202,164.193,86,166.225,78.26c6.902-26.296-18.223-65.928-37.661-76.884c-4.786-2.699-10.84-1.32-13.984,3.187   c-0.361,0.514-8.88,12.781-16.037,28.09c-10.552,22.57-12.716,40.284-6.434,52.649c3.316,6.53,10.353,14.195,25.224,16.56v11.154   h-10.669c-5.892,0-10.667,4.776-10.667,10.667v106.974H46.565c-25.675,0-46.564,20.886-46.564,46.56v56.946   c0,17.69,11.904,32.651,28.121,37.297v31.641l-0.002,79.965c0,15.953,14.197,28.932,31.651,28.932h392.456   c17.451,0,31.65-12.979,31.65-28.932v-65.941l0.002-45.666c16.216-4.646,28.118-19.607,28.118-37.297v-56.946   C511.997,251.545,491.11,230.658,465.435,230.658z M367.132,75.646c-4.793-9.423,4.642-32.05,14.77-49.206   c11.223,11.852,22.928,34.063,19.689,46.404c-0.546,2.084-2.21,8.425-18.22,8.425c-0.401-0.02-0.87-0.004-1.313-0.014   C373.959,81.08,368.937,79.194,367.132,75.646z M239.131,75.646c-4.793-9.423,4.641-32.05,14.77-49.206   c11.223,11.853,22.928,34.063,19.689,46.404c-0.546,2.084-2.21,8.424-18.22,8.424c-0.002,0-0.004,0-0.006,0   c-0.427,0-0.867-0.004-1.307-0.014C245.958,81.08,240.936,79.194,239.131,75.646z M111.13,75.646   c-4.793-9.423,4.641-32.05,14.77-49.206c11.223,11.853,22.928,34.063,19.689,46.404c-0.546,2.084-2.21,8.424-18.22,8.424   c-0.422-0.02-0.87-0.004-1.312-0.014C117.958,81.08,112.936,79.194,111.13,75.646z M373.332,134.352h21.334v96.306h-21.334V134.352   z M245.331,134.352h21.332v96.306h-21.332V134.352z M117.331,134.352h21.332v96.306h-21.332   C117.331,230.658,117.331,134.352,117.331,134.352z M452.228,490.666H59.771c-5.496,0-10.316-3.55-10.316-7.596l0.001-45.341   c5.25,2.658,11.177,4.166,17.455,4.166c21.387,0,38.787-17.401,38.787-38.789v-48.949h35.713c5.892,0,10.667-4.776,10.667-10.667   s-4.776-10.667-10.667-10.667h-35.712v-5.12c0-9.459,7.694-17.154,17.153-17.154H242.35c9.459,0,17.154,7.695,17.154,17.154v25.178   c0,18.835,5.883,34.745,17.011,46.01c10.071,10.195,23.709,15.809,38.401,15.809c14.655,0,28.994-5.836,39.335-16.013   c8.092-7.963,17.741-22.375,17.741-45.807V327.7c0-9.459,7.696-17.154,17.156-17.154c9.458,0,17.152,7.695,17.152,17.154v89.427   c0,21.389,17.401,38.789,38.789,38.789c6.276,0,12.202-1.508,17.453-4.166v31.317C462.543,487.115,457.722,490.666,452.228,490.666   z M490.663,334.165c0,9.624-7.83,17.454-17.453,17.454c-5.89,0-10.667,4.776-10.667,10.667v54.841   c0,9.625-7.83,17.455-17.453,17.455c-9.625,0-17.455-7.83-17.455-17.455v-89.427c0-21.222-17.266-38.488-38.488-38.488   c-21.222,0-38.488,17.266-38.488,38.488v25.178c0,27.816-18.527,40.485-35.742,40.485c-16.961,0-34.078-12.518-34.078-40.485   v-25.178c0-21.222-17.265-38.488-38.488-38.488H122.852c-21.222,0-38.487,17.266-38.487,38.488v75.404   c0,9.625-7.83,17.455-17.453,17.455c-9.624,0-17.454-7.83-17.454-17.456l-0.002-40.818c-0.001-5.89-4.777-10.666-10.667-10.666   c-9.623,0-17.452-7.83-17.452-17.454v-56.946c0-13.91,11.318-25.226,25.229-25.226h60.098h42.667h85.334h42.667h85.334h42.669   h60.101c13.911,0,25.228,11.316,25.228,25.226v56.946H490.663z"/>
	<path style="fill:#000003;" d="M174.592,332.821h-0.762c-5.89,0-10.667,4.776-10.667,10.667s4.777,10.667,10.667,10.667h0.762   c5.892,0,10.667-4.776,10.667-10.667C185.26,337.597,180.484,332.821,174.592,332.821z"/>
	<path style="fill:#000003;" d="M299.553,447.999h-0.765c-5.89,0-10.667,4.776-10.667,10.667s4.777,10.667,10.667,10.667h0.765   c5.89,0,10.667-4.776,10.667-10.667S305.444,447.999,299.553,447.999z"/>
	<path style="fill:#000003;" d="M378.35,447.999h-46.381c-5.89,0-10.667,4.776-10.667,10.667s4.777,10.667,10.667,10.667h46.381   c5.89,0,10.667-4.776,10.667-10.667S384.241,447.999,378.35,447.999z"/>
</g>
<g>
</g>
<g>
</g>
<g>
</g>
<g>
</g>
<g>
</g>
<g>
</g>
<g>
</g>
<g>
</g>
<g>
</g>
<g>
</g>
<g>
</g>
<g>
</g>
<g>
</g>
<g>
</g>
<g>
</g>
</svg>
