<?xml version="1.0" encoding="iso-8859-1"?>
<!-- Generator: Adobe Illustrator 19.0.0, SVG Export Plug-In . SVG Version: 6.00 Build 0)  -->
<svg xmlns="http://www.w3.org/2000/svg" xmlns:xlink="http://www.w3.org/1999/xlink" version="1.1" id="Layer_1" x="0px" y="0px" viewBox="0 0 512 512" style="enable-background:new 0 0 512 512;" xml:space="preserve">
<g>
	<path style="fill:#7BA9D6;" d="M415.944,359c-13.122-15.03-20.353-34.308-20.353-54.26c0-35.194,22.325-66.511,55.593-77.991   L384.106,48.312l-51.835,19.484l-200.314,75.305l5.59,90.212c-28.718,16.814-55.002,31.678-73.924,52.318   c34.466,21.616,134.564,84.783,139.097,208.199C265.679,471.715,354.463,405.423,415.944,359z"/>
	<g>
		<path style="fill:#F9EACD;" d="M202.72,493.828C198.186,370.413,98.089,307.246,63.623,285.63    c-18.368,20.034-29.804,45.516-29.804,83.505c0,73.009,59.186,132.198,132.202,132.198    C176.684,501.333,189.098,498.614,202.72,493.828z"/>
		<path style="fill:#F9EACD;" d="M395.591,304.74c0,19.952,7.231,39.23,20.353,54.26c20.831-15.727,38.529-29.177,51.027-37.854    c18.765-11.512,8.316-30.277,8.316-30.277l-24.104-64.119C417.916,238.229,395.591,269.546,395.591,304.74z"/>
		<path style="fill:#F9EACD;" d="M131.958,143.1l200.314-75.305l51.835-19.484l-6.684-17.778    c-11.728-27.721-30.065-18.337-30.065-18.337L151.405,85.76c-23.669,8.104-21.535,23.668-21.535,23.668L131.958,143.1z"/>
	</g>
</g>
<g>
	<path style="fill:#000003;" d="M359.046,175.264c1.554,4.368,5.664,7.094,10.05,7.094c1.187,0,2.395-0.201,3.577-0.621   c5.55-1.976,8.449-8.076,6.472-13.626l-0.084-0.239c-1.977-5.551-8.078-8.45-13.626-6.473c-5.55,1.976-8.449,8.076-6.472,13.626   L359.046,175.264z"/>
	<path style="fill:#000003;" d="M485.026,286.459L387.405,26.778c-0.05-0.134-0.105-0.269-0.16-0.402   C377.536,3.426,362.675,0,354.681,0c-5.486,0-9.689,1.567-11.441,2.348L147.795,75.72c-28.609,9.866-28.86,30.059-28.57,34.368   h-0.003l2.082,33.586c0.001,0.03,0.003,0.061,0.005,0.091l5.185,83.655c-26.592,15.547-51.654,30.38-70.367,50.631   c-0.165,0.163-0.324,0.334-0.478,0.51c-0.169,0.183-0.346,0.359-0.512,0.544c-21.822,24.129-31.987,52.738-31.987,90.031   C23.151,447.911,87.24,512,166.018,512c11.543,0,24.775-2.828,39.159-7.792c0.73-0.172,1.429-0.416,2.09-0.728   c66.544-23.737,156.986-92.058,220.852-140.305c18.003-13.601,33.568-25.358,44.709-33.106   C492.239,317.96,490.855,297.72,485.026,286.459z M154.858,95.852c0.098-0.034,0.196-0.069,0.293-0.106l195.953-73.563   c0.529-0.198,0.569-0.179,0.971-0.41c0.348-0.127,1.336-0.439,2.604-0.439c6.242,0,10.692,8.156,12.835,13.163l2.851,7.582   l-41.659,15.661c0,0,0,0-0.002,0c-0.001,0-0.002,0.002-0.004,0.002l-186.992,70.294l-1.194-19.269   c-0.031-0.507,0.033-0.304-0.027-0.566C140.557,106.712,141.646,100.376,154.858,95.852z M138.675,245.011l4.263-2.493   c3.473-2.033,5.506-5.849,5.258-9.866l-5.104-82.342l182.758-68.703l22.871,64.518c1.551,4.375,5.664,7.107,10.054,7.107   c1.183,0,2.386-0.198,3.565-0.617c5.552-1.968,8.459-8.066,6.49-13.619l-23.005-64.898l32.05-12.049l59.694,158.795   c-31.884,15.395-52.644,47.864-52.644,83.894c0,18.705,5.639,36.866,16.025,52.21c-55.225,41.59-131.464,97.621-188.575,121.795   c-10.619-108.188-91.772-168.92-131.787-194.965C96.253,269.813,116.178,258.161,138.675,245.011z M44.486,369.134   c0-30.645,7.784-52.236,21.214-69.569c36.787,23.596,118.228,81.925,125.909,186.751c-9.416,2.797-18.034,4.348-25.591,4.348   C99.005,490.665,44.486,436.147,44.486,369.134z M461.392,312.057c-0.171,0.105-0.338,0.214-0.503,0.33   c-10.93,7.588-25.748,18.748-42.893,31.698c-7.619-11.635-11.737-25.293-11.737-39.344c0-27.122,15.262-51.616,38.861-63.807   l20.184,53.692c0.187,0.495,0.409,0.975,0.666,1.437c0.014,0.025,1.397,2.812,1.541,6.094   C467.63,304.943,467.046,308.588,461.392,312.057z"/>
</g>
<g>
</g>
<g>
</g>
<g>
</g>
<g>
</g>
<g>
</g>
<g>
</g>
<g>
</g>
<g>
</g>
<g>
</g>
<g>
</g>
<g>
</g>
<g>
</g>
<g>
</g>
<g>
</g>
<g>
</g>
</svg>
