<?xml version="1.0" encoding="iso-8859-1"?>
<!-- Generator: Adobe Illustrator 19.0.0, SVG Export Plug-In . SVG Version: 6.00 Build 0)  -->
<svg xmlns="http://www.w3.org/2000/svg" xmlns:xlink="http://www.w3.org/1999/xlink" version="1.1" id="Layer_1" x="0px" y="0px" viewBox="0 0 512.004 512.004" style="enable-background:new 0 0 512.004 512.004;" xml:space="preserve">
<g>
	<path style="fill:#F9EACD;" d="M398.89,252.358l-28.789,3.568l-14.092,24.845c-6.099,11.107-19.225,16.999-31.967,13.477   l-27.987-7.733l-22.468,17.522c-5.052,4.097-11.295,6.215-17.588,6.219c-6.292-0.004-12.534-2.122-17.586-6.219l-22.47-17.522   l-27.984,7.733c-12.742,3.522-25.868-2.37-31.967-13.477l-14.093-24.845l-28.789-3.568c-13.22-1.613-23.168-12.187-24.497-24.893   c-3.275-26.469-4.929-59.353-41.792-59.353c-9.565,27.287-14.82,56.913-14.82,87.891c0,135.492,100.289,245.331,223.998,245.331   c123.711,0,224.002-109.84,224.002-245.331c0-30.977-5.257-60.604-14.822-87.891c-36.863,0-38.517,32.884-41.799,59.353   C422.058,240.171,412.11,250.745,398.89,252.358L398.89,252.358z M255.999,372.328c29.883-31.758,64.574,5.071,46.663,33.44   c-7.786,12.339-20.899,22.153-46.663,38.596c-25.761-16.444-38.875-26.256-46.665-38.596   C191.424,377.399,226.117,340.57,255.999,372.328z"/>
	<path style="fill:#7BA9D6;" d="M302.662,405.767c17.911-28.369-16.78-65.197-46.663-33.44   c-29.881-31.758-64.574,5.071-46.665,33.44c7.79,12.339,20.904,22.153,46.665,38.596   C281.762,427.92,294.875,418.106,302.662,405.767z"/>
</g>
<g>
	<path style="fill:#000003;" d="M475.244,164.583c-0.013-0.037-0.029-0.071-0.042-0.108c-0.011-0.029-0.017-0.058-0.027-0.086   c-13.901-37.323-39.242-69.04-73.287-91.721c-31.088-20.711-68.148-32.831-108.01-35.453c25.291-13.53,37.563-16.023,37.623-16.036   c5.804-1.012,9.688-6.538,8.676-12.342c-1.014-5.803-6.542-9.691-12.342-8.675c-1.873,0.326-18.28,3.597-51.601,22.406   c-5.517-4.517-12.563-7.231-20.235-7.231c-7.669,0-14.715,2.715-20.235,7.231c-33.319-18.809-49.727-22.078-51.6-22.404   c-5.802-1.013-11.376,2.863-12.388,8.666s2.823,11.321,8.626,12.333c0.148,0.028,13.196,2.675,40.113,17.344   c-40.85,2.241-78.739,14.164-110.31,34.836c-34.152,22.363-59.527,53.847-73.381,91.048c-0.011,0.029-0.017,0.058-0.027,0.086   c-0.013,0.036-0.029,0.07-0.042,0.108c-10.234,29.187-15.422,59.945-15.422,91.42c0,68.198,24.29,132.361,68.397,180.668   C134.087,485.25,193.134,512.004,256,512.004c62.866,0,121.917-26.753,166.272-75.331c44.107-48.308,68.397-112.47,68.397-180.668   C490.668,224.534,485.48,193.776,475.244,164.583z M266.664,47.338c0,5.882-4.783,10.667-10.665,10.667   c-5.88,0-10.665-4.785-10.665-10.667s4.785-10.667,10.665-10.667C261.879,36.67,266.664,41.456,266.664,47.338z M226.443,59.589   c4.817,11.584,16.248,19.75,29.556,19.75c13.841,0,25.654-8.834,30.106-21.157c73.442,2.86,135.798,41.537,163.83,101.174   c-11.786,3.187-20.738,10.378-26.681,21.535c-6.532,12.259-8.326,27.363-9.907,40.689c-0.183,1.54-0.365,3.067-0.553,4.573   c-0.009,0.069-0.017,0.139-0.022,0.208c-0.829,7.958-7.211,14.438-15.192,15.412l-28.789,3.568   c-3.348,0.415-6.302,2.388-7.967,5.323l-14.095,24.846c-0.022,0.043-0.048,0.086-0.07,0.129c-3.036,5.528-8.84,8.962-15.149,8.962   c-1.552,0-3.106-0.213-4.625-0.633l-27.987-7.733c-3.257-0.9-6.74-0.205-9.401,1.87l-22.47,17.522   c-0.052,0.042-0.107,0.084-0.158,0.127c-3.048,2.472-6.911,3.835-10.861,3.837c-3.965-0.002-7.828-1.365-10.875-3.837   c-0.052-0.043-0.107-0.085-0.158-0.127l-22.47-17.522c-2.66-2.075-6.146-2.77-9.401-1.87l-27.987,7.733   c-1.517,0.419-3.073,0.633-4.623,0.633c-6.311,0-12.115-3.434-15.151-8.962c-0.022-0.043-0.048-0.086-0.07-0.129l-14.093-24.845   c-1.665-2.935-4.619-4.909-7.967-5.323l-28.81-3.57c-7.963-0.972-14.346-7.454-15.178-15.414c-0.009-0.067-0.017-0.134-0.025-0.202   c-0.186-1.502-0.365-3.025-0.548-4.562c-1.581-13.328-3.373-28.434-9.9-40.696c-5.946-11.164-14.903-18.357-26.695-21.544   C90.053,99.563,151.432,62.152,226.443,59.589z M255.999,490.666c-117.629,0-213.33-105.27-213.33-234.664   c0-26.28,3.911-52.001,11.634-76.584c16.305,3.111,19.951,17.602,23.162,44.685c0.183,1.54,0.365,3.068,0.55,4.574   c1.93,17.989,15.815,32.074,33.785,34.265l23.466,2.909l11.417,20.127c6.794,12.31,19.741,19.954,33.81,19.954   c3.471,0,6.938-0.473,10.307-1.404l22.814-6.303l18.167,14.167c6.82,5.496,15.411,8.525,24.226,8.531   c8.798-0.005,17.393-3.035,24.211-8.531l18.165-14.167l22.816,6.303c3.369,0.931,6.838,1.404,10.309,1.404   c14.069,0,27.018-7.646,33.812-19.96l11.413-20.122l23.447-2.906c17.992-2.194,31.875-16.278,33.798-34.268   c0.188-1.509,0.369-3.04,0.553-4.584c3.217-27.077,6.863-41.566,23.166-44.676c7.725,24.587,11.636,50.308,11.636,76.584   C469.333,385.396,373.632,490.666,255.999,490.666z"/>
	<path style="fill:#000003;" d="M435.3,287.492c-5.786-1.131-11.386,2.649-12.511,8.43c-3.854,19.789-10.444,38.806-19.59,56.527   c-2.7,5.236-0.647,11.67,4.588,14.371c1.565,0.807,3.235,1.19,4.883,1.19c3.865,0,7.594-2.107,9.489-5.777   c10.073-19.518,17.33-40.456,21.572-62.231C444.857,294.219,441.082,288.617,435.3,287.492z"/>
	<path style="fill:#000003;" d="M401.909,373.032c-4.901-2.352-10.705-0.628-13.574,3.823c-3.091,4.688-2.015,11.025,2.544,14.417   c1.913,1.422,4.144,2.109,6.357,2.109c3.248,0,6.457-1.477,8.553-4.274c0.418-0.557,0.818-1.214,1.121-1.842   C409.459,381.954,407.219,375.581,401.909,373.032z"/>
	<path style="fill:#000003;" d="M280.427,349.419c-6.276,0-15.068,1.669-24.428,8.628c-9.358-6.958-18.151-8.628-24.426-8.628   c-13.361,0-25.893,7.677-32.708,20.036c-7.317,13.274-6.778,28.978,1.45,42.008c9.004,14.264,23.28,24.874,49.946,41.892   c1.751,1.117,3.744,1.676,5.738,1.676c1.994,0,3.99-0.558,5.74-1.675c26.666-17.02,40.942-27.63,49.944-41.894   c8.226-13.03,8.77-28.734,1.452-42.009C306.321,357.096,293.787,349.419,280.427,349.419z M293.64,400.074   c-6.269,9.935-17.382,18.478-37.642,31.608c-20.259-13.13-31.372-21.674-37.646-31.609c-5.784-9.164-2.49-17.262-0.804-20.318   c3.06-5.553,8.434-9.002,14.023-9.002c5.43,0,11.188,3.072,16.657,8.885c2.017,2.143,4.827,3.357,7.769,3.357   c2.942,0,5.753-1.215,7.769-3.357c5.469-5.813,11.229-8.885,16.659-8.885c5.59,0,10.963,3.449,14.023,9.001   C296.136,382.81,299.43,390.907,293.64,400.074z"/>
</g>
<g>
</g>
<g>
</g>
<g>
</g>
<g>
</g>
<g>
</g>
<g>
</g>
<g>
</g>
<g>
</g>
<g>
</g>
<g>
</g>
<g>
</g>
<g>
</g>
<g>
</g>
<g>
</g>
<g>
</g>
</svg>
