<svg id="Layer_1" enable-background="new 0 0 496 496" height="512" viewBox="0 0 496 496" width="512" xmlns="http://www.w3.org/2000/svg"><path d="m400 248c0 83.95-68.05 152-152 152-84.287 0-152-68.386-152-152 0-83.95 68.05-152 152-152 83.808 0 152 67.905 152 152z" fill="#d6f4fc"/><path d="m336 216c0 97.682-90.814 169.936-186.02 148.18-33.01-27.88-53.98-69.58-53.98-116.18 0-97.682 90.814-169.936 186.02-148.18 33.01 27.88 53.98 69.58 53.98 116.18z" fill="#e8f8fc"/><path d="m466.56 178.543c7.064 0 13.529-4.715 15.444-11.863 2.287-8.536-2.778-17.309-11.313-19.596l-32.559-8.724 8.597-32.083c2.287-8.536-2.778-17.309-11.313-19.596-8.536-2.289-17.309 2.778-19.596 11.313l-10.98 40.978-20.28 11.709 2.698-10.068c2.287-8.536-2.778-17.309-11.313-19.596-8.536-2.289-17.309 2.778-19.596 11.313l-10.98 40.978-15.704 9.067-65.665-37.91v-17.901l30.578-30.578c6.248-6.248 6.248-16.379 0-22.627-6.249-6.248-16.379-6.248-22.628 0l-7.95 7.95v-23.417l30.578-30.578c6.248-6.248 6.248-16.379 0-22.627-6.249-6.248-16.379-6.248-22.628 0l-23.834 23.834-23.487-23.487c-6.248-6.248-16.378-6.249-22.627 0-6.248 6.249-6.248 16.379 0 22.627l29.998 29.998v23.417l-7.371-7.37c-6.248-6.248-16.378-6.249-22.627 0-6.248 6.249-6.248 16.379 0 22.627l29.998 29.998v18.134l-65.664 37.911-15.704-9.067-10.98-40.978c-2.287-8.536-11.063-13.6-19.596-11.313-8.536 2.287-13.601 11.06-11.313 19.596l2.698 10.068-20.28-11.709-10.981-40.977c-2.288-8.535-11.063-13.602-19.596-11.313-8.536 2.287-13.601 11.06-11.313 19.596l8.597 32.083-32.559 8.724c-8.536 2.287-13.601 11.06-11.313 19.596 2.286 8.534 11.058 13.601 19.596 11.313l41.77-11.192 20.28 11.709-10.861 2.91c-8.536 2.287-13.601 11.06-11.313 19.596 2.286 8.534 11.058 13.601 19.596 11.313l41.769-11.192 15.503 8.951v75.822l-15.704 9.067-40.977-10.98c-8.536-2.291-17.309 2.778-19.596 11.313-2.287 8.536 2.778 17.309 11.313 19.596l10.068 2.698-20.28 11.709-40.978-10.98c-8.536-2.289-17.309 2.778-19.596 11.313-2.287 8.536 2.778 17.309 11.313 19.596l32.083 8.597-8.724 32.559c-2.287 8.536 2.778 17.309 11.313 19.596 8.528 2.287 17.308-2.774 19.596-11.313l11.192-41.77 20.28-11.709-2.91 10.86c-2.287 8.536 2.779 17.309 11.314 19.596 8.538 2.287 17.31-2.781 19.596-11.314l11.192-41.77 15.503-8.951 65.666 37.91v18.134l-29.998 29.997c-6.249 6.249-6.249 16.379 0 22.627s16.38 6.249 22.627 0l7.371-7.37v23.417l-29.998 29.997c-6.249 6.249-6.249 16.379 0 22.627s16.38 6.249 22.627 0l23.487-23.486 23.834 23.834c6.249 6.248 16.379 6.248 22.628 0 6.248-6.249 6.248-16.379 0-22.627l-30.578-30.577v-23.417l7.95 7.95c6.249 6.248 16.379 6.248 22.628 0 6.248-6.249 6.248-16.379 0-22.627l-30.578-30.577v-17.901l65.664-37.911 15.503 8.951 11.192 41.77c2.287 8.536 11.062 13.601 19.596 11.314 8.535-2.287 13.601-11.061 11.314-19.596l-2.91-10.86 20.28 11.709 11.192 41.77c1.915 7.149 8.38 11.863 15.444 11.863 10.522 0 18.186-9.989 15.465-20.145l-8.724-32.559 32.083-8.597c8.536-2.287 13.601-11.06 11.313-19.596s-11.062-13.601-19.596-11.313l-40.978 10.98-20.28-11.709 10.068-2.698c8.536-2.287 13.601-11.06 11.313-19.596s-11.062-13.6-19.596-11.313l-40.977 10.98-15.704-9.067v-75.822l15.503-8.951 41.769 11.192c8.528 2.287 17.308-2.774 19.596-11.313 2.287-8.536-2.778-17.309-11.313-19.596l-10.861-2.91 20.28-11.709c45.465 12.18 43.031 11.739 45.924 11.739zm-168.896 22.308-33.664 19.436v-38.872zm-65.664-19.436v38.872l-33.664-19.436zm-49.664 47.149 33.664 19.436-33.664 19.436zm16 66.585 33.664-19.436v38.872zm65.664 19.436v-38.872l33.664 19.436zm49.664-47.149-33.664-19.436 33.664-19.436z"/></svg>