<svg id="Layer_1" enable-background="new 0 0 496 496" height="512" viewBox="0 0 496 496" width="512" xmlns="http://www.w3.org/2000/svg"><path d="m400 248c0 83.95-68.05 152-152 152-84.287 0-152-68.386-152-152 0-83.95 68.05-152 152-152 83.808 0 152 67.905 152 152z" fill="#d6f4fc"/><path d="m336 216c0 97.682-90.814 169.936-186.02 148.18-33.01-27.88-53.98-69.58-53.98-116.18 0-97.682 90.814-169.936 186.02-148.18 33.01 27.88 53.98 69.58 53.98 116.18z" fill="#e8f8fc"/><path d="m420.639 166.802-20.28 11.709 10.861 2.91c8.535 2.287 13.601 11.061 11.313 19.596-2.289 8.538-11.065 13.601-19.597 11.313l-41.769-11.192-22.6 13.048c12.334 9.217 5.746 28.818-9.558 28.818-2.808 0-2.04.015-28.257-6.986l-20.752 11.982 20.594 11.89 24.359-6.369c16.965-4.435 27.594 17.85 13.618 28.295l22.798 13.162 40.979-10.98c8.538-2.288 17.309 2.779 19.596 11.313 2.287 8.536-2.778 17.309-11.314 19.596l-10.069 2.698 20.281 11.709 40.979-10.98c8.539-2.287 17.309 2.779 19.596 11.313 2.287 8.536-2.778 17.309-11.313 19.596l-32.084 8.597 8.725 32.559c2.723 10.161-4.948 20.145-15.465 20.145-7.065 0-13.529-4.714-15.445-11.863l-11.192-41.77-20.279-11.708 2.91 10.86c2.723 10.161-4.948 20.145-15.465 20.145-7.065 0-13.529-4.714-15.445-11.863l-11.192-41.77-22.269-12.857c-1.897 17.496-26.65 19.466-31.322 2.538l-6.768-24.529-20.813-12.014v23.956l13.165 13.165c10.71 10.709 1.843 28.935-13.165 27.195v29.408l30.577 30.578c10.113 10.112 2.809 27.313-11.313 27.313-8.133 0-11.454-4.827-19.264-12.637v23.417l30.577 30.578c10.113 10.112 2.809 27.314-11.313 27.314-4.096 0-8.189-1.562-11.313-4.687l-23.834-23.834-23.487 23.486c-6.248 6.248-16.379 6.248-22.627 0-6.248-6.249-6.248-16.379 0-22.627l29.997-29.997v-23.417l-7.371 7.37c-6.248 6.248-16.379 6.248-22.627 0-6.248-6.249-6.248-16.379 0-22.627l29.998-29.998v-29.345c-15.244 2.368-24.707-16.18-13.782-27.105l13.782-13.782v-23.724l-20.58 11.882-6.984 25.615c-2.325 8.525-11.121 13.552-19.646 11.228-6.861-1.87-11.447-7.934-11.769-14.673l-22.189 12.811-11.192 41.77c-1.916 7.148-8.381 11.863-15.445 11.863-10.545 0-18.181-10.008-15.465-20.145l2.91-10.86-20.28 11.709-11.192 41.77c-1.915 7.148-8.38 11.863-15.444 11.863-10.522 0-18.186-9.989-15.465-20.145l8.724-32.559-32.083-8.599c-8.536-2.287-13.601-11.06-11.313-19.596 2.287-8.536 11.061-13.602 19.596-11.313l40.978 10.98 20.28-11.709-10.068-2.698c-8.536-2.287-13.601-11.06-11.313-19.596 2.287-8.536 11.061-13.604 19.596-11.313l40.977 10.98 22.801-13.164c-14.05-10.499-3.26-32.8 13.696-28.273l24.119 6.44 20.751-11.981-20.594-11.89-24.359 6.369c-16.926 4.429-27.631-17.822-13.618-28.295l-22.597-13.047c-45.462 12.183-43.027 11.743-45.921 11.743-7.064 0-13.529-4.714-15.444-11.863-2.287-8.536 2.778-17.309 11.313-19.596l10.861-2.91-20.281-11.709c-45.462 12.182-43.028 11.742-45.921 11.742-7.064 0-13.529-4.714-15.444-11.863-2.287-8.536 2.778-17.309 11.313-19.596l32.559-8.724-8.597-32.083c-2.287-8.536 2.778-17.309 11.313-19.596 8.534-2.289 17.308 2.778 19.596 11.313l10.98 40.978 20.28 11.709-2.698-10.068c-2.287-8.536 2.778-17.309 11.313-19.596 8.532-2.287 17.308 2.778 19.596 11.313l10.98 40.978 22.47 12.973c1.892-17.448 26.642-19.495 31.322-2.538l6.769 24.53 20.809 12.013v-23.956l-13.166-13.165c-10.708-10.708-1.845-28.936 13.166-27.195v-29.64l-29.998-29.997c-6.249-6.249-6.249-16.379 0-22.627 6.249-6.249 16.379-6.249 22.627 0l7.371 7.37v-23.418l-29.998-29.997c-6.249-6.249-6.249-16.379 0-22.627 6.249-6.249 16.379-6.249 22.627 0l23.487 23.486 23.834-23.834c6.248-6.249 16.379-6.249 22.627 0 6.249 6.249 6.249 16.379 0 22.627l-30.577 30.577v23.418l7.95-7.95c6.248-6.249 16.379-6.249 22.627 0 6.249 6.249 6.249 16.379 0 22.627l-30.577 30.577v29.113c15.239-2.368 24.71 16.177 13.781 27.105l-13.781 13.782v23.724l20.58-11.882 6.984-25.614c2.325-8.525 11.12-13.551 19.646-11.228 6.861 1.87 11.447 7.934 11.769 14.673l22.391-12.927 10.979-40.977c2.288-8.535 11.066-13.604 19.596-11.313 8.536 2.287 13.602 11.06 11.314 19.596l-2.698 10.068 20.28-11.708 10.979-40.977c2.287-8.535 11.063-13.602 19.596-11.313 8.536 2.287 13.602 11.06 11.314 19.596l-8.597 32.083 32.559 8.724c8.535 2.287 13.601 11.061 11.313 19.596-2.289 8.538-11.065 13.601-19.597 11.313z"/></svg>