<svg id="Layer_1" enable-background="new 0 0 496 496" height="512" viewBox="0 0 496 496" width="512" xmlns="http://www.w3.org/2000/svg"><path d="m334 132v-100c0-8.837-7.163-16-16-16h-140c-8.837 0-16 7.163-16 16v100l-92 78v270h356v-270z" fill="#fe4f60"/><path d="m70 210 92-78h172l92 78z" fill="#ff6d7a"/><path d="m353 334v146h-210v-146c0-8.837 7.163-16 16-16h178c8.837 0 16 7.163 16 16z" fill="#ededed"/><path d="m228 16c-8.84 0-16 7.16-16 16v100l-73.13 62h-50l73.13-62v-100c0-8.84 7.16-16 16-16z" fill="#fe929f"/><path d="m334 32v100h-172v-100c0-8.837 7.163-16 16-16h140c8.837 0 16 7.163 16 16z" fill="#fe4f60"/><path d="m228 16c-8.84 0-16 7.16-16 16v100h-50v-100c0-8.84 7.16-16 16-16z" fill="#ff6d7a"/><path d="m298 16c8.84 0 16 7.16 16 16v100l73.13 62h20l-73.13-62v-100c0-8.84-7.16-16-16-16z" fill="#fe4f60"/><path d="m298 16c8.84 0 16 7.16 16 16v100h20v-100c0-8.84-7.16-16-16-16z" fill="#e84857"/><path d="m143 338.58v141.42h-73v-254z" fill="#ff6d7a"/><path d="m191 318c-8.84 0-16 7.16-16 16v146h-32v-146c0-8.84 7.16-16 16-16z" fill="#e3e3e3"/><path d="m480 464h-38v-238h14c8.837 0 16-7.164 16-16s-7.163-16-16-16h-24.131l-81.869-69.411v-108.589c0-8.836-7.163-16-16-16s-16 7.164-16 16v116c0 4.701 2.067 9.164 5.653 12.204l58.734 49.796h-268.773l54.256-46h110.13c8.837 0 16-7.164 16-16s-7.163-16-16-16h-100v-100c0-8.836-7.164-16-16-16s-16 7.164-16 16v108.589l-81.87 69.411h-24.13c-8.836 0-16 7.164-16 16s7.164 16 16 16h14v238h-38c-8.836 0-16 7.164-16 16s7.164 16 16 16h464c8.837 0 16-7.164 16-16s-7.163-16-16-16zm-321 0v-130h178v130zm210 0v-146c0-8.836-7.163-16-16-16h-210c-8.836 0-16 7.164-16 16v146h-41v-238h324v238zm-187-202c0 8.836-7.164 16-16 16h-24c-8.836 0-16-7.164-16-16s7.164-16 16-16h24c8.836 0 16 7.164 16 16zm94 0c0 8.836-7.163 16-16 16h-24c-8.836 0-16-7.164-16-16s7.164-16 16-16h24c8.837 0 16 7.164 16 16zm94 0c0 8.836-7.163 16-16 16h-24c-8.837 0-16-7.164-16-16s7.163-16 16-16h24c8.837 0 16 7.164 16 16z"/></svg>