<svg id="Layer_1" enable-background="new 0 0 495.895 495.895" height="512" viewBox="0 0 495.895 495.895" width="512" xmlns="http://www.w3.org/2000/svg"><path d="m410.277 52.313c-16.69 0-31.23 9.21-38.81 22.83l-88.67-49.26c-20.515-11.401-36.367-9.88-57.9-9.88-13.39 0-25.9 6.64-33.41 17.73l-97.94 144.67h-6.62c-13.25 0-24 10.75-24 24v19.8c0 13.26 10.75 24 24 24h6.45v47.15l-12.66-3c-20.1-4.77-39.39 10.47-39.39 31.13v2.79c0 15.03 10.45 28.03 25.12 31.26 28.121 6.182 24.106 5.47 26.93 5.47v13.01c0 32.9 28.512 58.251 60.57 55.08 7.51 29.28 34.07 50.91 65.68 50.91s58.17-21.63 65.68-50.91c32.088 3.156 60.57-22.178 60.57-55.08v-13.01c2.824 0-1.163.706 26.93-5.47 14.67-3.23 25.12-16.23 25.12-31.26v-2.79c0-20.66-19.28-35.9-39.38-31.13l-12.67 3v-47.15h6.45c13.25 0 24-10.74 24-24v-19.8c0-13.25-10.75-24-24-24h-6.45l-34.65-46.25c.283-.223 57.139-20.52 57.24-20.52 6.12 17.16 22.53 29.45 41.81 29.45 24.51 0 44.38-19.87 44.38-44.38 0-24.52-19.87-44.39-44.38-44.39z" fill="#ffebd2"/><path d="m345.877 374.013c0 32.935-28.509 58.231-60.57 55.08-7.51 29.28-34.07 50.91-65.68 50.91s-58.17-21.63-65.68-50.91c-32.053 3.168-60.57-22.17-60.57-55.08 0-4.821 0-123.694 0-127.81h49.7v64.04c0 18.98 16.47 33.68 35.34 31.7 27.946-2.928 54.757-2.975 82.25-.02 18.97 2.04 35.55-12.74 35.54-31.82l-.03-63.9h49.7z" fill="#ededed"/><path d="m345.877 266.203v107.81c0 32.92-28.496 58.235-60.57 55.08-7.51 29.28-34.07 50.91-65.68 50.91s-58.17-21.63-65.68-50.91c-32.049 3.17-60.57-22.17-60.57-55.08v-107.81h49.7v44.04c0 18.98 16.47 33.68 35.34 31.7 27.948-2.928 54.757-2.975 82.25-.02 18.97 2.04 35.55-12.74 35.54-31.82l-.02-43.9z" fill="#f2f2f2"/><g fill="#fe4f60"><path d="m410.277 52.313c-16.69 0-31.23 9.21-38.81 22.83l-88.67-49.26c-20.515-11.401-36.367-9.88-57.9-9.88-13.39 0-25.9 6.64-33.41 17.73l-97.94 144.67h-6.62c-13.25 0-24 10.75-24 24v19.8c0 13.26 10.75 24 24 24h265.4c13.25 0 24-10.74 24-24v-19.8c0-13.25-10.75-24-24-24h-6.45c-37.428-49.957-34.755-46.168-34.46-46.4 57.751-20.624 56.95-20.37 57.05-20.37 6.12 17.16 22.53 29.45 41.81 29.45 24.51 0 44.38-19.87 44.38-44.38 0-24.52-19.87-44.39-44.38-44.39z"/><path d="m256.447 16.903c-10.07 2.15-19.06 8.12-24.96 16.83l-97.94 144.67h-6.62c-13.25 0-24 10.75-24 24v19.8c0 13.26 10.75 24 24 24h-40c-13.25 0-24-10.74-24-24v-19.8c0-13.25 10.75-24 24-24h6.62l97.94-144.67c7.51-11.09 20.02-17.73 33.41-17.73 21.34 0 24.237-.231 31.55.9z"/><path d="m126.927 246.203h-40c-13.25 0-24-10.74-24-24v-19.8c0-13.25 10.75-24 24-24h40c-13.25 0-24 10.75-24 24v19.8c0 13.26 10.75 24 24 24z"/></g><path d="m410.277 52.313c24.51 0 44.38 19.87 44.38 44.39 0 24.51-19.87 44.38-44.38 44.38-19.28 0-35.69-12.29-41.81-29.45h-.01c-10.286-28.875 11.127-59.32 41.82-59.32z" fill="#f2f2f2"/><path d="m342.727 120.823c-33.7 12.033-31.22 11.11-31.49 11.32l-39.02-52.08c-5.3-7.07-3.86-17.1 3.21-22.39 7.07-5.3 17.1-3.87 22.4 3.21z" fill="#e84857"/><path d="m256.447 16.903c-10.07 2.15-19.06 8.12-24.96 16.83l-97.94 144.67h-6.62c-13.25 0-24 10.75-24 24v19.8c0 13.26 10.75 24 24 24h-40c-13.25 0-24-10.74-24-24v-19.8c0-13.25 10.75-24 24-24h6.62l97.94-144.67c7.51-11.09 20.02-17.73 33.41-17.73 21.34 0 24.237-.231 31.55.9z" fill="#ff6d7a"/><path d="m376.327 202.403v19.8c0 13.26-10.75 24-24 24-12.273 0-251.821 0-265.4 0-13.25 0-24-10.74-24-24v-19.8c0-13.25 10.75-24 24-24h265.4c13.25 0 24 10.75 24 24z" fill="#f2f2f2"/><path d="m126.927 246.203h-40c-13.25 0-24-10.74-24-24v-19.8c0-13.25 10.75-24 24-24h40c-13.25 0-24 10.75-24 24v19.8c0 13.26 10.75 24 24 24z" fill="#f7f7f7"/><path d="m450.027 76.943c-37.998-18.903-78.519 21.717-59.5 59.51-10.22-5.08-18.19-13.98-22.06-24.82h-.01c-10.286-28.876 11.122-59.32 41.82-59.32 17.41 0 32.48 10.03 39.75 24.63z" fill="#f7f7f7"/><path d="m296.187 266.203h-153.11v-20h153.1z" fill="#ffdfba"/><path d="m93.377 293.353v8.92c-19.98-4.52-39.05 10.67-39.05 31.21 0 3.553-.445 11.051 4.66 19.41-10.63-5.32-17.66-16.29-17.66-28.62v-2.79c0-20.66 19.29-35.9 39.39-31.13z" fill="#fff3e4"/><path d="m393.017 304.423c-15.018-9.499-37.14-5.376-37.14 11.95v42.88c-9.335 2.055-7.364 1.75-10 1.75v-67.65l12.67-3c13.94-3.31 27.48 3 34.47 14.07z" fill="#ffdfba"/><path d="m262.414 396.847c-19.165 32.823-66.37 32.87-85.567.004-4.456-7.63-1.884-17.429 5.747-21.885 7.627-4.457 17.428-1.884 21.886 5.746 6.861 11.747 23.456 11.723 30.3 0 4.456-7.631 14.255-10.204 21.885-5.749s10.204 14.253 5.749 21.884zm-67.854-83.207c8.837 0 16-7.164 16-16v-8.573c0-8.836-7.163-16-16-16s-16 7.164-16 16v8.573c0 8.836 7.163 16 16 16zm50.139 0c8.837 0 16-7.164 16-16v-8.573c0-8.836-7.163-16-16-16s-16 7.164-16 16v8.573c0 8.836 7.164 16 16 16zm92.297-173.781 16.92 22.584c21.321.838 38.411 18.436 38.411 39.96v19.802c0 18.763-12.99 34.543-30.446 38.838v12.623c25.724-2.229 52.051 16.499 52.051 50.612 0 22.359-15.85 42.075-37.687 46.879l-14.372 3.162c-.156 37.108-28.786 67.621-65.13 70.762-28.831 67.773-125.412 67.735-154.228 0-36.344-3.14-64.973-33.653-65.129-70.761l-14.373-3.162c-40.616-8.936-50.636-62.681-19.452-87.328 9.705-7.671 21.727-11.211 33.817-10.163v-12.623c-17.457-4.295-30.447-20.074-30.447-38.838v-19.802c0-21.415 16.917-38.95 38.089-39.952l93.219-137.69c10.496-15.504 27.939-24.759 46.661-24.759 53.123 0 41.846-1.346 142.283 54.453 37.697-38.448 103.473-11.747 103.473 42.243 0 33.295-27.087 60.382-60.382 60.382-20.414 0-38.48-10.192-49.415-25.744zm44.895-43.16c0 15.65 12.732 28.382 28.383 28.382 15.649 0 28.382-12.732 28.382-28.382s-12.732-28.383-28.382-28.383c-15.651 0-28.383 12.732-28.383 28.383zm-258.194 65.704h190.205l-61.686-82.337c-5.299-7.072-3.86-17.1 3.211-22.398 7.071-5.299 17.1-3.86 22.398 3.212l39.087 52.172 33.164-11.844c-.464-6.24-.027-12.377 1.536-18.794l-76.586-42.548c-16.951-9.417-30.308-7.862-50.127-7.862-8.09 0-15.627 3.999-20.162 10.698zm-36.765 32c-4.411 0-8 3.589-8 8v19.802c0 4.411 3.589 8 8 8h265.396c4.411 0 8-3.589 8-8v-19.802c0-4.411-3.589-8-8-8-12.111 0-260.495 0-265.396 0zm193.254 67.801h-121.107v48.038c0 4.543 1.858 8.719 5.233 11.758 8.677 7.814 12.867 1.723 55.317 1.723 42.827 0 46.612 6.049 55.291-1.747 3.409-3.064 5.286-7.277 5.284-11.863zm-210.297 77.7 7.49 1.648v-35.55c-10.951-2.596-20.052 5.558-20.052 15.482v2.793c0 7.454 5.284 14.026 12.562 15.627zm259.992-77.7h-17.695l.019 47.896c.012 28.551-24.824 50.787-53.246 47.73-26.364-2.832-52.142-2.781-78.875.021-28.407 2.982-53.005-19.275-53.005-47.61v-48.038h-17.7v111.81c0 21.688 17.645 39.333 39.332 39.333 2.84 0 3.64-.25 5.249-.25 7.232 0 13.656 4.894 15.486 12.023 5.875 22.894 26.511 38.883 50.184 38.883 23.672 0 44.308-15.989 50.184-38.883 1.958-7.626 9.169-12.703 17.011-11.951 23.155 2.201 43.057-16.094 43.057-39.155v-111.809zm32 43.798v35.55l7.489-1.648c7.278-1.601 12.562-8.173 12.562-15.626 0-2.876.663-10.017-6.078-15.345-3.766-2.977-8.591-4.211-13.973-2.931z"/></svg>