<svg id="Layer_1" enable-background="new 0 0 496 496" height="512" viewBox="0 0 496 496" width="512" xmlns="http://www.w3.org/2000/svg"><path d="m419.17 412.96v35.04c0 17.67-14.32 32-32 32h-278.34c-17.68 0-32-14.33-32-32v-35.04c0-17.68 14.32-32 32-32h2.45v-93.27c0-65.507 40.876-121.393 94.38-143.56 0-.283-28.71-18.64-28.71-57.08 0-39.24 31.81-71.05 71.05-71.05s71.05 31.81 71.05 71.05c0 23.38-11.29 44.12-28.71 57.07v.01c53.225 22.051 94.38 77.746 94.38 143.56v93.27h2.45c17.68 0 32 14.32 32 32z" fill="#fe4f60"/><path d="m384.72 287.69v93.27h-30v-93.27c0-82.95-64.33-143.136-121.72-151.08 75.889-10.594 151.72 63.962 151.72 151.08z" fill="#e84857"/><path d="m308.4 153.34c-84.338-33.698-177.12 47.77-177.12 144.35v83.27h-20v-93.27c0-100.425 102.312-190.721 197.12-134.35z" fill="#ff6d7a"/><path d="m419.17 412.96v35.04c0 17.67-14.32 32-32 32h-278.34c-17.68 0-32-14.33-32-32v-35.04c0-17.68 14.32-32 32-32h278.34c17.68 0 32 14.32 32 32z" fill="#e8f8fc"/><path d="m111.28 295.37h273.44v85.59h-273.44z" fill="#fe929f"/><path d="m319.05 87.05c0 23.38-11.29 44.12-28.71 57.07 0 1.003-37.205-20.018-84.68.01 0-.283-28.71-18.64-28.71-57.08 0-39.24 31.81-71.05 71.05-71.05s71.05 31.81 71.05 71.05z" fill="#e8f8fc"/><path d="m131.3 295.37c-.029 2.237-.02-5.265-.02 85.59h-20v-85.59z" fill="#ffa4b8"/><path d="m128.83 480h-20c-17.68 0-32-14.33-32-32v-35.04c0-17.68 14.32-32 32-32h20c-17.68 0-32 14.32-32 32v35.04c0 17.67 14.32 32 32 32z" fill="#f1fafc"/><path d="m346.17 480h41c17.68 0 32-14.33 32-32v-35.04c0-17.68-14.32-32-32-32h-41c17.68 0 32 14.32 32 32v35.04c0 17.67-14.32 32-32 32z" fill="#d6f4fc"/><path d="m319.05 87.05c0 23.38-11.29 44.12-28.71 57.07 0 .1-1.627-.809-6.75-2.57 48.865-40.919 23.042-120.957-40.59-125.37 40.795-2.964 76.05 29.447 76.05 70.87z" fill="#d6f4fc"/><path d="m289.33 29.26c-45.569-14.354-92.38 19.697-92.38 67.79 0 16.82 5.85 32.28 15.61 44.45-5.59 1.904-6.9 2.728-6.9 2.62-17.42-12.95-28.71-33.69-28.71-57.07 0-58.092 65.877-91.149 112.38-57.79z" fill="#f1fafc"/><path d="m354.72 295.37h30v85.59h-30z" fill="#fe7a8a"/><path d="m400.724 366.916v-79.221c0-104.283-98.109-192.716-191.795-161.867-34.223-34.288-9.971-93.828 39.071-93.828 33.627 0 59.729 30.128 54.363 63.811-1.391 8.727 4.557 16.928 13.283 18.318 8.731 1.389 16.928-4.557 18.318-13.283 8.464-53.127-32.723-100.846-85.964-100.846-71.714 0-112.901 82.473-69.109 139.919-51.348 30.896-83.615 86.989-83.615 147.775v79.222c-19.888 5.864-34.45 24.278-34.45 46.04v35.044c0 26.467 21.533 48 48 48h278.348c26.467 0 48-21.533 48-48v-35.044c0-21.762-14.562-40.176-34.45-46.04zm-114.083-206.947c49.863 22.773 82.083 72.909 82.083 127.727v77.261h-241.448v-53.587h186.395c8.837 0 16-7.163 16-16s-7.163-16-16-16h-186.125c4.948-82.872 86.982-152.332 159.095-119.401zm116.533 288.031c0 8.822-7.178 16-16 16h-278.348c-8.822 0-16-7.178-16-16v-35.044c0-8.822 7.178-16 16-16h278.348c8.822 0 16 7.178 16 16z"/></svg>