<svg id="Layer_1" enable-background="new 0 0 496 496" height="512" viewBox="0 0 496 496" width="512" xmlns="http://www.w3.org/2000/svg"><path d="m419.037 379.79h-3.95v-222.19c0-78.21-63.39-141.6-141.59-141.6s-141.6 63.39-141.6 141.6v77.024c0 6.286-6.916 10.116-12.245 6.781l-19.355-12.115c-17.78-11.14-41.28-4.83-51.1 13.71-6.8 12.86-5.24 28.54 3.98 39.8 85.486 104.416 81.305 96.99 74.78 96.99-17.68 0-32 14.33-32 32v36.21c0 17.67 14.32 32 32 32h291.08c17.67 0 32-14.33 32-32v-36.21c0-17.67-14.33-32-32-32z" fill="#fe4f60"/><path d="m373.457 57.31c-92.398-69.396-226.56-3.927-226.56 113.29v87.024c0 6.286-6.916 10.116-12.245 6.781l-19.355-12.115c-28.136-17.629-62.931 9.014-53.9 40.55l-8.22-10.04c-9.22-11.26-10.78-26.94-3.98-39.8 9.82-18.54 33.32-24.85 51.1-13.71l19.355 12.115c5.328 3.335 12.245-.495 12.245-6.781v-77.024c0-78.21 63.4-141.6 141.6-141.6 39.02 0 74.35 15.78 99.96 41.31z" fill="#ff6d7a"/><path d="m451.037 411.79v36.21c0 17.67-14.33 32-32 32h-291.08c-17.68 0-32-14.33-32-32v-36.21c0-17.67 14.32-32 32-32h291.08c17.67 0 32 14.33 32 32z" fill="#e8f8fc"/><path d="m449.337 401.48c-7.09-2.415 13.098-1.69-301.38-1.69-17.68 0-32 14.33-32 32 0 39.495-.497 40.017 1.69 46.52-12.62-4.29-21.69-16.24-21.69-30.31v-36.21c0-17.67 14.32-32 32-32h291.08c14.06 0 26.01 9.08 30.3 21.69z" fill="#f1fafc"/><path d="m431.09 365.328v-207.732c0-86.899-70.697-157.596-157.597-157.596s-157.596 70.697-157.596 157.596v62.577c-7.273-4.553-23.926-17.147-48.281-10.61-36.283 9.739-50.937 53.913-26.82 83.371l63.257 77.26c-14.387 8.298-24.099 23.831-24.099 41.6v36.206c0 26.468 21.532 48 48 48h291.08c26.468 0 48-21.532 48-48v-36.207c-.001-22.305-15.293-41.104-35.944-46.465zm-355.179-124.859c5.461-1.468 11.108-.621 15.899 2.379l24.086 15.078v32.19c0 8.837 7.163 16 16 16s16-7.163 16-16v-132.52c.001-69.254 56.344-125.596 125.597-125.596s125.597 56.342 125.597 125.596v206.197h-258.921l-74.614-91.131c-9.264-11.316-3.731-28.412 10.356-32.193zm359.122 207.531c0 8.822-7.178 16-16 16h-291.08c-8.822 0-16-7.178-16-16v-36.207c0-8.822 7.178-16 16-16h291.08c8.822 0 16 7.178 16 16zm-245.07-290.404c0-46.059 37.472-83.53 83.53-83.53 8.837 0 16 7.163 16 16s-7.163 16-16 16c-28.414 0-51.53 23.116-51.53 51.53 0 8.837-7.163 16-16 16s-16-7.163-16-16z"/></svg>