<svg id="Layer_1" enable-background="new 0 0 496 496" height="512" viewBox="0 0 496 496" width="512" xmlns="http://www.w3.org/2000/svg"><path d="m385.66 320.3c0-54.041-43.809-97.85-97.85-97.85h-18.379c-7.145 0-13.424-4.737-15.385-11.608-7.766-27.2-3.792-13.288-18.426-64.503h2.79c17.67 0 32-14.32 32-32v-38.189c0-17.68-14.33-32-32-32h-179.54c-17.67 0-32 14.32-32 32v38.19c0 17.68 14.33 32 32 32h2.79c0 4.257 0 213.381 0 213.1 0 14.409 11.681 26.09 26.09 26.09 7.829 0 277.827 0 271.81 0 14.415 0 26.1-11.685 26.1-26.1 0-.947 0-40.298 0-39.13z" fill="#fe4f60"/><path d="m385.66 320.3v39.13c0 11.25-7.12 20.84-17.1 24.51 1.467-4.829 1.1-3.12 1.1-56.1 0-48.81-39.57-88.39-88.39-88.39h-27.84c-7.14 0-13.42-4.74-15.38-11.61-7.886-27.599-3.205-11.011-22.95-81.5h20.52c13.301 46.549 10.256 35.893 18.43 64.5 1.96 6.87 8.24 11.61 15.38 11.61h18.38c54.04 0 97.85 43.81 97.85 97.85z" fill="#e84857"/><path d="m117.76 385.53h-30c-14.41 0-26.1-11.68-26.1-26.09v-213.1h30v213.1c0 14.41 11.69 26.09 26.1 26.09z" fill="#ff6d7a"/><path d="m166.04 330.09c-7.661-52.321-53.681-86.206-104.38-81.55v110.9c0 14.41 11.69 26.09 26.1 26.09h271.8c14.41 0 26.1-11.68 26.1-26.09v-28.81c-236.518 0-219.62.3-219.62-.54z" fill="#e8f8fc"/><path d="m270.41 76.15v38.19c0 17.68-14.33 32-32 32-8.45 0-170.898 0-179.54 0-17.67 0-32-14.32-32-32v-38.19c0-17.68 14.33-32 32-32h179.54c17.67 0 32 14.32 32 32z" fill="#e8f8fc"/><path d="m117.76 385.53h-30c-14.41 0-26.1-11.68-26.1-26.09v-110.9c3.22-.3 15.07-1.21 30 1.96v108.94c0 14.41 11.69 26.09 26.1 26.09z" fill="#f1fafc"/><path d="m385.66 330.63v28.81c0 14.41-11.69 26.09-26.1 26.09-13.771 0-261.759 0-271.8 0-14.41 0-26.1-11.68-26.1-26.09v-28.81z" fill="#aaa"/><path d="m268.09 64.15h-179.22c-17.67 0-32 14.32-32 32 0 41.36-.682 42.765 2.32 50.19-18.572 0-32.32-14.778-32.32-32v-38.19c0-17.68 14.33-32 32-32h179.54c13.43 0 24.93 8.27 29.68 20z" fill="#f1fafc"/><path d="m113.18 385.53h-25.42c-13.602 0-25.76-10.592-25.76-25.62v-29.28h30v29.28c0 12.73 9.12 23.33 21.18 25.62z" fill="#b2b2b2"/><path d="m385.66 330.63c0 26.992.728 34.239-2.4 39.74-2.939 6.362-8.303 11.211-14.7 13.57 1.481-4.874 1.1-3.618 1.1-53.31z" fill="#999"/><path d="m480 347.789c-8.836 0-16 7.163-16 16 0 39.737-32.328 72.065-72.065 72.065h-15.07l-10.574-34.866c20.022-3.232 35.364-20.629 35.364-41.548v-39.14c0-62.776-51.073-113.85-113.85-113.85h-18.374l-13.547-47.413c17.848-7.004 30.524-24.39 30.524-44.692v-38.199c0-26.468-21.533-48-48-48h-179.536c-26.467 0-48 21.532-48 48v38.199c0 21.886 14.729 40.384 34.791 46.137v198.958c0 22.547 17.82 41.006 40.116 42.042l-7.607 34.372h-62.172c-8.836 0-16 7.163-16 16s7.164 16 16 16h375.935c57.382 0 104.065-46.684 104.065-104.065 0-8.837-7.164-16-16-16zm-146.983 53.744 10.409 34.321h-103.407l5.064-34.321zm-290.145-325.387c0-8.822 7.178-16 16-16h179.538c8.822 0 16 7.178 16 16v38.199c0 8.822-7.178 16-16 16-8.645 0-171.088 0-179.538 0-8.822 0-16-7.178-16-16zm34.791 188.372c32.441 2.822 57.139 22.287 67.857 50.111h-67.857zm0 94.922v-12.812h242.759c8.836 0 16-7.163 16-16s-7.164-16-16-16h-141.294c-12.261-45.363-50.219-78.75-101.465-82.149v-70.135h145.887l3.947 13.816-22.457 3.277c-8.744 1.275-14.798 9.398-13.522 18.143 1.162 7.961 7.998 13.691 15.813 13.691 1.606 0-.034.175 29.036-4.067l5.612 19.641c1.962 6.869 8.241 11.604 15.384 11.604h30.442c45.132 0 81.85 36.718 81.85 81.85v39.141c0 5.565-4.528 10.093-10.093 10.093-21.897 0-261.869 0-271.805 0-5.566 0-10.094-4.527-10.094-10.093zm40.879 42.093h94.194l-5.064 34.321h-96.726z"/></svg>