<svg id="Layer_1" enable-background="new 0 0 496 496" height="512" viewBox="0 0 496 496" width="512" xmlns="http://www.w3.org/2000/svg"><g fill="#fe4f60"><path d="m419.8 85.243c-132.719 50.273-123.18 45.995-123.18 47.86 0-19.08-15.46-34.55-34.54-34.55h-28.16c-19.08 0-34.54 15.47-34.54 34.55 0-1.777 9.623 2.445-123.18-47.86-29.08-11.02-60.2 10.47-60.2 41.57v145.75c0 31.1 31.12 52.59 60.2 41.57l108.197-40.974-68.703 109.214c-3.542 5.63.935 12.872 7.555 12.221l41.369-4.069c2.162-.213 4.317.463 5.971 1.872l15.78 13.442c4.209 3.585 10.698 1.922 12.665-3.245l38.727-101.772h20.48l38.727 101.772c1.966 5.167 8.456 6.83 12.665 3.245 16.816-14.325 17.371-15.745 21.751-15.314l41.369 4.069c6.62.651 11.097-6.591 7.555-12.221l-68.703-109.214 108.195 40.974c29.08 11.02 60.2-10.47 60.2-41.57v-145.75c0-31.1-31.12-52.59-60.2-41.57z"/><path d="m311.19 272.503 69.116 109.87c3.542 5.63-.935 12.872-7.555 12.221l-41.369-4.069c-2.162-.213-4.317.463-5.971 1.872l-15.78 13.442c-4.209 3.585-10.698 1.922-12.665-3.245l-38.916-102.271h4.03c19.08 0 34.54-15.47 34.54-34.55v1.21z"/><path d="m237.95 300.323-38.917 102.272c-1.966 5.167-8.456 6.83-12.665 3.245-16.816-14.325-17.371-15.745-21.751-15.314l-41.369 4.069c-6.62.651-11.097-6.591-7.555-12.221l69.116-109.87 14.57-5.52v-1.21c0 19.08 15.46 34.55 34.54 34.55h4.031z"/></g><path d="m199.38 131.903v12.42l-103.18-39.08c-29.08-11.02-60.2 10.47-60.2 41.57v145.75c0 7.2 1.67 13.89 4.6 19.78-14.29-7.17-24.6-21.88-24.6-39.78v-145.75c0-31.1 31.12-52.59 60.2-41.57z" fill="#ff6d7a"/><path d="m471.65 100.833c-11.51-8.35-26.95-11.24-41.85-5.59l-133.18 50.58v-13.92l123.18-46.66c19.85-7.52 40.65.1 51.85 15.59z" fill="#ff6d7a"/><path d="m237.95 300.323-3.81 10c-20.432 0-32.184-9.317-36.98-25.133-1.314-4.334-6.026-6.653-10.296-5.144l-8.734 3.087 6.68-10.63 14.57-5.52v-1.21c0 19.08 15.46 34.55 34.54 34.55z" fill="#e84857"/><path d="m258.05 300.323 3.81 10c20.432 0 32.184-9.317 36.98-25.133 1.314-4.334 6.026-6.653 10.296-5.144l8.734 3.087-6.68-10.63-14.57-5.52v-1.21c0 19.08-15.46 34.55-34.54 34.55z" fill="#e84857"/><path d="m233.92 300.823c-19.08 0-34.54-15.47-34.54-34.55v-133.17c0-19.08 15.46-34.55 34.54-34.55h28.16c19.08 0 34.54 15.47 34.54 34.55v133.17c0 19.08-15.46 34.55-34.54 34.55-9.425 0-18.765 0-28.16 0z" fill="#fe929f"/><path d="m294.37 120.813c-7.652-2.925-10.662-2.26-40.45-2.26-19.08 0-34.54 15.47-34.54 34.55 0 144.333-.851 137.347 2.25 145.46-13.01-4.94-22.25-17.54-22.25-32.29v-133.17c0-19.08 15.46-34.55 34.54-34.55h28.16c14.75 0 27.34 9.25 32.29 22.26z" fill="#ffa4b8"/><path d="m414.13 70.279-106.751 40.436c-8.271-16.668-25.465-28.157-45.299-28.157h-28.158c-19.834 0-37.028 11.489-45.299 28.157l-106.753-40.436c-39.517-14.967-81.87 14.28-81.87 56.535v145.75c0 33.548 27.248 60.455 60.46 60.455 14.315 0 16.063-1.895 85.401-28.159l-52.404 83.31c-7.061 11.223 1.867 25.736 15.109 24.442l54.233-5.334 21.825 18.591c8.404 7.161 21.399 3.839 25.329-6.489l38.047-99.982 38.046 99.981c3.939 10.35 16.947 13.633 25.329 6.489l21.825-18.591 54.233 5.334c13.245 1.293 22.168-13.223 15.109-24.442l-52.404-83.31 63.991 24.239c39.6 14.998 81.87-14.372 81.87-56.535v-145.75c.001-42.256-42.359-71.505-81.869-56.534zm-180.209 44.278h28.158c10.226 0 18.544 8.318 18.544 18.544v133.176c0 10.226-8.318 18.544-18.544 18.544-5.726 0 14.096 0-28.158 0-10.226 0-18.544-8.318-18.544-18.544v-133.176c0-10.226 8.318-18.544 18.544-18.544zm-163.387 184.616c-18.617 7.055-38.534-6.641-38.534-26.609v-145.75c0-16.618 13.677-28.498 28.361-28.498 7.15 0 .36-1.828 123.016 44.631v19.459l-75.368-14.432c-8.682-1.661-17.062 4.026-18.724 12.706-1.661 8.679 4.026 17.062 12.706 18.724l81.386 15.584v12.129l-46.623 7.936c-8.711 1.483-14.571 9.747-13.089 18.458 1.48 8.697 9.728 14.572 18.458 13.089l41.254-7.021v16.852c-6.356 2.407-106.468 40.327-112.843 42.742zm117.577 87.63c-17.921-15.266-10.926-13.095-50.183-9.233l53.158-84.508c5.816 9.268 14.55 16.521 24.909 20.464zm119.778 0-27.884-73.277c10.359-3.943 19.092-11.196 24.909-20.464l53.158 84.508c-39.149-3.851-32.22-6.07-50.183 9.233zm156.111-114.239c0 19.948-19.898 33.669-38.534 26.609-6.321-2.394-106.5-40.34-112.843-42.743v-16.852l41.254 7.021c8.731 1.483 16.978-4.394 18.458-13.089 1.482-8.711-4.378-16.975-13.089-18.458l-46.623-7.936v-12.129l81.386-15.584c8.68-1.662 14.367-10.045 12.706-18.724-1.662-8.679-10.039-14.364-18.724-12.706l-75.368 14.432v-19.459l112.843-42.742c18.614-7.054 38.534 6.637 38.534 26.61z"/></svg>