<svg id="Layer_1" enable-background="new 0 0 496 496" height="512" viewBox="0 0 496 496" width="512" xmlns="http://www.w3.org/2000/svg"><path d="m316.19 480c-12.338 0-12.931.084-15.69-.29 17.28-2.31 29.88-18.36 27.38-36.16-5.23-37.179-1.092-7.729-22.4-159.44-.68-4.81 3.06-9.11 7.92-9.11h20c-4.86 0-8.6 4.3-7.92 9.11 21.866 155.686 17.378 123.743 22.4 159.44 2.7 19.25-12.25 36.45-31.69 36.45z" fill="#ffaa64"/><path d="m458 233v10c0 17.67-14.33 32-32 32h-112.6c-4.86 0-8.6 4.3-7.92 9.11 21.866 155.686 17.378 123.743 22.4 159.44 2.5 17.8-10.1 33.85-27.38 36.16-.102.1-4.869-.728-8.48-2.36-.758 0-12.82-5.513-17.49-18.85-16.125-46.426-13.766-39.632-17.97-51.74-2.49-7.17-12.63-7.17-15.12 0-3.499 10.083 1.388-3.992-17.97 51.74-4.47 12.87-16.6 21.5-30.23 21.5h-11.43c-19.439 0-34.393-17.201-31.69-36.45 5.23-37.179 1.092-7.729 22.4-159.44.68-4.81-3.06-9.11-7.92-9.11h-94.6c-17.67 0-32-14.33-32-32v-10c0-17.67 14.33-32 32-32h113.76c-23.64-19.06-38.76-48.27-38.76-81 0-57.725 47.113-104.741 105.47-103.99 56.24.78 102.06 46.85 102.53 103.1.27 33.09-14.91 62.65-38.76 81.89h111.76c17.67 0 32 14.33 32 32z" fill="#ffb366"/><g fill="#ffbd7b"><path d="m160.12 453.55c-1.1 7.86.74 15.39 4.63 21.53-10.587-6.814-15.989-18.431-14.78-30.3.061-.624 22.463-160.049 22.55-160.67.68-4.81-3.06-9.11-7.92-9.11 12.565 0 19.042 11.411 17.23 24-20.549 146.329-16.536 117.768-21.71 154.55z"/><path d="m333.25 59.02c-67.324-54.342-169.25-6.786-169.25 80.98 0 22.79 7.33 43.87 19.76 61-23.64-19.06-38.76-48.27-38.76-81 0-57.44 46.56-104 104-104 34.66 0 65.36 16.95 84.25 43.02z"/><path d="m178.88 211h-98.88c-17.673 0-32 14.327-32 32 0 10.545-.853 17.913 4.93 27.07-8.97-5.67-14.93-15.67-14.93-27.07v-10c0-17.673 14.327-32 32-32h113.01c3.741 4.01.898 10-4.13 10z"/><path d="m453.07 215.93c-4.94-3.12-10.79-4.93-17.07-4.93h-96.883c-5.042 0-7.862-6.002-4.137-10h91.02c11.4 0 21.4 5.96 27.07 14.93z"/></g><path d="m458 233v10c0 17.67-14.33 32-32 32h-20.5v-74h20.5c17.67 0 32 14.33 32 32z" fill="#e8f8fc"/><path d="m316.19 480c-12.338 0-12.931.084-15.69-.29 17.28-2.31 29.88-18.36 27.38-36.16l-3.96-28.15h20l3.96 28.15c2.7 19.25-12.25 36.45-31.69 36.45z" fill="#d6f4fc"/><path d="m300.5 479.71c-.102.1-4.869-.728-8.48-2.36-.758 0-12.82-5.513-17.49-18.85l-14.97-43.1h64.36l3.96 28.15c2.5 17.8-10.1 33.85-27.38 36.16z" fill="#e8f8fc"/><path d="m154.08 415.4h84.36l-14.97 43.1c-4.47 12.87-16.6 21.5-30.23 21.5h-11.43c-19.44 0-34.39-17.2-31.69-36.45z" fill="#e8f8fc"/><path d="m92.5 201v74h-22.5c-17.67 0-32-14.33-32-32v-10c0-17.67 14.33-32 32-32z" fill="#e8f8fc"/><path d="m92.5 201v10h-12.5c-17.67 0-32 14.33-32 32 0 10.545-.853 17.913 4.93 27.07-9.342-5.917-14.63-15.94-14.91-26.01-.029-1-.02-.013-.02-11.06 0-17.67 14.33-32 32-32z" fill="#f1fafc"/><path d="m453.07 215.93c-9.974-6.3-16.144-4.93-47.57-4.93v-10c21.533 0 21.579-.044 23.22.12 8.527.552 18.433 5.468 24.35 14.81z" fill="#f1fafc"/><path d="m164.75 475.08c-10.056-6.103-16.506-18.708-14.63-31.53l3.96-28.15h11.4c-1.77 12.641-.619 4.452-5.36 38.15-1.1 7.86.74 15.39 4.63 21.53z" fill="#f1fafc"/><path d="m426 185h-76.115c51.362-79.56-6.13-185-100.885-185-95.275 0-151.937 105.974-100.923 185h-78.077c-26.467 0-48 21.532-48 48v10c0 26.468 21.533 48 48 48h85.395l-21.12 150.327c-4.05 28.874 18.401 54.673 47.535 54.673h11.43c20.422 0 38.644-12.96 45.344-32.25l10.416-29.987 10.416 29.986c6.699 19.29 24.921 32.251 45.344 32.251h11.43c29.156 0 51.583-25.819 47.534-54.676l-21.119-150.324h83.395c26.467 0 48-21.532 48-48v-10c0-26.468-21.533-48-48-48zm-372 58v-10c0-8.822 7.178-16 16-16h6.5v42h-6.5c-8.822 0-16-7.178-16-16zm139.24 221h-11.43c-9.73 0-17.198-8.577-15.846-18.225l2.02-14.379h47.962l-7.591 21.854c-2.232 6.43-8.307 10.75-15.115 10.75zm122.95 0h-11.43c-6.808 0-12.882-4.319-15.115-10.75l-7.591-21.854h47.962l2.02 14.376c1.352 9.652-6.116 18.228-15.846 18.228zm-7.834-186.774 17.164 122.171h-54.581l-6.824-19.646c-4.958-14.273-25.257-14.314-30.229 0l-6.824 19.646h-54.582l17.164-122.171c1.353-9.627-6.134-18.226-15.844-18.226h-65.3v-42h75.264c15.047 0 21.765-19.004 10.043-28.455-20.849-16.813-32.807-41.796-32.807-68.545 0-48.523 39.477-88 88-88s88 39.477 88 88c0 30.829-16.468 59.809-42.979 75.63-7.588 4.528-10.068 14.351-5.54 21.938 4.529 7.589 14.35 10.069 21.939 5.54 3.175-1.895 6.257-3.935 9.235-6.108h69.845v42h-65.3c-9.724 0-17.195 8.612-15.844 18.226zm133.644-34.226c0 8.822-7.178 16-16 16h-4.5v-42h4.5c8.822 0 16 7.178 16 16zm-172 19c0 8.837-7.164 16-16 16h-12c-8.836 0-16-7.163-16-16s7.164-16 16-16h12c8.836 0 16 7.163 16 16zm0 50c0 8.837-7.164 16-16 16h-12c-8.836 0-16-7.163-16-16s7.164-16 16-16h12c8.836 0 16 7.163 16 16zm25.382-153.989c-18.79 38.545-73.983 38.526-92.765 0-3.872-7.942-.572-17.521 7.371-21.393 7.943-3.873 17.521-.572 21.394 7.371 7.138 14.641 28.102 14.632 35.235 0 3.873-7.944 13.451-11.246 21.394-7.371 7.943 3.872 11.243 13.45 7.371 21.393z"/></svg>