<svg id="Layer_1" enable-background="new 0 0 495.834 495.834" height="512" viewBox="0 0 495.834 495.834" width="512" xmlns="http://www.w3.org/2000/svg"><path d="m425.917 227.609c-6.69-13.69-6.69-29.71 0-43.41 11.71-23.94 2.31-52.86-21.24-65.36-13.46-7.14-22.88-20.1-25.51-35.12-4.61-26.25-29.21-44.13-55.6-40.39-15.1 2.13-30.33-2.82-41.29-13.42-19.16-18.53-49.56-18.53-68.72 0-10.96 10.6-26.19 15.55-41.29 13.42-26.39-3.74-50.99 14.14-55.6 40.39-2.63 15.02-12.05 27.98-25.52 35.12-23.54 12.5-32.94 41.42-21.23 65.36 6.69 13.7 6.69 29.72 0 43.41-11.71 23.95-2.31 52.87 21.24 65.37 13.46 7.14 22.88 20.1 25.51 35.12 4.54 25.85 28.46 43.58 54.39 40.55 0 12.439 1.003 27.668-8.1 47.06-7.48 15.94 4.08 34.25 21.69 34.25h33.31c0 16.54 13.41 29.95 29.95 29.95s29.94-13.41 29.94-29.95h33.34c17.61 0 29.17-18.31 21.69-34.25-9.064-19.307-8.1-34.432-8.1-47.06 25.93 3.03 49.85-14.7 54.39-40.55 2.63-15.02 12.05-27.98 25.52-35.12 23.54-12.5 32.94-41.42 21.23-65.37zm-109.72 64.55c-4.038-7.802-9.633-15.273-14.12-19.76 3.35-4.656 2.54-5.143 2.54-43.74 0-9.61-9.62-16.25-18.61-12.85l-38.07 14.42c-.1 0 1.752.686-38.13-14.42-8.99-3.4-18.61 3.24-18.61 12.85 0 38.6-.815 39.081 2.55 43.75-1.266 1.235-8.429 8.773-14.11 19.75-25.42-20.15-41.72-51.3-41.72-86.25 0-60.75 49.25-110 110-110s110 49.25 110 110c0 34.95-16.3 66.1-41.72 86.25z" fill="#b5f26d"/><path d="m332.877 415.709c-5.3-11.29-8.1-23.69-8.1-36.31 0-55.192.989-60.53-3.46-74.92-3.769-12.194-11.765-24.605-19.24-32.08 3.35-4.656 2.54-5.143 2.54-43.74 0-9.61-9.62-16.25-18.61-12.85l-38.07 14.42c-.1 0 1.752.686-38.13-14.42-8.99-3.4-18.61 3.24-18.61 12.85 0 38.6-.815 39.081 2.55 43.75-6.854 6.728-15.311 19.388-19.23 32.07-4.359 14.098-3.46 18.67-3.46 74.92 0 12.62-2.8 25.02-8.1 36.31-7.48 15.94 4.08 34.25 21.69 34.25h33.31c0 16.54 13.41 29.95 29.95 29.95s29.94-13.41 29.94-29.95h33.34c17.61 0 29.17-18.31 21.69-34.25z" fill="#ffe773"/><path d="m217.957 449.959h59.89c0 16.54-13.4 29.95-29.94 29.95s-29.95-13.41-29.95-29.95z" fill="#fadf5a"/><path d="m286.007 215.809c-39.543 14.978-38.028 14.42-38.13 14.42l-38.07-14.42c-8.99-3.4-18.61 3.24-18.61 12.85v35.78c0 9.552 9.571 16.269 18.61 12.85 39.543-14.978 38.028-14.42 38.13-14.42l38.07 14.42c6.16 2.33 12.63-.06 16.07-4.89 3.35-4.656 2.54-5.143 2.54-43.74 0-9.61-9.62-16.25-18.61-12.85z" fill="#fe929f"/><path d="m213.187 276.009c-13.794 14.578-22.087 33.37-22.13 54.34 0 54.591 2.063 66.712-8.1 88.36-5.64 12.03-.45 25.41 10.01 31.25h-8.32c-17.61 0-29.17-18.31-21.69-34.25 5.3-11.29 8.1-23.69 8.1-36.31 0-55.737-.941-60.685 3.46-74.92 3.928-12.71 12.512-25.516 19.23-32.07 3.44 4.83 9.9 7.21 16.06 4.88z" fill="#ffec8f"/><path d="m282.567 276.009c13.591 14.364 22.087 33.201 22.13 54.34 0 54.591-2.063 66.712 8.1 88.36 5.64 12.03.45 25.41-10.01 31.25h8.32c17.61 0 29.17-18.31 21.69-34.25-10.136-21.591-8.1-33.596-8.1-88.36-.02-9.78-1.84-17.63-3.46-22.87-3.882-12.562-12.362-25.369-19.23-32.07-3.44 4.83-9.9 7.21-16.06 4.88z" fill="#ffec8f"/><path d="m209.884 277.174c-6.136 2.374-12.671.111-16.19-4.83-3.388-4.701-2.55-5.327-2.55-43.75 0-9.072 8.852-16.321 18.75-12.8-5 1.96-8.75 6.8-8.75 12.8 0 38.6-.815 39.081 2.55 43.75 1.55 2.17 3.71 3.85 6.19 4.83z" fill="#ffa4b8"/><path d="m295.814 215.794c-47.702 18.138-41.289 16.927-47.877 14.435l38.017-14.485c3.379-1.28 6.85-1.14 9.86.05z" fill="#ffa4b8"/><path d="m290.027 36.029c-12.92.27-25.75 5.22-35.74 14.88-11.75 11.37-28.08 16.68-44.27 14.39-28.3-4.01-54.67 15.16-59.61 43.31-2.82 16.1-12.92 30-27.36 37.65-25.24 13.4-35.32 44.41-22.77 70.08 7.18 14.69 7.18 31.86 0 46.54-5.18 10.59-6.5 22.09-4.49 32.89-1.48-1.01-3.03-1.94-4.63-2.79-23.55-12.5-32.95-41.42-21.24-65.37 6.69-13.69 6.69-29.71 0-43.41-11.71-23.94-2.31-52.86 21.23-65.36 13.47-7.14 22.89-20.1 25.52-35.12 4.61-26.25 29.21-44.13 55.6-40.39 15.1 2.13 30.33-2.82 41.29-13.42 19.16-18.53 49.56-18.53 68.72 0 2.39 2.31 4.99 4.36 7.75 6.12z" fill="#cefd97"/><path d="m323.627 314.079c-1.401-8.047-3.838-14.993-7.43-21.92 39.979-31.691 51.829-85.12 32.95-129.36 26.259 49.351 17.052 111.703-25.52 151.28z" fill="#cefd97"/><path d="m440.294 191.23c15.5-31.709 3.085-69.971-28.114-86.523-9.171-4.866-15.461-13.522-17.255-23.75-6.099-34.766-38.633-58.42-73.601-53.475-10.277 1.458-20.457-1.853-27.92-9.071-25.368-24.541-65.593-24.555-90.976 0-7.462 7.22-17.636 10.523-27.92 9.072-34.929-4.953-67.498 18.682-73.601 53.474-1.794 10.228-8.083 18.884-17.255 23.75-31.179 16.543-43.622 54.795-28.112 86.523 4.56 9.328 4.56 20.028 0 29.356-15.5 31.71-3.085 69.971 28.114 86.523 9.171 4.866 15.461 13.522 17.255 23.75 4.915 28.02 27.133 48.926 53.966 53.277-.595 8.542-2.765 17.021-6.402 24.771-12.471 26.578 6.883 57.054 36.174 57.054h20.189c14.836 39.803 71.28 39.856 86.135 0h20.216c29.357 0 48.618-30.534 36.174-57.054-3.638-7.752-5.809-16.233-6.403-24.777 26.833-4.356 49.051-25.253 53.967-53.271 1.794-10.228 8.083-18.884 17.255-23.75 31.18-16.543 43.623-54.795 28.113-86.523-4.559-9.327-4.559-20.027.001-29.356zm-233.099 69.937v-29.233l24.68 9.349v10.536zm103.992 172.795h-126.541c-5.978 0-9.677-6.192-7.206-11.46 11.956-25.475 9.618-41.421 9.618-95.125.022-12.538 3.581-23.664 10.48-34.151 6.227 1.599 12.397 1.122 17.931-.974l32.433-12.286 32.433 12.286c5.629 2.131 11.808 2.552 17.954.967 13.203 20.068 10.484 31.955 10.484 86.181 0 14.789 3.326 29.694 9.618 43.102 2.477 5.275-1.231 11.46-7.204 11.46zm-22.575-172.794-24.68-9.35v-10.536l24.68-9.349zm108.572 17.675c-17.954 9.525-30.265 26.47-33.776 46.488-2.203 12.558-11.203 22.316-22.632 26.027 0-25.992 3.085-52.122-20.526-82.369.5-3.228.364-1.287.364-40.327 0-20.792-20.838-35.172-40.275-27.813l-32.433 12.285-32.436-12.284c-19.436-7.365-40.275 7.026-40.275 27.813 0 39.713-.015 35.564.034 36.872-49.979-60.705-6.833-153.626 72.689-153.626 60.495 0 105.588 56.696 91.428 115.946-2.054 8.595 3.249 17.227 11.843 19.28 8.598 2.059 17.227-3.248 19.281-11.843 18.998-79.513-41.6-155.384-122.552-155.384-69.477 0-126 56.523-126 126 0 34.53 13.867 66.901 38.413 90.577-6.384 17.849-5.271 30.719-5.271 54.876-11.427-3.711-20.429-13.474-22.632-26.03-3.512-20.019-15.822-36.963-33.776-46.488-16.016-8.498-22.324-27.914-14.362-44.203 8.926-18.259 8.926-39.203 0-57.462-7.962-16.289-1.654-35.706 14.362-44.203 17.954-9.525 30.265-26.47 33.776-46.488 3.132-17.857 19.658-29.867 37.601-27.318 20.121 2.845 40.042-3.627 54.65-17.757 13.031-12.606 33.446-12.606 46.478 0 14.608 14.13 34.525 20.6 54.65 17.757 17.95-2.541 34.468 9.46 37.601 27.318 3.512 20.019 15.822 36.963 33.776 46.488 16.016 8.498 22.324 27.914 14.362 44.203-8.926 18.259-8.926 39.203 0 57.462 7.962 16.289 1.653 35.706-14.362 44.203z"/></svg>