<svg id="Layer_1" enable-background="new 0 0 481.592 481.592" height="512" viewBox="0 0 481.592 481.592" width="512" xmlns="http://www.w3.org/2000/svg"><path d="m143.389 112.549c22.724-56.516 78.047-96.406 142.686-96.407 84.808-.001 154.362 70.118 153.717 154.923-.641 84.351-69.214 152.527-153.715 152.527h-139.954c-57.173 0-104.737-46.779-104.324-103.95.388-53.791 41.949-97.795 94.736-102.074 3.058-.248 5.709-2.173 6.854-5.019z" fill="#e8f8fc"/><path d="m439.796 171.062c-.65 84.35-69.22 152.53-153.72 152.53h-139.95c-33.8 0-64.23-16.34-83.39-41.51 17.66 13.479 39.7 21.51 63.39 21.51h139.95c130.078 0 201.192-151.998 118.01-251.78 34.25 28.55 56.07 71.58 55.71 119.25z" fill="#d6f4fc"/><path d="m408.526 77.392c-81.127-61.592-197.603-28.178-235.14 65.16-1.14 2.84-3.79 4.77-6.85 5.02-77.769 6.305-120.61 93.919-77.9 158.7-28.28-18.65-47.1-50.58-46.84-86.63.39-53.79 41.95-97.79 94.74-102.07 3.06-.25 5.71-2.18 6.85-5.02 44.327-110.223 192.291-131.17 265.14-35.16z" fill="#f1fafc"/><path d="m286.072 339.592c93.587 0 169.725-76.138 169.725-169.725 0-137.87-156.443-217.878-268.112-138.313-25.346 18.059-44.991 42.304-57.273 70.554-58.869 7.21-104.614 57.514-104.614 118.299 0 65.719 53.466 119.186 119.185 119.186h141.089zm-228.276-119.185c0-76.403 91.676-115.231 146.758-63.657 6.452 6.04 16.576 5.706 22.615-.744 6.04-6.45 5.707-16.576-.744-22.615-17.062-15.975-38.137-26.422-60.793-30.382 24.01-43.111 70.061-70.866 120.439-70.866 75.941 0 137.725 61.783 137.725 137.726 0 75.941-61.783 137.725-137.725 137.725h-141.09c-48.074-.002-87.185-39.113-87.185-87.187zm27 149.185c-11.58 0-21 9.421-21 21s9.42 21 21 21 21-9.421 21-21-9.42-21-21-21zm110 0c-11.58 0-21 9.421-21 21s9.42 21 21 21 21-9.421 21-21-9.42-21-21-21zm100 0c-11.579 0-21 9.421-21 21s9.421 21 21 21 21-9.421 21-21-9.421-21-21-21zm100 0c-11.579 0-21 9.421-21 21s9.421 21 21 21 21-9.421 21-21-9.421-21-21-21zm-50 70c-11.579 0-21 9.421-21 21s9.421 21 21 21 21-9.421 21-21-9.421-21-21-21zm-100 0c-11.58 0-21 9.421-21 21s9.42 21 21 21c11.579 0 21-9.421 21-21s-9.421-21-21-21zm-110 0c-11.58 0-21 9.421-21 21s9.42 21 21 21 21-9.421 21-21-9.42-21-21-21z"/></svg>