<svg id="Layer_1" enable-background="new 0 0 496.293 496.293" height="512" viewBox="0 0 496.293 496.293" width="512" xmlns="http://www.w3.org/2000/svg"><path d="m364.133 274.837c3.951 0 5.49-5.091 2.225-7.315-9.823-6.692-15.841-17.424-15.841-30.325v-38.66c0-49.882-40.438-90.32-90.32-90.32h-24.09c-49.888 0-90.33 40.442-90.33 90.33v38.65c0 12.907-5.253 23.644-14.98 30.335-3.247 2.234-1.703 7.305 2.239 7.305 4.907 0 235.27 0 231.097 0z" fill="#ffe773"/><path d="m332.997 359.297c-46.873-46.873-122.863-46.838-169.7 0-49.192-49.232-144.551-32.835-147.275 57.636-.135 4.502 3.494 8.214 7.998 8.214h10.357c14 0 26.24-9.45 29.77-23l5.01 8.23c5.58 9.17 15.54 14.77 26.28 14.77 36.343 0 32.14-.094 34.17.24-1.838 11.701-1.46 16.986-1.46 46.76 0 4.418 3.582 8 8 8h224c4.418 0 8-3.582 8-8 0-29.931.37-35.116-1.46-46.76 2.024-.333-2.173-.24 34.17-.24 10.74 0 20.7-5.6 26.28-14.77l5.01-8.23c3.53 13.55 15.77 23 29.77 23h10.357c4.504 0 8.134-3.712 7.998-8.214-2.695-89.515-97.483-107.469-147.275-57.636z" fill="#f2f2f2"/><path d="m292.855 209.052c4.873-.77 9.291 2.961 9.291 7.895v10.439c0 29.779-24.138 54-54 54s-54-24.221-54-54v-23.291c0-5.842 6.056-9.722 11.354-7.26 27.247 12.665 57.534 16.927 87.355 12.217z" fill="#ffebd2"/><path d="m258.147 280.457c-33.319 6.273-64-19.337-64-53.07v-23.29c0-5.84 6.06-9.72 11.35-7.26 2.88 1.34 6 2.68 9.35 3.96-.945 2.08-.7 1.232-.7 26.59 0 26.376 18.93 48.386 44 53.07z" fill="#fff3e4"/><path d="m314.256 343.996v-.01c-72.459-47.95-171.119-4.868-184.65 81.4-1.838 11.701-1.46 16.986-1.46 46.76 0 4.418 3.582 8 8 8h224c4.418 0 8-3.582 8-8v-28c.001-41.293-20.962-78.426-53.89-100.15z" fill="#c9edf2"/><path d="m159.887 356.197c-46.741-17.659-103.592 2.65-112.77 66.19-7.349 3.346-12.437 2.76-23.1 2.76-4.5 0-8.13-3.71-8-8.21 2.591-85.695 90.112-107.588 143.87-60.74z" fill="#f9f9f9"/><path d="m392.647 425.147c-27.459 0-23.951-.09-25.96.24-4.02-25.63-16.15-48.56-33.69-66.09 2.781-2.783 8.121-7.246 13.52-10.86 24.245 18.253 41.197 45.692 46.13 76.71z" fill="#ededed"/><path d="m308.997 340.697c-75.038-21.346-152.85 34.119-152.85 115.45v24h-20c-4.42 0-8-3.58-8-8v-28c0-93.177 101.609-150.177 180.85-103.45z" fill="#def4f7"/><path d="m314.257 343.987v.01c-8.54 28.43-34.9 49.15-66.11 49.15s-57.57-20.72-66.11-49.15v-.01c39.225-25.958 91.499-26.947 132.22 0z" fill="#ffebd2"/><path d="m308.987 340.697c-39.585-11.261-83.118-1.519-114.17 27.24-8.832-10.743-12.78-23.188-12.78-23.95 38.239-25.305 87.704-26.433 126.95-3.29z" fill="#fff3e4"/><path d="m366.356 267.517c3.27 2.23 1.73 7.32-2.22 7.32h-15c3.95 0 5.49-5.09 2.22-7.32-9.82-6.69-15.84-17.42-15.84-30.32v-38.66c0-44.663-32.423-81.757-75.014-89.028-9.971-1.702-17.061-1.409-.306-1.292 49.88 0 90.32 40.44 90.32 90.32v38.66c.001 12.9 6.021 23.63 15.84 30.32z" fill="#fadf5a"/><path d="m310.256 123.347c-9.4-3.32-19.52-5.13-30.06-5.13h-27.88c-47.795 0-86.54 38.745-86.54 86.54v42.44c0 11.3-4.02 20.92-11.54 27.64h-21.2c-3.94 0-5.49-5.07-2.24-7.31 9.73-6.69 14.98-17.42 14.98-30.33v-42.44c0-47.795 38.745-86.54 86.54-86.54 29.274 0 51.362-2.602 77.94 15.13z" fill="#ffec8f"/><path d="m302.546 191.31c-5.681-.14-25.716 7.143-57.224 1.487-25.568-4.59-41.095-14.886-44.791-16.5-6.558-2.86-14.48-1.023-19.061 4.929-4.314 5.633-3.325 7.335-3.325 46.157 0 38.598 31.402 70 70 70s70-31.402 70-70c0-28.482-.004-17.607-.004-20.177-.056-8.633-6.96-15.686-15.595-15.896zm-54.399 74.073c-20.953 0-38-17.047-38-38v-11.25c23.57 8.911 49.498 12.636 76 9.919 0 24.097-18.394 39.331-38 39.331zm-156 9.449c0-8.836 7.163-16 16-16 11.93 0 21.635-9.705 21.635-21.635v-38.661c0-58.626 47.696-106.323 106.322-106.323h24.086c58.626 0 106.322 47.696 106.322 106.323v38.661c0 11.929 9.705 21.635 21.635 21.635 8.837 0 16 7.164 16 16s-7.163 16-16 16c-29.574 0-53.635-24.06-53.635-53.635v-38.661c0-40.982-33.341-74.323-74.322-74.323h-24.086c-40.981 0-74.322 33.341-74.322 74.323v38.661c0 29.574-24.061 53.635-53.635 53.635-8.837 0-16-7.164-16-16zm364.432 59.39c-34.464-25.151-84.703-24.402-123.272 3.972-49.752-40.067-120.54-40.089-170.32 0-38.647-28.432-88.88-29.072-123.272-3.972-44.009 32.118-39.716 89.818-39.512 92.259.694 8.29 7.625 14.666 15.944 14.666 18.66 0 33.307 1.983 48.779-11.361 15.307 13.128 29.812 11.361 47.259 11.361-.053 2.412-.038-.444-.038 39 0 8.837 7.163 16 16 16s16-7.163 16-16v-36c0-29.409 12.273-56.003 31.963-74.938 33.405 53.244 110.696 53.2 144.074 0 19.69 18.935 31.963 45.529 31.963 74.937v36c0 8.837 7.163 16 16 16s16-7.163 16-16c0-39.862.014-36.59-.038-39 17.005 0 31.763 1.929 47.259-11.361 15.289 13.186 29.617 11.361 48.779 11.361 8.319 0 15.25-6.375 15.944-14.666.204-2.439 4.497-60.139-39.512-92.258zm-361.142 74.925c-5.118 0-9.951-2.716-12.613-7.088l-5.01-8.231c-7.335-12.053-25.595-9.345-29.148 4.28-1.696 6.5-7.571 11.039-14.288 11.039h-1.724c7.431-62.421 67.091-74.273 107.642-47.746-10.781 14.019-18.894 30.188-23.574 47.746zm106.907-58.354c28.81-14.193 62.756-14.212 91.605 0-20.529 34.999-71.001 35.122-91.605 0zm259.572 58.354c-6.717 0-12.592-4.539-14.288-11.039-3.559-13.646-21.824-16.315-29.148-4.28l-5.01 8.23c-2.662 4.372-7.495 7.089-12.613 7.089h-21.284c-4.68-17.558-12.793-33.727-23.574-47.746 40.519-26.506 100.205-14.72 107.641 47.746zm-213.769-324c46.592 0 101-11.131 101-42.5s-54.408-42.5-101-42.5-101 11.131-101 42.5 54.408 42.5 101 42.5zm64.576-42.5c-29.442 13.961-99.678 13.976-129.152 0 29.442-13.961 99.677-13.976 129.152 0z"/></svg>