<svg id="Layer_1" enable-background="new 0 0 496 496" height="512" viewBox="0 0 496 496" width="512" xmlns="http://www.w3.org/2000/svg"><path d="m314 395h-46.17c28.77 0 51.6-24.21 49.92-52.93l-5.52-94c-1.55-26.43-23.44-47.07-49.91-47.07h8.18c13.53 0 24.5-10.97 24.5-24.5 0-40.359 0-22.301 0-31 0-13.53-10.97-24.5-24.5-24.5-28.312 0-16.681 0-45 0-13.53 0-24.5 10.97-24.5 24.5v31c0 13.53 10.97 24.5 24.5 24.5h8.18c-26.47 0-48.36 20.64-49.91 47.07l-5.52 94c-1.68 28.72 21.15 52.93 49.92 52.93h-46.17c-17.67 0-32 14.33-32 32v21c0 17.67 14.33 32 32 32h132c17.67 0 32-14.33 32-32 0-8.392 0-13.732 0-21 0-17.67-14.33-32-32-32z" fill="#ffe773"/><path d="m346 448c0 17.67-14.33 32-32 32h-132c-17.67 0-32-14.33-32-32 0-8.392 0-13.732 0-21 0-17.67 14.33-32 32-32h132c17.67 0 32 14.33 32 32z" fill="#fe4f60"/><path d="m306.23 227.08c-13.787-7.513-22.653-6.08-52.55-6.08-26.47 0-48.36 20.64-49.91 47.07l-5.52 94c-.57 9.72 1.67 18.93 6 26.85-16.4-8.95-27.17-26.8-26-46.85l5.52-94c1.55-26.43 23.44-47.07 49.91-47.07h28.64c18.86 0 35.4 10.48 43.91 26.08z" fill="#ffec8f"/><path d="m295 176.5c0 13.53-10.97 24.5-24.5 24.5-34.686 0-29.693 0-45 0-13.53 0-24.5-10.97-24.5-24.5 0-40.359 0-22.301 0-31 0-13.53 10.97-24.5 24.5-24.5h45c13.53 0 24.5 10.97 24.5 24.5z" fill="#fe929f"/><path d="m344.31 416.69c-6.961-2.342 1.133-1.69-142.31-1.69-17.67 0-32 14.33-32 32 0 22.601-.44 24.978 1.69 31.31-12.61-4.29-21.69-16.24-21.69-30.31v-21c0-17.67 14.33-32 32-32h132c14.07 0 26.02 9.08 30.31 21.69z" fill="#ff6d7a"/><path d="m293.61 137.39c-5.174-1.854-4.353-1.39-53.11-1.39-13.53 0-24.5 10.97-24.5 24.5 0 33.889-.415 34.072 1.39 39.11-9.55-3.34-16.39-12.42-16.39-23.11v-31c0-13.53 10.97-24.5 24.5-24.5h45c10.69 0 19.77 6.84 23.11 16.39z" fill="#ffa4b8"/><path d="m408.624 400.488-20.958-222c-2.341-24.792-22.884-43.488-47.787-43.488h-30.267c-1.658-6.169-4.738-11.759-8.869-16.397 6.416-8.163 10.257-18.439 10.257-29.603v-41c0-26.468-21.532-48-48-48h-30c-26.468 0-48 21.532-48 48v41c0 11.164 3.841 21.44 10.257 29.603-4.13 4.639-7.211 10.229-8.869 16.397h-30.267c-24.902 0-45.446 18.696-47.787 43.488l-20.959 222c-2.613 27.699 18.867 51.954 46.883 52.488 2.498 24.138 22.955 43.024 47.742 43.024h132c24.788 0 45.245-18.886 47.742-43.024 27.986-.533 49.5-24.762 46.882-52.488zm-140.793-21.488h-39.662c-19.553 0-35.092-16.407-33.941-35.991l5.515-94c1.053-17.948 15.962-32.009 33.942-32.009h28.631c17.979 0 32.889 14.061 33.942 32.009l5.515 94c1.146 19.519-14.323 35.991-33.942 35.991zm-42.331-194c-4.687 0-8.5-3.813-8.5-8.5v-31c0-4.687 3.813-8.5 8.5-8.5h45c4.687 0 8.5 3.813 8.5 8.5v31c0 4.687-3.813 8.5-8.5 8.5-15.026 0-30.046 0-45 0zm-8.5-137c0-8.822 7.178-16 16-16h30c8.822 0 16 7.178 16 16v41c0 8.485-6.644 15.429-15 15.949v-12.949c0-8.837-7.163-16-16-16s-16 7.163-16 16v12.949c-8.356-.521-15-7.464-15-15.949zm-97.766 355.496 20.958-222c.78-8.264 7.629-14.496 15.93-14.496h28.878c0 10.681-.977 20.812 7.292 32.643-14.017 11.311-23.365 28.243-24.495 47.491l-5.515 94c-.805 13.715 2.764 27.337 9.958 38.866-19.874 4.122-35.274 20.57-37.847 40.961-9.141-.425-16.017-8.364-15.159-17.465zm210.766 44.504c0 8.822-7.178 16-16 16h-132c-8.822 0-16-7.178-16-16v-21c0-8.822 7.178-16 16-16h132c8.822 0 16 7.178 16 16zm31.607-27.039c-2.573-20.391-17.973-36.84-37.847-40.961 7.194-11.529 10.763-25.151 9.958-38.866l-5.515-94c-1.13-19.248-10.479-36.18-24.495-47.491 8.274-11.837 7.292-21.997 7.292-32.643h28.879c8.301 0 15.149 6.232 15.93 14.496l20.958 222c.858 9.11-6.029 17.04-15.16 17.465z"/></svg>