<svg id="Layer_1" enable-background="new 0 0 496 496" height="512" viewBox="0 0 496 496" width="512" xmlns="http://www.w3.org/2000/svg"><path d="m455.032 223.14c0-114.4-92.74-207.14-207.14-207.14s-207.14 92.74-207.14 207.14c0 62.71 27.86 118.92 71.89 156.9 0 .107.508-3.469-10.41 62.75-3.22 19.49 11.82 37.21 31.57 37.21h228.18c19.75 0 34.79-17.72 31.57-37.21-12.306-74.636-10.41-61.405-10.41-62.75 44.029-37.98 71.89-94.19 71.89-156.9z" fill="#e8f8fc"/><path d="m80.751 263.14c0 62.71 27.86 118.92 71.89 156.9 0 .102.497-3.399-9.95 59.96h-8.89c-19.75 0-34.79-17.72-31.57-37.21 10.826-65.657 10.286-62.65 10.41-62.65 0-1.112-71.89-54.124-71.89-157 0-114.4 92.74-207.14 207.14-207.14 67.4 0 127.28 32.19 165.1 82.04-34.76-26.39-78.1-42.04-125.1-42.04-114.4 0-207.14 92.74-207.14 207.14z" fill="#f1fafc"/><path d="m393.551 442.79c3.22 19.49-11.82 37.21-31.57 37.21h-228.18c-19.75 0-34.79-17.72-31.57-37.21l10.33-62.65h270.66z" fill="#fe4f60"/><path d="m286.891 446h-78c-8.837 0-16-7.163-16-16s7.163-16 16-16h78c8.837 0 16 7.163 16 16s-7.163 16-16 16z" fill="#e84857"/><path d="m158.801 480h-25c-19.75 0-34.79-17.72-31.57-37.21l10.33-62.65h25l-10.33 62.65c-3.22 19.49 11.82 37.21 31.57 37.21z" fill="#ff6d7a"/><path d="m336.981 480h25c19.75 0 34.79-17.72 31.57-37.21l-10.33-62.65h-25l10.33 62.65c3.22 19.49-11.82 37.21-31.57 37.21z" fill="#e84857"/><path d="m247.891 0c-59.604 0-115.64 23.211-157.785 65.357-89.743 89.741-86.217 234.937 5.27 320.644l-8.935 54.19c-4.821 29.245 17.765 55.809 47.362 55.809h228.177c29.639 0 52.175-26.605 47.361-55.809l-10.33-62.653c-1.274-7.728-7.955-13.397-15.787-13.397h-264.38c-39.531-36.202-62.095-87.263-62.095-140.998 0-105.397 85.746-191.143 191.142-191.143 150.734 0 241.775 167.123 161.447 293.517-4.739 7.458-2.536 17.346 4.922 22.086 7.455 4.738 17.344 2.537 22.086-4.922 93.583-147.255-11.678-342.681-188.455-342.681zm129.876 445.396c1.609 9.757-5.882 18.604-15.787 18.604h-228.177c-9.889 0-17.399-8.831-15.787-18.604l8.121-49.256h243.51zm-184.876-15.396c0-8.837 7.163-16 16-16h78c8.837 0 16 7.163 16 16s-7.163 16-16 16h-78c-8.837 0-16-7.163-16-16zm131.048-247.431 6.51-3.758c17.718 4.748 17.688 4.917 20.452 4.917 7.064 0 13.529-4.715 15.445-11.862 2.287-8.536-2.778-17.31-11.313-19.597l-7.174-1.922 1.862-6.949c2.287-8.535-2.778-17.309-11.314-19.596-8.53-2.284-17.308 2.779-19.596 11.314l-4.268 15.927-6.605 3.813-44.047-25.431v-7.518l11.933-11.933c6.249-6.248 6.249-16.379 0-22.627-6.248-6.248-16.379-6.248-22.627 0l-5.251 5.251-5.087-5.087c-6.248-6.248-16.379-6.248-22.627 0-6.249 6.248-6.249 16.379 0 22.627l11.659 11.659v7.627l-44.047 25.431-6.605-3.813-4.268-15.927c-2.288-8.535-11.056-13.601-19.596-11.314-8.536 2.287-13.602 11.061-11.314 19.596l1.862 6.949-7.174 1.922c-8.535 2.287-13.601 11.061-11.313 19.597 1.916 7.148 8.38 11.862 15.445 11.862 2.762 0 2.71-.163 20.452-4.917l6.51 3.758v50.862l-6.605 3.813-15.928-4.268c-8.53-2.284-17.309 2.779-19.596 11.314s2.778 17.309 11.314 19.596l6.948 1.861-1.922 7.173c-2.287 8.536 2.778 17.31 11.313 19.597 8.551 2.287 17.312-2.789 19.597-11.313l4.368-16.302 6.51-3.759 44.047 25.431v7.627l-11.659 11.659c-6.249 6.248-6.249 16.379 0 22.627 6.248 6.248 16.379 6.248 22.627 0l5.087-5.087 5.251 5.251c6.249 6.249 16.379 6.248 22.627 0 6.249-6.248 6.249-16.379 0-22.627l-11.933-11.933v-7.518l44.047-25.431 6.51 3.759 4.368 16.302c2.287 8.532 11.054 13.599 19.597 11.313 8.535-2.287 13.601-11.061 11.313-19.597l-1.922-7.173 6.948-1.861c8.536-2.287 13.602-11.061 11.314-19.596s-11.057-13.601-19.596-11.314l-15.928 4.268-6.605-3.813v-50.86zm-32 32.387-12.048-6.956 12.048-6.956zm-16-41.624-12.047 6.956v-13.911zm-44.048-6.956v13.911l-12.047-6.956zm-28.047 34.668 12.047 6.956-12.048 6.956v-13.912zm16 41.624 12.047-6.956v13.911zm44.047 6.956v-13.911l12.047 6.956z"/></svg>