<svg id="Layer_1" enable-background="new 0 0 496 496" height="512" viewBox="0 0 496 496" width="512" xmlns="http://www.w3.org/2000/svg"><path d="m248 202c-25.364 0-46 20.636-46 46s20.636 46 46 46 46-20.636 46-46-20.636-46-46-46z" fill="#ffe773"/><path d="m288.95 227.05c-39.287-20.174-82.313 22.149-61.9 61.9-14.86-7.64-25.05-23.13-25.05-40.95 0-25.36 20.64-46 46-46 17.82 0 33.31 10.19 40.95 25.05z" fill="#ffec8f"/><path d="m264 335v145c0 8.837-7.163 16-16 16s-16-7.163-16-16v-145c0-8.837 7.163-16 16-16s16 7.163 16 16zm30-87c0 25.364-20.636 46-46 46s-46-20.636-46-46 20.636-46 46-46 46 20.636 46 46zm-32 0c0-7.72-6.28-14-14-14s-14 6.28-14 14 6.28 14 14 14 14-6.28 14-14zm-14-144c-8.837 0-16 7.163-16 16v28c0 8.837 7.163 16 16 16s16-7.163 16-16v-28c0-8.837-7.163-16-16-16zm-144 144c0 8.837 7.163 16 16 16h28c8.837 0 16-7.163 16-16s-7.163-16-16-16h-28c-8.837 0-16 7.163-16 16zm244-16c-8.837 0-16 7.163-16 16s7.163 16 16 16h28c8.837 0 16-7.163 16-16s-7.163-16-16-16zm-179.196-85.823c-6.248-6.248-16.379-6.248-22.627 0-6.249 6.248-6.249 16.379 0 22.627l19.799 19.799c6.249 6.249 16.379 6.248 22.627 0 6.249-6.248 6.249-16.379 0-22.627zm161.22 161.22c-6.248-6.248-16.379-6.248-22.627 0-6.249 6.248-6.249 16.379 0 22.627l19.799 19.799c6.249 6.249 16.379 6.248 22.627 0 6.249-6.248 6.249-16.379 0-22.627zm0-118.794 19.799-19.799c6.249-6.248 6.249-16.379 0-22.627-6.248-6.248-16.379-6.248-22.627 0l-19.799 19.799c-6.249 6.248-6.249 16.379 0 22.627 6.25 6.249 16.379 6.248 22.627 0zm-164.048 118.794-19.799 19.799c-10.112 10.11-2.809 27.313 11.313 27.313 4.095 0 8.189-1.563 11.313-4.687l19.799-19.799c6.249-6.248 6.249-16.379 0-22.627-6.248-6.247-16.378-6.247-22.626.001zm-101.976-43.397c8.837 0 16-7.163 16-16s-7.163-16-16-16h-8v-8c0-8.837-7.163-16-16-16s-16 7.163-16 16v8h-8c-8.837 0-16 7.163-16 16s7.163 16 16 16h8v8c0 8.837 7.163 16 16 16s16-7.163 16-16v-8zm416-32h-8v-8c0-8.837-7.163-16-16-16s-16 7.163-16 16v8h-8c-8.837 0-16 7.163-16 16s7.163 16 16 16h8v8c0 8.837 7.163 16 16 16s16-7.163 16-16v-8h8c8.837 0 16-7.163 16-16s-7.163-16-16-16zm-256-176h8v8c0 8.837 7.163 16 16 16s16-7.163 16-16v-8h8c8.837 0 16-7.163 16-16s-7.163-16-16-16h-8v-8c0-8.837-7.163-16-16-16s-16 7.163-16 16v8h-8c-8.837 0-16 7.163-16 16s7.163 16 16 16zm-147.078 60.922h8v8c0 8.837 7.163 16 16 16s16-7.163 16-16v-8h8c8.837 0 16-7.163 16-16s-7.163-16-16-16h-8v-8c0-8.837-7.163-16-16-16s-16 7.163-16 16v8h-8c-8.837 0-16 7.163-16 16s7.163 16 16 16zm294.156 0h8v8c0 8.837 7.163 16 16 16s16-7.163 16-16v-8h8c8.837 0 16-7.163 16-16s-7.163-16-16-16h-8v-8c0-8.837-7.163-16-16-16s-16 7.163-16 16v8h-8c-8.837 0-16 7.163-16 16s7.163 16 16 16zm48 262.156h-8v-8c0-8.837-7.163-16-16-16s-16 7.163-16 16v8h-8c-8.837 0-16 7.163-16 16s7.163 16 16 16h8v8c0 8.837 7.163 16 16 16s16-7.163 16-16v-8h8c8.837 0 16-7.163 16-16s-7.163-16-16-16zm-294.156 0h-8v-8c0-8.837-7.163-16-16-16s-16 7.163-16 16v8h-8c-8.837 0-16 7.163-16 16s7.163 16 16 16h8v8c0 8.837 7.163 16 16 16s16-7.163 16-16v-8h8c8.837 0 16-7.163 16-16s-7.163-16-16-16z"/></svg>