<svg id="Layer_1" enable-background="new 0 0 496.002 496.002" height="512" viewBox="0 0 496.002 496.002" width="512" xmlns="http://www.w3.org/2000/svg"><path d="m446.636 30.551c.741-7.53-5.587-13.858-13.117-13.117l-147.948 14.554c-10.084.992-14.475 13.263-7.31 20.427l12.837 12.837c-4.697 4.697-161.873 161.873-164.67 164.67-10.2 10.2-10.2 26.73 0 36.93l70.79 70.801c10.2 10.189 26.73 10.189 36.93 0 85.126-85.128-133.709 133.751 164.67-164.681l12.837 12.837c7.165 7.165 19.436 2.773 20.428-7.311z" fill="#e8f8fc"/><path d="m433.519 17.433c7.53-.741 13.858 5.587 13.117 13.117l-14.554 147.948c-.992 10.084-13.263 14.475-20.428 7.31-.4-.4-133.609-133.609-133.393-133.393-7.165-7.165-2.773-19.436 7.31-20.428z" fill="#fe4f60"/><path d="m156.427 229.922c-10.2 10.2-10.2 26.73 0 36.93 76.083 76.094 71.596 71.852 74.25 73.7-10.19 7.17-24.35 6.2-33.46-2.899l-70.79-70.801c-10.2-10.199-10.2-26.729 0-36.93 2.868-2.868 160.213-160.213 164.67-164.67l15 15c-3.714 3.715-143.077 143.078-149.67 149.67z" fill="#f1fafc"/><path d="m398.817 172.972-56.94 56.95c-5.491 0-186.716 0-215.45 0l85.42-85.42h158.5z" fill="#fe4f60"/><path d="m241.848 144.502-85.421 85.42h-30l85.421-85.42z" fill="#ff6d7a"/><path d="m348.168 92.323 84.11 84.109-.2 2.07c-.99 10.08-13.26 14.47-20.42 7.31l-133.4-133.399c-7.16-7.16-2.77-19.43 7.31-20.42l147.95-14.56c7.37-.72 13.59 5.32 13.15 12.64l-79.007 7.777c-26.89 2.646-38.599 35.367-19.493 54.473z" fill="#ff6d7a"/><path d="m446.502.079-187.754 18.468c-13.396 1.317-19.298 17.685-9.748 27.236l19.466 19.466-153.356 153.356c-16.46 16.46-16.463 43.102 0 59.563l22.55 22.551c-34.509 50.466-54.636 12.966-95.3 28.087-8.283 3.08-12.5 12.291-9.421 20.573 3.08 8.283 12.293 12.496 20.573 9.421 17.151-6.377 33.211 6.307 59.14-.256 17.932-4.54 34.006-16.26 47.934-34.899 27.66 27.661 27.642 28.158 33.345 31.596l-113.448 113.448c-6.249 6.248-6.249 16.379 0 22.627 6.249 6.249 16.378 6.248 22.627 0 7.379-7.379 288.907-288.908 295.71-295.711l19.466 19.466c9.53 9.531 25.916 3.678 27.237-9.747l18.468-187.755c.991-10.061-7.49-18.48-17.489-17.49zm-223.674 326.264c-3.946 3.934-10.357 3.932-14.299-.009l-70.792-70.793c-2.457-2.457-3.547-6.031-2.649-9.622h128.304c8.836 0 16-7.163 16-16s-7.164-16-16-16h-98.341l53.413-53.413h81.094c8.836 0 16-7.163 16-16s-7.164-16-16-16h-49.094l40.629-40.629 85.1 85.1c-12.521 12.522-148.005 148.006-153.365 153.366zm194.162-157.824c-94.348-94.35 124.067 124.078-121.437-121.438l134.685-13.248z"/></svg>