<svg id="Layer_1" enable-background="new 0 0 496 496" height="512" viewBox="0 0 496 496" width="512" xmlns="http://www.w3.org/2000/svg"><path d="m343.25 152.75c-15.73-15.73-41.23-15.72-56.95 0-.165.165-19.357 19.367-132.26 132.26-15.73 15.73-15.73 41.23 0 56.95 15.72 15.73 41.22 15.73 56.95 0 6.17-6.17 126.089-126.089 132.26-132.26 15.72-15.72 15.73-41.22 0-56.95z" fill="#ededed"/><path d="m328.78 143.46c-11.949 4.413-4.355-.823-146.74 141.55-20.829 20.829-12.873 56.141 14.47 66.24-14.29 5.3-30.99 2.2-42.47-9.29-15.73-15.72-15.73-41.22 0-56.95 101.706-101.697-8.898 8.901 132.26-132.26 11.48-11.48 28.18-14.58 42.48-9.29z" fill="#f2f2f2"/><path d="m343.25 152.75c15.73 15.73 15.72 41.23 0 56.95l-21.53 21.53c-15.72 15.72-41.22 15.72-56.95 0-15.687-15.697-15.756-41.194 0-56.95l21.53-21.53c15.72-15.72 41.22-15.73 56.95 0z" fill="#ffa4b8"/><path d="m405.437 113.19 36.223-36.223c6.249-6.248 6.249-16.379 0-22.627-6.248-6.248-16.379-6.248-22.627 0l-36.223 36.223c-6.249 6.248-6.249 16.379 0 22.627 6.249 6.25 16.378 6.249 22.627 0z"/><path d="m215.503 113.19c6.249 6.249 16.379 6.248 22.627 0 6.249-6.248 6.249-16.379 0-22.627l-36.223-36.223c-6.248-6.248-16.379-6.248-22.627 0-6.249 6.248-6.249 16.379 0 22.627z"/><path d="m405.437 257.87c-6.248-6.248-16.379-6.248-22.627 0-6.249 6.248-6.249 16.379 0 22.627l36.223 36.223c6.249 6.249 16.379 6.248 22.627 0 6.249-6.248 6.249-16.379 0-22.627z"/><path d="m310.47 79.085c8.836 0 16-7.163 16-16v-47.085c0-8.837-7.164-16-16-16s-16 7.163-16 16v47.085c0 8.837 7.163 16 16 16z"/><path d="m480 169.53h-47.084c-8.836 0-16 7.163-16 16s7.164 16 16 16h47.084c8.836 0 16-7.163 16-16s-7.164-16-16-16z"/><path d="m274.984 141.438c-6.161 6.161-126.078 126.077-132.26 132.259-18.01 18.011-21.223 45.286-9.665 66.617l-128.373 128.373c-6.248 6.248-6.248 16.379 0 22.627 6.25 6.249 16.379 6.249 22.627 0l128.354-128.354c21.11 11.493 48.412 8.54 66.635-9.685 3.657-3.657 124.056-124.056 132.259-132.259 21.94-21.939 21.94-57.639 0-79.578-21.938-21.939-57.638-21.939-79.577 0zm-75.309 189.21c-4.583 4.584-10.679 7.108-17.162 7.108-21.459 0-32.46-26.132-17.162-41.433l74.819-74.818c5.516 15.648 18.011 28.562 34.347 34.301zm132.26-132.258-21.516 21.516c-14.071 15.01-41.441 5.047-41.441-17.154 0-6.975 3.148-13.541 7.115-17.167l21.519-21.519c9.461-9.461 24.86-9.463 34.324 0 9.462 9.462 9.462 24.861-.001 34.324z"/></svg>