<svg id="Layer_1" enable-background="new 0 0 495.967 495.967" height="512" viewBox="0 0 495.967 495.967" width="512" xmlns="http://www.w3.org/2000/svg"><path d="m73.188 441.442c-12.81-11.8-14.95-31.24-5.01-45.54 97.554-140.353 93.062-133.774 93.14-134.21-118.575-20.93-165.814-132.116-135.19-230.32 5.22-16.76 27.2-20.92 37.94-7.03 18.65 24.12 37.75 36.86 53.29 44.16 42.259 19.838 76.226 5.6 126.945 46.165 7.268 5.813 17.977 4.065 23.164-3.662 12.045-17.945 30.471-45.412 30.512-45.473 16-22.96 43.53-35.03 71.25-31.24l8.13 1.12c28.396 3.897 53.667 23.283 62.72 53.46 6.04 21.1 18.59 39.76 36.33 52.7 4.36 3.18 2.85 10.03-2.45 11.07l-54.08 10.65c-31.306 6.143-42.732 48.043-31.56 75.75 35.38 87.727-52.603 183.004-150.87 158.08-15.38-3.9-31.59 1.98-41.01 14.77l-39.72 53.91c-12.32 16.71-36.41 19.02-51.68 4.96-15.979-14.708-9.162-8.433-31.851-29.32z" fill="#e8f8fc"/><path d="m442.558 96.422c-11.76-12.33-27.67-20.6-45.2-23.01l-8.13-1.12c-27.72-3.79-55.25 8.28-71.25 31.24-.041.061-18.469 27.532-30.514 45.477-5.185 7.725-15.892 9.473-23.157 3.661-50.663-40.524-84.879-26.419-126.949-46.168-15.54-7.3-34.64-20.04-53.29-44.16-10.74-13.89-32.72-9.73-37.94 7.03-13.01 41.72-11.91 85.38 2.37 123.52-32.116-45.607-39.762-105.749-22.37-161.52 5.22-16.76 27.2-20.92 37.94-7.03 18.65 24.12 37.75 36.86 53.29 44.16 42.265 19.841 76.219 5.594 126.945 46.165 7.268 5.813 17.977 4.065 23.164-3.662 12.045-17.945 30.471-45.412 30.512-45.473 16-22.96 43.53-35.03 71.25-31.24l8.13 1.12c28.29 3.882 53.623 23.174 62.72 53.46.729 2.56 1.559 5.07 2.479 7.55z" fill="#f1fafc"/><path d="m387.798 322.012c-24.58 58.82-88.53 90.79-150.35 75.11-15.38-3.9-31.59 1.98-41.01 14.77l-39.72 53.91c-12.32 16.71-36.41 19.02-51.68 4.96-17.479-16.09-7.059-6.498-31.85-29.32-10.88-10.02-14.06-25.56-8.68-38.78 21.405 19.699 14.563 13.401 30.53 28.1 15.27 14.06 39.36 11.75 51.68-4.96l39.72-53.91c9.42-12.79 25.63-18.67 41.01-14.77 85.177 21.604 164.297-47.577 158.51-125.31 2.101 8.37 21 44.423 1.84 90.2z" fill="#d6f4fc"/><path d="m485.838 128.641c-14.451-10.536-25.239-26.224-30.404-44.259-9.885-34.379-39.696-59.859-75.893-64.816l-8.146-1.122c-35.861-4.907-69.149 12.005-86.702 38.172l-30.519 45.488c-73.689-58.877-119.853-13.07-177.445-87.548-18.594-24.047-56.787-17.109-65.879 12.058-31.803 102.03 14.634 213.28 124.031 245.29l-79.843 114.861c-14.429 20.756-11.286 49.321 7.311 66.444l31.854 29.328c22.206 20.445 57.405 17.167 75.394-7.246l39.721-53.908c5.616-7.618 15.114-11.055 24.193-8.755 110.686 28.073 210.007-79.486 169.649-179.565-7.657-18.995-.437-50.104 19.808-54.072l54.085-10.65c18.938-3.73 24.399-28.314 8.785-39.7zm-69.039 18.949c-42.073 8.245-58.151 60.649-43.317 97.439 30.804 76.392-47.795 157.964-132.111 136.579-21.752-5.507-44.443 2.653-57.813 20.79l-39.723 53.911c-6.664 9.043-19.673 10.316-27.956 2.687l-2.244-2.066 52.544-72.434c5.188-7.153 3.597-17.158-3.557-22.346-7.152-5.188-17.157-3.597-22.346 3.556l-50.344 69.401-5.907-5.439c-6.896-6.349-8.062-16.941-2.711-24.638l87.591-126.009c13.076 1.684 25.678 2.144 35.642 1.682 8.827-.41 15.65-7.898 15.24-16.725-.408-8.826-7.868-15.658-16.725-15.24-49.697 2.305-105.174-17.34-138.029-60.364 39.555 11.982 81.73 15.469 124.489 8.626 8.726-1.396 14.667-9.602 13.271-18.327s-9.603-14.667-18.327-13.27c-47.864 7.66-96.187.969-142.161-19.656-11.742-33.879-12.46-72.543-.905-109.61 1.403-4.501 7.217-5.625 10.015-2.006 16.979 21.958 36.877 38.394 59.141 48.85 38.446 18.056 63.384 9.986 99.677 28.574 21.516 11.019 40.351 27.804 55.982 49.89 5.104 7.213 15.09 8.921 22.303 3.816s8.922-15.091 3.816-22.303c-4.632-6.544-9.516-12.704-14.641-18.476l33.488-49.911c12.644-18.054 34.04-27.41 55.861-24.425l8.146 1.122c23.968 3.282 43.254 20.072 49.507 42.006 5.13 17.917 14.409 34.252 26.789 47.487zm-46.232-26.798c-8.818 1.731-17.148-4.054-18.81-12.56-1.726-8.836 4.063-17.142 12.56-18.81 8.22-1.772 17.056 3.666 18.811 12.56 1.781 8.231-3.676 17.073-12.561 18.81z"/></svg>