<svg id="Layer_1" enable-background="new 0 0 496.224 496.224" height="512" viewBox="0 0 496.224 496.224" width="512" xmlns="http://www.w3.org/2000/svg"><path d="m448.008 72c-16.267 0-381.752 0-400 0-17.67 0-32 14.33-32 32v344c0 17.67 14.33 32 32 32h328l104-104c0-6.84 0-264.565 0-272 0-17.67-14.33-32-32-32z" fill="#e8f8fc"/><path d="m479.948 102.06c-1.493-.093-399.143-.06-401.94-.06-17.67 0-32 14.33-32 32 0 2.323-.033 344.445.06 345.94-16.77-1-30.06-14.92-30.06-31.94v-344c0-17.67 14.33-32 32-32h400c17.02 0 30.94 13.29 31.94 30.06z" fill="#f1fafc"/><path d="m448.008 72c17.67 0 32 14.33 32 32v72h-464v-72c0-17.67 14.33-32 32-32z" fill="#fe4f60"/><path d="m191.318 37.69c-6.292-2.117-9.539-1.69-24.31-1.69-17.67 0-32 14.33-32 32 0 52.276-.551 51.648 1.69 58.31-12.61-4.29-21.69-16.24-21.69-30.31v-48c0-17.67 14.33-32 32-32h14c14.07 0 26.02 9.08 30.31 21.69z" fill="#ededed"/><path d="m480.008 376-104 104v-72c0-17.67 14.33-32 32-32z" fill="#c9edf2"/><path d="m479.948 102.06c-1.493-.093-399.143-.06-401.94-.06-17.67 0-32 14.33-32 32v42h-30v-72c0-17.67 14.33-32 32-32h400c17.02 0 30.94 13.29 31.94 30.06z" fill="#ff6d7a"/><path d="m381.008 96c0 17.67-14.33 32-32 32h-14c-17.67 0-32-14.33-32-32 0-6.941 0-41.028 0-48 0-17.67 14.33-32 32-32h14c17.67 0 32 14.33 32 32z" fill="#ededed"/><path d="m193.008 96c0 17.67-14.33 32-32 32h-14c-17.67 0-32-14.33-32-32 0-6.941 0-41.028 0-48 0-17.67 14.33-32 32-32h14c17.67 0 32 14.33 32 32z" fill="#ededed"/><path d="m191.318 37.69c-6.292-2.117-9.539-1.69-24.31-1.69-17.67 0-32 14.33-32 32 0 52.276-.551 51.648 1.69 58.31-12.61-4.29-21.69-16.24-21.69-30.31v-48c0-17.67 14.33-32 32-32h14c14.07 0 26.02 9.08 30.31 21.69z" fill="#f7f7f7"/><path d="m379.318 37.69c-6.292-2.117-9.539-1.69-24.31-1.69-17.67 0-32 14.33-32 32 0 52.276-.551 51.648 1.69 58.31-12.61-4.29-21.69-16.24-21.69-30.31v-48c0-17.67 14.33-32 32-32h14c14.07 0 26.02 9.08 30.31 21.69z" fill="#f7f7f7"/><path d="m312.318 355.8c-33.655-48.36-31.22-44.762-31.28-45.15 3.38-.48 6.63-1.02 9.74-1.6 10.01-1.87 14.76-13.42 8.95-21.77l-39.65-56.97c-5.85-8.41-18.29-8.41-24.14 0l-39.65 56.97c-5.81 8.35-1.06 19.9 8.95 21.77 10.514 1.961 9.786 1.301 9.7 1.86l-31.24 44.89c-7.49 10.76-1.32 25.63 11.58 28 34.888 6.395 70.521 6.405 105.46 0 12.9-2.37 19.07-17.24 11.58-28z" fill="#cefd97"/><path d="m300.738 383.8c-34.886 6.395-70.521 6.405-105.46 0-9.02-1.66-14.75-9.42-14.82-17.63 29.28 3.807 59.721 3.232 90.28-2.37 12.9-2.37 19.07-17.24 11.58-28l-16.35-23.49c-19.754 1.522-40.247.56-60.73-3.26-8.3-1.55-12.98-9.75-11.03-17.26 22.401 2.261 44.679 1.343 66.57-2.74 10.01-1.87 14.76-13.42 8.95-21.77l-28.84-41.44c6.29-3.49 14.69-2 19.19 4.47l39.65 56.97c5.81 8.35 1.06 19.9-8.95 21.77-3.11.58-6.36 1.12-9.74 1.6.06.391-2.361-3.19 31.28 45.15 7.49 10.76 1.32 25.63-11.58 28z" fill="#b5f26d"/><path d="m325.446 346.659-19.11-27.459c12.66-9.574 15.868-27.637 6.525-41.06l-39.647-56.972c-12.207-17.539-38.208-17.538-50.412 0l-39.647 56.971c-9.3 13.363-6.193 31.442 6.525 41.06l-19.11 27.459c-14.123 20.294-2.529 48.4 21.818 52.874 13.062 2.4 26.332 3.939 39.62 4.634v26.834c0 8.836 7.164 16 16 16 8.837 0 16-7.164 16-16v-26.834c13.288-.694 26.558-2.234 39.618-4.634 24.324-4.469 35.961-32.554 21.82-52.873zm-77.438-105.69 36.808 52.891c-24.28 4.174-49.334 4.174-73.615 0zm49.836 127.09c-32.594 5.989-66.377 6.118-99.673 0-1.474-.27-2.192-1.889-1.335-3.121l25.913-37.236c17.025 1.735 33.468 1.738 50.517 0l25.915 37.237c.861 1.237.128 2.849-1.337 3.12zm198.164-264.059c0-26.467-21.532-48-48-48h-51v-8c0-26.467-21.532-48-48-48h-14c-26.468 0-48 21.533-48 48v8h-78v-8c0-26.467-21.533-48-48-48h-14c-26.467 0-48 21.533-48 48v8h-51c-26.467 0-48 21.533-48 48v344c0 26.467 21.533 48 48 48 353.31 0 331.804 1.574 338.143-3.628 1.1-.903 105.408-105.257 106.106-106.088 5.29-6.292 3.751 10.111 3.751-282.284zm-177-56c0-8.822 7.178-16 16-16h14c8.822 0 16 7.178 16 16v48c0 8.822-7.178 16-16 16h-14c-8.822 0-16-7.178-16-16zm-188 0c0-8.822 7.178-16 16-16h14c8.822 0 16 7.178 16 16v48c0 8.822-7.178 16-16 16h-14c-8.822 0-16-7.178-16-16zm-99 400v-256h400c8.837 0 16-7.164 16-16s-7.163-16-16-16h-400v-56c0-8.822 7.178-16 16-16h51v8c0 26.467 21.533 48 48 48h14c26.467 0 48-21.533 48-48v-8h78v8c0 26.467 21.532 48 48 48h14c26.468 0 48-21.533 48-48v-8h51c8.822 0 16 7.178 16 16v256h-56c-26.468 0-48 21.533-48 48v56h-312c-8.823 0-16-7.178-16-16zm360-6.627v-33.373c0-8.822 7.178-16 16-16h33.373z"/></svg>