<svg id="Layer_1" enable-background="new 0 0 496 496" height="512" viewBox="0 0 496 496" width="512" xmlns="http://www.w3.org/2000/svg"><path d="m339 288.5v175.5c0 8.84-7.16 16-16 16h-150c-8.84 0-16-7.16-16-16v-175.5c0-41.03 22.9-62.79 37.02-78.99 15.46-17.74 23.98-40.47 23.98-64.01v-66.5h-3c-8.84 0-16-7.16-16-16v-31c0-8.84 7.16-16 16-16h66c8.84 0 16 7.16 16 16v31c0 8.84-7.16 16-16 16h-3v66.5c0 41.07 22.9 62.75 37.02 78.99 15.46 17.74 23.98 40.47 23.98 64.01z" fill="#b5f26d"/><path d="m339 288.5v175.5c0 8.84-7.16 16-16 16h-15c8.84 0 16-7.16 16-16v-175.5c0-23.54-8.52-46.27-23.98-64.01-14.12-16.24-37.02-37.92-37.02-78.99v-66.5h3c8.84 0 16-7.16 16-16v-31c0-8.84-7.16-16-16-16h15c8.84 0 16 7.16 16 16v31c0 8.84-7.16 16-16 16h-3v66.5c0 41.07 22.9 62.75 37.02 78.99 15.46 17.74 23.98 40.47 23.98 64.01z" fill="#aaef68"/><path d="m248 79v66.5c0 23.54-8.52 46.27-23.98 64.01-14.12 16.2-37.02 37.96-37.02 78.99v175.5c0 8.84 7.16 16 16 16h-30c-8.84 0-16-7.16-16-16v-175.5c0-41.03 22.9-62.79 37.02-78.99 15.46-17.74 23.98-40.47 23.98-64.01v-66.5h-3c-8.84 0-16-7.16-16-16v-31c0-8.84 7.16-16 16-16h30c-8.84 0-16 7.16-16 16v31c0 8.84 7.16 16 16 16z" fill="#cefd97"/><path d="m157 324.5h182v100h-182z" fill="#ffe773"/><path d="m297 32v31c0 8.837-7.163 16-16 16h-66c-8.837 0-16-7.163-16-16v-31c0-8.837 7.163-16 16-16h66c8.837 0 16 7.163 16 16z" fill="#ffaa64"/><path d="m157 324.5h30v100h-30z" fill="#ffec8f"/><path d="m245 79h-30c-8.84 0-16-7.16-16-16v-31c0-8.84 7.16-16 16-16h30c-8.84 0-16 7.16-16 16v31c0 8.84 7.16 16 16 16z" fill="#ffbd7b"/><path d="m324 324.5h15v100h-15z" fill="#ffe166"/><path d="m297 32v31c0 8.84-7.16 16-16 16h-15c8.84 0 16-7.16 16-16v-31c0-8.84-7.16-16-16-16h15c8.84 0 16 7.16 16 16z" fill="#ff9d4d"/><path d="m314.039 199.002c-12.923-14.828-20.039-33.828-20.039-53.497v-50.505h3c8.837 0 16-7.164 16-16v-63c0-8.836-7.163-16-16-16h-98c-8.837 0-16 7.164-16 16v63c0 8.836 7.163 16 16 16h3v50.505c0 34.534-19.063 52.377-33.086 68.469-18.001 20.656-27.914 47.122-27.914 74.521v191.505c0 8.836 7.163 16 16 16h182c8.837 0 16-7.164 16-16v-191.505c0-46.997-26.088-72.425-40.961-89.493zm-99.039-167.002h66v31c-7.362 0-58.631 0-66 0zm47 63v50.505c0 24.288 7.795 47.838 22.102 67.262l-19.06 12.679c-10.58-5.925-23.486-5.936-34.087.001l-19.059-12.678c14.309-19.425 22.104-42.976 22.104-67.264v-50.505zm61 369h-150v-23.5h110c8.837 0 16-7.164 16-16s-7.163-16-16-16h-110v-68h110c8.837 0 16-7.164 16-16s-7.163-16-16-16h-110c0-21.859-2.411-45.768 18.077-71.146l22.147 14.731c-2.332 20.826 14.015 38.915 34.776 38.915 20.702 0 37.11-18.026 34.775-38.916l22.146-14.732c11.674 14.459 18.079 32.497 18.079 51.143z"/></svg>