<svg height="519pt" viewBox="-35 0 519 519.53323" width="519pt" xmlns="http://www.w3.org/2000/svg"><path d="m284.386719 162.355469c-58.1875 0-105.53125-36.417969-105.53125-81.179688 0-44.757812 47.34375-81.175781 105.53125-81.175781 53.089843 0 138.082031 61.109375 147.597656 68.074219l17.875 13.101562-17.894531 13.101563c-9.496094 6.964844-94.488282 68.078125-147.578125 68.078125zm0 0" fill="#d4e157"/><path d="m308.738281 48.707031h32.472657v32.46875h-32.472657zm0 0" fill="#fff"/><path d="m146.386719 0h32.46875v81.175781h-32.46875zm0 0" fill="#9b7a5a"/><path d="m182.785156 519.535156h-40.328125c-78.402343 0-142.191406-76.339844-142.191406-170.164062 0-29.109375 6.269531-57.898438 18.121094-83.273438l69.910156-149.511718c14.902344-31.851563 43.378906-51.644532 74.324219-51.644532 30.945312 0 59.421875 19.792969 74.324218 51.644532l69.910157 149.511718c11.851562 25.359375 18.121093 54.164063 18.121093 83.257813 0 93.839843-63.789062 170.179687-142.191406 170.179687zm0 0" fill="#66bb6a"/><path d="m178.855469 435.953125v-.730469c0-7.109375 4.921875-12.808594 11.609375-15.246094 16.429687-6.023437 31.789062-24.207031 35.976562-49.191406 1.300782-7.761718 7.730469-13.605468 15.585938-13.605468h.84375c9.597656 0 17.257812 8.539062 15.765625 18.019531-6.089844 38.835937-31.449219 66.648437-59.390625 75.964843-10.046875 3.363282-20.390625-4.609374-20.390625-15.210937zm0 0" fill="#43a047"/><path d="m182.785156 487.0625h-40.328125c-73.382812 0-133.941406-66.890625-141.394531-152.386719-.359375 4.886719-.796875 9.757813-.796875 14.695313 0 93.824218 63.789063 170.164062 142.191406 170.164062h40.328125c78.402344 0 142.191406-76.339844 142.191406-170.179687 0-4.921875-.441406-9.808594-.78125-14.695313-7.46875 85.511719-68.027343 152.402344-141.410156 152.402344zm0 0" fill="#43a047"/><g fill="#fff"><path d="m97.679688 162.355469h32.46875v32.46875h-32.46875zm0 0"/><path d="m65.207031 259.765625h32.472657v32.472656h-32.472657zm0 0"/></g></svg>