<svg height="510.07129pt" viewBox="0 0 510.07129 510.07129" width="510.07129pt" xmlns="http://www.w3.org/2000/svg"><path d="m199.867188 510.070312c-94.171876 0-199.867188-45.027343-199.867188-45.027343v-66.550781h79.699219c162.917969 0 238.296875-93.054688 266.878906-246.347657 10.535156-56.507812 67.855469-56.507812 67.855469-56.507812l-38.828125-95.636719h82.007812l18.042969 96.976562c34.414062 36.3125 34.414062 62.421876 34.414062 102.875 0 171.066407-139.152343 310.21875-310.203124 310.21875zm0 0" fill="#fdd835"/><path d="m377.46875 143.457031h31.878906v31.878907h-31.878906zm0 0" fill="#fff"/><path d="m414.433594 205.175781h31.878906v31.878907h-31.878906zm0 0" fill="#fff"/><path d="m199.867188 478.191406c-94.171876 0-199.867188-45.03125-199.867188-45.03125v31.882813s105.695312 45.027343 199.867188 45.027343c171.050781 0 310.203124-139.152343 310.203124-310.21875 0-8.605468-.0625-16.480468-.398437-24.019531-4.222656 167.398438-141.417969 302.359375-309.804687 302.359375zm0 0" fill="#fbc02d"/></svg>