<svg height="521pt" viewBox="-65 0 521 521.61732" width="521pt" xmlns="http://www.w3.org/2000/svg"><path d="m261.117188 326.011719c-71.902344 0-130.402344-58.503907-130.402344-130.40625v-65.199219c0-71.902344 58.5-130.40625 130.402344-130.40625 71.902343 0 130.40625 58.503906 130.40625 130.40625v65.199219c0 71.902343-58.503907 130.40625-130.40625 130.40625zm0 0" fill="#43a047"/><path d="m261.117188 521.617188c-44.941407 0-81.503907-36.5625-81.503907-81.503907l.179688-2.410156 50.988281-339.898437h60.6875l51.152344 342.308593c0 44.941407-36.5625 81.503907-81.503906 81.503907zm0 0" fill="#b9e57a"/><path d="m130.714844 326.011719c-71.902344 0-130.40625-58.503907-130.40625-130.40625v-65.199219c0-71.902344 58.503906-130.40625 130.40625-130.40625 71.898437 0 130.402344 58.503906 130.402344 130.40625v65.199219c0 71.902343-58.503907 130.40625-130.402344 130.40625zm0 0" fill="#43a047"/><path d="m130.714844 521.617188c-44.941406 0-81.503906-36.5625-81.503906-81.503907l.179687-2.410156 50.988281-339.898437h60.6875l51.148438 342.308593c0 44.941407-36.5625 81.503907-81.5 81.503907zm0 0" fill="#b9e57a"/><path d="m195.914062 326.011719c-71.902343 0-130.402343-58.503907-130.402343-130.40625v-65.199219c0-71.902344 58.5-130.40625 130.402343-130.40625 71.902344 0 130.40625 58.503906 130.40625 130.40625v65.199219c0 71.902343-58.503906 130.40625-130.40625 130.40625zm0 0" fill="#66bb6a"/><path d="m195.914062 521.617188c-44.941406 0-81.5-36.5625-81.5-81.503907l.175782-2.410156 50.988281-339.898437h60.6875l51.152344 342.308593c0 44.941407-36.5625 81.503907-81.503907 81.503907zm0 0" fill="#d6efb6"/><g fill="#fff"><path d="m195.914062 32.601562h32.601563v32.601563h-32.601563zm0 0"/><path d="m179.613281 211.90625h32.601563v32.601562h-32.601563zm0 0"/></g></svg>