<svg height="512pt" viewBox="-64 0 512 512" width="512pt" xmlns="http://www.w3.org/2000/svg"><path d="m176 16h32v64h-32zm0 0" fill="#263238"/><path d="m272 32h-160c-8.832031 0-16-7.167969-16-16s7.167969-16 16-16h160c8.832031 0 16 7.167969 16 16s-7.167969 16-16 16zm0 0" fill="#37474f"/><path d="m192 512c-105.871094 0-192-86.128906-192-192v-64c0-105.871094 86.128906-192 192-192s192 86.128906 192 192v64c0 105.871094-86.128906 192-192 192zm0 0" fill="#dbc9a5"/><path d="m297.28125 480.480469c-8.800781 5.757812-18.082031 10.878906-27.839844 15.199219l-28-47.679688h-113.441406v-32h94.878906l-60.640625-104 27.523438-16 36.796875 62.878906 50.082031-50.238281 22.71875 22.71875-56.160156 56zm0 0" fill="#d8b880"/><path d="m144 320v32h-48v134.238281c-11.519531-6.558593-22.238281-14.398437-32-23.359375v-110.878906h-61.28125c-1.757812-10.398438-2.71875-21.121094-2.71875-32h64v-32h32v32zm0 0" fill="#d8b880"/><path d="m64 224h32v32h-32zm0 0" fill="#fff"/><path d="m218.71875 228.160156-21.4375 23.679688-34.082031-30.558594-20.960938 41.917969-28.476562-14.398438 24.796875-49.761719-84.636719-76.160156c7.359375-7.839844 15.519531-15.039062 24.15625-21.277344l44.960937 40.320313 82.402344-13.761719 5.117188 31.679688-57.117188 9.441406zm0 0" fill="#d8b880"/><path d="m331.359375 244.640625-22.71875 22.71875-20.640625-20.800781v41.441406h-32v-212.960938c11.199219 3.839844 21.921875 8.800782 32 14.722657v111.679687zm0 0" fill="#d8b880"/><path d="m320 288h32v32h-32zm0 0" fill="#fff"/></svg>