<svg height="513pt" viewBox="0 -6 513.13853 513" width="513pt" xmlns="http://www.w3.org/2000/svg"><path d="m320.710938 133.042969v144.320312c0 8.851563-7.183594 16.035157-16.035157 16.035157-8.851562 0-16.035156-7.183594-16.035156-16.035157v-144.320312h-32.070313v144.320312c0 8.851563-7.183593 16.035157-16.035156 16.035157-8.851562 0-16.035156-7.183594-16.035156-16.035157v-144.320312h-32.074219v144.320312c0 8.851563-7.183593 16.035157-16.035156 16.035157s-16.035156-7.183594-16.035156-16.035157v-144.320312h-64.140625v120.71875c0 47.449219 38.949218 89.910156 80.175781 113.371093v134.714844h128.285156v-134.714844c41.226563-23.460937 80.179688-65.921874 80.179688-113.371093v-120.71875zm0 0" fill="#dbc9a5"/><path d="m458.394531 229.257812-68.84375-68.839843 22.675781-22.675781 68.839844 68.839843c6.253906 6.253907 6.253906 16.421875 0 22.675781-6.253906 6.253907-16.417968 6.253907-22.671875 0zm0 0" fill="#9ccc65"/><path d="m497.101562 133.042969h-96.210937v-32.070313h96.210937c8.851563 0 16.035157 7.183594 16.035157 16.035156 0 8.851563-7.183594 16.035157-16.035157 16.035157zm0 0" fill="#9ccc65"/><path d="m412.226562 96.273438-22.675781-22.671876 68.84375-68.84375c6.253907-6.253906 16.417969-6.253906 22.671875 0 6.253906 6.253907 6.253906 16.421876 0 22.675782zm0 0" fill="#9ccc65"/><path d="m309.773438 224.335938c-7.328126 0-14.703126-.753907-22.046876-2.292969l-243.566406-50.722657c-25.589844-5.339843-44.160156-28.191406-44.160156-54.3125 0-26.121093 18.570312-48.972656 44.160156-54.3125l243.566406-50.734374c31.71875-6.65625 64.398438 1.3125 89.589844 21.773437 25.175782 20.480469 39.609375 50.816406 39.609375 83.273437 0 32.457032-14.433593 62.796876-39.609375 83.257813-19.371094 15.746094-43.136718 24.070313-67.542968 24.070313zm0 0" fill="#ffa000"/><g fill="#ff8f00"><path d="m320.710938 10.210938v106.796874h-32.070313v-105.191406c10.742187-2.246094 21.488281-2.726562 32.070313-1.605468zm0 0"/><path d="m224.5 117.007812h32.070312v32.070313h-32.070312zm0 0"/><path d="m192.425781 31.859375v101.183594h-32.070312v-94.609375zm0 0"/><path d="m96.214844 100.972656h32.070312v32.070313h-32.070312zm0 0"/></g><path d="m224.5 52.867188h32.070312v32.070312h-32.070312zm0 0" fill="#fff"/><path d="m352.78125 84.9375h32.074219v32.070312h-32.074219zm0 0" fill="#fff"/><path d="m377.316406 168.195312c-19.371094 15.730469-43.136718 24.070313-67.542968 24.070313-7.328126 0-14.703126-.753906-22.046876-2.296875l-243.566406-50.71875c-20.140625-4.21875-35.773437-19.324219-41.59375-38.277344-1.570312 5.132813-2.566406 10.472656-2.566406 16.035156 0 26.121094 18.570312 48.972657 44.160156 54.3125l243.566406 50.738282c7.34375 1.539062 14.71875 2.292968 22.046876 2.292968 24.390624 0 48.171874-8.339843 67.542968-24.070312 25.175782-20.476562 39.609375-50.832031 39.609375-83.273438 0-5.433593-.546875-10.757812-1.347656-16.035156-3.929687 26.25-17.300781 50.175782-38.261719 67.222656zm0 0" fill="#ff8f00"/></svg>