<svg height="518pt" viewBox="0 -36 518.04116 518" width="518pt" xmlns="http://www.w3.org/2000/svg"><path d="m445.675781 143.957031c.476563-2.871093.636719-5.578125.636719-8.449219 0-36.820312-31.71875-66.628906-68.539062-63.597656-10.363282-26.140625-38.257813-43.359375-67.425782-39.371094-11-19.765624-32.039062-32.5195308-55.3125-32.5195308-23.273437 0-44.3125 12.7539068-55.308594 32.5195308-29.332031-4.144531-57.066406 13.230469-67.425781 39.371094-36.980469-3.03125-68.542969 26.777344-68.542969 63.597656 0 2.871094.160157 5.578126.640626 8.449219-19.765626 10.996094-32.519532 32.039063-32.519532 55.308594v48.507813c0 17.53125 14.15625 31.765624 31.671875 31.878906l77.292969.492187c23.988281.160157 43.355469 19.65625 43.355469 43.644531v1.464844h141.65625c0-24.210937 19.71875-43.800781 43.929687-43.640625l76.320313.492188c17.691406.113281 32.085937-14.1875 32.085937-31.878907v-50.960937c0-23.269531-12.75-44.3125-32.515625-55.308594zm0 0" fill="#f7eab7"/><g fill="#f4db8e"><path d="m87.667969 133.914062h31.878906v31.878907h-31.878906zm0 0"/><path d="m151.027344 95.660156h31.882812v31.878906h-31.882812zm0 0"/><path d="m470.222656 191.296875h-87.667968c-3.953126 0-7.828126.367187-11.71875.621094.449218-2.820313.878906-5.640625.878906-8.589844 0-30.460937-25.3125-55.167969-55.949219-54.164063-8.511719-18.984374-27.449219-31.910156-49.269531-31.910156-29.886719 0-54.195313 24.308594-54.195313 54.195313 0 0 23.671875-30.527344 54.195313-22.316407 31.671875 8.527344 24.117187 40.4375 24.117187 40.4375l19.253907-7.074218c16.449218-6.027344 29.96875 6.085937 29.96875 20.832031 0 5.832031-2.296876 11.109375-5.976563 15.09375-30.480469 8.878906-57.609375 25.679687-78.808594 48.21875-31.988281-34-77.273437-55.34375-127.53125-55.34375h-95.097656c-.207031.207031-.335937.335937-.542969.542969v55.933594c0 17.53125 14.15625 31.765624 31.671875 31.878906l77.292969.492187c23.988281.160157 43.355469 19.65625 43.355469 43.644531v1.464844h141.65625c0-24.210937 19.71875-43.800781 43.929687-43.640625l76.320313.492188c17.691406.113281 32.085937-14.1875 32.085937-31.878907v-50.960937c-3.09375-3.089844-4.878906-4.875-7.96875-7.96875zm0 0"/></g><path d="m270.976562 446.332031h-95.640624c-61.988282 0-112.34375-50.816406-111.5625-112.980469.320312-25.695312-16.433594-48.566406-40.292969-58.117187-14.1875-5.671875-23.480469-19.398437-23.480469-34.667969v-17.390625h127.519531c79.234375 0 143.457031 64.222657 143.457031 143.457031zm0 0" fill="#7cb342"/><path d="m334.734375 446.332031h-95.636719v-79.699219c0-79.234374 64.21875-143.457031 143.457032-143.457031h135.488281v17.390625c0 15.269532-9.292969 29.011719-23.480469 34.667969l-12.816406 5.132813c-22.171875 8.863281-35.386719 30.71875-35.433594 54.59375-.113281 61.433593-50.113281 111.371093-111.578125 111.371093zm0 0" fill="#9ccc65"/><path d="m366.613281 270.996094h31.878907v31.878906h-31.878907zm0 0" fill="#fff"/><path d="m382.554688 111.597656h31.878906v31.878906h-31.878906zm0 0" fill="#fff"/><path d="m239.097656 31.898438h31.878906v31.882812h-31.878906zm0 0" fill="#fff"/></svg>