<svg height="512pt" viewBox="-69 0 512 512.00439" width="512pt" xmlns="http://www.w3.org/2000/svg"><path d="m249.699219 384.003906h-32v-96c0-89.230468-14.257813-136.71875-14.402344-137.023437l28.722656 1.871093c1.808594 3.632813 17.679688 38.175782 17.679688 135.152344zm0 0" fill="#43a047"/><path d="m355.84375 233.140625c-4.335938-.625-106.546875-15.953125-155.027344-71.746094-58.015625-66.796875-45.230468-119.484375-16.652344-144.316406 18.078126-15.714844 41.871094-20.816406 66.878907-14.335937 24.765625 6.382812 50.238281 24.015624 73.679687 50.988281 48.480469 55.824219 49.390625 159.167969 49.40625 163.554687l.066406 18.527344zm0 0" fill="#66bb6a"/><path d="m233.699219 512.003906c-44.113281 0-80-35.886718-80-80 0-35.296875 28.703125-64 64-64h32c35.296875 0 64 28.703125 64 64 0 44.113282-35.890625 80-80 80zm0 0" fill="#ef4b03"/><path d="m311.777344 417.09375c-7.871094 35.902344-39.839844 62.910156-78.078125 62.910156-8.882813 0-17.328125-1.664062-25.3125-4.351562 5.777343-13.457032 9.3125-28.097656 9.3125-43.648438 0-22.734375-7.984375-43.632812-21.25-60.09375-24.816407 8.8125-42.75 32.285156-42.75 60.09375 0 26.511719 13.167969 49.726563 33.101562 64.257813 1.265625 1.085937 2.335938 2.191406 3.96875 3.230469 12.433594 7.921874 27.152344 12.511718 42.929688 12.511718 44.109375 0 80-35.886718 80-80 0-5.152344-.769531-10.113281-1.921875-14.910156zm0 0" fill="#dd4503"/><path d="m121.699219 384.003906h-32v-96c0-82.335937 50.207031-136.6875 52.335937-138.960937l23.3125 21.90625c-.386718.445312-43.648437 47.773437-43.648437 117.054687zm0 0" fill="#43a047"/><path d="m182.578125 18.722656 19.199219 25.761719 69.921875 93.121094 25.597656-19.199219-64.640625-86.242188-22.078125-29.441406c-9.601563 2.722656-18.558594 7.523438-26.398437 14.402344-.480469.480469-1.121094.960938-1.601563 1.597656zm0 0" fill="#43a047"/><path d="m.00390625 235.796875.06249995-18.527344c.015625-4.371093.9296878-107.714843 49.4062498-163.554687 23.441406-26.957032 48.914063-44.589844 73.679688-50.972656 25.011718-6.464844 48.800781-1.378907 66.882812 14.335937 28.574219 24.832031 41.359375 77.519531-16.65625 144.316406-48.480468 55.792969-150.6875 71.121094-155.023437 71.746094zm0 0" fill="#9ccc65"/><path d="m191.617188 18.722656-19.199219 25.761719-69.917969 93.121094-25.601562-19.199219 64.640624-86.242188 22.078126-29.441406c9.601562 2.722656 18.5625 7.523438 26.402343 14.402344.480469.480469 1.117188.960938 1.597657 1.597656zm0 0" fill="#7cb342"/><path d="m105.699219 512.003906c-44.113281 0-80-35.886718-80-80 0-35.296875 28.703125-64 64-64h32c35.296875 0 64 28.703125 64 64 0 44.113282-35.890625 80-80 80zm0 0" fill="#ef4b03"/><path d="m105.699219 480.003906c-38.242188 0-70.210938-27.007812-78.066407-62.910156-1.152343 4.796875-1.933593 9.757812-1.933593 14.910156 0 44.113282 35.886719 80 80 80 44.109375 0 80-35.886718 80-80 0-5.152344-.785157-10.113281-1.9375-14.910156-7.855469 35.902344-39.824219 62.910156-78.0625 62.910156zm0 0" fill="#ef4b03"/><g fill="#fff"><path d="m57.699219 400.003906h32v32h-32zm0 0"/><path d="m249.699219 400.003906h32v32h-32zm0 0"/><path d="m25.699219 144.003906h32v32h-32zm0 0"/></g></svg>