<svg height="521pt" viewBox="-65 0 521 521.61732" width="521pt" xmlns="http://www.w3.org/2000/svg"><path d="m391.523438 260.808594c0-144.039063-87.578126-260.808594-195.609376-260.808594s-195.605468 116.769531-195.605468 260.808594c0 144.039062 87.574218 260.808594 195.605468 260.808594s195.609376-116.769532 195.609376-260.808594zm0 0" fill="#9b7a5a"/><path d="m188.757812 456.414062s8.492188-92.03125-41.746093-228.207031c-36.070313-97.800781 78.308593-163.003906 78.308593-163.003906s-29.632812 112.128906 19.496094 179.304687c63.082032 86.230469-56.058594 211.90625-56.058594 211.90625zm0 0" fill="#89674c"/><path d="m195.914062 489.015625c-103.734374 0-188.628906-108.300781-194.984374-244.507813-.246094 5.410157-.621094 10.792969-.621094 16.300782 0 143.804687 87.746094 260.808594 195.605468 260.808594 107.863282 0 195.609376-117.003907 195.609376-260.808594 0-5.507813-.375-10.890625-.621094-16.300782-6.355469 136.207032-91.25 244.507813-194.988282 244.507813zm0 0" fill="#89674c"/><g fill="#fff"><path d="m261.117188 130.40625h32.601562v32.597656h-32.601562zm0 0"/><path d="m310.019531 228.207031h32.601563v32.601563h-32.601563zm0 0"/><path d="m65.511719 163.003906h32.601562v32.601563h-32.601562zm0 0"/></g></svg>