<svg height="512pt" viewBox="0 0 512 512" width="512pt" xmlns="http://www.w3.org/2000/svg"><path d="m272 96h-32c0-35.296875-28.703125-64-64-64h-16v-32h16c52.945312 0 96 43.054688 96 96zm0 0" fill="#66bb6a"/><path d="m416 160c0-52.945312-43.054688-96-96-96-28.222656 0-54.113281 12.113281-72 32.71875-17.886719-20.605469-43.777344-32.71875-72-32.71875-52.945312 0-96 43.054688-96 96s43.054688 96 96 96c28.222656 0 54.113281-12.113281 72-32.71875 2.800781 3.214844 5.839844 6.144531 9.007812 8.941406-.609374 4.257813-1.007812 8.433594-1.007812 12.351563 0 41.601562 35.886719 75.425781 80 75.425781s80-33.824219 80-75.425781c0-13.039063-3.441406-28.316407-9.535156-43.117188 6.046875-12.578125 9.535156-26.59375 9.535156-41.457031zm0 0" fill="#b9e57a"/><path d="m256 512c-44.113281 0-80-33.824219-80-75.425781 0-41.359375 34.351562-105.148438 80-105.148438s80 63.789063 80 105.148438c0 41.601562-35.886719 75.425781-80 75.425781zm0 0" fill="#d6efb6"/><path d="m256 480c-38.574219 0-70.863281-25.871094-78.351562-60.175781-1.074219 5.824219-1.648438 11.472656-1.648438 16.75 0 41.601562 35.886719 75.425781 80 75.425781s80-33.824219 80-75.425781c0-5.277344-.574219-10.925781-1.648438-16.765625-7.488281 34.320312-39.777343 60.191406-78.351562 60.191406zm0 0" fill="#b9e57a"/><path d="m400 288c-44.113281 0-80-33.824219-80-75.425781 0-41.359375 34.351562-105.148438 80-105.148438s80 63.789063 80 105.148438c0 41.601562-35.886719 75.425781-80 75.425781zm0 0" fill="#d6efb6"/><path d="m400 256c-38.574219 0-70.863281-25.871094-78.351562-60.175781-1.074219 5.824219-1.648438 11.472656-1.648438 16.75 0 41.601562 35.886719 75.425781 80 75.425781s80-33.824219 80-75.425781c0-5.277344-.574219-10.925781-1.648438-16.765625-7.488281 34.320312-39.777343 60.191406-78.351562 60.191406zm0 0" fill="#b9e57a"/><path d="m80 384c-44.113281 0-80-33.824219-80-75.425781 0-41.359375 34.351562-105.148438 80-105.148438s80 63.789063 80 105.148438c0 41.601562-35.886719 75.425781-80 75.425781zm0 0" fill="#d6efb6"/><path d="m112 288c-44.113281 0-80-33.824219-80-75.425781 0-41.359375 34.351562-105.148438 80-105.148438s80 63.789063 80 105.148438c0 41.601562-35.886719 75.425781-80 75.425781zm0 0" fill="#d6efb6"/><path d="m112 256c-38.574219 0-70.863281-25.871094-78.351562-60.175781-1.074219 5.824219-1.648438 11.472656-1.648438 16.75 0 41.601562 35.886719 75.425781 80 75.425781s80-33.824219 80-75.425781c0-5.277344-.574219-10.925781-1.648438-16.765625-7.488281 34.320312-39.777343 60.191406-78.351562 60.191406zm0 0" fill="#b9e57a"/><path d="m80 352c-38.574219 0-70.863281-25.871094-78.351562-60.175781-1.074219 5.824219-1.648438 11.472656-1.648438 16.75 0 41.601562 35.886719 75.425781 80 75.425781s80-33.824219 80-75.425781c0-5.277344-.574219-10.925781-1.648438-16.765625-7.488281 34.320312-39.777343 60.191406-78.351562 60.191406zm0 0" fill="#b9e57a"/><path d="m160 480c-44.113281 0-80-33.824219-80-75.425781 0-41.359375 34.351562-105.148438 80-105.148438s80 63.789063 80 105.148438c0 41.601562-35.886719 75.425781-80 75.425781zm0 0" fill="#d6efb6"/><path d="m352 480c-44.113281 0-80-33.824219-80-75.425781 0-41.359375 34.351562-105.148438 80-105.148438s80 63.789063 80 105.148438c0 41.601562-35.886719 75.425781-80 75.425781zm0 0" fill="#d6efb6"/><path d="m160 448c-38.574219 0-70.863281-25.871094-78.351562-60.175781-1.074219 5.824219-1.648438 11.472656-1.648438 16.75 0 41.601562 35.886719 75.425781 80 75.425781s80-33.824219 80-75.425781c0-5.277344-.574219-10.925781-1.648438-16.765625-7.488281 34.320312-39.777343 60.191406-78.351562 60.191406zm0 0" fill="#b9e57a"/><path d="m352 448c-38.574219 0-70.863281-25.871094-78.351562-60.175781-1.074219 5.824219-1.648438 11.472656-1.648438 16.75 0 41.601562 35.886719 75.425781 80 75.425781s80-33.824219 80-75.425781c0-5.277344-.574219-10.925781-1.648438-16.765625-7.488281 34.320312-39.777343 60.191406-78.351562 60.191406zm0 0" fill="#b9e57a"/><path d="m96 0h32v32h-32zm0 0" fill="#66bb6a"/><path d="m32 0h32v32h-32zm0 0" fill="#66bb6a"/><g fill="#d6efb6"><path d="m256 416c-44.113281 0-80-33.824219-80-75.425781 0-41.359375 34.351562-105.148438 80-105.148438s80 63.789063 80 105.148438c0 41.601562-35.886719 75.425781-80 75.425781zm0 0"/><path d="m176 320c-44.113281 0-80-33.824219-80-75.425781 0-41.359375 34.351562-105.148438 80-105.148438s80 63.789063 80 105.148438c0 41.601562-35.886719 75.425781-80 75.425781zm0 0"/><path d="m432 384c-44.113281 0-80-33.824219-80-75.425781 0-41.359375 34.351562-105.148438 80-105.148438s80 63.789063 80 105.148438c0 41.601562-35.886719 75.425781-80 75.425781zm0 0"/></g><path d="m432 352c-38.574219 0-70.863281-25.871094-78.351562-60.175781-1.074219 5.824219-1.648438 11.472656-1.648438 16.75 0 41.601562 35.886719 75.425781 80 75.425781s80-33.824219 80-75.425781c0-5.277344-.574219-10.925781-1.648438-16.765625-7.488281 34.320312-39.777343 60.191406-78.351562 60.191406zm0 0" fill="#b9e57a"/><path d="m176 288c-38.574219 0-70.863281-25.871094-78.351562-60.175781-1.074219 5.824219-1.648438 11.472656-1.648438 16.75 0 41.601562 35.886719 75.425781 80 75.425781s80-33.824219 80-75.425781c0-5.277344-.574219-10.925781-1.648438-16.765625-7.488281 34.320312-39.777343 60.191406-78.351562 60.191406zm0 0" fill="#b9e57a"/><path d="m256 289.136719c-44.113281 0-80-33.824219-80-75.425781 0-38.125 57.839844-90.957032 69.425781-101.152344l8.988281-7.902344 10.128907 6.398438c20.511719 12.976562 87.457031 58.304687 87.457031 96.945312 0 42.945312-53.679688 81.136719-96 81.136719zm0 0" fill="#d6efb6"/><path d="m256 257.136719c-37.679688 0-69.152344-24.753907-77.601562-57.890625-1.519532 4.960937-2.398438 9.824218-2.398438 14.464844 0 41.601562 35.886719 75.425781 80 75.425781 42.320312 0 96-38.207031 96-81.136719 0-4.832031-1.054688-9.777344-2.929688-14.753906-11.628906 35.410156-56.542968 63.890625-93.070312 63.890625zm0 0" fill="#b9e57a"/><path d="m256 384c-38.574219 0-70.863281-25.871094-78.351562-60.175781-1.074219 5.824219-1.648438 11.472656-1.648438 16.75 0 41.601562 35.886719 75.425781 80 75.425781s80-33.824219 80-75.425781c0-5.277344-.574219-10.925781-1.648438-16.765625-7.488281 34.320312-39.777343 60.191406-78.351562 60.191406zm0 0" fill="#b9e57a"/><path d="m432 256h32v32h-32zm0 0" fill="#fff"/><path d="m400 144h32v32h-32zm0 0" fill="#fff"/><path d="m288 192h32v32h-32zm0 0" fill="#fff"/></svg>