<svg height="510pt" viewBox="-68 0 510 510.07166" width="510pt" xmlns="http://www.w3.org/2000/svg"><path d="m318.832031 510.070312h-191.277343v-79.699218c0-25.851563-21.007813-47.292969-46.832032-47.800782-45.238281-.910156-80.6874998-35.546874-80.6874998-78.855468v-13.835938c0-36.789062 23.3515628-69.589844 58.0859378-81.640625 22.808594-7.90625 37.554687-27.179687 37.554687-49.09375v-95.386719c0-17.40625 7.234375-34.269531 19.875-46.253906 12.816407-12.148437 29.503907-18.363281 47.292969-17.4062498 33.839844 1.7695318 60.347656 30.9218748 60.347656 66.3710938 0 4.796875 3.140625 7.300781 4.496094 8.160156 1.339844.863282 4.941406 2.617188 9.292969.574219l4.941406-2.328125c19.207031-9.050781 40.851563-10.105469 60.890625-2.914062 20.035156 7.1875 36.070312 21.757812 45.140625 41.011718l6.804687 14.425782-126.019531 59.4375c-3.363281 1.59375-5.546875 5.023437-5.546875 8.753906v75.726562c0 7.078125 3.652344 13.519532 9.039063 15.988282 7.203125 3.316406 15.238281 1.433593 19.972656-4.605469l35.878906-45.683594c14.902344-18.953125 41.378907-24.960937 61.527344-14.027344 12.464844 6.773438 21.3125 18.554688 24.246094 32.308594 2.914062 13.773437-.320313 28.070313-8.894531 39.230469l-6.457032 8.429687c-25.582031 33.347657-39.671875 74.839844-39.671875 116.855469zm0 0" fill="#f7e1d2"/><path d="m127.554688 286.914062h31.878906v31.882813h-31.878906zm0 0" fill="#fff"/><g fill="#efd1bd"><path d="m318.832031 414.433594v31.878906h-191.277343v-15.941406c0-5.578125-.957032-10.835938-2.710938-15.9375zm0 0"/><path d="m191.3125 350.675781v31.878907h-110.621094c-26.777344-.636719-50.050781-12.910157-64.554687-31.878907zm0 0"/><path d="m331.105469 350.675781c-3.988281 10.359375-7.015625 21.039063-8.929688 31.878907h-98.984375v-31.878907zm0 0"/><path d="m95.675781 286.914062v31.882813h-94.207031c-.953125-4.941406-1.4335938-9.882813-1.4335938-15.144531v-13.707032c0-.957031 0-2.074218.1601558-3.03125zm0 0"/><path d="m127.554688 223.15625h95.636718v31.878906h-95.636718zm0 0"/><path d="m159.433594 127.519531v31.878907h-63.757813c0-.160157 0-.160157 0-.320313v-31.558594zm0 0"/><path d="m338.4375 95.640625h-179.003906v-31.882813h63.597656c.160156.957032.160156 1.753907.160156 2.710938 0 4.78125 3.1875 7.332031 4.464844 8.128906 1.433594.957032 4.941406 2.710938 9.402344.636719l4.78125-2.390625c19.289062-9.085938 40.964844-10.039062 61.050781-2.867188 14.1875 5.101563 26.460937 14.027344 35.546875 25.664063zm0 0"/></g><path d="m223.191406 127.519531h31.878906v31.878907h-31.878906zm0 0" fill="#fff"/><path d="m47.855469 239.097656h31.878906v31.878906h-31.878906zm0 0" fill="#fff"/></svg>