<svg height="512pt" viewBox="0 -1 512.63759 512" width="512pt" xmlns="http://www.w3.org/2000/svg"><path d="m407.117188 182.875c-51.789063 32.917969-114.511719 27.304688-139.839844-12.527344-25.328125-39.832031-3.792969-99.035156 47.980468-131.949218 47.242188-30.03125 157.449219-23.734376 169.867188-22.921876l23.320312 1.53125-8.511718 21.773438c-4.511719 11.589844-45.570313 114.066406-92.816406 144.09375zm0 0" fill="#7cb342"/><path d="m355.3125 226.679688c-55.3125-.03125-100.292969-34.667969-100.277344-77.230469.03125-42.542969 45.046875-77.128907 100.355469-77.097657 50.464844.03125 131.21875 58.164063 140.253906 64.792969l16.992188 12.464844-17.007813 12.433594c-9.035156 6.617187-89.867187 64.667969-140.316406 64.636719zm0 0" fill="#9ccc65"/><path d="m191.277344 64.078125h31.878906v95.636719h-31.878906zm0 0" fill="#7cb342"/><path d="m191.277344.320312h31.878906v31.878907h-31.878906zm0 0" fill="#7cb342"/><path d="m350.675781 175.65625c0 44.015625-35.683593 79.699219-79.699219 79.699219-44.015624 0-79.699218-35.683594-79.699218-79.699219s35.683594-79.699219 79.699218-79.699219c44.015626 0 79.699219 35.683594 79.699219 79.699219zm0 0" fill="#7e57c2"/><path d="m223.15625 175.65625c0 44.015625-35.683594 79.699219-79.699219 79.699219s-79.699219-35.683594-79.699219-79.699219 35.683594-79.699219 79.699219-79.699219 79.699219 35.683594 79.699219 79.699219zm0 0" fill="#9575cd"/><path d="m159.398438 239.414062c0 44.015626-35.683594 79.699219-79.699219 79.699219s-79.699219-35.683593-79.699219-79.699219c0-44.015624 35.683594-79.699218 79.699219-79.699218s79.699219 35.683594 79.699219 79.699218zm0 0" fill="#e4def9"/><path d="m286.914062 239.414062c0 44.015626-35.679687 79.699219-79.699218 79.699219-44.015625 0-79.695313-35.683593-79.695313-79.699219 0-44.015624 35.679688-79.699218 79.695313-79.699218 44.019531 0 79.699218 35.683594 79.699218 79.699218zm0 0" fill="#cdc7ef"/><path d="m414.433594 239.414062c0 44.015626-35.683594 79.699219-79.699219 79.699219s-79.699219-35.683593-79.699219-79.699219c0-44.015624 35.683594-79.699218 79.699219-79.699218s79.699219 35.683594 79.699219 79.699218zm0 0" fill="#9575cd"/><path d="m286.914062 430.691406c0 44.015625-35.679687 79.699219-79.699218 79.699219-44.015625 0-79.695313-35.683594-79.695313-79.699219s35.679688-79.699218 79.695313-79.699218c44.019531 0 79.699218 35.683593 79.699218 79.699218zm0 0" fill="#7e57c2"/><path d="m223.15625 335.054688c0 44.015624-35.683594 79.695312-79.699219 79.695312s-79.699219-35.679688-79.699219-79.695312c0-44.019532 35.683594-79.699219 79.699219-79.699219s79.699219 35.679687 79.699219 79.699219zm0 0" fill="#9575cd"/><path d="m350.675781 335.054688c0 44.015624-35.683593 79.695312-79.699219 79.695312-44.015624 0-79.699218-35.679688-79.699218-79.695312 0-44.019532 35.683594-79.699219 79.699218-79.699219 44.015626 0 79.699219 35.679687 79.699219 79.699219zm0 0" fill="#e4def9"/><g fill="#fff"><path d="m334.734375 207.535156h31.878906v31.878906h-31.878906zm0 0"/><path d="m31.878906 207.535156h31.878906v31.878906h-31.878906zm0 0"/><path d="m255.035156 287.234375h31.878906v31.878906h-31.878906zm0 0"/></g></svg>