<svg height="519.53323pt" viewBox="0 0 519.53323 519.53323" width="519.53323pt" xmlns="http://www.w3.org/2000/svg"><path d="m519.535156 259.765625c0 143.464844-116.304687 259.769531-259.769531 259.769531s-259.765625-116.304687-259.765625-259.769531 116.300781-259.765625 259.765625-259.765625 259.769531 116.300781 259.769531 259.765625zm0 0" fill="#dbc9a5"/><path d="m487.0625 259.765625c0 125.53125-101.765625 227.296875-227.296875 227.296875s-227.292969-101.765625-227.292969-227.296875 101.761719-227.292969 227.292969-227.292969 227.296875 101.761719 227.296875 227.292969zm0 0" fill="#d6efb6"/><path d="m260.367188 422.121094h-.601563c-11.347656 0-22.695313-1.183594-33.71875-3.523438l6.738281-31.773437c8.8125 1.867187 17.890625 2.824219 26.980469 2.824219zm33.753906-3.6875-6.835938-31.738282c8.800782-1.898437 17.453125-4.757812 25.71875-8.476562l13.359375 29.582031c-10.355469 4.675781-21.203125 8.265625-32.242187 10.632813zm-100.367188-10.339844c-10.308594-4.609375-20.164062-10.324219-29.335937-16.984375l19.089843-26.25c7.339844 5.324219 15.246094 9.902344 23.492188 13.589844zm161.898438-17.386719-19.222656-26.15625c7.304687-5.375 14.078124-11.511719 20.117187-18.265625l24.191406 21.65625c-7.535156 8.429688-15.976562 16.074219-25.085937 22.765625zm-216.433594-22.292969c-7.597656-8.425781-14.320312-17.648437-19.96875-27.40625l28.085938-16.265624c4.53125 7.792968 9.902343 15.195312 15.992187 21.933593zm261.390625-27.941406-28.136719-16.171875c4.511719-7.855469 8.214844-16.203125 10.976563-24.789062l30.894531 9.953125c-3.457031 10.746094-8.085938 21.167968-13.734375 31.007812zm-295.226563-30.410156c-3.503906-10.730469-5.875-21.898438-7.078124-33.183594l32.292968-3.394531c.957032 9.011719 2.859375 17.925781 5.648438 26.496094zm315.910157-33.847656-32.308594-3.265625c.4375-4.335938.664063-8.75.664063-13.183594 0-4.738281-.242188-9.382813-.730469-13.945313l32.277343-3.492187c.617188 5.734375.925782 11.5625.925782 17.472656 0 5.519531-.292969 11.007813-.828125 16.414063zm-290.726563-29.890625-32.292968-3.328125c1.152343-11.269532 3.523437-22.453125 7.011718-33.21875l30.882813 10.019531c-2.792969 8.585937-4.675781 17.515625-5.601563 26.527344zm252.636719-27.015625c-2.824219-8.574219-6.574219-16.902344-11.152344-24.742188l28.070313-16.335937c5.699218 9.792969 10.390625 20.183593 13.914062 30.914062zm-235.996094-24.289063-28.105469-16.234375c5.652344-9.789062 12.339844-19.011718 19.921876-27.421875l24.160156 21.691407c-6.089844 6.734374-11.449219 14.140624-15.976563 21.964843zm208.804688-22.339843c-6.074219-6.703126-12.875-12.808594-20.214844-18.136719l19.0625-26.28125c9.15625 6.636719 17.644531 14.253906 25.242187 22.644531zm-172.679688-17.859376-19.191406-26.1875c9.125-6.6875 18.996094-12.417968 29.320313-17.0625l13.296874 29.613282c-8.246093 3.71875-16.136718 8.3125-23.425781 13.636718zm128.988281-13.832031c-8.328124-3.683593-17.015624-6.476562-25.832031-8.34375l6.691407-31.773437c11.023437 2.320312 21.867187 5.8125 32.257812 10.40625zm-79.8125-8.230469-6.785156-31.742187c10.988282-2.371094 22.320313-3.570313 33.703125-3.601563l.097657 32.46875c-9.125.03125-18.214844 1.007813-27.015626 2.875zm0 0" fill="#37474f"/><path d="m357.179688 259.765625c0 53.800781-43.613282 97.414063-97.414063 97.414063-53.796875 0-97.410156-43.613282-97.410156-97.414063 0-53.796875 43.613281-97.410156 97.410156-97.410156 53.800781 0 97.414063 43.613281 97.414063 97.410156zm0 0" fill="#f4db8e"/><path d="m324.707031 259.765625c0 35.867187-29.074219 64.941406-64.941406 64.941406s-64.941406-29.074219-64.941406-64.941406 29.074219-64.941406 64.941406-64.941406 64.941406 29.074219 64.941406 64.941406zm0 0" fill="#f7eab7"/><path d="m243.53125 243.53125h32.472656v32.472656h-32.472656zm0 0" fill="#fff"/></svg>