<svg height="513pt" viewBox="0 -90 513.37623 513" width="513pt" xmlns="http://www.w3.org/2000/svg"><path d="m179.984375 334.019531c-64.703125 0-129.425781-22.945312-175.296875-68.816406l-4.6875-4.671875v-49.152344h16c167.023438 0 203.136719-21.214844 263.761719-81.839844l104.765625-104.75c29.121094-29.105468 76.511718-29.121093 105.601562 0 29.117188 29.117188 29.117188 76.480469 0 105.597657l-134.832031 134.832031c-45.890625 45.875-110.59375 68.800781-175.3125 68.800781zm0 0" fill="#9ccc65"/><path d="m355.296875 233.21875c-45.871094 45.875-110.59375 67.585938-175.3125 68.816406-90.878906 1.714844-179.984375-41.503906-179.984375-41.503906l4.6875 4.6875c45.871094 45.875 110.59375 68.816406 175.296875 68.816406 64.71875 0 129.421875-22.941406 175.3125-68.816406l113.152344-113.152344-16-16zm0 0" fill="#7cb342"/><path d="m500.128906 34.707031 6.671875-6.671875c6.367188-6.367187 6.367188-16.703125 0-23.070312-6.367187-6.367188-16.703125-6.367188-23.074219 0l-7.453124 7.457031c-29.234376-17.441406-67.632813-13.839844-92.785157 11.292969l-22.097656 22.128906 107.679687 107.679688 22.113282-22.109376c26.257812-26.257812 29.183594-67.058593 8.945312-96.707031zm0 0" fill="#d6efb6"/><path d="m432 26.496094 22.628906 22.625-22.628906 22.628906-22.628906-22.628906zm0 0" fill="#fff"/></svg>