<svg height="497pt" viewBox="-5 0 497 497.89334" width="497pt" xmlns="http://www.w3.org/2000/svg"><path d="m240.488281 348.042969 31.902344-137.117188 31.035156 7.21875-31.902343 137.121094zm0 0" fill="#b9e57a"/><path d="m273.972656 222.308594 27.867188-15.480469 79.695312 143.46875-27.871094 15.480469zm0 0" fill="#b9e57a"/><path d="m207.566406 497.894531c-10.933594 0-21.421875-2.726562-30.84375-8.179687-17.261718-9.960938-28.4375-27.558594-31.480468-49.523438-2.835938-20.5 1.847656-42.621094 13.199218-62.261718 11.347656-19.636719 28.148438-34.761719 47.324219-42.542969 20.53125-8.367188 41.394531-7.476563 58.640625 2.503906 34.238281 19.765625 42.449219 69.910156 18.285156 111.785156-11.351562 19.652344-28.167968 34.765625-47.328125 42.542969-9.324219 3.792969-18.710937 5.675781-27.796875 5.675781zm0 0" fill="#9575cd"/><path d="m.988281 294.246094c-2.265625-8.511719 2.789063-17.246094 11.300781-19.507813l447.378907-119.308593c8.511719-2.265626 17.246093 2.789062 19.511719 11.300781 2.261718 8.511719-2.789063 17.246093-11.300782 19.507812l-447.382812 119.308594c-8.511719 2.265625-17.246094-2.789063-19.507813-11.300781zm0 0" fill="#d6efb6"/><path d="m435.3125 161.933594-256.582031 68.410156c9.675781 6.425781 19.765625 12.273438 30.269531 17.121094 3.890625 1.785156 7.761719 3.234375 11.636719 4.71875l202.386719-53.972656c6.039062-10.679688 10.425781-22.824219 12.289062-36.277344zm0 0" fill="#b9e57a"/><path d="m271.722656 230.441406c-14.375 0-30.875-3.394531-49.398437-11.921875-71.472657-32.949219-125.984375-119.789062-128.28125-123.453125l-12.75-20.53125 23.890625-3.652344c4.273437-.636718 105.699218-15.605468 177.1875 17.34375 64.238281 29.617188 65.609375 80.910157 57.367187 103.894532l-1.164062 2.519531c-8.605469 15.09375-31.304688 35.800781-66.851563 35.800781zm0 0" fill="#7cb342"/><path d="m336.375 219.1875c-24.929688 0-57.015625-11.078125-72.335938-52.554688-22.234374-60.316406 7.300782-145.019531 8.578126-148.605468l6.390624-18.027344 16.578126 9.5625c3.296874 1.898438 80.78125 47.101562 103.050781 107.417969 20.289062 55.023437-16.578125 88.546875-38.894531 98.589843l-2.070313.765626c-5.773437 1.671874-13.167969 2.851562-21.296875 2.851562zm0 0" fill="#9ccc65"/><path d="m192.265625 367.890625h31.878906v31.878906h-31.878906zm0 0" fill="#fff"/><path d="m307.03125 66.945312h31.878906v31.882813h-31.878906zm0 0" fill="#fff"/><path d="m282.691406 417.78125c-11.351562 19.652344-28.167968 34.761719-47.328125 42.542969-9.324219 3.792969-18.710937 5.671875-27.796875 5.671875-10.933594 0-21.421875-2.722656-30.84375-8.175782-16.273437-9.386718-26.875-25.710937-30.605468-45.9375-1.6875 9.5-2.152344 19.0625-.875 28.277344 3.027343 21.980469 14.21875 39.578125 31.480468 49.523438 9.421875 5.453125 19.910156 8.179687 30.84375 8.179687 9.085938 0 18.472656-1.882812 27.796875-5.675781 19.160157-7.796875 35.976563-22.90625 47.328125-42.542969 12.414063-21.535156 16.144532-45.191406 12.320313-65.832031-2.007813 11.445312-5.976563 22.984375-12.320313 33.96875zm0 0" fill="#7e57c2"/><path d="m424.839844 497.894531c-9.085938 0-18.472656-1.882812-27.796875-5.675781-19.175781-7.792969-35.976563-22.90625-47.328125-42.542969-11.347656-19.636719-16.035156-41.761719-13.179688-62.246093 3.027344-21.980469 14.21875-39.578126 31.480469-49.539063 17.246094-9.960937 38.113281-10.855469 58.640625-2.488281 19.160156 7.796875 35.976562 22.90625 47.328125 42.542968 24.164063 41.859376 15.953125 92.003907-18.285156 111.785157-9.4375 5.421875-19.941407 8.164062-30.859375 8.164062zm0 0" fill="#d4e157"/><path d="m455.667969 457.835938c-9.421875 5.4375-19.910157 8.179687-30.84375 8.179687-9.085938 0-18.472657-1.882813-27.796875-5.675781-19.175782-7.796875-35.976563-22.90625-47.328125-42.542969-6.230469-10.808594-10.246094-22.347656-12.320313-33.96875-.222656 1.242187-.699218 2.328125-.875 3.601563-2.855468 20.5 1.832032 42.609374 13.179688 62.246093 11.351562 19.636719 28.152344 34.765625 47.324218 42.542969 9.328126 3.792969 18.714844 5.675781 27.800782 5.675781 10.933594 0 21.421875-2.726562 30.84375-8.179687 25.265625-14.582032 36.214844-45.714844 30.605468-77.832032-3.589843 19.511719-13.949218 36.34375-30.589843 45.953126zm0 0" fill="#c0ca33"/><path d="m404.53125 365.753906h31.882812v31.878906h-31.882812zm0 0" fill="#fff"/></svg>