<svg height="512pt" viewBox="-48 0 512 512" width="512pt" xmlns="http://www.w3.org/2000/svg"><g fill="#9b7a5a"><path d="m191.992188 464h32v48h-32zm0 0"/><path d="m244.675781 475.3125 22.625-22.628906 31.996094 31.996094-22.628906 22.625zm0 0"/><path d="m116.675781 484.679688 31.992188-31.996094 22.628906 22.628906-31.996094 31.992188zm0 0"/></g><path d="m415.992188 272c0 57.121094-22.722657 110.398438-63.839844 150.078125-39.199219 37.441406-90.082032 57.921875-144 57.921875-2.882813 0-5.761719 0-8.640625-.160156-105.921875-4.320313-193.441407-90.398438-199.199219-196.160156-3.679688-67.039063 25.4375-132 77.757812-173.917969 31.679688-25.28125 49.921876-61.441407 49.921876-99.042969v-10.71875h160v9.441406c0 38.238282 18.398437 74.878906 50.558593 100.796875 49.28125 39.683594 77.441407 98.722657 77.441407 161.761719zm0 0" fill="#cdc7ef"/><path d="m207.992188 416c-79.394532 0-144-64.609375-144-144s64.605468-144 144-144v32c-61.761719 0-112 50.238281-112 112s50.238281 112 112 112zm0 0" fill="#9575cd"/><path d="m207.992188 352c-44.113282 0-80-35.886719-80-80s35.886718-80 80-80v32c-26.464844 0-48 21.535156-48 48s21.535156 48 48 48zm0 0" fill="#9575cd"/><path d="m303.992188 160h32v32h-32zm0 0" fill="#fff"/><path d="m335.992188 240h32v32h-32zm0 0" fill="#fff"/><path d="m338.550781 110.238281c-32.160156-25.917969-50.558593-62.558593-50.558593-100.796875v-9.441406h-79.839844v480c53.917968 0 104.800781-20.480469 144-57.921875 41.117187-39.679687 63.839844-92.957031 63.839844-150.078125 0-63.039062-28.160157-122.078125-77.441407-161.761719zm0 0" fill="#e4def9"/><path d="m303.992188 176h32v32h-32zm0 0" fill="#fff"/><path d="m303.992188 240h32v32h-32zm0 0" fill="#fff"/></svg>