<svg height="510pt" viewBox="-34 0 510 510.07129" width="510pt" xmlns="http://www.w3.org/2000/svg"><path d="m278.980469 223.15625c-57.128907 0-103.609375-35.753906-103.609375-79.699219 0-43.945312 46.480468-79.699219 103.609375-79.699219 52.125 0 135.566406 60 144.910156 66.835938l17.546875 12.863281-17.566406 12.863281c-9.324219 6.839844-92.765625 66.835938-144.890625 66.835938zm0 0" fill="#9ccc65"/><path d="m196.0625 95.878906c-12.925781 13.292969-20.691406 29.742188-20.691406 47.578125 0 43.945313 46.480468 79.699219 103.609375 79.699219 27.6875 0 64.15625-16.945312 93.726562-33.839844-39.644531-55.390625-103.863281-91.894531-176.644531-93.4375zm0 0" fill="#7cb342"/><path d="m382.589844 318.792969c0 105.640625-85.636719 191.277343-191.277344 191.277343s-191.2773438-85.636718-191.2773438-191.277343c0-105.636719 85.6367188-191.273438 191.2773438-191.273438s191.277344 85.636719 191.277344 191.273438zm0 0" fill="#ffa000"/><path d="m207.253906 207.214844h-31.882812v-63.757813c0-61.511719-50.050782-111.578125-111.578125-111.578125v-31.878906c79.09375 0 143.460937 64.347656 143.460937 143.457031zm0 0" fill="#dbc9a5"/><path d="m191.3125 223.15625c-17.613281 0-31.878906-14.265625-31.878906-31.878906h63.757812c0 17.613281-14.265625 31.878906-31.878906 31.878906zm0 0" fill="#ff8f00"/><path d="m191.3125 478.191406c-100.085938 0-182.320312-77.308594-190.464844-175.335937-.445312 5.277343-.8124998 10.550781-.8124998 15.9375 0 105.476562 85.8046878 191.277343 191.2773438 191.277343s191.277344-85.800781 191.277344-191.277343c0-5.386719-.367188-10.660157-.8125-15.9375-8.144532 98.027343-90.378906 175.335937-190.464844 175.335937zm0 0" fill="#ff8f00"/><g fill="#fff"><path d="m47.855469 255.035156h31.878906v31.878906h-31.878906zm0 0"/><path d="m63.792969 334.734375h31.882812v31.878906h-31.882812zm0 0"/><path d="m286.949219 270.976562h31.882812v31.878907h-31.882812zm0 0"/></g></svg>