<svg height="510.07129pt" viewBox="0 0 510.07129 510.07129" width="510.07129pt" xmlns="http://www.w3.org/2000/svg"><path d="m462.96875 196.011719c-33.585938 46.222656-89.820312 62.800781-125.382812 36.980469-35.558594-25.824219-37.152344-84.449219-3.570313-130.675782 30.636719-42.160156 128.21875-74.40625 139.25-77.945312l20.722656-6.644532.078125 21.757813c.050782 11.585937-.460937 114.367187-31.097656 156.527344zm0 0" fill="#9ccc65"/><path d="m338.75 96.640625c-1.65625 1.882813-3.332031 3.746094-4.71875 5.675781-33.582031 46.210938-31.972656 104.835938 3.570312 130.675782 35.546876 25.820312 91.796876 9.242187 125.382813-36.980469 6.375-8.769531 11.382813-20.226563 15.414063-32.882813-36.199219-37.09375-85.101563-61.609375-139.648438-66.488281zm0 0" fill="#7cb342"/><path d="m510.070312 318.792969c0 105.640625-85.636718 191.277343-191.277343 191.277343-105.636719 0-191.273438-85.636718-191.273438-191.277343 0-105.636719 85.636719-191.273438 191.273438-191.273438 105.640625 0 191.277343 85.636719 191.277343 191.273438zm0 0" fill="#ffa000"/><path d="m334.734375 207.214844h-31.878906v-63.757813c0-61.511719-50.050781-111.578125-111.578125-111.578125v-31.878906c79.09375 0 143.457031 64.347656 143.457031 143.457031zm0 0" fill="#dbc9a5"/><path d="m318.792969 223.15625c-17.613281 0-31.878907-14.265625-31.878907-31.878906h63.761719c0 17.613281-14.269531 31.878906-31.882812 31.878906zm0 0" fill="#ff8f00"/><path d="m414.433594 255.035156h31.878906v31.878906h-31.878906zm0 0" fill="#fff"/><path d="m398.492188 334.734375h31.878906v31.878906h-31.878906zm0 0" fill="#fff"/><path d="m318.792969 350.675781c0 88.03125-71.363281 159.394531-159.394531 159.394531-88.035157 0-159.398438-71.363281-159.398438-159.394531 0-88.035156 71.363281-159.398437 159.398438-159.398437 88.03125 0 159.394531 71.363281 159.394531 159.398437zm0 0" fill="#fdd835"/><path d="m318.792969 350.675781c0-5.421875-.316407-10.679687-.796875-15.941406h-120.183594l84.957031-84.957031c-6.851562-8.132813-14.34375-15.621094-22.472656-22.476563l-84.960937 84.957031v-120.183593c-5.257813-.480469-10.519532-.796875-15.9375-.796875-5.421876 0-10.679688.316406-15.941407.796875v120.183593l-84.957031-84.957031c-8.128906 6.855469-15.621094 14.34375-22.476562 22.476563l84.960937 84.957031h-120.1875c-.476563 5.261719-.796875 10.519531-.796875 15.941406 0 5.417969.320312 10.679688.796875 15.9375h120.1875l-84.960937 84.960938c6.855468 8.128906 14.347656 15.621093 22.476562 22.472656l84.957031-84.957031v120.183594c5.261719.480468 10.519531.796874 15.941407.796874 5.417968 0 10.679687-.316406 15.9375-.796874v-120.183594l84.960937 84.957031c8.128906-6.851563 15.621094-14.34375 22.472656-22.472656l-84.957031-84.960938h120.183594c.480468-5.257812.796875-10.519531.796875-15.9375zm0 0" fill="#fbc02d"/></svg>