<svg height="510pt" viewBox="0 0 510 510.07129" width="510pt" xmlns="http://www.w3.org/2000/svg"><path d="m225.503906 510.070312c-72.910156 0-145.816406-27.75-201.335937-83.269531l-24.1328128-24.132812 402.6679688-402.667969 24.132813 24.132812c111.023437 111.003907 111.023437 291.664063 0 402.667969-55.5 55.519531-128.425782 83.269531-201.332032 83.269531zm0 0" fill="#fdd835"/><path d="m187.964844 477.363281c1.691406.03125 3.363281.222657 5.054687.222657 9.148438 0 18.296875-.445313 27.414063-1.324219v-232.910157l161.851562 161.851563c4.035156-3.601563 8.179688-7.011719 12.050782-10.886719 3.890624-3.890625 7.332031-8.03125 10.933593-12.082031l-164.351562-164.371094h235.253906c.925781-10.804687 1.179687-21.644531.875-32.484375h-256.597656v-3.09375l-35.5625 35.5625h3.09375v259.515625zm0 0" fill="#fbc02d"/><g fill="#fff"><path d="m324.933594 127.644531h31.882812v31.878907h-31.882812zm0 0"/><path d="m255.070312 366.742188h31.878907v31.878906h-31.878907zm0 0"/><path d="m111.613281 382.679688h31.878907v31.878906h-31.878907zm0 0"/><path d="m398.527344 79.824219h31.882812v31.882812h-31.882812zm0 0"/><path d="m377.808594 255.164062h31.878906v31.878907h-31.878906zm0 0"/></g><path d="m426.835938 24.132812-24.132813-24.132812-.414063.414062c102.71875 111.546876 100.292969 285.703126-7.921874 393.902344-55.515626 55.519532-128.425782 83.269532-201.332032 83.269532-69.210937 0-138.246094-25.328126-192.570312-75.347657l-.4296878.429688 24.1328128 24.132812c55.519531 55.519531 128.425781 83.269531 201.335937 83.269531 72.90625 0 145.816406-27.75 201.332032-83.269531 111.023437-111.003906 111.023437-291.648437 0-402.667969zm0 0" fill="#ffa000"/></svg>