<svg height="498pt" viewBox="-89 0 498 498.304" width="498pt" xmlns="http://www.w3.org/2000/svg"><path d="m160.152344 498.304688-69.679688-38.71875c-55.710937-30.945313-90.320312-89.761719-90.320312-153.488282 0-46.914062 18.273437-90.992187 51.421875-124.144531 8.113281-8.113281 12.578125-18.914063 12.578125-30.351563v-55.601562c0-52.945312 43.054687-96 96-96 52.945312 0 96 43.054688 96 96v55.601562c0 11.453126 4.464844 22.253907 12.574218 30.351563 33.152344 33.152344 51.425782 77.246094 51.425782 124.144531 0 63.726563-34.609375 122.542969-90.320313 153.488282zm0 0" fill="#9ccc65"/><path d="m106.007812 431.617188c-45.550781-25.3125-73.855468-73.394532-73.855468-125.519532 0-38.335937 14.945312-74.386718 42.046875-101.523437 14.160156-14.175781 21.953125-32.972657 21.953125-52.972657v-55.601562c0-35.296875 28.703125-64 64-64s64 28.703125 64 64v55.601562c0 20.015626 7.792968 38.832032 21.953125 52.992188 27.117187 27.101562 42.046875 63.148438 42.046875 101.503906 0 52.125-28.304688 100.207032-73.855469 125.519532l-54.144531 30.0625zm0 0" fill="#fdd835"/><path d="m160.152344 425.070312-35.074219-19.46875c-33.199219-18.433593-57.117187-51.425781-60.476563-89.265624-2.945312-33.214844 8.496094-64.976563 31.46875-88.367188 20.144532-20.496094 32.082032-47.601562 32.082032-76.335938v-41.632812c0-24.160156 14.320312-38.398438 32-38.398438 17.679687 0 32 14.320313 32 32v48c0 28.703126 11.886718 55.824219 32 76.300782 23.023437 23.441406 34.496094 55.25 31.535156 88.496094-3.375 37.792968-27.261719 70.753906-60.429688 89.1875zm0 0" fill="#ffa000"/><path d="m144.152344 256h32v32h-32zm0 0" fill="#fff"/><path d="m144.152344 320h32v32h-32zm0 0" fill="#fff"/><path d="m69.046875 337.777344c5.152344-17.058594 14.226563-32.753906 27.023437-45.808594 20.144532-20.496094 29.410157-38.496094 32.082032-53.96875 4.113281-23.808594 14.320312-38.398438 32-38.398438 17.679687 0 29.441406 14.511719 32 32 2.464844 16.894532 11.886718 39.824219 32 60.300782 12.847656 13.074218 21.9375 28.816406 27.085937 45.890625 2.128907-6.929688 3.777344-14.03125 4.433594-21.394531 2.960937-33.230469-8.496094-65.054688-31.535156-88.496094-20.113281-20.476563-32-47.597656-32-76.300782v-48c0-17.679687-14.320313-32-32-32-17.679688 0-32 14.238282-32 38.398438v41.632812c0 28.734376-11.9375 55.839844-32.082031 76.351563-22.976563 23.390625-34.414063 55.152344-31.46875 88.367187.671874 7.375 2.335937 14.496094 4.460937 21.425782zm0 0" fill="#ff8f00"/></svg>