<svg height="512pt" viewBox="-96 0 512 512" width="512pt" xmlns="http://www.w3.org/2000/svg"><path d="m176 80h-32v-64c0-8.832031 7.167969-16 16-16s16 7.167969 16 16zm0 0" fill="#43a047"/><path d="m160 512-69.679688-38.71875c-55.710937-30.945312-90.320312-89.746094-90.320312-153.488281 0-46.898438 18.273438-90.992188 51.425781-124.144531 8.109375-8.097657 12.574219-18.878907 12.574219-30.351563v-23.601563c0-52.941406 43.054688-96 96-96s96 43.058594 96 96v23.601563c0 11.472656 4.464844 22.253906 12.574219 30.351563 33.152343 33.167968 51.425781 77.261718 51.425781 124.144531 0 63.726562-34.609375 122.542969-90.320312 153.488281zm0 0" fill="#66bb6a"/><path d="m319.054688 301.742188c-4.65625 58.242187-37.773438 110.898437-89.375 139.539062l-18.078126 10.046875c1.199219-2.191406 2.476563-4.257813 3.597657-6.59375 15.839843-32 24.800781-76.476563 24.800781-124.957031 0-45.441406-19.199219-88.640625-33.441406-120.640625v120.640625c0 53.597656-11.519532 104.480468-31.519532 129.4375l-15.039062 18.882812-15.039062-18.882812c-20-24.957032-31.839844-75.839844-31.839844-129.4375 0-38.722656 0-120.160156 0-120.160156-13.921875 31.519531-33.121094 74.71875-33.121094 120.160156 0 48.480468 8.960938 92.957031 24.800781 124.957031 1.121094 2.320313 2.398438 4.386719 3.597657 6.59375l-18.078126-10.046875c-51.601562-28.65625-84.703124-81.296875-89.375-139.539062-.609374 5.953124-.945312 11.984374-.945312 18.050781 0 63.726562 34.609375 122.542969 90.320312 153.488281l69.679688 38.71875 69.679688-38.71875c55.710937-30.945312 90.320312-89.746094 90.320312-153.488281 0-6.066407-.335938-12.097657-.945312-18.050781zm0 0" fill="#43a047"/><g fill="#fff"><path d="m176 93.695312h32v32h-32zm0 0"/><path d="m256 269.695312h32v32h-32zm0 0"/></g></svg>