<svg height="512pt" viewBox="0 0 512 512" width="512pt" xmlns="http://www.w3.org/2000/svg"><path d="m176 0h32v80h-32zm0 0" fill="#57565c"/><path d="m208 32.929688c-5.3125-.433594-10.59375-.929688-16-.929688s-10.6875.496094-16 .929688v47.070312h32zm0 0" fill="#2d2d30"/><path d="m384 288c0-123.710938-85.960938-224-192-224s-192 100.289062-192 224 85.960938 224 192 224 192-100.289062 192-224zm0 0" fill="#9575cd"/><path d="m384 288c0-62.398438-22.03125-118.863281-57.441406-159.519531-110.300782 4.976562-198.558594 96.015625-198.558594 207.519531 0 55.808594 22.289062 106.367188 58.191406 143.761719-98.574218-3.457031-178.558594-93.953125-185.503906-207.761719-.320312 5.3125-.6875 10.59375-.6875 16 0 123.519531 86.128906 224 192 224 10.878906 0 21.550781-1.054688 31.953125-3.105469.03125 0-.273437-.269531-.335937-.335937 90.832031-17.695313 160.382812-109.648438 160.382812-220.558594zm0 0" fill="#7e57c2"/><path d="m512 336c0 97.203125-78.796875 176-176 176s-176-78.796875-176-176 78.796875-176 176-176 176 78.796875 176 176zm0 0" fill="#37474f"/><path d="m480 336c0 79.527344-64.472656 144-144 144s-144-64.472656-144-144 64.472656-144 144-144 144 64.472656 144 144zm0 0" fill="#f7eab7"/><path d="m448 336c0 61.855469-50.144531 112-112 112s-112-50.144531-112-112 50.144531-112 112-112 112 50.144531 112 112zm0 0" fill="#fdd835"/><g fill="#37474f"><path d="m304 288h32v32h-32zm0 0"/><path d="m379.566406 304h32v32h-32zm0 0"/><path d="m347.566406 368h32v32h-32zm0 0"/><path d="m272 336h32v32h-32zm0 0"/></g><path d="m80 176h32v32h-32zm0 0" fill="#fff"/><path d="m48 272h32v32h-32zm0 0" fill="#fff"/><path d="m336 256c56.304688 0 102.910156 41.824219 110.71875 96 .753906-5.246094 1.28125-10.558594 1.28125-16 0-61.742188-50.238281-112-112-112s-112 50.257812-112 112c0 5.441406.527344 10.753906 1.28125 16 7.808594-54.175781 54.414062-96 110.71875-96zm0 0" fill="#fbc02d"/></svg>