<svg height="510pt" viewBox="-35 0 510 510.08723" width="510pt" xmlns="http://www.w3.org/2000/svg"><path d="m277.917969 175.335938c-57.128907 0-103.609375-35.75-103.609375-79.699219 0-43.945313 46.480468-79.695313 103.609375-79.695313 52.121093 0 135.566406 59.996094 144.90625 66.832032l17.566406 12.863281-17.566406 12.863281c-9.339844 6.839844-92.785157 66.835938-144.90625 66.835938zm0 0" fill="#9ccc65"/><path d="m174.308594 95.636719c0 43.949219 46.480468 79.699219 103.609375 79.699219 13.070312 0 28.117187-3.777344 43.464843-9.546876-2.328124-6.535156-4.574218-13.132812-6.679687-19.8125-17.992187-57.015624-65.71875-95.765624-119.671875-97.949218-12.945312 13.308594-20.722656 29.757812-20.722656 47.609375zm0 0" fill="#7cb342"/><path d="m206.1875 95.636719h-31.878906c0-35.160157-28.597656-63.757813-63.757813-63.757813h-47.820312v-31.878906h47.820312c52.742188 0 95.636719 42.894531 95.636719 95.636719zm0 0" fill="#9b7a5a"/><path d="m333.707031 79.699219h31.878907v31.878906h-31.878907zm0 0" fill="#fff"/><path d="m257.464844 510.085938c-24.035156 0-47.117188-7.9375-67.21875-23.144532-25.582032 19.367188-56.074219 26.941406-87.09375 21.34375-58.339844-10.472656-100.691406-61.957031-103.003906-125.171875-1.480469-40.25 12.53125-79.285156 38.417968-107.085937 20.496094-22.027344 43.722656-76.382813 57.621094-120.472656 14.328125-45.363282 52.136719-75.855469 94.058594-75.855469s79.730468 30.492187 94.046875 75.871093c13.898437 44.105469 37.121093 98.445313 57.621093 120.472657 25.167969 27.019531 39.59375 65.832031 39.59375 106.511719 0 70.277343-52.410156 116.453124-104.179687 125.746093-6.648437 1.195313-13.296875 1.785157-19.863281 1.785157zm0 0" fill="#f7eab7"/><path d="m110.550781 191.277344h31.878907v31.878906h-31.878907zm0 0" fill="#fff"/><path d="m238.066406 207.214844h31.878906v31.882812h-31.878906zm0 0" fill="#fff"/><path d="m249.542969 414.433594c-23.910157 0-43.355469-17.695313-43.355469-39.4375v-56.566406c0-17.375 15.300781-31.515626 34.109375-31.515626 15.082031 0 28.199219 8.925782 32.613281 22.207032l18.125 54.382812c3.746094 11.269532 1.847656 23.351563-5.214844 33.15625-8.03125 11.125-21.597656 17.773438-36.277343 17.773438zm0 0" fill="#dbc9a5"/><path d="m130.96875 414.433594c-14.679688 0-28.230469-6.648438-36.265625-17.789063-7.058594-9.804687-8.972656-21.886719-5.226563-33.15625l18.15625-54.402343c4.382813-13.246094 17.5-22.171876 32.578126-22.171876 18.8125 0 34.113281 14.140626 34.113281 31.515626v56.566406c-.015625 21.742187-19.445313 39.4375-43.355469 39.4375zm0 0" fill="#dbc9a5"/><path d="m206.1875 81.214844c-5.210938-.972656-10.535156-1.515625-15.941406-1.515625-5.402344 0-10.710938.542969-15.9375 1.515625v173.820312h31.878906zm0 0" fill="#f4db8e"/></svg>