<svg height="512pt" viewBox="0 -32 512 512" width="512pt" xmlns="http://www.w3.org/2000/svg"><path d="m312 448c-18.992188 0-37.792969-2.703125-56-8.015625-18.207031 5.3125-37.007812 8.015625-56 8.015625-110.289062 0-200-89.710938-200-200s89.710938-200 200-200c18.992188 0 37.792969 2.703125 56 8.015625 18.207031-5.3125 37.007812-8.015625 56-8.015625 110.289062 0 200 89.710938 200 200s-89.710938 200-200 200zm0 0" fill="#ffa000"/><path d="m454.449219 107.855469c-36.304688-36.894531-86.722657-59.855469-142.449219-59.855469-18.992188 0-37.792969 2.703125-56 8.015625-18.207031-5.3125-37.007812-8.015625-56-8.015625-55.777344 0-106.222656 22.992188-142.542969 59.9375 18.382813 14.910156 57.984375 42.335938 108.640625 50.015625 14.589844 55.359375 50.558594 94.351563 55.214844 99.230469l34.6875 36.242187 34.71875-36.273437c4.59375-4.832032 40.433594-43.710938 55.074219-99.230469 50.078125-7.761719 90.304687-35.425781 108.65625-50.066406zm0 0" fill="#ff8f00"/><path d="m256 247.136719-11.566406-12.082031c-1.96875-2.0625-44.65625-47.3125-51.523438-107.054688-.285156 0-.589844 0-.910156 0-67.503906 0-120.832031-50.304688-123.054688-52.433594l-12.082031-11.566406 12.082031-11.566406c2.222657-2.128906 55.550782-52.433594 123.054688-52.433594 32.929688 0 52.847656 6.753906 64 12.703125 11.152344-5.949219 31.070312-12.703125 64-12.703125 67.503906 0 120.832031 50.304688 123.054688 52.433594l12.082031 11.566406-12.082031 11.566406c-2.238282 2.128906-56.78125 52.609375-124.0625 52.433594-7.007813 60-49.488282 105.007812-51.441407 107.054688zm0 0" fill="#d4e157"/><path d="m240 64h32v32h-32zm0 0" fill="#57565c"/><path d="m312 416c-18.992188 0-37.792969-2.703125-56-8.015625-18.207031 5.3125-37.007812 8.015625-56 8.015625-104.878906 0-190.992188-81.199219-199.183594-184-.433594 5.296875-.816406 10.59375-.816406 16 0 110.289062 89.710938 200 200 200 18.992188 0 37.792969-2.703125 56-8.015625 18.207031 5.3125 37.007812 8.015625 56 8.015625 110.289062 0 200-89.710938 200-200 0-5.40625-.382812-10.703125-.816406-16-8.191406 102.800781-94.304688 184-199.183594 184zm0 0" fill="#ff8f00"/><g fill="#fff"><path d="m352 48h32v32h-32zm0 0"/><path d="m400 176h32v32h-32zm0 0"/><path d="m432 240h32v32h-32zm0 0"/></g></svg>