<svg height="512pt" viewBox="0 -33 512.00105 512" width="512pt" xmlns="http://www.w3.org/2000/svg"><path d="m302.855469 446.296875h-191.277344c-61.511719 0-111.578125-50.050781-111.578125-111.578125s50.066406-111.578125 111.578125-111.578125h191.277344zm0 0" fill="#9b7a5a"/><g fill="#89674c"><path d="m95.636719 286.898438h31.882812v31.878906h-31.882812zm0 0"/><path d="m95.636719 350.660156h31.882812v31.878906h-31.882812zm0 0"/><path d="m159.398438 350.660156h31.878906v31.878906h-31.878906zm0 0"/><path d="m159.398438 255.019531h31.878906v31.878907h-31.878906zm0 0"/><path d="m1.273438 318.777344c-.746094 5.230468-1.273438 10.523437-1.273438 15.941406 0 61.527344 50.066406 111.578125 111.578125 111.578125h191.277344v-31.878906h-191.277344c-56.09375 0-102.523437-41.652344-110.304687-95.640625zm0 0"/></g><path d="m302.855469 446.296875c-43.945313 0-79.699219-35.753906-79.699219-79.699219v-63.757812c0-43.945313 35.753906-79.699219 79.699219-79.699219 43.945312 0 79.699219 35.753906 79.699219 79.699219v63.757812c0 43.945313-35.753907 79.699219-79.699219 79.699219zm0 0" fill="#f7eab7"/><path d="m366.613281 446.296875c-43.945312 0-79.699219-35.753906-79.699219-79.699219v-63.757812c0-43.945313 35.753907-79.699219 79.699219-79.699219 43.945313 0 79.699219 35.753906 79.699219 79.699219v63.757812c0 43.945313-35.753906 79.699219-79.699219 79.699219zm0 0" fill="#f4db8e"/><path d="m433.242188 191.261719h-197.015626c-26.171874 0-50.542968-12.945313-65.226562-34.605469-14.664062-21.664062-17.597656-49.109375-7.890625-73.386719 20.230469-50.578125 68.511719-83.269531 123.007813-83.269531h97.234374c54.496094 0 102.777344 32.691406 123.003907 83.285156 9.710937 24.277344 6.777343 51.726563-7.886719 73.386719-14.683594 21.664063-39.070312 34.589844-65.226562 34.589844zm0 0" fill="#9b7a5a"/><path d="m207.214844 79.683594h31.882812v31.878906h-31.882812zm0 0" fill="#89674c"/><path d="m286.914062 31.863281h31.878907v31.878907h-31.878907zm0 0" fill="#89674c"/><path d="m334.734375 79.683594h31.878906v31.878906h-31.878906zm0 0" fill="#89674c"/><path d="m398.492188 111.5625h31.878906v31.878906h-31.878906zm0 0" fill="#89674c"/><path d="m430.371094 446.296875c-43.945313 0-79.695313-35.753906-79.695313-79.699219v-63.757812c0-43.945313 35.75-79.699219 79.695313-79.699219 43.949218 0 79.699218 35.753906 79.699218 79.699219v63.757812c0 43.945313-35.75 79.699219-79.699218 79.699219zm0 0" fill="#f7eab7"/><path d="m498.453125 124.777344c-14.683594 21.675781-39.054687 34.605468-65.226563 34.605468h-197c-26.171874 0-50.542968-12.945312-65.226562-34.605468-5.832031-8.609375-9.722656-18.15625-11.792969-28.023438-4.226562 20.578125-.222656 42.160156 11.792969 59.902344 14.683594 21.679688 39.054688 34.605469 65.226562 34.605469h197.015626c26.171874 0 50.542968-12.945313 65.226562-34.605469 12-17.742188 16-39.324219 11.792969-59.902344-2.085938 9.867188-5.976563 19.414063-11.808594 28.023438zm0 0" fill="#89674c"/><path d="m446.3125 286.898438h31.878906v31.878906h-31.878906zm0 0" fill="#fff"/><path d="m414.433594 47.804688h31.878906v31.878906h-31.878906zm0 0" fill="#fff"/><path d="m31.878906 302.839844h31.878906v31.878906h-31.878906zm0 0" fill="#fff"/></svg>