<svg height="521.61732pt" viewBox="0 0 521.61732 521.61732" width="521.61732pt" xmlns="http://www.w3.org/2000/svg"><path d="m210.277344 110.679688c-5.054688-16.953126-19.5625-59.820313-42.542969-82.804688l-27.710937-27.875h111.167968l4.890625 4.726562c31.296875 31.460938 48.25 87.859376 52.324219 102.203126l66.507812 88.675781h-228.210937zm0 0" fill="#9b7a5a"/><path d="m374.914062 521.617188h-228.210937c-80.882813 0-146.703125-65.820313-146.703125-146.703126v-65.203124c0-80.882813 65.820312-146.707032 146.703125-146.707032h228.210937c80.882813 0 146.703126 65.824219 146.703126 146.707032v65.203124c0 80.882813-65.820313 146.703126-146.703126 146.703126zm0 0" fill="#ffa000"/><path d="m309.710938 521.617188h-97.804688c-80.882812 0-146.703125-65.820313-146.703125-146.703126v-65.203124c0-80.882813 65.820313-146.707032 146.703125-146.707032h97.804688c80.882812 0 146.703124 65.824219 146.703124 146.707032v65.203124c0 80.882813-65.820312 146.703126-146.703124 146.703126zm0 0" fill="#ff8f00"/><path d="m260.808594 521.617188c-53.9375 0-97.804688-43.863282-97.804688-97.804688v-163.003906c0-53.9375 43.867188-97.804688 97.804688-97.804688s97.804687 43.867188 97.804687 97.804688v163.003906c0 53.941406-43.867187 97.804688-97.804687 97.804688zm0 0" fill="#ffa000"/><g fill="#fff"><path d="m241.167969 244.507812h32.601562v32.601563h-32.601562zm0 0"/><path d="m241.167969 326.011719h32.601562v32.601562h-32.601562zm0 0"/></g></svg>