<svg height="510pt" viewBox="-78 0 510 510.07129" width="510pt" xmlns="http://www.w3.org/2000/svg"><path d="m197.195312 225.5-38.191406-38.175781 4.574219-10.058594c3.984375-8.734375 39.464844-85.980469 59.597656-106.109375l22.539063-22.539062c12.050781-12.035157 28.054687-18.667969 45.078125-18.667969 17.023437 0 33.042969 6.632812 45.078125 18.667969 12.050781 12.035156 18.679687 28.054687 18.679687 45.078124 0 17.039063-6.628906 33.042969-18.679687 45.09375l-22.539063 22.535157c-20.085937 20.132812-97.328125 55.617187-106.078125 59.601562zm0 0" fill="#7cb342"/><path d="m157.410156 225.5-10.058594-4.574219c-8.75-3.984375-85.996093-39.46875-106.097656-59.601562l-22.535156-22.535157c-12.050781-12.035156-18.6835938-28.054687-18.6835938-45.09375 0-17.023437 6.6328128-33.027343 18.6835938-45.078124 12.03125-12.035157 28.050781-18.667969 45.074219-18.667969 17.023437 0 33.027343 6.632812 45.078125 18.667969l22.539062 22.539062c20.148438 20.128906 55.613282 97.359375 59.597656 106.109375l4.578126 10.058594zm0 0" fill="#7cb342"/><path d="m204.289062 223.15625h-53.972656l-3.875-10.34375c-3.363281-9.007812-32.898437-88.707031-32.898437-117.175781v-31.878907c0-35.160156 28.59375-63.757812 63.757812-63.757812 35.164063 0 63.757813 28.597656 63.757813 63.757812v31.878907c0 28.46875-29.535156 108.167969-32.882813 117.175781zm0 0" fill="#9ccc65"/><path d="m205.898438 510.070312h-57.191407l-5.4375-23.367187c-5.960937-25.566406-21.757812-49.253906-45.714843-68.445313-36.789063-29.503906-54.210938-76.925781-45.507813-123.789062 9.371094-50.449219 49.476563-90.917969 99.796875-100.707031 38.195312-7.425781 77.007812 2.25 106.527344 26.574219 29.535156 24.339843 46.464844 60.21875 46.464844 98.457031 0 39.960937-18.21875 76.847656-49.988282 101.203125-22.25 17.054687-36.933594 38.574218-42.464844 62.246094zm0 0" fill="#ef4b03"/><g fill="#dd4503"><path d="m254.832031 388.117188c-22.25 17.054687-36.933593 38.574218-42.464843 62.242187l-1.035157 4.480469c-3.1875 13.675781-15.382812 23.351562-29.425781 23.351562h-9.210938c-14.042968 0-26.238281-9.675781-29.425781-23.367187-5.960937-25.566407-21.757812-49.253907-45.714843-68.445313-26.21875-21.023437-42.367188-51.199218-46.464844-83.746094-5.355469 44.136719 11.828125 87.84375 46.464844 115.625 23.957031 19.207032 39.753906 42.878907 45.714843 68.445313l5.4375 23.367187h57.191407l6.46875-27.847656c5.53125-23.667968 20.214843-45.1875 42.464843-62.242187 31.769531-24.339844 49.988281-61.226563 49.988281-101.203125 0-5.339844-.414062-10.613282-1.054687-15.828125-4.191406 33.683593-21.46875 64.109375-48.933594 85.167969zm0 0"/><path d="m145.421875 255.035156v31.878906h-91.8125c2.867187-11.316406 7.332031-21.996093 13.070313-31.878906zm0 0"/><path d="m177.300781 255.035156h31.878907v31.878906h-31.878907zm0 0"/></g><path d="m113.542969 318.792969h31.878906v31.882812h-31.878906zm0 0" fill="#fff"/><path d="m177.300781 382.554688v31.878906h-84.160156c-10.519531-9.246094-19.289063-20.085938-26.140625-31.878906zm0 0" fill="#dd4503"/><path d="m304.820312 318.792969c0 11-1.277343 21.679687-3.984374 31.882812h-123.535157v-31.882812zm0 0" fill="#dd4503"/><path d="m177.300781 31.878906h31.878907v31.878906h-31.878907zm0 0" fill="#fff"/><path d="m177.300781 95.636719h31.878907v31.882812h-31.878907zm0 0" fill="#fff"/><path d="m241.058594 270.976562h31.882812v31.878907h-31.882812zm0 0" fill="#fff"/></svg>