<svg height="521pt" viewBox="0 0 521 521.61732" width="521pt" xmlns="http://www.w3.org/2000/svg"><path d="m189.769531 330.964844c-68.949219-68.949219-65.347656-165.1875 8.964844-239.484375 81.144531-81.144531 225.796875-125.109375 290.722656-60.199219 64.921875 64.910156 20.945313 209.574219-60.199219 290.71875-74.296874 74.296875-170.535156 77.902344-239.488281 8.964844zm0 0" fill="#66bb6a"/><path d="m357.894531 185.890625h85.460938v-32.601563h-52.859375l41.335937-41.335937-23.046875-23.050781-41.355468 41.339844v-52.863282h-32.601563v44.664063c-12.894531-33.839844-30.335937-65.152344-51.671875-90.535157-31.183594 15.601563-60.574219 36.105469-84.421875 59.953126-74.3125 74.316406-77.914063 170.554687-8.964844 239.488281 37.816407 37.816406 83.867188 53.660156 129.996094 48.121093 23.75-33.238281 37.671875-75.585937 38.910156-124.03125h15.519531v-32.601562h-16.449218c-.847656-10.808594-2.117188-21.632812-3.992188-32.421875zm0 0" fill="#43a047"/><path d="m163.3125 423.8125c-97.492188 0-163.003906-70.597656-163.003906-175.6875 0-114.738281 71.199218-248.125 163.003906-248.125s163.007812 133.386719 163.007812 248.125c0 105.089844-65.511718 175.6875-163.007812 175.6875zm0 0" fill="#66bb6a"/><path d="m163.3125 32.601562h32.601562v32.601563h-32.601562zm0 0" fill="#fff"/><path d="m32.910156 179.304688h32.601563v32.601562h-32.601563zm0 0" fill="#fff"/><path d="m216.992188 216.683594-37.378907 37.375v-51.703125l60.425781-60.425781-23.046874-23.050782-37.378907 37.378906v-58.453124h-32.601562v58.453124l-37.375-37.378906-23.050781 23.050782 60.425781 60.425781v51.703125l-37.375-37.375-23.050781 23.046875 60.425781 60.425781v221.460938h32.601562v-221.460938l60.425781-60.425781zm0 0" fill="#43a047"/></svg>