<svg height="510pt" viewBox="-32 0 510 510.07129" width="510pt" xmlns="http://www.w3.org/2000/svg"><g fill="#9ccc65"><path d="m256.746094 23.074219 28.511718-14.257813 47.816407 95.632813-28.511719 14.253906zm0 0"/><path d="m334.769531 0h31.878907v111.578125h-31.878907zm0 0"/><path d="m383.410156 106.542969 31.898438-95.636719 30.242187 10.085938-31.902343 95.636718zm0 0"/></g><path d="m397.605469 63.949219-14.203125 42.59375 30.238281 10.089843 15.171875-45.542968c-9.722656-4.460938-20.335938-6.882813-31.207031-7.140625zm0 0" fill="#7cb342"/><path d="m334.769531 63.757812h31.878907v47.820313h-31.878907zm0 0" fill="#7cb342"/><path d="m279.523438 68.605469 25.058593 50.097656 28.515625-14.265625-20.355468-40.679688h-7.078126c-9.023437 0-17.773437 1.914063-26.140624 4.847657zm0 0" fill="#7cb342"/><path d="m350.710938 510.070312c-35.035157 0-64.765626-27.351562-67.679688-62.277343l-25.027344-300.367188c-1.097656-13.277343 3.425782-26.539062 12.464844-36.34375 9.023438-9.816406 21.855469-15.445312 35.195312-15.445312h90.089844c13.328125 0 26.175782 5.628906 35.195313 15.445312 9.023437 9.804688 13.566406 23.066407 12.464843 36.34375l-25.023437 300.367188c-2.917969 34.925781-32.644531 62.277343-67.679687 62.277343zm0 0" fill="#ffa000"/><path d="m350.710938 478.191406c-1.851563 0-3.652344-.09375-5.46875-.207031 3.507812-9.914063 5.46875-20.5625 5.46875-31.671875v-127.519531c0-49.601563-37.953126-90.488281-86.363282-95.175781l18.683594 224.175781c2.199219 26.367187 19.84375 48.074219 43.371094 57.273437.046875.128906.144531.492188.160156.492188 7.539062 2.917968 15.683594 4.511718 24.148438 4.511718 35.035156 0 64.761718-27.351562 67.679687-62.277343l.015625-.238281c-14.746094 18.394531-39.691406 30.636718-67.695312 30.636718zm0 0" fill="#ff8f00"/><path d="m350.710938 207.214844c0 8.800781-7.140626 15.941406-15.941407 15.941406h-70.453125l-2.710937-31.878906h73.164062c8.800781 0 15.941407 7.140625 15.941407 15.9375zm0 0" fill="#ff8f00"/><path d="m431.84375 286.914062-2.710938 31.878907h-30.605468c-8.796875 0-15.9375-7.140625-15.9375-15.9375 0-8.800781 7.140625-15.941407 15.9375-15.941407zm0 0" fill="#ff8f00"/><path d="m286.949219 143.457031h31.882812v31.878907h-31.882812zm0 0" fill="#fff"/><path d="m63.792969 510.070312c-35.160157 0-63.7578128-28.59375-63.7578128-63.757812v-127.519531c0-35.160157 28.5976558-63.757813 63.7578128-63.757813 35.164062 0 63.761719 28.597656 63.761719 63.757813v127.519531c0 35.164062-28.597657 63.757812-63.761719 63.757812zm0 0" fill="#7cb342"/><path d="m255.070312 510.070312c-35.160156 0-63.757812-28.59375-63.757812-63.757812v-127.519531c0-35.160157 28.597656-63.757813 63.757812-63.757813 35.164063 0 63.761719 28.597656 63.761719 63.757813v127.519531c0 35.164062-28.597656 63.757812-63.761719 63.757812zm0 0" fill="#7cb342"/><path d="m175.371094 255.035156h-31.878906v-15.9375c0-43.949218-35.75-79.699218-79.699219-79.699218v-31.878907c61.527343 0 111.578125 50.050781 111.578125 111.578125zm0 0" fill="#66bb6a"/><path d="m159.433594 510.070312c-52.746094 0-95.640625-42.894531-95.640625-95.636718v-79.699219c0-52.746094 42.894531-95.636719 95.640625-95.636719 52.742187 0 95.636718 42.890625 95.636718 95.636719v79.699219c0 52.742187-42.894531 95.636718-95.636718 95.636718zm0 0" fill="#9ccc65"/><path d="m95.675781 302.855469h31.878907v31.878906h-31.878907zm0 0" fill="#fff"/><path d="m95.675781 366.613281h31.878907v31.878907h-31.878907zm0 0" fill="#fff"/></svg>