<svg height="510pt" viewBox="-32 0 510 510.07129" width="510pt" xmlns="http://www.w3.org/2000/svg"><path d="m239.132812 79.699219h-31.878906c0-26.363281-21.457031-47.820313-47.820312-47.820313h-15.941406v-31.878906h15.941406c43.945312 0 79.699218 35.753906 79.699218 79.699219zm0 0" fill="#d8b880"/><path d="m446.347656 286.914062c0 123.246094-99.910156 223.15625-223.15625 223.15625s-223.1562498-99.910156-223.1562498-223.15625c0-123.246093 99.9101558-223.15625 223.1562498-223.15625s223.15625 99.910157 223.15625 223.15625zm0 0" fill="#66bb6a"/><g fill="#43a047"><path d="m223.191406 478.191406c-117.667968 0-214.117187-91.605468-222.34375-207.214844-.382812 5.289063-.8124998 10.550782-.8124998 15.9375 0 123.054688 100.1015628 223.15625 223.1562498 223.15625 123.054688 0 223.15625-100.101562 223.15625-223.15625 0-5.386718-.429687-10.648437-.8125-15.9375-8.226562 115.609376-104.675781 207.214844-222.34375 207.214844zm0 0"/><path d="m223.191406 510.070312c-87.890625 0-159.398437-100.101562-159.398437-223.15625 0-123.054687 71.507812-223.15625 159.398437-223.15625s159.398438 100.101563 159.398438 223.15625c0 123.054688-71.507813 223.15625-159.398438 223.15625zm0-414.433593c-70.308594 0-127.515625 85.804687-127.515625 191.277343 0 105.472657 57.207031 191.277344 127.515625 191.277344 70.3125 0 127.519532-85.804687 127.519532-191.277344 0-105.472656-57.207032-191.277343-127.519532-191.277343zm0 0"/><path d="m223.191406 510.070312c-61.972656 0-63.757812-200.3125-63.757812-223.15625 0-22.839843 1.785156-223.15625 63.757812-223.15625s63.757813 200.316407 63.757813 223.15625c0 22.84375-1.785157 223.15625-63.757813 223.15625zm0-413.539062c-12.226562 11.414062-31.878906 79.9375-31.878906 190.382812 0 110.449219 19.652344 178.972657 31.878906 190.386719 12.226563-11.429687 31.878906-79.957031 31.878906-190.386719 0-110.429687-19.652343-178.96875-31.878906-190.382812zm0 0"/></g><path d="m334.769531 159.398438h31.878907v31.878906h-31.878907zm0 0" fill="#fff"/><path d="m366.648438 223.15625h31.878906v31.878906h-31.878906zm0 0" fill="#fff"/><path d="m63.792969 191.277344h31.882812v31.878906h-31.882812zm0 0" fill="#fff"/></svg>