<svg height="512pt" viewBox="0 -2 512.03911 512" width="512pt" xmlns="http://www.w3.org/2000/svg"><path d="m408.292969 172.910156 34.578125-34.578125 23.050781 23.054688-34.578125 34.578125zm0 0" fill="#9b7a5a"/><path d="m316.082031 80.703125 34.578125-34.578125 23.050782 23.050781-34.578126 34.578125zm0 0" fill="#9b7a5a"/><g fill="#dbc9a5"><path d="m442.882812 46.128906 46.105469-46.1015622 23.050781 23.0507812-46.105468 46.105469zm0 0"/><path d="m465.925781 115.28125 23.050781-23.050781 23.054688 23.050781-23.054688 23.054688zm0 0"/><path d="m373.710938 23.070312 23.054687-23.0507808 23.050781 23.0507808-23.050781 23.054688zm0 0"/></g><path d="m365.097656 262.210938h-115.261718v-115.261719l94.089843-94.070313v115.261719h115.257813zm0 0" fill="#d8b880"/><path d="m303.628906 323.679688h-115.261718v-115.261719l94.070312-94.070313v115.261719h115.261719zm0 0" fill="#dbc9a5"/><path d="m242.160156 385.164062h-115.261718v-115.257812l94.070312-94.089844v115.261719h115.261719zm0 0" fill="#d8b880"/><path d="m0 484.492188 419.953125-415.347657 22.925781 23.179688-419.953125 415.347656zm0 0" fill="#9b7a5a"/></svg>