<?xml version="1.0" encoding="iso-8859-1"?>
<!-- Generator: Adobe Illustrator 19.0.0, SVG Export Plug-In . SVG Version: 6.00 Build 0)  -->
<svg version="1.1" id="Capa_1" xmlns="http://www.w3.org/2000/svg" xmlns:xlink="http://www.w3.org/1999/xlink" x="0px" y="0px"
	 viewBox="0 0 384.008 384.008" style="enable-background:new 0 0 384.008 384.008;" xml:space="preserve">
<g>
	<path style="fill:#9DC85C;" d="M269.464,121.848c-27.68,27.84-53.04,5.76-53.04,5.76s-5.84-6.88-7.68-17.36l-0.56-3.12
		c8.4-5.52,16.88-16.08,16.88-36l4-3.2c26.16-19.84,55.36-9.04,55.36-9.04S297.064,93.928,269.464,121.848z"/>
	<path style="fill:#9DC85C;" d="M175.064,107.128v1.92c-1.52,11.12-7.84,18.56-7.84,18.56s-25.36,22.08-53.04-5.76
		c-27.6-27.92-14.96-62.96-14.96-62.96s30.96-11.44,57.68,10.88l1.36,1.44C158.264,91.048,166.664,101.528,175.064,107.128z"/>
</g>
<path style="fill:#69BE5D;" d="M225.064,71.128c0,19.92-8.48,30.48-16.88,36c-8.32,5.44-16.48,6.08-16.48,6.08
	s-8.32-0.64-16.64-6.08c-8.4-5.6-16.8-16.08-16.8-35.92c-0.08-39.52,33.36-55.2,33.36-55.2S225.064,31.688,225.064,71.128z"/>
<path style="fill:#F26E64;" d="M279.704,308.168c0,0-36.56,59.84-86.64,59.84c-50,0-88.48-59.84-88.48-59.84
	c-37.84-54.8-47.92-123.84-2.4-172.56l12-13.76c27.68,27.84,53.04,5.76,53.04,5.76s6.32-7.44,7.84-18.56v-1.92
	c8.32,5.44,16.64,6.08,16.64,6.08s8.16-0.64,16.48-6.08l0.56,3.12c1.84,10.48,7.68,17.36,7.68,17.36s25.36,22.08,53.04-5.76
	l10.24,11.28C327.944,181.928,317.144,249.768,279.704,308.168z"/>
<g>
	<path style="fill:#603916;" d="M91.128,316.824c1.76,2.744,43.872,67.184,101.936,67.184c57.504,0,97.392-62.808,100.192-67.336
		c46.872-73.192,46.056-146-1.704-194.304l-1.056-1.16c21.384-31.944,9.56-66.136,8.976-67.76c-1.6-4.44-5.08-7.944-9.504-9.576
		c-1.264-0.464-26-9.28-53.144,1.52C226.352,15.04,199.8,2.168,198.408,1.512c-4.304-2.016-9.28-2.016-13.584,0
		c-1.392,0.656-27.816,13.48-38.304,43.712c-26.888-10.584-51.56-1.832-52.856-1.352c-4.424,1.632-7.904,5.144-9.504,9.576
		c-0.584,1.624-12.456,35.96,9.144,67.984l-2.832,3.248C44.368,174.056,44.728,249.648,91.128,316.824z M266.24,299.528
		c-0.048,0.08-0.12,0.184-0.168,0.272c-0.328,0.528-32.632,52.208-73.008,52.208c-40.544,0-74.696-51.992-75.312-52.928
		c-30.08-43.56-46.896-106.504-3.512-152.952l1.968-2.248c0.456,0.28,0.912,0.496,1.376,0.76c0.728,0.424,1.456,0.832,2.184,1.216
		c0.96,0.504,1.92,0.976,2.88,1.408c0.72,0.328,1.44,0.656,2.16,0.944c0.96,0.392,1.912,0.728,2.872,1.056
		c0.704,0.24,1.4,0.488,2.104,0.688c0.976,0.288,1.936,0.512,2.896,0.736c0.656,0.152,1.32,0.328,1.976,0.448
		c1.008,0.192,2,0.32,2.992,0.44c0.592,0.072,1.192,0.176,1.784,0.232c1.12,0.104,2.208,0.136,3.304,0.16
		c0.4,0.008,0.808,0.056,1.2,0.056c0.04,0,0.08-0.008,0.12-0.008c1.672,0,3.304-0.104,4.904-0.264c0.472-0.048,0.928-0.12,1.4-0.184
		c1.144-0.144,2.264-0.32,3.368-0.536c0.528-0.104,1.048-0.216,1.568-0.336c1.048-0.24,2.072-0.504,3.08-0.792
		c0.456-0.136,0.92-0.256,1.368-0.4c1.288-0.408,2.528-0.856,3.736-1.336c0.12-0.048,0.24-0.088,0.36-0.136
		c1.32-0.536,2.568-1.12,3.784-1.728c0.376-0.184,0.72-0.376,1.08-0.568c0.832-0.44,1.64-0.888,2.416-1.344
		c0.376-0.224,0.744-0.448,1.104-0.68c0.736-0.464,1.432-0.936,2.104-1.408c0.296-0.208,0.6-0.416,0.888-0.624
		c0.912-0.68,1.776-1.352,2.544-2.024c0.6-0.528,1.168-1.096,1.688-1.704c0.128-0.144,0.384-0.464,0.728-0.904
		c0.096-0.128,0.224-0.304,0.336-0.448c0.296-0.392,0.608-0.816,0.992-1.368c0.184-0.264,0.376-0.568,0.576-0.864
		c0.368-0.552,0.736-1.128,1.152-1.8c0.24-0.392,0.48-0.824,0.728-1.256c0.4-0.696,0.792-1.408,1.208-2.2
		c0.128-0.248,0.256-0.44,0.384-0.696c0.264,0.056,0.424,0.064,0.664,0.112c0.8,0.152,1.496,0.272,2.104,0.36
		c0.256,0.04,0.464,0.072,0.68,0.096c0.656,0.08,1.208,0.144,1.512,0.168c0.408,0.032,0.816,0.048,1.224,0.048
		c0.416,0,0.832-0.016,1.256-0.048c0.304-0.024,0.856-0.088,1.528-0.168c0.24-0.032,0.44-0.064,0.72-0.104
		c0.648-0.096,1.392-0.232,2.24-0.4c0.248-0.048,0.4-0.064,0.664-0.12c0.176,0.352,0.344,0.616,0.52,0.944
		c0.408,0.768,0.792,1.488,1.184,2.16c0.256,0.44,0.496,0.848,0.744,1.248c0.392,0.64,0.744,1.192,1.096,1.72
		c0.208,0.312,0.4,0.616,0.592,0.888c0.36,0.512,0.648,0.912,0.928,1.28c0.128,0.168,0.248,0.344,0.36,0.48
		c0.328,0.424,0.576,0.728,0.696,0.864c0.52,0.616,1.088,1.184,1.688,1.712c0.776,0.672,1.64,1.352,2.552,2.032
		c0.28,0.208,0.584,0.408,0.872,0.616c0.68,0.48,1.384,0.952,2.128,1.424c0.36,0.224,0.72,0.448,1.096,0.672
		c0.768,0.456,1.576,0.904,2.4,1.344c0.368,0.192,0.72,0.392,1.104,0.584c1.216,0.608,2.472,1.192,3.792,1.728
		c0.056,0.024,0.112,0.04,0.168,0.064c1.264,0.512,2.576,0.976,3.928,1.408c0.44,0.144,0.904,0.264,1.352,0.392
		c1.008,0.296,2.032,0.56,3.088,0.8c0.528,0.12,1.048,0.232,1.584,0.336c1.08,0.208,2.184,0.376,3.312,0.52
		c0.488,0.064,0.968,0.144,1.464,0.192c1.616,0.16,3.248,0.264,4.928,0.264c0.016,0,0.032,0,0.048,0c0.248,0,0.512-0.032,0.76-0.04
		c1.264-0.016,2.536-0.064,3.832-0.184c0.552-0.048,1.112-0.152,1.672-0.224c1.032-0.128,2.056-0.264,3.104-0.464
		c0.648-0.128,1.312-0.304,1.968-0.456c0.968-0.224,1.928-0.448,2.904-0.736c0.712-0.208,1.424-0.472,2.136-0.712
		c0.944-0.32,1.88-0.656,2.832-1.04c0.744-0.304,1.488-0.648,2.232-0.992c0.928-0.424,1.848-0.872,2.784-1.36
		c0.768-0.408,1.544-0.848,2.312-1.304c0.488-0.288,0.968-0.512,1.456-0.816l0.616,0.672
		C321.64,198.312,284.624,270.848,266.24,299.528z M271.04,72.256c1.096,9.2,0.376,24.832-12.912,38.304c0,0-0.008,0-0.008,0.008
		c-3.16,3.176-6.16,5.288-9,6.776c-0.28,0.144-0.584,0.392-0.864,0.52c-0.896,0.432-1.728,0.648-2.592,0.936
		c-0.616,0.208-1.264,0.528-1.864,0.672s-1.136,0.144-1.704,0.232c-0.792,0.12-1.616,0.304-2.36,0.32
		c-0.312,0.008-0.576-0.056-0.88-0.064c-4.72-0.104-8.472-1.936-10.808-3.584c-0.512-0.8-1.224-2.016-1.896-3.552
		c1.016-1.072,2.008-2.248,2.976-3.48c0.232-0.296,0.456-0.608,0.68-0.912c1.056-1.408,2.08-2.904,3.048-4.52
		c0.112-0.192,0.24-0.36,0.352-0.56c1.008-1.744,1.928-3.64,2.784-5.64c0.2-0.456,0.392-0.92,0.576-1.392
		c0.824-2.064,1.576-4.24,2.2-6.576c0.08-0.288,0.128-0.6,0.2-0.888c0.544-2.192,0.984-4.52,1.32-6.96
		c0.072-0.528,0.16-1.032,0.224-1.568c0.04-0.352,0.112-0.68,0.144-1.04C251.84,71.728,263.568,71.368,271.04,72.256z
		 M191.616,35.024c7.208,5.8,17.448,17.328,17.448,36.104c0,10.952-3.16,18.352-9.664,22.624c-1.504,0.984-3.016,1.696-4.36,2.216
		s-2.52,0.84-3.344,1.032c-1.744-0.384-4.8-1.288-7.8-3.224c-6.48-4.344-9.64-11.728-9.64-22.608
		C174.224,52.344,184.456,40.8,191.616,35.024z M112.64,72.264c7.424-0.856,18.944-0.504,30,6.8c0.04,0.416,0.12,0.784,0.168,1.192
		c0.064,0.584,0.16,1.144,0.24,1.712c0.336,2.408,0.76,4.704,1.304,6.864c0.072,0.28,0.12,0.584,0.192,0.864
		c0.624,2.352,1.376,4.536,2.208,6.616c0.184,0.456,0.368,0.896,0.552,1.336c1.784,4.152,3.92,7.76,6.264,10.864
		c0.184,0.248,0.368,0.496,0.56,0.736c1.064,1.36,2.152,2.664,3.28,3.832c-0.648,1.456-1.32,2.6-1.784,3.312
		c-3.504,2.472-14.112,8.008-27.384-3.32c-0.88-0.752-1.768-1.576-2.672-2.48C112.304,97.192,111.568,81.504,112.64,72.264z"/>
	<path style="fill:#603916;" d="M191.832,167.84c-8.832,0-16,7.168-16,16v18.376c0,8.832,7.168,16,16,16s16-7.168,16-16V183.84
		C207.832,175.008,200.672,167.84,191.832,167.84z"/>
	<path style="fill:#603916;" d="M139.52,211.928c-8.832,0-16,7.168-16,16v18.376c0,8.832,7.168,16,16,16s16-7.168,16-16v-18.376
		C155.52,219.096,148.352,211.928,139.52,211.928z"/>
	<path style="fill:#603916;" d="M244.152,211.928c-8.832,0-16,7.168-16,16v18.376c0,8.832,7.168,16,16,16s16-7.168,16-16v-18.376
		C260.152,219.096,252.992,211.928,244.152,211.928z"/>
	<path style="fill:#603916;" d="M191.832,256.008c-8.832,0-16,7.168-16,16v18.376c0,8.832,7.168,16,16,16s16-7.168,16-16v-18.376
		C207.832,263.176,200.672,256.008,191.832,256.008z"/>
</g>
<g>
</g>
<g>
</g>
<g>
</g>
<g>
</g>
<g>
</g>
<g>
</g>
<g>
</g>
<g>
</g>
<g>
</g>
<g>
</g>
<g>
</g>
<g>
</g>
<g>
</g>
<g>
</g>
<g>
</g>
</svg>
