<?xml version="1.0" encoding="iso-8859-1"?>
<!-- Generator: Adobe Illustrator 19.0.0, SVG Export Plug-In . SVG Version: 6.00 Build 0)  -->
<svg version="1.1" id="Capa_1" xmlns="http://www.w3.org/2000/svg" xmlns:xlink="http://www.w3.org/1999/xlink" x="0px" y="0px"
	 viewBox="0 0 384.013 384.013" style="enable-background:new 0 0 384.013 384.013;" xml:space="preserve">
<polygon style="fill:#9DC85C;" points="368.003,68.245 230.483,192.005 219.443,202.965 181.043,164.565 192.003,153.525 
	315.763,16.005 "/>
<rect x="152.631" y="176.324" transform="matrix(-0.7071 0.7071 -0.7071 -0.7071 452.0439 219.7098)" style="fill:#69BE5D;" width="55.775" height="54.303"/>
<path style="fill:#9DC85C;" d="M180.003,242.405l-60,60c-17.84,17.84-33.68,30.88-51.52,13.12c-17.76-17.84-4.72-33.68,13.04-51.52
	l60.08-60L180.003,242.405z"/>
<path style="fill:#603916;" d="M0.003,315.829c0.04,8.808,7.2,15.92,16,15.92c0.024,0,0.048,0,0.08,0l13.624-0.064l-11.952,11.952
	c-6.248,6.248-6.248,16.376,0,22.624c6.24,6.248,16.384,6.248,22.624,0l11.952-11.952l-0.064,13.624
	c-0.04,8.832,7.088,16.032,15.92,16.08c0.024,0,0.056,0,0.08,0c8.8,0,15.96-7.112,16-15.92l0.136-27.992
	c0.368,0.008,0.736,0.056,1.096,0.056c19.392,0,36.168-16.776,45.824-26.432l60-60l39.376-39.376
	c0.008-0.008,0.016-0.008,0.024-0.016l10.472-10.424l137.52-123.76c3.264-2.936,5.176-7.088,5.288-11.472
	c0.12-4.392-1.576-8.632-4.68-11.736L327.083,4.7c-3.104-3.112-7.336-4.8-11.744-4.696c-4.392,0.12-8.528,2.032-11.472,5.296
	L180.651,142.253l-10.96,11.04c-0.008,0.008-0.008,0.016-0.016,0.024l-39.368,39.376l-60.12,60.032
	c-9.784,9.832-26.88,27.056-26.224,46.896l-28.04,0.128C7.091,299.789-0.037,306.989,0.003,315.829z M316.371,39.245l28.4,28.392
	L219.499,180.389l-15.88-15.88L316.371,39.245z M181.043,187.189l15.776,15.776l-16.816,16.808l-15.776-15.768L181.043,187.189z
	 M92.827,275.325l48.768-48.696l15.776,15.776l-48.68,48.688c-20.584,20.568-23.696,18.272-28.576,13.432
	c-0.216-0.224-0.432-0.448-0.656-0.656C74.619,298.981,72.459,295.789,92.827,275.325z"/>
<g>
</g>
<g>
</g>
<g>
</g>
<g>
</g>
<g>
</g>
<g>
</g>
<g>
</g>
<g>
</g>
<g>
</g>
<g>
</g>
<g>
</g>
<g>
</g>
<g>
</g>
<g>
</g>
<g>
</g>
</svg>
