<?xml version="1.0" encoding="iso-8859-1"?>
<!-- Generator: Adobe Illustrator 19.0.0, SVG Export Plug-In . SVG Version: 6.00 Build 0)  -->
<svg version="1.1" id="Capa_1" xmlns="http://www.w3.org/2000/svg" xmlns:xlink="http://www.w3.org/1999/xlink" x="0px" y="0px"
	 viewBox="0 0 384 384" style="enable-background:new 0 0 384 384;" xml:space="preserve">
<path style="fill:#F26E64;" d="M274.57,335.12c0,0-15.44,4.96-34.4,8.96C229.05,358.64,211.61,368,192.01,368
	c-18.8,0-35.52-8.56-46.64-22.08c-18.96-3.92-35.92-10.8-35.92-10.8c-87.2-35.92-25.12-135.92-8.72-179.68
	c0,0,38.56-96.16,88.48-96.16h5.6c48.88,0,88.48,96.16,88.48,96.16C299.61,199.2,361.77,299.2,274.57,335.12z"/>
<g>
	<path style="fill:#603916;" d="M192.002,0c-8.832,0-16,7.168-16,16v28.936c-51.728,12.52-86.112,94.536-90.256,104.888
		c-2.232,5.96-5.448,13.184-9.168,21.56c-16.76,37.76-39.72,89.472-22.608,132.184c8.28,20.664,24.888,36.248,49.464,46.376
		c0.688,0.272,15.536,6.264,33.432,10.472C151.25,375.48,171.042,384,192.01,384c21.976,0,42.408-9.208,56.952-25.472
		c16.928-3.84,29.896-7.984,30.504-8.176c0.408-0.128,0.808-0.28,1.2-0.44c24.48-10.08,41.08-25.664,49.36-46.304
		c17.104-42.648-5.808-94.312-22.528-132.032c-3.744-8.44-6.976-15.736-9.408-22.232c-4.128-10.008-39.232-91.696-90.088-104.36V16
		C208.002,7.168,200.842,0,192.002,0z M268.298,161.032c2.576,6.904,6.16,14.976,9.936,23.512
		c14.424,32.512,34.16,77.04,22.088,107.16c-4.952,12.336-15.168,21.624-31.232,28.368c-0.304,0.096-0.792,0.24-1.312,0.4
		c0.864-4.696,1.344-9.504,1.344-14.4c0-8.832-7.168-16-16-16s-16,7.168-16,16c0,10.384-3.312,20.12-9.576,28.168
		c-0.016,0.016-0.024,0.04-0.04,0.056c-0.024,0.024-0.048,0.048-0.064,0.072C218.89,345.576,205.978,352,192.01,352
		c-13.296,0-25.8-5.92-34.28-16.24c-0.016-0.024-0.04-0.032-0.056-0.048c-0.024-0.032-0.04-0.064-0.064-0.096
		c-6.904-8.192-10.712-18.68-10.712-29.528c0-8.832-7.168-16-16-16s-16,7.168-16,16c0,4.912,0.496,9.776,1.4,14.544
		c-0.48-0.184-0.744-0.288-0.752-0.296c-16.432-6.768-26.848-16.144-31.864-28.656c-12.088-30.168,7.704-74.752,22.16-107.304
		c3.768-8.472,7.312-16.472,9.744-22.968c13.408-33.296,45.248-86.128,73.64-86.128h5.592
		C223.546,75.28,256.866,133.4,268.298,161.032z"/>
	<path style="fill:#603916;" d="M235.362,224.072c2.496,6.28,8.512,10.104,14.88,10.104c1.96,0,3.96-0.36,5.888-1.136
		c8.216-3.256,12.232-12.56,8.976-20.776l-24.632-62.08c-3.256-8.208-12.568-12.224-20.776-8.968
		c-8.216,3.256-12.232,12.56-8.976,20.776L235.362,224.072z"/>
</g>
<g>
</g>
<g>
</g>
<g>
</g>
<g>
</g>
<g>
</g>
<g>
</g>
<g>
</g>
<g>
</g>
<g>
</g>
<g>
</g>
<g>
</g>
<g>
</g>
<g>
</g>
<g>
</g>
<g>
</g>
</svg>
