<?xml version="1.0" encoding="iso-8859-1"?>
<!-- Generator: Adobe Illustrator 19.0.0, SVG Export Plug-In . SVG Version: 6.00 Build 0)  -->
<svg version="1.1" id="Capa_1" xmlns="http://www.w3.org/2000/svg" xmlns:xlink="http://www.w3.org/1999/xlink" x="0px" y="0px"
	 viewBox="0 0 383.98 383.98" style="enable-background:new 0 0 383.98 383.98;" xml:space="preserve">
<path style="fill:#99336A;" d="M80.111,342.827c20.664,3.936,42.824-2.064,58.808-18.064l110.424-110.4
	c25.64-25.648,25.64-54.048,0-79.696c-25.656-25.656-54.048-25.656-79.696,0L59.223,245.075
	c-16.048,16.024-22.056,38.272-18.048,58.976c0,0-33.736,51.28-23.144,61.896C28.671,376.547,80.111,342.827,80.111,342.827z"/>
<path style="fill:#603916;" d="M277.783,0.243c-8.752-1.504-16.976,4.368-18.472,13.072l-6.288,36.808l-2.272-2.272
	c-6.248-6.256-16.392-6.256-22.624-0.008c-6.256,6.248-6.256,16.376-0.016,22.632l17.08,17.096c0.392,0.392,0.84,0.688,1.256,1.024
	l-3.528,20.656c-10.712-6.504-21.896-9.816-33.432-9.816c-18.072,0-35.28,8.048-51.16,23.928l-26.008,26.008
	c-0.024,0.024-0.056,0.04-0.08,0.064s-0.04,0.056-0.064,0.08l-52.672,52.656c0,0,0,0-0.008,0.008s0,0.008-0.008,0.008
	l-31.576,31.568c-17.64,17.608-26.16,42.128-23.464,66.68c-36.704,57.824-22.504,72.048-17.72,76.84
	c2.28,2.272,6.72,6.696,17.056,6.696c11.304,0,29.648-5.288,59.928-24.456c24.464,2.664,48.952-5.88,66.504-23.448l110.424-110.4
	c26.296-26.304,30.952-56.792,14.072-84.592l20.696-3.544c0.344,0.416,0.632,0.864,1.024,1.248l17.08,17.08
	c3.128,3.128,7.216,4.688,11.312,4.688s8.184-1.56,11.312-4.68c6.248-6.248,6.248-16.376,0-22.632l-2.288-2.288l36.824-6.304
	c8.712-1.488,14.56-9.76,13.08-18.472c-1.488-8.696-9.76-14.552-18.472-13.072l-62.488,10.688l43.232-43.24
	c6.248-6.248,6.248-16.376,0-22.624s-16.376-6.248-22.624,0l-43.24,43.24l10.68-62.488C292.343,9.995,286.487,1.731,277.783,0.243z
	 M238.023,203.043L127.591,313.451c-11.616,11.64-28.256,16.752-44.496,13.656c-4.072-0.768-8.28,0.064-11.76,2.336
	c-12.352,8.08-26.512,15.592-36.36,19.584c3.992-9.808,11.504-23.904,19.56-36.184c2.296-3.488,3.136-7.736,2.344-11.832
	c-3.152-16.256,1.952-32.936,13.648-44.616l20.248-20.248l21.576,21.616c3.136,3.128,7.224,4.696,11.328,4.696
	c4.088,0,8.176-1.56,11.304-4.672c6.248-6.24,6.264-16.368,0.024-22.632l-21.6-21.64l30.152-30.152l14.688,14.68
	c3.12,3.12,7.208,4.68,11.304,4.68s8.192-1.568,11.32-4.688c6.24-6.256,6.24-16.384-0.016-22.632l-14.672-14.664l14.752-14.752
	c9.656-9.656,19.256-14.552,28.528-14.552c9.28,0,18.88,4.896,28.536,14.552C257.487,165.443,257.487,183.579,238.023,203.043z"/>
<g>
</g>
<g>
</g>
<g>
</g>
<g>
</g>
<g>
</g>
<g>
</g>
<g>
</g>
<g>
</g>
<g>
</g>
<g>
</g>
<g>
</g>
<g>
</g>
<g>
</g>
<g>
</g>
<g>
</g>
</svg>
