<?xml version="1.0" encoding="iso-8859-1"?>
<!-- Generator: Adobe Illustrator 19.0.0, SVG Export Plug-In . SVG Version: 6.00 Build 0)  -->
<svg version="1.1" id="Capa_1" xmlns="http://www.w3.org/2000/svg" xmlns:xlink="http://www.w3.org/1999/xlink" x="0px" y="0px"
	 viewBox="0 0 384 384" style="enable-background:new 0 0 384 384;" xml:space="preserve">
<path style="fill:#FFEB97;" d="M328,192c0,118.472-82.4,176-136,176c-53.608,0-136-57.528-136-176S138.392,16,192,16
	C245.6,16,328,73.528,328,192z"/>
<g>
	<path style="fill:#603916;" d="M68.352,302.872c0.656,1.744,1.616,3.32,2.8,4.712C102.616,357.856,152.112,384,192,384
		c56.648,0,132.632-52.76,148.832-152.456c0.184-0.728,0.28-1.488,0.36-2.256C342.984,217.488,344,205.08,344,192
		C344,66.72,255.728,0,192,0c-39.888,0-89.384,26.144-120.84,76.416c-1.184,1.392-2.144,2.968-2.8,4.712
		C51.152,110.48,40,147.528,40,192c0,13.08,1.016,25.488,2.808,37.288c0.08,0.768,0.176,1.52,0.36,2.256
		C47.616,258.896,56.544,282.712,68.352,302.872z M192,32c41.84,0,120,46.936,120,160c0,6.8-0.296,13.352-0.84,19.68H210.832
		c-8.832,0-16,7.168-16,16s7.168,16,16,16h94.992C286.592,319.536,226.776,352,192,352c-21.216,0-51.768-12.096-76.736-38.744H192
		c8.832,0,16-7.168,16-16s-7.168-16-16-16H92.512c-5.888-11.096-10.792-23.6-14.336-37.576h44.008c8.832,0,16-7.168,16-16
		s-7.168-16-16-16H72.832C72.296,205.352,72,198.8,72,192c0-6.336,0.28-12.424,0.752-18.344h85c8.832,0,16-7.168,16-16
		s-7.168-16-16-16h-79.92c3.56-14.52,8.608-27.464,14.68-38.912h47.176c8.832,0,16-7.168,16-16s-7.168-16-16-16h-24.432
		C140.232,44.096,170.784,32,192,32z"/>
	<path style="fill:#603916;" d="M212.376,101.4c0.36,0.152,36.072,15.384,36.072,56.112c0,8.832,7.168,16,16,16s16-7.168,16-16
		c0-61.888-53.568-84.744-55.848-85.68c-8.16-3.384-17.512,0.512-20.896,8.672C200.32,88.672,204.2,98.024,212.376,101.4z"/>
</g>
<g>
</g>
<g>
</g>
<g>
</g>
<g>
</g>
<g>
</g>
<g>
</g>
<g>
</g>
<g>
</g>
<g>
</g>
<g>
</g>
<g>
</g>
<g>
</g>
<g>
</g>
<g>
</g>
<g>
</g>
</svg>
