<?xml version="1.0" encoding="iso-8859-1"?>
<!-- Generator: Adobe Illustrator 19.0.0, SVG Export Plug-In . SVG Version: 6.00 Build 0)  -->
<svg version="1.1" id="Capa_1" xmlns="http://www.w3.org/2000/svg" xmlns:xlink="http://www.w3.org/1999/xlink" x="0px" y="0px"
	 viewBox="0 0 384 384" style="enable-background:new 0 0 384 384;" xml:space="preserve">
<path style="fill:#9DC85C;" d="M126.241,341.76c11.36,11.36,25.12,18.72,40.16,22.64c-7.68,2.08-16.96,3.6-25.28,3.6
	c-74.16,0-125.04-88-125.04-162.16c0-55.68,24.64-131.28,72.96-151.68c0,0,16.32-38.16,52.08-38.16c35.84,0,51.68,37.92,51.68,37.92
	c20.16,8.4,36.64,27.44,48.64,49.6c-33.6,8-68.24,29.76-91.12,52.64C102.321,204.08,78.241,293.84,126.241,341.76z"/>
<path style="fill:#F58A54;" d="M362.801,172.08c0,0,14.32-34.8-8.8-57.92c-23.12-23.04-58.4-8.96-58.4-8.96
	c-16.16-6.56-34.96-6.4-54.16-1.68c-33.6,8-68.24,29.76-91.12,52.64c-48,47.92-72.08,137.68-24.08,185.6
	c11.36,11.36,25.12,18.72,40.16,22.64c48.16,12.64,109.04-10,145.68-46.64C348.241,281.6,381.201,216.56,362.801,172.08z"/>
<path style="fill:#80764C;" d="M273.681,285.04c-26.88,26.88-77.2,40.32-104.08,13.44s-13.36-77.12,13.52-104
	c20.16-20.16,56.48-38.56,81.36-28.48c0,0,19.68-7.92,32.64,5.04c12.96,12.96,4.96,32.4,4.96,32.4
	C312.401,228.4,293.921,264.8,273.681,285.04z"/>
<g>
	<path style="fill:#603916;" d="M365.297,102.832c-23.824-23.752-55.952-18.264-69.384-14.528
		c-13.968-4.48-29.56-5.328-46.464-2.664c-10.104-16.048-24.8-33.672-44.848-43.872C197.545,28.896,177.633,0,141.121,0
		c-36.504,0-56.72,29.176-63.84,42c-50.2,25.672-77.2,102.32-77.2,163.84c0,84.264,57.92,178.16,141.04,178.16
		c9.92,0,19.224-1.688,25.48-3.16c9.192,2.048,18.784,3.104,28.632,3.104c44.512,0,93.584-20.288,128.16-54.864
		c40.128-40.12,72.336-107.64,56.336-157.264C383.577,158.392,389.113,126.648,365.297,102.832z M32.081,205.84
		c0-53.032,24.16-120.464,63.184-136.936c3.816-1.616,6.856-4.64,8.488-8.448C103.873,60.168,116.609,32,141.121,32
		c24.52,0,36.456,27.016,36.912,28.088c1.624,3.888,4.72,6.984,8.616,8.6c10.536,4.392,20.912,13.32,30.168,25.776
		c-1,0.376-1.992,0.84-2.992,1.24c-1.4,0.56-2.784,1.136-4.184,1.728c-2.768,1.176-5.52,2.432-8.272,3.752
		c-1.28,0.608-2.552,1.192-3.832,1.832c-3.712,1.864-7.408,3.824-11.064,5.912c-0.248,0.144-0.496,0.264-0.744,0.408
		c-3.88,2.24-7.696,4.624-11.464,7.096c-1.192,0.776-2.344,1.6-3.52,2.4c-2.608,1.776-5.184,3.592-7.712,5.464
		c-1.288,0.952-2.552,1.912-3.808,2.888c-2.472,1.912-4.88,3.88-7.256,5.88c-1.088,0.92-2.2,1.816-3.264,2.76
		c-3.344,2.936-6.6,5.928-9.688,9.008c-33.352,33.304-54.912,83.712-54.912,128.432c0,3.752,0.176,7.424,0.464,11.04
		c0.096,1.176,0.264,2.312,0.384,3.472c0.256,2.432,0.552,4.84,0.944,7.208c0.216,1.32,0.488,2.616,0.744,3.92
		c0.432,2.16,0.904,4.296,1.448,6.4c0.336,1.304,0.696,2.6,1.072,3.88c0.608,2.072,1.288,4.096,2.016,6.104
		c0.432,1.2,0.848,2.4,1.32,3.576c0.856,2.144,1.816,4.224,2.8,6.288c0.456,0.944,0.864,1.92,1.344,2.848
		c1.52,2.952,3.16,5.824,4.952,8.6c0.08,0.128,0.184,0.248,0.264,0.368c1.56,2.384,3.192,4.704,4.952,6.952
		C62.377,322.36,32.081,261.448,32.081,205.84z M300.769,306.448c-34.632,34.624-90.64,52.896-130.336,42.464
		c-3.232-0.84-6.352-1.864-9.344-3.056c-8.984-3.584-16.872-8.752-23.544-15.416c-17.72-17.696-21.448-40.856-21.44-57.168
		c0-36.656,17.864-78.176,45.528-105.792c22.736-22.728,55.512-41.728,83.632-48.416c8.056-1.984,15.584-2.968,22.552-2.968
		c8.024,0,15.304,1.312,21.768,3.936c3.832,1.56,8.112,1.568,11.944,0.032c0.256-0.096,25.944-9.752,41.16,5.416
		c15.032,15.032,5.52,39.992,5.288,40.6c-1.576,3.888-1.56,8.248,0.04,12.128C362.657,213.584,334.889,272.328,300.769,306.448z"/>
	<path style="fill:#603916;" d="M308.433,159.728c-13.528-13.528-31.76-13.496-43.768-10.528
		c-33.688-9.368-73.4,14.512-92.856,33.976c-33.144,33.144-46.848,93.296-13.52,126.624c13.416,13.424,31.168,19.232,49.76,19.232
		c27.64,0,57.128-12.856,76.944-32.672c19.552-19.552,43.448-59.384,33.92-93.104C321.905,191.312,321.945,173.232,308.433,159.728z
		 M262.369,273.728c-21.944,21.936-62.304,32.6-81.456,13.44c-19.104-19.112-8.424-59.432,13.52-81.376
		c14.464-14.464,37.4-26.672,54.312-26.672c3.552,0,6.84,0.536,9.728,1.704c3.84,1.552,8.136,1.552,11.984,0.016
		c0.096-0.04,10.184-3.648,15.352,1.504c5.136,5.144,1.472,15,1.48,15c-1.608,3.912-1.608,8.296,0.008,12.2
		C294.161,226.168,279.953,256.144,262.369,273.728z"/>
	<path style="fill:#603916;" d="M256.057,206.328c-6.248-6.248-16.376-6.248-22.624,0.008c-6.248,6.248-6.24,16.376,0.008,22.624
		l5.768,5.76c3.12,3.128,7.216,4.68,11.312,4.68s8.192-1.56,11.32-4.688c6.248-6.248,6.24-16.376-0.008-22.624L256.057,206.328z"/>
	<path style="fill:#603916;" d="M221.969,240.4c-6.248-6.248-16.376-6.248-22.624,0.008c-6.248,6.248-6.24,16.376,0.008,22.624
		l5.768,5.76c3.12,3.128,7.216,4.68,11.312,4.68s8.192-1.56,11.32-4.688c6.248-6.248,6.24-16.376-0.008-22.624L221.969,240.4z"/>
</g>
<g>
</g>
<g>
</g>
<g>
</g>
<g>
</g>
<g>
</g>
<g>
</g>
<g>
</g>
<g>
</g>
<g>
</g>
<g>
</g>
<g>
</g>
<g>
</g>
<g>
</g>
<g>
</g>
<g>
</g>
</svg>
