<?xml version="1.0" encoding="iso-8859-1"?>
<!-- Generator: Adobe Illustrator 19.0.0, SVG Export Plug-In . SVG Version: 6.00 Build 0)  -->
<svg version="1.1" id="Capa_1" xmlns="http://www.w3.org/2000/svg" xmlns:xlink="http://www.w3.org/1999/xlink" x="0px" y="0px"
	 viewBox="0 0 384.032 384.032" style="enable-background:new 0 0 384.032 384.032;" xml:space="preserve">
<path style="fill:#9DC85C;" d="M240.736,87.12l-4.24-0.08c-35.36,0-43.2,62.24-44.48,104c-1.28-41.76-9.12-104-44.48-104h-4.16
	c0,0,14.4-71.04,48.64-71.04S240.736,87.12,240.736,87.12z"/>
<path style="fill:#FFEB97;" d="M368.016,223.52c0,124.96-121.92,127.6-127.2,127.68c12.32-16.48,106.64-111.92-0.08-264.08
	C240.736,87.12,368.016,125.04,368.016,223.52z"/>
<g>
	<path style="fill:#FFF9BB;" d="M143.376,351.2c0,0-127.36,0-127.36-127.68c0-98.48,127.36-136.48,127.36-136.48
		C36.496,239.44,131.216,334.88,143.376,351.2z"/>
	<path style="fill:#FFF9BB;" d="M240.816,351.2c-0.08,0-0.16,0-0.16,0s-19.28,17.68-48.64,16.8V220.32c0.24-6.64,0.4-17.12,0-29.28
		c1.28-41.76,9.12-104,44.48-104l4.24,0.08C347.456,239.28,253.136,334.72,240.816,351.2z"/>
</g>
<path style="fill:#FFEB97;" d="M192.016,220.32V368c-29.36,0.88-48.64-16.8-48.64-16.8c-12.16-16.32-106.88-111.76,0-264.16h4.16
	c35.36,0,43.2,62.24,44.48,104C191.616,203.2,191.776,213.6,192.016,220.32z"/>
<path style="fill:#603916;" d="M254.288,74.824C248.248,51.336,230.64,0,192.016,0c-38.632,0-56.184,51.28-62.2,74.752
	C98.92,86.008,0.016,129.408,0.016,223.52c0,109.488,87.008,141.352,137.72,143.544c8.56,6.128,27.216,16.968,52.184,16.968
	c0.696,0,1.4-0.016,2.104-0.032c0.704,0.016,1.408,0.032,2.104,0.032c25.016,0,43.704-10.896,52.24-17.008
	c53.544-2.736,137.648-35.4,137.648-143.504C384.016,129.408,285.176,86.072,254.288,74.824z M192.016,32
	c10.64,0,21.92,21.264,28.648,41.936c-0.152,0.056-0.296,0.144-0.448,0.208c-1.04,0.424-2.088,0.888-3.12,1.416
	c-0.136,0.064-0.272,0.128-0.4,0.192c-1.136,0.584-2.256,1.256-3.376,1.976c-0.256,0.168-0.512,0.336-0.76,0.504
	c-2.272,1.528-4.512,3.344-6.688,5.48c-0.24,0.232-0.472,0.464-0.712,0.704c-1.08,1.096-2.144,2.256-3.192,3.52
	c-0.104,0.12-0.2,0.256-0.304,0.384c-0.96,1.184-1.912,2.456-2.84,3.784c-0.208,0.304-0.424,0.592-0.632,0.904
	c-0.984,1.464-1.96,3.008-2.896,4.656c-0.16,0.28-0.32,0.584-0.48,0.872c-0.832,1.488-1.64,3.056-2.432,4.696
	c-0.12,0.248-0.248,0.456-0.368,0.704c-0.12-0.248-0.248-0.464-0.368-0.712c-0.784-1.624-1.584-3.168-2.4-4.64
	c-0.176-0.312-0.344-0.64-0.52-0.944c-0.928-1.616-1.88-3.136-2.856-4.584c-0.232-0.344-0.472-0.68-0.704-1.016
	c-0.888-1.272-1.792-2.488-2.712-3.624c-0.136-0.168-0.264-0.352-0.4-0.512c-1.024-1.24-2.072-2.376-3.128-3.456
	c-0.256-0.264-0.52-0.52-0.776-0.776c-1.064-1.04-2.128-2.024-3.216-2.92c-0.016-0.016-0.04-0.032-0.056-0.048
	c-1.112-0.904-2.232-1.712-3.36-2.472c-0.264-0.176-0.528-0.352-0.8-0.528c-1.112-0.712-2.232-1.384-3.36-1.968
	c-0.128-0.072-0.264-0.128-0.392-0.192c-1.04-0.528-2.088-1-3.144-1.424c-0.144-0.056-0.288-0.144-0.432-0.2
	C170.04,53.28,181.304,32,192.016,32z M154.968,340.04c-0.056-0.072-0.136-0.168-0.192-0.24c-0.72-0.912-1.528-1.912-2.488-3.08
	c-3.624-4.424-7.008-8.888-10.176-13.392c-1.016-1.448-1.872-2.912-2.84-4.368c-2.048-3.064-4.12-6.128-5.96-9.224
	c-1.048-1.768-1.92-3.56-2.904-5.336c-1.552-2.816-3.152-5.616-4.528-8.456c-0.936-1.928-1.696-3.88-2.552-5.816
	c-1.2-2.72-2.456-5.432-3.504-8.168c-0.776-2.04-1.384-4.104-2.08-6.152c-0.904-2.672-1.848-5.336-2.608-8.032
	c-0.592-2.12-1.024-4.264-1.528-6.392c-0.624-2.656-1.296-5.304-1.784-7.976c-0.4-2.184-0.64-4.392-0.944-6.592
	c-0.368-2.656-0.768-5.304-1-7.968c-0.192-2.24-0.24-4.496-0.336-6.752c-0.112-2.664-0.256-5.312-0.24-7.992
	c0.016-2.288,0.168-4.6,0.288-6.904c0.136-2.664,0.248-5.336,0.512-8.024c0.232-2.328,0.584-4.68,0.912-7.024
	c0.376-2.688,0.744-5.376,1.256-8.088c0.44-2.368,1.008-4.76,1.552-7.144c0.616-2.704,1.24-5.416,1.984-8.136
	c0.664-2.408,1.432-4.832,2.192-7.256c0.856-2.728,1.728-5.464,2.72-8.208c0.88-2.44,1.856-4.888,2.832-7.336
	c1.104-2.76,2.224-5.52,3.448-8.296c1.088-2.464,2.272-4.936,3.464-7.416c1.344-2.792,2.72-5.584,4.192-8.384
	c1.304-2.488,2.696-4.992,4.104-7.496c1.584-2.816,3.208-5.632,4.92-8.464c1.52-2.52,3.12-5.04,4.744-7.568
	c0.96-1.496,1.984-3,2.976-4.504c0.328,0.128,0.656,0.264,0.984,0.424c0.368,0.184,0.736,0.344,1.096,0.568
	c0.528,0.328,1.04,0.736,1.56,1.152c0.328,0.264,0.656,0.488,0.976,0.784c0.568,0.528,1.112,1.152,1.664,1.784
	c0.248,0.288,0.512,0.528,0.752,0.84c0.784,0.992,1.544,2.08,2.288,3.28c0.12,0.192,0.232,0.432,0.352,0.632
	c0.616,1.04,1.224,2.128,1.808,3.32c0.256,0.52,0.496,1.104,0.744,1.648c0.432,0.944,0.864,1.896,1.272,2.92
	c0.272,0.68,0.528,1.416,0.792,2.128c0.368,0.992,0.736,1.992,1.08,3.048c0.264,0.792,0.512,1.632,0.768,2.464
	c0.328,1.08,0.648,2.168,0.96,3.304c0.248,0.896,0.48,1.816,0.712,2.744c0.296,1.168,0.584,2.352,0.856,3.584
	c0.224,0.984,0.44,1.992,0.656,3.016c0.264,1.264,0.512,2.552,0.76,3.872c0.2,1.064,0.392,2.128,0.576,3.216
	c0.232,1.376,0.456,2.792,0.664,4.224c0.168,1.128,0.336,2.24,0.496,3.4c0.208,1.504,0.392,3.064,0.576,4.624
	c0.136,1.144,0.28,2.272,0.4,3.448c0.184,1.728,0.344,3.512,0.504,5.304c0.096,1.088,0.208,2.152,0.296,3.256
	c0.176,2.176,0.312,4.432,0.456,6.688c0.048,0.784,0.112,1.536,0.152,2.336c0.168,3.008,0.296,6.096,0.392,9.24
	c-0.016,0.48-0.024,0.928-0.04,1.408c-0.032,1.144-0.064,2.288-0.088,3.384c0,0.048,0,0.088,0,0.136
	c-0.232,11.072-0.032,19.896,0.136,24.616v129.576C164.992,347.36,157.344,341.896,154.968,340.04z M32.016,223.52
	c0-49.6,38.864-82.376,71.592-101.184c-0.24,0.488-0.464,0.992-0.704,1.48c-1.312,2.672-2.592,5.376-3.832,8.104
	c-0.376,0.824-0.752,1.648-1.128,2.48c-1.488,3.36-2.928,6.76-4.296,10.208c-0.208,0.536-0.4,1.072-0.608,1.608
	c-1.16,2.984-2.264,5.992-3.32,9.032c-0.328,0.944-0.648,1.88-0.968,2.824c-1.184,3.544-2.312,7.112-3.336,10.72
	c-0.008,0.032-0.016,0.056-0.024,0.088c-1.032,3.64-1.944,7.336-2.8,11.048c-0.216,0.952-0.424,1.904-0.632,2.864
	c-0.688,3.176-1.304,6.368-1.856,9.592c-0.104,0.64-0.24,1.272-0.336,1.912c-0.6,3.768-1.096,7.576-1.488,11.408
	c-0.088,0.88-0.152,1.76-0.232,2.648c-0.288,3.176-0.496,6.36-0.624,9.576c-0.04,0.896-0.088,1.784-0.112,2.68
	c-0.104,3.912-0.104,7.84,0.032,11.8c0.024,0.648,0.08,1.296,0.104,1.944c0.152,3.392,0.408,6.808,0.752,10.232
	c0.104,1.016,0.2,2.04,0.32,3.056c0.472,4.056,1.04,8.12,1.792,12.216c0,0.016,0.008,0.032,0.008,0.048
	c0.744,4.032,1.688,8.088,2.72,12.152c0.272,1.056,0.552,2.112,0.84,3.168c0.976,3.576,2.064,7.168,3.28,10.768
	c0.2,0.592,0.368,1.176,0.568,1.768c1.432,4.104,3.048,8.224,4.808,12.36c0.432,1.008,0.896,2.016,1.344,3.024
	c1.504,3.384,3.12,6.776,4.848,10.168c0.48,0.944,0.936,1.888,1.44,2.832c2.184,4.136,4.536,8.28,7.08,12.432
	c0.144,0.232,0.256,0.464,0.392,0.696C75.056,319.416,32.016,293.208,32.016,223.52z M208.016,220.664
	c0.168-4.608,0.36-13.168,0.152-23.992c-0.008-0.248-0.008-0.472-0.016-0.72c-0.024-1.12-0.056-2.288-0.088-3.448
	c-0.016-0.472-0.024-0.912-0.04-1.392c0.104-3.152,0.232-6.248,0.392-9.264c0.04-0.768,0.104-1.496,0.152-2.256
	c0.136-2.296,0.28-4.576,0.456-6.784c0.088-1.136,0.2-2.216,0.304-3.328c0.16-1.752,0.312-3.512,0.496-5.208
	c0.128-1.224,0.28-2.4,0.424-3.6c0.184-1.52,0.36-3.04,0.56-4.504c0.16-1.192,0.336-2.336,0.512-3.496
	c0.208-1.392,0.424-2.784,0.648-4.12c0.192-1.128,0.392-2.232,0.6-3.328c0.24-1.28,0.48-2.536,0.736-3.76
	c0.224-1.072,0.448-2.112,0.68-3.144c0.264-1.168,0.536-2.304,0.816-3.416c0.248-0.984,0.496-1.96,0.752-2.904
	c0.296-1.08,0.6-2.12,0.912-3.144c0.264-0.88,0.536-1.768,0.808-2.608c0.328-0.992,0.672-1.936,1.008-2.872
	c0.28-0.776,0.56-1.56,0.856-2.296c0.368-0.92,0.752-1.768,1.128-2.616c0.288-0.648,0.576-1.328,0.872-1.944
	c0.432-0.888,0.888-1.688,1.336-2.488c0.264-0.472,0.52-0.992,0.792-1.44c0.72-1.176,1.464-2.264,2.224-3.232
	c0.112-0.144,0.232-0.248,0.344-0.384c0.68-0.832,1.368-1.6,2.072-2.256c0.288-0.272,0.592-0.464,0.888-0.704
	c0.536-0.44,1.064-0.88,1.616-1.216c0.344-0.216,0.696-0.352,1.04-0.528c0.368-0.184,0.744-0.352,1.12-0.488
	c1.016,1.528,2.056,3.064,3.04,4.584c1.632,2.536,3.232,5.064,4.76,7.592c1.704,2.816,3.32,5.624,4.896,8.424
	c1.424,2.52,2.824,5.048,4.144,7.56c1.456,2.776,2.816,5.544,4.152,8.312c1.208,2.496,2.4,5,3.504,7.488
	c1.224,2.752,2.328,5.496,3.424,8.232c0.984,2.472,1.976,4.944,2.864,7.4c0.976,2.72,1.84,5.432,2.696,8.144
	c0.768,2.448,1.552,4.896,2.224,7.328c0.736,2.688,1.352,5.368,1.96,8.04c0.552,2.416,1.128,4.84,1.584,7.248
	c0.496,2.664,0.864,5.312,1.232,7.96c0.336,2.392,0.704,4.784,0.936,7.152c0.256,2.64,0.368,5.256,0.504,7.88
	c0.12,2.352,0.28,4.712,0.296,7.056c0.016,2.616-0.12,5.208-0.232,7.808c-0.096,2.32-0.144,4.64-0.344,6.944
	c-0.224,2.6-0.616,5.176-0.968,7.76c-0.312,2.264-0.56,4.544-0.968,6.792c-0.472,2.6-1.128,5.168-1.728,7.744
	c-0.52,2.208-0.968,4.432-1.584,6.632c-0.728,2.6-1.648,5.176-2.512,7.752c-0.72,2.144-1.352,4.296-2.168,6.424
	c-1.008,2.632-2.216,5.24-3.368,7.856c-0.896,2.04-1.704,4.104-2.688,6.136c-1.32,2.712-2.856,5.4-4.328,8.088
	c-1.04,1.896-1.976,3.816-3.096,5.704c-1.76,2.976-3.76,5.912-5.712,8.856c-1.048,1.576-1.976,3.168-3.08,4.736
	c-3.16,4.496-6.544,8.96-10.16,13.384c-0.864,1.048-1.616,1.976-2.288,2.816c-0.016,0.024-0.04,0.048-0.056,0.072
	c-1.888,1.528-9.792,7.504-21.496,10.552V220.664H208.016z M276.416,329.392c0.144-0.232,0.248-0.456,0.392-0.688
	c2.56-4.176,4.928-8.344,7.12-12.504c0.48-0.912,0.92-1.816,1.384-2.728c1.752-3.432,3.384-6.856,4.904-10.28
	c0.44-1,0.904-2,1.328-3c1.76-4.136,3.376-8.256,4.808-12.368c0.208-0.6,0.376-1.192,0.576-1.792
	c1.208-3.592,2.296-7.168,3.272-10.744c0.296-1.072,0.584-2.144,0.856-3.216c1.024-4.016,1.952-8.024,2.688-12.008
	c0.016-0.072,0.032-0.144,0.048-0.216c0.752-4.072,1.312-8.112,1.784-12.136c0.128-1.072,0.232-2.136,0.336-3.2
	c0.336-3.36,0.584-6.704,0.728-10.032c0.032-0.712,0.096-1.432,0.12-2.144c0.136-3.92,0.128-7.808,0.024-11.672
	c-0.024-0.976-0.08-1.952-0.12-2.928c-0.128-3.112-0.336-6.2-0.608-9.28c-0.088-0.952-0.152-1.912-0.256-2.864
	c-0.392-3.776-0.88-7.528-1.472-11.248c-0.12-0.768-0.272-1.528-0.408-2.296c-0.528-3.072-1.12-6.12-1.768-9.152
	c-0.224-1.048-0.448-2.096-0.688-3.136c-0.84-3.632-1.736-7.248-2.744-10.824c-0.088-0.304-0.184-0.6-0.272-0.904
	c-0.952-3.328-1.992-6.616-3.08-9.88c-0.344-1.04-0.704-2.08-1.064-3.112c-1.024-2.936-2.088-5.84-3.208-8.72
	c-0.24-0.616-0.456-1.24-0.704-1.848c-1.344-3.376-2.76-6.712-4.216-10.008c-0.424-0.952-0.856-1.888-1.288-2.832
	c-1.184-2.592-2.4-5.16-3.648-7.704c-0.272-0.56-0.528-1.144-0.808-1.704c32.704,18.744,71.584,51.472,71.584,101.296
	C352.016,293.472,309.216,319.624,276.416,329.392z"/>
<g>
</g>
<g>
</g>
<g>
</g>
<g>
</g>
<g>
</g>
<g>
</g>
<g>
</g>
<g>
</g>
<g>
</g>
<g>
</g>
<g>
</g>
<g>
</g>
<g>
</g>
<g>
</g>
<g>
</g>
</svg>
