<?xml version="1.0" encoding="iso-8859-1"?>
<!-- Generator: Adobe Illustrator 19.0.0, SVG Export Plug-In . SVG Version: 6.00 Build 0)  -->
<svg version="1.1" id="Capa_1" xmlns="http://www.w3.org/2000/svg" xmlns:xlink="http://www.w3.org/1999/xlink" x="0px" y="0px"
	 viewBox="0 0 384 384" style="enable-background:new 0 0 384 384;" xml:space="preserve">
<g>
	<path style="fill:#9DC85C;" d="M232.72,102.08c0,24.96-20.16,36.4-45.12,36.4c-24.88,0-45.04-11.44-45.04-36.4
		c0-25.04,20.16-45.36,45.04-45.36c1.2,0,2.32,0.08,3.52,0.16c19.12,1.44,34.88,14.88,39.92,32.88
		C232.16,93.68,232.72,97.84,232.72,102.08z"/>
	<path style="fill:#9DC85C;" d="M142.56,102.08c0,24.96-20.24,36.4-45.12,36.4s-45.12-11.44-45.12-36.4c0-4.24,0.56-8.4,1.68-12.24
		c5.04-18,20.8-31.52,39.92-32.96c1.2-0.08,2.32-0.16,3.52-0.16C122.32,56.72,142.56,77.04,142.56,102.08z"/>
</g>
<path style="fill:#99336A;" d="M170.88,268.96c0,12,2.08,23.44,6,34.08c-10.88,3.04-22.48,4.72-34.32,4.72
	C72.64,307.76,16,250.8,16,180.56c0-35.52,14.56-67.68,38-90.72c-1.12,3.84-1.68,8-1.68,12.24c0,24.96,20.24,36.4,45.12,36.4
	s45.12-11.44,45.12-36.4c0,24.96,20.16,36.4,45.04,36.4c24.96,0,45.12-11.44,45.12-36.4c0-4.24-0.56-8.4-1.68-12.32
	c19.6,19.28,33.04,44.96,36.88,73.68l0.56,6.48C214.48,170.48,170.88,214.64,170.88,268.96z"/>
<path style="fill:#69BE5D;" d="M191.12,56.88c-1.2-0.08-2.32-0.16-3.52-0.16c-24.88,0-45.04,20.32-45.04,45.36
	c0-25.04-20.24-45.36-45.12-45.36c-1.2,0-2.32,0.08-3.52,0.16C96.88,49.12,111.28,16,142.56,16C173.76,16,188.24,49.12,191.12,56.88
	z"/>
<path style="fill:#AD5C88;" d="M269.44,169.92h-0.96c-54,0.56-97.6,44.72-97.6,99.04c0,12,2.08,23.44,6,34.08
	c13.84,37.92,50.08,64.96,92.56,64.96c54.48,0,98.56-44.32,98.56-99.04C368,214.32,323.92,169.92,269.44,169.92z"/>
<path style="fill:#FFFCEC;" d="M310.32,268.96c0,22.72-18.24,41.12-40.88,41.12c-22.56,0-40.88-18.4-40.88-41.12
	s18.32-41.04,40.88-41.04C292.08,227.92,310.32,246.24,310.32,268.96z"/>
<g>
	<path style="fill:#603916;" d="M103.824,223.624c-0.176-0.128-17.944-12.992-17.68-31.968c0.128-8.832-6.936-16.096-15.776-16.224
		c-8.592,0-16.096,6.936-16.224,15.776c-0.504,36.12,30.144,57.8,31.448,58.696c2.784,1.928,5.952,2.856,9.104,2.856
		c5.072,0,10.056-2.4,13.168-6.88C112.88,238.632,111.088,228.664,103.824,223.624z"/>
	<path style="fill:#603916;" d="M282.616,154.744c-5.04-27.56-18.232-53.328-37.744-73.592
		c-6.936-19.12-22.864-33.528-42.544-38.488C194.744,27.336,176.48,0,142.56,0c-28.728,0-48.976,20.68-59.808,42.576
		C63.12,47.456,47.04,62.04,40.128,81.312C14.296,108.104,0,143.136,0,180.56c0,78.96,63.952,143.2,142.56,143.2
		c8.384,0,16.752-0.824,25.032-2.296C187.016,359.344,226.312,384,269.44,384C332.608,384,384,332.392,384,268.96
		C384,210.008,339.592,161.336,282.616,154.744z M215.656,94.152c0.704,2.48,1.064,5.152,1.064,7.928
		c0,16.864-15.832,20.4-29.12,20.4c-13.248,0-29.04-3.536-29.04-20.4c0-2.104,0.232-4.144,0.656-6.12
		c0.032-0.144,0.096-0.272,0.128-0.416c2.256-9.72,9.368-17.584,18.44-20.976c0.12-0.048,0.256-0.072,0.376-0.12
		c1.608-0.576,3.28-0.992,4.992-1.272c0.536-0.088,1.096-0.112,1.64-0.168c1.624-0.168,3.264-0.304,4.944-0.184
		c0.008,0,0.104,0.008,0.192,0.008C202.008,73.76,212.328,82.288,215.656,94.152z M142.56,32c10.152,0,17.896,6,23.392,12.704
		c-0.312,0.12-0.592,0.288-0.896,0.408c-1.456,0.584-2.88,1.24-4.28,1.936c-0.584,0.288-1.184,0.544-1.752,0.848
		c-1.944,1.04-3.832,2.168-5.648,3.408c-0.256,0.176-0.488,0.376-0.744,0.56c-1.544,1.088-3.04,2.248-4.48,3.472
		c-0.544,0.464-1.064,0.968-1.592,1.456c-1.104,1.016-2.184,2.056-3.208,3.144c-0.256,0.272-0.552,0.504-0.8,0.784
		c-0.272-0.296-0.584-0.552-0.856-0.84c-0.992-1.048-2.032-2.048-3.096-3.024c-0.56-0.512-1.104-1.04-1.68-1.536
		c-1.392-1.184-2.84-2.296-4.336-3.36c-0.304-0.216-0.584-0.456-0.888-0.664c-1.808-1.232-3.688-2.352-5.624-3.392
		c-0.584-0.312-1.192-0.568-1.784-0.864c-1.4-0.688-2.816-1.344-4.272-1.928c-0.304-0.12-0.584-0.288-0.896-0.4
		C124.656,37.968,132.416,32,142.56,32z M95.296,72.824c1.704-0.12,3.368,0.008,5.016,0.184c0.528,0.056,1.072,0.08,1.592,0.16
		c1.712,0.28,3.384,0.696,4.992,1.272c0.144,0.048,0.288,0.08,0.432,0.136c9.056,3.376,16.104,11.168,18.4,20.8
		c0.048,0.2,0.136,0.384,0.184,0.592c0.424,1.968,0.656,4.008,0.656,6.104c0,16.864-15.832,20.4-29.128,20.4
		c-13.28,0-29.12-3.536-29.12-20.4c0-2.736,0.36-5.424,1.088-7.928C72.728,82.312,83.056,73.744,95.296,72.824z M142.56,291.76
		C81.6,291.76,32,241.872,32,180.56c0-17.888,4.168-35.096,12.056-50.536c0.192,0.304,0.44,0.56,0.648,0.856
		c0.872,1.288,1.8,2.52,2.8,3.712c0.368,0.44,0.72,0.896,1.104,1.32c1.384,1.536,2.848,3.008,4.44,4.368
		c0.136,0.112,0.28,0.208,0.416,0.32c1.48,1.232,3.056,2.376,4.704,3.456c0.552,0.36,1.128,0.696,1.696,1.04
		c1.36,0.824,2.776,1.592,4.24,2.312c0.592,0.288,1.176,0.592,1.784,0.864c2.048,0.92,4.16,1.768,6.392,2.496
		c0.12,0.04,0.256,0.064,0.376,0.104c2.12,0.672,4.344,1.232,6.616,1.72c0.728,0.16,1.48,0.28,2.216,0.416
		c1.808,0.336,3.656,0.608,5.552,0.816c0.768,0.088,1.528,0.184,2.312,0.256c2.624,0.224,5.304,0.376,8.08,0.376
		c2.344,0,4.632-0.08,6.872-0.248c0.768-0.056,1.496-0.168,2.256-0.248c1.44-0.144,2.896-0.272,4.28-0.48
		c0.864-0.128,1.688-0.32,2.536-0.48c1.224-0.224,2.472-0.432,3.656-0.704c0.872-0.208,1.688-0.472,2.536-0.704
		c1.104-0.304,2.232-0.584,3.296-0.936c0.856-0.28,1.648-0.616,2.48-0.928c0.992-0.376,2.008-0.728,2.968-1.136
		c0.832-0.36,1.608-0.776,2.408-1.168c0.888-0.432,1.792-0.848,2.64-1.32c0.792-0.44,1.528-0.936,2.288-1.408
		c0.784-0.488,1.592-0.96,2.344-1.488c0.752-0.52,1.44-1.096,2.152-1.648c0.688-0.536,1.4-1.064,2.056-1.632
		c0.112-0.096,0.248-0.184,0.36-0.28c0.104,0.088,0.216,0.168,0.32,0.256c0.704,0.616,1.464,1.176,2.208,1.752
		c0.664,0.52,1.312,1.056,2.008,1.544c0.768,0.544,1.6,1.024,2.416,1.528c0.736,0.456,1.456,0.944,2.224,1.368
		c0.848,0.472,1.76,0.888,2.648,1.32c0.8,0.392,1.576,0.808,2.4,1.168c0.936,0.408,1.928,0.752,2.896,1.112
		c0.848,0.32,1.672,0.664,2.544,0.952c1.032,0.336,2.112,0.608,3.176,0.904c0.88,0.24,1.736,0.52,2.64,0.736
		c1.152,0.272,2.36,0.464,3.552,0.688c0.88,0.16,1.728,0.36,2.632,0.496c1.368,0.208,2.792,0.328,4.208,0.472
		c0.776,0.08,1.528,0.2,2.32,0.256c2.232,0.16,4.52,0.248,6.856,0.248c2.776,0,5.448-0.152,8.08-0.376
		c0.784-0.064,1.552-0.168,2.32-0.256c1.888-0.216,3.736-0.488,5.536-0.816c0.744-0.136,1.496-0.264,2.224-0.424
		c2.28-0.488,4.504-1.048,6.632-1.728c0.112-0.04,0.24-0.064,0.352-0.096c2.232-0.72,4.344-1.576,6.4-2.496
		c0.608-0.272,1.184-0.576,1.776-0.864c1.464-0.72,2.88-1.488,4.248-2.312c0.568-0.344,1.144-0.68,1.696-1.048
		c1.624-1.064,3.176-2.192,4.632-3.408c0.16-0.136,0.336-0.248,0.496-0.384c1.584-1.352,3.04-2.816,4.416-4.344
		c0.4-0.448,0.776-0.92,1.16-1.384c0.968-1.16,1.88-2.368,2.728-3.616c0.216-0.312,0.48-0.584,0.68-0.904
		c4.168,8.144,7.312,16.736,9.312,25.512c-0.896,0.152-1.76,0.4-2.648,0.576c-1.504,0.296-2.992,0.624-4.472,0.976
		c-2.048,0.488-4.064,1.032-6.064,1.632c-1.432,0.424-2.856,0.856-4.264,1.344c-2.008,0.688-3.976,1.448-5.928,2.248
		c-1.328,0.536-2.664,1.064-3.968,1.648c-2.008,0.904-3.968,1.904-5.912,2.928c-1.168,0.608-2.36,1.184-3.504,1.832
		c-2.168,1.232-4.256,2.568-6.336,3.936c-0.848,0.552-1.736,1.056-2.568,1.632c-2.88,2-5.672,4.112-8.352,6.36
		c-0.336,0.28-0.64,0.6-0.976,0.888c-2.312,1.984-4.568,4.04-6.72,6.2c-0.84,0.84-1.608,1.744-2.416,2.616
		c-1.576,1.68-3.136,3.368-4.616,5.144c-0.88,1.056-1.696,2.168-2.536,3.256c-1.296,1.68-2.576,3.368-3.784,5.112
		c-0.824,1.2-1.6,2.432-2.384,3.664c-1.104,1.736-2.176,3.496-3.184,5.296c-0.728,1.296-1.424,2.608-2.104,3.936
		c-0.936,1.832-1.824,3.68-2.664,5.56c-0.608,1.368-1.208,2.736-1.76,4.128c-0.776,1.936-1.472,3.904-2.144,5.888
		c-0.472,1.408-0.96,2.8-1.384,4.232c-0.616,2.088-1.128,4.208-1.624,6.344c-0.32,1.376-0.68,2.744-0.952,4.136
		c-0.464,2.384-0.792,4.808-1.104,7.24c-0.152,1.192-0.376,2.368-0.488,3.568c-0.352,3.656-0.56,7.36-0.56,11.104
		c0,3.576,0.176,7.112,0.496,10.632c0.104,1.168,0.312,2.32,0.456,3.48c0.28,2.328,0.568,4.664,0.992,6.96
		c0.048,0.264,0.064,0.528,0.112,0.792C152.168,291.448,147.368,291.76,142.56,291.76z M269.44,352
		c-34.488,0-65.64-21.88-77.536-54.496c-3.328-9.024-5.016-18.624-5.016-28.544c0-2.832,0.144-5.632,0.424-8.392
		c4.192-41.44,39.072-74.208,81.336-74.64h0.8c45.52,0,82.56,37.248,82.56,83.04S314.96,352,269.44,352z"/>
	<path style="fill:#603916;" d="M269.44,211.92c-31.36,0-56.872,25.584-56.872,57.04c0,31.496,25.512,57.12,56.872,57.12
		c31.368,0,56.88-25.624,56.88-57.12C326.32,237.504,300.808,211.92,269.44,211.92z M269.44,294.08
		c-13.72,0-24.872-11.264-24.872-25.12c0-13.808,11.16-25.04,24.872-25.04s24.88,11.232,24.88,25.04
		C294.32,282.816,283.16,294.08,269.44,294.08z"/>
</g>
<g>
</g>
<g>
</g>
<g>
</g>
<g>
</g>
<g>
</g>
<g>
</g>
<g>
</g>
<g>
</g>
<g>
</g>
<g>
</g>
<g>
</g>
<g>
</g>
<g>
</g>
<g>
</g>
<g>
</g>
</svg>
