<?xml version="1.0" encoding="iso-8859-1"?>
<!-- Generator: Adobe Illustrator 19.0.0, SVG Export Plug-In . SVG Version: 6.00 Build 0)  -->
<svg version="1.1" id="Capa_1" xmlns="http://www.w3.org/2000/svg" xmlns:xlink="http://www.w3.org/1999/xlink" x="0px" y="0px"
	 viewBox="0 0 384 384" style="enable-background:new 0 0 384 384;" xml:space="preserve">
<path style="fill:#9DC85C;" d="M354.472,136.64c0,20.4,11.2,43.92,1.68,60.4c-2.32,3.92-5.52,7.12-9.28,9.68
	c-10.88,7.52-26.48,10.64-38.96,16.4c2.16-12.4,3.2-24.4-2.4-34.08c-2.8-4.8-6.88-7.92-11.6-10.16l-7.12-1.2
	c-0.56-20.64-7.76-39.6-19.68-54.8c-17.28-22.32-44.48-36.72-75.04-36.72c-51.12,0-92.8,40.24-94.72,90.56l-7.68,2.48
	c-4.48,2.16-8.32,5.2-11.04,9.84c-5.68,9.68-4.56,21.68-2.4,34.16c-13.04-6-29.52-9.2-40.48-17.44c-3.2-2.4-5.92-5.28-7.92-8.72
	c-9.52-16.48,1.76-40,1.76-60.4c0-20.32-11.28-43.84-1.76-60.32c9.92-16.96,36.4-11.28,53.44-21.12c16.56-9.44,31.2-39.2,51.68-39.2
	s35.2,29.76,51.76,39.2c2.24,1.36,4.72,2.4,7.28,3.2l0.56-0.16c2.4-0.8,4.64-1.76,6.8-3.04c16.56-9.44,31.2-39.2,51.68-39.2
	c20.48,0,35.2,29.76,51.68,39.2c17.04,9.84,43.6,4.16,53.44,21.12C365.672,92.8,354.472,116.32,354.472,136.64z"/>
<g>
	<path style="fill:#69BE5D;" d="M305.512,319.28c-10.64,18.32-39.28,20.4-57.68,30.96c-17.84,10.32-33.68,17.76-55.76,17.76
		s-37.92-7.44-55.76-17.76c-18.4-10.56-47.04-12.64-57.68-30.96c-4.4-7.6-4.72-16.64-3.6-26.16c1.44-12.72,5.44-26.4,5.44-38.96
		c0-10-2.48-20.64-4.24-30.96c-2.16-12.48-3.28-24.48,2.4-34.16c2.72-4.64,6.56-7.68,11.04-9.84l7.68-2.48
		c-0.08,1.2-0.08,2.4-0.08,3.6v0.56c0.32,51.76,42.64,84.88,94.8,84.88c13.44,0,26.16-2.16,37.76-6.32
		c33.6-12,57.04-40.4,57.04-79.12c0-0.88,0-1.76-0.08-2.64l7.12,1.2c4.72,2.24,8.8,5.36,11.6,10.16c5.6,9.68,4.56,21.68,2.4,34.08
		c-1.76,10.32-4.24,21.04-4.24,31.04c0,12.56,4,26.32,5.44,39.04C310.232,302.72,309.912,311.68,305.512,319.28z"/>
	<path style="fill:#69BE5D;" d="M267.112,122.88c-2.16,0.32-42.24,5.84-56.56,39.2c-12.32,28.64-22.08,33.68-34.48,36.24h-0.08
		c-28.16-28-69.6-19.44-69.6-19.44l-9.12,2v-0.56c0-1.2,0-2.4,0.08-3.6c1.92-50.32,43.6-90.56,94.72-90.56
		C222.632,86.16,249.832,100.56,267.112,122.88z"/>
</g>
<g>
	<path style="fill:#9DC85C;" d="M286.872,180.32c0,38.72-23.44,67.12-57.04,79.12c-14-7.52-27.6-27.36-47.04-53.44
		c-2.08-2.8-4.32-5.36-6.72-7.68c12.4-2.56,22.16-7.6,34.48-36.24c14.32-33.36,54.4-38.88,56.56-39.2
		c11.92,15.2,19.12,34.16,19.68,54.8C286.872,178.56,286.872,179.44,286.872,180.32z"/>
	<path style="fill:#9DC85C;" d="M229.832,259.44c-11.6,4.16-24.32,6.32-37.76,6.32c-52.16,0-94.48-33.12-94.8-84.88l9.12-2
		c0,0,41.44-8.56,69.6,19.44h0.08c2.4,2.32,4.64,4.88,6.72,7.68C202.232,232.08,215.832,251.92,229.832,259.44z"/>
</g>
<g>
	<path style="fill:#69BE5D;" d="M80.472,254.16c0,12.56-4,26.24-5.44,38.96l-3.36-0.64c-64.56-14-41.92-70-41.92-70l6-16.72
		c10.96,8.24,27.44,11.44,40.48,17.44C77.992,233.52,80.472,244.16,80.472,254.16z"/>
	<path style="fill:#69BE5D;" d="M312.312,292.48l-3.2,0.72c-1.44-12.72-5.44-26.48-5.44-39.04c0-10,2.48-20.72,4.24-31.04
		c12.48-5.76,28.08-8.88,38.96-16.4l7.36,15.76C354.232,222.48,376.952,278.48,312.312,292.48z"/>
</g>
<path style="fill:#603916;" d="M372.992,156.104c-1.296-7.048-2.52-13.712-2.52-19.464c0-5.712,1.224-12.352,2.52-19.376
	c2.864-15.552,6.12-33.176-3-48.968c-9.632-16.608-27.08-19.624-41.104-22.04c-7.096-1.224-13.8-2.376-18.224-4.936
	c-4.144-2.368-9.504-8.2-14.688-13.84C284.728,15.232,270.728,0,251.032,0c-19.664,0-33.624,15.192-44.84,27.4
	c-4.872,5.312-9.904,10.792-14.168,13.528c-4.088-2.576-9.208-8.136-14.168-13.528C166.6,15.192,152.608,0,132.952,0
	c-19.664,0-33.624,15.192-44.84,27.4c-5.2,5.664-10.584,11.52-14.832,13.944c-4.384,2.528-11.08,3.688-18.168,4.912
	C41.12,48.672,23.704,51.68,13.984,68.32c-9.112,15.76-5.832,33.376-2.936,48.92c1.312,7.032,2.544,13.68,2.544,19.4
	c0,5.752-1.24,12.424-2.552,19.488c-2.888,15.544-6.168,33.16,2.96,48.952c0.944,1.624,2.192,3.088,3.352,4.592l-2.44,6.816
	c-1.248,3.104-11.848,31.056,1.984,57.208C24.84,288.72,38.8,299.36,58.632,305.528c0.408,6.952,1.976,14.552,6.16,21.784
	c9.912,17.08,28.296,23.44,44.504,29.048c7.168,2.48,13.936,4.824,18.992,7.72c17.416,10.088,36.68,19.92,63.784,19.92
	c27.096,0,46.368-9.832,63.728-19.88c5.112-2.936,11.88-5.272,19.048-7.752c16.208-5.616,34.592-11.976,44.504-29.048
	c0.008-0.008,0.008-0.008,0.008-0.016c4.192-7.24,5.752-14.84,6.152-21.776c19.664-6.112,33.664-16.784,41.616-31.84
	c13.824-26.16,3.184-54.112,1.928-57.208c-0.104-0.256-0.208-0.504-0.328-0.752l-2.488-5.336c1.36-1.696,2.648-3.448,3.76-5.328
	C379.112,189.288,375.856,171.656,372.992,156.104z M207.272,69.104c8.512-4.848,15.608-12.576,22.48-20.048
	c6.984-7.6,15.672-17.056,21.28-17.056c5.64,0,14.376,9.496,21.392,17.128c6.832,7.432,13.896,15.12,22.288,19.928
	c9.32,5.384,19.64,7.168,28.744,8.736c10.104,1.744,16.872,3.144,18.84,6.536c3.2,5.552,1.176,16.52-0.776,27.128
	c-1.496,8.128-3.048,16.544-3.048,25.184c0,8.672,1.552,17.104,3.056,25.256c1.952,10.616,3.976,21.592,0.84,27.016
	c-0.992,1.68-2.504,3.224-4.584,4.64c-1.512,1.04-3.296,1.992-5.184,2.896c-0.576,0.28-1.192,0.544-1.8,0.816
	c-1.496,0.664-3.04,1.304-4.672,1.928c-0.288,0.112-0.568,0.224-0.864,0.328c-0.04-0.36-0.12-0.712-0.168-1.072
	c-0.088-0.68-0.2-1.36-0.32-2.032c-0.192-1.112-0.424-2.216-0.688-3.32c-0.152-0.64-0.312-1.288-0.488-1.928
	c-0.344-1.2-0.76-2.384-1.208-3.576c-0.2-0.528-0.368-1.048-0.584-1.576c-0.712-1.704-1.52-3.392-2.48-5.048
	c-1.016-1.736-2.16-3.368-3.416-4.92c-0.48-0.592-1.064-1.112-1.584-1.68c-0.84-0.912-1.648-1.848-2.576-2.688
	c-0.664-0.6-1.416-1.12-2.128-1.68c-0.904-0.72-1.784-1.456-2.76-2.112c-0.8-0.536-1.688-0.992-2.544-1.488
	c-0.856-0.496-1.648-1.04-2.56-1.496c-0.16-1.136-0.392-2.256-0.584-3.384c-0.16-0.92-0.296-1.856-0.48-2.776
	c-0.456-2.296-0.984-4.568-1.584-6.816c-0.08-0.288-0.128-0.592-0.208-0.88c-0.704-2.56-1.52-5.088-2.408-7.584
	c-0.24-0.672-0.52-1.336-0.776-2.008c-0.696-1.832-1.424-3.648-2.216-5.432c-0.344-0.776-0.712-1.552-1.072-2.32
	c-0.8-1.696-1.64-3.368-2.528-5.016c-0.392-0.728-0.784-1.464-1.192-2.184c-1.008-1.776-2.08-3.52-3.184-5.24
	c-0.344-0.536-0.672-1.08-1.024-1.616c-1.28-1.904-2.624-3.776-4.032-5.608c-0.08-0.12-0.176-0.232-0.256-0.352
	c-0.16-0.2-0.296-0.416-0.456-0.616c-0.024-0.032-0.048-0.056-0.072-0.08l0,0l0,0c-2.472-3.192-5.12-6.2-7.88-9.064
	c-0.936-0.968-1.944-1.832-2.904-2.768c-1.92-1.856-3.848-3.68-5.88-5.384c-1.2-1-2.448-1.92-3.688-2.864
	c-1.92-1.472-3.856-2.904-5.856-4.24c-1.352-0.904-2.736-1.744-4.128-2.584c-2.008-1.216-4.04-2.368-6.128-3.448
	c-1.448-0.752-2.904-1.48-4.392-2.168c-2.144-1-4.328-1.896-6.536-2.752c-1.488-0.576-2.96-1.16-4.472-1.672
	c-2.368-0.8-4.776-1.464-7.208-2.104c-1.416-0.376-2.816-0.8-4.248-1.112c-2.904-0.64-5.856-1.104-8.824-1.512
	c-1.008-0.136-1.992-0.36-3.008-0.472c-0.144-0.016-0.288-0.056-0.432-0.072C205.224,70.256,206.28,69.688,207.272,69.104z
	 M270.872,180.32c0,3.56-0.28,7.024-0.768,10.408c-0.16,1.128-0.472,2.192-0.688,3.296c-0.432,2.208-0.872,4.416-1.512,6.536
	c-0.376,1.256-0.888,2.44-1.336,3.664c-0.688,1.872-1.384,3.736-2.24,5.52c-0.592,1.232-1.28,2.4-1.944,3.584
	c-0.928,1.656-1.888,3.296-2.96,4.864c-0.792,1.152-1.648,2.248-2.512,3.344c-1.16,1.472-2.368,2.912-3.664,4.288
	c-0.968,1.032-1.984,2.032-3.032,3.008c-1.392,1.296-2.856,2.536-4.376,3.736c-1.136,0.896-2.288,1.776-3.496,2.608
	c-1.624,1.12-3.344,2.152-5.088,3.16c-1.28,0.736-2.552,1.488-3.896,2.16c-0.512,0.256-1.08,0.456-1.6,0.696
	c-0.392-0.344-0.776-0.648-1.176-1.016c-0.384-0.352-0.768-0.704-1.152-1.088c-0.952-0.928-1.928-1.936-2.928-3
	c-0.288-0.312-0.576-0.592-0.872-0.92c-1.328-1.448-2.68-2.992-4.064-4.656c-0.08-0.088-0.16-0.192-0.24-0.288
	c-1.304-1.552-2.632-3.2-3.992-4.912c-0.416-0.528-0.84-1.072-1.264-1.616c-1.056-1.352-2.128-2.728-3.216-4.152
	c-0.48-0.632-0.968-1.264-1.456-1.912c-1.136-1.496-2.28-3.024-3.448-4.584c-0.4-0.536-0.792-1.056-1.192-1.592
	c-1.536-2.056-3.08-4.152-4.664-6.288l-0.752-1.008c0.264-0.216,0.528-0.472,0.792-0.688c0.656-0.552,1.312-1.112,1.96-1.72
	c0.376-0.352,0.744-0.728,1.12-1.096c0.608-0.6,1.208-1.216,1.816-1.864c0.392-0.424,0.784-0.88,1.176-1.328
	c0.576-0.664,1.144-1.344,1.72-2.056c0.4-0.504,0.8-1.016,1.2-1.544c0.56-0.736,1.112-1.504,1.664-2.296
	c0.4-0.576,0.808-1.152,1.208-1.76c0.552-0.832,1.104-1.712,1.656-2.6c0.392-0.64,0.792-1.272,1.184-1.944
	c0.56-0.952,1.12-1.96,1.672-2.976c0.384-0.696,0.768-1.368,1.152-2.096c0.6-1.136,1.192-2.352,1.792-3.56
	c0.336-0.688,0.68-1.344,1.016-2.056c0.928-1.96,1.856-4.008,2.792-6.176c0.808-1.88,1.768-3.608,2.8-5.256
	c0.296-0.472,0.6-0.928,0.912-1.376c0.848-1.248,1.744-2.432,2.696-3.544c0.288-0.336,0.552-0.688,0.848-1.016
	c1.232-1.36,2.52-2.632,3.872-3.808c0.296-0.264,0.616-0.496,0.92-0.744c1.112-0.928,2.256-1.8,3.416-2.608
	c0.4-0.28,0.8-0.56,1.208-0.832c1.36-0.904,2.736-1.752,4.12-2.504c0.072-0.04,0.152-0.088,0.224-0.128
	c1.504-0.816,3-1.536,4.472-2.2c0.344-0.152,0.688-0.296,1.024-0.448c1.216-0.528,2.416-1.008,3.576-1.44
	c0.232-0.088,0.472-0.184,0.696-0.264c1.392-0.504,2.744-0.944,4-1.32c0.136,0.232,0.288,0.464,0.424,0.704
	c1.424,2.448,2.728,4.96,3.864,7.544c0.2,0.448,0.36,0.912,0.552,1.36c0.984,2.36,1.848,4.768,2.592,7.224
	c0.144,0.48,0.32,0.96,0.456,1.44c0.76,2.704,1.352,5.464,1.816,8.256c0.104,0.632,0.192,1.272,0.28,1.912
	c0.408,2.896,0.712,5.816,0.792,8.784c0.008,0.24,0.048,0.856,0.064,1.096C270.888,179.576,270.872,179.944,270.872,180.32z
	 M184.024,249.448c-0.856-0.064-1.688-0.184-2.528-0.264c-1.76-0.176-3.512-0.36-5.224-0.624c-0.96-0.144-1.896-0.336-2.84-0.512
	c-1.552-0.288-3.104-0.584-4.608-0.944c-0.944-0.224-1.864-0.472-2.792-0.728c-1.48-0.4-2.936-0.832-4.368-1.296
	c-0.856-0.28-1.704-0.576-2.544-0.88c-1.48-0.544-2.928-1.12-4.352-1.736c-0.712-0.304-1.432-0.608-2.128-0.928
	c-1.592-0.736-3.128-1.536-4.64-2.368c-0.472-0.256-0.96-0.504-1.424-0.776c-16.76-9.744-28.176-25.24-31.928-44.456
	c0.016,0,0.032,0,0.048-0.008c1.208-0.096,2.592-0.176,4.128-0.224c0.104,0,0.208,0,0.312-0.008c1.52-0.04,3.192-0.032,4.96,0.032
	c0.12,0,0.232,0,0.36,0.008c1.8,0.072,3.72,0.224,5.704,0.448c0.296,0.032,0.608,0.08,0.912,0.12
	c1.84,0.232,3.728,0.536,5.664,0.936c0.232,0.048,0.448,0.08,0.68,0.128c2.032,0.44,4.112,1.024,6.192,1.696
	c0.464,0.152,0.936,0.32,1.4,0.488c1.952,0.688,3.896,1.472,5.832,2.4c0.2,0.096,0.408,0.168,0.608,0.272
	c2.048,1.016,4.048,2.232,6.024,3.56c0.48,0.328,0.96,0.672,1.44,1.016c1.992,1.448,3.952,3.016,5.792,4.856
	c0.16,0.16,0.32,0.296,0.488,0.44c1.68,1.648,3.28,3.456,4.768,5.456l6.416,8.648c1.968,2.656,3.864,5.216,5.72,7.704
	c0.552,0.744,1.096,1.456,1.64,2.184c1.352,1.8,2.688,3.568,3.984,5.272c0.648,0.848,1.304,1.696,1.944,2.52
	c1.2,1.552,2.384,3.048,3.56,4.512c0.616,0.768,1.24,1.552,1.848,2.304c0.24,0.296,0.488,0.616,0.728,0.912
	c-1.248,0.04-2.472,0.152-3.728,0.152C189.336,249.76,186.656,249.648,184.024,249.448z M118.192,153.16
	c0.584-1.568,1.184-3.128,1.864-4.648c0.352-0.8,0.752-1.568,1.136-2.352c0.648-1.32,1.304-2.632,2.024-3.912
	c0.456-0.808,0.928-1.6,1.408-2.392c0.736-1.208,1.496-2.392,2.296-3.552c0.528-0.768,1.064-1.528,1.616-2.28
	c0.848-1.144,1.736-2.256,2.64-3.352c0.576-0.696,1.136-1.392,1.736-2.064c1.008-1.144,2.08-2.232,3.152-3.304
	c0.552-0.552,1.088-1.136,1.656-1.672c1.528-1.44,3.12-2.816,4.76-4.136c0.16-0.128,0.304-0.272,0.464-0.4
	c1.808-1.424,3.696-2.768,5.632-4.032c0.616-0.4,1.264-0.76,1.896-1.144c1.352-0.832,2.712-1.648,4.112-2.4
	c0.792-0.424,1.6-0.8,2.408-1.2c1.296-0.64,2.608-1.256,3.944-1.824c0.872-0.368,1.76-0.712,2.648-1.056
	c1.336-0.512,2.68-0.984,4.048-1.424c0.912-0.288,1.824-0.576,2.752-0.84c1.416-0.4,2.856-0.744,4.304-1.064
	c0.912-0.2,1.808-0.416,2.728-0.584c1.6-0.296,3.224-0.512,4.856-0.712c0.792-0.096,1.576-0.232,2.376-0.304
	c2.448-0.224,4.92-0.36,7.424-0.36c3.648,0,7.24,0.32,10.784,0.8c1.08,0.144,2.136,0.36,3.2,0.552
	c2.528,0.448,5.016,1.008,7.464,1.688c1.088,0.304,2.184,0.6,3.256,0.952c2.792,0.912,5.512,1.976,8.176,3.192
	c0.544,0.248,1.12,0.432,1.656,0.696c3.104,1.504,6.08,3.248,8.968,5.16c0.256,0.168,0.496,0.376,0.752,0.544
	c-0.392,0.184-0.792,0.408-1.184,0.6c-1.032,0.496-2.056,1.016-3.104,1.56c-0.808,0.424-1.616,0.864-2.424,1.328
	c-1.024,0.576-2.048,1.184-3.072,1.824c-0.832,0.512-1.648,1.032-2.48,1.576c-1.016,0.672-2.008,1.376-3.016,2.104
	c-0.824,0.6-1.64,1.192-2.456,1.832c-0.992,0.776-1.96,1.608-2.936,2.44c-0.792,0.68-1.584,1.352-2.36,2.08
	c-0.96,0.896-1.888,1.864-2.824,2.832c-0.736,0.76-1.48,1.504-2.2,2.304c-0.936,1.056-1.824,2.2-2.72,3.336
	c-0.648,0.824-1.312,1.6-1.928,2.464c-0.944,1.312-1.816,2.736-2.688,4.152c-0.488,0.792-1.016,1.528-1.488,2.344
	c-1.296,2.288-2.512,4.688-3.6,7.232c-0.784,1.816-1.528,3.464-2.264,5.032c-0.192,0.416-0.384,0.8-0.576,1.2
	c-0.552,1.144-1.088,2.232-1.616,3.248c-0.184,0.36-0.368,0.72-0.552,1.064c-0.616,1.16-1.224,2.248-1.816,3.248
	c-0.048,0.088-0.104,0.184-0.152,0.272c-0.656,1.104-1.296,2.088-1.92,3c-0.12,0.168-0.232,0.32-0.344,0.48
	c-0.488,0.696-0.976,1.336-1.44,1.928c-0.16,0.192-0.312,0.384-0.464,0.568c-0.464,0.544-0.912,1.048-1.36,1.504
	c-0.112,0.112-0.224,0.24-0.328,0.344c-0.552,0.544-1.088,1.024-1.616,1.448c-0.08,0.064-0.152,0.112-0.232,0.168
	c-0.44,0.344-0.88,0.648-1.312,0.912c-0.064,0.04-0.128,0.08-0.2,0.12c-0.192-0.152-0.4-0.264-0.592-0.416
	c-2.152-1.64-4.336-3.152-6.544-4.52c-0.824-0.512-1.656-0.928-2.48-1.408c-1.624-0.928-3.248-1.84-4.888-2.64
	c-0.96-0.472-1.912-0.872-2.872-1.296c-1.52-0.672-3.04-1.328-4.56-1.904c-0.992-0.376-1.984-0.712-2.976-1.056
	c-1.488-0.504-2.96-0.976-4.432-1.392c-0.984-0.28-1.952-0.544-2.92-0.792c-1.472-0.368-2.928-0.696-4.368-0.992
	c-0.92-0.184-1.824-0.376-2.728-0.536c-1.504-0.264-2.96-0.472-4.408-0.664c-0.792-0.104-1.592-0.224-2.36-0.312
	c-1.632-0.176-3.192-0.304-4.744-0.4c-0.528-0.032-1.088-0.096-1.608-0.12c-2.056-0.104-4.024-0.16-5.888-0.16
	c-0.008,0-0.024,0-0.032,0c-0.128,0-0.232,0.008-0.368,0.008c-1.768,0.008-3.424,0.048-4.976,0.128
	c-0.128,0.008-0.288,0-0.416,0.008c0.56-2.296,1.216-4.552,1.976-6.76C117.688,154.416,117.96,153.792,118.192,153.16z
	 M41.648,84.392c2.024-3.456,8.8-4.856,18.904-6.608c9.096-1.568,19.4-3.352,28.64-8.688c8.512-4.848,15.608-12.576,22.48-20.048
	C118.656,41.456,127.344,32,132.952,32c5.624,0,14.352,9.472,21.36,17.08c6.864,7.464,13.976,15.176,22.088,19.792
	c1.136,0.688,2.312,1.336,3.544,1.936c-3.224,0.344-6.4,0.832-9.528,1.44c-0.6,0.12-1.176,0.296-1.776,0.424
	c-2.696,0.576-5.368,1.208-7.992,1.976c-1.16,0.336-2.288,0.752-3.432,1.12c-2.008,0.656-4,1.328-5.96,2.096
	c-1.28,0.504-2.528,1.048-3.784,1.6c-1.752,0.76-3.48,1.552-5.184,2.4c-1.304,0.648-2.592,1.32-3.864,2.016
	c-1.568,0.856-3.096,1.76-4.616,2.688c-1.304,0.8-2.6,1.6-3.872,2.448c-1.376,0.928-2.704,1.912-4.04,2.896
	c-1.304,0.96-2.624,1.904-3.88,2.92c-1.112,0.904-2.16,1.872-3.24,2.816c-5.312,4.64-10.152,9.768-14.48,15.344
	c-0.512,0.656-1.048,1.288-1.544,1.96c-1.328,1.792-2.552,3.648-3.768,5.52c-0.504,0.776-1.024,1.544-1.512,2.336
	c-1.168,1.896-2.248,3.832-3.296,5.8c-0.44,0.824-0.872,1.648-1.288,2.488c-1,2.008-1.952,4.04-2.832,6.12
	c-0.36,0.848-0.688,1.712-1.032,2.568c-0.84,2.12-1.64,4.256-2.352,6.44c-0.28,0.856-0.504,1.728-0.76,2.592
	c-0.664,2.232-1.32,4.464-1.84,6.752c-0.2,0.864-0.32,1.76-0.496,2.632c-0.456,2.256-0.944,4.496-1.264,6.8
	c-1.024,0.504-1.928,1.112-2.888,1.672c-0.776,0.456-1.6,0.864-2.336,1.352c-1.04,0.696-1.968,1.496-2.92,2.264
	c-0.608,0.496-1.28,0.936-1.856,1.456c-0.984,0.896-1.848,1.896-2.736,2.88c-0.44,0.488-0.944,0.928-1.36,1.44
	c-1.248,1.536-2.376,3.168-3.392,4.888c-0.96,1.64-1.768,3.312-2.488,5c-0.24,0.56-0.424,1.128-0.632,1.696
	c-0.432,1.136-0.832,2.28-1.168,3.44c-0.192,0.664-0.352,1.336-0.512,2.008c-0.256,1.08-0.488,2.16-0.672,3.248
	c-0.12,0.704-0.232,1.4-0.32,2.104c-0.048,0.384-0.136,0.768-0.176,1.16c-1.392-0.52-2.776-1.04-4.072-1.576
	c-0.208-0.088-0.392-0.176-0.592-0.264c-1.376-0.584-2.664-1.192-3.904-1.816c-0.392-0.2-0.776-0.4-1.152-0.608
	c-1.312-0.72-2.552-1.464-3.632-2.264c-0.04-0.032-0.096-0.056-0.136-0.088c-1.656-1.248-2.864-2.544-3.68-3.944
	c-3.184-5.52-1.16-16.472,0.816-27.056c1.52-8.176,3.096-16.632,3.096-25.336c0-8.672-1.568-17.104-3.088-25.264
	C40.528,100.8,38.496,89.848,41.648,84.392z M45.264,258.896c-6.536-12.152-1.736-27.384-0.648-30.472
	c0.552,0.216,1.112,0.392,1.664,0.608c3.16,1.208,6.328,2.352,9.48,3.456c2.168,0.752,4.256,1.496,6.288,2.24
	c0.032,0.192,0.064,0.376,0.104,0.568c0.576,3.152,1.112,6.224,1.528,9.176c0.04,0.304,0.064,0.592,0.104,0.888
	c0.4,3.072,0.688,6.04,0.688,8.808c0,2.624-0.272,5.448-0.648,8.36c-0.048,0.36-0.072,0.696-0.128,1.064
	c-0.4,2.896-0.928,5.912-1.496,9.008c-0.016,0.088-0.032,0.184-0.048,0.272C54.096,269.448,48.432,264.776,45.264,258.896z
	 M291.672,311.256c-3.952,6.784-15.288,10.712-27.296,14.864c-8.248,2.856-16.784,5.808-24.552,10.272
	C222.328,346.512,209.528,352,192.072,352c-17.472,0-30.248-5.488-47.8-15.64c-7.72-4.432-16.248-7.384-24.504-10.24
	c-12.016-4.16-23.36-8.08-27.296-14.856c-1.96-3.4-2.464-8.568-1.544-16.344c0.496-4.352,1.352-9,2.264-13.928
	c1.608-8.68,3.272-17.656,3.272-26.832c0-2.248-0.104-4.488-0.28-6.704c-0.064-0.824-0.176-1.632-0.256-2.448
	c-0.144-1.392-0.272-2.784-0.456-4.168c-0.144-1.048-0.312-2.088-0.472-3.128c-0.176-1.136-0.344-2.28-0.536-3.408
	c-0.248-1.48-0.512-2.944-0.776-4.408c-0.064-0.328-0.112-0.664-0.176-0.992c0.152,0.272,0.328,0.528,0.48,0.792
	c0.32,0.568,0.672,1.112,1.008,1.672c1.224,2.056,2.528,4.056,3.896,6.008c0.432,0.616,0.856,1.24,1.304,1.84
	c1.736,2.344,3.552,4.632,5.504,6.816c0.248,0.28,0.528,0.544,0.784,0.824c1.752,1.912,3.584,3.752,5.496,5.528
	c0.584,0.552,1.176,1.088,1.784,1.624c2.064,1.832,4.192,3.6,6.416,5.272c0.176,0.136,0.344,0.28,0.52,0.408
	c2.4,1.776,4.92,3.424,7.496,5.008c0.68,0.416,1.376,0.816,2.072,1.224c2.184,1.272,4.424,2.472,6.72,3.6
	c0.544,0.264,1.064,0.552,1.608,0.808c2.784,1.312,5.648,2.504,8.584,3.6c0.696,0.256,1.408,0.488,2.112,0.736
	c2.416,0.848,4.88,1.624,7.392,2.328c0.784,0.216,1.552,0.448,2.344,0.656c3.12,0.808,6.304,1.512,9.56,2.08
	c0.544,0.096,1.104,0.16,1.656,0.248c2.8,0.456,5.656,0.816,8.544,1.088c0.928,0.088,1.848,0.176,2.784,0.248
	c3.448,0.256,6.928,0.44,10.48,0.44c3.808,0,7.568-0.152,11.28-0.456c7.424-0.608,14.648-1.824,21.624-3.64
	c0.432-0.112,0.848-0.28,1.28-0.392c3.032-0.824,6.04-1.712,8.968-2.768c0,0,0,0,0.008,0s0.008,0,0.016-0.008
	c0,0,0.008,0,0.008-0.008c2.864-1.024,5.632-2.168,8.344-3.384c0.888-0.4,1.728-0.84,2.6-1.256c1.816-0.872,3.608-1.768,5.352-2.728
	c0.968-0.536,1.904-1.088,2.848-1.648c1.592-0.944,3.144-1.912,4.672-2.928c0.92-0.608,1.824-1.224,2.72-1.864
	c1.52-1.08,2.992-2.216,4.432-3.368c0.784-0.624,1.576-1.232,2.336-1.872c1.688-1.432,3.312-2.936,4.888-4.464
	c0.432-0.416,0.888-0.808,1.312-1.232c1.968-1.976,3.832-4.04,5.608-6.16c0.472-0.56,0.896-1.16,1.352-1.728
	c1.28-1.6,2.52-3.224,3.688-4.896c0.56-0.8,1.08-1.632,1.616-2.448c0.992-1.52,1.952-3.056,2.856-4.632
	c0.248-0.432,0.544-0.84,0.792-1.28c-0.168,0.928-0.328,1.864-0.496,2.8c-0.152,0.84-0.304,1.68-0.448,2.528
	c-0.232,1.36-0.44,2.736-0.648,4.112c-0.136,0.88-0.28,1.76-0.4,2.64c-0.2,1.464-0.336,2.936-0.488,4.408
	c-0.08,0.776-0.184,1.544-0.24,2.312c-0.176,2.24-0.28,4.496-0.28,6.768c0,9.184,1.664,18.192,3.272,26.904
	c0.912,4.928,1.776,9.592,2.272,14.016C294.128,302.72,293.632,307.864,291.672,311.256z M338.752,258.888
	c-3.144,5.848-8.76,10.512-16.776,13.928c-0.016-0.064-0.024-0.128-0.032-0.2c-0.576-3.128-1.096-6.168-1.504-9.088
	c-0.048-0.336-0.072-0.664-0.12-1c-0.376-2.92-0.648-5.744-0.648-8.368c0-2.776,0.288-5.744,0.688-8.832
	c0.04-0.312,0.064-0.6,0.104-0.912c0.424-3.032,0.968-6.176,1.56-9.416c0.024-0.12,0.04-0.24,0.064-0.368
	c2.032-0.744,4.12-1.48,6.288-2.24c3.088-1.072,6.2-2.2,9.304-3.384c0.552-0.208,1.104-0.384,1.656-0.6l0.136,0.28
	C340.304,231.024,345.392,246.544,338.752,258.888z"/>
<g>
</g>
<g>
</g>
<g>
</g>
<g>
</g>
<g>
</g>
<g>
</g>
<g>
</g>
<g>
</g>
<g>
</g>
<g>
</g>
<g>
</g>
<g>
</g>
<g>
</g>
<g>
</g>
<g>
</g>
</svg>
