<?xml version="1.0" encoding="iso-8859-1"?>
<!-- Generator: Adobe Illustrator 19.0.0, SVG Export Plug-In . SVG Version: 6.00 Build 0)  -->
<svg version="1.1" id="Capa_1" xmlns="http://www.w3.org/2000/svg" xmlns:xlink="http://www.w3.org/1999/xlink" x="0px" y="0px"
	 viewBox="0 0 384 384" style="enable-background:new 0 0 384 384;" xml:space="preserve">
<circle style="fill:#9DC85C;" cx="192" cy="192" r="176"/>
<circle style="fill:#FFF9BB;" cx="192" cy="192" r="60.968"/>
<g>
	<path style="fill:#603916;" d="M192,0C86.128,0,0,86.128,0,192s86.128,192,192,192s192-86.128,192-192S297.872,0,192,0z M192,352
		c-88.224,0-160-71.776-160-160S103.776,32,192,32s160,71.776,160,160S280.224,352,192,352z"/>
	<path style="fill:#603916;" d="M286.096,176h-18.824c-2.168-10.2-6.368-19.64-12.144-27.912l13.624-13.656
		c6.24-6.256,6.232-16.384-0.024-22.624c-6.248-6.24-16.384-6.232-22.624,0.016l-14.352,14.384
		c-7.24-4.392-15.208-7.672-23.744-9.48V102.64c0-8.832-7.168-16-16-16s-16,7.168-16,16v14.088
		c-8.528,1.816-16.504,5.096-23.744,9.48l-14.352-14.384c-6.24-6.248-16.376-6.264-22.624-0.016
		c-6.256,6.24-6.264,16.368-0.024,22.624l13.624,13.648c-5.776,8.28-9.984,17.712-12.144,27.912h-18.84c-8.832,0-16,7.168-16,16
		s7.168,16,16,16h18.84c2.168,10.2,6.376,19.64,12.152,27.92l-13.624,13.64c-6.248,6.256-6.24,16.384,0.008,22.632
		c3.128,3.12,7.216,4.68,11.312,4.68s8.192-1.568,11.32-4.688l14.368-14.384c7.232,4.384,15.208,7.664,23.736,9.48v14.088
		c0,8.832,7.168,16,16,16s16-7.168,16-16v-14.088c8.528-1.808,16.504-5.088,23.736-9.48l14.368,14.384
		c3.128,3.128,7.224,4.688,11.32,4.688c4.088,0,8.184-1.56,11.312-4.68c6.248-6.248,6.256-16.376,0.008-22.632l-13.624-13.64
		c5.776-8.28,9.984-17.72,12.152-27.92h18.824c8.832,0,16-7.168,16-16S294.936,176,286.096,176z M192.008,236.968
		c-24.792,0-44.968-20.168-44.968-44.968s20.168-44.968,44.968-44.968S236.976,167.2,236.976,192S216.8,236.968,192.008,236.968z"/>
</g>
<g>
</g>
<g>
</g>
<g>
</g>
<g>
</g>
<g>
</g>
<g>
</g>
<g>
</g>
<g>
</g>
<g>
</g>
<g>
</g>
<g>
</g>
<g>
</g>
<g>
</g>
<g>
</g>
<g>
</g>
</svg>
