<?xml version="1.0" encoding="iso-8859-1"?>
<!-- Generator: Adobe Illustrator 19.0.0, SVG Export Plug-In . SVG Version: 6.00 Build 0)  -->
<svg version="1.1" id="Capa_1" xmlns="http://www.w3.org/2000/svg" xmlns:xlink="http://www.w3.org/1999/xlink" x="0px" y="0px"
	 viewBox="0 0 384.016 384.016" style="enable-background:new 0 0 384.016 384.016;" xml:space="preserve">
<path style="fill:#9DC85C;" d="M144.962,111.44c-3.76,6.64-8.72,12.96-14.64,18.88c-5.92,5.92-12.24,10.88-18.88,14.64
	c-25.36,15.04-54.72,14.48-77.2-8c-28.4-28.32-21.68-67.68,6.72-96c28.32-28.4,67.68-35.12,96-6.72
	C159.442,56.72,159.922,86.08,144.962,111.44z"/>
<path style="fill:#69BE5D;" d="M360.642,327.12l-215.68-215.68c14.96-25.36,14.48-54.72-8-77.2l209.76,209.68
	C369.282,266.48,373.922,300,360.642,327.12z"/>
<path style="fill:#9DC85C;" d="M360.642,327.12c-3.36,7.04-8,13.68-13.92,19.6s-12.56,10.56-19.6,13.92l-215.68-215.68
	c6.64-3.76,12.96-8.72,18.88-14.64c5.92-5.92,10.88-12.24,14.64-18.88L360.642,327.12z"/>
<path style="fill:#69BE5D;" d="M327.122,360.64c-27.12,13.28-60.64,8.64-83.2-13.92L34.242,136.96c22.48,22.48,51.84,23.04,77.2,8
	L327.122,360.64z"/>
<g>
	<path style="fill:#603916;" d="M148.274,22.92c-0.016-0.016-0.032-0.024-0.048-0.04C133.274,7.912,114.826,0,94.882,0
		c-23,0-46.176,10.536-65.216,29.632C10.538,48.704,0.002,71.872,0.002,94.88c0,19.96,7.92,38.416,22.888,53.352
		c0.016,0.016,0.016,0.024,0.032,0.04l209.68,209.76c17.024,17.024,39.712,25.984,62.704,25.984c13.088,0,26.272-2.92,38.568-8.888
		c0.04-0.016,0.088-0.024,0.128-0.048c0.032-0.016,0.056-0.032,0.088-0.048c0.016-0.008,0.04-0.016,0.056-0.024
		c0.024-0.008,0.032-0.024,0.056-0.04c8.776-4.224,16.792-9.912,23.816-16.944c7.032-7.024,12.728-15.04,16.952-23.824
		c0.008-0.024,0.024-0.032,0.04-0.056c0.008-0.024,0.024-0.048,0.032-0.072c0.008-0.024,0.024-0.048,0.04-0.072
		c0.008-0.016,0.008-0.032,0.016-0.048c16.512-33.92,9.672-74.632-17.064-101.36L148.274,22.92z M352.01,295.864L164.45,108.296
		c0.08-0.192,0.128-0.384,0.208-0.576c1.128-2.704,2.112-5.416,2.944-8.144c0.176-0.56,0.304-1.128,0.464-1.688
		c0.64-2.264,1.176-4.52,1.608-6.784c0.08-0.416,0.224-0.832,0.296-1.248L335.41,255.24
		C346.426,266.256,352.162,280.984,352.01,295.864z M340.49,329.592c-1.544,2.032-3.24,3.976-5.08,5.816s-3.784,3.528-5.808,5.072
		L136.01,146.904c0.048-0.04,0.088-0.088,0.136-0.128c1.856-1.632,3.688-3.352,5.488-5.152c1.792-1.8,3.504-3.624,5.136-5.472
		c0.04-0.048,0.096-0.096,0.136-0.144L340.49,329.592z M52.29,52.256C65.314,39.2,80.442,32,94.882,32
		c11.448,0,21.8,4.552,30.768,13.544c21.32,21.32,12.424,45.24,6.48,56.088c-0.744,0.976-1.376,2-1.864,3.08
		c-2.896,4.832-6.608,9.64-11.248,14.288c-4.624,4.616-9.424,8.32-14.44,11.328c-1.04,0.48-2.024,1.096-2.96,1.816
		c-10.808,5.952-34.688,14.872-56.072-6.512c-8.992-8.96-13.544-19.304-13.544-30.752C32.002,80.44,39.202,65.312,52.29,52.256z
		 M255.242,335.408L89.89,170c1.384-0.248,2.776-0.672,4.16-0.992c1.608-0.376,3.208-0.672,4.808-1.144
		c3.16-0.936,6.32-2.056,9.456-3.4l187.552,187.552C280.986,352.104,266.258,346.424,255.242,335.408z"/>
	<path style="fill:#603916;" d="M80.586,106.632c4.096,0,8.192-1.56,11.312-4.688l10.056-10.056c6.248-6.248,6.248-16.376,0-22.624
		c-6.24-6.248-16.384-6.248-22.624,0L69.274,79.32c-6.248,6.248-6.248,16.376,0,22.624
		C72.394,105.072,76.498,106.632,80.586,106.632z"/>
</g>
<g>
</g>
<g>
</g>
<g>
</g>
<g>
</g>
<g>
</g>
<g>
</g>
<g>
</g>
<g>
</g>
<g>
</g>
<g>
</g>
<g>
</g>
<g>
</g>
<g>
</g>
<g>
</g>
<g>
</g>
</svg>
