<?xml version="1.0" encoding="iso-8859-1"?>
<!-- Generator: Adobe Illustrator 19.0.0, SVG Export Plug-In . SVG Version: 6.00 Build 0)  -->
<svg version="1.1" id="Capa_1" xmlns="http://www.w3.org/2000/svg" xmlns:xlink="http://www.w3.org/1999/xlink" x="0px" y="0px"
	 viewBox="0 0 384.025 384.025" style="enable-background:new 0 0 384.025 384.025;" xml:space="preserve">
<path style="fill:#80764C;" d="M265.453,132.24c0,5.36-0.72,12.64-1.36,17.36c-1.76-1.36-3.76-2.64-6-3.76
	c-12.48-9.44-43.92-24.72-117.36-24.72c-103.12,0-121.84,29.84-122.88,31.68c-1.2-6.24-1.84-13.12-1.84-20.56
	c0-70,90.24-97.04,90.24-97.04s10.24-19.2,34.48-19.2s34.48,19.2,34.48,19.2S265.453,62.24,265.453,132.24z"/>
<g>
	<path style="fill:#FFEB97;" d="M258.093,145.84c-5.04-2.64-11.36-4.48-19.12-4.48c-25.04,0-35.68,19.84-35.68,19.84
		s-65.52,19.68-86.72,68.64c-6.08-3.04-10.32-6.72-10.32-6.72s-76.08,0-88.4-70.32c1.04-1.84,19.76-31.68,122.88-31.68
		C214.173,121.12,245.613,136.4,258.093,145.84z"/>
	<path style="fill:#FFEB97;" d="M366.493,280.96c-11.76,74.72-91.84,74.72-91.84,74.72s-14.16,12.96-35.68,12.32
		c-21.52,0.64-35.68-12.32-35.68-12.32s-78.64,0-91.52-72.64c0,0,17.04-32.88,127.2-32.88
		C332.493,250.16,360.253,273.84,366.493,280.96z"/>
</g>
<path style="fill:#80764C;" d="M368.013,261.68c0,6.96-0.48,13.36-1.52,19.28c-6.24-7.12-34-30.8-127.52-30.8
	c-110.16,0-127.2,32.88-127.2,32.88c-1.2-6.48-1.84-13.6-1.84-21.36c0-11.76,2.48-22.32,6.64-31.84
	c21.2-48.96,86.72-68.64,86.72-68.64s10.64-19.84,35.68-19.84c7.76,0,14.08,1.84,19.12,4.48c2.24,1.12,4.24,2.4,6,3.76
	c7.28,5.44,10.56,11.6,10.56,11.6S368.013,189.28,368.013,261.68z"/>
<g>
	<path style="fill:#603916;" d="M384.013,261.68c0-73.072-77.232-106.04-99.16-113.92c-1.08-1.4-2.424-2.968-3.968-4.584
		c0.328-3.704,0.56-7.568,0.56-10.936c0-70.744-74.408-102.688-95.984-110.464C177.813,11.856,162.789,0,140.733,0
		s-37.08,11.856-44.736,21.776C74.413,29.552,0.013,61.496,0.013,132.24c0,7.592,0.672,14.824,1.856,21.632
		c0.08,1.24,0.304,2.456,0.672,3.656c11.312,58.392,62.08,77.936,94.328,81.072c-1.872,7.512-2.928,15.216-2.928,23.08
		c0,8.512,0.712,16.616,2.088,24.104c0,0.016,0,0.032,0,0.048c0,0.024,0.008,0.04,0.016,0.064c0,0.024,0.008,0.04,0.008,0.064
		c0.016,0.064,0.04,0.128,0.048,0.2c11.504,63.816,68.456,83.352,101.544,85.344c7.344,5.088,21.776,12.936,41.336,12.504
		c0.528,0.008,1.056,0.016,1.576,0.016c18.624,0,32.608-7.568,39.752-12.52c33.584-2.008,91.144-22,101.84-87.336
		c0.024-0.136,0.072-0.264,0.096-0.4c0-0.008,0.008-0.016,0.008-0.024s0-0.008,0-0.016c0.064-0.36,0.096-0.712,0.136-1.072
		C383.453,276.232,384.013,269.384,384.013,261.68z M351.277,252.032c-0.456-0.2-0.96-0.4-1.432-0.608
		c-0.408-0.176-0.816-0.344-1.232-0.52c-2.072-0.864-4.256-1.72-6.576-2.56c-0.36-0.128-0.744-0.256-1.104-0.384
		c-2.4-0.848-4.904-1.672-7.576-2.48c-0.128-0.04-0.248-0.08-0.376-0.12c-2.728-0.816-5.64-1.592-8.664-2.352
		c-0.528-0.128-1.04-0.264-1.568-0.392c-2.984-0.72-6.12-1.416-9.4-2.072c-0.608-0.12-1.232-0.24-1.856-0.36
		c-3.424-0.656-6.968-1.28-10.712-1.848c-0.336-0.048-0.704-0.096-1.048-0.144c-3.68-0.544-7.52-1.04-11.528-1.488
		c-0.504-0.056-0.984-0.12-1.496-0.176c-4.096-0.44-8.392-0.816-12.84-1.144c-0.848-0.064-1.696-0.12-2.56-0.184
		c-4.48-0.304-9.12-0.544-13.952-0.712c-0.792-0.032-1.616-0.048-2.416-0.072c-5.136-0.16-10.416-0.264-15.96-0.264
		c-3.568,0-7.048,0.032-10.44,0.096c-1.664,0.032-3.24,0.096-4.856,0.144c-1.696,0.048-3.432,0.08-5.088,0.152
		c-1.52,0.064-2.96,0.152-4.448,0.224c-1.664,0.08-3.36,0.152-4.976,0.248c-1.464,0.088-2.84,0.208-4.264,0.304
		c-1.56,0.112-3.16,0.208-4.68,0.336c-1.32,0.112-2.568,0.24-3.856,0.36c-1.536,0.144-3.112,0.28-4.6,0.432
		c-1.216,0.128-2.36,0.28-3.544,0.416c-1.488,0.176-3.008,0.336-4.448,0.528c-1.168,0.152-2.264,0.328-3.4,0.488
		c-1.384,0.2-2.792,0.384-4.136,0.592c-1.128,0.176-2.184,0.368-3.272,0.552c-1.28,0.216-2.584,0.424-3.824,0.648
		c-1.128,0.208-2.192,0.432-3.296,0.648c-1.12,0.224-2.272,0.432-3.36,0.664c-1.096,0.232-2.128,0.48-3.184,0.72
		c-1.024,0.232-2.08,0.456-3.08,0.696c-1.08,0.264-2.088,0.536-3.128,0.808c-0.896,0.232-1.832,0.456-2.696,0.696
		c-1.096,0.296-2.128,0.608-3.176,0.92c-0.752,0.224-1.544,0.432-2.272,0.664c-1.064,0.328-2.056,0.664-3.072,0.992
		c-0.664,0.216-1.36,0.432-2.008,0.648c-1.056,0.36-2.048,0.728-3.056,1.096c-0.544,0.2-1.12,0.392-1.648,0.592
		c-1.048,0.4-2.032,0.8-3.024,1.208c-0.44,0.176-0.904,0.352-1.336,0.536c-1.024,0.432-1.984,0.864-2.944,1.296
		c-0.352,0.16-0.728,0.32-1.08,0.472c-0.056,0.024-0.128,0.056-0.184,0.08c0.8-5.552,2.344-10.912,4.672-16.232
		c17.928-41.392,76.088-59.504,76.64-59.672c4.072-1.224,7.496-4.016,9.504-7.76c0.064-0.112,6.528-11.4,21.576-11.4
		c4.4,0,8.328,0.888,11.96,2.792c1.208,0.608,2.344,1.312,3.584,2.272c3.984,2.976,6.008,6.312,6.016,6.312l0,0
		c1.992,3.744,5.424,6.552,9.488,7.784C270.797,176.752,343.197,199.424,351.277,252.032z M110.845,50.528
		c3.888-1.168,7.352-4.048,9.392-7.56C120.893,41.84,127.013,32,140.733,32s19.84,9.84,20.36,10.728c2,3.752,5.432,6.56,9.496,7.792
		c0.744,0.224,69.608,21.72,78.024,71.616c-0.648-0.28-1.344-0.56-2.016-0.84c-0.416-0.176-0.824-0.352-1.248-0.52
		c-1.736-0.704-3.528-1.4-5.424-2.08c-0.248-0.088-0.512-0.176-0.76-0.264c-1.672-0.592-3.408-1.168-5.208-1.736
		c-0.576-0.184-1.16-0.36-1.744-0.544c-1.768-0.536-3.592-1.064-5.488-1.576c-0.4-0.104-0.776-0.216-1.176-0.328
		c-2.264-0.6-4.632-1.168-7.072-1.728c-0.624-0.144-1.272-0.272-1.904-0.416c-1.952-0.424-3.968-0.832-6.04-1.232
		c-0.744-0.144-1.48-0.288-2.232-0.424c-2.712-0.496-5.488-0.968-8.4-1.4c-0.24-0.04-0.496-0.064-0.736-0.104
		c-2.688-0.392-5.48-0.76-8.344-1.104c-0.896-0.104-1.808-0.208-2.72-0.312c-2.56-0.288-5.192-0.544-7.888-0.784
		c-0.72-0.064-1.416-0.136-2.144-0.192c-3.376-0.28-6.864-0.52-10.456-0.72c-0.84-0.048-1.712-0.08-2.56-0.128
		c-2.904-0.144-5.88-0.264-8.936-0.36c-1.088-0.032-2.176-0.064-3.28-0.096c-3.928-0.096-7.936-0.16-12.104-0.16
		c-3.36,0-6.64,0.032-9.84,0.088c-1.16,0.024-2.264,0.064-3.408,0.096c-2,0.048-4.016,0.096-5.952,0.168
		c-1.28,0.048-2.496,0.12-3.752,0.176c-1.736,0.08-3.488,0.152-5.176,0.248c-1.256,0.072-2.448,0.168-3.672,0.248
		c-1.6,0.104-3.224,0.208-4.776,0.336c-1.24,0.096-2.432,0.216-3.64,0.328c-1.464,0.128-2.944,0.256-4.368,0.4
		c-1.2,0.12-2.352,0.264-3.528,0.392c-1.36,0.152-2.736,0.304-4.064,0.464c-1.176,0.144-2.296,0.312-3.44,0.464
		c-1.248,0.168-2.504,0.336-3.712,0.52c-1.128,0.168-2.216,0.352-3.312,0.528c-1.16,0.184-2.328,0.376-3.456,0.568
		c-1.064,0.184-2.096,0.384-3.128,0.584c-1.096,0.208-2.192,0.408-3.248,0.624c-1.016,0.208-1.984,0.416-2.968,0.632
		c-1.008,0.216-2.024,0.44-3,0.664c-0.968,0.224-1.896,0.456-2.832,0.688c-0.944,0.232-1.888,0.464-2.8,0.704
		c-0.904,0.24-1.768,0.48-2.64,0.72c-0.88,0.248-1.76,0.488-2.608,0.736c-0.856,0.248-1.688,0.504-2.512,0.768
		c-0.808,0.248-1.608,0.496-2.384,0.752c-0.816,0.264-1.608,0.536-2.392,0.808c-0.736,0.256-1.472,0.512-2.184,0.768
		c-0.76,0.28-1.496,0.552-2.232,0.832c-0.688,0.264-1.368,0.528-2.032,0.792c-0.704,0.28-1.384,0.568-2.056,0.848
		c-0.648,0.272-1.28,0.544-1.904,0.816c-0.28,0.128-0.592,0.248-0.872,0.376C41.141,72.28,110.133,50.744,110.845,50.528z
		 M35.357,157.704c0.096-0.072,0.16-0.128,0.264-0.2c0.184-0.136,0.408-0.288,0.616-0.432c0.56-0.392,1.176-0.808,1.848-1.232
		c0.28-0.176,0.568-0.36,0.872-0.544c0.808-0.488,1.704-1,2.672-1.52c0.224-0.12,0.408-0.232,0.64-0.352
		c1.216-0.64,2.576-1.296,4.048-1.968c0.344-0.16,0.744-0.32,1.104-0.472c1.184-0.52,2.456-1.04,3.808-1.56
		c0.544-0.208,1.112-0.424,1.688-0.632c1.424-0.52,2.952-1.048,4.56-1.56c0.512-0.168,0.984-0.328,1.512-0.496
		c2.152-0.664,4.456-1.32,6.928-1.952c0.504-0.128,1.064-0.248,1.576-0.376c2.032-0.504,4.168-0.992,6.424-1.456
		c0.896-0.184,1.816-0.368,2.744-0.544c2.16-0.424,4.44-0.824,6.8-1.208c0.904-0.144,1.784-0.304,2.72-0.448
		c3.312-0.504,6.776-0.968,10.472-1.384c0.496-0.056,1.04-0.096,1.536-0.152c3.24-0.344,6.648-0.656,10.192-0.92
		c1.272-0.096,2.6-0.176,3.912-0.264c3.088-0.2,6.296-0.368,9.608-0.496c1.368-0.056,2.712-0.12,4.12-0.16
		c4.696-0.144,9.552-0.24,14.712-0.24c3.992,0,7.8,0.064,11.528,0.152c0.936,0.024,1.864,0.048,2.784,0.072
		c3.536,0.104,6.992,0.24,10.288,0.424c0.096,0.008,0.192,0.008,0.288,0.016c3.392,0.192,6.616,0.424,9.76,0.688
		c0.8,0.064,1.592,0.136,2.376,0.208c2.872,0.256,5.672,0.536,8.336,0.848c0.192,0.024,0.4,0.04,0.592,0.064
		c2.824,0.336,5.504,0.704,8.104,1.088c0.672,0.096,1.336,0.2,2,0.304c0.72,0.112,1.376,0.24,2.072,0.352
		c-0.608,0.576-1.136,1.16-1.696,1.744c-0.368,0.384-0.76,0.76-1.112,1.144c-1.096,1.2-2.12,2.4-3.016,3.568
		c-1.032,0.376-2.208,0.808-3.464,1.296c-0.4,0.152-0.848,0.336-1.264,0.504c-0.912,0.36-1.84,0.728-2.856,1.144
		c-0.576,0.24-1.192,0.496-1.792,0.752c-0.944,0.4-1.904,0.808-2.92,1.256c-0.704,0.304-1.416,0.632-2.144,0.96
		c-0.992,0.448-2,0.92-3.04,1.408c-0.8,0.376-1.6,0.76-2.424,1.168c-1.064,0.52-2.152,1.072-3.256,1.632
		c-0.84,0.424-1.664,0.848-2.528,1.296c-1.168,0.616-2.36,1.272-3.552,1.928c-0.848,0.464-1.672,0.912-2.528,1.4
		c-1.408,0.8-2.84,1.664-4.28,2.536c-0.664,0.4-1.312,0.768-1.976,1.184c-2.056,1.272-4.128,2.616-6.208,4.024
		c-0.768,0.52-1.544,1.088-2.312,1.632c-1.352,0.952-2.704,1.896-4.056,2.904c-0.904,0.672-1.8,1.384-2.696,2.088
		c-1.216,0.944-2.416,1.888-3.616,2.88c-0.936,0.776-1.864,1.576-2.792,2.384c-1.144,0.992-2.28,2-3.408,3.04
		c-0.928,0.856-1.832,1.72-2.744,2.6c-1.112,1.08-2.192,2.192-3.272,3.32c-0.872,0.912-1.744,1.824-2.592,2.76
		c-1.096,1.208-2.152,2.472-3.208,3.736c-0.768,0.928-1.552,1.832-2.296,2.784c-1.168,1.488-2.272,3.048-3.376,4.608
		c-0.56,0.8-1.16,1.56-1.704,2.376c-0.072,0.104-0.152,0.208-0.224,0.312c-1.344-0.368-2.752-0.568-4.16-0.576
		C103.869,207.104,49.061,206.08,35.357,157.704z M274.653,339.68c-4,0-7.848,1.496-10.808,4.192
		c-0.088,0.088-10.16,8.688-24.4,8.136C239.293,352,239.133,352,238.973,352s-0.32,0-0.48,0.008
		c-14.48,0.328-24.392-8.128-24.4-8.128c-2.92-2.672-6.792-4.168-10.744-4.2c-2.552-0.016-59.92-1.064-74.104-51.848
		c0.088-0.072,0.16-0.128,0.248-0.2c0.248-0.184,0.544-0.392,0.816-0.584c0.456-0.328,0.952-0.664,1.48-1.016
		c0.336-0.224,0.696-0.448,1.064-0.672c0.6-0.376,1.264-0.76,1.952-1.152c0.392-0.224,0.776-0.448,1.2-0.672
		c0.896-0.48,1.88-0.984,2.912-1.488c0.312-0.152,0.584-0.304,0.912-0.456c1.392-0.656,2.912-1.32,4.56-1.992
		c0.4-0.168,0.872-0.328,1.288-0.496c1.288-0.504,2.64-1.008,4.08-1.512c0.664-0.232,1.384-0.464,2.088-0.696
		c1.336-0.44,2.736-0.88,4.2-1.312c0.816-0.24,1.64-0.48,2.496-0.712c1.568-0.432,3.24-0.856,4.952-1.272
		c0.856-0.208,1.68-0.416,2.568-0.624c2.312-0.528,4.76-1.04,7.328-1.528c0.376-0.072,0.712-0.152,1.096-0.224
		c2.968-0.552,6.144-1.064,9.464-1.544c0.968-0.144,2.016-0.264,3.016-0.392c2.44-0.328,4.944-0.64,7.576-0.92
		c1.328-0.144,2.712-0.272,4.096-0.408c2.512-0.24,5.112-0.456,7.792-0.656c1.504-0.112,3.016-0.216,4.568-0.312
		c2.904-0.176,5.944-0.32,9.048-0.44c1.456-0.056,2.856-0.128,4.352-0.168c4.664-0.136,9.48-0.224,14.576-0.224
		c5.136,0,9.984,0.096,14.696,0.232c1.448,0.04,2.84,0.104,4.248,0.16c3.288,0.128,6.488,0.28,9.568,0.472
		c1.352,0.08,2.712,0.16,4.024,0.256c3.48,0.248,6.824,0.536,10.032,0.856c0.616,0.064,1.288,0.112,1.896,0.176
		c3.76,0.4,7.312,0.848,10.704,1.336c0.944,0.136,1.816,0.28,2.728,0.424c2.448,0.376,4.816,0.768,7.072,1.184
		c0.976,0.176,1.944,0.36,2.88,0.544c2.264,0.448,4.416,0.904,6.48,1.384c0.624,0.144,1.288,0.28,1.896,0.424
		c2.592,0.624,5.032,1.264,7.312,1.928c0.52,0.152,0.984,0.304,1.488,0.456c1.744,0.52,3.416,1.048,4.976,1.584
		c0.64,0.216,1.256,0.432,1.856,0.656c1.416,0.504,2.752,1.016,4.016,1.52c0.456,0.184,0.936,0.368,1.368,0.544
		c1.624,0.68,3.152,1.352,4.52,2.016c0.144,0.072,0.264,0.136,0.408,0.208c1.224,0.6,2.352,1.184,3.384,1.76
		c0.328,0.184,0.632,0.36,0.936,0.536c0.816,0.472,1.584,0.928,2.28,1.368c0.232,0.144,0.472,0.296,0.688,0.44
		c0.168,0.112,0.296,0.208,0.456,0.312C335.077,338.592,277.173,339.664,274.653,339.68z"/>
	<path style="fill:#603916;" d="M270.077,285.744c-7.984-3.824-17.52-0.464-21.352,7.504c-1.344,2.816-4.144,6.16-9.792,6.16
		c-5.552,0-8.296-3.28-9.624-6.024c-3.832-7.96-13.384-11.304-21.36-7.472c-7.96,3.832-11.304,13.392-7.472,21.352
		c5.616,11.672,18.672,24.144,38.456,24.144c19.888,0,33.008-12.56,38.648-24.32C281.405,299.12,278.045,289.56,270.077,285.744z"/>
</g>
<g>
</g>
<g>
</g>
<g>
</g>
<g>
</g>
<g>
</g>
<g>
</g>
<g>
</g>
<g>
</g>
<g>
</g>
<g>
</g>
<g>
</g>
<g>
</g>
<g>
</g>
<g>
</g>
<g>
</g>
</svg>
