<?xml version="1.0" encoding="iso-8859-1"?>
<!-- Generator: Adobe Illustrator 19.0.0, SVG Export Plug-In . SVG Version: 6.00 Build 0)  -->
<svg version="1.1" id="Capa_1" xmlns="http://www.w3.org/2000/svg" xmlns:xlink="http://www.w3.org/1999/xlink" x="0px" y="0px"
	 viewBox="0 0 384 384" style="enable-background:new 0 0 384 384;" xml:space="preserve">
<path style="fill:#9DC85C;" d="M166.184,60c0,24.264,19.992,43.912,44.68,43.912c24.672,0,44.688-19.656,44.688-43.912l0.064-42.344
	l-1.056-1.032L210.784,16c-24.656,0-44.656,19.664-44.656,43.904"/>
<g>
	<ellipse style="fill:#F26E64;" cx="116.824" cy="308.224" rx="60.84" ry="59.8"/>
	<ellipse style="fill:#F26E64;" cx="267.2" cy="308.224" rx="60.84" ry="59.8"/>
</g>
<path style="fill:#603916;" d="M116.8,384c36.928,0,67.848-25.808,75.2-60.072C199.352,358.192,230.264,384,267.2,384
	c42.344,0,76.8-33.992,76.8-75.76c0-36.824-26.728-67.576-62.024-74.4c-7.048-46.168-46.872-81.68-94.936-81.68h-5.336
	c1.112-8.2,1.728-16.48,1.728-24.816c0-4.816-0.288-9.56-0.672-14.28c8.408,4.36,17.968,6.84,28.104,6.84
	c33.464,0,60.688-26.88,60.688-59.888l0.064-42.336c0.008-4.312-1.728-8.448-4.816-11.464l-1.04-1.032
	c-2.936-2.864-6.856-4.504-10.96-4.56L210.784,0c-24.376,0-45.384,14.304-55.016,34.84c-5.68-8.368-12.144-16.224-19.44-23.392
	c-6.304-6.192-16.432-6.112-22.624,0.2c-6.192,6.304-6.104,16.432,0.2,22.624c24.2,23.768,37.528,56.832,37.536,93.08
	c0,39.128-15.288,77.144-41.904,105.408C70.584,236.392,40,268.848,40,308.24C40,350.008,74.456,384,116.8,384z M210.56,32
	l29.048,0.408L239.56,60c0,15.392-12.872,27.912-28.688,27.912c-15.816,0-28.68-12.52-28.68-27.912c0-0.392-0.016-0.776-0.04-1.16
	C182.728,43.944,195.344,32,210.56,32z M312,308.24c0,24.128-20.096,43.76-44.8,43.76c-24.744,0-44.88-19.632-44.88-43.76
	c0-24.168,20.136-43.84,44.88-43.84C291.904,264.4,312,284.064,312,308.24z M187.04,184.16c30.024,0,55.976,21.936,62.528,50.328
	c-28.808,6.704-51.416,29.384-57.568,58.04c-5.248-24.464-22.456-44.616-45.304-54.168c12.16-16.408,21.52-34.776,27.76-54.208
	h12.584V184.16z M116.608,264.408c0.072,0,0.152,0.024,0.224,0.024s0.136-0.016,0.208-0.016c24.632,0.128,44.64,19.736,44.64,43.832
	c0,24.128-20.136,43.76-44.88,43.76c-24.704,0-44.8-19.632-44.8-43.76C72,284.128,91.992,264.512,116.608,264.408z"/>
<g>
</g>
<g>
</g>
<g>
</g>
<g>
</g>
<g>
</g>
<g>
</g>
<g>
</g>
<g>
</g>
<g>
</g>
<g>
</g>
<g>
</g>
<g>
</g>
<g>
</g>
<g>
</g>
<g>
</g>
</svg>
