<?xml version="1.0" encoding="iso-8859-1"?>
<!-- Generator: Adobe Illustrator 19.0.0, SVG Export Plug-In . SVG Version: 6.00 Build 0)  -->
<svg version="1.1" id="Capa_1" xmlns="http://www.w3.org/2000/svg" xmlns:xlink="http://www.w3.org/1999/xlink" x="0px" y="0px"
	 viewBox="0 0 384 384" style="enable-background:new 0 0 384 384;" xml:space="preserve">
<path style="fill:#F58A54;" d="M256,148.328c0-33.608-28.664-60.856-64-60.856s-64,27.248-64,60.856L192,368L256,148.328z"/>
<path style="fill:#603916;" d="M112,148.328c0,1.512,0.216,3.016,0.64,4.48l64,219.672c1.984,6.824,8.248,11.52,15.36,11.52
	s13.376-4.696,15.36-11.52l64-219.672c0.424-1.456,0.64-2.96,0.64-4.48c0-34.136-23.304-63.112-55.408-73.104l35.496-41.64
	c5.728-6.72,4.92-16.824-1.8-22.552c-6.736-5.744-16.824-4.936-22.56,1.8L208,35.96V16c0-8.832-7.168-16-16-16s-16,7.168-16,16
	v19.96l-19.728-23.144c-5.752-6.736-15.832-7.528-22.56-1.8c-6.72,5.728-7.52,15.832-1.8,22.552l35.496,41.64
	C135.304,85.216,112,114.192,112,148.328z M192,103.472c25.712,0,46.768,18.992,47.944,42.752l-11.376,39.04h-27.144
	c-8.832,0-16,7.168-16,16s7.168,16,16,16h17.824L192,310.8l-40.104-137.648h21.4c8.832,0,16-7.168,16-16s-7.168-16-16-16h-28.648
	C148.336,119.816,168.152,103.472,192,103.472z"/>
<g>
</g>
<g>
</g>
<g>
</g>
<g>
</g>
<g>
</g>
<g>
</g>
<g>
</g>
<g>
</g>
<g>
</g>
<g>
</g>
<g>
</g>
<g>
</g>
<g>
</g>
<g>
</g>
<g>
</g>
</svg>
