<?xml version="1.0" encoding="iso-8859-1"?>
<!-- Generator: Adobe Illustrator 19.0.0, SVG Export Plug-In . SVG Version: 6.00 Build 0)  -->
<svg version="1.1" id="Capa_1" xmlns="http://www.w3.org/2000/svg" xmlns:xlink="http://www.w3.org/1999/xlink" x="0px" y="0px"
	 viewBox="0 0 384 384" style="enable-background:new 0 0 384 384;" xml:space="preserve">
<path style="fill:#9DC85C;" d="M368,164.08c0,25.76-20.96,46.56-46.8,46.56c-4,0-7.84-0.48-11.52-1.44l-10.8,0.08
	c13.84,53.36,22.24,125.28-25.76,144.64c0,0-28.72,14.08-81.12,14.08s-81.12-14.08-81.12-14.08
	c-47.44-19.2-39.84-89.68-26.24-142.88l-9.68,0.08c-3.76,0.96-7.68,1.44-11.68,1.44C37.2,212.56,16,191.52,16,165.6
	c0-16,8.08-30.16,20.32-38.64c5.2-3.6,11.12-6.16,17.44-7.44c-0.56-3.6-0.88-7.2-0.88-10.88c0-36.88,30.08-66.72,67.04-66.72
	c2.88,0,5.68,0.16,8.48,0.48h8.4C149.76,26.32,169.68,16,192,16c22.24,0,42.08,10.24,55.04,26.24h9.76c2.72-0.4,5.44-0.56,8.32-0.56
	c36.64,0,66.4,29.6,66.4,66.08c0,3.68-0.32,7.28-0.88,10.8c6.32,1.2,12.16,3.76,17.2,7.28C360,134.24,368,148.24,368,164.08z"/>
<path style="fill:#603916;" d="M357,112.72c-3.024-2.112-6.192-3.936-9.48-5.448c-0.264-45.04-37.128-81.6-82.4-81.6
	c-3.352,0-6.44,0.184-9.4,0.56h-1.504C237.92,9.472,215.664,0,192,0c-23.752,0-46.08,9.528-62.392,26.4h-0.336
	c-3.088-0.32-6.152-0.48-9.344-0.48c-45.672,0-82.848,36.92-83.04,82.368c-3.36,1.536-6.584,3.376-9.664,5.512
	C10.168,125.608,0,144.968,0,165.6c0,35.024,29.056,63.536,64.208,62.952c-18.824,93.464,10.688,127.856,40.248,140.024
	C109.272,370.808,140.088,384,192,384c51.88,0,82.688-13.176,87.528-15.416c29.8-12.232,59.424-47.024,39.832-141.976
	c0.608,0.016,1.224,0.024,1.84,0.024c34.632,0,62.8-28.064,62.8-62.56C384,143.6,373.88,124.376,357,112.72z M321.2,194.64
	c-2.616,0-5.136-0.312-7.48-0.92c-0.872-0.224-1.768-0.248-2.656-0.336c-4.12-14.256-8.96-28.792-14.504-43.384
	c-3.136-8.264-12.368-12.432-20.64-9.28c-8.264,3.136-12.416,12.376-9.28,20.64c6.576,17.328,12.368,35.288,16.744,51.928l0,0
	c10.456,40.312,22.248,110.264-16.256,125.792c-0.304,0.128-0.68,0.296-0.976,0.432c-0.144,0.072-8.248,3.832-23.352,7.208
	c11.328-10.528,18.92-24.416,18.92-40.136c0-8.832-7.168-16-16-16s-16,7.168-16,16c0,10.16-10.08,19.904-21.736,24.992V289.68
	c0-8.832-7.168-16-16-16s-16,7.168-16,16v41.888c-11.656-5.088-21.736-14.832-21.736-24.992c0-8.832-7.168-16-16-16s-16,7.168-16,16
	c0,15.728,7.6,29.616,18.928,40.144c-15.088-3.368-23.168-7.12-23.272-7.168c-0.336-0.168-0.688-0.32-1.04-0.464
	c-38.216-15.464-26.896-84.376-16.744-124.08c0,0,0,0,0-0.008c4.32-16.864,10.112-35.064,16.744-52.632
	c3.128-8.264-1.04-17.504-9.312-20.624c-8.264-3.136-17.504,1.048-20.624,9.312C81.368,165.76,76.4,180.88,72.28,195.44
	c-0.432,0.072-0.864,0.056-1.288,0.168c-2.472,0.632-5.072,0.952-7.736,0.952c-17.248,0-31.28-13.888-31.28-30.96
	c0-10.136,5.016-19.664,13.432-25.488c3.496-2.416,7.368-4.072,11.512-4.912c8.384-1.696,13.952-9.696,12.632-18.152
	c-0.464-2.976-0.688-5.72-0.688-8.408c0-24.536,17.624-45.048,40.952-49.712c-2.96,8.792-4.552,18.04-4.552,27.392
	c0,3.232,0.208,6.656,0.656,10.76c0.888,8.2,7.824,14.28,15.888,14.28c0.576,0,1.16-0.032,1.744-0.096
	c8.784-0.952,15.136-8.84,14.184-17.632c-0.256-2.392-0.464-4.856-0.464-7.32c0-12.456,4.144-24.168,11.976-33.872l0,0l0,0
	C159.728,39.448,175.312,32,192,32c16.624,0,32.152,7.4,42.608,20.312l0.008,0.008c0.008,0.008,0.008,0.016,0.016,0.024
	c7.904,9.704,12.088,21.456,12.088,33.976c0,2.072-0.12,4.144-0.36,6.152c-1.064,8.776,5.176,16.744,13.952,17.816
	c0.656,0.08,1.304,0.12,1.952,0.12c7.976,0,14.88-5.952,15.864-14.072c0.4-3.264,0.6-6.632,0.6-10.008
	c0-9.632-1.584-18.96-4.608-27.8c23.512,4.232,41.408,24.672,41.408,49.24c0,2.656-0.232,5.44-0.68,8.296
	c-1.352,8.536,4.32,16.616,12.816,18.224c3.888,0.736,7.696,2.352,11.088,4.72C347.048,144.736,352,154.112,352,164.08
	C352,180.928,338.184,194.64,321.2,194.64z"/>
<g>
</g>
<g>
</g>
<g>
</g>
<g>
</g>
<g>
</g>
<g>
</g>
<g>
</g>
<g>
</g>
<g>
</g>
<g>
</g>
<g>
</g>
<g>
</g>
<g>
</g>
<g>
</g>
<g>
</g>
</svg>
