<?xml version="1.0" encoding="iso-8859-1"?>
<!-- Generator: Adobe Illustrator 19.0.0, SVG Export Plug-In . SVG Version: 6.00 Build 0)  -->
<svg version="1.1" id="Capa_1" xmlns="http://www.w3.org/2000/svg" xmlns:xlink="http://www.w3.org/1999/xlink" x="0px" y="0px"
	 viewBox="0 0 384 384" style="enable-background:new 0 0 384 384;" xml:space="preserve">
<path style="fill:#FFEB97;" d="M236.162,227.44h26.64l-27.84,43.2v54.32c0,0.48,0,0.96-0.08,1.44c-0.72,22.64-19.68,40.8-42.88,40.8
	c-23.68,0-42.96-18.96-42.96-42.24v-54.32l-27.84-43.2h26.64V156.4l-26.64-45.04h26.08V60.24c0,0-0.24-2.32-0.08-5.84
	c0.72-12,6.56-38.4,44.8-38.4c36.8,0,43.68,24.48,44.64,37.04v0.08c0.4,4.24,0.08,7.12,0.08,7.12v51.12h26.08l-26.64,45.04
	L236.162,227.44L236.162,227.44z"/>
<g>
	<path style="fill:#FFF9BB;" d="M149.042,270.64v54.32c0,22.24-18.88,43.04-41.52,43.04s-40.96-18.08-40.96-40.32v-42.96
		l-26.56-41.2h25.36v-67.76l-25.36-43.04h24.88V75.2c0,0-4.64-42.16,42.64-42.16c23.6,0,34.96,10.8,39.68,21.36
		c-0.16,3.52,0.08,5.84,0.08,5.84v51.12h-26.08l26.64,45.04v71.04h-26.64L149.042,270.64z"/>
	<path style="fill:#FFF9BB;" d="M318.642,243.52h25.36l-26.56,41.2v42.96c0,22.24-18.32,40.32-40.96,40.32s-41.6-19.36-41.6-41.6
		c0.08-0.48,0.08-0.96,0.08-1.44v-54.32l27.84-43.2h-26.64V156.4l26.64-45.04h-26.08V60.24c0,0,0.32-2.88-0.08-7.12v-0.08
		c5.2-10.24,16.96-20,39.84-20c47.28,0,42.64,42.16,42.64,42.16v57.52h24.88l-25.36,43.04V243.52z"/>
</g>
<g>
	<path style="fill:#603916;" d="M40.002,116.72c-5.744,0-11.04,3.08-13.888,8.064s-2.808,11.112,0.104,16.056l23.144,39.288v47.392
		h-9.36c-5.856,0-11.248,3.2-14.048,8.344c-2.808,5.144-2.576,11.4,0.6,16.328l24.008,37.24v38.248
		c0,31.056,25.552,56.32,56.96,56.32c15.992,0,30.92-7.56,41.576-19.216c10.76,11.304,25.992,18.416,42.904,18.416
		c16.784,0,31.832-6.84,42.544-17.864C245.146,376.72,260.13,384,276.482,384c31.408,0,56.96-25.264,56.96-56.32v-38.248
		l24.008-37.24c3.168-4.92,3.4-11.184,0.6-16.328c-2.8-5.144-8.192-8.344-14.048-8.344h-9.36v-47.392l23.144-39.288
		c2.912-4.944,2.96-11.072,0.104-16.056c-2.848-4.984-8.144-8.064-13.888-8.064h-8.88V75.888c0.392-5.248,0.832-25.392-13.32-41.184
		c-10.504-11.712-25.752-17.656-45.328-17.656c-14.104,0-24.776,3.056-32.896,7.376C234.49,10.456,218.098,0,192.002,0
		c-26.2,0-42.6,10.536-51.696,24.728c-8.04-4.472-18.688-7.688-32.784-7.688c-19.576,0-34.824,5.944-45.328,17.656
		C48.05,50.488,48.49,70.64,48.874,75.88v40.832h-8.872V116.72z M276.482,49.04c10,0,17.184,2.312,21.368,6.872
		c6.2,6.768,5.368,17.536,5.368,17.536c-0.064,0.584-0.096,1.168-0.096,1.752v57.52c0,7.832,5.616,14.336,13.04,15.728
		L304.85,167.64c-1.448,2.464-2.216,5.264-2.216,8.12v67.76c0,7.56,5.24,13.896,12.288,15.568l-10.936,16.968
		c-1.664,2.584-2.552,5.592-2.552,8.664v42.96c0,13.408-11.2,24.32-24.96,24.32c-13.408,0-25.192-11.56-25.592-24.904
		c0.048-0.712,0.072-1.424,0.072-2.136v-49.608l25.288-39.24c3.168-4.92,3.4-11.184,0.6-16.328s-8.192-8.336-14.048-8.336h-10.64
		v-50.664l24.408-41.272c2.928-4.944,2.976-11.08,0.128-16.072s-8.152-8.072-13.896-8.072h-10.08V60.904
		c0.032-0.416,0.056-0.928,0.08-1.52c0.016-0.32,0.016-0.728,0.024-1.096c0.008-0.304,0.016-0.576,0.016-0.912
		c0-0.024,0-0.04,0-0.064C258.354,50.56,268.482,49.04,276.482,49.04z M192.002,32c18.28,0,27.4,6.976,28.664,21.944
		c0.008,0.224,0.032,0.456,0.048,0.672c0.216,2.28,0.104,3.864,0.104,3.864l0,0c-0.064,0.584-0.096,1.168-0.096,1.76v51.12
		c0,8.192,6.16,14.944,14.096,15.888l-12.424,21.008c-1.464,2.464-2.232,5.28-2.232,8.144v71.04c0,7.96,5.816,14.56,13.424,15.792
		l-12.072,18.736c-1.664,2.584-2.552,5.592-2.552,8.664v54.144c-0.04,0.368-0.064,0.736-0.072,1.104
		c-0.44,13.968-12.504,25.32-26.888,25.32c-14.864,0-26.96-11.768-26.96-26.24v-54.32c0-3.072-0.888-6.08-2.552-8.664
		l-12.072-18.736c7.616-1.232,13.424-7.832,13.424-15.792v-71.04c0-2.864-0.768-5.68-2.232-8.144l-12.424-21.008
		c7.936-0.944,14.096-7.696,14.096-15.888v-51.12c0-0.464-0.032-1.072-0.072-1.536c-0.032-0.336-0.096-1.624-0.024-3.416
		C164.162,39.4,173.322,32,192.002,32z M80.882,132.72V75.2c0-0.584-0.032-1.168-0.096-1.752c-0.008-0.104-0.752-10.696,5.248-17.4
		c4.168-4.656,11.4-7.008,21.488-7.008c8.168,0,18.504,1.688,23.648,9.312c0.024,1.032,0.072,1.864,0.112,2.48
		c0,0.016,0,0.048,0,0.064v34.472h-10.08c-5.744,0-11.048,3.08-13.896,8.072s-2.8,11.128,0.128,16.072l24.408,41.272v50.664h-10.64
		c-5.856,0-11.248,3.2-14.048,8.336c-2.808,5.144-2.576,11.408,0.6,16.328l25.288,39.24v49.608c0,13.896-12.4,27.04-25.52,27.04
		c-13.76,0-24.96-10.912-24.96-24.32v-42.96c0-3.072-0.888-6.088-2.552-8.664l-10.936-16.968
		c7.048-1.672,12.288-8.008,12.288-15.568v-67.76c0-2.856-0.768-5.664-2.216-8.12l-11.312-19.192
		C75.266,147.056,80.882,140.544,80.882,132.72z"/>
	<path style="fill:#603916;" d="M188.77,154.072h6.472c8.832,0,16-7.168,16-16s-7.168-16-16-16h-6.472c-8.832,0-16,7.168-16,16
		S179.93,154.072,188.77,154.072z"/>
	<path style="fill:#603916;" d="M188.77,268.352h6.472c8.832,0,16-7.168,16-16s-7.168-16-16-16h-6.472c-8.832,0-16,7.168-16,16
		S179.93,268.352,188.77,268.352z"/>
</g>
<g>
</g>
<g>
</g>
<g>
</g>
<g>
</g>
<g>
</g>
<g>
</g>
<g>
</g>
<g>
</g>
<g>
</g>
<g>
</g>
<g>
</g>
<g>
</g>
<g>
</g>
<g>
</g>
<g>
</g>
</svg>
