<svg id="Layer_1" enable-background="new 0 0 512.001 512.001" height="512" viewBox="0 0 512.001 512.001" width="512" xmlns="http://www.w3.org/2000/svg"><path d="m480.55 183.254c-24.479 24.479-34.126 34.882-52 48.821-30.455 23.777-51.454 29.342-87.936 65.824-44.106 44.105-52.49 51.568-67.019 70.197-23.294 29.793-29.349 51.461-65.824 87.936l-24.523 24.523c-20.96 20.971-48.427 31.445-75.904 31.445-59.557 0-107.66-48.442-107.339-107.904.128-27.296 10.603-54.528 31.435-75.349 26.931-26.931 45.585-47.592 82.229-69.579 38.762-23.269 57.228-44.588 100.427-87.787 17.018-17.018 32.283-36.401 45.067-57.707 21.756-36.272 41.947-54.597 69.579-82.229 41.893-41.914 109.887-41.942 151.808 0 41.7 41.62 42.154 109.667 0 151.809z" fill="#6994ff"/><path d="m494.918 49.238c-.128 27.296-10.603 54.528-31.435 75.349-26.931 26.931-45.585 47.592-82.229 69.579-38.762 23.269-57.228 44.588-100.427 87.787-17.054 17.054-32.309 36.443-45.067 57.707-21.756 36.272-41.947 54.597-69.579 82.229-48.599 48.623-129.368 39.454-166.176-17.792.128-27.296 10.603-54.528 31.435-75.349 24.479-24.479 34.126-34.882 52-48.821 30.455-23.777 51.454-29.342 87.936-65.824 44.106-44.106 52.49-51.567 67.019-70.197 23.294-29.793 29.347-51.459 65.824-87.936l24.523-24.523c48.595-48.619 129.365-39.459 166.176 17.791z" fill="#80aaff"/><g fill="#4379ff"><path d="m343.971 136.397c-19.088-19.083-52.042-5.527-52.042 21.557 0 8.144 3.171 15.799 8.929 21.556l31.628 31.628c0 .285 8.466 8.914 21.556 8.914 26.957 0 40.799-32.783 21.556-52.027z"/><path d="m185.831 294.537c-19.088-19.083-52.042-5.527-52.042 21.557 0 8.144 3.171 15.799 8.929 21.556l31.628 31.628c0 .285 8.466 8.914 21.556 8.914 26.957 0 40.799-32.783 21.556-52.027z"/></g></svg>