<svg id="Layer_1" enable-background="new 0 0 512.002 512.002" height="512" viewBox="0 0 512.002 512.002" width="512" xmlns="http://www.w3.org/2000/svg"><path d="m416.001 512.002h-64c-7.215 0-13.538-4.829-15.437-11.79l-20.784-76.21h-83.779c-8.837 0-16-7.164-16-16s7.163-16 16-16h96c7.215 0 13.538 4.829 15.437 11.79l20.784 76.21h51.779c8.837 0 16 7.164 16 16s-7.163 16-16 16z" fill="#b2b2b2"/><path d="m225.748 357.652c-12.93 0-20.808-14.907-12.787-25.602l46.24-61.65c3.021-4.028 7.764-6.399 12.8-6.399h72c8.837 0 16 7.164 16 16s-7.163 16-16 16h-64l-41.44 55.25c-3.144 4.191-7.949 6.401-12.813 6.401z" fill="#6994ff"/><path d="m112.001 224.002c-8.837 0-16-7.164-16-16v-96c0-8.836 7.163-16 16-16h128v-56c0-8.836 7.163-16 16-16s16 7.164 16 16v72c0 8.836-7.163 16-16 16h-128v80c0 8.836-7.163 16-16 16z" fill="#b2b2b2"/><path d="m15.983 72.003c-8.236 0-15.23-6.318-15.927-14.672-.734-8.806 5.81-16.54 14.615-17.273l480-40c8.832-.738 16.54 5.811 17.273 14.616.734 8.806-5.81 16.54-14.615 17.273-502.212 41.85-480.299 40.056-481.346 40.056z" fill="#a07765"/><path d="m296.001 40.002c0 22.06-17.94 40-40 40s-40-17.94-40-40 17.94-40 40-40 40 17.939 40 40z" fill="#999"/><path d="m371.129 389.202c0 20.485-16.613 37.099-37.099 37.099-141.542 0-131.251.156-134.958-.359-14.932-.243-28.856-9.541-34.27-24.404-50.411-138.509-34.368-94.436-69.792-191.742-7.003-19.298 2.935-40.543 22.178-47.544 19.245-7.014 40.542 2.922 47.544 22.166 45.105 123.896 31.351 86.109 61.039 167.686h108.258c20.498 0 37.1 16.6 37.1 37.098z" fill="#4379ff"/><path d="m149.158 287.181c-15.452 0-29.477-9.619-34.861-24.408-20.935-57.507-21.535-56.984-21.535-65.66 0-15.153 9.356-29.378 24.427-34.861 19.245-7.014 40.542 2.922 47.544 22.166l19.285 52.973c8.81 24.197-9.109 49.79-34.86 49.79z" fill="#80aaff"/></svg>