<svg id="Layer_1" enable-background="new 0 0 512 512" height="512" viewBox="0 0 512 512" width="512" xmlns="http://www.w3.org/2000/svg"><path d="m415.351 164v184l-159.351 92-159.352-92v-184l159.352-92z" fill="#8dffff"/><path d="m368 191.338v129.324l-112 64.662-112-64.662v-129.324l112-64.662z" fill="#74f7f9"/><path d="m297.57 232v48l-41.57 24-41.57-24v-48l41.57-24z" fill="#68eaea"/><path d="m256 512c-8.836 0-16-7.164-16-16v-192c0-8.836 7.164-16 16-16s16 7.164 16 16v192c0 8.836-7.164 16-16 16z" fill="#4379ff"/><path d="m256 224c-8.836 0-16-7.164-16-16v-192c0-8.836 7.164-16 16-16s16 7.164 16 16v192c0 8.836-7.164 16-16 16z" fill="#4379ff"/><g fill="#80aaff"><path d="m244.686 91.313-40-40c-6.249-6.248-6.249-16.379 0-22.627 6.248-6.249 16.379-6.249 22.627 0l28.687 28.687 28.687-28.686c6.248-6.249 16.379-6.249 22.627 0 6.249 6.248 6.249 16.379 0 22.627l-40 40c-6.248 6.248-16.38 6.249-22.628-.001z"/><path d="m244.686 179.313-40-40c-6.249-6.248-6.249-16.379 0-22.627 6.248-6.249 16.379-6.249 22.627 0l28.687 28.687 28.687-28.686c6.248-6.249 16.379-6.249 22.627 0 6.249 6.248 6.249 16.379 0 22.627l-40 40c-6.248 6.248-16.38 6.249-22.628-.001z"/><path d="m296 488c-4.095 0-8.189-1.562-11.313-4.687l-28.687-28.686-28.687 28.686c-6.248 6.249-16.379 6.249-22.627 0-6.249-6.248-6.249-16.379 0-22.627l40-40c6.248-6.249 16.379-6.249 22.627 0l40 40c10.11 10.109 2.812 27.314-11.313 27.314z"/><path d="m296 399c-4.095 0-8.189-1.562-11.313-4.687l-28.687-28.686-28.687 28.686c-6.248 6.249-16.379 6.249-22.627 0-6.249-6.248-6.249-16.379 0-22.627l40-40c6.248-6.249 16.379-6.249 22.627 0l40 40c10.11 10.109 2.812 27.314-11.313 27.314z"/></g><path d="m463.835 392.002c-6.088.001 7.593 6.848-174.266-98.146-7.691-4.442-10.252-14.241-5.855-21.857 4.417-7.652 14.203-10.274 21.857-5.855l166.279 96c14.14 8.163 8.304 29.858-8.015 29.858z" fill="#4379ff"/><path d="m214.415 248.002c-6.088.001 7.594 6.848-174.265-98.146-7.691-4.44-10.253-14.241-5.856-21.856 4.418-7.652 14.203-10.275 21.856-5.856 30.942 17.864 135.441 78.195 166.28 96 14.107 8.145 8.339 29.858-8.015 29.858z" fill="#4379ff"/><path d="m48.928 198.645c-7.064 0-13.529-4.714-15.444-11.863-2.287-8.536 2.778-17.309 11.313-19.596l39.187-10.5-10.5-39.187c-2.287-8.536 2.778-17.309 11.313-19.596 8.534-2.289 17.309 2.778 19.596 11.313l14.641 54.641c2.287 8.536-2.778 17.309-11.313 19.596-59.03 15.818-55.791 15.192-58.793 15.192z" fill="#80aaff"/><path d="m125.138 242.645c-7.064 0-13.529-4.714-15.444-11.863-2.287-8.536 2.778-17.309 11.313-19.596l39.186-10.5-10.5-39.187c-2.287-8.536 2.779-17.309 11.314-19.596 8.534-2.287 17.309 2.778 19.596 11.314l14.641 54.641c2.287 8.536-2.778 17.309-11.314 19.596-59.029 15.818-55.79 15.191-58.792 15.191z" fill="#80aaff"/><path d="m423.051 414.645c-7.064 0-13.529-4.714-15.444-11.863l-14.641-54.641c-2.287-8.536 2.778-17.309 11.313-19.596l54.641-14.641c8.532-2.289 17.309 2.778 19.596 11.313s-2.778 17.309-11.313 19.596l-39.187 10.5 10.5 39.187c2.723 10.162-4.949 20.145-15.465 20.145z" fill="#80aaff"/><path d="m345.975 370.145c-7.064 0-13.529-4.714-15.444-11.863l-14.641-54.641c-2.287-8.536 2.778-17.309 11.313-19.596l54.641-14.641c8.533-2.288 17.309 2.778 19.596 11.313 2.287 8.536-2.778 17.309-11.313 19.596l-39.187 10.5 10.5 39.187c2.722 10.162-4.949 20.145-15.465 20.145z" fill="#80aaff"/><path d="m48.165 392.002c-16.331.001-22.148-21.699-8.015-29.859l166.279-96c7.654-4.419 17.438-1.797 21.857 5.855 4.391 7.605 1.845 17.41-5.855 21.857-181.612 104.852-168.172 98.147-174.266 98.147z" fill="#4379ff"/><path d="m297.585 248.002c-16.384 0-22.08-21.738-8.015-29.859 24.027-13.872 155.78-89.938 166.28-96 10.727-6.194 24 1.665 24.002 13.838.001 5.531-2.869 10.911-8.002 13.875-181.612 104.852-168.171 98.146-174.265 98.146z" fill="#4379ff"/><path d="m463.071 198.645c-2.967 0 .617.728-58.792-15.19-8.536-2.287-13.601-11.06-11.313-19.596l14.641-54.641c2.286-8.535 11.063-13.604 19.596-11.313 8.536 2.287 13.601 11.06 11.313 19.596l-10.5 39.187 39.187 10.5c8.536 2.287 13.601 11.06 11.313 19.596-1.915 7.146-8.381 11.861-15.445 11.861z" fill="#80aaff"/><path d="m386.861 242.645c-2.967 0 .617.728-58.792-15.19-8.536-2.287-13.601-11.06-11.314-19.596l14.641-54.641c2.287-8.536 11.061-13.601 19.596-11.314s13.601 11.061 11.314 19.596l-10.5 39.187 39.186 10.5c8.536 2.287 13.601 11.06 11.313 19.596-1.915 7.147-8.38 11.862-15.444 11.862z" fill="#80aaff"/><path d="m88.948 414.645c-10.521 0-18.187-9.987-15.465-20.145l10.5-39.187-39.187-10.5c-8.536-2.287-13.601-11.06-11.313-19.596 2.287-8.535 11.06-13.603 19.596-11.313l54.641 14.641c8.536 2.287 13.601 11.06 11.313 19.596l-14.641 54.641c-1.914 7.148-8.38 11.863-15.444 11.863z" fill="#80aaff"/><path d="m166.025 370.145c-10.521 0-18.187-9.987-15.465-20.145l10.5-39.187-39.187-10.5c-8.536-2.287-13.601-11.06-11.313-19.596 2.287-8.535 11.062-13.603 19.596-11.313l54.641 14.641c8.536 2.287 13.601 11.06 11.313 19.596l-14.641 54.641c-1.915 7.148-8.381 11.863-15.444 11.863z" fill="#80aaff"/><path d="m256 320c-5.716 0-3.779.293-49.57-26.144-4.95-2.858-8-8.14-8-13.856v-48c0-5.716 3.05-10.999 8-13.856l41.57-24c4.95-2.858 11.049-2.858 16 0l41.57 24c4.95 2.858 8 8.14 8 13.856v48c0 5.716-3.05 10.999-8 13.856-45.258 26.129-43.808 26.144-49.57 26.144zm-25.57-49.238 25.57 14.763 25.57-14.763v-29.524l-25.57-14.763-25.57 14.763z" fill="#4379ff"/></svg>