<svg id="Layer_1" enable-background="new 0 0 512 512" height="512" viewBox="0 0 512 512" width="512" xmlns="http://www.w3.org/2000/svg"><path d="m301.536 74.645c17.435-33.892-7.119-74.645-45.536-74.645s-62.97 40.754-45.536 74.645z" fill="#ffbd7b"/><path d="m512 375.467v102.4c0 18.848-15.285 34.133-34.133 34.133h-443.734c-18.848 0-34.133-15.285-34.133-34.133v-102.4c0-18.848 15.285-34.133 34.133-34.133h443.733c18.849-.001 34.134 15.285 34.134 34.133z" fill="#f2a661"/><path d="m512 375.467v85.333h-426.667c-18.848 0-34.133-15.285-34.133-34.133v-85.333h426.667c18.848-.001 34.133 15.285 34.133 34.133z" fill="#ffaa64"/><path d="m477.867 324.779v16.555h-443.734v-16.555c0-81.856 47.147-172.672 116.544-221.248 160.602-112.443 327.19 65.573 327.19 221.248z" fill="#f2a661"/><path d="m475.637 293.333h-232.789c-98.495 0-153.414-114.544-92.171-189.803 145.711-102.006 303.657 35.979 324.96 189.803z" fill="#ffaa64"/><g fill="#ffbd7b"><path d="m187.733 375.467c-9.426 0-17.067 7.641-17.067 17.067v68.266c0 9.426 7.641 17.067 17.067 17.067s17.067-7.641 17.067-17.067v-68.267c0-9.426-7.641-17.066-17.067-17.066z"/><path d="m119.467 375.467c-9.426 0-17.067 7.641-17.067 17.067v68.266c0 9.426 7.641 17.067 17.067 17.067s17.067-7.641 17.067-17.067v-68.267c-.001-9.426-7.641-17.066-17.067-17.066z"/><path d="m51.2 375.467c-9.426 0-17.067 7.641-17.067 17.067v68.266c0 9.426 7.641 17.067 17.067 17.067s17.067-7.641 17.067-17.067v-68.267c0-9.426-7.641-17.066-17.067-17.066z"/><path d="m256 375.467c-9.426 0-17.067 7.641-17.067 17.067v68.266c0 9.426 7.641 17.067 17.067 17.067s17.067-7.641 17.067-17.067v-68.267c0-9.426-7.641-17.066-17.067-17.066z"/><path d="m324.267 375.467c-9.426 0-17.067 7.641-17.067 17.067v68.266c0 9.426 7.641 17.067 17.067 17.067s17.067-7.641 17.067-17.067v-68.267c-.001-9.426-7.641-17.066-17.067-17.066z"/><path d="m392.533 375.467c-9.426 0-17.067 7.641-17.067 17.067v68.266c0 9.426 7.641 17.067 17.067 17.067s17.067-7.641 17.067-17.067v-68.267c0-9.426-7.641-17.066-17.067-17.066z"/><path d="m460.8 375.467c-9.426 0-17.067 7.641-17.067 17.067v68.266c0 9.426 7.641 17.067 17.067 17.067s17.067-7.641 17.067-17.067v-68.267c0-9.426-7.641-17.066-17.067-17.066z"/></g><path d="m344.405 204.203c-9.116 2.458-18.469-2.882-20.96-11.979-3.275-12.011-6.987-23.531-11.008-34.24-16.853-44.822-38.474-72.651-56.437-72.651-10.261 0-22.283 9.525-33.856 26.816-12.917 19.328-24.544 47.018-33.6 80.096-2.485 9.088-11.883 14.432-20.971 11.947s-14.443-11.872-11.947-20.971c9.806-35.8 26.702-80.582 51.99-107.744 31.985-9.611 64.769-9.618 96.757 0 25.257 26.989 42.26 72.062 52.01 107.765 2.476 9.089-2.879 18.475-11.978 20.961z" fill="#f2a661"/></svg>