<svg id="Layer_1" enable-background="new 0 0 512 512" height="512" viewBox="0 0 512 512" width="512" xmlns="http://www.w3.org/2000/svg"><path d="m443.733 174.933v162.133c0 23.563-19.104 42.667-42.667 42.667h-77.621c-19.573 0-36.64-13.323-41.387-32.32l-4.853-19.392c-5.495-21.981-36.91-22.005-42.41 0l-4.853 19.392c-4.747 18.997-21.813 32.32-41.387 32.32h-77.621c-23.563 0-42.667-19.104-42.667-42.667v-162.133c0-23.563 19.104-42.667 42.667-42.667h290.133c23.562.001 42.666 19.105 42.666 42.667z" fill="#68eaea"/><path d="m443.733 174.933v110.933c0 23.563-19.104 42.667-42.667 42.667h-77.621c-19.573 0-36.64-13.323-41.387-32.32l-4.853-19.392c-5.495-21.981-36.91-22.005-42.41 0l-4.853 19.392c-4.747 18.997-21.813 32.32-41.387 32.32h-77.621c-23.563 0-42.667-19.104-42.667-42.667v-110.933c0-23.563 19.104-42.667 42.667-42.667h290.133c23.562.001 42.666 19.105 42.666 42.667z" fill="#74f7f9"/><path d="m443.733 174.933h51.2c9.426 0 17.067 7.641 17.067 17.067v119.467c0 9.426-7.641 17.067-17.067 17.067h-51.2z" fill="#aaa"/><path d="m68.267 328.533h-51.2c-9.426 0-17.067-7.641-17.067-17.066v-119.467c0-9.426 7.641-17.067 17.067-17.067h51.2z" fill="#aaa"/><path d="m68.267 328.533h-51.2c-9.426 0-17.067-7.641-17.067-17.066v-51.2h68.267z" fill="#999"/><path d="m494.933 328.533h-51.2v-68.267h68.267v51.2c0 9.426-7.641 17.067-17.067 17.067z" fill="#999"/><g fill="#8dffff"><path d="m175.666 188.466-51.2 51.2c-6.666 6.665-6.666 17.471 0 24.135 6.666 6.666 17.471 6.665 24.135 0l51.2-51.2c6.666-6.665 6.666-17.471 0-24.135-6.665-6.665-17.471-6.665-24.135 0z"/><path d="m269.532 188.466-51.2 51.2c-6.666 6.665-6.666 17.471 0 24.135 6.666 6.666 17.471 6.665 24.135 0l51.2-51.2c6.666-6.665 6.666-17.471 0-24.135-6.664-6.665-17.47-6.665-24.135 0z"/><path d="m363.399 188.466-51.2 51.2c-6.666 6.665-6.666 17.471 0 24.135 6.666 6.666 17.471 6.665 24.135 0l51.2-51.2c6.666-6.665 6.666-17.471 0-24.135-6.664-6.665-17.47-6.665-24.135 0z"/></g><path d="m401.067 396.8h-77.62c-27.46 0-51.291-18.606-57.95-45.247l-4.848-19.39c-1.206-4.824-8.092-4.826-9.298.001l-4.848 19.39c-6.659 26.64-30.49 45.246-57.95 45.246h-77.62c-32.938 0-59.733-26.796-59.733-59.733v-162.134c0-32.938 26.796-59.733 59.733-59.733h290.133c32.938 0 59.733 26.796 59.733 59.733v162.133c.001 32.938-26.795 59.734-59.732 59.734zm-145.067-102.4c17.894 0 33.422 12.124 37.764 29.483l4.848 19.392c2.854 11.418 13.067 19.392 24.835 19.392h77.62c14.116 0 25.6-11.484 25.6-25.6v-162.134c0-14.116-11.484-25.6-25.6-25.6h-290.134c-14.116 0-25.6 11.484-25.6 25.6v162.133c0 14.116 11.484 25.6 25.6 25.6h77.62c11.769 0 21.981-7.974 24.835-19.391l4.848-19.392c4.342-17.359 19.87-29.483 37.764-29.483z" fill="#b2b2b2"/></svg>