<svg id="Layer_1" enable-background="new 0 0 512.105 512.105" height="512" viewBox="0 0 512.105 512.105" width="512" xmlns="http://www.w3.org/2000/svg"><path d="m409.615 512.053c-9.426 0-17.067-7.641-17.067-17.067v-238.933c0-9.426 7.641-17.067 17.067-17.067s17.067 7.641 17.067 17.067v238.933c0 9.426-7.641 17.067-17.067 17.067z" fill="#999"/><path d="m477.882 512.053h-68.267c-4.527 0-8.867-1.798-12.068-4.999l-63.268-63.268h-112.397c-9.426 0-17.067-7.641-17.067-17.067s7.641-17.067 17.067-17.067h119.467c4.527 0 8.867 1.798 12.068 4.999l63.268 63.268h44.131v-93.867h-204.8c-9.426 0-17.067-7.641-17.067-17.067s7.641-17.067 17.067-17.067h221.867c9.426 0 17.067 7.641 17.067 17.067v128c-.001 9.427-7.642 17.068-17.068 17.068z" fill="#999"/><path d="m512.015 222.517c0 16.275 1.746 28.524-10.176 40.427-6.283 6.293-14.965 10.176-24.555 10.176h-221.269v102.4c0 51.84-42.027 93.867-93.867 93.867-89.541 0-162.133-72.573-162.133-162.133 0-171.301-.11-157.973.256-162.133 1.365-15.851 8.245-30.795 19.52-42.197 189.216-191.253 414.784-88.298 452.587 84.864h4.907c19.137-.002 34.73 15.501 34.73 34.729z" fill="#4379ff"/><path d="m507.194 204.842c-5.962 10.164-17.149 17.077-29.909 17.077h-170.07c-28.277 0-51.2 22.923-51.2 51.2v51.2c0 46.784-34.229 85.685-79.061 92.725-80.449-9.544-142.805-78.012-142.805-160.992v-105.066c0-17.995 7.115-35.264 19.776-48.064 54.901-55.49 123.804-96.811 202.005-102.262 106.769 7.478 194.206 85.151 216.448 187.126h4.907c12.725 0 23.85 6.848 29.909 17.056z" fill="#6994ff"/><path d="m454.885 136.586h-221.27c-63.093 0-117.301-38.037-140.939-92.437 150.102-92.929 305.014-27.958 362.209 92.437z" fill="#80aaff"/><path d="m119.482 162.186c0 9.429-7.637 17.067-17.067 17.067h-102.4c0-31.721-.082-30.283.256-34.133h102.144c9.43-.001 17.067 7.637 17.067 17.066z" fill="#4379ff"/><path d="m119.482 273.119c0 9.429-7.637 17.067-17.067 17.067h-102.4v-34.133h102.4c9.43 0 17.067 7.637 17.067 17.066z" fill="#4379ff"/><path d="m153.615 418.186c-28.232 0-51.2-22.968-51.2-51.2s22.968-51.2 51.2-51.2 51.2 22.968 51.2 51.2-22.968 51.2-51.2 51.2zm0-68.267c-9.41 0-17.067 7.656-17.067 17.067 0 9.41 7.656 17.067 17.067 17.067s17.067-7.656 17.067-17.067c0-9.41-7.656-17.067-17.067-17.067z" fill="#999"/></svg>