<svg id="Layer_1" enable-background="new 0 0 512.186 512.186" height="512" viewBox="0 0 512.186 512.186" width="512" xmlns="http://www.w3.org/2000/svg"><g fill="#b2b2b2"><path d="m204.893 230.586h-34.133c-9.426 0-17.067-7.641-17.067-17.067s7.641-17.067 17.067-17.067h34.133c9.426 0 17.067 7.641 17.067 17.067 0 9.427-7.641 17.067-17.067 17.067z"/><path d="m51.293 230.586h-34.133c-9.426 0-17.067-7.641-17.067-17.067s7.641-17.067 17.067-17.067h34.133c9.426 0 17.067 7.641 17.067 17.067 0 9.427-7.641 17.067-17.067 17.067z"/><path d="m204.893 341.52h-34.133c-9.426 0-17.067-7.641-17.067-17.067s7.641-17.067 17.067-17.067h34.133c9.426 0 17.067 7.641 17.067 17.067s-7.641 17.067-17.067 17.067z"/><path d="m51.293 341.52h-34.133c-9.426 0-17.067-7.641-17.067-17.067s7.641-17.067 17.067-17.067h34.133c9.426 0 17.067 7.641 17.067 17.067s-7.641 17.067-17.067 17.067z"/><path d="m495.026 230.586h-34.133c-9.426 0-17.067-7.641-17.067-17.067s7.641-17.067 17.067-17.067h34.133c9.426 0 17.067 7.641 17.067 17.067 0 9.427-7.641 17.067-17.067 17.067z"/><path d="m341.426 230.586h-34.133c-9.426 0-17.067-7.641-17.067-17.067s7.641-17.067 17.067-17.067h34.133c9.426 0 17.067 7.641 17.067 17.067 0 9.427-7.641 17.067-17.067 17.067z"/><path d="m495.026 341.52h-34.133c-9.426 0-17.067-7.641-17.067-17.067s7.641-17.067 17.067-17.067h34.133c9.426 0 17.067 7.641 17.067 17.067s-7.641 17.067-17.067 17.067z"/><path d="m341.426 341.52h-34.133c-9.426 0-17.067-7.641-17.067-17.067s7.641-17.067 17.067-17.067h34.133c9.426 0 17.067 7.641 17.067 17.067s-7.641 17.067-17.067 17.067z"/></g><path d="m477.96 512.186c-54.324-21.744-98.451-22.06-153.6 0 15.208-60.818 11.731-46.909 17.067-68.267-8.997-98.848-15.247-186.437-16.757-303.477 30.065 61.072 114.429 62.011 147.979 8.736 5.126-7.774 5.083-9.923 4.992-8.107-1.492 117.55-7.757 204.082-16.747 302.848 7.334 29.359 6.307 25.233 17.066 68.267z" fill="#999"/><path d="m460.893 443.92c8.615-94.648 15.68-192.691 17.067-303.477-13.116 26.201-37.834 43.083-64.736 46.624-9.67 1.399-21.332.835-27.723-.587-.334-.054.634 92.307 15.659 257.44l-13.088 52.352c31.316-2.447 60.345 4.089 89.888 15.915-10.505-42.021 9.826 39.37-17.067-68.267z" fill="#aaa"/><path d="m486.493 59.92c0 42.732 2.217 58.256-8.843 80.523-31.333 63.192-121.616 63.259-152.981 0-11.006-22.159-8.843-36.817-8.843-80.523 0-32.992 26.741-59.733 59.733-59.733h51.2c32.993-.001 59.734 26.74 59.734 59.733z" fill="#4379ff"/><path d="m196.36 59.92c0 43.061 1.447 53.828-5.12 71.84-12.201 33.373-43.91 56.16-80.213 56.16-47.109 0-85.333-38.203-85.333-85.333v-42.667c0-24.288 14.496-45.195 35.317-54.528 15.385-6.91 23.787-5.205 75.616-5.205 32.991-.001 59.733 26.74 59.733 59.733z" fill="#4379ff"/><path d="m196.36 59.92c0 43.061 1.447 53.828-5.12 71.84-42.188 27.087-99.67 12.202-122.571-33.984-11.006-22.159-8.843-36.817-8.843-80.523 0-4.064.405-8.032 1.184-11.861 15.385-6.91 23.787-5.205 75.616-5.205 32.992-.001 59.734 26.74 59.734 59.733z" fill="#6994ff"/><path d="m486.493 59.92c0 43.061 1.447 53.828-5.12 71.84-42.188 27.087-99.67 12.202-122.571-33.984-11.006-22.159-8.843-36.817-8.843-80.523 0-4.064.405-8.032 1.184-11.861 15.385-6.91 23.787-5.205 75.616-5.205 32.993-.001 59.734 26.74 59.734 59.733z" fill="#6994ff"/><path d="m187.826 512.186c-54.334-21.748-98.452-22.059-153.6 0 15.208-60.818 11.731-46.909 17.067-68.267-9.299-102.164-15.285-189.376-16.757-303.477 17.223 34.984 56.063 52.581 89.973 46.41 1.57 0 13.382-2.845 16.384-4.309 20.62-7.74 36.882-22.633 46.624-42.101-1.433 114.504-7.504 201.81-16.757 303.477 7.008 28.051 4.044 16.176 17.066 68.267z" fill="#999"/><path d="m170.76 443.92c8.867-97.414 15.304-187.303 16.757-303.477-13.206 26.391-37.342 41.533-58.507 45.568-5.517 1.473-17.895 2.241-20.576 1.867-6.461-.15-11.101-1.076-13.269-1.429 2.6 101.22 8.242 173.729 15.861 257.472l-13.088 52.352c31.332-2.448 60.372 4.1 89.888 15.915-13.576-54.309-9.64-38.546-17.066-68.268z" fill="#aaa"/><path d="m128.093 290.32h-34.133c-9.426 0-17.067-7.641-17.067-17.067s7.641-17.067 17.067-17.067h34.133c9.426 0 17.067 7.641 17.067 17.067s-7.641 17.067-17.067 17.067z" fill="#b2b2b2"/><path d="m128.093 367.12h-34.133c-9.426 0-17.067-7.641-17.067-17.067s7.641-17.067 17.067-17.067h34.133c9.426 0 17.067 7.641 17.067 17.067s-7.641 17.067-17.067 17.067z" fill="#b2b2b2"/><path d="m418.226 290.32h-34.133c-9.426 0-17.067-7.641-17.067-17.067s7.641-17.067 17.067-17.067h34.133c9.426 0 17.067 7.641 17.067 17.067s-7.641 17.067-17.067 17.067z" fill="#b2b2b2"/><path d="m418.226 367.12h-34.133c-9.426 0-17.067-7.641-17.067-17.067s7.641-17.067 17.067-17.067h34.133c9.426 0 17.067 7.641 17.067 17.067s-7.641 17.067-17.067 17.067z" fill="#b2b2b2"/><path d="m93.96 443.92c0 9.429-7.637 17.067-17.067 17.067-27.438 0-27.017.179-29.739-.502l4.139-16.565-1.547-16.992c1.026-.106-.717-.074 27.147-.074 9.43-.001 17.067 7.636 17.067 17.066z" fill="#b2b2b2"/><path d="m174.898 460.485c-2.74.685-2.085.502-29.739.502-9.429 0-17.067-7.638-17.067-17.067s7.637-17.067 17.067-17.067c27.639 0 26.121-.032 27.147.074l-1.547 16.992z" fill="#b2b2b2"/><path d="m384.093 443.92c0 9.429-7.637 17.067-17.067 17.067-27.438 0-27.017.179-29.739-.502l4.139-16.565-1.547-16.992c1.026-.106-.717-.074 27.147-.074 9.43-.001 17.067 7.636 17.067 17.066z" fill="#b2b2b2"/><path d="m465.032 460.485c-2.74.685-2.085.502-29.739.502-9.429 0-17.067-7.638-17.067-17.067s7.637-17.067 17.067-17.067c27.639 0 26.121-.032 27.147.074l-1.547 16.992z" fill="#b2b2b2"/></svg>