<svg id="Layer_1" enable-background="new 0 0 512.102 512.102" height="512" viewBox="0 0 512.102 512.102" width="512" xmlns="http://www.w3.org/2000/svg"><path d="m477.945 221.969v204.8h-443.733v-204.8c0-122.818 99.602-221.867 221.867-221.867 122.525 0 221.866 99.33 221.866 221.867z" fill="#6994ff"/><path d="m477.945 221.969v157.867h-187.733c-112.793 0-204.8-91.381-204.8-204.8 0-52.224 18.037-100.224 48.224-138.123 145.456-96.424 344.309 6.827 344.309 185.056z" fill="#80aaff"/><g fill="#4379ff"><path d="m253.22.134c-59.861 1.526-108.075 50.688-108.075 110.902v316.085c0 8.245-5.845 15.125-13.621 16.715-10.368 2.17-20.512-5.738-20.512-16.715v-316.085c0-26.027 6.891-50.474 18.933-71.616 34.131-23.943 77.386-38.72 123.275-39.286z"/><path d="m401.145 111.036v316.085c0 8.245-5.845 15.125-13.621 16.715-10.368 2.17-20.512-5.738-20.512-16.715v-316.085c0-61.277-49.592-110.933-110.933-110.933 46.933 0 90.464 14.571 126.304 39.445 12.245 21.557 18.762 46.016 18.762 71.488z"/><path d="m273.145.753v426.016c0 9.429-7.637 17.067-17.067 17.067-9.429 0-17.067-7.637-17.067-17.067v-426.005c11.25-.87 22.849-.887 34.134-.011z"/></g><path d="m512.079 460.902v17.067c0 18.848-15.285 34.133-34.133 34.133h-443.734c-18.848 0-34.133-15.285-34.133-34.133 0-17.794-.643-22.155 2.475-29.867 5.067-12.502 17.333-21.333 31.659-21.333h443.733c18.71 0 34.133 15.136 34.133 34.133z" fill="#6994ff"/><path d="m509.604 448.102c-5.067 12.501-17.333 21.333-31.659 21.333h-443.733c-14.325 0-26.592-8.832-31.659-21.333 5.067-12.502 17.333-21.333 31.659-21.333h443.733c14.326 0 26.592 8.832 31.659 21.333z" fill="#80aaff"/><path d="m273.145 375.569h-34.133c-28.277 0-51.2-22.923-51.2-51.2 0-28.198 22.845-51.2 51.2-51.2h34.133c28.277 0 51.2 22.923 51.2 51.2 0 28.198-22.845 51.2-51.2 51.2z" fill="#999"/><path d="m162.212 221.969h-8.533c-23.564 0-42.667-19.102-42.667-42.667 0-23.499 19.038-42.667 42.667-42.667h8.533c23.564 0 42.667 19.102 42.667 42.667 0 23.499-19.038 42.667-42.667 42.667z" fill="#999"/><path d="m358.479 221.969h-8.533c-23.564 0-42.667-19.102-42.667-42.667 0-23.499 19.038-42.667 42.667-42.667h8.533c23.564 0 42.667 19.102 42.667 42.667-.001 23.499-19.038 42.667-42.667 42.667z" fill="#999"/></svg>