<svg id="Layer_1" enable-background="new 0 0 512.023 512.023" height="512" viewBox="0 0 512.023 512.023" width="512" xmlns="http://www.w3.org/2000/svg"><path d="m409.623 256.011v119.467h34.133c37.707 0 68.267 30.56 68.267 68.267h-341.334c-94.261 0-170.667-76.405-170.667-170.667 0-116.587-.068-113.067.032-113.067 1.131-50.859 42.709-91.733 93.835-91.733h76.8c0 51.509-41.493 93.323-92.875 93.856 26.389 57.152 83.627 93.877 146.731 93.877h21.056c43.441 0 78.688-35.231 78.688-78.688 0-47.297 48.16-79.399 91.776-61.322 14.651 6.071 20.554 13.407 36.224 29.077h25.6c18.731 0 34.059 15.093 34.133 33.814 0 43.389-34.92 77.12-76.8 77.12h-25.599z" fill="#c79a83"/><path d="m512.023 178.892c0 43.358-34.883 77.12-76.8 77.12h-25.6v119.467h-264.534c-80.118 0-145.067-64.949-145.067-145.067 0-73.291-.068-70.4.032-70.4 1.131-50.859 42.709-91.733 93.835-91.733h76.8c0 51.509-41.493 93.323-92.875 93.856 26.389 57.152 83.627 93.877 146.731 93.877h21.056c43.441 0 78.688-35.231 78.688-78.688 0-59.324 71.874-88.372 113.312-46.933l14.688 14.688h25.6c18.731-.001 34.059 15.092 34.134 33.813z" fill="#e0b7a3"/></svg>