<svg id="Layer_1" enable-background="new 0 0 512.009 512.009" height="512" viewBox="0 0 512.009 512.009" width="512" xmlns="http://www.w3.org/2000/svg"><path d="m418.138 349.871c0 89.547-72.587 162.133-162.133 162.133s-162.134-72.586-162.134-162.133c0-59.191 32-112.752 82.56-141.291h159.147c50.482 28.496 82.56 82.002 82.56 141.291z" fill="#ece2e2"/><path d="m416.122 324.281c-12.277 77.376-79.285 136.523-160.117 136.523s-147.84-59.147-160.117-136.523c7.872-49.706 38.347-91.882 80.544-115.701h159.147c42.196 23.819 72.671 65.995 80.543 115.701z" fill="#f9f9f9"/><path d="m375.471 119.471c0 65.984-53.483 119.467-119.467 119.467s-119.467-53.483-119.467-119.467c0-66.23 53.736-119.467 119.467-119.467 65.771 0 119.467 53.286 119.467 119.467z" fill="#ece2e2"/><path d="m373.572 98.138c-10.059 55.797-58.869 98.133-117.568 98.133s-107.509-42.336-117.568-98.133c10.059-55.798 58.87-98.134 117.568-98.134s107.51 42.336 117.568 98.134z" fill="#f9f9f9"/><g fill="#999"><circle cx="256.004" cy="307.204" r="17.067"/><circle cx="256.004" cy="375.471" r="17.067"/><circle cx="256.004" cy="443.738" r="17.067"/></g><path d="m256.004 197.338c9.426 0 17.067-7.641 17.067-17.067v-34.133c0-9.426-7.641-17.067-17.067-17.067s-17.067 7.641-17.067 17.067v34.133c.001 9.426 7.641 17.067 17.067 17.067z" fill="#ffaa64"/><circle cx="204.804" cy="102.404" fill="#999" r="17.067"/><circle cx="307.204" cy="102.404" fill="#999" r="17.067"/><path d="m501.064 192.826-21.51-7.17 26.446-21.157c6.9-5.521 8.019-15.589 2.499-22.489-5.521-6.9-15.589-8.017-22.489-2.499l-22.005 17.604v-13.11c0-8.837-7.163-16-16-16s-16 7.163-16 16v38.71l-105.996 84.795c-11.776 9.421-5.076 28.495 10.005 28.495 3.506 0 7.035-1.147 9.985-3.507l103.792-83.033c45.775 15.258 42.72 14.543 46.215 14.543 6.699 0 12.942-4.24 15.177-10.944 2.795-8.383-1.736-17.444-10.119-20.238z" fill="#c79a83"/><path d="m185.999 267.51-105.995-84.796v-38.71c0-8.837-7.163-16-16-16s-16 7.163-16 16v13.11l-22.005-17.604c-6.899-5.52-16.968-4.401-22.489 2.499-5.52 6.9-4.401 16.969 2.499 22.489l26.446 21.157-21.51 7.17c-8.383 2.794-12.914 11.855-10.119 20.238 2.234 6.705 8.478 10.944 15.177 10.944 3.687 0 2.089.166 46.215-14.543l103.792 83.033c2.95 2.36 6.479 3.507 9.985 3.507 15.081.001 21.781-19.072 10.004-28.494z" fill="#c79a83"/></svg>