<svg id="Layer_1" enable-background="new 0 0 512.176 512.176" height="512" viewBox="0 0 512.176 512.176" width="512" xmlns="http://www.w3.org/2000/svg"><path d="m512 298.85v119.46h-409.6c.495-26.782 2.493-134.969 2.84-153.6 13.071-78.009 69.65-138.939 139.36-160.91 131.356-42.012 267.4 55.31 267.4 195.05z" fill="#ece2e2"/><path d="m68.267 418.314h136.533v-85.333c0-37.707-30.56-68.267-68.267-68.267-7.144 0-61.009 0-68.267 0v153.6z" fill="#f2f2f2"/><path d="m512 358.58h-68.27c-132.299 0-241.013-96.82-261.16-222.25 110.403-85.079 268.631-35.606 315.7 88.65 16.507 42.29 13.73 70.694 13.73 133.6z" fill="#f2f2f2"/><path d="m507.55 256.181c-180.892 0-174.97.785-192.88-2.19-62.518-10.26-114.121-56.957-130.26-119.04 115.508-87.467 289.638-29.428 323.14 121.23z" fill="#f9f9f9"/><path d="m136.533 418.314h-136.533v-85.334c0-37.703 30.564-68.267 68.267-68.267 37.598 0 68.267 30.46 68.267 68.267v85.334z" fill="#ece2e2"/><path d="m104 418.314h-71.467v-85.867c0-19.735 15.998-35.733 35.733-35.733 19.68 0 35.733 15.944 35.733 35.733v85.867z" fill="#999"/><g fill="#b2b2b2"><path d="m512 334.051v32h-213.33c-8.84 0-16-7.17-16-16 0-8.84 7.16-16 16-16z"/><path d="m511.99 297.761c-.377.033 11.07.02-238.92.02-10.062 0-16.779-9.205-15.99-16.29.15-8.71 7.25-15.71 15.99-15.71h236.27c1.616 9.901 2.65 21.206 2.65 31.98z"/><path d="m349.866 357.514c-8.837 0-16-7.164-16-16v-59.733c0-8.836 7.163-16 16-16s16 7.164 16 16v59.733c0 8.836-7.163 16-16 16z"/><path d="m452.267 366.047c-8.837 0-16-7.164-16-16v-68.267c0-8.836 7.163-16 16-16s16 7.164 16 16v68.267c0 8.837-7.163 16-16 16z"/><path d="m499.53 228.301c-.288.288-3.302 1.21-6.1 1.21-290.481 0-273.379.57-277.67-1.21-13.787-5.695-12.917-25.621 1.35-30.07h.01c3.391-1.063-13.531-.72 268.09-.72 6.769 11.788 10.206 20.327 14.32 30.79z"/><path d="m298.667 297.781c-8.837 0-16-7.164-16-16v-68.267c0-8.836 7.163-16 16-16s16 7.164 16 16v68.267c0 8.836-7.163 16-16 16z"/><path d="m349.866 229.514c-8.837 0-16-7.164-16-16v-59.733c0-8.836 7.163-16 16-16s16 7.164 16 16v59.733c0 8.836-7.163 16-16 16z"/><path d="m417.07 350.051v68.26h-32v-68.26c0-8.84 7.16-16 16-16 8.83 0 16 7.16 16 16z"/><path d="m401.066 297.781c-8.837 0-16-7.164-16-16v-68.267c0-8.836 7.163-16 16-16s16 7.164 16 16v68.267c0 8.836-7.163 16-16 16z"/></g></svg>