<?xml version="1.0" encoding="iso-8859-1"?>
<!-- Generator: Adobe Illustrator 19.0.0, SVG Export Plug-In . SVG Version: 6.00 Build 0)  -->
<svg version="1.1" id="Capa_1" xmlns="http://www.w3.org/2000/svg" xmlns:xlink="http://www.w3.org/1999/xlink" x="0px" y="0px"
	 viewBox="0 0 512 512" style="enable-background:new 0 0 512 512;" xml:space="preserve">
<radialGradient id="SVGID_1_" cx="-30.6619" cy="-927.5116" r="487.24" gradientTransform="matrix(0.7099 0.7099 0.7099 -0.7099 1002.8304 -566.9073)" gradientUnits="userSpaceOnUse">
	<stop  offset="0.003" style="stop-color:#EFFBFF"/>
	<stop  offset="0.435" style="stop-color:#EDF9FE"/>
	<stop  offset="0.591" style="stop-color:#E6F4F9"/>
	<stop  offset="0.702" style="stop-color:#DBEAF2"/>
	<stop  offset="0.792" style="stop-color:#CADCE6"/>
	<stop  offset="0.869" style="stop-color:#B4CAD8"/>
	<stop  offset="0.935" style="stop-color:#99B3C6"/>
	<stop  offset="0.996" style="stop-color:#7A99B2"/>
	<stop  offset="1" style="stop-color:#7797B0"/>
</radialGradient>
<circle style="fill:url(#SVGID_1_);" cx="256" cy="256" r="256"/>
<linearGradient id="SVGID_2_" gradientUnits="userSpaceOnUse" x1="241.706" y1="265.0455" x2="38.866" y2="62.2055" gradientTransform="matrix(1.0039 0 0 -1.0039 0.1922 516.5609)">
	<stop  offset="0" style="stop-color:#FFA981"/>
	<stop  offset="0.428" style="stop-color:#FF8666"/>
	<stop  offset="1" style="stop-color:#FF5C45"/>
</linearGradient>
<path style="fill:url(#SVGID_2_);" d="M220.501,479.527C350.184,328.947,356.445,180.32,356.445,180.32
	S156.1,147.025,22.908,263.659c-14.285,12.509-20.536,31.953-16.245,50.45c10.448,45.043,33.214,87.806,68.318,122.91
	c25.582,25.582,55.233,44.609,86.869,57.094C182.506,502.265,206.011,496.354,220.501,479.527z"/>
<linearGradient id="SVGID_3_" gradientUnits="userSpaceOnUse" x1="412.8569" y1="398.8947" x2="342.7769" y2="328.8246" gradientTransform="matrix(1.0039 0 0 -1.0039 0.1922 516.5609)">
	<stop  offset="0" style="stop-color:#FEFFB3"/>
	<stop  offset="0.118" style="stop-color:#FEFDA7"/>
	<stop  offset="0.333" style="stop-color:#FEF785"/>
	<stop  offset="0.622" style="stop-color:#FFEE50"/>
	<stop  offset="0.971" style="stop-color:#FFE107"/>
	<stop  offset="1" style="stop-color:#FFE000"/>
</linearGradient>
<path style="fill:url(#SVGID_3_);" d="M437.019,74.981c-18.53-18.53-39.199-33.618-61.207-45.279
	c2.768,81.158-19.367,150.619-19.367,150.619s73.73-28.706,137.684-18.419C481.639,130.248,462.615,100.576,437.019,74.981z"/>
<linearGradient id="SVGID_4_" gradientUnits="userSpaceOnUse" x1="381.0754" y1="228.4217" x2="451.6154" y2="52.0617" gradientTransform="matrix(1.0039 0 0 -1.0039 0.1922 516.5609)">
	<stop  offset="0" style="stop-color:#AFDC00"/>
	<stop  offset="0.193" style="stop-color:#ACD800"/>
	<stop  offset="0.384" style="stop-color:#A3CC00"/>
	<stop  offset="0.573" style="stop-color:#93B800"/>
	<stop  offset="0.761" style="stop-color:#7D9D00"/>
	<stop  offset="0.948" style="stop-color:#617900"/>
	<stop  offset="1" style="stop-color:#586E00"/>
</linearGradient>
<path style="fill:url(#SVGID_4_);" d="M437.019,437.019c47.895-47.896,72.828-110.048,74.833-172.797
	c-0.201-0.731-0.396-1.464-0.603-2.193c-23.831-83.851-154.804-81.709-154.804-81.709s114.346,136.734-27.138,321.006
	C368.733,489.582,405.889,468.151,437.019,437.019z"/>
<linearGradient id="SVGID_5_" gradientUnits="userSpaceOnUse" x1="183.9862" y1="415.612" x2="238.4362" y2="279.482" gradientTransform="matrix(1.0039 0 0 -1.0039 0.1922 516.5609)">
	<stop  offset="0" style="stop-color:#00FFF4"/>
	<stop  offset="1" style="stop-color:#00DBFF"/>
</linearGradient>
<path style="fill:url(#SVGID_5_);" d="M272.777,0.561c-70.989-4.634-143.54,20.163-197.796,74.42
	c-11.374,11.374-21.44,23.56-30.226,36.36c150.608-72.099,311.691,68.98,311.691,68.98C331.834,89.976,302.822,33.716,272.777,0.561
	z"/>
<linearGradient id="SVGID_6_" gradientUnits="userSpaceOnUse" x1="382.3176" y1="362.384" x2="275.6976" y2="255.764" gradientTransform="matrix(1.0039 0 0 -1.0039 0.1922 516.5609)">
	<stop  offset="0.003" style="stop-color:#EFFBFF"/>
	<stop  offset="1" style="stop-color:#B2D5EC"/>
</linearGradient>
<path style="fill:url(#SVGID_6_);" d="M403.359,213.819c-18.501,18.501-51.5,15.499-73.706-6.707
	c-22.206-22.206-25.208-55.205-6.707-73.706c18.501-18.501,51.5-15.499,73.706,6.707
	C418.857,162.319,421.86,195.318,403.359,213.819z"/>
<g>
</g>
<g>
</g>
<g>
</g>
<g>
</g>
<g>
</g>
<g>
</g>
<g>
</g>
<g>
</g>
<g>
</g>
<g>
</g>
<g>
</g>
<g>
</g>
<g>
</g>
<g>
</g>
<g>
</g>
</svg>
