<?xml version="1.0" encoding="iso-8859-1"?>
<!-- Generator: Adobe Illustrator 19.0.0, SVG Export Plug-In . SVG Version: 6.00 Build 0)  -->
<svg version="1.1" id="Capa_1" xmlns="http://www.w3.org/2000/svg" xmlns:xlink="http://www.w3.org/1999/xlink" x="0px" y="0px"
	 viewBox="0 0 512 512" style="enable-background:new 0 0 512 512;" xml:space="preserve">
<linearGradient id="SVGID_1_" gradientUnits="userSpaceOnUse" x1="442.8773" y1="490.1942" x2="494.4388" y2="438.6317" gradientTransform="matrix(1.0039 0 0 -1.0039 0.1922 516.5603)">
	<stop  offset="0" style="stop-color:#605654"/>
	<stop  offset="0.351" style="stop-color:#5B5351"/>
	<stop  offset="0.745" style="stop-color:#4E4948"/>
	<stop  offset="1" style="stop-color:#413F40"/>
</linearGradient>
<polygon style="fill:url(#SVGID_1_);" points="493.803,78.975 442.039,27.211 447.573,21.677 499.337,73.441 "/>
<rect x="441.12" y="50.875" transform="matrix(-0.7071 -0.7071 0.7071 -0.7071 728.232 435.1604)" style="fill:#B2D5EC;" width="26.242" height="31.768"/>
<linearGradient id="SVGID_2_" gradientUnits="userSpaceOnUse" x1="425.8087" y1="435.2717" x2="452.6687" y2="408.4117" gradientTransform="matrix(1.0039 0 0 -1.0039 0.1922 516.5603)">
	<stop  offset="0" style="stop-color:#EFFBFF"/>
	<stop  offset="0.242" style="stop-color:#EAF8FE"/>
	<stop  offset="0.514" style="stop-color:#DDF0F9"/>
	<stop  offset="0.799" style="stop-color:#C6E2F2"/>
	<stop  offset="1" style="stop-color:#B2D5EC"/>
</linearGradient>
<path style="fill:url(#SVGID_2_);" d="M437.481,124.552l-41.02-41.02l22.572-22.572c6.952-6.952,18.224-6.952,25.176,0
	l15.844,15.844c6.952,6.952,6.952,18.224,0,25.176L437.481,124.552z"/>
<linearGradient id="SVGID_3_" gradientUnits="userSpaceOnUse" x1="108.7601" y1="362.7932" x2="329.5901" y2="141.9731" gradientTransform="matrix(1.0039 0 0 -1.0039 0.1922 516.5603)">
	<stop  offset="0" style="stop-color:#00FFF4"/>
	<stop  offset="1" style="stop-color:#00DBFF"/>
</linearGradient>
<path style="fill:url(#SVGID_3_);" d="M80.3,494.269l-53.554-53.554c-23.641-23.641-23.641-61.972,0-85.614L298.299,83.547
	c31.286-31.286,82.011-31.286,113.298,0l25.871,25.871c31.286,31.286,31.286,82.011,0,113.298L165.914,494.269
	C142.272,517.91,103.941,517.91,80.3,494.269z"/>
<linearGradient id="SVGID_4_" gradientUnits="userSpaceOnUse" x1="260.9264" y1="210.6294" x2="306.4864" y2="165.0594" gradientTransform="matrix(1.0039 0 0 -1.0039 0.1922 516.5603)">
	<stop  offset="0" style="stop-color:#00DBFF;stop-opacity:0"/>
	<stop  offset="1" style="stop-color:#279AFF"/>
</linearGradient>
<path style="fill:url(#SVGID_4_);" d="M437.467,109.417l-12.936-12.936L53.522,467.491l26.777,26.777
	c23.641,23.641,61.973,23.642,85.614,0l271.554-271.554C468.754,191.429,468.754,140.703,437.467,109.417z"/>
<linearGradient id="SVGID_5_" gradientUnits="userSpaceOnUse" x1="234.4129" y1="33.4536" x2="-26.7071" y2="222.7436" gradientTransform="matrix(1.0039 0 0 -1.0039 0.1922 516.5603)">
	<stop  offset="0" style="stop-color:#00DBFF;stop-opacity:0"/>
	<stop  offset="1" style="stop-color:#279AFF"/>
</linearGradient>
<path style="fill:url(#SVGID_5_);" d="M248.467,411.723l-74.178,74.178l-34.603,23.782c-9.904,2.813-20.383,3.057-30.384,0.713
	l-0.01-237.848c0.566,1.328,1.396,2.588,2.481,3.672l133.023,133.023C245.879,410.326,247.139,411.156,248.467,411.723z"/>
<linearGradient id="SVGID_6_" gradientUnits="userSpaceOnUse" x1="118.0517" y1="262.6527" x2="266.8977" y2="113.8067" gradientTransform="matrix(1.0039 0 0 -1.0039 0.1922 516.5603)">
	<stop  offset="0" style="stop-color:#605654"/>
	<stop  offset="0.351" style="stop-color:#5B5351"/>
	<stop  offset="0.745" style="stop-color:#4E4948"/>
	<stop  offset="1" style="stop-color:#413F40"/>
</linearGradient>
<path style="fill:url(#SVGID_6_);" d="M244.79,409.237L111.777,276.224c-4.534-4.534-4.534-11.883,0-16.416l13.86-13.86
	c4.534-4.534,11.883-4.534,16.416,0l133.014,133.014c4.533,4.534,4.533,11.883,0,16.416l-13.86,13.86
	C256.674,413.771,249.324,413.771,244.79,409.237z"/>
<linearGradient id="SVGID_7_" gradientUnits="userSpaceOnUse" x1="216.1472" y1="164.5572" x2="252.1432" y2="128.5612" gradientTransform="matrix(1.0039 0 0 -1.0039 0.1922 516.5603)">
	<stop  offset="0" style="stop-color:#EFFBFF"/>
	<stop  offset="0.242" style="stop-color:#EAF8FE"/>
	<stop  offset="0.514" style="stop-color:#DDF0F9"/>
	<stop  offset="0.799" style="stop-color:#C6E2F2"/>
	<stop  offset="1" style="stop-color:#B2D5EC"/>
</linearGradient>
<path style="fill:url(#SVGID_7_);" d="M225.88,396.188l-17.387-17.387c-5.177-5.177-5.177-13.572,0-18.75l17.387-17.387
	c5.178-5.178,13.572-5.178,18.75,0l17.387,17.387c5.177,5.177,5.177,13.572,0,18.75l-17.387,17.387
	C239.454,401.366,231.059,401.366,225.88,396.188z"/>
<linearGradient id="SVGID_8_" gradientUnits="userSpaceOnUse" x1="277.6083" y1="218.4304" x2="16.4884" y2="407.7204" gradientTransform="matrix(1.0039 0 0 -1.0039 0.1922 516.5603)">
	<stop  offset="0" style="stop-color:#00DBFF;stop-opacity:0"/>
	<stop  offset="1" style="stop-color:#279AFF"/>
</linearGradient>
<path style="fill:url(#SVGID_8_);" d="M374.349,285.839l-74.178,74.178l-34.603,23.782c-9.904,2.813-20.383,3.057-30.384,0.713
	l-0.01-237.848c0.566,1.328,1.396,2.588,2.481,3.672l133.023,133.023C371.761,284.443,373.021,285.273,374.349,285.839z"/>
<linearGradient id="SVGID_9_" gradientUnits="userSpaceOnUse" x1="243.443" y1="388.044" x2="392.2895" y2="239.1975" gradientTransform="matrix(1.0039 0 0 -1.0039 0.1922 516.5603)">
	<stop  offset="0" style="stop-color:#605654"/>
	<stop  offset="0.351" style="stop-color:#5B5351"/>
	<stop  offset="0.745" style="stop-color:#4E4948"/>
	<stop  offset="1" style="stop-color:#413F40"/>
</linearGradient>
<path style="fill:url(#SVGID_9_);" d="M370.673,283.355L237.66,150.341c-4.534-4.534-4.534-11.883,0-16.416l13.86-13.86
	c4.534-4.534,11.883-4.534,16.416,0L400.95,253.078c4.534,4.533,4.534,11.883,0,16.416l-13.86,13.86
	C382.557,287.888,375.207,287.888,370.673,283.355z"/>
<linearGradient id="SVGID_10_" gradientUnits="userSpaceOnUse" x1="341.5395" y1="289.9529" x2="377.5329" y2="253.9495" gradientTransform="matrix(1.0039 0 0 -1.0039 0.1922 516.5603)">
	<stop  offset="0" style="stop-color:#EFFBFF"/>
	<stop  offset="0.242" style="stop-color:#EAF8FE"/>
	<stop  offset="0.514" style="stop-color:#DDF0F9"/>
	<stop  offset="0.799" style="stop-color:#C6E2F2"/>
	<stop  offset="1" style="stop-color:#B2D5EC"/>
</linearGradient>
<path style="fill:url(#SVGID_10_);" d="M351.763,270.305l-17.387-17.387c-5.177-5.177-5.177-13.572,0-18.75l17.387-17.387
	c5.178-5.178,13.572-5.178,18.75,0l17.387,17.387c5.177,5.177,5.177,13.572,0,18.75l-17.387,17.387
	C365.336,275.483,356.941,275.483,351.763,270.305z"/>
<linearGradient id="SVGID_11_" gradientUnits="userSpaceOnUse" x1="18.4804" y1="152.8607" x2="157.105" y2="14.2351" gradientTransform="matrix(1.0039 0 0 -1.0039 0.1922 516.5603)">
	<stop  offset="0" style="stop-color:#605654"/>
	<stop  offset="0.351" style="stop-color:#5B5351"/>
	<stop  offset="0.745" style="stop-color:#4E4948"/>
	<stop  offset="1" style="stop-color:#413F40"/>
</linearGradient>
<path style="fill:url(#SVGID_11_);" d="M53.551,328.294L26.746,355.1c-23.641,23.641-23.641,61.972,0,85.614L80.3,494.269
	c23.641,23.641,61.972,23.641,85.614,0l26.806-26.806L53.551,328.294z"/>
<linearGradient id="SVGID_12_" gradientUnits="userSpaceOnUse" x1="104.4887" y1="100.2437" x2="60.1487" y2="55.9037" gradientTransform="matrix(1.0039 0 0 -1.0039 0.1922 516.5603)">
	<stop  offset="0" style="stop-color:#605654;stop-opacity:0"/>
	<stop  offset="0.351" style="stop-color:#5B5351;stop-opacity:0.351"/>
	<stop  offset="0.745" style="stop-color:#4E4948;stop-opacity:0.745"/>
	<stop  offset="1" style="stop-color:#413F40"/>
</linearGradient>
<path style="fill:url(#SVGID_12_);" d="M53.551,328.294L26.746,355.1c-23.641,23.641-23.641,61.972,0,85.614L80.3,494.269
	c23.641,23.641,61.972,23.641,85.614,0l26.806-26.806L53.551,328.294z"/>
<radialGradient id="SVGID_13_" cx="350.9492" cy="645.0381" r="35.443" gradientTransform="matrix(0.7099 0.7099 0.7099 -0.7099 -233.3982 248.336)" gradientUnits="userSpaceOnUse">
	<stop  offset="0" style="stop-color:#EFFBFF"/>
	<stop  offset="0.424" style="stop-color:#EDFAFE"/>
	<stop  offset="0.623" style="stop-color:#E5F5FC"/>
	<stop  offset="0.774" style="stop-color:#D9EDF8"/>
	<stop  offset="0.901" style="stop-color:#C6E2F2"/>
	<stop  offset="1" style="stop-color:#B2D5EC"/>
</radialGradient>
<circle style="fill:url(#SVGID_13_);" cx="470.69" cy="50.326" r="22.023"/>
<radialGradient id="SVGID_14_" cx="51.7931" cy="611.2814" r="25.26" gradientTransform="matrix(-0.7099 -0.7099 -0.7099 0.7099 939.3007 -339.1754)" gradientUnits="userSpaceOnUse">
	<stop  offset="0" style="stop-color:#B0B0AE"/>
	<stop  offset="1" style="stop-color:#605654"/>
</radialGradient>
<circle style="fill:url(#SVGID_14_);" cx="470.69" cy="50.326" r="15.694"/>
<linearGradient id="SVGID_15_" gradientUnits="userSpaceOnUse" x1="430.7172" y1="502.3553" x2="448.2283" y2="484.8422" gradientTransform="matrix(1.0039 0 0 -1.0039 0.1922 516.5603)">
	<stop  offset="0" style="stop-color:#605654"/>
	<stop  offset="0.351" style="stop-color:#5B5351"/>
	<stop  offset="0.745" style="stop-color:#4E4948"/>
	<stop  offset="1" style="stop-color:#413F40"/>
</linearGradient>
<path style="fill:url(#SVGID_15_);" d="M428.91,39.693l-6.189-6.189c-3.145-3.145-3.145-8.245,0-11.392l19.755-19.753
	c3.145-3.145,8.245-3.145,11.392,0l6.189,6.189c3.145,3.145,3.145,8.245,0,11.391l-19.755,19.753
	C437.156,42.838,432.056,42.838,428.91,39.693z"/>
<linearGradient id="SVGID_16_" gradientUnits="userSpaceOnUse" x1="489.0855" y1="443.9869" x2="498.8139" y2="434.2585" gradientTransform="matrix(1.0039 0 0 -1.0039 0.1922 516.5603)">
	<stop  offset="0" style="stop-color:#605654"/>
	<stop  offset="0.351" style="stop-color:#5B5351"/>
	<stop  offset="0.745" style="stop-color:#4E4948"/>
	<stop  offset="1" style="stop-color:#413F40"/>
</linearGradient>
<circle style="fill:url(#SVGID_16_);" cx="496.079" cy="75.716" r="6.906"/>
<g>
</g>
<g>
</g>
<g>
</g>
<g>
</g>
<g>
</g>
<g>
</g>
<g>
</g>
<g>
</g>
<g>
</g>
<g>
</g>
<g>
</g>
<g>
</g>
<g>
</g>
<g>
</g>
<g>
</g>
</svg>
