<?xml version="1.0" encoding="iso-8859-1"?>
<!-- Generator: Adobe Illustrator 19.0.0, SVG Export Plug-In . SVG Version: 6.00 Build 0)  -->
<svg version="1.1" id="Capa_1" xmlns="http://www.w3.org/2000/svg" xmlns:xlink="http://www.w3.org/1999/xlink" x="0px" y="0px"
	 viewBox="0 0 511.999 511.999" style="enable-background:new 0 0 511.999 511.999;" xml:space="preserve">
<linearGradient id="SVGID_1_" gradientUnits="userSpaceOnUse" x1="504.7307" y1="509.4576" x2="24.1178" y2="28.8506" gradientTransform="matrix(1.0039 0 0 -1.0039 0.1922 516.5596)">
	<stop  offset="0.003" style="stop-color:#FFE000"/>
	<stop  offset="0.142" style="stop-color:#DCDE00"/>
	<stop  offset="0.274" style="stop-color:#C3DD00"/>
	<stop  offset="0.393" style="stop-color:#B4DC00"/>
	<stop  offset="0.491" style="stop-color:#AFDC00"/>
	<stop  offset="0.577" style="stop-color:#ABD700"/>
	<stop  offset="0.679" style="stop-color:#A0C900"/>
	<stop  offset="0.788" style="stop-color:#8DB100"/>
	<stop  offset="0.903" style="stop-color:#739000"/>
	<stop  offset="1" style="stop-color:#586E00"/>
</linearGradient>
<path style="fill:url(#SVGID_1_);" d="M357.261,488.437c-70.496,18.376-89.818-61.807-89.04-76.489
	c0.768-14.671,16.074-31.24,18.384-5.762c2.309,25.499,43.808,70.862,100.409,38.592c56.592-32.26,69.239-106.999,96.098-130.382
	c26.85-23.373,38.182-56.019-2.583-11.778c-40.755,44.231-118.53,45.809-126.452,22.448c-7.903-23.362,13.679-34.774,42.256-21.657
	c28.567,13.127,137.729-40.421,111.683-136.014C481.981,71.81,493.716,18.291,493.716,18.291S440.187,30.017,344.602,3.98
	S195.461,87.097,208.588,115.662c13.126,28.586-21.648,63.36-45.019,55.448c-23.362-7.903,1.588-98.878,45.819-139.633
	c44.242-40.765,11.586-29.442-11.787-2.592c-23.383,26.86-98.113,39.516-130.382,96.098c-32.27,56.601,13.102,98.109,38.592,100.409
	c25.489,2.319,14.669,33.994-0.012,34.772c-14.682,0.778-100.605-34.921-82.229-105.418
	C41.925,84.251-93.865,300.062,134.384,377.623C211.936,605.863,427.747,470.072,357.261,488.437z M344.443,344.234
	c4.548,1.782,6.418,7.028,4.175,11.722c-2.243,4.694-7.751,7.057-12.29,5.265c-4.548-1.782-6.418-7.028-4.175-11.722
	C334.396,344.804,339.905,342.442,344.443,344.234z M359.45,66.792c12.273-2.393,3.884,16.862-11.177,27.331
	c-15.071,10.479-26.141,52.174-42.405,54.643c-16.255,2.48,8.013-29.436,13.177-57.834C324.22,62.543,359.45,66.792,359.45,66.792z
	 M117.091,313.89c-15.729-6.169-25.399-17.629-21.587-25.594c3.812-7.965,19.656-9.412,35.375-3.233
	c15.729,6.169,25.399,17.629,21.587,25.594C148.654,318.622,132.81,320.069,117.091,313.89z M377.205,176.897
	c8.686-8.686,31.51-30.084,49.901-24.325c18.382,5.749,4.638,25.182-2.223,27.781C418.012,182.961,361.42,192.682,377.205,176.897z
	 M293.729,345.004c2.203-13.033-23.101-33.923-13.727-45.053c9.364-11.12,17.733,14.885,36.612,27.601
	c18.869,12.726-9.034,33.622-9.034,33.622C300.933,369.743,291.527,358.018,293.729,345.004z"/>
<linearGradient id="SVGID_2_" gradientUnits="userSpaceOnUse" x1="459.9886" y1="151.0521" x2="239.1287" y2="371.9121" gradientTransform="matrix(1.0039 0 0 -1.0039 0.1922 516.5596)">
	<stop  offset="0" style="stop-color:#AFDC00;stop-opacity:0"/>
	<stop  offset="0.472" style="stop-color:#84A600;stop-opacity:0.472"/>
	<stop  offset="1" style="stop-color:#586E00"/>
</linearGradient>
<path style="fill:url(#SVGID_2_);" d="M357.261,488.437c-70.496,18.376-89.818-61.807-89.04-76.489
	c0.768-14.671,16.074-31.24,18.384-5.762c2.309,25.499,43.808,70.862,100.409,38.592c56.592-32.26,69.239-106.999,96.098-130.382
	c26.85-23.373,38.182-56.019-2.583-11.778c-40.755,44.231-118.53,45.809-126.452,22.448c-7.903-23.362,13.679-34.774,42.256-21.657
	c28.567,13.127,137.729-40.421,111.683-136.014C481.981,71.81,493.716,18.291,493.716,18.291L134.384,377.623
	C211.936,605.863,427.747,470.072,357.261,488.437z M344.443,344.234c4.548,1.782,6.418,7.028,4.175,11.722
	c-2.243,4.694-7.751,7.057-12.29,5.265c-4.548-1.782-6.418-7.028-4.175-11.722C334.396,344.804,339.905,342.442,344.443,344.234z
	 M377.205,176.897c8.686-8.686,31.51-30.084,49.901-24.325c18.382,5.749,4.638,25.182-2.223,27.781
	C418.012,182.961,361.42,192.682,377.205,176.897z M293.729,345.004c2.203-13.033-23.101-33.923-13.727-45.053
	c9.364-11.12,17.733,14.885,36.612,27.601c18.869,12.726-9.034,33.622-9.034,33.622
	C300.933,369.743,291.527,358.018,293.729,345.004z"/>
<linearGradient id="SVGID_3_" gradientUnits="userSpaceOnUse" x1="50.9253" y1="257.4887" x2="151.9453" y2="156.4687" gradientTransform="matrix(1.0039 0 0 -1.0039 0.1922 516.5596)">
	<stop  offset="0" style="stop-color:#AFDC00"/>
	<stop  offset="0.193" style="stop-color:#ACD800"/>
	<stop  offset="0.384" style="stop-color:#A3CC00"/>
	<stop  offset="0.573" style="stop-color:#93B800"/>
	<stop  offset="0.761" style="stop-color:#7D9D00"/>
	<stop  offset="0.948" style="stop-color:#617900"/>
	<stop  offset="1" style="stop-color:#586E00"/>
</linearGradient>
<path style="fill:url(#SVGID_3_);" d="M150.654,356.554c1.557-3.483,2.758-7.04,3.46-10.539c0.665-3.48,0.82-6.972-0.209-9.746
	c-0.959-2.803-3.084-4.662-5.799-5.696c-1.359-0.519-2.899-0.818-4.369-1.002c-1.561-0.097-3.152-0.118-4.86,0.015
	c-6.768,0.512-14.283,1.948-21.764,1.897c-3.747,0.016-7.471-0.319-11.109-0.936c-3.65-0.603-7.124-1.699-10.492-2.941
	c-6.669-2.647-12.652-6.395-17.901-10.825c-5.251-4.439-9.825-9.506-13.892-14.912c-4.063-5.413-7.712-11.111-10.855-17.11
	c-3.185-5.97-5.981-12.16-8.369-18.554c3.993,5.372,7.693,10.887,11.781,16.075c3.962,5.277,8.144,10.332,12.54,15.118
	c8.744,9.57,18.712,18.001,30.589,22.676c5.921,2.348,12.322,3.572,19.041,3.829c3.361,0.15,6.813,0.006,10.349-0.171
	c3.537-0.193,7.179-0.479,10.956-0.423c1.878-0.011,3.815,0.209,5.723,0.531c1.939,0.438,3.744,0.996,5.434,1.911
	c1.679,0.916,3.247,2.106,4.438,3.657c1.195,1.542,2.006,3.396,2.36,5.337c0.681,3.92-0.124,7.907-1.476,11.551
	C154.843,349.95,152.966,353.406,150.654,356.554z"/>
<linearGradient id="SVGID_4_" gradientUnits="userSpaceOnUse" x1="107.2146" y1="316.038" x2="208.9446" y2="214.308" gradientTransform="matrix(1.0039 0 0 -1.0039 0.1922 516.5596)">
	<stop  offset="0" style="stop-color:#AFDC00"/>
	<stop  offset="0.193" style="stop-color:#ACD800"/>
	<stop  offset="0.384" style="stop-color:#A3CC00"/>
	<stop  offset="0.573" style="stop-color:#93B800"/>
	<stop  offset="0.761" style="stop-color:#7D9D00"/>
	<stop  offset="0.948" style="stop-color:#617900"/>
	<stop  offset="1" style="stop-color:#586E00"/>
</linearGradient>
<path style="fill:url(#SVGID_4_);" d="M186.75,319.459c2.212-3.423,4.122-6.957,5.813-10.532c1.679-3.579,3.165-7.193,4.274-10.849
	c2.299-7.279,3.412-14.648,2.847-21.558c-0.978-13.908-8.98-25.323-19.497-33.184c-5.274-3.982-11.365-7.029-17.739-9.795
	c-6.379-2.773-13.112-5.218-19.644-8.315c-6.502-3.094-12.88-6.967-17.675-12.47c-2.353-2.765-4.4-5.808-5.794-9.192
	c-1.421-3.364-2.347-6.935-2.838-10.595c1.359,3.314,2.909,6.466,4.829,9.304c1.905,2.847,4.196,5.346,6.785,7.472
	c5.142,4.305,11.353,7.193,17.897,9.613c6.564,2.409,13.438,4.476,20.227,7.073c3.392,1.302,6.738,2.771,10.011,4.419
	c3.264,1.661,6.39,3.617,9.353,5.792c2.953,2.19,5.698,4.672,8.144,7.429c2.457,2.739,4.652,5.728,6.475,9.017
	c0.95,1.613,1.709,3.357,2.484,5.084c0.679,1.786,1.329,3.584,1.791,5.47c0.986,3.74,1.476,7.677,1.468,11.671
	c-0.015,8.005-2.09,16.141-5.496,23.64c-1.727,3.751-3.715,7.383-6.021,10.819C192.147,313.204,189.63,316.507,186.75,319.459z"/>
<linearGradient id="SVGID_5_" gradientUnits="userSpaceOnUse" x1="212.1307" y1="383.4041" x2="294.4007" y2="301.1341" gradientTransform="matrix(1.0039 0 0 -1.0039 0.1922 516.5596)">
	<stop  offset="0" style="stop-color:#AFDC00"/>
	<stop  offset="0.193" style="stop-color:#ACD800"/>
	<stop  offset="0.384" style="stop-color:#A3CC00"/>
	<stop  offset="0.573" style="stop-color:#93B800"/>
	<stop  offset="0.761" style="stop-color:#7D9D00"/>
	<stop  offset="0.948" style="stop-color:#617900"/>
	<stop  offset="1" style="stop-color:#586E00"/>
</linearGradient>
<path style="fill:url(#SVGID_5_);" d="M243.945,260.856c2.452-3.347,4.607-6.824,6.52-10.378c1.896-3.556,3.661-7.143,5.012-10.821
	c2.828-7.306,4.613-14.767,5.051-22.05c0.248-1.831,0.071-3.619,0.097-5.418c0.067-1.81-0.181-3.561-0.366-5.318l-0.275-2.632
	l-0.548-2.556c-0.389-1.716-0.633-3.378-1.17-5.149c-1.885-7.002-3.888-14.018-5.714-21.161c-0.89-3.582-1.754-7.186-2.532-10.839
	c-0.74-3.667-1.432-7.365-1.965-11.126c-1.025-7.529-1.566-15.291-0.969-23.232c0.529-7.918,2.24-15.998,5.207-23.729
	c1.556-3.851,3.343-7.617,5.443-11.222c2.123-3.597,4.536-7.018,7.157-10.248c-1.903,3.64-3.698,7.269-5.193,10.962
	c-1.458,3.702-2.735,7.414-3.676,11.152c-1.869,7.474-2.732,14.948-2.639,22.29c0.1,14.719,3.402,28.808,6.957,42.9
	c1.77,7.063,3.67,14.128,5.306,21.361c0.447,1.75,0.698,3.786,1.033,5.685l0.458,2.895l0.144,2.986
	c0.086,1.99,0.25,3.96,0.044,5.995c-0.169,2.024-0.146,4.025-0.553,6.056c-1.127,8.091-3.86,16.119-7.781,23.536
	c-1.959,3.712-4.214,7.279-6.722,10.653C249.769,254.82,247.022,258.031,243.945,260.856z"/>
<linearGradient id="SVGID_6_" gradientUnits="userSpaceOnUse" x1="348.6699" y1="406.9634" x2="375.1299" y2="380.5034" gradientTransform="matrix(1.0039 0 0 -1.0039 0.1922 516.5596)">
	<stop  offset="0" style="stop-color:#AFDC00"/>
	<stop  offset="0.193" style="stop-color:#ACD800"/>
	<stop  offset="0.384" style="stop-color:#A3CC00"/>
	<stop  offset="0.573" style="stop-color:#93B800"/>
	<stop  offset="0.761" style="stop-color:#7D9D00"/>
	<stop  offset="0.948" style="stop-color:#617900"/>
	<stop  offset="1" style="stop-color:#586E00"/>
</linearGradient>
<path style="fill:url(#SVGID_6_);" d="M333.077,173.086c2.878-4.3,5.669-8.531,8.241-12.859c2.598-4.303,5.078-8.62,7.305-12.998
	c2.21-4.377,4.351-8.753,6.055-13.206c0.473-1.103,0.845-2.222,1.253-3.333c0.383-1.114,0.85-2.218,1.145-3.341l1.033-3.347
	l1.065-3.606c2.911-9.684,7.202-19.384,13.175-28.158c5.963-8.803,13.465-16.348,21.596-22.758
	c-5.917,8.516-11.826,16.717-16.344,25.356c-4.588,8.605-8.013,17.56-10.79,26.729l-1.072,3.471l-1.209,3.714
	c-0.383,1.245-0.933,2.441-1.404,3.657c-0.494,1.211-0.947,2.435-1.544,3.607l-1.694,3.547c-0.606,1.163-1.252,2.309-1.879,3.46
	c-0.613,1.158-1.306,2.275-1.99,3.395c-0.691,1.117-1.367,2.239-2.114,3.321c-2.889,4.381-6.1,8.547-9.571,12.47
	C340.835,166.098,337.176,169.857,333.077,173.086z"/>
<linearGradient id="SVGID_7_" gradientUnits="userSpaceOnUse" x1="251.607" y1="56.8005" x2="150.587" y2="157.8305" gradientTransform="matrix(1.0039 0 0 -1.0039 0.1922 516.5596)">
	<stop  offset="0" style="stop-color:#AFDC00"/>
	<stop  offset="0.193" style="stop-color:#ACD800"/>
	<stop  offset="0.384" style="stop-color:#A3CC00"/>
	<stop  offset="0.573" style="stop-color:#93B800"/>
	<stop  offset="0.761" style="stop-color:#7D9D00"/>
	<stop  offset="0.948" style="stop-color:#617900"/>
	<stop  offset="1" style="stop-color:#586E00"/>
</linearGradient>
<path style="fill:url(#SVGID_7_);" d="M154.286,360.186c3.482-1.557,7.04-2.758,10.539-3.46c3.479-0.665,6.972-0.82,9.746,0.209
	c2.803,0.959,4.662,3.084,5.696,5.799c0.519,1.359,0.818,2.899,1.002,4.369c0.097,1.562,0.118,3.152-0.015,4.86
	c-0.512,6.768-1.948,14.283-1.897,21.764c-0.016,3.747,0.319,7.471,0.936,11.109c0.603,3.65,1.699,7.124,2.941,10.492
	c2.646,6.669,6.395,12.651,10.825,17.901c4.438,5.251,9.505,9.825,14.912,13.892c5.413,4.063,11.111,7.712,17.11,10.855
	c5.97,3.185,12.159,5.981,18.554,8.369c-5.372-3.993-10.887-7.694-16.075-11.781c-5.277-3.962-10.332-8.144-15.118-12.54
	c-9.57-8.744-18.001-18.712-22.676-30.589c-2.348-5.921-3.572-12.322-3.829-19.041c-0.15-3.361-0.006-6.813,0.171-10.349
	c0.193-3.537,0.479-7.179,0.423-10.956c0.011-1.878-0.209-3.815-0.531-5.723c-0.438-1.939-0.996-3.744-1.911-5.434
	c-0.916-1.679-2.106-3.247-3.657-4.438c-1.542-1.195-3.396-2.006-5.337-2.36c-3.92-0.681-7.907,0.124-11.551,1.476
	C160.89,355.997,157.433,357.873,154.286,360.186z"/>
<linearGradient id="SVGID_8_" gradientUnits="userSpaceOnUse" x1="310.1545" y1="113.098" x2="208.4245" y2="214.828" gradientTransform="matrix(1.0039 0 0 -1.0039 0.1922 516.5596)">
	<stop  offset="0" style="stop-color:#AFDC00"/>
	<stop  offset="0.193" style="stop-color:#ACD800"/>
	<stop  offset="0.384" style="stop-color:#A3CC00"/>
	<stop  offset="0.573" style="stop-color:#93B800"/>
	<stop  offset="0.761" style="stop-color:#7D9D00"/>
	<stop  offset="0.948" style="stop-color:#617900"/>
	<stop  offset="1" style="stop-color:#586E00"/>
</linearGradient>
<path style="fill:url(#SVGID_8_);" d="M191.38,324.089c3.423-2.212,6.957-4.122,10.532-5.813c3.579-1.679,7.194-3.165,10.849-4.274
	c7.279-2.299,14.648-3.412,21.558-2.847c13.908,0.978,25.323,8.98,33.184,19.497c3.982,5.274,7.029,11.365,9.795,17.739
	c2.773,6.379,5.218,13.112,8.315,19.644c3.094,6.502,6.967,12.88,12.47,17.675c2.765,2.353,5.808,4.4,9.192,5.794
	c3.364,1.421,6.935,2.347,10.595,2.838c-3.314-1.359-6.466-2.909-9.304-4.829c-2.847-1.905-5.347-4.196-7.472-6.785
	c-4.305-5.142-7.193-11.353-9.613-17.897c-2.409-6.564-4.477-13.439-7.073-20.227c-1.302-3.392-2.771-6.738-4.419-10.011
	c-1.661-3.264-3.617-6.39-5.792-9.353c-2.19-2.953-4.672-5.698-7.429-8.144c-2.739-2.457-5.728-4.652-9.017-6.475
	c-1.613-0.95-3.357-1.709-5.084-2.484c-1.786-0.679-3.584-1.329-5.47-1.791c-3.74-0.986-7.677-1.476-11.671-1.468
	c-8.005,0.015-16.141,2.09-23.64,5.496c-3.751,1.727-7.383,3.715-10.819,6.021C197.635,318.692,194.332,321.21,191.38,324.089z"/>
<linearGradient id="SVGID_9_" gradientUnits="userSpaceOnUse" x1="377.5254" y1="218.0089" x2="295.2554" y2="300.2789" gradientTransform="matrix(1.0039 0 0 -1.0039 0.1922 516.5596)">
	<stop  offset="0" style="stop-color:#AFDC00"/>
	<stop  offset="0.193" style="stop-color:#ACD800"/>
	<stop  offset="0.384" style="stop-color:#A3CC00"/>
	<stop  offset="0.573" style="stop-color:#93B800"/>
	<stop  offset="0.761" style="stop-color:#7D9D00"/>
	<stop  offset="0.948" style="stop-color:#617900"/>
	<stop  offset="1" style="stop-color:#586E00"/>
</linearGradient>
<path style="fill:url(#SVGID_9_);" d="M249.983,266.894c3.347-2.451,6.824-4.607,10.378-6.52c3.556-1.896,7.143-3.661,10.821-5.012
	c7.306-2.828,14.767-4.613,22.05-5.051c1.831-0.248,3.619-0.071,5.418-0.097c1.81-0.067,3.561,0.182,5.318,0.366l2.632,0.275
	l2.556,0.548c1.716,0.389,3.378,0.633,5.149,1.17c7.002,1.885,14.018,3.888,21.161,5.714c3.582,0.89,7.186,1.754,10.839,2.532
	c3.666,0.74,7.365,1.432,11.125,1.965c7.529,1.025,15.291,1.566,23.232,0.969c7.918-0.529,15.999-2.24,23.729-5.207
	c3.851-1.556,7.617-3.343,11.222-5.443c3.597-2.123,7.018-4.536,10.248-7.157c-3.64,1.903-7.269,3.698-10.962,5.193
	c-3.702,1.458-7.414,2.735-11.152,3.676c-7.474,1.869-14.948,2.732-22.29,2.639c-14.719-0.1-28.808-3.402-42.9-6.957
	c-7.062-1.77-14.128-3.67-21.361-5.306c-1.75-0.447-3.786-0.698-5.685-1.033l-2.895-0.458l-2.986-0.144
	c-1.99-0.086-3.96-0.25-5.995-0.044c-2.024,0.169-4.025,0.146-6.056,0.553c-8.091,1.127-16.119,3.86-23.536,7.781
	c-3.711,1.959-7.279,4.214-10.653,6.722C256.019,261.07,252.808,263.817,249.983,266.894z"/>
<linearGradient id="SVGID_10_" gradientUnits="userSpaceOnUse" x1="401.0797" y1="354.5531" x2="374.6197" y2="381.0131" gradientTransform="matrix(1.0039 0 0 -1.0039 0.1922 516.5596)">
	<stop  offset="0" style="stop-color:#AFDC00"/>
	<stop  offset="0.193" style="stop-color:#ACD800"/>
	<stop  offset="0.384" style="stop-color:#A3CC00"/>
	<stop  offset="0.573" style="stop-color:#93B800"/>
	<stop  offset="0.761" style="stop-color:#7D9D00"/>
	<stop  offset="0.948" style="stop-color:#617900"/>
	<stop  offset="1" style="stop-color:#586E00"/>
</linearGradient>
<path style="fill:url(#SVGID_10_);" d="M337.754,177.762c4.3-2.878,8.531-5.669,12.859-8.241c4.303-2.598,8.62-5.078,12.998-7.305
	c4.377-2.21,8.753-4.351,13.206-6.055c1.103-0.473,2.222-0.845,3.333-1.253c1.114-0.383,2.218-0.85,3.341-1.145l3.347-1.032
	l3.606-1.065c9.684-2.911,19.384-7.202,28.158-13.175c8.803-5.963,16.349-13.465,22.758-21.596
	c-8.516,5.917-16.717,11.826-25.356,16.344c-8.605,4.588-17.56,8.013-26.729,10.79l-3.471,1.072l-3.714,1.209
	c-1.244,0.383-2.441,0.933-3.657,1.403c-1.211,0.494-2.435,0.947-3.607,1.544l-3.547,1.694c-1.163,0.606-2.309,1.252-3.46,1.879
	c-1.158,0.613-2.275,1.306-3.395,1.99c-1.117,0.691-2.239,1.367-3.321,2.114c-4.381,2.889-8.547,6.1-12.47,9.571
	C344.741,170.005,340.982,173.664,337.754,177.762z"/>
<linearGradient id="SVGID_11_" gradientUnits="userSpaceOnUse" x1="260.976" y1="296.3295" x2="283.286" y2="274.0295" gradientTransform="matrix(1.0039 0 0 -1.0039 0.1922 516.5596)">
	<stop  offset="0" style="stop-color:#AFDC00"/>
	<stop  offset="0.193" style="stop-color:#ACD800"/>
	<stop  offset="0.384" style="stop-color:#A3CC00"/>
	<stop  offset="0.573" style="stop-color:#93B800"/>
	<stop  offset="0.761" style="stop-color:#7D9D00"/>
	<stop  offset="0.948" style="stop-color:#617900"/>
	<stop  offset="1" style="stop-color:#586E00"/>
</linearGradient>
<path style="fill:url(#SVGID_11_);" d="M492.689,17.254c0,0-313.307,302.198-430.352,426.951c-1.977,2.107-2.081,5.225-0.244,7.063
	l0,0c1.89,1.89,5.128,1.714,7.22-0.399C109.7,410.114,459.688,56.75,492.689,17.254z"/>
<g>
</g>
<g>
</g>
<g>
</g>
<g>
</g>
<g>
</g>
<g>
</g>
<g>
</g>
<g>
</g>
<g>
</g>
<g>
</g>
<g>
</g>
<g>
</g>
<g>
</g>
<g>
</g>
<g>
</g>
</svg>
