<?xml version="1.0" encoding="iso-8859-1"?>
<!-- Generator: Adobe Illustrator 19.0.0, SVG Export Plug-In . SVG Version: 6.00 Build 0)  -->
<svg version="1.1" id="Capa_1" xmlns="http://www.w3.org/2000/svg" xmlns:xlink="http://www.w3.org/1999/xlink" x="0px" y="0px"
	 viewBox="0 0 512 512" style="enable-background:new 0 0 512 512;" xml:space="preserve">
<linearGradient id="SVGID_1_" gradientUnits="userSpaceOnUse" x1="-35.3421" y1="168.8033" x2="268.1179" y2="188.0433" gradientTransform="matrix(1.0039 0 0 -1.0039 0.1922 516.5598)">
	<stop  offset="0.003" style="stop-color:#FFE000"/>
	<stop  offset="0.018" style="stop-color:#FCE000"/>
	<stop  offset="0.319" style="stop-color:#C5DD00"/>
	<stop  offset="0.464" style="stop-color:#AFDC00"/>
	<stop  offset="0.55" style="stop-color:#A7D200"/>
	<stop  offset="0.695" style="stop-color:#93B800"/>
	<stop  offset="0.879" style="stop-color:#718E00"/>
	<stop  offset="1" style="stop-color:#586E00"/>
</linearGradient>
<path style="fill:url(#SVGID_1_);" d="M194.105,324.737c0,0-32.937,117.366-194.105,46.84C0,371.577,83.049,207.286,194.105,324.737
	z"/>
<linearGradient id="SVGID_2_" gradientUnits="userSpaceOnUse" x1="68.8943" y1="221.0906" x2="120.0044" y2="122.2606" gradientTransform="matrix(1.0039 0 0 -1.0039 0.1922 516.5598)">
	<stop  offset="0" style="stop-color:#AFDC00;stop-opacity:0"/>
	<stop  offset="0.472" style="stop-color:#84A600;stop-opacity:0.472"/>
	<stop  offset="1" style="stop-color:#586E00"/>
</linearGradient>
<path style="fill:url(#SVGID_2_);" d="M0,371.577c52.96-21.968,194.105-46.84,194.105-46.84C83.049,207.286,0,371.577,0,371.577z"/>
<linearGradient id="SVGID_3_" gradientUnits="userSpaceOnUse" x1="189.9998" y1="-11.348" x2="297.3998" y2="273.132" gradientTransform="matrix(1.0039 0 0 -1.0039 0.1922 516.5598)">
	<stop  offset="0.003" style="stop-color:#FFE000"/>
	<stop  offset="0.018" style="stop-color:#FCE000"/>
	<stop  offset="0.319" style="stop-color:#C5DD00"/>
	<stop  offset="0.464" style="stop-color:#AFDC00"/>
	<stop  offset="0.55" style="stop-color:#A7D200"/>
	<stop  offset="0.695" style="stop-color:#93B800"/>
	<stop  offset="0.879" style="stop-color:#718E00"/>
	<stop  offset="1" style="stop-color:#586E00"/>
</linearGradient>
<path style="fill:url(#SVGID_3_);" d="M264.993,309.701c0,0,93.404,78.329-37.213,196.178
	C227.781,505.881,112.239,362.566,264.993,309.701z"/>
<linearGradient id="SVGID_4_" gradientUnits="userSpaceOnUse" x1="185.2485" y1="105.1636" x2="296.3585" y2="111.0536" gradientTransform="matrix(1.0039 0 0 -1.0039 0.1922 516.5598)">
	<stop  offset="0" style="stop-color:#AFDC00;stop-opacity:0"/>
	<stop  offset="0.472" style="stop-color:#84A600;stop-opacity:0.472"/>
	<stop  offset="1" style="stop-color:#586E00"/>
</linearGradient>
<path style="fill:url(#SVGID_4_);" d="M227.781,505.881c1.78-57.308,37.213-196.178,37.213-196.178
	C112.24,362.566,227.781,505.881,227.781,505.881z"/>
<linearGradient id="SVGID_5_" gradientUnits="userSpaceOnUse" x1="546.248" y1="161.6778" x2="244.2681" y2="197.3178" gradientTransform="matrix(1.0039 0 0 -1.0039 0.1922 516.5598)">
	<stop  offset="0.003" style="stop-color:#FFE000"/>
	<stop  offset="0.018" style="stop-color:#FCE000"/>
	<stop  offset="0.319" style="stop-color:#C5DD00"/>
	<stop  offset="0.464" style="stop-color:#AFDC00"/>
	<stop  offset="0.55" style="stop-color:#A7D200"/>
	<stop  offset="0.695" style="stop-color:#93B800"/>
	<stop  offset="0.879" style="stop-color:#718E00"/>
	<stop  offset="1" style="stop-color:#586E00"/>
</linearGradient>
<path style="fill:url(#SVGID_5_);" d="M320.715,319.503c0,0,26.535,118.978,191.285,57.28
	C512,376.782,437.967,208.236,320.715,319.503z"/>
<linearGradient id="SVGID_6_" gradientUnits="userSpaceOnUse" x1="444.9893" y1="219.5538" x2="388.5992" y2="123.6338" gradientTransform="matrix(1.0039 0 0 -1.0039 0.1922 516.5598)">
	<stop  offset="0" style="stop-color:#AFDC00;stop-opacity:0"/>
	<stop  offset="0.472" style="stop-color:#84A600;stop-opacity:0.472"/>
	<stop  offset="1" style="stop-color:#586E00"/>
</linearGradient>
<path style="fill:url(#SVGID_6_);" d="M512,376.782c-51.693-24.803-191.284-57.28-191.284-57.28
	C437.967,208.236,512,376.782,512,376.782z"/>
<linearGradient id="SVGID_7_" gradientUnits="userSpaceOnUse" x1="189.8952" y1="76.451" x2="124.8652" y2="219.1509" gradientTransform="matrix(1.0039 0 0 -1.0039 0.1922 516.5598)">
	<stop  offset="0" style="stop-color:#AFDC00;stop-opacity:0"/>
	<stop  offset="0.472" style="stop-color:#84A600;stop-opacity:0.472"/>
	<stop  offset="1" style="stop-color:#586E00"/>
</linearGradient>
<path style="fill:url(#SVGID_7_);" d="M194.105,324.737c-28.485-30.126-55.127-41.711-79-42.292l-24.961,58.674l45.399,45.399
	c4.059-1.581,7.863-3.356,11.414-5.286l0,0C183.879,361.161,194.105,324.737,194.105,324.737z"/>
<linearGradient id="SVGID_8_" gradientUnits="userSpaceOnUse" x1="326.4705" y1="62.7244" x2="205.8105" y2="183.3844" gradientTransform="matrix(1.0039 0 0 -1.0039 0.1922 516.5598)">
	<stop  offset="0" style="stop-color:#AFDC00;stop-opacity:0"/>
	<stop  offset="0.472" style="stop-color:#84A600;stop-opacity:0.472"/>
	<stop  offset="1" style="stop-color:#586E00"/>
</linearGradient>
<path style="fill:url(#SVGID_8_);" d="M264.993,309.701c-56.12,19.422-76.026,51.051-78.755,83.298l76.29,76.29
	C339.387,372.095,264.993,309.701,264.993,309.701z"/>
<linearGradient id="SVGID_9_" gradientUnits="userSpaceOnUse" x1="449.3289" y1="141.4729" x2="380.189" y2="197.7929" gradientTransform="matrix(1.0039 0 0 -1.0039 0.1922 516.5598)">
	<stop  offset="0" style="stop-color:#AFDC00;stop-opacity:0"/>
	<stop  offset="0.472" style="stop-color:#84A600;stop-opacity:0.472"/>
	<stop  offset="1" style="stop-color:#586E00"/>
</linearGradient>
<path style="fill:url(#SVGID_9_);" d="M320.715,319.503c0,0,26.535,118.978,191.285,57.28
	C512,376.782,437.967,208.236,320.715,319.503z"/>
<radialGradient id="SVGID_10_" cx="137.7966" cy="201.578" r="261.32" gradientTransform="matrix(0.9816 -0.2101 -0.394 -0.9423 182.2187 541.0858)" gradientUnits="userSpaceOnUse">
	<stop  offset="0" style="stop-color:#FF5C45"/>
	<stop  offset="0.29" style="stop-color:#FF5F47"/>
	<stop  offset="0.498" style="stop-color:#FF684E"/>
	<stop  offset="0.681" style="stop-color:#FF785B"/>
	<stop  offset="0.847" style="stop-color:#FF8E6C"/>
	<stop  offset="0.998" style="stop-color:#FFA981"/>
</radialGradient>
<path style="fill:url(#SVGID_10_);" d="M228.443,191.538c0,0-57.959-108.825-21.385-114.947
	c36.574-6.122,5.508-33.621,45.692-26.856s22.846-13.428,68.584-6.144s89.601,78.146,35.435,118.769
	C319.424,190.368,261.211,269.898,228.443,191.538z"/>
<linearGradient id="SVGID_11_" gradientUnits="userSpaceOnUse" x1="348.3586" y1="358.7088" x2="185.1786" y2="358.7088" gradientTransform="matrix(1.0039 0 0 -1.0039 0.1922 516.5598)">
	<stop  offset="0" style="stop-color:#FFA981;stop-opacity:0"/>
	<stop  offset="1" style="stop-color:#B82934"/>
</linearGradient>
<path style="fill:url(#SVGID_11_);" d="M207.667,92.068c-0.698-1.022-1.581-1.906-2.603-2.603l-0.292-0.292l0.014,0.118
	c-1.528-0.97-3.335-1.539-5.28-1.539c-1.376,0-2.676,0.301-3.866,0.812c-0.013,0.064-0.027,0.129-0.04,0.193
	c-0.35,1.733-0.551,3.608-0.614,5.61c-0.002,0.077-0.007,0.153-0.009,0.23c-0.026,1.011-0.019,2.052,0.02,3.122
	c0.003,0.068,0.006,0.137,0.009,0.205c0.088,2.187,0.308,4.488,0.644,6.882c0.009,0.067,0.019,0.135,0.028,0.203
	c0.525,3.687,1.317,7.587,2.316,11.611c8.247,33.226,30.449,74.92,30.449,74.92c21.999,52.609,55.467,34.05,86.389,7.696
	L207.667,92.068z M205.822,105.216c0.26-0.216,0.506-0.448,0.743-0.689l0.263,2.254C206.494,106.264,206.155,105.73,205.822,105.216
	z"/>
<linearGradient id="SVGID_12_" gradientUnits="userSpaceOnUse" x1="283.9322" y1="422.0918" x2="257.0622" y2="270.8218" gradientTransform="matrix(1.0039 0 0 -1.0039 0.1922 516.5598)">
	<stop  offset="0" style="stop-color:#FFA981;stop-opacity:0"/>
	<stop  offset="1" style="stop-color:#B82934"/>
</linearGradient>
<path style="fill:url(#SVGID_12_);" d="M263.068,222.983c5.103-0.094,9.985-2.092,13.909-5.355
	c9.203-7.652,34.309-30.022,46.359-55.622c14.917-31.69-14.83,14.837-32.871,26.158s9.169-23.858,7.294-56.981
	s-21.733,48.237-34.27,57.11c-12.537,8.873-1.015-22.296-8.421-37.464c-7.406-15.168-12.746,28.416-11.123,37.255
	c1.622,8.839-16.583-20.977-23.25-22.626c-6.668-1.649,17.015,41.223,27.998,51.833C253.4,221.838,258.628,223.065,263.068,222.983z
	"/>
<radialGradient id="SVGID_13_" cx="331.8286" cy="230.5225" r="267.85" gradientTransform="matrix(1.0039 0 0 -1.0039 0.1922 516.5598)" gradientUnits="userSpaceOnUse">
	<stop  offset="0" style="stop-color:#FF5C45"/>
	<stop  offset="0.29" style="stop-color:#FF5F47"/>
	<stop  offset="0.498" style="stop-color:#FF684E"/>
	<stop  offset="0.681" style="stop-color:#FF785B"/>
	<stop  offset="0.847" style="stop-color:#FF8E6C"/>
	<stop  offset="0.998" style="stop-color:#FFA981"/>
</radialGradient>
<path style="fill:url(#SVGID_13_);" d="M241.334,211.874c0,0-4.547-98.522-77.302-109.132s-39.409,24.252-57.597,27.283
	c-18.189,3.032-56.082-3.032-59.113,51.534C44.29,236.126,247.396,293.723,241.334,211.874z"/>
<linearGradient id="SVGID_14_" gradientUnits="userSpaceOnUse" x1="112.5171" y1="393.611" x2="261.3271" y2="237.021" gradientTransform="matrix(1.0039 0 0 -1.0039 0.1922 516.5598)">
	<stop  offset="0" style="stop-color:#FFA981;stop-opacity:0"/>
	<stop  offset="1" style="stop-color:#B82934"/>
</linearGradient>
<path style="fill:url(#SVGID_14_);" d="M214.727,248.861c13.474-4.282,20.533-19.101,15.854-32.441
	c-6.018-17.155-15.542-42.508-23.014-54.528c-11.846-19.056-1.545,16.996-0.515,28.843s-20.601-24.723-41.204-37.084
	c-20.601-12.361-15.451,6.695,0,15.966c15.451,9.271,0,10.816-22.663,2.06c-22.663-8.756-19.056,5.665,22.663,24.723
	c41.719,19.056,44.809,39.659,31.418,31.933c-13.391-7.725-35.539-11.846-45.839-9.271c-5.713,1.429,21.842,21.072,47.083,29.68
	c5.032,1.716,10.483,1.877,15.567,0.322C214.295,248.997,214.512,248.929,214.727,248.861z"/>
<radialGradient id="SVGID_15_" cx="355.9073" cy="428.9615" r="301.49" gradientTransform="matrix(0.9144 0.1392 0.1455 -0.9553 -44.4727 484.7487)" gradientUnits="userSpaceOnUse">
	<stop  offset="0" style="stop-color:#FF5C45"/>
	<stop  offset="0.29" style="stop-color:#FF5F47"/>
	<stop  offset="0.498" style="stop-color:#FF684E"/>
	<stop  offset="0.681" style="stop-color:#FF785B"/>
	<stop  offset="0.847" style="stop-color:#FF8E6C"/>
	<stop  offset="0.998" style="stop-color:#FFA981"/>
</radialGradient>
<path style="fill:url(#SVGID_15_);" d="M227.664,254.241c-5.461-7.647-13.084-13.324-21.678-16.637
	c-18.203-7.017-60.341-19.078-104.652-2.478c-58.96,22.088-28.461,51.046-18.754,55.227s-3.619,23.763,5.801,46.809
	s39.891,18.232,51.78,33.55c11.889,15.318,9.879,28.519,36.559,23.127s35.697,20.295,55.112-30.778
	C248.012,320.499,245.205,278.799,227.664,254.241z"/>
<radialGradient id="SVGID_16_" cx="51.1872" cy="319.9221" r="287.5" gradientTransform="matrix(0.8497 -0.1833 -0.2117 -0.9813 140.4101 561.0297)" gradientUnits="userSpaceOnUse">
	<stop  offset="0" style="stop-color:#FF5C45"/>
	<stop  offset="0.29" style="stop-color:#FF5F47"/>
	<stop  offset="0.498" style="stop-color:#FF684E"/>
	<stop  offset="0.681" style="stop-color:#FF785B"/>
	<stop  offset="0.847" style="stop-color:#FF8E6C"/>
	<stop  offset="0.998" style="stop-color:#FFA981"/>
</radialGradient>
<path style="fill:url(#SVGID_16_);" d="M277.536,210.89c0,0,63.744-65.589,119.861-50.252c20.176,7.845,17.321,31.33,32.769,35.621
	c15.448,4.291,25.828,40.168,7.849,48.621c-17.979,8.453,3.121,45.066-18.962,58.978
	C396.969,317.771,210.645,268.011,277.536,210.89z"/>
<linearGradient id="SVGID_17_" gradientUnits="userSpaceOnUse" x1="371.4086" y1="236.7625" x2="247.0486" y2="317.1525" gradientTransform="matrix(1.0039 0 0 -1.0039 0.1922 516.5598)">
	<stop  offset="0" style="stop-color:#FFA981;stop-opacity:0"/>
	<stop  offset="1" style="stop-color:#B82934"/>
</linearGradient>
<path style="fill:url(#SVGID_17_);" d="M419.29,303.691L304.039,188.44c-16.099,11.748-26.504,22.451-26.504,22.451
	c-54.018,46.127,57.091,87.453,113.489,94.324c1.668,0.203,3.287,0.376,4.853,0.518c0.022,0.002,0.044,0.004,0.066,0.006
	c1.544,0.14,3.036,0.249,4.47,0.327c0.037,0.002,0.075,0.004,0.112,0.006c1.411,0.076,2.765,0.121,4.058,0.137
	c0.053,0.001,0.106,0.001,0.159,0.002c1.27,0.012,2.479-0.005,3.624-0.053c0.061-0.003,0.123-0.005,0.184-0.008
	c0.558-0.025,1.1-0.057,1.626-0.096c0.051-0.004,0.099-0.008,0.15-0.012c0.484-0.038,0.954-0.082,1.409-0.134
	c0.059-0.007,0.12-0.013,0.179-0.019c0.475-0.055,0.933-0.117,1.374-0.187c0.073-0.012,0.145-0.024,0.218-0.036
	c0.399-0.065,0.783-0.137,1.153-0.214c0.048-0.01,0.098-0.019,0.146-0.029c0.395-0.085,0.769-0.179,1.13-0.278
	c0.076-0.021,0.151-0.043,0.226-0.065c0.329-0.095,0.646-0.196,0.944-0.302c0.029-0.01,0.061-0.02,0.09-0.031
	c0.314-0.115,0.607-0.24,0.886-0.369c0.066-0.031,0.132-0.062,0.197-0.094c0.273-0.134,0.534-0.272,0.769-0.421
	c0,0,0.002-0.001,0.003-0.001C419.136,303.805,419.208,303.745,419.29,303.691z"/>
<linearGradient id="SVGID_18_" gradientUnits="userSpaceOnUse" x1="396.2787" y1="274.6145" x2="242.7187" y2="279.9745" gradientTransform="matrix(1.0039 0 0 -1.0039 0.1922 516.5598)">
	<stop  offset="0" style="stop-color:#FFA981;stop-opacity:0"/>
	<stop  offset="1" style="stop-color:#B82934"/>
</linearGradient>
<path style="fill:url(#SVGID_18_);" d="M266.098,235.326c1.16-4.97,4.134-9.326,8.146-12.482
	c9.407-7.399,36.533-27.272,64.087-33.702c34.108-7.96-17.611,11.399-32.455,26.674s25.249-3.977,57.247,4.783
	c31.998,8.76-51.716,11.165-63.014,21.569c-11.298,10.405,21.59,5.655,34.874,16.069c13.284,10.414-30.454,6.521-38.757,3.086
	c-8.303-3.435,17.045,20.602,17.263,27.468c0.219,6.866-36.754-25.261-44.832-38.219
	C265.196,245.019,265.09,239.649,266.098,235.326z"/>
<radialGradient id="SVGID_19_" cx="260.669" cy="419.0754" r="251.53" gradientTransform="matrix(0.9764 -0.2332 -0.2332 -0.9764 83.6875 564.9238)" gradientUnits="userSpaceOnUse">
	<stop  offset="0" style="stop-color:#FF5C45"/>
	<stop  offset="0.29" style="stop-color:#FF5F47"/>
	<stop  offset="0.498" style="stop-color:#FF684E"/>
	<stop  offset="0.681" style="stop-color:#FF785B"/>
	<stop  offset="0.847" style="stop-color:#FF8E6C"/>
	<stop  offset="0.998" style="stop-color:#FFA981"/>
</radialGradient>
<path style="fill:url(#SVGID_19_);" d="M263.629,243.689c0,0,73.822-23.844,117.245,27.908c15.018,21.262,1.808,23.176,15.37,43.543
	s1.65,38.122-16.928,48.772s-22.524,51.351-55.278,44.265c-32.754-7.087-33.772-21.753-48.491-15.753
	c-14.719,6-35.824,6.072-43.299-35.629S235.7,251.602,263.629,243.689z"/>
<linearGradient id="SVGID_20_" gradientUnits="userSpaceOnUse" x1="115.2907" y1="191.2793" x2="244.0307" y2="275.1393" gradientTransform="matrix(1.0039 0 0 -1.0039 0.1922 516.5598)">
	<stop  offset="0" style="stop-color:#FFA981;stop-opacity:0"/>
	<stop  offset="1" style="stop-color:#B82934"/>
</linearGradient>
<path style="fill:url(#SVGID_20_);" d="M226.083,251.66c-3.559-3.657-8.356-5.853-13.42-6.484
	c-11.876-1.48-45.367-4.494-72.285,4.226c-33.32,10.793,20.967,0.67,41.566,6.088c20.599,5.418-23.676,9.63-46.557,33.652
	s50.055-17.14,65.102-14.063c15.048,3.077-15.571,15.99-21.57,31.767c-5.999,15.777,29.448-10.138,34.785-17.368
	c5.338-7.229-3.96,26.444-0.603,32.437c3.357,5.992,18.434-40.61,18.662-55.878C231.86,259.495,229.179,254.841,226.083,251.66z"/>
<linearGradient id="SVGID_21_" gradientUnits="userSpaceOnUse" x1="380.4884" y1="163.4444" x2="213.4484" y2="300.7644" gradientTransform="matrix(1.0039 0 0 -1.0039 0.1922 516.5598)">
	<stop  offset="0" style="stop-color:#FFA981;stop-opacity:0"/>
	<stop  offset="1" style="stop-color:#B82934"/>
</linearGradient>
<path style="fill:url(#SVGID_21_);" d="M246.25,261.861c3.304-13.746,17.578-21.851,31.22-18.141
	c17.543,4.771,43.514,12.452,56.039,19.041c19.858,10.448-16.842,2.761-28.731,2.583c-11.889-0.178,19.15,18.972,32.958,38.634
	c13.808,19.662-2.583,13.268-12.939-1.479c-10.355-14.747-16.636-2.588,3.572,25.178c14.296,19.644-5.42,16.965-29.449-20.373
	c-24.821-38.569-42.684-42.318-35.12-28.836c8.502,15.157,18.096,26.509,16.266,36.968c-1.015,5.801-22.136-12.853-32.532-37.411
	c-2.072-4.896-2.625-10.321-1.438-15.504C246.146,262.301,246.198,262.081,246.25,261.861z"/>
<linearGradient id="SVGID_22_" gradientUnits="userSpaceOnUse" x1="418.7181" y1="129.362" x2="186.1981" y2="361.872" gradientTransform="matrix(1.0039 0 0 -1.0039 0.1922 516.5598)">
	<stop  offset="0" style="stop-color:#FFA981;stop-opacity:0"/>
	<stop  offset="1" style="stop-color:#B82934"/>
</linearGradient>
<path style="fill:url(#SVGID_22_);" d="M395.164,313.462c-0.108-0.173-0.21-0.341-0.313-0.511c-0.228-0.373-0.448-0.741-0.658-1.101
	c-0.108-0.186-0.217-0.371-0.32-0.554c-0.208-0.366-0.403-0.725-0.591-1.078c-0.076-0.143-0.159-0.29-0.232-0.431
	c-0.234-0.449-0.451-0.886-0.657-1.316c-0.102-0.213-0.195-0.42-0.29-0.628c-0.106-0.233-0.212-0.466-0.31-0.693
	c-0.098-0.227-0.194-0.452-0.284-0.673c-0.081-0.198-0.157-0.393-0.232-0.586c-0.087-0.226-0.179-0.454-0.258-0.675v-0.001l0,0
	c-4.311-11.878,2-16.423-10.146-33.617c-43.423-51.752-117.245-27.908-117.245-27.908c-12.062,3.417-28.33,9.827-33.937,27.745
	l124.594,124.911c0.548-0.692,1.085-1.4,1.612-2.121c0.007-0.01,0.015-0.02,0.022-0.03c2.786-3.816,5.299-7.99,7.805-12.046
	c0.239-0.387,0.479-0.773,0.719-1.159c0.151-0.242,0.301-0.484,0.452-0.724c0.412-0.658,0.825-1.309,1.24-1.954
	c0.066-0.102,0.133-0.203,0.198-0.304c0.412-0.635,0.825-1.263,1.242-1.88c0.068-0.1,0.137-0.201,0.205-0.301
	c0.42-0.617,0.843-1.223,1.271-1.817c0.063-0.087,0.126-0.176,0.19-0.263c0.446-0.613,0.898-1.214,1.356-1.799
	c0.044-0.056,0.088-0.114,0.133-0.171c0.497-0.628,1.001-1.239,1.515-1.827c0.02-0.023,0.04-0.044,0.06-0.067
	c0.502-0.572,1.014-1.122,1.536-1.651c0.05-0.051,0.101-0.1,0.152-0.151c0.501-0.501,1.012-0.98,1.534-1.435
	c0.059-0.051,0.118-0.103,0.178-0.154c0.529-0.454,1.071-0.882,1.625-1.285c0.048-0.035,0.095-0.071,0.144-0.105
	c0.598-0.428,1.211-0.826,1.841-1.188c9.289-5.325,16.911-12.426,20.516-20.742c0.676-1.559,1.211-3.161,1.588-4.802
	c0.125-0.547,0.235-1.098,0.325-1.654c0.181-1.11,0.29-2.239,0.323-3.382c0.164-5.717-1.587-11.827-5.826-18.192
	C395.86,314.565,395.505,314.009,395.164,313.462z"/>
<linearGradient id="SVGID_23_" gradientUnits="userSpaceOnUse" x1="175.2487" y1="356.7323" x2="229.1387" y2="384.2723" gradientTransform="matrix(1.0039 0 0 -1.0039 0.1922 516.5598)">
	<stop  offset="0" style="stop-color:#FEFFB3"/>
	<stop  offset="1" style="stop-color:#FFCD77"/>
</linearGradient>
<path style="fill:url(#SVGID_23_);" d="M146.675,37.082c0,0,58.315,97.604,60.082,148.852c1.767,51.248,11.388,87.023,33.545,89.836
	c22.156,2.814,43.321-31.193,9.296-96.366S167.869,49.39,153.885,31.039C139.901,12.688,136.101,25.076,146.675,37.082z"/>
<radialGradient id="SVGID_24_" cx="139.2286" cy="497.0955" r="43.45" gradientTransform="matrix(1.0039 0 0 -1.0039 0.1922 516.5598)" gradientUnits="userSpaceOnUse">
	<stop  offset="0" style="stop-color:#FEFFB3"/>
	<stop  offset="0.193" style="stop-color:#FEF296"/>
	<stop  offset="0.609" style="stop-color:#FFD14B"/>
	<stop  offset="1" style="stop-color:#FFAF00"/>
</radialGradient>
<circle style="fill:url(#SVGID_24_);" cx="144.966" cy="26.007" r="19.888"/>
<radialGradient id="SVGID_25_" cx="151.6786" cy="453.8565" r="21.575" gradientTransform="matrix(1.0039 0 0 -1.0039 0.1922 516.5598)" gradientUnits="userSpaceOnUse">
	<stop  offset="0" style="stop-color:#FEFFB3"/>
	<stop  offset="0.193" style="stop-color:#FEF296"/>
	<stop  offset="0.609" style="stop-color:#FFD14B"/>
	<stop  offset="1" style="stop-color:#FFAF00"/>
</radialGradient>
<circle style="fill:url(#SVGID_25_);" cx="154.945" cy="65.14" r="9.876"/>
<radialGradient id="SVGID_26_" cx="180.2986" cy="458.0025" r="21.575" gradientTransform="matrix(1.0039 0 0 -1.0039 0.1922 516.5598)" gradientUnits="userSpaceOnUse">
	<stop  offset="0" style="stop-color:#FEFFB3"/>
	<stop  offset="0.193" style="stop-color:#FEF296"/>
	<stop  offset="0.609" style="stop-color:#FFD14B"/>
	<stop  offset="1" style="stop-color:#FFAF00"/>
</radialGradient>
<circle style="fill:url(#SVGID_26_);" cx="183.678" cy="60.975" r="9.876"/>
<radialGradient id="SVGID_27_" cx="168.2686" cy="426.4725" r="21.575" gradientTransform="matrix(1.0039 0 0 -1.0039 0.1922 516.5598)" gradientUnits="userSpaceOnUse">
	<stop  offset="0" style="stop-color:#FEFFB3"/>
	<stop  offset="0.193" style="stop-color:#FEF296"/>
	<stop  offset="0.609" style="stop-color:#FFD14B"/>
	<stop  offset="1" style="stop-color:#FFAF00"/>
</radialGradient>
<circle style="fill:url(#SVGID_27_);" cx="171.6" cy="92.631" r="9.876"/>
<radialGradient id="SVGID_28_" cx="196.0686" cy="421.4925" r="21.575" gradientTransform="matrix(1.0039 0 0 -1.0039 0.1922 516.5598)" gradientUnits="userSpaceOnUse">
	<stop  offset="0" style="stop-color:#FEFFB3"/>
	<stop  offset="0.193" style="stop-color:#FEF296"/>
	<stop  offset="0.609" style="stop-color:#FFD14B"/>
	<stop  offset="1" style="stop-color:#FFAF00"/>
</radialGradient>
<circle style="fill:url(#SVGID_28_);" cx="199.509" cy="97.631" r="9.876"/>
<g>
</g>
<g>
</g>
<g>
</g>
<g>
</g>
<g>
</g>
<g>
</g>
<g>
</g>
<g>
</g>
<g>
</g>
<g>
</g>
<g>
</g>
<g>
</g>
<g>
</g>
<g>
</g>
<g>
</g>
</svg>
