<?xml version="1.0" encoding="iso-8859-1"?>
<!-- Generator: Adobe Illustrator 19.0.0, SVG Export Plug-In . SVG Version: 6.00 Build 0)  -->
<svg version="1.1" id="Capa_1" xmlns="http://www.w3.org/2000/svg" xmlns:xlink="http://www.w3.org/1999/xlink" x="0px" y="0px"
	 viewBox="0 0 512.001 512.001" style="enable-background:new 0 0 512.001 512.001;" xml:space="preserve">
<linearGradient id="SVGID_1_" gradientUnits="userSpaceOnUse" x1="130.9535" y1="523.05" x2="130.9535" y2="476.96" gradientTransform="matrix(1 0 0 -1 0 514)">
	<stop  offset="0" style="stop-color:#605654"/>
	<stop  offset="0.351" style="stop-color:#5B5351"/>
	<stop  offset="0.745" style="stop-color:#4E4948"/>
	<stop  offset="1" style="stop-color:#413F40"/>
</linearGradient>
<path style="fill:url(#SVGID_1_);" d="M186.807,108.741H75.1V26.848C75.1,12.02,87.12,0,101.948,0h58.01
	c14.828,0,26.848,12.02,26.848,26.848L186.807,108.741L186.807,108.741z"/>
<linearGradient id="SVGID_2_" gradientUnits="userSpaceOnUse" x1="65.937" y1="250.2645" x2="212.388" y2="250.2645" gradientTransform="matrix(1 0 0 -1 0 514)">
	<stop  offset="0" style="stop-color:#00FFF4"/>
	<stop  offset="1" style="stop-color:#00DBFF"/>
</linearGradient>
<path style="fill:url(#SVGID_2_);" d="M199.649,124.898l-52.59-98.82c-7.52-14.132-24.687-14.132-32.209,0l-52.591,98.82
	C35.832,174.554,21.788,232.275,21.788,291.23v207.148h0.074c0.388,7.588,5.577,13.614,11.984,13.614
	c3.204,0,6.103-1.507,8.249-3.961c5.112-5.847,11.593-9.652,18.649-9.652h6.092c7.055,0,13.536,3.805,18.649,9.652
	c2.146,2.455,5.046,3.961,8.249,3.961c3.204,0,6.103-1.507,8.249-3.962c5.112-5.847,11.593-9.652,18.648-9.652h10.324h10.324
	c7.055,0,13.536,3.805,18.648,9.652c2.146,2.456,5.046,3.962,8.249,3.962c3.204,0,6.103-1.507,8.249-3.961
	c5.112-5.847,11.593-9.652,18.649-9.652h6.092c7.055,0,13.537,3.805,18.649,9.652c2.146,2.455,5.046,3.961,8.249,3.961
	c6.407,0,11.595-6.027,11.984-13.614h0.074V291.231C240.119,232.275,226.075,174.555,199.649,124.898z"/>
<linearGradient id="SVGID_3_" gradientUnits="userSpaceOnUse" x1="129.988" y1="243.729" x2="-16.182" y2="243.729" gradientTransform="matrix(1 0 0 -1 0 514)">
	<stop  offset="0" style="stop-color:#00FFF4"/>
	<stop  offset="1" style="stop-color:#00DBFF"/>
</linearGradient>
<path style="fill:url(#SVGID_3_);" d="M145.186,39.15c-6.647-14.132-21.819-14.132-28.466,0l-46.481,98.82
	C46.883,187.626,34.47,245.347,34.47,304.302V511.45h0.066c0.007,0.156,0.042,0.3,0.053,0.455c2.901-0.218,5.529-1.615,7.504-3.875
	c5.112-5.847,11.594-9.652,18.649-9.652h6.092c7.055,0,13.537,3.805,18.649,9.652c2.146,2.455,5.046,3.961,8.249,3.961
	s6.102-1.507,8.249-3.961c5.112-5.847,11.594-9.652,18.648-9.652h10.324h10.324c7.055,0,13.537,3.805,18.648,9.652
	c2.146,2.455,5.047,3.961,8.249,3.961c3.204,0,6.102-1.507,8.249-3.961c5.111-5.847,11.593-9.652,18.648-9.652h6.093
	c7.054,0,13.536,3.805,18.648,9.652c1.976,2.26,4.603,3.657,7.505,3.875c0.01-0.156,0.045-0.299,0.053-0.455h0.066V304.302
	c0-58.954-12.412-116.676-35.77-166.332L145.186,39.15z"/>
<linearGradient id="SVGID_4_" gradientUnits="userSpaceOnUse" x1="274.1014" y1="200.9734" x2="74.5914" y2="400.4934" gradientTransform="matrix(1 0 0 -1 0 514)">
	<stop  offset="0" style="stop-color:#00DBFF;stop-opacity:0"/>
	<stop  offset="1" style="stop-color:#279AFF"/>
</linearGradient>
<path style="fill:url(#SVGID_4_);" d="M240.119,291.231c0-58.955-14.044-116.676-40.471-166.332l-24.667-46.352
	c-3.491,2.69-7.345,4.572-11.352,4.572h-65.35c-4.008,0-7.859-1.888-11.349-4.578l-15.651,29.41V234.37
	c0,8.418,3.855,15.934,9.894,20.886l158.948,158.949L240.119,291.231L240.119,291.231z"/>
<linearGradient id="SVGID_5_" gradientUnits="userSpaceOnUse" x1="-12.5009" y1="360.6181" x2="205.8281" y2="314.5281" gradientTransform="matrix(1 0 0 -1 0 514)">
	<stop  offset="0" style="stop-color:#605654"/>
	<stop  offset="0.351" style="stop-color:#5B5351"/>
	<stop  offset="0.745" style="stop-color:#4E4948"/>
	<stop  offset="1" style="stop-color:#413F40"/>
</linearGradient>
<path style="fill:url(#SVGID_5_);" d="M199.649,124.899l-52.59-98.82c-7.52-14.132-24.688-14.132-32.209,0l-52.59,98.82
	c-26.426,49.656-40.47,107.377-40.47,166.332v37.933c0-58.954,14.045-116.676,40.47-166.332l52.59-98.82
	c7.52-14.131,24.687-14.131,32.209,0l52.59,98.82c26.426,49.656,40.47,107.377,40.47,166.332v-37.933
	C240.119,232.275,226.075,174.555,199.649,124.899z"/>
<linearGradient id="SVGID_6_" gradientUnits="userSpaceOnUse" x1="130.9535" y1="493.594" x2="130.9535" y2="434.13" gradientTransform="matrix(1 0 0 -1 0 514)">
	<stop  offset="0" style="stop-color:#605654"/>
	<stop  offset="0.351" style="stop-color:#5B5351"/>
	<stop  offset="0.745" style="stop-color:#4E4948"/>
	<stop  offset="1" style="stop-color:#413F40"/>
</linearGradient>
<path style="fill:url(#SVGID_6_);" d="M178.943,101.086H82.964V30.723c0-12.741,10.328-23.068,23.068-23.068h49.843
	c12.741,0,23.068,10.328,23.068,23.068V101.086L178.943,101.086z"/>
<linearGradient id="SVGID_7_" gradientUnits="userSpaceOnUse" x1="125.7545" y1="200.5668" x2="77.9645" y2="400.0868" gradientTransform="matrix(1 0 0 -1 0 514)">
	<stop  offset="0" style="stop-color:#00DBFF;stop-opacity:0"/>
	<stop  offset="1" style="stop-color:#279AFF"/>
</linearGradient>
<path style="fill:url(#SVGID_7_);" d="M227.439,378.654v132.813h-0.066c0,0.134-0.033,0.3-0.066,0.434
	c-2.897-0.2-5.528-1.598-7.491-3.863c-5.127-5.859-11.586-9.655-18.646-9.655h-6.093c-7.059,0-13.551,3.796-18.646,9.655
	c-2.163,2.465-5.061,3.962-8.257,3.962c-3.197,0-6.093-1.498-8.257-3.962c-5.094-5.859-11.586-9.655-18.646-9.655h-20.642
	c-6.926,0-13.318,3.662-18.379,9.356c-0.1,0.1-0.167,0.2-0.267,0.299C99.82,510.503,96.922,512,93.726,512
	c-0.399,0-0.799-0.033-1.198-0.066c-0.267-0.033-0.533-0.066-0.799-0.134c-0.267-0.066-0.5-0.1-0.733-0.2
	c-0.1,0-0.233-0.033-0.333-0.066c-0.267-0.1-0.532-0.199-0.766-0.3c-1.199-0.499-2.33-1.199-3.329-2.097V394.069
	c0-40.786,5.693-80.706,16.447-115.068l5.693-18.145l0.9-0.034l0.066,0.066L227.439,378.654z"/>
<linearGradient id="SVGID_8_" gradientUnits="userSpaceOnUse" x1="202.078" y1="127.6321" x2="143.448" y2="126.3421" gradientTransform="matrix(1 0 0 -1 0 514)">
	<stop  offset="0" style="stop-color:#00DBFF;stop-opacity:0"/>
	<stop  offset="1" style="stop-color:#279AFF"/>
</linearGradient>
<path style="fill:url(#SVGID_8_);" d="M227.439,335.637v175.83h-0.066c0,0.134-0.033,0.3-0.066,0.434
	c-2.897-0.2-5.528-1.598-7.491-3.863c-5.127-5.859-11.586-9.655-18.646-9.655h-6.093c-7.059,0-13.551,3.796-18.646,9.655
	c-0.332,0.4-0.699,0.766-1.099,1.099c-0.999,0.9-2.13,1.598-3.329,2.097c-0.233,0.1-0.499,0.2-0.766,0.3
	c-0.1,0.033-0.233,0.066-0.332,0.066c-0.233,0.1-0.467,0.134-0.733,0.2s-0.532,0.1-0.798,0.134c-0.4,0.033-0.8,0.066-1.199,0.066
	c-3.196,0-6.093-1.498-8.257-3.962c-0.1-0.099-0.167-0.199-0.267-0.299V372.694c0-38.123-2.464-75.579-7.125-109.441l0.632-1.897
	L227.439,335.637z"/>
<linearGradient id="SVGID_9_" gradientUnits="userSpaceOnUse" x1="271.425" y1="52.4306" x2="-2.675" y2="10.4206" gradientTransform="matrix(1 0 0 -1 0 514)">
	<stop  offset="0" style="stop-color:#00DBFF;stop-opacity:0"/>
	<stop  offset="1" style="stop-color:#279AFF"/>
</linearGradient>
<path style="fill:url(#SVGID_9_);" d="M21.788,455.934v42.445h0.074c0.388,7.588,5.577,13.614,11.984,13.614
	c3.204,0,6.103-1.507,8.249-3.961c5.112-5.847,11.594-9.652,18.649-9.652h6.092c7.055,0,13.537,3.805,18.649,9.652
	c2.146,2.455,5.046,3.961,8.249,3.961c3.204,0,6.102-1.507,8.249-3.961c5.112-5.847,11.594-9.652,18.648-9.652h10.324h10.324
	c7.055,0,13.537,3.805,18.648,9.652c2.146,2.455,5.047,3.961,8.249,3.961c3.204,0,6.102-1.507,8.249-3.961
	c5.111-5.847,11.593-9.652,18.648-9.652h6.093c7.054,0,13.536,3.805,18.648,9.652c2.146,2.455,5.046,3.961,8.249,3.961
	c6.407,0,11.595-6.027,11.984-13.614h0.074v-42.445H21.788z"/>
<linearGradient id="SVGID_10_" gradientUnits="userSpaceOnUse" x1="238.5869" y1="467.7728" x2="220.4069" y2="421.6828" gradientTransform="matrix(1 0 0 -1 0 514)">
	<stop  offset="0" style="stop-color:#605654"/>
	<stop  offset="0.351" style="stop-color:#5B5351"/>
	<stop  offset="0.745" style="stop-color:#4E4948"/>
	<stop  offset="1" style="stop-color:#413F40"/>
</linearGradient>
<path style="fill:url(#SVGID_10_);" d="M110.574,254.897c-5.427,36.025-8.324,76.512-8.324,117.797v135.044
	c-0.1,0.1-0.167,0.2-0.267,0.299c-2.163,2.465-5.061,3.962-8.257,3.962c-2.697,0-5.16-1.065-7.158-2.864V394.069
	c0-40.786,5.693-80.706,16.447-115.068L110.574,254.897z"/>
<linearGradient id="SVGID_11_" gradientUnits="userSpaceOnUse" x1="296.8523" y1="470.3056" x2="278.6623" y2="424.2156" gradientTransform="matrix(1 0 0 -1 0 514)">
	<stop  offset="0" style="stop-color:#605654"/>
	<stop  offset="0.351" style="stop-color:#5B5351"/>
	<stop  offset="0.745" style="stop-color:#4E4948"/>
	<stop  offset="1" style="stop-color:#413F40"/>
</linearGradient>
<path style="fill:url(#SVGID_11_);" d="M175.332,394.069v115.068c-1.997,1.798-4.461,2.864-7.158,2.864
	c-3.197,0-6.093-1.498-8.257-3.962c-0.1-0.099-0.167-0.199-0.267-0.299V372.694c0-41.285-2.896-81.772-8.324-117.797l7.559,24.104
	C169.639,313.362,175.332,353.283,175.332,394.069z"/>
<linearGradient id="SVGID_12_" gradientUnits="userSpaceOnUse" x1="31.1534" y1="411.4375" x2="111.2134" y2="365.3475" gradientTransform="matrix(1 0 0 -1 0 514)">
	<stop  offset="0" style="stop-color:#605654"/>
	<stop  offset="0.351" style="stop-color:#5B5351"/>
	<stop  offset="0.745" style="stop-color:#4E4948"/>
	<stop  offset="1" style="stop-color:#413F40"/>
</linearGradient>
<path style="fill:url(#SVGID_12_);" d="M163.628,83.118H98.279c-7.678,0-14.829-6.837-19.841-13.235
	c-2.35-3.001-7.16-1.314-7.16,2.497v161.988c0,14.912,12.088,27,27,27h65.349c14.912,0,27.001-12.089,27.001-27.001V72.381
	c0-3.811-4.81-5.497-7.16-2.497C178.457,76.281,171.306,83.118,163.628,83.118z"/>
<linearGradient id="SVGID_13_" gradientUnits="userSpaceOnUse" x1="94.038" y1="468.827" x2="106.768" y2="468.827" gradientTransform="matrix(1 0 0 -1 0 514)">
	<stop  offset="0" style="stop-color:#00FFF4"/>
	<stop  offset="1" style="stop-color:#00DBFF"/>
</linearGradient>
<path style="fill:url(#SVGID_13_);" d="M101.313,72.581L101.313,72.581c-5.525,0-10.003-4.478-10.003-10.003v-34.81
	c0-5.525,4.478-10.003,10.003-10.003l0,0c5.525,0,10.003,4.478,10.003,10.003v34.808C111.316,68.102,106.837,72.581,101.313,72.581z
	"/>
<linearGradient id="SVGID_14_" gradientUnits="userSpaceOnUse" x1="123.678" y1="468.827" x2="136.408" y2="468.827" gradientTransform="matrix(1 0 0 -1 0 514)">
	<stop  offset="0" style="stop-color:#00FFF4"/>
	<stop  offset="1" style="stop-color:#00DBFF"/>
</linearGradient>
<path style="fill:url(#SVGID_14_);" d="M130.954,72.581L130.954,72.581c-5.525,0-10.003-4.478-10.003-10.003v-34.81
	c0-5.525,4.478-10.003,10.003-10.003l0,0c5.525,0,10.003,4.478,10.003,10.003v34.808C140.957,68.102,136.478,72.581,130.954,72.581z
	"/>
<linearGradient id="SVGID_15_" gradientUnits="userSpaceOnUse" x1="153.318" y1="468.827" x2="166.048" y2="468.827" gradientTransform="matrix(1 0 0 -1 0 514)">
	<stop  offset="0" style="stop-color:#00FFF4"/>
	<stop  offset="1" style="stop-color:#00DBFF"/>
</linearGradient>
<path style="fill:url(#SVGID_15_);" d="M160.594,72.581L160.594,72.581c-5.525,0-10.003-4.478-10.003-10.003v-34.81
	c0-5.525,4.479-10.003,10.003-10.003l0,0c5.525,0,10.003,4.478,10.003,10.003v34.808C170.598,68.102,166.119,72.581,160.594,72.581z
	"/>
<linearGradient id="SVGID_16_" gradientUnits="userSpaceOnUse" x1="381.0425" y1="523.05" x2="381.0425" y2="476.96" gradientTransform="matrix(1 0 0 -1 0 514)">
	<stop  offset="0" style="stop-color:#605654"/>
	<stop  offset="0.351" style="stop-color:#5B5351"/>
	<stop  offset="0.745" style="stop-color:#4E4948"/>
	<stop  offset="1" style="stop-color:#413F40"/>
</linearGradient>
<path style="fill:url(#SVGID_16_);" d="M436.896,108.741H325.189V26.848C325.189,12.02,337.21,0,352.038,0h58.01
	c14.828,0,26.848,12.02,26.848,26.848V108.741z"/>
<linearGradient id="SVGID_17_" gradientUnits="userSpaceOnUse" x1="316.018" y1="250.2645" x2="462.478" y2="250.2645" gradientTransform="matrix(1 0 0 -1 0 514)">
	<stop  offset="0" style="stop-color:#00FFF4"/>
	<stop  offset="1" style="stop-color:#00DBFF"/>
</linearGradient>
<path style="fill:url(#SVGID_17_);" d="M449.738,124.898l-52.59-98.82c-7.52-14.132-24.688-14.132-32.209,0l-52.59,98.82
	c-26.426,49.656-40.47,107.377-40.47,166.332v207.148h0.074c0.387,7.588,5.577,13.614,11.984,13.614
	c3.204,0,6.103-1.507,8.249-3.961c5.112-5.847,11.593-9.652,18.649-9.652h6.092c7.055,0,13.536,3.805,18.649,9.652
	c2.146,2.455,5.046,3.961,8.249,3.961s6.103-1.507,8.249-3.962c5.112-5.847,11.593-9.652,18.648-9.652h10.324h10.324
	c7.055,0,13.536,3.805,18.648,9.652c2.146,2.456,5.046,3.962,8.249,3.962s6.103-1.507,8.249-3.961
	c5.112-5.847,11.593-9.652,18.649-9.652h6.092c7.055,0,13.537,3.805,18.649,9.652c2.146,2.455,5.046,3.961,8.249,3.961
	c6.407,0,11.595-6.027,11.984-13.614h0.074V291.231C490.208,232.275,476.164,174.555,449.738,124.898z"/>
<linearGradient id="SVGID_18_" gradientUnits="userSpaceOnUse" x1="380.068" y1="243.729" x2="233.908" y2="243.729" gradientTransform="matrix(1 0 0 -1 0 514)">
	<stop  offset="0" style="stop-color:#00FFF4"/>
	<stop  offset="1" style="stop-color:#00DBFF"/>
</linearGradient>
<path style="fill:url(#SVGID_18_);" d="M395.276,39.15c-6.647-14.132-21.819-14.132-28.466,0l-46.481,98.82
	c-23.356,49.656-35.769,107.377-35.769,166.332V511.45h0.065c0.007,0.156,0.042,0.3,0.053,0.455
	c2.901-0.218,5.529-1.615,7.504-3.875c5.112-5.847,11.594-9.652,18.649-9.652h6.092c7.055,0,13.537,3.805,18.649,9.652
	c2.146,2.455,5.046,3.961,8.249,3.961s6.102-1.507,8.249-3.961c5.112-5.847,11.594-9.652,18.648-9.652h10.324h10.324
	c7.055,0,13.537,3.805,18.648,9.652c2.146,2.455,5.047,3.961,8.25,3.961c3.204,0,6.102-1.507,8.249-3.961
	c5.111-5.847,11.593-9.652,18.648-9.652h6.093c7.054,0,13.536,3.805,18.648,9.652c1.976,2.26,4.603,3.657,7.505,3.875
	c0.01-0.156,0.045-0.299,0.053-0.455h0.066V304.302c0-58.954-12.413-116.676-35.769-166.332L395.276,39.15z"/>
<linearGradient id="SVGID_19_" gradientUnits="userSpaceOnUse" x1="524.1943" y1="200.9763" x2="324.6743" y2="400.4963" gradientTransform="matrix(1 0 0 -1 0 514)">
	<stop  offset="0" style="stop-color:#00DBFF;stop-opacity:0"/>
	<stop  offset="1" style="stop-color:#279AFF"/>
</linearGradient>
<path style="fill:url(#SVGID_19_);" d="M490.209,291.231c0-58.955-14.044-116.676-40.471-166.332L425.07,78.547
	c-3.491,2.69-7.345,4.572-11.352,4.572h-65.35c-4.008,0-7.859-1.888-11.349-4.578l-15.652,29.41V234.37
	c0,8.418,3.855,15.934,9.894,20.886l158.947,158.948L490.209,291.231L490.209,291.231z"/>
<linearGradient id="SVGID_20_" gradientUnits="userSpaceOnUse" x1="237.5786" y1="360.62" x2="455.9087" y2="314.53" gradientTransform="matrix(1 0 0 -1 0 514)">
	<stop  offset="0" style="stop-color:#605654"/>
	<stop  offset="0.351" style="stop-color:#5B5351"/>
	<stop  offset="0.745" style="stop-color:#4E4948"/>
	<stop  offset="1" style="stop-color:#413F40"/>
</linearGradient>
<path style="fill:url(#SVGID_20_);" d="M449.738,124.899l-52.59-98.82c-7.52-14.132-24.687-14.132-32.209,0l-52.59,98.82
	c-26.426,49.656-40.47,107.377-40.47,166.332v37.933c0-58.954,14.045-116.676,40.47-166.332l52.59-98.82
	c7.52-14.131,24.688-14.131,32.209,0l52.59,98.82c26.426,49.656,40.47,107.377,40.47,166.332v-37.933
	C490.208,232.275,476.164,174.555,449.738,124.899z"/>
<linearGradient id="SVGID_21_" gradientUnits="userSpaceOnUse" x1="381.0425" y1="493.594" x2="381.0425" y2="434.13" gradientTransform="matrix(1 0 0 -1 0 514)">
	<stop  offset="0" style="stop-color:#605654"/>
	<stop  offset="0.351" style="stop-color:#5B5351"/>
	<stop  offset="0.745" style="stop-color:#4E4948"/>
	<stop  offset="1" style="stop-color:#413F40"/>
</linearGradient>
<path style="fill:url(#SVGID_21_);" d="M429.032,101.086h-95.979V30.723c0-12.741,10.328-23.068,23.068-23.068h49.843
	c12.74,0,23.068,10.328,23.068,23.068L429.032,101.086L429.032,101.086z"/>
<linearGradient id="SVGID_22_" gradientUnits="userSpaceOnUse" x1="375.8488" y1="200.5703" x2="328.0688" y2="400.0903" gradientTransform="matrix(1 0 0 -1 0 514)">
	<stop  offset="0" style="stop-color:#00DBFF;stop-opacity:0"/>
	<stop  offset="1" style="stop-color:#279AFF"/>
</linearGradient>
<path style="fill:url(#SVGID_22_);" d="M477.528,378.654v132.813h-0.066c0,0.134-0.033,0.3-0.066,0.434
	c-2.897-0.2-5.528-1.598-7.491-3.863c-5.127-5.859-11.586-9.655-18.646-9.655h-6.093c-7.059,0-13.551,3.796-18.646,9.655
	c-2.163,2.465-5.061,3.962-8.257,3.962c-3.196,0-6.093-1.498-8.257-3.962c-5.094-5.859-11.586-9.655-18.646-9.655h-20.643
	c-6.925,0-13.318,3.662-18.379,9.356c-0.1,0.1-0.167,0.2-0.267,0.299c-2.163,2.465-5.061,3.962-8.257,3.962
	c-0.4,0-0.799-0.033-1.198-0.066c-0.267-0.033-0.533-0.066-0.799-0.134c-0.267-0.066-0.5-0.1-0.733-0.2
	c-0.1,0-0.233-0.033-0.333-0.066c-0.267-0.1-0.532-0.199-0.766-0.3c-1.198-0.499-2.33-1.199-3.329-2.097V394.069
	c0-40.786,5.693-80.706,16.447-115.068l5.693-18.145l0.9-0.034l0.066,0.066L477.528,378.654z"/>
<linearGradient id="SVGID_23_" gradientUnits="userSpaceOnUse" x1="452.168" y1="127.6322" x2="393.538" y2="126.3422" gradientTransform="matrix(1 0 0 -1 0 514)">
	<stop  offset="0" style="stop-color:#00DBFF;stop-opacity:0"/>
	<stop  offset="1" style="stop-color:#279AFF"/>
</linearGradient>
<path style="fill:url(#SVGID_23_);" d="M477.528,335.637v175.83h-0.066c0,0.134-0.033,0.3-0.066,0.434
	c-2.897-0.2-5.528-1.598-7.491-3.863c-5.127-5.859-11.586-9.655-18.646-9.655h-6.093c-7.059,0-13.551,3.796-18.646,9.655
	c-0.332,0.4-0.699,0.766-1.099,1.099c-0.999,0.9-2.13,1.598-3.33,2.097c-0.233,0.1-0.499,0.2-0.766,0.3
	c-0.099,0.033-0.233,0.066-0.332,0.066c-0.233,0.1-0.467,0.134-0.733,0.2s-0.532,0.1-0.798,0.134c-0.4,0.033-0.8,0.066-1.199,0.066
	c-3.196,0-6.093-1.498-8.257-3.962c-0.1-0.099-0.167-0.199-0.267-0.299V372.694c0-38.123-2.464-75.579-7.125-109.441l0.632-1.897
	L477.528,335.637z"/>
<linearGradient id="SVGID_24_" gradientUnits="userSpaceOnUse" x1="277.1648" y1="14.9803" x2="3.0648" y2="-27.0297" gradientTransform="matrix(1 0 0 -1 0 514)">
	<stop  offset="0" style="stop-color:#00DBFF;stop-opacity:0"/>
	<stop  offset="1" style="stop-color:#279AFF"/>
</linearGradient>
<path style="fill:url(#SVGID_24_);" d="M271.877,455.934v42.445h0.074c0.387,7.588,5.576,13.614,11.983,13.614
	c3.204,0,6.103-1.507,8.249-3.961c5.112-5.847,11.594-9.652,18.649-9.652h6.092c7.055,0,13.537,3.805,18.649,9.652
	c2.146,2.455,5.046,3.961,8.249,3.961s6.102-1.507,8.249-3.961c5.112-5.847,11.594-9.652,18.648-9.652h10.324h10.324
	c7.055,0,13.537,3.805,18.648,9.652c2.146,2.455,5.047,3.961,8.25,3.961c3.204,0,6.102-1.507,8.249-3.961
	c5.111-5.847,11.593-9.652,18.648-9.652h6.093c7.054,0,13.536,3.805,18.648,9.652c2.146,2.455,5.046,3.961,8.249,3.961
	c6.407,0,11.595-6.027,11.984-13.614h0.074v-42.445H271.877z"/>
<linearGradient id="SVGID_25_" gradientUnits="userSpaceOnUse" x1="488.7286" y1="467.722" x2="470.5386" y2="421.632" gradientTransform="matrix(1 0 0 -1 0 514)">
	<stop  offset="0" style="stop-color:#605654"/>
	<stop  offset="0.351" style="stop-color:#5B5351"/>
	<stop  offset="0.745" style="stop-color:#4E4948"/>
	<stop  offset="1" style="stop-color:#413F40"/>
</linearGradient>
<path style="fill:url(#SVGID_25_);" d="M360.663,254.897c-5.427,36.025-8.324,76.512-8.324,117.797v135.044
	c-0.1,0.1-0.167,0.2-0.267,0.299c-2.163,2.465-5.061,3.962-8.257,3.962c-2.697,0-5.16-1.065-7.158-2.864V394.069
	c0-40.786,5.693-80.706,16.447-115.068L360.663,254.897z"/>
<linearGradient id="SVGID_26_" gradientUnits="userSpaceOnUse" x1="546.8875" y1="470.3522" x2="528.7075" y2="424.2622" gradientTransform="matrix(1 0 0 -1 0 514)">
	<stop  offset="0" style="stop-color:#605654"/>
	<stop  offset="0.351" style="stop-color:#5B5351"/>
	<stop  offset="0.745" style="stop-color:#4E4948"/>
	<stop  offset="1" style="stop-color:#413F40"/>
</linearGradient>
<path style="fill:url(#SVGID_26_);" d="M425.422,394.069v115.068c-1.998,1.798-4.461,2.864-7.158,2.864
	c-3.196,0-6.093-1.498-8.257-3.962c-0.1-0.099-0.167-0.199-0.267-0.299V372.694c0-41.285-2.896-81.772-8.324-117.797l7.558,24.104
	C419.729,313.362,425.422,353.283,425.422,394.069z"/>
<linearGradient id="SVGID_27_" gradientUnits="userSpaceOnUse" x1="281.2432" y1="411.4371" x2="361.3032" y2="365.3471" gradientTransform="matrix(1 0 0 -1 0 514)">
	<stop  offset="0" style="stop-color:#605654"/>
	<stop  offset="0.351" style="stop-color:#5B5351"/>
	<stop  offset="0.745" style="stop-color:#4E4948"/>
	<stop  offset="1" style="stop-color:#413F40"/>
</linearGradient>
<path style="fill:url(#SVGID_27_);" d="M413.717,83.118h-65.349c-7.678,0-14.829-6.837-19.841-13.235
	c-2.35-3.001-7.16-1.314-7.16,2.497v161.988c0,14.912,12.089,27,27,27h65.349c14.912,0,27.001-12.089,27.001-27.001V72.381
	c0-3.811-4.81-5.497-7.16-2.497C428.547,76.281,421.395,83.118,413.717,83.118z"/>
<linearGradient id="SVGID_28_" gradientUnits="userSpaceOnUse" x1="344.118" y1="468.827" x2="356.848" y2="468.827" gradientTransform="matrix(1 0 0 -1 0 514)">
	<stop  offset="0" style="stop-color:#00FFF4"/>
	<stop  offset="1" style="stop-color:#00DBFF"/>
</linearGradient>
<path style="fill:url(#SVGID_28_);" d="M351.402,72.581L351.402,72.581c-5.525,0-10.003-4.478-10.003-10.003v-34.81
	c0-5.525,4.478-10.003,10.003-10.003l0,0c5.525,0,10.003,4.478,10.003,10.003v34.808C361.405,68.102,356.926,72.581,351.402,72.581z
	"/>
<linearGradient id="SVGID_29_" gradientUnits="userSpaceOnUse" x1="373.758" y1="468.827" x2="386.488" y2="468.827" gradientTransform="matrix(1 0 0 -1 0 514)">
	<stop  offset="0" style="stop-color:#00FFF4"/>
	<stop  offset="1" style="stop-color:#00DBFF"/>
</linearGradient>
<path style="fill:url(#SVGID_29_);" d="M381.042,72.581L381.042,72.581c-5.525,0-10.003-4.478-10.003-10.003v-34.81
	c0-5.525,4.478-10.003,10.003-10.003l0,0c5.525,0,10.003,4.478,10.003,10.003v34.808C391.047,68.102,386.567,72.581,381.042,72.581z
	"/>
<linearGradient id="SVGID_30_" gradientUnits="userSpaceOnUse" x1="403.398" y1="468.827" x2="416.128" y2="468.827" gradientTransform="matrix(1 0 0 -1 0 514)">
	<stop  offset="0" style="stop-color:#00FFF4"/>
	<stop  offset="1" style="stop-color:#00DBFF"/>
</linearGradient>
<path style="fill:url(#SVGID_30_);" d="M410.684,72.581L410.684,72.581c-5.525,0-10.003-4.478-10.003-10.003v-34.81
	c0-5.525,4.478-10.003,10.003-10.003l0,0c5.525,0,10.003,4.478,10.003,10.003v34.808C420.687,68.102,416.209,72.581,410.684,72.581z
	"/>
<g>
</g>
<g>
</g>
<g>
</g>
<g>
</g>
<g>
</g>
<g>
</g>
<g>
</g>
<g>
</g>
<g>
</g>
<g>
</g>
<g>
</g>
<g>
</g>
<g>
</g>
<g>
</g>
<g>
</g>
</svg>
