<?xml version="1.0" encoding="iso-8859-1"?>
<!-- Generator: Adobe Illustrator 19.0.0, SVG Export Plug-In . SVG Version: 6.00 Build 0)  -->
<svg version="1.1" id="Capa_1" xmlns="http://www.w3.org/2000/svg" xmlns:xlink="http://www.w3.org/1999/xlink" x="0px" y="0px"
	 viewBox="0 0 512 512" style="enable-background:new 0 0 512 512;" xml:space="preserve">
<linearGradient id="SVGID_1_" gradientUnits="userSpaceOnUse" x1="65.7936" y1="416.0635" x2="139.6216" y2="416.0635" gradientTransform="matrix(1.0039 0 0 -1.0039 0.1922 516.5598)">
	<stop  offset="0" style="stop-color:#FFA981"/>
	<stop  offset="0.428" style="stop-color:#FF8666"/>
	<stop  offset="1" style="stop-color:#FF5C45"/>
</linearGradient>
<path style="fill:url(#SVGID_1_);" d="M140.361,112.239H66.244V99.41c0-7.688,6.232-13.919,13.919-13.919h46.278
	c7.688,0,13.919,6.232,13.919,13.919v12.829H140.361z"/>
<linearGradient id="SVGID_2_" gradientUnits="userSpaceOnUse" x1="58.6983" y1="445.0222" x2="566.0483" y2="-62.3278" gradientTransform="matrix(1.0039 0 0 -1.0039 0.1922 516.5598)">
	<stop  offset="0" style="stop-color:#EFFBFF"/>
	<stop  offset="0.181" style="stop-color:#DDF0F9"/>
	<stop  offset="0.483" style="stop-color:#C5E1F2"/>
	<stop  offset="0.763" style="stop-color:#B7D8EE"/>
	<stop  offset="1" style="stop-color:#B2D5EC"/>
</linearGradient>
<path style="fill:url(#SVGID_2_);" d="M477.696,426.51H34.304C15.359,426.51,0,411.152,0,392.206V141.138
	c0-18.945,15.358-34.304,34.304-34.304h443.392c18.945,0,34.304,15.358,34.304,34.304v251.068
	C512,411.152,496.642,426.51,477.696,426.51z"/>
<linearGradient id="SVGID_3_" gradientUnits="userSpaceOnUse" x1="254.8086" y1="138.0825" x2="254.8086" y2="78.4925" gradientTransform="matrix(1.0039 0 0 -1.0039 0.1922 516.5598)">
	<stop  offset="0" style="stop-color:#B2D5EC;stop-opacity:0"/>
	<stop  offset="1" style="stop-color:#7797B0"/>
</linearGradient>
<path style="fill:url(#SVGID_3_);" d="M0,335.126v57.08c0,18.945,15.358,34.304,34.304,34.304h443.392
	c18.945,0,34.304-15.358,34.304-34.304v-57.08L0,335.126L0,335.126z"/>
<linearGradient id="SVGID_4_" gradientUnits="userSpaceOnUse" x1="512.5102" y1="-10.8459" x2="176.5202" y2="325.1341" gradientTransform="matrix(1.0039 0 0 -1.0039 0.1922 516.5598)">
	<stop  offset="0" style="stop-color:#B2D5EC;stop-opacity:0"/>
	<stop  offset="1" style="stop-color:#7797B0"/>
</linearGradient>
<path style="fill:url(#SVGID_4_);" d="M512,392.206v-77.886L362.224,164.543c-27.143-28.771-65.619-46.735-108.296-46.735
	c-82.215,0-148.864,66.648-148.864,148.863c0,42.677,17.963,81.153,46.736,108.296l51.541,51.541h274.355
	C496.642,426.51,512,411.152,512,392.206z"/>
<linearGradient id="SVGID_5_" gradientUnits="userSpaceOnUse" x1="254.8086" y1="321.8325" x2="254.8086" y2="244.3425" gradientTransform="matrix(1.0039 0 0 -1.0039 0.1922 516.5598)">
	<stop  offset="0" style="stop-color:#FEFFB3"/>
	<stop  offset="1" style="stop-color:#FFCD77"/>
</linearGradient>
<rect y="185.966" style="fill:url(#SVGID_5_);" width="512" height="50.718"/>
<linearGradient id="SVGID_6_" gradientUnits="userSpaceOnUse" x1="254.8086" y1="272.4425" x2="254.8086" y2="194.9525" gradientTransform="matrix(1.0039 0 0 -1.0039 0.1922 516.5598)">
	<stop  offset="0" style="stop-color:#FEFFB3"/>
	<stop  offset="1" style="stop-color:#FFCD77"/>
</linearGradient>
<rect y="235.55" style="fill:url(#SVGID_6_);" width="512" height="50.718"/>
<linearGradient id="SVGID_7_" gradientUnits="userSpaceOnUse" x1="254.8086" y1="223.0525" x2="254.8086" y2="145.5625" gradientTransform="matrix(1.0039 0 0 -1.0039 0.1922 516.5598)">
	<stop  offset="0" style="stop-color:#FEFFB3"/>
	<stop  offset="1" style="stop-color:#FFCD77"/>
</linearGradient>
<rect y="285.133" style="fill:url(#SVGID_7_);" width="512" height="50.718"/>
<linearGradient id="SVGID_8_" gradientUnits="userSpaceOnUse" x1="254.8086" y1="173.6625" x2="254.8086" y2="96.1725" gradientTransform="matrix(1.0039 0 0 -1.0039 0.1922 516.5598)">
	<stop  offset="0" style="stop-color:#FEFFB3"/>
	<stop  offset="1" style="stop-color:#FFCD77"/>
</linearGradient>
<rect y="334.717" style="fill:url(#SVGID_8_);" width="512" height="50.718"/>
<linearGradient id="SVGID_9_" gradientUnits="userSpaceOnUse" x1="454.7367" y1="454.0331" x2="336.7067" y2="-53.3169" gradientTransform="matrix(1.0039 0 0 -1.0039 0.1922 516.5598)">
	<stop  offset="0" style="stop-color:#EFFBFF"/>
	<stop  offset="0.181" style="stop-color:#DDF0F9"/>
	<stop  offset="0.483" style="stop-color:#C5E1F2"/>
	<stop  offset="0.763" style="stop-color:#B7D8EE"/>
	<stop  offset="1" style="stop-color:#B2D5EC"/>
</linearGradient>
<path style="fill:url(#SVGID_9_);" d="M384.965,120.74h102.773c4.341,0,7.86,3.519,7.86,7.86v39.333c0,4.341-3.519,7.86-7.86,7.86
	H384.965c-4.341,0-7.86-3.519-7.86-7.86V128.6C377.105,124.259,380.624,120.74,384.965,120.74z"/>
<path style="fill:#FFFFFF;" d="M481.844,171.552h-90.983c-3.751,0-6.792-3.041-6.792-6.792v-32.989c0-3.751,3.041-6.792,6.792-6.792
	h90.983c3.751,0,6.792,3.041,6.792,6.792v32.989C488.635,168.512,485.595,171.552,481.844,171.552z"/>
<linearGradient id="SVGID_10_" gradientUnits="userSpaceOnUse" x1="427.269" y1="74.3428" x2="166.299" y2="335.3128" gradientTransform="matrix(1.0039 0 0 -1.0039 0.1922 516.5598)">
	<stop  offset="0" style="stop-color:#FFE000;stop-opacity:0"/>
	<stop  offset="1" style="stop-color:#FF9111"/>
</linearGradient>
<path style="fill:url(#SVGID_10_);" d="M128.827,185.965c-15.032,23.252-23.762,50.959-23.762,80.707
	c0,42.677,17.963,81.153,46.736,108.296l10.461,10.461H512v-49.583v-1.133V314.32L383.645,185.965H128.827z"/>
<linearGradient id="SVGID_11_" gradientUnits="userSpaceOnUse" x1="265.1337" y1="166.2852" x2="206.2437" y2="559.1712" gradientTransform="matrix(1.0039 0 0 -1.0039 0.1922 516.5598)">
	<stop  offset="0" style="stop-color:#EFFBFF"/>
	<stop  offset="0.181" style="stop-color:#DDF0F9"/>
	<stop  offset="0.483" style="stop-color:#C5E1F2"/>
	<stop  offset="0.763" style="stop-color:#B7D8EE"/>
	<stop  offset="1" style="stop-color:#B2D5EC"/>
</linearGradient>
<circle style="fill:url(#SVGID_11_);" cx="253.932" cy="266.671" r="148.861"/>
<linearGradient id="SVGID_12_" gradientUnits="userSpaceOnUse" x1="252.7486" y1="149.1225" x2="252.7486" y2="494.3425" gradientTransform="matrix(1.0039 0 0 -1.0039 0.1922 516.5598)">
	<stop  offset="0" style="stop-color:#B2D5EC"/>
	<stop  offset="0.235" style="stop-color:#ADD0E7"/>
	<stop  offset="0.513" style="stop-color:#A0C2D9"/>
	<stop  offset="0.811" style="stop-color:#89AAC2"/>
	<stop  offset="1" style="stop-color:#7797B0"/>
</linearGradient>
<circle style="fill:url(#SVGID_12_);" cx="253.932" cy="266.671" r="130.801"/>
<linearGradient id="SVGID_13_" gradientUnits="userSpaceOnUse" x1="376.4326" y1="125.2365" x2="282.5027" y2="219.1565" gradientTransform="matrix(1.0039 0 0 -1.0039 0.1922 516.5598)">
	<stop  offset="0" style="stop-color:#B2D5EC;stop-opacity:0"/>
	<stop  offset="1" style="stop-color:#7797B0"/>
</linearGradient>
<path style="fill:url(#SVGID_13_);" d="M384.731,266.672c0-5.049-0.296-10.028-0.853-14.928l-55.803-55.803
	c-18.662-19.557-44.982-31.743-74.148-31.743c-56.595,0-102.473,45.879-102.473,102.473c0,29.166,12.186,55.487,31.743,74.148
	L239,396.622c4.9,0.557,9.88,0.853,14.928,0.853C326.168,397.475,384.731,338.912,384.731,266.672z"/>
<linearGradient id="SVGID_14_" gradientUnits="userSpaceOnUse" x1="158.6636" y1="342.9975" x2="352.9736" y2="148.6875" gradientTransform="matrix(1.0039 0 0 -1.0039 0.1922 516.5598)">
	<stop  offset="0" style="stop-color:#B2D5EC"/>
	<stop  offset="0.235" style="stop-color:#ADD0E7"/>
	<stop  offset="0.513" style="stop-color:#A0C2D9"/>
	<stop  offset="0.811" style="stop-color:#89AAC2"/>
	<stop  offset="1" style="stop-color:#7797B0"/>
</linearGradient>
<circle style="fill:url(#SVGID_14_);" cx="253.932" cy="266.671" r="102.47"/>
<linearGradient id="SVGID_15_" gradientUnits="userSpaceOnUse" x1="252.7486" y1="289.1925" x2="252.7486" y2="159.9825" gradientTransform="matrix(1.0039 0 0 -1.0039 0.1922 516.5598)">
	<stop  offset="0" style="stop-color:#B2D5EC"/>
	<stop  offset="0.235" style="stop-color:#ADD0E7"/>
	<stop  offset="0.513" style="stop-color:#A0C2D9"/>
	<stop  offset="0.811" style="stop-color:#89AAC2"/>
	<stop  offset="1" style="stop-color:#7797B0"/>
</linearGradient>
<circle style="fill:url(#SVGID_15_);" cx="253.932" cy="266.671" r="67.257"/>
<linearGradient id="SVGID_16_" gradientUnits="userSpaceOnUse" x1="252.7486" y1="210.1225" x2="252.7486" y2="292.0425" gradientTransform="matrix(1.0039 0 0 -1.0039 0.1922 516.5598)">
	<stop  offset="0" style="stop-color:#B2D5EC"/>
	<stop  offset="0.235" style="stop-color:#ADD0E7"/>
	<stop  offset="0.513" style="stop-color:#A0C2D9"/>
	<stop  offset="0.811" style="stop-color:#89AAC2"/>
	<stop  offset="1" style="stop-color:#7797B0"/>
</linearGradient>
<circle style="fill:url(#SVGID_16_);" cx="253.932" cy="266.671" r="56.772"/>
<linearGradient id="SVGID_17_" gradientUnits="userSpaceOnUse" x1="312.1527" y1="189.5166" x2="267.6928" y2="233.9667" gradientTransform="matrix(1.0039 0 0 -1.0039 0.1922 516.5598)">
	<stop  offset="0" style="stop-color:#B2D5EC;stop-opacity:0"/>
	<stop  offset="1" style="stop-color:#7797B0"/>
</linearGradient>
<path style="fill:url(#SVGID_17_);" d="M345.786,292.669l-57.66-57.659c-8.514-9.192-20.681-14.951-34.199-14.951
	c-25.744,0-46.613,20.87-46.613,46.613c0,13.517,5.76,25.684,14.951,34.199l57.659,57.659
	C311.737,349.544,336.801,324.48,345.786,292.669z"/>
<linearGradient id="SVGID_18_" gradientUnits="userSpaceOnUse" x1="252.7486" y1="178.6025" x2="252.7486" y2="326.3525" gradientTransform="matrix(1.0039 0 0 -1.0039 0.1922 516.5598)">
	<stop  offset="0" style="stop-color:#605654"/>
	<stop  offset="0.351" style="stop-color:#5B5351"/>
	<stop  offset="0.745" style="stop-color:#4E4948"/>
	<stop  offset="1" style="stop-color:#413F40"/>
</linearGradient>
<circle style="fill:url(#SVGID_18_);" cx="253.932" cy="266.671" r="46.612"/>
<linearGradient id="SVGID_19_" gradientUnits="userSpaceOnUse" x1="252.7486" y1="310.8625" x2="252.7486" y2="234.9925" gradientTransform="matrix(1.0039 0 0 -1.0039 0.1922 516.5598)">
	<stop  offset="0" style="stop-color:#605654"/>
	<stop  offset="0.351" style="stop-color:#5B5351"/>
	<stop  offset="0.745" style="stop-color:#4E4948"/>
	<stop  offset="1" style="stop-color:#413F40"/>
</linearGradient>
<circle style="fill:url(#SVGID_19_);" cx="253.932" cy="266.671" r="36.575"/>
<linearGradient id="SVGID_20_" gradientUnits="userSpaceOnUse" x1="238.9334" y1="262.7173" x2="150.0634" y2="351.5973" gradientTransform="matrix(1.0039 0 0 -1.0039 0.1922 516.5598)">
	<stop  offset="1.000000e-004" style="stop-color:#E7EEED;stop-opacity:0"/>
	<stop  offset="1" style="stop-color:#E7EEED"/>
</linearGradient>
<circle style="fill:url(#SVGID_20_);" cx="237.227" cy="249.976" r="22.33"/>
<linearGradient id="SVGID_21_" gradientUnits="userSpaceOnUse" x1="307.7737" y1="193.8876" x2="189.2138" y2="312.4377" gradientTransform="matrix(1.0039 0 0 -1.0039 0.1922 516.5598)">
	<stop  offset="1.000000e-004" style="stop-color:#E7EEED;stop-opacity:0"/>
	<stop  offset="1" style="stop-color:#E7EEED"/>
</linearGradient>
<circle style="fill:url(#SVGID_21_);" cx="305.393" cy="318.132" r="29.788"/>
<linearGradient id="SVGID_22_" gradientUnits="userSpaceOnUse" x1="250.3339" y1="301.9834" x2="11.2139" y2="477.3584" gradientTransform="matrix(1.0039 0 0 -1.0039 0.1922 516.5598)">
	<stop  offset="1.000000e-004" style="stop-color:#E7EEED;stop-opacity:0"/>
	<stop  offset="1" style="stop-color:#E7EEED"/>
</linearGradient>
<circle style="fill:url(#SVGID_22_);" cx="253.932" cy="215.17" r="75.987"/>
<g>
</g>
<g>
</g>
<g>
</g>
<g>
</g>
<g>
</g>
<g>
</g>
<g>
</g>
<g>
</g>
<g>
</g>
<g>
</g>
<g>
</g>
<g>
</g>
<g>
</g>
<g>
</g>
<g>
</g>
</svg>
