<?xml version="1.0" encoding="iso-8859-1"?>
<!-- Generator: Adobe Illustrator 19.0.0, SVG Export Plug-In . SVG Version: 6.00 Build 0)  -->
<svg version="1.1" id="Capa_1" xmlns="http://www.w3.org/2000/svg" xmlns:xlink="http://www.w3.org/1999/xlink" x="0px" y="0px"
	 viewBox="0 0 512 512" style="enable-background:new 0 0 512 512;" xml:space="preserve">
<linearGradient id="SVGID_1_" gradientUnits="userSpaceOnUse" x1="39.8486" y1="276.654" x2="73.9586" y2="242.544" gradientTransform="matrix(1.0039 0 0 -1.0039 0.1922 516.5609)">
	<stop  offset="0" style="stop-color:#EFFBFF"/>
	<stop  offset="0.181" style="stop-color:#DDF0F9"/>
	<stop  offset="0.483" style="stop-color:#C5E1F2"/>
	<stop  offset="0.763" style="stop-color:#B7D8EE"/>
	<stop  offset="1" style="stop-color:#B2D5EC"/>
</linearGradient>
<circle style="fill:url(#SVGID_1_);" cx="55.207" cy="253.832" r="25.329"/>
<linearGradient id="SVGID_2_" gradientUnits="userSpaceOnUse" x1="51.7381" y1="264.7595" x2="92.8831" y2="223.6135" gradientTransform="matrix(1.0039 0 0 -1.0039 0.1922 516.5609)">
	<stop  offset="0" style="stop-color:#EFFBFF"/>
	<stop  offset="0.181" style="stop-color:#DDF0F9"/>
	<stop  offset="0.483" style="stop-color:#C5E1F2"/>
	<stop  offset="0.763" style="stop-color:#B7D8EE"/>
	<stop  offset="1" style="stop-color:#B2D5EC"/>
</linearGradient>
<path style="fill:url(#SVGID_2_);" d="M90.367,293.343c-1.112,0-2.225-0.425-3.074-1.273l-35.16-35.16
	c-1.698-1.697-1.698-4.449,0-6.146c1.699-1.698,4.45-1.697,6.147,0l35.16,35.16c1.698,1.697,1.698,4.449,0,6.146
	C92.592,292.918,91.479,293.343,90.367,293.343z"/>
<linearGradient id="SVGID_3_" gradientUnits="userSpaceOnUse" x1="469.7676" y1="276.653" x2="435.6576" y2="242.543" gradientTransform="matrix(1.0039 0 0 -1.0039 0.1922 516.5609)">
	<stop  offset="0" style="stop-color:#EFFBFF"/>
	<stop  offset="0.181" style="stop-color:#DDF0F9"/>
	<stop  offset="0.483" style="stop-color:#C5E1F2"/>
	<stop  offset="0.763" style="stop-color:#B7D8EE"/>
	<stop  offset="1" style="stop-color:#B2D5EC"/>
</linearGradient>
<circle style="fill:url(#SVGID_3_);" cx="456.793" cy="253.832" r="25.329"/>
<linearGradient id="SVGID_4_" gradientUnits="userSpaceOnUse" x1="457.8773" y1="264.7592" x2="416.7318" y2="223.6137" gradientTransform="matrix(1.0039 0 0 -1.0039 0.1922 516.5609)">
	<stop  offset="0" style="stop-color:#EFFBFF"/>
	<stop  offset="0.181" style="stop-color:#DDF0F9"/>
	<stop  offset="0.483" style="stop-color:#C5E1F2"/>
	<stop  offset="0.763" style="stop-color:#B7D8EE"/>
	<stop  offset="1" style="stop-color:#B2D5EC"/>
</linearGradient>
<path style="fill:url(#SVGID_4_);" d="M421.631,293.343c1.112,0,2.225-0.425,3.074-1.273l35.16-35.16
	c1.698-1.697,1.698-4.449,0-6.146c-1.699-1.698-4.45-1.697-6.147,0l-35.16,35.16c-1.698,1.697-1.698,4.449,0,6.146
	C419.406,292.918,420.519,293.343,421.631,293.343z"/>
<linearGradient id="SVGID_5_" gradientUnits="userSpaceOnUse" x1="254.8071" y1="369.133" x2="254.8071" y2="12.763" gradientTransform="matrix(1.0039 0 0 -1.0039 0.1922 516.5609)">
	<stop  offset="0" style="stop-color:#FEFFB3"/>
	<stop  offset="1" style="stop-color:#FFCD77"/>
</linearGradient>
<path style="fill:url(#SVGID_5_);" d="M326.258,100.92H185.74c-54.37,0-98.447,44.076-98.447,98.447v252.579h337.411V199.367
	C424.705,144.996,380.629,100.92,326.258,100.92z"/>
<linearGradient id="SVGID_6_" gradientUnits="userSpaceOnUse" x1="254.8076" y1="107.263" x2="254.8076" y2="295.293" gradientTransform="matrix(1.0039 0 0 -1.0039 0.1922 516.5609)">
	<stop  offset="0" style="stop-color:#FFE000;stop-opacity:0"/>
	<stop  offset="1" style="stop-color:#FF9111"/>
</linearGradient>
<path style="fill:url(#SVGID_6_);" d="M239.379,451.945h185.326V199.367c0-54.37-44.076-98.447-98.447-98.447H185.74
	c-54.37,0-98.447,44.076-98.447,98.447v100.493L239.379,451.945z"/>
<linearGradient id="SVGID_7_" gradientUnits="userSpaceOnUse" x1="436.354" y1="168.7412" x2="81.504" y2="356.7712" gradientTransform="matrix(1.0039 0 0 -1.0039 0.1922 516.5609)">
	<stop  offset="0" style="stop-color:#FFE000;stop-opacity:0"/>
	<stop  offset="1" style="stop-color:#FF9111"/>
</linearGradient>
<path style="fill:url(#SVGID_7_);" d="M326.258,99.834h-71.56v351.025h170.005V198.281
	C424.705,143.91,380.629,99.834,326.258,99.834z"/>
<g>
	
		<linearGradient id="SVGID_8_" gradientUnits="userSpaceOnUse" x1="254.8076" y1="164.703" x2="254.8076" y2="92.373" gradientTransform="matrix(1.0039 0 0 -1.0039 0.1922 516.5609)">
		<stop  offset="0" style="stop-color:#FFA981"/>
		<stop  offset="0.428" style="stop-color:#FF8666"/>
		<stop  offset="1" style="stop-color:#FF5C45"/>
	</linearGradient>
	<path style="fill:url(#SVGID_8_);" d="M306.289,374.021H205.709c-3.605,0-6.527-2.922-6.527-6.527l0,0
		c0-3.605,2.922-6.528,6.527-6.528h100.581c3.605,0,6.527,2.922,6.527,6.528l0,0C312.817,371.099,309.895,374.021,306.289,374.021z"
		/>
	
		<linearGradient id="SVGID_9_" gradientUnits="userSpaceOnUse" x1="254.8076" y1="164.703" x2="254.8076" y2="92.373" gradientTransform="matrix(1.0039 0 0 -1.0039 0.1922 516.5609)">
		<stop  offset="0" style="stop-color:#FFA981"/>
		<stop  offset="0.428" style="stop-color:#FF8666"/>
		<stop  offset="1" style="stop-color:#FF5C45"/>
	</linearGradient>
	<path style="fill:url(#SVGID_9_);" d="M306.289,397.27H205.709c-3.605,0-6.527-2.922-6.527-6.527l0,0
		c0-3.605,2.922-6.528,6.527-6.528h100.581c3.605,0,6.527,2.922,6.527,6.528l0,0C312.817,394.347,309.895,397.27,306.289,397.27z"/>
	
		<linearGradient id="SVGID_10_" gradientUnits="userSpaceOnUse" x1="254.8076" y1="164.703" x2="254.8076" y2="92.373" gradientTransform="matrix(1.0039 0 0 -1.0039 0.1922 516.5609)">
		<stop  offset="0" style="stop-color:#FFA981"/>
		<stop  offset="0.428" style="stop-color:#FF8666"/>
		<stop  offset="1" style="stop-color:#FF5C45"/>
	</linearGradient>
	<path style="fill:url(#SVGID_10_);" d="M306.289,420.519H205.709c-3.605,0-6.527-2.922-6.527-6.527l0,0
		c0-3.605,2.922-6.528,6.527-6.528h100.581c3.605,0,6.527,2.922,6.527,6.528l0,0C312.817,417.596,309.895,420.519,306.289,420.519z"
		/>
</g>
<linearGradient id="SVGID_11_" gradientUnits="userSpaceOnUse" x1="131.5016" y1="55.763" x2="131.5016" y2="-4.127" gradientTransform="matrix(1.0039 0 0 -1.0039 0.1922 516.5609)">
	<stop  offset="0" style="stop-color:#605654"/>
	<stop  offset="0.351" style="stop-color:#5B5351"/>
	<stop  offset="0.745" style="stop-color:#4E4948"/>
	<stop  offset="1" style="stop-color:#413F40"/>
</linearGradient>
<path style="fill:url(#SVGID_11_);" d="M156.664,512h-48.908c-10.457,0-18.935-8.477-18.935-18.935v-40.064h86.777v40.064
	C175.598,503.523,167.121,512,156.664,512z"/>
<linearGradient id="SVGID_12_" gradientUnits="userSpaceOnUse" x1="131.5021" y1="15.653" x2="131.5021" y2="46.133" gradientTransform="matrix(1.0039 0 0 -1.0039 0.1922 516.5609)">
	<stop  offset="0" style="stop-color:#413F40;stop-opacity:0"/>
	<stop  offset="1" style="stop-color:#413F40"/>
</linearGradient>
<path style="fill:url(#SVGID_12_);" d="M156.664,512c10.457,0,18.934-8.477,18.934-18.935v-40.064H88.822v25.361L122.458,512
	H156.664z"/>
<linearGradient id="SVGID_13_" gradientUnits="userSpaceOnUse" x1="171.3657" y1="26.241" x2="98.9757" y2="56.721" gradientTransform="matrix(1.0039 0 0 -1.0039 0.1922 516.5609)">
	<stop  offset="0" style="stop-color:#413F40;stop-opacity:0"/>
	<stop  offset="1" style="stop-color:#413F40"/>
</linearGradient>
<path style="fill:url(#SVGID_13_);" d="M132.21,512h24.454c10.457,0,18.934-8.477,18.934-18.935v-40.064H132.21V512z"/>
<linearGradient id="SVGID_14_" gradientUnits="userSpaceOnUse" x1="378.1126" y1="55.763" x2="378.1126" y2="-4.127" gradientTransform="matrix(1.0039 0 0 -1.0039 0.1922 516.5609)">
	<stop  offset="0" style="stop-color:#605654"/>
	<stop  offset="0.351" style="stop-color:#5B5351"/>
	<stop  offset="0.745" style="stop-color:#4E4948"/>
	<stop  offset="1" style="stop-color:#413F40"/>
</linearGradient>
<path style="fill:url(#SVGID_14_);" d="M404.242,512h-48.908c-10.457,0-18.935-8.477-18.935-18.935v-40.064h86.777v40.064
	C423.176,503.523,414.699,512,404.242,512z"/>
<linearGradient id="SVGID_15_" gradientUnits="userSpaceOnUse" x1="378.1126" y1="15.653" x2="378.1126" y2="46.133" gradientTransform="matrix(1.0039 0 0 -1.0039 0.1922 516.5609)">
	<stop  offset="0" style="stop-color:#413F40;stop-opacity:0"/>
	<stop  offset="1" style="stop-color:#413F40"/>
</linearGradient>
<path style="fill:url(#SVGID_15_);" d="M404.242,512c10.457,0,18.934-8.477,18.934-18.935v-40.064h-86.777v25.361L370.036,512
	H404.242z"/>
<linearGradient id="SVGID_16_" gradientUnits="userSpaceOnUse" x1="417.9759" y1="26.2414" x2="345.5859" y2="56.7214" gradientTransform="matrix(1.0039 0 0 -1.0039 0.1922 516.5609)">
	<stop  offset="0" style="stop-color:#413F40;stop-opacity:0"/>
	<stop  offset="1" style="stop-color:#413F40"/>
</linearGradient>
<path style="fill:url(#SVGID_16_);" d="M379.789,512h24.454c10.457,0,18.934-8.477,18.934-18.935v-40.064h-43.387V512z"/>
<linearGradient id="SVGID_17_" gradientUnits="userSpaceOnUse" x1="254.8076" y1="75.273" x2="254.8076" y2="35.653" gradientTransform="matrix(1.0039 0 0 -1.0039 0.1922 516.5609)">
	<stop  offset="0" style="stop-color:#EFFBFF"/>
	<stop  offset="0.181" style="stop-color:#DDF0F9"/>
	<stop  offset="0.483" style="stop-color:#C5E1F2"/>
	<stop  offset="0.763" style="stop-color:#B7D8EE"/>
	<stop  offset="1" style="stop-color:#B2D5EC"/>
</linearGradient>
<path style="fill:url(#SVGID_17_);" d="M427.085,475.013H84.913c-9.335,0-16.904-7.569-16.904-16.904v-5.216
	c0-9.335,7.569-16.904,16.904-16.904h342.173c9.335,0,16.904,7.569,16.904,16.904v5.216
	C443.989,467.444,436.421,475.013,427.085,475.013z"/>
<linearGradient id="SVGID_18_" gradientUnits="userSpaceOnUse" x1="254.8081" y1="385.003" x2="254.8081" y2="130.843" gradientTransform="matrix(1.0039 0 0 -1.0039 0.1922 516.5609)">
	<stop  offset="0" style="stop-color:#EFFBFF"/>
	<stop  offset="0.181" style="stop-color:#DDF0F9"/>
	<stop  offset="0.483" style="stop-color:#C5E1F2"/>
	<stop  offset="0.763" style="stop-color:#B7D8EE"/>
	<stop  offset="1" style="stop-color:#B2D5EC"/>
</linearGradient>
<path style="fill:url(#SVGID_18_);" d="M264.637,346.134c54.783-30.986,121.258-40.817,155.121-43.914
	c5.133-0.469,9.054-4.772,9.054-9.926v-93.537c0-55.695-45.149-100.843-100.843-100.843H184.03
	c-55.695,0-100.843,45.149-100.843,100.843v93.518c0,5.158,3.927,9.464,9.065,9.927c34.11,3.075,101.284,12.885,156.225,43.936
	C253.492,348.972,259.623,348.97,264.637,346.134z"/>
<linearGradient id="SVGID_19_" gradientUnits="userSpaceOnUse" x1="300.6056" y1="484.108" x2="300.6056" y2="348.603" gradientTransform="matrix(1.0039 0 0 -1.0039 0.1922 516.5609)">
	<stop  offset="0" style="stop-color:#00FFF4"/>
	<stop  offset="1" style="stop-color:#00DBFF"/>
</linearGradient>
<path style="fill:url(#SVGID_19_);" d="M350.024,115.803h-96.095c-3.207,0-5.806-2.599-5.806-5.806V25.178
	c0-3.207,2.599-5.806,5.806-5.806h96.095c3.207,0,5.806,2.599,5.806,5.806v84.819C355.83,113.204,353.231,115.803,350.024,115.803z"
	/>
<linearGradient id="SVGID_20_" gradientUnits="userSpaceOnUse" x1="327.8984" y1="394.2039" x2="253.7584" y2="468.3438" gradientTransform="matrix(1.0039 0 0 -1.0039 0.1922 516.5609)">
	<stop  offset="0" style="stop-color:#00DBFF;stop-opacity:0"/>
	<stop  offset="1" style="stop-color:#279AFF"/>
</linearGradient>
<path style="fill:url(#SVGID_20_);" d="M300.784,19.373h-46.855c-3.207,0-5.806,2.599-5.806,5.806v84.82
	c0,3.207,2.599,5.806,5.806,5.806h96.095c3.207,0,5.806-2.599,5.806-5.806V74.42L300.784,19.373z"/>
<linearGradient id="SVGID_21_" gradientUnits="userSpaceOnUse" x1="267.7746" y1="500.503" x2="267.7746" y2="352.323" gradientTransform="matrix(1.0039 0 0 -1.0039 0.1922 516.5609)">
	<stop  offset="0" style="stop-color:#AFDC00"/>
	<stop  offset="0.29" style="stop-color:#99C000"/>
	<stop  offset="0.915" style="stop-color:#607800"/>
	<stop  offset="1" style="stop-color:#586E00"/>
</linearGradient>
<path style="fill:url(#SVGID_21_);" d="M300.626,5.806v96.095c0,3.207-2.599,5.806-5.806,5.806h-51.608
	c-3.207,0-5.806-2.599-5.806-5.806V5.806c0-3.207,2.599-5.806,5.806-5.806h51.608C298.027,0,300.626,2.599,300.626,5.806z"/>
<linearGradient id="SVGID_22_" gradientUnits="userSpaceOnUse" x1="268.3812" y1="415.9466" x2="232.9412" y2="451.3965" gradientTransform="matrix(1.0039 0 0 -1.0039 0.1922 516.5609)">
	<stop  offset="0" style="stop-color:#2C3700;stop-opacity:0"/>
	<stop  offset="1" style="stop-color:#586E00"/>
</linearGradient>
<path style="fill:url(#SVGID_22_);" d="M300.625,92.439v9.464c0,3.206-2.597,5.803-5.803,5.803h-51.614
	c-3.206,0-5.803-2.597-5.803-5.803v-49.32h20.656c0.228,0,0.457,0.011,0.674,0.043l2.412,0.847l0.782,0.272L300.625,92.439z"/>
<linearGradient id="SVGID_23_" gradientUnits="userSpaceOnUse" x1="209.0096" y1="454.862" x2="209.0096" y2="366.023" gradientTransform="matrix(1.0039 0 0 -1.0039 0.1922 516.5609)">
	<stop  offset="0" style="stop-color:#FFA981"/>
	<stop  offset="0.428" style="stop-color:#FF8666"/>
	<stop  offset="1" style="stop-color:#FF5C45"/>
</linearGradient>
<path style="fill:url(#SVGID_23_);" d="M258.069,115.803h-96.095c-3.207,0-5.806-2.599-5.806-5.806V58.39
	c0-3.207,2.599-5.806,5.806-5.806h96.095c3.207,0,5.806,2.599,5.806,5.806v51.608C263.874,113.204,261.275,115.803,258.069,115.803z
	"/>
<linearGradient id="SVGID_24_" gradientUnits="userSpaceOnUse" x1="254.8076" y1="326.713" x2="254.8076" y2="31.983" gradientTransform="matrix(1.0039 0 0 -1.0039 0.1922 516.5609)">
	<stop  offset="0" style="stop-color:#EFFBFF"/>
	<stop  offset="0.181" style="stop-color:#DDF0F9"/>
	<stop  offset="0.483" style="stop-color:#C5E1F2"/>
	<stop  offset="0.763" style="stop-color:#B7D8EE"/>
	<stop  offset="1" style="stop-color:#B2D5EC"/>
</linearGradient>
<path style="fill:url(#SVGID_24_);" d="M256.555,350.916c54.198-33.551,122.65-44.665,159.324-48.325
	c7.345-0.733,12.933-6.899,12.933-14.28c0-23.786,0-75.48,0-119.009c0-39.431-31.966-71.39-71.397-71.39H154.583
	c-39.431,0-71.397,31.966-71.397,71.397v118.968c0,7.388,5.597,13.567,12.949,14.291
	C133.08,306.204,202.245,317.294,256.555,350.916z"/>
<linearGradient id="SVGID_25_" gradientUnits="userSpaceOnUse" x1="403.7776" y1="292.3294" x2="48.9276" y2="292.3294" gradientTransform="matrix(1.0039 0 0 -1.0039 0.1922 516.5609)">
	<stop  offset="0" style="stop-color:#B2D5EC;stop-opacity:0"/>
	<stop  offset="1" style="stop-color:#7797B0"/>
</linearGradient>
<path style="fill:url(#SVGID_25_);" d="M327.969,97.913H254.7v250.237c3.39,0.385,6.873-0.284,9.938-2.017
	c54.783-30.986,121.258-40.817,155.121-43.914c1.85-0.169,3.539-0.842,4.947-1.868v-121.31c0-3.641-0.204-7.235-0.589-10.774
	C411.192,127.478,373.035,97.913,327.969,97.913z"/>
<linearGradient id="SVGID_26_" gradientUnits="userSpaceOnUse" x1="254.8071" y1="233.923" x2="254.8071" y2="156.423" gradientTransform="matrix(1.0039 0 0 -1.0039 0.1922 516.5609)">
	<stop  offset="0" style="stop-color:#EFFBFF"/>
	<stop  offset="0.181" style="stop-color:#DDF0F9"/>
	<stop  offset="0.483" style="stop-color:#C5E1F2"/>
	<stop  offset="0.763" style="stop-color:#B7D8EE"/>
	<stop  offset="1" style="stop-color:#B2D5EC"/>
</linearGradient>
<path style="fill:url(#SVGID_26_);" d="M419.758,281.861c-33.863,3.095-100.338,12.928-155.121,43.914
	c-5.014,2.836-11.145,2.838-16.16,0.004c-54.943-31.049-122.116-40.86-156.226-43.936c-5.138-0.463-9.065-4.769-9.065-9.927v20.36
	c0,5.158,3.927,9.464,9.065,9.927c34.11,3.075,101.284,12.885,156.226,43.936c5.015,2.834,11.146,2.832,16.16-0.004
	c54.783-30.986,121.258-40.817,155.121-43.914c5.133-0.469,9.054-4.772,9.054-9.926v-20.36
	C428.812,277.089,424.891,281.392,419.758,281.861z"/>
<radialGradient id="SVGID_27_" cx="152.1376" cy="136.203" r="66.66" gradientTransform="matrix(1.0039 0 0 -1.0039 0.1922 516.5609)" gradientUnits="userSpaceOnUse">
	<stop  offset="0" style="stop-color:#FFFFFF"/>
	<stop  offset="1" style="stop-color:#FFFFFF;stop-opacity:0"/>
</radialGradient>
<circle style="fill:url(#SVGID_27_);" cx="152.776" cy="379.824" r="70.877"/>
<radialGradient id="SVGID_28_" cx="140.9876" cy="154.903" r="70.77" gradientTransform="matrix(1.0039 0 0 -1.0039 0.1922 516.5609)" gradientUnits="userSpaceOnUse">
	<stop  offset="0" style="stop-color:#FFF2E8"/>
	<stop  offset="0.408" style="stop-color:#FFF0E6"/>
	<stop  offset="0.554" style="stop-color:#FFEADF"/>
	<stop  offset="0.659" style="stop-color:#FFDFD4"/>
	<stop  offset="0.744" style="stop-color:#FFD0C3"/>
	<stop  offset="0.816" style="stop-color:#FFBBAD"/>
	<stop  offset="0.881" style="stop-color:#FFA291"/>
	<stop  offset="0.939" style="stop-color:#FF8571"/>
	<stop  offset="0.99" style="stop-color:#FF634D"/>
	<stop  offset="1" style="stop-color:#FF5C45"/>
</radialGradient>
<circle style="fill:url(#SVGID_28_);" cx="152.776" cy="379.824" r="43.973"/>
<radialGradient id="SVGID_29_" cx="144.2076" cy="149.423" r="50.04" gradientTransform="matrix(1.0039 0 0 -1.0039 0.1922 516.5609)" gradientUnits="userSpaceOnUse">
	<stop  offset="0" style="stop-color:#FFF2E8"/>
	<stop  offset="0.408" style="stop-color:#FFF0E6"/>
	<stop  offset="0.554" style="stop-color:#FFEADF"/>
	<stop  offset="0.659" style="stop-color:#FFDFD4"/>
	<stop  offset="0.744" style="stop-color:#FFD0C3"/>
	<stop  offset="0.816" style="stop-color:#FFBBAD"/>
	<stop  offset="0.881" style="stop-color:#FFA291"/>
	<stop  offset="0.939" style="stop-color:#FF8571"/>
	<stop  offset="0.99" style="stop-color:#FF634D"/>
	<stop  offset="1" style="stop-color:#FF5C45"/>
</radialGradient>
<circle style="fill:url(#SVGID_29_);" cx="152.776" cy="379.824" r="31.093"/>
<radialGradient id="SVGID_30_" cx="357.7876" cy="136.203" r="66.66" gradientTransform="matrix(1.0039 0 0 -1.0039 0.1922 516.5609)" gradientUnits="userSpaceOnUse">
	<stop  offset="0" style="stop-color:#FFFFFF"/>
	<stop  offset="1" style="stop-color:#FFFFFF;stop-opacity:0"/>
</radialGradient>
<circle style="fill:url(#SVGID_30_);" cx="359.222" cy="379.824" r="70.877"/>
<radialGradient id="SVGID_31_" cx="346.6376" cy="154.903" r="70.77" gradientTransform="matrix(1.0039 0 0 -1.0039 0.1922 516.5609)" gradientUnits="userSpaceOnUse">
	<stop  offset="0" style="stop-color:#FFF2E8"/>
	<stop  offset="0.408" style="stop-color:#FFF0E6"/>
	<stop  offset="0.554" style="stop-color:#FFEADF"/>
	<stop  offset="0.659" style="stop-color:#FFDFD4"/>
	<stop  offset="0.744" style="stop-color:#FFD0C3"/>
	<stop  offset="0.816" style="stop-color:#FFBBAD"/>
	<stop  offset="0.881" style="stop-color:#FFA291"/>
	<stop  offset="0.939" style="stop-color:#FF8571"/>
	<stop  offset="0.99" style="stop-color:#FF634D"/>
	<stop  offset="1" style="stop-color:#FF5C45"/>
</radialGradient>
<circle style="fill:url(#SVGID_31_);" cx="359.222" cy="379.824" r="43.973"/>
<radialGradient id="SVGID_32_" cx="349.8576" cy="149.423" r="50.04" gradientTransform="matrix(1.0039 0 0 -1.0039 0.1922 516.5609)" gradientUnits="userSpaceOnUse">
	<stop  offset="0" style="stop-color:#FFF2E8"/>
	<stop  offset="0.408" style="stop-color:#FFF0E6"/>
	<stop  offset="0.554" style="stop-color:#FFEADF"/>
	<stop  offset="0.659" style="stop-color:#FFDFD4"/>
	<stop  offset="0.744" style="stop-color:#FFD0C3"/>
	<stop  offset="0.816" style="stop-color:#FFBBAD"/>
	<stop  offset="0.881" style="stop-color:#FFA291"/>
	<stop  offset="0.939" style="stop-color:#FF8571"/>
	<stop  offset="0.99" style="stop-color:#FF634D"/>
	<stop  offset="1" style="stop-color:#FF5C45"/>
</radialGradient>
<circle style="fill:url(#SVGID_32_);" cx="359.222" cy="379.824" r="31.093"/>
<linearGradient id="SVGID_33_" gradientUnits="userSpaceOnUse" x1="254.8076" y1="335.643" x2="254.8076" y2="164.693" gradientTransform="matrix(1.0039 0 0 -1.0039 0.1922 516.5609)">
	<stop  offset="0" style="stop-color:#605654"/>
	<stop  offset="0.351" style="stop-color:#5B5351"/>
	<stop  offset="0.745" style="stop-color:#4E4948"/>
	<stop  offset="1" style="stop-color:#413F40"/>
</linearGradient>
<path style="fill:url(#SVGID_33_);" d="M398.805,265.497V164.318c0-20.6-16.7-37.3-37.3-37.3H150.493c-20.6,0-37.3,16.7-37.3,37.3
	v101.179c0,4.567,3.702,8.268,8.268,8.268h269.075C395.103,273.766,398.805,270.064,398.805,265.497z"/>
<linearGradient id="SVGID_34_" gradientUnits="userSpaceOnUse" x1="215.4482" y1="345.8236" x2="281.0283" y2="280.2336" gradientTransform="matrix(1.0039 0 0 -1.0039 0.1922 516.5609)">
	<stop  offset="0" style="stop-color:#FFFFFF;stop-opacity:0"/>
	<stop  offset="0.483" style="stop-color:#FFFFFF"/>
	<stop  offset="0.927" style="stop-color:#FFFFFF;stop-opacity:0.141"/>
	<stop  offset="1" style="stop-color:#FFFFFF;stop-opacity:0"/>
</linearGradient>
<path style="opacity:0.25;fill:url(#SVGID_34_);enable-background:new    ;" d="M361.505,127.018H248.051L113.193,261.876v3.621
	c0,1.428,0.361,2.77,0.998,3.941c0.255,0.469,0.553,0.91,0.89,1.318c0.337,0.409,0.713,0.784,1.121,1.121s0.849,0.635,1.318,0.89
	c1.172,0.636,2.515,0.998,3.941,0.998h149.594l124.552-124.554C389.81,136.141,376.727,127.018,361.505,127.018z"/>
<g>
	
		<linearGradient id="SVGID_35_" gradientUnits="userSpaceOnUse" x1="338.4276" y1="102.1705" x2="205.2776" y2="102.1705" gradientTransform="matrix(1.0039 0 0 -1.0039 0.1922 516.5609)">
		<stop  offset="0" style="stop-color:#FF5C45;stop-opacity:0"/>
		<stop  offset="1" style="stop-color:#B82934"/>
	</linearGradient>
	<path style="fill:url(#SVGID_35_);" d="M312.817,413.995c0,1.793-0.728,3.422-1.912,4.607c-1.185,1.185-2.814,1.912-4.618,1.912
		h-51.592v-13.05h51.592C309.895,407.465,312.817,410.387,312.817,413.995z"/>
	
		<linearGradient id="SVGID_36_" gradientUnits="userSpaceOnUse" x1="338.4276" y1="125.327" x2="205.2776" y2="125.327" gradientTransform="matrix(1.0039 0 0 -1.0039 0.1922 516.5609)">
		<stop  offset="0" style="stop-color:#FF5C45;stop-opacity:0"/>
		<stop  offset="1" style="stop-color:#B82934"/>
	</linearGradient>
	<path style="fill:url(#SVGID_36_);" d="M312.817,390.742c0,1.804-0.728,3.433-1.912,4.618c-1.185,1.185-2.814,1.912-4.618,1.912
		h-51.592v-13.061h51.592C309.895,384.212,312.817,387.134,312.817,390.742z"/>
	
		<linearGradient id="SVGID_37_" gradientUnits="userSpaceOnUse" x1="338.4276" y1="148.4845" x2="205.2776" y2="148.4845" gradientTransform="matrix(1.0039 0 0 -1.0039 0.1922 516.5609)">
		<stop  offset="0" style="stop-color:#FF5C45;stop-opacity:0"/>
		<stop  offset="1" style="stop-color:#B82934"/>
	</linearGradient>
	<path style="fill:url(#SVGID_37_);" d="M312.817,367.489c0,1.804-0.728,3.433-1.912,4.618c-1.185,1.185-2.814,1.912-4.618,1.912
		h-51.592v-13.05h51.592C309.895,360.969,312.817,363.892,312.817,367.489z"/>
</g>
<g>
</g>
<g>
</g>
<g>
</g>
<g>
</g>
<g>
</g>
<g>
</g>
<g>
</g>
<g>
</g>
<g>
</g>
<g>
</g>
<g>
</g>
<g>
</g>
<g>
</g>
<g>
</g>
<g>
</g>
</svg>
