<?xml version="1.0" encoding="iso-8859-1"?>
<!-- Generator: Adobe Illustrator 19.0.0, SVG Export Plug-In . SVG Version: 6.00 Build 0)  -->
<svg version="1.1" id="Capa_1" xmlns="http://www.w3.org/2000/svg" xmlns:xlink="http://www.w3.org/1999/xlink" x="0px" y="0px"
	 viewBox="0 0 512 512" style="enable-background:new 0 0 512 512;" xml:space="preserve">
<linearGradient id="SVGID_1_" gradientUnits="userSpaceOnUse" x1="173.7381" y1="114.3329" x2="208.7581" y2="14.4129" gradientTransform="matrix(1.0039 0 0 -1.0039 0.1922 516.5609)">
	<stop  offset="0" style="stop-color:#EFFBFF"/>
	<stop  offset="0.181" style="stop-color:#DDF0F9"/>
	<stop  offset="0.483" style="stop-color:#C5E1F2"/>
	<stop  offset="0.763" style="stop-color:#B7D8EE"/>
	<stop  offset="1" style="stop-color:#B2D5EC"/>
</linearGradient>
<polygon style="fill:url(#SVGID_1_);" points="224.958,456.435 145.688,416.237 185.887,336.967 "/>
<linearGradient id="SVGID_2_" gradientUnits="userSpaceOnUse" x1="210.8483" y1="133.1469" x2="358.5783" y2="133.1469" gradientTransform="matrix(1.0039 0 0 -1.0039 0.1922 516.5609)">
	<stop  offset="0" style="stop-color:#FEFFB3"/>
	<stop  offset="1" style="stop-color:#FFCD77"/>
</linearGradient>
<path style="fill:url(#SVGID_2_);" d="M198.651,258.959l-43.416,7.86c0,0,32.841,113.036,89.228,237.559
	c4.602,10.164,19.054,10.164,23.656,0c56.386-124.523,89.228-237.559,89.228-237.559l-43.416-7.86
	C275.814,252.059,236.768,252.059,198.651,258.959z"/>
<linearGradient id="SVGID_3_" gradientUnits="userSpaceOnUse" x1="287.7007" y1="170.8076" x2="182.7007" y2="124.8177" gradientTransform="matrix(1.0039 0 0 -1.0039 0.1922 516.5609)">
	<stop  offset="0" style="stop-color:#FEFFB3;stop-opacity:0"/>
	<stop  offset="1" style="stop-color:#FF9111"/>
</linearGradient>
<path style="fill:url(#SVGID_3_);" d="M357.347,266.818c0,0-10.663,36.711-30.282,91.334c-6.569,18.321-14.156,38.645-22.677,60.285
	c-7.057,17.92-14.758,36.737-23.068,56.051c-1.159-1.097-2.151-2.466-2.883-4.086c-39.926-88.188-68.056-170.609-81.071-211.206
	l1.289-0.235c13.983-2.535,28.096-4.138,42.234-4.809c15.402-0.732,30.849-0.365,46.207,1.106
	c8.982,0.853,17.929,2.091,26.832,3.702L357.347,266.818z"/>
<linearGradient id="SVGID_4_" gradientUnits="userSpaceOnUse" x1="316.2591" y1="197.5612" x2="228.619" y2="162.4112" gradientTransform="matrix(1.0039 0 0 -1.0039 0.1922 516.5609)">
	<stop  offset="0" style="stop-color:#FEFFB3;stop-opacity:0"/>
	<stop  offset="1" style="stop-color:#FF9111"/>
</linearGradient>
<path style="fill:url(#SVGID_4_);" d="M357.347,266.818c0,0-10.663,36.711-30.282,91.334c-6.569,18.321-14.156,38.645-22.677,60.285
	c-28.052-63.909-49.657-123.393-63.5-164.286c15.402-0.732,30.849-0.365,46.206,1.106c8.982,0.853,17.929,2.091,26.832,3.702
	L357.347,266.818z"/>
<linearGradient id="SVGID_5_" gradientUnits="userSpaceOnUse" x1="329.1574" y1="219.8849" x2="283.1674" y2="198.6249" gradientTransform="matrix(1.0039 0 0 -1.0039 0.1922 516.5609)">
	<stop  offset="0" style="stop-color:#FEFFB3;stop-opacity:0"/>
	<stop  offset="1" style="stop-color:#FF9111"/>
</linearGradient>
<path style="fill:url(#SVGID_5_);" d="M357.347,266.818c0,0-10.663,36.711-30.282,91.334
	c-15.838-37.661-29.254-72.995-39.969-102.894c8.982,0.853,17.929,2.091,26.832,3.702L357.347,266.818z"/>
<linearGradient id="SVGID_6_" gradientUnits="userSpaceOnUse" x1="222.496" y1="170.8076" x2="327.496" y2="124.8176" gradientTransform="matrix(1.0039 0 0 -1.0039 0.1922 516.5609)">
	<stop  offset="0" style="stop-color:#FEFFB3;stop-opacity:0"/>
	<stop  offset="1" style="stop-color:#FF9111"/>
</linearGradient>
<path style="fill:url(#SVGID_6_);" d="M155.235,266.818c0,0,10.663,36.711,30.282,91.334c6.569,18.321,14.156,38.645,22.677,60.285
	c7.057,17.92,14.758,36.737,23.068,56.051c1.159-1.097,2.151-2.466,2.883-4.086c39.926-88.188,68.056-170.609,81.071-211.206
	l-1.289-0.235c-13.983-2.535-28.096-4.138-42.234-4.809c-15.402-0.732-30.848-0.365-46.206,1.106
	c-8.982,0.853-17.929,2.091-26.832,3.702L155.235,266.818z"/>
<linearGradient id="SVGID_7_" gradientUnits="userSpaceOnUse" x1="193.9377" y1="197.5612" x2="281.5776" y2="162.4112" gradientTransform="matrix(1.0039 0 0 -1.0039 0.1922 516.5609)">
	<stop  offset="0" style="stop-color:#FEFFB3;stop-opacity:0"/>
	<stop  offset="1" style="stop-color:#FF9111"/>
</linearGradient>
<path style="fill:url(#SVGID_7_);" d="M155.235,266.818c0,0,10.663,36.711,30.282,91.334c6.569,18.321,14.156,38.645,22.677,60.285
	c28.052-63.909,49.657-123.393,63.5-164.286c-15.402-0.732-30.848-0.365-46.206,1.106c-8.982,0.853-17.929,2.091-26.832,3.702
	L155.235,266.818z"/>
<linearGradient id="SVGID_8_" gradientUnits="userSpaceOnUse" x1="181.0301" y1="219.8868" x2="227.0301" y2="198.6268" gradientTransform="matrix(1.0039 0 0 -1.0039 0.1922 516.5609)">
	<stop  offset="0" style="stop-color:#FEFFB3;stop-opacity:0"/>
	<stop  offset="1" style="stop-color:#FF9111"/>
</linearGradient>
<path style="fill:url(#SVGID_8_);" d="M155.235,266.818c0,0,10.663,36.711,30.282,91.334
	c15.838-37.661,29.254-72.995,39.969-102.894c-8.982,0.853-17.929,2.091-26.832,3.702L155.235,266.818z"/>
<linearGradient id="SVGID_9_" gradientUnits="userSpaceOnUse" x1="264.1812" y1="139.3532" x2="252.0313" y2="285.7132" gradientTransform="matrix(1.0039 0 0 -1.0039 0.1922 516.5609)">
	<stop  offset="0" style="stop-color:#FEFFB3;stop-opacity:0"/>
	<stop  offset="1" style="stop-color:#FF9111"/>
</linearGradient>
<path style="fill:url(#SVGID_9_);" d="M357.347,266.818l-43.416-7.86c-38.117-6.901-77.163-6.901-115.28,0l-43.416,7.86
	l149.849,149.849C338.585,331.383,357.347,266.818,357.347,266.818z"/>
<linearGradient id="SVGID_10_" gradientUnits="userSpaceOnUse" x1="255.0985" y1="458.393" x2="255.0985" y2="396.293" gradientTransform="matrix(1.0039 0 0 -1.0039 0.1922 516.5609)">
	<stop  offset="0" style="stop-color:#00FFF4"/>
	<stop  offset="1" style="stop-color:#00DBFF"/>
</linearGradient>
<path style="fill:url(#SVGID_10_);" d="M302.22,50.571C304.998,20.886,257.151,0,257.151,0s13.581,15.887-1.794,28.443
	c-12.454,10.171-31.692,22.771-38.691,27.358c-1.599,1.048-3.249,2.012-4.916,2.948c-18.989,10.659-27.42,34.958-17.285,55.617
	c0.58,1.182,1.816,1.869,3.107,1.807c5.668-3.699,12.191-6.386,19.416-7.714c26.025-4.782,52.576-4.782,78.601,0
	c7.482,1.374,14.211,4.208,20.017,8.114c0.227,0.029,0.455,0.065,0.683,0.107c0.321,0.06,0.652-0.081,0.81-0.367
	c10.295-18.57,5.018-40.611-9.808-53.1C303.62,60.121,301.773,55.349,302.22,50.571z"/>
<linearGradient id="SVGID_11_" gradientUnits="userSpaceOnUse" x1="255.0982" y1="401.343" x2="255.0982" y2="332.453" gradientTransform="matrix(1.0039 0 0 -1.0039 0.1922 516.5609)">
	<stop  offset="0" style="stop-color:#00FFF4"/>
	<stop  offset="1" style="stop-color:#00DBFF"/>
</linearGradient>
<path style="fill:url(#SVGID_11_);" d="M178.255,180.858c7.532-4.916,16.2-8.487,25.803-10.252c34.587-6.356,69.874-6.356,104.46,0
	c9.944,1.827,18.886,5.593,26.603,10.783c0.301,0.039,0.604,0.086,0.908,0.144c0.433,0.081,0.874-0.123,1.088-0.509
	c18.622-33.621-1.146-75.806-39.089-82.778c-27.639-5.079-55.838-5.079-83.477,0c-36.983,6.796-56.695,47.046-40.425,80.211
	C174.897,180.027,176.54,180.941,178.255,180.858z"/>
<linearGradient id="SVGID_12_" gradientUnits="userSpaceOnUse" x1="303.2891" y1="359.7537" x2="214.569" y2="448.4737" gradientTransform="matrix(1.0039 0 0 -1.0039 0.1922 516.5609)">
	<stop  offset="0" style="stop-color:#B2D5EC;stop-opacity:0"/>
	<stop  offset="1" style="stop-color:#00DBFF"/>
</linearGradient>
<path style="fill:url(#SVGID_12_);" d="M336.028,181.533c0.433,0.081,0.874-0.123,1.088-0.509
	c18.622-33.621-1.146-75.806-39.089-82.778c-27.639-5.079-55.838-5.079-83.477,0c-8.403,1.544-15.91,4.819-22.31,9.341
	l58.319,58.319c19.376-0.386,38.775,1.177,57.959,4.701c9.944,1.827,18.886,5.593,26.603,10.783
	C335.423,181.43,335.725,181.477,336.028,181.533z"/>
<linearGradient id="SVGID_13_" gradientUnits="userSpaceOnUse" x1="255.0988" y1="322.303" x2="255.0988" y2="229.383" gradientTransform="matrix(1.0039 0 0 -1.0039 0.1922 516.5609)">
	<stop  offset="0" style="stop-color:#00FFF4"/>
	<stop  offset="1" style="stop-color:#00DBFF"/>
</linearGradient>
<path style="fill:url(#SVGID_13_);" d="M308.519,164.464c-34.586-6.356-69.873-6.356-104.46,0
	c-46.28,8.504-70.946,58.871-50.586,100.374c1.072,2.186,3.496,3.368,5.892,2.934l38.566-6.981
	c21.612-3.912,43.523-5.6,65.394-5.073c7.192,0.173,12.907,6.111,12.907,13.305l0,0c0,6.39,5.18,11.57,11.57,11.57l0,0
	c6.39,0,11.57-5.18,11.57-11.57v-4.736c0-3.01,2.685-5.322,5.66-4.855c0.033,0.005,0.066,0.01,0.099,0.016
	c2.392,0.376,4.158,2.434,4.158,4.855v36.293c0,6.39,5.18,11.57,11.57,11.57l0,0c6.39,0,11.57-5.18,11.57-11.57v-12.274
	c0-12.501,11.354-21.93,23.642-19.634l0,0c0.542,0.101,1.094-0.155,1.361-0.638C380.736,225.979,355.998,173.19,308.519,164.464z"/>
<linearGradient id="SVGID_14_" gradientUnits="userSpaceOnUse" x1="318.7309" y1="274.0055" x2="202.4709" y2="390.2655" gradientTransform="matrix(1.0039 0 0 -1.0039 0.1922 516.5609)">
	<stop  offset="0" style="stop-color:#B2D5EC;stop-opacity:0"/>
	<stop  offset="1" style="stop-color:#00DBFF"/>
</linearGradient>
<path style="fill:url(#SVGID_14_);" d="M308.519,164.464c-34.586-6.356-69.873-6.356-104.46,0
	c-10.262,1.885-19.458,5.833-27.34,11.283l-2.877,2.085l77.482,77.821c4.001-0.052,8.002-0.031,12.002,0.065
	c7.192,0.173,12.907,6.111,12.907,13.305l0,0c0,6.39,5.18,11.57,11.57,11.57s11.57-5.18,11.57-11.57v-4.736
	c0-3.01,2.685-5.322,5.66-4.855c0.033,0.005,0.066,0.01,0.099,0.016c2.392,0.376,4.158,2.434,4.158,4.855v36.293
	c0,6.39,5.18,11.57,11.57,11.57s11.57-5.18,11.57-11.57v-12.274c0-12.502,11.354-21.931,23.642-19.634
	c0.542,0.101,1.094-0.155,1.361-0.638C380.736,225.979,355.998,173.19,308.519,164.464z"/>
<linearGradient id="SVGID_15_" gradientUnits="userSpaceOnUse" x1="273.2284" y1="133.133" x2="382.4084" y2="23.953" gradientTransform="matrix(1.0039 0 0 -1.0039 0.1922 516.5609)">
	<stop  offset="0" style="stop-color:#EFFBFF"/>
	<stop  offset="0.181" style="stop-color:#DDF0F9"/>
	<stop  offset="0.483" style="stop-color:#C5E1F2"/>
	<stop  offset="0.763" style="stop-color:#B7D8EE"/>
	<stop  offset="1" style="stop-color:#B2D5EC"/>
</linearGradient>
<path style="fill:url(#SVGID_15_);" d="M341.943,315.274L195.25,384.726c10.29,27.511,22.423,58.206,36.229,90.251l61.966-29.339
	C314.632,394.082,331.055,347.823,341.943,315.274z"/>
<linearGradient id="SVGID_16_" gradientUnits="userSpaceOnUse" x1="333.0386" y1="139.0233" x2="159.4486" y2="312.6133" gradientTransform="matrix(1.0039 0 0 -1.0039 0.1922 516.5609)">
	<stop  offset="0" style="stop-color:#B2D5EC;stop-opacity:0"/>
	<stop  offset="1" style="stop-color:#7797B0"/>
</linearGradient>
<path style="fill:url(#SVGID_16_);" d="M248.114,359.697l56.971,56.971c0.525-1.337,1.048-2.67,1.566-3.998
	c0.034-0.087,0.067-0.174,0.101-0.261c0.521-1.334,1.037-2.662,1.551-3.987c0.21-0.541,0.418-1.078,0.626-1.618
	c0.335-0.866,0.67-1.732,1.002-2.593c0.246-0.639,0.491-1.276,0.736-1.912c0.287-0.747,0.573-1.493,0.858-2.237
	c0.261-0.683,0.521-1.363,0.781-2.042c0.261-0.684,0.52-1.364,0.779-2.044c0.274-0.721,0.548-1.441,0.819-2.156
	c0.232-0.612,0.463-1.222,0.693-1.831c0.288-0.761,0.576-1.523,0.861-2.279c0.189-0.502,0.375-1,0.564-1.499
	c1.162-3.089,2.301-6.141,3.417-9.15c0.099-0.269,0.201-0.54,0.3-0.808c0.341-0.922,0.68-1.837,1.017-2.752
	c0.136-0.368,0.272-0.738,0.408-1.105c0.328-0.892,0.655-1.779,0.979-2.663c0.13-0.352,0.258-0.705,0.388-1.056
	c0.334-0.914,0.667-1.823,0.997-2.729c0.102-0.279,0.203-0.557,0.304-0.836c0.355-0.977,0.71-1.952,1.06-2.918
	c0.033-0.092,0.066-0.184,0.099-0.276c2.07-5.713,4.047-11.248,5.929-16.58v-0.001c4.141-11.732,7.821-22.488,11.024-32.062
	L248.114,359.697z"/>
<g>
</g>
<g>
</g>
<g>
</g>
<g>
</g>
<g>
</g>
<g>
</g>
<g>
</g>
<g>
</g>
<g>
</g>
<g>
</g>
<g>
</g>
<g>
</g>
<g>
</g>
<g>
</g>
<g>
</g>
</svg>
