<?xml version="1.0" encoding="iso-8859-1"?>
<!-- Generator: Adobe Illustrator 19.0.0, SVG Export Plug-In . SVG Version: 6.00 Build 0)  -->
<svg version="1.1" id="Capa_1" xmlns="http://www.w3.org/2000/svg" xmlns:xlink="http://www.w3.org/1999/xlink" x="0px" y="0px"
	 viewBox="0 0 512.004 512.004" style="enable-background:new 0 0 512.004 512.004;" xml:space="preserve">
<linearGradient id="SVGID_1_" gradientUnits="userSpaceOnUse" x1="116.8951" y1="145.4051" x2="54.2251" y2="-10.7448" gradientTransform="matrix(1.0039 0 0 -1.0039 0.1922 516.5609)">
	<stop  offset="0" style="stop-color:#00FFF4"/>
	<stop  offset="1" style="stop-color:#00DBFF"/>
</linearGradient>
<path style="fill:url(#SVGID_1_);" d="M231.278,233.523c-0.576,0.709-1.154,1.43-1.73,2.15
	c18.969,29.36,32.519,63.418,38.982,100.322c2.823,16.074,4.301,32.676,4.301,49.674c0,18.26-1.706,36.075-4.949,53.254
	c-4.889,25.924-13.275,50.395-24.591,72.763C116.998,505.513,14.754,407.822,1.468,283.523c0-0.048-0.012-0.108-0.012-0.157
	c-0.12-1.081-0.228-2.162-0.324-3.244c-0.108-1.129-0.216-2.271-0.3-3.411c-0.096-1.141-0.181-2.283-0.252-3.423
	c-0.072-1.045-0.133-2.09-0.192-3.147c-0.036-0.54-0.06-1.081-0.072-1.633c-0.06-0.877-0.096-1.742-0.12-2.607
	c-0.133-3.281-0.193-6.584-0.193-9.9c0-3.375,0.06-6.727,0.204-10.067c0.036-1.033,0.072-2.066,0.133-3.111
	c0.06-1.345,0.145-2.691,0.228-4.025c0.048-0.745,0.108-1.49,0.157-2.223c0.06-0.805,0.133-1.609,0.204-2.414
	c0.048-0.6,0.096-1.214,0.157-1.826c0.06-0.661,0.12-1.321,0.192-1.994c0.24-2.402,0.505-4.782,0.805-7.16
	c0.133-0.997,0.264-1.982,0.409-2.98c0.145-1.069,0.3-2.126,0.469-3.183c0.156-1.057,0.324-2.114,0.505-3.171
	c0.12-0.781,0.252-1.562,0.397-2.342c0.781-4.48,1.682-8.926,2.703-13.31c0.228-1.033,0.481-2.066,0.733-3.087
	c0.252-1.033,0.505-2.054,0.769-3.075c0.216-0.865,0.445-1.73,0.685-2.595c0.181-0.697,0.372-1.381,0.564-2.078
	c0.216-0.817,0.457-1.633,0.697-2.451c0.781-2.727,1.609-5.442,2.487-8.133c0.312-0.961,0.636-1.923,0.961-2.871
	c0.336-0.997,0.673-1.982,1.021-2.968c0.312-0.888,0.624-1.778,0.949-2.667c0.733-2.018,1.49-4.013,2.271-5.994
	c0.024-0.048,0.036-0.096,0.06-0.145c0.385-0.961,0.769-1.934,1.166-2.895c0.769-1.874,1.562-3.749,2.366-5.61
	c0.312-0.709,0.624-1.405,0.937-2.102c0.312-0.721,0.649-1.442,0.985-2.162c0.228-0.516,0.469-1.033,0.709-1.538
	c0.433-0.937,0.877-1.874,1.321-2.799c0.385-0.805,0.781-1.597,1.178-2.39c3.484-7.064,7.291-13.935,11.413-20.615
	c0.457-0.745,0.913-1.49,1.381-2.223c0.493-0.793,0.997-1.574,1.502-2.354c7.052-10.932,14.908-21.299,23.498-31.006
	c6.788,16.338,15.148,31.823,24.903,46.263c15.077,22.32,33.481,42.13,54.492,58.696c25.276,19.93,54.335,35.138,85.881,44.34
	C230.078,235.001,230.678,234.256,231.278,233.523L231.278,233.523z"/>
<linearGradient id="SVGID_2_" gradientUnits="userSpaceOnUse" x1="127.8176" y1="192.5247" x2="57.3176" y2="68.0346" gradientTransform="matrix(1.0039 0 0 -1.0039 0.1922 516.5609)">
	<stop  offset="0" style="stop-color:#EFFBFF"/>
	<stop  offset="0.272" style="stop-color:#EBF9FE"/>
	<stop  offset="0.518" style="stop-color:#E0F2FA"/>
	<stop  offset="0.754" style="stop-color:#CEE6F5"/>
	<stop  offset="0.983" style="stop-color:#B4D6ED"/>
	<stop  offset="1" style="stop-color:#B2D5EC"/>
</linearGradient>
<path style="fill:url(#SVGID_2_);" d="M229.549,235.674c18.969,29.36,32.519,63.418,38.982,100.322
	c2.823,16.074,4.301,32.676,4.301,49.674c0,18.26-1.706,36.075-4.949,53.254c-0.252,0.012-0.493,0.012-0.745,0.012
	c-114.04,0-213.45-62.649-265.671-155.414c0-0.048-0.012-0.108-0.012-0.157c-0.12-1.081-0.228-2.162-0.324-3.244
	c-0.108-1.129-0.216-2.271-0.3-3.411c-0.096-1.141-0.181-2.283-0.252-3.423c-0.072-1.045-0.133-2.09-0.192-3.147
	c-0.036-0.54-0.06-1.081-0.072-1.633c-0.06-0.877-0.096-1.742-0.12-2.607c-0.131-3.28-0.192-6.583-0.192-9.899
	c0-3.375,0.06-6.727,0.204-10.067c0.036-1.033,0.072-2.066,0.133-3.111c0.06-1.345,0.145-2.691,0.228-4.025
	c0.048-0.745,0.108-1.49,0.157-2.223c0.06-0.805,0.133-1.609,0.204-2.414c0.048-0.6,0.096-1.214,0.157-1.826
	c0.06-0.661,0.12-1.321,0.192-1.994c0.24-2.402,0.505-4.782,0.805-7.16c0.133-0.997,0.264-1.982,0.409-2.98
	c0.145-1.069,0.3-2.126,0.469-3.183c0.156-1.057,0.324-2.114,0.505-3.171c0.12-0.781,0.252-1.562,0.397-2.342
	c0.781-4.48,1.682-8.926,2.703-13.31c0.228-1.033,0.481-2.066,0.733-3.087c0.252-1.033,0.505-2.054,0.769-3.075
	c0.216-0.865,0.445-1.73,0.685-2.595c0.181-0.697,0.372-1.381,0.564-2.078c0.216-0.817,0.457-1.633,0.697-2.451
	c0.781-2.727,1.609-5.442,2.487-8.133c0.312-0.961,0.636-1.923,0.961-2.871c0.336-0.997,0.673-1.982,1.021-2.968
	c0.312-0.888,0.624-1.778,0.949-2.667c0.733-2.018,1.49-4.013,2.271-5.994c0.024-0.048,0.036-0.096,0.06-0.145
	c0.385-0.961,0.769-1.934,1.166-2.895c0.769-1.874,1.562-3.749,2.366-5.61c0.312-0.709,0.624-1.405,0.937-2.102
	c0.312-0.721,0.649-1.442,0.985-2.162c0.228-0.516,0.469-1.033,0.709-1.538c0.433-0.937,0.877-1.874,1.321-2.799
	c0.385-0.805,0.781-1.597,1.178-2.39c3.484-7.064,7.291-13.935,11.413-20.615c0.457-0.745,0.913-1.49,1.381-2.223
	c0.493-0.793,0.997-1.574,1.502-2.354c7.052-10.932,14.908-21.299,23.498-31.006c6.788,16.338,15.148,31.823,24.903,46.263
	c15.077,22.32,33.481,42.13,54.492,58.696c25.276,19.93,54.335,35.138,85.881,44.34
	C230.078,235.001,230.126,234.953,229.549,235.674z"/>
<linearGradient id="SVGID_3_" gradientUnits="userSpaceOnUse" x1="182.4106" y1="328.5629" x2="107.4106" y2="224.8029" gradientTransform="matrix(1.0039 0 0 -1.0039 0.1922 516.5609)">
	<stop  offset="0" style="stop-color:#FFA981"/>
	<stop  offset="1" style="stop-color:#FF5C45"/>
</linearGradient>
<path style="fill:url(#SVGID_3_);" d="M17.697,162.274c0.024-0.048,0.036-0.096,0.06-0.145c0.385-0.961,0.769-1.934,1.166-2.895
	c0.769-1.874,1.562-3.749,2.366-5.61c0.312-0.709,0.624-1.405,0.937-2.102c0.312-0.721,0.649-1.442,0.985-2.162
	c0.228-0.516,0.469-1.033,0.709-1.538c0.433-0.937,0.877-1.874,1.321-2.799c0.385-0.805,0.781-1.597,1.178-2.39
	c3.484-7.064,7.291-13.935,11.413-20.615c0.457-0.745,0.913-1.49,1.381-2.223c0.493-0.793,0.997-1.574,1.502-2.354
	c7.052-10.932,14.908-21.299,23.498-31.006c6.788,16.338,15.148,31.823,24.903,46.263c15.077,22.32,33.481,42.13,54.492,58.696
	c25.276,19.93,54.335,35.138,85.881,44.34c0.588-0.733,1.19-1.478,1.79-2.211c-0.576,0.709-1.154,1.43-1.73,2.15
	c18.969,29.36,32.519,63.418,38.982,100.322C156.509,329.16,61.401,259.749,17.697,162.274L17.697,162.274z"/>
<linearGradient id="SVGID_4_" gradientUnits="userSpaceOnUse" x1="180.7028" y1="505.3289" x2="269.1927" y2="401.8349" gradientTransform="matrix(1.0039 0 0 -1.0039 0.1922 516.5609)">
	<stop  offset="0" style="stop-color:#EFFBFF"/>
	<stop  offset="0.272" style="stop-color:#EBF9FE"/>
	<stop  offset="0.518" style="stop-color:#E0F2FA"/>
	<stop  offset="0.754" style="stop-color:#CEE6F5"/>
	<stop  offset="0.983" style="stop-color:#B4D6ED"/>
	<stop  offset="1" style="stop-color:#B2D5EC"/>
</linearGradient>
<path style="fill:url(#SVGID_4_);" d="M484.455,140.361c-15.436-2.799-31.342-4.253-47.596-4.253
	c-83.888,0-158.694,38.887-207.371,99.625c-31.546-9.202-60.607-24.41-85.881-44.34c-21.011-16.566-39.415-36.376-54.492-58.696
	c-9.755-14.439-18.116-29.925-24.903-46.263C111.111,33.421,179.659,0,256.002,0c6.079,0,12.121,0.216,18.092,0.636
	c45.145,3.147,87.083,18.007,122.763,41.565C433.917,66.673,464.249,100.514,484.455,140.361z"/>
<linearGradient id="SVGID_5_" gradientUnits="userSpaceOnUse" x1="194.0687" y1="492.7215" x2="296.0687" y2="369.7314" gradientTransform="matrix(1.0039 0 0 -1.0039 0.1922 516.5609)">
	<stop  offset="0" style="stop-color:#00FFF4"/>
	<stop  offset="1" style="stop-color:#00DBFF"/>
</linearGradient>
<path style="fill:url(#SVGID_5_);" d="M484.455,140.361c-15.436-2.799-31.342-4.253-47.596-4.253
	c-83.888,0-158.694,38.887-207.371,99.625c-31.546-9.202-60.607-24.41-85.881-44.34c-21.011-16.566-39.415-36.376-54.492-58.696
	C126.104,63.622,193.87,13.491,274.094,0.636c45.145,3.147,87.083,18.007,122.763,41.565
	C433.917,66.673,464.249,100.514,484.455,140.361z"/>
<linearGradient id="SVGID_6_" gradientUnits="userSpaceOnUse" x1="264.8803" y1="428.9528" x2="342.3503" y2="300.8028" gradientTransform="matrix(1.0039 0 0 -1.0039 0.1922 516.5609)">
	<stop  offset="0" style="stop-color:#EFFBFF"/>
	<stop  offset="0.272" style="stop-color:#EBF9FE"/>
	<stop  offset="0.518" style="stop-color:#E0F2FA"/>
	<stop  offset="0.754" style="stop-color:#CEE6F5"/>
	<stop  offset="0.983" style="stop-color:#B4D6ED"/>
	<stop  offset="1" style="stop-color:#B2D5EC"/>
</linearGradient>
<path style="fill:url(#SVGID_6_);" d="M484.455,140.361c-15.436-2.799-31.342-4.253-47.596-4.253
	c-83.888,0-158.694,38.887-207.371,99.625c-31.546-9.202-60.607-24.41-85.881-44.34c43.055-88.549,133.875-149.575,238.965-149.575
	c4.794,0,9.55,0.133,14.284,0.384C433.917,66.673,464.249,100.514,484.455,140.361z"/>
<linearGradient id="SVGID_7_" gradientUnits="userSpaceOnUse" x1="358.9532" y1="198.0667" x2="513.0532" y2="262.7867" gradientTransform="matrix(1.0039 0 0 -1.0039 0.1922 516.5609)">
	<stop  offset="0" style="stop-color:#FF5C45"/>
	<stop  offset="0.231" style="stop-color:#FF6048"/>
	<stop  offset="0.457" style="stop-color:#FF6C51"/>
	<stop  offset="0.683" style="stop-color:#FF8061"/>
	<stop  offset="0.906" style="stop-color:#FF9B76"/>
	<stop  offset="1" style="stop-color:#FFA981"/>
</linearGradient>
<path style="fill:url(#SVGID_7_);" d="M512.002,256c0,61.075-21.384,117.165-57.098,161.157v0.012
	c-0.108,0.133-0.217,0.264-0.324,0.397c-0.817,0.997-1.633,1.994-2.463,2.98c-0.564,0.673-1.141,1.345-1.718,2.018
	c-0.276,0.324-0.541,0.636-0.829,0.961c-0.372,0.433-0.745,0.865-1.117,1.285c-0.661,0.757-1.321,1.502-1.994,2.259
	c-0.048,0.048-0.108,0.108-0.157,0.168c-0.901,0.997-1.814,1.994-2.727,2.98c-0.769,0.829-1.55,1.657-2.33,2.475
	c-0.493,0.516-0.997,1.033-1.49,1.538c-3.88,4.013-7.905,7.893-12.049,11.652c-0.805,0.721-1.621,1.454-2.439,2.174
	c-0.576,0.505-1.154,1.009-1.742,1.514c-0.997,0.877-1.994,1.73-3.003,2.571c-0.793,0.661-1.586,1.333-2.39,1.97
	c-0.564,0.481-1.129,0.937-1.706,1.393c-0.781,0.637-1.574,1.262-2.366,1.886c-1.117,0.888-2.247,1.754-3.388,2.619
	c-1.021,0.781-2.066,1.562-3.111,2.319c-1.057,0.793-2.126,1.562-3.208,2.331c-1.033,0.733-2.066,1.454-3.099,2.174
	c-0.709,0.481-1.418,0.973-2.126,1.442c-0.853,0.588-1.706,1.154-2.559,1.718c-1.081,0.709-2.162,1.418-3.256,2.102
	c-2.739,1.742-5.501,3.435-8.313,5.07c-0.937,0.552-1.886,1.105-2.835,1.645c-6.56,3.712-13.287,7.16-20.194,10.295
	c-1.141,0.528-2.295,1.045-3.46,1.55c-1.574,0.685-3.159,1.369-4.77,2.018c-1.273,0.54-2.571,1.057-3.868,1.574c0,0,0,0-0.012,0
	c-1.19,0.469-2.378,0.937-3.58,1.381c-0.445,0.168-0.901,0.336-1.345,0.505c-0.757,0.276-1.502,0.552-2.259,0.817
	c-0.385,0.145-0.769,0.276-1.154,0.409v0.012c-0.156,0.048-0.3,0.108-0.456,0.157c-1.85,0.649-3.7,1.285-5.575,1.898
	c-3.051,0.997-6.127,1.935-9.226,2.811c-0.853,0.252-1.718,0.493-2.583,0.721c-1.226,0.336-2.463,0.673-3.712,0.985
	c-1.021,0.264-2.042,0.516-3.075,0.769c-1.021,0.252-2.054,0.505-3.087,0.733c-1.033,0.24-2.066,0.469-3.099,0.697
	c-0.024,0.012-0.06,0.024-0.096,0.024c-1.009,0.216-2.018,0.433-3.028,0.637c-2.078,0.433-4.168,0.829-6.271,1.202
	c-1.045,0.192-2.102,0.372-3.159,0.54c-2.078,0.348-4.156,0.673-6.246,0.961c-0.036,0.012-0.072,0.012-0.108,0.012
	c-1.069,0.157-2.126,0.3-3.195,0.433s-2.138,0.264-3.208,0.385c-1.069,0.12-2.15,0.24-3.22,0.348
	c-3.568,0.36-7.172,0.649-10.788,0.865c-0.733,0.048-1.478,0.084-2.211,0.12c-1.093,0.06-2.187,0.108-3.28,0.144
	c-1.009,0.048-2.03,0.072-3.039,0.096c-1.178,0.036-2.366,0.06-3.556,0.072c-1.093,0.012-2.199,0.024-3.304,0.024
	c-2.138,0-4.253-0.024-6.367-0.084c-0.997-0.024-1.982-0.048-2.968-0.084c-1.129-0.036-2.247-0.084-3.376-0.145
	c18.813-37.204,29.54-80.211,29.54-126.018c0-56.029-16.05-107.854-43.283-149.996c18.728-23.353,41.325-43.488,66.817-59.417
	c25.997-16.229,55.008-28.087,86.002-34.55c17.588-3.676,35.811-5.598,54.492-5.598c16.253,0,32.16,1.454,47.596,4.253
	C502.079,175.092,512.002,214.386,512.002,256z"/>
<linearGradient id="SVGID_8_" gradientUnits="userSpaceOnUse" x1="228.4604" y1="188.9632" x2="466.8515" y2="188.9632" gradientTransform="matrix(1.0039 0 0 -1.0039 0.1922 516.5609)">
	<stop  offset="0" style="stop-color:#FCE0BA"/>
	<stop  offset="0.243" style="stop-color:#FCE2BE"/>
	<stop  offset="0.483" style="stop-color:#FDE7CA"/>
	<stop  offset="0.721" style="stop-color:#FEF0DE"/>
	<stop  offset="0.957" style="stop-color:#FFFCF9"/>
	<stop  offset="1" style="stop-color:#FFFFFF"/>
</linearGradient>
<path style="fill:url(#SVGID_8_);" d="M468.874,333.557c0,29.276-4.913,57.398-13.972,83.6v0.012
	c-0.108,0.133-0.217,0.264-0.324,0.397c-0.817,0.997-1.633,1.994-2.463,2.98c-0.564,0.673-1.141,1.345-1.718,2.018
	c-0.276,0.324-0.541,0.636-0.829,0.961c-0.372,0.433-0.745,0.865-1.117,1.285c-0.661,0.757-1.321,1.502-1.994,2.259
	c-0.048,0.048-0.108,0.108-0.157,0.168c-0.901,0.997-1.814,1.994-2.727,2.98c-0.769,0.829-1.55,1.657-2.33,2.475
	c-0.493,0.516-0.997,1.033-1.49,1.538c-3.88,4.013-7.905,7.893-12.049,11.652c-0.805,0.721-1.621,1.454-2.439,2.174
	c-0.576,0.505-1.154,1.009-1.742,1.514c-0.997,0.877-1.994,1.73-3.003,2.571c-0.793,0.661-1.586,1.333-2.39,1.97
	c-0.564,0.481-1.129,0.937-1.706,1.393c-0.781,0.637-1.574,1.262-2.366,1.886c-1.117,0.888-2.247,1.754-3.388,2.619
	c-1.021,0.781-2.066,1.562-3.111,2.319c-1.057,0.793-2.126,1.562-3.208,2.331c-1.033,0.733-2.066,1.454-3.099,2.174
	c-0.709,0.481-1.418,0.973-2.126,1.442c-0.853,0.588-1.706,1.154-2.559,1.718c-1.081,0.709-2.162,1.418-3.256,2.102
	c-2.739,1.742-5.501,3.435-8.313,5.07c-0.937,0.552-1.886,1.105-2.835,1.645c-6.56,3.712-13.287,7.16-20.194,10.295
	c-1.141,0.528-2.295,1.045-3.46,1.55c-1.574,0.685-3.159,1.369-4.77,2.018c-1.273,0.54-2.571,1.057-3.868,1.574c0,0,0,0-0.012,0
	c-1.19,0.469-2.378,0.937-3.58,1.381c-0.445,0.168-0.901,0.336-1.345,0.505c-0.757,0.276-1.502,0.552-2.259,0.817
	c-0.384,0.145-0.769,0.288-1.153,0.421c-0.156,0.048-0.3,0.108-0.456,0.157c-1.85,0.649-3.7,1.285-5.575,1.898
	c-3.051,0.997-6.127,1.935-9.226,2.811c-0.853,0.252-1.718,0.493-2.583,0.721c-1.226,0.336-2.463,0.673-3.712,0.985
	c-1.021,0.264-2.042,0.516-3.075,0.769c-1.021,0.252-2.054,0.505-3.087,0.733c-1.033,0.24-2.066,0.469-3.099,0.697
	c-0.024,0.012-0.06,0.024-0.096,0.024c-1.009,0.216-2.018,0.433-3.028,0.637c-2.078,0.433-4.168,0.829-6.271,1.202
	c-1.045,0.192-2.102,0.372-3.159,0.54c-2.078,0.348-4.156,0.673-6.246,0.961c-0.036,0.012-0.072,0.012-0.108,0.012
	c-1.069,0.157-2.126,0.3-3.195,0.433s-2.138,0.264-3.208,0.385c-1.069,0.12-2.15,0.24-3.22,0.348
	c-3.568,0.36-7.172,0.649-10.788,0.865c-0.733,0.048-1.478,0.084-2.211,0.12c-1.093,0.06-2.187,0.108-3.28,0.144
	c-1.009,0.048-2.03,0.072-3.039,0.096c-1.178,0.036-2.366,0.06-3.556,0.072c-1.093,0.012-2.199,0.024-3.304,0.024
	c-2.138,0-4.253-0.024-6.367-0.084c-0.997-0.024-1.982-0.048-2.968-0.084c-1.129-0.036-2.247-0.084-3.376-0.145
	c18.813-37.204,29.54-80.211,29.54-126.018c0-56.029-16.05-107.854-43.283-149.996c18.728-23.353,41.325-43.488,66.817-59.417
	c25.997-16.229,55.008-28.087,86.002-34.55C435.418,188.607,468.874,257.178,468.874,333.557z"/>
<linearGradient id="SVGID_9_" gradientUnits="userSpaceOnUse" x1="253.0271" y1="240.1016" x2="361.0271" y2="-34.3884" gradientTransform="matrix(1.0039 0 0 -1.0039 0.1922 516.5609)">
	<stop  offset="0" style="stop-color:#00FFF4"/>
	<stop  offset="1" style="stop-color:#00DBFF"/>
</linearGradient>
<path style="fill:url(#SVGID_9_);" d="M372.986,367.578c0,47.368-11.473,91.72-31.463,129.778v0.012
	c-0.156,0.048-0.3,0.108-0.456,0.157c-1.85,0.649-3.7,1.285-5.575,1.898c-3.051,0.997-6.127,1.935-9.226,2.811
	c-0.853,0.252-1.718,0.493-2.583,0.721c-1.226,0.336-2.463,0.673-3.712,0.985c-1.021,0.264-2.042,0.516-3.075,0.769
	c-1.021,0.252-2.054,0.505-3.087,0.733c-1.033,0.24-2.066,0.469-3.099,0.697c-0.024,0.012-0.06,0.024-0.096,0.024
	c-1.009,0.216-2.018,0.433-3.028,0.636c-2.078,0.433-4.168,0.829-6.271,1.202c-1.045,0.192-2.102,0.372-3.159,0.54
	c-2.078,0.348-4.156,0.673-6.246,0.961c-0.036,0.012-0.072,0.012-0.108,0.012c-1.069,0.157-2.126,0.3-3.195,0.433
	s-2.138,0.264-3.208,0.384c-1.069,0.12-2.15,0.24-3.22,0.348c-3.568,0.36-7.172,0.649-10.788,0.865
	c-0.733,0.048-1.478,0.084-2.211,0.12c-1.093,0.06-2.187,0.108-3.28,0.144c-1.009,0.048-2.03,0.072-3.039,0.096
	c-1.178,0.036-2.366,0.06-3.556,0.072c-1.093,0.012-2.199,0.024-3.304,0.024c-2.138,0-4.253-0.024-6.367-0.084
	c-0.997-0.024-1.982-0.048-2.968-0.084c-1.129-0.036-2.247-0.084-3.376-0.145c18.813-37.204,29.54-80.211,29.54-126.018
	c0-56.029-16.05-107.854-43.283-149.996c18.728-23.353,41.325-43.488,66.817-59.417
	C343.373,223.144,372.986,291.487,372.986,367.578z"/>
<linearGradient id="SVGID_10_" gradientUnits="userSpaceOnUse" x1="380.6835" y1="238.9915" x2="509.8105" y2="238.9915" gradientTransform="matrix(1.0039 0 0 -1.0039 0.1922 516.5609)">
	<stop  offset="0" style="stop-color:#00FFF4"/>
	<stop  offset="1" style="stop-color:#00DBFF"/>
</linearGradient>
<path style="fill:url(#SVGID_10_);" d="M512.002,256c0,1.105-0.012,2.211-0.024,3.304c-0.012,1.033-0.024,2.054-0.06,3.075
	c-0.048,2.283-0.133,4.541-0.252,6.8c-0.048,1.081-0.108,2.162-0.181,3.232c-0.324,5.034-0.781,10.007-1.393,14.956
	c-0.072,0.697-0.169,1.381-0.252,2.078c-0.108,0.781-0.216,1.574-0.324,2.354c-0.288,2.09-0.6,4.168-0.949,6.234
	c-0.3,1.814-0.624,3.64-0.961,5.442c-0.108,0.576-0.216,1.154-0.324,1.73c-0.156,0.793-0.312,1.586-0.48,2.378
	c-0.205,1.033-0.421,2.054-0.649,3.075c-0.228,1.045-0.457,2.102-0.709,3.147c-0.445,1.935-0.913,3.868-1.405,5.779
	c-0.469,1.838-0.961,3.676-1.466,5.514c-0.18,0.637-0.36,1.285-0.552,1.923c-1.069,3.724-2.223,7.424-3.472,11.076
	c-0.336,0.997-0.673,1.982-1.021,2.968c-0.252,0.721-0.505,1.442-0.769,2.162c-0.276,0.769-0.564,1.538-0.853,2.294
	c-0.937,2.535-1.922,5.046-2.944,7.544c-0.661,1.61-1.333,3.208-2.03,4.794c-0.397,0.913-0.793,1.826-1.202,2.727
	c-0.3,0.673-0.6,1.345-0.913,2.018c-0.24,0.528-0.481,1.045-0.733,1.573c-0.348,0.769-0.709,1.526-1.081,2.283
	c-1.514,3.171-3.099,6.307-4.746,9.407c-0.384,0.721-0.769,1.442-1.154,2.15c-0.757,1.393-1.514,2.763-2.295,4.132
	c-0.409,0.721-0.829,1.454-1.25,2.174c-3.256,5.61-6.727,11.088-10.392,16.422c-0.348,0.516-0.709,1.033-1.069,1.55
	c-1.526,2.187-3.075,4.337-4.673,6.475c-1.057,1.418-2.126,2.823-3.22,4.229c-0.433,0.564-0.877,1.129-1.321,1.694
	c-0.661,0.829-1.321,1.645-1.982,2.463c9.057-26.2,13.972-54.323,13.972-83.6c0-76.379-33.457-144.95-86.507-191.849
	c17.588-3.676,35.811-5.598,54.492-5.598c16.253,0,32.16,1.454,47.596,4.253c0.409,0.805,0.817,1.61,1.214,2.426
	c0.252,0.517,0.505,1.033,0.757,1.55c0.421,0.865,0.829,1.718,1.238,2.595c0.528,1.093,1.045,2.199,1.537,3.316
	c0.493,1.081,0.973,2.162,1.454,3.244c0.421,0.949,0.829,1.91,1.225,2.871c0.3,0.709,0.6,1.418,0.889,2.126
	c0.312,0.733,0.612,1.466,0.901,2.211c0.312,0.769,0.624,1.538,0.925,2.319c0.733,1.874,1.442,3.76,2.126,5.658
	c0.864,2.366,1.694,4.758,2.475,7.172c0.24,0.721,0.481,1.442,0.709,2.162c0.288,0.877,0.564,1.766,0.829,2.655
	c0.457,1.478,0.901,2.956,1.321,4.445c0.228,0.769,0.445,1.538,0.649,2.307c0.157,0.517,0.288,1.033,0.433,1.55
	c0.829,3.051,1.598,6.127,2.307,9.226c0.24,1.033,0.469,2.066,0.697,3.099c0.228,1.033,0.445,2.078,0.661,3.123
	c0.216,1.033,0.421,2.078,0.624,3.123c0.6,3.135,1.141,6.295,1.621,9.478c0.157,0.997,0.3,1.995,0.445,3.004
	c0.108,0.745,0.216,1.502,0.3,2.247c0.108,0.769,0.216,1.55,0.3,2.318c0.096,0.805,0.192,1.609,0.288,2.414
	c0.108,0.937,0.204,1.886,0.3,2.823c0.108,1.009,0.204,2.018,0.288,3.028c0.108,1.154,0.204,2.307,0.288,3.46
	c0.096,1.202,0.168,2.39,0.252,3.592c0.036,0.697,0.084,1.393,0.108,2.09c0.06,1.009,0.108,2.018,0.145,3.039
	c0.048,0.889,0.084,1.79,0.096,2.692c0.024,0.252,0.024,0.516,0.036,0.781c0.024,0.661,0.036,1.321,0.048,1.982
	c0.012,0.733,0.024,1.466,0.036,2.211C511.99,253.789,512.002,254.895,512.002,256z"/>
<linearGradient id="SVGID_11_" gradientUnits="userSpaceOnUse" x1="182.4106" y1="328.5629" x2="107.4106" y2="224.8029" gradientTransform="matrix(1.0039 0 0 -1.0039 0.1922 516.5609)">
	<stop  offset="0" style="stop-color:#00FFF4"/>
	<stop  offset="1" style="stop-color:#00DBFF"/>
</linearGradient>
<path style="fill:url(#SVGID_11_);" d="M17.697,162.274c0.024-0.048,0.036-0.096,0.06-0.145c0.385-0.961,0.769-1.934,1.166-2.895
	c0.769-1.874,1.562-3.749,2.366-5.61c0.312-0.709,0.624-1.405,0.937-2.102c0.312-0.721,0.649-1.442,0.985-2.162
	c0.228-0.516,0.469-1.033,0.709-1.538c0.433-0.937,0.877-1.874,1.321-2.799c0.385-0.805,0.781-1.597,1.178-2.39
	c3.484-7.064,7.291-13.935,11.413-20.615c0.457-0.745,0.913-1.49,1.381-2.223c0.493-0.793,0.997-1.574,1.502-2.354
	c7.052-10.932,14.908-21.299,23.498-31.006c6.788,16.338,15.148,31.823,24.903,46.263c15.077,22.32,33.481,42.13,54.492,58.696
	c25.276,19.93,54.335,35.138,85.881,44.34c0.588-0.733,1.19-1.478,1.79-2.211c-0.576,0.709-1.154,1.43-1.73,2.15
	c18.969,29.36,32.519,63.418,38.982,100.322C156.509,329.16,61.401,259.749,17.697,162.274L17.697,162.274z"/>
<linearGradient id="SVGID_12_" gradientUnits="userSpaceOnUse" x1="344.1995" y1="280.8326" x2="441.6895" y2="22.8426" gradientTransform="matrix(1.0039 0 0 -1.0039 0.1922 516.5609)">
	<stop  offset="0" style="stop-color:#EFFBFF"/>
	<stop  offset="0.272" style="stop-color:#EBF9FE"/>
	<stop  offset="0.518" style="stop-color:#E0F2FA"/>
	<stop  offset="0.754" style="stop-color:#CEE6F5"/>
	<stop  offset="0.983" style="stop-color:#B4D6ED"/>
	<stop  offset="1" style="stop-color:#B2D5EC"/>
</linearGradient>
<path style="fill:url(#SVGID_12_);" d="M382.368,141.707c-30.994,6.463-60.005,18.32-86.002,34.55
	c47.008,46.887,76.62,115.23,76.62,191.321c0,47.363-11.47,91.711-31.457,129.766c0.639-0.225,1.281-0.444,1.918-0.676
	c0.29-0.104,0.582-0.209,0.872-0.315c1.726-0.634,3.443-1.288,5.151-1.959c0.129-0.051,0.26-0.099,0.39-0.151
	c0.006,0,0.004,0,0.006,0c1.51-0.595,3.006-1.216,4.502-1.839c0.869-0.356,1.728-0.725,2.586-1.094
	c1.233-0.529,2.463-1.064,3.684-1.611c0.37-0.167,0.745-0.329,1.113-0.499c1.228-0.557,2.445-1.133,3.662-1.71
	c0.546-0.258,1.097-0.506,1.641-0.768c1.781-0.858,3.55-1.739,5.308-2.637c0.592-0.303,1.177-0.618,1.766-0.927
	c1.167-0.607,2.332-1.216,3.488-1.84c0.63-0.341,1.255-0.694,1.882-1.039c1.176-0.649,2.35-1.298,3.515-1.965
	c0.418-0.241,0.833-0.482,1.249-0.725c0.777-0.451,1.546-0.913,2.318-1.37c0.852-0.505,1.708-1.006,2.553-1.522
	c1.464-0.892,2.916-1.801,4.36-2.722c0.449-0.282,0.891-0.575,1.336-0.863c1.135-0.734,2.264-1.478,3.386-2.229
	c0.303-0.205,0.606-0.402,0.911-0.611c0.268-0.177,0.536-0.362,0.804-0.545c1.255-0.855,2.505-1.719,3.744-2.595
	c0.226-0.16,0.452-0.315,0.679-0.476c0.004-0.003,0.008-0.006,0.012-0.009c1.259-0.897,2.503-1.812,3.745-2.732
	c0.617-0.453,1.231-0.911,1.84-1.371c1.064-0.802,2.121-1.614,3.172-2.433c0.311-0.243,0.627-0.478,0.937-0.724
	c0.228-0.18,0.454-0.362,0.682-0.543c0.977-0.773,1.946-1.557,2.91-2.344c0.16-0.133,0.321-0.257,0.481-0.393
	c0.534-0.423,1.06-0.868,1.588-1.309c0.821-0.684,1.635-1.376,2.449-2.07c0.452-0.387,0.907-0.766,1.357-1.163
	c0.269-0.23,0.53-0.461,0.795-0.691c1.183-1.033,2.36-2.072,3.524-3.127c1.924-1.748,3.821-3.525,5.69-5.326
	c0.274-0.264,0.544-0.533,0.817-0.798c1.729-1.68,3.435-3.38,5.112-5.109c0.393-0.404,0.79-0.803,1.181-1.209
	c0.201-0.207,0.402-0.411,0.599-0.618c0.224-0.234,0.444-0.473,0.668-0.709c0.937-0.989,1.863-1.987,2.785-2.991
	c0.411-0.448,0.821-0.893,1.229-1.342c0.992-1.097,1.973-2.206,2.947-3.321c0.233-0.267,0.466-0.533,0.698-0.803
	c0.249-0.28,0.479-0.552,0.715-0.829c0.813-0.947,1.618-1.9,2.418-2.859c0.52-0.625,1.039-1.252,1.555-1.882
	c0.218-0.266,0.431-0.537,0.648-0.804c9.056-26.198,13.969-54.318,13.969-83.592C468.874,257.178,435.418,188.607,382.368,141.707z"
	/>
<linearGradient id="SVGID_13_" gradientUnits="userSpaceOnUse" x1="186.7312" y1="187.303" x2="198.7312" y2="8.813" gradientTransform="matrix(1.0039 0 0 -1.0039 0.1922 516.5609)">
	<stop  offset="0" style="stop-color:#B2D5EC;stop-opacity:0"/>
	<stop  offset="1" style="stop-color:#7797B0"/>
</linearGradient>
<path style="fill:url(#SVGID_13_);" d="M296.366,176.257c47.008,46.887,76.62,115.23,76.62,191.321
	c0,47.368-11.473,91.72-31.463,129.778v0.012c-0.156,0.048-0.3,0.108-0.457,0.157c-1.85,0.649-3.7,1.285-5.574,1.898
	c-1.285,0.421-2.571,0.829-3.856,1.214c-0.6,0.192-1.202,0.372-1.802,0.552c-1.19,0.36-2.378,0.709-3.568,1.045
	c-0.853,0.252-1.718,0.493-2.583,0.721c-0.324,0.084-0.649,0.18-0.973,0.264c-0.913,0.252-1.814,0.493-2.739,0.721
	c-1.021,0.264-2.042,0.516-3.075,0.769c-1.021,0.252-2.054,0.505-3.087,0.733c-1.033,0.24-2.066,0.469-3.099,0.697
	c-0.024,0.012-0.06,0.024-0.096,0.024c-1.009,0.216-2.018,0.433-3.028,0.636c-2.078,0.433-4.168,0.829-6.271,1.202
	c-1.045,0.192-2.102,0.372-3.159,0.54c-2.078,0.348-4.156,0.673-6.247,0.961c-0.036,0.012-0.072,0.012-0.108,0.012
	c-1.069,0.157-2.126,0.3-3.195,0.433s-2.138,0.264-3.208,0.384c-1.069,0.12-2.15,0.24-3.22,0.348c-1.79,0.181-3.58,0.336-5.37,0.481
	c-0.901,0.072-1.802,0.145-2.703,0.204c-0.841,0.06-1.67,0.12-2.511,0.169c-0.072,0-0.133,0.012-0.204,0.012
	c-0.733,0.048-1.478,0.084-2.211,0.12c-1.093,0.06-2.187,0.108-3.28,0.144c-0.876,0.036-1.754,0.072-2.631,0.084
	c-0.133,0-0.276,0.012-0.409,0.012c-1.178,0.036-2.366,0.06-3.556,0.072c-1.093,0.012-2.199,0.024-3.304,0.024
	c-2.138,0-4.253-0.024-6.367-0.084c-0.588-0.012-1.178-0.024-1.754-0.048c-0.409-0.012-0.805-0.024-1.214-0.036
	c-1.129-0.036-2.247-0.084-3.376-0.145c-1.97-0.096-3.94-0.216-5.898-0.36c-0.985-0.072-1.959-0.145-2.943-0.228
	c-0.864-0.072-1.73-0.145-2.595-0.228c-0.288-0.024-0.576-0.048-0.853-0.084c-0.805-0.072-1.598-0.156-2.39-0.24
	c-1.069-0.108-2.126-0.228-3.195-0.36c-0.865-0.096-1.742-0.204-2.619-0.324c-2.078-0.264-4.144-0.564-6.21-0.888
	c-0.914-0.133-1.826-0.276-2.739-0.433c-1.802-0.3-3.604-0.612-5.382-0.949c-0.949-0.18-1.898-0.36-2.835-0.552
	c-0.757-0.145-1.502-0.3-2.247-0.457c-1.742-0.36-3.472-0.745-5.189-1.141c-1.033-0.228-2.066-0.481-3.087-0.733
	c-0.793-0.192-1.586-0.384-2.378-0.588c-4.073-1.033-8.109-2.174-12.097-3.399c-0.902-0.276-1.802-0.553-2.715-0.853
	c-0.817-0.252-1.633-0.516-2.439-0.793c-8.181-2.703-16.169-5.815-23.955-9.298c-0.853-0.384-1.706-0.769-2.559-1.166
	c-10.331-4.758-20.278-10.175-29.804-16.217c-0.685-0.433-1.369-0.865-2.042-1.309c-1.43-0.925-2.847-1.862-4.241-2.811
	c-0.805-0.528-1.597-1.081-2.39-1.621c-2.595-1.79-5.141-3.628-7.652-5.514c-0.793-0.6-1.597-1.202-2.39-1.802
	c-0.829-0.636-1.657-1.285-2.487-1.934c-1.585-1.25-3.159-2.523-4.721-3.796c-0.817-0.673-1.622-1.345-2.426-2.03
	c-1.562-1.333-3.111-2.666-4.649-4.025c-1.526-1.357-3.039-2.739-4.541-4.132c-1.502-1.405-2.98-2.811-4.444-4.241
	c-1.466-1.43-2.919-2.883-4.349-4.349c-0.709-0.733-1.418-1.466-2.126-2.211c-0.624-0.649-1.249-1.309-1.874-1.982
	c-1.514-1.609-3.004-3.256-4.468-4.913c-1.166-1.309-2.307-2.631-3.447-3.965c-2.847-3.352-5.61-6.775-8.289-10.271
	c-0.588-0.769-1.178-1.55-1.754-2.319c-0.348-0.457-0.685-0.913-1.021-1.381c-0.336-0.433-0.661-0.877-0.973-1.321
	c-1.154-1.586-2.295-3.183-3.411-4.794c-0.576-0.841-1.166-1.694-1.73-2.547c-7.821-11.569-14.716-23.81-20.59-36.616
	c-0.288-0.636-0.576-1.273-0.865-1.923c-0.385-0.853-0.757-1.706-1.129-2.571c-2.102-4.818-4.061-9.719-5.862-14.692
	c-0.264-0.733-0.529-1.478-0.793-2.223c-0.565-1.597-1.117-3.208-1.645-4.829c-0.228-0.685-0.457-1.381-0.673-2.078
	c-0.288-0.901-0.576-1.802-0.853-2.703c-0.336-1.093-0.673-2.187-0.985-3.292c-0.661-2.223-1.285-4.456-1.874-6.715
	c-0.709-2.666-1.369-5.346-1.982-8.048c-0.204-0.865-0.397-1.742-0.588-2.619c-0.012-0.072-0.036-0.156-0.048-0.228
	c-0.181-0.781-0.348-1.574-0.505-2.366c-0.12-0.576-0.24-1.141-0.348-1.718c-0.193-0.949-0.372-1.898-0.552-2.835
	c-1.25-6.631-2.247-13.346-2.968-20.146c0-0.048-0.012-0.108-0.012-0.156c-0.12-1.081-0.228-2.162-0.324-3.244
	c-0.108-1.141-0.216-2.271-0.3-3.411c-0.096-1.141-0.181-2.282-0.252-3.423c-0.048-0.745-0.096-1.49-0.133-2.247
	c-0.024-0.3-0.048-0.6-0.06-0.901c-0.036-0.541-0.06-1.081-0.072-1.634c-0.012-0.169-0.024-0.336-0.024-0.505
	c-0.048-0.709-0.072-1.405-0.096-2.102c-0.084-2.187-0.145-4.385-0.169-6.595c-0.013-1.098-0.025-2.203-0.025-3.309
	c0-1.105,0.012-2.211,0.024-3.304c0.012-1.033,0.024-2.054,0.06-3.075v-0.372c0.024-0.709,0.048-1.418,0.072-2.126
	c0.012-0.397,0.036-0.793,0.048-1.19c0.036-1.033,0.072-2.066,0.133-3.111c0.06-1.345,0.145-2.691,0.228-4.025
	c0.048-0.745,0.108-1.49,0.157-2.223c0.06-0.805,0.133-1.61,0.204-2.414c0.048-0.6,0.096-1.214,0.156-1.826
	c0.06-0.661,0.12-1.321,0.192-1.994c0.12-1.202,0.24-2.402,0.385-3.592c0.133-1.19,0.264-2.378,0.421-3.568
	c0.133-0.997,0.264-1.982,0.409-2.98c0.145-1.069,0.3-2.126,0.469-3.183c0.156-1.057,0.324-2.114,0.505-3.171
	c0.12-0.781,0.252-1.562,0.397-2.342c0.193-1.117,0.397-2.235,0.612-3.352c0.157-0.841,0.312-1.67,0.493-2.499
	c0.481-2.499,1.021-4.998,1.597-7.46c0.228-1.033,0.481-2.066,0.733-3.087c0.252-1.033,0.505-2.054,0.769-3.075
	c0.216-0.864,0.445-1.73,0.685-2.595c0.181-0.697,0.372-1.381,0.564-2.078c0.216-0.817,0.457-1.633,0.697-2.451
	c0.372-1.309,0.757-2.607,1.166-3.916c0.012-0.084,0.048-0.169,0.072-0.252c0.397-1.285,0.793-2.571,1.214-3.856
	c0.012-0.036,0.024-0.072,0.036-0.108c0.312-0.961,0.636-1.923,0.961-2.871c0.336-0.997,0.673-1.982,1.021-2.968
	c0.312-0.888,0.624-1.778,0.949-2.667c0.733-2.018,1.49-4.013,2.271-5.994c0.024-0.048,0.036-0.096,0.06-0.145
	c0.385-0.961,0.769-1.934,1.166-2.895c0.769-1.874,1.562-3.749,2.366-5.61c0.312-0.709,0.624-1.405,0.937-2.102
	c0.312-0.721,0.649-1.442,0.985-2.162c0.228-0.516,0.469-1.033,0.709-1.538c0.433-0.937,0.876-1.874,1.321-2.799
	c0.385-0.805,0.781-1.597,1.178-2.39c0.433-0.877,0.876-1.766,1.321-2.643c0.445-0.877,0.901-1.742,1.357-2.619
	c0.433-0.829,0.877-1.67,1.321-2.499c0.985-1.838,1.994-3.664,3.039-5.478c0.445-0.781,0.889-1.55,1.345-2.331
	c0.493-0.852,0.997-1.694,1.502-2.535c0.505-0.841,1.009-1.682,1.526-2.511c0.457-0.745,0.914-1.49,1.381-2.223
	c0.493-0.793,0.997-1.574,1.502-2.354c0.793-1.225,1.586-2.439,2.402-3.652c0.205-0.312,0.409-0.612,0.612-0.913
	c0.793-1.19,1.609-2.354,2.426-3.532c0.925-1.321,1.874-2.643,2.823-3.964c1.009-1.369,2.018-2.727,3.052-4.084
	c0.925-1.225,1.874-2.451,2.835-3.664c1.069-1.369,2.162-2.727,3.28-4.072c0.949-1.166,1.91-2.307,2.883-3.447
	c1.045-1.238,2.114-2.463,3.183-3.676c6.788,16.338,15.148,31.823,24.903,46.263c15.077,22.32,33.481,42.13,54.492,58.696
	c25.276,19.93,54.335,35.138,85.881,44.34c0.588-0.733,1.19-1.478,1.79-2.211c-0.576,0.709-1.154,1.43-1.73,2.15
	C248.278,212.32,270.874,192.187,296.366,176.257z"/>
<g>
</g>
<g>
</g>
<g>
</g>
<g>
</g>
<g>
</g>
<g>
</g>
<g>
</g>
<g>
</g>
<g>
</g>
<g>
</g>
<g>
</g>
<g>
</g>
<g>
</g>
<g>
</g>
<g>
</g>
</svg>
