<svg id="Layer_1" enable-background="new 0 0 496 496" height="512" viewBox="0 0 496 496" width="512" xmlns="http://www.w3.org/2000/svg"><path d="m380.06 263.12c29.435 59.215-13.609 129.6-80.4 129.6h-214.86c-38.66 0-69.87-31.88-68.77-70.79 1.07-38.002 33.202-66.79 67.31-66.79 7.27-.16 12.89-6.45 12.07-13.68-6.789-60.251 53.141-112.887 115.82-93.36v-.01c15.91-37.09 52.76-63.08 95.67-63.09 56.847 0 103.795 46.338 104.1 103.52.15 29.19-11.72 55.61-30.94 74.6z" fill="#83f8fb"/><path d="m380.06 263.12c-17.122-34.465-54.489-54.607-93.6-48.89-7.55 1.12-14.77-3.37-17.33-10.56-16.273-45.679-57.9-55.156-57.9-55.58 25.399-59.212 98.646-82.118 153.59-45.36 55.132 37.18 61.734 114.452 15.24 160.39z" fill="#ffe773"/><path d="m384.878 274.84c2.151 6.513-6.658 10.863-10.621 5.264-22.18-31.34-60.722-49.281-101.377-43.323-8.85 1.32-17.31-3.95-20.31-12.38-12.546-35.187-42.782-60.81-78.771-67.896-6.685-1.316-6.399-11.053.37-11.835 42.14-4.872 81.126 20.164 94.962 59.002 2.56 7.19 9.78 11.68 17.33 10.56 43.875-6.415 84.917 19.719 98.417 60.608z" fill="#bbfbff"/><path d="m308.53 392.29s10.942.43-223.73.43c-47.485 0-79.828-46.833-65.47-89.9 9.944-29.831 37.867-47.68 64.01-47.68 7.27-.16 12.89-6.45 12.07-13.68-1.45-12.865.424-25.951 4.606-37.721 4.403-12.39 22.939-6.31 19.476 6.375-1.608 5.891-1.842 9.542-3.642 20.186-3.194 18.887 7.455 26.305 2.65 34.95-5.847 10.519-23.189 1.875-37.5 12.417-15.338 11.298-21.166 40.192-10 60.083 12.102 21.559 39.53 24.355 53.63 25.7 0 0 182.513.02 182.52.02 18.35 0 19.63 27 1.38 28.82z" fill="#6ff3fa"/><path d="m382.672 196.008c-16.897-42.218-56.181-72.906-101.627-78.49-15.947-1.959-17.538-24.404-2.06-28.715 66.559-18.538 133.001 32.312 132 101.94-.231 16.094-22.332 20.208-28.313 5.265z" fill="#ffec8f"/><path d="m306.924 69c-43.531 0-83.154 23.398-104.346 60.613-69.956-12.024-128.6 46.919-123.455 109.691-44.122 2.933-79.123 39.764-79.123 84.615 0 46.761 38.042 84.803 84.803 84.803h214.859c73.654 0 124.63-73.703 99.174-142.373 65.262-77.324 10.295-197.349-91.912-197.349zm0 32c69.486 0 111.288 76.999 74.511 135.057-23.527-28.687-60.146-43.088-97.188-37.667-9.003-25.442-27.333-46.062-50.585-58.248 16.15-24.19 43.458-39.142 73.262-39.142zm-7.261 275.723h-214.86c-29.115 0-52.803-23.688-52.803-52.804 0-32.896 29.982-58.054 62.672-51.885 11.03 2.082 20.725-7.571 18.706-18.603-1.045-5.707-2.516-15.573-2.516-19.64 0-40.653 33.073-73.726 73.726-73.726 35.548 0 66.033 25.32 72.488 60.205 1.745 9.432 11.356 15.225 20.513 12.358 47.472-14.862 95.799 20.748 95.799 70.369.001 40.652-33.073 73.726-73.725 73.726zm196.337-187.723c0 8.836-7.164 16-16 16h-18c-8.836 0-16-7.164-16-16s7.164-16 16-16h18c8.836 0 16 7.164 16 16zm-205.152-155v-18c0-8.836 7.164-16 16-16s16 7.164 16 16v18c0 8.836-7.164 16-16 16s-16-7.164-16-16zm149.719 21.325c6.249 6.248 6.249 16.379 0 22.627l-12.728 12.728c-3.124 3.124-7.219 4.686-11.313 4.686-14.125 0-21.424-17.204-11.313-27.314l12.728-12.728c6.247-6.247 16.378-6.247 22.626.001zm-267.394 22.735c-6.249-6.249-6.249-16.379 0-22.627 6.248-6.249 16.378-6.249 22.627 0l12.728 12.728c10.112 10.112 2.809 27.314-11.313 27.314-4.095 0-8.189-1.562-11.313-4.686zm-97.173 362.94v10c0 8.836-7.164 16-16 16s-16-7.164-16-16v-10c0-8.836 7.164-16 16-16s16 7.164 16 16zm70 0v39c0 8.836-7.164 16-16 16s-16-7.164-16-16v-39c0-8.836 7.164-16 16-16s16 7.164 16 16zm70 0v10c0 8.836-7.164 16-16 16s-16-7.164-16-16v-10c0-8.836 7.164-16 16-16s16 7.164 16 16zm70 0v39c0 8.836-7.164 16-16 16s-16-7.164-16-16v-39c0-8.836 7.164-16 16-16s16 7.164 16 16zm70 0v10c0 8.836-7.164 16-16 16s-16-7.164-16-16v-10c0-8.836 7.164-16 16-16s16 7.164 16 16z"/></svg>