<svg id="Layer_1" enable-background="new 0 0 496 496" height="512" viewBox="0 0 496 496" width="512" xmlns="http://www.w3.org/2000/svg"><circle cx="307" cy="189.681" fill="#ffe773" r="104"/><path d="m382.672 196.689c-16.897-42.218-56.181-72.906-101.627-78.49-15.947-1.959-17.538-24.404-2.06-28.715 66.559-18.538 133.001 32.312 132 101.94-.231 16.094-22.332 20.207-28.313 5.265z" fill="#ffec8f"/><path d="m496 189.319c0 8.836-7.163 16-16 16h-18c-8.837 0-16-7.164-16-16s7.163-16 16-16h18c8.837 0 16 7.164 16 16zm-189.152-139c8.837 0 16-7.164 16-16v-18c0-8.836-7.163-16-16-16s-16 7.164-16 16v18c0 8.837 7.163 16 16 16zm120.991 40.681 12.728-12.727c6.249-6.249 6.249-16.379 0-22.627-6.248-6.249-16.379-6.249-22.627 0l-12.728 12.727c-6.249 6.249-6.249 16.379 0 22.627 6.247 6.248 16.379 6.249 22.627 0zm-241.938.107c3.124 3.125 7.218 4.687 11.313 4.687 14.125 0 21.424-17.203 11.313-27.313l-12.728-12.728c-6.247-6.248-16.378-6.248-22.627 0-6.248 6.249-6.249 16.379 0 22.627zm-51.901 114.935h18c8.837 0 16-7.164 16-16s-7.163-16-16-16h-18c-8.837 0-16 7.164-16 16s7.163 16 16 16zm294.099 82.212c-6.247-6.248-16.378-6.248-22.627 0-6.248 6.249-6.249 16.379 0 22.627l12.728 12.728c6.248 6.249 16.378 6.249 22.627 0 6.248-6.249 6.249-16.379 0-22.627zm-1.099-98.573c0 66.168-53.832 120-120 120s-120-53.832-120-120 53.832-120 120-120 120 53.832 120 120zm-32 0c0-48.523-39.477-88-88-88s-88 39.477-88 88 39.477 88 88 88 88-39.477 88-88zm-236 165c0-23.159-18.841-42-42-42h-11c-8.837 0-16 7.164-16 16s7.163 16 16 16h11c5.514 0 10 4.486 10 10s-4.486 10-10 10h-101c-8.837 0-16 7.164-16 16s7.163 16 16 16h101c23.159 0 42-18.842 42-42zm68-42h-11c-8.837 0-16 7.164-16 16s7.163 16 16 16h11c5.514 0 10 4.486 10 10s-4.486 10-10 10h-31c-8.837 0-16 7.164-16 16s7.163 16 16 16h31c23.159 0 42-18.841 42-42s-18.841-42-42-42zm-30 99h-101c-8.837 0-16 7.164-16 16s7.163 16 16 16h101c5.514 0 10 4.486 10 10s-4.486 10-10 10h-11c-8.837 0-16 7.164-16 16s7.163 16 16 16h11c23.159 0 42-18.841 42-42s-18.841-42-42-42z"/></svg>