<svg id="Layer_1" enable-background="new 0 0 496.09 496.09" height="512" viewBox="0 0 496.09 496.09" width="512" xmlns="http://www.w3.org/2000/svg"><path d="m463.057 241.71c-16.07 28.22-40.97 50.75-70.94 63.83-1.3 48.42-40.96 87.27-89.7 87.27h-214.86c-38.66 0-69.87-31.88-68.77-70.79 1.02-36.21 30.49-65.72 66.7-66.78 9.067-.454 13.412-7.235 12.68-13.69-5.379-47.745 32.154-94.48 84.33-97.26l-.01-.13c11.923-78.238 83.708-136.216 166.15-127.14 15.49 1.73 23.38 19.26 14.7 32.2-45.817 68.207 3.043 159.521 82.38 161.79 15.43.59 24.98 17.28 17.34 30.7z" fill="#83f8fb"/><path d="m445.713 211.013c15.431.588 24.988 17.281 17.346 30.7-16.069 28.214-40.97 50.746-70.941 63.827 1.372-56.241-47.971-99.318-102.899-91.216-7.489 1.105-14.747-3.265-17.273-10.4-13.259-37.446-49.76-61.852-89.448-59.634l-.01-.13c11.994-78.713 84.298-136.247 166.152-127.136 15.487 1.724 23.378 19.253 14.694 32.192-45.274 67.46 1.655 158.721 82.379 161.797z" fill="#ffe773"/><path d="m463.017 241.78c-2.47 4.308-7.257 6.775-12.203 6.329-106.449-9.603-171.432-129.398-116.553-224.931 2.512-4.372 7.374-6.851 12.393-6.364 18.852 1.831 24.925 20.12 16.683 32.406-45.882 68.304 3.227 159.527 82.38 161.79 15.43.59 25.02 17.302 17.3 30.77z" fill="#ffec8f"/><path d="m387.635 274.93c2.15 6.513-6.658 10.863-10.621 5.264-22.18-31.34-60.722-49.281-101.377-43.323-8.85 1.32-17.31-3.95-20.31-12.38-12.546-35.187-42.782-60.81-78.771-67.896-6.685-1.316-6.399-11.053.37-11.835 42.437-4.906 81.229 20.453 94.962 59.002 2.56 7.19 9.78 11.68 17.33 10.56 43.722-6.393 84.878 19.601 98.417 60.608z" fill="#bbfbff"/><path d="m311.287 392.38s10.942.43-223.73.43c-47.485 0-79.828-46.833-65.47-89.9 9.944-29.831 37.867-47.68 64.01-47.68 7.27-.16 12.89-6.45 12.07-13.68-1.45-12.865.424-25.951 4.606-37.721 4.403-12.39 22.939-6.31 19.476 6.375-1.608 5.891-1.842 9.542-3.642 20.186-3.194 18.887 7.455 26.305 2.65 34.95-5.847 10.519-23.189 1.875-37.5 12.417-15.338 11.298-21.166 40.192-10 60.083 12.102 21.559 39.53 24.355 53.63 25.7 0 0 182.513.02 182.52.02 18.35 0 19.63 27 1.38 28.82z" fill="#6ff3fa"/><path d="m78.757 441.09v10c0 8.836-7.164 16-16 16s-16-7.164-16-16v-10c0-8.836 7.164-16 16-16s16 7.164 16 16zm54-16c-8.836 0-16 7.164-16 16v39c0 8.836 7.164 16 16 16s16-7.164 16-16v-39c0-8.836-7.164-16-16-16zm70 0c-8.836 0-16 7.164-16 16v10c0 8.836 7.164 16 16 16s16-7.164 16-16v-10c0-8.836-7.164-16-16-16zm70 0c-8.836 0-16 7.164-16 16v39c0 8.836 7.164 16 16 16s16-7.164 16-16v-39c0-8.836-7.164-16-16-16zm70 0c-8.836 0-16 7.164-16 16v10c0 8.836 7.164 16 16 16s16-7.164 16-16v-10c0-8.836-7.164-16-16-16zm149.982-213.44c-12.315 44.588-43.066 82.803-85.386 104.371-6.398 52.219-51.015 92.792-104.934 92.792h-214.859c-46.761 0-84.803-38.043-84.803-84.803 0-44.851 35.001-81.682 79.123-84.615-4.024-49.095 32.192-99.972 87.082-109.636 22.528-98.396 127.093-154.642 221.65-118.99 11.597 4.373 14.024 19.755 4.328 27.483-21.088 16.809-33.183 41.899-33.183 68.838 0 57.741 55.159 100.304 111.321 84.872 11.955-3.285 22.963 7.735 19.661 19.688zm-116.593 91.437c0-40.653-33.073-73.726-73.726-73.726-20.969 0-25.013 7.875-35.11 1.793-3.921-2.363-6.643-6.292-7.476-10.794-6.455-34.885-36.94-60.205-72.488-60.205-40.653 0-73.726 33.073-73.726 73.726 0 4.067 1.471 13.933 2.516 19.64 2.021 11.042-7.686 20.683-18.706 18.603-32.729-6.176-62.672 19.029-62.672 51.885 0 29.116 23.687 52.803 52.803 52.803h214.859c40.652.001 73.726-33.073 73.726-73.725zm76.547-76.032c-101.482 2.457-158.812-114.321-98.153-193.055-68.902-11.703-133.632 31.426-152.375 95.211 38.983 5.487 71.754 32.292 84.84 69.269 55.519-8.126 106.744 28.366 118.61 81.585 20.021-13.188 36.379-31.616 47.078-53.01z"/></svg>