<svg id="Layer_1" enable-background="new 0 0 496 496" height="512" viewBox="0 0 496 496" width="512" xmlns="http://www.w3.org/2000/svg"><circle cx="248" cy="248" fill="#c1fefa" r="96"/><path d="m464.49 305.657c-2.287-8.535-11.058-13.602-19.596-11.314l-57.803 15.488-31.091-17.951v-87.76l31.091-17.951c62.856 16.841 59.004 16.036 61.954 16.036 7.064 0 13.53-4.715 15.445-11.863 2.287-8.536-2.778-17.309-11.314-19.596l-26.892-7.205 30.634-17.687c7.652-4.418 10.274-14.204 5.856-21.856-4.419-7.653-14.205-10.273-21.856-5.856l-30.634 17.687 7.206-26.892c2.287-8.536-2.778-17.309-11.314-19.596-8.528-2.289-17.308 2.778-19.596 11.313l-15.488 57.802-31.092 17.952-76-43.878v-35.903l42.313-42.313c6.249-6.248 6.249-16.379 0-22.627-6.248-6.249-16.379-6.249-22.627 0l-19.686 19.686v-35.373c0-8.836-7.163-16-16-16s-16 7.164-16 16v35.373l-19.687-19.686c-6.248-6.249-16.379-6.249-22.627 0-6.249 6.248-6.249 16.379 0 22.627l42.314 42.313v35.903l-75.999 43.878-31.092-17.952-15.488-57.802c-2.287-8.534-11.057-13.602-19.596-11.313-8.536 2.287-13.602 11.06-11.314 19.596l7.206 26.892-30.634-17.687c-7.651-4.417-17.438-1.797-21.856 5.856-4.418 7.652-1.796 17.438 5.856 21.856l30.634 17.687-26.892 7.205c-8.536 2.287-13.602 11.061-11.314 19.596 2.288 8.538 11.063 13.6 19.596 11.314l57.803-15.488 31.09 17.952v87.76l-31.091 17.951-57.803-15.488c-8.533-2.285-17.31 2.779-19.596 11.314-2.287 8.536 2.778 17.309 11.314 19.596l26.892 7.205-30.634 17.687c-14.142 8.166-8.287 29.859 8.015 29.859 5.688 0 5.675-.812 38.619-19.833l-7.206 26.892c-2.722 10.159 4.945 20.145 15.465 20.145 7.064 0 13.529-4.715 15.445-11.863l15.488-57.802 31.092-17.952 76 43.879v35.903l-42.313 42.313c-6.249 6.248-6.249 16.379 0 22.627 6.248 6.249 16.379 6.249 22.627 0l19.686-19.686v35.373c0 8.836 7.163 16 16 16s16-7.164 16-16v-35.373l19.687 19.686c6.247 6.248 16.379 6.249 22.627 0 6.249-6.248 6.249-16.379 0-22.627l-42.314-42.313v-35.903l75.999-43.878 31.092 17.952 15.488 57.802c1.916 7.148 8.38 11.863 15.445 11.863 10.522 0 18.186-9.989 15.465-20.145l-7.206-26.892 30.634 17.687c7.649 4.416 17.436 1.8 21.856-5.856 4.418-7.652 1.796-17.438-5.856-21.856l-30.634-17.687 26.892-7.205c8.537-2.289 13.602-11.062 11.315-19.598zm-140.49-32.253-44-25.404 44-25.404zm-16.001-78.521-43.999 25.404v-50.807zm-75.999-25.403v50.806l-43.999-25.404zm-60 53.116 44 25.404-44 25.404zm16.001 78.521 43.999-25.404v50.806zm75.999 25.403v-50.806l43.999 25.404z"/></svg>