<svg id="Layer_1" enable-background="new 0 0 496.023 496.023" height="512" viewBox="0 0 496.023 496.023" width="512" xmlns="http://www.w3.org/2000/svg"><path d="m439.513 196.296-160.99 170.98c-.817-.752-116.681-106.75-117.5-107.5l-104 114v106h382.5c.538-304.868.752-282.762-.01-283.48z" fill="#d9fffd"/><path d="m11.454 21.195 16.249-16.258c6.246-6.25 16.386-6.252 22.635 0l16.25 16.26c15.269 15.251 15.243 39.935.02 55.141-15.382 15.417-40.11 15.098-55.147.025-15.262-15.228-15.268-39.933-.007-55.168z" fill="#bafbfe"/><path d="m87.703 114.937c6.246-6.25 16.386-6.252 22.635 0l16.25 16.26c24.691 24.661 6.838 66.58-27.567 66.58-34.344 0-52.299-41.891-27.566-66.581z" fill="#bafbfe"/><path d="m141.454 51.195 16.249-16.259c6.246-6.25 16.386-6.252 22.635 0l16.25 16.26c24.433 24.404 7.211 66.58-27.567 66.58-34.345 0-52.3-41.891-27.567-66.581z" fill="#bafbfe"/><g fill="#d9fffd"><path d="m1.862 36.881c-1.963 6.145 6.593 10.006 9.927 4.484 1.895-3.139 4.187-6.071 6.851-8.728 20.558-20.569 20.053-20.42 23.196-22.138 4.824-2.636 3.088-10.252-2.816-10.252-4.25 0-8.32 1.69-11.32 4.69-16.984 16.995-22.279 20.802-25.838 31.944z"/><path d="m61.862 146.88c-1.963 6.145 6.593 10.006 9.927 4.484 1.895-3.139 4.187-6.071 6.851-8.728 20.558-20.569 20.053-20.42 23.196-22.138 4.824-2.636 3.088-10.252-2.816-10.252-4.25 0-8.32 1.69-11.32 4.69-16.984 16.995-22.279 20.803-25.838 31.944z"/><path d="m131.87 66.88c-1.963 6.145 6.593 10.006 9.927 4.484 3.671-6.08 5.391-7.268 25.791-27.678 1.266-1.266 2.701-2.338 4.256-3.188 4.824-2.636 3.088-10.252-2.816-10.252-4.25 0-8.32 1.69-11.32 4.69-16.984 16.995-22.279 20.803-25.838 31.944z"/></g><path d="m496.023 479.776c0 8.837-7.164 16-16 16-10.56 0-454.311 0-464 0-8.836 0-16-7.163-16-16s7.164-16 16-16h25v-9c0-8.837 7.164-16 16-16s16 7.163 16 16v9h72v-9c0-8.837 7.164-16 16-16s16 7.163 16 16v9h85v-9c0-8.837 7.164-16 16-16s16 7.163 16 16v9h129.528l.016-9.028c.016-8.826 7.176-15.972 16-15.972 8.849 0 16.016 7.181 16 16.028l-.016 8.972h24.472c8.836 0 16 7.163 16 16zm-56.263-134.2c-8.831-.016-16.013 7.129-16.028 15.972l-.083 46.6c-.016 8.837 7.135 16.013 15.972 16.028 8.92 0 16.013-7.2 16.028-15.972l.083-46.6c.015-8.836-7.136-16.012-15.972-16.028zm16.136-77.172c.016-8.837-7.135-16.013-15.972-16.028-8.831-.016-16.013 7.129-16.028 15.972l-.083 46.6c-.016 8.837 7.135 16.013 15.972 16.028 8.92 0 16.013-7.2 16.028-15.972zm-305.317-20.732c-1.567 1.35-106.462 115.763-108.168 119.604-1.87 4.193-1.388 4.984-1.388 31.5 0 8.837 7.164 16 16 16s16-7.163 16-16v-18.798l76.608-83.974c7.085 7.188 19.035 6.141 24.707-2.36l87.685 80.223v17.91c0 8.837 7.164 16 16 16s16-7.163 16-16v-17.622l133.745-142.053c9.688 11.445 28.185 4.448 28.211-10.297l.044-25c.025-14.014-17.747-22.545-28.149-11.496l-150.188 159.515-105.863-96.853c-5.832-5.342-14.996-5.695-21.244-.299zm10.444 77.77c-8.836 0-16 7.163-16 16v56.667c0 8.837 7.164 16 16 16s16-7.163 16-16v-56.667c0-8.837-7.164-16-16-16zm-149.578-304.243 16.264-16.263c6.248-6.248 16.379-6.248 22.627 0l16.264 16.263c24.521 24.523 7.001 66.559-27.578 66.559-34.576 0-52.1-42.034-27.577-66.559zm22.628 32.528c2.729 2.729 7.17 2.729 9.899-.001 2.729-2.729 2.729-7.17 0-9.899l-4.95-4.95-4.95 4.95c-2.728 2.729-2.728 7.17.001 9.9zm37.372 77.472 16.264-16.264c6.248-6.248 16.379-6.248 22.627 0l16.264 16.264c15.205 15.206 15.205 39.948 0 55.154-15.207 15.205-39.946 15.206-55.154.001-15.206-15.207-15.206-39.949-.001-55.155zm22.628 32.528c2.729 2.729 7.171 2.729 9.899-.001 2.729-2.729 2.729-7.17 0-9.899l-4.95-4.95-4.95 4.95c-2.728 2.729-2.728 7.17.001 9.9zm47.372-112.528 16.264-16.264c6.248-6.248 16.379-6.248 22.627 0l16.264 16.264c24.521 24.523 7.001 66.559-27.578 66.559-34.576 0-52.1-42.034-27.577-66.559zm22.628 32.528c2.729 2.729 7.17 2.729 9.899-.001 2.729-2.729 2.729-7.17 0-9.899l-4.95-4.95-4.95 4.95c-2.728 2.729-2.728 7.17.001 9.9z"/></svg>