<svg id="Layer_1" enable-background="new 0 0 496 496" height="512" viewBox="0 0 496 496" width="512" xmlns="http://www.w3.org/2000/svg"><path d="m439.49 196.487-160.99 170.98c-.817-.752-116.681-106.75-117.5-107.5l-104 114v106h382.5c.539-304.868.752-282.763-.01-283.48z" fill="#d9fffd"/><path d="m255.572 118.398c0 31.795-25.775 57.57-57.57 57.57h-137.857c-24.38-.001-44.145-19.765-44.145-44.146 0-27.608 25.127-48.542 52.381-43.376 0 0-1.781-9.738-1.781-14.452 0-31.795 25.775-57.57 57.57-57.57 28.196 0 51.653 20.266 56.604 47.026 37.08-11.609 74.798 16.136 74.798 54.948z" fill="#83f8fb"/><path d="m252.678 99.927c1.38 4.178-4.271 6.968-6.813 3.377-14.229-20.104-38.954-31.614-65.034-27.792-5.677.847-11.104-2.534-13.029-7.942-8.048-22.573-27.445-39.01-50.532-43.556-4.289-.844-4.105-7.09.237-7.592 27.033-3.125 52.043 12.936 60.918 37.85 1.642 4.612 6.274 7.493 11.117 6.774 28.147-4.115 54.475 12.65 63.136 38.881z" fill="#bbfbff"/><path d="m496 479.967c0 8.837-7.163 16-16 16-10.56 0-454.311 0-464 0-8.837 0-16-7.163-16-16s7.163-16 16-16h25v-9c0-8.837 7.163-16 16-16s16 7.163 16 16v9h72v-9c0-8.837 7.163-16 16-16s16 7.163 16 16v9h85v-9c0-8.837 7.163-16 16-16s16 7.163 16 16v9h129.528l.016-9.028c.016-8.826 7.176-15.972 15.999-15.972 8.849 0 16.017 7.181 16.001 16.028l-.016 8.972h24.472c8.837 0 16 7.163 16 16zm-40.127-211.372c.016-8.837-7.136-16.013-15.972-16.028-8.826-.016-16.013 7.124-16.028 15.972l-.082 46.6c-.016 8.837 7.136 16.013 15.972 16.028 8.92 0 16.013-7.199 16.028-15.972zm-16.137 77.172c-8.826-.016-16.013 7.124-16.028 15.972l-.082 46.6c-.016 8.837 7.136 16.013 15.972 16.028 8.92 0 16.013-7.199 16.028-15.972l.082-46.6c.016-8.837-7.136-16.012-15.972-16.028zm-289.18-97.904c-1.001.864-106.356 115.538-108.166 119.6-1.856 4.168-1.39 4.822-1.39 31.504 0 8.837 7.163 16 16 16s16-7.163 16-16v-18.798l76.608-83.974c7.085 7.188 19.035 6.14 24.708-2.36l87.684 80.222v17.91c0 8.837 7.163 16 16 16s16-7.163 16-16v-17.622l133.746-142.053c9.611 11.354 28.184 4.519 28.21-10.297l.044-25c.024-13.879-17.647-22.65-28.149-11.496l-150.188 159.516-105.863-96.852c-5.826-5.313-14.939-5.742-21.244-.3zm10.444 77.77c-8.837 0-16 7.163-16 16v56.667c0 8.837 7.163 16 16 16s16-7.163 16-16v-56.667c0-8.837-7.163-16-16-16zm-161-193.92c0-29.987 22.02-54.929 50.739-59.504.821-39.938 33.564-72.177 73.695-72.177 30.037 0 56.461 18.096 67.821 44.771 43.091-3.605 79.905 30.496 79.905 73.453 0 40.645-33.066 73.711-73.711 73.711h-138.195c-33.224 0-60.254-27.03-60.254-60.254zm32 0c0 15.579 12.675 28.254 28.254 28.254h138.196c22.999 0 41.711-18.712 41.711-41.711 0-28.026-27.299-48.235-54.202-39.813-9.148 2.867-18.766-2.917-20.515-12.357-3.65-19.731-20.897-34.053-41.01-34.053-22.999 0-41.711 18.711-41.711 41.711 0 1.944.789 7.571 1.525 11.607 2.018 11.057-7.708 20.674-18.701 18.601-17.527-3.308-33.547 10.181-33.547 27.761z"/></svg>