<svg id="Layer_1" enable-background="new 0 0 496 496" height="512" viewBox="0 0 496 496" width="512" xmlns="http://www.w3.org/2000/svg"><path d="m479.999 224.056c-.213 61.624-51.085 111.106-112.71 111.106h-264.716c-47.144 0-86.221-37.708-86.571-84.851-.353-47.518 38.061-86.149 85.498-86.149 8.454.008 14.384-7.22 13.419-14.989-7.894-63.55 43.131-123.011 110.581-123.011 49.516 0 91.484 32.269 106.032 76.925 2.439 7.486 10.046 12.061 17.804 10.717 68.7-11.904 130.902 41.156 130.663 110.252z" fill="#83f8fb"/><path d="m474.394 188.888c2.672 8.093-8.273 13.496-13.196 6.54-27.558-38.938-75.445-61.23-125.957-53.827-10.996 1.64-21.507-4.908-25.234-15.382-15.588-43.719-53.155-75.554-97.87-84.358-8.306-1.635-7.95-13.733.459-14.705 52.726-6.096 100.923 25.412 117.986 73.307 3.181 8.933 12.151 14.512 21.532 13.12 54.323-7.94 105.458 24.356 122.28 75.305z" fill="#bbfbff"/><path d="m379.535 334.815c-7.14.757 7.137.534-277.975.534-58.998 0-99.183-58.188-81.344-111.697 12.355-37.064 47.048-59.24 79.53-59.24 9.033-.199 16.015-8.014 14.996-16.997-1.801-15.984.526-32.243 5.723-46.866 5.471-15.394 28.501-7.84 24.199 7.92-1.998 7.319-2.289 11.855-4.525 25.08-3.969 23.467 9.262 32.683 3.292 43.424-7.265 13.07-28.811 2.329-46.592 15.427-19.057 14.037-26.297 49.937-12.425 74.651 15.036 26.786 49.115 30.261 66.633 31.931 0 0 226.768.025 226.773.025 22.799 0 24.39 33.547 1.715 35.808z" fill="#6ff3fa"/><path d="m100.051 457.936-6.109 16.078c-2.368 6.231-8.335 10.317-14.957 10.317-3.802 0-4.405-.557-21.762-7.153-8.26-3.139-12.412-12.379-9.273-20.64l6.109-16.078c3.137-8.254 12.381-12.413 20.641-9.273l16.078 6.11c8.259 3.139 12.411 12.379 9.273 20.639zm84.549-21.298h-17.2c-8.837 0-16 7.163-16 16v17.2c0 8.837 7.163 16 16 16h17.2c8.837 0 16-7.163 16-16v-17.2c0-8.837-7.163-16-16-16zm106.404.851c-4.419-7.654-14.205-10.273-21.856-5.856-15.106 8.721-20.194 10.268-22.351 18.315-2.159 8.063 1.496 11.964 10.199 27.037 4.419 7.654 14.205 10.273 21.856 5.856 15.106-8.721 20.194-10.268 22.351-18.315 2.158-8.059-1.494-11.96-10.199-27.037zm82.596-6.851h-17.2c-8.837 0-16 7.163-16 16v17.2c0 8.837 7.163 16 16 16h17.2c8.837 0 16-7.163 16-16v-17.2c0-8.837-7.163-16-16-16zm-262.979-62.041c-8.043-3.656-17.531-.1-21.187 7.945l-10 22c-3.657 8.044-.1 17.53 7.944 21.187 8.047 3.658 17.532.097 21.187-7.945l10-22c3.658-8.045.1-17.531-7.944-21.187zm100 0c-8.044-3.656-17.531-.1-21.187 7.945l-10 22c-3.657 8.044-.1 17.53 7.944 21.187 8.047 3.658 17.532.097 21.187-7.945l10-22c3.658-8.045.1-17.531-7.944-21.187zm100-2c-8.043-3.656-17.53-.1-21.187 7.945l-10 22c-4.839 10.644 3.024 22.625 14.556 22.625 6.081 0 11.896-3.486 14.575-9.383l10-22c3.658-8.045.1-17.531-7.944-21.187zm90 0c-8.043-3.656-17.53-.1-21.187 7.945l-10 22c-3.657 8.044-.1 17.53 7.944 21.187 8.047 3.658 17.532.097 21.187-7.945l10-22c3.658-8.045.1-17.531-7.944-21.187zm95.379-142.935c0 70.304-57.196 127.5-127.5 127.5h-267c-55.968 0-101.5-45.532-101.5-101.5 0-55.031 44.021-99.974 98.7-101.462-7.621-70.026 49.724-138.038 126.8-138.038 55.784 0 104.362 36.073 121.22 87.857 78.407-13.508 149.28 47.15 149.28 125.643zm-32 0c0-52.659-42.841-95.5-95.5-95.5-26.571 0-30.842 9.283-41.627 2.785-3.922-2.363-6.644-6.292-7.477-10.794-8.361-45.191-47.851-77.991-93.896-77.991-52.659 0-95.5 42.841-95.5 95.5 0 5.595 1.956 18.367 3.189 25.104 2.02 11.038-7.677 20.682-18.705 18.604-43.075-8.127-82.484 25.047-82.484 68.292 0 38.323 31.178 69.5 69.5 69.5h267c52.659 0 95.5-42.841 95.5-95.5z"/></svg>