<svg id="Layer_1" enable-background="new 0 0 496 496" height="512" viewBox="0 0 496 496" width="512" xmlns="http://www.w3.org/2000/svg"><path d="m403.598 135.354c-6.866-.798-150.898-17.546-157.848-18.354v2c0-7.46-3.02-14.2-7.91-19.09-16.297-16.297-44.351-5.867-46.01 17.1-.119 1.289-.08-4.564-.08 97.99 0 14.855 12.041 27 27 27 14.91 0 27-12.09 27-27v2c6.95-.808 150.982-17.556 157.848-18.354 8.067-.938 14.152-7.771 14.152-15.893v-31.505c0-8.122-6.085-14.956-14.152-15.894z" fill="#ffb6b4"/><path d="m245.75 119v96c0 14.91-12.09 27-27 27-14.24 0-25.91-11.03-26.92-25.01-.122-1.322-.132-98.553 0-99.98 1.661-22.989 29.73-33.38 46.01-17.1 4.89 4.89 7.91 11.63 7.91 19.09z" fill="#c1fefa"/><path d="m417.75 151.25v31.5c0 8.12-6.08 14.96-14.15 15.9-87.963 10.223-53.446 6.21-157.85 18.35v-6.063c0-2.74 2.053-5.046 4.775-5.363 88.631-10.308 55.97-6.511 145.575-16.925 8.07-.94 14.15-7.78 14.15-15.9 0-34.542.164-32.825-.47-35.34 4.8 2.791 7.97 7.981 7.97 13.841z" fill="#fe929f"/><path d="m417.75 151.247v31.505c0 8.122-6.085 14.955-14.152 15.893l-71.848 8.355v-80l71.848 8.354c8.067.938 14.152 7.772 14.152 15.893z" fill="#ffec8f"/><path d="m417.75 182.75c0 8.12-6.08 14.96-14.15 15.9l-71.85 8.35v-10.87l64.35-7.48c8.07-.94 14.15-7.78 14.15-15.9 0-10.189.014-17.223.018-22.142.004-4.758 7.167-5.078 7.453-.329.047.792.029-1.12.029 32.471z" fill="#ffe773"/><path d="m228.584 93.735c4.81 1.837 4.35 8.764-.675 9.888-11.806 2.64-21.159 13.156-21.159 26.378 0 102.548-.039 96.701.08 97.99.388 5.45-6.05 7.777-9.189 3.839-3.706-4.649-5.891-10.523-5.891-16.829 0-102.548-.039-96.701.08-97.99 1.402-19.403 21.167-29.23 36.754-23.276z" fill="#d9fffd"/><path d="m419.598 121.107c-6.874-.799-153.886-17.894-161.199-18.744-13.883-32.963-59.659-35.64-77.198-4.282l-58.45-13.753v-16.092c11.842-5.902 20-18.131 20-32.236 0-19.851-16.149-36-36-36s-36 16.149-36 36c0 14.105 8.158 26.334 20 32.236v395.764h-12.5c-8.836 0-16 7.163-16 16s7.164 16 16 16h56c8.836 0 16-7.163 16-16s-7.164-16-16-16h-11.5v-214.328l58.45-13.753c17.532 31.345 63.309 28.695 77.198-4.282 7.333-.853 154.34-17.947 161.199-18.744 8.067-.938 14.152-7.771 14.152-15.893v-60c0-8.122-6.085-14.955-14.152-15.893zm-296.848-3.906 53 12.471v74.656l-53 12.471zm96 108.799c-6.065 0-11-4.935-11-11v-96c0-6.065 4.935-11 11-11s11 4.935 11 11v96c0 6.065-4.935 11-11 11zm43-91.031 54 6.279v51.505l-54 6.279zm140 47.784-54 6.279v-44.063l54 6.279z"/></svg>