<svg id="Layer_1" enable-background="new 0 0 496 496" height="512" viewBox="0 0 496 496" width="512" xmlns="http://www.w3.org/2000/svg"><path d="m479.999 224.056c-.213 61.624-51.085 111.106-112.71 111.106h-264.716c-47.144 0-86.221-37.708-86.571-84.851-.353-47.518 38.061-86.149 85.498-86.149 8.454.008 14.384-7.22 13.419-14.989-7.894-63.55 43.131-123.01 110.581-123.01 49.516 0 91.484 32.269 106.032 76.925 2.439 7.486 10.046 12.061 17.804 10.717 68.7-11.905 130.902 41.155 130.663 110.251z" fill="#83f8fb"/><path d="m474.394 188.888c2.672 8.093-8.273 13.496-13.196 6.54-27.558-38.938-75.445-61.23-125.957-53.827-10.996 1.64-21.507-4.908-25.234-15.382-15.588-43.719-53.155-75.554-97.87-84.358-8.306-1.635-7.95-13.733.459-14.705 52.357-6.053 100.796 25.053 117.986 73.307 3.181 8.933 12.151 14.512 21.532 13.12 54.514-7.968 105.507 24.502 122.28 75.305z" fill="#bbfbff"/><path d="m379.535 334.815s13.593.534-277.975.534c-58.998 0-99.183-58.188-81.344-111.697 12.355-37.064 47.048-59.24 79.53-59.24 9.033-.199 16.015-8.014 14.996-16.997-1.801-15.984.526-32.243 5.723-46.866 5.471-15.394 28.501-7.84 24.199 7.92-1.998 7.319-2.289 11.855-4.525 25.08-3.969 23.467 9.262 32.683 3.292 43.424-7.265 13.07-28.811 2.329-46.592 15.427-19.057 14.037-26.297 49.937-12.425 74.651 15.036 26.786 49.115 30.261 66.633 31.931 0 0 226.768.025 226.773.025 22.799 0 24.39 33.547 1.715 35.808z" fill="#6ff3fa"/><path d="m295.305 444.937c6.781 11.751 2.741 26.823-9.005 33.604-11.746 6.782-26.821 2.744-33.604-9.003-6.781-11.75-2.741-26.823 9.005-33.605 11.745-6.781 26.821-2.742 33.604 9.004zm-119.305-8.3c-13.564 0-24.6 11.036-24.6 24.601s11.035 24.6 24.6 24.6 24.6-11.035 24.6-24.6-11.036-24.601-24.6-24.601zm34.621-68.04c-8.044-3.657-17.531-.1-21.187 7.944l-10 22c-3.657 8.045-.1 17.53 7.944 21.187 8.043 3.658 17.531.099 21.187-7.944l10-22c3.658-8.045.1-17.531-7.944-21.187zm-100 0c-8.044-3.657-17.53-.1-21.187 7.944l-10 22c-3.657 8.045-.1 17.53 7.944 21.187 8.043 3.658 17.531.099 21.187-7.944l10-22c3.658-8.045.1-17.531-7.944-21.187zm-59.616 79.902c-4.831 12.709 1.545 26.904 14.257 31.734 20.255 7.701 40.21-12.974 31.178-33.076-8.893-19.795-37.618-19.229-45.435 1.342zm444.995-224.836c0 70.304-57.196 127.5-127.5 127.5h-267c-55.968 0-101.5-45.533-101.5-101.5 0-55.031 44.021-99.974 98.7-101.462-7.616-69.982 49.688-138.038 126.8-138.038 55.784 0 104.362 36.073 121.22 87.856 78.409-13.506 149.28 47.15 149.28 125.644zm-32 0c0-64.368-62.68-110.382-124.09-91.15-9.154 2.864-18.768-2.922-20.514-12.358-8.361-45.191-47.851-77.991-93.896-77.991-52.659 0-95.5 42.841-95.5 95.5 0 5.576 1.957 18.358 3.19 25.106 2.02 11.06-7.71 20.681-18.707 18.602-43.062-8.134-82.483 25.045-82.483 68.291 0 38.322 31.178 69.5 69.5 69.5h267c52.659 0 95.5-42.841 95.5-95.5zm-63.379 142.934c-8.043-3.658-17.531-.1-21.187 7.944l-10 22c-3.657 8.045-.1 17.53 7.944 21.187 8.043 3.658 17.531.099 21.187-7.944l10-22c3.658-8.045.1-17.531-7.944-21.187zm-35.621 64.04c-13.564 0-24.6 11.036-24.6 24.601s11.035 24.6 24.6 24.6 24.6-11.035 24.6-24.6-11.036-24.601-24.6-24.601zm-54.379-64.04c-8.043-3.658-17.531-.1-21.187 7.944l-10 22c-3.657 8.045-.1 17.53 7.944 21.187 8.043 3.658 17.531.099 21.187-7.944l10-22c3.658-8.045.1-17.531-7.944-21.187z"/></svg>