<svg id="Layer_1" enable-background="new 0 0 496.075 496.075" height="512" viewBox="0 0 496.075 496.075" width="512" xmlns="http://www.w3.org/2000/svg"><path d="m462.74 241.852c-16 28.09-41.22 50.76-71.03 63.86-1.42 48.24-40.98 86.91-89.57 86.91h-214.58c-38.6 0-69.77-31.84-68.67-70.7 1.056-37.789 32.979-66.7 67.22-66.7 7.26-.16 12.87-6.44 12.05-13.66-5.351-47.486 31.893-94.202 83.99-97.12 12.051-78.486 84.242-136.45 166.17-127.28 15.49 1.72 23.38 19.25 14.7 32.19-43.907 65.403-1.752 157.003 82.37 161.8 15.43.58 24.99 17.28 17.35 30.7z" fill="#83f8fb"/><path d="m445.393 211.148c15.431.588 24.988 17.281 17.346 30.7-16.069 28.214-40.97 50.746-70.941 63.827 1.372-56.241-47.971-99.318-102.899-91.216-7.489 1.105-14.747-3.265-17.273-10.4-13.259-37.446-49.76-61.852-89.448-59.634l-.01-.13c11.994-78.713 84.298-136.247 166.153-127.136 15.487 1.724 23.378 19.253 14.694 32.192-45.275 67.461 1.654 158.722 82.378 161.797z" fill="#ffe773"/><path d="m387.244 274.899c2.148 6.505-6.65 10.848-10.607 5.257-22.15-31.298-60.642-49.216-101.243-43.266-8.838 1.318-17.287-3.945-20.283-12.364-12.529-35.141-42.725-60.729-78.667-67.806-6.676-1.315-6.39-11.038.369-11.82 42.38-4.9 81.121 20.426 94.836 58.923 2.557 7.18 9.767 11.664 17.307 10.546 43.807-6.403 84.805 19.694 98.288 60.53z" fill="#bbfbff"/><path d="m310.997 392.193s10.926.429-223.433.429c-47.422 0-79.722-46.771-65.383-89.781 9.93-29.791 37.817-47.617 63.925-47.617 7.26-.16 12.873-6.441 12.054-13.662-1.448-12.848.423-25.917 4.6-37.67 4.397-12.373 22.909-6.302 19.451 6.366-1.606 5.883-1.84 9.529-3.637 20.159-3.19 18.862 7.445 26.27 2.646 34.904-5.839 10.505-23.158 1.872-37.45 12.4-15.318 11.283-21.137 40.139-9.987 60.004 12.086 21.53 39.478 24.323 53.559 25.666 0 0 182.271.02 182.278.02 18.324 0 19.603 26.965 1.377 28.782z" fill="#6ff3fa"/><path d="m93.112 318.427 54.034 1.821c5.101.172 8.753 4.994 7.535 9.951l-6.446 26.244c-1.244 5.065 2.59 9.955 7.806 9.955h25.281c6.438 0 10.265 7.187 6.668 12.526-15.753 23.382-45.837 68.031-60.757 90.176-1.868 2.773-6.199 1.199-5.859-2.128l5.023-49.118c.485-4.738-3.234-8.856-7.996-8.856h-32.153c-4.718 0-8.422-4.049-8.006-8.749 2.599-29.409 1.697-19.217 6.593-74.492.376-4.252 4.011-7.474 8.277-7.33z" fill="#ffe773"/><path d="m126.395 409.546c-.144 1.417-1.813 2.161-2.916 1.26-2.948-2.408-2.489-1.806-37.234-1.806-4.603 0-8.425-3.901-7.999-8.833.124-1.438 1.811-2.185 2.93-1.273 2.948 2.404 2.483 1.803 37.228 1.803 4.76-.001 8.481 4.114 7.991 8.849z" fill="#fada86"/><path d="m187.989 378.921c-13.084 19.419-36.048 53.508-52.006 77.191-2.713 4.026-8.994 2.181-9.103-2.672-.049-2.17-2.589 2.192 43.105-65.612 3.649-5.418-.233-12.708-6.76-12.708h-25.641c-5.297 0-9.179-4.959-7.917-10.096l6.535-26.621c1.238-5.032-2.468-9.919-7.644-10.096l-35.89-1.211c-5.56-.188-5.798-8.879.442-8.667l54.039 1.817c5.096.177 8.753 5 7.532 9.951l-6.447 26.248c-1.244 5.065 2.59 9.955 7.806 9.955h25.287c6.429-.002 10.263 7.184 6.662 12.521z" fill="#ffec8f"/><path d="m463.009 241.763c-2.47 4.308-7.257 6.775-12.203 6.329-106.448-9.604-171.432-129.398-116.553-224.932 2.512-4.372 7.374-6.851 12.393-6.364 18.852 1.831 24.924 20.12 16.683 32.406-45.882 68.304 3.227 159.527 82.38 161.79 15.431.591 25.02 17.302 17.3 30.771z" fill="#ffec8f"/><path d="m224.469 449.304-6 10c-4.544 7.574-14.37 10.036-21.952 5.488-7.577-4.546-10.034-14.375-5.488-21.952l6-10c4.546-7.577 14.375-10.033 21.952-5.488 7.578 4.547 10.035 14.375 5.488 21.952zm64.142-22.167c-7.698-4.343-17.456-1.622-21.797 6.074l-22 39c-4.342 7.697-1.622 17.456 6.074 21.797 7.696 4.342 17.455 1.623 21.797-6.074l22-39c4.342-7.697 1.622-17.456-6.074-21.797zm60.37.216c-7.577-4.545-17.405-2.089-21.952 5.488l-6 10c-4.546 7.577-2.089 17.405 5.488 21.952 7.582 4.549 17.408 2.085 21.952-5.488l6-10c4.547-7.578 2.09-17.406-5.488-21.952zm143.751-215.721c-12.117 43.871-42.505 82.677-85.8 104.588-6.495 52.062-51.022 92.481-104.815 92.481-120.593 0-112.854.079-114.639-.162l-54.171 80.401c-9.238 13.714-30.877 5.966-29.186-10.568l5.433-53.113h-32.121c-4.489 0-8.771-1.886-11.802-5.196-5.241-5.725-4.165-11.88-3.86-15.335-34.526-10.976-59.021-43.354-59.021-80.759 0-44.808 34.963-81.604 79.04-84.542-4.016-49.09 32.232-99.947 87.132-109.544 22.521-98.767 127.39-154.683 221.682-119.132 11.598 4.372 14.024 19.755 4.328 27.483-21.088 16.809-33.183 41.9-33.183 68.838 0 57.739 55.157 100.306 111.32 84.872 11.959-3.282 22.965 7.734 19.663 19.688zm-116.982 91.436c0-49.471-48.184-85.149-95.678-70.279-9.15 2.866-18.766-2.921-20.513-12.358-6.446-34.841-36.894-60.128-72.396-60.128-40.601 0-73.632 33.032-73.632 73.633 0 4.044 1.469 13.907 2.513 19.619 2.018 11.039-7.686 20.678-18.705 18.601-32.69-6.164-62.588 19.003-62.588 51.815 0 20.758 12.111 39.029 29.958 47.584l4.827-54.544c.779-8.802 8.542-15.304 17.348-14.527 8.802.779 15.306 8.546 14.527 17.348l-6.498 73.428h32.362c4.527 0 8.842 1.917 11.875 5.277 5.572 6.171 4.038 12.386 3.304 19.561l23.881-35.444h-20.572c-10.38 0-18.011-9.747-15.538-19.816l11.254-45.821c2.107-8.582 10.773-13.83 19.354-11.722 8.582 2.107 13.83 10.773 11.722 19.354l-6.387 26.004h30.239c11.893 0 21.226 13.131 12.522 26.049h93.188c40.601-.001 73.633-33.033 73.633-73.634zm76.936-76.031c-101.233 2.477-159.027-114.04-98.153-193.055-69.006-11.719-133.765 31.545-152.428 95.393 38.883 5.525 71.561 32.284 84.624 69.176 55.31-8.085 106.721 28.223 118.536 81.719 20.178-13.202 36.66-31.717 47.421-53.233z"/></svg>