<?xml version="1.0" encoding="iso-8859-1"?>
<!-- Generator: Adobe Illustrator 19.0.0, SVG Export Plug-In . SVG Version: 6.00 Build 0)  -->
<svg version="1.1" id="Capa_1" xmlns="http://www.w3.org/2000/svg" xmlns:xlink="http://www.w3.org/1999/xlink" x="0px" y="0px"
	 viewBox="0 0 384 384" style="enable-background:new 0 0 384 384;" xml:space="preserve">
<g>
	<path style="fill:#DBAD56;" d="M294.264,115.064c0,58.16-45.76,87.6-102.24,87.6c-27.04,0-51.6-6.72-69.92-20.24l38.4-39.28
		c9.36,4.96,20.72,7.44,31.52,7.44c24.48,0,51.68-12.8,51.68-38c0-14.48-8.88-26.08-21.12-33.36l37.12-38
		C280.904,58.024,294.264,83.704,294.264,115.064z"/>
	<path style="fill:#DBAD56;" d="M259.704,41.224l-37.12,38c-9.12-5.44-20.08-8.48-30.56-8.48c-24.48,0-51.68,16.56-51.68,41.84
		c0,14.08,8.48,24.24,20.16,30.56l-38.4,39.28c-19.92-14.56-32.32-37.04-32.32-67.36c0-58.08,45.76-96.4,102.24-96.4
		C217.944,18.664,241.624,26.744,259.704,41.224z"/>
</g>
<path style="fill:#D2982C;" d="M328.024,238.424v44.72h-34.08c-2.88,34.4-22.32,60.96-50.24,75.36
	c-15.12,7.84-32.88,12.16-51.68,12.16s-36.56-4.32-51.68-12.16c-27.92-14.4-47.36-40.96-50.24-75.36h-34.08v-44.72l33.76-26.32
	v-97.04c0,30.32,12.4,52.8,32.32,67.36c18.32,13.52,42.88,20.24,69.92,20.24c56.48,0,102.24-29.44,102.24-87.6v97.04
	L328.024,238.424z"/>
<path style="fill:#E4C180;" d="M243.704,112.584c0,25.2-27.2,38-51.68,38c-10.8,0-22.16-2.48-31.52-7.44
	c-11.68-6.32-20.16-16.48-20.16-30.56c0-25.28,27.2-41.84,51.68-41.84c10.48,0,21.44,3.04,30.56,8.48
	C234.824,86.504,243.704,98.104,243.704,112.584z"/>
<path style="fill:#235413;" d="M56,296.48h20.304c6.72,31.32,26.264,57.2,55.072,72.64c0.072,0.048,0.152,0.08,0.224,0.128
	c0.464,0.248,0.888,0.552,1.36,0.792c0.176,0.096,0.376,0.152,0.56,0.248c0.36,0.168,0.72,0.336,1.096,0.48
	C151.848,379.376,171.616,384,192,384c20.4,0,40.184-4.632,57.4-13.232c0.368-0.144,0.712-0.304,1.064-0.472
	c0.176-0.088,0.368-0.152,0.544-0.24c0.464-0.24,0.872-0.536,1.328-0.776c0.096-0.064,0.2-0.112,0.296-0.176
	c28.816-15.448,48.344-41.32,55.064-72.632H328c8.832,0,16-7.168,16-16v-44.72c0-4.928-2.272-9.584-6.168-12.616l-27.6-21.512V112.4
	v-8.8c0-1.608-0.312-3.136-0.752-4.6c-3.216-29.28-17.024-54.8-39.72-72.856c-0.032-0.024-0.048-0.056-0.08-0.08
	c-0.016-0.016-0.032-0.024-0.048-0.04c-0.008-0.008-0.008-0.008-0.016-0.016c-0.008-0.008-0.024-0.016-0.032-0.024
	C248.608,9.232,221.064,0,192,0C129.56,0,81.424,41.496,74.656,98.536c-0.536,1.6-0.896,3.288-0.896,5.064v8.8v89.232l-27.6,21.512
	c-3.888,3.032-6.16,7.688-6.16,12.616v44.72C40,289.32,47.16,296.48,56,296.48z M192.184,183.992c-0.064,0-0.12-0.016-0.184-0.016
	c-0.056,0-0.112,0.016-0.168,0.016c-3.632,0-7.168-0.176-10.648-0.448c-1.032-0.08-2.048-0.192-3.064-0.296
	c-2.6-0.264-5.152-0.6-7.648-1.008c-0.96-0.16-1.928-0.296-2.872-0.472c-3.24-0.616-6.416-1.328-9.456-2.2
	c-0.448-0.128-0.856-0.296-1.296-0.424c-2.6-0.784-5.12-1.664-7.56-2.632c-0.4-0.16-0.784-0.336-1.184-0.504l16.2-16.568
	c2.288,0.768,4.632,1.424,7.016,2c0.352,0.088,0.712,0.136,1.064,0.216c2.632,0.6,5.304,1.064,8.016,1.424
	c0.792,0.104,1.576,0.2,2.376,0.288c3.056,0.32,6.128,0.544,9.216,0.544c32.808,0,67.68-18.928,67.68-54c0-2.88-0.32-5.696-0.8-8.48
	c-0.136-0.816-0.336-1.608-0.512-2.408c-0.456-2.064-1.048-4.088-1.76-6.072c-0.264-0.744-0.504-1.488-0.808-2.216
	c-1.072-2.592-2.304-5.128-3.808-7.552c-0.144-0.232-0.32-0.44-0.472-0.664c-1.4-2.192-3-4.288-4.744-6.312
	c-0.24-0.28-0.408-0.6-0.664-0.88l13.96-14.288c11.8,13.776,18.16,31.56,18.16,51.352
	C278.24,165.112,233.824,183.944,192.184,183.992z M198.648,84.68c3.576,0.584,7.144,1.56,10.504,2.984
	c1.816,0.768,3.56,1.648,5.216,2.64l0,0c0.008,0,0.008,0,0.016,0.008c4.968,2.96,13.304,9.432,13.304,19.616
	c0,15.176-20.864,22-35.68,22c-8.56,0-17.296-2.024-23.976-5.552c-11.704-6.376-11.712-13.96-11.712-16.456
	c0-14.792,18.832-25.84,35.68-25.84C194.184,84.08,196.416,84.32,198.648,84.68z M192,32c15.256,0,29.84,3.296,42.48,9.464
	l-6.456,6.608l-8.904,9.112c-2.256-0.864-4.552-1.608-6.88-2.264c-0.328-0.088-0.656-0.144-0.984-0.232
	c-2.624-0.696-5.288-1.232-7.96-1.648c-0.784-0.12-1.56-0.24-2.344-0.336c-2.984-0.368-5.976-0.624-8.952-0.624
	c-32.68,0-67.68,23.24-67.68,57.84c0,2.768,0.288,5.44,0.72,8.072c0.128,0.8,0.328,1.576,0.504,2.368
	c0.4,1.848,0.904,3.648,1.52,5.416c0.288,0.816,0.568,1.624,0.896,2.424c0.776,1.872,1.688,3.688,2.712,5.456
	c0.304,0.528,0.544,1.08,0.864,1.592c1.376,2.176,2.944,4.256,4.696,6.24c0.144,0.168,0.24,0.352,0.384,0.512l-6.816,6.968
	l-8.392,8.584c-0.2-0.232-0.44-0.44-0.632-0.664c-0.464-0.536-0.888-1.104-1.328-1.656c-1-1.256-1.944-2.544-2.84-3.864
	c-0.424-0.64-0.848-1.272-1.248-1.928c-0.896-1.456-1.72-2.96-2.488-4.504c-0.256-0.512-0.536-1-0.784-1.512
	c-0.96-2.056-1.808-4.184-2.544-6.384c-0.176-0.528-0.312-1.08-0.472-1.616c-0.536-1.728-1.008-3.496-1.416-5.304
	c-0.176-0.784-0.328-1.576-0.472-2.376c-0.32-1.712-0.576-3.464-0.784-5.24c-0.088-0.768-0.192-1.528-0.264-2.304
	c-0.224-2.544-0.368-5.136-0.368-7.808C105.76,65.816,142.032,32,192,32z M72,243.576l27.6-21.512
	c3.888-3.032,6.168-7.688,6.168-12.616v-22.256c2.168,1.896,4.44,3.712,6.816,5.456c0.008,0.008,0.024,0.016,0.032,0.024
	s0.016,0.016,0.024,0.016c0.008,0.008,0.016,0.008,0.024,0.008c3.672,2.704,7.616,5.096,11.696,7.344v71.696c0,8.832,7.168,16,16,16
	s16-7.168,16-16V212.08c6.304,1.448,12.864,2.464,19.648,3.104v21.048c0,8.832,7.16,16,16,16c8.832,0,16-7.168,16-16v-21.048
	c0.392-0.04,0.768-0.096,1.16-0.136c2.808-0.288,5.632-0.544,8.352-0.968c1.528-0.24,2.968-0.608,4.472-0.888
	c1.904-0.36,3.816-0.696,5.664-1.128v59.68c0,8.832,7.168,16,16,16s16-7.168,16-16V200c0.368-0.2,0.752-0.392,1.112-0.6
	c1.424-0.808,2.736-1.736,4.112-2.608c1.632-1.032,3.312-2.016,4.872-3.128c1.352-0.96,2.576-2.032,3.872-3.048
	c1.448-1.144,2.944-2.232,4.312-3.448c0.104-0.088,0.216-0.168,0.32-0.256v22.528c0,4.928,2.272,9.584,6.168,12.616L312,243.576
	v20.904h-18.08c-8.32,0-15.248,6.376-15.944,14.664c-1.456,17.352-7.832,32.544-18.448,44.592c-0.6-8.288-7.44-14.848-15.888-14.848
	c-8.832,0-16,7.168-16,16v20.52c-6.232,2.376-12.848,4.016-19.648,5.048v-60.992c0-8.832-7.168-16-16-16c-8.84,0-16,7.168-16,16
	v60.984c-6.792-1.04-13.408-2.68-19.648-5.048v-20.52c0-8.832-7.168-16-16-16c-8.44,0-15.288,6.56-15.888,14.856
	c-10.608-12.048-16.992-27.24-18.448-44.592c-0.696-8.288-7.624-14.664-15.944-14.664H72V243.576z"/>
<g>
</g>
<g>
</g>
<g>
</g>
<g>
</g>
<g>
</g>
<g>
</g>
<g>
</g>
<g>
</g>
<g>
</g>
<g>
</g>
<g>
</g>
<g>
</g>
<g>
</g>
<g>
</g>
<g>
</g>
</svg>
