<?xml version="1.0" encoding="iso-8859-1"?>
<!-- Generator: Adobe Illustrator 19.0.0, SVG Export Plug-In . SVG Version: 6.00 Build 0)  -->
<svg version="1.1" id="Capa_1" xmlns="http://www.w3.org/2000/svg" xmlns:xlink="http://www.w3.org/1999/xlink" x="0px" y="0px"
	 viewBox="0 0 384.004 384.004" style="enable-background:new 0 0 384.004 384.004;" xml:space="preserve">
<polygon style="fill:#DBAD56;" points="341.786,370.668 271.386,370.668 202.026,230.588 183.226,230.588 113.786,370.668 
	42.266,370.668 192.026,85.868 "/>
<polygon style="fill:#3EAD26;" points="271.386,370.668 113.786,370.668 183.226,230.588 202.026,230.588 "/>
<path style="fill:#235413;" d="M368.002,352.004h-16.576l-141.344-268.8l31.44-59.752c4.112-7.824,1.112-17.496-6.712-21.608
	c-7.808-4.112-17.496-1.12-21.608,6.712l-21.2,40.288l-21.2-40.288c-4.12-7.824-13.8-10.816-21.608-6.712
	c-7.816,4.12-10.824,13.792-6.712,21.608l31.44,59.752l-141.344,268.8H16.002c-8.84,0-16,7.168-16,16s7.16,16,16,16h26.24h71.52
	h157.6h70.4h26.24c8.832,0,16-7.168,16-16S376.834,352.004,368.002,352.004z M245.586,352.004H139.554l53.048-107.008
	L245.586,352.004z M281.298,352.004l-64.952-131.176c-2.696-5.448-8.256-8.896-14.336-8.896h-18.808
	c-6.08,0-11.64,3.448-14.336,8.896l-65.032,131.176H68.73L192.002,117.58l123.272,234.424H281.298z"/>
<g>
</g>
<g>
</g>
<g>
</g>
<g>
</g>
<g>
</g>
<g>
</g>
<g>
</g>
<g>
</g>
<g>
</g>
<g>
</g>
<g>
</g>
<g>
</g>
<g>
</g>
<g>
</g>
<g>
</g>
</svg>
