<?xml version="1.0" encoding="iso-8859-1"?>
<!-- Generator: Adobe Illustrator 19.0.0, SVG Export Plug-In . SVG Version: 6.00 Build 0)  -->
<svg version="1.1" id="Capa_1" xmlns="http://www.w3.org/2000/svg" xmlns:xlink="http://www.w3.org/1999/xlink" x="0px" y="0px"
	 viewBox="0 0 384 384" style="enable-background:new 0 0 384 384;" xml:space="preserve">
<polygon style="fill:#51B53B;" points="340.584,281.127 192.024,281.127 192.024,18.647 261.624,141.687 340.424,280.887 "/>
<polygon style="fill:#3EAD26;" points="192.024,18.647 192.024,281.127 43.464,281.127 122.264,141.927 "/>
<g>
	<polygon style="fill:#FF833B;" points="122.264,141.927 43.464,281.127 16.024,281.127 16.024,211.367 	"/>
	<polygon style="fill:#FF833B;" points="368.024,211.207 368.024,280.887 340.424,280.887 261.624,141.687 	"/>
</g>
<g>
	<path style="fill:#235413;" d="M376.752,195.151l-103.096-67.36l-67.72-119.68c-0.192-0.336-0.432-0.624-0.64-0.944
		c-0.24-0.368-0.472-0.744-0.744-1.088c-0.28-0.36-0.6-0.672-0.904-1c-0.288-0.304-0.56-0.624-0.88-0.912
		c-0.336-0.304-0.696-0.56-1.048-0.832c-0.336-0.256-0.664-0.528-1.016-0.76c-0.384-0.248-0.8-0.456-1.2-0.672
		c-0.36-0.192-0.704-0.4-1.088-0.568c-0.48-0.208-0.984-0.36-1.48-0.528c-0.288-0.096-0.56-0.224-0.864-0.304
		c-0.048-0.016-0.096-0.016-0.136-0.024c-0.536-0.136-1.088-0.208-1.64-0.288c-0.32-0.048-0.648-0.128-0.968-0.152
		c-0.472-0.04-0.952-0.016-1.432-0.008c-0.4,0-0.808-0.024-1.208,0.008c-0.36,0.032-0.728,0.12-1.088,0.176
		c-0.512,0.08-1.032,0.144-1.528,0.272c-0.048,0.008-0.096,0.016-0.136,0.024c-0.296,0.08-0.568,0.208-0.856,0.304
		c-0.504,0.16-1.008,0.32-1.488,0.528c-0.368,0.16-0.712,0.368-1.064,0.552c-0.416,0.216-0.832,0.424-1.224,0.68
		c-0.36,0.232-0.68,0.504-1.016,0.76c-0.352,0.272-0.712,0.528-1.04,0.824c-0.336,0.304-0.632,0.648-0.936,0.976
		c-0.28,0.304-0.576,0.592-0.832,0.92c-0.336,0.416-0.616,0.872-0.904,1.328c-0.16,0.248-0.344,0.464-0.496,0.72l-0.152,0.272v0.008
		l-67.712,119.632L7.256,195.303c-4.528,2.96-7.256,8-7.256,13.4v69.76c0,8.832,7.16,16,16,16h27.44H192h148.56
		c0.584,0,1.128-0.176,1.704-0.24H368c8.832,0,16-7.168,16-16v-69.68C384,203.143,381.272,198.103,376.752,195.151z M352,217.199
		v45.016h-2.272l-4.864-8.592l-36.896-65.2L352,217.199z M32,217.359l43.864-28.672l-39.432,69.672l-2.32,4.104H32V217.359z
		 M84.136,239.055l51.128-90.304c0.984-1.272,1.776-2.64,2.32-4.112L176,76.751v81.456h-1.616c-8.832,0-16,7.168-16,16
		s7.168,16,16,16H176v20.856h-1.616c-8.832,0-16,7.168-16,16s7.168,16,16,16H176v19.408H70.88L84.136,239.055z M208,262.463v-19.408
		h1.616c8.832,0,16-7.168,16-16s-7.168-16-16-16H208v-20.856h1.616c8.832,0,16-7.168,16-16s-7.168-16-16-16H208v-81.44
		l38.568,68.152c0.456,1.096,1.048,2.136,1.752,3.12l62.712,110.776l2.064,3.648H208V262.463z"/>
	<path style="fill:#235413;" d="M303.88,323.943c0-8.832-7.168-16-16-16H96.136c-8.832,0-16,7.168-16,16c0,8.84,7.168,16,16,16
		h191.752C296.72,339.943,303.88,332.783,303.88,323.943z"/>
	<path style="fill:#235413;" d="M131.232,351.983c-8.832,0-16,7.168-16,16s7.168,16,16,16h121.536c8.832,0,16-7.168,16-16
		s-7.168-16-16-16H131.232z"/>
</g>
<g>
</g>
<g>
</g>
<g>
</g>
<g>
</g>
<g>
</g>
<g>
</g>
<g>
</g>
<g>
</g>
<g>
</g>
<g>
</g>
<g>
</g>
<g>
</g>
<g>
</g>
<g>
</g>
<g>
</g>
</svg>
