<?xml version="1.0" encoding="iso-8859-1"?>
<!-- Generator: Adobe Illustrator 19.0.0, SVG Export Plug-In . SVG Version: 6.00 Build 0)  -->
<svg version="1.1" id="Capa_1" xmlns="http://www.w3.org/2000/svg" xmlns:xlink="http://www.w3.org/1999/xlink" x="0px" y="0px"
	 viewBox="0 0 384.012 384.012" style="enable-background:new 0 0 384.012 384.012;" xml:space="preserve">
<rect x="16.006" y="82.668" style="fill:#FF7526;" width="351.896" height="78.912"/>
<path style="fill:#235413;" d="M345.086,241.172h22.864c8.832,0,16-7.168,16-16s-7.168-16-16-16h-44.344l-23-34.256h67.312
	c8.832,0,16-7.168,16-16V80.004c0-8.832-7.168-16-16-16H16.014c-8.84,0-16,7.168-16,16v78.912c0,8.832,7.16,16,16,16h67.392
	l-23,34.256H16.054c-8.832,0-16,7.168-16,16s7.168,16,16,16h22.864l-36.2,53.92c-4.928,7.336-2.968,17.28,4.368,22.2
	c7.344,4.92,17.28,2.976,22.2-4.368l48.176-71.752h229.08l48.176,71.752c3.096,4.6,8.152,7.08,13.304,7.08
	c3.064,0,6.168-0.88,8.904-2.712c7.336-4.928,9.296-14.864,4.368-22.2L345.086,241.172z M32.014,96.004H351.91v46.912h-81.32
	H113.422H32.014V96.004z M98.95,209.172l23-34.256h140.112l23,34.256H98.95z"/>
<g>
</g>
<g>
</g>
<g>
</g>
<g>
</g>
<g>
</g>
<g>
</g>
<g>
</g>
<g>
</g>
<g>
</g>
<g>
</g>
<g>
</g>
<g>
</g>
<g>
</g>
<g>
</g>
<g>
</g>
</svg>
