<?xml version="1.0" encoding="iso-8859-1"?>
<!-- Generator: Adobe Illustrator 19.0.0, SVG Export Plug-In . SVG Version: 6.00 Build 0)  -->
<svg version="1.1" id="Capa_1" xmlns="http://www.w3.org/2000/svg" xmlns:xlink="http://www.w3.org/1999/xlink" x="0px" y="0px"
	 viewBox="0 0 384 384" style="enable-background:new 0 0 384 384;" xml:space="preserve">
<path style="fill:#FF833B;" d="M192.08,370.664c-72.064,0-72.064-105.032-72.064-105.032v-88.048h72.064h-0.24h72.072v88.048h0.112
	c0,0,0,105.032-72.064,105.032"/>
<path style="fill:#235413;" d="M120,158.92c-8.84,0-16,7.168-16,16v88.048c0,41.824,18.368,120.864,87.84,121.032
	c0.032,0,0.064,0,0.096,0c0.048,0,0.08,0,0.128,0c0.032,0,0.064,0,0.096,0c69.472-0.168,87.84-79.208,87.84-121.032
	c0-0.632-0.04-1.256-0.112-1.864V174.92c0-8.832-7.168-16-16-16H208.08v-58.4l53.496-75.248c3.472-4.88,3.92-11.288,1.176-16.608
	C260.016,3.344,254.52,0,248.536,0H135.608c-5.984,0-11.48,3.344-14.216,8.664c-2.744,5.32-2.288,11.728,1.176,16.608l53.512,75.24
	v58.4H120V158.92z M166.624,32h50.904L192.08,67.8L166.624,32z M247.888,190.92v72.048c0,0.512,0.024,1.024,0.072,1.52
	c-0.392,11.856-4.928,87.456-55.96,87.512c-55.088-0.064-56-88.168-56-89.032V190.92h40.088v36.832c0,8.832,7.168,16,16,16
	c8.832,0,16-7.168,16-16V190.92L247.888,190.92L247.888,190.92z"/>
<g>
</g>
<g>
</g>
<g>
</g>
<g>
</g>
<g>
</g>
<g>
</g>
<g>
</g>
<g>
</g>
<g>
</g>
<g>
</g>
<g>
</g>
<g>
</g>
<g>
</g>
<g>
</g>
<g>
</g>
</svg>
