<?xml version="1.0" encoding="iso-8859-1"?>
<!-- Generator: Adobe Illustrator 19.0.0, SVG Export Plug-In . SVG Version: 6.00 Build 0)  -->
<svg version="1.1" id="Capa_1" xmlns="http://www.w3.org/2000/svg" xmlns:xlink="http://www.w3.org/1999/xlink" x="0px" y="0px"
	 viewBox="0 0 384 384" style="enable-background:new 0 0 384 384;" xml:space="preserve">
<path style="fill:#D2982C;" d="M331.624,190.824v139.12c0,9.2-7.76,16.72-17.36,16.72H69.784c-9.6,0-17.36-7.52-17.36-16.72v-139.12
	H331.624z"/>
<path style="fill:#E4C180;" d="M368.024,155.784c0,19.36-16.32,35.04-36.4,35.04h-279.2c-20.08,0-36.4-15.68-36.4-35.04
	s16.32-35.12,36.4-35.12h279.2C351.704,120.664,368.024,136.424,368.024,155.784z"/>
<g>
	<path style="fill:#235413;" d="M36.4,201.704V327.28c0,18.04,14.968,32.72,33.36,32.72h244.48c18.392,0,33.36-14.672,33.36-32.72
		V201.704c21.088-6.6,36.4-25.872,36.4-48.584c0-28.184-23.512-51.12-52.4-51.12H52.4C23.512,102,0,124.936,0,153.12
		C0,175.832,15.312,195.104,36.4,201.704z M315.6,327.28c0,0.152-0.424,0.72-1.36,0.72H69.76c-0.936,0-1.36-0.568-1.36-0.72V204.16
		h247.2L315.6,327.28L315.6,327.28z M52.4,134h279.2c11.248,0,20.4,8.576,20.4,19.12c0,10.504-9.152,19.04-20.4,19.04H52.4
		c-11.248,0-20.4-8.536-20.4-19.04C32,142.576,41.152,134,52.4,134z"/>
	<path style="fill:#235413;" d="M230.92,49.264C224.512,34.432,209.48,24,192,24c-17.488,0-32.52,10.432-38.92,25.264H66.528
		c-8.84,0-16,7.168-16,16s7.16,16,16,16h250.936c8.832,0,16-7.168,16-16s-7.168-16-16-16
		C317.464,49.264,230.92,49.264,230.92,49.264z"/>
	<path style="fill:#235413;" d="M237.728,308.184h35.6c8.832,0,16-7.168,16-16V257.88c0-8.832-7.168-16-16-16
		c-8.84,0-16,7.168-16,16v18.304h-19.6c-8.832,0-16,7.168-16,16S228.888,308.184,237.728,308.184z"/>
</g>
<g>
</g>
<g>
</g>
<g>
</g>
<g>
</g>
<g>
</g>
<g>
</g>
<g>
</g>
<g>
</g>
<g>
</g>
<g>
</g>
<g>
</g>
<g>
</g>
<g>
</g>
<g>
</g>
<g>
</g>
</svg>
