<?xml version="1.0" encoding="iso-8859-1"?>
<!-- Generator: Adobe Illustrator 19.0.0, SVG Export Plug-In . SVG Version: 6.00 Build 0)  -->
<svg version="1.1" id="Capa_1" xmlns="http://www.w3.org/2000/svg" xmlns:xlink="http://www.w3.org/1999/xlink" x="0px" y="0px"
	 viewBox="0 0 384.001 384.001" style="enable-background:new 0 0 384.001 384.001;" xml:space="preserve">
<path style="fill:#FF833B;" d="M298.508,248.265h-159.68v122.4h159.68c34,0,61.52-27.36,61.52-61.2S332.508,248.265,298.508,248.265
	z"/>
<rect x="94.588" y="248.241" style="fill:#51B53B;" width="44.24" height="122.4"/>
<path style="fill:#FF833B;" d="M94.588,248.265v122.4h-9.04c-34,0-61.52-27.36-61.52-61.2s27.52-61.2,61.52-61.2L94.588,248.265
	L94.588,248.265z"/>
<path style="fill:#D9D8D2;" d="M288.588,18.665v228.08h-85.36c0,0,0-26.64,0-114.08C203.228,45.305,288.588,18.665,288.588,18.665z"
	/>
<g>
	<path style="fill:#235413;" d="M298.044,3.113c-4.104-3.016-9.4-3.904-14.24-2.384c-33.416,10.424-96.6,50.864-96.6,129.272v99.6
		h-48.4h-44.24h-9.04c-42.744,0-77.52,34.632-77.52,77.2s34.776,77.2,77.52,77.2h9.04h44.232h159.68
		c42.752,0,77.52-34.632,77.52-77.2c0-40.52-31.528-73.784-71.44-76.888V16.001C304.564,10.913,302.148,6.129,298.044,3.113z
		 M219.204,130.001c0-49.28,31.392-76.232,53.36-89.056v187.136h-10.672v-35.36c0-8.84-7.168-16-16-16s-16,7.168-16,16v35.352
		h-10.688V130.001z M40.004,306.801c0-22.576,16.752-41.336,38.56-44.672v89.344C56.756,348.137,40.004,329.377,40.004,306.801z
		 M110.564,261.601h12.232v90.4h-12.232V261.601z M344.004,306.801c0,24.92-20.424,45.2-45.52,45.2h-143.68v-90.4h143.68
		C323.58,261.601,344.004,281.881,344.004,306.801z"/>
	<path style="fill:#235413;" d="M245.924,281.441c-14.032,0-25.448,11.376-25.448,25.36c0,13.984,11.416,25.36,25.448,25.36
		c13.984,0,25.36-11.376,25.36-25.36C271.284,292.817,259.908,281.441,245.924,281.441z"/>
</g>
<g>
</g>
<g>
</g>
<g>
</g>
<g>
</g>
<g>
</g>
<g>
</g>
<g>
</g>
<g>
</g>
<g>
</g>
<g>
</g>
<g>
</g>
<g>
</g>
<g>
</g>
<g>
</g>
<g>
</g>
</svg>
