<?xml version="1.0" encoding="iso-8859-1"?>
<!-- Generator: Adobe Illustrator 19.0.0, SVG Export Plug-In . SVG Version: 6.00 Build 0)  -->
<svg version="1.1" id="Capa_1" xmlns="http://www.w3.org/2000/svg" xmlns:xlink="http://www.w3.org/1999/xlink" x="0px" y="0px"
	 viewBox="0 0 384.015 384.015" style="enable-background:new 0 0 384.015 384.015;" xml:space="preserve">
<polygon style="fill:#3EAD26;" points="368.036,370.512 261.636,370.512 199.716,273.952 243.876,273.952 174.116,168.352 
	213.556,168.352 178.996,111.312 235.156,18.672 315.956,151.792 273.316,151.792 348.676,265.872 300.996,265.872 "/>
<polygon style="fill:#299113;" points="16.036,370.672 78.036,273.952 33.956,273.952 103.636,168.352 64.196,168.352 
	138.916,45.232 178.996,111.312 213.556,168.352 174.116,168.352 243.876,273.952 199.716,273.952 261.636,370.512 261.716,370.672 
	"/>
<path style="fill:#235413;" d="M16.012,384.008h245.68c0.416,0,0.808-0.128,1.216-0.16h105.104c5.848,0,11.232-3.192,14.04-8.32
	c2.808-5.136,2.592-11.384-0.568-16.312l-51.256-80.008h18.424c5.888,0,11.304-3.232,14.088-8.424
	c2.792-5.184,2.504-11.488-0.736-16.4l-58.968-89.256h12.896c5.776,0,11.112-3.12,13.944-8.152
	c2.832-5.032,2.736-11.208-0.264-16.152l-80.8-133.12c-2.904-4.776-8.088-7.696-13.68-7.696l0,0c-5.592,0-10.776,2.92-13.68,7.704
	L178.964,77.8l-26.392-43.536c-2.896-4.784-8.088-7.704-13.68-7.704s-10.776,2.92-13.68,7.696l-74.72,123.12
	c-3,4.944-3.096,11.112-0.264,16.152c2.832,5.032,8.168,8.152,13.944,8.152h9.712l-53.312,80.792
	c-3.24,4.912-3.52,11.208-0.736,16.392c2.792,5.184,8.2,8.416,14.088,8.416H48.74L2.532,359.368
	c-3.16,4.92-3.376,11.176-0.568,16.312C4.78,380.816,10.164,384.008,16.012,384.008z M197.684,108.656l37.456-61.792l52.36,86.272
	h-14.208c-5.888,0-11.304,3.232-14.088,8.424c-2.792,5.184-2.504,11.488,0.736,16.4l58.968,89.248h-17.936
	c-5.848,0-11.232,3.192-14.04,8.32c-2.808,5.136-2.592,11.384,0.568,16.312l51.256,80.008h-68.4l-41.4-64.56h14.888
	c5.888,0,11.304-3.232,14.088-8.424c2.792-5.184,2.504-11.48-0.736-16.4l-53.36-80.776h9.696c5.776,0,11.104-3.112,13.944-8.152
	c2.84-5.032,2.736-11.2-0.256-16.144L197.684,108.656z M91.484,279.92c3.16-4.92,3.376-11.176,0.568-16.312
	c-2.808-5.136-8.192-8.328-14.04-8.328H63.66l53.304-80.792c3.24-4.912,3.528-11.208,0.736-16.392
	c-2.792-5.184-8.2-8.416-14.088-8.416H92.596l46.288-76.272l46.24,76.272h-11.04c-5.888,0-11.304,3.232-14.088,8.424
	c-2.792,5.184-2.504,11.488,0.736,16.4l53.368,80.784h-14.408c-5.848,0-11.232,3.192-14.04,8.328
	c-2.808,5.136-2.584,11.392,0.568,16.312l46.232,72.08H45.276L91.484,279.92z"/>
<g>
</g>
<g>
</g>
<g>
</g>
<g>
</g>
<g>
</g>
<g>
</g>
<g>
</g>
<g>
</g>
<g>
</g>
<g>
</g>
<g>
</g>
<g>
</g>
<g>
</g>
<g>
</g>
<g>
</g>
</svg>
