<?xml version="1.0" encoding="iso-8859-1"?>
<!-- Generator: Adobe Illustrator 19.0.0, SVG Export Plug-In . SVG Version: 6.00 Build 0)  -->
<svg version="1.1" id="Capa_1" xmlns="http://www.w3.org/2000/svg" xmlns:xlink="http://www.w3.org/1999/xlink" x="0px" y="0px"
	 viewBox="0 0 384 384" style="enable-background:new 0 0 384 384;" xml:space="preserve">
<g>
	<path style="fill:#FF7526;" d="M85.224,97.144v9.76c0,56.16-59.44,58-59.44,58h-9.76v-38.4c0-16.24,13.12-29.36,29.44-29.36H85.224
		z"/>
	<path style="fill:#FF7526;" d="M85.224,360.264v10.4h-39.76c-16.32,0-29.44-13.2-29.44-29.44v-38.96h9.76
		C25.784,302.264,85.224,304.104,85.224,360.264z"/>
	<path style="fill:#FF7526;" d="M368.024,126.504v38.4h-9.52c0,0-59.44-1.84-59.44-58v-9.76h39.52
		C354.824,97.144,368.024,110.264,368.024,126.504z"/>
	<path style="fill:#FF7526;" d="M368.024,302.264v38.96c0,16.24-13.2,29.44-29.44,29.44h-39.52v-10.4c0-56.16,59.44-58,59.44-58
		H368.024z"/>
</g>
<path style="fill:#51B53B;" d="M358.504,164.904c0,0-59.44-1.84-59.44-58v-9.76H85.224v9.76c0,56.16-59.44,58-59.44,58h-9.76v137.36
	h9.76c0,0,59.44,1.84,59.44,58v10.4h213.84v-10.4c0-56.16,59.44-58,59.44-58h9.52v-137.36H358.504z"/>
<g>
	<path style="fill:#235413;" d="M338.56,78.48h-1.64c4.32-2.864,7.184-7.76,7.184-13.336c0-8.84-7.168-16-16-16H286.08V39.76
		C286.08,17.832,268.248,0,246.32,0H137.68c-21.92,0-39.76,17.832-39.76,39.76v9.384H55.904c-8.832,0-16,7.168-16,16
		c0,5.576,2.856,10.472,7.184,13.336H45.44C20.384,78.48,0,98.824,0,123.84v38.4V299.6v38.96C0,363.616,20.384,384,45.44,384H85.2
		h213.84h39.52c25.056,0,45.44-20.384,45.44-45.44V299.6V162.24v-38.4C384,98.832,363.616,78.48,338.56,78.48z M347.152,284.728
		c-1.8,0.304-3.648,0.672-5.536,1.112c-0.512,0.12-1.04,0.28-1.552,0.408c-1.4,0.352-2.8,0.72-4.224,1.152
		c-0.736,0.224-1.472,0.488-2.208,0.736c-1.232,0.408-2.456,0.816-3.696,1.288c-0.808,0.304-1.608,0.648-2.416,0.984
		c-1.176,0.488-2.352,0.992-3.52,1.536c-0.832,0.384-1.656,0.8-2.48,1.224c-1.144,0.584-2.28,1.192-3.416,1.832
		c-0.824,0.464-1.632,0.944-2.44,1.448c-1.12,0.696-2.224,1.432-3.32,2.192c-0.776,0.536-1.552,1.072-2.312,1.648
		c-1.112,0.84-2.192,1.736-3.264,2.648c-0.696,0.592-1.4,1.16-2.08,1.776c-1.16,1.064-2.264,2.216-3.36,3.384
		c-0.528,0.56-1.088,1.08-1.6,1.664c-1.576,1.792-3.088,3.688-4.488,5.704c-0.088,0.12-0.16,0.264-0.24,0.392
		c-1.304,1.904-2.52,3.904-3.648,6.016c-0.4,0.744-0.728,1.552-1.096,2.328c-0.752,1.56-1.496,3.136-2.144,4.808
		c-0.376,0.968-0.688,2-1.024,3.008c-0.536,1.592-1.048,3.208-1.48,4.896c-0.288,1.128-0.528,2.296-0.768,3.464
		c-0.352,1.704-0.664,3.448-0.904,5.24c-0.168,1.256-0.312,2.544-0.424,3.848c-0.104,0.856-0.256,1.648-0.312,2.536H101.032
		c-0.056-0.888-0.208-1.68-0.28-2.544c-0.12-1.304-0.256-2.592-0.424-3.848c-0.248-1.8-0.552-3.536-0.904-5.24
		c-0.24-1.168-0.472-2.336-0.76-3.456c-0.432-1.696-0.952-3.312-1.488-4.912c-0.336-1-0.64-2.024-1.016-2.984
		c-0.656-1.688-1.408-3.28-2.168-4.856c-0.368-0.752-0.688-1.544-1.072-2.272c-1.2-2.24-2.488-4.392-3.888-6.4
		c-0.016-0.024-0.04-0.048-0.064-0.08c-1.392-1.992-2.88-3.848-4.432-5.624c-0.528-0.608-1.104-1.144-1.656-1.72
		c-1.088-1.144-2.176-2.28-3.32-3.328c-0.68-0.624-1.384-1.192-2.08-1.784c-1.08-0.912-2.16-1.808-3.28-2.648
		c-0.76-0.568-1.536-1.104-2.312-1.64c-1.104-0.768-2.216-1.504-3.352-2.2c-0.808-0.496-1.608-0.968-2.424-1.432
		c-1.152-0.648-2.304-1.264-3.472-1.856c-0.816-0.408-1.616-0.816-2.44-1.2c-1.216-0.56-2.424-1.08-3.64-1.576
		c-0.776-0.32-1.544-0.648-2.312-0.944c-1.32-0.496-2.632-0.936-3.944-1.368c-0.664-0.216-1.336-0.464-2-0.664
		c-1.712-0.512-3.4-0.96-5.08-1.368c-0.248-0.056-0.504-0.136-0.744-0.2c-1.936-0.448-3.824-0.824-5.68-1.136
		c-0.52-0.088-1-0.136-1.512-0.216c-1.104-0.168-2.216-0.344-3.28-0.464V177.824c1.424-0.152,2.904-0.368,4.408-0.608
		c0.184-0.032,0.36-0.04,0.544-0.072c1.808-0.304,3.664-0.68,5.552-1.12c0.608-0.144,1.224-0.328,1.84-0.48
		c1.304-0.328,2.608-0.672,3.944-1.072c0.752-0.224,1.504-0.488,2.256-0.744c1.216-0.4,2.432-0.808,3.648-1.272
		c0.808-0.304,1.608-0.64,2.416-0.976c1.176-0.48,2.344-0.992,3.52-1.536c0.832-0.384,1.648-0.792,2.472-1.2
		c1.152-0.584,2.296-1.2,3.432-1.848c0.808-0.456,1.616-0.92,2.416-1.416c1.144-0.704,2.264-1.456,3.384-2.232
		c0.76-0.52,1.512-1.032,2.256-1.584c1.16-0.872,2.28-1.808,3.4-2.76c0.648-0.552,1.312-1.072,1.952-1.648
		c1.328-1.216,2.592-2.528,3.84-3.864c0.368-0.4,0.768-0.752,1.128-1.16c1.576-1.784,3.064-3.68,4.472-5.68
		c0.384-0.544,0.712-1.16,1.08-1.72c0.984-1.504,1.952-3.032,2.824-4.656c0.456-0.84,0.84-1.744,1.256-2.616
		c0.704-1.456,1.392-2.928,2-4.488c0.4-1.016,0.744-2.088,1.096-3.144c0.52-1.536,1.008-3.104,1.432-4.728
		c0.304-1.16,0.56-2.352,0.816-3.56c0.344-1.664,0.64-3.368,0.888-5.12c0.176-1.28,0.336-2.576,0.464-3.912
		c0.064-0.72,0.2-1.384,0.248-2.12h12.928h156.16h13.168c0.048,0.76,0.192,1.44,0.256,2.184c0.12,1.28,0.272,2.52,0.448,3.752
		c0.248,1.808,0.552,3.56,0.912,5.272c0.24,1.16,0.496,2.304,0.784,3.424c0.44,1.688,0.944,3.312,1.488,4.904
		c0.336,0.992,0.656,2.008,1.032,2.96c0.656,1.672,1.392,3.264,2.16,4.824c0.368,0.744,0.696,1.528,1.08,2.256
		c1.072,2.008,2.24,3.912,3.48,5.728c0.136,0.2,0.248,0.424,0.392,0.624c1.464,2.096,3.024,4.056,4.664,5.912
		c0.048,0.056,0.104,0.104,0.152,0.16c1.568,1.76,3.224,3.4,4.928,4.944c0.272,0.248,0.56,0.472,0.84,0.712
		c1.528,1.344,3.088,2.616,4.704,3.8c0.304,0.224,0.616,0.432,0.928,0.656c1.648,1.176,3.32,2.28,5.024,3.304
		c0.24,0.144,0.48,0.288,0.72,0.424c1.864,1.088,3.752,2.096,5.656,3.024c0.072,0.032,0.144,0.072,0.216,0.104
		c9.944,4.776,20.224,7.376,28.904,8.336V284.04c-1.048,0.12-2.16,0.296-3.256,0.456
		C348.208,284.584,347.696,284.632,347.152,284.728z M352,123.84v21.648c-0.32-0.056-0.672-0.128-1.008-0.192
		c-0.952-0.176-1.952-0.376-3-0.624c-0.504-0.12-1.016-0.256-1.536-0.392c-1.432-0.376-2.912-0.808-4.44-1.352
		c-0.104-0.04-0.208-0.064-0.312-0.104c-1.72-0.624-3.472-1.384-5.224-2.248c-0.264-0.128-0.528-0.272-0.792-0.408
		c-3.552-1.848-7.032-4.272-10.112-7.416c-0.216-0.224-0.424-0.448-0.64-0.672c-2.976-3.2-5.48-7.168-7.24-11.984
		c-0.176-0.488-0.352-0.976-0.512-1.488c-0.784-2.448-1.416-5.064-1.76-7.968c-0.008-0.048,0-0.112-0.008-0.16h23.144
		C345.968,110.48,352,116.472,352,123.84z M129.92,39.76c0-4.28,3.48-7.76,7.76-7.76h108.64c4.28,0,7.76,3.48,7.76,7.76v38.72
		H129.92V39.76z M45.44,110.48h23.376c-0.008,0.064-0.008,0.144-0.016,0.208c-0.352,2.872-0.976,5.464-1.744,7.888
		c-0.192,0.592-0.392,1.168-0.608,1.736c-0.824,2.216-1.752,4.296-2.872,6.144c-0.064,0.104-0.104,0.224-0.168,0.32
		c-1.2,1.944-2.576,3.64-4.024,5.216c-0.344,0.376-0.696,0.744-1.056,1.104c-1.48,1.472-3.016,2.848-4.64,4.008
		c0,0-0.016,0.008-0.016,0.016c-1.656,1.184-3.368,2.168-5.088,3.056c-0.408,0.208-0.808,0.416-1.208,0.616
		c-1.688,0.816-3.376,1.552-5.024,2.136c-0.12,0.04-0.24,0.072-0.368,0.12c-1.592,0.552-3.128,1-4.616,1.376
		c-0.36,0.088-0.72,0.184-1.072,0.272c-1.488,0.352-2.928,0.648-4.216,0.856c-0.032,0.008-0.056,0.008-0.088,0.016V123.84
		C32,116.472,38.032,110.48,45.44,110.48z M32,338.56v-22.248c1.896,0.312,4.032,0.76,6.288,1.368
		c0.192,0.056,0.384,0.104,0.576,0.16c1.048,0.296,2.12,0.632,3.208,1.016c0.208,0.072,0.408,0.152,0.616,0.224
		c0.944,0.344,1.904,0.728,2.864,1.144c0.536,0.232,1.064,0.488,1.6,0.744c0.56,0.264,1.12,0.552,1.68,0.848
		c0.608,0.32,1.208,0.648,1.816,1.008c0.48,0.28,0.952,0.6,1.424,0.904c1.112,0.72,2.2,1.504,3.264,2.36
		c0.44,0.352,0.888,0.68,1.312,1.056c0.56,0.488,1.096,1.032,1.632,1.568c0.448,0.448,0.888,0.896,1.32,1.368
		c0.504,0.552,0.992,1.128,1.464,1.72c0.456,0.576,0.888,1.2,1.32,1.824c0.4,0.576,0.808,1.128,1.184,1.744
		c0.72,1.192,1.392,2.464,1.992,3.8c0.24,0.528,0.432,1.104,0.648,1.656c0.392,1,0.768,2.032,1.088,3.12
		c0.184,0.624,0.352,1.272,0.512,1.928c0.296,1.2,0.536,2.456,0.736,3.76c0.088,0.576,0.2,1.128,0.272,1.728
		c0.024,0.208,0.016,0.44,0.04,0.648H45.44C38.032,352,32,345.968,32,338.56z M338.56,352h-23.184
		c0.016-0.136,0.008-0.288,0.024-0.416c0.328-2.888,0.896-5.52,1.648-7.968c0.168-0.56,0.376-1.08,0.568-1.624
		c0.744-2.096,1.616-4.056,2.624-5.832c0.152-0.272,0.28-0.576,0.44-0.84c1.176-1.944,2.512-3.664,3.936-5.24
		c0.336-0.376,0.688-0.728,1.04-1.08c1.344-1.368,2.752-2.632,4.232-3.736c0.16-0.12,0.304-0.256,0.464-0.376
		c1.632-1.184,3.328-2.184,5.032-3.088c0.408-0.216,0.824-0.424,1.232-0.624c1.624-0.792,3.248-1.512,4.84-2.096
		c0.08-0.032,0.152-0.064,0.232-0.096c1.696-0.616,3.344-1.088,4.936-1.504c0.376-0.096,0.744-0.192,1.112-0.28
		c1.504-0.36,2.968-0.672,4.264-0.888l0,0v22.256C352,345.968,345.968,352,338.56,352z"/>
	<path style="fill:#235413;" d="M239.6,204h-21.76v-21.76c0-8.832-7.16-16-16-16h-19.68c-8.84,0-16,7.168-16,16V204H144.4
		c-8.832,0-16,7.168-16,16v19.68c0,8.832,7.168,16,16,16h21.76v21.76c0,8.832,7.16,16,16,16h19.68c8.84,0,16-7.168,16-16v-21.76
		h21.76c8.832,0,16-7.168,16-16V220C255.6,211.168,248.44,204,239.6,204z"/>
</g>
<g>
</g>
<g>
</g>
<g>
</g>
<g>
</g>
<g>
</g>
<g>
</g>
<g>
</g>
<g>
</g>
<g>
</g>
<g>
</g>
<g>
</g>
<g>
</g>
<g>
</g>
<g>
</g>
<g>
</g>
</svg>
