<?xml version="1.0" encoding="iso-8859-1"?>
<!-- Generator: Adobe Illustrator 19.0.0, SVG Export Plug-In . SVG Version: 6.00 Build 0)  -->
<svg version="1.1" id="Capa_1" xmlns="http://www.w3.org/2000/svg" xmlns:xlink="http://www.w3.org/1999/xlink" x="0px" y="0px"
	 viewBox="0 0 384.239 384.239" style="enable-background:new 0 0 384.239 384.239;" xml:space="preserve">
<path style="fill:#51B53B;" d="M111.55,68.957c-90.6,90.6-30.472,236.888-30.472,236.888s146.28,60.136,236.896-30.472
	c90.616-90.656,30.512-236.92,30.512-236.92S202.198-21.667,111.55,68.957z"/>
<path style="fill:#235413;" d="M354.542,20.989c-6.376-2.624-157.264-63.056-254.328,33.984l0,0
	C16.366,138.829,50.11,262.837,62.51,299.093L4.686,356.925c-6.248,6.248-6.248,16.376,0,22.624
	c3.136,3.128,7.224,4.688,11.32,4.688s8.192-1.56,11.312-4.688l57.824-57.824c17.768,6.08,56.52,17.248,101.328,17.248
	c46.728,0,100-12.16,142.8-54.952c97.032-97.08,36.608-247.944,33.992-254.312C361.638,25.749,358.502,22.613,354.542,20.989z
	 M306.646,261.397c-61.24,61.224-152.896,46.264-195.776,34.608l40.496-40.496h54.216c8.832,0,16-7.168,16-16s-7.168-16-16-16
	h-22.224l32.952-32.952h54.216c8.832,0,16-7.168,16-16s-7.168-16-16-16H248.31l36.448-36.448c6.248-6.248,6.248-16.376,0-22.624
	c-6.248-6.248-16.384-6.248-22.624,0l-14.712,14.712v-22.2c0-8.832-7.168-16-16-16s-16,7.168-16,16v54.2l-32.992,32.992v-22.232
	c0-8.832-7.16-16-16-16c-8.832,0-16,7.168-16,16v54.216l-16.96,16.96c-0.04,0.04-0.08,0.08-0.12,0.12l-45.12,45.12
	c-11.656-42.888-26.616-134.544,34.6-195.768c71.72-71.688,185.168-38.952,213.152-29.344
	C345.614,76.269,378.326,189.685,306.646,261.397z"/>
<g>
</g>
<g>
</g>
<g>
</g>
<g>
</g>
<g>
</g>
<g>
</g>
<g>
</g>
<g>
</g>
<g>
</g>
<g>
</g>
<g>
</g>
<g>
</g>
<g>
</g>
<g>
</g>
<g>
</g>
</svg>
