<?xml version="1.0" encoding="iso-8859-1"?>
<!-- Generator: Adobe Illustrator 19.0.0, SVG Export Plug-In . SVG Version: 6.00 Build 0)  -->
<svg version="1.1" id="Capa_1" xmlns="http://www.w3.org/2000/svg" xmlns:xlink="http://www.w3.org/1999/xlink" x="0px" y="0px"
	 viewBox="0 0 384 384" style="enable-background:new 0 0 384 384;" xml:space="preserve">
<path style="fill:#DBAD56;" d="M139.144,194.664c0,91.944,52.88,176,52.88,176s52.88-84.056,52.88-176s-52.88-176-52.88-176
	S139.144,102.728,139.144,194.664z"/>
<g>
	<path style="fill:#FF7526;" d="M94.76,194.664c0-42.16-78.736-35.552-78.736-35.552v35.552v35.552
		C16.024,230.224,94.76,236.832,94.76,194.664z"/>
	<path style="fill:#FF7526;" d="M289.28,194.664c0-42.16,78.736-35.552,78.736-35.552v35.552v35.552
		C368.024,230.224,289.28,236.832,289.28,194.664z"/>
</g>
<g>
	<path style="fill:#235413;" d="M298.224,331.048c8.832,0,16-7.168,16-16v-35.192c0-8.832-7.168-16-16-16s-16,7.168-16,16v35.192
		C282.224,323.88,289.384,331.048,298.224,331.048z"/>
	<path style="fill:#235413;" d="M351.032,383.84c8.832,0,16-7.168,16-16v-52.8c0-8.832-7.168-16-16-16s-16,7.168-16,16v52.8
		C335.032,376.68,342.2,383.84,351.032,383.84z"/>
	<path style="fill:#235413;" d="M369.336,140.504c-5.736-0.48-56.784-4.04-81.904,19.056c-5.128,4.72-8.872,10.28-11.232,16.448
		h-15.832C255.04,87.192,207.672,10.864,205.544,7.48C202.616,2.824,197.496,0,192,0c-5.504,0-10.616,2.824-13.544,7.48
		c-2.128,3.384-49.496,79.712-54.824,168.52H107.8c-2.368-6.16-6.104-11.728-11.232-16.448
		c-25.112-23.096-76.168-19.528-81.904-19.056C6.376,141.192,0,148.128,0,156.448v71.112c0,8.32,6.376,15.248,14.656,15.944
		c1.536,0.128,6.312,0.48,12.976,0.48c18.224,0,50.536-2.616,68.928-19.528c5.128-4.72,8.872-10.28,11.232-16.448h15.832
		c5.328,88.808,52.696,165.128,54.824,168.52C181.384,381.176,186.496,384,192,384c5.496,0,10.616-2.824,13.544-7.48
		c2.128-3.384,49.496-79.712,54.824-168.52H276.2c2.368,6.16,6.104,11.728,11.232,16.448c18.392,16.912,50.704,19.528,68.928,19.528
		c6.656,0,11.44-0.344,12.976-0.48c8.288-0.688,14.664-7.624,14.664-15.944V156.44C384,148.128,377.624,141.192,369.336,140.504z
		 M192,49.688c13.536,27.728,32.76,75.216,36.264,126.312h-72.528C159.24,124.904,178.464,77.416,192,49.688z M74.92,200.872
		c-8.44,7.784-27.72,10.512-42.92,11v-39.768c15.16,0.464,34.408,3.192,42.904,11c2.688,2.472,3.832,5.136,3.832,8.888
		C78.736,195.752,77.592,198.408,74.92,200.872z M192,334.312c-13.536-27.728-32.76-75.216-36.264-126.312h72.528
		C224.76,259.096,205.536,306.584,192,334.312z M352,211.896c-15.168-0.464-34.408-3.192-42.904-11
		c-2.688-2.472-3.832-5.136-3.832-8.888c0-3.752,1.144-6.408,3.824-8.872c8.432-7.776,27.72-10.512,42.92-11v39.76H352z"/>
	<path style="fill:#235413;" d="M192,269.456c8.832,0,16-7.168,16-16v-17.592c0-8.832-7.168-16-16-16c-8.84,0-16,7.168-16,16v17.592
		C176,262.288,183.16,269.456,192,269.456z"/>
	<path style="fill:#235413;" d="M102.232,315.048v-35.192c0-8.832-7.168-16-16-16s-16,7.168-16,16v35.192c0,8.832,7.168,16,16,16
		S102.232,323.88,102.232,315.048z"/>
	<path style="fill:#235413;" d="M33.424,299.048c-8.832,0-16,7.168-16,16v52.8c0,8.832,7.168,16,16,16s16-7.168,16-16v-52.8
		C49.424,306.208,42.256,299.048,33.424,299.048z"/>
</g>
<g>
</g>
<g>
</g>
<g>
</g>
<g>
</g>
<g>
</g>
<g>
</g>
<g>
</g>
<g>
</g>
<g>
</g>
<g>
</g>
<g>
</g>
<g>
</g>
<g>
</g>
<g>
</g>
<g>
</g>
</svg>
