<?xml version="1.0" encoding="iso-8859-1"?>
<!-- Generator: Adobe Illustrator 19.0.0, SVG Export Plug-In . SVG Version: 6.00 Build 0)  -->
<svg version="1.1" id="Capa_1" xmlns="http://www.w3.org/2000/svg" xmlns:xlink="http://www.w3.org/1999/xlink" x="0px" y="0px"
	 viewBox="0 0 384 384" style="enable-background:new 0 0 384 384;" xml:space="preserve">
<path style="fill:#DBAD56;" d="M332.016,149.96c0,77.568-62.704,131.648-140.04,131.648s-140.04-54.08-140.04-131.648H332.016z"/>
<polygon style="fill:#FF7526;" points="16.024,149.96 51.928,149.96 51.928,105.736 332.016,105.736 332.016,149.96 368.024,149.96 
	"/>
<g>
	<path style="fill:#235413;" d="M368,131.296h-20.008v-28.224c0-8.832-7.16-16-16-16H51.912c-8.832,0-16,7.168-16,16v28.224H16
		c-8.84,0-16,7.168-16,16s7.16,16,16,16h20.76c4.568,43.936,27.952,80.92,62.848,104.416l-69.912,90.512
		c-5.4,6.992-4.112,17.04,2.88,22.448c2.912,2.24,6.352,3.328,9.768,3.328c4.784,0,9.52-2.136,12.672-6.216l23.064-29.856h227.744
		l23.064,29.856c3.152,4.08,7.888,6.216,12.672,6.216c3.416,0,6.856-1.088,9.768-3.336c6.992-5.4,8.28-15.448,2.88-22.44
		l-69.912-90.504c34.904-23.496,58.28-60.48,62.856-104.416H368c8.832,0,16-7.168,16-16S376.832,131.296,368,131.296z
		 M67.912,119.072H316v12.224H67.912V119.072z M281.104,315.92H102.8l25.48-32.992c19.264,7.72,40.712,12.008,63.664,12.008
		s44.408-4.296,63.664-12.008L281.104,315.92z M191.952,262.944c-64.872,0-115.112-41.832-122.968-99.648H314.92
		C307.064,221.104,256.824,262.944,191.952,262.944z"/>
	<path style="fill:#235413;" d="M176,16v34.168c0,8.832,7.168,16,16,16c8.84,0,16-7.168,16-16V16c0-8.832-7.16-16-16-16
		C183.168,0,176,7.168,176,16z"/>
	<path style="fill:#235413;" d="M228.752,24.816v34.168c0,8.84,7.168,16,16,16s16-7.16,16-16V24.816c0-8.84-7.168-16-16-16
		C235.912,8.816,228.752,15.984,228.752,24.816z"/>
	<path style="fill:#235413;" d="M123.256,24.816v34.168c0,8.84,7.168,16,16,16s16-7.16,16-16V24.816c0-8.84-7.168-16-16-16
		S123.256,15.984,123.256,24.816z"/>
</g>
<g>
</g>
<g>
</g>
<g>
</g>
<g>
</g>
<g>
</g>
<g>
</g>
<g>
</g>
<g>
</g>
<g>
</g>
<g>
</g>
<g>
</g>
<g>
</g>
<g>
</g>
<g>
</g>
<g>
</g>
</svg>
