<?xml version="1.0" encoding="iso-8859-1"?>
<!-- Generator: Adobe Illustrator 19.0.0, SVG Export Plug-In . SVG Version: 6.00 Build 0)  -->
<svg version="1.1" id="Capa_1" xmlns="http://www.w3.org/2000/svg" xmlns:xlink="http://www.w3.org/1999/xlink" x="0px" y="0px"
	 viewBox="0 0 384 384" style="enable-background:new 0 0 384 384;" xml:space="preserve">
<ellipse style="fill:#51B53B;" cx="192" cy="194.64" rx="33.424" ry="32.536"/>
<circle style="fill:#FF833B;" cx="192" cy="60.664" r="42"/>
<path style="fill:#235413;" d="M106.008,304.736c2.648-5.592,1.832-12.2-2.08-16.984l-43.544-53.2
	c-4.288-5.24-11.392-7.2-17.768-4.936C36.248,231.888,32,237.92,32,244.68v53.2C32,345.368,71.48,384,119.992,384
	c29.736,0,56.072-14.504,72.008-36.656C207.936,369.504,234.272,384,264.008,384C312.52,384,352,345.368,352,297.88v-53.2
	c0-6.76-4.248-12.792-10.616-15.064c-6.384-2.272-13.48-0.312-17.768,4.936l-43.544,53.2c-3.912,4.784-4.728,11.392-2.08,16.984
	c2.648,5.584,8.28,9.152,14.464,9.152h25.048C310.424,335.936,289.12,352,264.008,352C233.128,352,208,327.72,208,297.88v-60.064
	c19.408-6.552,33.424-24.616,33.424-45.872c0-21.264-14.008-39.328-33.424-45.88v-32.36c24.216-6.968,42-29.28,42-55.704
	c0-31.984-26.016-58-58-58s-58,26.016-58,58c0,26.424,17.784,48.736,42,55.704v32.36c-19.416,6.552-33.424,24.616-33.424,45.88
	c0,21.256,14.008,39.32,33.424,45.872v60.064c0,29.84-25.128,54.12-56.008,54.12c-25.112,0-46.416-16.064-53.488-38.12h25.048
	C97.728,313.88,103.36,310.32,106.008,304.736z M166,58c0-14.336,11.664-26,26-26s26,11.664,26,26s-11.664,26-26,26
	S166,72.336,166,58z M192,175.408c9.608,0,17.424,7.416,17.424,16.536S201.616,208.48,192,208.48
	c-9.608,0-17.424-7.416-17.424-16.536S182.392,175.408,192,175.408z"/>
<g>
</g>
<g>
</g>
<g>
</g>
<g>
</g>
<g>
</g>
<g>
</g>
<g>
</g>
<g>
</g>
<g>
</g>
<g>
</g>
<g>
</g>
<g>
</g>
<g>
</g>
<g>
</g>
<g>
</g>
</svg>
