<?xml version="1.0" encoding="iso-8859-1"?>
<!-- Generator: Adobe Illustrator 19.0.0, SVG Export Plug-In . SVG Version: 6.00 Build 0)  -->
<svg version="1.1" id="Capa_1" xmlns="http://www.w3.org/2000/svg" xmlns:xlink="http://www.w3.org/1999/xlink" x="0px" y="0px"
	 viewBox="0 0 384.096 384.096" style="enable-background:new 0 0 384.096 384.096;" xml:space="preserve">
<g>
	<path style="fill:#DBAD56;" d="M192.718,340.024l-106.48,29.2c-15.28,4.96-31.68-3.36-36.72-18.64
		c-4.96-15.28,3.36-31.76,18.64-36.8l13.76-4.56L192.718,340.024z"/>
	<path style="fill:#DBAD56;" d="M315.998,305.384l-13.84,4.56h-0.08l-110.8-30.8l106.64-29.2c15.28-5.04,31.68,3.36,36.72,18.64
		C339.598,283.864,331.278,300.344,315.998,305.384z"/>
</g>
<path style="fill:#D2982C;" d="M334.638,350.584c-5.04,15.28-21.44,23.6-36.72,18.64l-105.2-29.2l-110.8-30.8l-13.76-3.84
	c-15.28-5.04-23.6-21.52-18.64-36.8c5.04-15.28,21.44-23.68,36.72-18.64l105.04,29.2l110.8,30.8h0.08l13.84,3.84
	C331.278,318.824,339.598,335.304,334.638,350.584z"/>
<path style="fill:#51B53B;" d="M286.238,93.864v97.6c0,6.48-5.28,11.76-11.76,11.76h-164.8c-6.48,0-11.76-5.28-11.76-11.76v-97.6
	L286.238,93.864L286.238,93.864z"/>
<path style="fill:#FF7526;" d="M310.718,69.304c0,13.6-10.96,24.56-24.48,24.56H97.918c-13.52,0-24.48-10.96-24.48-24.56
	s10.96-24.64,24.48-24.64h188.32C299.758,44.664,310.718,55.704,310.718,69.304z"/>
<g>
	<path style="fill:#235413;" d="M349.814,352.936c0.008-0.024,0.016-0.048,0.024-0.072c5.384-16.6,0.568-34.12-11.192-45.856
		c11.688-11.664,16.608-29.328,11.168-46.096c-3.776-11.432-11.752-20.736-22.464-26.184c-10.616-5.408-22.704-6.392-34.032-2.776
		l-102.056,27.944l-100.04-27.8c-11.448-3.792-23.704-2.848-34.472,2.632c-10.712,5.448-18.688,14.752-22.488,26.256
		c-5.392,16.6-0.568,34.12,11.184,45.856c-11.68,11.664-16.6,29.328-11.16,46.096c6.288,19.056,24.168,31.16,42.864,31.16
		c4.432,0,8.904-0.68,13.28-2.104l102.296-28.048l100.216,27.84c4.6,1.496,9.272,2.2,13.88,2.2
		C325.814,383.984,343.55,371.896,349.814,352.936z M251.414,276.6l50.712-13.88c0.264-0.072,0.528-0.152,0.792-0.24
		c3.296-1.088,6.824-0.808,9.92,0.768c3.136,1.6,5.472,4.328,6.56,7.624c2.24,6.912-1.536,14.384-8.432,16.664l-9.264,3.056
		l-6.952-1.936L251.414,276.6z M81.262,351.336c-6.88,2.232-14.312-1.552-16.552-8.36c-2.24-6.912,1.536-14.392,8.456-16.672
		l9.144-3.032l50.288,13.984L81.262,351.336z M319.414,342.944c-2.28,6.864-9.728,10.64-17.232,8.192L97.894,294.4l-11.704-3.256
		c-0.008,0-0.016,0-0.016,0l-13.032-3.616c-6.888-2.272-10.672-9.744-8.456-16.592c1.112-3.368,3.448-6.096,6.584-7.696
		c1.768-0.896,3.672-1.376,5.728-1.376c1.552,0,3.192,0.272,4.928,0.832l215.832,60c0.264,0.072,0.528,0.144,0.8,0.2l12.408,3.424
		C317.854,328.584,321.63,336.04,319.414,342.944z"/>
	<path style="fill:#235413;" d="M109.654,216.56h164.8c15.304,0,27.76-12.456,27.76-27.76v-84.936
		c14.384-6.232,24.488-20.56,24.488-37.224c0-22.408-18.168-40.64-40.488-40.64h-55.36c-6.312-15.24-21.312-26-38.8-26
		c-17.464,0-32.432,10.76-38.728,26H97.894c-22.32,0-40.488,18.232-40.488,40.64c0,16.664,10.104,31,24.488,37.224V188.8
		C81.894,204.104,94.35,216.56,109.654,216.56z M270.206,184.56H113.894V107.2h156.312L270.206,184.56L270.206,184.56z M97.894,58
		h68.232h51.92h68.152c4.68,0,8.488,3.872,8.488,8.64c0,4.72-3.808,8.56-8.488,8.56H97.894c-4.68,0-8.488-3.84-8.488-8.56
		C89.414,61.872,93.214,58,97.894,58z"/>
</g>
<g>
</g>
<g>
</g>
<g>
</g>
<g>
</g>
<g>
</g>
<g>
</g>
<g>
</g>
<g>
</g>
<g>
</g>
<g>
</g>
<g>
</g>
<g>
</g>
<g>
</g>
<g>
</g>
<g>
</g>
</svg>
