<?xml version="1.0" encoding="iso-8859-1"?>
<!-- Generator: Adobe Illustrator 19.0.0, SVG Export Plug-In . SVG Version: 6.00 Build 0)  -->
<svg version="1.1" id="Capa_1" xmlns="http://www.w3.org/2000/svg" xmlns:xlink="http://www.w3.org/1999/xlink" x="0px" y="0px"
	 viewBox="0 0 384 384" style="enable-background:new 0 0 384 384;" xml:space="preserve">
<path style="fill:#FF833B;" d="M134.808,225.488c-16.336,15.296-26.544,37.096-26.544,61.256c0,46.36,37.504,83.92,83.752,83.92
	s83.752-37.552,83.752-83.92c0-24.16-10.2-45.952-26.536-61.256l-57.216-56.896L134.808,225.488z"/>
<ellipse style="fill:#FF7526;" cx="192.32" cy="288.08" rx="32.24" ry="32.32"/>
<rect x="33.624" y="62.584" style="fill:#DBAD56;" width="316.72" height="52.96"/>
<g>
	<path style="fill:#235413;" d="M203.28,154.584c-6.232-6.208-16.328-6.208-22.56,0l-57.048,56.736
		c-19.976,18.8-31.424,45.304-31.424,72.768C92.248,339.176,136.992,384,192,384c55,0,99.752-44.824,99.752-99.92
		c0-27.528-11.512-54.112-31.248-72.6L203.28,154.584z M192,352c-37.36,0-67.752-30.472-67.752-67.92
		c0-19,7.632-36.608,21.48-49.576c0.12-0.112,0.232-0.224,0.344-0.336L192,188.488l46.272,46.008
		c13.848,12.984,21.48,30.592,21.48,49.584C259.752,321.528,229.36,352,192,352z"/>
	<path style="fill:#235413;" d="M192.28,237.088c-26.624,0-48.28,21.68-48.28,48.336c0,26.664,21.656,48.352,48.28,48.352
		c26.616,0,48.264-21.688,48.264-48.352C240.536,258.776,218.888,237.088,192.28,237.088z M192.28,301.776
		c-8.976,0-16.28-7.336-16.28-16.352c0-9.008,7.304-16.336,16.28-16.336c8.968,0,16.264,7.328,16.264,16.336
		C208.536,294.44,201.24,301.776,192.28,301.776z"/>
	<path style="fill:#235413;" d="M368,75.92c8.832,0,16-7.168,16-16s-7.168-16-16-16h-1.68V16c0-8.832-7.168-16-16-16
		c-8.84,0-16,7.168-16,16v27.92H49.6V16c0-8.832-7.168-16-16-16s-16,7.168-16,16v27.92H16c-8.84,0-16,7.168-16,16s7.16,16,16,16h1.6
		v20.96H16c-8.84,0-16,7.168-16,16s7.16,16,16,16h1.6v239.04c0,8.832,7.168,16,16,16s16-7.168,16-16V128.88h284.72v239.04
		c0,8.832,7.16,16,16,16c8.832,0,16-7.168,16-16V128.88H368c8.832,0,16-7.168,16-16s-7.168-16-16-16h-1.68V75.92L368,75.92
		L368,75.92z M49.6,75.92h284.72v20.96H49.6V75.92z"/>
</g>
<g>
</g>
<g>
</g>
<g>
</g>
<g>
</g>
<g>
</g>
<g>
</g>
<g>
</g>
<g>
</g>
<g>
</g>
<g>
</g>
<g>
</g>
<g>
</g>
<g>
</g>
<g>
</g>
<g>
</g>
</svg>
