<?xml version="1.0" encoding="iso-8859-1"?>
<!-- Generator: Adobe Illustrator 19.0.0, SVG Export Plug-In . SVG Version: 6.00 Build 0)  -->
<svg version="1.1" id="Capa_1" xmlns="http://www.w3.org/2000/svg" xmlns:xlink="http://www.w3.org/1999/xlink" x="0px" y="0px"
	 viewBox="0 0 384 384" style="enable-background:new 0 0 384 384;" xml:space="preserve">
<path style="fill:#D9D8D2;" d="M368.024,317.784c0,0-14.24-52.56-74.64-52.56s-74.64,52.56-74.64,52.56l10.72-78.96l4.16-30.88
	l7.76-57.28l7.12-52.64h89.76L368.024,317.784z"/>
<rect x="16" y="317.784" style="fill:#DBAD56;" width="149.28" height="52.88"/>
<path style="fill:#FF833B;" d="M368.024,317.784h-149.28c0,0,14.24-52.56,74.64-52.56S368.024,317.784,368.024,317.784z"/>
<rect x="218.72" y="317.784" style="fill:#DBAD56;" width="149.28" height="52.88"/>
<path style="fill:#FF833B;" d="M165.304,317.784H16.024c0,0,14.24-52.56,74.64-52.56S165.304,317.784,165.304,317.784z"/>
<path style="fill:#D9D8D2;" d="M165.304,317.784c0,0-14.24-52.56-74.64-52.56s-74.64,52.56-74.64,52.56l29.76-219.76h89.76
	l7.12,52.64l7.76,57.28l4.16,30.88L165.304,317.784z"/>
<g>
	<path style="fill:#FF833B;" d="M143.144,72.104c0,14.32-11.52,25.92-25.76,25.92h-53.44c-14.24,0-25.76-11.6-25.76-25.92
		c0-14.24,11.52-25.84,25.76-25.84h53.44C131.624,46.264,143.144,57.864,143.144,72.104z"/>
	<path style="fill:#FF833B;" d="M345.864,72.104c0,14.32-11.52,25.92-25.76,25.92h-53.44c-14.24,0-25.76-11.6-25.76-25.92
		c0-14.24,11.52-25.84,25.76-25.84h53.44C334.344,46.264,345.864,57.864,345.864,72.104z"/>
</g>
<path style="fill:#51B53B;" d="M241.384,150.664l-7.76,57.28c0,0-10.16-22-41.84-22s-41.36,22-41.36,22l-7.76-57.28
	c0,0,12.48-17.52,49.12-17.52S241.384,150.664,241.384,150.664z"/>
<path style="fill:#299113;" d="M233.624,207.944l-4.16,30.88h-74.88l-4.16-30.88c0,0,9.68-22,41.36-22
	S233.624,207.944,233.624,207.944z"/>
<path style="fill:#235413;" d="M383.888,313.912c-0.024-0.312,0.008-0.624-0.04-0.936l-29.72-219.432
	c4.816-6.832,7.704-15.12,7.704-24.104c0-17.848-11.264-33.008-27-39.008C329.256,12.808,312.776,0,293.36,0
	s-35.896,12.808-41.48,30.432c-15.736,6-27,21.16-27,39.008c0,8.984,2.888,17.272,7.704,24.104l-3.712,27.408
	c-9.336-3.672-21.504-6.472-37.104-6.472c-15.416,0-27.416,2.736-36.648,6.36l-3.696-27.296c4.816-6.832,7.704-15.12,7.704-24.104
	c0-17.848-11.264-33.008-27-39.008C126.536,12.808,110.056,0,90.64,0S54.744,12.808,49.16,30.432c-15.736,6-27,21.16-27,39.008
	c0,8.984,2.888,17.272,7.704,24.104L0.144,312.976c-0.04,0.32-0.016,0.632-0.04,0.944s-0.072,0.608-0.08,0.92
	c0,0.096-0.024,0.184-0.024,0.28V368c0,8.832,7.16,16,16,16h149.28c8.832,0,16-7.168,16-16v-52.88c0-0.096-0.024-0.192-0.032-0.296
	c-0.008-0.296-0.056-0.592-0.08-0.896c-0.024-0.328,0.008-0.64-0.04-0.968l-8.232-60.808h38.2l-8.232,60.808
	c-0.048,0.328-0.016,0.64-0.04,0.968c-0.024,0.296-0.072,0.592-0.08,0.896c0,0.104-0.032,0.192-0.032,0.296V368
	c0,8.832,7.168,16,16,16H368c8.832,0,16-7.168,16-16v-52.88c0-0.096-0.024-0.184-0.032-0.28
	C383.968,314.528,383.912,314.224,383.888,313.912z M242.304,260.36l2.968-21.952c0.008-0.04,0.016-0.072,0.024-0.112l2.392-17.776
	l7.592-56.096l1.936-14.272c0-0.008,0-0.016,0-0.024l5.248-38.768h4.184h53.44h4.176l20.184,149.024
	c-1.8-1.112-3.68-2.168-5.616-3.184c-0.432-0.224-0.896-0.432-1.336-0.648c-1.8-0.904-3.656-1.752-5.568-2.552
	c-0.704-0.296-1.416-0.584-2.136-0.864c-2.016-0.784-4.096-1.504-6.24-2.168c-0.448-0.136-0.88-0.296-1.336-0.432
	c-2.576-0.752-5.264-1.392-8.024-1.944c-0.72-0.144-1.456-0.256-2.184-0.384c-2.176-0.384-4.408-0.696-6.696-0.944
	c-0.856-0.096-1.704-0.192-2.576-0.264c-3.032-0.256-6.136-0.432-9.36-0.432s-6.328,0.176-9.36,0.432
	c-0.872,0.072-1.72,0.168-2.568,0.264c-2.296,0.248-4.536,0.568-6.728,0.952c-0.712,0.128-1.448,0.232-2.152,0.376
	c-2.768,0.552-5.456,1.192-8.048,1.944c-0.44,0.128-0.848,0.28-1.28,0.416c-2.168,0.664-4.272,1.4-6.312,2.192
	c-0.696,0.272-1.392,0.552-2.072,0.84c-1.96,0.816-3.856,1.688-5.688,2.608c-0.4,0.2-0.824,0.384-1.216,0.592
	C245.992,258.192,244.104,259.248,242.304,260.36z M256.88,69.44c0-5.424,4.376-9.84,9.76-9.84h53.44c5.384,0,9.76,4.416,9.76,9.84
	c0,5.472-4.376,9.92-9.76,9.92h-53.44C261.256,79.36,256.88,74.912,256.88,69.44z M245.8,298.968
	c0.568-0.656,1.216-1.296,1.832-1.952c0.584-0.624,1.136-1.248,1.768-1.856c0.656-0.64,1.408-1.248,2.12-1.872
	c0.688-0.608,1.336-1.224,2.072-1.808c0.768-0.608,1.632-1.176,2.456-1.76c0.792-0.56,1.536-1.144,2.376-1.688
	c0.896-0.568,1.896-1.072,2.848-1.608c0.88-0.496,1.712-1.016,2.648-1.472c1.056-0.52,2.224-0.952,3.344-1.416
	c0.952-0.4,1.856-0.84,2.864-1.192c1.256-0.448,2.64-0.784,3.984-1.16c0.992-0.28,1.928-0.616,2.968-0.856
	c1.568-0.36,3.28-0.584,4.96-0.832c0.936-0.144,1.8-0.352,2.776-0.464c2.712-0.296,5.56-0.464,8.552-0.464
	c2.976,0,5.792,0.16,8.488,0.448c0.912,0.096,1.736,0.28,2.616,0.408c1.72,0.248,3.448,0.488,5.056,0.84
	c0.984,0.216,1.872,0.512,2.816,0.76c1.384,0.376,2.792,0.728,4.088,1.176c0.928,0.32,1.784,0.696,2.672,1.048
	c1.184,0.472,2.384,0.936,3.496,1.464c0.856,0.408,1.64,0.856,2.448,1.288c1.024,0.552,2.056,1.104,3.016,1.696
	c0.76,0.472,1.48,0.976,2.2,1.472c0.888,0.616,1.776,1.232,2.608,1.872c0.672,0.52,1.304,1.056,1.936,1.592
	c0.776,0.664,1.536,1.328,2.256,2.008c0.576,0.544,1.12,1.096,1.656,1.656c0.672,0.688,1.32,1.384,1.936,2.088
	c0.216,0.248,0.416,0.496,0.624,0.736h-95.6C245.72,299.064,245.752,299.016,245.8,298.968z M191.76,146.48
	c17.232,0,27.392,4.464,32.592,7.816l-2.616,19.336c-0.28-0.128-0.592-0.224-0.872-0.352c-1.472-0.664-3-1.28-4.584-1.856
	c-0.512-0.184-1.016-0.376-1.544-0.552c-2.016-0.672-4.104-1.28-6.304-1.776c-0.336-0.08-0.696-0.128-1.04-0.2
	c-1.928-0.408-3.928-0.736-6-0.992c-0.648-0.08-1.296-0.16-1.96-0.224c-2.472-0.24-5-0.408-7.672-0.408
	c-2.632,0-5.128,0.168-7.568,0.4c-0.672,0.064-1.336,0.144-1.992,0.224c-1.944,0.24-3.816,0.544-5.632,0.92
	c-0.44,0.088-0.904,0.16-1.344,0.256c-2.168,0.488-4.24,1.072-6.224,1.736c-0.472,0.16-0.912,0.336-1.376,0.496
	c-1.568,0.56-3.08,1.168-4.536,1.816c-0.272,0.12-0.584,0.216-0.856,0.344l-2.616-19.296
	C164.632,150.984,174.72,146.48,191.76,146.48z M43.352,298.392c0.608-0.696,1.264-1.384,1.928-2.072
	c0.536-0.56,1.088-1.112,1.664-1.664c0.712-0.68,1.472-1.336,2.248-2c0.632-0.544,1.264-1.08,1.936-1.6
	c0.824-0.64,1.712-1.256,2.6-1.872c0.72-0.496,1.432-1,2.2-1.472c0.96-0.6,1.992-1.144,3.016-1.696
	c0.808-0.44,1.6-0.888,2.448-1.288c1.104-0.528,2.304-0.992,3.488-1.464c0.888-0.36,1.744-0.736,2.68-1.056
	c1.296-0.448,2.704-0.808,4.088-1.176c0.944-0.248,1.832-0.544,2.816-0.76c1.6-0.352,3.328-0.592,5.048-0.84
	c0.888-0.128,1.712-0.312,2.632-0.416c2.696-0.288,5.512-0.448,8.488-0.448c2.976,0,5.792,0.168,8.488,0.448
	c0.912,0.096,1.728,0.28,2.608,0.408c1.72,0.248,3.456,0.488,5.064,0.84c0.976,0.216,1.864,0.504,2.808,0.76
	c1.392,0.376,2.8,0.736,4.104,1.184c0.928,0.32,1.776,0.696,2.656,1.048c1.192,0.472,2.392,0.944,3.512,1.472
	c0.848,0.408,1.632,0.848,2.44,1.28c1.032,0.552,2.064,1.104,3.024,1.704c0.76,0.472,1.472,0.976,2.192,1.472
	c0.888,0.616,1.776,1.232,2.6,1.872c0.68,0.528,1.32,1.072,1.952,1.616c0.76,0.648,1.512,1.304,2.216,1.976
	c0.592,0.56,1.152,1.128,1.704,1.696c0.648,0.672,1.288,1.344,1.88,2.024c0.224,0.256,0.432,0.512,0.648,0.768H42.736
	C42.944,298.88,43.136,298.632,43.352,298.392z M134.848,256.584c-1.84-0.928-3.736-1.792-5.688-2.608
	c-0.688-0.288-1.376-0.568-2.072-0.84c-2.04-0.792-4.144-1.528-6.312-2.192c-0.432-0.136-0.84-0.288-1.28-0.416
	c-2.584-0.752-5.272-1.392-8.04-1.944c-0.704-0.144-1.432-0.248-2.152-0.376c-2.184-0.384-4.424-0.704-6.728-0.952
	c-0.856-0.096-1.704-0.192-2.568-0.264c-3.032-0.256-6.136-0.432-9.36-0.432c-3.232,0-6.328,0.176-9.36,0.432
	c-0.872,0.072-1.72,0.168-2.576,0.264c-2.288,0.248-4.52,0.568-6.696,0.944c-0.728,0.128-1.472,0.24-2.184,0.384
	c-2.76,0.552-5.44,1.192-8.024,1.944c-0.456,0.136-0.88,0.296-1.336,0.432c-2.144,0.664-4.224,1.384-6.24,2.168
	c-0.72,0.28-1.432,0.568-2.136,0.864c-1.912,0.8-3.768,1.656-5.568,2.552c-0.44,0.224-0.904,0.424-1.336,0.648
	c-1.936,1.016-3.816,2.072-5.616,3.184L59.76,111.352h4.176h53.44h4.176l5.248,38.768c0,0.008,0,0.016,0,0.024l1.936,14.272
	l7.592,56.096l2.392,17.776c0.008,0.04,0.024,0.072,0.024,0.112l2.968,21.952c-1.808-1.12-3.688-2.176-5.632-3.184
	C135.672,256.968,135.248,256.784,134.848,256.584z M54.16,69.44c0-5.424,4.376-9.84,9.76-9.84h53.44c5.384,0,9.76,4.416,9.76,9.84
	c0,5.472-4.376,9.92-9.76,9.92H63.92C58.536,79.36,54.16,74.912,54.16,69.44z M149.28,352H32v-20.88h117.28V352z M168.568,220.16
	l-1.512-11.184c0.416-0.488,0.824-0.984,1.376-1.52l0.008-0.008c0.664-0.648,1.472-1.32,2.352-1.984
	c0.248-0.184,0.52-0.368,0.784-0.56c0.768-0.536,1.624-1.056,2.544-1.568c0.28-0.152,0.528-0.304,0.824-0.456
	c1.216-0.608,2.56-1.176,4.04-1.664c0.328-0.104,0.696-0.192,1.032-0.288c1.248-0.376,2.6-0.688,4.032-0.944
	c0.512-0.088,1.024-0.176,1.56-0.256c1.904-0.264,3.912-0.448,6.152-0.448c2.256,0,4.296,0.192,6.224,0.456
	c0.544,0.072,1.064,0.168,1.584,0.256c1.44,0.256,2.8,0.568,4.056,0.944c0.368,0.112,0.768,0.2,1.12,0.312
	c1.464,0.488,2.8,1.048,4.008,1.64c0.424,0.208,0.8,0.44,1.2,0.656c0.744,0.416,1.44,0.832,2.08,1.264
	c0.44,0.296,0.88,0.592,1.272,0.896c0.432,0.328,0.8,0.648,1.176,0.976c0.96,0.832,1.808,1.648,2.456,2.392l-1.504,11.088
	L168.568,220.16L168.568,220.16z M352,352H234.72v-20.88H352V352z"/>
<g>
</g>
<g>
</g>
<g>
</g>
<g>
</g>
<g>
</g>
<g>
</g>
<g>
</g>
<g>
</g>
<g>
</g>
<g>
</g>
<g>
</g>
<g>
</g>
<g>
</g>
<g>
</g>
<g>
</g>
</svg>
