<?xml version="1.0" encoding="iso-8859-1"?>
<!-- Generator: Adobe Illustrator 19.0.0, SVG Export Plug-In . SVG Version: 6.00 Build 0)  -->
<svg version="1.1" id="Capa_1" xmlns="http://www.w3.org/2000/svg" xmlns:xlink="http://www.w3.org/1999/xlink" x="0px" y="0px"
	 viewBox="0 0 383.992 383.992" style="enable-background:new 0 0 383.992 383.992;" xml:space="preserve">
<g>
	<path style="fill:#D9D8D2;" d="M139.064,258.98c0,35.2-27.52,63.68-61.52,63.68s-61.52-28.48-61.52-63.68
		c0-35.12,27.52-63.6,61.52-63.6c7.76,0,15.12,1.44,21.92,4.16c0.08,0,0.08,0,0.16,0.08h0.08
		C122.744,208.82,139.064,231.94,139.064,258.98z"/>
	<path style="fill:#D9D8D2;" d="M368.024,258.98c0,35.2-27.52,63.68-61.52,63.68s-61.52-28.48-61.52-63.68
		c0-27.12,16.48-50.32,39.6-59.44c6.8-2.72,14.16-4.16,21.92-4.16C340.504,195.38,368.024,223.86,368.024,258.98z"/>
</g>
<path style="fill:#235413;" d="M306.48,176.716c-4.064,0-8.048,0.384-11.968,1.008l-16.808-45.52l-18.056-52.208h39.664v28.912
	c0,8.832,7.168,16,16,16s16-7.168,16-16V63.996c0-8.832-7.168-16-16-16h-78.128c-5.168,0-10.032,2.504-13.032,6.712
	c-3,4.216-3.784,9.624-2.096,14.512l18.112,52.368H131.144l-11.528-22.712h16.4c8.832,0,16-7.168,16-16s-7.168-16-16-16H51.088
	c-8.832,0-16,7.168-16,16s7.168,16,16,16h32.64l20.176,39.76l-14.424,39.08c-3.928-0.624-7.912-1-11.96-1
	c-42.744,0-77.52,35.712-77.52,79.6c0,43.936,34.776,79.68,77.52,79.68s77.52-35.744,77.52-79.68
	c0-15.856-4.488-30.776-12.432-43.36h99.032c-8.048,12.688-12.68,27.68-12.68,43.36c0,43.936,34.776,79.68,77.512,79.68
	c42.752,0,77.52-35.744,77.52-79.68C384,212.428,349.224,176.716,306.48,176.716z M132.528,153.588H251.48l10.112,27.368H122.416
	L132.528,153.588z M77.52,303.996c-25.096,0-45.52-21.392-45.52-47.68c0-26.248,20.424-47.6,45.52-47.6
	c0.176,0,0.336,0.048,0.504,0.048l-15.456,41.872l-0.064,0.168c-3.056,8.288,1.176,17.488,9.472,20.544c1.832,0.672,3.696,1,5.544,1
	c6.504,0,12.624-4,15.008-10.464l15.152-41.032c9.496,8.896,15.36,21.712,15.36,35.464
	C123.04,282.604,102.616,303.996,77.52,303.996z M306.48,303.996c-25.096,0-45.512-21.392-45.512-47.68
	c0-13.752,5.864-26.544,15.368-35.44l15.144,41c3.056,8.296,12.288,12.52,20.552,9.464c6.456-2.384,10.456-8.504,10.464-15
	c0-1.84-0.32-3.72-1-5.544l-15.52-42.032c0.176,0,0.336-0.048,0.504-0.048c25.104,0,45.52,21.352,45.52,47.6
	C352,282.604,331.576,303.996,306.48,303.996z"/>
<g>
</g>
<g>
</g>
<g>
</g>
<g>
</g>
<g>
</g>
<g>
</g>
<g>
</g>
<g>
</g>
<g>
</g>
<g>
</g>
<g>
</g>
<g>
</g>
<g>
</g>
<g>
</g>
<g>
</g>
</svg>
