<?xml version="1.0" encoding="iso-8859-1"?>
<!-- Generator: Adobe Illustrator 19.0.0, SVG Export Plug-In . SVG Version: 6.00 Build 0)  -->
<svg version="1.1" id="Capa_1" xmlns="http://www.w3.org/2000/svg" xmlns:xlink="http://www.w3.org/1999/xlink" x="0px" y="0px"
	 viewBox="0 0 384 384" style="enable-background:new 0 0 384 384;" xml:space="preserve">
<path style="fill:#FF7526;" d="M314.984,238.264v87.6c0,0-44.48,2.32-44.56,44.72h-156.8c-0.08-42.4-44.56-44.72-44.56-44.72v-87.6
	H314.984z"/>
<g>
	<path style="fill:#E4C180;" d="M350.264,101.864c0,22-14.96,34.32-35.28,37.6c-3.84,0.72-7.92,1.04-12.16,1.04h-40.4v-77.2h40.4
		C328.984,63.304,350.264,75.704,350.264,101.864z"/>
	<rect x="192" y="63.304" style="fill:#E4C180;" width="70.4" height="77.2"/>
	<rect x="121.6" y="63.304" style="fill:#E4C180;" width="70.4" height="77.2"/>
	<path style="fill:#E4C180;" d="M121.624,63.304v77.2h-40.32c-4.24,0-8.32-0.32-12.24-1.04c-20.32-3.36-35.2-15.6-35.2-37.6
		c0-26.16,21.2-38.56,47.44-38.56L121.624,63.304L121.624,63.304z"/>
</g>
<path style="fill:#3EAD26;" d="M314.984,139.464v98.8h-52.56v-97.76h40.4C307.064,140.504,311.144,140.184,314.984,139.464z"/>
<rect x="121.6" y="140.504" style="fill:#51B53B;" width="140.8" height="97.76"/>
<path style="fill:#3EAD26;" d="M121.624,140.504v97.76h-52.56v-98.8c3.92,0.72,8,1.04,12.24,1.04H121.624z"/>
<g>
	<path style="fill:#E4C180;" d="M69.064,220.664v105.2c0,0-53.04,1.28-53.04-52.56C16.024,219.384,69.064,220.664,69.064,220.664z"
		/>
	<path style="fill:#E4C180;" d="M368.024,273.304c0,53.84-53.04,52.56-53.04,52.56v-105.2
		C314.984,220.664,368.024,219.384,368.024,273.304z"/>
</g>
<g>
	<path style="fill:#235413;" d="M209.6,290.36h-35.16c-8.832,0-16,7.168-16,16s7.168,16,16,16h35.16c8.832,0,16-7.168,16-16
		S218.44,290.36,209.6,290.36z"/>
	<path style="fill:#235413;" d="M330.96,203.768v-54.816c22.008-8.112,35.28-26.176,35.28-49.752
		c0-32.632-25.504-54.56-63.448-54.56H262.4h-27.84v-1.856c0.16-3.936-0.04-18.752-10.664-30.208C218.584,6.84,208.736,0,192,0
		c-16.728,0-26.584,6.832-31.896,12.576c-10.624,11.456-10.816,26.28-10.664,30.208v1.856H121.6H81.28
		c-37.944,0-63.44,21.928-63.44,54.56c0,23.552,13.304,41.648,35.2,49.744v54.816c-10.2,2.16-23.32,6.936-34.208,17.56
		C6.336,233.52,0,250.112,0,270.64c0,20.488,6.328,37.048,18.808,49.232c10.888,10.632,24.024,15.416,34.232,17.568v3.032
		c0,3.104,0.904,6.152,2.608,8.752l17.92,27.44c2.952,4.52,7.992,7.248,13.392,7.248h25.864c0.264,0.024,0.512,0.088,0.776,0.088
		h156.8c0.264,0,0.512-0.064,0.776-0.08h25.864c5.408,0,10.448-2.728,13.4-7.248l17.92-27.44c1.696-2.6,2.6-5.648,2.6-8.752v-3.032
		c10.208-2.16,23.344-6.944,34.232-17.568C377.672,307.688,384,291.128,384,270.64c0-20.528-6.336-37.12-18.832-49.32
		C354.296,210.712,341.168,205.928,330.96,203.768z M293.656,311.664c-0.568,0.208-1.12,0.4-1.688,0.632
		c-1.976,0.792-3.952,1.664-5.92,2.664c-0.216,0.112-0.424,0.248-0.64,0.36c-1.728,0.912-3.44,1.92-5.128,3.008
		c-0.584,0.384-1.16,0.792-1.736,1.192c-1.36,0.944-2.688,1.96-3.984,3.04c-0.552,0.456-1.104,0.896-1.632,1.368
		c-1.752,1.56-3.456,3.216-5.032,5.04c-0.016,0.016-0.032,0.04-0.048,0.064c-1.552,1.792-2.968,3.768-4.312,5.832
		c-0.408,0.632-0.776,1.296-1.16,1.952c-0.944,1.6-1.808,3.272-2.608,5.024c-0.336,0.744-0.68,1.48-0.992,2.248
		c-0.912,2.272-1.704,4.656-2.344,7.184c-0.056,0.224-0.152,0.416-0.208,0.648H127.776c-0.072-0.288-0.192-0.536-0.272-0.824
		c-0.632-2.456-1.4-4.776-2.28-6.984c-0.32-0.792-0.672-1.544-1.016-2.312c-0.792-1.736-1.648-3.392-2.576-4.968
		c-0.392-0.664-0.768-1.344-1.184-1.984c-1.328-2.048-2.744-4-4.28-5.792c-0.032-0.04-0.072-0.088-0.104-0.128
		c-1.568-1.816-3.264-3.456-5-5.008c-0.544-0.48-1.096-0.928-1.648-1.384c-1.296-1.072-2.608-2.08-3.96-3.016
		c-0.584-0.408-1.168-0.824-1.76-1.208c-1.672-1.08-3.36-2.08-5.08-2.984c-0.232-0.12-0.448-0.264-0.68-0.384
		c-1.96-1-3.936-1.872-5.904-2.664c-0.576-0.232-1.136-0.424-1.712-0.64c-1.448-0.536-2.872-1.024-4.296-1.456
		c-0.328-0.096-0.664-0.24-0.984-0.336V251.6h20.56v19.2c0,8.832,7.168,16,16,16s16-7.168,16-16v-19.2h108.8v19.2
		c0,8.832,7.168,16,16,16s16-7.168,16-16v-19.2h20.56v58.264c-0.32,0.096-0.648,0.232-0.976,0.328
		C296.552,310.632,295.112,311.12,293.656,311.664z M137.6,76.64h27.84H176v45.2h-38.4V76.64z M298.96,218v1.6H278.4v-65.76h20.56
		V218z M246.4,219.6H137.6v-65.76H192h54.4V219.6z M105.6,219.6H85.04V218v-64.16h20.56V219.6z M334.24,99.2
		c0,4.52,0,18.28-22.216,21.872c-2.728,0.504-5.832,0.768-9.224,0.768h-24.4v-45.2h24.4C314.536,76.64,334.24,79.568,334.24,99.2z
		 M246.4,121.84H208v-45.2h10.56h27.84V121.84z M181.416,41.472c-0.056-1.544,0.408-5.336,2.216-7.208
		C185.432,32.392,189.176,32,192,32s6.568,0.392,8.376,2.264c1.792,1.856,2.264,5.6,2.216,7.168
		c-0.024,0.32-0.032,0.648-0.032,0.968v2.24H192h-10.56V42.4C181.44,42.2,181.424,41.664,181.416,41.472z M81.28,76.64h24.32v45.2
		H81.28c-3.448,0-6.504-0.256-9.632-0.824C49.84,117.408,49.84,103.704,49.84,99.2C49.84,79.568,69.536,76.64,81.28,76.64z
		 M32,270.64c0-11.656,2.96-20.248,9.04-26.28c3.552-3.52,7.848-5.84,12-7.376v67.224c-4.104-1.52-8.36-3.8-11.88-7.232
		C34.992,290.96,32,282.344,32,270.64z M342.984,296.832c-3.56,3.528-7.872,5.848-12.024,7.384v-67.224
		c4.096,1.512,8.344,3.8,11.856,7.224C349,250.256,352,258.896,352,270.64C352,282.256,349.048,290.824,342.984,296.832z"/>
</g>
<g>
</g>
<g>
</g>
<g>
</g>
<g>
</g>
<g>
</g>
<g>
</g>
<g>
</g>
<g>
</g>
<g>
</g>
<g>
</g>
<g>
</g>
<g>
</g>
<g>
</g>
<g>
</g>
<g>
</g>
</svg>
