<svg id="Layer_1" enable-background="new 0 0 512 512" height="512" viewBox="0 0 512 512" width="512" xmlns="http://www.w3.org/2000/svg"><path d="m512 253.967c0 18.76-15.26 34.02-34.02 34.02h-86.57c5.46 9.42 8.59 20.35 8.59 32 0 8.84-7.16 16-16 16h-68c-28.97 0-53.22-20.65-58.8-48h-9.79c5.46 9.42 8.59 20.35 8.59 32 0 8.84-7.16 16-16 16h-68c-28.97 0-53.22-20.65-58.8-48h-10.4c-27.04 0-44.365 34.014-10.5 55.89 2.711.154.382.11 43.7.11 8.84 0 16 7.16 16 16s-7.16 16-16 16c-38.295 0-45.032.216-50.91-.62-48.032-5.466-85.09-46.356-85.09-95.38 0-52.93 43.07-96 96-96 15.321 0 12.223.348 16.04-1.04.883-13.931 17.933-20.01 27.53-10.02l11.2-4.07c27.175-9.876 25.23-6.31 25.23-8.87 0-8.84 7.16-16 16-16 7.01 0 12.96 4.5 15.12 10.77 21.203-3.004 32.88-2.394 32.88-2.77 0-8.84 7.16-16 16-16s16 7.16 16 16c0 2.361-1.918-.423 24.48 4.08 1.75-6.94 8.03-12.08 15.52-12.08 8.84 0 16 7.16 16 16v3.27c11.44 3.31 22.7 7.34 33.76 12.08.601.258-2.479.594 26.93-3.61 18.9-2.7 37.12 6.43 46.47 22.35l35.04 7.79c24.65 5.478 41.8 26.943 41.8 52.1z" fill="#90c94f"/><path d="m507.88 233.247c-6.49 9.73-22.28 18.92-59.88 14.74-72-8-96-32-96-8 0 8-24-16-40-16s-64 16-88 16-48-24-56-16-96 16-112 32c-15.36 15.36-38.1 15.97-25.73 93.9-18.62-17.52-30.27-42.38-30.27-69.9 0-52.93 43.07-96 96-96 15.321 0 12.223.348 16.04-1.04.883-13.931 17.933-20.01 27.53-10.02l11.2-4.07c27.175-9.876 25.23-6.31 25.23-8.87 0-8.84 7.16-16 16-16 7.01 0 12.96 4.5 15.12 10.77 21.203-3.004 32.88-2.394 32.88-2.77 0-8.84 7.16-16 16-16s16 7.16 16 16c0 2.361-1.918-.423 24.48 4.08 1.75-6.94 8.03-12.08 15.52-12.08 8.84 0 16 7.16 16 16v3.27c11.44 3.31 22.7 7.34 33.76 12.08.601.258-2.479.594 26.93-3.61 18.9-2.7 37.12 6.43 46.47 22.35l35.04 7.79c17.46 3.88 31.18 15.79 37.68 31.38z" fill="#99d856"/></svg>