<svg id="Layer_1" enable-background="new 0 0 516.022 516.022" height="512" viewBox="0 0 516.022 516.022" width="512" xmlns="http://www.w3.org/2000/svg"><path d="m429.149 319.712c-8.713 1.726-17.104-3.92-18.83-12.55-2.73-13.66-11.99-25.02-24.31-30.71v48.34c0 37.19-16.54 71.85-45.4 95.23-3.033 2.575-3.203 2.28-24.88 10.91 3.73 16.1 5.82 32.58 6.21 49.09h24.07c8.84 0 16 7.16 16 16s-7.16 16-16 16h-40c-8.84 0-16-7.16-16-16 0-16.033.235-30.689-4.4-53.1l-71.3 28.37c-6.66 8.7-13.93 16.98-21.76 24.81-13.147 13.157-29.539 19.92-50.54 19.92-37.5 0-68-30.5-68-68 0-8.84 7.16-16 16-16s16 7.16 16 16c0 19.85 16.15 36 36 36 10.389 0 19.341-2.144 27.63-10.25 40.685-40.685 64.37-94.746 64.37-155v-138.97c0-24.71 5.58-49.45 16.15-71.78l1.86-44.62c2.203-52.901 61.962-81.072 104.22-51.28 38.124 26.913 25.28 17.845 55 38.83 7.87 5.569 6.77 13.507 6.77 20.1 0 30.822-24.42 55.833-54.86 56.93 26.324 42.041 22.86 77.658 22.86 114.71 27.96 6.92 49.99 29.67 55.69 58.19 1.73 8.67-3.89 17.1-12.55 18.83z" fill="#c79a83"/><g fill="#e0b7a3"><path d="m314.009 82.022c-9.916 19.833-13.619 42.992-9.344 66.128 8.902 48.174 22.952 134.613 17.344 173.872-8 56-56 96-104 136-22.73 18.95-38.29 19.94-48.37 15.75-.337-1.787 64.37-53.752 64.37-155v-138.97c0-24.71 5.58-49.45 16.15-71.78l1.86-44.62c2.203-52.901 61.962-81.072 104.22-51.28l30.91 21.82c-23.05 53.97-73.14 48.08-73.14 48.08z"/><path d="m425.992 320.025c-7.472 0-14.151-5.259-15.673-12.865-3.489-17.448-17.626-31.136-35.178-34.062l-55.764-9.294c-7.715-1.286-13.369-7.961-13.369-15.782v-56c0-8.836 7.163-16 16-16s16 7.164 16 16v42.446l42.394 7.066c30.582 5.097 55.216 28.948 61.296 59.351 1.973 9.869-5.566 19.14-15.706 19.14z"/></g></svg>