<svg id="Layer_1" enable-background="new 0 0 512.002 512.002" height="512" viewBox="0 0 512.002 512.002" width="512" xmlns="http://www.w3.org/2000/svg"><g><path d="m430.93 272.624c26.705 87.74 41.07 123.327 41.07 185.32 0 22.06-17.94 40-40 40h-8c-17.65 0-32-14.35-32-32 0-8.84 7.16-16 16-16s16 7.16 16 16h8c4.41 0 8-3.59 8-8 0-56.398-12.479-86.629-39.68-176-.92-3.03-1.75-6.08-2.47-9.14-10.188 22.061-3.04 8.877-29.17 52.44 1.05 9.05-.12 18.39-3.65 27.21-28.749 71.879-14.945 41.101-51.14 113.49h54.11c8.84 0 16 7.16 16 16s-7.16 16-16 16c-85.944 0-83.788 1.005-89.25-2.94-19.85-13.48-28.4-38.69-20.81-61.48l5.2-15.61-11 6.61c-37.442 22.436-86.407 3.027-97.86-39.49 0-.8-38.556-1.907-66.71-39.03-19.25-25.39-25.37-57.55-16.78-88.23 13.941-49.779 25.21-82.32 25.21-135.83 0-17.65-14.35-32-32-32s-32 14.35-32 32v24c0 8.84-7.16 16-16 16s-16-7.16-16-16v-24c0-35.29 28.71-64 64-64s64 28.71 64 64c0 57.955-12.114 93.446-26.39 144.46-10.95 39.099 13.903 77.557 51.15 85.86 5.077-51.353 36.873-98.59 78.13-127.48l93.65-65.55c12.19-8.53 19.46-22.5 19.46-37.37 0-48.812 37.689-79.92 77.61-79.92 16.099 0 23.781-.803 34.82 3.65 18.876 7.587 31.57 26.005 31.57 46.77v14.95l11.03 11.03c27.699 27.733 8.14 75.6-31.31 75.6-14.807 0-21.722.603-32.2-2.76-10.101 21.846-13.487 52.235-4.59 81.44z" fill="#a07765"/><path d="m512 149.664c0 24.41-19.87 44.28-44.28 44.28-14.807 0-21.722.603-32.2-2.76l-.43.93c-3.13 7.41-1.53-8.94-3.09-1.17-23.8-14.4-46.3-21.59-56-41-10.66-21.32 19.08-74.61 40.11-107.8 1.83-.13 3.66-.2 5.5-.2 16.099 0 23.781-.803 34.82 3.65 18.876 7.587 31.57 26.005 31.57 46.77v14.95c11.297 11.296 24 21.044 24 42.35z" fill="#ffdfba"/><g fill="#c79a83"><path d="m424 173.944c8 24-48 56-64 80s-64 24-24 40 0 80 0 80 0-32-16-48-48 16-104 40c-29.9 12.81-43.83-24.53-50.33-62.14 14.18-31.75 36.73-59.07 65.22-79.02l93.65-65.55c12.293-8.602 19.46-21.857 19.46-39.68 0-43.642 35.523-77.61 77.61-77.61 16.099 0 23.781-.803 34.82 3.65-14.55 11.05-30.54 22.46-40.43 32.35-32 32 0 72 8 96z"/><path d="m327.995 417.948c-11.244 0-19.069-11.403-14.851-21.947l22.173-55.433c6.71-16.773-6.716-34.609-24.587-32.989l-69.282 6.298c-8.802.804-16.583-5.685-17.383-14.485s5.685-16.583 14.485-17.383l69.282-6.298c41.736-3.792 72.73 37.908 57.195 76.742l-22.173 55.433c-2.5 6.255-8.509 10.062-14.859 10.062z"/><path d="m446.867 193.944c-36.481 0-64.345-33.446-57.103-69.654l4.297-21.484c1.733-8.665 10.16-14.286 18.828-12.551 8.665 1.733 14.284 10.163 12.551 18.828l-4.297 21.483c-3.262 16.309 9.288 31.378 25.724 31.378 8.836 0 16 7.164 16 16s-7.164 16-16 16z"/></g></g></svg>