<svg id="Layer_1" enable-background="new 0 0 512 512" height="512" viewBox="0 0 512 512" width="512" xmlns="http://www.w3.org/2000/svg"><path d="m476.12 87.711c-7.094-1.427-13.389-5.396-17.72-11.17-9.31-12.41-23.07-20.79-38.14-23.54l-13.58-31.36c-3.3-7.61-11.87-11.44-19.74-8.82-20.9 6.97-34.94 26.45-34.94 48.48 0 4.5 5.602-8.855-50.42 111.2l-150 7.5c-18.64.09-35.94 6.01-50.15 16.03-56.219 1.381-101.43 47.529-101.43 103.97v32c0 8.84 7.16 16 16 16s16-7.16 16-16v-32c0-27.32 15.29-51.13 37.77-63.33-15.63 40.815 8.835 74.078-25.08 108.02-5.695 5.695-4.69 11.307-4.69 21.64 0 35.22 7.825 71.676 24 105.38v12.29c0 8.84 7.16 16 16 16s16-7.16 16-16c0-16.482.544-18.671-1.69-23.16-9.22-18.44-15.7-38.28-19.21-58.62l25.28-14.32c1.53-.07 3.05-.18 4.57-.32 47.246 47.233 20.912 22.812 95.05 87.68v8.74c0 8.84 7.16 16 16 16s16-7.16 16-16v-16c0-4.61-1.99-9-5.46-12.04l-58.54-51.22v-48.74h159.73c8.22 19.38 14.21 36.53 16.27 42.61v85.39c0 8.84 7.16 16 16 16s16-7.16 16-16v-84.71l20.4-47.6 67.3-33.65c-1.54 20.04-9.39 38.81-22.63 53.96h-17.07c-8.84 0-16 7.16-16 16s7.16 16 16 16h24c4.24 0 8.31-1.69 11.31-4.69 23.66-23.65 36.69-55.11 36.69-88.56 0-18.887.221-21.128-.7-23.43-.746-2.986-3.541-6.899-6.56-8.71-5.253-3.5-7.082-2.61-59.12-2.61 11.41-40.691 10.38-69.372 10.38-96h27.37c24.61 0 44.63-20.02 44.63-44.63v-3.9c0-21.2-15.09-39.6-35.88-43.76z" fill="#a07765"/><path d="m471.06 86.211c-1.48 16.25-5.28 32.01-15.06 41.79-16 16-72 8-72 8s16 112-8 144-48-16-64 8-24 16-64 16c-40.792 0-80 0-88-16-16 40-72 64-104 72-5.662 1.415-9.06 6.79-15.99 6.99-.017-.381-.01-.026-.01-10.99 0-4.24 1.69-8.31 4.69-11.31 33.793-33.82 9.545-67.454 25.08-108.02-22.48 12.2-37.77 36.01-37.77 63.33v32c0 8.84-7.16 16-16 16s-16-7.16-16-16v-32c0-56.46 45.23-102.589 101.43-103.97 14.21-10.02 31.51-15.94 50.15-16.03l150-7.5c56.013-120.037 50.42-106.699 50.42-111.2 0-22.03 14.04-41.51 34.94-48.48 7.87-2.62 16.44 1.21 19.74 8.82l13.58 31.36c15.07 2.75 28.83 11.13 38.14 23.54 3.27 4.36 7.66 7.69 12.66 9.67z" fill="#c79a83"/></svg>