<svg id="Layer_1" enable-background="new 0 0 512.042 512.042" height="512" viewBox="0 0 512.042 512.042" width="512" xmlns="http://www.w3.org/2000/svg"><path d="m462.1 197.94h-6.06v8c0 8.83-7.16 16-16 16s-16-7.17-16-16v-9.63c-3.77-.7-7.49-1.61-11.13-2.74l-20.29 43.96c-9.06 19.62-22.84 36.25-40 48.62l7.3 109.51 15.74 70.81c1.92 8.62-3.52 17.17-12.15 19.09-8.556 1.9-17.157-3.462-19.09-12.15-17.169-77.26-16.23-72.637-16.34-74.41l-5.26-78.92-34.04 79.43 14.88 66.96c1.92 8.62-3.52 17.17-12.15 19.09-8.556 1.9-17.157-3.462-19.09-12.15-16.573-74.599-16.22-72.873-16.22-73.2-.116-.785.141 2.655-4.49-66.76-35.853 2.277-74.257-3.203-106.58-17.88-8.27 14.66-19.48 27.57-33.01 37.84l15.77 114.34c1.327 9.606-6.126 18.19-15.87 18.19-7.87 0-14.73-5.8-15.83-13.82l-13.98-101.37c-5.662 2.821.658.314-37.4 13.91l11.09 83.16c1.17 8.76-4.99 16.81-13.75 17.98-8.988 1.144-16.827-5.162-17.97-13.75-6.937-52.039-6.887-51.636-16-120-.734-5.505.683-7.249 8.71-27.52 1.294-3.234 9.616-15.126 9.65-34.4.019-10.114-1.908-15.852-5.57-30.5-1.597-6.39-2.41-13.208-2.41-13.92-14.229 2.374-24.208-14.273-15.01-25.77 33.17-41.463 32.364-40.495 32.85-40.97 16.83-23.41 43.67-38.83 73.88-40.52l215.6-11.97c29.775-59.55 27.925-55.901 28.43-56.76-7.13-5.52-15.3-9.72-24.09-12.23-8.5-2.43-13.42-11.29-10.99-19.78 2.43-8.5 11.29-13.41 19.78-10.99 16.1 4.6 30.74 13.1 42.73 24.42 43.829 0 44.096-.251 46.62.59 7.24 1.977 18.29 10.19 23.97 15.87l45.08 45.08c31.189 31.222 9.298 85.26-35.31 85.26z" fill="#cccaca"/><path d="m488.13 103.4c-.02.21-.06.41-.09.62-8 48-24 40-56 32s-48 16-48 16-48 104-120 120c-24 32-128-8-128-8s-24 40-56 40c-14.213 0-30.36 1.95-53.5-13.89.03-16.088-6.185-26.492-7.98-44.4 0-.106-.682.21-2.53.21-13.24 0-20.922-15.448-12.48-26 34.473-43.091 32.039-40.094 32.82-40.93 2.385-2.444 25.351-37.844 73.91-40.56l215.6-11.97c29.775-59.55 27.925-55.901 28.43-56.76-7.13-5.52-15.3-9.72-24.09-12.23-8.5-2.43-13.42-11.29-10.99-19.78 2.43-8.5 11.29-13.41 19.78-10.99 16.1 4.6 30.74 13.1 42.73 24.42 45.918 0 42.998-.038 43.98.09 15.239 1.634 35.551 25.311 62.41 52.17z" fill="#ece2e2"/><path d="m392.045 109.942c-6.35 0-12.358-3.806-14.86-10.062-8.194-20.484-25.751-36.333-46.964-42.394-8.497-2.428-13.417-11.284-10.989-19.78 2.429-8.496 11.286-13.411 19.78-10.989 30.663 8.762 56.04 31.669 67.884 61.278 4.204 10.51-3.563 21.947-14.851 21.947z" fill="#999"/></svg>