<svg id="Layer_1" enable-background="new 0 0 512.02 512.02" height="512" viewBox="0 0 512.02 512.02" width="512" xmlns="http://www.w3.org/2000/svg"><path d="m276.73 266.883v2.83c0 11.93 9.71 21.64 21.64 21.64h20.44c21.44 0 41.6 8.35 56.76 23.51 10.154 10.154 2.762 27.32-11.31 27.32-4.1 0-8.19-1.56-11.32-4.69-9.12-9.12-21.24-14.14-34.13-14.14h-20.44c-27.45 0-53.64-21.001-53.64-56.47h-51.08c-2.53 5.36-5.63 10.41-9.21 15.06 24.585 0 43.965 8.115 59.36 23.51 6.25 6.25 6.25 16.38 0 22.63-6.254 6.254-16.368 6.252-22.62 0-9.12-9.12-21.24-14.14-34.13-14.14h-107.47c.32.38.65.75.98 1.13 41.67 39.34 96.14 60.99 153.47 60.99h119.85c51.139 0 92.857 40.706 94.14 91.84.21 8.83-6.77 16.17-15.61 16.39-9.608 0-16.181-7.31-16.39-15.6-.83-34-28.13-60.63-62.14-60.63h-119.85c-65.8 0-128.32-24.96-176.03-70.28-2.188-2.06-14.826-16.94-24.17-31.47-2.407-4.814-28.699-40.46-33.16-92.6-10.373-119.62 101.481-211.304 215.71-179.69 26.466 7.348 40.796 17.249 65.02 31.79 10.887-11.219 25.876-18.536 43.43-19.14 39.706-1.049 69.572 35.388 62.45 73.95 92.797 24.754 68.549 18.288 112.86 30.1 7.01 1.87 11.88 8.21 11.88 15.46 0 55.542-44.933 100.7-100.71 100.7z" fill="#999"/><path d="m467.24 141.954c-8.23 19.37-23.6 38.74-35.22 58.11-13.888 23.147-83.923 6.856-128 8-32.092.833-39.147 20.629-56 24-31.03 6.21-105.4-40.55-129.71-58.1 14.39 19.48 25.59 76.13-30.29 90.1-33.66 8.41-65.1-20.78-87.35-50.35-10.373-119.621 101.481-211.305 215.71-179.691 26.466 7.348 40.796 17.249 65.02 31.79 10.887-11.219 25.876-18.536 43.43-19.14 39.706-1.049 69.572 35.388 62.45 73.95z" fill="#aaa"/></svg>