<svg id="Layer_1" enable-background="new 0 0 512 512" height="512" viewBox="0 0 512 512" width="512" xmlns="http://www.w3.org/2000/svg"><path d="m512 96v18c0 38.6-31.4 70-70 70-7.506 0-12.982.094-21.96-1.27-5.025 38.145-17.103 73.616-36.04 106.32v45.25l20.93 97.7h19.07c8.84 0 16 7.16 16 16s-7.16 16-16 16h-32c-7.54 0-14.06-5.27-15.65-12.65-26.868-125.382-24.35-111.929-24.35-117.61-3.927 4.492-8.176 9.055-12.69 13.57-1.281 1.28.827-.371-34.98 25.88l12.6 58.81h19.07c8.84 0 16 7.16 16 16s-7.16 16-16 16h-32c-7.54 0-14.06-5.27-15.65-12.65-26.794-125.039-24.35-112.163-24.35-117.06-35.444 4.397-74.175.529-107.8-13.26-8.39 15.57-20.47 28.54-34.93 37.96l12.46 81.01h26.27c8.84 0 16 7.16 16 16s-7.16 16-16 16h-40c-7.9 0-14.61-5.76-15.81-13.57l-13.22-85.94c-16.393 4.359-26.426 3.51-55.09 3.51l9.85 64h26.27c8.84 0 16 7.16 16 16s-7.16 16-16 16h-40c-7.9 0-14.61-5.76-15.81-13.57-16.214-105.36-14.659-95.221-14.83-96.42-1.159-7.508-2.89-13 1.62-19.31 20.347-28.486 37.02-45.595 37.02-78.01 0-26.554 9.05-43.627 9.05-44.46-28.48-9.61-49.05-36.55-49.05-68.23v-3.16c0-23.42 11.64-45.16 31.12-58.15 7.36-4.91 17.29-2.92 22.19 4.43 4.9 7.36 2.92 17.29-4.43 22.19-10.57 7.05-16.88 18.84-16.88 31.53v3.16c0 20.22 15.09 36.98 34.59 39.62 19.579-23.288 46.93-37.26 76.15-40.09l152.16-14.72 6.38-9.57c-7.325-10.607-8.816-25.83-1.54-38.92l6.73-12.12c12.41-22.33 35.99-36.2 61.53-36.2h56c4.24 0 8.31 1.69 11.31 4.69l28.58 28.57c20.605 4.121 13.903 2.781 35.25 7.05 7.48 1.5 12.86 8.06 12.86 15.69z" fill="#999"/><path d="m481.59 76.8c-8.06 15.73-17.59 35.2-25.59 43.2-17.889 17.889-80 24-80 24s-16 128-48 144-48-32-48-32-24 16-48 24-80-8-80-8 0 8-48 32c-31.18 15.59-55.6.8-68.9-11.47 3.144-8.623 4.9-18.039 4.9-27.84 0-26.554 9.05-43.627 9.05-44.46-28.48-9.61-49.05-36.55-49.05-68.23v-3.16c0-23.42 11.64-45.16 31.12-58.15 7.36-4.91 17.29-2.92 22.19 4.43 4.9 7.36 2.92 17.29-4.43 22.19-10.57 7.05-16.88 18.84-16.88 31.53v3.16c0 20.22 15.09 36.98 34.59 39.62 19.579-23.288 46.93-37.26 76.15-40.09l152.16-14.72 6.38-9.57c-7.325-10.607-8.816-25.83-1.54-38.92l6.73-12.12c12.41-22.33 35.99-36.2 61.53-36.2h56c4.24 0 8.31 1.69 11.31 4.69l28.58 28.57z" fill="#aaa"/></svg>