<svg id="Layer_1" enable-background="new 0 0 512 512" height="512" viewBox="0 0 512 512" width="512" xmlns="http://www.w3.org/2000/svg"><path d="m506.24 243.715c-10.012-8.344-4.711-3.926-27.92-23.27-13.88-11.57-31.03-18.58-48.94-20.12l-18.36-20.88c-7.713-8.762-21.833-6.578-26.61 3.98l-15.22 33.78c-16 9.7-34.23 14.8-53.02 14.8h-125.5c-20.89 0-40.45 5.82-57.14 15.92-20.91-1.27-37.53-18.69-37.53-39.92v-62.03c0-46.2-31.3-86.29-76.12-97.49-9.993-2.531-19.88 5.05-19.88 15.52v152c0 51.54 33.16 96.98 80.79 113.44-1.127 9.408-.79 6.35-.79 118.56 0 8.84 7.16 16 16 16h32c6.239 0 11.861-3.658 14.45-9.12.674-1.46-.47 1.781 13.96-41.51 3.98-1.19 7.85-2.62 11.59-4.28v38.91c0 8.84 7.16 16 16 16h32c8.84 0 16-7.16 16-16v-56h48v56c0 8.84 7.16 16 16 16h32c8.84 0 16-7.16 16-16v-19.16l18.69 28.04c2.96 4.45 7.96 7.12 13.31 7.12h24c10.085 0 17.668-9.249 15.69-19.14l-15.69-78.44c0-13.578-1.234-30.55 15.31-47.11 16.8-16.784 34.538-15.31 48.69-15.31 26.47 0 48-21.53 48-48 0-4.75-2.11-9.25-5.76-12.29zm-115.55 48.73c-22.14 14.76-47.91 22.56-74.52 22.56h-125.5c-43.38 0-78.67 35.29-78.67 78.67 0-51.721-2.158-64.279 7.64-84.8 19.23-16.14 44.02-25.87 71.03-25.87h125.5c20.27 0 39.9-5.94 56.77-17.19 7.35-4.9 17.28-2.91 22.18 4.44 4.89 7.276 2.958 17.265-4.43 22.19z" fill="#aaa"/><path d="m498.2 237.015c-15.19 5.49-33.2 9.99-42.2 18.99-23.971 23.971-48.049.036-80 24-32 24-160 16-216 24-23.03 3.29-37.95 16.05-47.52 29.94-13.71 19.88-16.48 42.06-16.48 42.06s0-88-24-104-24-56-24-120c0-37.75-16.7-77.58-30.4-103.91.77.07 1.53.2 2.28.39 44.82 11.2 76.12 51.29 76.12 97.49v62.03c0 21.23 16.62 38.65 37.53 39.92 16.69-10.1 36.25-15.92 57.14-15.92h125.5c18.79 0 37.02-5.1 53.02-14.8l15.22-33.78c4.773-10.549 18.89-12.75 26.61-3.98l18.36 20.88c31.823 2.736 47.321 18.771 68.82 36.69z" fill="#ece2e2"/><path d="m96 409.672c-8.837 0-16-7.163-16-16 0-61.021 49.645-110.667 110.667-110.667h125.505c20.271 0 39.898-5.943 56.765-17.187 7.352-4.902 17.286-2.915 22.188 4.438s2.915 17.286-4.438 22.188c-22.14 14.76-47.906 22.562-74.515 22.562h-125.505c-43.377 0-78.667 35.29-78.667 78.667 0 8.836-7.163 15.999-16 15.999z" fill="#999"/></svg>