<svg id="Layer_1" enable-background="new 0 0 512.011 512.011" height="512" viewBox="0 0 512.011 512.011" width="512" xmlns="http://www.w3.org/2000/svg"><path d="m512.011 280.02c0 31.07-21.16 57.58-51.46 64.47l-119.78 27.22 18.42 55.25c3.454 10.34-4.259 21.06-15.18 21.06h-40c-5.35 0-10.35-2.67-13.31-7.12l-27.25-40.88h-100.55l4.89 29.37c1.634 9.717-5.88 18.63-15.78 18.63h-56c-8.84 0-16-7.16-16-16v-85.52c-58.694 5.869-54.829 5.52-56 5.52-13.4 0-20.864-15.549-12.49-26l15.57-19.47-14.22-2.84c-11.527-2.31-16.722-15.874-9.66-25.29l37.36-49.81-24.79-14.87c-9.924-5.954-10.434-20.187-.95-26.83l67.79-47.45-16.33-27.21c-6.918-11.509 2.667-25.988 15.98-24.07l146.36 20.91-4.4-26.44c-2.144-12.864 11.226-22.786 22.94-16.94l92.62 46.31 4.44-26.63c2.073-12.482 17.184-17.724 26.54-9.21l81.07 73.7 15.11-5.04c11.436-3.805 22.83 5.953 20.84 17.81-9.518 57.111-7.78 37.123-7.78 85.37l25.6 19.2c4.03 3.019 6.4 7.759 6.4 12.8z" fill="#c79a83"/><path d="m487.791 162.649-3.76 22.56-100.02-41.19 16 32-192-8 72 24-176 8 104 40-136 24 72 8-127.95 77.88c-8.556-4.889-10.648-16.257-4.54-23.88l15.57-19.47-14.22-2.84c-11.527-2.31-16.722-15.874-9.66-25.29l37.36-49.81-24.79-14.87c-9.924-5.954-10.434-20.187-.95-26.83l67.79-47.45-16.33-27.21c-6.918-11.509 2.667-25.988 15.98-24.07l146.36 20.91-4.4-26.44c-2.144-12.864 11.226-22.786 22.94-16.94l92.62 46.31 4.44-26.63c2.073-12.482 17.184-17.724 26.54-9.21l81.07 73.7 15.11-5.04c11.436-3.804 22.83 5.954 20.84 17.81z" fill="#e0b7a3"/><path d="m512.011 280.02c0 31.07-21.16 57.58-51.46 64.47l-119.78 27.22 18.42 55.25c3.454 10.34-4.259 21.06-15.18 21.06h-40c-5.35 0-10.35-2.67-13.31-7.12l-27.25-40.88h-100.55l4.89 29.37c1.634 9.717-5.88 18.63-15.78 18.63h-56c-8.84 0-16-7.16-16-16v-85.52l-24 2.4v-12.88s136-16 176-24 104-56 104-56v-56l48 24 96-8.25v32.25l25.6 19.2c4.03 3.019 6.4 7.759 6.4 12.8z" fill="#ffdfba"/><g fill="#a07765"><path d="m381.662 242.913c-16.939 0-22.226-23.02-6.988-30.402 27.666-13.405 58.559-20.491 89.337-20.491 8.837 0 16 7.163 16 16s-7.163 16-16 16c-25.974 0-52.041 5.979-75.384 17.288-2.247 1.088-4.625 1.605-6.965 1.605z"/><path d="m23.991 352.021c-8.12 0-15.076-6.157-15.901-14.409-.879-8.792 5.536-16.633 14.329-17.513l186.6-18.66c56.72-5.67 86.338-33.532 121.315-60.27 7.019-5.369 17.062-4.025 22.428 2.994 5.367 7.021 4.026 17.062-2.994 22.428-37.748 28.856-71.662 60.1-137.565 66.689-200.021 20.003-186.952 18.741-188.212 18.741z"/><path d="m360.002 288.02c-7.295 0-9.574-3.158-23.468-14.741-25.762-21.469-27.801-60.611-3.837-84.572 5.53-5.532 14.249-6.251 20.614-1.706l37.64 26.89c7.19 5.137 8.854 15.13 3.718 22.32s-15.129 8.854-22.319 3.719l-23.675-16.914c-1.758 6.994-.554 14.918 4.206 21.306 2.405 3.235 3.333 3.703 17.376 15.41 11.488 9.576 4.635 28.288-10.255 28.288z"/></g></svg>