<svg id="Layer_1" enable-background="new 0 0 511.929 511.929" height="512" viewBox="0 0 511.929 511.929" width="512" xmlns="http://www.w3.org/2000/svg"><path d="m473.664 130.845 6.12-36.74c1.46-8.72-4.43-16.96-13.15-18.41-8.71-1.46-16.96 4.44-18.41 13.15l-6.26 37.53c-6.086.468-12.173 1.868-17.96 4.17v-79.07c0-8.84-7.16-16-16-16s-16 7.16-16 16c0 148.791.3 94.78.3 107.1-4.861 8.912-11.717 33.461-32.1 76.91-17.783-72.762-65.583-116.212-139.32-119.57-205.432-9.348-250.56 228.731-102.96 294.94-3.116 1.007-103.771 33.389-106.82 34.37-7.5 2.41-12.13 9.93-10.91 17.71 1.23 7.78 7.93 13.521 15.81 13.521h317.64c36.21 0 68.44-24.32 78.39-59.13l46.29-162 23.63-14.18c43.364-26.01 38.884-90.815-8.29-110.301zm-372.37 177.169c-11.648-46.59 21.724-102.55 84.41-102.55 81.635 0 125.256 80.138 97.09 144.62-15.33 13.39-30.5 21.13-45.05 22.58-2.263.222-1.136-.01-23.4 7.16 24.651-14.044 44.93-40.71 44.93-68.8 0-36.55-25.27-73.56-73.57-73.56-23.22 0-36.36 10.58-43.29 19.46-9.62 12.32-13.58 29.33-10.08 43.33 4.232 16.926 28.765 41.945 50.66 25.53 16.078-12.049 13.822-24.046 4.54-27.14-8.38-2.79-12.91-11.86-10.12-20.24 2.8-8.38 11.86-12.91 20.24-10.12 32.475 10.833 42.879 54.335 4.54 83.1-40.818 30.621-90.897-3.339-100.9-43.37z" fill="#ffdfba"/><path d="m493.944 144.434c-3.65 22.49 2.06 55.53-53.94 63.53-40.382 5.769-48 168-120 152-22.942-5.098 38.71-83.9 39.16-128.54.36 1.36.71 2.71 1.04 4.06 19.727-41.971 27.236-67.993 32.1-76.91 0-12.003-.3 40.955-.3-107.1 0-8.84 7.16-16 16-16s16 7.16 16 16v79.07c5.786-2.302 11.873-3.702 17.96-4.17l6.26-37.53c1.45-8.71 9.7-14.61 18.41-13.15 8.72 1.45 14.61 9.69 13.15 18.41l-6.12 36.74c7.65 3.161 14.53 7.811 20.28 13.59z" fill="#fff3e4"/><path d="m115.974 411.485 1.95-.63c-126.321-56.664-110.159-234.951 18.78-282.86 45.602-16.954 111.793-18.957 157.23 8.76 35.778 21.832 56.398 58.335 66.27 98.73.23-.49.46-.99.69-1.49 12.403 122.869-117.754 216.556-244.92 177.49z" fill="#c79a83"/><path d="m356.224 221.335c-10.3 42.63-31.26 42.63-52.22 42.63-24 0-24-72-80-80s-88 16-152 64c-17.85 13.39-30.73 17.44-40.01 16.31 5.145-61.198 43.543-113.553 104.71-136.28 45.602-16.954 111.793-18.957 157.23 8.76 31.596 19.279 51.267 49.863 62.29 84.58z" fill="#e0b7a3"/><path d="m264.004 271.965s-8-56-80-48-72 72-72 80 32-48 72-48c16 0 40 0 48 16 14.752 29.502 32 0 32 0z" fill="#e0b7a3"/><g fill="#999"><path d="m408.004 171.475c-8.837 0-16-7.163-16-16v-104c0-8.837 7.163-16 16-16s16 7.163 16 16v104c0 8.837-7.163 16-16 16z"/><path d="m456.024 155.478c-9.932 0-17.423-8.909-15.802-18.633l8-48c1.453-8.716 9.704-14.607 18.412-13.152 8.717 1.452 14.605 9.696 13.152 18.412l-8 48c-1.304 7.826-8.082 13.373-15.762 13.373z"/><path d="m171.935 423.475c-8.836 0-16-7.163-16-16s7.164-16 16-16c45.897 0 87.339-40.728 87.339-80.449 0-36.555-25.271-73.561-73.569-73.561-23.22 0-36.356 10.581-43.288 19.457-9.622 12.322-13.579 29.332-10.08 43.335 4.223 16.893 28.731 41.973 50.656 25.528 16.153-12.114 13.756-24.069 4.541-27.142-8.383-2.794-12.914-11.855-10.12-20.238s11.858-12.911 20.239-10.119c32.404 10.801 42.956 54.287 4.541 83.099-40.853 30.643-90.907-3.393-100.902-43.369-5.887-23.563.207-50.688 15.904-70.789 35.242-45.13 108.039-39.692 145.578-.072 37.145 39.203 41.38 105.136-7.456 151.752-23.015 21.969-53.407 34.568-83.383 34.568z"/></g></svg>