<svg id="Layer_1" enable-background="new 0 0 511.979 511.979" height="512" viewBox="0 0 511.979 511.979" width="512" xmlns="http://www.w3.org/2000/svg"><path d="m321.019 258.792c-3.277 6.603 1.536 14.31 8.85 14.31h86.11c8.84 0 16 7.17 16 16 0 8.84-7.16 16-16 16h-86.11c-28.756 0-49.254-28.59-39.43-56h-84.78l1.41 24h32.91c8.84 0 16 7.17 16 16 0 8.84-7.16 16-16 16h-48c-8.47 0-15.48-6.6-15.97-15.06l-2.41-40.9c-38.74 1.04-72.05 27.67-81.5 65.46l-9.11 36.43c-3.79 15.148-3.01 7.355-3.01 33.78 4.39 30.78 27.85 55.41 58.03 61.56 9.033.891 12.913.597 34.48-.08 32.872-.999 69.4-23.377 69.4-57.02 0-17.952-10.737-32.819-18.77-36.43-6.457-2.901-14.443-1.807-19.92 3.67-6.966 6.966-6.939 18.25 0 25.19 6.481 6.468 6.234 16.576.09 22.72-6.095 6.095-16.165 6.442-22.71-.09-31.536-31.537-8.684-85.05 35.23-85.05 34.865 0 58.08 36.13 58.08 69.99 0 52.529-51.227 87.513-100.43 89.01-18.813.577-20.709.66-23.77.66-62.805 0-115.739-38.362-138.13-91.99-11.135-26.634-12.619-49.305-11.02-76.97 4.01-69.17 29.55-136.17 72.93-190.47l13.78-17.24c74.028-86.152 191.425-88.404 267.18-26.12 18.061-16.21 46.987-18.182 67.37-.51 56.062 48.587 39.361 34.113 84.66 73.37 3.51 3.04 5.52 7.45 5.52 12.09 0 52.94-43.07 96-96 96h-94.11z" fill="#99d856"/><path d="m468.149 115.812c-13.43 35.36-37.55 84.21-68.17 84.21-48 0-136-8-152-8-10.119 0-44.239-49.462-88-40-25.431 5.499-59.418 59.418-80 80-33.23 33.23-60.82 66.46-79.44 77.96 4.209-72.599 30.965-142.847 86.88-207.92 66.744-80.71 186.413-92.175 267.01-25.91 18.061-16.21 46.987-18.182 67.37-.51z" fill="#aaef68"/></svg>