<svg id="Layer_1" enable-background="new 0 0 512.159 512.159" height="512" viewBox="0 0 512.159 512.159" width="512" xmlns="http://www.w3.org/2000/svg"><path d="m479.999 240.079c-8.837 0-16-7.163-16-16v-64c0-8.837 7.163-16 16-16s16 7.163 16 16v64c0 8.837-7.163 16-16 16z" fill="#ece2e2"/><path d="m511.999 88.079c0 23.09 2.898 46.764-16 71.95v64.05c0 8.84-7.16 16-16 16s-16-7.16-16-16v-38.679c-5.08 2.229-10.44 3.939-16 5.069v17.28c0 60.34-20.17 118.61-57.13 165.87l79.7 35.87c15.655 7.041 10.598 30.59-6.57 30.59h-88c-23.33 0-44.57-9.13-60.34-24h-162.1c-8.31 14.34-23.83 24-41.56 24h-96c-15.776 0-22.008-20.552-8.88-29.31l42.27-28.181c-.9-1.99-1.39-4.189-1.39-6.51 0-88.542 72.113-160 160-160h14.72c30.74 0 59.85-14.88 77.85-39.8l36.92-51.13c24-33.23 62.8-53.07 103.79-53.07h54.72c8.84.001 16 7.161 16 16.001z" fill="#a07765"/><path d="m463.999 72.079c-5.56 13.94 3.4 30.97 0 48-8 40-69.737 23.271-72 64-8 144-72 160-88 168s-128 0-200 8c-50.46 5.61-41.98-39.86-32.39-67.57 28.18-45.819 78.78-76.43 136.39-76.43h14.72c30.74 0 59.85-14.88 77.85-39.8l36.92-51.13c24-33.23 62.8-53.07 103.79-53.07z" fill="#c79a83"/></svg>