<svg id="Layer_1" enable-background="new 0 0 512 512" height="512" viewBox="0 0 512 512" width="512" xmlns="http://www.w3.org/2000/svg"><path d="m443.949 102.91c-.526-9.475-8.702-13.12-8.8-13.22-.474-.237 3.499 1.75-63.93-31.97-4.979-32.64-33.219-57.72-67.229-57.72-37.5 0-68 30.5-68 68v15.16l-59.42 89.13c-34.4 51.59-52.58 111.64-52.58 173.65v53.56c0 34.06-18.37 65.71-47.94 82.61-14.213 8.149-8.379 29.89 7.94 29.89h87.51c31.2 0 61.31-7.4 88.49-21.59v5.59c0 8.84 7.16 16 16 16h40c8.84 0 16-7.16 16-16s-7.16-16-16-16h-24v-12.53c52.784-62.243 49.497-57.959 50.76-60.75 12.364-24.411 13.322-33.822 39.34-135.279 12.91-50.361 11.66-102.261-3.5-151.441 54.125 0 50.023.064 51.57-.15 8.439-1.044 14.451-9.01 13.789-16.94zm-113.1 47.03-19.93 49.829c-6.38 15.95-6.91 33.711-1.47 50 10.29 30.881 5.84 64.131-12.22 91.211l-15.9 23.859c-8.597 12.888-24.468 18.907-39.26 15.17-18.22-4.55-29.96-22.01-27.3-40.6 5.492-38.479-6.092-62.682-17.76-93.79-3.1-8.28 1.09-17.5 9.36-20.601 8.28-3.1 17.5 1.091 20.6 9.36 12.375 32.995 26.195 62.561 19.48 109.55-.684 4.79 5.599 7.136 8.25 3.16l15.91-23.859c12.54-18.811 15.63-41.891 8.48-63.341-7.82-23.47-7.07-49.04 2.11-72.01l16.59-41.47-18.6-24.81c-4.44-5.93-4.16-13.93.22-19.49 6.466-8.234 19.061-8.139 25.38.29l24 32c3.35 4.472 4.13 10.362 2.06 15.542z" fill="#f2f2f2"/><path d="m287.99 80c-8 8 8 40 8 40l8 32s-8 48 0 80-32 120-40 128-24 8-24-16-32-104-32-104c0 51.245-6.688 184.014-40 224-18.15 21.78-59.37 27.09-98.98 26.39 1.27-3.409 3.71-6.37 7.04-8.279 29.57-16.9 47.94-48.551 47.94-82.61v-53.56c0-62.011 18.18-122.061 52.58-173.65l59.42-89.13v-15.161c0-37.5 30.5-68 68-68 34.01 0 62.25 25.08 67.23 57.72 69.245 34.628 64.848 32.219 66.75 33.771 3.68 2.917 6.02 7.503 6.02 12.51h-68s-24-16-56-24c-19.86-4.961-24.359-7.642-32-.001z" fill="#999"/><path d="m250.892 381.1c-22.053 0-39.295-19.478-36.123-41.691 5.555-38.88-6.421-63.549-17.761-93.79-3.103-8.274 1.09-17.497 9.363-20.6s17.496 1.09 20.6 9.363c12.364 32.972 26.189 62.557 19.476 109.551-.681 4.769 5.593 7.148 8.256 3.154l15.904-23.856c12.538-18.808 15.629-41.894 8.481-63.338-7.823-23.469-7.071-49.043 2.116-72.011l16.59-41.476-18.604-24.806c-5.302-7.068-3.869-17.098 3.2-22.399 7.07-5.302 17.099-3.869 22.399 3.2l24 32c3.351 4.467 4.13 10.357 2.056 15.542l-19.93 49.824c-6.38 15.949-6.901 33.709-1.47 50.007 10.294 30.88 5.842 64.124-12.214 91.207l-15.904 23.856c-6.867 10.301-18.411 16.262-30.435 16.263z" fill="#aaa"/><path d="m315.99 512h-40c-8.837 0-16-7.163-16-16v-88c0-8.837 7.163-16 16-16s16 7.163 16 16v72h24c8.837 0 16 7.163 16 16s-7.164 16-16 16z" fill="#999"/></svg>