<svg id="Layer_1" enable-background="new 0 0 512.072 512.072" height="512" viewBox="0 0 512.072 512.072" width="512" xmlns="http://www.w3.org/2000/svg"><path d="m510.383 229.143c-12.613 25.213-42.321 37.676-69.31 28.71l-8.5-2.83c-34.454 13.775-35.247 14.024-40.54 16.41l-.25 71.86c6.197 8.578 9.405 11.527 31.2 34.69h13.09c8.84 0 16 7.16 16 16s-7.16 16-16 16h-20c-4.41 0-8.63-1.82-11.65-5.03-27.069-28.759-53.313-51.6-64.37-99.84-19.111 17.054 12.773-9.401-56.52 47.73-1.31 7-2.25 14.07-2.82 21.15 8.54.34 15.36 7.37 15.36 15.99 0 8.84-7.16 16-16 16h-16c-8.84 0-16-7.16-16-16 0-26.397 4.628-53.872 14.08-80h-47.66c-2.048 2.314-2.798 2.998-10.28 10.48-27.395 36.522-25.452 33.588-25 34.04l23.49 23.48h5.37c8.84 0 16 7.16 16 16s-7.16 16-16 16c-11.192 0-17.453 1.167-23.31-4.69l-28.17-28.17c-13.23-13.23-20.52-30.82-20.52-49.53 0-10.41-4.26-20.17-11.79-27.2l-53.1 53.1c-5.89 5.9-10.18 12.96-12.65 20.68 7.67 1.18 13.54 7.81 13.54 15.81 0 8.84-7.16 16-16 16h-16c-8.84 0-16-7.16-16-16 0-22.33 8.7-43.32 24.49-59.11l55.03-55.03c-.66-1.29-1.28-2.6-1.84-3.93-.58-1.25 5.66-4.971-76.46 51.15-11.534 7.894-26.621-1.134-25.11-14.98.604-4.755-.266-1.557 41.58-85.26.37-.74.8-1.46 1.29-2.14 28.075-39.292 73.474-62.7 121.84-62.7h121.32l97.51-22.95c14.4-3.38 27.02-12.6 34.63-25.28 6.488-10.821 22.464-10.224 28.08 1.16l18.31 37.22c9.56 7.61 15.33 19.34 15.33 31.71 0 2.27.88 4.39 2.48 6l24.83 24.83c4.87 4.87 6.08 12.31 3 18.47z" fill="#aaa"/><path d="m489.283 192.574c-12.19 10.44-25.97 19.79-33.21 23.41-16 8-24-8-40-16-14.51-7.25-72.086 48.43-72 48 8-40-32-16-32-16s-30.111 32-48 32c-16 0-72-48-72-48s16 40-16 56c-25.799 12.9-56-24-56-40 0 10.95-11.23 29.38-18.32 39.93-.13-.28-.25-.57-.37-.85-83.233 56.881-77.272 53.24-80.89 54.29-11.944 4.346-25.52-9.641-18.63-22.72 43.209-86.429 40.148-80.504 41.19-81.95 28.075-39.292 73.474-62.7 121.84-62.7h121.32l97.51-22.95c14.4-3.38 27.02-12.6 34.63-25.28 6.488-10.821 22.464-10.224 28.08 1.16l18.31 37.22c9.56 7.61 15.33 19.34 15.33 31.71 0 4.713 3.141 6.661 9.21 12.73z" fill="#cccaca"/></svg>