<svg id="Layer_1" enable-background="new 0 0 516.056 516.056" height="512" viewBox="0 0 516.056 516.056" width="512" xmlns="http://www.w3.org/2000/svg"><path d="m474.003 324h-20.6c-18.231 8.104-34.178 13.882-51.39 32.52.07 44.211 8.97 87.141 26.49 127.671 7.858 1.243 13.818 8.184 13.487 16.466-.345 8.649-7.758 15.344-16.413 15.344h-7.576c-6.322 0-12.05-3.723-14.618-9.5-13.681-30.786-23.777-59.609-29.48-97.78l-9.19 20.936c-7.41 16.879-8.007 36.511-.21 54.535 7.858 1.243 13.818 8.184 13.487 16.466-.345 8.649-7.758 15.344-16.413 15.344h-7.576c-6.322 0-12.05-3.723-14.618-9.5-13.855-31.176-24.196-60.747-29.8-99.89-23.875-4.648-50.752-3.212-74.6 5.279-.52.67-1.07 1.32-1.63 1.96.866 8.501.65 10.64.65 47.521l22.63 22.63c10.678 0 16.989 7.436 17.352 15.234.428 9.188-6.888 16.766-15.982 16.766-7.846 0-13.703.917-19.31-4.69l-32.009-32.012c-2.997-2.997-4.681-7.062-4.681-11.3v-30.54l-43.33 28.58 17.96 17.96c10.678 0 16.989 7.436 17.352 15.234.428 9.188-6.888 16.766-15.982 16.766-7.853 0-13.701.919-19.3-4.681l-32.019-32.019c-2.997-2.997-4.681-7.062-4.681-11.3 0-42.71.724-48.506-2.25-61.66-6.272-27.928-19.775-32.697-27.06-67.189-49.776-6.376-90.69-48.872-90.69-103.151 0-130.428 105.547-236 236-236h128c13.085 0 20.643 14.919 12.9 25.46-30.55 41.67-79.64 66.54-131.3 66.54h-21.6c-70.58 0-128 57.42-128 128 0 12.88 10.21 23.43 22.96 23.97 17.19-15.5 39.19-23.97 62.51-23.97 60.292 0 96.655 9.979 146.25 18.06l24.38 4.86c-2.683-36.753 39.24-60.094 69.21-38.92 33.487 0 57.643 21.263 65.17 47.85 11.94 11.941 7.125 7.123 20.83 20.841 13.278 13.277-2.24 51.309-35.31 51.309z" fill="#999"/><path d="m497.963 261.33c-18 10.46-11.4 27.54-15.96 36.67-8 16-88 0-112 0s-56 32-80 40-80-24-80-24 0 32-16 56c-9.463 14.194-40.26 33.71-74.25 36.34-6.272-27.928-19.775-32.697-27.06-67.189-49.776-6.376-90.69-48.872-90.69-103.151 0-130.428 105.547-236 236-236h128c13.085 0 20.643 14.919 12.9 25.46-30.55 41.67-79.64 66.54-131.3 66.54h-21.6c-70.58 0-128 57.42-128 128 0 12.88 10.21 23.43 22.96 23.97 17.19-15.5 39.19-23.97 62.51-23.97 60.292 0 96.655 9.979 146.25 18.06l24.38 4.86c-2.683-36.753 39.24-60.094 69.21-38.92 33.487 0 57.643 21.263 65.17 47.85z" fill="#aaa"/><g fill="#f2f2f2"><path d="m248.003 52c-8.837 0-16-7.163-16-16v-20c0-8.837 7.163-16 16-16s16 7.163 16 16v20c0 8.837-7.163 16-16 16z"/><path d="m189.003 60c-8.837 0-16-7.163-16-16v-22.52c0-8.837 7.163-16 16-16s16 7.163 16 16v22.52c0 8.837-7.163 16-16 16z"/><path d="m146.019 76.002c-5.333 0-10.546-2.664-13.581-7.519l-11.4-18.23c-4.686-7.492-2.41-17.364 5.082-22.049 7.494-4.686 17.365-2.409 22.049 5.082l11.4 18.23c6.699 10.714-1.125 24.486-13.55 24.486z"/><path d="m98.012 108c-4.585 0-9.137-1.96-12.301-5.758l-12.29-14.75c-5.657-6.789-4.739-16.878 2.05-22.534 6.789-5.657 16.878-4.739 22.534 2.05l12.29 14.75c8.739 10.487 1.106 26.242-12.283 26.242z"/><path d="m66.012 148c-4.584 0-9.134-1.959-12.299-5.755l-12.82-15.38c-5.658-6.788-4.742-16.877 2.045-22.535 6.789-5.657 16.878-4.741 22.535 2.045l12.82 15.38c8.742 10.487 1.109 26.245-12.281 26.245z"/><path d="m49.993 196.004c-4.794 0-5.301-.807-28.693-12.015-7.969-3.818-11.333-13.374-7.516-21.343 3.818-7.969 13.371-11.334 21.344-7.517l21.79 10.44c15.274 7.32 10.074 30.435-6.925 30.435z"/><path d="m42.024 236.002c-1.623 0-.488.094-25.444-3.473-8.747-1.25-14.825-9.354-13.575-18.103 1.249-8.748 9.353-14.839 18.103-13.575l23.16 3.31c8.747 1.25 14.825 9.354 13.575 18.103-1.141 7.979-7.986 13.738-15.819 13.738z"/><path d="m25.228 286.912c-15.815 0-22.101-20.733-8.732-29.418l16.79-10.91c7.409-4.816 17.318-2.713 22.134 4.698 4.815 7.409 2.712 17.319-4.698 22.134-17.225 11.192-19.245 13.496-25.494 13.496z"/></g></svg>