<svg id="Layer_1" enable-background="new 0 0 512.081 512.081" height="512" viewBox="0 0 512.081 512.081" width="512" xmlns="http://www.w3.org/2000/svg"><path d="m464.026 272.017c-28.42 0-42.35-1.625-52.5 6.49-11.746 9.379-19.774 17.303-37.8 20.27l14.52 53.24h3.78c8.84 0 16 7.16 16 16s-7.16 16-16 16h-16c-7.22 0-13.54-4.83-15.44-11.79-18.839-69.111-18.52-68.27-18.62-68.27l-24.23-.86 19.14 19.14c10.853 10.853 9.147 29.006-3.73 37.59-21.142 14.102-22.71 16.19-29.11 16.19-15.719 0-22.061-20.529-8.89-29.31l12.57-8.38-31-31c-2.75-2.75-4.31-6.29-4.63-9.94l-5.76-1.49c-6.199 12.529-16.695 21.841-28.31 26.59-1.272.541-.209.208-16.39 4.5 27.81 27.81 24.443 25.03 26.4 25.03 8.84 0 16 7.16 16 16s-7.16 16-16 16c-7.853 0-13.699.921-19.31-4.69l-52-52c-6.25-6.24-6.25-16.38 0-22.62 2.75-2.75 5.673-4.973 5.36-9.04-.193-4.174-2.544-5.058-5.81-9.27l-24.24 24.25c0 41.117-.201 39.091.49 41.38 8.61.26 15.51 7.32 15.51 15.99 0 8.84-7.16 16-16 16-7.853 0-13.699.921-19.31-4.69-13.815-13.815-12.69-28.367-12.69-39.98-6.37 5.589-13.439 12.05-14.65 12.05-6.434 2.754-25.172 3.63-32.17 3.63-27.014 0-60.16-8.418-67.79-15.03-6.375-5.524-7.813-16.187-.55-23.45 3.399-3.32 6.572-3.858 11.11-5.22 43.303-12.991 78.465-44.251 96.37-86.01 12.938-30.189 48.23-42.436 76.6-28.71 7.54-6.55 16.66-11.18 26.47-13.36 31.1-6.9 55.38-8.99 72.18-6.19 65.197 10.877 63.812 13.358 102.95-6.19l38.17-38.16c9.191-9.213 24.968-4.117 27.09 8.68l6.66 39.96 8.72 4.36c5.42 2.71 8.84 8.25 8.84 14.31 0 2.515 1.507 4.63 3.47 5.57l15.28 2.67c27.676 4.841 10.297 63.76-34.75 63.76z" fill="#ece2e2"/><path d="m481.656 204.207c-7.94 14.63-20.79 24.09-33.63 19.81-24-8-80 16-112 32s-104-8-112 16c-6.06 18.17-30.46 22.58-41.95 23.65-3.69.35-6.05.35-6.05.35l-56 49v-5.67c-11.763 10.32-13.25 12.325-18.71 13.35-41.852 7.273-85.589-5.315-94.24-11.42-11.047-7.366-8.663-24.687 4.31-28.58 43.84-11.534 82.001-43.162 100.96-87.38 12.793-29.851 47.898-42.597 76.6-28.71 7.54-6.55 16.66-11.18 26.47-13.36 31.1-6.9 55.38-8.99 72.18-6.19 65.197 10.877 63.812 13.358 102.95-6.19l38.17-38.16c9.191-9.213 24.968-4.117 27.09 8.68l6.66 39.96 8.72 4.36c5.42 2.71 8.84 8.25 8.84 14.31 0 1.59.6 3.07 1.63 4.19z" fill="#ffbd7b"/><path d="m152.026 384.017c-7.863 0-13.709.919-19.313-4.687-8.181-8.181-12.687-19.058-12.687-30.627v-44.687c0-4.244 1.686-8.313 4.687-11.313l48-48c6.248-6.249 16.379-6.249 22.627 0 6.249 6.248 6.249 16.379 0 22.627l-43.313 43.314c0 41.003-.207 39.09.493 41.38 8.608.261 15.507 7.321 15.507 15.993-.001 8.836-7.164 16-16.001 16z" fill="#ece2e2"/></svg>