<svg id="Layer_1" enable-background="new 0 0 512 512" height="512" viewBox="0 0 512 512" width="512" xmlns="http://www.w3.org/2000/svg"><path d="m511.78 210.576c-5.92 35.56-36.39 61.37-72.44 61.37h-52.26l-27.08 10.83v50.329c0 19.951 6.732 40.027 20.14 56.411 6.089 7.611 4.61 17.132-1.77 22.6-1.199 1.2-4.222 2.7-4.48 2.7-3.502 1.575-3.574 1.13-58.31 1.13-10.944 0-19.478-8.826-19.93-18.42l-1.44-20.13c-16.736 31.275-16.569 31.538-18.72 33.69-3.1 3.242-7.59 4.84-10.87 4.84-.328.031-40.72.02-40.62.02-8.778 0-15.992-7.072-16-15.85-.022-24.562 5.29-48.725 15.35-70.82-11.26 4-22.79 7.2-34.5 9.58 3.282 63.19 3.33 61.173 2.98 63.45-.617 3.85-2.396 7.106-5.28 9.67-6.096 5.133-6.842 3.97-50.55 3.97-7.5 0-13.99-5.21-15.62-12.53l-13.22-59.47h-11.24l-7.92 7.13v48.87c0 8.837-7.163 16-16 16h-56c-8.837 0-16-7.163-16-16v-133.41c0-69.082 50.568-127.957 119.04-138.22 96.942-14.567 155.83-8.565 235.37 5.02 6.06-21.89 22.16-33.11 32.53-36.57 7.55-2.52 15.81.9 19.37 8.02l12.36 24.72 39.96 6.66c5.51.92 10.15 4.65 12.23 9.84.717 1.794 13.392 33.492 14.15 35.38l19.87 13.25c5.23 3.49 7.94 9.73 6.9 15.94z" fill="#c79a83"/><path d="m484.52 180.166c-61.137 72.266-101.378 2.867-172.52 59.78-40 32-152 24-152 24s-16 16-88 40c-42.15 14.05-62.37-15.77-71.88-42.91 2.618-67.053 52.602-122.779 118.92-132.72 96.942-14.567 155.83-8.565 235.37 5.02 6.06-21.89 22.16-33.11 32.53-36.57 7.55-2.52 15.81.9 19.37 8.02l12.36 24.72 39.96 6.66c5.51.92 10.15 4.65 12.23 9.84z" fill="#e0b7a3"/></svg>