<svg id="Layer_1" enable-background="new 0 0 512 512" height="512" viewBox="0 0 512 512" width="512" xmlns="http://www.w3.org/2000/svg"><path d="m488 89.17c0 17-13.83 30.83-30.83 30.83h-38.77l-58.66 131.98-7.74 100.59c0 3.003.383.897-22.84 70.44 3.44 18.86 5.67 38.15 6.49 56.99h8.35c8.84 0 16 7.16 16 16s-7.16 16-16 16h-24c-8.84 0-16-7.16-16-16 0-31.84-5.44-73.87-17.23-112h-6.77v96c8.84 0 16 7.16 16 16s-7.16 16-16 16h-16c-8.84 0-16-7.16-16-16v-112h-56.51c-2.02 20.1-10.1 38.88-23.39 54.18.702 45.143.511 41.82.9 41.82 8.84 0 16 7.16 16 16s-7.16 16-16 16h-16c-8.74 0-15.86-7.01-16-15.75l-1-64c-.211-13.059 13.384-13.688 21.08-38.7l-22.45 22.45c-6.981 6.981-20.03 13.921-26.79 15.53-.1 0 .521-.17-27.84 8.73v39.74h8c8.84 0 16 7.16 16 16s-7.16 16-16 16h-24c-8.84 0-16-7.16-16-16 0-94.586-.006-88.269.01-88.55.1-2.97 1.02-5.85 2.68-8.33 8.71-13.06 13.31-28.26 13.31-43.96 0-7.155-.121-12.572 1.48-20.97-5.91 6.97-9.48 15.98-9.48 25.81 0 8.84-7.16 16-16 16s-16-7.16-16-16c0-37.77 29.24-68.81 66.26-71.75 14.453-14.453 36.289-24.25 59.8-24.25h19.52c5.03 0 9.75-1.96 13.3-5.51 24.438-24.438 41.42-45.054 79.32-56.39l63.55-90.79c17.17-28.792 26.25-61.747 26.25-95.31 0-8.84 7.16-16 16-16s16 7.16 16 16c0 2.67-.05 5.34-.15 8 25.574 0 24.662-.026 25.52.06 2.384.159 2.252.284 27.69 8.76 4.02 1.34 7.35 4.23 9.25 8.02 6.292 12.601 15.935 16.392 24.26 20.56 11.044 5.382 17.43 16.161 17.43 27.77z" fill="#efd66c"/><path d="m470.57 61.4c-1.93 4.62-4.25 8.28-6.57 10.6-8 8-72 8-72 8s-56 104-80 144-8 80-32 104-136-16-152 16c-11.46 22.93-55.78 49.96-79.99 63.45.1-2.97 1.02-5.85 2.68-8.33 8.71-13.06 13.31-28.26 13.31-43.96 0-7.155-.121-12.572 1.48-20.97-5.91 6.97-9.48 15.98-9.48 25.81 0 8.84-7.16 16-16 16s-16-7.16-16-16c0-37.77 29.24-68.81 66.26-71.75 14.453-14.453 36.289-24.25 59.8-24.25h19.52c5.03 0 9.75-1.96 13.3-5.51 24.438-24.438 41.42-45.054 79.32-56.39l63.55-90.79c17.17-28.792 26.25-61.747 26.25-95.31 0-8.84 7.16-16 16-16s16 7.16 16 16c0 2.67-.05 5.34-.15 8 25.369 0 24.892-.055 26.19.13 2.15.269 1.024.028 27.02 8.69 4.02 1.34 7.35 4.23 9.25 8.02 6.292 12.601 15.935 16.392 24.26 20.56z" fill="#ffe773"/></svg>