<svg id="Layer_1" enable-background="new 0 0 512 512" height="512" viewBox="0 0 512 512" width="512" xmlns="http://www.w3.org/2000/svg"><path d="m416 256c0 88.528-71.802 160-160 160-88.175 0-160-71.449-160-160 0-88.528 71.802-160 160-160 88.175 0 160 71.449 160 160z" fill="#8dffff"/><path d="m368 256c0 61.97-50.261 112-112 112-61.722 0-112-50.014-112-112 0-61.97 50.261-112 112-112 61.722 0 112 50.014 112 112z" fill="#74f7f9"/><path d="m304 256c0 26.558-21.541 48-48 48-26.452 0-48-21.435-48-48 0-26.558 21.541-48 48-48 26.452 0 48 21.435 48 48z" fill="#8dffff"/><path d="m48.165 392.002c-16.33 0-22.148-21.699-8.015-29.859l166.269-95.999c7.655-4.418 17.439-1.797 21.857 5.854 4.419 7.652 1.798 17.438-5.854 21.857-181.61 104.857-168.163 98.147-174.257 98.147z" fill="#4379ff"/><path d="m297.595 248.002c-16.356 0-22.122-21.713-8.017-29.858l166.271-96.001c7.653-4.419 17.438-1.796 21.856 5.856 4.418 7.653 1.796 17.438-5.856 21.856-181.608 104.858-168.16 98.147-174.254 98.147z" fill="#4379ff"/><path d="m457.215 220.501c-2.993 0 2.862 1.33-80.649-21.047-8.536-2.287-13.601-11.06-11.313-19.596l20.498-76.498c2.287-8.536 11.06-13.604 19.596-11.313 8.536 2.287 13.601 11.06 11.313 19.596l-16.356 61.043 61.043 16.356c8.536 2.287 13.601 11.06 11.313 19.596-1.915 7.149-8.381 11.863-15.445 11.863z" fill="#6994ff"/><path d="m351.154 244.787c-5.53 0-10.908-2.869-13.872-8.002l-24-41.569c-4.418-7.653-1.796-17.438 5.856-21.856 7.653-4.419 17.438-1.796 21.856 5.856l24 41.569c6.188 10.716-1.652 24.002-13.84 24.002z" fill="#80aaff"/><path d="m110.805 420.501c-10.521 0-18.187-9.987-15.465-20.145l16.356-61.043-61.043-16.356c-8.536-2.287-13.601-11.06-11.313-19.596 2.287-8.535 11.062-13.603 19.596-11.313l76.498 20.498c8.536 2.287 13.601 11.06 11.313 19.596l-20.498 76.498c-1.915 7.147-8.38 11.861-15.444 11.861z" fill="#6994ff"/><path d="m184.876 340.787c-5.53 0-10.908-2.869-13.872-8.002l-24-41.569c-4.418-7.653-1.796-17.438 5.856-21.856 7.653-4.419 17.438-1.796 21.856 5.856l24 41.569c6.189 10.716-1.652 24.002-13.84 24.002z" fill="#80aaff"/><path d="m463.835 392.002c-6.097 0 7.569 6.834-174.256-98.147-7.652-4.419-10.273-14.205-5.854-21.857 4.417-7.652 14.203-10.274 21.857-5.854l166.269 95.999c14.139 8.164 8.304 29.859-8.016 29.859z" fill="#4379ff"/><path d="m214.405 248.002c-6.097 0 7.57 6.835-174.255-98.146-7.652-4.418-10.275-14.204-5.856-21.856 4.418-7.652 14.203-10.275 21.856-5.856l166.271 96.001c14.111 8.148 8.331 29.857-8.016 29.857z" fill="#4379ff"/><path d="m54.785 220.501c-7.064 0-13.529-4.714-15.444-11.863-2.287-8.536 2.778-17.309 11.313-19.596l61.043-16.356-16.357-61.042c-2.287-8.536 2.778-17.309 11.313-19.596 8.534-2.287 17.308 2.778 19.596 11.313l20.498 76.498c2.287 8.536-2.778 17.309-11.313 19.596-83.908 22.483-77.691 21.046-80.649 21.046z" fill="#6994ff"/><path d="m160.846 244.787c-12.173 0-20.036-13.273-13.841-24.002l24-41.569c4.418-7.652 14.203-10.276 21.856-5.856 7.653 4.418 10.275 14.204 5.856 21.856l-24 41.569c-2.963 5.132-8.341 8.002-13.871 8.002z" fill="#80aaff"/><path d="m401.195 420.501c-7.064 0-13.529-4.714-15.444-11.863l-20.498-76.498c-2.287-8.536 2.778-17.309 11.313-19.596l76.498-20.498c8.533-2.287 17.309 2.778 19.596 11.313 2.287 8.536-2.778 17.309-11.313 19.596l-61.043 16.356 16.356 61.043c2.722 10.164-4.949 20.147-15.465 20.147z" fill="#6994ff"/><path d="m327.124 340.787c-12.173 0-20.036-13.273-13.841-24.002l24-41.569c4.418-7.652 14.203-10.276 21.856-5.856 7.653 4.418 10.275 14.204 5.856 21.856l-24 41.569c-2.963 5.132-8.342 8.002-13.871 8.002z" fill="#80aaff"/><g fill="#4379ff"><path d="m256 320c-34.732 0-64-28.141-64-64 0-35.855 29.263-64 64-64 34.732 0 64 28.141 64 64 0 35.855-29.263 64-64 64zm0-96c-17.299 0-32 13.994-32 32 0 17.989 14.685 32 32 32 17.299 0 32-13.994 32-32 0-17.989-14.685-32-32-32z"/><path d="m256 512c-8.836 0-16-7.164-16-16v-192c0-8.836 7.164-16 16-16s16 7.164 16 16v192c0 8.836-7.164 16-16 16z"/><path d="m256 224c-8.836 0-16-7.164-16-16v-192c0-8.836 7.164-16 16-16s16 7.164 16 16v192c0 8.836-7.164 16-16 16z"/></g><path d="m244.687 123.313-56-56c-6.249-6.248-6.249-16.379 0-22.627 6.248-6.249 16.379-6.249 22.627 0l44.686 44.687 44.687-44.686c6.248-6.249 16.379-6.249 22.627 0 6.249 6.248 6.249 16.379 0 22.627l-56 56c-6.248 6.248-16.379 6.249-22.627-.001z" fill="#6994ff"/><path d="m312 472c-4.095 0-8.189-1.562-11.313-4.687l-44.687-44.686-44.687 44.686c-6.248 6.249-16.379 6.249-22.627 0-6.249-6.248-6.249-16.379 0-22.627l56-56c6.248-6.249 16.379-6.249 22.627 0l56 56c10.11 10.109 2.812 27.314-11.313 27.314z" fill="#6994ff"/><path d="m280 176h-48c-8.836 0-16-7.164-16-16s7.164-16 16-16h48c8.836 0 16 7.164 16 16s-7.164 16-16 16z" fill="#80aaff"/><path d="m280 368h-48c-8.836 0-16-7.164-16-16s7.164-16 16-16h48c8.836 0 16 7.164 16 16s-7.164 16-16 16z" fill="#80aaff"/></svg>