<svg id="Layer_1" enable-background="new 0 0 512 512" height="512" viewBox="0 0 512 512" width="512" xmlns="http://www.w3.org/2000/svg"><path d="m120 436c-8.836 0-16-7.164-16-16v-80c0-8.836 7.164-16 16-16s16 7.164 16 16v80c0 8.836-7.164 16-16 16z" fill="#c79a83"/><path d="m344 436c-8.836 0-16-7.164-16-16v-80c0-8.836 7.164-16 16-16s16 7.164 16 16v80c0 8.836-7.164 16-16 16z" fill="#c79a83"/><path d="m472 236c0 61.484-49.761 112-112 112h-240c-44.18 0-80-35.82-80-80v-192h8c88.195 0 160 71.474 160 160z" fill="#ea8692"/><path d="m472 236c0 18.57-4.52 36.08-12.51 51.49-15.41 7.99-32.92 12.51-51.49 12.51h-264c-30.928 0-56-25.072-56-56v-162.95c69.02 17.76 120 80.4 120 154.95z" fill="#fe929f"/><path d="m416 436h-400c-8.836 0-16-7.164-16-16s7.164-16 16-16h400c35.29 0 64-28.71 64-64 0-8.836 7.164-16 16-16s16 7.164 16 16c0 52.935-43.065 96-96 96z" fill="#a07765"/></svg>