<svg id="Layer_1" enable-background="new 0 0 512 512" height="512" viewBox="0 0 512 512" width="512" xmlns="http://www.w3.org/2000/svg"><path d="m64 512c-8.836 0-16-7.164-16-16v-80c0-8.836 7.164-16 16-16s16 7.164 16 16v80c0 8.836-7.164 16-16 16z" fill="#999"/><path d="m384 512c-8.837 0-16-7.164-16-16v-80c0-8.836 7.163-16 16-16s16 7.164 16 16v80c0 8.836-7.163 16-16 16z" fill="#999"/><path d="m416 512h-400c-8.836 0-16-7.164-16-16s7.164-16 16-16h400c35.29 0 64-28.71 64-64 0-8.836 7.163-16 16-16s16 7.164 16 16c0 52.935-43.065 96-96 96z" fill="#b2b2b2"/><path d="m460.8 358.28c-.23 37.92-31.41 68.39-69.33 68.39h-340.27c-28.28 0-51.2-22.93-51.2-51.2v-359.47c0-8.84 7.16-16 16-16h224c8.84 0 16 7.16 16 16v136.53c0 28.3 23.16 51.16 51.46 51.2 85.028.141 153.816 69.369 153.34 154.55z" fill="#4379ff"/><path d="m256 16v120.53h-256v-120.53c0-8.84 7.16-16 16-16h224c8.84 0 16 7.16 16 16z" fill="#6994ff"/><path d="m460.789 358.4c-.565 37.803-31.381 68.267-69.323 68.267h-340.266c-28.277 0-51.2-22.923-51.2-51.2v-17.067z" fill="#b2b2b2"/><path d="m170.667 358.4h-170.667v-170.667c94.697 0 170.667 76.811 170.667 170.667z" fill="#6994ff"/><path d="m162.859 307.2h-43.392c-65.796 0-119.467-53.305-119.467-119.467 76.427 0 141.109 50.219 162.859 119.467z" fill="#80aaff"/><g fill="#ece2e2"><path d="m256 152.533h-50.748c-8.615 0-16.028-6.621-16.434-15.226-.433-9.188 6.889-16.774 15.982-16.774h50.748c8.615 0 16.028 6.621 16.434 15.226.433 9.189-6.888 16.774-15.982 16.774z"/><path d="m256 84.267h-50.748c-8.615 0-16.028-6.621-16.434-15.226-.433-9.188 6.889-16.774 15.982-16.774h50.748c8.615 0 16.028 6.621 16.434 15.226.433 9.188-6.888 16.774-15.982 16.774z"/><path d="m221.882 229.336c-16.354 0-21.945-21.503-7.876-29.945l42.295-25.377c7.797-4.681 17.981-1.94 22.335 6.163 4.078 7.588 1.127 17.077-6.26 21.509-45.968 27.581-44.595 27.65-50.494 27.65z"/><path d="m297.894 271.982c-8.606-.405-15.227-7.818-15.227-16.434v-50.297c0-8.616 6.621-16.029 15.227-16.434 9.188-.432 16.773 6.889 16.773 15.982v51.201c0 9.093-7.584 16.414-16.773 15.982z"/></g></svg>