<svg id="Layer_1" enable-background="new 0 0 512.005 512.005" height="512" viewBox="0 0 512.005 512.005" width="512" xmlns="http://www.w3.org/2000/svg"><path d="m316.814 145.141c0 9.73-1.465 11.513-16.94 55.99-39.871 114.633-35.9 102.105-35.8 105.52l-30.83-16.32c-28.23-14.94-41.11-48.42-30.2-78.43 18.326-50.402 10.87-29.902 29.67-81.58 8.378-23.072 34.239-34.527 56.84-25.44 16.589 6.636 27.26 22.68 27.26 40.26z" fill="#6994ff"/><path d="m264.074 306.651-30.83-16.32c-28.23-14.94-41.11-48.42-30.2-78.43l14.74-40.54 82.09 29.77c-39.871 114.633-35.9 102.105-35.8 105.52z" fill="#4379ff"/><path d="m268.283 463.085c-11.581 0-19.469-12.096-14.488-22.77l38.84-83.24c3.608-7.733.528-16.921-7.013-20.917l-59.863-31.687c-35.312-18.687-51.376-60.564-37.752-98.038l29.671-81.582c11.455-31.527 46.663-47.288 77.817-34.827 30.308 12.129 44.207 45.398 34.017 74.616l-46.574 133.89 17.662 9.349c22.619 11.986 31.854 39.538 21.033 62.728l-38.84 83.239c-2.715 5.82-8.485 9.239-14.51 9.239zm5.163-345.323c-10.83 0-21.545 6.603-25.694 18.023l-29.672 81.585c-8.14 22.391 1.597 47.678 22.648 58.819l13.597 7.197 44.967-129.272c6.266-17.944-7.229-36.352-25.846-36.352z" fill="#4379ff"/><path d="m449.294 511.639c-14.587 0 18.891 8.169-437.614-119.973-8.508-2.388-13.469-11.221-11.08-19.729 2.387-8.508 11.221-13.468 19.729-11.081l417.488 117.19c16.723 4.695 34.965-1.488 45.388-15.385 5.302-7.07 15.33-8.501 22.4-3.2 7.068 5.302 8.501 15.331 3.199 22.4-14.483 19.31-36.855 29.778-59.51 29.778z" fill="#a07765"/><path d="m87.986 248.262c-8.247 0-15.246-6.334-15.93-14.699-.719-8.807 5.838-16.53 14.646-17.249l392-32c8.813-.716 16.529 5.838 17.249 14.645.719 8.807-5.838 16.53-14.646 17.249-410.044 33.473-392.299 32.054-393.319 32.054z" fill="#aaa"/><path d="m128.004 264.261c-8.837 0-16-7.164-16-16v-40c0-8.836 7.163-16 16-16s16 7.164 16 16v40c0 8.837-7.163 16-16 16z" fill="#999"/><path d="m447.989 224.263c-6.748 0 5.868 6.886-168.705-106.587-7.409-4.816-9.511-14.726-4.695-22.135 4.815-7.41 14.729-9.511 22.135-4.695l160 104c13.343 8.674 7.115 29.417-8.735 29.417z" fill="#4379ff"/><circle cx="312.004" cy="48.261" fill="#80aaff" r="48"/></svg>