<svg id="Layer_1" enable-background="new 0 0 512 512" height="512" viewBox="0 0 512 512" width="512" xmlns="http://www.w3.org/2000/svg"><path d="m256 375.467c-56.555 0-102.4 15.285-102.4 34.133v68.267c0 18.848 45.845 34.133 102.4 34.133s102.4-15.285 102.4-34.133v-68.267c0-18.848-45.845-34.133-102.4-34.133z" fill="#999"/><ellipse cx="256" cy="409.6" fill="#aaa" rx="102.4" ry="34.133"/><path d="m443.733 68.267v273.067c0-37.707-30.56-68.267-68.267-68.267h-238.933c-37.707 0-68.267 30.56-68.267 68.267v-273.067z" fill="#8dffff"/><g fill="#ece2e2"><path d="m443.733 341.333c-9.426 0-17.067-7.641-17.067-17.067 0-28.232-22.968-51.2-51.2-51.2h-238.933c-28.232 0-51.2 22.968-51.2 51.2 0 9.426-7.641 17.067-17.067 17.067s-17.067-7.641-17.067-17.067c0-47.053 38.28-85.333 85.333-85.333h238.933c47.053 0 85.333 38.28 85.333 85.333.002 9.426-7.639 17.067-17.065 17.067z"/><path d="m443.733 273.067c-9.426 0-17.067-7.641-17.067-17.067 0-28.232-22.968-51.2-51.2-51.2h-238.933c-28.232 0-51.2 22.968-51.2 51.2 0 9.426-7.641 17.067-17.067 17.067s-17.067-7.641-17.067-17.067c0-47.053 38.28-85.333 85.333-85.333h238.933c47.053 0 85.333 38.28 85.333 85.333.002 9.426-7.639 17.067-17.065 17.067z"/><path d="m443.733 204.8c-9.426 0-17.067-7.641-17.067-17.067 0-28.232-22.968-51.2-51.2-51.2h-238.933c-28.232 0-51.2 22.968-51.2 51.2 0 9.426-7.641 17.067-17.067 17.067s-17.067-7.641-17.067-17.067c0-47.053 38.28-85.333 85.333-85.333h238.933c47.053 0 85.333 38.28 85.333 85.333.002 9.426-7.639 17.067-17.065 17.067z"/><path d="m221.867 273.067c-9.426 0-17.067-7.641-17.067-17.067v-204.8c0-9.426 7.641-17.067 17.067-17.067s17.067 7.641 17.067 17.067v204.8c-.001 9.426-7.642 17.067-17.067 17.067z"/><path d="m145.067 273.067c-9.426 0-17.067-7.641-17.067-17.067v-204.8c0-9.426 7.641-17.067 17.067-17.067s17.067 7.641 17.067 17.067v204.8c-.001 9.426-7.642 17.067-17.067 17.067z"/><path d="m290.133 273.067c-9.426 0-17.067-7.641-17.067-17.067v-204.8c0-9.426 7.641-17.067 17.067-17.067s17.067 7.641 17.067 17.067v204.8c0 9.426-7.641 17.067-17.067 17.067z"/><path d="m366.933 273.067c-9.426 0-17.067-7.641-17.067-17.067v-204.8c0-9.426 7.641-17.067 17.067-17.067s17.067 7.641 17.067 17.067v204.8c0 9.426-7.641 17.067-17.067 17.067z"/></g><path d="m512 68.267v273.067h-68.267v-273.067h-375.466v273.067h-68.267v-273.067c0-37.707 30.56-68.267 68.267-68.267h375.467c37.706 0 68.266 30.56 68.266 68.267z" fill="#fe929f"/><path d="m0 276.267h68.267v65.067h-68.267z" fill="#ea8692"/><path d="m443.733 276.267h68.267v65.067h-68.267z" fill="#ea8692"/></svg>