<svg id="Layer_1" enable-background="new 0 0 512.004 512.004" height="512" viewBox="0 0 512.004 512.004" width="512" xmlns="http://www.w3.org/2000/svg"><path d="m512.002 34.181c0 6.637-1.912 13.258-5.952 19.221-11.358 16.621-237.328 347.305-282.848 413.919-19.089 27.931-50.783 44.683-84.661 44.683h-104.405c-18.848 0-34.133-15.285-34.133-34.133v-42.667c0-18.848 15.285-34.133 34.133-34.133h133.643c11.275 0 21.824-5.568 28.181-14.88l253.727-371.306c18.899-27.656 62.315-14.214 62.315 19.296z" fill="#c79a83"/><path d="m512.002 34.181c0 4.437-.864 8.907-2.645 13.141-9.233 13.511-242.751 355.234-252.021 368.8-19.089 27.931-50.783 44.683-84.661 44.683h-104.406c-18.848 0-34.133-15.285-34.133-34.133v-25.6h133.643c11.275 0 21.824-5.568 28.181-14.88l253.727-371.307c18.899-27.656 62.315-14.214 62.315 19.296z" fill="#e0b7a3"/><path d="m102.402 93.871c-56.555 0-102.4 15.285-102.4 34.133v68.267c0 18.848 45.845 34.133 102.4 34.133s102.4-15.285 102.4-34.133v-68.267c0-18.847-45.845-34.133-102.4-34.133z" fill="#999"/><ellipse cx="102.402" cy="128.005" fill="#aaa" rx="102.4" ry="34.133"/></svg>