<svg id="Layer_1" enable-background="new 0 0 512 512" height="512" viewBox="0 0 512 512" width="512" xmlns="http://www.w3.org/2000/svg"><path d="m188.001 212c-4.095 0-8.189-1.562-11.313-4.687l-20-20c-6.249-6.248-6.249-16.379 0-22.627 6.248-6.249 16.379-6.249 22.627 0l20 20c10.109 10.108 2.811 27.314-11.314 27.314z" fill="#aaa"/><path d="m256.001 104c-4.095 0-8.189-1.562-11.313-4.687l-16-16c-6.249-6.248-6.249-16.379 0-22.627 6.248-6.249 16.379-6.249 22.627 0l16 16c10.109 10.108 2.811 27.314-11.314 27.314z" fill="#aaa"/><path d="m496.001 444c0 41.087-60.51 68-120 68-63.231 0-120-28.87-120-68 0-37.56 53.73-68 120-68s120 30.44 120 68z" fill="#68eaea"/><path d="m488.311 468c-38.961 58.532-185.639 58.562-224.62 0 38.96-58.532 185.639-58.562 224.62 0z" fill="#8dffff"/><path d="m376.001 464c-8.837 0-16-7.164-16-16v-432c0-8.836 7.163-16 16-16s16 7.164 16 16v432c0 8.836-7.163 16-16 16z" fill="#ece2e2"/><path d="m132.023 294.055c-12.711 0-20.513-14.373-13.175-25.059l143.733-209.296c25.672-37.382 68.071-59.7 113.42-59.7 8.837 0 16 7.164 16 16s-7.163 16-16 16c-34.802 0-67.34 17.127-87.041 45.815l-143.733 209.296c-3.101 4.516-8.11 6.944-13.204 6.944z" fill="#b2b2b2"/><path d="m272.001 328h-64c-8.837 0-16-7.164-16-16s7.163-16 16-16h64c8.837 0 16 7.164 16 16s-7.163 16-16 16z" fill="#b2b2b2"/><path d="m139.641 286.44-35.26-24.69-82.59 117.96c-10.14 14.48-6.62 34.43 7.86 44.57s34.43 6.62 44.57-7.86l60.56-86.5z" fill="#a07765"/><ellipse cx="170.498" cy="311.889" fill="#6994ff" rx="40" ry="40" transform="matrix(.985 -.174 .174 .985 -51.569 34.345)"/></svg>