<svg id="Layer_1" enable-background="new 0 0 512.001 512.001" height="512" viewBox="0 0 512.001 512.001" width="512" xmlns="http://www.w3.org/2000/svg"><path d="m504.123 428.001c0 41.088-60.51 68-120 68-63.231 0-120-28.87-120-68 0-37.56 53.73-68 120-68s120 30.44 120 68z" fill="#68eaea"/><path d="m496.433 452.001c-38.961 58.532-185.639 58.562-224.62 0 38.961-58.532 185.64-58.562 224.62 0z" fill="#74f7f9"/><g fill="#999"><path d="m408.143 24.001-30.03 52c-15.469 26.802-49.721 36.01-76.54 20.51l-104.01-60.05c-11.47-6.62-26.2-2.68-32.82 8.8l-20.02 34.67c-6.63 11.48-2.68 26.2 8.8 32.83l34.66 20.01c26.76 15.45 35.96 49.79 20.51 76.54-71.118 123.18-65.189 112.935-69.38 120.18-9.91-1.907-22.081-5.544-32.29-8.07 17.369-30.1 9.408-16.312 73.96-128.11 6.63-11.47 2.68-26.2-8.8-32.82l-34.66-20.02c-26.76-15.45-35.96-49.78-20.51-76.54l20.01-34.67c15.45-26.76 49.79-35.96 76.54-20.51l104.01 60.05c11.46 6.616 26.161 2.752 32.83-8.8l30.02-52c4.42-7.65 14.21-10.27 21.86-5.86 7.65 4.42 10.27 14.21 5.86 21.86z"/><path d="m122.543 358.541c-11.655 20.185-5.728 9.921-26.03 45.08-.409.726-25.158-6.121-32.39-7.91.455-.787 25.691-44.478 26.12-45.24 10.069 1.937 21.71 5.469 32.3 8.07z"/><path d="m79.653 432.831c-27.155 47.023-33.271 57.623-41.09 71.17-2.97 5.13-8.34 8-13.87 8-12.213 0-20.021-13.296-13.85-24 26.792-46.387 30.203-52.333 36.51-63.23 10.132 1.934 21.445 5.4 32.3 8.06z"/></g><path d="m126.843 257.631c-3.65-8.05-13.14-11.61-21.18-7.95-8.05 3.66-11.6 13.15-7.95 21.19 4.27 9.39 12.48 19.14 21.52 29.39l16.95-29.36c-4.21-5.06-7.76-9.79-9.34-13.27zm-47.77 218.56c-4.58-6.93-9.2-13.21-13.58-18.84l-17.43 30.19c1.43 2.03 2.87 4.12 4.3 6.29 3.08 4.66 8.17 7.18 13.37 7.18 12.553 0 20.419-14.094 13.34-24.82zm34.22-101.63-16.78 29.06c1.155 1.152-24.424-5.939-32.39-7.91-18.867-4.666-41.379-8.387-51.48 9.12-11.956 20.702.758 38.679 14.21 55.45l17.34-30.05c-1.326-1.938-2.806-4.279-3.7-6.45 25.902 1.752 74.287 28.27 90.65-.07 10.039-17.399-4.231-34.976-17.85-49.15zm45.09-78.11-17.3 29.98c.98 1.44 1.75 2.69 2.36 3.75-28.558-4.014-72.393-26.516-87.91.36-10.039 17.399 4.217 34.98 17.85 49.14 18.061-31.287 16.859-28.946 16.59-29.26 32.746 7.282 69.99 23.369 84.06-1 10.287-17.806-2.491-37.148-15.65-52.97z" fill="#b2b2b2"/></svg>