<svg id="Layer_1" enable-background="new 0 0 512 512" height="512" viewBox="0 0 512 512" width="512" xmlns="http://www.w3.org/2000/svg"><path d="m203.527 204.8h-68.267c-9.426 0-17.067 7.641-17.067 17.067v238.933c0 28.277 22.923 51.2 51.2 51.2 28.198 0 51.2-22.845 51.2-51.2v-238.933c0-9.426-7.641-17.067-17.066-17.067z" fill="#80aaff"/><path d="m135.26 8.533v128h-108.667c-10.266 0-18.208-8.997-16.935-19.184l12.8-102.4c1.068-8.54 8.328-14.949 16.935-14.949h87.334c4.713 0 8.533 3.821 8.533 8.533z" fill="#4379ff"/><path d="m135.26 8.533v85.333h-47.801c-15.398 0-27.312-13.496-25.402-28.775l8.136-65.091h56.533c4.714 0 8.534 3.821 8.534 8.533z" fill="#6994ff"/><g fill="#aaa"><path d="m485.359 128h-350.099v-119.467h165.173c75.899 0 148.302 33.142 197.945 91.351 9.437 11.064 1.523 28.116-13.019 28.116z"/><path d="m468.06 153.6c-9.426 0-17.067-7.641-17.067-17.067v-17.067c0-9.426 7.641-17.067 17.067-17.067s17.067 7.641 17.067 17.067v17.067c0 9.426-7.641 17.067-17.067 17.067z"/><path d="m399.793 153.6c-9.426 0-17.067-7.641-17.067-17.067v-17.067c0-9.426 7.641-17.067 17.067-17.067s17.067 7.641 17.067 17.067v17.067c0 9.426-7.641 17.067-17.067 17.067z"/><path d="m331.527 153.6c-9.426 0-17.067-7.641-17.067-17.067v-17.067c0-9.426 7.641-17.067 17.067-17.067s17.067 7.641 17.067 17.067v17.067c-.001 9.426-7.641 17.067-17.067 17.067z"/></g><path d="m484.977 85.333h-230.25c-42.415 0-76.8-34.384-76.8-76.8 0-.1-2.837 0 122.507 0 71.686 0 137.473 29.363 184.543 76.8z" fill="#b2b2b2"/><path d="m135.26 128h68.267v76.8h-68.267z" fill="#999"/><path d="m118.193 315.733h102.4v102.4h-102.4z" fill="#4379ff"/><path d="m203.527 42.667c-14.112 0-25.6 11.488-25.6 25.6s11.488 25.6 25.6 25.6 25.6-11.488 25.6-25.6-11.488-25.6-25.6-25.6z" fill="#999"/><circle cx="288.86" cy="68.267" fill="#999" r="17.067"/><circle cx="169.393" cy="256" fill="#999" r="17.067"/></svg>