<svg id="Layer_1" enable-background="new 0 0 512 512" height="512" viewBox="0 0 512 512" width="512" xmlns="http://www.w3.org/2000/svg"><path d="m341.333 512h-341.333l170.667-341.333z" fill="#4379ff"/><path d="m170.667 170.667c0 170.666 59.733 341.333 170.666 341.333" fill="#80aaff"/><path d="m170.667 170.667c0 170.666-59.734 341.333-170.667 341.333" fill="#80aaff"/><path d="m512 512h-170.667l-170.666-341.333h160.119c6.464 0 12.374 3.652 15.265 9.434z" fill="#6994ff"/><path d="m473.6 435.2c-69.82 0-134.797-39.193-166.719-103.038l-80.748-161.495h104.652c6.464 0 12.374 3.652 15.265 9.434z" fill="#80aaff"/><path d="m204.8 17.067h85.333c9.426 0 17.067 7.641 17.067 17.067v51.2c0 9.426-7.641 17.067-17.067 17.067h-85.333z" fill="#ea8692"/><path d="m204.8 170.667h-34.133v-153.6c0-9.426 7.641-17.067 17.066-17.067 9.419 0 17.067 7.634 17.067 17.067z" fill="#a07765"/></svg>