<svg id="Layer_1" enable-background="new 0 0 512 512" height="512" viewBox="0 0 512 512" width="512" xmlns="http://www.w3.org/2000/svg"><path d="m512 102.4v341.333c0 9.429-7.637 17.067-17.067 17.067h-68.267c-9.429 0-17.067-7.637-17.067-17.067v51.2c0 9.429-7.637 17.067-17.067 17.067h-273.065c-9.429 0-17.067-7.638-17.067-17.067v-51.2c0 9.429-7.637 17.067-17.067 17.067h-68.266c-9.43 0-17.067-7.637-17.067-17.067v-341.333c0-56.554 45.844-102.4 102.4-102.4h307.2c56.555 0 102.4 45.845 102.4 102.4z" fill="#ece2e2"/><path d="m409.6 0v145.067h-128c-87.296 0-160.011-62.421-175.947-145.067z" fill="#f9f9f9"/><path d="m409.6 136.533h102.4v68.267h-102.4z" fill="#6994ff"/><path d="m0 136.533h102.4v68.267h-102.4z" fill="#6994ff"/><path d="m512 392.533v51.2c0 9.429-7.637 17.067-17.067 17.067h-68.267c-9.429 0-17.067-7.637-17.067-17.067v-51.2z" fill="#4379ff"/><path d="m102.4 392.533v51.2c0 9.429-7.637 17.067-17.067 17.067h-68.266c-9.43 0-17.067-7.637-17.067-17.067v-51.2z" fill="#4379ff"/><path d="m102.4 179.2h307.2v256h-307.2z" fill="#6994ff"/><path d="m409.6 179.2v213.333h-51.2c-117.493 0-213.333-95.188-213.333-213.333z" fill="#80aaff"/><g fill="#999"><path d="m256 110.933c-39.613-22.007-76.8-57.519-76.8-103.006v-7.927h153.6v7.927c0 45.476-37.171 80.99-76.8 103.006z"/><path d="m216.868 235.398c-3.201-3.2-7.542-4.998-12.068-4.998h-25.6c-4.526 0-8.867 1.798-12.068 4.998l-17.067 17.067c-3.201 3.201-4.999 7.542-4.999 12.069v93.866c0 4.527 1.798 8.868 4.999 12.069l17.067 17.067c3.201 3.2 7.542 4.998 12.068 4.998h25.6c4.526 0 8.867-1.798 12.068-4.998l17.067-17.067c3.201-3.201 4.999-7.542 4.999-12.069v-93.867c0-4.527-1.798-8.868-4.999-12.069zm-12.068 115.932-7.069 7.07h-11.461l-7.069-7.07v-79.727l7.069-7.07h11.461l7.069 7.07z"/><path d="m361.934 252.465-17.067-17.067c-3.201-3.2-7.542-4.998-12.068-4.998h-25.6c-4.526 0-8.867 1.798-12.068 4.998l-17.067 17.067c-3.201 3.201-4.999 7.542-4.999 12.069v93.866c0 4.527 1.798 8.868 4.999 12.069l17.067 17.067c3.201 3.2 7.542 4.998 12.068 4.998h25.6c4.526 0 8.867-1.798 12.068-4.998l17.067-17.067c3.201-3.201 4.999-7.542 4.999-12.069v-93.867c0-4.527-1.798-8.867-4.999-12.068zm-29.134 98.865-7.069 7.07h-11.461l-7.069-7.07v-79.727l7.069-7.07h11.461l7.069 7.07z"/></g></svg>