<svg id="Layer_1" enable-background="new 0 0 512 512" height="512" viewBox="0 0 512 512" width="512" xmlns="http://www.w3.org/2000/svg"><path d="m297.29 140.387h-82.58l-16.516-49.548v-16.516c0-31.926 25.881-57.806 57.806-57.806 31.837 0 57.807 25.793 57.807 57.806v16.516z" fill="#999"/><path d="m297.292 156.907c-11.24 0-19.239-11.038-15.67-21.743l15.668-47.006v-13.835c0-22.767-18.523-41.29-41.29-41.29s-41.29 18.523-41.29 41.29v13.836l15.668 47.006c2.885 8.653-1.792 18.007-10.446 20.891-8.65 2.884-18.007-1.792-20.891-10.446-17.792-53.376-17.364-51.015-17.364-54.771v-16.516c0-40.982 33.341-74.323 74.323-74.323s74.323 33.341 74.323 74.323v16.516c0 3.77.404 1.467-17.364 54.771-2.307 6.92-8.751 11.297-15.667 11.297z" fill="#80aaff"/><path d="m396.387 285.977v60.862c0 9.125-7.391 16.516-16.516 16.516h-33.032c-9.125 0-16.516-7.391-16.516-16.516v148.645c0 9.125-7.391 16.516-16.516 16.516h-19.045c-8.072 0-14.957-5.832-16.289-13.801l-22.473-134.844-22.472 134.844c-1.332 7.969-8.217 13.801-16.289 13.801h-19.045c-9.125 0-16.516-7.391-16.516-16.516v-148.645c0 9.125-7.391 16.516-16.516 16.516h-33.032c-9.125 0-16.516-7.391-16.516-16.516v-60.862c0-44.398 15.257-87.081 42.653-121.177 12.771-15.876 31.863-24.413 51.283-24.413h92.903c19.426 0 38.514 8.54 51.283 24.413 27.394 34.096 42.651 76.779 42.651 121.177z" fill="#4379ff"/><path d="m330.323 146.519v159.03h-148.646v-159.03c8.63-3.995 18.127-6.132 27.871-6.132h92.903c9.745 0 19.242 2.137 27.872 6.132z" fill="#80aaff"/><path d="m396.387 285.977v60.862c0 9.125-7.391 16.516-16.516 16.516h-33.032c-9.125 0-16.516-7.391-16.516-16.516v-200.32c9.001 4.16 17.043 10.364 23.412 18.281 27.395 34.096 42.652 76.779 42.652 121.177z" fill="#6994ff"/><path d="m181.677 146.519v200.32c0 9.125-7.391 16.516-16.516 16.516h-33.032c-9.125 0-16.516-7.391-16.516-16.516v-60.862c0-44.398 15.257-87.081 42.653-121.177 6.369-7.917 14.41-14.122 23.411-18.281z" fill="#6994ff"/><g fill="#b2b2b2"><path d="m231.226 305.548c0 9.125-7.391 16.516-16.516 16.516h-33.032v-33.032h33.032c9.125 0 16.516 7.391 16.516 16.516z"/><path d="m330.323 289.032v33.032h-33.033c-9.125 0-16.516-7.391-16.516-16.516s7.391-16.516 16.516-16.516z"/></g></svg>