<svg id="Layer_1" enable-background="new 0 0 480 480" height="512" viewBox="0 0 480 480" width="512" xmlns="http://www.w3.org/2000/svg"><path d="m424.018 108.71v171.29c0 50.416-23.764 97.803-64 128h-216c-54.244-29.602-88-86.438-88-148.24 0-20.48-.344-22.998 1.07-29 4.205-17.715 20.11-30.76 38.93-30.76 22.026 0 40 17.846 40 40v-172c0-9.94 4.03-18.94 10.54-25.46 22.651-22.617 61.46-6.525 61.46 25.46v-32c0-19.907 16.129-36 36.01-36 20.023 0 35.99 16.635 35.99 36.59v31.41c0-20.213 16.646-36.521 36.97-35.99 19.943.592 35.03 17.263 35.03 36.58v39.41c0-19.65 15.74-35.62 35.3-35.99 20.262-.38 36.7 16.592 36.7 36.7z" fill="#c79a83"/><path d="m424.018 108.71v123.29c0 31.22-9.11 61.31-25.65 86.87-15.197 24.271-43.835 41.13-75.85 41.13h-150.6c-22.61 0-44.42-8.45-61.09-23.72-29.513-27.011-49.091-64.331-53.74-105.52 4.205-17.715 20.11-30.76 38.93-30.76 22.026 0 40 17.846 40 40v-172c0-9.94 4.03-18.94 10.54-25.46 22.651-22.617 61.46-6.525 61.46 25.46v-32c0-19.907 16.129-36 36.01-36 20.023 0 35.99 16.635 35.99 36.59v31.41c0-20.213 16.646-36.521 36.97-35.99 19.943.592 35.03 17.263 35.03 36.58v39.41c0-19.65 15.74-35.62 35.3-35.99 20.262-.38 36.7 16.592 36.7 36.7z" fill="#e0b7a3"/><path d="m144.018 408h216v56c0 8.837-7.163 16-16 16h-184c-8.837 0-16-7.163-16-16z" fill="#c79a83"/><path d="m344.018 480h-68c-19.882 0-36-16.118-36-36 0-19.827 16.063-36 36-36h84v56c0 8.837-7.163 16-16 16z" fill="#e0b7a3"/><g fill="#c79a83"><path d="m136.018 240v72c-17.67 0-32-14.33-32-32v-79.2c18.26 3.71 32 19.85 32 39.2z"/><path d="m208.018 68v156c-17.67 0-32-14.33-32-32v-159.77c18 1.98 32 17.24 32 35.77z"/><path d="m280.018 36.59v187.41c-17.67 0-32-14.33-32-32v-191.78c18.14 2.04 32 17.79 32 36.37z"/><path d="m352.018 68.59v155.41c-17.67 0-32-14.33-32-32v-159.78c18.14 2.04 32 17.79 32 36.37z"/><path d="m424.018 108.71v115.29c-17.67 0-32-14.33-32-32v-119.77c17.98 2.08 32 17.89 32 36.48z"/></g></svg>