<svg id="Layer_1" enable-background="new 0 0 512 512" height="512" viewBox="0 0 512 512" width="512" xmlns="http://www.w3.org/2000/svg"><path d="m436.128 152v208l-180.128 104-180.128-104v-208l180.128-104z" fill="#8dffff"/><path d="m376 186.716v138.568l-120 69.284-120-69.284v-138.568l120-69.284z" fill="#74f7f9"/><path d="m325.28 216v80l-69.28 40-69.28-40v-80l69.28-40z" fill="#68eaea"/><path d="m256 512c-8.837 0-16-7.164-16-16v-160c0-8.836 7.163-16 16-16s16 7.164 16 16v160c0 8.836-7.163 16-16 16z" fill="#4379ff"/><path d="m256 192c-8.837 0-16-7.164-16-16v-160c0-8.836 7.163-16 16-16s16 7.164 16 16v160c0 8.836-7.163 16-16 16z" fill="#4379ff"/><path d="m244.687 115.313-52-52c-6.249-6.248-6.249-16.379 0-22.627 6.248-6.249 16.379-6.249 22.627 0l40.686 40.687 40.687-40.686c6.248-6.249 16.379-6.249 22.627 0 6.249 6.248 6.249 16.379 0 22.627l-52 52c-6.248 6.248-16.379 6.249-22.627-.001z" fill="#6994ff"/><path d="m308 476c-4.095 0-8.189-1.562-11.313-4.687l-40.687-40.686-40.687 40.686c-6.248 6.249-16.379 6.249-22.627 0-6.249-6.248-6.249-16.379 0-22.627l52-52c6.248-6.249 16.379-6.249 22.627 0l52 52c10.11 10.108 2.812 27.314-11.313 27.314z" fill="#6994ff"/><path d="m463.835 392.002c-6.036 0 4.633 5.139-146.56-82.149-7.651-4.421-10.27-14.208-5.849-21.858 4.421-7.651 14.207-10.271 21.858-5.849l138.564 79.997c14.123 8.155 8.327 29.859-8.013 29.859z" fill="#4379ff"/><path d="m186.705 232.002c-6.036 0 4.638 5.142-146.555-82.146-7.652-4.418-10.274-14.204-5.856-21.856 4.417-7.653 14.205-10.275 21.856-5.856l138.574 80.003c14.132 8.165 8.302 29.855-8.019 29.855z" fill="#4379ff"/><path d="m53.321 215.037c-7.065 0-13.529-4.714-15.445-11.863-2.287-8.536 2.778-17.309 11.314-19.596l55.578-14.893-14.893-55.578c-2.287-8.536 2.778-17.309 11.314-19.596 8.538-2.288 17.309 2.779 19.596 11.313l19.033 71.033c2.287 8.536-2.778 17.309-11.314 19.596-77.524 20.774-72.221 19.584-75.183 19.584z" fill="#6994ff"/><path d="m406.659 419.037c-7.065 0-13.529-4.714-15.445-11.863l-19.033-71.033c-2.287-8.536 2.778-17.309 11.314-19.596l71.033-19.033c8.537-2.288 17.309 2.779 19.596 11.313 2.287 8.536-2.778 17.309-11.314 19.596l-55.578 14.893 14.893 55.578c2.722 10.161-4.95 20.145-15.466 20.145z" fill="#6994ff"/><path d="m325.295 232.002c-16.321 0-22.151-21.691-8.02-29.856l138.574-80.003c7.651-4.417 17.438-1.797 21.856 5.856s1.796 17.438-5.856 21.856c-151.058 87.212-140.458 82.147-146.554 82.147z" fill="#4379ff"/><path d="m48.165 392.002c-16.344 0-22.131-21.708-8.015-29.859l138.564-79.997c7.647-4.421 17.438-1.803 21.858 5.849 4.421 7.651 1.803 17.438-5.849 21.858-151.057 87.211-140.46 82.149-146.558 82.149z" fill="#4379ff"/><path d="m458.679 215.037c-3 0 2.245 1.164-75.184-19.583-8.536-2.287-13.602-11.06-11.314-19.596l19.033-71.033c2.288-8.535 11.064-13.602 19.596-11.313 8.536 2.287 13.602 11.06 11.314 19.596l-14.893 55.578 55.578 14.893c8.536 2.287 13.602 11.06 11.314 19.596-1.915 7.147-8.38 11.862-15.444 11.862z" fill="#6994ff"/><path d="m105.341 419.037c-10.52 0-18.187-9.987-15.465-20.145l14.893-55.578-55.579-14.893c-8.536-2.287-13.602-11.06-11.314-19.596 2.288-8.535 11.064-13.602 19.596-11.313l71.033 19.033c8.536 2.287 13.602 11.06 11.314 19.596l-19.033 71.033c-1.916 7.148-8.381 11.863-15.445 11.863z" fill="#6994ff"/><g fill="#80aaff"><path d="m120 256c0 13.23-10.77 24-24 24s-24-10.77-24-24 10.77-24 24-24 24 10.77 24 24z"/><path d="m440 256c0 13.23-10.77 24-24 24s-24-10.77-24-24 10.77-24 24-24 24 10.77 24 24z"/><path d="m196.78 406.57c-10.682 18.526-38.451 14.754-43.96-5.79-5.481-20.47 16.604-37.73 35.18-27 11.351 6.533 15.485 21.176 8.78 32.79z"/><path d="m356.78 129.44c-6.629 11.481-21.358 15.385-32.78 8.78-11.477-6.638-15.423-21.284-8.78-32.79 6.575-11.404 21.203-15.455 32.78-8.78 11.53 6.669 15.396 21.351 8.78 32.79z"/><path d="m359.18 400.78c-5.521 20.587-33.307 24.29-43.96 5.78-6.638-11.477-2.707-26.136 8.78-32.78 18.523-10.711 40.671 6.494 35.18 27z"/><path d="m199.18 123.65c-2.9 10.813-12.638 17.78-23.14 17.78-15.811 0-27.307-14.948-23.22-30.21 3.439-12.824 16.606-20.398 29.39-16.97 12.798 3.432 20.405 16.571 16.97 29.4z"/></g><path d="m256 352c-6.124 0-3.23.61-77.28-42.144-4.95-2.858-8-8.14-8-13.856v-80c0-5.716 3.05-10.998 8-13.856l69.28-40c4.949-2.858 11.051-2.858 16 0l69.28 40c4.95 2.858 8 8.14 8 13.856v80c0 5.716-3.05 10.998-8 13.856-74.314 42.907-71.257 42.144-77.28 42.144zm-53.28-65.237 53.28 30.762 53.28-30.762v-61.525l-53.28-30.763-53.28 30.762z" fill="#4379ff"/></svg>