<svg id="Layer_1" enable-background="new 0 0 512 512" height="512" viewBox="0 0 512 512" width="512" xmlns="http://www.w3.org/2000/svg"><path d="m454.194 445.935v66.065h-396.388v-66.065c0-67.479 33.714-127.071 85.223-162.859h225.941c52.282 36.352 85.224 96.283 85.224 162.859z" fill="#80aaff"/><path d="m454.194 512h-396.388c0-54.926 22.338-104.619 58.426-140.511 14.524-14.452 34.323-22.348 54.813-22.348h169.899c20.342 0 40.267 7.778 55.195 22.72 35.871 35.86 58.055 85.409 58.055 140.139z" fill="#6994ff"/><path d="m371.613 247.742v24.774c0 26.426-48.268 48.021-109.089 49.466-1.644.043-4.459.083-6.524.083-63.855 0-115.613-22.183-115.613-49.548v-24.774c0-14.658 14.854-27.83 38.472-36.903 39.682 49.179 114.559 49.229 154.281 0 23.619 9.072 38.473 22.244 38.473 36.902z" fill="#ffa4b8"/><path d="m322.065 313.806v165.161c0 9.122-7.395 16.516-16.516 16.516h-49.549c-9.122 0-16.516-7.395-16.516-16.516v-156.902" fill="#fe929f"/><path d="m355.097 107.355v41.29c0 23.556-8.217 45.192-21.956 62.194-39.682 49.179-114.559 49.229-154.281 0-13.739-17.002-21.956-38.638-21.956-62.194 0-41.979-1.555-54.707 6.018-75.396 8.413 15.401 24.754 25.848 43.53 25.848h49.548c34.918 0 65.668-18.072 83.314-45.419 9.992 15.463 15.783 33.889 15.783 53.677z" fill="#ffebd2"/><path d="m256 206.452c-68.971 0-116.654-68.794-93.079-133.203 8.413 15.401 24.754 25.848 43.53 25.848h49.549c34.918 0 65.668-18.072 83.314-45.419 41.892 64.829-4.107 152.774-83.314 152.774z" fill="#fff3e4"/><path d="m355.097 0c0 54.729-44.365 99.097-99.097 99.097h-49.548c-27.35 0-49.548-22.159-49.548-49.548-.001-27.361 22.171-49.549 49.548-49.549z" fill="#999"/></svg>