<svg id="Layer_1" enable-background="new 0 0 512 512" height="512" viewBox="0 0 512 512" width="512" xmlns="http://www.w3.org/2000/svg"><path d="m413.48 47.36c1.64 5.26 2.52 10.85 2.52 16.64v264c0 8.837-7.163 16-16 16h-24c-8.837 0-16-7.163-16-16v-66.46c-21.29 9.55-32.45 14.3-56 18.46v48c0 8.837-7.163 16-16 16h-24c-8.837 0-16-7.163-16-16v-41.93c-11.25 1.25-28.27 1.93-36 1.93-20.86 0-55.53-4.97-68-12.8v53.8c0 8.284-6.716 15-15 15h-33c-8.837 0-16-7.163-16-16v-120c0-61.733 50.019-112 112-112h48c0-13.25 10.75-24 24-24h16c4.373 0 8.009-3.511 8-7.885-.031-15.506 6.245-29.55 16.4-39.716 18.541-18.521 38.255-16.399 55.6-16.399 9.39 0 18.24 2.31 26.01 6.4 3.71-8.51 12.21-14.44 22.09-14.4 12.46.05 23.01 9.92 23.84 22.35.81 12.08-7.34 22.42-18.46 25.01z" fill="#ece2e2"/><path d="m288 152v32h-120c-29.02 0-54.75-14.04-70.77-35.71 19.83-31.42 54.86-52.29 94.77-52.29h48v8c0 26.51 21.49 48 48 48z" fill="#f2f2f2"/><path d="m479.65 432c-4.098-49.519-45.53-88-95.65-88h-256c-50.091 0-91.549 38.45-95.65 88-.544 0-.35-4.933-.35 64h448c0-68.929.194-64-.35-64z" fill="#ece2e2"/><path d="m471.77 401.07h-431.54c14.93-33.62 48.61-57.07 87.77-57.07h256c39.16 0 72.84 23.45 87.77 57.07z" fill="#f2f2f2"/><path d="m496 432c-40 0-40 16-80 16-40.01 0-40.01-16-80.01-16s-40 16-80 16-40-16-79.99-16c-40 0-40 16-80 16s-40-16-80-16h-16v80h512v-80z" fill="#8dffff"/></svg>