<svg id="Layer_1" enable-background="new 0 0 512.002 512.002" height="512" viewBox="0 0 512.002 512.002" width="512" xmlns="http://www.w3.org/2000/svg"><path d="m383.228 451.981c-36.528-22.571-84.562 3.557-84.562 47.219v7.274c-27.794 7.369-57.527 7.371-85.33 0v-7.274c0-43.487-47.867-69.893-84.562-47.219-34.149-42.015-42.653-95.977-28.084-143.279 15.235-49.439 22.327-102.342 19.476-156.292 7.928-55.508 76.203-78.18 115.846-38.537 12.352 12.351 19.988 29.417 19.988 48.275 0-37.705 30.559-68.264 68.264-68.264 34.219 0 62.386 25.09 67.453 57.704 0 9.148-19.293 66.384 13.311 140.292 22.878 51.862 15.929 113.68-21.8 160.101z" fill="#ece2e2"/><path d="m415.696 326.813c-13.322 76.125-79.751 133.989-159.694 133.989-79.954 0-146.383-57.875-159.694-134.01 4.291-24.079 28.777-81.331 23.86-174.382 4.725-33.087 33.172-58.526 67.571-58.526 37.714 0 68.264 30.547 68.264 68.264 0-61.147 74.006-90.808 116.539-48.275 9.994 9.994 16.906 23.092 19.178 37.716 0 8.91-19.293 66.382 13.311 140.292 4.873 11.051 8.489 22.741 10.665 34.932z" fill="#f2f2f2"/><path d="m391.985 148.88c-1.036 10.999 2.11-13.453-19.444-35.006-42.545-42.545-116.539-12.848-116.539 48.275 0-37.714-30.547-68.264-68.264-68.264-34.399 0-62.845 25.439-67.571 58.526-.107-2.187-.235-4.384-.384-6.571-5.056-76.659 53.267-141.245 128.208-145.584 85.831-4.97 151.652 62.985 143.994 148.624z" fill="#aaa"/><path d="m409.595 499.201v12.799h-110.929v-12.799c0-30.634 24.831-55.464 55.464-55.464 30.632-.001 55.465 24.83 55.465 55.464z" fill="#f2a661"/><path d="m213.336 499.201v12.799h-110.928v-12.799c0-19.956 10.538-37.46 26.367-47.219 36.629-22.634 84.561 3.672 84.561 47.219z" fill="#f2a661"/><path d="m100.691 308.702c-3.552 11.53-5.792 23.626-6.539 36.105-19.893 33.524-41.545 53.193-55.518 47.497-19.85-8.095-16.65-64.349 7.146-125.659 21.781-56.147 53.289-97.052 73.693-97.307.427-.011.843 0 1.259.032.683 47.176-6.112 94.129-20.041 139.332z" fill="#b2b2b2"/><path d="m473.368 392.304c-13.962 5.696-35.625-13.972-55.518-47.486.339 0-1.266-26.742-12.821-52.936-16.948-38.42-23.071-80.764-16.287-122.085 1.216-.331 2.475-.48 3.787-.448 20.404.245 51.902 41.161 73.693 97.297 23.796 61.309 26.996 117.562 7.146 125.658z" fill="#b2b2b2"/><path d="m120.167 152.41c-.928 6.43-.693 8.577-.693 35.337" fill="#8bc4ff"/><path d="m240.819 238.207c-8.645-16.838-18.95-39.26-18.95-50.459 0-18.82 15.312-34.132 34.132-34.132s34.132 15.312 34.132 34.132c0 11.2-10.305 33.621-18.95 50.459-6.336 12.339-24.024 12.346-30.364 0z" fill="#ffaa64"/></svg>