<svg id="Layer_1" enable-background="new 0 0 512 512" height="512" viewBox="0 0 512 512" width="512" xmlns="http://www.w3.org/2000/svg"><path d="m512 512h-512c0-18.859 7.637-35.926 19.989-48.277 22.403-22.403 46.616-19.99 65.344-19.99v-273.066c0-94.262 76.406-170.667 170.667-170.667 94.262 0 170.667 76.413 170.667 170.667v273.067h17.067c37.715-.001 68.266 30.547 68.266 68.266z" fill="#e0b7a3"/><path d="m512 512h-512c0-18.859 7.637-35.926 19.989-48.277 22.403-22.403 46.616-19.99 65.344-19.99v-162.133h341.333v162.133h17.067c37.716 0 68.267 30.548 68.267 68.267z" fill="#c79a83"/><path d="m256 460.8c-93.994 0-170.667-76.15-170.667-170.666v-68.267c0-94.257 76.41-170.667 170.667-170.667 93.994 0 170.667 76.15 170.667 170.667v68.267c0 94.256-76.41 170.666-170.667 170.666z" fill="#c79a83"/><path d="m196.267 332.8c-9.426 0-17.067-7.641-17.067-17.067v-68.267c0-9.426 7.641-17.067 17.067-17.067s17.067 7.641 17.067 17.067v68.267c-.001 9.426-7.642 17.067-17.067 17.067z" fill="#ece2e2"/><path d="m307.2 332.8c-9.426 0-17.067-7.641-17.067-17.067v-68.267c0-9.426 7.641-17.067 17.067-17.067s17.067 7.641 17.067 17.067v68.267c0 9.426-7.641 17.067-17.067 17.067z" fill="#ece2e2"/><path d="m302.933 145.067c-19.769 0-37.111 10.351-46.933 25.92-9.822-15.569-27.164-25.92-46.933-25.92-30.633 0-55.467 24.833-55.467 55.467s24.833 55.466 55.467 55.466c19.769 0 37.111-10.351 46.933-25.92 9.822 15.569 27.164 25.92 46.933 25.92 30.633 0 55.467-24.833 55.467-55.467s-24.833-55.466-55.467-55.466z" fill="#b2b2b2"/><path d="m240.735 178.299-17.067-34.133c-5.662-11.325 2.58-24.699 15.265-24.699h34.133c12.663 0 20.937 13.356 15.265 24.699l-17.067 34.133c-6.273 12.549-24.246 12.567-30.529 0z" fill="#999"/><g fill="#a07765"><path d="m187.733 375.467v102.4c0 12.427-3.339 24.085-9.163 34.133h-59.104c18.827 0 34.133-15.317 34.133-34.133v-102.4c0-9.429 7.637-17.067 17.067-17.067s17.067 7.638 17.067 17.067z"/><path d="m392.533 512h-59.104c-5.824-10.048-9.163-21.707-9.163-34.133v-102.4c0-9.429 7.637-17.067 17.067-17.067 9.429 0 17.067 7.638 17.067 17.067v102.4c0 18.816 15.317 34.133 34.133 34.133z"/></g></svg>