<svg id="Layer_1" enable-background="new 0 0 511.99 511.99" height="512" viewBox="0 0 511.99 511.99" width="512" xmlns="http://www.w3.org/2000/svg"><path d="m204.787 456.59h-25.6c-9.426 0-17.067-7.641-17.067-17.067s7.641-17.067 17.067-17.067h8.533v-59.733c0-9.426 7.641-17.067 17.067-17.067s17.067 7.641 17.067 17.067v76.8c-.001 9.426-7.641 17.067-17.067 17.067z" fill="#e0b7a3"/><path d="m290.12 456.59h-25.6c-9.426 0-17.067-7.641-17.067-17.067s7.641-17.067 17.067-17.067h8.533v-59.733c0-9.426 7.641-17.067 17.067-17.067s17.067 7.641 17.067 17.067v76.8c-.001 9.426-7.641 17.067-17.067 17.067z" fill="#e0b7a3"/><path d="m494.903 390.149c-3.321 0-6.677-.968-9.624-2.985l-102.4-70.09c-7.778-5.324-9.768-15.945-4.444-23.723 5.324-7.777 15.946-9.768 23.723-4.444l102.4 70.09c13.88 9.5 6.982 31.152-9.655 31.152z" fill="#999"/><path d="m63.206 189.561c-5.464 0-2.866.58-53.783-24.875-12.164-6.081-12.665-23.323-.836-30.083l40.088-22.909c10.521-6.012 23.802.571 25.387 12.585l6.066 45.983c1.348 10.22-6.617 19.299-16.922 19.299z" fill="#a07765"/><path d="m409.586 294.457s-59.733 93.866-204.799 76.8c-104.448-12.293-143.607-94.392-104.907-157.738-26.291-13.505-45.658-36.931-48.416-66.347-5.66-54.671 55.872-103.117 125.397-89.429 43.604 8.449 79.125 41.205 79.125 83.114 0 2.918-.352 7.147.789 13.408-7.194-2.038-13.962-3.213-21.44-3.051-5.074.171-9.428 1.052-10.699 1.483-12.144 3.2-22.287 13.666-28.565 24.469-11.334 18.688-11.686 39.889 1.248 56.971 17.75 23.208 51.36 31.302 79.445 37.418 15.828 3.399 116.613 25.044 132.822 22.902z" fill="#f2a661"/><path d="m358.823 288.067c-33.13 20.619-83.498 38.549-154.037 30.251-55.285-6.507-102.314-36.021-115.68-80.48.209 0 2.357-10.543 10.773-24.32-5.088-2.614-9.867-5.59-14.304-8.896 1.163-15.882 6.208-30.816 14.304-44.042-19.505-10.011-35.855-26.158-43.669-46.187 28.637-71.609 143.014-79.049 186.304-15.861-11.531-1.088-21.59 1.035-29.195 6.454-13.589 9.674-27.104 30.122-25.589 51.402 1.011 14.277 7.872 21.367 7.499 22.24-11.371 20.097-10.545 42.353 5.728 59.808 20.194 21.498 53.953 28.397 78.922 33.802 25.958 5.594 52.12 11.103 78.944 15.829z" fill="#ffbd7b"/><ellipse cx="153.587" cy="140.857" fill="#f2a661" rx="102.4" ry="85.333"/><path d="m256.776 154.265c-13.138-3.804-28.302-4.92-40.235 1.654-16.885 2.005-37.696 1.834-54.421-6.528-47.04-23.52-93.93 5.014-107.221 14.325-18.229-54.769 31.541-108.192 98.688-108.192 56.554 0 102.4 38.208 102.4 85.333-.001 2.919-.353 7.147.789 13.408z" fill="#999"/><path d="m409.586 294.457s-19.008 2.421-145.066-25.6c-81.6-18.133-85.13-61.066-69.696-89.504 4.885-9.013 11.68-16.576 18.496-21.429 10.603-7.552 25.995-8.715 43.456-3.659 23.787 6.902 51.402 25.333 76.01 54.859 29.356 35.22 60.346 68.879 76.8 85.333z" fill="#aaa"/><path d="m356.018 236.367c-21.333-3.808-50.858-9.675-91.498-18.709-38.667-8.597-59.808-22.752-69.696-38.304 4.885-9.013 11.68-16.576 18.496-21.429 10.603-7.552 25.995-8.715 43.456-3.659 23.787 6.902 51.402 25.333 76.01 54.859 8.117 9.737 15.925 18.858 23.232 27.242z" fill="#b2b2b2"/></svg>