<svg id="Layer_1" enable-background="new 0 0 512 512" height="512" viewBox="0 0 512 512" width="512" xmlns="http://www.w3.org/2000/svg"><path d="m512 231.05v141.12l-76.502-129.462c-23.234-39.318-79.96-38.985-102.997-.001l-62.347 105.505-84.362-142.762 104.044-176.075c23.234-39.319 79.96-38.984 102.996 0z" fill="#8bc4ff"/><path d="m270.155 348.213c-75.889 128.443-45.151 76.422-96.768 163.776h-173.387v-245.494c57.234-96.857 49.489-83.748 59.435-100.587 23.122-39.116 79.866-39.148 102.997 0 28.056 47.492 5.052 8.56 107.723 182.305z" fill="#999"/><path d="m270.155 348.213c-10.909 18.464-55.953 94.702-61.472 104.043-86.733 0-157.483-70.268-157.483-157.483v-114.923l8.235-13.941c23.23-39.3 80.02-38.889 102.997 0 28.056 47.491 5.052 8.559 107.723 182.304z" fill="#aaa"/><path d="m512 372.17v139.819h-338.613c121.902-206.302 29.641-50.183 159.115-269.28 23.23-39.3 80.02-38.889 102.997 0z" fill="#aaa"/><path d="m512 372.17v80.085h-303.317c75.156-127.203 50.007-84.641 123.819-209.547 23.122-39.116 79.866-39.148 102.997 0z" fill="#b2b2b2"/><path d="m512 231.05v141.12l-76.501-129.461c-23.23-39.3-80.02-38.889-102.997 0-32.25 54.573-28.235 47.779-62.347 105.504l-84.363-142.763c22.357-37.848 3.167-5.371 104.043-176.075 23.23-39.3 80.02-38.889 102.997 0z" fill="#aaa"/><path d="m308.661 283.05-38.506 65.163-84.363-142.763 16.811-28.459z" fill="#999"/><g fill="#f2f2f2"><path d="m205.152 238.218-16.657 33.313c-4.271 8.541-16.037 9.602-21.767 1.963-5.883-7.844-18.033-6.472-22.016 2.49l-10.094 22.711c-4.962 11.164-21.238 9.751-24.201-2.102l-10.261-41.042c-2.578-10.313-15.853-13.21-22.494-4.909l-2.762 3.452c-6.444 8.055-19.276 5.612-22.309-4.247l-14.641-47.587 21.483-36.352c23.23-39.3 80.02-38.889 102.997 0 28.949 48.999 16.689 28.248 42.722 72.31z"/><path d="m432.864 97.13-31.757 44.456c-3.89 5.446-12.178 4.795-15.171-1.191l-10.587-21.174c-3.357-6.713-13.011-6.494-16.06.365l-19.366 43.573c-2.956 6.65-12.216 7.118-15.827.799l-18.301-32.026c-3.276-5.732-11.439-6.013-15.101-.52-3.911 5.866-12.774 5.057-15.553-1.429l-18.812-43.904 33.504-56.704c23.23-39.3 80.02-38.889 102.997 0z"/><path d="m465.984 294.303-21.887 27.363c-4.746 5.933-13.596 6.424-18.969 1.051l-3.022-3.022c-6.152-6.152-16.524-4.469-20.416 3.313l-8.466 16.933c-4.238 8.476-15.914 9.529-21.6 1.948l-3.026-4.035c-5.099-6.799-15.297-6.799-20.396 0-6.317 8.423-19.558 5.993-22.455-4.146l-15.326-53.633 22.08-37.365c23.116-39.123 79.859-39.144 102.997 0z"/></g></svg>