<svg id="Layer_1" enable-background="new 0 0 512 512" height="512" viewBox="0 0 512 512" width="512" xmlns="http://www.w3.org/2000/svg"><path d="m48 16h416v416h-416z" fill="#74f7f9"/><g fill="#8dffff"><path d="m256 16c-212.571 0-208 .1-208 0 0 57.438 46.562 104 104 104h104z"/><path d="m464 16c-212.571 0-208 .1-208 0 0 57.438 46.562 104 104 104h104z"/><path d="m256 224c-212.571 0-208 .1-208 0 0 57.438 46.562 104 104 104h104z"/><path d="m464 224c-212.571 0-208 .1-208 0 0 57.438 46.562 104 104 104h104z"/></g><path d="m512 464v32c0 8.837-7.163 16-16 16h-480c-8.837 0-16-7.163-16-16v-32c0-8.837 7.163-16 16-16h480c8.837 0 16 7.163 16 16z" fill="#a07765"/><path d="m256 128v96h-208v-96c0 24 32 48 56 48s32-24 48-24c22.63 0 24 16 48 16s56-40 56-40z" fill="#f9f9f9"/><path d="m464 128v96h-208v-120c0 24 48 64 72 64s24-8 40-8c22.63 0 24 8 48 8s48-40 48-40z" fill="#f9f9f9"/><path d="m464 304v128h-208v-120c0 24 40 64 64 64s24-8 40-8c22.63 0 32 16 56 16s48-80 48-80z" fill="#f9f9f9"/><path d="m256 336v96h-208v-152c0 24 40 96 64 96s24-24 40-24c22.63 0 32 32 56 32s48-48 48-48z" fill="#f9f9f9"/><path d="m480 448h-448v-432c0-8.837 7.163-16 16-16h416c8.837 0 16 7.163 16 16zm-416-32h384v-384h-384z" fill="#c79a83"/><path d="m255.227 447.982c-8.606-.405-15.227-7.818-15.227-16.434v-415.096c0-8.616 6.621-16.029 15.227-16.434 9.189-.432 16.773 6.889 16.773 15.982v416c0 9.093-7.584 16.414-16.773 15.982z" fill="#c79a83"/><path d="m464 240h-415.548c-8.615 0-16.028-6.621-16.434-15.226-.433-9.188 6.888-16.774 15.982-16.774h415.548c8.615 0 16.028 6.621 16.434 15.226.433 9.188-6.888 16.774-15.982 16.774z" fill="#c79a83"/></svg>