<svg id="Layer_1" enable-background="new 0 0 512.02 512.02" height="512" viewBox="0 0 512.02 512.02" width="512" xmlns="http://www.w3.org/2000/svg"><path d="m216.01 88.02v56c0 22.09-17.91 40-40 40s-40-17.91-40-40v-56c23.54 18.833 56.799 18.583 80 0z" fill="#ea8692"/><path d="m188.31 100.86c-7.58-7.27-12.3-17.5-12.3-28.84v-56c23.542 18.834 56.8 18.582 80 0v56c0 11.33-4.71 21.56-12.29 28.84h-.01" fill="#ffa4b8"/><path d="m296.01 88.02v56c0 22.09-17.91 40-40 40s-40-17.91-40-40v-56c23.354 18.705 56.649 18.703 80 0z" fill="#ea8692"/><path d="m376.01 88.02v56c0 22.09-17.91 40-40 40s-40-17.91-40-40v-56c23.104 18.506 56.367 18.907 80 0z" fill="#ea8692"/><g fill="#fe929f"><path d="m216.01 88.02v16c0 22.09-17.91 40-40 40s-40-17.91-40-40v-16c23.54 18.833 56.799 18.583 80 0z"/><path d="m296.01 88.02v16c0 22.09-17.91 40-40 40s-40-17.91-40-40v-16c23.354 18.705 56.649 18.703 80 0z"/><path d="m376.01 88.02v16c0 22.09-17.91 40-40 40s-40-17.91-40-40v-16c23.104 18.506 56.367 18.907 80 0z"/></g><path d="m336.01 16.02v56c0 11.33-4.71 21.56-12.29 28.84-9.89-1.93-19.42-6.2-27.71-12.84-8.29 6.64-17.82 10.91-27.71 12.84-7.58-7.28-12.29-17.51-12.29-28.84v-56c23.367 18.694 56.6 18.721 80 0z" fill="#ffa4b8"/><path d="m304.01 496.02h-96l16-88h64z" fill="#ece2e2"/><path d="m416.01 184.02c0 102.024-52.805 181.698-128 224h-64c-76.682-43.137-128-123.719-128-224z" fill="#f2f2f2"/><path d="m416.01 184.02c0 50.876-11.581 96.277-38.84 139.29-10.805 12.267-20.94 21.873-34.392 32.297-35.375 27.41-89.844 27.897-126.328-.622-53.324-41.683-87.736-103.36-95-170.965z" fill="#f9f9f9"/><path d="m112.03 184.02h8.96c-2.866.848-6.053.86-8.96 0z" fill="#f2f2f2"/><path d="m354.19 354.16c-7.7 8.84-16.05 17.16-24.99 24.89-3.15-2.68-5.25-6.56-5.58-10.94-8.247-89.09-74-165.184-163.77-184.09h84.05c59.843 37.644 100.484 99.87 110.29 170.14z" fill="#f2f2f2"/><path d="m416.01 168.02h-29.414c7.193-15.1 5.414-22.158 5.414-80 0-13.382-15.529-20.866-25.995-12.494-4.548 3.639-9.725 6.391-15.219 8.171 1.621-7.705 1.215-6.257 1.215-67.676 0-13.381-15.529-20.867-25.995-12.494-17.435 13.948-42.386 14.099-60.01 0-5.704-4.582-14.053-4.75-19.997.005-17.517 14.03-42.472 14.019-60.003-.005-10.452-8.36-25.995-.909-25.995 12.494 0 61.432-.405 59.98 1.215 67.676-5.495-1.779-10.671-4.532-15.219-8.171-10.454-8.359-25.995-.909-25.995 12.494 0 58.239-1.721 65.021 5.414 80h-29.416c-8.837 0-16 7.164-16 16 0 102.476 50.784 185.236 126.267 232.088l-14.009 77.05c-1.783 9.809 5.758 18.862 15.742 18.862h96c9.969 0 17.528-9.039 15.742-18.862l-14.009-77.05c75.916-47.121 126.267-129.941 126.267-232.088 0-8.836-7.163-16-16-16zm-56-24c0 13.233-10.767 24-24 24s-24-10.767-24-24v-29.655c16.016 5.043 32.901 4.736 48-.016zm-128 0v-29.655c16.139 5.083 33.058 4.706 48 0v29.655c0 13.233-10.767 24-24 24s-24-10.766-24-24zm88-101.671c0 31.12.773 33.556-2.339 40.041-8.353-3.454-11.183-7.053-14.642-8.745-3.32-1.628-7.257-2.085-11.006-1.121-6.328 1.628-6.985 5.447-17.674 9.865-3.069-6.394-2.339-8.491-2.339-40.041 15.175 4.777 31.829 5.091 48 .001zm-128 0c16.003 5.036 32.482 4.761 47.39.214.872-.265.61-3.494.61 29.457 0 3.659-.808 7.18-2.34 10.37-4.181-1.729-8.124-4.028-11.657-6.858-4.386-3.515-10.498-4.561-15.982-2.349-4.629 1.864-6.447 5.427-15.666 9.232-3.088-6.405-2.355-8.514-2.355-40.066zm-40 101.671v-29.671c15.733 4.951 32.492 4.909 48 .025v29.646c0 13.233-10.767 24-24 24s-24-10.766-24-24zm-39.715 56.624c98.574 7.581 176.919 83.633 189.844 179.407-5.91 4.251-12.044 8.249-18.394 11.969h-55.471c-68.513-40.14-112.107-112.376-115.979-191.376zm114.886 279.376 10.183-56h37.293l10.183 56zm103.176-123.856c-14.573-65.813-56.252-122.473-114.437-156.144h183.839c-2.753 59.423-27.986 115.059-69.402 156.144z"/></svg>