<svg id="Layer_1" enable-background="new 0 0 512.024 512.024" height="512" viewBox="0 0 512.024 512.024" width="512" xmlns="http://www.w3.org/2000/svg"><path d="m160.024 276.662v-76.65h64v-64h-64v-64c-30.145 0 13.491 0-64 0v64h-64v64h64v76.65c-46.26 13.77-80 56.61-80 107.35 0 61.86 50.14 112 112 112s112-50.14 112-112c0-50.74-33.74-93.58-80-107.35zm-32 155.35c-26.51 0-48-21.49-48-48s21.49-48 48-48 48 21.49 48 48-21.49 48-48 48z" fill="#ffa4b8"/><path d="m416.024 235.362c46.26-13.77 80-56.61 80-107.35 0-61.86-50.14-112-112-112s-112 50.14-112 112c0 50.74 33.74 93.58 80 107.35v76.65h-64v64h64v64h64v-64h64v-64h-64zm-32-59.35c-26.51 0-48-21.49-48-48s21.49-48 48-48 48 21.49 48 48-21.49 48-48 48z" fill="#ffa4b8"/><path d="m128.024 320.012c-35.29 0-64 28.71-64 64s28.71 64 64 64 64-28.71 64-64-28.711-64-64-64zm0 96c-17.645 0-32-14.355-32-32s14.355-32 32-32 32 14.355 32 32-14.355 32-32 32z"/><path d="m176.024 265.345v-49.333h48c8.836 0 16-7.164 16-16v-64c0-8.836-7.164-16-16-16h-48v-48c0-8.836-7.164-16-16-16-117.852 0 22.339 0-64 0-8.836 0-16 7.164-16 16v48h-48c-8.836 0-16 7.164-16 16v64c0 8.836 7.164 16 16 16h48v49.333c-21.263 8.646-40.176 23.079-54.103 41.468-63.096 83.316-4.041 205.198 102.103 205.198 106.113 0 165.223-121.851 102.103-205.198-13.928-18.389-32.841-32.822-54.103-41.468zm-48 214.667c-52.935 0-96-43.065-96-96 0-42.16 28.195-79.998 68.565-92.015 6.784-2.02 11.435-8.256 11.435-15.335v-76.65c0-8.836-7.164-16-16-16h-48v-32h48c8.836 0 16-7.164 16-16v-48h32v48c0 8.836 7.164 16 16 16h48v32h-48c-8.836 0-16 7.164-16 16v76.65c0 7.079 4.651 13.315 11.435 15.335 40.37 12.017 68.565 49.855 68.565 92.015 0 52.934-43.066 96-96 96z"/><path d="m448.024 128.012c0-35.29-28.71-64-64-64s-64 28.71-64 64 28.71 64 64 64 64-28.711 64-64zm-64 32c-17.645 0-32-14.355-32-32s14.355-32 32-32 32 14.355 32 32-14.355 32-32 32z"/><path d="m480.024 296.012h-48v-49.333c46.403-18.868 80-64.286 80-118.667 0-70.58-57.42-128-128-128s-128 57.42-128 128c0 54.359 33.576 99.79 80 118.667v49.333h-48c-8.836 0-16 7.164-16 16v64c0 8.836 7.164 16 16 16h48v48c0 8.836 7.164 16 16 16h64c8.836 0 16-7.164 16-16v-48h48c8.836 0 16-7.164 16-16v-64c0-8.837-7.164-16-16-16zm-16 64h-48c-8.836 0-16 7.164-16 16v48c-11.036 0-20.506 0-32 0v-48c0-8.836-7.164-16-16-16h-48v-32h48c8.836 0 16-7.164 16-16v-76.65c0-7.079-4.651-13.315-11.435-15.335-40.37-12.017-68.565-49.855-68.565-92.015 0-52.935 43.065-96 96-96s96 43.065 96 96c0 42.16-28.195 79.998-68.565 92.015-6.784 2.02-11.435 8.256-11.435 15.335v76.65c0 8.836 7.164 16 16 16h48z"/></svg>