<svg id="Layer_1" enable-background="new 0 0 512.006 512.006" height="512" viewBox="0 0 512.006 512.006" width="512" xmlns="http://www.w3.org/2000/svg"><path d="m496 376.003h-128c13.153-59.175 9.279-41.746 32-144v-72c0-17.679 14.319-32 32-32 17.715 0 32 14.37 32 32v72z" fill="#ea8692"/><path d="m448 132.283v123.72c0 38.86-30.8 70.54-69.32 71.95l21.32-95.95v-72c0-24.737 26.841-39.939 48-27.72z" fill="#ffa4b8"/><path d="m488 72.003c0 30.93-25.07 56-56 56-25.6 0-47.18-17.17-53.87-40.62-10.169-36.036 16.888-71.38 53.87-71.38 30.99 0 56 25.136 56 56z" fill="#ffdfba"/><path d="m378.13 87.383c-14.081-49.898 40.912-89.794 83.74-62.76 14.17 50.214-41.163 89.635-83.74 62.76z" fill="#ffebd2"/><path d="m176 408.003h-64v-168c0-17.673 14.327-32 32-32 17.624 0 32 14.278 32 32z" fill="#80aaff"/><path d="m112 344.003h64v64h-64z" fill="#4379ff"/><path d="m200 160.003c0 30.994-25.122 56-56 56-30.93 0-56-25.07-56-56 0-19.95 10.43-37.45 26.13-47.38 36.739-23.191 85.87 2.903 85.87 47.38z" fill="#ffdfba"/><path d="m197.87 175.383c-42.862 27.054-97.804-12.923-83.74-62.76 42.566-26.869 97.916 12.523 83.74 62.76z" fill="#ffebd2"/><path d="m511.619 372.532-26.344-118.546 15.607-32.514c16.326-34.013 5.199-72.903-22.887-94.125 15.878-13.217 26.005-33.118 26.005-55.344 0-39.701-32.299-72-72-72s-72 32.299-72 72c0 22.226 10.127 42.127 26.004 55.345-28.074 21.214-39.22 60.098-22.887 94.125l15.607 32.514-26.344 118.546c-2.218 9.981 5.385 19.471 15.619 19.471h16v88h-8c-8.836 0-16 7.164-16 16s7.164 16 16 16h24c8.836 0 16-7.164 16-16v-104h32v104c0 8.836 7.164 16 16 16h24c8.836 0 16-7.164 16-16s-7.164-16-16-16h-8v-88h16c10.225-.001 17.84-9.482 15.62-19.472zm-95.619-212.529c0-8.822 7.178-16 16-16s16 7.178 16 16c0 88.26-1.181 68.441 3.636 90.118l-19.636 40.907-19.636-40.908c4.822-21.698 3.636-1.866 3.636-90.117zm-24-88c0-22.056 17.944-40 40-40s40 17.944 40 40-17.944 40-40 40-40-17.944-40-40zm-4.054 288 13.186-59.335 16.444 34.259c5.795 12.074 23.047 12.086 28.849 0l16.444-34.259 13.186 59.335c-9.606 0-75.133 0-88.109 0z"/><path d="m316.687 148.69-51.314 51.313h-61.539c31.728-47.305-2.082-112-59.833-112-64.427 0-96.477 78.88-49.954 123.778-36.752 18.393-62.047 56.406-62.047 100.222 0 8.836 7.164 16 16 16h48v152h-80c-8.836 0-16 7.164-16 16s7.164 16 16 16h96c8.836 0 16-7.164 16-16v-88h112v88c0 8.836 7.164 16 16 16h24c8.836 0 16-7.164 16-16s-7.164-16-16-16h-8v-88c0-8.836-7.164-16-16-16h-64v-144h80c4.244 0 8.313-1.686 11.313-4.687l56-56c6.249-6.248 6.249-16.379 0-22.627-6.248-6.248-16.378-6.248-22.626.001zm-172.687-28.687c22.056 0 40 17.944 40 40s-17.944 40-40 40-40-17.944-40-40 17.944-40 40-40zm-78.393 176c3.971-19.482 15.048-36.408 30.393-47.954v47.954zm62.393 80v-48h16c8.836 0 16-7.164 16-16s-7.164-16-16-16h-16v-62.373c9.932-2.025 15.736-1.627 32-1.627v144z"/></svg>