<svg id="Layer_1" enable-background="new 0 0 511.992 511.992" height="512" viewBox="0 0 511.992 511.992" width="512" xmlns="http://www.w3.org/2000/svg"><path d="m175.999 248h-160l80-120z" fill="#8dffff"/><path d="m255.909 128.13c-4.113 6.17-75.733 113.604-79.91 119.87l-80-120z" fill="#74f7f9"/><path d="m415.829 128.26-79.83 119.74c-4.378-6.567-75.572-113.362-79.91-119.87z" fill="#74f7f9"/><path d="m495.999 248h-160l79.83-119.74c.265 0-3.731-5.839 80.17 119.74z" fill="#8dffff"/><path d="m495.999 248-240 248 77.5-248z" fill="#8dffff"/><path d="m255.999 496-240-248h162.5z" fill="#68eaea"/><path d="m255.999 128-.09.13" fill="#8bc4ff"/><path d="m415.999 128-.17.26" fill="#8bc4ff"/><path d="m335.999 248h-160c83.649-125.475 79.806-119.87 80.09-119.87 4.339 6.509 75.535 113.307 79.91 119.87z" fill="#8dffff"/><path d="m256.089 128.13-.09-.13" fill="#8bc4ff"/><path d="m333.499 248-77.5 248-77.5-248z" fill="#74f7f9"/><path d="m509.256 256.96c3.422-5.032 3.832-12.144.03-17.874-.587-.858 1.161 1.738-78.957-118.175-3.177-6.439-10.162-9.902-17.149-8.65-338.833-.279-319.024-.853-323.415 1.011-5.445 2.306.748-6.174-87.08 125.853-3.513 5.272-3.597 12.229-.079 17.616 1.305 1.991 242.019 250.61 243.291 251.653 5.367 4.368 13.008 4.848 18.911.948 2.258-1.497 243.181-250.509 244.448-252.382zm-413.257-100.116 50.104 75.156h-100.208zm215.737 107.156-55.737 178.358-55.737-178.358zm-105.84-32 50.104-75.156 50.103 75.156zm130.103-12.845-49.999-74.998 99.943.082zm-160 0-50.087-75.131 100.12.083zm-9.263 44.845 53.886 172.437-166.873-172.437zm178.526 0h112.988l-166.874 172.437zm20.634-32 50.03-75.045 50.141 75.045z"/><g fill="#8dffff"><path d="m255.999 72c8.836 0 16-7.163 16-16v-40c0-8.837-7.164-16-16-16s-16 7.163-16 16v40c0 8.837 7.164 16 16 16z"/><path d="m343.999 96c4.095 0 8.189-1.563 11.314-4.687l32-32c6.248-6.248 6.248-16.379 0-22.627-6.249-6.248-16.379-6.248-22.628 0l-32 32c-10.11 10.111-2.81 27.314 11.314 27.314z"/><path d="m156.685 91.313c6.25 6.249 16.379 6.248 22.628 0 6.248-6.248 6.248-16.379 0-22.627l-32-32c-6.249-6.248-16.379-6.248-22.628 0-6.248 6.248-6.248 16.379 0 22.627z"/></g></svg>