<svg id="Layer_1" enable-background="new 0 0 512.18 512.18" height="512" viewBox="0 0 512.18 512.18" width="512" xmlns="http://www.w3.org/2000/svg"><path d="m336.09 104-56-60.923 24-27.077h64l24 27.077z" fill="#8dffff"/><path d="m360.65 370.8c-21.463 7.085-45.737 7.125-68.19-1.06 36.505-73.403-16.6-161.74-100.37-161.74-61.6 0-112 49.873-112 112 0 85.454 91.685 138.646 165.54 98.4 22.42 12.66 48.04 20.31 75.35 21.45-32.14 34.54-77.99 56.15-128.89 56.15-97.2 0-176-78.8-176-176 0-142.627 160.192-224.165 275.29-145.33 64.497 44.14 91.004 123.923 69.27 196.13z" fill="#efd66c"/><path d="m496.09 272c0 95.966-80.049 171.899-175.11 167.85-115.74-4.832-191.677-122.996-149-230.05 22.376-4.049 45.878-1.312 67.04 8.49-41.432 68.528 7.648 157.71 89.07 157.71 57.324 0 104-46.44 104-104 0-73.031-73.203-122.831-140.71-97.33-21.71-14.87-46.93-25-74.16-28.88 29.58-26.02 68.39-41.79 110.87-41.79 92.78 0 168 75.22 168 168z" fill="#ffec8f"/><path d="m368.425 92.465 35.444-38.56c5.553-6.04 5.636-15.302.194-21.441l-24-27.077c-3.036-3.426-7.395-5.387-11.973-5.387h-64c-4.578 0-8.937 1.961-11.974 5.387l-24 27.077c-5.441 6.14-5.358 15.401.194 21.441l33.129 36.042c-32.609 4.765-63.431 18.211-89.188 39.109-113.208-11.862-212.161 77.017-212.161 190.944 0 138.748 143.501 231.779 269.985 175.496 38.805-17.268 56.015-39.496 58.015-39.496 101.458 0 184-82.542 184-184 0-87.605-61.544-161.096-143.665-179.535zm-57.137-60.465h49.604l9.646 10.882-34.448 37.475-34.447-37.476zm-279.198 288c0-88.225 71.776-160 160-160 103.587 0 179.906 97.01 155.481 197.825-10.994 2.485-22.236 2.842-33.478 1.054 26.231-82.147-35.282-166.879-122.003-166.879-70.793 0-128 57.192-128 128 0 93.176 96.74 155.077 181.299 116.4 11.711 5.899 25.28 10.99 38.913 14.316-105.697 74.386-252.212-1.2-252.212-130.716zm383.937-44.817c-.944 26.225-13.333 49.973-33.058 65.68 4.317-40.049-3.944-80.51-23.923-115.672-16.213-28.542-32.589-41.191-30.956-41.191 49.554 0 89.714 41.183 87.937 91.183zm-132 72.577c-.13.431.026.444-.839-.071-36.367-21.663-52.777-66.76-37.285-107.17 35.361 24.01 50.006 67.927 38.124 107.241zm-72.853 66.316c-63.324 12.794-120.768-39.267-114.631-103.33 3.095-32.272 22.27-60.938 51.317-76.004-13.565 65.841 9.95 135.344 63.314 179.334zm116.916 9.924c-103.813 0-176.634-101.867-144.382-199.632 11.201-.969 22.331-.016 33.041 2.826-32.113 79.859 28.412 168.165 116.152 164.711 14.012-.552 28.467-4.104 32.759-5.911.002 0 .003-.001.005-.001 51.222-17.074 82.425-63.865 82.425-113.993 0-80.2-77.628-138.069-154.463-114.972-11.384-7.102-24.615-13.566-38.48-18.395 100.372-54.928 224.943 17.571 224.943 133.367 0 83.813-68.187 152-152 152z"/></svg>