<svg id="Layer_1" enable-background="new 0 0 512 512" height="512" viewBox="0 0 512 512" width="512" xmlns="http://www.w3.org/2000/svg"><path d="m497 496v16h-481v-16c0-65.44 39.18-123.41 97.61-148.7 12.364-5.367 21.436-7.644 31.48-10.04 22.64-5.393 38.91-25.646 38.91-49.26 10.304 0 19.388-.512 32.21 4.74 23.34 9.54 39.79 32.48 39.79 59.26 0-35.472 28.771-64 64-64h8c0 23.45 16.1 43.83 38.91 49.26l4.57 1.09c67.76 16.13 117.01 73.49 123.72 141.65 1.788 17.776-.331 16 1.8 16z" fill="#4379ff"/><path d="m495.2 480h-376.902c-28.502 0-49.129-27.309-41.216-54.69 8.547-29.577 21.002-63.041 36.529-78.01 18.2-17.56 40.63-30.97 65.94-38.53 12.894-3.933 24.042-4.073 36.66-16.03 23.339 9.54 39.789 32.48 39.789 59.26 0-27.46 17.29-50.88 41.58-59.96 18.006-4.379 13.825-4.04 30.42-4.04 0 23.45 16.1 43.83 38.91 49.26l4.57 1.09c67.76 16.13 117.01 73.49 123.72 141.65z" fill="#6994ff"/><path d="m368 80v94.78c0 61.91-49.71 113.015-111.61 113.22-62.04.21-112.39-50.01-112.39-112v-96c0-32.74 24.58-59.74 56.3-63.54 5.436-.647-.936-.46 103.7-.46 35.35 0 64 28.65 64 64z" fill="#ffdfba"/><path d="m368 80v94.78c0 28.84-10.78 55.32-28.55 75.41-71.667 24.279-147.45-29.253-147.45-106.19v-96c0-11.47 3.01-22.24 8.3-31.54 5.436-.647-.936-.46 103.7-.46 35.35 0 64 28.65 64 64z" fill="#ffebd2"/><path d="m144 128c-.103 0 0-48.102 0-48 0-35.346 28.654-64 64-64h8v40c0 39.765-32.235 72-72 72z" fill="#999"/><path d="m368 80v48h-40c-61.857 0-112-50.138-112-112h88c35.35 0 64 28.65 64 64z" fill="#999"/><path d="m368 80h-40c-44.941 0-83.404-26.42-101.21-64h77.21c35.35 0 64 28.65 64 64z" fill="#aaa"/><path d="m370.618 321.7c-15.672-3.732-26.618-17.59-26.618-33.7 0-5.423-2.705-10.207-6.831-13.101 28.575-23.495 46.831-59.104 46.831-98.899 0-26.09 0-80.75 0-96 0-44.112-35.888-80-80-80-22.504 0-85.131 0-96 0-44.112 0-80 35.888-80 80v96c0 39.795 18.256 75.404 46.831 98.899-4.126 2.894-6.831 7.678-6.831 13.101 0 16.11-10.946 29.968-26.618 33.7-90.18 21.473-141.382 95.867-141.382 174.3 0 8.837 7.164 16 16 16s16-7.163 16-16c0-63.807 40.662-125.043 116.794-143.171 24.671-5.874 43.254-24.795 49.193-48.458 23.652 2.956 42.013 23.19 42.013 47.629v144c0 8.837 7.164 16 16 16s16-7.163 16-16v-144c0-24.439 18.361-44.673 42.013-47.629 5.938 23.663 24.521 42.584 49.193 48.458 75.379 17.949 116.794 78.601 116.794 143.171 0 8.837 7.164 16 16 16s16-7.163 16-16c0-78.003-50.796-152.73-141.382-174.3zm-66.618-289.7c26.467 0 48 21.532 48 48v32h-24c-47.484 0-87.027-34.654-94.667-80zm-144 48c0-23.742 17.327-43.514 40-47.333v23.333c0 25.32-16.893 46.771-40 53.672zm0 96v-33.462c28.976-5.345 53.021-24.93 64.586-51.204 23.301 31.899 60.975 52.666 103.414 52.666h24v32c0 52.935-43.065 96-96 96s-96-43.065-96-96zm95.956 128h.088c-.049.065-.036.069-.088 0z"/></svg>