<svg id="Layer_1" enable-background="new 0 0 512 512" height="512" viewBox="0 0 512 512" width="512" xmlns="http://www.w3.org/2000/svg"><path d="m464 376h-128c13.153-59.175 9.279-41.746 32-144v-72c0-17.679 14.319-32 32-32 17.715 0 32 14.37 32 32v72z" fill="#ea8692"/><path d="m416 132.28v123.72c0 38.86-30.8 70.54-69.32 71.95l21.32-95.95v-72c0-24.737 26.841-39.939 48-27.72z" fill="#ffa4b8"/><path d="m456 72c0 30.93-25.07 56-56 56-25.6 0-47.18-17.17-53.87-40.62-10.169-36.036 16.888-71.38 53.87-71.38 30.99 0 56 25.136 56 56z" fill="#ffdfba"/><path d="m346.13 87.38c-14.081-49.898 40.912-89.794 83.74-62.76 14.17 50.214-41.163 89.634-83.74 62.76z" fill="#ffebd2"/><path d="m48 376h128c-13.153-59.175-9.279-41.746-32-144v-72c0-17.679-14.319-32-32-32-17.715 0-32 14.37-32 32v72z" fill="#ea8692"/><path d="m96 132.28v123.72c0 38.86 30.8 70.54 69.32 71.95l-21.32-95.95v-72c0-24.737-26.841-39.939-48-27.72z" fill="#ffa4b8"/><path d="m56 72c0 30.93 25.07 56 56 56 25.6 0 47.18-17.17 53.87-40.62 10.169-36.036-16.888-71.38-53.87-71.38-30.99 0-56 25.136-56 56z" fill="#ffdfba"/><path d="m165.87 87.38c14.081-49.898-40.912-89.794-83.74-62.76-14.17 50.214 41.163 89.634 83.74 62.76z" fill="#ffebd2"/><path d="m449.954 123.778c46.567-44.942 14.382-123.778-49.954-123.778-64.428 0-96.476 78.879-49.954 123.778-36.751 18.393-62.046 56.406-62.046 100.222v104c0 8.837 7.164 16 16 16s16-7.163 16-16v-104c0-26.116 12.582-49.346 32-63.957v70.2l-31.619 142.286c-2.218 9.981 5.385 19.471 15.619 19.471h16v88h-8c-8.836 0-16 7.163-16 16s7.164 16 16 16h24c8.836 0 16-7.163 16-16v-104h32v104c0 8.837 7.164 16 16 16h24c8.836 0 16-7.163 16-16s-7.164-16-16-16h-8v-88h16c10.224 0 17.839-9.481 15.619-19.471l-31.619-142.286v-70.2c19.418 14.61 32 37.84 32 63.957v104c0 8.837 7.164 16 16 16s16-7.163 16-16v-104c0-43.816-25.295-81.829-62.046-100.222zm-89.954-51.778c0-22.056 17.944-40 40-40s40 17.944 40 40-17.944 40-40 40-40-17.944-40-40zm56 88c0 78.632-.163 73.02.381 75.471l27.673 124.529c-10.612 0-74.914 0-88.108 0 30.05-135.224 28.054-125.458 28.054-128v-72c0-8.822 7.178-16 16-16s16 7.178 16 16z"/><path d="m161.954 123.778c46.567-44.942 14.382-123.778-49.954-123.778-64.428 0-96.476 78.879-49.954 123.778-36.751 18.393-62.046 56.406-62.046 100.222v104c0 8.837 7.164 16 16 16s16-7.163 16-16v-104c0-26.117 12.582-49.347 32-63.957v70.2l-31.619 142.286c-2.218 9.981 5.385 19.471 15.619 19.471h16v88h-8c-8.836 0-16 7.163-16 16s7.164 16 16 16h24c8.836 0 16-7.163 16-16v-104h32v104c0 8.837 7.164 16 16 16h24c8.836 0 16-7.163 16-16s-7.164-16-16-16h-8v-88h16c10.224 0 17.839-9.481 15.619-19.471l-31.619-142.286v-70.199c19.418 14.61 32 37.84 32 63.956v104c0 8.837 7.164 16 16 16s16-7.163 16-16v-104c0-43.816-25.295-81.829-62.046-100.222zm-89.954-51.778c0-22.056 17.944-40 40-40s40 17.944 40 40-17.944 40-40 40-40-17.944-40-40zm56 88c0 78.632-.163 73.02.381 75.471l27.673 124.529c-10.612 0-74.914 0-88.108 0 30.05-135.224 28.054-125.458 28.054-128v-72c0-8.822 7.178-16 16-16 8.817 0 16 7.172 16 16z"/></svg>