<svg id="Layer_1" enable-background="new 0 0 512.33 512.33" height="512" viewBox="0 0 512.33 512.33" width="512" xmlns="http://www.w3.org/2000/svg"><path d="m447.32 130.365c-12.31 109.46-191.32 193-191.32 193s-48-22.4-96-59.2-96-88-96-145.6c0-56.332 45.613-102.4 102.4-102.4 38.56 0 72.13 21.32 89.6 52.8 17.47-31.48 51.04-52.8 89.6-52.8 61.31 0 108.731 53.427 101.72 114.2z" fill="#ea8692"/><path d="m447.32 130.365c-18.475 33.629-49.787 63.351-80.882 86.992-54.014 41.065-131.3 44.147-190.438-1.192-30.96-23.736-61.92-53.463-80-87.034-25.793-47.894 9.356-112.966 70.4-112.966 38.56 0 72.13 21.32 89.6 52.8 17.47-31.48 51.04-52.8 89.6-52.8 61.31 0 108.731 53.427 101.72 114.2z" fill="#fe929f"/><path d="m465.07 240.175c-18.028-.414-32.74 14.078-32.74 31.99 0 104.911.728 100.174-1.71 106.03-1.11 2.69-2.75 5.17-4.85 7.27-2.852 3.758-110.128 110.129 0 0 10.432-13.6 7.967-32.942-4.23-43.36-.07-.08-.14-.14-.22-.19-12.617-11-31.676-10.415-43.62 1.51l-40.74 40.74c-45.015 8.9-78.258 47.213-80.79 92.85-2.55-45.51-35.62-83.92-80.8-92.85l-40.74-40.74c-12.556-12.536-32.814-12.447-45.26 0-11.421 11.421-12.454 29.468-2.81 42.04 63.917 63.917 67.145 67.555 2.81 3.22-5.608-5.608-9.37-11.161-9.37-19.06v-97.46c0-8.84-3.58-16.84-9.37-22.63-20.133-20.133-54.63-5.769-54.63 23.27v112.17c0 23.34 9.27 45.72 25.77 62.22l50.23 46.85v18.12h328v-17.81l50.56-47.16c16.5-16.5 25.77-38.88 25.77-62.22v-112.17c0-17.5-13.77-32.24-31.26-32.63zm-208.74 248.06c-.463 0-.33.821-.33-5.54 0-7.224.33-9.688.33 5.54z" fill="#ffdfba"/><path d="m496.33 272.805v64.17c0 23.34-9.27 45.72-25.77 62.22-57.928 54.032-56.3 52.335-56.2 52.245-88.787 80.042-223.168 80.902-312.984 2.763-12.477-10.855-1.313-.637-59.606-55.008-16.5-16.5-25.77-38.88-25.77-62.22v-64.17c0-17.5 13.77-32.24 31.26-32.63 18.042-.415 32.74 14.093 32.74 31.99v49.46c0 8.846 4.541 14.231 10.79 20.48 13.543-11.698 32.37-10.132 43.84 1.32l40.74 40.74c45.18 8.93 78.25 47.34 80.8 92.85 2.529-45.588 35.725-83.94 80.79-92.85l40.74-40.74c11.949-11.93 31.009-12.506 43.62-1.51 1.176-.882 2.141-1.408 4.45-4.45 4.075-4.074 6.56-9.748 6.56-15.84v-49.46c0-8.84 3.58-16.84 9.37-22.63 20.133-20.133 54.63-5.769 54.63 23.27z" fill="#fff3e4"/><path d="m249.233 337.864c4.29 2.001 9.244 2.001 13.533 0 8.216-3.834 201.234-95.334 201.234-219.299 0-65.286-53.114-118.4-118.4-118.4-34.757 0-67.35 15.275-89.6 41.006-22.25-25.731-54.843-41.006-89.6-41.006-65.286 0-118.4 53.114-118.4 118.4 0 123.965 193.018 215.465 201.233 219.299zm-82.833-305.699c31.389 0 60.36 17.076 75.608 44.563 6.082 10.963 21.894 10.975 27.982 0 15.248-27.487 44.22-44.563 75.608-44.563 47.642 0 86.4 38.759 86.4 86.4 0 92.107-142.917 170.132-176 186.953-33.1-16.83-176-94.852-176-186.953.002-47.641 38.761-86.4 86.402-86.4z"/><path d="m354.53 98.023c8.125 3.554 13.47 11.654 13.47 20.542 0 5.244-1.881 14.363-10.844 28.022-4.848 7.388-2.789 17.307 4.6 22.155 7.419 4.867 17.326 2.758 22.154-4.6 10.677-16.271 16.09-31.605 16.09-45.578 0-21.403-12.728-41.145-32.642-49.859-8.097-3.543-17.53.15-21.072 8.245-3.542 8.096.15 17.531 8.244 21.073z" fill="#ffa4b8"/><path d="m465.438 224.179c-27.005-.63-49.107 21.059-49.107 47.986v48.615c-16.725-5.897-36.282-2.307-49.943 11.332l-37.44 37.44c-29.733 7.237-56.317 26.175-72.778 53.925-15.649-26.484-41.553-46.356-72.788-53.928l-37.446-37.447c-13.692-13.668-33.278-17.197-49.936-11.322v-48.615c0-12.824-4.992-24.879-14.057-33.943-30.336-30.341-81.943-8.321-81.943 34.583v112.17c0 27.779 10.816 53.894 30.456 73.533.322.324-1.274-1.175 52.9 49.357 6.463 6.03 16.587 5.673 22.613-.787 6.027-6.462 5.675-16.586-.787-22.614l-52.285-48.771c-13.478-13.573-20.897-31.574-20.897-50.718v-112.17c0-14.708 17.159-22.111 27.316-11.957 3.021 3.021 4.684 7.04 4.684 11.316v97.46c0 12.34 5.267 21.593 14.057 30.374 50.918 50.918 47.656 47.956 50.402 49.426 12.495 6.694 27.039-5.08 22.867-19.101-1.543-5.165 1.151-1.569-52.531-55.251-4.232-6.132-3.705-14.742 1.88-20.326 6.204-6.193 16.322-6.318 22.642-.009 44.737 44.737 42.563 43.86 48.951 45.123 37.504 7.415 67.732 39.825 67.732 82.835v13.47c0 8.836 7.163 16 16 16 9.618 0 16.33-7.495 16.33-16 0-14.304.045-15.112-.136-18.905 2.452-38.938 31.094-70.129 67.87-77.399 6.393-1.265 4.406-.579 48.941-45.114 9.993-9.975 27.325-3.038 27.325 11.308 0 3.261-.96 6.342-2.805 9.027-51.998 51.999-51.212 49.92-52.706 55.961-3.974 16.014 15.34 27.072 26.826 15.584 49.78-49.782 53.508-52.014 57.746-62.283 3.948-9.483 2.939-4.237 2.939-112.18 0-8.828 7.207-16.21 16.384-15.994 8.61.192 15.616 7.654 15.616 16.634v112.17c0 19.143-7.42 37.144-20.898 50.719l-52.285 48.771c-10.657 9.94-3.483 27.7 10.917 27.7 3.908 0 7.826-1.424 10.91-4.3l52.5-48.97c17.692-16.602 30.856-43.872 30.856-73.92v-112.17c0-26.235-21.041-48.048-46.892-48.625z"/></svg>