<svg id="Layer_1" enable-background="new 0 0 512.074 512.074" height="512" viewBox="0 0 512.074 512.074" width="512" xmlns="http://www.w3.org/2000/svg"><path d="m32.037 384.074h448v64h-448z" fill="#a07765"/><path d="m320.037 50.208c0 38.4-64 68.267-64 68.267s-16-7.467-32-19.733c-15.511-11.889-32-29.049-32-48.533 0-18.853 15.28-34.133 34.133-34.133 12.853 0 24.047 7.1 29.867 17.6 5.941-10.719 17.462-17.896 30.733-17.587 18.493.46 33.267 15.591 33.267 34.119z" fill="#ea8692"/><path d="m512.037 96.074c0-17.645-14.355-32-32-32s-32 14.355-32 32c0 12.034 6.68 22.534 16.525 27.997-.7 2.714-.525 2.58-.525 20.003h-416c0-17.51.167-17.319-.525-20.003 9.845-5.463 16.525-15.963 16.525-27.997 0-17.645-14.355-32-32-32s-32 14.355-32 32c0 12.034 6.68 22.534 16.525 27.997-.767 2.971-.525-24.223-.525 372.003 0 8.837 7.164 16 16 16s16-7.163 16-16v-32h416v32c0 8.837 7.164 16 16 16s16-7.163 16-16c0-393.005.322-368.722-.525-372.003 9.845-5.463 16.525-15.963 16.525-27.997zm-48 272h-32v-192h32zm-96 0v-192h32v192zm-64 0v-192h32v192zm-64 0v-192h32v192zm-64 0v-192h32v192zm-64 0v-192h32v192zm-32-192v192h-32v-192zm-32 256v-32h416v32z"/><path d="m214.302 111.439c17.188 13.178 34.25 21.2 34.969 21.535 4.285 2.001 9.244 2.002 13.532 0 7.496-3.498 73.234-35.54 73.234-82.767 0-41.45-47.267-64.528-80-40.262-49.751-36.882-127.247 35.962-41.735 101.494zm27.741-70.008c6.081 10.97 21.901 10.981 27.988 0 9.051-16.33 34.006-9.889 34.006 8.776 0 18.762-28.92 39.868-47.946 50.284-17.347-9.531-48.054-30.598-48.054-50.284 0-18.555 24.906-25.196 34.006-8.776z"/></svg>