<svg id="Layer_1" enable-background="new 0 0 512 512" height="512" viewBox="0 0 512 512" width="512" xmlns="http://www.w3.org/2000/svg"><path d="m368 168h-224v-88c0-35.346 28.654-64 64-64h96c35.346 0 64 28.654 64 64z" fill="#8bc4ff"/><path d="m368 80v88h-224c0-93.139-.063-89.205.13-92.1 2.11-33.44 29.9-59.9 63.87-59.9h96c35.434 0 64 28.733 64 64z" fill="#6994ff"/><path d="m367.87 75.9c-2.01 29.11-26.25 52.1-55.87 52.1h-112c-29.62 0-53.86-22.99-55.87-52.1 2.11-33.44 29.9-59.9 63.87-59.9h96c33.97 0 61.76 26.46 63.87 59.9z" fill="#80aaff"/><path d="m104 168h304c17.673 0 32 14.327 32 32 0 17.624-14.278 32-32 32h-304c-17.673 0-32-14.327-32-32 0-17.624 14.278-32 32-32z" fill="#4379ff"/><path d="m288 312h-64c-44.183 0-80-35.817-80-80 0-.1-4.784 0 224 0 0 44.06-35.695 80-80 80z" fill="#999"/><path d="m408 152h-24v-72c0-44.112-35.888-80-80-80h-96c-44.112 0-80 35.888-80 80v72h-24c-26.467 0-48 21.533-48 48s21.533 48 48 48h24v136c-8.837 0-16 7.163-16 16s7.163 16 16 16v80c0 8.837 7.163 16 16 16s16-7.163 16-16v-80h192v80c0 8.837 7.163 16 16 16s16-7.163 16-16v-80c8.837 0 16-7.163 16-16s-7.163-16-16-16v-136h24c26.467 0 48-21.533 48-48s-21.533-48-48-48zm-248-72c0-26.467 21.533-48 48-48h96c26.467 0 48 21.533 48 48v72h-192zm189.976 168c-7.123 27.573-32.208 48-61.976 48h-16v-48zm-109.976 48h-16c-29.768 0-54.853-20.427-61.976-48h77.976zm-80 88v-80.512c16.997 15.233 39.434 24.512 64 24.512h64c24.566 0 47.003-9.279 64-24.512v80.512zm248-168c-10.03 0-288.864 0-304 0-8.822 0-16-7.178-16-16s7.178-16 16-16h304c8.822 0 16 7.178 16 16s-7.178 16-16 16z"/><path d="m296 85.331c0 18.141-23.794 35.102-40 42.669-10.311-4.814-23.689-13.863-31.434-22.96-18.309-21.423-3.789-41.04 12.765-41.04 8.034 0 15.029 4.44 18.669 11 10.667-19.224 40-11.591 40 10.331z"/></svg>