<svg id="Layer_1" enable-background="new 0 0 512 512" height="512" viewBox="0 0 512 512" width="512" xmlns="http://www.w3.org/2000/svg"><path d="m496 176c0 75.117-60.878 136-136 136h-160c-75.11 0-136-60.89-136-136z" fill="#ea8692"/><path d="m487.29 176c-19.605 51.93-69.578 88-127.29 88h-160c-58.21 0-107.89-36.58-127.29-88z" fill="#fe929f"/><path d="m496 176h-192v-160h32c88.779 0 160 72.01 160 160z" fill="#ea8692"/><path d="m488.68 128h-72.68c-61.856 0-112-50.144-112-112 0-.1-1.197 0 32 0 71.65 0 132.29 47.08 152.68 112z" fill="#fe929f"/><circle cx="391.917" cy="456.083" fill="#999" r="39.917"/><circle cx="168.167" cy="456" fill="#999" r="40"/><path d="m374.133 327.337c77.211-7.153 137.867-72.29 137.867-151.337 0-97.047-78.953-176-176-176-17.394 0-53.833 0-64 0-8.836 0-16 7.163-16 16s7.164 16 16 16h16v128h-208v-64c0-26.468-21.533-48-48-48h-16c-8.836 0-16 7.163-16 16s7.164 16 16 16h16c8.822 0 16 7.178 16 16v80c0 79.048 60.657 144.185 137.868 151.337l67.028 49.023-49.466 36.178c-36.326-29.531-91.264-3.695-91.264 43.461 0 30.879 25.122 56 56 56 37.733 0 64.921-36.868 53.341-73.038l58.491-42.778 58.652 42.898c-11.558 36.129 15.609 72.919 53.267 72.919 30.833 0 55.917-25.084 55.917-55.917 0-47.087-54.833-72.859-91.098-43.42l-49.634-36.302zm-205.966 152.663c-13.234 0-24-10.767-24-24s10.766-24 24-24 24 10.767 24 24-10.767 24-24 24zm223.75-47.833c13.188 0 23.917 10.729 23.917 23.916s-10.73 23.917-23.917 23.917c-13.188 0-23.917-10.729-23.917-23.917s10.729-23.916 23.917-23.916zm-71.917-400.167h16c73.993 0 135.131 56.102 143.117 128h-159.117zm-238.937 160h397.875c-7.846 58.632-58.194 104-118.938 104h-160c-60.744 0-111.092-45.368-118.937-104zm159.917 136h78.04l-39.02 28.539z"/></svg>