<svg id="Layer_1" enable-background="new 0 0 512.283 512.283" height="512" viewBox="0 0 512.283 512.283" width="512" xmlns="http://www.w3.org/2000/svg"><path d="m496.142 347.401c0 106.31-107.45 148.74-240 148.74s-240-42.43-240-148.74c0-106.942 108.053-227.26 240-227.26 132.144.001 240 120.565 240 227.26z" fill="#f2a661"/><path d="m492.812 314.242c-19.07 83.76-117.77 117.9-236.67 117.9s-217.6-34.14-236.67-117.9c19.07-96.78 117.77-194.1 236.67-194.1s217.6 97.319 236.67 194.1z" fill="#ffbd7b"/><path d="m288.142 360.142c0 17.673-14.327 40-32 40s-32-22.327-32-40 14.327-16 32-16 32-1.674 32 16z" fill="#a07765"/><path d="m190.532 130.142-148.92 123.69c-4.605-51.834-10.569-201.871 27.41-237.69 58.97 14.276 104.333 58.559 121.51 114z" fill="#ffaa64"/><path d="m170.792 88.132-53.881 44.753c-20.634 17.138-51.962 2.814-52.441-24.005-.501-28.071.045-61.373 3.512-91.709.34-.35.69-.7 1.04-1.03 42.181 10.212 78.468 36.161 101.77 71.991z" fill="#ffbd7b"/><path d="m471.002 254.441-148.8-124.16c17.502-56.551 63.527-100.093 121.55-114.14 37.976 36.002 31.901 186.265 27.25 238.3z" fill="#ffaa64"/><path d="m395.697 127.302-51.295-42.8c23.05-33.483 58.068-58.366 99.35-68.36.58.55 1.15 1.13 1.69 1.73 2.825 28.627 3.238 59.329 2.751 85.494-.5 26.84-31.883 41.135-52.496 23.936z" fill="#ffbd7b"/><path d="m510.772 325.501c0-7.61-6.028-39.526-23.445-74.359 4.631-59.524 10.609-205.483-32.539-246.585-3.938-3.753-9.514-5.244-14.801-3.966-57.878 14.01-105.409 54.996-127.823 110.304-37.807-8.896-74.552-9.077-111.582-.113-.592.143-28.855-86.24-127.795-110.191-5.288-1.278-10.862.215-14.801 3.966-51.367 48.935-32.32 245.237-32.704 245.944 0 1.335-18.276 30.641-23.824 75.456-5.559 40.645 6.564 69.17 6.564 70.184 33.266 92.617 149.442 116 248.12 116 98.616 0 215.014-23.421 248.12-116 0-.1 12.197-31.593 6.51-70.64zm-72.914-291.132c26.207 42.998 19.972 171.353 19.884 171.252-31.873-39.878-72.602-68.749-114.935-85.098 18.044-42.454 53.425-73.131 95.051-86.154zm-362.946-.001c41.669 13.032 76.98 43.738 94.993 85.996-42.572 16.315-83.278 45.291-115.001 84.806-1.419-42.162-1.894-134.925 20.008-170.802zm343.22 413.254c-79.273 43.603-244.647 43.636-323.98 0-19.47-10.71-34.4-23.91-44.73-39.48h46.72c8.836 0 16-7.163 16-16s-7.164-16-16-16h-60.67c-2.553-10.385-3.58-21.471-3.29-32h63.96c8.836 0 16-7.163 16-16s-7.164-16-16-16h-59.84c16.3-70.929 78.144-141.59 158.969-166.718 129.529-40.208 255.676 57.775 280.712 166.718h-59.84c-8.837 0-16 7.163-16 16s7.163 16 16 16h63.96c.29 10.52-.735 21.607-3.29 32h-60.67c-8.837 0-16 7.163-16 16s7.163 16 16 16h46.72c-10.331 15.569-25.261 28.77-44.731 39.48z"/><path d="m344.142 388.142c-8.837 0-16 7.163-16 16 0 15.439-12.561 28-28 28-12.707 0-23.457-8.512-26.866-20.131 26.835-13.22 41.102-56.091 22.366-74.678-11.077-10.991-27.099-9.075-43.606-9.213-12.731-.09-25.905-.202-35.394 9.213-18.945 18.796-4.197 61.592 22.366 74.678-3.409 11.619-14.159 20.131-26.866 20.131-15.439 0-28-12.561-28-28 0-8.837-7.164-16-16-16s-16 7.163-16 16c0 54.645 67.135 80.525 104 40.735 36.846 39.769 104 13.95 104-40.735 0-8.837-7.163-16-16-16zm-72.002-27.726c-.151 11.286-9.587 23.726-15.998 23.726s-15.847-12.439-15.998-23.726c3.783-.455 28.554-.415 31.996 0z"/><path d="m180.142 296.142c15.44 0 28-12.56 28-28s-12.56-28-28-28-28 12.56-28 28 12.56 28 28 28z"/><path d="m332.142 240.142c-15.44 0-28 12.56-28 28s12.56 28 28 28 28-12.56 28-28-12.56-28-28-28z"/></svg>