<svg id="Layer_1" enable-background="new 0 0 512.091 512.091" height="512" viewBox="0 0 512.091 512.091" width="512" xmlns="http://www.w3.org/2000/svg"><path d="m200.045 192.091v176c0 39.76-32.24 72-72 72h-112c40.599-110.224 26.046-64.354 56-177.58v-70.42c0-35.35 28.65-64 64-64s64 28.65 64 64z" fill="#fe929f"/><path d="m200.045 192.091v128c0 39.76-32.24 72-72 72h-94.32c19.063-51.731 9.538-20.785 38.32-129.58v-70.42c0-35.35 28.65-64 64-64s64 28.65 64 64z" fill="#ffa4b8"/><path d="m496.045 440.091h-112c-39.76 0-72-32.24-72-72v-176c0-35.35 28.65-64 64-64s64 28.65 64 64v70.42c29.962 113.255 16.405 70.081 56 177.58z" fill="#fe929f"/><path d="m478.365 392.091h-94.32c-39.76 0-72-32.24-72-72v-128c0-35.35 28.65-64 64-64s64 28.65 64 64v70.42c28.8 108.864 20.287 80.643 38.32 129.58z" fill="#ffa4b8"/><path d="m200.045 184.091c30.842 0 56 24.987 56 56v8h-56z" fill="#ffe773"/><path d="m144.045 304.091c0 53.02-42.98 96-96 96v-96c0-26.453 21.435-48 48-48 26.505 0 48 21.479 48 48z" fill="#6994ff"/><path d="m312.045 184.091c-30.842 0-56 24.987-56 56v8h56z" fill="#ffe773"/><path d="m464.045 304.091v96c-53.02 0-96-42.98-96-96 0-36.91 40.11-60.053 72-41.58 14.34 8.3 24 23.81 24 41.58z" fill="#6994ff"/><path d="m139.815 284.361c-12.07 39.22-48.59 67.73-91.77 67.73v-48c0-26.453 21.435-48 48-48 19.35 0 36.22 11.501 43.77 28.27z" fill="#80aaff"/><path d="m464.045 304.091v48c-43.18 0-79.7-28.51-91.77-67.73 7.54-16.745 24.387-28.27 43.77-28.27 26.559 0 48 21.541 48 48z" fill="#80aaff"/><path d="m328.045 53.421c0 42-72 74.67-72 74.67s-18-8.17-36-21.58c-17.15-12.781-36-31.604-36-53.09 0-20.578 17.158-37.33 38.4-37.33 14.46 0 27.05 7.77 33.6 19.25 6.55-11.48 19.14-19.25 33.6-19.25 21.26 0 38.4 16.762 38.4 37.33z" fill="#fe929f"/><path d="m324.505 37.761c-6.215 14.52-19.707 27.321-33.083 37.205-21.021 15.531-49.82 15.482-70.837-.054-12.927-9.557-26.687-22.393-33-37.16 13.183-27.688 53.206-29.145 68.46-2.41 15.25-26.728 55.317-25.245 68.46 2.419z" fill="#ffa4b8"/><path d="m511.059 434.56-31.014-84.183v-46.286c0-19.516-9.008-37.9-24-49.945v-62.055c0-44.112-35.888-80-80-80-36.168 0-66.791 24.132-76.653 57.136-17.404 3.1-32.661 12.461-43.347 25.679-10.686-13.218-25.943-22.579-43.347-25.679-9.863-33.004-40.485-57.136-76.653-57.136-44.112 0-80 35.888-80 80v62.055c-14.993 12.047-24 30.43-24 49.945v46.287l-31.014 84.182c-3.842 10.43 3.886 21.531 15.014 21.531h48v40c0 8.837 7.163 16 16 16s16-7.163 16-16v-40h32v40c0 8.837 7.163 16 16 16s16-7.163 16-16v-46.024c32.748-12.828 56-44.736 56-81.976v-104h80v104c0 37.24 23.252 69.148 56 81.976v46.024c0 8.837 7.163 16 16 16s16-7.163 16-16v-40h32v40c0 8.837 7.163 16 16 16s16-7.163 16-16v-40h48c11.115 0 18.861-11.089 15.014-21.531zm-79.029-158.202c9.878 5.718 16.015 16.344 16.015 27.732v78.393c-36.47-7.434-64-39.76-64-78.393 0-24.96 27.088-39.835 47.985-27.732zm-303.985 27.733c0 38.633-27.53 70.959-64 78.393 0-11.916 0-59.443 0-78.393 0-11.389 6.137-22.015 16.02-27.735 21.271-12.32 47.98 3.165 47.98 27.735zm56 64c0 30.879-25.121 56-56 56h-89.054c3.795-10.302 3.113-9.134 3.869-8.875 1.621.557 3.456.875 5.185.875 93.482 0 141.01-109.548 93.26-157.248-14.491-14.507-34.171-20.652-53.26-18.252v-48.5c0-26.468 21.532-48 48-48s48 21.532 48 48zm32-136v-28.66c11.754 5.149 20.573 15.792 23.196 28.66zm56.804 0c2.623-12.868 11.442-23.511 23.196-28.66v28.66zm111.196 192c-30.879 0-56-25.121-56-56 0-10.672 0-166.04 0-176 0-26.468 21.532-48 48-48s48 21.532 48 48v48.5c-37.943-4.78-72 24.713-72 63.5 0 61.757 50.243 112 112 112 1.773 0 3.572-.324 5.177-.873.764-.263.085-1.421 3.877 8.873z"/><circle cx="152.045" cy="192.091" r="16"/><circle cx="360.045" cy="192.091" r="16"/><path d="m210.484 119.337c19.161 14.281 38.151 22.962 38.95 23.324 4.2 1.905 9.019 1.908 13.222 0 .8-.362 19.79-9.043 38.951-23.325 95.163-70.933 8.19-149.196-45.562-107.85-53.69-41.299-140.678 36.956-45.561 107.851zm31.662-76.071c6.128 10.749 21.666 10.757 27.799 0 11.103-19.474 42.101-11.797 42.101 10.158 0 22.792-36.356 46.53-55.956 56.812-19.976-10.515-56.044-34.27-56.044-56.812-.001-21.923 30.982-29.658 42.1-10.158z"/></svg>