<svg id="Layer_1" enable-background="new 0 0 511.83 511.83" height="512" viewBox="0 0 511.83 511.83" width="512" xmlns="http://www.w3.org/2000/svg"><path d="m398.81 160.855c-40.744-2.061-76.652 19.633-94.98 52.66-.83-1.5-1.7-2.98-2.6-4.43 22.35-23.2 34.6-45.09 34.6-62.77 0-21.17-17.23-38.4-38.4-38.4-13.791 0-26.787 7.496-33.63 19.85-24.372 43.926-87.56 43.941-111.94 0-6.79-12.24-19.68-19.85-33.63-19.85-21.17 0-38.4 17.23-38.4 38.4 0 33.865 42.628 72.898 69.34 93.58 18.215 14.1 38.724 27.47 58.66 38.84 12.41-7.09 27.92-16.57 43.95-27.95 17.401 24.57 48.497 32.354 74.52 22.73-34.675 30.457-84.564 61.796-118.47 77.6 0 0-44.7-20.86-90.96-55.39-48.498-36.085-101.04-89.248-101.04-149.41 0-56.55 45.85-102.4 102.4-102.4 38.56 0 72.13 21.32 89.6 52.8 33.306-60.016 114.228-70.592 162.01-22.81 22.243 22.243 33.588 53.868 28.97 86.95z" fill="#4379ff"/><path d="m495.83 263.115c0 115.2-192 204.8-192 204.8s-48-22.4-96-59.2c-38.73-29.69-77.45-68.75-90.96-112.99 46.26 34.53 90.96 55.39 90.96 55.39s7.23-3.37 18.89-9.66c22.702 20.118 50.42 38.848 77.11 54.08 15.77-9.01 36.55-21.89 57.06-37.61 45.08-34.56 70.94-69.12 70.94-94.81 0-21.17-17.23-38.4-38.4-38.4-13.79 0-26.787 7.496-33.63 19.85-24.398 43.972-87.576 43.896-111.94 0-6.79-12.24-19.68-19.85-33.63-19.85-19.83 0-36.2 15.11-38.19 34.42-18.507-12.317-37.157-26.432-53.39-41.88 36.838-73.435 141.242-75.916 181.18-3.74 33.303-60.011 114.228-70.592 162.01-22.81 18.53 18.53 29.99 44.13 29.99 72.41z" fill="#ea8692"/><path d="m415.821 146.837c.301-65.757-52.848-118.922-118.391-118.922-34.754 0-67.347 15.275-89.6 41.008-22.253-25.733-54.846-41.008-89.6-41.008-88.733 0-163.696 101.324-85.313 208.448 19.13 26.145 44.448 49.386 70.317 69.111 13.516 39.038 45.393 78.017 94.86 115.939 48.825 37.432 96.944 60.056 98.969 61.001 4.282 1.998 9.234 2.005 13.532 0 8.217-3.834 201.234-95.334 201.234-219.299.001-58.566-42.051-105.932-96.008-116.278zm-383.991-.522c0-47.641 38.759-86.4 86.4-86.4 31.384 0 60.355 17.076 75.61 44.563 6.082 10.96 21.891 10.972 27.98 0 27.868-50.217 96.087-59.88 136.706-19.259 16.032 16.031 24.987 37.258 25.295 59.886-10.977.897-22.045 3.395-32.316 7.292 4.759-45.311-43.739-75.366-81.7-52.926-13.665 8.054-18.482 18.379-21.689 23.359-19.47 30.239-64.599 29.014-82.266-2.826-9.611-17.326-27.858-28.089-47.622-28.089-32.668 0-59.247 29.1-53.629 63.681 6.881 42.359 56.364 84.576 91.655 109.39 19.098 13.431 41.187 26.491 44.582 28.14 9.207 4.476 16.355-1.273 22.61-4.973 22.465-13.29 25.285-16.561 26.03-15.873 8.609 7.967 18.99 13.988 30.238 17.53-23.468 16.653-49.405 32.093-71.882 43.472-69.745-35.352-176.002-108.801-176.002-186.967zm230.936 8.71c5.954-5.663 11.09-12.405 15.03-19.507 11.956-21.584 45.469-10.945 41.743 14.617-1.65 11.452-10.112 24.374-17.262 33.484-.573.73-12.549-16.52-39.511-28.594zm-133.325 25.352c-7.155 7.362-9.398 11.248-9.583 11.04-9.24-10.421-19.938-24.842-23.147-38.381-6.688-28.168 28.944-39.531 41.16-17.508 5.248 9.458 12.072 17.404 19.621 23.545-10.349 5.635-19.769 12.782-28.051 21.304zm99.902 66.227c.161.147-10.45 7.054-21.517 13.62-4.09-2.426-8.414-5.071-13.137-8.062 7.036-12.6 24-15.29 34.654-5.558zm113.213 37.028c8.061-4.416 15.205-10.154 21.239-17.054 11.557-13.214 9.94-19.435 20.945-24.095 14.724-6.233 31.09 4.653 31.09 20.632 0 15.726-16.99 45.556-64.673 82.111-14.066 10.781-30.291 21.674-47.33 31.794-16.689-9.909-33.575-21.134-48.979-33.068 24.061-14.183 47.775-30.271 68.807-47.297 18.781-15.205 5.095-5.465 18.901-13.023zm-38.734 166.44c-48.45-24.582-104.822-62.364-139.973-104.315 7.643 4.445 15.537 8.817 23.29 12.876 21.188 11.077 19.973 10.999 37.419 2.043 24.41 20.279 67.763 48.315 75.089 50.299 4.548 1.22 8.923.278 12.12-1.548 46.704-26.685 117.641-76.424 133.204-128.091 15.587-51.745-37.775-89.53-79.165-65.066-14.536 8.567-19.335 19.881-22.266 24.243-19.614 29.191-64.094 27.991-81.689-3.71-20.091-36.218-71.669-37.559-93.611-2.833-.343.544-25.533-19.379-25.149-19.936 34.981-50.88 111.39-49.73 144.551 3.499 2.084 3.358 5.583 11.975 16.178 11.982 5.851 0 11.191-3.174 14-8.236 27.877-50.233 96.104-59.864 136.706-19.26 16.317 16.317 25.304 38.015 25.304 61.096 0 92.114-142.937 170.143-176.008 186.957z"/></svg>