<svg id="Layer_1" enable-background="new 0 0 512 512" height="512" viewBox="0 0 512 512" width="512" xmlns="http://www.w3.org/2000/svg"><path d="m304 248c0 26.694-21.909 48.647-49.24 47.98-65.7-.65-118.76-54.12-118.76-119.98 0-53.172-13.185-87.556-24-120 106.689 0 192 86.606 192 192z" fill="#ea8692"/><path d="m303.89 241.64c-7.445 4.285-15.701 6.36-23.89 6.36-65.942 0-120-53.404-120-120 0-22.835-2.627-45.468-7.88-67.8 85.028 18.067 148.875 92.279 151.77 181.44z" fill="#fe929f"/><path d="m400 56c-10.247 30.74-24 65.878-24 120 0 65.86-53.06 119.33-118.76 119.98 25.818-.647 46.76-21.774 46.76-47.98 0-48.69-18.12-93.15-48-126.99 35.188-39.968 86.867-65.01 144-65.01z" fill="#fe929f"/><path d="m318.16 74.27c-24.257 11.442-45.405 27.709-62.16 46.74-16.757-19.034-37.902-35.298-62.16-46.74l62.16-58.27z" fill="#ffa4b8"/><path d="m440 336c0 79.518-64.478 144-144 144h-40c0-80.014 64.98-144 144-144z" fill="#90c94f"/><path d="m256 456h-40c-79.518 0-144-64.478-144-144h40c79.14 0 144 64.116 144 144z" fill="#90c94f"/><path d="m434.37 336c-17.361 60.104-72.757 104-138.37 104-17.625 0-28.457-19.262-19.327-34.37 25.577-42.325 71.7-69.63 123.327-69.63z" fill="#99d856"/><path d="m235.327 381.63c9.116 15.085-1.675 34.37-19.327 34.37-65.619 0-121.01-43.9-138.37-104h34.37c51.573 0 97.727 27.267 123.327 69.63z" fill="#99d856"/><path d="m440 320h-40c-52.282 0-98.785 25.208-128 64.106v-73.053c66.921-7.793 120-64.673 120-135.053 0-50.786 12.703-83.512 23.179-114.94 3.449-10.348-4.262-21.06-15.179-21.06-27.306 0-53.696 5.171-78.604 15.373l-54.454-51.046c-6.154-5.77-15.73-5.77-21.885 0l-54.502 51.091c-24.25-9.928-50.772-15.418-78.555-15.418-10.907 0-18.631 10.703-15.179 21.06 11.004 33.011 23.179 64.569 23.179 114.94 0 69.578 52.522 127.109 120 135.054v49.052c-29.215-38.898-75.718-64.106-128-64.106h-40c-8.836 0-16 7.164-16 16 0 88.224 71.776 160 160 160h24v24c0 8.836 7.164 16 16 16s16-7.164 16-16h24c88.224 0 160-71.776 160-160 0-8.836-7.164-16-16-16zm-224 120c-65.16 0-119.105-48.946-127.005-112h23.005c65.16 0 119.105 48.946 127.005 112zm144-264c0 33.482-16.061 63.437-40.876 82.499.567-3.419.876-6.923.876-10.499 0-47.388-15.941-91.116-42.726-126.13 26.706-26 61.586-43.527 100.05-48.439-11.102 33.303-17.324 65.336-17.324 102.569zm-104-138.069 35.05 32.856c-12.607 7.761-24.357 16.856-35.119 27.198-10.661-10.233-22.409-19.339-35.048-27.136zm-104 138.069c0-37.332-6.201-69.192-17.316-102.545 86.375 11.16 153.316 85.181 153.316 174.545 0 17.298-13.999 32.334-32.96 31.988-56.904-.518-103.04-46.963-103.04-103.988zm144 288h-23.005c7.9-63.054 61.845-112 127.005-112h23.005c-7.9 63.054-61.845 112-127.005 112z"/></svg>