<svg id="Layer_1" enable-background="new 0 0 512.019 512.019" height="512" viewBox="0 0 512.019 512.019" width="512" xmlns="http://www.w3.org/2000/svg"><path d="m445.215 190.439-5.56 6.24-63.65 31.42c-2.191 99.96-83.881 179.92-183.95 179.92h-16l-40 88h-120c70.973-101.392 219.896-314.143 264.29-377.56 18.667-26.646 57.055-30.275 80.3-7.03 9.52 9.52 15.41 22.67 15.41 37.2v7.37z" fill="#ece2e2"/><path d="m445.215 190.439-5.56 6.24-63.65 31.42c-.03 1.37-.07 2.74-.14 4.1-51.71 97.58-145.63 139.7-272.27 138.76 69.056-98.65 113.168-161.672 176.75-252.5 9.85-14.06 25.93-22.44 43.1-22.44 29.046 0 52.61 23.549 52.61 52.61v7.37z" fill="#f2f2f2"/><path d="m443.287 192.189c-7.563 7.563-9.794 18.505-6.787 28.364-9.86-3.007-20.801-.777-28.364 6.787-11.103 11.103-10.709 29.463.837 41.01 23.539 23.539 79.508 4.185 79.508 4.185s19.354-55.97-4.185-79.508c-11.553-11.554-29.914-11.933-41.009-.838z" fill="#ea8692"/><path d="m190.205 304.019c-85.568 0-156.881-61.781-171.44-143.36-3.745-21.042-2.71-23.853-2.71-144.64 234.727 166.578 222.642 156.479 231.89 168.12 38.172 47.834 4.455 119.88-57.74 119.88z" fill="#ece2e2"/><path d="m233.116 170.06c10.769 7.672 15.448 21.525 11.508 34.147-9.4 30.107-37.483 51.812-70.509 51.812-48.09 0-91.63-19.49-123.14-51.01-21.318-21.318-34.865-44.176-34.92-74.825 0-.258 0 3.398 0-114.165 219.155 155.527 216.961 153.97 217.061 154.041z" fill="#f2f2f2"/><path d="m495.61 181.713c-13.964-13.965-34.574-17.185-51.165-9.531l-52.452-26.12c-1.342-36.68-31.434-66.042-68.548-66.042-22.358 0-43.369 10.938-56.208 29.264l-30.575 43.676-211.347-149.989c-10.571-7.502-25.26.068-25.26 13.048v113.852c0 82.787 53.186 153.373 127.179 179.418l-124.287 177.554c-7.38 10.544.117 25.175 13.108 25.175h120c6.274 0 11.97-3.667 14.566-9.379l35.737-78.621h5.697c96.97 0 176.946-68.654 195.759-158.868 15.99 37.22 68.174 35.55 105.896 22.506 4.641-1.605 8.288-5.252 9.893-9.893 2.316-6.696 21.766-66.291-7.993-96.05zm-463.072-39.458 111.058 78.812c2.811 1.995 6.043 2.953 9.246 2.953 15.517 0 21.987-20.027 9.273-29.05l-130.06-92.297v-55.68c209.019 148.336 190.739 135.33 192.908 136.962 1.785 3.704 4.874 6.506 8.617 7.961 32.69 37.123 6.491 96.102-43.377 96.102-83.036.001-151.327-64.326-157.665-145.763zm278.315 200.558c-31.74 31.73-73.93 49.206-118.798 49.206h-16c-6.274 0-11.97 3.667-14.566 9.379l-35.737 78.621h-78.967l113.636-162.339c9.706 1.533 19.651 2.338 29.782 2.338 75.174 0 116.674-87.035 70.47-145.56l32.775-46.82c13.085-18.677 39.805-20.974 55.882-4.897 11.283 11.283 10.724 22.939 10.724 33.256 0 6.084 3.543 11.675 8.868 14.322l43.798 21.81-43.635 21.54c-4.809 2.308-8.233 6.915-8.946 12.369-.839 6.551 1.504 65.97-49.286 116.775zm164.773-83.135c-75.393 19.612-65.899-30.562-43.794-23.821 12.223 3.733 23.706-7.731 19.972-19.972-6.743-22.11 43.437-31.586 23.822 43.793z"/></svg>