<svg id="Layer_1" enable-background="new 0 0 512 512" height="512" viewBox="0 0 512 512" width="512" xmlns="http://www.w3.org/2000/svg"><path d="m374.05 112.054c-15.47 64.13-118.05 112-118.05 112s-30-14-60-37c-37.588-28.822-72.999-70.586-55.51-114.61 19.912-50.118 89.291-54.642 115.51-7.39 20.852-37.58 71.45-44.07 101.26-14.26 15.525 15.524 22.41 38.117 16.79 61.26z" fill="#ea8692"/><path d="m338.437 119.799c-7.341 7.134-15.205 13.739-23.055 19.725-34.971 26.669-83.479 26.844-118.482.217-11.261-8.567-22.395-18.282-31.996-28.902-26.886-29.739-6.64-78.785 35.096-78.785 24.1 0 45.08 13.32 56 33 10.92-19.68 31.9-33 56-33 2.578 0 5.601.685 8.895 1.881 35.76 12.987 44.825 59.349 17.542 85.864z" fill="#fe929f"/><path d="m224 304.054v72c0 57.439-46.558 104-104 104-57.44 0-104-46.56-104-104v-8h128v-64c0-22.09 17.91-40 40-40s40 17.91 40 40z" fill="#f2f2f2"/><path d="m496 368.054v8c0 57.44-46.56 104-104 104-57.438 0-104-46.558-104-104v-72c0-22.09 17.91-40 40-40s40 17.91 40 40v64z" fill="#f2f2f2"/><path d="m224 304.054v24c0 28.72-11.64 54.72-30.46 73.54-52.206 52.205-141.054 34.865-169.57-33.54h120.03v-64c0-22.09 17.91-40 40-40s40 17.91 40 40z" fill="#f9f9f9"/><path d="m488.03 368.054c-28.523 68.421-117.375 85.735-169.57 33.54-18.82-18.82-30.46-44.82-30.46-73.54v-24c0-22.09 17.91-40 40-40s40 17.91 40 40v64z" fill="#f9f9f9"/><path d="m138.1 390.054c-12.171 21.072-39.087 28.244-60.11 16.11l-3.46-2c-42.186-24.368-56.451-78.232-32.21-120.22l79.67 46c21.034 12.153 28.264 39.057 16.11 60.11z" fill="#f2f2f2"/><path d="m437.47 404.164c-6.142 3.551-13.402 7.9-25.42 7.9-33.846 0-55.087-36.644-38.15-66.01 3.73-6.48 9.17-12.1 16.11-16.11l79.67-46c24.266 42.031 9.935 95.876-32.21 120.22z" fill="#f2f2f2"/><path d="m138.1 346.054c-12.171 21.072-39.087 28.244-60.11 16.11l-3.46-2c-21.31-12.31-35.53-32.19-41.21-54.27 1.95-7.52 4.93-14.9 9-21.95l79.67 46c6.94 4.01 12.38 9.63 16.11 16.11z" fill="#f9f9f9"/><path d="m478.68 305.894c-5.68 22.08-19.9 41.96-41.21 54.27l-3.46 2c-21.005 12.124-47.929 4.978-60.11-16.11 3.73-6.48 9.17-12.1 16.11-16.11l79.67-46c4.07 7.05 7.05 14.43 9 21.95z" fill="#f9f9f9"/><path d="m186.265 199.751c31.029 23.789 61.679 38.199 62.969 38.801 4.297 2.005 9.251 1.998 13.532 0 4.474-2.088 109.758-51.942 126.832-122.722 6.819-28.074-1.119-56.446-21.024-76.351-31.202-31.2-81.392-31.085-112.574-.549-75.605-74.038-221.415 44.515-69.735 160.821zm13.735-151.697c17.437 0 33.534 9.489 42.009 24.763 6.081 10.961 21.893 10.975 27.981 0 8.476-15.274 24.572-24.763 42.01-24.763 26.539 0 48 21.454 48 48 0 44.972-64.135 89.673-103.938 110.137-37.054-19.288-92.729-57.116-102.563-97.913-7.794-32.076 16.263-60.224 46.501-60.224z"/><path d="m494.637 352.054c6.208-25.971 2.306-52.886-11.099-76.105-4.419-7.653-14.205-10.273-21.856-5.856l-77.682 44.849v-10.888c0-30.878-25.121-56-56-56s-56 25.122-56 56v8c-8.837 0-16 7.164-16 16s7.163 16 16 16v32c0 66.322 53.666 120 120 120 66.168 0 120-53.832 120-120v-8c0-8.208-6.077-16-17.363-16zm-96.629-8.249 64.281-37.113c3.995 12.845 4.296 26.581.729 39.892-6.015 22.447-19.59 35.663-37.011 45.719-21.448 12.38-47.506-7.395-41.046-31.496 1.936-7.225 6.569-13.262 13.047-17.002zm-6.008 120.249c-48.636 0-88-39.355-88-88v-72c0-13.234 10.767-24 24-24s24 10.766 24 24v62.856c-.685 32.848 25.773 61.132 60.108 61.132 16.495 0 29.899-7.726 29.899-8.027 14.432-8.331 26.438-17.363 37.327-33.298-5.28 43.512-42.421 77.337-87.334 77.337z"/><path d="m240 312.054v-8c0-30.878-25.122-56-56-56s-56 25.122-56 56v10.888l-77.682-44.85c-7.653-4.417-17.438-1.795-21.856 5.856-13.405 23.219-17.307 50.134-11.099 76.105h-1.363c-8.836 0-16 7.164-16 16v8c0 66.168 53.832 120 120 120 66.322 0 120-53.668 120-120v-32c8.836 0 16-7.164 16-16s-7.164-15.999-16-15.999zm-190.289-5.362 64.282 37.113c21.465 12.392 17.322 44.844-6.753 51.294-12.398 3.323-20.92-2.797-21.248-2.797-13.046-7.533-23.616-15.909-31.59-31.599-7.998-15.421-10.558-35.148-4.691-54.011zm158.289 69.362c0 48.639-39.357 88-88 88-44.914 0-82.054-33.825-87.334-77.337 17.615 25.777 39.142 33.298 37.327 33.298 40.669 23.48 90.97-7.032 90.007-53.108v-62.853c0-13.234 10.766-24 24-24s24 10.766 24 24z"/></svg>