<svg id="Layer_1" enable-background="new 0 0 512 512" height="512" viewBox="0 0 512 512" width="512" xmlns="http://www.w3.org/2000/svg"><path d="m256 128c-17.624 0-32-14.278-32-32 0-34.08.1-31.925 0-32 18.827 14.121 44.902 14.324 64 0v32c0 17.673-14.327 32-32 32z" fill="#ea8692"/><path d="m144 328h-64v-168c0-17.673 14.327-32 32-32 17.624 0 32 14.278 32 32z" fill="#80aaff"/><path d="m80 264h64v64h-64z" fill="#4379ff"/><path d="m168 72c0 30.994-25.122 56-56 56-30.93 0-56-25.07-56-56 0-19.95 10.43-37.45 26.13-47.38 36.739-23.191 85.87 2.903 85.87 47.38z" fill="#ffdfba"/><path d="m165.87 87.38c-42.862 27.054-97.804-12.923-83.74-62.76 42.566-26.869 97.916 12.523 83.74 62.76z" fill="#ffebd2"/><path d="m456 72c0 30.93-25.07 56-56 56-25.6 0-47.18-17.17-53.87-40.62-10.169-36.036 16.888-71.38 53.87-71.38 30.99 0 56 25.136 56 56z" fill="#ffdfba"/><path d="m346.13 87.38c-14.081-49.898 40.912-89.794 83.74-62.76 14.17 50.214-41.163 89.634-83.74 62.76z" fill="#ffebd2"/><path d="m464 376h-128c13.153-59.175 9.279-41.746 32-144v-72c0-17.679 14.319-32 32-32 17.715 0 32 14.37 32 32v72z" fill="#ea8692"/><path d="m416 132.28v123.72c0 38.86-30.8 70.54-69.32 71.95l21.32-95.95v-72c0-24.737 26.841-39.939 48-27.72z" fill="#ffa4b8"/><path d="m272 141.248c18.623-6.605 32-24.389 32-45.248v-32c0-13.153-15.065-20.707-25.6-12.8-13.189 9.892-31.611 9.892-44.801 0-10.523-7.893-25.599-.372-25.599 12.8v32c0 20.858 13.377 38.643 32 45.248v34.927l-42.175 32.803-1.307-18.28c-1.849-25.897-15.359-49.579-37.369-64.352 50.13-43.551 19.365-126.346-47.149-126.346-64.427 0-96.477 78.88-49.954 123.778-36.751 18.393-62.046 56.406-62.046 100.222v104c0 8.836 7.163 16 16 16s16-7.164 16-16v-104c0-26.116 12.582-49.346 32-63.957v319.957h-8c-8.837 0-16 7.164-16 16s7.163 16 16 16h24c8.837 0 16-7.164 16-16v-152h32v152c0 8.836 7.163 16 16 16h24c8.837 0 16-7.164 16-16s-7.163-16-16-16h-8c0-17.012 0-288.114 0-305.013 5.357 11.734 4.532 17.026 8.041 66.154.91 12.732 15.691 19.335 25.782 11.49 78.315-60.912 73.398-56.689 75.393-59.616 3.57-5.213 2.784-4.771 2.784-51.767zm-200-69.248c0-22.056 17.944-40 40-40s40 17.944 40 40-17.944 40-40 40-40-17.944-40-40zm24 240v-152c0-8.822 7.178-16 16-16s16 7.178 16 16v152zm144-223.269c10.508 2.462 21.492 2.462 32 0v7.269c0 8.822-7.178 16-16 16s-16-7.178-16-16z"/><path d="m449.954 123.778c46.556-44.93 14.406-123.778-49.954-123.778-64.427 0-96.477 78.88-49.954 123.778-36.751 18.393-62.046 56.406-62.046 100.222v104c0 8.836 7.163 16 16 16s16-7.164 16-16v-104c0-26.116 12.582-49.346 32-63.957v70.2l-31.619 142.286c-2.218 9.98 5.384 19.471 15.619 19.471h16v88h-8c-8.837 0-16 7.164-16 16s7.163 16 16 16h24c8.837 0 16-7.164 16-16v-104h32v104c0 8.836 7.163 16 16 16h24c8.837 0 16-7.164 16-16s-7.163-16-16-16h-8v-88h16c10.224 0 17.839-9.48 15.619-19.471l-31.619-142.285v-70.2c19.418 14.61 32 37.84 32 63.957v104c0 8.836 7.163 16 16 16s16-7.164 16-16v-104.001c0-43.816-25.295-81.829-62.046-100.222zm-89.954-51.778c0-22.056 17.944-40 40-40s40 17.944 40 40-17.944 40-40 40-40-17.944-40-40zm56 88c0 78.632-.163 73.02.381 75.471l27.673 124.529c-10.612 0-74.913 0-88.107 0 30.049-135.224 28.053-125.458 28.053-128v-72c0-8.822 7.178-16 16-16s16 7.178 16 16z"/></svg>