<svg id="Layer_1" enable-background="new 0 0 512.1 512.1" height="512" viewBox="0 0 512.1 512.1" width="512" xmlns="http://www.w3.org/2000/svg"><path d="m388.055 376h-128c13.153-59.175 9.279-41.746 32-144v-72c0-17.679 14.319-32 32-32 17.715 0 32 14.37 32 32v72z" fill="#ea8692"/><path d="m340.055 132.28v123.72c0 38.86-30.8 70.54-69.32 71.95l21.32-95.95v-72c0-24.737 26.842-39.939 48-27.72z" fill="#ffa4b8"/><path d="m372.055 72c0 30.93-25.07 56-56 56-25.6 0-47.18-17.17-53.87-40.62-10.169-36.036 16.888-71.38 53.87-71.38 30.991 0 56 25.136 56 56z" fill="#ffdfba"/><path d="m262.185 87.38c-14.081-49.898 40.912-89.794 83.74-62.76 14.17 50.214-41.163 89.634-83.74 62.76z" fill="#ffebd2"/><path d="m228.055 328h-64v-168c0-17.673 14.327-32 32-32 17.624 0 32 14.278 32 32z" fill="#80aaff"/><path d="m164.055 264h64v64h-64z" fill="#4379ff"/><path d="m260.055 72c0 30.994-25.122 56-56 56-30.93 0-56-25.07-56-56 0-19.95 10.43-37.45 26.13-47.38 36.74-23.191 85.87 2.903 85.87 47.38z" fill="#ffdfba"/><path d="m257.926 87.38c-42.862 27.054-97.804-12.923-83.74-62.76 42.565-26.869 97.916 12.523 83.74 62.76z" fill="#ffebd2"/><path d="m385.952 392h2.104c10.224 0 17.839-9.481 15.619-19.471l-29.451-132.529h45.832c8.836 0 16-7.164 16-16 0-45.96-27.831-85.537-67.522-102.78 42.86-45.669 10.588-121.22-52.479-121.22-22.6 0-42.79 10.475-56 26.815-13.21-16.34-33.4-26.815-56-26.815-63.094 0-95.326 75.564-52.478 121.22-39.69 17.243-67.522 56.82-67.522 102.78 0 8.836 7.164 16 16 16h48v84.717l-70.702 164.971c-4.515 10.501 3.205 22.318 14.695 22.316 6.486 0-16.513-.004 32.007-.004 8.836 0 16-7.164 16-16s-7.164-16-16-16h-7.736l58.286-136h37.45v152c0 8.836 7.164 16 16 16h24c8.836 0 16-7.164 16-16s-7.164-16-16-16h-8c0-11.045 0-231.613 0-240h29.832l-29.451 132.529c-2.218 9.981 5.386 19.471 15.619 19.471h18.883l17.6 88h-4.483c-8.836 0-16 7.164-16 16s7.164 16 16 16c24.793 0 27.577.907 32.949-2.735 8.129-5.489 7.051-15.081 7.051-13.265 0-2.234 1.484 5.835-20.483-104h35.92l53.333 80-10.083 15.125c-4.901 7.352-2.915 17.286 4.438 22.188 7.352 4.901 17.287 2.914 22.188-4.438l16-24c3.583-5.374 3.583-12.376 0-17.75zm-77.897-184v-48c0-8.822 7.178-16 16-16s16 7.178 16 16v48zm-64 0v-48c0-8.841-2.413-17.125-6.599-24.246 8.746-4.6 16.433-10.942 22.599-18.569 6.166 7.627 13.854 13.969 22.599 18.569-4.187 7.121-6.599 15.405-6.599 24.246v48c-11.191 0-20.808 0-32 0zm-48-64c8.822 0 16 7.178 16 16v48h-32v-48c0-8.822 7.178-16 16-16zm206.393 64h-30.393v-47.954c15.345 11.546 26.422 28.472 30.393 47.954zm-86.393-176c22.056 0 40 17.944 40 40s-17.944 40-40 40-40-17.944-40-40 17.944-40 40-40zm-112 0c22.056 0 40 17.944 40 40s-17.944 40-40 40-40-17.944-40-40 17.944-40 40-40zm-86.392 176c3.971-19.482 15.048-36.408 30.393-47.954v47.954zm94.392 104h-32v-72h32zm67.946 48 26.667-120h34.775l26.667 120c-9.605 0-75.132 0-88.109 0z"/></svg>