<svg id="Layer_1" enable-background="new 0 0 512.05 512.05" height="512" viewBox="0 0 512.05 512.05" width="512" xmlns="http://www.w3.org/2000/svg"><path d="m288.025 29.216c-12.809-23.09-48-13.879-48 12.4 0 28.8 48 51.2 48 51.2s48-22.4 48-51.2c0-26.356-35.222-35.433-48-12.4z" fill="#ea8692"/><path d="m438.285 339.606c-43.476 49.431-125.654 35.244-148.72-28.1-16.997-46.708-35.192-96.709-43.77-120.28 61.627-22.431 21.586-7.856 165.38-60.2 46.883 128.805 47.058 126.545 48.6 140.99 2.68 24.79-5.41 49.31-21.49 67.59z" fill="#efd66c"/><path d="m438.285 339.606c-43.4 11.28-89.06-12.11-104.72-55.1-6.621-18.195-35.976-98.863-40.24-110.58l117.85-42.9c46.883 128.805 47.058 126.545 48.6 140.99 2.68 24.79-5.41 49.31-21.49 67.59z" fill="#ffe773"/><path d="m459.775 272.016h-184.58l-29.4-80.79 165.38-60.2c46.883 128.805 47.057 126.545 48.6 140.99z" fill="#f9f9f9"/><path d="m266.255 135.226c-21.771 59.827-29.978 82.379-43.77 120.28-16.576 45.497-66.965 69.268-112.79 52.59-45.699-16.63-69.209-67.167-52.6-112.79l43.78-120.28c48.913 17.805 116.483 42.401 165.38 60.2z" fill="#efd66c"/><path d="m266.255 135.226c-21.771 59.827-29.978 82.379-43.77 120.28-8.07 22.15-24.1 39.1-43.68 48.77-58.697-3.296-97.901-62.508-77.71-117.97l35.74-98.19z" fill="#ffe773"/><path d="m266.255 135.226-29.4 80.79h-184.58c1.505-14.093.035-7.563 48.6-140.99z" fill="#f9f9f9"/><path d="m511.06 452.237c-3.022-8.305-12.205-12.582-20.508-9.563l-37.587 13.681-30.518-83.847c43.673-23.937 65.549-77.2 47.543-126.671l-43.778-120.281c-3.019-8.297-12.206-12.586-20.508-9.563l-133.043 48.424 8.634-23.721c3.022-8.304-1.259-17.485-9.563-20.507l-165.386-60.196c-8.3-3.021-17.486 1.26-20.508 9.563l-43.778 120.28c-18.008 49.478 3.877 102.738 47.543 126.672l-30.518 83.847-37.587-13.681c-8.31-3.024-17.486 1.259-20.508 9.563s1.259 17.485 9.563 20.507l105.245 38.306c8.322 3.03 17.492-1.278 20.508-9.563 3.022-8.304-1.259-17.485-9.563-20.507l-37.588-13.68 30.526-83.871c49.876 9.858 100.225-18.071 117.835-66.453l8.318-22.853 28.7 78.853c18.003 49.459 68.964 76.203 117.839 66.464l30.522 83.859-37.587 13.681c-8.304 3.022-12.585 12.204-9.563 20.507 2.365 6.498 8.501 10.532 15.036 10.532 4.013 0-4.155 2.535 110.717-39.275 8.303-3.022 12.585-12.203 9.562-20.507zm-400.624-356.702 135.315 49.251c-7.744 21.277 14.42-39.621-20.102 55.229h-153.24zm97.01 154.497c-13.61 37.392-54.885 56.644-92.283 43.032-27.414-9.978-44.654-34.598-47.108-61.048h145.949zm232.195 5.984h-153.241l-20.101-55.229 135.315-49.251zm-135.037 50.016-6.557-18.017h145.949c-3.43 36.966-34.436 65.396-71.662 65.396-29.419-.001-57.1-18.174-67.73-47.379z"/><path d="m281.258 107.315c4.29 2.001 9.244 2.001 13.533 0 5.857-2.734 57.233-27.803 57.233-65.699 0-32.919-36.516-52.613-64-35.048-27.39-17.504-64 2.042-64 35.048.001 37.895 51.377 62.965 57.234 65.699zm-7.224-70.337c6.083 10.962 21.892 10.975 27.982 0 4.816-8.681 18.009-5.209 18.009 4.638 0 10.867-17.236 24.835-31.999 33.184-14.774-8.356-32.001-22.32-32.001-33.184 0-9.848 13.192-13.319 18.009-4.638z"/></svg>