<svg id="Layer_1" enable-background="new 0 0 512 512" height="512" viewBox="0 0 512 512" width="512" xmlns="http://www.w3.org/2000/svg"><path d="m496 336c0 104.311.691 101.464-2.01 112-7.11 27.6-32.16 48-61.99 48h-192c-35.35 0-64-28.65-64-64v-96z" fill="#fe929f"/><path d="m496 336v96.166c-.022 8.787-7.303 15.834-16.09 15.834h-223.91c-17.673 0-32-14.327-32-32v-80z" fill="#ffa4b8"/><path d="m176 16v320h-96c-35.35 0-64-28.65-64-64v-192c0-35.281 28.578-64 64-64z" fill="#fe929f"/><path d="m176 16v272h-80c-17.673 0-32-14.327-32-32v-223.91c0-8.623 6.847-16.09 16-16.09z" fill="#ffa4b8"/><path d="m336 216-48-40 24-24h48l24 24z" fill="#8dffff"/><path d="m496 320h-67.055c12.176-47.232-12.921-95.201-57.092-113.049l22.39-18.659c7.213-6.011 7.731-16.945 1.07-23.605l-24-24c-3-3.001-7.07-4.687-11.313-4.687h-48c-4.244 0-8.313 1.686-11.313 4.687l-24 24c-6.665 6.665-6.138 17.598 1.07 23.605l22.39 18.659c-44.156 17.842-69.272 65.801-57.092 113.049h-51.055v-304c0-8.837-7.164-16-16-16h-96c-44.112 0-80 35.888-80 80v192c0 44.112 35.888 80 80 80h80v80c0 44.112 35.888 80 80 80h192c44.112 0 80-35.888 80-80v-96c0-8.837-7.164-16-16-16zm-177.373-152h34.745l6.925 6.925-24.297 20.248-24.297-20.248zm17.373 64c45.157 0 76.36 45.867 59.334 88h-118.668c-17.059-42.215 14.251-88 59.334-88zm-304 40v-192c0-26.467 21.533-48 48-48h80v288h-80c-26.467 0-48-21.533-48-48zm448 160c0 26.467-21.533 48-48 48h-192c-26.467 0-48-21.533-48-48v-80h288z"/><g fill="#8dffff"><path d="m224 192h16c8.836 0 16-7.163 16-16s-7.164-16-16-16h-16c-8.836 0-16 7.163-16 16s7.164 16 16 16z"/><path d="m416 176c0 8.837 7.164 16 16 16h16c8.836 0 16-7.163 16-16s-7.164-16-16-16h-16c-8.836 0-16 7.163-16 16z"/><path d="m336 96c8.836 0 16-7.163 16-16v-16c0-8.837-7.164-16-16-16s-16 7.163-16 16v16c0 8.837 7.164 16 16 16z"/><path d="m403.882 124.118c4.095 0 8.19-1.563 11.314-4.687l11.313-11.314c6.249-6.249 6.248-16.38-.001-22.628-6.248-6.248-16.379-6.247-22.627.001l-11.313 11.314c-10.108 10.11-2.812 27.314 11.314 27.314z"/><path d="m256.804 119.432c6.248 6.248 16.378 6.249 22.627.001s6.25-16.379.001-22.628l-11.314-11.315c-6.247-6.247-16.379-6.248-22.627-.001-6.249 6.248-6.25 16.379-.001 22.628z"/></g></svg>