<svg id="Layer_1" enable-background="new 0 0 512.014 512.014" height="512" viewBox="0 0 512.014 512.014" width="512" xmlns="http://www.w3.org/2000/svg"><path d="m144.014 368.007v64l-64 64v-64h-64l64-64z" fill="#999"/><path d="m408.014 16.007c-17.673 0-32 14.327-32 32 0 17.624 14.278 32 32 32h24v24c0 17.624 14.278 32 32 32 17.673 0 32-14.327 32-32 0-8.169 0-76.927 0-88-6.747 0-74.183 0-88 0z" fill="#ea8692"/><path d="m343.174 256.227c-9.73 14.222-30.585 16.354-43.16 3.78l-48-48c-17.903-17.903-4.93-48.29 20-48.29 7.24 0 14.48 2.77 20 8.29l48 48c9.86 9.86 10.92 25.18 3.16 36.22z" fill="#a07765"/><path d="m464.014 152.007c26.467 0 48-21.533 48-48v-88c0-8.836-7.163-16-16-16h-88c-26.467 0-48 21.533-48 48 0 22.012 14.899 40.597 35.137 46.236l-79.137 79.137-12.686-12.686c-9.04-9.04-21.326-13.72-34.251-12.875-13.024-61.85-68.016-107.812-133.064-107.812h-80c-13.233 0-24-10.767-24-24 0-8.836-7.164-16-16-16s-16 7.164-16 16c0 15.666 6.474 29.841 16.877 40.015l39.166 313.314-51.356 51.357c-10.044 10.046-2.93 27.314 11.314 27.314h48v48c0 14.206 17.279 21.347 27.314 11.314l51.357-51.357 313.314 39.166c10.173 10.403 24.349 16.877 40.015 16.877 8.837 0 16-7.164 16-16s-7.163-16-16-16c-13.233 0-24-10.767-24-24v-80c0-65.042-45.954-120.029-107.795-133.06.826-12.374-3.563-24.925-12.891-34.253l-12.687-12.687 79.137-79.137c5.639 20.238 24.225 35.137 46.236 35.137zm-183.313 31.314 47.999 48c4.228 4.228 4.81 10.833 1.385 15.706-4.42 6.347-13.417 7.005-18.757 1.667-61.683-61.683-9.107-9.107-48-48-2.322-2.322-3.601-5.407-3.601-8.687 0-10.934 13.271-16.389 20.974-8.686zm-144.687-111.314c52.487 0 96.412 39.121 103.104 90.353-15.666 17.362-15.139 44.239 1.583 60.961l12.686 12.686-116 116h-51.247l-35.029-280.228c3.754.327-2.394.228 84.903.228zm-56 344h-25.372l32-32h41.373v41.373l-32 32v-25.373c-.001-8.837-7.164-16-16.001-16zm360-40c0 87.266-.097 81.179.228 84.904l-280.228-35.03v-51.246l116-116 12.687 12.687c16.649 16.649 43.521 17.316 60.961 1.582 51.231 6.691 90.352 50.616 90.352 103.103zm-32-344h72v72c0 8.822-7.178 16-16 16s-16-7.178-16-16c0-25.391.388-26.24-1.219-30.123-1.086-2.616-2.801-4.867-5.191-6.663-5.526-4.152-8.577-3.214-33.59-3.214-8.822 0-16-7.178-16-16s7.178-16 16-16z"/></svg>