<svg id="Layer_1" enable-background="new 0 0 512 512" height="512" viewBox="0 0 512 512" width="512" xmlns="http://www.w3.org/2000/svg"><path d="m296 296c0 22.09-17.91 40-40 40s-40-17.91-40-40c0-22.099 17.937-40 40-40 22.117 0 40 17.958 40 40z" fill="#ffdfba"/><path d="m292.66 280c-13.946 31.938-59.364 31.961-73.32 0 13.946-31.938 59.364-31.961 73.32 0z" fill="#ffebd2"/><path d="m288 424h-64v-56c0-17.673 14.327-32 32-32 17.624 0 32 14.278 32 32z" fill="#90c94f"/><path d="m480 376h-128c13.153-59.175 9.279-41.746 32-144v-72c0-17.679 14.319-32 32-32 17.715 0 32 14.37 32 32v72z" fill="#ea8692"/><path d="m432 132.28v123.72c0 38.86-30.8 70.54-69.32 71.95l21.32-95.95v-72c0-24.737 26.841-39.939 48-27.72z" fill="#ffa4b8"/><path d="m472 72c0 30.93-25.07 56-56 56-25.6 0-47.18-17.17-53.87-40.62-10.169-36.036 16.888-71.38 53.87-71.38 30.99 0 56 25.136 56 56z" fill="#ffdfba"/><path d="m362.13 87.38c-14.081-49.898 40.912-89.794 83.74-62.76 14.17 50.214-41.163 89.634-83.74 62.76z" fill="#ffebd2"/><path d="m128 320h-64v-168c0-17.673 14.327-32 32-32 17.624 0 32 14.278 32 32z" fill="#80aaff"/><path d="m64 256h64v64h-64z" fill="#4379ff"/><path d="m152 72c0 30.994-25.122 56-56 56-30.93 0-56-25.07-56-56 0-19.95 10.43-37.45 26.13-47.38 36.739-23.191 85.87 2.903 85.87 47.38z" fill="#ffdfba"/><path d="m149.87 87.38c-42.862 27.054-97.804-12.923-83.74-62.76 42.566-26.869 97.916 12.523 83.74 62.76z" fill="#ffebd2"/><path d="m464.488 125.176c48.578-44.334 16.746-125.176-48.488-125.176-65.261 0-97.052 80.855-48.488 125.176-28.403 16.692-47.512 47.566-47.512 82.824v112h-13.414c17.504-36.744-9.263-80-50.586-80s-68.097 43.241-50.586 80h-13.414c0-22.855 0-89.249 0-112 0-35.258-19.109-66.132-47.512-82.824 48.578-44.334 16.746-125.176-48.488-125.176-65.261 0-97.052 80.855-48.488 125.176-28.403 16.692-47.512 47.566-47.512 82.824v120c0 8.837 7.163 16 16 16s16-7.163 16-16v-120c0-16.188 6.053-30.981 16-42.265v314.265h-8c-8.837 0-16 7.163-16 16s7.163 16 16 16h24c8.837 0 16-7.163 16-16v-152h32v152c0 8.837 7.163 16 16 16h24c8.837 0 16-7.163 16-16s-7.163-16-16-16h-8c0-17.143 0-297.219 0-314.265 9.947 11.283 16 26.076 16 42.265v128c0 8.837 7.163 16 16 16h34.752c-3.715 10.475-2.752 3.904-2.752 128-8.837 0-16 7.163-16 16s7.163 16 16 16h16c8.837 0 16-7.163 16-16v-56h32v56c0 8.837 7.163 16 16 16h16c8.837 0 16-7.163 16-16s-7.163-16-16-16c0-124.302.945-117.576-2.752-128h34.752c5.282 0 9.952-2.57 12.865-6.517l-4.648 27.887c-1.619 9.714 5.866 18.63 15.783 18.63h8v88h-8c-8.837 0-16 7.163-16 16s7.163 16 16 16h24c8.837 0 16-7.163 16-16v-104h32v104c0 8.837 7.163 16 16 16h24c8.837 0 16-7.163 16-16s-7.163-16-16-16h-8v-88c8.037 0 14.602.96 20.208-5.658 3.04-3.589 4.348-8.333 3.574-12.972l-6.523-39.138c6.772 15.999 30.741 11.14 30.741-6.232v-120c0-35.258-19.109-66.132-47.512-82.824zm-408.488-53.176c0-22.056 17.944-40 40-40s40 17.944 40 40-17.944 40-40 40-40-17.944-40-40zm24 240v-152c0-8.822 7.178-16 16-16s16 7.178 16 16v152zm152-16c0-13.233 10.767-24 24-24s24 10.767 24 24-10.767 24-24 24-24-10.767-24-24zm40 72v40h-32v-40c0-8.822 7.178-16 16-16s16 7.178 16 16zm104-296c0-22.056 17.944-40 40-40s40 17.944 40 40-17.944 40-40 40-40-17.944-40-40zm-24 254.676c0-4.552 0-104.354 0-118.676 0-16.188 6.053-30.981 16-42.265v64.94zm26.888 33.324 20.895-125.37c.314-1.886.218 3.38.218-74.63 0-8.822 7.178-16 16-16s16 7.178 16 16c0 78.475-.094 72.753.218 74.63l20.893 125.37c-21.568 0-52.724 0-74.224 0zm85.112-129.324v-64.94c9.947 11.283 16 26.076 16 42.265v118.676z"/></svg>