<svg id="Layer_1" enable-background="new 0 0 512.026 512.026" height="512" viewBox="0 0 512.026 512.026" width="512" xmlns="http://www.w3.org/2000/svg"><path d="m88.011 232.013h336v264h-336z" fill="#ece2e2"/><path d="m424.011 232.013v224h-248c-26.51 0-48-21.49-48-48v-176z" fill="#f2f2f2"/><circle cx="172.011" cy="340.013" fill="#80aaff" r="44"/><circle cx="340.011" cy="364.013" fill="#ffa4b8" r="44"/><path d="m172.011 384.013c46.263 0 84 37.48 84 84v28h-168v-28c0-46.392 37.608-84 84-84z" fill="#4379ff"/><path d="m340.011 408.013c46.263 0 84 37.48 84 84v4h-168v-4c0-46.392 37.608-84 84-84z" fill="#ea8692"/><path d="m496.011 232.013h-480c65.514-58.969 16.456-14.815 240-216 150.142 135.124 165.405 148.857 240 216z" fill="#c79a83"/><path d="m451.571 192.013h-263.34c-44.938 0-66.204-55.418-32.801-85.479l100.581-90.521z" fill="#e0b7a3"/><path d="m168.011 16.013v79.2l-80 72v-151.2z" fill="#a07765"/><path d="m168.011 16.013v23.2l-80 72v-95.2z" fill="#c79a83"/><path d="m506.714 220.12-240-216c-6.084-5.477-15.322-5.477-21.406 0l-61.297 55.167v-27.274c8.837 0 16-7.163 16-16s-7.163-16-16-16c-25.508 0-88.098 0-112 0-8.837 0-16 7.163-16 16s7.163 16 16 16v128.075l-66.703 60.032c-10.86 9.772-3.945 27.893 10.703 27.893h56v232h-24c-8.837 0-16 7.163-16 16s7.163 16 16 16h416c8.837 0 16-7.163 16-16s-7.163-16-16-16h-24v-232h56c14.61 0 21.592-18.094 10.703-27.893zm-402.703-188.107h48v56.075l-48 43.2zm0 436c0-37.495 30.505-68 68-68s68 30.505 68 68v12h-136zm40-128c0-15.439 12.561-28 28-28s28 12.561 28 28-12.561 28-28 28-28-12.561-28-28zm129.06 140c5.685-31.791 33.538-56 66.939-56s61.255 24.209 66.939 56zm38.94-116c0-15.439 12.561-28 28-28s28 12.561 28 28-12.561 28-28 28-28-12.561-28-28zm96 54.751c-6.699-6.223-14.245-11.545-22.451-15.762 33.116-38.63 5.726-98.989-45.549-98.989-51.292 0-78.65 60.376-45.549 98.989-11.896 6.112-22.409 14.543-30.952 24.686-9.292-21.002-25.605-38.232-45.951-48.686 33.116-38.63 5.726-98.989-45.549-98.989-51.292 0-78.65 60.376-45.549 98.989-8.206 4.216-15.752 9.539-22.451 15.762v-146.751h304v170.751zm-350.305-202.751 198.305-178.475 198.305 178.475c-23.391 0-373.147 0-396.61 0z"/></svg>