<svg id="Layer_1" enable-background="new 0 0 511.987 511.987" height="512" viewBox="0 0 511.987 511.987" width="512" xmlns="http://www.w3.org/2000/svg"><path d="m432.493 355.768-121.38-32.52c-26.364-111.021 55.734-266.664 131.09-246.47 75.747 20.3 68.343 196.341-9.71 278.99z" fill="#999"/><path d="m409.333 415.818c-7.103 26.502-4.543 16.954-10.36 38.64-8 29.87-38.71 47.6-68.58 39.6-29.88-8.01-47.61-38.71-39.6-68.59l10.35-38.63c7.664 2.049-11.592-3.108 108.19 28.98z" fill="#999"/><path d="m481.463 268.708c-9.57 18.9-20.83 35.2-32.97 48.06l-38.018-10.186c-59.174-15.854-94.618-76.527-79.027-135.772 1.319-5.011 4.471-15.703 4.675-15.903 27.79-54.86 69.81-87.85 106.08-78.13 52.345 14.03 67.019 106.331 39.26 191.931z" fill="#b2b2b2"/><path d="m409.333 415.818-5.73 21.38c-13.58 15.98-35.61 23.64-57.21 17.86-29.29-7.85-46.91-37.51-40.05-66.83z" fill="#b2b2b2"/><path d="m199.613 264.138-121.38 32.52c-76.288-80.793-84.846-249.618-15.09-277.2 74.816-29.935 163.977 128.944 136.47 244.68z" fill="#999"/><path d="m180.333 434.948c-29.87 8-60.58-9.72-68.58-39.6l-10.36-38.63c43.754-11.724 32.074-8.594 108.19-28.99l10.35 38.63c8.043 29.987-9.849 60.617-39.6 68.59z" fill="#999"/><path d="m203.643 238.898-9.043 2.423c-59.174 15.855-120.205-18.969-136.326-78.071-12.333-45.214-15.634-103.16 4.869-143.792 68.002-27.208 151.012 103.412 140.5 219.44z" fill="#b2b2b2"/><path d="m218.343 400.348c-30.688 11.482-65.015-5.974-73.59-38l-4.32-16.09 69.15-18.53 10.35 38.63c3.13 11.67 2.33 23.47-1.59 33.99z" fill="#b2b2b2"/><path d="m446.341 61.321c-91.413-24.491-179.178 146.052-150.797 265.621 1.358 5.722 5.746 10.237 11.426 11.76l121.378 32.522c5.639 1.512 11.712-.167 15.775-4.471 84.912-89.935 92.865-281.142 2.218-305.432zm-19.254 276.436-102.29-27.408c-5.011-28.933-2.79-63.196 6.444-97.66 29.696-110.826 118.855-170.544 143.397-70.724 15.213 61.883-7.429 147.681-47.551 195.792z"/><path d="m413.47 400.366-108.184-28.987c-8.535-2.286-17.309 2.779-19.596 11.313l-10.353 38.637c-10.276 38.349 12.563 77.906 50.912 88.183 38.436 10.299 77.882-12.47 88.181-50.911l10.353-38.638c2.286-8.53-2.778-17.309-11.313-19.597zm-29.95 49.952c-5.719 21.347-27.632 34.012-48.989 28.283-21.305-5.708-33.993-27.686-28.285-48.989l6.212-23.183 77.274 20.705z"/><path d="m216.688 267.864c17.651-74.36-9.925-176.889-62.876-232.082-57.737-60.184-127.085-42.736-147.293 39.467-18.242 74.205 9.068 176.8 61.589 232.428 4.045 4.284 10.102 5.988 15.775 4.471l121.378-32.523c5.682-1.524 10.069-6.039 11.427-11.761zm-29.253-16.593-102.289 27.409c-18.806-22.55-34.014-53.334-43.249-87.798-29.562-110.33 17.324-207.475 88.823-132.948 43.598 45.444 67.56 130.727 56.715 193.337z"/><path d="m226.542 323.614c-2.281-8.514-11.042-13.601-19.596-11.313l-108.183 28.988c-8.536 2.287-13.601 11.061-11.313 19.596l10.353 38.638c8.609 32.131 37.774 53.372 69.563 53.372 47.017 0 81.861-44.621 69.53-90.643zm-48.84 95.909c-21.305 5.712-43.282-6.98-48.991-28.283l-6.211-23.183 77.274-20.706 6.211 23.183c5.723 21.352-6.926 43.268-28.283 48.989z"/></svg>