<svg id="Layer_1" enable-background="new 0 0 512.09 512.09" height="512" viewBox="0 0 512.09 512.09" width="512" xmlns="http://www.w3.org/2000/svg"><path d="m367.801 112.833 24.209-96.833h-272l24.208 96.833c-76.234 36.186-128.208 108.209-128.208 191.167 0 83.59 52.76 156.09 129.94 192h220.12c77.18-35.91 129.94-108.41 129.94-192 0-82.958-51.975-154.981-128.209-191.167z" fill="#bdefe1"/><path d="m366.07 496h-220.12c-128.9-59.974-168.038-206.492-89.51-312 32.9.14 33.05 16 66.23 16 33.34 0 33.34-16 66.67-16s33.33 16 66.66 16c33.34 0 33.34-16 66.67-16s33.33 16 66.67 16c33.18 0 33.33-15.86 66.24-16 79.212 106.427 38.239 252.561-89.51 312z" fill="#6994ff"/><path d="m494.54 279.97c-11.872 96.835-95.051 168.03-191.506 168.03h-94.048c-96.447 0-179.634-71.192-191.506-168.03 4.33-35.25 18.09-67.93 38.96-95.97 32.9.14 33.05 16 66.23 16 33.34 0 33.34-16 66.67-16s33.33 16 66.66 16c33.34 0 33.34-16 66.67-16s33.33 16 66.67 16c33.18 0 33.33-15.86 66.24-16 20.87 28.04 34.63 60.72 38.96 95.97z" fill="#80aaff"/><path d="m360.01 344c0 33.14-32.24 60-72 60s-72-26.86-72-60c0-34.439 33.838-60 72-60 38.73 0 72 26.059 72 60z" fill="#ea8692"/><path d="m216.01 336.56v3.97c0 24.61-19.95 44.56-44.56 44.56h-19.44l7.81-44c.281-1.612 1.114 4.435-7.81-49.09h19.44c24.589 0 44.56 19.946 44.56 44.56z" fill="#ea8692"/><path d="m355.02 322c-23.952 50.584-110.081 50.557-134.02 0 23.951-50.584 110.081-50.557 134.02 0z" fill="#ffa4b8"/><path d="m211.27 316.55c-7.33 14.55-22.41 24.54-39.82 24.54h-11.63c.269-1.543.707 2.014-3.59-23.78 4.394-24.771 4.003-19.978 3.11-25.31h12.11c17.41 0 32.49 9.99 39.82 24.55z" fill="#ffa4b8"/><path d="m56.44 184c-.14 0-.28 0-.43 0" fill="#8bc4ff"/><path d="m456.01 184c-.15 0-.29 0-.43 0" fill="#8bc4ff"/><path d="m470.371 176.981c-.864-1.765-2.039-3.344-3.461-4.67-20.729-27.253-47.987-50.567-80.488-67.995l21.109-84.436c2.526-10.105-5.131-19.88-15.521-19.88h-272c-10.417 0-18.041 9.8-15.522 19.881l21.109 84.436c-32.501 17.428-59.759 40.741-80.488 67.995-1.421 1.326-2.596 2.905-3.461 4.67-81.754 113.293-39.941 269.55 97.551 333.526 4.585 2.132-14.262 1.492 226.871 1.492 2.332 0 4.636-.51 6.75-1.493 135.364-62.985 180.574-218.476 97.551-333.526zm-320.765-48.981h154.404c8.837 0 16-7.163 16-16s-7.163-16-16-16h-147.508l-16-64h231.016l-19.238 76.951c-1.849 7.395 1.775 15.066 8.661 18.335 24.987 11.861 46.75 27.527 64.595 45.952-13.872 5.329-17.949 10.762-36.196 10.762-27.788 0-29.655-16-66.671-16-36.505 0-39.333 16-66.667 16-27.723 0-29.707-16-66.665-16-36.503 0-39.329 16-66.662 16-18.174 0-22.467-5.488-36.192-10.761 17.493-18.061 38.755-33.466 63.123-45.239zm212.864 352h-212.92c-114.184-55.163-150.562-183.178-85.232-279.544 18.911 2.292 25.28 15.544 58.357 15.544 36.503 0 39.329-16 66.662-16 27.724 0 29.705 16 66.665 16 36.507 0 39.331-16 66.667-16 27.725 0 29.709 16 66.671 16 33.087 0 39.468-13.255 58.362-15.544 65.368 96.424 28.921 224.396-85.232 279.544z"/><path d="m313.754 271.321c-1.083-.831-.773-.591-32.145-24.121-7.069-5.304-17.099-3.87-22.399 3.2-4.941 6.588-4.027 15.745 1.843 21.252-17.262 4.809-32.209 14.104-42.993 26.291-11.118-13.396-27.886-21.943-46.614-21.943h-19.436c-9.866 0-17.41 8.868-15.782 18.631l7.548 45.284-7.52 42.381c-1.741 9.806 5.815 18.795 15.754 18.795 19.86 0 40.99 2.64 61.344-16.903 12.066 16.658 31.392 29.007 54.124 33.718l-2.781 2.78c-6.249 6.248-6.249 16.379 0 22.627 6.249 6.249 16.379 6.248 22.627 0l26.705-26.705c35.862-9.604 61.982-38.521 61.982-72.608-.001-34.173-26.255-63.148-62.257-72.679zm-142.308 97.77c-.503 0-.866 2.921 4.317-26.296.676-3.81.405-3.164-4.866-34.795 17.114 0 29.112 13.434 29.112 28.563v3.964c.001 15.75-12.813 28.564-28.563 28.564zm116.564 18.909c-30.879 0-56-19.738-56-44s25.121-44 56-44 56 19.738 56 44-25.121 44-56 44z"/></svg>