<svg id="Layer_1" enable-background="new 0 0 512.102 512.102" height="512" viewBox="0 0 512.102 512.102" width="512" xmlns="http://www.w3.org/2000/svg"><path d="m200.051 296.015-184 184v-368z" fill="#ece2e2"/><path d="m200.051 296.015-81.373 81.373c-20.159 20.159-54.627 5.882-54.627-22.627v-194.746z" fill="#f9f9f9"/><path d="m496.051 480.015h-480l184-184 56 56 56-56z" fill="#ece2e2"/><path d="m448.051 432.015h-306.745c-28.509 0-42.786-34.469-22.627-54.627l81.373-81.373 56 56 56-56z" fill="#f9f9f9"/><path d="m496.051 112.015v368l-184-184z" fill="#ece2e2"/><path d="m496.051 112.015v304l-106.745-106.745c-24.994-24.994-24.994-65.516 0-90.51z" fill="#f9f9f9"/><path d="m496.051 112.015-240 240-240-240h121.95c7.1 29.45 32.58 55.47 58.05 75 30 23 60 37 60 37s13.78-6.43 32-17.74c31.49-19.53 76.25-53.63 86.05-94.26z" fill="#ece2e2"/><path d="m496.051 112.015-162.745 162.745c-24.994 24.994-65.516 24.994-90.51 0l-162.745-162.745z" fill="#f9f9f9"/><path d="m374.101 112.015c-15.47 64.13-118.05 112-118.05 112s-30-14-60-37c-29.12-22.329-60-54.481-60-91 0-35.341 28.647-64 64-64 24.1 0 45.08 13.32 56 33 10.92-19.68 31.9-33 56-33 40.828 0 72.271 37.978 62.05 80z" fill="#ea8692"/><path d="m375.671 103.045c-11.733 17.123-28.304 32.343-44.759 44.836-33.71 25.592-81.978 27.411-118.861-.866-15.765-12.089-31.534-26.664-42.946-43-2.422-3.467-5.199-10.438-7.798-18.117-8.781-25.951 10.2-53.883 38.744-53.883 24.1 0 45.08 13.32 56 33 10.92-19.68 31.9-33 56-33 37.637 0 67.753 32.508 63.62 71.03z" fill="#fe929f"/><path d="m511.741 483.14c.507-2.556.412-371.441.126-373.425-1.053-7.286-6.954-12.906-14.235-13.62-1.233-.122 5.692-.08-105.581-.08 0-71.141-85.8-106.284-136-57.124-50.373-49.33-136-13.662-136 57.124-112.531 0-106.154-.658-110.808 1.537-4.749 2.234-7.927 6.52-8.882 11.338-.507 2.557-.413 371.435-.126 373.425 1.058 7.312 6.971 12.908 14.238 13.62.1.01 482.631.687 486.981-.876 5.238-1.876 9.186-6.368 10.287-11.919zm-479.69-332.498 145.373 145.373-145.373 145.373zm168 168 44.687 44.687c6.247 6.248 16.379 6.249 22.627 0l44.687-44.687 145.373 145.373h-402.747zm134.627-22.627 145.373-145.373v290.746zm-134.627-248c17.437 0 33.534 9.489 42.009 24.763 6.082 10.961 21.892 10.975 27.981 0 8.475-15.274 24.572-24.763 42.009-24.763 26.541 0 48 21.454 48 48 0 44.887-63.92 89.562-103.938 110.137-37.164-19.346-92.747-57.189-102.563-97.913-7.793-32.075 16.264-60.224 46.502-60.224zm-73.744 80c9.412 24.171 28.226 45.125 48.039 62.023 22.076 18.827 52.931 38.201 74.939 48.476 4.953 2.311 9.769 1.819 14.752-.58 44.912-21.598 103.405-63.202 121.736-109.919h71.651l-201.373 201.373-201.373-201.373z"/></svg>