<?xml version="1.0" encoding="iso-8859-1"?>
<!-- Generator: Adobe Illustrator 19.0.0, SVG Export Plug-In . SVG Version: 6.00 Build 0)  -->
<svg xmlns="http://www.w3.org/2000/svg" xmlns:xlink="http://www.w3.org/1999/xlink" version="1.1" id="Capa_1" x="0px" y="0px" viewBox="0 0 511.999 511.999" style="enable-background:new 0 0 511.999 511.999;" xml:space="preserve">
<path style="fill:#8CC4B1;" d="M494.693,439.999H17.307C7.749,439.999,0,432.25,0,422.691v-34.179  c0-9.559,7.749-17.307,17.307-17.307h477.385c9.559,0,17.307,7.749,17.307,17.307v34.179  C512,432.25,504.251,439.999,494.693,439.999z"/>
<g>
	<rect x="72.23" y="178.33" style="fill:#A16B4E;" width="29.596" height="54.796"/>
	<rect x="410.17" y="178.33" style="fill:#A16B4E;" width="29.596" height="54.796"/>
</g>
<rect x="72.23" y="181.14" style="opacity:0.15;enable-background:new    ;" width="29.596" height="16.962"/>
<rect x="65.01" y="258" style="fill:#A16B4E;" width="44.03" height="83.41"/>
<rect x="65.01" y="261.69" style="opacity:0.1;enable-background:new    ;" width="44.03" height="21.876"/>
<g>
	<path style="fill:#A16B4E;" d="M124.39,337.72H49.665c-4.903,0-8.877,3.974-8.877,8.877v20.321c0,2.367,1.919,4.286,4.287,4.286   h83.906c2.367,0,4.286-1.919,4.286-4.286v-20.321C133.267,341.695,129.293,337.72,124.39,337.72z"/>
	<rect x="402.95" y="258" style="fill:#A16B4E;" width="44.03" height="83.41"/>
</g>
<rect x="402.95" y="261.69" style="opacity:0.1;enable-background:new    ;" width="44.03" height="21.876"/>
<path style="fill:#A16B4E;" d="M387.61,337.72h74.725c4.903,0,8.877,3.974,8.877,8.877v20.321c0,2.367-1.919,4.286-4.287,4.286  h-83.906c-2.367,0-4.286-1.919-4.286-4.286v-20.321C378.733,341.695,382.707,337.72,387.61,337.72z"/>
<path style="opacity:0.1;enable-background:new    ;" d="M124.39,337.72H49.665c-4.903,0-8.877,3.974-8.877,8.877v20.321  c0,2.367,1.919,4.286,4.287,4.286h83.906c2.367,0,4.286-1.919,4.286-4.286v-20.321C133.267,341.695,129.293,337.72,124.39,337.72z"/>
<path style="opacity:0.1;enable-background:new    ;" d="M387.61,337.72h74.725c4.903,0,8.877,3.974,8.877,8.877v20.321  c0,2.367-1.919,4.286-4.287,4.286h-83.906c-2.367,0-4.286-1.919-4.286-4.286v-20.321C378.733,341.695,382.707,337.72,387.61,337.72z  "/>
<rect x="410.17" y="181.14" style="opacity:0.15;enable-background:new    ;" width="29.596" height="16.962"/>
<path style="fill:#F2BA5B;" d="M484.958,261.691H27.042c-5.86,0-10.611-4.751-10.611-10.611v-10.15  c0-5.861,4.751-10.611,10.611-10.611h457.916c5.86,0,10.611,4.751,10.611,10.611v10.15  C495.569,256.94,490.818,261.691,484.958,261.691z"/>
<path style="opacity:0.05;enable-background:new    ;" d="M484.958,230.318h-28.672c5.861,0,10.611,4.751,10.611,10.611v10.15  c0,5.86-4.751,10.611-10.611,10.611h28.672c5.86,0,10.611-4.751,10.611-10.611v-10.15  C495.569,235.069,490.818,230.318,484.958,230.318z"/>
<path style="fill:#FC8063;" d="M449.552,349.957c-14.126,14.126-15.918,36.833-15.73,49.129c0.077,4.998,4.098,9.019,9.096,9.096  c12.296,0.189,35.003-1.604,49.129-15.73s15.918-36.833,15.73-49.129c-0.077-4.998-4.098-9.019-9.096-9.096  C486.385,334.039,463.678,335.831,449.552,349.957z"/>
<path style="fill:#F15B70;" d="M449.552,349.957c-14.126,14.126-15.918,36.833-15.73,49.129c0.077,4.998,4.098,9.019,9.096,9.096  c12.296,0.189,35.003-1.604,49.129-15.73s15.918-36.833,15.73-49.129c-0.077-4.998-4.098-9.019-9.096-9.096  C486.385,334.039,463.678,335.831,449.552,349.957z"/>
<path style="opacity:0.1;enable-background:new    ;" d="M460.687,388.816c-1.919,0-3.839-0.732-5.303-2.196  c-2.929-2.93-2.929-7.678,0-10.607l20.226-20.226c2.929-2.928,7.678-2.928,10.606,0c2.929,2.93,2.929,7.678,0,10.607L465.99,386.62  C464.526,388.085,462.606,388.816,460.687,388.816z"/>
<path style="fill:#FC8063;" d="M28.85,368.976c-14.126-14.126-15.918-36.833-15.73-49.129c0.077-4.998,4.098-9.02,9.096-9.096  c12.296-0.188,35.003,1.604,49.129,15.73s15.918,36.833,15.73,49.129c-0.077,4.998-4.098,9.02-9.096,9.096  C65.683,384.894,42.976,383.102,28.85,368.976z"/>
<path style="opacity:0.05;enable-background:new    ;" d="M28.85,368.976c-14.126-14.126-15.918-36.833-15.73-49.129  c0.077-4.998,4.098-9.02,9.096-9.096c12.296-0.188,35.003,1.604,49.129,15.73s15.918,36.833,15.73,49.129  c-0.077,4.998-4.098,9.02-9.096,9.096C65.683,384.894,42.976,383.102,28.85,368.976z"/>
<path style="opacity:0.1;enable-background:new    ;" d="M60.21,365.341c-1.919,0-3.839-0.732-5.303-2.196l-20.226-20.226  c-2.929-2.93-2.929-7.678,0-10.607c2.929-2.928,7.678-2.928,10.606,0l20.226,20.226c2.929,2.93,2.929,7.678,0,10.607  C64.049,364.608,62.13,365.341,60.21,365.341z"/>
<path style="fill:#FC8063;" d="M359.303,394.549c18.773,6.833,40.11-1.14,51.174-6.507c4.497-2.182,6.443-7.526,4.4-12.088  c-5.026-11.223-16.246-31.046-35.019-37.878c-18.773-6.833-40.11,1.139-51.174,6.507c-4.497,2.182-6.443,7.526-4.4,12.088  C329.309,367.895,340.53,387.717,359.303,394.549z"/>
<path style="opacity:0.1;enable-background:new    ;" d="M359.303,394.549c18.773,6.833,40.11-1.14,51.174-6.507  c4.497-2.182,6.443-7.526,4.4-12.088c-5.026-11.223-16.246-31.046-35.019-37.878c-18.773-6.833-40.11,1.139-51.174,6.507  c-4.497,2.182-6.443,7.526-4.4,12.088C329.309,367.895,340.53,387.717,359.303,394.549z"/>
<path style="opacity:0.1;enable-background:new    ;" d="M383.019,378.707c-0.852,0-1.718-0.147-2.565-0.454l-26.878-9.783  c-3.892-1.417-5.899-5.721-4.482-9.613s5.721-5.893,9.613-4.482l26.878,9.783c3.892,1.417,5.899,5.721,4.482,9.613  C388.958,376.815,386.081,378.707,383.019,378.707z"/>
<path style="fill:#FC8063;" d="M139.158,389.749c18.773,6.833,40.11-1.139,51.174-6.507c4.497-2.182,6.443-7.526,4.4-12.088  c-5.026-11.223-16.246-31.046-35.019-37.878c-18.773-6.833-40.11,1.139-51.174,6.507c-4.497,2.182-6.442,7.526-4.4,12.088  C109.165,363.094,120.386,382.917,139.158,389.749z"/>
<path style="fill:#F15B70;" d="M139.158,389.749c18.773,6.833,40.11-1.139,51.174-6.507c4.497-2.182,6.443-7.526,4.4-12.088  c-5.026-11.223-16.246-31.046-35.019-37.878c-18.773-6.833-40.11,1.139-51.174,6.507c-4.497,2.182-6.442,7.526-4.4,12.088  C109.165,363.094,120.386,382.917,139.158,389.749z"/>
<path style="opacity:0.1;enable-background:new    ;" d="M162.874,373.906c-0.852,0-1.718-0.147-2.565-0.454l-26.878-9.783  c-3.892-1.417-5.899-5.721-4.482-9.613c1.416-3.893,5.722-5.895,9.613-4.482l26.878,9.783c3.892,1.417,5.899,5.721,4.483,9.613  C168.814,372.015,165.937,373.906,162.874,373.906z"/>
<path style="fill:#FC8063;" d="M287.558,345.51c-14.126,14.126-15.918,36.833-15.73,49.129c0.077,4.998,4.098,9.019,9.096,9.096  c12.296,0.189,35.003-1.604,49.129-15.73s15.918-36.833,15.73-49.129c-0.077-4.998-4.098-9.019-9.096-9.096  C324.392,329.592,301.684,331.384,287.558,345.51z"/>
<path style="fill:#F15B70;" d="M287.558,345.51c-14.126,14.126-15.918,36.833-15.73,49.129c0.077,4.998,4.098,9.019,9.096,9.096  c12.296,0.189,35.003-1.604,49.129-15.73s15.918-36.833,15.73-49.129c-0.077-4.998-4.098-9.019-9.096-9.096  C324.392,329.592,301.684,331.384,287.558,345.51z"/>
<path style="opacity:0.1;enable-background:new    ;" d="M298.693,384.371c-1.92,0-3.839-0.732-5.303-2.196  c-2.929-2.93-2.929-7.678,0-10.607l20.226-20.226c2.929-2.928,7.678-2.928,10.607,0c2.929,2.93,2.929,7.678,0,10.607l-20.226,20.226  C302.532,383.639,300.612,384.371,298.693,384.371z"/>
<path style="fill:#F2BA5B;" d="M466.349,120.44V78.134c0-3.387-2.746-6.133-6.133-6.133H51.784c-3.387,0-6.133,2.746-6.133,6.133  v42.306c0,3.387,2.746,6.133,6.133,6.133c-3.387,0-6.133,2.746-6.133,6.133v42.306c0,3.387,2.746,6.133,6.133,6.133h408.433  c3.387,0,6.133-2.746,6.133-6.133v-42.306c0-3.387-2.746-6.133-6.133-6.133C463.603,126.573,466.349,123.827,466.349,120.44z"/>
<g style="opacity:0.1;">
	<path d="M179.227,166.066h-31.784c-4.142,0-7.5-3.357-7.5-7.5s3.358-7.5,7.5-7.5h31.784c1.129,0,2.191-0.44,2.991-1.239   c3.632-3.632,8.461-5.632,13.596-5.632h21.743c4.142,0,7.5,3.357,7.5,7.5s-3.358,7.5-7.5,7.5h-21.743   c-1.129,0-2.191,0.44-2.991,1.239C189.191,164.066,184.363,166.066,179.227,166.066z"/>
	<path d="M387.288,159.195h-58.486c-4.142,0-7.5-3.357-7.5-7.5s3.358-7.5,7.5-7.5h58.486c4.142,0,7.5,3.357,7.5,7.5   S391.43,159.195,387.288,159.195z"/>
</g>
<g>
	<circle style="fill:#4A5058;" cx="424.97" cy="153.86" r="7.48"/>
	<circle style="fill:#4A5058;" cx="87.03" cy="153.86" r="7.48"/>
</g>
<path style="opacity:0.05;enable-background:new    ;" d="M466.349,120.44V78.134c0-3.387-2.746-6.133-6.133-6.133h-26.427  c3.387,0,6.133,2.746,6.133,6.133v42.306c0,3.386-2.744,6.131-6.13,6.133h-0.002h0.001h-0.001h0.002  c3.386,0.001,6.13,2.747,6.13,6.133v42.306c0,3.387-2.746,6.133-6.133,6.133h26.427c3.387,0,6.133-2.746,6.133-6.133v-42.306  c0-3.386-2.745-6.132-6.132-6.133C463.604,126.572,466.349,123.827,466.349,120.44z"/>
<path style="opacity:0.1;enable-background:new    ;" d="M460.216,126.573H51.783c-3.387,0-6.133,2.746-6.133,6.133v42.306  c0,3.387,2.746,6.133,6.133,6.133h408.433c3.387,0,6.133-2.746,6.133-6.133v-42.306  C466.349,129.318,463.603,126.573,460.216,126.573z"/>
<g>
	<circle style="fill:#4A5058;" cx="424.97" cy="99.29" r="7.48"/>
	<circle style="fill:#4A5058;" cx="87.03" cy="99.29" r="7.48"/>
</g>
<g style="opacity:0.1;">
	<path d="M180.029,111.731h-38.756c-4.142,0-7.5-3.357-7.5-7.5s3.358-7.5,7.5-7.5h38.756c4.142,0,7.5,3.357,7.5,7.5   S184.171,111.731,180.029,111.731z"/>
	<path d="M318.662,102.755h-55.668c-4.142,0-7.5-3.357-7.5-7.5s3.358-7.5,7.5-7.5h55.668c4.142,0,7.5,3.357,7.5,7.5   S322.804,102.755,318.662,102.755z"/>
</g>
<g>
</g>
<g>
</g>
<g>
</g>
<g>
</g>
<g>
</g>
<g>
</g>
<g>
</g>
<g>
</g>
<g>
</g>
<g>
</g>
<g>
</g>
<g>
</g>
<g>
</g>
<g>
</g>
<g>
</g>
</svg>
