<?xml version="1.0" encoding="iso-8859-1"?>
<!-- Generator: Adobe Illustrator 19.0.0, SVG Export Plug-In . SVG Version: 6.00 Build 0)  -->
<svg xmlns="http://www.w3.org/2000/svg" xmlns:xlink="http://www.w3.org/1999/xlink" version="1.1" id="Capa_1" x="0px" y="0px" viewBox="0 0 512 512" style="enable-background:new 0 0 512 512;" xml:space="preserve">
<path id="SVGCleanerId_0" style="fill:#FC8063;" d="M490.093,341.537L359.144,210.588c-3.758-3.758-7.27-7.748-10.708-11.801  c-4.806-5.665-10.538-10.511-16.956-14.311c-3.424-2.028-4.222-6.637-1.561-9.596c18.008-20.027,29.098-47.345,29.098-77.462  C359.018,35.987,312.895,0,256,0S152.982,35.987,152.982,97.418c0,30.118,11.09,57.435,29.098,77.462  c2.661,2.959,1.864,7.569-1.561,9.596c-6.418,3.8-12.15,8.646-16.956,14.311c-3.438,4.053-6.95,8.043-10.708,11.801L21.907,341.537  c-4.704,4.704-4.704,12.33,0,17.034l42.99,42.99c4.704,4.704,12.33,4.704,17.034,0l61.283-61.283l-6.882,151.736  c-0.494,10.888,8.2,19.985,19.099,19.985H356.57c10.899,0,19.593-9.097,19.099-19.985l-6.882-151.736l61.283,61.283  c4.704,4.704,12.33,4.704,17.034,0l42.991-42.99C494.797,353.867,494.797,346.241,490.093,341.537z"/>
<g>
	<path id="SVGCleanerId_0_1_" style="fill:#FC8063;" d="M490.093,341.537L359.144,210.588c-3.758-3.758-7.27-7.748-10.708-11.801   c-4.806-5.665-10.538-10.511-16.956-14.311c-3.424-2.028-4.222-6.637-1.561-9.596c18.008-20.027,29.098-47.345,29.098-77.462   C359.018,35.987,312.895,0,256,0S152.982,35.987,152.982,97.418c0,30.118,11.09,57.435,29.098,77.462   c2.661,2.959,1.864,7.569-1.561,9.596c-6.418,3.8-12.15,8.646-16.956,14.311c-3.438,4.053-6.95,8.043-10.708,11.801L21.907,341.537   c-4.704,4.704-4.704,12.33,0,17.034l42.99,42.99c4.704,4.704,12.33,4.704,17.034,0l61.283-61.283l-6.882,151.736   c-0.494,10.888,8.2,19.985,19.099,19.985H356.57c10.899,0,19.593-9.097,19.099-19.985l-6.882-151.736l61.283,61.283   c4.704,4.704,12.33,4.704,17.034,0l42.991-42.99C494.797,353.867,494.797,346.241,490.093,341.537z"/>
</g>
<path style="opacity:0.1;enable-background:new    ;" d="M142.344,359.447l-6.013,132.568c-0.494,10.888,8.2,19.985,19.099,19.985  h201.139c10.899,0,19.593-9.097,19.099-19.985l-6.013-132.568L142.344,359.447L142.344,359.447z"/>
<path style="fill:#F2BA5B;" d="M317.864,100.176c0-36.89-27.697-58.501-61.864-58.501s-61.864,21.611-61.864,58.501  s27.697,66.795,61.864,66.795S317.864,137.066,317.864,100.176z"/>
<g>
	<path style="fill:#FAD97E;" d="M79.629,330.369l-10.623,10.623c-3.474,3.474-9.107,3.474-12.581,0l-21.971-21.971   c-3.474-3.474-3.474-9.107,0-12.581l10.623-10.623c3.474-3.474,9.107-3.474,12.581,0l21.971,21.971   C83.103,321.262,83.103,326.895,79.629,330.369z"/>
	<path style="fill:#FAD97E;" d="M432.371,330.369l10.623,10.623c3.474,3.474,9.107,3.474,12.581,0l21.971-21.971   c3.474-3.474,3.474-9.107,0-12.581l-10.623-10.623c-3.474-3.474-9.107-3.474-12.581,0l-21.971,21.971   C428.897,321.262,428.897,326.895,432.371,330.369z"/>
</g>
<path style="opacity:0.1;enable-background:new    ;" d="M256,208.213c-4.142,0-7.5,3.357-7.5,7.5V512h15V215.713  C263.5,211.57,260.142,208.213,256,208.213z"/>
<g>
	<path style="fill:#FAD97E;" d="M185.745,455.603c-0.854,0-1.722-0.146-2.57-0.456c-3.891-1.42-5.895-5.726-4.475-9.616   l21.156-57.982c1.42-3.892,5.727-5.893,9.617-4.476c3.891,1.42,5.895,5.726,4.475,9.616l-21.156,57.982   C191.681,453.714,188.806,455.603,185.745,455.603z"/>
	<path style="fill:#FAD97E;" d="M326.255,455.603c-3.062,0-5.936-1.889-7.046-4.932l-21.156-57.982   c-1.419-3.891,0.584-8.196,4.475-9.616c3.892-1.421,8.197,0.585,9.617,4.476l21.156,57.982c1.419,3.891-0.584,8.196-4.475,9.616   C327.977,455.456,327.109,455.603,326.255,455.603z"/>
</g>
<g>
	<path style="fill:#4A5058;" d="M206.265,271.388c-4.142,0-7.5-3.357-7.5-7.5v-48.175c0-4.143,3.358-7.5,7.5-7.5s7.5,3.357,7.5,7.5   v48.175C213.765,268.03,210.407,271.388,206.265,271.388z"/>
	<path style="fill:#4A5058;" d="M305.735,271.388c-4.142,0-7.5-3.357-7.5-7.5v-48.175c0-4.143,3.358-7.5,7.5-7.5s7.5,3.357,7.5,7.5   v48.175C313.235,268.03,309.877,271.388,305.735,271.388z"/>
</g>
<g>
</g>
<g>
</g>
<g>
</g>
<g>
</g>
<g>
</g>
<g>
</g>
<g>
</g>
<g>
</g>
<g>
</g>
<g>
</g>
<g>
</g>
<g>
</g>
<g>
</g>
<g>
</g>
<g>
</g>
</svg>
