<?xml version="1.0" encoding="iso-8859-1"?>
<!-- Generator: Adobe Illustrator 19.0.0, SVG Export Plug-In . SVG Version: 6.00 Build 0)  -->
<svg xmlns="http://www.w3.org/2000/svg" xmlns:xlink="http://www.w3.org/1999/xlink" version="1.1" id="Capa_1" x="0px" y="0px" viewBox="0 0 512 512" style="enable-background:new 0 0 512 512;" xml:space="preserve">
<path style="fill:#A16B4E;" d="M248.714,307.912l-44.626-44.626L459.959,7.416c9.887-9.887,25.918-9.887,35.805,0l8.82,8.82  c9.887,9.887,9.887,25.918,0,35.805L248.714,307.912z"/>
<rect x="225.856" y="210.71" transform="matrix(-0.7071 -0.7071 0.7071 -0.7071 259.416 616.6036)" style="fill:#F15B70;" width="63.109" height="87.729"/>
<path style="opacity:0.1;enable-background:new    ;" d="M504.585,16.236l-8.82-8.82c-0.622-0.622-1.268-1.204-1.935-1.748  c8.1,9.944,7.517,24.604-1.748,33.87l-255.87,255.87l12.504,12.504l255.87-255.871C514.472,42.154,514.472,26.123,504.585,16.236z"/>
<path style="fill:#FAD97E;" d="M191.161,506.947c4.968-33.889,18.303-65.988,42.522-90.207l13.459-13.459  c38.163-38.163,39.271-100.321,1.392-138.766c-38.18-38.751-100.547-38.926-138.946-0.527L95.26,278.317  c-24.219,24.219-56.318,37.554-90.207,42.522c-4.765,0.699-6.775,6.584-3.309,10.049L101.82,430.965  c4.805,4.806,12.185,5.91,18.187,2.721l21.935-11.653c3.791-2.014,8.084,1.667,6.673,5.721l-9.725,27.933  c-1.95,5.601-0.524,11.823,3.669,16.017l38.552,38.552C184.577,513.722,190.463,511.712,191.161,506.947z"/>
<g style="opacity:0.1;">
	<path d="M86.366,342.256c-3.089,0-5.982-1.923-7.071-5.002c-1.381-3.904,0.666-8.19,4.571-9.571   c14.778-5.226,39.688-20.761,50.29-31.363c2.93-2.93,7.679-2.929,10.606-0.001c2.93,2.929,2.93,7.678,0.001,10.606   c-12.252,12.253-38.895,28.888-55.898,34.9C88.04,342.117,87.195,342.256,86.366,342.256z"/>
	<path d="M94.063,390.85c-3.282,0-6.296-2.171-7.221-5.487c-1.112-3.99,1.22-8.126,5.21-9.239   c8.538-2.381,24.787-8.861,32.042-16.117c2.93-2.928,7.678-2.928,10.607,0c2.929,2.93,2.929,7.678,0,10.607   c-10.06,10.06-29.01,17.278-38.62,19.959C95.407,390.76,94.729,390.85,94.063,390.85z"/>
	<path d="M174.504,458.682c-0.792,0-1.598-0.127-2.389-0.395c-3.91-1.324-6.025-5.53-4.72-9.447   c1.021-3.06,6.579-14.735,10.362-20.521c2.269-3.467,6.914-4.441,10.382-2.173c3.467,2.267,4.44,6.915,2.173,10.382   c-3.139,4.799-8.058,15.228-8.689,17.065C180.553,456.706,177.629,458.682,174.504,458.682z"/>
</g>
<path style="fill:#A16B4E;" d="M233.683,416.741l13.459-13.459c4.762-4.762,8.946-9.897,12.55-15.313L123.886,252.163  c-5.039,3.422-9.832,7.36-14.299,11.826L95.26,278.317c-2.177,2.177-4.421,4.264-6.722,6.267l138.878,138.878  C229.419,421.162,231.506,418.918,233.683,416.741z"/>
<path style="opacity:0.1;enable-background:new    ;" d="M250.003,266.047c-2.432-2.289-4.955-4.425-7.549-6.425  c29.588,38.601,25.982,94.39-9.301,129.672l-13.458,13.458c-24.219,24.219-37.554,56.318-42.522,90.207  c-0.698,4.764-6.583,6.774-10.048,3.31l13.987,13.987c3.465,3.465,9.351,1.455,10.049-3.309  c4.968-33.889,18.303-65.988,42.522-90.207l13.459-13.458C284.803,365.621,286.373,304.594,250.003,266.047z"/>
<g>
</g>
<g>
</g>
<g>
</g>
<g>
</g>
<g>
</g>
<g>
</g>
<g>
</g>
<g>
</g>
<g>
</g>
<g>
</g>
<g>
</g>
<g>
</g>
<g>
</g>
<g>
</g>
<g>
</g>
</svg>
