<?xml version="1.0" encoding="iso-8859-1"?>
<!-- Generator: Adobe Illustrator 19.0.0, SVG Export Plug-In . SVG Version: 6.00 Build 0)  -->
<svg xmlns="http://www.w3.org/2000/svg" xmlns:xlink="http://www.w3.org/1999/xlink" version="1.1" id="Capa_1" x="0px" y="0px" viewBox="0 0 512 512" style="enable-background:new 0 0 512 512;" xml:space="preserve">
<path style="fill:#9BD3E0;" d="M266.393,4.067L266.393,4.067c8.514-7.842,22.314-3.79,25.236,7.41l0,0  c2.016,7.726,9.621,12.613,17.486,11.238l0,0c11.402-1.994,20.82,8.875,17.224,19.877l0,0c-2.481,7.589,1.275,15.812,8.635,18.908  l0,0c10.67,4.487,12.717,18.723,3.743,26.034l0,0c-6.19,5.043-7.477,13.991-2.958,20.574l0,0c6.55,9.543,0.576,22.626-10.926,23.925  l0,0c-7.934,0.896-13.854,7.728-13.612,15.709l0,0c0.351,11.57-11.748,19.345-22.126,14.22l0,0  c-7.159-3.536-15.833-0.989-19.944,5.856l0,0c-5.96,9.923-20.342,9.923-26.302,0l0,0c-4.111-6.845-12.785-9.392-19.944-5.856l0,0  c-10.378,5.126-22.477-2.65-22.126-14.22l0,0c0.242-7.981-5.678-14.813-13.612-15.709l0,0  c-11.502-1.299-17.476-14.382-10.926-23.925l0,0c4.518-6.583,3.232-15.531-2.958-20.574l0,0c-8.973-7.311-6.927-21.547,3.743-26.034  l0,0c7.36-3.095,11.116-11.318,8.635-18.908l0,0c-3.596-11.002,5.822-21.872,17.224-19.877l0,0  c7.865,1.375,15.47-3.512,17.486-11.238l0,0c2.923-11.2,16.723-15.252,25.236-7.41l0,0C251.48,9.476,260.52,9.476,266.393,4.067z"/>
<path style="opacity:0.1;enable-background:new    ;" d="M335.759,108.108L335.759,108.108c-1.443-2.102-2.287-4.445-2.576-6.825  C309.711,90.417,283.567,84.342,256,84.342l0,0c-27.566,0-53.711,6.075-77.183,16.941c-0.289,2.38-1.133,4.723-2.576,6.825l0,0  c-6.55,9.543-0.576,22.626,10.926,23.925c7.934,0.896,13.854,7.728,13.612,15.709c-0.351,11.57,11.748,19.345,22.127,14.22  c7.159-3.536,15.833-0.989,19.944,5.856l0,0c5.96,9.923,20.342,9.923,26.302,0l0,0c4.111-6.845,12.785-9.392,19.944-5.856  c10.378,5.126,22.478-2.65,22.126-14.22c-0.242-7.981,5.678-14.813,13.612-15.709C336.335,130.734,342.309,117.651,335.759,108.108z  "/>
<path style="fill:#9BD3E0;" d="M450.96,512H61.04c-17.278,0-31.284-14.006-31.284-31.284v-49.764  c0-17.277,14.006-31.284,31.284-31.284h389.92c17.278,0,31.284,14.006,31.284,31.284v49.764C482.243,497.994,468.237,512,450.96,512  z"/>
<path style="opacity:0.1;enable-background:new    ;" d="M450.96,399.669h-42.298c17.277,0,31.284,14.006,31.284,31.284v49.763  c0,17.277-14.006,31.284-31.284,31.284h42.298c17.277,0,31.284-14.006,31.284-31.284v-49.763  C482.243,413.675,468.237,399.669,450.96,399.669z"/>
<path style="fill:#F2BA5B;" d="M256,106.841L256,106.841c-101.591,0-183.946,82.355-183.946,183.945v108.883h367.891V290.786  C439.946,189.196,357.59,106.841,256,106.841z"/>
<path style="fill:#F15B70;" d="M393.675,337.88c-15.207-15.207-39.863-15.207-55.07,0s-39.863,15.207-55.07,0l0,0  c-15.207-15.207-39.863-15.207-55.07,0l0,0c-15.207,15.207-39.863,15.207-55.07,0s-39.863-15.207-55.07,0  c-12.533,12.533-31.48,14.727-46.27,6.601v55.188h367.891v-55.188C425.155,352.607,406.209,350.414,393.675,337.88z"/>
<path style="opacity:0.1;enable-background:new    ;" d="M256,106.841L256,106.841c-6.123,0-12.174,0.306-18.143,0.891  c93.073,9.113,165.802,87.587,165.802,183.055v78.191H72.054v30.691h367.891V290.786C439.946,189.196,357.59,106.841,256,106.841z"/>
<g style="opacity:0.1;">
	<rect x="82.5" y="399.67" width="15" height="112.33"/>
	<rect x="148.9" y="399.67" width="15" height="112.33"/>
	<rect x="215.3" y="399.67" width="15" height="112.33"/>
	<rect x="281.7" y="399.67" width="15" height="112.33"/>
	<rect x="348.1" y="399.67" width="15" height="112.33"/>
	<rect x="414.5" y="399.67" width="15" height="112.33"/>
</g>
<g>
	<path style="fill:#4A5058;" d="M179.32,255.755c-4.143,0-7.5-3.357-7.5-7.5v-13.079c0-4.143,3.357-7.5,7.5-7.5s7.5,3.357,7.5,7.5   v13.079C186.82,252.398,183.463,255.755,179.32,255.755z"/>
	<path style="fill:#4A5058;" d="M256,280.323L256,280.323c-12.192,0-22.076-9.883-22.076-22.075v-16.171   c0-3.253,2.637-5.89,5.89-5.89h32.371c3.253,0,5.89,2.637,5.89,5.89v16.171C278.076,270.439,268.192,280.323,256,280.323z"/>
	<path style="fill:#4A5058;" d="M332.68,255.755c-4.143,0-7.5-3.357-7.5-7.5v-13.079c0-4.143,3.357-7.5,7.5-7.5s7.5,3.357,7.5,7.5   v13.079C340.18,252.398,336.822,255.755,332.68,255.755z"/>
</g>
<g style="opacity:0.3;">
	<ellipse style="fill:#F15B70;" cx="181.97" cy="276.15" rx="31.69" ry="13.751"/>
	<ellipse style="fill:#F15B70;" cx="330.03" cy="276.15" rx="31.69" ry="13.751"/>
</g>
<g style="opacity:0.1;">
	<circle cx="139.17" cy="189.44" r="7.171"/>
	<circle cx="158.46" cy="160.77" r="7.171"/>
	<circle cx="169.53" cy="185.44" r="7.171"/>
	<circle cx="110.61" cy="341.94" r="7.171"/>
	<circle cx="344.37" cy="173.1" r="7.171"/>
	<circle cx="378.33" cy="370.62" r="7.171"/>
	<circle cx="412.33" cy="356.28" r="7.171"/>
</g>
<g>
</g>
<g>
</g>
<g>
</g>
<g>
</g>
<g>
</g>
<g>
</g>
<g>
</g>
<g>
</g>
<g>
</g>
<g>
</g>
<g>
</g>
<g>
</g>
<g>
</g>
<g>
</g>
<g>
</g>
</svg>
