<?xml version="1.0" encoding="iso-8859-1"?>
<!-- Generator: Adobe Illustrator 19.0.0, SVG Export Plug-In . SVG Version: 6.00 Build 0)  -->
<svg xmlns="http://www.w3.org/2000/svg" xmlns:xlink="http://www.w3.org/1999/xlink" version="1.1" id="Capa_1" x="0px" y="0px" viewBox="0 0 512 512" style="enable-background:new 0 0 512 512;" xml:space="preserve">
<path style="fill:#A16B4E;" d="M506.26,343.988l-51.001-35.373l5.619-13.728c11.848-28.944,5.754-62.456-15.523-85.376  l-61.951-66.736c10.267-5.312,19.289-12.895,26.35-22.339l61.703-82.529c4.412-5.903,3.206-14.264-2.697-18.677  c-5.904-4.413-14.264-3.206-18.677,2.697l-61.704,82.53c-7.586,10.146-18.618,17.036-31.066,19.399l-83.716,15.895  c-32.776,6.222-57.994,31.418-64.247,64.187l-8.891,46.592l-66.576,16.423l-38.132-48.07c-4.579-5.774-12.972-6.741-18.746-2.161  s-6.741,12.973-2.161,18.746l30.551,38.513l-7.773,1.918c-23.158,5.713-40.088,25.519-42.128,49.284l-5.139,59.851  c-0.63,7.343,4.811,13.806,12.153,14.436c0.389,0.034,0.774,0.05,1.156,0.05c6.853,0,12.683-5.249,13.28-12.204l5.139-59.851  c1.062-12.372,9.875-22.681,21.93-25.655l27.907-6.884c0.058-0.014,0.115-0.028,0.173-0.043l62.888-15.514  c-1.791,10.759-0.577,21.746,3.549,31.867l22.13,54.287c2.109,5.176,7.097,8.311,12.361,8.311c1.677,0,3.383-0.319,5.032-0.991  c6.824-2.782,10.101-10.569,7.32-17.393l-22.13-54.287c-2.351-5.769-2.977-12.053-1.809-18.173l14.13-74.05  c4.186-21.937,21.069-38.805,43.011-42.971l76.466-14.518l39.906,42.988l-78.624,73.728c-5.375,5.041-5.647,13.486-0.606,18.861  c2.626,2.801,6.178,4.216,9.737,4.216c3.271,0,6.55-1.196,9.125-3.61l78.526-73.636l12.691,13.672  c14.233,15.332,18.308,37.749,10.383,57.11l-9.6,23.452c-0.002,0.004-0.003,0.007-0.004,0.011l-29.83,72.878  c-2.791,6.821,0.475,14.613,7.294,17.405c1.655,0.677,3.366,0.998,5.05,0.998c5.257,0,10.239-3.127,12.354-8.292l23.461-57.318  l46.146,32.006c2.319,1.609,4.97,2.38,7.594,2.38c4.227,0,8.385-2.004,10.976-5.739C513.82,356.502,512.316,348.188,506.26,343.988z  "/>
<circle style="fill:#F15B70;" cx="63.65" cy="417.279" r="63.65"/>
<circle style="fill:#4A5058;" cx="75.17" cy="449.499" r="13.1"/>
<path style="opacity:0.1;enable-background:new    ;" d="M99.259,364.52c6.872,10.163,10.886,22.417,10.886,35.609  c0,35.152-28.497,63.649-63.649,63.649c-13.192,0-25.446-4.014-35.609-10.886c11.44,16.918,30.802,28.04,52.763,28.04  c35.152,0,63.649-28.497,63.649-63.649C127.298,395.322,116.176,375.96,99.259,364.52z"/>
<circle style="fill:#F15B70;" cx="232.25" cy="397.859" r="63.65"/>
<circle style="fill:#4A5058;" cx="230.38" cy="439.729" r="13.1"/>
<path style="opacity:0.1;enable-background:new    ;" d="M267.86,345.099c6.872,10.163,10.886,22.417,10.886,35.609  c0,35.152-28.497,63.649-63.649,63.649c-13.192,0-25.447-4.014-35.609-10.886c11.44,16.918,30.802,28.04,52.763,28.04  c35.152,0,63.649-28.497,63.649-63.649C295.9,375.902,284.778,356.539,267.86,345.099z"/>
<circle style="fill:#F15B70;" cx="397.12" cy="431.779" r="63.65"/>
<circle style="fill:#4A5058;" cx="374.6" cy="470.319" r="13.1"/>
<path style="opacity:0.1;enable-background:new    ;" d="M432.73,379.015c6.872,10.163,10.886,22.417,10.886,35.609  c0,35.152-28.497,63.649-63.649,63.649c-13.192,0-25.446-4.014-35.609-10.886c11.44,16.918,30.802,28.04,52.763,28.04  c35.152,0,63.649-28.497,63.649-63.649C460.77,409.817,449.648,390.455,432.73,379.015z"/>
<g style="opacity:0.2;">
	<circle cx="28.14" cy="390.389" r="7.469"/>
	<circle cx="20.673" cy="417.279" r="7.469"/>
</g>
<g style="opacity:0.2;">
	<circle cx="438.94" cy="419.449" r="7.469"/>
	<circle cx="438.94" cy="446.319" r="7.469"/>
</g>
<g>
</g>
<g>
</g>
<g>
</g>
<g>
</g>
<g>
</g>
<g>
</g>
<g>
</g>
<g>
</g>
<g>
</g>
<g>
</g>
<g>
</g>
<g>
</g>
<g>
</g>
<g>
</g>
<g>
</g>
</svg>
