<?xml version="1.0" encoding="iso-8859-1"?>
<!-- Generator: Adobe Illustrator 19.0.0, SVG Export Plug-In . SVG Version: 6.00 Build 0)  -->
<svg xmlns="http://www.w3.org/2000/svg" xmlns:xlink="http://www.w3.org/1999/xlink" version="1.1" id="Capa_1" x="0px" y="0px" viewBox="0 0 512 512" style="enable-background:new 0 0 512 512;" xml:space="preserve">
<path style="fill:#FC8063;" d="M169.288,280.433c-3.183-0.133-5.835-2.482-6.353-5.625l-3.17-19.243  c-0.786-4.773-6.49-6.849-10.161-3.698l-14.798,12.704c-2.417,2.075-5.958,2.169-8.482,0.226l-11.438-8.809  c-3.85-2.965-9.46-0.552-9.955,4.282l-3.775,36.861c-0.243,2.377-3.375,3.071-4.6,1.02L75.533,262.95  c-2.492-4.172-8.596-3.988-10.832,0.326l-6.643,12.817c-1.466,2.828-4.715,4.24-7.783,3.381l-18.78-5.26  c-4.658-1.305-8.95,2.988-7.646,7.646l5.26,18.78c0.859,3.068-0.552,6.317-3.381,7.783l-12.817,6.643  c-4.315,2.236-4.498,8.34-0.326,10.832l35.201,21.023c2.051,1.225,1.357,4.357-1.02,4.6l-36.861,3.775  c-4.834,0.495-7.248,6.105-4.282,9.955l8.809,11.438c1.944,2.524,1.85,6.065-0.225,8.482L1.503,399.968  c-3.151,3.67-1.075,9.374,3.698,10.161l19.243,3.17c3.143,0.518,5.492,3.17,5.625,6.353l0.604,14.424  c0.203,4.855,5.658,7.602,9.68,4.873l24.195-16.414c1.448-0.982,3.398,0.091,3.344,1.839l-0.344,11.172  c-0.155,5.021,5.411,8.133,9.608,5.373l68.409-44.99l44.99-68.409c2.76-4.197-0.352-9.763-5.373-9.608l-11.172,0.344  c-1.748,0.054-2.821-1.897-1.839-3.344l16.414-24.195c2.728-4.022-0.018-9.476-4.874-9.68L169.288,280.433z"/>
<path style="opacity:0.05;enable-background:new    ;" d="M119.344,275.73l11.115-9.542c-1.454,0.007-2.913-0.452-4.134-1.392  l-11.438-8.809c-3.85-2.965-9.46-0.552-9.955,4.282l-1.027,10.032l7.329,5.644C113.646,277.804,117.033,277.714,119.344,275.73z   M169.288,280.433c-3.183-0.133-5.835-2.482-6.353-5.625l-3.17-19.243c-0.786-4.773-6.49-6.849-10.161-3.698l-11.985,10.289  c2.632,0.129,5.1,2.002,5.588,4.964l3.031,18.4c0.495,3.005,3.031,5.251,6.075,5.378l13.791,0.578  c4.643,0.194,7.268,5.41,4.66,9.255l-15.694,23.134c-0.939,1.384,0.087,3.249,1.758,3.198l10.682-0.329  c4.801-0.148,7.777,5.174,5.138,9.187l-34.55,52.542l7.468,7.468l44.99-68.409c2.76-4.197-0.352-9.763-5.373-9.608l-11.172,0.344  c-1.748,0.054-2.821-1.897-1.839-3.344l16.414-24.195c2.728-4.022-0.018-9.476-4.874-9.68L169.288,280.433z"/>
<path style="fill:#A16B4E;" d="M176.724,416.48l-44.866-44.866l12.82-64.577c0.807-4.063-1.833-8.01-5.896-8.816  c-4.06-0.806-8.01,1.832-8.817,5.896l-10.867,54.737l-34.481-34.481c-2.929-2.928-7.678-2.928-10.607,0  c-2.929,2.93-2.929,7.678,0,10.607l34.48,34.481l-54.738,10.867c-4.063,0.807-6.703,4.754-5.896,8.816  c0.708,3.57,3.842,6.041,7.349,6.041c0.484,0,0.975-0.047,1.468-0.144l64.576-12.82l44.867,44.867  c1.464,1.464,3.384,2.196,5.303,2.196c1.919,0,3.839-0.732,5.303-2.196C179.653,424.158,179.653,419.41,176.724,416.48z"/>
<path style="opacity:0.1;enable-background:new    ;" d="M185.182,317.912l-11.172,0.344c-1.748,0.054-2.821-1.897-1.839-3.344  l16.414-24.195c2.728-4.022-0.018-9.476-4.873-9.68l-14.424-0.604c-3.183-0.133-5.835-2.482-6.353-5.625l-3.17-19.243  c-0.786-4.773-6.49-6.849-10.161-3.698l-14.798,12.704c-2.417,2.075-5.958,2.169-8.482,0.225l-11.438-8.809  c-3.85-2.965-9.46-0.552-9.955,4.282l-3.775,36.861c-0.243,2.377-3.375,3.071-4.6,1.02l-21.023-35.201  c-2.492-4.172-8.596-3.988-10.832,0.326l-3.178,6.132v108.575c0,10.899,8.836,19.735,19.735,19.735h61.59l2.717-1.787l44.99-68.409  C193.316,323.323,190.203,317.757,185.182,317.912z"/>
<path style="fill:#E8E8E8;" d="M396.471,397.716H96.267c-10.899,0-19.735-8.836-19.735-19.735V119.359  c0-10.899,8.836-19.735,19.735-19.735h300.204c10.899,0,19.735,8.836,19.735,19.735v258.622  C416.206,388.881,407.371,397.716,396.471,397.716z"/>
<path style="fill:#FFFFFF;" d="M350.792,314.093H141.947c-4.795,0-8.683,3.887-8.683,8.683v25.063c0,4.795,3.887,8.683,8.683,8.683  h208.845c4.795,0,8.683-3.887,8.683-8.683v-25.063C359.474,317.98,355.587,314.093,350.792,314.093z"/>
<path style="fill:#F2BA5B;" d="M416.206,169.306H76.532v-49.947c0-10.899,8.836-19.735,19.735-19.735h300.204  c10.899,0,19.735,8.836,19.735,19.735V169.306z"/>
<path style="opacity:0.1;enable-background:new    ;" d="M396.471,99.624H376.55c10.899,0,19.735,8.836,19.735,19.735v258.622  c0,10.899-8.836,19.735-19.735,19.735h19.921c10.899,0,19.735-8.836,19.735-19.735V119.359  C416.206,108.459,407.371,99.624,396.471,99.624z"/>
<rect x="76.53" y="169.309" style="opacity:0.1;enable-background:new    ;" width="339.67" height="18.557"/>
<path style="fill:#A16B4E;" d="M155.968,134.465L155.968,134.465c-14.556,0-26.357-11.8-26.357-26.357V66.831  c0-14.556,11.8-26.357,26.357-26.357l0,0c14.556,0,26.357,11.8,26.357,26.357v41.277  C182.325,122.664,170.525,134.465,155.968,134.465z"/>
<path style="opacity:0.1;enable-background:new    ;" d="M155.968,40.474L155.968,40.474c-1.957,0-3.861,0.22-5.697,0.624  c11.817,2.605,20.66,13.133,20.66,25.733v41.277c0,12.6-8.843,23.128-20.66,25.732c1.835,0.405,3.74,0.624,5.697,0.624l0,0  c14.556,0,26.357-11.8,26.357-26.357V66.831C182.325,52.274,170.525,40.474,155.968,40.474z"/>
<path style="fill:#A16B4E;" d="M336.77,134.465L336.77,134.465c14.556,0,26.357-11.8,26.357-26.357V66.831  c0-14.556-11.8-26.357-26.357-26.357l0,0c-14.556,0-26.357,11.8-26.357,26.357v41.277  C310.414,122.664,322.214,134.465,336.77,134.465z"/>
<path style="opacity:0.1;enable-background:new    ;" d="M336.77,40.474L336.77,40.474c-1.957,0-3.861,0.22-5.697,0.624  c11.817,2.605,20.66,13.133,20.66,25.733v41.277c0,12.6-8.843,23.128-20.66,25.732c1.835,0.405,3.74,0.624,5.697,0.624l0,0  c14.556,0,26.357-11.8,26.357-26.357V66.831C363.127,52.274,351.327,40.474,336.77,40.474z"/>
<g>
	<path style="fill:#4A5058;" d="M177.173,244.973c-4.142,0-7.5-3.357-7.5-7.5v-11.802c0-4.143,3.358-7.5,7.5-7.5s7.5,3.357,7.5,7.5   v11.802C184.673,241.615,181.315,244.973,177.173,244.973z"/>
	<path style="fill:#4A5058;" d="M246.369,266.411L246.369,266.411c-11.002,0-19.921-8.919-19.921-19.921v-14.593   c0-2.936,2.38-5.315,5.315-5.315h29.211c2.936,0,5.315,2.38,5.315,5.315v14.593C266.29,257.492,257.371,266.411,246.369,266.411z"/>
	<path style="fill:#4A5058;" d="M315.565,244.973c-4.142,0-7.5-3.357-7.5-7.5v-11.802c0-4.143,3.358-7.5,7.5-7.5s7.5,3.357,7.5,7.5   v11.802C323.065,241.615,319.707,244.973,315.565,244.973z"/>
</g>
<g style="opacity:0.3;">
	<ellipse style="fill:#F15B70;" cx="179.56" cy="262.649" rx="28.598" ry="12.408"/>
	<ellipse style="fill:#F15B70;" cx="313.18" cy="262.649" rx="28.598" ry="12.408"/>
</g>
<path style="fill:#FC8063;" d="M481.931,449.224c0.133-3.183,2.482-5.835,5.625-6.353l19.243-3.17  c4.773-0.786,6.849-6.49,3.698-10.161l-12.704-14.797c-2.075-2.417-2.169-5.959-0.225-8.482l8.809-11.438  c2.965-3.85,0.552-9.46-4.282-9.955l-36.861-3.775c-2.377-0.243-3.071-3.375-1.02-4.6l35.201-21.023  c4.172-2.492,3.988-8.596-0.326-10.832l-12.817-6.643c-2.828-1.466-4.24-4.715-3.381-7.783l5.26-18.78  c1.305-4.658-2.988-8.95-7.646-7.646l-18.78,5.26c-3.068,0.859-6.317-0.552-7.783-3.38l-6.643-12.817  c-2.236-4.315-8.34-4.498-10.832-0.326l-21.023,35.201c-1.225,2.051-4.357,1.357-4.6-1.02l-3.775-36.861  c-0.495-4.834-6.105-7.248-9.955-4.282l-11.438,8.809c-2.524,1.944-6.065,1.85-8.482-0.225l-14.798-12.704  c-3.67-3.151-9.374-1.075-10.161,3.698l-3.17,19.243c-0.518,3.143-3.17,5.492-6.353,5.625l-14.424,0.604  c-4.855,0.203-7.602,5.658-4.874,9.68l16.414,24.195c0.982,1.447-0.091,3.398-1.839,3.344l-11.172-0.344  c-5.021-0.154-8.133,5.411-5.373,9.608l44.99,68.41l68.41,44.99c4.197,2.76,9.762-0.352,9.608-5.373l-0.344-11.172  c-0.054-1.748,1.897-2.821,3.344-1.839l24.195,16.414c4.022,2.728,9.476-0.018,9.679-4.873L481.931,449.224z"/>
<path style="opacity:0.05;enable-background:new    ;" d="M486.634,399.28l9.542,11.115c-0.007-1.454,0.452-2.913,1.392-4.134  l8.809-11.438c2.965-3.85,0.552-9.46-4.282-9.955l-10.032-1.027l-5.644,7.329C484.559,393.583,484.649,396.969,486.634,399.28z   M481.931,449.224c0.133-3.183,2.482-5.835,5.625-6.353l19.243-3.17c4.773-0.786,6.849-6.49,3.698-10.161l-10.289-11.985  c-0.129,2.632-2.002,5.1-4.964,5.588l-18.4,3.031c-3.005,0.495-5.251,3.031-5.379,6.075l-0.578,13.791  c-0.194,4.643-5.41,7.268-9.255,4.66L438.5,435.006c-1.384-0.939-3.249,0.087-3.198,1.758l0.329,10.682  c0.148,4.801-5.174,7.777-9.187,5.138l-52.542-34.55l-7.468,7.468l68.41,44.99c4.197,2.76,9.762-0.352,9.608-5.373l-0.344-11.172  c-0.054-1.748,1.897-2.821,3.344-1.839l24.195,16.414c4.022,2.728,9.476-0.018,9.679-4.874L481.931,449.224z"/>
<path style="fill:#A16B4E;" d="M458.247,409.901l-54.738-10.866l34.481-34.481c2.929-2.93,2.929-7.678,0-10.607  c-2.929-2.928-7.678-2.928-10.606,0l-34.481,34.482l-10.866-54.737c-0.807-4.063-4.752-6.702-8.817-5.897  c-4.063,0.807-6.703,4.754-5.896,8.816l12.82,64.577l-44.866,44.866c-2.929,2.93-2.929,7.678,0,10.607  c1.464,1.464,3.384,2.196,5.303,2.196s3.839-0.732,5.303-2.196l44.866-44.866l64.577,12.819c0.493,0.098,0.984,0.145,1.468,0.145  c3.506,0,6.64-2.471,7.349-6.041C464.949,414.655,462.31,410.708,458.247,409.901z"/>
<g>
</g>
<g>
</g>
<g>
</g>
<g>
</g>
<g>
</g>
<g>
</g>
<g>
</g>
<g>
</g>
<g>
</g>
<g>
</g>
<g>
</g>
<g>
</g>
<g>
</g>
<g>
</g>
<g>
</g>
</svg>
