<?xml version="1.0" encoding="iso-8859-1"?>
<!-- Generator: Adobe Illustrator 19.0.0, SVG Export Plug-In . SVG Version: 6.00 Build 0)  -->
<svg xmlns="http://www.w3.org/2000/svg" xmlns:xlink="http://www.w3.org/1999/xlink" version="1.1" id="Capa_1" x="0px" y="0px" viewBox="0 0 511.999 511.999" style="enable-background:new 0 0 511.999 511.999;" xml:space="preserve">
<path style="fill:#4A5058;" d="M310.969,511.999c-43.462,0-78.82-35.359-78.82-78.821V325.161c0-4.142,3.357-7.5,7.5-7.5  s7.5,3.358,7.5,7.5v108.017c0,35.191,28.63,63.821,63.82,63.821c35.191,0,63.82-28.63,63.82-63.821v-153.64  c-0.004-26.208,8.286-51.111,23.975-72.018c2.486-3.314,7.188-3.983,10.501-1.498c3.313,2.486,3.983,7.188,1.497,10.501  c-13.724,18.288-20.977,40.078-20.973,63.014v153.641C389.789,476.64,354.431,511.999,310.969,511.999z"/>
<path style="fill:#9BD3E0;" d="M382.532,153.53l-117.26,194.39c-11.636,19.29-39.61,19.29-51.247,0l-117.26-194.39  c-7.34-12.168-5.11-27.819,5.335-37.453L219.36,7.927c11.46-10.57,29.116-10.57,40.576,0l117.26,108.15  C387.642,125.711,389.871,141.363,382.532,153.53z"/>
<g style="opacity:0.1;">
	<path d="M239.648,300.902c-4.143,0-7.5-3.358-7.5-7.5v-81.38c0-4.142,3.357-7.5,7.5-7.5s7.5,3.358,7.5,7.5v81.38   C247.148,297.544,243.791,300.902,239.648,300.902z"/>
	<path d="M239.648,93.768c-4.143,0-7.5-3.358-7.5-7.5V49.544c0-4.142,3.357-7.5,7.5-7.5s7.5,3.358,7.5,7.5v36.724   C247.148,90.41,243.791,93.768,239.648,93.768z"/>
	<path d="M144.773,145.051h-22.66c-4.143,0-7.5-3.358-7.5-7.5s3.357-7.5,7.5-7.5h22.66c4.143,0,7.5,3.358,7.5,7.5   S148.916,145.051,144.773,145.051z"/>
	<path d="M357.183,145.051h-22.66c-4.143,0-7.5-3.358-7.5-7.5s3.357-7.5,7.5-7.5h22.66c4.143,0,7.5,3.358,7.5,7.5   S361.325,145.051,357.183,145.051z"/>
</g>
<path style="opacity:0.05;enable-background:new    ;" d="M377.196,116.077L259.936,7.926c-9.337-8.611-22.785-10.205-33.646-4.785  c2.47,1.233,4.807,2.826,6.93,4.785l117.26,108.15c10.446,9.634,12.675,25.286,5.335,37.453l-117.26,194.39  c-3.121,5.175-7.424,8.947-12.266,11.346c13.208,6.543,30.466,2.77,38.981-11.346l117.26-194.39  C389.871,141.363,387.642,125.711,377.196,116.077z"/>
<path style="fill:#F15B70;" d="M378.587,309.635l-16.466-13.782c-6.786-5.68-17.116-0.855-17.116,7.994v31.302  c0,8.849,10.33,13.674,17.116,7.994l16.466-13.782c2.132-1.784,5.235-1.784,7.367,0l16.467,13.782  c6.786,5.679,17.116,0.855,17.116-7.994v-31.302c0-8.849-10.33-13.674-17.116-7.994l-16.467,13.782  C383.822,311.419,380.718,311.419,378.587,309.635z"/>
<path style="opacity:0.1;enable-background:new    ;" d="M405.241,294.151c3.719,1.474,6.601,5.023,6.601,9.696v31.302  c0,4.674-2.882,8.223-6.601,9.696c6.496,2.638,14.294-2.008,14.294-9.696v-31.302C419.535,296.158,411.737,291.512,405.241,294.151z  "/>
<path style="fill:#F15B70;" d="M378.587,381.425l-16.466-13.782c-6.786-5.679-17.116-0.855-17.116,7.994v31.302  c0,8.849,10.33,13.674,17.116,7.994l16.466-13.782c2.132-1.784,5.235-1.784,7.367,0l16.467,13.782  c6.786,5.679,17.116,0.855,17.116-7.994v-31.302c0-8.849-10.33-13.674-17.116-7.994l-16.467,13.782  C383.822,383.209,380.718,383.209,378.587,381.425z"/>
<path style="opacity:0.1;enable-background:new    ;" d="M405.241,365.941c3.719,1.474,6.601,5.023,6.601,9.697v31.302  c0,4.673-2.882,8.223-6.601,9.696c6.496,2.638,14.294-2.008,14.294-9.696v-31.302C419.535,367.949,411.737,363.303,405.241,365.941z  "/>
<g>
	<path style="fill:#4A5058;" d="M192.791,145.202c-4.143,0-7.5-3.358-7.5-7.5v-7.778c0-4.142,3.357-7.5,7.5-7.5s7.5,3.358,7.5,7.5   v7.778C200.291,141.844,196.934,145.202,192.791,145.202z"/>
	<path style="fill:#4A5058;" d="M286.505,145.202c-4.143,0-7.5-3.358-7.5-7.5v-7.778c0-4.142,3.357-7.5,7.5-7.5s7.5,3.358,7.5,7.5   v7.778C294.005,141.844,290.647,145.202,286.505,145.202z"/>
	<path style="fill:#4A5058;" d="M239.648,151.175c-6.902,0-13.467-2.989-18.009-8.201c-2.722-3.123-2.396-7.86,0.727-10.582   c3.122-2.721,7.859-2.397,10.582,0.727c1.692,1.942,4.135,3.056,6.7,3.056s5.007-1.114,6.699-3.056   c2.722-3.122,7.46-3.448,10.582-0.727c3.122,2.722,3.448,7.459,0.727,10.582C253.114,148.186,246.551,151.175,239.648,151.175z"/>
</g>
<g style="opacity:0.3;">
	<ellipse style="fill:#F15B70;" cx="192.789" cy="157.059" rx="20.06" ry="8.703"/>
	<ellipse style="fill:#F15B70;" cx="286.509" cy="157.059" rx="20.06" ry="8.703"/>
</g>
<g>
</g>
<g>
</g>
<g>
</g>
<g>
</g>
<g>
</g>
<g>
</g>
<g>
</g>
<g>
</g>
<g>
</g>
<g>
</g>
<g>
</g>
<g>
</g>
<g>
</g>
<g>
</g>
<g>
</g>
</svg>
