<?xml version="1.0" encoding="iso-8859-1"?>
<!-- Generator: Adobe Illustrator 19.0.0, SVG Export Plug-In . SVG Version: 6.00 Build 0)  -->
<svg xmlns="http://www.w3.org/2000/svg" xmlns:xlink="http://www.w3.org/1999/xlink" version="1.1" id="Capa_1" x="0px" y="0px" viewBox="0 0 512 512" style="enable-background:new 0 0 512 512;" xml:space="preserve">
<path style="fill:#F2BA5B;" d="M192.291,419.437c-1.916,0-3.862-0.274-5.792-0.848l-81.269-24.2  c-30.633-9.121-56.922-27.486-76.027-53.11C10.098,315.656,0,285.219,0,253.257c0-34,27.662-61.662,61.662-61.662h93.923  c11.191,0,20.264,9.073,20.264,20.264s-9.073,20.264-20.264,20.264H61.662c-11.653,0-21.134,9.481-21.134,21.134  c0,23.165,7.319,45.226,21.166,63.797c13.846,18.571,32.9,31.881,55.102,38.493l81.269,24.2  c10.726,3.194,16.832,14.478,13.638,25.204C209.084,413.748,201.022,419.437,192.291,419.437z"/>
<path style="opacity:0.1;enable-background:new    ;" d="M175.849,211.859c0-11.191-9.073-20.264-20.264-20.264H99.851v12.267  c0,9.439,0.244,18.862,0.718,28.261h55.016C166.776,232.123,175.849,223.051,175.849,211.859z M198.065,379.747l-76.967-22.919  c4.491,15.854,9.697,31.506,15.573,46.923l49.829,14.838c1.929,0.575,3.876,0.848,5.792,0.848c8.732,0,16.793-5.689,19.412-14.486  C214.897,394.225,208.792,382.941,198.065,379.747z"/>
<path style="fill:#F2BA5B;" d="M405.487,501.282H232.815c-13.436,0-25.842-7.198-32.51-18.862l0,0  c-48.494-84.828-74.003-180.846-74.003-278.557v-32.427c0-16.874,13.679-30.553,30.553-30.553h324.592  c16.874,0,30.553,13.679,30.553,30.553v32.427c0,97.711-25.509,193.729-74.003,278.557l0,0  C431.329,494.084,418.923,501.282,405.487,501.282z"/>
<g>
	<path style="fill:#4A5058;" d="M237.814,225.867c-4.142,0-7.5-3.358-7.5-7.5v-13.501c0-4.142,3.358-7.5,7.5-7.5s7.5,3.358,7.5,7.5   v13.501C245.314,222.509,241.956,225.867,237.814,225.867z"/>
	<path style="fill:#4A5058;" d="M400.487,225.867c-4.142,0-7.5-3.358-7.5-7.5v-13.501c0-4.142,3.358-7.5,7.5-7.5s7.5,3.358,7.5,7.5   v13.501C407.987,222.509,404.629,225.867,400.487,225.867z"/>
	<path style="fill:#4A5058;" d="M319.151,236.235c-10.385,0-20.262-4.499-27.098-12.342c-2.722-3.123-2.396-7.86,0.726-10.582   s7.86-2.397,10.582,0.726c3.987,4.574,9.742,7.197,15.79,7.197c6.049,0,11.804-2.623,15.79-7.197   c2.721-3.123,7.458-3.448,10.581-0.726c3.123,2.721,3.448,7.459,0.726,10.582C339.414,231.736,329.537,236.235,319.151,236.235z"/>
</g>
<g style="opacity:0.3;">
	<ellipse style="fill:#F15B70;" cx="237.81" cy="251.98" rx="34.816" ry="15.11"/>
	<ellipse style="fill:#F15B70;" cx="400.49" cy="251.98" rx="34.816" ry="15.11"/>
</g>
<path style="fill:#9BD3E0;" d="M174.052,430.361c7.827,17.746,16.574,35.128,26.252,52.058l0,0  c6.668,11.664,19.074,18.863,32.51,18.863h172.671c13.436,0,25.842-7.198,32.51-18.863l0,0c9.678-16.93,18.425-34.312,26.252-52.058  L174.052,430.361L174.052,430.361z"/>
<path style="opacity:0.1;enable-background:new    ;" d="M481.447,140.882h-56.454c16.874,0,30.553,13.679,30.553,30.553v32.427  c0,97.711-25.509,193.729-74.003,278.557l0,0c-6.668,11.664-19.075,18.862-32.511,18.862h56.454c13.436,0,25.842-7.198,32.51-18.862  l0,0C486.491,397.591,512,301.573,512,203.862v-32.427C512,154.561,498.321,140.882,481.447,140.882z"/>
<path style="fill:#8CC4B1;" d="M389.23,357.895c-13.74,13.74-35.826,15.483-47.785,15.3c-4.861-0.075-8.773-3.986-8.847-8.847  c-0.183-11.959,1.56-34.045,15.3-47.785c13.74-13.74,35.826-15.483,47.785-15.3c4.861,0.074,8.773,3.986,8.847,8.847  C404.713,322.07,402.97,344.156,389.23,357.895z"/>
<path style="opacity:0.1;enable-background:new    ;" d="M404.53,310.111c-0.069-4.498-3.424-8.175-7.775-8.761  c0.047,0.352,0.081,0.708,0.087,1.072c0.183,11.959-1.56,34.045-15.299,47.785c-13.74,13.74-35.826,15.483-47.785,15.299  c-0.364-0.006-0.72-0.039-1.072-0.087c0.585,4.351,4.263,7.706,8.76,7.775c11.959,0.183,34.045-1.56,47.785-15.3  C402.97,344.156,404.713,322.07,404.53,310.111z"/>
<path style="fill:#8CC4B1;" d="M249.072,357.895c13.74,13.74,35.826,15.483,47.785,15.3c4.861-0.075,8.773-3.986,8.847-8.847  c0.183-11.959-1.56-34.045-15.3-47.785c-13.74-13.74-35.826-15.483-47.785-15.3c-4.861,0.074-8.773,3.986-8.847,8.847  C233.589,322.07,235.333,344.156,249.072,357.895z"/>
<path style="opacity:0.1;enable-background:new    ;" d="M233.773,310.111c0.069-4.498,3.424-8.175,7.775-8.761  c-0.047,0.352-0.081,0.708-0.087,1.072c-0.183,11.959,1.56,34.045,15.3,47.785c13.74,13.74,35.826,15.483,47.785,15.299  c0.364-0.006,0.72-0.039,1.072-0.087c-0.585,4.351-4.263,7.706-8.76,7.775c-11.959,0.183-34.045-1.56-47.785-15.3  C235.333,344.156,233.589,322.07,233.773,310.111z"/>
<path style="fill:#A16B4E;" d="M373.867,331.926c-2.929-2.929-7.678-2.929-10.606,0l-44.109,44.109l-44.109-44.109  c-2.929-2.929-7.678-2.929-10.606,0c-2.929,2.929-2.929,7.678,0,10.606l49.413,49.413c1.464,1.464,3.384,2.197,5.303,2.197  s3.839-0.732,5.303-2.197l49.413-49.413C376.796,339.603,376.796,334.854,373.867,331.926z"/>
<g>
	<path style="fill:#DBDCDD;" d="M239.966,120.875c-1.126,0-2.268-0.254-3.343-0.791c-3.707-1.85-5.212-6.354-3.361-10.06   c5.478-10.975,3.49-24.331-4.946-33.235c-8.466-8.936-12.753-20.627-12.072-32.917c0.681-12.291,6.233-23.436,15.635-31.382   c3.163-2.674,7.895-2.278,10.569,0.887c2.674,3.163,2.277,7.896-0.887,10.569c-6.218,5.256-9.89,12.627-10.341,20.756   c-0.45,8.128,2.385,15.86,7.985,21.77c12.754,13.463,15.759,33.657,7.477,50.25C245.369,119.354,242.719,120.875,239.966,120.875z"/>
	<path style="fill:#DBDCDD;" d="M325.356,120.875c-1.125,0-2.268-0.254-3.343-0.791c-3.707-1.85-5.211-6.354-3.361-10.06   c5.478-10.975,3.49-24.331-4.946-33.235c-8.466-8.936-12.753-20.627-12.072-32.917c0.681-12.291,6.233-23.436,15.635-31.382   c3.163-2.674,7.896-2.278,10.569,0.887c2.674,3.163,2.277,7.896-0.887,10.569c-6.218,5.256-9.89,12.627-10.341,20.756   c-0.45,8.128,2.385,15.86,7.985,21.77c12.754,13.463,15.759,33.657,7.477,50.25C330.76,119.354,328.109,120.875,325.356,120.875z"/>
	<path style="fill:#DBDCDD;" d="M410.747,120.875c-1.125,0-2.268-0.254-3.343-0.791c-3.707-1.85-5.211-6.354-3.361-10.06   c5.477-10.975,3.49-24.331-4.946-33.235c-8.466-8.936-12.753-20.627-12.072-32.917c0.681-12.291,6.233-23.436,15.635-31.382   c3.163-2.674,7.895-2.278,10.569,0.887c2.674,3.163,2.277,7.896-0.887,10.569c-6.218,5.256-9.89,12.627-10.341,20.756   c-0.45,8.128,2.385,15.86,7.985,21.77c12.754,13.463,15.759,33.657,7.477,50.25C416.15,119.354,413.5,120.875,410.747,120.875z"/>
</g>
<g>
</g>
<g>
</g>
<g>
</g>
<g>
</g>
<g>
</g>
<g>
</g>
<g>
</g>
<g>
</g>
<g>
</g>
<g>
</g>
<g>
</g>
<g>
</g>
<g>
</g>
<g>
</g>
<g>
</g>
</svg>
