<?xml version="1.0" encoding="iso-8859-1"?>
<!-- Generator: Adobe Illustrator 19.0.0, SVG Export Plug-In . SVG Version: 6.00 Build 0)  -->
<svg xmlns="http://www.w3.org/2000/svg" xmlns:xlink="http://www.w3.org/1999/xlink" version="1.1" id="Capa_1" x="0px" y="0px" viewBox="0 0 512 512" style="enable-background:new 0 0 512 512;" xml:space="preserve">
<path style="fill:#A16B4E;" d="M46.189,408.338l18.621-18.621l-43.951-43.951L2.238,364.387c-2.984,2.984-2.984,7.822,0,10.806  l33.145,33.145C38.367,411.322,43.205,411.322,46.189,408.338z"/>
<rect x="32.757" y="340.837" transform="matrix(-0.7071 0.7071 -0.7071 -0.7071 328.9827 607.5639)" style="opacity:0.1;enable-background:new    ;" width="11.807" height="62.159"/>
<path style="fill:#9BD3E0;" d="M492.092,326.313L371.915,205.772c-12.008-12.045-28.317-18.814-45.325-18.814l0,0  c-10.047,0-15.775-11.611-9.533-19.484c12.159-15.336,19.512-35.302,19.512-57.139c0-48.379-36.072-87.597-80.57-87.597  s-80.57,39.219-80.57,87.597c0,21.837,7.353,41.803,19.512,57.139c6.242,7.873,0.515,19.484-9.533,19.484l0,0  c-17.008,0-33.317,6.77-45.325,18.814L19.908,326.313c-5.109,5.109-5.109,13.393,0,18.503l45.852,45.852  c5.109,5.109,13.393,5.109,18.503,0l56.243-56.243c1.866-1.866,5.057-0.544,5.057,2.095v105.448  c0,10.884,8.823,19.707,19.707,19.707h181.459c10.884,0,19.707-8.823,19.707-19.707V336.519c0-2.639,3.191-3.961,5.057-2.095  l56.243,56.243c5.109,5.109,13.393,5.109,18.503,0l45.852-45.852C497.201,339.706,497.201,331.422,492.092,326.313z"/>
<ellipse style="opacity:0.1;enable-background:new    ;" cx="256" cy="116.948" rx="53.01" ry="64.24"/>
<g>
	<path style="fill:#A16B4E;" d="M465.811,408.338l-18.621-18.621l43.951-43.951l18.621,18.621c2.984,2.984,2.984,7.822,0,10.806   l-33.145,33.145C473.633,411.322,468.795,411.322,465.811,408.338z"/>
	<path style="fill:#A16B4E;" d="M338.609,489.259H173.391c-3.898,0-7.059-3.16-7.059-7.059v-20.525h179.335V482.2   C345.667,486.099,342.507,489.259,338.609,489.259z"/>
</g>
<g>
	<path style="fill:#4A5058;" d="M219.63,252.361c-4.142,0-7.5-3.358-7.5-7.5v-49.636c0-4.142,3.358-7.5,7.5-7.5s7.5,3.358,7.5,7.5   v49.636C227.13,249.003,223.772,252.361,219.63,252.361z"/>
	<path style="fill:#4A5058;" d="M292.37,252.361c-4.143,0-7.5-3.358-7.5-7.5v-49.636c0-4.142,3.357-7.5,7.5-7.5s7.5,3.358,7.5,7.5   v49.636C299.87,249.003,296.513,252.361,292.37,252.361z"/>
</g>
<path style="opacity:0.1;enable-background:new    ;" d="M358.587,422.959c-23.911,0-44.216-15.41-51.54-36.839  c-2.879-8.424-10.622-14.213-19.525-14.213h-63.044c-8.903,0-16.645,5.789-19.525,14.213c-7.324,21.43-27.629,36.839-51.54,36.839  c-2.667,0-5.286-0.201-7.85-0.571v19.58c0,10.884,8.823,19.707,19.707,19.707h181.459c10.884,0,19.707-8.823,19.707-19.707v-19.58  C363.873,422.758,361.254,422.959,358.587,422.959z"/>
<g style="opacity:0.1;">
	<rect x="248.5" y="461.678" width="15" height="27.584"/>
	<rect x="216.93" y="461.678" width="15" height="27.584"/>
	<rect x="185.35" y="461.678" width="15" height="27.584"/>
	<rect x="280.07" y="461.678" width="15" height="27.584"/>
	<rect x="311.65" y="461.678" width="15" height="27.584"/>
</g>
<rect x="166.33" y="461.678" style="opacity:0.1;enable-background:new    ;" width="179.34" height="11.17"/>
<rect x="467.44" y="340.842" transform="matrix(0.7071 0.7071 -0.7071 0.7071 401.6278 -225.7709)" style="opacity:0.1;enable-background:new    ;" width="11.807" height="62.159"/>
<g>
</g>
<g>
</g>
<g>
</g>
<g>
</g>
<g>
</g>
<g>
</g>
<g>
</g>
<g>
</g>
<g>
</g>
<g>
</g>
<g>
</g>
<g>
</g>
<g>
</g>
<g>
</g>
<g>
</g>
</svg>
