<?xml version="1.0" encoding="iso-8859-1"?>
<!-- Generator: Adobe Illustrator 19.0.0, SVG Export Plug-In . SVG Version: 6.00 Build 0)  -->
<svg xmlns="http://www.w3.org/2000/svg" xmlns:xlink="http://www.w3.org/1999/xlink" version="1.1" id="Capa_1" x="0px" y="0px" viewBox="0 0 511.999 511.999" style="enable-background:new 0 0 511.999 511.999;" xml:space="preserve">
<path style="fill:#F2BA5B;" d="M255.999,472.022c64.92,0,117.549-17.154,117.549-148.243S320.92,46.588,255.999,46.588  S138.451,192.69,138.451,323.779S191.079,472.022,255.999,472.022z"/>
<path style="opacity:0.05;enable-background:new    ;" d="M255.999,46.588c-0.812,0-1.62,0.04-2.428,0.085  c44.62,23.942,80.158,114.833,91.124,210.756c-22.644,14.003-45.344,32.076-64.215,55.192  c-9.412,11.529-17.597,23.368-24.481,35.153c-6.883-11.786-15.069-23.624-24.481-35.153c-25.265-30.948-57.394-52.865-87.062-68.065  c-3.893,26.148-6.007,52.985-6.007,79.222c0,131.089,52.629,148.243,117.549,148.243s117.549-17.154,117.549-148.243  S320.92,46.588,255.999,46.588z"/>
<path style="fill:#93C8C0;" d="M78.699,255.152c0.804-16.305,18.153-26.321,32.675-18.865  c34.563,17.746,91.377,53.83,124.954,111.988c39.259,67.998,43.523,139.034,9.523,158.664  c-33.999,19.629-93.386-19.581-132.645-87.579C79.629,361.201,76.786,293.957,78.699,255.152z"/>
<path style="opacity:0.1;enable-background:new    ;" d="M78.699,255.152c0.804-16.305,18.153-26.321,32.675-18.865  c34.563,17.746,91.377,53.83,124.954,111.988c39.259,67.998,43.523,139.034,9.523,158.664  c-33.999,19.629-93.386-19.581-132.645-87.579C79.629,361.201,76.786,293.957,78.699,255.152z"/>
<path style="opacity:0.1;enable-background:new    ;" d="M248.46,371.744c-26.771,58.373-27.461,114.368,0,133.524  C275.921,486.112,275.232,430.117,248.46,371.744z"/>
<path style="fill:#93C8C0;" d="M433.3,255.152c-0.804-16.305-18.153-26.321-32.675-18.865  c-34.563,17.746-91.377,53.83-124.954,111.988c-39.259,67.998-43.523,139.034-9.523,158.664  c33.999,19.629,93.386-19.581,132.645-87.579C432.37,361.201,435.213,293.957,433.3,255.152z"/>
<path style="opacity:0.1;enable-background:new    ;" d="M433.3,255.152c-0.681-13.812-13.234-23.107-25.884-21.095  c3.316,3.645,5.491,8.443,5.763,13.966c1.913,38.805-0.93,106.049-34.507,164.207c-33.393,57.837-81.344,94.838-115.852,92.528  c1.066,0.783,2.173,1.514,3.327,2.181c33.999,19.629,93.386-19.581,132.645-87.579C432.37,361.201,435.213,293.957,433.3,255.152z"/>
<g style="opacity:0.1;">
	<path d="M205.055,470.815c-2.303,0-4.575-1.057-6.045-3.053l-47.698-64.772c-2.456-3.335-1.743-8.03,1.592-10.486   c3.335-2.456,8.031-1.744,10.486,1.592l47.698,64.772c2.456,3.335,1.743,8.03-1.592,10.486   C208.158,470.34,206.6,470.815,205.055,470.815z"/>
	<path d="M169.035,357.991c-2.303,0-4.575-1.057-6.045-3.053l-30.578-41.523c-2.456-3.335-1.743-8.03,1.592-10.486   c3.336-2.455,8.031-1.744,10.486,1.592l30.578,41.523c2.456,3.335,1.743,8.03-1.592,10.486   C172.137,357.516,170.58,357.991,169.035,357.991z"/>
</g>
<g style="opacity:0.1;">
	<path d="M306.944,470.815c-1.545,0-3.102-0.475-4.441-1.461c-3.335-2.456-4.048-7.151-1.592-10.486l47.698-64.772   c2.455-3.335,7.151-4.049,10.486-1.592c3.335,2.456,4.048,7.151,1.592,10.486l-47.698,64.772   C311.519,469.758,309.247,470.815,306.944,470.815z"/>
	<path d="M342.964,357.991c-1.545,0-3.103-0.475-4.441-1.461c-3.335-2.456-4.048-7.151-1.592-10.486l30.578-41.523   c2.455-3.336,7.151-4.049,10.486-1.592c3.335,2.456,4.048,7.151,1.592,10.486l-30.578,41.523   C347.539,356.934,345.267,357.991,342.964,357.991z"/>
</g>
<path style="fill:#A16B4E;" d="M321.009,2.856c-26.671-7.06-43.75,0.296-53.379,7.709c-6.636,5.108-11.429,11.495-14.559,17.932  c-3.025-2.536-6.43-4.707-9.827-6.359c-13.094-6.367-26.63-5.68-36.207,1.839c-3.259,2.558-3.826,7.272-1.269,10.531  c2.557,3.258,7.272,3.826,10.53,1.268c6.837-5.366,15.941-2.169,19.54-0.545c8.537,3.854,12.568,9.772,12.66,11.357  c0,4.142,3.357,7.5,7.5,7.5s7.5-3.358,7.5-7.5c0-5.593,3.537-16.637,13.28-24.137c9.983-7.684,23.951-9.445,40.392-5.094  c3.997,1.056,8.108-1.327,9.169-5.332C327.401,8.021,325.014,3.916,321.009,2.856z"/>
<g>
	<path style="fill:#4A5058;" d="M192.454,233.29c-4.143,0-7.5-3.358-7.5-7.5v-10.838c0-4.142,3.357-7.5,7.5-7.5s7.5,3.358,7.5,7.5   v10.838C199.954,229.932,196.596,233.29,192.454,233.29z"/>
	<path style="fill:#4A5058;" d="M255.999,252.365L255.999,252.365c-10.104,0-18.294-8.191-18.294-18.294V220.67   c0-2.696,2.185-4.881,4.881-4.881h26.826c2.696,0,4.881,2.185,4.881,4.881v13.401C274.294,244.175,266.103,252.365,255.999,252.365   z"/>
	<path style="fill:#4A5058;" d="M319.545,233.29c-4.143,0-7.5-3.358-7.5-7.5v-10.838c0-4.142,3.357-7.5,7.5-7.5s7.5,3.358,7.5,7.5   v10.838C327.045,229.932,323.688,233.29,319.545,233.29z"/>
</g>
<g style="opacity:0.3;">
	<ellipse style="fill:#F15B70;" cx="194.65" cy="248.91" rx="26.26" ry="11.395"/>
	<ellipse style="fill:#F15B70;" cx="317.35" cy="248.91" rx="26.26" ry="11.395"/>
</g>
<g style="opacity:0.1;">
	<path d="M231.516,154.458l9.381-9.381c2.929-2.929,2.929-7.678,0-10.606c-2.93-2.929-7.678-2.929-10.607,0l-9.381,9.381   l-9.381-9.381c-2.93-2.929-7.678-2.929-10.607,0s-2.929,7.678,0,10.606l9.381,9.381l-9.381,9.381   c-2.929,2.929-2.929,7.678,0,10.607c1.465,1.464,3.385,2.197,5.304,2.197s3.839-0.732,5.304-2.197l9.381-9.381l9.381,9.381   c1.465,1.464,3.385,2.197,5.304,2.197s3.839-0.732,5.304-2.197c2.929-2.929,2.929-7.678,0-10.607L231.516,154.458z"/>
	<path d="M294.096,122.777l9.381-9.381c2.929-2.929,2.929-7.678,0-10.606c-2.93-2.929-7.678-2.929-10.607,0l-9.381,9.381   l-9.381-9.381c-2.93-2.929-7.678-2.929-10.607,0s-2.929,7.678,0,10.606l9.381,9.381l-9.381,9.381   c-2.929,2.929-2.929,7.678,0,10.606c1.465,1.464,3.385,2.197,5.304,2.197s3.839-0.732,5.304-2.197l9.381-9.381l9.381,9.381   c1.465,1.464,3.385,2.197,5.304,2.197s3.839-0.732,5.304-2.197c2.929-2.929,2.929-7.678,0-10.606L294.096,122.777z"/>
</g>
<g>
</g>
<g>
</g>
<g>
</g>
<g>
</g>
<g>
</g>
<g>
</g>
<g>
</g>
<g>
</g>
<g>
</g>
<g>
</g>
<g>
</g>
<g>
</g>
<g>
</g>
<g>
</g>
<g>
</g>
</svg>
