<?xml version="1.0" encoding="iso-8859-1"?>
<!-- Generator: Adobe Illustrator 19.0.0, SVG Export Plug-In . SVG Version: 6.00 Build 0)  -->
<svg xmlns="http://www.w3.org/2000/svg" xmlns:xlink="http://www.w3.org/1999/xlink" version="1.1" id="Capa_1" x="0px" y="0px" viewBox="0 0 512 512" style="enable-background:new 0 0 512 512;" xml:space="preserve">
<path style="fill:#E8E8E8;" d="M435.582,118.371c-9.553-35.461-41.92-61.567-80.399-61.567c-8.915,0-17.497,1.416-25.55,4.01  C305.644,24.194,264.254,0,217.206,0C149.09,0,92.825,50.706,84.078,116.43C38.02,126.197,3.46,167.088,3.46,216.055  c0,56.249,45.599,101.848,101.848,101.848h301.384c56.249,0,101.848-45.599,101.848-101.848  C508.54,169.843,477.758,130.826,435.582,118.371z"/>
<path style="opacity:0.05;enable-background:new    ;" d="M450.633,124.161c14.968,17.728,24.004,40.627,24.004,65.646  c0,56.249-45.599,101.848-101.848,101.848H71.405c-15.742,0-30.649-3.574-43.957-9.951c18.682,22.135,46.627,36.2,77.86,36.2  h301.384c56.249,0,101.848-45.599,101.848-101.848C508.54,175.544,484.883,140.566,450.633,124.161z"/>
<g>
	<path style="fill:#9BD3E0;" d="M110.924,356.564c3.735-4.749,10.936-4.749,14.671,0c12.138,15.431,35.076,47.859,35.076,72.555   c0,23.424-18.988,42.412-42.412,42.412s-42.412-18.989-42.412-42.412C75.848,404.423,98.786,371.995,110.924,356.564z"/>
	<path style="fill:#9BD3E0;" d="M382.449,345.632c3.735-4.749,10.936-4.749,14.671,0c12.138,15.431,35.077,47.859,35.077,72.555   c0,23.424-18.989,42.412-42.412,42.412c-23.424,0-42.412-18.988-42.412-42.412C347.372,393.491,370.311,361.063,382.449,345.632z"/>
	<path style="fill:#9BD3E0;" d="M247.676,397.033c3.735-4.749,10.936-4.749,14.671,0c12.138,15.431,35.077,47.859,35.077,72.555   c0,23.424-18.988,42.412-42.412,42.412S212.6,493.012,212.6,469.588C212.599,444.892,235.538,412.463,247.676,397.033z"/>
</g>
<path style="opacity:0.05;enable-background:new    ;" d="M125.596,356.564c-1.933-2.458-4.795-3.632-7.623-3.546  c12.473,16.944,29.458,43.915,29.458,65.17c0,23.423-18.989,42.412-42.412,42.412c-7.155,0-13.892-1.779-19.805-4.908  c7.774,9.656,19.685,15.84,33.046,15.84c23.424,0,42.412-18.989,42.412-42.412C160.672,404.423,137.734,371.995,125.596,356.564z"/>
<path style="opacity:0.05;enable-background:new    ;" d="M262.347,397.032c-1.933-2.458-4.794-3.632-7.624-3.546  c12.473,16.945,29.458,43.915,29.458,65.17c0,23.423-18.989,42.412-42.412,42.412c-7.155,0-13.892-1.779-19.805-4.908  c7.774,9.656,19.685,15.84,33.046,15.84c23.424,0,42.412-18.988,42.412-42.412C297.423,444.892,274.485,412.463,262.347,397.032z"/>
<path style="opacity:0.05;enable-background:new    ;" d="M397.12,345.632c-1.933-2.458-4.795-3.632-7.624-3.546  c12.473,16.945,29.458,43.915,29.458,65.17c0,23.423-18.989,42.412-42.412,42.412c-7.155,0-13.892-1.779-19.805-4.908  c7.774,9.656,19.685,15.84,33.046,15.84c23.424,0,42.412-18.988,42.412-42.412C432.197,393.491,409.258,361.063,397.12,345.632z"/>
<g>
	<path style="fill:#4A5058;" d="M179.567,170.292c-4.142,0-7.5-3.358-7.5-7.5v-12.688c0-4.142,3.358-7.5,7.5-7.5s7.5,3.358,7.5,7.5   v12.688C187.067,166.934,183.709,170.292,179.567,170.292z"/>
	<path style="fill:#4A5058;" d="M332.433,170.292c-4.142,0-7.5-3.358-7.5-7.5v-12.688c0-4.142,3.358-7.5,7.5-7.5s7.5,3.358,7.5,7.5   v12.688C339.933,166.934,336.575,170.292,332.433,170.292z"/>
	<path style="fill:#4A5058;" d="M256,180.035c-9.89,0-19.296-4.284-25.805-11.753c-2.722-3.122-2.396-7.86,0.726-10.581   c3.122-2.722,7.86-2.397,10.581,0.726c3.66,4.199,8.944,6.608,14.498,6.608c5.554,0,10.837-2.409,14.498-6.608   c2.721-3.123,7.458-3.448,10.582-0.726c3.123,2.721,3.448,7.459,0.726,10.581C275.296,175.751,265.89,180.035,256,180.035z"/>
</g>
<g style="opacity:0.3;">
	<ellipse style="fill:#F15B70;" cx="179.57" cy="194.38" rx="32.717" ry="14.196"/>
	<ellipse style="fill:#F15B70;" cx="332.43" cy="194.38" rx="32.717" ry="14.196"/>
</g>
<g>
</g>
<g>
</g>
<g>
</g>
<g>
</g>
<g>
</g>
<g>
</g>
<g>
</g>
<g>
</g>
<g>
</g>
<g>
</g>
<g>
</g>
<g>
</g>
<g>
</g>
<g>
</g>
<g>
</g>
</svg>
