<svg id="Layer_1" enable-background="new 0 0 512 512" height="512" viewBox="0 0 512 512" width="512" xmlns="http://www.w3.org/2000/svg"><path d="m48 16h416v480h-416z" fill="#ece2e2"/><path d="m464 16v371c0 35.346-28.654 64-64 64h-243c-35.346 0-64-28.654-64-64v-371z" fill="#f2f2f2"/><path d="m293.234 230.5c4.282 1.998 9.234 2.005 13.532 0 7.087-3.308 69.234-33.606 69.234-78.5 0-39.175-44.496-61.601-76-38.98-31.432-22.568-76-.27-76 38.98 0 44.894 62.147 75.192 69.234 78.5zm-7.225-86.237c6.082 10.963 21.894 10.975 27.982 0 8.019-14.454 30.009-8.677 30.009 7.737 0 17.019-26.379 36.321-44.018 46.039-17.644-9.68-43.982-28.925-43.982-46.039 0-16.391 21.982-22.206 30.009-7.737z" fill="#ea8692"/><g fill="#999"><path d="m128 356.249v35.751c0 8.836 7.164 16 16 16s16-7.164 16-16v-35.751l29.892-52.311c4.384-7.672 1.718-17.446-5.954-21.83-7.671-4.382-17.446-1.719-21.83 5.954l-18.108 31.689-18.108-31.689c-4.384-7.672-14.158-10.336-21.83-5.954-7.672 4.384-10.338 14.158-5.954 21.83z"/><path d="m256 408c26.467 0 48-21.533 48-48v-32c0-26.467-21.533-48-48-48s-48 21.533-48 48v32c0 26.467 21.533 48 48 48zm-16-80c0-8.822 7.178-16 16-16s16 7.178 16 16v32c0 8.822-7.178 16-16 16s-16-7.178-16-16z"/><path d="m352 360v-64c0-8.836-7.164-16-16-16s-16 7.164-16 16v64c0 26.467 21.533 48 48 48s48-21.533 48-48v-64c0-8.836-7.164-16-16-16s-16 7.164-16 16v64c0 8.822-7.178 16-16 16s-16-7.178-16-16z"/><path d="m136 216c0 8.836 7.164 16 16 16h32c8.836 0 16-7.164 16-16s-7.164-16-16-16v-64c8.836 0 16-7.164 16-16s-7.164-16-16-16h-32c-8.836 0-16 7.164-16 16s7.164 16 16 16v64c-8.836 0-16 7.164-16 16z"/></g><path d="m464 0h-416c-8.836 0-16 7.164-16 16v480c0 8.836 7.164 16 16 16h416c8.836 0 16-7.164 16-16v-480c0-8.836-7.164-16-16-16zm-16 480h-384v-448h384z"/></svg>