<svg id="Layer_1" enable-background="new 0 0 512.046 512.046" height="512" viewBox="0 0 512.046 512.046" width="512" xmlns="http://www.w3.org/2000/svg"><g fill="#c79a83"><path d="m461.981 298.8c-39.05-33.41-119.37-36.36-138.02-40.82 45.28-9.77 76.07-33.13 76.07-81.98 0-24.12-7.51-47.61-20.56-68.1 16.82-7.46 28.56-24.31 28.56-43.9 0-26.51-21.49-48-48-48-22.35 0-41.13 15.27-46.47 35.94-36.79-15.91-78.207-15.937-115.06 0-5.34-20.67-24.12-35.94-46.47-35.94-26.51 0-48 21.49-48 48 0 19.59 11.74 36.44 28.56 43.9-13.05 20.49-20.56 43.98-20.56 68.1 0 48.85 30.79 72.21 76.07 81.98-18.65 4.46-98.97 7.41-138.02 40.82-12.56 10.75-25.18 85.45 41.12 78.97-16.36 10.72-27.17 29.21-27.17 50.23v8c0 33.14 26.86 60 60 60 24.426 0 37.507-13.75 38.23-13.75 22.63 10.26 54.1 13.75 93.77 13.75s71.14-3.49 93.77-13.75c.539 0 14.122 13.75 38.23 13.75 33.14 0 60-26.86 60-60v-8c0-20.844-10.668-39.434-27.17-50.23 66.3 6.48 53.68-68.22 41.12-78.97z"/><path d="m190.011 258.38c-41.85 23.84-60.39 67.4-66.97 109.63-18.982.307-31.94 9.76-31.84 9.76-66.3 6.48-53.68-68.22-41.12-78.97 39.05-33.41 119.37-36.36 138.02-40.82.63.14 1.27.27 1.91.4z"/><path d="m420.861 377.77c-.527 0-12.228-9.443-31.84-9.76-6.58-42.23-25.12-85.79-66.97-109.63.64-.13 1.28-.26 1.91-.4 18.65 4.46 98.97 7.41 138.02 40.82 12.56 10.75 25.18 85.45-41.12 78.97z"/></g><path d="m400.031 176c0 73.656-70.435 88-144 88-79.53 0-144-17.31-144-88 0-70.431 64.234-136 144-136 79.53 0 144 65.31 144 136z" fill="#a07765"/><path d="m400.031 176c0 20.334-12.91 37.437-30.971 44.003-24.5 8.906-55.42 11.997-89.029 11.997-79.53 0-144-17.31-144-88 0-39.653 23.512-73.519 57.308-89.708 96.977-46.452 206.692 27.113 206.692 121.708z" fill="#c79a83"/><path d="m198.501 51.94-65.91 55.96c-16.82-7.46-28.56-24.31-28.56-43.9 0-26.51 21.49-48 48-48 22.35 0 41.13 15.27 46.47 35.94z" fill="#a07765"/><path d="m408.031 64c0 19.59-11.74 36.44-28.56 43.9l-65.91-55.96c5.34-20.67 24.12-35.94 46.47-35.94 26.51 0 48 21.49 48 48z" fill="#a07765"/><path d="m162.261 482.25h-.01" fill="#8bc4ff"/><path d="m349.811 482.25h-.01" fill="#8bc4ff"/><path d="m448.031 428v8c0 33.14-26.86 60-60 60-33.286 0-60-26.996-60-60 0-10.584-.66-22.427 7.57-37.19 19.417-34.817 66.698-41.376 94.86-13.24 10.891 10.906 17.57 25.941 17.57 42.43z" fill="#a07765"/><path d="m184.031 428c0 7.915.152 11.48-.65 16.87-2.22 14.98-9.98 28.15-21.12 37.38h-.01c-38.49 31.883-98.22 4.965-98.22-46.25 0-8.85-.345-15.053 2.2-24.12 12.258-44.133 67.761-58.75 100.23-26.31 10.855 10.854 17.57 25.907 17.57 42.43z" fill="#a07765"/><path d="m445.831 411.88c-11.59 41.652-62.582 57.792-96.02 30.12-.289 0-14.303-11.112-19.58-30.12 7.011-25.194 30.119-43.88 57.8-43.88 27.264 0 50.699 18.291 57.8 43.88z" fill="#c79a83"/><path d="m181.831 411.89c-3.33 11.96-10.27 22.41-19.57 30.11h-.01c-33.357 27.631-84.408 11.611-96.02-30.12 12.258-44.133 67.761-58.75 100.23-26.31 7.404 7.403 12.684 16.57 15.37 26.32z" fill="#c79a83"/><path d="m349.801 482.25c-22.63 10.26-54.1 13.75-93.77 13.75s-71.14-3.49-93.77-13.75c11.771-9.758 19.085-23.326 21.12-37.38.816-5.485.65-9.024.65-16.87 0-10.451-2.693-20.454-7.57-29.19 4.164-44.144 38.088-78.81 79.57-78.81 41.51 0 75.409 34.692 79.57 78.81-4.876 8.734-7.57 18.737-7.57 29.19 0 8.344-.272 13.474 1.45 21.16 2.95 13.2 10.25 24.75 20.32 33.09z" fill="#c79a83"/><path d="m329.481 449.16c-36.946 9.218-109.89 9.234-146.9 0 2.362-10.407 1.985-27.42-.71-37.15 3.016-10.935 2.923-28.189.45-38.26 27.469-71.48 119.904-71.602 147.42 0-1.12 4.56-1.71 9.34-1.71 14.25 0 8.874-.347 14.942 2.16 24.01-3.064 11.061-2.773 27.943-.71 37.15z" fill="#e0b7a3"/><path d="m308.031 152c11.03 0 20-8.97 20-20s-8.97-20-20-20-20 8.97-20 20 8.97 20 20 20z"/><path d="m204.031 152c11.03 0 20-8.97 20-20s-8.97-20-20-20-20 8.97-20 20 8.97 20 20 20z"/><path d="m472.383 286.642c-24.041-20.569-59.632-30.478-90.75-36.136 33.607-23.805 47.724-80.039 19.209-137.215 14.448-11.98 23.189-29.953 23.189-49.291 0-35.29-28.71-64-64-64-23.125 0-43.911 12.379-55.18 31.553-30.122-9.682-64.74-10.455-97.63-.003-.308.098-15.974-31.55-55.19-31.55-35.29 0-64 28.71-64 64 0 19.338 8.742 37.311 23.189 49.291-22.516 45.146-23.3 104.906 19.201 137.209 1.22.927-55.892 6.327-90.745 36.145-19.432 16.633-28.126 84.835 18.673 103.193-10.932 18.743-10.318 34.337-10.318 46.162 0 59.936 66.239 95.834 116.394 64.378 22.107 8.003 50.941 11.622 91.606 11.622 40.694 0 69.539-3.625 91.652-11.64 50.23 31.602 116.348-4.576 116.348-64.36 0-12.379.587-27.467-10.319-46.164 46.771-18.349 38.093-86.57 18.671-103.194zm-128.448 79.518c-33.55-82.712-142.194-82.763-175.79-.045-7.883-5.641-16.703-9.689-26.07-11.96 6.734-27.923 21.04-59.563 51.044-78.93 35.948 6.348 89.269 6.455 125.824 0 30.015 19.372 44.32 51.027 51.051 78.956-9.512 2.324-18.321 6.445-26.059 11.979zm16.096-334.16c27.977 0 42.383 33.491 23.342 53.86-13.231-16.716-30.095-31.002-48.711-41.39 5.918-7.678 15.189-12.47 25.369-12.47zm-208 0c10.18 0 19.452 4.792 25.369 12.471-18.616 10.388-35.48 24.674-48.711 41.39-19.007-20.334-4.709-53.861 23.342-53.861zm-24 144c0-61.37 56.64-120 128-120 45.21 0 86.73 24.65 109.58 59.88l.007.007c.441.766.728 1.137.862 1.353.376 1.129 17.55 24.69 17.55 58.76 0 32.039-14.919 55.751-62.869 66.229-.915.16-15.821 4.383-49.131 5.511v-41.113l11.313-11.313c10.047-10.046 2.931-27.314-11.312-27.314h-32c-14.208 0-21.382 17.245-11.314 27.314l11.314 11.314v41.112c-27.238-.922-39.513-3.826-47.402-5.14-48.976-9.841-64.598-34.233-64.598-66.6zm-67.102 134.579c19.341-16.248 51.926-24.524 79.611-29.323-14.717 19.59-25.209 43.864-31.095 72.163-8.286 1.618-16.088 4.591-23.18 8.671-19.732.966-24.634-7.931-26.3-10.962-7.58-13.793-2.584-35.524.964-40.549zm19.102 125.421v-8c0-24.262 19.738-44 44-44 16.553 0 30.944 9.103 38.457 22.604 6.224 11.156 5.543 20.083 5.543 29.396 0 13.393-5.977 25.652-15.986 33.928-28.334 23.471-72.014 3.423-72.014-33.928zm109.593 38.386c6.793-11.59 10.407-24.722 10.407-38.386 0-10.696.599-23.529-7.094-40.066 5.14-34.462 31.595-59.934 63.094-59.934 31.51 0 57.974 25.492 63.101 59.975-7.623 16.334-7.101 28.816-7.101 40.025 0 13.994 3.818 27.105 10.442 38.378-33.564 7.569-99.273 7.571-132.849.008zm242.407-38.386c0 24.262-19.738 44-44 44s-44-19.738-44-44v-8c0-24.262 19.738-44 44-44s44 19.738 44 44zm20.066-84.872c-1.664 3.031-6.567 11.921-26.302 10.96-7.091-4.079-14.892-7.052-23.177-8.669-5.885-28.299-16.378-52.573-31.095-72.163 27.686 4.799 60.271 13.076 79.611 29.322 3.548 5.026 8.544 26.757.963 40.55z"/></svg>