<svg id="Layer_1" enable-background="new 0 0 512.024 512.024" height="512" viewBox="0 0 512.024 512.024" width="512" xmlns="http://www.w3.org/2000/svg"><path d="m160.024 276.662v-92.71l7.72 7.72c17.81 17.81 48.28 5.19 48.28-20 0-3.76-.74-7.43-2.15-10.83-2.991-7.212.256-2.784-85.85-88.89l-79.72 79.72c-5.3 5.3-8.28 12.49-8.28 20 0 25.167 30.446 37.834 48.28 20l7.72-7.72v92.71c-46.26 13.77-80 56.61-80 107.35 0 61.86 50.14 112 112 112s112-50.14 112-112c0-50.74-33.74-93.58-80-107.35zm-32 155.35c-26.51 0-48-21.49-48-48s21.49-48 48-48 48 21.49 48 48-21.49 48-48 48z" fill="#80aaff"/><path d="m416.024 235.362c46.26-13.77 80-56.61 80-107.35 0-61.86-50.14-112-112-112s-112 50.14-112 112c0 50.74 33.74 93.58 80 107.35v76.65h-64v64h64v64h64v-64h64v-64h-64zm-32-59.35c-26.51 0-48-21.49-48-48s21.49-48 48-48 48 21.49 48 48-21.49 48-48 48z" fill="#ffa4b8"/><path d="m128.024 320.012c-35.29 0-64 28.71-64 64s28.71 64 64 64 64-28.71 64-64-28.71-64-64-64zm0 96c-17.645 0-32-14.355-32-32s14.355-32 32-32 32 14.355 32 32-14.356 32-32 32z"/><path d="m176.024 265.345v-50.828c33.714 9.308 67.378-24.249 52.629-59.805-4.593-11.073-1.597-6.355-89.315-94.074-6.242-6.244-16.381-6.248-22.627 0l-79.72 79.72c-8.362 8.361-12.967 19.482-12.967 31.313 0 29.267 28.113 50.451 56 42.793v50.88c-21.263 8.646-40.176 23.079-54.103 41.468-63.097 83.316-4.04 205.198 102.103 205.198 106.111 0 165.225-121.849 102.103-205.198-13.928-18.388-32.841-32.821-54.103-41.467zm-48 214.667c-52.935 0-96-43.065-96-96 0-42.16 28.194-79.998 68.564-92.015 6.784-2.02 11.436-8.256 11.436-15.335v-92.71c0-8.875-7.215-16-15.996-16-8.24 0-11.861 5.23-19.036 12.406-7.895 7.894-20.968 2.087-20.968-8.685 0-3.284 1.276-6.369 3.594-8.687l68.406-68.406c74.72 74.72 69.731 69.164 71.07 72.393 5.19 12.507-10.651 22.774-20.036 13.387l-7.72-7.72c-10.047-10.045-27.314-2.931-27.314 11.313v92.71c0 7.079 4.651 13.315 11.436 15.335 40.37 12.017 68.564 49.855 68.564 92.015 0 52.933-43.066 95.999-96 95.999z"/><path d="m448.024 128.012c0-35.29-28.71-64-64-64s-64 28.71-64 64 28.71 64 64 64 64-28.711 64-64zm-64 32c-17.645 0-32-14.355-32-32s14.355-32 32-32 32 14.355 32 32-14.356 32-32 32z"/><path d="m480.024 296.012h-48v-49.334c46.403-18.868 80-64.286 80-118.667 0-70.58-57.421-128-128-128s-128 57.42-128 128c0 54.359 33.576 99.79 80 118.667v49.334h-48c-8.837 0-16 7.164-16 16v64c0 8.836 7.163 16 16 16h48v48c0 8.836 7.163 16 16 16h64c8.837 0 16-7.164 16-16v-48h48c8.837 0 16-7.164 16-16v-64c0-8.837-7.163-16-16-16zm-16 64h-48c-8.837 0-16 7.164-16 16v48c-11.036 0-20.504 0-32 0v-48c0-8.836-7.163-16-16-16h-48v-32h48c8.837 0 16-7.164 16-16v-76.65c0-7.079-4.651-13.315-11.436-15.335-40.37-12.017-68.564-49.855-68.564-92.015 0-52.935 43.065-96 96-96s96 43.065 96 96c0 42.16-28.194 79.998-68.564 92.015-6.784 2.02-11.436 8.256-11.436 15.335v76.65c0 8.836 7.163 16 16 16h48z"/></svg>