<svg id="Layer_1" enable-background="new 0 0 512.303 512.303" height="512" viewBox="0 0 512.303 512.303" width="512" xmlns="http://www.w3.org/2000/svg"><path d="m481.158 196.303c0 33.61-13.94 65.35-34.9 94.09-1.925-.045 7.542-8.004-116.54 104.04-40.65 26.51-73.56 41.87-73.56 41.87-45.45-21.219-102.762-61.145-106.44-64.8-56.711-42.284-118.56-104.435-118.56-175.2 0-46.782 26.975-88.409 67.99-108.18l108.17 2.11c20.56 10.91 37.56 27.62 48.84 47.95 39.073-70.435 133.952-82.653 189.85-26.73 21.77 21.759 35.15 51.782 35.15 84.85z" fill="#ea8692"/><path d="m447.93 113.418c34.562 36.157 37.773 97.712-9.592 139.915-32.31 28.78-99.62 89.1-99.62 89.1-40.65 26.51-73.56 41.87-73.56 41.87-60.453-28.223-165.294-95.539-206.145-171.182-23.971-44.386-8.007-101.792 40.135-124.998l108.17 2.11c20.56 10.91 37.56 27.62 48.84 47.95 39.515-71.231 136.159-82.945 191.772-24.765z" fill="#fe929f"/><path d="m176.158 410.973c0 48-80 85.33-80 85.33s-20-9.33-40-24.66c-26.808-20.561-50.697-50.325-35.28-80.19 15.595-30.287 58.722-30.992 75.28-1.15 13.878-25.011 47.586-29.414 67.5-9.5 7.928 7.927 12.5 18.666 12.5 30.17z" fill="#fe929f"/><path d="m163.751 380.896c5.555 5.589 6.226 14.404 1.819 20.936-32.447 48.093-103.202 49.002-137.004 2.594-6.097-8.371-4.568-20.183 3.491-26.686 20.357-16.424 51.089-10.888 64.101 12.562 13.934-25.11 47.74-29.381 67.593-9.406z" fill="#ffa4b8"/><path d="m207.318 90.233c-20.71 22.92-53.16 38.07-53.16 38.07-37.642-17.574-85.823-56.852-65.11-93.15 14.431-25.272 50.97-25.082 65.11.4 12.146-21.889 41.633-25.731 59.07-8.32 14.07 14.13 16.992 37.668-5.91 63z" fill="#fe929f"/><path d="m213.298 27.303c4.18 4.22 4.654 10.871 1.297 15.771-6.704 9.784-16.114 18.496-25.567 25.738-20.45 15.65-48.85 15.89-69.35.31-7.413-5.668-14.527-11.948-20.53-19-8.408-9.831-5.136-24.633 6.008-30.066 17.475-8.518 39.183-2.2 49.002 15.496 12.226-22.032 41.899-25.655 59.14-8.249z" fill="#ffa4b8"/><path d="m496.158 341.573c0 57.6-96 102.4-96 102.4s-24-11.2-48-29.6c-23.267-17.833-48-43.573-48-72.8 0-28.14 22.783-51.2 51.2-51.2 19.28 0 36.07 10.65 44.8 26.4 8.73-15.75 25.52-26.4 44.8-26.4 28.24 0 51.2 22.879 51.2 51.2z" fill="#fe929f"/><path d="m481.364 305.569c11.54 11.671 11.847 30.394 1.019 42.728-8.047 9.166-17.513 17.455-26.944 24.625-26.456 20.124-64.545 22.502-95.28-.55-11.085-8.496-21.988-18.385-30.62-29.368-16.554-21.062-1.681-52.632 25.82-52.632 19.28 0 36.07 10.65 44.8 26.4 16.598-29.945 57.245-35.434 81.205-11.203z" fill="#ffa4b8"/><path d="m472.183 280.129c66.471-112.418-11.536-219.826-111.024-219.826-41.018 0-79.408 18.519-104.992 49.56-7.467-9.076-16.08-17.133-25.639-24.002 34.419-57.128-30.629-109.801-76.369-74.374-44.38-34.373-108.781 15.05-78.074 71.396-15.737 10.43-29.197 24.056-39.482 40.097-30.323 47.286-31.708 110.938 16.801 177.219 14.248 19.478 32.459 38.916 54.373 58.061-4.146 2.024-8.051 4.52-11.619 7.461-57.332-47.268-154.085 38.61-49.735 118.612 21.143 16.21 42.087 26.057 42.969 26.468 4.282 1.998 9.234 2.005 13.532 0 .881-.411 21.826-10.258 42.969-26.468 27.404-21.009 42.737-42.933 45.716-65.283 32.374 19.817 56.447 31.128 57.78 31.75 4.287 2.001 9.244 2.004 13.535 0 1.262-.589 28.763-13.499 64.723-36.054 18.989 17.288 45.953 34.486 65.744 43.725 4.298 2.005 9.252 1.997 13.532 0 1.044-.488 25.871-12.16 50.969-31.401 36.008-27.605 54.265-56.371 54.265-85.498.001-27.581-16.515-51.058-39.974-61.443zm-332.015-236.813c6.082 10.96 21.892 10.974 27.981 0 17.984-32.413 87.488 11.7-13.993 66.993-8.539-4.65-17.414-10.269-25.257-16.279-63.189-48.49-4.507-79.147 11.269-50.714zm-44.009 435.069c-21.973-11.765-64-39.897-64-67.416 0-14.704 11.962-26.667 26.667-26.667 9.689 0 18.633 5.273 23.342 13.762 6.082 10.963 21.894 10.975 27.982 0 6.238-11.243 19.631-16.493 31.86-12.359 4.104 3.041 8.372 6.119 12.744 9.19 22.065 29.118-26.302 66.2-58.595 83.49zm159.998-59.902c-13.418-6.752-45.108-23.507-79.854-47.565-5.175-5.528-11.402-10.052-18.361-13.257-51.645-38.746-110.783-97.085-110.783-161.358 0-35.873 18.876-69.374 48.919-88.231 14.888 14.15 36.408 27.768 51.312 34.729 2.057.96 4.36 1.502 6.769 1.502 3.887 0 6.265-1.2 9.822-3 15.387-7.77 32.574-18.965 45.777-30.936 13.389 9.135 24.47 21.267 32.41 35.578 6.082 10.962 21.894 10.974 27.982-.001 33.538-60.455 115.668-72.077 164.548-23.175 35.568 35.551 44.216 91.346 3 151.997-13.35 1.451-26.718 7.05-37.54 16.721-57.347-51.251-151.58 19.96-94.389 99.178-21.94 13.502-40.235 23.099-49.612 27.818zm144.062 7.599c-31.021-16.385-81.797-51.328-80.015-86.318.949-18.653 16.428-33.392 35.154-33.392 12.794 0 24.598 6.957 30.806 18.157 6.081 10.97 21.901 10.981 27.988 0 6.254-11.283 18.327-18.468 31.711-18.141 18.944.476 34.294 15.945 34.294 35.185.001 35.505-52.568 70.239-79.938 84.509z"/></svg>