<svg id="Layer_1" enable-background="new 0 0 512 512" height="512" viewBox="0 0 512 512" width="512" xmlns="http://www.w3.org/2000/svg"><path d="m16 136h480v88h-480z" fill="#fe929f"/><path d="m496 136v48h-384c-26.436 0-48-21.417-48-48z" fill="#ffa4b8"/><path d="m192 136h128v88h-128z" fill="#ffe773"/><path d="m48 224h416v272h-416z" fill="#ea8692"/><path d="m464 224v226h-304c-35.346 0-64-28.654-64-64v-162z" fill="#fe929f"/><path d="m208 224h96v272h-96z" fill="#efd66c"/><path d="m352.5 353c-17.7 50.23-96.5 87-96.5 87s-25-11.67-50-30.83c-24.174-18.546-50-45.348-50-75.84 0-29.248 23.689-53.33 53.33-53.33 20.09 0 37.57 11.1 46.67 27.5 9.1-16.4 26.58-27.5 46.67-27.5 35.571 0 63.326 34.88 49.83 73z" fill="#ece2e2"/><path d="m356 333.33c0 8.522-1.473 17.715-7.365 23.835-7.283 7.565-15.379 14.484-23.447 20.618-28.124 21.383-68.396 22.987-99.188-.613-21.22-16.28-42.46-37.96-48.37-62.5-3.808-15.663 7.918-34.67 31.7-34.67 20.09 0 37.57 11.1 46.67 27.5 9.1-16.4 26.58-27.5 46.67-27.5 29.446 0 53.33 23.869 53.33 53.33z" fill="#f9f9f9"/><path d="m496 120h-129.241c24.437-8.631 41.241-32.12 41.241-58.24 0-34.054-27.706-61.76-61.761-61.76h-5.097c-23.894 0-45.861 13.991-55.966 35.643l-29.176 62.522-29.177-62.521c-10.104-21.653-32.072-35.644-55.966-35.644h-5.097c-34.054 0-61.76 27.706-61.76 61.76 0 26.119 16.805 49.608 41.241 58.24h-129.241c-8.836 0-16 7.164-16 16v88c0 8.836 7.164 16 16 16h16v256c0 8.836 7.164 16 16 16h416c8.837 0 16-7.164 16-16v-256h16c8.837 0 16-7.164 16-16v-88c0-8.836-7.163-16-16-16zm-239.941 302.107c-29.851-15.738-74.987-46.449-82.886-79.216-6.072-25.02 12.648-46.891 36.16-46.891 13.562 0 26.083 7.381 32.676 19.263 6.081 10.961 21.892 10.973 27.98 0 6.594-11.882 19.115-19.263 32.678-19.263 20.644 0 37.333 16.686 37.333 37.333 0 36.004-52.071 72.141-83.941 88.774zm31.941-156.518c-11.961 2.594-23.002 8.293-32 16.475-8.998-8.183-20.04-13.882-32-16.475v-25.589h64zm16-57.589h-96v-56h96zm10.175-158.825c4.869-10.433 15.454-17.175 26.968-17.175h5.097c16.409 0 29.76 13.351 29.76 29.76 0 13.111-8.785 24.852-21.363 28.551l-69.15 20.339zm-178.175 12.585c0-16.409 13.351-29.76 29.76-29.76h5.097c11.514 0 22.099 6.742 26.968 17.175l28.688 61.475-69.15-20.339c-12.578-3.699-21.363-15.439-21.363-28.551zm-104 90.24h144v56c-24.809 0-128.067 0-144 0zm32 88h128v26.194c-35.73 9.23-59.304 45.611-49.929 84.222 5.583 23.159 22.377 46.05 49.929 68.1v61.484h-128zm160 240v-39.278c14.123 8.555 24.552 13.459 25.234 13.777 4.297 2.005 9.251 1.998 13.532 0 .633-.295 11.079-5.205 25.234-13.78v39.281zm224 0h-128v-61.478c87.233-69.729 48.777-139.85 0-152.342v-26.18h128zm32-272c-15.997 0-119.132 0-144 0v-56h144z"/></svg>