<svg id="Layer_1" enable-background="new 0 0 512 512" height="512" viewBox="0 0 512 512" width="512" xmlns="http://www.w3.org/2000/svg"><path d="m232 304v192h-192v-192c0-43.165 20.846-83.71 56-108.82l8-179.18h64l8 179.18c35.14 25.1 56 65.63 56 108.82z" fill="#90c94f"/><path d="m176 195.18-8-179.18c-11.071 0-20.597 0-32 0v185.383c-30.544 25.514-48 63.127-48 102.617v128c0 35.346 28.654 64 64 64h80v-192c0-43.19-20.86-83.72-56-108.82z" fill="#99d856"/><path d="m203.07 220.93-67.07 67.07-67.07-67.07c7.68-9.7 16.76-18.39 27.07-25.75l4.07-91.18h71.86l4.07 91.18c10.31 7.36 19.39 16.05 27.07 25.75z" fill="#efd66c"/><path d="m200 371.733c0 29.151-38.882 56.545-64 68.267-22.746-10.615-56.848-34.381-62.96-59.733-5.442-22.411 11.322-42.667 33.093-42.667 12.853 0 24.043 7.104 29.867 17.6 5.824-10.496 17.013-17.6 29.867-17.6 18.858 0 34.133 15.274 34.133 34.133z" fill="#ea8692"/><path d="m384 376c-48.466 0-88-39.265-88-88v-128h176v128c0 48.601-39.399 88-88 88z" fill="#8bc4ff"/><path d="m472 152v128c0 35.02-20.45 65.26-50.07 79.42-57.711 27.649-125.93-14.225-125.93-79.42v-128z" fill="#efd66c"/><path d="m472 152v128c0 35.02-20.45 65.26-50.07 79.42-43.86-4.99-77.93-42.23-77.93-87.42v-120z" fill="#ffe773"/><path d="m296 160h176v120h-176z" fill="#f9f9f9"/><path d="m136 331.475c-37.188-27.575-89.786 6.158-78.515 52.541 4.071 16.888 16.445 33.356 36.779 48.948 17.188 13.178 34.251 21.2 34.969 21.535 4.307 2.01 9.261 1.993 13.533 0 32.14-15.001 73.234-46.062 73.234-82.766 0-41.494-47.291-64.512-80-40.258zm47.406 45.04c-4.467 18.515-31.787 36.896-47.379 45.487-89.461-49.171-29.289-86.557-14.018-59.039 6.081 10.961 21.893 10.973 27.98 0 10.229-18.43 38.544-7.536 33.417 13.552z"/><path d="m472 144h-176c-8.837 0-16 7.164-16 16v128c0 51.906 38.223 95.05 88 102.769v89.231h-40c-8.837 0-16 7.164-16 16s7.163 16 16 16h112c8.837 0 16-7.164 16-16s-7.163-16-16-16h-40v-89.231c49.777-7.719 88-50.863 88-102.769v-128c0-8.836-7.163-16-16-16zm-16 32v88h-144v-88zm-72 184c-36.996 0-67.551-28.052-71.545-64h143.09c-3.994 35.948-34.549 64-71.545 64z"/><path d="m191.648 186.958-6.919-154.995c8.496-.383 15.271-7.373 15.271-15.963 0-8.836-7.163-16-16-16-11.309 0-85.584 0-96 0-8.837 0-16 7.164-16 16 0 8.59 6.775 15.58 15.271 15.963l-6.919 154.995c-35.605 28.418-56.352 71.725-56.352 117.042v192c0 8.836 7.163 16 16 16h192c8.837 0 16-7.164 16-16v-192c0-43.866-19.445-87.583-56.352-117.042zm-86.348 21.244c4-2.857 6.465-7.395 6.685-12.306l3.388-75.896h41.254l3.388 75.896c.22 4.911 2.685 9.449 6.685 12.306 5.142 3.673 9.93 7.735 14.354 12.117l-45.054 45.054-45.054-45.054c4.424-4.382 9.212-8.445 14.354-12.117zm47.398-176.202 2.5 56h-38.397l2.5-56zm63.302 448h-160c0-7.28 0-159.57 0-176 0-20.592 5.44-40.552 15.342-58.03l53.345 53.344c6.248 6.248 16.379 6.248 22.627 0l53.345-53.344c9.901 17.478 15.341 37.438 15.341 58.03z"/></svg>