<svg id="Layer_1" enable-background="new 0 0 512 512" height="512" viewBox="0 0 512 512" width="512" xmlns="http://www.w3.org/2000/svg"><path d="m256 352v160h-240v-160c0-52.04 33.13-96.35 79.45-112.97 77.986-28.029 160.55 29.872 160.55 112.97z" fill="#4379ff"/><path d="m256 352v128h-32c-133.902 0-205.482-156.951-128.55-240.97 77.835-27.974 160.55 29.763 160.55 112.97z" fill="#6994ff"/><path d="m496 352v160h-240v-160c0-52.04 33.13-96.35 79.45-112.97 77.986-28.029 160.55 29.872 160.55 112.97z" fill="#ea8692"/><path d="m496 352v128h-32c-133.901 0-205.482-156.951-128.55-240.97 77.835-27.974 160.55 29.763 160.55 112.97z" fill="#fe929f"/><path d="m456 120v168c0 13.25-35.82 24-80 24s-80-10.75-80-24v-168c0-71.322 86.518-106.587 136.57-56.57 14.47 14.48 23.43 34.48 23.43 56.57z" fill="#ffa4b8"/><path d="m456 120v32c0 20.64-7.82 39.45-20.64 53.64-49.318 54.2-139.36 19.166-139.36-53.64v-32c52.598-21.031 105.916-21.634 160 0z" fill="#ffdfba"/><path d="m456 120v32c0 20.64-7.82 39.45-20.64 53.64-50.776 12.611-99.36-25.916-99.36-77.64v-20c40-8 80-4 120 12z" fill="#ffebd2"/><path d="m256 400h240v64h-240z" fill="#ffe773"/><path d="m216 120c-51.213-20.563-104.988-22.089-160 0 3.452-22.438 12.268-79.74 16-104h128c3.757 24.419 13.023 84.653 16 104z" fill="#6994ff"/><path d="m209.46 77.49c-50.033-18.634-100.419-17.318-146.92 0l9.46-61.49h128z" fill="#80aaff"/><path d="m136 232c-59.35 0-97.663-62.34-71.92-115.07 47.92-17.206 95.838-17.27 143.84 0 25.738 52.72-12.543 115.07-71.92 115.07z" fill="#ffdfba"/><path d="m195.36 205.64c-59.393 14.751-112.224-39.799-96.7-98.15 36.42-6.8 72.85-3.66 109.26 9.44 13.953 28.579 9.893 63.858-12.56 88.71z" fill="#ffebd2"/><path d="m472.167 255.84c-.35-.35-.08-132.525-.172-136.235-.212-52.871-43.062-95.605-95.995-95.605-51.361 0-95.424 40.96-95.998 95.812-.003.962-.002 133.929-.002 135.872-9.637 9.607-17.693 20.542-23.999 32.377-13.84-25.871-35.802-46.768-62.457-59.267 31.616-23.751 44.676-63.293 35.679-99.801 2.243-3.299 3.214-7.368 2.589-11.425l-16-104c-1.199-7.806-7.915-13.568-15.812-13.568h-128c-7.897 0-14.613 5.762-15.813 13.567l-16 104c-.625 4.057.347 8.126 2.589 11.425-8.991 36.486 4.046 76.037 35.679 99.801-46.304 21.715-78.455 68.773-78.455 123.207v144c0 8.837 7.163 16 16 16s16-7.163 16-16c0-15.682 0-121.428 0-144 0-51.906 38.223-95.05 88-102.769v246.769c0 8.837 7.163 16 16 16s16-7.163 16-16v-246.769c49.777 7.719 88 50.863 88 102.769 0 1.5-.333-11.247-.333 144 0 8.837 7.163 16 16 16s16-7.163 16-16v-16h208.333v16c0 8.837 7.163 16 16 16s16-7.163 16-16c0-15.919 0-126.022 0-144 0-36.336-14.148-70.488-39.833-96.16zm-386.44-223.84h100.547l9.908 64.406c-39.948-11.135-80.253-11.18-120.363 0zm-9.738 97.755c40.254-13.129 79.768-13.129 120.023 0 15.491 41.654-15.503 86.245-60.012 86.245-44.453 0-75.527-44.528-60.011-86.245zm364.011 22.245c0 35.29-28.71 64-64 64-30.56 0-56.17-21.535-62.49-50.224-1.792-12.31-1.51-20.977-1.51-34.672 42.964-14.922 85.036-14.922 128 0zm0 117.16c-25.778-4.876-47.727-11.962-65.635-21.18 24.556.407 47.741-8.454 65.635-24.491zm-128-29.816c23.89 28.366 58.057 44.916 93.793 54.787-35.777 4.729-79.958-.134-93.793-9.457zm123.43-143.143c-39.518-10.877-79.3-10.882-118.818-.012 21.608-53.697 97.473-53.306 118.818.012zm-150.733 206.036c21.304 29.647 110.772 30.568 152.468 18.057 16.444-4.934 25.459-11.516 30.175-18.11 15.036 27.474 12.66 48.359 12.66 81.816h-208.333c0-37.03-1.031-55.96 13.03-81.763zm-12.697 145.763v-32h208v32z"/><path d="m88 456h-24c-8.837 0-16 7.163-16 16s7.163 16 16 16h24c8.837 0 16-7.163 16-16s-7.163-16-16-16z"/><path d="m208 456h-24c-8.837 0-16 7.163-16 16s7.163 16 16 16h24c8.837 0 16-7.163 16-16s-7.163-16-16-16z"/></svg>