<svg id="Layer_1" enable-background="new 0 0 512.51 512.51" height="512" viewBox="0 0 512.51 512.51" width="512" xmlns="http://www.w3.org/2000/svg"><path d="m496.51 432.255v80h-480.51v-80c0-59.86 36.53-111.19 88.51-132.92h303.49c51.98 21.73 88.51 73.06 88.51 132.92z" fill="#ea8692"/><path d="m496.51 432.255v53h-352.51c-44.06 0-80-35.696-80-80 0-41.89 17.89-79.61 46.45-105.92h297.55c51.98 21.73 88.51 73.06 88.51 132.92z" fill="#fe929f"/><path d="m256.51 408.255c-79.308 0-144-64.252-144-144v-104c0-79.529 64.471-144 144-144 79.308 0 144 64.252 144 144v104c0 79.529-64.471 144-144 144z" fill="#ffa4b8"/><path d="m352.51 168.255c0 53.018-42.996 96-96 96-53.02 0-96-42.98-96-96 0-48.01 35.24-87.79 81.27-94.87 57.926-9.051 110.73 35.826 110.73 94.87z" fill="#ffdfba"/><path d="m352.51 168.255c0 32.68-16.33 61.54-41.27 78.87-57.926 9.051-110.73-35.827-110.73-94.87 0-32.68 16.33-61.54 41.27-78.87 57.926-9.051 110.73 35.826 110.73 94.87z" fill="#ffebd2"/><path d="m352.51 168.255c0-17.67-42.98-32-96-32s-96 14.33-96 32c0-53.02 42.98-96 96-96s96 42.98 96 96z" fill="#fe929f"/><path d="m101.58 120.255c-6.18 23.878-5.07 33.755-5.07 96h32c0-59.176-1.665-71.534 6.4-96z"/><path d="m415.17 285.015c1.787-13.805 1.34-10.36 1.34-124.76 0-88.22-71.78-160-160-160-74.41 0-137.13 51.07-154.93 120h33.33c16.83-51.05 64.98-88 121.6-88 70.58 0 128 57.42 128 128v104c0 38.86-17.42 73.73-44.85 97.23-52.175-14.302-112.251-49.656-141.44-97.63 73.971 45.279 170.29-8.035 170.29-95.6 0-61.76-50.24-112-112-112s-112 50.24-112 112v16.65c0 96.687 69.911 163.557 159.36 198.26-83.649 33.436-175.36-28.493-175.36-118.91v-48h-32c0 50.296-.425 55.064 1.32 68.54-59.45 25.1-97.83 82.91-97.83 147.46v64c0 8.84 7.16 16 16 16s16-7.16 16-16v-64c0-49.82 28.58-94.61 73.28-115.74 35.147 101.409 158.932 140.545 245.76 76.75.89-.54 1.73-1.18 2.5-1.88 24.68-18.88 43.72-44.76 54.12-74.66 44.46 21.22 72.85 65.88 72.85 115.53v64c0 8.84 7.16 16 16 16s16-7.16 16-16v-64c0-64.38-38.18-122.04-97.34-147.24zm-88.74-155.57c-39.021-12.131-99.988-12.389-139.84 0 30.533-54.812 109.248-54.918 139.84 0zm-69.92 22.81c47.75 0 75.19 11.76 79.97 17.33-.72 43.5-36.3 78.67-79.97 78.67s-79.25-35.17-79.97-78.67c4.78-5.57 32.22-17.33 79.97-17.33z"/><path d="m112.51 416.255c-8.837 0-16 7.163-16 16v64c0 8.837 7.163 16 16 16s16-7.163 16-16v-64c0-8.837-7.163-16-16-16z"/><path d="m400.51 416.255c-8.837 0-16 7.163-16 16v64c0 8.837 7.163 16 16 16s16-7.163 16-16v-64c0-8.837-7.163-16-16-16z"/></svg>