<svg id="Layer_1" enable-background="new 0 0 512.005 512.005" height="512" viewBox="0 0 512.005 512.005" width="512" xmlns="http://www.w3.org/2000/svg"><path d="m16 223.944h272v208h-272z" fill="#efd66c"/><path d="m288 223.944v160h-160c-35.346 0-64-28.654-64-64v-96z" fill="#ffe773"/><path d="m288 207.944h-32v-40c0-57.346-46.654-104-104-104s-104 46.654-104 104v40h-32c-8.836 0-16 7.163-16 16v208c0 8.837 7.164 16 16 16h272c8.836 0 16-7.163 16-16v-208c0-8.837-7.164-16-16-16zm-208-40c0-39.701 32.299-72 72-72s72 32.299 72 72v40h-144zm192 248h-240v-176h240z"/><path d="m152 271.944c-17.645 0-32 14.355-32 32 0 11.818 6.445 22.153 16 27.695v36.305c0 8.837 7.164 16 16 16s16-7.163 16-16v-36.305c9.555-5.542 16-15.876 16-27.695 0-17.645-14.355-32-32-32z"/><path d="m440 310.08c0-242.688.077-226.416-.138-228.136 1.219-9.759-6.408-18-15.862-18h-48c-8.836 0-16 7.163-16 16s7.164 16 16 16h32v32h-32c-8.836 0-16 7.163-16 16s7.164 16 16 16h32v150.136c-140.192 74.738-42.609 171.555 16 126.464 58.615 45.096 156.195-51.725 16-126.464zm-2.103 94.683c-6.13-10.742-21.659-10.75-27.794 0-11.113 19.477-42.103 11.792-42.103-10.152 0-22.809 36.41-46.565 56-56.834 19.602 10.275 56 34.028 56 56.834 0 21.911-30.967 29.669-42.103 10.152z"/></svg>