<svg id="Layer_1" enable-background="new 0 0 512 512" height="512" viewBox="0 0 512 512" width="512" xmlns="http://www.w3.org/2000/svg"><path d="m424 224h-336l53.255-53.255c12.002-12.002 28.281-18.745 45.255-18.745h138.98c16.974 0 33.253 6.743 45.255 18.745z" fill="#8dffff"/><path d="m496 320h-448c-17.673 0-32-14.327-32-32v-32c0-17.673 14.327-32 32-32h389.5c32.309 0 58.5 26.191 58.5 58.5z" fill="#ece2e2"/><circle cx="120" cy="320" fill="#999" r="40"/><circle cx="392" cy="320" fill="#999" r="40"/><path d="m455.067 211.354-23.723-2.636-49.286-49.286c-15.109-15.111-35.199-23.432-56.568-23.432h-138.98c-21.368 0-41.458 8.321-56.568 23.432l-48.569 48.568h-33.373c-26.467 0-48 21.532-48 48v32c0 26.468 21.533 48 48 48h18.341c6.902 23.105 28.339 40 53.659 40s46.756-16.895 53.659-40h164.683c6.902 23.105 28.339 40 53.659 40s46.756-16.895 53.659-40h50.34c8.837 0 16-7.163 16-16v-45.038c0-32.656-24.476-60.002-56.933-63.608zm-69.695-3.354h-49.372v-38.838c8.807 1.958 16.897 6.363 23.432 12.896zm-113.372 0v-40h32v40zm-64 0v-40h32v40zm-55.432-25.94c6.534-6.534 14.625-10.939 23.432-12.897v38.837h-49.373zm-32.568 161.94c-13.234 0-24-10.767-24-24s10.766-24 24-24 24 10.767 24 24-10.766 24-24 24zm272 0c-13.233 0-24-10.767-24-24s10.767-24 24-24 24 10.767 24 24-10.767 24-24 24zm88-40h-34.341c-6.902-23.105-28.339-40-53.659-40s-46.756 16.895-53.659 40h-164.682c-6.902-23.105-28.339-40-53.659-40s-46.756 16.895-53.659 40h-18.341c-8.822 0-16-7.178-16-16v-32c0-8.822 7.178-16 16-16 431.897 0 364.527-1.176 403.534 3.158 12.454 1.384 22.551 9.762 26.577 20.963-7.945.936-14.111 7.682-14.111 15.879 0 8.837 7.163 16 16 16z"/></svg>