<svg id="Layer_1" enable-background="new 0 0 512 512" height="512" viewBox="0 0 512 512" width="512" xmlns="http://www.w3.org/2000/svg"><path d="m432 320h-64v-168c0-17.673 14.327-32 32-32 17.624 0 32 14.278 32 32z" fill="#80aaff"/><path d="m368 256h64v64h-64z" fill="#4379ff"/><path d="m344 72c0 30.994 25.122 56 56 56 30.93 0 56-25.07 56-56 0-19.95-10.43-37.45-26.13-47.38-36.739-23.191-85.87 2.903-85.87 47.38z" fill="#ffdfba"/><path d="m346.13 87.38c42.862 27.054 97.804-12.923 83.74-62.76-42.566-26.869-97.916 12.523-83.74 62.76z" fill="#ffebd2"/><path d="m144 320h-64v-168c0-17.673 14.327-32 32-32 17.624 0 32 14.278 32 32z" fill="#80aaff"/><path d="m80 256h64v64h-64z" fill="#4379ff"/><path d="m168 72c0 30.994-25.122 56-56 56-30.93 0-56-25.07-56-56 0-19.95 10.43-37.45 26.13-47.38 36.739-23.191 85.87 2.903 85.87 47.38z" fill="#ffdfba"/><path d="m165.87 87.38c-42.862 27.054-97.804-12.923-83.74-62.76 42.566-26.869 97.916 12.523 83.74 62.76z" fill="#ffebd2"/><path d="m161.954 123.778c46.567-44.942 14.383-123.778-49.954-123.778-64.429 0-96.476 78.879-49.954 123.778-36.751 18.393-62.046 56.406-62.046 100.222v104c0 8.837 7.163 16 16 16s16-7.163 16-16v-104c0-26.116 12.582-49.346 32-63.957v319.957h-8c-8.837 0-16 7.163-16 16s7.163 16 16 16h24c8.837 0 16-7.163 16-16v-152h32v152c0 8.837 7.163 16 16 16h24c8.837 0 16-7.163 16-16s-7.163-16-16-16h-8c0-13.842 0-305.728 0-319.957 19.418 14.61 32 37.84 32 63.957v104c0 8.837 7.163 16 16 16s16-7.163 16-16v-104c0-43.816-25.295-81.829-62.046-100.222zm-89.954-51.778c0-22.056 17.944-40 40-40s40 17.944 40 40-17.944 40-40 40-40-17.944-40-40zm56 88v152h-32v-152c0-8.822 7.178-16 16-16s16 7.178 16 16z"/><path d="m449.954 123.778c46.567-44.942 14.383-123.778-49.954-123.778-64.429 0-96.476 78.879-49.954 123.778-36.751 18.393-62.046 56.406-62.046 100.222v104c0 8.837 7.163 16 16 16s16-7.163 16-16v-104c0-26.116 12.582-49.346 32-63.957v319.957h-8c-8.837 0-16 7.163-16 16s7.163 16 16 16h24c8.837 0 16-7.163 16-16v-152h32v152c0 8.837 7.163 16 16 16h24c8.837 0 16-7.163 16-16s-7.163-16-16-16h-8c0-13.842 0-305.728 0-319.957 19.418 14.61 32 37.84 32 63.957v104c0 8.837 7.163 16 16 16s16-7.163 16-16v-104c0-43.816-25.295-81.829-62.046-100.222zm-89.954-51.778c0-22.056 17.944-40 40-40s40 17.944 40 40-17.944 40-40 40-40-17.944-40-40zm56 88v152h-32v-152c0-8.822 7.178-16 16-16s16 7.178 16 16z"/></svg>