<svg id="Layer_1" enable-background="new 0 0 512 512" height="512" viewBox="0 0 512 512" width="512" xmlns="http://www.w3.org/2000/svg"><path d="m456 248.02v87.98c0 88.37-71.63 160-160 160h-80c-88.37 0-160-71.63-160-160v-200c0-11.04 4.48-21.04 11.72-28.28 25.016-25.015 68.28-7.384 68.28 28.28v-48c0-11.04 4.48-21.04 11.72-28.28 25.016-25.015 68.28-7.384 68.28 28.28v-32c0-11.04 4.48-21.04 11.72-28.28 25.016-25.015 68.28-7.384 68.28 28.28v32c0-11.04 4.48-21.04 11.72-28.28 25.016-25.016 68.28-7.383 68.28 28.28v160.02c0-11.04 4.48-21.04 11.71-28.28 24.904-24.94 68.29-7.541 68.29 28.28z" fill="#ffebd2"/><path d="m456 296.02v39.98c0 88.37-71.63 160-160 160h-80c-88.37 0-160-71.63-160-160v-152c0-11.04 4.48-21.04 11.72-28.28 25.016-25.015 68.28-7.384 68.28 28.28v-48c0-11.04 4.48-21.04 11.72-28.28 25.016-25.015 68.28-7.384 68.28 28.28v-32c0-11.04 4.48-21.04 11.72-28.28 25.016-25.015 68.28-7.384 68.28 28.28v32c0-11.04 4.48-21.04 11.72-28.28 25.016-25.016 68.28-7.383 68.28 28.28v160.02c0-11.04 4.48-21.04 11.71-28.28 24.904-24.94 68.29-7.541 68.29 28.28z" fill="#ffdfba"/><path d="m352 393.6c0 57.6-96 102.4-96 102.4s-24-11.2-48-29.6c-23.267-17.833-48-43.573-48-72.8 0-28.28 22.92-51.2 51.2-51.2 19.28 0 36.07 10.65 44.8 26.4 8.912-16.078 26.193-26.843 46.1-26.38 27.739.693 49.9 23.389 49.9 51.18z" fill="#ea8692"/><path d="m392 197.428v-109.428c0-42.575-45.765-69.339-82.706-49.212-7.278-22.483-28.418-38.788-53.294-38.788s-46.016 16.305-53.294 38.788c-35.883-19.551-80.77 5.187-82.647 46.647-36.869-17.612-80.059 9.337-80.059 50.565v200c0 97.047 78.953 176 176 176h80c97.047 0 176-78.953 176-176v-87.981c0-41.468-43.294-68.079-80-50.591zm-135.931 280.677c-30.495-16.126-80.069-50.11-80.069-84.505 0-19.409 15.791-35.199 35.2-35.199 12.794 0 24.598 6.957 30.806 18.156 6.081 10.97 21.901 10.981 27.988 0 11.386-20.542 39.21-24.334 55.692-7.854 6.651 6.651 10.314 15.493 10.314 24.897 0 35.503-52.56 70.234-79.931 84.505zm183.931-142.105c0 73.3-55.052 133.98-125.979 142.875 122.771-94.393 6.654-193.16-58.021-135.36-64.774-57.89-180.765 40.975-58.022 135.36-70.927-8.896-125.978-69.575-125.978-142.875v-200c0-13.233 10.767-24 24-24s24 10.767 24 24v120c0 8.837 7.164 16 16 16s16-7.163 16-16v-168c0-13.233 10.767-24 24-24s24 10.767 24 24v160c0 8.837 7.164 16 16 16s16-7.163 16-16v-192c0-13.233 10.767-24 24-24s24 10.767 24 24v192c0 8.837 7.164 16 16 16s16-7.163 16-16v-160c0-13.233 10.767-24 24-24s24 10.767 24 24v232c0 8.837 7.164 16 16 16s16-7.163 16-16v-71.981c0-13.228 10.761-23.994 23.99-24 13.226-.006 24.01 10.687 24.01 24z"/></svg>