<svg id="Layer_1" enable-background="new 0 0 512.013 512.013" height="512" viewBox="0 0 512.013 512.013" width="512" xmlns="http://www.w3.org/2000/svg"><path d="m408.005 384h-304v-40c0-83.947 68.053-152 152-152 83.714 0 152 67.821 152 152z" fill="#ffdfba"/><path d="m368.005 352v40c0 61.86-50.14 112-112 112s-112-50.14-112-112v-40z" fill="#ece2e2"/><path d="m366.865 352c-7.76 54.28-54.43 96-110.86 96s-103.1-41.72-110.86-96z" fill="#f2f2f2"/><path d="m424.005 417.84c0 17.438.51 12.81-13.95 51.36-16.033 42.719-82.05 31.782-82.05-14.5 0-8.208.586-8.453 14.46-50.09 12.096-36.268 62.838-38.644 78.1-3.42 2.21 5.1 3.44 10.73 3.44 16.65z" fill="#ffdfba"/><path d="m184.005 454.7c0 46.336-66.033 57.175-82.05 14.5-14.538-38.76-13.95-33.954-13.95-51.36 0-11.471 4.615-21.955 12.25-29.59 22.025-22.024 59.491-13.019 69.29 16.36 13.581 40.756 14.46 41.686 14.46 50.09z" fill="#ffdfba"/><g fill="#ffebd2"><path d="m420.565 401.19-10.51 28.01c-12.749 33.969-60.951 35.881-77.34 4.67l9.75-29.26c12.097-36.268 62.838-38.645 78.1-3.42z"/><path d="m179.295 433.87c-16.391 31.215-64.592 29.295-77.34-4.67l-10.51-28.01c15.253-35.205 65.999-32.863 78.1 3.42z"/><path d="m360.005 120c0 57.191-46.324 104-104 104-91.916 0-137.948-110.641-74.95-176.09 18.91-19.67 45.5-31.91 74.95-31.91 57.44 0 104 46.56 104 104z"/></g><path d="m354.955 152.09c-18.955 19.717-45.627 31.968-75.161 31.91-92.52-.184-137.725-119.331-74.61-154.757 81.905-45.972 178.723 33.61 149.771 122.847z" fill="#fff3e4"/><path d="m431.873 388.311c-2.556-66.978-23.548-163.063-85.694-189.227 67.641-77.032 12.906-199.084-90.174-199.084-103.211 0-157.715 122.064-90.226 199.024-62.101 26.162-82.899 121.945-85.628 189.264-8.611 14.425-8.146 26.422-8.146 36.125 0 13.493 3.372 19.481 14.97 50.406 14.586 38.901 64.416 48.615 93.618 22.815 47.891 19.138 102.895 19.154 150.824 0 29.267 25.857 79.063 16.003 93.618-22.814 11.728-31.274 14.97-37.124 14.97-50.407 0-9.712.553-21.537-8.132-36.102zm-208.427-350.065c-4.256 8.831-7.441 18.018-7.441 25.754 0 16.349 14.244 40 40 40s40-23.651 40-40c0-8.837-7.163-16-16-16-8.785 0-15.916 7.08-15.999 15.845-.153 1.034-2.458 8.155-8.001 8.155-5.496 0-7.816-7.039-7.998-8.144.14-4.85 7.241-18.619 15.981-31.49 44.796 4.047 80.017 41.801 80.017 87.634 0 48.523-39.477 88-88 88s-88-39.477-88-88c0-37.027 22.989-68.783 55.441-81.754zm-26.721 186.058c36.25 20.683 81.415 21.181 118.533.015 55.547 3.646 76.006 82.799 82.493 137.832-4.396-1.232-8.999-1.955-13.747-2.104v-8.047c0-8.837-7.163-16-16-16h-11.507l-12.97-51.881c-2.144-8.572-10.832-13.787-19.403-11.642-8.572 2.144-13.784 10.83-11.642 19.403l11.031 44.12h-135.015l11.03-44.119c2.143-8.573-3.069-17.26-11.642-19.403-8.574-2.138-17.261 3.069-19.403 11.642l-12.97 51.88h-11.507c-8.837 0-16 7.163-16 16v8.047c-4.75.149-9.355.873-13.752 2.106 6.565-54.953 26.965-134.472 82.471-137.849zm-56.099 255.696c-10.486 0-20.006-6.597-23.687-16.416-14.231-37.948-12.933-31.563-12.933-45.742 0-14.249 11.593-25.842 25.842-25.842 11.141 0 20.993 7.101 24.517 17.67 13.507 40.525 13.642 39.56 13.642 45.032 0 13.949-11.349 25.298-25.298 25.298zm57.294-10.018c3.055-11.025 2.739-22.614-.855-33.399l-1.528-4.583h84.468c8.837 0 16-7.163 16-16s-7.163-16-16-16c-102.45 0-95.052.249-95.284-.449-4.432-13.295-13.338-24.137-24.716-31.085v-.466c202.147 0 192-.249 192 .465-11.378 6.948-20.284 17.791-24.716 31.085l-12.345 37.033c-3.58 10.747-3.92 22.333-.854 33.398-35.85 12.867-77.607 13.84-116.17.001zm197.153-6.397c-3.682 9.818-13.201 16.415-23.688 16.415h-2.082c-17.218 0-29.457-16.927-24-33.298l12.344-37.032c3.523-10.569 13.376-17.67 24.517-17.67 14.249 0 25.842 11.593 25.842 25.842-.001 13.899 1.547 7.129-12.933 45.743z"/></svg>