<svg id="Layer_1" enable-background="new 0 0 512.009 512.009" height="512" viewBox="0 0 512.009 512.009" width="512" xmlns="http://www.w3.org/2000/svg"><path d="m477.569 121.282c-44.005 76.22-130.007 225.177-149.52 258.99l-84-48.5c37.054-64.171 146.277-253.345 149.53-258.98 36.389 21.018 10.515 6.078 83.99 48.49z" fill="#80aaff"/><path d="m477.569 121.282c-56.832 98.437-113.132 195.951-142.22 246.34-22.747-13.136-30.66-42.278-17.454-65.152l118.374-205.028c4.989 2.88 40.667 23.475 41.3 23.84z" fill="#6994ff"/><path d="m496.019 48.372c0 11.046-1.502 11.241-32.45 64.83l-56-32.33 28.12-48.69c7.65-13.26 23.28-19.03 37.31-14.81 13.456 4.066 23.02 16.48 23.02 31z" fill="#6994ff"/><path d="m496.019 48.372c0 10.446-3.082 13.959-16.02 36.38-18.962-10.949-25.559-35.243-14.548-54.309l7.548-13.071c13.456 4.066 23.02 16.48 23.02 31z" fill="#80aaff"/><path d="m314.049 372.182c-29.05 50.328-20.3 35.173-38.93 67.43-15.23 26.38-39.88 46.27-69.89 56.4-10.774-53.507 11.649-84.836 28.75-114.47l24.07-41.68z" fill="#999"/><path d="m289.979 413.882-14.86 25.73c-15.23 26.38-39.88 46.27-69.89 56.4-6.089-30.24-1.719-61.69 13.89-88.72l14.86-25.75z" fill="#b2b2b2"/><path d="m488.299 6.755c-23.165-13.709-53.011-5.885-66.469 17.427-21.659 37.513-20.034 34.882-20.256 34.755-7.651-4.42-17.438-1.797-21.856 5.856-1.181 2.045 5.824-.351-60.669 17.466-4.1 1.099-7.594 3.78-9.716 7.455l-68.601 118.82c-4.418 7.652-1.796 17.438 5.856 21.856 7.618 4.399 17.418 1.83 21.856-5.856l65.287-113.081 22.531-6.037-126.07 218.358c-4.296 7.441-2.051 17.307 5.999 21.938l-30.931 53.574c-13.171 22.813-19.505 49.073-18.551 75.804-19.286-4.529-37.753-10.156-57.525-19.452 130.578-83.76 26.638-179.513-33.168-130.212-59.866-49.353-163.594 46.567-33.139 130.229-9.125 4.301-18.311 7.976-27.917 11.178-8.383 2.794-12.914 11.855-10.119 20.238 2.799 8.398 11.871 12.909 20.238 10.119 17.708-5.903 34.102-13.192 50.939-22.675 36.773 20.702 67.431 28.704 102.06 35.808 2.544 1.271 5.474 1.895 8.553 1.622 4.407.389 8.569-1.055 11.745-3.752 29.999-12.066 54.865-33.33 70.596-60.577l30.931-53.573c8.134 4.68 17.73 1.618 21.999-5.774l149.523-258.981c4.416-7.647 1.795-17.438-5.856-21.856-.222-.128-1.697 2.609 19.971-34.92 13.181-22.832 5.447-52.33-17.241-65.757zm-456.28 363.924c0-14.704 11.962-26.667 26.667-26.667 9.693 0 18.636 5.271 23.339 13.757 6.081 10.97 21.901 10.981 27.988 0 13.308-24.009 50.006-14.543 50.006 12.91 0 27.503-41.984 55.62-63.957 67.393-23.915-12.849-64.043-40.346-64.043-67.393zm260.171 7.364-30.931 53.573c-9.957 17.245-24.73 31.42-42.612 41.147-.517-20.35 4.372-40.231 14.329-57.477l30.93-53.574c16.957 9.791 10.667 6.16 28.284 16.331zm29.999-19.63c-98.877-57.087-32.413-18.746-56.281-32.494l133.523-231.269 56.281 32.494zm127.354-318.231c4.546-7.876 14.63-10.52 22.458-5.888 7.665 4.536 10.279 14.503 5.825 22.217l-20.113 34.837-28.283-16.329z"/></svg>