<svg id="Layer_1" enable-background="new 0 0 512 512" height="512" viewBox="0 0 512 512" width="512" xmlns="http://www.w3.org/2000/svg"><path d="m80 248h-32c-17.673 0-32-14.327-32-32 0-17.624 14.278-32 32-32 17.624 0 32 14.278 32 32z" fill="#a592ea"/><path d="m432 248h32c17.673 0 32-14.327 32-32 0-17.624-14.278-32-32-32-17.624 0-32 14.278-32 32z" fill="#a592ea"/><path d="m136 96h240l64 176h-368z" fill="#8dffff"/><path d="m248 272h-112v-7.273c0-30.928 25.072-56 56-56 30.842 0 56 24.987 56 56z" fill="#4379ff"/><circle cx="192" cy="176" fill="#6994ff" r="32"/><path d="m376 272h-112v-7.273c0-30.928 25.072-56 56-56 30.842 0 56 24.987 56 56z" fill="#fe929f"/><circle cx="320" cy="176" fill="#ffa4b8" r="32"/><path d="m496 328v88h-480v-88c0-30.928 25.072-56 56-56h368c30.928 0 56 25.072 56 56z" fill="#a592ea"/><path d="m496 328c0 26.436-21.417 48-48 48h-384c-26.51 0-48-21.49-48-48 0-30.842 24.987-56 56-56h368c30.928 0 56 25.072 56 56z" fill="#b49ef2"/><path d="m104 496h-32c-13.255 0-24-10.745-24-24v-56h80v56c0 13.255-10.745 24-24 24z" fill="#999"/><path d="m440 496h-32c-13.255 0-24-10.745-24-24v-56h80v56c0 13.255-10.745 24-24 24z" fill="#999"/><path d="m471.701 263.374c22.818-3.696 40.299-23.528 40.299-47.374 0-45.59-57.998-65.51-85.989-29.29l-19.654-54.049c-11.455-31.498-41.669-52.661-75.184-52.661h-150.346c-33.516 0-63.729 21.163-75.184 52.661l-19.654 54.049c-27.99-36.218-85.989-16.303-85.989 29.29 0 23.846 17.481 43.678 40.299 47.374-23.847 11.746-40.299 36.296-40.299 64.626v88c0 8.837 7.163 16 16 16h16v40c0 22.056 17.944 40 40 40h32c22.056 0 40-17.944 40-40v-40h224v40c0 22.056 17.944 40 40 40h32c22.056 0 40-17.944 40-40v-40h16c8.837 0 16-7.163 16-16v-88c0-28.33-16.452-52.88-40.299-64.626zm-23.701-47.374c0-8.822 7.178-16 16-16s16 7.178 16 16-7.178 16-16 16h-16zm-312.282-72.403c6.872-18.899 25-31.597 45.109-31.597h150.346c20.109 0 38.237 12.697 45.109 31.597l40.875 112.403h-25.705c-2.641-21.745-15.004-40.52-32.609-51.848 22.882-31.486.383-76.152-38.843-76.152-39.233 0-61.72 44.673-38.843 76.152-10.622 6.835-19.333 16.378-25.157 27.654-5.824-11.276-14.535-20.819-25.157-27.654 22.882-31.486.383-76.152-38.843-76.152-39.233 0-61.72 44.673-38.843 76.152-17.605 11.328-29.968 30.104-32.609 51.848h-25.705zm56.282 48.403c-8.822 0-16-7.178-16-16s7.178-16 16-16 16 7.178 16 16-7.178 16-16 16zm0 32.728c19.06 0 35.048 13.399 39.041 31.272h-78.082c3.993-17.873 19.981-31.272 39.041-31.272zm128-32.728c-8.822 0-16-7.178-16-16s7.178-16 16-16 16 7.178 16 16-7.178 16-16 16zm0 32.728c19.06 0 35.048 13.399 39.041 31.272h-78.082c3.993-17.873 19.981-31.272 39.041-31.272zm-288-8.728c0-8.822 7.178-16 16-16s16 7.178 16 16v16h-16c-8.822 0-16-7.178-16-16zm80 256c0 4.411-3.589 8-8 8h-32c-4.411 0-8-3.589-8-8v-40h48zm336 0c0 4.411-3.589 8-8 8h-32c-4.411 0-8-3.589-8-8v-40h48zm32-72c-52.657 0-401.049 0-448 0v-72c0-22.056 17.944-40 40-40h368c22.056 0 40 17.944 40 40z"/><path d="m408 312c-17.645 0-32 14.355-32 32s14.355 32 32 32 32-14.355 32-32-14.355-32-32-32z" fill="#efd66c"/><path d="m96 312c-17.645 0-32 14.355-32 32s14.355 32 32 32 32-14.355 32-32-14.355-32-32-32z" fill="#efd66c"/><path d="m304 344h-96c-8.837 0-16 7.163-16 16s7.163 16 16 16h96c8.837 0 16-7.163 16-16s-7.163-16-16-16z" fill="#999"/><path d="m309 28.264c0 23.947-31.327 46.417-53 56.536-13.547-6.325-31.275-18.235-41.65-30.422-24.26-28.386-5.021-54.378 16.914-54.378 10.646 0 19.913 5.883 24.736 14.575 4.823-8.692 14.09-14.575 24.736-14.575 15.612 0 28.264 12.651 28.264 28.264z"/></svg>