<svg id="Layer_1" enable-background="new 0 0 512 512" height="512" viewBox="0 0 512 512" width="512" xmlns="http://www.w3.org/2000/svg"><path d="m456 328.27c0 119.88-89.54 167.73-200 167.73s-200-47.85-200-167.73c0-117.735 88.045-256.27 200-256.27 111.696 0 200 138.044 200 256.27z" fill="#c79a83"/><path d="m454.78 303.69c-11.03 102.73-95.82 144.31-198.78 144.31s-187.75-41.58-198.78-144.31c11.03-113.18 95.81-231.69 198.78-231.69s187.75 118.51 198.78 231.69z" fill="#e0b7a3"/><path d="m288 336c0 17.673-14.327 40-32 40s-32-22.327-32-40 14.327-16 32-16 32-1.673 32 16z" fill="#999"/><path d="m496 106.51v36.3c0 35.785-42.631 54.827-69.27 30.85l-50.73-45.66-72-48c7.544-7.544 29.939-29.939 37.49-37.49 35.071-35.071 92.385-35.615 128 0 16.824 16.824 26.51 39.618 26.51 64z" fill="#a07765"/><path d="m495.24 94.74c-6.144 31.536-44.533 44.501-68.51 22.92l-50.73-45.66-38.4-25.6 3.89-3.89c53.557-53.556 144.245-21.062 153.75 52.23z" fill="#c79a83"/><path d="m208 80-72 48-50.73 45.66c-26.749 24.076-69.27 4.831-69.27-30.85v-36.3c0-24.37 9.678-47.168 26.51-64 35.606-35.606 92.919-35.081 128 0 7.551 7.551 29.945 29.945 37.49 37.49z" fill="#a07765"/><path d="m174.4 46.4-38.4 25.6-50.73 45.66c-24.151 21.738-62.411 8.391-68.51-22.92 9.509-73.327 100.212-105.767 153.75-52.23z" fill="#c79a83"/><path d="m344 364c-8.836 0-16 7.163-16 16 0 15.439-12.561 28-28 28-12.707 0-23.457-8.512-26.866-20.131 26.753-13.18 41.146-56.046 22.366-74.678-11.067-10.981-27.069-9.081-43.606-9.213-12.731-.092-25.905-.201-35.394 9.213-18.945 18.796-4.197 61.591 22.367 74.678-3.41 11.619-14.16 20.131-26.867 20.131-15.439 0-28-12.561-28-28 0-8.837-7.164-16-16-16s-16 7.163-16 16c0 54.646 67.135 80.525 104 40.735 36.846 39.769 104 13.95 104-40.735 0-8.837-7.164-16-16-16zm-72.002-27.726c-.151 11.287-9.587 23.726-15.998 23.726s-15.847-12.439-15.998-23.726c3.744-.451 28.514-.419 31.996 0z"/><path d="m405.49 0c-28.449 0-55.196 11.079-75.314 31.196l-31.022 31.022c-28.482-8.288-57.799-8.297-86.309 0l-31.022-31.022c-20.117-20.117-46.864-31.196-75.313-31.196-58.73 0-106.51 47.78-106.51 106.51v36.299c0 32.007 25.978 57.511 57.511 57.509 6.354-.001 12.64-1.302 12.689-1.407-30.357 64.909-43.217 149.114-12.94 213 35.102 74.027 116.628 100.089 198.74 100.089 82.238 0 163.672-26.134 198.74-100.09 30.301-63.937 17.402-148.123-12.94-213-.055-.118 5.025 1.407 12.689 1.407 31.506-.002 57.511-25.469 57.511-57.508v-36.299c0-58.73-47.78-106.51-106.51-106.51zm-373.49 142.809v-36.299c0-65.968 80.386-99.495 127.196-52.687l21.499 21.499c-17.494 9.227-34.809 21.854-51.203 38.065-3.284 1.463.244-1.276-54.927 48.378-16.399 14.759-42.565 3.007-42.565-18.956zm224 337.191c-68.72 0-184-19.71-184-151.73 0-55.35 20.73-116.5 55.46-163.6 74.923-101.596 181.334-102.713 257.08 0 34.73 47.1 55.46 108.25 55.46 163.6 0 132.02-115.28 151.73-184 151.73zm224-337.191c0 21.962-26.165 33.719-42.565 18.957-54.819-49.337-51.606-46.898-54.928-48.378-16.395-16.212-33.708-28.837-51.202-38.065l21.499-21.499c46.825-46.825 127.196-13.25 127.196 52.686z"/><path d="m180 272c15.44 0 28-12.56 28-28s-12.56-28-28-28-28 12.56-28 28 12.56 28 28 28z"/><path d="m332 216c-15.44 0-28 12.56-28 28s12.56 28 28 28 28-12.56 28-28-12.56-28-28-28z"/></svg>