<svg id="Layer_1" enable-background="new 0 0 511.974 511.974" height="512" viewBox="0 0 511.974 511.974" width="512" xmlns="http://www.w3.org/2000/svg"><path d="m391.963 68.034c0 18.265-5.153 22.797-43.31 88.88l-76.07-76.23 22.34-38.7c5.75-9.96 14.3-17.3 24.09-21.59 34.438-15.125 72.95 10.11 72.95 47.64z" fill="#ffdfba"/><path d="m391.963 68.034c0 17.475-6.943 25.886-23.17 54l-41.965-42.05c-15.779-15.811-18.983-40.244-7.815-59.59.314-.545 23.454-11.002 46.94 2.56 16.68 9.62 26.01 27.1 26.01 45.08z" fill="#fff3e4"/><path d="m431.963 272.344c0 16.768-.658 30.84-4.62 49.78-14.566 69.787-62.657 129.207-130.27 157.22-31.384 12.991-58.88 16.63-89.11 16.63-20.73 0-40.6-8.23-55.26-22.89l-59.49-59.86c-19.522-19.522-16.983-51.506 4.4-67.86 16.501-12.736 39.745-12.5 55.98.61l-18-18c-17.709-17.73-17.624-46.353 0-64 17.566-17.565 45.951-17.659 63.63-.37-19.192-19.192-17.376-50.973 4.39-67.87 17.76-13.69 43.34-12.4 59.61 3.87-16.18-16.508-.091-.305-98.01-98.38-19.207-19.207-17.356-51.089 4.4-67.87 17.715-13.674 43.319-12.411 59.6 3.87 123.146 123.405 120.394 120.646 180.12 180.49 14.123 14.123 22.63 33.615 22.63 54.63z" fill="#ffdfba"/><path d="m431.963 272.344c0 16.768-.658 30.84-4.62 49.78-23.124 49.373-63.85 88.33-114.27 109.22-31.384 12.991-58.88 16.63-89.11 16.63-20.73 0-40.6-8.23-55.26-22.89l-59.49-59.86c-5.72-5.72-9.58-12.58-11.6-19.86 16.476-12.718 39.733-12.523 55.98.61l-18-18c-9.675-9.686-14.255-22.946-13.07-35.97 3.37-12.41 4.65-17.13 8-21.75 17.9-24.677 49.975-24.96 68.7-6.65-18.243-18.243-16.65-47.55-1.24-61.89 2.2-2 2.88-2.79 5.63-5.98 17.872-13.777 43.445-12.295 59.61 3.87-14.668-14.965 2.845 2.636-98.01-98.38-15.67-15.67-17.44-39.97-5.32-57.6 15.97-23.332 49.315-26.405 69.32-6.4 136.778 137.062 84.515 84.696 180.12 180.49 14.123 14.123 22.63 33.615 22.63 54.63z" fill="#fff3e4"/><g fill="#ffdfba"><path d="m211.903 408.204-68.37-68.38c3.54 1.57 6.93 3.62 10.06 6.15l-18-18c-9.675-9.686-14.255-22.946-13.07-35.97 3.37-12.41 4.65-17.13 8-21.75l81.38 81.38c15.62 15.62 15.62 40.94 0 56.57z"/><path d="m279.903 340.204c-89.941-89.941-89.91-89.819-89.91-89.92-7.872-17.379-3.613-37.773 7.99-48.57l81.92 81.92c15.62 15.62 15.62 40.94 0 56.57z"/><path d="m339.903 280.204-89.67-89.68c4.71 2.17 9.11 5.2 12.99 9.08-14.668-14.965 2.845 2.636-98.01-98.38-15.67-15.67-17.44-39.97-5.32-57.6l180.01 180.01c15.62 15.62 15.62 40.94 0 56.57z"/></g><path d="m446.863 258.144c-3.011-19.507-12.207-37.735-26.204-51.732l-52.016-52.123 30.195-52.303c18.904-32.726 7.363-74.291-24.884-92.888-32.469-18.749-74.137-7.584-92.888 24.887l-11.903 20.62-28.636-28.695c-23.933-23.933-62.692-23.935-86.627 0-23.884 23.883-23.884 62.744-.01 86.618l60.195 60.289c-27.114 7.853-45.506 33.385-43.999 62.039-45.775-1.822-77.194 45.117-58.217 86.587-46.689 10.331-64.222 68.842-30.002 103.059l59.522 59.896c17.782 17.783 41.426 27.576 66.573 27.576 31.812 0 61.227-3.765 95.233-17.851 87.558-36.268 144.767-121.709 144.767-216.659.001-14.179.336-15.655-1.099-19.32zm-138.084-208.159c9.927-17.189 31.987-23.099 49.181-13.171 17.018 9.815 23.211 31.779 13.167 49.17l-25.892 44.849-52.663-52.771zm107.184 227.479c0 106.648-83.327 202.51-208 202.51-16.601 0-32.207-6.465-43.911-18.168l-59.522-59.896c-11.403-11.403-11.402-29.964-.006-41.366 10.646-10.635 27.127-11.237 38.436-2.576l49.5 49.5c3.124 3.125 7.219 4.687 11.313 4.687 14.127 0 21.422-17.206 11.313-27.313-59.543-59.544-43.01-43.384-46.557-46.93-4.008-4.009 3.547 3.92-21.616-21.244-11.444-11.457-11.423-29.95-.01-41.375 11.306-11.301 29.922-11.455 41.376-.003 2.395 2.395-13.222-13.592 68.37 68 6.247 6.248 16.379 6.249 22.627 0 6.249-6.248 6.249-16.379 0-22.627-73.874-73.874-68.263-68.405-69.895-69.598-10.231-11.471-9.849-29.131 1.155-40.135 11.781-11.656 30.207-11.177 41.373-.01 75.17 75.17 69.054 69.239 70.931 70.508 5.338 3.61 12.629 3.748 18.217-.244 8.147-5.81 9.058-17.413 2.098-24.383l-166.628-166.89c-11.406-11.407-11.406-29.966 0-41.373 11.434-11.433 29.956-11.416 41.361-.012 484.835 485.833-300.315-300.933 180.132 180.502 9.925 9.924 16.182 23.07 17.617 37.013.403 3.91.326 6.336.326 11.423z"/></svg>