<svg id="Layer_1" enable-background="new 0 0 512 512" height="512" viewBox="0 0 512 512" width="512" xmlns="http://www.w3.org/2000/svg"><path d="m496 144.001c0 62.222-44.83 117.468-91.27 158.43-22.161 22.161-94.953 72.475-148.73 97.57 0 0-135-63-202.5-155.25-71.73-98.1-28.759-183.484 32.2-214.73 60.223-30.851 136.155-9.584 170.3 51.98 41.372-74.556 142.467-88.527 202.51-28.51 23.16 23.17 37.49 55.17 37.49 90.51z" fill="#fe929f"/><path d="m496 144.001c0 62.109-44.666 117.329-91.293 158.45-.086.069-1.631 1.191-1.72 1.256-63.821 46.342-150.253 46.289-214.065-.065-49.379-35.87-103.028-85.48-123.942-142.831-28.382-77.903 13.316-144.495 78.39-144.808 48.37-.233 90.658 26.384 112.63 65.998 8.74-15.75 20.7-29.47 35-40.25l18.7-11.73c84.753-43.443 186.3 18.181 186.3 113.98z" fill="#ffa4b8"/><path d="m496 144.001v96c0 68.8-54.78 130.29-112 175.75-40.555 32.248-92.81 63.827-128 80.25 0 0-135-63-202.5-155.25-22.5-30.75-37.5-64.75-37.5-100.75v-96c0 37.056 15.878 71.184 37.5 100.75 67.5 92.25 202.5 155.25 202.5 155.25 22.166-10.348 62.313-33.721 72-40.51 75.405-48.043 168-126.096 168-215.49z" fill="#ea8692"/><path d="m227.72 212.281c-27.105 27.106-28.448 29.664-36.79 33.14-22.425 9.234-46.93-7.261-46.93-31.36v-60.12c0-30.248 36.716-45.224 57.94-24l25.78 25.78c-15.577 15.579-15.685 40.875 0 56.56z" fill="#ffe773"/><path d="m368 153.941v60.12c0 30.249-36.716 45.224-57.94 24-6.601-6.601-19.156-19.156-25.78-25.78 15.628-15.627 15.634-40.924 0-56.56l25.78-25.78c21.219-21.22 57.94-6.258 57.94 24z" fill="#ffe773"/><path d="m296 184.001c0 22.083-17.903 40-40 40-22.077 0-40-17.897-40-40 0-22.086 17.905-40 40-40 22.078 0 40 17.897 40 40z" fill="#ffec8f"/><path d="m495.74 152.001c-1.363 22.64-8.557 44.119-19.1 64h-108.69v-64z" fill="#efd66c"/><path d="m144.05 152.001v64h-108.69c-10.542-19.878-17.737-41.357-19.1-64z" fill="#efd66c"/><path d="m256 400.001v96" fill="#8bc4ff"/><path d="m469.821 42.176c-60.976-60.951-160.451-54.659-213.821 11.312-27.081-33.474-68.12-53.487-112-53.487-79.402 0-144 64.598-144 144v96c0 36.315 13.656 73.391 40.587 110.198 69.13 94.478 202.982 157.657 208.646 160.301 4.096 1.911 8.958 2.056 13.336.079 41.016-18.531 155.03-83.743 211.977-164.748 24.852-35.352 37.454-70.958 37.454-105.83v-96c0-38.452-14.978-74.613-42.179-101.825zm-405.779 189.825h67.304c13.064 33.814 56.489 42.8 81.907 17.374l16.111-16.111c16.255 8.83 36.424 9.147 53.268-.002l16.113 16.113c25.374 25.376 68.823 16.494 81.908-17.374h67.339c-54.967 77.785-163.837 135.993-191.999 150.177-66.963-33.664-148.994-89.373-191.951-150.177zm142.663-74.574c-8.943 16.586-8.91 36.68.027 53.214-16.916 16.916-17.522 18.163-21.894 19.985-11.919 4.908-24.838-3.87-24.838-16.565v-60.12c0-15.881 19.356-23.956 30.626-12.686 16.857 16.856 16.133 16.072 16.079 16.172zm-78.705 42.574h-82.723c-4.758-10.234-8.462-20.748-10.775-32h93.498zm110.049-31.933c8.011-9.161 22.208-10.878 32.308-3.299 11.511 8.695 12.726 24.813 3.589 35.17-8.047 9.198-22.244 10.842-32.304 3.293-11.415-8.623-12.801-24.725-3.593-35.164zm67.22-10.708c16.916-16.915 17.522-18.162 21.895-19.984 11.916-4.908 24.836 3.869 24.836 16.565v60.12c0 15.88-19.357 23.957-30.626 12.686l-16.11-16.11c8.961-16.504 8.981-36.679.005-53.277zm172.229 10.641c-2.299 11.179-5.99 21.687-10.77 32h-82.728v-32zm-333.498-136c40.693 0 78.248 22.132 98.008 57.76 6.082 10.965 21.896 10.977 27.984 0 19.76-35.628 57.314-57.76 98.008-57.76 59.161 0 107.636 45.835 111.717 104h-99.063c-13.065-33.815-56.488-42.798-81.907-17.374l-16.112 16.112c-16.264-8.835-36.433-9.141-53.268.002l-16.114-16.113c-25.374-25.375-68.822-16.494-81.907 17.374h-99.057c4.116-58.038 52.644-104.001 111.711-104.001zm-111.986 209.776c45.062 69.394 134.108 131.043 207.986 168.21v59.839c-83.919-45.301-206.468-132.281-207.986-228.049zm239.986 228.069v-59.872c73.295-36.998 163.072-98.868 207.984-168.107-1.599 95.466-123.981 182.715-207.984 227.979z"/></svg>