<svg id="Layer_1" enable-background="new 0 0 512 512" height="512" viewBox="0 0 512 512" width="512" xmlns="http://www.w3.org/2000/svg"><path d="m415.381 277.85c0 88.069-71.39 218.15-159.41 218.15-88.04 0-159.41-130.1-159.41-218.15 0-64.978 39.144-104.857 101.29-119.54 27.06 11.71 56.78 9.56 57.88 9.48.153 0 .24-5.557.24-6.91 0 1.205.092 6.91.24 6.91 1.1.08 30.82 2.23 57.88-9.48 59.3 14.03 101.29 52.01 101.29 119.54z" fill="#fe929f"/><path d="m415.381 277.85c0 49.94-22.96 113.41-58.9 158.99-18.945 14.207-41.035 23.87-65.01 23.87-67.44 0-125.1-76.34-148.39-151.64-13.316-43.076-17.99-92.398 5.77-130.9 14.22-8.99 30.8-15.56 49-19.86 27.06 11.71 56.78 9.56 57.88 9.48.153 0 .24-5.557.24-6.91 0 1.205.092 6.91.24 6.91 1.1.08 30.82 2.23 57.88-9.48 59.3 14.03 101.29 52.01 101.29 119.54z" fill="#ffa4b8"/><path d="m270.841 152.38c-.312.374-.077.101-.01 0z" fill="#8bc4ff"/><path d="m397.729 360.497c-26.062 69.681-80.253 135.503-142.875 135.503-60.882 0-113.793-62.214-140.642-129.713 2.066-1.374 4.206-2.884 6.398-4.531 33.561-25.171 8.39-92.293 58.732-92.293s19.224 83.902 75.512 83.902c25.171 0 33.561-50.341 75.512-50.341s8.39 50.341 50.341 58.732c5.706 1.143 11.411.577 17.022-1.259z" fill="#a07765"/><path d="m397.731 360.5c-10.5 28.07-25.56 55.52-43.91 78.28-19.15 13.71-40.22 21.93-62.35 21.93-67.44 0-125.1-76.34-148.39-151.64 4.23-21.17 9.88-39.61 36.26-39.61 50.34 0 19.23 83.91 75.51 83.91 25.17 0 33.56-50.35 75.52-50.35 41.95 0 8.39 50.35 50.34 58.74 5.7 1.14 11.41.57 17.02-1.26z" fill="#c79a83"/><path d="m294.071 75.9c-7.94-34.24-38.1-59.9-38.1-59.9s-30.16 25.66-38.1 59.9c-6.529 28.007 5.005 54.236 23.23 76.48 6.845 8.359 14.435 15.41 14.66 15.41 0 0 .21-2.58.21-6.91 0 1.205.092 6.91.24 6.91 26.055-23.907 45.929-57.278 37.86-91.89z" fill="#99d856"/><path d="m270.841 152.38c-.312.374-.077.101-.01 0z" fill="#8bc4ff"/><path d="m338.201 142.34c-20.334 20.334-55.655 27.365-81.99 25.45 25.703-23.582 45.941-57.228 37.86-91.89 29.86-18.79 69.59-15.59 69.59-15.59s4.22 52.35-25.46 82.03z" fill="#90c94f"/><path d="m270.841 152.38c-.312.374-.077.101-.01 0z" fill="#8bc4ff"/><path d="m255.731 167.79c-26.494 1.927-61.732-5.192-81.99-25.45-29.68-29.68-25.46-82.03-25.46-82.03s39.73-3.2 69.59 15.59c-6.529 28.007 5.005 54.236 23.23 76.48 7.14 8.72 13.35 14.29 14.63 15.41z" fill="#90c94f"/><path d="m349.911 153.246c34.077-34.556 29.893-91.793 29.697-94.222-.631-7.822-6.842-14.033-14.664-14.663-1.526-.122-31.927-2.377-61.661 9.161-12.893-28.98-35.785-48.722-36.944-49.708-5.977-5.085-14.76-5.085-20.736 0-1.16.987-24.057 20.734-36.947 49.708-29.733-11.537-60.132-9.283-61.659-9.16-7.822.63-14.033 6.84-14.664 14.663-.196 2.429-4.38 59.666 29.697 94.222-86.63 37.256-97.314 123.592-63.806 213.05 0 1.977.355 3.978 1.121 5.904 26.767 67.289 83.2 139.799 155.508 139.799 99.539 0 176.527-137.573 176.527-234.15.001-59.558-29.957-102.451-81.469-124.604zm-215.322 217.639c15.721-14.618 19.806-35.874 23.133-53.232 5.304-27.677 8.335-32.19 21.62-32.19 10.21 0 13.322 4.492 19.591 28.273 3.023 11.471 6.45 24.473 13.887 35.054 9.594 13.652 23.736 20.575 42.034 20.575 36.019 0 42.878-50.341 75.513-50.341 4.187 0 6.26.742 6.583 1.209 5.149 7.446-.972 46.143 36.682 56.291-22.351 47.538-65.721 103.031-118.18 103.463-54.075-.402-98.665-59.278-120.863-109.102zm159.382-222.618c-1.92.49 20.942-26.6 17.673-63.603 12.462-5.488 25.948-7.521 35.882-8.219-3.11 44.544-22.464 63.885-53.555 71.822zm-38.016-109.431c31.477 36.305 31.996 69.256.274 106.052-.677-.011-.369.202-1.537-1.186-30.248-35.912-30.504-68.278 1.263-104.866zm-55.658 45.827c-3.322 37.592 19.77 64.136 17.766 63.626-36.836-9.364-50.994-33.875-53.65-71.844 9.94.699 23.425 2.732 35.884 8.218zm-3.596 90.43c10.637 3.991 22.016 6.475 33.079 7.771 15.035 1.763 23.484.86 28.151 1.036 18.179.69 39.563-2.143 57.309-8.806 82.998 22.052 99.631 88.632 71.708 171.249-1.065.017-2.097-.074-3.103-.276-9.108-1.821-10.23-4.531-12.444-18.935-1.236-8.04-2.638-17.152-8.129-25.095-6.887-9.961-17.958-15.012-32.905-15.012-31.257 0-48.088 20.723-60.377 35.854-5.242 6.455-11.767 14.488-15.136 14.488-14.534 0-18.386-6.773-24.978-31.785-2.96-11.229-6.021-22.84-12.557-32.578-8.703-12.966-21.48-19.54-37.978-19.54-18.634 0-32.542 7.195-41.338 21.384-10.891 17.569-10.839 41.306-16.968 58.758-22.347-78.863-1.669-137.966 75.666-158.513z"/><g fill="#ea8692"><path d="m327.971 232c8.837 0 16-7.164 16-16v-8c0-8.836-7.163-16-16-16s-16 7.164-16 16v8c0 8.836 7.163 16 16 16z"/><path d="m279.971 288c8.837 0 16-7.164 16-16v-8c0-8.836-7.163-16-16-16s-16 7.164-16 16v8c0 8.836 7.163 16 16 16z"/><path d="m367.971 288c8.837 0 16-7.164 16-16v-8c0-8.836-7.163-16-16-16s-16 7.164-16 16v8c0 8.836 7.163 16 16 16z"/><path d="m223.971 232c8.837 0 16-7.164 16-16v-8c0-8.836-7.163-16-16-16s-16 7.164-16 16v8c0 8.836 7.163 16 16 16z"/></g></svg>