<?xml version="1.0"?>
<svg xmlns="http://www.w3.org/2000/svg" id="flat" viewBox="0 0 64 64" width="512" height="512"><path d="M37.17158,16A6.82841,6.82841,0,0,0,42,14h0a6.82841,6.82841,0,0,1,4.82842-2h0a11.61166,11.61166,0,0,1,11.29589,8.92216l.44144,1.854a35.42727,35.42727,0,0,1-1.10052,20.12113l-3.713,10.39644A11.61165,11.61165,0,0,1,42.81705,61H38.84163a6.64884,6.64884,0,0,1-3.42081-.94751h0a6.64884,6.64884,0,0,0-6.84162,0h0A6.64884,6.64884,0,0,1,25.15837,61H21.183a11.61165,11.61165,0,0,1-10.93518-7.70623l-3.713-10.39644A35.42727,35.42727,0,0,1,5.43424,22.7762l.44144-1.85405A11.61165,11.61165,0,0,1,17.17156,12h0A6.82841,6.82841,0,0,1,22,14h0a6.82841,6.82841,0,0,0,4.82842,2Z" style="fill:#e5644e"/><path d="M34,23V12.4148a4.41483,4.41483,0,0,1,.82234-2.56607h0A4.4148,4.4148,0,0,1,38.4148,8H42a2,2,0,0,0,2-2V5a2,2,0,0,0-2-2H37.40512a9.4051,9.4051,0,0,0-7.22521,3.38411h0A9.40509,9.40509,0,0,0,28,12.40512V23Z" style="fill:#eea95d"/><path d="M32.87891,24H29.12109A6.08093,6.08093,0,0,1,24.793,22.207,4.0946,4.0946,0,0,0,21.87891,21H17V19h4.87891A6.08093,6.08093,0,0,1,26.207,20.793,4.0946,4.0946,0,0,0,29.12109,22h3.75782A4.0946,4.0946,0,0,0,35.793,20.793,6.08093,6.08093,0,0,1,40.12109,19H45v2H40.12109A4.0946,4.0946,0,0,0,37.207,22.207,6.08093,6.08093,0,0,1,32.87891,24Z" style="fill:#cc5945"/></svg>
