<?xml version="1.0"?>
<svg xmlns="http://www.w3.org/2000/svg" id="flat" viewBox="0 0 64 64" width="512" height="512"><path d="M57,27V25.48528a6,6,0,0,0-1.75736-4.24264L53,19H50V31h7Z" style="fill:#4bbf6b"/><path d="M7,27V25.48528a6,6,0,0,1,1.75736-4.24264L11,19h3V31H7Z" style="fill:#4bbf6b"/><path d="M14,41l-3.85643-2.14246A10,10,0,0,1,5,30.116V29a2,2,0,0,1,2-2h.52786a2,2,0,0,1,.89443.21115L12,29h5V41Z" style="fill:#4ec66f"/><path d="M52,29l3.57771-1.78885A2,2,0,0,1,56.47214,27H57a2,2,0,0,1,2,2v1.116a10,10,0,0,1-5.14357,8.74157L50,41H47V29Z" style="fill:#4ec66f"/><path d="M39,20H25V10l2.84832-4.98456A4,4,0,0,1,31.32129,3h1.35742a4,4,0,0,1,3.473,2.01544L39,10Z" style="fill:#49b968"/><rect x="25" y="47" width="14" height="15" style="fill:#49b968"/><path d="M39,31V19.20465a10,10,0,0,0-1.86267-5.81238l-2.5391-3.55475A2,2,0,0,0,32.97076,9H31.02924a2,2,0,0,0-1.62747.83752l-2.5391,3.55475A10,10,0,0,0,25,19.20465V31Z" style="fill:#52d276"/><path d="M17,25V16.68375a10,10,0,0,1,3.59816-7.68221l2.12371-1.76976A1,1,0,0,1,23.36205,7H24a1,1,0,0,1,1,1V25Z" style="fill:#4ec66f"/><path d="M34,57l1.41421-1.41421A2,2,0,0,1,36.82843,55H40a2,2,0,0,1,2,2v.17157a2,2,0,0,1-.58579,1.41422l-.82842.82842A2,2,0,0,0,40,60.82843V62" style="fill:#4ec66f"/><path d="M40,62V60.82843a2,2,0,0,1,.58579-1.41422l.82842-.82842A2,2,0,0,0,42,57.17157V57a2,2,0,0,0-2-2H36.82843a2,2,0,0,0-1.41422.58579L34,57v5Z" style="fill:#4ec66f"/><path d="M24,62V57.82843a2,2,0,0,0-.58579-1.41422l-.82842-.82842A2,2,0,0,1,22,54.17157V54a2,2,0,0,1,2-2h3.17157a2,2,0,0,1,1.41422.58579L30,54v8Z" style="fill:#50cc73"/><path d="M47,25V16.68375a10,10,0,0,0-3.59816-7.68221L41.27813,7.23178A1,1,0,0,0,40.63795,7H40a1,1,0,0,0-1,1V25Z" style="fill:#4ec66f"/><path d="M15,33l-1.07093-1.07075a10,10,0,0,1-2.92954-7.07219l.00036-6.85717a2,2,0,0,1,2-1.99989H14a2,2,0,0,1,1.6.8L21,24V37H15Z" style="fill:#52d276"/><path d="M43,24l5.4-7.2A2,2,0,0,1,50,16h1.00011a2,2,0,0,1,2,1.99989l.00036,6.85717a10,10,0,0,1-2.92954,7.07219L49,33v4H43Z" style="fill:#52d276"/><path d="M32,42V31.20465a10,10,0,0,0-1.86267-5.81238l-2.5391-3.55475A2,2,0,0,0,25.97076,21H24.02924a2,2,0,0,0-1.62747.83752l-2.5391,3.55475A10,10,0,0,0,18,31.20465V42Z" style="fill:#55d97a"/><path d="M32,42V31.20465a10,10,0,0,1,1.86267-5.81238l2.5391-3.55475A2,2,0,0,1,38.02924,21h1.94152a2,2,0,0,1,1.62747.83752l2.5391,3.55475A10,10,0,0,1,46,31.20465V42Z" style="fill:#55d97a"/><path d="M23.97052,45H18a4,4,0,0,1-4-4V35a2,2,0,0,1,2-2h.86762a2,2,0,0,1,1.715.971L24,43Z" style="fill:#52d276"/><path d="M40,45h6a4,4,0,0,0,4-4V35a2,2,0,0,0-2-2h-.86762a2,2,0,0,0-1.715.971L40,43Z" style="fill:#52d276"/><path d="M23,44v-.34315a4,4,0,0,1,1.17157-2.82842l5.24264-5.24264A2,2,0,0,1,30.82843,35h2.34314a2,2,0,0,1,1.41422.58579l5.24264,5.24264A4,4,0,0,1,41,43.65685V44a4,4,0,0,1-4,4H27A4,4,0,0,1,23,44Z" style="fill:#5ae581"/></svg>
