<svg id="flat" height="512" viewBox="0 0 64 64" width="512" xmlns="http://www.w3.org/2000/svg"><path d="m36 35v9a10 10 0 0 0 10 10h2.5858a3.41421 3.41421 0 0 0 2.4142-1 3.41421 3.41421 0 0 1 2.41421-1h1.58579a2 2 0 0 1 2 2v5a2 2 0 0 1 -2 2h-1.58579a3.41421 3.41421 0 0 1 -2.41421-1 3.41421 3.41421 0 0 0 -2.41421-1h-3.37469a4 4 0 0 0 -2.2188.6718l-.9846.6564a4 4 0 0 1 -2.2188.6718h-5.7889a14 14 0 0 1 -14-14v-12z" fill="#e6c762"/><path d="m36 32v-21a8 8 0 0 0 -8-8 8 8 0 0 0 -8 8v21z" fill="#ffe9a0"/><path d="m36.60742 56.91992-.21484-.0918a12.18372 12.18372 0 0 1 -7.39258-11.20996v-9.61816h2v9.61816a10.18644 10.18644 0 0 0 6.17871 9.3711l.21387.09082z" fill="#ccb157"/><path d="m41 31a8 8 0 0 1 8 8v7a2 2 0 0 1 -2 2h-3a4 4 0 0 1 -4-4v-3a2 2 0 0 0 -2-2h-2.76393a3.618 3.618 0 0 1 -3.23607-2v-6z" fill="#f9d76a"/><path d="m30.618 37h-2.618a12 12 0 0 0 -12 12v5a2 2 0 0 1 -2 2h-1a6 6 0 0 1 -6-6v-3a18 18 0 0 1 18-18h8.382a2.61811 2.61811 0 0 1 1.17082.27639 2.618 2.618 0 0 1 1.44718 2.34161 5.382 5.382 0 0 1 -5.382 5.382z" fill="#ffdd6d"/></svg>