<svg id="flat" height="512" viewBox="0 0 64 64" width="512" xmlns="http://www.w3.org/2000/svg"><path d="m16.058 23.82605v10.34315a4 4 0 0 0 1.17158 2.82842l6.07106 6.07107a6 6 0 0 1 1.75736 4.24264v6.51472a2 2 0 0 0 2 2v3a2 2 0 0 0 2 2h6a2 2 0 0 0 2-2v-7a2 2 0 0 0 2-2v-2.34315a4 4 0 0 1 1.17158-2.82842l11.82842-11.82843v-3h-7v2l-5.87653 5.037a4 4 0 0 1 -2.60316.963h-2.52031v-1.16026a4 4 0 0 1 1.39684-3.037l5.60316-4.80274 3-2v-9h-16v21l-3.82842-3.82843a4 4 0 0 1 -1.17158-2.82842v-8.34315z" fill="#57df7d"/><path d="m12 14.88375a6 6 0 0 1 2.25183-4.68521l1.10469-.88375a6.34755 6.34755 0 0 1 2.74817-1.31479h7.89531a1 1 0 0 1 1 1v13h-15z" fill="#49b968"/><path d="m11.07107 16a5 5 0 0 0 -3.53554 1.46447l-1.03553 1.03553a5.12133 5.12133 0 0 0 -1.5 3.62132v2.75736a5.12133 5.12133 0 0 0 1.5 3.62132 5.12133 5.12133 0 0 0 3.62132 1.5h3.32807a5.12136 5.12136 0 0 0 2.8408-.86012l.81921-.54615a2 2 0 0 0 .8906-1.6641v-9.92963a1 1 0 0 0 -1-1z" fill="#4bbf6b"/><path d="m48.01567 11.49531a5.97487 5.97487 0 0 0 -3.07322-5.223l-4.57337-2.54074a5.975 5.975 0 0 0 -2.90166-.75189h-4.47688a5.97485 5.97485 0 0 0 -4.22487 1.75 5.97486 5.97486 0 0 0 -1.75 4.22487v11.04545h11.98433l5 2h4.01567z" fill="#43ac60"/><path d="m55 25v-5.87868c0-3.35826-.53957-4.66089-1.5-5.62132a5.12133 5.12133 0 0 0 -3.62132-1.5h-2.87868a1 1 0 0 0 -1 1v12z" fill="#46b364"/><path d="m31.58579 14.58579 1.65685 1.65685a6 6 0 0 1 1.75736 4.24264v2.427a6 6 0 0 1 -2.51257 4.8824l-2.92279 2.08772a6 6 0 0 1 -3.48743 1.1176h-1.90491a6 6 0 0 1 -3.84111-1.39067l-2.1723-1.81025a6 6 0 0 1 -2.15889-4.60933v-2.306a6 6 0 0 1 2.25183-4.68521l2.20034-1.76028a2 2 0 0 1 1.24939-.43826h8.47a2 2 0 0 1 1.41423.58579z" fill="#4dc46e"/><path d="m41 22h11.69723a4.30278 4.30278 0 0 1 4.30277 4.30277v2.39446a4.30279 4.30279 0 0 1 -1.916 3.58012 4.30277 4.30277 0 0 1 -2.38677.72265h-5.915a4.30278 4.30278 0 0 1 -3.04252-1.26025l-1.4795-1.4795a4.30278 4.30278 0 0 1 -1.26021-3.04252z" fill="#4bbf6b"/><path d="m44.5406 15.5406a4.9827 4.9827 0 0 1 1.4594 3.5233v2.9361l-1.5406 1.5406a4.9827 4.9827 0 0 1 -3.5233 1.4594h-.2752a4.98273 4.98273 0 0 1 -2.98962-.99654l-.6782-.50865a4.9827 4.9827 0 0 1 -1.99308-3.98616 4.98275 4.98275 0 0 1 .83684-2.76391l.61523-.92283a1.84572 1.84572 0 0 1 1.53573-.82191h5.24768a1.84573 1.84573 0 0 1 1.30512.5406z" fill="#4dc46e"/><g fill="#41a65d"><path d="m25 25h2v2h-2z"/><path d="m29 22h2v2h-2z"/><path d="m40 20h2v2h-2z"/><path d="m39 16h2v2h-2z"/><path d="m19 23h2v2h-2z"/></g><path d="m38 6h2v2h-2z" fill="#3c9956"/><path d="m42 10h2v2h-2z" fill="#3c9956"/><path d="m32 8h2v2h-2z" fill="#3c9956"/><path d="m21 18h2v2h-2z" fill="#41a65d"/><path d="m9 24h2v2h-2z" fill="#41a65d"/><path d="m11 19h2v2h-2z" fill="#41a65d"/><path d="m52 28h2v2h-2z" fill="#3c9956"/><path d="m46 26h2v2h-2z" fill="#3c9956"/><path d="m49 17h2v2h-2z" fill="#3c9956"/></svg>