<svg id="flat" height="512" viewBox="0 0 64 64" width="512" xmlns="http://www.w3.org/2000/svg"><path d="m32 15 1.54349-2.57248a5 5 0 0 1 4.28751-2.42752h3.98871a5.00011 5.00011 0 0 1 2.23607.52786l.8701.43506a5 5 0 0 0 4.20566.12358l2.9649-1.27067a5 5 0 0 1 3.82655-.04666l.33847.1354a5 5 0 0 1 3.10444 4.0222l.5183 4.14647a5 5 0 0 1 -.11067 1.83285l-1.62419 6.49676a5 5 0 0 0 -.14934 1.21268v3.88447a7.5 7.5 0 0 0 1.5 4.5 7.5 7.5 0 0 1 1.5 4.5v.89532a7.5 7.5 0 0 1 -2.81478 5.85651l-.13087.10469a7.5 7.5 0 0 1 -4.68521 1.64348h-.86914a5 5 0 0 0 -4 2 5 5 0 0 1 -4 2h-8.5l-4-13z" fill="#46b364"/><path d="m39 46v2.752a3.013 3.013 0 0 1 -.88249 2.13052l-1.80078 1.80078a3.013 3.013 0 0 1 -3.08331.72787l-.28062-.09354a3.013 3.013 0 0 0 -1.9056 0l-4.00015 1.33337a3.013 3.013 0 0 1 -2.0718-.06088l-7.325-2.93a3.013 3.013 0 0 1 -1.87074-2.42379l-.58986-4.71887a3.013 3.013 0 0 0 -1.5265-2.26013l-6.11339-3.39633a3.013 3.013 0 0 1 -1.54976-2.63387v-5.10581a5.12133 5.12133 0 0 0 -1.5-3.62132 5.12133 5.12133 0 0 1 -1.5-3.62132v-.82749a5.1215 5.1215 0 0 1 .41408-2.01739l1.42763-3.33113a3.013 3.013 0 0 1 3.8884-1.61067 3.013 3.013 0 0 0 3.626-1.12619l1.74944-2.62417a3.013 3.013 0 0 1 2.50696-1.34164h8.08914a3.01311 3.01311 0 0 1 .5909.05851l2.28534.45707a3.013 3.013 0 0 1 2.42211 2.9545v10.52992l6 4z" fill="#4bbf6b"/><path d="m53.80371 45.98047a10.381 10.381 0 0 1 -7.626-6.34375l-2.07421-4.19434 1.793-.88476 2.10645 4.26562a8.43173 8.43173 0 0 0 6.19336 5.19629z" fill="#41a65d"/><path d="m48.832 34.55469-1.664-1.10938 2.07516-3.11331a13.99088 13.99088 0 0 0 1.76563-11.82226l-.9668-3.22266 1.916-.57422.96679 3.22266a15.9893 15.9893 0 0 1 -2.01757 13.50586z" fill="#41a65d"/><path d="m21 36h-1.03027a6.32319 6.32319 0 0 1 -5.39161-2.98828l-.35156-.5625a21.20617 21.20617 0 0 1 -3.22656-11.25098v-.19824h2v.19824a19.20578 19.20578 0 0 0 2.92285 10.19141l.35156.5625a4.33421 4.33421 0 0 0 3.69532 2.04785h1.03027z" fill="#46b364"/><path d="m32.93674 15a15.87347 15.87347 0 0 0 -12.69874 6.34939l-.397.52935a15.881 15.881 0 0 0 -3.05914 11.45344l.02944.24111a15.87984 15.87984 0 0 0 9.03465 12.46071 9.78733 9.78733 0 0 0 4.08382.89315l4.33151.02707a14.4686 14.4686 0 0 0 13.44678-8.95952l1.24237-3.01718a14.46863 14.46863 0 0 0 .34732-10.0843 14.4686 14.4686 0 0 0 -13.72613-9.89322z" fill="#55d979"/><g fill="#50cc72"><path d="m30.56738 35.5459-2.35058-.52246-.4336 1.95312 2.35059.52246a7.44621 7.44621 0 0 1 5.86621 7.3125v2.03656a14.41594 14.41594 0 0 0 2-.37658v-1.66a9.436 9.436 0 0 0 -7.43262-9.2656z"/><path d="m29.36572 15.41235a15.83817 15.83817 0 0 0 -2.803.95166l-1.86157 3.3938a8.07587 8.07587 0 0 0 -.64941 6.5586l1.89648-.63282a6.08857 6.08857 0 0 1 .49805-4.94921z"/><path d="m49.29773 24.89325v-.00006a14.47564 14.47564 0 0 0 -.79205-1.89319h-6.034a6.20263 6.20263 0 0 1 -5.57715-3.44727l-1.78906.89454a8.19027 8.19027 0 0 0 7.36621 4.55273h6.85638c-.01147-.03528-.01861-.07153-.03033-.10675z"/><path d="m49.80316 32a14.4715 14.4715 0 0 0 .22589-2h-1.30444a5.13027 5.13027 0 0 0 -3.65137 1.5127l-.22656.22656a3.17942 3.17942 0 0 1 -4.13574.29394 5.196 5.196 0 0 0 -3.09864-1.0332h-2.88769a3.14394 3.14394 0 0 1 -2.23731-.92676l-.56054-.56054a5.13027 5.13027 0 0 0 -3.65137-1.5127h-1.59961a5.14 5.14 0 0 0 -1.63379.26562l-4.71679 1.57227a3.16929 3.16929 0 0 1 -1.00098.16211h-2.58588a15.84935 15.84935 0 0 0 -.05444 2h2.64032a5.14 5.14 0 0 0 1.63379-.26562l4.71679-1.57227a3.16929 3.16929 0 0 1 1.00098-.16211h1.59961a3.14394 3.14394 0 0 1 2.23731.92676l.56054.56054a5.13027 5.13027 0 0 0 3.65137 1.5127h2.88769a3.18146 3.18146 0 0 1 1.89844.63281 5.18771 5.18771 0 0 0 6.75-.47949l.22656-.22656a3.14394 3.14394 0 0 1 2.23731-.92676z"/></g></svg>