<?xml version="1.0"?>
<svg xmlns="http://www.w3.org/2000/svg" id="flat" viewBox="0 0 64 64" width="512" height="512"><path d="M13,2V3.306a2.292,2.292,0,0,0,.38495,1.2714l.57275.85913a2.29206,2.29206,0,0,1-.28637,2.89212h0A2.292,2.292,0,0,0,13,9.9494V13H8V9.9494a2.292,2.292,0,0,1,.67132-1.62072h0A2.29206,2.29206,0,0,0,8.9577,5.43655L8.385,4.57742A2.292,2.292,0,0,1,8,3.306V2Z" style="fill:#cccb51"/><path d="M29,4H27.799a14.00015,14.00015,0,0,0-9.89953,4.10046l-2.00977,2.00977A9.866,9.866,0,0,1,8.91333,13H5a2,2,0,0,0-2,2v2a2,2,0,0,0,2,2l3-.00031A20.0678,20.0678,0,0,0,3,32.21954V35A26,26,0,0,0,29,61H45.65009A12.34991,12.34991,0,0,0,58,48.65009v-.45936A5.99266,5.99266,0,0,0,61,43V36A32,32,0,0,0,29,4Z" style="fill:#ffe9a0"/><path d="M39,5.60248V15a6,6,0,0,1-6,6H30a6,6,0,0,0-6,6v2a6,6,0,0,1-6,6,6,6,0,0,0-6,6V54.663A25.89063,25.89063,0,0,0,29,61H45.65009A12.34991,12.34991,0,0,0,58,48.65009v-.45936A5.99266,5.99266,0,0,0,61,43V36A32.00723,32.00723,0,0,0,39,5.60248Z" style="fill:#50cc73"/></svg>
