<?xml version="1.0"?>
<svg xmlns="http://www.w3.org/2000/svg" id="flat" viewBox="0 0 64 64" width="512" height="512"><path d="M56.6718,14.9923l2.3205-3.48075A6,6,0,0,0,60,8.18335V5a2,2,0,0,0-2-2H57a2,2,0,0,0-2,2V7.29844a2,2,0,0,1-.43826,1.24939l-2.68522,3.35651A4,4,0,0,0,51,14.40312V18h5v-.7889A4,4,0,0,1,56.6718,14.9923Z" style="fill:#41a55e"/><path d="M23,17v7.85786a10,10,0,0,1-2.92894,7.07107L17,35v4H41V17Z" style="fill:#9f425f"/><path d="M31.78087,22.02391,33.799,19.50122A4,4,0,0,1,36.9225,18h.66329a1,1,0,0,1,.7071.29289l1.41422,1.41422A1,1,0,0,0,40.41421,20H42a1,1,0,0,0,1-1v-.7889a6,6,0,0,0-2.6718-4.9923l-1.81665-1.2111A6,6,0,0,0,35.18335,11h-8.3667a6,6,0,0,0-3.3282,1.0077L21.6718,13.2188A6,6,0,0,0,19,18.2111V19a1,1,0,0,0,1,1h1.58579a1,1,0,0,0,.7071-.29289l1.41422-1.41422A1,1,0,0,1,24.41421,18h.66329A4,4,0,0,1,28.201,19.50122l2.01815,2.52269A1,1,0,0,0,31.78087,22.02391Z" style="fill:#46b365"/><path d="M24,4V6a1,1,0,0,0,1,1h3a1,1,0,0,1,1,1v3h4V7a4,4,0,0,0-4-4H25A1,1,0,0,0,24,4Z" style="fill:#41a55e"/><path d="M56,28l-1.54193,5.65376A37.11072,37.11072,0,0,1,18.655,61H17A13,13,0,0,1,4,48v0A13,13,0,0,1,17,35h4.42486a14.15431,14.15431,0,0,0,11.77709-6.3029L39,20H56Z" style="fill:#bf4f73"/><path d="M59.87742,29.68386l-.27239.4086a1,1,0,0,1-1.45675.22617l-3.72347-2.97878a1,1,0,0,0-.94092-.16781l-7.45943,2.48647a1,1,0,0,1-1.28637-.70614l-1.605-6.41981a1,1,0,0,0-.65392-.70615l-5.00488-1.6683a1,1,0,0,1-.63245-.63245L36.15466,17.464a1,1,0,0,1,.11663-.87093l.78677-1.18015a4,4,0,0,1,2.61266-1.71668l8.94855-1.627a1,1,0,0,1,.70888.13588l7.37977,4.61235a1,1,0,0,1,.40979.50625l3.19069,8.77439A4,4,0,0,1,59.87742,29.68386Z" style="fill:#4bbf6c"/></svg>
