<?xml version="1.0"?>
<svg xmlns="http://www.w3.org/2000/svg" id="flat" viewBox="0 0 64 64" width="512" height="512"><path d="M26,21H18.60555a2,2,0,0,1-1.1094-.3359L15.8906,19.59373A2,2,0,0,1,15,17.92963V14a2,2,0,0,1,.8-1.6l2.36168-1.77126a2,2,0,0,1,1.83245-.29736l1.44555.48185a2,2,0,0,1,.92928.648L26,16Z" style="fill:#f2d268"/><path d="M23,30V27.16228a1,1,0,0,0-.05132-.31623l-.89736-2.6921A1,1,0,0,1,22,23.83772V21.33333a1,1,0,0,1,.2-.6l5.6-7.46666a1,1,0,0,0,.2-.6V9.82843a2,2,0,0,1,.58579-1.41422l.82842-.82842A2,2,0,0,0,30,6.17157V5a2,2,0,0,1,2-2h1a2,2,0,0,1,2,2h0a2,2,0,0,0,2,2h1.76393a2,2,0,0,1,1.78886,1.10557l1.0925,2.185a2,2,0,0,1,.1268,1.46912l-2.67753,8.9251a1,1,0,0,1-.35783.51265L35.4,23.7a1,1,0,0,0-.4.8V27a1,1,0,0,0,1,1h0a1,1,0,0,1,1,1v.92963a2,2,0,0,1-.8906,1.6641l-1.2188.81254A2,2,0,0,0,34,34.07037v.1012a2,2,0,0,0,.58579,1.41422L36,37l4.029-2.41739a2,2,0,0,0,.971-1.715V32a2,2,0,0,1,2-2h2a2,2,0,0,1,1.6.8l1.78893,2.38524a2,2,0,0,1,.31156,1.78817L45.08844,46.71256A2.00014,2.00014,0,0,0,45,47.30074v7.09371a2,2,0,0,1-.3359,1.1094L41.59373,60.1094A2,2,0,0,1,39.92963,61H37.07037a2,2,0,0,1-1.6641-.8906l-.81254-1.2188A2,2,0,0,0,32.92963,58h-3.2887a2.00007,2.00007,0,0,1-1.16248-.37253l-5.64093-4.02924A2,2,0,0,1,22,51.97076v-.73469a2,2,0,0,1,1.10557-1.78886l.15346-.07673a2,2,0,0,1,1.52688-.10851l1.90619.6354A2.0002,2.0002,0,0,0,27.32456,50H29V48.81507a4,4,0,0,0-1.366-3.0103l-5.951-5.20715A2,2,0,0,1,21,39.09246V38a2,2,0,0,0-2-2h-.39445a2,2,0,0,1-1.1094-.3359L15.8906,34.59373A2,2,0,0,1,15,32.92963V32a2,2,0,0,1,2-2Z" style="fill:#ffdd6d"/><path d="M22,22H18.60547a2.99158,2.99158,0,0,1-1.66455-.50391l-1.605-1.07031A2.994,2.994,0,0,1,14,17.92969V14a3.01563,3.01563,0,0,1,1.19922-2.3999l2.3623-1.77149a2.993,2.993,0,0,1,2.749-.4458l1.44482.48145a2.99639,2.99639,0,0,1,1.39453.97217l3.63086,4.53906-1.56152,1.249-3.63086-4.53857a1.00258,1.00258,0,0,0-.46533-.32422l-1.44483-.48145a.99244.99244,0,0,0-.916.14844L16.3999,13.2002A1.00387,1.00387,0,0,0,16,14v3.92969a.99843.99843,0,0,0,.44531.832L18.05078,19.832a.9971.9971,0,0,0,.55469.168H22Z" style="fill:#e6c763"/><path d="M49.189,32.585,47.3999,30.19922A3.01563,3.01563,0,0,0,45,29H43a3.00328,3.00328,0,0,0-3,3v.86768a1.00467,1.00467,0,0,1-.48584.85742l-3.35925,2.01574-.86194-.86193A.99428.99428,0,0,1,35,34.17139v-.10108a.99843.99843,0,0,1,.44531-.832l1.21875-.8125A2.994,2.994,0,0,0,38,29.92969V29a2.002,2.002,0,0,0-2-2V24.5l3.33594-2.502a2.01835,2.01835,0,0,0,.71679-1.02637L42.73,12.04688A2.992,2.992,0,0,0,42.54,9.84326L41.44727,7.6582A2.98411,2.98411,0,0,0,38.76416,6H37a1.0013,1.0013,0,0,1-1-1,3.00328,3.00328,0,0,0-3-3H32a3.00328,3.00328,0,0,0-3,3V6.17139a.99428.99428,0,0,1-.293.70752l-.82812.82812A2.97977,2.97977,0,0,0,27,9.82861V12.6665l-5.59912,7.46631A2.0077,2.0077,0,0,0,21,21.3335v2.50439a1.99223,1.99223,0,0,0,.10254.63232L22,27.16211V29H17a3.00328,3.00328,0,0,0-3,3v.92969a2.994,2.994,0,0,0,1.33594,2.49609l1.605,1.07031A2.99158,2.99158,0,0,0,18.60547,37H19a1.0013,1.0013,0,0,1,1,1v1.09229a3.00074,3.00074,0,0,0,1.02441,2.25781l5.95069,5.207A3.00026,3.00026,0,0,1,28,48.81494V49h-.67529a.99191.99191,0,0,1-.31641-.05127l-1.90576-.63525a2.97688,2.97688,0,0,0-2.291.16259l-.15332.07666A2.98411,2.98411,0,0,0,21,51.23584v.73486a3.00783,3.00783,0,0,0,1.25635,2.44141l5.64111,4.0293A2.98743,2.98743,0,0,0,29.64111,59h3.28858a.99843.99843,0,0,1,.832.44531l.8125,1.21875A2.994,2.994,0,0,0,37.07031,62h2.85938a2.994,2.994,0,0,0,2.49609-1.33594l3.07031-4.605A2.99158,2.99158,0,0,0,46,54.39453V47.30078a1.01906,1.01906,0,0,1,.044-.29443l3.61279-11.73877A3.01232,3.01232,0,0,0,49.189,32.585Zm-1.44384,2.09473L44.13232,46.419A3.00133,3.00133,0,0,0,44,47.30078v7.09375a.9971.9971,0,0,1-.168.55469l-3.07031,4.60547a.99843.99843,0,0,1-.832.44531H37.07031a.99843.99843,0,0,1-.832-.44531l-.8125-1.21875A2.994,2.994,0,0,0,32.92969,57H29.64111a.99517.99517,0,0,1-.58154-.18652L23.419,52.78467A1.00283,1.00283,0,0,1,23,51.9707v-.73486a.9945.9945,0,0,1,.55273-.894l.15332-.07666a.98652.98652,0,0,1,.76368-.0542l1.90673.63525A2.99685,2.99685,0,0,0,27.32471,51H34V49H30v-.18506a5.0011,5.0011,0,0,0-1.70752-3.76269L25.94714,43H29V41H23.6615l-1.3197-1.15479A.99981.99981,0,0,1,22,39.09229V38a3.00328,3.00328,0,0,0-3-3h-.39453a.9971.9971,0,0,1-.55469-.168l-1.60547-1.07031A.99843.99843,0,0,1,16,32.92969V32a1.0013,1.0013,0,0,1,1-1h5v2h2V27.16211a1.99223,1.99223,0,0,0-.10254-.63232L23,23.83789V21.3335l5.59912-7.46631A2.0077,2.0077,0,0,0,29,12.6665V9.82861a.99428.99428,0,0,1,.293-.70752l.82812-.82812A2.97977,2.97977,0,0,0,31,6.17139V5a1.0013,1.0013,0,0,1,1-1h1a1.0013,1.0013,0,0,1,1,1,3.00328,3.00328,0,0,0,3,3h1.76416a.9945.9945,0,0,1,.894.55273L40.751,10.7373a.99772.99772,0,0,1,.063.73536L39.15588,17H34v2h4.55591l-.41919,1.39746L34.80029,22.8999A2.00921,2.00921,0,0,0,34,24.5V27a2.002,2.002,0,0,0,2,2v.92969a.99843.99843,0,0,1-.44531.832l-1.21875.8125A2.994,2.994,0,0,0,33,34.07031v.10108a2.97977,2.97977,0,0,0,.87891,2.12158L39.707,42.12109a.99428.99428,0,0,1,.293.70752V45h2V42.82861a2.97977,2.97977,0,0,0-.87891-2.12158l-3.50848-3.50848L40.543,35.43994A3.01337,3.01337,0,0,0,42,32.86768V32a1.0013,1.0013,0,0,1,1-1h2a1.00551,1.00551,0,0,1,.80029.3999l1.78858,2.38477A1.0066,1.0066,0,0,1,47.74512,34.67969Z" style="fill:#f2d268"/></svg>
