<svg id="flat" height="512" viewBox="0 0 64 64" width="512" xmlns="http://www.w3.org/2000/svg"><path d="m39 23a12 12 0 0 0 12-12v-6a2 2 0 0 0 -2-2h-18a12 12 0 0 0 -12 12v8z" fill="#50cc73"/><path d="m21 22h-5l-1.17945-1.76918a6 6 0 0 0 -2.11919-1.93917l-7.97859-4.352a1.7957 1.7957 0 0 1 -.63423-2.57251 1.79569 1.79569 0 0 1 2.354-.58036l8.91079 4.86043a5.76042 5.76042 0 0 0 1.36133.5314l.2175.05438a5.76061 5.76061 0 0 1 4.06784 3.76701z" fill="#b98348"/><path d="m23 23h-2v-3a10.01146 10.01146 0 0 1 10-10h10v2h-10a8.00917 8.00917 0 0 0 -8 8z" fill="#46b365"/><path d="m24.3282 21.99231-.73447-1.10171a2 2 0 0 0 -1.6641-.8906h-3.85926a2 2 0 0 0 -1.6641.8906l-.73447 1.1017a4 4 0 0 0 -.6718 2.2188v1.7889h10v-1.7889a3.99992 3.99992 0 0 0 -.6718-2.21879z" fill="#c0a652"/><path d="m20 57a17 17 0 0 1 -17-17v-8.12133a8.87866 8.87866 0 0 1 8.87867-8.87867h1.70712a3.41417 3.41417 0 0 1 2.41421 1 3.41421 3.41421 0 0 0 2.41421 1h3.17158a3.41421 3.41421 0 0 0 2.41421-1 3.41421 3.41421 0 0 1 2.41421-1h1.70712a8.87866 8.87866 0 0 1 8.87867 8.87867v8.12133a17 17 0 0 1 -17 17z" fill="#d9bc5d"/><rect fill="#ffe9a0" height="36" rx="16" width="36" x="25" y="25"/><path d="m57 42a15 15 0 0 1 -15 15h-11.55859a15.9207 15.9207 0 0 0 10.55859 4h4a16 16 0 0 0 16-16v-4a15.9207 15.9207 0 0 0 -4-10.55859z" fill="#d9bc5d"/><rect fill="#b98348" height="18" rx="9" width="18" x="34" y="33"/></svg>