<svg id="flat" height="512" viewBox="0 0 64 64" width="512" xmlns="http://www.w3.org/2000/svg"><path d="m32 12-3.78732-2.27239a1.81129 1.81129 0 0 0 -2.21268.27239 1.81129 1.81129 0 0 0 -.27239 2.21268l2.27239 3.78732v3h4z" fill="#e6caa8"/><path d="m33.30932 18.928.55106 1.65317a5 5 0 0 0 4.74342 3.41883h6.3962a16 16 0 0 1 16 16 16 16 0 0 1 -16 16h-26a16 16 0 0 1 -16-16 16 16 0 0 1 16-16h4a5 5 0 0 0 5-5v-.67384a4.38 4.38 0 0 1 .73562-2.42959l3.48318-5.22477a6 6 0 0 1 4.9923-2.6718h4.7889a2 2 0 0 1 2 2 2 2 0 0 1 -2 2h-3.92963a2 2 0 0 0 -1.6641.8906l-2.86368 4.29552a2 2 0 0 0 -.23327 1.74188z" fill="#f2d5b1"/><path d="m19 56h1a6 6 0 0 1 -6-6v-17a9 9 0 0 1 9-9h-4a16 16 0 0 0 -16 15.99994v.00006a16 16 0 0 0 16 16z" fill="#e6caa8"/><path d="m38 56a9 9 0 0 0 9-9v-17a6 6 0 0 0 -6-6h-11a6 6 0 0 0 -6 6v17a9 9 0 0 0 9 9z" fill="#ffe0ba"/></svg>