<svg id="flat" height="512" viewBox="0 0 64 64" width="512" xmlns="http://www.w3.org/2000/svg"><rect fill="#ffaf45" height="52" rx="22" width="50" x="3" y="3"/><path d="m26 13v-5.58579a1 1 0 0 1 .29289-.7071l.27011-.27011a1 1 0 0 1 1.02334-.24158l1.72991.57664a1 1 0 0 1 .68375.9487v5.27924z" fill="#b98348"/><path d="m29.92969 14h-3.85938a2.99343 2.99343 0 0 1 -2.49609-1.33594l-.40625-.60937a2.36427 2.36427 0 0 0 -1.9707-1.05469h-1.19727v-2h1.19727a4.36114 4.36114 0 0 1 3.63473 1.94531l.40625.60938a.99661.99661 0 0 0 .832.44531h3.85938a.99661.99661 0 0 0 .832-.44531l.40625-.60938a4.36114 4.36114 0 0 1 3.63485-1.94531h1.19727v2h-1.19727a2.36427 2.36427 0 0 0 -1.9707 1.05469l-.40625.60937a2.99343 2.99343 0 0 1 -2.49609 1.33594z" fill="#e69d3f"/><path d="m51.47214 47.76393-.89443.44722a16.9443 16.9443 0 0 1 -7.57771 1.78885 16.94427 16.94427 0 0 1 -7.57771-1.78885l-.89443-.44722a10 10 0 0 1 -5.52786-8.94427v-1.81966a2 2 0 0 1 2-2h24a2 2 0 0 1 2 2v1.81966a10 10 0 0 1 -5.52786 8.94427z" fill="#f2bb72"/><g fill="#e69d3f"><path d="m11 21h2v2h-2z"/><path d="m33 17h2v2h-2z"/><path d="m23 20h2v2h-2z"/><path d="m18 27h2v2h-2z"/><path d="m31 25h2v2h-2z"/><path d="m22 37h2v2h-2z"/><path d="m28 30h2v2h-2z"/><path d="m15 45h2v2h-2z"/><path d="m12 36h2v2h-2z"/><path d="m43 13h2v2h-2z"/><path d="m48 23h2v2h-2z"/><path d="m40 29h2v2h-2z"/><path d="m39 22h2v2h-2z"/></g><path d="m55.47214 58.76393-.89443.44722a16.9443 16.9443 0 0 1 -7.57771 1.78885 16.94427 16.94427 0 0 1 -7.57771-1.78885l-.89443-.44722a10 10 0 0 1 -5.52786-8.94427v-1.81966a2 2 0 0 1 2-2h24a2 2 0 0 1 2 2v1.81966a10 10 0 0 1 -5.52786 8.94427z" fill="#ffc578"/><path d="m42.17316 46a8.94393 8.94393 0 0 0 -3.17316 6.84473v.15527h2v-.15527a6.967 6.967 0 0 1 2.626-5.46582l1.72446-1.37891z" fill="#e6b16c"/><path d="m50.37305 47.37793a6.96835 6.96835 0 0 1 2.62695 5.4668v.15527h2v-.15527a8.94731 8.94731 0 0 0 -3.17212-6.84473h-3.17828z" fill="#e6b16c"/><path d="m38.16754 35a9.03573 9.03573 0 0 0 -2.92438 4.76953l1.94532.46094a7.03513 7.03513 0 0 1 2.4375-3.85156l1.72534-1.37891z" fill="#d9a766"/><path d="m46.37305 36.37793a7.03723 7.03723 0 0 1 2.43847 3.85254l1.94532-.46094a9.03764 9.03764 0 0 0 -2.92426-4.76953h-3.18384z" fill="#d9a766"/><path d="m46 46h2v8h-2z" fill="#e6b16c"/><path d="m42 35h2v6h-2z" fill="#d9a766"/></svg>