<svg id="flat" height="512" viewBox="0 0 64 64" width="512" xmlns="http://www.w3.org/2000/svg"><path d="m43 17a5 5 0 0 0 -5 5v1a26 26 0 0 1 -26 26h-6a2 2 0 0 0 -2 2v1.72627a2 2 0 0 0 1.15423 1.81237l6.2064 2.89632a37.99993 37.99993 0 0 0 16.06964 3.56504h6.56973a26 26 0 0 0 26-26v-13a5 5 0 0 0 -5-5z" fill="#e5644e"/><path d="m55 13.82843a2 2 0 0 0 -.58579-1.41422l-1.82842-1.82842a2 2 0 0 0 -1.41422-.58579h-4.34314a2 2 0 0 0 -1.41422.58579l-1.82842 1.82842a2 2 0 0 0 -.58579 1.41422v3.63639a1 1 0 0 0 .4453.832l2 1.33333a1 1 0 0 0 1.1094 0l1.8906-1.2604a1 1 0 0 1 1.1094 0l1.8906 1.2604a1 1 0 0 0 1.1094 0l2-1.33333a1 1 0 0 0 .4453-.832z" fill="#5ae581"/><path d="m50 10h-2v-1a5.00588 5.00588 0 0 0 -5-5h-2v-2h2a7.00787 7.00787 0 0 1 7 7z" fill="#4ec66f"/></svg>