<svg id="flat" height="512" viewBox="0 0 64 64" width="512" xmlns="http://www.w3.org/2000/svg"><path d="m24 27h16a6 6 0 0 1 6 6v18a10 10 0 0 1 -10 10h-8a10 10 0 0 1 -10-10v-18a6 6 0 0 1 6-6z" fill="#ffdd6d"/><path d="m28 18v-13a2 2 0 0 1 2-2h4a2 2 0 0 1 2 2v13z" fill="#46b364"/><path d="m24.94029 18.76114-2.20852-8.83407a1 1 0 0 1 1.60338-1.01649l7.1978 5.88911a4 4 0 0 1 1.46705 3.09583v5.10448h-8v-3.75379a2 2 0 0 0 -.05971-.48507z" fill="#4ec66f"/><path d="m37.21142 20.2248 1.878-6.88606a1 1 0 0 0 -1.64042-1.00027l-8.8004 8.067a2 2 0 0 0 -.6486 1.47433v4.1202h9v-4.19649a6 6 0 0 1 .21142-1.57871z" fill="#50cc73"/><path d="m25 27-2.91963-7.29908a1 1 0 0 1 1.43235-1.23517l8.495 4.95543a2 2 0 0 1 .99228 1.72756v1.85126z" fill="#52d276"/><path d="m40 27 1.44441-7.222a1 1 0 0 0 -1.62077-.96434l-9.82364 8.18634z" fill="#55d97a"/><path d="m32 10h4v2h-4z" fill="#3c9956"/><path d="m28 6h4v2h-4z" fill="#3c9956"/><g fill="#e6c762"><path d="m28 38h-1.58594a1.98633 1.98633 0 0 1 -1.41406-.58594l-1.41406-1.41406h-1.17188l-1.41406 1.41406a1.98633 1.98633 0 0 1 -1.41406.58594h-1.58594v-2h1.58594l1.41406-1.41406a1.98633 1.98633 0 0 1 1.41406-.58594h1.17188a1.98633 1.98633 0 0 1 1.41406.58594l1.41406 1.41406h1.58594z"/><path d="m41 34h-1.58594a1.98633 1.98633 0 0 1 -1.41406-.58594l-1.41406-1.41406h-1.17188l-1.41406 1.41406a1.98633 1.98633 0 0 1 -1.41406.58594h-1.58594v-2h1.58594l1.41406-1.41406a1.98633 1.98633 0 0 1 1.41406-.58594h1.17188a1.98633 1.98633 0 0 1 1.41406.58594l1.41406 1.41406h1.58594z"/><path d="m41 57h-1.58594a1.98633 1.98633 0 0 1 -1.41406-.58594l-1.41406-1.41406h-1.17188l-1.41406 1.41406a1.98633 1.98633 0 0 1 -1.41406.58594h-1.58594v-2h1.58594l1.41406-1.41406a1.98633 1.98633 0 0 1 1.41406-.58594h1.17188a1.98633 1.98633 0 0 1 1.41406.58594l1.41406 1.41406h1.58594z"/><path d="m28 46h-1.58594a1.98633 1.98633 0 0 1 -1.41406-.58594l-1.41406-1.41406h-1.17188l-1.41406 1.41406a1.98633 1.98633 0 0 1 -1.41406.58594h-1.58594v-2h1.58594l1.41406-1.41406a1.98633 1.98633 0 0 1 1.41406-.58594h1.17188a1.98633 1.98633 0 0 1 1.41406.58594l1.41406 1.41406h1.58594z"/><path d="m41 42h-1.58594a1.98633 1.98633 0 0 1 -1.41406-.58594l-1.41406-1.41406h-1.17188l-1.41406 1.41406a1.98633 1.98633 0 0 1 -1.41406.58594h-1.58594v-2h1.58594l1.41406-1.41406a1.98633 1.98633 0 0 1 1.41406-.58594h1.17188a1.98633 1.98633 0 0 1 1.41406.58594l1.41406 1.41406h1.58594z"/><path d="m25 50.58594a1.98633 1.98633 0 0 0 -1.41406-.58594h-1.17188a1.98633 1.98633 0 0 0 -1.41406.58594l-1.41406 1.41406h-1.53546a9.94989 9.94989 0 0 0 .40875 2h1.12671a1.98633 1.98633 0 0 0 1.41406-.58594l1.41406-1.41406h1.17188l1.41406 1.41406a1.98633 1.98633 0 0 0 1.41406.58594h1.58594v-2h-1.58594z"/><path d="m41 50h-1.58594a1.98633 1.98633 0 0 1 -1.41406-.58594l-1.41406-1.41406h-1.17188l-1.41406 1.41406a1.98633 1.98633 0 0 1 -1.41406.58594h-1.58594v-2h1.58594l1.41406-1.41406a1.98633 1.98633 0 0 1 1.41406-.58594h1.17188a1.98633 1.98633 0 0 1 1.41406.58594l1.41406 1.41406h1.58594z"/><path d="m43 36h3v2h-3z"/><path d="m43 44h3v2h-3z"/><path d="m45.94952 52h-2.94952v2h2.54077a9.94989 9.94989 0 0 0 .40875-2z"/></g></svg>