<?xml version="1.0"?>
<svg xmlns="http://www.w3.org/2000/svg" id="flat" viewBox="0 0 64 64" width="512" height="512"><path d="M48,26V17l-1.07107-1.07107A10,10,0,0,0,39.85786,13H25.14214a10,10,0,0,0-7.07107,2.92893L18,16V26Z" style="fill:#d9943b"/><path d="M38,22l2.15891-1.79909A13.81019,13.81019,0,0,1,49,17h0A12,12,0,0,1,61,29V45.17158A6.82841,6.82841,0,0,1,59,50h0a6.82841,6.82841,0,0,1-4.82842,2H38Z" style="fill:#e69d3f"/><path d="M25,51H7a4,4,0,0,1-4-4V26A10,10,0,0,1,13,16h2.79063A12,12,0,0,1,23.287,18.62957L25,20Z" style="fill:#e69d3f"/><path d="M26,20H19A10,10,0,0,0,9,30V47.19212a8.80781,8.80781,0,0,0,.71216,3.46959h0A8.80789,8.80789,0,0,0,17.80788,56H26Z" style="fill:#f2a642"/><path d="M35,23V15.10469a5.99994,5.99994,0,0,1,1.31479-3.74817l1.05909-1.32386a2.523,2.523,0,0,0-.45634-3.5945h0a2.523,2.523,0,0,0-3.452.40321L32.31779,8.21866A10,10,0,0,0,30,14.6205V23Z" style="fill:#ffbc68"/><path d="M33,22h7A12,12,0,0,1,52,34V47a8,8,0,0,1-8,8H33Z" style="fill:#f2a642"/><path d="M19,28h0a9,9,0,0,1,9-9h0a9,9,0,0,1,9,9V54a4,4,0,0,1-4,4H23a4,4,0,0,1-4-4Z" style="fill:#ffaf45"/></svg>
