<?xml version="1.0"?>
<svg xmlns="http://www.w3.org/2000/svg" id="flat" viewBox="0 0 64 64" width="512" height="512"><path d="M37.41421,4.41421l-.82842-.82842A2,2,0,0,0,35.17157,3H33.82843a2,2,0,0,0-1.41422.58579L29.58579,6.41421A2,2,0,0,0,29,7.82843V12h9V5.82843A2,2,0,0,0,37.41421,4.41421Z" style="fill:#4bbf6b"/><path d="M32.11615,9.41076,25.35432,4.90288A1.98546,1.98546,0,0,0,22.849,5.151L21.58579,6.41421A2,2,0,0,0,21,7.82843V10l9,6,4-4-.52494-1.04989A4.00005,4.00005,0,0,0,32.11615,9.41076Z" style="fill:#4ec66f"/><path d="M29,14l9.78237-9.78237a1.98547,1.98547,0,0,1,2.59522-.18444L43.2,5.4A2,2,0,0,1,44,7V9L33,21H29Z" style="fill:#50cc73"/><path d="M28,24h0a9.13591,9.13591,0,0,0-2.93921-6.71311L16.51845,9.40165a1.98547,1.98547,0,0,1-.05723-2.86287l.32115-.32115a1.98547,1.98547,0,0,1,2.59522-.18444L32.4,15.8A4,4,0,0,1,34,19V31H28Z" style="fill:#52d276"/><path d="M37,43V26.554a2.00013,2.00013,0,0,1,.285-1.029L48.026,7.62338a1.98546,1.98546,0,0,0-.60119-2.67353h0a1.98547,1.98547,0,0,0-2.57364.31994L28.55079,23.286A6,6,0,0,0,27,27.31145V43Z" style="fill:#55d97a"/><path d="M27,41l1.12148.74765a2.754,2.754,0,0,0,3.475-.34409h0a2.754,2.754,0,0,1,3.17894-.51587L37,42v1.46447A8.53554,8.53554,0,0,0,39.5,49.5h0A8.53554,8.53554,0,0,1,42,55.53553h0A5.46446,5.46446,0,0,1,36.53554,61H27.46446A5.46446,5.46446,0,0,1,22,55.53554h0A8.53554,8.53554,0,0,1,24.5,49.5h0A8.53554,8.53554,0,0,0,27,43.46447Z" style="fill:#ffe9a0"/><path d="M32,62a6.00657,6.00657,0,0,1-6-6V55h2v1a4,4,0,0,0,8,0V53h2v3A6.00657,6.00657,0,0,1,32,62Z" style="fill:#e6d290"/></svg>
