<?xml version="1.0"?>
<svg xmlns="http://www.w3.org/2000/svg" id="flat" viewBox="0 0 64 64" width="512" height="512"><path d="M35,38l1.41091,1.05818A9.709,9.709,0,0,0,42.23636,41h0a9.70909,9.70909,0,0,0,8.52356-5.05987h0A26.53521,26.53521,0,0,0,54,23.23368v0A21.0808,21.0808,0,0,0,43.37821,4.9304h0A14.65115,14.65115,0,0,0,36.10916,3H27.89084a14.65115,14.65115,0,0,0-7.269,1.9304h0A21.0808,21.0808,0,0,0,10,23.23366v0a26.53521,26.53521,0,0,0,3.24007,12.70644h0A9.70909,9.70909,0,0,0,21.76363,41h.46653a10,10,0,0,0,5.145-1.42507L30,38Z" style="fill:#4bbf6c"/><path d="M35,12V40.19649a6,6,0,0,0,.21142,1.57871l1.33282,4.887a11.06547,11.06547,0,0,1-1.941,9.70506h0A12,12,0,0,1,25.131,61H23a2,2,0,0,1-2-2h0a2,2,0,0,1,2-2h1.253a8,8,0,0,0,6.14577-2.87852l.17058-.2047A7.06546,7.06546,0,0,0,31.909,47.36333l-1.656-5.51986A6.00019,6.00019,0,0,1,30,40.11939V12a2,2,0,0,1,2-2h1A2,2,0,0,1,35,12Z" style="fill:#55d97a"/><path d="M36.72021,19.9043A13.30176,13.30176,0,0,1,45,17V15a15.30127,15.30127,0,0,0-9,2.95557V10H34V40.19629a7.01959,7.01959,0,0,0,.24658,1.84228l1.333,4.88672a10.1127,10.1127,0,0,1-1.76611,8.82813A10.92832,10.92832,0,0,1,25.13086,60H23a1,1,0,0,1,0-2h1.25293a8.97828,8.97828,0,0,0,6.91455-3.23828l.17041-.20459a8.05038,8.05038,0,0,0,1.5293-7.48145l-1.65625-5.51953A4.99285,4.99285,0,0,1,31,40.11963V13H29v8.10919A7.03578,7.03578,0,0,0,24,19H22v2h2a5.02388,5.02388,0,0,1,4,2l1,1.33319v6.62238A15.30127,15.30127,0,0,0,20,28H17v2h3a13.30176,13.30176,0,0,1,8.27979,2.9043L29,33.48041v6.63922a7.00656,7.00656,0,0,0,.29492,2.01123l1.65625,5.51953a6.05229,6.05229,0,0,1-1.15039,5.62647l-.16992.20459A6.98251,6.98251,0,0,1,24.25293,56H23a3,3,0,0,0,0,6h2.13086a12.914,12.914,0,0,0,10.26123-5.01855,12.12374,12.12374,0,0,0,2.11719-10.58252l-1.333-4.88623A5.00382,5.00382,0,0,1,36,40.19629V33.48041l.72021-.57611A13.30176,13.30176,0,0,1,45,30V28a15.30127,15.30127,0,0,0-9,2.95557V20.48041Z" style="fill:#41a65e"/></svg>
