<svg id="flat" height="512" viewBox="0 0 64 64" width="512" xmlns="http://www.w3.org/2000/svg"><path d="m32 15h9.59488a9.40509 9.40509 0 0 1 6.021 2.17991 9.4051 9.4051 0 0 1 3.38412 7.22521v13.45988a9.40512 9.40512 0 0 1 -1.881 5.643l-10.719 14.292a8 8 0 0 1 -6.4 3.2 8 8 0 0 1 -6.4-3.2l-10.719-14.292a9.40512 9.40512 0 0 1 -1.881-5.643v-13.45988a9.4051 9.4051 0 0 1 3.38411-7.22521 9.40509 9.40509 0 0 1 6.02101-2.17991z" fill="#e5644e"/><g fill="#cb5945"><path d="m19 34h2v2h-2z"/><path d="m42 33h2v2h-2z"/><path d="m34 37h2v2h-2z"/><path d="m24 41h2v2h-2z"/><path d="m40 41h2v2h-2z"/><path d="m32 44h2v2h-2z"/><path d="m37 48h2v2h-2z"/><path d="m31 54h2v2h-2z"/><path d="m26 49h2v2h-2z"/></g><path d="m34.533 14.59993 2.93349-2.20012a1.99979 1.99979 0 0 1 1.19986-.4h6.66683a1.99978 1.99978 0 0 1 1.19985.4l2.66683 2.00012a1.99976 1.99976 0 0 1 .7999 1.59981v.00026a1.99977 1.99977 0 0 1 -.7999 1.59981l-2.66686 2.0001a1.99978 1.99978 0 0 1 -1.19985.4h-2.01052a1 1 0 0 0 -.55191 1.83391l1.37957.913a1.99975 1.99975 0 0 1 .876 1.38481l.43869 3.0708a1.99975 1.99975 0 0 1 -.56562 1.69685l-.00017.00017a1.99978 1.99978 0 0 1 -1.69685.56562l-3.0708-.43869a1.99977 1.99977 0 0 1 -1.38481-.876l-.913-1.37957a1 1 0 0 0 -1.83391.5519v2.01055a1.99979 1.99979 0 0 1 -.4 1.19986l-2.00018 2.66688a1.99976 1.99976 0 0 1 -1.59964.79993 1.99977 1.99977 0 0 1 -1.6-.79993l-2-2.66673a1.99979 1.99979 0 0 1 -.4-1.19986v-2.01055a1 1 0 0 0 -1.83391-.5519l-.913 1.37957a1.99975 1.99975 0 0 1 -1.38481.876l-3.0708.43869a1.99978 1.99978 0 0 1 -1.69685-.56562l-.00017-.00017a1.99978 1.99978 0 0 1 -.56562-1.69685l.43869-3.0708a1.99975 1.99975 0 0 1 .876-1.38481l1.37957-.913a1 1 0 0 0 -.55196-1.83397h-2.01055a1.99979 1.99979 0 0 1 -1.19986-.4l-2.66683-2.00007a1.99977 1.99977 0 0 1 -.7999-1.59981v-.00024a1.99977 1.99977 0 0 1 .7999-1.59981l2.66683-2.00007a1.99979 1.99979 0 0 1 1.19986-.4h6.66682a1.99979 1.99979 0 0 1 1.19986.4l2.93343 2.2a1.99978 1.99978 0 0 0 1.19993.4l2.66659-.0001a1.9997 1.9997 0 0 0 1.19978-.39997z" fill="#50cc73"/><path d="m34 15v-6a6 6 0 0 0 -6-6h-2a2 2 0 0 0 -2 2 2 2 0 0 0 2 2h2a2 2 0 0 1 2 2v6z" fill="#46b364"/></svg>