<?xml version="1.0" encoding="iso-8859-1"?>
<!-- Generator: Adobe Illustrator 19.0.0, SVG Export Plug-In . SVG Version: 6.00 Build 0)  -->
<svg xmlns="http://www.w3.org/2000/svg" xmlns:xlink="http://www.w3.org/1999/xlink" version="1.1" id="Layer_1" x="0px" y="0px" viewBox="0 0 512 512" style="enable-background:new 0 0 512 512;" xml:space="preserve">
<path style="fill:#38363F;" d="M148.211,366.081l0.202-0.191c10.644-10.079,27.087-32.509,39.376-50.287  c-0.163-0.02-68.781-16.264-68.781-16.264l-19.496,24.359v113.455c0,5.278,4.278,9.555,9.555,9.555h32.486h14.722  c4.952,0,8.967-4.014,8.967-8.967v-11.384c0-12.37-10.605-22.399-23.688-22.399v-19.843  C141.553,378.268,143.961,370.1,148.211,366.081z"/>
<path style="fill:#2E2D35;" d="M165.164,424.638c-0.024-0.303-0.054-0.606-0.091-0.906c-0.019-0.15-0.039-0.299-0.06-0.448  c-0.043-0.298-0.094-0.594-0.149-0.888c-0.025-0.131-0.047-0.263-0.074-0.393c-0.086-0.414-0.182-0.826-0.292-1.231  c-0.001-0.006-0.003-0.011-0.005-0.017c-0.111-0.406-0.236-0.807-0.37-1.203c-0.042-0.125-0.089-0.248-0.133-0.372  c-0.099-0.277-0.203-0.552-0.313-0.824c-0.055-0.137-0.112-0.273-0.17-0.409c-0.115-0.268-0.236-0.534-0.362-0.796  c-0.057-0.12-0.112-0.24-0.172-0.359c-0.186-0.372-0.38-0.741-0.588-1.101c-0.001-0.002-0.002-0.004-0.003-0.005  c-0.364-0.635-0.761-1.25-1.186-1.846c-0.283-0.396-0.586-0.782-0.895-1.159c-0.078-0.095-0.156-0.19-0.235-0.283  c-0.314-0.372-0.637-0.739-0.976-1.091c-0.002-0.002-0.003-0.003-0.005-0.005c-0.338-0.352-0.693-0.69-1.054-1.021  c-0.091-0.084-0.184-0.167-0.276-0.249c-0.368-0.326-0.743-0.647-1.132-0.95c-0.467-0.365-0.955-0.709-1.452-1.039  c-0.073-0.048-0.144-0.098-0.217-0.146c-0.478-0.31-0.969-0.603-1.471-0.88c-0.094-0.052-0.188-0.103-0.282-0.153  c-0.507-0.271-1.023-0.527-1.552-0.763c-0.081-0.036-0.163-0.069-0.245-0.104c-0.558-0.241-1.124-0.469-1.705-0.67  c-0.001,0-0.001,0-0.002-0.001c-0.58-0.2-1.173-0.374-1.774-0.533c-0.087-0.023-0.173-0.048-0.261-0.07  c-0.575-0.145-1.159-0.267-1.75-0.371c-0.11-0.02-0.221-0.038-0.332-0.056c-0.594-0.096-1.195-0.174-1.803-0.227  c-0.093-0.008-0.187-0.013-0.28-0.02c-0.642-0.049-1.287-0.081-1.942-0.081V384.12l0,0c0-1.828,0.235-3.882,0.689-5.965  c0.362-1.667,0.865-3.353,1.497-4.955c1.107-2.805,2.614-5.358,4.473-7.116l0.191-0.181l0.01-0.01  c10.644-10.079,27.087-32.509,39.376-50.287c-0.07-0.009-12.866-2.351-27.399-5.012c-13.324,19.195-32.691,45.416-43.129,55.299  c-4.38,4.147-6.859,9.914-6.859,15.944v14.96c0,3.705,2.473,7.01,6.067,7.907c10.143,2.534,17.621,11.27,17.621,21.657v11.384  c0,4.952-4.014,8.967-8.967,8.967h16.431l0,0h14.722c0.33,0,0.656-0.021,0.977-0.055c0.105-0.011,0.208-0.033,0.312-0.048  c0.214-0.031,0.427-0.063,0.636-0.109c0.12-0.026,0.237-0.06,0.355-0.091c0.187-0.049,0.374-0.101,0.557-0.162  c0.121-0.041,0.24-0.086,0.36-0.132c0.173-0.066,0.345-0.136,0.514-0.213c0.117-0.053,0.232-0.108,0.346-0.167  c0.164-0.083,0.324-0.173,0.484-0.266c0.109-0.064,0.217-0.128,0.323-0.196c0.158-0.102,0.31-0.212,0.461-0.324  c0.096-0.071,0.193-0.139,0.286-0.214c0.161-0.129,0.313-0.268,0.465-0.407c0.073-0.068,0.151-0.131,0.222-0.202  c0.216-0.213,0.422-0.436,0.617-0.67c0.062-0.076,0.117-0.157,0.177-0.235c0.117-0.151,0.236-0.301,0.344-0.46  c0.161-0.238,0.311-0.486,0.449-0.739c0.677-1.246,1.063-2.672,1.078-4.185c0-0.03,0.004-0.058,0.004-0.088v-11.384  c0-0.442-0.017-0.881-0.044-1.317C165.188,424.907,165.175,424.773,165.164,424.638z"/>
<path style="fill:#38363F;" d="M375.962,403.961v-19.843c0-5.849,2.409-14.017,6.658-18.036l0.201-0.191  c10.235-9.691,29.83-34.661,42.485-52.662c-5.055,1.407-10.327,2.168-15.703,2.168l-0.002-0.013v0.013  c-12.757,0-24.954-4.17-34.925-11.567c-1.33,0.335-2.665,0.668-4.015,0.993c-0.066,0.016-0.131,0.032-0.197,0.048  c-1.517,0.364-3.049,0.72-4.591,1.071c-0.589,0.134-1.182,0.266-1.775,0.398c-0.959,0.214-1.923,0.425-2.892,0.635  c-0.703,0.152-1.405,0.303-2.112,0.452c-1.025,0.216-2.058,0.427-3.094,0.637c-0.52,0.105-1.032,0.216-1.555,0.32  c-6.683,9.842-13.706,19.727-20.526,28.536v100.234c0,5.278,4.279,9.555,9.555,9.555h32.486h14.722c4.952,0,8.967-4.014,8.967-8.967  v-11.384C399.65,413.989,389.045,403.961,375.962,403.961z"/>
<path style="fill:#2E2D35;" d="M399.65,426.355c0-0.545-0.028-1.083-0.068-1.618c-0.005-0.068-0.011-0.135-0.016-0.203  c-0.004-0.051-0.008-0.102-0.012-0.153c-0.049-0.522-0.112-1.039-0.198-1.549c-0.006-0.038-0.015-0.076-0.021-0.114  c-0.008-0.038-0.015-0.077-0.022-0.115c-0.084-0.469-0.183-0.932-0.297-1.389c-0.019-0.075-0.036-0.151-0.055-0.227  c-0.004-0.015-0.007-0.031-0.011-0.046c-0.131-0.5-0.281-0.992-0.447-1.478c-0.002-0.006-0.005-0.012-0.007-0.019  c-0.03-0.086-0.061-0.171-0.092-0.257c-0.169-0.473-0.35-0.939-0.552-1.397c-0.006-0.013-0.011-0.026-0.016-0.039  c-0.004-0.008-0.007-0.017-0.011-0.025c-0.002-0.005-0.004-0.01-0.006-0.015c-0.214-0.483-0.449-0.955-0.698-1.421  c-0.019-0.036-0.039-0.072-0.058-0.108c-0.024-0.044-0.048-0.088-0.072-0.132c-0.518-0.941-1.103-1.844-1.752-2.701  c-0.009-0.012-0.018-0.023-0.026-0.035c-0.006-0.008-0.011-0.015-0.017-0.023c-0.022-0.03-0.045-0.061-0.068-0.09  c-0.332-0.432-0.68-0.854-1.044-1.261c-0.02-0.022-0.041-0.044-0.061-0.067c-0.753-0.838-1.57-1.623-2.444-2.349  c-0.014-0.012-0.029-0.024-0.043-0.036c-0.013-0.011-0.026-0.021-0.039-0.032c-0.882-0.725-1.821-1.389-2.81-1.986  c-0.017-0.01-0.033-0.02-0.049-0.03c-1.519-0.911-3.152-1.664-4.879-2.232l0,0c-0.002-0.001-0.004-0.001-0.006-0.002  c-0.514-0.169-1.036-0.322-1.565-0.458c-0.779-0.2-1.575-0.363-2.383-0.49c-0.001,0-0.001,0-0.002,0  c-0.021-0.003-0.042-0.007-0.062-0.01c-0.01-0.002-0.02-0.003-0.03-0.005c-0.352-0.053-0.708-0.096-1.065-0.135  c-0.031-0.003-0.063-0.007-0.094-0.011c-0.037-0.004-0.073-0.01-0.109-0.013c-0.403-0.04-0.81-0.07-1.219-0.09h-0.001  c-0.004,0-0.009-0.001-0.012-0.001c-0.411-0.02-0.825-0.031-1.241-0.031v-19.843v-2.282c0-5.559,2.111-10.89,5.871-14.938l0,0  c0.255-0.287,0.517-0.56,0.787-0.815l0.044-0.042l0.069-0.066l0.087-0.083l0,0l0,0c0.007-0.007,0.014-0.014,0.021-0.021  c0.03-0.028,0.051-0.087,0.092-0.089c10.266-9.767,29.76-34.615,42.369-52.552c-5.055,1.406-10.325,2.167-15.701,2.167l-0.002-0.013  v0.013c-5.667,0-11.218-0.842-16.522-2.4c-13.955,19.533-32.755,44.497-41.624,52.895c-4.38,4.147-6.859,9.914-6.859,15.944v12.979  c0,4.706,3.04,8.88,7.527,10.301c9.393,2.974,16.161,11.362,16.161,21.245v11.384c0,4.952-4.014,8.967-8.967,8.967h16.643h14.722  c0.413,0,0.817-0.038,1.215-0.092c0.1-0.013,0.199-0.029,0.298-0.045c0.39-0.067,0.776-0.149,1.148-0.264c0.001,0,0.002,0,0.002,0  c0.003-0.001,0.004-0.001,0.006-0.002c0.373-0.116,0.732-0.264,1.083-0.426c0.088-0.041,0.176-0.083,0.262-0.126  c0.343-0.172,0.678-0.358,0.994-0.572c0,0,0.002-0.001,0.002-0.002c0.227-0.154,0.447-0.318,0.659-0.493  c0.176-0.145,0.344-0.299,0.509-0.457c0.028-0.027,0.058-0.051,0.086-0.078c0.379-0.374,0.727-0.782,1.036-1.217  c0.001-0.002,0.003-0.003,0.004-0.005c0.113-0.159,0.219-0.323,0.321-0.49c0.025-0.04,0.05-0.08,0.074-0.121  c0.004-0.007,0.008-0.014,0.012-0.021c0.094-0.158,0.184-0.318,0.268-0.483c0.03-0.059,0.058-0.12,0.087-0.18  c0.131-0.269,0.246-0.546,0.35-0.829c0.037-0.103,0.079-0.203,0.113-0.307c0.038-0.116,0.067-0.235,0.1-0.353  c0.023-0.083,0.043-0.168,0.065-0.252c0.016-0.063,0.034-0.125,0.048-0.189c0.024-0.108,0.046-0.217,0.066-0.327  c0.032-0.175,0.059-0.352,0.081-0.532c0.011-0.09,0.024-0.18,0.032-0.271c0.025-0.273,0.042-0.551,0.042-0.831v-11.384l0,0v-0.001  v-0.003H399.65z"/>
<path style="fill:#626266;" d="M333.921,403.865v33.29c0,5.278,4.279,9.555,9.555,9.555h32.486h14.722  c4.951,0,8.967-4.014,8.967-8.967v-11.384c0-12.37-10.605-22.399-23.688-22.399v-0.095H333.921z"/>
<path style="fill:#515154;" d="M375.962,403.961v-0.095h-26.46c0.802,0.523,1.678,0.95,2.623,1.249  c9.393,2.974,16.161,11.362,16.161,21.245v11.384c0,4.952-4.014,8.967-8.967,8.967h16.643h14.722c2.088,0,4.005-0.72,5.529-1.917  c0.077-0.061,0.157-0.12,0.232-0.183c0.315-0.264,0.607-0.555,0.882-0.86c0.235-0.26,0.457-0.533,0.662-0.819  c0.295-0.414,0.553-0.857,0.775-1.319c0.186-0.387,0.354-0.785,0.484-1.201c0.262-0.842,0.403-1.738,0.403-2.666V426.36  C399.65,413.989,389.045,403.961,375.962,403.961z"/>
<path style="fill:#47454C;" d="M314.541,366.081l0.201-0.191c11.717-11.095,26.387-30.881,39.704-50.495  c4.937-0.984,18.296-4.005,28.563-6.401c-8.73-4.444-16.348-11.05-21.997-19.411l-5.454-8.072  c-12.513-10.478-19.742-25.961-19.742-42.282c0,0-9.996-50.849-9.996-60.334c0-5.225,8.541-33.039,17.171-51.574  c-6.474-2.857-12.628-6.791-17.169-11.482H148.75H91.141c-47.047,0-66.252,37.873-66.523,84.793  c-0.004,0.015-0.009,0.031-0.013,0.046v0.959c0,0-0.45,3.539,0,9.413v226.105c0,5.278,4.278,9.555,9.555,9.555h32.487h14.722  c4.952,0,8.967-4.014,8.967-8.967v-11.384c0-12.37-10.605-22.399-23.688-22.399v-22.126c0-6.031,2.481-11.797,6.859-15.944  c13.447-12.733,30.784-36.913,45.501-59.142c32.914,10.887,77.213,18.063,136.82,18.063c0.665,0,1.328-0.001,1.991-0.004  c4.426-0.019,8.023,3.553,8.023,7.979v104.368c0,5.278,4.278,9.555,9.555,9.555h32.486h14.722c4.952,0,8.967-4.014,8.967-8.967  v-11.384c0-12.37-10.605-22.399-23.688-22.399v-22.404C307.883,375.703,310.291,370.106,314.541,366.081z"/>
<path style="fill:#4D4D4D;" d="M31.454,158.064c3.376-9.25,8.067-17.38,14.199-23.977C19.5,140.369,0,163.937,0,191.989v21.123  c0,4.276,3.466,7.741,7.741,7.741s7.741-3.466,7.741-7.741v-21.123C15.482,178.358,21.703,166.154,31.454,158.064z"/>
<g>
	<path style="fill:#38363F;" d="M78.762,319.907c-12.463,18.085-25.801,35.739-36.619,45.984c-4.38,4.147-6.859,9.914-6.859,15.944   v14.96c0,3.705,2.473,7.008,6.067,7.907c10.143,2.534,17.621,11.27,17.621,21.657v11.384c0,4.952-4.014,8.967-8.967,8.967h16.643   l0,0H81.37c2.088,0,4.005-0.72,5.529-1.917c0.82-0.644,1.522-1.428,2.075-2.315c0.198-0.317,0.376-0.647,0.535-0.989   c0.161-0.349,0.308-0.707,0.424-1.078c0.262-0.842,0.403-1.738,0.403-2.667v-11.384c0-3.866-1.036-7.503-2.859-10.676   c-0.364-0.635-0.761-1.251-1.186-1.847c-0.851-1.191-1.821-2.301-2.892-3.316c-4.287-4.053-10.209-6.56-16.75-6.56l0,0v-19.843   c0-5.849,2.409-14.017,6.658-18.036l0.201-0.191l0,0c6.304-5.968,13.461-14.452,20.804-24.072   c8.321-10.902,16.879-23.262,24.696-35.07c-0.092-0.03-0.183-0.061-0.274-0.091C103.919,301.738,87.62,307.054,78.762,319.907z"/>
	<path style="fill:#38363F;" d="M307.883,403.961v-22.126c0-6.031,2.481-11.798,6.859-15.944l0,0   c11.717-11.095,26.387-30.881,39.704-50.495c-11.142,2.219-22.836,4.1-34.979,5.584c-12.249,17.708-25.272,34.869-35.877,44.91l0,0   c-4.379,4.147-6.859,9.914-6.859,15.944v12.636c0,4.911,3.193,9.203,7.854,10.751c9.222,3.063,15.834,11.371,15.834,21.139v11.384   c0,4.952-4.014,8.967-8.967,8.967h16.431h14.722c4.951,0,8.967-4.014,8.967-8.967v-11.384   C331.571,413.989,320.966,403.961,307.883,403.961z"/>
</g>
<path style="fill:#626266;" d="M24.606,403.696v33.459c0,5.278,4.278,9.555,9.555,9.555h32.486h14.722  c4.952,0,8.967-4.014,8.967-8.967v-11.384c0-12.37-10.605-22.399-23.688-22.399v-0.264H24.606z"/>
<path style="fill:#515154;" d="M66.647,403.961v-0.264H39.03c0.702,0.448,1.48,0.796,2.321,1.006  c10.143,2.534,17.621,11.27,17.621,21.657v11.384c0,4.952-4.014,8.967-8.967,8.967h16.643H81.37c1.857,0,3.582-0.565,5.013-1.532  c0.363-0.245,0.701-0.525,1.024-0.819c0.212-0.193,0.413-0.396,0.607-0.61c0.862-0.952,1.529-2.083,1.92-3.341  c0.262-0.842,0.403-1.738,0.403-2.666v-11.384C90.336,413.989,79.73,403.961,66.647,403.961z"/>
<path style="fill:#626266;" d="M99.511,403.696v33.459c0,5.278,4.279,9.555,9.555,9.555h32.486h14.722  c4.952,0,8.967-4.014,8.967-8.967v-11.384c0-12.37-10.605-22.399-23.688-22.399v-0.264H99.511z"/>
<path style="fill:#515154;" d="M141.553,403.961v-0.264h-27.406c0.702,0.448,1.48,0.796,2.321,1.006  c10.143,2.534,17.621,11.27,17.621,21.657v11.384c0,4.952-4.014,8.967-8.967,8.967h16.431h14.722c1.857,0,3.582-0.565,5.013-1.532  c2.386-1.612,3.953-4.34,3.953-7.435v-11.384C165.242,413.989,154.635,403.961,141.553,403.961z"/>
<path style="fill:#626266;" d="M265.841,403.696v33.459c0,5.278,4.279,9.555,9.555,9.555h32.486h14.722  c4.952,0,8.967-4.014,8.967-8.967v-11.384c0-12.37-10.605-22.399-23.688-22.399v-0.264H265.841z"/>
<path style="fill:#515154;" d="M307.883,403.961v-0.264h-26.317c0.911,0.641,1.923,1.161,3.019,1.525  c9.222,3.064,15.834,11.371,15.834,21.139v11.384c0,4.952-4.014,8.967-8.967,8.967h16.431h14.722c0.929,0,1.824-0.141,2.666-0.403  c2.808-0.873,5.023-3.089,5.897-5.897c0.262-0.842,0.403-1.738,0.403-2.666v-11.384C331.57,413.989,320.965,403.961,307.883,403.961  z"/>
<polygon style="fill:#4E4D54;" points="394.272,84.375 394.27,84.375 394.27,84.386 "/>
<path style="fill:#58565D;" d="M476.063,65.317c-2.671-0.239-5.255,1.024-6.673,3.3l-17.281,29.361  c4.755,24.714,26.101,33.84,27.357,34.052C495.342,127.609,512,112.25,512,97.882C512,81.017,496.277,67.128,476.063,65.317z"/>
<path style="fill:#49474F;" d="M476.062,65.317c-0.302-0.027-0.604-0.029-0.903-0.018c-0.095,0.004-0.189,0.013-0.283,0.021  c-0.205,0.016-0.408,0.039-0.61,0.072c-0.105,0.017-0.21,0.035-0.314,0.057c-0.105,0.022-0.207,0.054-0.31,0.081  c-0.093,0.024-0.186,0.044-0.278,0.072c-0.091,0.027-0.184,0.05-0.274,0.081c-0.185,0.063-0.362,0.144-0.541,0.222  c-0.075,0.033-0.154,0.058-0.228,0.094c-0.102,0.049-0.198,0.108-0.297,0.162c-0.154,0.083-0.305,0.168-0.453,0.263  c-0.113,0.073-0.223,0.151-0.333,0.23c-0.057,0.042-0.111,0.087-0.167,0.131c-0.068,0.053-0.137,0.104-0.203,0.159  c-0.106,0.088-0.212,0.175-0.313,0.27c-0.014,0.013-0.026,0.027-0.039,0.04c-0.007,0.007-0.013,0.015-0.021,0.021  c15.202,4.709,26.003,16.634,26.003,30.609c0,8.623-12.384,22.712-22.754,31.268c3.082,1.914,5.34,2.814,5.723,2.879  c15.877-4.421,32.535-19.78,32.535-34.147c0-0.527-0.015-1.051-0.046-1.573C511.013,80.161,495.646,67.072,476.062,65.317z"/>
<path style="fill:#999999;" d="M474.399,101.578c2.944,2.499-8.209,18.292,1.458,20.185c0.572,0,1.146-0.044,1.71-0.13  c14.058-2.146,24.263-11.459,24.263-22.144c0-5.625-2.868-11.047-8.075-15.267c-3.723-3.017-8.282-5.17-13.297-6.331  c-2.034-0.471-4.139,0.446-5.243,2.218l-5.409,8.681C468.06,91.596,469.404,97.34,474.399,101.578z"/>
<path style="fill:#B3B3B3;" d="M475.856,121.763c0.572,0,1.146-0.044,1.71-0.13c14.058-2.146,24.263-11.459,24.263-22.144  c0-5.625-2.868-11.047-8.075-15.267c-0.174-0.141-0.36-0.271-0.539-0.409c2.487,3.324,3.816,7.054,3.816,10.88  c0,10.684-10.204,19.996-24.263,22.144c-0.309,0.047-0.622,0.078-0.936,0.1C471.902,119.321,472.914,121.187,475.856,121.763z"/>
<path style="fill:#58565D;" d="M343.058,65.317c2.671-0.239,5.255,1.024,6.673,3.3l17.281,29.361  c-4.755,24.714-26.101,33.84-27.357,34.052c-15.877-4.421-32.535-19.78-32.535-34.147C307.12,81.017,322.843,67.128,343.058,65.317z  "/>
<path style="fill:#999999;" d="M344.721,101.578c-2.944,2.499,8.209,18.292-1.458,20.185c-0.572,0-1.146-0.044-1.71-0.13  c-14.058-2.146-24.263-11.459-24.263-22.144c0-5.625,2.868-11.047,8.075-15.267c3.723-3.017,8.282-5.17,13.297-6.331  c2.034-0.471,4.139,0.446,5.243,2.218l5.409,8.681C351.06,91.596,349.717,97.34,344.721,101.578z"/>
<path style="fill:#B3B3B3;" d="M343.264,121.763c-0.572,0-1.146-0.044-1.71-0.13c-14.058-2.146-24.263-11.459-24.263-22.144  c0-5.625,2.868-11.047,8.075-15.267c0.174-0.141,0.36-0.271,0.539-0.409c-2.487,3.324-3.816,7.054-3.816,10.88  c0,10.684,10.204,19.996,24.263,22.144c0.309,0.047,0.622,0.078,0.936,0.1C347.218,119.321,346.206,121.187,343.264,121.763z"/>
<path style="fill:#58565D;" d="M485.498,129.829c0,0-6.421-0.461-18.476-12.515c-6.774-6.774-11.104-25.593-11.104-25.593  c-6.948-4.577-14.815-7.345-23.651-7.345h-22.659l-0.002,0.011v-0.011h-22.66c-8.836,0-16.703,2.768-23.651,7.345  c0,0-4.329,18.818-11.103,25.593c-12.055,12.055-18.476,12.515-18.476,12.515c-9.215,19.774-13.418,39.715-13.418,45.289  c0,10.11,10.654,64.315,10.654,64.315c0,17.398,7.706,33.902,21.044,45.071l5.813,8.604c11.624,17.205,31.033,27.515,51.796,27.515  v-0.015l0.002,0.015c20.764,0,40.172-10.31,51.796-27.515l5.813-8.604c13.339-11.17,21.044-27.674,21.044-45.071  c0,0,10.654-54.205,10.654-64.315C498.917,169.544,494.714,149.603,485.498,129.829z"/>
<path style="fill:#4E4D54;" d="M485.498,129.829c0,0-6.421-0.461-18.476-12.515c-6.774-6.774-11.104-25.593-11.104-25.593  c-6.948-4.577-14.815-7.345-23.651-7.345h-22.66l-0.001,0.011v-0.011h-11.446c0.15,0,0.301,0.001,0.451,0.003  c12.076,0.129,22.635,7.955,26.815,19.286c1.886,5.113,4.44,10.601,7.488,13.65c1.507,1.507,2.926,2.833,4.255,3.998  c5.234,4.592,9.855,9.785,13.769,15.443c-2.863-1.942-14.238-8.105-41.332-6.318c-32.029-2.112-42.095,6.886-42.095,6.886  c-33.683,13.365-32.114,55.344-34.592,71.629c-0.982,6.456-1.55,12.974-1.395,19.502c0.022,0.956,0.054,1.905,0.095,2.849  c0.204-4.224,0.662-8.434,1.299-12.618c2.479-16.284,0.909-58.263,34.592-71.629c0,0,10.066-8.999,42.095-6.886  c32.028-2.112,42.095,6.886,42.095,6.886c2.496,0.991,4.776,2.155,6.901,3.438c2.095,4.813,3.727,9.842,4.827,15.04  c0.93,4.395,1.38,7.76,1.38,9.585c0,1.667-0.291,4.539-0.775,8.163c-4.093-5.206-9.524-9.608-16.816-12.501  c0,0-8.994-8.041-37.612-6.153c-28.618-1.888-37.612,6.153-37.612,6.153c-30.096,11.942-28.694,49.45-30.908,64  c-0.878,5.768-1.384,11.593-1.246,17.426c0.02,0.854,0.049,1.702,0.085,2.545c0.182-3.773,0.592-7.536,1.16-11.275  c2.214-14.55,0.813-52.058,30.908-64c0,0,8.994-8.041,37.612-6.153c28.618-1.887,37.612,6.153,37.612,6.153  c6.665,2.645,11.781,6.548,15.738,11.174c-3.052,19.534-8.801,48.783-8.801,48.783c0,17.398-7.706,33.902-21.044,45.071  l-5.813,8.604c-8.353,12.363-20.736,21.14-34.743,25.115c5.485,1.557,11.211,2.4,17.053,2.4v-0.014l0.001,0.014  c20.764,0,40.173-10.31,51.796-27.514l5.813-8.604c13.339-11.169,21.044-27.674,21.044-45.071c0,0,10.655-54.204,10.655-64.315  C498.917,169.544,494.714,149.603,485.498,129.829z"/>
<path style="fill:#B3B3B3;" d="M434.092,225.184l-20.114-89.316c-1.318-5.853-7.427-5.853-8.744,0l-20.113,89.316h0.121  c-0.079,0.708-0.121,1.425-0.121,2.15c0,11.925,10.963,21.592,24.486,21.592c13.523,0,24.486-9.667,24.486-21.592  c0-0.726-0.042-1.444-0.121-2.15H434.092z"/>
<path style="fill:#999999;" d="M434.092,225.184l-20.114-89.317c-0.707-3.136-2.788-4.59-4.771-4.365l9.55,75.278h-0.121  c0.079,1.256,0.121,2.529,0.121,3.817c0,17.587-7.57,32.397-17.886,36.907c2.714,0.914,5.657,1.421,8.735,1.421  c13.523,0,24.486-9.667,24.486-21.592c0-0.726-0.042-1.443-0.121-2.15L434.092,225.184L434.092,225.184z"/>
<path style="fill:#3D3D42;" d="M443.2,267.63c-2.245-3.197-5.907-5.1-9.814-5.1h-2.935c-4.133,2.439-8.845,3.725-13.646,3.725h-7.2  h-7.2c-4.799,0-9.511-1.286-13.646-3.725h-2.935c-3.907,0-7.569,1.903-9.814,5.1l0,0c-2.644,3.764-2.861,8.72-0.557,12.702  l0.909,1.571c1.271,2.195,2.219,4.55,2.825,6.991c1.028,4.143,4.339,7.327,8.52,8.188c6.452,1.327,15.582,2.939,21.897,2.939  s15.445-1.611,21.897-2.939c4.181-0.861,7.492-4.044,8.52-8.188c0.606-2.442,1.554-4.796,2.825-6.991l0.909-1.571  C446.061,276.351,445.843,271.394,443.2,267.63L443.2,267.63z"/>
<path style="fill:#303035;" d="M443.2,267.63L443.2,267.63c-2.245-3.197-5.907-5.1-9.814-5.1h-2.935  c-1.146,0.676-2.339,1.26-3.563,1.757c1.388,0.847,2.61,1.975,3.571,3.344l0,0c2.644,3.764,2.861,8.72,0.557,12.702l-0.909,1.571  c-1.271,2.195-2.219,4.55-2.824,6.991c-1.028,4.143-4.339,7.327-8.52,8.188c-4.496,0.925-10.289,1.986-15.526,2.546  c2.279,0.243,4.456,0.393,6.371,0.393c6.316,0,15.445-1.611,21.897-2.938c4.181-0.861,7.492-4.044,8.52-8.188  c0.606-2.442,1.554-4.796,2.824-6.991l0.909-1.571C446.061,276.351,445.843,271.394,443.2,267.63z"/>
<g>
	
		<ellipse transform="matrix(-0.2992 -0.9542 0.9542 -0.2992 244.0479 738.2017)" style="fill:#313135;" cx="393.109" cy="279.481" rx="7.677" ry="6.304"/>
	
		<ellipse transform="matrix(-0.2992 0.9542 -0.9542 -0.2992 818.6336 -42.283)" style="fill:#313135;" cx="424.844" cy="279.48" rx="7.677" ry="6.304"/>
</g>
<g>
	<circle style="fill:#2B2B2D;" cx="357.652" cy="237.373" r="6.264"/>
	<circle style="fill:#2B2B2D;" cx="465.327" cy="237.373" r="6.264"/>
</g>
<g>
</g>
<g>
</g>
<g>
</g>
<g>
</g>
<g>
</g>
<g>
</g>
<g>
</g>
<g>
</g>
<g>
</g>
<g>
</g>
<g>
</g>
<g>
</g>
<g>
</g>
<g>
</g>
<g>
</g>
</svg>
