<?xml version="1.0" encoding="iso-8859-1"?>
<!-- Generator: Adobe Illustrator 19.0.0, SVG Export Plug-In . SVG Version: 6.00 Build 0)  -->
<svg xmlns="http://www.w3.org/2000/svg" xmlns:xlink="http://www.w3.org/1999/xlink" version="1.1" id="Layer_1" x="0px" y="0px" viewBox="0 0 512.001 512.001" style="enable-background:new 0 0 512.001 512.001;" xml:space="preserve">
<path style="fill:#676775;" d="M371.994,374.556l0.2-0.189c10.369-9.818,28.405-33.64,40.603-51.203  c-1.197-0.135-2.365-0.307-3.522-0.495c-28.373-1.15-50.556-7.566-53.19-15.546l0,0c-3.974-1.366-7.796-3.129-11.394-5.279  l-21.035,27.99v115.267c0,5.238,4.246,9.484,9.484,9.484h32.244h14.612c4.915,0,8.9-3.985,8.9-8.899v-11.3  c0-12.279-10.527-22.232-23.512-22.232v-19.695C365.386,386.652,367.776,378.545,371.994,374.556z"/>
<path style="fill:#5F5F6D;" d="M384.379,320.064c-15.615,20.906-36.297,47.368-43.62,54.302l-0.2,0.189  c-4.218,3.989-6.609,12.096-6.609,17.902v19.695c12.985,0,23.512,9.954,23.512,22.232v11.299c0,4.915-3.984,8.899-8.898,8.9h16.822  h14.612c0.328,0,0.651-0.021,0.97-0.055c0.105-0.011,0.207-0.033,0.311-0.048c0.212-0.031,0.423-0.063,0.63-0.108  c0.12-0.026,0.237-0.06,0.355-0.092c0.185-0.049,0.369-0.099,0.549-0.159c0.122-0.041,0.241-0.086,0.36-0.132  c0.171-0.065,0.341-0.135,0.507-0.211c0.117-0.053,0.232-0.109,0.346-0.167c0.162-0.083,0.321-0.171,0.477-0.263  c0.109-0.064,0.217-0.127,0.323-0.196c0.156-0.101,0.307-0.21,0.456-0.32c0.096-0.071,0.194-0.14,0.287-0.215  c0.158-0.127,0.308-0.263,0.457-0.4c0.074-0.069,0.153-0.133,0.225-0.204c0.213-0.21,0.416-0.429,0.607-0.659  c0.367-0.443,0.692-0.922,0.968-1.431c0.156-0.288,0.292-0.587,0.416-0.892c0.039-0.095,0.07-0.193,0.106-0.289  c0.08-0.219,0.153-0.44,0.216-0.667c0.031-0.112,0.06-0.225,0.087-0.339c0.054-0.229,0.097-0.462,0.134-0.698  c0.016-0.105,0.036-0.21,0.048-0.317c0.04-0.341,0.065-0.686,0.065-1.038v-11.299c0-0.41-0.014-0.816-0.037-1.22  c-0.008-0.132-0.022-0.263-0.032-0.394c-0.021-0.271-0.042-0.541-0.073-0.809c-0.018-0.156-0.041-0.31-0.063-0.465  c-0.033-0.241-0.068-0.483-0.109-0.722c-0.028-0.161-0.059-0.322-0.091-0.482c-0.045-0.231-0.094-0.461-0.147-0.689  c-0.037-0.16-0.076-0.32-0.117-0.478c-0.058-0.227-0.121-0.452-0.186-0.676c-0.045-0.154-0.09-0.308-0.138-0.46  c-0.073-0.229-0.151-0.456-0.232-0.682c-0.051-0.143-0.099-0.286-0.153-0.427c-0.093-0.246-0.194-0.488-0.296-0.729  c-0.049-0.117-0.095-0.236-0.147-0.352c-0.157-0.355-0.323-0.706-0.499-1.052c-0.203-0.399-0.423-0.789-0.651-1.175  c-0.065-0.11-0.132-0.218-0.199-0.327c-0.181-0.295-0.369-0.585-0.563-0.871c-0.064-0.095-0.127-0.191-0.193-0.284  c-0.256-0.363-0.521-0.72-0.798-1.068c-0.051-0.064-0.106-0.126-0.158-0.19c-0.234-0.287-0.475-0.568-0.723-0.844  c-0.089-0.099-0.179-0.197-0.27-0.294c-0.253-0.271-0.512-0.536-0.778-0.795c-0.06-0.058-0.117-0.119-0.178-0.176  c-0.324-0.309-0.659-0.607-1.002-0.898c-0.088-0.074-0.178-0.146-0.267-0.219c-0.271-0.222-0.546-0.439-0.828-0.65  c-0.104-0.078-0.208-0.156-0.313-0.233c-0.368-0.266-0.742-0.526-1.127-0.772c-0.416-0.266-0.845-0.515-1.28-0.755  c-0.11-0.061-0.221-0.121-0.332-0.18c-0.438-0.234-0.882-0.459-1.337-0.667c-0.003-0.001-0.006-0.003-0.009-0.004  c-0.455-0.207-0.92-0.396-1.391-0.575c-0.119-0.045-0.239-0.09-0.359-0.134c-0.475-0.173-0.954-0.337-1.443-0.481  c-0.003-0.001-0.006-0.002-0.01-0.003c-0.488-0.144-0.986-0.267-1.487-0.381c-0.127-0.029-0.253-0.056-0.381-0.083  c-1.014-0.213-2.052-0.364-3.11-0.448c-0.133-0.011-0.266-0.02-0.399-0.029c-0.532-0.034-1.068-0.058-1.609-0.058v-19.695  c0-2.032,0.299-4.345,0.86-6.666c0.023-0.096,0.044-0.191,0.068-0.288c0.159-0.631,0.34-1.26,0.538-1.886  c0.037-0.117,0.075-0.233,0.113-0.35c0.205-0.623,0.427-1.239,0.671-1.843c0.037-0.092,0.077-0.181,0.115-0.272  c0.448-1.08,0.954-2.117,1.521-3.078c0.073-0.124,0.15-0.242,0.225-0.364c0.17-0.275,0.344-0.543,0.523-0.804  c0.089-0.13,0.18-0.257,0.272-0.383c0.184-0.252,0.374-0.494,0.567-0.729c0.087-0.106,0.172-0.215,0.261-0.317  c0.283-0.325,0.573-0.637,0.875-0.923l0.057-0.054l0.143-0.135c0.329-0.312,0.676-0.648,1.041-1.008  c0.019-0.019,0.039-0.039,0.058-0.058c0.009-0.009,0.019-0.019,0.028-0.028c0.298-0.294,0.608-0.607,0.928-0.931  c0.167-0.17,0.34-0.351,0.509-0.527c0.168-0.174,0.334-0.343,0.505-0.522c0.183-0.192,0.371-0.394,0.558-0.592  c0.173-0.184,0.344-0.364,0.52-0.553c0.192-0.206,0.388-0.421,0.582-0.633c0.175-0.19,0.349-0.378,0.526-0.573  c0.198-0.218,0.4-0.443,0.601-0.666c0.18-0.2,0.359-0.398,0.541-0.603c0.199-0.223,0.401-0.453,0.603-0.681  c0.191-0.216,0.381-0.431,0.573-0.651c0.201-0.229,0.403-0.463,0.606-0.696c0.195-0.225,0.39-0.449,0.587-0.678  c0.207-0.24,0.416-0.485,0.626-0.73c0.197-0.23,0.394-0.461,0.593-0.695c0.211-0.249,0.424-0.5,0.637-0.753  c0.203-0.241,0.406-0.483,0.611-0.727c0.212-0.253,0.424-0.508,0.638-0.764c0.206-0.248,0.414-0.499,0.622-0.75  c0.216-0.261,0.432-0.523,0.649-0.788c0.21-0.256,0.421-0.514,0.633-0.773c0.216-0.265,0.433-0.53,0.651-0.798  c0.216-0.266,0.433-0.535,0.651-0.804c0.216-0.267,0.431-0.534,0.648-0.804c0.214-0.267,0.43-0.536,0.645-0.805  c0.225-0.281,0.449-0.562,0.675-0.845c0.214-0.268,0.428-0.54,0.642-0.81c0.223-0.282,0.447-0.563,0.671-0.848  c0.235-0.298,0.471-0.6,0.707-0.9c0.206-0.262,0.411-0.523,0.618-0.787c0.263-0.336,0.526-0.676,0.789-1.015  c0.303-0.39,0.607-0.781,0.911-1.175c0.315-0.407,0.629-0.814,0.944-1.224c0.184-0.239,0.367-0.48,0.551-0.72  c0.263-0.344,0.526-0.687,0.789-1.031c0.206-0.27,0.411-0.541,0.617-0.812c0.237-0.312,0.474-0.624,0.711-0.937  c0.212-0.28,0.423-0.56,0.634-0.84c0.236-0.313,0.472-0.625,0.707-0.939c0.21-0.279,0.419-0.559,0.628-0.838  c0.23-0.307,0.461-0.615,0.69-0.923c0.217-0.291,0.433-0.582,0.649-0.872c0.222-0.299,0.445-0.598,0.666-0.897  c0.216-0.292,0.432-0.584,0.648-0.876c0.22-0.298,0.44-0.597,0.659-0.895c0.211-0.287,0.422-0.574,0.633-0.862  c0.224-0.305,0.447-0.61,0.67-0.915c0.207-0.284,0.414-0.567,0.62-0.85c0.218-0.299,0.434-0.597,0.65-0.894  c0.206-0.283,0.411-0.567,0.616-0.849c0.223-0.308,0.444-0.614,0.665-0.921c0.193-0.268,0.386-0.535,0.578-0.802  c0.23-0.32,0.459-0.639,0.687-0.958c0.179-0.25,0.359-0.501,0.537-0.75c0.239-0.334,0.475-0.667,0.711-0.999  c0.166-0.233,0.333-0.467,0.497-0.699c0.231-0.325,0.458-0.647,0.686-0.97c0.169-0.24,0.34-0.481,0.508-0.719  c0.24-0.342,0.477-0.679,0.714-1.016c0.144-0.205,0.29-0.413,0.433-0.617c0.379-0.542,0.754-1.079,1.122-1.61  c-1.424-0.16-2.831-0.349-4.243-0.529C399.749,322.248,391.558,321.355,384.379,320.064z"/>
<path style="fill:#999999;" d="M323.657,412.053V445.1c0,5.238,4.246,9.484,9.484,9.484h32.244h14.612c4.915,0,8.9-3.985,8.9-8.9  v-11.299c0-12.279-10.527-22.233-23.512-22.233v-0.101h-41.728V412.053z"/>
<path style="fill:#808080;" d="M365.386,412.153v-0.101h-31.435v0.101c12.985,0,23.512,9.954,23.512,22.233v11.299  c0,4.915-3.984,8.9-8.9,8.9h16.823h14.612c4.915,0,8.9-3.985,8.9-8.9v-11.299C388.898,422.107,378.371,412.153,365.386,412.153z"/>
<path style="fill:#676775;" d="M137.397,412.153v-19.695c0-5.806,2.39-13.913,6.609-17.902l0.2-0.189  c10.369-9.818,28.405-33.64,40.603-51.203c-27.655-3.111-53.182-9.92-72.308-16.246l-16.832,22.917v115.267  c0,5.238,4.246,9.484,9.484,9.484h32.244h14.612c4.915,0,8.9-3.985,8.9-8.899v-11.3  C160.909,422.107,150.382,412.153,137.397,412.153z"/>
<path style="fill:#5F5F6D;" d="M160.84,432.771c-0.021-0.271-0.042-0.541-0.073-0.809c-0.018-0.156-0.041-0.31-0.063-0.465  c-0.033-0.241-0.068-0.483-0.109-0.722c-0.028-0.161-0.059-0.322-0.091-0.482c-0.045-0.231-0.094-0.461-0.147-0.689  c-0.037-0.16-0.076-0.32-0.117-0.478c-0.058-0.227-0.121-0.452-0.186-0.676c-0.045-0.154-0.09-0.308-0.138-0.46  c-0.073-0.229-0.151-0.456-0.232-0.682c-0.051-0.143-0.099-0.286-0.153-0.427c-0.093-0.246-0.194-0.488-0.296-0.729  c-0.049-0.117-0.095-0.236-0.147-0.352c-0.157-0.355-0.323-0.706-0.499-1.052c-0.203-0.399-0.423-0.789-0.651-1.175  c-0.065-0.11-0.132-0.218-0.199-0.327c-0.181-0.295-0.369-0.585-0.563-0.871c-0.064-0.095-0.127-0.191-0.193-0.284  c-0.256-0.363-0.521-0.72-0.798-1.068c-0.051-0.064-0.106-0.126-0.158-0.19c-0.234-0.287-0.475-0.568-0.723-0.844  c-0.089-0.099-0.179-0.197-0.27-0.294c-0.253-0.271-0.512-0.536-0.778-0.795c-0.06-0.058-0.117-0.119-0.178-0.176  c-0.324-0.309-0.659-0.607-1.002-0.898c-0.088-0.074-0.178-0.146-0.267-0.219c-0.271-0.222-0.546-0.439-0.828-0.65  c-0.104-0.078-0.208-0.156-0.313-0.233c-0.368-0.266-0.742-0.526-1.127-0.772c-0.416-0.266-0.845-0.515-1.28-0.755  c-0.11-0.061-0.221-0.121-0.332-0.18c-0.438-0.234-0.882-0.459-1.337-0.667c-0.003-0.001-0.006-0.003-0.009-0.004  c-0.455-0.207-0.92-0.396-1.391-0.575c-0.119-0.045-0.239-0.09-0.359-0.134c-0.475-0.173-0.954-0.337-1.443-0.481  c-0.003-0.001-0.006-0.002-0.01-0.003c-0.488-0.144-0.986-0.267-1.487-0.381c-0.127-0.029-0.253-0.056-0.381-0.083  c-1.014-0.213-2.052-0.364-3.11-0.448c-0.133-0.011-0.266-0.02-0.399-0.029c-0.532-0.034-1.068-0.058-1.609-0.058v-19.695  c0-2.032,0.299-4.345,0.86-6.666c0.023-0.096,0.044-0.191,0.068-0.288c0.159-0.631,0.34-1.26,0.538-1.886  c0.037-0.117,0.075-0.233,0.113-0.35c0.205-0.623,0.427-1.239,0.671-1.843c0.037-0.092,0.077-0.181,0.115-0.272  c0.448-1.08,0.954-2.117,1.521-3.078c0.073-0.124,0.15-0.242,0.225-0.364c0.17-0.275,0.344-0.543,0.523-0.804  c0.089-0.13,0.18-0.257,0.272-0.383c0.184-0.252,0.374-0.494,0.567-0.729c0.087-0.106,0.172-0.215,0.261-0.317  c0.283-0.325,0.573-0.637,0.875-0.923l0.057-0.054l0.143-0.135c0.329-0.312,0.676-0.648,1.041-1.008  c0.019-0.019,0.039-0.039,0.058-0.058c0.009-0.009,0.019-0.019,0.028-0.028c0.298-0.294,0.608-0.607,0.928-0.931  c0.167-0.17,0.34-0.351,0.509-0.527c0.168-0.174,0.334-0.343,0.505-0.522c0.183-0.192,0.371-0.394,0.558-0.592  c0.173-0.184,0.344-0.364,0.52-0.553c0.192-0.206,0.388-0.421,0.582-0.633c0.175-0.19,0.349-0.378,0.526-0.573  c0.198-0.218,0.4-0.443,0.601-0.666c0.18-0.2,0.359-0.398,0.541-0.603c0.199-0.223,0.401-0.453,0.603-0.681  c0.191-0.216,0.381-0.431,0.573-0.651c0.201-0.229,0.403-0.463,0.606-0.696c0.195-0.225,0.39-0.449,0.587-0.678  c0.207-0.24,0.416-0.485,0.626-0.73c0.197-0.23,0.394-0.461,0.593-0.695c0.211-0.249,0.424-0.5,0.637-0.753  c0.203-0.241,0.406-0.483,0.611-0.727c0.212-0.253,0.424-0.508,0.638-0.764c0.206-0.248,0.414-0.499,0.622-0.75  c0.216-0.261,0.432-0.523,0.649-0.788c0.21-0.256,0.421-0.514,0.633-0.773c0.216-0.265,0.433-0.53,0.651-0.798  c0.216-0.266,0.433-0.535,0.651-0.804c0.216-0.267,0.431-0.534,0.648-0.804c0.214-0.267,0.43-0.536,0.645-0.805  c0.225-0.281,0.449-0.562,0.675-0.845c0.214-0.268,0.428-0.54,0.642-0.81c0.223-0.282,0.447-0.563,0.671-0.848  c0.235-0.298,0.471-0.6,0.707-0.9c0.206-0.262,0.411-0.523,0.618-0.787c0.263-0.336,0.526-0.676,0.789-1.015  c0.303-0.39,0.607-0.781,0.911-1.175c0.315-0.407,0.629-0.814,0.944-1.224c0.184-0.239,0.367-0.48,0.551-0.72  c0.263-0.344,0.526-0.687,0.789-1.031c0.206-0.27,0.411-0.541,0.617-0.812c0.237-0.312,0.474-0.624,0.711-0.937  c0.212-0.28,0.423-0.56,0.634-0.84c0.236-0.313,0.472-0.625,0.707-0.939c0.21-0.279,0.419-0.559,0.628-0.838  c0.23-0.307,0.461-0.615,0.69-0.923c0.217-0.291,0.433-0.582,0.649-0.872c0.222-0.299,0.445-0.598,0.666-0.897  c0.216-0.292,0.432-0.584,0.648-0.876c0.22-0.298,0.44-0.597,0.659-0.895c0.211-0.287,0.422-0.574,0.633-0.862  c0.224-0.305,0.447-0.61,0.67-0.915c0.207-0.284,0.414-0.567,0.62-0.85c0.218-0.299,0.434-0.597,0.65-0.894  c0.206-0.283,0.411-0.567,0.616-0.849c0.223-0.308,0.444-0.614,0.665-0.921c0.193-0.268,0.386-0.535,0.578-0.802  c0.23-0.32,0.459-0.639,0.687-0.958c0.179-0.25,0.359-0.501,0.537-0.75c0.239-0.334,0.475-0.667,0.711-0.999  c0.166-0.233,0.333-0.467,0.497-0.699c0.231-0.325,0.458-0.647,0.686-0.97c0.169-0.24,0.34-0.481,0.508-0.719  c0.24-0.342,0.477-0.679,0.714-1.016c0.144-0.205,0.29-0.413,0.433-0.617c0.379-0.542,0.754-1.079,1.122-1.61  c-9.475-1.066-18.69-2.573-27.493-4.338c-15.712,21.086-37.077,48.47-44.545,55.542l-0.2,0.189  c-4.218,3.989-6.609,12.096-6.609,17.902v19.695c12.985,0,23.512,9.954,23.512,22.232v11.299c0,4.915-3.984,8.899-8.898,8.9h16.822  h14.612c0.328,0,0.651-0.021,0.97-0.055c0.105-0.011,0.207-0.033,0.311-0.048c0.212-0.031,0.423-0.063,0.63-0.108  c0.12-0.026,0.237-0.06,0.355-0.092c0.185-0.049,0.369-0.099,0.549-0.159c0.122-0.041,0.241-0.086,0.36-0.132  c0.171-0.065,0.341-0.135,0.507-0.211c0.117-0.053,0.232-0.109,0.346-0.167c0.162-0.083,0.321-0.171,0.477-0.263  c0.109-0.064,0.217-0.127,0.323-0.196c0.156-0.101,0.307-0.21,0.456-0.32c0.096-0.071,0.194-0.14,0.287-0.215  c0.158-0.127,0.308-0.263,0.457-0.4c0.074-0.069,0.153-0.133,0.225-0.204c0.213-0.21,0.416-0.429,0.607-0.659  c0.367-0.443,0.692-0.922,0.968-1.431c0.156-0.288,0.292-0.587,0.416-0.892c0.039-0.095,0.07-0.193,0.106-0.289  c0.08-0.219,0.153-0.44,0.216-0.667c0.031-0.112,0.06-0.225,0.087-0.339c0.054-0.229,0.097-0.462,0.134-0.698  c0.016-0.105,0.036-0.21,0.048-0.317c0.04-0.341,0.065-0.686,0.065-1.038v-11.299c0-0.41-0.014-0.816-0.037-1.22  C160.864,433.033,160.85,432.903,160.84,432.771z"/>
<path style="fill:#999999;" d="M95.668,412.053V445.1c0,5.238,4.246,9.484,9.484,9.484h32.244h14.612c4.915,0,8.9-3.985,8.9-8.9  v-11.299c0-12.279-10.527-22.233-23.512-22.233v-0.101H95.668V412.053z"/>
<path style="fill:#808080;" d="M137.397,412.153v-0.101h-31.435v0.101c12.985,0,23.512,9.954,23.512,22.233v11.299  c0,4.915-3.984,8.9-8.9,8.9h16.823h14.612c4.915,0,8.9-3.985,8.9-8.9v-11.299C160.908,422.107,150.382,412.153,137.397,412.153z"/>
<path style="fill:#7C7B87;" d="M309.098,374.556l0.2-0.189c11.63-11.012,26.192-30.652,39.409-50.12  c3.725-0.742,16.647-3.855,26.392-6.22c-10.573-2.808-17.603-6.631-19.014-10.905l0,0c-5.61-1.928-10.927-4.631-15.722-8.129  c-7.94-5.792-14.291-13.283-14.29-22.428c0.002-26.819,13.445-47.743,24.885-60.695l0,0c-10.939-12.181-20.845-26.714-20.845-50.27  c0-14.496,3.222-27.765,8.517-39.426H144.54H87.36c-46.698,0-65.759,37.592-66.028,84.162c-0.004,0.015-0.009,0.03-0.013,0.045  v0.953c0,0-0.447,3.513,0,9.342v224.423c0,5.238,4.246,9.484,9.484,9.484h32.245H77.66c4.915,0,8.9-3.984,8.9-8.899v-11.3  c0-12.279-10.527-22.232-23.512-22.232v-19.695c0-5.806,2.39-13.913,6.609-17.902l0.2-0.189  c13.347-12.638,30.555-36.639,45.162-58.702c32.67,10.806,76.64,17.929,135.803,17.929c3.332,0,6.644-0.036,9.939-0.097V445.1  c0,5.238,4.246,9.484,9.484,9.484h32.244h14.612c4.915,0,8.9-3.984,8.9-8.899v-11.3c0-12.279-10.527-22.232-23.512-22.232v-19.695  C302.49,386.652,304.88,378.545,309.098,374.556z"/>
<path style="fill:#676775;" d="M39.84,146.995C16.651,155.249,0,177.41,0,203.396v21.227c0,4.297,3.482,7.779,7.779,7.779  s7.779-3.482,7.779-7.779v-21.227c0-10.796,3.888-20.699,10.33-28.393C28.912,164.235,33.505,154.711,39.84,146.995z"/>
<path style="fill:#72717C;" d="M69.892,329.94c-10.957,17.8-22.391,36.072-31.214,44.426c-4.346,4.112-6.809,9.832-6.809,15.815  v21.972c12.985,0,23.512,9.954,23.512,22.233v11.3c0,4.915-3.984,8.899-8.9,8.899h16.567H77.66c4.915,0,8.9-3.985,8.9-8.9v-11.299  c0-12.279-10.527-22.233-23.512-22.233l0,0v-19.695v-2.277c0-5.418,2.036-10.607,5.645-14.595c0.311-0.364,0.629-0.714,0.963-1.03  l0.2-0.189l0.001-0.001c11.891-11.26,31.712-38.811,45.162-58.702c-1.277-0.291-2.59-0.661-3.926-1.089  C95.484,309.574,78.483,315.983,69.892,329.94z"/>
<path style="fill:#999999;" d="M21.319,412.133v32.968c0,5.238,4.246,9.484,9.484,9.484h32.245H77.66c4.915,0,8.9-3.984,8.9-8.899  v-11.3c0-12.279-10.527-22.233-23.512-22.233v-0.02L21.319,412.133L21.319,412.133z"/>
<path style="fill:#808080;" d="M63.048,412.153v-0.02h-31.18v0.02c12.985,0,23.512,9.954,23.512,22.233v11.3  c0,4.915-3.984,8.899-8.9,8.899h16.567H77.66c0.614,0,1.214-0.062,1.794-0.181c4.055-0.83,7.106-4.418,7.106-8.719v-11.299  C86.56,422.107,76.033,412.153,63.048,412.153z"/>
<path style="fill:#72717C;" d="M359.137,313.587c-15.139,4.186-33.416,9.028-41.609,10.66  c-13.218,19.468-27.779,39.107-39.409,50.12l-0.2,0.189c-4.218,3.989-6.609,12.096-6.609,17.902v19.695  c12.985,0,23.512,9.954,23.512,22.232v11.3c0,4.915-3.984,8.899-8.9,8.899h16.567h14.612c2.968,0,5.59-1.459,7.207-3.692  c0.122-0.169,0.237-0.342,0.348-0.519c0.243-0.391,0.465-0.796,0.646-1.224c0.45-1.065,0.699-2.235,0.699-3.464v-11.3  c0-12.279-10.527-22.232-23.512-22.232l0,0v-19.695c0-5.806,2.39-13.913,6.609-17.902l0.2-0.189c0.71-0.673,1.432-1.38,2.164-2.115  c0.017-0.017,0.033-0.032,0.05-0.049c0.024-0.024,0.05-0.052,0.074-0.077c4.472-4.509,9.313-10.136,14.302-16.43  c0.836-1.055,1.676-2.128,2.52-3.218c1.204-1.557,2.417-3.157,3.631-4.775c0.976-1.3,1.953-2.617,2.931-3.949  c4.623-6.296,9.257-12.907,13.738-19.506c5.574-1.111,17.676-3.724,22.959-4.997C367.254,317.776,362.549,315.436,359.137,313.587z"/>
<path style="fill:#8A8990;" d="M485.976,215.353c11.44-12.739,21.798-27.936,21.798-52.57c0-43.521-28.223-68.379-55.531-81.152  c-13.743-6.428-27.254,5.547-36.82,4.4c-9.566,1.147-23.077-10.829-36.82-4.4c-27.308,12.773-55.531,37.631-55.531,81.152  c0,24.634,10.358,39.831,21.798,52.57C345.303,214.865,485.545,214.865,485.976,215.353z"/>
<path style="fill:#7B7B7C;" d="M504.028,136.832c-0.685-2.229-1.455-4.392-2.303-6.488c-0.424-1.048-0.868-2.08-1.33-3.096  c-1.552-3.409-3.325-6.624-5.263-9.676c-0.61-0.959-1.237-1.901-1.88-2.826c-0.968-1.392-1.963-2.756-3.002-4.071  c-1.929-2.442-3.976-4.751-6.114-6.937c-0.038-0.039-0.074-0.079-0.111-0.117c-9.442-9.619-20.687-16.803-31.781-21.992  c-0.406-0.19-0.811-0.361-1.217-0.519c-0.134-0.053-0.268-0.097-0.402-0.146c-0.271-0.099-0.543-0.197-0.814-0.283  c-0.159-0.051-0.317-0.095-0.476-0.141c-0.247-0.072-0.494-0.141-0.741-0.203c-0.166-0.042-0.332-0.079-0.498-0.116  c-0.24-0.053-0.48-0.103-0.719-0.147c-0.167-0.031-0.335-0.06-0.502-0.087c-0.241-0.038-0.482-0.07-0.723-0.1  c-0.162-0.02-0.324-0.041-0.486-0.057c-0.252-0.025-0.504-0.042-0.756-0.058c-0.149-0.009-0.299-0.022-0.448-0.029  c-0.303-0.013-0.605-0.016-0.906-0.017c-0.096,0-0.191-0.005-0.287-0.004c-0.391,0.004-0.78,0.018-1.169,0.04  c-0.146,0.009-0.291,0.023-0.436,0.034c-0.249,0.019-0.497,0.037-0.745,0.063c-0.171,0.018-0.342,0.04-0.512,0.06  c-0.221,0.027-0.441,0.054-0.661,0.085c-0.181,0.026-0.361,0.055-0.542,0.084c-0.208,0.034-0.416,0.069-0.624,0.106  c-0.185,0.033-0.369,0.068-0.553,0.105c-0.203,0.04-0.406,0.083-0.608,0.126c-0.185,0.04-0.371,0.08-0.555,0.123  c-0.197,0.045-0.394,0.094-0.59,0.142c-0.187,0.046-0.375,0.091-0.561,0.14c-0.191,0.05-0.382,0.103-0.572,0.155  c-0.188,0.051-0.377,0.101-0.565,0.155h-0.001c0.38,0.15,0.76,0.309,1.141,0.487c27.308,12.774,55.531,37.631,55.531,81.152  c0,17.027-11.38,39.519-19.829,52.338c8.887,0.058,14.474,0.136,14.56,0.232l0,0c0.313-0.349,0.625-0.7,0.936-1.052  c0.09-0.102,0.179-0.204,0.269-0.305c0.825-0.939,1.641-1.894,2.448-2.864c6.086-7.321,11.546-15.604,14.85-26.007  c0.377-1.186,0.725-2.399,1.043-3.641c0.477-1.864,0.887-3.793,1.22-5.793c0.667-4.001,1.031-8.289,1.031-12.907  C507.774,153.262,506.424,144.635,504.028,136.832z"/>
<path style="fill:#7C7B87;" d="M378.899,202.863L378.899,202.863c9.719,0,19.146,3.047,26.72,8.636l9.805,7.234l9.805-7.234  c7.575-5.589,17.002-8.636,26.72-8.636l0,0c2.183,0,4.344,0.164,6.471,0.464c-6.216-5.807-20.353-24.888-34.56-60.994  c-3.012-7.655-13.86-7.655-16.873,0c-14.207,36.106-28.344,55.187-34.56,60.994C374.555,203.027,376.716,202.863,378.899,202.863z"/>
<g>
	<path style="fill:#333333;" d="M377.14,151.037c-3.084,0-5.592-2.509-5.592-5.592c0-1.83-1.49-3.32-3.32-3.32   c-1.83,0-3.32,1.49-3.32,3.32c0,3.083-2.509,5.592-5.592,5.592c-3.084,0-5.592-2.509-5.592-5.592   c0-7.998,6.507-14.505,14.505-14.505s14.505,6.507,14.505,14.505C382.732,148.528,380.224,151.037,377.14,151.037z"/>
	<path style="fill:#333333;" d="M471.533,151.037c-3.084,0-5.592-2.509-5.592-5.592c0-1.83-1.49-3.32-3.32-3.32   s-3.32,1.49-3.32,3.32c0,3.083-2.509,5.592-5.592,5.592s-5.593-2.509-5.593-5.592c0-7.998,6.507-14.505,14.505-14.505   s14.505,6.507,14.505,14.505C477.126,148.528,474.617,151.037,471.533,151.037z"/>
</g>
<g>
	<path style="fill:#7F7E87;" d="M483.266,102.875c8.085-6.617,16.668-14.997,15.31-19.847c-2.491-8.892-14.52-30.155-26.118-24.743   c-7.539,3.518-14.66,15.857-18.721,24.063C464.049,87.335,474.409,94.06,483.266,102.875z"/>
	<path style="fill:#7F7E87;" d="M347.582,102.875c8.857-8.815,19.217-15.54,29.53-20.526c-4.061-8.206-11.182-20.545-18.721-24.063   c-11.598-5.413-23.628,15.851-26.118,24.743C330.914,87.878,339.498,96.258,347.582,102.875z"/>
</g>
<path style="fill:#8A8990;" d="M443.304,309.797l-27.88-6.148l-27.88,6.148c-12.5,2.757-37.311,0.983-37.311,0.983  c3.044,9.224,31.062,16.451,65.191,16.451s62.146-7.226,65.191-16.451C480.615,310.78,455.805,312.554,443.304,309.797z"/>
<path style="fill:#71707F;" d="M484.692,213.919c-8.114-8.905-20.095-14.058-32.743-14.058l0,0c-9.719,0-19.146,3.047-26.72,8.636  l-9.805,7.234l-9.805-7.234c-7.575-5.589-17.002-8.636-26.72-8.636l0,0c-12.648,0-24.629,5.153-32.743,14.058  c-12.216,13.407-27.306,35.849-27.308,64.905c-0.001,9.564,6.641,17.398,14.944,23.455c15.079,11,35.023,14.65,53.752,10.52  l27.88-6.149l27.88,6.149c18.729,4.13,38.673,0.481,53.752-10.52c8.303-6.057,14.945-13.891,14.944-23.455  C511.998,249.769,496.908,227.326,484.692,213.919z"/>
<path style="fill:#5F5F6D;" d="M484.692,213.919c-8.114-8.905-20.095-14.058-32.743-14.058l0,0c-2.744,0-5.463,0.251-8.125,0.726  c9.532,1.709,18.23,6.376,24.568,13.332c12.216,13.407,27.306,35.849,27.308,64.905c0.001,9.564-6.641,17.398-14.944,23.455  c-8.879,6.477-19.445,10.403-30.455,11.695c16.594,1.938,33.543-2.056,46.756-11.695c8.303-6.057,14.945-13.891,14.944-23.455  C511.998,249.769,496.908,227.327,484.692,213.919z"/>
<g>
	<path style="fill:#333333;" d="M392.404,231.269l-11.529-6.394c-3.706-2.057-8.37-0.718-10.423,2.986   c-2.054,3.703-0.717,8.37,2.986,10.423l11.529,6.394c1.179,0.654,2.454,0.963,3.712,0.963c2.696,0,5.312-1.425,6.712-3.949   C397.444,237.989,396.107,233.322,392.404,231.269z"/>
	<path style="fill:#333333;" d="M448.468,224.874l-11.529,6.394c-3.703,2.054-5.04,6.721-2.986,10.423   c1.4,2.525,4.015,3.949,6.712,3.949c1.258,0,2.534-0.309,3.712-0.963l11.529-6.394c3.703-2.054,5.04-6.721,2.986-10.423   C456.838,224.158,452.171,222.817,448.468,224.874z"/>
</g>
<path style="fill:#999999;" d="M260.761,412.095V445.1c0,5.238,4.246,9.484,9.484,9.484h32.244h14.612c4.915,0,8.9-3.984,8.9-8.899  v-11.3c0-12.279-10.527-22.233-23.512-22.233v-0.058L260.761,412.095L260.761,412.095z"/>
<path style="fill:#808080;" d="M302.49,412.153v-0.058h-31.18v0.058c12.985,0,23.512,9.954,23.512,22.233v11.3  c0,4.915-3.984,8.899-8.9,8.899h16.567h14.612c4.915,0,8.9-3.984,8.9-8.899v-11.3C326.001,422.107,315.475,412.153,302.49,412.153z"/>
<g>
</g>
<g>
</g>
<g>
</g>
<g>
</g>
<g>
</g>
<g>
</g>
<g>
</g>
<g>
</g>
<g>
</g>
<g>
</g>
<g>
</g>
<g>
</g>
<g>
</g>
<g>
</g>
<g>
</g>
</svg>
