<?xml version="1.0" encoding="iso-8859-1"?>
<!-- Generator: Adobe Illustrator 19.0.0, SVG Export Plug-In . SVG Version: 6.00 Build 0)  -->
<svg xmlns="http://www.w3.org/2000/svg" xmlns:xlink="http://www.w3.org/1999/xlink" version="1.1" id="Layer_1" x="0px" y="0px" viewBox="0 0 512 512" style="enable-background:new 0 0 512 512;" xml:space="preserve">
<path style="fill:#BF6101;" d="M171.545,119.921c6.912-4.066,14.164-7.441,21.646-10.14C175.9,59.786,141.992-8.854,108.927,0.943  C58.121,15.996,14.842,95.028,11.079,145.834c-2.229,30.095,49.007,48.617,80.546,56.196  C105.933,164.531,143.195,136.598,171.545,119.921z"/>
<path style="fill:#FEC373;" d="M159.774,127.211C153.422,99.627,149.232,63,127.732,41.943c-3.611-3.536-9.16-4.253-13.586-1.816  c-31.904,17.572-62.281,75.771-66.653,113.531c-0.769,6.64,32.318,18.925,55.893,26.011  C118.183,157.751,139.98,140.108,159.774,127.211z"/>
<path style="fill:#BF6101;" d="M340.453,119.921c-6.912-4.066-14.164-7.441-21.646-10.14  C336.098,59.786,370.006-8.854,403.071,0.943c50.806,15.054,94.085,94.086,97.849,144.892c2.229,30.095-49.007,48.617-80.546,56.196  C406.065,164.531,368.803,136.598,340.453,119.921z"/>
<path style="fill:#AD5404;" d="M500.919,145.834C497.156,95.028,453.876,15.996,403.07,0.942c-5.206-1.543-10.433-1.137-15.613,0.83  c43.071,25.253,77.368,92.335,80.7,137.309c1.678,22.647-26.922,38.74-54.621,48.548c2.629,4.631,4.94,9.429,6.837,14.401  C451.912,194.451,503.149,175.929,500.919,145.834z"/>
<path style="fill:#FEC373;" d="M352.224,127.211c6.352-27.584,10.542-64.211,32.042-85.268c3.611-3.536,9.16-4.253,13.586-1.816  c31.904,17.572,62.281,75.771,66.653,113.531c0.769,6.64-32.318,18.925-55.893,26.011  C393.815,157.751,372.018,140.108,352.224,127.211z"/>
<path style="fill:#BF6101;" d="M349.475,110.244c-20.015-11.774-42.837-17.9-66.058-17.9h-20.113h-14.61h-20.113  c-23.221,0-46.043,6.126-66.058,17.9c-36.739,21.612-88.457,62.123-85.771,117.868c1.643,34.085,11.582,70.936,22.985,103.01  c12.993,36.547,34.903,68.945,63.287,94.662c2.654,31.606,41.651,56.827,89.934,57.848l11.418-0.214  c45.029-2.644,80.833-26.39,84.444-56.118c28.034-25.648,49.65-57.844,62.676-94.036c11.721-32.568,22.072-70.306,23.751-105.152  C437.932,172.367,386.214,131.855,349.475,110.244z"/>
<path style="fill:#9A4D01;" d="M223.051,92.474c-1.163,0.049-2.325,0.103-3.485,0.183c-0.325,0.022-0.649,0.056-0.973,0.08  c-1.191,0.091-2.381,0.19-3.567,0.313c-0.256,0.026-0.51,0.061-0.766,0.089c-1.264,0.139-2.527,0.29-3.786,0.465  c-0.174,0.024-0.348,0.053-0.522,0.078c-1.344,0.193-2.686,0.403-4.023,0.637c-0.099,0.017-0.198,0.037-0.297,0.054  c-1.413,0.252-2.822,0.524-4.225,0.821c-0.037,0.008-0.074,0.016-0.112,0.024c-1.46,0.311-2.915,0.645-4.363,1.006  c-0.001,0-0.002,0-0.003,0.001c-1.472,0.366-2.937,0.758-4.395,1.175l0,0c4.942,27.112,31.469,59.282,63.466,59.282  s58.523-32.171,63.466-59.282l0,0c-1.458-0.417-2.924-0.809-4.395-1.175c-0.001,0-0.002,0-0.003-0.001  c-1.448-0.36-2.903-0.695-4.364-1.006c-0.037-0.008-0.074-0.016-0.111-0.024c-1.404-0.297-2.813-0.57-4.226-0.821  c-0.099-0.018-0.198-0.037-0.297-0.054c-1.337-0.235-2.678-0.444-4.023-0.637c-0.174-0.025-0.348-0.054-0.522-0.078  c-1.258-0.176-2.521-0.326-3.786-0.465c-0.255-0.028-0.51-0.062-0.766-0.089c-1.186-0.124-2.376-0.222-3.567-0.313  c-0.325-0.025-0.648-0.058-0.973-0.08c-1.16-0.08-2.322-0.134-3.485-0.183c-0.346-0.014-0.691-0.04-1.037-0.051  c-1.496-0.052-2.994-0.079-4.493-0.079h-20.113h-14.61h-20.113c-1.5,0-2.998,0.027-4.493,0.079  C223.741,92.434,223.397,92.459,223.051,92.474z"/>
<path style="fill:#713802;" d="M178.336,456.188c4.245,27.423,37.39,55.812,77.663,55.812s73.418-28.389,77.663-55.813  L178.336,456.188z"/>
<path style="fill:#AD5404;" d="M348.819,427.3c28.034-25.648,49.65-57.844,62.676-94.036l0,0l0,0l0.001-0.003  c11.72-32.567,22.07-70.304,23.75-105.149c2.686-55.745-49.032-96.257-85.771-117.868c-20.015-11.774-42.837-17.9-66.058-17.9  h-20.113h-10.565l0,0c23.221,0,46.043,6.126,66.058,17.9c36.739,21.612,88.457,62.123,85.771,117.868  c-1.679,34.846-12.03,72.584-23.751,105.152c-18.446,51.255-54.106,94.513-100.853,122.477l-37.032,22.153l-6.52,4.398  c0.003,0,0.005,0,0.008,0.001c2.662,0.375,5.364,0.678,8.104,0.903c0.251,0.021,0.505,0.033,0.757,0.052  c1.123,0.086,2.249,0.167,3.384,0.226c1.423,0.073,2.853,0.128,4.293,0.159l11.418-0.214  C309.405,480.774,345.209,457.028,348.819,427.3z"/>
<g>
	<path style="fill:#442D1D;" d="M159.492,234.914c0-4.973,4.045-9.019,9.018-9.019s9.019,4.045,9.019,9.019   c0,4.144,3.359,7.503,7.503,7.503s7.503-3.359,7.503-7.503c0-13.247-10.777-24.024-24.024-24.024s-24.024,10.777-24.024,24.024   c0,4.144,3.359,7.503,7.503,7.503S159.492,239.058,159.492,234.914z"/>
	<path style="fill:#442D1D;" d="M334.469,234.914c0-4.973,4.046-9.019,9.019-9.019c4.973,0,9.018,4.045,9.018,9.019   c0,4.144,3.359,7.503,7.503,7.503s7.503-3.359,7.503-7.503c0-13.247-10.777-24.024-24.024-24.024   c-13.247,0-24.024,10.777-24.024,24.024c0,4.144,3.359,7.503,7.503,7.503S334.469,239.058,334.469,234.914z"/>
</g>
<path style="fill:#8C4402;" d="M316.217,108.784c1.456-3.825,2.567-7.652,3.247-11.382c-0.003-0.001-0.005-0.001-0.007-0.002  c-1.456-0.416-2.919-0.807-4.389-1.173c0,0-0.001,0-0.002,0c-0.002,0-0.004-0.001-0.006-0.001c-1.447-0.36-2.9-0.694-4.358-1.005  c-0.039-0.008-0.077-0.017-0.115-0.025c-1.402-0.297-2.809-0.569-4.22-0.82c-0.1-0.018-0.2-0.038-0.3-0.055  c-1.337-0.234-2.678-0.444-4.022-0.637c-0.09-0.013-0.18-0.027-0.27-0.04c-0.085-0.012-0.17-0.026-0.255-0.038  c-1.258-0.176-2.519-0.326-3.783-0.465c-0.255-0.028-0.51-0.062-0.766-0.089c-1.186-0.124-2.376-0.222-3.567-0.313  c-0.325-0.025-0.648-0.058-0.973-0.08c-1.16-0.08-2.322-0.134-3.485-0.183c-0.346-0.014-0.691-0.04-1.037-0.051  c-1.496-0.052-2.994-0.079-4.493-0.079h-20.113h-4.933c2.524,0.11,5.063,0.34,7.607,0.67  C283.593,94.794,300.696,100.129,316.217,108.784z"/>
<path style="fill:#9A4D01;" d="M349.123,422.345c0,33.868-41.693,61.323-93.124,61.323s-93.124-27.455-93.124-61.323  s41.693-132.74,93.124-132.74S349.123,388.477,349.123,422.345z"/>
<path style="fill:#8E4604;" d="M255.999,289.605c-0.177,0-0.353,0.013-0.53,0.016c36.504,30.182,62.726,105.866,62.726,132.724  c0,30.398-33.59,55.625-77.66,60.476c5.03,0.554,10.195,0.846,15.464,0.846c51.431,0,93.124-27.455,93.124-61.322  C349.123,388.477,307.43,289.605,255.999,289.605z"/>
<path style="fill:#442D1D;" d="M255.999,382.611L255.999,382.611c-2.472,0-4.922,0.28-7.326,0.828  c-17.746,4.048-50.924,14.749-50.924,38.185c0,40.26,54.659,40.26,54.659,40.26h7.181c0,0,54.659,0,54.659-40.26  c0-23.436-33.178-34.137-50.924-38.185C260.921,382.891,258.471,382.611,255.999,382.611z"/>
<path style="fill:#382417;" d="M263.325,383.439c-2.156-0.492-4.351-0.755-6.564-0.807c13.87,9.96,26.544,24.508,26.544,38.992  c0,19.883-13.332,32.539-26.827,40.26h3.111c0,0,54.659,0,54.659-40.26C314.248,398.188,281.071,387.488,263.325,383.439z"/>
<g>
	<path style="fill:#261B19;" d="M248.532,423.084l-18.634-13.727c-3.338-2.46-8.034-1.747-10.491,1.59   c-2.457,3.336-1.745,8.033,1.591,10.49l18.634,13.727c1.34,0.988,2.898,1.463,4.444,1.463c2.303,0,4.576-1.057,6.047-3.054   C252.58,430.238,251.868,425.541,248.532,423.084z"/>
	<path style="fill:#261B19;" d="M281.448,409.357l-18.634,13.727c-3.336,2.457-4.048,7.154-1.591,10.49   c1.471,1.997,3.743,3.054,6.047,3.054c1.545,0,3.105-0.477,4.444-1.463l18.634-13.727c3.336-2.457,4.048-7.154,1.591-10.49   C289.481,407.612,284.784,406.901,281.448,409.357z"/>
</g>
<g>
</g>
<g>
</g>
<g>
</g>
<g>
</g>
<g>
</g>
<g>
</g>
<g>
</g>
<g>
</g>
<g>
</g>
<g>
</g>
<g>
</g>
<g>
</g>
<g>
</g>
<g>
</g>
<g>
</g>
</svg>
