<?xml version="1.0" encoding="iso-8859-1"?>
<!-- Generator: Adobe Illustrator 19.0.0, SVG Export Plug-In . SVG Version: 6.00 Build 0)  -->
<svg xmlns="http://www.w3.org/2000/svg" xmlns:xlink="http://www.w3.org/1999/xlink" version="1.1" id="Layer_1" x="0px" y="0px" viewBox="0 0 512 512" style="enable-background:new 0 0 512 512;" xml:space="preserve">
<path style="fill:#5B5B68;" d="M132.287,480.811C138.108,498.302,191.269,512,256,512s117.892-13.698,123.713-31.189  c0,0-68.111-20.121-124.713-20.144C199.065,460.644,132.287,480.811,132.287,480.811z"/>
<path style="fill:#4E4E5E;" d="M132.287,480.811c0.181,0.545,0.409,1.087,0.681,1.624c0.016,0.031,0.034,0.062,0.05,0.092  c0.121,0.235,0.249,0.469,0.387,0.703c0.044,0.074,0.094,0.146,0.139,0.22c0.117,0.19,0.235,0.38,0.364,0.569  c0.065,0.095,0.137,0.189,0.204,0.284c0.118,0.167,0.235,0.333,0.363,0.499c0.083,0.107,0.173,0.214,0.259,0.321  c0.123,0.152,0.243,0.305,0.373,0.457c0.098,0.114,0.203,0.227,0.305,0.341c0.128,0.143,0.254,0.286,0.389,0.429  c0.113,0.119,0.234,0.238,0.351,0.357c0.134,0.135,0.266,0.271,0.406,0.406c0.127,0.123,0.262,0.245,0.395,0.367  c0.14,0.129,0.277,0.259,0.422,0.388c0.14,0.125,0.288,0.248,0.433,0.372c0.148,0.126,0.294,0.253,0.447,0.378  c0.152,0.125,0.311,0.248,0.468,0.372c0.155,0.123,0.309,0.246,0.47,0.368c0.167,0.127,0.341,0.253,0.513,0.38  c0.16,0.118,0.319,0.236,0.484,0.353c0.18,0.128,0.366,0.255,0.551,0.382c0.167,0.115,0.333,0.229,0.505,0.344  c0.193,0.128,0.392,0.256,0.59,0.383c0.173,0.111,0.345,0.223,0.522,0.333c0.206,0.129,0.418,0.257,0.63,0.385  c0.178,0.108,0.356,0.216,0.538,0.323c0.22,0.129,0.445,0.257,0.67,0.385c0.128,0.073,0.257,0.146,0.387,0.219  c18.936,4.417,39.068,4.559,58.513,0.271L256,481.447l52.905,11.667c19.445,4.288,39.577,4.146,58.513-0.271  c0.133-0.074,0.264-0.148,0.394-0.223c0.222-0.126,0.444-0.253,0.66-0.38c0.185-0.109,0.366-0.219,0.547-0.328  c0.209-0.126,0.419-0.253,0.622-0.38c0.18-0.112,0.354-0.225,0.529-0.338c0.195-0.125,0.392-0.251,0.582-0.377  c0.175-0.116,0.343-0.233,0.513-0.35c0.182-0.125,0.365-0.25,0.542-0.375c0.168-0.119,0.329-0.239,0.492-0.359  c0.17-0.125,0.341-0.249,0.505-0.374c0.162-0.124,0.318-0.248,0.475-0.372c0.155-0.123,0.312-0.245,0.463-0.368  c0.155-0.127,0.303-0.255,0.453-0.383c0.143-0.122,0.289-0.244,0.428-0.367c0.146-0.13,0.285-0.26,0.426-0.391  c0.131-0.122,0.266-0.243,0.392-0.365c0.141-0.136,0.273-0.272,0.408-0.409c0.117-0.118,0.236-0.236,0.349-0.354  c0.136-0.144,0.263-0.288,0.392-0.432c0.101-0.113,0.205-0.225,0.302-0.338c0.13-0.152,0.251-0.305,0.374-0.458  c0.086-0.106,0.176-0.213,0.258-0.32c0.128-0.166,0.245-0.333,0.364-0.501c0.067-0.094,0.139-0.187,0.203-0.281  c0.13-0.191,0.249-0.383,0.368-0.576c0.044-0.071,0.093-0.142,0.135-0.213c0.139-0.234,0.266-0.469,0.388-0.704  c0.016-0.031,0.034-0.061,0.05-0.091c0.272-0.538,0.5-1.079,0.681-1.624c0,0-68.111-20.122-124.713-20.145  C199.065,460.644,132.287,480.811,132.287,480.811z"/>
<g>
	<path style="fill:#7F7E87;" d="M384.75,86.253c15.337-12.554,31.615-28.45,29.038-37.651C409.061,31.729,386.235-8.62,364.226,1.65   c-14.303,6.675-27.813,30.08-35.52,45.652C348.275,56.765,367.944,69.526,384.75,86.253z"/>
	<path style="fill:#7F7E87;" d="M127.25,86.253c16.806-16.727,36.475-29.489,56.044-38.951   c-7.707-15.572-21.217-38.977-35.52-45.652c-22.009-10.27-44.836,30.079-49.562,46.953C95.635,57.804,111.913,73.699,127.25,86.253   z"/>
</g>
<path style="fill:#8A8990;" d="M389.879,299.702c21.708-24.174,41.364-53.011,41.364-99.757  c0-82.586-53.556-129.755-105.375-153.994C299.79,33.752,274.152,56.476,256,54.3c-18.151,2.176-43.79-20.548-69.869-8.35  C134.312,70.19,80.756,117.358,80.756,199.945c0,46.746,19.656,75.584,41.364,99.757c0.408-0.462,66.922,30.549,133.546,30.549  C322.513,330.249,389.47,299.238,389.879,299.702z"/>
<path style="fill:#828287;" d="M399.878,199.945c0,36.944-12.282,62.697-28.146,83.808c5.788,3.72,11.083,8.15,15.71,13.229  c0.806,0.884,1.62,1.795,2.437,2.72c21.708-24.173,41.364-53.011,41.364-99.757c0-82.586-53.556-129.755-105.375-153.994  c-11.461-5.361-22.837-3.975-33.53-0.924c0.721,0.286,1.443,0.586,2.165,0.924C346.323,70.19,399.878,117.358,399.878,199.945z"/>
<g>
	<path style="fill:#363649;" d="M161.923,142.63c-15.851,0-28.746,12.895-28.746,28.745c0,4.143,3.358,7.5,7.5,7.5   s7.5-3.357,7.5-7.5c0-7.579,6.167-13.745,13.746-13.745s13.746,6.166,13.746,13.745c0,4.143,3.358,7.5,7.5,7.5s7.5-3.357,7.5-7.5   C190.668,155.524,177.773,142.63,161.923,142.63z"/>
	<path style="fill:#363649;" d="M321.332,171.375c0,4.143,3.358,7.5,7.5,7.5s7.5-3.357,7.5-7.5c0-7.579,6.166-13.745,13.746-13.745   s13.746,6.166,13.746,13.745c0,4.143,3.358,7.5,7.5,7.5s7.5-3.357,7.5-7.5c0-15.851-12.896-28.745-28.746-28.745   S321.332,155.524,321.332,171.375z"/>
</g>
<path style="fill:#7C7B87;" d="M186.69,279.311L186.69,279.311c18.442,0,36.331,6.782,50.705,17.388L256,310.427l18.605-13.728  c14.373-10.605,32.262-17.388,50.704-17.388l0,0c4.136,0,8.232,0.297,12.262,0.864c-11.805-11.035-38.618-50.558-65.563-119.035  c-5.716-14.527-26.301-14.527-32.017,0c-26.945,68.477-53.758,108.001-65.563,119.035  C178.458,279.608,182.555,279.311,186.69,279.311z"/>
<path style="fill:#71707F;" d="M387.442,296.981c-15.396-16.898-38.133-26.676-62.133-26.676l0,0  c-18.442,0-36.331,5.782-50.704,16.387L256,300.42l-18.605-13.728c-14.373-10.606-32.262-16.387-50.704-16.387l0,0  c-24,0-46.736,9.778-62.133,26.676c-23.181,25.442-51.816,68.028-51.82,123.164c-0.001,18.148,12.603,33.014,28.358,44.507  c28.614,20.874,66.46,27.8,101.999,19.962L256,472.947l52.905,11.668c35.539,7.838,73.385,0.912,101.999-19.962  c15.755-11.493,28.359-26.359,28.358-44.507C439.259,365.009,410.624,322.423,387.442,296.981z"/>
<path style="fill:#5F5F6D;" d="M387.442,296.981c-15.396-16.898-38.133-26.676-62.133-26.676l0,0  c-5.207,0-10.366,0.477-15.419,1.377c18.088,3.244,34.593,12.099,46.619,25.298c23.181,25.442,51.816,68.028,51.82,123.164  c0.001,18.148-12.603,33.014-28.358,44.508c-16.848,12.291-36.898,19.74-57.792,22.193c31.488,3.678,63.651-3.902,88.724-22.193  c15.755-11.493,28.359-26.36,28.358-44.508C439.259,365.009,410.624,322.423,387.442,296.981z"/>
<g>
	
		<ellipse transform="matrix(-0.9536 -0.3011 0.3011 -0.9536 272.8771 706.9495)" style="fill:#363649;" cx="190.918" cy="332.446" rx="27.637" ry="20.462"/>
	
		<ellipse transform="matrix(-0.9536 0.3011 -0.3011 -0.9536 727.5735 552.7352)" style="fill:#363649;" cx="321.192" cy="332.436" rx="27.637" ry="20.462"/>
</g>
<g>
	<path style="fill:#A2A2AA;" d="M130.278,66.59c-4.258-4.497-9.627-10.638-12.474-14.078c-1.189-1.437-1.485-3.413-0.752-5.128   c4.481-10.472,12.263-21.158,17.599-25.885c1.995-1.768,5.005-1.667,6.881,0.228c4.611,4.659,12.218,14.274,18.089,23.139   c1.499,2.263,0.901,5.308-1.335,6.846c-5.234,3.598-14.563,10.108-21.343,15.377C134.92,68.662,132.039,68.451,130.278,66.59z"/>
	<path style="fill:#A2A2AA;" d="M381.722,66.59c4.258-4.497,9.627-10.638,12.474-14.078c1.189-1.437,1.485-3.413,0.752-5.128   c-4.481-10.472-12.263-21.158-17.599-25.885c-1.995-1.768-5.005-1.667-6.881,0.228c-4.611,4.659-12.218,14.274-18.089,23.139   c-1.499,2.263-0.901,5.308,1.335,6.846c5.234,3.598,14.563,10.108,21.343,15.377C377.08,68.662,379.961,68.451,381.722,66.59z"/>
</g>
<g>
</g>
<g>
</g>
<g>
</g>
<g>
</g>
<g>
</g>
<g>
</g>
<g>
</g>
<g>
</g>
<g>
</g>
<g>
</g>
<g>
</g>
<g>
</g>
<g>
</g>
<g>
</g>
<g>
</g>
</svg>
