<?xml version="1.0" encoding="iso-8859-1"?>
<!-- Generator: Adobe Illustrator 19.0.0, SVG Export Plug-In . SVG Version: 6.00 Build 0)  -->
<svg xmlns="http://www.w3.org/2000/svg" xmlns:xlink="http://www.w3.org/1999/xlink" version="1.1" id="Layer_1" x="0px" y="0px" viewBox="0 0 512 512" style="enable-background:new 0 0 512 512;" xml:space="preserve">
<path style="fill:#3D3D42;" d="M201.148,140.355c9.171-10.079,22.204-23.402,35.741-33.971c8.167-6.376,7.229-19.094-1.834-24.115  c-0.075-0.041-0.15-0.083-0.225-0.124c-17.188-10.128-48.383-43.882-67.362-65.369c-7.319-8.286-20.903-4.596-23.121,6.234  c-2.938,14.348-4.822,33.013-0.756,50.667c3.923,17.032,21.819,19.999,32.945,62.42c0.628,0.963,1.263,1.898,1.904,2.807  C183.825,146.543,194.859,147.267,201.148,140.355z"/>
<path style="fill:#D8D8DA;" d="M184.582,115.532c3.61-3.76,4.984-7.147,5.938-10.432c3.388-11.662,1.23-24.154-5.294-34.398  c-8.491-13.335-14.649-28.52-23.398-41.28c-2.253-3.286-7.416-2.019-7.88,1.938c-1.464,12.47-1.608,26.277,1.392,39.302  c0.869,3.776,3.324,6.883,8.35,13C169.841,91.149,177.453,100.413,184.582,115.532z"/>
<path style="fill:#3D3D42;" d="M310.852,140.355c-9.171-10.079-22.204-23.402-35.741-33.971c-8.167-6.376-7.229-19.094,1.834-24.115  c0.075-0.041,0.15-0.083,0.225-0.124c17.188-10.128,48.383-43.882,67.362-65.369c7.319-8.286,20.903-4.596,23.121,6.234  c2.939,14.348,4.822,33.013,0.756,50.667c-3.923,17.032-21.819,19.999-32.945,62.42c-0.628,0.963-1.263,1.898-1.904,2.807  C328.175,146.543,317.141,147.267,310.852,140.355z"/>
<path style="fill:#D8D8DA;" d="M327.418,115.532c-3.61-3.76-4.984-7.147-5.938-10.432c-3.388-11.662-1.23-24.154,5.294-34.398  c8.491-13.335,14.649-28.52,23.398-41.28c2.253-3.286,7.416-2.019,7.88,1.938c1.464,12.47,1.608,26.277-1.392,39.302  c-0.869,3.776-3.324,6.883-8.35,13C342.159,91.149,334.547,100.413,327.418,115.532z"/>
<path style="fill:#C7C5CB;" d="M355.704,171.174c-7.463-19.863-19.127-37.877-33.787-53.218  C303.444,98.625,275.773,73.678,256,73.678l0,0c-19.773,0-47.444,24.947-65.917,44.278c-14.66,15.341-26.324,33.355-33.787,53.218  c-4.015,10.686-6.874,21.659-7.161,32.729l-0.597,23.08c-1.704,65.841,16.325,131.271,42.27,191.808l15.751,36.752  c3.653,8.523,12.033,14.048,21.305,14.048h56.272c9.272,0,17.653-5.526,21.305-14.048l15.751-36.752  c25.945-60.537,43.974-125.968,42.27-191.808l-0.597-23.08C362.578,192.833,359.719,181.86,355.704,171.174z"/>
<path style="fill:#B1B1B2;" d="M363.462,226.982l-0.598-23.079c-0.286-11.07-3.146-22.043-7.161-32.729  c-7.464-19.863-19.127-37.877-33.787-53.218C303.444,98.625,275.773,73.678,256,73.678l0,0c-4.161,0-8.674,1.115-13.374,3.04  c16.858,8.169,35.602,25.715,49.288,40.142c14.687,15.482,26.343,33.652,33.803,53.646c4.024,10.785,6.889,21.858,7.176,33.03  l0.599,23.292c1.708,66.446-16.36,132.478-42.36,193.572l-20.936,49.193h13.94c9.272,0,17.653-5.526,21.305-14.049l15.751-36.752  C347.137,358.254,365.167,292.823,363.462,226.982z"/>
<g>
	<path style="fill:#D8D8DA;" d="M197.452,377.21c1.875-32.738,18.859-90.574,7.946-125.494c-9.7-31.038-48.028-39.655-56.435-41.189   l-0.426,16.455c-1.704,65.84,16.325,131.271,42.27,191.808l15.751,36.752c3.653,8.523,12.033,14.048,21.305,14.048h1.802   C214.972,439.625,196.307,397.214,197.452,377.21z"/>
	<path style="fill:#D8D8DA;" d="M314.548,377.21c-1.875-32.738-18.859-90.574-7.946-125.494c9.7-31.038,48.028-39.655,56.435-41.189   l0.426,16.455c1.704,65.84-16.325,131.271-42.27,191.808l-15.751,36.752c-3.653,8.523-12.033,14.048-21.305,14.048h-1.802   C297.028,439.625,315.693,397.214,314.548,377.21z"/>
</g>
<path style="fill:#C7C7C9;" d="M363.462,226.982l-0.243-9.368l-0.184-7.088c-4.435,0.809-17.198,3.594-29.691,10.598l0.146,5.701  c1.172,45.585-6.966,90.975-20.585,134.71c0.775,5.65,1.37,10.931,1.641,15.674c1.146,20.005-17.52,62.415-32.213,92.381h1.802  c9.272,0,17.653-5.526,21.305-14.049l14.001-32.668l1.75-4.084c0.595-1.389,1.182-2.783,1.769-4.177  c16.197-38.479,29.115-78.877,35.744-120.06C362.302,272.199,364.048,249.615,363.462,226.982z"/>
<path style="fill:#3D3D42;" d="M281.286,33.34C279.968,18.106,265.75,0,256,0c-9.402,0-23.968,18.106-25.286,33.34  c-1.425,16.464,5.388,50.318,9.869,69.928c0.469,2.054,1.307,4.227,2.358,6.403c5.237,10.843,20.881,10.843,26.118,0  c1.051-2.176,1.888-4.349,2.358-6.403C275.899,83.658,282.711,49.804,281.286,33.34z"/>
<g>
	<path style="fill:#4C3F21;" d="M160.635,270.94c-0.065,3.82,2.914,7.022,6.695,7.568l18.331,2.643   c0.358,0.052,0.717,0.077,1.074,0.077c2.919,0,5.677-1.703,6.918-4.57c0.803-1.856,0.741-3.976,0.012-5.862l-6.767-17.51   c-0.729-1.887-2.187-3.4-4.046-4.198l-18.467-7.584c-5.1-2.095-10.654,1.803-10.417,7.312l0,0c0.127,2.964,1.978,5.58,4.732,6.686   l15.315,6.152l1.077,2.785l-5.867-0.846C164.8,262.949,160.714,266.317,160.635,270.94z"/>
	<path style="fill:#4C3F21;" d="M350.873,270.94c0.065,3.82-2.914,7.022-6.695,7.568l-18.331,2.643   c-0.358,0.052-0.717,0.077-1.074,0.077c-2.919,0-5.677-1.703-6.918-4.57c-0.803-1.856-0.741-3.976-0.012-5.862l6.767-17.51   c0.729-1.887,2.187-3.4,4.046-4.198l18.467-7.584c5.1-2.095,10.654,1.803,10.417,7.312l0,0c-0.127,2.964-1.978,5.58-4.732,6.686   l-15.315,6.152l-1.077,2.785l5.867-0.846C346.708,262.949,350.794,266.317,350.873,270.94z"/>
</g>
<g>
	<path style="fill:#3D3D42;" d="M169.364,315.799c-3.068,4.665-6.07,9.856-8.552,15.312c3.726,14.973,8.19,29.791,13.231,44.402   c0.827-21.941,3.568-41.094,6.259-55.263C181.526,313.804,172.97,310.316,169.364,315.799z"/>
	<path style="fill:#3D3D42;" d="M342.636,315.799c-3.606-5.482-12.162-1.995-10.938,4.452c2.691,14.169,5.432,33.322,6.259,55.263   c5.04-14.611,9.505-29.429,13.231-44.402C348.705,325.655,345.704,320.464,342.636,315.799z"/>
	<path style="fill:#3D3D42;" d="M255.997,159.499c18.386,0,34.743,6.129,45.234,15.658c4.599,4.177,12.078,1.047,12.113-5.166   c0-0.053,0-0.107,0-0.161c0-22.425-25.675-40.604-57.347-40.604s-57.347,18.179-57.347,40.604c0,0.054,0,0.107,0,0.161   c0.034,6.213,7.513,9.344,12.113,5.166C221.254,165.629,237.611,159.499,255.997,159.499z"/>
	<path style="fill:#3D3D42;" d="M255.997,209.894c13.726,0,25.938,4.576,33.77,11.69c3.434,3.119,9.017,0.782,9.043-3.857   c0-0.04,0-0.08,0-0.12c0-16.742-19.168-30.314-42.813-30.314s-42.813,13.572-42.813,30.314c0,0.04,0,0.08,0,0.12   c0.026,4.639,5.609,6.976,9.043,3.857C230.059,214.47,242.27,209.894,255.997,209.894z"/>
	<path style="fill:#3D3D42;" d="M255.997,264.753c9.453,0,17.863,3.151,23.257,8.05c2.365,2.148,6.21,0.538,6.228-2.656   c0-0.027,0-0.055,0-0.083c0-11.53-13.201-20.876-29.485-20.876s-29.485,9.347-29.485,20.876c0,0.028,0,0.055,0,0.083   c0.018,3.194,3.863,4.804,6.228,2.656C238.134,267.905,246.544,264.753,255.997,264.753z"/>
	<path style="fill:#3D3D42;" d="M255.997,321.864c9.453,0,17.863,3.151,23.257,8.05c2.365,2.148,6.21,0.538,6.228-2.656   c0-0.027,0-0.055,0-0.083c0-11.53-13.201-20.876-29.485-20.876s-29.485,9.347-29.485,20.876c0,0.028,0,0.055,0,0.083   c0.018,3.194,3.863,4.804,6.228,2.656C238.134,325.016,246.544,321.864,255.997,321.864z"/>
</g>
<path style="fill:#85848C;" d="M214.753,484.5c1.625,13.713,20.261,27.5,41.8,27.5c21.542,0,40.152-13.698,41.802-27.5H214.753z"/>
<path style="fill:#2B2B2D;" d="M310.332,447.472c-0.689-1.129-1.385-2.138-2.074-2.967c0.34-0.886,0.523-1.631,0.525-2.187  c0-0.08,0-0.159,0.001-0.239c0.009-23.945-19.566-43.293-43.511-43.293h-18.546c-23.945,0-43.52,19.348-43.511,43.293  c0,0.08,0,0.159,0.001,0.239c0.002,0.556,0.185,1.301,0.526,2.187c-0.689,0.829-1.385,1.838-2.074,2.967  c-1.238,2.029-2.049,4.427-2.531,7.036c-3.514,18.999,11.628,36.377,30.949,36.377h51.828c19.321,0,34.463-17.378,30.949-36.377  C312.38,451.899,311.57,449.501,310.332,447.472z"/>
<path style="fill:#222223;" d="M312.863,454.508c-0.483-2.609-1.293-5.007-2.532-7.036c-0.689-1.129-1.385-2.138-2.074-2.967  c0.34-0.886,0.523-1.631,0.525-2.187c0-0.08,0-0.159,0-0.239c0.009-23.945-19.566-43.293-43.511-43.293h-18.546  c-2.103,0-4.169,0.157-6.194,0.446c21.035,2.996,37.324,21.005,37.317,42.847c0,0.08,0,0.159,0,0.239  c-0.002,0.556-0.185,1.301-0.526,2.187c0.689,0.829,1.385,1.838,2.074,2.967c1.239,2.03,2.049,4.427,2.531,7.036  c1.901,10.28-1.666,25.013-8.395,36.377h8.38C301.235,490.885,316.377,473.507,312.863,454.508z"/>
<g>
	<path style="fill:#161616;" d="M236.318,426.279c-2.629-3.215-7.367-3.687-10.578-1.058c-3.214,2.629-3.687,7.365-1.058,10.578   l10.349,12.65c1.486,1.817,3.645,2.757,5.822,2.757c1.675,0,3.359-0.556,4.756-1.699c3.214-2.629,3.687-7.365,1.058-10.578   L236.318,426.279z"/>
	<path style="fill:#161616;" d="M287.366,425.221c-3.212-2.628-7.949-2.156-10.578,1.058l-10.349,12.65   c-2.629,3.214-2.155,7.949,1.058,10.578c1.397,1.143,3.081,1.699,4.756,1.699c2.177,0,4.336-0.941,5.822-2.757l10.349-12.65   C291.054,432.585,290.58,427.85,287.366,425.221z"/>
</g>
<path style="fill:#313135;" d="M256,0c-1.587,0-3.324,0.526-5.117,1.458v115.437c6.574,2.407,14.686,0.003,18.176-7.224  c1.051-2.176,1.888-4.349,2.358-6.403c4.482-19.61,11.294-53.464,9.869-69.928C279.968,18.106,265.75,0,256,0z"/>
<g>
</g>
<g>
</g>
<g>
</g>
<g>
</g>
<g>
</g>
<g>
</g>
<g>
</g>
<g>
</g>
<g>
</g>
<g>
</g>
<g>
</g>
<g>
</g>
<g>
</g>
<g>
</g>
<g>
</g>
</svg>
