<?xml version="1.0" encoding="iso-8859-1"?>
<!-- Generator: Adobe Illustrator 19.0.0, SVG Export Plug-In . SVG Version: 6.00 Build 0)  -->
<svg xmlns="http://www.w3.org/2000/svg" xmlns:xlink="http://www.w3.org/1999/xlink" version="1.1" id="Layer_1" x="0px" y="0px" viewBox="0 0 512 512" style="enable-background:new 0 0 512 512;" xml:space="preserve">
<path style="fill:#8A8990;" d="M501.828,113.392l-82.466-60.293c-15.025-10.985-34.291-14.93-52.601-10.77l-88.746,20.163h-44.029  l-88.747-20.163c-18.31-4.16-37.576-0.215-52.601,10.77l-82.466,60.293c-7.836,5.729-11.604,15.313-9.673,24.655  C9.002,179.192,47.05,286.81,212.916,295.074c16.897,0.842,69.271,0.842,86.168,0c165.866-8.265,203.914-115.883,212.417-157.027  C513.432,128.705,509.664,119.122,501.828,113.392z"/>
<path style="fill:#E6E6E6;" d="M219.736,289.987c-2.109-14.627-10.814-27.472-23.626-34.838l-3.33-1.545l-1.077,4.33  c-2.865,9.468-12.982,39.706-27.752,48.561c-17.59,10.546-32.623,0.458-35.283,5.486c-2.253,4.259,29.293,33.225,66.607,8.251  c9.335-6.248,16.225-13.006,21.309-19.627c0,0,1.586-1.759,4.023-4.495C220.311,294.002,220.019,291.953,219.736,289.987z"/>
<path style="fill:#CCCCCC;" d="M219.736,289.987c-1.409-9.773-5.775-18.741-12.332-25.82c-1.132,4.068-1.99,7.399-2.09,7.726  c-3.115,10.212-21.7,61.267-76.646,40.088c-0.07,0.133-0.108,0.29-0.113,0.469c-0.013,0.447,0.175,1.031,0.55,1.712  c0.15,0.273,0.33,0.561,0.54,0.863c0.209,0.302,0.448,0.617,0.715,0.943c1.334,1.63,3.375,3.532,6.018,5.408  c0.528,0.375,1.081,0.749,1.656,1.12c4.029,2.594,9.194,5.018,15.201,6.449c1.287,0.307,2.613,0.568,3.974,0.775  c5.446,0.829,11.465,0.798,17.87-0.61c2.135-0.469,4.314-1.092,6.528-1.887c2.215-0.795,4.465-1.762,6.746-2.921  c2.28-1.159,4.59-2.509,6.922-4.07c2.334-1.562,4.515-3.156,6.553-4.772c0.51-0.404,1.01-0.809,1.502-1.216  c0.984-0.813,1.932-1.631,2.847-2.452c4.116-3.696,7.547-7.464,10.407-11.188c0,0,1.586-1.759,4.023-4.495  C220.311,294.002,220.019,291.953,219.736,289.987z"/>
<path style="fill:#E6E6E6;" d="M290.898,289.987c2.109-14.627,10.814-27.472,23.626-34.839l3.33-1.545l1.077,4.33  c2.865,9.468,12.982,39.706,27.752,48.561c17.59,10.546,32.623,0.458,35.283,5.486c2.253,4.259-29.293,33.225-66.607,8.251  c-9.335-6.248-16.225-13.006-21.309-19.627c0,0-1.586-1.759-4.023-4.495C290.322,294.002,290.614,291.953,290.898,289.987z"/>
<path style="fill:#CCCCCC;" d="M305.319,271.892c3.115,10.212,21.7,61.267,76.646,40.088c-2.66-5.028-17.693,5.061-35.283-5.486  c-14.77-8.856-24.888-39.093-27.752-48.561l-1.077-4.33l-3.33,1.545c-4.251,2.444-8.038,5.502-11.294,9.018  C304.362,268.235,305.219,271.565,305.319,271.892z"/>
<path style="fill:#7C7B87;" d="M2.677,147.309c1.733-9.862,4.268-18.387,7.495-20.747l48.054-16.199  c15.166-5.113,30.158-10.792,44.604-17.682c13.046-6.222,28.023-7.957,42.409-4.689l88.746,20.163h44.029l88.746-20.163  c14.386-3.269,29.363-1.534,42.409,4.689c14.446,6.89,29.438,12.57,44.604,17.682l48.053,16.199  c3.227,2.359,5.762,10.885,7.495,20.746c0.881-3.356,1.601-6.466,2.178-9.261c1.931-9.342-1.837-18.926-9.673-24.655l-82.464-60.293  c-15.025-10.985-34.291-14.93-52.601-10.77l-88.746,20.163h-44.029l-88.747-20.163c-18.31-4.16-37.576-0.215-52.601,10.77  l-82.466,60.293c-7.836,5.729-11.604,15.313-9.673,24.655C1.076,140.842,1.796,143.953,2.677,147.309z"/>
<path style="fill:#706F7A;" d="M511.691,129.343c-0.46-2.842-1.427-5.582-2.85-8.096c-0.569-1.005-1.212-1.975-1.925-2.9  c-0.712-0.925-1.495-1.806-2.344-2.635s-1.765-1.605-2.745-2.321l-82.465-60.292c-5.634-4.12-11.865-7.249-18.418-9.332  c-2.184-0.695-4.405-1.273-6.65-1.732c-1.123-0.23-2.252-0.43-3.387-0.601c-3.404-0.511-6.853-0.754-10.315-0.722  c-1.154,0.011-2.309,0.052-3.465,0.125s-2.311,0.176-3.465,0.31c-2.309,0.269-4.612,0.662-6.901,1.182l-16.43,3.733l-72.316,16.43  h-44.029l-88.747-20.163c-18.31-4.16-37.576-0.215-52.601,10.77l-82.466,60.293c-1.469,1.074-2.796,2.284-3.968,3.602  c-0.391,0.439-0.765,0.891-1.121,1.354c-1.425,1.85-2.57,3.877-3.41,6.017c-0.21,0.535-0.401,1.077-0.572,1.625  c-0.343,1.096-0.608,2.217-0.792,3.353c-0.368,2.273-0.412,4.611-0.105,6.951c0.077,0.585,0.175,1.169,0.296,1.753l0,0l0,0  c0.578,2.794,1.297,5.905,2.178,9.26v0.001c1.733-9.862,4.268-18.387,7.495-20.747l48.054-16.199  c15.166-5.113,30.158-10.792,44.604-17.682c13.046-6.222,28.022-7.957,42.409-4.688l88.746,20.163h44.029l88.746-20.163  c14.386-3.269,29.363-1.534,42.409,4.688c14.446,6.89,29.438,12.57,44.604,17.682l48.054,16.199  c3.227,2.359,5.762,10.885,7.495,20.746v-0.002c0.439-1.671,0.837-3.281,1.198-4.822c0.002-0.007,0.004-0.015,0.005-0.022  c0.169-0.721,0.328-1.423,0.48-2.112c0.013-0.058,0.027-0.119,0.04-0.177c0.16-0.727,0.312-1.436,0.454-2.125  c0.121-0.584,0.219-1.169,0.296-1.753c0.153-1.17,0.219-2.339,0.2-3.5C511.978,131.633,511.875,130.48,511.691,129.343z"/>
<path style="fill:#7C7B87;" d="M318.049,385.499v10.419c0,8.334-6.756,15.09-15.09,15.09l0,0c-8.334,0-15.09-6.756-15.09-15.09  v-32.29c0-16.048,4.255-48.578,7.47-70.862c2.11-14.626,10.814-27.471,23.625-34.836l0,0l-4.61-18.477  c-2.339-9.374-1.076-19.284,3.538-27.772l14.3-26.309c6.474-11.911,8.316-25.977,5.142-39.273l0,0  c-1.801-7.542-1.979-15.381-0.525-22.998l1.728-9.05c2.3-12.042-1.982-24.425-11.111-32.133l-16.065-13.565  c-15.871-13.401-35.644-20.708-56.031-20.708l0,0c-20.387,0-40.16,7.308-56.031,20.708l-16.065,13.565  c-9.129,7.708-13.411,20.091-11.111,32.133l1.728,9.05c1.455,7.617,1.276,15.455-0.525,22.998l0,0  c-3.174,13.296-1.333,27.362,5.142,39.273l14.3,26.309c4.614,8.488,5.876,18.398,3.538,27.771l-4.61,18.477l0.165,0.095  c12.812,7.366,21.517,20.212,23.626,34.839c3.208,22.255,7.452,54.723,7.452,70.76v36.869c0,39.101,31.698,70.799,70.799,70.798l0,0  c39.102-0.001,70.8-31.699,70.8-70.801v-14.99H318.049z"/>
<g>
	<path style="fill:#71707F;" d="M192.768,211.68c3.149,5.794,4.734,12.25,4.681,18.745c0,0,17.58-58.575,13.901-70.021   c-3.732-11.609-27.957-26.262-36.696-31.235c0.437,5.666-0.003,11.377-1.328,16.928l0,0c-3.174,13.296-1.333,27.362,5.142,39.273   L192.768,211.68z"/>
	<path style="fill:#71707F;" d="M313.196,230.425c-0.053-6.496,1.532-12.952,4.681-18.745l14.301-26.309   c6.474-11.911,8.316-25.977,5.142-39.273l0,0c-1.325-5.551-1.764-11.263-1.328-16.928c-8.738,4.973-32.964,19.626-36.696,31.235   C295.616,171.851,313.196,230.425,313.196,230.425z"/>
</g>
<g>
	<path style="fill:#959599;" d="M156.243,262.885c11.903,1.89,20.757-11.253,14.245-21.394c-0.745-1.16-1.539-2.036-2.355-2.505   l-0.118-0.068l3.187-12.773c1.768-7.087,0.814-14.58-2.675-20.997l-10.034-18.46c-4.66-8.574-5.986-18.699-3.701-28.27l0,0   c1.296-5.429,1.425-11.072,0.378-16.555l-1.244-6.514c-0.818-4.284-0.475-8.627,0.871-12.595c0.265-0.781-0.209-1.616-1.013-1.799   l-19.21-4.364c-10.034-2.28-20.467-1.178-29.648,2.967c-10.818,4.884-21.811,9.369-33.058,13.16l-34.272,11.553   c-0.164,0.055-0.318,0.131-0.45,0.243c-2.227,1.897-3.982,7.882-5.193,14.773C39.901,189.576,66.768,248.68,156.243,262.885z"/>
	<path style="fill:#959599;" d="M355.757,262.885c-11.903,1.89-20.757-11.253-14.245-21.394c0.745-1.16,1.539-2.036,2.355-2.505   l0.118-0.068l-3.187-12.773c-1.768-7.087-0.814-14.58,2.675-20.997l10.034-18.46c4.66-8.574,5.986-18.699,3.701-28.27l0,0   c-1.296-5.429-1.425-11.072-0.378-16.555l1.244-6.514c0.818-4.284,0.475-8.627-0.871-12.595c-0.265-0.781,0.209-1.616,1.013-1.799   l19.21-4.364c10.034-2.28,20.467-1.178,29.648,2.967c10.818,4.884,21.811,9.369,33.058,13.16l34.272,11.553   c0.164,0.055,0.318,0.131,0.45,0.243c2.227,1.897,3.982,7.882,5.193,14.773C472.099,189.576,445.232,248.68,355.757,262.885z"/>
</g>
<path style="fill:#706F7A;" d="M255.33,47.644c-1.295,0-2.587,0.03-3.875,0.089c-0.119,0.005-0.237,0.018-0.355,0.024  c-1.178,0.059-2.354,0.136-3.526,0.243c-0.015,0.001-0.03,0.004-0.046,0.005c-2.557,0.236-5.098,0.587-7.615,1.049  c14.797,2.717,28.789,9.313,40.614,19.297l16.066,13.565c9.129,7.708,13.411,20.091,11.111,32.134l-1.728,9.05  c-1.455,7.617-1.276,15.455,0.525,22.998l0,0c3.174,13.296,1.333,27.362-5.142,39.273l-14.3,26.308  c-4.614,8.488-5.876,18.398-3.538,27.772l0.367,1.47c2.074,8.313,0.859,17-3.142,24.47l-0.825-0.383  c-15.838-7.354-34.005-7.352-49.843,0l-2.688,1.248c-3.757,1.745-5.388,6.205-3.644,9.962c1.27,2.734,3.978,4.343,6.807,4.343  c1.058,0,2.132-0.225,3.154-0.699l2.687-1.248c11.642-5.406,24.968-5.477,36.661-0.237c-2.212,4.607-4.07,9.885-5.032,15.724  c-0.337,2.042-0.652,4.047-0.956,6.03c-10.554-2.806-21.817-1.881-31.896,2.799l-2.059,0.956c-3.757,1.744-5.388,6.204-3.643,9.961  c1.27,2.734,3.978,4.343,6.807,4.343c1.058,0,2.132-0.225,3.154-0.7l2.058-0.955c7.439-3.455,15.826-3.911,23.519-1.379  c-1.029,8.583-1.711,16.527-2.092,23.889c-7.701-1.736-15.817-0.913-23.121,2.48l-1.488,0.69c-3.757,1.743-5.39,6.202-3.646,9.96  c1.744,3.757,6.2,5.39,9.96,3.646l1.489-0.69c5.211-2.419,11.126-2.602,16.447-0.558c0.548,63.194,27.494,73.274,47.943,65.928  c18.607-6.684,19.706-23.351,19.768-35h-12.219v10.418c0,7.489-5.462,13.687-12.615,14.87c-0.18,0.032-0.363,0.059-0.547,0.083  c-0.264,0.034-0.531,0.06-0.799,0.08c-0.135,0.01-0.262,0.033-0.399,0.04c-0.12,0.006-0.235-0.005-0.354-0.002  c-0.126,0.003-0.248,0.019-0.375,0.019c-0.154,0-0.303-0.018-0.455-0.023c-0.251-0.008-0.5-0.018-0.747-0.038  c-0.271-0.021-0.539-0.053-0.806-0.088c-0.243-0.032-0.485-0.067-0.724-0.111c-0.263-0.048-0.522-0.107-0.781-0.168  c-0.234-0.056-0.467-0.112-0.697-0.179c-0.255-0.074-0.503-0.158-0.752-0.245c-0.224-0.078-0.447-0.156-0.666-0.244  c-0.244-0.098-0.481-0.207-0.718-0.318c-0.213-0.099-0.425-0.196-0.632-0.304c-0.232-0.121-0.456-0.254-0.68-0.386  c-0.2-0.118-0.4-0.234-0.594-0.361c-0.219-0.143-0.428-0.298-0.638-0.451c-0.186-0.136-0.373-0.269-0.552-0.413  c-0.204-0.164-0.398-0.339-0.593-0.514c-0.17-0.152-0.343-0.301-0.507-0.46c-0.188-0.184-0.364-0.379-0.543-0.573  c-0.154-0.167-0.311-0.329-0.457-0.502c-0.171-0.203-0.329-0.418-0.489-0.63c-0.135-0.179-0.276-0.354-0.403-0.54  c-0.153-0.222-0.289-0.454-0.43-0.684c-0.116-0.19-0.239-0.376-0.347-0.571c-0.133-0.241-0.248-0.491-0.368-0.74  c-0.096-0.198-0.199-0.391-0.286-0.593c-0.113-0.262-0.205-0.534-0.303-0.803c-0.073-0.2-0.155-0.396-0.219-0.599  c-0.091-0.289-0.16-0.587-0.234-0.883c-0.049-0.195-0.109-0.385-0.15-0.583c-0.069-0.333-0.113-0.676-0.16-1.017  c-0.023-0.168-0.059-0.332-0.077-0.502c-0.053-0.515-0.081-1.037-0.081-1.566l0,0v-17.137v-15.154c0-0.458,0.004-0.932,0.011-1.416  c0-0.003,0-0.005,0-0.008c0.002-0.147,0.005-0.299,0.008-0.448l0,0c0.006-0.343,0.014-0.691,0.023-1.046v-0.001  c0.005-0.182,0.01-0.365,0.016-0.55l0,0c0.011-0.354,0.023-0.715,0.037-1.079c0-0.004,0-0.008,0-0.011  c0.006-0.168,0.012-0.333,0.019-0.504c0-0.002,0-0.005,0-0.007c0.021-0.521,0.045-1.051,0.071-1.592l0,0  c0.04-0.803,0.087-1.634,0.138-2.479c0-0.008,0.001-0.015,0.001-0.023c0.018-0.299,0.037-0.6,0.057-0.905c0-0.001,0-0.003,0-0.004  c0.027-0.423,0.056-0.852,0.086-1.284c0.01-0.147,0.02-0.293,0.031-0.44c0-0.001,0-0.002,0-0.003  c0.133-1.882,0.289-3.845,0.465-5.875v-0.002c0.013-0.149,0.026-0.299,0.039-0.449c0-0.004,0.001-0.008,0.001-0.013  c0.825-9.355,2.07-20.044,3.406-30.4c0.001-0.011,0.003-0.023,0.004-0.034c0.121-0.936,0.242-1.868,0.364-2.797  c0.011-0.083,0.022-0.167,0.033-0.25c0.119-0.908,0.239-1.812,0.359-2.711c0.005-0.04,0.011-0.08,0.016-0.12  c0.254-1.902,0.509-3.78,0.763-5.625c0.013-0.095,0.026-0.188,0.039-0.282c0.107-0.778,0.214-1.549,0.321-2.314  c0.03-0.214,0.059-0.426,0.089-0.639c0.092-0.66,0.184-1.315,0.275-1.964c0.031-0.221,0.062-0.441,0.093-0.661  c0.093-0.656,0.185-1.305,0.276-1.948c0.027-0.188,0.054-0.378,0.08-0.565c0.117-0.816,0.232-1.623,0.346-2.414  c0.264-1.828,0.63-3.629,1.095-5.394s1.028-3.496,1.685-5.184c0.774-1.992,1.694-3.915,2.72-5.777  c1.583-2.873,3.442-5.586,5.576-8.078c0.586-0.685,1.192-1.353,1.817-2.005c1.25-1.304,2.577-2.54,3.975-3.701  c2.097-1.742,4.355-3.315,6.757-4.697l0,0l-4.61-18.477c-0.267-1.069-0.48-2.145-0.654-3.224c-0.12-0.744-0.22-1.49-0.295-2.238  c-0.111-1.1-0.175-2.202-0.192-3.303c-0.001-0.04-0.004-0.08-0.004-0.121c-0.04-3.415,0.381-6.818,1.236-10.123  c0.055-0.213,0.108-0.426,0.167-0.637c0.777-2.804,1.87-5.532,3.28-8.126l14.3-26.308c0.405-0.745,0.791-1.497,1.16-2.258  c0.737-1.521,1.401-3.073,1.991-4.65c0.945-2.524,1.693-5.114,2.258-7.743c0.291-1.351,0.532-2.713,0.721-4.082  c0.363-2.626,0.545-5.279,0.53-7.938c0-0.024-0.002-0.048-0.002-0.072c-0.029-4.192-0.53-8.398-1.516-12.53l0,0  c-1.8-7.542-1.979-15.381-0.525-22.998l0.21-1.099l1.518-7.951c0.431-2.258,0.631-4.528,0.611-6.777  c-0.007-0.75-0.038-1.497-0.093-2.241c-0.11-1.487-0.317-2.961-0.616-4.41c-1.495-7.245-5.308-13.889-11.013-18.707l-16.065-13.565  c-1.984-1.675-4.029-3.255-6.128-4.737s-4.253-2.867-6.455-4.152c-5.505-3.212-11.311-5.799-17.317-7.725  C273.051,49.043,264.249,47.644,255.33,47.644L255.33,47.644z"/>
<g>
	<path style="fill:#4F4F59;" d="M195.877,177.103c1.4,1.162,3.098,1.729,4.786,1.729c2.429,0,4.837-1.173,6.309-3.436   c2.096-3.223,1.24-7.549-1.719-10.004l-9.466-7.855c-1.346-1.117-3.04-1.728-4.789-1.728h-2.802c-4.078,0-7.281,3.494-6.926,7.557   l0.096,1.096c0.314,3.592,3.321,6.347,6.926,6.347l0,0L195.877,177.103z"/>
	<path style="fill:#4F4F59;" d="M311.637,177.103c-1.4,1.162-3.098,1.729-4.786,1.729c-2.429,0-4.837-1.173-6.309-3.436   c-2.096-3.223-1.24-7.549,1.719-10.004l9.466-7.855c1.346-1.117,3.04-1.728,4.789-1.728h2.802c4.078,0,7.281,3.494,6.926,7.557   l-0.096,1.096c-0.314,3.592-3.321,6.347-6.926,6.347l0,0L311.637,177.103z"/>
</g>
<path style="fill:#7C7B87;" d="M366.105,390.705h-48.456c-2.662,0-4.82-2.158-4.82-4.82v-8.626c0-2.662,2.158-4.82,4.82-4.82h48.456  c2.662,0,4.82,2.158,4.82,4.82v8.626C370.925,388.547,368.767,390.705,366.105,390.705z"/>
<g>
</g>
<g>
</g>
<g>
</g>
<g>
</g>
<g>
</g>
<g>
</g>
<g>
</g>
<g>
</g>
<g>
</g>
<g>
</g>
<g>
</g>
<g>
</g>
<g>
</g>
<g>
</g>
<g>
</g>
</svg>
