<?xml version="1.0" encoding="iso-8859-1"?>
<!-- Generator: Adobe Illustrator 19.0.0, SVG Export Plug-In . SVG Version: 6.00 Build 0)  -->
<svg xmlns="http://www.w3.org/2000/svg" xmlns:xlink="http://www.w3.org/1999/xlink" version="1.1" id="Layer_1" x="0px" y="0px" viewBox="0 0 512 512" style="enable-background:new 0 0 512 512;" xml:space="preserve">
<path style="fill:#BF6101;" d="M361.46,173.895c0,0-14.828,29.981-68.46,3.105c-23.947-12-38-48.008-23.947-61.355  c6.961-4.158,34.325-22.986,32.008-60.828C298.408,11.494,338.195,0,338.195,0s38.018,18.567,27.114,86.646  C359.553,122.579,359.874,153.089,361.46,173.895z"/>
<path style="fill:#B25704;" d="M338.195,0c0,0-0.038,0.011-0.098,0.029c-0.004,0.001-0.006,0.002-0.011,0.003  c-0.067,0.021-0.169,0.052-0.296,0.094c-0.007,0.002-0.012,0.004-0.018,0.006c-0.127,0.041-0.286,0.094-0.467,0.156  c-0.015,0.005-0.029,0.01-0.044,0.015c-0.184,0.064-0.396,0.139-0.63,0.224c-0.018,0.007-0.036,0.013-0.054,0.02  c-0.236,0.086-0.497,0.185-0.777,0.293c-0.025,0.01-0.049,0.019-0.075,0.029c-0.282,0.11-0.586,0.231-0.908,0.364  c-0.032,0.013-0.063,0.026-0.095,0.039c-0.325,0.135-0.671,0.281-1.032,0.44c-0.034,0.015-0.068,0.03-0.103,0.045  c-0.366,0.161-0.75,0.335-1.148,0.521c-0.036,0.017-0.073,0.034-0.11,0.051c-0.403,0.189-0.821,0.39-1.253,0.605  c-0.037,0.019-0.075,0.038-0.113,0.056c-0.437,0.218-0.887,0.45-1.349,0.695c-0.036,0.019-0.072,0.038-0.107,0.057  c-0.468,0.25-0.948,0.513-1.438,0.792c-0.033,0.019-0.066,0.038-0.099,0.057c-0.497,0.284-1.003,0.581-1.518,0.895  c-0.025,0.015-0.051,0.031-0.076,0.047c-0.525,0.321-1.058,0.657-1.598,1.011c-0.014,0.009-0.028,0.019-0.042,0.028  c-1.674,1.098-3.409,2.354-5.144,3.784c10.013,11.72,21.526,34.818,14.883,76.291c-4.062,25.358-5.095,48.008-4.796,66.461  l-0.227,35.001c16.69,0.91,25.544-6.12,29.458-10.623l2.549-3.59c-0.595-7.802-1.011-16.969-0.996-27.274  c0.007-5.153,0.123-10.59,0.378-16.284c0.042-0.949,0.089-1.905,0.139-2.868c0.151-2.889,0.339-5.842,0.566-8.854  c0.076-1.004,0.156-2.014,0.241-3.031c0.17-2.034,0.358-4.094,0.566-6.179c0.728-7.297,1.696-14.897,2.955-22.758  C376.213,18.567,338.195,0,338.195,0z"/>
<path style="fill:#BF6101;" d="M150.54,173.895c0,0,14.828,29.981,68.46,3.105c23.947-12,38-48.008,23.947-61.355  c-6.961-4.158-34.325-22.986-32.008-60.828C213.592,11.494,173.805,0,173.805,0s-38.018,18.567-27.114,86.646  C152.447,122.579,152.126,153.089,150.54,173.895z"/>
<path style="fill:#B25704;" d="M173.723,0.042c-0.046,0.023-0.11,0.057-0.193,0.102c-0.007,0.004-0.017,0.009-0.025,0.013  c-0.09,0.049-0.198,0.108-0.326,0.181c-0.001,0.001-0.002,0.001-0.004,0.002c-0.126,0.072-0.273,0.158-0.433,0.253  c-0.019,0.012-0.039,0.023-0.059,0.035c-0.167,0.101-0.35,0.213-0.55,0.339c-0.003,0.002-0.006,0.004-0.008,0.005  c-0.205,0.13-0.427,0.274-0.664,0.432c-0.007,0.005-0.013,0.009-0.02,0.013c-0.233,0.156-0.482,0.326-0.743,0.51  c-0.022,0.016-0.045,0.032-0.067,0.047c-0.531,0.375-1.116,0.809-1.745,1.303c-0.019,0.015-0.037,0.029-0.057,0.044  c-0.313,0.248-0.638,0.511-0.971,0.789c-0.021,0.018-0.042,0.036-0.064,0.054c-0.672,0.563-1.382,1.19-2.12,1.883  c-0.032,0.03-0.064,0.06-0.097,0.091c-0.368,0.347-0.742,0.71-1.121,1.091c-0.014,0.014-0.028,0.028-0.042,0.042  c-0.386,0.388-0.777,0.792-1.173,1.216c-0.006,0.007-0.012,0.013-0.018,0.019c-0.386,0.413-0.776,0.846-1.168,1.293  c-0.045,0.051-0.09,0.103-0.135,0.154c-0.395,0.454-0.792,0.922-1.192,1.411l0,0c9.531,8.309,18.655,21.963,17.34,43.45  c-1.598,26.104,22.058,55.18,41.117,74.175l24.435,21.525c6.267-13.301,7.064-27.521-0.675-34.871l0,0  c-1.958-1.169-5.529-3.499-9.6-7.086c-0.905-0.797-1.834-1.656-2.776-2.579c-3.296-3.228-6.745-7.23-9.823-12.05  c-0.44-0.689-0.872-1.394-1.295-2.116c-0.846-1.444-1.655-2.956-2.416-4.536s-1.473-3.229-2.124-4.947s-1.241-3.506-1.758-5.364  c-0.259-0.929-0.499-1.876-0.719-2.84c-0.441-1.929-0.802-3.929-1.072-6.002c-0.54-4.145-0.714-8.578-0.425-13.308  C213.592,11.494,173.805,0,173.805,0s-0.027,0.014-0.052,0.026C173.744,0.031,173.734,0.036,173.723,0.042z"/>
<path style="fill:#FEA921;" d="M160.169,171.7l-2.073-3.075C114.715,114.772,41.798,96.979,15.671,92.167  c-5.033-0.927-9.675,2.923-9.675,8.04v39.951c0,37.077,22.177,70.558,56.317,85.021l48.063,13.005  c29.362,10.842,41.819,3.596,49.692-7.587C172.431,213.036,172.173,189.509,160.169,171.7z"/>
<path style="fill:#FEC373;" d="M125.065,192.783c-27.307-14.913-15.272-38.617-34.531-49.063  c-21.774-11.81-43.751-19.009-59.977-23.215c-2.496-0.647-4.924,1.244-4.924,3.823v20.743c0,28.832,16.906,54.771,43.181,66.437  l42.026,11.371C143.334,232.5,155.667,204.333,125.065,192.783z"/>
<path style="fill:#FEA921;" d="M351.831,171.7l2.073-3.075c43.381-53.853,116.298-71.646,142.425-76.458  c5.033-0.927,9.675,2.923,9.675,8.04v39.951c0,37.077-22.177,70.558-56.317,85.021l-48.063,13.005  c-29.362,10.842-41.819,3.596-49.692-7.587C339.569,213.036,339.827,189.509,351.831,171.7z"/>
<path style="fill:#FEC373;" d="M386.935,192.783c27.307-14.913,15.272-38.617,34.531-49.063  c21.774-11.81,43.751-19.009,59.977-23.215c2.496-0.647,4.924,1.244,4.924,3.823v20.743c0,28.832-16.906,54.771-43.181,66.437  l-42.026,11.371C368.666,232.5,356.333,204.333,386.935,192.783z"/>
<path style="fill:#FEA921;" d="M231.279,121.082l-93.652,61.259c-23.123,15.125-32.859,44.132-23.544,70.144l21.079,58.864  l15.657,76.529c3.719,18.179,11.927,35.138,23.877,49.333l20.982,24.924c10.98,13.042,27.158,20.571,44.207,20.571H256h16.114  c17.049,0,33.227-7.528,44.207-20.571l20.982-24.924c11.95-14.195,20.158-31.154,23.877-49.332l15.657-76.529l21.079-58.864  c9.315-26.013-0.421-55.019-23.544-70.144l-93.651-61.259C265.704,111.259,246.296,111.259,231.279,121.082z"/>
<path style="fill:#FE9901;" d="M374.372,182.341l-93.651-61.259c-12.051-7.883-26.928-9.433-40.096-4.664  c3.241,1.174,6.38,2.724,9.346,4.664l93.651,61.259c23.123,15.125,32.859,44.132,23.544,70.144l-21.079,58.864l-15.657,76.529  c-3.719,18.178-11.927,35.137-23.877,49.332l-20.982,24.924c-10.98,13.042-27.158,20.571-44.207,20.571H256h16.114  c17.049,0,33.228-7.529,44.207-20.571l20.982-24.924c11.95-14.195,20.158-31.154,23.877-49.332l15.657-76.529l21.079-58.864  C407.231,226.472,397.495,197.466,374.372,182.341z"/>
<g>
	<path style="fill:#FEC373;" d="M214.832,397.274c0,0,3.166-97.455-15.915-120.675c-15.635-19.027-69.361-38.45-88.26-47.136   c-0.372,7.651,0.715,15.463,3.423,23.023l21.079,58.864l15.657,76.529c3.719,18.179,11.927,35.138,23.877,49.333l20.982,24.924   c5.325,6.326,11.881,11.341,19.158,14.843L214.832,397.274L214.832,397.274z"/>
	<path style="fill:#FEC373;" d="M297.168,397.274c0,0-3.166-97.455,15.915-120.675c15.635-19.027,69.361-38.45,88.26-47.136   c0.372,7.651-0.715,15.463-3.423,23.023l-21.079,58.864l-15.657,76.529c-3.719,18.179-11.927,35.138-23.877,49.333l-20.982,24.924   c-5.325,6.326-11.881,11.341-19.158,14.843v-79.705H297.168z"/>
</g>
<path style="fill:#FEB64F;" d="M401.412,232.235c-0.002-0.873-0.024-1.745-0.064-2.615c-0.002-0.052-0.006-0.104-0.009-0.156  c-7.001,3.217-18.781,7.91-31.63,13.507c-0.579,3.195-1.419,6.376-2.542,9.514l-21.079,58.864l-15.657,76.529  c-3.719,18.178-11.927,35.137-23.877,49.332l-9.385,11.148v28.616c0.056-0.027,0.111-0.056,0.167-0.083  c0.839-0.407,1.671-0.832,2.49-1.279c0.065-0.035,0.128-0.074,0.192-0.109c0.817-0.45,1.625-0.917,2.42-1.407  c0.097-0.06,0.19-0.124,0.287-0.184c0.756-0.471,1.504-0.956,2.238-1.463c0.165-0.114,0.325-0.237,0.489-0.353  c0.657-0.463,1.31-0.933,1.949-1.425c0.283-0.219,0.557-0.451,0.836-0.675c0.509-0.407,1.02-0.811,1.516-1.236  c0.466-0.4,0.917-0.821,1.371-1.237c0.298-0.272,0.604-0.535,0.896-0.814c1.507-1.439,2.944-2.965,4.301-4.576l20.982-24.924  c11.95-14.195,20.158-31.154,23.877-49.332l15.657-76.529l21.079-58.864c0.153-0.427,0.287-0.858,0.43-1.287  c0.141-0.423,0.288-0.845,0.419-1.269c0.14-0.452,0.263-0.907,0.391-1.361c0.125-0.443,0.252-0.887,0.367-1.331  c0.112-0.433,0.213-0.866,0.314-1.3c0.112-0.48,0.221-0.961,0.321-1.442c0.083-0.401,0.162-0.802,0.237-1.204  c0.1-0.538,0.192-1.077,0.277-1.616c0.055-0.348,0.111-0.696,0.16-1.044c0.092-0.655,0.169-1.311,0.239-1.966  c0.025-0.235,0.056-0.47,0.078-0.705c0.176-1.869,0.265-3.737,0.265-5.598C401.414,232.32,401.412,232.278,401.412,232.235z"/>
<path style="fill:#9A4D01;" d="M330.064,456.681c-2.159-11.206-6.874-21.032-13.287-28.749c0.396-1.03,0.609-1.897,0.611-2.543  c0.001-0.163,0.001-0.327,0-0.49c-0.061-27.783-22.926-50.138-50.709-50.138H245.32c-27.783,0-50.648,22.356-50.709,50.138  c0,0.163,0,0.327,0,0.49c0.003,0.647,0.215,1.514,0.611,2.544c-6.412,7.716-11.127,17.541-13.286,28.747  c-1.295,6.718-1.416,12.714,0.561,16.761c3.918,8.017,11.584,13.512,23.464,16.981C217.303,503.703,237.641,511.729,256,512  c18.359-0.271,38.697-8.297,50.038-21.579c11.88-3.469,19.546-8.963,23.464-16.981C331.479,469.394,331.358,463.398,330.064,456.681  z"/>
<path style="fill:#713802;" d="M330.064,456.681c-2.159-11.206-6.874-21.032-13.287-28.749c0.396-1.03,0.609-1.897,0.611-2.543  c0.001-0.163,0.001-0.327,0-0.49c-0.061-27.783-22.926-50.138-50.709-50.138H245.32c-1.602,0-3.186,0.083-4.751,0.228  c25.59,2.377,45.9,23.73,45.958,49.91c0,0.163,0,0.327,0,0.49c0,0.006,0,0.013,0,0.019c-0.02,1.925,0.465,3.807,1.601,5.361  c5.285,7.233,9.172,16.036,11.075,25.911c1.294,6.717,1.416,12.713-0.562,16.76c-3.918,8.017-11.584,13.512-23.464,16.981  c-8.209,9.613-21.134,16.453-34.607,19.612c5.141,1.205,10.36,1.892,15.431,1.967c18.359-0.271,38.697-8.297,50.038-21.579  c11.88-3.469,19.546-8.963,23.464-16.981C331.479,469.394,331.358,463.398,330.064,456.681z"/>
<g>
	<path style="fill:#331D0E;" d="M234.71,415.909L234.71,415.909c-4.958-2.168-10.752-0.221-13.394,4.501l-3.409,6.092   c-2.573,4.598-1.347,10.39,2.868,13.551l8.863,6.647c1.956,1.467,4.336,2.261,6.782,2.261h2.401c5.152,0,9.329-4.177,9.329-9.329   l0,0c0-8.289-3.694-16.176-10.134-21.395C236.601,417.09,235.396,416.209,234.71,415.909z"/>
	<path style="fill:#331D0E;" d="M277.29,415.909L277.29,415.909c4.958-2.168,10.752-0.221,13.394,4.501l3.409,6.092   c2.573,4.598,1.347,10.39-2.868,13.551l-8.863,6.647c-1.956,1.467-4.336,2.261-6.782,2.261h-2.401   c-5.152,0-9.329-4.177-9.329-9.329l0,0c0-8.289,3.694-16.176,10.134-21.395C275.399,417.09,276.604,416.209,277.29,415.909z"/>
</g>
<g>
	<path style="fill:#4C3F21;" d="M165.225,313.54c4.143,0,7.5-3.357,7.5-7.5c0-4.497,3.658-8.155,8.154-8.155   c4.497,0,8.155,3.658,8.155,8.155c0,4.143,3.357,7.5,7.5,7.5s7.5-3.357,7.5-7.5c0-12.768-10.388-23.155-23.155-23.155   s-23.154,10.388-23.154,23.155C157.725,310.183,161.082,313.54,165.225,313.54z"/>
	<path style="fill:#4C3F21;" d="M322.966,306.04c0-4.497,3.658-8.155,8.154-8.155c4.497,0,8.155,3.658,8.155,8.155   c0,4.143,3.357,7.5,7.5,7.5s7.5-3.357,7.5-7.5c0-12.768-10.388-23.155-23.155-23.155s-23.154,10.388-23.154,23.155   c0,4.143,3.357,7.5,7.5,7.5S322.966,310.183,322.966,306.04z"/>
</g>
<g>
</g>
<g>
</g>
<g>
</g>
<g>
</g>
<g>
</g>
<g>
</g>
<g>
</g>
<g>
</g>
<g>
</g>
<g>
</g>
<g>
</g>
<g>
</g>
<g>
</g>
<g>
</g>
<g>
</g>
</svg>
