<?xml version="1.0" encoding="iso-8859-1"?>
<!-- Generator: Adobe Illustrator 19.0.0, SVG Export Plug-In . SVG Version: 6.00 Build 0)  -->
<svg xmlns="http://www.w3.org/2000/svg" xmlns:xlink="http://www.w3.org/1999/xlink" version="1.1" id="Layer_1" x="0px" y="0px" viewBox="0 0 512.002 512.002" style="enable-background:new 0 0 512.002 512.002;" xml:space="preserve">
<path style="fill:#58565D;" d="M145.292,220.938c-12.225-5.403-26.455-3.447-36.771,5.05c-3.789,3.121-6.75,5.56-6.88,5.67  c-37.425,31.536-76.441,69.043-62.529,78.166c25.039,16.419,72.6,17.608,87.637,13.637c9.158-2.419,17.717-12.807,24.961-25.23  l12.329-32.376C170.732,248.28,162.494,228.541,145.292,220.938L145.292,220.938z"/>
<path style="fill:#4E4D54;" d="M149.258,229.972L149.258,229.972c-4.09-2.687-9.447-2.439-13.262,0.627  c-10.021,8.052-21.065,17.167-31.77,26.487c-21.189,18.446-32.929,30.642-39.396,38.292c-1.033,1.222-0.471,3.109,1.06,3.569  c13.096,3.936,28.622,5.423,40.198,5.423c7.162,0,12.167-0.537,14.62-1.054c0.272-0.057,0.517-0.167,0.748-0.32  c1.919-1.279,9.112-7.222,19.341-29.371c1.169-2.531,8.232-19.287,12.67-29.843C155.578,238.765,153.807,232.96,149.258,229.972z"/>
<path style="fill:#58565D;" d="M366.712,220.938c12.225-5.403,26.455-3.447,36.771,5.05c3.789,3.121,6.75,5.56,6.88,5.67  c37.424,31.536,76.441,69.044,62.529,78.166c-25.039,16.419-72.6,17.608-87.637,13.637c-9.158-2.419-17.717-12.807-24.961-25.23  l-12.329-32.376C341.272,248.28,349.51,228.541,366.712,220.938L366.712,220.938z"/>
<path style="fill:#4E4D54;" d="M362.746,229.972L362.746,229.972c4.09-2.687,9.447-2.439,13.262,0.627  c10.021,8.052,21.065,17.167,31.77,26.487c21.189,18.446,32.929,30.642,39.396,38.292c1.033,1.222,0.471,3.109-1.06,3.569  c-13.096,3.936-28.622,5.423-40.198,5.423c-7.162,0-12.167-0.537-14.62-1.054c-0.272-0.057-0.517-0.167-0.748-0.32  c-1.919-1.279-9.112-7.222-19.341-29.371c-1.169-2.531-8.232-19.287-12.67-29.843C356.426,238.765,358.197,232.96,362.746,229.972z"/>
<path style="fill:#2B2B2D;" d="M273.216,462.059h-34.429c-16.235,0-29.397-13.161-29.397-29.397v-21.981h93.222v21.981  C302.613,448.897,289.452,462.059,273.216,462.059z"/>
<path style="fill:#222223;" d="M271.657,410.681v21.981c0,16.235-13.161,29.397-29.397,29.397h30.956  c16.235,0,29.397-13.161,29.397-29.397v-21.981H271.657z"/>
<path style="fill:#58565D;" d="M337.088,192.975l-35.844-19.14c-13.915-7.43-29.367-11.682-45.139-11.932  c-0.352-0.006-0.705-0.01-1.057-0.013c-18.203-0.162-36.098,4.711-51.809,13.904l-28.794,16.848  c-22.814,5.04-36.852,25.814-33.71,48.576l11.499,66.4c1.606,11.901,8.066,22.984,17.966,31.13l0,0  c8.513,7.004,14.183,15.912,16.19,25.258l7.316,34.065c2.248,10.467,11.5,17.943,22.206,17.943h80.235  c10.706,0,19.958-7.476,22.206-17.943l7.316-34.066c2.007-9.345,7.677-18.254,16.19-25.258l0,0  c9.901-8.146,16.36-19.228,17.967-31.13l11.446-66.001C374.435,218.687,360.151,197.809,337.088,192.975z"/>
<path style="fill:#4E4D54;" d="M337.088,192.975l-35.844-19.14c-13.915-7.43-29.367-11.682-45.139-11.932  c-0.352-0.006-0.705-0.01-1.057-0.013c-5.594-0.05-11.159,0.38-16.641,1.261c10.926,1.788,21.515,5.44,31.337,10.685l35.844,19.14  c23.063,4.834,37.347,25.712,34.182,48.642l-11.446,66.001c-1.607,11.901-8.066,22.984-17.967,31.13  c-8.513,7.004-14.183,15.912-16.19,25.258l-7.316,34.066c-2.248,10.467-11.5,17.943-22.206,17.943h31.5  c10.706,0,19.958-7.476,22.206-17.943l7.316-34.066c2.007-9.345,7.677-18.254,16.19-25.258c9.901-8.146,16.36-19.228,17.967-31.13  l11.445-66.001C374.435,218.687,360.151,197.809,337.088,192.975z"/>
<path style="fill:#3D3D42;" d="M311.679,387.083c-3.395-14.618-7.529-16.942-17.391-17.105c-8.844-0.146-17.63,1.465-25.923,4.543  l-12.363,4.589l-12.363-4.589c-8.293-3.078-17.078-4.689-25.923-4.543c-9.862,0.163-13.996,2.487-17.391,17.105  c-1.145,4.93-4.228,30.143,1.335,38.94c6.814,10.775,22.285,15.261,54.342,15.688c32.056-0.427,47.528-4.912,54.342-15.688  C315.906,417.225,312.824,392.013,311.679,387.083z"/>
<path style="fill:#343438;" d="M311.679,387.082c-3.395-14.618-7.529-16.942-17.391-17.105c-6.878-0.114-13.716,0.848-20.319,2.723  c2.952,2.351,4.957,6.643,6.754,14.382c1.145,4.93,4.228,30.143-1.335,38.94c-5.609,8.871-17.096,13.476-38.864,15.066  c4.674,0.341,9.812,0.547,15.478,0.622c32.056-0.427,47.528-4.912,54.342-15.688C315.906,417.225,312.824,392.013,311.679,387.082z"/>
<path style="fill:#8B8992;" d="M465.317,62.568c-9.505-5.397-19.246-9.474-27.903-12.495c-2.249-0.785-3.861,2.195-1.957,3.625  c15.867,11.924,35.949,29.757,41.199,53.046c13.061,57.929-34.569,76.161-56.641,73.985c-0.005,0-0.01-0.001-0.014-0.001  c-31.782-3.14-70.827-24.868-103.558-47.262c-20.34-13.917-45.939-8.864-60.442,7.527c-14.503-16.391-40.102-21.444-60.442-7.527  c-32.73,22.394-71.776,44.122-103.558,47.262c-0.005,0-0.01,0.001-0.014,0.001c-22.072,2.177-69.703-16.055-56.641-73.985  c5.251-23.289,25.333-41.122,41.199-53.046c1.904-1.431,0.292-4.41-1.957-3.625c-8.657,3.02-18.398,7.097-27.903,12.495  C10.719,82.996-3.035,113.755,0.551,150.12c13.627,138.152,203.992,62.32,255.451,37.74  c51.459,24.58,241.824,100.412,255.449-37.741C515.037,113.755,501.283,82.996,465.317,62.568z"/>
<path style="fill:#797882;" d="M256.002,157.642c-50.866,24.296-237.444,98.66-254.9-33.056c-1.259,8.133-1.424,16.665-0.549,25.533  c13.625,138.153,203.99,62.321,255.449,37.741c51.459,24.58,241.824,100.412,255.449-37.741c0.875-8.868,0.709-17.4-0.549-25.533  C493.446,256.302,306.868,181.938,256.002,157.642z"/>
<g>
	<path style="fill:#333333;" d="M185.498,272.918c-4.086,0.674-6.853,4.534-6.178,8.621s4.535,6.856,8.622,6.178   c0.586-0.099,14.509-2.2,19.617,13.778c1.019,3.186,3.967,5.218,7.142,5.218c0.757,0,1.526-0.115,2.286-0.358   c3.946-1.261,6.122-5.482,4.86-9.428C214.637,274.379,194.914,271.36,185.498,272.918z"/>
	<path style="fill:#333333;" d="M202.253,303.363l-12.043-6.333c-3.665-1.929-8.2-0.52-10.129,3.147   c-1.928,3.666-0.519,8.2,3.147,10.128l12.043,6.333c1.114,0.586,2.308,0.864,3.484,0.864c2.696,0,5.302-1.459,6.645-4.012   C207.329,309.825,205.919,305.291,202.253,303.363z"/>
	<path style="fill:#333333;" d="M324.125,287.728c4.062,0.638,7.889-2.122,8.56-6.188c0.675-4.087-2.092-7.947-6.178-8.621   c-9.423-1.555-29.14,1.461-36.348,24.009c-1.261,3.945,0.915,8.167,4.86,9.428c0.759,0.243,1.529,0.358,2.286,0.358   c3.175,0,6.124-2.032,7.142-5.218C309.268,286.409,321.656,287.372,324.125,287.728z"/>
	<path style="fill:#333333;" d="M321.794,297.03l-12.043,6.333c-3.666,1.928-5.075,6.462-3.147,10.128   c1.342,2.553,3.948,4.012,6.645,4.012c1.177,0,2.371-0.278,3.484-0.864l12.043-6.333c3.666-1.928,5.075-6.462,3.147-10.128   C329.994,296.511,325.46,295.1,321.794,297.03z"/>
</g>
<g>
	<path style="fill:#2B2B2D;" d="M229.046,396.24c-2.499-3.304-7.202-3.956-10.506-1.457c-3.303,2.499-3.956,7.203-1.457,10.506   l10.75,14.21c1.475,1.95,3.718,2.976,5.987,2.976c1.576,0,3.165-0.494,4.519-1.519c3.303-2.499,3.956-7.203,1.457-10.506   L229.046,396.24z"/>
	<path style="fill:#2B2B2D;" d="M293.464,394.783c-3.303-2.499-8.007-1.847-10.506,1.457l-10.75,14.21   c-2.499,3.303-1.847,8.007,1.457,10.506c1.354,1.024,2.943,1.519,4.519,1.519c2.27,0,4.513-1.025,5.987-2.976l10.75-14.21   C297.42,401.986,296.768,397.282,293.464,394.783z"/>
</g>
<g>
</g>
<g>
</g>
<g>
</g>
<g>
</g>
<g>
</g>
<g>
</g>
<g>
</g>
<g>
</g>
<g>
</g>
<g>
</g>
<g>
</g>
<g>
</g>
<g>
</g>
<g>
</g>
<g>
</g>
</svg>
