<?xml version="1.0" encoding="iso-8859-1"?>
<!-- Generator: Adobe Illustrator 19.0.0, SVG Export Plug-In . SVG Version: 6.00 Build 0)  -->
<svg xmlns="http://www.w3.org/2000/svg" xmlns:xlink="http://www.w3.org/1999/xlink" version="1.1" id="Layer_1" x="0px" y="0px" viewBox="0 0 512 512" style="enable-background:new 0 0 512 512;" xml:space="preserve">
<path style="fill:#FE9901;" d="M261.505,3.869C189.427,0.777,129.71,59.442,129.71,131.586v185.966c0,0.06,0.048,0.108,0.108,14.469  h252.364c0.06-14.361,0.108-14.409,0.108-14.469V130.041C382.29,62.137,328.699,6.75,261.505,3.869z"/>
<path style="fill:#F9A93E;" d="M163.933,332.021h50.893v-70.396c-25.505-14.556-48.673-51.312-50.893-79.203V332.021z"/>
<path style="fill:#FED9A8;" d="M318.468,302.45l-16.166-9.7l-3.148-32.611c-5.638,3.216-11.485,5.668-17.391,7.135l-1.012,0.251  c-22.15,5.5-28.625,5.462-50.757-0.11c-5.83-1.468-11.601-3.901-17.169-7.079l-3.127,32.414l-16.163,9.699l62.402,43.994  l0.016,0.012l0.047,0.032l0,0l0,0l0,0l0.264-0.182L318.468,302.45z"/>
<path style="fill:#F2C18B;" d="M281.763,267.274l-1.012,0.251c-22.15,5.5-28.625,5.462-50.757-0.11  c-5.837-1.469-11.615-3.907-17.19-7.091l-0.178,4.675c6.28,8.051,32.073,34.572,88.433,16.264l-1.926-21.112  C293.502,263.361,287.662,265.809,281.763,267.274z"/>
<path style="fill:#F28F0C;" d="M261.505,3.869c-7.052-0.302-13.983-0.006-20.754,0.829c62.44,7.637,110.801,60.84,110.801,125.343  v187.511c0,0.06-0.048,0.108-0.108,14.469h30.738c0.06-14.361,0.108-14.41,0.108-14.469V130.041  C382.29,62.137,328.699,6.75,261.505,3.869z"/>
<path style="fill:#FED9A8;" d="M348.286,140.974V92.05c-17.939,35.723-66.772,54.615-124.212,54.615  c-21.759,0-60.36-5.69-60.36-5.69c-9.998,0.584-17.932,8.854-17.932,18.998v11.12c0,10.208,8.033,18.517,18.12,19.008  c2.534,34.065,33.457,72.1,66.092,80.316c22.132,5.572,28.607,5.61,50.757,0.11l1.012-0.251  c32.688-8.116,63.674-46.072,66.319-80.174c10.094-0.483,18.136-8.795,18.136-19.009v-11.12  C366.218,149.828,358.284,141.559,348.286,140.974z"/>
<path style="fill:#FFC07B;" d="M348.286,140.957v-48.83c0-0.02-0.026-0.026-0.035-0.008c-6.254,12.418-16.252,22.793-29.04,31.052  c-0.005,0.003-0.009,0.009-0.009,0.016v17.788l-0.204,49.126v0.001c-2.645,34.102-33.631,72.058-66.319,80.174l-1.012,0.251  c-4.01,0.996-7.502,1.807-10.671,2.44c14.108,2.841,21.757,2.028,39.754-2.44l1.012-0.251c32.682-8.114,63.663-46.058,66.317-80.156  c0.001-0.011,0.009-0.019,0.02-0.019c10.086-0.492,18.118-8.8,18.118-19.008v-11.12c0-10.139-7.925-18.404-17.914-18.997  C348.294,140.975,348.286,140.967,348.286,140.957z"/>
<path style="fill:#F7C68B;" d="M163.621,178.387h6.574v-25.992h-6.574c-3.286,0-5.951,2.664-5.951,5.951v14.091  C157.671,175.723,160.335,178.387,163.621,178.387z"/>
<path style="fill:#F2AD5A;" d="M348.631,178.387h-6.574v-25.992h6.574c3.286,0,5.951,2.664,5.951,5.951v14.091  C354.581,175.723,351.917,178.387,348.631,178.387z"/>
<path style="fill:#F9A93E;" d="M196.952,78.695c-17.484,16.258-19.009,41.411-30.063,29.522s-5.842-34.706,11.642-50.963  s40.62-19.8,51.674-7.911S214.437,62.437,196.952,78.695z"/>
<path style="fill:#FFC07B;" d="M348.286,107.677V92.079c-0.006,0.008-0.017,0.023-0.018,0.024c-1.445,2.866-3.11,5.611-4.942,8.259  c-20.943,30.327-66.451,46.302-119.252,46.302c-20.852,0-57.149-5.222-60.139-5.657v6.497c0,0,39.252,14.726,60.172,14.726  C281.514,162.23,330.322,143.36,348.286,107.677z"/>
<path style="fill:#FFF4E9;" d="M253.137,247.517c17.274,0,31.277-11.66,31.277-26.044H221.86  C221.86,235.857,235.863,247.517,253.137,247.517z"/>
<path style="fill:#D6B79D;" d="M493.346,391.578c-1.743-32.443-22.72-59.749-52.378-67.928l-114.849-26.598L256,346.487  l-70.119-49.434L71.032,323.651c-29.658,8.179-50.635,35.485-52.378,67.928l-4.905,108.159C13.409,506.404,18.607,512,25.138,512  h229.829H256h1.032h229.829c6.531,0,11.729-5.595,11.389-12.262L493.346,391.578z"/>
<path style="fill:#B79274;" d="M92.285,512l3.165-80.057c1.284-27.7-7.203-54.95-23.916-76.795L53.32,331.382  c-20.026,12.356-33.295,34.685-34.666,60.197l-4.905,108.159C13.409,506.404,18.607,512,25.138,512h0.083c0.001,0,0.003,0,0.004,0  H92.285z"/>
<polygon style="fill:#E6E6E6;" points="359.893,304.873 326.124,297.053 326.123,297.054 359.91,304.878 "/>
<polygon style="fill:#F2F2F2;" points="326.119,297.053 319.262,301.887 319.267,301.888 326.123,297.054 "/>
<path style="fill:#B79274;" d="M201.104,490.006h-53.311c-8.134,0-14.728-6.594-14.728-14.728v-71.995  c0-2.098,1.701-3.799,3.799-3.799h75.168c2.098,0,3.799,1.701,3.799,3.799v71.995C215.832,483.412,209.238,490.006,201.104,490.006z  "/>
<path style="fill:#AB825B;" d="M196.412,433.61h-43.927c-10.725,0-19.42-8.695-19.42-19.42v-10.908c0-2.098,1.701-3.799,3.799-3.799  h75.168c2.098,0,3.799,1.701,3.799,3.799v10.908C215.832,424.916,207.137,433.61,196.412,433.61z"/>
<path style="fill:#B79274;" d="M364.207,490.006h-53.311c-8.134,0-14.728-6.594-14.728-14.728v-71.995  c0-2.098,1.701-3.799,3.799-3.799h75.168c2.098,0,3.799,1.701,3.799,3.799v71.995C378.935,483.412,372.341,490.006,364.207,490.006z  "/>
<path style="fill:#AB825B;" d="M359.515,433.61h-43.927c-10.725,0-19.42-8.695-19.42-19.42v-10.908c0-2.098,1.701-3.799,3.799-3.799  h75.168c2.098,0,3.799,1.701,3.799,3.799v10.908C378.935,424.916,370.24,433.61,359.515,433.61z"/>
<polygon style="fill:#B79274;" points="256,346.487 242.135,336.711 242.135,512 254.968,512 256,512 257.032,512 269.865,512   269.865,336.711 "/>
<path style="fill:#AB825B;" d="M255.998,346.485l-0.002,0.001l-0.059-0.044l-70.056-49.389l-33.769,7.82l-0.174,0.053l47.637,62.018  c1.719,2.237,4.704,2.996,7.248,1.843l49.176-22.3L255.998,346.485z"/>
<g>
	<rect x="168.39" y="433.61" style="fill:#D6B79D;" width="12.12" height="56.4"/>
	<rect x="331.49" y="433.61" style="fill:#D6B79D;" width="12.12" height="56.4"/>
</g>
<path style="fill:#BC9A7B;" d="M460.579,512h26.283c6.531,0,11.729-5.595,11.389-12.262l-4.905-108.159  c-1.743-32.443-22.72-59.749-52.378-67.928l-114.849-26.598l-7.241,5.105l92.049,21.318c29.777,8.212,50.839,35.628,52.589,68.201  l4.925,108.595C468.716,505.69,465.349,510.4,460.579,512z"/>
<path style="fill:#AB825B;" d="M312.653,366.943l47.61-61.983l-34.144-7.907L256,346.486l49.376,22.307  C307.93,369.951,310.927,369.189,312.653,366.943z"/>
<polygon style="fill:#A07552;" points="355.841,310.718 360.263,304.96 326.119,297.053 318.878,302.158 "/>
<path style="fill:#D6B79D;" d="M435.326,133.377c0,11.177-72.121,20.238-179.326,20.238s-179.326-9.061-179.326-20.238  S148.795,96.565,256,96.565S435.326,122.2,435.326,133.377z"/>
<path style="fill:#BC9A7B;" d="M435.279,132.901c-0.009-0.052-0.022-0.105-0.034-0.158c-0.026-0.113-0.058-0.227-0.097-0.343  c-0.02-0.059-0.038-0.118-0.061-0.177c-0.062-0.159-0.133-0.319-0.219-0.482l0,0C428.595,119.889,358.26,96.565,256,96.565  c-5.23,0-10.373,0.063-15.431,0.18c98.636,2.288,163.895,26,163.895,36.631c0,5.162-15.389,9.873-42.513,13.448  c-28.735,2.282-64.749,3.622-105.951,3.622c-102.26,0-172.595-8.244-178.867-18.705c-0.303,0.573-0.459,1.12-0.459,1.635  c0,10.885,68.407,19.761,171.002,20.218c0.404,0.002,0.809,0.003,1.213,0.005c2.355,0.009,4.721,0.015,7.111,0.015  c107.205,0,179.326-9.061,179.326-20.238C435.326,133.221,435.307,133.062,435.279,132.901z"/>
<path style="fill:#D6B79D;" d="M338.2,15.166C323.483,4.271,300.267,0.908,275.119,0H236.88  c-25.147,0.908-48.364,4.271-63.08,15.166c-54.991,40.709-43.027,100.865-42.962,101.245c1.543,9.163,248.781,9.163,250.324,0  C381.226,116.03,393.19,55.875,338.2,15.166z"/>
<path style="fill:#BC9A7B;" d="M338.2,15.166C323.483,4.271,300.267,0.908,275.12,0h-30.862c25.147,0.908,48.363,4.271,63.08,15.166  c54.991,40.709,43.027,100.864,42.962,101.245c-0.708,4.202-53.078,6.477-109.731,6.825c66.894,0.411,139.758-1.863,140.593-6.825  C381.226,116.03,393.19,55.875,338.2,15.166z"/>
<path style="fill:#01544B;" d="M130.157,91.636c-1.338,14.588,0.654,24.62,0.68,24.775c1.543,9.163,248.781,9.163,250.324,0  c0.026-0.155,2.018-10.187,0.68-24.775C346.399,98.208,165.601,98.208,130.157,91.636z"/>
<path style="fill:#00493E;" d="M382.302,101.271c-0.001-0.176-0.001-0.352-0.003-0.53c-0.002-0.275-0.006-0.555-0.011-0.836  c-0.003-0.162-0.005-0.322-0.008-0.487c-0.009-0.433-0.02-0.871-0.035-1.317c-0.004-0.117-0.009-0.237-0.014-0.354  c-0.013-0.347-0.026-0.697-0.042-1.052c-0.008-0.177-0.018-0.357-0.027-0.536c-0.015-0.302-0.032-0.606-0.05-0.914  c-0.011-0.193-0.023-0.387-0.036-0.582c-0.02-0.314-0.043-0.632-0.066-0.952c-0.013-0.182-0.026-0.364-0.04-0.548  c-0.033-0.427-0.07-0.859-0.109-1.294c-0.007-0.078-0.013-0.154-0.02-0.232c0-0.001,0-0.002,0-0.003  c-6.237,1.156-16.988,2.108-30.643,2.858c0.388,6.552,0.242,26.528,0.242,26.528c0.477-0.03,0.946-0.06,1.414-0.091  c0.132-0.009,0.263-0.017,0.394-0.026c0.449-0.03,0.893-0.059,1.333-0.089c0.13-0.009,0.258-0.018,0.387-0.027  c1.436-0.099,2.825-0.202,4.162-0.307c0.086-0.007,0.174-0.013,0.26-0.02c0.385-0.031,0.762-0.061,1.138-0.092  c0.169-0.014,0.337-0.028,0.504-0.042c0.333-0.028,0.662-0.056,0.988-0.084c0.036-0.003,0.073-0.006,0.109-0.01  c0.141-0.012,0.281-0.025,0.421-0.037c1.135-0.101,2.226-0.204,3.271-0.31c0.168-0.017,0.336-0.034,0.502-0.051  c0.016-0.002,0.032-0.003,0.048-0.005c0.268-0.028,0.532-0.056,0.794-0.084c0.192-0.021,0.381-0.041,0.569-0.062  c0.264-0.029,0.527-0.058,0.784-0.088c0.184-0.021,0.363-0.043,0.544-0.064c0.418-0.049,0.825-0.099,1.223-0.149  c0.128-0.016,0.254-0.032,0.382-0.049c0.104-0.013,0.21-0.027,0.313-0.04c0.181-0.024,0.358-0.048,0.536-0.072  c0.179-0.024,0.358-0.049,0.533-0.073c0.02-0.003,0.041-0.006,0.061-0.009c0.187-0.026,0.371-0.053,0.552-0.08  c0.196-0.029,0.386-0.058,0.576-0.087c0.172-0.026,0.345-0.053,0.511-0.079c0.245-0.039,0.482-0.079,0.716-0.118  c0.19-0.032,0.376-0.065,0.559-0.097c0.005-0.001,0.009-0.002,0.014-0.003c0.207-0.037,0.412-0.074,0.609-0.111  c0.109-0.021,0.213-0.041,0.317-0.062c0.041-0.008,0.081-0.016,0.122-0.024c0.155-0.031,0.309-0.062,0.457-0.093  c0.08-0.017,0.158-0.034,0.236-0.05c0.079-0.017,0.155-0.034,0.232-0.051c0.136-0.03,0.271-0.061,0.401-0.092  c0.042-0.01,0.084-0.02,0.127-0.03c0.099-0.024,0.194-0.048,0.289-0.072c0.149-0.038,0.296-0.075,0.435-0.113  c0.104-0.028,0.204-0.057,0.303-0.086c0.13-0.038,0.255-0.075,0.376-0.113c0.093-0.029,0.184-0.059,0.271-0.088  c0.113-0.038,0.22-0.076,0.323-0.115c0.08-0.03,0.159-0.06,0.233-0.09c0.096-0.039,0.185-0.078,0.271-0.117  c0.066-0.03,0.133-0.06,0.194-0.091c0.081-0.041,0.153-0.082,0.223-0.123c0.045-0.026,0.092-0.052,0.133-0.079  c0.013-0.009,0.027-0.019,0.041-0.028c0.056-0.037,0.104-0.075,0.151-0.113c0.023-0.018,0.047-0.036,0.068-0.055  c0.018-0.016,0.037-0.033,0.054-0.049c0.043-0.042,0.078-0.085,0.11-0.128c0.008-0.01,0.017-0.02,0.024-0.03  c0.013-0.017,0.027-0.035,0.037-0.052c0.041-0.07,0.072-0.14,0.084-0.21c0.002-0.012,0.015-0.081,0.038-0.204  c0-0.001,0-0.003,0.001-0.004c0.001-0.004,0.001-0.008,0.002-0.011c0.009-0.049,0.02-0.11,0.031-0.175  c0.002-0.012,0.004-0.025,0.006-0.037c0.002-0.013,0.004-0.023,0.006-0.036c0.011-0.062,0.023-0.134,0.035-0.208  c0.005-0.032,0.01-0.059,0.016-0.092c0.018-0.107,0.036-0.225,0.057-0.353c0.003-0.021,0.007-0.043,0.01-0.066  c0.003-0.022,0.007-0.046,0.011-0.069c0.014-0.09,0.028-0.183,0.043-0.282c0.004-0.029,0.009-0.06,0.013-0.091  c0.005-0.037,0.011-0.075,0.017-0.114c0.013-0.089,0.026-0.182,0.039-0.277c0.006-0.046,0.013-0.093,0.02-0.141  c0.005-0.034,0.009-0.066,0.014-0.101c0.015-0.11,0.031-0.228,0.046-0.346c0.005-0.038,0.01-0.076,0.015-0.113  c0.006-0.043,0.011-0.083,0.017-0.127c0.025-0.193,0.049-0.394,0.075-0.604c0.009-0.08,0.019-0.166,0.028-0.248  c0.017-0.145,0.034-0.291,0.05-0.444c0.007-0.065,0.014-0.133,0.021-0.2c0.005-0.044,0.009-0.088,0.014-0.133  c0.015-0.138,0.029-0.279,0.044-0.424c0.008-0.076,0.015-0.155,0.023-0.233c0.004-0.042,0.008-0.082,0.012-0.124  c0.015-0.16,0.031-0.325,0.046-0.492c0.005-0.055,0.01-0.111,0.015-0.166c0.006-0.062,0.011-0.122,0.017-0.185  c0.018-0.209,0.036-0.425,0.053-0.644c0-0.006,0.001-0.012,0.001-0.019c0.01-0.123,0.019-0.246,0.029-0.371  c0.001-0.01,0.002-0.021,0.002-0.032c0.018-0.238,0.035-0.479,0.052-0.728c0.001-0.02,0.003-0.041,0.004-0.061  c0.007-0.111,0.014-0.226,0.021-0.34c0.012-0.196,0.024-0.394,0.036-0.596c0.008-0.149,0.017-0.301,0.024-0.453  c0.01-0.199,0.02-0.402,0.029-0.607c0.007-0.157,0.014-0.313,0.021-0.473c0.009-0.226,0.018-0.458,0.026-0.691  c0.005-0.142,0.01-0.281,0.015-0.425c0.011-0.364,0.02-0.737,0.028-1.115c0-0.008,0-0.017,0-0.025  c0.003-0.135,0.004-0.274,0.006-0.411c0.004-0.256,0.008-0.514,0.01-0.776c0.001-0.171,0.002-0.344,0.003-0.517  C382.303,101.779,382.303,101.526,382.302,101.271z"/>
<path style="fill:#B79274;" d="M440.553,355.148l18.166-23.744c20.005,12.361,33.258,34.678,34.627,60.174l4.905,108.159  c0.339,6.667-4.858,12.262-11.389,12.262h-67.06l-3.165-80.057C415.353,404.243,423.84,376.993,440.553,355.148z"/>
<g>
	<path style="fill:#4C3F21;" d="M210.792,189.012L210.792,189.012c-4.073,0-7.375-3.302-7.375-7.375v-6.5   c0-4.073,3.302-7.375,7.375-7.375l0,0c4.073,0,7.375,3.302,7.375,7.375v6.5C218.167,185.71,214.865,189.012,210.792,189.012z"/>
	<path style="fill:#4C3F21;" d="M301.208,189.012L301.208,189.012c-4.073,0-7.375-3.302-7.375-7.375v-6.5   c0-4.073,3.302-7.375,7.375-7.375l0,0c4.073,0,7.375,3.302,7.375,7.375v6.5C308.583,185.71,305.281,189.012,301.208,189.012z"/>
</g>
<g>
</g>
<g>
</g>
<g>
</g>
<g>
</g>
<g>
</g>
<g>
</g>
<g>
</g>
<g>
</g>
<g>
</g>
<g>
</g>
<g>
</g>
<g>
</g>
<g>
</g>
<g>
</g>
<g>
</g>
</svg>
