<?xml version="1.0" encoding="iso-8859-1"?>
<!-- Generator: Adobe Illustrator 19.0.0, SVG Export Plug-In . SVG Version: 6.00 Build 0)  -->
<svg xmlns="http://www.w3.org/2000/svg" xmlns:xlink="http://www.w3.org/1999/xlink" version="1.1" id="Layer_1" x="0px" y="0px" viewBox="0 0 512 512" style="enable-background:new 0 0 512 512;" xml:space="preserve">
<path style="fill:#008777;" d="M375.848,168.592l-94.998-8.612c-2.627-0.238-5.233-0.662-7.804-1.252  c-11.218-2.576-22.875-2.576-34.093,0c-2.571,0.59-5.177,1.014-7.804,1.252l-94.998,8.612c-34.638,3.14-58.903,35.627-52.084,69.732  l0,0c7.71,38.561,50.508,58.685,85.123,40.027l58.593-31.583c7.224-3.894,15.18-6.321,23.371-6.843c3.227-0.206,6.464-0.206,9.691,0  c8.19,0.522,16.146,2.949,23.371,6.843l58.593,31.583c34.616,18.658,77.413-1.466,85.123-40.027l0,0  C434.75,204.219,410.486,171.733,375.848,168.592z"/>
<path style="fill:#006659;" d="M342.808,247.561l-58.593-31.583c-7.224-3.894-15.18-6.321-23.371-6.844  c-3.227-0.206-6.464-0.206-9.691,0c-8.19,0.522-16.146,2.95-23.371,6.844l-58.593,31.583c-33.423,18.015-74.469-0.127-84.199-36.109  c-2.32,8.469-2.777,17.608-0.924,26.872l0,0c7.71,38.561,50.508,58.685,85.123,40.027l58.593-31.583  c7.224-3.894,15.18-6.322,23.371-6.844c3.227-0.206,6.464-0.206,9.691,0c8.19,0.522,16.146,2.949,23.371,6.844l58.593,31.583  c34.615,18.658,77.413-1.466,85.123-40.027l0,0c1.852-9.264,1.395-18.403-0.924-26.872  C417.277,247.434,376.231,265.576,342.808,247.561z"/>
<path style="fill:#01544B;" d="M197.407,260.442c1.038,56.001-44.568,101.607-100.569,100.569  c-52.777-0.978-95.843-44.044-96.821-96.821c-1.038-56.001,44.568-101.607,100.569-100.569  C153.363,164.599,196.428,207.665,197.407,260.442z"/>
<path style="fill:#02473D;" d="M197.407,260.442c-0.978-52.777-44.044-95.843-96.821-96.821c-5.926-0.11-11.733,0.308-17.383,1.2  c46.41,7.363,82.379,47.443,83.272,95.622c0.928,50.076-35.441,91.834-83.187,99.369c4.429,0.703,8.951,1.115,13.55,1.2  C152.839,362.05,198.445,316.443,197.407,260.442z"/>
<path style="fill:#01544B;" d="M511.982,260.442c1.038,56.001-44.568,101.607-100.569,100.569  c-52.777-0.978-95.843-44.044-96.821-96.821c-1.038-56.001,44.568-101.607,100.569-100.569  C467.937,164.599,511.003,207.665,511.982,260.442z"/>
<circle style="fill:#2B2B2D;" cx="255.999" cy="199.06" r="48.09"/>
<circle style="fill:#3D3D42;" cx="255.999" cy="199.06" r="33.642"/>
<path style="fill:#B0DBFD;" d="M98.711,330.518c-0.435,0-0.865-0.004-1.301-0.012c-17.613-0.327-34.251-7.444-46.847-20.041  c-12.597-12.597-19.714-29.234-20.041-46.847c-0.342-18.476,6.589-35.904,19.517-49.074c12.932-13.174,30.217-20.429,48.672-20.429  c0.435,0,0.865,0.004,1.301,0.012c17.613,0.327,34.252,7.444,46.848,20.041c12.597,12.597,19.714,29.234,20.041,46.847  c0.342,18.476-6.589,35.904-19.517,49.073C134.453,323.262,117.167,330.518,98.711,330.518z"/>
<path style="fill:#84C9FE;" d="M98.711,314.98c-0.336,0-0.668-0.003-1.005-0.009c-13.601-0.252-26.448-5.748-36.174-15.475  c-9.727-9.727-15.223-22.574-15.475-36.174c-0.264-14.267,5.088-27.724,15.07-37.894c9.985-10.172,23.333-15.775,37.584-15.775  c0.336,0,0.668,0.003,1.005,0.009c13.601,0.252,26.448,5.748,36.175,15.475s15.223,22.574,15.475,36.174  c0.264,14.267-5.088,27.724-15.07,37.893C126.31,309.377,112.962,314.98,98.711,314.98z"/>
<path style="fill:#B0DBFD;" d="M412.237,330.518c-0.435,0-0.865-0.004-1.301-0.012c-17.613-0.327-34.251-7.444-46.847-20.041  c-12.597-12.597-19.714-29.234-20.041-46.847c-0.342-18.476,6.589-35.904,19.517-49.074c12.932-13.174,30.217-20.429,48.672-20.429  c0.435,0,0.865,0.004,1.301,0.012c17.613,0.327,34.252,7.444,46.848,20.041c12.597,12.597,19.714,29.234,20.041,46.847  c0.342,18.476-6.589,35.904-19.517,49.073C447.979,323.262,430.692,330.518,412.237,330.518z"/>
<path style="fill:#02473D;" d="M511.982,260.442c-0.978-52.777-44.044-95.843-96.821-96.821c-5.926-0.11-11.733,0.308-17.383,1.2  c46.41,7.363,82.379,47.443,83.272,95.622c0.928,50.076-35.441,91.834-83.187,99.369c4.429,0.703,8.951,1.115,13.55,1.2  C467.413,362.05,513.02,316.443,511.982,260.442z"/>
<path style="fill:#84C9FE;" d="M412.237,314.98c-0.336,0-0.668-0.003-1.005-0.009c-13.601-0.252-26.448-5.748-36.174-15.475  c-9.727-9.727-15.223-22.574-15.475-36.174c-0.264-14.267,5.088-27.724,15.07-37.894c9.985-10.172,23.333-15.775,37.584-15.775  c0.336,0,0.668,0.003,1.005,0.009c13.601,0.252,26.448,5.748,36.175,15.475s15.223,22.574,15.475,36.174  c0.264,14.267-5.088,27.724-15.07,37.893C439.836,309.377,426.488,314.98,412.237,314.98z"/>
<g>
</g>
<g>
</g>
<g>
</g>
<g>
</g>
<g>
</g>
<g>
</g>
<g>
</g>
<g>
</g>
<g>
</g>
<g>
</g>
<g>
</g>
<g>
</g>
<g>
</g>
<g>
</g>
<g>
</g>
</svg>
