<?xml version="1.0" encoding="iso-8859-1"?>
<!-- Generator: Adobe Illustrator 19.0.0, SVG Export Plug-In . SVG Version: 6.00 Build 0)  -->
<svg xmlns="http://www.w3.org/2000/svg" xmlns:xlink="http://www.w3.org/1999/xlink" version="1.1" id="Layer_1" x="0px" y="0px" viewBox="0 0 512 512" style="enable-background:new 0 0 512 512;" xml:space="preserve">
<path style="fill:#D6B79D;" d="M45.072,456.556h42.163V296.299H26.541v141.725C26.541,448.259,34.838,456.556,45.072,456.556z"/>
<rect x="49.38" y="296.3" style="fill:#C69C79;" width="37.855" height="160.26"/>
<path style="fill:#AB825B;" d="M34.749,366.174h52.486v-69.875H27.656c-3.427,0-6.206,2.779-6.206,6.206v50.371  C21.45,360.22,27.404,366.174,34.749,366.174z"/>
<rect x="49.38" y="296.3" style="fill:#A07853;" width="37.855" height="69.875"/>
<path style="fill:#D6B79D;" d="M466.928,456.556h-42.163V296.299h60.694v141.725C485.459,448.259,477.162,456.556,466.928,456.556z"/>
<rect x="424.76" y="296.3" style="fill:#C69C79;" width="37.855" height="160.26"/>
<path style="fill:#AB825B;" d="M477.251,366.174h-52.486v-69.875h59.579c3.427,0,6.206,2.779,6.206,6.206v50.371  C490.55,360.22,484.596,366.174,477.251,366.174z"/>
<rect x="424.76" y="296.3" style="fill:#A07853;" width="37.855" height="69.875"/>
<polygon style="fill:#AB825B;" points="328.029,30.357 296.343,0 215.657,0 183.971,30.357 183.971,32.698 328.029,32.698 "/>
<path style="fill:#B79274;" d="M377.995,512h-243.99c-28.961,0-52.439-23.478-52.439-52.439V88.193h348.868v371.368  C430.434,488.522,406.956,512,377.995,512z"/>
<path style="fill:#AB825B;" d="M399.684,88.193v371.368c0,28.961-23.477,52.438-52.438,52.438h30.75  c28.961,0,52.438-23.478,52.438-52.438V88.193H399.684z"/>
<g>
	<polygon style="fill:#B79274;" points="215.657,93.196 215.657,0 183.971,30.357 183.971,93.196  "/>
	<polygon style="fill:#B79274;" points="328.029,93.196 328.029,30.357 296.343,0 296.343,93.196  "/>
</g>
<path style="fill:#D6B79D;" d="M371.816,259.763H140.184c-42.946,0-77.76-34.814-77.76-77.76V109.79  c0-11.927,9.669-21.596,21.596-21.596h343.959c11.927,0,21.596,9.669,21.596,21.596v72.213  C449.576,224.948,414.761,259.763,371.816,259.763z"/>
<path style="fill:#C69C79;" d="M427.979,88.193h-30.85c11.927,0,21.596,9.669,21.596,21.596v72.213  c0,42.946-34.814,77.76-77.76,77.76h30.85c42.946,0,77.76-34.814,77.76-77.76v-72.213C449.576,97.862,439.907,88.193,427.979,88.193  z"/>
<path style="fill:#AB825B;" d="M158.378,324.03L158.378,324.03c-12.543,0-22.712-10.168-22.712-22.712V88.193h45.424v213.125  C181.09,313.862,170.922,324.03,158.378,324.03z"/>
<path style="fill:#A07853;" d="M150.24,88.193v213.125c0,6.587-2.807,12.516-7.287,16.665c4.051,3.751,9.469,6.047,15.425,6.047l0,0  c12.543,0,22.712-10.168,22.712-22.712V88.193H150.24z"/>
<path style="fill:#AB825B;" d="M353.622,324.03L353.622,324.03c-12.543,0-22.712-10.168-22.712-22.712V88.193h45.424v213.125  C376.334,313.862,366.165,324.03,353.622,324.03z"/>
<path style="fill:#A07853;" d="M345.484,88.193v213.125c0,6.587-2.807,12.516-7.287,16.665c4.051,3.751,9.469,6.047,15.425,6.047  l0,0c12.543,0,22.712-10.168,22.712-22.712V88.193H345.484z"/>
<path style="fill:#B3B3B3;" d="M187.977,148.182H128.78c-8.282,0-15.019,6.738-15.019,15.019v48.246  c0,8.282,6.737,15.019,15.019,15.019h59.197c8.282,0,15.019-6.738,15.019-15.019v-48.246  C202.996,154.92,196.259,148.182,187.977,148.182z M190.065,180.93h-31.687c-3.571,0-6.465,2.895-6.465,6.465  c0,3.571,2.894,6.465,6.465,6.465h31.687v17.588c0,1.152-0.937,2.089-2.089,2.089H128.78c-1.152,0-2.089-0.937-2.089-2.089v-48.246  c0-1.152,0.937-2.089,2.089-2.089h59.197c1.152,0,2.089,0.937,2.089,2.089L190.065,180.93L190.065,180.93z"/>
<path style="fill:#999999;" d="M187.977,148.182h-11.574v12.93h11.574c1.152,0,2.089,0.937,2.089,2.089v17.728h-13.663v12.93h13.663  v17.588c0,1.152-0.937,2.089-2.089,2.089h-11.574v12.93h11.574c8.282,0,15.019-6.738,15.019-15.019v-48.246  C202.996,154.92,196.259,148.182,187.977,148.182z"/>
<path style="fill:#B3B3B3;" d="M383.22,148.182h-59.197c-8.282,0-15.019,6.738-15.019,15.019v48.246  c0,8.282,6.737,15.019,15.019,15.019h59.197c8.282,0,15.019-6.738,15.019-15.019v-48.246  C398.239,154.92,391.502,148.182,383.22,148.182z M385.309,180.93h-31.687c-3.571,0-6.465,2.895-6.465,6.465  c0,3.571,2.894,6.465,6.465,6.465h31.687v17.588c0,1.152-0.937,2.089-2.089,2.089h-59.197c-1.152,0-2.089-0.937-2.089-2.089v-48.246  c0-1.152,0.937-2.089,2.089-2.089h59.197c1.152,0,2.089,0.937,2.089,2.089V180.93z"/>
<path style="fill:#999999;" d="M383.22,148.182h-11.574v12.93h11.574c1.152,0,2.089,0.937,2.089,2.089v17.728h-13.663v12.93h13.663  v17.588c0,1.152-0.937,2.089-2.089,2.089h-11.574v12.93h11.574c8.282,0,15.019-6.738,15.019-15.019v-48.246  C398.239,154.92,391.502,148.182,383.22,148.182z"/>
<path style="fill:#D6B79D;" d="M373.722,468.232h-75.267c-11.292,0-20.445-9.154-20.445-20.445V351.55  c0-4.207,3.41-7.618,7.618-7.618H386.55c4.207,0,7.618,3.41,7.618,7.618v96.237C394.168,459.078,385.014,468.232,373.722,468.232z"/>
<path style="fill:#C69C79;" d="M363.318,343.932v103.854c0,11.292-9.154,20.445-20.445,20.445h30.85  c11.292,0,20.445-9.154,20.445-20.445V351.55c0-4.207-3.411-7.618-7.618-7.618L363.318,343.932L363.318,343.932z"/>
<path style="fill:#AB825B;" d="M367.209,390.794h-62.24c-14.889,0-26.959-12.07-26.959-26.959V351.55  c0-4.207,3.41-7.618,7.618-7.618H386.55c4.207,0,7.618,3.41,7.618,7.618v12.285C394.168,378.724,382.098,390.794,367.209,390.794z"/>
<path style="fill:#A07853;" d="M363.35,343.932v19.902c0,14.889-12.07,26.959-26.959,26.959h30.818  c14.889,0,26.959-12.07,26.959-26.959V351.55c0-4.207-3.411-7.618-7.618-7.618L363.35,343.932L363.35,343.932z"/>
<path style="fill:#D6B79D;" d="M213.545,468.232h-75.267c-11.292,0-20.445-9.154-20.445-20.445V351.55  c0-4.207,3.41-7.618,7.618-7.618h100.923c4.207,0,7.618,3.41,7.618,7.618v96.237C233.99,459.078,224.836,468.232,213.545,468.232z"/>
<path style="fill:#C69C79;" d="M203.14,343.932v103.854c0,11.292-9.154,20.445-20.445,20.445h30.85  c11.292,0,20.445-9.154,20.445-20.445V351.55c0-4.207-3.41-7.618-7.618-7.618L203.14,343.932L203.14,343.932z"/>
<path style="fill:#AB825B;" d="M207.031,390.794h-62.24c-14.889,0-26.959-12.07-26.959-26.959V351.55  c0-4.207,3.41-7.618,7.618-7.618h100.923c4.207,0,7.618,3.41,7.618,7.618v12.285C233.99,378.724,221.92,390.794,207.031,390.794z"/>
<path style="fill:#A07853;" d="M203.172,343.932v19.902c0,14.889-12.07,26.959-26.959,26.959h30.818  c14.889,0,26.959-12.07,26.959-26.959V351.55c0-4.207-3.41-7.618-7.618-7.618L203.172,343.932L203.172,343.932z"/>
<g>
</g>
<g>
</g>
<g>
</g>
<g>
</g>
<g>
</g>
<g>
</g>
<g>
</g>
<g>
</g>
<g>
</g>
<g>
</g>
<g>
</g>
<g>
</g>
<g>
</g>
<g>
</g>
<g>
</g>
</svg>
