<?xml version="1.0" encoding="iso-8859-1"?>
<!-- Generator: Adobe Illustrator 19.0.0, SVG Export Plug-In . SVG Version: 6.00 Build 0)  -->
<svg xmlns="http://www.w3.org/2000/svg" xmlns:xlink="http://www.w3.org/1999/xlink" version="1.1" id="Layer_1" x="0px" y="0px" viewBox="0 0 512 512" style="enable-background:new 0 0 512 512;" xml:space="preserve">
<rect x="17.883" y="367.96" transform="matrix(-0.7071 0.7071 -0.7071 -0.7071 484.134 597.7345)" style="fill:#006659;" width="200.778" height="62.349"/>
<rect x="7.585" y="372.22" transform="matrix(-0.7071 0.7071 -0.7071 -0.7071 459.2669 587.4249)" style="fill:#025144;" width="200.778" height="33.22"/>
<path style="fill:#A2D8F4;" d="M505.244,0c0,0,15.803,58.4-60.858,135.061l-218.39,211.23l-54.675-54.675L332.78,130.157  c16.834-16.834,35.942-31.18,56.643-42.939C444.604,55.873,505.244,0,505.244,0z"/>
<path style="fill:#88C7E2;" d="M389.422,87.219c34.977-19.868,72.14-49.586,94.67-68.688c-4.072,17.909-13.414,41.173-33.628,67.712  c-12.346,8.728-25.187,17.135-37.748,24.27c-20.7,11.758-39.809,26.105-56.643,42.939L194.615,314.91l-23.294-23.294L332.78,130.157  C349.613,113.324,368.722,98.977,389.422,87.219z"/>
<g>
	<path style="fill:#025146;" d="M143.181,287.07l87.159,87.159c4.43,4.43,11.612,4.43,16.042,0l0,0c4.43-4.43,4.43-11.612,0-16.042   l-87.159-87.159c-4.43-4.43-11.612-4.43-16.042,0l0,0C138.751,275.458,138.751,282.64,143.181,287.07z"/>
	<path style="fill:#025146;" d="M7.424,456.25l53.736,53.736c2.686,2.686,7.041,2.686,9.726,0l4.919-4.919   c2.686-2.686,2.686-7.041,0-9.726l-53.736-53.736c-2.686-2.686-7.041-2.686-9.726,0l-4.919,4.919   C4.738,449.209,4.738,453.564,7.424,456.25z"/>
</g>
<path style="fill:#C9E7F8;" d="M250.351,312.687c-8.003-8.003-7.892-21.011,0.245-28.877l174.181-168.358  c38.681-38.681,53.808-72.698,59.316-96.925C497.098,7.501,505.244,0,505.244,0s15.803,58.4-60.858,135.061l-188.99,182.671  L250.351,312.687z"/>
<g>
	<path style="fill:#008777;" d="M153.481,349.211l14.717,14.717c6.062,6.062,15.891,6.062,21.953,0l0,0   c6.062-6.062,6.062-15.891,0-21.953l-14.717-14.717c-6.062-6.062-15.891-6.062-21.953,0l0,0   C147.419,333.32,147.419,343.149,153.481,349.211z"/>
	<path style="fill:#008777;" d="M126.663,376.03l14.717,14.717c6.062,6.062,15.891,6.062,21.953,0l0,0   c6.062-6.062,6.062-15.891,0-21.953l-14.717-14.717c-6.062-6.062-15.891-6.062-21.953,0l0,0   C120.601,360.139,120.601,369.967,126.663,376.03z"/>
	<path style="fill:#008777;" d="M99.844,402.848l14.717,14.717c6.062,6.062,15.891,6.062,21.953,0l0,0   c6.062-6.062,6.062-15.891,0-21.953l-14.717-14.717c-6.062-6.062-15.891-6.062-21.953,0l0,0   C93.782,386.957,93.782,396.786,99.844,402.848z"/>
	<path style="fill:#008777;" d="M73.026,429.667l14.717,14.717c6.062,6.062,15.891,6.062,21.953,0l0,0   c6.062-6.062,6.062-15.891,0-21.953l-14.717-14.717c-6.062-6.062-15.891-6.062-21.953,0l0,0   C66.964,413.776,66.964,423.605,73.026,429.667z"/>
	<path style="fill:#008777;" d="M46.207,456.485l14.717,14.717c6.062,6.062,15.891,6.062,21.953,0l0,0   c6.062-6.062,6.062-15.891,0-21.953L68.16,434.532c-6.062-6.062-15.891-6.062-21.953,0l0,0   C40.145,440.595,40.145,450.423,46.207,456.485z"/>
</g>
<g>
	<path style="fill:#00705D;" d="M175.434,327.258l8.807,8.807l-21.953,21.953l-8.807-8.807c-6.062-6.062-6.062-15.891,0-21.953l0,0   C159.543,321.196,169.372,321.196,175.434,327.258z"/>
	<path style="fill:#00705D;" d="M148.615,354.077l8.807,8.807l-21.953,21.953l-8.807-8.807c-6.062-6.062-6.062-15.891,0-21.953l0,0   C132.725,348.015,142.553,348.015,148.615,354.077z"/>
	<path style="fill:#00705D;" d="M121.797,380.895l8.807,8.807l-21.953,21.953l-8.807-8.807c-6.062-6.062-6.062-15.891,0-21.953l0,0   C105.906,374.833,115.735,374.833,121.797,380.895z"/>
	<path style="fill:#00705D;" d="M94.978,407.714l8.807,8.807l-21.953,21.953l-8.807-8.807c-6.062-6.062-6.062-15.891,0-21.953   C79.088,401.652,88.916,401.652,94.978,407.714z"/>
	<path style="fill:#00705D;" d="M68.16,434.532l8.807,8.807l-21.953,21.953l-8.807-8.807c-6.062-6.062-6.062-15.891,0-21.953   S62.098,428.47,68.16,434.532z"/>
</g>
<g>
	<path style="fill:#024439;" d="M12.515,441.449c2.697-2.522,6.924-2.475,9.554,0.156l18.522,18.522l-14.623,14.667L7.424,456.25   c-2.576-2.576-2.674-6.683-0.309-9.384L12.515,441.449z"/>
	<path style="fill:#024439;" d="M158.496,302.385l-15.316-15.316c-4.43-4.43-4.43-11.612,0-16.042l0,0   c4.43-4.43,11.612-4.43,16.042,0l15.351,15.351L158.496,302.385z"/>
</g>
<g>
</g>
<g>
</g>
<g>
</g>
<g>
</g>
<g>
</g>
<g>
</g>
<g>
</g>
<g>
</g>
<g>
</g>
<g>
</g>
<g>
</g>
<g>
</g>
<g>
</g>
<g>
</g>
<g>
</g>
</svg>
