<?xml version="1.0" encoding="iso-8859-1"?>
<!-- Generator: Adobe Illustrator 19.0.0, SVG Export Plug-In . SVG Version: 6.00 Build 0)  -->
<svg xmlns="http://www.w3.org/2000/svg" xmlns:xlink="http://www.w3.org/1999/xlink" version="1.1" id="Layer_1" x="0px" y="0px" viewBox="0 0 512 512" style="enable-background:new 0 0 512 512;" xml:space="preserve">
<g>
	<rect x="107.15" y="71.23" style="fill:#4A4A4F;" width="92.01" height="67.25"/>
	<rect x="312.83" y="71.23" style="fill:#4A4A4F;" width="92.01" height="67.25"/>
</g>
<g>
	<rect x="107.15" y="71.23" style="fill:#3D3D42;" width="92.01" height="17.451"/>
	<rect x="312.83" y="71.23" style="fill:#3D3D42;" width="92.01" height="17.451"/>
</g>
<g>
	<path style="fill:#006659;" d="M68.968,125.481c-13.332,0-24.49,10.114-25.796,23.382L29.226,290.555L0,455.629l0,0v27.061   c0,8.76,7.102,15.862,15.862,15.862H170.32c8.76,0,15.862-7.102,15.862-15.862v-27.061l0,0l-29.226-165.074h27.873   c7.921,0,14.342-6.421,14.342-14.342V125.481H68.968z"/>
	<path style="fill:#006659;" d="M512,455.629l-29.226-165.074l-13.946-141.692c-1.306-13.268-12.464-23.382-25.796-23.382H312.829   v150.732c0,7.921,6.421,14.342,14.342,14.342h27.873l-29.226,165.074l0,0v27.061c0,8.76,7.102,15.862,15.862,15.862h154.458   c8.76,0,15.862-7.102,15.862-15.862V455.629L512,455.629z"/>
</g>
<path style="fill:#FC8829;" d="M170.32,498.552H15.862C7.102,498.552,0,491.451,0,482.691V455.63h186.182v27.061  C186.182,491.451,179.08,498.552,170.32,498.552z"/>
<path style="fill:#FE4F19;" d="M155.264,455.629v27.061c0,8.76-7.102,15.862-15.862,15.862h30.917  c8.76,0,15.862-7.102,15.862-15.862v-27.061H155.264z"/>
<g>
	<path style="fill:#01544B;" d="M168.321,125.482v150.732c0,7.921-6.421,14.342-14.342,14.342h-27.873l29.226,165.074h30.85   l-29.226-165.074h27.873c7.921,0,14.342-6.421,14.342-14.342V125.482H168.321z"/>
	<path style="fill:#01544B;" d="M482.774,290.556l-13.946-141.692c-1.306-13.268-12.464-23.382-25.796-23.382h-30.918   c13.332,0,24.49,10.114,25.796,23.382l13.946,141.692l29.226,165.074H512L482.774,290.556z"/>
</g>
<g>
	<path style="fill:#FC8829;" d="M341.68,498.552h154.458c8.76,0,15.862-7.102,15.862-15.862v-27.061H325.818v27.061   C325.818,491.451,332.92,498.552,341.68,498.552z"/>
	<path style="fill:#FC8829;" d="M170.32,498.552H15.862C7.102,498.552,0,491.451,0,482.691V455.63h186.182v27.061   C186.182,491.451,179.08,498.552,170.32,498.552z"/>
</g>
<path style="fill:#FE4F19;" d="M481.082,455.629v27.061c0,8.76-7.102,15.862-15.862,15.862h30.918  c8.76,0,15.862-7.102,15.862-15.862v-27.061H481.082z"/>
<path style="fill:#FC8829;" d="M201.595,13.448h-96.879c-4.035,0-7.307,3.271-7.307,7.307v48.169c0,4.035,3.271,7.307,7.307,7.307  h96.879c4.035,0,7.307-3.271,7.307-7.307v-48.17C208.902,16.719,205.631,13.448,201.595,13.448z"/>
<path style="fill:#FE4F19;" d="M201.596,13.448h-30.918c4.035,0,7.306,3.271,7.306,7.307v48.169c0,4.035-3.271,7.307-7.306,7.307  h30.918c4.035,0,7.306-3.271,7.306-7.307v-48.17C208.902,16.719,205.631,13.448,201.596,13.448z"/>
<path style="fill:#FC8829;" d="M407.273,13.448h-96.88c-4.035,0-7.307,3.271-7.307,7.307v48.169c0,4.035,3.271,7.307,7.307,7.307  h96.88c4.035,0,7.307-3.271,7.307-7.307v-48.17C414.579,16.719,411.308,13.448,407.273,13.448z"/>
<g>
	<rect x="199.17" y="149.29" style="fill:#3D3D42;" width="113.66" height="38.971"/>
	<rect x="199.17" y="223.44" style="fill:#3D3D42;" width="113.66" height="38.971"/>
</g>
<rect x="223.87" y="138.5" style="fill:#4A4A4F;" width="64.26" height="142.47"/>
<g>
	<rect x="256.93" y="138.5" style="fill:#3D3D42;" width="31.2" height="142.47"/>
	<path style="fill:#3D3D42;" d="M290.894,120.949h-69.788c-2.468,0-4.468,2-4.468,4.468v13.617c0,2.468,2,4.468,4.468,4.468h69.788   c2.468,0,4.468-2,4.468-4.468v-13.617C295.362,122.949,293.362,120.949,290.894,120.949z"/>
	<path style="fill:#3D3D42;" d="M290.894,275.961h-69.788c-2.468,0-4.468,2-4.468,4.468v13.617c0,2.468,2,4.468,4.468,4.468h69.788   c2.468,0,4.468-2,4.468-4.468v-13.617C295.362,277.961,293.362,275.961,290.894,275.961z"/>
</g>
<g>
	<polygon style="fill:#01544B;" points="159.616,305.585 156.956,290.555 29.226,290.555 26.565,305.585  "/>
	<polygon style="fill:#01544B;" points="485.435,305.585 482.774,290.555 355.044,290.555 352.384,305.585  "/>
</g>
<path style="fill:#FE4F19;" d="M407.273,13.448h-30.918c4.035,0,7.306,3.271,7.306,7.307v48.169c0,4.035-3.271,7.307-7.306,7.307  h30.918c4.035,0,7.306-3.271,7.306-7.307v-48.17C414.579,16.719,411.308,13.448,407.273,13.448z"/>
<g>
</g>
<g>
</g>
<g>
</g>
<g>
</g>
<g>
</g>
<g>
</g>
<g>
</g>
<g>
</g>
<g>
</g>
<g>
</g>
<g>
</g>
<g>
</g>
<g>
</g>
<g>
</g>
<g>
</g>
</svg>
