<svg id="Layer_1" enable-background="new 0 0 512.278 512.278" height="512" viewBox="0 0 512.278 512.278" width="512" xmlns="http://www.w3.org/2000/svg"><path d="m510.96 122.086c-3.342-15.14-14.291-27.379-28.54-32.48-6.52-2.377-16.009-2.262-24.02-12.93-8.574-11.645-22.701-20.733-38.14-23.54-14.833-34.253-13.917-33.279-17.1-36.46-4.575-4.357-10.814-5.522-16.22-3.72-20.565 6.855-34.94 26.127-34.94 48.48 0 4.3 5.798-9.286-50.42 111.2-155.973 7.81-164.57 7.096-174.83 11.2-9.03 2.698-17.626 6.892-25.33 12.33-56.16 1.38-101.42 47.49-101.42 103.97v32c0 8.84 7.16 16 16 16s16-7.16 16-16v-32c0-27.32 15.29-51.13 37.77-63.33-15.514 40.623 8.956 73.921-25.08 108.02-3 3-4.69 7.07-4.69 11.31v128c0 8.84 7.16 16 16 16h16c8.84 0 16-7.16 16-16s-7.16-16-16-16v-73.51l26.07-6.52c13.33-.28 26.19-3.35 37.93-8.93v104.96c0 8.84 7.16 16 16 16h8c16.28 0 22.154-21.658 8-29.86v-64.71l47.34-49.43h64.67c0 7.135 17.171 48.948 3.74 109.38l-3.37 15.15c-2.214 9.994 5.39 19.47 15.62 19.47h8c8.84 0 16-7.16 16-16 0-7.72-5.069-11.446-5.01-11.68 8.51-38.3 7.67-78.41-2.4-116.32h13.93c12.294 38.261 9.48 63.708 9.48 128 0 8.84 7.16 16 16 16h8c16.28 0 22.154-21.658 8-29.86 0-55.453.419-61.687-1.3-77.96 26.135-36.957 33.256-45.11 45.28-69.75 29.285-60.391 28.02-108.307 28.02-142.43h27.37c28.04 0 50.698-25.864 43.59-58.05zm-350.96 226.05c-4.124 0-6.137-1.219-15.73-5.06-32.748-13.079-31.042-12.343-32.38-13.15-6.72-3.94-9.73-12.29-6.75-19.73 3.29-8.21 12.6-12.2 20.8-8.92 43.008 17.189 44.421 16.806 47.92 22.86 6.14 10.667-1.547 24-13.86 24zm16-96c0 8.84-7.16 16-16 16s-16-7.16-16-16v-39.42c3.639-.53 1.162-.218 32-1.76zm56 8c0 8.84-7.16 16-16 16s-16-7.16-16-16v-50.38l32-1.6zm56 8c0 8.84-7.16 16-16 16s-16-7.16-16-16v-61.18l32-1.6zm108.2 8c-30.363 0-29.66.18-32.26-.52-15.621-4.11-16.711-27.378 1.42-31.27 1.821-.287-.369-.21 38.79-.21-1.93 10.84-4.59 21.53-7.95 32zm10.26-48h-22.46c-17.605 0-22.381-24.697-5.5-31.03 3.522-1.28 3.118-.97 29.5-.97 0 10.523-.095 19.12-1.54 32z" fill="#aaa"/><path d="m101.42 196.166c-14.22 10.02-25.35 24.15-31.65 40.64-22.48 12.2-37.77 36.01-37.77 63.33v32c0 8.84-7.16 16-16 16s-16-7.16-16-16v-32c0-56.48 45.26-102.59 101.42-103.97z" fill="#aaa"/><path d="m482.42 89.606c-3.74 13.67-13.51 25.62-26.42 38.53-24 24-72 0-72 0-2.649 37.159-12.757 120.051-32 152-24 40-72 24-72 24s-80-48-120-8c-28.456 28.455-82.353 51.592-120 66.24 0-5.765-.572-9.593 2.22-14.37 2.165-3.606 21.78-19.282 21.78-49.81 0-45.804.41-36.182.41-38.6 4.608-42.194 35.691-71.164 71.12-77.91 9.094-1.705-2.299-.633 166.05-9.05 56.256-120.567 50.42-107.003 50.42-111.2 0-32.151 29.512-51.895 43.35-48.93 4.174.994 7.303 3.049 9.78 6.49 1.302 1.892.683.777 15.13 34.14 15.944 2.899 29.766 12.166 38.14 23.54 8.032 10.697 17.453 10.536 24.02 12.93z" fill="#cccaca"/><g fill="#999"><path d="m436.6 244.136c-1.7 10.81-4.04 21.49-6.99 32h-61.61c-19.37 0-22.25-28.684-2.06-31.87 1.517-.19-3.02-.13 70.66-.13z"/><path d="m440 196.136c0 10.566-.09 19.161-1.36 32-36.491 0-54.866.017-55.59-.03-5.875 0-12.599-4.858-14.39-11.42-2.248-7.096 1.31-16.117 9.12-19.29 3.808-1.746 2.624-1.26 62.22-1.26z"/><path d="m176 252.136c0 8.84-7.16 16-16 16s-16-7.16-16-16v-71.63c3.222-.309-1.176.068 31.95-1.59.074.988.05-3.948.05 73.22z"/><path d="m232 176.116v84.02c0 8.84-7.16 16-16 16s-16-7.16-16-16v-82.42z"/><path d="m288 268.136c0 8.84-7.16 16-16 16s-16-7.16-16-16v-93.22l31.98-1.6c.031.841.02 20.79.02 94.82z"/><path d="m159.995 348.141c-4.19 0-2.758.123-45.938-17.149-8.204-3.282-12.195-12.593-8.913-20.798 3.281-8.205 12.593-12.195 20.798-8.913l40 16c8.204 3.282 12.195 12.593 8.913 20.798-2.501 6.255-8.51 10.062-14.86 10.062z"/></g></svg>