<svg id="Layer_1" enable-background="new 0 0 511.995 511.995" height="512" viewBox="0 0 511.995 511.995" width="512" xmlns="http://www.w3.org/2000/svg"><path d="m511.995 93.997v20.5c0 19.57-15.93 35.5-35.5 35.5h-6.35c-8.8 7.24-19.1 12.18-30.15 14.49 0 27.305.283 27.242-.82 30.57-8.72 26.14-25.68 47.76-47.43 62.35.17.91.25 1.85.25 2.81 0 40.642-14.516 76.409-40 104.2v89.58h8c8.84 0 16 7.16 16 16s-7.16 16-16 16h-24c-8.84 0-16-7.16-16-16v-110.69l-4.16-24.93c-1.916 2.802.829-.139-35.84 35.4v84.22h16c8.84 0 16 7.16 16 16s-7.16 16-16 16h-32c-8.84 0-16-7.16-16-16v-100.63c-12.44-13.83-21.49-29.99-26.72-47.45-15.371 3.454-31.422 4.665-46.6 3.83-3.219 19.095-12.045 36.244-26.68 50.88v77.37h12c8.84 0 16 7.16 16 16s-7.16 16-16 16h-28c-8.84 0-16-7.16-16-16v-98.53l-5.85-31.47c-7.409 9.924-2.211 3.465-54.15 59.26v54.74h16c8.84 0 16 7.16 16 16s-7.16 16-16 16h-32c-8.84 0-16-7.16-16-16v-72.53c-.66-2.59-.67-5.32 0-7.93v-99.11l-5.17-8.61c-32.226-53.701-22.185-122.403 23.29-164.73l15.92-25.91c21.391-34.817 74.945-24.646 81.7 15.96 2.717 16.276 26.649 12.998 37.52-1.49l12.28-16.37c21.235-28.322 65.463-25.035 81.67 7.36l27.36 54.72c15.483 30.966 69.43 14.127 69.43-27.19 0-19.672-2.353-58.453 32.69-93.48 7.523-7.523 20.142-5.741 25.3 3.54l16.63 29.93c50.644 12.664 37.595 9.4 57.26 14.32 7.12 1.78 12.12 8.18 12.12 15.52z" fill="#c79a83"/><path d="m485.085 74.777c-3.94 24.65-45.09 45.22-45.09 45.22s-8-24-24 32-112 88-112 88-8 56-32 56-40-48-40-48-24 24-56 24c-32.985 0-40-40-40-40s-16 16-56 32c-28.14 11.26-60.24-44.8-76.8-79.03 5.79-25.83 19.27-49.59 38.92-67.88l15.92-25.91c21.391-34.817 74.945-24.646 81.7 15.96 2.717 16.276 26.649 12.998 37.52-1.49l12.28-16.37c21.235-28.322 65.463-25.035 81.67 7.36l27.36 54.72c15.483 30.966 69.43 14.127 69.43-27.19 0-19.672-2.353-58.453 32.69-93.48 7.523-7.523 20.142-5.741 25.3 3.54l16.63 29.93z" fill="#e0b7a3"/></svg>