<svg id="Layer_1" enable-background="new 0 0 512.071 512.071" height="512" viewBox="0 0 512.071 512.071" width="512" xmlns="http://www.w3.org/2000/svg"><path d="m497.751 123.095-17.68-17.69v-33.37c0-4.24-1.69-8.31-4.69-11.31l-39.03-39.03c-28.875-28.896-75.672-28.909-104.56 0l-38.91 38.9c-40.34 40.34-112.19 67.44-178.81 67.44-62.86 0-114 51.14-114 114 0 71.709-.508 61.887 1.19 68.75 15.14 60.53 22.81 122.86 22.81 185.25 0 8.84 7.16 16 16 16h96v-16c0-9.281-4.975-17.93-12.81-22.63-16.77-10.06-27.19-28.46-27.19-48.02v-41.35c0-4.24 1.69-8.31 4.69-11.31 19.15-19.15 32.91-42.27 40.49-67.51-1.08 5.72 1.01 11.83 5.93 15.64 5.78 4.47 11.75 8.57 17.91 12.29-8.9 21.28-21.33 40.55-37.02 57.35v34.89c0 8.38 4.46 16.27 11.65 20.58 18.29 10.974 28.33 31.095 28.33 48.75.029 1.255.02-.412.02 17.32 69.797 0 64.868.124 67.05-.29 12.025-2.36 17.879-17.408 7.9-27.38l-34.53-34.54 5.99-95.83c34.519 8.989 72.533 8.132 107.74-3.78 4.342 20.365 8.655 35.339 13.85 52.23v37.03l-7.59 5.06c-30.298 20.189-15.826 67.5 20.43 67.5h26.25c17.32 0 32.48-12.3 36.05-29.25 31.25-148.414 29.214-136.934 28.74-140.73-5.58-44.648-5.864-85.978-2.27-128.65l36.11-8.03c38.339-8.521 50.766-55.502 23.96-82.28z" fill="#999"/><g fill="#aaa"><path d="m392.071 112.035c32 40-8 32-8 32s16 104-16 152-40-104-40-104-8 16-48 88-120-40-120-40-16 56-80 104c-21.96 16.47-55.68-24.02-80-52.79v-49.21c0-62.86 51.14-114 114-114 66.62 0 138.47-27.1 178.81-67.44l38.91-38.9c28.875-28.896 75.672-28.909 104.56 0l13.51 13.51c-16.21 10.15-25.79 27.218-25.79 44.83 0 24-64-8-32 32z"/><path d="m165.341 332.565c15.803-38.189 14.73-66.263 14.73-92.53 0-8.84-7.16-16-16-16s-16 7.16-16 16v18.46c0 43.15-16.8 83.72-47.31 114.23-3 3-4.69 7.07-4.69 11.31v41.35c0 19.56 10.42 37.96 27.19 48.02 7.9 4.74 12.81 13.41 12.81 22.63v16h32c0-16.726.147-18.414-.46-23.25-2.23-17.6-12.49-33.58-27.89-42.82-7.19-4.31-11.65-12.2-11.65-20.58v-34.89c15.83-16.95 28.35-36.42 37.27-57.93z"/></g></svg>