<svg id="Layer_1" enable-background="new 0 0 511.999 511.999" height="512" viewBox="0 0 511.999 511.999" width="512" xmlns="http://www.w3.org/2000/svg"><path d="m510.31 222.613-10.81 21.63c-11.15 22.28-35.81 33.63-59.98 27.58-10.123-2.524-23.261-6.698-40.4 1.41l-6.45 65.6 37.81 36.62h9.52c8.84 0 16 7.16 16 16s-7.16 16-16 16c-15.441 0-21.183 1.257-27.13-4.51-53.184-51.524-49.493-47.177-51.64-51.83-.249-.576-5.778-13.839-17.93-42.97-.058-.175-.098.685-.99 2.47l-13.76 27.53 5.33 37.31h2.12c8.84 0 16 7.16 16 16s-7.16 16-16 16h-16c-7.96 0-14.71-5.85-15.84-13.74l-7.91-55.38-11.88-34.88h-76.37c-3.381 0-2.214-1.205-.82 2.94l21.9 65.71 6.7 3.35h4.22c8.84 0 16 7.16 16 16s-7.16 16-16 16c-14.171 0-9.092 1.344-31.16-9.69-3.79-1.9-6.68-5.22-8.02-9.25l-22.87-68.62c-.45.199 2.347-.927-36.01 14.42-2.572 1.033-.623.572-45.94 6.64 0 13.085-1.091 22.933 7.31 34.5h8.69c8.84 0 16 7.16 16 16s-7.16 16-16 16h-16c-4.24 0-8.31-1.69-11.31-4.69-13.34-13.34-20.69-31.07-20.69-49.94v-25.65c-.07-4.56 1.82-8.8 4.97-11.81l24.47-34.25c5.64-7.89 9.11-16.94 10.19-26.46-14.62 14.2-29.7 24.8-47.63 24.8-42.807 0-56-29.373-56-72 0-8.84 7.16-16 16-16s16 7.16 16 16c0 22.29 4.08 31.49 7.5 35.29 2.1 2.33 5.69 4.71 16.5 4.71 10.62 0 24.97-14.76 39.18-30.19 24.944-27.077 51.596-57.81 88.82-57.81h164.44l19.82-9.29c-1.44-12.81 1.95-25.7 10.16-38.18 5.472-8.51 16.429-9.339 22.31-4.93.221.088-.254-.243 30.79 23.04l29.24 9.75c15.45 5.15 27.07 18.25 30.36 34.19 0 .01.01.03.01.04 2.34 11.42 7.94 21.82 16.18 30.07 4.87 4.87 6.08 12.31 3 18.47z" fill="#ffe773"/><path d="m186.5 159.673c-46.03 3.19-82.5 41.65-82.5 88.48 0 2.18-.12 4.35-.37 6.5-13.473 13.103-28.924 24.8-47.63 24.8-42.807 0-56-29.373-56-72 0-9.13 7.63-16.46 16.86-15.98 8.53.45 15.12 7.78 15.14 16.31.04 22.05 4.1 31.18 7.5 34.96 2.1 2.33 5.69 4.71 16.5 4.71 28.627 0 67.006-88 128-88 .578 0 2.383.104 2.5.22z" fill="#ffe773"/><path d="m491.12 174.033c-4.83 7.37-13.74 12.13-16.61 20.43-18.51 53.49-42.51 13.49-90.51 37.49l-48 24h-88c-8.063-16.126-16.038-24-33.69-24-10.33.01-19.82 5.54-25.32 14.28-17.983 28.592-52.924 40.497-84.14 29.92-4.61 2.82-9.19 5.56-13.68 8.14 2.827-3.96 4.488-6.123 6.84-10.74 3.89-7.9 5.99-16.247 5.99-25.4 0-47.775 38.145-87.402 86.41-88.67 1.758-.046-8.814-.03 158.03-.03l19.82-9.29c-1.44-12.81 1.95-25.7 10.16-38.18 3.639-5.66 9.741-8.136 15.47-7.42 5.437.518 5.494 1.428 37.63 25.53l29.24 9.75c15.45 5.15 27.07 18.25 30.36 34.19z" fill="#ffec8f"/><g fill="#efd66c"><circle cx="252" cy="219.953" r="12"/><circle cx="316" cy="195.953" r="12"/><circle cx="188" cy="203.953" r="12"/><circle cx="164" cy="235.953" r="12"/><circle cx="276" cy="251.953" r="12"/><circle cx="356" cy="243.953" r="12"/><circle cx="380" cy="203.953" r="12"/></g></svg>