<svg id="Layer_1" enable-background="new 0 0 512 512" height="512" viewBox="0 0 512 512" width="512" xmlns="http://www.w3.org/2000/svg"><path d="m427.73 211.057c-.96 6.7 3.52 12.91 10.19 14.13l1.46.27 2.31-4.62c3.95-7.9 13.56-11.1 21.47-7.15 6.65 3.33 9.96 10.67 8.48 17.63.1 0-.098-.02 8.08 1.46l1.97-3.93c3.95-7.91 13.56-11.11 21.46-7.16 7.22 3.606 11.603 12.573 6.72 22.34 1.36 2.36 2.13 5.09 2.13 7.97 0 30.88-25.12 56-56 56-49.014 0-53.807.707-65.04-2.05-3.28 22.1-14.26 42.62-30.96 57.6v80.45c0 8.84-7.16 16-16 16h-24c-8.84 0-16-7.16-16-16v-18.99l-15.66 27.01c-3.03 5.241-8.793 8.391-15.09 7.93-.958.07.158.05-17.25.05-9.486 0-16.952-8.239-15.9-17.77l5.62-50.55c-21.063 4.48-43.509 5.492-65.26 2.96-7.716 55.914-7.167 51.984-7.23 52.3-.899 6.293-6.776 12.116-13.53 12.91-1.404.201-.157.15-31.7.15-9.486 0-16.952-8.239-15.9-17.77l7.27-65.44c-1.19-.59-2.37-1.21-3.53-1.84-3.91 2.78-8.02 5.29-12.33 7.52l-3.03 62.31c-.41 8.52-7.45 15.22-15.98 15.22h-44.5c-8.84 0-16-7.16-16-16v-65.54c0-49.096-24-60.164-24-116.92 0-75.345 61.061-137.126 136.78-137.54 64.428-5.955 77.735-5.259 103.4-16.93 19.199-8.733 29.701-14.018 48.03-19.18 2.07-20.14 19.12-35.89 39.79-35.89 18.39 0 33.92 12.47 38.57 29.4 18.81 2.307 36.505 11.486 49.39 26.63 57.452.204 53.196.215 54.06.14 22.373-2.138 41.98 15.583 41.98 38.24v16.83c0 22.696-19.637 40.484-42.23 38.22l-27.28-2.73c-6.637-.673-13.55 3.623-14.76 12.33z" fill="#999"/><path d="m512 146.407v16.83c0 22.696-19.637 40.484-42.23 38.22-28.764-2.878-29.356-3.397-33.2-1.99-69.08-10.06-84.57 32.53-84.57 32.53s0 56-24 80-48-16-48-16-32 40-72 40-48-72-48-72-40 40-80 56c-28.86 11.55-61.89-47.73-78.04-81.62 10.99-64.61 67.21-114.01 134.82-114.38 84.604-7.82 76.42-4.658 121.67-25.24 9.6-4.36 19.57-8 29.76-10.87 2.07-20.14 19.12-35.89 39.79-35.89 18.39 0 33.92 12.47 38.57 29.4 18.81 2.307 36.505 11.486 49.39 26.63 60.612.216 57.611-.03 57.63-.03 21.18 0 38.41 17.23 38.41 38.41z" fill="#aaa"/></svg>