<svg id="Layer_1" enable-background="new 0 0 512.149 512.149" height="512" viewBox="0 0 512.149 512.149" width="512" xmlns="http://www.w3.org/2000/svg"><path d="m512.149 152.048v26.25c0 44.238-55.367 62.197-86.72 30.69-8.22 2.37-14.66 9.02-16.6 17.77l-3.78 17.02c-4.75 21.35-23.35 36.27-45.22 36.27-6.59 0-12.3 4.46-13.9 10.85l-2.26 9.03c-.559 2.285-33.206 75.27-33.26 75.37-2.067 4.39-3.176 4.442-30.26 24.75v59.16l8.56 12.84h7.44c8.84 0 16 7.16 16 16s-7.16 16-16 16h-16c-5.35 0-10.35-2.67-13.31-7.12-16.561-24.841-18.69-26.407-18.69-32.88v-69.4c-5.362-16.086-9.981-29.935-14.72-51.82l-25.28 48.64v67.74l8.56 12.84h7.44c8.84 0 16 7.16 16 16s-7.16 16-16 16h-16c-5.35 0-10.35-2.67-13.31-7.12-16.561-24.841-18.69-26.407-18.69-32.88v-158.44c-20.3-4.13-40.21-10.22-59.33-18.19-3.56 16.82-9.94 32.83-18.89 47.46l21.41 123.1 9.37 14.07h7.44c8.84 0 16 7.16 16 16s-7.16 16-16 16h-16c-5.35 0-10.35-2.67-13.31-7.12-17.263-25.895-17.679-25.695-18.45-30.14l-17.43-100.25-33.92 17.74 10.29 80.32 7.45 7.45h1.37c8.84 0 16 7.16 16 16s-7.16 16-16 16c-7.853 0-13.699.921-19.31-4.69-16.348-16.348-19.645-18.14-20.56-25.28-.914-7.14-15.244-119.094-16-125-.555-4.279-.299-3.53 9.45-39.49 3.58-13.21 2.69-27.47-2.5-40.13-8.875-21.607-7.08-36.979-7.08-69.41 0-48.52 39.48-88 88-88h94.02c16.438 0 24.972-7.239 43.68-18.93 23.09-14.43 52.56-15.83 76.91-3.65 10.66 5.33 22.84 6.29 33.99 3.03l-65.84-20.57c-21.24-6.64-39.73-20.49-52.07-39-4.9-7.36-2.92-17.29 4.43-22.19 7.36-4.91 17.29-2.92 22.19 4.43 8.3 12.44 20.72 21.75 34.99 26.21l32.62 10.19c-5.71-7.92-8.92-17.53-8.92-27.52 0-8.84 7.16-16 16-16s16 7.16 16 16c0 9.184 6.652 12.517 13.36 17.31l2.8-19.57c1.25-8.75 9.36-14.83 18.1-13.58 8.75 1.25 14.83 9.36 13.58 18.1l-4.35 30.46c8.721-6.981 20.51-14.571 20.51-32.72 0-8.84 7.16-16 16-16s16 7.16 16 16c0 11.7-3.06 22.93-8.7 32.76 14.84-6.11 27.17-17.47 34.39-31.92 3.95-7.9 13.56-11.1 21.47-7.15 7.9 3.95 11.1 13.56 7.15 21.47-12.13 24.26-33.99 42.65-59.98 50.45-2.362.703-2.201.619-2.1.67 77.409 46.441 63.324 37.988 80 48 4.82 2.89 7.77 8.1 7.77 13.72z" fill="#a07765"/><path d="m492.019 130.908c-10.75 13.47-13.32 11.32-19.87 21.14-6.573 9.859-16.991 22.123-32 16-23.808-9.712-63.425 2.17-74.746 25.256-3.893 7.939-8.331 15.815-13.255 22.744-8.503 11.964-32 .983-32 16 0 24-26.553 67.574-48 64-17.645-2.941-32-56-32-56s-16 24-64 16-72-40-72-40-24 80-56 80c-7.974 0-32-16-45.48-40.82-1.68-7.07-2.52-14.32-2.52-21.67v-33.51c0-48.601 39.399-88 88-88h94.02c16.438 0 24.972-7.239 43.68-18.93 23.09-14.43 52.56-15.83 76.91-3.65 10.66 5.33 22.84 6.29 33.99 3.03l-65.84-20.57c-21.24-6.64-39.73-20.49-52.07-39-4.9-7.36-2.92-17.29 4.43-22.19 7.36-4.91 17.29-2.92 22.19 4.43 8.3 12.44 20.72 21.75 34.99 26.21l32.62 10.19c-5.61-7.782-8.807-17.196-8.917-26.998-.095-8.462 6.8-16.123 15.255-16.505 9.143-.413 16.685 6.841 16.742 15.879.059 9.278 6.425 12.459 13.36 17.414l2.8-19.57c1.25-8.75 9.36-14.83 18.1-13.58 8.75 1.25 14.83 9.36 13.58 18.1l-4.35 30.46c8.637-6.914 20.343-14.426 20.509-32.401.081-8.83 7.083-16.271 15.913-16.319 8.881-.048 16.088 7.13 16.088 16 0 11.7-3.06 22.93-8.7 32.76 14.84-6.11 27.17-17.47 34.39-31.92 3.95-7.9 13.56-11.1 21.47-7.15 7.9 3.95 11.1 13.56 7.15 21.47-11.768 23.536-32.623 42.305-62.13 51.09.119.059 18.151 10.889 67.691 40.61z" fill="#c79a83"/><g fill="#ece2e2"><path d="m376.149 104.048c-3.485 0 4.575 2.193-105.241-32.125-21.237-6.637-39.73-20.487-52.072-39-4.901-7.352-2.915-17.286 4.438-22.188 7.351-4.902 17.285-2.915 22.188 4.438 8.293 12.44 20.72 21.747 34.991 26.207l95.792 29.935 41.039-12.312c17.57-5.271 32.352-17.704 40.555-34.11 3.952-7.903 13.563-11.108 21.466-7.156 7.904 3.952 11.107 13.563 7.156 21.466-12.133 24.266-33.996 42.654-59.981 50.45-49.415 14.825-47.061 14.395-50.331 14.395z"/><path d="m376.147 96.048c-3.252 0-6.511-.989-9.298-2.98l-42.98-30.7c-12.348-8.819-19.72-23.145-19.72-38.319 0-8.836 7.164-16 16-16s16 7.164 16 16c0 4.863 2.362 9.454 6.319 12.28l33.134 23.667 11.811-9.449c8.094-6.475 12.736-16.133 12.736-26.499 0-8.836 7.164-16 16-16s16 7.164 16 16c0 20.14-9.02 38.906-24.746 51.487-22.028 17.623-23.825 20.513-31.256 20.513z"/><path d="m360.169 96.05c-9.779 0-17.233-8.647-15.859-18.265l8-56c1.25-8.748 9.355-14.824 18.102-13.577 8.748 1.25 14.826 9.354 13.577 18.102l-8 56c-1.141 7.981-7.987 13.74-15.82 13.74z"/></g></svg>