<svg id="Layer_1" enable-background="new 0 0 512 512" height="512" viewBox="0 0 512 512" width="512" xmlns="http://www.w3.org/2000/svg"><path d="m512 159.996c0 30.82-19.65 58.08-48.89 67.83l-27.01 9-15.96 39.89c-8.91 22.29-24.78 40.93-45.16 53.27l-12.58 111.8c-.92 8.17-7.85 14.21-15.88 14.21-4.63 0-13.884 0-18.52 0-8.84 0-16-7.16-16-16 0-56.581.584-63.153-1.85-79.68l-6.15 9.29v70.39c0 8.84-7.16 16-16 16h-16c-8.84 0-16-7.16-16-16v-104h-9.8c-2.847 12.493-8.901 23.711-17.3 32.79l2.69 11.6c2.309 9.991-5.261 19.61-15.6 19.61-7.328 0-13.806-5.028-15.55-12.28-9.721 3.548-8.44 1.212-8.44 4.28 0 8.84-7.16 16-16 16s-16-7.16-16-16c0-3.004 1.26-.756-8.39-4.22l-.43 1.28c-2.23 6.7-8.48 10.94-15.18 10.94-10.915 0-18.625-10.701-15.18-21.06l3.07-9.21c-1.56-1.63-3.04-3.34-4.44-5.12-15.793 10.809-12.746 8.723-15.15 10.37l-26.39 50.15c5.91 2.35 10.09 8.12 10.09 14.87 0 8.84-7.16 16-16 16h-24c-8.84 0-16-7.16-16-16v-104c0-4.407 1.84-8.46 4.69-11.31 12.349-12.368 19.31-29.114 19.31-46.63 0-56.18-1.428-67.341 5.05-87.13-17.3 9.54-29.05 27.96-29.05 49.07v64c0 8.84-7.16 16-16 16s-16-7.16-16-16v-64c0-50.422 42.546-87.92 84.23-87.92 19.067-20.103 45.667-32.08 74.52-32.08h168.28c6.67 0 12.94-2.6 17.66-7.31 8.396-8.396 18.808-13.623 29.65-15.7l19.94-33.22c6.186-10.317 21.215-10.383 27.44 0l22.99 38.31 17.92 17.92h9.37c22.237 0 40 18.118 40 40z" fill="#ece2e2"/><path d="m483.09 121.556c-2.64 27.4-35.09 54.44-35.09 54.44s-16-24-48 24-104 72-104 72-24 8-48 8-72-40-72-40-48 48-88 80c-12.38 9.91-32.44 11.38-54.22 8.69.75-1.46 1.73-2.82 2.91-4 12.349-12.368 19.31-29.114 19.31-46.63 0-56.18-1.428-67.341 5.05-87.13-17.3 9.54-29.05 27.96-29.05 49.07v64c0 8.84-7.16 16-16 16s-16-7.16-16-16v-64c0-50.422 42.546-87.92 84.23-87.92 19.067-20.103 45.667-32.08 74.52-32.08h168.28c6.67 0 12.94-2.6 17.66-7.31 8.396-8.396 18.808-13.623 29.65-15.7l19.94-33.22c6.186-10.317 21.215-10.383 27.44 0l22.99 38.31 17.92 17.92c9.53 0 13.892-.343 20.46 1.56z" fill="#f2f2f2"/><g fill="#999"><path d="m294.49 151.996c.89 2.94 1.51 5.78 1.51 8 0 8 0 32-16 48s-40 0-72-8-32-40-32-40v-8z"/><path d="m128 223.996c-8 16-24 64-40 48v-49.25c0-19.17 7.67-36.58 20.09-49.33 8.36 11.48 26.1 38.21 19.91 50.58z"/><path d="m372.12 292.056c-10.93-4.27-20.12-8.82-20.12-12.06 0-8-8-16 0-40 4.36-13.08 25.36-4.77 46.16 5.5-8.016 20.055-11.607 32.657-26.04 46.56z"/></g><path d="m252.34 335.996h-6.14c-2.847 12.493-8.901 23.711-17.3 32.79l2.69 11.6c2.309 9.991-5.261 19.61-15.6 19.61-7.328 0-13.806-5.028-15.55-12.28-9.721 3.548-8.44 1.212-8.44 4.28 0 8.84-7.16 16-16 16s-16-7.16-16-16c0-3.004 1.26-.756-8.39-4.22l-.43 1.28c-2.23 6.7-8.48 10.94-15.18 10.94-10.915 0-18.625-10.701-15.18-21.06l3.07-9.21c-1.56-1.63-3.04-3.34-4.44-5.12l-13.34 9.13c-.56-2.06-1.24-4-2.11-5.74-8-16 40-48 40-48s88-8 104 0c3.82 1.91 4.91 7.94 4.34 16z" fill="#ffdfba"/></svg>