<svg id="Layer_1" enable-background="new 0 0 512.001 512.001" height="512" viewBox="0 0 512.001 512.001" width="512" xmlns="http://www.w3.org/2000/svg"><path d="m509.31 300.305-16 24c-2.96 4.45-7.96 7.13-13.31 7.13h-30.06c-23.86 0-46.41-8.47-64.22-24h-8.72l33.24 27.71c11.467 9.541 4.665 28.29-10.25 28.29-3.61 0-7.24-1.22-10.23-3.71l-48-40c-3.65-3.04-5.76-7.54-5.76-12.29h-11c-2.67 8.74-7.12 16.91-13.12 24h24.12c8.84 0 16 7.16 16 16 0 8.83-7.16 16-16 16h-288c-26.47 0-48-21.54-48-48 0-26.47 21.53-48 48-48 44.616 0 73.939 10.448 97.48 18.29 13.89-101.208 118.986-166.253 213.85-124.1l78.19 34.75c28.2 8.4 50.93 28.04 63.55 53.48 7.931 16.003 9.406 28.413 10.81 39.59.47 3.81-.44 7.67-2.57 10.86z" fill="#c79a83"/><path d="m501.07 249.855c-6.16 12.45-16.35 23.87-29.07 30.23-32 16-24 8-80 0s-64-8-144-40c16 40 32 80-64 80-47.336 0-64.99-16.48-73.49-45.11 12.984 3.184 21.44 6.243 34.97 10.75 13.848-100.905 118.646-166.404 213.85-124.1l78.19 34.75c28.2 8.4 50.93 28.04 63.55 53.48z" fill="#e0b7a3"/><path d="m202.64 363.435h-154.64c-26.47 0-48-21.54-48-48 0-26.47 21.53-48 48-48 25.52 0 50.75 3.69 75.15 10.98 18.8 8.63 32.84 19.65 36.85 33.67 6.75 23.64 29.2 40.16 42.64 51.35z" fill="#999"/><path d="m399.991 363.434c-3.611 0-7.242-1.216-10.234-3.709l-48-40c-3.647-3.04-5.757-7.543-5.757-12.292v-48c0-8.836 7.163-16 16-16s16 7.164 16 16v40.506l42.243 35.203c11.463 9.552 4.668 28.29-10.252 28.292z" fill="#e0b7a3"/></svg>