<svg id="Layer_1" enable-background="new 0 0 512.113 512.113" height="512" viewBox="0 0 512.113 512.113" width="512" xmlns="http://www.w3.org/2000/svg"><path d="m480.113 191.317v2.31c-2.46 1.55-5.38 2.44-8.5 2.44-5.834 0-11.478-.916-16.48-2.48m-79.02 83.86c-1.797 1.798-1.855 1.856 0 0z" fill="#8bc4ff"/><path d="m512.113 191.317v76.75c0 28.48-21.38 52.07-48.93 55.56-11.939 11.939-21.542 24.44-42.79 24.44-19.7 0-36.44-12.94-42.16-30.77-8.19 5.61-16.95 10.22-26.12 13.8v72.97h8c8.84 0 16 7.16 16 16s-7.16 16-16 16h-24c-8.84 0-16-7.16-16-16v-80.96c-3.7.45-7.44.74-11.2.87l-28.8 18.36v45.73h8c8.84 0 16 7.16 16 16s-7.16 16-16 16h-24c-8.84 0-16-7.16-16-16v-88.4c-37.65 1.907-78.387-2.773-114.76-15.76-1.3 1.25-2.64 2.48-4.01 3.67l19.5 84.49h11.27c8.84 0 16 7.16 16 16s-7.16 16-16 16h-24c-7.45 0-13.92-5.14-15.59-12.4l-19.75-85.59c-10.65 4.89-22.02 8.19-33.77 9.75l-25.75 6.02 11.59 50.22h11.27c8.84 0 16 7.16 16 16s-7.16 16-16 16h-24c-7.45 0-13.92-5.14-15.59-12.4-19.729-85.499 12.586 54.519-24-104-3.048-13.164 7.564-13.402 22.79-43.54 8.91-17.69 14.44-37 16.19-56.83l-12.08 12.08c-6.216 6.236-16.37 6.27-22.62 0-6.25-6.24-6.25-16.38 0-22.62l50.47-50.47c14.8-20.7 39.03-34.22 66.36-34.22h74.6c18.86 0 36.6-7.35 49.94-20.69 36.44-36.44 95.439-36.442 131.88 0l6.06 6.06v-9.37c0-8.84 7.16-16 16-16 8.804 0 16 7.124 16 16v28l31.5-3.94c35.81 1.44 64.5 31.03 64.5 67.19z" fill="#a07765"/><path d="m512.113 191.317v38.78c-21.53 18.52-52.63 41.97-72 41.97-32 0-48-40-48-40s-16 24-64 48-64-24-64-24-32-8-48 16-64-32-64-32-40 56-80 56c-20.804 0-29.75-4.69-48.8-19.94 8.91-17.69 14.44-37 16.19-56.83l-12.08 12.08c-3.12 3.13-7.22 4.69-11.31 4.69-14.115 0-21.422-17.214-11.31-27.31l50.47-50.47c14.8-20.7 39.03-34.22 66.36-34.22h74.6c18.86 0 36.6-7.35 49.94-20.69 36.44-36.44 95.439-36.442 131.88 0l6.06 6.06v-9.37c0-8.84 7.16-16 16-16 7.46 0 13.72 5.1 15.5 12 .71 2.753.5 2.356.5 32l31.5-3.94c35.81 1.44 64.5 31.03 64.5 67.19z" fill="#c79a83"/><path d="m440.113 204.067c-30.878 0-56-25.121-56-56v-48c0-8.837 7.164-16 16-16s16 7.163 16 16v48c0 13.233 10.766 24 24 24 8.836 0 16 7.163 16 16s-7.163 16-16 16z" fill="#999"/></svg>