<svg id="Layer_1" enable-background="new 0 0 511.999 511.999" height="512" viewBox="0 0 511.999 511.999" width="512" xmlns="http://www.w3.org/2000/svg"><g fill="#aaa"><path d="m161.12 160.973c2.01-.2 4.05-.35 6.11-.46-1.6.41-3.67.54-6.11.46z"/><path d="m510.31 223.833-10.81 21.63c-9.14 18.28-27.38 29.2-46.98 29.2-8.857 0-12.942-1.595-41.53-8.75l-12.13 8.09-6.37 57.33 38.87 45.34h8.64c8.84 0 16 7.17 16 16 0 8.84-7.16 16-16 16h-16c-4.67 0-9.11-2.04-12.15-5.58-52.284-60.999-48.918-56.754-50.16-59.26l-18.01-36.03c-.601 2.943.158.972-15.13 31.56l5.33 37.31h2.12c8.84 0 16 7.17 16 16 0 8.84-7.16 16-16 16h-16c-7.96 0-14.71-5.85-15.84-13.73-10.892-76.246-7.465-54.999-14.51-90.27-86.131 0-82.345.049-83.35-.1-1.126 0-.372-.683.88 3.04l18.34 55.03c1.94 5.82 5.69 10.7 10.72 14.03h3.76c8.84 0 16 7.17 16 16 0 8.84-7.16 16-16 16h-8c-9.414 0-29.366-13.489-36.84-35.91-18.611-55.844-16.908-51.692-17.78-51.4-36.795 14.712-38.635 16.411-44.73 14.96-3.503-.637 4.685-1.487-36.65 4.42 0 14.085-1.224 24.18 7.31 35.93h8.69c8.84 0 16 7.17 16 16 0 8.84-7.16 16-16 16h-16c-4.24 0-8.31-1.68-11.31-4.68-24.405-24.405-20.66-50.629-20.66-76.25-.33-5.79 2.5-11.14 7.11-14.19l22.3-31.22c13.031-18.093 9.79-34.184 11.21-43.66 4.093-40.975 40.168-76.772 85.76-77.97 1.758-.046-9.254-.03 157.59-.03 2.104-1.23 4.285-2.839 5.72-4.1 2.734-2.208-1.704.1 14.54-7.5-1.44-12.81 1.95-25.7 10.16-38.18 4.224-6.565 11.369-8.748 18.14-6.87 3.661 1.09 2.517.651 34.96 24.98 5.416 1.812 12.835 6.603 29.24 12.06 15.929 5.31 27.303 18.894 30.37 34.23 2.34 11.43 7.94 21.82 16.18 30.07 4.87 4.87 6.08 12.31 3 18.47z"/><path d="m186.56 160.893c-39.27 2.69-71.59 31.06-80.26 68.4-23.296 34.785-30.596 83.38-66.3 83.38-4.99 0-14.27 0-22.98-5-7.76-4.47-17.02-13.99-17.02-34 0-8.795 7.129-16 16-16 8.84 0 16 7.17 16 16 0 1.626.164 4.899 1.02 6.29 1.2.71 5.24.71 6.98.71 5.183 0 16.076-24.36 18.73-30.03 10.342-22.087 21.342-43.903 38.78-60.8 17.26-16.74 38.59-26.41 63.61-28.87 2.44.08 4.51-.05 6.11-.46 8.595-.446 17.427.057 19.33.38z"/></g><path d="m490.73 173.513c-4.9 7.05-13.43 11.78-16.22 19.86-18.51 53.49-42.51 13.49-90.51 37.49l-48 24h-88c-8.065-16.131-16.04-24-33.69-24-10.33.01-19.82 5.54-25.32 14.28-18.019 28.662-53.008 40.469-84.14 29.92-3.66 2.24-7.29 4.42-10.88 6.52.197-.328 4.842-6.746 7.34-14.9.081-.325 1.431-4.127 2.17-9.59.898-6.459.22-10.485.93-16.17 2.214-38.701 36.286-76.888 82.15-80.03 3.356-.317-4.226-.22 161.44-.22 1.512-.885 3.04-1.966 3.37-2.23 7.174-5.097-2.643-.23 16.89-9.37-1.44-12.81 1.95-25.7 10.16-38.18 5.414-8.414 16.306-9.431 22.31-4.93.215.086-.373-.329 30.79 23.04 5.416 1.812 12.835 6.603 29.24 12.06 14.88 4.96 26.21 17.3 29.97 32.45z" fill="#b2b2b2"/></svg>