<svg id="Layer_1" enable-background="new 0 0 512.119 512.119" height="512" viewBox="0 0 512.119 512.119" width="512" xmlns="http://www.w3.org/2000/svg"><path d="m256.809 38.758c-22.935 22.936-50.87 37.489-80.22 43.74 2.32 10.57 8.08 20.33 15.61 29.11 5.59-1.48 11.12-3.22 16.58-5.22 11.502 15.563 22.39 25.518 22.39 25.87-1.53 2.67-3.13 5.31-4.82 7.91 10.71 6.88 20.89 12.14 27.98 15.52 21.237-33.447 29.79-68.852 29.79-105.62 0-14.213-17.259-21.383-27.31-11.31zm207.31 247.31c26.478 0 48-21.418 48-48 0-4.24-1.69-8.31-4.69-11.31l-29.07-29.07c-.439-1.551.226.783-4.61-16.15-7.452-26.062-29.642-43.84-54.74-46.97-9.3-28.4-36.05-48.5-66.89-48.5-6.54 0-12.43 3.98-14.86 10.06-8.942 22.381-19.365 41.343-10.14 69.54l-18.47 8.4c-.831 0-173.512-.006-174.46.01-9.2-14.29-19.59-32.7-25.53-50.68 6.57-2.13 13.41-3.65 20.44-4.5l-15.89-29.79c-19.376 4.079-37.402 12.217-52.24 22.72l10.04 32.64c4.34-3.7 8.96-7.07 13.84-10.08 2.1 14.41 10.23 31.38 17.57 43.84-55.14 14.196-92.403 59.23-100.54 109.77-.6-.64-1.19-1.28-1.76-1.93 0 23.969-1.833 40.204 8.91 61.58 8.05 16.11 7.32 34.94-1.94 50.37-4.574 7.626-6.126 9.485-6.78 13.62-.138.141-.99 5.605 2.12 10.71.845 1.442-.643-.49 41.4 49.96 3.04 3.65 7.54 5.76 12.29 5.76h40c8.84 0 16-7.16 16-16s-7.16-16-16-16h-32.51l-24.16-29 38.02-27.16c2.98-.15 5.93-.45 8.83-.89 6.82 4.77 14.34 9.08 22.46 12.88l-2.36 3.94c-3.5 5.84-2.93 13.25 1.43 18.47l40 48c3.04 3.65 7.54 5.76 12.29 5.76h40c8.84 0 16-7.16 16-16s-7.16-16-16-16h-32.51l-27.23-32.68c35.681 9.741 76.43 11.119 112.49 4.98 14.777 22.805 27.708 34.79 43.94 51.01 3 3 7.07 4.69 11.31 4.69h52c8.84 0 16-7.16 16-16s-7.16-16-16-16h-32c-10.16-22.11-11.18-43.36 0-63.46l5.09-8.27c11.26 31.95 29.52 60.97 53.83 85.27 14.804 14.805 14.165 14.215 14.92 14.81 2.494 2.092 6.007 3.335 7.8 3.47 2.271.259-4.404.18 54.36.18 8.84 0 16-7.16 16-16s-7.16-16-16-16h-37.51c-27.66-52.31-36.58-101.63-14.45-145.99 16.36-6.51 33.99-10.01 51.96-10.01zm-103.1 1.98c-9.463 6.997-18.263 14.994-26.16 23.83-24.032-57.701 18.491-121.81 81.26-121.81 8.84 0 16 7.16 16 16 0 8.903-7.222 16-16 16-34.857 0-61.368 31.717-55.1 65.98z" fill="#999"/><path d="m83.359 184.598c-45.605 19.926-74.361 59.184-81.48 103.4-.6-.64-1.19-1.28-1.76-1.93v-57.54c0-49.097 25.876-93.36 60.85-116.7 12.158 39.527 7.505 24.404 22.39 72.77z" fill="#999"/><path d="m284.119 50.068c0 40.407-10.38 75.051-29.79 105.62-30.138-14.367-70.578-40.561-77.74-73.19 31.777-6.769 59.438-22.959 80.22-43.74 10.039-10.061 27.31-2.92 27.31 11.31z" fill="#aaa"/><path d="m254.329 155.688c-3.68 5.837-8.473 12.627-13.12 18.38h-82.69c-35.001-65.635-25.191-47.242-45.31-84.96 26.77-5.558 36.943-.547 63.38-6.61 7.162 32.632 47.64 58.841 77.74 73.19z" fill="#999"/><path d="m478.039 196.558c-9.397 23.773-47.924 11.51-61.92 11.51-16 0-56 24-72 40-12.877 12.877.11 48.188 8 64 0 0-16 16-56 24s-64-56-64-56-8 64-40 72-40-88-40-88-16 32-80 48c-27.44 6.86-51.147-3.499-70.24-24.07 7.71-47.886 41.162-87.253 81.48-103.4-15.221-49.458-9.883-32.109-22.39-72.77 15.284-10.819 33.345-18.742 52.24-22.72 20.018 37.53 9.894 18.547 45.31 84.96h150.13l18.47-8.4c-5.13-15.68-4.58-32.73 1.55-48.04l8.59-21.5c2.43-6.08 8.32-10.06 14.86-10.06 30.84 0 57.59 20.1 66.89 48.5 11.31 1.41 21.97 5.72 31.22 12.69 19.717 14.883 22.873 32.016 27.81 49.3z" fill="#aaa"/><g fill="#ece2e2"><path d="m168.119 192.068-80 8c-18.556-60.308-8.079-26.239-27.15-88.24 15.162-10.733 33.272-18.726 52.24-22.72 30.545 57.266 25.801 48.382 54.91 102.96z"/><path d="m284.119 50.068c0 40.407-10.38 75.051-29.79 105.62-30.138-14.367-70.578-40.561-77.74-73.19 31.777-6.769 59.438-22.959 80.22-43.74 10.039-10.061 27.31-2.92 27.31 11.31z"/><path d="m354.193 330.802c-5.459 0-10.777-2.795-13.769-7.828-34.307-57.715 6.94-132.905 75.694-132.905 8.837 0 16 7.163 16 16s-7.163 16-16 16c-43.594 0-70.101 47.686-48.187 84.556 6.373 10.719-1.468 24.177-13.738 24.177z"/></g><path d="m353.479 188.848c-38.263 17.391-36.729 17.22-41.36 17.22h-176.14c-79.515 0-119.838 84.147-98.34 127.26 12.64 25.29 11.86 54.72-1.97 79.2 5.433 6.525.432.522 27.94 33.54h32.51c8.84 0 16 7.16 16 16s-7.16 16-16 16h-40c-4.75 0-9.25-2.11-12.29-5.76-42.765-51.318-40.214-48.221-40.73-48.94-2.218-3.065-3.38-7.076-2.85-11.32.686-4.449 1.519-5.158 6.84-14.03 9.26-15.43 9.99-34.26 1.94-50.37-31.472-62.623 21.602-172.233 125.16-173.57.946-.015 173.625-.01 174.46-.01 22.168-10.082 15.072-6.856 31.59-14.36 8.04-3.65 17.53-.1 21.19 7.95 3.65 8.04.1 17.53-7.95 21.19z" fill="#aaa"/></svg>