<svg id="Layer_1" enable-background="new 0 0 512.052 512.052" height="512" viewBox="0 0 512.052 512.052" width="512" xmlns="http://www.w3.org/2000/svg"><path d="m412.854 216.016-1.59 7.12c14.65 10.93 32.4 16.88 50.86 16.88 17.038 0 32.595 9.629 40.2 24.84 5.35 10.714-2.52 23.16-14.3 23.16-5.87 0-11.52-3.24-14.32-8.84-2.197-4.393-6.647-7.16-11.58-7.16-20.66 0-40.67-5.41-58.27-15.521l-2.87 12.91c14.88 11.91 33.52 18.61 53.14 18.61 17.14 0 32.54 9.52 40.2 24.84 3.95 7.91.75 17.52-7.15 21.47-7.902 3.952-17.522.745-21.47-7.15-2.21-4.42-6.64-7.16-11.58-7.16-21.75 0-42.63-5.99-60.63-16.89l-5.73 25.77c7.685 19.839 5.096 43.447-8.97 61.75l-10.29 13.37h11.51c37.5 0 68 30.51 68 68 0 8.84-7.16 16-16 16-83.533.015-106.775.02-106.88.02-46.985 0-88.966-21.574-116.51-56.02h-22.8c-81.187 0-145.81-66.029-145.81-145.81v-133.62c0-31.926-12.364-62.3-35.31-85.26-10.052-10.03-2.931-27.31 11.31-27.31h40.6c95.137 0 177.538 57.081 213.62 139.15l51.15-51.15c-25.309-25.314-37.37-55.524-37.37-88 0-8.84 7.16-16 16-16h36c25.52 0 47.11 17.16 53.83 40.55 44.097 3.54 86.106 23.509 118.32 61.04 4.541 5.31 3.85 10.286 3.85 17.08 0 40.43-32.9 73.33-73.33 73.33h-25.83z" fill="#c79a83"/><g fill="#e0b7a3"><path d="m466.884 89.866c-.37 7.01-1.32 14.39-2.87 22.16-16 80-80 56-80 56s-8 24-24 80-72 56-72 56 40 64-24 88-56-128-72-104-88 80-104-32c-6.84-47.89-28.31-92.85-50.63-128.63-4.77-22.6-15.97-43.35-32.68-60.07-10.052-10.03-2.931-27.31 11.31-27.31h40.6c95.137 0 177.538 57.081 213.62 139.15l51.15-51.15c-25.309-25.314-37.37-55.524-37.37-88 0-8.84 7.16-16 16-16h36c25.52 0 47.11 17.16 53.83 40.55 27.53 2.21 53.9 10.96 77.04 25.3z"/><path d="m480.026 336.02c-5.869 0-11.52-3.241-14.323-8.849-2.207-4.413-6.643-7.155-11.578-7.155-39.245 0-75.671-19.495-97.44-52.148l-17.984-26.977c-4.901-7.353-2.915-17.286 4.438-22.188 7.352-4.902 17.286-2.916 22.188 4.438l17.984 26.977c15.82 23.73 42.293 37.898 70.814 37.898 17.134 0 32.537 9.52 40.2 24.845 5.359 10.718-2.546 23.159-14.299 23.159z"/><path d="m432.014 488.016c-8.836 0-16-7.163-16-16 0-19.851-16.149-36-36-36h-44c-13.252 0-20.763-15.249-12.682-25.756l30.1-39.13c15.89-20.636 1.278-51.114-25.178-51.114h-32.24c-8.836 0-16-7.163-16-16s7.164-16 16-16h32.24c53.057 0 82.488 61.126 50.539 102.63l-10.285 13.37h11.506c37.495 0 68 30.505 68 68 0 8.837-7.163 16-16 16z"/></g><path d="m325.136 488.036c-82.409 0-149.122-66.683-149.122-149.12 0-44.52 16.34-81.879 44.458-109.986l100.911-100.913 33.943 11.313-112.228 112.229c-46.774 46.756-46.818 124.144-.775 170.18 39.105 39.097 88.31 34.296 82.829 34.297 8.836-.001 16.001 7.161 16.002 15.998.001 8.782-7.101 16.002-16.018 16.002z" fill="#c79a83"/></svg>