<svg id="Layer_1" enable-background="new 0 0 512.026 512.026" height="512" viewBox="0 0 512.026 512.026" width="512" xmlns="http://www.w3.org/2000/svg"><g><path d="m512.026 140.013v24c0 21.08-16.39 38.4-37.09 39.9l-11.35 3.78c-1.97 25.91-10.46 50.5-24.69 71.87-46.7-28.14-81.45-110.8-86.87-159.55-4.77-42.96 30.33-68.83 59.42-82.71 50.54 7.1 59.7 41.22 60.1 42.83.205.852 1.699 8.395 6.63 33.07l25.01 12.5c5.42 2.71 8.84 8.25 8.84 14.31z" fill="#ffec8f"/><path d="m503.186 125.703-25.01-12.5c-4.93-24.675-6.425-32.218-6.63-33.07-.4-1.61-9.56-35.73-60.1-42.83-5.89-.83-12.33-1.29-19.39-1.29-7.39-9.9-19.11-16-32.03-16-24.569 0-43.225 22.027-39.55 45.91-28.351 23.698-44.876 56.9-48.96 90.09h-102.99c-25.992 0-50.554 11.241-63.96 24.32-.597.611-29.573-.002-55.1 25.8-16.4 16.58-25.44 38.55-25.44 61.88v48c0 22.36-7.39 44.52-20.8 62.4-5.3 7.07-3.87 17.1 3.2 22.4 7.036 5.277 17.079 3.9 22.4-3.2 17.54-23.38 27.2-52.36 27.2-81.6v-48c0-17.06 7.76-32.42 19.92-42.72-5.136 17.337-3.92 28.979-3.92 60.87 0 25.97 4.56 32.113 4.56 55.03 0 31.074-11.763 61.352-12.42 68.74-.428 3.201.104 6.229 1.49 9.11.386.773-2.627-4.533 32.48 56.91 2.85 4.98 8.15 8.06 13.89 8.06h16c8.84 0 16-7.16 16-16s-7.16-16-16-16h-6.71l-19-33.25c35.31-17.666 34.763-17.067 37.02-19.44 5.029-4.702 14.488-15.595 21.88-26.42-7.071 32.812-12.233 38.05-7.08 47.05l32 56c2.85 4.98 8.15 8.06 13.89 8.06h16c8.84 0 16-7.16 16-16s-7.16-16-16-16h-6.71l-24.21-42.36c6.521-26.074 11.621-42.448 11.48-69.34.849 0 25.382 12.195 68.36 19.08l7.08 53.65v62.97c0 8.84 7.16 16 16 16h16c8.84 0 16-7.16 16-16s-7.16-16-16-16v-45.67l15.01-50.36c1.742.021 3.367.03 5.11.03 8.572 81.308 8.129 77.155 11.97 113.67.86 8.15 7.72 14.33 15.91 14.33h16c8.84 0 16-7.16 16-16s-7.16-16-16-16h-1.6l-5.03-47.83 43.97-94.89c14.433-14.433 23.391-22.522 33.53-37.73 14.23-21.37 22.72-45.96 24.69-71.87l11.35-3.78c20.7-1.5 37.09-18.82 37.09-39.9v-24c0-6.06-3.42-11.6-8.84-14.31z" fill="#f2a661"/><path d="m405.366 317.293-43.97 94.89 5.03 47.83h1.6c8.84 0 16 7.16 16 16s-7.16 16-16 16h-16c-8.19 0-15.05-6.18-15.91-14.33-.021-.202-5.341-50.795-11.97-113.67-1.742 0-3.367-.009-5.11-.03l-15.01 50.36v45.67c8.84 0 16 7.16 16 16s-7.16 16-16 16h-16c-8.84 0-16-7.16-16-16v-62.97l-7.08-53.65c-42.992-6.887-67.513-19.08-68.36-19.08.141 26.889-4.957 43.259-11.48 69.34l24.21 42.36h6.71c8.84 0 16 7.16 16 16s-7.16 16-16 16h-16c-5.74 0-11.04-3.08-13.89-8.06l-32-56c-5.159-9.011.08-14.565 7.08-47.05-7.63 11.174-19.63 25.048-23.39 27.75-1.371 1.217-1.16.924-35.51 18.11l19 33.25h6.71c8.84 0 16 7.16 16 16s-7.16 16-16 16h-16c-5.74 0-11.04-3.08-13.89-8.06-33.301-58.282-32.125-56.212-32.2-56.37-6.953-12.162 10.65-36.621 10.65-78.39 0-20.497-3.301-25.561-4.31-45.64-.326-6.012-.25-6.656-.25-43.04 0-9.568 1.395-18.698 3.92-27.22-12.16 10.3-19.92 25.66-19.92 42.72v48c0 29.24-9.66 58.22-27.2 81.6-3.14 4.19-7.95 6.4-12.81 6.4-12.979 0-20.77-14.956-12.79-25.6 13.41-17.88 20.8-40.04 20.8-62.4v-48c0-46.506 35.813-83.907 80.51-87.66.905 0 23.212-24.34 63.99-24.34h102.99c1.415-11.502 4.884-25.137 10.19-37.68 4.743 40.298 9.503 80.737 14.32 121.68l114.84 71.78z" fill="#efd66c"/><path d="m292.666 211.453c-2.85 4.16-4.64 8.36-4.64 12.56 0 32 24 72 8 80s-120-24-120-24-24 32-48 40c-17.25 5.75-42.76-13.29-55.75-24.46-.17-3.13-.25-6.26-.25-9.39 0-31.905-1.18-43.655 3.92-60.87-12.16 10.3-19.92 25.66-19.92 42.72v48c0 29.24-9.66 58.22-27.2 81.6-5.313 7.089-15.352 8.486-22.4 3.2-7.07-5.3-8.5-15.33-3.2-22.4 13.41-17.88 20.8-40.04 20.8-62.4v-48c0-23.33 9.04-45.3 25.44-61.88 25.812-26.09 54.331-25.012 55.1-25.8 13.533-13.203 38.139-24.32 63.96-24.32h102.99c.384-3.122 1.139-7.699 2.04-11.79 4.06.55 37.07 40.89 19.11 67.23z" fill="#ffe773"/><path d="m460.649 204.013h-19.943c-41.661 0-74.417-39.424-62.084-83.729 8.826-31.801 37.817-52.271 68.725-52.271 1.993 0 .867-.062 10.44.9 6.993.703 12.709 5.889 14.089 12.78l6.304 31.508 25.002 12.501c5.421 2.71 8.845 8.25 8.845 14.311v24c0 21.077-16.388 38.399-37.09 39.896-4.75 1.581-8.558 2.642-14.288.104z" fill="#ffec8f"/></g></svg>