<svg id="Layer_1" enable-background="new 0 0 512.027 512.027" height="512" viewBox="0 0 512.027 512.027" width="512" xmlns="http://www.w3.org/2000/svg"><path d="m510.886 269.953c-11.727 29.293-44.337 43.97-73.69 34.06-16.37-.01-32.26-3.14-46.98-9.12l-20.23 11.43 23.34 16.67c6.41 4.58 8.53 13.13 5.01 20.18l-24 48c-2.8 5.6-8.45 8.84-14.32 8.84-11.793 0-19.642-12.462-14.3-23.16l17.89-35.77-24.36-17.4-43.61 24.64c3.692 7.482 3.387 6.696 33.71 59.74 8.22.67 14.68 7.56 14.68 15.95 0 8.84-7.16 16-16 16h-8c-5.74 0-11.04-3.08-13.89-8.06-32.643-57.118-37.344-64.284-44.83-81.57-36.409 4.092-76.075.639-110.68-11.96l-4.4 3.52 18.02 66.07h3.78c8.84 0 16 7.16 16 16s-7.16 16-16 16h-16c-7.22 0-13.54-4.83-15.44-11.79l-20.17-73.96c-5.21 1.66-10.54 2.96-15.97 3.9l-42.95 10.42 10.75 39.43h3.78c8.84 0 16 7.16 16 16s-7.16 16-16 16h-16c-7.22 0-13.54-4.83-15.44-11.79-21.796-79.938-16.281-59.719-24-88-1.67-6.15.46-12.72 5.44-16.7 12.945-10.356 19.622-14.189 23.09-24.65 5.627-16.78-5.09-21.464-5.09-43.74 0-15.622 3.74-25.849 3.74-26.42-25.38-8.5-43.74-32.49-43.74-60.7v-11.72c0-46.559 37.699-84.28 84.28-84.28h35.72c8.84 0 16 7.16 16 16s-7.16 16-16 16h-35.72c-28.839 0-52.28 23.334-52.28 52.28v11.72c0 15.61 11.24 28.64 26.04 31.44 17.3-23.88 45.41-39.44 77.08-39.44h58.25c50.513-50.507 123.352-54.234 176.36-20.96 8.78-11.56 22.67-19.04 38.27-19.04h56c8.84 0 16 7.16 16 16s-7.16 16-16 16h-56c-8.834 0-16 7.191-16 16 0 7.27 4.87 13.42 11.52 15.36l26.88-20.16c6.37-4.78 15.28-4.14 20.91 1.49l32 32c3 3 4.69 7.07 4.69 11.31v25.37l19.31 19.32c4.53 4.52 5.92 11.31 3.55 17.25z" fill="#c79a83"/><path d="m488.026 213.153c-15.29 13.14-24.26 39.71-40 42.86-40 8-88-8-88-8s0 8-40 24-64-32-64-32-24 48-40 56-32-64-32-64-16-24-56 40c-17.14 27.43-50.44 31.35-82.91 26.86 2.2-6.56 2.08-13.85-.65-20.67-9.508-23.756-.7-48.962-.7-49.49-25.38-8.5-43.74-32.49-43.74-60.7 0-16.359-1.806-44.814 24.69-71.31 15.92-15.92 37.08-24.69 59.59-24.69h35.72c8.84 0 16 7.16 16 16s-7.16 16-16 16h-35.72c-13.96 0-27.09 5.44-36.97 15.31-16.784 16.8-15.31 34.538-15.31 48.69 0 15.61 11.24 28.64 26.04 31.44 17.3-23.88 45.41-39.44 77.08-39.44 64.697 0 57.781.469 59.34-1.09 47.193-47.194 120.078-54.515 175.27-19.87 8.78-11.56 22.67-19.04 38.27-19.04h56c8.84 0 16 7.16 16 16s-7.16 16-16 16h-56c-8.06 0 22.4 11.2 22.4 11.2 6.37-4.78 15.28-4.14 20.91 1.49l32 32c5.395 5.395 4.69 11.282 4.69 16.45z" fill="#e0b7a3"/><path d="m408.026 216.013c-26.468 0-48-21.532-48-48s21.532-48 48-48h56c8.837 0 16 7.163 16 16s-7.163 16-16 16h-56c-8.822 0-16 7.178-16 16s7.178 16 16 16c8.837 0 16 7.163 16 16s-7.163 16-16 16z" fill="#ece2e2"/></svg>