<svg id="Layer_1" enable-background="new 0 0 512 512" height="512" viewBox="0 0 512 512" width="512" xmlns="http://www.w3.org/2000/svg"><path d="m495.965 232h-330.7c-31.26 0-48.3-36.008-29.42-60.23 12.89-14.04 25.68-22.23 40.81-25.76 4.75 34.406 34.334 61.99 71.31 61.99 8.84 0 16-7.16 16-16v-35.16c0-15.828-5.445-31.913-16.28-44.83 10.4-12.41 16.28-28.21 16.28-44.85v-51.16c0-8.84-7.16-16-16-16-39.7 0-72 32.3-72 72 0 1.451-65.357-2.871-122.1 53.89-99.554 99.526-54.715 271.296 82.63 307.91-17.409 25.858-34.881 37.956-50.13 49.4-12.289 9.212-5.71 28.8 9.6 28.8 58.488 0 116.383-25.137 156.57-72.46 54.218.599 39.002.46 41.8.46 110.036 0 202.712-81.662 217.48-189.84 1.318-9.586-6.157-18.16-15.85-18.16zm-184 64h153.98c-4.92 11.23-10.95 21.95-17.99 32h-135.99c-8.84 0-16-7.16-16-16s7.16-16 16-16zm116.03 56c-12.499 12.687-26.573 23.414-41.87 32h-90.16c-8.84 0-16-7.16-16-16 0-8.773 7.102-16 16-16z" fill="#aaa"/><path d="m511.815 250.16c-3.87 28.35-13.2 55.42-27.23 79.82-33.6 10.18-30.12 33.21-60.62 38.02-40.81 6.44-113.78-7.11-142.65-6.43-40.26.94-57.35 70.43-129.35 62.43 32-64 13.133-71.963-48-112-5.07-3.32-14.588-8.728-25.884-14.904-61.876-33.835-76.606-118.831-24.216-171.206 32.85-32.86 75.95-51.76 122.1-53.72 0-40.195 32.554-72.159 71.98-72.17 8.843-.002 16.02 7.157 16.02 16v51.16c0 16.64-5.88 32.44-16.28 44.85 10.833 12.915 16.28 28.999 16.28 44.83v35.16c0 8.759-7.045 15.977-15.804 16-36.581.097-66.678-27.019-71.506-61.99-15.13 3.53-27.92 11.72-40.81 25.76-18.862 24.198-1.874 60.23 29.42 60.23h330.7c9.679 0 17.17 8.561 15.85 18.16z" fill="#cccaca"/><g fill="#999"><path d="m471.965 328h-160c-8.837 0-16-7.163-16-16s7.163-16 16-16h160c8.837 0 16 7.163 16 16s-7.163 16-16 16z"/><path d="m434.545 384h-138.58c-8.837 0-16-7.163-16-16s7.163-16 16-16h138.58c8.837 0 16 7.163 16 16s-7.163 16-16 16z"/></g></svg>