<svg id="Layer_1" enable-background="new 0 0 512.193 512.193" height="512" viewBox="0 0 512.193 512.193" width="512" xmlns="http://www.w3.org/2000/svg"><path d="m512.193 104.096c0 92.64-75.36 168-168 168h-40.91c-16.62 16.56-44.63 29.52-83.45 38.58-30.84 7.2-57.3 9.29-58.41 9.37-13.542.984-22.055-14.112-14.34-25.13l15.97-22.82h-71.48c-5.352 19.597 11.091 67.373 35.83 71.79l16.93-3.77c37.36-8.3 76.79-3.45 111.02 13.67 11.756 5.878 11.78 22.73 0 28.62l-64 32c-1.478.739 1.912-.467-45.62 15.37l-61.05 76.32c-8.157 10.176-24.329 6.814-27.87-5.6l-1.93-6.75c-8.9-31.15-4.17-64.52 12.52-91.82-17.514-17.502-29.884-28.593-43.4-51.97-68.524-118.46 18.372-261.86 150.58-261.86h40.61v-72c0-8.84 7.16-16 16-16 54.475 0 96.237 39.425 103.77 88h161.23c8.779 0 16 7.093 16 16z" fill="#aaa"/><path d="m509.823 95.697c-20.03 27.87-67.9 84.45-133.63 96.4-88 16-208-16-248-8-45.742 9.148-112 48-104 144 .66 7.95.56 15.23-.19 21.86-68.524-118.46 18.372-261.86 150.58-261.86h40.61v-72c0-8.84 7.16-16 16-16 54.475 0 96.237 39.425 103.77 88h161.23c5.76-.001 10.8 3.04 13.63 7.6z" fill="#cccaca"/></svg>