<svg id="Layer_1" enable-background="new 0 0 512.004 512.004" height="512" viewBox="0 0 512.004 512.004" width="512" xmlns="http://www.w3.org/2000/svg"><path d="m512.004 169.758c0 19.779-15.997 35.78-35.78 35.78-19.947 0-81.315-2.687-163.7 23.479-19.4 43.98-57.021 64.521-104.52 64.521-14.213 0-21.381-17.261-11.31-27.311 9.2-9.199 15.65-21.42 19.97-33.25-30.52 8.03-69.33 31.181-91.72 61.971-.38.529-.8 1.029-1.24 1.5-1.56 1.67-5.1 9.83-6.08 24.369-1.584 23.308 5.181 44.425 11.18 44.74 1.96.101 3.88.561 5.68 1.351 38.222 16.93 47.033 48.882 41.36 88.87-1.524 10.793-13.191 16.963-23 12.069l-56.84-28.42c-78.267 39.134-74.612 38.11-80 38.11-9.647 0-17.225-8.552-15.84-18.26 4.79-33.597 18.165-63.65 45.08-84.311-6.97-26.6-17.53-92.62 20.45-168.59 15.95-31.89 45.65-62.8 70.43-83.08-5.74-39.536-45.289-49.417-36.89-72.65 1.84-5.08 6.59-11.46 18.78-12.99 55.329-6.916 81.505-4.059 115.53 23.2 76.82-24.73 150.95-.02 179.52 9.5 41.61 13.88 58.3 45.26 63.98 59.81l15.18 7.59c12.2 6.101 19.78 18.362 19.78 32.002z" fill="#999"/><path d="m479.724 131.508c-36.278 38.504-198.353-.928-207.72 36.54-8 32-8-24-56 0s-112 64-128 120c-12.54 43.88-25.08 88.32-45.31 88.94.84-.69 1.69-1.36 2.55-2.021-6.97-26.6-17.53-92.62 20.45-168.59 15.95-31.89 45.65-62.8 70.43-83.08-5.74-39.536-45.289-49.417-36.89-72.65 1.84-5.08 6.59-11.46 18.78-12.99 55.329-6.916 81.505-4.059 115.53 23.2 76.82-24.73 150.95-.02 179.52 9.5 41.61 13.88 58.3 45.26 63.98 59.81z" fill="#aaa"/></svg>