<svg id="Layer_1" enable-background="new 0 0 496 496" height="512" viewBox="0 0 496 496" width="512" xmlns="http://www.w3.org/2000/svg"><path d="m460 340.987c0 85.611-58.768 155.013-131.262 155.013s-131.262-69.402-131.262-155.013 58.768-138.524 131.262-138.524 131.262 52.913 131.262 138.524z" fill="#c991ff"/><path d="m400.001 222.349c22.738 23.854 36.721 57.833 36.721 99.592 0 30.401-7.411 58.758-20.216 82.689-8.03 15.008-22.55 25.402-39.248 28.702-.27.053-.528.106-.774.158-11.227 2.376-20.301-.303-29.65 6.352-10.106 7.193-.184 33.749-46.146 37.008l-.024.002c-20.878-.886-40.513-7.529-57.801-18.627 23.018 23.535 53.038 37.775 85.875 37.775 72.494 0 131.262-69.402 131.262-155.013 0-54.586-23.892-95.878-59.999-118.638z" fill="#d3b3ff"/><path d="m197.477 340.987c0 52.818 22.369 99.465 56.529 127.453 71.03-19.922 123.865-95.326 123.865-185.303 0-28.665-5.363-54.347-14.968-76.542-10.893-2.725-22.346-4.131-34.164-4.131-72.495-.001-131.262 52.912-131.262 138.523z" fill="#b173ff"/><path d="m358.543 263.809c0 105.184-72.204 190.453-161.272 190.453s-161.271-85.269-161.271-190.453 72.204-170.194 161.272-170.194 161.271 65.01 161.271 170.194z" fill="#c991ff"/><path d="m245.759 445.503c65.375-24.307 112.784-96.462 112.784-181.693 0-93.161-56.641-154.807-131.472-167.683-2.576 6.462 3.743 14.05 10.522 19.144 27.229 20.465 53.468 44.478 67.779 76.052 11.855 26.155 14.113 57.787.717 83.188-8.714 16.524-24.034 31.723-22.172 50.311.863 8.614 5.45 16.367 7.808 24.698 6.474 22.88-4.542 47.229-19.225 65.932-8.268 10.531-17.771 20.098-26.741 30.051z" fill="#d3b3ff"/><path d="m85.226 263.809c0-95.301 59.273-157.623 136.659-168.493-8.025-1.127-16.244-1.701-24.613-1.701-89.068 0-161.272 65.01-161.272 170.194s72.204 190.453 161.272 190.453c8.368 0 16.588-.753 24.613-2.204-77.386-13.995-136.659-92.947-136.659-188.249z" fill="#b173ff"/><g fill="#8a56b3"><path d="m120.698 324.317c-3.997 0-7.451-2.99-7.934-7.057-9.896-83.287 10.647-141.198 29.622-175.114 20.778-37.138 43.951-54.285 44.927-54.996 3.57-2.602 8.575-1.819 11.177 1.751 2.601 3.567 1.82 8.565-1.741 11.17-.419.311-21.874 16.438-40.838 50.674-17.586 31.748-36.591 86.081-27.258 164.626.562 4.738-3.13 8.946-7.955 8.946z"/><path d="m188.684 100.643c-3.782-2.285-4.995-7.203-2.71-10.984 5.403-8.941 6.669-27.275 3.387-49.042-.659-4.369 2.349-8.445 6.718-9.104 4.374-.661 8.445 2.349 9.104 6.718 2.279 15.117 4.593 42.976-5.514 59.703-2.297 3.798-7.222 4.984-10.985 2.709z"/><path d="m124.96 357.23c-4.413 0-8-3.577-8-8 0-5.101 4.701-8.831 9.56-7.84 2.099.412 3.942 1.659 5.09 3.4 2.089 3.094 1.734 7.357-.99 10.1-1.427 1.428-3.474 2.34-5.66 2.34z"/></g><path d="m290.567 255.927c-2.857 4.065-7.958 7.995-13.497 7.88-6.161-.128-9.521-5.108-10.338-9.836-1.149-6.645 2.299-41.583 19.76-39.801 7.066.721 7.836 13.928 8.523 18.451 1.157 7.621.778 15.861-4.448 23.306z" fill="#d3b3ff"/><path d="m400.213 409.945c2.558-1.916 5.172-4.432 5.222-7.628.057-3.61-3.484-6.535-7.084-6.813s-7.067 1.493-9.892 3.742c-3.923 3.124-11.942 11.486-7.515 17.032 4.414 5.531 15.262-3.331 19.269-6.333z" fill="#d3b3ff"/><path d="m294.085 20.999c-17.724 81.814-101.264 12.817-101.264 12.817 36.697-47.475 101.264-12.817 101.264-12.817z" fill="#69da61"/><path d="m223.35 52.861c19.304 9.007 43.421 14.192 58.775-4.429-5.567-7.68-16.076-12.859-28.123-12.859-14.241 0-26.333 7.237-30.652 17.288z" fill="#5ab161"/><path d="m60.888 16.319c23.691 109.359 135.357 17.132 135.357 17.132-49.053-63.459-135.357-17.132-135.357-17.132z" fill="#a8ffa9"/><path d="m61.199 16.155c11.061 11.464 27.603 18.745 46.088 18.745 23.352 0 43.603-11.619 53.619-28.612-44.58-17.787-95.287 7.577-99.707 9.867z" fill="#c9ffd2"/></svg>