<svg id="Layer_1" enable-background="new 0 0 496 496" height="512" viewBox="0 0 496 496" width="512" xmlns="http://www.w3.org/2000/svg"><path d="m245.939 153.178c24.477 1.781 47.232-13.034 55.507-36.139 3.983-11.122 5.27-25.225-.812-41.881-21.04-57.617-114.908-75.158-114.908-75.158s-21.937 92.939 22.241 135.491c12.772 12.3 26.189 16.83 37.972 17.687z" fill="#69da61"/><path d="m248 132.413c0-30.791-29.112-55.752-65.023-55.752-.374 0-.746.003-1.119.008 2.879 21.679 10.215 43.511 26.11 58.821 11.88 11.442 24.319 16.16 35.481 17.453 2.937-6.353 4.551-13.28 4.551-20.53z" fill="#5ab161"/><path d="m249.074 67.568c3.78 15.419 17.429 26.472 33.297 26.962 7.638.236 16.574-1.781 25.613-8.842 31.269-24.424 23.368-85.688 23.368-85.688s-61.567 5.011-78.955 40.675c-5.027 10.311-5.142 19.47-3.323 26.893z" fill="#a8ffa9"/><path d="m252.397 40.676c-2.072 4.25-3.309 8.305-3.92 12.124 5.627 2.923 11.906 4.556 18.529 4.556 26.031 0 46.276-25.038 43.53-53.789-19.547 4.65-47.349 14.978-58.139 37.109z" fill="#c9ffd2"/><path d="m387.164 139.908c-33.623-23.431-78.218-21.692-111.45 2.289-8.917 6.435-19.064 10.221-27.714 10.221s-18.797-3.786-27.714-10.221c-33.232-23.982-77.827-25.72-111.45-2.289-40.437 28.179-63.836 73.464-63.836 135.303 0 86.239 53.776 178.205 129.623 216.062 9.924 4.953 21.307 6.067 31.977 3.037 26.047-7.398 58.841-7.626 85.282-.705 10.402 2.723 21.475 1.774 31.05-3.118 75.027-38.331 128.068-129.628 128.068-215.276 0-61.839-23.399-107.124-63.836-135.303z" fill="#ffe070"/><path d="m404.631 154.162c11.802 23.152 18.153 50.875 18.153 83.09 0 38.571-10.757 78.287-29.435 113.796-3.859 3.668-5.706 9.153-8.349 13.887-6.181 11.071-17.197 18.507-28.208 24.793-11.012 6.286-22.642 12.011-31.464 21.118-3.767 3.888-9.221 11.37-11.145 18.559-2.464 9.204-8.266 17.192-16.676 21.668-.762.406-1.526.806-2.293 1.2-9.729 5.007-20.956 6.144-31.541 3.373-26.406-6.913-59.204-6.705-85.289.705-10.546 2.996-21.827 2.003-31.646-2.874-23.714-11.777-45.278-28.844-63.727-49.375 22.87 37.396 54.731 68.831 91.867 87.296 9.843 4.894 21.15 5.915 31.725 2.911 26.04-7.397 58.838-7.627 85.282-.705 10.402 2.723 21.475 1.774 31.05-3.118 75.024-38.33 128.065-129.627 128.065-215.275 0-52.303-16.74-92.764-46.369-121.049z" fill="#ffce66"/><path d="m56.833 304.537c0-61.839 23.399-107.124 63.835-135.303 33.623-23.431 78.218-21.692 111.45 2.289 8.918 6.435 19.065 10.221 27.714 10.221 8.65 0 18.797-3.786 27.715-10.221 33.232-23.982 77.827-25.72 111.45-2.289 18.696 13.028 33.749 29.714 44.532 50.001-9.9-33.983-29.322-60.481-56.365-79.327-33.623-23.431-78.218-21.692-111.45 2.289-8.917 6.435-19.065 10.221-27.714 10.221s-18.797-3.786-27.714-10.221c-33.232-23.982-77.827-25.72-111.45-2.289-40.437 28.179-63.836 73.464-63.836 135.303 0 35.009 8.862 70.962 24.466 103.855-8.169-24.364-12.633-49.684-12.633-74.529z" fill="#fff2b9"/><path d="m299.888 416.616c-.512-4.651-4.68-8.232-9.173-9.538-7.537-2.19-18.059-1.768-22.098 5.437-2.621 4.676-3.71 14.062-.527 18.679 8.201 11.897 33.188-2.078 31.798-14.578z" fill="#ffce66"/><path d="m195.448 167.447c5.007.712 10.267 2.531 13.109 6.714 2.842 4.184 1.769 11.117-3.008 12.78-1.437.5-2.995.482-4.516.458-2.199-.035-4.398-.069-6.596-.104-3.584-.056-7.242-.126-10.621-1.321-3.378-1.195-6.49-3.737-7.404-7.202-2.942-11.153 12.134-12.306 19.036-11.325z" fill="#fff2b9"/></svg>