<svg id="Layer_1" enable-background="new 0 0 496 496" height="512" viewBox="0 0 496 496" width="512" xmlns="http://www.w3.org/2000/svg"><path d="m211.002 175c-4.47 0-8.059-3.653-8.001-8.104l.236-18.207c-.109-2.754-2.876-57.064-45.451-89.456-3.517-2.675-4.198-7.694-1.523-11.21 2.676-3.517 7.695-4.199 11.211-1.523 49.737 37.841 51.704 99.33 51.764 101.929.004.22.013-.728-.238 18.675-.058 4.382-3.628 7.896-7.998 7.896z" fill="#db4968"/><path d="m169.917 95.456c16.11-.676 29.849-12.054 33.515-27.756 1.765-7.558 1.545-16.86-3.675-27.274-18.06-36.026-80.644-40.426-80.644-40.426s-7.339 62.308 24.692 86.763c9.259 7.07 18.357 9.019 26.112 8.693z" fill="#69da61"/><path d="m172.114 80.63c0-21.542-21.884-39.004-48.879-39.004-.91 0-1.814.021-2.711.06 2.886 16.696 9.371 34.456 23.281 45.077 8.678 6.626 17.214 8.754 24.636 8.727 2.367-4.58 3.673-9.598 3.673-14.86z" fill="#5ab161"/><path d="m345.084 141.728c-32.337-22.535-75.228-20.863-107.189 2.202-8.576 6.189-18.336 9.831-26.655 9.831s-18.079-3.642-26.655-9.831c-31.962-23.065-74.852-24.737-107.189-2.202-38.892 27.101-61.396 70.655-61.396 130.13 0 82.942 51.72 171.393 124.668 207.802 9.545 4.764 20.496 5.834 30.758 2.92 25.048-7.114 56.589-7.334 82.019-.677 10.004 2.619 20.654 1.706 29.863-2.999 72.158-36.866 123.171-124.673 123.171-207.046 0-59.475-22.505-103.029-61.395-130.13z" fill="#ff5872"/><path d="m368.235 161.919c9.089 20.695 13.939 44.875 13.939 72.487 0 82.373-51.013 170.181-123.171 207.046-9.209 4.705-19.859 5.618-29.863 2.999-25.393-6.647-56.933-6.448-82.019.677-10.262 2.915-21.212 1.844-30.758-2.92-27.368-13.66-51.748-34.645-71.53-59.916 22.207 41.78 55.829 77.4 95.835 97.368 9.545 4.764 20.496 5.834 30.758 2.92 25.049-7.114 56.589-7.334 82.019-.677 10.004 2.619 20.654 1.706 29.863-2.999 72.158-36.866 123.171-124.673 123.171-207.046 0-46.436-13.719-83.166-38.244-109.939z" fill="#db4968"/><path d="m46.91 304.158c0-59.475 22.504-103.029 61.395-130.131 32.337-22.535 75.227-20.863 107.189 2.202 8.576 6.189 18.336 9.831 26.655 9.831s18.078-3.642 26.655-9.831c31.962-23.065 74.852-24.737 107.189-2.202 1.443 1.006 2.864 2.034 4.262 3.085-9.439-13.885-21.256-25.688-35.172-35.385-32.337-22.535-75.228-20.863-107.189 2.202-8.577 6.189-18.336 9.831-26.655 9.831s-18.078-3.642-26.655-9.831c-31.962-23.065-74.852-24.737-107.189-2.202-38.891 27.102-61.395 70.656-61.395 130.131 0 66.822 33.57 137.22 84.766 181.099-33.37-42.217-53.856-96.599-53.856-148.799z" fill="#ff7f90"/><path d="m153.822 341.546h311.913c9.219 0 15.997 8.603 13.874 17.575-10.151 42.893-52.167 148.538-218.802 135.825-113.11-8.629-122.557-102.215-121.879-138.832.149-8.098 6.794-14.568 14.894-14.568z" fill="#ff7f90"/><path d="m167.818 341.546c-1.684 31.652 3.832 110.984 100.144 118.332 145.401 11.093 176.831-83.126 183.483-118.332z" fill="#ffe070"/><g fill="#ffa84f"><path d="m272.432 386.32c-4.418 0-8-3.582-8-8v-6.909c0-4.418 3.582-8 8-8s8 3.582 8 8v6.909c0 4.418-3.582 8-8 8z"/><path d="m322.081 386.32c-4.418 0-8-3.582-8-8v-6.909c0-4.418 3.582-8 8-8s8 3.582 8 8v6.909c0 4.418-3.582 8-8 8z"/></g></svg>