<svg id="Layer_1" enable-background="new 0 0 496 496" height="512" viewBox="0 0 496 496" width="512" xmlns="http://www.w3.org/2000/svg"><path d="m400.967 231.938c0 84.514-68.486 264.062-152.967 264.062s-152.967-179.548-152.967-264.062 68.486-129.669 152.967-129.669 152.967 45.156 152.967 129.669z" fill="#ff5872"/><path d="m248 496c49.001 0 92.621-60.406 120.617-127.635-9.358-3.617-20.456-2.926-28.981 2.451-14.633 9.229-19.185 27.967-24.541 44.417-4.204 12.912-9.958 25.901-20.273 34.732s-26.201 12.355-37.698 5.128c-10.366-6.516-16.353-20.669-28.516-22.07-7.328-.844-14.232 3.509-21.562 4.334-9.862 1.111-19.536-4.42-25.947-11.995-12.015-14.197-12.445-37.72-29-47.811-6.694-4.08-15.049-5.982-23.143-5.459 28.04 65.719 70.95 123.908 119.044 123.908z" fill="#ff7f90"/><path d="m303.182 109.111c-3.196.321-6.18.691-8.916 1.08-2.376-1.764-4.939-3.356-7.67-4.748-23.719-4.158-50.719-4.329-75.495.053-2.676 1.372-5.187 2.939-7.515 4.674-2.696-.381-5.629-.744-8.767-1.059-38.31 10.324-69.272 32.218-85.77 64.896 16.745 5.854 35.958 9.595 54.109 6.239 15.628-2.889 31.387 4.849 38.91 18.849 8.12 15.11 19.497 31.053 35.435 46.204 6.302 5.991 16.694 5.991 22.996 0 15.938-15.15 27.315-31.094 35.435-46.204 7.523-13.999 23.282-21.738 38.91-18.848 18.151 3.356 37.364-.385 54.109-6.239-16.5-32.679-47.461-54.573-85.771-64.897z" fill="#db4968"/><path d="m84 120.314s110.881 90.785 140.884-36.187c-1.904-.635-86.307-26.664-140.884 36.187z" fill="#69da61"/><path d="m412 120.314s-110.881 90.785-140.884-36.187c1.904-.635 86.307-26.664 140.884 36.187z" fill="#69da61"/><path d="m189.607 143.729c-6.81-20.582-26.207-35.432-49.072-35.432-17.502 0-32.972 8.701-42.32 22.013 20.845 13.168 60.57 32.542 91.392 13.419z" fill="#5ab161"/><path d="m380.366 94.392c-21.882 2.749-38.808 21.423-38.808 44.05 0 4.489.667 8.821 1.906 12.905 35.111-3.667 68.536-31.033 68.536-31.033-9.8-11.286-20.561-19.706-31.634-25.922z" fill="#5ab161"/><path d="m264.825 0h-36.522c-4.781 0-7.818 5.126-5.507 9.313 14.767 26.762 11.461 72.527 11.461 72.527h24.614s-3.305-45.765 11.461-72.527c2.311-4.187-.725-9.313-5.507-9.313z" fill="#ffe070"/><path d="m258.086 215.542c28.763-31.162 40.595-65.679 45.456-89.4 5.155-25.154-10.684-49.891-35.699-55.641-12.51-2.876-27.74-2.945-40.816.269-24.487 6.019-39.634 30.648-34.572 55.359 4.86 23.721 16.69 58.246 45.459 89.413 5.442 5.895 14.73 5.895 20.172 0z" fill="#a8ffa9"/><path d="m257.125 128.434c10.945-22.77 9.092-47.223-3.245-59.904-8.917-.535-18.21.115-26.853 2.24-24.487 6.019-39.634 30.648-34.572 55.359 2.138 10.437 5.627 22.966 11.313 36.381 18.547 4.871 41.455-9.315 53.357-34.076z" fill="#c9ffd2"/><g fill="#ad4968"><path d="m142.728 272.278c-4.418 0-8-3.582-8-8v-14.556c0-4.418 3.582-8 8-8s8 3.582 8 8v14.556c0 4.418-3.582 8-8 8z"/><path d="m169.046 219.65c-4.418 0-8-3.582-8-8v-14.556c0-4.418 3.582-8 8-8s8 3.582 8 8v14.556c0 4.419-3.582 8-8 8z"/><path d="m326.954 219.65c-4.418 0-8-3.582-8-8v-14.556c0-4.418 3.582-8 8-8s8 3.582 8 8v14.556c0 4.419-3.581 8-8 8z"/><path d="m195.364 272.278c-4.418 0-8-3.582-8-8v-14.556c0-4.418 3.582-8 8-8s8 3.582 8 8v14.556c0 4.418-3.582 8-8 8z"/><path d="m248 272.278c-4.418 0-8-3.582-8-8v-14.556c0-4.418 3.582-8 8-8s8 3.582 8 8v14.556c0 4.418-3.582 8-8 8z"/><path d="m300.636 272.278c-4.418 0-8-3.582-8-8v-14.556c0-4.418 3.582-8 8-8s8 3.582 8 8v14.556c0 4.418-3.581 8-8 8z"/><path d="m353.272 272.278c-4.418 0-8-3.582-8-8v-14.556c0-4.418 3.582-8 8-8s8 3.582 8 8v14.556c0 4.418-3.581 8-8 8z"/><path d="m169.046 342.69c-4.418 0-8-3.582-8-8v-14.556c0-4.418 3.582-8 8-8s8 3.582 8 8v14.556c0 4.418-3.582 8-8 8z"/><path d="m221.682 342.69c-4.418 0-8-3.582-8-8v-14.556c0-4.418 3.582-8 8-8s8 3.582 8 8v14.556c0 4.418-3.581 8-8 8z"/><path d="m274.318 342.69c-4.418 0-8-3.582-8-8v-14.556c0-4.418 3.582-8 8-8s8 3.582 8 8v14.556c0 4.418-3.582 8-8 8z"/><path d="m326.954 342.69c-4.418 0-8-3.582-8-8v-14.556c0-4.418 3.582-8 8-8s8 3.582 8 8v14.556c0 4.418-3.581 8-8 8z"/><path d="m195.364 412.102c-4.418 0-8-3.582-8-8v-14.555c0-4.418 3.582-8 8-8s8 3.582 8 8v14.555c0 4.419-3.582 8-8 8z"/><path d="m248 412.102c-4.418 0-8-3.582-8-8v-14.555c0-4.418 3.582-8 8-8s8 3.582 8 8v14.555c0 4.419-3.582 8-8 8z"/><path d="m300.636 412.102c-4.418 0-8-3.582-8-8v-14.555c0-4.418 3.582-8 8-8s8 3.582 8 8v14.555c0 4.419-3.581 8-8 8z"/></g><path d="m142.161 203.893c-.113 1.913-1.163 3.627-2.183 5.249-1.79 2.85-3.58 5.699-5.371 8.549-2.102 3.347-4.296 6.79-7.559 9.02s-7.911 2.935-11.101.601c-7.115-5.206-6.101-24.791.91-29.887 5.998-4.359 25.917-3.882 25.304 6.468z" fill="#db4968"/><path d="m267.583 440.087c4.569 3.161 11.113 2.142 15.554-1.198 2.044-1.537 3.792-3.572 4.58-6.005 1.117-3.449.054-7.503-2.612-9.961-1.405-1.295-3.162-2.137-4.931-2.857-2.432-.989-4.974-1.788-7.594-1.958-4.715-.307-12.478 1.477-12.085 7.251.343 5.044 2.828 11.781 7.088 14.728z" fill="#ff7f90"/></svg>