<svg id="Layer_1" enable-background="new 0 0 495.999 495.999" height="512" viewBox="0 0 495.999 495.999" width="512" xmlns="http://www.w3.org/2000/svg"><path d="m382.916 128.984c-10.431 1.207-20.289-3.514-26.168-11.842-36.931-52.306-112.471-77.034-188.15-56.342s-128.129 80.414-133.309 144.234c-.832 10.249-7.018 19.289-16.413 23.468-14.557 6.477-21.83 22.381-17.752 37.299 4.159 15.212 18.884 25.04 34.528 23.045l5.142-.656c9.352-1.192 18.611 2.491 24.74 9.655 39.035 45.627 109.779 66.077 180.644 46.701 70.865-19.375 121.363-72.974 131.753-132.115 1.631-9.285 7.729-17.168 16.386-20.899l4.761-2.052c14.482-6.242 22.158-22.195 17.999-37.407-4.122-15.076-18.634-24.885-34.161-23.089z" fill="#69da61"/><path d="m373.202 221.352c-21.289 42.712-63.943 78.221-118.802 93.221-70.865 19.375-141.609-1.074-180.644-46.701-6.129-7.164-15.388-10.847-24.74-9.655l-5.142.656c-15.678 1.999-30.734-7.927-34.691-23.702-7.768 7.837-11.118 19.439-8.058 30.63 4.159 15.212 18.884 25.04 34.528 23.045l5.142-.656c9.352-1.192 18.611 2.492 24.74 9.655 39.035 45.627 109.779 66.076 180.644 46.701 66.358-18.143 114.858-66.296 129.289-120.906.98-3.709 3.946-14.749-2.266-2.288z" fill="#5ab161"/><path d="m417.077 151.57c-4.05-14.813-18.304-24.916-34.26-23.078-10.215 1.176-20.139-3.453-26.07-11.853-36.931-52.307-112.471-77.034-188.15-56.343-58.397 15.967-102.956 55.176-122.644 101.573 23.588-30.901 58.586-58.635 102.661-67.416 87.845-17.5 101.246 6.058 117.985 20.677 14.012 12.237 36.865 2.014 43.31 3.082 18.311 3.035 19.684 22.428 26.855 32.584 5.931 8.4 15.855 13.029 26.07 11.853 17.25-1.987 32.564 9.998 35.041 26.846l1.203-.519c14.482-6.241 22.159-22.194 17.999-37.406z" fill="#87eda8"/><ellipse cx="304.216" cy="145.808" fill="#87eda8" rx="13.782" ry="11.496" transform="matrix(.438 -.899 .899 .438 39.814 355.329)"/><path d="m329.36 442.999c92.033 0 166.64-74.607 166.64-166.64h-333.28c0 92.033 74.607 166.64 166.64 166.64z" fill="#69da61"/><path d="m184.488 276.36c9.41 75.684 70.681 134.11 144.871 134.11s135.461-58.426 144.871-134.11z" fill="#a8ffa9"/><path d="m471.351 292.625c1.223-5.32 2.193-10.745 2.879-16.265h-289.742c.686 5.52 1.656 10.945 2.879 16.265z" fill="#d3ffd2"/><path d="m468.193 276.36c-17.037 65.316-73.656 113.289-140.883 113.289s-123.846-47.973-140.883-113.289h-1.939c9.41 75.684 70.681 134.11 144.871 134.11s135.461-58.426 144.871-134.11z" fill="#85eda2"/><g fill="#69da61"><path d="m350.557 347.166c0 17.927-9.491 27.277-21.198 27.277s-21.198-9.35-21.198-27.277 9.491-43.499 21.198-43.499 21.198 25.572 21.198 43.499z"/><path d="m267.618 335.401c-4.35 10.081-12.925 12.619-20.703 9.262s-11.816-11.336-7.466-21.417 16.861-21.741 24.64-18.385 7.879 20.458 3.529 30.54z"/><path d="m391.101 335.401c4.35 10.081 12.925 12.619 20.703 9.262 7.779-3.356 11.816-11.336 7.466-21.417s-16.861-21.741-24.64-18.385-7.879 20.458-3.529 30.54z"/></g></svg>