<svg id="Layer_1" enable-background="new 0 0 496 496" height="512" viewBox="0 0 496 496" width="512" xmlns="http://www.w3.org/2000/svg"><path d="m119.222 50.835c6.16 20.795 22.225 64.229 53.274 84.004 55.876 35.589 106.132-37.862 52.885-77.294-29.588-21.911-75.796-21.29-97.368-19.559-6.599.529-10.676 6.487-8.791 12.849z" fill="#69da61"/><path d="m376.778 50.835c-6.16 20.795-22.225 64.229-53.274 84.004-55.876 35.589-106.132-37.862-52.885-77.294 29.588-21.911 75.796-21.29 97.368-19.559 6.599.529 10.676 6.487 8.791 12.849z" fill="#69da61"/><path d="m225.381 57.545c-9.436-6.988-20.564-11.677-32.043-14.776-8.457 19.897-14.223 41.611-13.47 63.094.5 14.263 3.762 26.404 8.944 36.457 48.486 13.896 84.549-49.243 36.569-84.775z" fill="#5ab161"/><path d="m307.188 142.321c5.182-10.053 8.444-22.194 8.944-36.457.753-21.484-5.013-43.198-13.47-63.094-11.479 3.099-22.607 7.788-32.043 14.776-47.98 35.531-11.917 98.67 36.569 84.775z" fill="#5ab161"/><path d="m240.228 3.867c-13.625 16.854-40.271 54.7-38.98 91.552 2.324 66.319 91.178 66.319 93.502 0 1.292-36.851-25.355-74.698-38.98-91.552-4.167-5.156-11.373-5.156-15.542 0z" fill="#a8ffa9"/><path d="m248 134.986c-4.418 0-8-3.582-8-8v-53.802c0-4.418 3.582-8 8-8s8 3.582 8 8v53.803c0 4.417-3.582 7.999-8 7.999z" fill="#5ab161"/><path d="m356.709 278.997c14.195-5.23 24.291-18.562 24.291-34.196 0-13.71-7.762-25.653-19.247-31.909-6.787-3.698-10.246-11.352-8.731-18.772.491-2.407.739-4.899.717-7.451-.197-22.932-21.517-39.745-44.441-35.649.344-18.906-15.309-34.181-34.518-34.181-10.805 0-20.448 4.828-26.781 12.382-6.332-7.555-15.975-12.382-26.781-12.382-19.212 0-34.862 15.279-34.518 34.181-22.969-4.104-44.244 12.772-44.441 35.649-.022 2.552.226 5.044.717 7.451 1.514 7.419-1.944 15.074-8.731 18.772-11.483 6.257-19.245 18.199-19.245 31.909 0 15.633 10.096 28.966 24.291 34.195 1.64.604 2.018 2.604.722 3.739-7.641 6.693-12.448 16.383-12.448 27.169 0 15.574 10.019 28.865 24.13 34.136 1.647.616 2.261 2.572 1.04 3.826-16.929 17.38-12.397 45.666 9.241 57.212 3.796 2.026 5.673 6.181 4.295 10.251-7.392 21.837 7.627 44.561 30.631 47.65 7.606 1.016 13.956 5.886 17.345 12.583 6.127 12.107 18.936 20.438 33.753 20.438s27.626-8.331 33.753-20.438c3.39-6.697 9.74-11.567 17.345-12.583 23.002-3.089 38.024-25.808 30.631-47.65-1.311-3.874.305-8.122 4.295-10.251 21.665-11.56 26.152-39.852 9.241-57.212-.508-.521-.742-1.238-.606-1.944l.03-.157c.148-.769.709-1.39 1.462-1.668 14.191-5.232 24.283-18.562 24.283-34.193 0-10.786-4.807-20.477-12.448-27.169-1.297-1.137-.913-3.136.723-3.738z" fill="#ff5872"/><path d="m287.621 131.737c5.287-.944 10.879-.752 16.37.777-4.377-6.738-11.147-11.857-19.154-14.224 1.899 4.166 2.871 8.662 2.784 13.447z" fill="#db4968"/><path d="m127.203 256.553c1.231-1.078.867-2.972-.684-3.543-4.289-1.58-8.177-3.947-11.493-6.911.238 6.616 2.286 12.78 5.675 18.048 1.792-2.823 3.979-5.384 6.502-7.594z" fill="#db4968"/><path d="m356.709 278.997c14.195-5.23 24.291-18.562 24.291-34.196 0-13.71-7.762-25.653-19.247-31.909-6.787-3.698-10.246-11.353-8.731-18.772 3.81-18.667-7.639-36.944-26.261-42.229 2.966 6.607 3.681 13.889 2.293 20.688-1.435 7.031 1.842 14.285 8.274 17.789 10.883 5.929 18.238 17.246 18.238 30.238 0 14.814-9.567 27.449-23.018 32.404-1.554.572-1.912 2.468-.684 3.543 7.24 6.342 11.796 15.525 11.796 25.746 0 14.812-9.563 27.444-23.011 32.402-.713.263-1.245.852-1.385 1.581l-.029.149c-.129.669.093 1.348.574 1.842 16.042 16.468 11.748 43.273-8.757 54.215-3.727 1.988-5.333 5.983-4.07 9.714 6.995 20.666-7.195 42.228-29.027 45.154-7.207.963-13.225 5.578-16.437 11.924-5.807 11.472-17.945 19.367-31.985 19.367s-26.179-7.895-31.985-19.367c-3.212-6.346-9.229-10.961-16.437-11.924-5.955-.798-11.482-3.023-16.235-6.429-3.401 20.56 11.472 39.287 32.025 42.053 7.606 1.016 13.956 5.886 17.345 12.583 6.128 12.106 18.937 20.437 33.754 20.437s27.626-8.331 33.753-20.438c3.39-6.697 9.74-11.567 17.345-12.583 23.053-3.102 38.009-25.855 30.631-47.65-1.346-3.977.401-8.174 4.295-10.251 21.665-11.56 26.151-39.852 9.241-57.212-.508-.521-.742-1.238-.606-1.944l.03-.157c.148-.769.709-1.39 1.462-1.668 14.191-5.232 24.283-18.562 24.283-34.193 0-10.786-4.807-20.477-12.448-27.169-1.297-1.136-.913-3.136.723-3.738z" fill="#db4968"/><path d="m143.738 240.339c6.787-3.698 10.246-11.352 8.731-18.772-.491-2.407-.739-4.899-.717-7.451.197-22.932 21.516-39.745 44.441-35.649-.342-18.945 15.347-34.181 34.518-34.181 10.805 0 20.448 4.828 26.781 12.382 12.058-14.385 33.73-16.506 48.459-4.944 0 0 5.56-1.099 3.348-.704.347-18.903-15.309-34.181-34.518-34.181-10.805 0-20.448 4.828-26.781 12.382-6.332-7.554-15.975-12.382-26.781-12.382-19.21 0-34.865 15.279-34.518 34.181-22.97-4.104-44.244 12.772-44.441 35.649-.022 2.552.226 5.044.717 7.451 1.514 7.419-1.944 15.074-8.731 18.772-21.231 11.567-25.582 39.064-9.614 56.331 1.049-12.427 8.476-23.093 19.106-28.884z" fill="#ff7f90"/><g fill="#ad4968"><path d="m166.891 227.893c-3.12-3.128-3.114-8.193.014-11.313 3.128-3.121 8.193-3.114 11.314.015 7.942 7.961 20.79 7.963 28.734-.001 3.121-3.126 8.186-3.134 11.313-.014 3.128 3.121 3.134 8.187.014 11.314-14.201 14.234-37.19 14.234-51.389-.001z"/><path d="m251.828 257.772c-3.12-3.128-3.114-8.193.014-11.313 3.128-3.121 8.193-3.114 11.314.015 7.942 7.961 20.79 7.962 28.733 0 3.121-3.129 8.186-3.136 11.314-.015 3.128 3.12 3.134 8.186.014 11.313-14.197 14.234-37.189 14.237-51.389 0z"/><path d="m171.617 299.753c-3.121-3.128-3.114-8.193.014-11.314 3.126-3.12 8.193-3.114 11.313.014 7.942 7.961 20.791 7.962 28.734 0 3.12-3.129 8.186-3.133 11.313-.014 3.128 3.121 3.134 8.187.014 11.314-14.198 14.232-37.187 14.233-51.388 0z"/><path d="m254.574 198.421c-3.121-3.128-3.114-8.193.014-11.314 3.128-3.12 8.194-3.114 11.313.014 7.941 7.961 20.789 7.965 28.734.001 3.121-3.13 8.186-3.135 11.314-.015s3.134 8.186.014 11.313c-14.197 14.233-37.188 14.237-51.389.001z"/><path d="m254.574 333.572c-3.121-3.128-3.115-8.193.013-11.313 3.128-3.122 8.193-3.115 11.314.013 7.943 7.961 20.791 7.963 28.734 0 3.121-3.128 8.186-3.134 11.313-.014 3.128 3.121 3.134 8.187.014 11.314-14.198 14.232-37.188 14.233-51.388 0z"/><path d="m175.509 368.463c-3.121-3.128-3.114-8.193.014-11.314 3.127-3.12 8.194-3.114 11.313.014 7.942 7.961 20.79 7.962 28.734 0 3.121-3.128 8.186-3.135 11.314-.013 3.128 3.12 3.134 8.186.013 11.313-14.199 14.232-37.188 14.233-51.388 0z"/><path d="m256.405 406.286c-3.121-3.128-3.114-8.193.014-11.314 3.126-3.12 8.193-3.114 11.313.014 7.942 7.961 20.791 7.962 28.734 0 3.121-3.129 8.186-3.133 11.313-.014 3.128 3.121 3.134 8.187.014 11.314-14.198 14.232-37.187 14.233-51.388 0z"/></g></svg>