<svg id="Layer_1" enable-background="new 0 0 496 496" height="512" viewBox="0 0 496 496" width="512" xmlns="http://www.w3.org/2000/svg"><path d="m103.422 75.217c3.647 46.309-49.402 84.806-6.719 110.816 9.673 5.895 22.07 4.908 30.701-2.445 38.079-32.441-20.335-62.062-23.982-108.371z" fill="#a8ffa9"/><path d="m54.501 189.862c16.283 43.472-24.059 95.261 24.126 108.339 10.92 2.964 22.558-1.444 28.82-10.916 27.632-41.793-36.662-53.951-52.946-97.423z" fill="#69da61"/><path d="m55.8 312.445c35.105 30.197 24.582 95.125 73.069 83.23 10.989-2.696 19.073-12.198 20.019-23.532 4.177-50.011-57.984-29.501-93.088-59.698z" fill="#a8ffa9"/><path d="m315.963 75.217c-3.647 46.309 49.402 84.806 6.719 110.816-9.673 5.895-22.07 4.908-30.701-2.445-38.079-32.441 20.335-62.062 23.982-108.371z" fill="#a8ffa9"/><path d="m364.884 189.862c-16.283 43.472 24.059 95.261-24.126 108.339-10.92 2.964-22.558-1.444-28.82-10.916-27.631-41.793 36.663-53.951 52.946-97.423z" fill="#69da61"/><path d="m133.685 30.424c-2.244 15.47-4.846 48.758 9.429 71.152 25.691 40.301 80.527 7.622 57.705-34.389-12.681-23.344-42.969-37.031-57.542-42.479-4.457-1.667-8.905.984-9.592 5.716z" fill="#69da61"/><path d="m285.7 30.424c2.244 15.47 4.846 48.758-9.429 71.152-25.691 40.301-80.527 7.622-57.705-34.389 12.681-23.344 42.969-37.031 57.542-42.479 4.458-1.667 8.905.984 9.592 5.716z" fill="#69da61"/><path d="m336.219 257.939c0 96.23-56.648 147.338-126.527 147.338s-126.526-51.108-126.526-147.338 56.648-174.24 126.527-174.24 126.526 78.01 126.526 174.24z" fill="#ff5872"/><path d="m336.219 257.939c0-16.912-1.756-33.258-5.02-48.72-56.542 1.473-105.113 50.91-127.636 111.987-3.377 9.159 2.804 23.897 1.271 33.574-4.087 25.795-14.671 29.334-14.671 39.443 0 3.291.095 6.524.264 9.712 6.282.893 12.715 1.342 19.265 1.342 69.879 0 126.527-51.108 126.527-147.338z" fill="#db4968"/><path d="m110.417 275.248c0-96.23 56.648-174.24 126.527-174.24 13.591 0 26.678 2.963 38.948 8.425-19.259-16.316-41.929-25.733-66.2-25.733-69.879 0-126.527 78.01-126.527 174.24 0 70.455 30.368 116.717 74.059 136.448-28.555-24.453-46.807-64.526-46.807-119.14z" fill="#ff7f90"/><path d="m209.693 192.509c0 42.023-50.573 72.93-13.93 99.451 8.305 6.011 19.554 6.011 27.859 0 36.644-26.522-13.929-57.429-13.929-99.451z" fill="#a8ffa9"/><path d="m138.217 149.045c6.453 36.427-32.64 71.07 3.196 88.37 8.122 3.921 17.873 2.174 24.149-4.326 27.692-28.679-20.893-47.618-27.345-84.044z" fill="#a8ffa9"/><path d="m281.169 149.045c-6.453 36.427 32.64 71.07-3.196 88.37-8.122 3.921-17.873 2.174-24.149-4.326-27.692-28.679 20.892-47.618 27.345-84.044z" fill="#a8ffa9"/><path d="m137.133 273.601c9.882 34.118-23.909 71.236 12.078 84.055 8.156 2.905 17.289.23 22.618-6.625 23.514-30.245-24.814-43.312-34.696-77.43z" fill="#a8ffa9"/><path d="m202.26 3.719c-13.031 16.209-38.516 52.607-37.28 88.048 2.223 63.781 87.203 63.781 89.426 0 1.235-35.441-24.25-71.839-37.28-88.048-3.987-4.959-10.88-4.959-14.866 0z" fill="#a8ffa9"/><path d="m442 388.929c0 68.065-48.446 107.071-108.208 107.071s-108.208-39.006-108.208-107.071 48.446-139.415 108.208-139.415 108.208 71.349 108.208 139.415z" fill="#ff7f90"/><path d="m409.205 388.038c0 47.437-33.764 70.611-75.413 70.611s-75.413-23.174-75.413-70.611 33.764-101.173 75.413-101.173 75.413 53.736 75.413 101.173z" fill="#e6e9df"/><path d="m390.506 384.249c0 35.675-25.392 53.103-56.714 53.103s-56.714-17.428-56.714-53.103 25.392-76.086 56.714-76.086 56.714 40.411 56.714 76.086z" fill="#fff"/><g fill="#ad4968"><path d="m315.93 337.12c-6.168 0-10.235-6.797-6.65-12.44 2.32-3.515 7.261-4.741 11.1-2.21 1.819 1.226 3.011 3.109 3.4 5.09.974 5.068-2.897 9.56-7.85 9.56z"/><path d="m354.07 334.89c-5.694 0-9.571-5.824-7.39-11.06 1.747-4.193 6.498-5.978 10.45-4.33 1.938.808 3.486 2.305 4.33 4.33 2.186 5.249-1.713 11.06-7.39 11.06z"/><path d="m329.06 362.78c-4.39 0-8-3.565-8-8 0-5.129 4.711-8.829 9.56-7.841 4.431.873 7.174 5.255 6.28 9.4-.749 3.814-4.122 6.441-7.84 6.441z"/><path d="m368.8 375.68c-3.705 0-7.089-2.614-7.84-6.439-.841-3.891 1.543-8.394 6.28-9.41 4.303-.862 8.559 1.974 9.4 6.279.415 1.958.036 4.149-1.19 6.011-1.461 2.213-4.018 3.559-6.65 3.559z"/><path d="m331.15 399.21c-5.682 0-9.575-5.805-7.39-11.061.826-1.979 2.346-3.503 4.33-4.33 4.651-1.931 9.93.89 10.9 5.83.535 2.485-.261 5.292-2.18 7.21-1.49 1.491-3.56 2.351-5.66 2.351z"/><path d="m290.88 371.819c-4.317 0-8-3.516-8-8 0-1.978.779-4.088 2.35-5.659 3.131-3.135 8.224-3.086 11.31 0 3.204 3.208 3.029 8.357 0 11.31-1.516 1.516-3.605 2.349-5.66 2.349z"/><path d="m293.31 405.109c-4.384 0-8-3.537-8-8 0-5.192 4.795-8.811 9.56-7.84 4.202.828 7.146 4.915 6.28 9.41-.728 3.709-4.033 6.43-7.84 6.43z"/><path d="m320.15 433.81c-5.648 0-9.569-5.71-7.39-11.06.811-1.946 2.351-3.512 4.33-4.32 4.648-1.939 9.929.878 10.9 5.82 1.012 4.785-2.712 9.56-7.84 9.56z"/><path d="m357.3 430.59c-2.11 0-4.17-.86-5.66-2.35-3.491-3.496-3.058-9.43 1.21-12.311 6.156-3.917 13.617 1.334 12.29 8.22-.724 3.71-4.044 6.441-7.84 6.441z"/><path d="m375.21 403.109c-4.435 0-8-3.616-8-8 0-5.049 4.66-8.831 9.57-7.84 4.185.825 7.142 4.918 6.28 9.41-.88 4.065-4.32 6.43-7.85 6.43z"/></g><path d="m197.104 361.032c-.228 1.758-.53 3.666-1.826 4.875-1.647 1.536-4.456 1.284-6.186-.171-1.726-1.452-2.491-3.79-2.58-6.044-.162-4.099 2.529-7.619 6.831-7.889 5.912-.371 4.297 5.096 3.761 9.229z" fill="#db4968"/><path d="m202.481 3.472c-.072.085-.151.159-.221.247-13.031 16.209-38.516 52.607-37.28 88.048.731 20.983 10.421 35.06 23.172 42.237 25.949-24.685 33.308-88.291 14.329-130.532z" fill="#c9ffd2"/></svg>