<svg id="Layer_1" enable-background="new 0 0 492 492" height="512" viewBox="0 0 492 492" width="512" xmlns="http://www.w3.org/2000/svg"><path d="m146.183 27.148c-6.665.121-11.605 5.425-11.24 12.071 1.012 18.447 6.385 55.21 32.058 79.039 27.337 25.374 54.887 18.349 66.051 13.813 6.164-2.504 10.965-7.648 13.025-13.988 3.719-11.447 8.732-39.391-18.605-64.765-25.673-23.83-62.788-26.505-81.289-26.17z" fill="#69da61"/><path d="m134.943 39.219c1.012 18.447 6.385 55.21 32.058 79.039 8.751 8.123 17.524 12.926 25.775 15.552 11.867-11.521 8.631-40.074-8.216-66.554-13.417-21.089-31.697-34.935-46.407-36.754-2.163 2.189-3.399 5.273-3.21 8.717z" fill="#5ab161"/><path d="m295.813 2.366c21.723-10.729 38.439 17.774 16.799 30.772-66.612 40.007-46.213 118.609-46.213 118.609l-36.974-3.124s-16.122-105.504 66.388-146.257z" fill="#cd8e50"/><path d="m246 140.277c-121.496-48.077-172 40.864-172 129.126s98.008 222.597 172 222.597c77.86 0 172-134.335 172-222.597s-50.504-177.203-172-129.126z" fill="#ff7f90"/><path d="m116.811 251.617c6.804-10.599 3.277-24.701 3.454-37.294.527-37.373 52.102-82.202 89.007-84.96-95.034-18.046-135.272 61.262-135.272 140.04 0 71.799 64.856 174.083 128.882 209.743-45.503-41.581-121.634-172.128-86.071-227.529z" fill="#ff9db7"/><path d="m331.305 129.003c37.879 24.817 54.831 76.17 54.831 127.3 0 40.788-3.505 85.879-49.415 134.076-4.901 5.145-34.349 12.255-38.692 17.765-12.1 15.353.799 28.492-12.947 39.803-23.15 19.049-47.769 30.952-70.947 30.952-4.738 0-9.575-.559-14.478-1.613 15.758 9.32 31.531 14.714 46.343 14.714 77.86 0 172-134.336 172-222.597 0-63.724-26.334-127.789-86.695-140.4z" fill="#ff5872"/><path d="m286.645 327.964c-5.37 0-9.23-5.204-7.651-10.349 15.854-51.661 14.461-97.5-4.024-132.562-13.912-26.388-32.82-37.761-33.01-37.873-3.794-2.24-5.076-7.135-2.85-10.938 2.225-3.803 7.094-5.096 10.905-2.887.91.528 22.471 13.275 38.601 43.283 23.999 44.647 20.486 97.402 5.675 145.669-1.058 3.444-4.225 5.657-7.646 5.657z" fill="#db4968"/><path d="m274.21 354.81c-2.025 0-4.133-.822-5.66-2.35-2.611-2.611-3.17-6.79-.99-10.101 3.941-5.838 12.989-4.173 14.5 2.881.972 5.023-2.87 9.57-7.85 9.57z" fill="#db4968"/><ellipse cx="130.023" cy="278.978" fill="#ff9db7" rx="13.214" ry="9.939" transform="matrix(.163 -.987 .987 .163 -166.442 361.701)"/></svg>