<svg id="Layer_1" enable-background="new 0 0 496 496" height="512" viewBox="0 0 496 496" width="512" xmlns="http://www.w3.org/2000/svg"><path d="m343.97 437.184c-57.958-67.968-95.676-150.896-116.109-237.11-16.372-69.079-16.56-118.533-16.56-120.604 0-4.418 3.582-8 8-8 4.417 0 8 3.582 8.003 7.999 0 .492.217 50.009 16.233 117.367 14.726 61.936 46.216 152.108 112.608 229.968 2.867 3.361 2.465 8.411-.896 11.277-3.354 2.86-8.407 2.472-11.279-.897z" fill="#b97d50"/><path d="m180.386 216.901c-3.656-2.477-4.613-7.445-2.142-11.104.296-.438 29.648-44.524 34.395-101.675.366-4.403 4.227-7.682 8.635-7.311 4.403.366 7.676 4.231 7.311 8.635-5.106 61.475-35.785 107.393-37.088 109.317-2.472 3.647-7.44 4.623-11.111 2.138z" fill="#b97d50"/><path d="m338.978 13.758c-.499-8.482-7.496-14.496-15.922-13.685-23.39 2.252-69.829 11.013-98.78 44.952-30.828 36.14-20.471 70.86-14.127 84.841 3.474 7.658 10.226 13.549 18.451 15.858 14.739 4.139 50.511 9.065 81.339-27.074 28.95-33.938 30.424-81.346 29.039-104.892z" fill="#69da61"/><path d="m323.056.073c-21.372 2.057-61.979 9.562-90.913 36.73 23.535-12.075 48.455-16.293 63.649-17.756 8.426-.811 15.424 5.203 15.922 13.685 1.385 23.545-.089 70.953-29.04 104.893-1.588 1.862-3.189 3.608-4.8 5.257 10.581-4.442 21.607-11.972 32.064-24.231 28.951-33.939 30.425-81.347 29.04-104.893-.499-8.481-7.496-14.496-15.922-13.685z" fill="#5ab161"/><path d="m97.515 58.039c-6.64 2.935-9.364 10.37-6.198 16.918 8.787 18.178 29.666 52.987 65.475 66.183 38.13 14.052 62.826-4.662 72.122-13.95 5.139-5.134 7.785-12.35 7.183-19.605-1.089-13.114-7.828-43.414-45.958-57.466-35.809-13.196-74.193-.228-92.624 7.92z" fill="#a8ffa9"/><path d="m113.018 76.409c-3.165-6.548-.441-13.983 6.198-16.918 12.056-5.329 32.651-12.719 55.477-13.501-30.927-5.443-61.381 5.066-77.178 12.049-6.64 2.935-9.363 10.37-6.198 16.918 8.787 18.178 29.666 52.987 65.475 66.183 12.414 4.575 23.403 5.675 32.902 4.76-35.116-7.772-61.088-37.244-76.676-69.491z" fill="#85eda2"/><path d="m204.127 309.591c-3.576-2.595-4.371-7.598-1.776-11.174.367-.506 29.671-41.229 33.58-70.071.594-4.378 4.63-7.438 9.002-6.854 4.378.594 7.446 4.624 6.853 9.002-4.457 32.88-35.181 75.521-36.486 77.321-2.581 3.558-7.58 4.384-11.173 1.776z" fill="#b97d50"/><path d="m262.443 413.727c-5.879 0-9.838-6.237-7.138-11.603.199-.395 19.787-40.15 11.762-87.502-.738-4.356 2.195-8.486 6.551-9.225 4.358-.729 8.486 2.195 9.225 6.551 8.935 52.717-12.344 95.589-13.254 97.388-1.41 2.784-4.225 4.391-7.146 4.391z" fill="#b97d50"/><path d="m289.235 229.48c-7.983-1.259-20.243-7.077-37.48-17.788-12.202-7.582-22.203-14.728-22.623-15.028-3.592-2.571-4.42-7.568-1.848-11.161 2.571-3.591 7.568-4.42 11.161-1.849 14.981 10.721 42.694 28.352 53.282 30.021 4.365.688 7.345 4.784 6.656 9.148-.687 4.358-4.776 7.346-9.148 6.657z" fill="#b97d50"/><ellipse cx="320.537" cy="221.578" fill="#ff5872" rx="49.256" ry="49.427"/><path d="m290.479 210.852c1.68-3.151.547-8.471 2.842-11.167 1.41-1.657 6.072-.845 7.686-2.301 16.564-14.951 40.821-16.743 59.273-4.995-8.963-12.267-23.422-20.237-39.743-20.237-27.203 0-49.256 22.129-49.256 49.426 0 17.571 9.145 32.99 22.912 41.754-11.333-15.512-12.514-35.981-3.714-52.48z" fill="#ff7f90"/><ellipse cx="197.038" cy="338.761" fill="#ff5872" rx="49.256" ry="49.427"/><path d="m168.603 327.762c2.447-3.466 9.766-6.274 13.001-9.001 3.057-2.577 1.992-5.116 5.615-6.893 18.129-8.894 40.406-5.881 55.612 8.691-7.225-18.287-24.998-31.225-45.793-31.225-27.203 0-49.256 22.129-49.256 49.427 0 14.06 5.86 26.738 15.251 35.738-6.086-15.404-4.115-33.015 5.57-46.737z" fill="#ff7f90"/><ellipse cx="165.406" cy="221.578" fill="#ff5872" rx="49.256" ry="49.427"/><path d="m139.839 215.525c2.164-4.887 9.149-4.655 12.694-8.552 2.315-2.545.837-9.548 3.632-11.563 13.712-9.885 31.368-11.919 46.79-5.805-9.035-10.673-22.499-17.453-37.548-17.453-27.203 0-49.256 22.129-49.256 49.426 0 20.889 12.921 38.738 31.174 45.974-12.556-14.832-14.959-35.154-7.486-52.027z" fill="#ff7f90"/><path d="m327.736 330.49c-37.333 0-60.345-18.221-61.489-19.146-3.434-2.78-3.964-7.818-1.184-11.252 2.774-3.426 7.796-3.962 11.23-1.201.435.343 28.748 22.271 72.176 13.477 4.331-.875 8.552 1.923 9.429 6.253s-1.923 8.552-6.253 9.429c-8.494 1.718-16.488 2.44-23.909 2.44z" fill="#b97d50"/><ellipse cx="353.607" cy="327.769" fill="#ff5872" rx="35.94" ry="36.064"/><path d="m371.329 296.399c3.853 8.31 4.306 17.6 1.729 25.916-.927 2.991.443 8.005-1.183 10.606-2.064 3.301-7.322 4.054-10.308 6.522-11.638 9.618-27.802 10.788-40.555 3.518 5.714 12.324 18.157 20.872 32.596 20.872 19.849 0 35.94-16.146 35.94-36.064-.001-13.449-7.343-25.17-18.219-31.37z" fill="#db4968"/><ellipse cx="367.193" cy="427.129" fill="#ff5872" rx="38.807" ry="38.941"/><path d="m383.15 391.634c6.358 10.391 7.214 22.682 3.55 33.198-1.111 3.189-5.466 4.411-7.319 7.161-1.457 2.162-.283 5.946-2.133 7.769-11.505 11.339-28.664 14.278-43.148 7.71 6.825 11.156 19.091 18.598 33.093 18.598 21.433 0 38.807-17.435 38.807-38.941 0-15.797-9.379-29.387-22.85-35.495z" fill="#db4968"/><g fill="#ff7f90"><ellipse cx="145.644" cy="220.594" rx="3.964" ry="3.132" transform="matrix(.369 -.929 .929 .369 -113.139 274.497)"/><circle cx="161.979" cy="199.909" r="2.577"/><circle cx="297.783" cy="204.734" r="2.504"/><ellipse cx="174.808" cy="328.234" rx="4.05" ry="1.922" transform="matrix(.866 -.5 .5 .866 -140.697 131.379)"/></g><ellipse cx="373.608" cy="438.344" fill="#db4968" rx="2.174" ry="1.664" transform="matrix(.808 -.589 .589 .808 -186.514 304.21)"/><circle cx="365.299" cy="329.167" fill="#db4968" r="2.397"/><ellipse cx="256.732" cy="446.573" fill="#ff5872" rx="49.256" ry="49.427"/><path d="m284.62 405.837c10.429 16.742 9.922 38.225-1.409 54.467-2.59 3.712-2.714 10.253-6.198 13.122-4.042 3.328-11.582 2.82-16.548 4.731-14.717 5.664-31.837 4.026-45.524-5.428 8.704 13.971 24.161 23.271 41.79 23.271 27.204 0 49.256-22.129 49.256-49.427.001-16.906-8.464-31.824-21.367-40.736z" fill="#db4968"/><ellipse cx="270.823" cy="469.007" fill="#db4968" rx="4.273" ry="2.885" transform="matrix(.985 -.173 .173 .985 -77.005 53.882)"/></svg>