<svg id="Layer_1" enable-background="new 0 0 503.996 503.996" height="512" viewBox="0 0 503.996 503.996" width="512" xmlns="http://www.w3.org/2000/svg"><path d="m175.457 150.612c-5.469 0-9.367-5.407-7.559-10.622 10.593-30.56 11.838-61.231 3.699-91.161-6.111-22.478-15.526-36.098-15.621-36.232-2.528-3.614-1.659-8.602 1.95-11.138 3.606-2.536 8.584-1.684 11.129 1.922.441.624 10.878 15.574 17.785 40.532 6.338 22.902 10.818 59.071-3.825 101.317-1.146 3.307-4.245 5.382-7.558 5.382z" fill="#b97d50"/><path d="m385.06 307.458c0 85.548-83.513 132.77-186.531 132.77s-186.531-47.222-186.531-132.77 83.513-189.321 186.531-189.321 186.531 103.773 186.531 189.321z" fill="#69da61"/><path d="m385.06 307.458c0-34.268-13.41-71.455-36.096-103.73-6.202 1.885-12.881 3.891-19.591 3.852-15.338-.088-24.538-11.711-41.15-6.59-11.566 3.566-22.567 8.185-33.077 13.651-17.602 9.155-13.154 20.147-24.063 31.181-10.198 10.316-26.196 17.744-32.67 25.487-11.631 13.911-15.84 35.83-18.11 55.992-.021.186-.043.372-.065.558-.982 8.182-6.349 15.018-13.819 18.517-9.41 4.408-15.453 14.603-13.789 25.638 3.675 24.372 12.094 47.188 24.274 67.495 7.096.473 14.31.72 21.626.72 103.017-.001 186.53-47.223 186.53-132.771z" fill="#5ab161"/><path d="m40.916 321.126c0-100.652 115.106-225.667 241.412-179.389-25.197-14.709-53.66-23.6-83.799-23.6-103.019 0-186.531 103.773-186.531 189.321 0 56.621 36.59 96.445 91.199 116.909-38.217-22.46-62.281-57.327-62.281-103.241z" fill="#87eda8"/><path d="m336.724 503.996c78.593 0 143.68-57.757 155.042-133.098 1.869-12.391-7.803-23.525-20.348-23.525h-269.389c-12.545 0-22.216 11.135-20.348 23.525 11.362 75.34 76.45 133.098 155.043 133.098z" fill="#a8ffa9"/><path d="m471.418 347.372h-4.185c-6.009 36.86-19.052 78.666-51.897 92.863-7.156 3.093-20.461.404-23.731 2.301-13.709 7.951-8.51 19.701-17.506 23.545-52.835 22.576-115.872 14.82-162.203-23.927 28.642 37.579 73.896 61.841 124.828 61.841 78.593 0 143.68-57.757 155.042-133.098 1.869-12.39-7.803-23.525-20.348-23.525z" fill="#85eda2"/><path d="m396.541 280.28-67.168 67.093h111.757c7.586 0 13.476-6.6 12.628-14.13-1.912-16.979-7.228-32.93-15.251-47.154-8.647-15.33-29.511-18.251-41.966-5.809z" fill="#ff5872"/><path d="m453.757 333.242c-1.912-16.979-7.228-32.93-15.251-47.154-8.646-15.329-29.51-18.25-41.966-5.809l-1.966 1.963c6.392 1.85 12.158 6.084 15.778 12.504 8.023 14.224 13.339 30.174 15.251 47.154.216 1.916-.009 3.77-.582 5.472h16.107c7.587 0 13.477-6.6 12.629-14.13z" fill="#ff7f90"/><path d="m396.541 280.28c12.455-12.441 9.531-33.282-5.815-41.918-8.694-4.893-18.033-8.778-27.857-11.497-16.854-4.664-33.496 8.143-33.496 25.613v94.895z" fill="#ff7f90"/><path d="m390.725 238.361c-8.694-4.893-18.033-8.778-27.857-11.497-16.854-4.664-33.496 8.143-33.496 25.613v.638c5.945-3.652 13.344-5.003 20.787-2.943 9.824 2.718 19.163 6.603 27.857 11.496 8.974 5.05 13.692 14.274 13.579 23.552l4.946-4.94c12.455-12.441 9.531-33.282-5.816-41.919z" fill="#ff9db7"/><path d="m329.372 347.372v-94.895c0-17.469-16.642-30.277-33.496-25.613-9.824 2.719-19.163 6.604-27.857 11.497-15.346 8.636-18.27 29.476-5.815 41.918z" fill="#ff5872"/><path d="m276.495 261.063c8.694-4.893 18.033-8.778 27.857-11.496 9.339-2.585 18.607.201 25.02 6.166v-3.256c0-17.469-16.642-30.277-33.496-25.613-9.824 2.719-19.163 6.604-27.857 11.497-15.346 8.636-18.27 29.477-5.815 41.918l.893.894c.946-8.059 5.538-15.686 13.398-20.11z" fill="#ff7f90"/><path d="m329.372 347.372s-40.977-40.931-67.168-67.094c-12.455-12.441-33.319-9.521-41.965 5.808-8.023 14.225-13.34 30.176-15.252 47.156-.848 7.53 5.042 14.13 12.628 14.13z" fill="#ff7f90"/><path d="m227.934 345.949c1.912-16.98 7.229-32.931 15.252-47.156 5.129-9.092 14.556-13.818 23.977-13.563-1.699-1.697-3.357-3.352-4.958-4.952-12.455-12.441-33.318-9.521-41.965 5.808-8.023 14.224-13.34 30.176-15.252 47.156-.848 7.53 5.042 14.13 12.628 14.13h10.238c.001-.469.026-.944.08-1.423z" fill="#ff9db7"/><path d="m71.324 134.786c-3.138 5.189-1.439 11.563 3.865 14.505 14.726 8.165 45.698 21.852 76.532 13.643 32.833-8.741 40.768-33.355 42.68-44.148 1.057-5.966-.59-12.154-4.479-16.808-7.03-8.412-26.163-25.819-58.996-17.078-30.834 8.209-50.891 35.482-59.602 49.886z" fill="#69da61"/><path d="m166.65 140.079c-30.834 8.209-61.807-5.478-76.532-13.643-3.93-2.179-5.874-6.243-5.345-10.312-5.878 6.888-10.374 13.577-13.449 18.663-3.138 5.189-1.439 11.563 3.865 14.505 14.725 8.164 45.698 21.851 76.532 13.643 26.243-6.987 36.573-24.109 40.641-36.214-6.16 5.517-14.477 10.367-25.712 13.358z" fill="#5ab161"/><path d="m259.214 32.461c4.799 1.544 7.212 6.465 5.491 11.197-4.776 13.136-16.724 38.579-40.534 50.22-25.353 12.396-43.758 1.286-50.846-4.44-3.915-3.162-6.262-7.936-6.364-12.976-.183-9.101 2.313-30.431 27.666-42.826 23.81-11.64 51.266-5.463 64.587-1.175z" fill="#a8ffa9"/><g fill="#85eda2"><path d="m259.214 32.461c-3.614-1.163-8.273-2.463-13.612-3.511-.042.884-.218 1.785-.543 2.679-4.776 13.135-16.724 38.579-40.534 50.22-13.788 6.741-25.514 6.525-34.49 4.009.92 1.331 2.01 2.546 3.291 3.581 7.088 5.725 25.493 16.835 50.846 4.44 23.809-11.641 35.758-37.084 40.534-50.22 1.72-4.733-.693-9.654-5.492-11.198z"/><ellipse cx="366.354" cy="458.603" rx="6.801" ry="4.959" transform="matrix(.939 -.344 .344 .939 -135.358 153.944)"/><ellipse cx="413.929" cy="430.151" rx="4.472" ry="4.467"/></g><ellipse cx="162.522" cy="330.403" fill="#5ab161" rx="7.25" ry="7.242"/><ellipse cx="219.091" cy="241.011" fill="#5ab161" rx="7.702" ry="4.811" transform="matrix(.889 -.459 .459 .889 -86.127 127.303)"/></svg>