<svg id="Layer_1" enable-background="new 0 0 496 496" height="512" viewBox="0 0 496 496" width="512" xmlns="http://www.w3.org/2000/svg"><path d="m194.924 102.676c-11.951.507-23.912.507-35.863 0-47.882-2.033-174.026 6.301-157.595 153.015 16.446 146.859 140.289 117.706 175.526 119.621 35.237-1.915 159.08 27.238 175.526-119.621 16.431-146.715-109.713-155.048-157.594-153.015z" fill="#ffb750"/><path d="m24.989 268.229c-1.148-10.249-6.878-16.253-6.709-25.196.119-6.29 5.822-15.836 6.528-21.516 12.663-101.839 115.592-108.095 157.776-106.304 11.951.507 23.912.507 35.863 0 20.575-.874 55.599.179 87.553 13.291-36.704-24.993-85.261-26.925-111.077-25.829-11.951.507-23.912.507-35.863 0-47.882-2.033-174.026 6.301-157.595 153.015 7.61 67.955 38.216 98.221 72.398 111.32-23.917-17.092-43.074-46.991-48.874-98.781z" fill="#ffe070"/><path d="m317.71 137.684c-50.627 9.005-90.038 42.361-118.945 82.772-4.77 6.668-12.045 5.488-13.669 12.111-1.743 7.109 1.574 12.545.258 16.115-6.173 16.746-10.21 34.694-10.572 53.421-.154 7.942 8.616 9.862 7.896 18.976-.675 8.552-5.686 13.39-5.428 18.015 2.201 12.61 5.758 24.753 10.512 36.275 44.719 1.709 149.707 14.715 164.757-119.678 6.591-58.854-9.77-95.426-34.809-118.007z" fill="#ea8e50"/><path d="m176.992 92.74c-48.505-28.18-103.332-16.075-113.056 23.279 31.178 18.571 72.413 12.867 72.413 12.867 4.052 40.964 40.643 55.847 40.643 55.847s36.591-14.883 40.643-55.847c0 0 41.235 5.704 72.413-12.867-9.724-39.354-64.551-51.459-113.056-23.279z" fill="#69da61"/><path d="m197.599 104.08c34.494-12.009 68.555-5.162 84.537 16.061 2.686-1.22 5.334-2.586 7.912-4.122-9.724-39.354-64.551-51.459-113.056-23.279-48.505-28.18-103.332-16.074-113.056 23.279 2.578 1.536 5.225 2.902 7.912 4.122 15.982-21.224 50.043-28.07 84.537-16.061 13.318 4.637 27.896 4.637 41.214 0z" fill="#87eda8"/><path d="m172.998 115.308c-3.799 0-7.168-2.715-7.864-6.584-.251-1.394-5.956-34.474 10.024-65.396 2.028-3.925 6.853-5.461 10.78-3.435 3.925 2.029 5.463 6.855 3.435 10.78-13.514 26.147-8.545 54.93-8.493 55.217.883 4.906-2.886 9.418-7.882 9.418z" fill="#b97d50"/><ellipse cx="348.258" cy="308.958" fill="#ffe070" rx="147.742" ry="148.043"/><ellipse cx="348.258" cy="308.958" fill="#fff2b9" rx="114.979" ry="115.213"/><ellipse cx="348.258" cy="308.958" fill="#ffce66" rx="56.842" ry="56.957"/><g fill="#b97d50"><path d="m348.258 276.38c-4.418 0-8-3.582-8-8v-27.868c0-4.418 3.582-8 8-8s8 3.582 8 8v27.868c0 4.418-3.582 8-8 8z"/><path d="m348.258 385.404c-4.418 0-8-3.582-8-8v-27.869c0-4.418 3.582-8 8-8s8 3.582 8 8v27.869c0 4.418-3.582 8-8 8z"/><path d="m371.24 285.928c-3.127-3.121-3.132-8.187-.012-11.314l19.667-19.706c3.119-3.128 8.185-3.133 11.313-.012 3.127 3.121 3.132 8.187.012 11.314l-19.667 19.706c-3.097 3.106-8.163 3.154-11.313.012z"/><path d="m294.306 363.018c-3.127-3.121-3.132-8.187-.011-11.313l19.667-19.706c3.12-3.128 8.186-3.133 11.313-.011 3.127 3.121 3.132 8.187.011 11.313l-19.667 19.706c-3.112 3.118-8.176 3.142-11.313.011z"/><path d="m416.564 316.958h-27.812c-4.418 0-8-3.582-8-8s3.582-8 8-8h27.812c4.418 0 8 3.582 8 8s-3.582 8-8 8z"/><path d="m307.763 316.958h-27.812c-4.418 0-8-3.582-8-8s3.582-8 8-8h27.812c4.418 0 8 3.582 8 8s-3.582 8-8 8z"/><path d="m390.896 363.007-19.667-19.706c-3.12-3.128-3.115-8.193.012-11.314 3.126-3.119 8.191-3.115 11.313.012l19.667 19.706c3.12 3.128 3.115 8.193-.012 11.314-3.119 3.111-8.183 3.125-11.313-.012z"/><path d="m313.962 285.917-19.667-19.706c-3.121-3.127-3.116-8.192.011-11.313 3.126-3.121 8.191-3.116 11.313.011l19.667 19.706c3.121 3.127 3.116 8.192-.011 11.313-3.117 3.111-8.182 3.125-11.313-.011z"/></g><ellipse cx="170.17" cy="321.51" fill="#ea8e50" rx="4.612" ry="5.966"/><ellipse cx="191.369" cy="214.96" fill="#ea8e50" rx="5.891" ry="3.459" transform="matrix(.65 -.76 .76 .65 -96.374 220.776)"/><ellipse cx="29.094" cy="243.725" fill="#ffe070" rx="4.128" ry="6.269"/></svg>