<?xml version="1.0" encoding="iso-8859-1"?>
<!-- Generator: Adobe Illustrator 19.0.0, SVG Export Plug-In . SVG Version: 6.00 Build 0)  -->
<svg version="1.1" id="Capa_1" xmlns="http://www.w3.org/2000/svg" xmlns:xlink="http://www.w3.org/1999/xlink" x="0px" y="0px"
	 viewBox="0 0 384.033 384.033" style="enable-background:new 0 0 384.033 384.033;" xml:space="preserve">
<path style="fill:#F26E64;" d="M368.017,223.28c0,127.92-127.36,127.92-127.36,127.92s-19.28,17.68-48.64,16.8
	c-29.36,0.88-48.64-16.8-48.64-16.8s-127.36,0-127.36-127.92c0-68.8,63.2-108.16,100.64-125.68h0.08c-1.84,4.16-2.8,8.64-2.88,13.44
	v32.48l0.8,0.8l33.2,0.48c0,0,10.4-0.8,18.96,7.68l23.04,23.04h1.12l23.84-23.04c8.56-8.56,21.44-7.68,21.44-7.68l32.64,0.08
	l0.8-0.8l0.48-33.12c0-4.24-0.8-8.32-2.24-12.08C305.617,116.96,368.017,156.08,368.017,223.28z"/>
<path style="fill:#9DC85C;" d="M270.177,110.96l-0.48,33.12l-0.8,0.8l-32.64-0.08c0,0-12.88-0.88-21.44,7.68l-23.84,23.04h-1.12
	l-23.04-23.04c-8.56-8.48-18.96-7.68-18.96-7.68l-33.2-0.48l-0.8-0.8v-32.48c0.08-4.8,1.04-9.28,2.88-13.44
	c5.2-12,17.12-20.32,31.04-20.32c10,0,36.8,12.48,42.96,19.36c3.12-3.52,12-8.32,21.28-12.32c9.36-3.92,19.2-7.04,24.24-7.04h0.08
	c14.48-0.08,26.72,8.96,31.6,21.6C269.377,102.64,270.177,106.72,270.177,110.96z"/>
<g>
	<path style="fill:#603916;" d="M279.937,86.992c-8.672-15.616-25.328-25.712-43.424-25.712c-8.688,0-20.632,4.16-29.784,7.936V16
		c0-8.832-7.168-16-16-16s-16,7.168-16,16v52.672c-9.864-4.296-20.04-7.4-26.96-7.4c-17.696,0-33.816,9.352-42.688,24.16
		C63.721,105.704,0.017,148.936,0.017,223.28c0,109.664,87,141.6,137.72,143.8c8.816,6.296,28.312,17.648,54.28,16.92
		c0.704,0.016,1.4,0.024,2.104,0.024c24.92,0,43.6-10.824,52.176-16.96c50.712-2.192,137.72-34.128,137.72-143.784
		C384.017,154.232,328.609,111.368,279.937,86.992z M147.657,93.272c6,0.352,26.76,9.76,31.168,14.04
		c0.096,0.112,0.224,0.192,0.32,0.296c0.368,0.384,0.768,0.728,1.168,1.072c0.456,0.408,0.912,0.808,1.408,1.16
		c0.112,0.08,0.232,0.136,0.344,0.208c2.528,1.688,5.448,2.712,8.552,2.712c0.016,0,0.024,0,0.04,0
		c4.024-0.008,7.728-1.512,10.632-4.184c0.336-0.296,0.672-0.576,0.984-0.896c0.064-0.064,0.136-0.112,0.192-0.176
		c0.864-0.8,5.648-4.088,15.736-8.432c10.024-4.2,16.56-5.72,18.224-5.8c7.8-0.024,13.904,4.424,16.568,11.312
		c0.768,2.024,1.168,4.128,1.184,6.256l-0.264,18l-17.264-0.04c-0.504-0.016-1.2-0.032-2.072-0.016
		c-4.328,0.072-12.792,0.824-21.16,5.128c-3.344,1.72-6.672,4.016-9.712,7.056l-13.104,12.656l-12.52-12.52
		c-1.456-1.448-2.952-2.712-4.464-3.84c-0.416-0.312-0.832-0.536-1.248-0.832c-1.104-0.768-2.208-1.52-3.312-2.144
		c-0.416-0.232-0.824-0.408-1.24-0.624c-1.112-0.576-2.208-1.128-3.288-1.576c-0.352-0.144-0.688-0.248-1.032-0.384
		c-1.136-0.432-2.248-0.84-3.328-1.152c-0.256-0.072-0.496-0.128-0.744-0.2c-1.144-0.312-2.232-0.584-3.272-0.784
		c-0.168-0.032-0.32-0.056-0.48-0.08c-1.08-0.192-2.088-0.352-3.016-0.448c-0.12-0.016-0.216-0.024-0.328-0.032
		c-0.912-0.088-1.736-0.16-2.456-0.184c-0.16-0.008-0.272-0.008-0.416-0.016c-0.32-0.008-0.704-0.032-0.976-0.032
		c-0.28,0-0.528,0-0.752,0.008l-17.848-0.256v-17.224c0.048-2.672,0.544-5.04,1.56-7.344
		C134.233,97.472,140.657,93.28,147.657,93.272z M240.657,335.2c-3.904,0-7.792,1.528-10.712,4.12
		c-0.144,0.136-15.232,13.432-37.448,12.688c-0.32-0.008-0.64-0.008-0.96,0c-22.136,0.608-37.296-12.552-37.344-12.6
		c-2.952-2.712-6.816-4.208-10.816-4.208c-4.544,0-111.36-1.272-111.36-111.92c0-46.16,34.448-77.984,65.84-97.4v17.64
		c0,4.24,1.688,8.312,4.688,11.312l0.8,0.8c2.944,2.944,6.92,4.624,11.08,4.688l33.2,0.48c0.456,0,0.976-0.008,1.464-0.048
		c0.064,0,3.584,0.232,6.416,3.04l23.04,23.04c3,3,7.072,4.688,11.312,4.688h1.12c4.152,0,8.136-1.616,11.12-4.496l24.032-23.232
		c2.632-2.632,7.68-3.016,9.032-3.032c0.352,0.024,0.696,0.04,1.048,0.04l32.64,0.08c0.008,0,0.024,0,0.04,0
		c4.24,0,8.312-1.68,11.312-4.688l0.8-0.8c2.944-2.944,4.624-6.92,4.688-11.08l0.256-17.472c34.104,20.976,66.072,52.4,66.072,96.44
		C352.017,333.32,245.161,335.176,240.657,335.2z"/>
	<path style="fill:#603916;" d="M322.241,236.208c-0.008-35.624-22.344-52.152-35.544-56.304
		c-8.424-2.632-17.408,2.04-20.064,10.472c-2.648,8.432,2.04,17.416,10.472,20.064c0.136,0.04,13.136,4.712,13.144,25.784
		c0,19.712-11.08,24.984-13.456,25.888c-8.232,2.776-12.768,11.632-10.16,19.96c2.152,6.832,8.456,11.208,15.264,11.208
		c1.584,0,3.2-0.24,4.8-0.736c13.2-4.144,35.536-20.672,35.544-56.304v-0.008c0,0,0,0,0-0.008S322.241,236.224,322.241,236.208
		C322.241,236.216,322.241,236.216,322.241,236.208z"/>
</g>
<g>
</g>
<g>
</g>
<g>
</g>
<g>
</g>
<g>
</g>
<g>
</g>
<g>
</g>
<g>
</g>
<g>
</g>
<g>
</g>
<g>
</g>
<g>
</g>
<g>
</g>
<g>
</g>
<g>
</g>
</svg>
