<?xml version="1.0" encoding="iso-8859-1"?>
<!-- Generator: Adobe Illustrator 19.0.0, SVG Export Plug-In . SVG Version: 6.00 Build 0)  -->
<svg version="1.1" id="Capa_1" xmlns="http://www.w3.org/2000/svg" xmlns:xlink="http://www.w3.org/1999/xlink" x="0px" y="0px"
	 viewBox="0 0 384.145 384.145" style="enable-background:new 0 0 384.145 384.145;" xml:space="preserve">
<path style="fill:#80764C;" d="M258.153,52.553c5.84,17.52,1.84,37.52-12.08,51.44l-142.08,142.08
	c-13.92,13.92-33.92,17.92-51.44,12.08c0,0-16.8,11.92-30.24-1.44c-13.36-13.36-1.2-29.44-1.2-29.44
	c-6.16-17.68-2.24-38.08,11.92-52.24c19.6-19.6,51.36-19.6,70.96,0c-19.6-19.6-19.6-51.44,0-71.04s51.44-19.6,71.04,0
	c-19.6-19.6-19.6-51.44,0-71.04c14.16-14.08,34.56-18,52.24-11.84c0,0,16.08-12.16,29.44,1.2
	C270.073,35.753,258.153,52.553,258.153,52.553z"/>
<path style="fill:#FFEB97;" d="M363.033,156.873c6.16,17.68,2.24,38.08-11.84,52.24c-19.6,19.6-51.44,19.6-71.04,0
	c19.6,19.6,19.6,51.44,0,71.04s-51.44,19.6-71.04,0c19.6,19.6,19.6,51.44,0,71.04c-14.16,14.08-34.56,18-52.24,11.84
	c0,0-16,12.16-29.44-1.2c-13.36-13.44-1.44-30.24-1.44-30.24c-5.84-17.52-1.84-37.52,12.08-51.44l142.08-142.08
	c13.92-13.92,33.92-17.92,51.44-12.08c0,0,16.8-11.92,30.24,1.44C375.193,140.793,363.033,156.873,363.033,156.873z"/>
<g>
	<path style="fill:#603916;" d="M11.033,268.065c8.232,8.176,17.44,11,25.952,11c6.504,0,12.6-1.648,17.528-3.8
		c21.944,4.76,44.688-1.768,60.8-17.872l142.08-142.08c16.112-16.112,22.656-38.864,17.872-60.8
		c4.968-11.384,7.224-28.968-7.232-43.512c-14.464-14.472-31.592-12.192-42.816-7.096c-22.096-5.04-45.104,1.432-61.496,17.736
		c-14.184,14.184-20.576,33.248-19.184,51.84c-19.168-1.44-38.168,5.504-51.856,19.2c-12.504,12.504-19.392,29.136-19.392,46.832
		c0,1.672,0.064,3.344,0.184,5c-19.12-1.392-38.08,5.52-51.76,19.208C5.369,180.065-1.143,203.065,3.889,225.217
		C-1.191,236.425-3.463,253.569,11.033,268.065z M33.873,236.921c3.224-4.264,4.104-9.864,2.344-14.912
		c-4.392-12.592-1.272-26.256,8.128-35.664c6.456-6.456,15.032-10.016,24.168-10.016c9.128,0,17.704,3.56,24.168,10.016
		c6.24,6.248,16.384,6.248,22.624,0c3.128-3.12,4.688-7.216,4.688-11.312s-1.56-8.192-4.688-11.312
		c-6.456-6.464-10.016-15.056-10.016-24.208s3.56-17.752,10.016-24.208c6.456-6.456,15.048-10.016,24.2-10.016
		s17.744,3.56,24.208,10.016c6.24,6.248,16.384,6.248,22.624,0c3.128-3.12,4.688-7.216,4.688-11.312s-1.56-8.192-4.688-11.312
		c-6.456-6.464-10.016-15.056-10.016-24.208s3.56-17.744,9.984-24.168c9.424-9.376,23.104-12.456,35.688-8.08
		c5.064,1.768,10.648,0.88,14.912-2.344c0.824-0.624,5.128-3.592,8.448-0.288c3.304,3.328,0.848,8-0.384,9.88
		c-2.848,4.136-3.6,9.376-2.008,14.144c4.144,12.416,1,25.856-8.208,35.064l-142.08,142.08c-9.208,9.208-22.64,12.352-35.064,8.208
		c-4.84-1.624-10.168-0.824-14.32,2.136c-0.24,0.168-5.864,4.064-9.672,0.296C31.409,243.193,31.553,240.257,33.873,236.921z"/>
	<path style="fill:#603916;" d="M373.113,116.081c-14.52-14.424-32.096-12.168-43.48-7.2c-21.952-4.784-44.688,1.768-60.8,17.872
		l-142.08,142.08c-16.112,16.112-22.656,38.864-17.872,60.8c-4.968,11.392-7.216,28.976,7.272,43.544
		c8.192,8.144,17.2,10.968,25.512,10.968c6.408,0,12.4-1.68,17.28-3.904c22.08,5.008,45.088-1.448,61.48-17.744
		c14.184-14.184,20.576-33.248,19.184-51.84c19.128,1.44,38.168-5.512,51.856-19.2c12.504-12.504,19.392-29.136,19.392-46.832
		c0-1.688-0.064-3.36-0.184-5.024c18.672,1.424,37.672-5.008,51.872-19.208c16.264-16.36,22.736-39.352,17.704-61.464
		C385.337,147.721,387.609,130.577,373.113,116.081z M350.129,147.409c-3.112,4.24-3.944,9.744-2.208,14.728
		c4.384,12.592,1.296,26.272-8.04,35.664c-6.464,6.456-15.056,10.016-24.208,10.016c-9.16,0-17.752-3.56-24.208-10.016
		c-6.24-6.248-16.384-6.248-22.624,0c-3.128,3.12-4.688,7.216-4.688,11.312s1.56,8.192,4.688,11.312
		c6.456,6.464,10.016,15.056,10.016,24.208s-3.56,17.752-10.016,24.208s-15.048,10.016-24.2,10.016s-17.744-3.56-24.208-10.016
		c-6.24-6.248-16.384-6.248-22.624,0c-3.128,3.12-4.688,7.216-4.688,11.312s1.56,8.192,4.688,11.312
		c6.456,6.464,10.016,15.056,10.016,24.208s-3.56,17.744-9.984,24.168c-9.424,9.368-23.112,12.456-35.688,8.08
		c-4.864-1.688-10.512-0.744-14.72,2.2c-3.52,2.48-6.448,2.592-8.64,0.432c-3.32-3.344-0.824-8.048,0.264-9.704
		c2.952-4.16,3.744-9.48,2.136-14.32c-4.144-12.416-1-25.856,8.208-35.064l142.08-142.08c6.528-6.528,15.176-10.008,24.088-10.008
		c3.664,0,7.36,0.592,10.984,1.8c4.832,1.608,10.168,0.824,14.32-2.136c0.248-0.168,5.864-4.072,9.672-0.296
		C352.729,140.953,352.593,143.865,350.129,147.409z"/>
	<path style="fill:#603916;" d="M136.369,158.681c4.096,0,8.192-1.56,11.312-4.688l6.32-6.32c6.248-6.248,6.248-16.376,0-22.624
		c-6.24-6.248-16.384-6.248-22.624,0l-6.32,6.32c-6.248,6.248-6.248,16.376,0,22.624
		C128.177,157.121,132.273,158.681,136.369,158.681z"/>
	<path style="fill:#603916;" d="M166.177,300.457l-6.312,6.304c-6.248,6.24-6.256,16.376-0.008,22.632
		c3.128,3.128,7.224,4.688,11.32,4.688c4.088,0,8.184-1.56,11.312-4.68l6.312-6.304c6.248-6.24,6.256-16.376,0.008-22.632
		C182.569,294.233,172.433,294.217,166.177,300.457z"/>
	<path style="fill:#603916;" d="M306.761,159.865l-6.312,6.32c-6.248,6.256-6.24,16.384,0.008,22.632
		c3.128,3.12,7.216,4.68,11.312,4.68s8.192-1.568,11.32-4.688l6.312-6.32c6.248-6.256,6.24-16.384-0.008-22.632
		C323.137,153.601,313.009,153.617,306.761,159.865z"/>
</g>
<g>
</g>
<g>
</g>
<g>
</g>
<g>
</g>
<g>
</g>
<g>
</g>
<g>
</g>
<g>
</g>
<g>
</g>
<g>
</g>
<g>
</g>
<g>
</g>
<g>
</g>
<g>
</g>
<g>
</g>
</svg>
