<?xml version="1.0" encoding="iso-8859-1"?>
<!-- Generator: Adobe Illustrator 19.0.0, SVG Export Plug-In . SVG Version: 6.00 Build 0)  -->
<svg version="1.1" id="Capa_1" xmlns="http://www.w3.org/2000/svg" xmlns:xlink="http://www.w3.org/1999/xlink" x="0px" y="0px"
	 viewBox="0 0 383.977 383.977" style="enable-background:new 0 0 383.977 383.977;" xml:space="preserve">
<path style="fill:#9DC85C;" d="M213.348,81.497c-1.52,1.52-4.4,4-6.72,5.92c-4.48-2.16-9.44-3.28-14.64-3.28
	c-8.56,0-16.4,3.12-22.56,8.24c-5.28-2.4-8.4-5.12-8.4-5.12s-21.52-25.6,5.76-53.36s61.36-14.96,61.36-14.96
	S240.628,53.736,213.348,81.497z"/>
<g>
	<path style="fill:#F26E64;" d="M227.668,120.536c0,20.08-16,36.32-35.68,36.32s-35.68-16.24-35.68-36.32
		c0-11.36,5.12-21.44,13.12-28.16c6.16-5.12,14-8.24,22.56-8.24c5.2,0,10.16,1.12,14.64,3.28
		C219.028,93.096,227.668,105.816,227.668,120.536z"/>
	<path style="fill:#F26E64;" d="M191.988,193.257c0,9.28-3.36,17.76-8.96,24.16c-6.96,1.84-13.12,5.76-17.68,11.04
		c-2.88,0.8-5.92,1.2-9.04,1.2c-7.92,0-15.12-2.64-21.04-7.04c-8.88-6.64-14.64-17.36-14.64-29.36c0-0.72,0-1.52,0.08-2.24
		c0.4-7.52,3.12-14.4,7.36-20c5.04-6.72,12.4-11.52,20.8-13.36c2.4-0.56,4.88-0.8,7.44-0.8
		C175.988,156.857,191.988,173.176,191.988,193.257z"/>
	<path style="fill:#F26E64;" d="M227.668,252.617c0,20.08-16,36.4-35.68,36.4s-35.68-16.32-35.68-36.4c0-9.28,3.36-17.68,9.04-24.16
		c4.56-5.28,10.72-9.2,17.68-11.04c2.88-0.8,5.84-1.2,8.96-1.2s6.08,0.4,8.96,1.2c6.96,1.84,13.12,5.76,17.68,11.04
		C224.308,234.936,227.668,243.336,227.668,252.617z"/>
	<path style="fill:#F26E64;" d="M263.348,193.257c0,12-5.76,22.72-14.64,29.36c-5.92,4.4-13.12,7.04-21.04,7.04
		c-3.12,0-6.16-0.4-9.04-1.2c-4.56-5.28-10.72-9.2-17.68-11.04c-5.6-6.4-8.96-14.88-8.96-24.16c0-20.08,16-36.4,35.68-36.4
		c2.48,0,4.96,0.24,7.36,0.72v0.08c8.48,1.76,15.84,6.72,20.88,13.44c4.24,5.6,6.96,12.4,7.36,19.92
		C263.348,191.736,263.348,192.536,263.348,193.257z"/>
	<path style="fill:#F26E64;" d="M299.028,135.497c0,20.08-16,36.4-35.68,36.4c-2.56,0-5.04-0.32-7.44-0.8
		c-5.04-6.72-12.4-11.68-20.88-13.44v-0.08c-4.64-6.08-7.36-13.76-7.36-22.08c0-20.08,16-36.4,35.68-36.4
		S299.028,115.417,299.028,135.497z"/>
	<path style="fill:#F26E64;" d="M156.308,135.497c0,8.32-2.72,16.08-7.44,22.16c-8.4,1.84-15.76,6.64-20.8,13.36
		c-2.32,0.48-4.96,0.88-7.44,0.88c-19.68,0-35.68-16.32-35.68-36.4s16-36.4,35.68-36.4S156.308,115.417,156.308,135.497z"/>
	<path style="fill:#F26E64;" d="M135.268,222.617c-1.12,19.04-16.64,34.08-35.6,34.08c-19.68,0-35.68-16.24-35.68-36.32
		c0-20.08,16-36.4,35.68-36.4c7.84,0,15.2,2.64,21.04,7.04c-0.08,0.72-0.08,1.52-0.08,2.24
		C120.628,205.257,126.388,215.977,135.268,222.617z"/>
	<path style="fill:#F26E64;" d="M319.988,220.376c0,20.08-16,36.32-35.68,36.32c-18.96,0-34.48-15.04-35.6-34.08
		c8.88-6.64,14.64-17.36,14.64-29.36c0-0.72,0-1.52-0.08-2.24c5.84-4.4,13.2-7.04,21.04-7.04
		C303.988,183.977,319.988,200.297,319.988,220.376z"/>
	<ellipse style="fill:#F26E64;" cx="254.964" cy="295.216" rx="35.664" ry="36.384"/>
	<ellipse style="fill:#F26E64;" cx="129.028" cy="295.216" rx="35.664" ry="36.384"/>
	<ellipse style="fill:#F26E64;" cx="191.988" cy="331.577" rx="35.672" ry="36.376"/>
</g>
<path style="fill:#603916;" d="M335.988,220.376c0-22.856-14.528-42.28-34.688-49.432c8.496-9.344,13.728-21.768,13.728-35.448
	c0-28.888-23.176-52.4-51.68-52.4c-10.44,0-20.152,3.176-28.288,8.6c-1.312-2.024-2.76-3.944-4.336-5.768
	c26.096-33.104,13.088-70.704,12.48-72.392c-1.584-4.424-5.04-7.92-9.44-9.576c-1.8-0.672-44.216-16.048-78.4,18.72
	c-23.928,24.36-20.472,49.896-12.632,65.52c-6.712-3.24-14.192-5.112-22.112-5.112c-28.504,0-51.68,23.504-51.68,52.4
	c0,13.68,5.232,26.104,13.728,35.448c-20.152,7.152-34.68,26.584-34.68,49.44c0,23.2,15.008,42.904,35.704,49.736
	c-4.04,7.464-6.344,16.016-6.344,25.112c0,28.88,23.176,52.384,51.672,52.384c4.592,0,9.032-0.672,13.272-1.816
	c6.12,21.992,26.056,38.184,49.696,38.184s43.576-16.192,49.696-38.192c4.248,1.144,8.68,1.816,13.28,1.816
	c28.488,0,51.664-23.504,51.664-52.384c0-9.096-2.304-17.648-6.344-25.112C320.98,263.272,335.988,243.577,335.988,220.376z
	 M243.156,180.753c2.528,3.352,3.928,7.088,4.184,11.744l0.008,0.768c0,6.504-3.064,12.688-8.208,16.536
	c-3.792,2.808-8.176,4.128-12.656,3.832c-0.168-0.152-0.376-0.264-0.552-0.416c-4.328-3.848-9.232-6.896-14.536-9.064
	c-0.208-0.088-0.384-0.216-0.592-0.296c-1.832-3.152-2.816-6.808-2.816-10.6c0-11.248,8.832-20.4,19.68-20.4
	c1.04,0,2.064,0.072,3.064,0.216c0.344,0.096,0.696,0.176,1.048,0.248C236.204,174.241,240.236,176.857,243.156,180.753z
	 M172.308,252.617c0-5.12,1.752-9.832,5.152-13.696c2.504-2.904,5.936-5.048,9.848-6.08c1.504-0.416,3.032-0.624,4.68-0.624
	c1.648,0,3.176,0.2,4.872,0.672c3.72,0.984,7.152,3.128,9.736,6.12c3.32,3.784,5.072,8.496,5.072,13.616
	c0,11.248-8.832,20.4-19.68,20.4S172.308,263.865,172.308,252.617z M152.5,173.241c1.104-0.256,2.352-0.384,3.808-0.384
	c10.848,0,19.68,9.152,19.68,20.4c0,3.792-0.984,7.448-2.816,10.584c-0.224,0.088-0.424,0.232-0.64,0.328
	c-5.336,2.192-10.216,5.24-14.496,9.048c-0.168,0.152-0.376,0.256-0.544,0.408c-4.448,0.304-8.888-1.024-12.648-3.824
	c-5.152-3.848-8.216-10.032-8.232-17.064c0.032-0.288,0.056-0.584,0.072-0.872c0.208-4.016,1.648-7.896,4.176-11.248
	C143.66,176.889,147.716,174.288,152.5,173.241z M199.964,101.969c7.112,3.256,11.704,10.544,11.704,18.568
	c0,11.2-8.832,20.32-19.68,20.32s-19.68-9.12-19.68-20.32c0-6.152,2.704-11.952,7.336-15.848c2.504-2.08,6.672-4.552,12.344-4.552
	C194.764,100.137,197.348,100.704,199.964,101.969z M263.348,115.096c10.848,0,19.68,9.152,19.68,20.4
	c0,11.072-8.552,20.12-19.168,20.392c-0.224-0.224-0.472-0.408-0.704-0.632c-0.352-0.344-0.728-0.648-1.088-0.976
	c-1.736-1.584-3.552-3.04-5.472-4.368c-0.304-0.208-0.584-0.448-0.896-0.648c-2.12-1.4-4.352-2.6-6.648-3.656
	c-0.52-0.24-1.048-0.464-1.584-0.688c-0.672-0.28-1.32-0.616-2-0.864c-1.184-2.632-1.808-5.52-1.808-8.56
	C243.668,124.249,252.492,115.096,263.348,115.096z M178.196,45.112C188.66,34.464,200.5,31.96,209.316,31.96
	c1.976,0,3.8,0.128,5.416,0.312c1.048,8.928,0.368,23.896-11.856,37.024c-0.664-0.144-1.368-0.152-2.04-0.272
	c-0.76-0.128-1.52-0.216-2.288-0.304c-1.848-0.232-3.68-0.416-5.56-0.448c-0.208,0-0.408,0.016-0.608,0.016
	c-7.384-0.024-14.872,1.4-21.64,4.512C168.244,67.32,166.452,57.072,178.196,45.112z M120.628,115.096
	c10.848,0,19.68,9.152,19.68,20.4c0,3.016-0.632,5.952-1.816,8.576c-0.408,0.152-0.784,0.352-1.184,0.512
	c-0.504,0.2-0.984,0.424-1.472,0.64c-2.472,1.08-4.888,2.288-7.152,3.744c-0.08,0.048-0.152,0.104-0.232,0.16
	c-2.2,1.424-4.248,3.064-6.208,4.808c-0.44,0.392-0.88,0.76-1.296,1.168c-0.288,0.272-0.6,0.512-0.88,0.792
	c-10.592-0.312-19.12-9.336-19.12-20.392C100.948,124.249,109.78,115.096,120.628,115.096z M99.668,199.977
	c1.864,0,3.728,0.28,5.504,0.824c0.072,0.504,0.24,0.992,0.328,1.496c0.288,1.624,0.632,3.232,1.064,4.824
	c0.216,0.8,0.456,1.584,0.712,2.368c0.496,1.52,1.064,3,1.688,4.472c0.296,0.704,0.576,1.408,0.904,2.096
	c0.944,1.96,1.984,3.872,3.16,5.704c0.104,0.16,0.192,0.32,0.296,0.48c1.232,1.88,2.616,3.664,4.088,5.376
	c0.152,0.176,0.272,0.384,0.424,0.56c-2.968,7.368-10.032,12.512-18.168,12.512c-10.848,0-19.68-9.12-19.68-20.32
	C79.988,209.129,88.82,199.977,99.668,199.977z M109.348,295.216c0-11.24,8.832-20.376,19.672-20.376s19.664,9.144,19.664,20.376
	S139.86,315.6,129.02,315.6S109.348,306.457,109.348,295.216z M191.988,351.977c-10.84,0-19.672-9.144-19.672-20.376
	c0-11.24,8.832-20.384,19.672-20.384s19.672,9.144,19.672,20.384C211.66,342.832,202.828,351.977,191.988,351.977z M254.964,315.6
	c-10.84,0-19.672-9.144-19.672-20.384s8.832-20.376,19.672-20.376s19.664,9.144,19.664,20.376S265.812,315.6,254.964,315.6z
	 M284.308,240.697c-8.144,0-15.2-5.144-18.168-12.512c0.144-0.168,0.256-0.36,0.4-0.528c1.52-1.768,2.944-3.6,4.216-5.544
	c0.016-0.024,0.032-0.056,0.048-0.088c1.248-1.92,2.328-3.936,3.32-6c0.32-0.664,0.576-1.344,0.872-2.024
	c0.64-1.488,1.216-2.992,1.712-4.536c0.256-0.776,0.488-1.552,0.704-2.344c0.44-1.592,0.784-3.208,1.064-4.84
	c0.088-0.504,0.256-0.984,0.328-1.488c1.776-0.536,3.64-0.816,5.504-0.816c10.848,0,19.68,9.152,19.68,20.4
	C303.988,231.577,295.156,240.697,284.308,240.697z"/>
<g>
</g>
<g>
</g>
<g>
</g>
<g>
</g>
<g>
</g>
<g>
</g>
<g>
</g>
<g>
</g>
<g>
</g>
<g>
</g>
<g>
</g>
<g>
</g>
<g>
</g>
<g>
</g>
<g>
</g>
</svg>
