<?xml version="1.0" encoding="iso-8859-1"?>
<!-- Generator: Adobe Illustrator 19.0.0, SVG Export Plug-In . SVG Version: 6.00 Build 0)  -->
<svg version="1.1" id="Capa_1" xmlns="http://www.w3.org/2000/svg" xmlns:xlink="http://www.w3.org/1999/xlink" x="0px" y="0px"
	 viewBox="0 0 384 384" style="enable-background:new 0 0 384 384;" xml:space="preserve">
<path style="fill:#F26E64;" d="M217.584,339.592C284.896,327.752,336,270.088,336,200.704C336.016,122.8,271.52,59.64,192,59.648
	C112.48,59.64,48,122.792,48,200.704c0,69.44,51.176,127.144,118.592,138.904c0,0,3.992,28.392,25.408,28.392
	C213.432,368,217.584,339.592,217.584,339.592z"/>
<g>
	<path style="fill:#603916;" d="M153.64,353.256C158.744,367.488,170.376,384,192,384c21.616,0,33.328-16.544,38.496-30.768
		C301.496,336.08,352,273.48,352,200.712c0.008-42.016-16.672-81.504-46.976-111.176c-20.032-19.616-44.472-33.24-71.064-40.296
		l13.408-11.92c6.608-5.872,7.2-15.984,1.336-22.592c-5.864-6.6-15.984-7.2-22.584-1.336L208,29.496V16c0-8.832-7.168-16-16-16
		s-16,7.168-16,16v13.416l-18.112-16.048c-6.632-5.856-16.728-5.248-22.592,1.36c-5.856,6.616-5.248,16.728,1.36,22.592
		l13.432,11.904c-26.616,7.048-51.072,20.68-71.112,40.304C48.68,119.208,32,158.688,32,200.704
		C32,273.552,82.56,336.152,153.64,353.256z M101.376,112.384c24.184-23.688,56.368-36.736,90.616-36.736c0,0,0.016,0,0.024,0
		c34.24,0,66.432,13.048,90.616,36.744C306.736,136,320.008,167.368,320,200.704c0,60.624-44.232,112.408-105.184,123.128
		c-6.8,1.192-12.064,6.616-13.056,13.44C201.736,337.424,198.912,352,192,352c-6.856,0-9.56-14.584-9.568-14.616
		c-0.968-6.872-6.256-12.344-13.096-13.536C108.304,313.2,64,261.408,64,200.704C64,167.36,77.272,136,101.376,112.384z"/>
	<path style="fill:#603916;" d="M259.824,200.704c0,17.6-7.016,34.168-19.752,46.64c-6.312,6.184-6.416,16.32-0.232,22.624
		c3.136,3.2,7.28,4.808,11.432,4.808c4.04,0,8.088-1.52,11.192-4.568c18.928-18.544,29.36-43.232,29.36-69.504
		c-0.008-26.264-10.432-50.944-29.36-69.48c-6.312-6.184-16.448-6.08-22.624,0.232c-6.184,6.312-6.08,16.448,0.232,22.624
		C252.808,166.552,259.816,183.112,259.824,200.704z"/>
</g>
<g>
</g>
<g>
</g>
<g>
</g>
<g>
</g>
<g>
</g>
<g>
</g>
<g>
</g>
<g>
</g>
<g>
</g>
<g>
</g>
<g>
</g>
<g>
</g>
<g>
</g>
<g>
</g>
<g>
</g>
</svg>
