<?xml version="1.0" encoding="iso-8859-1"?>
<!-- Generator: Adobe Illustrator 19.0.0, SVG Export Plug-In . SVG Version: 6.00 Build 0)  -->
<svg version="1.1" id="Capa_1" xmlns="http://www.w3.org/2000/svg" xmlns:xlink="http://www.w3.org/1999/xlink" x="0px" y="0px"
	 viewBox="0 0 384.002 384.002" style="enable-background:new 0 0 384.002 384.002;" xml:space="preserve">
<path style="fill:#FFEB97;" d="M238.322,286.161c0,0-12.8,57.84-111.2,57.84c-98.32,0-111.12-57.84-111.12-57.84l111.12-129.52
	L238.322,286.161z"/>
<g>
	<path style="fill:#FFF9BB;" d="M368.002,145.361c0,58.24-46.64,105.36-104.08,105.36c-28.72,0-54.72-11.76-73.6-30.88l41.92-42.4
		c8.16,8.16,19.28,13.28,31.68,13.28c24.72,0,44.8-20.32,44.8-45.36c0-12.56-5.04-23.84-13.12-32.08l41.92-42.4
		C356.322,89.921,368.002,116.321,368.002,145.361z"/>
	<path style="fill:#FFF9BB;" d="M337.522,70.881l-41.92,42.4c-8.08-8.16-19.28-13.28-31.68-13.28c-24.8,0-44.88,20.32-44.88,45.36
		c0,12.56,5.04,23.92,13.2,32.08l-41.92,42.4h-0.08c-18.8-19.04-30.48-45.36-30.48-74.48c0-58.16,46.64-105.36,104.16-105.36
		C292.642,40.001,318.642,51.841,337.522,70.881z"/>
</g>
<g>
	<path style="fill:#603916;" d="M132.754,232.665c-0.336-0.128-0.656-0.296-0.992-0.4c-0.712-0.216-1.44-0.32-2.168-0.432
		c-0.288-0.04-0.568-0.128-0.856-0.16c-0.672-0.064-1.344-0.032-2.024-0.016c-0.36,0.008-0.712-0.024-1.072,0.008
		c-0.608,0.056-1.2,0.208-1.792,0.336c-0.416,0.088-0.84,0.128-1.248,0.248c-0.632,0.184-1.232,0.472-1.84,0.736
		c-0.344,0.152-0.712,0.256-1.048,0.432c-0.84,0.44-1.64,0.984-2.408,1.584c-0.08,0.064-0.176,0.104-0.256,0.168
		c0,0,0,0-0.008,0.008c-0.328,0.272-0.608,0.616-0.92,0.92c-0.48,0.456-0.984,0.896-1.392,1.392l-21.552,26.512
		c-5.576,6.856-4.536,16.928,2.32,22.504c2.968,2.416,6.536,3.584,10.088,3.584c4.648,0,9.256-2.016,12.424-5.904l9.152-11.248
		l9.16,11.256c3.16,3.888,7.768,5.904,12.416,5.904c3.552,0,7.12-1.176,10.088-3.592c6.856-5.576,7.888-15.656,2.312-22.504
		l-21.568-26.512l0,0c-0.336-0.416-0.768-0.768-1.152-1.16c-0.384-0.384-0.744-0.816-1.16-1.152c0,0,0,0-0.008-0.008
		c-0.104-0.08-0.216-0.128-0.32-0.208c-0.736-0.568-1.504-1.096-2.312-1.528C134.01,233.113,133.378,232.897,132.754,232.665z"/>
	<path style="fill:#603916;" d="M348.89,59.617L348.89,59.617c-22.776-22.968-52.952-35.616-84.968-35.616
		c-66.256,0-120.16,54.44-120.16,121.36c0,2.176,0.2,4.312,0.312,6.464l-4.808-5.608c-6.088-7.088-18.208-7.08-24.288,0
		L3.858,275.737c-3.28,3.824-4.568,8.96-3.48,13.872c0.64,2.888,16.84,70.392,126.744,70.392
		c109.992,0,126.184-67.504,126.824-70.384c1.088-4.92-0.2-10.056-3.488-13.88l-9.688-11.28c7.552,1.48,15.288,2.264,23.152,2.264
		c66.208,0,120.08-54.44,120.08-121.36c0-32.352-12.464-62.8-35.088-85.72C348.906,59.633,348.898,59.625,348.89,59.617z
		 M243.554,166.129c-5.496-5.488-8.512-12.864-8.512-20.768c0-16.184,12.952-29.36,28.88-29.36c7.632,0,14.832,3.024,20.28,8.512
		c5.496,5.616,8.52,13.016,8.52,20.848c0,16.184-12.92,29.36-28.8,29.36c-1.896,0-3.776-0.192-5.608-0.56
		C252.818,173.041,247.714,170.281,243.554,166.129z M263.922,56.001c18.12,0,35.448,5.56,50.112,15.88L294.09,92.049
		c-0.208-0.12-0.432-0.2-0.64-0.312c-2.056-1.16-4.152-2.224-6.328-3.128c-0.176-0.072-0.352-0.12-0.528-0.192
		c-2.016-0.816-4.08-1.504-6.176-2.096c-0.688-0.192-1.392-0.36-2.088-0.528c-1.688-0.416-3.392-0.752-5.112-1.016
		c-0.704-0.112-1.4-0.232-2.112-0.312c-2.376-0.28-4.768-0.472-7.192-0.472c-33.568,0-60.88,27.528-60.88,61.36
		c0,2.472,0.192,4.904,0.472,7.32c0.08,0.712,0.2,1.408,0.312,2.12c0.272,1.776,0.616,3.52,1.032,5.256
		c0.168,0.688,0.32,1.376,0.512,2.056c0.64,2.288,1.368,4.536,2.264,6.728c0.008,0.024,0.016,0.04,0.024,0.064
		c0.904,2.192,1.976,4.312,3.136,6.392c0.136,0.24,0.224,0.496,0.36,0.728l-19.84,20.064c-10.104-14.8-15.544-32.336-15.544-50.72
		C175.762,96.089,215.314,56.001,263.922,56.001z M127.122,328.001c-64.112,0-85.928-26.136-92.712-38.72l92.72-108.072
		l92.768,108.048C213.018,302.001,191.146,328.001,127.122,328.001z M263.922,234.721c-18.168,0-35.504-5.552-50.128-15.864
		l19.984-20.208c0.208,0.12,0.432,0.2,0.64,0.312c2.072,1.168,4.184,2.24,6.36,3.144c0.112,0.048,0.232,0.08,0.352,0.128
		c2.072,0.848,4.192,1.552,6.344,2.16c0.68,0.192,1.376,0.352,2.064,0.52c1.688,0.416,3.4,0.752,5.128,1.024
		c0.696,0.112,1.392,0.232,2.096,0.312c2.368,0.28,4.752,0.472,7.16,0.472c33.52,0,60.8-27.528,60.8-61.36
		c0-2.448-0.192-4.872-0.472-7.272c-0.08-0.704-0.2-1.4-0.304-2.104c-0.272-1.768-0.616-3.512-1.032-5.248
		c-0.168-0.68-0.32-1.368-0.504-2.04c-0.64-2.288-1.368-4.552-2.264-6.744c-0.048-0.12-0.112-0.224-0.16-0.344
		c-0.864-2.072-1.864-4.08-2.952-6.048c-0.144-0.264-0.24-0.544-0.392-0.8l8.72-8.824l11.128-11.256
		c10.08,14.8,15.512,32.32,15.512,50.68C352.002,194.633,312.498,234.721,263.922,234.721z"/>
</g>
<g>
</g>
<g>
</g>
<g>
</g>
<g>
</g>
<g>
</g>
<g>
</g>
<g>
</g>
<g>
</g>
<g>
</g>
<g>
</g>
<g>
</g>
<g>
</g>
<g>
</g>
<g>
</g>
<g>
</g>
</svg>
