<?xml version="1.0" encoding="iso-8859-1"?>
<!-- Generator: Adobe Illustrator 19.0.0, SVG Export Plug-In . SVG Version: 6.00 Build 0)  -->
<svg version="1.1" id="Capa_1" xmlns="http://www.w3.org/2000/svg" xmlns:xlink="http://www.w3.org/1999/xlink" x="0px" y="0px"
	 viewBox="0 0 384 384" style="enable-background:new 0 0 384 384;" xml:space="preserve">
<path style="fill:#F26E64;" d="M221.648,360.016C212.936,365.096,202.808,368,192,368c-10.8,0-20.912-2.896-29.632-7.976
	l0.008,0.016c-8.712,5.064-18.832,7.96-29.608,7.96c-32.704,0-59.224-26.656-59.224-59.52L56,145.744
	c0-32.872,26.52-59.52,59.232-59.52c10.344,0,20.336,2.968,28.8,7.648C154.768,78.752,172.104,68.6,192,68.6
	c19.904,0,37.768,9.696,48.504,24.824l-0.256,0.136c8.464-4.68,18.176-7.344,28.512-7.344c32.712,0,59.232,26.648,59.232,59.52
	L310.464,308.48c0,32.864-26.52,59.52-59.224,59.52c-10.776,0-20.856-2.88-29.568-7.92"/>
<path style="fill:#603916;" d="M40,145.744c0,0.576,0.032,1.144,0.096,1.712l17.456,161.936C58.032,350.616,91.584,384,132.768,384
	c10.208,0,20.296-2.088,29.616-6.088c18.624,8,40.616,8,59.224,0c9.32,4,19.416,6.08,29.624,6.08
	c41.176,0,74.736-33.384,75.216-74.608l17.456-161.936c0.064-0.56,0.096-1.128,0.096-1.704c0-41.64-33.752-75.52-75.232-75.52
	c-8.056,0-16.056,1.312-23.656,3.832c-0.568-0.584-1.04-1.192-1.632-1.768c-0.976-0.944-2.064-1.688-3.192-2.336
	c-9.072-7.496-19.848-12.76-31.416-15.384c1.016-6.672,3.104-14.008,7.272-18.416c1.824-1.936,4.72-4.152,10.96-4.152
	c8.832,0,16-7.168,16-16s-7.168-16-16-16c-13.688,0-25.552,4.944-34.328,14.288c-11.064,11.784-14.912,28.088-16.184,40.016
	c-11.672,2.536-22.624,7.888-31.928,15.592c-1.16,0.656-2.28,1.416-3.288,2.384c-0.704,0.68-1.264,1.4-1.928,2.088
	c-7.872-2.728-16.072-4.152-24.208-4.152C73.752,70.224,40,104.104,40,145.744z M115.232,102.224c2.184,0,4.384,0.248,6.584,0.616
	c-10.144,28.552-2.616,56.32-2.16,57.904c2,7.024,8.384,11.592,15.352,11.592c1.432,0,2.88-0.192,4.32-0.592
	c8.488-2.36,13.456-11.176,11.136-19.664c-0.088-0.312-7.48-28.624,7.536-50.08c8.36-11.04,20.656-17.384,34.008-17.384
	c13.328,0,25.816,6,33.952,16.136c16.12,21.464,8.6,50.688,8.432,51.32c-2.376,8.48,2.552,17.288,11.032,19.696
	c1.464,0.416,2.936,0.616,4.384,0.616c6.968,0,13.384-4.592,15.384-11.632c0.456-1.584,8.016-29.48-2.224-58.096
	c1.92-0.264,3.856-0.424,5.808-0.424c23.576,0,42.808,19.096,43.224,42.728l-17.44,161.816c-0.064,0.568-0.096,1.144-0.096,1.712
	c0,24-19.392,43.52-43.224,43.52c-0.032,0-0.064-0.008-0.104-0.008c8.568-14.984,10.728-32.44,10.52-46.456
	c-0.136-8.752-7.264-15.768-15.992-15.768c-0.088,0-0.168,0-0.24,0c-8.832,0.128-15.888,7.4-15.768,16.232
	c0.16,10.552-1.4,29.592-13.52,38.584c-0.416,0.312-0.752,0.688-1.136,1.032c-0.464,0.216-0.952,0.304-1.408,0.568
	c-13.032,7.6-30.12,7.6-43.176,0.008c-0.368-0.216-0.784-0.296-1.16-0.48c-0.416-0.376-0.784-0.792-1.248-1.136
	c-12.128-8.992-13.68-28.04-13.52-38.592c0.128-8.832-6.928-16.104-15.768-16.232c-0.08,0-0.16,0-0.24,0
	c-8.728,0-15.856,7.008-15.992,15.768c-0.208,14.024,1.952,31.48,10.52,46.456c-0.08,0-0.16,0.016-0.232,0.016
	c-23.832,0-43.224-19.52-43.224-43.52c0-0.576-0.032-1.144-0.096-1.712l-17.44-161.816
	C72.432,121.32,91.656,102.224,115.232,102.224z"/>
<g>
</g>
<g>
</g>
<g>
</g>
<g>
</g>
<g>
</g>
<g>
</g>
<g>
</g>
<g>
</g>
<g>
</g>
<g>
</g>
<g>
</g>
<g>
</g>
<g>
</g>
<g>
</g>
<g>
</g>
</svg>
