<?xml version="1.0" encoding="iso-8859-1"?>
<!-- Generator: Adobe Illustrator 19.0.0, SVG Export Plug-In . SVG Version: 6.00 Build 0)  -->
<svg version="1.1" id="Capa_1" xmlns="http://www.w3.org/2000/svg" xmlns:xlink="http://www.w3.org/1999/xlink" x="0px" y="0px"
	 viewBox="0 0 384 384" style="enable-background:new 0 0 384 384;" xml:space="preserve">
<path style="fill:#9DC85C;" d="M149.144,78.816c17.24,0,31.24-14.032,31.24-31.384c0-17.328-13.984-31.376-31.24-31.384L119.04,16
	l-0.736,0.744l-0.44,30.752c0.008,17.328,13.992,31.376,31.232,31.376"/>
<path style="fill:#FFEB97;" d="M296,263.52C296,321.2,249.44,368,192,368S88,321.2,88,263.52c0-37.92,20.08-71.2,50.24-89.44
	c-5.76-9.52-9.12-20.72-9.12-32.72c0-34.88,28.16-63.12,62.88-63.12s62.88,28.24,62.88,63.12c0,12-3.36,23.12-9.12,32.72
	C275.92,192.32,296,225.6,296,263.52z"/>
<g>
	<path style="fill:#603916;" d="M72,263.52C72,329.952,125.832,384,192,384s120-54.048,120-120.48c0-37.088-17.32-72.24-46-94.84
		c3.208-8.744,4.872-17.992,4.872-27.32c0-38.168-27.08-70.104-62.976-77.504c0.696-8.168,2.856-17.856,8.4-24.048
		c4.304-4.808,10.56-7.144,19.152-7.144c8.832,0,16-7.168,16-16s-7.168-16-16-16c-17.792,0-32.704,6.208-43.136,17.96
		c-1.112,1.248-2.12,2.544-3.088,3.864c-8.344-13.44-23.16-22.432-40.064-22.44L119.064,0c-0.008,0-0.016,0-0.024,0
		c-4.256,0-8.336,1.696-11.344,4.712l-0.736,0.744c-2.928,2.944-4.592,6.904-4.656,11.056l-0.44,30.992
		c0.008,19.696,12.064,36.616,29.16,43.744c-11.176,13.656-17.896,31.112-17.896,50.112c0,9.368,1.656,18.616,4.856,27.328
		C89.32,191.296,72,226.44,72,263.52z M134.08,32.016l15.056,0.024c8.408,0,15.248,6.904,15.248,15.384s-6.832,15.384-15.24,15.384
		c-0.336,0-0.664,0.008-0.984,0.032c-7.968-0.496-14.296-7.184-14.304-15.12L134.08,32.016z M146.52,187.768
		c7.56-4.576,9.984-14.408,5.408-21.976c-4.456-7.36-6.808-15.816-6.808-24.44c0-25.984,21.032-47.12,46.88-47.12
		s46.88,21.136,46.88,47.12c0,8.688-2.304,16.928-6.832,24.488c-4.536,7.56-2.104,17.36,5.44,21.92
		C264.104,203.872,280,232.192,280,263.52c0,48.792-39.48,88.48-88,88.48s-88-39.688-88-88.48
		C104,232.192,119.896,203.872,146.52,187.768z"/>
	<path style="fill:#603916;" d="M199.632,331.056c0.848,0,1.704-0.072,2.568-0.208c28.816-4.656,50.776-28.28,53.408-57.456
		c0.8-8.8-5.696-16.576-14.496-17.368c-8.76-0.816-16.584,5.688-17.368,14.496c-1.32,14.6-12.272,26.424-26.64,28.736
		c-8.72,1.408-14.656,9.624-13.248,18.344C185.128,325.464,191.92,331.056,199.632,331.056z"/>
</g>
<g>
</g>
<g>
</g>
<g>
</g>
<g>
</g>
<g>
</g>
<g>
</g>
<g>
</g>
<g>
</g>
<g>
</g>
<g>
</g>
<g>
</g>
<g>
</g>
<g>
</g>
<g>
</g>
<g>
</g>
</svg>
