<?xml version="1.0" encoding="iso-8859-1"?>
<!-- Generator: Adobe Illustrator 19.0.0, SVG Export Plug-In . SVG Version: 6.00 Build 0)  -->
<svg version="1.1" id="Capa_1" xmlns="http://www.w3.org/2000/svg" xmlns:xlink="http://www.w3.org/1999/xlink" x="0px" y="0px"
	 viewBox="0 0 384 384" style="enable-background:new 0 0 384 384;" xml:space="preserve">
<path style="fill:#9DC85C;" d="M165.816,47.616c0,17.416,14.28,31.56,31.936,31.56c17.624,0,31.928-14.128,31.944-31.56
	l0.032-31.168L197.688,16c-17.624,0.008-31.92,14.136-31.92,31.552"/>
<path style="fill:#F58A54;" d="M241.688,331.92C287.712,312.752,320,267.76,320,215.312c0.016-69.864-57.312-126.504-128-126.504
	c-70.696,0-128,56.64-128,126.504c-0.016,52.648,32.544,97.784,78.84,116.808c0,0,15.088,35.872,49.16,35.872
	S241.688,331.92,241.688,331.92z"/>
<path style="fill:#603916;" d="M48,215.32c-0.016,55.768,32.44,105.832,83.192,129.184C138.192,357.016,157.32,384,192,384
	c34.744,0,54.216-27.264,61.296-39.712C303.736,320.832,336,270.84,336,215.32c0.008-38.096-14.992-73.904-42.24-100.832
	c-17.024-16.824-37.568-28.912-59.976-35.608c7.384-8.368,11.912-19.28,11.92-31.248l0.032-31.168
	c0.008-8.752-7.024-15.888-15.776-16.016L197.68,0c-26.416,0.008-47.912,21.344-47.912,47.552c0,0.52,0.024,1.04,0.072,1.544
	c0.32,10.312,4.008,19.776,9.952,27.44C95.872,91.072,48,147.712,48,215.32z M197.472,32l16.248,0.224l-0.016,15.368
	c-0.008,8.592-7.168,15.576-15.944,15.576c-8.792,0-15.936-6.984-15.936-15.56c0-0.312-0.008-0.624-0.024-0.928
	C182.256,38.512,189.2,32,197.472,32z M176.872,105.944c-2.752,3.632-5.312,7.48-7.536,11.688
	c-27.184,51.224-3.928,127.8-2.928,131.032c2.128,6.856,8.448,11.256,15.272,11.256c1.568,0,3.16-0.232,4.736-0.72
	c8.432-2.608,13.168-11.56,10.56-20c-0.2-0.664-20.312-67.224,0.656-106.624c5.936-11.168,14.792-18.64,26.624-23.12
	c17.576,5.184,33.688,14.616,47.016,27.792c21.12,20.864,32.744,48.584,32.736,78.064c0,44.544-26.872,84.512-68.464,101.832
	c-3.776,1.568-6.832,4.608-8.504,8.336C226.92,325.744,214.928,352,192,352c-22.8,0-33.984-25.096-34.408-26.072
	c-1.64-3.896-4.76-6.992-8.664-8.6C107.04,300.12,79.992,260.08,80,215.32C80,159.464,122.264,113.272,176.872,105.944z"/>
<g>
</g>
<g>
</g>
<g>
</g>
<g>
</g>
<g>
</g>
<g>
</g>
<g>
</g>
<g>
</g>
<g>
</g>
<g>
</g>
<g>
</g>
<g>
</g>
<g>
</g>
<g>
</g>
<g>
</g>
</svg>
