<?xml version="1.0" encoding="iso-8859-1"?>
<!-- Generator: Adobe Illustrator 19.0.0, SVG Export Plug-In . SVG Version: 6.00 Build 0)  -->
<svg version="1.1" id="Capa_1" xmlns="http://www.w3.org/2000/svg" xmlns:xlink="http://www.w3.org/1999/xlink" x="0px" y="0px"
	 viewBox="0 0 384.086 384.086" style="enable-background:new 0 0 384.086 384.086;" xml:space="preserve">
<path style="fill:#F58A54;" d="M330.508,225.358c0,76.8-64.56,125.84-138.88,139.12c0,0-103.12,20.8-162.48-38.72
	c-39.68-39.76,23.36-100.64,23.36-100.64c16.16-75.76,62.24-139.12,138.88-139.12l0.24,0.24
	C268.348,86.238,330.508,148.558,330.508,225.358z"/>
<path style="fill:#9DC85C;" d="M285.684,76.078c0,0,2.648-28.64,36.104-28.04c33.464,0.56,46.248,29.504,46.248,29.504
	s-13.792,28.448-47.24,27.856C287.324,104.806,285.684,76.078,285.684,76.078z"/>
<g>
	<path style="fill:#603916;" d="M322.076,32.038c-0.44-0.008-0.856-0.008-1.28-0.008c-13.432,0-23.856,3.856-31.728,9.56
		c-5.112-11.536-13.08-23.824-25.032-36.544c-6.072-6.448-16.184-6.752-22.616-0.704c-6.448,6.048-6.76,16.176-0.712,22.616
		c23.912,25.456,26.336,46.792,23.208,61.376c-20.88-11.096-44.512-17.656-69.648-18.072c-0.944-0.168-1.904-0.264-2.872-0.264
		c-75.24,0-132.368,54.904-153.512,147.176C27.58,228.038,0.372,259.926,0.052,294.102c-0.152,16.296,6,31.152,17.784,42.96
		c38.912,39.024,93.408,47.024,131.56,47.024c25.272,0,43.392-3.512,45.064-3.848c92.36-16.52,152.048-77.304,152.048-154.88
		c0-41.216-16.216-78.648-42.488-106.456c4.904,1.464,10.368,2.384,16.496,2.488c0.456,0.008,0.896,0.008,1.344,0.008
		c42.2,0,59.84-35.36,60.576-36.88c2.048-4.232,2.136-9.152,0.232-13.448C381.98,69.51,365.244,32.766,322.076,32.038z
		 M188.492,348.79c-0.952,0.184-95.568,18.256-148.016-34.336c-5.824-5.832-8.504-12.184-8.44-20.008
		c0.168-22.416,22.864-49.352,31.584-57.824c2.288-2.208,3.864-5.056,4.528-8.168c6.272-29.4,33.432-124.744,120.856-126.44
		c0.856,0.144,1.736,0.216,2.616,0.216c67.752,0,122.872,55.232,122.872,123.12C314.508,299.838,246.796,338.366,188.492,348.79z
		 M321.796,89.406c-0.232,0-0.48,0-0.72,0c-14.312-0.256-18.248-7.704-19.224-13.04c1.144-5.2,5.208-12.336,18.944-12.336
		c0.232,0,0.48,0,0.728,0c13.816,0.232,22.584,7.504,27.36,13.216C344.036,82.662,335.284,89.406,321.796,89.406z"/>
	<path style="fill:#603916;" d="M167.06,130.046c-37.816,6.984-49.88,42.016-50.376,43.504c-2.792,8.384,1.744,17.448,10.128,20.232
		c1.68,0.56,3.384,0.824,5.056,0.824c6.704,0,12.944-4.24,15.176-10.952c0.064-0.184,6.704-18.616,25.832-22.152
		c8.688-1.608,14.432-9.952,12.832-18.64C184.092,134.182,175.796,128.43,167.06,130.046z"/>
</g>
<g>
</g>
<g>
</g>
<g>
</g>
<g>
</g>
<g>
</g>
<g>
</g>
<g>
</g>
<g>
</g>
<g>
</g>
<g>
</g>
<g>
</g>
<g>
</g>
<g>
</g>
<g>
</g>
<g>
</g>
</svg>
