<?xml version="1.0" encoding="iso-8859-1"?>
<!-- Generator: Adobe Illustrator 19.0.0, SVG Export Plug-In . SVG Version: 6.00 Build 0)  -->
<svg version="1.1" id="Capa_1" xmlns="http://www.w3.org/2000/svg" xmlns:xlink="http://www.w3.org/1999/xlink" x="0px" y="0px"
	 viewBox="0 0 384 384" style="enable-background:new 0 0 384 384;" xml:space="preserve">
<g>
	<path style="fill:#F26E64;" d="M255.44,117.68c-9.04-2.48-18.56-3.76-28.32-3.76c-61.12,0-110.56,51.36-110.56,112.64h-30.4
		c0,28.48,8.4,54.96,22.8,77.12l-17.12-6.96C47.12,276.8,16,231.92,16,179.68C16,108.88,73.12,51.6,143.6,51.6
		c47.2,0,88.4,25.68,110.48,63.84L255.44,117.68z"/>
	<path style="fill:#F26E64;" d="M368,226.56C368,304.72,304.88,368,227.12,368c-49.44,0-92.96-25.6-118.16-64.32
		c-14.4-22.16-22.8-48.64-22.8-77.12H368z"/>
</g>
<path style="fill:#FFFCEC;" d="M337.68,226.56H116.56c0-61.28,49.44-112.64,110.56-112.64c9.76,0,19.28,1.28,28.32,3.76
	C302.8,130.64,337.68,175.12,337.68,226.56z"/>
<g>
	<path style="fill:#603916;" d="M85.816,311.536l12.736,5.176C128.024,358.92,175.664,384,227.12,384
		C313.624,384,384,313.368,384,226.56c0-8.832-7.168-16-16-16h-15.416c-6.096-49.056-39.728-90.784-86.64-106.304
		c-23.528-38.312-63.736-63.352-108.008-67.848c-1.616-6.36-4.648-13.576-10.56-20.088C137.552,5.488,123.264,0,104.896,0
		c-8.832,0-16,7.168-16,16s7.168,16,16,16c5.864,0,13.6,0.992,18.088,5.264C53.56,47.344,0,107.272,0,179.68
		C0,236.568,33.496,288.248,85.816,311.536z M227.12,352c-42.344,0-81.504-21.328-104.744-57.04
		c-10.312-15.864-16.832-33.736-19.2-52.4h13.384h221.12h13.312C343.144,304.2,290.584,352,227.12,352z M320.368,210.56h-186.4
		c0.104-0.616,0.168-1.248,0.28-1.864c0.232-1.272,0.512-2.528,0.792-3.784c0.392-1.728,0.816-3.448,1.296-5.144
		c0.352-1.232,0.712-2.448,1.112-3.664c0.544-1.68,1.144-3.328,1.784-4.96c0.448-1.16,0.896-2.312,1.384-3.448
		c0.712-1.656,1.496-3.272,2.304-4.872c0.52-1.048,1.024-2.104,1.584-3.128c0.928-1.704,1.944-3.352,2.968-4.992
		c0.536-0.856,1.024-1.728,1.584-2.568c1.424-2.12,2.936-4.168,4.512-6.168c0.232-0.296,0.44-0.616,0.672-0.912
		c1.848-2.28,3.792-4.464,5.832-6.56c0.584-0.6,1.216-1.144,1.808-1.728c1.488-1.456,2.992-2.888,4.568-4.24
		c0.824-0.704,1.696-1.352,2.544-2.032c1.432-1.144,2.864-2.272,4.36-3.336c0.952-0.68,1.944-1.312,2.92-1.952
		c1.464-0.96,2.936-1.888,4.448-2.768c1.056-0.608,2.12-1.184,3.2-1.752c1.52-0.8,3.072-1.568,4.64-2.288
		c1.112-0.512,2.232-1.008,3.36-1.472c1.616-0.664,3.256-1.264,4.92-1.84c1.144-0.4,2.288-0.8,3.448-1.152
		c1.736-0.528,3.504-0.968,5.28-1.392c1.128-0.272,2.248-0.568,3.392-0.8c1.976-0.392,3.992-0.672,6.016-0.944
		c0.984-0.128,1.944-0.312,2.936-0.416c3.032-0.304,6.096-0.48,9.2-0.48c8.272,0,16.376,1.072,24.096,3.192
		C287.544,143.056,314.28,173.76,320.368,210.56z M143.6,67.6c28.672,0,55.976,11.184,76.504,30.512
		c-1.112,0.064-2.2,0.248-3.304,0.336c-1.688,0.136-3.36,0.304-5.024,0.512c-2.392,0.296-4.76,0.672-7.112,1.104
		c-1.608,0.296-3.208,0.584-4.792,0.936c-2.4,0.536-4.76,1.184-7.112,1.864c-1.456,0.416-2.928,0.8-4.36,1.264
		c-2.576,0.848-5.088,1.824-7.592,2.832c-1.128,0.456-2.296,0.84-3.408,1.328c-3.584,1.56-7.096,3.272-10.504,5.152
		c-0.208,0.112-0.4,0.256-0.6,0.368c-3.192,1.784-6.296,3.704-9.312,5.752c-1.048,0.712-2.032,1.504-3.056,2.24
		c-2.12,1.536-4.224,3.088-6.248,4.752c-1.144,0.944-2.232,1.944-3.352,2.928c-1.8,1.592-3.584,3.2-5.296,4.888
		c-1.112,1.096-2.176,2.232-3.248,3.368c-1.608,1.704-3.168,3.448-4.688,5.24c-1.016,1.208-2.016,2.432-2.992,3.672
		c-1.456,1.856-2.84,3.76-4.2,5.704c-0.888,1.28-1.784,2.544-2.632,3.856c-1.328,2.056-2.56,4.168-3.768,6.304
		c-0.728,1.288-1.488,2.552-2.176,3.864c-1.256,2.408-2.392,4.88-3.496,7.368c-0.496,1.12-1.056,2.2-1.52,3.336
		c-3.016,7.328-5.376,15-7.024,22.936c-0.264,1.256-0.416,2.552-0.64,3.824c-0.392,2.224-0.848,4.432-1.12,6.696H86.16
		c-8.832,0-16,7.168-16,16c0,3.712,0.144,7.416,0.4,11.096c0.088,1.216,0.256,2.416,0.368,3.624c0.232,2.456,0.456,4.92,0.792,7.36
		c0.2,1.432,0.488,2.848,0.728,4.272c0.368,2.192,0.728,4.384,1.192,6.552c0.32,1.512,0.72,3,1.08,4.504
		c0.384,1.584,0.712,3.192,1.144,4.76C48.624,247.824,32,215.048,32,179.68C32,117.88,82.064,67.6,143.6,67.6z"/>
	<path style="fill:#603916;" d="M256.336,293.144c-9.496,4.136-19.608,6.328-29.24,6.328c-8.88,0-16.64-1.76-26.76-6.064
		c-8.128-3.472-17.528,0.328-20.992,8.456s0.328,17.528,8.456,20.992c14.008,5.96,26.128,8.624,39.288,8.624
		c14,0,28.528-3.112,42.024-8.992c8.104-3.528,11.808-12.96,8.28-21.056C273.856,293.32,264.424,289.608,256.336,293.144z"/>
</g>
<g>
</g>
<g>
</g>
<g>
</g>
<g>
</g>
<g>
</g>
<g>
</g>
<g>
</g>
<g>
</g>
<g>
</g>
<g>
</g>
<g>
</g>
<g>
</g>
<g>
</g>
<g>
</g>
<g>
</g>
</svg>
