<?xml version="1.0" encoding="iso-8859-1"?>
<!-- Generator: Adobe Illustrator 19.0.0, SVG Export Plug-In . SVG Version: 6.00 Build 0)  -->
<svg version="1.1" id="Capa_1" xmlns="http://www.w3.org/2000/svg" xmlns:xlink="http://www.w3.org/1999/xlink" x="0px" y="0px"
	 viewBox="0 0 384 384" style="enable-background:new 0 0 384 384;" xml:space="preserve">
<circle style="fill:#F58A54;" cx="192" cy="192" r="176"/>
<path style="fill:#FFEB97;" d="M307.92,192c0,32-12.96,60.96-34,81.92c-20.96,21.04-49.92,34-81.92,34s-60.96-12.96-81.92-34
	C89.12,252.96,76.16,224,76.16,192s12.96-60.96,33.92-81.92S160,76.16,192,76.16s60.96,12.96,81.92,33.92
	C294.96,131.04,307.92,160,307.92,192z"/>
<g>
	<path style="fill:#603916;" d="M192,0C86.128,0,0,86.128,0,192s86.128,192,192,192c105.864,0,192-86.128,192-192S297.864,0,192,0z
		 M192,352c-88.224,0-160-71.776-160-160S103.776,32,192,32s160,71.776,160,160S280.224,352,192,352z"/>
	<path style="fill:#603916;" d="M312.712,245.088c0.384-0.864,0.856-1.688,1.216-2.568c1.336-3.224,2.456-6.536,3.536-9.864
		c0.24-0.744,0.568-1.464,0.792-2.216c0.872-2.864,1.512-5.8,2.184-8.72c0.288-1.264,0.688-2.496,0.944-3.776
		c0.68-3.424,1.128-6.912,1.536-10.4c0.096-0.816,0.28-1.616,0.36-2.432c0.424-4.328,0.64-8.704,0.64-13.112
		c0-35.184-13.696-68.216-38.52-93.048c-0.064-0.064-0.104-0.136-0.16-0.2c-0.064-0.064-0.144-0.104-0.208-0.168
		c-24.72-24.608-57.48-38.208-92.36-38.384c-0.232-0.008-0.44-0.064-0.672-0.064s-0.448,0.056-0.672,0.064
		c-34.864,0.176-67.6,13.768-92.32,38.352c-0.08,0.08-0.176,0.128-0.256,0.208c-0.08,0.08-0.128,0.168-0.2,0.248
		c-24.488,24.608-38.048,57.184-38.336,91.88c-0.024,0.376-0.112,0.736-0.112,1.12s0.088,0.744,0.112,1.12
		c0.288,34.68,13.84,67.232,38.272,91.816c0.096,0.096,0.16,0.216,0.256,0.312c0.104,0.104,0.232,0.176,0.336,0.28
		c24.84,24.744,57.808,38.384,92.92,38.384c35.144,0,68.16-13.664,92.952-38.432c0.096-0.088,0.208-0.152,0.296-0.24
		c0.104-0.104,0.168-0.224,0.264-0.32c1.696-1.704,3.232-3.528,4.824-5.304c1.224-1.368,2.544-2.664,3.704-4.072
		c2.424-2.944,4.656-6.008,6.8-9.128c0.296-0.432,0.656-0.832,0.944-1.272c1.896-2.832,3.592-5.776,5.256-8.736
		c0.44-0.776,0.96-1.512,1.384-2.296C310.008,251.176,311.368,248.136,312.712,245.088z M93.544,208h50.216
		c0.776,2.344,1.736,4.6,2.832,6.784l-35.528,35.536C101.96,237.736,96,223.328,93.544,208z M111.064,133.68l35.528,35.528
		c-1.096,2.184-2.056,4.44-2.84,6.792H93.536C96,160.664,101.96,146.256,111.064,133.68z M290.544,176H240.24
		c-0.784-2.344-1.736-4.608-2.84-6.792l35.56-35.552C282.088,146.224,288.08,160.648,290.544,176z M237.408,214.784
		c1.096-2.176,2.056-4.44,2.832-6.784h50.296c-2.464,15.344-8.448,29.752-17.576,42.336L237.408,214.784z M210.856,192.04
		c-0.024,10.384-8.472,18.824-18.856,18.824c-10.4,0-18.864-8.464-18.864-18.864c0-10.408,8.464-18.872,18.864-18.872
		c10.384,0,18.832,8.448,18.856,18.832c0,0.016,0,0.024,0,0.04S210.856,192.024,210.856,192.04z M214.784,146.584
		c-2.176-1.096-4.44-2.056-6.784-2.832V93.544c15.328,2.456,29.728,8.416,42.312,17.512L214.784,146.584z M176,143.744
		c-2.344,0.784-4.608,1.736-6.784,2.84l-35.528-35.528C146.264,101.96,160.672,96,176,93.544V143.744z M169.208,237.408
		c2.184,1.096,4.44,2.056,6.792,2.84v50.296c-15.352-2.464-29.768-8.448-42.344-17.576L169.208,237.408z M208,240.248
		c2.344-0.784,4.608-1.736,6.784-2.84l35.552,35.552c-12.568,9.128-26.984,15.112-42.344,17.576v-50.288H208z"/>
</g>
<g>
</g>
<g>
</g>
<g>
</g>
<g>
</g>
<g>
</g>
<g>
</g>
<g>
</g>
<g>
</g>
<g>
</g>
<g>
</g>
<g>
</g>
<g>
</g>
<g>
</g>
<g>
</g>
<g>
</g>
</svg>
