<?xml version="1.0" encoding="iso-8859-1"?>
<!-- Generator: Adobe Illustrator 19.0.0, SVG Export Plug-In . SVG Version: 6.00 Build 0)  -->
<svg version="1.1" id="Capa_1" xmlns="http://www.w3.org/2000/svg" xmlns:xlink="http://www.w3.org/1999/xlink" x="0px" y="0px"
	 viewBox="0 0 384.046 384.046" style="enable-background:new 0 0 384.046 384.046;" xml:space="preserve">
<path style="fill:#69BE5D;" d="M320.023,247.934c0,113.04-86.32,105.2-86.32,105.2s-16.56,15.68-41.68,14.88
	c-25.12,0.8-41.68-14.88-41.68-14.88s-86.32,7.84-86.32-105.2c0-87.12,86.32-120.8,86.32-120.8s12.4-23.92,41.68-23.92
	s41.68,23.92,41.68,23.92S320.023,160.814,320.023,247.934z"/>
<path style="fill:#9DC85C;" d="M192.215,72.686c0,0-16.192-23.128,8.544-44.488c24.728-21.384,52.352-8.104,52.352-8.104
	s7.968,30.24-16.768,51.608C211.599,93.062,192.215,72.686,192.215,72.686z"/>
<g>
	<path style="fill:#603916;" d="M139.375,114.47c-20.184,9.376-91.352,48.464-91.352,133.464c0,43.248,11.752,75.912,34.936,97.088
		c22.536,20.576,49.392,23.872,61.864,24.184c8.192,5.936,24.824,15.344,47.192,14.816c0.64,0.016,1.28,0.024,1.912,0.024
		c21.392,0,37.328-9.072,45.288-14.832c12.48-0.32,39.336-3.608,61.864-24.184c23.184-21.184,34.944-53.848,34.944-97.096
		c0-85-71.168-124.088-91.352-133.472c-4.296-6.144-11.088-13.144-20.256-18.52c7.296-1.864,14.88-5.648,22.392-12.144
		c31.92-27.584,22.2-66.168,21.776-67.792c-1.184-4.528-4.312-8.312-8.536-10.344c-1.512-0.728-37.456-17.512-69.736,10.416
		c-8.752,7.552-13.952,15.584-16.728,23.432c-13.696-9.816-32.984-17.424-60.208-18.72c-8.848-0.608-16.32,6.4-16.736,15.224
		c-0.424,8.832,6.392,16.32,15.224,16.736c42.992,2.04,56.832,23.88,61.28,37.256C156.879,94.974,145.559,105.614,139.375,114.47z
		 M211.223,40.294c9.88-8.552,20.304-9,27.184-7.952c-0.096,7.368-2.264,18.384-12.528,27.248c-9.768,8.448-16.832,6.44-21.272,2.76
		C202.767,58.958,199.823,50.142,211.223,40.294z M164.455,134.678c0.344-0.632,8.768-15.464,27.568-15.464
		s27.216,14.832,27.48,15.288c1.792,3.448,4.768,6.128,8.392,7.544c0.752,0.296,76.128,30.576,76.128,105.888
		c0,33.672-8.152,58.296-24.216,73.176c-19.208,17.8-44.512,16.072-44.656,16.088c-4.424-0.432-9.016,1.192-12.328,4.208
		c-0.128,0.112-12.656,11.192-30.288,10.616c-0.336-0.008-0.672-0.008-1.016,0c-17.8,0.56-30.16-10.504-30.168-10.504
		c-2.984-2.832-6.928-4.384-11-4.384c-0.48,0-0.968,0.024-1.448,0.064c-0.256,0.032-25.136,1.752-44.352-15.808
		c-16.28-14.856-24.528-39.568-24.528-73.456c0-74.824,73.064-104.672,76.136-105.896
		C159.639,140.678,162.647,137.95,164.455,134.678z"/>
	<path style="fill:#603916;" d="M233.863,209.27c0.128,0.072,12.592,7.496,12.592,18.888c0,8.832,7.168,16,16,16s16-7.168,16-16
		c0-24.2-18.16-40.784-28.88-46.76c-7.656-4.272-17.264-1.528-21.608,6.088C223.615,195.102,226.287,204.846,233.863,209.27z"/>
</g>
<g>
</g>
<g>
</g>
<g>
</g>
<g>
</g>
<g>
</g>
<g>
</g>
<g>
</g>
<g>
</g>
<g>
</g>
<g>
</g>
<g>
</g>
<g>
</g>
<g>
</g>
<g>
</g>
<g>
</g>
</svg>
