<?xml version="1.0" encoding="iso-8859-1"?>
<!-- Generator: Adobe Illustrator 19.0.0, SVG Export Plug-In . SVG Version: 6.00 Build 0)  -->
<svg version="1.1" id="Capa_1" xmlns="http://www.w3.org/2000/svg" xmlns:xlink="http://www.w3.org/1999/xlink" x="0px" y="0px"
	 viewBox="0 0 383.958 383.958" style="enable-background:new 0 0 383.958 383.958;" xml:space="preserve">
<path style="fill:#9DC85C;" d="M275.603,93.054c0,21.328,17.56,38.632,39.24,38.624c21.72,0,39.296-17.288,39.304-38.624
	l0.04-37.224l-0.944-0.904l-38.44-0.56c-21.696,0.016-39.264,17.304-39.264,38.624"/>
<g>
	<path style="fill:#A07DFF;" d="M193.131,127.318c-20.888,20.536-54.744,20.536-75.608,0c-20.84-20.536-20.84-53.808,0-74.344
		c20.864-20.536,54.72-20.536,75.608,0C214.003,73.502,213.987,106.774,193.131,127.318z"/>
	<path style="fill:#A07DFF;" d="M268.723,201.662c-20.88,20.536-54.736,20.528-75.584,0c-20.888-20.536-20.888-53.808,0-74.344
		c20.856-20.536,54.704-20.536,75.584,0C289.571,147.838,289.571,181.118,268.723,201.662z"/>
	<path style="fill:#A07DFF;" d="M154.755,239.398c-20.864,20.528-54.736,20.528-75.6,0c-20.848-20.528-20.848-53.824,0-74.352
		c20.864-20.528,54.72-20.528,75.6,0.008C175.627,185.582,175.627,218.87,154.755,239.398"/>
	<path style="fill:#A07DFF;" d="M230.355,313.742c-20.88,20.528-54.728,20.536-75.6,0c-20.864-20.528-20.864-53.816,0-74.344
		c20.872-20.528,54.72-20.528,75.584,0C251.227,259.934,251.227,293.214,230.355,313.742z"/>
	<path style="fill:#A07DFF;" d="M115.235,352.606c-20.848,20.52-54.736,20.52-75.592,0c-20.896-20.528-20.88-53.816,0-74.344
		c20.856-20.528,54.744-20.528,75.592,0C136.107,298.79,136.107,332.078,115.235,352.606z"/>
	<path style="fill:#A07DFF;" d="M344.315,275.998c-20.872,20.528-54.744,20.528-75.592,0c-20.88-20.528-20.88-53.808,0-74.344
		c20.848-20.536,54.736-20.536,75.592,0C365.195,222.19,365.195,255.478,344.315,275.998z"/>
</g>
<path style="fill:#603916;" d="M77.443,383.958c17.76,0,35.504-6.648,49.024-19.952c10.32-10.144,16.936-22.944,19.352-36.832
	c13.2,11.888,29.944,17.912,46.736,17.912c17.752,0,35.504-6.648,49.024-19.936c9.856-9.696,16.392-21.784,19.072-34.952
	c13.064,11.384,29.44,17.152,45.872,17.152c17.752,0,35.504-6.656,49.024-19.952c13.168-12.944,20.432-30.2,20.432-48.56
	c0-18.368-7.256-35.624-20.44-48.584c-15.16-14.92-35.64-21.472-55.48-19.664c0.184-2.024,0.304-4.064,0.304-6.128
	c0-6.728-1-13.304-2.88-19.576c5.528,1.808,11.36,2.792,17.352,2.792c0.008,0,0.008,0,0.016,0c0,0,0,0,0.008,0
	c30.48,0,55.288-24.504,55.296-54.608l0.04-37.224c0.008-4.36-1.776-8.544-4.928-11.568l-0.944-0.904
	c-2.92-2.8-6.792-4.384-10.832-4.448l-38.68-0.56c-16.528,0.016-31.352,7.272-41.488,18.68c2.76-11.112,8.496-21.336,16.944-29.64
	c6.304-6.192,6.384-16.328,0.184-22.624c-6.2-6.304-16.32-6.384-22.624-0.184c-18.328,18.024-28.424,42.016-28.424,67.544
	c0,8.528,1.224,16.856,3.408,24.88c-6.056-1.032-12.224-1.312-18.336-0.752c0.184-2.032,0.304-4.08,0.304-6.152
	c-0.008-18.352-7.264-35.592-20.432-48.544c-27.048-26.584-71.04-26.584-98.056,0.008C93.131,54.542,85.883,71.79,85.883,90.15
	c0,16.728,6.072,32.496,17.096,44.984c-12.856,2.584-25.112,8.736-35.064,18.528c-13.168,12.968-20.416,30.216-20.416,48.584
	c0,17.08,6.344,33.152,17.824,45.752c-13.52,2.344-26.48,8.6-36.904,18.864c-13.192,12.96-20.448,30.224-20.44,48.6
	c0,18.36,7.264,35.608,20.448,48.552C41.939,377.31,59.691,383.958,77.443,383.958z M219.139,302.334
	c-14.672,14.416-38.504,14.416-53.168,0c-7.008-6.896-10.864-16.048-10.864-25.768s3.856-18.872,10.864-25.76
	c7.328-7.2,16.952-10.808,26.576-10.808s19.24,3.608,26.568,10.816c7.024,6.896,10.888,16.048,10.888,25.768
	C230.011,286.294,226.147,295.438,219.139,302.334z M306.507,202.238c9.624,0,19.256,3.608,26.584,10.832
	c7.024,6.896,10.888,16.048,10.888,25.768c0,9.712-3.864,18.856-10.88,25.752l0,0c-14.672,14.424-38.512,14.424-53.16,0
	c-7.016-6.896-10.88-16.04-10.88-25.752s3.864-18.856,10.872-25.76l0.008-0.008l0.008-0.008
	C287.267,205.846,296.891,202.238,306.507,202.238z M314.571,70.366l23.6,0.344l-0.024,22.336
	c-0.008,12.48-10.456,22.632-23.304,22.632c-0.008,0-0.008,0-0.008,0c-6.248,0-12.12-2.384-16.512-6.712
	c-4.336-4.264-6.72-9.912-6.72-15.912c0-0.376-0.016-0.744-0.04-1.112C292.131,79.966,302.339,70.374,314.571,70.366z
	 M230.915,127.902c9.624,0,19.248,3.608,26.576,10.816c7.008,6.896,10.864,16.04,10.864,25.76c0,9.72-3.856,18.88-10.864,25.784
	c-14.664,14.416-38.504,14.408-53.144-0.008c-7.024-6.904-10.888-16.048-10.888-25.76c0-9.704,3.864-18.84,10.88-25.752l0.008-0.008
	l0.008-0.008C211.683,131.502,221.299,127.902,230.915,127.902z M128.747,64.374c7.328-7.208,16.952-10.808,26.576-10.808
	s19.256,3.608,26.592,10.816c7,6.888,10.856,16.032,10.864,25.744c0,9.712-3.856,18.864-10.856,25.776c0,0-0.008,0.008-0.016,0.008
	c-0.008,0.008-0.008,0.008-0.016,0.016c-14.672,14.408-38.512,14.4-53.152,0c-7-6.904-10.856-16.056-10.856-25.776
	C117.891,80.422,121.755,71.27,128.747,64.374z M90.371,176.454c7.328-7.2,16.944-10.808,26.568-10.808
	c9.632,0,19.256,3.608,26.592,10.824c7.016,6.896,10.872,16.04,10.872,25.76s-3.856,18.872-10.872,25.768l0,0
	c-14.648,14.416-38.504,14.424-53.16,0c-7.008-6.896-10.864-16.048-10.864-25.768C79.507,192.502,83.371,183.342,90.371,176.454z
	 M50.859,289.662c7.336-7.208,16.952-10.816,26.576-10.816s19.248,3.608,26.576,10.816c7.008,6.904,10.864,16.056,10.864,25.776
	s-3.856,18.864-10.864,25.76c0,0,0,0-0.008,0c-14.64,14.416-38.488,14.416-53.16-0.008c-7.008-6.888-10.864-16.032-10.864-25.736
	C39.971,305.726,43.835,296.566,50.859,289.662z"/>
<g>
</g>
<g>
</g>
<g>
</g>
<g>
</g>
<g>
</g>
<g>
</g>
<g>
</g>
<g>
</g>
<g>
</g>
<g>
</g>
<g>
</g>
<g>
</g>
<g>
</g>
<g>
</g>
<g>
</g>
</svg>
