<?xml version="1.0" encoding="iso-8859-1"?>
<!-- Generator: Adobe Illustrator 19.0.0, SVG Export Plug-In . SVG Version: 6.00 Build 0)  -->
<svg version="1.1" id="Capa_1" xmlns="http://www.w3.org/2000/svg" xmlns:xlink="http://www.w3.org/1999/xlink" x="0px" y="0px"
	 viewBox="0 0 384 384" style="enable-background:new 0 0 384 384;" xml:space="preserve">
<path style="fill:#9DC85C;" d="M192.16,368c0,0-0.08-0.08-0.16-0.32c1.92-4.72,28.64-67.36,64.32-116.56
	c23.6-32.64,51.12-59.36,78-59.36C334.32,191.76,362.08,367.76,192.16,368z"/>
<path style="fill:#FFEB97;" d="M256.32,251.12c-35.68,49.2-62.4,111.84-64.32,116.56c-1.92-4.72-28.48-66.8-63.84-115.92
	c-4.88-77.44,10.4-174.4,10.4-174.4S148.88,16,192.16,16s53.68,61.36,53.68,61.36S260.96,173.84,256.32,251.12z"/>
<path style="fill:#9DC85C;" d="M192,367.68c-0.08,0.24-0.16,0.32-0.16,0.32C21.92,367.76,49.68,191.76,49.68,191.76
	c27.04,0,54.72,27.12,78.48,60C163.52,300.88,190.08,362.96,192,367.68z"/>
<g>
	<path style="fill:#603916;" d="M334.32,175.76c-19.928,0-40.152,10.128-61.232,30.744c-1.184-65.36-10.936-128.416-11.472-131.824
		C256.912,46.944,236.992,0,192.16,0c-44.848,0-64.712,46.96-69.408,74.864c-0.512,3.264-10.352,66.544-11.456,132.072
		c-21.272-20.92-41.624-31.176-61.616-31.176c-7.872,0-14.576,5.728-15.808,13.504c-0.568,3.592-13.312,88.632,35.44,145.76
		c27.664,32.424,68.88,48.896,122.504,48.976c0.008,0,0.016,0,0.024,0h0.32c0.008,0,0.016,0,0.024,0
		c53.616-0.072,94.832-16.552,122.496-48.976c48.76-57.128,36.016-142.168,35.448-145.76
		C348.896,181.496,342.192,175.76,334.32,175.76z M192.16,32c27.032,0,36.44,40.824,37.712,47h-12.008c-8.832,0-16,7.168-16,16
		s7.168,16,16,16h16.28c2.256,19.336,4.856,45.76,6.184,73.816h-22.464c-8.832,0-16,7.168-16,16s7.168,16,16,16H241.2
		c0.048,9.728-0.128,19.392-0.592,28.784c-0.648,0.92-1.264,1.856-1.904,2.784c-1.416,2.04-2.816,4.08-4.2,6.144
		c-1.016,1.512-2.016,3.024-3.008,4.544c-1.344,2.056-2.664,4.104-3.976,6.168c-0.976,1.544-1.944,3.08-2.904,4.624
		c-1.272,2.056-2.52,4.096-3.752,6.144c-0.928,1.544-1.848,3.08-2.752,4.608c-1.2,2.04-2.368,4.056-3.528,6.08
		c-0.872,1.52-1.744,3.032-2.592,4.544c-1.128,2-2.208,3.952-3.288,5.92c-0.816,1.488-1.648,2.976-2.44,4.44
		c-1.048,1.936-2.04,3.808-3.04,5.696c-0.752,1.416-1.512,2.84-2.232,4.216c-0.984,1.888-1.904,3.696-2.84,5.52
		c-0.664,1.296-1.352,2.616-1.984,3.88c-0.992,1.96-1.904,3.816-2.824,5.68c-0.448,0.912-0.944,1.888-1.376,2.768
		c-0.472-0.96-1-2.008-1.488-3c-0.88-1.776-1.744-3.536-2.688-5.4c-0.64-1.264-1.328-2.592-1.992-3.888
		c-0.92-1.808-1.832-3.592-2.808-5.456c-0.728-1.4-1.504-2.84-2.256-4.272c-0.976-1.848-1.944-3.68-2.968-5.576
		c-0.816-1.504-1.664-3.032-2.504-4.568c-1.04-1.896-2.08-3.784-3.168-5.712c-0.864-1.544-1.76-3.088-2.648-4.648
		c-1.128-1.96-2.256-3.92-3.416-5.896c-0.92-1.568-1.856-3.128-2.8-4.704c-1.184-1.984-2.384-3.96-3.608-5.944
		c-0.976-1.584-1.96-3.152-2.952-4.728c-1.256-1.992-2.52-3.968-3.808-5.952c-1.008-1.552-2.024-3.096-3.048-4.64
		c-1.328-1.992-2.672-3.96-4.032-5.928c-0.64-0.928-1.264-1.888-1.912-2.808c-0.504-9.6-0.688-19.488-0.656-29.44h22.488
		c8.832,0,16-7.168,16-16s-7.168-16-16-16h-21.648c1.312-28.072,3.92-54.504,6.184-73.816h15.464c8.832,0,16-7.168,16-16
		s-7.168-16-16-16h-11.16C155.936,72.304,165.488,32,192.16,32z M93.768,314.384c-27.6-32.232-30.408-78.256-29.616-102.936
		c14.952,7.056,32.552,24.096,51.024,49.664c2.544,3.528,5.024,7.144,7.464,10.776c0.768,1.152,1.52,2.312,2.28,3.472
		c1.672,2.544,3.32,5.088,4.936,7.656c0.816,1.296,1.624,2.592,2.432,3.896c1.56,2.536,3.096,5.064,4.6,7.584
		c0.704,1.184,1.424,2.376,2.112,3.552c1.896,3.24,3.744,6.456,5.528,9.64c0.224,0.392,0.456,0.792,0.672,1.184
		c1.992,3.568,3.896,7.064,5.736,10.496c0.616,1.152,1.192,2.264,1.792,3.392c1.224,2.312,2.416,4.592,3.56,6.816
		c0.616,1.192,1.216,2.368,1.808,3.536c1.088,2.136,2.128,4.216,3.136,6.24c0.504,1.008,1.016,2.032,1.496,3.016
		c1.216,2.472,2.36,4.84,3.432,7.088c0.152,0.312,0.32,0.656,0.464,0.96C135.216,346.312,110.776,334.248,93.768,314.384z
		 M290.344,314.256c-17.016,19.944-41.496,32.056-72.976,36.168c0.064-0.144,0.144-0.304,0.216-0.448
		c1.176-2.464,2.448-5.096,3.792-7.832c0.44-0.904,0.92-1.848,1.376-2.776c1.072-2.152,2.184-4.368,3.344-6.648
		c0.544-1.072,1.104-2.152,1.664-3.248c1.232-2.392,2.52-4.856,3.848-7.352c0.528-0.992,1.032-1.968,1.576-2.976
		c3.76-7.016,7.848-14.344,12.208-21.776c0.592-1.008,1.208-2.024,1.816-3.04c1.624-2.728,3.28-5.456,4.976-8.192
		c0.728-1.176,1.472-2.352,2.208-3.528c1.704-2.704,3.448-5.384,5.216-8.056c0.704-1.064,1.4-2.136,2.112-3.192
		c2.472-3.672,4.992-7.304,7.56-10.856c18.272-25.28,35.728-42.112,50.608-49.088C320.744,235.992,317.992,281.848,290.344,314.256z
		"/>
	<path style="fill:#603916;" d="M167.016,147.904c0,8.832,7.168,16,16,16h18.336c8.832,0,16-7.168,16-16s-7.168-16-16-16h-18.336
		C174.184,131.904,167.016,139.064,167.016,147.904z"/>
	<path style="fill:#603916;" d="M183.016,237.72c-8.832,0-16,7.168-16,16s7.168,16,16,16h18.336c8.832,0,16-7.168,16-16
		s-7.168-16-16-16H183.016z"/>
</g>
<g>
</g>
<g>
</g>
<g>
</g>
<g>
</g>
<g>
</g>
<g>
</g>
<g>
</g>
<g>
</g>
<g>
</g>
<g>
</g>
<g>
</g>
<g>
</g>
<g>
</g>
<g>
</g>
<g>
</g>
</svg>
