<?xml version="1.0" encoding="iso-8859-1"?>
<!-- Generator: Adobe Illustrator 19.0.0, SVG Export Plug-In . SVG Version: 6.00 Build 0)  -->
<svg version="1.1" id="Capa_1" xmlns="http://www.w3.org/2000/svg" xmlns:xlink="http://www.w3.org/1999/xlink" x="0px" y="0px"
	 viewBox="0 0 384.005 384.005" style="enable-background:new 0 0 384.005 384.005;" xml:space="preserve">
<path style="fill:#99336A;" d="M269.364,266.005c0,32.88-21.28,60.88-51.04,71.52c0,0-11.04,30.48-26.48,30.48
	s-27.68-30.88-27.68-30.88c-29.12-10.96-49.84-38.64-49.84-71.12c0-34.64,23.68-63.92,56-73.04c6.8-1.92,14-2.96,21.52-2.96
	C234.644,190.005,269.364,224.005,269.364,266.005z"/>
<path style="fill:#69BE5D;" d="M165.028,94.141c14.824,14.544,38.88,14.544,53.712,0c14.824-14.544,14.832-38.144,0-52.696
	l-26.736-25.44l-27.072,25.44C150.1,55.997,150.1,79.597,164.94,94.141"/>
<g>
	<path style="fill:#9DC85C;" d="M244.756,100.333c4.056,20.184,24.032,33.32,44.6,29.336c20.576-3.984,33.984-23.568,29.92-43.76
		l-7.304-35.944l-37.376,6.544c-20.584,3.976-33.984,23.584-29.912,43.776"/>
	<path style="fill:#9DC85C;" d="M139.252,100.333c-4.056,20.184-24.032,33.32-44.6,29.336c-20.576-3.984-33.984-23.568-29.92-43.76
		l7.008-35.808l37.672,6.416c20.584,3.976,33.976,23.584,29.912,43.776"/>
</g>
<path style="fill:#603916;" d="M282.004,146.373c3.424,0,6.904-0.328,10.392-1c14.304-2.768,26.608-10.896,34.648-22.896
	c7.896-11.776,10.704-25.88,7.912-39.76l-7.304-35.944c-1.72-8.496-9.872-14.032-18.44-12.576l-37.656,6.608
	c-10.488,2.024-19.88,6.96-27.328,14.168c-2.344-9.384-7.224-18.024-14.464-25.12l-26.736-25.44
	c-6.152-5.856-15.808-5.888-21.984-0.072l-27.32,25.68c-7.048,6.92-11.864,15.432-14.224,24.712
	c-7.424-7.08-16.784-11.944-27.408-14L74.42,34.317c-8.56-1.432-16.712,4.176-18.384,12.696l-6.992,35.728
	c-2.784,13.848,0.024,27.96,7.92,39.728c8.04,12,20.344,20.128,34.648,22.896c3.488,0.672,6.96,1,10.392,1
	c5.32,0,10.472-0.92,15.424-2.392l28.608,41.856c-28.856,16.04-47.712,46.576-47.712,80.168c0,35.624,21.328,68.304,53.744,83.376
	c6.08,12.832,19.424,34.632,39.776,34.632c20.368,0,32.984-21.296,38.752-34.184c33.048-14.848,54.768-47.664,54.768-83.816
	c0-34.272-19.184-64.168-47.504-80l28.728-42.024C271.532,145.453,276.684,146.373,282.004,146.373z M263.5,81.509
	c3.256-4.856,8.272-8.152,13.856-9.232l22.032-3.864l4.192,20.656c1.096,5.424-0.016,10.968-3.128,15.6
	c-3.256,4.856-8.28,8.16-14.152,9.296c-11.936,2.304-23.544-5.216-25.872-16.784c-0.072-0.368-0.16-0.728-0.256-1.088
	C259.428,90.997,260.588,85.853,263.5,81.509z M154.276,106.037c0.24,0.216,0.472,0.44,0.72,0.64
	c6.112,5.648,13.296,9.416,20.848,11.72v54.344l-31.808-46.536C148.748,120.413,152.348,113.645,154.276,106.037z M207.844,118.613
	c7.976-2.416,15.48-6.672,21.816-12.792c1.912,7.696,5.552,14.536,10.304,20.392l-32.12,46.984V118.613z M175.892,53.109
	l16.048-15.08l15.6,14.84c4.08,4,6.328,9.304,6.328,14.92c0,5.624-2.248,10.928-6.328,14.928c-4.296,4.208-9.928,6.312-15.56,6.336
	c-0.04,0-0.088-0.016-0.128-0.016c-0.032,0-0.064,0.008-0.088,0.008c-5.624-0.032-11.24-2.136-15.52-6.336
	c-0.264-0.264-0.536-0.512-0.824-0.752c-3.616-3.904-5.6-8.888-5.6-14.168C169.812,62.173,172.06,56.869,175.892,53.109z
	 M97.692,113.965c-5.872-1.136-10.896-4.44-14.152-9.296c-3.104-4.64-4.216-10.176-3.112-15.68l4.008-20.496l21.928,3.728
	c5.864,1.136,10.88,4.432,14.136,9.288c2.912,4.344,4.072,9.488,3.312,14.584c-0.096,0.352-0.184,0.72-0.256,1.088
	C121.236,108.741,109.636,116.269,97.692,113.965z M212.94,322.461c-4.496,1.608-8.032,5.136-9.656,9.616
	c-2.744,7.576-8.104,16.448-11.496,19.344c-3.624-2.896-9.488-12.048-12.752-20.184c-1.664-4.192-5.016-7.496-9.24-9.08
	c-21.296-8.016-36.168-27.184-38.904-48.976c8.024,4.432,18.24,8.36,31.384,10.768c0.976,0.176,1.944,0.264,2.896,0.264
	c7.576,0,14.312-5.408,15.72-13.128c1.592-8.688-4.168-17.024-12.856-18.616c-17.656-3.232-26.56-9.632-30.776-13.96
	c7.6-14.296,20.912-25.488,37.416-30.136c5.536-1.568,11.312-2.36,17.168-2.36c33.92,0,61.52,26.912,61.52,60
	C253.364,291.125,237.116,313.813,212.94,322.461z"/>
<g>
</g>
<g>
</g>
<g>
</g>
<g>
</g>
<g>
</g>
<g>
</g>
<g>
</g>
<g>
</g>
<g>
</g>
<g>
</g>
<g>
</g>
<g>
</g>
<g>
</g>
<g>
</g>
<g>
</g>
</svg>
