<?xml version="1.0" encoding="iso-8859-1"?>
<!-- Generator: Adobe Illustrator 19.0.0, SVG Export Plug-In . SVG Version: 6.00 Build 0)  -->
<svg version="1.1" id="Capa_1" xmlns="http://www.w3.org/2000/svg" xmlns:xlink="http://www.w3.org/1999/xlink" x="0px" y="0px"
	 viewBox="0 0 384.002 384.002" style="enable-background:new 0 0 384.002 384.002;" xml:space="preserve">
<path style="fill:#FFEB97;" d="M310.952,327.184c-69.28,60.24-174.4,53.04-234.96-15.92c0,0-8.96-9.36-13.28-21.84
	c-4-11.36-4.24-25.28,9.36-37.12c23.68-20.64,63.2,7.44,63.2,7.44c35.28,21.36,74.32,23.12,109.76-7.76
	c35.6-30.88,39.12-69.6,22.64-107.36c0,0-12.56-23.68-9.04-44.32c1.12-7.04,4.24-13.76,10.24-19.04
	c28.56-24.8,58.08,11.92,58.08,11.92C387.432,162.224,380.232,266.944,310.952,327.184z"/>
<path style="fill:#9DC85C;" d="M245.032,251.984c-35.44,30.88-74.48,29.12-109.76,7.76c0,0-39.52-28.08-63.2-7.44
	c-13.6,11.84-13.36,25.76-9.36,37.12c-9.92-6.16-23.2-13.6-31.68-22.32c0,0-29.44-27.92-5.92-50.56
	c19.52-18.72,54.72,3.76,54.72,3.76c22.56,12.16,46.4,15.52,68.88,5.84c8.72-3.68,17.12-9.36,25.28-17.12
	c29.28-28.08,30.64-61.52,14.88-93.36c0,0-21.2-35.76-1.6-54.56c23.52-22.56,50.48,7.84,50.48,7.84
	c6.8,7.04,15.84,23.28,20.88,31.36c-3.52,20.64,9.04,44.32,9.04,44.32C284.152,182.384,280.632,221.104,245.032,251.984z"/>
<g>
	<path style="fill:#603916;" d="M142.384,211.448c-16.568,7.136-34.896,5.448-54.488-4.976
		c-17.192-10.776-51.504-22.896-73.88-1.456C4.808,213.888-0.04,224.808,0,236.608c0.088,22.544,17.984,40.168,19.56,41.648
		c8.584,8.832,20.464,16.064,30.008,21.88l0.264,0.168c5.552,12.36,13.52,20.904,14.128,21.52
		c36.088,41.088,86.776,62.128,137.696,62.128c42.576,0,85.304-14.704,119.792-44.688c36.768-31.976,58.832-76.296,62.128-124.792
		c3.288-48.432-12.544-95.248-44.16-131.312c-1.976-2.456-20.016-24.064-45.056-26.312c-12.944-1.168-25.352,3.112-36.064,12.4
		c-0.024,0.024-0.04,0.048-0.064,0.064c-2.888-4.272-5.792-8.176-8.52-10.992c-1.864-2.104-18.904-20.608-41.472-21.52
		c-2.432-0.104-4.816,0.048-7.168,0.352c-6.376-10.32-18.192-25.752-36.216-35.256c-7.824-4.112-17.488-1.128-21.616,6.696
		c-4.12,7.824-1.12,17.496,6.696,21.616c11.088,5.848,18.84,15.752,23.232,22.64c-18.304,21.632-8.08,53.728,1.6,70.392
		c13.872,28.4,9.888,53.368-11.808,74.168C156.28,203.792,149.384,208.488,142.384,211.448z M32,236.488
		c-0.008-2.024,0.464-4.816,4.184-8.4c2.208-2.112,5.384-2.952,8.992-2.952c8.952,0,20.488,5.16,26.008,8.624
		c-1.032,0.52-2.032,1.16-3.048,1.768c-0.568,0.344-1.152,0.624-1.712,0.992c-1.664,1.104-3.288,2.328-4.864,3.704
		c-1.88,1.64-3.576,3.36-5.152,5.128c-0.512,0.576-0.96,1.176-1.44,1.768c-1.008,1.232-1.968,2.48-2.832,3.768
		c-0.48,0.712-0.92,1.424-1.352,2.152c-0.752,1.256-1.432,2.528-2.048,3.824c-0.352,0.736-0.712,1.456-1.016,2.208
		c-0.152,0.36-0.352,0.704-0.488,1.064c-1.888-1.512-3.648-3.072-5.192-4.656C40.056,253.608,32.032,244.312,32,236.488z
		 M291.432,88.72c9.792,0.832,20.216,11.04,23.488,15.008c26.4,30.136,39.448,68.696,36.736,108.576
		c-2.712,39.944-20.896,76.456-51.2,102.808C238,369.432,142.688,362.968,87.608,300.256c-0.064-0.072-6.712-7.216-9.808-16.144
		c-2.984-8.472-1.6-14.192,4.784-19.744c0.736-0.64,1.528-1.184,2.36-1.64c0.256-0.144,0.544-0.224,0.808-0.352
		c0.6-0.28,1.192-0.568,1.832-0.768c0.344-0.112,0.704-0.168,1.056-0.256c0.592-0.144,1.184-0.304,1.8-0.392
		c0.4-0.056,0.816-0.072,1.224-0.104c0.6-0.048,1.192-0.112,1.808-0.12c0.272,0,0.56,0.024,0.84,0.024
		c1.136,0.024,2.288,0.112,3.456,0.272c0.312,0.04,0.632,0.072,0.944,0.128c1.376,0.216,2.76,0.504,4.144,0.856
		c0.232,0.064,0.464,0.136,0.704,0.2c1.2,0.328,2.4,0.696,3.584,1.104c0.344,0.12,0.688,0.232,1.032,0.352
		c1.344,0.488,2.672,1,3.96,1.552c0.184,0.08,0.36,0.168,0.552,0.248c1.136,0.496,2.232,1.008,3.288,1.528
		c0.32,0.16,0.648,0.312,0.96,0.472c1.152,0.584,2.272,1.168,3.296,1.736c0.104,0.056,0.184,0.112,0.288,0.168
		c0.952,0.536,1.824,1.048,2.632,1.544c0.232,0.144,0.456,0.28,0.672,0.416c0.816,0.512,1.584,1.016,2.2,1.44
		c0.32,0.224,0.648,0.44,0.984,0.648c33.52,20.304,67.52,23.544,98.472,9.992c0.072-0.032,0.144-0.056,0.216-0.088
		c0.656-0.288,1.296-0.648,1.952-0.952c9.64-4.488,18.976-10.544,27.888-18.312c7.176-6.224,13.336-12.856,18.48-19.832
		c0.008-0.016,0.016-0.024,0.024-0.04c3.416-4.64,6.376-9.424,8.88-14.36c13.832-27.2,13.832-58.632-0.568-91.616
		c-0.152-0.344-0.336-0.728-0.504-1.056c-2.776-5.32-9.528-21.824-7.392-34.352c0.64-4.016,2.28-7.144,4.928-9.472
		C284.672,88.728,288.792,88.488,291.432,88.72z M185.064,220.568c32.176-30.856,38.624-70.64,18.144-112
		c-0.176-0.36-0.368-0.712-0.576-1.064c-2.92-4.928-12.864-26.624-4.288-34.856c3.712-3.56,6.52-3.944,8.544-3.872
		c7.664,0.264,16.472,8.12,19.352,11.272c4.072,4.224,10.616,15.12,14.944,22.336c0.32,0.536,0.64,1.072,0.952,1.584
		c-0.016,0.232,0.008,0.464,0,0.696c-0.12,2.4-0.128,4.792,0,7.152c0.016,0.304,0.048,0.6,0.064,0.912
		c0.16,2.448,0.408,4.872,0.776,7.224c0.008,0.072,0.024,0.144,0.04,0.216c0.376,2.416,0.856,4.76,1.384,7.024
		c0.032,0.128,0.056,0.256,0.08,0.376c0.528,2.2,1.112,4.296,1.72,6.296c0.072,0.232,0.136,0.456,0.208,0.688
		c0.6,1.92,1.216,3.72,1.832,5.392c0.08,0.224,0.16,0.44,0.24,0.664c0.608,1.632,1.2,3.128,1.768,4.464
		c0.072,0.176,0.144,0.328,0.216,0.504c0.56,1.312,1.08,2.48,1.536,3.44c0.048,0.096,0.072,0.152,0.112,0.24
		c0.448,0.944,0.84,1.736,1.104,2.264c0.944,2.176,1.8,4.336,2.568,6.48c11.608,32.08,4.472,59.616-21.264,81.944
		c-27.368,23.848-57.816,26.008-90.496,6.408c-0.544-0.376-1.112-0.768-1.688-1.152c4.264-1.088,8.472-2.52,12.592-4.304
		C165.392,236.472,175.512,229.656,185.064,220.568z"/>
	<path style="fill:#603916;" d="M275.472,266.84c-10.216,17.512-27.04,24.32-35.12,27.592l-1.024,0.416
		c-8.184,3.336-12.112,12.672-8.776,20.856c2.528,6.208,8.504,9.968,14.824,9.968c2.008,0,4.056-0.384,6.032-1.184l0.96-0.384
		c10.48-4.24,35.024-14.176,50.752-41.128c4.456-7.632,1.872-17.432-5.76-21.88C289.72,256.624,279.928,259.208,275.472,266.84z"/>
</g>
<g>
</g>
<g>
</g>
<g>
</g>
<g>
</g>
<g>
</g>
<g>
</g>
<g>
</g>
<g>
</g>
<g>
</g>
<g>
</g>
<g>
</g>
<g>
</g>
<g>
</g>
<g>
</g>
<g>
</g>
</svg>
