<?xml version="1.0" encoding="iso-8859-1"?>
<!-- Generator: Adobe Illustrator 19.0.0, SVG Export Plug-In . SVG Version: 6.00 Build 0)  -->
<svg version="1.1" id="Capa_1" xmlns="http://www.w3.org/2000/svg" xmlns:xlink="http://www.w3.org/1999/xlink" x="0px" y="0px"
	 viewBox="0 0 384 384" style="enable-background:new 0 0 384 384;" xml:space="preserve">
<path style="fill:#9DC85C;" d="M80.865,321.44c-61.184-62.088-47.448-150.552-0.04-224.792c0,0,46.344-80.648,109.728-80.648
	c63.368,0,112.08,80.64,112.08,80.64c48.744,70.864,61.144,162.712,0,224.8c-61.136,62.064-160.264,62.088-221.432,0"/>
<ellipse style="fill:#80764C;" cx="191.969" cy="226.4" rx="67.744" ry="68.776"/>
<g>
	<path style="fill:#603916;" d="M191.921,384c46.144,0,89.504-18.232,122.112-51.328c60.848-61.784,61.624-157.816,2.032-244.736
		C311.473,80.48,260.297,0,190.553,0C118.737,0,69.041,85.056,67.345,88.04C8.513,180.168,9.313,271.624,69.473,332.672
		c0.696,0.696,1.432,1.328,2.208,1.872C104.065,366.456,146.657,384,191.921,384z M94.705,104.624
		C106.305,84.424,146.153,32,190.553,32c53.488,0,97.952,72.2,98.384,72.912c0.168,0.272,0.336,0.536,0.512,0.792
		c38.536,56.04,62.136,143.224,1.784,204.504C264.697,337.16,229.425,352,191.921,352s-72.776-14.832-99.32-41.784
		c-0.632-0.64-1.304-1.216-2.016-1.728C43.345,258.768,44.665,183.008,94.705,104.624z"/>
	<path style="fill:#603916;" d="M191.969,311.176c46.168,0,83.744-38.024,83.744-84.776s-37.576-84.776-83.744-84.776
		s-83.744,38.032-83.744,84.776S145.801,311.176,191.969,311.176z M191.969,173.624c28.528,0,51.744,23.672,51.744,52.776
		c0,29.096-23.208,52.776-51.744,52.776s-51.744-23.672-51.744-52.776C140.225,197.304,163.441,173.624,191.969,173.624z"/>
	<path style="fill:#603916;" d="M166.273,124.12c2.832,0,5.664-0.744,8.208-2.272c1.72-0.912,17.736-8.872,36.024,0.288
		c7.928,3.944,17.504,0.76,21.472-7.152c3.96-7.896,0.76-17.512-7.144-21.472c-32.872-16.464-62.744-2.408-68.36,1.952
		c-6.992,5.408-8.272,15.456-2.864,22.448C156.769,121.992,161.489,124.12,166.273,124.12z"/>
</g>
<g>
</g>
<g>
</g>
<g>
</g>
<g>
</g>
<g>
</g>
<g>
</g>
<g>
</g>
<g>
</g>
<g>
</g>
<g>
</g>
<g>
</g>
<g>
</g>
<g>
</g>
<g>
</g>
<g>
</g>
</svg>
