<?xml version="1.0" encoding="iso-8859-1"?>
<!-- Generator: Adobe Illustrator 19.0.0, SVG Export Plug-In . SVG Version: 6.00 Build 0)  -->
<svg version="1.1" id="Capa_1" xmlns="http://www.w3.org/2000/svg" xmlns:xlink="http://www.w3.org/1999/xlink" x="0px" y="0px"
	 viewBox="0 0 384 384" style="enable-background:new 0 0 384 384;" xml:space="preserve">
<path style="fill:#9DC85C;" d="M175.824,145.488L142,178.944l-23.464-23.216l-11.224,57.36l-63.88,63.2
	c-22.68,22.472-39.328,42.488-16.616,64.928c22.688,22.44,42.904,6,65.608-16.464l63.88-63.2l58.08-11.016l-24.624-24.36
	l33.8-33.472l59.248-9.864L258.2,158.504L368,49.88C319.256,1.64,256.368,65.832,256.368,65.832l-45.944,45.44l-23.456-23.2
	l-11.208,57.344L175.824,145.488z"/>
<path style="fill:#603916;" d="M326.48,15.912c-0.2,0-0.4,0-0.608,0c-42.84,0.328-79.4,37.144-80.76,38.536L210.416,88.76
	l-12.2-12.072c-4.2-4.152-10.336-5.656-15.968-3.912c-5.64,1.736-9.856,6.432-10.992,12.216l-10.304,52.688l-18.96,18.752
	l-12.208-12.08c-4.192-4.152-10.336-5.656-15.96-3.92c-5.64,1.736-9.864,6.432-11,12.224l-10.28,52.52L32.16,264.92
	C15.216,281.728-0.016,298.536,0,319.232c0.008,11.936,5.248,23.16,15.576,33.352c11.36,11.24,22.56,15.504,33.128,15.504
	c22.68,0,42.504-19.616,54.984-31.968l60.408-59.768l53.28-10.104c5.84-1.104,10.584-5.36,12.32-11.048
	c1.736-5.688,0.176-11.864-4.048-16.048l-13.136-12.992l18.696-18.52l54.232-9.032c5.928-0.984,10.8-5.208,12.624-10.936
	c1.816-5.728,0.272-11.992-4-16.216l-13.112-12.968l98.296-97.248c3.04-2.992,4.752-7.088,4.752-11.36
	c0-4.272-1.704-8.368-4.744-11.368C364.104,23.512,346.352,15.912,326.48,15.912z M290.952,103.592l-5.28-5.224
	c-6.288-6.208-16.416-6.152-22.632,0.12c-6.216,6.288-6.16,16.416,0.128,22.632l5.04,4.984l-21.248,21.024
	c-3.032,3.008-4.744,7.104-4.744,11.376s1.712,8.368,4.744,11.376l2.352,2.328l-28.368,4.728c-3.264,0.544-6.28,2.088-8.632,4.416
	l-33.8,33.472c-3.032,3-4.744,7.104-4.744,11.368c0,4.272,1.712,8.368,4.744,11.368l2.976,2.936l-28.16,5.336
	c-3.128,0.592-6.008,2.104-8.272,4.344l-15.28,15.12l-2.152-2.128c-6.28-6.208-16.408-6.152-22.632,0.12
	c-6.216,6.288-6.16,16.416,0.12,22.632l1.904,1.888L81.16,313.384c-28.536,28.248-34.4,25.056-43.104,16.456
	C32,323.84,32,320.352,32,319.208c-0.008-5.568,5.584-13.232,11.72-20.144l4.48,4.432c3.12,3.088,7.184,4.624,11.248,4.624
	c4.128,0,8.248-1.584,11.376-4.752c6.216-6.28,6.16-16.416-0.128-22.624l-4.512-4.464l52.384-51.832
	c2.28-2.256,3.832-5.152,4.448-8.304l5.488-28.056l2.24,2.216c6.232,6.168,16.272,6.168,22.504,0l33.824-33.456
	c2.664-2.64,4.216-6.024,4.608-9.536l5.256-26.896l2.224,2.2c6.232,6.168,16.272,6.168,22.504,0L267.792,77
	c0.28-0.288,29.112-28.888,58.328-29.112c5.968-0.272,11.896,1.184,17.312,3.752L290.952,103.592z"/>
<g>
</g>
<g>
</g>
<g>
</g>
<g>
</g>
<g>
</g>
<g>
</g>
<g>
</g>
<g>
</g>
<g>
</g>
<g>
</g>
<g>
</g>
<g>
</g>
<g>
</g>
<g>
</g>
<g>
</g>
</svg>
