<?xml version="1.0" encoding="iso-8859-1"?>
<!-- Generator: Adobe Illustrator 19.0.0, SVG Export Plug-In . SVG Version: 6.00 Build 0)  -->
<svg version="1.1" id="Capa_1" xmlns="http://www.w3.org/2000/svg" xmlns:xlink="http://www.w3.org/1999/xlink" x="0px" y="0px"
	 viewBox="0 0 384.056 384.056" style="enable-background:new 0 0 384.056 384.056;" xml:space="preserve">
<path style="fill:#FFEB97;" d="M282.976,349.44c-24.72,24.72-66.24,24.64-90.96-0.08c-24.72,24.72-65.52,24.8-90.24,0.08
	c-73.28-73.36-50.32-180.24-50.32-180.24c1.84-18.08,9.68-35.68,23.6-49.6c30.96-30.96,81.6-32,113.84-2.96
	c1.04,0.96,2.08,1.92,3.12,2.96c32-32,85.84-32,117.84,0c13.84,13.84,21.68,31.44,23.6,49.44
	C333.456,169.04,353.216,279.12,282.976,349.44z"/>
<path style="fill:#9DC85C;" d="M169.072,47.088c0,17.152,13.896,31.048,31.04,31.048c17.136,0,31.024-13.896,31.024-31.048
	l0.048-29.928l-0.72-0.728L200.048,16c-17.144,0-31.024,13.904-31.024,31.04"/>
<g>
	<path style="fill:#603916;" d="M146.824,384.056c15.832,0,31.672-4.672,45.24-14c31.088,21.032,74.984,17.944,102.224-9.296h0.008
		c73.336-73.416,56.72-183.816,55.008-193.944c-2.472-22.072-12.448-42.832-28.136-58.512
		c-23.72-23.728-57.648-32.664-89.064-26.816c9.216-8.592,15.024-20.8,15.024-34.36l0.048-29.928
		c0.008-4.216-1.656-8.272-4.624-11.28l-0.72-0.728c-2.952-2.984-6.952-4.68-11.152-4.744L200.048,0
		c-21.952,0-40.376,15.144-45.536,35.52c-13.328-5.576-27.744-7.56-41.336-7.56c-8.832,0-16,7.168-16,16s7.168,16,16,16
		c18.168,0,38.008,3.648,49.904,24c-34.04-10.664-72.536-2.472-99.328,24.32c-15.712,15.712-25.68,36.44-28.12,58.456
		C33.304,178.44,14.728,284.92,90.464,360.744C105.992,376.288,126.4,384.056,146.824,384.056z M199.824,32l15.336,0.216
		l-0.024,14.872c0,8.304-6.744,15.048-15.024,15.048c-8.288,0-15.04-6.752-15.04-15.048c0-0.296-0.008-0.592-0.024-0.88
		C185.488,38.304,192.04,32,199.824,32z M67.096,172.56c0.128-0.576,0.216-1.152,0.272-1.736c1.552-15.24,8.128-29.032,19-39.912
		c23.256-23.248,61.176-25.536,87.168-6.176c0.208,3.472,0.344,7.08,0.344,10.928c0,8.832,7.168,16,16,16c8.832,0,16-7.168,16-16
		c0-2.392-0.176-4.528-0.248-6.816c26.032-23.64,67.84-23,92.92,2.072c10.648,10.656,17.4,24.8,18.992,39.816
		c0.048,0.376,0.104,0.76,0.168,1.136c0.184,1.016,17.544,102.584-46.04,166.264c-18.488,18.496-49.776,18.472-68.336-0.08
		c-3.136-3.136-7.224-4.696-11.32-4.696s-8.184,1.56-11.312,4.688c-18.36,18.344-49.312,18.384-67.608,0.088
		C47.064,272.032,66.896,173.512,67.096,172.56z"/>
	<path style="fill:#603916;" d="M190.504,209.512c29.52,0,41.496-21.464,43.696-32.808c1.68-8.672-3.992-17.072-12.664-18.752
		c-8.696-1.68-17.072,3.992-18.76,12.664c-0.056,0.28-1.464,6.904-12.272,6.904c-9.968,0-12.896-5.624-13.704-8.112
		c-2.296-8.36-10.88-13.36-19.336-11.256c-8.568,2.168-13.76,10.856-11.6,19.432C148.648,188.616,161.56,209.512,190.504,209.512z"
		/>
</g>
<g>
</g>
<g>
</g>
<g>
</g>
<g>
</g>
<g>
</g>
<g>
</g>
<g>
</g>
<g>
</g>
<g>
</g>
<g>
</g>
<g>
</g>
<g>
</g>
<g>
</g>
<g>
</g>
<g>
</g>
</svg>
