<svg id="Capa_1" enable-background="new 0 0 512 512" height="512" viewBox="0 0 512 512" width="512" xmlns="http://www.w3.org/2000/svg" xmlns:xlink="http://www.w3.org/1999/xlink"><radialGradient id="SVGID_1_" cx="423.133" cy="182.427" gradientTransform="matrix(.931 0 0 .112 -118.375 436.806)" gradientUnits="userSpaceOnUse" r="247.998"><stop offset="0" stop-color="#c6d0da"/><stop offset=".2432" stop-color="#e0e6eb"/><stop offset=".4962" stop-color="#f6f9f9"/><stop offset=".617" stop-color="#fafcfc"/><stop offset=".8982" stop-color="#fff"/></radialGradient><radialGradient id="SVGID_2_" cx="85.685" cy="303.108" fx="71.803" fy="339.911" gradientTransform="matrix(.762 -.648 .647 .76 -175.697 128.24)" gradientUnits="userSpaceOnUse" r="129.662"><stop offset="0"/><stop offset=".2546" stop-color="#2d3134"/><stop offset=".5405" stop-color="#5a6168"/><stop offset=".7561" stop-color="#758089"/><stop offset=".8745" stop-color="#808b95"/></radialGradient><radialGradient id="SVGID_3_" cx="322.166" cy="365.32" fx="309.227" fy="364.905" gradientTransform="matrix(1 -.01 .005 .523 -1.877 177.56)" gradientUnits="userSpaceOnUse" r="73.111"><stop offset=".1048" stop-color="#4d5961"/><stop offset=".3256" stop-color="#606b74"/><stop offset=".6648" stop-color="#77828c"/><stop offset=".8745" stop-color="#808b95"/></radialGradient><radialGradient id="SVGID_4_" cx="-1910.942" cy="251.706" fx="-1932.815" fy="254.267" gradientTransform="matrix(-.787 -.617 -.616 .786 -1244.016 -1125.18)" gradientUnits="userSpaceOnUse" r="118.544"><stop offset=".0436" stop-color="#4d5961"/><stop offset=".0946" stop-color="#515d66"/><stop offset=".4397" stop-color="#6b7680"/><stop offset=".7495" stop-color="#7b868f"/><stop offset=".992" stop-color="#808b95"/></radialGradient><radialGradient id="SVGID_5_" cx="-21.249" cy="-49.66" fx="-29.161" fy="-44.536" gradientTransform="matrix(-.249 .862 -.726 -.314 34.672 7.144)" gradientUnits="userSpaceOnUse" r="196.511"><stop offset="0" stop-color="#bcd0df"/><stop offset=".1696" stop-color="#a4b5c2"/><stop offset=".3532" stop-color="#909ea9"/><stop offset=".5219" stop-color="#84909a"/><stop offset=".6602" stop-color="#808b95"/></radialGradient><radialGradient id="SVGID_6_" cx="256.321" cy="177.351" fx="181.724" fy="223.6" gradientTransform="matrix(.995 .096 -.064 .668 12.609 34.312)" gradientUnits="userSpaceOnUse" r="271.553"><stop offset="0" stop-color="#b9c1cb"/><stop offset=".5161" stop-color="#a0aab7"/><stop offset="1" stop-color="#808b95"/></radialGradient><radialGradient id="SVGID_7_" cx="171.138" cy="249.529" gradientTransform="matrix(.591 -.807 .832 .609 -137.495 235.526)" gradientUnits="userSpaceOnUse" r="119.75"><stop offset=".0529" stop-color="#808b95"/><stop offset=".5101" stop-color="#9ca6b2"/><stop offset=".5763" stop-color="#a0aab7"/><stop offset=".9152" stop-color="#b3bcc6"/><stop offset="1" stop-color="#b9c1cb"/></radialGradient><radialGradient id="SVGID_8_" cx="206.139" cy="207.177" fx="195.722" fy="216.415" gradientTransform="matrix(.995 .096 -.064 .668 14.299 49.041)" gradientUnits="userSpaceOnUse" r="200.651"><stop offset="0" stop-color="#dae7ef"/><stop offset=".6592" stop-color="#dae4ea"/><stop offset="1" stop-color="#b9c1cb"/></radialGradient><radialGradient id="SVGID_9_" cx="139.407" cy="240.261" gradientTransform="matrix(.591 -.807 .832 .609 -142.764 206.311)" gradientUnits="userSpaceOnUse" r="48.039"><stop offset=".0529" stop-color="#b9c1cb"/><stop offset=".8586" stop-color="#d5dee5"/><stop offset="1" stop-color="#dae4ea"/></radialGradient><radialGradient id="SVGID_10_" cx="75.658" cy="54.442" fx="71.785" fy="48.965" gradientTransform="matrix(.933 -.359 .256 .665 -8.877 45.459)" gradientUnits="userSpaceOnUse" r="47.534"><stop offset=".0027" stop-color="#dae7ef"/><stop offset=".507" stop-color="#dae4ea"/><stop offset="1" stop-color="#c6d0da"/></radialGradient><radialGradient id="SVGID_11_" cx="3.021" cy="85.909" gradientTransform="matrix(-1 0 0 -.66 6.042 142.632)" gradientUnits="userSpaceOnUse" r="179.908"><stop offset="0" stop-color="#c6d0da"/><stop offset=".6113" stop-color="#b0bac6"/><stop offset=".9955" stop-color="#a0aab7"/></radialGradient><radialGradient id="SVGID_12_" cx="35.96" cy="219.262" gradientTransform="matrix(-.2 -.98 1.01 -.206 -178.287 299.735)" gradientUnits="userSpaceOnUse" r="86.366"><stop offset=".121" stop-color="#5e6b75"/><stop offset=".2553" stop-color="#636f79"/><stop offset=".4036" stop-color="#707c86"/><stop offset=".5579" stop-color="#86919b"/><stop offset=".6159" stop-color="#909ba5"/><stop offset=".7757" stop-color="#becbd3"/><stop offset=".8644" stop-color="#dae7ef"/></radialGradient><radialGradient id="SVGID_13_" cx="89.837" cy="188.289" gradientTransform="matrix(-.866 -.501 .516 -.892 70.419 401.28)" gradientUnits="userSpaceOnUse" r="46.759"><stop offset=".5467" stop-color="#5e6b75"/><stop offset="1" stop-color="#4d5961"/></radialGradient><radialGradient id="SVGID_14_" cx="195.854" cy="190.36" gradientTransform="matrix(.171 -.985 1.016 .177 -31.034 349.688)" gradientUnits="userSpaceOnUse" r="152.299"><stop offset="0" stop-color="#a0aab7"/><stop offset=".3525" stop-color="#9da7b4"/><stop offset=".6166" stop-color="#949faa"/><stop offset=".8513" stop-color="#85909a"/><stop offset=".9105" stop-color="#808b95"/></radialGradient><radialGradient id="SVGID_15_" cx="236.446" cy="-35.262" gradientTransform="matrix(-.501 .678 -.571 -.632 366.723 -164.909)" gradientUnits="userSpaceOnUse" r="196.511"><stop offset=".1394" stop-color="#808b95"/><stop offset="1" stop-color="#a0aab7"/></radialGradient><radialGradient id="SVGID_16_" cx="180.848" cy="47.145" gradientTransform="matrix(.852 .524 -.355 .577 43.604 -74.878)" gradientUnits="userSpaceOnUse" r="143.468"><stop offset="0" stop-color="#c1d5e4"/><stop offset=".0691" stop-color="#c3d3e0"/><stop offset=".27" stop-color="#c6d0da"/><stop offset=".503" stop-color="#a9b4be"/><stop offset=".7925" stop-color="#8b96a0"/><stop offset=".9564" stop-color="#808b95"/></radialGradient><radialGradient id="SVGID_17_" cx="159.293" cy="298.519" fx="145.411" fy="335.322" gradientTransform="matrix(.762 -.648 .647 .76 -155.17 174.852)" gradientUnits="userSpaceOnUse" r="129.662"><stop offset="0" stop-color="#4d5961"/><stop offset=".3569" stop-color="#75808a"/><stop offset=".6909" stop-color="#949eab"/><stop offset=".8745" stop-color="#a0aab7"/></radialGradient><linearGradient id="lg1"><stop offset="0" stop-color="#b9c1cb"/><stop offset=".8745" stop-color="#a0aab7"/></linearGradient><radialGradient id="SVGID_18_" cx="227.576" cy="442.959" fx="212.709" fy="453.296" gradientTransform="matrix(.762 -.648 .647 .76 -232.347 253.756)" gradientUnits="userSpaceOnUse" r="74.708" xlink:href="#lg1"/><radialGradient id="SVGID_19_" cx="431.937" cy="327.841" fx="412.964" fy="330.563" gradientTransform="matrix(.762 -.648 .647 .76 -109.11 358.613)" gradientUnits="userSpaceOnUse" r="79.081"><stop offset="0" stop-color="#4d5961"/><stop offset=".1994" stop-color="#657179"/><stop offset=".5014" stop-color="#848f99"/><stop offset=".6692" stop-color="#909ba5"/></radialGradient><radialGradient id="SVGID_20_" cx="374.894" cy="430.145" fx="358.737" fy="432.463" gradientTransform="matrix(.762 -.648 .647 .76 -188.915 346.175)" gradientUnits="userSpaceOnUse" r="67.342" xlink:href="#lg1"/><radialGradient id="SVGID_21_" cx="348.993" cy="447.492" fx="340.844" fy="448.661" gradientTransform="matrix(.762 -.648 .647 .76 -206.318 333.546)" gradientUnits="userSpaceOnUse" r="33.966" xlink:href="#lg1"/><radialGradient id="SVGID_22_" cx="-1995.734" cy="240.951" fx="-2017.608" fy="243.513" gradientTransform="matrix(-.787 -.617 -.616 .786 -1232.573 -1179.807)" gradientUnits="userSpaceOnUse" r="118.544"><stop offset=".0436" stop-color="#c6d0da"/><stop offset=".3264" stop-color="#b5bfcb"/><stop offset=".7039" stop-color="#a6b0bc"/><stop offset="1" stop-color="#a0aab7"/></radialGradient><radialGradient id="SVGID_23_" cx="192.718" cy="279.956" fx="187.793" fy="279.359" gradientTransform="matrix(.787 -.617 .499 .636 -98.542 220.835)" gradientUnits="userSpaceOnUse" r="94.135"><stop offset="0" stop-color="#dae7ef"/><stop offset=".4994" stop-color="#c6d0da"/><stop offset=".6385" stop-color="#bec8d2"/><stop offset=".8571" stop-color="#a7b1be"/><stop offset=".916" stop-color="#a0aab7"/></radialGradient><radialGradient id="SVGID_24_" cx="-2414.436" cy="396.531" fx="-2414.492" fy="416.852" gradientTransform="matrix(.2 .98 -1.204 .246 1319.384 2561.83)" gradientUnits="userSpaceOnUse" r="117.599"><stop offset="0" stop-color="#c6d0da"/><stop offset=".3159" stop-color="#a4afb9"/><stop offset=".5467" stop-color="#909ba5"/><stop offset=".6933" stop-color="#89949e"/><stop offset=".9885" stop-color="#808b95"/></radialGradient><radialGradient id="SVGID_25_" cx="360.069" cy="292.883" fx="376.881" fy="329.248" gradientTransform="matrix(.787 -.617 .499 .636 -69.33 328.806)" gradientUnits="userSpaceOnUse" r="72.195"><stop offset="0" stop-color="#dae7ef"/><stop offset=".1697" stop-color="#cfdae3"/><stop offset=".3562" stop-color="#c6d0da"/><stop offset=".5933" stop-color="#b1bbc6"/><stop offset=".8273" stop-color="#a0aab7"/></radialGradient><g><path d="m271.388 486.407c132.886 0 240.612-13.198 240.612-29.479h-481.224c0 16.281 107.726 29.479 240.612 29.479z" fill="url(#SVGID_1_)"/><path d="m141.392 301.048 19.241 136.656h-6.884c-8.896 0-16.108 7.212-16.108 16.108v3.118h68.122v-103.504z" fill="url(#SVGID_2_)"/><path d="m279.841 336.4 30.244 102.973h-24.685c-8.123 0-14.709 6.585-14.709 14.709v2.847h79.951v-120.529z" fill="url(#SVGID_3_)"/><path d="m159.026 222.073c25.45-1.675 46.736 19.272 46.736 44.776v86.575h-13.361c-41.018 0-74.27-33.252-74.27-74.27v-13.361c0-23.218 18.058-42.217 40.895-43.72z" fill="url(#SVGID_4_)"/><path d="m177.492 108.501c-.03-14.3-14.371-24.177-27.837-19.364l-3.315 1.185c17.957-6.418 24.601-28.532 12.942-43.622-10.143-13.127-24.249-21.106-41.621-21.106-45.599 0-74.851 44.738-74.851 83.208 0 38.469 41.407 73.09 74.851 73.09 12.535 0 26.054-5.628 37.064-16.095 12.453-11.839 7.795-32.732-8.385-38.515l3.314 1.185c13.454 4.809 27.788-5.045 27.837-19.333 0-.11.001-.221.001-.331.001-.102.001-.202 0-.302z" fill="url(#SVGID_5_)"/><path d="m485.587 293.196c0 39.222-31.795 71.017-71.017 71.017h-152.943c-72.148 0-115.565-58.488-115.565-130.636l-15.071-79.091h215.886c76.607-.001 138.71 62.102 138.71 138.71z" fill="url(#SVGID_6_)"/><path d="m247.882 154.485h-116.891v79.091c0 6.218.445 12.332 1.285 18.318 57.52.082 106.13-41.744 115.606-97.409z" fill="url(#SVGID_7_)"/><path d="m306.282 364.213c-72.148 0-130.636-58.488-130.636-130.636v-79.091h-44.655v79.091c0 72.148 58.488 130.636 130.636 130.636z" fill="url(#SVGID_8_)"/><path d="m131.103 238.775c.051 1.27.115 2.537.202 3.797.008.118.014.236.022.353.216 3.019.533 6.01.948 8.97 15.418.022 30.184-2.992 43.739-8.452-.243-3.257-.369-6.547-.369-9.867v-79.091h-44.655v79.091c0 1.415.03 2.823.075 4.227.011.325.025.649.038.972z" fill="url(#SVGID_9_)"/><path d="m149.901 64.833h-42.806c-25.497 0-48.924 14.031-60.958 36.51l98.403 14.468z" fill="url(#SVGID_10_)"/><path d="m46.137 101.342-15.399 28.765c-7.178 13.408-10.934 28.381-10.934 43.589v11.435c0 31.083 23.977 56.904 54.975 59.203 2.992.222 5.963.324 8.911.321v.006h47.3l15.071-143.32h-99.924z" fill="url(#SVGID_11_)"/><path d="m67.482 144.146h-42.811l-6.681 5.274c-11.361 8.97-17.99 22.648-17.99 37.123v1.101c0 13.625 11.045 24.671 24.671 24.671h42.812z" fill="url(#SVGID_12_)"/><path d="m67.482 212.315c-13.625 0-24.671-11.045-24.671-24.671v-1.101c0-14.475 6.629-28.154 17.99-37.123l6.681-5.274 1.708 68.169z" fill="url(#SVGID_13_)"/><path d="m117.585 244.334c-30.999-2.299-54.975-28.12-54.975-59.203v-11.435c0-15.208 3.756-30.181 10.934-43.589l15.399-28.765c12.034-22.478 35.461-36.51 60.958-36.51h31.072c34.548 0 62.554 28.006 62.554 62.554 0 68.183-57.946 121.991-125.942 116.948z" fill="url(#SVGID_14_)"/><path d="m319.992 108.501c-.03-14.3-14.371-24.177-27.837-19.364l-3.315 1.185c17.957-6.418 24.601-28.532 12.942-43.622-10.143-13.127-24.249-21.106-41.621-21.106-45.599 0-74.851 44.738-74.851 83.208 0 38.469 41.407 73.09 74.851 73.09 12.535 0 26.054-5.628 37.064-16.095 12.453-11.839 7.795-32.732-8.385-38.515l3.314 1.185c13.454 4.809 27.788-5.045 27.837-19.333 0-.11.001-.221.001-.331.001-.102 0-.202 0-.302z" fill="url(#SVGID_15_)"/><path d="m186.518 114.835c0-38.47 29.252-83.208 74.851-83.208 17.372 0 31.478 7.979 41.621 21.106 2.064 2.672 3.543 5.565 4.499 8.551-.436-5.084-2.271-10.14-5.706-14.585-10.143-13.127-24.249-21.106-41.621-21.106-45.599 0-74.851 44.738-74.851 83.208 0 4.796.645 9.532 1.836 14.149-.398-2.68-.629-5.386-.629-8.115z" fill="url(#SVGID_16_)"/><path d="m208.977 301.048 19.241 136.656h-6.884c-8.896 0-16.108 7.212-16.108 16.108v3.118h68.122v-103.504z" fill="url(#SVGID_17_)"/><path d="m230.989 437.703h6.884l-17.991-127.783-10.904-8.872 19.241 136.656h-6.884c-8.896 0-16.108 7.212-16.108 16.108v3.118h9.655v-3.118c-.001-8.897 7.211-16.109 16.107-16.109z" fill="url(#SVGID_18_)"/><path d="m347.476 336.4 30.244 102.973h-24.685c-8.123 0-14.709 6.585-14.709 14.709v2.847h79.951v-120.529z" fill="url(#SVGID_19_)"/><path d="m387.525 439.373-30.244-102.973h-9.805l30.244 102.973z" fill="url(#SVGID_20_)"/><path d="m362.841 439.373h-9.805c-8.123 0-14.709 6.585-14.709 14.708v2.847h9.805v-2.847c0-8.123 6.585-14.708 14.709-14.708z" fill="url(#SVGID_21_)"/><path d="m226.612 222.073c25.45-1.675 46.736 19.272 46.736 44.776v86.575h-13.361c-41.018 0-74.27-33.252-74.27-74.27v-13.361c0-23.218 18.058-42.217 40.895-43.72z" fill="url(#SVGID_22_)"/><path d="m200.199 279.154v-13.361c0-21.686 15.757-39.688 36.444-43.193-3.241-.554-6.597-.753-10.032-.527-22.837 1.503-40.895 20.502-40.895 43.72v13.361c0 41.018 33.252 74.27 74.27 74.27h13.361v-.028c-40.498-.603-73.148-33.6-73.148-74.242z" fill="url(#SVGID_23_)"/><path d="m460.283 274.269c-14.466-13.861-37.547-13.129-51.713 1.037l-61.094 61.094 5.979 5.979c25.312 25.312 66.351 25.312 91.664 0l15.738-15.738c14.495-14.496 14.304-38.117-.574-52.372z" fill="url(#SVGID_24_)"/><path d="m441.313 264.774c-11.543-1.93-23.885 1.675-32.743 10.533l-61.094 61.093 5.979 5.979c.05.05.103.095.154.145l67.217-67.217c5.751-5.751 12.971-9.288 20.487-10.533z" fill="url(#SVGID_25_)"/></g></svg>