<svg id="Capa_1" enable-background="new 0 0 512 512" height="512" viewBox="0 0 512 512" width="512" xmlns="http://www.w3.org/2000/svg" xmlns:xlink="http://www.w3.org/1999/xlink"><radialGradient id="SVGID_1_" cx="8.464" cy="194.747" gradientTransform="matrix(1 0 0 .783 0 42.363)" gradientUnits="userSpaceOnUse" r="68.043"><stop offset="0" stop-color="#fff9e2"/><stop offset=".0064" stop-color="#fef9e1"/><stop offset=".2436" stop-color="#e2f4b4"/><stop offset=".3756" stop-color="#d6ed9b"/><stop offset=".6599" stop-color="#bee06a"/><stop offset=".8764" stop-color="#b0d84b"/><stop offset=".9979" stop-color="#aad540"/></radialGradient><linearGradient id="SVGID_2_" gradientUnits="userSpaceOnUse" x1="121.881" x2="132.333" y1="303.94" y2="251.399"><stop offset=".2762" stop-color="#90b738"/><stop offset=".5781" stop-color="#8db136"/><stop offset=".8897" stop-color="#86a533"/></linearGradient><radialGradient id="SVGID_3_" cx="91.78" cy="287.732" gradientTransform="matrix(1 0 0 .771 0 65.874)" gradientUnits="userSpaceOnUse" r="34.522"><stop offset="0" stop-color="#c8ea73"/><stop offset=".3927" stop-color="#9dc63d"/><stop offset=".6929" stop-color="#93b839"/><stop offset="1" stop-color="#86a533"/></radialGradient><radialGradient id="SVGID_4_" cx="284.758" cy="286.717" gradientTransform="matrix(1 0 0 .771 0 65.642)" gradientUnits="userSpaceOnUse" r="41.366"><stop offset=".0032" stop-color="#b7e445"/><stop offset=".2926" stop-color="#9dc63d"/><stop offset=".307" stop-color="#9cc53d"/><stop offset=".5064" stop-color="#93ba39"/><stop offset=".7387" stop-color="#90b738"/></radialGradient><linearGradient id="SVGID_5_" gradientUnits="userSpaceOnUse" x1="316.47" x2="286.408" y1="285.116" y2="260.476"><stop offset="0" stop-color="#90b738"/><stop offset=".3993" stop-color="#8aad35"/><stop offset=".6137" stop-color="#86a533"/></linearGradient><radialGradient id="SVGID_6_" cx="283.397" cy="236.108" gradientTransform="matrix(.703 -.712 .549 .542 -45.272 309.824)" gradientUnits="userSpaceOnUse" r="50.037"><stop offset="0" stop-color="#c8ea73"/><stop offset=".0614" stop-color="#c5e96a"/><stop offset=".2698" stop-color="#bbe54f"/><stop offset=".3927" stop-color="#b7e445"/><stop offset=".583" stop-color="#afdb43"/><stop offset=".8597" stop-color="#9dc63d"/></radialGradient><radialGradient id="SVGID_7_" cx="141.001" cy="246.268" gradientTransform="matrix(.976 -.22 .17 .752 -38.309 92.04)" gradientUnits="userSpaceOnUse" r="27.341"><stop offset=".0123" stop-color="#86a533"/><stop offset=".4269" stop-color="#8cb036"/><stop offset=".8755" stop-color="#90b738"/></radialGradient><radialGradient id="SVGID_8_" cx="174.904" cy="163.02" gradientTransform="matrix(.975 .223 -.1 .437 20.742 52.695)" gradientUnits="userSpaceOnUse" r="292.418"><stop offset="0" stop-color="#c8ea73"/><stop offset=".1202" stop-color="#c4e969"/><stop offset=".3252" stop-color="#bae54e"/><stop offset=".3814" stop-color="#b7e445"/><stop offset=".5546" stop-color="#b2df43"/><stop offset=".7695" stop-color="#a5cf3f"/><stop offset="1" stop-color="#90b738"/></radialGradient><radialGradient id="SVGID_9_" cx="106.69" cy="186.341" gradientTransform="matrix(1 0 0 1.088 0 -16.44)" gradientUnits="userSpaceOnUse" r="62.242"><stop offset="0" stop-color="#eaf6df"/><stop offset=".3518" stop-color="#eaf6c9"/><stop offset=".3922" stop-color="#eaf6c6"/><stop offset=".3996" stop-color="#e2f2b6"/><stop offset=".417" stop-color="#d3ea97"/><stop offset=".4368" stop-color="#c6e47b"/><stop offset=".4591" stop-color="#bcde65"/><stop offset=".4851" stop-color="#b4da54"/><stop offset=".5173" stop-color="#aed749"/><stop offset=".5625" stop-color="#abd542"/><stop offset=".6879" stop-color="#aad540"/><stop offset=".9992" stop-color="#9dc63d"/><stop offset="1" stop-color="#9dc63d"/></radialGradient><linearGradient id="SVGID_10_" gradientUnits="userSpaceOnUse" x1="94.38" x2="132.763" y1="226.344" y2="202.824"><stop offset="0" stop-color="#90b738"/><stop offset=".2958" stop-color="#9bc43c"/><stop offset=".8049" stop-color="#b7e445"/></linearGradient><linearGradient id="SVGID_11_" gradientUnits="userSpaceOnUse" x1="163.214" x2="190.896" y1="291.071" y2="245.206"><stop offset=".2791" stop-color="#aad540"/><stop offset=".4664" stop-color="#a6d03f"/><stop offset=".6936" stop-color="#9bc13b"/><stop offset=".9407" stop-color="#89a934"/><stop offset=".9716" stop-color="#86a533"/></linearGradient><linearGradient id="SVGID_12_" gradientUnits="userSpaceOnUse" x1="155.302" x2="181.9" y1="287.163" y2="243.094"><stop offset="0" stop-color="#c8ea73"/><stop offset=".3787" stop-color="#aad540"/><stop offset=".4668" stop-color="#a5ce3e"/><stop offset=".5907" stop-color="#97bc39"/><stop offset=".7054" stop-color="#86a533"/></linearGradient><radialGradient id="SVGID_13_" cx="131.437" cy="287.732" gradientTransform="matrix(1 0 0 .771 0 65.874)" gradientUnits="userSpaceOnUse" r="34.522"><stop offset="0" stop-color="#fff9e2"/><stop offset=".3578" stop-color="#bee653"/><stop offset=".3927" stop-color="#b7e445"/><stop offset=".7169" stop-color="#abd641"/><stop offset="1" stop-color="#9dc63d"/></radialGradient><radialGradient id="SVGID_14_" cx="326.105" cy="286.717" gradientTransform="matrix(1 0 0 .771 0 65.642)" gradientUnits="userSpaceOnUse" r="41.366"><stop offset="0" stop-color="#e4fbef"/><stop offset=".2464" stop-color="#bee860"/><stop offset=".2926" stop-color="#b7e445"/><stop offset=".4205" stop-color="#a9d441"/><stop offset=".5674" stop-color="#a0c93e"/><stop offset=".7387" stop-color="#9dc63d"/></radialGradient><linearGradient id="SVGID_15_" gradientUnits="userSpaceOnUse" x1="353.74" x2="320.618" y1="277.735" y2="257.393"><stop offset=".1312" stop-color="#aad540"/><stop offset=".3576" stop-color="#a6d03f"/><stop offset=".614" stop-color="#9cc33b"/><stop offset=".8841" stop-color="#8bac35"/><stop offset=".9539" stop-color="#86a533"/></linearGradient><radialGradient id="SVGID_16_" cx="326.226" cy="232.508" gradientTransform="matrix(.703 -.712 .549 .542 -30.562 338.648)" gradientUnits="userSpaceOnUse" r="50.037"><stop offset="0" stop-color="#c8ea73"/><stop offset=".0614" stop-color="#c5e96a"/><stop offset=".2698" stop-color="#bbe54f"/><stop offset=".3927" stop-color="#b7e445"/><stop offset=".6217" stop-color="#b1dd43"/><stop offset="1" stop-color="#aad540"/></radialGradient><radialGradient id="SVGID_17_" cx="314.678" cy="228.778" gradientTransform="matrix(1 0 0 1.032 0 -7.386)" gradientUnits="userSpaceOnUse" r="42.941"><stop offset=".0802" stop-color="#fff9e2"/><stop offset=".1672" stop-color="#f3f6cd"/><stop offset=".3658" stop-color="#d8f1a0"/><stop offset=".5641" stop-color="#c6e67b"/><stop offset=".8435" stop-color="#aad540"/></radialGradient><radialGradient id="SVGID_18_" cx="173.171" cy="225.728" gradientTransform="matrix(.703 -.712 .549 .542 -72.35 226.641)" gradientUnits="userSpaceOnUse" r="45.934"><stop offset="0" stop-color="#c8ea73"/><stop offset=".0614" stop-color="#c5e96a"/><stop offset=".2698" stop-color="#bbe54f"/><stop offset=".3927" stop-color="#b7e445"/><stop offset=".8039" stop-color="#afdb42"/><stop offset="1" stop-color="#aad540"/></radialGradient><radialGradient id="SVGID_19_" cx="163.203" cy="225.394" gradientTransform="matrix(1 0 0 1.032 0 -7.277)" gradientUnits="userSpaceOnUse" r="36.288"><stop offset=".0802" stop-color="#fff9e2"/><stop offset=".2479" stop-color="#def0a0"/><stop offset=".3738" stop-color="#c8ea73"/><stop offset=".8561" stop-color="#aad540"/></radialGradient><radialGradient id="SVGID_20_" cx="-19.431" cy="198.695" gradientTransform="matrix(1 0 0 .783 0 43.222)" gradientUnits="userSpaceOnUse" r="67.65"><stop offset="0" stop-color="#e2f4b4"/><stop offset=".1746" stop-color="#d6ed9b"/><stop offset=".5507" stop-color="#bee06a"/><stop offset=".8371" stop-color="#b0d84b"/><stop offset=".9979" stop-color="#aad540"/></radialGradient><radialGradient id="SVGID_21_" cx="96.555" cy="213.979" gradientTransform="matrix(1 0 0 .382 0 132.287)" gradientUnits="userSpaceOnUse" r="81.352"><stop offset=".3694" stop-color="#b7e445"/><stop offset=".7237" stop-color="#b5e244"/><stop offset=".8513" stop-color="#afdb43"/><stop offset=".9419" stop-color="#a5d040"/><stop offset=".9879" stop-color="#9dc63d"/></radialGradient><radialGradient id="SVGID_23_" cx="300.695" cy="706.387" gradientTransform="matrix(.931 0 0 .112 -31.713 218.805)" gradientUnits="userSpaceOnUse" r="251.435"><stop offset="0" stop-color="#e2f4b4"/><stop offset=".2965" stop-color="#eaf7c8"/><stop offset=".5032" stop-color="#f1f9d8"/><stop offset=".8982" stop-color="#fff"/></radialGradient><g><path d="m93.428 193.124h-8.717l-.492-2.753c-.591-3.309-3.468-5.718-6.829-5.718-1.713 0-3.363.641-4.627 1.797l-12.255 11.212c-8.668 3.202-17.835 4.841-27.075 4.841h-3.651l-.161-4.273h-16.893c-1.502-.086-3.039.162-4.499.776-5.024 2.115-8.274 7.054-8.229 12.506l112.602 4.192c-.421-10.226-8.844-22.58-19.174-22.58z" fill="url(#SVGID_1_)"/><path d="m157.292 267.979-29.48 29.48h-32.898l39.556-39.556z" fill="url(#SVGID_2_)"/><path d="m107.509 286.574h-11.213c-6.012 0-10.885 4.873-10.885 10.885h29.67v-3.313c0-4.181-3.39-7.572-7.572-7.572z" fill="url(#SVGID_3_)"/><path d="m317.738 286.782h-24.822c-5.897 0-10.677 4.78-10.677 10.677h35.499z" fill="url(#SVGID_4_)"/><path d="m308.294 257.195-11.357-6.557-22.079 22.079 42.854 24.742.936-1.622c7.811-13.53 3.176-30.83-10.354-38.642z" fill="url(#SVGID_5_)"/><path d="m292.422 216.639c9.7 0 17.564 7.864 17.564 17.564v14.405c0 13.315-10.794 24.109-24.109 24.109h-11.019v-38.514c0-9.7 7.863-17.564 17.564-17.564z" fill="url(#SVGID_6_)"/><path d="m140.269 213.629c-9.401 0-17.023 7.621-17.023 17.023v13.961c0 12.905 10.461 23.366 23.366 23.366h10.68v-37.327c0-9.401-7.621-17.023-17.023-17.023z" fill="url(#SVGID_7_)"/><path d="m512 297.459-4.89-6.757c-12.316-17.02-29.725-29.683-49.71-36.159l-138.073-44.743c-41.231-13.361-84.304-20.166-127.646-20.166h-56.445l-32.474 3.491c-6.947 0-14.099 2.141-14.099 9.088v15.416c0 18.973 16.096 30.678 35.069 30.678l15.384 3.675c7.057 0 13.098-4.347 15.593-10.509l55.171 25.066c27.311 12.408 57.818 15.973 87.254 10.195l37.283-7.318 29.973 10.65c32.399 11.512 66.53 17.395 100.913 17.395h46.697z" fill="url(#SVGID_8_)"/><path d="m122.657 217.629v-15.416c0-6.947 5.632-12.579 12.579-12.579h-33.994c-6.947 0-12.579 5.632-12.579 12.579v15.416c0 18.973 15.38 34.353 34.353 34.353h16.1c2.617 0 5.093-.598 7.301-1.664-13.788-4.465-23.76-17.413-23.76-32.689z" fill="url(#SVGID_9_)"/><path d="m114.488 200.646h-8.717l-.492-2.753c-.591-3.309-3.468-5.718-6.829-5.718-1.713 0-3.363.641-4.627 1.797l-4.452 4.073c-.458 1.304-.708 2.707-.708 4.167v15.416c0 10.794 4.979 20.426 12.765 26.724l7.654.656c6.324.542 12.585-1.592 17.26-5.884s7.337-10.348 7.337-16.695v-2.592c.001-10.599-8.591-19.191-19.191-19.191z" fill="url(#SVGID_10_)"/><path d="m199.444 267.979-29.48 29.48h-32.898l39.556-39.556z" fill="url(#SVGID_11_)"/><path d="m176.622 257.903-39.556 39.556h9.518l36.641-36.641z" fill="url(#SVGID_12_)"/><path d="m149.661 286.574h-11.213c-6.012 0-10.885 4.873-10.885 10.885h29.67v-3.313c0-4.181-3.39-7.572-7.572-7.572z" fill="url(#SVGID_13_)"/><path d="m359.085 286.782h-24.822c-5.897 0-10.677 4.78-10.677 10.677h35.499z" fill="url(#SVGID_14_)"/><path d="m349.64 257.195-11.357-6.557-22.079 22.079 42.854 24.742.936-1.622c7.812-13.53 3.176-30.83-10.354-38.642z" fill="url(#SVGID_15_)"/><path d="m333.769 216.639c9.7 0 17.564 7.864 17.564 17.564v14.405c0 13.315-10.794 24.109-24.109 24.109h-11.019v-38.514c-.001-9.7 7.863-17.564 17.564-17.564z" fill="url(#SVGID_16_)"/><path d="m337.168 216.968c-1.1-.216-2.236-.329-3.399-.329-9.7 0-17.564 7.864-17.564 17.564v38.514h6.799v-38.514c-.001-8.537 6.09-15.651 14.164-17.235z" fill="url(#SVGID_17_)"/><path d="m182.421 213.629c-9.401 0-17.023 7.621-17.023 17.023v13.961c0 12.905 10.461 23.366 23.366 23.366h10.68v-37.327c0-9.401-7.621-17.023-17.023-17.023z" fill="url(#SVGID_18_)"/><path d="m172.197 244.614v-13.961c0-8.237 5.851-15.108 13.623-16.683-1.098-.223-2.235-.34-3.399-.34-9.401 0-17.023 7.621-17.023 17.023v13.961c0 12.905 10.461 23.366 23.366 23.366h6.799c-12.904-.001-23.366-10.462-23.366-23.366z" fill="url(#SVGID_19_)"/><path d="m0 211.512.011 1.338c.08 9.696 7.524 17.738 17.185 18.566l70.826 6.071c6.324.542 12.585-1.592 17.26-5.884s7.337-10.348 7.337-16.694v-2.592c0-.269-.006-.537-.017-.804h-112.602z" fill="url(#SVGID_20_)"/><path d="m130.671 212.316c0-10.599-8.592-19.192-19.192-19.192h-8.717l-.492-2.753c-.591-3.309-3.468-5.718-6.829-5.718-1.713 0-3.363.641-4.627 1.797l-12.254 11.212c-8.668 3.202-17.835 4.841-27.075 4.841h-13.01c-2.738-3.886-7.812-5.341-12.193-3.496-5.024 2.115-8.274 7.054-8.229 12.506l.011 1.338c.08 9.696 7.524 17.738 17.185 18.566l70.826 6.071c6.324.542 12.585-1.593 17.26-5.884s7.337-10.348 7.337-16.694v-2.594z" fill="url(#SVGID_21_)"/><path d="m130.671 212.316c0-10.599-8.592-19.192-19.192-19.192h-8.717l-.492-2.753c-.591-3.309-3.468-5.718-6.829-5.718-1.713 0-3.363.641-4.627 1.797l-12.254 11.212c-8.668 3.202-17.835 4.841-27.075 4.841h-13.01c-2.738-3.886-7.812-5.341-12.193-3.496-5.024 2.115-8.274 7.054-8.229 12.506l.011 1.338c.08 9.696 7.524 17.738 17.185 18.566l70.826 6.071c6.324.542 12.585-1.593 17.26-5.884s7.337-10.348 7.337-16.694v-2.594z" fill="url(#SVGID_21_)"/><path d="m243.947 327.347c134.728 0 243.947-13.381 243.947-29.887h-487.894c0 16.506 109.219 29.887 243.947 29.887z" fill="url(#SVGID_23_)"/></g></svg>