<svg id="Capa_1" enable-background="new 0 0 512 512" height="512" viewBox="0 0 512 512" width="512" xmlns="http://www.w3.org/2000/svg" xmlns:xlink="http://www.w3.org/1999/xlink"><linearGradient id="SVGID_1_" gradientTransform="matrix(.707 .707 -.707 .707 553.098 -175.054)" gradientUnits="userSpaceOnUse" x1="213.143" x2="231.56" y1="655.624" y2="637.208"><stop offset=".2071" stop-color="#b94029"/><stop offset=".2493" stop-color="#bb4029"/><stop offset=".6541" stop-color="#c94429"/><stop offset="1" stop-color="#ce4529"/></linearGradient><radialGradient id="SVGID_2_" cx="213.029" cy="442.803" gradientUnits="userSpaceOnUse" r="51.768"><stop offset="0" stop-color="#dd542e"/><stop offset=".3283" stop-color="#d6502d"/><stop offset=".7989" stop-color="#c3462a"/><stop offset="1" stop-color="#b94029"/></radialGradient><radialGradient id="SVGID_3_" cx="243.835" cy="383.751" gradientTransform="matrix(1 0 0 .68 0 122.946)" gradientUnits="userSpaceOnUse" r="24.877"><stop offset="0" stop-color="#a298a5"/><stop offset=".5195" stop-color="#a79fab"/><stop offset="1" stop-color="#afaab4"/></radialGradient><radialGradient id="SVGID_4_" cx="107.322" cy="15.823" gradientTransform="matrix(1 0 0 .685 0 4.983)" gradientUnits="userSpaceOnUse" r="53.405"><stop offset="0" stop-color="#f1f1f4"/><stop offset=".3503" stop-color="#e5e4e8"/><stop offset="1" stop-color="#c6c1c8"/></radialGradient><radialGradient id="SVGID_5_" cx="83.557" cy="29.326" gradientTransform="matrix(1 0 0 .809 0 5.599)" gradientUnits="userSpaceOnUse" r="43.203"><stop offset="0" stop-color="#ecb780"/><stop offset=".2515" stop-color="#e89f68"/><stop offset=".637" stop-color="#e27d47"/></radialGradient><linearGradient id="SVGID_6_" gradientTransform="matrix(.707 .707 -.707 .707 553.098 -175.054)" gradientUnits="userSpaceOnUse" x1="246.396" x2="264.812" y1="622.372" y2="603.955"><stop offset=".2071" stop-color="#ce4529"/><stop offset=".3218" stop-color="#d35230"/><stop offset=".57" stop-color="#db6a3d"/><stop offset=".8021" stop-color="#e07844"/><stop offset="1" stop-color="#e27d47"/></linearGradient><radialGradient id="SVGID_7_" cx="242.733" cy="190.271" gradientTransform="matrix(.82 -.573 .604 .864 -71.117 164.987)" gradientUnits="userSpaceOnUse" r="404.538"><stop offset="0" stop-color="#f1f1f4"/><stop offset=".2323" stop-color="#dedce1"/><stop offset=".5777" stop-color="#c6c1c8"/><stop offset=".7252" stop-color="#c3bec5"/><stop offset=".8419" stop-color="#bbb4bd"/><stop offset=".9478" stop-color="#aca3af"/><stop offset="1" stop-color="#a298a5"/></radialGradient><radialGradient id="SVGID_8_" cx="16.656" cy="140.502" gradientTransform="matrix(.962 .273 -.495 1.74 70.123 -108.557)" gradientUnits="userSpaceOnUse" r="310.16"><stop offset=".1621" stop-color="#fff"/><stop offset=".2691" stop-color="#fbfbfc"/><stop offset=".3625" stop-color="#f1f1f4"/><stop offset=".5413" stop-color="#e2e1e6"/><stop offset=".8872" stop-color="#bdb9c1"/><stop offset="1" stop-color="#afaab4"/></radialGradient><radialGradient id="SVGID_9_" cx="149.065" cy="59.88" gradientTransform="matrix(1 0 0 .685 0 18.858)" gradientUnits="userSpaceOnUse" r="36.532"><stop offset="0" stop-color="#c6c1c8"/><stop offset=".8412" stop-color="#dbd8dd"/><stop offset="1" stop-color="#dfdde2"/></radialGradient><radialGradient id="SVGID_10_" cx="158.791" cy="33.884" gradientTransform="matrix(1 0 0 .685 0 10.671)" gradientUnits="userSpaceOnUse" r="47.365"><stop offset="0" stop-color="#dfdde2"/><stop offset=".4906" stop-color="#dddbe0"/><stop offset=".7484" stop-color="#d6d3d9"/><stop offset=".9519" stop-color="#cac5cc"/><stop offset="1" stop-color="#c6c1c8"/></radialGradient><radialGradient id="SVGID_11_" cx="127.487" cy="48.705" gradientTransform="matrix(1 0 0 .809 0 9.299)" gradientUnits="userSpaceOnUse" r="46.821"><stop offset="0" stop-color="#e27d47"/><stop offset=".407" stop-color="#e17b46"/><stop offset=".6175" stop-color="#de7342"/><stop offset=".783" stop-color="#da663a"/><stop offset=".9242" stop-color="#d35330"/><stop offset="1" stop-color="#ce4529"/></radialGradient><radialGradient id="SVGID_12_" cx="147.337" cy="200.41" gradientTransform="matrix(.955 .296 -.25 .804 56.635 -4.451)" gradientUnits="userSpaceOnUse" r="244.129"><stop offset="0" stop-color="#c6c1c8"/><stop offset=".0614" stop-color="#cdc9cf"/><stop offset=".21" stop-color="#d7d4da"/><stop offset=".4192" stop-color="#dddbe0"/><stop offset="1" stop-color="#dfdde2"/></radialGradient><radialGradient id="SVGID_13_" cx="143.449" cy="291.654" gradientTransform="matrix(.962 .273 -.495 1.74 149.708 -255.106)" gradientUnits="userSpaceOnUse" r="124.716"><stop offset="0" stop-color="#fff"/><stop offset=".1358" stop-color="#f5f5f6"/><stop offset=".5032" stop-color="#dfdde2"/><stop offset=".7046" stop-color="#d8d5db"/><stop offset="1" stop-color="#c6c1c8"/></radialGradient><linearGradient id="lg1"><stop offset="0" stop-color="#ecb780"/><stop offset=".1852" stop-color="#e8a16b"/><stop offset=".4404" stop-color="#e27d47"/><stop offset=".6565" stop-color="#d86138"/><stop offset=".862" stop-color="#d14c2d"/><stop offset="1" stop-color="#ce4529"/></linearGradient><radialGradient id="SVGID_14_" cx="260.056" cy="442.803" gradientUnits="userSpaceOnUse" r="51.768" xlink:href="#lg1"/><radialGradient id="SVGID_15_" cx="236.81" cy="461.933" gradientUnits="userSpaceOnUse" r="15.317" xlink:href="#lg1"/><radialGradient id="SVGID_16_" cx="282.464" cy="452.684" gradientUnits="userSpaceOnUse" r="44.031"><stop offset="0" stop-color="#ecb780"/><stop offset=".025" stop-color="#ebb17a"/><stop offset=".1527" stop-color="#e6945e"/><stop offset=".2642" stop-color="#e3834d"/><stop offset=".3467" stop-color="#e27d47"/><stop offset=".5056" stop-color="#e07744"/><stop offset=".7251" stop-color="#d9653a"/><stop offset=".979" stop-color="#cf482a"/><stop offset="1" stop-color="#ce4529"/></radialGradient><radialGradient id="SVGID_17_" cx="249.689" cy="357.373" gradientTransform="matrix(.575 -.818 .645 .453 -124.468 399.681)" gradientUnits="userSpaceOnUse" r="104.926"><stop offset="0" stop-color="#f1f1f4"/><stop offset=".505" stop-color="#c6c1c8"/><stop offset=".8265" stop-color="#b8b3bc"/><stop offset="1" stop-color="#afaab4"/></radialGradient><radialGradient id="SVGID_18_" cx="257.04" cy="369.748" gradientTransform="matrix(.962 .273 -.28 .987 113.452 -65.265)" gradientUnits="userSpaceOnUse" r="54.708"><stop offset="0" stop-color="#fff"/><stop offset=".1107" stop-color="#f5f5f6"/><stop offset=".4101" stop-color="#dfdde2"/><stop offset="1" stop-color="#afaab4"/></radialGradient><radialGradient id="SVGID_19_" cx="267.349" cy="1376.782" gradientTransform="matrix(.931 0 0 .112 11.619 316.48)" gradientUnits="userSpaceOnUse" r="263.858"><stop offset="0" stop-color="#c6c1c8"/><stop offset=".2432" stop-color="#dddbdf"/><stop offset=".4962" stop-color="#f1f1f4"/><stop offset=".6787" stop-color="#fafafb"/><stop offset=".8982" stop-color="#fff"/></radialGradient><g><path d="m247.387 446.831-10.524-10.524 7.893-7.893 18.417 18.417c-4.359 4.36-11.427 4.36-15.786 0z" fill="url(#SVGID_1_)"/><path d="m233.385 399.775v60.863h-37.916c-6.182 0-11.907 3.255-15.067 8.568l-.483.812h57.877c5.379 0 9.74-4.361 9.74-9.74v-60.502h-14.151z" fill="url(#SVGID_2_)"/><path d="m227.344 345.023c-9.818.452-17.898 8.531-18.349 18.349-.439 9.552 6.075 17.663 14.912 19.699 2.539.585 4.348 2.827 4.348 5.433v.142c0 10.649 8.632 19.281 19.281 19.281v-43.645c0-10.949-9.129-19.768-20.192-19.259z" fill="url(#SVGID_3_)"/><path d="m139.184 54.359h-19.062c-11.316 0-21.104-7.882-23.516-18.938l-1.78-8.156 5.846-6.482c5.836-6.471 14.141-10.165 22.854-10.165h16.459l25.566 26.179z" fill="url(#SVGID_4_)"/><path d="m69.239 47.481c0-4.902 2.887-9.345 7.367-11.336l6.332-2.814c5.708-2.537 10.934-6.041 15.447-10.359l2.288-2.188h16.459l-8.204 28.868h-15.935c-2.867 0-5.684-.748-8.173-2.17h-15.581z" fill="url(#SVGID_5_)"/><path d="m294.413 446.831-10.524-10.524 7.893-7.893 18.417 18.417c-4.359 4.36-11.426 4.36-15.786 0z" fill="url(#SVGID_6_)"/><path d="m213.776 212.875c-17.039-12.777-26.131-33.553-23.955-54.74l5.55-54.031c2.84-27.654-5.251-55.322-22.545-77.088l-42.323 26.045h3.871c9.645 0 21.032 4.692 22.907 14.153 4.538 22.894 5.091 48.675-5.547 69.449l-42.617 79.474c-10.242 21.12-3.057 68.478 30.736 98.095l63.988 53.707c14.414 12.633 28.814 23.711 47.98 23.711h34.376c37.677 0 71.786-22.288 86.916-56.793 4.389-10.01 12.637-17.823 22.87-21.664l57.759-21.68z" fill="url(#SVGID_7_)"/><path d="m153.738 314.232c-33.793-29.617-40.655-75.433-30.413-96.554l41.435-80.916c10.638-20.774 13.957-44.529 9.419-67.423-1.875-9.461-10.175-16.277-19.82-16.277h-3.871l28.456-17.511c-1.89-2.931-3.931-5.78-6.119-8.534l-42.323 26.045h3.871c9.645 0 17.945 6.816 19.82 16.277 4.538 22.894 1.219 46.649-9.419 67.423l-41.435 80.916c-10.242 21.12-3.38 66.937 30.413 96.554l65.975 57.82c14.414 12.633 32.928 19.597 52.094 19.597h19.986c-19.166 0-37.68-6.965-52.094-19.597z" fill="url(#SVGID_8_)"/><path d="m130.502 53.062h3.871c6.124 0 11.705 2.748 15.444 7.176h4.449c9.755 0 19.059-4.104 25.637-11.306l4.154-4.549c-3.149-6.097-6.902-11.916-11.231-17.366z" fill="url(#SVGID_9_)"/><path d="m148.388 54.359h-11.806c-11.316 0-21.104-7.882-23.516-18.938l-1.78-8.156 5.846-6.482c5.836-6.471 14.141-10.165 22.854-10.165 16.541 0 31.629 9.447 38.852 24.328l.899 1.852-5.713 6.256c-6.577 7.202-15.882 11.305-25.636 11.305z" fill="url(#SVGID_10_)"/><path d="m85.698 47.481c0-4.902 2.887-9.345 7.367-11.336l6.332-2.814c5.708-2.537 10.934-6.041 15.447-10.359l2.288-2.188h2.347c4.547 0 8.233 3.686 8.233 8.233v5.625c0 1.356.607 2.641 1.655 3.503l2.921 2.401c.35.288.321.832-.057 1.081l-2.087 1.378c-1.373.907-2.2 2.443-2.2 4.089 0 1.412-1.145 2.557-2.557 2.557h-15.935c-2.867 0-5.684-.748-8.173-2.17z" fill="url(#SVGID_11_)"/><path d="m171.43 265.979c0 18.576 9.571 35.84 25.326 45.682l4.431 2.768c23.857 14.903 51.42 22.805 79.549 22.805 47.578 0 93.142-19.2 126.372-53.251l5.732-5.874-189.11-61.972-44.225 33.576c-5.087 3.861-8.075 9.88-8.075 16.266z" fill="url(#SVGID_12_)"/><path d="m214.12 314.429-4.431-2.768c-15.754-9.841-25.326-27.106-25.326-45.681 0-6.386 2.987-12.405 8.074-16.267l40.326-30.615-9.033-2.96-44.225 33.576c-5.087 3.862-8.074 9.88-8.074 16.267 0 18.576 9.571 35.84 25.326 45.681l4.431 2.768c23.857 14.903 51.42 22.805 79.549 22.805 2.249 0 4.493-.043 6.731-.128-25.966-1.075-51.248-8.872-73.348-22.678z" fill="url(#SVGID_13_)"/><path d="m280.411 399.775v60.863h-37.916c-6.182 0-11.907 3.255-15.067 8.568l-.483.812h57.877c5.379 0 9.74-4.361 9.74-9.74v-60.502h-14.151z" fill="url(#SVGID_14_)"/><path d="m247.495 460.638h-5c-6.182 0-11.907 3.255-15.067 8.568l-.483.812h5l.483-.812c3.16-5.312 8.885-8.568 15.067-8.568z" fill="url(#SVGID_15_)"/><path d="m280.411 399.775h5v60.863h-5z" fill="url(#SVGID_16_)"/><path d="m274.37 345.023c-9.818.452-17.898 8.531-18.349 18.349-.439 9.552 6.075 17.663 14.912 19.699 2.539.585 4.348 2.827 4.348 5.433v.142c0 10.649 8.632 19.281 19.281 19.281v-43.645c0-10.949-9.129-19.768-20.192-19.259z" fill="url(#SVGID_17_)"/><path d="m281.159 388.647v-.142c0-2.606-1.809-4.848-4.348-5.433-8.837-2.037-15.351-10.147-14.912-19.699.42-9.136 7.444-16.765 16.328-18.146-1.25-.192-2.54-.264-3.857-.203-9.818.452-17.898 8.531-18.349 18.349-.44 9.552 6.075 17.663 14.912 19.699 2.539.585 4.348 2.827 4.348 5.433v.142c0 10.649 8.632 19.281 19.281 19.281v-.913c-7.774-2.486-13.403-9.77-13.403-18.368z" fill="url(#SVGID_18_)"/><path d="m256 501.382c141.385 0 256-14.042 256-31.364h-512c0 17.322 114.615 31.364 256 31.364z" fill="url(#SVGID_19_)"/></g></svg>