<svg id="Capa_1" enable-background="new 0 0 512 512" height="512" viewBox="0 0 512 512" width="512" xmlns="http://www.w3.org/2000/svg" xmlns:xlink="http://www.w3.org/1999/xlink"><radialGradient id="SVGID_1_" cx="158.691" cy="227.437" gradientTransform="matrix(0 -1 .7 0 -.473 386.128)" gradientUnits="userSpaceOnUse" r="199.083"><stop offset="0" stop-color="#a298a5"/><stop offset=".1572" stop-color="#837b86"/><stop offset=".3282" stop-color="#69636c"/><stop offset=".4818" stop-color="#5a545d"/><stop offset=".602" stop-color="#544f57"/><stop offset="1" stop-color="#454045"/></radialGradient><radialGradient id="SVGID_2_" cx="170.858" cy="463.097" gradientTransform="matrix(0 -1 1.156 0 -364.41 633.955)" gradientUnits="userSpaceOnUse" r="63.856"><stop offset="0" stop-color="#544f57"/><stop offset=".7531" stop-color="#454045"/></radialGradient><radialGradient id="SVGID_3_" cx="234.893" cy="435.207" gradientTransform="matrix(-.762 -.648 .647 -.76 132.142 918.289)" gradientUnits="userSpaceOnUse" r="39.182"><stop offset="0" stop-color="#454045"/><stop offset=".4481" stop-color="#4e494f"/><stop offset="1" stop-color="#544f57"/></radialGradient><radialGradient id="SVGID_4_" cx="210.223" cy="413.463" gradientTransform="matrix(1 0 0 1.669 0 -276.464)" gradientUnits="userSpaceOnUse" r="52.446"><stop offset=".7229" stop-color="#c6c1c8"/><stop offset=".8189" stop-color="#c3bec5"/><stop offset=".896" stop-color="#bab4bd"/><stop offset=".9664" stop-color="#aca3ae"/><stop offset="1" stop-color="#a298a5"/></radialGradient><radialGradient id="SVGID_5_" cx="281.928" cy="405.686" gradientTransform="matrix(.985 .171 -.124 .715 54.422 67.45)" gradientUnits="userSpaceOnUse" r="76.228"><stop offset=".3698" stop-color="#454045"/><stop offset="1" stop-color="#665e66"/></radialGradient><radialGradient id="SVGID_6_" cx="288.402" cy="87.552" gradientTransform="matrix(-.762 -.648 .647 -.76 451.358 341.047)" gradientUnits="userSpaceOnUse" r="218.237"><stop offset="0" stop-color="#a298a5"/><stop offset=".2752" stop-color="#8c838e"/><stop offset=".683" stop-color="#665e66"/><stop offset=".8639" stop-color="#5e575f"/><stop offset="1" stop-color="#544f57"/></radialGradient><radialGradient id="SVGID_7_" cx="147.934" cy="148.903" gradientTransform="matrix(1 0 0 1.669 0 -99.564)" gradientUnits="userSpaceOnUse" r="199.734"><stop offset="0" stop-color="#fff"/><stop offset=".4236" stop-color="#e9e8eb"/><stop offset=".7229" stop-color="#dfdde2"/><stop offset=".8003" stop-color="#dcdadf"/><stop offset=".8624" stop-color="#d3d0d6"/><stop offset=".9193" stop-color="#c4bfc7"/><stop offset=".9727" stop-color="#b0a7b3"/><stop offset="1" stop-color="#a298a5"/></radialGradient><radialGradient id="SVGID_8_" cx="273.112" cy="61.5" gradientTransform="matrix(1 0 0 .809 0 11.742)" gradientUnits="userSpaceOnUse" r="38.499"><stop offset=".0191" stop-color="#ecbe6b"/><stop offset=".3925" stop-color="#ecbd69"/><stop offset=".5857" stop-color="#ebb961"/><stop offset=".7376" stop-color="#e9b154"/><stop offset=".8679" stop-color="#e7a741"/><stop offset=".9834" stop-color="#e49a28"/><stop offset="1" stop-color="#e49824"/></radialGradient><radialGradient id="SVGID_9_" cx="213.803" cy="463.097" gradientTransform="matrix(0 -1 1.156 0 -321.464 676.9)" gradientUnits="userSpaceOnUse" r="63.856"><stop offset="0" stop-color="#a298a5"/><stop offset=".2312" stop-color="#7b737e"/><stop offset=".4379" stop-color="#5f5962"/><stop offset=".5569" stop-color="#544f57"/><stop offset="1" stop-color="#454045"/></radialGradient><radialGradient id="SVGID_10_" cx="226.583" cy="409.187" gradientTransform="matrix(-.762 -.648 .647 -.76 134.342 867.104)" gradientUnits="userSpaceOnUse" r="73.159"><stop offset="0" stop-color="#a298a5"/><stop offset=".11" stop-color="#978d9a"/><stop offset=".6104" stop-color="#67606a"/><stop offset=".8593" stop-color="#544f57"/></radialGradient><radialGradient id="SVGID_11_" cx="238.869" cy="405.754" gradientTransform="matrix(1 0 0 1.669 0 -271.309)" gradientUnits="userSpaceOnUse" r="52.446"><stop offset="0" stop-color="#f1f1f4"/><stop offset=".2489" stop-color="#dddadf"/><stop offset=".5274" stop-color="#ccc8ce"/><stop offset=".7229" stop-color="#c6c1c8"/><stop offset=".8189" stop-color="#c3bec5"/><stop offset=".896" stop-color="#bab4bd"/><stop offset=".9664" stop-color="#aca3ae"/><stop offset="1" stop-color="#a298a5"/></radialGradient><radialGradient id="SVGID_12_" cx="305.698" cy="134.075" gradientTransform="matrix(0 -1 .7 0 211.87 439.772)" gradientUnits="userSpaceOnUse" r="199.083"><stop offset="0" stop-color="#a298a5"/><stop offset=".0953" stop-color="#938a95"/><stop offset=".2901" stop-color="#7a727b"/><stop offset=".465" stop-color="#6b636c"/><stop offset=".602" stop-color="#665e66"/><stop offset="1" stop-color="#665e66"/></radialGradient><radialGradient id="SVGID_13_" cx="205.587" cy="268.725" gradientTransform="matrix(.356 -.935 .598 .228 -28.387 399.603)" gradientUnits="userSpaceOnUse" r="160.797"><stop offset="0" stop-color="#dddaec"/><stop offset=".086" stop-color="#cac5d6"/><stop offset=".377" stop-color="#8b818e"/><stop offset=".6306" stop-color="#776f7a"/><stop offset=".9897" stop-color="#544f57"/></radialGradient><radialGradient id="SVGID_14_" cx="183.566" cy="-7.452" gradientTransform="matrix(.985 .171 -.124 .715 1.773 -33.473)" gradientUnits="userSpaceOnUse" r="92.167"><stop offset="0" stop-color="#c6c1c8"/><stop offset=".0938" stop-color="#b2acb4"/><stop offset=".2738" stop-color="#918a93"/><stop offset=".4227" stop-color="#7c767f"/><stop offset=".5209" stop-color="#756e78"/><stop offset=".6468" stop-color="#68616a"/><stop offset="1" stop-color="#454045"/></radialGradient><radialGradient id="SVGID_15_" cx="139.447" cy="13.163" gradientTransform="matrix(1 0 0 .582 0 5.507)" gradientUnits="userSpaceOnUse" r="53.87"><stop offset="0" stop-color="#c6c1c8"/><stop offset=".2545" stop-color="#a29da5"/><stop offset=".5316" stop-color="#827b84"/><stop offset=".6824" stop-color="#756e78"/><stop offset="1" stop-color="#544f57"/></radialGradient><radialGradient id="SVGID_16_" cx="250.976" cy="36.878" gradientTransform="matrix(.985 .171 -.124 .715 8.258 -32.354)" gradientUnits="userSpaceOnUse" r="64.624"><stop offset="0" stop-color="#756e78"/><stop offset=".5149" stop-color="#736c76"/><stop offset=".7003" stop-color="#6d666f"/><stop offset=".8325" stop-color="#625c64"/><stop offset=".9387" stop-color="#524c53"/><stop offset="1" stop-color="#454045"/></radialGradient><radialGradient id="SVGID_17_" cx="187.246" cy="33.112" gradientTransform="matrix(1 0 0 .582 0 13.852)" gradientUnits="userSpaceOnUse" r="53.87"><stop offset="0" stop-color="#8b818e"/><stop offset=".2819" stop-color="#887e8b"/><stop offset=".4985" stop-color="#7f7681"/><stop offset=".6933" stop-color="#6f6771"/><stop offset=".8743" stop-color="#59535a"/><stop offset="1" stop-color="#454045"/></radialGradient><radialGradient id="SVGID_18_" cx="359.663" cy="1400.825" gradientTransform="matrix(.931 0 0 .112 -75.044 328.647)" gradientUnits="userSpaceOnUse" r="225.404"><stop offset="0" stop-color="#c6c1c8"/><stop offset=".2432" stop-color="#dddbdf"/><stop offset=".4962" stop-color="#f1f1f4"/><stop offset=".6787" stop-color="#fafafb"/><stop offset=".8982" stop-color="#fff"/></radialGradient><g><path d="m215.206 410.418c-16.889 0-31.766-11.109-36.562-27.303l-1.511-5.102c-15.788-53.302-16.605-109.921-2.362-163.656 3.219-12.144 14.208-20.6 26.771-20.6 15.296 0 27.696 12.4 27.696 27.696v2.875c0 20.883-4.801 41.487-14.031 60.22v125.87z" fill="url(#SVGID_1_)"/><path d="m206.638 466.956h44.748v17.952h-85.891l.246-.262c10.607-11.288 25.408-17.69 40.897-17.69z" fill="url(#SVGID_2_)"/><path d="m251.386 484.908c-30.086 0-50.668-24.389-50.668-54.475v-15.785c0-15.043 8.388-27.237 23.431-27.237 15.043 0 27.237 12.195 27.237 27.237z" fill="url(#SVGID_3_)"/><path d="m211.563 430.433v-15.785c0-12.507 8.441-23.019 19.929-26.216-2.329-.648-4.773-1.021-7.308-1.021-15.043 0-27.237 12.195-27.237 27.237v15.785c0 30.085 24.389 54.475 54.475 54.475v-2c-22.984-6.389-39.859-27.455-39.859-52.475z" fill="url(#SVGID_4_)"/><path d="m354.33 484.908h-32.22c-29.893 0-54.127-24.233-54.127-54.127v-35.815h52.468v30.94c0 23.553 12.144 45.442 32.127 57.909z" fill="url(#SVGID_5_)"/><path d="m196.947 371.853s19.573-311.402 21.243-319.24l22.774-52.613c10.417 0 20.395 4.199 27.678 11.647 51.034 52.191 79.609 122.286 79.609 195.281 0 60.81-8.385 121.33-24.917 179.849-8.33 29.486-35.238 49.845-65.878 49.845h-13.893z" fill="url(#SVGID_6_)"/><path d="m244.744 401.92-6.833-20.018c-14.541-42.602-21.961-87.309-21.961-132.323 0-36.948 4.361-73.767 12.991-109.693l8.288-34.499c2.989-12.443 9.612-23.715 19.026-32.382 5.896-5.428 9.959-12.554 11.629-20.392l12.292-28.397-39.212-24.216-22.774 52.613c-1.67 7.838-5.733 14.964-11.629 20.392-9.414 8.668-16.037 19.94-19.026 32.382l-8.288 34.499c-8.631 35.926-12.991 72.745-12.991 109.693 0 45.015 7.42 89.722 21.961 132.323l6.833 20.018c7.084 20.754 26.584 34.703 48.514 34.703h13.893c6.647 0 13.118-.961 19.262-2.763-14.743-5.031-26.746-16.621-31.975-31.94z" fill="url(#SVGID_7_)"/><path d="m215.71 60.252h18.472c8.768 0 17.2-3.378 23.543-9.431l2.725-2.601c7.089-6.765 11.099-16.137 11.099-25.936h-21.394z" fill="url(#SVGID_8_)"/><path d="m249.583 466.956h44.748v17.952h-85.891l.246-.262c10.607-11.288 25.408-17.69 40.897-17.69z" fill="url(#SVGID_9_)"/><path d="m294.331 484.908c-30.086 0-47.934-24.389-47.934-54.475l-1.735-15.785c0-15.043 7.389-27.237 22.432-27.237 15.043 0 27.237 12.195 27.237 27.237z" fill="url(#SVGID_10_)"/><path d="m254.472 430.433v-15.785c0-12.507 8.441-23.019 19.929-26.216-2.329-.648-4.772-1.021-7.308-1.021-15.043 0-27.237 12.195-27.237 27.237v15.785c0 30.085 24.389 54.475 54.475 54.475v-2c-22.984-6.389-39.859-27.455-39.859-52.475z" fill="url(#SVGID_11_)"/><path d="m285.729 410.418c-16.889 0-31.766-11.109-36.562-27.303l-1.511-5.102c-15.788-53.302-16.605-109.921-2.362-163.656 3.219-12.144 14.208-20.6 26.771-20.6 15.296 0 27.696 12.4 27.696 27.696v2.875c0 20.883-4.801 41.487-14.031 60.22v125.87z" fill="url(#SVGID_12_)"/><path d="m264.167 383.115-1.511-5.102c-15.788-53.302-16.605-109.921-2.362-163.656 2.557-9.648 10.02-16.968 19.279-19.569-2.388-.671-4.906-1.03-7.508-1.03-12.563 0-23.552 8.456-26.771 20.6-14.243 53.735-13.426 110.354 2.362 163.656l1.511 5.102c4.796 16.194 19.674 27.303 36.562 27.303v-3.072c-10.204-4.371-18.265-13.1-21.562-24.232z" fill="url(#SVGID_13_)"/><path d="m246.719 11.647-3.089-11.551-24.59-.096c-13.001 0-25.825 3.021-37.458 8.826l-12.82 6.396v20.269l18.692 18.496c4.056 4.014 9.532 6.265 15.239 6.265h15.58l-3.557-5.841c3.691-2.602 6.855-5.986 9.2-10.021l5.539-9.528c2.999-5.159 8.516-8.333 14.483-8.333h16.32c-4.32-5.105-8.834-10.07-13.539-14.882z" fill="url(#SVGID_14_)"/><path d="m168.762 15.222h-22.367c-10.536 0-20.641 4.186-28.091 11.636l-2.832 2.832h26.393c9.276 0 18.445 1.978 26.897 5.801h.536c8.688 0 17.021-3.451 23.164-9.595z" fill="url(#SVGID_15_)"/><path d="m190.686 35.491 23.202 22.959c1.167 1.155 2.743 1.803 4.385 1.803 11.358 0 21.859-6.042 27.567-15.862l5.539-9.528c2.999-5.159 8.516-8.333 14.483-8.333h16.32c-4.319-5.105-8.833-10.07-13.538-14.882-7.285-7.449-17.263-11.648-27.68-11.648-13.001 0-25.825 3.021-37.458 8.826l-12.82 6.396z" fill="url(#SVGID_16_)"/><path d="m190.686 15.222h-22.367c-10.536 0-20.641 4.186-28.091 11.636l-2.832 2.832h26.393c9.276 0 18.445 1.978 26.897 5.801h.536c8.688 0 17.021-3.451 23.164-9.595z" fill="url(#SVGID_17_)"/><path d="m256 512c120.732 0 218.605-11.991 218.605-27.092h-437.21c0 15.101 97.873 27.092 218.605 27.092z" fill="url(#SVGID_18_)"/></g></svg>