<svg id="Capa_1" enable-background="new 0 0 512 512" height="512" viewBox="0 0 512 512" width="512" xmlns="http://www.w3.org/2000/svg" xmlns:xlink="http://www.w3.org/1999/xlink"><radialGradient id="SVGID_1_" cx="429.619" cy="2183.277" gradientTransform="matrix(.931 0 0 .112 -161.706 241.454)" gradientUnits="userSpaceOnUse" r="226.045"><stop offset="0" stop-color="#c6d0da"/><stop offset=".2432" stop-color="#e0e6eb"/><stop offset=".4962" stop-color="#f6f9f9"/><stop offset=".617" stop-color="#fafcfc"/><stop offset=".8982" stop-color="#fff"/></radialGradient><radialGradient id="SVGID_2_" cx="414.353" cy="264.68" gradientTransform="matrix(0 -1 .246 0 349.148 679.033)" gradientUnits="userSpaceOnUse" r="325.366"><stop offset="0" stop-color="#a0aab7"/><stop offset=".2755" stop-color="#a3adba"/><stop offset=".4951" stop-color="#adb7c3"/><stop offset=".6955" stop-color="#bec8d1"/><stop offset=".8834" stop-color="#d5dfe6"/><stop offset=".9136" stop-color="#dae4ea"/></radialGradient><radialGradient id="SVGID_3_" cx="414.353" cy="176.458" gradientTransform="matrix(0 -1 .365 0 349.888 590.811)" gradientUnits="userSpaceOnUse" r="197.065"><stop offset=".2714" stop-color="#4d5961"/><stop offset=".4867" stop-color="#505c64"/><stop offset=".6434" stop-color="#59656d"/><stop offset=".7814" stop-color="#69747d"/><stop offset=".9081" stop-color="#7f8a93"/><stop offset=".9852" stop-color="#909ba5"/></radialGradient><linearGradient id="lg1"><stop offset="0" stop-color="#dae4ea"/><stop offset=".4338" stop-color="#d7e1e8"/><stop offset=".7583" stop-color="#cdd7e0"/><stop offset=".9105" stop-color="#c6d0da"/></linearGradient><radialGradient id="SVGID_4_" cx="87.229" cy="270.417" gradientTransform="matrix(.207 -.978 .701 .149 -120.352 315.567)" gradientUnits="userSpaceOnUse" r="47.654" xlink:href="#lg1"/><radialGradient id="SVGID_5_" cx="297.646" cy="438.962" fx="280.732" fy="441.389" gradientTransform="matrix(.762 -.648 .647 .76 -213.046 298.217)" gradientUnits="userSpaceOnUse" r="70.497"><stop offset="0" stop-color="#4d5961"/><stop offset=".1324" stop-color="#556169"/><stop offset=".9175" stop-color="#808b95"/></radialGradient><radialGradient id="SVGID_6_" cx="239.815" cy="390.343" fx="224.005" fy="389.835" gradientTransform="matrix(1 -.01 .005 .523 -2.01 188.687)" gradientUnits="userSpaceOnUse" r="89.337"><stop offset=".1048" stop-color="#4d5961"/><stop offset=".3256" stop-color="#606b74"/><stop offset=".6648" stop-color="#77828c"/><stop offset=".8745" stop-color="#808b95"/></radialGradient><radialGradient id="SVGID_7_" cx="285.274" cy="407.41" fx="267.093" fy="410.019" gradientTransform="matrix(.762 -.648 .647 .76 -195.581 282.63)" gradientUnits="userSpaceOnUse" r="75.778"><stop offset="0" stop-color="#4d5961"/><stop offset=".0393" stop-color="#525e66"/><stop offset=".3515" stop-color="#737f88"/><stop offset=".5206" stop-color="#808b95"/></radialGradient><radialGradient id="SVGID_8_" cx="270.105" cy="459.978" fx="260.835" fy="461.308" gradientTransform="matrix(.762 -.648 .647 .76 -233.215 285.406)" gradientUnits="userSpaceOnUse" r="38.639"><stop offset="0" stop-color="#b9c1cb"/><stop offset=".098" stop-color="#acb5bf"/><stop offset=".4557" stop-color="#808b95"/><stop offset=".95" stop-color="#5e6b75"/></radialGradient><radialGradient id="SVGID_9_" cx="71.262" cy="384.204" fx="62.154" fy="408.352" gradientTransform="matrix(.762 -.648 .647 .76 -231.613 138.342)" gradientUnits="userSpaceOnUse" r="85.076"><stop offset="0"/><stop offset=".2546" stop-color="#2d3134"/><stop offset=".5405" stop-color="#5a6168"/><stop offset=".7561" stop-color="#758089"/><stop offset=".8745" stop-color="#808b95"/></radialGradient><radialGradient id="SVGID_10_" cx="-3153.982" cy="350.477" fx="-3168.334" fy="352.158" gradientTransform="matrix(-.787 -.617 -.616 .786 -2182.308 -1871.023)" gradientUnits="userSpaceOnUse" r="77.781"><stop offset=".0436" stop-color="#4d5961"/><stop offset=".0946" stop-color="#515d66"/><stop offset=".4397" stop-color="#6b7680"/><stop offset=".7495" stop-color="#7b868f"/><stop offset=".992" stop-color="#808b95"/></radialGradient><radialGradient id="SVGID_11_" cx="184.752" cy="263.317" fx="125.972" fy="299.76" gradientTransform="matrix(.995 .096 -.064 .668 17.816 69.747)" gradientUnits="userSpaceOnUse" r="213.974"><stop offset="0" stop-color="#b9c1cb"/><stop offset=".5161" stop-color="#a0aab7"/><stop offset="1" stop-color="#808b95"/></radialGradient><radialGradient id="SVGID_12_" cx="135.211" cy="293.668" fx="149.39" fy="261.473" gradientTransform="matrix(.995 .096 -.064 .668 19.543 84.589)" gradientUnits="userSpaceOnUse" r="47.342"><stop offset="0" stop-color="#b9c1cb"/><stop offset=".3307" stop-color="#b5bdc8"/><stop offset=".6811" stop-color="#a8b1bd"/><stop offset=".834" stop-color="#a0aab7"/></radialGradient><radialGradient id="SVGID_13_" cx="93.392" cy="348.049" fx="55.552" fy="371.51" gradientTransform="matrix(.995 .096 -.064 .668 22.852 106.673)" gradientUnits="userSpaceOnUse" r="137.75"><stop offset=".1869" stop-color="#ecf9f9"/><stop offset=".3744" stop-color="#d4dfe5"/><stop offset=".5161" stop-color="#c6d0da"/><stop offset="1" stop-color="#b9c1cb"/></radialGradient><radialGradient id="SVGID_14_" cx="97.58" cy="298.749" fx="85.798" fy="306.054" gradientTransform="matrix(.995 .096 -.064 .668 19.696 89.891)" gradientUnits="userSpaceOnUse" r="42.89"><stop offset=".0053" stop-color="#c6d0da"/><stop offset="1" stop-color="#b9c1cb"/></radialGradient><radialGradient id="SVGID_15_" cx="44.285" cy="371.61" fx="34.102" fy="398.605" gradientTransform="matrix(.903 -.429 .428 .902 -76.251 46.595)" gradientUnits="userSpaceOnUse" r="95.107"><stop offset="0" stop-color="#4d5961"/><stop offset=".3569" stop-color="#75808a"/><stop offset=".6909" stop-color="#949eab"/><stop offset=".8745" stop-color="#a0aab7"/></radialGradient><radialGradient id="SVGID_16_" cx="152.272" cy="475.093" fx="139.647" fy="483.872" gradientTransform="matrix(.762 -.648 .647 .76 -271.103 212.652)" gradientUnits="userSpaceOnUse" r="63.442"><stop offset="0" stop-color="#b9c1cb"/><stop offset=".8745" stop-color="#a0aab7"/></radialGradient><radialGradient id="SVGID_17_" cx="-3271.622" cy="371.756" fx="-3285.974" fy="373.437" gradientTransform="matrix(-.92 -.392 -.392 .918 -2741.518 -1264.829)" gradientUnits="userSpaceOnUse" r="77.781"><stop offset=".0436" stop-color="#c6d0da"/><stop offset=".3264" stop-color="#b5bfcb"/><stop offset=".7039" stop-color="#a6b0bc"/><stop offset="1" stop-color="#a0aab7"/></radialGradient><radialGradient id="SVGID_18_" cx="203.495" cy="397.348" fx="200.264" fy="396.957" gradientTransform="matrix(.6 -.8 .646 .485 -248.155 354.283)" gradientUnits="userSpaceOnUse" r="61.765"><stop offset="0" stop-color="#ecf9f9"/><stop offset=".4102" stop-color="#c6d0da"/><stop offset=".5698" stop-color="#bec8d2"/><stop offset=".8206" stop-color="#a7b1be"/><stop offset=".8881" stop-color="#a0aab7"/></radialGradient><radialGradient id="SVGID_19_" cx="239.034" cy="468.457" fx="233.907" fy="469.192" gradientTransform="matrix(.762 -.648 .647 .76 -246.113 267.299)" gradientUnits="userSpaceOnUse" r="21.37"><stop offset="0" stop-color="#b9c1cb"/><stop offset=".8745" stop-color="#909ba5"/></radialGradient><radialGradient id="SVGID_20_" cx="269.802" cy="350.806" fx="256.365" fy="368.33" gradientTransform="matrix(.972 .236 -.29 1.194 109.297 -131.611)" gradientUnits="userSpaceOnUse" r="127.797"><stop offset="0" stop-color="#c6d0da"/><stop offset=".1747" stop-color="#bac4ce"/><stop offset=".487" stop-color="#9ba6b0"/><stop offset=".7201" stop-color="#808b95"/></radialGradient><radialGradient id="SVGID_21_" cx="295.532" cy="391.955" fx="285.311" fy="456.649" gradientTransform="matrix(.787 -.617 .508 .648 -136.091 320.452)" gradientUnits="userSpaceOnUse" r="109.971"><stop offset="0" stop-color="#808b95"/><stop offset=".1127" stop-color="#8a95a0"/><stop offset=".2728" stop-color="#a0aab7"/><stop offset=".3165" stop-color="#a8b2be"/><stop offset=".3841" stop-color="#bdc8d0"/><stop offset=".4669" stop-color="#dfebee"/><stop offset=".495" stop-color="#ecf9f9"/><stop offset=".6444" stop-color="#c6d0da"/><stop offset=".6988" stop-color="#b5c0ca"/><stop offset=".8046" stop-color="#9aa5af"/><stop offset=".8666" stop-color="#909ba5"/></radialGradient><radialGradient id="SVGID_22_" cx="30.211" cy="256.338" fx="25.117" fy="249.135" gradientTransform="matrix(.933 -.359 .256 .665 -63.581 96.867)" gradientUnits="userSpaceOnUse" r="62.512"><stop offset="0" stop-color="#ecf9f9"/><stop offset="1" stop-color="#dae4ea"/></radialGradient><radialGradient id="SVGID_23_" cx="53.244" cy="232.187" gradientTransform="matrix(1 0 0 .911 0 20.782)" gradientUnits="userSpaceOnUse" r="60.343"><stop offset="0" stop-color="#bcd0df"/><stop offset=".0762" stop-color="#b6c8d7"/><stop offset=".2904" stop-color="#aab7c5"/><stop offset=".5186" stop-color="#a2adba"/><stop offset=".7826" stop-color="#a0aab7"/></radialGradient><radialGradient id="SVGID_24_" cx="23.834" cy="285.864" gradientTransform="matrix(.568 .823 -.839 .578 250.036 101.021)" gradientUnits="userSpaceOnUse" r="42.684"><stop offset=".1196" stop-color="#dae4ea"/><stop offset=".5401" stop-color="#adb8c0"/><stop offset="1" stop-color="#808b95"/></radialGradient><radialGradient id="SVGID_25_" cx="111.889" cy="273.725" gradientTransform="matrix(1 0 0 .716 0 77.656)" gradientUnits="userSpaceOnUse" r="67.855" xlink:href="#lg1"/><radialGradient id="SVGID_26_" cx="96.935" cy="264.046" gradientTransform="matrix(1 0 0 .911 0 23.634)" gradientUnits="userSpaceOnUse" r="98.766"><stop offset="0" stop-color="#a0aab7"/><stop offset=".3461" stop-color="#99a3b0"/><stop offset=".8568" stop-color="#86919c"/><stop offset="1" stop-color="#808b95"/></radialGradient><radialGradient id="SVGID_27_" cx="128.79" cy="270.417" gradientTransform="matrix(.207 -.978 .701 .149 -87.412 356.224)" gradientUnits="userSpaceOnUse" r="47.654"><stop offset="0" stop-color="#dae4ea"/><stop offset=".3803" stop-color="#dde6ec"/><stop offset=".6649" stop-color="#e7edf1"/><stop offset=".9105" stop-color="#f6f9f9"/></radialGradient><radialGradient id="SVGID_28_" cx="124.673" cy="276.67" gradientTransform="matrix(.504 -.864 .637 .372 -114.433 281.382)" gradientUnits="userSpaceOnUse" r="44.571"><stop offset="0" stop-color="#808b95"/><stop offset=".3048" stop-color="#758089"/><stop offset=".8476" stop-color="#57626b"/><stop offset="1" stop-color="#4d5961"/></radialGradient><radialGradient id="SVGID_29_" cx="64.892" cy="304.286" fx="58.813" fy="304.998" gradientTransform="matrix(.787 -.617 .616 .786 -173.61 105.292)" gradientUnits="userSpaceOnUse" r="32.949"><stop offset=".008" stop-color="#808b95"/><stop offset=".3223" stop-color="#7d8892"/><stop offset=".5539" stop-color="#747f89"/><stop offset=".7583" stop-color="#647079"/><stop offset=".947" stop-color="#4e5a62"/><stop offset=".9564" stop-color="#4d5961"/></radialGradient><radialGradient id="SVGID_30_" cx="25.321" cy="615.679" gradientTransform="matrix(.762 -.571 .647 .669 -392.355 -100.738)" gradientUnits="userSpaceOnUse" r="16.466"><stop offset="0" stop-color="#e2f4f9"/><stop offset=".3984" stop-color="#aebbc3"/><stop offset=".6107" stop-color="#909ba5"/><stop offset=".8335" stop-color="#75818b"/><stop offset="1" stop-color="#5e6b75"/></radialGradient><g><path d="m234.484 512c121.123 0 219.313-12.03 219.313-26.869h-438.626c0 14.839 98.19 26.869 219.313 26.869z" fill="url(#SVGID_1_)"/><path d="m332.837 350.755v-267.713c0-45.142 36.046-82.6 81.186-83.038 45.582-.443 82.806 36.51 82.806 81.993v44.716c0 10.294-8.345 18.64-18.64 18.64-10.294 0-18.64-8.345-18.64-18.64v-43.967c0-24.485-19.371-44.994-43.851-45.459-25.051-.476-45.582 19.765-45.582 44.709v231.479c0 20.589-16.69 37.28-37.279 37.28z" fill="url(#SVGID_2_)"/><path d="m466.722 18.552-19.189 33.236c-4.587-5.015-10.275-8.989-16.691-11.501l18.783-32.534c6.154 2.896 11.892 6.534 17.097 10.799zm15.557 16.861-32.642 18.846c4.179 5.275 7.221 11.502 8.765 18.271l33.257-19.201c-2.391-6.386-5.556-12.396-9.38-17.916zm-118.06-17.65 18.901 32.738c4.76-4.793 10.597-8.516 17.111-10.773l-18.783-32.534c-6.191 2.808-11.97 6.371-17.229 10.569zm-25.671 34.879 32.794 18.934c1.618-6.752 4.772-12.914 9.071-18.094l-32.286-18.64c-3.872 5.483-7.101 11.456-9.579 17.8zm67.047-52.12c2.769-.315 5.58-.49 8.428-.518 3.997-.039 7.929.21 11.777.727v37.928c-3.236-.832-6.617-1.305-10.102-1.371-3.469-.066-6.85.266-10.103.952zm-72.758 95.704v-13.184c0-2.363.099-4.705.293-7.022h37.385c-.262 1.955-.399 3.95-.399 5.976v14.229h-37.279zm126.22-20.205h37.557c.143 1.974.216 3.967.216 5.976v14.229h-37.28v-13.48c0-2.281-.169-4.527-.493-6.725zm-126.22 182.565v-20.205h37.279v20.205zm0 40.591v-20.205h37.279v20.205zm163.992-182.567v10.103c0 10.294-8.345 18.64-18.64 18.64-10.294 0-18.64-8.345-18.64-18.64v-10.103zm-163.992 101.386v-20.205h37.279v20.205zm0-40.59v-20.205h37.279v20.205zm0-40.591v-20.205h37.279v20.205z" fill="url(#SVGID_3_)"/><path d="m69.982 245.101 14.148-19.473 7.391 12.801c6.434 11.144 4.581 25.221-4.518 34.321l-11.954 11.954-7.133-14.18c-4.122-8.193-3.325-18.003 2.066-25.423z" fill="url(#SVGID_4_)"/><path d="m238.161 393.345-32.873 78.257h-21.833c-6.26 0-11.335 5.075-11.335 11.335v2.194h51.416l53.205-53.205z" fill="url(#SVGID_5_)"/><path d="m289.465 354.722c0-32.12-26.416-58.07-58.709-57.31-30.009.706-54.652 24.885-55.893 54.876-.678 16.385 5.525 31.325 15.955 42.169l-.008.008 37.461 37.461c13.385 13.385 35.086 13.385 48.471 0l-12.289-18.695c-2.72-4.138-1.814-9.71 2.142-12.69 13.889-10.461 22.87-27.091 22.87-45.819z" fill="url(#SVGID_6_)"/><path d="m300.173 393.345-32.873 78.257h-21.833c-6.26 0-11.335 5.075-11.335 11.335v2.194h51.416l53.205-53.205z" fill="url(#SVGID_7_)"/><path d="m277.319 471.602 29.909-71.202-7.055-7.055-32.873 78.257z" fill="url(#SVGID_8_)"/><path d="m107.813 382.852 12.625 89.664h-4.517c-5.837 0-10.569 4.732-10.569 10.569v2.046h44.697v-67.913z" fill="url(#SVGID_9_)"/><path d="m119.384 331.034c16.698-1.099 30.665 12.645 30.665 29.379v56.804h-8.767c-26.913 0-48.731-21.818-48.731-48.731v-8.766c0-15.234 11.849-27.7 26.833-28.686z" fill="url(#SVGID_10_)"/><path d="m361.91 339.413c6.548 38.853-23.4 74.27-62.8 74.27h-113.748l-64.062-28.08-33.886-112.076h69.786c27.416-18.642 59.803-28.61 92.957-28.61 55.322 0 102.559 39.943 111.753 94.496z" fill="url(#SVGID_11_)"/><path d="m148.02 273.527h-60.606l11.374 37.618.295-.171h10.758c20.842 0 37.784-16.699 38.179-37.447z" fill="url(#SVGID_12_)"/><path d="m112.651 313.012 2.722-39.485h-27.96l-2.722 39.485c0 55.599 45.072 100.67 100.67 100.67h27.96c-55.598.001-100.67-45.071-100.67-100.67z" fill="url(#SVGID_13_)"/><path d="m109.841 310.974c.996 0 1.982-.038 2.959-.113l11.373-37.334h-36.759l-2.722 39.485c0 2.07.063 4.125.186 6.163l14.206-8.201z" fill="url(#SVGID_14_)"/><path d="m154.675 472.516v-99.389l39.438 44.126s-18.188 67.877-18.188 67.877h-47.075v-2.046c0-5.837 4.732-10.569 10.569-10.569h15.256z" fill="url(#SVGID_15_)"/><path d="m163.063 472.516h-8.388v-99.389l8.388 9.385zm-15.257 0h-8.388c-5.837 0-10.569 4.732-10.569 10.569v2.046h8.388v-2.046c.001-5.837 4.732-10.569 10.569-10.569z" fill="url(#SVGID_16_)"/><path d="m142.473 341.907c15.845-5.383 32.893 4.277 37.224 20.441l14.702 54.869-8.468 2.269c-25.996 6.966-52.718-8.462-59.683-34.458l-2.269-8.468c-3.943-14.714 4.275-29.822 18.494-34.653z" fill="url(#SVGID_17_)"/><path d="m135.426 382.569-2.269-8.468c-3.683-13.744 3.246-27.829 15.763-33.564-2.148.199-4.309.643-6.447 1.37-14.218 4.831-22.437 19.939-18.494 34.653l2.269 8.468c6.966 25.996 33.687 41.424 59.683 34.458l8.468-2.269-.005-.018c-25.77 6.496-52.066-8.872-58.968-34.63z" fill="url(#SVGID_18_)"/><path d="m253.023 471.602h-7.556c-6.26 0-11.335 5.075-11.335 11.335v2.194h7.556v-2.194c0-6.26 5.075-11.335 11.335-11.335z" fill="url(#SVGID_19_)"/><path d="m328.607 400.541c13.889-10.461 22.87-27.092 22.87-45.819 0-18.735-8.997-35.358-22.894-45.819l-80.249 80.249 41.949 42.774c13.385 13.385 35.086 13.385 48.471 0l-12.289-18.695c-2.72-4.139-1.814-9.71 2.142-12.69z" fill="url(#SVGID_20_)"/><path d="m305.194 431.926-41.949-42.774 73.144-73.144c-2.382-2.596-4.987-4.983-7.807-7.105l-80.249 80.249 41.949 42.774c8.601 8.601 20.635 11.666 31.692 9.212-6.149-1.364-11.996-4.429-16.78-9.212z" fill="url(#SVGID_21_)"/><path d="m116.601 245.423-72.761 9.743c-3.579 5.711-5.648 12.465-5.648 19.702v9.324l-4.128 4.128 7.926 27.382 20.325-.891 15.307-8.837h10.758c21.09 0 38.187-17.097 38.187-38.187-.001-8.878-3.848-16.858-9.966-22.364z" fill="url(#SVGID_22_)"/><path d="m76.86 264.105 14.954-26.397h-16.461c-13.286 0-24.943 6.972-31.512 17.458h16.461z" fill="url(#SVGID_23_)"/><path d="m50.526 288.32h-16.461l-7.831 7.831c-4.813 4.814-4.814 12.618 0 17.431l6.933 6.933c2.53 2.53 5.902 3.835 9.302 3.807l16.461.001z" fill="url(#SVGID_24_)"/><path d="m133.062 245.423-72.761 9.743c-3.579 5.711-5.648 12.465-5.648 19.702v9.324l-4.128 4.128 7.926 27.382 20.325-.891 15.307-8.837h10.758c21.09 0 38.187-17.097 38.187-38.187-.001-8.878-3.848-16.858-9.966-22.364z" fill="url(#SVGID_25_)"/><path d="m93.321 264.105h21.059l18.682-18.682c-5.329-4.796-12.381-7.715-20.114-7.715h-21.134c-13.286 0-24.943 6.972-31.512 17.458h15.988c5.182 0 10.151 2.058 13.815 5.722z" fill="url(#SVGID_26_)"/><path d="m111.543 245.101 14.148-19.473 7.391 12.801c6.434 11.144 4.581 25.221-4.518 34.321l-11.954 11.954-7.133-14.18c-4.122-8.193-3.325-18.003 2.066-25.423z" fill="url(#SVGID_27_)"/><path d="m133.082 238.43c-.643-1.114-2.251-1.114-2.894 0l-9.663 16.737-8.123 14.069c-1.192 2.064-1.264 4.59-.193 6.719 2.168 4.309 7.916 5.235 11.327 1.824l5.028-5.028c9.098-9.099 10.952-23.176 4.518-34.321z" fill="url(#SVGID_28_)"/><path d="m50.526 288.321-7.831 7.831c-4.814 4.814-4.814 12.618 0 17.431l6.933 6.933c4.16 4.16 10.595 5.007 15.69 2.066l13.458-7.77-13.445-3.603c-1.205-.323-2.232-1.111-2.856-2.191z" fill="url(#SVGID_29_)"/><path d="m38.337 303.259c0 2.218-4.368 6.558-7.146 6.558s-7.146-4.341-7.146-6.558 3.199-4.015 7.146-4.015 7.146 1.797 7.146 4.015z" fill="url(#SVGID_30_)"/></g></svg>