<svg id="Capa_1" enable-background="new 0 0 512 512" height="512" viewBox="0 0 512 512" width="512" xmlns="http://www.w3.org/2000/svg" xmlns:xlink="http://www.w3.org/1999/xlink"><radialGradient id="SVGID_1_" cx="325.516" cy="2428.478" gradientTransform="matrix(.931 0 0 .112 -31.713 123.963)" gradientUnits="userSpaceOnUse" r="244.835"><stop offset="0" stop-color="#f4d8bc"/><stop offset=".0882" stop-color="#f6dcc2"/><stop offset=".4962" stop-color="#ffead8"/><stop offset=".8982" stop-color="#fff"/></radialGradient><linearGradient id="lg1"><stop offset="0" stop-color="#f4d8bc"/><stop offset=".106" stop-color="#f2cfab"/><stop offset=".3888" stop-color="#ecb883"/><stop offset=".6131" stop-color="#e8aa6a"/><stop offset=".7494" stop-color="#e7a561"/></linearGradient><radialGradient id="SVGID_2_" cx="226.342" cy="375.148" gradientTransform="matrix(.578 .816 -1.124 .795 517.142 -107.879)" gradientUnits="userSpaceOnUse" r="42.563" xlink:href="#lg1"/><radialGradient id="SVGID_3_" cx="164.742" cy="172.082" gradientTransform="matrix(.694 .72 -.568 .548 157.672 117.834)" gradientUnits="userSpaceOnUse" r="53.336"><stop offset=".3347" stop-color="#eadfda"/><stop offset=".9552" stop-color="#efe7e4"/></radialGradient><radialGradient id="SVGID_4_" cx="228.879" cy="198.594" gradientTransform="matrix(1 0 0 .98 0 3.893)" gradientUnits="userSpaceOnUse" r="300.69"><stop offset="0" stop-color="#f9f6f6"/><stop offset=".5729" stop-color="#efe7e4"/><stop offset=".9136" stop-color="#dfd5d1"/><stop offset="1" stop-color="#dad0cb"/></radialGradient><radialGradient id="SVGID_5_" cx="154.738" cy="284.777" gradientTransform="matrix(1 0 0 .98 0 5.582)" gradientUnits="userSpaceOnUse" r="195.219"><stop offset="0" stop-color="#fff"/><stop offset=".49" stop-color="#efe7e4"/><stop offset=".7311" stop-color="#dad2ce"/><stop offset="1" stop-color="#c6beb9"/></radialGradient><radialGradient id="SVGID_6_" cx="227.63" cy="198.594" gradientTransform="matrix(1 0 0 .98 0 3.893)" gradientUnits="userSpaceOnUse" r="301.605"><stop offset="0" stop-color="#f4d8bc"/><stop offset=".5729" stop-color="#ecb780"/><stop offset=".7281" stop-color="#eaac6d"/><stop offset="1" stop-color="#e49542"/></radialGradient><linearGradient id="lg2"><stop offset="0" stop-color="#fffbe4"/><stop offset=".1495" stop-color="#fae9ca"/><stop offset=".4131" stop-color="#f2cea2"/><stop offset=".6223" stop-color="#eebd89"/><stop offset=".7494" stop-color="#ecb780"/></linearGradient><radialGradient id="SVGID_7_" cx="285.78" cy="369.801" gradientTransform="matrix(.578 .816 -1.124 .795 536.241 -157.495)" gradientUnits="userSpaceOnUse" r="38.992" xlink:href="#lg2"/><radialGradient id="SVGID_8_" cx="302.48" cy="261.628" gradientTransform="matrix(.912 -.411 .324 .719 -58.082 197.873)" gradientUnits="userSpaceOnUse" r="226.788"><stop offset="0" stop-color="#f6f1f1"/><stop offset=".3461" stop-color="#efe7e4"/><stop offset=".5687" stop-color="#ece3df"/><stop offset="1" stop-color="#eadfda"/></radialGradient><radialGradient id="SVGID_9_" cx="158.848" cy="201.533" gradientTransform="matrix(.343 -.939 .741 .271 -27.53 455.197)" gradientUnits="userSpaceOnUse" r="166.188"><stop offset="0" stop-color="#f9f6f6"/><stop offset=".5408" stop-color="#efe7e4"/></radialGradient><linearGradient id="SVGID_10_" gradientUnits="userSpaceOnUse" x1="166.315" x2="200.634" y1="385.481" y2="330.462"><stop offset=".0376" stop-color="#fff"/><stop offset=".3561" stop-color="#fbf9f9"/><stop offset="1" stop-color="#f6f1f1"/></linearGradient><radialGradient id="SVGID_11_" cx="301.256" cy="267.034" gradientTransform="matrix(.962 .273 -.28 .987 86.339 -78.742)" gradientUnits="userSpaceOnUse" r="140.258"><stop offset="0" stop-color="#fff"/><stop offset=".0607" stop-color="#fdfcfc"/><stop offset=".5893" stop-color="#efe7e4"/><stop offset="1" stop-color="#eadfda"/></radialGradient><linearGradient id="SVGID_12_" gradientUnits="userSpaceOnUse" x1="116.866" x2="116.866" y1="87.648" y2="172.061"><stop offset=".0048" stop-color="#fbf4c6"/><stop offset=".0379" stop-color="#f9ecbd"/><stop offset=".1717" stop-color="#f2cf9c"/><stop offset=".2832" stop-color="#eebd87"/><stop offset=".3578" stop-color="#ecb780"/><stop offset=".9244" stop-color="#ecb780"/><stop offset="1" stop-color="#ecb780"/></linearGradient><radialGradient id="SVGID_13_" cx="150.37" cy="166.02" gradientTransform="matrix(-.705 -.71 .708 -.703 138.705 389.498)" gradientUnits="userSpaceOnUse" r="92.957"><stop offset="0" stop-color="#f1d0d5"/><stop offset=".2439" stop-color="#f0cdd2"/><stop offset=".42" stop-color="#edc4ca"/><stop offset=".5749" stop-color="#e8b4bc"/><stop offset=".7174" stop-color="#e19ea8"/><stop offset=".8515" stop-color="#d8818e"/><stop offset=".9777" stop-color="#cd5e6f"/><stop offset="1" stop-color="#cb5769"/></radialGradient><radialGradient id="SVGID_14_" cx="11.815" cy="163.721" gradientTransform="matrix(.913 -.408 .365 .817 -58.737 34.772)" gradientUnits="userSpaceOnUse" r="133.101"><stop offset=".0092" stop-color="#f9f6f6"/><stop offset=".8238" stop-color="#f7f3f3"/><stop offset=".9991" stop-color="#f6f1f1"/></radialGradient><radialGradient id="SVGID_15_" cx="41.213" cy="137.527" gradientTransform="matrix(.913 -.408 .365 .817 -46.618 41.971)" gradientUnits="userSpaceOnUse" r="135.712"><stop offset="0" stop-color="#fffbe4"/><stop offset=".0207" stop-color="#fffae3"/><stop offset=".5986" stop-color="#f7e1c7"/><stop offset=".9323" stop-color="#f4d8bc"/></radialGradient><linearGradient id="lg3"><stop offset="0" stop-color="#f4d8bc"/><stop offset=".5729" stop-color="#ecb780"/><stop offset=".7276" stop-color="#eaac6d"/><stop offset=".9986" stop-color="#e49542"/></linearGradient><radialGradient id="SVGID_16_" cx="226.37" cy="198.594" gradientTransform="matrix(1 0 0 .98 0 3.893)" gradientUnits="userSpaceOnUse" r="302.909" xlink:href="#lg3"/><radialGradient id="SVGID_17_" cx="146.96" cy="198.594" gradientTransform="matrix(1 0 0 .98 0 3.893)" gradientUnits="userSpaceOnUse" r="295.248" xlink:href="#lg3"/><radialGradient id="SVGID_18_" cx="201.538" cy="182.06" gradientTransform="matrix(1 0 0 .98 0 3.569)" gradientUnits="userSpaceOnUse" r="144.509"><stop offset="0" stop-color="#f4d8bc"/><stop offset=".4719" stop-color="#ecb780"/><stop offset=".6633" stop-color="#eaac6d"/><stop offset=".9986" stop-color="#e49542"/></radialGradient><radialGradient id="SVGID_19_" cx="113.481" cy="178.21" gradientTransform="matrix(.913 -.408 .365 .817 -55.183 78.894)" gradientUnits="userSpaceOnUse" r="88.14"><stop offset="0" stop-color="#f6f1f1"/><stop offset=".5873" stop-color="#f5efee"/><stop offset=".9471" stop-color="#f0e9e6"/><stop offset="1" stop-color="#efe7e4"/></radialGradient><radialGradient id="SVGID_20_" cx="131.769" cy="199.745" gradientTransform="matrix(.913 -.408 .365 .817 -61.453 90.293)" gradientUnits="userSpaceOnUse" r="135.712"><stop offset="0" stop-color="#efc89d"/><stop offset=".421" stop-color="#efc69a"/><stop offset=".6789" stop-color="#eec292"/><stop offset=".8927" stop-color="#ecb984"/><stop offset=".9323" stop-color="#ecb780"/></radialGradient><radialGradient id="SVGID_21_" cx="100.382" cy="378.248" gradientTransform="matrix(.578 .816 -1.124 .795 467.419 -4.419)" gradientUnits="userSpaceOnUse" r="28.89" xlink:href="#lg1"/><radialGradient id="SVGID_22_" cx="146.827" cy="378.248" gradientTransform="matrix(.578 .816 -1.124 .795 487.037 -42.333)" gradientUnits="userSpaceOnUse" r="28.89" xlink:href="#lg2"/><linearGradient id="SVGID_23_" gradientUnits="userSpaceOnUse" x1="158.667" x2="158.667" y1="87.648" y2="172.061"><stop offset=".0048" stop-color="#fff9e2"/><stop offset=".0347" stop-color="#fdf3da"/><stop offset=".1699" stop-color="#f5dcb9"/><stop offset=".2824" stop-color="#f1cda4"/><stop offset=".3578" stop-color="#efc89d"/><stop offset=".6295" stop-color="#efc69a"/><stop offset=".821" stop-color="#eec191"/><stop offset=".9877" stop-color="#ecb881"/><stop offset="1" stop-color="#ecb780"/></linearGradient><radialGradient id="SVGID_24_" cx="192.171" cy="166.02" gradientTransform="matrix(-.705 -.71 .708 -.703 209.956 419.162)" gradientUnits="userSpaceOnUse" r="92.957"><stop offset="0" stop-color="#f1d0d5"/><stop offset=".2984" stop-color="#f0cdd2"/><stop offset=".5139" stop-color="#edc4ca"/><stop offset=".7032" stop-color="#e8b4bb"/><stop offset=".8765" stop-color="#e19ea6"/><stop offset="1" stop-color="#da8993"/></radialGradient><radialGradient id="SVGID_25_" cx="8.81" cy="557.097" gradientTransform="matrix(.762 -.571 .647 .669 -358.386 -198.21)" gradientUnits="userSpaceOnUse" r="26.679"><stop offset="0" stop-color="#f6d3d5"/><stop offset=".5922" stop-color="#e7b1b9"/><stop offset="1" stop-color="#e2a2ac"/></radialGradient><g><path d="m274.457 424.116c131.191 0 237.543-13.03 237.543-29.103h-475.086c0 16.073 106.351 29.103 237.543 29.103z" fill="url(#SVGID_1_)"/><path d="m301.376 395.013h-89.209l1.341-2.392c5.267-9.398 15.2-15.218 25.973-15.218h61.895z" fill="url(#SVGID_2_)"/><path d="m129.356 395.013 51.448-51.448c10.154-10.154 5.854-27.465-7.872-31.687-8.492-2.612-17.662.991-22.105 8.686l-40.787 70.646 16.098 3.803z" fill="url(#SVGID_3_)"/><path d="m280.098 164.192h-36.663l-66.746 66.746c-17.754 17.754-37.916 22.719-62.105 27.863l49.901 84.832c18.21 31.541 44.864 51.399 81.285 51.399h127.534v-101.698z" fill="url(#SVGID_4_)"/><path d="m203.93 344.061-53.597-92.833c-11.794 6.857-24.617 11.808-37.986 14.651l45.139 78.182c18.21 31.541 51.865 50.972 88.285 50.972h46.445c-36.422-.001-70.076-19.431-88.286-50.972z" fill="url(#SVGID_5_)"/><path d="m495.715 393.034c-9.066-13.781-24.019-22.448-40.336-23.585v-43.44c0-89.368-72.447-161.816-161.816-161.816h-13.465v16.741c0 42.404 16.845 83.071 46.829 113.055 27.14 27.14 43.515 63.033 46.377 101.044h123.726z" fill="url(#SVGID_6_)"/><path d="m363.665 395.013h-89.209l1.341-2.392c5.267-9.398 15.2-15.218 25.973-15.218h61.895z" fill="url(#SVGID_7_)"/><circle cx="363.665" cy="314.973" fill="url(#SVGID_8_)" r="80.04"/><path d="m175.801 395.013 51.448-51.448c10.154-10.154 5.854-27.465-7.872-31.687-8.492-2.612-17.662.991-22.105 8.686l-40.788 70.647 16.098 3.803h3.219z" fill="url(#SVGID_9_)"/><path d="m212.367 320.563c2.112-3.658 5.293-6.391 8.962-7.971-.628-.268-1.278-.507-1.952-.714-8.492-2.612-17.662.991-22.105 8.685l-40.788 70.647 13.283 3.138z" fill="url(#SVGID_10_)"/><path d="m298.457 314.973c0-41.704 31.896-75.959 72.624-79.7-2.442-.224-4.915-.339-7.415-.339-44.205 0-80.04 35.835-80.04 80.04s35.835 80.04 80.04 80.04c2.5 0 4.974-.115 7.415-.339-40.728-3.743-72.624-37.997-72.624-79.702z" fill="url(#SVGID_11_)"/><path d="m131.964 152.802c-18.135 0-32.836-14.701-32.836-32.836v-26.609c0-3.022 2.45-5.473 5.473-5.473 16.572 0 30.006 13.434 30.006 30.006v32.27c-.001 1.459-1.184 2.642-2.643 2.642z" fill="url(#SVGID_12_)"/><path d="m124.709 147.562c-14.128 0-25.582-11.453-25.582-25.582v-20.73c0-2.355 1.909-4.264 4.264-4.264 12.91 0 23.377 10.466 23.377 23.377v25.141c-.001 1.137-.922 2.058-2.059 2.058z" fill="url(#SVGID_13_)"/><path d="m104.242 219.061 14.767-29.884-83.944-20.1-34.884 19.609c-.12 1.23-.181 2.471-.181 3.718v2.523c0 5.844 3.088 11.254 8.12 14.226l47.348 27.966c5.414 3.198 11.503 4.752 17.573 4.662h32.565z" fill="url(#SVGID_14_)"/><path d="m166.875 112.821c-25.251-6.433-51.792-5.739-76.672 2.007l-27.397 8.529c-4.264 1.328-8.199 3.545-11.543 6.505l-38.102 33.721c-7.32 6.478-11.865 15.464-12.8 25.103h29.028l68.431 43.738 116.588-68.25c-4.347-24.986-22.957-45.092-47.533-51.353z" fill="url(#SVGID_15_)"/><path d="m90.23 227.572 22.116 38.306c24.189-5.144 46.589-17.185 64.343-34.939l66.746-66.746h-135.809z" fill="url(#SVGID_16_)"/><path d="m125.443 208.118 28.628-43.926h-46.445l-17.396 63.38 22.116 38.306c13.369-2.843 26.192-7.794 37.986-14.651z" fill="url(#SVGID_17_)"/><path d="m221.282 186.346 22.153-22.153h-135.809l-17.396 63.38 11.236 19.462c7.798 1.438 15.991.091 23.052-4.043z" fill="url(#SVGID_18_)"/><path d="m64.273 169.077-34.884 19.608c-.119 1.23-.181 2.471-.181 3.719v2.523c0 5.844 3.088 11.254 8.12 14.226l47.348 27.966c10.493 6.197 23.519 6.223 34.036.066l8.135-4.762 21.369-43.246z" fill="url(#SVGID_19_)"/><path d="m195.903 112.821c-25.251-6.433-51.792-5.739-76.672 2.007l-27.397 8.529c-4.264 1.328-8.199 3.545-11.543 6.505l-38.102 33.721c-7.32 6.478-11.865 15.464-12.8 25.103 11.174-1.329 21.646-6.37 29.684-14.408 2.872-2.872 7.529-2.872 10.401 0l19.035 19.035c4.564 4.564 11.964 4.564 16.528 0 8.049-8.049 21.81-2.348 21.81 9.034v30.076l116.588-68.25c-4.346-24.985-22.956-45.091-47.532-51.352z" fill="url(#SVGID_20_)"/><path d="m119.416 380.151h-2.386c-9.561 0-18.126 5.915-21.511 14.857l-.002.005h30.622v-8.14c-.001-3.713-3.011-6.722-6.723-6.722z" fill="url(#SVGID_21_)"/><path d="m165.861 380.151h-2.386c-9.561 0-18.126 5.915-21.511 14.857l-.002.005h30.622v-8.14c-.001-3.713-3.011-6.722-6.723-6.722z" fill="url(#SVGID_22_)"/><path d="m173.764 152.802c-18.135 0-32.836-14.701-32.836-32.836v-26.609c0-3.022 2.45-5.473 5.473-5.473 16.572 0 30.006 13.434 30.006 30.006v32.27c-.001 1.459-1.184 2.642-2.643 2.642z" fill="url(#SVGID_23_)"/><path d="m166.51 147.562c-14.128 0-25.582-11.453-25.582-25.582v-20.73c0-2.355 1.909-4.264 4.264-4.264 12.91 0 23.377 10.466 23.377 23.377v25.141c-.001 1.137-.923 2.058-2.059 2.058z" fill="url(#SVGID_24_)"/><path d="m29.209 176.992c0 3.593-7.078 10.626-11.579 10.626s-11.579-7.033-11.579-10.626 5.184-6.506 11.579-6.506 11.579 2.913 11.579 6.506z" fill="url(#SVGID_25_)"/></g></svg>