<svg id="Capa_1" enable-background="new 0 0 512 512" height="512" viewBox="0 0 512 512" width="512" xmlns="http://www.w3.org/2000/svg" xmlns:xlink="http://www.w3.org/1999/xlink"><linearGradient id="lg1"><stop offset="0" stop-color="#544f57"/><stop offset=".5487" stop-color="#69636c"/><stop offset="1" stop-color="#756e78"/></linearGradient><radialGradient id="SVGID_1_" cx="1579.492" cy="393.331" gradientTransform="matrix(-.872 -.403 -.323 .771 1669.367 726.849)" gradientUnits="userSpaceOnUse" r="25.784" xlink:href="#lg1"/><linearGradient id="SVGID_2_" gradientUnits="userSpaceOnUse" x1="158.724" x2="185.901" y1="353.043" y2="305.539"><stop offset=".6245" stop-color="#afaab4"/><stop offset=".7359" stop-color="#aaa5af"/><stop offset=".8708" stop-color="#9d96a1"/><stop offset="1" stop-color="#8b818e"/></linearGradient><radialGradient id="SVGID_3_" cx="172.142" cy="235.871" gradientTransform="matrix(.575 -.818 .645 .453 -79.028 269.804)" gradientUnits="userSpaceOnUse" r="85.389"><stop offset=".1922" stop-color="#8b818e"/><stop offset=".2156" stop-color="#8d8390"/><stop offset=".489" stop-color="#a099a4"/><stop offset=".7542" stop-color="#aba6b0"/><stop offset="1" stop-color="#afaab4"/></radialGradient><radialGradient id="SVGID_4_" cx="1296.062" cy="393.309" gradientTransform="matrix(-.872 -.403 -.323 .771 1692.26 612.604)" gradientUnits="userSpaceOnUse" r="27.589" xlink:href="#lg1"/><linearGradient id="SVGID_5_" gradientTransform="matrix(.889 0 0 .866 111.417 -473.059)" gradientUnits="userSpaceOnUse" x1="381.752" x2="312.767" y1="931.758" y2="904.954"><stop offset=".3708" stop-color="#afaab4"/><stop offset=".45" stop-color="#aba6b0"/><stop offset=".5298" stop-color="#a19aa5"/><stop offset=".6097" stop-color="#8f8692"/><stop offset=".625" stop-color="#8b818e"/></linearGradient><radialGradient id="SVGID_6_" cx="396.616" cy="213.507" gradientTransform="matrix(.86 .511 -.403 .678 141.741 -133.908)" gradientUnits="userSpaceOnUse" r="77.563"><stop offset=".3347" stop-color="#8b818e"/><stop offset=".6667" stop-color="#a099a5"/><stop offset=".9552" stop-color="#afaab4"/></radialGradient><radialGradient id="SVGID_7_" cx="490.017" cy="167.9" gradientTransform="matrix(0 1 -.677 0 603.746 -322.118)" gradientUnits="userSpaceOnUse" r="102.925"><stop offset="0" stop-color="#a298a5"/><stop offset=".3226" stop-color="#a59ca8"/><stop offset=".6219" stop-color="#afa7b2"/><stop offset=".911" stop-color="#c0bac2"/><stop offset="1" stop-color="#c6c1c8"/></radialGradient><radialGradient id="SVGID_8_" cx="490.017" cy="157.086" gradientTransform="matrix(0 1 -.677 0 596.422 -332.931)" gradientUnits="userSpaceOnUse" r="70.249"><stop offset="0" stop-color="#544f57"/><stop offset=".3572" stop-color="#58525b"/><stop offset=".688" stop-color="#635d66"/><stop offset="1" stop-color="#756e78"/></radialGradient><radialGradient id="SVGID_9_" cx="219.104" cy="120.782" gradientTransform="matrix(1 0 0 .632 0 44.486)" gradientUnits="userSpaceOnUse" r="324.214"><stop offset="0" stop-color="#f1f1f4"/><stop offset=".3027" stop-color="#dedce1"/><stop offset=".7527" stop-color="#c6c1c8"/><stop offset=".8456" stop-color="#bbb5be"/><stop offset="1" stop-color="#a298a5"/></radialGradient><radialGradient id="SVGID_10_" cx="219.104" cy="120.782" gradientTransform="matrix(1 0 0 .632 0 44.486)" gradientUnits="userSpaceOnUse" r="324.214"><stop offset="0" stop-color="#f1f1f4"/><stop offset=".18" stop-color="#d1cfd4"/><stop offset=".5703" stop-color="#8f8992"/><stop offset=".7527" stop-color="#756e78"/><stop offset=".8631" stop-color="#69636c"/><stop offset="1" stop-color="#544f57"/></radialGradient><radialGradient id="SVGID_11_" cx="137.19" cy="215.879" gradientTransform="matrix(1 0 0 .84 0 34.628)" gradientUnits="userSpaceOnUse" r="136.715"><stop offset="0" stop-color="#fff"/><stop offset=".3264" stop-color="#dfdce0"/><stop offset=".6229" stop-color="#c6c1c8"/><stop offset=".7546" stop-color="#c3bec5"/><stop offset=".8588" stop-color="#bbb4bd"/><stop offset=".9534" stop-color="#aca3af"/><stop offset="1" stop-color="#a298a5"/></radialGradient><radialGradient id="SVGID_12_" cx="219.104" cy="120.782" gradientTransform="matrix(1 0 0 .632 0 44.486)" gradientUnits="userSpaceOnUse" r="324.214"><stop offset="0" stop-color="#a298a5"/><stop offset=".2756" stop-color="#908793"/><stop offset=".7527" stop-color="#756e78"/><stop offset=".8389" stop-color="#817984"/><stop offset=".9945" stop-color="#a197a4"/><stop offset="1" stop-color="#a298a5"/></radialGradient><radialGradient id="SVGID_13_" cx="137.19" cy="215.879" gradientTransform="matrix(1 0 0 .84 0 34.628)" gradientUnits="userSpaceOnUse" r="136.715"><stop offset="0" stop-color="#afaab4"/><stop offset=".3176" stop-color="#8f8993"/><stop offset=".6229" stop-color="#756e78"/><stop offset=".7668" stop-color="#726b75"/><stop offset=".8808" stop-color="#68626b"/><stop offset=".9842" stop-color="#57525a"/><stop offset="1" stop-color="#544f57"/></radialGradient><radialGradient id="SVGID_14_" cx="101.069" cy="78.709" gradientTransform="matrix(1 0 0 .838 0 12.771)" gradientUnits="userSpaceOnUse" r="112.032"><stop offset="0" stop-color="#8b818e"/><stop offset=".5005" stop-color="#897f8c"/><stop offset=".6855" stop-color="#827985"/><stop offset=".8181" stop-color="#766f79"/><stop offset=".8294" stop-color="#756e78"/><stop offset="1" stop-color="#665e66"/></radialGradient><radialGradient id="SVGID_15_" cx="34.469" cy="85.271" gradientTransform="matrix(-.371 .929 -1.279 -.51 156.259 96.738)" gradientUnits="userSpaceOnUse" r="17.967"><stop offset=".0179" stop-color="#fbf4c6"/><stop offset=".4718" stop-color="#f5e3af"/><stop offset=".7731" stop-color="#f1d59d"/></radialGradient><radialGradient id="SVGID_16_" cx="1468.021" cy="117.792" gradientTransform="matrix(-1 0 0 .685 1538.861 37.097)" gradientUnits="userSpaceOnUse" r="39.585"><stop offset=".327" stop-color="#756e78"/><stop offset=".9388" stop-color="#9e94a1"/><stop offset="1" stop-color="#a298a5"/></radialGradient><radialGradient id="SVGID_17_" cx="41.091" cy="96.277" gradientTransform="matrix(1 0 0 .685 0 30.321)" gradientUnits="userSpaceOnUse" r="60.186"><stop offset="0" stop-color="#fff"/><stop offset=".1981" stop-color="#e7e5e8"/><stop offset=".9888" stop-color="#8b818e"/></radialGradient><linearGradient id="lg2"><stop offset="0" stop-color="#fff"/><stop offset=".1983" stop-color="#e7e5e8"/><stop offset=".9902" stop-color="#8b818e"/></linearGradient><radialGradient id="SVGID_18_" cx="3.681" cy="112.522" gradientTransform="matrix(1 0 0 .685 0 35.437)" gradientUnits="userSpaceOnUse" r="115.803" xlink:href="#lg2"/><radialGradient id="SVGID_19_" cx="47.473" cy="77.218" gradientTransform="matrix(1 0 0 .685 0 24.318)" gradientUnits="userSpaceOnUse" r="51.535" xlink:href="#lg2"/><radialGradient id="SVGID_20_" cx="88.069" cy="153.835" gradientTransform="matrix(.707 -.707 .484 .484 -48.725 141.589)" gradientUnits="userSpaceOnUse" r="85.018"><stop offset="0" stop-color="#8b818e"/><stop offset=".5254" stop-color="#897f8c"/><stop offset=".8017" stop-color="#817884"/><stop offset="1" stop-color="#756e78"/></radialGradient><radialGradient id="SVGID_21_" cx="60.663" cy="85.271" gradientTransform="matrix(-.371 .929 -1.279 -.51 192.158 72.407)" gradientUnits="userSpaceOnUse" r="17.967"><stop offset=".0179" stop-color="#fff9e2"/><stop offset=".5684" stop-color="#f7e9cb"/><stop offset=".7731" stop-color="#f4e2c1"/></radialGradient><radialGradient id="SVGID_22_" cx="77.127" cy="117.792" gradientTransform="matrix(1 0 0 .685 0 37.097)" gradientUnits="userSpaceOnUse" r="39.585"><stop offset=".3233" stop-color="#8b818e"/><stop offset="1" stop-color="#a298a5"/></radialGradient><radialGradient id="SVGID_23_" cx="107.406" cy="118.168" gradientTransform="matrix(1 0 0 .685 0 37.215)" gradientUnits="userSpaceOnUse" r="27.049"><stop offset="0" stop-color="#8b818e"/><stop offset="1" stop-color="#756e78"/></radialGradient><radialGradient id="SVGID_24_" cx="1537.561" cy="393.331" gradientTransform="matrix(-.872 -.403 -.323 .771 1672.755 709.948)" gradientUnits="userSpaceOnUse" r="25.784" xlink:href="#lg1"/><linearGradient id="lg3"><stop offset="0" stop-color="#dfdde2"/><stop offset=".2425" stop-color="#cfcbd2"/><stop offset=".7242" stop-color="#a59ea8"/><stop offset="1" stop-color="#8b818e"/></linearGradient><radialGradient id="SVGID_25_" cx="175.425" cy="378.781" gradientTransform="matrix(-.862 -.506 .312 -.532 208.365 669.129)" gradientUnits="userSpaceOnUse" r="24.01" xlink:href="#lg3"/><linearGradient id="SVGID_26_" gradientUnits="userSpaceOnUse" x1="199.425" x2="247.877" y1="348.682" y2="295.698"><stop offset=".518" stop-color="#c6c1c8"/><stop offset=".9128" stop-color="#afaab4"/></linearGradient><linearGradient id="SVGID_27_" gradientUnits="userSpaceOnUse" x1="197.114" x2="197.114" y1="384.461" y2="310"><stop offset=".2231" stop-color="#dfdde2"/><stop offset=".5189" stop-color="#d5d2d8"/><stop offset=".8476" stop-color="#c6c1c8"/></linearGradient><radialGradient id="SVGID_28_" cx="195.683" cy="211.409" gradientTransform="matrix(.602 -.798 .63 .475 -55.261 267.249)" gradientUnits="userSpaceOnUse" r="138.431"><stop offset="0" stop-color="#f1f1f4"/><stop offset=".5736" stop-color="#d2ced4"/><stop offset=".8859" stop-color="#c6c1c8"/></radialGradient><radialGradient id="SVGID_29_" cx="191.301" cy="213.117" gradientTransform="matrix(.962 .273 -.28 .987 67.035 -49.413)" gradientUnits="userSpaceOnUse" r="107.519"><stop offset="0" stop-color="#fff"/><stop offset=".1151" stop-color="#f5f5f6"/><stop offset=".4265" stop-color="#dfdde2"/><stop offset=".4267" stop-color="#dfdde2"/><stop offset=".5614" stop-color="#d1cdd3"/><stop offset=".7148" stop-color="#c9c4cb"/><stop offset=".9269" stop-color="#c6c1c8"/></radialGradient><radialGradient id="SVGID_30_" cx="1254.131" cy="393.309" gradientTransform="matrix(-.872 -.403 -.323 .771 1695.648 595.703)" gradientUnits="userSpaceOnUse" r="27.589" xlink:href="#lg1"/><radialGradient id="SVGID_31_" cx="443.196" cy="378.609" gradientTransform="matrix(-.862 -.506 .312 -.532 707.093 804.454)" gradientUnits="userSpaceOnUse" r="25.676" xlink:href="#lg3"/><linearGradient id="SVGID_32_" gradientTransform="matrix(.889 0 0 .866 111.417 -473.059)" gradientUnits="userSpaceOnUse" x1="432.632" x2="344.43" y1="950.693" y2="855.403"><stop offset=".2188" stop-color="#afaab4"/><stop offset="1" stop-color="#afaab4"/></linearGradient><linearGradient id="SVGID_33_" gradientUnits="userSpaceOnUse" x1="464.991" x2="464.991" y1="287.205" y2="378.248"><stop offset="0" stop-color="#8b818e"/><stop offset=".1486" stop-color="#9e96a2"/><stop offset=".3028" stop-color="#aba5af"/><stop offset=".4304" stop-color="#afaab4"/><stop offset=".9777" stop-color="#c6c1c8"/></linearGradient><radialGradient id="SVGID_34_" cx="392.418" cy="209.671" gradientTransform="matrix(.912 -.411 .324 .719 -33.286 220.242)" gradientUnits="userSpaceOnUse" r="139.802"><stop offset="0" stop-color="#dfdde2"/><stop offset=".6387" stop-color="#c6c1c8"/><stop offset=".7892" stop-color="#c1bcc3"/><stop offset=".9738" stop-color="#b2adb6"/><stop offset="1" stop-color="#afaab4"/></radialGradient><radialGradient id="SVGID_35_" cx="401.486" cy="178.769" gradientTransform="matrix(.962 .273 -.28 .987 65.412 -107.337)" gradientUnits="userSpaceOnUse" r="140.887"><stop offset="0" stop-color="#f1f1f4"/><stop offset=".3656" stop-color="#c5c2ca"/><stop offset=".5893" stop-color="#afaab4"/><stop offset="1" stop-color="#a298a5"/></radialGradient><radialGradient id="SVGID_36_" cx="236.13" cy="115.567" gradientTransform="matrix(1 0 0 .632 0 42.565)" gradientUnits="userSpaceOnUse" r="324.176"><stop offset="0" stop-color="#a298a5"/><stop offset=".2756" stop-color="#908793"/><stop offset=".7527" stop-color="#756e78"/><stop offset=".8574" stop-color="#69636c"/><stop offset=".9871" stop-color="#544f57"/></radialGradient><radialGradient id="SVGID_37_" cx="320.424" cy="2820.177" gradientTransform="matrix(.931 0 0 .112 -31.713 80.606)" gradientUnits="userSpaceOnUse" r="305.082"><stop offset="0" stop-color="#c6c1c8"/><stop offset=".2432" stop-color="#dddbdf"/><stop offset=".4962" stop-color="#f1f1f4"/><stop offset=".6632" stop-color="#fafafb"/><stop offset=".8642" stop-color="#fff"/></radialGradient><g><path d="m138.885 395.403h29.041v-16.539h-16.441c-2.513 0-4.815 1.404-5.964 3.639z" fill="url(#SVGID_1_)"/><path d="m151.485 378.863h15.903c6.349 0 11.495-5.147 11.495-11.495v-72.125l-27.398 17.828z" fill="url(#SVGID_2_)"/><path d="m215.541 203.82c0-17.987-14.828-32.512-32.928-32.015-17.445.478-31.128 15.23-31.128 32.682v108.586c10.831 0 20.806-5.887 26.041-15.37l1.357-2.459 21.548-61.421c.742-2.116 1.981-4.047 3.696-5.492 6.98-5.875 11.414-14.675 11.414-24.511z" fill="url(#SVGID_3_)"/><path d="m406.974 395.403h31.084v-16.711h-18.352c-2.539 0-4.865 1.419-6.026 3.677z" fill="url(#SVGID_4_)"/><path d="m419.705 378.692h18.352c6.414 0 11.614-5.2 11.614-11.614v-90.939l-22.006-7.269-7.96 24.571z" fill="url(#SVGID_5_)"/><path d="m441.983 217.056c-.544-4.179.143-8.42 1.95-12.228 2.767-5.83 4.28-12.371 4.189-19.275-.301-23.067-18.901-42.167-41.954-43.042-24.885-.944-45.356 18.95-45.356 43.625 0 8.853 2.635 17.091 7.164 23.972l51.729 83.332c9.516 0 18.562-4.133 24.792-11.326l5.174-5.975z" fill="url(#SVGID_6_)"/><path d="m499.758 140.374v159.172c0 6.761 5.481 12.242 12.242 12.242v-176.99z" fill="url(#SVGID_7_)"/><path d="m512 122.295c0-17.375-14.085-31.46-31.46-31.46h-6.28c-5.119 0-9.269 4.15-9.269 9.269v2.973h12.56c12.264 0 22.207 9.942 22.207 22.207v21.755l12.242-12.241z" fill="url(#SVGID_8_)"/><path d="m476.145 203.739-69.349 40.349c-24.68 14.359-53.472 20.003-81.747 16.022l-66.53-9.366-6.736 4.009c-6.026 3.587-12.91 5.481-19.923 5.481h-36.183c-26.387 0-48.243-19.307-55.073-44.795-5.23-19.518-24.158-31.506-44.364-31.506h-3.075v-87.309h362.321l48.826 58.137-19.854 43.081c-2.562 2.19-5.34 4.167-8.313 5.897z" fill="url(#SVGID_9_)"/><path d="m472.047 96.624h-16.56c1.29 11.15 6.304 21.606 14.32 29.622 9.382 9.382 14.652 22.106 14.652 35.374v36.221c12.471-10.655 19.854-26.344 19.854-43.08v-25.871c0-17.82-14.446-32.266-32.266-32.266z" fill="url(#SVGID_10_)"/><path d="m168.118 217.023c-5.23-19.518-22.917-33.09-43.123-33.09h-28.755c20.206 0 38.421 9.707 43.651 29.225l.713 2.281c.227.849-.768 3.273-.505 4.104 7.636 24.129 30.07 40.691 55.578 40.691h28.755c-26.387 0-49.484-17.723-56.314-43.211z" fill="url(#SVGID_11_)"/><path d="m171.052 160.243v-36.427c0-7.826-3.109-15.331-8.642-20.865l-6.327-6.327h-62.918v87.309h3.075c20.206 0 37.893 13.572 43.123 33.09.227.849.473 1.689.736 2.52l30.952-30.952c7.829-7.829 7.829-20.52.001-28.348z" fill="url(#SVGID_12_)"/><path d="m124.995 183.933h-28.755c20.206 0 37.893 13.572 43.123 33.09.227.849.473 1.689.736 2.52l19.354-19.354c-8.287-10.051-20.796-16.256-34.458-16.256z" fill="url(#SVGID_13_)"/><path d="m93.165 96.624v87.309h3.075c6.599 0 12.929 1.448 18.645 4.077 3.163-3.949 5.012-8.941 5.012-14.275v-77.111z" fill="url(#SVGID_14_)"/><path d="m48.591 97.969-15.427-5.912c-2.189-.839-3.391-3.196-2.784-5.46l20.39 3.241c2.48.394 4.073 2.849 3.423 5.275-.65 2.425-3.257 3.754-5.602 2.856z" fill="url(#SVGID_15_)"/><path d="m47.29 122.835h9.093c4.429 0 8.019-3.59 8.019-8.019l-6.447-6.322c-5.321-5.218-12.476-8.14-19.928-8.14h-11.858v1.36c0 11.664 9.456 21.121 21.121 21.121z" fill="url(#SVGID_16_)"/><path d="m45.702 101.804c-1.23.88-2.393 1.863-3.476 2.947l-7.121 7.121c-5.672 5.672-8.858 13.364-8.858 21.385l38.963 7.118 11.129-45.687z" fill="url(#SVGID_17_)"/><path d="m1.85 175.514c-3.124 5.411-2.224 12.246 2.194 16.664l1.716 1.716c3.38 3.38 7.809 5.069 12.239 5.069h23.963l23.249-65.708h-38.964z" fill="url(#SVGID_18_)"/><path d="m81.932 85.995h-29.492c-3.721 0-6.738 3.017-6.738 6.738v9.071h30.636z" fill="url(#SVGID_19_)"/><path d="m97.525 96.624h-4.36l-4.908-7.268c-1.419-2.102-3.789-3.361-6.325-3.361h-5.53c-3.721 0-6.738 3.017-6.738 6.738v9.071c-1.23.88-2.393 1.863-3.476 2.947l-7.121 7.121c-5.672 5.672-8.858 13.364-8.858 21.385l-24.398 42.258c-3.124 5.411-2.224 12.246 2.194 16.664l1.716 1.716c6.759 6.759 17.718 6.759 24.477 0l.423-.423h12.934c4.171 0 8.324-.547 12.352-1.626l15.074-4.039c9.984-2.675 16.926-11.722 16.926-22.058v-54.739c.002-7.946-6.438-14.386-14.382-14.386z" fill="url(#SVGID_20_)"/><path d="m74.785 97.969-15.427-5.912c-2.189-.839-3.391-3.196-2.784-5.46l20.39 3.241c2.48.394 4.073 2.849 3.423 5.275-.649 2.425-3.257 3.754-5.602 2.856z" fill="url(#SVGID_21_)"/><path d="m100.677 122.835h-9.093c-4.429 0-8.019-3.59-8.019-8.019l6.447-6.322c5.321-5.218 12.476-8.14 19.928-8.14h11.857v1.36c.001 11.664-9.455 21.121-21.12 21.121z" fill="url(#SVGID_22_)"/><path d="m89.691 119.139c-1.402 0-2.628-.769-3.28-1.906l5.367-5.263c5.208-5.108 12.095-7.921 19.393-7.921h7.842c-1.85 8.613-9.525 15.09-18.683 15.09z" fill="url(#SVGID_23_)"/><path d="m178.822 395.403h29.041v-16.539h-16.441c-2.513 0-4.815 1.404-5.964 3.639z" fill="url(#SVGID_24_)"/><path d="m200.683 378.863h-9.259c-2.513 0-4.815 1.405-5.964 3.639l-6.637 12.9h9.259l6.637-12.9c1.149-2.234 3.451-3.639 5.964-3.639z" fill="url(#SVGID_25_)"/><path d="m191.423 378.863h15.903c6.349 0 11.495-5.147 11.495-11.495v-72.125l-27.398 17.828z" fill="url(#SVGID_26_)"/><path d="m202.804 305.666-11.381 7.406v65.792h11.381z" fill="url(#SVGID_27_)"/><path d="m255.479 203.82c0-17.987-14.828-32.512-32.928-32.015-17.445.478-31.128 15.23-31.128 32.682v108.586c10.831 0 20.806-5.887 26.041-15.37l1.357-2.459 21.548-61.421c.742-2.116 1.981-4.047 3.696-5.492 6.979-5.875 11.414-14.675 11.414-24.511z" fill="url(#SVGID_28_)"/><path d="m222.551 171.804c-17.445.478-31.128 15.23-31.128 32.682v108.586c3.934 0 7.755-.778 11.277-2.221v-106.399c0-15.849 11.297-29.431 26.414-32.161-.001 0-.001-.001-.002-.001-2.122-.378-4.317-.547-6.561-.486z" fill="url(#SVGID_29_)"/><path d="m446.911 395.403h31.084v-16.711h-18.352c-2.539 0-4.865 1.419-6.026 3.677z" fill="url(#SVGID_30_)"/><path d="m470.826 378.692h-11.183c-2.539 0-4.865 1.419-6.026 3.677l-6.706 13.034h11.183l6.706-13.034c1.161-2.258 3.487-3.677 6.026-3.677z" fill="url(#SVGID_31_)"/><path d="m459.643 378.692h18.352c6.414 0 11.614-5.2 11.614-11.614v-90.939l-22.006-7.269-7.96 24.571z" fill="url(#SVGID_32_)"/><path d="m470.34 269.773-2.737-.904-7.96 24.571v85.252h10.453v-108.007z" fill="url(#SVGID_33_)"/><path d="m481.92 217.056c-.544-4.179.143-8.42 1.95-12.228 2.767-5.83 4.279-12.371 4.189-19.275-.301-23.067-18.901-42.167-41.954-43.042-24.885-.944-45.356 18.95-45.356 43.625 0 8.853 2.635 17.091 7.164 23.972l51.729 83.332c9.516 0 18.562-4.133 24.792-11.326l5.174-5.975z" fill="url(#SVGID_34_)"/><path d="m419.445 210.108c-4.529-6.881-7.164-15.118-7.164-23.972 0-22.153 16.501-40.453 37.882-43.278-1.335-.177-2.688-.295-4.057-.346-24.885-.944-45.356 18.95-45.356 43.625 0 8.853 2.635 17.091 7.164 23.972l51.729 83.332c3.598 0 7.129-.591 10.466-1.715z" fill="url(#SVGID_35_)"/><path d="m343.295 130.461v-33.837h-69.371v14.789c0 13.986-5.556 27.399-15.445 37.288-3.964 3.964-6.191 9.34-6.191 14.946s2.227 10.982 6.191 14.946l28.115 28.115c5.59 5.59 13.171 8.73 21.076 8.73 16.462 0 29.806-13.345 29.806-29.806v-15.817c0-2.373-.943-4.649-2.621-6.327-3.494-3.494-3.494-9.16 0-12.654 5.404-5.403 8.44-12.731 8.44-20.373z" fill="url(#SVGID_36_)"/><path d="m262.218 426.005c137.951 0 249.782-13.701 249.782-30.602h-499.564c0 16.901 111.831 30.602 249.782 30.602z" fill="url(#SVGID_37_)"/></g></svg>