<svg id="Capa_1" enable-background="new 0 0 512 512" height="512" viewBox="0 0 512 512" width="512" xmlns="http://www.w3.org/2000/svg" xmlns:xlink="http://www.w3.org/1999/xlink"><radialGradient id="SVGID_1_" cx="6.97" cy="162.774" gradientUnits="userSpaceOnUse" r="45.924"><stop offset="0" stop-color="#fff9e2"/><stop offset=".1009" stop-color="#fcf1d2"/><stop offset=".3547" stop-color="#f7e1b0"/><stop offset=".596" stop-color="#f2d598"/><stop offset=".8173" stop-color="#f0ce89"/><stop offset="1" stop-color="#efcb84"/></radialGradient><radialGradient id="SVGID_2_" cx="2.275" cy="190.704" gradientUnits="userSpaceOnUse" r="34.306"><stop offset="0" stop-color="#f1d59d"/><stop offset=".2705" stop-color="#f0d194"/><stop offset=".7159" stop-color="#edc67b"/><stop offset=".8351" stop-color="#ecc373"/></radialGradient><linearGradient id="lg1"><stop offset=".3575" stop-color="#dab46b"/><stop offset=".3721" stop-color="#d9b36a"/><stop offset=".7339" stop-color="#c4a160"/><stop offset=".9708" stop-color="#bc9b5c"/></linearGradient><linearGradient id="SVGID_3_" gradientUnits="userSpaceOnUse" x1="95.507" x2="147.323" xlink:href="#lg1" y1="314.647" y2="287.204"/><radialGradient id="SVGID_4_" cx="59.869" cy="157.133" gradientTransform="matrix(.966 -.259 .2 .745 16.921 153.723)" gradientUnits="userSpaceOnUse" r="91.504"><stop offset=".1127" stop-color="#dab46b"/><stop offset=".1569" stop-color="#d9b36a"/><stop offset=".7138" stop-color="#cba763"/></radialGradient><linearGradient id="SVGID_5_" gradientUnits="userSpaceOnUse" x1="397.139" x2="368.474" xlink:href="#lg1" y1="330.62" y2="294.36"/><linearGradient id="SVGID_6_" gradientUnits="userSpaceOnUse" x1="135.581" x2="187.397" y1="314.647" y2="287.204"><stop offset=".3575" stop-color="#efcb84"/><stop offset=".5681" stop-color="#d9b673"/><stop offset=".8291" stop-color="#c4a262"/><stop offset="1" stop-color="#bc9b5c"/></linearGradient><linearGradient id="SVGID_7_" gradientUnits="userSpaceOnUse" x1="137.427" x2="137.427" y1="344.649" y2="275.61"><stop offset="0" stop-color="#f4e2c1"/><stop offset="1" stop-color="#efcb84"/></linearGradient><radialGradient id="SVGID_8_" cx="83.045" cy="166.623" gradientTransform="matrix(.931 .365 -.239 .609 45.586 34.742)" gradientUnits="userSpaceOnUse" r="106.194"><stop offset=".5107" stop-color="#efcb84"/><stop offset=".8227" stop-color="#d6b26d"/><stop offset=".9433" stop-color="#cba763"/></radialGradient><radialGradient id="SVGID_9_" cx="95.51" cy="232.401" gradientUnits="userSpaceOnUse" r="56.159"><stop offset="0" stop-color="#fff9e2"/><stop offset=".1075" stop-color="#fdf3d7"/><stop offset=".2993" stop-color="#f8e4b8"/><stop offset=".5517" stop-color="#efcc87"/><stop offset=".5636" stop-color="#efcb84"/><stop offset=".8183" stop-color="#dcb872"/><stop offset="1" stop-color="#cba763"/></radialGradient><radialGradient id="SVGID_10_" cx="69.342" cy="211.136" gradientTransform="matrix(.823 -.568 .417 .605 -75.82 122.82)" gradientUnits="userSpaceOnUse" r="47.061"><stop offset="0" stop-color="#dab46b"/><stop offset=".3258" stop-color="#e2bd75"/><stop offset=".9374" stop-color="#efcb84"/></radialGradient><radialGradient id="SVGID_11_" cx="97.773" cy="163.97" gradientTransform="matrix(.777 -.629 .462 .571 -54.028 131.892)" gradientUnits="userSpaceOnUse" r="80.686"><stop offset=".4036" stop-color="#efcb84"/><stop offset=".6408" stop-color="#ebc780"/><stop offset=".8868" stop-color="#e1bc73"/><stop offset="1" stop-color="#dab46b"/></radialGradient><linearGradient id="SVGID_12_" gradientUnits="userSpaceOnUse" x1="298.933" x2="298.933" y1="273.428" y2="304.353"><stop offset="0" stop-color="#dab46b"/><stop offset="1" stop-color="#efcb84"/></linearGradient><linearGradient id="SVGID_13_" gradientUnits="userSpaceOnUse" x1="226.757" x2="226.757" y1="287.279" y2="318.204"><stop offset="0" stop-color="#cba763"/><stop offset=".8618" stop-color="#dab46b"/></linearGradient><linearGradient id="lg2"><stop offset="0" stop-color="#f1d59d"/><stop offset=".1448" stop-color="#f0cf8e"/><stop offset=".2881" stop-color="#efcb84"/><stop offset=".4543" stop-color="#e5c179"/><stop offset=".7138" stop-color="#dab46b"/></linearGradient><radialGradient id="SVGID_14_" cx="98.578" cy="167.505" gradientTransform="matrix(.966 -.259 .2 .745 17.536 156.016)" gradientUnits="userSpaceOnUse" r="91.504" xlink:href="#lg2"/><radialGradient id="SVGID_15_" cx="413.938" cy="327.245" gradientTransform="matrix(.64 .768 -.593 .493 342.921 -152.306)" gradientUnits="userSpaceOnUse" r="78.421" xlink:href="#lg2"/><linearGradient id="SVGID_16_" gradientUnits="userSpaceOnUse" x1="418.78" x2="404.503" y1="347.387" y2="280.825"><stop offset="0" stop-color="#f4e2c1"/><stop offset=".4656" stop-color="#efcb84"/><stop offset=".6837" stop-color="#e3bf79"/><stop offset=".9931" stop-color="#cba763"/></linearGradient><radialGradient id="SVGID_17_" cx="262.804" cy="117.43" gradientTransform="matrix(.989 .15 -.098 .647 14.471 2.075)" gradientUnits="userSpaceOnUse" r="235.089"><stop offset="0" stop-color="#f4e2c1"/><stop offset=".3602" stop-color="#f4dfb7"/><stop offset=".5107" stop-color="#f4ddb1"/><stop offset=".7029" stop-color="#f1d298"/><stop offset=".9433" stop-color="#ecc373"/></radialGradient><radialGradient id="SVGID_18_" cx="203.412" cy="141.351" gradientTransform="matrix(.989 .15 -.098 .647 16.146 19.403)" gradientUnits="userSpaceOnUse" r="110.743"><stop offset="0" stop-color="#fbf1e2"/><stop offset=".2099" stop-color="#f9ecd8"/><stop offset=".517" stop-color="#f4e2c1"/><stop offset=".828" stop-color="#f2d9a8"/><stop offset=".9482" stop-color="#f1d59d"/></radialGradient><radialGradient id="SVGID_19_" cx="230.931" cy="172.686" gradientTransform="matrix(.989 .15 -.098 .647 19.527 26.335)" gradientUnits="userSpaceOnUse" r="257.587"><stop offset="0" stop-color="#f4e2c1"/><stop offset=".3602" stop-color="#f4dfb7"/><stop offset=".5107" stop-color="#f4ddb1"/><stop offset=".6222" stop-color="#f3daab"/><stop offset=".776" stop-color="#f1d399"/><stop offset=".9537" stop-color="#edc77c"/><stop offset="1" stop-color="#ecc373"/></radialGradient><radialGradient id="SVGID_21_" cx="125.981" cy="169.592" gradientTransform="matrix(.989 .15 -.098 .647 18.041 40.956)" gradientUnits="userSpaceOnUse" r="56.527"><stop offset="0" stop-color="#fbf1e2"/><stop offset=".9657" stop-color="#f9efda"/></radialGradient><radialGradient id="SVGID_22_" cx="454.466" cy="2747.375" gradientTransform="matrix(.931 0 0 .112 -161.706 43.765)" gradientUnits="userSpaceOnUse" r="254.897"><stop offset="0" stop-color="#f4e2c1"/><stop offset=".2173" stop-color="#f7ecd6"/><stop offset=".4962" stop-color="#fbf6ec"/><stop offset=".8982" stop-color="#fff"/></radialGradient><g><path d="m43.256 165.753h-23.562c-3.18 0-6.183.754-8.842 2.092h-5.243c-2.361 0-4.274 1.914-4.274 4.274v6.188c-.862 2.213-1.335 4.621-1.335 7.14v1.901l57.977 9.065z" fill="url(#SVGID_1_)"/><path d="m0 187.348c0 12.803 10.379 23.182 23.182 23.182h24.287l13.615-23.182z" fill="url(#SVGID_2_)"/><path d="m94.888 259.27v77.186c-4.132.949-7.214 4.65-7.214 9.07v4.906h45.444v-77.022z" fill="url(#SVGID_3_)"/><path d="m196.155 274.856-50.729 13.593c-22.013 5.898-44.64-7.165-50.538-29.178l90.587-24.273z" fill="url(#SVGID_4_)"/><path d="m349.353 260.541 25.435 75.915c-4.132.949-7.214 4.65-7.214 9.07v4.906h45.444l-23.078-86.127z" fill="url(#SVGID_5_)"/><path d="m134.962 259.27v77.186c-4.132.949-7.214 4.65-7.214 9.07v4.906h45.444v-77.022z" fill="url(#SVGID_6_)"/><path d="m147.106 336.456v-72.694l-12.144-4.491v77.186c-4.132.949-7.214 4.65-7.214 9.07v4.906h12.144v-4.906c0-4.421 3.082-8.122 7.214-9.071z" fill="url(#SVGID_7_)"/><path d="m55.885 207.161 11.355 6.114c3.527 1.899 7.681 2.258 11.481.991l2.702-.901 32.379 18.461c10.456 5.961 22.284 9.097 34.321 9.097h16.55l-22.062-43.725-35.789-20.663c-4.609-2.661-9.477-4.846-14.528-6.521l-.834-.277z" fill="url(#SVGID_8_)"/><path d="m132.017 231.826-32.379-18.461-2.703.901c-3.8 1.267-7.954.908-11.481-.991l-23.403-12.602-6.167 6.488 11.354 6.114c3.527 1.899 7.681 2.258 11.481.991l2.703-.901 32.379 18.461c10.456 5.962 22.284 9.097 34.32 9.097h16.55l-.01-.02c-11.456-.278-22.674-3.392-32.644-9.077z" fill="url(#SVGID_9_)"/><path d="m101.699 182.622c.462-2.984-1.3-5.865-4.168-6.813l-.803-.265c-2.829-.935-5.708-1.695-8.621-2.28l-32.222 33.897 11.354 6.114c1.9 1.023 3.983 1.598 6.095 1.714 14.609-4.278 25.935-16.67 28.365-32.367z" fill="url(#SVGID_10_)"/><path d="m91.459 169.738-.803-.265c-7.457-2.464-15.26-3.72-23.113-3.72h-23.562c-3.18 0-6.183.754-8.842 2.092h-5.243c-2.361 0-4.274 1.914-4.274 4.274v6.188c-.862 2.214-1.334 4.622-1.334 7.14v1.901c0 12.803 10.379 23.182 23.182 23.182h8.514c19.786 0 36.617-14.426 39.643-33.979.462-2.985-1.3-5.866-4.168-6.813z" fill="url(#SVGID_11_)"/><path d="m183.12 254.429 16.146 22.273c10.069 17.44 25.489 28.353 45.626 28.353h107.86c11.772 0 23.062-4.676 31.386-13l30.608-30.608z" fill="url(#SVGID_12_)"/><path d="m221.579 276.872-12.504-21.657-25.956-.786 12.958 22.443c10.069 17.44 28.677 28.183 48.815 28.183h25.502c-20.138 0-38.746-10.743-48.815-28.183z" fill="url(#SVGID_13_)"/><path d="m236.229 274.856-50.729 13.593c-22.013 5.898-44.64-7.165-50.538-29.178l90.587-24.273z" fill="url(#SVGID_14_)"/><path d="m389.427 260.541 25.435 75.915c-4.132.949-7.214 4.65-7.214 9.07v4.906h45.444l-23.078-86.127z" fill="url(#SVGID_15_)"/><path d="m428.22 336.456-25.006-74.636-13.786-1.278 25.435 75.915c-4.132.949-7.214 4.65-7.214 9.07v4.906h13.358v-4.906c-.001-4.421 3.081-8.122 7.213-9.071z" fill="url(#SVGID_16_)"/><path d="m183.12 254.429 263.61-19.929-7.024-14.796c-25.64-54.012-80.085-88.435-139.874-88.435h-63.133c-25.16 0-49.397 9.476-67.885 26.542l-16.262 15.011h-.005z" fill="url(#SVGID_17_)"/><path d="m207.673 157.812c18.488-17.066 42.725-26.542 67.885-26.542h-38.86c-25.16 0-49.397 9.476-67.885 26.542l-16.262 15.011h-.005l9.986 26.657z" fill="url(#SVGID_18_)"/><path d="m252.164 234.5c-43.628 0-81.39-25.116-99.616-61.678l-2.089.548c-6.206 1.63-12.716 1.728-18.968.285l-3.61-.833c0 61.436 49.804 111.24 111.24 111.24h237.413l-6.918-9.678c-7.83-10.954-14.672-22.581-20.446-34.744l-2.44-5.14z" fill="url(#SVGID_19_)"/><path d="m252.164 234.5c-43.628 0-81.39-25.116-99.616-61.678l-2.089.548c-6.206 1.63-12.716 1.728-18.968.285l-3.61-.833c0 61.436 49.804 111.24 111.24 111.24h237.413l-6.918-9.678c-7.83-10.954-14.672-22.581-20.446-34.744l-2.44-5.14z" fill="url(#SVGID_19_)"/><path d="m152.548 172.822-2.089.548c-6.206 1.63-12.716 1.728-18.968.285l-3.61-.833c0 17.359 3.976 33.788 11.067 48.429l28.303-26.126c-5.748-6.785-10.698-14.267-14.703-22.303z" fill="url(#SVGID_21_)"/><path d="m264.694 380.73c136.583 0 247.306-13.565 247.306-30.299h-494.612c0 16.734 110.723 30.299 247.306 30.299z" fill="url(#SVGID_22_)"/></g></svg>