<svg id="Capa_1" enable-background="new 0 0 512 512" height="512" viewBox="0 0 512 512" width="512" xmlns="http://www.w3.org/2000/svg" xmlns:xlink="http://www.w3.org/1999/xlink"><radialGradient id="SVGID_1_" cx="224.925" cy="391.005" gradientTransform="matrix(1 0 0 .973 0 10.492)" gradientUnits="userSpaceOnUse" r="51.058"><stop offset=".303" stop-color="#756e78"/><stop offset=".5733" stop-color="#726b75"/><stop offset=".7801" stop-color="#68626b"/><stop offset=".9654" stop-color="#58535b"/><stop offset="1" stop-color="#544f57"/></radialGradient><radialGradient id="SVGID_2_" cx="254.329" cy="328.737" gradientTransform="matrix(-.762 -.648 .647 -.76 235.273 743.483)" gradientUnits="userSpaceOnUse" r="59.219"><stop offset="0" stop-color="#454045"/><stop offset=".5118" stop-color="#4f4a51"/><stop offset="1" stop-color="#544f57"/></radialGradient><radialGradient id="SVGID_3_" cx="269.593" cy="172.983" gradientTransform="matrix(-.705 -.71 .708 -.703 336.994 485.965)" gradientUnits="userSpaceOnUse" r="142.199"><stop offset="0" stop-color="#756e78"/><stop offset=".2324" stop-color="#69636c"/><stop offset=".6626" stop-color="#5a545d"/><stop offset="1" stop-color="#544f57"/></radialGradient><linearGradient id="lg1"><stop offset="0" stop-color="#a298a5"/><stop offset=".2612" stop-color="#837b86"/><stop offset=".5451" stop-color="#69636c"/><stop offset=".8003" stop-color="#5a545d"/><stop offset="1" stop-color="#544f57"/></linearGradient><radialGradient id="SVGID_4_" cx="307.912" cy="148.456" gradientTransform="matrix(-.762 -.648 .647 -.76 446.314 460.895)" gradientUnits="userSpaceOnUse" r="159.51" xlink:href="#lg1"/><linearGradient id="lg2"><stop offset=".0166" stop-color="#d0cee7"/><stop offset=".0921" stop-color="#bcb8cd"/><stop offset=".2398" stop-color="#9990a0"/><stop offset=".3141" stop-color="#8b818e"/><stop offset=".5935" stop-color="#6f6872"/><stop offset=".907" stop-color="#544f57"/></linearGradient><radialGradient id="SVGID_5_" cx="98.702" cy="285.062" gradientTransform="matrix(.356 -.935 .598 .228 -107.002 312.331)" gradientUnits="userSpaceOnUse" r="153.71" xlink:href="#lg2"/><radialGradient id="SVGID_6_" cx="173.289" cy="91.625" gradientTransform="matrix(.977 .213 -.173 .791 19.794 -17.789)" gradientUnits="userSpaceOnUse" r="74.066"><stop offset="0" stop-color="#665e66"/><stop offset=".4965" stop-color="#605961"/><stop offset="1" stop-color="#544f57"/></radialGradient><radialGradient id="SVGID_7_" cx="89.796" cy="166.636" gradientTransform="matrix(.356 -.935 .731 .279 -64.045 204.129)" gradientUnits="userSpaceOnUse" r="69.2" xlink:href="#lg2"/><radialGradient id="SVGID_8_" cx="108.873" cy="113.55" gradientTransform="matrix(1 0 0 .685 0 35.76)" gradientUnits="userSpaceOnUse" r="115.528"><stop offset="0" stop-color="#454045"/><stop offset=".2131" stop-color="#524c52"/><stop offset=".4521" stop-color="#665e66"/><stop offset=".7975" stop-color="#645c64"/><stop offset=".9243" stop-color="#5d575f"/><stop offset="1" stop-color="#544f57"/></radialGradient><radialGradient id="SVGID_9_" cx="65.157" cy="42.57" gradientTransform="matrix(1 0 0 .685 0 13.407)" gradientUnits="userSpaceOnUse" r="65.498"><stop offset="0" stop-color="#c1d5e4"/><stop offset=".1741" stop-color="#acb8c6"/><stop offset=".4061" stop-color="#9498a4"/><stop offset=".6273" stop-color="#83818c"/><stop offset=".8308" stop-color="#79737d"/><stop offset="1" stop-color="#756e78"/></radialGradient><radialGradient id="SVGID_10_" cx="60.916" cy="88.028" gradientTransform="matrix(1 0 0 .685 0 27.723)" gradientUnits="userSpaceOnUse" r="42.656"><stop offset="0" stop-color="#756e78"/><stop offset=".4339" stop-color="#655f68"/><stop offset="1" stop-color="#544f57"/></radialGradient><radialGradient id="SVGID_11_" cx="145.054" cy="80.103" gradientTransform="matrix(1 0 0 .685 0 25.227)" gradientUnits="userSpaceOnUse" r="59.203"><stop offset="0" stop-color="#665e66"/><stop offset=".5564" stop-color="#645c64"/><stop offset=".849" stop-color="#5c565e"/><stop offset="1" stop-color="#544f57"/></radialGradient><radialGradient id="SVGID_12_" cx="257.653" cy="398.172" gradientTransform="matrix(1 0 0 .985 0 6.133)" gradientUnits="userSpaceOnUse" r="58.953"><stop offset="0" stop-color="#f9f6f9"/><stop offset=".4401" stop-color="#8b818e"/><stop offset=".5944" stop-color="#817884"/><stop offset=".8581" stop-color="#655f68"/><stop offset="1" stop-color="#544f57"/></radialGradient><radialGradient id="SVGID_13_" cx="252.146" cy="435.206" gradientUnits="userSpaceOnUse" r="81.718"><stop offset=".0161" stop-color="#f9f6f9"/><stop offset=".0865" stop-color="#e1dce1"/><stop offset=".209" stop-color="#bcb5bd"/><stop offset=".3214" stop-color="#a198a3"/><stop offset=".4193" stop-color="#918794"/><stop offset=".4915" stop-color="#8b818e"/><stop offset=".5957" stop-color="#857b88"/><stop offset=".7396" stop-color="#746b76"/><stop offset=".9059" stop-color="#585259"/><stop offset="1" stop-color="#454045"/></radialGradient><radialGradient id="SVGID_14_" cx="232.523" cy="323.616" gradientTransform="matrix(-.762 -.648 .647 -.76 200.176 720.336)" gradientUnits="userSpaceOnUse" r="72.885" xlink:href="#lg1"/><radialGradient id="SVGID_15_" cx="229.399" cy="327.428" gradientTransform="matrix(-.762 -.648 .647 -.76 192.207 725.02)" gradientUnits="userSpaceOnUse" r="62.611"><stop offset="0" stop-color="#dddaec"/><stop offset=".0347" stop-color="#d6d3e4"/><stop offset=".2696" stop-color="#a8a4b2"/><stop offset=".4913" stop-color="#837f8b"/><stop offset=".6934" stop-color="#69656e"/><stop offset=".8695" stop-color="#5a555d"/><stop offset="1" stop-color="#544f57"/></radialGradient><radialGradient id="SVGID_16_" cx="11.944" cy="80.903" gradientTransform="matrix(1 0 0 .438 0 45.456)" gradientUnits="userSpaceOnUse" r="39.756"><stop offset=".0154" stop-color="#a298a5"/><stop offset=".289" stop-color="#9b919e"/><stop offset=".6998" stop-color="#867e89"/><stop offset=".9654" stop-color="#756e78"/></radialGradient><radialGradient id="SVGID_17_" cx="24.968" cy="52.535" gradientTransform="matrix(1 0 0 .809 0 10.031)" gradientUnits="userSpaceOnUse" r="57.688"><stop offset=".0154" stop-color="#dae7ef"/><stop offset=".2006" stop-color="#d5e0e8"/><stop offset=".4796" stop-color="#c6cbd5"/><stop offset=".816" stop-color="#aea9b5"/><stop offset=".9654" stop-color="#a298a5"/></radialGradient><radialGradient id="SVGID_18_" cx="77.864" cy="83.399" gradientTransform="matrix(.974 -.226 .128 .551 -8.655 55.063)" gradientUnits="userSpaceOnUse" r="42.568"><stop offset="0" stop-color="#afaab4"/><stop offset=".3426" stop-color="#aca7b1"/><stop offset=".6238" stop-color="#a39da8"/><stop offset=".8825" stop-color="#948b98"/><stop offset="1" stop-color="#8b818e"/></radialGradient><radialGradient id="SVGID_19_" cx="317.919" cy="177.489" gradientTransform="matrix(-.705 -.71 .708 -.703 416.177 527.934)" gradientUnits="userSpaceOnUse" r="167.871" xlink:href="#lg1"/><radialGradient id="SVGID_20_" cx="159.236" cy="244.913" gradientTransform="matrix(.356 -.935 .781 .297 -88.617 320.905)" gradientUnits="userSpaceOnUse" r="125.965"><stop offset="0" stop-color="#d0cee7"/><stop offset=".2661" stop-color="#a298a5"/><stop offset=".4656" stop-color="#817a84"/><stop offset=".6651" stop-color="#68626b"/><stop offset=".8469" stop-color="#59545c"/><stop offset=".994" stop-color="#544f57"/></radialGradient><radialGradient id="SVGID_21_" cx="331.732" cy="3675.684" gradientTransform="matrix(.931 0 0 .112 -31.713 30.382)" gradientUnits="userSpaceOnUse" r="264.794"><stop offset="0" stop-color="#c6c1c8"/><stop offset=".2432" stop-color="#dddbdf"/><stop offset=".4962" stop-color="#f1f1f4"/><stop offset=".6787" stop-color="#fafafb"/><stop offset=".8982" stop-color="#fff"/></radialGradient><g><path d="m268.5 427.9h-9.946l16.339-55.999h-14.234l-14.551 41.675c-2.708 7.756-9.877 13.072-18.084 13.411l-22.119.914c-7.107 0-12.868 5.761-12.868 12.868h88.331c0-7.108-5.761-12.869-12.868-12.869z" fill="url(#SVGID_1_)"/><path d="m274.893 371.901-17.734-66.184c-4.083-15.239-19.482-24.919-34.828-21.255-15.921 3.801-25.471 19.954-21.262 35.66 3.104 11.584 12.81 19.636 23.986 21.192 7.458 1.038 13.457 6.678 15.406 13.951 3.571 13.326 17.268 21.234 30.594 17.664z" fill="url(#SVGID_2_)"/><path d="m313.078 313.293-48.552-13.984-.699.998c-7.546 10.776-22.187 13.797-33.381 6.886l-35.1-21.669c-5.159 9.525-18.202 11.055-25.425 2.982l-54.086-60.446c-11.617-12.983-13.034-32.161-3.451-46.711l.473-.718c11.613-17.633 34.789-23.119 52.941-12.639l173.596 100.226c10.822 6.248 14.576 20.058 8.405 30.925-6.913 12.175-21.268 18.025-34.721 14.15z" fill="url(#SVGID_3_)"/><path d="m116.422 137.983 3.509 58.082c0 34.252 13.546 66.082 37.765 90.301l23.751 24.855c20.513 20.513 48.119 36.104 77.129 36.104 16.086 0 31.973-3.548 46.531-10.391l13.819-6.496c19.296 11.14 39.854 19.935 61.237 26.197l22.24 6.513 109.597 63.277-304.752-300.473z" fill="url(#SVGID_4_)"/><path d="m209.051 315.289-26.984-26.984c-24.22-24.22-37.826-57.069-37.826-91.32v-62.686l-27.819 3.685v59.001c0 34.252 13.606 67.101 37.826 91.32l26.984 26.984c20.513 20.513 48.335 32.037 77.344 32.037 4.661 0 9.306-.299 13.907-.888-23.878-3.062-46.226-13.943-63.432-31.149z" fill="url(#SVGID_5_)"/><path d="m215.104 133.698-8.622-5.631-4.412 11.508-9.878-7.239-4.401 11.505-9.876-7.24-4.403 11.506-9.874-7.241-4.403 11.506-9.87-7.242-4.396 11.504-9.873-7.241-4.402 11.505-9.872-7.241-4.402 9.179-16.764-57.909c-1.523-5.259-5.598-9.394-10.835-10.993l90.6-33.898c9.228 8.523 16.251 19.156 20.469 30.988z" fill="url(#SVGID_6_)"/><path d="m127.476 104.929c-1.523-5.259-5.598-9.394-10.835-10.993l62.782-33.898-90.6 33.898c5.237 1.598 9.312 5.733 10.835 10.993l16.764 57.909 4.402-9.179 9.872 7.241 4.402-11.506 6.666 4.888z" fill="url(#SVGID_7_)"/><path d="m179.482 60.092c-.022-.017-.044-.035-.066-.052l-90.593 33.896c5.237 1.598 9.312 5.733 10.835 10.993l.825 2.849c.29.012.579.022.869.029l-.012.017h30.871l.006-.03c12.609-.423 24.849-5.454 34.205-14.491l19.974-19.291c1.271-1.228 1.836-2.893 1.711-4.509-2.604-3.357-5.487-6.506-8.625-9.411z" fill="url(#SVGID_8_)"/><path d="m136.947 42.133h-33.877c-13.204 0-26.002 4.564-36.227 12.919l-25.041 20.463v8.021h87.286z" fill="url(#SVGID_9_)"/><path d="m41.802 83.536v4.538l39.091 11.932c4.535 1.384 9.17 2.12 13.782 2.237l-.012.017h30.871l3.554-18.725h-87.286z" fill="url(#SVGID_10_)"/><path d="m69.62 88.075 39.091 11.932c17.976 5.487 37.514.791 51.033-12.266l19.974-19.291c2.418-2.336 2.281-6.251-.296-8.411l-5.172-4.336c-10.454-8.765-23.661-13.568-37.303-13.568h-6.058c-13.204 0-26.002 4.564-36.227 12.919l-25.042 20.461z" fill="url(#SVGID_11_)"/><path d="m304.108 427.9h-9.946l16.339-55.999h-14.234l-14.551 41.675c-2.708 7.756-9.877 13.072-18.084 13.411l-22.119.914c-7.107 0-12.868 5.761-12.868 12.868h88.331c-.001-7.108-5.762-12.869-12.868-12.869z" fill="url(#SVGID_12_)"/><path d="m250.414 427.9 22.119-.914c8.208-.339 15.376-5.655 18.084-13.411l14.551-41.675h-8.902l-14.551 41.675c-2.708 7.756-9.877 13.072-18.084 13.411l-22.119.914c-7.107 0-12.868 5.761-12.868 12.867h8.902c0-7.106 5.761-12.867 12.868-12.867z" fill="url(#SVGID_13_)"/><path d="m310.501 371.901-17.734-66.184c-4.083-15.239-19.483-24.919-34.828-21.255-15.921 3.801-25.471 19.954-21.262 35.66 3.104 11.584 12.81 19.636 23.986 21.192 7.458 1.038 13.457 6.678 15.406 13.951 3.571 13.326 17.268 21.234 30.594 17.664z" fill="url(#SVGID_14_)"/><path d="m288.309 355.266c-1.949-7.273-7.948-12.913-15.406-13.951-11.175-1.556-20.882-9.608-23.986-21.192-4.209-15.707 5.341-31.859 21.262-35.66.149-.036.298-.07.447-.103-4.065-.903-8.378-.926-12.687.103-15.921 3.801-25.471 19.953-21.262 35.66 3.104 11.584 12.81 19.636 23.986 21.192 7.458 1.038 13.457 6.678 15.406 13.951 3.539 13.208 17.026 21.093 30.24 17.755-8.479-2.153-15.575-8.705-18-17.755z" fill="url(#SVGID_15_)"/><path d="m0 85.556 19.884 1.981c3.152.314 6.318.471 9.485.471h32.719l8.841-8.945-70.89 6.444z" fill="url(#SVGID_16_)"/><path d="m66.844 55.052-34.511 9.296c-12.744 3.432-24.058 10.846-32.294 21.159h64.522l30.101-30.455z" fill="url(#SVGID_17_)"/><path d="m94.662 55.052-34.511 9.296c-12.743 3.432-24.058 10.846-32.293 21.159l-.039.049 19.884 1.981c3.152.314 6.318.471 9.485.471h32.719c6.565 0 12.861-2.608 17.503-7.25l2.963-2.963c1.041-1.041 1.04-2.728-.001-3.768l-13.392-13.383c-1.484-1.483-2.318-3.495-2.318-5.592z" fill="url(#SVGID_18_)"/><path d="m343.021 307.044-26.854-7.734-.699.998c-7.546 10.776-22.187 13.797-33.381 6.886l-35.1-21.669c-5.159 9.525-18.202 11.055-25.425 2.982l-54.086-60.446c-11.617-12.983-13.034-32.161-3.451-46.711l.473-.718c11.613-17.633 34.789-23.119 52.941-12.639l193.151 111.516c-13.453 23.691-41.389 35.075-67.569 27.535z" fill="url(#SVGID_19_)"/><path d="m190.844 228.061c-11.617-12.983-13.034-32.161-3.451-46.711l.473-.718c5.29-8.032 12.98-13.544 21.501-16.174-16.491-5.121-34.921 1.07-44.869 16.174l-.473.718c-9.583 14.549-8.166 33.728 3.451 46.711l54.086 60.446c6.393 7.145 17.343 6.768 23.353-.016z" fill="url(#SVGID_20_)"/><path d="m273.022 469.867c129.676 0 234.799-12.879 234.799-29.099h-469.598c0 16.22 105.123 29.099 234.799 29.099z" fill="url(#SVGID_21_)"/></g></svg>